<svg width="96" height="136" viewBox="0 0 96 136" fill="none" xmlns="http://www.w3.org/2000/svg">
<path fill-rule="evenodd" clip-rule="evenodd" d="M89.494 28.0354L89.8695 28.9116C92.6232 34.9823 94 41.3659 94 48C94 73.3469 73.3469 94 48 94C22.6531 94 2 73.3469 2 48C2 22.6531 22.6531 2 48 2C55.4477 2 62.5196 3.75238 69.0286 7.00681L69.9046 7.4449L69.1537 8.07074C67.2763 9.57278 65.8368 11.4503 64.8981 13.6408L64.6477 14.2667L64.0845 14.0163C59.015 11.6381 53.6327 10.3864 48 10.3864C27.2218 10.3864 10.3864 27.2218 10.3864 48C10.3864 68.7782 27.2218 85.6136 48 85.6136C68.7782 85.6136 85.6136 68.7155 85.6136 48C85.6136 43.0559 84.6749 38.1741 82.7346 33.6055L82.4845 32.9796L83.1101 32.7292C85.3005 31.9155 87.3033 30.5388 88.8681 28.7864L89.494 28.0354ZM78.1033 28.9116C83.3918 28.9116 87.679 24.6245 87.679 19.3361C87.679 14.0477 83.3918 9.7606 78.1033 9.7606C72.815 9.7606 68.5278 14.0477 68.5278 19.3361C68.5278 24.6245 72.815 28.9116 78.1033 28.9116ZM47.9997 27.0342C36.4215 27.0342 27.0338 36.4218 27.0338 48.0003C27.0338 59.5785 36.4215 68.9662 47.9997 68.9662C59.5779 68.9662 68.9657 59.5785 68.9657 48.0003C68.9657 36.4218 59.5779 27.0342 47.9997 27.0342Z" fill="#CBCBCB"/>
<path d="M31.6568 118.848V130H30.2008V118.848H31.6568ZM37.9623 130.144C37.1409 130.144 36.3943 129.957 35.7223 129.584C35.0609 129.211 34.5383 128.683 34.1543 128C33.7809 127.307 33.5943 126.507 33.5943 125.6C33.5943 124.704 33.7863 123.915 34.1703 123.232C34.5649 122.539 35.0983 122.011 35.7703 121.648C36.4423 121.275 37.1943 121.088 38.0263 121.088C38.8583 121.088 39.6103 121.275 40.2823 121.648C40.9543 122.011 41.4823 122.533 41.8663 123.216C42.2609 123.899 42.4583 124.693 42.4583 125.6C42.4583 126.507 42.2556 127.307 41.8503 128C41.4556 128.683 40.9169 129.211 40.2343 129.584C39.5516 129.957 38.7943 130.144 37.9623 130.144ZM37.9623 128.864C38.4849 128.864 38.9756 128.741 39.4343 128.496C39.8929 128.251 40.2609 127.883 40.5383 127.392C40.8263 126.901 40.9703 126.304 40.9703 125.6C40.9703 124.896 40.8316 124.299 40.5543 123.808C40.2769 123.317 39.9143 122.955 39.4663 122.72C39.0183 122.475 38.5329 122.352 38.0103 122.352C37.4769 122.352 36.9863 122.475 36.5383 122.72C36.1009 122.955 35.7489 123.317 35.4823 123.808C35.2156 124.299 35.0823 124.896 35.0823 125.6C35.0823 126.315 35.2103 126.917 35.4663 127.408C35.7329 127.899 36.0849 128.267 36.5223 128.512C36.9596 128.747 37.4396 128.864 37.9623 128.864ZM48.6446 121.072C49.7113 121.072 50.5753 121.397 51.2366 122.048C51.898 122.688 52.2286 123.616 52.2286 124.832V130H50.7886V125.04C50.7886 124.165 50.57 123.499 50.1326 123.04C49.6953 122.571 49.098 122.336 48.3406 122.336C47.5726 122.336 46.9593 122.576 46.5006 123.056C46.0526 123.536 45.8286 124.235 45.8286 125.152V130H44.3726V121.232H45.8286V122.48C46.1166 122.032 46.506 121.685 46.9966 121.44C47.498 121.195 48.0473 121.072 48.6446 121.072ZM55.359 119.808C55.0817 119.808 54.847 119.712 54.655 119.52C54.463 119.328 54.367 119.093 54.367 118.816C54.367 118.539 54.463 118.304 54.655 118.112C54.847 117.92 55.0817 117.824 55.359 117.824C55.6257 117.824 55.8497 117.92 56.031 118.112C56.223 118.304 56.319 118.539 56.319 118.816C56.319 119.093 56.223 119.328 56.031 119.52C55.8497 119.712 55.6257 119.808 55.359 119.808ZM56.063 121.232V130H54.607V121.232H56.063ZM58.0005 125.6C58.0005 124.693 58.1818 123.904 58.5445 123.232C58.9072 122.549 59.4085 122.021 60.0485 121.648C60.6992 121.275 61.4405 121.088 62.2725 121.088C63.3498 121.088 64.2352 121.349 64.9285 121.872C65.6325 122.395 66.0965 123.12 66.3205 124.048H64.7525C64.6032 123.515 64.3098 123.093 63.8725 122.784C63.4458 122.475 62.9125 122.32 62.2725 122.32C61.4405 122.32 60.7685 122.608 60.2565 123.184C59.7445 123.749 59.4885 124.555 59.4885 125.6C59.4885 126.656 59.7445 127.472 60.2565 128.048C60.7685 128.624 61.4405 128.912 62.2725 128.912C62.9125 128.912 63.4458 128.763 63.8725 128.464C64.2992 128.165 64.5925 127.739 64.7525 127.184H66.3205C66.0858 128.08 65.6165 128.8 64.9125 129.344C64.2085 129.877 63.3285 130.144 62.2725 130.144C61.4405 130.144 60.6992 129.957 60.0485 129.584C59.4085 129.211 58.9072 128.683 58.5445 128C58.1818 127.317 58.0005 126.517 58.0005 125.6Z" fill="#AFAFAF"/>
</svg>
