<svg width="64" height="64" viewBox="0 0 64 64" fill="none" xmlns="http://www.w3.org/2000/svg">
<circle cx="32" cy="32" r="32" fill="#FFE603"/>
<path d="M42 33C42.5523 33 43 32.5523 43 32C43 31.4477 42.5523 31 42 31V33ZM38 32V31C37.5696 31 37.1874 31.2754 37.0513 31.6838L38 32ZM35 41L34.0513 41.3162C34.1874 41.7246 34.5696 42 35 42C35.4304 42 35.8126 41.7246 35.9487 41.3162L35 41ZM29 23L29.9487 22.6838C29.8126 22.2754 29.4304 22 29 22C28.5696 22 28.1874 22.2754 28.0513 22.6838L29 23ZM26 32V33C26.4304 33 26.8126 32.7246 26.9487 32.3162L26 32ZM22 31C21.4477 31 21 31.4477 21 32C21 32.5523 21.4477 33 22 33V31ZM42 31H38V33H42V31ZM37.0513 31.6838L34.0513 40.6838L35.9487 41.3162L38.9487 32.3162L37.0513 31.6838ZM35.9487 40.6838L29.9487 22.6838L28.0513 23.3162L34.0513 41.3162L35.9487 40.6838ZM28.0513 22.6838L25.0513 31.6838L26.9487 32.3162L29.9487 23.3162L28.0513 22.6838ZM26 31H22V33H26V31Z" fill="#171717"/>
</svg>
