<svg width="64" height="64" viewBox="0 0 64 64" fill="none" xmlns="http://www.w3.org/2000/svg">
<circle cx="32" cy="32" r="32" fill="#FFE603"/>
<path d="M43 28.0004C43 27.4481 42.5523 27.0004 42 27.0004C41.4477 27.0004 41 27.4481 41 28.0004H43ZM41 32.0004C41 32.5527 41.4477 33.0004 42 33.0004C42.5523 33.0004 43 32.5527 43 32.0004H41ZM25 34.5004H26C26 33.9481 25.5523 33.5004 25 33.5004V34.5004ZM29.5 34.5004V33.5004C28.9477 33.5004 28.5 33.9481 28.5 34.5004H29.5ZM38.3133 23.2993L39.1266 22.7175V22.7175L38.3133 23.2993ZM35.8443 23.6448L35.3657 22.7667L35.8443 23.6448ZM37.6216 22.8885L37.5 23.8811L37.6216 22.8885ZM35.8443 36.356L36.3229 35.478L35.8443 36.356ZM37.6216 37.1123L37.5 36.1197L37.6216 37.1123ZM38.3133 36.7015L37.5 36.1197L38.3133 36.7015ZM25.0096 39.1964L26.0048 39.0984L25.0096 39.1964ZM26.804 40.9908L26.902 39.9956L26.804 40.9908ZM22 31.5004L23 31.5004L22 31.5004ZM22.1522 33.2658L23.0761 32.8831L22.1522 33.2658ZM23.2346 34.3482L22.8519 35.272L23.2346 34.3482ZM27.696 40.9908L27.598 39.9956L27.696 40.9908ZM29.4904 39.1964L28.4952 39.0984L29.4904 39.1964ZM23.638 25.8274L24.092 26.7184L23.638 25.8274ZM22 30.3004L21 30.3004L22 30.3004ZM22.327 27.1384L23.218 27.5924L22.327 27.1384ZM41 28.0004V32.0004H43V28.0004H41ZM26.8 26.5004H30.25V24.5004H26.8V26.5004ZM23 31.5004L23 30.3004L21 30.3004L21 31.5004L23 31.5004ZM26 38.7504V34.5004H24V38.7504H26ZM28.5 34.5004V38.7504H30.5V34.5004H28.5ZM30.25 33.5004H29.5V35.5004H30.25V33.5004ZM36.3229 35.478C34.6487 34.5654 32.2917 33.5004 30.25 33.5004V35.5004C31.7411 35.5004 33.7058 36.3292 35.3657 37.2341L36.3229 35.478ZM37.5 25.1267V34.8741H39.5V25.1267H37.5ZM30.25 26.5004C32.2917 26.5004 34.6487 25.4354 36.3229 24.5228L35.3657 22.7667C33.7058 23.6716 31.7411 24.5004 30.25 24.5004V26.5004ZM39.5 25.1267C39.5 24.6221 39.5008 24.1829 39.4735 23.84C39.4484 23.5243 39.3906 23.0865 39.1266 22.7175L37.5 23.8811C37.4227 23.7731 37.4582 23.7268 37.4798 23.9984C37.4992 24.243 37.5 24.587 37.5 25.1267H39.5ZM36.3229 24.5228C36.824 24.2496 37.1492 24.0731 37.3895 23.9647C37.663 23.8413 37.6396 23.8982 37.5 23.8811L37.7431 21.8959C37.2851 21.8398 36.8593 22.0098 36.5669 22.1417C36.2413 22.2886 35.8372 22.5097 35.3657 22.7667L36.3229 24.5228ZM39.1266 22.7175C38.7906 22.2478 38.3164 21.9662 37.7431 21.8959L37.5 23.8811C37.5156 23.883 37.5211 23.8851 37.5193 23.8845C37.5184 23.8842 37.5163 23.8834 37.5132 23.882C37.51 23.8806 37.5064 23.8788 37.5027 23.8766C37.499 23.8743 37.4957 23.8721 37.4929 23.87C37.4902 23.8679 37.4885 23.8664 37.4878 23.8658C37.4864 23.8645 37.4909 23.8683 37.5 23.8811L39.1266 22.7175ZM35.3657 37.2341C35.8372 37.4911 36.2413 37.7122 36.5669 37.8591C36.8593 37.991 37.2851 38.161 37.7431 38.1049L37.5 36.1197C37.6396 36.1026 37.663 36.1595 37.3895 36.0361C37.1492 35.9277 36.824 35.7512 36.3229 35.478L35.3657 37.2341ZM37.5 34.8741C37.5 35.4138 37.4992 35.7578 37.4798 36.0024C37.4582 36.274 37.4227 36.2277 37.5 36.1197L39.1266 37.2833C39.3906 36.9143 39.4484 36.4765 39.4735 36.1608C39.5008 35.8179 39.5 35.3787 39.5 34.8741H37.5ZM37.7431 38.1049C38.3164 38.0346 38.7906 37.753 39.1266 37.2833L37.5 36.1197C37.4909 36.1325 37.4864 36.1363 37.4878 36.135C37.4885 36.1344 37.4902 36.1329 37.4929 36.1308C37.4957 36.1287 37.499 36.1265 37.5027 36.1242C37.5064 36.122 37.51 36.1202 37.5132 36.1188C37.5163 36.1174 37.5184 36.1166 37.5193 36.1163C37.5211 36.1157 37.5156 36.1178 37.5 36.1197L37.7431 38.1049ZM24 38.7504C24 38.9588 23.9988 39.1355 24.0144 39.2945L26.0048 39.0984C26.0012 39.0618 26 39.0064 26 38.7504H24ZM27.25 40.0004C26.994 40.0004 26.9386 39.9992 26.902 39.9956L26.706 41.986C26.8649 42.0016 27.0416 42.0004 27.25 42.0004V40.0004ZM24.0144 39.2945C24.1547 40.7188 25.2816 41.8457 26.706 41.986L26.902 39.9956C26.4272 39.9488 26.0516 39.5732 26.0048 39.0984L24.0144 39.2945ZM21 31.5004C21 31.9527 20.9995 32.3419 21.0214 32.6628C21.0439 32.9926 21.0934 33.3225 21.2284 33.6485L23.0761 32.8831C23.0589 32.8415 23.0323 32.7546 23.0167 32.5266C23.0005 32.2897 23 31.98 23 31.5004L21 31.5004ZM25 33.5004C24.5204 33.5004 24.2107 33.4999 23.9738 33.4837C23.7458 33.4681 23.6589 33.4415 23.6173 33.4243L22.8519 35.272C23.1779 35.407 23.5078 35.4565 23.8376 35.479C24.1585 35.5009 24.5477 35.5004 25 35.5004V33.5004ZM21.2284 33.6485C21.5328 34.3835 22.1169 34.9676 22.8519 35.272L23.6173 33.4243C23.3723 33.3228 23.1776 33.1281 23.0761 32.8831L21.2284 33.6485ZM27.25 42.0004C27.4584 42.0004 27.6351 42.0016 27.7941 41.986L27.598 39.9956C27.5615 39.9992 27.506 40.0004 27.25 40.0004V42.0004ZM28.5 38.7504C28.5 39.0064 28.4988 39.0618 28.4952 39.0984L30.4856 39.2945C30.5012 39.1355 30.5 38.9588 30.5 38.7504H28.5ZM27.7941 41.986C29.2184 41.8457 30.3453 40.7188 30.4856 39.2945L28.4952 39.0984C28.4484 39.5732 28.0728 39.9488 27.598 39.9956L27.7941 41.986ZM26.8 24.5004C25.9764 24.5004 25.2986 24.4996 24.7482 24.5446C24.1861 24.5905 23.6694 24.6891 23.184 24.9364L24.092 26.7184C24.2484 26.6387 24.4726 26.5738 24.911 26.538C25.3611 26.5012 25.9434 26.5004 26.8 26.5004V24.5004ZM23 30.3004C23 29.4438 23.0008 28.8615 23.0376 28.4114C23.0734 27.973 23.1383 27.7488 23.218 27.5924L21.436 26.6844C21.1887 27.1698 21.0901 27.6865 21.0442 28.2486C20.9992 28.799 21 29.4768 21 30.3004L23 30.3004ZM23.184 24.9364C22.4314 25.3199 21.8195 25.9318 21.436 26.6844L23.218 27.5924C23.4097 27.2161 23.7157 26.9101 24.092 26.7184L23.184 24.9364Z" fill="#171717"/>
</svg>
