<svg width="64" height="64" viewBox="0 0 64 64" fill="none" xmlns="http://www.w3.org/2000/svg">
<circle cx="32" cy="32" r="32" fill="#FFE603"/>
<path d="M38.5 25.2558C38.5 24.7035 38.0523 24.2558 37.5 24.2558C36.9477 24.2558 36.5 24.7035 36.5 25.2558H38.5ZM31.1667 26.6512C31.1667 26.0989 30.719 25.6512 30.1667 25.6512C29.6144 25.6512 29.1667 26.0989 29.1667 26.6512H31.1667ZM36.5 25.2558V36.5H38.5V25.2558H36.5ZM27.5 36.5V25.6667H25.5V36.5H27.5ZM32.8333 25.6667V36.4457H34.8333V25.6667H32.8333ZM31.1667 36.4457V26.6512H29.1667V36.4457H31.1667ZM32 37.2791C31.5398 37.2791 31.1667 36.906 31.1667 36.4457H29.1667C29.1667 38.0105 30.4352 39.2791 32 39.2791V37.2791ZM32.8333 36.4457C32.8333 36.906 32.4602 37.2791 32 37.2791V39.2791C33.5648 39.2791 34.8333 38.0105 34.8333 36.4457H32.8333ZM30.1667 23C31.6394 23 32.8333 24.1939 32.8333 25.6667H34.8333C34.8333 23.0893 32.744 21 30.1667 21V23ZM27.5 25.6667C27.5 24.1939 28.6939 23 30.1667 23V21C27.5893 21 25.5 23.0893 25.5 25.6667H27.5ZM32 41C29.5147 41 27.5 38.9853 27.5 36.5H25.5C25.5 40.0899 28.4101 43 32 43V41ZM36.5 36.5C36.5 38.9853 34.4853 41 32 41V43C35.5899 43 38.5 40.0899 38.5 36.5H36.5Z" fill="#171717"/>
</svg>
