<svg width="64" height="64" viewBox="0 0 64 64" fill="none" xmlns="http://www.w3.org/2000/svg">
<circle cx="32" cy="32" r="32" fill="#FFE603"/>
<path d="M28 35.0903C28 34.538 27.5523 34.0903 27 34.0903C26.4477 34.0903 26 34.538 26 35.0903H28ZM27 42H26C26 42.3318 26.1646 42.642 26.4394 42.8281C26.7141 43.0141 27.0633 43.0517 27.3714 42.9285L27 42ZM31.7029 40.1188L32.0743 41.0473H32.0743L31.7029 40.1188ZM32.2971 40.1188L31.9257 41.0473H31.9257L32.2971 40.1188ZM37 42L36.6286 42.9285C36.9367 43.0517 37.2859 43.0141 37.5606 42.8281C37.8354 42.642 38 42.3318 38 42H37ZM38 35.0903C38 34.538 37.5523 34.0903 37 34.0903C36.4477 34.0903 36 34.538 36 35.0903H38ZM31.9242 40.0443L32.0758 41.0327H32.0758L31.9242 40.0443ZM32.0758 40.0443L31.9242 41.0327H31.9242L32.0758 40.0443ZM38.5 29.5C38.5 33.0899 35.5899 36 32 36V38C36.6944 38 40.5 34.1944 40.5 29.5H38.5ZM32 36C28.4101 36 25.5 33.0899 25.5 29.5H23.5C23.5 34.1944 27.3056 38 32 38V36ZM25.5 29.5C25.5 25.9101 28.4101 23 32 23V21C27.3056 21 23.5 24.8056 23.5 29.5H25.5ZM32 23C35.5899 23 38.5 25.9101 38.5 29.5H40.5C40.5 24.8056 36.6944 21 32 21V23ZM26 35.0903V42H28V35.0903H26ZM27.3714 42.9285L32.0743 41.0473L31.3315 39.1904L26.6286 41.0715L27.3714 42.9285ZM31.9257 41.0473L36.6286 42.9285L37.3714 41.0715L32.6685 39.1904L31.9257 41.0473ZM38 42V35.0903H36V42H38ZM32.0743 41.0473C32.0882 41.0418 32.1001 41.037 32.1112 41.0326C32.1221 41.0282 32.1312 41.0246 32.139 41.0216C32.1468 41.0186 32.1525 41.0164 32.1568 41.0148C32.161 41.0132 32.163 41.0125 32.1633 41.0124C32.1641 41.0121 32.1551 41.0153 32.1395 41.0195C32.1315 41.0216 32.1219 41.024 32.1109 41.0263C32.0998 41.0287 32.0881 41.0308 32.0758 41.0327L31.7726 39.0559C31.5763 39.086 31.3986 39.1635 31.3315 39.1904L32.0743 41.0473ZM32.6685 39.1904C32.6014 39.1635 32.4237 39.086 32.2274 39.0559L31.9242 41.0327C31.9119 41.0308 31.9002 41.0287 31.8891 41.0263C31.8781 41.024 31.8685 41.0216 31.8605 41.0195C31.8449 41.0153 31.8358 41.0121 31.8367 41.0124C31.837 41.0125 31.839 41.0132 31.8432 41.0148C31.8475 41.0164 31.8532 41.0186 31.861 41.0216C31.8688 41.0246 31.8779 41.0282 31.8888 41.0326C31.8999 41.037 31.9118 41.0417 31.9257 41.0473L32.6685 39.1904ZM32.0758 41.0327C32.0256 41.0404 31.9744 41.0404 31.9242 41.0327L32.2274 39.0559C32.0767 39.0327 31.9233 39.0327 31.7726 39.0559L32.0758 41.0327Z" fill="#171717"/>
</svg>
