<svg width="64" height="64" viewBox="0 0 64 64" fill="none" xmlns="http://www.w3.org/2000/svg">
<circle cx="32" cy="32" r="32" fill="#FFE603"/>
<path d="M22 28.2H23H22ZM22.218 26.092L23.109 26.546L22.218 26.092ZM25.2 25V24V25ZM23.092 25.218L22.638 24.327L23.092 25.218ZM25.2 39L25.2 38H25.2V39ZM23.092 38.782L23.546 37.891L23.092 38.782ZM22 35.8H21H22ZM22.218 37.908L21.327 38.362L22.218 37.908ZM41.782 37.908L40.891 37.454L41.782 37.908ZM38.8 39V40V39ZM40.908 38.782L40.454 37.891L40.908 38.782ZM41.782 26.092L42.673 25.638L41.782 26.092ZM38.8 25V26V25ZM40.908 25.218L40.454 26.109L40.908 25.218ZM34 30C34.5523 30 35 29.5523 35 29C35 28.4477 34.5523 28 34 28V30ZM30 34C29.4477 34 29 34.4477 29 35C29 35.5523 29.4477 36 30 36V34ZM33 28C33 27.4477 32.5523 27 32 27C31.4477 27 31 27.4477 31 28H33ZM31 29C31 29.5523 31.4477 30 32 30C32.5523 30 33 29.5523 33 29H31ZM33 35C33 34.4477 32.5523 34 32 34C31.4477 34 31 34.4477 31 35H33ZM31 36C31 36.5523 31.4477 37 32 37C32.5523 37 33 36.5523 33 36H31ZM38 31C37.4477 31 37 31.4477 37 32C37 32.5523 37.4477 33 38 33V31ZM38.01 33C38.5623 33 39.01 32.5523 39.01 32C39.01 31.4477 38.5623 31 38.01 31V33ZM26 31C25.4477 31 25 31.4477 25 32C25 32.5523 25.4477 33 26 33V31ZM26.01 33C26.5623 33 27.01 32.5523 27.01 32C27.01 31.4477 26.5623 31 26.01 31V33ZM41 28.2V35.8H43V28.2H41ZM38.8 38L25.2 38L25.2 40L38.8 40V38ZM23 35.8L23 28.2H21L21 35.8H23ZM25.2 26L38.8 26V24L25.2 24V26ZM23 28.2C23 27.6234 23.0008 27.2512 23.0239 26.9678C23.0461 26.6962 23.0838 26.5955 23.109 26.546L21.327 25.638C21.1342 26.0164 21.0629 26.4096 21.0306 26.805C20.9992 27.1886 21 27.6564 21 28.2H23ZM25.2 24C24.6564 24 24.1886 23.9992 23.805 24.0306C23.4096 24.0629 23.0164 24.1342 22.638 24.327L23.546 26.109C23.5955 26.0838 23.6962 26.0461 23.9678 26.0239C24.2512 26.0008 24.6234 26 25.2 26V24ZM23.109 26.546C23.2049 26.3578 23.3578 26.2049 23.546 26.109L22.638 24.327C22.0735 24.6146 21.6146 25.0735 21.327 25.638L23.109 26.546ZM25.2 38C24.6234 38 24.2512 37.9992 23.9678 37.9761C23.6962 37.9539 23.5955 37.9162 23.546 37.891L22.638 39.673C23.0164 39.8658 23.4096 39.9371 23.805 39.9694C24.1886 40.0008 24.6564 40 25.2 40V38ZM21 35.8C21 36.3435 20.9992 36.8114 21.0306 37.195C21.0629 37.5904 21.1342 37.9836 21.327 38.362L23.109 37.454C23.0838 37.4045 23.0461 37.3038 23.0239 37.0322C23.0008 36.7488 23 36.3766 23 35.8H21ZM23.546 37.891C23.3578 37.7951 23.2049 37.6422 23.109 37.454L21.327 38.362C21.6146 38.9265 22.0735 39.3854 22.638 39.673L23.546 37.891ZM41 35.8C41 36.3766 40.9992 36.7488 40.9761 37.0322C40.9539 37.3038 40.9162 37.4045 40.891 37.454L42.673 38.362C42.8658 37.9836 42.9371 37.5904 42.9694 37.195C43.0008 36.8114 43 36.3436 43 35.8H41ZM38.8 40C39.3436 40 39.8114 40.0008 40.195 39.9694C40.5904 39.9371 40.9836 39.8658 41.362 39.673L40.454 37.891C40.4045 37.9162 40.3038 37.9539 40.0322 37.9761C39.7488 37.9992 39.3766 38 38.8 38V40ZM40.891 37.454C40.7951 37.6422 40.6422 37.7951 40.454 37.891L41.362 39.673C41.9265 39.3854 42.3854 38.9265 42.673 38.362L40.891 37.454ZM43 28.2C43 27.6565 43.0008 27.1886 42.9694 26.805C42.9371 26.4096 42.8658 26.0164 42.673 25.638L40.891 26.546C40.9162 26.5955 40.9539 26.6962 40.9761 26.9678C40.9992 27.2512 41 27.6234 41 28.2H43ZM38.8 26C39.3766 26 39.7488 26.0008 40.0322 26.0239C40.3038 26.0461 40.4045 26.0838 40.454 26.109L41.362 24.327C40.9836 24.1342 40.5904 24.0629 40.195 24.0306C39.8114 23.9992 39.3436 24 38.8 24V26ZM42.673 25.638C42.3854 25.0735 41.9265 24.6146 41.362 24.327L40.454 26.109C40.6422 26.2049 40.7951 26.3578 40.891 26.546L42.673 25.638ZM34 28H31.5V30H34V28ZM31.5 33H32.5V31H31.5V33ZM32.5 34H30V36H32.5V34ZM33 33.5C33 33.7761 32.7761 34 32.5 34V36C33.8807 36 35 34.8807 35 33.5H33ZM32.5 33C32.7761 33 33 33.2239 33 33.5H35C35 32.1193 33.8807 31 32.5 31V33ZM29 30.5C29 31.8807 30.1193 33 31.5 33V31C31.2239 31 31 30.7761 31 30.5H29ZM31.5 28C30.1193 28 29 29.1193 29 30.5H31C31 30.2239 31.2239 30 31.5 30V28ZM31 28V29H33V28H31ZM31 35V36H33V35H31ZM38 33H38.01V31H38V33ZM37.5 32C37.5 31.7239 37.7239 31.5 38 31.5V33.5C38.8284 33.5 39.5 32.8284 39.5 32H37.5ZM38 31.5C38.2761 31.5 38.5 31.7239 38.5 32H36.5C36.5 32.8284 37.1716 33.5 38 33.5V31.5ZM38.5 32C38.5 32.2761 38.2761 32.5 38 32.5V30.5C37.1716 30.5 36.5 31.1716 36.5 32H38.5ZM38 32.5C37.7239 32.5 37.5 32.2761 37.5 32H39.5C39.5 31.1716 38.8284 30.5 38 30.5V32.5ZM26 33H26.01V31H26V33ZM25.5 32C25.5 31.7239 25.7239 31.5 26 31.5V33.5C26.8284 33.5 27.5 32.8284 27.5 32H25.5ZM26 31.5C26.2761 31.5 26.5 31.7239 26.5 32H24.5C24.5 32.8284 25.1716 33.5 26 33.5V31.5ZM26.5 32C26.5 32.2761 26.2761 32.5 26 32.5V30.5C25.1716 30.5 24.5 31.1716 24.5 32H26.5ZM26 32.5C25.7239 32.5 25.5 32.2761 25.5 32H27.5C27.5 31.1716 26.8284 30.5 26 30.5V32.5Z" fill="#171717"/>
</svg>
