<svg width="64" height="64" viewBox="0 0 64 64" fill="none" xmlns="http://www.w3.org/2000/svg">
<circle cx="32" cy="32" r="32" fill="#FFE603"/>
<path d="M37 40C37 40.5523 37.4477 41 38 41C38.5523 41 39 40.5523 39 40H37ZM39 24C39 23.4477 38.5523 23 38 23C37.4477 23 37 23.4477 37 24H39ZM25 40C25 40.5523 25.4477 41 26 41C26.5523 41 27 40.5523 27 40H25ZM27 36C27 35.4477 26.5523 35 26 35C25.4477 35 25 35.4477 25 36H27ZM31 40C31 40.5523 31.4477 41 32 41C32.5523 41 33 40.5523 33 40H31ZM33 30C33 29.4477 32.5523 29 32 29C31.4477 29 31 29.4477 31 30H33ZM39 40V24H37V40H39ZM27 40V36H25V40H27ZM33 40V30H31V40H33Z" fill="#171717"/>
</svg>
