<svg width="64" height="64" viewBox="0 0 64 64" fill="none" xmlns="http://www.w3.org/2000/svg">
<circle cx="32" cy="32" r="32" fill="#FFE603"/>
<path d="M24 31C24 30.4477 23.5523 30 23 30C22.4477 30 22 30.4477 22 31H24ZM22 41C22 41.5523 22.4477 42 23 42C23.5523 42 24 41.5523 24 41H22ZM36 31C36 30.4477 35.5523 30 35 30C34.4477 30 34 30.4477 34 31H36ZM34 41C34 41.5523 34.4477 42 35 42C35.5523 42 36 41.5523 36 41H34ZM30 23C30 22.4477 29.5523 22 29 22C28.4477 22 28 22.4477 28 23L30 23ZM28 41C28 41.5523 28.4477 42 29 42C29.5523 42 30 41.5523 30 41H28ZM42 23C42 22.4477 41.5523 22 41 22C40.4477 22 40 22.4477 40 23H42ZM40 41C40 41.5523 40.4477 42 41 42C41.5523 42 42 41.5523 42 41H40ZM22 31L22 41H24L24 31H22ZM34 31L34 41H36L36 31H34ZM28 23L28 41H30L30 23L28 23ZM40 23V41H42V23H40Z" fill="#171717"/>
</svg>
