<svg width="64" height="64" viewBox="0 0 64 64" fill="none" xmlns="http://www.w3.org/2000/svg">
<circle cx="32" cy="32" r="32" fill="#FFE603"/>
<path d="M24.1514 36.0405L24.7916 36.8087L24.7916 36.8087L24.1514 36.0405ZM27.8486 32.9595L27.2084 32.1913V32.1913L27.8486 32.9595ZM36.1514 32.9595L36.7916 32.1913L36.1514 32.9595ZM39.8486 36.0405L39.2084 36.8087V36.8087L39.8486 36.0405ZM30 26C30 25.4477 29.5523 25 29 25C28.4477 25 28 25.4477 28 26H30ZM36 26C36 25.4477 35.5523 25 35 25C34.4477 25 34 25.4477 34 26H36ZM35.3644 32.2143L36.1822 31.6388L36.1822 31.6388L35.3644 32.2143ZM35.0687 31.5829L34.103 31.8427L34.103 31.8427L35.0687 31.5829ZM28.6356 32.2143L29.4534 32.7898L29.4534 32.7898L28.6356 32.2143ZM28.9313 31.5829L27.9657 31.3231L27.9657 31.3231L28.9313 31.5829ZM24.092 41.782L24.546 40.891H24.546L24.092 41.782ZM23.218 40.908L24.109 40.454H24.109L23.218 40.908ZM40.782 40.908L39.891 40.454L39.891 40.454L40.782 40.908ZM39.908 41.782L40.362 42.673L39.908 41.782ZM40.9313 37.4171L41.897 37.1573V37.1573L40.9313 37.4171ZM40.6356 36.7857L39.8178 37.3612L40.6356 36.7857ZM23.0687 37.4171L24.0343 37.6769L24.0343 37.6769L23.0687 37.4171ZM23.3644 36.7857L22.5466 36.2102L22.5466 36.2102L23.3644 36.7857ZM27.773 25.9455L28.227 25.0545L27.773 25.9455ZM27.5545 25.727L28.4455 25.273L27.5545 25.727ZM36.4455 25.727L35.5545 25.273L36.4455 25.727ZM36.227 25.9455L35.773 25.0545L36.227 25.9455ZM36.227 22.0545L35.773 22.9455L36.227 22.0545ZM36.4455 22.273L35.5545 22.727L36.4455 22.273ZM27.773 22.0545L28.227 22.9455L27.773 22.0545ZM27.5545 22.273L28.4455 22.727L27.5545 22.273ZM39.3902 41.9616L39.5853 42.9424H39.5853L39.3902 41.9616ZM40.9616 40.3902L41.9424 40.5853V40.5853L40.9616 40.3902ZM23.0384 40.3902L24.0192 40.1951L23.0384 40.3902ZM24.6098 41.9616L24.4147 42.9424H24.4147L24.6098 41.9616ZM39.3902 37.0384L39.1951 38.0192L39.3902 37.0384ZM40.9616 38.6098L41.9424 38.4147V38.4147L40.9616 38.6098ZM24.6098 37.0384L24.8049 38.0192H24.8049L24.6098 37.0384ZM23.0384 38.6098L24.0192 38.8049L23.0384 38.6098ZM40 38.4988V38.8H42V38.4988H40ZM37.8 41H26.2V43H37.8V41ZM24 38.8V38.4988H22V38.8H24ZM24.7916 36.8087L28.4888 33.7277L27.2084 32.1913L23.5112 35.2723L24.7916 36.8087ZM35.5112 33.7277L39.2084 36.8087L40.4888 35.2723L36.7916 32.1913L35.5112 33.7277ZM30 30.5012V26H28V30.5012H30ZM34 26V30.5012H36V26H34ZM36.7916 32.1913C36.3268 31.8039 36.2405 31.7216 36.1822 31.6388L34.5466 32.7898C34.7926 33.1394 35.1296 33.4097 35.5112 33.7277L36.7916 32.1913ZM34 30.5012C34 30.998 33.992 31.4299 34.103 31.8427L36.0343 31.3231C36.008 31.2253 36 31.1062 36 30.5012H34ZM36.1822 31.6388C36.1148 31.543 36.0648 31.4361 36.0343 31.3231L34.103 31.8427C34.1943 32.1819 34.3444 32.5025 34.5466 32.7898L36.1822 31.6388ZM28.4888 33.7277C28.8704 33.4097 29.2074 33.1394 29.4534 32.7898L27.8178 31.6388C27.7595 31.7216 27.6732 31.8039 27.2084 32.1913L28.4888 33.7277ZM28 30.5012C28 31.1062 27.992 31.2253 27.9657 31.3231L29.897 31.8427C30.008 31.4299 30 30.998 30 30.5012H28ZM29.4534 32.7898C29.6556 32.5025 29.8057 32.1819 29.897 31.8427L27.9657 31.3231C27.9352 31.4361 27.8852 31.543 27.8178 31.6388L29.4534 32.7898ZM26.2 41C25.6234 41 25.2512 40.9992 24.9678 40.9761C24.6962 40.9539 24.5955 40.9162 24.546 40.891L23.638 42.673C24.0164 42.8658 24.4096 42.9371 24.805 42.9694C25.1886 43.0008 25.6564 43 26.2 43V41ZM22 38.8C22 39.3436 21.9992 39.8114 22.0306 40.195C22.0629 40.5904 22.1342 40.9836 22.327 41.362L24.109 40.454C24.0838 40.4045 24.0461 40.3038 24.0239 40.0322C24.0008 39.7488 24 39.3766 24 38.8H22ZM24.546 40.891C24.3578 40.7951 24.2049 40.6422 24.109 40.454L22.327 41.362C22.6146 41.9265 23.0735 42.3854 23.638 42.673L24.546 40.891ZM40 38.8C40 39.3766 39.9992 39.7488 39.9761 40.0322C39.9539 40.3038 39.9162 40.4045 39.891 40.454L41.673 41.362C41.8658 40.9836 41.9371 40.5904 41.9694 40.195C42.0008 39.8114 42 39.3436 42 38.8H40ZM37.8 43C38.3436 43 38.8114 43.0008 39.195 42.9694C39.5904 42.9371 39.9836 42.8658 40.362 42.673L39.454 40.891C39.4045 40.9162 39.3038 40.9539 39.0322 40.9761C38.7488 40.9992 38.3766 41 37.8 41V43ZM39.891 40.454C39.7951 40.6422 39.6422 40.7951 39.454 40.891L40.362 42.673C40.9265 42.3854 41.3854 41.9265 41.673 41.362L39.891 40.454ZM42 38.4988C42 38.002 42.008 37.5701 41.897 37.1573L39.9657 37.6769C39.992 37.7747 40 37.8938 40 38.4988H42ZM39.2084 36.8087C39.6732 37.1961 39.7595 37.2784 39.8178 37.3612L41.4534 36.2102C41.2074 35.8606 40.8704 35.5903 40.4888 35.2723L39.2084 36.8087ZM41.897 37.1573C41.8057 36.8181 41.6556 36.4975 41.4534 36.2102L39.8178 37.3612C39.8852 37.457 39.9352 37.5639 39.9657 37.677L41.897 37.1573ZM24 38.4988C24 37.8938 24.008 37.7747 24.0343 37.6769L22.103 37.1573C21.992 37.5701 22 38.002 22 38.4988H24ZM23.5112 35.2723C23.1296 35.5903 22.7926 35.8606 22.5466 36.2102L24.1822 37.3612C24.2405 37.2784 24.3268 37.1961 24.7916 36.8087L23.5112 35.2723ZM24.0343 37.6769C24.0648 37.5639 24.1148 37.457 24.1822 37.3612L22.5466 36.2102C22.3444 36.4975 22.1943 36.8181 22.103 37.1573L24.0343 37.6769ZM28.3 23H35.7V21H28.3V23ZM35.5 22.8V25.2H37.5V22.8H35.5ZM35.7 25H28.3V27H35.7V25ZM28.5 25.2V22.8H26.5V25.2H28.5ZM28.3 25C28.2277 25 28.175 25 28.1303 24.9993C28.0855 24.9986 28.0632 24.9973 28.053 24.9965C28.0433 24.9957 28.0595 24.9964 28.0903 25.0036C28.1243 25.0116 28.1727 25.0268 28.227 25.0545L27.319 26.8365C27.537 26.9476 27.745 26.978 27.8902 26.9899C28.0237 27.0008 28.1765 27 28.3 27V25ZM26.5 25.2C26.5 25.3235 26.4992 25.4763 26.5101 25.6098C26.522 25.755 26.5524 25.963 26.6635 26.181L28.4455 25.273C28.4732 25.3273 28.4884 25.3757 28.4964 25.4097C28.5036 25.4405 28.5043 25.4567 28.5035 25.447C28.5027 25.4368 28.5014 25.4145 28.5007 25.3697C28.5 25.325 28.5 25.2723 28.5 25.2H26.5ZM28.227 25.0545C28.3211 25.1024 28.3976 25.1789 28.4455 25.273L26.6635 26.181C26.8073 26.4632 27.0368 26.6927 27.319 26.8365L28.227 25.0545ZM35.5 25.2C35.5 25.2723 35.5 25.325 35.4993 25.3697C35.4986 25.4145 35.4973 25.4368 35.4965 25.447C35.4957 25.4567 35.4964 25.4405 35.5036 25.4097C35.5117 25.3757 35.5268 25.3273 35.5545 25.273L37.3365 26.181C37.4476 25.963 37.478 25.755 37.4899 25.6098C37.5008 25.4763 37.5 25.3235 37.5 25.2H35.5ZM35.7 27C35.8235 27 35.9763 27.0008 36.1098 26.9899C36.255 26.978 36.463 26.9476 36.681 26.8365L35.773 25.0545C35.8273 25.0268 35.8757 25.0116 35.9097 25.0036C35.9405 24.9964 35.9567 24.9957 35.947 24.9965C35.9368 24.9973 35.9145 24.9986 35.8697 24.9993C35.825 25 35.7723 25 35.7 25V27ZM35.5545 25.273C35.6024 25.1789 35.6789 25.1024 35.773 25.0545L36.681 26.8365C36.9632 26.6927 37.1927 26.4632 37.3365 26.181L35.5545 25.273ZM35.7 23C35.7723 23 35.825 23 35.8697 23.0007C35.9145 23.0014 35.9368 23.0027 35.947 23.0035C35.9567 23.0043 35.9405 23.0036 35.9097 22.9964C35.8757 22.9884 35.8273 22.9732 35.773 22.9455L36.681 21.1635C36.463 21.0524 36.255 21.022 36.1098 21.0101C35.9763 20.9992 35.8235 21 35.7 21V23ZM37.5 22.8C37.5 22.6765 37.5008 22.5237 37.4899 22.3902C37.478 22.245 37.4476 22.037 37.3365 21.819L35.5545 22.727C35.5268 22.6727 35.5117 22.6243 35.5036 22.5903C35.4964 22.5595 35.4957 22.5433 35.4965 22.553C35.4973 22.5632 35.4986 22.5855 35.4993 22.6303C35.5 22.675 35.5 22.7277 35.5 22.8H37.5ZM35.773 22.9455C35.6789 22.8976 35.6024 22.8211 35.5545 22.727L37.3365 21.819C37.1927 21.5368 36.9632 21.3073 36.681 21.1635L35.773 22.9455ZM28.3 21C28.1765 21 28.0237 20.9992 27.8902 21.0101C27.745 21.022 27.537 21.0524 27.319 21.1635L28.227 22.9455C28.1727 22.9732 28.1243 22.9884 28.0903 22.9964C28.0595 23.0036 28.0433 23.0043 28.053 23.0035C28.0632 23.0027 28.0855 23.0014 28.1303 23.0007C28.175 23 28.2277 23 28.3 23V21ZM28.5 22.8C28.5 22.7277 28.5 22.675 28.5007 22.6303C28.5014 22.5855 28.5027 22.5632 28.5035 22.553C28.5043 22.5433 28.5036 22.5595 28.4964 22.5903C28.4884 22.6243 28.4732 22.6727 28.4455 22.727L26.6635 21.819C26.5524 22.037 26.522 22.245 26.5101 22.3902C26.4992 22.5237 26.5 22.6765 26.5 22.8H28.5ZM27.319 21.1635C27.0368 21.3073 26.8073 21.5368 26.6635 21.819L28.4455 22.727C28.3976 22.8211 28.3211 22.8976 28.227 22.9455L27.319 21.1635ZM25.5 38H38.5V36H25.5V38ZM25.5 43H38.5V41H25.5V43ZM38.5 43C38.9167 43 39.2711 43.0048 39.5853 42.9424L39.1951 40.9808C39.1228 40.9952 39.0126 41 38.5 41V43ZM40 39.5C40 40.0126 39.9952 40.1228 39.9808 40.1951L41.9424 40.5853C42.0048 40.2711 42 39.9167 42 39.5H40ZM39.5853 42.9424C40.7753 42.7056 41.7056 41.7753 41.9424 40.5853L39.9808 40.1951C39.9019 40.5918 39.5918 40.9019 39.1951 40.9808L39.5853 42.9424ZM22 39.5C22 39.9167 21.9952 40.2711 22.0576 40.5853L24.0192 40.1951C24.0048 40.1228 24 40.0126 24 39.5H22ZM25.5 41C24.9874 41 24.8772 40.9952 24.8049 40.9808L24.4147 42.9424C24.7289 43.0048 25.0833 43 25.5 43V41ZM22.0576 40.5853C22.2944 41.7753 23.2247 42.7056 24.4147 42.9424L24.8049 40.9808C24.4082 40.9019 24.0981 40.5918 24.0192 40.1951L22.0576 40.5853ZM38.5 38C39.0126 38 39.1228 38.0048 39.1951 38.0192L39.5853 36.0576C39.2711 35.9952 38.9167 36 38.5 36V38ZM42 39.5C42 39.0833 42.0048 38.7289 41.9424 38.4147L39.9808 38.8049C39.9952 38.8772 40 38.9874 40 39.5H42ZM39.1951 38.0192C39.5918 38.0981 39.9019 38.4082 39.9808 38.8049L41.9424 38.4147C41.7056 37.2247 40.7753 36.2944 39.5853 36.0576L39.1951 38.0192ZM25.5 36C25.0833 36 24.7289 35.9952 24.4147 36.0576L24.8049 38.0192C24.8772 38.0048 24.9874 38 25.5 38V36ZM24 39.5C24 38.9874 24.0048 38.8772 24.0192 38.8049L22.0576 38.4147C21.9952 38.7289 22 39.0833 22 39.5H24ZM24.4147 36.0576C23.2247 36.2944 22.2944 37.2247 22.0576 38.4147L24.0192 38.8049C24.0981 38.4082 24.4082 38.0981 24.8049 38.0192L24.4147 36.0576Z" fill="#171717"/>
</svg>
