<svg width="64" height="64" viewBox="0 0 64 64" fill="none" xmlns="http://www.w3.org/2000/svg">
<circle cx="32" cy="32" r="32" fill="#FFE603"/>
<path d="M30 28C30.5523 28 31 27.5523 31 27C31 26.4477 30.5523 26 30 26V28ZM23 26C22.4477 26 22 26.4477 22 27C22 27.5523 22.4477 28 23 28L23 26ZM41 28C41.5523 28 42 27.5523 42 27C42 26.4477 41.5523 26 41 26V28ZM34 26C33.4477 26 33 26.4477 33 27C33 27.5523 33.4477 28 34 28V26ZM34.2493 26.2835C33.7144 26.1459 33.1692 26.4678 33.0316 27.0027C32.8939 27.5375 33.2159 28.0827 33.7507 28.2204L34.2493 26.2835ZM39 34.9999C39 35.5522 39.4477 35.9999 40 35.9999C40.5523 35.9999 41 35.5522 41 34.9999H39ZM23 34.9999C23 35.5522 23.4477 35.9999 24 35.9999C24.5523 35.9999 25 35.5522 25 34.9999H23ZM30.2493 28.2204C30.7841 28.0827 31.1061 27.5375 30.9684 27.0027C30.8308 26.4678 30.2856 26.1459 29.7507 26.2835L30.2493 28.2204ZM22.546 38.891L23 38L22.546 38.891ZM22.109 38.454L23 38L22.109 38.454ZM25.891 38.454L25 38L25.891 38.454ZM25.454 38.891L25 38L25.454 38.891ZM25.454 35.109L25 36L25.454 35.109ZM25.891 35.546L25 36L25.891 35.546ZM22.546 35.109L23 36L22.546 35.109ZM22.109 35.546L23 36L22.109 35.546ZM30.546 28.891L31 28L30.546 28.891ZM30.109 28.454L31 28L30.109 28.454ZM33.891 28.454L33 28L33.891 28.454ZM33.454 28.891L33 28L33.454 28.891ZM33.454 25.109L33 26L33.454 25.109ZM33.891 25.546L33 26L33.891 25.546ZM30.546 25.109L31 26L30.546 25.109ZM30.109 25.546L31 26L30.109 25.546ZM38.546 38.891L39 38L38.546 38.891ZM38.109 38.454L39 38L38.109 38.454ZM41.891 38.454L41 38L41.891 38.454ZM41.454 38.891L41 38L41.454 38.891ZM41.454 35.109L41 36L41.454 35.109ZM41.891 35.546L41 36L41.891 35.546ZM38.546 35.109L39 36L38.546 35.109ZM38.109 35.546L39 36L38.109 35.546ZM30 26L23 26L23 28L30 28V26ZM41 26L34 26V28L41 28V26ZM33.7507 28.2204C36.7701 28.9975 39 31.7396 39 34.9999H41C41 30.8049 38.1308 27.2826 34.2493 26.2835L33.7507 28.2204ZM25 34.9999C25 31.7396 27.2299 28.9975 30.2493 28.2204L29.7507 26.2835C25.8692 27.2826 23 30.8049 23 34.9999H25ZM23.6 36H24.4V34H23.6V36ZM25 36.6V37.4H27V36.6H25ZM24.4 38H23.6V40H24.4V38ZM23 37.4V36.6H21V37.4H23ZM23.6 38C23.3035 38 23.1412 37.9992 23.0246 37.9897C22.9197 37.9811 22.9425 37.9707 23 38L22.092 39.782C22.3634 39.9203 22.6332 39.9644 22.8618 39.9831C23.0787 40.0008 23.3365 40 23.6 40V38ZM21 37.4C21 37.6635 20.9992 37.9213 21.0169 38.1382C21.0356 38.3668 21.0797 38.6366 21.218 38.908L23 38C23.0293 38.0575 23.0189 38.0803 23.0103 37.9754C23.0008 37.8588 23 37.6965 23 37.4H21ZM23 38L21.218 38.908C21.4097 39.2843 21.7157 39.5903 22.092 39.782L23 38ZM25 37.4C25 37.6965 24.9992 37.8588 24.9897 37.9754C24.9811 38.0803 24.9707 38.0575 25 38L26.782 38.908C26.9203 38.6366 26.9644 38.3668 26.9831 38.1382C27.0008 37.9213 27 37.6635 27 37.4H25ZM24.4 40C24.6635 40 24.9213 40.0008 25.1382 39.9831C25.3668 39.9644 25.6366 39.9203 25.908 39.782L25 38C25.0575 37.9707 25.0803 37.9811 24.9754 37.9897C24.8588 37.9992 24.6965 38 24.4 38V40ZM25 38L25.908 39.782C26.2843 39.5903 26.5903 39.2843 26.782 38.908L25 38ZM24.4 36C24.6965 36 24.8588 36.0008 24.9754 36.0103C25.0803 36.0189 25.0575 36.0293 25 36L25.908 34.218C25.6366 34.0797 25.3668 34.0356 25.1382 34.0169C24.9213 33.9992 24.6635 34 24.4 34V36ZM27 36.6C27 36.3365 27.0008 36.0787 26.9831 35.8618C26.9644 35.6332 26.9203 35.3634 26.782 35.092L25 36C24.9707 35.9425 24.9811 35.9197 24.9897 36.0246C24.9992 36.1412 25 36.3035 25 36.6H27ZM25 36L26.782 35.092C26.5903 34.7157 26.2843 34.4097 25.908 34.218L25 36ZM23.6 34C23.3365 34 23.0787 33.9992 22.8618 34.0169C22.6332 34.0356 22.3634 34.0797 22.092 34.218L23 36C22.9425 36.0293 22.9197 36.0189 23.0246 36.0103C23.1412 36.0008 23.3035 36 23.6 36V34ZM23 36.6C23 36.3035 23.0008 36.1412 23.0103 36.0246C23.0189 35.9197 23.0293 35.9425 23 36L21.218 35.092C21.0797 35.3634 21.0356 35.6332 21.0169 35.8618C20.9992 36.0787 21 36.3365 21 36.6H23ZM22.092 34.218C21.7157 34.4097 21.4097 34.7157 21.218 35.092L23 36L22.092 34.218ZM31.6 26H32.4V24H31.6V26ZM33 26.6V27.4H35V26.6H33ZM32.4 28H31.6V30H32.4V28ZM31 27.4V26.6H29V27.4H31ZM31.6 28C31.3035 28 31.1412 27.9992 31.0246 27.9897C30.9197 27.9811 30.9425 27.9707 31 28L30.092 29.782C30.3634 29.9203 30.6332 29.9644 30.8618 29.9831C31.0787 30.0008 31.3365 30 31.6 30V28ZM29 27.4C29 27.6635 28.9992 27.9213 29.0169 28.1382C29.0356 28.3668 29.0797 28.6366 29.218 28.908L31 28C31.0293 28.0575 31.0189 28.0803 31.0103 27.9754C31.0008 27.8588 31 27.6965 31 27.4H29ZM31 28L29.218 28.908C29.4097 29.2843 29.7157 29.5903 30.092 29.782L31 28ZM33 27.4C33 27.6965 32.9992 27.8588 32.9897 27.9754C32.9811 28.0803 32.9707 28.0575 33 28L34.782 28.908C34.9203 28.6366 34.9644 28.3668 34.9831 28.1382C35.0008 27.9213 35 27.6635 35 27.4H33ZM32.4 30C32.6635 30 32.9213 30.0008 33.1382 29.9831C33.3668 29.9644 33.6366 29.9203 33.908 29.782L33 28C33.0575 27.9707 33.0803 27.9811 32.9754 27.9897C32.8588 27.9992 32.6965 28 32.4 28V30ZM33 28L33.908 29.782C34.2843 29.5903 34.5903 29.2843 34.782 28.908L33 28ZM32.4 26C32.6965 26 32.8588 26.0008 32.9754 26.0103C33.0803 26.0189 33.0575 26.0293 33 26L33.908 24.218C33.6366 24.0797 33.3668 24.0356 33.1382 24.0169C32.9213 23.9992 32.6635 24 32.4 24V26ZM35 26.6C35 26.3365 35.0008 26.0787 34.9831 25.8618C34.9644 25.6332 34.9203 25.3634 34.782 25.092L33 26C32.9707 25.9425 32.9811 25.9197 32.9897 26.0246C32.9992 26.1412 33 26.3035 33 26.6H35ZM33 26L34.782 25.092C34.5903 24.7157 34.2843 24.4097 33.908 24.218L33 26ZM31.6 24C31.3365 24 31.0787 23.9992 30.8618 24.0169C30.6332 24.0356 30.3634 24.0797 30.092 24.218L31 26C30.9425 26.0293 30.9197 26.0189 31.0246 26.0103C31.1412 26.0008 31.3035 26 31.6 26V24ZM31 26.6C31 26.3035 31.0008 26.1412 31.0103 26.0246C31.0189 25.9197 31.0293 25.9425 31 26L29.218 25.092C29.0797 25.3634 29.0356 25.6332 29.0169 25.8618C28.9992 26.0787 29 26.3365 29 26.6H31ZM30.092 24.218C29.7157 24.4097 29.4097 24.7157 29.218 25.092L31 26L30.092 24.218ZM39.6 36H40.4V34H39.6V36ZM41 36.6V37.4H43V36.6H41ZM40.4 38H39.6V40H40.4V38ZM39 37.4V36.6H37V37.4H39ZM39.6 38C39.3035 38 39.1412 37.9992 39.0246 37.9897C38.9197 37.9811 38.9425 37.9707 39 38L38.092 39.782C38.3634 39.9203 38.6332 39.9644 38.8618 39.9831C39.0787 40.0008 39.3365 40 39.6 40V38ZM37 37.4C37 37.6635 36.9992 37.9213 37.0169 38.1382C37.0356 38.3668 37.0797 38.6366 37.218 38.908L39 38C39.0293 38.0575 39.0189 38.0803 39.0103 37.9754C39.0008 37.8588 39 37.6965 39 37.4H37ZM39 38L37.218 38.908C37.4097 39.2843 37.7157 39.5903 38.092 39.782L39 38ZM41 37.4C41 37.6965 40.9992 37.8588 40.9897 37.9754C40.9811 38.0803 40.9707 38.0575 41 38L42.782 38.908C42.9203 38.6366 42.9644 38.3668 42.9831 38.1382C43.0008 37.9213 43 37.6635 43 37.4H41ZM40.4 40C40.6635 40 40.9213 40.0008 41.1382 39.9831C41.3668 39.9644 41.6366 39.9203 41.908 39.782L41 38C41.0575 37.9707 41.0803 37.9811 40.9754 37.9897C40.8588 37.9992 40.6965 38 40.4 38V40ZM41 38L41.908 39.782C42.2843 39.5903 42.5903 39.2843 42.782 38.908L41 38ZM40.4 36C40.6965 36 40.8588 36.0008 40.9754 36.0103C41.0803 36.0189 41.0575 36.0293 41 36L41.908 34.218C41.6366 34.0797 41.3668 34.0356 41.1382 34.0169C40.9213 33.9992 40.6635 34 40.4 34V36ZM43 36.6C43 36.3365 43.0008 36.0787 42.9831 35.8618C42.9644 35.6332 42.9203 35.3634 42.782 35.092L41 36C40.9707 35.9425 40.9811 35.9197 40.9897 36.0246C40.9992 36.1412 41 36.3035 41 36.6H43ZM41 36L42.782 35.092C42.5903 34.7157 42.2843 34.4097 41.908 34.218L41 36ZM39.6 34C39.3365 34 39.0787 33.9992 38.8618 34.0169C38.6332 34.0356 38.3634 34.0797 38.092 34.218L39 36C38.9425 36.0293 38.9197 36.0189 39.0246 36.0103C39.1412 36.0008 39.3035 36 39.6 36V34ZM39 36.6C39 36.3035 39.0008 36.1412 39.0103 36.0246C39.0189 35.9197 39.0293 35.9425 39 36L37.218 35.092C37.0797 35.3634 37.0356 35.6332 37.0169 35.8618C36.9992 36.0787 37 36.3365 37 36.6H39ZM38.092 34.218C37.7157 34.4097 37.4097 34.7157 37.218 35.092L39 36L38.092 34.218ZM41 27V29C42.1046 29 43 28.1046 43 27H41ZM41 27H39C39 28.1046 39.8954 29 41 29V27ZM41 27V25C39.8954 25 39 25.8954 39 27H41ZM41 27H43C43 25.8954 42.1046 25 41 25V27ZM23 27V29C24.1046 29 25 28.1046 25 27H23ZM23 27H21C21 28.1046 21.8954 29 23 29V27ZM23 27V25C21.8954 25 21 25.8954 21 27H23ZM23 27H25C25 25.8954 24.1046 25 23 25V27Z" fill="#171717"/>
</svg>
