<svg width="64" height="64" viewBox="0 0 64 64" fill="none" xmlns="http://www.w3.org/2000/svg">
<circle cx="32" cy="32" r="32" fill="#FFE603"/>
<path d="M32 41L31.168 41.5547C31.3534 41.8329 31.6656 42 32 42C32.3344 42 32.6466 41.8329 32.832 41.5547L32 41ZM31.8999 40.8499L31.0679 41.4046H31.0679L31.8999 40.8499ZM30.3991 38.9098L29.7641 39.6824L30.3991 38.9098ZM29.0216 38.1726L28.731 39.1295L29.0216 38.1726ZM22.218 36.908L23.109 36.454L22.218 36.908ZM23.092 37.782L23.546 36.891L23.092 37.782ZM29.816 23.436L29.362 24.327L29.816 23.436ZM31.564 25.184L30.673 25.638L31.564 25.184ZM23.092 23.218L23.546 24.109L23.092 23.218ZM22.218 24.092L23.109 24.546L22.218 24.092ZM32.1001 40.8499L32.9321 41.4046H32.9321L32.1001 40.8499ZM33.6009 38.9098L34.2359 39.6824L33.6009 38.9098ZM34.9784 38.1726L35.269 39.1295L34.9784 38.1726ZM41.782 36.908L40.891 36.454L41.782 36.908ZM40.908 37.782L40.454 36.891L40.908 37.782ZM34.184 23.436L34.638 24.327L34.184 23.436ZM32.436 25.184L33.327 25.638L32.436 25.184ZM40.908 23.218L40.454 24.109L40.908 23.218ZM41.782 24.092L40.891 24.546L41.782 24.092ZM25.2 24H25.6V22H25.2V24ZM23 34.8V26.2H21V34.8H23ZM32.832 40.4453L32.732 40.2952L31.0679 41.4046L31.168 41.5547L32.832 40.4453ZM26.5748 37H25.2V39H26.5748V37ZM32.732 40.2952C32.0719 39.3051 31.6347 38.631 31.0341 38.1373L29.7641 39.6824C30.0812 39.943 30.3387 40.3108 31.0679 41.4046L32.732 40.2952ZM26.5748 39C27.8894 39 28.3383 39.0102 28.731 39.1295L29.3122 37.2158C28.5682 36.9898 27.7648 37 26.5748 37V39ZM31.0341 38.1373C30.5263 37.7199 29.9411 37.4068 29.3122 37.2158L28.731 39.1295C29.1084 39.2441 29.4595 39.4319 29.7641 39.6824L31.0341 38.1373ZM21 34.8C21 35.3436 20.9992 35.8114 21.0306 36.195C21.0629 36.5904 21.1342 36.9836 21.327 37.362L23.109 36.454C23.0838 36.4045 23.0461 36.3038 23.0239 36.0322C23.0008 35.7488 23 35.3766 23 34.8H21ZM25.2 37C24.6234 37 24.2512 36.9992 23.9678 36.9761C23.6962 36.9539 23.5955 36.9162 23.546 36.891L22.638 38.673C23.0164 38.8658 23.4096 38.9371 23.805 38.9694C24.1886 39.0008 24.6564 39 25.2 39V37ZM21.327 37.362C21.6146 37.9265 22.0735 38.3854 22.638 38.673L23.546 36.891C23.3578 36.7951 23.2049 36.6422 23.109 36.454L21.327 37.362ZM25.6 24C26.7366 24 27.5289 24.0008 28.1458 24.0512C28.7509 24.1006 29.0986 24.1928 29.362 24.327L30.27 22.545C29.6777 22.2432 29.0375 22.1174 28.3086 22.0578C27.5914 21.9992 26.7036 22 25.6 22V24ZM33 29.4C33 28.2964 33.0008 27.4086 32.9422 26.6914C32.8826 25.9625 32.7568 25.3223 32.455 24.73L30.673 25.638C30.8072 25.9014 30.8994 26.2491 30.9488 26.8542C30.9992 27.4711 31 28.2634 31 29.4H33ZM29.362 24.327C29.9265 24.6146 30.3854 25.0735 30.673 25.638L32.455 24.73C31.9757 23.7892 31.2108 23.0243 30.27 22.545L29.362 24.327ZM25.2 22C24.6564 22 24.1886 21.9992 23.805 22.0306C23.4096 22.0629 23.0164 22.1342 22.638 22.327L23.546 24.109C23.5955 24.0838 23.6962 24.0461 23.9678 24.0239C24.2512 24.0008 24.6234 24 25.2 24V22ZM23 26.2C23 25.6234 23.0008 25.2512 23.0239 24.9678C23.0461 24.6962 23.0838 24.5955 23.109 24.546L21.327 23.638C21.1342 24.0164 21.0629 24.4096 21.0306 24.805C20.9992 25.1886 21 25.6564 21 26.2H23ZM22.638 22.327C22.0735 22.6146 21.6146 23.0735 21.327 23.638L23.109 24.546C23.2049 24.3578 23.3578 24.2049 23.546 24.109L22.638 22.327ZM38.8 22H38.4V24H38.8V22ZM31 29.4V41H33V29.4H31ZM43 34.8V26.2H41V34.8H43ZM32.832 41.5547L32.9321 41.4046L31.268 40.2952L31.168 40.4453L32.832 41.5547ZM37.4252 39H38.8V37H37.4252V39ZM32.9321 41.4046C33.6613 40.3108 33.9188 39.943 34.2359 39.6824L32.9659 38.1373C32.3653 38.631 31.9281 39.3051 31.268 40.2952L32.9321 41.4046ZM37.4252 37C36.2352 37 35.4318 36.9898 34.6878 37.2158L35.269 39.1295C35.6617 39.0102 36.1106 39 37.4252 39V37ZM34.2359 39.6824C34.5405 39.4319 34.8916 39.2441 35.269 39.1295L34.6878 37.2158C34.0589 37.4068 33.4737 37.7199 32.9659 38.1373L34.2359 39.6824ZM41 34.8C41 35.3766 40.9992 35.7488 40.9761 36.0322C40.9539 36.3038 40.9162 36.4045 40.891 36.454L42.673 37.362C42.8658 36.9836 42.9371 36.5904 42.9694 36.195C43.0008 35.8114 43 35.3436 43 34.8H41ZM38.8 39C39.3436 39 39.8114 39.0008 40.195 38.9694C40.5904 38.9371 40.9836 38.8658 41.362 38.673L40.454 36.891C40.4045 36.9162 40.3038 36.9539 40.0322 36.9761C39.7488 36.9992 39.3766 37 38.8 37V39ZM40.891 36.454C40.7951 36.6422 40.6422 36.7951 40.454 36.891L41.362 38.673C41.9265 38.3854 42.3854 37.9265 42.673 37.362L40.891 36.454ZM38.4 22C37.2964 22 36.4086 21.9992 35.6914 22.0578C34.9625 22.1174 34.3223 22.2432 33.73 22.545L34.638 24.327C34.9014 24.1928 35.2491 24.1006 35.8542 24.0512C36.4711 24.0008 37.2634 24 38.4 24V22ZM33 29.4C33 28.2634 33.0008 27.4711 33.0512 26.8542C33.1006 26.2491 33.1928 25.9014 33.327 25.638L31.545 24.73C31.2432 25.3223 31.1174 25.9625 31.0578 26.6914C30.9992 27.4086 31 28.2964 31 29.4H33ZM33.73 22.545C32.7892 23.0243 32.0243 23.7892 31.545 24.73L33.327 25.638C33.6146 25.0735 34.0735 24.6146 34.638 24.327L33.73 22.545ZM38.8 24C39.3766 24 39.7488 24.0008 40.0322 24.0239C40.3038 24.0461 40.4045 24.0838 40.454 24.109L41.362 22.327C40.9836 22.1342 40.5904 22.0629 40.195 22.0306C39.8114 21.9992 39.3436 22 38.8 22V24ZM43 26.2C43 25.6564 43.0008 25.1886 42.9694 24.805C42.9371 24.4096 42.8658 24.0164 42.673 23.638L40.891 24.546C40.9162 24.5955 40.9539 24.6962 40.9761 24.9678C40.9992 25.2512 41 25.6234 41 26.2H43ZM40.454 24.109C40.6422 24.2049 40.7951 24.3578 40.891 24.546L42.673 23.638C42.3854 23.0735 41.9265 22.6146 41.362 22.327L40.454 24.109Z" fill="#171717"/>
</svg>
