<svg width="64" height="64" viewBox="0 0 64 64" fill="none" xmlns="http://www.w3.org/2000/svg">
<circle cx="32" cy="32" r="32" fill="#FFE603"/>
<path d="M42 30C42.5523 30 43 29.5523 43 29C43 28.4477 42.5523 28 42 28V30ZM22 28C21.4477 28 21 28.4477 21 29C21 29.5523 21.4477 30 22 30V28ZM22 27.8H21H22ZM22.327 24.638L23.218 25.092L22.327 24.638ZM26.8 23V24V23ZM23.638 23.327L23.184 22.436L23.638 23.327ZM26.8 41V42V41ZM23.638 40.673L24.092 39.782L23.638 40.673ZM22 36.2H23H22ZM22.327 39.362L21.436 39.816L22.327 39.362ZM41.673 39.362L42.564 39.816L41.673 39.362ZM37.2 41V40V41ZM40.362 40.673L40.816 41.564L40.362 40.673ZM41.673 24.638L40.782 25.092L41.673 24.638ZM37.2 23V22V23ZM40.362 23.327L39.908 24.218L40.362 23.327ZM42 28H22V30H42V28ZM41 27.8V36.2H43V27.8H41ZM37.2 40H26.8V42H37.2V40ZM23 36.2L23 27.8H21L21 36.2H23ZM26.8 24L37.2 24V22L26.8 22V24ZM23 27.8C23 26.9434 23.0008 26.3611 23.0376 25.911C23.0734 25.4726 23.1383 25.2484 23.218 25.092L21.436 24.184C21.1887 24.6694 21.0901 25.1861 21.0442 25.7482C20.9992 26.2986 21 26.9764 21 27.8H23ZM26.8 22C25.9764 22 25.2986 21.9992 24.7482 22.0442C24.1861 22.0901 23.6694 22.1887 23.184 22.436L24.092 24.218C24.2484 24.1383 24.4726 24.0734 24.911 24.0376C25.3611 24.0008 25.9434 24 26.8 24V22ZM23.218 25.092C23.4097 24.7157 23.7157 24.4097 24.092 24.218L23.184 22.436C22.4314 22.8195 21.8195 23.4314 21.436 24.184L23.218 25.092ZM26.8 40C25.9434 40 25.3611 39.9992 24.911 39.9624C24.4726 39.9266 24.2484 39.8617 24.092 39.782L23.184 41.564C23.6694 41.8113 24.1861 41.9099 24.7482 41.9558C25.2986 42.0008 25.9764 42 26.8 42V40ZM21 36.2C21 37.0236 20.9992 37.7014 21.0442 38.2518C21.0901 38.8139 21.1887 39.3306 21.436 39.816L23.218 38.908C23.1383 38.7516 23.0734 38.5274 23.0376 38.089C23.0008 37.6389 23 37.0566 23 36.2H21ZM24.092 39.782C23.7157 39.5903 23.4097 39.2843 23.218 38.908L21.436 39.816C21.8195 40.5686 22.4314 41.1805 23.184 41.564L24.092 39.782ZM41 36.2C41 37.0566 40.9992 37.6389 40.9625 38.089C40.9266 38.5274 40.8617 38.7516 40.782 38.908L42.564 39.816C42.8113 39.3306 42.9099 38.8139 42.9558 38.2518C43.0008 37.7014 43 37.0236 43 36.2H41ZM37.2 42C38.0236 42 38.7014 42.0008 39.2518 41.9558C39.8139 41.9099 40.3306 41.8113 40.816 41.564L39.908 39.782C39.7516 39.8617 39.5274 39.9266 39.089 39.9624C38.6389 39.9992 38.0566 40 37.2 40V42ZM40.782 38.908C40.5903 39.2843 40.2843 39.5903 39.908 39.782L40.816 41.564C41.5686 41.1805 42.1805 40.5686 42.564 39.816L40.782 38.908ZM43 27.8C43 26.9764 43.0008 26.2986 42.9558 25.7482C42.9099 25.1861 42.8113 24.6694 42.564 24.184L40.782 25.092C40.8617 25.2484 40.9266 25.4726 40.9625 25.911C40.9992 26.3611 41 26.9434 41 27.8H43ZM37.2 24C38.0566 24 38.6389 24.0008 39.089 24.0376C39.5274 24.0734 39.7516 24.1383 39.908 24.218L40.816 22.436C40.3306 22.1887 39.8139 22.0901 39.2518 22.0442C38.7014 21.9992 38.0236 22 37.2 22V24ZM42.564 24.184C42.1805 23.4314 41.5686 22.8195 40.816 22.436L39.908 24.218C40.2843 24.4097 40.5903 24.7157 40.782 25.092L42.564 24.184Z" fill="#171717"/>
</svg>
