<svg width="64" height="64" viewBox="0 0 64 64" fill="none" xmlns="http://www.w3.org/2000/svg">
<circle cx="32" cy="32" r="32" fill="#FFE603"/>
<path d="M35.6794 22.0037L35.7398 21.0055L35.6794 22.0037ZM37.5 23.5L38.4487 23.1838V23.1838L37.5 23.5ZM37.4141 23.254L38.342 22.881L37.4141 23.254ZM26.5 23.5L27.4487 23.8162V23.8162L26.5 23.5ZM26.5859 23.254L25.658 22.881L26.5859 23.254ZM28.3206 22.0037L28.2602 21.0055L28.3206 22.0037ZM37.5895 23.7684L36.6408 24.0846V24.0846L37.5895 23.7684ZM26.4105 23.7684L25.4619 23.4522V23.4522L26.4105 23.7684ZM23.638 40.673L23.184 41.564L23.638 40.673ZM22.327 39.362L21.436 39.816L22.327 39.362ZM41.673 39.362L42.564 39.816L41.673 39.362ZM40.362 40.673L40.816 41.564L40.362 40.673ZM41 27.7018V36.2H43V27.7018H41ZM37.2 40H26.8V42H37.2V40ZM23 36.2V27.7018H21V36.2H23ZM27.3592 24.0846L27.4487 23.8162L25.5513 23.1838L25.4619 23.4522L27.3592 24.0846ZM28.5811 23H35.4189V21H28.5811V23ZM36.5513 23.8162L36.6408 24.0846L38.5381 23.4522L38.4487 23.1838L36.5513 23.8162ZM35.4189 23C35.5656 23 35.5961 23.0004 35.6189 23.0018L35.7398 21.0055C35.6419 20.9996 35.539 21 35.4189 21V23ZM38.4487 23.1838C38.4107 23.0698 38.3786 22.972 38.342 22.881L36.4863 23.627C36.4949 23.6483 36.5049 23.6771 36.5513 23.8162L38.4487 23.1838ZM35.6189 23.0018C36.0045 23.0252 36.3422 23.2686 36.4863 23.627L38.342 22.881C37.9097 21.8057 36.8967 21.0755 35.7398 21.0055L35.6189 23.0018ZM27.4487 23.8162C27.4951 23.6771 27.5051 23.6483 27.5137 23.627L25.658 22.881C25.6214 22.972 25.5893 23.0698 25.5513 23.1838L27.4487 23.8162ZM28.5811 21C28.461 21 28.3581 20.9996 28.2602 21.0055L28.3811 23.0018C28.4039 23.0004 28.4344 23 28.5811 23V21ZM27.5137 23.627C27.6578 23.2686 27.9955 23.0252 28.3811 23.0018L28.2602 21.0055C27.1033 21.0755 26.0903 21.8057 25.658 22.881L27.5137 23.627ZM39.2982 24C38.9534 24 38.6472 23.7793 38.5381 23.4522L36.6408 24.0846C37.0221 25.2285 38.0925 26 39.2982 26V24ZM24.7018 26C25.9075 26 26.9779 25.2285 27.3592 24.0846L25.4619 23.4522C25.3528 23.7793 25.0466 24 24.7018 24V26ZM26.8 40C25.9434 40 25.3611 39.9992 24.911 39.9624C24.4726 39.9266 24.2484 39.8617 24.092 39.782L23.184 41.564C23.6694 41.8113 24.1861 41.9099 24.7482 41.9558C25.2986 42.0008 25.9764 42 26.8 42V40ZM21 36.2C21 37.0236 20.9992 37.7014 21.0442 38.2518C21.0901 38.8139 21.1887 39.3306 21.436 39.816L23.218 38.908C23.1383 38.7516 23.0734 38.5274 23.0376 38.089C23.0008 37.6389 23 37.0566 23 36.2H21ZM24.092 39.782C23.7157 39.5903 23.4097 39.2843 23.218 38.908L21.436 39.816C21.8195 40.5686 22.4314 41.1805 23.184 41.564L24.092 39.782ZM41 36.2C41 37.0566 40.9992 37.6389 40.9624 38.089C40.9266 38.5274 40.8617 38.7516 40.782 38.908L42.564 39.816C42.8113 39.3306 42.9099 38.8139 42.9558 38.2518C43.0008 37.7014 43 37.0236 43 36.2H41ZM37.2 42C38.0236 42 38.7014 42.0008 39.2518 41.9558C39.8139 41.9099 40.3306 41.8113 40.816 41.564L39.908 39.782C39.7516 39.8617 39.5274 39.9266 39.089 39.9624C38.6389 39.9992 38.0566 40 37.2 40V42ZM40.782 38.908C40.5903 39.2843 40.2843 39.5903 39.908 39.782L40.816 41.564C41.5686 41.1805 42.1805 40.5686 42.564 39.816L40.782 38.908ZM43 27.7018C43 25.6573 41.3427 24 39.2982 24V26C40.2381 26 41 26.7619 41 27.7018H43ZM23 27.7018C23 26.7619 23.7619 26 24.7018 26V24C22.6573 24 21 25.6573 21 27.7018H23ZM35.5 32C35.5 33.933 33.933 35.5 32 35.5V37.5C35.0376 37.5 37.5 35.0376 37.5 32H35.5ZM32 35.5C30.067 35.5 28.5 33.933 28.5 32H26.5C26.5 35.0376 28.9624 37.5 32 37.5V35.5ZM28.5 32C28.5 30.067 30.067 28.5 32 28.5V26.5C28.9624 26.5 26.5 28.9624 26.5 32H28.5ZM32 28.5C33.933 28.5 35.5 30.067 35.5 32H37.5C37.5 28.9624 35.0376 26.5 32 26.5V28.5Z" fill="#171717"/>
</svg>
