<svg width="64" height="64" viewBox="0 0 64 64" fill="none" xmlns="http://www.w3.org/2000/svg">
<circle cx="32" cy="32" r="32" fill="#FFE603"/>
<path d="M26.5 41C27.0523 41 27.5 40.5523 27.5 40C27.5 39.4477 27.0523 39 26.5 39V41ZM37.5 39C36.9477 39 36.5 39.4477 36.5 40C36.5 40.5523 36.9477 41 37.5 41V39ZM32.0214 38.9998L32.7285 39.7069C33.0158 39.4197 33.1007 38.9872 32.9435 38.6126C32.7862 38.2381 32.418 37.9959 32.0117 37.9998L32.0214 38.9998ZM26.0002 39.3641L25.2931 38.657C25.1056 38.8446 25.0002 39.0989 25.0002 39.3641C25.0002 39.6294 25.1056 39.8837 25.2931 40.0712L26.0002 39.3641ZM29.7268 37.0518C30.1173 36.6613 30.1173 36.0281 29.7268 35.6376C29.3362 35.2471 28.7031 35.2471 28.3125 35.6376L29.7268 37.0518ZM28.8287 42.1926L28.1216 42.8997C28.5121 43.2902 29.1453 43.2902 29.5358 42.8997L28.8287 42.1926ZM38.0212 39.3641L38.7283 40.0712C38.9159 39.8837 39.0212 39.6294 39.0212 39.3641C39.0212 39.0989 38.9159 38.8446 38.7283 38.657L38.0212 39.3641ZM35.7089 35.6376C35.3184 35.2471 34.6852 35.2471 34.2947 35.6376C33.9042 36.0281 33.9042 36.6613 34.2947 37.0518L35.7089 35.6376ZM35.1928 42.1926L34.4857 42.8997C34.8763 43.2902 35.5094 43.2902 35.8999 42.8997L35.1928 42.1926ZM29 25C28.4477 25 28 25.4477 28 26C28 26.5523 28.4477 27 29 27V25ZM35 27C35.5523 27 36 26.5523 36 26C36 25.4477 35.5523 25 35 25V27ZM27 28.5C26.4477 28.5 26 28.9477 26 29.5C26 30.0523 26.4477 30.5 27 30.5V28.5ZM37 30.5C37.5523 30.5 38 30.0523 38 29.5C38 28.9477 37.5523 28.5 37 28.5V30.5ZM25 23H39V21H25V23ZM40 24V38H42V24H40ZM24 38V24H22V38H24ZM25 39C24.4477 39 24 38.5523 24 38H22C22 39.6569 23.3431 41 25 41V39ZM40 38C40 38.5523 39.5523 39 39 39V41C40.6569 41 42 39.6569 42 38H40ZM39 23C39.5523 23 40 23.4477 40 24H42C42 22.3431 40.6569 21 39 21V23ZM25 21C23.3431 21 22 22.3431 22 24H24C24 23.4477 24.4477 23 25 23V21ZM26.5 39H25V41H26.5V39ZM39 39H37.5V41H39V39ZM34 36C34 37.1046 33.1046 38 32 38V40C34.2091 40 36 38.2091 36 36H34ZM32 38C30.8954 38 30 37.1046 30 36H28C28 38.2091 29.7909 40 32 40V38ZM30 36C30 34.8954 30.8954 34 32 34V32C29.7909 32 28 33.7909 28 36H30ZM32 34C33.1046 34 34 34.8954 34 36H36C36 33.7909 34.2091 32 32 32V34ZM32.0097 40L32.0311 39.9997L32.0117 37.9998L31.9903 38L32.0097 40ZM26.7074 40.0712L29.7268 37.0518L28.3125 35.6376L25.2931 38.657L26.7074 40.0712ZM29.5358 41.4855L26.7074 38.657L25.2931 40.0712L28.1216 42.8997L29.5358 41.4855ZM31.3143 38.2927L28.1216 41.4855L29.5358 42.8997L32.7285 39.7069L31.3143 38.2927ZM38.7283 38.657L35.7089 35.6376L34.2947 37.0518L37.3141 40.0712L38.7283 38.657ZM35.8999 42.8997L38.7283 40.0712L37.3141 38.657L34.4857 41.4855L35.8999 42.8997ZM31.2929 39.7071L34.4857 42.8997L35.8999 41.4854L32.7071 38.2929L31.2929 39.7071ZM29 27H35V25H29V27ZM27 30.5H37V28.5H27V30.5Z" fill="#171717"/>
</svg>
