<svg width="64" height="64" viewBox="0 0 64 64" fill="none" xmlns="http://www.w3.org/2000/svg">
<circle cx="32" cy="32" r="32" fill="#FFE603"/>
<path d="M33 26C33 25.4477 32.5523 25 32 25C31.4477 25 31 25.4477 31 26H33ZM32 32H31C31 32.3788 31.214 32.725 31.5528 32.8944L32 32ZM35.5528 34.8944C36.0468 35.1414 36.6474 34.9412 36.8944 34.4472C37.1414 33.9532 36.9412 33.3526 36.4472 33.1056L35.5528 34.8944ZM41 32C41 36.9706 36.9706 41 32 41V43C38.0751 43 43 38.0751 43 32H41ZM32 41C27.0294 41 23 36.9706 23 32H21C21 38.0751 25.9249 43 32 43V41ZM23 32C23 27.0294 27.0294 23 32 23V21C25.9249 21 21 25.9249 21 32H23ZM32 23C36.9706 23 41 27.0294 41 32H43C43 25.9249 38.0751 21 32 21V23ZM31 26V32H33V26H31ZM31.5528 32.8944L35.5528 34.8944L36.4472 33.1056L32.4472 31.1056L31.5528 32.8944Z" fill="#171717"/>
</svg>
