<svg width="64" height="64" viewBox="0 0 64 64" fill="none" xmlns="http://www.w3.org/2000/svg">
<circle cx="32" cy="32" r="32" fill="#FFE603"/>
<path d="M26.0797 30.0194L26.172 31.0151C26.625 30.9731 26.9927 30.6306 27.0665 30.1816L26.0797 30.0194ZM37.9203 30.0194L36.9335 30.1816C37.0073 30.6306 37.3749 30.9731 37.828 31.0151L37.9203 30.0194ZM21 34.5C21 37.5376 23.4624 40 26.5 40V38C24.567 38 23 36.433 23 34.5H21ZM25.9875 29.0236C23.1897 29.2827 21 31.6351 21 34.5H23C23 32.6778 24.3933 31.1798 26.172 31.0151L25.9875 29.0236ZM32 24C28.5226 24 25.6392 26.5346 25.093 29.8572L27.0665 30.1816C27.4564 27.8097 29.5178 26 32 26V24ZM38.907 29.8572C38.3608 26.5346 35.4774 24 32 24V26C34.4822 26 36.5436 27.8097 36.9335 30.1816L38.907 29.8572ZM37.828 31.0151C39.6067 31.1798 41 32.6778 41 34.5H43C43 31.6351 40.8103 29.2827 38.0125 29.0236L37.828 31.0151ZM41 34.5C41 36.433 39.433 38 37.5 38V40C40.5376 40 43 37.5376 43 34.5H41ZM26.5 40C26.5075 40 26.515 40 26.5225 40C26.53 40 26.5375 40 26.545 40C26.5525 40 26.56 40 26.5674 40C26.5749 40 26.5824 40 26.5899 40C26.5974 40 26.6048 40 26.6123 40C26.6198 40 26.6272 40 26.6347 40C26.6421 40 26.6496 40 26.657 40C26.6645 40 26.6719 40 26.6794 40C26.6868 40 26.6943 40 26.7017 40C26.7091 40 26.7166 40 26.724 40C26.7314 40 26.7388 40 26.7462 40C26.7537 40 26.7611 40 26.7685 40C26.7759 40 26.7833 40 26.7907 40C26.7981 40 26.8055 40 26.8129 40C26.8203 40 26.8277 40 26.8351 40C26.8425 40 26.8499 40 26.8572 40C26.8646 40 26.872 40 26.8794 40C26.8867 40 26.8941 40 26.9015 40C26.9088 40 26.9162 40 26.9236 40C26.9309 40 26.9383 40 26.9456 40C26.953 40 26.9603 40 26.9677 40C26.975 40 26.9823 40 26.9897 40C26.997 40 27.0043 40 27.0117 40C27.019 40 27.0263 40 27.0336 40C27.041 40 27.0483 40 27.0556 40C27.0629 40 27.0702 40 27.0775 40C27.0848 40 27.0921 40 27.0994 40C27.1067 40 27.114 40 27.1213 40C27.1286 40 27.1359 40 27.1432 40C27.1505 40 27.1578 40 27.165 40C27.1723 40 27.1796 40 27.1869 40C27.1941 40 27.2014 40 27.2087 40C27.2159 40 27.2232 40 27.2304 40C27.2377 40 27.245 40 27.2522 40C27.2595 40 27.2667 40 27.2739 40C27.2812 40 27.2884 40 27.2957 40C27.3029 40 27.3101 40 27.3174 40C27.3246 40 27.3318 40 27.3391 40C27.3463 40 27.3535 40 27.3607 40C27.3679 40 27.3751 40 27.3824 40C27.3896 40 27.3968 40 27.404 40C27.4112 40 27.4184 40 27.4256 40C27.4328 40 27.44 40 27.4472 40C27.4543 40 27.4615 40 27.4687 40C27.4759 40 27.4831 40 27.4903 40C27.4974 40 27.5046 40 27.5118 40C27.519 40 27.5261 40 27.5333 40C27.5404 40 27.5476 40 27.5548 40C27.5619 40 27.5691 40 27.5762 40C27.5834 40 27.5905 40 27.5977 40C27.6048 40 27.612 40 27.6191 40C27.6263 40 27.6334 40 27.6405 40C27.6477 40 27.6548 40 27.6619 40C27.669 40 27.6762 40 27.6833 40C27.6904 40 27.6975 40 27.7046 40C27.7118 40 27.7189 40 27.726 40C27.7331 40 27.7402 40 27.7473 40C27.7544 40 27.7615 40 27.7686 40C27.7757 40 27.7828 40 27.7899 40C27.797 40 27.8041 40 27.8112 40C27.8182 40 27.8253 40 27.8324 40C27.8395 40 27.8466 40 27.8536 40C27.8607 40 27.8678 40 27.8749 40C27.8819 40 27.889 40 27.8961 40C27.9031 40 27.9102 40 27.9172 40C27.9243 40 27.9313 40 27.9384 40C27.9454 40 27.9525 40 27.9595 40C27.9666 40 27.9736 40 27.9807 40C27.9877 40 27.9948 40 28.0018 40C28.0088 40 28.0159 40 28.0229 40C28.0299 40 28.0369 40 28.044 40C28.051 40 28.058 40 28.065 40C28.0721 40 28.0791 40 28.0861 40C28.0931 40 28.1001 40 28.1071 40C28.1141 40 28.1211 40 28.1281 40C28.1351 40 28.1421 40 28.1491 40C28.1561 40 28.1631 40 28.1701 40C28.1771 40 28.1841 40 28.1911 40C28.1981 40 28.2051 40 28.2121 40C28.219 40 28.226 40 28.233 40C28.24 40 28.247 40 28.2539 40C28.2609 40 28.2679 40 28.2748 40C28.2818 40 28.2888 40 28.2957 40C28.3027 40 28.3097 40 28.3166 40C28.3236 40 28.3305 40 28.3375 40C28.3444 40 28.3514 40 28.3583 40C28.3653 40 28.3722 40 28.3792 40C28.3861 40 28.3931 40 28.4 40C28.4069 40 28.4139 40 28.4208 40C28.4278 40 28.4347 40 28.4416 40C28.4486 40 28.4555 40 28.4624 40C28.4693 40 28.4763 40 28.4832 40C28.4901 40 28.497 40 28.5039 40C28.5108 40 28.5178 40 28.5247 40C28.5316 40 28.5385 40 28.5454 40C28.5523 40 28.5592 40 28.5661 40C28.573 40 28.5799 40 28.5868 40C28.5937 40 28.6006 40 28.6075 40C28.6144 40 28.6213 40 28.6282 40C28.6351 40 28.642 40 28.6489 40C28.6557 40 28.6626 40 28.6695 40C28.6764 40 28.6833 40 28.6902 40C28.697 40 28.7039 40 28.7108 40C28.7177 40 28.7245 40 28.7314 40C28.7383 40 28.7451 40 28.752 40C28.7589 40 28.7657 40 28.7726 40C28.7795 40 28.7863 40 28.7932 40C28.8 40 28.8069 40 28.8137 40C28.8206 40 28.8274 40 28.8343 40C28.8411 40 28.848 40 28.8548 40C28.8617 40 28.8685 40 28.8754 40C28.8822 40 28.8891 40 28.8959 40C28.9027 40 28.9096 40 28.9164 40C28.9232 40 28.9301 40 28.9369 40C28.9437 40 28.9506 40 28.9574 40C28.9642 40 28.971 40 28.9779 40C28.9847 40 28.9915 40 28.9983 40C29.0052 40 29.012 40 29.0188 40C29.0256 40 29.0324 40 29.0392 40C29.0461 40 29.0529 40 29.0597 40C29.0665 40 29.0733 40 29.0801 40C29.0869 40 29.0937 40 29.1005 40C29.1073 40 29.1141 40 29.1209 40C29.1277 40 29.1345 40 29.1413 40C29.1481 40 29.1549 40 29.1617 40C29.1685 40 29.1753 40 29.1821 40C29.1889 40 29.1957 40 29.2025 40C29.2093 40 29.216 40 29.2228 40C29.2296 40 29.2364 40 29.2432 40C29.25 40 29.2567 40 29.2635 40C29.2703 40 29.2771 40 29.2838 40C29.2906 40 29.2974 40 29.3042 40C29.3109 40 29.3177 40 29.3245 40C29.3313 40 29.338 40 29.3448 40C29.3516 40 29.3583 40 29.3651 40C29.3718 40 29.3786 40 29.3854 40C29.3921 40 29.3989 40 29.4057 40C29.4124 40 29.4192 40 29.4259 40C29.4327 40 29.4394 40 29.4462 40C29.4529 40 29.4597 40 29.4664 40C29.4732 40 29.4799 40 29.4867 40C29.4934 40 29.5002 40 29.5069 40C29.5137 40 29.5204 40 29.5272 40C29.5339 40 29.5407 40 29.5474 40C29.5541 40 29.5609 40 29.5676 40C29.5744 40 29.5811 40 29.5878 40C29.5946 40 29.6013 40 29.608 40C29.6148 40 29.6215 40 29.6282 40C29.635 40 29.6417 40 29.6484 40C29.6552 40 29.6619 40 29.6686 40C29.6753 40 29.6821 40 29.6888 40C29.6955 40 29.7022 40 29.709 40C29.7157 40 29.7224 40 29.7291 40C29.7358 40 29.7426 40 29.7493 40C29.756 40 29.7627 40 29.7694 40C29.7761 40 29.7829 40 29.7896 40C29.7963 40 29.803 40 29.8097 40C29.8164 40 29.8231 40 29.8299 40C29.8366 40 29.8433 40 29.85 40C29.8567 40 29.8634 40 29.8701 40C29.8768 40 29.8835 40 29.8902 40C29.8969 40 29.9036 40 29.9103 40C29.917 40 29.9238 40 29.9305 40C29.9372 40 29.9439 40 29.9506 40C29.9573 40 29.964 40 29.9707 40C29.9774 40 29.9841 40 29.9908 40C29.9974 40 30.0041 40 30.0108 40C30.0175 40 30.0242 40 30.0309 40C30.0376 40 30.0443 40 30.051 40C30.0577 40 30.0644 40 30.0711 40C30.0778 40 30.0845 40 30.0912 40C30.0978 40 30.1045 40 30.1112 40C30.1179 40 30.1246 40 30.1313 40C30.138 40 30.1447 40 30.1514 40C30.158 40 30.1647 40 30.1714 40C30.1781 40 30.1848 40 30.1915 40C30.1981 40 30.2048 40 30.2115 40C30.2182 40 30.2249 40 30.2316 40C30.2382 40 30.2449 40 30.2516 40C30.2583 40 30.265 40 30.2716 40C30.2783 40 30.285 40 30.2917 40C30.2984 40 30.305 40 30.3117 40C30.3184 40 30.3251 40 30.3318 40C30.3384 40 30.3451 40 30.3518 40C30.3585 40 30.3651 40 30.3718 40C30.3785 40 30.3852 40 30.3918 40C30.3985 40 30.4052 40 30.4119 40C30.4185 40 30.4252 40 30.4319 40C30.4386 40 30.4452 40 30.4519 40C30.4586 40 30.4652 40 30.4719 40C30.4786 40 30.4853 40 30.4919 40C30.4986 40 30.5053 40 30.5119 40C30.5186 40 30.5253 40 30.532 40C30.5386 40 30.5453 40 30.552 40C30.5586 40 30.5653 40 30.572 40C30.5786 40 30.5853 40 30.592 40C30.5987 40 30.6053 40 30.612 40C30.6187 40 30.6253 40 30.632 40C30.6387 40 30.6453 40 30.652 40C30.6587 40 30.6653 40 30.672 40C30.6787 40 30.6853 40 30.692 40C30.6987 40 30.7054 40 30.712 40C30.7187 40 30.7254 40 30.732 40C30.7387 40 30.7454 40 30.752 40C30.7587 40 30.7654 40 30.772 40C30.7787 40 30.7854 40 30.792 40C30.7987 40 30.8054 40 30.812 40C30.8187 40 30.8254 40 30.832 40C30.8387 40 30.8454 40 30.8521 40C30.8587 40 30.8654 40 30.8721 40C30.8787 40 30.8854 40 30.8921 40C30.8987 40 30.9054 40 30.9121 40C30.9187 40 30.9254 40 30.9321 40C30.9388 40 30.9454 40 30.9521 40C30.9588 40 30.9654 40 30.9721 40C30.9788 40 30.9854 40 30.9921 40C30.9988 40 31.0055 40 31.0121 40C31.0188 40 31.0255 40 31.0321 40C31.0388 40 31.0455 40 31.0522 40C31.0588 40 31.0655 40 31.0722 40C31.0789 40 31.0855 40 31.0922 40C31.0989 40 31.1055 40 31.1122 40C31.1189 40 31.1256 40 31.1322 40C31.1389 40 31.1456 40 31.1523 40C31.1589 40 31.1656 40 31.1723 40C31.179 40 31.1857 40 31.1923 40C31.199 40 31.2057 40 31.2124 40C31.219 40 31.2257 40 31.2324 40C31.2391 40 31.2458 40 31.2524 40C31.2591 40 31.2658 40 31.2725 40C31.2792 40 31.2858 40 31.2925 40C31.2992 40 31.3059 40 31.3126 40C31.3193 40 31.3259 40 31.3326 40C31.3393 40 31.346 40 31.3527 40C31.3594 40 31.3661 40 31.3728 40C31.3794 40 31.3861 40 31.3928 40C31.3995 40 31.4062 40 31.4129 40C31.4196 40 31.4263 40 31.433 40C31.4396 40 31.4463 40 31.453 40C31.4597 40 31.4664 40 31.4731 40C31.4798 40 31.4865 40 31.4932 40C31.4999 40 31.5066 40 31.5133 40C31.52 40 31.5267 40 31.5334 40C31.5401 40 31.5468 40 31.5535 40C31.5602 40 31.5669 40 31.5736 40C31.5803 40 31.587 40 31.5937 40C31.6004 40 31.6071 40 31.6138 40C31.6205 40 31.6272 40 31.6339 40C31.6406 40 31.6473 40 31.654 40C31.6607 40 31.6674 40 31.6742 40C31.6809 40 31.6876 40 31.6943 40C31.701 40 31.7077 40 31.7144 40C31.7211 40 31.7279 40 31.7346 40C31.7413 40 31.748 40 31.7547 40C31.7614 40 31.7682 40 31.7749 40C31.7816 40 31.7883 40 31.795 40C31.8018 40 31.8085 40 31.8152 40C31.8219 40 31.8287 40 31.8354 40C31.8421 40 31.8488 40 31.8556 40C31.8623 40 31.869 40 31.8758 40C31.8825 40 31.8892 40 31.896 40C31.9027 40 31.9094 40 31.9162 40C31.9229 40 31.9296 40 31.9364 40C31.9431 40 31.9499 40 31.9566 40C31.9633 40 31.9701 40 31.9768 40C31.9836 40 31.9903 40 31.997 40C32.0038 40 32.0105 40 32.0173 40C32.024 40 32.0308 40 32.0375 40C32.0443 40 32.051 40 32.0578 40C32.0645 40 32.0713 40 32.078 40C32.0848 40 32.0916 40 32.0983 40C32.1051 40 32.1118 40 32.1186 40C32.1254 40 32.1321 40 32.1389 40C32.1456 40 32.1524 40 32.1592 40C32.1659 40 32.1727 40 32.1795 40C32.1862 40 32.193 40 32.1998 40C32.2066 40 32.2133 40 32.2201 40C32.2269 40 32.2337 40 32.2404 40C32.2472 40 32.254 40 32.2608 40C32.2676 40 32.2743 40 32.2811 40C32.2879 40 32.2947 40 32.3015 40C32.3083 40 32.3151 40 32.3218 40C32.3286 40 32.3354 40 32.3422 40C32.349 40 32.3558 40 32.3626 40C32.3694 40 32.3762 40 32.383 40C32.3898 40 32.3966 40 32.4034 40C32.4102 40 32.417 40 32.4238 40C32.4306 40 32.4374 40 32.4442 40C32.451 40 32.4579 40 32.4647 40C32.4715 40 32.4783 40 32.4851 40C32.4919 40 32.4987 40 32.5056 40C32.5124 40 32.5192 40 32.526 40C32.5329 40 32.5397 40 32.5465 40C32.5533 40 32.5602 40 32.567 40C32.5738 40 32.5807 40 32.5875 40C32.5943 40 32.6012 40 32.608 40C32.6148 40 32.6217 40 32.6285 40C32.6354 40 32.6422 40 32.649 40C32.6559 40 32.6627 40 32.6696 40C32.6764 40 32.6833 40 32.6901 40C32.697 40 32.7038 40 32.7107 40C32.7176 40 32.7244 40 32.7313 40C32.7381 40 32.745 40 32.7519 40C32.7587 40 32.7656 40 32.7725 40C32.7793 40 32.7862 40 32.7931 40C32.7999 40 32.8068 40 32.8137 40C32.8206 40 32.8275 40 32.8343 40C32.8412 40 32.8481 40 32.855 40C32.8619 40 32.8688 40 32.8756 40C32.8825 40 32.8894 40 32.8963 40C32.9032 40 32.9101 40 32.917 40C32.9239 40 32.9308 40 32.9377 40C32.9446 40 32.9515 40 32.9584 40C32.9653 40 32.9722 40 32.9791 40C32.9861 40 32.993 40 32.9999 40C33.0068 40 33.0137 40 33.0206 40C33.0276 40 33.0345 40 33.0414 40C33.0483 40 33.0552 40 33.0622 40C33.0691 40 33.076 40 33.083 40C33.0899 40 33.0968 40 33.1038 40C33.1107 40 33.1177 40 33.1246 40C33.1315 40 33.1385 40 33.1454 40C33.1524 40 33.1593 40 33.1663 40C33.1732 40 33.1802 40 33.1871 40C33.1941 40 33.2011 40 33.208 40C33.215 40 33.2219 40 33.2289 40C33.2359 40 33.2428 40 33.2498 40C33.2568 40 33.2638 40 33.2707 40C33.2777 40 33.2847 40 33.2917 40C33.2987 40 33.3056 40 33.3126 40C33.3196 40 33.3266 40 33.3336 40C33.3406 40 33.3476 40 33.3546 40C33.3616 40 33.3686 40 33.3756 40C33.3826 40 33.3896 40 33.3966 40C33.4036 40 33.4106 40 33.4176 40C33.4246 40 33.4316 40 33.4387 40C33.4457 40 33.4527 40 33.4597 40C33.4668 40 33.4738 40 33.4808 40C33.4878 40 33.4949 40 33.5019 40C33.5089 40 33.516 40 33.523 40C33.53 40 33.5371 40 33.5441 40C33.5512 40 33.5582 40 33.5653 40C33.5723 40 33.5794 40 33.5864 40C33.5935 40 33.6005 40 33.6076 40C33.6147 40 33.6217 40 33.6288 40C33.6359 40 33.6429 40 33.65 40C33.6571 40 33.6642 40 33.6712 40C33.6783 40 33.6854 40 33.6925 40C33.6996 40 33.7067 40 33.7137 40C33.7208 40 33.7279 40 33.735 40C33.7421 40 33.7492 40 33.7563 40C33.7634 40 33.7705 40 33.7776 40C33.7847 40 33.7918 40 33.799 40C33.8061 40 33.8132 40 33.8203 40C33.8274 40 33.8346 40 33.8417 40C33.8488 40 33.8559 40 33.8631 40C33.8702 40 33.8773 40 33.8845 40C33.8916 40 33.8987 40 33.9059 40C33.913 40 33.9202 40 33.9273 40C33.9345 40 33.9416 40 33.9488 40C33.956 40 33.9631 40 33.9703 40C33.9774 40 33.9846 40 33.9918 40C33.9989 40 34.0061 40 34.0133 40C34.0205 40 34.0276 40 34.0348 40C34.042 40 34.0492 40 34.0564 40C34.0636 40 34.0708 40 34.078 40C34.0851 40 34.0923 40 34.0995 40C34.1067 40 34.114 40 34.1212 40C34.1284 40 34.1356 40 34.1428 40C34.15 40 34.1572 40 34.1644 40C34.1717 40 34.1789 40 34.1861 40C34.1933 40 34.2006 40 34.2078 40C34.215 40 34.2223 40 34.2295 40C34.2368 40 34.244 40 34.2513 40C34.2585 40 34.2658 40 34.273 40C34.2803 40 34.2875 40 34.2948 40C34.3021 40 34.3093 40 34.3166 40C34.3239 40 34.3311 40 34.3384 40C34.3457 40 34.353 40 34.3602 40C34.3675 40 34.3748 40 34.3821 40C34.3894 40 34.3967 40 34.404 40C34.4113 40 34.4186 40 34.4259 40C34.4332 40 34.4405 40 34.4478 40C34.4551 40 34.4624 40 34.4698 40C34.4771 40 34.4844 40 34.4917 40C34.499 40 34.5064 40 34.5137 40C34.521 40 34.5284 40 34.5357 40C34.5431 40 34.5504 40 34.5577 40C34.5651 40 34.5724 40 34.5798 40C34.5872 40 34.5945 40 34.6019 40C34.6092 40 34.6166 40 34.624 40C34.6313 40 34.6387 40 34.6461 40C34.6535 40 34.6609 40 34.6682 40C34.6756 40 34.683 40 34.6904 40C34.6978 40 34.7052 40 34.7126 40C34.72 40 34.7274 40 34.7348 40C34.7422 40 34.7496 40 34.7571 40C34.7645 40 34.7719 40 34.7793 40C34.7867 40 34.7942 40 34.8016 40C34.809 40 34.8165 40 34.8239 40C34.8313 40 34.8388 40 34.8462 40C34.8537 40 34.8611 40 34.8686 40C34.876 40 34.8835 40 34.891 40C34.8984 40 34.9059 40 34.9134 40C34.9208 40 34.9283 40 34.9358 40C34.9433 40 34.9508 40 34.9582 40C34.9657 40 34.9732 40 34.9807 40C34.9882 40 34.9957 40 35.0032 40C35.0107 40 35.0182 40 35.0257 40C35.0332 40 35.0408 40 35.0483 40C35.0558 40 35.0633 40 35.0709 40C35.0784 40 35.0859 40 35.0935 40C35.101 40 35.1085 40 35.1161 40C35.1236 40 35.1312 40 35.1387 40C35.1463 40 35.1538 40 35.1614 40C35.169 40 35.1765 40 35.1841 40C35.1917 40 35.1992 40 35.2068 40C35.2144 40 35.222 40 35.2296 40C35.2372 40 35.2448 40 35.2523 40C35.2599 40 35.2675 40 35.2751 40C35.2828 40 35.2904 40 35.298 40C35.3056 40 35.3132 40 35.3208 40C35.3285 40 35.3361 40 35.3437 40C35.3513 40 35.359 40 35.3666 40C35.3743 40 35.3819 40 35.3896 40C35.3972 40 35.4049 40 35.4125 40C35.4202 40 35.4278 40 35.4355 40C35.4432 40 35.4508 40 35.4585 40C35.4662 40 35.4739 40 35.4816 40C35.4892 40 35.4969 40 35.5046 40C35.5123 40 35.52 40 35.5277 40C35.5354 40 35.5431 40 35.5508 40C35.5585 40 35.5663 40 35.574 40C35.5817 40 35.5894 40 35.5972 40C35.6049 40 35.6126 40 35.6204 40C35.6281 40 35.6359 40 35.6436 40C35.6514 40 35.6591 40 35.6669 40C35.6746 40 35.6824 40 35.6902 40C35.6979 40 35.7057 40 35.7135 40C35.7212 40 35.729 40 35.7368 40C35.7446 40 35.7524 40 35.7602 40C35.768 40 35.7758 40 35.7836 40C35.7914 40 35.7992 40 35.807 40C35.8148 40 35.8227 40 35.8305 40C35.8383 40 35.8461 40 35.854 40C35.8618 40 35.8696 40 35.8775 40C35.8853 40 35.8932 40 35.901 40C35.9089 40 35.9168 40 35.9246 40C35.9325 40 35.9403 40 35.9482 40C35.9561 40 35.964 40 35.9719 40C35.9797 40 35.9876 40 35.9955 40C36.0034 40 36.0113 40 36.0192 40C36.0271 40 36.035 40 36.0429 40C36.0509 40 36.0588 40 36.0667 40C36.0746 40 36.0826 40 36.0905 40C36.0984 40 36.1064 40 36.1143 40C36.1222 40 36.1302 40 36.1381 40C36.1461 40 36.1541 40 36.162 40C36.17 40 36.178 40 36.1859 40C36.1939 40 36.2019 40 36.2099 40C36.2179 40 36.2258 40 36.2338 40C36.2418 40 36.2498 40 36.2578 40C36.2658 40 36.2739 40 36.2819 40C36.2899 40 36.2979 40 36.3059 40C36.314 40 36.322 40 36.33 40C36.3381 40 36.3461 40 36.3541 40C36.3622 40 36.3702 40 36.3783 40C36.3864 40 36.3944 40 36.4025 40C36.4106 40 36.4186 40 36.4267 40C36.4348 40 36.4429 40 36.451 40C36.4591 40 36.4671 40 36.4752 40C36.4833 40 36.4915 40 36.4996 40C36.5077 40 36.5158 40 36.5239 40C36.532 40 36.5402 40 36.5483 40C36.5564 40 36.5646 40 36.5727 40C36.5808 40 36.589 40 36.5972 40C36.6053 40 36.6135 40 36.6216 40C36.6298 40 36.638 40 36.6461 40C36.6543 40 36.6625 40 36.6707 40C36.6789 40 36.6871 40 36.6953 40C36.7035 40 36.7117 40 36.7199 40C36.7281 40 36.7363 40 36.7445 40C36.7527 40 36.761 40 36.7692 40C36.7774 40 36.7857 40 36.7939 40C36.8022 40 36.8104 40 36.8187 40C36.8269 40 36.8352 40 36.8434 40C36.8517 40 36.86 40 36.8683 40C36.8765 40 36.8848 40 36.8931 40C36.9014 40 36.9097 40 36.918 40C36.9263 40 36.9346 40 36.9429 40C36.9512 40 36.9595 40 36.9678 40C36.9762 40 36.9845 40 36.9928 40C37.0012 40 37.0095 40 37.0179 40C37.0262 40 37.0346 40 37.0429 40C37.0513 40 37.0596 40 37.068 40C37.0764 40 37.0847 40 37.0931 40C37.1015 40 37.1099 40 37.1183 40C37.1267 40 37.1351 40 37.1435 40C37.1519 40 37.1603 40 37.1687 40C37.1771 40 37.1856 40 37.194 40C37.2024 40 37.2108 40 37.2193 40C37.2277 40 37.2362 40 37.2446 40C37.2531 40 37.2615 40 37.27 40C37.2785 40 37.2869 40 37.2954 40C37.3039 40 37.3124 40 37.3209 40C37.3293 40 37.3378 40 37.3463 40C37.3548 40 37.3633 40 37.3719 40C37.3804 40 37.3889 40 37.3974 40C37.4059 40 37.4145 40 37.423 40C37.4315 40 37.4401 40 37.4486 40C37.4572 40 37.4657 40 37.4743 40C37.4829 40 37.4914 40 37.5 40V38C37.4914 38 37.4829 38 37.4743 38C37.4657 38 37.4572 38 37.4486 38C37.4401 38 37.4315 38 37.423 38C37.4145 38 37.4059 38 37.3974 38C37.3889 38 37.3804 38 37.3719 38C37.3633 38 37.3548 38 37.3463 38C37.3378 38 37.3293 38 37.3209 38C37.3124 38 37.3039 38 37.2954 38C37.2869 38 37.2785 38 37.27 38C37.2615 38 37.2531 38 37.2446 38C37.2362 38 37.2277 38 37.2193 38C37.2108 38 37.2024 38 37.194 38C37.1856 38 37.1771 38 37.1687 38C37.1603 38 37.1519 38 37.1435 38C37.1351 38 37.1267 38 37.1183 38C37.1099 38 37.1015 38 37.0931 38C37.0847 38 37.0764 38 37.068 38C37.0596 38 37.0513 38 37.0429 38C37.0346 38 37.0262 38 37.0179 38C37.0095 38 37.0012 38 36.9928 38C36.9845 38 36.9762 38 36.9678 38C36.9595 38 36.9512 38 36.9429 38C36.9346 38 36.9263 38 36.918 38C36.9097 38 36.9014 38 36.8931 38C36.8848 38 36.8765 38 36.8683 38C36.86 38 36.8517 38 36.8434 38C36.8352 38 36.8269 38 36.8187 38C36.8104 38 36.8022 38 36.7939 38C36.7857 38 36.7774 38 36.7692 38C36.761 38 36.7527 38 36.7445 38C36.7363 38 36.7281 38 36.7199 38C36.7117 38 36.7035 38 36.6953 38C36.6871 38 36.6789 38 36.6707 38C36.6625 38 36.6543 38 36.6461 38C36.638 38 36.6298 38 36.6216 38C36.6135 38 36.6053 38 36.5972 38C36.589 38 36.5808 38 36.5727 38C36.5646 38 36.5564 38 36.5483 38C36.5402 38 36.532 38 36.5239 38C36.5158 38 36.5077 38 36.4996 38C36.4915 38 36.4833 38 36.4752 38C36.4671 38 36.4591 38 36.451 38C36.4429 38 36.4348 38 36.4267 38C36.4186 38 36.4106 38 36.4025 38C36.3944 38 36.3864 38 36.3783 38C36.3702 38 36.3622 38 36.3541 38C36.3461 38 36.3381 38 36.33 38C36.322 38 36.314 38 36.3059 38C36.2979 38 36.2899 38 36.2819 38C36.2739 38 36.2658 38 36.2578 38C36.2498 38 36.2418 38 36.2338 38C36.2258 38 36.2179 38 36.2099 38C36.2019 38 36.1939 38 36.1859 38C36.178 38 36.17 38 36.162 38C36.1541 38 36.1461 38 36.1381 38C36.1302 38 36.1222 38 36.1143 38C36.1064 38 36.0984 38 36.0905 38C36.0826 38 36.0746 38 36.0667 38C36.0588 38 36.0509 38 36.0429 38C36.035 38 36.0271 38 36.0192 38C36.0113 38 36.0034 38 35.9955 38C35.9876 38 35.9797 38 35.9719 38C35.964 38 35.9561 38 35.9482 38C35.9403 38 35.9325 38 35.9246 38C35.9168 38 35.9089 38 35.901 38C35.8932 38 35.8853 38 35.8775 38C35.8696 38 35.8618 38 35.854 38C35.8461 38 35.8383 38 35.8305 38C35.8227 38 35.8148 38 35.807 38C35.7992 38 35.7914 38 35.7836 38C35.7758 38 35.768 38 35.7602 38C35.7524 38 35.7446 38 35.7368 38C35.729 38 35.7212 38 35.7135 38C35.7057 38 35.6979 38 35.6902 38C35.6824 38 35.6746 38 35.6669 38C35.6591 38 35.6514 38 35.6436 38C35.6359 38 35.6281 38 35.6204 38C35.6126 38 35.6049 38 35.5972 38C35.5894 38 35.5817 38 35.574 38C35.5663 38 35.5585 38 35.5508 38C35.5431 38 35.5354 38 35.5277 38C35.52 38 35.5123 38 35.5046 38C35.4969 38 35.4892 38 35.4816 38C35.4739 38 35.4662 38 35.4585 38C35.4508 38 35.4432 38 35.4355 38C35.4278 38 35.4202 38 35.4125 38C35.4049 38 35.3972 38 35.3896 38C35.3819 38 35.3743 38 35.3666 38C35.359 38 35.3513 38 35.3437 38C35.3361 38 35.3285 38 35.3208 38C35.3132 38 35.3056 38 35.298 38C35.2904 38 35.2828 38 35.2751 38C35.2675 38 35.2599 38 35.2523 38C35.2448 38 35.2372 38 35.2296 38C35.222 38 35.2144 38 35.2068 38C35.1992 38 35.1917 38 35.1841 38C35.1765 38 35.169 38 35.1614 38C35.1538 38 35.1463 38 35.1387 38C35.1312 38 35.1236 38 35.1161 38C35.1085 38 35.101 38 35.0935 38C35.0859 38 35.0784 38 35.0709 38C35.0633 38 35.0558 38 35.0483 38C35.0408 38 35.0332 38 35.0257 38C35.0182 38 35.0107 38 35.0032 38C34.9957 38 34.9882 38 34.9807 38C34.9732 38 34.9657 38 34.9582 38C34.9508 38 34.9433 38 34.9358 38C34.9283 38 34.9208 38 34.9134 38C34.9059 38 34.8984 38 34.891 38C34.8835 38 34.876 38 34.8686 38C34.8611 38 34.8537 38 34.8462 38C34.8388 38 34.8313 38 34.8239 38C34.8165 38 34.809 38 34.8016 38C34.7942 38 34.7867 38 34.7793 38C34.7719 38 34.7645 38 34.7571 38C34.7496 38 34.7422 38 34.7348 38C34.7274 38 34.72 38 34.7126 38C34.7052 38 34.6978 38 34.6904 38C34.683 38 34.6756 38 34.6682 38C34.6609 38 34.6535 38 34.6461 38C34.6387 38 34.6313 38 34.624 38C34.6166 38 34.6092 38 34.6019 38C34.5945 38 34.5872 38 34.5798 38C34.5724 38 34.5651 38 34.5577 38C34.5504 38 34.5431 38 34.5357 38C34.5284 38 34.521 38 34.5137 38C34.5064 38 34.499 38 34.4917 38C34.4844 38 34.4771 38 34.4698 38C34.4624 38 34.4551 38 34.4478 38C34.4405 38 34.4332 38 34.4259 38C34.4186 38 34.4113 38 34.404 38C34.3967 38 34.3894 38 34.3821 38C34.3748 38 34.3675 38 34.3602 38C34.353 38 34.3457 38 34.3384 38C34.3311 38 34.3239 38 34.3166 38C34.3093 38 34.3021 38 34.2948 38C34.2875 38 34.2803 38 34.273 38C34.2658 38 34.2585 38 34.2513 38C34.244 38 34.2368 38 34.2295 38C34.2223 38 34.215 38 34.2078 38C34.2006 38 34.1933 38 34.1861 38C34.1789 38 34.1717 38 34.1644 38C34.1572 38 34.15 38 34.1428 38C34.1356 38 34.1284 38 34.1212 38C34.114 38 34.1067 38 34.0995 38C34.0923 38 34.0851 38 34.078 38C34.0708 38 34.0636 38 34.0564 38C34.0492 38 34.042 38 34.0348 38C34.0276 38 34.0205 38 34.0133 38C34.0061 38 33.9989 38 33.9918 38C33.9846 38 33.9774 38 33.9703 38C33.9631 38 33.956 38 33.9488 38C33.9416 38 33.9345 38 33.9273 38C33.9202 38 33.913 38 33.9059 38C33.8987 38 33.8916 38 33.8845 38C33.8773 38 33.8702 38 33.8631 38C33.8559 38 33.8488 38 33.8417 38C33.8346 38 33.8274 38 33.8203 38C33.8132 38 33.8061 38 33.799 38C33.7918 38 33.7847 38 33.7776 38C33.7705 38 33.7634 38 33.7563 38C33.7492 38 33.7421 38 33.735 38C33.7279 38 33.7208 38 33.7137 38C33.7067 38 33.6996 38 33.6925 38C33.6854 38 33.6783 38 33.6712 38C33.6642 38 33.6571 38 33.65 38C33.6429 38 33.6359 38 33.6288 38C33.6217 38 33.6147 38 33.6076 38C33.6005 38 33.5935 38 33.5864 38C33.5794 38 33.5723 38 33.5653 38C33.5582 38 33.5512 38 33.5441 38C33.5371 38 33.53 38 33.523 38C33.516 38 33.5089 38 33.5019 38C33.4949 38 33.4878 38 33.4808 38C33.4738 38 33.4668 38 33.4597 38C33.4527 38 33.4457 38 33.4387 38C33.4316 38 33.4246 38 33.4176 38C33.4106 38 33.4036 38 33.3966 38C33.3896 38 33.3826 38 33.3756 38C33.3686 38 33.3616 38 33.3546 38C33.3476 38 33.3406 38 33.3336 38C33.3266 38 33.3196 38 33.3126 38C33.3056 38 33.2987 38 33.2917 38C33.2847 38 33.2777 38 33.2707 38C33.2638 38 33.2568 38 33.2498 38C33.2428 38 33.2359 38 33.2289 38C33.2219 38 33.215 38 33.208 38C33.2011 38 33.1941 38 33.1871 38C33.1802 38 33.1732 38 33.1663 38C33.1593 38 33.1524 38 33.1454 38C33.1385 38 33.1315 38 33.1246 38C33.1177 38 33.1107 38 33.1038 38C33.0968 38 33.0899 38 33.083 38C33.076 38 33.0691 38 33.0622 38C33.0552 38 33.0483 38 33.0414 38C33.0345 38 33.0276 38 33.0206 38C33.0137 38 33.0068 38 32.9999 38C32.993 38 32.9861 38 32.9791 38C32.9722 38 32.9653 38 32.9584 38C32.9515 38 32.9446 38 32.9377 38C32.9308 38 32.9239 38 32.917 38C32.9101 38 32.9032 38 32.8963 38C32.8894 38 32.8825 38 32.8756 38C32.8688 38 32.8619 38 32.855 38C32.8481 38 32.8412 38 32.8343 38C32.8275 38 32.8206 38 32.8137 38C32.8068 38 32.7999 38 32.7931 38C32.7862 38 32.7793 38 32.7725 38C32.7656 38 32.7587 38 32.7519 38C32.745 38 32.7381 38 32.7313 38C32.7244 38 32.7176 38 32.7107 38C32.7038 38 32.697 38 32.6901 38C32.6833 38 32.6764 38 32.6696 38C32.6627 38 32.6559 38 32.649 38C32.6422 38 32.6354 38 32.6285 38C32.6217 38 32.6148 38 32.608 38C32.6012 38 32.5943 38 32.5875 38C32.5807 38 32.5738 38 32.567 38C32.5602 38 32.5533 38 32.5465 38C32.5397 38 32.5329 38 32.526 38C32.5192 38 32.5124 38 32.5056 38C32.4987 38 32.4919 38 32.4851 38C32.4783 38 32.4715 38 32.4647 38C32.4579 38 32.451 38 32.4442 38C32.4374 38 32.4306 38 32.4238 38C32.417 38 32.4102 38 32.4034 38C32.3966 38 32.3898 38 32.383 38C32.3762 38 32.3694 38 32.3626 38C32.3558 38 32.349 38 32.3422 38C32.3354 38 32.3286 38 32.3218 38C32.3151 38 32.3083 38 32.3015 38C32.2947 38 32.2879 38 32.2811 38C32.2743 38 32.2676 38 32.2608 38C32.254 38 32.2472 38 32.2404 38C32.2337 38 32.2269 38 32.2201 38C32.2133 38 32.2066 38 32.1998 38C32.193 38 32.1862 38 32.1795 38C32.1727 38 32.1659 38 32.1592 38C32.1524 38 32.1456 38 32.1389 38C32.1321 38 32.1254 38 32.1186 38C32.1118 38 32.1051 38 32.0983 38C32.0916 38 32.0848 38 32.078 38C32.0713 38 32.0645 38 32.0578 38C32.051 38 32.0443 38 32.0375 38C32.0308 38 32.024 38 32.0173 38C32.0105 38 32.0038 38 31.997 38C31.9903 38 31.9836 38 31.9768 38C31.9701 38 31.9633 38 31.9566 38C31.9499 38 31.9431 38 31.9364 38C31.9296 38 31.9229 38 31.9162 38C31.9094 38 31.9027 38 31.896 38C31.8892 38 31.8825 38 31.8758 38C31.869 38 31.8623 38 31.8556 38C31.8488 38 31.8421 38 31.8354 38C31.8287 38 31.8219 38 31.8152 38C31.8085 38 31.8018 38 31.795 38C31.7883 38 31.7816 38 31.7749 38C31.7682 38 31.7614 38 31.7547 38C31.748 38 31.7413 38 31.7346 38C31.7279 38 31.7211 38 31.7144 38C31.7077 38 31.701 38 31.6943 38C31.6876 38 31.6809 38 31.6742 38C31.6674 38 31.6607 38 31.654 38C31.6473 38 31.6406 38 31.6339 38C31.6272 38 31.6205 38 31.6138 38C31.6071 38 31.6004 38 31.5937 38C31.587 38 31.5803 38 31.5736 38C31.5669 38 31.5602 38 31.5535 38C31.5468 38 31.5401 38 31.5334 38C31.5267 38 31.52 38 31.5133 38C31.5066 38 31.4999 38 31.4932 38C31.4865 38 31.4798 38 31.4731 38C31.4664 38 31.4597 38 31.453 38C31.4463 38 31.4396 38 31.433 38C31.4263 38 31.4196 38 31.4129 38C31.4062 38 31.3995 38 31.3928 38C31.3861 38 31.3794 38 31.3728 38C31.3661 38 31.3594 38 31.3527 38C31.346 38 31.3393 38 31.3326 38C31.3259 38 31.3193 38 31.3126 38C31.3059 38 31.2992 38 31.2925 38C31.2858 38 31.2792 38 31.2725 38C31.2658 38 31.2591 38 31.2524 38C31.2458 38 31.2391 38 31.2324 38C31.2257 38 31.219 38 31.2124 38C31.2057 38 31.199 38 31.1923 38C31.1857 38 31.179 38 31.1723 38C31.1656 38 31.1589 38 31.1523 38C31.1456 38 31.1389 38 31.1322 38C31.1256 38 31.1189 38 31.1122 38C31.1055 38 31.0989 38 31.0922 38C31.0855 38 31.0789 38 31.0722 38C31.0655 38 31.0588 38 31.0522 38C31.0455 38 31.0388 38 31.0321 38C31.0255 38 31.0188 38 31.0121 38C31.0055 38 30.9988 38 30.9921 38C30.9854 38 30.9788 38 30.9721 38C30.9654 38 30.9588 38 30.9521 38C30.9454 38 30.9388 38 30.9321 38C30.9254 38 30.9187 38 30.9121 38C30.9054 38 30.8987 38 30.8921 38C30.8854 38 30.8787 38 30.8721 38C30.8654 38 30.8587 38 30.8521 38C30.8454 38 30.8387 38 30.832 38C30.8254 38 30.8187 38 30.812 38C30.8054 38 30.7987 38 30.792 38C30.7854 38 30.7787 38 30.772 38C30.7654 38 30.7587 38 30.752 38C30.7454 38 30.7387 38 30.732 38C30.7254 38 30.7187 38 30.712 38C30.7054 38 30.6987 38 30.692 38C30.6853 38 30.6787 38 30.672 38C30.6653 38 30.6587 38 30.652 38C30.6453 38 30.6387 38 30.632 38C30.6253 38 30.6187 38 30.612 38C30.6053 38 30.5987 38 30.592 38C30.5853 38 30.5786 38 30.572 38C30.5653 38 30.5586 38 30.552 38C30.5453 38 30.5386 38 30.532 38C30.5253 38 30.5186 38 30.5119 38C30.5053 38 30.4986 38 30.4919 38C30.4853 38 30.4786 38 30.4719 38C30.4652 38 30.4586 38 30.4519 38C30.4452 38 30.4386 38 30.4319 38C30.4252 38 30.4185 38 30.4119 38C30.4052 38 30.3985 38 30.3918 38C30.3852 38 30.3785 38 30.3718 38C30.3651 38 30.3585 38 30.3518 38C30.3451 38 30.3384 38 30.3318 38C30.3251 38 30.3184 38 30.3117 38C30.305 38 30.2984 38 30.2917 38C30.285 38 30.2783 38 30.2716 38C30.265 38 30.2583 38 30.2516 38C30.2449 38 30.2382 38 30.2316 38C30.2249 38 30.2182 38 30.2115 38C30.2048 38 30.1981 38 30.1915 38C30.1848 38 30.1781 38 30.1714 38C30.1647 38 30.158 38 30.1514 38C30.1447 38 30.138 38 30.1313 38C30.1246 38 30.1179 38 30.1112 38C30.1045 38 30.0978 38 30.0912 38C30.0845 38 30.0778 38 30.0711 38C30.0644 38 30.0577 38 30.051 38C30.0443 38 30.0376 38 30.0309 38C30.0242 38 30.0175 38 30.0108 38C30.0041 38 29.9974 38 29.9908 38C29.9841 38 29.9774 38 29.9707 38C29.964 38 29.9573 38 29.9506 38C29.9439 38 29.9372 38 29.9305 38C29.9238 38 29.917 38 29.9103 38C29.9036 38 29.8969 38 29.8902 38C29.8835 38 29.8768 38 29.8701 38C29.8634 38 29.8567 38 29.85 38C29.8433 38 29.8366 38 29.8299 38C29.8231 38 29.8164 38 29.8097 38C29.803 38 29.7963 38 29.7896 38C29.7829 38 29.7761 38 29.7694 38C29.7627 38 29.756 38 29.7493 38C29.7426 38 29.7358 38 29.7291 38C29.7224 38 29.7157 38 29.709 38C29.7022 38 29.6955 38 29.6888 38C29.6821 38 29.6753 38 29.6686 38C29.6619 38 29.6552 38 29.6484 38C29.6417 38 29.635 38 29.6282 38C29.6215 38 29.6148 38 29.608 38C29.6013 38 29.5946 38 29.5878 38C29.5811 38 29.5744 38 29.5676 38C29.5609 38 29.5541 38 29.5474 38C29.5407 38 29.5339 38 29.5272 38C29.5204 38 29.5137 38 29.5069 38C29.5002 38 29.4934 38 29.4867 38C29.4799 38 29.4732 38 29.4664 38C29.4597 38 29.4529 38 29.4462 38C29.4394 38 29.4327 38 29.4259 38C29.4192 38 29.4124 38 29.4057 38C29.3989 38 29.3921 38 29.3854 38C29.3786 38 29.3718 38 29.3651 38C29.3583 38 29.3516 38 29.3448 38C29.338 38 29.3313 38 29.3245 38C29.3177 38 29.3109 38 29.3042 38C29.2974 38 29.2906 38 29.2838 38C29.2771 38 29.2703 38 29.2635 38C29.2567 38 29.25 38 29.2432 38C29.2364 38 29.2296 38 29.2228 38C29.216 38 29.2093 38 29.2025 38C29.1957 38 29.1889 38 29.1821 38C29.1753 38 29.1685 38 29.1617 38C29.1549 38 29.1481 38 29.1413 38C29.1345 38 29.1277 38 29.1209 38C29.1141 38 29.1073 38 29.1005 38C29.0937 38 29.0869 38 29.0801 38C29.0733 38 29.0665 38 29.0597 38C29.0529 38 29.0461 38 29.0392 38C29.0324 38 29.0256 38 29.0188 38C29.012 38 29.0052 38 28.9983 38C28.9915 38 28.9847 38 28.9779 38C28.971 38 28.9642 38 28.9574 38C28.9506 38 28.9437 38 28.9369 38C28.9301 38 28.9232 38 28.9164 38C28.9096 38 28.9027 38 28.8959 38C28.8891 38 28.8822 38 28.8754 38C28.8685 38 28.8617 38 28.8548 38C28.848 38 28.8411 38 28.8343 38C28.8274 38 28.8206 38 28.8137 38C28.8069 38 28.8 38 28.7932 38C28.7863 38 28.7795 38 28.7726 38C28.7657 38 28.7589 38 28.752 38C28.7451 38 28.7383 38 28.7314 38C28.7245 38 28.7177 38 28.7108 38C28.7039 38 28.697 38 28.6902 38C28.6833 38 28.6764 38 28.6695 38C28.6626 38 28.6557 38 28.6489 38C28.642 38 28.6351 38 28.6282 38C28.6213 38 28.6144 38 28.6075 38C28.6006 38 28.5937 38 28.5868 38C28.5799 38 28.573 38 28.5661 38C28.5592 38 28.5523 38 28.5454 38C28.5385 38 28.5316 38 28.5247 38C28.5178 38 28.5108 38 28.5039 38C28.497 38 28.4901 38 28.4832 38C28.4763 38 28.4693 38 28.4624 38C28.4555 38 28.4486 38 28.4416 38C28.4347 38 28.4278 38 28.4208 38C28.4139 38 28.4069 38 28.4 38C28.3931 38 28.3861 38 28.3792 38C28.3722 38 28.3653 38 28.3583 38C28.3514 38 28.3444 38 28.3375 38C28.3305 38 28.3236 38 28.3166 38C28.3097 38 28.3027 38 28.2957 38C28.2888 38 28.2818 38 28.2748 38C28.2679 38 28.2609 38 28.2539 38C28.247 38 28.24 38 28.233 38C28.226 38 28.219 38 28.2121 38C28.2051 38 28.1981 38 28.1911 38C28.1841 38 28.1771 38 28.1701 38C28.1631 38 28.1561 38 28.1491 38C28.1421 38 28.1351 38 28.1281 38C28.1211 38 28.1141 38 28.1071 38C28.1001 38 28.0931 38 28.0861 38C28.0791 38 28.0721 38 28.065 38C28.058 38 28.051 38 28.044 38C28.0369 38 28.0299 38 28.0229 38C28.0159 38 28.0088 38 28.0018 38C27.9948 38 27.9877 38 27.9807 38C27.9736 38 27.9666 38 27.9595 38C27.9525 38 27.9454 38 27.9384 38C27.9313 38 27.9243 38 27.9172 38C27.9102 38 27.9031 38 27.8961 38C27.889 38 27.8819 38 27.8749 38C27.8678 38 27.8607 38 27.8536 38C27.8466 38 27.8395 38 27.8324 38C27.8253 38 27.8182 38 27.8112 38C27.8041 38 27.797 38 27.7899 38C27.7828 38 27.7757 38 27.7686 38C27.7615 38 27.7544 38 27.7473 38C27.7402 38 27.7331 38 27.726 38C27.7189 38 27.7118 38 27.7046 38C27.6975 38 27.6904 38 27.6833 38C27.6762 38 27.669 38 27.6619 38C27.6548 38 27.6477 38 27.6405 38C27.6334 38 27.6263 38 27.6191 38C27.612 38 27.6048 38 27.5977 38C27.5905 38 27.5834 38 27.5762 38C27.5691 38 27.5619 38 27.5548 38C27.5476 38 27.5404 38 27.5333 38C27.5261 38 27.519 38 27.5118 38C27.5046 38 27.4974 38 27.4903 38C27.4831 38 27.4759 38 27.4687 38C27.4615 38 27.4543 38 27.4472 38C27.44 38 27.4328 38 27.4256 38C27.4184 38 27.4112 38 27.404 38C27.3968 38 27.3896 38 27.3824 38C27.3751 38 27.3679 38 27.3607 38C27.3535 38 27.3463 38 27.3391 38C27.3318 38 27.3246 38 27.3174 38C27.3101 38 27.3029 38 27.2957 38C27.2884 38 27.2812 38 27.2739 38C27.2667 38 27.2595 38 27.2522 38C27.245 38 27.2377 38 27.2304 38C27.2232 38 27.2159 38 27.2087 38C27.2014 38 27.1941 38 27.1869 38C27.1796 38 27.1723 38 27.165 38C27.1578 38 27.1505 38 27.1432 38C27.1359 38 27.1286 38 27.1213 38C27.114 38 27.1067 38 27.0994 38C27.0921 38 27.0848 38 27.0775 38C27.0702 38 27.0629 38 27.0556 38C27.0483 38 27.041 38 27.0336 38C27.0263 38 27.019 38 27.0117 38C27.0043 38 26.997 38 26.9897 38C26.9823 38 26.975 38 26.9677 38C26.9603 38 26.953 38 26.9456 38C26.9383 38 26.9309 38 26.9236 38C26.9162 38 26.9088 38 26.9015 38C26.8941 38 26.8867 38 26.8794 38C26.872 38 26.8646 38 26.8572 38C26.8499 38 26.8425 38 26.8351 38C26.8277 38 26.8203 38 26.8129 38C26.8055 38 26.7981 38 26.7907 38C26.7833 38 26.7759 38 26.7685 38C26.7611 38 26.7537 38 26.7462 38C26.7388 38 26.7314 38 26.724 38C26.7166 38 26.7091 38 26.7017 38C26.6943 38 26.6868 38 26.6794 38C26.6719 38 26.6645 38 26.657 38C26.6496 38 26.6421 38 26.6347 38C26.6272 38 26.6198 38 26.6123 38C26.6048 38 26.5974 38 26.5899 38C26.5824 38 26.5749 38 26.5674 38C26.56 38 26.5525 38 26.545 38C26.5375 38 26.53 38 26.5225 38C26.515 38 26.5075 38 26.5 38V40Z" fill="#171717"/>
</svg>
