<svg width="64" height="64" viewBox="0 0 64 64" fill="none" xmlns="http://www.w3.org/2000/svg">
<circle cx="32" cy="32" r="32" fill="#FFE603"/>
<path d="M24.638 40.673L24.184 41.564L24.638 40.673ZM23.327 39.362L22.436 39.816L23.327 39.362ZM40.673 39.362L41.564 39.816L40.673 39.362ZM39.362 40.673L39.816 41.564L39.362 40.673ZM39.362 23.327L39.816 22.436L39.362 23.327ZM40.673 24.638L41.564 24.184L40.673 24.638ZM24.638 23.327L24.184 22.436L24.638 23.327ZM23.327 24.638L22.436 24.184L23.327 24.638ZM33.7929 34.2929C33.4024 34.6834 33.4024 35.3166 33.7929 35.7071C34.1834 36.0976 34.8166 36.0976 35.2071 35.7071L33.7929 34.2929ZM37.5 32L38.2071 32.7071C38.5976 32.3166 38.5976 31.6834 38.2071 31.2929L37.5 32ZM35.2071 28.2929C34.8166 27.9024 34.1834 27.9024 33.7929 28.2929C33.4024 28.6834 33.4024 29.3166 33.7929 29.7071L35.2071 28.2929ZM30.2071 29.7071C30.5976 29.3166 30.5976 28.6834 30.2071 28.2929C29.8166 27.9024 29.1834 27.9024 28.7929 28.2929L30.2071 29.7071ZM26.5 32L25.7929 31.2929C25.4024 31.6834 25.4024 32.3166 25.7929 32.7071L26.5 32ZM28.7929 35.7071C29.1834 36.0976 29.8166 36.0976 30.2071 35.7071C30.5976 35.3166 30.5976 34.6834 30.2071 34.2929L28.7929 35.7071ZM27.8 24H36.2V22H27.8V24ZM40 27.8V36.2H42V27.8H40ZM36.2 40H27.8V42H36.2V40ZM24 36.2V27.8H22V36.2H24ZM27.8 40C26.9434 40 26.3611 39.9992 25.911 39.9624C25.4726 39.9266 25.2484 39.8617 25.092 39.782L24.184 41.564C24.6694 41.8113 25.1861 41.9099 25.7482 41.9558C26.2986 42.0008 26.9764 42 27.8 42V40ZM22 36.2C22 37.0236 21.9992 37.7014 22.0442 38.2518C22.0901 38.8139 22.1887 39.3306 22.436 39.816L24.218 38.908C24.1383 38.7516 24.0734 38.5274 24.0376 38.089C24.0008 37.6389 24 37.0566 24 36.2H22ZM25.092 39.782C24.7157 39.5903 24.4097 39.2843 24.218 38.908L22.436 39.816C22.8195 40.5686 23.4314 41.1805 24.184 41.564L25.092 39.782ZM40 36.2C40 37.0566 39.9992 37.6389 39.9624 38.089C39.9266 38.5274 39.8617 38.7516 39.782 38.908L41.564 39.816C41.8113 39.3306 41.9099 38.8139 41.9558 38.2518C42.0008 37.7014 42 37.0236 42 36.2H40ZM36.2 42C37.0236 42 37.7014 42.0008 38.2518 41.9558C38.8139 41.9099 39.3306 41.8113 39.816 41.564L38.908 39.782C38.7516 39.8617 38.5274 39.9266 38.089 39.9624C37.6389 39.9992 37.0566 40 36.2 40V42ZM39.782 38.908C39.5903 39.2843 39.2843 39.5903 38.908 39.782L39.816 41.564C40.5686 41.1805 41.1805 40.5686 41.564 39.816L39.782 38.908ZM36.2 24C37.0566 24 37.6389 24.0008 38.089 24.0376C38.5274 24.0734 38.7516 24.1383 38.908 24.218L39.816 22.436C39.3306 22.1887 38.8139 22.0901 38.2518 22.0442C37.7014 21.9992 37.0236 22 36.2 22V24ZM42 27.8C42 26.9764 42.0008 26.2986 41.9558 25.7482C41.9099 25.1861 41.8113 24.6694 41.564 24.184L39.782 25.092C39.8617 25.2484 39.9266 25.4726 39.9624 25.911C39.9992 26.3611 40 26.9434 40 27.8H42ZM38.908 24.218C39.2843 24.4097 39.5903 24.7157 39.782 25.092L41.564 24.184C41.1805 23.4314 40.5686 22.8195 39.816 22.436L38.908 24.218ZM27.8 22C26.9764 22 26.2986 21.9992 25.7482 22.0442C25.1861 22.0901 24.6694 22.1887 24.184 22.436L25.092 24.218C25.2484 24.1383 25.4726 24.0734 25.911 24.0376C26.3611 24.0008 26.9434 24 27.8 24V22ZM24 27.8C24 26.9434 24.0008 26.3611 24.0376 25.911C24.0734 25.4726 24.1383 25.2484 24.218 25.092L22.436 24.184C22.1887 24.6694 22.0901 25.1861 22.0442 25.7482C21.9992 26.2986 22 26.9764 22 27.8H24ZM24.184 22.436C23.4314 22.8195 22.8195 23.4314 22.436 24.184L24.218 25.092C24.4097 24.7157 24.7157 24.4097 25.092 24.218L24.184 22.436ZM35.2071 35.7071L38.2071 32.7071L36.7929 31.2929L33.7929 34.2929L35.2071 35.7071ZM38.2071 31.2929L35.2071 28.2929L33.7929 29.7071L36.7929 32.7071L38.2071 31.2929ZM28.7929 28.2929L25.7929 31.2929L27.2071 32.7071L30.2071 29.7071L28.7929 28.2929ZM25.7929 32.7071L28.7929 35.7071L30.2071 34.2929L27.2071 31.2929L25.7929 32.7071Z" fill="#171717"/>
</svg>
