<svg width="64" height="64" viewBox="0 0 64 64" fill="none" xmlns="http://www.w3.org/2000/svg">
<circle cx="32" cy="32" r="32" fill="#FFE603"/>
<path d="M33 33.9995L33.7995 34.6002C33.9296 34.427 34 34.2162 34 33.9995H33ZM32.5541 39.2901L33.1994 40.0541C33.5557 39.7531 33.6566 39.2459 33.4427 38.8315L32.5541 39.2901ZM23 34C23 33.4477 22.5523 33 22 33C21.4477 33 21 33.4477 21 34H23ZM33.0699 35.6578C33.5095 35.3235 33.5949 34.6961 33.2606 34.2565C32.9264 33.8169 32.299 33.7315 31.8594 34.0658L33.0699 35.6578ZM34 29.5C34 28.9477 33.5523 28.5 33 28.5C32.4477 28.5 32 28.9477 32 29.5H34ZM23 29.5C23 28.9477 22.5523 28.5 22 28.5C21.4477 28.5 21 28.9477 21 29.5H23ZM41 37C41 39.2091 39.2091 41 37 41V43C40.3137 43 43 40.3137 43 37H41ZM37 41C34.7909 41 33 39.2091 33 37H31C31 40.3137 33.6863 43 37 43V41ZM33 37C33 34.7909 34.7909 33 37 33V31C33.6863 31 31 33.6863 31 37H33ZM37 33C39.2091 33 41 34.7909 41 37H43C43 33.6863 40.3137 31 37 31V33ZM32 25C32 24.875 32.0728 24.8853 31.9159 25.0202C31.7622 25.1523 31.4813 25.3166 31.0473 25.4744C30.1876 25.7871 28.9335 26 27.5 26V28C29.104 28 30.6 27.7652 31.7308 27.354C32.2921 27.1499 32.8167 26.8832 33.2197 26.5368C33.6194 26.1931 34 25.6772 34 25H32ZM27.5 26C26.0665 26 24.8124 25.7871 23.9527 25.4744C23.5187 25.3166 23.2378 25.1523 23.0841 25.0202C22.9272 24.8853 23 24.875 23 25H21C21 25.6772 21.3806 26.1931 21.7803 26.5368C22.1833 26.8832 22.7079 27.1499 23.2692 27.354C24.4 27.7652 25.896 28 27.5 28V26ZM23 25C23 25.125 22.9272 25.1147 23.0841 24.9798C23.2378 24.8477 23.5187 24.6834 23.9527 24.5256C24.8124 24.2129 26.0665 24 27.5 24V22C25.896 22 24.4 22.2348 23.2692 22.646C22.7079 22.8501 22.1833 23.1168 21.7803 23.4632C21.3806 23.8069 21 24.3228 21 25H23ZM27.5 24C28.9335 24 30.1876 24.2129 31.0473 24.5256C31.4813 24.6834 31.7622 24.8477 31.9159 24.9798C32.0728 25.1147 32 25.125 32 25H34C34 24.3228 33.6194 23.8069 33.2197 23.4632C32.8167 23.1168 32.2921 22.8501 31.7308 22.646C30.6 22.2348 29.104 22 27.5 22V24ZM34 33.9995V25H32V33.9995H34ZM32.2005 33.3988C31.4469 34.4018 31 35.6502 31 37H33C33 36.0982 33.2972 35.2687 33.7995 34.6002L32.2005 33.3988ZM31 37C31 37.9886 31.2399 38.9242 31.6655 39.7488L33.4427 38.8315C33.1601 38.2838 33 37.6621 33 37H31ZM27.5 41.5C28.7022 41.5 29.8356 41.3682 30.7979 41.1334C31.7352 40.9047 32.6062 40.5552 33.1994 40.0541L31.9088 38.5262C31.6596 38.7367 31.1365 38.9921 30.3238 39.1904C29.5361 39.3826 28.5637 39.5 27.5 39.5V41.5ZM21 38.5C21 39.1772 21.3806 39.6931 21.7803 40.0368C22.1833 40.3832 22.7079 40.6499 23.2692 40.854C24.4 41.2652 25.896 41.5 27.5 41.5V39.5C26.0665 39.5 24.8124 39.2871 23.9527 38.9744C23.5187 38.8166 23.2378 38.6523 23.0841 38.5202C22.9272 38.3853 23 38.375 23 38.5H21ZM21 25V38.5H23V25H21ZM27.5 35C26.0665 35 24.8124 34.7871 23.9527 34.4744C23.5187 34.3166 23.2378 34.1523 23.0841 34.0202C22.9272 33.8853 23 33.875 23 34H21C21 34.6772 21.3806 35.1931 21.7803 35.5368C22.1833 35.8832 22.7079 36.1499 23.2692 36.354C24.4 36.7652 25.896 37 27.5 37V35ZM31.8594 34.0658C31.5761 34.2812 31.0366 34.5241 30.2435 34.7096C29.4699 34.8905 28.5273 35 27.5 35V37C28.6617 37 29.7588 36.877 30.6989 36.6571C31.6195 36.4418 32.4679 36.1156 33.0699 35.6578L31.8594 34.0658ZM32 29.5C32 29.375 32.0728 29.3853 31.9159 29.5202C31.7622 29.6523 31.4813 29.8166 31.0473 29.9744C30.1876 30.2871 28.9335 30.5 27.5 30.5V32.5C29.104 32.5 30.6 32.2652 31.7308 31.854C32.2921 31.6499 32.8167 31.3832 33.2197 31.0368C33.6194 30.6931 34 30.1772 34 29.5H32ZM27.5 30.5C26.0665 30.5 24.8124 30.2871 23.9527 29.9744C23.5187 29.8166 23.2378 29.6523 23.0841 29.5202C22.9272 29.3853 23 29.375 23 29.5H21C21 30.1772 21.3806 30.6931 21.7803 31.0368C22.1833 31.3832 22.7079 31.6499 23.2692 31.854C24.4 32.2652 25.896 32.5 27.5 32.5V30.5Z" fill="#171717"/>
</svg>
