<svg width="64" height="64" viewBox="0 0 64 64" fill="none" xmlns="http://www.w3.org/2000/svg">
<circle cx="32" cy="32" r="32" fill="#FFE603"/>
<path d="M42 32C42 31.4477 41.5523 31 41 31C40.4477 31 40 31.4477 40 32H42ZM24 32C24 31.4477 23.5523 31 23 31C22.4477 31 22 31.4477 22 32H24ZM40 25C40 25.0007 40.0001 25.0049 39.9969 25.0153C39.9935 25.0264 39.9852 25.0485 39.9649 25.0814C39.9225 25.1506 39.8359 25.2545 39.6738 25.3823C39.3436 25.6425 38.8038 25.9206 38.0477 26.1726C36.546 26.6732 34.4077 27 32 27V29C34.5629 29 36.9246 28.6552 38.6802 28.07C39.5528 27.7791 40.331 27.4108 40.9117 26.9531C41.4811 26.5044 42 25.8519 42 25H40ZM32 27C29.5923 27 27.454 26.6732 25.9523 26.1726C25.1962 25.9206 24.6564 25.6425 24.3262 25.3823C24.1641 25.2545 24.0775 25.1506 24.0351 25.0814C24.0148 25.0485 24.0064 25.0264 24.0031 25.0153C23.9999 25.0049 24 25.0007 24 25H22C22 25.8519 22.5189 26.5044 23.0883 26.9531C23.669 27.4108 24.4472 27.7791 25.3198 28.07C27.0754 28.6552 29.4371 29 32 29V27ZM24 25C24 24.9993 23.9999 24.9951 24.0031 24.9847C24.0064 24.9736 24.0148 24.9515 24.0351 24.9186C24.0775 24.8494 24.1641 24.7455 24.3262 24.6177C24.6564 24.3575 25.1962 24.0794 25.9523 23.8274C27.454 23.3268 29.5923 23 32 23V21C29.4371 21 27.0754 21.3448 25.3198 21.93C24.4472 22.2209 23.669 22.5892 23.0883 23.0469C22.5189 23.4956 22 24.1481 22 25H24ZM32 23C34.4077 23 36.546 23.3268 38.0477 23.8274C38.8038 24.0794 39.3436 24.3575 39.6738 24.6177C39.8359 24.7455 39.9225 24.8494 39.9649 24.9186C39.9852 24.9515 39.9935 24.9736 39.9969 24.9847C40.0001 24.9951 40 24.9993 40 25H42C42 24.1481 41.4811 23.4956 40.9117 23.0469C40.331 22.5892 39.5528 22.2209 38.6802 21.93C36.9246 21.3448 34.5629 21 32 21V23ZM40 32C40 32.0019 39.9999 32.007 39.9966 32.018C39.993 32.0298 39.9846 32.0521 39.9644 32.0851C39.9223 32.1543 39.8365 32.258 39.6758 32.3853C39.3484 32.6447 38.8121 32.9223 38.0583 33.174C36.5611 33.6738 34.4232 34 32 34V36C34.5768 36 36.9389 35.6562 38.6917 35.071C39.5629 34.7802 40.3391 34.4115 40.9179 33.9528C41.4868 33.502 42 32.8494 42 32H40ZM32 34C29.5768 34 27.4389 33.6738 25.9417 33.174C25.1879 32.9223 24.6516 32.6447 24.3242 32.3853C24.1635 32.258 24.0777 32.1543 24.0356 32.0851C24.0154 32.0521 24.0069 32.0298 24.0034 32.018C24.0001 32.007 24 32.0019 24 32H22C22 32.8494 22.5132 33.502 23.0821 33.9528C23.6609 34.4115 24.4371 34.7802 25.3083 35.071C27.0611 35.6562 29.4232 36 32 36V34ZM22 25V39H24V25H22ZM22 39C22 39.8494 22.5132 40.502 23.0821 40.9528C23.6609 41.4115 24.4371 41.7802 25.3083 42.071C27.0611 42.6562 29.4232 43 32 43V41C29.5768 41 27.4389 40.6738 25.9417 40.174C25.1879 39.9223 24.6516 39.6447 24.3242 39.3853C24.1635 39.258 24.0777 39.1543 24.0356 39.0851C24.0154 39.0521 24.0069 39.0298 24.0034 39.018C24.0001 39.007 24 39.0019 24 39H22ZM32 43C34.5768 43 36.9389 42.6562 38.6917 42.071C39.5629 41.7802 40.3391 41.4115 40.9179 40.9528C41.4868 40.502 42 39.8494 42 39H40C40 39.0019 39.9999 39.007 39.9966 39.018C39.993 39.0298 39.9846 39.0521 39.9644 39.0851C39.9223 39.1543 39.8365 39.258 39.6758 39.3853C39.3484 39.6447 38.8121 39.9223 38.0583 40.174C36.5611 40.6738 34.4232 41 32 41V43ZM42 39V25H40V39H42Z" fill="#171717"/>
</svg>
