<svg width="64" height="64" viewBox="0 0 64 64" fill="none" xmlns="http://www.w3.org/2000/svg">
<circle cx="32" cy="32" r="32" fill="#FFE603"/>
<path d="M30.9277 34.72C31.1277 35.7733 31.741 36.3 32.7677 36.3C33.4743 36.3 33.9743 35.9867 34.2677 35.36C34.561 34.7333 34.7077 33.7133 34.7077 32.3C34.4143 32.7133 34.0143 33.0333 33.5077 33.26C33.001 33.4867 32.4343 33.6 31.8077 33.6C30.9543 33.6 30.1943 33.4267 29.5277 33.08C28.861 32.72 28.3343 32.1933 27.9477 31.5C27.5743 30.7933 27.3877 29.94 27.3877 28.94C27.3877 27.9533 27.5877 27.0933 27.9877 26.36C28.401 25.6267 28.981 25.06 29.7277 24.66C30.4877 24.26 31.381 24.06 32.4077 24.06C34.381 24.06 35.761 24.6733 36.5477 25.9C37.3343 27.1267 37.7277 28.9333 37.7277 31.32C37.7277 33.0533 37.5677 34.4867 37.2477 35.62C36.941 36.74 36.4143 37.5933 35.6677 38.18C34.9343 38.7667 33.9277 39.06 32.6477 39.06C31.6343 39.06 30.7677 38.86 30.0477 38.46C29.341 38.06 28.7943 37.5333 28.4077 36.88C28.0343 36.2267 27.821 35.5067 27.7677 34.72H30.9277ZM32.5877 30.9C33.1477 30.9 33.5943 30.7333 33.9277 30.4C34.261 30.0533 34.4277 29.5867 34.4277 29C34.4277 28.36 34.2543 27.8667 33.9077 27.52C33.561 27.1733 33.0943 27 32.5077 27C31.921 27 31.4543 27.18 31.1077 27.54C30.7743 27.8867 30.6077 28.3667 30.6077 28.98C30.6077 29.5533 30.7743 30.02 31.1077 30.38C31.4543 30.7267 31.9477 30.9 32.5877 30.9Z" fill="#171717"/>
</svg>
