<svg width="64" height="64" viewBox="0 0 64 64" fill="none" xmlns="http://www.w3.org/2000/svg">
<circle cx="32" cy="32" r="32" fill="#FFE603"/>
<path d="M29.3156 31.16C28.0623 30.4933 27.4356 29.4467 27.4356 28.02C27.4356 27.3 27.6223 26.6467 27.9956 26.06C28.369 25.46 28.9356 24.9867 29.6956 24.64C30.4556 24.28 31.389 24.1 32.4956 24.1C33.6023 24.1 34.529 24.28 35.2756 24.64C36.0356 24.9867 36.6023 25.46 36.9756 26.06C37.349 26.6467 37.5356 27.3 37.5356 28.02C37.5356 28.74 37.3623 29.3667 37.0156 29.9C36.6823 30.4333 36.229 30.8533 35.6556 31.16C36.3756 31.5067 36.929 31.9867 37.3156 32.6C37.7023 33.2 37.8956 33.9067 37.8956 34.72C37.8956 35.6667 37.6556 36.4867 37.1756 37.18C36.6956 37.86 36.0423 38.38 35.2156 38.74C34.4023 39.1 33.4956 39.28 32.4956 39.28C31.4956 39.28 30.5823 39.1 29.7556 38.74C28.9423 38.38 28.2956 37.86 27.8156 37.18C27.3356 36.4867 27.0956 35.6667 27.0956 34.72C27.0956 33.8933 27.289 33.18 27.6756 32.58C28.0623 31.9667 28.609 31.4933 29.3156 31.16ZM34.2156 28.54C34.2156 27.9933 34.0556 27.5733 33.7356 27.28C33.429 26.9733 33.0156 26.82 32.4956 26.82C31.9756 26.82 31.5556 26.9733 31.2356 27.28C30.929 27.5867 30.7756 28.0133 30.7756 28.56C30.7756 29.08 30.9356 29.4933 31.2556 29.8C31.5756 30.0933 31.989 30.24 32.4956 30.24C33.0023 30.24 33.4156 30.0867 33.7356 29.78C34.0556 29.4733 34.2156 29.06 34.2156 28.54ZM32.4956 32.64C31.869 32.64 31.3623 32.8133 30.9756 33.16C30.589 33.4933 30.3956 33.96 30.3956 34.56C30.3956 35.12 30.5823 35.58 30.9556 35.94C31.3423 36.3 31.8556 36.48 32.4956 36.48C33.1356 36.48 33.6356 36.3 33.9956 35.94C34.369 35.58 34.5556 35.12 34.5556 34.56C34.5556 33.9733 34.3623 33.5067 33.9756 33.16C33.6023 32.8133 33.109 32.64 32.4956 32.64Z" fill="#171717"/>
</svg>
