<svg width="64" height="64" viewBox="0 0 64 64" fill="none" xmlns="http://www.w3.org/2000/svg">
<circle cx="32" cy="32" r="32" fill="#FFEB33"/>
<path d="M22.7568 27.58V24.4H28.2968V39H24.7368V27.58H22.7568ZM30.6363 31.5C30.6363 29.2067 31.0763 27.4 31.9563 26.08C32.8497 24.76 34.283 24.1 36.2563 24.1C38.2297 24.1 39.6563 24.76 40.5363 26.08C41.4297 27.4 41.8763 29.2067 41.8763 31.5C41.8763 33.82 41.4297 35.64 40.5363 36.96C39.6563 38.28 38.2297 38.94 36.2563 38.94C34.283 38.94 32.8497 38.28 31.9563 36.96C31.0763 35.64 30.6363 33.82 30.6363 31.5ZM38.5163 31.5C38.5163 30.1533 38.3697 29.12 38.0763 28.4C37.783 27.6667 37.1763 27.3 36.2563 27.3C35.3363 27.3 34.7297 27.6667 34.4363 28.4C34.143 29.12 33.9963 30.1533 33.9963 31.5C33.9963 32.4067 34.0497 33.16 34.1563 33.76C34.263 34.3467 34.4763 34.8267 34.7963 35.2C35.1297 35.56 35.6163 35.74 36.2563 35.74C36.8963 35.74 37.3763 35.56 37.6963 35.2C38.0297 34.8267 38.2497 34.3467 38.3563 33.76C38.463 33.16 38.5163 32.4067 38.5163 31.5Z" fill="#171717"/>
</svg>
