<svg width="44" height="44" viewBox="0 0 44 44" fill="none" xmlns="http://www.w3.org/2000/svg">
<circle cx="22" cy="22" r="21.5" stroke="#CBCBCB"/>
<path d="M30.66 16.98C29.7874 15.4677 28.5315 14.2122 27.019 13.34C25.486 12.447 23.813 12 22 12C20.187 12 18.514 12.447 16.98 13.34C15.447 14.233 14.233 15.447 13.34 16.98C12.447 18.513 12 20.187 12 22C12 23.813 12.446 25.487 13.34 27.02C14.2123 28.5325 15.4683 29.7881 16.981 30.66C18.514 31.553 20.187 32 22 32C23.813 32 25.486 31.553 27.02 30.66C28.5325 29.7878 29.7884 28.5323 30.661 27.02C31.554 25.487 32 23.813 32 22C32 20.187 31.554 18.513 30.66 16.98ZM22 13.66C24 13.66 25.772 14.3 27.32 15.579C26.4 16.753 25.034 17.719 23.22 18.479C22.218 16.666 21.132 15.152 19.959 13.939C20.6238 13.7552 21.3103 13.6613 22 13.66ZM15.51 16.8C16.2412 15.8714 17.1665 15.1138 18.221 14.58C19.433 15.781 20.546 17.28 21.561 19.08C19.561 19.68 17.447 19.98 15.22 19.98C14.647 19.98 14.214 19.967 13.92 19.94C14.2265 18.7944 14.7679 17.7251 15.51 16.8ZM13.66 22C13.66 21.946 13.663 21.88 13.67 21.8C13.677 21.72 13.68 21.654 13.68 21.6C13.934 21.614 14.321 21.62 14.841 21.62C17.507 21.62 19.987 21.253 22.28 20.52C22.467 20.893 22.661 21.313 22.86 21.78C21.54 22.073 20.186 22.786 18.799 23.92C17.412 25.054 16.4 26.247 15.76 27.5C14.36 25.913 13.66 24.08 13.66 22ZM22 30.34C20.106 30.34 18.406 29.753 16.899 28.581C17.5 27.394 18.423 26.259 19.67 25.18C20.916 24.1 22.153 23.427 23.38 23.16C24.154 25.299 24.6775 27.5205 24.94 29.78C24.0029 30.1462 23.0061 30.336 22 30.34ZM29.08 26.38C28.4255 27.4345 27.5441 28.3299 26.5 29.001C26.26 26.921 25.8 24.894 25.121 22.92C26.053 22.854 26.886 22.82 27.621 22.82C28.42 22.82 29.307 22.854 30.28 22.92C30.1495 24.1498 29.739 25.3334 29.08 26.38ZM27.84 21.38C26.68 21.38 25.607 21.427 24.62 21.52C24.4109 20.9728 24.1841 20.4325 23.94 19.9C26.006 18.994 27.472 17.894 28.339 16.6C29.539 18.014 30.193 19.627 30.299 21.44C29.487 21.4 28.667 21.38 27.84 21.38Z" fill="#171717"/>
</svg>
