<svg width="52" height="52" viewBox="0 0 52 52" fill="none" xmlns="http://www.w3.org/2000/svg">
<rect width="52" height="52" rx="10" fill="#ECF8EF"/>
<path d="M28.54 21.8C28.3933 21.1867 28.1267 20.7267 27.74 20.42C27.3533 20.1133 26.8133 19.96 26.12 19.96C25.0667 19.96 24.28 20.3667 23.76 21.18C23.24 21.98 22.9667 23.3133 22.94 25.18C23.2867 24.5933 23.7933 24.14 24.46 23.82C25.1267 23.5 25.8467 23.34 26.62 23.34C27.5 23.34 28.2733 23.5333 28.94 23.92C29.62 24.2933 30.1467 24.84 30.52 25.56C30.9067 26.28 31.1 27.14 31.1 28.14C31.1 29.0733 30.9133 29.9067 30.54 30.64C30.18 31.3733 29.64 31.9533 28.92 32.38C28.2 32.7933 27.3333 33 26.32 33C24.9467 33 23.8667 32.7 23.08 32.1C22.3067 31.4867 21.76 30.6267 21.44 29.52C21.1333 28.4133 20.98 27.0333 20.98 25.38C20.98 20.5 22.7 18.06 26.14 18.06C27.4733 18.06 28.52 18.42 29.28 19.14C30.0533 19.86 30.5067 20.7467 30.64 21.8H28.54ZM26.12 25.26C25.3067 25.26 24.6133 25.5067 24.04 26C23.48 26.48 23.2 27.18 23.2 28.1C23.2 29.02 23.46 29.7533 23.98 30.3C24.5133 30.8333 25.2533 31.1 26.2 31.1C27.04 31.1 27.7 30.84 28.18 30.32C28.6733 29.8 28.92 29.1067 28.92 28.24C28.92 27.3333 28.68 26.6133 28.2 26.08C27.7333 25.5333 27.04 25.26 26.12 25.26Z" fill="#171717"/>
</svg>
