<svg width="52" height="52" viewBox="0 0 52 52" fill="none" xmlns="http://www.w3.org/2000/svg">
<rect width="52" height="52" rx="10" fill="#F5F5F5"/>
<path d="M30.1 20.38H23.4V24.36C23.68 23.9867 24.0933 23.6733 24.64 23.42C25.2 23.1667 25.7933 23.04 26.42 23.04C27.54 23.04 28.4467 23.28 29.14 23.76C29.8467 24.24 30.3467 24.8467 30.64 25.58C30.9467 26.3133 31.1 27.0867 31.1 27.9C31.1 28.8867 30.9067 29.7667 30.52 30.54C30.1467 31.3 29.58 31.9 28.82 32.34C28.0733 32.78 27.1533 33 26.06 33C24.6067 33 23.44 32.64 22.56 31.92C21.68 31.2 21.1533 30.2467 20.98 29.06H23.2C23.3467 29.6867 23.6733 30.1867 24.18 30.56C24.6867 30.92 25.32 31.1 26.08 31.1C27.0267 31.1 27.7333 30.8133 28.2 30.24C28.68 29.6667 28.92 28.9067 28.92 27.96C28.92 27 28.68 26.2667 28.2 25.76C27.72 25.24 27.0133 24.98 26.08 24.98C25.4267 24.98 24.8733 25.1467 24.42 25.48C23.98 25.8 23.66 26.24 23.46 26.8H21.3V18.38H30.1V20.38Z" fill="#171717"/>
</svg>
