<svg width="52" height="52" viewBox="0 0 52 52" fill="none" xmlns="http://www.w3.org/2000/svg">
<rect width="52" height="52" rx="10" fill="#EDFAFD"/>
<path d="M21.16 22.02C21.24 20.78 21.7133 19.8133 22.58 19.12C23.46 18.4267 24.58 18.08 25.94 18.08C26.8733 18.08 27.68 18.2467 28.36 18.58C29.04 18.9133 29.5533 19.3667 29.9 19.94C30.2467 20.5133 30.42 21.16 30.42 21.88C30.42 22.7067 30.2 23.4133 29.76 24C29.32 24.5867 28.7933 24.98 28.18 25.18V25.26C28.9667 25.5 29.58 25.94 30.02 26.58C30.46 27.2067 30.68 28.0133 30.68 29C30.68 29.7867 30.5 30.4867 30.14 31.1C29.78 31.7133 29.2467 32.2 28.54 32.56C27.8333 32.9067 26.9867 33.08 26 33.08C24.56 33.08 23.3733 32.7133 22.44 31.98C21.52 31.2333 21.0267 30.1667 20.96 28.78H23.16C23.2133 29.4867 23.4867 30.0667 23.98 30.52C24.4733 30.96 25.14 31.18 25.98 31.18C26.7933 31.18 27.42 30.96 27.86 30.52C28.3 30.0667 28.52 29.4867 28.52 28.78C28.52 27.8467 28.22 27.1867 27.62 26.8C27.0333 26.4 26.1267 26.2 24.9 26.2H24.38V24.32H24.92C26 24.3067 26.82 24.1267 27.38 23.78C27.9533 23.4333 28.24 22.8867 28.24 22.14C28.24 21.5 28.0333 20.9933 27.62 20.62C27.2067 20.2333 26.62 20.04 25.86 20.04C25.1133 20.04 24.5333 20.2333 24.12 20.62C23.7067 20.9933 23.46 21.46 23.38 22.02H21.16Z" fill="#171717"/>
</svg>
