<svg width="52" height="52" viewBox="0 0 52 52" fill="none" xmlns="http://www.w3.org/2000/svg">
<rect width="52" height="52" rx="10" fill="#F2ECFA"/>
<path d="M22.46 29.9C23.74 28.7933 24.7467 27.8867 25.48 27.18C26.2267 26.46 26.8467 25.7133 27.34 24.94C27.8333 24.1667 28.08 23.3933 28.08 22.62C28.08 21.82 27.8867 21.1933 27.5 20.74C27.1267 20.2867 26.5333 20.06 25.72 20.06C24.9333 20.06 24.32 20.3133 23.88 20.82C23.4533 21.3133 23.2267 21.98 23.2 22.82H21C21.04 21.3 21.4933 20.14 22.36 19.34C23.24 18.5267 24.3533 18.12 25.7 18.12C27.1533 18.12 28.2867 18.52 29.1 19.32C29.9267 20.12 30.34 21.1867 30.34 22.52C30.34 23.48 30.0933 24.4067 29.6 25.3C29.12 26.18 28.54 26.9733 27.86 27.68C27.1933 28.3733 26.34 29.18 25.3 30.1L24.4 30.9H30.74V32.8H21.02V31.14L22.46 29.9Z" fill="#171717"/>
</svg>
