<svg width="64" height="64" viewBox="0 0 64 64" fill="none" xmlns="http://www.w3.org/2000/svg">
<circle cx="32" cy="32" r="32" fill="#FFE603"/>
<path d="M22.5 41.5003L21.5061 41.3899C21.4726 41.6918 21.5781 41.9926 21.7929 42.2074C22.0077 42.4222 22.3085 42.5277 22.6104 42.4942L22.5 41.5003ZM27.7937 40.2066L27.0866 39.4995L27.7937 40.2066ZM27.1829 40.7597L27.7334 41.5945L27.1829 40.7597ZM25.8844 41.1243L25.9948 42.1181H25.9948L25.8844 41.1243ZM26.6978 40.9928L26.3899 40.0414L26.6978 40.9928ZM23.7937 36.2066L23.0866 35.4995L23.7937 36.2066ZM23.2406 36.8174L22.4058 36.2669L23.2406 36.8174ZM22.876 38.1159L23.8699 38.2264L22.876 38.1159ZM23.0075 37.3025L23.9589 37.6104L23.0075 37.3025ZM41 27.0003L41.7071 27.7074L41 27.0003ZM37 23.0003L37.7071 23.7074L37 23.0003ZM37.2929 30.7074C37.6834 31.0979 38.3166 31.0979 38.7071 30.7074C39.0977 30.3169 39.0977 29.6837 38.7071 29.2932L37.2929 30.7074ZM34.7071 25.2932C34.3166 24.9027 33.6834 24.9027 33.2929 25.2932C32.9024 25.6837 32.9024 26.3169 33.2929 26.7074L34.7071 25.2932ZM24.5008 36.9137L37.7071 23.7074L36.2929 22.2932L23.0866 35.4995L24.5008 36.9137ZM40.2929 26.2932L27.0866 39.4995L28.5008 40.9137L41.7071 27.7074L40.2929 26.2932ZM25.7739 40.1304L22.3896 40.5064L22.6104 42.4942L25.9948 42.1181L25.7739 40.1304ZM23.4939 41.6107L23.8699 38.2264L21.8822 38.0055L21.5061 41.3899L23.4939 41.6107ZM27.0866 39.4995C26.7641 39.822 26.6976 39.8818 26.6324 39.9248L27.7334 41.5945C28.0073 41.4139 28.235 41.1795 28.5008 40.9137L27.0866 39.4995ZM25.9948 42.1181C26.3685 42.0766 26.6937 42.0452 27.0058 41.9442L26.3899 40.0414C26.3156 40.0655 26.2272 40.08 25.7739 40.1304L25.9948 42.1181ZM26.6324 39.9248C26.5572 39.9744 26.4756 40.0136 26.3899 40.0414L27.0058 41.9442C27.263 41.8609 27.5077 41.7433 27.7334 41.5945L26.6324 39.9248ZM23.0866 35.4995C22.8208 35.7653 22.5865 35.993 22.4058 36.2669L24.0755 37.3679C24.1185 37.3027 24.1783 37.2362 24.5008 36.9137L23.0866 35.4995ZM23.8699 38.2264C23.9203 37.7731 23.9349 37.6847 23.9589 37.6104L22.0561 36.9945C21.9551 37.3067 21.9237 37.6318 21.8822 38.0055L23.8699 38.2264ZM22.4058 36.2669C22.257 36.4926 22.1394 36.7373 22.0561 36.9945L23.9589 37.6104C23.9867 37.5247 24.0259 37.4431 24.0755 37.3679L22.4058 36.2669ZM40.2929 23.7074C41.007 24.4215 41.007 25.5792 40.2929 26.2932L41.7071 27.7074C43.2022 26.2123 43.2022 23.7883 41.7071 22.2932L40.2929 23.7074ZM41.7071 22.2932C40.212 20.7981 37.788 20.7981 36.2929 22.2932L37.7071 23.7074C38.4212 22.9934 39.5789 22.9934 40.2929 23.7074L41.7071 22.2932ZM38.7071 29.2932L34.7071 25.2932L33.2929 26.7074L37.2929 30.7074L38.7071 29.2932Z" fill="#171717"/>
</svg>
