<svg width="64" height="64" viewBox="0 0 64 64" fill="none" xmlns="http://www.w3.org/2000/svg">
<circle cx="32" cy="32" r="32" fill="#FFE603"/>
<path d="M41 34C41 33.4477 40.5523 33 40 33C39.4477 33 39 33.4477 39 34H41ZM34 39C33.4477 39 33 39.4477 33 40C33 40.5523 33.4477 41 34 41V39ZM39.782 38.908L38.891 38.454V38.454L39.782 38.908ZM38.908 39.782L38.454 38.891H38.454L38.908 39.782ZM30 25C30.5523 25 31 24.5523 31 24C31 23.4477 30.5523 23 30 23V25ZM23 30C23 30.5523 23.4477 31 24 31C24.5523 31 25 30.5523 25 30H23ZM25.092 24.218L24.638 23.327L24.638 23.327L25.092 24.218ZM24.218 25.092L23.327 24.638L23.327 24.638L24.218 25.092ZM34.2929 28.2929C33.9024 28.6834 33.9024 29.3166 34.2929 29.7071C34.6834 30.0976 35.3166 30.0976 35.7071 29.7071L34.2929 28.2929ZM41 23H42C42 22.4477 41.5523 22 41 22V23ZM29.7071 35.7071C30.0976 35.3166 30.0976 34.6834 29.7071 34.2929C29.3166 33.9024 28.6834 33.9024 28.2929 34.2929L29.7071 35.7071ZM23 41H22C22 41.2652 22.1054 41.5196 22.2929 41.7071C22.4804 41.8946 22.7348 42 23 42V41ZM35 22C34.4477 22 34 22.4477 34 23C34 23.5523 34.4477 24 35 24V22ZM40 29C40 29.5523 40.4477 30 41 30C41.5523 30 42 29.5523 42 29H40ZM29 42C29.5523 42 30 41.5523 30 41C30 40.4477 29.5523 40 29 40V42ZM24 35C24 34.4477 23.5523 34 23 34C22.4477 34 22 34.4477 22 35H24ZM39 34V36.8H41V34H39ZM36.8 39H34V41H36.8V39ZM39 36.8C39 37.3766 38.9992 37.7488 38.9761 38.0322C38.9539 38.3038 38.9162 38.4045 38.891 38.454L40.673 39.362C40.8658 38.9836 40.9371 38.5904 40.9694 38.195C41.0008 37.8114 41 37.3436 41 36.8H39ZM36.8 41C37.3436 41 37.8114 41.0008 38.195 40.9694C38.5904 40.9371 38.9836 40.8658 39.362 40.673L38.454 38.891C38.4045 38.9162 38.3038 38.9539 38.0322 38.9761C37.7488 38.9992 37.3766 39 36.8 39V41ZM38.891 38.454C38.7951 38.6422 38.6422 38.7951 38.454 38.891L39.362 40.673C39.9265 40.3854 40.3854 39.9265 40.673 39.362L38.891 38.454ZM27.2 25H30V23H27.2V25ZM25 30V27.2H23V30H25ZM27.2 23C26.6564 23 26.1886 22.9992 25.805 23.0306C25.4096 23.0629 25.0164 23.1342 24.638 23.327L25.546 25.109C25.5955 25.0838 25.6962 25.0461 25.9678 25.0239C26.2512 25.0008 26.6234 25 27.2 25V23ZM25 27.2C25 26.6234 25.0008 26.2512 25.0239 25.9678C25.0461 25.6962 25.0838 25.5955 25.109 25.546L23.327 24.638C23.1342 25.0164 23.0629 25.4096 23.0306 25.805C22.9992 26.1886 23 26.6564 23 27.2H25ZM24.638 23.327C24.0735 23.6146 23.6146 24.0735 23.327 24.638L25.109 25.546C25.2049 25.3578 25.3578 25.2049 25.546 25.109L24.638 23.327ZM35.7071 29.7071L41.7071 23.7071L40.2929 22.2929L34.2929 28.2929L35.7071 29.7071ZM28.2929 34.2929L22.2929 40.2929L23.7071 41.7071L29.7071 35.7071L28.2929 34.2929ZM35 24H41V22H35V24ZM40 23V29H42V23H40ZM29 40H23V42H29V40ZM24 41L24 35H22L22 41H24Z" fill="#171717"/>
</svg>
