<svg width="64" height="64" viewBox="0 0 64 64" fill="none" xmlns="http://www.w3.org/2000/svg">
<circle cx="32" cy="32" r="32" fill="#FFE603"/>
<path d="M35.2929 27.2929C34.9024 27.6834 34.9024 28.3166 35.2929 28.7071C35.6834 29.0976 36.3166 29.0976 36.7071 28.7071L35.2929 27.2929ZM41 23H42C42 22.4477 41.5523 22 41 22V23ZM27.2929 28.7071C27.6834 29.0976 28.3166 29.0976 28.7071 28.7071C29.0976 28.3166 29.0976 27.6834 28.7071 27.2929L27.2929 28.7071ZM23 23L23 22C22.4477 22 22 22.4477 22 23L23 23ZM28.7071 36.7071C29.0976 36.3166 29.0976 35.6834 28.7071 35.2929C28.3166 34.9024 27.6834 34.9024 27.2929 35.2929L28.7071 36.7071ZM23 41H22C22 41.2652 22.1054 41.5196 22.2929 41.7071C22.4804 41.8946 22.7348 42 23 42V41ZM36.7071 35.2929C36.3166 34.9024 35.6834 34.9024 35.2929 35.2929C34.9024 35.6834 34.9024 36.3166 35.2929 36.7071L36.7071 35.2929ZM41 41V42C41.5523 42 42 41.5523 42 41H41ZM36 22C35.4477 22 35 22.4477 35 23C35 23.5523 35.4477 24 36 24V22ZM40 28C40 28.5523 40.4477 29 41 29C41.5523 29 42 28.5523 42 28H40ZM22 28C22 28.5523 22.4477 29 23 29C23.5523 29 24 28.5523 24 28H22ZM28 24C28.5523 24 29 23.5523 29 23C29 22.4477 28.5523 22 28 22V24ZM28 42C28.5523 42 29 41.5523 29 41C29 40.4477 28.5523 40 28 40V42ZM24 36C24 35.4477 23.5523 35 23 35C22.4477 35 22 35.4477 22 36H24ZM42 36C42 35.4477 41.5523 35 41 35C40.4477 35 40 35.4477 40 36H42ZM36 40C35.4477 40 35 40.4477 35 41C35 41.5523 35.4477 42 36 42V40ZM36.7071 28.7071L41.7071 23.7071L40.2929 22.2929L35.2929 27.2929L36.7071 28.7071ZM28.7071 27.2929L23.7071 22.2929L22.2929 23.7071L27.2929 28.7071L28.7071 27.2929ZM27.2929 35.2929L22.2929 40.2929L23.7071 41.7071L28.7071 36.7071L27.2929 35.2929ZM35.2929 36.7071L40.2929 41.7071L41.7071 40.2929L36.7071 35.2929L35.2929 36.7071ZM36 24H41V22H36V24ZM40 23V28H42V23H40ZM24 28L24 23L22 23L22 28H24ZM23 24L28 24V22L23 22L23 24ZM28 40H23V42H28V40ZM24 41L24 36H22L22 41H24ZM40 36V41H42V36H40ZM41 40H36V42H41V40Z" fill="#171717"/>
</svg>
