<svg width="64" height="64" viewBox="0 0 64 64" fill="none" xmlns="http://www.w3.org/2000/svg">
<circle cx="32" cy="32" r="32" fill="#FFE603"/>
<path d="M41.5807 31.2868L42.4262 30.7528L41.5807 31.2868ZM41.8231 31.7766L40.8484 32L41.8231 31.7766ZM41.5807 32.7132L40.7352 32.1792L41.5807 32.7132ZM41.8231 32.2234L40.8484 32L41.8231 32.2234ZM22.4201 31.2868L23.2656 31.8208L22.4201 31.2868ZM22.1777 31.7766L23.1524 32L22.1777 31.7766ZM22.4201 32.7132L21.5746 33.2472L22.4201 32.7132ZM22.1777 32.2234L23.1524 32L22.1777 32.2234ZM23.2656 31.8208C23.7983 30.9774 24.8524 29.5001 26.3587 28.2429C27.8626 26.9877 29.7571 26 32.0004 26V24C29.1387 24 26.8057 25.2647 25.0772 26.7074C23.3509 28.1482 22.1674 29.8143 21.5746 30.7528L23.2656 31.8208ZM32.0004 26C34.2437 26 36.1382 26.9877 37.6421 28.2429C39.1484 29.5001 40.2025 30.9774 40.7352 31.8208L42.4262 30.7528C41.8334 29.8143 40.6499 28.1482 38.9237 26.7074C37.1951 25.2647 34.8621 24 32.0004 24V26ZM40.7352 32.1792C40.2025 33.0226 39.1484 34.4999 37.6421 35.7571C36.1382 37.0123 34.2437 38 32.0004 38V40C34.8621 40 37.1951 38.7353 38.9237 37.2926C40.6499 35.8518 41.8334 34.1857 42.4262 33.2472L40.7352 32.1792ZM32.0004 38C29.7571 38 27.8626 37.0123 26.3587 35.7571C24.8524 34.4999 23.7983 33.0226 23.2656 32.1792L21.5746 33.2472C22.1674 34.1857 23.3509 35.8518 25.0772 37.2926C26.8057 38.7353 29.1387 40 32.0004 40V38ZM40.7352 31.8208C40.7705 31.8768 40.7952 31.916 40.8159 31.95C40.836 31.9831 40.846 32.0012 40.8513 32.0113C40.8557 32.0198 40.8548 32.019 40.8524 32.0124C40.8512 32.0094 40.8502 32.0063 40.8494 32.0035C40.8485 32.0008 40.8482 31.9995 40.8484 32L42.7978 31.5532C42.7152 31.1928 42.5462 30.9429 42.4262 30.7528L40.7352 31.8208ZM42.4262 33.2472C42.5462 33.0571 42.7152 32.8072 42.7978 32.4468L40.8484 32C40.8482 32.0005 40.8485 31.9992 40.8494 31.9964C40.8502 31.9937 40.8512 31.9906 40.8524 31.9876C40.8548 31.981 40.8557 31.9802 40.8513 31.9887C40.846 31.9988 40.836 32.0169 40.8159 32.05C40.7952 32.084 40.7705 32.1232 40.7352 32.1792L42.4262 33.2472ZM40.8484 32C40.8457 31.9882 40.8444 31.9805 40.8439 31.9774C40.8434 31.9742 40.8434 31.9734 40.8436 31.9753C40.8438 31.9771 40.844 31.9804 40.8442 31.985C40.8444 31.9895 40.8446 31.9946 40.8446 32C40.8446 32.0054 40.8444 32.0105 40.8442 32.015C40.844 32.0196 40.8438 32.0229 40.8436 32.0247C40.8434 32.0266 40.8434 32.0258 40.8439 32.0226C40.8444 32.0195 40.8457 32.0118 40.8484 32L42.7978 32.4468C42.8601 32.1749 42.8601 31.8251 42.7978 31.5532L40.8484 32ZM21.5746 30.7528C21.4546 30.9429 21.2856 31.1928 21.203 31.5532L23.1524 32C23.1526 31.9995 23.1523 32.0008 23.1515 32.0035C23.1506 32.0063 23.1496 32.0094 23.1485 32.0124C23.146 32.019 23.1451 32.0198 23.1495 32.0113C23.1548 32.0012 23.1648 31.9831 23.1849 31.95C23.2056 31.916 23.2303 31.8768 23.2656 31.8208L21.5746 30.7528ZM23.2656 32.1792C23.2303 32.1232 23.2056 32.084 23.1849 32.05C23.1648 32.0169 23.1548 31.9988 23.1495 31.9887C23.1451 31.9802 23.146 31.981 23.1485 31.9876C23.1496 31.9906 23.1506 31.9937 23.1515 31.9965C23.1523 31.9992 23.1526 32.0005 23.1524 32L21.203 32.4468C21.2856 32.8072 21.4546 33.0571 21.5746 33.2472L23.2656 32.1792ZM21.203 31.5532C21.1407 31.8251 21.1407 32.1749 21.203 32.4468L23.1524 32C23.1551 32.0118 23.1564 32.0195 23.1569 32.0226C23.1574 32.0258 23.1574 32.0266 23.1572 32.0247C23.157 32.0229 23.1568 32.0196 23.1566 32.015C23.1564 32.0105 23.1562 32.0054 23.1562 32C23.1562 31.9946 23.1564 31.9895 23.1566 31.985C23.1568 31.9804 23.157 31.9771 23.1572 31.9753C23.1574 31.9734 23.1574 31.9742 23.1569 31.9774C23.1564 31.9805 23.1551 31.9882 23.1524 32L21.203 31.5532ZM34.0004 32C34.0004 33.1046 33.105 34 32.0004 34V36C34.2095 36 36.0004 34.2091 36.0004 32H34.0004ZM32.0004 34C30.8958 34 30.0004 33.1046 30.0004 32H28.0004C28.0004 34.2091 29.7913 36 32.0004 36V34ZM30.0004 32C30.0004 30.8954 30.8958 30 32.0004 30V28C29.7913 28 28.0004 29.7909 28.0004 32H30.0004ZM32.0004 30C33.105 30 34.0004 30.8954 34.0004 32H36.0004C36.0004 29.7909 34.2095 28 32.0004 28V30Z" fill="#171717"/>
</svg>
