<svg width="64" height="64" viewBox="0 0 64 64" fill="none" xmlns="http://www.w3.org/2000/svg">
<circle cx="32" cy="32" r="32" fill="#FFE603"/>
<path d="M24.2782 37.3079C23.896 37.7065 23.9092 38.3395 24.3079 38.7218C24.7065 39.104 25.3395 39.0908 25.7218 38.6921L24.2782 37.3079ZM38.2782 38.6921C38.6605 39.0908 39.2935 39.104 39.6921 38.7218C40.0908 38.3395 40.104 37.7065 39.7218 37.3079L38.2782 38.6921ZM34.5 28.4412C34.5 29.7735 33.3968 30.8824 32 30.8824V32.8824C34.4692 32.8824 36.5 30.9099 36.5 28.4412H34.5ZM32 30.8824C30.6032 30.8824 29.5 29.7735 29.5 28.4412H27.5C27.5 30.9099 29.5308 32.8824 32 32.8824V30.8824ZM29.5 28.4412C29.5 27.1089 30.6032 26 32 26V24C29.5308 24 27.5 25.9725 27.5 28.4412H29.5ZM32 26C33.3968 26 34.5 27.1089 34.5 28.4412H36.5C36.5 25.9725 34.4692 24 32 24V26ZM25.7218 38.6921C27.3667 36.9768 29.5791 35.9412 32 35.9412V33.9412C28.9874 33.9412 26.2667 35.2342 24.2782 37.3079L25.7218 38.6921ZM32 35.9412C34.4209 35.9412 36.6333 36.9768 38.2782 38.6921L39.7218 37.3079C37.7333 35.2342 35.0126 33.9412 32 33.9412V35.9412Z" fill="#171717"/>
<path d="M22 27V24C22 22.8954 22.8954 22 24 22H27" stroke="#171717" stroke-width="2" stroke-linecap="round"/>
<path d="M42 27V24C42 22.8954 41.1046 22 40 22H37" stroke="#171717" stroke-width="2" stroke-linecap="round"/>
<path d="M42 37V40C42 41.1046 41.1046 42 40 42H37" stroke="#171717" stroke-width="2" stroke-linecap="round"/>
<path d="M22 37V40C22 41.1046 22.8954 42 24 42H27" stroke="#171717" stroke-width="2" stroke-linecap="round"/>
</svg>
