<svg width="64" height="64" viewBox="0 0 64 64" fill="none" xmlns="http://www.w3.org/2000/svg">
<circle cx="32" cy="32" r="32" fill="#FFE603"/>
<path d="M39 30.5C39 31.0523 39.4477 31.5 40 31.5C40.5523 31.5 41 31.0523 41 30.5H39ZM31.5 43C32.0523 43 32.5 42.5523 32.5 42C32.5 41.4477 32.0523 41 31.5 41V43ZM24.327 40.362L25.218 39.908L25.218 39.908L24.327 40.362ZM25.638 41.673L25.184 42.564H25.184L25.638 41.673ZM38.362 22.327L38.816 21.436V21.436L38.362 22.327ZM39.673 23.638L38.782 24.092V24.092L39.673 23.638ZM25.638 22.327L26.092 23.218L25.638 22.327ZM24.327 23.638L25.218 24.092L24.327 23.638ZM41.2929 42.7071C41.6834 43.0976 42.3166 43.0976 42.7071 42.7071C43.0976 42.3166 43.0976 41.6834 42.7071 41.2929L41.2929 42.7071ZM41.2071 39.7929C40.8166 39.4024 40.1834 39.4024 39.7929 39.7929C39.4024 40.1834 39.4024 40.8166 39.7929 41.2071L41.2071 39.7929ZM28.8 23H35.2V21H28.8V23ZM25 37.2V26.8H23V37.2H25ZM39 26.8V30.5H41V26.8H39ZM31.5 41H28.8V43H31.5V41ZM23 37.2C23 38.0236 22.9992 38.7014 23.0442 39.2518C23.0901 39.8139 23.1887 40.3306 23.436 40.816L25.218 39.908C25.1383 39.7516 25.0734 39.5274 25.0376 39.089C25.0008 38.6389 25 38.0566 25 37.2H23ZM28.8 41C27.9434 41 27.3611 40.9992 26.911 40.9624C26.4726 40.9266 26.2484 40.8617 26.092 40.782L25.184 42.564C25.6694 42.8113 26.1861 42.9099 26.7482 42.9558C27.2986 43.0008 27.9764 43 28.8 43V41ZM23.436 40.816C23.8195 41.5686 24.4314 42.1805 25.184 42.564L26.092 40.782C25.7157 40.5903 25.4097 40.2843 25.218 39.908L23.436 40.816ZM35.2 23C36.0566 23 36.6389 23.0008 37.089 23.0376C37.5274 23.0734 37.7516 23.1383 37.908 23.218L38.816 21.436C38.3306 21.1887 37.8139 21.0901 37.2518 21.0442C36.7014 20.9992 36.0236 21 35.2 21V23ZM41 26.8C41 25.9764 41.0008 25.2986 40.9558 24.7482C40.9099 24.1861 40.8113 23.6694 40.564 23.184L38.782 24.092C38.8617 24.2484 38.9266 24.4726 38.9624 24.911C38.9992 25.3611 39 25.9434 39 26.8H41ZM37.908 23.218C38.2843 23.4097 38.5903 23.7157 38.782 24.092L40.564 23.184C40.1805 22.4314 39.5686 21.8195 38.816 21.436L37.908 23.218ZM28.8 21C27.9764 21 27.2986 20.9992 26.7482 21.0442C26.1861 21.0901 25.6694 21.1887 25.184 21.436L26.092 23.218C26.2484 23.1383 26.4726 23.0734 26.911 23.0376C27.3611 23.0008 27.9434 23 28.8 23V21ZM25 26.8C25 25.9434 25.0008 25.3611 25.0376 24.911C25.0734 24.4726 25.1383 24.2484 25.218 24.092L23.436 23.184C23.1887 23.6694 23.0901 24.1861 23.0442 24.7482C22.9992 25.2986 23 25.9764 23 26.8H25ZM25.184 21.436C24.4314 21.8195 23.8195 22.4314 23.436 23.184L25.218 24.092C25.4097 23.7157 25.7157 23.4097 26.092 23.218L25.184 21.436ZM40.5 38C40.5 39.3807 39.3807 40.5 38 40.5V42.5C40.4853 42.5 42.5 40.4853 42.5 38H40.5ZM38 40.5C36.6193 40.5 35.5 39.3807 35.5 38H33.5C33.5 40.4853 35.5147 42.5 38 42.5V40.5ZM35.5 38C35.5 36.6193 36.6193 35.5 38 35.5V33.5C35.5147 33.5 33.5 35.5147 33.5 38H35.5ZM38 35.5C39.3807 35.5 40.5 36.6193 40.5 38H42.5C42.5 35.5147 40.4853 33.5 38 33.5V35.5ZM42.7071 41.2929L41.2071 39.7929L39.7929 41.2071L41.2929 42.7071L42.7071 41.2929Z" fill="#171717"/>
</svg>
