<svg width="64" height="64" viewBox="0 0 64 64" fill="none" xmlns="http://www.w3.org/2000/svg">
<circle cx="32" cy="32" r="32" fill="#FFE603"/>
<path d="M34 32C34.5523 32 35 31.5523 35 31C35 30.4477 34.5523 30 34 30V32ZM28 30C27.4477 30 27 30.4477 27 31C27 31.5523 27.4477 32 28 32V30ZM30 36C30.5523 36 31 35.5523 31 35C31 34.4477 30.5523 34 30 34V36ZM28 34C27.4477 34 27 34.4477 27 35C27 35.5523 27.4477 36 28 36V34ZM36 28C36.5523 28 37 27.5523 37 27C37 26.4477 36.5523 26 36 26V28ZM28 26C27.4477 26 27 26.4477 27 27C27 27.5523 27.4477 28 28 28V26ZM38 41L37.5697 41.9027C37.8419 42.0324 38.1581 42.0324 38.4303 41.9027L38 41ZM41 34.9229H42C42 34.5003 41.7344 34.1234 41.3365 33.9812L41 34.9229ZM38.8124 34.1412L38.4752 35.0826L38.4759 35.0829L38.8124 34.1412ZM37.1864 34.1412L37.5231 35.0828L37.5236 35.0826L37.1864 34.1412ZM35 34.9229L34.6633 33.9813C34.2655 34.1235 34 34.5004 34 34.9229H35ZM39 30C39 30.5523 39.4477 31 40 31C40.5523 31 41 30.5523 41 30H39ZM32.5 43C33.0523 43 33.5 42.5523 33.5 42C33.5 41.4477 33.0523 41 32.5 41V43ZM24.327 40.362L25.218 39.908L25.218 39.908L24.327 40.362ZM25.638 41.673L25.184 42.564H25.184L25.638 41.673ZM38.362 22.327L38.816 21.436V21.436L38.362 22.327ZM39.673 23.638L38.782 24.092V24.092L39.673 23.638ZM25.638 22.327L26.092 23.218L25.638 22.327ZM24.327 23.638L25.218 24.092L24.327 23.638ZM34 30H28V32H34V30ZM30 34H28V36H30V34ZM36 26H28V28H36V26ZM38 41C38.4303 41.9027 38.4305 41.9026 38.4308 41.9024C38.4309 41.9024 38.4312 41.9023 38.4314 41.9021C38.4319 41.9019 38.4323 41.9017 38.4329 41.9015C38.4339 41.9009 38.4352 41.9004 38.4366 41.8997C38.4394 41.8983 38.443 41.8966 38.4473 41.8945C38.4558 41.8903 38.4672 41.8847 38.4812 41.8777C38.5093 41.8637 38.5479 41.844 38.5956 41.8188C38.6909 41.7685 38.8233 41.6958 38.9806 41.6021C39.2929 41.4161 39.7141 41.1405 40.1405 40.7849C40.9435 40.1151 42 38.9643 42 37.4252H40C40 38.0311 39.5565 38.6676 38.8595 39.249C38.5359 39.5189 38.2071 39.7349 37.9569 39.884C37.8329 39.9579 37.7309 40.0137 37.6622 40.05C37.6279 40.0681 37.6021 40.0812 37.5861 40.0892C37.5782 40.0931 37.5727 40.0958 37.5699 40.0972C37.5685 40.0979 37.5678 40.0982 37.5678 40.0982C37.5677 40.0983 37.5679 40.0982 37.5682 40.098C37.5684 40.0979 37.5686 40.0978 37.5688 40.0977C37.569 40.0977 37.5692 40.0976 37.5693 40.0975C37.5695 40.0974 37.5697 40.0973 38 41ZM42 37.4252V34.9229H40V37.4252H42ZM41.3365 33.9812L39.1489 33.1995L38.4759 35.0829L40.6635 35.8646L41.3365 33.9812ZM39.1496 33.1998C38.406 32.9334 37.5928 32.9334 36.8492 33.1998L37.5236 35.0826C37.8312 34.9725 38.1676 34.9725 38.4752 35.0826L39.1496 33.1998ZM36.8497 33.1996L34.6633 33.9813L35.3367 35.8645L37.5231 35.0828L36.8497 33.1996ZM34 34.9229V37.4252H36V34.9229H34ZM34 37.4252C34 38.9643 35.0565 40.1151 35.8595 40.7849C36.2859 41.1405 36.7071 41.4161 37.0194 41.6021C37.1767 41.6958 37.3091 41.7685 37.4044 41.8188C37.4521 41.844 37.4907 41.8637 37.5188 41.8777C37.5328 41.8847 37.5442 41.8903 37.5527 41.8945C37.557 41.8966 37.5606 41.8983 37.5634 41.8997C37.5648 41.9004 37.5661 41.9009 37.5671 41.9015C37.5677 41.9017 37.5681 41.9019 37.5686 41.9021C37.5688 41.9023 37.5691 41.9024 37.5692 41.9024C37.5695 41.9026 37.5697 41.9027 38 41C38.4303 40.0973 38.4305 40.0974 38.4307 40.0975C38.4308 40.0976 38.431 40.0977 38.4312 40.0977C38.4314 40.0978 38.4316 40.0979 38.4318 40.098C38.4321 40.0982 38.4323 40.0983 38.4322 40.0982C38.4322 40.0982 38.4315 40.0979 38.4301 40.0972C38.4273 40.0958 38.4218 40.0931 38.4139 40.0892C38.3979 40.0812 38.3721 40.0681 38.3378 40.05C38.2691 40.0137 38.1671 39.9579 38.0431 39.884C37.7929 39.7349 37.4641 39.5189 37.1405 39.249C36.4435 38.6676 36 38.0311 36 37.4252H34ZM28.8 23H35.2V21H28.8V23ZM25 37.2V26.8H23V37.2H25ZM39 26.8V30H41V26.8H39ZM32.5 41H28.8V43H32.5V41ZM23 37.2C23 38.0236 22.9992 38.7014 23.0442 39.2518C23.0901 39.8139 23.1887 40.3306 23.436 40.816L25.218 39.908C25.1383 39.7516 25.0734 39.5274 25.0376 39.089C25.0008 38.6389 25 38.0566 25 37.2H23ZM28.8 41C27.9434 41 27.3611 40.9992 26.911 40.9624C26.4726 40.9266 26.2484 40.8617 26.092 40.782L25.184 42.564C25.6694 42.8113 26.1861 42.9099 26.7482 42.9558C27.2986 43.0008 27.9764 43 28.8 43V41ZM23.436 40.816C23.8195 41.5686 24.4314 42.1805 25.184 42.564L26.092 40.782C25.7157 40.5903 25.4097 40.2843 25.218 39.908L23.436 40.816ZM35.2 23C36.0566 23 36.6389 23.0008 37.089 23.0376C37.5274 23.0734 37.7516 23.1383 37.908 23.218L38.816 21.436C38.3306 21.1887 37.8139 21.0901 37.2518 21.0442C36.7014 20.9992 36.0236 21 35.2 21V23ZM41 26.8C41 25.9764 41.0008 25.2986 40.9558 24.7482C40.9099 24.1861 40.8113 23.6694 40.564 23.184L38.782 24.092C38.8617 24.2484 38.9266 24.4726 38.9624 24.911C38.9992 25.3611 39 25.9434 39 26.8H41ZM37.908 23.218C38.2843 23.4097 38.5903 23.7157 38.782 24.092L40.564 23.184C40.1805 22.4314 39.5686 21.8195 38.816 21.436L37.908 23.218ZM28.8 21C27.9764 21 27.2986 20.9992 26.7482 21.0442C26.1861 21.0901 25.6694 21.1887 25.184 21.436L26.092 23.218C26.2484 23.1383 26.4726 23.0734 26.911 23.0376C27.3611 23.0008 27.9434 23 28.8 23V21ZM25 26.8C25 25.9434 25.0008 25.3611 25.0376 24.911C25.0734 24.4726 25.1383 24.2484 25.218 24.092L23.436 23.184C23.1887 23.6694 23.0901 24.1861 23.0442 24.7482C22.9992 25.2986 23 25.9764 23 26.8H25ZM25.184 21.436C24.4314 21.8195 23.8195 22.4314 23.436 23.184L25.218 24.092C25.4097 23.7157 25.7157 23.4097 26.092 23.218L25.184 21.436Z" fill="#171717"/>
</svg>
