<svg width="64" height="64" viewBox="0 0 64 64" fill="none" xmlns="http://www.w3.org/2000/svg">
<circle cx="32" cy="32" r="32" fill="#FFE603"/>
<path d="M35 22.2695C35 21.7172 34.5523 21.2695 34 21.2695C33.4477 21.2695 33 21.7172 33 22.2695H35ZM39.7305 29.0001C40.2828 29.0001 40.7305 28.5524 40.7305 28.0001C40.7305 27.4478 40.2828 27.0001 39.7305 27.0001V29.0001ZM34.109 27.4541L35 27.0001V27.0001L34.109 27.4541ZM34.546 27.8911L35 27.0001L34.546 27.8911ZM34 22L34.7071 21.2929C34.5196 21.1054 34.2652 21 34 21V22ZM40 28H41C41 27.7348 40.8946 27.4804 40.7071 27.2929L40 28ZM25.638 41.673L25.184 42.564L25.638 41.673ZM24.327 40.362L23.436 40.816L24.327 40.362ZM38.362 41.673L38.816 42.564L38.362 41.673ZM39.673 40.362L40.564 40.816L39.673 40.362ZM24.327 23.638L23.436 23.184L24.327 23.638ZM25.638 22.327L25.184 21.436L25.638 22.327ZM29.7071 35.2929C29.3166 34.9024 28.6834 34.9024 28.2929 35.2929C27.9024 35.6834 27.9024 36.3166 28.2929 36.7071L29.7071 35.2929ZM31 38L30.2929 38.7071C30.6834 39.0976 31.3166 39.0976 31.7071 38.7071L31 38ZM36.2071 34.2071C36.5976 33.8166 36.5976 33.1834 36.2071 32.7929C35.8166 32.4024 35.1834 32.4024 34.7929 32.7929L36.2071 34.2071ZM33 22.2695V26.4001H35V22.2695H33ZM35.6 29.0001H39.7305V27.0001H35.6V29.0001ZM33 26.4001C33 26.6636 32.9992 26.9214 33.0169 27.1383C33.0356 27.3669 33.0797 27.6366 33.218 27.9081L35 27.0001C35.0293 27.0576 35.0189 27.0803 35.0103 26.9754C35.0008 26.8589 35 26.6966 35 26.4001H33ZM35.6 27.0001C35.3035 27.0001 35.1412 26.9993 35.0246 26.9898C34.9197 26.9812 34.9425 26.9708 35 27.0001L34.092 28.7821C34.3634 28.9204 34.6332 28.9644 34.8618 28.9831C35.0787 29.0008 35.3365 29.0001 35.6 29.0001V27.0001ZM33.218 27.9081C33.4097 28.2844 33.7157 28.5903 34.092 28.7821L35 27.0001V27.0001L33.218 27.9081ZM35.2 41H28.8V43H35.2V41ZM25 37.2V26.8H23V37.2H25ZM28.8 23H34V21H28.8V23ZM39 28V37.2H41V28H39ZM33.2929 22.7071L39.2929 28.7071L40.7071 27.2929L34.7071 21.2929L33.2929 22.7071ZM28.8 41C27.9434 41 27.3611 40.9992 26.911 40.9624C26.4726 40.9266 26.2484 40.8617 26.092 40.782L25.184 42.564C25.6694 42.8113 26.1861 42.9099 26.7482 42.9558C27.2986 43.0008 27.9764 43 28.8 43V41ZM23 37.2C23 38.0236 22.9992 38.7014 23.0442 39.2518C23.0901 39.8139 23.1887 40.3306 23.436 40.816L25.218 39.908C25.1383 39.7516 25.0734 39.5274 25.0376 39.089C25.0008 38.6389 25 38.0566 25 37.2H23ZM26.092 40.782C25.7157 40.5903 25.4097 40.2843 25.218 39.908L23.436 40.816C23.8195 41.5686 24.4314 42.1805 25.184 42.564L26.092 40.782ZM35.2 43C36.0236 43 36.7014 43.0008 37.2518 42.9558C37.8139 42.9099 38.3306 42.8113 38.816 42.564L37.908 40.782C37.7516 40.8617 37.5274 40.9266 37.089 40.9624C36.6389 40.9992 36.0566 41 35.2 41V43ZM39 37.2C39 38.0566 38.9992 38.6389 38.9624 39.089C38.9266 39.5274 38.8617 39.7516 38.782 39.908L40.564 40.816C40.8113 40.3306 40.9099 39.8139 40.9558 39.2518C41.0008 38.7014 41 38.0236 41 37.2H39ZM38.816 42.564C39.5686 42.1805 40.1805 41.5686 40.564 40.816L38.782 39.908C38.5903 40.2843 38.2843 40.5903 37.908 40.782L38.816 42.564ZM25 26.8C25 25.9434 25.0008 25.3611 25.0376 24.911C25.0734 24.4726 25.1383 24.2484 25.218 24.092L23.436 23.184C23.1887 23.6694 23.0901 24.1861 23.0442 24.7482C22.9992 25.2986 23 25.9764 23 26.8H25ZM28.8 21C27.9764 21 27.2986 20.9992 26.7482 21.0442C26.1861 21.0901 25.6694 21.1887 25.184 21.436L26.092 23.218C26.2484 23.1383 26.4726 23.0734 26.911 23.0376C27.3611 23.0008 27.9434 23 28.8 23V21ZM25.218 24.092C25.4097 23.7157 25.7157 23.4097 26.092 23.218L25.184 21.436C24.4314 21.8195 23.8195 22.4314 23.436 23.184L25.218 24.092ZM28.2929 36.7071L30.2929 38.7071L31.7071 37.2929L29.7071 35.2929L28.2929 36.7071ZM31.7071 38.7071L36.2071 34.2071L34.7929 32.7929L30.2929 37.2929L31.7071 38.7071Z" fill="#171717"/>
</svg>
