<svg width="64" height="64" viewBox="0 0 64 64" fill="none" xmlns="http://www.w3.org/2000/svg">
<circle cx="32" cy="32" r="32" fill="#FFE603"/>
<path d="M31.8845 24.7689L30.99 25.2161L30.99 25.2161L31.8845 24.7689ZM32.1056 27.4472C32.3526 27.9412 32.9532 28.1414 33.4472 27.8944C33.9412 27.6474 34.1414 27.0468 33.8944 26.5528L32.1056 27.4472ZM30.4161 23.1093L30.7421 22.164L30.7421 22.164L30.4161 23.1093ZM31.1634 23.5712L31.8631 22.8567V22.8567L31.1634 23.5712ZM23.092 23.218L22.638 22.327L22.638 22.327L23.092 23.218ZM22.218 24.092L21.327 23.638L21.327 23.638L22.218 24.092ZM23.638 40.673L23.184 41.564L23.638 40.673ZM22.327 39.362L21.436 39.816L22.327 39.362ZM41.673 39.362L42.564 39.816L41.673 39.362ZM40.362 40.673L40.816 41.564L40.362 40.673ZM40.362 27.327L40.816 26.436L40.362 27.327ZM41.673 28.638L42.564 28.184L41.673 28.638ZM25.2 24H29.0223V22H25.2V24ZM30.99 25.2161L32.1056 27.4472L33.8944 26.5528L32.7789 24.3217L30.99 25.2161ZM23 27V26.2H21V27H23ZM29.0223 24C29.8127 24 29.9694 24.013 30.09 24.0547L30.7421 22.164C30.229 21.987 29.6677 22 29.0223 22V24ZM32.7789 24.3217C32.4902 23.7444 32.2509 23.2366 31.8631 22.8567L30.4637 24.2856C30.5548 24.3749 30.6366 24.5092 30.99 25.2161L32.7789 24.3217ZM30.09 24.0547C30.2301 24.103 30.3578 24.1819 30.4637 24.2856L31.8631 22.8567C31.5454 22.5456 31.1625 22.309 30.7421 22.164L30.09 24.0547ZM25.2 22C24.6564 22 24.1886 21.9992 23.805 22.0306C23.4096 22.0629 23.0164 22.1342 22.638 22.327L23.546 24.109C23.5955 24.0838 23.6962 24.0461 23.9678 24.0239C24.2512 24.0008 24.6234 24 25.2 24V22ZM23 26.2C23 25.6234 23.0008 25.2512 23.0239 24.9678C23.0461 24.6962 23.0838 24.5955 23.109 24.546L21.327 23.638C21.1342 24.0164 21.0629 24.4096 21.0306 24.805C20.9992 25.1886 21 25.6564 21 26.2H23ZM22.638 22.327C22.0735 22.6146 21.6146 23.0735 21.327 23.638L23.109 24.546C23.2049 24.3578 23.3578 24.2049 23.546 24.109L22.638 22.327ZM22 28H37.2V26H22V28ZM41 31.8V36.2H43V31.8H41ZM37.2 40H26.8V42H37.2V40ZM23 36.2V27H21V36.2H23ZM26.8 40C25.9434 40 25.3611 39.9992 24.911 39.9624C24.4726 39.9266 24.2484 39.8617 24.092 39.782L23.184 41.564C23.6694 41.8113 24.1861 41.9099 24.7482 41.9558C25.2986 42.0008 25.9764 42 26.8 42V40ZM21 36.2C21 37.0236 20.9992 37.7014 21.0442 38.2518C21.0901 38.8139 21.1887 39.3306 21.436 39.816L23.218 38.908C23.1383 38.7516 23.0734 38.5274 23.0376 38.089C23.0008 37.6389 23 37.0566 23 36.2H21ZM24.092 39.782C23.7157 39.5903 23.4097 39.2843 23.218 38.908L21.436 39.816C21.8195 40.5686 22.4314 41.1805 23.184 41.564L24.092 39.782ZM41 36.2C41 37.0566 40.9992 37.6389 40.9624 38.089C40.9266 38.5274 40.8617 38.7516 40.782 38.908L42.564 39.816C42.8113 39.3306 42.9099 38.8139 42.9558 38.2518C43.0008 37.7014 43 37.0236 43 36.2H41ZM37.2 42C38.0236 42 38.7014 42.0008 39.2518 41.9558C39.8139 41.9099 40.3306 41.8113 40.816 41.564L39.908 39.782C39.7516 39.8617 39.5274 39.9266 39.089 39.9624C38.6389 39.9992 38.0566 40 37.2 40V42ZM40.782 38.908C40.5903 39.2843 40.2843 39.5903 39.908 39.782L40.816 41.564C41.5686 41.1805 42.1805 40.5686 42.564 39.816L40.782 38.908ZM37.2 28C38.0566 28 38.6389 28.0008 39.089 28.0376C39.5274 28.0734 39.7516 28.1383 39.908 28.218L40.816 26.436C40.3306 26.1887 39.8139 26.0901 39.2518 26.0442C38.7014 25.9992 38.0236 26 37.2 26V28ZM43 31.8C43 30.9764 43.0008 30.2986 42.9558 29.7482C42.9099 29.1861 42.8113 28.6694 42.564 28.184L40.782 29.092C40.8617 29.2484 40.9266 29.4726 40.9624 29.911C40.9992 30.3611 41 30.9434 41 31.8H43ZM39.908 28.218C40.2843 28.4097 40.5903 28.7157 40.782 29.092L42.564 28.184C42.1805 27.4314 41.5686 26.8195 40.816 26.436L39.908 28.218Z" fill="#171717"/>
</svg>
