<svg width="64" height="64" viewBox="0 0 64 64" fill="none" xmlns="http://www.w3.org/2000/svg">
<circle cx="32" cy="32" r="32" fill="#FFE603"/>
<path d="M36 32L36.9998 32.0208C37.0001 32.0069 37.0001 31.9931 36.9998 31.9792L36 32ZM28 32L27.0002 31.9792C26.9999 31.9931 26.9999 32.0069 27.0002 32.0208L28 32ZM22 33H42V31H22V33ZM31.2617 22.6744C33.5995 25.2338 34.928 28.5552 35.0002 32.0208L36.9998 31.9792C36.9175 28.0289 35.4031 24.2429 32.7383 21.3256L31.2617 22.6744ZM35.0002 31.9792C34.928 35.4448 33.5995 38.7662 31.2617 41.3256L32.7383 42.6744C35.4031 39.7571 36.9175 35.9711 36.9998 32.0208L35.0002 31.9792ZM32.7383 41.3256C30.4005 38.7662 29.072 35.4448 28.9998 31.9792L27.0002 32.0208C27.0825 35.9711 28.5969 39.7571 31.2617 42.6744L32.7383 41.3256ZM28.9998 32.0208C29.072 28.5552 30.4005 25.2338 32.7383 22.6744L31.2617 21.3256C28.5969 24.2429 27.0825 28.0289 27.0002 31.9792L28.9998 32.0208ZM41 32C41 36.9706 36.9706 41 32 41V43C38.0751 43 43 38.0751 43 32H41ZM32 41C27.0294 41 23 36.9706 23 32H21C21 38.0751 25.9249 43 32 43V41ZM23 32C23 27.0294 27.0294 23 32 23V21C25.9249 21 21 25.9249 21 32H23ZM32 23C36.9706 23 41 27.0294 41 32H43C43 25.9249 38.0751 21 32 21V23Z" fill="#171717"/>
</svg>
