<svg width="64" height="64" viewBox="0 0 64 64" fill="none" xmlns="http://www.w3.org/2000/svg">
<circle cx="32" cy="32" r="32" fill="#FFE603"/>
<path d="M22 28.4996L21.5528 27.6051C21.214 27.7745 21 28.1208 21 28.4996C21 28.8783 21.214 29.2246 21.5528 29.394L22 28.4996ZM42 28.4996L42.4472 29.394C42.786 29.2246 43 28.8783 43 28.4996C43 28.1208 42.786 27.7745 42.4472 27.6051L42 28.4996ZM31.9078 33.432L31.7234 34.4148L31.9078 33.432ZM32.0922 33.432L32.2766 34.4148L32.0922 33.432ZM31.6422 23.6785L32.0894 24.5729L31.6422 23.6785ZM31.9078 23.5672L31.7234 22.5843L31.9078 23.5672ZM32.3578 23.6785L31.9106 24.5729L32.3578 23.6785ZM32.0922 23.5672L32.2766 22.5843L32.0922 23.5672ZM36 34.4996C36 35.0519 36.4477 35.4996 37 35.4996C37.5523 35.4996 38 35.0519 38 34.4996H36ZM32.4472 27.6051C31.9532 27.3582 31.3526 27.5584 31.1056 28.0524C30.8586 28.5463 31.0588 29.147 31.5528 29.394L32.4472 27.6051ZM36.9727 31.1456L36.0273 31.4716L36.9727 31.1456ZM36.8572 30.9587L37.5716 30.259L37.5716 30.259L36.8572 30.9587ZM25 29.4996C25 28.9473 24.5523 28.4996 24 28.4996C23.4477 28.4996 23 28.9473 23 29.4996H25ZM41 29.4996C41 28.9473 40.5523 28.4996 40 28.4996C39.4477 28.4996 39 28.9473 39 29.4996H41ZM24.9334 37.7607L24.5167 38.6698L24.5167 38.6698L24.9334 37.7607ZM31.3334 40.694L31.75 39.785H31.75L31.3334 40.694ZM32.6666 40.694L33.0833 41.6031L32.6666 40.694ZM39.0666 37.7607L39.4833 38.6698L39.4833 38.6698L39.0666 37.7607ZM31.8289 40.8848L31.6579 41.8701H31.6579L31.8289 40.8848ZM32.1711 40.8848L32.3421 41.8701H32.3421L32.1711 40.8848ZM39.942 37.0269L39 36.6912L39 36.6912L39.942 37.0269ZM39.6976 37.4077L39 36.6912L39 36.6912L39.6976 37.4077ZM24.058 37.0269L23.116 37.3625V37.3625L24.058 37.0269ZM24.3024 37.4077L25 36.6912L25 36.6912L24.3024 37.4077ZM31.195 22.784L21.5528 27.6051L22.4472 29.394L32.0894 24.5729L31.195 22.784ZM21.5528 29.394L31.195 34.2151L32.0894 32.4263L22.4472 27.6051L21.5528 29.394ZM32.805 34.2151L42.4472 29.394L41.5528 27.6051L31.9106 32.4263L32.805 34.2151ZM42.4472 27.6051L32.805 22.784L31.9106 24.5729L41.5528 29.394L42.4472 27.6051ZM31.195 34.2151C31.2743 34.2548 31.4847 34.37 31.7234 34.4148L32.0922 32.4491C32.1074 32.452 32.1218 32.4553 32.1353 32.4588C32.1487 32.4623 32.1603 32.4658 32.1699 32.469C32.1885 32.4752 32.1989 32.4798 32.1974 32.4791C32.1968 32.4789 32.1942 32.4777 32.1889 32.4753C32.1836 32.4728 32.1766 32.4695 32.1672 32.4649C32.1577 32.4603 32.1468 32.4549 32.1336 32.4483C32.1204 32.4417 32.1061 32.4346 32.0894 32.4263L31.195 34.2151ZM31.9106 32.4263C31.8939 32.4346 31.8796 32.4417 31.8664 32.4483C31.8532 32.4549 31.8423 32.4603 31.8328 32.4649C31.8234 32.4695 31.8164 32.4728 31.8111 32.4753C31.8058 32.4777 31.8032 32.4789 31.8026 32.4791C31.8011 32.4798 31.8115 32.4752 31.8301 32.469C31.8397 32.4658 31.8513 32.4623 31.8647 32.4588C31.8782 32.4553 31.8926 32.452 31.9078 32.4491L32.2766 34.4148C32.5153 34.37 32.7257 34.2548 32.805 34.2151L31.9106 32.4263ZM31.7234 34.4148C31.9062 34.4491 32.0938 34.4491 32.2766 34.4148L31.9078 32.4491C31.9687 32.4377 32.0313 32.4377 32.0922 32.4491L31.7234 34.4148ZM32.0894 24.5729C32.1061 24.5646 32.1204 24.5574 32.1336 24.5508C32.1468 24.5443 32.1577 24.5389 32.1672 24.5343C32.1766 24.5297 32.1836 24.5263 32.1889 24.5239C32.1942 24.5214 32.1968 24.5203 32.1974 24.52C32.1989 24.5194 32.1885 24.524 32.1699 24.5302C32.1603 24.5333 32.1487 24.5369 32.1353 24.5404C32.1218 24.5439 32.1074 24.5472 32.0922 24.55L31.7234 22.5843C31.4847 22.6291 31.2744 22.7444 31.195 22.784L32.0894 24.5729ZM32.805 22.784C32.7256 22.7444 32.5153 22.6291 32.2766 22.5843L31.9078 24.55C31.8926 24.5472 31.8782 24.5439 31.8647 24.5404C31.8513 24.5369 31.8397 24.5333 31.8301 24.5302C31.8115 24.524 31.8011 24.5194 31.8026 24.52C31.8032 24.5203 31.8058 24.5214 31.8111 24.5239C31.8164 24.5263 31.8234 24.5297 31.8328 24.5343C31.8423 24.5389 31.8532 24.5443 31.8664 24.5508C31.8796 24.5574 31.8939 24.5646 31.9106 24.5729L32.805 22.784ZM32.0922 24.55C32.0313 24.5615 31.9687 24.5615 31.9078 24.55L32.2766 22.5843C32.0938 22.55 31.9062 22.55 31.7234 22.5843L32.0922 24.55ZM38 34.4996V31.494H36V34.4996H38ZM37.005 29.884L32.4472 27.6051L31.5528 29.394L36.1106 31.6729L37.005 29.884ZM38 31.494C38 31.387 38.013 31.095 37.918 30.8195L36.0273 31.4716C36.0212 31.4538 36.0161 31.4365 36.012 31.4201C36.0079 31.4038 36.005 31.3894 36.0029 31.3776C35.999 31.3547 35.9983 31.3415 35.9985 31.3444C35.9986 31.3456 35.9988 31.3495 35.999 31.3569C35.9993 31.3644 35.9995 31.3742 35.9996 31.3872C35.9998 31.4003 35.9999 31.4154 36 31.4334C36 31.4516 36 31.4713 36 31.494H38ZM36.1106 31.6729C36.1309 31.6831 36.1485 31.6918 36.1647 31.7C36.1808 31.7081 36.1943 31.715 36.2059 31.721C36.2175 31.7269 36.2262 31.7315 36.2327 31.7351C36.2393 31.7386 36.2426 31.7405 36.2437 31.7411C36.2462 31.7426 36.2347 31.7361 36.216 31.7223C36.2063 31.7152 36.1948 31.7062 36.182 31.6952C36.1692 31.6842 36.156 31.6719 36.1428 31.6585L37.5716 30.259C37.3677 30.0508 37.1007 29.9319 37.005 29.884L36.1106 31.6729ZM37.918 30.8195C37.8455 30.6093 37.7272 30.4179 37.5716 30.259L36.1428 31.6585C36.0909 31.6055 36.0515 31.5417 36.0273 31.4716L37.918 30.8195ZM23 29.4996V36.3062H25V29.4996H23ZM41 36.3062V29.4996H39V36.3062H41ZM24.5167 38.6698L30.9167 41.6031L31.75 39.785L25.35 36.8516L24.5167 38.6698ZM33.0833 41.6031L39.4833 38.6698L38.65 36.8516L32.25 39.785L33.0833 41.6031ZM30.9167 41.6031C31.1138 41.6934 31.3725 41.8205 31.6579 41.8701L32 39.8995C32.0282 39.9044 32.0359 39.9105 31.9962 39.8946C31.9473 39.8751 31.8813 39.8451 31.75 39.785L30.9167 41.6031ZM32.25 39.785C32.1187 39.8451 32.0527 39.8751 32.0038 39.8946C31.9641 39.9105 31.9718 39.9044 32 39.8995L32.3421 41.8701C32.6275 41.8205 32.8862 41.6934 33.0833 41.6031L32.25 39.785ZM31.6579 41.8701C31.8843 41.9094 32.1157 41.9094 32.3421 41.8701L32 39.8995H32L31.6579 41.8701ZM39 36.3062C39 36.5046 38.9995 36.607 38.9948 36.6811C38.9908 36.7432 38.9864 36.7294 39 36.6912L40.884 37.3625C41.0139 36.9979 41 36.6027 41 36.3062H39ZM39.4833 38.6698C39.7528 38.5462 40.1179 38.3942 40.3952 38.1241L39 36.6912C39.0291 36.6629 39.0434 36.6612 38.9886 36.6907C38.9233 36.7259 38.8304 36.769 38.65 36.8516L39.4833 38.6698ZM39 36.6912V36.6912L40.3952 38.1241C40.6142 37.911 40.7814 37.6504 40.884 37.3625L39 36.6912ZM23 36.3062C23 36.6027 22.9861 36.9979 23.116 37.3625L25 36.6912C25.0136 36.7294 25.0092 36.7432 25.0052 36.6811C25.0005 36.607 25 36.5046 25 36.3062H23ZM25.35 36.8516C25.1697 36.769 25.0768 36.7259 25.0114 36.6907C24.9566 36.6612 24.9709 36.6629 25 36.6912L23.6048 38.1241C23.8821 38.3942 24.2472 38.5462 24.5167 38.6698L25.35 36.8516ZM23.116 37.3625C23.2186 37.6504 23.3858 37.9109 23.6048 38.1241L25 36.6912H25L23.116 37.3625Z" fill="#171717"/>
</svg>
