<svg width="64" height="64" viewBox="0 0 64 64" fill="none" xmlns="http://www.w3.org/2000/svg">
<circle cx="32" cy="32" r="32" fill="#FFE603"/>
<path d="M26.9 31.4444V34.2222M26.9 31.4444V24.7778C26.9 23.8573 27.6611 23.1111 28.6 23.1111C29.5389 23.1111 30.3 23.8573 30.3 24.7778M26.9 31.4444C26.9 30.524 26.1389 29.7778 25.2 29.7778C24.2611 29.7778 23.5 30.524 23.5 31.4444V33.6667C23.5 38.269 27.3056 42 32 42C36.6944 42 40.5 38.269 40.5 33.6667V28.1111C40.5 27.1906 39.7389 26.4444 38.8 26.4444C37.8611 26.4444 37.1 27.1906 37.1 28.1111M30.3 24.7778V30.8889M30.3 24.7778V23.6667C30.3 22.7462 31.0611 22 32 22C32.9389 22 33.7 22.7462 33.7 23.6667V24.7778M33.7 24.7778V30.8889M33.7 24.7778C33.7 23.8573 34.4611 23.1111 35.4 23.1111C36.3389 23.1111 37.1 23.8573 37.1 24.7778V28.1111M37.1 28.1111V30.8889" stroke="#171717" stroke-width="2" stroke-linecap="round" stroke-linejoin="round"/>
</svg>
