<svg width="64" height="64" viewBox="0 0 64 64" fill="none" xmlns="http://www.w3.org/2000/svg">
<circle cx="32" cy="32" r="32" fill="#FFE603"/>
<path d="M40 38C40 38.5523 40.4477 39 41 39C41.5523 39 42 38.5523 42 38H40ZM22 38C22 38.5523 22.4477 39 23 39C23.5523 39 24 38.5523 24 38H22ZM40 32V38H42V32H40ZM24 38V32H22V38H24ZM32 24C36.4183 24 40 27.5817 40 32H42C42 26.4772 37.5228 22 32 22V24ZM32 22C26.4772 22 22 26.4772 22 32H24C24 27.5817 27.5817 24 32 24V22ZM27 36.5V38.5H29V36.5H27ZM24 38.5V36.5H22V38.5H24ZM25.5 40C24.6716 40 24 39.3284 24 38.5H22C22 40.433 23.567 42 25.5 42V40ZM27 38.5C27 39.3284 26.3284 40 25.5 40V42C27.433 42 29 40.433 29 38.5H27ZM25.5 35C26.3284 35 27 35.6716 27 36.5H29C29 34.567 27.433 33 25.5 33V35ZM25.5 33C23.567 33 22 34.567 22 36.5H24C24 35.6716 24.6716 35 25.5 35V33ZM40 36.5V38.5H42V36.5H40ZM37 38.5V36.5H35V38.5H37ZM38.5 40C37.6716 40 37 39.3284 37 38.5H35C35 40.433 36.567 42 38.5 42V40ZM40 38.5C40 39.3284 39.3284 40 38.5 40V42C40.433 42 42 40.433 42 38.5H40ZM38.5 35C39.3284 35 40 35.6716 40 36.5H42C42 34.567 40.433 33 38.5 33V35ZM38.5 33C36.567 33 35 34.567 35 36.5H37C37 35.6716 37.6716 35 38.5 35V33Z" fill="#171717"/>
</svg>
