<svg width="64" height="64" viewBox="0 0 64 64" fill="none" xmlns="http://www.w3.org/2000/svg">
<circle cx="32" cy="32" r="32" fill="#FFE603"/>
<path d="M22 34.6009H21H22ZM22.109 33.5469L21.218 33.0929L22.109 33.5469ZM23.6 33.0009L23.6 34.0009H23.6V33.0009ZM22.546 33.1099L22.092 32.2189H22.092L22.546 33.1099ZM23.6 42.0009L23.6 43.0009H23.6V42.0009ZM22.546 41.8919L23 41.0009H23L22.546 41.8919ZM22 40.4009H23H22ZM22.109 41.4549L21.218 41.9089L22.109 41.4549ZM25.891 41.4549L26.782 41.9089L25.891 41.4549ZM24.4 42.0009L24.4 41.0009H24.4V42.0009ZM25.454 41.8919L25.908 42.7829L25.454 41.8919ZM25.891 33.5469L26.782 33.0929L25.891 33.5469ZM24.4 33.0009L24.4 32.0009H24.4V33.0009ZM25.454 33.1099L25 34.0009L25.454 33.1099ZM33.2855 37.0507L33.2855 36.0507C32.7332 36.0507 32.2855 36.4984 32.2855 37.0507C32.2855 37.603 32.7332 38.0507 33.2855 38.0507V37.0507ZM36.9626 36.6457L36.3732 35.8379L36.3725 35.8384L36.9626 36.6457ZM39.4771 34.8112L38.888 34.0032L38.8877 34.0033L39.4771 34.8112ZM41.5379 34.9539L40.8406 35.6707L41.5379 34.9539ZM41.5379 37.1226L40.8412 36.4052L40.8406 36.4058L41.5379 37.1226ZM39.3803 39.2214L40.0776 39.9382L39.3803 39.2214ZM37.253 40.329L37.4439 41.3106L37.4442 41.3105L37.253 40.329ZM34.2035 40.9223L34.3941 41.9039L34.3944 41.9039L34.2035 40.9223ZM32.3769 40.8798L32.6136 39.9082L32.613 39.908L32.3769 40.8798ZM29.6188 40.2095L29.3804 41.1807L29.3827 41.1812L29.6188 40.2095ZM26 39.088C25.4477 39.088 25 39.5357 25 40.088C25 40.6403 25.4477 41.088 26 41.088V39.088ZM34.8311 37.0506V36.0506H34.831L34.8311 37.0506ZM35.2141 33.7227L34.9778 34.6944L34.9784 34.6946L35.2141 33.7227ZM32.8286 33.1426L33.0649 32.1709L33.0643 32.1708L32.8286 33.1426ZM28.9319 33.7997L29.3177 34.7223C29.3278 34.718 29.3379 34.7136 29.3478 34.7091L28.9319 33.7997ZM25.6142 34.1032C25.1047 34.3162 24.8643 34.902 25.0774 35.4116C25.2905 35.9211 25.8763 36.1614 26.3858 35.9483L25.6142 34.1032ZM37.1914 23.5931L36.2891 24.0243C36.4151 24.288 36.6502 24.4834 36.9326 24.5591C37.2149 24.6347 37.5162 24.583 37.7572 24.4177L37.1914 23.5931ZM32.5325 25.8037L33.454 25.4154L32.5325 25.8037ZM40.1208 27.837L40.7247 28.6341L40.1208 27.837ZM34.5781 29.3199L35.419 28.7787L34.5781 29.3199ZM35.161 30.0478L34.6326 30.8968L35.161 30.0478ZM36.5911 29.8593L37.0488 30.7484L36.5911 29.8593ZM35.7224 30.1982L35.6893 29.1988L35.7224 30.1982ZM25 34.6009V40.4009H27V34.6009H25ZM24.4 41.0009H23.6V43.0009H24.4V41.0009ZM23 40.4009V34.6009H21L21 40.4009H23ZM23.6 34.0009H24.4V32.0009H23.6V34.0009ZM23 34.6009C23 34.3043 23.0008 34.1421 23.0103 34.0255C23.0189 33.9206 23.0293 33.9434 23 34.0009L21.218 33.0929C21.0797 33.3643 21.0356 33.634 21.0169 33.8626C20.9992 34.0796 21 34.3373 21 34.6009H23ZM23.6 32.0009C23.3365 32.0009 23.0787 32.0001 22.8618 32.0178C22.6332 32.0365 22.3634 32.0806 22.092 32.2189L23 34.0009C22.9425 34.0302 22.9197 34.0197 23.0246 34.0112C23.1412 34.0016 23.3035 34.0009 23.6 34.0009L23.6 32.0009ZM23 34.0009H23L22.092 32.2189C21.7157 32.4106 21.4097 32.7166 21.218 33.0929L23 34.0009ZM23.6 41.0009C23.3035 41.0009 23.1412 41.0001 23.0246 40.9906C22.9197 40.982 22.9425 40.9716 23 41.0009L22.092 42.7829C22.3634 42.9212 22.6332 42.9652 22.8618 42.9839C23.0787 43.0016 23.3365 43.0009 23.6 43.0009L23.6 41.0009ZM21 40.4009C21 40.6644 20.9992 40.9222 21.0169 41.1391C21.0356 41.3677 21.0797 41.6374 21.218 41.9089L23 41.0009C23.0293 41.0584 23.0189 41.0811 23.0103 40.9762C23.0008 40.8597 23 40.6974 23 40.4009H21ZM23 41.0009H23L21.218 41.9089C21.4097 42.2852 21.7157 42.5911 22.092 42.7829L23 41.0009ZM25 40.4009C25 40.6974 24.9992 40.8597 24.9897 40.9762C24.9811 41.0811 24.9707 41.0584 25 41.0009L26.782 41.9089C26.9203 41.6374 26.9644 41.3677 26.9831 41.1391C27.0008 40.9222 27 40.6644 27 40.4009H25ZM24.4 43.0009C24.6635 43.0009 24.9213 43.0016 25.1382 42.9839C25.3668 42.9653 25.6366 42.9212 25.908 42.7829L25 41.0009C25.0575 40.9716 25.0803 40.982 24.9754 40.9906C24.8588 41.0001 24.6965 41.0009 24.4 41.0009L24.4 43.0009ZM25 41.0009V41.0009L25.908 42.7829C26.2843 42.5911 26.5903 42.2852 26.782 41.9089L25 41.0009ZM27 34.6009C27 34.3373 27.0008 34.0796 26.9831 33.8626C26.9644 33.634 26.9203 33.3643 26.782 33.0929L25 34.0009C24.9707 33.9434 24.9811 33.9206 24.9897 34.0255C24.9992 34.1421 25 34.3043 25 34.6009H27ZM24.4 34.0009C24.6965 34.0009 24.8588 34.0016 24.9754 34.0112C25.0803 34.0197 25.0575 34.0302 25 34.0009L25.908 32.2189C25.6366 32.0806 25.3668 32.0365 25.1382 32.0178C24.9213 32.0001 24.6635 32.0009 24.4 32.0009L24.4 34.0009ZM26.782 33.0929C26.5903 32.7166 26.2843 32.4106 25.908 32.2189L25 34.0009V34.0009L26.782 33.0929ZM33.2855 38.0507H35.7137V36.0507H33.2855V38.0507ZM35.7137 38.0507C36.3733 38.0507 37.0188 37.8433 37.5527 37.453L36.3725 35.8384C36.1862 35.9746 35.9553 36.0507 35.7137 36.0507V38.0507ZM37.552 37.4536L40.0665 35.619L38.8877 34.0033L36.3732 35.8379L37.552 37.4536ZM40.0663 35.6192C40.3025 35.447 40.6372 35.4729 40.8406 35.6707L42.2352 34.2371C41.3291 33.3557 39.907 33.2601 38.888 34.0032L40.0663 35.6192ZM40.8406 35.6707C41.0535 35.8778 41.0526 36.1999 40.8412 36.4052L42.2346 37.84C43.2555 36.8485 43.2546 35.2288 42.2352 34.2371L40.8406 35.6707ZM40.8406 36.4058L38.6831 38.5046L40.0776 39.9382L42.2352 37.8394L40.8406 36.4058ZM38.6831 38.5046C38.2436 38.932 37.6792 39.2272 37.0618 39.3474L37.4442 41.3105C38.4379 41.117 39.3555 40.6406 40.0776 39.9382L38.6831 38.5046ZM37.062 39.3474L34.0125 39.9407L34.3944 41.9039L37.4439 41.3106L37.062 39.3474ZM34.0128 39.9406C33.5491 40.0307 33.0714 40.0197 32.6136 39.9082L32.1402 41.8513C32.8793 42.0314 33.6485 42.0487 34.3941 41.9039L34.0128 39.9406ZM32.613 39.908L29.8549 39.2378L29.3827 41.1812L32.1408 41.8515L32.613 39.908ZM29.8572 39.2384C29.4484 39.138 29.0301 39.088 28.6103 39.088V41.088C28.8712 41.088 29.1294 41.1191 29.3804 41.1807L29.8572 39.2384ZM28.6103 39.088H26V41.088H28.6103V39.088ZM33.2855 38.0507L34.8311 38.0506L34.831 36.0506L33.2855 36.0507L33.2855 38.0507ZM34.8311 38.0506C36.2283 38.0506 37.4079 36.9423 37.4079 35.5168H35.4079C35.4079 35.7861 35.1761 36.0506 34.8311 36.0506V38.0506ZM37.4079 35.5168V35.21H35.4079V35.5168H37.4079ZM37.4079 35.21C37.4079 34.0282 36.5834 33.0258 35.4497 32.7509L34.9784 34.6946C35.2477 34.7599 35.4079 34.9845 35.4079 35.21H37.4079ZM35.4504 32.7511L33.0649 32.1709L32.5923 34.1143L34.9778 34.6944L35.4504 32.7511ZM33.0643 32.1708C32.599 32.0579 32.1223 32.0009 31.6431 32.0009V34.0009C31.9633 34.0009 32.2818 34.039 32.5929 34.1144L33.0643 32.1708ZM31.6431 32.0009C30.9678 32.0009 30.1413 32.2607 29.5883 32.4589C29.2891 32.5661 29.0239 32.6728 28.8335 32.7525C28.738 32.7925 28.6605 32.8261 28.6061 32.8501C28.5788 32.8621 28.5573 32.8717 28.542 32.8785C28.5344 32.8819 28.5284 32.8846 28.524 32.8866C28.5218 32.8876 28.5201 32.8884 28.5187 32.889C28.518 32.8893 28.5175 32.8896 28.517 32.8898C28.5168 32.8899 28.5166 32.89 28.5164 32.8901C28.5163 32.8901 28.5162 32.8902 28.5161 32.8902C28.516 32.8903 28.5159 32.8903 28.9319 33.7997C29.3478 34.7091 29.3478 34.7091 29.3477 34.7091C29.3477 34.7092 29.3476 34.7092 29.3476 34.7092C29.3475 34.7092 29.3474 34.7093 29.3474 34.7093C29.3474 34.7093 29.3474 34.7093 29.3476 34.7092C29.3479 34.709 29.3487 34.7087 29.3498 34.7082C29.3521 34.7071 29.356 34.7054 29.3614 34.7029C29.3723 34.6981 29.3892 34.6905 29.4116 34.6807C29.4564 34.6609 29.5229 34.6321 29.6062 34.5972C29.7735 34.5272 30.0051 34.4341 30.2631 34.3416C30.8245 34.1404 31.3537 34.0009 31.6431 34.0009V32.0009ZM28.5461 32.8771L25.6142 34.1032L26.3858 35.9483L29.3177 34.7223L28.5461 32.8771ZM38.0936 23.1619C37.3016 21.5046 35.3713 20.5017 33.4497 21.4187L34.3111 23.2237C35.0659 22.8636 35.8875 23.1839 36.2891 24.0243L38.0936 23.1619ZM33.4497 21.4187C31.6347 22.2849 30.841 24.3649 31.6109 26.192L33.454 25.4154C33.1034 24.5836 33.4499 23.6348 34.3111 23.2237L33.4497 21.4187ZM40.7247 28.6341C42.2936 27.4454 42.6915 25.2388 41.5111 23.5697L39.8782 24.7245C40.4197 25.4901 40.2479 26.4862 39.5169 27.0399L40.7247 28.6341ZM41.5111 23.5697C40.2889 21.8415 38.1497 21.7227 36.6256 22.7686L37.7572 24.4177C38.5156 23.8973 39.3786 24.018 39.8782 24.7245L41.5111 23.5697ZM31.6109 26.192C31.9983 27.1112 33.0462 28.7875 33.7372 29.8611L35.419 28.7787C34.6953 27.6543 33.7591 26.1395 33.454 25.4154L31.6109 26.192ZM37.0488 30.7484C38.184 30.1642 39.9297 29.2364 40.7247 28.6341L39.5169 27.0399C38.8906 27.5145 37.3225 28.3582 36.1335 28.9702L37.0488 30.7484ZM33.7372 29.8611C33.8591 30.0505 33.9823 30.2434 34.1023 30.3999C34.2323 30.5695 34.3978 30.7507 34.6326 30.8968L35.6893 29.1988C35.7333 29.2261 35.7381 29.2464 35.6896 29.1832C35.6312 29.107 35.5584 28.9953 35.419 28.7787L33.7372 29.8611ZM36.1335 28.9702C35.9044 29.0881 35.7856 29.1484 35.6969 29.1852C35.6233 29.2157 35.6376 29.2005 35.6893 29.1988L35.7554 31.1977C36.0319 31.1885 36.2658 31.1144 36.4632 31.0325C36.6453 30.957 36.8485 30.8515 37.0488 30.7484L36.1335 28.9702ZM34.6326 30.8968C34.9645 31.1033 35.3648 31.2106 35.7554 31.1977L35.6893 29.1988L35.6893 29.1988L34.6326 30.8968Z" fill="#171717"/>
</svg>
