<svg width="64" height="64" viewBox="0 0 64 64" fill="none" xmlns="http://www.w3.org/2000/svg">
<circle cx="32" cy="32" r="32" fill="#FFE603"/>
<path d="M31.9932 25.1358L31.2332 25.7858C31.4232 26.0079 31.7009 26.1358 31.9932 26.1358C32.2854 26.1358 32.5631 26.0079 32.7531 25.7858L31.9932 25.1358ZM23.2642 32.5604L24.0538 31.9468L23.2642 32.5604ZM40.7221 32.5604L39.9325 31.9468L40.7221 32.5604ZM31.4721 40.5408L32.1351 39.7922L31.4721 40.5408ZM31.8502 40.8135L31.5643 41.7718L31.8502 40.8135ZM32.5142 40.5408L31.8512 39.7922L32.5142 40.5408ZM32.1361 40.8135L32.422 41.7718L32.1361 40.8135ZM32.7531 24.4858C30.4594 21.8043 26.5016 20.9895 23.5051 23.5497L24.8043 25.0703C26.8179 23.3498 29.5282 23.7925 31.2332 25.7858L32.7531 24.4858ZM23.5051 23.5497C20.5983 26.0334 20.176 30.2162 22.4746 33.174L24.0538 31.9468C22.418 29.8418 22.701 26.8674 24.8043 25.0703L23.5051 23.5497ZM41.5117 33.174C43.8015 30.2275 43.4444 26.0125 40.4708 23.541L39.1924 25.0791C41.315 26.8433 41.5772 29.8304 39.9325 31.9468L41.5117 33.174ZM40.4708 23.541C37.4415 21.0232 33.5344 21.7955 31.2332 24.4858L32.7531 25.7858C34.4506 23.8013 37.1255 23.3611 39.1924 25.0791L40.4708 23.541ZM22.4746 33.174C23.3471 34.2968 25.0501 35.9836 26.6867 37.5283C28.3425 39.0912 29.9945 40.568 30.8091 41.2895L32.1351 39.7922C31.3274 39.0769 29.6932 37.6159 28.0595 36.0739C26.4067 34.5138 24.8169 32.9287 24.0538 31.9468L22.4746 33.174ZM33.1772 41.2895C33.9919 40.568 35.6438 39.0912 37.2996 37.5283C38.9362 35.9836 40.6392 34.2968 41.5117 33.174L39.9325 31.9468C39.1694 32.9287 37.5796 34.5138 35.9268 36.0739C34.2931 37.6159 32.6589 39.0769 31.8512 39.7922L33.1772 41.2895ZM30.8091 41.2895C30.8881 41.3594 30.9903 41.4509 31.088 41.5245C31.1974 41.6069 31.3545 41.7092 31.5643 41.7718L32.1361 39.8553C32.1859 39.8701 32.2264 39.8888 32.2555 39.9048C32.2821 39.9195 32.2954 39.93 32.2911 39.9268C32.2862 39.9231 32.2727 39.9125 32.2442 39.888C32.2156 39.8634 32.1821 39.8339 32.1351 39.7922L30.8091 41.2895ZM31.8512 39.7922C31.8042 39.8339 31.7707 39.8634 31.7421 39.888C31.7136 39.9125 31.7001 39.9231 31.6952 39.9268C31.6909 39.93 31.7042 39.9195 31.7308 39.9048C31.7599 39.8888 31.8004 39.8701 31.8502 39.8553L32.422 41.7718C32.6318 41.7092 32.7889 41.6069 32.8983 41.5245C32.996 41.4509 33.0982 41.3594 33.1772 41.2895L31.8512 39.7922ZM31.5643 41.7718C31.8433 41.855 32.1431 41.855 32.422 41.7718L31.8502 39.8553C31.9443 39.8272 32.042 39.8272 32.1361 39.8553L31.5643 41.7718Z" fill="#171717"/>
</svg>
