<svg width="64" height="64" viewBox="0 0 64 64" fill="none" xmlns="http://www.w3.org/2000/svg">
<circle cx="32" cy="32" r="32" fill="#FFE603"/>
<path d="M23.565 40.0208C23.1745 40.4113 23.1745 41.0445 23.565 41.435C23.9555 41.8255 24.5887 41.8255 24.9792 41.435L23.565 40.0208ZM30.8686 34.1314L31.5757 34.8385L30.8686 34.1314ZM33.1314 34.1314L32.4243 34.8385L32.4243 34.8385L33.1314 34.1314ZM38.9768 41.391C39.3673 41.7815 40.0005 41.7815 40.391 41.391C40.7815 41.0005 40.7815 40.3673 40.391 39.9768L38.9768 41.391ZM31.691 33.4632L31.382 32.5121H31.382L31.691 33.4632ZM32.309 33.4632L32.618 32.5121H32.618L32.309 33.4632ZM36.8686 32.1314L36.1615 31.4243L36.8686 32.1314ZM33.2929 34.2929C32.9024 34.6834 32.9024 35.3166 33.2929 35.7071C33.6834 36.0976 34.3166 36.0976 34.7071 35.7071L33.2929 34.2929ZM41.2929 35.7071C41.6834 36.0976 42.3166 36.0976 42.7071 35.7071C43.0976 35.3166 43.0976 34.6834 42.7071 34.2929L41.2929 35.7071ZM39.1314 32.1314L39.8385 31.4243L39.1314 32.1314ZM37.691 31.4632L37.382 30.5121L37.691 31.4632ZM38.309 31.4632L38.618 30.5121L38.309 31.4632ZM23.638 40.673L23.184 41.564L23.638 40.673ZM22.327 39.362L21.436 39.816L22.327 39.362ZM41.673 39.362L42.564 39.816L41.673 39.362ZM40.362 40.673L40.816 41.564L40.362 40.673ZM40.362 23.327L40.816 22.436L40.362 23.327ZM41.673 24.638L42.564 24.184L41.673 24.638ZM23.638 23.327L23.184 22.436L23.638 23.327ZM22.327 24.638L21.436 24.184L22.327 24.638ZM24.9792 41.435L31.5757 34.8385L30.1615 33.4243L23.565 40.0208L24.9792 41.435ZM32.4243 34.8385L38.9768 41.391L40.391 39.9768L33.8385 33.4243L32.4243 34.8385ZM31.5757 34.8385C31.7854 34.6288 31.9007 34.5146 31.9899 34.4389C32.0701 34.3708 32.0614 34.3943 32 34.4142L31.382 32.5121C31.0922 32.6062 30.8704 32.7658 30.6955 32.9142C30.5296 33.0551 30.3479 33.2379 30.1615 33.4243L31.5757 34.8385ZM33.8385 33.4243C33.6521 33.2379 33.4704 33.0551 33.3045 32.9142C33.1296 32.7658 32.9078 32.6062 32.618 32.5121L32 34.4142C31.9386 34.3943 31.9299 34.3708 32.0101 34.4389C32.0993 34.5146 32.2146 34.6288 32.4243 34.8385L33.8385 33.4243ZM32 34.4142H32L32.618 32.5121C32.2163 32.3816 31.7837 32.3816 31.382 32.5121L32 34.4142ZM29 29C29 29.5523 28.5523 30 28 30V32C29.6569 32 31 30.6569 31 29H29ZM28 30C27.4477 30 27 29.5523 27 29H25C25 30.6569 26.3431 32 28 32V30ZM27 29C27 28.4477 27.4477 28 28 28V26C26.3431 26 25 27.3431 25 29H27ZM28 28C28.5523 28 29 28.4477 29 29H31C31 27.3431 29.6569 26 28 26V28ZM36.1615 31.4243L33.2929 34.2929L34.7071 35.7071L37.5757 32.8385L36.1615 31.4243ZM42.7071 34.2929L39.8385 31.4243L38.4243 32.8385L41.2929 35.7071L42.7071 34.2929ZM37.5757 32.8385C37.7854 32.6288 37.9007 32.5146 37.9899 32.4389C38.0701 32.3708 38.0614 32.3943 38 32.4142L37.382 30.5121C37.0922 30.6062 36.8704 30.7658 36.6955 30.9142C36.5296 31.0551 36.3479 31.2379 36.1615 31.4243L37.5757 32.8385ZM39.8385 31.4243C39.6521 31.2379 39.4704 31.0551 39.3045 30.9142C39.1296 30.7658 38.9078 30.6062 38.618 30.5121L38 32.4142C37.9386 32.3943 37.9299 32.3708 38.0101 32.4389C38.0993 32.5146 38.2146 32.6288 38.4243 32.8385L39.8385 31.4243ZM38 32.4142L38.618 30.5121C38.2163 30.3816 37.7837 30.3816 37.382 30.5121L38 32.4142ZM26.8 24H37.2V22H26.8V24ZM41 27.8V36.2H43V27.8H41ZM37.2 40H26.8V42H37.2V40ZM23 36.2V27.8H21V36.2H23ZM26.8 40C25.9434 40 25.3611 39.9992 24.911 39.9624C24.4726 39.9266 24.2484 39.8617 24.092 39.782L23.184 41.564C23.6694 41.8113 24.1861 41.9099 24.7482 41.9558C25.2986 42.0008 25.9764 42 26.8 42V40ZM21 36.2C21 37.0236 20.9992 37.7014 21.0442 38.2518C21.0901 38.8139 21.1887 39.3306 21.436 39.816L23.218 38.908C23.1383 38.7516 23.0734 38.5274 23.0376 38.089C23.0008 37.6389 23 37.0566 23 36.2H21ZM24.092 39.782C23.7157 39.5903 23.4097 39.2843 23.218 38.908L21.436 39.816C21.8195 40.5686 22.4314 41.1805 23.184 41.564L24.092 39.782ZM41 36.2C41 37.0566 40.9992 37.6389 40.9624 38.089C40.9266 38.5274 40.8617 38.7516 40.782 38.908L42.564 39.816C42.8113 39.3306 42.9099 38.8139 42.9558 38.2518C43.0008 37.7014 43 37.0236 43 36.2H41ZM37.2 42C38.0236 42 38.7014 42.0008 39.2518 41.9558C39.8139 41.9099 40.3306 41.8113 40.816 41.564L39.908 39.782C39.7516 39.8617 39.5274 39.9266 39.089 39.9624C38.6389 39.9992 38.0566 40 37.2 40V42ZM40.782 38.908C40.5903 39.2843 40.2843 39.5903 39.908 39.782L40.816 41.564C41.5686 41.1805 42.1805 40.5686 42.564 39.816L40.782 38.908ZM37.2 24C38.0566 24 38.6389 24.0008 39.089 24.0376C39.5274 24.0734 39.7516 24.1383 39.908 24.218L40.816 22.436C40.3306 22.1887 39.8139 22.0901 39.2518 22.0442C38.7014 21.9992 38.0236 22 37.2 22V24ZM43 27.8C43 26.9764 43.0008 26.2986 42.9558 25.7482C42.9099 25.1861 42.8113 24.6694 42.564 24.184L40.782 25.092C40.8617 25.2484 40.9266 25.4726 40.9624 25.911C40.9992 26.3611 41 26.9434 41 27.8H43ZM39.908 24.218C40.2843 24.4097 40.5903 24.7157 40.782 25.092L42.564 24.184C42.1805 23.4314 41.5686 22.8195 40.816 22.436L39.908 24.218ZM26.8 22C25.9764 22 25.2986 21.9992 24.7482 22.0442C24.1861 22.0901 23.6694 22.1887 23.184 22.436L24.092 24.218C24.2484 24.1383 24.4726 24.0734 24.911 24.0376C25.3611 24.0008 25.9434 24 26.8 24V22ZM23 27.8C23 26.9434 23.0008 26.3611 23.0376 25.911C23.0734 25.4726 23.1383 25.2484 23.218 25.092L21.436 24.184C21.1887 24.6694 21.0901 25.1861 21.0442 25.7482C20.9992 26.2986 21 26.9764 21 27.8H23ZM23.184 22.436C22.4314 22.8195 21.8195 23.4314 21.436 24.184L23.218 25.092C23.4097 24.7157 23.7157 24.4097 24.092 24.218L23.184 22.436Z" fill="#171717"/>
</svg>
