<svg width="44" height="44" viewBox="0 0 44 44" fill="none" xmlns="http://www.w3.org/2000/svg">
<circle opacity="0.4" cx="22" cy="22" r="21.5" stroke="white"/>
<path d="M22.0022 16.8723C19.1645 16.8723 16.8756 19.1617 16.8756 22C16.8756 24.8383 19.1645 27.1277 22.0022 27.1277C24.8399 27.1277 27.1288 24.8383 27.1288 22C27.1288 19.1617 24.8399 16.8723 22.0022 16.8723ZM22.0022 25.3337C20.1684 25.3337 18.6693 23.8387 18.6693 22C18.6693 20.1613 20.164 18.6663 22.0022 18.6663C23.8405 18.6663 25.3352 20.1613 25.3352 22C25.3352 23.8387 23.836 25.3337 22.0022 25.3337V25.3337ZM28.5343 16.6625C28.5343 17.3275 27.9989 17.8585 27.3385 17.8585C26.6737 17.8585 26.1428 17.323 26.1428 16.6625C26.1428 16.002 26.6782 15.4665 27.3385 15.4665C27.9989 15.4665 28.5343 16.002 28.5343 16.6625ZM31.9297 17.8764C31.8539 16.2742 31.488 14.8551 30.3146 13.6858C29.1456 12.5166 27.7267 12.1506 26.1249 12.0703C24.4741 11.9766 19.5259 11.9766 17.8751 12.0703C16.2777 12.1462 14.8589 12.5121 13.6854 13.6814C12.512 14.8506 12.1506 16.2698 12.0703 17.8719C11.9766 19.5232 11.9766 24.4724 12.0703 26.1236C12.1461 27.7258 12.512 29.1449 13.6854 30.3142C14.8589 31.4834 16.2733 31.8494 17.8751 31.9297C19.5259 32.0234 24.4741 32.0234 26.1249 31.9297C27.7267 31.8538 29.1456 31.4879 30.3146 30.3142C31.4835 29.1449 31.8494 27.7258 31.9297 26.1236C32.0234 24.4724 32.0234 19.5276 31.9297 17.8764V17.8764ZM29.797 27.8953C29.449 28.7701 28.7752 29.4439 27.8963 29.7965C26.58 30.3186 23.4568 30.1981 22.0022 30.1981C20.5477 30.1981 17.42 30.3142 16.1082 29.7965C15.2337 29.4484 14.56 28.7745 14.2075 27.8953C13.6854 26.5788 13.8059 23.4549 13.8059 22C13.8059 20.5451 13.6899 17.4167 14.2075 16.1047C14.5555 15.2299 15.2292 14.5561 16.1082 14.2035C17.4244 13.6814 20.5477 13.8019 22.0022 13.8019C23.4568 13.8019 26.5845 13.6858 27.8963 14.2035C28.7708 14.5516 29.4445 15.2255 29.797 16.1047C30.319 17.4212 30.1985 20.5451 30.1985 22C30.1985 23.4549 30.319 26.5833 29.797 27.8953Z" fill="white"/>
</svg>
