<svg width="64" height="64" viewBox="0 0 64 64" fill="none" xmlns="http://www.w3.org/2000/svg">
<circle cx="32" cy="32" r="32" fill="#FFE603"/>
<path d="M41 36V37C41.5523 37 42 36.5523 42 36H41ZM35.1808 36.0276L34.9473 35.0553L35.1808 36.0276ZM34.8917 36.1474L34.3692 35.2947L34.8917 36.1474ZM29.5314 36.5314L28.8243 37.2385L28.8243 37.2385L29.5314 36.5314ZM29.8917 36.8526L29.3692 37.7053L29.8917 36.8526ZM30.1808 36.9724L29.9473 37.9447L30.1808 36.9724ZM33.8192 36.9724L34.0527 37.9447L33.8192 36.9724ZM34.1083 36.8526L34.6308 37.7053L34.1083 36.8526ZM39.908 24.218L39.454 25.109L39.908 24.218ZM40.782 25.092L39.891 25.546L40.782 25.092ZM29.4686 36.4686L30.1757 35.7615L30.1757 35.7615L29.4686 36.4686ZM29.1083 36.1474L29.6308 35.2947L29.1083 36.1474ZM28.8192 36.0276L29.0527 35.0553L28.8192 36.0276ZM24.092 24.218L24.546 25.109L24.092 24.218ZM23.218 25.092L24.109 25.546L23.218 25.092ZM40 35C39.4477 35 39 35.4477 39 36C39 36.5523 39.4477 37 40 37V35ZM23.4824 39.9319L23.7412 38.9659H23.7412L23.4824 39.9319ZM22.0681 38.5176L23.0341 38.2588L22.0681 38.5176ZM41.9319 38.5176L42.8978 38.7765L42.8978 38.7765L41.9319 38.5176ZM40.5176 39.9319L40.2588 38.9659L40.2588 38.9659L40.5176 39.9319ZM41.9659 36.7412L41 37L41 37L41.9659 36.7412ZM41.2588 36.0341L41.5176 35.0681V35.0681L41.2588 36.0341ZM26.2 25H37.8V23H26.2V25ZM40 27.2V36H42V27.2H40ZM24 36V27.2H22V36H24ZM30.2385 35.8243L30.1757 35.7615L28.7615 37.1757L28.8243 37.2385L30.2385 35.8243ZM28.3373 35H23V37H28.3373V35ZM33.3373 36H30.6627V38H33.3373V36ZM41 35H35.6627V37H41V35ZM33.8243 35.7615L33.7615 35.8243L35.1757 37.2385L35.2385 37.1757L33.8243 35.7615ZM35.6627 35C35.4658 35 35.2043 34.9936 34.9473 35.0553L35.4142 37C35.3891 37.006 35.3806 37.0042 35.4189 37.0024C35.4664 37.0002 35.5317 37 35.6627 37V35ZM35.2385 37.1757C35.3311 37.0831 35.3775 37.037 35.4126 37.005C35.441 36.9791 35.4362 36.9865 35.4142 37L34.3692 35.2947C34.1439 35.4328 33.9636 35.6222 33.8243 35.7615L35.2385 37.1757ZM34.9473 35.0553C34.7432 35.1043 34.5482 35.1851 34.3692 35.2947L35.4142 37L34.9473 35.0553ZM28.8243 37.2385C28.9636 37.3778 29.1439 37.5672 29.3692 37.7053L30.4142 36C30.4362 36.0135 30.441 36.0209 30.4126 35.995C30.3775 35.963 30.3311 35.9169 30.2385 35.8243L28.8243 37.2385ZM30.6627 36C30.5317 36 30.4664 35.9998 30.4189 35.9976C30.3806 35.9958 30.3891 35.994 30.4142 36L29.9473 37.9447C30.2043 38.0064 30.4658 38 30.6627 38V36ZM29.3692 37.7053C29.5482 37.8149 29.7432 37.8957 29.9473 37.9447L30.4142 36L29.3692 37.7053ZM33.3373 38C33.5342 38 33.7957 38.0064 34.0527 37.9447L33.5858 36C33.6109 35.994 33.6194 35.9958 33.5811 35.9976C33.5336 35.9998 33.4683 36 33.3373 36V38ZM33.7615 35.8243C33.6689 35.9169 33.6225 35.963 33.5874 35.995C33.559 36.0209 33.5638 36.0135 33.5858 36L34.6308 37.7053C34.8561 37.5672 35.0364 37.3778 35.1757 37.2385L33.7615 35.8243ZM34.0527 37.9447C34.2568 37.8957 34.4518 37.8149 34.6308 37.7053L33.5858 36L34.0527 37.9447ZM37.8 25C38.3766 25 38.7488 25.0008 39.0322 25.0239C39.3038 25.0461 39.4045 25.0838 39.454 25.109L40.362 23.327C39.9836 23.1342 39.5904 23.0629 39.195 23.0306C38.8114 22.9992 38.3436 23 37.8 23V25ZM42 27.2C42 26.6564 42.0008 26.1886 41.9694 25.805C41.9371 25.4096 41.8658 25.0164 41.673 24.638L39.891 25.546C39.9162 25.5955 39.9539 25.6962 39.9761 25.9678C39.9992 26.2512 40 26.6234 40 27.2H42ZM39.454 25.109C39.6422 25.2049 39.7951 25.3578 39.891 25.546L41.673 24.638C41.3854 24.0735 40.9265 23.6146 40.362 23.327L39.454 25.109ZM30.1757 35.7615C30.0364 35.6222 29.8561 35.4328 29.6308 35.2947L28.5858 37C28.5638 36.9865 28.559 36.9791 28.5874 37.005C28.6225 37.037 28.6689 37.0831 28.7615 37.1757L30.1757 35.7615ZM28.3373 37C28.4683 37 28.5336 37.0002 28.5811 37.0024C28.6194 37.0042 28.6109 37.006 28.5858 37L29.0527 35.0553C28.7957 34.9936 28.5342 35 28.3373 35V37ZM29.6308 35.2947C29.4518 35.1851 29.2568 35.1043 29.0527 35.0553L28.5858 37H28.5858L29.6308 35.2947ZM26.2 23C25.6564 23 25.1886 22.9992 24.805 23.0306C24.4096 23.0629 24.0164 23.1342 23.638 23.327L24.546 25.109C24.5955 25.0838 24.6962 25.0461 24.9678 25.0239C25.2512 25.0008 25.6234 25 26.2 25V23ZM24 27.2C24 26.6234 24.0008 26.2512 24.0239 25.9678C24.0461 25.6962 24.0838 25.5955 24.109 25.546L22.327 24.638C22.1342 25.0164 22.0629 25.4096 22.0306 25.805C21.9992 26.1886 22 26.6564 22 27.2H24ZM23.638 23.327C23.0735 23.6146 22.6146 24.0735 22.327 24.638L24.109 25.546C24.2049 25.3578 24.3578 25.2049 24.546 25.109L23.638 23.327ZM39.3333 39H24.6667V41H39.3333V39ZM23 37.3333V37H21V37.3333H23ZM40 37H40.6667V35H40V37ZM24.6667 39C23.9823 39 23.8363 38.9914 23.7412 38.9659L23.2235 40.8978C23.6371 41.0086 24.1111 41 24.6667 41V39ZM21 37.3333C21 37.8889 20.9914 38.3629 21.1022 38.7765L23.0341 38.2588C23.0086 38.1637 23 38.0177 23 37.3333H21ZM23.7412 38.9659C23.3961 38.8735 23.1265 38.6039 23.0341 38.2588L21.1022 38.7765C21.3796 39.8117 22.1883 40.6204 23.2235 40.8978L23.7412 38.9659ZM41 37.3333C41 38.0177 40.9914 38.1637 40.9659 38.2588L42.8978 38.7765C43.0086 38.3629 43 37.8889 43 37.3333H41ZM39.3333 41C39.8889 41 40.3629 41.0086 40.7765 40.8978L40.2588 38.9659C40.1637 38.9914 40.0177 39 39.3333 39V41ZM40.9659 38.2588C40.8735 38.6039 40.6039 38.8735 40.2588 38.9659L40.7765 40.8978C41.8117 40.6204 42.6204 39.8117 42.8978 38.7765L40.9659 38.2588ZM43 37.3333C43 37.0877 43.0086 36.7687 42.9319 36.4824L41 37C40.9905 36.9645 40.994 36.9543 40.9968 37.0143C40.9998 37.0796 41 37.1693 41 37.3333H43ZM40.6667 37C40.8307 37 40.9204 37.0002 40.9857 37.0032C41.0457 37.006 41.0355 37.0095 41 37L41.5176 35.0681C41.2312 34.9914 40.9123 35 40.6667 35V37ZM42.9319 36.4824C42.7469 35.7922 42.2078 35.2531 41.5176 35.0681L41 37L41 37L42.9319 36.4824ZM23 37V35C21.8954 35 21 35.8954 21 37H23Z" fill="#171717"/>
</svg>
