<svg width="64" height="64" viewBox="0 0 64 64" fill="none" xmlns="http://www.w3.org/2000/svg">
<circle cx="32" cy="32" r="32" fill="#FFE603"/>
<path d="M41 42C41.5523 42 42 41.5523 42 41C42 40.4477 41.5523 40 41 40V42ZM24 23C24 22.4477 23.5523 22 23 22C22.4477 22 22 22.4477 22 23H24ZM23.546 40.891L24 40L24 40L23.546 40.891ZM23.109 40.454L22.218 40.908L22.218 40.908L23.109 40.454ZM41 35V36C41.5523 36 42 35.5523 42 35H41ZM27.7071 26.2929C27.3166 25.9024 26.6834 25.9024 26.2929 26.2929C25.9024 26.6834 25.9024 27.3166 26.2929 27.7071L27.7071 26.2929ZM32.1545 31.7684L32.4635 32.7195L32.1545 31.7684ZM31.8455 31.7684L31.5365 32.7195L31.8455 31.7684ZM35.5657 29.5657L34.8586 30.2728L35.5657 29.5657ZM35.1545 29.2316L35.4635 28.2805L35.1545 29.2316ZM34.8455 29.2316L34.5365 28.2805L34.8455 29.2316ZM37 34C36.4477 34 36 34.4477 36 35C36 35.5523 36.4477 36 37 36V34ZM42 31C42 30.4477 41.5523 30 41 30C40.4477 30 40 30.4477 40 31H42ZM41 40H24.6V42H41V40ZM24 39.4V23H22V39.4H24ZM24.6 40C24.3035 40 24.1412 39.9992 24.0246 39.9897C23.9197 39.9811 23.9425 39.9707 24 40L23.092 41.782C23.3634 41.9203 23.6332 41.9644 23.8618 41.9831C24.0787 42.0008 24.3365 42 24.6 42V40ZM22 39.4C22 39.6635 21.9992 39.9213 22.0169 40.1382C22.0356 40.3668 22.0797 40.6366 22.218 40.908L24 40C24.0293 40.0575 24.0189 40.0803 24.0103 39.9754C24.0008 39.8588 24 39.6965 24 39.4H22ZM24 40L24 40L22.218 40.908C22.4097 41.2843 22.7157 41.5903 23.092 41.782L24 40ZM41.7071 34.2929L36.2728 28.8586L34.8586 30.2728L40.2929 35.7071L41.7071 34.2929ZM33.7272 28.8586L31.8586 30.7272L33.2728 32.1414L35.1414 30.2728L33.7272 28.8586ZM32.1414 30.7272L27.7071 26.2929L26.2929 27.7071L30.7272 32.1414L32.1414 30.7272ZM31.8586 30.7272C31.8075 30.7783 31.7702 30.8156 31.7381 30.8467C31.7059 30.8778 31.6892 30.8928 31.6815 30.8994C31.674 30.9057 31.6859 30.8947 31.7129 30.878C31.7426 30.8597 31.7875 30.8362 31.8455 30.8174L32.4635 32.7195C32.6962 32.6439 32.8648 32.5183 32.9758 32.4241C33.078 32.3373 33.1855 32.2288 33.2728 32.1414L31.8586 30.7272ZM30.7272 32.1414C30.8145 32.2288 30.922 32.3373 31.0242 32.4241C31.1352 32.5183 31.3038 32.6439 31.5365 32.7195L32.1545 30.8174C32.2125 30.8362 32.2574 30.8597 32.2871 30.878C32.3141 30.8947 32.326 30.9057 32.3185 30.8994C32.3108 30.8928 32.2941 30.8778 32.2619 30.8467C32.2298 30.8156 32.1925 30.7783 32.1414 30.7272L30.7272 32.1414ZM31.8455 30.8174C31.9459 30.7847 32.0541 30.7847 32.1545 30.8174L31.5365 32.7195C31.8377 32.8174 32.1623 32.8174 32.4635 32.7195L31.8455 30.8174ZM36.2728 28.8586C36.1855 28.7712 36.078 28.6627 35.9758 28.576C35.8648 28.4817 35.6962 28.3561 35.4635 28.2805L34.8455 30.1826C34.7875 30.1638 34.7426 30.1403 34.7129 30.122C34.6859 30.1053 34.674 30.0943 34.6815 30.1006C34.6892 30.1072 34.7059 30.1222 34.7381 30.1533C34.7702 30.1844 34.8075 30.2217 34.8586 30.2728L36.2728 28.8586ZM35.1414 30.2728C35.1925 30.2217 35.2298 30.1844 35.2619 30.1533C35.2941 30.1222 35.3108 30.1072 35.3185 30.1006C35.326 30.0943 35.3141 30.1053 35.2871 30.122C35.2574 30.1403 35.2125 30.1638 35.1545 30.1826L34.5365 28.2805C34.3038 28.3561 34.1352 28.4817 34.0242 28.5759C33.922 28.6627 33.8145 28.7712 33.7272 28.8586L35.1414 30.2728ZM35.4635 28.2805C35.1623 28.1826 34.8377 28.1826 34.5365 28.2805L35.1545 30.1826C35.0541 30.2153 34.9459 30.2153 34.8455 30.1826L35.4635 28.2805ZM37 36H41V34H37V36ZM42 35V31H40V35H42Z" fill="#171717"/>
</svg>
