<svg width="44" height="44" viewBox="0 0 44 44" fill="none" xmlns="http://www.w3.org/2000/svg">
<circle cx="22" cy="22" r="21.5" stroke="#CBCBCB"/>
<path fill-rule="evenodd" clip-rule="evenodd" d="M17.8599 15.9299C17.8599 16.9958 16.9958 17.8599 15.9299 17.8599C14.8641 17.8599 14 16.9958 14 15.9299C14 14.8641 14.8641 14 15.9299 14C16.9958 14 17.8599 14.8641 17.8599 15.9299ZM19.6824 30.0301V19.3228H22.8737V20.787H22.9187C23.3623 19.9464 24.4473 19.0582 26.0658 19.0582C29.437 19.0582 30.058 21.2748 30.058 24.1591V30.0309H26.7318V24.8233C26.7318 23.5823 26.7106 21.9849 25.0021 21.9849C23.2697 21.9849 23.0069 23.3379 23.0069 24.7351V30.0301H19.6824ZM17.5946 19.3228H14.2648V30.0301H17.5946V19.3228Z" fill="#171717"/>
</svg>
