<svg width="64" height="64" viewBox="0 0 64 64" fill="none" xmlns="http://www.w3.org/2000/svg">
<circle cx="32" cy="32" r="32" fill="#FFE603"/>
<path d="M36 30C36 30.5523 36.4477 31 37 31C37.5523 31 38 30.5523 38 30H36ZM26 30C26 30.5523 26.4477 31 27 31C27.5523 31 28 30.5523 28 30H26ZM33 34.5C33 33.9477 32.5523 33.5 32 33.5C31.4477 33.5 31 33.9477 31 34.5H33ZM31 36.5C31 37.0523 31.4477 37.5 32 37.5C32.5523 37.5 33 37.0523 33 36.5H31ZM25.638 40.673L25.184 41.564L25.638 40.673ZM24.327 39.362L23.436 39.816L24.327 39.362ZM39.673 39.362L40.564 39.816L39.673 39.362ZM38.362 40.673L38.816 41.564L38.362 40.673ZM38.362 30.327L38.816 29.436L38.362 30.327ZM39.673 31.638L40.564 31.184L39.673 31.638ZM25.638 30.327L25.184 29.436L25.638 30.327ZM24.327 31.638L23.436 31.184L24.327 31.638ZM36 28V30H38V28H36ZM28 30V28H26V30H28ZM32 24C34.2091 24 36 25.7909 36 28H38C38 24.6863 35.3137 22 32 22V24ZM32 22C28.6863 22 26 24.6863 26 28H28C28 25.7909 29.7909 24 32 24V22ZM31 34.5V36.5H33V34.5H31ZM28.8 31H35.2V29H28.8V31ZM39 34.8V36.2H41V34.8H39ZM35.2 40H28.8V42H35.2V40ZM25 36.2V34.8H23V36.2H25ZM28.8 40C27.9434 40 27.3611 39.9992 26.911 39.9624C26.4726 39.9266 26.2484 39.8617 26.092 39.782L25.184 41.564C25.6694 41.8113 26.1861 41.9099 26.7482 41.9558C27.2986 42.0008 27.9764 42 28.8 42V40ZM23 36.2C23 37.0236 22.9992 37.7014 23.0442 38.2518C23.0901 38.8139 23.1887 39.3306 23.436 39.816L25.218 38.908C25.1383 38.7516 25.0734 38.5274 25.0376 38.089C25.0008 37.6389 25 37.0566 25 36.2H23ZM26.092 39.782C25.7157 39.5903 25.4097 39.2843 25.218 38.908L23.436 39.816C23.8195 40.5686 24.4314 41.1805 25.184 41.564L26.092 39.782ZM39 36.2C39 37.0566 38.9992 37.6389 38.9624 38.089C38.9266 38.5274 38.8617 38.7516 38.782 38.908L40.564 39.816C40.8113 39.3306 40.9099 38.8139 40.9558 38.2518C41.0008 37.7014 41 37.0236 41 36.2H39ZM35.2 42C36.0236 42 36.7014 42.0008 37.2518 41.9558C37.8139 41.9099 38.3306 41.8113 38.816 41.564L37.908 39.782C37.7516 39.8617 37.5274 39.9266 37.089 39.9624C36.6389 39.9992 36.0566 40 35.2 40V42ZM38.782 38.908C38.5903 39.2843 38.2843 39.5903 37.908 39.782L38.816 41.564C39.5686 41.1805 40.1805 40.5686 40.564 39.816L38.782 38.908ZM35.2 31C36.0566 31 36.6389 31.0008 37.089 31.0376C37.5274 31.0734 37.7516 31.1383 37.908 31.218L38.816 29.436C38.3306 29.1887 37.8139 29.0901 37.2518 29.0442C36.7014 28.9992 36.0236 29 35.2 29V31ZM41 34.8C41 33.9764 41.0008 33.2986 40.9558 32.7482C40.9099 32.1861 40.8113 31.6694 40.564 31.184L38.782 32.092C38.8617 32.2484 38.9266 32.4726 38.9624 32.911C38.9992 33.3611 39 33.9434 39 34.8H41ZM37.908 31.218C38.2843 31.4097 38.5903 31.7157 38.782 32.092L40.564 31.184C40.1805 30.4314 39.5686 29.8195 38.816 29.436L37.908 31.218ZM28.8 29C27.9764 29 27.2986 28.9992 26.7482 29.0442C26.1861 29.0901 25.6694 29.1887 25.184 29.436L26.092 31.218C26.2484 31.1383 26.4726 31.0734 26.911 31.0376C27.3611 31.0008 27.9434 31 28.8 31V29ZM25 34.8C25 33.9434 25.0008 33.3611 25.0376 32.911C25.0734 32.4726 25.1383 32.2484 25.218 32.092L23.436 31.184C23.1887 31.6694 23.0901 32.1861 23.0442 32.7482C22.9992 33.2986 23 33.9764 23 34.8H25ZM25.184 29.436C24.4314 29.8195 23.8195 30.4314 23.436 31.184L25.218 32.092C25.4097 31.7157 25.7157 31.4097 26.092 31.218L25.184 29.436Z" fill="#171717"/>
</svg>
