<svg width="64" height="64" viewBox="0 0 64 64" fill="none" xmlns="http://www.w3.org/2000/svg">
<circle cx="32" cy="32" r="32" fill="#FFE603"/>
<path d="M32 42L31.2929 42.7071C31.6834 43.0976 32.3166 43.0976 32.7071 42.7071L32 42ZM34 30C34 31.1046 33.1046 32 32 32V34C34.2091 34 36 32.2091 36 30H34ZM32 32C30.8954 32 30 31.1046 30 30H28C28 32.2091 29.7909 34 32 34V32ZM30 30C30 28.8954 30.8954 28 32 28V26C29.7909 26 28 27.7909 28 30H30ZM32 28C33.1046 28 34 28.8954 34 30H36C36 27.7909 34.2091 26 32 26V28ZM39 30C39 31.8921 38.1468 33.678 36.7077 35.5467C35.2588 37.4281 33.3261 39.2597 31.2929 41.2929L32.7071 42.7071C34.6739 40.7403 36.7412 38.781 38.2923 36.767C39.8532 34.7402 41 32.5262 41 30H39ZM32.7071 41.2929C30.6739 39.2597 28.7412 37.4281 27.2923 35.5467C25.8532 33.678 25 31.8921 25 30H23C23 32.5262 24.1468 34.7402 25.7077 36.767C27.2588 38.781 29.3261 40.7403 31.2929 42.7071L32.7071 41.2929ZM25 30C25 26.134 28.134 23 32 23V21C27.0294 21 23 25.0294 23 30H25ZM32 23C35.866 23 39 26.134 39 30H41C41 25.0294 36.9706 21 32 21V23Z" fill="#171717"/>
</svg>
