<svg width="64" height="64" viewBox="0 0 64 64" fill="none" xmlns="http://www.w3.org/2000/svg">
<circle cx="32" cy="32" r="32" fill="#FFE603"/>
<path d="M33.2929 29.2929C32.9024 29.6834 32.9024 30.3166 33.2929 30.7071C33.6834 31.0976 34.3166 31.0976 34.7071 30.7071L33.2929 29.2929ZM41 23H42C42 22.4477 41.5523 22 41 22V23ZM30.7071 34.7071C31.0976 34.3166 31.0976 33.6834 30.7071 33.2929C30.3166 32.9024 29.6834 32.9024 29.2929 33.2929L30.7071 34.7071ZM23 41H22C22 41.2652 22.1054 41.5196 22.2929 41.7071C22.4804 41.8946 22.7348 42 23 42V41ZM35 22C34.4477 22 34 22.4477 34 23C34 23.5523 34.4477 24 35 24V22ZM40 29C40 29.5523 40.4477 30 41 30C41.5523 30 42 29.5523 42 29H40ZM29 42C29.5523 42 30 41.5523 30 41C30 40.4477 29.5523 40 29 40V42ZM24 35C24 34.4477 23.5523 34 23 34C22.4477 34 22 34.4477 22 35H24ZM34.7071 30.7071L41.7071 23.7071L40.2929 22.2929L33.2929 29.2929L34.7071 30.7071ZM29.2929 33.2929L22.2929 40.2929L23.7071 41.7071L30.7071 34.7071L29.2929 33.2929ZM35 24H41V22H35V24ZM40 23V29H42V23H40ZM29 40H23V42H29V40ZM24 41L24 35H22L22 41H24Z" fill="#171717"/>
</svg>
