<svg width="44" height="44" viewBox="0 0 44 44" fill="none" xmlns="http://www.w3.org/2000/svg">
<circle opacity="0.4" cx="22" cy="22" r="21.5" stroke="white"/>
<path d="M29.5633 16.6828L31 15.3023V15H26.0242L22.4781 23.8688L18.4445 15H13.2273V15.3023L14.9055 17.332C15.0695 17.482 15.1539 17.7023 15.1328 17.9227V25.8984C15.1844 26.1867 15.093 26.4797 14.8914 26.6883L13 28.9922V29.2898H18.3578V28.9875L16.4688 26.6906C16.3675 26.5879 16.2914 26.4631 16.2463 26.3261C16.2012 26.1891 16.1883 26.0436 16.2086 25.9008V19.0008L20.9125 29.2945H21.4586L25.5039 19.0008V27.2016C25.5039 27.4172 25.5039 27.4617 25.3633 27.6047L23.9078 29.018V29.3203H30.9672V29.018L29.5633 27.6375C29.4414 27.5438 29.3781 27.3867 29.4039 27.2344V17.0859C29.3918 17.0106 29.4002 16.9334 29.4282 16.8625C29.4563 16.7915 29.5029 16.7295 29.5633 16.6828V16.6828Z" fill="white"/>
</svg>
