<svg width="64" height="64" viewBox="0 0 64 64" fill="none" xmlns="http://www.w3.org/2000/svg">
<circle cx="32" cy="32" r="32" fill="#FFE603"/>
<path d="M23.7771 36.3374L24.7635 36.5017L23.7771 36.3374ZM23.8222 35.9839L24.8222 35.9837L23.8222 35.9839ZM23.6581 35.3845L22.7316 35.7608L23.6581 35.3845ZM23.798 35.7653L24.7738 35.5466L23.798 35.7653ZM24.1048 40.8159L24.2692 41.8023H24.2692L24.1048 40.8159ZM23.4112 40.8512L23.8054 39.9322L23.4112 40.8512ZM23.1841 39.8952L22.1977 39.7308L23.1841 39.8952ZM23.1488 40.5888L24.0678 40.1946L23.1488 40.5888ZM28.6155 40.3419L28.2392 41.2684L28.6155 40.3419ZM28.2347 40.202L28.016 41.1778L28.2347 40.202ZM27.6627 40.2229L27.4983 39.2365H27.4983L27.6627 40.2229ZM28.0161 40.1778L28.016 41.1778L28.0161 40.1778ZM27.5 31C26.9477 31 26.5 31.4477 26.5 32C26.5 32.5523 26.9477 33 27.5 33V31ZM27.51 33C28.0623 33 28.51 32.5523 28.51 32C28.51 31.4477 28.0623 31 27.51 31V33ZM32 31C31.4477 31 31 31.4477 31 32C31 32.5523 31.4477 33 32 33V31ZM32.01 33C32.5623 33 33.01 32.5523 33.01 32C33.01 31.4477 32.5623 31 32.01 31V33ZM36.5 31C35.9477 31 35.5 31.4477 35.5 32C35.5 32.5523 35.9477 33 36.5 33V31ZM36.51 33C37.0623 33 37.51 32.5523 37.51 32C37.51 31.4477 37.0623 31 36.51 31V33ZM32 42C37.5228 42 42 37.5228 42 32H40C40 36.4183 36.4183 40 32 40V42ZM28.2392 41.2684C29.4015 41.7405 30.6717 42 32 42V40C30.934 40 29.9191 39.792 28.9918 39.4154L28.2392 41.2684ZM24.2692 41.8023L27.827 41.2093L27.4983 39.2365L23.9404 39.8295L24.2692 41.8023ZM22.7907 36.173L22.1977 39.7308L24.1705 40.0596L24.7635 36.5017L22.7907 36.173ZM22 32C22 33.3283 22.2595 34.5985 22.7316 35.7608L24.5846 35.0082C24.208 34.0809 24 33.066 24 32H22ZM32 22C26.4772 22 22 26.4772 22 32H24C24 27.5817 27.5817 24 32 24V22ZM42 32C42 26.4772 37.5228 22 32 22V24C36.4183 24 40 27.5817 40 32H42ZM24.7635 36.5017C24.7875 36.3575 24.8222 36.1695 24.8222 35.9837L22.8222 35.984C22.8222 35.9632 22.8243 35.9576 22.82 35.9897C22.815 36.0266 22.8067 36.0769 22.7907 36.173L24.7635 36.5017ZM22.7316 35.7608C22.7742 35.8658 22.7987 35.9264 22.8155 35.9711C22.8322 36.0155 22.8281 36.0104 22.8222 35.984L24.7738 35.5466C24.7328 35.3635 24.6487 35.1662 24.5846 35.0082L22.7316 35.7608ZM24.8222 35.9837C24.8222 35.8292 24.8076 35.6974 24.7738 35.5466L22.8222 35.984L24.8222 35.9837ZM23.9404 39.8295C23.8448 39.8454 23.7724 39.8574 23.7105 39.8667C23.6484 39.876 23.6133 39.8799 23.5935 39.8813C23.5734 39.8829 23.5885 39.8803 23.624 39.8838C23.6639 39.8878 23.7292 39.8995 23.8054 39.9322L23.017 41.7703C23.3031 41.893 23.5739 41.8885 23.744 41.8757C23.9095 41.8632 24.1015 41.8302 24.2692 41.8023L23.9404 39.8295ZM22.1977 39.7308C22.1698 39.8985 22.1368 40.0905 22.1243 40.256C22.1115 40.4261 22.107 40.6969 22.2297 40.983L24.0678 40.1946C24.1005 40.2708 24.1122 40.3361 24.1162 40.376C24.1197 40.4115 24.1171 40.4266 24.1187 40.4065C24.1201 40.3867 24.124 40.3516 24.1333 40.2895C24.1426 40.2276 24.1546 40.1552 24.1705 40.0596L22.1977 39.7308ZM23.8054 39.9322C23.9233 39.9828 24.0172 40.0767 24.0678 40.1946L22.2297 40.983C22.3814 41.3367 22.6633 41.6186 23.017 41.7703L23.8054 39.9322ZM28.9918 39.4154C28.8338 39.3513 28.6365 39.2672 28.4534 39.2262L28.016 41.1778C27.9896 41.1719 27.9845 41.1678 28.0289 41.1845C28.0736 41.2013 28.1342 41.2258 28.2392 41.2684L28.9918 39.4154ZM27.827 41.2093C27.9231 41.1933 27.9734 41.185 28.0103 41.18C28.0424 41.1757 28.0368 41.1778 28.016 41.1778L28.0163 39.1778C27.8305 39.1778 27.6425 39.2125 27.4983 39.2365L27.827 41.2093ZM28.4534 39.2262C28.3026 39.1924 28.1708 39.1778 28.0163 39.1778L28.016 41.1778L28.4534 39.2262ZM27.5 33H27.51V31H27.5V33ZM27 32C27 31.7239 27.2239 31.5 27.5 31.5V33.5C28.3284 33.5 29 32.8284 29 32H27ZM27.5 31.5C27.7761 31.5 28 31.7239 28 32H26C26 32.8284 26.6716 33.5 27.5 33.5V31.5ZM28 32C28 32.2761 27.7761 32.5 27.5 32.5V30.5C26.6716 30.5 26 31.1716 26 32H28ZM27.5 32.5C27.2239 32.5 27 32.2761 27 32H29C29 31.1716 28.3284 30.5 27.5 30.5V32.5ZM32 33H32.01V31H32V33ZM31.5 32C31.5 31.7239 31.7239 31.5 32 31.5V33.5C32.8284 33.5 33.5 32.8284 33.5 32H31.5ZM32 31.5C32.2761 31.5 32.5 31.7239 32.5 32H30.5C30.5 32.8284 31.1716 33.5 32 33.5V31.5ZM32.5 32C32.5 32.2761 32.2761 32.5 32 32.5V30.5C31.1716 30.5 30.5 31.1716 30.5 32H32.5ZM32 32.5C31.7239 32.5 31.5 32.2761 31.5 32H33.5C33.5 31.1716 32.8284 30.5 32 30.5V32.5ZM36.5 33H36.51V31H36.5V33ZM36 32C36 31.7239 36.2239 31.5 36.5 31.5V33.5C37.3284 33.5 38 32.8284 38 32H36ZM36.5 31.5C36.7761 31.5 37 31.7239 37 32H35C35 32.8284 35.6716 33.5 36.5 33.5V31.5ZM37 32C37 32.2761 36.7761 32.5 36.5 32.5V30.5C35.6716 30.5 35 31.1716 35 32H37ZM36.5 32.5C36.2239 32.5 36 32.2761 36 32H38C38 31.1716 37.3284 30.5 36.5 30.5V32.5Z" fill="#171717"/>
</svg>
