<svg width="64" height="64" viewBox="0 0 64 64" fill="none" xmlns="http://www.w3.org/2000/svg">
<circle cx="32" cy="32" r="32" fill="#FFE603"/>
<path d="M24.3547 35.6408L25.2345 36.1161L24.3547 35.6408ZM24.5873 35.1469L25.5564 35.3936L24.5873 35.1469ZM24.443 34.2166L23.4954 34.536L24.443 34.2166ZM24.6151 34.8214L23.6182 34.9003L24.6151 34.8214ZM23.5052 39.8444L23.4023 38.8497L23.5052 39.8444ZM22.6288 39.8322L22.108 40.6859H22.108L22.6288 39.8322ZM22.7191 38.6684L21.8393 38.193L22.7191 38.6684ZM22.3952 39.4828L21.4073 39.6376L22.3952 39.4828ZM29.4448 39.4345L29.0853 40.3677L29.4448 39.4345ZM29.1159 39.3185L29.3404 38.344L29.1159 39.3185ZM28.6262 39.315L28.729 40.3097L28.6262 39.315ZM28.9295 39.2937L28.8913 40.2929L28.9295 39.2937ZM32.4996 41C37.7463 41 41.9996 36.7467 41.9996 31.5H39.9996C39.9996 35.6421 36.6418 39 32.4996 39V41ZM29.0853 40.3677C30.1462 40.7764 31.298 41 32.4996 41V39C31.5477 39 30.6394 38.8231 29.8043 38.5014L29.0853 40.3677ZM23.608 40.8391L28.729 40.3097L28.5234 38.3203L23.4023 38.8497L23.608 40.8391ZM23.4749 35.1655L21.8393 38.193L23.5989 39.1437L25.2345 36.1161L23.4749 35.1655ZM22.9996 31.5C22.9996 32.56 23.1736 33.5814 23.4954 34.536L25.3906 33.8972C25.1373 33.1458 24.9996 32.34 24.9996 31.5H22.9996ZM32.4996 22C27.2529 22 22.9996 26.2533 22.9996 31.5H24.9996C24.9996 27.3579 28.3575 24 32.4996 24V22ZM41.9996 31.5C41.9996 26.2533 37.7463 22 32.4996 22V24C36.6418 24 39.9996 27.3579 39.9996 31.5H41.9996ZM25.2345 36.1161C25.3416 35.918 25.4878 35.6631 25.5564 35.3936L23.6182 34.9003C23.6263 34.8683 23.6333 34.8615 23.6103 34.909C23.5846 34.962 23.5464 35.0332 23.4749 35.1655L25.2345 36.1161ZM23.4954 34.536C23.552 34.7039 23.5853 34.8033 23.6069 34.8766C23.629 34.9513 23.6216 34.9432 23.6182 34.9003L25.6119 34.7425C25.5898 34.4626 25.4759 34.1502 25.3906 33.8972L23.4954 34.536ZM25.5564 35.3936C25.6136 35.169 25.6302 34.9736 25.6119 34.7425L23.6182 34.9003C23.6191 34.9118 23.6191 34.9157 23.619 34.9145C23.619 34.9127 23.6191 34.9076 23.6197 34.9004C23.6203 34.8933 23.6211 34.8883 23.6214 34.8865C23.6217 34.8853 23.621 34.8891 23.6182 34.9003L25.5564 35.3936ZM23.4023 38.8497C23.2778 38.8625 23.1802 38.8726 23.0966 38.8798C23.0123 38.8871 22.9599 38.8898 22.9262 38.8902C22.891 38.8907 22.901 38.888 22.9361 38.8943C22.976 38.9015 23.0568 38.9219 23.1496 38.9785L22.108 40.6859C22.429 40.8818 22.7638 40.8923 22.9496 40.8901C23.1464 40.8878 23.3836 40.8623 23.608 40.8391L23.4023 38.8497ZM21.8393 38.193C21.732 38.3915 21.6177 38.601 21.5404 38.7819C21.4673 38.9527 21.3491 39.2661 21.4073 39.6376L23.3832 39.328C23.4 39.4353 23.3879 39.5178 23.3794 39.5574C23.3718 39.5923 23.3655 39.6005 23.3793 39.5681C23.3926 39.5372 23.4152 39.4898 23.4541 39.4147C23.4927 39.3402 23.5393 39.2539 23.5989 39.1437L21.8393 38.193ZM23.1496 38.9785C23.275 39.055 23.3604 39.1828 23.3832 39.328L21.4073 39.6376C21.4755 40.073 21.7318 40.4564 22.108 40.6859L23.1496 38.9785ZM29.8043 38.5014C29.6673 38.4486 29.4966 38.38 29.3404 38.344L28.8913 40.2929C28.8685 40.2877 28.8641 40.2845 28.9028 40.2984C28.9416 40.3124 28.9943 40.3326 29.0853 40.3677L29.8043 38.5014ZM28.729 40.3097C28.8116 40.3012 28.8547 40.2968 28.8863 40.2944C28.9138 40.2922 28.909 40.2936 28.8913 40.2929L28.9677 38.2944C28.8092 38.2883 28.6474 38.3075 28.5234 38.3203L28.729 40.3097ZM29.3404 38.344C29.2114 38.3143 29.1 38.2995 28.9677 38.2944L28.8913 40.2929V40.2929L29.3404 38.344Z" fill="#171717"/>
</svg>
