<svg width="64" height="64" viewBox="0 0 64 64" fill="none" xmlns="http://www.w3.org/2000/svg">
<circle cx="32" cy="32" r="32" fill="#FFE603"/>
<path d="M40 30C40 29.4477 39.5523 29 39 29C38.4477 29 38 29.4477 38 30H40ZM26 30C26 29.4477 25.5523 29 25 29C24.4477 29 24 29.4477 24 30H26ZM31 42C31 42.5523 31.4477 43 32 43C32.5523 43 33 42.5523 33 42H31ZM28 41C27.4477 41 27 41.4477 27 42C27 42.5523 27.4477 43 28 43V41ZM36 43C36.5523 43 37 42.5523 37 42C37 41.4477 36.5523 41 36 41V43ZM38 30V32H40V30H38ZM26 32V30H24V32H26ZM32 38C28.6863 38 26 35.3137 26 32H24C24 36.4183 27.5817 40 32 40V38ZM38 32C38 35.3137 35.3137 38 32 38V40C36.4183 40 40 36.4183 40 32H38ZM31 39V42H33V39H31ZM28 43H36V41H28V43ZM34 25V32H36V25H34ZM30 32V25H28V32H30ZM32 34C30.8954 34 30 33.1046 30 32H28C28 34.2091 29.7909 36 32 36V34ZM34 32C34 33.1046 33.1046 34 32 34V36C34.2091 36 36 34.2091 36 32H34ZM32 23C33.1046 23 34 23.8954 34 25H36C36 22.7909 34.2091 21 32 21V23ZM32 21C29.7909 21 28 22.7909 28 25H30C30 23.8954 30.8954 23 32 23V21Z" fill="#171717"/>
</svg>
