<svg width="64" height="64" viewBox="0 0 64 64" fill="none" xmlns="http://www.w3.org/2000/svg">
<circle cx="32" cy="32" r="32" fill="#FFE603"/>
<path d="M36.1314 40.8686L35.4243 40.1615L36.1314 40.8686ZM35.309 41.5368L35.618 42.4879L35.309 41.5368ZM33.8686 40.8686L33.1615 41.5757L33.1615 41.5757L33.8686 40.8686ZM34.691 41.5368L34.382 42.4879L34.691 41.5368ZM40.8686 33.8686L41.5757 33.1615L41.5757 33.1615L40.8686 33.8686ZM41.5368 34.691L42.4879 34.382L41.5368 34.691ZM40.8686 36.1314L41.5757 36.8385L40.8686 36.1314ZM41.5368 35.309L42.4879 35.618L41.5368 35.309ZM38.691 32.4632L38.382 31.5121L38.691 32.4632ZM40.1314 33.1314L39.4243 33.8385L39.4243 33.8385L40.1314 33.1314ZM39.309 32.4632L39.618 31.5121L39.309 32.4632ZM32.4632 38.691L31.5121 38.382L32.4632 38.691ZM33.1314 40.1314L33.8385 39.4243L33.8385 39.4243L33.1314 40.1314ZM32.4632 39.309L31.5121 39.618L32.4632 39.309ZM37.0194 33.1961C37.1277 33.7377 37.6546 34.0889 38.1961 33.9806C38.7377 33.8723 39.0889 33.3454 38.9806 32.8039L37.0194 33.1961ZM36.7004 26.5018L35.7198 26.6979L35.7198 26.6979L36.7004 26.5018ZM35.5069 25.2603L35.2722 26.2324L35.5069 25.2603ZM22 22L22.2346 21.0279C21.896 20.9462 21.5392 21.0466 21.2929 21.2929C21.0466 21.5392 20.9462 21.896 21.0279 22.2346L22 22ZM25.2603 35.5069L26.2324 35.2722L25.2603 35.5069ZM26.5018 36.7004L26.6979 35.7198L26.6979 35.7198L26.5018 36.7004ZM32.8039 38.9806C33.3454 39.0889 33.8723 38.7377 33.9806 38.1961C34.0889 37.6546 33.7377 37.1277 33.1961 37.0194L32.8039 38.9806ZM25.4846 36.1908L26.3223 35.6446L25.4846 36.1908ZM25.8095 36.5032L25.2968 37.3617L25.2968 37.3617L25.8095 36.5032ZM36.5032 25.8095L37.3617 25.2968L37.3617 25.2968L36.5032 25.8095ZM36.1908 25.4846L35.6446 26.3223L36.1908 25.4846ZM28.8789 30.2931C29.2694 30.6836 29.9026 30.6836 30.2931 30.2931C30.6836 29.9026 30.6836 29.2694 30.2931 28.8789L28.8789 30.2931ZM33.8385 38.5757L38.5757 33.8385L37.1615 32.4243L32.4243 37.1615L33.8385 38.5757ZM39.4243 33.8385L40.1615 34.5757L41.5757 33.1615L40.8385 32.4243L39.4243 33.8385ZM40.1615 35.4243L35.4243 40.1615L36.8385 41.5757L41.5757 36.8385L40.1615 35.4243ZM34.5757 40.1615L33.8385 39.4243L32.4243 40.8385L33.1615 41.5757L34.5757 40.1615ZM35.4243 40.1615C35.2146 40.3712 35.0993 40.4854 35.0101 40.5611C34.9299 40.6292 34.9386 40.6057 35 40.5858L35.618 42.4879C35.9078 42.3938 36.1296 42.2342 36.3045 42.0858C36.4704 41.9449 36.6521 41.7621 36.8385 41.5757L35.4243 40.1615ZM33.1615 41.5757C33.3479 41.7621 33.5296 41.9449 33.6955 42.0858C33.8704 42.2342 34.0922 42.3938 34.382 42.4879L35 40.5858C35.0614 40.6057 35.0701 40.6292 34.9899 40.5611C34.9007 40.4854 34.7854 40.3712 34.5757 40.1615L33.1615 41.5757ZM35 40.5858L34.382 42.4879C34.7837 42.6184 35.2163 42.6184 35.618 42.4879L35 40.5858ZM40.1615 34.5757C40.3712 34.7854 40.4854 34.9007 40.5611 34.9899C40.6292 35.0701 40.6057 35.0614 40.5858 35L42.4879 34.382C42.3938 34.0923 42.2342 33.8704 42.0858 33.6955C41.9449 33.5296 41.7621 33.3479 41.5757 33.1615L40.1615 34.5757ZM41.5757 36.8385C41.7621 36.6521 41.9449 36.4704 42.0858 36.3045C42.2342 36.1296 42.3938 35.9078 42.4879 35.618L40.5858 35C40.6057 34.9386 40.6292 34.9299 40.5611 35.0101C40.4854 35.0993 40.3712 35.2146 40.1615 35.4243L41.5757 36.8385ZM40.5858 35L42.4879 35.618C42.6184 35.2163 42.6184 34.7837 42.4879 34.382L40.5858 35ZM38.5757 33.8385C38.7854 33.6288 38.9007 33.5146 38.9899 33.4389C39.0701 33.3708 39.0614 33.3943 39 33.4142L38.382 31.5121C38.0922 31.6062 37.8704 31.7658 37.6955 31.9142C37.5296 32.0551 37.3479 32.2379 37.1615 32.4243L38.5757 33.8385ZM40.8385 32.4243C40.6521 32.2379 40.4704 32.0551 40.3045 31.9142C40.1296 31.7658 39.9078 31.6062 39.618 31.5121L39 33.4142C38.9386 33.3943 38.9299 33.3708 39.0101 33.4389C39.0993 33.5146 39.2146 33.6288 39.4243 33.8385L40.8385 32.4243ZM39 33.4142L39.618 31.5121C39.2163 31.3816 38.7837 31.3816 38.382 31.5121L39 33.4142ZM32.4243 37.1615C32.2379 37.3479 32.0551 37.5296 31.9142 37.6955C31.7658 37.8704 31.6062 38.0922 31.5121 38.382L33.4142 39C33.3943 39.0614 33.3708 39.0701 33.4389 38.9899C33.5146 38.9007 33.6288 38.7854 33.8385 38.5757L32.4243 37.1615ZM33.8385 39.4243C33.6288 39.2146 33.5146 39.0993 33.4389 39.0101C33.3708 38.9299 33.3943 38.9386 33.4142 39L31.5121 39.618C31.6062 39.9078 31.7658 40.1296 31.9142 40.3045C32.0551 40.4704 32.2379 40.6521 32.4243 40.8385L33.8385 39.4243ZM31.5121 38.382C31.3816 38.7837 31.3816 39.2163 31.5121 39.618L33.4142 39L31.5121 38.382ZM38.9806 32.8039L37.6809 26.3057L35.7198 26.6979L37.0194 33.1961L38.9806 32.8039ZM35.7415 24.2882L22.2346 21.0279L21.7654 22.9721L35.2722 26.2324L35.7415 24.2882ZM21.0279 22.2346L24.2882 35.7415L26.2324 35.2722L22.9721 21.7654L21.0279 22.2346ZM26.3057 37.6809L32.8039 38.9806L33.1961 37.0194L26.6979 35.7198L26.3057 37.6809ZM24.2882 35.7415C24.3574 36.0284 24.4364 36.4141 24.6469 36.737L26.3223 35.6446C26.3443 35.6784 26.3432 35.6928 26.3249 35.6337C26.3031 35.5631 26.2787 35.4642 26.2324 35.2722L24.2882 35.7415ZM26.6979 35.7198C26.5043 35.6811 26.4045 35.6606 26.3331 35.6415C26.2733 35.6256 26.2876 35.624 26.3223 35.6446L25.2968 37.3617C25.6278 37.5594 26.0163 37.6231 26.3057 37.6809L26.6979 35.7198ZM24.6469 36.737C24.8132 36.992 25.0355 37.2057 25.2968 37.3617L26.3223 35.6446L26.3223 35.6446L24.6469 36.737ZM37.6809 26.3057C37.6231 26.0163 37.5594 25.6278 37.3617 25.2968L35.6446 26.3223C35.624 26.2876 35.6256 26.2733 35.6415 26.3331C35.6606 26.4045 35.6811 26.5043 35.7198 26.6979L37.6809 26.3057ZM35.2722 26.2324C35.4642 26.2787 35.5631 26.3031 35.6337 26.3249C35.6928 26.3432 35.6784 26.3443 35.6446 26.3223L36.737 24.6469C36.4141 24.4364 36.0284 24.3574 35.7415 24.2882L35.2722 26.2324ZM37.3617 25.2968C37.2057 25.0355 36.992 24.8132 36.737 24.6469L35.6446 26.3223L35.6446 26.3223L37.3617 25.2968ZM21.2929 22.7071L28.8789 30.2931L30.2931 28.8789L22.7071 21.2929L21.2929 22.7071ZM32 31C32 31.5523 31.5523 32 31 32V34C32.6569 34 34 32.6569 34 31H32ZM31 32C30.4477 32 30 31.5523 30 31H28C28 32.6569 29.3431 34 31 34V32ZM30 31C30 30.4477 30.4477 30 31 30V28C29.3431 28 28 29.3431 28 31H30ZM31 30C31.5523 30 32 30.4477 32 31H34C34 29.3431 32.6569 28 31 28V30Z" fill="#171717"/>
</svg>
