<svg width="64" height="64" viewBox="0 0 64 64" fill="none" xmlns="http://www.w3.org/2000/svg">
<circle cx="32" cy="32" r="32" fill="#FFE603"/>
<path d="M28.3803 28.8534L27.4788 29.2862L27.4788 29.2862L28.3803 28.8534ZM35.2365 35.7096L35.6693 34.8081L35.6693 34.8081L35.2365 35.7096ZM23.1712 27.7614L24.1332 27.4884H24.1332L23.1712 27.7614ZM36.3284 40.9186L36.6014 39.9566L36.3284 40.9186ZM40.3783 35.6509L39.6712 36.358L39.6712 36.358L40.3783 35.6509ZM40.1835 35.4561L40.8906 34.749L40.8906 34.7489L40.1835 35.4561ZM39.4833 34.8174L40.0284 33.979L39.4833 34.8174ZM37.3029 34.8174L37.848 35.6557L37.848 35.6557L37.3029 34.8174ZM41.3198 38.5389L40.4275 38.0875L41.3198 38.5389ZM41.3198 36.7335L40.4275 37.1848V37.1848L41.3198 36.7335ZM29.2725 24.6066L30.1109 24.0615L30.1108 24.0615L29.2725 24.6066ZM29.2725 26.7869L28.4341 26.2418L28.4341 26.2418L29.2725 26.7869ZM25.551 22.77L25.0996 21.8776L25.0996 21.8776L25.551 22.77ZM27.3564 22.77L26.905 23.6623L27.3564 22.77ZM37.588 41.1601L37.591 40.1601L37.588 41.1601ZM39.0662 40.7757L38.5765 39.9039L38.5765 39.9039L39.0662 40.7757ZM22.9297 26.5018L23.9297 26.4988V26.4988L22.9297 26.5018ZM23.3141 25.0236L22.4423 24.5338L22.4423 24.5338L23.3141 25.0236ZM35.5024 35.8224L35.7823 34.8623H35.7823L35.5024 35.8224ZM36.3644 35.6754L36.9466 36.4884L36.9466 36.4884L36.3644 35.6754ZM28.2675 28.5874L27.3074 28.8673L27.3074 28.8673L28.2675 28.5874ZM28.4145 27.7254L27.6014 27.1432L27.6014 27.1432L28.4145 27.7254ZM31.9337 32.1561C30.8131 31.0354 29.9296 29.7698 29.2818 28.4205L27.4788 29.2862C28.223 30.8361 29.2371 32.2878 30.5195 33.5703L31.9337 32.1561ZM35.6693 34.8081C34.32 34.1603 33.0544 33.2768 31.9337 32.1561L30.5195 33.5703C31.802 34.8528 33.2537 35.8669 34.8037 36.611L35.6693 34.8081ZM28.7518 35.3381C26.4874 33.0737 24.9488 30.362 24.1332 27.4884L22.2092 28.0345C23.1156 31.2277 24.8259 34.2406 27.3376 36.7523L28.7518 35.3381ZM36.6014 39.9566C33.7279 39.141 31.0161 37.6024 28.7518 35.3381L27.3376 36.7523C29.8492 39.2639 32.8621 40.9743 36.0554 41.8806L36.6014 39.9566ZM25.0179 24.5762L25.1755 24.4186L23.7613 23.0044L23.6037 23.162L25.0179 24.5762ZM27.7318 24.4186L27.9267 24.6135L29.3409 23.1993L29.146 23.0044L27.7318 24.4186ZM40.9278 40.4861L41.0854 40.3285L39.6712 38.9143L39.5136 39.0719L40.9278 40.4861ZM41.0854 34.9438L40.8906 34.749L39.4764 36.1632L39.6712 36.358L41.0854 34.9438ZM40.8906 34.7489C40.5771 34.4354 40.3142 34.1648 40.0284 33.979L38.9382 35.6557C39.0039 35.6985 39.0907 35.7775 39.4764 36.1632L40.8906 34.7489ZM37.3098 36.1632C37.6955 35.7775 37.7823 35.6985 37.848 35.6557L36.7578 33.979C36.472 34.1648 36.2091 34.4354 35.8956 34.7489L37.3098 36.1632ZM40.0284 33.979C39.034 33.3325 37.7522 33.3325 36.7578 33.979L37.848 35.6557C38.1795 35.4402 38.6067 35.4402 38.9382 35.6557L40.0284 33.979ZM41.0854 40.3285C41.5613 39.8526 41.9775 39.4542 42.2122 38.9902L40.4275 38.0875C40.3735 38.1942 40.2582 38.3273 39.6712 38.9143L41.0854 40.3285ZM39.6712 36.358C40.2583 36.9451 40.3735 37.0781 40.4275 37.1848L42.2122 36.2821C41.9775 35.8181 41.5613 35.4197 41.0854 34.9438L39.6712 36.358ZM42.2122 38.9902C42.6428 38.1389 42.6428 37.1335 42.2122 36.2821L40.4275 37.1848C40.571 37.4686 40.571 37.8037 40.4275 38.0875L42.2122 38.9902ZM27.9267 24.6135C28.3124 24.9992 28.3914 25.0859 28.4341 25.1516L30.1108 24.0615C29.925 23.7756 29.6544 23.5128 29.3409 23.1993L27.9267 24.6135ZM29.3409 28.1942C29.6544 27.8807 29.925 27.6178 30.1109 27.332L28.4341 26.2418C28.3914 26.3076 28.3124 26.3943 27.9267 26.78L29.3409 28.1942ZM28.4341 25.1516C28.6496 25.4831 28.6496 25.9104 28.4341 26.2418L30.1108 27.332C30.7573 26.3377 30.7573 25.0558 30.1109 24.0615L28.4341 25.1516ZM25.1755 24.4186C25.7626 23.8316 25.8956 23.7163 26.0023 23.6623L25.0996 21.8776C24.6356 22.1124 24.2372 22.5285 23.7613 23.0044L25.1755 24.4186ZM29.146 23.0044C28.6702 22.5285 28.2718 22.1124 27.8077 21.8776L26.905 23.6623C27.0117 23.7163 27.1448 23.8316 27.7318 24.4186L29.146 23.0044ZM26.0023 23.6623C26.2861 23.5188 26.6212 23.5188 26.905 23.6623L27.8077 21.8776C26.9564 21.447 25.951 21.447 25.0996 21.8776L26.0023 23.6623ZM36.0554 41.8806C36.602 42.0358 37.0134 42.1584 37.585 42.1601L37.591 40.1601C37.3368 40.1594 37.1837 40.1219 36.6014 39.9566L36.0554 41.8806ZM39.5136 39.0719C38.9534 39.6321 38.7914 39.7831 38.5765 39.9039L39.556 41.6476C40.0612 41.3638 40.4288 40.9852 40.9278 40.4861L39.5136 39.0719ZM37.585 42.1601C38.2158 42.162 39.0061 41.9565 39.556 41.6476L38.5765 39.9039C38.3274 40.0438 37.8767 40.161 37.591 40.1601L37.585 42.1601ZM24.1332 27.4884C23.968 26.9061 23.9304 26.7531 23.9297 26.4988L21.9297 26.5048C21.9314 27.0765 22.0541 27.4878 22.2092 28.0345L24.1332 27.4884ZM23.6037 23.162C23.1047 23.6611 22.726 24.0287 22.4423 24.5338L24.186 25.5134C24.3067 25.2985 24.4577 25.1365 25.0179 24.5762L23.6037 23.162ZM23.9297 26.4988C23.9288 26.2132 24.0461 25.7624 24.186 25.5134L22.4423 24.5338C22.1333 25.0838 21.9278 25.874 21.9297 26.5048L23.9297 26.4988ZM34.8037 36.611C34.9095 36.6618 35.0495 36.7319 35.2226 36.7824L35.7823 34.8623C35.7917 34.8651 35.7966 34.8676 35.7854 34.8627C35.7775 34.8593 35.7655 34.8539 35.7454 34.8444C35.725 34.8348 35.7014 34.8235 35.6693 34.8081L34.8037 36.611ZM35.8956 34.7489C35.8341 34.8105 35.8046 34.8398 35.7825 34.8605C35.7657 34.8762 35.7692 34.8717 35.7823 34.8623L36.9466 36.4884C37.0952 36.382 37.2167 36.2562 37.3098 36.1632L35.8956 34.7489ZM35.2226 36.7824C35.7976 36.95 36.4596 36.8371 36.9466 36.4884L35.7823 34.8623C35.7932 34.8545 35.7985 34.8527 35.7963 34.8536C35.7942 34.8544 35.7889 34.8562 35.7814 34.8575C35.7739 34.8588 35.7683 34.8588 35.7661 34.8587C35.7638 34.8586 35.7694 34.8585 35.7823 34.8623L35.2226 36.7824ZM29.2818 28.4205C29.2663 28.3884 29.255 28.3649 29.2454 28.3444C29.236 28.3243 29.2305 28.3123 29.2271 28.3045C29.2222 28.2932 29.2248 28.2982 29.2275 28.3076L27.3074 28.8673C27.3579 29.0403 27.428 29.1804 27.4788 29.2862L29.2818 28.4205ZM27.9267 26.78C27.8336 26.8731 27.7078 26.9946 27.6014 27.1432L29.2275 28.3076C29.2182 28.3206 29.2136 28.3241 29.2294 28.3073C29.25 28.2853 29.2794 28.2557 29.3409 28.1942L27.9267 26.78ZM29.2275 28.3076C29.2313 28.3205 29.2312 28.3261 29.2311 28.3237C29.231 28.3215 29.2311 28.3159 29.2323 28.3084C29.2336 28.3009 29.2354 28.2956 29.2362 28.2935C29.2371 28.2913 29.2353 28.2966 29.2275 28.3076L27.6014 27.1432C27.2527 27.6302 27.1398 28.2922 27.3074 28.8673L29.2275 28.3076Z" fill="#171717"/>
</svg>
