<svg width="64" height="64" viewBox="0 0 64 64" fill="none" xmlns="http://www.w3.org/2000/svg">
<circle cx="32" cy="32" r="32" fill="#FFE603"/>
<path d="M32 37.5H32.01M28.2 42H35.8C36.9201 42 37.4802 42 37.908 41.782C38.2843 41.5903 38.5903 41.2843 38.782 40.908C39 40.4802 39 39.9201 39 38.8V25.2C39 24.0799 39 23.5198 38.782 23.092C38.5903 22.7157 38.2843 22.4097 37.908 22.218C37.4802 22 36.9201 22 35.8 22H28.2C27.0799 22 26.5198 22 26.092 22.218C25.7157 22.4097 25.4097 22.7157 25.218 23.092C25 23.5198 25 24.0799 25 25.2V38.8C25 39.9201 25 40.4802 25.218 40.908C25.4097 41.2843 25.7157 41.5903 26.092 41.782C26.5198 42 27.0799 42 28.2 42ZM32.5 37.5C32.5 37.7761 32.2761 38 32 38C31.7239 38 31.5 37.7761 31.5 37.5C31.5 37.2239 31.7239 37 32 37C32.2761 37 32.5 37.2239 32.5 37.5Z" stroke="#171717" stroke-width="2" stroke-linecap="round" stroke-linejoin="round"/>
</svg>
