<svg width="64" height="64" viewBox="0 0 64 64" fill="none" xmlns="http://www.w3.org/2000/svg">
<circle cx="32" cy="32" r="32" fill="#FFE603"/>
<path d="M26.092 41.782L26.546 40.891L26.092 41.782ZM25.218 40.908L26.109 40.454L25.218 40.908ZM38.782 40.908L37.891 40.454L38.782 40.908ZM37.908 41.782L37.454 40.891L37.908 41.782ZM37.908 22.218L37.454 23.109L37.908 22.218ZM38.782 23.092L37.891 23.546L38.782 23.092ZM26.092 22.218L26.546 23.109L26.092 22.218ZM25.218 23.092L26.109 23.546L25.218 23.092ZM32 36.5C31.4477 36.5 31 36.9477 31 37.5C31 38.0523 31.4477 38.5 32 38.5V36.5ZM32.01 38.5C32.5623 38.5 33.01 38.0523 33.01 37.5C33.01 36.9477 32.5623 36.5 32.01 36.5V38.5ZM28.2 23H35.8V21H28.2V23ZM38 25.2V38.8H40V25.2H38ZM35.8 41H28.2V43H35.8V41ZM26 38.8V25.2H24V38.8H26ZM28.2 41C27.6234 41 27.2512 40.9992 26.9678 40.9761C26.6962 40.9539 26.5955 40.9162 26.546 40.891L25.638 42.673C26.0164 42.8658 26.4096 42.9371 26.805 42.9694C27.1886 43.0008 27.6564 43 28.2 43V41ZM24 38.8C24 39.3436 23.9992 39.8114 24.0306 40.195C24.0629 40.5904 24.1342 40.9836 24.327 41.362L26.109 40.454C26.0838 40.4045 26.0461 40.3038 26.0239 40.0322C26.0008 39.7488 26 39.3766 26 38.8H24ZM26.546 40.891C26.3578 40.7951 26.2049 40.6422 26.109 40.454L24.327 41.362C24.6146 41.9265 25.0735 42.3854 25.638 42.673L26.546 40.891ZM38 38.8C38 39.3766 37.9992 39.7488 37.9761 40.0322C37.9539 40.3038 37.9162 40.4045 37.891 40.454L39.673 41.362C39.8658 40.9836 39.9371 40.5904 39.9694 40.195C40.0008 39.8114 40 39.3436 40 38.8H38ZM35.8 43C36.3436 43 36.8114 43.0008 37.195 42.9694C37.5904 42.9371 37.9836 42.8658 38.362 42.673L37.454 40.891C37.4045 40.9162 37.3038 40.9539 37.0322 40.9761C36.7488 40.9992 36.3766 41 35.8 41V43ZM37.891 40.454C37.7951 40.6422 37.6422 40.7951 37.454 40.891L38.362 42.673C38.9265 42.3854 39.3854 41.9265 39.673 41.362L37.891 40.454ZM35.8 23C36.3766 23 36.7488 23.0008 37.0322 23.0239C37.3038 23.0461 37.4045 23.0838 37.454 23.109L38.362 21.327C37.9836 21.1342 37.5904 21.0629 37.195 21.0306C36.8114 20.9992 36.3436 21 35.8 21V23ZM40 25.2C40 24.6564 40.0008 24.1886 39.9694 23.805C39.9371 23.4096 39.8658 23.0164 39.673 22.638L37.891 23.546C37.9162 23.5955 37.9539 23.6962 37.9761 23.9678C37.9992 24.2512 38 24.6234 38 25.2H40ZM37.454 23.109C37.6422 23.2049 37.7951 23.3578 37.891 23.546L39.673 22.638C39.3854 22.0735 38.9265 21.6146 38.362 21.327L37.454 23.109ZM28.2 21C27.6564 21 27.1886 20.9992 26.805 21.0306C26.4096 21.0629 26.0164 21.1342 25.638 21.327L26.546 23.109C26.5955 23.0838 26.6962 23.0461 26.9678 23.0239C27.2512 23.0008 27.6234 23 28.2 23V21ZM26 25.2C26 24.6234 26.0008 24.2512 26.0239 23.9678C26.0461 23.6962 26.0838 23.5955 26.109 23.546L24.327 22.638C24.1342 23.0164 24.0629 23.4096 24.0306 23.805C23.9992 24.1886 24 24.6564 24 25.2H26ZM25.638 21.327C25.0735 21.6146 24.6146 22.0735 24.327 22.638L26.109 23.546C26.2049 23.3578 26.3578 23.2049 26.546 23.109L25.638 21.327ZM32 38.5H32.01V36.5H32V38.5ZM31.5 37.5C31.5 37.2239 31.7239 37 32 37V39C32.8284 39 33.5 38.3284 33.5 37.5H31.5ZM32 37C32.2761 37 32.5 37.2239 32.5 37.5H30.5C30.5 38.3284 31.1716 39 32 39V37ZM32.5 37.5C32.5 37.7761 32.2761 38 32 38V36C31.1716 36 30.5 36.6716 30.5 37.5H32.5ZM32 38C31.7239 38 31.5 37.7761 31.5 37.5H33.5C33.5 36.6716 32.8284 36 32 36V38Z" fill="#171717"/>
</svg>
