<svg width="64" height="64" viewBox="0 0 64 64" fill="none" xmlns="http://www.w3.org/2000/svg">
<circle cx="32" cy="32" r="32" fill="#FFE603"/>
<path d="M32 32H31C31 32.2112 31.0669 32.4169 31.191 32.5878L32 32ZM37.8779 40.0902L37.0688 40.678C37.3935 41.1248 38.0188 41.2238 38.4656 40.8992L37.8779 40.0902ZM32 23C33.1819 23 34.3522 23.2328 35.4442 23.6851L36.2095 21.8373C34.8749 21.2845 33.4445 21 32 21V23ZM35.4442 23.6851C36.5361 24.1374 37.5282 24.8003 38.364 25.636L39.7782 24.2218C38.7567 23.2004 37.5441 22.3901 36.2095 21.8373L35.4442 23.6851ZM38.364 25.636C39.1997 26.4718 39.8626 27.4639 40.3149 28.5559L42.1627 27.7905C41.6099 26.4559 40.7996 25.2433 39.7782 24.2218L38.364 25.636ZM40.3149 28.5559C40.7672 29.6478 41 30.8181 41 32L43 32C43 30.5555 42.7155 29.1251 42.1627 27.7905L40.3149 28.5559ZM42 31L32 31L32 33L42 33V31ZM33 32V22H31V32H33ZM41 32C41 33.4203 40.6639 34.8204 40.0191 36.0859L41.8011 36.9939C42.5892 35.4472 43 33.7359 43 32H41ZM40.0191 36.0859C39.3743 37.3514 38.4391 38.4463 37.2901 39.2812L38.4656 40.8992C39.87 39.8788 41.013 38.5406 41.8011 36.9939L40.0191 36.0859ZM38.6869 39.5024L32.809 31.4122L31.191 32.5878L37.0688 40.678L38.6869 39.5024ZM41 32C41 36.9706 36.9706 41 32 41V43C38.0751 43 43 38.0751 43 32H41ZM32 41C27.0294 41 23 36.9706 23 32H21C21 38.0751 25.9249 43 32 43V41ZM23 32C23 27.0294 27.0294 23 32 23V21C25.9249 21 21 25.9249 21 32H23ZM32 23C36.9706 23 41 27.0294 41 32H43C43 25.9249 38.0751 21 32 21V23Z" fill="#171717"/>
</svg>
