<svg width="64" height="64" viewBox="0 0 64 64" fill="none" xmlns="http://www.w3.org/2000/svg">
<circle cx="32" cy="32" r="32" fill="#FFE603"/>
<path d="M33 36C33 35.4477 32.5523 35 32 35C31.4477 35 31 35.4477 31 36H33ZM31 41C31 41.5523 31.4477 42 32 42C32.5523 42 33 41.5523 33 41H31ZM34.0486 37.7072L33.4084 38.4754L34.0486 37.7072ZM37.3598 41.7682C37.7841 42.1218 38.4147 42.0645 38.7682 41.6402C39.1218 41.2159 39.0645 40.5853 38.6402 40.2318L37.3598 41.7682ZM25.3598 40.2318C24.9355 40.5853 24.8782 41.2159 25.2318 41.6402C25.5853 42.0645 26.2159 42.1218 26.6402 41.7682L25.3598 40.2318ZM29.9514 37.7072L29.3112 36.9389V36.9389L29.9514 37.7072ZM32.5487 36.6801L32.2743 37.6418L32.5487 36.6801ZM31.4513 36.6801L31.7257 37.6418L31.4513 36.6801ZM23 23V22C22.4477 22 22 22.4477 22 23H23ZM41 23H42C42 22.4477 41.5523 22 41 22V23ZM24.638 35.673L24.184 36.564L24.638 35.673ZM23.327 34.362L22.436 34.816L23.327 34.362ZM40.673 34.362L41.564 34.816L40.673 34.362ZM39.362 35.673L39.816 36.564L39.362 35.673ZM29 31C29 30.4477 28.5523 30 28 30C27.4477 30 27 30.4477 27 31H29ZM27 32C27 32.5523 27.4477 33 28 33C28.5523 33 29 32.5523 29 32H27ZM33 29C33 28.4477 32.5523 28 32 28C31.4477 28 31 28.4477 31 29H33ZM31 32C31 32.5523 31.4477 33 32 33C32.5523 33 33 32.5523 33 32H31ZM37 27C37 26.4477 36.5523 26 36 26C35.4477 26 35 26.4477 35 27H37ZM35 32C35 32.5523 35.4477 33 36 33C36.5523 33 37 32.5523 37 32H35ZM42 24C42.5523 24 43 23.5523 43 23C43 22.4477 42.5523 22 42 22V24ZM22 22C21.4477 22 21 22.4477 21 23C21 23.5523 21.4477 24 22 24V22ZM31 36V41H33V36H31ZM33.4084 38.4754L37.3598 41.7682L38.6402 40.2318L34.6888 36.9389L33.4084 38.4754ZM26.6402 41.7682L30.5916 38.4754L29.3112 36.9389L25.3598 40.2318L26.6402 41.7682ZM34.6888 36.9389C34.3358 36.6448 34.0294 36.3886 33.7588 36.1955C33.478 35.995 33.1793 35.8202 32.823 35.7185L32.2743 37.6418C32.3248 37.6562 32.4117 37.6911 32.5969 37.8234C32.7924 37.9629 33.0326 38.1622 33.4084 38.4754L34.6888 36.9389ZM30.5916 38.4754C30.9674 38.1622 31.2076 37.9629 31.4031 37.8234C31.5883 37.6911 31.6752 37.6562 31.7257 37.6418L31.177 35.7185C30.8207 35.8202 30.522 35.995 30.2412 36.1955C29.9706 36.3886 29.6642 36.6448 29.3112 36.9389L30.5916 38.4754ZM32.823 35.7185C32.2851 35.5651 31.7149 35.5651 31.177 35.7185L31.7257 37.6418C31.905 37.5906 32.095 37.5906 32.2743 37.6418L32.823 35.7185ZM23 24H41V22H23V24ZM40 23V31.2H42V23H40ZM36.2 35H27.8V37H36.2V35ZM24 31.2V23H22V31.2H24ZM27.8 35C26.9434 35 26.3611 34.9992 25.911 34.9624C25.4726 34.9266 25.2484 34.8617 25.092 34.782L24.184 36.564C24.6694 36.8113 25.1861 36.9099 25.7482 36.9558C26.2986 37.0008 26.9764 37 27.8 37V35ZM22 31.2C22 32.0236 21.9992 32.7014 22.0442 33.2518C22.0901 33.8139 22.1887 34.3306 22.436 34.816L24.218 33.908C24.1383 33.7516 24.0734 33.5274 24.0376 33.089C24.0008 32.6389 24 32.0566 24 31.2H22ZM25.092 34.782C24.7157 34.5903 24.4097 34.2843 24.218 33.908L22.436 34.816C22.8195 35.5686 23.4314 36.1805 24.184 36.564L25.092 34.782ZM40 31.2C40 32.0566 39.9992 32.6389 39.9624 33.089C39.9266 33.5274 39.8617 33.7516 39.782 33.908L41.564 34.816C41.8113 34.3306 41.9099 33.8139 41.9558 33.2518C42.0008 32.7014 42 32.0236 42 31.2H40ZM36.2 37C37.0236 37 37.7014 37.0008 38.2518 36.9558C38.8139 36.9099 39.3306 36.8113 39.816 36.564L38.908 34.782C38.7516 34.8617 38.5274 34.9266 38.089 34.9624C37.6389 34.9992 37.0566 35 36.2 35V37ZM39.782 33.908C39.5903 34.2843 39.2843 34.5903 38.908 34.782L39.816 36.564C40.5686 36.1805 41.1805 35.5686 41.564 34.816L39.782 33.908ZM27 31V32H29V31H27ZM31 29V32H33V29H31ZM35 27V32H37V27H35ZM42 22H22V24H42V22Z" fill="#171717"/>
</svg>
