<svg width="64" height="64" viewBox="0 0 64 64" fill="none" xmlns="http://www.w3.org/2000/svg">
<circle cx="32" cy="32" r="32" fill="#FFE603"/>
<path d="M36.2499 39.3606L35.7499 38.4945L36.2499 39.3606ZM39.3612 27.7493L40.2272 27.2493L39.3612 27.7493ZM28.9519 38.8527C28.4471 38.6287 27.8562 38.8564 27.6323 39.3612C27.4083 39.8661 27.636 40.4569 28.1408 40.6809L28.9519 38.8527ZM39.9772 26.8163C39.701 26.338 39.0895 26.1742 38.6112 26.4503C38.1329 26.7264 37.969 27.338 38.2451 27.8163L39.9772 26.8163ZM27.7495 24.6382L28.2495 25.5043L27.7495 24.6382ZM23.7722 36.7495C24.0484 37.2278 24.66 37.3916 25.1383 37.1155C25.6166 36.8393 25.7804 36.2278 25.5043 35.7495L23.7722 36.7495ZM35.0475 25.1461C35.5524 25.3701 36.1432 25.1424 36.3671 24.6376C36.5911 24.1327 36.3634 23.5419 35.8586 23.318L35.0475 25.1461ZM22.752 35.3672C22.2185 35.2242 21.6702 35.5408 21.5272 36.0743C21.3843 36.6078 21.7009 37.1561 22.2343 37.299L22.752 35.3672ZM25.2252 37.0652L24.9664 38.0311C25.2226 38.0997 25.4955 38.0638 25.7252 37.9312C25.9549 37.7986 26.1225 37.5802 26.1911 37.324L25.2252 37.0652ZM26.9232 34.5919C27.0661 34.0585 26.7496 33.5101 26.2161 33.3672C25.6826 33.2242 25.1343 33.5408 24.9913 34.0743L26.9232 34.5919ZM37.0765 29.4063C36.9335 29.9398 37.2501 30.4881 37.7836 30.6311C38.317 30.774 38.8654 30.4574 39.0083 29.924L37.0765 29.4063ZM38.7744 26.9331L39.0333 25.9672C38.4998 25.8242 37.9515 26.1408 37.8085 26.6743L38.7744 26.9331ZM41.2477 28.6311C41.7811 28.774 42.3295 28.4574 42.4724 27.924C42.6154 27.3905 42.2988 26.8422 41.7653 26.6992L41.2477 28.6311ZM36.7499 40.2266C41.2937 37.6032 42.8505 31.7931 40.2272 27.2493L38.4951 28.2493C40.5662 31.8365 39.3371 36.4235 35.7499 38.4945L36.7499 40.2266ZM28.1408 40.6809C30.8196 41.8693 34.0144 41.8059 36.7499 40.2266L35.7499 38.4945C33.5915 39.7407 31.0714 39.793 28.9519 38.8527L28.1408 40.6809ZM40.2272 27.2493L39.9772 26.8163L38.2451 27.8163L38.4951 28.2493L40.2272 27.2493ZM27.2495 23.7722C22.7057 26.3956 21.1489 32.2057 23.7722 36.7495L25.5043 35.7495C23.4332 32.1623 24.6623 27.5753 28.2495 25.5043L27.2495 23.7722ZM35.8586 23.318C33.1798 22.1295 29.985 22.1929 27.2495 23.7722L28.2495 25.5043C30.4079 24.2581 32.928 24.2058 35.0475 25.1461L35.8586 23.318ZM22.2343 37.299L24.9664 38.0311L25.484 36.0992L22.752 35.3672L22.2343 37.299ZM26.1911 37.324L26.9232 34.5919L24.9913 34.0743L24.2593 36.8063L26.1911 37.324ZM39.0083 29.924L39.7404 27.1919L37.8085 26.6743L37.0765 29.4063L39.0083 29.924ZM38.5156 27.899L41.2477 28.6311L41.7653 26.6992L39.0333 25.9672L38.5156 27.899Z" fill="#171717"/>
</svg>
