<svg width="64" height="64" viewBox="0 0 64 64" fill="none" xmlns="http://www.w3.org/2000/svg">
<circle cx="32" cy="32" r="32" fill="#FFE603"/>
<path d="M33.7067 31.7065C34.0973 31.316 34.0973 30.6828 33.7067 30.2923C33.3162 29.9018 32.6831 29.9018 32.2925 30.2923L33.7067 31.7065ZM22.7925 39.7923C22.402 40.1828 22.402 40.816 22.7925 41.2065C23.1831 41.5971 23.8162 41.5971 24.2067 41.2065L22.7925 39.7923ZM34.571 22.7046C34.1108 22.3993 33.4902 22.5248 33.1848 22.985C32.8795 23.4452 33.005 24.0658 33.4652 24.3711L34.571 22.7046ZM39.5425 30.4586C39.8471 30.9193 40.4674 31.0459 40.9282 30.7414C41.3889 30.4368 41.5155 29.8164 41.2109 29.3557L39.5425 30.4586ZM39.3482 22.2701L39.5126 23.2565L39.3482 22.2701ZM41.6498 24.5717L40.6634 24.4073L41.6498 24.5717ZM26.446 30.898L25.7157 30.2148L26.446 30.898ZM33.022 37.474L32.3388 36.7437L33.022 37.474ZM40.8321 29.4782L41.8185 29.6426L40.8321 29.4782ZM40.0911 30.8609L39.408 30.1306L40.0911 30.8609ZM34.4418 23.0879L34.2774 22.1015L34.4418 23.0879ZM33.0591 23.8288L33.7893 24.512L33.0591 23.8288ZM26.3797 26.9373L26.0635 27.886L26.3797 26.9373ZM28.9384 28.8442C29.4623 29.0189 30.0286 28.7357 30.2033 28.2118C30.3779 27.6878 30.0948 27.1215 29.5708 26.9469L28.9384 28.8442ZM22.5604 29.5402L23.2063 30.3035L22.5604 29.5402ZM25.4176 27.1226L26.0635 27.886L25.4176 27.1226ZM25.2221 33.1776C25.7404 33.3686 26.3153 33.1032 26.5062 32.585C26.6971 32.0668 26.4318 31.4919 25.9135 31.3009L25.2221 33.1776ZM22.8606 31.2419L23.2063 30.3035H23.2063L22.8606 31.2419ZM32.6781 41.0591L31.7397 41.4048L32.6781 41.0591ZM32.619 38.0062C32.4281 37.488 31.8532 37.2227 31.335 37.4136C30.8167 37.6045 30.5514 38.1794 30.7423 38.6977L32.619 38.0062ZM36.7974 38.5022L37.5608 39.1482L36.7974 38.5022ZM34.3798 41.3594L33.6164 40.7134L34.3798 41.3594ZM36.9731 34.349C36.7984 33.825 36.2321 33.5418 35.7082 33.7165C35.1842 33.8911 34.9011 34.4575 35.0757 34.9814L36.9731 34.349ZM36.9827 37.5401L37.9314 37.2238L36.9827 37.5401ZM32.2925 30.2923L22.7925 39.7923L24.2067 41.2065L33.7067 31.7065L32.2925 30.2923ZM33.4652 24.3711C34.6275 25.1424 35.7466 26.0529 36.7937 27.1L38.2079 25.6858C37.067 24.5449 35.8446 23.5498 34.571 22.7046L33.4652 24.3711ZM36.7937 27.1C37.8498 28.1561 38.767 29.2855 39.5425 30.4586L41.2109 29.3557C40.3611 28.0702 39.3586 26.8365 38.2079 25.6858L36.7937 27.1ZM34.6062 24.0743L39.5126 23.2565L39.1838 21.2838L34.2774 22.1015L34.6062 24.0743ZM40.6634 24.4073L39.8457 29.3138L41.8185 29.6426L42.6362 24.7361L40.6634 24.4073ZM39.408 30.1306L32.3388 36.7437L33.7051 38.2042L40.7743 31.5912L39.408 30.1306ZM27.1763 31.5811L33.7893 24.512L32.3288 23.1457L25.7157 30.2148L27.1763 31.5811ZM39.5126 23.2565C40.1894 23.1437 40.7762 23.7305 40.6634 24.4073L42.6362 24.7361C42.9746 22.7057 41.2143 20.9453 39.1838 21.2838L39.5126 23.2565ZM27.2609 36.6591C25.868 35.2662 25.8306 33.0197 27.1763 31.5811L25.7157 30.2148C23.6331 32.441 23.6911 35.9177 25.8467 38.0733L27.2609 36.6591ZM25.8467 38.0733C28.0023 40.2289 31.4789 40.2868 33.7051 38.2042L32.3388 36.7437C30.9003 38.0894 28.6538 38.052 27.2609 36.6591L25.8467 38.0733ZM39.8457 29.3138C39.7935 29.6268 39.6397 29.9139 39.408 30.1306L40.7743 31.5912C41.327 31.0741 41.694 30.3892 41.8185 29.6426L39.8457 29.3138ZM34.2774 22.1015C33.5307 22.2259 32.8459 22.5929 32.3288 23.1457L33.7893 24.512C34.0061 24.2803 34.2932 24.1264 34.6062 24.0743L34.2774 22.1015ZM26.0635 27.886L28.9384 28.8442L29.5708 26.9469L26.696 25.9886L26.0635 27.886ZM23.2063 30.3035L26.0635 27.886L24.7716 26.3592L21.9145 28.7768L23.2063 30.3035ZM25.9135 31.3009L23.2063 30.3035L22.5149 32.1802L25.2221 33.1776L25.9135 31.3009ZM21.9145 28.7768C20.7446 29.7667 21.077 31.6505 22.5149 32.1802L23.2063 30.3035L23.2063 30.3035L21.9145 28.7768ZM26.696 25.9886C26.0338 25.7679 25.3045 25.9083 24.7716 26.3592L26.0635 27.886L26.696 25.9886ZM33.6164 40.7134L32.619 38.0062L30.7423 38.6977L31.7397 41.4048L33.6164 40.7134ZM36.034 37.8563L33.6164 40.7134L35.1432 42.0053L37.5608 39.1482L36.034 37.8563ZM35.0757 34.9814L36.034 37.8563L37.9314 37.2238L36.9731 34.349L35.0757 34.9814ZM37.5608 39.1482C38.0116 38.6153 38.1521 37.886 37.9314 37.2238L36.034 37.8563L37.5608 39.1482ZM31.7397 41.4048C32.2695 42.8428 34.1533 43.1752 35.1432 42.0053L33.6164 40.7134H33.6164L31.7397 41.4048Z" fill="#171717"/>
</svg>
