<svg width="64" height="64" viewBox="0 0 64 64" fill="none" xmlns="http://www.w3.org/2000/svg">
<circle cx="32" cy="32" r="32" fill="#FFE603"/>
<path d="M31.5 24C30.9477 24 30.5 24.4477 30.5 25C30.5 25.5523 30.9477 26 31.5 26V24ZM33.7823 30.8125L33.2048 29.9961H33.2048L33.7823 30.8125ZM29.7177 33.6875L29.1403 32.8711H29.1403L29.7177 33.6875ZM32.5 40.5C33.0523 40.5 33.5 40.0523 33.5 39.5C33.5 38.9477 33.0523 38.5 32.5 38.5V40.5ZM25.8298 37.1078L24.8493 36.9117L24.8493 36.9117L25.8298 37.1078ZM26.4164 38.9527L25.729 39.6791L25.729 39.6791L26.4164 38.9527ZM37.0836 25.5473L36.3963 26.2736L36.3963 26.2736L37.0836 25.5473ZM37.6702 27.3922L36.6896 27.1961L36.6896 27.1961L37.6702 27.3922ZM27 25C27 26.1046 26.1046 27 25 27V29C27.2091 29 29 27.2091 29 25H27ZM25 27C23.8954 27 23 26.1046 23 25H21C21 27.2091 22.7909 29 25 29V27ZM23 25C23 23.8954 23.8954 23 25 23V21C22.7909 21 21 22.7909 21 25H23ZM25 23C26.1046 23 27 23.8954 27 25H29C29 22.7909 27.2091 21 25 21V23ZM41 39C41 40.1046 40.1046 41 39 41V43C41.2091 43 43 41.2091 43 39H41ZM39 41C37.8954 41 37 40.1046 37 39H35C35 41.2091 36.7909 43 39 43V41ZM37 39C37 37.8954 37.8954 37 39 37V35C36.7909 35 35 36.7909 35 39H37ZM39 37C40.1046 37 41 37.8954 41 39H43C43 36.7909 41.2091 35 39 35V37ZM31.5 26H31.9344V24H31.5V26ZM33.2048 29.9961L29.1403 32.8711L30.2952 34.5039L34.3597 31.6289L33.2048 29.9961ZM31.5656 40.5H32.5V38.5H31.5656V40.5ZM29.1403 32.8711C27.9117 33.74 26.9377 34.4279 26.2571 34.9982C25.9144 35.2854 25.6111 35.5712 25.3753 35.8632C25.1401 36.1545 24.9312 36.5018 24.8493 36.9117L26.8104 37.3039C26.8065 37.3234 26.8117 37.2679 26.9314 37.1196C27.0505 36.9721 27.243 36.7815 27.5417 36.5312C28.144 36.0264 29.0359 35.3946 30.2952 34.5039L29.1403 32.8711ZM31.5656 38.5C30.0232 38.5 28.9301 38.4992 28.1469 38.4349C27.7585 38.4031 27.4913 38.3586 27.3089 38.3069C27.1255 38.255 27.0892 38.2127 27.1037 38.2264L25.729 39.6791C26.0327 39.9664 26.4038 40.1293 26.764 40.2313C27.1251 40.3335 27.5377 40.3917 27.9834 40.4282C28.8684 40.5008 30.0608 40.5 31.5656 40.5V38.5ZM24.8493 36.9117C24.6468 37.9241 24.9791 38.9694 25.729 39.6791L27.1037 38.2264C26.8537 37.9898 26.7429 37.6414 26.8104 37.3039L24.8493 36.9117ZM31.9344 26C33.4768 26 34.5699 26.0008 35.3531 26.0651C35.7415 26.0969 36.0087 26.1414 36.1911 26.1931C36.3745 26.245 36.4108 26.2873 36.3963 26.2736L37.771 24.8209C37.4673 24.5336 37.0962 24.3707 36.736 24.2687C36.3749 24.1665 35.9623 24.1083 35.5166 24.0718C34.6316 23.9992 33.4392 24 31.9344 24V26ZM34.3597 31.6289C35.5883 30.76 36.5623 30.0721 37.2429 29.5018C37.5856 29.2146 37.8889 28.9288 38.1247 28.6368C38.3599 28.3455 38.5688 27.9982 38.6507 27.5883L36.6896 27.1961C36.6935 27.1766 36.6883 27.2321 36.5686 27.3804C36.4495 27.5279 36.257 27.7185 35.9583 27.9688C35.356 28.4735 34.4641 29.1054 33.2048 29.9961L34.3597 31.6289ZM36.3963 26.2736C36.6463 26.5102 36.7571 26.8586 36.6896 27.1961L38.6507 27.5883C38.8532 26.5759 38.5209 25.5306 37.771 24.8209L36.3963 26.2736Z" fill="#171717"/>
</svg>
