<svg width="64" height="64" viewBox="0 0 64 64" fill="none" xmlns="http://www.w3.org/2000/svg">
<circle cx="32" cy="32" r="32" fill="#FFE603"/>
<path d="M28 23C28 22.4477 27.5523 22 27 22C26.4477 22 26 22.4477 26 23H28ZM38 24C38 23.4477 37.5523 23 37 23C36.4477 23 36 23.4477 36 24H38ZM27.546 27.891L28 27L27.546 27.891ZM27.109 27.454L28 27L28 27L27.109 27.454ZM36.454 27.891L36.908 28.782H36.908L36.454 27.891ZM36.891 27.454L36 27L36 27L36.891 27.454ZM36 41C36 41.5523 36.4477 42 37 42C37.5523 42 38 41.5523 38 41H36ZM26 41C26 41.5523 26.4477 42 27 42C27.5523 42 28 41.5523 28 41H26ZM36.454 33.109L36.908 32.218H36.908L36.454 33.109ZM36.891 33.546L36 34L36 34L36.891 33.546ZM27.546 33.109L27.092 32.218L27.546 33.109ZM27.109 33.546L26.218 33.092L27.109 33.546ZM40.9447 28.3615L41.9171 28.1281L40.9447 28.3615ZM40.0627 27.0627L39.3556 27.7698L40.0627 27.0627ZM40.7053 27.7834L41.5579 27.2609L40.7053 27.7834ZM35.6385 23.0553L35.8719 22.0829L35.6385 23.0553ZM36.9373 23.9373L37.6444 23.2302V23.2302L36.9373 23.9373ZM36.2166 23.2947L36.7391 22.4421L36.2166 23.2947ZM24.638 40.673L24.184 41.564L24.638 40.673ZM23.327 39.362L22.436 39.816L23.327 39.362ZM39.362 40.673L39.816 41.564L39.362 40.673ZM40.673 39.362L41.564 39.816L40.673 39.362ZM23.327 24.638L22.436 24.184L23.327 24.638ZM24.638 23.327L24.184 22.436L24.638 23.327ZM35.4 27H28.6V29H35.4V27ZM28 26.4V23H26V26.4H28ZM36 24V26.4H38V24H36ZM28.6 27C28.3035 27 28.1412 26.9992 28.0246 26.9897C27.9197 26.9811 27.9425 26.9707 28 27L27.092 28.782C27.3634 28.9203 27.6332 28.9644 27.8618 28.9831C28.0787 29.0008 28.3365 29 28.6 29V27ZM26 26.4C26 26.6635 25.9992 26.9213 26.0169 27.1382C26.0356 27.3668 26.0797 27.6366 26.218 27.908L28 27C28.0293 27.0575 28.0189 27.0803 28.0103 26.9754C28.0008 26.8588 28 26.6965 28 26.4H26ZM28 27L28 27L26.218 27.908C26.4097 28.2843 26.7157 28.5903 27.092 28.782L28 27ZM35.4 29C35.6635 29 35.9213 29.0008 36.1382 28.9831C36.3668 28.9644 36.6366 28.9203 36.908 28.782L36 27C36.0575 26.9707 36.0803 26.9811 35.9754 26.9897C35.8588 26.9992 35.6965 27 35.4 27V29ZM36 26.4C36 26.6965 35.9992 26.8588 35.9897 26.9754C35.9811 27.0803 35.9707 27.0575 36 27L37.782 27.908C37.9203 27.6366 37.9644 27.3668 37.9831 27.1382C38.0008 26.9213 38 26.6635 38 26.4H36ZM36.908 28.782C37.2843 28.5903 37.5903 28.2843 37.782 27.908L36 27L36 27L36.908 28.782ZM28.6 34H35.4V32H28.6V34ZM36 34.6V41H38V34.6H36ZM28 41V34.6H26V41H28ZM35.4 34C35.6965 34 35.8588 34.0008 35.9754 34.0103C36.0803 34.0189 36.0575 34.0293 36 34L36.908 32.218C36.6366 32.0797 36.3668 32.0356 36.1382 32.0169C35.9213 31.9992 35.6635 32 35.4 32V34ZM38 34.6C38 34.3365 38.0008 34.0787 37.9831 33.8618C37.9644 33.6332 37.9203 33.3634 37.782 33.092L36 34C35.9707 33.9425 35.9811 33.9197 35.9897 34.0246C35.9992 34.1412 36 34.3035 36 34.6H38ZM36 34L36 34L37.782 33.092C37.5903 32.7157 37.2843 32.4097 36.908 32.218L36 34ZM28.6 32C28.3365 32 28.0787 31.9992 27.8618 32.0169C27.6332 32.0356 27.3634 32.0797 27.092 32.218L28 34C27.9425 34.0293 27.9197 34.0189 28.0246 34.0103C28.1412 34.0008 28.3035 34 28.6 34V32ZM28 34.6C28 34.3035 28.0008 34.1412 28.0103 34.0246C28.0189 33.9197 28.0293 33.9425 28 34L26.218 33.092C26.0797 33.3634 26.0356 33.6332 26.0169 33.8618C25.9992 34.0787 26 34.3365 26 34.6H28ZM27.092 32.218C26.7157 32.4097 26.4097 32.7157 26.218 33.092L28 34L27.092 32.218ZM36.2 40H27.8V42H36.2V40ZM24 36.2V27.8H22V36.2H24ZM27.8 24H34.6745V22H27.8V24ZM40 29.3255V36.2H42V29.3255H40ZM36.2302 24.6444L39.3556 27.7698L40.7698 26.3556L37.6444 23.2302L36.2302 24.6444ZM42 29.3255C42 28.8839 42.0064 28.5001 41.9171 28.1281L39.9724 28.595C39.9936 28.6833 40 28.7887 40 29.3255H42ZM39.3556 27.7698C39.7352 28.1494 39.8052 28.2285 39.8526 28.3059L41.5579 27.2609C41.358 26.9347 41.0821 26.6679 40.7698 26.3556L39.3556 27.7698ZM41.9171 28.1281C41.8436 27.822 41.7224 27.5293 41.5579 27.2609L39.8526 28.3059C39.9075 28.3954 39.9479 28.4929 39.9724 28.595L41.9171 28.1281ZM34.6745 24C35.2113 24 35.3167 24.0064 35.405 24.0276L35.8719 22.0829C35.4999 21.9936 35.1161 22 34.6745 22V24ZM37.6444 23.2302C37.3321 22.9179 37.0653 22.642 36.7391 22.4421L35.6941 24.1474C35.7715 24.1948 35.8506 24.2648 36.2302 24.6444L37.6444 23.2302ZM35.405 24.0276C35.5071 24.0521 35.6046 24.0925 35.6941 24.1474L36.7391 22.4421C36.4707 22.2776 36.178 22.1564 35.8719 22.0829L35.405 24.0276ZM27.8 40C26.9434 40 26.3611 39.9992 25.911 39.9624C25.4726 39.9266 25.2484 39.8617 25.092 39.782L24.184 41.564C24.6694 41.8113 25.1861 41.9099 25.7482 41.9558C26.2986 42.0008 26.9764 42 27.8 42V40ZM22 36.2C22 37.0236 21.9992 37.7014 22.0442 38.2518C22.0901 38.8139 22.1887 39.3306 22.436 39.816L24.218 38.908C24.1383 38.7516 24.0734 38.5274 24.0376 38.089C24.0008 37.6389 24 37.0566 24 36.2H22ZM25.092 39.782C24.7157 39.5903 24.4097 39.2843 24.218 38.908L22.436 39.816C22.8195 40.5686 23.4314 41.1805 24.184 41.564L25.092 39.782ZM36.2 42C37.0236 42 37.7014 42.0008 38.2518 41.9558C38.8139 41.9099 39.3306 41.8113 39.816 41.564L38.908 39.782C38.7516 39.8617 38.5274 39.9266 38.089 39.9624C37.6389 39.9992 37.0566 40 36.2 40V42ZM40 36.2C40 37.0566 39.9992 37.6389 39.9624 38.089C39.9266 38.5274 39.8617 38.7516 39.782 38.908L41.564 39.816C41.8113 39.3306 41.9099 38.8139 41.9558 38.2518C42.0008 37.7014 42 37.0236 42 36.2H40ZM39.816 41.564C40.5686 41.1805 41.1805 40.5686 41.564 39.816L39.782 38.908C39.5903 39.2843 39.2843 39.5903 38.908 39.782L39.816 41.564ZM24 27.8C24 26.9434 24.0008 26.3611 24.0376 25.911C24.0734 25.4726 24.1383 25.2484 24.218 25.092L22.436 24.184C22.1887 24.6694 22.0901 25.1861 22.0442 25.7482C21.9992 26.2986 22 26.9764 22 27.8H24ZM27.8 22C26.9764 22 26.2986 21.9992 25.7482 22.0442C25.1861 22.0901 24.6694 22.1887 24.184 22.436L25.092 24.218C25.2484 24.1383 25.4726 24.0734 25.911 24.0376C26.3611 24.0008 26.9434 24 27.8 24V22ZM24.218 25.092C24.4097 24.7157 24.7157 24.4097 25.092 24.218L24.184 22.436C23.4314 22.8195 22.8195 23.4314 22.436 24.184L24.218 25.092Z" fill="#171717"/>
</svg>
