<svg width="64" height="64" viewBox="0 0 64 64" fill="none" xmlns="http://www.w3.org/2000/svg">
<circle cx="32" cy="32" r="32" fill="#FFE603"/>
<path d="M36 40C35.4477 40 35 40.4477 35 41C35 41.5523 35.4477 42 36 42V40ZM22 28C22 28.5523 22.4477 29 23 29C23.5523 29 24 28.5523 24 28H22ZM40.673 39.362L39.782 38.908V38.908L40.673 39.362ZM39.362 40.673L38.908 39.782H38.908L39.362 40.673ZM39.362 23.327L38.908 24.218L38.908 24.218L39.362 23.327ZM40.673 24.638L41.564 24.184V24.184L40.673 24.638ZM24.638 23.327L25.092 24.218L24.638 23.327ZM23.327 24.638L24.218 25.092L23.327 24.638ZM24.092 40.782L24.546 39.891L24.092 40.782ZM23.218 39.908L24.109 39.454L23.218 39.908ZM31.782 39.908L30.891 39.454L31.782 39.908ZM30.908 40.782L30.454 39.891L30.908 40.782ZM30.908 32.218L30.454 33.109L30.908 32.218ZM31.782 33.092L30.891 33.546L31.782 33.092ZM24.092 32.218L24.546 33.109L24.092 32.218ZM23.218 33.092L24.109 33.546L23.218 33.092ZM30.7929 31.7929C30.4024 32.1834 30.4024 32.8166 30.7929 33.2071C31.1834 33.5976 31.8166 33.5976 32.2071 33.2071L30.7929 31.7929ZM37 27H38C38 26.4477 37.5523 26 37 26V27ZM32 26C31.4477 26 31 26.4477 31 27C31 27.5523 31.4477 28 32 28V26ZM36 32C36 32.5523 36.4477 33 37 33C37.5523 33 38 32.5523 38 32H36ZM27.8 24H36.2V22H27.8V24ZM40 27.8V36.2H42V27.8H40ZM36.2 40H36V42H36.2V40ZM22 27.8V28H24V27.8H22ZM40 36.2C40 37.0566 39.9992 37.6389 39.9624 38.089C39.9266 38.5274 39.8617 38.7516 39.782 38.908L41.564 39.816C41.8113 39.3306 41.9099 38.8139 41.9558 38.2518C42.0008 37.7014 42 37.0236 42 36.2H40ZM36.2 42C37.0236 42 37.7014 42.0008 38.2518 41.9558C38.8139 41.9099 39.3306 41.8113 39.816 41.564L38.908 39.782C38.7516 39.8617 38.5274 39.9266 38.089 39.9624C37.6389 39.9992 37.0566 40 36.2 40V42ZM39.782 38.908C39.5903 39.2843 39.2843 39.5903 38.908 39.782L39.816 41.564C40.5686 41.1805 41.1805 40.5686 41.564 39.816L39.782 38.908ZM36.2 24C37.0566 24 37.6389 24.0008 38.089 24.0376C38.5274 24.0734 38.7516 24.1383 38.908 24.218L39.816 22.436C39.3306 22.1887 38.8139 22.0901 38.2518 22.0442C37.7014 21.9992 37.0236 22 36.2 22V24ZM42 27.8C42 26.9764 42.0008 26.2986 41.9558 25.7482C41.9099 25.1861 41.8113 24.6694 41.564 24.184L39.782 25.092C39.8617 25.2484 39.9266 25.4726 39.9624 25.911C39.9992 26.3611 40 26.9434 40 27.8H42ZM38.908 24.218C39.2843 24.4097 39.5903 24.7157 39.782 25.092L41.564 24.184C41.1805 23.4314 40.5686 22.8195 39.816 22.436L38.908 24.218ZM27.8 22C26.9764 22 26.2986 21.9992 25.7482 22.0442C25.1861 22.0901 24.6694 22.1887 24.184 22.436L25.092 24.218C25.2484 24.1383 25.4726 24.0734 25.911 24.0376C26.3611 24.0008 26.9434 24 27.8 24V22ZM24 27.8C24 26.9434 24.0008 26.3611 24.0376 25.911C24.0734 25.4726 24.1383 25.2484 24.218 25.092L22.436 24.184C22.1887 24.6694 22.0901 25.1861 22.0442 25.7482C21.9992 26.2986 22 26.9764 22 27.8H24ZM24.184 22.436C23.4314 22.8195 22.8195 23.4314 22.436 24.184L24.218 25.092C24.4097 24.7157 24.7157 24.4097 25.092 24.218L24.184 22.436ZM26.2 33H28.8V31H26.2V33ZM31 35.2V37.8H33V35.2H31ZM28.8 40H26.2V42H28.8V40ZM24 37.8V35.2H22V37.8H24ZM26.2 40C25.6234 40 25.2512 39.9992 24.9678 39.9761C24.6962 39.9539 24.5955 39.9162 24.546 39.891L23.638 41.673C24.0164 41.8658 24.4096 41.9371 24.805 41.9694C25.1886 42.0008 25.6564 42 26.2 42V40ZM22 37.8C22 38.3436 21.9992 38.8114 22.0306 39.195C22.0629 39.5904 22.1342 39.9836 22.327 40.362L24.109 39.454C24.0838 39.4045 24.0461 39.3038 24.0239 39.0322C24.0008 38.7488 24 38.3766 24 37.8H22ZM24.546 39.891C24.3578 39.7951 24.2049 39.6422 24.109 39.454L22.327 40.362C22.6146 40.9265 23.0735 41.3854 23.638 41.673L24.546 39.891ZM31 37.8C31 38.3766 30.9992 38.7488 30.9761 39.0322C30.9539 39.3038 30.9162 39.4045 30.891 39.454L32.673 40.362C32.8658 39.9836 32.9371 39.5904 32.9694 39.195C33.0008 38.8114 33 38.3436 33 37.8H31ZM28.8 42C29.3436 42 29.8114 42.0008 30.195 41.9694C30.5904 41.9371 30.9836 41.8658 31.362 41.673L30.454 39.891C30.4045 39.9162 30.3038 39.9539 30.0322 39.9761C29.7488 39.9992 29.3766 40 28.8 40V42ZM30.891 39.454C30.7951 39.6422 30.6422 39.7951 30.454 39.891L31.362 41.673C31.9265 41.3854 32.3854 40.9265 32.673 40.362L30.891 39.454ZM28.8 33C29.3766 33 29.7488 33.0008 30.0322 33.0239C30.3038 33.0461 30.4045 33.0838 30.454 33.109L31.362 31.327C30.9836 31.1342 30.5904 31.0629 30.195 31.0306C29.8114 30.9992 29.3436 31 28.8 31V33ZM33 35.2C33 34.6564 33.0008 34.1886 32.9694 33.805C32.9371 33.4096 32.8658 33.0164 32.673 32.638L30.891 33.546C30.9162 33.5955 30.9539 33.6962 30.9761 33.9678C30.9992 34.2512 31 34.6234 31 35.2H33ZM30.454 33.109C30.6422 33.2049 30.7951 33.3578 30.891 33.546L32.673 32.638C32.3854 32.0735 31.9265 31.6146 31.362 31.327L30.454 33.109ZM26.2 31C25.6564 31 25.1886 30.9992 24.805 31.0306C24.4096 31.0629 24.0164 31.1342 23.638 31.327L24.546 33.109C24.5955 33.0838 24.6962 33.0461 24.9678 33.0239C25.2512 33.0008 25.6234 33 26.2 33V31ZM24 35.2C24 34.6234 24.0008 34.2512 24.0239 33.9678C24.0461 33.6962 24.0838 33.5955 24.109 33.546L22.327 32.638C22.1342 33.0164 22.0629 33.4096 22.0306 33.805C21.9992 34.1886 22 34.6564 22 35.2H24ZM23.638 31.327C23.0735 31.6146 22.6146 32.0735 22.327 32.638L24.109 33.546C24.2049 33.3578 24.3578 33.2049 24.546 33.109L23.638 31.327ZM32.2071 33.2071L37.7071 27.7071L36.2929 26.2929L30.7929 31.7929L32.2071 33.2071ZM32 28H37V26H32V28ZM36 27V32H38V27H36Z" fill="#171717"/>
</svg>
