<svg width="64" height="64" viewBox="0 0 64 64" fill="none" xmlns="http://www.w3.org/2000/svg">
<circle cx="32" cy="32" r="32" fill="#FFE603"/>
<path d="M40.2929 41.7071C40.6834 42.0976 41.3166 42.0976 41.7071 41.7071C42.0976 41.3166 42.0976 40.6834 41.7071 40.2929L40.2929 41.7071ZM38.2072 36.7929C37.8167 36.4024 37.1835 36.4024 36.793 36.7929C36.4025 37.1834 36.4025 37.8166 36.793 38.2071L38.2072 36.7929ZM41.7071 40.2929L38.2072 36.7929L36.793 38.2071L40.2929 41.7071L41.7071 40.2929ZM39 31.5C39 35.6421 35.6421 39 31.5 39V41C36.7467 41 41 36.7467 41 31.5H39ZM31.5 39C27.3579 39 24 35.6421 24 31.5H22C22 36.7467 26.2533 41 31.5 41V39ZM24 31.5C24 27.3579 27.3579 24 31.5 24V22C26.2533 22 22 26.2533 22 31.5H24ZM31.5 24C35.6421 24 39 27.3579 39 31.5H41C41 26.2533 36.7467 22 31.5 22V24Z" fill="#171717"/>
</svg>
