<svg width="64" height="64" viewBox="0 0 64 64" fill="none" xmlns="http://www.w3.org/2000/svg">
<circle cx="32" cy="32" r="32" fill="#FFE603"/>
<path d="M41.3083 27.4698L40.3106 27.5386V27.5386L41.3083 27.4698ZM22.6917 27.4697L23.6894 27.5385L22.6917 27.4697ZM39.5062 23.2994L39.0707 24.1996L39.5062 23.2994ZM40.8041 24.5108L41.6722 24.0144L41.6722 24.0144L40.8041 24.5108ZM24.4938 23.2994L24.0583 22.3992L24.4938 23.2994ZM23.1959 24.5108L22.3278 24.0144H22.3278L23.1959 24.5108ZM26 36.5C25.4477 36.5 25 36.9477 25 37.5C25 38.0523 25.4477 38.5 26 38.5V36.5ZM26.01 38.5C26.5623 38.5 27.01 38.0523 27.01 37.5C27.01 36.9477 26.5623 36.5 26.01 36.5V38.5ZM32 36.5C31.4477 36.5 31 36.9477 31 37.5C31 38.0523 31.4477 38.5 32 38.5V36.5ZM38 38.5C38.5523 38.5 39 38.0523 39 37.5C39 36.9477 38.5523 36.5 38 36.5V38.5ZM27.4804 24H36.5196V22H27.4804V24ZM40.3106 27.5386L41.0024 37.5688L42.9976 37.4312L42.3059 27.4009L40.3106 27.5386ZM22.9976 37.5688L23.6894 27.5385L21.6941 27.4009L21.0024 37.4312L22.9976 37.5688ZM36.5196 24C37.3248 24 37.8704 24.0007 38.2937 24.0343C38.7048 24.0669 38.9185 24.126 39.0707 24.1996L39.9417 22.3992C39.4751 22.1735 38.9846 22.0828 38.4518 22.0406C37.9312 21.9993 37.293 22 36.5196 22V24ZM42.3059 27.4009C42.2527 26.6295 42.2095 25.9927 42.1325 25.4761C42.0537 24.9475 41.9295 24.4645 41.6722 24.0144L39.936 25.0072C40.0199 25.154 40.0935 25.3631 40.1544 25.771C40.217 26.191 40.2552 26.7353 40.3106 27.5386L42.3059 27.4009ZM39.0707 24.1996C39.434 24.3754 39.7356 24.6569 39.936 25.0072L41.6722 24.0144C41.2715 23.3138 40.6683 22.7507 39.9417 22.3992L39.0707 24.1996ZM27.4804 22C26.707 22 26.0688 21.9993 25.5482 22.0406C25.0154 22.0828 24.5249 22.1735 24.0583 22.3992L24.9293 24.1996C25.0815 24.126 25.2952 24.0669 25.7063 24.0343C26.1296 24.0007 26.6752 24 27.4804 24V22ZM23.6894 27.5385C23.7448 26.7353 23.783 26.191 23.8456 25.771C23.9065 25.3631 23.9801 25.154 24.064 25.0072L22.3278 24.0144C22.0705 24.4645 21.9463 24.9475 21.8675 25.4761C21.7905 25.9927 21.7473 26.6295 21.6941 27.4009L23.6894 27.5385ZM24.0583 22.3992C23.3317 22.7507 22.7285 23.3138 22.3278 24.0144L24.064 25.0072C24.2644 24.6569 24.566 24.3754 24.9293 24.1996L24.0583 22.3992ZM25.5 35H38.5V33H25.5V35ZM38.5 40H25.5V42H38.5V40ZM25.5 40C24.1193 40 23 38.8807 23 37.5H21C21 39.9853 23.0147 42 25.5 42V40ZM41 37.5C41 38.8807 39.8807 40 38.5 40V42C40.9853 42 43 39.9853 43 37.5H41ZM38.5 35C39.8807 35 41 36.1193 41 37.5H43C43 35.0147 40.9853 33 38.5 33V35ZM25.5 33C23.0147 33 21 35.0147 21 37.5H23C23 36.1193 24.1193 35 25.5 35V33ZM26 38.5H26.01V36.5H26V38.5ZM32 38.5H38V36.5H32V38.5Z" fill="#171717"/>
</svg>
