<svg width="64" height="64" viewBox="0 0 64 64" fill="none" xmlns="http://www.w3.org/2000/svg">
<circle cx="32" cy="32" r="32" fill="#FFE603"/>
<path d="M29.7071 30.7933C29.3166 30.4027 28.6834 30.4027 28.2929 30.7933C27.9024 31.1838 27.9024 31.8169 28.2929 32.2075L29.7071 30.7933ZM31 33.5004L30.2929 34.2075C30.6834 34.598 31.3166 34.598 31.7071 34.2075L31 33.5004ZM36.2071 29.7075C36.5976 29.3169 36.5976 28.6838 36.2071 28.2933C35.8166 27.9027 35.1834 27.9027 34.7929 28.2933L36.2071 29.7075ZM26.0764 24.2217L25.7253 23.2854L26.0764 24.2217ZM24.6777 24.8859L24.0165 24.1357L24.6777 24.8859ZM24.1308 25.6751L25.0654 26.0307L24.1308 25.6751ZM32.5618 22.211L32.2107 23.1474L32.5618 22.211ZM32.143 22.0786L32 23.0684L32.143 22.0786ZM31.4382 22.211L31.7893 23.1474L31.4382 22.211ZM31.857 22.0786L32 23.0684L31.857 22.0786ZM39.8692 25.6751L38.9346 26.0307L39.8692 25.6751ZM37.9236 24.2217L38.2747 23.2854L37.9236 24.2217ZM39.3223 24.8859L39.9835 24.1357L39.3223 24.8859ZM32.698 41.6152L33.2019 42.479L32.698 41.6152ZM32.2097 41.8425L32.4194 42.8202L32.2097 41.8425ZM31.302 41.6152L31.8059 40.7515L31.302 41.6152ZM31.7903 41.8425L31.5806 42.8202L31.7903 41.8425ZM28.2929 32.2075L30.2929 34.2075L31.7071 32.7933L29.7071 30.7933L28.2929 32.2075ZM31.7071 34.2075L36.2071 29.7075L34.7929 28.2933L30.2929 32.7933L31.7071 34.2075ZM33.2019 42.479C34.214 41.8885 36.128 40.6576 37.8009 38.9148C39.4627 37.1836 41 34.827 41 32.0004H39C39 34.0822 37.8603 35.9648 36.3581 37.5298C34.867 39.0832 33.13 40.2055 32.1941 40.7515L33.2019 42.479ZM41 32.0004V27.218H39V32.0004H41ZM38.2747 23.2854L32.9129 21.2747L32.2107 23.1474L37.5725 25.158L38.2747 23.2854ZM31.0871 21.2747L25.7253 23.2854L26.4275 25.158L31.7893 23.1474L31.0871 21.2747ZM23 27.218V32.0004H25V27.218H23ZM23 32.0004C23 34.827 24.5373 37.1836 26.1991 38.9148C27.872 40.6576 29.786 41.8885 30.7981 42.479L31.8059 40.7515C30.87 40.2055 29.133 39.0832 27.6419 37.5298C26.1397 35.9648 25 34.0822 25 32.0004H23ZM25.7253 23.2854C25.0533 23.5374 24.4635 23.7417 24.0165 24.1357L25.3388 25.6361C25.4435 25.5439 25.6023 25.4675 26.4275 25.158L25.7253 23.2854ZM25 27.218C25 26.3366 25.0158 26.1611 25.0654 26.0307L23.1961 25.3194C22.9842 25.8763 23 26.5003 23 27.218H25ZM24.0165 24.1357C23.651 24.4578 23.3694 24.8641 23.1961 25.3194L25.0654 26.0307C25.1231 25.8789 25.217 25.7435 25.3388 25.6361L24.0165 24.1357ZM32.9129 21.2747C32.7452 21.2118 32.5247 21.1234 32.286 21.0889L32 23.0684C31.9769 23.065 31.9702 23.0609 32.003 23.0716C32.0439 23.085 32.0993 23.1056 32.2107 23.1474L32.9129 21.2747ZM31.7893 23.1474C31.9007 23.1056 31.9561 23.085 31.997 23.0716C32.0298 23.0609 32.0231 23.065 32 23.0684L31.714 21.0889C31.4753 21.1234 31.2548 21.2118 31.0871 21.2747L31.7893 23.1474ZM32.286 21.0889C32.0963 21.0615 31.9037 21.0615 31.714 21.0889L32 23.0684H32L32.286 21.0889ZM41 27.218C41 26.5003 41.0158 25.8763 40.8039 25.3194L38.9346 26.0307C38.9842 26.1611 39 26.3366 39 27.218H41ZM37.5725 25.158C38.3977 25.4675 38.5565 25.5439 38.6612 25.6361L39.9835 24.1357C39.5365 23.7417 38.9467 23.5374 38.2747 23.2854L37.5725 25.158ZM40.8039 25.3194C40.6306 24.8641 40.349 24.4578 39.9835 24.1357L38.6612 25.6361C38.783 25.7435 38.8769 25.8789 38.9346 26.0307L40.8039 25.3194ZM32.1941 40.7515C32.1369 40.7849 32.0956 40.8089 32.0597 40.8291C32.0246 40.8489 32.0041 40.8596 31.9914 40.8657C31.9801 40.8712 31.9791 40.8712 31.9845 40.8692C31.9908 40.867 31.9969 40.8654 32 40.8647L32.4194 42.8202C32.7605 42.7471 33.0121 42.5897 33.2019 42.479L32.1941 40.7515ZM30.7981 42.479C30.9879 42.5897 31.2395 42.7471 31.5806 42.8202L32 40.8647C32.0031 40.8654 32.0092 40.867 32.0155 40.8692C32.0209 40.8712 32.0199 40.8712 32.0086 40.8657C31.9959 40.8596 31.9754 40.8489 31.9403 40.8291C31.9044 40.8089 31.8631 40.7849 31.8059 40.7515L30.7981 42.479ZM32 40.8647C32.0089 40.8628 32.0148 40.8619 32.0172 40.8615C32.0198 40.8611 32.0204 40.8611 32.019 40.8613C32.0157 40.8616 32.0089 40.862 32 40.862C31.9911 40.862 31.9843 40.8616 31.981 40.8613C31.9796 40.8611 31.9802 40.8611 31.9828 40.8615C31.9852 40.8619 31.9911 40.8628 32 40.8647L31.5806 42.8202C31.8401 42.8759 32.1599 42.8759 32.4194 42.8202L32 40.8647Z" fill="#171717"/>
</svg>
