<svg width="64" height="64" viewBox="0 0 64 64" fill="none" xmlns="http://www.w3.org/2000/svg">
<circle cx="32" cy="32" r="32" fill="#FFE603"/>
<path d="M23.5924 30.352L22.5967 30.2586L23.5924 30.352ZM24.154 27.4662L23.2946 26.9549H23.2946L24.154 27.4662ZM28.3714 26V25V26ZM25.4458 26.2898L25.8746 27.1932L25.4458 26.2898ZM24.3584 41.6338L23.8796 42.5117L24.3584 41.6338ZM22.9924 36.752L23.988 36.8453L22.9924 36.752ZM23.0384 40.1843L22.1196 40.579L23.0384 40.1843ZM41.0084 36.752L42.004 36.6586L41.0084 36.752ZM40.9623 40.1843L41.8811 40.579L40.9623 40.1843ZM39.6423 41.6338L40.1211 42.5117L39.6423 41.6338ZM40.4084 30.352L39.4127 30.4453L40.4084 30.352ZM39.8467 27.4662L40.7061 26.9549L39.8467 27.4662ZM35.6293 26V27V26ZM38.555 26.2898L38.9838 25.3865L38.555 26.2898ZM35.0004 29C35.0004 29.5523 35.4481 30 36.0004 30C36.5527 30 37.0004 29.5523 37.0004 29H35.0004ZM27.0004 29C27.0004 29.5523 27.4481 30 28.0004 30C28.5527 30 29.0004 29.5523 29.0004 29H27.0004ZM39.4127 30.4453L40.0127 36.8453L42.004 36.6586L41.404 30.2586L39.4127 30.4453ZM36.2293 41H27.7714V43H36.2293V41ZM23.988 36.8453L24.588 30.4453L22.5967 30.2586L21.9967 36.6586L23.988 36.8453ZM28.3714 27L35.6293 27V25L28.3714 25V27ZM24.588 30.4453C24.6615 29.6614 24.712 29.1307 24.7829 28.7215C24.8518 28.3245 24.9282 28.1208 25.0134 27.9774L23.2946 26.9549C23.0343 27.3924 22.9019 27.8633 22.8123 28.3798C22.7249 28.8841 22.6673 29.5059 22.5967 30.2586L24.588 30.4453ZM28.3714 25C27.6154 25 26.9909 24.9993 26.4807 25.0393C25.9581 25.0803 25.4769 25.1681 25.017 25.3865L25.8746 27.1932C26.0253 27.1217 26.2352 27.0647 26.637 27.0332C27.051 27.0007 27.584 27 28.3714 27V25ZM25.0134 27.9774C25.2163 27.6364 25.5161 27.3634 25.8746 27.1932L25.017 25.3865C24.3 25.7268 23.7004 26.2728 23.2946 26.9549L25.0134 27.9774ZM27.7714 41C26.8403 41 26.2045 40.9992 25.7157 40.9578C25.2374 40.9173 24.9985 40.8438 24.8372 40.7559L23.8796 42.5117C24.3898 42.7899 24.9436 42.8996 25.547 42.9507C26.1398 43.0008 26.8748 43 27.7714 43V41ZM21.9967 36.6586C21.9131 37.5513 21.8436 38.283 21.8382 38.8779C21.8328 39.4835 21.8902 40.0451 22.1196 40.579L23.9572 39.7895C23.8847 39.6207 23.8338 39.376 23.8382 38.896C23.8426 38.4054 23.9011 37.7723 23.988 36.8453L21.9967 36.6586ZM24.8372 40.7559C24.4439 40.5414 24.134 40.2011 23.9572 39.7895L22.1196 40.579C22.4733 41.4022 23.0931 42.0828 23.8796 42.5117L24.8372 40.7559ZM40.0127 36.8453C40.0996 37.7723 40.1581 38.4054 40.1626 38.896C40.1669 39.376 40.1161 39.6207 40.0435 39.7895L41.8811 40.579C42.1105 40.0451 42.168 39.4835 42.1625 38.8779C42.1571 38.283 42.0877 37.5513 42.004 36.6586L40.0127 36.8453ZM36.2293 43C37.1259 43 37.8609 43.0008 38.4537 42.9507C39.0572 42.8996 39.611 42.7899 40.1211 42.5117L39.1636 40.7559C39.0022 40.8438 38.7634 40.9173 38.2851 40.9578C37.7962 40.9992 37.1604 41 36.2293 41V43ZM40.0435 39.7895C39.8667 40.2011 39.5568 40.5414 39.1636 40.7559L40.1211 42.5117C40.9077 42.0828 41.5274 41.4022 41.8811 40.579L40.0435 39.7895ZM41.404 30.2586C41.3334 29.5059 41.2759 28.8841 41.1884 28.3798C41.0988 27.8633 40.9664 27.3924 40.7061 26.9549L38.9873 27.9774C39.0726 28.1208 39.149 28.3245 39.2178 28.7215C39.2888 29.1307 39.3392 29.6614 39.4127 30.4453L41.404 30.2586ZM35.6293 27C36.4167 27 36.9497 27.0007 37.3638 27.0332C37.7655 27.0647 37.9754 27.1217 38.1261 27.1932L38.9838 25.3865C38.5239 25.1681 38.0427 25.0803 37.5201 25.0393C37.0098 24.9993 36.3853 25 35.6293 25V27ZM40.7061 26.9549C40.3003 26.2728 39.7008 25.7268 38.9838 25.3865L38.1261 27.1932C38.4846 27.3634 38.7844 27.6364 38.9873 27.9774L40.7061 26.9549ZM35.0004 26V29H37.0004V26H35.0004ZM29.0004 29V26H27.0004V29H29.0004ZM29.0004 26C29.0004 24.3431 30.3435 23 32.0004 23V21C29.2389 21 27.0004 23.2386 27.0004 26H29.0004ZM37.0004 26C37.0004 23.2386 34.7618 21 32.0004 21V23C33.6572 23 35.0004 24.3431 35.0004 26H37.0004Z" fill="#171717"/>
</svg>
