<svg width="64" height="64" viewBox="0 0 64 64" fill="none" xmlns="http://www.w3.org/2000/svg">
<circle cx="32" cy="32" r="32" fill="#FFE603"/>
<path d="M31.2827 23.4526C31.5131 22.9856 31.6284 22.7522 31.7848 22.6776C31.9209 22.6127 32.0791 22.6127 32.2152 22.6776C32.3717 22.7522 32.4869 22.9856 32.7174 23.4526L34.9041 27.8826C34.9721 28.0204 35.0061 28.0893 35.0558 28.1428C35.0999 28.1902 35.1527 28.2286 35.2113 28.2559C35.2776 28.2867 35.3536 28.2978 35.5057 28.32L40.397 29.035C40.9121 29.1103 41.1696 29.1479 41.2888 29.2737C41.3925 29.3832 41.4412 29.5336 41.4215 29.683C41.3988 29.8548 41.2124 30.0364 40.8395 30.3996L37.3014 33.8457C37.1912 33.9531 37.136 34.0068 37.1004 34.0707C37.0689 34.1273 37.0487 34.1895 37.0409 34.2538C37.0321 34.3264 37.0451 34.4023 37.0711 34.554L37.906 39.4214C37.994 39.9348 38.038 40.1914 37.9553 40.3438C37.8833 40.4763 37.7554 40.5693 37.6071 40.5967C37.4366 40.6283 37.2061 40.5071 36.7451 40.2647L32.3724 37.9651C32.2361 37.8935 32.168 37.8576 32.0962 37.8436C32.0327 37.8311 31.9673 37.8311 31.9038 37.8436C31.832 37.8576 31.7639 37.8935 31.6277 37.9651L27.2549 40.2647C26.7939 40.5071 26.5634 40.6283 26.393 40.5967C26.2447 40.5693 26.1167 40.4763 26.0447 40.3438C25.962 40.1914 26.006 39.9348 26.0941 39.4214L26.9289 34.554C26.9549 34.4023 26.9679 34.3264 26.9591 34.2538C26.9513 34.1895 26.9311 34.1273 26.8996 34.0707C26.864 34.0068 26.8089 33.9531 26.6986 33.8457L23.1606 30.3996C22.7877 30.0364 22.6012 29.8548 22.5785 29.683C22.5588 29.5336 22.6076 29.3832 22.7113 29.2737C22.8304 29.1479 23.088 29.1103 23.603 29.035L28.4943 28.32C28.6464 28.2978 28.7225 28.2867 28.7887 28.2559C28.8474 28.2286 28.9002 28.1902 28.9442 28.1428C28.9939 28.0893 29.0279 28.0204 29.096 27.8826L31.2827 23.4526Z" stroke="black" stroke-width="2" stroke-linecap="round" stroke-linejoin="round"/>
</svg>
