<svg width="64" height="64" viewBox="0 0 64 64" fill="none" xmlns="http://www.w3.org/2000/svg">
<circle cx="32" cy="32" r="32" fill="#FFE603"/>
<path d="M39 22L39.8944 21.5528C39.7506 21.2653 39.4774 21.0644 39.1601 21.0129C38.8428 20.9614 38.5201 21.0656 38.2929 21.2929L39 22ZM36 25L35.2929 24.2929C35.1053 24.4804 35 24.7348 35 25H36ZM39 28V29C39.2652 29 39.5195 28.8946 39.7071 28.7071L39 28ZM42 25L42.7071 25.7071C42.9344 25.4798 43.0385 25.1571 42.987 24.8398C42.9356 24.5225 42.7347 24.2493 42.4472 24.1056L42 25ZM40 24L39.1055 24.4472C39.2023 24.6407 39.3592 24.7977 39.5527 24.8944L40 24ZM31.2929 31.2928C30.9023 31.6834 30.9023 32.3165 31.2929 32.707C31.6834 33.0976 32.3165 33.0976 32.7071 32.7071L31.2929 31.2928ZM43 32C43 31.4477 42.5523 31 42 31C41.4477 31 41 31.4477 41 32H43ZM32 23C32.5523 23 33 22.5523 33 22C33 21.4477 32.5523 21 32 21V23ZM38 32C38 31.4477 37.5523 31 37 31C36.4477 31 36 31.4477 36 32H38ZM32 28C32.5523 28 33 27.5523 33 27C33 26.4477 32.5523 26 32 26V28ZM38.2929 21.2929L35.2929 24.2929L36.7071 25.7071L39.7071 22.7071L38.2929 21.2929ZM35 25V28H37V25H35ZM36 29H39V27H36V29ZM39.7071 28.7071L42.7071 25.7071L41.2929 24.2929L38.2929 27.2929L39.7071 28.7071ZM42.4472 24.1056L40.4472 23.1056L39.5527 24.8944L41.5527 25.8944L42.4472 24.1056ZM40.8944 23.5528L39.8944 21.5528L38.1055 22.4472L39.1055 24.4472L40.8944 23.5528ZM35.2929 27.2929L31.2929 31.2928L32.7071 32.7071L36.7071 28.7071L35.2929 27.2929ZM41 32C41 36.9706 36.9706 41 32 41V43C38.0751 43 43 38.0751 43 32H41ZM32 41C27.0294 41 23 36.9706 23 32H21C21 38.0751 25.9249 43 32 43V41ZM23 32C23 27.0294 27.0294 23 32 23V21C25.9249 21 21 25.9249 21 32H23ZM36 32C36 34.2091 34.2091 36 32 36V38C35.3137 38 38 35.3137 38 32H36ZM32 36C29.7909 36 28 34.2091 28 32H26C26 35.3137 28.6863 38 32 38V36ZM28 32C28 29.7909 29.7909 28 32 28V26C28.6863 26 26 28.6863 26 32H28Z" fill="#171717"/>
</svg>
