<svg width="64" height="64" viewBox="0 0 64 64" fill="none" xmlns="http://www.w3.org/2000/svg">
<circle cx="32" cy="32" r="32" fill="#FFE603"/>
<path d="M42 27H43C43 26.4477 42.5523 26 42 26V27ZM21.2929 36.2929C20.9024 36.6834 20.9024 37.3166 21.2929 37.7071C21.6834 38.0976 22.3166 38.0976 22.7071 37.7071L21.2929 36.2929ZM29.1314 32.1314L28.4243 32.8385V32.8385L29.1314 32.1314ZM28.309 31.4632L28.618 30.5121L28.309 31.4632ZM27.691 31.4632L27.382 30.5121L27.691 31.4632ZM33.309 35.5368L33.618 36.4879L33.309 35.5368ZM31.8686 34.8686L32.5757 34.1615V34.1615L31.8686 34.8686ZM32.691 35.5368L32.382 36.4879L32.691 35.5368ZM35 26C34.4477 26 34 26.4477 34 27C34 27.5523 34.4477 28 35 28V26ZM41 34C41 34.5523 41.4477 35 42 35C42.5523 35 43 34.5523 43 34H41ZM41.2929 26.2929L33.4243 34.1615L34.8385 35.5757L42.7071 27.7071L41.2929 26.2929ZM32.5757 34.1615L29.8385 31.4243L28.4243 32.8385L31.1615 35.5757L32.5757 34.1615ZM26.1615 31.4243L21.2929 36.2929L22.7071 37.7071L27.5757 32.8385L26.1615 31.4243ZM29.8385 31.4243C29.6521 31.2379 29.4704 31.0551 29.3045 30.9142C29.1296 30.7658 28.9078 30.6062 28.618 30.5121L28 32.4142C27.9386 32.3943 27.9299 32.3708 28.0101 32.4389C28.0993 32.5146 28.2146 32.6288 28.4243 32.8385L29.8385 31.4243ZM27.5757 32.8385C27.7854 32.6288 27.9007 32.5146 27.9899 32.4389C28.0701 32.3708 28.0614 32.3943 28 32.4142L27.382 30.5121C27.0922 30.6062 26.8704 30.7658 26.6955 30.9142C26.5296 31.0551 26.3479 31.2379 26.1615 31.4243L27.5757 32.8385ZM28.618 30.5121C28.2163 30.3816 27.7837 30.3816 27.382 30.5121L28 32.4142L28.618 30.5121ZM33.4243 34.1615C33.2146 34.3712 33.0993 34.4854 33.0101 34.5611C32.9299 34.6292 32.9386 34.6057 33 34.5858L33.618 36.4879C33.9078 36.3938 34.1296 36.2342 34.3045 36.0858C34.4704 35.9449 34.6521 35.7621 34.8385 35.5757L33.4243 34.1615ZM31.1615 35.5757C31.3479 35.7621 31.5296 35.9449 31.6955 36.0858C31.8704 36.2342 32.0922 36.3938 32.382 36.4879L33 34.5858C33.0614 34.6057 33.0701 34.6292 32.9899 34.5611C32.9007 34.4854 32.7854 34.3712 32.5757 34.1615L31.1615 35.5757ZM33 34.5858L32.382 36.4879C32.7837 36.6184 33.2163 36.6184 33.618 36.4879L33 34.5858ZM35 28H42V26H35V28ZM41 27V34H43V27H41Z" fill="#171717"/>
</svg>
