<svg width="64" height="64" viewBox="0 0 64 64" fill="none" xmlns="http://www.w3.org/2000/svg">
<circle cx="32" cy="32" r="32" fill="#FFE603"/>
<path d="M34 26C33.4477 26 33 26.4477 33 27C33 27.5523 33.4477 28 34 28V26ZM37.4686 27.4686L36.7615 28.1757L37.4686 27.4686ZM41.5314 31.5314L42.2385 30.8243V30.8243L41.5314 31.5314ZM35.5 38C36.0523 38 36.5 37.5523 36.5 37C36.5 36.4477 36.0523 36 35.5 36V38ZM36.8192 27.0276L36.5858 28L36.8192 27.0276ZM37.1083 27.1474L36.5858 28H36.5858L37.1083 27.1474ZM41.9239 36.3827L42.8478 36.7654V36.7654L41.9239 36.3827ZM40.5 36C39.9477 36 39.5 36.4477 39.5 37C39.5 37.5523 39.9477 38 40.5 38V36ZM41.3827 36.9239L41.7654 37.8478L41.3827 36.9239ZM41.9724 32.1808L42.9447 31.9473L42.9447 31.9473L41.9724 32.1808ZM41.8526 31.8917L42.7053 31.3692V31.3692L41.8526 31.8917ZM32.908 24.218L32.454 25.109L32.454 25.109L32.908 24.218ZM33.782 25.092L32.891 25.546V25.546L33.782 25.092ZM23.092 24.218L22.638 23.327L22.638 23.327L23.092 24.218ZM22.218 25.092L21.327 24.638L21.327 24.638L22.218 25.092ZM41 32.6627V35.5H43V32.6627H41ZM34 28H36.3373V26H34V28ZM36.7615 28.1757L40.8243 32.2385L42.2385 30.8243L38.1757 26.7615L36.7615 28.1757ZM35.5 36H34V38H35.5V36ZM36.3373 28C36.4683 28 36.5336 28.0002 36.5811 28.0024C36.6194 28.0042 36.6109 28.006 36.5858 28L37.0527 26.0553C36.7957 25.9936 36.5343 26 36.3373 26V28ZM38.1757 26.7615C38.0364 26.6222 37.8561 26.4328 37.6308 26.2947L36.5858 28C36.5638 27.9865 36.559 27.9791 36.5874 28.005C36.6225 28.037 36.6689 28.0831 36.7615 28.1757L38.1757 26.7615ZM36.5858 28H36.5858L37.6308 26.2947C37.4518 26.1851 37.2568 26.1043 37.0527 26.0553L36.5858 28ZM41 35.5C41 35.7467 40.9995 35.8816 40.9928 35.9791C40.9868 36.0676 40.9792 36.0503 41 36L42.8478 36.7654C42.9447 36.5313 42.9752 36.3056 42.9882 36.1152C43.0005 35.9338 43 35.7193 43 35.5H41ZM40.5 38C40.7193 38 40.9338 38.0005 41.1152 37.9882C41.3056 37.9752 41.5313 37.9447 41.7654 37.8478L41 36C41.0503 35.9792 41.0676 35.9868 40.9791 35.9928C40.8816 35.9995 40.7467 36 40.5 36V38ZM41 36L41.7654 37.8478C42.2554 37.6448 42.6448 37.2554 42.8478 36.7654L41 36ZM43 32.6627C43 32.4657 43.0064 32.2043 42.9447 31.9473L41 32.4142C40.994 32.3891 40.9958 32.3806 40.9976 32.4189C40.9998 32.4664 41 32.5317 41 32.6627H43ZM40.8243 32.2385C40.9169 32.3311 40.963 32.3775 40.995 32.4126C41.0209 32.441 41.0135 32.4362 41 32.4142L42.7053 31.3692C42.5672 31.1439 42.3778 30.9636 42.2385 30.8243L40.8243 32.2385ZM42.9447 31.9473C42.8957 31.7432 42.8149 31.5482 42.7053 31.3692L41 32.4142L41 32.4142L42.9447 31.9473ZM25.2 25H30.8V23H25.2V25ZM33 27.2V37H35V27.2H33ZM23 35V27.2H21V35H23ZM34 36H30V38H34V36ZM21 35C21 36.6569 22.3431 38 24 38V36C23.4477 36 23 35.5523 23 35H21ZM30.8 25C31.3766 25 31.7488 25.0008 32.0322 25.0239C32.3038 25.0461 32.4045 25.0838 32.454 25.109L33.362 23.327C32.9836 23.1342 32.5904 23.0629 32.195 23.0306C31.8114 22.9992 31.3436 23 30.8 23V25ZM35 27.2C35 26.6564 35.0008 26.1886 34.9694 25.805C34.9371 25.4096 34.8658 25.0164 34.673 24.638L32.891 25.546C32.9162 25.5955 32.9539 25.6962 32.9761 25.9678C32.9992 26.2512 33 26.6234 33 27.2H35ZM32.454 25.109C32.6422 25.2049 32.7951 25.3578 32.891 25.546L34.673 24.638C34.3854 24.0735 33.9265 23.6146 33.362 23.327L32.454 25.109ZM25.2 23C24.6564 23 24.1886 22.9992 23.805 23.0306C23.4096 23.0629 23.0164 23.1342 22.638 23.327L23.546 25.109C23.5955 25.0838 23.6962 25.0461 23.9678 25.0239C24.2512 25.0008 24.6234 25 25.2 25V23ZM23 27.2C23 26.6234 23.0008 26.2512 23.0239 25.9678C23.0461 25.6962 23.0838 25.5955 23.109 25.546L21.327 24.638C21.1342 25.0164 21.0629 25.4096 21.0306 25.805C20.9992 26.1886 21 26.6564 21 27.2H23ZM22.638 23.327C22.0735 23.6146 21.6146 24.0735 21.327 24.638L23.109 25.546C23.2049 25.3578 23.3578 25.2049 23.546 25.109L22.638 23.327ZM29 37C29 38.1046 28.1046 39 27 39V41C29.2091 41 31 39.2091 31 37H29ZM27 39C25.8954 39 25 38.1046 25 37H23C23 39.2091 24.7909 41 27 41V39ZM25 37C25 35.8954 25.8954 35 27 35V33C24.7909 33 23 34.7909 23 37H25ZM27 35C28.1046 35 29 35.8954 29 37H31C31 34.7909 29.2091 33 27 33V35ZM39.5 37.5C39.5 38.3284 38.8284 39 38 39V41C39.933 41 41.5 39.433 41.5 37.5H39.5ZM38 39C37.1716 39 36.5 38.3284 36.5 37.5H34.5C34.5 39.433 36.067 41 38 41V39ZM36.5 37.5C36.5 36.6716 37.1716 36 38 36V34C36.067 34 34.5 35.567 34.5 37.5H36.5ZM38 36C38.8284 36 39.5 36.6716 39.5 37.5H41.5C41.5 35.567 39.933 34 38 34V36Z" fill="#171717"/>
</svg>
