<svg width="44" height="44" viewBox="0 0 44 44" fill="none" xmlns="http://www.w3.org/2000/svg">
<circle opacity="0.4" cx="22" cy="22" r="21.5" stroke="white"/>
<path d="M18.5233 30.0015H18.4433C16.8316 29.9874 15.2433 29.6151 13.7933 28.9115C13.5265 28.7862 13.3069 28.5788 13.1666 28.3197C13.0262 28.0606 12.9725 27.7633 13.0133 27.4715C13.0576 27.1777 13.1937 26.9053 13.402 26.6934C13.6103 26.4815 13.8802 26.3408 14.1733 26.2915C15.0719 26.1716 15.9364 25.8687 16.7133 25.4015C15.3644 24.3469 14.326 22.9471 13.7081 21.3503C13.0902 19.7535 12.9157 18.0193 13.2033 16.3315C13.2423 16.0641 13.3572 15.8136 13.5345 15.6097C13.7118 15.4059 13.9439 15.2572 14.2033 15.1815C14.4556 15.1022 14.7256 15.0989 14.9798 15.1717C15.2341 15.2446 15.4613 15.3906 15.6333 15.5915C16.2173 16.3573 16.9512 16.996 17.7902 17.4688C18.6292 17.9417 19.5557 18.2386 20.5133 18.3415C20.559 17.1633 21.0653 16.0502 21.9233 15.2415C22.3517 14.8313 22.8574 14.5104 23.4111 14.2976C23.9647 14.0848 24.5552 13.9843 25.1481 14.002C25.741 14.0197 26.3244 14.1552 26.8644 14.4006C27.4043 14.646 27.8901 14.9965 28.2933 15.4315C28.3983 15.5244 28.5288 15.5835 28.6679 15.6014C28.807 15.6192 28.9482 15.5949 29.0733 15.5315C29.3117 15.419 29.5772 15.3767 29.8388 15.4094C30.1004 15.4422 30.3472 15.5486 30.5506 15.7163C30.754 15.8841 30.9055 16.1062 30.9874 16.3567C31.0693 16.6073 31.0783 16.876 31.0133 17.1315C30.7826 18.0816 30.3456 18.9693 29.7333 19.7315C29.5983 22.5762 28.3441 25.2523 26.2442 27.1761C24.1443 29.0999 21.3689 30.1155 18.5233 30.0015V30.0015ZM18.5233 28.0015H18.6033C19.7659 28.0415 20.925 27.8503 22.0132 27.439C23.1014 27.0276 24.0972 26.4044 24.9427 25.6054C25.7883 24.8063 26.4668 23.8474 26.9389 22.7842C27.4111 21.7209 27.6675 20.5746 27.6933 19.4115C27.7098 19.0927 27.8412 18.7908 28.0633 18.5615C28.3072 18.2527 28.5152 17.9172 28.6833 17.5615C28.323 17.5622 27.9667 17.4868 27.6376 17.3403C27.3084 17.1939 27.0139 16.9796 26.7733 16.7115C26.5419 16.482 26.267 16.3011 25.9648 16.1791C25.6626 16.0572 25.3391 15.9968 25.0133 16.0015C24.6842 15.993 24.3566 16.0495 24.0495 16.168C23.7423 16.2864 23.4615 16.4643 23.2233 16.6915C22.9019 16.9965 22.6662 17.3806 22.5398 17.8053C22.4135 18.2299 22.4009 18.6804 22.5033 19.1115L22.7633 20.2515L21.5933 20.3315C20.3944 20.4292 19.1885 20.2652 18.0593 19.8508C16.93 19.4364 15.9044 18.7815 15.0533 17.9315C15.0168 19.2479 15.3461 20.5486 16.0046 21.6891C16.6631 22.8295 17.6249 23.765 18.7833 24.3915L19.7333 24.9315L19.1033 25.8315C18.422 26.725 17.4885 27.3938 16.4233 27.7515C17.1066 27.9228 17.8088 28.0068 18.5133 28.0015H18.5233Z" fill="white"/>
</svg>
