<svg width="64" height="64" viewBox="0 0 64 64" fill="none" xmlns="http://www.w3.org/2000/svg">
<circle cx="32" cy="32" r="32" fill="#FFE603"/>
<path d="M36.445 22.5722C35.9505 22.3265 35.3503 22.5281 35.1045 23.0227C34.8587 23.5173 35.0604 24.1175 35.555 24.3633L36.445 22.5722ZM35.555 30.6367C35.0604 30.8825 34.8587 31.4827 35.1045 31.9773C35.3503 32.4719 35.9505 32.6735 36.445 32.4278L35.555 30.6367ZM38.4123 35.8553C37.9091 35.6276 37.3166 35.851 37.0889 36.3541C36.8612 36.8573 37.0846 37.4498 37.5877 37.6775L38.4123 35.8553ZM41.2137 40.6178C41.5549 41.0521 42.1835 41.1275 42.6178 40.7863C43.0521 40.4451 43.1275 39.8165 42.7863 39.3822L41.2137 40.6178ZM21.2137 39.3822C20.8725 39.8165 20.9479 40.4451 21.3822 40.7863C21.8165 41.1275 22.4451 41.0521 22.7863 40.6178L21.2137 39.3822ZM36.2137 40.6178C36.5549 41.0521 37.1835 41.1275 37.6178 40.7863C38.0521 40.4451 38.1275 39.8165 37.7863 39.3822L36.2137 40.6178ZM35.555 24.3633C36.7098 24.9372 37.5 26.1272 37.5 27.5H39.5C39.5 25.339 38.2536 23.471 36.445 22.5722L35.555 24.3633ZM37.5 27.5C37.5 28.8728 36.7098 30.0628 35.555 30.6367L36.445 32.4278C38.2536 31.529 39.5 29.661 39.5 27.5H37.5ZM37.5877 37.6775C38.9327 38.2861 40.171 39.2907 41.2137 40.6178L42.7863 39.3822C41.5741 37.8393 40.0902 36.6146 38.4123 35.8553L37.5877 37.6775ZM33 27.5C33 29.433 31.433 31 29.5 31V33C32.5376 33 35 30.5376 35 27.5H33ZM29.5 31C27.567 31 26 29.433 26 27.5H24C24 30.5376 26.4624 33 29.5 33V31ZM26 27.5C26 25.567 27.567 24 29.5 24V22C26.4624 22 24 24.4624 24 27.5H26ZM29.5 24C31.433 24 33 25.567 33 27.5H35C35 24.4624 32.5376 22 29.5 22V24ZM22.7863 40.6178C24.5875 38.3253 26.9612 37 29.5 37V35C26.2171 35 23.3055 36.7198 21.2137 39.3822L22.7863 40.6178ZM29.5 37C32.0388 37 34.4125 38.3253 36.2137 40.6178L37.7863 39.3822C35.6945 36.7198 32.7829 35 29.5 35V37Z" fill="#171717"/>
</svg>
