<svg width="64" height="64" viewBox="0 0 64 64" fill="none" xmlns="http://www.w3.org/2000/svg">
<circle cx="32" cy="32" r="32" fill="#FFE603"/>
<path d="M36.8 40V41V40ZM25.2 40L25.2 39H25.2V40ZM36.8 24L36.8 23H36.8V24ZM39 29.5C39 30.0523 39.4477 30.5 40 30.5C40.5523 30.5 41 30.0523 41 29.5H39ZM41 34.5C41 33.9477 40.5523 33.5 40 33.5C39.4477 33.5 39 33.9477 39 34.5H41ZM22.218 25.092L23.109 25.546L23.109 25.546L22.218 25.092ZM23.092 24.218L23.546 25.109L23.546 25.109L23.092 24.218ZM23.092 39.782L23.546 38.891H23.546L23.092 39.782ZM22.218 38.908L23.109 38.454L23.109 38.454L22.218 38.908ZM38.908 39.782L38.454 38.891L38.454 38.891L38.908 39.782ZM39.782 38.908L38.891 38.454V38.454L39.782 38.908ZM38.908 24.218L39.362 23.327V23.327L38.908 24.218ZM39.782 25.092L38.891 25.546V25.546L39.782 25.092ZM35 32H34H35ZM35.0384 31.1098L36.0192 31.3049L35.0384 31.1098ZM37.5 29.5V30.5V29.5ZM36.6098 29.5384L36.4147 28.5576L36.6098 29.5384ZM37.5 34.5V35.5V34.5ZM36.6098 34.4616L36.8049 33.4808L36.6098 34.4616ZM35.0384 32.8902L36.0192 32.6951L35.0384 32.8902ZM41.9616 32.8902L40.9808 32.6951L41.9616 32.8902ZM39.5 34.5V33.5V34.5ZM40.3902 34.4616L40.5853 35.4424L40.3902 34.4616ZM41.9616 31.1098L40.9808 31.3049L41.9616 31.1098ZM39.5 29.5V28.5V29.5ZM40.3902 29.5384L40.5853 28.5576L40.3902 29.5384ZM36.8 39L25.2 39L25.2 41L36.8 41V39ZM23 36.8V27.2H21V36.8H23ZM25.2 25H36.8V23H25.2V25ZM41 29.5V27.2H39V29.5H41ZM41 36.8V34.5H39V36.8H41ZM23 27.2C23 26.6234 23.0008 26.2512 23.0239 25.9678C23.0461 25.6962 23.0838 25.5955 23.109 25.546L21.327 24.638C21.1342 25.0164 21.0629 25.4096 21.0306 25.805C20.9992 26.1886 21 26.6564 21 27.2H23ZM25.2 23C24.6564 23 24.1886 22.9992 23.805 23.0306C23.4096 23.0629 23.0164 23.1342 22.638 23.327L23.546 25.109C23.5955 25.0838 23.6962 25.0461 23.9678 25.0239C24.2512 25.0008 24.6234 25 25.2 25V23ZM23.109 25.546C23.2049 25.3578 23.3578 25.2049 23.546 25.109L22.638 23.327C22.0735 23.6146 21.6146 24.0735 21.327 24.638L23.109 25.546ZM25.2 39C24.6234 39 24.2512 38.9992 23.9678 38.9761C23.6962 38.9539 23.5955 38.9162 23.546 38.891L22.638 40.673C23.0164 40.8658 23.4096 40.9371 23.805 40.9694C24.1886 41.0008 24.6564 41 25.2 41V39ZM21 36.8C21 37.3435 20.9992 37.8114 21.0306 38.195C21.0629 38.5904 21.1342 38.9836 21.327 39.362L23.109 38.454C23.0838 38.4045 23.0461 38.3038 23.0239 38.0322C23.0008 37.7488 23 37.3766 23 36.8H21ZM23.546 38.891C23.3578 38.7951 23.2049 38.6422 23.109 38.454L21.327 39.362C21.6146 39.9265 22.0735 40.3854 22.638 40.673L23.546 38.891ZM36.8 41C37.3436 41 37.8114 41.0008 38.195 40.9694C38.5904 40.9371 38.9836 40.8658 39.362 40.673L38.454 38.891C38.4045 38.9162 38.3038 38.9539 38.0322 38.9761C37.7488 38.9992 37.3766 39 36.8 39V41ZM39 36.8C39 37.3766 38.9992 37.7488 38.9761 38.0322C38.9539 38.3038 38.9162 38.4045 38.891 38.454L40.673 39.362C40.8658 38.9836 40.9371 38.5904 40.9694 38.195C41.0008 37.8114 41 37.3436 41 36.8H39ZM39.362 40.673C39.9265 40.3854 40.3854 39.9265 40.673 39.362L38.891 38.454C38.7951 38.6422 38.6422 38.7951 38.454 38.891L39.362 40.673ZM36.8 25C37.3765 25 37.7488 25.0008 38.0322 25.0239C38.3038 25.0461 38.4045 25.0838 38.454 25.109L39.362 23.327C38.9836 23.1342 38.5904 23.0629 38.195 23.0306C37.8114 22.9992 37.3435 23 36.8 23L36.8 25ZM41 27.2C41 26.6564 41.0008 26.1886 40.9694 25.805C40.9371 25.4096 40.8658 25.0164 40.673 24.638L38.891 25.546C38.9162 25.5955 38.9539 25.6962 38.9761 25.9678C38.9992 26.2512 39 26.6234 39 27.2H41ZM38.454 25.109C38.6422 25.2049 38.7951 25.3578 38.891 25.546L40.673 24.638C40.3854 24.0735 39.9265 23.6146 39.362 23.327L38.454 25.109ZM39.5 33.5H37.5V35.5H39.5V33.5ZM37.5 30.5H39.5V28.5H37.5V30.5ZM36 32C36 31.4874 36.0048 31.3772 36.0192 31.3049L34.0576 30.9147C33.9952 31.2289 34 31.5833 34 32H36ZM37.5 28.5C37.0833 28.5 36.7289 28.4952 36.4147 28.5576L36.8049 30.5192C36.8772 30.5048 36.9874 30.5 37.5 30.5V28.5ZM36.0192 31.3049C36.0981 30.9082 36.4082 30.5981 36.8049 30.5192L36.4147 28.5576C35.2247 28.7944 34.2944 29.7247 34.0576 30.9147L36.0192 31.3049ZM37.5 33.5C36.9874 33.5 36.8772 33.4952 36.8049 33.4808L36.4147 35.4424C36.7289 35.5048 37.0833 35.5 37.5 35.5V33.5ZM34 32C34 32.4167 33.9952 32.7711 34.0576 33.0853L36.0192 32.6951C36.0048 32.6228 36 32.5126 36 32H34ZM36.8049 33.4808C36.4082 33.4019 36.0981 33.0918 36.0192 32.6951L34.0576 33.0853C34.2944 34.2753 35.2247 35.2056 36.4147 35.4424L36.8049 33.4808ZM41 32C41 32.5126 40.9952 32.6228 40.9808 32.6951L42.9424 33.0853C43.0048 32.7711 43 32.4167 43 32H41ZM39.5 35.5C39.9167 35.5 40.2711 35.5048 40.5853 35.4424L40.1951 33.4808C40.1228 33.4952 40.0126 33.5 39.5 33.5V35.5ZM40.9808 32.6951C40.9019 33.0918 40.5918 33.4019 40.1951 33.4808L40.5853 35.4424C41.7753 35.2056 42.7056 34.2753 42.9424 33.0853L40.9808 32.6951ZM43 32C43 31.5833 43.0048 31.2289 42.9424 30.9147L40.9808 31.3049C40.9952 31.3772 41 31.4874 41 32H43ZM39.5 30.5C40.0126 30.5 40.1228 30.5048 40.1951 30.5192L40.5853 28.5576C40.2711 28.4952 39.9167 28.5 39.5 28.5V30.5ZM42.9424 30.9147C42.7056 29.7247 41.7753 28.7944 40.5853 28.5576L40.1951 30.5192C40.5918 30.5981 40.9019 30.9082 40.9808 31.3049L42.9424 30.9147Z" fill="#171717"/>
</svg>
