<svg width="64" height="64" viewBox="0 0 64 64" fill="none" xmlns="http://www.w3.org/2000/svg">
<circle cx="32" cy="32" r="32" fill="#FFE603"/>
<path d="M27.4855 39.4276L26.5049 39.6237L27.4855 39.4276ZM27.9806 36.8039C27.8723 36.2623 27.3454 35.9111 26.8039 36.0194C26.2623 36.1277 25.9111 36.6546 26.0194 37.1961L27.9806 36.8039ZM37.9806 37.1961C38.0889 36.6546 37.7377 36.1277 37.1961 36.0194C36.6546 35.9111 36.1277 36.2623 36.0194 36.8039L37.9806 37.1961ZM36.5145 39.4276L35.5339 39.2315L36.5145 39.4276ZM35.1613 41.8326L34.7609 40.9163H34.7609L35.1613 41.8326ZM36.0004 41.1448L36.8203 41.7172L36.8203 41.7172L36.0004 41.1448ZM27.9996 41.1448L28.8196 40.5724L28.8196 40.5724L27.9996 41.1448ZM28.8387 41.8326L29.2391 40.9163H29.2391L28.8387 41.8326ZM26.0194 26.8039C25.9111 27.3454 26.2623 27.8723 26.8039 27.9806C27.3454 28.0889 27.8723 27.7377 27.9806 27.1961L26.0194 26.8039ZM27.4855 24.5724L28.4661 24.7685L27.4855 24.5724ZM36.5145 24.5724L35.5339 24.7685V24.7685L36.5145 24.5724ZM36.0194 27.1961C36.1277 27.7377 36.6546 28.0889 37.1961 27.9806C37.7377 27.8723 38.0889 27.3454 37.9806 26.8039L36.0194 27.1961ZM35.1613 22.1674L35.5618 21.2511L35.1613 22.1674ZM36.0004 22.8552L36.8203 22.2828L36.8203 22.2828L36.0004 22.8552ZM28.8387 22.1674L28.4382 21.2511L28.8387 22.1674ZM27.9996 22.8552L28.8196 23.4276V23.4276L27.9996 22.8552ZM33 29C33 28.4477 32.5523 28 32 28C31.4477 28 31 28.4477 31 29H33ZM32 32H31C31 32.2652 31.1054 32.5196 31.2929 32.7071L32 32ZM32.7929 34.2071C33.1834 34.5976 33.8166 34.5976 34.2071 34.2071C34.5976 33.8166 34.5976 33.1834 34.2071 32.7929L32.7929 34.2071ZM28.4661 39.2315L27.9806 36.8039L26.0194 37.1961L26.5049 39.6237L28.4661 39.2315ZM33.3766 41H30.6234V43H33.3766V41ZM36.0194 36.8039L35.5339 39.2315L37.4951 39.6237L37.9806 37.1961L36.0194 36.8039ZM33.3766 43C33.8291 43 34.2228 43.0006 34.5499 42.9763C34.8896 42.9511 35.2265 42.8955 35.5618 42.7489L34.7609 40.9163C34.7131 40.9372 34.625 40.9652 34.4017 40.9818C34.1658 40.9994 33.8586 41 33.3766 41V43ZM35.5339 39.2315C35.4394 39.7041 35.3785 40.0052 35.3151 40.233C35.255 40.4487 35.2102 40.5297 35.1804 40.5724L36.8203 41.7172C37.0298 41.4172 37.1504 41.0977 37.2418 40.7695C37.3297 40.4536 37.4063 40.0674 37.4951 39.6237L35.5339 39.2315ZM35.5618 42.7489C36.0684 42.5275 36.5039 42.1705 36.8203 41.7172L35.1804 40.5724C35.0749 40.7235 34.9297 40.8425 34.7609 40.9163L35.5618 42.7489ZM26.5049 39.6237C26.5937 40.0674 26.6703 40.4536 26.7582 40.7695C26.8496 41.0977 26.9702 41.4172 27.1797 41.7172L28.8196 40.5724C28.7898 40.5297 28.745 40.4487 28.6849 40.233C28.6215 40.0052 28.5606 39.7041 28.4661 39.2315L26.5049 39.6237ZM30.6234 41C30.1414 41 29.8342 40.9994 29.5983 40.9818C29.375 40.9652 29.2869 40.9372 29.2391 40.9163L28.4382 42.7489C28.7735 42.8955 29.1104 42.9511 29.4501 42.9763C29.7772 43.0006 30.1709 43 30.6234 43V41ZM27.1797 41.7172C27.4961 42.1705 27.9316 42.5275 28.4382 42.7489L29.2391 40.9163C29.0703 40.8425 28.9251 40.7235 28.8196 40.5724L27.1797 41.7172ZM30.6234 23H33.3766V21H30.6234V23ZM27.9806 27.1961L28.4661 24.7685L26.5049 24.3763L26.0194 26.8039L27.9806 27.1961ZM35.5339 24.7685L36.0194 27.1961L37.9806 26.8039L37.4951 24.3763L35.5339 24.7685ZM33.3766 23C33.8586 23 34.1658 23.0006 34.4017 23.0182C34.625 23.0348 34.7131 23.0628 34.7609 23.0837L35.5618 21.2511C35.2265 21.1045 34.8896 21.0489 34.5499 21.0237C34.2228 20.9994 33.8291 21 33.3766 21V23ZM37.4951 24.3763C37.4063 23.9326 37.3297 23.5464 37.2418 23.2305C37.1504 22.9023 37.0298 22.5828 36.8203 22.2828L35.1804 23.4276C35.2102 23.4703 35.255 23.5513 35.3151 23.767C35.3785 23.9948 35.4394 24.2959 35.5339 24.7685L37.4951 24.3763ZM34.7609 23.0837C34.9297 23.1575 35.0749 23.2765 35.1804 23.4276L36.8203 22.2828C36.5039 21.8295 36.0684 21.4725 35.5618 21.2511L34.7609 23.0837ZM30.6234 21C30.1709 21 29.7772 20.9994 29.4501 21.0237C29.1104 21.0489 28.7735 21.1045 28.4382 21.2511L29.2391 23.0837C29.2869 23.0628 29.375 23.0348 29.5983 23.0182C29.8342 23.0006 30.1414 23 30.6234 23V21ZM28.4661 24.7685C28.5606 24.2959 28.6215 23.9948 28.6849 23.767C28.745 23.5513 28.7898 23.4703 28.8196 23.4276L27.1797 22.2828C26.9702 22.5828 26.8496 22.9023 26.7582 23.2305C26.6703 23.5464 26.5937 23.9326 26.5049 24.3763L28.4661 24.7685ZM28.4382 21.2511C27.9316 21.4725 27.4961 21.8295 27.1797 22.2828L28.8196 23.4276C28.9251 23.2765 29.0703 23.1575 29.2391 23.0837L28.4382 21.2511ZM31 29V32H33V29H31ZM31.2929 32.7071L32.7929 34.2071L34.2071 32.7929L32.7071 31.2929L31.2929 32.7071ZM38 32C38 35.3137 35.3137 38 32 38V40C36.4183 40 40 36.4183 40 32H38ZM32 38C28.6863 38 26 35.3137 26 32H24C24 36.4183 27.5817 40 32 40V38ZM26 32C26 28.6863 28.6863 26 32 26V24C27.5817 24 24 27.5817 24 32H26ZM32 26C35.3137 26 38 28.6863 38 32H40C40 27.5817 36.4183 24 32 24V26Z" fill="#171717"/>
</svg>
