<svg width="64" height="64" viewBox="0 0 64 64" fill="none" xmlns="http://www.w3.org/2000/svg">
<circle cx="32" cy="32" r="32" fill="#FFE603"/>
<path d="M41.5813 27.1999L42.5654 27.0224C42.5615 27.0005 42.5568 26.9787 42.5514 26.9571L41.5813 27.1999ZM39.8178 25.3818L40.09 24.4196C40.0784 24.4163 40.0667 24.4132 40.055 24.4103L39.8178 25.3818ZM32 25V24V25ZM24.1822 25.4182L23.9239 24.4521C23.9192 24.4534 23.9146 24.4546 23.91 24.4559L24.1822 25.4182ZM22.4187 27.2362L21.4486 26.9934C21.4432 27.0151 21.4385 27.0368 21.4346 27.0588L22.4187 27.2362ZM22.0005 32.0451L23.0006 32.0514L23.0005 32.0401L22.0005 32.0451ZM22.4187 36.8903L21.4346 37.0678C21.4404 37.1003 21.4479 37.1325 21.4569 37.1642L22.4187 36.8903ZM24.1822 38.6357L23.9183 39.6002L23.9239 39.6017L24.1822 38.6357ZM32 39.0538V38.0538V39.0538ZM39.8178 38.6357L40.0761 39.6017C40.0808 39.6005 40.0854 39.5992 40.09 39.5979L39.8178 38.6357ZM41.5813 36.8176L42.5514 37.0604C42.5568 37.0387 42.5615 37.0169 42.5655 36.995L41.5813 36.8176ZM41.9995 32.0451L40.9995 32.0388L40.9995 32.0487L41.9995 32.0451ZM30.9826 35.2076L30.4418 34.3664L30.9826 35.2076ZM30.2144 35.5829L30.1431 36.5804L30.2144 35.5829ZM29.8497 35.3838L30.6503 34.7845L29.8497 35.3838ZM34.9254 31.3271L34.3847 32.1682L34.9254 31.3271ZM35.5082 31.8054L36.4293 31.4162L35.5082 31.8054ZM34.9254 32.6729L35.4662 33.5141L34.9254 32.6729ZM35.5082 32.1946L36.4293 32.5838L35.5082 32.1946ZM30.9826 28.7924L31.5234 27.9512L30.9826 28.7924ZM30.2144 28.4171L30.1431 27.4196L30.2144 28.4171ZM29.8497 28.6162L30.6503 29.2155L29.8497 28.6162ZM42.5514 26.9571C42.4007 26.3549 42.0937 25.8032 41.6616 25.3577L40.226 26.7502C40.4131 26.9431 40.546 27.182 40.6112 27.4427L42.5514 26.9571ZM41.6616 25.3577C41.2294 24.9121 40.6873 24.5885 40.09 24.4196L39.5455 26.344C39.8041 26.4172 40.0389 26.5573 40.226 26.7502L41.6616 25.3577ZM40.055 24.4103C39.5684 24.2915 38.802 24.2165 38.0031 24.1633C37.1782 24.1083 36.2352 24.0721 35.3497 24.0481C34.4627 24.024 33.6259 24.012 33.0114 24.006C32.704 24.003 32.4517 24.0015 32.2761 24.0008C32.1882 24.0004 32.1195 24.0002 32.0726 24.0001C32.0492 24 32.0312 24 32.019 24C32.0129 24 32.0082 24 32.005 24C32.0034 24 32.0022 24 32.0014 24C32.001 24 32.0006 24 32.0004 24C32.0003 24 32.0002 24 32.0001 24C32.0001 24 32 24 32 25C32 26 32 26 32 26C32 26 32.0001 26 32.0002 26C32.0003 26 32.0006 26 32.0009 26C32.0016 26 32.0026 26 32.0041 26C32.0069 26 32.0112 26 32.017 26C32.0286 26 32.0459 26 32.0686 26.0001C32.1141 26.0002 32.1813 26.0004 32.2675 26.0007C32.44 26.0015 32.6886 26.003 32.9919 26.0059C33.5989 26.0118 34.4234 26.0237 35.2954 26.0474C36.1689 26.0711 37.0826 26.1064 37.8702 26.1589C38.6836 26.213 39.2854 26.2812 39.5806 26.3533L40.055 24.4103ZM32 25C32 24 31.9999 24 31.9999 24C31.9998 24 31.9997 24 31.9996 24C31.9993 24 31.999 24 31.9986 24C31.9978 24 31.9965 24 31.9949 24C31.9917 24 31.9871 24 31.9809 24C31.9687 24 31.9507 24.0001 31.9272 24.0001C31.8802 24.0002 31.8114 24.0004 31.7235 24.0008C31.5477 24.0017 31.2953 24.0033 30.9877 24.0066C30.3728 24.0132 29.5355 24.0263 28.6477 24.0527C27.7616 24.079 26.8172 24.1188 25.9906 24.1791C25.192 24.2373 24.4184 24.3199 23.9239 24.4521L24.4406 26.3842C24.7278 26.3074 25.3223 26.2331 26.1361 26.1738C26.9219 26.1164 27.8343 26.0778 28.7071 26.0518C29.5784 26.0259 30.4024 26.013 31.009 26.0065C31.3122 26.0032 31.5606 26.0016 31.7329 26.0008C31.8191 26.0004 31.8862 26.0002 31.9316 26.0001C31.9543 26 31.9716 26 31.9831 26C31.9888 26 31.9932 26 31.996 26C31.9974 26 31.9985 26 31.9991 26C31.9995 26 31.9997 26 31.9998 26C31.9999 26 32 26 32 26C32 26 32 26 32 25ZM23.91 24.4559C23.3127 24.6249 22.7706 24.9485 22.3384 25.3941L23.774 26.7866C23.9611 26.5937 24.1959 26.4536 24.4545 26.3804L23.91 24.4559ZM22.3384 25.3941C21.9063 25.8396 21.5993 26.3913 21.4486 26.9934L23.3888 27.4791C23.454 27.2183 23.5869 26.9795 23.774 26.7866L22.3384 25.3941ZM21.4346 27.0588C21.1375 28.7058 20.9923 30.3765 21.0005 32.05L23.0005 32.0401C22.9928 30.4889 23.1275 28.9403 23.4028 27.4137L21.4346 27.0588ZM21.0005 32.0388C20.99 33.7249 21.1352 35.4084 21.4346 37.0678L23.4028 36.7128C23.1254 35.1747 22.9907 33.6142 23.0005 32.0514L21.0005 32.0388ZM21.4569 37.1642C21.6231 37.7476 21.9369 38.2783 22.3681 38.7051L23.7749 37.2835C23.5883 37.0988 23.4524 36.869 23.3804 36.6164L21.4569 37.1642ZM22.3681 38.7051C22.7992 39.1318 23.3332 39.4401 23.9183 39.6002L24.4461 37.6711C24.1928 37.6018 23.9616 37.4683 23.7749 37.2835L22.3681 38.7051ZM23.9239 39.6017C24.4184 39.734 25.192 39.8165 25.9906 39.8748C26.8172 39.935 27.7616 39.9748 28.6477 40.0011C29.5355 40.0275 30.3728 40.0406 30.9877 40.0472C31.2953 40.0505 31.5477 40.0522 31.7235 40.053C31.8114 40.0534 31.8802 40.0536 31.9272 40.0537C31.9507 40.0538 31.9687 40.0538 31.9809 40.0538C31.9871 40.0538 31.9917 40.0538 31.9949 40.0538C31.9965 40.0538 31.9978 40.0538 31.9986 40.0538C31.999 40.0538 31.9993 40.0538 31.9996 40.0538C31.9997 40.0538 31.9998 40.0538 31.9999 40.0538C31.9999 40.0538 32 40.0538 32 39.0538C32 38.0538 32 38.0538 32 38.0538C32 38.0538 31.9999 38.0538 31.9998 38.0538C31.9997 38.0538 31.9995 38.0538 31.9991 38.0538C31.9985 38.0538 31.9974 38.0538 31.996 38.0538C31.9932 38.0538 31.9888 38.0538 31.9831 38.0538C31.9716 38.0538 31.9543 38.0538 31.9316 38.0537C31.8862 38.0536 31.8191 38.0534 31.7329 38.053C31.5606 38.0522 31.3122 38.0506 31.009 38.0473C30.4024 38.0408 29.5784 38.0279 28.7071 38.002C27.8343 37.976 26.9219 37.9374 26.1361 37.8801C25.3223 37.8207 24.7278 37.7464 24.4406 37.6696L23.9239 39.6017ZM32 39.0538C32 40.0538 32.0001 40.0538 32.0001 40.0538C32.0002 40.0538 32.0003 40.0538 32.0004 40.0538C32.0007 40.0538 32.001 40.0538 32.0014 40.0538C32.0022 40.0538 32.0035 40.0538 32.0051 40.0538C32.0083 40.0538 32.0129 40.0538 32.0191 40.0538C32.0313 40.0538 32.0493 40.0538 32.0728 40.0537C32.1198 40.0536 32.1886 40.0534 32.2765 40.053C32.4523 40.0522 32.7047 40.0505 33.0124 40.0472C33.6272 40.0406 34.4645 40.0275 35.3523 40.0011C36.2384 39.9748 37.1828 39.935 38.0094 39.8748C38.808 39.8165 39.5816 39.734 40.0761 39.6017L39.5594 37.6696C39.2722 37.7464 38.6777 37.8207 37.8639 37.8801C37.0781 37.9374 36.1657 37.976 35.2929 38.002C34.4216 38.0279 33.5976 38.0408 32.991 38.0473C32.6878 38.0506 32.4394 38.0522 32.2671 38.053C32.1809 38.0534 32.1138 38.0536 32.0684 38.0537C32.0457 38.0538 32.0284 38.0538 32.0169 38.0538C32.0112 38.0538 32.0068 38.0538 32.004 38.0538C32.0026 38.0538 32.0015 38.0538 32.0009 38.0538C32.0005 38.0538 32.0003 38.0538 32.0002 38.0538C32.0001 38.0538 32 38.0538 32 38.0538C32 38.0538 32 38.0538 32 39.0538ZM40.09 39.5979C40.6873 39.4289 41.2294 39.1053 41.6616 38.6598L40.226 37.2672C40.0389 37.4602 39.8041 37.6003 39.5455 37.6734L40.09 39.5979ZM41.6616 38.6598C42.0937 38.2142 42.4007 37.6625 42.5514 37.0604L40.6112 36.5748C40.546 36.8355 40.4131 37.0743 40.226 37.2672L41.6616 38.6598ZM42.5655 36.995C42.8602 35.3604 43.0054 33.7024 42.9995 32.0415L40.9995 32.0487C41.005 33.5882 40.8704 35.125 40.5972 36.6401L42.5655 36.995ZM42.9995 32.0514C43.01 30.3652 42.8648 28.6818 42.5654 27.0224L40.5972 27.3774C40.8746 28.9155 41.0093 30.4759 40.9995 32.0388L42.9995 32.0514ZM30.4418 29.6336L34.3847 32.1682L35.4662 30.4859L31.5234 27.9512L30.4418 29.6336ZM34.3847 31.8318L30.4418 34.3664L31.5234 36.0488L35.4662 33.5141L34.3847 31.8318ZM30.75 34.5347V29.4653H28.75V34.5347H30.75ZM30.4418 34.3664C30.3394 34.4323 30.2593 34.4837 30.1902 34.5265C30.1205 34.5697 30.0768 34.5947 30.0485 34.6094C30.0189 34.6248 30.0275 34.6176 30.0619 34.6074C30.1009 34.5957 30.1803 34.5779 30.2856 34.5854L30.1431 36.5804C30.5111 36.6066 30.8082 36.4687 30.9719 36.3835C31.1434 36.2943 31.3393 36.1671 31.5234 36.0488L30.4418 34.3664ZM28.75 34.5347C28.75 34.7535 28.749 34.9871 28.7666 35.1796C28.7835 35.3634 28.8281 35.6878 29.0492 35.9831L30.6503 34.7845C30.7135 34.869 30.7415 34.9454 30.7528 34.9846C30.7628 35.0191 30.7613 35.0301 30.7583 34.997C30.7554 34.9652 30.7528 34.9149 30.7514 34.833C30.75 34.7516 30.75 34.6565 30.75 34.5347H28.75ZM30.2856 34.5854C30.4303 34.5958 30.5633 34.6684 30.6503 34.7845L29.0492 35.9831C29.31 36.3314 29.7091 36.5494 30.1431 36.5804L30.2856 34.5854ZM34.3847 32.1682C34.4739 32.2256 34.5422 32.2696 34.5999 32.3081C34.658 32.3468 34.6909 32.3706 34.7099 32.3854C34.7294 32.4006 34.7173 32.3934 34.6932 32.3664C34.6661 32.3358 34.6225 32.2786 34.587 32.1946L36.4293 31.4162C36.2995 31.1089 36.0793 30.917 35.9398 30.8083C35.8007 30.6998 35.6241 30.5874 35.4662 30.4859L34.3847 32.1682ZM35.4662 33.5141C35.6241 33.4126 35.8007 33.3002 35.9398 33.1917C36.0793 33.083 36.2995 32.8911 36.4293 32.5838L34.587 31.8054C34.6225 31.7214 34.6661 31.6642 34.6932 31.6336C34.7173 31.6066 34.7294 31.5994 34.7099 31.6146C34.6909 31.6294 34.658 31.6532 34.5999 31.6919C34.5422 31.7304 34.4739 31.7744 34.3847 31.8318L35.4662 33.5141ZM34.587 32.1946C34.5345 32.0702 34.5345 31.9298 34.587 31.8054L36.4293 32.5838C36.587 32.2106 36.587 31.7894 36.4293 31.4162L34.587 32.1946ZM31.5234 27.9512C31.3393 27.8329 31.1434 27.7057 30.9719 27.6165C30.8082 27.5313 30.5111 27.3934 30.1431 27.4196L30.2856 29.4146C30.1803 29.4221 30.1009 29.4043 30.0619 29.3926C30.0275 29.3824 30.0189 29.3752 30.0485 29.3906C30.0768 29.4053 30.1205 29.4303 30.1902 29.4735C30.2593 29.5163 30.3394 29.5677 30.4418 29.6336L31.5234 27.9512ZM30.75 29.4653C30.75 29.3435 30.75 29.2484 30.7514 29.167C30.7528 29.0851 30.7554 29.0348 30.7583 29.003C30.7613 28.9699 30.7628 28.9809 30.7528 29.0154C30.7415 29.0546 30.7135 29.131 30.6503 29.2155L29.0492 28.0169C28.8281 28.3122 28.7835 28.6367 28.7666 28.8204C28.749 29.0129 28.75 29.2465 28.75 29.4653H30.75ZM30.1431 27.4196C29.7091 27.4506 29.31 27.6686 29.0492 28.0169L30.6503 29.2155C30.5633 29.3316 30.4303 29.4042 30.2856 29.4146L30.1431 27.4196Z" fill="#171717"/>
</svg>
