<svg width="44" height="44" viewBox="0 0 44 44" fill="none" xmlns="http://www.w3.org/2000/svg">
<circle opacity="0.4" cx="22" cy="22" r="21.5" stroke="white"/>
<path d="M24.9886 21.2823C23.0631 20.2359 21.2195 19.2739 19.335 18.2695V24.278C21.3181 23.1817 23.4083 22.1777 24.9968 21.2823H24.9886Z" fill="white"/>
<path d="M13.6974 27.6827L13.6938 27.682C13.2983 27.6006 12.9942 27.4285 12.7895 27.2156L12.7895 27.2155L12.7822 27.2081C12.6668 27.0906 12.5052 26.835 12.3552 26.311L12.3553 26.311L12.3531 26.3035C12.2367 25.9087 12.1847 25.5799 12.1037 24.5774C11.9801 22.3088 11.9521 20.4785 12.1019 18.4431C12.1151 18.3231 12.1272 18.2064 12.1391 18.0924C12.1889 17.6131 12.2336 17.1833 12.33 16.7718C12.4467 16.2734 12.6117 15.9447 12.8353 15.733C13.1058 15.4808 13.4043 15.3301 13.7369 15.2668L13.7369 15.2668L13.7395 15.2663C14.0581 15.2048 15.0528 15.1342 16.5122 15.082C17.9318 15.0312 19.7035 15 21.5078 15C23.3079 15 25.0795 15.0312 26.5001 15.082C27.9606 15.1342 28.9575 15.2048 29.2765 15.2664L29.2785 15.2667C29.6967 15.3466 30.0732 15.5835 30.2793 15.8405C30.8168 16.7284 30.8838 17.8218 30.9556 18.9945C30.9626 19.1093 30.9697 19.2248 30.9772 19.341C31.0075 19.8911 31.0075 23.1074 30.9772 23.6561C30.8534 25.5818 30.7576 26.1076 30.5445 26.6431L30.5445 26.6431L30.5419 26.6497C30.4083 26.9924 30.3272 27.1036 30.1883 27.2451C29.9425 27.4888 29.6344 27.6524 29.3027 27.7188C25.9017 27.9772 23.0076 28.0334 19.7147 27.9798C15.6693 27.904 14.4212 27.8344 13.6974 27.6827Z" stroke="white" stroke-width="2"/>
</svg>
