<svg width="44" height="44" viewBox="0 0 44 44" fill="none" xmlns="http://www.w3.org/2000/svg">
<circle cx="22" cy="22" r="21.5" stroke="#CBCBCB"/>
<g clip-path="url(#clip0_5494_53115)">
<path d="M13.6974 27.6837L13.6938 27.683C13.2983 27.6016 12.9942 27.4295 12.7895 27.2166L12.7895 27.2165L12.7822 27.209C12.6668 27.0916 12.5052 26.836 12.3552 26.312L12.3553 26.312L12.3531 26.3045C12.2367 25.9097 12.1847 25.5809 12.1037 24.5783C11.9801 22.3097 11.9521 20.4795 12.1019 18.4441C12.1151 18.3241 12.1272 18.2073 12.1391 18.0933C12.1889 17.6141 12.2336 17.1843 12.33 16.7727C12.4467 16.2744 12.6117 15.9456 12.8353 15.734C13.1058 15.4818 13.4043 15.3311 13.7369 15.2678L13.7369 15.2678L13.7395 15.2673C14.0581 15.2058 15.0528 15.1352 16.5122 15.083C17.9318 15.0322 19.7035 15.001 21.5078 15.001C23.3079 15.001 25.0795 15.0322 26.5001 15.083C27.9606 15.1352 28.9575 15.2058 29.2765 15.2674L29.2785 15.2677C29.6967 15.3475 30.0732 15.5845 30.2793 15.8415C30.8168 16.7294 30.8838 17.8228 30.9556 18.9955C30.9626 19.1103 30.9697 19.2258 30.9772 19.3419C31.0075 19.892 31.0075 23.1084 30.9772 23.6571C30.8534 25.5827 30.7576 26.1086 30.5445 26.6441L30.5445 26.6441L30.5419 26.6507C30.4083 26.9934 30.3272 27.1046 30.1883 27.2461C29.9425 27.4898 29.6344 27.6533 29.3027 27.7198C25.9017 27.9782 23.0076 28.0343 19.7147 27.9808C15.6693 27.905 14.4212 27.8354 13.6974 27.6837Z" stroke="#171717" stroke-width="2"/>
<path d="M24.9886 21.2827C23.0631 20.2364 21.2195 19.2744 19.335 18.27V24.2784C21.3181 23.1821 23.4083 22.1782 24.9968 21.2827H24.9886Z" fill="#171717"/>
</g>
<defs>
<clipPath id="clip0_5494_53115">
<rect width="21" height="15" fill="white" transform="translate(11 14)"/>
</clipPath>
</defs>
</svg>
