<svg width="64" height="64" viewBox="0 0 64 64" fill="none" xmlns="http://www.w3.org/2000/svg">
<circle cx="32" cy="32" r="32" fill="#FFE603"/>
<path d="M33.7765 23.1022L34.0353 22.1363V22.1363L33.7765 23.1022ZM35 27C35 27.5523 35.4477 28 36 28C36.5523 28 37 27.5523 37 27H35ZM35.8978 25.2235L36.8637 24.9647V24.9647L35.8978 25.2235ZM30.2235 23.1022L30.4824 24.0681L30.2235 23.1022ZM27 27C27 27.5523 27.4477 28 28 28C28.5523 28 29 27.5523 29 27H27ZM28.1022 25.2235L29.0681 25.4824L28.1022 25.2235ZM23.092 40.782L23.546 39.891L23.092 40.782ZM22.218 39.908L23.109 39.454L22.218 39.908ZM41.782 39.908L40.891 39.454L41.782 39.908ZM40.908 40.782L40.454 39.891L40.908 40.782ZM40.908 27.218L40.454 28.109L40.908 27.218ZM41.782 28.092L40.891 28.546L41.782 28.092ZM23.092 27.218L23.546 28.109L23.092 27.218ZM22.218 28.092L23.109 28.546L22.218 28.092ZM32 24C32.9944 24 33.2954 24.0086 33.5176 24.0681L34.0353 22.1363C33.4946 21.9914 32.8656 22 32 22V24ZM37 27C37 26.1344 37.0086 25.5054 36.8637 24.9647L34.9319 25.4824C34.9914 25.7046 35 26.0056 35 27H37ZM33.5176 24.0681C34.2078 24.2531 34.7469 24.7922 34.9319 25.4824L36.8637 24.9647C36.4938 23.5844 35.4156 22.5062 34.0353 22.1363L33.5176 24.0681ZM32 22C31.1344 22 30.5054 21.9914 29.9647 22.1363L30.4824 24.0681C30.7046 24.0086 31.0056 24 32 24V22ZM29 27C29 26.0056 29.0086 25.7046 29.0681 25.4824L27.1363 24.9647C26.9914 25.5054 27 26.1344 27 27H29ZM29.9647 22.1363C28.5844 22.5062 27.5062 23.5844 27.1363 24.9647L29.0681 25.4824C29.2531 24.7922 29.7922 24.2531 30.4824 24.0681L29.9647 22.1363ZM25.2 28H38.8V26H25.2V28ZM41 30.2V37.8H43V30.2H41ZM38.8 40H25.2V42H38.8V40ZM23 37.8V30.2H21V37.8H23ZM25.2 40C24.6234 40 24.2512 39.9992 23.9678 39.9761C23.6962 39.9539 23.5955 39.9162 23.546 39.891L22.638 41.673C23.0164 41.8658 23.4096 41.9371 23.805 41.9694C24.1886 42.0008 24.6564 42 25.2 42V40ZM21 37.8C21 38.3436 20.9992 38.8114 21.0306 39.195C21.0629 39.5904 21.1342 39.9836 21.327 40.362L23.109 39.454C23.0838 39.4045 23.0461 39.3038 23.0239 39.0322C23.0008 38.7488 23 38.3766 23 37.8H21ZM23.546 39.891C23.3578 39.7951 23.2049 39.6422 23.109 39.454L21.327 40.362C21.6146 40.9265 22.0735 41.3854 22.638 41.673L23.546 39.891ZM41 37.8C41 38.3766 40.9992 38.7488 40.9761 39.0322C40.9539 39.3038 40.9162 39.4045 40.891 39.454L42.673 40.362C42.8658 39.9836 42.9371 39.5904 42.9694 39.195C43.0008 38.8114 43 38.3436 43 37.8H41ZM38.8 42C39.3436 42 39.8114 42.0008 40.195 41.9694C40.5904 41.9371 40.9836 41.8658 41.362 41.673L40.454 39.891C40.4045 39.9162 40.3038 39.9539 40.0322 39.9761C39.7488 39.9992 39.3766 40 38.8 40V42ZM40.891 39.454C40.7951 39.6422 40.6422 39.7951 40.454 39.891L41.362 41.673C41.9265 41.3854 42.3854 40.9265 42.673 40.362L40.891 39.454ZM38.8 28C39.3766 28 39.7488 28.0008 40.0322 28.0239C40.3038 28.0461 40.4045 28.0838 40.454 28.109L41.362 26.327C40.9836 26.1342 40.5904 26.0629 40.195 26.0306C39.8114 25.9992 39.3436 26 38.8 26V28ZM43 30.2C43 29.6564 43.0008 29.1886 42.9694 28.805C42.9371 28.4096 42.8658 28.0164 42.673 27.638L40.891 28.546C40.9162 28.5955 40.9539 28.6962 40.9761 28.9678C40.9992 29.2512 41 29.6234 41 30.2H43ZM40.454 28.109C40.6422 28.2049 40.7951 28.3578 40.891 28.546L42.673 27.638C42.3854 27.0735 41.9265 26.6146 41.362 26.327L40.454 28.109ZM25.2 26C24.6564 26 24.1886 25.9992 23.805 26.0306C23.4096 26.0629 23.0164 26.1342 22.638 26.327L23.546 28.109C23.5955 28.0838 23.6962 28.0461 23.9678 28.0239C24.2512 28.0008 24.6234 28 25.2 28V26ZM23 30.2C23 29.6234 23.0008 29.2512 23.0239 28.9678C23.0461 28.6962 23.0838 28.5955 23.109 28.546L21.327 27.638C21.1342 28.0164 21.0629 28.4096 21.0306 28.805C20.9992 29.1886 21 29.6564 21 30.2H23ZM22.638 26.327C22.0735 26.6146 21.6146 27.0735 21.327 27.638L23.109 28.546C23.2049 28.3578 23.3578 28.2049 23.546 28.109L22.638 26.327Z" fill="#171717"/>
</svg>
