<svg width="24" height="24" viewBox="0 0 24 24" fill="none" xmlns="http://www.w3.org/2000/svg">
<path d="M15.6794 2.00366L15.7398 1.00549L15.6794 2.00366ZM17.5 3.5L18.4487 3.18377V3.18377L17.5 3.5ZM17.4141 3.254L18.342 2.881L17.4141 3.254ZM6.5 3.5L7.44868 3.81623V3.81623L6.5 3.5ZM6.58586 3.254L5.65802 2.881L6.58586 3.254ZM8.32061 2.00366L8.26016 1.00549L8.32061 2.00366ZM17.5895 3.7684L16.6408 4.08463V4.08463L17.5895 3.7684ZM6.41053 3.7684L5.46185 3.45217V3.45217L6.41053 3.7684ZM3.63803 20.673L3.18404 21.564L3.63803 20.673ZM2.32698 19.362L1.43597 19.816L2.32698 19.362ZM21.673 19.362L22.564 19.816L21.673 19.362ZM20.362 20.673L20.816 21.564L20.362 20.673ZM21 7.70178V16.2H23V7.70178H21ZM17.2 20H6.8V22H17.2V20ZM3 16.2V7.70178H1V16.2H3ZM7.35922 4.08463L7.44868 3.81623L5.55132 3.18377L5.46185 3.45217L7.35922 4.08463ZM8.58114 3H15.4189V1H8.58114V3ZM16.5513 3.81623L16.6408 4.08463L18.5381 3.45217L18.4487 3.18377L16.5513 3.81623ZM15.4189 3C15.5656 3 15.5961 3.00044 15.6189 3.00183L15.7398 1.00549C15.6419 0.999557 15.539 1 15.4189 1V3ZM18.4487 3.18377C18.4107 3.0698 18.3786 2.97201 18.342 2.881L16.4863 3.627C16.4949 3.64827 16.5049 3.67706 16.5513 3.81623L18.4487 3.18377ZM15.6189 3.00183C16.0045 3.02518 16.3422 3.26856 16.4863 3.627L18.342 2.881C17.9097 1.80569 16.8967 1.07555 15.7398 1.00549L15.6189 3.00183ZM7.44868 3.81623C7.49507 3.67705 7.50514 3.64827 7.51369 3.627L5.65802 2.881C5.62144 2.97201 5.58931 3.0698 5.55132 3.18377L7.44868 3.81623ZM8.58114 1C8.461 1 8.35807 0.999557 8.26016 1.00549L8.38107 3.00183C8.40395 3.00044 8.43444 3 8.58114 3V1ZM7.51369 3.627C7.65778 3.26856 7.99545 3.02518 8.38107 3.00183L8.26016 1.00549C7.10332 1.07555 6.09031 1.80568 5.65802 2.881L7.51369 3.627ZM19.2982 4C18.9534 4 18.6472 3.77933 18.5381 3.45217L16.6408 4.08463C17.0221 5.22847 18.0925 6 19.2982 6V4ZM4.70178 6C5.90749 6 6.97794 5.22847 7.35922 4.08463L5.46185 3.45217C5.3528 3.77933 5.04663 4 4.70178 4V6ZM6.8 20C5.94342 20 5.36113 19.9992 4.91104 19.9624C4.47262 19.9266 4.24842 19.8617 4.09202 19.782L3.18404 21.564C3.66937 21.8113 4.18608 21.9099 4.74817 21.9558C5.2986 22.0008 5.97642 22 6.8 22V20ZM1 16.2C1 17.0236 0.999222 17.7014 1.04419 18.2518C1.09012 18.8139 1.18868 19.3306 1.43597 19.816L3.21799 18.908C3.1383 18.7516 3.07337 18.5274 3.03755 18.089C3.00078 17.6389 3 17.0566 3 16.2H1ZM4.09202 19.782C3.7157 19.5903 3.40973 19.2843 3.21799 18.908L1.43597 19.816C1.81947 20.5686 2.43139 21.1805 3.18404 21.564L4.09202 19.782ZM21 16.2C21 17.0566 20.9992 17.6389 20.9624 18.089C20.9266 18.5274 20.8617 18.7516 20.782 18.908L22.564 19.816C22.8113 19.3306 22.9099 18.8139 22.9558 18.2518C23.0008 17.7014 23 17.0236 23 16.2H21ZM17.2 22C18.0236 22 18.7014 22.0008 19.2518 21.9558C19.8139 21.9099 20.3306 21.8113 20.816 21.564L19.908 19.782C19.7516 19.8617 19.5274 19.9266 19.089 19.9624C18.6389 19.9992 18.0566 20 17.2 20V22ZM20.782 18.908C20.5903 19.2843 20.2843 19.5903 19.908 19.782L20.816 21.564C21.5686 21.1805 22.1805 20.5686 22.564 19.816L20.782 18.908ZM23 7.70178C23 5.65734 21.3427 4 19.2982 4V6C20.2381 6 21 6.76191 21 7.70178H23ZM3 7.70178C3 6.76191 3.76191 6 4.70178 6V4C2.65734 4 1 5.65734 1 7.70178H3ZM15.5 12C15.5 13.933 13.933 15.5 12 15.5V17.5C15.0376 17.5 17.5 15.0376 17.5 12H15.5ZM12 15.5C10.067 15.5 8.5 13.933 8.5 12H6.5C6.5 15.0376 8.96243 17.5 12 17.5V15.5ZM8.5 12C8.5 10.067 10.067 8.5 12 8.5V6.5C8.96243 6.5 6.5 8.96243 6.5 12H8.5ZM12 8.5C13.933 8.5 15.5 10.067 15.5 12H17.5C17.5 8.96243 15.0376 6.5 12 6.5V8.5Z" fill="#171717"/>
</svg>
