<svg width="45" height="45" viewBox="0 0 45 45" fill="none" xmlns="http://www.w3.org/2000/svg">
<path fill-rule="evenodd" clip-rule="evenodd" d="M22.0395 1.21387C33.5407 1.21387 42.8651 10.5383 42.8651 22.0394C42.8651 33.5406 33.5407 42.865 22.0395 42.865C10.5384 42.865 1.21396 33.5406 1.21396 22.0394C1.21396 10.5383 10.5384 1.21387 22.0395 1.21387Z" fill="#FFE603" />
<path fill-rule="evenodd" clip-rule="evenodd" d="M22.0395 1.21387C33.5407 1.21387 42.8651 10.5383 42.8651 22.0394C42.8651 33.5406 33.5407 42.865 22.0395 42.865C10.5384 42.865 1.21396 33.5406 1.21396 22.0394C1.21396 10.5383 10.5384 1.21387 22.0395 1.21387V1.21387Z" stroke="#161616" stroke-width="0.5" stroke-linejoin="round" />
<path fill-rule="evenodd" clip-rule="evenodd" d="M9.98373 26.3721L11.1349 28.1303C18.0837 23.5884 25.2419 23.6093 33.0279 28.1512L34.0954 26.3512C25.6605 21.4117 17.5605 21.4117 9.98373 26.3721Z" fill="#161616" />
<path fill-rule="evenodd" clip-rule="evenodd" d="M22.0605 31.6885C21.2442 31.6885 20.5953 31.0187 20.5953 30.2234C20.5953 29.428 21.2651 28.7582 22.0605 28.7582C22.8558 28.7582 23.5256 29.428 23.5256 30.2234C23.5256 31.0187 22.8767 31.6885 22.0605 31.6885ZM22.0605 26.6443C20.093 26.6443 18.5023 28.235 18.5023 30.2024C18.5023 32.1699 20.093 33.7606 22.0605 33.7606C24.0279 33.7606 25.6186 32.1699 25.6186 30.2024C25.6186 28.235 24.0279 26.6443 22.0605 26.6443Z" fill="#161616" />
<mask id="mask0_3669_16577" style="mask-type:alpha" maskUnits="userSpaceOnUse" x="0" y="0" width="45" height="45">
<path d="M0 0H44.0791V44.0665H0V0Z" fill="white" />
</mask>
<g mask="url(#mask0_3669_16577)">
<path fill-rule="evenodd" clip-rule="evenodd" d="M20.5744 19.4232L22.0395 20.8883L31.1442 11.8046L29.6581 10.3185L22.0814 17.9162L14.4628 10.2976L12.9767 11.7837L20.5954 19.3813L20.5744 19.4232Z" fill="#161616" />
<path fill-rule="evenodd" clip-rule="evenodd" d="M22.0395 41.986C11.0302 41.986 2.09302 33.0279 2.09302 22.0395C2.09302 11.0512 11.0512 2.09302 22.0395 2.09302C33.0488 2.09302 41.986 11.0512 41.986 22.0395C41.986 33.0279 33.0279 41.986 22.0395 41.986ZM22.0395 0C9.87907 0 0 9.87907 0 22.0395C0 34.2 9.87907 44.0791 22.0395 44.0791C34.2 44.0791 44.0791 34.2 44.0791 22.0395C44.0791 9.87907 34.2 0 22.0395 0Z" fill="#161616" />
</g>
</svg>
