  <svg xmlns="http://www.w3.org/2000/svg" width="50" height="50" viewBox="0 0 50 50">
    <g fill="none" fillRule="evenodd">
        <circle cx="25" cy="25" r="25" fill="#FFE603" />
        <path fill="#1C1B19" fillRule="nonzero" d="M21.278 38.572c-.037 0-.075-.033-.112-.098a.473.473 0 0 1-.056-.238V36.22c0-.093.028-.173.084-.238a.252.252 0 0 1 .196-.098c.616-.019 1.101-.098 1.456-.238.355-.14.64-.41.854-.812.215-.401.369-.985.462-1.75l-.028-.168-3.528-13.888v-.112c0-.168.103-.252.308-.252h2.744c.224 0 .345.103.364.308l1.708 9.268c.019.056.047.084.084.084.037 0 .065-.028.084-.084l1.652-9.268c.019-.205.14-.308.364-.308l2.772.056c.261 0 .364.121.308.364l-3.752 14.7c-.355 1.325-.728 2.315-1.12 2.968a3.282 3.282 0 0 1-1.652 1.4c-.71.28-1.727.42-3.052.42h-.14z" />
        <rect width="12" height="3" x="20" y="13" fill="#1C1B19" rx="1" />
    </g>
  </svg>
