<svg width="64" height="64" viewBox="0 0 64 64" fill="none" xmlns="http://www.w3.org/2000/svg">
<circle cx="32" cy="32" r="32" fill="#FFE603"/>
<path d="M31.9998 22V21V22ZM25.9998 28H24.9998H25.9998ZM40.538 36.9016L39.9422 36.0984L40.538 36.9016ZM39.6501 34.6054L40.4992 34.0771L39.6501 34.6054ZM40.7384 36.5408L39.7418 36.4592L40.7384 36.5408ZM24.3494 34.6054L23.5004 34.0771H23.5004L24.3494 34.6054ZM23.2611 36.5408L22.2644 36.6223L23.2611 36.5408ZM23.4616 36.9016L22.8658 37.7047L23.4616 36.9016ZM30.0157 40.2503C29.6016 39.8848 28.9697 39.9242 28.6042 40.3383C28.2387 40.7523 28.2781 41.3843 28.6922 41.7497L30.0157 40.2503ZM35.3073 41.7497C35.7214 41.3843 35.7608 40.7523 35.3953 40.3383C35.0299 39.9242 34.3979 39.8848 33.9839 40.2503L35.3073 41.7497ZM38.9998 28C38.9998 26.1435 38.2623 24.363 36.9495 23.0503L35.5353 24.4645C36.473 25.4021 36.9998 26.6739 36.9998 28H38.9998ZM36.9495 23.0503C35.6368 21.7375 33.8563 21 31.9998 21V23C33.3259 23 34.5976 23.5268 35.5353 24.4645L36.9495 23.0503ZM31.9998 21C30.1433 21 28.3628 21.7375 27.05 23.0503L28.4642 24.4645C29.4019 23.5268 30.6737 23 31.9998 23V21ZM27.05 23.0503C25.7373 24.363 24.9998 26.1435 24.9998 28H26.9998C26.9998 26.6739 27.5266 25.4021 28.4642 24.4645L27.05 23.0503ZM24.9998 28C24.9998 30.9127 24.2678 32.8439 23.5004 34.0771L25.1985 35.1337C26.1727 33.5681 26.9998 31.2677 26.9998 28H24.9998ZM25.3886 38H38.6109V36H25.3886V38ZM40.4992 34.0771C39.7318 32.8439 38.9998 30.9127 38.9998 28H36.9998C36.9998 31.2677 37.8268 33.5681 38.8011 35.1337L40.4992 34.0771ZM38.6109 38C39.1996 38 39.6722 38.0002 40.0122 37.9869C40.181 37.9804 40.3483 37.9695 40.4957 37.9477C40.5869 37.9342 40.8795 37.8933 41.1338 37.7047L39.9422 36.0984C40.0575 36.0129 40.1575 35.9826 40.1788 35.9763C40.2096 35.967 40.2218 35.9664 40.2026 35.9693C40.1632 35.9751 40.0813 35.9827 39.9344 35.9885C39.6431 35.9998 39.2185 36 38.6109 36V38ZM38.8011 35.1337C39.1727 35.731 39.437 36.156 39.6084 36.4534C39.6949 36.6035 39.7432 36.6962 39.7668 36.7483C39.7787 36.7745 39.775 36.7701 39.7673 36.7442C39.7644 36.7344 39.7285 36.6216 39.7418 36.4592L41.7351 36.6223C41.7518 36.4187 41.7074 36.2515 41.6841 36.1733C41.656 36.079 41.62 35.9922 41.5879 35.9215C41.5235 35.7797 41.4366 35.6202 41.3412 35.4547C41.1487 35.1206 40.8621 34.6603 40.4992 34.0771L38.8011 35.1337ZM41.1338 37.7047C41.244 37.623 41.4277 37.4758 41.5619 37.2343C41.696 36.9928 41.7239 36.7591 41.7351 36.6223L39.7418 36.4592C39.7381 36.5048 39.7392 36.3969 39.8136 36.263C39.8879 36.1291 39.9789 36.0712 39.9422 36.0984L41.1338 37.7047ZM23.5004 34.0771C23.1375 34.6603 22.8509 35.1206 22.6584 35.4547C22.5629 35.6202 22.476 35.7797 22.4116 35.9215C22.3795 35.9922 22.3436 36.079 22.3155 36.1733C22.2922 36.2515 22.2478 36.4187 22.2644 36.6223L24.2578 36.4592C24.2711 36.6216 24.2352 36.7344 24.2323 36.7442C24.2245 36.7701 24.2208 36.7745 24.2327 36.7483C24.2564 36.6962 24.3046 36.6035 24.3912 36.4534C24.5626 36.156 24.8269 35.731 25.1985 35.1337L23.5004 34.0771ZM25.3886 36C24.7811 36 24.3565 35.9998 24.0652 35.9885C23.9183 35.9827 23.8364 35.9751 23.797 35.9693C23.7777 35.9664 23.7899 35.967 23.8208 35.9763C23.842 35.9826 23.942 36.0129 24.0573 36.0984L22.8658 37.7047C23.1201 37.8933 23.4127 37.9342 23.5039 37.9477C23.6513 37.9695 23.8185 37.9804 23.9873 37.9869C24.3273 38.0002 24.7999 38 25.3886 38V36ZM22.2644 36.6223C22.2756 36.7591 22.3035 36.9928 22.4377 37.2343C22.5718 37.4758 22.7555 37.623 22.8658 37.7047L24.0573 36.0984C24.0206 36.0712 24.1116 36.1291 24.186 36.263C24.2604 36.3969 24.2615 36.5048 24.2578 36.4592L22.2644 36.6223ZM31.9998 41C31.2383 41 30.5451 40.7176 30.0157 40.2503L28.6922 41.7497C29.573 42.5272 30.7324 43 31.9998 43V41ZM33.9839 40.2503C33.4544 40.7176 32.7613 41 31.9998 41V43C33.2671 43 34.4265 42.5272 35.3073 41.7497L33.9839 40.2503Z" fill="#171717"/>
</svg>
