<svg width="64" height="64" viewBox="0 0 64 64" fill="none" xmlns="http://www.w3.org/2000/svg">
<circle cx="32" cy="32" r="32" fill="#FFE603"/>
<path d="M30.801 32.401C30.4702 31.9587 29.8435 31.8684 29.4012 32.1992C28.959 32.53 28.8686 33.1567 29.1994 33.5989L30.801 32.401ZM37.5402 33.54L36.8331 32.8329L36.833 32.833L37.5402 33.54ZM40.5402 30.54L41.2473 31.2471C41.2514 31.243 41.2555 31.2388 41.2595 31.2347L40.5402 30.54ZM33.4702 23.47L32.7755 22.7507C32.772 22.754 32.7686 22.7574 32.7652 22.7608L33.4702 23.47ZM31.0452 24.4708C30.6535 24.8602 30.6516 25.4933 31.041 25.885C31.4304 26.2767 32.0636 26.2785 32.4552 25.8891L31.0452 24.4708ZM33.1994 31.5989C33.5302 32.0412 34.1569 32.1315 34.5992 31.8007C35.0414 31.4699 35.1318 30.8432 34.801 30.401L33.1994 31.5989ZM26.4602 30.46L27.1673 31.1671L27.1674 31.1669L26.4602 30.46ZM23.4602 33.46L22.7531 32.7529C22.749 32.757 22.7449 32.7611 22.7409 32.7653L23.4602 33.46ZM30.5302 40.53L31.2249 41.2493C31.2291 41.2452 31.2332 41.2412 31.2373 41.2371L30.5302 40.53ZM32.9473 39.5271C33.3378 39.1365 33.3378 38.5034 32.9473 38.1129C32.5568 37.7223 31.9236 37.7223 31.5331 38.1129L32.9473 39.5271ZM29.1994 33.5989C29.7148 34.2879 30.3723 34.858 31.1273 35.2705L32.0862 33.5153C31.5829 33.2403 31.1445 32.8603 30.801 32.401L29.1994 33.5989ZM31.1273 35.2705C31.8823 35.683 32.7172 35.9283 33.5754 35.9897L33.7183 33.9949C33.1462 33.9539 32.5896 33.7903 32.0862 33.5153L31.1273 35.2705ZM33.5754 35.9897C34.4336 36.0512 35.2949 35.9274 36.101 35.6267L35.402 33.7528C34.8646 33.9533 34.2904 34.0358 33.7183 33.9949L33.5754 35.9897ZM36.101 35.6267C36.9072 35.326 37.6392 34.8554 38.2474 34.2469L36.833 32.833C36.4275 33.2386 35.9394 33.5523 35.402 33.7528L36.101 35.6267ZM38.2473 34.2471L41.2473 31.2471L39.8331 29.8329L36.8331 32.8329L38.2473 34.2471ZM41.2595 31.2347C42.3524 30.1031 42.9572 28.5875 42.9435 27.0143L40.9436 27.0316C40.9527 28.0804 40.5495 29.0908 39.8209 29.8453L41.2595 31.2347ZM42.9435 27.0143C42.9299 25.4411 42.2988 23.9362 41.1864 22.8238L39.7722 24.238C40.5138 24.9796 40.9345 25.9829 40.9436 27.0316L42.9435 27.0143ZM41.1864 22.8238C40.074 21.7113 38.5691 21.0803 36.9959 21.0666L36.9785 23.0666C38.0273 23.0757 39.0306 23.4963 39.7722 24.238L41.1864 22.8238ZM36.9959 21.0666C35.4227 21.053 33.9071 21.6577 32.7755 22.7507L34.1649 24.1893C34.9193 23.4606 35.9297 23.0574 36.9785 23.0666L36.9959 21.0666ZM32.7652 22.7608L31.0452 24.4708L32.4552 25.8891L34.1752 24.1791L32.7652 22.7608ZM34.801 30.401C34.2856 29.712 33.6281 29.142 32.8731 28.7295L31.9142 30.4846C32.4175 30.7596 32.8559 31.1396 33.1994 31.5989L34.801 30.401ZM32.8731 28.7295C32.1181 28.317 31.2832 28.0716 30.425 28.0102L30.2821 30.0051C30.8542 30.0461 31.4108 30.2096 31.9142 30.4846L32.8731 28.7295ZM30.425 28.0102C29.5668 27.9487 28.7055 28.0725 27.8994 28.3732L28.5984 30.2471C29.1358 30.0467 29.71 29.9641 30.2821 30.0051L30.425 28.0102ZM27.8994 28.3732C27.0932 28.674 26.3612 29.1445 25.753 29.753L27.1674 31.1669C27.5729 30.7613 28.061 30.4476 28.5984 30.2471L27.8994 28.3732ZM25.7531 29.7529L22.7531 32.7529L24.1673 34.1671L27.1673 31.1671L25.7531 29.7529ZM22.7409 32.7653C21.648 33.8969 21.0432 35.4125 21.0569 36.9857L23.0568 36.9683C23.0477 35.9195 23.4509 34.9091 24.1795 34.1547L22.7409 32.7653ZM21.0569 36.9857C21.0705 38.5588 21.7016 40.0637 22.814 41.1762L24.2282 39.762C23.4866 39.0203 23.0659 38.0171 23.0568 36.9683L21.0569 36.9857ZM22.814 41.1762C23.9264 42.2886 25.4313 42.9196 27.0045 42.9333L27.0219 40.9334C25.9731 40.9243 24.9698 40.5036 24.2282 39.762L22.814 41.1762ZM27.0045 42.9333C28.5777 42.947 30.0933 42.3422 31.2249 41.2493L29.8355 39.8107C29.0811 40.5393 28.0707 40.9425 27.0219 40.9334L27.0045 42.9333ZM31.2373 41.2371L32.9473 39.5271L31.5331 38.1129L29.8231 39.8229L31.2373 41.2371Z" fill="#171717"/>
</svg>
