<svg width="64" height="64" viewBox="0 0 64 64" fill="none" xmlns="http://www.w3.org/2000/svg">
<circle cx="32" cy="32" r="32" fill="#FFE603"/>
<path d="M23.638 39.673L23.184 40.564L23.638 39.673ZM22.327 38.362L21.436 38.816L22.327 38.362ZM41.673 38.362L42.564 38.816L41.673 38.362ZM40.362 39.673L40.816 40.564L40.362 39.673ZM40.362 24.327L40.816 23.436L40.362 24.327ZM41.673 25.638L42.564 25.184L41.673 25.638ZM23.638 24.327L23.184 23.436L23.638 24.327ZM22.327 25.638L21.436 25.184L22.327 25.638ZM22.5735 26.1808C22.121 25.8641 21.4975 25.9741 21.1808 26.4265C20.8641 26.879 20.9741 27.5025 21.4265 27.8192L22.5735 26.1808ZM30.1649 32.7154L30.7384 31.8962V31.8962L30.1649 32.7154ZM33.8351 32.7154L33.2616 31.8962L33.8351 32.7154ZM42.5735 27.8192C43.0259 27.5025 43.1359 26.879 42.8192 26.4265C42.5025 25.9741 41.879 25.8641 41.4265 26.1808L42.5735 27.8192ZM31.5163 33.4993L31.7581 32.529L31.5163 33.4993ZM32.4837 33.4993L32.2419 32.529L32.4837 33.4993ZM26.8 25H37.2V23H26.8V25ZM41 28.8V35.2H43V28.8H41ZM37.2 39H26.8V41H37.2V39ZM23 35.2V28.8H21V35.2H23ZM26.8 39C25.9434 39 25.3611 38.9992 24.911 38.9624C24.4726 38.9266 24.2484 38.8617 24.092 38.782L23.184 40.564C23.6694 40.8113 24.1861 40.9099 24.7482 40.9558C25.2986 41.0008 25.9764 41 26.8 41V39ZM21 35.2C21 36.0236 20.9992 36.7014 21.0442 37.2518C21.0901 37.8139 21.1887 38.3306 21.436 38.816L23.218 37.908C23.1383 37.7516 23.0734 37.5274 23.0376 37.089C23.0008 36.6389 23 36.0566 23 35.2H21ZM24.092 38.782C23.7157 38.5903 23.4097 38.2843 23.218 37.908L21.436 38.816C21.8195 39.5686 22.4314 40.1805 23.184 40.564L24.092 38.782ZM41 35.2C41 36.0566 40.9992 36.6389 40.9624 37.089C40.9266 37.5274 40.8617 37.7516 40.782 37.908L42.564 38.816C42.8113 38.3306 42.9099 37.8139 42.9558 37.2518C43.0008 36.7014 43 36.0236 43 35.2H41ZM37.2 41C38.0236 41 38.7014 41.0008 39.2518 40.9558C39.8139 40.9099 40.3306 40.8113 40.816 40.564L39.908 38.782C39.7516 38.8617 39.5274 38.9266 39.089 38.9624C38.6389 38.9992 38.0566 39 37.2 39V41ZM40.782 37.908C40.5903 38.2843 40.2843 38.5903 39.908 38.782L40.816 40.564C41.5686 40.1805 42.1805 39.5686 42.564 38.816L40.782 37.908ZM37.2 25C38.0566 25 38.6389 25.0008 39.089 25.0376C39.5274 25.0734 39.7516 25.1383 39.908 25.218L40.816 23.436C40.3306 23.1887 39.8139 23.0901 39.2518 23.0442C38.7014 22.9992 38.0236 23 37.2 23V25ZM43 28.8C43 27.9764 43.0008 27.2986 42.9558 26.7482C42.9099 26.1861 42.8113 25.6694 42.564 25.184L40.782 26.092C40.8617 26.2484 40.9266 26.4726 40.9624 26.911C40.9992 27.3611 41 27.9434 41 28.8H43ZM39.908 25.218C40.2843 25.4097 40.5903 25.7157 40.782 26.092L42.564 25.184C42.1805 24.4314 41.5686 23.8195 40.816 23.436L39.908 25.218ZM26.8 23C25.9764 23 25.2986 22.9992 24.7482 23.0442C24.1861 23.0901 23.6694 23.1887 23.184 23.436L24.092 25.218C24.2484 25.1383 24.4726 25.0734 24.911 25.0376C25.3611 25.0008 25.9434 25 26.8 25V23ZM23 28.8C23 27.9434 23.0008 27.3611 23.0376 26.911C23.0734 26.4726 23.1383 26.2484 23.218 26.092L21.436 25.184C21.1887 25.6694 21.0901 26.1861 21.0442 26.7482C20.9992 27.2986 21 27.9764 21 28.8H23ZM23.184 23.436C22.4314 23.8195 21.8195 24.4314 21.436 25.184L23.218 26.092C23.4097 25.7157 23.7157 25.4097 24.092 25.218L23.184 23.436ZM21.4265 27.8192L29.5915 33.5347L30.7384 31.8962L22.5735 26.1808L21.4265 27.8192ZM34.4085 33.5347L42.5735 27.8192L41.4265 26.1808L33.2616 31.8962L34.4085 33.5347ZM29.5915 33.5347C30.1849 33.9501 30.6916 34.3243 31.2744 34.4696L31.7581 32.529C31.6218 32.495 31.4673 32.4065 30.7384 31.8962L29.5915 33.5347ZM33.2616 31.8962C32.5327 32.4065 32.3782 32.495 32.2419 32.529L32.7256 34.4696C33.3084 34.3243 33.8151 33.9501 34.4085 33.5347L33.2616 31.8962ZM31.2744 34.4696C31.7508 34.5884 32.2492 34.5884 32.7256 34.4696L32.2419 32.529C32.0831 32.5686 31.9169 32.5686 31.7581 32.529L31.2744 34.4696Z" fill="#171717"/>
</svg>
