<svg width="64" height="64" viewBox="0 0 64 64" fill="none" xmlns="http://www.w3.org/2000/svg">
<circle cx="32" cy="32" r="32" fill="#FFE603"/>
<path d="M22.2724 39.314C21.8935 39.7158 21.9122 40.3487 22.314 40.7276C22.7158 41.1065 23.3487 41.0878 23.7276 40.686L22.2724 39.314ZM40.2724 40.686C40.6513 41.0878 41.2842 41.1065 41.686 40.7276C42.0878 40.3487 42.1065 39.7158 41.7276 39.314L40.2724 40.686ZM35.5 27.5C35.5 29.433 33.933 31 32 31V33C35.0376 33 37.5 30.5376 37.5 27.5H35.5ZM32 31C30.067 31 28.5 29.433 28.5 27.5H26.5C26.5 30.5376 28.9624 33 32 33V31ZM28.5 27.5C28.5 25.567 30.067 24 32 24V22C28.9624 22 26.5 24.4624 26.5 27.5H28.5ZM32 24C33.933 24 35.5 25.567 35.5 27.5H37.5C37.5 24.4624 35.0376 22 32 22V24ZM23.7276 40.686C25.8933 38.389 28.8088 37 32 37V35C28.2052 35 24.7783 36.6562 22.2724 39.314L23.7276 40.686ZM32 37C35.1912 37 38.1067 38.389 40.2724 40.686L41.7276 39.314C39.2217 36.6562 35.7948 35 32 35V37Z" fill="#171717"/>
</svg>
