<svg width="48" height="48" viewBox="0 0 48 48" fill="none" xmlns="http://www.w3.org/2000/svg">
<g clip-path="url(#clip0_203_1220)">
<path d="M30.1125 47.0406H30.6881L40.0824 42.3718L40.2388 42.1521V4.88568L40.0824 4.66491L30.6881 0H30.1055L30.1125 47.0406Z" fill="#CBCBCB"/>
<path d="M17.8869 47.0406H17.3033L7.91699 42.3718L7.72652 42.0461L7.62988 5.07547L7.91699 4.66491L17.3033 0H17.8941L17.8869 47.0406Z" fill="#CBCBCB"/>
<path d="M17.3203 0H30.6793V47.0406H17.3203V0Z" fill="#E2E2E2"/>
<path d="M45 22.4636L44.6825 22.3937L40.1498 21.9736L40.0826 22.0069L30.6798 21.6332H17.3202L7.91728 22.0069V14.8809L7.90744 14.8861L7.91728 14.8652L17.3202 12.6999H30.6798L40.0826 14.8652L43.5392 16.6912V15.5173L45 15.3585L44.8487 15.0653L40.2235 11.7783L40.0826 11.8238L30.6798 8.92819H17.3202L7.91728 11.8238V4.66504L3 10.3903V15.3904L3.03806 15.363L4.46081 15.5173V16.7154L3 17.4923V22.4675L3.03806 22.4636L4.46081 22.4845V24.5727L3.2333 24.5909L3 24.5688V29.5459L4.46081 30.3266V31.5386L3.0612 31.6922L3 31.6465V36.6458L7.91728 42.3719V35.2138L17.3202 38.1094H30.6798L40.1103 35.2053L40.2356 35.2599L44.8 32.0214L45 31.6987L43.5392 31.5386V30.3509L43.3477 30.2749L40.2235 31.9487L40.1103 32.1834L30.6798 34.3362V34.3388H17.3202V34.3362L7.91728 32.1743V25.0222L17.3202 25.3946V25.4038H30.6798L40.0826 25.0222L40.2967 25.12L44.6901 24.744L45 24.5936L43.5392 24.5727V22.4845L45 22.4636Z" fill="#AFAFAF"/>
<path d="M40.082 35.2138V42.372L44.9995 36.6459V31.6792L40.1104 35.2054L40.082 35.2138Z" fill="#AFAFAF"/>
<path d="M40.082 32.19L40.1104 32.1835L44.9995 29.5701V24.5728L40.082 25.0223V32.19Z" fill="#AFAFAF"/>
<path d="M40.1104 14.8718L40.082 14.8652V22.0069L44.9995 22.4636V17.4687L40.1104 14.8718Z" fill="#AFAFAF"/>
<path d="M40.1104 11.8519L44.9995 15.3585V10.3916L40.082 4.66504V11.8238L40.1104 11.8336V11.8519Z" fill="#AFAFAF"/>
</g>
<defs>
<clipPath id="clip0_203_1220">
<rect width="48" height="48" fill="white"/>
</clipPath>
</defs>
</svg>
