<svg width="96" height="136" viewBox="0 0 96 136" fill="none" xmlns="http://www.w3.org/2000/svg">
<path d="M47.9951 70.0736L79.8705 77.7863V17.9385L47.9951 25.6563V70.0736Z" fill="#EEEEEE"/>
<path d="M79.875 17.9385L86.0005 21.0006V74.742L79.875 77.8029V17.9385Z" fill="#CBCBCB"/>
<path d="M61.8984 28.6098L47.9951 25.17V2L61.8984 8.95101V28.6098Z" fill="#CBCBCB"/>
<path d="M47.9951 93.8636L61.8971 86.9151V67.2563L47.9951 70.6949V93.8636Z" fill="#CBCBCB"/>
<path d="M61.8984 57.7742L47.9951 59.5439V36.3726L61.8984 38.1167V57.7742Z" fill="#CBCBCB"/>
<path d="M47.9977 70.0736L16.1211 77.7863V17.9385L47.9977 25.6563V70.0736Z" fill="#CBCBCB"/>
<path d="M16.123 17.9385L10 21.0006V74.742L16.123 77.8029V17.9385Z" fill="#EEEEEE"/>
<path d="M34.0947 28.6098L47.9942 25.17V2L34.0947 8.95101V28.6098Z" fill="#EEEEEE"/>
<path d="M47.9955 93.8636L34.0947 86.9151V67.2563L47.9955 70.6949V93.8636Z" fill="#EEEEEE"/>
<path d="M34.0947 57.7742L47.9942 59.5439V36.3726L34.0947 38.1167V57.7742Z" fill="#EEEEEE"/>
<path d="M61.8975 28.6102L47.9942 31.1441L34.0947 28.6102L47.9942 25.1704L61.8975 28.6102Z" fill="#AFAFAF"/>
<path d="M61.8975 67.2551L47.9942 64.7046L34.0947 67.2551L47.9942 70.7166L61.8975 67.2551Z" fill="#E2E2E2"/>
<path d="M11.324 127.52H6.46L5.564 130H4.028L8.06 118.912H9.74L13.756 130H12.22L11.324 127.52ZM10.908 126.336L8.892 120.704L6.876 126.336H10.908ZM26.0573 121.072C26.7399 121.072 27.3479 121.216 27.8813 121.504C28.4146 121.781 28.8359 122.203 29.1453 122.768C29.4546 123.333 29.6093 124.021 29.6093 124.832V130H28.1693V125.04C28.1693 124.165 27.9506 123.499 27.5133 123.04C27.0866 122.571 26.5053 122.336 25.7693 122.336C25.0119 122.336 24.4093 122.581 23.9613 123.072C23.5133 123.552 23.2893 124.251 23.2893 125.168V130H21.8493V125.04C21.8493 124.165 21.6306 123.499 21.1933 123.04C20.7666 122.571 20.1853 122.336 19.4493 122.336C18.6919 122.336 18.0893 122.581 17.6413 123.072C17.1933 123.552 16.9693 124.251 16.9693 125.168V130H15.5133V121.232H16.9693V122.496C17.2573 122.037 17.6413 121.685 18.1213 121.44C18.6119 121.195 19.1506 121.072 19.7373 121.072C20.4733 121.072 21.1239 121.237 21.6893 121.568C22.2546 121.899 22.6759 122.384 22.9533 123.024C23.1986 122.405 23.6039 121.925 24.1693 121.584C24.7346 121.243 25.3639 121.072 26.0573 121.072ZM31.4536 125.584C31.4536 124.688 31.635 123.904 31.9976 123.232C32.3603 122.549 32.8563 122.021 33.4856 121.648C34.1256 121.275 34.835 121.088 35.6136 121.088C36.3816 121.088 37.0483 121.253 37.6136 121.584C38.179 121.915 38.6003 122.331 38.8776 122.832V121.232H40.3496V130H38.8776V128.368C38.5896 128.88 38.1576 129.307 37.5816 129.648C37.0163 129.979 36.355 130.144 35.5976 130.144C34.819 130.144 34.115 129.952 33.4856 129.568C32.8563 129.184 32.3603 128.645 31.9976 127.952C31.635 127.259 31.4536 126.469 31.4536 125.584ZM38.8776 125.6C38.8776 124.939 38.7443 124.363 38.4776 123.872C38.211 123.381 37.8483 123.008 37.3896 122.752C36.9416 122.485 36.4456 122.352 35.9016 122.352C35.3576 122.352 34.8616 122.48 34.4136 122.736C33.9656 122.992 33.6083 123.365 33.3416 123.856C33.075 124.347 32.9416 124.923 32.9416 125.584C32.9416 126.256 33.075 126.843 33.3416 127.344C33.6083 127.835 33.9656 128.213 34.4136 128.48C34.8616 128.736 35.3576 128.864 35.9016 128.864C36.4456 128.864 36.9416 128.736 37.3896 128.48C37.8483 128.213 38.211 127.835 38.4776 127.344C38.7443 126.843 38.8776 126.261 38.8776 125.6ZM43.8981 128.8H48.2021V130H42.2341V128.8L46.4901 122.416H42.2661V121.232H48.1701V122.416L43.8981 128.8ZM53.9154 130.144C53.094 130.144 52.3474 129.957 51.6754 129.584C51.014 129.211 50.4914 128.683 50.1074 128C49.734 127.307 49.5474 126.507 49.5474 125.6C49.5474 124.704 49.7394 123.915 50.1234 123.232C50.518 122.539 51.0514 122.011 51.7234 121.648C52.3954 121.275 53.1474 121.088 53.9794 121.088C54.8114 121.088 55.5634 121.275 56.2354 121.648C56.9074 122.011 57.4354 122.533 57.8194 123.216C58.214 123.899 58.4114 124.693 58.4114 125.6C58.4114 126.507 58.2087 127.307 57.8034 128C57.4087 128.683 56.87 129.211 56.1874 129.584C55.5047 129.957 54.7474 130.144 53.9154 130.144ZM53.9154 128.864C54.438 128.864 54.9287 128.741 55.3874 128.496C55.846 128.251 56.214 127.883 56.4914 127.392C56.7794 126.901 56.9234 126.304 56.9234 125.6C56.9234 124.896 56.7847 124.299 56.5074 123.808C56.23 123.317 55.8674 122.955 55.4194 122.72C54.9714 122.475 54.486 122.352 53.9634 122.352C53.43 122.352 52.9394 122.475 52.4914 122.72C52.054 122.955 51.702 123.317 51.4354 123.808C51.1687 124.299 51.0354 124.896 51.0354 125.6C51.0354 126.315 51.1634 126.917 51.4194 127.408C51.686 127.899 52.038 128.267 52.4754 128.512C52.9127 128.747 53.3927 128.864 53.9154 128.864ZM64.5978 121.072C65.6644 121.072 66.5284 121.397 67.1898 122.048C67.8511 122.688 68.1818 123.616 68.1818 124.832V130H66.7418V125.04C66.7418 124.165 66.5231 123.499 66.0858 123.04C65.6484 122.571 65.0511 122.336 64.2938 122.336C63.5258 122.336 62.9124 122.576 62.4538 123.056C62.0058 123.536 61.7818 124.235 61.7818 125.152V130H60.3258V121.232H61.7818V122.48C62.0698 122.032 62.4591 121.685 62.9498 121.44C63.4511 121.195 64.0004 121.072 64.5978 121.072ZM78.3618 130.112C77.6258 130.112 76.9644 129.984 76.3778 129.728C75.8018 129.461 75.3484 129.099 75.0178 128.64C74.6871 128.171 74.5164 127.632 74.5058 127.024H76.0578C76.1111 127.547 76.3244 127.989 76.6978 128.352C77.0818 128.704 77.6364 128.88 78.3618 128.88C79.0551 128.88 79.5991 128.709 79.9938 128.368C80.3991 128.016 80.6018 127.568 80.6018 127.024C80.6018 126.597 80.4844 126.251 80.2498 125.984C80.0151 125.717 79.7218 125.515 79.3698 125.376C79.0178 125.237 78.5431 125.088 77.9458 124.928C77.2098 124.736 76.6178 124.544 76.1698 124.352C75.7324 124.16 75.3538 123.861 75.0338 123.456C74.7244 123.04 74.5698 122.485 74.5698 121.792C74.5698 121.184 74.7244 120.645 75.0338 120.176C75.3431 119.707 75.7751 119.344 76.3298 119.088C76.8951 118.832 77.5404 118.704 78.2658 118.704C79.3111 118.704 80.1644 118.965 80.8258 119.488C81.4978 120.011 81.8764 120.704 81.9618 121.568H80.3618C80.3084 121.141 80.0844 120.768 79.6898 120.448C79.2951 120.117 78.7724 119.952 78.1218 119.952C77.5138 119.952 77.0178 120.112 76.6338 120.432C76.2498 120.741 76.0578 121.179 76.0578 121.744C76.0578 122.149 76.1698 122.48 76.3938 122.736C76.6284 122.992 76.9111 123.189 77.2418 123.328C77.5831 123.456 78.0578 123.605 78.6658 123.776C79.4018 123.979 79.9938 124.181 80.4418 124.384C80.8898 124.576 81.2738 124.88 81.5938 125.296C81.9138 125.701 82.0738 126.256 82.0738 126.96C82.0738 127.504 81.9298 128.016 81.6418 128.496C81.3538 128.976 80.9271 129.365 80.3618 129.664C79.7964 129.963 79.1298 130.112 78.3618 130.112ZM83.9444 121.344C84.019 120.363 84.3977 119.595 85.0804 119.04C85.763 118.485 86.6484 118.208 87.7364 118.208C88.4617 118.208 89.0857 118.341 89.6084 118.608C90.1417 118.864 90.5417 119.216 90.8084 119.664C91.0857 120.112 91.2244 120.619 91.2244 121.184C91.2244 121.845 91.0324 122.416 90.6484 122.896C90.275 123.376 89.7844 123.685 89.1764 123.824V123.904C89.8697 124.075 90.419 124.411 90.8244 124.912C91.2297 125.413 91.4324 126.069 91.4324 126.88C91.4324 127.488 91.2937 128.037 91.0164 128.528C90.739 129.008 90.323 129.387 89.7684 129.664C89.2137 129.941 88.547 130.08 87.7684 130.08C86.6377 130.08 85.7097 129.787 84.9844 129.2C84.259 128.603 83.8537 127.76 83.7684 126.672H85.1764C85.251 127.312 85.5124 127.835 85.9604 128.24C86.4084 128.645 87.0057 128.848 87.7524 128.848C88.499 128.848 89.0644 128.656 89.4484 128.272C89.843 127.877 90.0404 127.371 90.0404 126.752C90.0404 125.952 89.7737 125.376 89.2404 125.024C88.707 124.672 87.9017 124.496 86.8244 124.496H86.4564V123.28H86.8404C87.8217 123.269 88.563 123.109 89.0644 122.8C89.5657 122.48 89.8164 121.989 89.8164 121.328C89.8164 120.763 89.6297 120.309 89.2564 119.968C88.8937 119.627 88.371 119.456 87.6884 119.456C87.027 119.456 86.4937 119.627 86.0884 119.968C85.683 120.309 85.443 120.768 85.3684 121.344H83.9444Z" fill="#AFAFAF"/>
</svg>
