<svg width="101" height="136" viewBox="0 0 101 136" fill="none" xmlns="http://www.w3.org/2000/svg">
<g>
<path d="M8.50879 74.6548L18.3413 86.3226L19.2254 85.2593V10.6297L18.3413 9.50195L8.50879 21.1655V74.6548" fill="#CBCBCB"/>
<path d="M18.3428 86.3226L37.1305 95.8339L37.912 94.5607L37.9248 0.99654L37.1437 0L18.3428 9.48075V86.3226Z" fill="#AFAFAF"/>
<path d="M92.4907 21.1655L82.6556 9.50195L81.5557 9.85473L81.7741 85.3702L82.6556 86.3226L92.4907 74.6561V21.1655Z" fill="#CBCBCB"/>
<path d="M63.868 95.8339L82.6557 86.3226V9.48075L63.8549 0L62.9658 1.2181L62.9786 94.4497L63.868 95.8339" fill="#E2E2E2"/>
<path d="M37.1436 0H63.8552V95.8352H37.1436V0Z" fill="#CBCBCB"/>
</g>
<path d="M7.824 127.52H2.96L2.064 130H0.528L4.56 118.912H6.24L10.256 130H8.72L7.824 127.52ZM7.408 126.336L5.392 120.704L3.376 126.336H7.408ZM22.5573 121.072C23.2399 121.072 23.8479 121.216 24.3813 121.504C24.9146 121.781 25.3359 122.203 25.6453 122.768C25.9546 123.333 26.1093 124.021 26.1093 124.832V130H24.6693V125.04C24.6693 124.165 24.4506 123.499 24.0133 123.04C23.5866 122.571 23.0053 122.336 22.2693 122.336C21.5119 122.336 20.9093 122.581 20.4613 123.072C20.0133 123.552 19.7893 124.251 19.7893 125.168V130H18.3493V125.04C18.3493 124.165 18.1306 123.499 17.6933 123.04C17.2666 122.571 16.6853 122.336 15.9493 122.336C15.1919 122.336 14.5893 122.581 14.1413 123.072C13.6933 123.552 13.4693 124.251 13.4693 125.168V130H12.0133V121.232H13.4693V122.496C13.7573 122.037 14.1413 121.685 14.6213 121.44C15.1119 121.195 15.6506 121.072 16.2373 121.072C16.9733 121.072 17.6239 121.237 18.1893 121.568C18.7546 121.899 19.1759 122.384 19.4533 123.024C19.6986 122.405 20.1039 121.925 20.6693 121.584C21.2346 121.243 21.8639 121.072 22.5573 121.072ZM27.9536 125.584C27.9536 124.688 28.135 123.904 28.4976 123.232C28.8603 122.549 29.3563 122.021 29.9856 121.648C30.6256 121.275 31.335 121.088 32.1136 121.088C32.8816 121.088 33.5483 121.253 34.1136 121.584C34.679 121.915 35.1003 122.331 35.3776 122.832V121.232H36.8496V130H35.3776V128.368C35.0896 128.88 34.6576 129.307 34.0816 129.648C33.5163 129.979 32.855 130.144 32.0976 130.144C31.319 130.144 30.615 129.952 29.9856 129.568C29.3563 129.184 28.8603 128.645 28.4976 127.952C28.135 127.259 27.9536 126.469 27.9536 125.584ZM35.3776 125.6C35.3776 124.939 35.2443 124.363 34.9776 123.872C34.711 123.381 34.3483 123.008 33.8896 122.752C33.4416 122.485 32.9456 122.352 32.4016 122.352C31.8576 122.352 31.3616 122.48 30.9136 122.736C30.4656 122.992 30.1083 123.365 29.8416 123.856C29.575 124.347 29.4416 124.923 29.4416 125.584C29.4416 126.256 29.575 126.843 29.8416 127.344C30.1083 127.835 30.4656 128.213 30.9136 128.48C31.3616 128.736 31.8576 128.864 32.4016 128.864C32.9456 128.864 33.4416 128.736 33.8896 128.48C34.3483 128.213 34.711 127.835 34.9776 127.344C35.2443 126.843 35.3776 126.261 35.3776 125.6ZM40.3981 128.8H44.7021V130H38.7341V128.8L42.9901 122.416H38.7661V121.232H44.6701V122.416L40.3981 128.8ZM50.4154 130.144C49.594 130.144 48.8474 129.957 48.1754 129.584C47.514 129.211 46.9914 128.683 46.6074 128C46.234 127.307 46.0474 126.507 46.0474 125.6C46.0474 124.704 46.2394 123.915 46.6234 123.232C47.018 122.539 47.5514 122.011 48.2234 121.648C48.8954 121.275 49.6474 121.088 50.4794 121.088C51.3114 121.088 52.0634 121.275 52.7354 121.648C53.4074 122.011 53.9354 122.533 54.3194 123.216C54.714 123.899 54.9114 124.693 54.9114 125.6C54.9114 126.507 54.7087 127.307 54.3034 128C53.9087 128.683 53.37 129.211 52.6874 129.584C52.0047 129.957 51.2474 130.144 50.4154 130.144ZM50.4154 128.864C50.938 128.864 51.4287 128.741 51.8874 128.496C52.346 128.251 52.714 127.883 52.9914 127.392C53.2794 126.901 53.4234 126.304 53.4234 125.6C53.4234 124.896 53.2847 124.299 53.0074 123.808C52.73 123.317 52.3674 122.955 51.9194 122.72C51.4714 122.475 50.986 122.352 50.4634 122.352C49.93 122.352 49.4394 122.475 48.9914 122.72C48.554 122.955 48.202 123.317 47.9354 123.808C47.6687 124.299 47.5354 124.896 47.5354 125.6C47.5354 126.315 47.6634 126.917 47.9194 127.408C48.186 127.899 48.538 128.267 48.9754 128.512C49.4127 128.747 49.8927 128.864 50.4154 128.864ZM61.0978 121.072C62.1644 121.072 63.0284 121.397 63.6898 122.048C64.3511 122.688 64.6818 123.616 64.6818 124.832V130H63.2418V125.04C63.2418 124.165 63.0231 123.499 62.5858 123.04C62.1484 122.571 61.5511 122.336 60.7938 122.336C60.0258 122.336 59.4124 122.576 58.9538 123.056C58.5058 123.536 58.2818 124.235 58.2818 125.152V130H56.8258V121.232H58.2818V122.48C58.5698 122.032 58.9591 121.685 59.4498 121.44C59.9511 121.195 60.5004 121.072 61.0978 121.072ZM77.1978 130L74.5418 125.44H72.7818V130H71.3258V118.848H74.9258C75.7684 118.848 76.4778 118.992 77.0538 119.28C77.6404 119.568 78.0778 119.957 78.3658 120.448C78.6538 120.939 78.7978 121.499 78.7978 122.128C78.7978 122.896 78.5738 123.573 78.1258 124.16C77.6884 124.747 77.0271 125.136 76.1418 125.328L78.9418 130H77.1978ZM72.7818 124.272H74.9258C75.7151 124.272 76.3071 124.08 76.7018 123.696C77.0964 123.301 77.2938 122.779 77.2938 122.128C77.2938 121.467 77.0964 120.955 76.7018 120.592C76.3178 120.229 75.7258 120.048 74.9258 120.048H72.7818V124.272ZM84.5321 118.848C85.7481 118.848 86.7988 119.077 87.6841 119.536C88.5801 119.984 89.2628 120.629 89.7321 121.472C90.2121 122.315 90.4521 123.307 90.4521 124.448C90.4521 125.589 90.2121 126.581 89.7321 127.424C89.2628 128.256 88.5801 128.896 87.6841 129.344C86.7988 129.781 85.7481 130 84.5321 130H81.0601V118.848H84.5321ZM84.5321 128.8C85.9721 128.8 87.0708 128.421 87.8281 127.664C88.5855 126.896 88.9641 125.824 88.9641 124.448C88.9641 123.061 88.5801 121.979 87.8121 121.2C87.0548 120.421 85.9615 120.032 84.5321 120.032H82.5161V128.8H84.5321ZM95.9086 130.112C95.1726 130.112 94.5113 129.984 93.9246 129.728C93.3486 129.461 92.8953 129.099 92.5646 128.64C92.234 128.171 92.0633 127.632 92.0526 127.024H93.6046C93.658 127.547 93.8713 127.989 94.2446 128.352C94.6286 128.704 95.1833 128.88 95.9086 128.88C96.602 128.88 97.146 128.709 97.5406 128.368C97.946 128.016 98.1486 127.568 98.1486 127.024C98.1486 126.597 98.0313 126.251 97.7966 125.984C97.562 125.717 97.2686 125.515 96.9166 125.376C96.5646 125.237 96.09 125.088 95.4926 124.928C94.7566 124.736 94.1646 124.544 93.7166 124.352C93.2793 124.16 92.9006 123.861 92.5806 123.456C92.2713 123.04 92.1166 122.485 92.1166 121.792C92.1166 121.184 92.2713 120.645 92.5806 120.176C92.89 119.707 93.322 119.344 93.8766 119.088C94.442 118.832 95.0873 118.704 95.8126 118.704C96.858 118.704 97.7113 118.965 98.3726 119.488C99.0446 120.011 99.4233 120.704 99.5086 121.568H97.9086C97.8553 121.141 97.6313 120.768 97.2366 120.448C96.842 120.117 96.3193 119.952 95.6686 119.952C95.0606 119.952 94.5646 120.112 94.1806 120.432C93.7966 120.741 93.6046 121.179 93.6046 121.744C93.6046 122.149 93.7166 122.48 93.9406 122.736C94.1753 122.992 94.458 123.189 94.7886 123.328C95.13 123.456 95.6046 123.605 96.2126 123.776C96.9486 123.979 97.5406 124.181 97.9886 124.384C98.4366 124.576 98.8206 124.88 99.1406 125.296C99.4606 125.701 99.6206 126.256 99.6206 126.96C99.6206 127.504 99.4766 128.016 99.1886 128.496C98.9006 128.976 98.474 129.365 97.9086 129.664C97.3433 129.963 96.6766 130.112 95.9086 130.112Z" fill="#AFAFAF"/>
<defs>
<clipPath id="clip0_367_4491">
<rect width="96" height="96" fill="white" transform="translate(2.5)"/>
</clipPath>
</defs>
</svg>
