<svg width="48" height="48" viewBox="0 0 48 48" fill="none" xmlns="http://www.w3.org/2000/svg">
<path d="M23.998 35.0368L39.9357 38.8931V8.96924L23.998 12.8281V35.0368Z" fill="#EEEEEE"/>
<path d="M39.9375 8.96924L43.0003 10.5003V37.371L39.9375 38.9014V8.96924Z" fill="#CBCBCB"/>
<path d="M30.9497 14.3049L23.998 12.585V1L30.9497 4.4755V14.3049Z" fill="#CBCBCB"/>
<path d="M23.998 46.9316L30.9491 43.4573V33.6279L23.998 35.3472V46.9316Z" fill="#CBCBCB"/>
<path d="M30.9497 28.8869L23.998 29.7717V18.186L30.9497 19.0581V28.8869Z" fill="#CBCBCB"/>
<path d="M23.9989 35.0368L8.06055 38.8931V8.96924L23.9989 12.8281V35.0368Z" fill="#CBCBCB"/>
<path d="M8.06148 8.96924L5 10.5003V37.371L8.06148 38.9014V8.96924Z" fill="#EEEEEE"/>
<path d="M17.0479 14.3049L23.9976 12.585V1L17.0479 4.4755V14.3049Z" fill="#EEEEEE"/>
<path d="M23.9982 46.9316L17.0479 43.4573V33.6279L23.9982 35.3472V46.9316Z" fill="#EEEEEE"/>
<path d="M17.0479 28.8869L23.9976 29.7717V18.186L17.0479 19.0581V28.8869Z" fill="#EEEEEE"/>
<path d="M30.9492 14.3048L23.9976 15.5718L17.0479 14.3048L23.9976 12.585L30.9492 14.3048Z" fill="#AFAFAF"/>
<path d="M30.9492 33.6273L23.9976 32.3521L17.0479 33.6273L23.9976 35.358L30.9492 33.6273Z" fill="#E2E2E2"/>
</svg>
