<svg width="48" height="48" viewBox="0 0 48 48" fill="none" xmlns="http://www.w3.org/2000/svg">
<g clip-path="url(#clip0_367_4455)">
<path d="M3.00488 37.3274L7.92113 43.1613L8.36318 42.6296V5.31485L7.92113 4.75098L3.00488 10.5827V37.3274" fill="#CBCBCB"/>
<path d="M7.92188 43.1613L17.3158 47.917L17.7065 47.2803L17.7129 0.49827L17.3223 0L7.92188 4.74037V43.1613Z" fill="#AFAFAF"/>
<path d="M44.9949 10.5827L40.0773 4.75098L39.5273 4.92736L39.6366 42.6851L40.0773 43.1613L44.9949 37.328V10.5827Z" fill="#CBCBCB"/>
<path d="M30.6845 47.917L40.0784 43.1613V4.74037L30.6779 0L30.2334 0.609052L30.2398 47.2249L30.6845 47.917" fill="#E2E2E2"/>
<path d="M17.3223 0H30.6781V47.9176H17.3223V0Z" fill="#CBCBCB"/>
</g>
<defs>
<clipPath id="clip0_367_4455">
<rect width="48" height="48" fill="white"/>
</clipPath>
</defs>
</svg>
