<svg width="48" height="48" viewBox="0 0 48 48" fill="none" xmlns="http://www.w3.org/2000/svg">
<mask id="mask0_369_1330" style="mask-type:alpha" maskUnits="userSpaceOnUse" x="3" y="1" width="43" height="46">
<path d="M46 22.3171C46 10.545 36.3731 1 24.5 1C12.6269 1 3 10.545 3 22.3171C3 28.7908 5.91382 34.5857 10.508 38.4929L7.92803 42.9218V46.4391C7.92803 46.7477 8.18263 47.0001 8.49382 47.0001C8.59849 47.0001 8.69467 46.972 8.77954 46.9244L11.8489 45.1685L14.2451 41.0566C17.2918 42.7002 20.7856 43.6342 24.5 43.6342C28.2144 43.6342 31.7082 42.7002 34.7578 41.0566L37.1539 45.1685L40.2233 46.9244C40.3082 46.9721 40.4043 47.0001 40.509 47.0001C40.8202 47.0001 41.0748 46.7477 41.0748 46.4391V42.9218L38.4948 38.4929C43.0862 34.5857 46 28.7908 46 22.3171V22.3171Z" fill="white"/>
</mask>
<g mask="url(#mask0_369_1330)">
<path d="M24.5 43.6342C36.3741 43.6342 46 34.0902 46 22.3171C46 10.544 36.3741 1 24.5 1C12.6259 1 3 10.544 3 22.3171C3 34.0902 12.6259 43.6342 24.5 43.6342Z" fill="#CBCBCB"/>
</g>
<mask id="mask1_369_1330" style="mask-type:alpha" maskUnits="userSpaceOnUse" x="3" y="1" width="43" height="46">
<path d="M46 22.3171C46 10.545 36.3731 1 24.5 1C12.6269 1 3 10.545 3 22.3171C3 28.7908 5.91382 34.5857 10.508 38.4929L7.92803 42.9218V46.4391C7.92803 46.7477 8.18263 47.0001 8.49382 47.0001C8.59849 47.0001 8.69467 46.972 8.77954 46.9244L11.8489 45.1685L14.2451 41.0566C17.2918 42.7002 20.7856 43.6342 24.5 43.6342C28.2144 43.6342 31.7082 42.7002 34.7578 41.0566L37.1539 45.1685L40.2233 46.9244C40.3082 46.9721 40.4043 47.0001 40.509 47.0001C40.8202 47.0001 41.0748 46.7477 41.0748 46.4391V42.9218L38.4948 38.4929C43.0862 34.5857 46 28.7908 46 22.3171V22.3171Z" fill="white"/>
</mask>
<g mask="url(#mask1_369_1330)">
<path d="M46 22.5974H3V22.3169H46V22.5974Z" fill="white"/>
</g>
<mask id="mask2_369_1330" style="mask-type:alpha" maskUnits="userSpaceOnUse" x="3" y="1" width="43" height="46">
<path d="M46 22.3171C46 10.545 36.3731 1 24.5 1C12.6269 1 3 10.545 3 22.3171C3 28.7908 5.91382 34.5857 10.508 38.4929L7.92803 42.9218V46.4391C7.92803 46.7477 8.18263 47.0001 8.49382 47.0001C8.59849 47.0001 8.69467 46.972 8.77954 46.9244L11.8489 45.1685L14.2451 41.0566C17.2918 42.7002 20.7856 43.6342 24.5 43.6342C28.2144 43.6342 31.7082 42.7002 34.7578 41.0566L37.1539 45.1685L40.2233 46.9244C40.3082 46.9721 40.4043 47.0001 40.509 47.0001C40.8202 47.0001 41.0748 46.7477 41.0748 46.4391V42.9218L38.4948 38.4929C43.0862 34.5857 46 28.7908 46 22.3171V22.3171Z" fill="white"/>
</mask>
<g mask="url(#mask2_369_1330)">
<path d="M29.0736 22.3169H23.8457L37.1531 45.1683L40.2225 46.9241C40.3073 46.9718 40.4035 46.9999 40.5082 46.9999C40.8194 46.9999 41.074 46.7474 41.074 46.4389V42.9216L29.0736 22.3169Z" fill="#E2E2E2"/>
<path opacity="0.5" d="M29.0736 22.3169H23.8457L37.1531 45.1683L40.2225 46.9241C40.3073 46.9718 40.4035 46.9999 40.5082 46.9999C40.8194 46.9999 41.074 46.7474 41.074 46.4389V42.9216L29.0736 22.3169Z" fill="#CBCBCB"/>
<path d="M41.0708 42.9216L29.0733 22.3169H28.9092L41.0708 43.2021V42.9216Z" fill="white"/>
</g>
<mask id="mask3_369_1330" style="mask-type:alpha" maskUnits="userSpaceOnUse" x="3" y="1" width="43" height="46">
<path d="M46 22.3171C46 10.545 36.3731 1 24.5 1C12.6269 1 3 10.545 3 22.3171C3 28.7908 5.91382 34.5857 10.508 38.4929L7.92803 42.9218V46.4391C7.92803 46.7477 8.18263 47.0001 8.49382 47.0001C8.59849 47.0001 8.69467 46.972 8.77954 46.9244L11.8489 45.1685L14.2451 41.0566C17.2918 42.7002 20.7856 43.6342 24.5 43.6342C28.2144 43.6342 31.7082 42.7002 34.7578 41.0566L37.1539 45.1685L40.2233 46.9244C40.3082 46.9721 40.4043 47.0001 40.509 47.0001C40.8202 47.0001 41.0748 46.7477 41.0748 46.4391V42.9218L38.4948 38.4929C43.0862 34.5857 46 28.7908 46 22.3171V22.3171Z" fill="white"/>
</mask>
<g mask="url(#mask3_369_1330)">
<path d="M35.8164 22.3174C35.8164 28.5134 30.7497 33.5369 24.5006 33.5369C22.642 33.5369 20.888 33.0909 19.3406 32.3028L24.5006 23.4393L25.1541 22.3174H19.9262L7.92578 42.9221V46.4394C7.92578 46.7479 8.18039 47.0004 8.49157 47.0004C8.59624 47.0004 8.69243 46.9723 8.77729 46.9246L11.8467 45.1688L17.0746 36.1931C19.2897 37.36 21.8159 38.0247 24.5006 38.0247C33.2505 38.0247 40.3427 30.9929 40.3427 22.3174H35.8164Z" fill="#EEEEEE"/>
<path d="M19.9262 22.3174L7.92578 42.9221V43.2025L20.0903 22.3174H19.9262ZM24.5006 33.5369C22.642 33.5369 20.888 33.0909 19.3406 32.3028V32.5833C20.888 33.3714 22.642 33.8174 24.5006 33.8174C30.7497 33.8174 35.8164 28.7939 35.8164 22.5979H40.3342C40.337 22.5053 40.3427 22.4127 40.3427 22.3174H35.8164C35.8164 28.5134 30.7497 33.5369 24.5006 33.5369Z" fill="white"/>
</g>
<path d="M29.5906 12.2194H26.7616V8.85352H22.2353V12.2194H19.4064C18.4728 12.2194 17.709 12.9767 17.709 13.9023V22.317L23.299 27.8538C23.6073 28.1567 24.0289 28.3475 24.4985 28.3475C24.9681 28.3475 25.3924 28.1595 25.6979 27.8538L31.2879 22.317V13.9023C31.2879 12.9767 30.5241 12.2194 29.5906 12.2194V12.2194ZM24.4985 21.756C22.9369 21.756 21.6695 20.4994 21.6695 18.9511C21.6695 17.4028 22.9369 16.1462 24.4985 16.1462C26.06 16.1462 27.3274 17.4028 27.3274 18.9511C27.3274 20.4994 26.06 21.756 24.4985 21.756Z" fill="#757575"/>
</svg>
