<svg width="118" height="136" viewBox="0 0 118 136" fill="none" xmlns="http://www.w3.org/2000/svg">
<path d="M81.1715 60.8624C80.378 60.8624 79.6023 60.6362 78.9425 60.2124C78.2827 59.7886 77.7684 59.1862 77.4648 58.4814C77.1611 57.7767 77.0816 57.0012 77.2364 56.253C77.3913 55.5048 77.7734 54.8176 78.3345 54.2782C78.8956 53.7388 79.6105 53.3715 80.3888 53.2226C81.1671 53.0738 81.9738 53.1502 82.7069 53.4421C83.4401 53.734 84.0667 54.2284 84.5075 54.8627C84.9484 55.4969 85.1837 56.2426 85.1837 57.0055C85.1835 58.0283 84.7607 59.0092 84.0083 59.7325C83.256 60.4557 82.2356 60.8622 81.1715 60.8624ZM36.9956 60.8624C36.2021 60.8624 35.4264 60.6362 34.7666 60.2124C34.1068 59.7886 33.5925 59.1862 33.2889 58.4814C32.9852 57.7767 32.9057 57.0012 33.0605 56.253C33.2154 55.5048 33.5975 54.8176 34.1586 54.2782C34.7197 53.7388 35.4346 53.3715 36.2129 53.2226C36.9912 53.0738 37.7979 53.1502 38.531 53.4421C39.2642 53.734 39.8908 54.2284 40.3316 54.8627C40.7725 55.4969 41.0078 56.2426 41.0078 57.0055C41.0076 58.0283 40.5848 59.0092 39.8324 59.7325C39.0801 60.4557 38.0597 60.8622 36.9956 60.8624ZM82.5925 37.7209L90.6169 24.4225C90.7252 24.2404 90.795 24.0396 90.8223 23.8315C90.8495 23.6234 90.8338 23.4122 90.7759 23.2099C90.718 23.0077 90.6191 22.8185 90.485 22.6531C90.3508 22.4877 90.1839 22.3495 89.994 22.2463C89.804 22.1431 89.5947 22.077 89.3781 22.0517C89.1615 22.0265 88.9419 22.0427 88.7318 22.0993C88.5217 22.1559 88.3254 22.2519 88.154 22.3817C87.9826 22.5115 87.8396 22.6726 87.7331 22.8556L79.6252 36.3147C73.1856 33.4859 66.1845 32.0329 59.1045 32.056C52.0161 32.0393 45.0057 33.4775 38.542 36.2745L30.3922 22.8155C30.2858 22.6324 30.1428 22.4713 29.9714 22.3415C29.8 22.2117 29.6036 22.1157 29.3936 22.0591C29.1835 22.0025 28.9639 21.9863 28.7473 22.0116C28.5307 22.0368 28.3214 22.1029 28.1314 22.2061C27.9415 22.3093 27.7746 22.4476 27.6404 22.6129C27.5063 22.7783 27.4074 22.9675 27.3495 23.1698C27.2916 23.372 27.2758 23.5832 27.3031 23.7913C27.3304 23.9994 27.4002 24.2003 27.5085 24.3823L35.4911 37.6807C28.589 41.2993 22.7348 46.5156 18.4584 52.8573C14.182 59.199 11.6185 66.4659 11 74H107C106.4 66.4763 103.853 59.2162 99.5902 52.88C95.3274 46.5439 89.4844 41.3328 82.5925 37.7209Z" fill="#CBCBCB"/>
<path d="M8.08181 127.52H3.21781L2.32181 130H0.785812L4.81781 118.912H6.49781L10.5138 130H8.97781L8.08181 127.52ZM7.66581 126.336L5.64981 120.704L3.63381 126.336H7.66581ZM16.5431 121.072C17.6097 121.072 18.4737 121.397 19.1351 122.048C19.7964 122.688 20.1271 123.616 20.1271 124.832V130H18.6871V125.04C18.6871 124.165 18.4684 123.499 18.0311 123.04C17.5937 122.571 16.9964 122.336 16.2391 122.336C15.4711 122.336 14.8577 122.576 14.3991 123.056C13.9511 123.536 13.7271 124.235 13.7271 125.152V130H12.2711V121.232H13.7271V122.48C14.0151 122.032 14.4044 121.685 14.8951 121.44C15.3964 121.195 15.9457 121.072 16.5431 121.072ZM21.9614 125.584C21.9614 124.688 22.1428 123.904 22.5054 123.232C22.8681 122.549 23.3641 122.021 23.9934 121.648C24.6334 121.275 25.3481 121.088 26.1374 121.088C26.8201 121.088 27.4548 121.248 28.0414 121.568C28.6281 121.877 29.0761 122.288 29.3854 122.8V118.16H30.8574V130H29.3854V128.352C29.0974 128.875 28.6708 129.307 28.1054 129.648C27.5401 129.979 26.8788 130.144 26.1214 130.144C25.3428 130.144 24.6334 129.952 23.9934 129.568C23.3641 129.184 22.8681 128.645 22.5054 127.952C22.1428 127.259 21.9614 126.469 21.9614 125.584ZM29.3854 125.6C29.3854 124.939 29.2521 124.363 28.9854 123.872C28.7188 123.381 28.3561 123.008 27.8974 122.752C27.4494 122.485 26.9534 122.352 26.4094 122.352C25.8654 122.352 25.3694 122.48 24.9214 122.736C24.4734 122.992 24.1161 123.365 23.8494 123.856C23.5828 124.347 23.4494 124.923 23.4494 125.584C23.4494 126.256 23.5828 126.843 23.8494 127.344C24.1161 127.835 24.4734 128.213 24.9214 128.48C25.3694 128.736 25.8654 128.864 26.4094 128.864C26.9534 128.864 27.4494 128.736 27.8974 128.48C28.3561 128.213 28.7188 127.835 28.9854 127.344C29.2521 126.843 29.3854 126.261 29.3854 125.6ZM34.7739 122.656C35.0299 122.155 35.3926 121.765 35.8619 121.488C36.3419 121.211 36.9233 121.072 37.6059 121.072V122.576H37.2219C35.5899 122.576 34.7739 123.461 34.7739 125.232V130H33.3179V121.232H34.7739V122.656ZM43.1107 130.144C42.2894 130.144 41.5427 129.957 40.8707 129.584C40.2094 129.211 39.6867 128.683 39.3027 128C38.9294 127.307 38.7427 126.507 38.7427 125.6C38.7427 124.704 38.9347 123.915 39.3187 123.232C39.7134 122.539 40.2467 122.011 40.9187 121.648C41.5907 121.275 42.3427 121.088 43.1747 121.088C44.0067 121.088 44.7587 121.275 45.4307 121.648C46.1027 122.011 46.6307 122.533 47.0147 123.216C47.4094 123.899 47.6067 124.693 47.6067 125.6C47.6067 126.507 47.404 127.307 46.9987 128C46.604 128.683 46.0654 129.211 45.3827 129.584C44.7 129.957 43.9427 130.144 43.1107 130.144ZM43.1107 128.864C43.6334 128.864 44.124 128.741 44.5827 128.496C45.0414 128.251 45.4094 127.883 45.6867 127.392C45.9747 126.901 46.1187 126.304 46.1187 125.6C46.1187 124.896 45.98 124.299 45.7027 123.808C45.4254 123.317 45.0627 122.955 44.6147 122.72C44.1667 122.475 43.6814 122.352 43.1587 122.352C42.6254 122.352 42.1347 122.475 41.6867 122.72C41.2494 122.955 40.8974 123.317 40.6307 123.808C40.364 124.299 40.2307 124.896 40.2307 125.6C40.2307 126.315 40.3587 126.917 40.6147 127.408C40.8814 127.899 41.2334 128.267 41.6707 128.512C42.108 128.747 42.588 128.864 43.1107 128.864ZM50.2731 119.808C49.9957 119.808 49.7611 119.712 49.5691 119.52C49.3771 119.328 49.2811 119.093 49.2811 118.816C49.2811 118.539 49.3771 118.304 49.5691 118.112C49.7611 117.92 49.9957 117.824 50.2731 117.824C50.5397 117.824 50.7637 117.92 50.9451 118.112C51.1371 118.304 51.2331 118.539 51.2331 118.816C51.2331 119.093 51.1371 119.328 50.9451 119.52C50.7637 119.712 50.5397 119.808 50.2731 119.808ZM50.9771 121.232V130H49.5211V121.232H50.9771ZM52.9146 125.584C52.9146 124.688 53.0959 123.904 53.4586 123.232C53.8212 122.549 54.3172 122.021 54.9466 121.648C55.5866 121.275 56.3012 121.088 57.0906 121.088C57.7732 121.088 58.4079 121.248 58.9946 121.568C59.5812 121.877 60.0292 122.288 60.3386 122.8V118.16H61.8106V130H60.3386V128.352C60.0506 128.875 59.6239 129.307 59.0586 129.648C58.4932 129.979 57.8319 130.144 57.0746 130.144C56.2959 130.144 55.5866 129.952 54.9466 129.568C54.3172 129.184 53.8212 128.645 53.4586 127.952C53.0959 127.259 52.9146 126.469 52.9146 125.584ZM60.3386 125.6C60.3386 124.939 60.2052 124.363 59.9386 123.872C59.6719 123.381 59.3092 123.008 58.8506 122.752C58.4026 122.485 57.9066 122.352 57.3626 122.352C56.8186 122.352 56.3226 122.48 55.8746 122.736C55.4266 122.992 55.0692 123.365 54.8026 123.856C54.5359 124.347 54.4026 124.923 54.4026 125.584C54.4026 126.256 54.5359 126.843 54.8026 127.344C55.0692 127.835 55.4266 128.213 55.8746 128.48C56.3226 128.736 56.8186 128.864 57.3626 128.864C57.9066 128.864 58.4026 128.736 58.8506 128.48C59.3092 128.213 59.6719 127.835 59.9386 127.344C60.2052 126.843 60.3386 126.261 60.3386 125.6ZM72.0727 130.112C71.3367 130.112 70.6754 129.984 70.0887 129.728C69.5127 129.461 69.0594 129.099 68.7287 128.64C68.398 128.171 68.2274 127.632 68.2167 127.024H69.7687C69.822 127.547 70.0354 127.989 70.4087 128.352C70.7927 128.704 71.3474 128.88 72.0727 128.88C72.766 128.88 73.31 128.709 73.7047 128.368C74.11 128.016 74.3127 127.568 74.3127 127.024C74.3127 126.597 74.1954 126.251 73.9607 125.984C73.726 125.717 73.4327 125.515 73.0807 125.376C72.7287 125.237 72.254 125.088 71.6567 124.928C70.9207 124.736 70.3287 124.544 69.8807 124.352C69.4434 124.16 69.0647 123.861 68.7447 123.456C68.4354 123.04 68.2807 122.485 68.2807 121.792C68.2807 121.184 68.4354 120.645 68.7447 120.176C69.054 119.707 69.486 119.344 70.0407 119.088C70.606 118.832 71.2514 118.704 71.9767 118.704C73.022 118.704 73.8754 118.965 74.5367 119.488C75.2087 120.011 75.5874 120.704 75.6727 121.568H74.0727C74.0194 121.141 73.7954 120.768 73.4007 120.448C73.006 120.117 72.4834 119.952 71.8327 119.952C71.2247 119.952 70.7287 120.112 70.3447 120.432C69.9607 120.741 69.7687 121.179 69.7687 121.744C69.7687 122.149 69.8807 122.48 70.1047 122.736C70.3394 122.992 70.622 123.189 70.9527 123.328C71.294 123.456 71.7687 123.605 72.3767 123.776C73.1127 123.979 73.7047 124.181 74.1527 124.384C74.6007 124.576 74.9847 124.88 75.3047 125.296C75.6247 125.701 75.7847 126.256 75.7847 126.96C75.7847 127.504 75.6407 128.016 75.3527 128.496C75.0647 128.976 74.638 129.365 74.0727 129.664C73.5074 129.963 72.8407 130.112 72.0727 130.112ZM79.7033 122.432V127.6C79.7033 128.027 79.794 128.331 79.9753 128.512C80.1566 128.683 80.4713 128.768 80.9193 128.768H81.9913V130H80.6793C79.8686 130 79.2606 129.813 78.8553 129.44C78.45 129.067 78.2473 128.453 78.2473 127.6V122.432H77.1113V121.232H78.2473V119.024H79.7033V121.232H81.9913V122.432H79.7033ZM91.5314 121.232V130H90.0754V128.704C89.7981 129.152 89.4088 129.504 88.9074 129.76C88.4168 130.005 87.8728 130.128 87.2754 130.128C86.5928 130.128 85.9794 129.989 85.4354 129.712C84.8914 129.424 84.4594 128.997 84.1394 128.432C83.8301 127.867 83.6754 127.179 83.6754 126.368V121.232H85.1154V126.176C85.1154 127.04 85.3341 127.707 85.7714 128.176C86.2088 128.635 86.8061 128.864 87.5634 128.864C88.3421 128.864 88.9554 128.624 89.4034 128.144C89.8514 127.664 90.0754 126.965 90.0754 126.048V121.232H91.5314ZM93.4458 125.584C93.4458 124.688 93.6271 123.904 93.9898 123.232C94.3525 122.549 94.8485 122.021 95.4778 121.648C96.1178 121.275 96.8325 121.088 97.6218 121.088C98.3045 121.088 98.9391 121.248 99.5258 121.568C100.112 121.877 100.56 122.288 100.87 122.8V118.16H102.342V130H100.87V128.352C100.582 128.875 100.155 129.307 99.5898 129.648C99.0245 129.979 98.3631 130.144 97.6058 130.144C96.8271 130.144 96.1178 129.952 95.4778 129.568C94.8485 129.184 94.3525 128.645 93.9898 127.952C93.6271 127.259 93.4458 126.469 93.4458 125.584ZM100.87 125.6C100.87 124.939 100.736 124.363 100.47 123.872C100.203 123.381 99.8405 123.008 99.3818 122.752C98.9338 122.485 98.4378 122.352 97.8938 122.352C97.3498 122.352 96.8538 122.48 96.4058 122.736C95.9578 122.992 95.6005 123.365 95.3338 123.856C95.0671 124.347 94.9338 124.923 94.9338 125.584C94.9338 126.256 95.0671 126.843 95.3338 127.344C95.6005 127.835 95.9578 128.213 96.4058 128.48C96.8538 128.736 97.3498 128.864 97.8938 128.864C98.4378 128.864 98.9338 128.736 99.3818 128.48C99.8405 128.213 100.203 127.835 100.47 127.344C100.736 126.843 100.87 126.261 100.87 125.6ZM105.554 119.808C105.277 119.808 105.042 119.712 104.85 119.52C104.658 119.328 104.562 119.093 104.562 118.816C104.562 118.539 104.658 118.304 104.85 118.112C105.042 117.92 105.277 117.824 105.554 117.824C105.821 117.824 106.045 117.92 106.226 118.112C106.418 118.304 106.514 118.539 106.514 118.816C106.514 119.093 106.418 119.328 106.226 119.52C106.045 119.712 105.821 119.808 105.554 119.808ZM106.258 121.232V130H104.802V121.232H106.258ZM112.564 130.144C111.742 130.144 110.996 129.957 110.324 129.584C109.662 129.211 109.14 128.683 108.756 128C108.382 127.307 108.196 126.507 108.196 125.6C108.196 124.704 108.388 123.915 108.772 123.232C109.166 122.539 109.7 122.011 110.372 121.648C111.044 121.275 111.796 121.088 112.628 121.088C113.46 121.088 114.212 121.275 114.884 121.648C115.556 122.011 116.084 122.533 116.468 123.216C116.862 123.899 117.06 124.693 117.06 125.6C117.06 126.507 116.857 127.307 116.452 128C116.057 128.683 115.518 129.211 114.836 129.584C114.153 129.957 113.396 130.144 112.564 130.144ZM112.564 128.864C113.086 128.864 113.577 128.741 114.036 128.496C114.494 128.251 114.862 127.883 115.14 127.392C115.428 126.901 115.572 126.304 115.572 125.6C115.572 124.896 115.433 124.299 115.156 123.808C114.878 123.317 114.516 122.955 114.068 122.72C113.62 122.475 113.134 122.352 112.612 122.352C112.078 122.352 111.588 122.475 111.14 122.72C110.702 122.955 110.35 123.317 110.084 123.808C109.817 124.299 109.684 124.896 109.684 125.6C109.684 126.315 109.812 126.917 110.068 127.408C110.334 127.899 110.686 128.267 111.124 128.512C111.561 128.747 112.041 128.864 112.564 128.864Z" fill="#AFAFAF"/>
</svg>
