<svg width="48" height="48" viewBox="0 0 48 48" fill="none" xmlns="http://www.w3.org/2000/svg">
<path d="M24.4309 0.0605469L2.14941 7.9898L5.67049 37.5091L24.4545 47.9487L43.3355 37.3676L46.8552 7.84937L24.4309 0.0605469Z" fill="#E2E2E2"/>
<path d="M44.6328 9.55544L24.3789 2.57129V45.4545L41.3525 35.9554L44.6326 9.55544H44.6328Z" fill="#AFAFAF"/>
<path d="M4.64941 9.68102L7.6667 36.0813L24.3782 45.4543V2.57031L4.64959 9.68085L4.64941 9.68102Z" fill="#CBCBCB"/>
<path d="M29.9539 25.3999L24.3787 28.0363H18.5025L15.7403 35.0228L10.6025 35.1188L24.3787 4.12842L29.9539 25.4001V25.3999ZM29.415 24.0727L24.4158 14.0648L20.315 23.9004H24.3785L29.415 24.0729V24.0727Z" fill="white"/>
<path d="M24.3779 4.12842L24.4148 14.065L29.0678 23.9083H24.3885L24.3779 28.0301L30.8484 28.0363L33.8726 35.12L38.7886 35.2121L24.3779 4.12842V4.12842Z" fill="#EEEEEE"/>
</svg>
