<svg width="96" height="136" viewBox="0 0 96 136" fill="none" xmlns="http://www.w3.org/2000/svg">
<path d="M48.8618 0.121094L4.29883 15.9796L11.341 75.0182L48.9089 95.8974L86.671 74.7352L93.7103 15.6987L48.8618 0.121094Z" fill="#E2E2E2"/>
<path d="M89.2655 19.1109L48.7578 5.14258V90.9091L82.705 71.9108L89.2652 19.1109H89.2655Z" fill="#AFAFAF"/>
<path d="M9.2998 19.3625L15.3344 72.1632L48.7574 90.909V5.14111L9.30016 19.3622L9.2998 19.3625Z" fill="#CBCBCB"/>
<path d="M59.9079 50.8004L48.7574 56.0731H37.005L31.4805 70.0461L21.2051 70.238L48.7574 8.25732L59.9079 50.8007V50.8004ZM58.83 48.1458L48.8316 28.1301L40.63 47.8014H48.757L58.83 48.1462V48.1458Z" fill="white"/>
<path d="M48.7568 8.25684L48.8307 28.13L58.1365 47.8165H48.7779L48.7568 56.0602L61.6978 56.0727L67.7461 70.24L77.5783 70.4242L48.7568 8.25684Z" fill="#EEEEEE"/>
<path d="M24.324 127.52H19.46L18.564 130H17.028L21.06 118.912H22.74L26.756 130H25.22L24.324 127.52ZM23.908 126.336L21.892 120.704L19.876 126.336H23.908ZM32.7853 121.072C33.8519 121.072 34.7159 121.397 35.3773 122.048C36.0386 122.688 36.3693 123.616 36.3693 124.832V130H34.9293V125.04C34.9293 124.165 34.7106 123.499 34.2733 123.04C33.8359 122.571 33.2386 122.336 32.4813 122.336C31.7133 122.336 31.0999 122.576 30.6413 123.056C30.1933 123.536 29.9693 124.235 29.9693 125.152V130H28.5133V121.232H29.9693V122.48C30.2573 122.032 30.6466 121.685 31.1373 121.44C31.6386 121.195 32.1879 121.072 32.7853 121.072ZM42.3636 121.088C43.121 121.088 43.7823 121.253 44.3476 121.584C44.9236 121.915 45.3503 122.331 45.6276 122.832V121.232H47.0996V130.192C47.0996 130.992 46.929 131.701 46.5876 132.32C46.2463 132.949 45.7556 133.44 45.1156 133.792C44.4863 134.144 43.7503 134.32 42.9076 134.32C41.7556 134.32 40.7956 134.048 40.0276 133.504C39.2596 132.96 38.8063 132.219 38.6676 131.28H40.1076C40.2676 131.813 40.5983 132.24 41.0996 132.56C41.601 132.891 42.2036 133.056 42.9076 133.056C43.7076 133.056 44.3583 132.805 44.8596 132.304C45.3716 131.803 45.6276 131.099 45.6276 130.192V128.352C45.3396 128.864 44.913 129.291 44.3476 129.632C43.7823 129.973 43.121 130.144 42.3636 130.144C41.585 130.144 40.8756 129.952 40.2356 129.568C39.6063 129.184 39.1103 128.645 38.7476 127.952C38.385 127.259 38.2036 126.469 38.2036 125.584C38.2036 124.688 38.385 123.904 38.7476 123.232C39.1103 122.549 39.6063 122.021 40.2356 121.648C40.8756 121.275 41.585 121.088 42.3636 121.088ZM45.6276 125.6C45.6276 124.939 45.4943 124.363 45.2276 123.872C44.961 123.381 44.5983 123.008 44.1396 122.752C43.6916 122.485 43.1956 122.352 42.6516 122.352C42.1076 122.352 41.6116 122.48 41.1636 122.736C40.7156 122.992 40.3583 123.365 40.0916 123.856C39.825 124.347 39.6916 124.923 39.6916 125.584C39.6916 126.256 39.825 126.843 40.0916 127.344C40.3583 127.835 40.7156 128.213 41.1636 128.48C41.6116 128.736 42.1076 128.864 42.6516 128.864C43.1956 128.864 43.6916 128.736 44.1396 128.48C44.5983 128.213 44.961 127.835 45.2276 127.344C45.4943 126.843 45.6276 126.261 45.6276 125.6ZM57.3361 121.232V130H55.8801V128.704C55.6028 129.152 55.2135 129.504 54.7121 129.76C54.2215 130.005 53.6775 130.128 53.0801 130.128C52.3975 130.128 51.7841 129.989 51.2401 129.712C50.6961 129.424 50.2641 128.997 49.9441 128.432C49.6348 127.867 49.4801 127.179 49.4801 126.368V121.232H50.9201V126.176C50.9201 127.04 51.1388 127.707 51.5761 128.176C52.0135 128.635 52.6108 128.864 53.3681 128.864C54.1468 128.864 54.7601 128.624 55.2081 128.144C55.6561 127.664 55.8801 126.965 55.8801 126.048V121.232H57.3361ZM61.2505 118.16V130H59.7945V118.16H61.2505ZM63.188 125.584C63.188 124.688 63.3693 123.904 63.732 123.232C64.0947 122.549 64.5907 122.021 65.22 121.648C65.86 121.275 66.5693 121.088 67.348 121.088C68.116 121.088 68.7827 121.253 69.348 121.584C69.9133 121.915 70.3347 122.331 70.612 122.832V121.232H72.084V130H70.612V128.368C70.324 128.88 69.892 129.307 69.316 129.648C68.7507 129.979 68.0893 130.144 67.332 130.144C66.5533 130.144 65.8493 129.952 65.22 129.568C64.5907 129.184 64.0947 128.645 63.732 127.952C63.3693 127.259 63.188 126.469 63.188 125.584ZM70.612 125.6C70.612 124.939 70.4787 124.363 70.212 123.872C69.9453 123.381 69.5827 123.008 69.124 122.752C68.676 122.485 68.18 122.352 67.636 122.352C67.092 122.352 66.596 122.48 66.148 122.736C65.7 122.992 65.3427 123.365 65.076 123.856C64.8093 124.347 64.676 124.923 64.676 125.584C64.676 126.256 64.8093 126.843 65.076 127.344C65.3427 127.835 65.7 128.213 66.148 128.48C66.596 128.736 67.092 128.864 67.636 128.864C68.18 128.864 68.676 128.736 69.124 128.48C69.5827 128.213 69.9453 127.835 70.212 127.344C70.4787 126.843 70.612 126.261 70.612 125.6ZM76.0005 122.656C76.2565 122.155 76.6192 121.765 77.0885 121.488C77.5685 121.211 78.1498 121.072 78.8325 121.072V122.576H78.4485C76.8165 122.576 76.0005 123.461 76.0005 125.232V130H74.5445V121.232H76.0005V122.656Z" fill="#AFAFAF"/>
</svg>
