<svg width="96" height="136" viewBox="0 0 96 136" fill="none" xmlns="http://www.w3.org/2000/svg">
<path d="M44.1297 3.9211L3.92201 44.0958C1.76037 46.2556 1.76037 49.7442 3.92201 51.904L44.1297 92.0787C46.2914 94.2385 49.7828 94.2385 51.9444 92.0787L68.8029 75.234C70.7389 73.2997 70.7389 70.1636 68.8029 68.2293C66.8671 66.295 63.7283 66.295 61.7924 68.2293L49.0121 80.9991C48.4741 81.5367 47.6575 81.5367 47.1195 80.9991L15.0107 48.9167C14.4727 48.3791 14.4727 47.5633 15.0107 47.0257L47.1195 14.9433C47.6575 14.4057 48.4741 14.4057 49.0121 14.9433L61.7924 27.7131C63.7283 29.6474 66.8671 29.6474 68.8029 27.7131C70.7389 25.7788 70.7389 22.6427 68.8029 20.7084L51.9463 3.86554C49.7758 1.75242 46.2831 1.76953 44.1297 3.9211Z" fill="#CBCBCB"/>
<path d="M72.6957 64.4932C74.6316 66.4275 77.7703 66.4275 79.7062 64.4932L92.1419 52.0678C94.3035 49.9079 94.3035 46.4194 92.1422 44.2598L79.5981 31.7704C77.6576 29.8384 74.5179 29.8412 72.5808 31.7767C70.6449 33.711 70.6449 36.8471 72.5808 38.7814L81.0532 47.2468C81.5912 47.7844 81.5912 48.6003 81.0532 49.1379L72.6957 57.4884C70.7598 59.4228 70.7598 62.5589 72.6957 64.4932Z" fill="#E2E2E2"/>
<path d="M48.2389 59.0478C54.2346 59.0478 59.095 54.1914 59.095 48.2007C59.095 42.21 54.2346 37.3535 48.2389 37.3535C42.2433 37.3535 37.3828 42.21 37.3828 48.2007C37.3828 54.1914 42.2433 59.0478 48.2389 59.0478Z" fill="#CBCBCB"/>
<path d="M36.324 127.52H31.46L30.564 130H29.028L33.06 118.912H34.74L38.756 130H37.22L36.324 127.52ZM35.908 126.336L33.892 120.704L31.876 126.336H35.908ZM44.7853 121.072C45.8519 121.072 46.7159 121.397 47.3773 122.048C48.0386 122.688 48.3693 123.616 48.3693 124.832V130H46.9293V125.04C46.9293 124.165 46.7106 123.499 46.2733 123.04C45.8359 122.571 45.2386 122.336 44.4813 122.336C43.7133 122.336 43.0999 122.576 42.6413 123.056C42.1933 123.536 41.9693 124.235 41.9693 125.152V130H40.5133V121.232H41.9693V122.48C42.2573 122.032 42.6466 121.685 43.1373 121.44C43.6386 121.195 44.1879 121.072 44.7853 121.072ZM52.5236 122.432V127.6C52.5236 128.027 52.6143 128.331 52.7956 128.512C52.977 128.683 53.2916 128.768 53.7396 128.768H54.8116V130H53.4996C52.689 130 52.081 129.813 51.6756 129.44C51.2703 129.067 51.0676 128.453 51.0676 127.6V122.432H49.9316V121.232H51.0676V119.024H52.5236V121.232H54.8116V122.432H52.5236ZM60.0477 118.848C61.2638 118.848 62.3144 119.077 63.1998 119.536C64.0958 119.984 64.7784 120.629 65.2478 121.472C65.7278 122.315 65.9678 123.307 65.9678 124.448C65.9678 125.589 65.7278 126.581 65.2478 127.424C64.7784 128.256 64.0958 128.896 63.1998 129.344C62.3144 129.781 61.2638 130 60.0477 130H56.5758V118.848H60.0477ZM60.0477 128.8C61.4878 128.8 62.5864 128.421 63.3438 127.664C64.1011 126.896 64.4798 125.824 64.4798 124.448C64.4798 123.061 64.0958 121.979 63.3278 121.2C62.5704 120.421 61.4771 120.032 60.0477 120.032H58.0318V128.8H60.0477Z" fill="#AFAFAF"/>
</svg>
