<svg width="48" height="48" viewBox="0 0 48 48" fill="none" xmlns="http://www.w3.org/2000/svg">
<path d="M22.0649 1.96055L1.961 22.0479C0.880186 23.1278 0.880186 24.8721 1.961 25.952L22.0649 46.0393C23.1457 47.1193 24.8914 47.1193 25.9722 46.0393L34.4015 37.617C35.3694 36.6499 35.3694 35.0818 34.4015 34.1146C33.4335 33.1475 31.8642 33.1475 30.8962 34.1146L24.5061 40.4995C24.237 40.7683 23.8288 40.7683 23.5597 40.4995L7.50537 24.4584C7.23636 24.1896 7.23636 23.7816 7.50537 23.5128L23.5597 7.47166C23.8288 7.20287 24.237 7.20287 24.5061 7.47166L30.8962 13.8566C31.8642 14.8237 33.4335 14.8237 34.4015 13.8566C35.3694 12.8894 35.3694 11.3213 34.4015 10.3542L25.9731 1.93277C24.8879 0.876211 23.1415 0.884764 22.0649 1.96055Z" fill="#CBCBCB"/>
<path d="M36.3479 32.2466C37.3158 33.2138 38.8852 33.2138 39.8531 32.2466L46.071 26.0339C47.1518 24.9539 47.1518 23.2097 46.0711 22.1299L39.799 15.8852C38.8288 14.9192 37.2589 14.9206 36.2904 15.8883C35.3225 16.8555 35.3225 18.4236 36.2904 19.3907L40.5266 23.6234C40.7956 23.8922 40.7956 24.3001 40.5266 24.5689L36.3479 28.7442C35.3799 29.7114 35.3799 31.2794 36.3479 32.2466Z" fill="#E2E2E2"/>
<path d="M24.1195 29.5239C27.1173 29.5239 29.5475 27.0957 29.5475 24.1003C29.5475 21.105 27.1173 18.6768 24.1195 18.6768C21.1216 18.6768 18.6914 21.105 18.6914 24.1003C18.6914 27.0957 21.1216 29.5239 24.1195 29.5239Z" fill="#CBCBCB"/>
</svg>
