<svg width="48" height="48" viewBox="0 0 48 48" fill="none" xmlns="http://www.w3.org/2000/svg">
<path d="M38.0945 0.23097C36.8378 0.679084 34.7433 1.9338 32.2598 3.75315L34.5488 6.34325C36.1496 4.96306 37.7953 3.72626 39.4409 2.66871C39.5606 2.58805 39.6354 2.54324 39.6354 2.54324C39.5756 2.58805 39.5008 2.6239 39.4409 2.66871C38.9024 3.01824 37.2866 4.14749 34.848 6.39702C37.1968 6.32533 40.8024 6.03853 43.7496 5.73381C44.6323 2.79418 42.8969 1.44984 42.8969 1.44984C42.8969 1.44984 40.6827 -0.692146 38.0945 0.23097Z" fill="#CBCBCB"/>
<path d="M30.3908 21.9736C30.0916 22.0095 29.7924 22.0364 29.4932 22.0633C29.6428 22.0543 29.8073 22.0364 29.9569 22.0184C30.1066 22.0095 30.2562 21.9916 30.3908 21.9736Z" fill="#CBCBCB"/>
<path opacity="0.35" d="M30.3908 21.9736C30.0916 22.0095 29.7924 22.0364 29.4932 22.0633C29.6428 22.0543 29.8073 22.0364 29.9569 22.0184C30.1066 22.0095 30.2562 21.9916 30.3908 21.9736Z" fill="#CBCBCB"/>
<path d="M31.1694 19.706C31.1545 19.706 31.1545 19.706 31.1694 19.706C31.2143 19.706 31.2592 19.697 31.3041 19.697C31.4986 19.6791 31.6931 19.6612 31.8726 19.6343C31.6482 19.6612 31.4088 19.6791 31.1694 19.706V19.706Z" fill="#CBCBCB"/>
<path opacity="0.35" d="M31.1694 19.706C31.1545 19.706 31.1545 19.706 31.1694 19.706C31.2143 19.706 31.2592 19.697 31.3041 19.697C31.4986 19.6791 31.6931 19.6612 31.8726 19.6343C31.6482 19.6612 31.4088 19.6791 31.1694 19.706V19.706Z" fill="#CBCBCB"/>
<path d="M27.7873 13.0289C28.4905 12.2492 29.1936 11.4874 29.8968 10.7435C30.6299 9.97276 31.3779 9.22889 32.1409 8.50294C32.1858 8.45813 32.2307 8.41332 32.2756 8.37747C33.0236 7.66945 33.7716 6.98831 34.5346 6.33407L32.2456 3.75293C32.0811 3.8784 31.9015 4.00387 31.722 4.13831C31.0637 4.63123 30.3755 5.16001 29.6724 5.72463C28.8795 6.36096 28.0716 7.03313 27.2338 7.74115C26.4708 8.39539 25.6928 9.08549 24.9149 9.79351C24.2566 10.4029 23.5983 11.0213 22.94 11.6577C22.9101 11.6846 22.8952 11.7025 22.8652 11.7294L25.8424 15.2515C26.5007 14.5077 27.144 13.7638 27.7873 13.0289V13.0289Z" fill="#CBCBCB"/>
<path d="M14.2199 32.8986C13.8309 33.5439 13.427 34.2071 13.038 34.8883C13.038 34.8972 13.023 34.9062 13.023 34.9151C12.9632 35.0137 12.9033 35.1034 12.8585 35.2019C12.5892 35.659 12.3648 36.0713 11.8262 37.0034C12.7089 37.2453 13.412 37.8727 14.0703 38.5897C13.9955 37.8458 13.4868 37.1468 12.5144 36.609C16.838 36.7255 20.5782 36.0713 22.4932 34.1713C22.6578 34.001 22.8223 33.8217 22.972 33.6335C22.0893 34.2967 21.0121 34.5835 18.9625 34.5118H18.9475H18.9625C21.9696 33.7052 23.4806 32.9255 24.8121 31.6439C25.1263 31.3392 25.4405 31.0076 25.7547 30.6401C23.1216 32.2623 20.0696 32.7194 16.853 32.3699L14.4443 32.5312C14.3695 32.6567 14.2947 32.7732 14.2199 32.8986Z" fill="#CBCBCB"/>
<path d="M15.3404 29.6629C15.864 28.8563 16.4026 28.0407 16.9412 27.2162C17.4648 26.4275 18.0034 25.6388 18.557 24.8411C19.1105 24.0435 19.679 23.2459 20.2475 22.4482C20.831 21.6326 21.4294 20.826 22.0428 20.0194C22.6412 19.2218 23.2696 18.4241 23.883 17.6355C24.1074 17.3487 24.3318 17.0708 24.5712 16.784C24.9602 16.3001 25.3641 15.8161 25.768 15.3322C25.783 15.3053 25.8129 15.2784 25.8279 15.2515L22.8806 11.7383C22.8357 11.7831 22.7909 11.8369 22.731 11.8817C22.0428 12.5628 21.3397 13.2529 20.6664 13.9609C19.9782 14.6779 19.305 15.4039 18.6467 16.1477C18.0932 16.7751 17.5546 17.4024 17.016 18.0388C16.9113 18.1642 16.8065 18.2987 16.7018 18.4241C16.0585 19.2218 15.4601 20.0015 14.9364 20.7454C14.338 21.5878 13.8144 22.3944 13.3506 23.1562C13.0514 23.6581 12.7671 24.1421 12.5128 24.6081C12.3033 25.0025 12.1089 25.4058 11.9144 25.8001C11.4655 26.7322 11.0915 27.6643 10.7773 28.5963L13.7695 32.1365C14.1585 31.5001 14.5774 30.8638 14.9813 30.2096C15.101 30.0303 15.2207 29.8511 15.3404 29.6629V29.6629Z" fill="#CBCBCB"/>
<path d="M10.7324 28.7222C10.3583 29.8514 10.089 30.9806 9.95439 32.1099C9.95439 32.1457 9.93943 32.1906 9.93943 32.2264C9.01186 31.3302 6.49845 30.4519 6.51341 30.4608C8.30871 32.0203 9.67014 33.5618 9.86463 35.0764C8.90714 35.1929 7.59059 35.0226 6.07955 34.691C7.66539 35.5604 8.84729 35.8024 9.31108 35.8651C7.85988 35.9189 6.34884 36.5193 4.82284 37.2094C7.052 36.6627 8.86225 36.4476 10.1489 36.6269C8.09925 40.0953 6.04963 43.9312 4 48C4.62835 47.8925 5.00237 47.6326 5.21182 47.292C5.57088 46.5571 8.00949 41.7175 11.8095 35.3632C11.9143 35.184 12.0339 35.0047 12.1387 34.8165C12.1686 34.7627 12.1985 34.7179 12.2284 34.6641C12.6324 34.0009 13.0513 33.3198 13.4851 32.6207C13.5899 32.4594 13.6796 32.3071 13.7844 32.1457V32.1368L10.7922 28.5967C10.7623 28.6415 10.7473 28.6773 10.7324 28.7222V28.7222Z" fill="#CBCBCB"/>
<path d="M26.3222 15.5561C26.2325 15.6637 26.1577 15.7623 26.0679 15.8698C25.8136 16.1925 25.5443 16.5151 25.2899 16.8467C25.0057 17.2052 24.7214 17.5727 24.4222 17.9491C24.2726 18.1373 24.123 18.3255 23.9734 18.5227C23.5246 19.1052 23.0757 19.7057 22.6119 20.3241C22.0434 21.0859 21.4749 21.8746 20.8915 22.6991C20.3379 23.4788 19.7694 24.2944 19.2009 25.1279C18.6623 25.9255 18.1088 26.7411 17.5552 27.5925C17.0615 28.3453 16.5678 29.125 16.0591 29.9227C16.0292 29.9585 16.0142 30.0034 15.9843 30.0392C15.4906 30.8279 14.9819 31.6435 14.4733 32.4769C14.4583 32.4949 14.4434 32.5128 14.4434 32.5307L16.852 32.3694C16.8072 32.3604 16.7623 32.3604 16.7024 32.3515C19.5899 32.1364 23.4198 30.8458 25.8884 29.2505C27.0254 28.5156 28.0577 27.6552 29.0152 26.6425C29.7333 25.8897 30.3916 25.0562 31.0349 24.1241C31.5884 23.3175 32.127 22.4392 32.6357 21.4892C31.9774 21.6953 31.2144 21.8477 30.3766 21.9552C30.227 21.9731 30.0774 21.9911 29.9278 22.009C29.7782 22.0269 29.6286 22.0359 29.464 22.0538C32.1569 21.4354 33.8475 20.2434 35.0743 18.7736C34.3711 19.0604 33.2191 19.4368 31.8427 19.625C31.6632 19.6519 31.4687 19.6698 31.2742 19.6878C31.2294 19.6878 31.1845 19.6967 31.1246 19.6967C32.0522 19.4637 32.8451 19.2038 33.5333 18.8901C33.6829 18.8274 33.8176 18.7557 33.9522 18.684C34.1617 18.5764 34.3562 18.4599 34.5506 18.3434C34.6703 18.2628 34.79 18.1911 34.9097 18.1104C35.179 17.9222 35.4333 17.7161 35.6577 17.492C35.7326 17.4203 35.8074 17.3576 35.8672 17.2859C35.957 17.1783 36.0467 17.0797 36.1215 16.9811C36.4956 16.533 36.7948 16.1297 37.0341 15.7712C37.1538 15.592 37.2586 15.4307 37.3483 15.2783C37.3782 15.2156 37.4231 15.1618 37.453 15.0991C37.5428 14.9288 37.6326 14.7764 37.6924 14.642C37.7822 14.4448 37.842 14.2835 37.8719 14.167C37.7822 14.2118 37.6775 14.2566 37.5578 14.2925C36.7499 14.5793 35.3585 14.8481 34.2365 14.9736C34.2215 14.9736 34.2066 14.9736 34.1916 14.9826C34.0869 14.9915 33.9672 15.0005 33.8475 15.0184C33.8625 15.0094 33.8924 15.0094 33.9073 15.0005L26.3372 15.4934C26.3521 15.5293 26.3372 15.5472 26.3222 15.5561Z" fill="#CBCBCB"/>
<path d="M34.849 6.39692C34.1757 7.01532 33.4427 7.72334 32.6497 8.51202C32.6049 8.55683 32.56 8.59268 32.5301 8.63749C31.8419 9.32759 31.1237 10.0804 30.3607 10.9139C29.7025 11.6309 29.0143 12.3927 28.2962 13.2262C27.6678 13.9432 27.0394 14.705 26.3662 15.5116L33.9364 15.0186C36.1356 14.4092 37.123 13.8625 38.0805 13.0649C38.3348 12.8498 38.5892 12.6168 38.8435 12.3748C39.6215 11.6488 40.3845 10.8512 41.0577 10.0535C41.716 9.28278 42.2994 8.52099 42.7333 7.83985C43.0176 7.4007 43.242 6.9974 43.4065 6.6389C43.5412 6.32522 43.6459 6.02947 43.7357 5.74268C40.8034 6.03843 37.1978 6.32522 34.849 6.39692Z" fill="#CBCBCB"/>
<path d="M29.9569 22.0273C29.8073 22.0453 29.6577 22.0542 29.4932 22.0722C29.6428 22.0542 29.7924 22.0363 29.9569 22.0273Z" fill="#CBCBCB"/>
<path opacity="0.35" d="M29.9569 22.0273C29.8073 22.0453 29.6577 22.0542 29.4932 22.0722C29.6428 22.0542 29.7924 22.0363 29.9569 22.0273Z" fill="#CBCBCB"/>
<path d="M29.9569 22.0273C29.8073 22.0453 29.6577 22.0542 29.4932 22.0722C29.6428 22.0542 29.7924 22.0363 29.9569 22.0273Z" fill="#CBCBCB"/>
<path d="M31.1543 19.7062C31.1992 19.7062 31.2441 19.6973 31.3039 19.6973C31.259 19.6973 31.2141 19.7062 31.1543 19.7062Z" fill="#CBCBCB"/>
<path opacity="0.35" d="M31.1543 19.7062C31.1992 19.7062 31.2441 19.6973 31.3039 19.6973C31.259 19.6973 31.2141 19.7062 31.1543 19.7062Z" fill="#CBCBCB"/>
<path d="M31.1543 19.7062C31.1992 19.7062 31.2441 19.6973 31.3039 19.6973C31.259 19.6973 31.2141 19.7062 31.1543 19.7062Z" fill="#CBCBCB"/>
</svg>
