<svg width="137" height="136" viewBox="0 0 137 136" fill="none" xmlns="http://www.w3.org/2000/svg">
<path d="M108.728 0.461939C105.142 1.35817 99.1635 3.86761 92.0752 7.5063L98.6084 12.6865C103.177 9.92612 107.874 7.45252 112.571 5.33742C112.913 5.1761 113.127 5.08648 113.127 5.08648C112.956 5.1761 112.742 5.2478 112.571 5.33742C111.034 6.03648 106.423 8.29498 99.4624 12.794C106.166 12.6507 116.457 12.0771 124.869 11.4676C127.389 5.58837 122.435 2.89968 122.435 2.89968C122.435 2.89968 116.116 -1.38429 108.728 0.461939Z" fill="#CBCBCB"/>
<path d="M86.7388 43.9468C85.8848 44.0185 85.0308 44.0722 84.1768 44.126C84.6038 44.1081 85.0735 44.0722 85.5005 44.0364C85.9275 44.0185 86.3545 43.9826 86.7388 43.9468Z" fill="#CBCBCB"/>
<path opacity="0.35" d="M86.7388 43.9468C85.8848 44.0185 85.0308 44.0722 84.1768 44.126C84.6038 44.1081 85.0735 44.0722 85.5005 44.0364C85.9275 44.0185 86.3545 43.9826 86.7388 43.9468Z" fill="#CBCBCB"/>
<path d="M88.9637 39.412C88.921 39.412 88.921 39.412 88.9637 39.412C89.0918 39.412 89.2199 39.394 89.348 39.394C89.9031 39.3582 90.4582 39.3223 90.9706 39.2686C90.3301 39.3223 89.6469 39.3582 88.9637 39.412Z" fill="#CBCBCB"/>
<path opacity="0.35" d="M88.9637 39.412C88.921 39.412 88.921 39.412 88.9637 39.412C89.0918 39.412 89.2199 39.394 89.348 39.394C89.9031 39.3582 90.4582 39.3223 90.9706 39.2686C90.3301 39.3223 89.6469 39.3582 88.9637 39.412Z" fill="#CBCBCB"/>
<path d="M79.3112 26.0578C81.3181 24.4984 83.325 22.9748 85.332 21.487C87.4243 19.9455 89.5593 18.4578 91.737 17.0059C91.8651 16.9163 91.9932 16.8266 92.1213 16.7549C94.2564 15.3389 96.3914 13.9766 98.5691 12.6681L92.0359 7.50586C91.5662 7.7568 91.0538 8.00775 90.5414 8.27662C88.6626 9.26247 86.6984 10.32 84.6915 11.4493C82.4283 12.7219 80.1225 14.0663 77.7313 15.4823C75.5535 16.7908 73.3331 18.171 71.1127 19.587C69.2338 20.8059 67.355 22.0427 65.4762 23.3153C65.3908 23.3691 65.3481 23.405 65.2627 23.4587L73.7601 30.5031C75.6389 29.0153 77.4751 27.5276 79.3112 26.0578Z" fill="#CBCBCB"/>
<path d="M40.585 65.7973C39.4748 67.0878 38.3219 68.4143 37.2117 69.7765C37.2117 69.7944 37.169 69.8124 37.169 69.8303C36.9982 70.0275 36.8274 70.2067 36.6993 70.4039C35.9307 71.318 35.2902 72.1426 33.7529 74.0067C36.2723 74.4907 38.2792 75.7454 40.158 77.1794C39.9445 75.6916 38.4927 74.2935 35.7172 73.218C48.0576 73.4511 58.7328 72.1426 64.1984 68.3426C64.6681 68.002 65.1378 67.6435 65.5649 67.2671C63.0455 68.5935 59.9711 69.1671 54.1211 69.0237H54.0784H54.1211C62.7039 67.4105 67.0167 65.851 70.817 63.2878C71.7137 62.6784 72.6105 62.0152 73.5072 61.2803C65.9919 64.5246 57.2809 65.4388 48.1003 64.7397L41.2255 65.0624C41.012 65.3133 40.7985 65.5463 40.585 65.7973Z" fill="#CBCBCB"/>
<path d="M43.7834 59.3262C45.278 57.713 46.8152 56.0819 48.3524 54.4328C49.8469 52.8554 51.3841 51.2781 52.9641 49.6828C54.544 48.0875 56.1666 46.4922 57.7892 44.8969C59.4545 43.2658 61.1626 41.6526 62.9133 40.0394C64.6213 38.4441 66.4147 36.8488 68.1655 35.2714C68.806 34.6978 69.4465 34.1422 70.1297 33.5686C71.2399 32.6007 72.3928 31.6327 73.5457 30.6648C73.5884 30.611 73.6738 30.5573 73.7165 30.5035L65.3045 23.4771C65.1764 23.5667 65.0483 23.6742 64.8775 23.7638C62.9133 25.1261 60.9064 26.5063 58.9848 27.9223C57.0206 29.3563 55.0991 30.8082 53.2203 32.2959C51.6403 33.5507 50.1031 34.8054 48.5659 36.078C48.267 36.329 47.9681 36.5978 47.6692 36.8488C45.8331 38.4441 44.125 40.0035 42.6305 41.4913C40.9225 43.1762 39.428 44.7894 38.1043 46.313C37.2503 47.3167 36.4389 48.2847 35.713 49.2167C35.1152 50.0054 34.5601 50.812 34.005 51.6007C32.724 53.4649 31.6565 55.329 30.7598 57.1932L39.2999 64.2734C40.4101 63.0007 41.6057 61.7281 42.7586 60.4196C43.1002 60.0611 43.4418 59.7026 43.7834 59.3262Z" fill="#CBCBCB"/>
<path d="M30.6322 57.4438C29.5647 59.7023 28.7961 61.9608 28.4118 64.2193C28.4118 64.291 28.3691 64.3806 28.3691 64.4523C25.7217 62.6599 18.548 60.9033 18.5907 60.9212C23.7148 64.0401 27.6005 67.1231 28.1556 70.1523C25.4228 70.3854 21.6651 70.0448 17.3524 69.3816C21.8786 71.1203 25.252 71.6042 26.5757 71.7297C22.4337 71.8373 18.121 73.0382 13.7655 74.4184C20.1279 73.325 25.2947 72.8948 28.9669 73.2533C23.1169 80.1901 17.267 87.8618 11.417 95.9996C13.2104 95.7845 14.2779 95.2647 14.8757 94.5835C15.9006 93.1137 22.8607 83.4345 33.7067 70.7259C34.0056 70.3674 34.3472 70.0089 34.6461 69.6325C34.7315 69.525 34.8169 69.4354 34.9023 69.3278C36.0552 68.0014 37.2508 66.6391 38.4891 65.241C38.7881 64.9184 39.0443 64.6136 39.3432 64.291V64.2731L30.803 57.1929C30.7176 57.2825 30.6749 57.3542 30.6322 57.4438Z" fill="#CBCBCB"/>
<path d="M75.1269 31.1128C74.8707 31.3279 74.6572 31.525 74.401 31.7401C73.6751 32.3854 72.9065 33.0307 72.1806 33.6939C71.3693 34.4109 70.5579 35.1458 69.7039 35.8986C69.2769 36.2751 68.8499 36.6515 68.4229 37.0458C67.1419 38.2109 65.8609 39.4119 64.5372 40.6487C62.9145 42.1722 61.2919 43.7496 59.6266 45.3987C58.0467 46.9581 56.4241 48.5892 54.8014 50.2562C53.2642 51.8515 51.6843 53.4826 50.1044 55.1855C48.6953 56.6911 47.2861 58.2506 45.8343 59.8459C45.7489 59.9176 45.7062 60.0072 45.6208 60.0789C44.2117 61.6563 42.7599 63.2874 41.3081 64.9544C41.2654 64.9902 41.2227 65.0261 41.2227 65.0619L48.0974 64.7393C47.9693 64.7214 47.8412 64.7214 47.6704 64.7034C55.9116 64.2732 66.843 61.6921 73.8886 58.5015C77.1338 57.0317 80.0802 55.311 82.813 53.2855C84.8626 51.7798 86.7415 50.1128 88.5776 48.2487C90.1575 46.6355 91.6947 44.8789 93.1465 42.9788C91.2677 43.3911 89.09 43.6958 86.6988 43.9109C86.2717 43.9468 85.8447 43.9826 85.4177 44.0185C84.9907 44.0543 84.5637 44.0722 84.094 44.1081C91.7801 42.8713 96.6053 40.4873 100.107 37.5477C98.0998 38.1213 94.8119 38.8741 90.8834 39.2505C90.371 39.3043 89.8159 39.3402 89.2608 39.376C89.1327 39.376 89.0046 39.3939 88.8338 39.3939C91.4812 38.9279 93.7444 38.4081 95.7086 37.7807C96.1356 37.6552 96.5199 37.5119 96.9042 37.3685C97.502 37.1534 98.0571 36.9203 98.6122 36.6873C98.9538 36.526 99.2954 36.3826 99.637 36.2213C100.406 35.8449 101.132 35.4326 101.772 34.9845C101.986 34.8411 102.199 34.7156 102.37 34.5722C102.626 34.3571 102.882 34.16 103.096 33.9628C104.163 33.0666 105.017 32.26 105.701 31.543C106.042 31.1845 106.341 30.8618 106.597 30.5571C106.683 30.4316 106.811 30.3241 106.896 30.1986C107.152 29.8581 107.409 29.5533 107.579 29.2845C107.836 28.8901 108.006 28.5675 108.092 28.3345C107.836 28.4241 107.537 28.5137 107.195 28.5854C104.889 29.159 100.918 29.6967 97.7155 29.9477C97.6728 29.9477 97.6301 29.9477 97.5874 29.9656C97.2885 29.9835 96.9469 30.0015 96.6053 30.0373C96.648 30.0194 96.7334 30.0194 96.7761 30.0015L75.1696 30.9873C75.2123 31.059 75.1696 31.0949 75.1269 31.1128Z" fill="#CBCBCB"/>
<path d="M99.4641 12.7938C97.5426 14.0306 95.4503 15.4467 93.1872 17.024C93.0591 17.1137 92.931 17.1854 92.8456 17.275C90.8813 18.6552 88.8317 20.1608 86.654 21.8278C84.7752 23.2618 82.8109 24.7854 80.7613 26.4524C78.9679 27.8863 77.1745 29.4099 75.2529 31.0231L96.8594 30.0373C103.136 28.8184 105.955 27.725 108.687 26.1297C109.413 25.6995 110.139 25.2335 110.865 24.7495C113.086 23.2976 115.263 21.7024 117.185 20.1071C119.064 18.5656 120.729 17.042 121.967 15.6797C122.779 14.8014 123.419 13.9948 123.889 13.2778C124.273 12.6504 124.572 12.0589 124.828 11.4854C116.459 12.0769 106.168 12.6504 99.4641 12.7938Z" fill="#CBCBCB"/>
<path d="M85.5005 44.0542C85.0735 44.09 84.6465 44.108 84.1768 44.1438C84.6038 44.108 85.0308 44.0721 85.5005 44.0542Z" fill="#CBCBCB"/>
<path opacity="0.35" d="M85.5005 44.0542C85.0735 44.09 84.6465 44.108 84.1768 44.1438C84.6038 44.108 85.0308 44.0721 85.5005 44.0542Z" fill="#CBCBCB"/>
<path d="M85.5005 44.0542C85.0735 44.09 84.6465 44.108 84.1768 44.1438C84.6038 44.108 85.0308 44.0721 85.5005 44.0542Z" fill="#CBCBCB"/>
<path d="M88.9189 39.4125C89.047 39.4125 89.1752 39.3945 89.346 39.3945C89.2179 39.3945 89.0897 39.4125 88.9189 39.4125Z" fill="#CBCBCB"/>
<path opacity="0.35" d="M88.9189 39.4125C89.047 39.4125 89.1752 39.3945 89.346 39.3945C89.2179 39.3945 89.0897 39.4125 88.9189 39.4125Z" fill="#CBCBCB"/>
<path d="M88.9189 39.4125C89.047 39.4125 89.1752 39.3945 89.346 39.3945C89.2179 39.3945 89.0897 39.4125 88.9189 39.4125Z" fill="#CBCBCB"/>
<path d="M16.0974 127.52H11.2334L10.3374 130H8.80144L12.8334 118.912H14.5134L18.5294 130H16.9934L16.0974 127.52ZM15.6814 126.336L13.6654 120.704L11.6494 126.336H15.6814ZM21.7427 122.848C22.0307 122.347 22.4574 121.931 23.0227 121.6C23.5987 121.259 24.2654 121.088 25.0227 121.088C25.8014 121.088 26.5054 121.275 27.1347 121.648C27.7747 122.021 28.276 122.549 28.6387 123.232C29.0014 123.904 29.1827 124.688 29.1827 125.584C29.1827 126.469 29.0014 127.259 28.6387 127.952C28.276 128.645 27.7747 129.184 27.1347 129.568C26.5054 129.952 25.8014 130.144 25.0227 130.144C24.276 130.144 23.6147 129.979 23.0387 129.648C22.4734 129.307 22.0414 128.885 21.7427 128.384V134.16H20.2867V121.232H21.7427V122.848ZM27.6947 125.584C27.6947 124.923 27.5614 124.347 27.2947 123.856C27.028 123.365 26.6654 122.992 26.2067 122.736C25.7587 122.48 25.2627 122.352 24.7187 122.352C24.1854 122.352 23.6894 122.485 23.2307 122.752C22.7827 123.008 22.42 123.387 22.1427 123.888C21.876 124.379 21.7427 124.949 21.7427 125.6C21.7427 126.261 21.876 126.843 22.1427 127.344C22.42 127.835 22.7827 128.213 23.2307 128.48C23.6894 128.736 24.1854 128.864 24.7187 128.864C25.2627 128.864 25.7587 128.736 26.2067 128.48C26.6654 128.213 27.028 127.835 27.2947 127.344C27.5614 126.843 27.6947 126.256 27.6947 125.584ZM30.5552 125.584C30.5552 124.688 30.7365 123.904 31.0992 123.232C31.4619 122.549 31.9579 122.021 32.5872 121.648C33.2272 121.275 33.9365 121.088 34.7152 121.088C35.4832 121.088 36.1499 121.253 36.7152 121.584C37.2805 121.915 37.7019 122.331 37.9792 122.832V121.232H39.4512V130H37.9792V128.368C37.6912 128.88 37.2592 129.307 36.6832 129.648C36.1179 129.979 35.4565 130.144 34.6992 130.144C33.9205 130.144 33.2165 129.952 32.5872 129.568C31.9579 129.184 31.4619 128.645 31.0992 127.952C30.7365 127.259 30.5552 126.469 30.5552 125.584ZM37.9792 125.6C37.9792 124.939 37.8459 124.363 37.5792 123.872C37.3125 123.381 36.9499 123.008 36.4912 122.752C36.0432 122.485 35.5472 122.352 35.0032 122.352C34.4592 122.352 33.9632 122.48 33.5152 122.736C33.0672 122.992 32.7099 123.365 32.4432 123.856C32.1765 124.347 32.0432 124.923 32.0432 125.584C32.0432 126.256 32.1765 126.843 32.4432 127.344C32.7099 127.835 33.0672 128.213 33.5152 128.48C33.9632 128.736 34.4592 128.864 35.0032 128.864C35.5472 128.864 36.0432 128.736 36.4912 128.48C36.9499 128.213 37.3125 127.835 37.5792 127.344C37.8459 126.843 37.9792 126.261 37.9792 125.6ZM41.3677 125.6C41.3677 124.693 41.549 123.904 41.9117 123.232C42.2744 122.549 42.7757 122.021 43.4157 121.648C44.0664 121.275 44.8077 121.088 45.6397 121.088C46.717 121.088 47.6024 121.349 48.2957 121.872C48.9997 122.395 49.4637 123.12 49.6877 124.048H48.1197C47.9704 123.515 47.677 123.093 47.2397 122.784C46.813 122.475 46.2797 122.32 45.6397 122.32C44.8077 122.32 44.1357 122.608 43.6237 123.184C43.1117 123.749 42.8557 124.555 42.8557 125.6C42.8557 126.656 43.1117 127.472 43.6237 128.048C44.1357 128.624 44.8077 128.912 45.6397 128.912C46.2797 128.912 46.813 128.763 47.2397 128.464C47.6664 128.165 47.9597 127.739 48.1197 127.184H49.6877C49.453 128.08 48.9837 128.8 48.2797 129.344C47.5757 129.877 46.6957 130.144 45.6397 130.144C44.8077 130.144 44.0664 129.957 43.4157 129.584C42.7757 129.211 42.2744 128.683 41.9117 128C41.549 127.317 41.3677 126.517 41.3677 125.6ZM55.9824 121.072C56.6438 121.072 57.2411 121.216 57.7744 121.504C58.3078 121.781 58.7238 122.203 59.0224 122.768C59.3318 123.333 59.4864 124.021 59.4864 124.832V130H58.0464V125.04C58.0464 124.165 57.8278 123.499 57.3904 123.04C56.9531 122.571 56.3558 122.336 55.5984 122.336C54.8304 122.336 54.2171 122.576 53.7584 123.056C53.3104 123.536 53.0864 124.235 53.0864 125.152V130H51.6304V118.16H53.0864V122.48C53.3744 122.032 53.7691 121.685 54.2704 121.44C54.7824 121.195 55.3531 121.072 55.9824 121.072ZM69.8648 125.28C69.8648 125.557 69.8488 125.851 69.8168 126.16H62.8088C62.8621 127.024 63.1555 127.701 63.6888 128.192C64.2328 128.672 64.8888 128.912 65.6568 128.912C66.2861 128.912 66.8088 128.768 67.2248 128.48C67.6515 128.181 67.9501 127.787 68.1208 127.296H69.6888C69.4541 128.139 68.9848 128.827 68.2808 129.36C67.5768 129.883 66.7021 130.144 65.6568 130.144C64.8248 130.144 64.0781 129.957 63.4168 129.584C62.7661 129.211 62.2541 128.683 61.8808 128C61.5075 127.307 61.3208 126.507 61.3208 125.6C61.3208 124.693 61.5021 123.899 61.8648 123.216C62.2275 122.533 62.7341 122.011 63.3848 121.648C64.0461 121.275 64.8035 121.088 65.6568 121.088C66.4888 121.088 67.2248 121.269 67.8648 121.632C68.5048 121.995 68.9955 122.496 69.3368 123.136C69.6888 123.765 69.8648 124.48 69.8648 125.28ZM68.3608 124.976C68.3608 124.421 68.2381 123.947 67.9928 123.552C67.7475 123.147 67.4115 122.843 66.9848 122.64C66.5688 122.427 66.1048 122.32 65.5928 122.32C64.8568 122.32 64.2275 122.555 63.7048 123.024C63.1928 123.493 62.8995 124.144 62.8248 124.976H68.3608ZM81.6683 118.848V127.088C81.6683 128.005 81.3856 128.741 80.8203 129.296C80.255 129.84 79.5083 130.112 78.5803 130.112C77.6416 130.112 76.8896 129.835 76.3243 129.28C75.759 128.715 75.4763 127.947 75.4763 126.976H76.9323C76.943 127.52 77.0816 127.963 77.3483 128.304C77.6256 128.645 78.0363 128.816 78.5803 128.816C79.1243 128.816 79.5296 128.656 79.7963 128.336C80.063 128.005 80.1963 127.589 80.1963 127.088V118.848H81.6683ZM95.8487 118.928V130H94.3927V121.744L90.7127 130H89.6887L85.9927 121.728V130H84.5367V118.928H86.1047L90.2007 128.08L94.2967 118.928H95.8487ZM106.318 125.28C106.318 125.557 106.302 125.851 106.27 126.16H99.2619C99.3153 127.024 99.6086 127.701 100.142 128.192C100.686 128.672 101.342 128.912 102.11 128.912C102.739 128.912 103.262 128.768 103.678 128.48C104.105 128.181 104.403 127.787 104.574 127.296H106.142C105.907 128.139 105.438 128.827 104.734 129.36C104.03 129.883 103.155 130.144 102.11 130.144C101.278 130.144 100.531 129.957 99.8699 129.584C99.2193 129.211 98.7073 128.683 98.3339 128C97.9606 127.307 97.7739 126.507 97.7739 125.6C97.7739 124.693 97.9553 123.899 98.3179 123.216C98.6806 122.533 99.1873 122.011 99.8379 121.648C100.499 121.275 101.257 121.088 102.11 121.088C102.942 121.088 103.678 121.269 104.318 121.632C104.958 121.995 105.449 122.496 105.79 123.136C106.142 123.765 106.318 124.48 106.318 125.28ZM104.814 124.976C104.814 124.421 104.691 123.947 104.446 123.552C104.201 123.147 103.865 122.843 103.438 122.64C103.022 122.427 102.558 122.32 102.046 122.32C101.31 122.32 100.681 122.555 100.158 123.024C99.6459 123.493 99.3526 124.144 99.2779 124.976H104.814ZM110.016 122.432V127.6C110.016 128.027 110.106 128.331 110.288 128.512C110.469 128.683 110.784 128.768 111.232 128.768H112.304V130H110.992C110.181 130 109.573 129.813 109.168 129.44C108.762 129.067 108.56 128.453 108.56 127.6V122.432H107.424V121.232H108.56V119.024H110.016V121.232H112.304V122.432H110.016ZM122.068 125.28C122.068 125.557 122.052 125.851 122.02 126.16H115.012C115.065 127.024 115.359 127.701 115.892 128.192C116.436 128.672 117.092 128.912 117.86 128.912C118.489 128.912 119.012 128.768 119.428 128.48C119.855 128.181 120.153 127.787 120.324 127.296H121.892C121.657 128.139 121.188 128.827 120.484 129.36C119.78 129.883 118.905 130.144 117.86 130.144C117.028 130.144 116.281 129.957 115.62 129.584C114.969 129.211 114.457 128.683 114.084 128C113.711 127.307 113.524 126.507 113.524 125.6C113.524 124.693 113.705 123.899 114.068 123.216C114.431 122.533 114.937 122.011 115.588 121.648C116.249 121.275 117.007 121.088 117.86 121.088C118.692 121.088 119.428 121.269 120.068 121.632C120.708 121.995 121.199 122.496 121.54 123.136C121.892 123.765 122.068 124.48 122.068 125.28ZM120.564 124.976C120.564 124.421 120.441 123.947 120.196 123.552C119.951 123.147 119.615 122.843 119.188 122.64C118.772 122.427 118.308 122.32 117.796 122.32C117.06 122.32 116.431 122.555 115.908 123.024C115.396 123.493 115.103 124.144 115.028 124.976H120.564ZM125.446 122.656C125.702 122.155 126.064 121.765 126.534 121.488C127.014 121.211 127.595 121.072 128.278 121.072V122.576H127.894C126.262 122.576 125.446 123.461 125.446 125.232V130H123.99V121.232H125.446V122.656Z" fill="#AFAFAF"/>
</svg>
