<svg width="48" height="48" viewBox="0 0 48 48" fill="none" xmlns="http://www.w3.org/2000/svg">
<g clip-path="url(#clip0_203_1221)">
<path d="M13.5267 20.4248C13.5267 21.0155 13.5906 21.4944 13.7023 21.8457C13.83 22.1969 13.9897 22.58 14.2132 22.9951C14.293 23.1228 14.3249 23.2505 14.3249 23.3623C14.3249 23.5219 14.2291 23.6816 14.0216 23.8412L13.0158 24.5117C12.8722 24.6075 12.7285 24.6554 12.6008 24.6554C12.4411 24.6554 12.2815 24.5756 12.1218 24.4319C11.8983 24.1924 11.7068 23.937 11.5471 23.6816C11.3875 23.4102 11.2278 23.1068 11.0522 22.7397C9.80698 24.2084 8.24246 24.9428 6.35865 24.9428C5.01763 24.9428 3.94801 24.5596 3.16575 23.7933C2.38349 23.027 1.98438 22.0053 1.98438 20.7281C1.98438 19.3712 2.46331 18.2696 3.43714 17.4395C4.41098 16.6093 5.7041 16.1942 7.34844 16.1942C7.89124 16.1942 8.44999 16.2421 9.04068 16.3219C9.63137 16.4018 10.238 16.5295 10.8766 16.6732V15.5078C10.8766 14.2944 10.6212 13.4483 10.1263 12.9534C9.6154 12.4585 8.75332 12.2191 7.52405 12.2191C6.9653 12.2191 6.39058 12.2829 5.79989 12.4266C5.2092 12.5703 4.63448 12.7459 4.07572 12.9694C3.82029 13.0811 3.62872 13.145 3.51697 13.1769C3.40522 13.2089 3.32539 13.2248 3.26153 13.2248C3.03803 13.2248 2.92628 13.0652 2.92628 12.7299V11.9477C2.92628 11.6922 2.95821 11.5007 3.03803 11.3889C3.11785 11.2772 3.26153 11.1654 3.48504 11.0537C4.04379 10.7663 4.7143 10.5268 5.49656 10.3353C6.27882 10.1277 7.10898 10.0319 7.98702 10.0319C9.8868 10.0319 11.2757 10.463 12.1697 11.3251C13.0478 12.1871 13.4948 13.4962 13.4948 15.2523V20.4248H13.5267ZM7.04512 22.8514C7.57195 22.8514 8.11474 22.7556 8.68946 22.5641C9.26418 22.3725 9.77505 22.0213 10.2061 21.5423C10.4615 21.239 10.6531 20.9037 10.7489 20.5206C10.8447 20.1375 10.9085 19.6745 10.9085 19.1317V18.4612C10.4456 18.3494 9.95066 18.2536 9.43979 18.1898C8.92893 18.1259 8.43403 18.094 7.93913 18.094C6.86951 18.094 6.08725 18.3015 5.56042 18.7326C5.03359 19.1636 4.77816 19.7703 4.77816 20.5685C4.77816 21.3188 4.96974 21.8776 5.36885 22.2607C5.752 22.6598 6.31075 22.8514 7.04512 22.8514V22.8514ZM19.8646 24.5756C19.5772 24.5756 19.3857 24.5277 19.258 24.4159C19.1302 24.3202 19.0185 24.0966 18.9227 23.7933L15.171 11.4528C15.0753 11.1335 15.0274 10.9259 15.0274 10.8142C15.0274 10.5588 15.1551 10.4151 15.4105 10.4151H16.975C17.2784 10.4151 17.4859 10.463 17.5977 10.5747C17.7254 10.6705 17.8212 10.894 17.9169 11.1973L20.599 21.7658L23.0894 11.1973C23.1693 10.878 23.265 10.6705 23.3928 10.5747C23.5205 10.4789 23.744 10.4151 24.0313 10.4151H25.3085C25.6118 10.4151 25.8194 10.463 25.9471 10.5747C26.0748 10.6705 26.1865 10.894 26.2504 11.1973L28.7728 21.8935L31.5347 11.1973C31.6304 10.878 31.7422 10.6705 31.8539 10.5747C31.9817 10.4789 32.1892 10.4151 32.4766 10.4151H33.9613C34.2167 10.4151 34.3604 10.5428 34.3604 10.8142C34.3604 10.894 34.3444 10.9738 34.3284 11.0696C34.3125 11.1654 34.2805 11.2931 34.2167 11.4687L30.3692 23.8093C30.2735 24.1286 30.1617 24.3361 30.034 24.4319C29.9063 24.5277 29.6987 24.5915 29.4273 24.5915H28.0544C27.7511 24.5915 27.5435 24.5437 27.4158 24.4319C27.2881 24.3202 27.1763 24.1126 27.1125 23.7933L24.638 13.4962L22.1795 23.7774C22.0996 24.0966 22.0039 24.3042 21.8761 24.4159C21.7484 24.5277 21.5249 24.5756 21.2376 24.5756H19.8646ZM40.379 25.0066C39.5488 25.0066 38.7187 24.9108 37.9205 24.7193C37.1222 24.5277 36.4996 24.3202 36.0845 24.0807C35.8291 23.937 35.6535 23.7774 35.5896 23.6337C35.5258 23.49 35.4938 23.3304 35.4938 23.1867V22.3725C35.4938 22.0372 35.6216 21.8776 35.861 21.8776C35.9568 21.8776 36.0526 21.8935 36.1484 21.9255C36.2442 21.9574 36.3879 22.0213 36.5475 22.0851C37.0903 22.3246 37.681 22.5162 38.3036 22.6439C38.9422 22.7716 39.5648 22.8355 40.2034 22.8355C41.2091 22.8355 41.9914 22.6598 42.5342 22.3086C43.077 21.9574 43.3643 21.4465 43.3643 20.792C43.3643 20.345 43.2207 19.9778 42.9333 19.6745C42.6459 19.3712 42.1031 19.0998 41.3209 18.8443L39.006 18.1259C37.8406 17.7587 36.9785 17.216 36.4517 16.4975C35.9249 15.7951 35.6535 15.0129 35.6535 14.1827C35.6535 13.5122 35.7972 12.9215 36.0845 12.4106C36.3719 11.8998 36.755 11.4528 37.234 11.1016C37.7129 10.7344 38.2557 10.463 38.8943 10.2714C39.5329 10.0798 40.2034 10 40.9058 10C41.257 10 41.6242 10.016 41.9754 10.0639C42.3426 10.1118 42.6779 10.1756 43.0131 10.2395C43.3324 10.3193 43.6357 10.3991 43.9231 10.4949C44.2105 10.5907 44.434 10.6865 44.5936 10.7823C44.8171 10.91 44.9768 11.0377 45.0725 11.1814C45.1683 11.3091 45.2162 11.4847 45.2162 11.7082V12.4585C45.2162 12.7938 45.0885 12.9694 44.849 12.9694C44.7213 12.9694 44.5138 12.9055 44.2424 12.7778C43.3324 12.3627 42.3107 12.1552 41.1772 12.1552C40.2672 12.1552 39.5488 12.2989 39.0539 12.6022C38.559 12.9055 38.3036 13.3685 38.3036 14.0231C38.3036 14.4701 38.4632 14.8532 38.7825 15.1565C39.1018 15.4599 39.6925 15.7632 40.5386 16.0346L42.8056 16.753C43.955 17.1202 44.7852 17.631 45.2801 18.2856C45.775 18.9401 46.0144 19.6904 46.0144 20.5206C46.0144 21.2071 45.8708 21.8297 45.5994 22.3725C45.312 22.9153 44.9289 23.3942 44.434 23.7774C43.9391 24.1765 43.3484 24.4638 42.6619 24.6714C41.9435 24.8949 41.1932 25.0066 40.379 25.0066V25.0066Z" fill="#AFAFAF"/>
<path fill-rule="evenodd" clip-rule="evenodd" d="M43.3966 32.7651C38.1443 36.6445 30.5133 38.7039 23.9519 38.7039C14.7563 38.7039 6.47073 35.3035 0.21265 29.6521C-0.28225 29.2051 0.164756 28.5984 0.755443 28.9496C7.52439 32.8769 15.8738 35.2556 24.5106 35.2556C30.3377 35.2556 36.7394 34.0423 42.6303 31.5518C43.5084 31.1527 44.2587 32.1266 43.3966 32.7651V32.7651Z" fill="#CBCBCB"/>
<path fill-rule="evenodd" clip-rule="evenodd" d="M45.5834 30.2745C44.9129 29.4124 41.1453 29.8594 39.4371 30.0669C38.9262 30.1308 38.8464 29.6838 39.3094 29.3485C42.3107 27.2412 47.2437 27.8479 47.8185 28.5503C48.3932 29.2687 47.6588 34.2017 44.8491 36.5645C44.418 36.9317 44.0029 36.7401 44.1945 36.2612C44.8331 34.6807 46.2539 31.1206 45.5834 30.2745V30.2745Z" fill="#CBCBCB"/>
</g>
<defs>
<clipPath id="clip0_203_1221">
<rect width="48" height="48" fill="white"/>
</clipPath>
</defs>
</svg>
