<svg width="107" height="136" viewBox="0 0 107 136" fill="none" xmlns="http://www.w3.org/2000/svg">
<path d="M63.9715 70.7981L54.2323 46.1153L39.9538 68.6126H31.002L50.9434 36.4109L48.7046 30.0467H40.9399V22.4634H54.2316L69.4984 61.2855L76.2105 59.099L78.4473 66.6195L63.9715 70.7981Z" fill="#CBCBCB"/>
<path d="M92.6679 47.9609C92.6679 69.5488 75.1706 87.0441 53.5847 87.0441C31.9988 87.0441 14.501 69.5491 14.501 47.9609C14.501 26.3755 31.9983 8.87793 53.5847 8.87793C75.1704 8.87793 92.6679 26.3755 92.6679 47.9609Z" stroke="#CBCBCB" stroke-width="4.28837"/>
<path d="M7.824 127.52H2.96L2.064 130H0.528L4.56 118.912H6.24L10.256 130H8.72L7.824 127.52ZM7.408 126.336L5.392 120.704L3.376 126.336H7.408ZM26.0293 118.848L22.7973 130H21.1653L18.5733 121.024L15.8853 130L14.2693 130.016L11.1493 118.848H12.7013L15.1333 128.304L17.8213 118.848H19.4533L22.0133 128.272L24.4613 118.848H26.0293ZM31.1586 130.112C30.4226 130.112 29.7613 129.984 29.1746 129.728C28.5986 129.461 28.1453 129.099 27.8146 128.64C27.484 128.171 27.3133 127.632 27.3026 127.024H28.8546C28.908 127.547 29.1213 127.989 29.4946 128.352C29.8786 128.704 30.4333 128.88 31.1586 128.88C31.852 128.88 32.396 128.709 32.7906 128.368C33.196 128.016 33.3986 127.568 33.3986 127.024C33.3986 126.597 33.2813 126.251 33.0466 125.984C32.812 125.717 32.5186 125.515 32.1666 125.376C31.8146 125.237 31.34 125.088 30.7426 124.928C30.0066 124.736 29.4146 124.544 28.9666 124.352C28.5293 124.16 28.1506 123.861 27.8306 123.456C27.5213 123.04 27.3666 122.485 27.3666 121.792C27.3666 121.184 27.5213 120.645 27.8306 120.176C28.14 119.707 28.572 119.344 29.1266 119.088C29.692 118.832 30.3373 118.704 31.0626 118.704C32.108 118.704 32.9613 118.965 33.6226 119.488C34.2946 120.011 34.6733 120.704 34.7586 121.568H33.1586C33.1053 121.141 32.8813 120.768 32.4866 120.448C32.092 120.117 31.5693 119.952 30.9186 119.952C30.3106 119.952 29.8146 120.112 29.4306 120.432C29.0466 120.741 28.8546 121.179 28.8546 121.744C28.8546 122.149 28.9666 122.48 29.1906 122.736C29.4253 122.992 29.708 123.189 30.0386 123.328C30.38 123.456 30.8546 123.605 31.4626 123.776C32.1986 123.979 32.7906 124.181 33.2386 124.384C33.6866 124.576 34.0706 124.88 34.3906 125.296C34.7106 125.701 34.8706 126.256 34.8706 126.96C34.8706 127.504 34.7266 128.016 34.4386 128.496C34.1506 128.976 33.724 129.365 33.1586 129.664C32.5933 129.963 31.9266 130.112 31.1586 130.112ZM42.7349 128.816H46.6389V130H41.2789V118.848H42.7349V128.816ZM47.6411 125.584C47.6411 124.688 47.8225 123.904 48.1851 123.232C48.5478 122.549 49.0438 122.021 49.6731 121.648C50.3131 121.275 51.0225 121.088 51.8011 121.088C52.5691 121.088 53.2358 121.253 53.8011 121.584C54.3665 121.915 54.7878 122.331 55.0651 122.832V121.232H56.5371V130H55.0651V128.368C54.7771 128.88 54.3451 129.307 53.7691 129.648C53.2038 129.979 52.5425 130.144 51.7851 130.144C51.0065 130.144 50.3025 129.952 49.6731 129.568C49.0438 129.184 48.5478 128.645 48.1851 127.952C47.8225 127.259 47.6411 126.469 47.6411 125.584ZM55.0651 125.6C55.0651 124.939 54.9318 124.363 54.6651 123.872C54.3985 123.381 54.0358 123.008 53.5771 122.752C53.1291 122.485 52.6331 122.352 52.0891 122.352C51.5451 122.352 51.0491 122.48 50.6011 122.736C50.1531 122.992 49.7958 123.365 49.5291 123.856C49.2625 124.347 49.1291 124.923 49.1291 125.584C49.1291 126.256 49.2625 126.843 49.5291 127.344C49.7958 127.835 50.1531 128.213 50.6011 128.48C51.0491 128.736 51.5451 128.864 52.0891 128.864C52.6331 128.864 53.1291 128.736 53.5771 128.48C54.0358 128.213 54.3985 127.835 54.6651 127.344C54.9318 126.843 55.0651 126.261 55.0651 125.6ZM69.5416 121.072C70.2243 121.072 70.8323 121.216 71.3656 121.504C71.899 121.781 72.3203 122.203 72.6296 122.768C72.939 123.333 73.0936 124.021 73.0936 124.832V130H71.6536V125.04C71.6536 124.165 71.435 123.499 70.9976 123.04C70.571 122.571 69.9896 122.336 69.2536 122.336C68.4963 122.336 67.8936 122.581 67.4456 123.072C66.9976 123.552 66.7736 124.251 66.7736 125.168V130H65.3336V125.04C65.3336 124.165 65.115 123.499 64.6776 123.04C64.251 122.571 63.6696 122.336 62.9336 122.336C62.1763 122.336 61.5736 122.581 61.1256 123.072C60.6776 123.552 60.4536 124.251 60.4536 125.168V130H58.9976V121.232H60.4536V122.496C60.7416 122.037 61.1256 121.685 61.6056 121.44C62.0963 121.195 62.635 121.072 63.2216 121.072C63.9576 121.072 64.6083 121.237 65.1736 121.568C65.739 121.899 66.1603 122.384 66.4376 123.024C66.683 122.405 67.0883 121.925 67.6536 121.584C68.219 121.243 68.8483 121.072 69.5416 121.072ZM76.938 122.864C77.2367 122.341 77.674 121.915 78.25 121.584C78.826 121.253 79.482 121.088 80.218 121.088C81.0073 121.088 81.7167 121.275 82.346 121.648C82.9753 122.021 83.4713 122.549 83.834 123.232C84.1967 123.904 84.378 124.688 84.378 125.584C84.378 126.469 84.1967 127.259 83.834 127.952C83.4713 128.645 82.97 129.184 82.33 129.568C81.7007 129.952 80.9967 130.144 80.218 130.144C79.4607 130.144 78.794 129.979 78.218 129.648C77.6527 129.317 77.226 128.896 76.938 128.384V130H75.482V118.16H76.938V122.864ZM82.89 125.584C82.89 124.923 82.7567 124.347 82.49 123.856C82.2233 123.365 81.8607 122.992 81.402 122.736C80.954 122.48 80.458 122.352 79.914 122.352C79.3807 122.352 78.8847 122.485 78.426 122.752C77.978 123.008 77.6153 123.387 77.338 123.888C77.0713 124.379 76.938 124.949 76.938 125.6C76.938 126.261 77.0713 126.843 77.338 127.344C77.6153 127.835 77.978 128.213 78.426 128.48C78.8847 128.736 79.3807 128.864 79.914 128.864C80.458 128.864 80.954 128.736 81.402 128.48C81.8607 128.213 82.2233 127.835 82.49 127.344C82.7567 126.843 82.89 126.256 82.89 125.584ZM85.7505 125.584C85.7505 124.688 85.9318 123.904 86.2945 123.232C86.6572 122.549 87.1532 122.021 87.7825 121.648C88.4225 121.275 89.1372 121.088 89.9265 121.088C90.6092 121.088 91.2438 121.248 91.8305 121.568C92.4172 121.877 92.8652 122.288 93.1745 122.8V118.16H94.6465V130H93.1745V128.352C92.8865 128.875 92.4598 129.307 91.8945 129.648C91.3292 129.979 90.6678 130.144 89.9105 130.144C89.1318 130.144 88.4225 129.952 87.7825 129.568C87.1532 129.184 86.6572 128.645 86.2945 127.952C85.9318 127.259 85.7505 126.469 85.7505 125.584ZM93.1745 125.6C93.1745 124.939 93.0412 124.363 92.7745 123.872C92.5078 123.381 92.1452 123.008 91.6865 122.752C91.2385 122.485 90.7425 122.352 90.1985 122.352C89.6545 122.352 89.1585 122.48 88.7105 122.736C88.2625 122.992 87.9052 123.365 87.6385 123.856C87.3718 124.347 87.2385 124.923 87.2385 125.584C87.2385 126.256 87.3718 126.843 87.6385 127.344C87.9052 127.835 88.2625 128.213 88.7105 128.48C89.1585 128.736 89.6545 128.864 90.1985 128.864C90.7425 128.864 91.2385 128.736 91.6865 128.48C92.1452 128.213 92.5078 127.835 92.7745 127.344C93.0412 126.843 93.1745 126.261 93.1745 125.6ZM96.563 125.584C96.563 124.688 96.7443 123.904 97.107 123.232C97.4697 122.549 97.9657 122.021 98.595 121.648C99.235 121.275 99.9443 121.088 100.723 121.088C101.491 121.088 102.158 121.253 102.723 121.584C103.288 121.915 103.71 122.331 103.987 122.832V121.232H105.459V130H103.987V128.368C103.699 128.88 103.267 129.307 102.691 129.648C102.126 129.979 101.464 130.144 100.707 130.144C99.9283 130.144 99.2243 129.952 98.595 129.568C97.9657 129.184 97.4697 128.645 97.107 127.952C96.7443 127.259 96.563 126.469 96.563 125.584ZM103.987 125.6C103.987 124.939 103.854 124.363 103.587 123.872C103.32 123.381 102.958 123.008 102.499 122.752C102.051 122.485 101.555 122.352 101.011 122.352C100.467 122.352 99.971 122.48 99.523 122.736C99.075 122.992 98.7177 123.365 98.451 123.856C98.1843 124.347 98.051 124.923 98.051 125.584C98.051 126.256 98.1843 126.843 98.451 127.344C98.7177 127.835 99.075 128.213 99.523 128.48C99.971 128.736 100.467 128.864 101.011 128.864C101.555 128.864 102.051 128.736 102.499 128.48C102.958 128.213 103.32 127.835 103.587 127.344C103.854 126.843 103.987 126.261 103.987 125.6Z" fill="#AFAFAF"/>
</svg>
