<svg width="96" height="136" viewBox="0 0 96 136" fill="none" xmlns="http://www.w3.org/2000/svg">
<g>
<path d="M27.0534 40.8496C27.0534 42.031 27.1811 42.9889 27.4046 43.6913C27.6601 44.3937 27.9793 45.16 28.4264 45.9902C28.586 46.2456 28.6499 46.5011 28.6499 46.7246C28.6499 47.0439 28.4583 47.3631 28.0432 47.6824L26.0317 49.0234C25.7443 49.215 25.457 49.3108 25.2015 49.3108C24.8822 49.3108 24.5629 49.1512 24.2437 48.8638C23.7967 48.3849 23.4135 47.874 23.0942 47.3631C22.7749 46.8204 22.4556 46.2137 22.1044 45.4793C19.614 48.4168 16.4849 49.8855 12.7173 49.8855C10.0353 49.8855 7.89602 49.1192 6.3315 47.5866C4.76697 46.0541 3.96875 44.0106 3.96875 41.4563C3.96875 38.7423 4.92662 36.5392 6.87429 34.8789C8.82196 33.2186 11.4082 32.3884 14.6969 32.3884C15.7825 32.3884 16.9 32.4842 18.0814 32.6439C19.2627 32.8035 20.476 33.059 21.7532 33.3463V31.0155C21.7532 28.5889 21.2423 26.8967 20.2525 25.9069C19.2308 24.9171 17.5066 24.4381 15.0481 24.4381C13.9306 24.4381 12.7812 24.5658 11.5998 24.8532C10.4184 25.1406 9.26896 25.4918 8.15145 25.9388C7.64058 26.1623 7.25744 26.29 7.03393 26.3539C6.81043 26.4177 6.65079 26.4497 6.52307 26.4497C6.07606 26.4497 5.85256 26.1304 5.85256 25.4599V23.8953C5.85256 23.3845 5.91642 23.0013 6.07606 22.7778C6.23571 22.5543 6.52307 22.3308 6.97007 22.1073C8.08759 21.5326 9.42861 21.0537 10.9931 20.6705C12.5576 20.2554 14.218 20.0639 15.974 20.0639C19.7736 20.0639 22.5514 20.9259 24.3394 22.6501C26.0955 24.3743 26.9896 26.9924 26.9896 30.5046V40.8496H27.0534ZM14.0902 45.7028C15.1439 45.7028 16.2295 45.5113 17.3789 45.1281C18.5284 44.745 19.5501 44.0425 20.4122 43.0847C20.923 42.478 21.3062 41.8075 21.4978 41.0412C21.6893 40.2749 21.8171 39.349 21.8171 38.2634V36.9224C20.8911 36.6989 19.9013 36.5073 18.8796 36.3796C17.8579 36.2519 16.8681 36.188 15.8783 36.188C13.739 36.188 12.1745 36.6031 11.1208 37.4652C10.0672 38.3272 9.55632 39.5405 9.55632 41.137C9.55632 42.6377 9.93947 43.7552 10.7377 44.5215C11.504 45.3197 12.6215 45.7028 14.0902 45.7028ZM39.7292 49.1512C39.1545 49.1512 38.7714 49.0554 38.5159 48.8319C38.2605 48.6403 38.037 48.1933 37.8454 47.5866L30.3421 22.9055C30.1505 22.267 30.0547 21.8519 30.0547 21.6284C30.0547 21.1175 30.3102 20.8302 30.821 20.8302H33.9501C34.5567 20.8302 34.9718 20.9259 35.1953 21.1494C35.4507 21.341 35.6423 21.788 35.8339 22.3947L41.198 43.5317L46.1789 22.3947C46.3385 21.7561 46.5301 21.341 46.7855 21.1494C47.041 20.9579 47.488 20.8302 48.0627 20.8302H50.617C51.2237 20.8302 51.6387 20.9259 51.8942 21.1494C52.1496 21.341 52.3731 21.788 52.5008 22.3947L57.5456 43.7871L63.0693 22.3947C63.2609 21.7561 63.4844 21.341 63.7079 21.1494C63.9633 20.9579 64.3784 20.8302 64.9531 20.8302H67.9225C68.4334 20.8302 68.7207 21.0856 68.7207 21.6284C68.7207 21.788 68.6888 21.9477 68.6569 22.1392C68.6249 22.3308 68.5611 22.5862 68.4334 22.9375L60.7385 47.6186C60.5469 48.2572 60.3234 48.6722 60.068 48.8638C59.8125 49.0554 59.3975 49.1831 58.8547 49.1831H56.1088C55.5021 49.1831 55.0871 49.0873 54.8316 48.8638C54.5762 48.6403 54.3527 48.2252 54.225 47.5866L49.276 26.9924L44.3589 47.5547C44.1993 48.1933 44.0077 48.6084 43.7523 48.8319C43.4968 49.0554 43.0498 49.1512 42.4751 49.1512H39.7292ZM80.758 50.0132C79.0977 50.0132 77.4374 49.8217 75.8409 49.4385C74.2445 49.0554 72.9992 48.6403 72.1691 48.1614C71.6582 47.874 71.307 47.5547 71.1793 47.2674C71.0516 46.98 70.9877 46.6607 70.9877 46.3733V44.745C70.9877 44.0745 71.2431 43.7552 71.7221 43.7552C71.9136 43.7552 72.1052 43.7871 72.2968 43.851C72.4884 43.9148 72.7757 44.0425 73.095 44.1702C74.1806 44.6492 75.362 45.0323 76.6072 45.2878C77.8844 45.5432 79.1296 45.6709 80.4067 45.6709C82.4183 45.6709 83.9828 45.3197 85.0684 44.6172C86.154 43.9148 86.7287 42.8931 86.7287 41.584C86.7287 40.69 86.4413 39.9556 85.8666 39.349C85.2919 38.7423 84.2063 38.1995 82.6418 37.6887L78.0121 36.2519C75.6813 35.5175 73.9571 34.4319 72.9034 32.9951C71.8498 31.5902 71.307 30.0257 71.307 28.3654C71.307 27.0244 71.5943 25.843 72.1691 24.8213C72.7438 23.7995 73.5101 22.9055 74.468 22.2031C75.4258 21.4687 76.5114 20.9259 77.7886 20.5428C79.0657 20.1596 80.4067 20 81.8116 20C82.5141 20 83.2484 20.0319 83.9509 20.1277C84.6852 20.2235 85.3557 20.3512 86.0263 20.4789C86.6648 20.6386 87.2715 20.7982 87.8462 20.9898C88.4209 21.1814 88.8679 21.3729 89.1872 21.5645C89.6342 21.82 89.9535 22.0754 90.1451 22.3627C90.3367 22.6182 90.4324 22.9694 90.4324 23.4164V24.9171C90.4324 25.5876 90.177 25.9388 89.6981 25.9388C89.4427 25.9388 89.0276 25.8111 88.4848 25.5556C86.6648 24.7255 84.6214 24.3104 82.3544 24.3104C80.5345 24.3104 79.0977 24.5978 78.1079 25.2044C77.1181 25.8111 76.6072 26.737 76.6072 28.0461C76.6072 28.9401 76.9265 29.7064 77.5651 30.3131C78.2037 30.9197 79.385 31.5264 81.0773 32.0692L85.6112 33.506C87.9101 34.2403 89.5704 35.2621 90.5602 36.5711C91.55 37.8802 92.0289 39.3809 92.0289 41.0412C92.0289 42.4141 91.7415 43.6594 91.1987 44.745C90.624 45.8305 89.8577 46.7884 88.8679 47.5547C87.8781 48.3529 86.6968 48.9277 85.3238 49.3427C83.887 49.7897 82.3863 50.0132 80.758 50.0132Z" fill="#AFAFAF"/>
<path fill-rule="evenodd" clip-rule="evenodd" d="M86.7932 65.5303C76.2886 73.289 61.0265 77.4079 47.9037 77.4079C29.5126 77.4079 12.9415 70.607 0.4253 59.3041C-0.564499 58.4101 0.329513 57.1968 1.51089 57.8992C15.0488 65.7538 31.7476 70.5112 49.0212 70.5112C60.6753 70.5112 73.4788 68.0846 85.2606 63.1037C87.0167 62.3054 88.5174 64.2531 86.7932 65.5303Z" fill="#CBCBCB"/>
<path fill-rule="evenodd" clip-rule="evenodd" d="M91.1659 60.5494C89.8249 58.8253 82.2896 59.7193 78.8732 60.1344C77.8515 60.2621 77.6918 59.3681 78.6178 58.6976C84.6204 54.4829 94.4865 55.6962 95.6359 57.1011C96.7854 58.5379 95.3166 68.404 89.6971 73.1295C88.835 73.8638 88.0049 73.4807 88.388 72.5228C89.6652 69.3618 92.5069 62.2417 91.1659 60.5494Z" fill="#CBCBCB"/>
</g>
<path d="M37.824 127.52H32.96L32.064 130H30.528L34.56 118.912H36.24L40.256 130H38.72L37.824 127.52ZM37.408 126.336L35.392 120.704L33.376 126.336H37.408ZM56.0293 118.848L52.7973 130H51.1653L48.5733 121.024L45.8853 130L44.2693 130.016L41.1493 118.848H42.7013L45.1333 128.304L47.8213 118.848H49.4533L52.0133 128.272L54.4613 118.848H56.0293ZM61.1586 130.112C60.4226 130.112 59.7613 129.984 59.1746 129.728C58.5986 129.461 58.1453 129.099 57.8146 128.64C57.484 128.171 57.3133 127.632 57.3026 127.024H58.8546C58.908 127.547 59.1213 127.989 59.4946 128.352C59.8786 128.704 60.4333 128.88 61.1586 128.88C61.852 128.88 62.396 128.709 62.7906 128.368C63.196 128.016 63.3986 127.568 63.3986 127.024C63.3986 126.597 63.2813 126.251 63.0466 125.984C62.812 125.717 62.5186 125.515 62.1666 125.376C61.8146 125.237 61.34 125.088 60.7426 124.928C60.0066 124.736 59.4146 124.544 58.9666 124.352C58.5293 124.16 58.1506 123.861 57.8306 123.456C57.5213 123.04 57.3666 122.485 57.3666 121.792C57.3666 121.184 57.5213 120.645 57.8306 120.176C58.14 119.707 58.572 119.344 59.1266 119.088C59.692 118.832 60.3373 118.704 61.0626 118.704C62.108 118.704 62.9613 118.965 63.6226 119.488C64.2946 120.011 64.6733 120.704 64.7586 121.568H63.1586C63.1053 121.141 62.8813 120.768 62.4866 120.448C62.092 120.117 61.5693 119.952 60.9186 119.952C60.3106 119.952 59.8146 120.112 59.4306 120.432C59.0466 120.741 58.8546 121.179 58.8546 121.744C58.8546 122.149 58.9666 122.48 59.1906 122.736C59.4253 122.992 59.708 123.189 60.0386 123.328C60.38 123.456 60.8546 123.605 61.4626 123.776C62.1986 123.979 62.7906 124.181 63.2386 124.384C63.6866 124.576 64.0706 124.88 64.3906 125.296C64.7106 125.701 64.8706 126.256 64.8706 126.96C64.8706 127.504 64.7266 128.016 64.4386 128.496C64.1506 128.976 63.724 129.365 63.1586 129.664C62.5933 129.963 61.9266 130.112 61.1586 130.112Z" fill="#AFAFAF"/>
<defs>
<clipPath id="clip0_204_1365">
<rect width="96" height="96" fill="white"/>
</clipPath>
</defs>
</svg>
