<svg width="96" height="136" viewBox="0 0 96 136" fill="none" xmlns="http://www.w3.org/2000/svg">
<g clip-path="url(#clip0_369_2200)">
<path d="M52.4514 8.00342L24.145 32.9914L0 77.1267H21.7743L52.4514 8.00342ZM56.2158 13.8491L44.1368 48.5105L67.295 78.1365L22.3625 85.9967H96L56.2158 13.8491Z" fill="#CBCBCB"/>
</g>
<path d="M33.324 127.52H28.46L27.564 130H26.028L30.06 118.912H31.74L35.756 130H34.22L33.324 127.52ZM32.908 126.336L30.892 120.704L28.876 126.336H32.908ZM38.6013 128.8H42.9053V130H36.9373V128.8L41.1933 122.416H36.9693V121.232H42.8733V122.416L38.6013 128.8ZM52.5705 121.232V130H51.1145V128.704C50.8372 129.152 50.4478 129.504 49.9465 129.76C49.4558 130.005 48.9118 130.128 48.3145 130.128C47.6318 130.128 47.0185 129.989 46.4745 129.712C45.9305 129.424 45.4985 128.997 45.1785 128.432C44.8692 127.867 44.7145 127.179 44.7145 126.368V121.232H46.1545V126.176C46.1545 127.04 46.3732 127.707 46.8105 128.176C47.2478 128.635 47.8452 128.864 48.6025 128.864C49.3812 128.864 49.9945 128.624 50.4425 128.144C50.8905 127.664 51.1145 126.965 51.1145 126.048V121.232H52.5705ZM56.4849 122.656C56.7409 122.155 57.1035 121.765 57.5729 121.488C58.0529 121.211 58.6342 121.072 59.3169 121.072V122.576H58.9329C57.3009 122.576 56.4849 123.461 56.4849 125.232V130H55.0289V121.232H56.4849V122.656ZM68.9976 125.28C68.9976 125.557 68.9816 125.851 68.9496 126.16H61.9416C61.995 127.024 62.2883 127.701 62.8216 128.192C63.3656 128.672 64.0216 128.912 64.7896 128.912C65.419 128.912 65.9416 128.768 66.3576 128.48C66.7843 128.181 67.083 127.787 67.2536 127.296H68.8216C68.587 128.139 68.1176 128.827 67.4136 129.36C66.7096 129.883 65.835 130.144 64.7896 130.144C63.9576 130.144 63.211 129.957 62.5496 129.584C61.899 129.211 61.387 128.683 61.0136 128C60.6403 127.307 60.4536 126.507 60.4536 125.6C60.4536 124.693 60.635 123.899 60.9976 123.216C61.3603 122.533 61.867 122.011 62.5176 121.648C63.179 121.275 63.9363 121.088 64.7896 121.088C65.6216 121.088 66.3576 121.269 66.9976 121.632C67.6376 121.995 68.1283 122.496 68.4696 123.136C68.8216 123.765 68.9976 124.48 68.9976 125.28ZM67.4936 124.976C67.4936 124.421 67.371 123.947 67.1256 123.552C66.8803 123.147 66.5443 122.843 66.1176 122.64C65.7016 122.427 65.2376 122.32 64.7256 122.32C63.9896 122.32 63.3603 122.555 62.8376 123.024C62.3256 123.493 62.0323 124.144 61.9576 124.976H67.4936Z" fill="#AFAFAF"/>
<defs>
<clipPath id="clip0_369_2200">
<rect width="96" height="96" fill="white"/>
</clipPath>
</defs>
</svg>
