<svg width="96" height="136" viewBox="0 0 96 136" fill="none" xmlns="http://www.w3.org/2000/svg">
<path d="M21.5187 85.2014L2.32102 51.9488C1.58292 50.6704 1.19434 49.2202 1.19434 47.744C1.19434 46.2677 1.58292 44.8175 2.32102 43.5391L21.5187 10.2872C22.2569 9.00862 23.3187 7.94686 24.5974 7.20868C25.876 6.47051 27.3264 6.08194 28.8029 6.08203H67.1983C68.6746 6.08207 70.1249 6.4707 71.4034 7.20887C72.6819 7.94703 73.7435 9.00873 74.4817 10.2872L93.6794 43.5391C94.4176 44.8176 94.8063 46.268 94.8063 47.7443C94.8063 49.2207 94.4176 50.671 93.6794 51.9495L74.4817 85.2014C73.7434 86.4798 72.6817 87.5413 71.4032 88.2794C70.1247 89.0174 68.6745 89.4059 67.1983 89.4059H28.8029C27.3264 89.4061 25.876 89.0175 24.5973 88.2793C23.3187 87.5411 22.2569 86.4793 21.5187 85.2007V85.2014Z" fill="#CBCBCB"/>
<path d="M48.0006 30.7798C38.6321 30.7798 31.0371 38.3748 31.0371 47.744C31.0371 57.1124 38.6321 64.7074 48.0006 64.7074C57.369 64.7074 64.9633 57.1124 64.9633 47.744C64.9633 38.3748 57.3683 30.7798 48.0006 30.7798ZM48.0006 60.6148C40.8919 60.6148 35.129 54.8519 35.129 47.7432C35.129 40.6346 40.8919 34.8724 48.0006 34.8724C55.1092 34.8724 60.8722 40.6353 60.8722 47.744C60.8722 54.8526 55.1092 60.6156 48.0006 60.6156" fill="white"/>
<path d="M39.9482 47.0891V52.3621C40.7284 53.7015 41.8292 54.8261 43.1515 55.6349V47.0891H39.9482ZM46.2999 42.644V56.8401C46.8448 56.9403 47.4021 57.001 47.9747 57.001C48.4969 57.001 49.0059 56.9461 49.5054 56.8628V42.644H46.2999ZM52.9486 49.2802V55.542C54.292 54.6877 55.3951 53.5046 56.1533 52.1047V49.281L52.9486 49.2802ZM60.2071 58.1931L58.4497 59.952C58.3009 60.1011 58.2173 60.3033 58.2173 60.514C58.2173 60.7247 58.3009 60.9269 58.4497 61.076L65.1159 67.74C65.265 67.8889 65.4672 67.9725 65.6779 67.9725C65.8886 67.9725 66.0908 67.8889 66.2399 67.74L67.9974 65.9833C68.1453 65.8338 68.2282 65.632 68.2282 65.4217C68.2282 65.2113 68.1453 65.0095 67.9974 64.86L61.3305 58.1931C61.1811 58.0448 60.9792 57.9616 60.7688 57.9616C60.5583 57.9616 60.3564 58.0448 60.2071 58.1931Z" fill="white"/>
<path d="M18.316 124.256C18.7213 124.32 19.0893 124.485 19.42 124.752C19.7613 125.019 20.028 125.349 20.22 125.744C20.4227 126.139 20.524 126.56 20.524 127.008C20.524 127.573 20.38 128.085 20.092 128.544C19.804 128.992 19.3827 129.349 18.828 129.616C18.284 129.872 17.6387 130 16.892 130H12.732V118.848H16.732C17.4893 118.848 18.1347 118.976 18.668 119.232C19.2013 119.477 19.6013 119.813 19.868 120.24C20.1347 120.667 20.268 121.147 20.268 121.68C20.268 122.341 20.0867 122.891 19.724 123.328C19.372 123.755 18.9027 124.064 18.316 124.256ZM14.188 123.664H16.636C17.3187 123.664 17.8467 123.504 18.22 123.184C18.5933 122.864 18.78 122.421 18.78 121.856C18.78 121.291 18.5933 120.848 18.22 120.528C17.8467 120.208 17.308 120.048 16.604 120.048H14.188V123.664ZM16.764 128.8C17.4893 128.8 18.0547 128.629 18.46 128.288C18.8653 127.947 19.068 127.472 19.068 126.864C19.068 126.245 18.8547 125.76 18.428 125.408C18.0013 125.045 17.4307 124.864 16.716 124.864H14.188V128.8H16.764ZM23.2965 119.808C23.0192 119.808 22.7845 119.712 22.5925 119.52C22.4005 119.328 22.3045 119.093 22.3045 118.816C22.3045 118.539 22.4005 118.304 22.5925 118.112C22.7845 117.92 23.0192 117.824 23.2965 117.824C23.5632 117.824 23.7872 117.92 23.9685 118.112C24.1605 118.304 24.2565 118.539 24.2565 118.816C24.2565 119.093 24.1605 119.328 23.9685 119.52C23.7872 119.712 23.5632 119.808 23.2965 119.808ZM24.0005 121.232V130H22.5445V121.232H24.0005ZM30.098 121.088C30.8553 121.088 31.5167 121.253 32.082 121.584C32.658 121.915 33.0847 122.331 33.362 122.832V121.232H34.834V130.192C34.834 130.992 34.6633 131.701 34.322 132.32C33.9807 132.949 33.49 133.44 32.85 133.792C32.2207 134.144 31.4847 134.32 30.642 134.32C29.49 134.32 28.53 134.048 27.762 133.504C26.994 132.96 26.5407 132.219 26.402 131.28H27.842C28.002 131.813 28.3327 132.24 28.834 132.56C29.3353 132.891 29.938 133.056 30.642 133.056C31.442 133.056 32.0927 132.805 32.594 132.304C33.106 131.803 33.362 131.099 33.362 130.192V128.352C33.074 128.864 32.6473 129.291 32.082 129.632C31.5167 129.973 30.8553 130.144 30.098 130.144C29.3193 130.144 28.61 129.952 27.97 129.568C27.3407 129.184 26.8447 128.645 26.482 127.952C26.1193 127.259 25.938 126.469 25.938 125.584C25.938 124.688 26.1193 123.904 26.482 123.232C26.8447 122.549 27.3407 122.021 27.97 121.648C28.61 121.275 29.3193 121.088 30.098 121.088ZM33.362 125.6C33.362 124.939 33.2287 124.363 32.962 123.872C32.6953 123.381 32.3327 123.008 31.874 122.752C31.426 122.485 30.93 122.352 30.386 122.352C29.842 122.352 29.346 122.48 28.898 122.736C28.45 122.992 28.0927 123.365 27.826 123.856C27.5593 124.347 27.426 124.923 27.426 125.584C27.426 126.256 27.5593 126.843 27.826 127.344C28.0927 127.835 28.45 128.213 28.898 128.48C29.346 128.736 29.842 128.864 30.386 128.864C30.93 128.864 31.426 128.736 31.874 128.48C32.3327 128.213 32.6953 127.835 32.962 127.344C33.2287 126.843 33.362 126.261 33.362 125.6ZM46.2385 132.112L44.0145 129.888C43.4705 130.037 42.9158 130.112 42.3505 130.112C41.3158 130.112 40.3718 129.872 39.5185 129.392C38.6652 128.901 37.9878 128.224 37.4865 127.36C36.9958 126.485 36.7505 125.504 36.7505 124.416C36.7505 123.328 36.9958 122.352 37.4865 121.488C37.9878 120.613 38.6652 119.936 39.5185 119.456C40.3718 118.965 41.3158 118.72 42.3505 118.72C43.3958 118.72 44.3452 118.965 45.1985 119.456C46.0518 119.936 46.7238 120.608 47.2145 121.472C47.7052 122.336 47.9505 123.317 47.9505 124.416C47.9505 125.483 47.7158 126.443 47.2465 127.296C46.7772 128.149 46.1318 128.821 45.3105 129.312L48.1265 132.112H46.2385ZM38.2385 124.416C38.2385 125.301 38.4145 126.08 38.7665 126.752C39.1292 127.424 39.6198 127.941 40.2385 128.304C40.8678 128.667 41.5718 128.848 42.3505 128.848C43.1292 128.848 43.8278 128.667 44.4465 128.304C45.0758 127.941 45.5665 127.424 45.9185 126.752C46.2812 126.08 46.4625 125.301 46.4625 124.416C46.4625 123.52 46.2812 122.741 45.9185 122.08C45.5665 121.408 45.0812 120.891 44.4625 120.528C43.8438 120.165 43.1398 119.984 42.3505 119.984C41.5612 119.984 40.8572 120.165 40.2385 120.528C39.6198 120.891 39.1292 121.408 38.7665 122.08C38.4145 122.741 38.2385 123.52 38.2385 124.416ZM57.6799 121.232V130H56.2239V128.704C55.9465 129.152 55.5572 129.504 55.0559 129.76C54.5652 130.005 54.0212 130.128 53.4239 130.128C52.7412 130.128 52.1279 129.989 51.5839 129.712C51.0399 129.424 50.6079 128.997 50.2879 128.432C49.9785 127.867 49.8239 127.179 49.8239 126.368V121.232H51.2639V126.176C51.2639 127.04 51.4825 127.707 51.9199 128.176C52.3572 128.635 52.9545 128.864 53.7119 128.864C54.4905 128.864 55.1039 128.624 55.5519 128.144C55.9999 127.664 56.2239 126.965 56.2239 126.048V121.232H57.6799ZM68.1383 125.28C68.1383 125.557 68.1223 125.851 68.0903 126.16H61.0823C61.1356 127.024 61.4289 127.701 61.9623 128.192C62.5063 128.672 63.1623 128.912 63.9303 128.912C64.5596 128.912 65.0823 128.768 65.4983 128.48C65.9249 128.181 66.2236 127.787 66.3943 127.296H67.9623C67.7276 128.139 67.2583 128.827 66.5543 129.36C65.8503 129.883 64.9756 130.144 63.9303 130.144C63.0983 130.144 62.3516 129.957 61.6903 129.584C61.0396 129.211 60.5276 128.683 60.1543 128C59.7809 127.307 59.5943 126.507 59.5943 125.6C59.5943 124.693 59.7756 123.899 60.1383 123.216C60.5009 122.533 61.0076 122.011 61.6583 121.648C62.3196 121.275 63.0769 121.088 63.9303 121.088C64.7623 121.088 65.4983 121.269 66.1383 121.632C66.7783 121.995 67.2689 122.496 67.6103 123.136C67.9623 123.765 68.1383 124.48 68.1383 125.28ZM66.6343 124.976C66.6343 124.421 66.5116 123.947 66.2663 123.552C66.0209 123.147 65.6849 122.843 65.2583 122.64C64.8423 122.427 64.3783 122.32 63.8663 122.32C63.1303 122.32 62.5009 122.555 61.9783 123.024C61.4663 123.493 61.1729 124.144 61.0983 124.976H66.6343ZM71.5161 122.656C71.7721 122.155 72.1348 121.765 72.6041 121.488C73.0841 121.211 73.6655 121.072 74.3481 121.072V122.576H73.9641C72.3321 122.576 71.5161 123.461 71.5161 125.232V130H70.0601V121.232H71.5161V122.656ZM83.5809 121.232L78.3009 134.128H76.7969L78.5249 129.904L74.9889 121.232H76.6049L79.3569 128.336L82.0769 121.232H83.5809Z" fill="#AFAFAF"/>
</svg>
