<svg width="48" height="48" viewBox="0 0 48 48" fill="none" xmlns="http://www.w3.org/2000/svg">
<path d="M10.7589 42.6007L1.16002 25.9744C0.79097 25.3352 0.59668 24.6101 0.59668 23.872C0.59668 23.1339 0.79097 22.4088 1.16002 21.7696L10.7589 5.14362C11.128 4.50431 11.6589 3.97343 12.2982 3.60434C12.9375 3.23526 13.6627 3.04097 14.4009 3.04102H33.5986C34.3368 3.04103 35.0619 3.23535 35.7012 3.60443C36.3404 3.97352 36.8713 4.50436 37.2404 5.14362L46.8392 21.7696C47.2083 22.4088 47.4027 23.134 47.4027 23.8722C47.4027 24.6103 47.2083 25.3355 46.8392 25.9748L37.2404 42.6007C36.8712 43.2399 36.3404 43.7707 35.7011 44.1397C35.0619 44.5087 34.3368 44.703 33.5986 44.7029H14.4009C13.6627 44.703 12.9375 44.5088 12.2982 44.1397C11.6588 43.7706 11.1279 43.2397 10.7589 42.6003V42.6007Z" fill="#CBCBCB"/>
<path d="M24.0003 15.3901C19.316 15.3901 15.5186 19.1876 15.5186 23.8722C15.5186 28.5565 19.316 32.354 24.0003 32.354C28.6845 32.354 32.4816 28.5565 32.4816 23.8722C32.4816 19.1876 28.6842 15.3901 24.0003 15.3901ZM24.0003 30.3077C20.446 30.3077 17.5645 27.4262 17.5645 23.8719C17.5645 20.3175 20.446 17.4364 24.0003 17.4364C27.5546 17.4364 30.4361 20.3179 30.4361 23.8722C30.4361 27.4265 27.5546 30.308 24.0003 30.308" fill="white"/>
<path d="M19.9736 23.5443V26.1808C20.3637 26.8505 20.9141 27.4128 21.5753 27.8172V23.5443H19.9736ZM23.1495 21.3218V28.4198C23.4219 28.4699 23.7005 28.5003 23.9869 28.5003C24.248 28.5003 24.5025 28.4728 24.7522 28.4311V21.3218H23.1495ZM26.4738 24.6399V27.7707C27.1455 27.3436 27.697 26.752 28.0762 26.0521V24.6402L26.4738 24.6399ZM30.1031 29.0963L29.2244 29.9757C29.1499 30.0503 29.1081 30.1514 29.1081 30.2568C29.1081 30.3621 29.1499 30.4632 29.2244 30.5378L32.5574 33.8698C32.632 33.9442 32.7331 33.986 32.8385 33.986C32.9438 33.986 33.0449 33.9442 33.1195 33.8698L33.9982 32.9914C34.0721 32.9167 34.1136 32.8157 34.1136 32.7106C34.1136 32.6054 34.0721 32.5045 33.9982 32.4297L30.6647 29.0963C30.5901 29.0222 30.4891 28.9806 30.3839 28.9806C30.2787 28.9806 30.1777 29.0222 30.1031 29.0963Z" fill="white"/>
</svg>
