<svg width="96" height="136" viewBox="0 0 96 136" fill="none" xmlns="http://www.w3.org/2000/svg">
<path d="M3.45155 4.57105C3.00598 4.56533 2.56455 4.65652 2.15826 4.83821C1.75197 5.0199 1.39068 5.28769 1.09976 5.62276C0.808831 5.95784 0.595328 6.35208 0.474241 6.7778C0.353154 7.20352 0.32742 7.6504 0.398846 8.08704L13.3581 86.1855C13.5195 87.1412 14.015 88.0099 14.7576 88.639C15.5001 89.2681 16.4422 89.6173 17.4183 89.6253H79.5889C80.3206 89.6346 81.0313 89.3826 81.5915 88.9154C82.1517 88.4481 82.5243 87.7966 82.6413 87.0796L95.6009 8.10219C95.6722 7.66557 95.6464 7.21874 95.5252 6.79309C95.4041 6.36743 95.1905 5.97327 94.8996 5.63827C94.6086 5.30327 94.2473 5.03556 93.841 4.85394C93.4348 4.67232 92.9934 4.58119 92.5478 4.58694L3.45155 4.57105ZM58.0205 61.016H38.1772L32.8043 33.1497H62.8289L58.0205 61.016Z" fill="#E2E2E2"/>
<path d="M91.4012 33.1104H62.7739L57.9693 60.9545H38.142L14.7305 88.5411C15.4725 89.178 16.4185 89.5321 17.3994 89.5402H79.5358C80.2669 89.5495 80.9771 89.2979 81.537 88.831C82.0969 88.3642 82.4693 87.7132 82.5863 86.9967L91.4012 33.1104Z" fill="#CBCBCB"/>
<path d="M17.316 124.256C17.7213 124.32 18.0893 124.485 18.42 124.752C18.7613 125.019 19.028 125.349 19.22 125.744C19.4227 126.139 19.524 126.56 19.524 127.008C19.524 127.573 19.38 128.085 19.092 128.544C18.804 128.992 18.3827 129.349 17.828 129.616C17.284 129.872 16.6387 130 15.892 130H11.732V118.848H15.732C16.4893 118.848 17.1347 118.976 17.668 119.232C18.2013 119.477 18.6013 119.813 18.868 120.24C19.1347 120.667 19.268 121.147 19.268 121.68C19.268 122.341 19.0867 122.891 18.724 123.328C18.372 123.755 17.9027 124.064 17.316 124.256ZM13.188 123.664H15.636C16.3187 123.664 16.8467 123.504 17.22 123.184C17.5933 122.864 17.78 122.421 17.78 121.856C17.78 121.291 17.5933 120.848 17.22 120.528C16.8467 120.208 16.308 120.048 15.604 120.048H13.188V123.664ZM15.764 128.8C16.4893 128.8 17.0547 128.629 17.46 128.288C17.8653 127.947 18.068 127.472 18.068 126.864C18.068 126.245 17.8547 125.76 17.428 125.408C17.0013 125.045 16.4307 124.864 15.716 124.864H13.188V128.8H15.764ZM22.2965 119.808C22.0192 119.808 21.7845 119.712 21.5925 119.52C21.4005 119.328 21.3045 119.093 21.3045 118.816C21.3045 118.539 21.4005 118.304 21.5925 118.112C21.7845 117.92 22.0192 117.824 22.2965 117.824C22.5632 117.824 22.7872 117.92 22.9685 118.112C23.1605 118.304 23.2565 118.539 23.2565 118.816C23.2565 119.093 23.1605 119.328 22.9685 119.52C22.7872 119.712 22.5632 119.808 22.2965 119.808ZM23.0005 121.232V130H21.5445V121.232H23.0005ZM27.258 122.432V127.6C27.258 128.027 27.3487 128.331 27.53 128.512C27.7113 128.683 28.026 128.768 28.474 128.768H29.546V130H28.234C27.4233 130 26.8153 129.813 26.41 129.44C26.0047 129.067 25.802 128.453 25.802 127.6V122.432H24.666V121.232H25.802V119.024H27.258V121.232H29.546V122.432H27.258ZM32.7661 122.864C33.0648 122.341 33.5021 121.915 34.0781 121.584C34.6541 121.253 35.3101 121.088 36.0461 121.088C36.8355 121.088 37.5448 121.275 38.1741 121.648C38.8035 122.021 39.2995 122.549 39.6621 123.232C40.0248 123.904 40.2061 124.688 40.2061 125.584C40.2061 126.469 40.0248 127.259 39.6621 127.952C39.2995 128.645 38.7981 129.184 38.1581 129.568C37.5288 129.952 36.8248 130.144 36.0461 130.144C35.2888 130.144 34.6221 129.979 34.0461 129.648C33.4808 129.317 33.0541 128.896 32.7661 128.384V130H31.3101V118.16H32.7661V122.864ZM38.7181 125.584C38.7181 124.923 38.5848 124.347 38.3181 123.856C38.0515 123.365 37.6888 122.992 37.2301 122.736C36.7821 122.48 36.2861 122.352 35.7421 122.352C35.2088 122.352 34.7128 122.485 34.2541 122.752C33.8061 123.008 33.4435 123.387 33.1661 123.888C32.8995 124.379 32.7661 124.949 32.7661 125.6C32.7661 126.261 32.8995 126.843 33.1661 127.344C33.4435 127.835 33.8061 128.213 34.2541 128.48C34.7128 128.736 35.2088 128.864 35.7421 128.864C36.2861 128.864 36.7821 128.736 37.2301 128.48C37.6888 128.213 38.0515 127.835 38.3181 127.344C38.5848 126.843 38.7181 126.256 38.7181 125.584ZM49.8986 121.232V130H48.4426V128.704C48.1653 129.152 47.776 129.504 47.2746 129.76C46.784 130.005 46.24 130.128 45.6426 130.128C44.96 130.128 44.3466 129.989 43.8026 129.712C43.2586 129.424 42.8266 128.997 42.5066 128.432C42.1973 127.867 42.0426 127.179 42.0426 126.368V121.232H43.4826V126.176C43.4826 127.04 43.7013 127.707 44.1386 128.176C44.576 128.635 45.1733 128.864 45.9306 128.864C46.7093 128.864 47.3226 128.624 47.7706 128.144C48.2186 127.664 48.4426 126.965 48.4426 126.048V121.232H49.8986ZM51.813 125.6C51.813 124.693 51.9943 123.904 52.357 123.232C52.7197 122.549 53.221 122.021 53.861 121.648C54.5117 121.275 55.253 121.088 56.085 121.088C57.1623 121.088 58.0477 121.349 58.741 121.872C59.445 122.395 59.909 123.12 60.133 124.048H58.565C58.4157 123.515 58.1223 123.093 57.685 122.784C57.2583 122.475 56.725 122.32 56.085 122.32C55.253 122.32 54.581 122.608 54.069 123.184C53.557 123.749 53.301 124.555 53.301 125.6C53.301 126.656 53.557 127.472 54.069 128.048C54.581 128.624 55.253 128.912 56.085 128.912C56.725 128.912 57.2583 128.763 57.685 128.464C58.1117 128.165 58.405 127.739 58.565 127.184H60.133C59.8983 128.08 59.429 128.8 58.725 129.344C58.021 129.877 57.141 130.144 56.085 130.144C55.253 130.144 54.5117 129.957 53.861 129.584C53.221 129.211 52.7197 128.683 52.357 128C51.9943 127.317 51.813 126.517 51.813 125.6ZM66.9718 130L63.5318 126.128V130H62.0758V118.16H63.5318V125.12L66.9078 121.232H68.9398L64.8118 125.6L68.9558 130H66.9718ZM78.3101 125.28C78.3101 125.557 78.2941 125.851 78.2621 126.16H71.2541C71.3075 127.024 71.6008 127.701 72.1341 128.192C72.6781 128.672 73.3341 128.912 74.1021 128.912C74.7315 128.912 75.2541 128.768 75.6701 128.48C76.0968 128.181 76.3955 127.787 76.5661 127.296H78.1341C77.8995 128.139 77.4301 128.827 76.7261 129.36C76.0221 129.883 75.1475 130.144 74.1021 130.144C73.2701 130.144 72.5235 129.957 71.8621 129.584C71.2115 129.211 70.6995 128.683 70.3261 128C69.9528 127.307 69.7661 126.507 69.7661 125.6C69.7661 124.693 69.9475 123.899 70.3101 123.216C70.6728 122.533 71.1795 122.011 71.8301 121.648C72.4915 121.275 73.2488 121.088 74.1021 121.088C74.9341 121.088 75.6701 121.269 76.3101 121.632C76.9501 121.995 77.4408 122.496 77.7821 123.136C78.1341 123.765 78.3101 124.48 78.3101 125.28ZM76.8061 124.976C76.8061 124.421 76.6835 123.947 76.4381 123.552C76.1928 123.147 75.8568 122.843 75.4301 122.64C75.0141 122.427 74.5501 122.32 74.0381 122.32C73.3021 122.32 72.6728 122.555 72.1501 123.024C71.6381 123.493 71.3448 124.144 71.2701 124.976H76.8061ZM82.008 122.432V127.6C82.008 128.027 82.0987 128.331 82.28 128.512C82.4613 128.683 82.776 128.768 83.224 128.768H84.296V130H82.984C82.1733 130 81.5653 129.813 81.16 129.44C80.7547 129.067 80.552 128.453 80.552 127.6V122.432H79.416V121.232H80.552V119.024H82.008V121.232H84.296V122.432H82.008Z" fill="#AFAFAF"/>
</svg>
