<svg width="96" height="136" viewBox="0 0 96 136" fill="none" xmlns="http://www.w3.org/2000/svg">
<path d="M85.9551 40.419C85.9551 38.1369 83.9791 36.3438 81.8384 36.3438H4.11662C1.64665 36.3438 0 38.2999 0 40.419C0 42.7012 1.97598 44.4943 4.11662 44.4943H81.6738C83.9791 44.4943 85.9551 42.7012 85.9551 40.419Z" fill="#CBCBCB"/>
<path d="M94.8474 26.0753C94.8474 23.7931 92.8714 22 90.7307 22H42.9779C40.6726 22 38.8613 23.9561 38.8613 26.0753C38.8613 28.3574 40.8373 30.1505 42.9779 30.1505H90.7307C93.036 29.9875 94.8474 28.3574 94.8474 26.0753Z" fill="#CBCBCB"/>
<path d="M78.5469 69.9249C78.5469 67.6427 76.5709 65.8496 74.4303 65.8496H54.9998C52.6945 66.0126 51.0479 67.8057 51.0479 69.9249C51.0479 72.207 53.0238 74.0002 55.1645 74.0002H74.5949C76.5709 74.0002 78.5469 72.207 78.5469 69.9249Z" fill="#CBCBCB"/>
<path d="M72.7821 54.9278C72.7821 52.6457 70.8061 50.8525 68.6655 50.8525H21.4067C19.1014 50.8525 17.29 52.8087 17.29 54.9278C17.29 57.21 19.266 59.0031 21.4067 59.0031H68.8301C70.8061 59.0031 72.7821 57.0469 72.7821 54.9278Z" fill="#CBCBCB"/>
<path d="M10.816 124.256C11.2213 124.32 11.5893 124.485 11.92 124.752C12.2613 125.019 12.528 125.349 12.72 125.744C12.9227 126.139 13.024 126.56 13.024 127.008C13.024 127.573 12.88 128.085 12.592 128.544C12.304 128.992 11.8827 129.349 11.328 129.616C10.784 129.872 10.1387 130 9.392 130H5.232V118.848H9.232C9.98933 118.848 10.6347 118.976 11.168 119.232C11.7013 119.477 12.1013 119.813 12.368 120.24C12.6347 120.667 12.768 121.147 12.768 121.68C12.768 122.341 12.5867 122.891 12.224 123.328C11.872 123.755 11.4027 124.064 10.816 124.256ZM6.688 123.664H9.136C9.81867 123.664 10.3467 123.504 10.72 123.184C11.0933 122.864 11.28 122.421 11.28 121.856C11.28 121.291 11.0933 120.848 10.72 120.528C10.3467 120.208 9.808 120.048 9.104 120.048H6.688V123.664ZM9.264 128.8C9.98933 128.8 10.5547 128.629 10.96 128.288C11.3653 127.947 11.568 127.472 11.568 126.864C11.568 126.245 11.3547 125.76 10.928 125.408C10.5013 125.045 9.93067 124.864 9.216 124.864H6.688V128.8H9.264ZM16.5005 118.16V130H15.0445V118.16H16.5005ZM18.438 125.584C18.438 124.688 18.6193 123.904 18.982 123.232C19.3447 122.549 19.8407 122.021 20.47 121.648C21.11 121.275 21.8193 121.088 22.598 121.088C23.366 121.088 24.0327 121.253 24.598 121.584C25.1633 121.915 25.5847 122.331 25.862 122.832V121.232H27.334V130H25.862V128.368C25.574 128.88 25.142 129.307 24.566 129.648C24.0007 129.979 23.3393 130.144 22.582 130.144C21.8033 130.144 21.0993 129.952 20.47 129.568C19.8407 129.184 19.3447 128.645 18.982 127.952C18.6193 127.259 18.438 126.469 18.438 125.584ZM25.862 125.6C25.862 124.939 25.7287 124.363 25.462 123.872C25.1953 123.381 24.8327 123.008 24.374 122.752C23.926 122.485 23.43 122.352 22.886 122.352C22.342 122.352 21.846 122.48 21.398 122.736C20.95 122.992 20.5927 123.365 20.326 123.856C20.0593 124.347 19.926 124.923 19.926 125.584C19.926 126.256 20.0593 126.843 20.326 127.344C20.5927 127.835 20.95 128.213 21.398 128.48C21.846 128.736 22.342 128.864 22.886 128.864C23.43 128.864 23.926 128.736 24.374 128.48C24.8327 128.213 25.1953 127.835 25.462 127.344C25.7287 126.843 25.862 126.261 25.862 125.6ZM30.8825 128.8H35.1865V130H29.2185V128.8L33.4745 122.416H29.2505V121.232H35.1545V122.416L30.8825 128.8ZM45.0758 125.28C45.0758 125.557 45.0598 125.851 45.0278 126.16H38.0198C38.0731 127.024 38.3664 127.701 38.8998 128.192C39.4438 128.672 40.0998 128.912 40.8678 128.912C41.4971 128.912 42.0198 128.768 42.4358 128.48C42.8624 128.181 43.1611 127.787 43.3318 127.296H44.8998C44.6651 128.139 44.1958 128.827 43.4918 129.36C42.7878 129.883 41.9131 130.144 40.8678 130.144C40.0358 130.144 39.2891 129.957 38.6278 129.584C37.9771 129.211 37.4651 128.683 37.0918 128C36.7184 127.307 36.5318 126.507 36.5318 125.6C36.5318 124.693 36.7131 123.899 37.0758 123.216C37.4384 122.533 37.9451 122.011 38.5958 121.648C39.2571 121.275 40.0144 121.088 40.8678 121.088C41.6998 121.088 42.4358 121.269 43.0758 121.632C43.7158 121.995 44.2064 122.496 44.5478 123.136C44.8998 123.765 45.0758 124.48 45.0758 125.28ZM43.5718 124.976C43.5718 124.421 43.4491 123.947 43.2038 123.552C42.9584 123.147 42.6224 122.843 42.1958 122.64C41.7798 122.427 41.3158 122.32 40.8038 122.32C40.0678 122.32 39.4384 122.555 38.9158 123.024C38.4038 123.493 38.1104 124.144 38.0358 124.976H43.5718ZM58.3096 118.928V130H56.8536V121.744L53.1736 130H52.1496L48.4536 121.728V130H46.9976V118.928H48.5656L52.6616 128.08L56.7576 118.928H58.3096ZM68.7789 125.28C68.7789 125.557 68.7629 125.851 68.7309 126.16H61.7229C61.7762 127.024 62.0695 127.701 62.6029 128.192C63.1469 128.672 63.8029 128.912 64.5709 128.912C65.2002 128.912 65.7229 128.768 66.1389 128.48C66.5655 128.181 66.8642 127.787 67.0349 127.296H68.6029C68.3682 128.139 67.8989 128.827 67.1949 129.36C66.4909 129.883 65.6162 130.144 64.5709 130.144C63.7389 130.144 62.9922 129.957 62.3309 129.584C61.6802 129.211 61.1682 128.683 60.7949 128C60.4215 127.307 60.2349 126.507 60.2349 125.6C60.2349 124.693 60.4162 123.899 60.7789 123.216C61.1415 122.533 61.6482 122.011 62.2989 121.648C62.9602 121.275 63.7175 121.088 64.5709 121.088C65.4029 121.088 66.1389 121.269 66.7789 121.632C67.4189 121.995 67.9095 122.496 68.2509 123.136C68.6029 123.765 68.7789 124.48 68.7789 125.28ZM67.2749 124.976C67.2749 124.421 67.1522 123.947 66.9069 123.552C66.6615 123.147 66.3255 122.843 65.8989 122.64C65.4829 122.427 65.0189 122.32 64.5069 122.32C63.7709 122.32 63.1415 122.555 62.6189 123.024C62.1069 123.493 61.8135 124.144 61.7389 124.976H67.2749ZM72.4768 122.432V127.6C72.4768 128.027 72.5674 128.331 72.7488 128.512C72.9301 128.683 73.2448 128.768 73.6927 128.768H74.7648V130H73.4528C72.6421 130 72.0341 129.813 71.6288 129.44C71.2234 129.067 71.0208 128.453 71.0208 127.6V122.432H69.8848V121.232H71.0208V119.024H72.4768V121.232H74.7648V122.432H72.4768ZM84.5289 125.28C84.5289 125.557 84.5129 125.851 84.4809 126.16H77.4729C77.5262 127.024 77.8195 127.701 78.3529 128.192C78.8969 128.672 79.5529 128.912 80.3209 128.912C80.9502 128.912 81.4729 128.768 81.8889 128.48C82.3155 128.181 82.6142 127.787 82.7849 127.296H84.3529C84.1182 128.139 83.6489 128.827 82.9449 129.36C82.2409 129.883 81.3662 130.144 80.3209 130.144C79.4889 130.144 78.7422 129.957 78.0809 129.584C77.4302 129.211 76.9182 128.683 76.5449 128C76.1715 127.307 75.9849 126.507 75.9849 125.6C75.9849 124.693 76.1662 123.899 76.5289 123.216C76.8915 122.533 77.3982 122.011 78.0489 121.648C78.7102 121.275 79.4675 121.088 80.3209 121.088C81.1529 121.088 81.8889 121.269 82.5289 121.632C83.1689 121.995 83.6595 122.496 84.0009 123.136C84.3529 123.765 84.5289 124.48 84.5289 125.28ZM83.0249 124.976C83.0249 124.421 82.9022 123.947 82.6569 123.552C82.4115 123.147 82.0755 122.843 81.6489 122.64C81.2329 122.427 80.7689 122.32 80.2569 122.32C79.5209 122.32 78.8915 122.555 78.3689 123.024C77.8569 123.493 77.5635 124.144 77.4889 124.976H83.0249ZM87.9068 122.656C88.1628 122.155 88.5254 121.765 88.9948 121.488C89.4748 121.211 90.0561 121.072 90.7388 121.072V122.576H90.3548C88.7228 122.576 87.9068 123.461 87.9068 125.232V130H86.4508V121.232H87.9068V122.656Z" fill="#AFAFAF"/>
</svg>
