<svg width="48" height="48" viewBox="0 0 48 48" fill="none" xmlns="http://www.w3.org/2000/svg">
<path d="M42.9775 20.2095C42.9775 19.0684 41.9895 18.1719 40.9192 18.1719H2.05831C0.823324 18.1719 0 19.1499 0 20.2095C0 21.3506 0.987989 22.2471 2.05831 22.2471H40.8369C41.9895 22.2471 42.9775 21.3506 42.9775 20.2095Z" fill="#CBCBCB"/>
<path d="M47.4237 13.0376C47.4237 11.8966 46.4357 11 45.3654 11H21.489C20.3363 11 19.4307 11.9781 19.4307 13.0376C19.4307 14.1787 20.4187 15.0753 21.489 15.0753H45.3654C46.518 14.9938 47.4237 14.1787 47.4237 13.0376Z" fill="#CBCBCB"/>
<path d="M39.273 34.9624C39.273 33.8214 38.285 32.9248 37.2146 32.9248H27.4994C26.3468 33.0063 25.5234 33.9029 25.5234 34.9624C25.5234 36.1035 26.5114 37.0001 27.5817 37.0001H37.297C38.285 37.0001 39.273 36.1035 39.273 34.9624V34.9624Z" fill="#CBCBCB"/>
<path d="M36.3915 27.4639C36.3915 26.3228 35.4035 25.4263 34.3332 25.4263H10.7038C9.55116 25.4263 8.64551 26.4043 8.64551 27.4639C8.64551 28.605 9.6335 29.5015 10.7038 29.5015H34.4156C35.4035 29.5015 36.3915 28.5235 36.3915 27.4639V27.4639Z" fill="#CBCBCB"/>
</svg>
