<svg width="96" height="136" viewBox="0 0 96 136" fill="none" xmlns="http://www.w3.org/2000/svg">
<g clip-path="url(#clip0_382_1709)">
<path d="M78.3473 42.2449L62.5791 51.3424L62.6065 51.3974L78.5408 69.7001L94.2816 60.5474L78.376 42.2449H78.3473Z" fill="#E2E2E2"/>
<path d="M78.5399 69.699L62.8539 78.8228L47.002 60.3242L62.5782 51.3413L62.6056 51.3963L78.5399 69.699Z" fill="#CBCBCB"/>
<path d="M78.3762 42.2438H78.3475L62.5793 51.3413L46.9482 33.2034L62.4697 23.97H62.4971L78.3762 42.2438Z" fill="#CBCBCB"/>
<path d="M47.0582 88.0004L62.8539 78.8241L47.002 60.3254L47.0582 88.0004Z" fill="#E2E2E2"/>
<path d="M46.9473 33.2036L62.5784 51.3415L47.0021 60.3243L46.9199 33.2036H46.9473Z" fill="#AFAFAF"/>
<path d="M46.9199 33.2042H46.9473L62.4687 23.9707H62.4961L46.8652 6L46.9199 33.2042Z" fill="#E2E2E2"/>
<path d="M15.3828 69.5056L47.0576 87.9994L47.0013 60.3244L31.1785 51.3129L15.5748 42.4375L15.3828 69.5056Z" fill="#CBCBCB"/>
<path d="M46.9214 33.2048L47.0036 60.3256L31.1808 51.314L31.126 24.3579L46.9214 33.2048Z" fill="#AFAFAF"/>
<path d="M46.8668 6L31.126 24.331V24.3573L46.9214 33.2042L46.8668 6Z" fill="#CBCBCB"/>
<path d="M31.1788 51.3137L15.5752 42.4383L31.124 24.3313V24.3576L31.1788 51.3137Z" fill="#E2E2E2"/>
<path d="M0 60.5466L15.3842 69.5056L15.5762 42.4375L0 60.5466Z" fill="#AFAFAF"/>
</g>
<path d="M15.816 124.256C16.2213 124.32 16.5893 124.485 16.92 124.752C17.2613 125.019 17.528 125.349 17.72 125.744C17.9227 126.139 18.024 126.56 18.024 127.008C18.024 127.573 17.88 128.085 17.592 128.544C17.304 128.992 16.8827 129.349 16.328 129.616C15.784 129.872 15.1387 130 14.392 130H10.232V118.848H14.232C14.9893 118.848 15.6347 118.976 16.168 119.232C16.7013 119.477 17.1013 119.813 17.368 120.24C17.6347 120.667 17.768 121.147 17.768 121.68C17.768 122.341 17.5867 122.891 17.224 123.328C16.872 123.755 16.4027 124.064 15.816 124.256ZM11.688 123.664H14.136C14.8187 123.664 15.3467 123.504 15.72 123.184C16.0933 122.864 16.28 122.421 16.28 121.856C16.28 121.291 16.0933 120.848 15.72 120.528C15.3467 120.208 14.808 120.048 14.104 120.048H11.688V123.664ZM14.264 128.8C14.9893 128.8 15.5547 128.629 15.96 128.288C16.3653 127.947 16.568 127.472 16.568 126.864C16.568 126.245 16.3547 125.76 15.928 125.408C15.5013 125.045 14.9307 124.864 14.216 124.864H11.688V128.8H14.264ZM21.5005 118.16V130H20.0445V118.16H21.5005ZM31.758 121.232V130H30.302V128.704C30.0247 129.152 29.6353 129.504 29.134 129.76C28.6433 130.005 28.0993 130.128 27.502 130.128C26.8193 130.128 26.206 129.989 25.662 129.712C25.118 129.424 24.686 128.997 24.366 128.432C24.0567 127.867 23.902 127.179 23.902 126.368V121.232H25.342V126.176C25.342 127.04 25.5607 127.707 25.998 128.176C26.4353 128.635 27.0327 128.864 27.79 128.864C28.5687 128.864 29.182 128.624 29.63 128.144C30.078 127.664 30.302 126.965 30.302 126.048V121.232H31.758ZM42.2164 125.28C42.2164 125.557 42.2004 125.851 42.1684 126.16H35.1604C35.2137 127.024 35.507 127.701 36.0404 128.192C36.5844 128.672 37.2404 128.912 38.0084 128.912C38.6377 128.912 39.1604 128.768 39.5764 128.48C40.003 128.181 40.3017 127.787 40.4724 127.296H42.0404C41.8057 128.139 41.3364 128.827 40.6324 129.36C39.9284 129.883 39.0537 130.144 38.0084 130.144C37.1764 130.144 36.4297 129.957 35.7684 129.584C35.1177 129.211 34.6057 128.683 34.2324 128C33.859 127.307 33.6724 126.507 33.6724 125.6C33.6724 124.693 33.8537 123.899 34.2164 123.216C34.579 122.533 35.0857 122.011 35.7364 121.648C36.3977 121.275 37.155 121.088 38.0084 121.088C38.8404 121.088 39.5764 121.269 40.2164 121.632C40.8564 121.995 41.347 122.496 41.6884 123.136C42.0404 123.765 42.2164 124.48 42.2164 125.28ZM40.7124 124.976C40.7124 124.421 40.5897 123.947 40.3444 123.552C40.099 123.147 39.763 122.843 39.3364 122.64C38.9204 122.427 38.4564 122.32 37.9444 122.32C37.2084 122.32 36.579 122.555 36.0564 123.024C35.5444 123.493 35.251 124.144 35.1764 124.976H40.7124ZM51.5943 122.112C51.5943 123.04 51.2743 123.813 50.6343 124.432C50.0049 125.04 49.0396 125.344 47.7383 125.344H45.5943V130H44.1383V118.848H47.7383C48.9969 118.848 49.9516 119.152 50.6023 119.76C51.2636 120.368 51.5943 121.152 51.5943 122.112ZM47.7383 124.144C48.5489 124.144 49.1463 123.968 49.5303 123.616C49.9143 123.264 50.1063 122.763 50.1063 122.112C50.1063 120.736 49.3169 120.048 47.7383 120.048H45.5943V124.144H47.7383ZM54.8599 122.656C55.1159 122.155 55.4785 121.765 55.9479 121.488C56.4279 121.211 57.0092 121.072 57.6919 121.072V122.576H57.3079C55.6759 122.576 54.8599 123.461 54.8599 125.232V130H53.4039V121.232H54.8599V122.656ZM60.1246 119.808C59.8473 119.808 59.6126 119.712 59.4206 119.52C59.2286 119.328 59.1326 119.093 59.1326 118.816C59.1326 118.539 59.2286 118.304 59.4206 118.112C59.6126 117.92 59.8473 117.824 60.1246 117.824C60.3913 117.824 60.6153 117.92 60.7966 118.112C60.9886 118.304 61.0846 118.539 61.0846 118.816C61.0846 119.093 60.9886 119.328 60.7966 119.52C60.6153 119.712 60.3913 119.808 60.1246 119.808ZM60.8286 121.232V130H59.3726V121.232H60.8286ZM66.4141 130.144C65.7421 130.144 65.1395 130.032 64.6061 129.808C64.0728 129.573 63.6515 129.253 63.3421 128.848C63.0328 128.432 62.8621 127.957 62.8301 127.424H64.3341C64.3768 127.861 64.5795 128.219 64.9421 128.496C65.3155 128.773 65.8008 128.912 66.3981 128.912C66.9528 128.912 67.3901 128.789 67.7101 128.544C68.0301 128.299 68.1901 127.989 68.1901 127.616C68.1901 127.232 68.0195 126.949 67.6781 126.768C67.3368 126.576 66.8088 126.389 66.0941 126.208C65.4435 126.037 64.9101 125.867 64.4941 125.696C64.0888 125.515 63.7368 125.253 63.4381 124.912C63.1501 124.56 63.0061 124.101 63.0061 123.536C63.0061 123.088 63.1395 122.677 63.4061 122.304C63.6728 121.931 64.0515 121.637 64.5421 121.424C65.0328 121.2 65.5928 121.088 66.2221 121.088C67.1928 121.088 67.9768 121.333 68.5741 121.824C69.1715 122.315 69.4915 122.987 69.5341 123.84H68.0781C68.0461 123.381 67.8595 123.013 67.5181 122.736C67.1875 122.459 66.7395 122.32 66.1741 122.32C65.6515 122.32 65.2355 122.432 64.9261 122.656C64.6168 122.88 64.4621 123.173 64.4621 123.536C64.4621 123.824 64.5528 124.064 64.7341 124.256C64.9261 124.437 65.1608 124.587 65.4381 124.704C65.7261 124.811 66.1208 124.933 66.6221 125.072C67.2515 125.243 67.7635 125.413 68.1581 125.584C68.5528 125.744 68.8888 125.989 69.1661 126.32C69.4541 126.651 69.6035 127.083 69.6141 127.616C69.6141 128.096 69.4808 128.528 69.2141 128.912C68.9475 129.296 68.5688 129.6 68.0781 129.824C67.5981 130.037 67.0435 130.144 66.4141 130.144ZM82.2135 121.072C82.8962 121.072 83.5042 121.216 84.0375 121.504C84.5708 121.781 84.9922 122.203 85.3015 122.768C85.6108 123.333 85.7655 124.021 85.7655 124.832V130H84.3255V125.04C84.3255 124.165 84.1068 123.499 83.6695 123.04C83.2428 122.571 82.6615 122.336 81.9255 122.336C81.1682 122.336 80.5655 122.581 80.1175 123.072C79.6695 123.552 79.4455 124.251 79.4455 125.168V130H78.0055V125.04C78.0055 124.165 77.7868 123.499 77.3495 123.04C76.9228 122.571 76.3415 122.336 75.6055 122.336C74.8482 122.336 74.2455 122.581 73.7975 123.072C73.3495 123.552 73.1255 124.251 73.1255 125.168V130H71.6695V121.232H73.1255V122.496C73.4135 122.037 73.7975 121.685 74.2775 121.44C74.7682 121.195 75.3068 121.072 75.8935 121.072C76.6295 121.072 77.2802 121.237 77.8455 121.568C78.4108 121.899 78.8322 122.384 79.1095 123.024C79.3548 122.405 79.7602 121.925 80.3255 121.584C80.8908 121.243 81.5202 121.072 82.2135 121.072Z" fill="#AFAFAF"/>
<defs>
<clipPath id="clip0_382_1709">
<rect width="96" height="96" fill="white"/>
</clipPath>
</defs>
</svg>
