<svg width="48" height="48" viewBox="0 0 48 48" fill="none" xmlns="http://www.w3.org/2000/svg">
<g clip-path="url(#clip0_382_1684)">
<path d="M39.1742 21.1226L31.29 25.6713L31.3037 25.6988L39.2709 34.8502L47.1413 30.2738L39.1885 21.1226H39.1742Z" fill="#E2E2E2"/>
<path d="M39.2699 34.8497L31.4269 39.4117L23.501 30.1623L31.2891 25.6709L31.3028 25.6984L39.2699 34.8497Z" fill="#CBCBCB"/>
<path d="M39.1886 21.1218H39.1742L31.2901 25.6705L23.4746 16.6016L31.2353 11.9849H31.249L39.1886 21.1218Z" fill="#CBCBCB"/>
<path d="M23.5291 44.0001L31.4269 39.4119L23.501 30.1626L23.5291 44.0001Z" fill="#E2E2E2"/>
<path d="M23.4737 16.6021L31.2892 25.671L23.5011 30.1624L23.46 16.6021H23.4737Z" fill="#AFAFAF"/>
<path d="M23.4599 16.6021H23.4736L31.2343 11.9854H31.248L23.4326 3L23.4599 16.6021Z" fill="#E2E2E2"/>
<path d="M7.69141 34.7528L23.5288 43.9997L23.5007 30.1622L15.5892 25.6565L7.78741 21.2188L7.69141 34.7528Z" fill="#CBCBCB"/>
<path d="M23.4602 16.6022L23.5013 30.1625L15.5899 25.6568L15.5625 12.1787L23.4602 16.6022Z" fill="#AFAFAF"/>
<path d="M23.4329 3L15.5625 12.1655V12.1787L23.4602 16.6021L23.4329 3Z" fill="#CBCBCB"/>
<path d="M15.5889 25.6568L7.78711 21.219L15.5615 12.1655V12.1787L15.5889 25.6568Z" fill="#E2E2E2"/>
<path d="M0 30.2733L7.6921 34.7528L7.78811 21.2188L0 30.2733Z" fill="#AFAFAF"/>
</g>
<defs>
<clipPath id="clip0_382_1684">
<rect width="48" height="48" fill="white"/>
</clipPath>
</defs>
</svg>
