<svg width="108" height="136" viewBox="0 0 108 136" fill="none" xmlns="http://www.w3.org/2000/svg">
<path d="M54.1078 94.0002C79.4543 94.0002 100.002 73.4528 100.002 48.1063C100.002 22.7598 79.4543 2.2124 54.1078 2.2124C28.7613 2.2124 8.21387 22.7598 8.21387 48.1063C8.21387 73.4528 28.7613 94.0002 54.1078 94.0002Z" fill="#E2E2E2"/>
<path d="M49.4537 84.9068C72.3479 84.9068 90.9073 66.3474 90.9073 43.4532C90.9073 20.5589 72.3479 1.99951 49.4537 1.99951C26.5594 1.99951 8 20.5589 8 43.4532C8 66.3474 26.5594 84.9068 49.4537 84.9068Z" fill="#CBCBCB"/>
<path d="M55.1625 74.1195C75.0192 74.1195 91.1161 58.0226 91.1161 38.166C91.1161 18.3094 75.0192 2.2124 55.1625 2.2124C35.3059 2.2124 19.209 18.3094 19.209 38.166C19.209 58.0226 35.3059 74.1195 55.1625 74.1195Z" fill="#AFAFAF"/>
<path d="M57.9109 73.9058C76.1319 73.9058 90.9029 59.1348 90.9029 40.9139C90.9029 22.6929 76.1319 7.92188 57.9109 7.92188C39.69 7.92188 24.9189 22.6929 24.9189 40.9139C24.9189 59.1348 39.69 73.9058 57.9109 73.9058Z" fill="#CBCBCB"/>
<path d="M55.5861 74.12C72.5231 74.12 86.2533 60.3898 86.2533 43.4528C86.2533 26.5158 72.5231 12.7856 55.5861 12.7856C38.6491 12.7856 24.9189 26.5158 24.9189 43.4528C24.9189 60.3898 38.6491 74.12 55.5861 74.12Z" fill="#AFAFAF"/>
<path d="M50.723 63.966C64.856 63.966 76.3131 52.5088 76.3131 38.3758C76.3131 24.2427 64.856 12.7856 50.723 12.7856C36.5899 12.7856 25.1328 24.2427 25.1328 38.3758C25.1328 52.5088 36.5899 63.966 50.723 63.966Z" fill="#E2E2E2"/>
<path d="M54.74 55.7183C66.6544 55.7183 76.313 46.0597 76.313 34.1453C76.313 22.2308 66.6544 12.5723 54.74 12.5723C42.8256 12.5723 33.167 22.2308 33.167 34.1453C33.167 46.0597 42.8256 55.7183 54.74 55.7183Z" fill="#E2E2E2"/>
<path d="M57.4882 55.9319C67.885 55.9319 76.3133 47.5036 76.3133 37.1068C76.3133 26.71 67.885 18.2817 57.4882 18.2817C47.0914 18.2817 38.6631 26.71 38.6631 37.1068C38.6631 47.5036 47.0914 55.9319 57.4882 55.9319Z" fill="#AFAFAF"/>
<path d="M54.7389 55.7176C63.6157 55.7176 70.8118 48.5215 70.8118 39.6447C70.8118 30.7679 63.6157 23.5718 54.7389 23.5718C45.8621 23.5718 38.666 30.7679 38.666 39.6447C38.666 48.5215 45.8621 55.7176 54.7389 55.7176Z" fill="#AFAFAF"/>
<path d="M54.7389 55.7176C63.6157 55.7176 70.8118 48.5215 70.8118 39.6447C70.8118 30.7679 63.6157 23.5718 54.7389 23.5718C45.8621 23.5718 38.666 30.7679 38.666 39.6447C38.666 48.5215 45.8621 55.7176 54.7389 55.7176Z" fill="#757575"/>
<path d="M64.0707 35.1332C65.2186 32.5749 64.8538 29.9199 63.256 29.2029C61.6582 28.486 59.4324 29.9787 58.2845 32.5369C57.1366 35.0951 57.5013 37.7501 59.0991 38.4671C60.697 39.184 62.9228 37.6914 64.0707 35.1332Z" fill="white"/>
<path d="M6.816 124.256C7.22133 124.32 7.58933 124.485 7.92 124.752C8.26133 125.019 8.528 125.349 8.72 125.744C8.92267 126.139 9.024 126.56 9.024 127.008C9.024 127.573 8.88 128.085 8.592 128.544C8.304 128.992 7.88267 129.349 7.328 129.616C6.784 129.872 6.13867 130 5.392 130H1.232V118.848H5.232C5.98933 118.848 6.63467 118.976 7.168 119.232C7.70133 119.477 8.10133 119.813 8.368 120.24C8.63467 120.667 8.768 121.147 8.768 121.68C8.768 122.341 8.58667 122.891 8.224 123.328C7.872 123.755 7.40267 124.064 6.816 124.256ZM2.688 123.664H5.136C5.81867 123.664 6.34667 123.504 6.72 123.184C7.09333 122.864 7.28 122.421 7.28 121.856C7.28 121.291 7.09333 120.848 6.72 120.528C6.34667 120.208 5.808 120.048 5.104 120.048H2.688V123.664ZM5.264 128.8C5.98933 128.8 6.55467 128.629 6.96 128.288C7.36533 127.947 7.568 127.472 7.568 126.864C7.568 126.245 7.35467 125.76 6.928 125.408C6.50133 125.045 5.93067 124.864 5.216 124.864H2.688V128.8H5.264ZM12.5005 122.656C12.7565 122.155 13.1192 121.765 13.5885 121.488C14.0685 121.211 14.6498 121.072 15.3325 121.072V122.576H14.9485C13.3165 122.576 12.5005 123.461 12.5005 125.232V130H11.0445V121.232H12.5005V122.656ZM20.8373 130.144C20.0159 130.144 19.2693 129.957 18.5973 129.584C17.9359 129.211 17.4133 128.683 17.0293 128C16.6559 127.307 16.4693 126.507 16.4693 125.6C16.4693 124.704 16.6613 123.915 17.0453 123.232C17.4399 122.539 17.9733 122.011 18.6453 121.648C19.3173 121.275 20.0693 121.088 20.9013 121.088C21.7333 121.088 22.4853 121.275 23.1573 121.648C23.8293 122.011 24.3573 122.533 24.7413 123.216C25.1359 123.899 25.3333 124.693 25.3333 125.6C25.3333 126.507 25.1306 127.307 24.7253 128C24.3306 128.683 23.7919 129.211 23.1093 129.584C22.4266 129.957 21.6693 130.144 20.8373 130.144ZM20.8373 128.864C21.3599 128.864 21.8506 128.741 22.3093 128.496C22.7679 128.251 23.1359 127.883 23.4133 127.392C23.7013 126.901 23.8453 126.304 23.8453 125.6C23.8453 124.896 23.7066 124.299 23.4293 123.808C23.1519 123.317 22.7893 122.955 22.3413 122.72C21.8933 122.475 21.4079 122.352 20.8853 122.352C20.3519 122.352 19.8613 122.475 19.4133 122.72C18.9759 122.955 18.6239 123.317 18.3573 123.808C18.0906 124.299 17.9573 124.896 17.9573 125.6C17.9573 126.315 18.0853 126.917 18.3413 127.408C18.6079 127.899 18.9599 128.267 19.3973 128.512C19.8346 128.747 20.3146 128.864 20.8373 128.864ZM38.9276 121.232L36.1916 130H34.6876L32.5756 123.04L30.4636 130H28.9596L26.2076 121.232H27.6956L29.7116 128.592L31.8876 121.232H33.3756L35.5036 128.608L37.4876 121.232H38.9276ZM43.4766 130.144C42.8046 130.144 42.202 130.032 41.6686 129.808C41.1353 129.573 40.714 129.253 40.4046 128.848C40.0953 128.432 39.9246 127.957 39.8926 127.424H41.3966C41.4393 127.861 41.642 128.219 42.0046 128.496C42.378 128.773 42.8633 128.912 43.4606 128.912C44.0153 128.912 44.4526 128.789 44.7726 128.544C45.0926 128.299 45.2526 127.989 45.2526 127.616C45.2526 127.232 45.082 126.949 44.7406 126.768C44.3993 126.576 43.8713 126.389 43.1566 126.208C42.506 126.037 41.9726 125.867 41.5566 125.696C41.1513 125.515 40.7993 125.253 40.5006 124.912C40.2126 124.56 40.0686 124.101 40.0686 123.536C40.0686 123.088 40.202 122.677 40.4686 122.304C40.7353 121.931 41.114 121.637 41.6046 121.424C42.0953 121.2 42.6553 121.088 43.2846 121.088C44.2553 121.088 45.0393 121.333 45.6366 121.824C46.234 122.315 46.554 122.987 46.5966 123.84H45.1406C45.1086 123.381 44.922 123.013 44.5806 122.736C44.25 122.459 43.802 122.32 43.2366 122.32C42.714 122.32 42.298 122.432 41.9886 122.656C41.6793 122.88 41.5246 123.173 41.5246 123.536C41.5246 123.824 41.6153 124.064 41.7966 124.256C41.9886 124.437 42.2233 124.587 42.5006 124.704C42.7886 124.811 43.1833 124.933 43.6846 125.072C44.314 125.243 44.826 125.413 45.2206 125.584C45.6153 125.744 45.9513 125.989 46.2286 126.32C46.5166 126.651 46.666 127.083 46.6766 127.616C46.6766 128.096 46.5433 128.528 46.2766 128.912C46.01 129.296 45.6313 129.6 45.1406 129.824C44.6606 130.037 44.106 130.144 43.4766 130.144ZM56.732 125.28C56.732 125.557 56.716 125.851 56.684 126.16H49.676C49.7293 127.024 50.0227 127.701 50.556 128.192C51.1 128.672 51.756 128.912 52.524 128.912C53.1533 128.912 53.676 128.768 54.092 128.48C54.5187 128.181 54.8173 127.787 54.988 127.296H56.556C56.3213 128.139 55.852 128.827 55.148 129.36C54.444 129.883 53.5693 130.144 52.524 130.144C51.692 130.144 50.9453 129.957 50.284 129.584C49.6333 129.211 49.1213 128.683 48.748 128C48.3747 127.307 48.188 126.507 48.188 125.6C48.188 124.693 48.3693 123.899 48.732 123.216C49.0947 122.533 49.6013 122.011 50.252 121.648C50.9133 121.275 51.6707 121.088 52.524 121.088C53.356 121.088 54.092 121.269 54.732 121.632C55.372 121.995 55.8627 122.496 56.204 123.136C56.556 123.765 56.732 124.48 56.732 125.28ZM55.228 124.976C55.228 124.421 55.1053 123.947 54.86 123.552C54.6147 123.147 54.2787 122.843 53.852 122.64C53.436 122.427 52.972 122.32 52.46 122.32C51.724 122.32 51.0947 122.555 50.572 123.024C50.06 123.493 49.7667 124.144 49.692 124.976H55.228ZM60.1099 122.656C60.3659 122.155 60.7285 121.765 61.1979 121.488C61.6779 121.211 62.2592 121.072 62.9419 121.072V122.576H62.5579C60.9259 122.576 60.1099 123.461 60.1099 125.232V130H58.6539V121.232H60.1099V122.656ZM68.1586 130.112C67.4226 130.112 66.7613 129.984 66.1746 129.728C65.5986 129.461 65.1453 129.099 64.8146 128.64C64.484 128.171 64.3133 127.632 64.3026 127.024H65.8546C65.908 127.547 66.1213 127.989 66.4946 128.352C66.8786 128.704 67.4333 128.88 68.1586 128.88C68.852 128.88 69.396 128.709 69.7906 128.368C70.196 128.016 70.3986 127.568 70.3986 127.024C70.3986 126.597 70.2813 126.251 70.0466 125.984C69.812 125.717 69.5186 125.515 69.1666 125.376C68.8146 125.237 68.34 125.088 67.7426 124.928C67.0066 124.736 66.4146 124.544 65.9666 124.352C65.5293 124.16 65.1506 123.861 64.8306 123.456C64.5213 123.04 64.3666 122.485 64.3666 121.792C64.3666 121.184 64.5213 120.645 64.8306 120.176C65.14 119.707 65.572 119.344 66.1266 119.088C66.692 118.832 67.3373 118.704 68.0626 118.704C69.108 118.704 69.9613 118.965 70.6226 119.488C71.2946 120.011 71.6733 120.704 71.7586 121.568H70.1586C70.1053 121.141 69.8813 120.768 69.4866 120.448C69.092 120.117 68.5693 119.952 67.9186 119.952C67.3106 119.952 66.8146 120.112 66.4306 120.432C66.0466 120.741 65.8546 121.179 65.8546 121.744C65.8546 122.149 65.9666 122.48 66.1906 122.736C66.4253 122.992 66.708 123.189 67.0386 123.328C67.38 123.456 67.8546 123.605 68.4626 123.776C69.1986 123.979 69.7906 124.181 70.2386 124.384C70.6866 124.576 71.0706 124.88 71.3906 125.296C71.7106 125.701 71.8706 126.256 71.8706 126.96C71.8706 127.504 71.7266 128.016 71.4386 128.496C71.1506 128.976 70.724 129.365 70.1586 129.664C69.5933 129.963 68.9266 130.112 68.1586 130.112ZM75.7893 122.432V127.6C75.7893 128.027 75.8799 128.331 76.0613 128.512C76.2426 128.683 76.5573 128.768 77.0052 128.768H78.0773V130H76.7653C75.9546 130 75.3466 129.813 74.9413 129.44C74.5359 129.067 74.3333 128.453 74.3333 127.6V122.432H73.1973V121.232H74.3333V119.024H75.7893V121.232H78.0773V122.432H75.7893ZM79.2974 125.584C79.2974 124.688 79.4787 123.904 79.8414 123.232C80.204 122.549 80.7 122.021 81.3294 121.648C81.9694 121.275 82.6787 121.088 83.4574 121.088C84.2254 121.088 84.892 121.253 85.4574 121.584C86.0227 121.915 86.444 122.331 86.7214 122.832V121.232H88.1934V130H86.7214V128.368C86.4334 128.88 86.0014 129.307 85.4254 129.648C84.86 129.979 84.1987 130.144 83.4414 130.144C82.6627 130.144 81.9587 129.952 81.3294 129.568C80.7 129.184 80.204 128.645 79.8414 127.952C79.4787 127.259 79.2974 126.469 79.2974 125.584ZM86.7214 125.6C86.7214 124.939 86.588 124.363 86.3214 123.872C86.0547 123.381 85.692 123.008 85.2334 122.752C84.7854 122.485 84.2894 122.352 83.7454 122.352C83.2014 122.352 82.7054 122.48 82.2574 122.736C81.8094 122.992 81.452 123.365 81.1854 123.856C80.9187 124.347 80.7854 124.923 80.7854 125.584C80.7854 126.256 80.9187 126.843 81.1854 127.344C81.452 127.835 81.8094 128.213 82.2574 128.48C82.7054 128.736 83.2014 128.864 83.7454 128.864C84.2894 128.864 84.7854 128.736 85.2334 128.48C85.692 128.213 86.0547 127.835 86.3214 127.344C86.588 126.843 86.7214 126.261 86.7214 125.6ZM90.1099 125.6C90.1099 124.693 90.2912 123.904 90.6539 123.232C91.0165 122.549 91.5179 122.021 92.1579 121.648C92.8085 121.275 93.5499 121.088 94.3819 121.088C95.4592 121.088 96.3445 121.349 97.0379 121.872C97.7419 122.395 98.2059 123.12 98.4299 124.048H96.8619C96.7125 123.515 96.4192 123.093 95.9819 122.784C95.5552 122.475 95.0219 122.32 94.3819 122.32C93.5499 122.32 92.8779 122.608 92.3659 123.184C91.8539 123.749 91.5979 124.555 91.5979 125.6C91.5979 126.656 91.8539 127.472 92.3659 128.048C92.8779 128.624 93.5499 128.912 94.3819 128.912C95.0219 128.912 95.5552 128.763 95.9819 128.464C96.4085 128.165 96.7019 127.739 96.8619 127.184H98.4299C98.1952 128.08 97.7259 128.8 97.0219 129.344C96.3179 129.877 95.4379 130.144 94.3819 130.144C93.5499 130.144 92.8085 129.957 92.1579 129.584C91.5179 129.211 91.0165 128.683 90.6539 128C90.2912 127.317 90.1099 126.517 90.1099 125.6ZM105.269 130L101.829 126.128V130H100.373V118.16H101.829V125.12L105.205 121.232H107.237L103.109 125.6L107.253 130H105.269Z" fill="#AFAFAF"/>
</svg>
