<svg width="96" height="136" viewBox="0 0 96 136" fill="none" xmlns="http://www.w3.org/2000/svg">
<path d="M54.3999 36.6883H42.7637C40.4492 36.6883 38.2294 35.833 36.5927 34.3107C34.9561 32.7883 34.0366 30.7235 34.0366 28.5705V14.1207C34.0362 13.0362 34.2694 11.9626 34.7225 10.9633C35.1755 9.96405 35.8393 9.05935 36.6745 8.30264C37.5097 7.54592 38.4994 6.95255 39.5852 6.55756C40.6711 6.16257 41.831 5.97397 42.9965 6.00289H54.6326C56.9472 6.00289 59.167 6.85816 60.8036 8.38055C62.4403 9.90294 63.3598 11.9677 63.3598 14.1207V28.5705C63.3602 29.655 63.127 30.7286 62.6739 31.7279C62.2208 32.7272 61.5571 33.6319 60.7219 34.3886C59.8867 35.1453 58.897 35.7387 57.8112 36.1336C56.7253 36.5286 55.5654 36.7172 54.3999 36.6883V36.6883ZM42.9965 11.4148C42.2249 11.4148 41.485 11.6999 40.9395 12.2073C40.3939 12.7148 40.0874 13.4031 40.0874 14.1207V28.5705C40.0874 29.2881 40.3939 29.9764 40.9395 30.4839C41.485 30.9913 42.2249 31.2764 42.9965 31.2764H54.6326C55.4042 31.2764 56.1441 30.9913 56.6896 30.4839C57.2352 29.9764 57.5417 29.2881 57.5417 28.5705V14.1207C57.5417 13.4031 57.2352 12.7148 56.6896 12.2073C56.1441 11.6999 55.4042 11.4148 54.6326 11.4148H42.9965ZM53.7017 89.9955H42.3565C41.2006 89.9956 40.0561 89.7821 38.9897 89.3673C37.9232 88.9526 36.9559 88.345 36.144 87.5797C35.332 86.8144 34.6916 85.9066 34.26 84.9092C33.8283 83.9118 33.6139 82.8445 33.6293 81.7694V67.4279C33.6293 65.2749 34.5488 63.2101 36.1855 61.6877C37.8221 60.1653 40.0419 59.31 42.3565 59.31H53.9926C56.3072 59.31 58.527 60.1653 60.1637 61.6877C61.8003 63.2101 62.7198 65.2749 62.7198 67.4279V81.7694C62.7362 82.8677 62.5128 83.9576 62.0632 84.9733C61.6135 85.9889 60.947 86.9091 60.1039 87.6782C59.2608 88.4472 58.2587 89.0491 57.1583 89.4474C56.0578 89.8457 54.8819 90.0322 53.7017 89.9955V89.9955ZM42.3565 64.7219C41.585 64.7219 40.845 65.007 40.2995 65.5145C39.7539 66.0219 39.4474 66.7102 39.4474 67.4279V81.7694C39.4474 82.4871 39.7539 83.1753 40.2995 83.6828C40.845 84.1902 41.585 84.4753 42.3565 84.4753H53.9926C54.7642 84.4753 55.5041 84.1902 56.0497 83.6828C56.5952 83.1753 56.9017 82.4871 56.9017 81.7694V67.4279C56.9017 66.7102 56.5952 66.0219 56.0497 65.5145C55.5041 65.007 54.7642 64.7219 53.9926 64.7219H42.3565ZM87.2721 89.9955H75.6359C73.3213 89.9955 71.1016 89.1402 69.4649 87.6178C67.8283 86.0954 66.9088 84.0306 66.9088 81.8776V67.4279C66.9088 65.2749 67.8283 63.2101 69.4649 61.6877C71.1016 60.1653 73.3213 59.31 75.6359 59.31H87.2721C89.5867 59.31 91.8064 60.1653 93.4431 61.6877C95.0798 63.2101 95.9992 65.2749 95.9992 67.4279V81.7694C96.0146 82.8445 95.8003 83.9118 95.3686 84.9092C94.9369 85.9066 94.2965 86.8144 93.4846 87.5797C92.6727 88.345 91.7054 88.9526 90.6389 89.3673C89.5724 89.7821 88.428 89.9956 87.2721 89.9955V89.9955ZM75.6359 64.7219C74.8644 64.7219 74.1245 65.007 73.5789 65.5145C73.0334 66.0219 72.7269 66.7102 72.7269 67.4279V81.7694C72.7418 82.4827 73.053 83.163 73.5954 83.6674C74.1378 84.1719 74.8691 84.4615 75.6359 84.4753H87.2721C88.0436 84.4753 88.7835 84.1902 89.3291 83.6828C89.8747 83.1753 90.1811 82.4871 90.1811 81.7694V67.4279C90.1811 66.7102 89.8747 66.0219 89.3291 65.5145C88.7835 65.007 88.0436 64.7219 87.2721 64.7219H75.6359ZM20.1314 89.9955H8.49522C6.20094 89.9387 4.02302 89.0436 2.43314 87.504C0.843265 85.9643 -0.0305933 83.9041 0.000818451 81.7694V67.4279C0.000818474 65.2749 0.920281 63.2101 2.55693 61.6877C4.19359 60.1653 6.41337 59.31 8.72795 59.31H20.3641C22.6787 59.31 24.8985 60.1653 26.5351 61.6877C28.1718 63.2101 29.0912 65.2749 29.0912 67.4279V81.7694C29.1073 82.863 28.8857 83.9483 28.4396 84.9602C27.9936 85.9722 27.3323 86.8898 26.4955 87.6581C25.6587 88.4264 24.6636 89.0295 23.57 89.4311C22.4763 89.8328 21.3067 90.0247 20.1314 89.9955V89.9955ZM8.49522 64.7219C7.7237 64.7219 6.98377 65.007 6.43822 65.5145C5.89267 66.0219 5.58618 66.7102 5.58618 67.4279V81.7694C5.58618 82.4871 5.89267 83.1753 6.43822 83.6828C6.98377 84.1902 7.7237 84.4753 8.49522 84.4753H20.1314C20.5306 84.4973 20.9305 84.4439 21.307 84.3185C21.6835 84.193 22.0289 83.9981 22.3224 83.7453C22.6158 83.4926 22.8513 83.1872 23.0147 82.8477C23.1781 82.5081 23.266 82.1413 23.2732 81.7694V67.4279C23.2732 66.7102 22.9667 66.0219 22.4211 65.5145C21.8756 65.007 21.1356 64.7219 20.3641 64.7219H8.49522Z" fill="#CBCBCB"/>
<path d="M48 64C47.4696 64 46.9609 63.7148 46.5858 63.2071C46.2107 62.6993 46 62.0107 46 61.2927V34.7073C46 33.9893 46.2107 33.3007 46.5858 32.7929C46.9609 32.2852 47.4696 32 48 32C48.5272 32.0139 49.03 32.3035 49.4029 32.8083C49.7758 33.313 49.9898 33.9936 50 34.7073V61.2927C50 62.0107 49.7893 62.6993 49.4142 63.2071C49.0391 63.7148 48.5304 64 48 64V64Z" fill="#CBCBCB"/>
<path d="M81.12 52H14.7648C14.0211 51.969 13.3178 51.6393 12.8024 51.08C12.287 50.5207 11.9994 49.7753 12 49C12 48.2044 12.3034 47.4413 12.8435 46.8787C13.3836 46.3161 14.1162 46 14.88 46H81.12C81.8838 46 82.6164 46.3161 83.1565 46.8787C83.6966 47.4413 84 48.2044 84 49C84 49.7957 83.6966 50.5587 83.1565 51.1213C82.6164 51.6839 81.8838 52 81.12 52V52Z" fill="#CBCBCB"/>
<path d="M14.8754 64C14.1128 64 13.3814 63.7252 12.8422 63.2359C12.3029 62.7467 12 62.0832 12 61.3913V48.6087C12 47.9168 12.3029 47.2533 12.8422 46.7641C13.3814 46.2748 14.1128 46 14.8754 46C15.638 46 16.3694 46.2748 16.9086 46.7641C17.4479 47.2533 17.7508 47.9168 17.7508 48.6087V61.3913C17.7508 62.0832 17.4479 62.7467 16.9086 63.2359C16.3694 63.7252 15.638 64 14.8754 64V64ZM81.1246 62.8522C80.3666 62.8388 79.6438 62.5597 79.1077 62.0733C78.5716 61.587 78.2639 60.9312 78.2492 60.2435V49.5478C78.2639 48.8601 78.5716 48.2043 79.1077 47.718C79.6438 47.2316 80.3666 46.9525 81.1246 46.9391C81.8872 46.9391 82.6186 47.214 83.1578 47.7032C83.6971 48.1924 84 48.856 84 49.5478V60.2435C84 60.9353 83.6971 61.5989 83.1578 62.0881C82.6186 62.5773 81.8872 62.8522 81.1246 62.8522V62.8522Z" fill="#CBCBCB"/>
<path d="M24.688 124.416C24.688 123.328 24.9333 122.352 25.424 121.488C25.9147 120.613 26.5813 119.931 27.424 119.44C28.2773 118.949 29.2213 118.704 30.256 118.704C31.472 118.704 32.5333 118.997 33.44 119.584C34.3467 120.171 35.008 121.003 35.424 122.08H33.68C33.3707 121.408 32.9227 120.891 32.336 120.528C31.76 120.165 31.0667 119.984 30.256 119.984C29.4773 119.984 28.7787 120.165 28.16 120.528C27.5413 120.891 27.056 121.408 26.704 122.08C26.352 122.741 26.176 123.52 26.176 124.416C26.176 125.301 26.352 126.08 26.704 126.752C27.056 127.413 27.5413 127.925 28.16 128.288C28.7787 128.651 29.4773 128.832 30.256 128.832C31.0667 128.832 31.76 128.656 32.336 128.304C32.9227 127.941 33.3707 127.424 33.68 126.752H35.424C35.008 127.819 34.3467 128.645 33.44 129.232C32.5333 129.808 31.472 130.096 30.256 130.096C29.2213 130.096 28.2773 129.856 27.424 129.376C26.5813 128.885 25.9147 128.208 25.424 127.344C24.9333 126.48 24.688 125.504 24.688 124.416ZM39.0474 118.848V130H37.5914V118.848H39.0474ZM46.9689 114.928L42.5849 132.72H41.1449L45.5129 114.928H46.9689ZM48.5943 124.416C48.5943 123.328 48.8396 122.352 49.3303 121.488C49.8209 120.613 50.4876 119.931 51.3303 119.44C52.1836 118.949 53.1276 118.704 54.1623 118.704C55.3783 118.704 56.4396 118.997 57.3463 119.584C58.2529 120.171 58.9143 121.003 59.3303 122.08H57.5863C57.2769 121.408 56.8289 120.891 56.2423 120.528C55.6663 120.165 54.9729 119.984 54.1623 119.984C53.3836 119.984 52.6849 120.165 52.0663 120.528C51.4476 120.891 50.9623 121.408 50.6103 122.08C50.2583 122.741 50.0823 123.52 50.0823 124.416C50.0823 125.301 50.2583 126.08 50.6103 126.752C50.9623 127.413 51.4476 127.925 52.0663 128.288C52.6849 128.651 53.3836 128.832 54.1623 128.832C54.9729 128.832 55.6663 128.656 56.2423 128.304C56.8289 127.941 57.2769 127.424 57.5863 126.752H59.3303C58.9143 127.819 58.2529 128.645 57.3463 129.232C56.4396 129.808 55.3783 130.096 54.1623 130.096C53.1276 130.096 52.1836 129.856 51.3303 129.376C50.4876 128.885 49.8209 128.208 49.3303 127.344C48.8396 126.48 48.5943 125.504 48.5943 124.416ZM64.9696 118.848C66.1856 118.848 67.2363 119.077 68.1216 119.536C69.0176 119.984 69.7003 120.629 70.1696 121.472C70.6496 122.315 70.8896 123.307 70.8896 124.448C70.8896 125.589 70.6496 126.581 70.1696 127.424C69.7003 128.256 69.0176 128.896 68.1216 129.344C67.2363 129.781 66.1856 130 64.9696 130H61.4976V118.848H64.9696ZM64.9696 128.8C66.4096 128.8 67.5083 128.421 68.2656 127.664C69.023 126.896 69.4016 125.824 69.4016 124.448C69.4016 123.061 69.0176 121.979 68.2496 121.2C67.4923 120.421 66.399 120.032 64.9696 120.032H62.9536V128.8H64.9696Z" fill="#AFAFAF"/>
</svg>
