<svg width="48" height="48" viewBox="0 0 48 48" fill="none" xmlns="http://www.w3.org/2000/svg">
<path d="M27.2 18.3442H21.3819C20.2246 18.3442 19.1147 17.9165 18.2964 17.1553C17.478 16.3941 17.0183 15.3617 17.0183 14.2852V7.06036C17.0181 6.51811 17.1347 5.98131 17.3612 5.48167C17.5878 4.98203 17.9196 4.52967 18.3372 4.15132C18.7548 3.77296 19.2497 3.47628 19.7926 3.27878C20.3355 3.08129 20.9155 2.98698 21.4982 3.00144H27.3163C28.4736 3.00144 29.5835 3.42908 30.4018 4.19027C31.2202 4.95147 31.6799 5.98387 31.6799 7.06036V14.2852C31.6801 14.8275 31.5635 15.3643 31.337 15.8639C31.1104 16.3636 30.7786 16.8159 30.361 17.1943C29.9434 17.5726 29.4485 17.8693 28.9056 18.0668C28.3627 18.2643 27.7827 18.3586 27.2 18.3442V18.3442ZM21.4982 5.70739C21.1125 5.70739 20.7425 5.84993 20.4697 6.10367C20.197 6.3574 20.0437 6.70153 20.0437 7.06036V14.2852C20.0437 14.6441 20.197 14.9882 20.4697 15.2419C20.7425 15.4957 21.1125 15.6382 21.4982 15.6382H27.3163C27.7021 15.6382 28.072 15.4957 28.3448 15.2419C28.6176 14.9882 28.7708 14.6441 28.7708 14.2852V7.06036C28.7708 6.70153 28.6176 6.3574 28.3448 6.10367C28.072 5.84993 27.7021 5.70739 27.3163 5.70739H21.4982ZM26.8509 44.9977H21.1782C20.6003 44.9978 20.0281 44.891 19.4948 44.6837C18.9616 44.4763 18.4779 44.1725 18.072 43.7898C17.666 43.4072 17.3458 42.9533 17.13 42.4546C16.9141 41.9559 16.807 41.4223 16.8147 40.8847V33.7139C16.8147 32.6374 17.2744 31.605 18.0927 30.8438C18.9111 30.0827 20.0209 29.655 21.1782 29.655H26.9963C28.1536 29.655 29.2635 30.0827 30.0818 30.8438C30.9002 31.605 31.3599 32.6374 31.3599 33.7139V40.8847C31.3681 41.4338 31.2564 41.9788 31.0316 42.4866C30.8068 42.9945 30.4735 43.4546 30.052 43.8391C29.6304 44.2236 29.1294 44.5246 28.5791 44.7237C28.0289 44.9229 27.441 45.0161 26.8509 44.9977V44.9977ZM21.1782 32.361C20.7925 32.361 20.4225 32.5035 20.1497 32.7572C19.877 33.011 19.7237 33.3551 19.7237 33.7139V40.8847C19.7237 41.2435 19.877 41.5877 20.1497 41.8414C20.4225 42.0951 20.7925 42.2377 21.1782 42.2377H26.9963C27.3821 42.2377 27.7521 42.0951 28.0248 41.8414C28.2976 41.5877 28.4508 41.2435 28.4508 40.8847V33.7139C28.4508 33.3551 28.2976 33.011 28.0248 32.7572C27.7521 32.5035 27.3821 32.361 26.9963 32.361H21.1782ZM43.636 44.9977H37.818C36.6607 44.9977 35.5508 44.5701 34.7325 43.8089C33.9141 43.0477 33.4544 42.0153 33.4544 40.9388V33.7139C33.4544 32.6374 33.9141 31.605 34.7325 30.8438C35.5508 30.0827 36.6607 29.655 37.818 29.655H43.636C44.7933 29.655 45.9032 30.0827 46.7216 30.8438C47.5399 31.605 47.9996 32.6374 47.9996 33.7139V40.8847C48.0073 41.4223 47.9001 41.9559 47.6843 42.4546C47.4685 42.9533 47.1483 43.4072 46.7423 43.7898C46.3363 44.1725 45.8527 44.4763 45.3195 44.6837C44.7862 44.891 44.214 44.9978 43.636 44.9977V44.9977ZM37.818 32.361C37.4322 32.361 37.0622 32.5035 36.7895 32.7572C36.5167 33.011 36.3634 33.3551 36.3634 33.7139V40.8847C36.3709 41.2414 36.5265 41.5815 36.7977 41.8337C37.0689 42.086 37.4345 42.2307 37.818 42.2377H43.636C44.0218 42.2377 44.3918 42.0951 44.6646 41.8414C44.9373 41.5877 45.0906 41.2435 45.0906 40.8847V33.7139C45.0906 33.3551 44.9373 33.011 44.6646 32.7572C44.3918 32.5035 44.0218 32.361 43.636 32.361H37.818ZM10.0657 44.9977H4.24761C3.10047 44.9694 2.01151 44.5218 1.21657 43.752C0.421633 42.9822 -0.0152966 41.952 0.000409225 40.8847V33.7139C0.000409237 32.6374 0.460141 31.605 1.27847 30.8438C2.09679 30.0827 3.20668 29.655 4.36397 29.655H10.1821C11.3393 29.655 12.4492 30.0827 13.2676 30.8438C14.0859 31.605 14.5456 32.6374 14.5456 33.7139V40.8847C14.5537 41.4315 14.4429 41.9742 14.2198 42.4801C13.9968 42.9861 13.6661 43.4449 13.2477 43.8291C12.8293 44.2132 12.3318 44.5147 11.785 44.7156C11.2382 44.9164 10.6534 45.0124 10.0657 44.9977V44.9977ZM4.24761 32.361C3.86185 32.361 3.49189 32.5035 3.21911 32.7572C2.94633 33.011 2.79309 33.3551 2.79309 33.7139V40.8847C2.79309 41.2435 2.94633 41.5877 3.21911 41.8414C3.49189 42.0951 3.86185 42.2377 4.24761 42.2377H10.0657C10.2653 42.2486 10.4653 42.222 10.6535 42.1592C10.8418 42.0965 11.0145 41.999 11.1612 41.8727C11.3079 41.7463 11.4257 41.5936 11.5074 41.4238C11.5891 41.2541 11.633 41.0707 11.6366 40.8847V33.7139C11.6366 33.3551 11.4833 33.011 11.2106 32.7572C10.9378 32.5035 10.5678 32.361 10.1821 32.361H4.24761Z" fill="#CBCBCB"/>
<path d="M24 32C23.7348 32 23.4804 31.8574 23.2929 31.6035C23.1054 31.3497 23 31.0054 23 30.6464V17.3536C23 16.9946 23.1054 16.6503 23.2929 16.3965C23.4804 16.1426 23.7348 16 24 16C24.2636 16.0069 24.515 16.1518 24.7014 16.4041C24.8879 16.6565 24.9949 16.9968 25 17.3536V30.6464C25 31.0054 24.8946 31.3497 24.7071 31.6035C24.5196 31.8574 24.2652 32 24 32V32Z" fill="#CBCBCB"/>
<path d="M40.56 26H7.3824C7.01056 25.9845 6.65892 25.8196 6.4012 25.54C6.14348 25.2604 5.9997 24.8876 6 24.5C6 24.1022 6.15171 23.7206 6.42177 23.4393C6.69182 23.158 7.05809 23 7.44 23H40.56C40.9419 23 41.3082 23.158 41.5782 23.4393C41.8483 23.7206 42 24.1022 42 24.5C42 24.8978 41.8483 25.2794 41.5782 25.5607C41.3082 25.842 40.9419 26 40.56 26V26Z" fill="#CBCBCB"/>
<path d="M7.4377 32C7.0564 32 6.69071 31.8626 6.42109 31.618C6.15147 31.3734 6 31.0416 6 30.6957V24.3043C6 23.9584 6.15147 23.6266 6.42109 23.382C6.69071 23.1374 7.0564 23 7.4377 23C7.819 23 8.18469 23.1374 8.45431 23.382C8.72393 23.6266 8.8754 23.9584 8.8754 24.3043V30.6957C8.8754 31.0416 8.72393 31.3734 8.45431 31.618C8.18469 31.8626 7.819 32 7.4377 32V32ZM40.5623 31.4261C40.1833 31.4194 39.8219 31.2798 39.5538 31.0367C39.2858 30.7935 39.132 30.4656 39.1246 30.1217V24.7739C39.132 24.4301 39.2858 24.1022 39.5538 23.859C39.8219 23.6158 40.1833 23.4762 40.5623 23.4696C40.9436 23.4696 41.3093 23.607 41.5789 23.8516C41.8485 24.0962 42 24.428 42 24.7739V30.1217C42 30.4677 41.8485 30.7994 41.5789 31.0441C41.3093 31.2887 40.9436 31.4261 40.5623 31.4261V31.4261Z" fill="#CBCBCB"/>
</svg>
