<svg width="48" height="48" viewBox="0 0 48 48" fill="none" xmlns="http://www.w3.org/2000/svg">
<path d="M2.68597 35.3528C2.20164 36.1396 1.65309 37.0618 1.22013 37.7918C1.12473 37.9547 1.06419 38.1358 1.03667 38.3225C1.01055 38.5099 1.02051 38.7005 1.06602 38.8842C1.11005 39.069 1.19077 39.241 1.30085 39.3947C1.41093 39.5484 1.55035 39.6801 1.70996 39.7826L11.4388 45.7639C11.6058 45.8682 11.7947 45.9377 11.991 45.9688C12.1855 45.9999 12.3873 45.9926 12.5799 45.945C12.7726 45.8975 12.9542 45.8133 13.1138 45.6962C13.2734 45.5791 13.4073 45.4309 13.5082 45.2607C13.9008 44.6094 14.398 43.7659 14.9319 42.8656C18.7882 36.5586 22.6959 37.3308 29.6765 40.6407L39.3264 45.204C39.5071 45.2904 39.7034 45.3397 39.9035 45.3488C40.1037 45.3579 40.3036 45.3267 40.4914 45.2571C40.6785 45.1875 40.851 45.0814 40.9959 44.9442C41.1427 44.807 41.2583 44.6423 41.339 44.4593L45.9713 34.0428C46.0502 33.8671 46.0943 33.6786 46.0998 33.4865C46.1071 33.2962 46.0759 33.1041 46.0099 32.9248C45.9438 32.7455 45.8448 32.579 45.7163 32.4363C45.5879 32.2936 45.4338 32.1783 45.2595 32.0923C43.225 31.1372 39.176 29.2581 35.5472 27.4869C22.3473 21.1359 11.2095 21.555 2.68597 35.3528V35.3528Z" fill="#CBCBCB"/>
<path d="M46.3068 11.6744C46.7966 10.8876 47.3452 9.96726 47.7726 9.23721C47.8699 9.0707 47.9341 8.8859 47.9616 8.69378C47.9891 8.50349 47.9781 8.30771 47.9304 8.12108C47.8816 7.93399 47.7969 7.75813 47.6809 7.60327C47.5651 7.44795 47.4199 7.31678 47.2534 7.2172L37.5393 1.23587C37.3705 1.13157 37.1834 1.06204 36.9871 1.03094C36.7908 0.999834 36.5908 1.00898 36.3981 1.05473C36.2055 1.1023 36.0239 1.18646 35.8643 1.30357C35.7047 1.42067 35.5708 1.56887 35.468 1.73904C35.0846 2.39042 34.5782 3.23391 34.0444 4.13413C30.1734 10.4704 26.3024 9.69829 19.3144 6.38834L9.67364 1.82321C9.49385 1.73721 9.29939 1.68598 9.10125 1.675C8.90312 1.66219 8.70314 1.69147 8.51602 1.75734C8.32889 1.82321 8.15644 1.92567 8.00967 2.05924C7.86107 2.19281 7.74365 2.35382 7.65926 2.53313L3.02692 12.979C2.86771 13.3333 2.85258 13.7354 2.98472 14.1006C3.05076 14.2817 3.15167 14.4482 3.28009 14.5909C3.40851 14.7337 3.56445 14.8508 3.73874 14.9349C5.78064 15.8919 9.82958 17.7692 13.4511 19.5422C26.6161 25.8913 37.7888 25.4741 46.3068 11.6744V11.6744Z" fill="#CBCBCB"/>
</svg>
