<svg width="96" height="136" viewBox="0 0 96 136" fill="none" xmlns="http://www.w3.org/2000/svg">
<path d="M5.37194 70.7057C4.40327 72.2792 3.30618 74.1236 2.44026 75.5837C2.24946 75.9094 2.12838 76.2717 2.07334 76.6449C2.02109 77.0197 2.04102 77.401 2.13205 77.7684C2.22011 78.138 2.38155 78.482 2.6017 78.7893C2.82185 79.0967 3.10071 79.3602 3.41993 79.5651L22.8776 91.5278C23.2115 91.7364 23.5894 91.8755 23.982 91.9377C24.371 91.9999 24.7746 91.9852 25.1599 91.8901C25.5451 91.795 25.9084 91.6266 26.2276 91.3924C26.5468 91.1582 26.8147 90.8618 27.0165 90.5215C27.8017 89.2187 28.796 87.5317 29.8637 85.7313C37.5764 73.1172 45.3917 74.6615 59.353 81.2814L78.6529 90.408C79.0142 90.5809 79.4067 90.6794 79.807 90.6976C80.2073 90.7158 80.6072 90.6535 80.9828 90.5142C81.3571 90.3751 81.702 90.1629 81.9919 89.8884C82.2854 89.6139 82.5165 89.2846 82.678 88.9186L91.9427 68.0855C92.1005 67.7342 92.1885 67.3573 92.1995 66.973C92.2142 66.5925 92.1518 66.2082 92.0197 65.8496C91.8876 65.491 91.6895 65.158 91.4327 64.8725C91.1758 64.5871 90.8676 64.3566 90.519 64.1846C86.4499 62.2743 78.352 58.5161 71.0944 54.9738C44.6946 42.2719 22.419 43.1099 5.37194 70.7057Z" fill="#CBCBCB"/>
<path d="M92.6145 23.3493C93.5942 21.7757 94.6913 19.935 95.5462 18.4749C95.7407 18.1419 95.8691 17.7723 95.9241 17.3881C95.9792 17.0075 95.9572 16.6159 95.8618 16.2427C95.7643 15.8685 95.5948 15.5167 95.3628 15.207C95.1311 14.8964 94.8407 14.634 94.5078 14.4349L75.0795 2.47222C74.7419 2.26363 74.3677 2.12458 73.9751 2.06237C73.5825 2.00016 73.1825 2.01845 72.7973 2.10994C72.412 2.20508 72.0488 2.37342 71.7295 2.60762C71.4103 2.84182 71.1425 3.13824 70.937 3.47856C70.1701 4.78132 69.1574 6.46832 68.0897 8.26876C60.3477 20.9414 52.6058 19.3971 38.6298 12.7772L19.3483 3.6469C18.9887 3.47491 18.5998 3.37244 18.2035 3.35048C17.8072 3.32487 17.4073 3.38342 17.033 3.51516C16.6588 3.6469 16.3138 3.85183 16.0203 4.11896C15.7231 4.3861 15.4883 4.70813 15.3195 5.06676L6.05481 25.9584C5.7364 26.667 5.70614 27.4712 5.97042 28.2017C6.10251 28.5639 6.30431 28.897 6.56115 29.1824C6.818 29.4678 7.12988 29.702 7.47845 29.8704C11.5623 31.7842 19.6601 35.5388 26.9031 39.0848C53.2332 51.783 75.5785 50.9487 92.6145 23.3493Z" fill="#CBCBCB"/>
<path d="M2.188 124.416C2.188 123.328 2.43333 122.352 2.924 121.488C3.41467 120.613 4.08133 119.931 4.924 119.44C5.77733 118.949 6.72133 118.704 7.756 118.704C8.972 118.704 10.0333 118.997 10.94 119.584C11.8467 120.171 12.508 121.003 12.924 122.08H11.18C10.8707 121.408 10.4227 120.891 9.836 120.528C9.26 120.165 8.56667 119.984 7.756 119.984C6.97733 119.984 6.27867 120.165 5.66 120.528C5.04133 120.891 4.556 121.408 4.204 122.08C3.852 122.741 3.676 123.52 3.676 124.416C3.676 125.301 3.852 126.08 4.204 126.752C4.556 127.413 5.04133 127.925 5.66 128.288C6.27867 128.651 6.97733 128.832 7.756 128.832C8.56667 128.832 9.26 128.656 9.836 128.304C10.4227 127.941 10.8707 127.424 11.18 126.752H12.924C12.508 127.819 11.8467 128.645 10.94 129.232C10.0333 129.808 8.972 130.096 7.756 130.096C6.72133 130.096 5.77733 129.856 4.924 129.376C4.08133 128.885 3.41467 128.208 2.924 127.344C2.43333 126.48 2.188 125.504 2.188 124.416ZM18.9154 130.144C18.094 130.144 17.3474 129.957 16.6754 129.584C16.014 129.211 15.4914 128.683 15.1074 128C14.734 127.307 14.5474 126.507 14.5474 125.6C14.5474 124.704 14.7394 123.915 15.1234 123.232C15.518 122.539 16.0514 122.011 16.7234 121.648C17.3954 121.275 18.1474 121.088 18.9794 121.088C19.8114 121.088 20.5634 121.275 21.2354 121.648C21.9074 122.011 22.4354 122.533 22.8194 123.216C23.214 123.899 23.4114 124.693 23.4114 125.6C23.4114 126.507 23.2087 127.307 22.8034 128C22.4087 128.683 21.87 129.211 21.1874 129.584C20.5047 129.957 19.7474 130.144 18.9154 130.144ZM18.9154 128.864C19.438 128.864 19.9287 128.741 20.3874 128.496C20.846 128.251 21.214 127.883 21.4914 127.392C21.7794 126.901 21.9234 126.304 21.9234 125.6C21.9234 124.896 21.7847 124.299 21.5074 123.808C21.23 123.317 20.8674 122.955 20.4194 122.72C19.9714 122.475 19.486 122.352 18.9634 122.352C18.43 122.352 17.9394 122.475 17.4914 122.72C17.054 122.955 16.702 123.317 16.4354 123.808C16.1687 124.299 16.0354 124.896 16.0354 125.6C16.0354 126.315 16.1634 126.917 16.4194 127.408C16.686 127.899 17.038 128.267 17.4754 128.512C17.9127 128.747 18.3927 128.864 18.9154 128.864ZM29.5978 121.072C30.6644 121.072 31.5284 121.397 32.1898 122.048C32.8511 122.688 33.1818 123.616 33.1818 124.832V130H31.7418V125.04C31.7418 124.165 31.5231 123.499 31.0858 123.04C30.6484 122.571 30.0511 122.336 29.2938 122.336C28.5258 122.336 27.9124 122.576 27.4538 123.056C27.0058 123.536 26.7818 124.235 26.7818 125.152V130H25.3258V121.232H26.7818V122.48C27.0698 122.032 27.4591 121.685 27.9498 121.44C28.4511 121.195 29.0004 121.072 29.5978 121.072ZM39.1281 122.432H37.2881V130H35.8321V122.432H34.6961V121.232H35.8321V120.608C35.8321 119.627 36.0828 118.912 36.5841 118.464C37.0961 118.005 37.9121 117.776 39.0321 117.776V118.992C38.3921 118.992 37.9388 119.12 37.6721 119.376C37.4161 119.621 37.2881 120.032 37.2881 120.608V121.232H39.1281V122.432ZM42.2818 118.16V130H40.8258V118.16H42.2818ZM52.5393 121.232V130H51.0833V128.704C50.8059 129.152 50.4166 129.504 49.9153 129.76C49.4246 130.005 48.8806 130.128 48.2833 130.128C47.6006 130.128 46.9873 129.989 46.4433 129.712C45.8993 129.424 45.4673 128.997 45.1473 128.432C44.8379 127.867 44.6833 127.179 44.6833 126.368V121.232H46.1233V126.176C46.1233 127.04 46.3419 127.707 46.7793 128.176C47.2166 128.635 47.8139 128.864 48.5713 128.864C49.3499 128.864 49.9633 128.624 50.4113 128.144C50.8593 127.664 51.0833 126.965 51.0833 126.048V121.232H52.5393ZM62.9976 125.28C62.9976 125.557 62.9816 125.851 62.9496 126.16H55.9416C55.995 127.024 56.2883 127.701 56.8216 128.192C57.3656 128.672 58.0216 128.912 58.7896 128.912C59.419 128.912 59.9416 128.768 60.3576 128.48C60.7843 128.181 61.083 127.787 61.2536 127.296H62.8216C62.587 128.139 62.1176 128.827 61.4136 129.36C60.7096 129.883 59.835 130.144 58.7896 130.144C57.9576 130.144 57.211 129.957 56.5496 129.584C55.899 129.211 55.387 128.683 55.0136 128C54.6403 127.307 54.4536 126.507 54.4536 125.6C54.4536 124.693 54.635 123.899 54.9976 123.216C55.3603 122.533 55.867 122.011 56.5176 121.648C57.179 121.275 57.9363 121.088 58.7896 121.088C59.6216 121.088 60.3576 121.269 60.9976 121.632C61.6376 121.995 62.1283 122.496 62.4696 123.136C62.8216 123.765 62.9976 124.48 62.9976 125.28ZM61.4936 124.976C61.4936 124.421 61.371 123.947 61.1256 123.552C60.8803 123.147 60.5443 122.843 60.1176 122.64C59.7016 122.427 59.2376 122.32 58.7256 122.32C57.9896 122.32 57.3603 122.555 56.8376 123.024C56.3256 123.493 56.0323 124.144 55.9576 124.976H61.4936ZM69.1915 121.072C70.2582 121.072 71.1222 121.397 71.7835 122.048C72.4448 122.688 72.7755 123.616 72.7755 124.832V130H71.3355V125.04C71.3355 124.165 71.1168 123.499 70.6795 123.04C70.2422 122.571 69.6448 122.336 68.8875 122.336C68.1195 122.336 67.5062 122.576 67.0475 123.056C66.5995 123.536 66.3755 124.235 66.3755 125.152V130H64.9195V121.232H66.3755V122.48C66.6635 122.032 67.0528 121.685 67.5435 121.44C68.0448 121.195 68.5942 121.072 69.1915 121.072ZM74.6099 125.6C74.6099 124.693 74.7912 123.904 75.1539 123.232C75.5165 122.549 76.0179 122.021 76.6579 121.648C77.3085 121.275 78.0499 121.088 78.8819 121.088C79.9592 121.088 80.8445 121.349 81.5379 121.872C82.2419 122.395 82.7059 123.12 82.9299 124.048H81.3619C81.2125 123.515 80.9192 123.093 80.4819 122.784C80.0552 122.475 79.5219 122.32 78.8819 122.32C78.0499 122.32 77.3779 122.608 76.8659 123.184C76.3539 123.749 76.0979 124.555 76.0979 125.6C76.0979 126.656 76.3539 127.472 76.8659 128.048C77.3779 128.624 78.0499 128.912 78.8819 128.912C79.5219 128.912 80.0552 128.763 80.4819 128.464C80.9085 128.165 81.2019 127.739 81.3619 127.184H82.9299C82.6952 128.08 82.2259 128.8 81.5219 129.344C80.8179 129.877 79.9379 130.144 78.8819 130.144C78.0499 130.144 77.3085 129.957 76.6579 129.584C76.0179 129.211 75.5165 128.683 75.1539 128C74.7912 127.317 74.6099 126.517 74.6099 125.6ZM92.8726 125.28C92.8726 125.557 92.8566 125.851 92.8246 126.16H85.8166C85.87 127.024 86.1633 127.701 86.6966 128.192C87.2406 128.672 87.8966 128.912 88.6646 128.912C89.294 128.912 89.8166 128.768 90.2326 128.48C90.6593 128.181 90.958 127.787 91.1286 127.296H92.6966C92.462 128.139 91.9926 128.827 91.2886 129.36C90.5846 129.883 89.71 130.144 88.6646 130.144C87.8326 130.144 87.086 129.957 86.4246 129.584C85.774 129.211 85.262 128.683 84.8886 128C84.5153 127.307 84.3286 126.507 84.3286 125.6C84.3286 124.693 84.51 123.899 84.8726 123.216C85.2353 122.533 85.742 122.011 86.3926 121.648C87.054 121.275 87.8113 121.088 88.6646 121.088C89.4966 121.088 90.2326 121.269 90.8726 121.632C91.5126 121.995 92.0033 122.496 92.3446 123.136C92.6966 123.765 92.8726 124.48 92.8726 125.28ZM91.3686 124.976C91.3686 124.421 91.246 123.947 91.0006 123.552C90.7553 123.147 90.4193 122.843 89.9926 122.64C89.5766 122.427 89.1126 122.32 88.6006 122.32C87.8646 122.32 87.2353 122.555 86.7126 123.024C86.2006 123.493 85.9073 124.144 85.8326 124.976H91.3686Z" fill="#AFAFAF"/>
</svg>
