<svg width="48" height="48" viewBox="0 0 48 48" fill="none" xmlns="http://www.w3.org/2000/svg">
<path d="M42.5418 12.9204V34.4174C42.5418 34.5469 42.4705 34.6659 42.3563 34.727L24.1657 44.4611C24.0622 44.5165 23.9378 44.5165 23.8343 44.4611L5.64368 34.727C5.52948 34.6659 5.45819 34.5469 5.45819 34.4174V12.9204C5.45819 12.7909 5.52948 12.6719 5.64368 12.6108L23.8343 2.87668C23.9378 2.82129 24.0622 2.82129 24.1657 2.87668L42.3563 12.6108C42.4705 12.6719 42.5418 12.7909 42.5418 12.9204Z" fill="#E2E2E2" stroke="#CBCBCB" stroke-width="4.91639"/>
<path d="M23.9425 16.0866L13.0556 17.4823C13.0313 17.4855 13.0089 17.4701 13.0044 17.4461C12.6919 15.745 14.5652 12.2905 23.9691 12.2905C31.5329 12.2905 34.5107 15.0374 35.0615 16.4225C35.0647 16.4306 35.0653 16.4388 35.0638 16.4474L32.0468 33.1461C32.0463 33.1487 32.0457 33.1512 32.0447 33.1537C31.6894 34.1148 29.5102 36.0579 23.618 36.1701C17.7265 36.2823 14.8 32.9019 14.2091 31.1906C14.2074 31.1857 14.2066 31.1807 14.2066 31.1756V27.748C14.2066 27.7025 14.266 27.6834 14.2931 27.7199C18.0599 32.801 24.7361 32.398 27.6581 31.614C27.6785 31.6085 27.6916 31.5902 27.6916 31.5691V20.9452C27.6916 20.9349 27.6882 20.9249 27.6819 20.9167L23.9855 16.1045C23.9754 16.0913 23.959 16.0845 23.9425 16.0866Z" fill="white"/>
<path d="M23.5895 17.2807L14.9365 18.4576C14.8974 18.4629 14.8817 18.5106 14.911 18.5369C17.5088 20.8693 23.407 21.2022 26.1354 21.0735C26.1719 21.0718 26.1903 21.0308 26.1696 21.0006L23.6345 17.3007C23.6244 17.2861 23.6071 17.2784 23.5895 17.2807Z" fill="#CBCBCB"/>
<path d="M15.3302 26.6838L14.8463 19.8402C14.8434 19.7998 14.8899 19.7749 14.9222 19.7995C18.2777 22.3589 23.7689 22.4704 26.1653 22.1992C26.1934 22.196 26.2165 22.2169 26.2161 22.2452C26.1929 23.9504 26.1615 27.8645 26.2159 30.3693C26.2164 30.3932 26.198 30.4131 26.1743 30.4162C18.5713 31.4098 15.7792 28.3525 15.3316 26.6924C15.3309 26.6895 15.3304 26.6867 15.3302 26.6838Z" fill="#CBCBCB"/>
</svg>
