<svg width="48" height="48" viewBox="0 0 48 48" fill="none" xmlns="http://www.w3.org/2000/svg">
<path d="M36.9385 1H11.0635C5.50611 1 1.00098 5.50513 1.00098 11.0625V36.9375C1.00098 42.4949 5.50611 47 11.0635 47H36.9385C42.4958 47 47.001 42.4949 47.001 36.9375V11.0625C47.001 5.50513 42.4958 1 36.9385 1Z" fill="#CBCBCB"/>
<path d="M2.06357 2.06375L45.9373 45.9373M45.9393 2.0607L2.06177 45.9382M33.0791 1V47M14.9211 1V47M47.0005 33.0789H1.00054M47 14.9211H1M1 24H47M24 1V47M24 36.829C31.0854 36.829 36.8291 31.0853 36.8291 24C36.8291 16.9147 31.0854 11.1709 24 11.1709C16.9149 11.1709 11.171 16.9147 11.171 24C11.171 31.0853 16.9147 36.829 24 36.829Z" stroke="#E2E2E2" stroke-width="0.0898437"/>
<path fill-rule="evenodd" clip-rule="evenodd" d="M24.0007 41.8549C33.8619 41.8549 41.8559 33.861 41.8559 23.9997C41.8559 14.1385 33.8619 6.14453 24.0007 6.14453C14.1394 6.14453 6.14551 14.1385 6.14551 23.9997C6.14551 33.861 14.1394 41.8549 24.0007 41.8549Z" stroke="white" stroke-width="0.539062"/>
<path d="M24.0003 33.0669C29.0076 33.0669 33.0669 29.0076 33.0669 24.0003C33.0669 18.9929 29.0076 14.9336 24.0003 14.9336C18.9929 14.9336 14.9336 18.9929 14.9336 24.0003C14.9336 29.0076 18.9929 33.0669 24.0003 33.0669Z" stroke="white" stroke-width="0.539062"/>
<path d="M31.8561 28.5415L24.1744 41.8466M16.1357 28.5408L8.4541 15.2358M24.0008 14.9336H39.3641M24.0007 31.1105C27.9274 31.1105 31.1107 27.9272 31.1107 24.0003C31.1107 20.0734 27.9274 16.89 24.0007 16.89C20.0738 16.89 16.8904 20.0734 16.8904 24.0003C16.8904 27.9272 20.0738 31.1105 24.0007 31.1105Z" stroke="white" stroke-width="0.539062"/>
</svg>
