<svg width="96" height="136" viewBox="0 0 96 136" fill="none" xmlns="http://www.w3.org/2000/svg">
<circle cx="48" cy="48" r="46" fill="#E2E2E2"/>
<path d="M34.3369 56.0671V40.3148H35.192V42.7928C35.293 42.683 35.3863 42.5664 35.4712 42.4438C35.8206 41.7185 36.3696 41.1078 37.0536 40.6833C37.7377 40.2589 38.5287 40.0382 39.3337 40.0472C41.2824 39.989 42.8646 40.7103 43.7953 42.4438C44.3875 43.5206 44.7134 44.7236 44.7458 45.9521C44.7782 47.1806 44.5161 48.399 43.9814 49.5056C43.1147 51.4484 40.9741 52.414 38.6822 52.0592C37.969 51.9985 37.2823 51.7601 36.6849 51.3659C36.0874 50.9716 35.5982 50.4341 35.2618 49.8022V56.0671H34.3369ZM35.192 45.8874C35.2676 46.6553 35.2967 47.2021 35.384 47.7372C35.7214 49.843 36.9662 51.0936 38.9207 51.3205C39.8384 51.4713 40.78 51.2993 41.5851 50.8336C42.3902 50.368 43.0089 49.6375 43.3358 48.7668C43.7113 47.8712 43.8921 46.906 43.866 45.9351C43.84 44.9643 43.6076 44.0101 43.1845 43.136C42.8356 42.3556 42.2423 41.7099 41.4941 41.2964C40.7458 40.883 39.8834 40.7242 39.037 40.8441C38.2424 40.9017 37.4854 41.2054 36.8713 41.7132C36.2573 42.2209 35.8167 42.9073 35.6108 43.677C35.4286 44.4051 35.2888 45.1431 35.192 45.8874Z" fill="#545454"/>
<path d="M62.1878 48.0283C62.0582 49.1374 61.5303 50.1616 60.7021 50.9106C59.8739 51.6596 58.8019 52.0823 57.6855 52.1002C54.1022 52.2805 52.4211 49.9014 52.1535 47.1558C51.9678 45.6647 52.2099 44.1517 52.8516 42.793C53.2984 41.8611 54.0302 41.0955 54.9411 40.6072C55.852 40.1188 56.8946 39.9329 57.9181 40.0765C58.8912 40.159 59.8136 40.5455 60.5549 41.1813C61.2961 41.817 61.8185 42.6699 62.0482 43.619C62.2302 44.4835 62.3642 45.3574 62.4496 46.2367H53.0319C52.8574 48.7263 54.1953 50.7274 56.0916 51.2102C58.4533 51.7919 60.4718 50.7681 61.2047 48.5227C61.3676 47.9469 61.6643 47.8654 62.1878 48.0283ZM53.0319 45.4397H61.449C61.3967 42.7872 59.7447 40.8676 57.5051 40.8385C54.9689 40.7978 53.1424 42.6476 53.0319 45.4397Z" fill="#545454"/>
<path d="M63.922 48.0869H64.748C64.7785 48.6947 64.976 49.2823 65.3187 49.7852C65.6615 50.288 66.1363 50.6867 66.6908 50.9372C67.3872 51.2506 68.1454 51.4029 68.9088 51.3828C69.6722 51.3626 70.4212 51.1706 71.1001 50.8209C71.4701 50.6541 71.78 50.3778 71.988 50.0294C72.1961 49.6809 72.2922 49.277 72.2635 48.8722C72.2848 48.4818 72.1781 48.0951 71.9598 47.7707C71.7415 47.4463 71.4233 47.202 71.0536 47.0748C70.1461 46.7374 69.1805 46.5512 68.2556 46.2546C67.2933 45.9805 66.3523 45.6364 65.4402 45.225C63.9511 44.4979 63.858 41.665 65.5449 40.7692C66.4087 40.2817 67.3808 40.0184 68.3725 40.0031C69.3642 39.9879 70.3439 40.2213 71.2223 40.6819C71.7543 40.976 72.1841 41.4253 72.4543 41.9698C72.7246 42.5144 72.8223 43.1284 72.7347 43.73H72.025C72.025 43.6951 71.961 43.666 71.961 43.6311C71.8738 41.3683 69.9774 40.6703 67.9415 40.8681C67.3337 40.943 66.7434 41.1221 66.1964 41.3974C65.8678 41.5477 65.5939 41.7963 65.4126 42.1089C65.2313 42.4215 65.1515 42.7826 65.1843 43.1425C65.1853 43.5025 65.2976 43.8535 65.5059 44.1471C65.7142 44.4408 66.0082 44.6629 66.3476 44.7829C67.2435 45.1086 68.18 45.318 69.0991 45.574C69.8378 45.7776 70.6057 45.9114 71.3211 46.1557C71.8261 46.3212 72.269 46.6362 72.591 47.059C72.913 47.4818 73.099 47.9924 73.1244 48.5232C73.2107 49.1048 73.1116 49.6988 72.8412 50.2209C72.5707 50.743 72.1427 51.1667 71.6178 51.4317C69.6749 52.5311 66.4756 52.2402 65.0505 50.85C64.6893 50.4867 64.4036 50.0555 64.2099 49.5813C64.0162 49.1071 63.9184 48.5992 63.922 48.0869Z" fill="#545454"/>
<path d="M83.5953 43.7295H82.8216C82.8216 43.6247 82.7809 43.5317 82.7693 43.4444C82.7567 42.8645 82.5453 42.3065 82.1705 41.8639C81.7956 41.4212 81.28 41.1208 80.7101 41.0129C79.6347 40.7044 78.4875 40.7596 77.4468 41.17C77.0354 41.2879 76.6732 41.5358 76.4142 41.8765C76.1553 42.2172 76.0135 42.6326 76.01 43.0605C75.9955 43.4808 76.1265 43.8932 76.3809 44.2281C76.6352 44.5629 76.9973 44.7998 77.4061 44.8987C78.5694 45.2593 79.7619 45.4804 80.9428 45.8061C81.3254 45.898 81.7023 46.0126 82.0713 46.1493C82.6223 46.3464 83.101 46.7052 83.4449 47.1787C83.7887 47.6523 83.9818 48.2185 83.9987 48.8035C84.0157 49.3884 83.8558 49.9649 83.54 50.4576C83.2241 50.9502 82.767 51.3362 82.2283 51.5649C81.4074 51.9377 80.5177 52.1349 79.6162 52.1439C78.7147 52.1529 77.8212 51.9735 76.993 51.6173C76.312 51.3235 75.7373 50.8282 75.3462 50.198C74.9552 49.5677 74.7666 48.8328 74.8059 48.0922H75.1316H75.5621C75.702 48.7671 76.0043 49.3978 76.4428 49.9295C76.8814 50.4613 77.4429 50.8782 78.0789 51.144C78.7148 51.4099 79.406 51.5167 80.0926 51.4552C80.7791 51.3937 81.4403 51.1658 82.0189 50.7912C82.3714 50.6081 82.6639 50.3278 82.8619 49.9834C83.0599 49.639 83.1549 49.2451 83.1358 48.8484C83.1533 48.4577 83.0429 48.072 82.8214 47.7497C82.5999 47.4275 82.2794 47.1862 81.9084 47.0626C81.0009 46.7252 80.0353 46.5449 79.1104 46.2482C78.1426 45.9784 77.1958 45.6381 76.2776 45.2302C74.8233 44.5147 74.707 41.7052 76.3648 40.8093C77.2393 40.3015 78.2304 40.0287 79.2416 40.0175C80.2528 40.0062 81.2497 40.257 82.1352 40.7454C82.6417 41.0477 83.0493 41.4907 83.3085 42.0205C83.5678 42.5503 83.6674 43.1441 83.5953 43.7295Z" fill="#545454"/>
<path d="M32.925 51.8158C32.6205 51.9311 32.2842 51.9308 31.9798 51.8151C31.6754 51.6993 31.424 51.4761 31.273 51.1875C30.3248 49.7682 29.2778 48.4128 28.2714 47.0284L27.8352 46.4467C26.6369 48.0522 25.4386 49.5937 24.345 51.1933C24.2025 51.4691 23.9647 51.6837 23.6757 51.7971C23.3868 51.9106 23.0665 51.9151 22.7744 51.8099L27.2709 45.7778L23.0885 40.3273C23.3896 40.2186 23.7189 40.2171 24.021 40.323C24.323 40.429 24.5792 40.636 24.7464 40.909C25.7178 42.3283 26.7939 43.6836 27.8643 45.1204C28.9404 43.6953 30.0049 42.3341 30.9996 40.9264C31.1429 40.6551 31.3809 40.4459 31.6683 40.3387C31.9557 40.2314 32.2726 40.2336 32.5585 40.3447L30.9356 42.497C30.2085 43.4568 29.493 44.4224 28.7368 45.3589C28.6759 45.4135 28.6271 45.4803 28.5938 45.555C28.5604 45.6296 28.5431 45.7105 28.5431 45.7923C28.5431 45.8741 28.5604 45.955 28.5938 46.0296C28.6271 46.1043 28.6759 46.1711 28.7368 46.2257C30.1271 48.0696 31.5057 49.9194 32.925 51.8158Z" fill="#545454"/>
<path d="M52.0149 40.2686V41.0829C51.4266 41.0443 50.8367 41.1295 50.2833 41.333C49.7299 41.5365 49.2254 41.8538 48.8022 42.2644C48.3791 42.6749 48.0467 43.1696 47.8266 43.7166C47.6064 44.2636 47.5034 44.8506 47.5242 45.4398C47.5242 47.3556 47.5242 49.2713 47.5242 51.187C47.5242 51.3906 47.5242 51.5942 47.5242 51.8385H46.6924V40.3151H47.5068V42.6768C48.5131 40.955 50.0662 40.3151 52.0149 40.2686Z" fill="#545454"/>
<path d="M12 45.7017C12.1222 45.12 12.1978 44.486 12.3665 43.8926C13.3728 40.3152 17.4738 38.8261 20.295 41.0423C21.947 42.3395 22.36 44.1777 22.2786 46.2485H12.9714C12.8202 49.9481 15.4902 52.1818 18.9047 51.0417C19.4586 50.8436 19.9545 50.5106 20.3475 50.0729C20.7405 49.6352 21.0183 49.1065 21.1559 48.5346C21.3362 47.9529 21.6271 47.854 22.1797 48.0227C22.0887 48.7308 21.8383 49.4092 21.4473 50.0066C21.0564 50.6041 20.5351 51.1051 19.9227 51.4721C18.9108 52.0255 17.7498 52.2447 16.6058 52.0984C15.4618 51.9522 14.3933 51.4479 13.5531 50.6578C12.722 49.7232 12.2194 48.5424 12.1222 47.2956C12.1222 47.0978 12.0465 46.9 12.0058 46.7139C12.0019 46.3687 12 46.0313 12 45.7017ZM12.9831 45.4516H21.4002C21.3479 42.77 19.6551 40.8678 17.3981 40.8504C14.8852 40.8155 13.0878 42.6769 12.9772 45.4399L12.9831 45.4516Z" fill="#545454"/>
<path d="M9.688 120.032V123.76H13.752V124.96H9.688V128.8H14.232V130H8.232V118.832H14.232V120.032H9.688ZM21.0111 130L18.9311 126.736L16.9311 130H15.4111L18.2431 125.648L15.4111 121.232H17.0591L19.1391 124.48L21.1231 121.232H22.6431L19.8271 125.568L22.6591 130H21.0111ZM25.5474 122.848C25.8354 122.347 26.262 121.931 26.8274 121.6C27.4034 121.259 28.07 121.088 28.8274 121.088C29.606 121.088 30.31 121.275 30.9394 121.648C31.5794 122.021 32.0807 122.549 32.4434 123.232C32.806 123.904 32.9874 124.688 32.9874 125.584C32.9874 126.469 32.806 127.259 32.4434 127.952C32.0807 128.645 31.5794 129.184 30.9394 129.568C30.31 129.952 29.606 130.144 28.8274 130.144C28.0807 130.144 27.4194 129.979 26.8434 129.648C26.278 129.307 25.846 128.885 25.5474 128.384V134.16H24.0914V121.232H25.5474V122.848ZM31.4994 125.584C31.4994 124.923 31.366 124.347 31.0994 123.856C30.8327 123.365 30.47 122.992 30.0114 122.736C29.5634 122.48 29.0674 122.352 28.5234 122.352C27.99 122.352 27.494 122.485 27.0354 122.752C26.5874 123.008 26.2247 123.387 25.9474 123.888C25.6807 124.379 25.5474 124.949 25.5474 125.6C25.5474 126.261 25.6807 126.843 25.9474 127.344C26.2247 127.835 26.5874 128.213 27.0354 128.48C27.494 128.736 27.99 128.864 28.5234 128.864C29.0674 128.864 29.5634 128.736 30.0114 128.48C30.47 128.213 30.8327 127.835 31.0994 127.344C31.366 126.843 31.4994 126.256 31.4994 125.584ZM36.3599 122.656C36.6159 122.155 36.9785 121.765 37.4479 121.488C37.9279 121.211 38.5092 121.072 39.1919 121.072V122.576H38.8079C37.1759 122.576 36.3599 123.461 36.3599 125.232V130H34.9039V121.232H36.3599V122.656ZM48.8726 125.28C48.8726 125.557 48.8566 125.851 48.8246 126.16H41.8166C41.87 127.024 42.1633 127.701 42.6966 128.192C43.2406 128.672 43.8966 128.912 44.6646 128.912C45.294 128.912 45.8166 128.768 46.2326 128.48C46.6593 128.181 46.958 127.787 47.1286 127.296H48.6966C48.462 128.139 47.9926 128.827 47.2886 129.36C46.5846 129.883 45.71 130.144 44.6646 130.144C43.8326 130.144 43.086 129.957 42.4246 129.584C41.774 129.211 41.262 128.683 40.8886 128C40.5153 127.307 40.3286 126.507 40.3286 125.6C40.3286 124.693 40.51 123.899 40.8726 123.216C41.2353 122.533 41.742 122.011 42.3926 121.648C43.054 121.275 43.8113 121.088 44.6646 121.088C45.4966 121.088 46.2326 121.269 46.8726 121.632C47.5126 121.995 48.0033 122.496 48.3446 123.136C48.6966 123.765 48.8726 124.48 48.8726 125.28ZM47.3686 124.976C47.3686 124.421 47.246 123.947 47.0006 123.552C46.7553 123.147 46.4193 122.843 45.9926 122.64C45.5766 122.427 45.1126 122.32 44.6006 122.32C43.8646 122.32 43.2353 122.555 42.7126 123.024C42.2006 123.493 41.9073 124.144 41.8326 124.976H47.3686ZM53.8985 130.144C53.2265 130.144 52.6238 130.032 52.0905 129.808C51.5572 129.573 51.1358 129.253 50.8265 128.848C50.5172 128.432 50.3465 127.957 50.3145 127.424H51.8185C51.8612 127.861 52.0638 128.219 52.4265 128.496C52.7998 128.773 53.2852 128.912 53.8825 128.912C54.4372 128.912 54.8745 128.789 55.1945 128.544C55.5145 128.299 55.6745 127.989 55.6745 127.616C55.6745 127.232 55.5038 126.949 55.1625 126.768C54.8212 126.576 54.2932 126.389 53.5785 126.208C52.9278 126.037 52.3945 125.867 51.9785 125.696C51.5732 125.515 51.2212 125.253 50.9225 124.912C50.6345 124.56 50.4905 124.101 50.4905 123.536C50.4905 123.088 50.6238 122.677 50.8905 122.304C51.1572 121.931 51.5358 121.637 52.0265 121.424C52.5172 121.2 53.0772 121.088 53.7065 121.088C54.6772 121.088 55.4612 121.333 56.0585 121.824C56.6558 122.315 56.9758 122.987 57.0185 123.84H55.5625C55.5305 123.381 55.3438 123.013 55.0025 122.736C54.6718 122.459 54.2238 122.32 53.6585 122.32C53.1358 122.32 52.7198 122.432 52.4105 122.656C52.1012 122.88 51.9465 123.173 51.9465 123.536C51.9465 123.824 52.0372 124.064 52.2185 124.256C52.4105 124.437 52.6452 124.587 52.9225 124.704C53.2105 124.811 53.6052 124.933 54.1065 125.072C54.7358 125.243 55.2478 125.413 55.6425 125.584C56.0372 125.744 56.3732 125.989 56.6505 126.32C56.9385 126.651 57.0878 127.083 57.0985 127.616C57.0985 128.096 56.9652 128.528 56.6985 128.912C56.4318 129.296 56.0532 129.6 55.5625 129.824C55.0825 130.037 54.5278 130.144 53.8985 130.144ZM62.2579 130.144C61.5859 130.144 60.9832 130.032 60.4499 129.808C59.9165 129.573 59.4952 129.253 59.1859 128.848C58.8765 128.432 58.7059 127.957 58.6739 127.424H60.1779C60.2205 127.861 60.4232 128.219 60.7859 128.496C61.1592 128.773 61.6445 128.912 62.2419 128.912C62.7965 128.912 63.2339 128.789 63.5539 128.544C63.8739 128.299 64.0339 127.989 64.0339 127.616C64.0339 127.232 63.8632 126.949 63.5219 126.768C63.1805 126.576 62.6525 126.389 61.9379 126.208C61.2872 126.037 60.7539 125.867 60.3379 125.696C59.9325 125.515 59.5805 125.253 59.2819 124.912C58.9939 124.56 58.8499 124.101 58.8499 123.536C58.8499 123.088 58.9832 122.677 59.2499 122.304C59.5165 121.931 59.8952 121.637 60.3859 121.424C60.8765 121.2 61.4365 121.088 62.0659 121.088C63.0365 121.088 63.8205 121.333 64.4179 121.824C65.0152 122.315 65.3352 122.987 65.3779 123.84H63.9219C63.8899 123.381 63.7032 123.013 63.3619 122.736C63.0312 122.459 62.5832 122.32 62.0179 122.32C61.4952 122.32 61.0792 122.432 60.7699 122.656C60.4605 122.88 60.3059 123.173 60.3059 123.536C60.3059 123.824 60.3965 124.064 60.5779 124.256C60.7699 124.437 61.0045 124.587 61.2819 124.704C61.5699 124.811 61.9645 124.933 62.4659 125.072C63.0952 125.243 63.6072 125.413 64.0019 125.584C64.3965 125.744 64.7325 125.989 65.0099 126.32C65.2979 126.651 65.4472 127.083 65.4579 127.616C65.4579 128.096 65.3245 128.528 65.0579 128.912C64.7912 129.296 64.4125 129.6 63.9219 129.824C63.4419 130.037 62.8872 130.144 62.2579 130.144ZM77.3949 118.848V127.088C77.3949 128.005 77.1122 128.741 76.5469 129.296C75.9815 129.84 75.2349 130.112 74.3069 130.112C73.3682 130.112 72.6162 129.835 72.0509 129.28C71.4855 128.715 71.2029 127.947 71.2029 126.976H72.6589C72.6695 127.52 72.8082 127.963 73.0749 128.304C73.3522 128.645 73.7629 128.816 74.3069 128.816C74.8509 128.816 75.2562 128.656 75.5229 128.336C75.7895 128.005 75.9229 127.589 75.9229 127.088V118.848H77.3949ZM83.7993 130.112C83.0633 130.112 82.4019 129.984 81.8153 129.728C81.2393 129.461 80.7859 129.099 80.4553 128.64C80.1246 128.171 79.9539 127.632 79.9433 127.024H81.4953C81.5486 127.547 81.7619 127.989 82.1353 128.352C82.5193 128.704 83.0739 128.88 83.7993 128.88C84.4926 128.88 85.0366 128.709 85.4313 128.368C85.8366 128.016 86.0393 127.568 86.0393 127.024C86.0393 126.597 85.9219 126.251 85.6873 125.984C85.4526 125.717 85.1593 125.515 84.8073 125.376C84.4553 125.237 83.9806 125.088 83.3833 124.928C82.6473 124.736 82.0553 124.544 81.6073 124.352C81.1699 124.16 80.7913 123.861 80.4713 123.456C80.1619 123.04 80.0073 122.485 80.0073 121.792C80.0073 121.184 80.1619 120.645 80.4713 120.176C80.7806 119.707 81.2126 119.344 81.7673 119.088C82.3326 118.832 82.9779 118.704 83.7033 118.704C84.7486 118.704 85.6019 118.965 86.2633 119.488C86.9353 120.011 87.3139 120.704 87.3993 121.568H85.7993C85.7459 121.141 85.5219 120.768 85.1273 120.448C84.7326 120.117 84.2099 119.952 83.5593 119.952C82.9513 119.952 82.4553 120.112 82.0713 120.432C81.6873 120.741 81.4953 121.179 81.4953 121.744C81.4953 122.149 81.6073 122.48 81.8313 122.736C82.0659 122.992 82.3486 123.189 82.6793 123.328C83.0206 123.456 83.4953 123.605 84.1033 123.776C84.8393 123.979 85.4313 124.181 85.8793 124.384C86.3273 124.576 86.7113 124.88 87.0312 125.296C87.3513 125.701 87.5113 126.256 87.5113 126.96C87.5113 127.504 87.3673 128.016 87.0793 128.496C86.7913 128.976 86.3646 129.365 85.7993 129.664C85.2339 129.963 84.5673 130.112 83.7993 130.112Z" fill="#AFAFAF"/>
</svg>
