<svg width="48" height="48" viewBox="0 0 48 48" fill="none" xmlns="http://www.w3.org/2000/svg">
<circle cx="24" cy="24" r="23" fill="#E2E2E2"/>
<path d="M17.1689 28.0336V20.1574H17.5965V21.3964C17.647 21.3415 17.6936 21.2832 17.7361 21.2219C17.9108 20.8592 18.1853 20.5539 18.5273 20.3417C18.8694 20.1294 19.2648 20.0191 19.6673 20.0236C20.6417 19.9945 21.4328 20.3552 21.8981 21.2219C22.1942 21.7603 22.3572 22.3618 22.3734 22.976C22.3896 23.5903 22.2585 24.1995 21.9912 24.7528C21.5578 25.7242 20.4875 26.207 19.3416 26.0296C18.985 25.9992 18.6416 25.88 18.3429 25.6829C18.0442 25.4858 17.7996 25.217 17.6314 24.9011V28.0336H17.1689ZM17.5965 22.9437C17.6343 23.3276 17.6488 23.601 17.6925 23.8686C17.8612 24.9215 18.4836 25.5468 19.4608 25.6602C19.9197 25.7357 20.3905 25.6496 20.7931 25.4168C21.1956 25.184 21.5049 24.8188 21.6684 24.3834C21.8562 23.9356 21.9465 23.453 21.9335 22.9676C21.9205 22.4822 21.8043 22.0051 21.5927 21.568C21.4183 21.1778 21.1216 20.8549 20.7475 20.6482C20.3734 20.4415 19.9422 20.3621 19.519 20.4221C19.1217 20.4508 18.7432 20.6027 18.4362 20.8566C18.1291 21.1104 17.9088 21.4536 17.8059 21.8385C17.7148 22.2025 17.6449 22.5716 17.5965 22.9437V22.9437Z" fill="#545454"/>
<path d="M31.0944 24.0141C31.0296 24.5687 30.7656 25.0808 30.3515 25.4553C29.9375 25.8298 29.4015 26.0412 28.8432 26.0501C27.0516 26.1402 26.211 24.9507 26.0773 23.5779C25.9844 22.8324 26.1054 22.0758 26.4263 21.3965C26.6497 20.9305 27.0156 20.5478 27.471 20.3036C27.9265 20.0594 28.4478 19.9665 28.9596 20.0383C29.4461 20.0795 29.9073 20.2727 30.2779 20.5906C30.6485 20.9085 30.9097 21.3349 31.0246 21.8095C31.1156 22.2417 31.1826 22.6787 31.2253 23.1183H26.5164C26.4292 24.3632 27.0981 25.3637 28.0463 25.6051C29.2271 25.8959 30.2364 25.384 30.6029 24.2614C30.6843 23.9734 30.8326 23.9327 31.0944 24.0141ZM26.5164 22.7199H30.725C30.6988 21.3936 29.8728 20.4338 28.7531 20.4193C27.485 20.3989 26.5717 21.3238 26.5164 22.7199Z" fill="#545454"/>
<path d="M31.961 24.0432H32.374C32.3892 24.3471 32.488 24.6409 32.6594 24.8923C32.8308 25.1438 33.0681 25.3431 33.3454 25.4684C33.6936 25.6251 34.0727 25.7012 34.4544 25.6911C34.8361 25.6811 35.2106 25.585 35.5501 25.4102C35.735 25.3268 35.89 25.1887 35.994 25.0144C36.098 24.8402 36.1461 24.6383 36.1317 24.4359C36.1424 24.2406 36.0891 24.0473 35.9799 23.8851C35.8707 23.7229 35.7116 23.6008 35.5268 23.5371C35.0731 23.3684 34.5903 23.2754 34.1278 23.127C33.6466 22.99 33.1761 22.818 32.7201 22.6122C31.9755 22.2487 31.929 20.8323 32.7725 20.3843C33.2043 20.1406 33.6904 20.0089 34.1862 20.0013C34.6821 19.9937 35.172 20.1104 35.6111 20.3407C35.8772 20.4878 36.0921 20.7124 36.2272 20.9847C36.3623 21.257 36.4112 21.564 36.3673 21.8648H36.0125C36.0125 21.8473 35.9805 21.8328 35.9805 21.8153C35.9369 20.6839 34.9887 20.3349 33.9707 20.4338C33.6669 20.4713 33.3717 20.5608 33.0982 20.6985C32.9339 20.7736 32.797 20.8979 32.7063 21.0542C32.6157 21.2105 32.5758 21.3911 32.5921 21.571C32.5926 21.751 32.6488 21.9265 32.7529 22.0733C32.8571 22.2202 33.0041 22.3312 33.1738 22.3912C33.6217 22.5541 34.09 22.6588 34.5495 22.7868C34.9189 22.8885 35.3028 22.9554 35.6606 23.0776C35.9131 23.1604 36.1345 23.3179 36.2955 23.5293C36.4565 23.7406 36.5495 23.9959 36.5622 24.2614C36.6054 24.5522 36.5558 24.8492 36.4206 25.1102C36.2854 25.3713 36.0713 25.5831 35.8089 25.7156C34.8375 26.2653 33.2378 26.1199 32.5252 25.4247C32.3446 25.2431 32.2018 25.0275 32.105 24.7904C32.0081 24.5533 31.9592 24.2993 31.961 24.0432Z" fill="#545454"/>
<path d="M41.7976 21.865H41.4108C41.4108 21.8126 41.3905 21.7661 41.3846 21.7225C41.3784 21.4325 41.2727 21.1535 41.0852 20.9322C40.8978 20.7109 40.64 20.5606 40.355 20.5067C39.8174 20.3524 39.2438 20.38 38.7234 20.5852C38.5177 20.6442 38.3366 20.7681 38.2071 20.9385C38.0776 21.1089 38.0067 21.3165 38.005 21.5305C37.9978 21.7406 38.0633 21.9468 38.1904 22.1143C38.3176 22.2817 38.4987 22.4001 38.703 22.4496C39.2847 22.6299 39.881 22.7404 40.4714 22.9033C40.6627 22.9492 40.8511 23.0065 41.0356 23.0749C41.3111 23.1735 41.5505 23.3529 41.7224 23.5896C41.8944 23.8264 41.9909 24.1095 41.9994 24.402C42.0079 24.6945 41.9279 24.9827 41.77 25.229C41.612 25.4754 41.3835 25.6683 41.1142 25.7827C40.7037 25.9691 40.2589 26.0677 39.8081 26.0722C39.3573 26.0767 38.9106 25.987 38.4965 25.8089C38.156 25.662 37.8686 25.4143 37.6731 25.0992C37.4776 24.7841 37.3833 24.4167 37.4029 24.0463H37.5658H37.781C37.851 24.3838 38.0021 24.6991 38.2214 24.965C38.4407 25.2309 38.7215 25.4393 39.0394 25.5723C39.3574 25.7052 39.703 25.7586 40.0463 25.7278C40.3895 25.6971 40.7201 25.5832 41.0095 25.3959C41.1857 25.3043 41.332 25.1641 41.4309 24.9919C41.5299 24.8198 41.5774 24.6228 41.5679 24.4244C41.5766 24.2291 41.5215 24.0362 41.4107 23.8751C41.3 23.714 41.1397 23.5933 40.9542 23.5315C40.5005 23.3628 40.0177 23.2727 39.5552 23.1243C39.0713 22.9894 38.5979 22.8193 38.1388 22.6154C37.4117 22.2576 37.3535 20.8528 38.1824 20.4049C38.6197 20.151 39.1152 20.0146 39.6208 20.009C40.1264 20.0034 40.6248 20.1287 41.0676 20.3729C41.3208 20.5241 41.5247 20.7456 41.6543 21.0105C41.7839 21.2754 41.8337 21.5723 41.7976 21.865V21.865Z" fill="#545454"/>
<path d="M16.462 25.9076C16.3097 25.9653 16.1416 25.9652 15.9894 25.9073C15.8372 25.8494 15.7115 25.7378 15.636 25.5935C15.1619 24.8839 14.6384 24.2062 14.1352 23.514L13.9171 23.2231C13.3179 24.0258 12.7188 24.7966 12.172 25.5964C12.1008 25.7343 11.9818 25.8416 11.8374 25.8983C11.6929 25.955 11.5327 25.9573 11.3867 25.9047L13.635 22.8886L11.5438 20.1634C11.6943 20.109 11.859 20.1083 12.01 20.1613C12.161 20.2143 12.2891 20.3177 12.3727 20.4542C12.8584 21.1639 13.3965 21.8416 13.9316 22.56C14.4697 21.8474 15.002 21.1668 15.4993 20.463C15.5709 20.3273 15.6899 20.2227 15.8337 20.1691C15.9774 20.1155 16.1358 20.1165 16.2788 20.1721L15.4673 21.2483C15.1038 21.7281 14.746 22.211 14.3679 22.6792C14.3374 22.7065 14.3131 22.7399 14.2964 22.7772C14.2797 22.8146 14.2711 22.855 14.2711 22.8959C14.2711 22.9368 14.2797 22.9772 14.2964 23.0146C14.3131 23.0519 14.3374 23.0853 14.3679 23.1126C15.063 24.0346 15.7523 24.9595 16.462 25.9076V25.9076Z" fill="#545454"/>
<path d="M26.0079 20.1343V20.5415C25.7138 20.5222 25.4188 20.5648 25.1421 20.6665C24.8655 20.7683 24.6132 20.9269 24.4016 21.1322C24.19 21.3375 24.0238 21.5848 23.9138 21.8583C23.8037 22.1318 23.7522 22.4253 23.7626 22.7199C23.7626 23.6778 23.7626 24.6356 23.7626 25.5935C23.7626 25.6953 23.7626 25.7971 23.7626 25.9192H23.3467V20.1575H23.7539V21.3384C24.257 20.4775 25.0336 20.1575 26.0079 20.1343V20.1343Z" fill="#545454"/>
<path d="M6 22.8509C6.06108 22.56 6.09889 22.243 6.18323 21.9463C6.6864 20.1576 8.73688 19.413 10.1475 20.5212C10.9735 21.1698 11.18 22.0888 11.1393 23.1243H6.48572C6.4101 24.974 7.74509 26.0909 9.45237 25.5208C9.72931 25.4218 9.97723 25.2553 10.1737 25.0365C10.3702 24.8176 10.5092 24.5533 10.5779 24.2673C10.6681 23.9764 10.8135 23.927 11.0898 24.0113C11.0443 24.3654 10.9191 24.7046 10.7237 25.0033C10.5282 25.302 10.2676 25.5526 9.96135 25.7361C9.45539 26.0127 8.8749 26.1224 8.30289 26.0492C7.73088 25.9761 7.19664 25.724 6.77656 25.3289C6.36099 24.8616 6.10971 24.2712 6.06108 23.6478C6.06108 23.5489 6.02327 23.45 6.00291 23.3569C6.00097 23.1844 6 23.0157 6 22.8509ZM6.49153 22.7258H10.7001C10.6739 21.385 9.82756 20.4339 8.69907 20.4252C7.44261 20.4077 6.54389 21.3384 6.48862 22.72L6.49153 22.7258Z" fill="#545454"/>
</svg>
