<svg width="48" height="48" viewBox="0 0 48 48" fill="none" xmlns="http://www.w3.org/2000/svg">
<path d="M29.8166 17.6147L25.1122 21.8984L20.7471 13.2806L23.006 8.32411C23.5935 7.31786 24.51 7.32936 25.0828 8.32411L29.8166 17.6147Z" fill="#E2E2E2"/>
<path d="M20.7461 13.2808L25.1112 21.8986L7.53027 37.9051L20.7461 13.2808Z" fill="#AFAFAF"/>
<path d="M34.9606 11.0668C35.8008 10.2762 36.6703 10.5464 36.8921 11.6662L41.4687 37.6922L26.2994 46.6047C25.7707 46.8922 24.3607 47.0158 24.3607 47.0158C24.3607 47.0158 23.077 46.8663 22.5879 46.5845L7.53027 37.9049L34.9606 11.0668Z" fill="#CBCBCB"/>
<path d="M20.7475 13.2807L7.5332 37.9051L13.4185 1.91723C13.6359 0.795984 14.288 0.688171 14.8696 1.67717L20.7475 13.2807Z" fill="#E2E2E2"/>
</svg>
