<svg width="96" height="136" viewBox="0 0 96 136" fill="none" xmlns="http://www.w3.org/2000/svg">
<path d="M59.6322 35.2293L50.2234 43.7968L41.4932 26.5612L46.011 16.6482C47.186 14.6357 49.019 14.6587 50.1647 16.6482L59.6322 35.2293Z" fill="#E2E2E2"/>
<path d="M41.4931 26.561L50.2234 43.7967L15.0615 75.8098L41.4931 26.561Z" fill="#AFAFAF"/>
<path d="M69.9223 22.1336C71.6025 20.5523 73.3415 21.0928 73.7851 23.3324L82.9383 75.3843L52.5998 93.2093C51.5423 93.7843 48.7223 94.0316 48.7223 94.0316C48.7223 94.0316 46.155 93.7326 45.1768 93.1691L15.0615 75.8098L69.9223 22.1336Z" fill="#CBCBCB"/>
<path d="M41.4961 26.5613L15.0674 75.8101L26.8379 3.83447C27.2727 1.59197 28.5769 1.37634 29.7402 3.35434L41.4961 26.5613Z" fill="#E2E2E2"/>
<path d="M21.6376 118.848V120.032H16.7896V123.792H20.7256V124.976H16.7896V130H15.3336V118.848H21.6376ZM24.1481 119.808C23.8707 119.808 23.6361 119.712 23.4441 119.52C23.2521 119.328 23.1561 119.093 23.1561 118.816C23.1561 118.539 23.2521 118.304 23.4441 118.112C23.6361 117.92 23.8707 117.824 24.1481 117.824C24.4147 117.824 24.6387 117.92 24.8201 118.112C25.0121 118.304 25.1081 118.539 25.1081 118.816C25.1081 119.093 25.0121 119.328 24.8201 119.52C24.6387 119.712 24.4147 119.808 24.1481 119.808ZM24.8521 121.232V130H23.3961V121.232H24.8521ZM28.7896 122.656C29.0456 122.155 29.4082 121.765 29.8776 121.488C30.3576 121.211 30.9389 121.072 31.6216 121.072V122.576H31.2376C29.6056 122.576 28.7896 123.461 28.7896 125.232V130H27.3336V121.232H28.7896V122.656ZM41.3023 125.28C41.3023 125.557 41.2863 125.851 41.2543 126.16H34.2463C34.2996 127.024 34.593 127.701 35.1263 128.192C35.6703 128.672 36.3263 128.912 37.0943 128.912C37.7236 128.912 38.2463 128.768 38.6623 128.48C39.089 128.181 39.3876 127.787 39.5583 127.296H41.1263C40.8916 128.139 40.4223 128.827 39.7183 129.36C39.0143 129.883 38.1396 130.144 37.0943 130.144C36.2623 130.144 35.5156 129.957 34.8543 129.584C34.2036 129.211 33.6916 128.683 33.3183 128C32.945 127.307 32.7583 126.507 32.7583 125.6C32.7583 124.693 32.9396 123.899 33.3023 123.216C33.665 122.533 34.1716 122.011 34.8223 121.648C35.4836 121.275 36.241 121.088 37.0943 121.088C37.9263 121.088 38.6623 121.269 39.3023 121.632C39.9423 121.995 40.433 122.496 40.7743 123.136C41.1263 123.765 41.3023 124.48 41.3023 125.28ZM39.7983 124.976C39.7983 124.421 39.6756 123.947 39.4303 123.552C39.185 123.147 38.849 122.843 38.4223 122.64C38.0063 122.427 37.5423 122.32 37.0303 122.32C36.2943 122.32 35.665 122.555 35.1423 123.024C34.6303 123.493 34.337 124.144 34.2623 124.976H39.7983ZM44.6802 122.864C44.9789 122.341 45.4162 121.915 45.9922 121.584C46.5682 121.253 47.2242 121.088 47.9602 121.088C48.7495 121.088 49.4589 121.275 50.0882 121.648C50.7175 122.021 51.2135 122.549 51.5762 123.232C51.9389 123.904 52.1202 124.688 52.1202 125.584C52.1202 126.469 51.9389 127.259 51.5762 127.952C51.2135 128.645 50.7122 129.184 50.0722 129.568C49.4429 129.952 48.7389 130.144 47.9602 130.144C47.2029 130.144 46.5362 129.979 45.9602 129.648C45.3949 129.317 44.9682 128.896 44.6802 128.384V130H43.2242V118.16H44.6802V122.864ZM50.6322 125.584C50.6322 124.923 50.4989 124.347 50.2322 123.856C49.9655 123.365 49.6029 122.992 49.1442 122.736C48.6962 122.48 48.2002 122.352 47.6562 122.352C47.1229 122.352 46.6269 122.485 46.1682 122.752C45.7202 123.008 45.3575 123.387 45.0802 123.888C44.8135 124.379 44.6802 124.949 44.6802 125.6C44.6802 126.261 44.8135 126.843 45.0802 127.344C45.3575 127.835 45.7202 128.213 46.1682 128.48C46.6269 128.736 47.1229 128.864 47.6562 128.864C48.2002 128.864 48.6962 128.736 49.1442 128.48C49.6029 128.213 49.9655 127.835 50.2322 127.344C50.4989 126.843 50.6322 126.256 50.6322 125.584ZM53.4927 125.584C53.4927 124.688 53.674 123.904 54.0367 123.232C54.3994 122.549 54.8954 122.021 55.5247 121.648C56.1647 121.275 56.874 121.088 57.6527 121.088C58.4207 121.088 59.0874 121.253 59.6527 121.584C60.218 121.915 60.6394 122.331 60.9167 122.832V121.232H62.3887V130H60.9167V128.368C60.6287 128.88 60.1967 129.307 59.6207 129.648C59.0554 129.979 58.394 130.144 57.6367 130.144C56.858 130.144 56.154 129.952 55.5247 129.568C54.8954 129.184 54.3994 128.645 54.0367 127.952C53.674 127.259 53.4927 126.469 53.4927 125.584ZM60.9167 125.6C60.9167 124.939 60.7834 124.363 60.5167 123.872C60.25 123.381 59.8874 123.008 59.4287 122.752C58.9807 122.485 58.4847 122.352 57.9407 122.352C57.3967 122.352 56.9007 122.48 56.4527 122.736C56.0047 122.992 55.6474 123.365 55.3807 123.856C55.114 124.347 54.9807 124.923 54.9807 125.584C54.9807 126.256 55.114 126.843 55.3807 127.344C55.6474 127.835 56.0047 128.213 56.4527 128.48C56.9007 128.736 57.3967 128.864 57.9407 128.864C58.4847 128.864 58.9807 128.736 59.4287 128.48C59.8874 128.213 60.25 127.835 60.5167 127.344C60.7834 126.843 60.9167 126.261 60.9167 125.6ZM67.9532 130.144C67.2812 130.144 66.6785 130.032 66.1452 129.808C65.6119 129.573 65.1905 129.253 64.8812 128.848C64.5719 128.432 64.4012 127.957 64.3692 127.424H65.8732C65.9159 127.861 66.1185 128.219 66.4812 128.496C66.8545 128.773 67.3399 128.912 67.9372 128.912C68.4919 128.912 68.9292 128.789 69.2492 128.544C69.5692 128.299 69.7292 127.989 69.7292 127.616C69.7292 127.232 69.5585 126.949 69.2172 126.768C68.8759 126.576 68.3479 126.389 67.6332 126.208C66.9825 126.037 66.4492 125.867 66.0332 125.696C65.6279 125.515 65.2759 125.253 64.9772 124.912C64.6892 124.56 64.5452 124.101 64.5452 123.536C64.5452 123.088 64.6785 122.677 64.9452 122.304C65.2119 121.931 65.5905 121.637 66.0812 121.424C66.5719 121.2 67.1319 121.088 67.7612 121.088C68.7319 121.088 69.5159 121.333 70.1132 121.824C70.7105 122.315 71.0305 122.987 71.0732 123.84H69.6172C69.5852 123.381 69.3985 123.013 69.0572 122.736C68.7265 122.459 68.2785 122.32 67.7132 122.32C67.1905 122.32 66.7745 122.432 66.4652 122.656C66.1559 122.88 66.0012 123.173 66.0012 123.536C66.0012 123.824 66.0919 124.064 66.2732 124.256C66.4652 124.437 66.6999 124.587 66.9772 124.704C67.2652 124.811 67.6599 124.933 68.1612 125.072C68.7905 125.243 69.3025 125.413 69.6972 125.584C70.0919 125.744 70.4279 125.989 70.7052 126.32C70.9932 126.651 71.1425 127.083 71.1532 127.616C71.1532 128.096 71.0199 128.528 70.7532 128.912C70.4865 129.296 70.1079 129.6 69.6172 129.824C69.1372 130.037 68.5825 130.144 67.9532 130.144ZM81.2086 125.28C81.2086 125.557 81.1926 125.851 81.1606 126.16H74.1526C74.2059 127.024 74.4992 127.701 75.0326 128.192C75.5766 128.672 76.2326 128.912 77.0006 128.912C77.6299 128.912 78.1526 128.768 78.5686 128.48C78.9952 128.181 79.2939 127.787 79.4646 127.296H81.0326C80.7979 128.139 80.3286 128.827 79.6246 129.36C78.9206 129.883 78.0459 130.144 77.0006 130.144C76.1686 130.144 75.4219 129.957 74.7606 129.584C74.1099 129.211 73.5979 128.683 73.2246 128C72.8512 127.307 72.6646 126.507 72.6646 125.6C72.6646 124.693 72.8459 123.899 73.2086 123.216C73.5712 122.533 74.0779 122.011 74.7286 121.648C75.3899 121.275 76.1472 121.088 77.0006 121.088C77.8326 121.088 78.5686 121.269 79.2086 121.632C79.8486 121.995 80.3392 122.496 80.6806 123.136C81.0326 123.765 81.2086 124.48 81.2086 125.28ZM79.7046 124.976C79.7046 124.421 79.5819 123.947 79.3366 123.552C79.0912 123.147 78.7552 122.843 78.3286 122.64C77.9126 122.427 77.4486 122.32 76.9366 122.32C76.2006 122.32 75.5712 122.555 75.0486 123.024C74.5366 123.493 74.2432 124.144 74.1686 124.976H79.7046Z" fill="#AFAFAF"/>
</svg>
