<svg width="96" height="136" viewBox="0 0 96 136" fill="none" xmlns="http://www.w3.org/2000/svg">
<path d="M87.4471 44.3345H57.9461L32.1348 69.9941L46.8816 84.652L87.4471 44.3345Z" fill="#E2E2E2"/>
<path d="M24.7533 62.6637L10 48.0003L57.9413 0.351074H87.4423L24.7533 62.6637Z" fill="#E2E2E2"/>
<path d="M46.8789 84.652L57.9434 95.6491H87.4445L61.6322 69.9941L46.8789 84.652Z" fill="#AFAFAF"/>
<path d="M46.8789 84.652L68.7578 77.1251L61.6322 69.9941L46.8789 84.652Z" fill="#757575"/>
<path d="M46.8741 55.3315L32.124 69.9917L46.8741 84.6519L61.6241 69.9917L46.8741 55.3315Z" fill="#CBCBCB"/>
<path d="M30.6454 118.848V120.032H25.7974V123.792H29.7334V124.976H25.7974V130H24.3414V118.848H30.6454ZM33.8599 118.16V130H32.4039V118.16H33.8599ZM44.1174 121.232V130H42.6614V128.704C42.384 129.152 41.9947 129.504 41.4934 129.76C41.0027 130.005 40.4587 130.128 39.8614 130.128C39.1787 130.128 38.5654 129.989 38.0214 129.712C37.4774 129.424 37.0454 128.997 36.7254 128.432C36.416 127.867 36.2614 127.179 36.2614 126.368V121.232H37.7014V126.176C37.7014 127.04 37.92 127.707 38.3574 128.176C38.7947 128.635 39.392 128.864 40.1494 128.864C40.928 128.864 41.5414 128.624 41.9894 128.144C42.4374 127.664 42.6614 126.965 42.6614 126.048V121.232H44.1174ZM48.3518 122.432V127.6C48.3518 128.027 48.4424 128.331 48.6238 128.512C48.8051 128.683 49.1198 128.768 49.5677 128.768H50.6398V130H49.3278C48.5171 130 47.9091 129.813 47.5038 129.44C47.0984 129.067 46.8958 128.453 46.8958 127.6V122.432H45.7598V121.232H46.8958V119.024H48.3518V121.232H50.6398V122.432H48.3518ZM54.1799 122.432V127.6C54.1799 128.027 54.2705 128.331 54.4519 128.512C54.6332 128.683 54.9479 128.768 55.3959 128.768H56.4679V130H55.1559C54.3452 130 53.7372 129.813 53.3319 129.44C52.9265 129.067 52.7239 128.453 52.7239 127.6V122.432H51.5879V121.232H52.7239V119.024H54.1799V121.232H56.4679V122.432H54.1799ZM66.232 125.28C66.232 125.557 66.216 125.851 66.184 126.16H59.176C59.2293 127.024 59.5227 127.701 60.056 128.192C60.6 128.672 61.256 128.912 62.024 128.912C62.6533 128.912 63.176 128.768 63.592 128.48C64.0187 128.181 64.3173 127.787 64.488 127.296H66.056C65.8213 128.139 65.352 128.827 64.648 129.36C63.944 129.883 63.0693 130.144 62.024 130.144C61.192 130.144 60.4453 129.957 59.784 129.584C59.1333 129.211 58.6213 128.683 58.248 128C57.8747 127.307 57.688 126.507 57.688 125.6C57.688 124.693 57.8693 123.899 58.232 123.216C58.5947 122.533 59.1013 122.011 59.752 121.648C60.4133 121.275 61.1707 121.088 62.024 121.088C62.856 121.088 63.592 121.269 64.232 121.632C64.872 121.995 65.3627 122.496 65.704 123.136C66.056 123.765 66.232 124.48 66.232 125.28ZM64.728 124.976C64.728 124.421 64.6053 123.947 64.36 123.552C64.1147 123.147 63.7787 122.843 63.352 122.64C62.936 122.427 62.472 122.32 61.96 122.32C61.224 122.32 60.5947 122.555 60.072 123.024C59.56 123.493 59.2667 124.144 59.192 124.976H64.728ZM69.6099 122.656C69.8659 122.155 70.2285 121.765 70.6979 121.488C71.1779 121.211 71.7592 121.072 72.4419 121.072V122.576H72.0579C70.4259 122.576 69.6099 123.461 69.6099 125.232V130H68.1539V121.232H69.6099V122.656Z" fill="#AFAFAF"/>
</svg>
