<svg width="96" height="136" viewBox="0 0 96 136" fill="none" xmlns="http://www.w3.org/2000/svg">
<path d="M2 48C2 35.302 6.49218 24.4609 15.4766 15.4766C24.4609 6.49218 35.302 2 48 2C60.6979 2 71.539 6.49218 80.5235 15.4766C89.5077 24.4609 94 35.302 94 48C94 60.6979 89.5078 71.539 80.5235 80.5234C71.5391 89.5077 60.6979 94 48 94C35.302 94 24.4609 89.5078 15.4766 80.5234C6.49218 71.5391 2 60.6978 2 48ZM7.03124 48C7.03124 59.2605 11.0443 68.9036 19.0703 76.9297C27.0963 84.9556 36.7395 88.9688 48 88.9688C59.2605 88.9688 68.9037 84.9557 76.9297 76.9297C84.9557 68.9037 88.9688 59.2605 88.9688 48C88.9688 36.7395 84.9558 27.0963 76.9297 19.0703C68.9037 11.0443 59.2604 7.03124 48 7.03124C36.7395 7.03124 27.0964 11.0443 19.0703 19.0703C11.0443 27.0963 7.03124 36.7395 7.03124 48ZM19.9688 57.8828C19.7292 57.6432 19.7292 57.4036 19.9688 57.164C20.4479 56.6848 21.0469 56.5051 21.7656 56.6249C22.4844 56.7447 22.9036 56.8645 23.0234 56.9843C23.862 57.3437 24.7904 58.1522 25.8085 59.4101C26.8267 60.668 27.6353 61.5364 28.2343 62.0156C31.1093 64.4114 34.0441 64.5911 37.0389 62.5546C37.2785 61.7161 37.6679 60.9973 38.2069 60.3983C38.7458 59.7993 39.2551 59.3801 39.7342 59.1405C40.2135 58.9009 41.052 58.5415 42.25 58.0624C38.2967 57.703 35.0924 57.0141 32.6366 55.9959C30.1809 54.9777 28.2343 53.69 26.7968 52.1327C24.8801 49.9764 23.7121 47.1613 23.2928 43.6874C22.8734 40.2134 23.143 37.0389 24.1014 34.1639C24.8202 32.3671 25.8384 30.75 27.156 29.3124C26.1977 26.3176 26.3774 22.9035 27.6951 19.0702C31.5284 19.3098 35.0024 20.6275 38.117 23.0233C44.1065 21.466 50.3357 21.4061 56.8044 22.8436C57.6429 22.2447 58.9307 21.496 60.6676 20.5975C62.4046 19.6991 64.5908 19.1899 67.2262 19.0701C67.7054 20.3878 68.0349 21.9451 68.2145 23.742C68.3942 25.5389 68.3044 27.2159 67.9451 28.7732C70.7002 31.6482 72.1377 35.4816 72.2575 40.2732C72.2575 44.1065 71.5987 47.281 70.281 49.7966C68.9633 52.3123 66.6274 54.4086 63.2732 56.0856C60.9972 57.1638 58.0024 57.8226 54.2888 58.0622C55.966 58.9007 57.1938 59.7692 57.9725 60.6677C58.7512 61.5661 59.2603 62.9736 59.4999 64.8903V70.5506L59.6795 76.031C60.0389 76.63 60.4583 77.1391 60.9374 77.5585C61.4166 77.9777 61.8359 78.2772 62.1953 78.4569C62.5545 78.6366 62.6744 78.9062 62.5545 79.2655C62.4347 79.6249 61.9556 79.8046 61.1171 79.8046C59.0806 79.8046 57.4635 79.0859 56.2656 77.6483C55.9062 77.0493 55.7265 76.3307 55.7265 75.492V66.867C55.7265 65.9087 55.4869 65.2199 55.0078 64.8006C54.5286 64.3812 54.0494 64.1117 53.5703 63.9919V75.3122C53.5703 77.3487 53.8098 78.6664 54.289 79.2654C54.7682 79.8643 55.0677 80.4634 55.1875 81.0622C55.3073 81.182 55.2174 81.2718 54.918 81.3317C54.6186 81.3915 54.1094 81.3018 53.3906 81.0622C51.8333 80.7029 50.7552 79.8942 50.1562 78.6364C49.5572 77.3786 49.2578 76.0309 49.2578 74.5934V63.4531H46.9218V74.5937C46.9218 76.0312 46.6223 77.4089 46.0233 78.7265C45.1849 80.4037 43.6275 81.302 41.3515 81.4218C40.9921 81.302 40.8125 81.1822 40.8125 81.0625C40.9323 80.9426 41.2916 80.3438 41.8906 79.2656C42.0104 79.0261 42.1602 78.5469 42.3399 77.8281C42.5196 77.1094 42.6094 76.2709 42.6094 75.3125V63.9921C42.1303 64.1119 41.681 64.3814 41.2617 64.8008C40.8425 65.2201 40.6328 65.9089 40.6328 66.8672V75.4922C40.6328 76.3307 40.4531 77.0495 40.0937 77.6485C39.0156 79.086 37.3984 79.8048 35.2422 79.8048C34.4037 79.8048 33.9245 79.6251 33.8047 79.2657C33.6849 79.0261 33.7149 78.8165 33.8946 78.6368C34.0744 78.4571 34.3439 78.2474 34.7033 78.0078C35.0627 77.7682 35.3022 77.5885 35.422 77.4688C35.9012 77.1094 36.2605 76.6302 36.5001 76.0313C36.8595 75.5521 36.9493 74.2943 36.7696 72.2578C36.5899 70.2214 36.56 68.9037 36.6797 68.3047C33.5651 69.3828 30.3907 68.8437 27.1562 66.6875C26.1979 65.7292 25.2396 64.3515 24.2812 62.5547C23.5625 61.2369 22.125 59.6796 19.9688 57.8828Z" fill="#CBCBCB"/>
<path d="M30.18 122.08C29.8707 121.429 29.4227 120.928 28.836 120.576C28.2493 120.213 27.5667 120.032 26.788 120.032C26.0093 120.032 25.3053 120.213 24.676 120.576C24.0573 120.928 23.5667 121.44 23.204 122.112C22.852 122.773 22.676 123.541 22.676 124.416C22.676 125.291 22.852 126.059 23.204 126.72C23.5667 127.381 24.0573 127.893 24.676 128.256C25.3053 128.608 26.0093 128.784 26.788 128.784C27.876 128.784 28.772 128.459 29.476 127.808C30.18 127.157 30.5907 126.277 30.708 125.168H26.26V123.984H32.26V125.104C32.1747 126.021 31.8867 126.864 31.396 127.632C30.9053 128.389 30.26 128.992 29.46 129.44C28.66 129.877 27.7693 130.096 26.788 130.096C25.7533 130.096 24.8093 129.856 23.956 129.376C23.1027 128.885 22.4253 128.208 21.924 127.344C21.4333 126.48 21.188 125.504 21.188 124.416C21.188 123.328 21.4333 122.352 21.924 121.488C22.4253 120.613 23.1027 119.936 23.956 119.456C24.8093 118.965 25.7533 118.72 26.788 118.72C27.972 118.72 29.0173 119.013 29.924 119.6C30.8413 120.187 31.508 121.013 31.924 122.08H30.18ZM34.9371 119.808C34.6598 119.808 34.4251 119.712 34.2331 119.52C34.0411 119.328 33.9451 119.093 33.9451 118.816C33.9451 118.539 34.0411 118.304 34.2331 118.112C34.4251 117.92 34.6598 117.824 34.9371 117.824C35.2038 117.824 35.4278 117.92 35.6091 118.112C35.8011 118.304 35.8971 118.539 35.8971 118.816C35.8971 119.093 35.8011 119.328 35.6091 119.52C35.4278 119.712 35.2038 119.808 34.9371 119.808ZM35.6411 121.232V130H34.1851V121.232H35.6411ZM39.8986 122.432V127.6C39.8986 128.027 39.9893 128.331 40.1706 128.512C40.352 128.683 40.6666 128.768 41.1146 128.768H42.1866V130H40.8746C40.064 130 39.456 129.813 39.0506 129.44C38.6453 129.067 38.4426 128.453 38.4426 127.6V122.432H37.3066V121.232H38.4426V119.024H39.8986V121.232H42.1866V122.432H39.8986ZM52.5428 118.848V130H51.0868V124.944H45.4068V130H43.9508V118.848H45.4068V123.744H51.0868V118.848H52.5428ZM62.8049 121.232V130H61.3489V128.704C61.0715 129.152 60.6822 129.504 60.1809 129.76C59.6902 130.005 59.1462 130.128 58.5489 130.128C57.8662 130.128 57.2529 129.989 56.7089 129.712C56.1649 129.424 55.7329 128.997 55.4129 128.432C55.1035 127.867 54.9489 127.179 54.9489 126.368V121.232H56.3889V126.176C56.3889 127.04 56.6075 127.707 57.0449 128.176C57.4822 128.635 58.0795 128.864 58.8369 128.864C59.6155 128.864 60.2289 128.624 60.6769 128.144C61.1249 127.664 61.3489 126.965 61.3489 126.048V121.232H62.8049ZM66.7193 122.864C67.0179 122.341 67.4553 121.915 68.0312 121.584C68.6073 121.253 69.2633 121.088 69.9993 121.088C70.7886 121.088 71.4979 121.275 72.1273 121.648C72.7566 122.021 73.2526 122.549 73.6153 123.232C73.9779 123.904 74.1593 124.688 74.1593 125.584C74.1593 126.469 73.9779 127.259 73.6153 127.952C73.2526 128.645 72.7512 129.184 72.1112 129.568C71.4819 129.952 70.7779 130.144 69.9993 130.144C69.2419 130.144 68.5753 129.979 67.9993 129.648C67.4339 129.317 67.0073 128.896 66.7193 128.384V130H65.2633V118.16H66.7193V122.864ZM72.6713 125.584C72.6713 124.923 72.5379 124.347 72.2713 123.856C72.0046 123.365 71.6419 122.992 71.1833 122.736C70.7353 122.48 70.2393 122.352 69.6953 122.352C69.1619 122.352 68.6659 122.485 68.2073 122.752C67.7593 123.008 67.3966 123.387 67.1193 123.888C66.8526 124.379 66.7193 124.949 66.7193 125.6C66.7193 126.261 66.8526 126.843 67.1193 127.344C67.3966 127.835 67.7593 128.213 68.2073 128.48C68.6659 128.736 69.1619 128.864 69.6953 128.864C70.2393 128.864 70.7353 128.736 71.1833 128.48C71.6419 128.213 72.0046 127.835 72.2713 127.344C72.5379 126.843 72.6713 126.256 72.6713 125.584Z" fill="#AFAFAF"/>
</svg>
