<svg width="96" height="136" viewBox="0 0 96 136" fill="none" xmlns="http://www.w3.org/2000/svg">
<path d="M92.2661 43.9014L52.0975 3.735C49.7856 1.42167 46.0337 1.42167 43.719 3.735L35.3778 12.0762L45.959 22.6574C48.4178 21.8265 51.2375 22.3839 53.1976 24.344C55.167 26.3166 55.7204 29.1604 54.8694 31.6272L65.0668 41.8249C67.534 40.975 70.3806 41.5249 72.3511 43.4986C75.105 46.2514 75.105 50.7131 72.3511 53.4678C69.5965 56.2228 65.1347 56.2228 62.3787 53.4678C60.3072 51.3941 59.7954 48.352 60.8441 45.8L51.3342 36.2901L51.3331 61.3163C52.0225 61.6571 52.6522 62.1074 53.1976 62.6496C55.9515 65.4024 55.9515 69.8645 53.1976 72.6213C50.4429 75.3748 45.9791 75.3748 43.2284 72.6213C40.4745 69.8645 40.4745 65.4028 43.2284 62.6499C43.8884 61.9896 44.6727 61.4667 45.536 61.1114V35.852C44.6714 35.4991 43.8867 34.9759 43.2284 34.3135C41.1418 32.2299 40.6401 29.1683 41.7093 26.6063L31.2787 16.1746L3.7358 43.7156C1.4214 46.0311 1.4214 49.7834 3.7358 52.0971L43.9051 92.2643C46.2177 94.5779 49.9689 94.5779 52.2844 92.2643L92.2658 52.2836C94.5795 49.9692 94.5795 46.2148 92.2658 43.9014" fill="#CBCBCB"/>
<path d="M30.5081 122.08C30.1988 121.429 29.7508 120.928 29.1641 120.576C28.5775 120.213 27.8948 120.032 27.1161 120.032C26.3375 120.032 25.6335 120.213 25.0041 120.576C24.3855 120.928 23.8948 121.44 23.5321 122.112C23.1801 122.773 23.0041 123.541 23.0041 124.416C23.0041 125.291 23.1801 126.059 23.5321 126.72C23.8948 127.381 24.3855 127.893 25.0041 128.256C25.6335 128.608 26.3375 128.784 27.1161 128.784C28.2041 128.784 29.1001 128.459 29.8041 127.808C30.5081 127.157 30.9188 126.277 31.0361 125.168H26.5881V123.984H32.5881V125.104C32.5028 126.021 32.2148 126.864 31.7241 127.632C31.2335 128.389 30.5881 128.992 29.7881 129.44C28.9881 129.877 28.0975 130.096 27.1161 130.096C26.0815 130.096 25.1375 129.856 24.2841 129.376C23.4308 128.885 22.7535 128.208 22.2521 127.344C21.7615 126.48 21.5161 125.504 21.5161 124.416C21.5161 123.328 21.7615 122.352 22.2521 121.488C22.7535 120.613 23.4308 119.936 24.2841 119.456C25.1375 118.965 26.0815 118.72 27.1161 118.72C28.3001 118.72 29.3455 119.013 30.2521 119.6C31.1695 120.187 31.8361 121.013 32.2521 122.08H30.5081ZM35.2653 119.808C34.9879 119.808 34.7533 119.712 34.5613 119.52C34.3693 119.328 34.2733 119.093 34.2733 118.816C34.2733 118.539 34.3693 118.304 34.5613 118.112C34.7533 117.92 34.9879 117.824 35.2653 117.824C35.5319 117.824 35.7559 117.92 35.9373 118.112C36.1293 118.304 36.2253 118.539 36.2253 118.816C36.2253 119.093 36.1293 119.328 35.9373 119.52C35.7559 119.712 35.5319 119.808 35.2653 119.808ZM35.9693 121.232V130H34.5133V121.232H35.9693ZM40.2268 122.432V127.6C40.2268 128.027 40.3174 128.331 40.4988 128.512C40.6801 128.683 40.9948 128.768 41.4427 128.768H42.5148V130H41.2028C40.3921 130 39.7841 129.813 39.3788 129.44C38.9734 129.067 38.7708 128.453 38.7708 127.6V122.432H37.6348V121.232H38.7708V119.024H40.2268V121.232H42.5148V122.432H40.2268ZM52.8709 118.848V130H51.4149V124.944H45.7349V130H44.2789V118.848H45.7349V123.744H51.4149V118.848H52.8709ZM63.133 121.232V130H61.677V128.704C61.3997 129.152 61.0103 129.504 60.509 129.76C60.0183 130.005 59.4743 130.128 58.877 130.128C58.1943 130.128 57.581 129.989 57.037 129.712C56.493 129.424 56.061 128.997 55.741 128.432C55.4317 127.867 55.277 127.179 55.277 126.368V121.232H56.717V126.176C56.717 127.04 56.9357 127.707 57.373 128.176C57.8103 128.635 58.4077 128.864 59.165 128.864C59.9437 128.864 60.557 128.624 61.005 128.144C61.453 127.664 61.677 126.965 61.677 126.048V121.232H63.133ZM67.0474 122.864C67.346 122.341 67.7834 121.915 68.3594 121.584C68.9354 121.253 69.5914 121.088 70.3274 121.088C71.1167 121.088 71.826 121.275 72.4554 121.648C73.0847 122.021 73.5807 122.549 73.9434 123.232C74.306 123.904 74.4874 124.688 74.4874 125.584C74.4874 126.469 74.306 127.259 73.9434 127.952C73.5807 128.645 73.0794 129.184 72.4394 129.568C71.81 129.952 71.106 130.144 70.3274 130.144C69.57 130.144 68.9034 129.979 68.3274 129.648C67.762 129.317 67.3354 128.896 67.0474 128.384V130H65.5914V118.16H67.0474V122.864ZM72.9994 125.584C72.9994 124.923 72.866 124.347 72.5994 123.856C72.3327 123.365 71.97 122.992 71.5114 122.736C71.0634 122.48 70.5674 122.352 70.0234 122.352C69.49 122.352 68.994 122.485 68.5354 122.752C68.0874 123.008 67.7247 123.387 67.4474 123.888C67.1807 124.379 67.0474 124.949 67.0474 125.6C67.0474 126.261 67.1807 126.843 67.4474 127.344C67.7247 127.835 68.0874 128.213 68.5354 128.48C68.994 128.736 69.49 128.864 70.0234 128.864C70.5674 128.864 71.0634 128.736 71.5114 128.48C71.97 128.213 72.3327 127.835 72.5994 127.344C72.866 126.843 72.9994 126.256 72.9994 125.584Z" fill="#AFAFAF"/>
</svg>
