<svg width="48" height="48" viewBox="0 0 48 48" fill="none" xmlns="http://www.w3.org/2000/svg">
<path d="M1 24C1 17.651 3.24609 12.2305 7.73832 7.73827C12.2305 3.24609 17.651 1 24 1C30.3489 1 35.7695 3.24609 40.2617 7.73827C44.7539 12.2305 47 17.651 47 24C47 30.3489 44.7539 35.7695 40.2617 40.2617C35.7695 44.7539 30.349 47 24 47C17.651 47 12.2305 44.7539 7.73832 40.2617C3.24609 35.7695 1 30.3489 1 24ZM3.51562 24C3.51562 29.6302 5.52213 34.4518 9.53515 38.4649C13.5482 42.4778 18.3698 44.4844 24 44.4844C29.6302 44.4844 34.4518 42.4779 38.4649 38.4649C42.4779 34.4518 44.4844 29.6302 44.4844 24C44.4844 18.3698 42.4779 13.5482 38.4649 9.53515C34.4518 5.52213 29.6302 3.51562 24 3.51562C18.3698 3.51562 13.5482 5.52213 9.53515 9.53515C5.52213 13.5482 3.51562 18.3698 3.51562 24ZM9.98441 28.9414C9.86462 28.8216 9.86462 28.7018 9.98441 28.582C10.2239 28.3424 10.5235 28.2526 10.8828 28.3125C11.2422 28.3724 11.4518 28.4323 11.5117 28.4922C11.931 28.6718 12.3952 29.0761 12.9043 29.7051C13.4133 30.334 13.8176 30.7682 14.1172 31.0078C15.5547 32.2057 17.0221 32.2955 18.5195 31.2773C18.6393 30.858 18.8339 30.4987 19.1034 30.1991C19.3729 29.8997 19.6275 29.6901 19.8671 29.5702C20.1068 29.4504 20.526 29.2708 21.125 29.0312C19.1484 28.8515 17.5462 28.5071 16.3183 27.998C15.0905 27.4888 14.1171 26.845 13.3984 26.0663C12.44 24.9882 11.856 23.5807 11.6464 21.8437C11.4367 20.1067 11.5715 18.5195 12.0507 17.082C12.4101 16.1835 12.9192 15.375 13.578 14.6562C13.0989 13.1588 13.1887 11.4518 13.8476 9.5351C15.7642 9.65489 17.5012 10.3137 19.0585 11.5117C22.0533 10.733 25.1679 10.7031 28.4022 11.4218C28.8214 11.1223 29.4654 10.748 30.3338 10.2987C31.2023 9.84953 32.2954 9.59495 33.6131 9.53506C33.8527 10.1939 34.0174 10.9726 34.1073 11.871C34.1971 12.7694 34.1522 13.608 33.9725 14.3866C35.3501 15.8241 36.0688 17.7408 36.1287 20.1366C36.1287 22.0533 35.7994 23.6405 35.1405 24.8983C34.4816 26.1561 33.3137 27.2043 31.6366 28.0428C30.4986 28.5819 29.0012 28.9113 27.1444 29.0311C27.983 29.4504 28.5969 29.8846 28.9862 30.3338C29.3756 30.7831 29.6301 31.4868 29.75 32.4451V35.2753L29.8398 38.0155C30.0195 38.315 30.2291 38.5696 30.4687 38.7792C30.7083 38.9889 30.9179 39.1386 31.0976 39.2285C31.2773 39.3183 31.3372 39.4531 31.2773 39.6328C31.2174 39.8125 30.9778 39.9023 30.5586 39.9023C29.5403 39.9023 28.7317 39.5429 28.1328 38.8241C27.9531 38.5247 27.8633 38.1653 27.8633 37.746V33.4335C27.8633 32.9543 27.7435 32.6099 27.5039 32.4003C27.2643 32.1906 27.0247 32.0559 26.7851 31.996V37.6561C26.7851 38.6744 26.9049 39.3332 27.1445 39.6327C27.3841 39.9322 27.5338 40.2317 27.5938 40.5311C27.6537 40.591 27.6087 40.6359 27.459 40.6659C27.3093 40.6958 27.0547 40.6509 26.6953 40.5311C25.9166 40.3514 25.3776 39.9471 25.0781 39.3182C24.7786 38.6893 24.6289 38.0154 24.6289 37.2967V31.7265H23.4609V37.2968C23.4609 38.0156 23.3111 38.7044 23.0117 39.3632C22.5924 40.2018 21.8137 40.651 20.6758 40.7109C20.4961 40.651 20.4062 40.5911 20.4062 40.5313C20.4661 40.4713 20.6458 40.1719 20.9453 39.6328C21.0052 39.513 21.0801 39.2734 21.1699 38.9141C21.2598 38.5547 21.3047 38.1354 21.3047 37.6563V31.9961C21.0651 32.056 20.8405 32.1907 20.6309 32.4004C20.4212 32.6101 20.3164 32.9544 20.3164 33.4336V37.7461C20.3164 38.1653 20.2265 38.5247 20.0469 38.8242C19.5078 39.543 18.6992 39.9024 17.6211 39.9024C17.2019 39.9024 16.9623 39.8126 16.9024 39.6329C16.8424 39.5131 16.8574 39.4082 16.9473 39.3184C17.0372 39.2285 17.172 39.1237 17.3516 39.0039C17.5313 38.8841 17.6511 38.7942 17.711 38.7344C17.9506 38.5547 18.1302 38.3151 18.2501 38.0156C18.4298 37.7761 18.4747 37.1471 18.3848 36.1289C18.295 35.1107 18.28 34.4518 18.3399 34.1524C16.7825 34.6914 15.1953 34.4218 13.5781 33.3438C13.0989 32.8646 12.6198 32.1757 12.1406 31.2774C11.7812 30.6185 11.0625 29.8398 9.98441 28.9414V28.9414Z" fill="#CBCBCB"/>
</svg>
