<svg width="48" height="48" viewBox="0 0 48 48" fill="none" xmlns="http://www.w3.org/2000/svg">
<path d="M24.013 45.0077L32.477 19.2114H15.5488L24.0128 45.0077H24.013Z" fill="#CBCBCB"/>
<path d="M24.0136 45.0077L15.5494 19.2114H3.6875L24.0136 45.0077Z" fill="#E2E2E2"/>
<path d="M3.68713 19.2114L1.11508 27.0508C1.00072 27.3993 1.0007 27.7748 1.11503 28.1233C1.22937 28.4718 1.45218 28.7755 1.75153 28.9909L24.0132 45.0078L3.68695 19.2116L3.68713 19.2114Z" fill="#CBCBCB"/>
<path d="M3.6875 19.2113H15.5494L10.4518 3.67426C10.1895 2.87477 9.0474 2.87494 8.78523 3.67426L3.6875 19.2113Z" fill="#CBCBCB"/>
<path d="M24.0139 45.0077L32.4779 19.2114H44.3399L24.0137 45.0077H24.0139Z" fill="#E2E2E2"/>
<path d="M44.3397 19.2114L46.9118 27.0508C47.0261 27.3994 47.0261 27.7748 46.9118 28.1233C46.7974 28.4718 46.5745 28.7755 46.2752 28.9909L24.0137 45.0078L44.3397 19.2116V19.2114Z" fill="#CBCBCB"/>
<path d="M44.3396 19.2113H32.4775L37.5753 3.67426C37.8376 2.87477 38.9797 2.87494 39.2419 3.67426L44.3396 19.2113Z" fill="#CBCBCB"/>
</svg>
