<svg width="96" height="136" viewBox="0 0 96 136" fill="none" xmlns="http://www.w3.org/2000/svg">
<path d="M48.027 90.0154L64.955 38.4229H31.0986L48.0266 90.0154H48.027Z" fill="#CBCBCB"/>
<path d="M48.0271 90.0149L31.0988 38.4224H7.375L48.0271 90.0149Z" fill="#E2E2E2"/>
<path d="M7.37523 38.4224L2.23114 54.1012C2.00241 54.7982 2.00238 55.549 2.23104 56.2461C2.45971 56.9431 2.90533 57.5506 3.50404 57.9814L48.0274 90.0152L7.37487 38.4227L7.37523 38.4224Z" fill="#CBCBCB"/>
<path d="M7.375 38.423H31.0988L20.9037 7.34901C20.379 5.75002 18.0948 5.75038 17.5705 7.34901L7.375 38.423Z" fill="#CBCBCB"/>
<path d="M48.0267 90.0149L64.9547 38.4224H88.6789L48.0264 90.0149H48.0267Z" fill="#E2E2E2"/>
<path d="M88.6795 38.4224L93.8236 54.1012C94.0523 54.7982 94.0522 55.5491 93.8235 56.2461C93.5948 56.9432 93.1491 57.5506 92.5503 57.9814L48.0273 90.0152L88.6795 38.4227V38.4224Z" fill="#CBCBCB"/>
<path d="M88.6792 38.423H64.9551L75.1505 7.34901C75.6752 5.75002 77.9594 5.75038 78.4838 7.34901L88.6792 38.423Z" fill="#CBCBCB"/>
<path d="M32.18 122.08C31.8707 121.429 31.4227 120.928 30.836 120.576C30.2493 120.213 29.5667 120.032 28.788 120.032C28.0093 120.032 27.3053 120.213 26.676 120.576C26.0573 120.928 25.5667 121.44 25.204 122.112C24.852 122.773 24.676 123.541 24.676 124.416C24.676 125.291 24.852 126.059 25.204 126.72C25.5667 127.381 26.0573 127.893 26.676 128.256C27.3053 128.608 28.0093 128.784 28.788 128.784C29.876 128.784 30.772 128.459 31.476 127.808C32.18 127.157 32.5907 126.277 32.708 125.168H28.26V123.984H34.26V125.104C34.1747 126.021 33.8867 126.864 33.396 127.632C32.9053 128.389 32.26 128.992 31.46 129.44C30.66 129.877 29.7693 130.096 28.788 130.096C27.7533 130.096 26.8093 129.856 25.956 129.376C25.1027 128.885 24.4253 128.208 23.924 127.344C23.4333 126.48 23.188 125.504 23.188 124.416C23.188 123.328 23.4333 122.352 23.924 121.488C24.4253 120.613 25.1027 119.936 25.956 119.456C26.8093 118.965 27.7533 118.72 28.788 118.72C29.972 118.72 31.0173 119.013 31.924 119.6C32.8413 120.187 33.508 121.013 33.924 122.08H32.18ZM36.9371 119.808C36.6598 119.808 36.4251 119.712 36.2331 119.52C36.0411 119.328 35.9451 119.093 35.9451 118.816C35.9451 118.539 36.0411 118.304 36.2331 118.112C36.4251 117.92 36.6598 117.824 36.9371 117.824C37.2038 117.824 37.4278 117.92 37.6091 118.112C37.8011 118.304 37.8971 118.539 37.8971 118.816C37.8971 119.093 37.8011 119.328 37.6091 119.52C37.4278 119.712 37.2038 119.808 36.9371 119.808ZM37.6411 121.232V130H36.1851V121.232H37.6411ZM41.8986 122.432V127.6C41.8986 128.027 41.9893 128.331 42.1706 128.512C42.352 128.683 42.6666 128.768 43.1146 128.768H44.1866V130H42.8746C42.064 130 41.456 129.813 41.0506 129.44C40.6453 129.067 40.4426 128.453 40.4426 127.6V122.432H39.3066V121.232H40.4426V119.024H41.8986V121.232H44.1866V122.432H41.8986ZM47.4068 128.816H51.3108V130H45.9508V118.848H47.4068V128.816ZM52.313 125.584C52.313 124.688 52.4943 123.904 52.857 123.232C53.2197 122.549 53.7157 122.021 54.345 121.648C54.985 121.275 55.6943 121.088 56.473 121.088C57.241 121.088 57.9077 121.253 58.473 121.584C59.0383 121.915 59.4597 122.331 59.737 122.832V121.232H61.209V130H59.737V128.368C59.449 128.88 59.017 129.307 58.441 129.648C57.8757 129.979 57.2143 130.144 56.457 130.144C55.6783 130.144 54.9743 129.952 54.345 129.568C53.7157 129.184 53.2197 128.645 52.857 127.952C52.4943 127.259 52.313 126.469 52.313 125.584ZM59.737 125.6C59.737 124.939 59.6037 124.363 59.337 123.872C59.0703 123.381 58.7077 123.008 58.249 122.752C57.801 122.485 57.305 122.352 56.761 122.352C56.217 122.352 55.721 122.48 55.273 122.736C54.825 122.992 54.4677 123.365 54.201 123.856C53.9343 124.347 53.801 124.923 53.801 125.584C53.801 126.256 53.9343 126.843 54.201 127.344C54.4677 127.835 54.825 128.213 55.273 128.48C55.721 128.736 56.217 128.864 56.761 128.864C57.305 128.864 57.801 128.736 58.249 128.48C58.7077 128.213 59.0703 127.835 59.337 127.344C59.6037 126.843 59.737 126.261 59.737 125.6ZM65.1255 122.864C65.4242 122.341 65.8615 121.915 66.4375 121.584C67.0135 121.253 67.6695 121.088 68.4055 121.088C69.1948 121.088 69.9042 121.275 70.5335 121.648C71.1628 122.021 71.6588 122.549 72.0215 123.232C72.3842 123.904 72.5655 124.688 72.5655 125.584C72.5655 126.469 72.3842 127.259 72.0215 127.952C71.6588 128.645 71.1575 129.184 70.5175 129.568C69.8882 129.952 69.1842 130.144 68.4055 130.144C67.6482 130.144 66.9815 129.979 66.4055 129.648C65.8402 129.317 65.4135 128.896 65.1255 128.384V130H63.6695V118.16H65.1255V122.864ZM71.0775 125.584C71.0775 124.923 70.9442 124.347 70.6775 123.856C70.4108 123.365 70.0482 122.992 69.5895 122.736C69.1415 122.48 68.6455 122.352 68.1015 122.352C67.5682 122.352 67.0722 122.485 66.6135 122.752C66.1655 123.008 65.8028 123.387 65.5255 123.888C65.2588 124.379 65.1255 124.949 65.1255 125.6C65.1255 126.261 65.2588 126.843 65.5255 127.344C65.8028 127.835 66.1655 128.213 66.6135 128.48C67.0722 128.736 67.5682 128.864 68.1015 128.864C68.6455 128.864 69.1415 128.736 69.5895 128.48C70.0482 128.213 70.4108 127.835 70.6775 127.344C70.9442 126.843 71.0775 126.256 71.0775 125.584Z" fill="#AFAFAF"/>
</svg>
