<svg width="110" height="136" viewBox="0 0 110 136" fill="none" xmlns="http://www.w3.org/2000/svg">
<g clip-path="url(#clip0_369_2199)">
<path d="M67.915 29.4796H70.8445L79.1902 21.0536L79.6006 17.4784C64.0721 3.64079 40.3669 5.1318 26.6612 20.8098C22.8505 25.165 20.086 30.345 18.5811 35.9515C19.5106 35.5656 20.5407 35.5046 21.5105 35.7728L38.1979 32.9939C38.1979 32.9939 39.047 31.576 39.4856 31.6654C46.9099 23.4343 59.4043 22.4755 67.9754 29.4796H67.915Z" fill="#CBCBCB"/>
<path d="M91.0774 35.9515C89.1579 28.8215 85.2225 22.4105 79.7459 17.5068L68.0361 29.3293C72.9816 33.4083 75.7983 39.5552 75.6776 46.0027V48.1031C81.4359 48.1031 86.0997 52.8159 86.0997 58.6255C86.0997 64.4393 81.4319 69.148 75.6776 69.148H54.8294L52.749 71.2768V83.8997L54.8294 86.0001H75.6776C87.6288 86.0935 98.232 78.2728 101.781 66.751C105.322 55.2251 100.976 42.7119 91.0774 35.9515Z" fill="#E2E2E2"/>
<path d="M33.9525 85.8821H54.8008V69.034H33.9525C32.4677 69.034 30.9989 68.7131 29.6469 68.0874L26.7174 69.0015L18.3154 77.4276L17.583 80.3852C22.2951 83.9767 28.0453 85.9065 33.9525 85.8821Z" fill="#CBCBCB"/>
<path d="M33.9526 31.2228C22.3716 31.2919 12.1145 38.7795 8.42049 49.8585C4.72648 60.9375 8.40842 73.1662 17.5871 80.2922L29.6792 68.0838C24.4319 65.6908 22.102 59.4586 24.4721 54.1609C26.8423 48.8631 33.015 46.5108 38.2623 48.9037C40.5721 49.96 42.4231 51.8289 43.4693 54.1609L55.5614 41.9524C50.4147 35.1636 42.4191 31.1944 33.9526 31.2228Z" fill="#E2E2E2"/>
</g>
<path d="M9.68 122.08C9.37067 121.429 8.92267 120.928 8.336 120.576C7.74933 120.213 7.06667 120.032 6.288 120.032C5.50933 120.032 4.80533 120.213 4.176 120.576C3.55733 120.928 3.06667 121.44 2.704 122.112C2.352 122.773 2.176 123.541 2.176 124.416C2.176 125.291 2.352 126.059 2.704 126.72C3.06667 127.381 3.55733 127.893 4.176 128.256C4.80533 128.608 5.50933 128.784 6.288 128.784C7.376 128.784 8.272 128.459 8.976 127.808C9.68 127.157 10.0907 126.277 10.208 125.168H5.76V123.984H11.76V125.104C11.6747 126.021 11.3867 126.864 10.896 127.632C10.4053 128.389 9.76 128.992 8.96 129.44C8.16 129.877 7.26933 130.096 6.288 130.096C5.25333 130.096 4.30933 129.856 3.456 129.376C2.60267 128.885 1.92533 128.208 1.424 127.344C0.933333 126.48 0.688 125.504 0.688 124.416C0.688 123.328 0.933333 122.352 1.424 121.488C1.92533 120.613 2.60267 119.936 3.456 119.456C4.30933 118.965 5.25333 118.72 6.288 118.72C7.472 118.72 8.51733 119.013 9.424 119.6C10.3413 120.187 11.008 121.013 11.424 122.08H9.68ZM17.5091 130.144C16.6878 130.144 15.9411 129.957 15.2691 129.584C14.6078 129.211 14.0851 128.683 13.7011 128C13.3278 127.307 13.1411 126.507 13.1411 125.6C13.1411 124.704 13.3331 123.915 13.7171 123.232C14.1118 122.539 14.6451 122.011 15.3171 121.648C15.9891 121.275 16.7411 121.088 17.5731 121.088C18.4051 121.088 19.1571 121.275 19.8291 121.648C20.5011 122.011 21.0291 122.533 21.4131 123.216C21.8078 123.899 22.0051 124.693 22.0051 125.6C22.0051 126.507 21.8025 127.307 21.3971 128C21.0025 128.683 20.4638 129.211 19.7811 129.584C19.0985 129.957 18.3411 130.144 17.5091 130.144ZM17.5091 128.864C18.0318 128.864 18.5225 128.741 18.9811 128.496C19.4398 128.251 19.8078 127.883 20.0851 127.392C20.3731 126.901 20.5171 126.304 20.5171 125.6C20.5171 124.896 20.3785 124.299 20.1011 123.808C19.8238 123.317 19.4611 122.955 19.0131 122.72C18.5651 122.475 18.0798 122.352 17.5571 122.352C17.0238 122.352 16.5331 122.475 16.0851 122.72C15.6478 122.955 15.2958 123.317 15.0291 123.808C14.7625 124.299 14.6291 124.896 14.6291 125.6C14.6291 126.315 14.7571 126.917 15.0131 127.408C15.2798 127.899 15.6318 128.267 16.0691 128.512C16.5065 128.747 16.9865 128.864 17.5091 128.864ZM27.7435 130.144C26.9222 130.144 26.1755 129.957 25.5035 129.584C24.8422 129.211 24.3195 128.683 23.9355 128C23.5622 127.307 23.3755 126.507 23.3755 125.6C23.3755 124.704 23.5675 123.915 23.9515 123.232C24.3462 122.539 24.8795 122.011 25.5515 121.648C26.2235 121.275 26.9755 121.088 27.8075 121.088C28.6395 121.088 29.3915 121.275 30.0635 121.648C30.7355 122.011 31.2635 122.533 31.6475 123.216C32.0422 123.899 32.2395 124.693 32.2395 125.6C32.2395 126.507 32.0368 127.307 31.6315 128C31.2368 128.683 30.6982 129.211 30.0155 129.584C29.3328 129.957 28.5755 130.144 27.7435 130.144ZM27.7435 128.864C28.2662 128.864 28.7568 128.741 29.2155 128.496C29.6742 128.251 30.0422 127.883 30.3195 127.392C30.6075 126.901 30.7515 126.304 30.7515 125.6C30.7515 124.896 30.6128 124.299 30.3355 123.808C30.0582 123.317 29.6955 122.955 29.2475 122.72C28.7995 122.475 28.3142 122.352 27.7915 122.352C27.2582 122.352 26.7675 122.475 26.3195 122.72C25.8822 122.955 25.5302 123.317 25.2635 123.808C24.9968 124.299 24.8635 124.896 24.8635 125.6C24.8635 126.315 24.9915 126.917 25.2475 127.408C25.5142 127.899 25.8662 128.267 26.3035 128.512C26.7408 128.747 27.2208 128.864 27.7435 128.864ZM37.7699 121.088C38.5272 121.088 39.1885 121.253 39.7539 121.584C40.3299 121.915 40.7565 122.331 41.0339 122.832V121.232H42.5059V130.192C42.5059 130.992 42.3352 131.701 41.9939 132.32C41.6525 132.949 41.1619 133.44 40.5219 133.792C39.8925 134.144 39.1565 134.32 38.3139 134.32C37.1619 134.32 36.2019 134.048 35.4339 133.504C34.6659 132.96 34.2125 132.219 34.0739 131.28H35.5139C35.6739 131.813 36.0045 132.24 36.5059 132.56C37.0072 132.891 37.6099 133.056 38.3139 133.056C39.1139 133.056 39.7645 132.805 40.2659 132.304C40.7779 131.803 41.0339 131.099 41.0339 130.192V128.352C40.7459 128.864 40.3192 129.291 39.7539 129.632C39.1885 129.973 38.5272 130.144 37.7699 130.144C36.9912 130.144 36.2819 129.952 35.6419 129.568C35.0125 129.184 34.5165 128.645 34.1539 127.952C33.7912 127.259 33.6099 126.469 33.6099 125.584C33.6099 124.688 33.7912 123.904 34.1539 123.232C34.5165 122.549 35.0125 122.021 35.6419 121.648C36.2819 121.275 36.9912 121.088 37.7699 121.088ZM41.0339 125.6C41.0339 124.939 40.9005 124.363 40.6339 123.872C40.3672 123.381 40.0045 123.008 39.5459 122.752C39.0979 122.485 38.6019 122.352 38.0579 122.352C37.5139 122.352 37.0179 122.48 36.5699 122.736C36.1219 122.992 35.7645 123.365 35.4979 123.856C35.2312 124.347 35.0979 124.923 35.0979 125.584C35.0979 126.256 35.2312 126.843 35.4979 127.344C35.7645 127.835 36.1219 128.213 36.5699 128.48C37.0179 128.736 37.5139 128.864 38.0579 128.864C38.6019 128.864 39.0979 128.736 39.5459 128.48C40.0045 128.213 40.3672 127.835 40.6339 127.344C40.9005 126.843 41.0339 126.261 41.0339 125.6ZM46.4224 118.16V130H44.9664V118.16H46.4224ZM56.9039 125.28C56.9039 125.557 56.8879 125.851 56.8559 126.16H49.8479C49.9012 127.024 50.1945 127.701 50.7279 128.192C51.2719 128.672 51.9279 128.912 52.6959 128.912C53.3252 128.912 53.8479 128.768 54.2639 128.48C54.6905 128.181 54.9892 127.787 55.1599 127.296H56.7279C56.4932 128.139 56.0239 128.827 55.3199 129.36C54.6159 129.883 53.7412 130.144 52.6959 130.144C51.8639 130.144 51.1172 129.957 50.4559 129.584C49.8052 129.211 49.2932 128.683 48.9199 128C48.5465 127.307 48.3599 126.507 48.3599 125.6C48.3599 124.693 48.5412 123.899 48.9039 123.216C49.2665 122.533 49.7732 122.011 50.4239 121.648C51.0852 121.275 51.8425 121.088 52.6959 121.088C53.5279 121.088 54.2639 121.269 54.9039 121.632C55.5439 121.995 56.0345 122.496 56.3759 123.136C56.7279 123.765 56.9039 124.48 56.9039 125.28ZM55.3999 124.976C55.3999 124.421 55.2772 123.947 55.0319 123.552C54.7865 123.147 54.4505 122.843 54.0239 122.64C53.6079 122.427 53.1439 122.32 52.6319 122.32C51.8959 122.32 51.2665 122.555 50.7439 123.024C50.2319 123.493 49.9385 124.144 49.8639 124.976H55.3999ZM62.5474 124.416C62.5474 123.328 62.7927 122.352 63.2834 121.488C63.774 120.613 64.4407 119.931 65.2834 119.44C66.1367 118.949 67.0807 118.704 68.1154 118.704C69.3314 118.704 70.3927 118.997 71.2994 119.584C72.206 120.171 72.8674 121.003 73.2834 122.08H71.5394C71.23 121.408 70.782 120.891 70.1954 120.528C69.6194 120.165 68.926 119.984 68.1154 119.984C67.3367 119.984 66.638 120.165 66.0194 120.528C65.4007 120.891 64.9154 121.408 64.5634 122.08C64.2114 122.741 64.0354 123.52 64.0354 124.416C64.0354 125.301 64.2114 126.08 64.5634 126.752C64.9154 127.413 65.4007 127.925 66.0194 128.288C66.638 128.651 67.3367 128.832 68.1154 128.832C68.926 128.832 69.6194 128.656 70.1954 128.304C70.782 127.941 71.23 127.424 71.5394 126.752H73.2834C72.8674 127.819 72.206 128.645 71.2994 129.232C70.3927 129.808 69.3314 130.096 68.1154 130.096C67.0807 130.096 66.1367 129.856 65.2834 129.376C64.4407 128.885 63.774 128.208 63.2834 127.344C62.7927 126.48 62.5474 125.504 62.5474 124.416ZM76.9068 118.16V130H75.4508V118.16H76.9068ZM83.2123 130.144C82.3909 130.144 81.6443 129.957 80.9723 129.584C80.3109 129.211 79.7883 128.683 79.4043 128C79.0309 127.307 78.8443 126.507 78.8443 125.6C78.8443 124.704 79.0363 123.915 79.4203 123.232C79.8149 122.539 80.3483 122.011 81.0203 121.648C81.6923 121.275 82.4443 121.088 83.2763 121.088C84.1083 121.088 84.8603 121.275 85.5323 121.648C86.2043 122.011 86.7323 122.533 87.1163 123.216C87.5109 123.899 87.7083 124.693 87.7083 125.6C87.7083 126.507 87.5056 127.307 87.1003 128C86.7056 128.683 86.1669 129.211 85.4843 129.584C84.8016 129.957 84.0443 130.144 83.2123 130.144ZM83.2123 128.864C83.7349 128.864 84.2256 128.741 84.6843 128.496C85.1429 128.251 85.5109 127.883 85.7883 127.392C86.0763 126.901 86.2203 126.304 86.2203 125.6C86.2203 124.896 86.0816 124.299 85.8043 123.808C85.5269 123.317 85.1643 122.955 84.7163 122.72C84.2683 122.475 83.7829 122.352 83.2603 122.352C82.7269 122.352 82.2363 122.475 81.7883 122.72C81.3509 122.955 80.9989 123.317 80.7323 123.808C80.4656 124.299 80.3323 124.896 80.3323 125.6C80.3323 126.315 80.4603 126.917 80.7163 127.408C80.9829 127.899 81.3349 128.267 81.7723 128.512C82.2096 128.747 82.6896 128.864 83.2123 128.864ZM97.3986 121.232V130H95.9426V128.704C95.6653 129.152 95.276 129.504 94.7746 129.76C94.284 130.005 93.74 130.128 93.1426 130.128C92.46 130.128 91.8466 129.989 91.3026 129.712C90.7586 129.424 90.3266 128.997 90.0066 128.432C89.6973 127.867 89.5426 127.179 89.5426 126.368V121.232H90.9826V126.176C90.9826 127.04 91.2013 127.707 91.6386 128.176C92.076 128.635 92.6733 128.864 93.4306 128.864C94.2093 128.864 94.8226 128.624 95.2706 128.144C95.7186 127.664 95.9426 126.965 95.9426 126.048V121.232H97.3986ZM99.313 125.584C99.313 124.688 99.4943 123.904 99.857 123.232C100.22 122.549 100.716 122.021 101.345 121.648C101.985 121.275 102.7 121.088 103.489 121.088C104.172 121.088 104.806 121.248 105.393 121.568C105.98 121.877 106.428 122.288 106.737 122.8V118.16H108.209V130H106.737V128.352C106.449 128.875 106.022 129.307 105.457 129.648C104.892 129.979 104.23 130.144 103.473 130.144C102.694 130.144 101.985 129.952 101.345 129.568C100.716 129.184 100.22 128.645 99.857 127.952C99.4943 127.259 99.313 126.469 99.313 125.584ZM106.737 125.6C106.737 124.939 106.604 124.363 106.337 123.872C106.07 123.381 105.708 123.008 105.249 122.752C104.801 122.485 104.305 122.352 103.761 122.352C103.217 122.352 102.721 122.48 102.273 122.736C101.825 122.992 101.468 123.365 101.201 123.856C100.934 124.347 100.801 124.923 100.801 125.584C100.801 126.256 100.934 126.843 101.201 127.344C101.468 127.835 101.825 128.213 102.273 128.48C102.721 128.736 103.217 128.864 103.761 128.864C104.305 128.864 104.801 128.736 105.249 128.48C105.708 128.213 106.07 127.835 106.337 127.344C106.604 126.843 106.737 126.261 106.737 125.6Z" fill="#AFAFAF"/>
<defs>
<clipPath id="clip0_369_2199">
<rect width="96" height="96" fill="white" transform="translate(7)"/>
</clipPath>
</defs>
</svg>
