<svg width="48" height="48" viewBox="0 0 48 48" fill="none" xmlns="http://www.w3.org/2000/svg">
<path d="M45.3913 8.21516C42.4913 5.33359 37.8138 5.25323 34.8153 8.03348C34.6714 8.16831 34.5876 8.35458 34.5825 8.55099C34.5835 8.74658 34.661 8.9341 34.7986 9.07401L35.7465 10.0485C36.0021 10.3012 36.4057 10.3294 36.6943 10.1145C37.4462 9.55096 38.3632 9.24737 39.3051 9.25018C41.0724 9.2425 42.6694 10.296 43.3475 11.9171C44.0256 13.5381 43.6505 15.4055 42.3981 16.644C36.3562 22.6449 28.2912 5.83131 9.9883 14.4803C9.35881 14.7726 8.881 15.3129 8.67044 15.9707C8.45988 16.6284 8.53575 17.3436 8.8797 17.9433L12.017 23.3331C12.6982 24.4999 14.1954 24.9091 15.3816 24.2525L15.4592 24.2084L15.3982 24.2525L16.7895 23.4762C18.3401 22.5199 19.8051 21.4332 21.1685 20.228C21.4571 19.9821 21.8831 19.9821 22.1718 20.228C22.3421 20.3607 22.4422 20.5635 22.4434 20.7786C22.4473 20.9876 22.3605 21.1882 22.205 21.3291C20.769 22.5951 19.224 23.7336 17.5877 24.7315H17.5434L16.1521 25.5022C15.564 25.8332 14.8991 26.0059 14.2231 26.0032C12.8024 26.0033 11.4881 25.2553 10.7699 24.0378L7.80436 18.9452C2.10619 22.9422 -1.35263 30.6443 0.504268 40.4164C0.572322 40.753 0.868184 40.9963 1.21377 41H4.59498C4.95863 41 5.26527 40.7308 5.31003 40.3724C5.62176 37.9141 7.72653 36.0704 10.2211 36.0704C12.7157 36.0704 14.8204 37.9141 15.1322 40.3724C15.1795 40.7317 15.4879 41 15.8528 41H19.1453C19.5089 41 19.8156 40.7308 19.8603 40.3724C20.1821 37.9208 22.285 36.0867 24.7742 36.0867C27.2634 36.0867 29.3663 37.9208 29.688 40.3724C29.7328 40.7308 30.0394 41 30.4031 41H33.6568C34.0505 41 34.3713 40.6863 34.3774 40.2953C34.455 35.7423 35.6911 30.5122 39.2164 27.8916C51.4276 18.8186 48.2182 11.0394 45.3913 8.21516ZM32.9362 21.9402L30.6082 20.7786C30.6056 20.0923 31.0866 19.4978 31.7619 19.3526C32.4371 19.2074 33.1226 19.5511 33.406 20.1769C33.6895 20.8028 33.4936 21.5402 32.9362 21.9457V21.9402Z" fill="#CBCBCB"/>
</svg>
