<svg width="48" height="48" viewBox="0 0 48 48" fill="none" xmlns="http://www.w3.org/2000/svg">
<path d="M10.7393 1H12.8057V3.04844H14.7104V1H16.7768V7.19922H14.7104V5.13281H12.8236V7.19922H10.7393V1ZM19.508 3.06641H17.6842V1H23.4072V3.06641H21.5744V7.19922H19.508V3.06641ZM24.3146 1H26.4799L27.8096 3.1832L29.1393 1H31.3045V7.19922H29.2381V4.12656L27.7916 6.35469L26.3451 4.12656V7.19922H24.3146V1ZM32.3287 1H34.3951V5.15078H37.324V7.19922H32.3287" fill="#757575"/>
<path d="M10.667 43.3167L7.70215 10.0386H40.2975L37.3326 43.2987L23.9729 47.0003" fill="#AFAFAF"/>
<path d="M24 44.1699V12.7695H37.3238L34.7813 41.1602" fill="#CBCBCB"/>
<path d="M13.7578 16.8394H24V20.9183H18.232L18.6094 25.096H24V29.1659H14.8719L13.7578 16.8394ZM15.0516 31.2144H19.1484L19.4359 34.4757L24 35.6976V39.9562L15.6266 37.6202" fill="#E2E2E2"/>
<path d="M34.2057 16.8394H23.9814V20.9183H33.8283L34.2057 16.8394ZM33.46 25.096H23.9814V29.1749H29.0127L28.5365 34.4757L23.9814 35.6976V39.9382L32.3369 37.6202" fill="white"/>
</svg>
