<svg width="48" height="48" viewBox="0 0 48 48" fill="none" xmlns="http://www.w3.org/2000/svg">
<path fill-rule="evenodd" clip-rule="evenodd" d="M44.747 14.0177L44.9347 14.4558C46.3116 17.4911 47 20.683 47 24C47 36.6734 36.6734 47 24 47C11.3265 47 1 36.6734 1 24C1 11.3265 11.3265 1 24 1C27.7238 1 31.2598 1.87619 34.5143 3.50341L34.9523 3.72245L34.5768 4.03537C33.6381 4.78639 32.9184 5.72516 32.449 6.82041L32.3238 7.13334L32.0422 7.00816C29.5075 5.81905 26.8164 5.1932 24 5.1932C13.6109 5.1932 5.1932 13.6109 5.1932 24C5.1932 34.3891 13.6109 42.8068 24 42.8068C34.3891 42.8068 42.8068 34.3578 42.8068 24C42.8068 21.5279 42.3375 19.0871 41.3673 16.8027L41.2422 16.4898L41.555 16.3646C42.6503 15.9578 43.6516 15.2694 44.4341 14.3932L44.747 14.0177ZM39.0516 14.4558C41.6959 14.4558 43.8395 12.3123 43.8395 9.66807C43.8395 7.02386 41.6959 4.8803 39.0516 4.8803C36.4075 4.8803 34.2639 7.02386 34.2639 9.66807C34.2639 12.3123 36.4075 14.4558 39.0516 14.4558ZM23.9999 13.5171C18.2108 13.5171 13.5169 18.2109 13.5169 24.0001C13.5169 29.7892 18.2108 34.4831 23.9999 34.4831C29.789 34.4831 34.4828 29.7892 34.4828 24.0001C34.4828 18.2109 29.789 13.5171 23.9999 13.5171Z" fill="#CBCBCB"/>
</svg>
