<svg width="48" height="48" viewBox="0 0 48 48" fill="none" xmlns="http://www.w3.org/2000/svg">
<path d="M18.6654 36.0659C18.6654 36.0659 16.9168 37.0866 19.9099 37.432C23.5359 37.8473 25.3891 37.7877 29.385 37.0286C29.385 37.0286 30.4355 37.6898 31.9027 38.2625C22.945 42.1161 11.6296 38.0393 18.6654 36.0659Z" fill="#CBCBCB"/>
<path d="M17.5682 31.0371C17.5682 31.0371 15.607 32.4944 18.6023 32.8053C22.4757 33.2065 25.5346 33.2393 30.8277 32.2162C30.8277 32.2162 31.5598 32.9612 32.711 33.3686C21.8806 36.5476 9.81747 33.6193 17.5682 31.0371Z" fill="#CBCBCB"/>
<path d="M26.7969 22.5065C29.0041 25.0573 26.217 27.3527 26.217 27.3527C26.217 27.3527 31.8214 24.4486 29.2475 20.812C26.8437 17.4206 25.0002 15.7356 34.98 9.92578C34.98 9.92578 19.315 13.8529 26.7969 22.5065Z" fill="#AFAFAF"/>
<path d="M38.6441 39.7855C38.6441 39.7855 39.9381 40.8557 37.219 41.6837C32.0485 43.2559 15.6988 43.7307 11.157 41.7463C9.52427 41.0334 12.586 40.0439 13.5491 39.8363C14.5536 39.6177 15.1276 39.6584 15.1276 39.6584C13.3118 38.3745 3.39152 42.1795 10.0885 43.2692C28.3522 46.2422 43.3815 41.9304 38.6441 39.7855Z" fill="#CBCBCB"/>
<path d="M19.5037 25.8268C19.5037 25.8268 11.1872 27.8096 16.5586 28.5296C18.8266 28.8344 23.3477 28.7654 27.5591 28.4113C31.0008 28.1198 34.4567 27.5002 34.4567 27.5002C34.4567 27.5002 33.2431 28.0219 32.3651 28.6237C23.9199 30.8532 7.60523 29.816 12.302 27.5355C16.2741 25.6082 19.5037 25.8268 19.5037 25.8268Z" fill="#CBCBCB"/>
<path d="M34.4245 34.1971C43.0095 29.7192 39.0401 25.4159 36.2696 25.9957C35.5905 26.1375 35.2877 26.2605 35.2877 26.2605C35.2877 26.2605 35.5398 25.8641 36.0213 25.6925C41.5024 23.7582 45.7176 31.3973 34.252 34.4228C34.252 34.423 34.3848 34.3037 34.4245 34.1971Z" fill="#CBCBCB"/>
<path d="M29.2464 0.544434C29.2464 0.544434 34.0009 5.31852 24.737 12.6597C17.3082 18.5486 23.043 21.9063 24.7339 25.7426C20.3976 21.8154 17.2154 18.3583 19.3503 15.1408C22.4838 10.4177 31.1647 8.12777 29.2464 0.544434Z" fill="#AFAFAF"/>
<path d="M20.3471 46.3317C28.5876 46.8612 41.2419 46.0379 41.5416 42.124C41.5416 42.124 40.9655 43.6078 34.7312 44.7861C27.6978 46.1147 19.023 45.9596 13.8779 45.1081C13.8781 45.108 14.9312 45.9831 20.3471 46.3317Z" fill="#CBCBCB"/>
</svg>
