<svg width="96" height="136" viewBox="0 0 96 136" fill="none" xmlns="http://www.w3.org/2000/svg">
<path d="M37.3299 72.1313C37.3299 72.1313 33.8327 74.1728 39.8188 74.8636C47.0708 75.694 50.7772 75.575 58.7689 74.0567C58.7689 74.0567 60.87 75.3791 63.8044 76.5245C45.889 84.2318 23.2583 76.0781 37.3299 72.1313Z" fill="#CBCBCB"/>
<path d="M35.1365 62.0742C35.1365 62.0742 31.214 64.9887 37.2045 65.6107C44.9513 66.4129 51.0692 66.4785 61.6553 64.4324C61.6553 64.4324 63.1196 65.9224 65.422 66.7373C43.7612 73.0951 19.6349 67.2387 35.1365 62.0742Z" fill="#CBCBCB"/>
<path d="M53.5938 45.0131C58.0082 50.1146 52.434 54.7053 52.434 54.7053C52.434 54.7053 63.6428 48.8972 58.4951 41.6239C53.6873 34.8412 50.0004 31.4711 69.9599 19.8516C69.9599 19.8516 38.63 27.7059 53.5938 45.0131Z" fill="#AFAFAF"/>
<path d="M77.2892 79.5709C77.2892 79.5709 79.8773 81.7114 74.439 83.3673C64.098 86.5119 31.3986 87.4614 22.3149 83.4926C19.0495 82.0667 25.173 80.0879 27.0992 79.6727C29.1081 79.2354 30.2561 79.3169 30.2561 79.3169C26.6247 76.749 6.78402 84.359 20.178 86.5384C56.7054 92.4844 86.7639 83.8608 77.2892 79.5709Z" fill="#CBCBCB"/>
<path d="M39.0064 51.6536C39.0064 51.6536 22.3734 55.6192 33.1163 57.0592C37.6522 57.6688 46.6945 57.5309 55.1172 56.8225C62.0007 56.2397 68.9125 55.0004 68.9125 55.0004C68.9125 55.0004 66.4853 56.0438 64.7293 57.2474C47.8388 61.7064 15.2095 59.632 24.603 55.071C32.5472 51.2164 39.0064 51.6536 39.0064 51.6536Z" fill="#CBCBCB"/>
<path d="M68.85 68.3948C86.02 59.4389 78.0812 50.8323 72.5401 51.9918C71.182 52.2756 70.5764 52.5214 70.5764 52.5214C70.5764 52.5214 71.0806 51.7286 72.0436 51.3855C83.0057 47.517 91.4363 62.7951 68.5049 68.8461C68.5049 68.8464 68.7705 68.608 68.85 68.3948Z" fill="#CBCBCB"/>
<path d="M58.4928 1.08936C58.4928 1.08936 68.0018 10.6375 49.4739 25.3199C34.6165 37.0977 46.086 43.8131 49.4678 51.4857C40.7952 43.6313 34.4307 36.7171 38.7005 30.282C44.9676 20.8359 62.3295 16.256 58.4928 1.08936Z" fill="#AFAFAF"/>
<path d="M40.6943 92.6629C57.1753 93.7219 82.4838 92.0754 83.0832 84.2476C83.0832 84.2476 81.931 87.215 69.4625 89.5717C55.3956 92.2289 38.046 91.9187 27.7559 90.2157C27.7561 90.2154 29.8624 91.9657 40.6943 92.6629Z" fill="#CBCBCB"/>
<path d="M34.848 118.848V127.088C34.848 128.005 34.5653 128.741 34 129.296C33.4347 129.84 32.688 130.112 31.76 130.112C30.8213 130.112 30.0693 129.835 29.504 129.28C28.9387 128.715 28.656 127.947 28.656 126.976H30.112C30.1227 127.52 30.2613 127.963 30.528 128.304C30.8053 128.645 31.216 128.816 31.76 128.816C32.304 128.816 32.7093 128.656 32.976 128.336C33.2427 128.005 33.376 127.589 33.376 127.088V118.848H34.848ZM37.1724 125.584C37.1724 124.688 37.3537 123.904 37.7164 123.232C38.079 122.549 38.575 122.021 39.2044 121.648C39.8444 121.275 40.5537 121.088 41.3324 121.088C42.1004 121.088 42.767 121.253 43.3324 121.584C43.8977 121.915 44.319 122.331 44.5964 122.832V121.232H46.0684V130H44.5964V128.368C44.3084 128.88 43.8764 129.307 43.3004 129.648C42.735 129.979 42.0737 130.144 41.3164 130.144C40.5377 130.144 39.8337 129.952 39.2044 129.568C38.575 129.184 38.079 128.645 37.7164 127.952C37.3537 127.259 37.1724 126.469 37.1724 125.584ZM44.5964 125.6C44.5964 124.939 44.463 124.363 44.1964 123.872C43.9297 123.381 43.567 123.008 43.1084 122.752C42.6604 122.485 42.1644 122.352 41.6204 122.352C41.0764 122.352 40.5804 122.48 40.1324 122.736C39.6844 122.992 39.327 123.365 39.0604 123.856C38.7937 124.347 38.6604 124.923 38.6604 125.584C38.6604 126.256 38.7937 126.843 39.0604 127.344C39.327 127.835 39.6844 128.213 40.1324 128.48C40.5804 128.736 41.0764 128.864 41.6204 128.864C42.1644 128.864 42.6604 128.736 43.1084 128.48C43.567 128.213 43.9297 127.835 44.1964 127.344C44.463 126.843 44.5964 126.261 44.5964 125.6ZM51.7929 128.656L54.5129 121.232H56.0649L52.6249 130H50.9289L47.4889 121.232H49.0569L51.7929 128.656ZM56.9536 125.584C56.9536 124.688 57.135 123.904 57.4976 123.232C57.8603 122.549 58.3563 122.021 58.9856 121.648C59.6256 121.275 60.335 121.088 61.1136 121.088C61.8816 121.088 62.5483 121.253 63.1136 121.584C63.679 121.915 64.1003 122.331 64.3776 122.832V121.232H65.8496V130H64.3776V128.368C64.0896 128.88 63.6576 129.307 63.0816 129.648C62.5163 129.979 61.855 130.144 61.0976 130.144C60.319 130.144 59.615 129.952 58.9856 129.568C58.3563 129.184 57.8603 128.645 57.4976 127.952C57.135 127.259 56.9536 126.469 56.9536 125.584ZM64.3776 125.6C64.3776 124.939 64.2443 124.363 63.9776 123.872C63.711 123.381 63.3483 123.008 62.8896 122.752C62.4416 122.485 61.9456 122.352 61.4016 122.352C60.8576 122.352 60.3616 122.48 59.9136 122.736C59.4656 122.992 59.1083 123.365 58.8416 123.856C58.575 124.347 58.4416 124.923 58.4416 125.584C58.4416 126.256 58.575 126.843 58.8416 127.344C59.1083 127.835 59.4656 128.213 59.9136 128.48C60.3616 128.736 60.8576 128.864 61.4016 128.864C61.9456 128.864 62.4416 128.736 62.8896 128.48C63.3483 128.213 63.711 127.835 63.9776 127.344C64.2443 126.843 64.3776 126.261 64.3776 125.6Z" fill="#AFAFAF"/>
</svg>
