<svg width="48" height="48" viewBox="0 0 48 48" fill="none" xmlns="http://www.w3.org/2000/svg">
<path d="M1 1H47V47H1V1Z" fill="#CBCBCB"/>
<path d="M13.0949 39.4408L16.615 37.3104C17.2942 38.5145 17.912 39.5333 19.3939 39.5333C20.8143 39.5333 21.71 38.9777 21.71 36.8164V22.1183H26.0328V36.8775C26.0328 41.3548 23.4083 43.3928 19.5791 43.3928C16.121 43.3928 14.1137 41.6019 13.0947 39.4404L13.0949 39.4408ZM28.3807 38.9775L31.9005 36.9397C32.8271 38.4528 34.0314 39.5644 36.1618 39.5644C37.9531 39.5644 39.0951 38.6688 39.0951 37.4336C39.0951 35.9516 37.9218 35.4265 35.9456 34.5622L34.8651 34.0986C31.7463 32.7713 29.6775 31.1038 29.6775 27.5837C29.6775 24.3414 32.1477 21.8711 36.0076 21.8711C38.7557 21.8711 40.7319 22.8285 42.1522 25.3295L38.7863 27.4912C38.0451 26.1635 37.2426 25.6386 36.0074 25.6386C34.7413 25.6386 33.9385 26.4414 33.9385 27.4912C33.9385 28.788 34.7413 29.3132 36.5939 30.1161L37.6745 30.5791C41.3491 32.1541 43.4179 33.7596 43.4179 37.372C43.4179 41.263 40.361 43.3933 36.2543 43.3933C32.2402 43.3933 29.6465 41.479 28.3806 38.9777" fill="white"/>
</svg>
