<svg width="96" height="136" viewBox="0 0 96 136" fill="none" xmlns="http://www.w3.org/2000/svg">
<path d="M2 2H94V94H2V2Z" fill="#CBCBCB"/>
<path d="M26.1898 78.8815L33.23 74.6208C34.5884 77.0289 35.8239 79.0666 38.7877 79.0666C41.6286 79.0666 43.42 77.9554 43.42 73.6328V44.2367H52.0655V73.755C52.0655 82.7096 46.8165 86.7856 39.1582 86.7856C32.242 86.7856 28.2275 83.2037 26.1895 78.8808L26.1898 78.8815ZM56.7615 77.9551L63.8009 73.8794C65.6542 76.9057 68.0628 79.1288 72.3235 79.1288C75.9061 79.1288 78.1903 77.3376 78.1903 74.8673C78.1903 71.9032 75.8436 70.8531 71.8912 69.1245L69.7303 68.1973C63.4926 65.5426 59.3551 62.2076 59.3551 55.1674C59.3551 48.6829 64.2954 43.7422 72.0152 43.7422C77.5114 43.7422 81.4638 45.6569 84.3043 50.6591L77.5725 54.9824C76.0901 52.3269 74.4851 51.2772 72.0148 51.2772C69.4826 51.2772 67.877 52.8829 67.877 54.9824C67.877 57.576 69.4826 58.6264 73.1878 60.2321L75.3491 61.1582C82.6983 64.3081 86.8358 67.5192 86.8358 74.744C86.8358 82.5259 80.7221 86.7867 72.5086 86.7867C64.4805 86.7867 59.2929 82.9579 56.7611 77.9554" fill="white"/>
<path d="M12.348 118.848V127.088C12.348 128.005 12.0653 128.741 11.5 129.296C10.9347 129.84 10.188 130.112 9.26 130.112C8.32133 130.112 7.56933 129.835 7.004 129.28C6.43867 128.715 6.156 127.947 6.156 126.976H7.612C7.62267 127.52 7.76133 127.963 8.028 128.304C8.30533 128.645 8.716 128.816 9.26 128.816C9.804 128.816 10.2093 128.656 10.476 128.336C10.7427 128.005 10.876 127.589 10.876 127.088V118.848H12.348ZM14.6724 125.584C14.6724 124.688 14.8537 123.904 15.2164 123.232C15.579 122.549 16.075 122.021 16.7044 121.648C17.3444 121.275 18.0537 121.088 18.8324 121.088C19.6004 121.088 20.267 121.253 20.8324 121.584C21.3977 121.915 21.819 122.331 22.0964 122.832V121.232H23.5684V130H22.0964V128.368C21.8084 128.88 21.3764 129.307 20.8004 129.648C20.235 129.979 19.5737 130.144 18.8164 130.144C18.0377 130.144 17.3337 129.952 16.7044 129.568C16.075 129.184 15.579 128.645 15.2164 127.952C14.8537 127.259 14.6724 126.469 14.6724 125.584ZM22.0964 125.6C22.0964 124.939 21.963 124.363 21.6964 123.872C21.4297 123.381 21.067 123.008 20.6084 122.752C20.1604 122.485 19.6644 122.352 19.1204 122.352C18.5764 122.352 18.0804 122.48 17.6324 122.736C17.1844 122.992 16.827 123.365 16.5604 123.856C16.2937 124.347 16.1604 124.923 16.1604 125.584C16.1604 126.256 16.2937 126.843 16.5604 127.344C16.827 127.835 17.1844 128.213 17.6324 128.48C18.0804 128.736 18.5764 128.864 19.1204 128.864C19.6644 128.864 20.1604 128.736 20.6084 128.48C21.067 128.213 21.4297 127.835 21.6964 127.344C21.963 126.843 22.0964 126.261 22.0964 125.6ZM29.2929 128.656L32.0129 121.232H33.5649L30.1249 130H28.4289L24.9889 121.232H26.5569L29.2929 128.656ZM34.4536 125.584C34.4536 124.688 34.635 123.904 34.9976 123.232C35.3603 122.549 35.8563 122.021 36.4856 121.648C37.1256 121.275 37.835 121.088 38.6136 121.088C39.3816 121.088 40.0483 121.253 40.6136 121.584C41.179 121.915 41.6003 122.331 41.8776 122.832V121.232H43.3496V130H41.8776V128.368C41.5896 128.88 41.1576 129.307 40.5816 129.648C40.0163 129.979 39.355 130.144 38.5976 130.144C37.819 130.144 37.115 129.952 36.4856 129.568C35.8563 129.184 35.3603 128.645 34.9976 127.952C34.635 127.259 34.4536 126.469 34.4536 125.584ZM41.8776 125.6C41.8776 124.939 41.7443 124.363 41.4776 123.872C41.211 123.381 40.8483 123.008 40.3896 122.752C39.9416 122.485 39.4456 122.352 38.9016 122.352C38.3576 122.352 37.8616 122.48 37.4136 122.736C36.9656 122.992 36.6083 123.365 36.3416 123.856C36.075 124.347 35.9416 124.923 35.9416 125.584C35.9416 126.256 36.075 126.843 36.3416 127.344C36.6083 127.835 36.9656 128.213 37.4136 128.48C37.8616 128.736 38.3576 128.864 38.9016 128.864C39.4456 128.864 39.9416 128.736 40.3896 128.48C40.8483 128.213 41.211 127.835 41.4776 127.344C41.7443 126.843 41.8776 126.261 41.8776 125.6ZM49.3461 130.112C48.6101 130.112 47.9488 129.984 47.3621 129.728C46.7861 129.461 46.3328 129.099 46.0021 128.64C45.6715 128.171 45.5008 127.632 45.4901 127.024H47.0421C47.0955 127.547 47.3088 127.989 47.6821 128.352C48.0661 128.704 48.6208 128.88 49.3461 128.88C50.0395 128.88 50.5835 128.709 50.9781 128.368C51.3835 128.016 51.5861 127.568 51.5861 127.024C51.5861 126.597 51.4688 126.251 51.2341 125.984C50.9995 125.717 50.7061 125.515 50.3541 125.376C50.0021 125.237 49.5275 125.088 48.9301 124.928C48.1941 124.736 47.6021 124.544 47.1541 124.352C46.7168 124.16 46.3381 123.861 46.0181 123.456C45.7088 123.04 45.5541 122.485 45.5541 121.792C45.5541 121.184 45.7088 120.645 46.0181 120.176C46.3275 119.707 46.7595 119.344 47.3141 119.088C47.8795 118.832 48.5248 118.704 49.2501 118.704C50.2955 118.704 51.1488 118.965 51.8101 119.488C52.4821 120.011 52.8608 120.704 52.9461 121.568H51.3461C51.2928 121.141 51.0688 120.768 50.6741 120.448C50.2795 120.117 49.7568 119.952 49.1061 119.952C48.4981 119.952 48.0021 120.112 47.6181 120.432C47.2341 120.741 47.0421 121.179 47.0421 121.744C47.0421 122.149 47.1541 122.48 47.3781 122.736C47.6128 122.992 47.8955 123.189 48.2261 123.328C48.5675 123.456 49.0421 123.605 49.6501 123.776C50.3861 123.979 50.9781 124.181 51.4261 124.384C51.8741 124.576 52.2581 124.88 52.5781 125.296C52.8981 125.701 53.0581 126.256 53.0581 126.96C53.0581 127.504 52.9141 128.016 52.6261 128.496C52.3381 128.976 51.9115 129.365 51.3461 129.664C50.7808 129.963 50.1141 130.112 49.3461 130.112ZM54.6568 125.6C54.6568 124.693 54.8381 123.904 55.2008 123.232C55.5634 122.549 56.0648 122.021 56.7048 121.648C57.3554 121.275 58.0968 121.088 58.9288 121.088C60.0061 121.088 60.8914 121.349 61.5848 121.872C62.2888 122.395 62.7528 123.12 62.9768 124.048H61.4088C61.2594 123.515 60.9661 123.093 60.5288 122.784C60.1021 122.475 59.5688 122.32 58.9288 122.32C58.0968 122.32 57.4248 122.608 56.9128 123.184C56.4008 123.749 56.1448 124.555 56.1448 125.6C56.1448 126.656 56.4008 127.472 56.9128 128.048C57.4248 128.624 58.0968 128.912 58.9288 128.912C59.5688 128.912 60.1021 128.763 60.5288 128.464C60.9554 128.165 61.2488 127.739 61.4088 127.184H62.9768C62.7421 128.08 62.2728 128.8 61.5688 129.344C60.8648 129.877 59.9848 130.144 58.9288 130.144C58.0968 130.144 57.3554 129.957 56.7048 129.584C56.0648 129.211 55.5634 128.683 55.2008 128C54.8381 127.317 54.6568 126.517 54.6568 125.6ZM66.3755 122.656C66.6315 122.155 66.9942 121.765 67.4635 121.488C67.9435 121.211 68.5248 121.072 69.2075 121.072V122.576H68.8235C67.1915 122.576 66.3755 123.461 66.3755 125.232V130H64.9195V121.232H66.3755V122.656ZM71.6403 119.808C71.3629 119.808 71.1283 119.712 70.9363 119.52C70.7443 119.328 70.6483 119.093 70.6483 118.816C70.6483 118.539 70.7443 118.304 70.9363 118.112C71.1283 117.92 71.3629 117.824 71.6403 117.824C71.9069 117.824 72.1309 117.92 72.3123 118.112C72.5043 118.304 72.6003 118.539 72.6003 118.816C72.6003 119.093 72.5043 119.328 72.3123 119.52C72.1309 119.712 71.9069 119.808 71.6403 119.808ZM72.3443 121.232V130H70.8883V121.232H72.3443ZM76.2818 122.848C76.5698 122.347 76.9964 121.931 77.5618 121.6C78.1378 121.259 78.8044 121.088 79.5618 121.088C80.3404 121.088 81.0444 121.275 81.6737 121.648C82.3137 122.021 82.8151 122.549 83.1778 123.232C83.5404 123.904 83.7218 124.688 83.7218 125.584C83.7218 126.469 83.5404 127.259 83.1778 127.952C82.8151 128.645 82.3137 129.184 81.6737 129.568C81.0444 129.952 80.3404 130.144 79.5618 130.144C78.8151 130.144 78.1538 129.979 77.5778 129.648C77.0124 129.307 76.5804 128.885 76.2818 128.384V134.16H74.8258V121.232H76.2818V122.848ZM82.2338 125.584C82.2338 124.923 82.1004 124.347 81.8338 123.856C81.5671 123.365 81.2044 122.992 80.7458 122.736C80.2978 122.48 79.8018 122.352 79.2578 122.352C78.7244 122.352 78.2284 122.485 77.7698 122.752C77.3218 123.008 76.9591 123.387 76.6818 123.888C76.4151 124.379 76.2818 124.949 76.2818 125.6C76.2818 126.261 76.4151 126.843 76.6818 127.344C76.9591 127.835 77.3218 128.213 77.7698 128.48C78.2284 128.736 78.7244 128.864 79.2578 128.864C79.8018 128.864 80.2978 128.736 80.7458 128.48C81.2044 128.213 81.5671 127.835 81.8338 127.344C82.1004 126.843 82.2338 126.256 82.2338 125.584ZM87.4143 122.432V127.6C87.4143 128.027 87.5049 128.331 87.6863 128.512C87.8676 128.683 88.1823 128.768 88.6302 128.768H89.7023V130H88.3903C87.5796 130 86.9716 129.813 86.5663 129.44C86.1609 129.067 85.9583 128.453 85.9583 127.6V122.432H84.8223V121.232H85.9583V119.024H87.4143V121.232H89.7023V122.432H87.4143Z" fill="#AFAFAF"/>
</svg>
