<svg width="48" height="48" viewBox="0 0 48 48" fill="none" xmlns="http://www.w3.org/2000/svg">
<g clip-path="url(#clip0_369_2002)">
<path d="M40.9723 23.1301C40.9723 32.6401 33.2649 40.3495 23.757 40.3495C14.2494 40.3495 6.54199 32.6401 6.54199 23.1301C6.54199 13.62 14.2494 5.91064 23.757 5.91064C33.2649 5.91064 40.9723 13.6202 40.9723 23.1303" fill="#E2E2E2"/>
<path d="M7.24345 27.3945C7.24345 27.3945 5.99734 9.43731 22.9175 8.92445L21.7372 7.00049L12.5559 10.0145L9.93243 12.9648L7.63694 17.2617L6.3252 22.264L6.71869 25.5988" fill="#CBCBCB"/>
<path d="M11.9659 11.383C8.94544 14.4052 7.07635 18.5779 7.07635 23.1942C7.07635 27.8091 8.94544 31.9824 11.9659 35.0042C14.9879 38.0256 19.1525 39.8903 23.7567 39.8903C28.361 39.8903 32.5259 38.0258 35.5478 35.0042C38.5679 31.9825 40.4373 27.8094 40.4373 23.1942C40.4373 18.5779 38.5678 14.4052 35.5478 11.383C32.5259 8.36208 28.3612 6.49768 23.7567 6.49722C19.1525 6.49753 14.9879 8.36208 11.9659 11.383V11.383ZM11.2016 35.735C7.99146 32.5248 6.00684 28.0883 6.00684 23.1942C6.00684 18.2993 7.99146 13.8631 11.2013 10.6525C14.4106 7.44119 18.853 5.45104 23.7565 5.45166C28.6601 5.45104 33.1029 7.44119 36.3116 10.6525C39.5221 13.8631 41.507 18.2997 41.5064 23.1942C41.5068 28.0881 39.5221 32.5246 36.3116 35.735C33.1029 38.946 28.6601 40.9362 23.7565 40.9362C18.8531 40.9362 14.4106 38.946 11.2016 35.735" fill="#757575"/>
<path d="M31.0041 23.2256L28.3806 23.6104L24.8392 23.9952L22.5438 24.0592L20.314 23.9952L18.6089 23.482L17.1006 21.8788L15.9201 18.6081L15.6577 17.9025L14.0837 17.3896L13.1656 15.9145L12.5098 13.7981L13.2311 11.9382L14.9364 11.361L16.3136 12.0025L16.9693 13.4133L17.7563 13.285L18.0187 12.9645L17.7563 11.4894L17.6908 9.62945L18.0843 7.06426L18.069 5.59897L19.2648 3.72965L21.3634 2.2545L25.0359 0.715332L29.1021 1.29252L32.6435 3.79368L34.283 6.35902L35.3325 8.2188L35.5947 12.8363L34.8078 16.8126L33.3651 20.3398L31.9878 22.1997" fill="white"/>
<path d="M28.7745 34.3203L19.3963 34.7051V36.2442L20.1832 41.6313L19.7897 42.0803L13.2315 39.8998L12.7725 39.1302L12.1166 31.8833L10.6083 27.5222L10.2803 26.4962L15.527 22.9692L17.1664 22.3276L18.6093 24.0592L19.8554 25.1496L21.2981 25.5984L21.954 25.7908L22.7409 29.1257L23.3312 29.8311L24.8395 29.3181L23.7903 31.3062L29.496 33.9356L28.7745 34.3204" fill="#AFAFAF"/>
<path d="M13.231 11.9378L14.9362 11.3606L16.3134 12.0022L16.9692 13.413L17.7561 13.2846L17.9529 12.515L17.5594 11.0402L17.9529 7.51271L17.6249 5.58875L18.8054 4.24197L21.3631 2.25397L20.6419 1.29199L17.0346 3.02356L15.5265 4.17794L14.6738 5.97354L13.3622 7.70511L12.9688 9.75744L13.231 11.9378" fill="#AFAFAF"/>
<path d="M15.9199 5.90974C15.9199 5.90974 16.9037 3.53696 20.8386 2.38258C24.7736 1.2282 21.0354 1.54865 21.0354 1.54865L16.7724 3.15232L15.133 4.75536L14.4115 6.03811L15.9199 5.90974V5.90974ZM13.9525 11.4892C13.9525 11.4892 12.5753 6.99994 17.8216 6.35857L17.6249 5.58898L14.018 6.4229L12.9688 9.75767L13.231 11.9381L13.9525 11.4892" fill="#E2E2E2"/>
<path d="M16.0513 17.4533L16.91 16.6397C16.91 16.6397 17.2975 16.6837 17.363 17.1325C17.4285 17.5816 17.6252 21.622 20.4455 23.8025C20.7025 24.0015 18.3467 23.4816 18.3467 23.4816L16.248 20.2753L16.0513 17.4533ZM28.1189 16.2349C28.1189 16.2349 28.2719 14.2909 28.8074 14.4403C29.3427 14.5898 29.3427 15.1134 29.3427 15.1134C29.3427 15.1134 28.0424 15.9358 28.1189 16.2349ZM33.562 9.1162C33.562 9.1162 32.4807 9.33938 32.3815 10.2706C32.2819 11.2019 33.562 10.463 33.7588 10.3986L33.562 9.1162ZM25.6265 9.18038C25.6265 9.18038 24.1838 9.37278 24.1838 10.2706C24.1838 11.1682 25.8233 11.1043 26.2826 10.7196L25.6265 9.18038ZM16.7073 13.3489C16.7073 13.3489 14.2151 11.8738 13.9528 13.2846C13.6903 14.6957 13.1001 15.7217 14.3463 17.1969L13.4935 16.9401L12.7066 14.9521L12.4443 13.0282L13.9528 11.4888L15.6578 11.6172L16.6415 12.3868L16.7073 13.3488V13.3489ZM17.8878 9.30859C17.8878 9.30859 19.0025 3.66476 24.6426 2.57472C29.2863 1.67723 31.7254 2.76711 32.6438 3.79313C32.6438 3.79313 28.5121 -1.01663 24.5772 0.458355C20.6422 1.93319 17.7565 4.62674 17.822 6.35831C17.9337 9.30736 17.8878 9.30859 17.8878 9.30859V9.30859ZM33.1029 4.43434C33.1029 4.43434 31.2012 4.37032 31.1354 6.03785C31.1354 6.03785 31.1353 6.29428 31.2667 6.55071C31.2667 6.55071 32.7753 4.88332 33.6931 5.78112" fill="#EEEEEE"/>
<path d="M24.7745 6.72488C24.7745 6.72488 24.4471 4.16539 22.2159 5.65346C20.7729 6.61544 20.9041 7.96222 21.1663 8.21864C21.4289 8.47538 21.3574 8.99192 21.5572 8.6373C21.7566 8.28267 21.691 7.12829 22.4126 6.80784C23.1338 6.48708 24.3165 6.12891 24.7745 6.72488Z" fill="#EEEEEE"/>
<path d="M18.6081 24.0591L12.4435 26.7527C12.4435 26.7527 15.0012 36.6932 13.6895 39.7716L12.7715 39.4511L12.7057 35.6672L11.0008 28.4845L10.2793 26.4962L16.7065 22.2637L18.6081 24.0591V24.0591ZM19.2421 29.5573L20.1166 30.6006V34.4485H19.0674C19.0674 34.4485 18.9361 31.755 18.9361 31.4344C18.9361 31.1137 19.0674 29.9594 19.0674 29.9594L19.2421 29.5573ZM19.2642 35.026L16.313 35.1541L17.1654 35.7313L19.2642 36.0519" fill="#757575"/>
<path d="M29.3643 34.3845L31.791 34.3203L32.3812 40.2204L29.889 40.541L29.3643 34.3845" fill="#AFAFAF"/>
<path d="M30.0205 34.3844L33.6929 34.192C33.6929 34.192 35.2014 30.4722 35.2014 30.2798C35.2014 30.0874 36.5131 24.8927 36.5131 24.8927L33.5619 21.8787L32.9717 21.3657L31.3977 22.9049V28.8692L30.0205 34.3844Z" fill="#AFAFAF"/>
<path d="M31.6597 33.9354L29.3643 34.3843L29.6923 36.1802C30.5447 36.565 31.9878 35.5387 31.9878 35.5387L31.6597 33.9354ZM31.7254 22.7125L36.3163 26.0474L36.4473 24.5082L32.9716 21.3657L31.7254 22.7125Z" fill="#757575"/>
<path d="M21.5402 47.0192L20.1825 41.631L19.5073 37.6556L19.3955 34.7047L25.5408 34.3849L29.364 34.3843L29.0166 41.1188L29.6068 46.3135L29.541 47.2755L24.557 47.6603L21.5402 47.0192Z" fill="white"/>
<path d="M28.5119 34.3203C28.5119 34.3203 28.1839 40.99 29.1676 45.7359C29.1676 45.7359 27.2002 46.9546 24.3145 47.2751L29.8235 47.0827L30.4794 46.6979L29.6924 36.1804L29.4957 33.9355" fill="#E2E2E2"/>
<path d="M32.493 39.708L35.0507 39.0025L39.9037 38.746L40.6252 36.5653L39.3135 32.7818L37.8053 32.5894L35.7066 33.2306L33.693 34.1919L32.6241 34.0002L31.791 34.3202" fill="white"/>
<path d="M32.4463 38.4248C32.4463 38.4248 34.1512 37.6553 34.4138 37.7195L33.6922 34.192L34.5449 33.8716C34.5449 33.8716 35.1351 37.2064 35.1351 37.5911C35.1351 37.5911 38.8077 37.7835 39.1357 37.7835C39.1357 37.7835 39.9227 36.3086 39.7259 34.7694L40.4473 36.8216L40.5129 37.9759L39.4635 39.5151L38.2831 39.7717L36.3156 39.7075L35.6597 38.8739L33.3645 39.1943L32.643 39.4511" fill="#E2E2E2"/>
<path d="M29.8692 33.8721L28.4265 30.2809L26.918 28.1646C26.918 28.1646 27.2458 27.2666 27.705 27.2666H29.2135L30.6562 27.7798L30.5252 30.1525L29.8692 33.8721Z" fill="white"/>
<path d="M30.1513 32.6527C30.1513 32.6527 28.3151 29.1897 28.3151 28.6767C28.3151 28.6767 28.643 27.9071 29.1021 28.0995C29.5611 28.2919 30.5448 28.8047 30.5448 28.8047V27.5863L28.3151 27.1372L26.8066 27.3296L29.3643 33.2299L29.8891 33.2942" fill="#E2E2E2"/>
<path d="M22.1305 24.1883L20.3136 23.9951L18.6084 23.4819V24.0591L19.4417 24.9577L22.065 26.1121" fill="white"/>
<path d="M19.1997 24.3804C19.1997 24.3804 21.2326 25.2141 21.8886 25.0217L21.9537 25.7906L20.1178 25.4065L19.0029 24.637L19.1997 24.3804Z" fill="#E2E2E2"/>
<path d="M32.4855 27.4848C31.3727 27.4528 30.3674 27.3235 29.4871 27.0808C29.5469 26.7278 29.4348 26.3815 29.5248 26.1273C29.7701 25.9544 30.1815 25.9572 30.5522 25.9167C30.2314 25.7625 29.7811 25.7017 29.4109 25.7905C29.4021 25.5456 29.2897 25.3938 29.2217 25.2022C29.8473 24.9837 31.3243 23.5522 32.1552 24.0263C32.5511 24.2518 32.7194 25.5396 32.7501 26.1657C32.7757 26.6855 32.702 27.2096 32.4856 27.4848" fill="#E2E2E2"/>
<path d="M32.4855 27.4848C31.3727 27.4528 30.3674 27.3235 29.4871 27.0808C29.5469 26.7278 29.4348 26.3815 29.5248 26.1273C29.7701 25.9544 30.1815 25.9572 30.5522 25.9167C30.2314 25.7625 29.7811 25.7017 29.4109 25.7905C29.4021 25.5456 29.2897 25.3938 29.2217 25.2022C29.8473 24.9837 31.3243 23.5522 32.1552 24.0263C32.5511 24.2518 32.7194 25.5396 32.7501 26.1657C32.7757 26.6855 32.702 27.2096 32.4856 27.4848H32.4855Z" stroke="#E2E2E2" stroke-width="6.14065"/>
<path d="M27.1638 25.7057C27.1609 25.7881 27.1572 25.871 27.1539 25.9542C26.8066 26.1773 26.2457 26.1746 25.8642 26.3622C26.4264 26.3862 26.8689 26.5186 27.2517 26.7053L27.227 27.3274C26.5901 27.7538 26.0084 28.3887 25.2585 28.7885C24.9039 28.9777 23.6596 29.4642 23.2824 29.3782C23.0692 29.3297 23.0498 29.0708 22.9645 28.8266C22.7827 28.304 22.3642 27.4721 22.3275 26.6848C22.2812 25.691 22.1784 24.0254 23.2738 24.2301C24.1574 24.3948 25.1854 24.793 25.8694 25.1586C26.2876 25.3817 26.5295 25.658 27.1638 25.7057" fill="#E2E2E2"/>
<path d="M27.1638 25.7057C27.1609 25.7881 27.1572 25.871 27.1539 25.9542C26.8066 26.1773 26.2457 26.1746 25.8642 26.3622C26.4264 26.3862 26.8689 26.5186 27.2517 26.7053L27.227 27.3274C26.5901 27.7538 26.0084 28.3887 25.2585 28.7885C24.9039 28.9777 23.6596 29.4642 23.2824 29.3782C23.0692 29.3297 23.0498 29.0708 22.9645 28.8266C22.7827 28.304 22.3642 27.4721 22.3275 26.6848C22.2812 25.691 22.1784 24.0254 23.2738 24.2301C24.1574 24.3948 25.1854 24.793 25.8694 25.1586C26.2876 25.3817 26.5295 25.658 27.1638 25.7057V25.7057Z" stroke="#E2E2E2" stroke-width="6.14065"/>
<path d="M27.7971 26.8918C27.6995 26.3504 27.5873 26.1959 27.6307 25.7234C29.1076 24.7608 29.3847 27.3772 27.7969 26.8918" fill="#E2E2E2"/>
<path d="M27.7971 26.8918C27.6995 26.3504 27.5873 26.1959 27.6307 25.7234C29.1076 24.7608 29.3847 27.3772 27.7969 26.8918H27.7971Z" stroke="#E2E2E2" stroke-width="6.14065"/>
<path d="M29.9353 27.3304C29.9353 27.3304 29.4762 26.689 29.8044 26.4966C30.1321 26.3042 30.4602 26.4967 30.657 26.176C30.8537 25.8555 30.657 25.6631 30.7225 25.2783C30.7882 24.8935 31.1164 24.8292 31.444 24.7652C31.7718 24.7011 32.6902 24.5728 32.8212 24.8935L32.4277 23.7392L31.6407 23.4824L29.1485 24.8935L29.0175 25.5988V27.0099L29.9353 27.3304ZM23.0492 29.4467C22.9703 28.4459 22.8871 27.4464 22.7942 26.4466C22.6555 24.9536 23.1609 25.214 24.4845 25.214C24.6866 25.214 25.729 25.4498 25.8036 25.5988C26.1614 26.3133 25.2055 26.1544 26.2159 26.6931C27.0683 27.1478 28.5749 26.4172 28.2304 25.4064C28.0376 25.1817 27.2257 25.3364 26.9348 25.1891L25.3979 24.4098C24.7459 24.0789 23.2395 23.5971 22.5442 24.0592C20.7834 25.2305 22.6555 28.1564 23.2837 29.3781" fill="#CBCBCB"/>
<path d="M24.774 6.72465C22.9866 6.31754 22.0984 7.45621 21.5567 8.63707C21.0728 8.5224 21.2655 7.87903 21.3876 7.55118C21.7076 6.69078 22.997 5.54549 24.0505 5.70079C24.5038 5.76744 25.1173 6.17285 24.774 6.72465ZM33.4834 8.71526L33.5683 8.71834C33.9722 9.53902 34.3217 10.4083 34.8311 11.1327C34.49 11.9101 32.2464 12.5981 32.2809 11.2021C32.766 10.9948 33.6035 11.1598 34.0337 10.8949C33.7852 10.2275 33.4263 9.65923 33.4834 8.71526V8.71526ZM25.6893 8.7365C26.0725 9.42358 26.1974 10.1455 26.7421 10.6648C26.9875 10.8986 27.4646 11.1835 27.228 11.8336C27.1727 11.9869 26.7689 12.3288 26.5354 12.3959C25.6838 12.6417 23.6991 12.4467 24.3712 11.4082C25.0759 11.4404 26.0223 11.8555 26.5488 11.3557C26.1448 10.7236 25.4241 9.4733 25.6893 8.7365V8.7365ZM33.1636 15.7194C31.8813 16.5252 30.4513 17.401 28.3501 17.1978C27.901 16.8161 27.7299 15.9666 28.1661 15.4056C28.3932 15.7873 28.2504 16.4893 28.8832 16.595C30.0755 16.7945 31.4632 15.8818 32.3211 15.5626C32.8526 14.6859 32.2749 14.3634 31.796 13.7991C30.8154 12.6429 29.4996 11.2099 29.5472 9.47915C29.9439 9.1981 29.9779 9.90827 30.0349 10.0376C30.547 11.2095 31.8358 12.7086 32.7766 13.7117C33.0075 13.9588 33.3877 14.1958 33.4301 14.3591C33.5521 14.8344 33.1128 15.4034 33.1638 15.7194H33.1636ZM16.2576 14.8713C15.8557 14.6469 15.7599 13.6588 15.288 13.6308C14.6139 13.5906 14.7368 14.9124 14.7393 15.6856C14.2753 15.2737 14.1936 14.0046 14.5345 13.3531C14.1458 13.1665 13.9722 13.559 13.7568 13.6972C14.0339 11.7291 16.7011 12.7845 16.2577 14.8713H16.2576ZM33.9802 16.539C33.3833 17.6502 32.5389 18.8738 30.7872 18.9093C30.7516 18.5506 30.7243 18.0045 30.7891 17.7882C32.1282 17.6626 32.9549 16.9962 33.9802 16.539V16.539ZM25.5884 17.2594C26.7054 17.8341 28.7587 17.8956 30.2773 17.8521C30.3586 18.1775 30.3567 18.5793 30.3599 18.9761C28.4078 19.0713 26.1001 18.599 25.5884 17.2594V17.2594ZM25.3759 18.3306C26.1486 20.2275 28.8039 20.0091 31.043 19.9568C30.9445 20.203 30.7307 20.4939 30.4652 20.5992C29.7475 20.8847 27.7685 21.1013 26.7722 20.5838C26.1404 20.2555 25.7348 19.5135 25.3885 19.0785C25.2215 18.8684 24.389 18.3317 25.3759 18.3305" fill="#757575"/>
<path d="M33.0704 28.7933C32.1638 30.3117 31.2965 31.8713 30.2207 33.2107C30.6716 31.914 30.8646 29.744 30.9328 28.0896C31.8762 27.658 32.684 28.1868 33.0704 28.7933Z" fill="#E2E2E2"/>
<path d="M37.9489 34.251C36.9338 34.4497 36.2207 35.4144 35.2305 35.3524C35.7746 34.6022 36.7283 34.2859 37.9489 34.251ZM38.3967 35.8043C37.5694 35.89 36.5976 36.0209 35.7585 35.9533C36.1556 35.3599 37.6862 35.5647 38.3967 35.8043ZM38.6833 37.1437C37.7535 37.1634 36.5978 37.1452 35.7143 37.0729C36.2369 36.5237 38.0803 36.8689 38.6833 37.1437Z" fill="#757575"/>
<path d="M31.3218 40.8088C31.4549 41.9507 31.9178 43.1077 31.8601 44.3582C31.346 44.5277 31.0506 44.6761 30.3616 44.6753C30.313 43.6123 30.1676 41.9876 30.2112 40.9744C30.5501 40.9964 31.0496 40.7378 31.3218 40.8088" fill="#E2E2E2"/>
<path d="M29.8225 23.9792C29.3557 24.2771 28.9581 24.6495 28.5097 24.9676C27.5152 25.0158 26.9727 24.9004 26.2422 24.3419C26.2541 24.2973 26.3275 24.3173 26.3303 24.2622C27.3947 24.7258 28.7478 24.0729 29.8225 23.979" fill="white"/>
<path d="M24.2344 31.0747C24.5268 29.8357 25.6727 29.1939 26.7132 28.5112C27.7873 29.8442 28.4405 31.5585 29.1598 33.2126C27.4602 32.7116 25.7238 31.8988 24.2344 31.0747" fill="#E2E2E2"/>
<path d="M30.2113 40.9742C30.1679 41.9875 30.3131 43.6122 30.3618 44.6752C31.0509 44.6761 31.346 44.5279 31.8602 44.3581C31.9183 43.1075 31.4552 41.9505 31.3219 40.8086C31.0496 40.7377 30.5502 40.9962 30.2113 40.9742V40.9742ZM19.486 35.2122C19.9402 39.2954 20.598 42.7278 21.8044 46.3436C24.4827 47.1388 27.7109 47.208 30.078 46.4906C29.6436 44.4498 29.8332 41.9653 29.5794 39.7874C29.3878 38.1505 29.4856 36.5035 29.223 34.8335C26.3548 34.2502 22.3007 34.6973 19.486 35.2122V35.2122ZM29.9009 34.8596C29.8768 36.613 29.9812 38.3427 30.1181 40.0986C30.8069 39.9976 31.2742 39.93 31.9137 39.7929C31.7061 38.1026 31.7316 36.2005 31.3084 34.7052C30.8195 34.7096 30.3887 34.6996 29.9011 34.8596H29.9009ZM33.3944 34.5767C33.0674 34.5035 32.687 34.5737 32.3747 34.5797C32.5216 36.0093 32.8776 37.587 33.0029 39.0873C33.4943 39.1023 33.7567 38.8757 34.1609 38.7995C34.1824 37.4823 34.0428 35.6676 33.3944 34.5767V34.5767ZM38.6837 39.3025C39.7077 39.0595 40.3515 37.8329 40.0652 36.5731C39.873 35.7266 39.5306 34.1326 39.1642 33.591C38.8935 33.1908 38.1596 32.6662 37.5734 33.033C36.6199 33.6302 34.9402 33.8034 34.2451 34.526C34.5937 35.6612 34.7019 37.2203 34.8457 38.6587C36.0367 38.7315 37.5021 38.3382 38.4928 38.7557C37.8012 38.9745 36.9038 38.9762 36.3065 39.2954C36.7949 39.526 37.9381 39.4795 38.6837 39.3025V39.3025ZM29.1605 33.2123C28.4412 31.5582 27.7879 29.8438 26.7139 28.5109C25.6734 29.1935 24.5275 29.8352 24.2351 31.0744C25.7245 31.8985 27.461 32.7113 29.1605 33.2123ZM30.9336 28.09C30.8655 29.7443 30.6725 31.9143 30.2215 33.2108C31.2972 31.8717 32.1646 30.3121 33.0712 28.7937C32.6848 28.1869 31.877 27.6581 30.9336 28.0898V28.09ZM28.9236 27.3915C28.5161 27.3484 28.1703 27.8495 27.6402 27.6328C27.519 27.7641 27.4087 27.9063 27.285 28.0346C28.4552 29.4137 28.9869 31.3702 29.8909 32.9911C30.3758 31.4343 30.3199 29.7287 30.4268 28.0295C29.7604 28.0706 29.3906 27.44 28.9236 27.3915V27.3915ZM27.6313 25.7233C27.5877 26.1957 27.7 26.3504 27.7975 26.8917C29.385 27.377 29.1078 24.7606 27.6313 25.7235V25.7233ZM25.8705 25.1581C25.1864 24.7926 24.1584 24.3943 23.2748 24.2296C22.1795 24.0245 22.2823 25.6907 22.3287 26.6844C22.3652 27.4715 22.7836 28.3036 22.9655 28.8261C23.051 29.0703 23.07 29.3293 23.2835 29.3778C23.6606 29.4637 24.9048 28.9771 25.2596 28.788C26.0094 28.3883 26.5912 27.7533 27.228 27.327C27.2363 27.1195 27.2444 26.9122 27.2529 26.7047C26.8699 26.5185 26.4275 26.3858 25.8654 26.3618C26.2466 26.174 26.8076 26.1768 27.1551 25.9536C27.1583 25.8705 27.1619 25.7878 27.1649 25.7053C26.5304 25.6579 26.2887 25.3816 25.8705 25.1581V25.1581ZM19.336 23.9972C18.7681 24.5609 20.9283 25.3291 21.6165 25.3707C21.6125 25.0138 21.8242 24.6778 21.7817 24.4218C20.9645 24.2816 19.8909 24.3741 19.3358 23.9972H19.336ZM26.3307 24.2619C26.3278 24.317 26.2545 24.297 26.2425 24.3419C26.973 24.9002 27.5157 25.0156 28.51 24.9674C28.9584 24.6493 29.356 24.2771 29.8229 23.979C28.748 24.0729 27.395 24.7258 26.3307 24.2619ZM32.7509 26.1658C32.7202 25.5394 32.552 24.2517 32.1561 24.0264C31.3252 23.5519 29.8484 24.9838 29.2227 25.2023C29.2907 25.3938 29.4031 25.5456 29.4116 25.7906C29.7818 25.7016 30.2324 25.7624 30.553 25.9168C30.1824 25.9573 29.7709 25.9547 29.5257 26.1272C29.4357 26.3813 29.5477 26.7276 29.4879 27.0807C30.3681 27.3236 31.3735 27.4529 32.4863 27.4848C32.7026 27.2092 32.7764 26.6852 32.7508 26.1657L32.7509 26.1658ZM18.3801 24.5425C18.2019 24.4181 16.9956 22.8834 16.8305 22.9471C14.6479 23.7889 12.6071 25.2445 10.7831 26.621C12.5221 30.2696 13.2241 34.7397 13.3479 39.0479C15.3398 39.9591 17.0894 41.2725 19.7924 41.4095C19.4795 39.2454 19.1938 37.3147 19.0164 35.2773C18.3373 34.9972 17.363 35.2899 16.7274 35.1903C16.7222 34.4415 17.6982 34.8622 17.7795 34.3587C17.8407 33.9778 17.2423 33.949 17.4371 33.349C17.9342 33.5257 18.195 33.9156 18.7248 34.0623C19.2091 33.0264 18.7182 31.1935 18.7877 30.3278C18.801 30.1652 18.8708 29.4273 19.2431 29.5566C19.5727 29.6712 19.2244 31.5195 19.2604 32.339C19.2933 33.094 19.1671 33.8243 19.4798 34.2984C22.0918 33.9505 24.7459 33.7258 27.5719 33.6501C26.9502 33.3892 26.2117 33.1425 25.4019 32.6961C24.9627 32.4541 23.5789 31.9505 23.4522 31.5428C23.2503 30.8931 23.9825 30.5469 24.1078 29.9899C22.7894 30.6933 22.5321 29.3161 22.2203 28.3405C21.9377 27.4569 21.7767 26.7967 21.7075 26.2871C20.5718 25.7577 19.3575 25.2214 18.3801 24.5425V24.5425ZM31.5974 23.1328C33.4159 22.2705 33.7436 26.3556 33.0308 27.6716C33.1409 28.0641 33.52 28.2143 33.6745 28.5673C32.6598 30.345 31.5327 32.0045 30.4971 33.7612C31.2674 33.2922 32.3677 33.6773 33.2741 33.3265C33.6054 33.1983 33.8451 32.4567 34.096 31.8634C34.7861 30.2308 35.5102 28.1728 35.8328 26.6148C35.9055 26.26 36.1038 25.4866 36.0594 25.1706C35.9801 24.605 35.1953 24.1855 34.7961 23.8358C34.0606 23.1897 33.5976 22.6214 32.8302 22.0173C32.5194 22.466 31.8517 22.7677 31.5974 23.1328V23.1328ZM14.221 7.36254C13.3542 8.29467 13.5357 10.0419 13.6407 11.2848C15.2071 10.321 17.2859 11.3607 17.2662 12.9998C18.014 12.9802 17.5456 12.0863 17.4104 11.5105C16.9684 9.62959 18.1552 7.58619 17.4642 5.86616C16.1227 5.96575 15.0206 6.50153 14.221 7.36254V7.36254ZM20.4212 1.95128C18.4597 2.49491 15.9455 3.88879 15.1394 5.6122C15.7637 5.52339 16.1968 5.21555 16.8126 5.17754C17.0455 5.16276 17.3502 5.27281 17.6176 5.20786C18.1506 5.07857 18.6003 3.91003 19.0024 3.47521C19.3943 3.05055 19.8656 2.86908 20.1881 2.48198C20.3951 2.38425 20.7014 2.39117 20.7132 2.08688C20.6233 1.99299 20.5287 1.92142 20.4212 1.95128V1.95128ZM30.633 2.46259C28.5969 1.33946 25.1504 0.494449 22.9846 1.55001C21.237 2.40241 18.8746 3.81214 18.0691 5.59865C18.8214 7.32299 17.8462 8.90264 17.784 10.653C17.751 11.5842 18.2324 12.3973 18.2693 13.4112C18.0116 13.8268 17.2253 13.8779 16.6807 13.8494C16.4974 12.9525 16.1767 11.9444 15.232 11.8431C13.8955 11.7001 12.9186 12.7818 12.8576 13.9122C12.7857 15.2414 13.9017 17.4446 15.4833 17.2917C16.094 17.2326 16.2445 16.6337 16.91 16.6399C17.2707 17.3439 16.3534 17.5649 16.259 18.0684C16.2344 18.1985 16.3352 18.7069 16.3936 18.9453C16.6808 20.1058 17.3213 21.608 17.9516 22.4918C18.7515 23.613 20.3236 23.7817 22.0147 23.8916C22.3166 23.2553 23.4292 23.3078 24.1542 23.4743C23.2854 23.1377 22.4776 22.3219 21.8082 21.5999C21.0393 20.7715 20.2605 19.8828 20.2212 18.8C21.6742 20.7712 22.8749 22.4931 25.5169 23.3599C27.5164 24.0158 29.8513 23.0595 31.3872 22.0045C32.0247 21.566 32.4053 20.8703 32.8583 20.2336C34.5534 17.8488 35.3447 14.4447 35.1709 11.1458C35.0993 9.78505 35.1023 8.42919 34.6356 7.51385C34.1477 6.55648 32.4973 5.70024 31.5312 6.56602C31.3523 5.63529 32.3346 5.05933 33.4885 5.39456C32.6659 4.35562 31.8024 3.10796 30.633 2.46259V2.46259ZM34.4264 33.1628C36.0175 32.3893 38.9903 31.0809 39.9879 33.1657C40.356 33.9342 40.7878 35.2331 40.9785 36.0266C41.2477 37.1455 40.6866 39.498 39.51 39.8736C38.4712 40.2053 37.2588 40.1852 36.0073 39.9391C35.86 39.8192 35.6958 39.6104 35.5811 39.3926C34.6875 39.3587 33.8507 39.4397 33.1447 39.7988C33.2116 40.4449 32.7646 40.5486 32.3456 40.6818C32.0349 41.8863 32.9672 43.4597 32.744 44.558C32.5849 45.3405 31.6003 45.4615 30.8766 45.6079C30.853 46.0427 30.9084 46.4058 30.9577 46.7737C30.7924 47.3699 30.0501 47.7093 29.3467 47.7924C27.0335 48.0641 23.5205 48.1865 21.2954 47.4038C20.6745 45.9142 20.1851 44.1023 19.6679 42.4018C17.4976 42.6285 15.7421 41.486 14.0874 40.7377C13.5145 40.4778 12.7216 40.3347 12.5079 39.8888C12.3003 39.4568 12.3851 38.6294 12.3337 37.8475C12.2027 35.8512 12.0905 33.9254 11.5514 31.8813C11.3093 30.9639 10.8872 30.1543 10.5929 29.2705C10.3209 28.4514 9.84569 27.4389 9.7215 26.6221C9.53782 25.4113 10.7035 25.3439 11.4489 24.8192C12.6016 24.0081 13.5061 23.5593 14.7541 22.8271C15.1238 22.61 16.2384 22.0613 16.3652 21.8084C16.6172 21.3073 15.9326 20.6007 15.7495 20.2077C15.4599 19.5865 15.3089 19.0587 15.2674 18.4455C14.2204 18.2839 13.4268 17.6744 12.9474 16.9875C12.1542 15.8505 11.6041 13.7467 12.2904 12.1464C12.3442 12.0205 12.6127 11.7727 12.6524 11.5793C12.7303 11.1982 12.5052 10.6912 12.4914 10.2859C12.4193 8.20617 12.8512 6.41426 14.2829 5.78689C14.8641 3.52246 16.9445 2.76965 18.9045 1.64437C19.6372 1.22371 20.4448 0.95497 21.279 0.654831C24.2711 -0.421974 28.8618 -0.219264 31.3452 1.61743C32.3982 2.39625 34.0812 4.0407 34.6833 5.23125C36.2735 8.37424 36.1605 13.6274 35.0484 17.4507C34.8989 17.9642 34.682 18.7187 34.3792 19.3355C34.1681 19.766 33.5119 20.6276 33.5916 21.0078C33.6736 21.4007 35.0878 22.4507 35.3908 22.7366C35.937 23.2516 36.9742 23.9353 37.0581 24.5853C37.1484 25.2768 36.7464 26.2229 36.5426 26.8906C35.8625 29.1181 35.1983 31.1771 34.4264 33.1628" fill="#757575"/>
<path d="M23.8112 17.7443C23.8974 17.632 24.372 17.4614 25.036 17.774C25.036 17.774 24.2491 17.9021 24.3147 19.1855L23.9868 19.1211C23.9867 19.1211 23.6476 17.9578 23.8112 17.7443" fill="#EEEEEE"/>
<path d="M29.561 28.773C29.561 28.8666 29.523 28.9562 29.4554 29.0224C29.3878 29.0885 29.2961 29.1257 29.2004 29.1257C29.1048 29.1257 29.0131 29.0885 28.9455 29.0224C28.8778 28.9562 28.8398 28.8666 28.8398 28.773C28.8398 28.6795 28.8778 28.5898 28.9455 28.5237C29.0131 28.4576 29.1048 28.4204 29.2004 28.4204C29.2961 28.4204 29.3878 28.4576 29.4554 28.5237C29.523 28.5898 29.561 28.6795 29.561 28.773V28.773ZM29.9218 30.4084C29.9217 30.502 29.8837 30.5917 29.816 30.6579C29.7483 30.724 29.6565 30.7611 29.5608 30.7611C29.4651 30.7611 29.3733 30.7238 29.3057 30.6576C29.2381 30.5914 29.2001 30.5017 29.2001 30.4081C29.2002 30.3145 29.2382 30.2248 29.3059 30.1587C29.3736 30.0926 29.4654 30.0554 29.561 30.0555C29.6567 30.0555 29.7485 30.0927 29.8161 30.1589C29.8837 30.2251 29.9217 30.3148 29.9216 30.4084" fill="#757575"/>
</g>
<defs>
<clipPath id="clip0_369_2002">
<rect width="48" height="48" fill="white"/>
</clipPath>
</defs>
</svg>
