<svg width="96" height="136" viewBox="0 0 96 136" fill="none" xmlns="http://www.w3.org/2000/svg">
<g clip-path="url(#clip0_369_2122)">
<path d="M81.9447 46.2598C81.9447 65.2796 66.5298 80.6984 47.514 80.6984C28.4988 80.6984 13.084 65.2796 13.084 46.2598C13.084 27.2396 28.4988 11.8208 47.514 11.8208C66.5298 11.8208 81.9447 27.2399 81.9447 46.2601" fill="#E2E2E2"/>
<path d="M14.4869 54.7895C14.4869 54.7895 11.9947 18.8751 45.8351 17.8494L43.4744 14.0015L25.1118 20.0295L19.8649 25.93L15.2739 34.5239L12.6504 44.5285L13.4374 51.198" fill="#CBCBCB"/>
<path d="M23.9318 22.766C17.8909 28.8104 14.1527 37.1557 14.1527 46.3883C14.1527 55.6181 17.8909 63.9647 23.9318 70.0084C29.9758 76.0512 38.305 79.7806 47.5134 79.7806C56.722 79.7806 65.0518 76.0515 71.0956 70.0084C77.1358 63.965 80.8746 55.6187 80.8746 46.3883C80.8746 37.1557 77.1355 28.8104 71.0956 22.766C65.0518 16.7242 56.7224 12.9954 47.5134 12.9944C38.305 12.9951 29.9758 16.7242 23.9318 22.766ZM22.4031 71.47C15.9829 65.0495 12.0137 56.1765 12.0137 46.3883C12.0137 36.5986 15.9829 27.7262 22.4025 21.305C28.8212 14.8824 37.7059 10.9021 47.513 10.9033C57.3202 10.9021 66.2059 14.8824 72.6233 21.305C79.0441 27.7262 83.014 36.5995 83.0127 46.3883C83.0137 56.1762 79.0441 65.0492 72.6233 71.47C66.2059 77.8921 57.3202 81.8724 47.513 81.8724C37.7063 81.8724 28.8212 77.8921 22.4031 71.47Z" fill="#757575"/>
<path d="M62.0082 46.4507L56.7612 47.2202L49.6783 47.9898L45.0877 48.1179L40.628 47.9898L37.2178 46.9635L34.2011 43.7571L31.8402 37.2156L31.3154 35.8045L28.1675 34.7788L26.3313 31.8285L25.0195 27.5958L26.4622 23.8759L29.8727 22.7215L32.6272 24.0046L33.9386 26.8262L35.5126 26.5695L36.0373 25.9286L35.5126 22.9783L35.3816 19.2584L36.1686 14.128L36.1381 11.1975L38.5296 7.45881L42.7267 4.50852L50.0718 1.43018L58.2042 2.58456L65.2871 7.58687L68.566 12.7175L70.665 16.4371L71.1895 25.6721L69.6155 33.6247L66.7301 40.6791L63.9757 44.3989" fill="white"/>
<path d="M57.5479 68.6405L38.7915 69.4101V72.4884L40.3655 83.2627L39.5785 84.1606L26.462 79.7995L25.544 78.2603L24.2323 63.7666L21.2156 55.0444L20.5596 52.9924L31.0529 45.9383L34.3318 44.6553L37.2176 48.1184L39.7098 50.2991L42.5952 51.1968L43.9069 51.5816L45.4809 58.2514L46.6614 59.6622L49.6781 58.6362L47.5796 62.6125L58.9909 67.8712L57.5479 68.6408" fill="#AFAFAF"/>
<path d="M26.4619 23.8761L29.8724 22.7218L32.6269 24.0048L33.9383 26.8264L35.5123 26.5697L35.9058 25.0305L35.1188 22.0809L35.9058 15.0259L35.2497 11.178L37.6107 8.48443L42.7261 4.50844L41.2837 2.58447L34.0693 6.04761L31.0529 8.35637L29.3477 11.9476L26.7245 15.4107L25.9375 19.5154L26.4619 23.8761Z" fill="#AFAFAF"/>
<path d="M31.8399 11.8195C31.8399 11.8195 33.8074 7.07391 41.6772 4.76515C49.5471 2.4564 42.0707 3.09731 42.0707 3.09731L33.5448 6.30463L30.2659 9.51073L28.8229 12.0762L31.8399 11.8195ZM27.905 22.9785C27.905 22.9785 25.1505 13.9999 35.6432 12.7171L35.2498 11.178L28.0359 12.8458L25.9375 19.5153L26.4619 23.8761L27.905 22.9785Z" fill="#E2E2E2"/>
<path d="M32.1015 34.907L33.819 33.2798C33.819 33.2798 34.5941 33.3679 34.725 34.2655C34.856 35.1638 35.2495 43.2444 40.89 47.6055C41.404 48.0036 36.6925 46.9637 36.6925 46.9637L32.495 40.5512L32.1015 34.907ZM56.2368 32.4702C56.2368 32.4702 56.5428 28.5823 57.6137 28.8812C58.6844 29.1801 58.6844 30.2273 58.6844 30.2273C58.6844 30.2273 56.0838 31.8721 56.2368 32.4702ZM67.1231 18.2329C67.1231 18.2329 64.9604 18.6792 64.7621 20.5416C64.5628 22.4043 67.1231 20.9264 67.5166 20.7978L67.1231 18.2329ZM51.2521 18.3613C51.2521 18.3613 48.3667 18.746 48.3667 20.5416C48.3667 22.3369 51.6456 22.2092 52.5641 21.4396L51.2521 18.3613ZM33.4136 26.6983C33.4136 26.6983 28.4291 23.748 27.9047 26.5697C27.3796 29.3919 26.1991 31.4439 28.6917 34.3942L26.9861 33.8807L25.4121 29.9047L24.8877 26.0568L27.9047 22.9782L31.3145 23.2349L33.282 24.7741L33.4136 26.698V26.6983ZM35.7746 18.6177C35.7746 18.6177 38.0039 7.33001 49.2843 5.14992C58.5717 3.35494 63.4497 5.53472 65.2866 7.58674C65.2866 7.58674 57.0232 -2.03278 49.1533 0.917199C41.2835 3.86687 35.512 9.25397 35.643 12.7171C35.8665 18.6152 35.7746 18.6177 35.7746 18.6177ZM66.2048 8.86918C66.2048 8.86918 62.4015 8.74112 62.2699 12.0762C62.2699 12.0762 62.2696 12.589 62.5324 13.1019C62.5324 13.1019 65.5497 9.76713 67.3853 11.5627" fill="#EEEEEE"/>
<path d="M49.5491 13.4493C49.5491 13.4493 48.8943 8.33029 44.4317 11.3064C41.5457 13.2304 41.8083 15.9239 42.3327 16.4368C42.8578 16.9503 42.7149 17.9834 43.1143 17.2741C43.5132 16.5649 43.3819 14.2561 44.8252 13.6152C46.2676 12.9737 48.633 12.2573 49.5491 13.4493Z" fill="#EEEEEE"/>
<path d="M37.2172 48.1177L24.888 53.5048C24.888 53.5048 30.0034 73.386 27.3799 79.5427L25.544 78.9018L25.4124 71.334L22.0026 56.9686L20.5596 52.992L33.4139 44.5269L37.2172 48.1177ZM38.4852 59.1142L40.2342 61.2007V68.8965H38.1358C38.1358 68.8965 37.8733 63.5094 37.8733 62.8682C37.8733 62.227 38.1358 59.9183 38.1358 59.9183L38.4852 59.1142ZM38.5293 70.0515L32.6269 70.3077L34.3318 71.462L38.5293 72.1033" fill="#757575"/>
<path d="M58.7285 68.7685L63.582 68.6401L64.7625 80.4404L59.778 81.0816L58.7285 68.7685Z" fill="#AFAFAF"/>
<path d="M60.04 68.7687L67.3848 68.3839C67.3848 68.3839 70.4018 60.9445 70.4018 60.5597C70.4018 60.1749 73.0253 49.7855 73.0253 49.7855L67.1229 43.7575L65.9424 42.7314L62.7945 45.8098V57.7384L60.04 68.7687Z" fill="#AFAFAF"/>
<path d="M63.3195 67.8707L58.7285 68.7687L59.3845 72.3605C61.0895 73.1301 63.9755 71.0774 63.9755 71.0774L63.3195 67.8707ZM63.4507 45.425L72.6327 52.0948L72.8946 49.0165L65.9433 42.7314L63.4507 45.425Z" fill="#757575"/>
<path d="M43.0814 94.0384L40.366 83.262L39.0155 75.3113L38.792 69.4095L51.0825 68.7698L58.7289 68.7686L58.0341 82.2375L59.2146 92.627L59.083 94.5509L49.1151 95.3205L43.0814 94.0384Z" fill="white"/>
<path d="M57.0229 68.6402C57.0229 68.6402 56.3668 81.9796 58.3343 91.4713C58.3343 91.4713 54.3994 93.9088 48.6279 94.5497L59.6461 94.1649L60.9578 93.3953L59.3838 72.3604L58.9903 67.8706" fill="#E2E2E2"/>
<path d="M64.985 79.416L70.1004 78.0049L79.8065 77.4921L81.2495 73.1307L78.626 65.5635L75.6096 65.1787L71.4122 66.4611L67.385 68.3839L65.2473 68.0003L63.5811 68.6403" fill="white"/>
<path d="M64.8936 76.8495C64.8936 76.8495 68.3034 75.3107 68.8285 75.439L67.3855 68.3841L69.0907 67.7432C69.0907 67.7432 70.2712 74.4127 70.2712 75.1823C70.2712 75.1823 77.6163 75.5671 78.2723 75.5671C78.2723 75.5671 79.8463 72.6171 79.4528 69.5388L80.8955 73.6431L81.0268 75.9519L78.928 79.0302L76.5671 79.5434L72.6321 79.415L71.3204 77.7478L66.7301 78.3887L65.287 78.9022" fill="#E2E2E2"/>
<path d="M59.7383 67.7437L56.8529 60.5613L53.8359 56.3286C53.8359 56.3286 54.4917 54.5327 55.4099 54.5327H58.4269L61.3123 55.559L61.0504 60.3046L59.7383 67.7437Z" fill="white"/>
<path d="M60.3026 65.3053C60.3026 65.3053 56.6303 58.3794 56.6303 57.3534C56.6303 57.3534 57.286 55.8142 58.2042 56.199C59.1222 56.5838 61.0896 57.6095 61.0896 57.6095V55.1727L56.6303 54.2744L53.6133 54.6592L58.7287 66.4597L59.7782 66.5884" fill="#E2E2E2"/>
<path d="M44.2619 48.376L40.6283 47.9897L37.2178 46.9634V48.1178L38.8843 49.9149L44.131 52.2236" fill="white"/>
<path d="M38.3984 48.7607C38.3984 48.7607 42.4643 50.4283 43.7763 50.0435L43.9063 51.5811L40.2346 50.8131L38.0049 49.2739L38.3984 48.7607Z" fill="#E2E2E2"/>
<path d="M64.9709 54.9696C62.7453 54.9056 60.7347 54.647 58.9741 54.1615C59.0937 53.4557 58.8696 52.7631 59.0497 52.2545C59.5401 51.9088 60.363 51.9144 61.1043 51.8334C60.4628 51.5249 59.5621 51.4033 58.8217 51.581C58.8041 51.0912 58.5794 50.7877 58.4434 50.4044C59.6947 49.9673 62.6487 47.1044 64.3105 48.0526C65.1022 48.5035 65.4387 51.0792 65.5001 52.3315C65.5514 53.371 65.4041 54.4192 64.9713 54.9696" fill="#E2E2E2"/>
<path d="M64.9709 54.9696C62.7453 54.9056 60.7347 54.647 58.9741 54.1615C59.0937 53.4557 58.8696 52.7631 59.0497 52.2545C59.5401 51.9088 60.363 51.9144 61.1043 51.8334C60.4628 51.5249 59.5621 51.4033 58.8217 51.581C58.8041 51.0912 58.5794 50.7877 58.4434 50.4044C59.6947 49.9673 62.6487 47.1044 64.3105 48.0526C65.1022 48.5035 65.4387 51.0792 65.5001 52.3315C65.5514 53.371 65.4041 54.4192 64.9713 54.9696H64.9709Z" stroke="#E2E2E2" stroke-width="6.14065"/>
<path d="M54.3287 51.4115C54.3227 51.5762 54.3154 51.7421 54.3088 51.9083C53.6141 52.3547 52.4925 52.3491 51.7294 52.7244C52.8539 52.7724 53.7387 53.0371 54.5043 53.4105L54.4549 54.6548C53.1812 55.5075 52.0178 56.7773 50.5181 57.5771C49.8088 57.9554 47.3201 58.9285 46.5658 58.7564C46.1393 58.6594 46.1006 58.1416 45.9299 57.6531C45.5664 56.608 44.7293 54.9442 44.656 53.3696C44.5634 51.3819 44.3579 48.0509 46.5485 48.4603C48.3158 48.7897 50.3717 49.586 51.7398 50.3171C52.5762 50.7635 53.06 51.316 54.3287 51.4115Z" fill="#E2E2E2"/>
<path d="M54.3287 51.4115C54.3227 51.5762 54.3154 51.7421 54.3088 51.9083C53.6141 52.3547 52.4925 52.3491 51.7294 52.7244C52.8539 52.7724 53.7387 53.0371 54.5043 53.4105L54.4549 54.6548C53.1812 55.5075 52.0178 56.7773 50.5181 57.5771C49.8088 57.9554 47.3201 58.9285 46.5658 58.7564C46.1393 58.6594 46.1006 58.1416 45.9299 57.6531C45.5664 56.608 44.7293 54.9442 44.656 53.3696C44.5634 51.3819 44.3579 48.0509 46.5485 48.4603C48.3158 48.7897 50.3717 49.586 51.7398 50.3171C52.5762 50.7635 53.06 51.316 54.3287 51.4115V51.4115Z" stroke="#E2E2E2" stroke-width="6.14065"/>
<path d="M55.5942 53.7835C55.399 52.7009 55.1745 52.3918 55.2614 51.4467C58.2151 49.5215 58.7695 54.7544 55.5938 53.7835" fill="#E2E2E2"/>
<path d="M55.5942 53.7835C55.399 52.7009 55.1745 52.3918 55.2614 51.4467C58.2151 49.5215 58.7695 54.7544 55.5938 53.7835H55.5942Z" stroke="#E2E2E2" stroke-width="6.14065"/>
<path d="M59.8696 54.6607C59.8696 54.6607 58.9514 53.378 59.6077 52.9932C60.2631 52.6084 60.9195 52.9935 61.313 52.3519C61.7065 51.711 61.313 51.3262 61.4439 50.5567C61.5755 49.7871 62.2319 49.6584 62.8869 49.5303C63.5427 49.4023 65.3795 49.1455 65.6414 49.7871L64.8544 47.4783L63.2804 46.9648L58.296 49.7871L58.0341 51.1976V54.0198L59.8696 54.6607ZM46.0974 58.8934C45.9397 56.8919 45.7731 54.8928 45.5874 52.8931C45.3101 49.9071 46.3209 50.428 48.968 50.428C49.3722 50.428 51.4571 50.8996 51.6063 51.1976C52.3218 52.6265 50.4101 52.3088 52.4307 53.3863C54.1357 54.2956 57.1489 52.8343 56.4598 50.8128C56.0742 50.3633 54.4505 50.6727 53.8687 50.3781L50.7947 48.8195C49.4909 48.1577 46.478 47.1942 45.0875 48.1183C41.5659 50.4609 45.3101 56.3128 46.5664 58.7561" fill="#CBCBCB"/>
<path d="M49.549 13.4493C45.9742 12.6351 44.1978 14.9124 43.1143 17.2741C42.1466 17.0448 42.5319 15.7581 42.7762 15.1024C43.4162 13.3816 45.995 11.091 48.1019 11.4016C49.0085 11.5349 50.2356 12.3457 49.549 13.4493ZM66.9678 17.4305L67.1375 17.4367C67.9453 19.078 68.6444 20.8167 69.6631 22.2654C68.981 23.8202 64.4939 25.1963 64.5628 22.4042C65.533 21.9895 67.208 22.3195 68.0684 21.7898C67.5713 20.455 66.8536 19.3185 66.9678 17.4305ZM51.3795 17.473C52.1461 18.8472 52.3957 20.2909 53.4852 21.3295C53.976 21.7971 54.9301 22.3669 54.457 23.6672C54.3465 23.9738 53.5387 24.6575 53.0719 24.7918C51.3685 25.2834 47.3993 24.8933 48.7434 22.8164C50.1528 22.8807 52.0456 23.711 53.0986 22.7114C52.2906 21.4471 50.8491 18.9466 51.3795 17.473ZM66.3282 31.4388C63.7636 33.0503 60.9036 34.8019 56.7011 34.3956C55.803 33.6321 55.4608 31.9332 56.3331 30.8111C56.7874 31.5746 56.5019 32.9786 57.7673 33.1901C60.1519 33.589 62.9275 31.7636 64.6431 31.1251C65.7062 29.3717 64.5509 28.7268 63.5929 27.5983C61.6318 25.2858 59.0001 22.4199 59.0955 18.9583C59.8887 18.3962 59.9567 19.8165 60.0707 20.0751C61.095 22.419 63.6726 25.4173 65.5541 27.4234C66.0159 27.9175 66.7764 28.3916 66.8611 28.7182C67.1051 29.6688 66.2265 30.8068 66.3285 31.4388H66.3282ZM32.5161 29.7427C31.7124 29.2938 31.5207 27.3175 30.577 27.2615C29.2287 27.1812 29.4746 29.8248 29.4796 31.3711C28.5516 30.5473 28.3882 28.0092 29.07 26.7062C28.2925 26.3331 27.9453 27.1181 27.5146 27.3945C28.0687 23.4582 33.4032 25.569 32.5164 29.7427H32.5161ZM67.9613 33.078C66.7676 35.3003 65.0788 37.7476 61.5754 37.8187C61.5043 37.1011 61.4495 36.0089 61.5792 35.5764C64.2575 35.3252 65.9108 33.9923 67.9613 33.078ZM51.1778 34.5187C53.4118 35.6682 57.5183 35.7913 60.5555 35.7042C60.7182 36.3549 60.7145 37.1587 60.7207 37.9523C56.8167 38.1425 52.2011 37.1981 51.1778 34.5187ZM50.7528 36.6612C52.2981 40.455 57.6087 40.0182 62.087 39.9135C61.8899 40.406 61.4624 40.9878 60.9313 41.1984C59.4959 41.7694 55.538 42.2026 53.5453 41.1676C52.2817 40.511 51.4705 39.0269 50.778 38.157C50.444 37.7368 48.779 36.6634 50.7528 36.6609" fill="#757575"/>
<path d="M66.1417 57.5871C64.3285 60.6238 62.594 63.7431 60.4424 66.4219C61.3443 63.8284 61.7302 59.4886 61.8665 56.1796C63.7534 55.3165 65.3689 56.3742 66.1417 57.5871Z" fill="#E2E2E2"/>
<path d="M75.8987 68.502C73.8686 68.8994 72.4423 70.8289 70.4619 70.7048C71.5502 69.2044 73.4575 68.5718 75.8987 68.502ZM76.7943 71.6086C75.1398 71.7801 73.1962 72.0417 71.518 71.9066C72.3123 70.7199 75.3733 71.1293 76.7943 71.6086ZM77.3675 74.2874C75.5081 74.3268 73.1965 74.2905 71.4296 74.1458C72.4747 73.0474 76.1616 73.7379 77.3675 74.2874Z" fill="#757575"/>
<path d="M62.6426 81.6175C62.9089 83.9013 63.8347 86.2153 63.7192 88.7165C62.691 89.0554 62.1002 89.3521 60.7223 89.3506C60.625 87.2247 60.3342 83.9752 60.4214 81.9487C61.0991 81.9927 62.0983 81.4756 62.6426 81.6175Z" fill="#E2E2E2"/>
<path d="M59.645 47.9588C58.7113 48.5548 57.9162 49.2994 57.0193 49.9357C55.0304 50.0321 53.9453 49.8012 52.4844 48.6844C52.5083 48.5951 52.655 48.6351 52.6607 48.5249C54.7893 49.4521 57.4956 48.1463 59.645 47.9585" fill="white"/>
<path d="M48.4697 62.149C49.0546 59.6709 51.3463 58.3872 53.4274 57.022C55.5756 59.6878 56.882 63.1165 58.3206 66.4248C54.9214 65.4228 51.4486 63.7971 48.4697 62.149Z" fill="#E2E2E2"/>
<path d="M60.4216 81.9484C60.3348 83.9749 60.6253 87.2244 60.7226 89.3503C62.1008 89.3522 62.691 89.0557 63.7194 88.7162C63.8356 86.215 62.9095 83.901 62.6428 81.6172C62.0982 81.4753 61.0994 81.9925 60.4216 81.9484ZM38.9709 70.4244C39.8794 78.5909 41.1949 85.4556 43.6078 92.6873C48.9644 94.2775 55.4208 94.416 60.155 92.9812C59.2862 88.8997 59.6655 83.9306 59.1577 79.5747C58.7746 76.3009 58.9701 73.0071 58.4451 69.6671C52.7086 68.5004 44.6004 69.3946 38.9709 70.4244ZM59.8009 69.7191C59.7527 73.226 59.9614 76.6854 60.2353 80.1972C61.6128 79.9952 62.5475 79.8601 63.8265 79.5858C63.4113 76.2052 63.4622 72.401 62.6158 69.4103C61.638 69.4193 60.7764 69.3993 59.8012 69.7191H59.8009ZM66.7877 69.1533C66.1339 69.0071 65.3731 69.1475 64.7485 69.1595C65.0422 72.0186 65.7543 75.1739 66.0048 78.1747C66.9876 78.2046 67.5124 77.7514 68.3208 77.599C68.3639 74.9646 68.0847 71.3352 66.7877 69.1533ZM77.3664 78.605C79.4145 78.119 80.702 75.6658 80.1294 73.1462C79.745 71.4531 79.0603 68.2652 78.3275 67.1819C77.786 66.3816 76.3181 65.3325 75.1458 66.066C73.2388 67.2604 69.8793 67.6067 68.4892 69.052C69.1865 71.3223 69.4027 74.4407 69.6905 77.3174C72.0725 77.463 75.0032 76.6765 76.9846 77.5113C75.6013 77.9491 73.8067 77.9524 72.6121 78.5909C73.5889 79.052 75.8752 78.9591 77.3664 78.605ZM58.3201 66.4247C56.8815 63.1164 55.5748 59.6877 53.4269 57.0219C51.3458 58.3871 49.0541 59.6705 48.4692 62.1488C51.4481 63.797 54.9209 65.4227 58.3201 66.4247ZM61.8662 56.1799C61.7299 59.4885 61.344 63.8287 60.4421 66.4216C62.5934 63.7434 64.3282 60.6241 66.1415 57.5873C65.3686 56.3739 63.7531 55.3161 61.8662 56.1796V56.1799ZM57.8463 54.783C57.0313 54.6968 56.3397 55.6991 55.2795 55.2657C55.0371 55.5282 54.8164 55.8127 54.569 56.0691C56.9095 58.8273 57.9729 62.7405 59.7807 65.9823C60.7506 62.8686 60.6389 59.4574 60.8526 56.0589C59.5198 56.1411 58.7803 54.8799 57.8463 54.783ZM55.2615 51.4467C55.1743 52.3914 55.3991 52.7008 55.594 53.7834C58.769 54.754 58.2146 49.5212 55.2615 51.447V51.4467ZM51.7399 50.3163C50.3718 49.5852 48.3159 48.7885 46.5487 48.4591C44.358 48.0491 44.5636 51.3814 44.6564 53.3688C44.7295 54.943 45.5662 56.6072 45.9301 57.6523C46.101 58.1405 46.1391 58.6586 46.566 58.7556C47.3202 58.9273 49.8087 57.9543 50.5182 57.576C52.0179 56.7765 53.1814 55.5067 54.455 54.654C54.4717 54.239 54.4878 53.8244 54.5048 53.4094C53.7389 53.0369 52.854 52.7716 51.7299 52.7236C52.4923 52.348 53.6142 52.3535 54.3093 51.9072C54.3156 51.741 54.3228 51.5756 54.3288 51.4106C53.0599 51.3158 52.5763 50.7633 51.7399 50.3163ZM38.6709 47.9943C37.5351 49.1219 41.8557 50.6583 43.232 50.7414C43.2241 50.0275 43.6475 49.3555 43.5625 48.8436C41.9281 48.5632 39.7809 48.7482 38.6706 47.9943H38.6709ZM52.6604 48.5238C52.6547 48.634 52.508 48.594 52.4841 48.6838C53.9451 49.8004 55.0305 50.0312 57.019 49.9349C57.9159 49.2986 58.7111 48.5543 59.6447 47.958C57.495 48.1458 54.789 49.4516 52.6604 48.5238ZM65.5009 52.3317C65.4395 51.0788 65.103 48.5035 64.3112 48.0528C62.6494 47.1037 59.6957 49.9675 58.4444 50.4046C58.5804 50.7876 58.8052 51.0911 58.8222 51.5812C59.5626 51.4033 60.4638 51.5249 61.1051 51.8336C60.3637 51.9146 59.5409 51.9093 59.0504 52.2544C58.8703 52.7627 59.0945 53.4553 58.9748 54.1615C60.7352 54.6472 62.7461 54.9058 64.9717 54.9695C65.4042 54.4185 65.5518 53.3703 65.5005 52.3314L65.5009 52.3317ZM36.7592 49.085C36.4028 48.8362 33.9902 45.7668 33.66 45.8943C29.2948 47.5778 25.2132 50.489 21.5653 53.242C25.0432 60.5392 26.4471 69.4793 26.6949 78.0959C30.6786 79.9183 34.1779 82.545 39.5838 82.819C38.958 78.4909 38.3867 74.6294 38.0319 70.5546C36.6736 69.9943 34.725 70.5798 33.4538 70.3806C33.4434 68.883 35.3955 69.7243 35.5579 68.7174C35.6804 67.9555 34.4835 67.898 34.8732 66.698C35.8674 67.0514 36.389 67.8312 37.4486 68.1245C38.4172 66.0528 37.4354 62.3871 37.5745 60.6555C37.6009 60.3305 37.7407 58.8547 38.4852 59.1133C39.1444 59.3423 38.4477 63.0391 38.5198 64.678C38.5856 66.1879 38.3332 67.6486 38.9586 68.5967C44.1827 67.901 49.4907 67.4516 55.1429 67.3001C53.8994 66.7784 52.4224 66.2849 50.8028 65.3922C49.9245 64.9083 47.1568 63.901 46.9034 63.0856C46.4995 61.7862 47.964 61.0939 48.2145 59.9798C45.5778 61.3866 45.0631 58.6321 44.4395 56.6811C43.8745 54.9138 43.5524 53.5935 43.4139 52.5743C41.1427 51.5153 38.7141 50.4428 36.7592 49.085ZM63.1937 46.2655C66.8309 44.541 67.4863 52.7113 66.0606 55.3432C66.2809 56.1282 67.0389 56.4287 67.3481 57.1345C65.3186 60.69 63.0643 64.0091 60.9933 67.5224C62.5339 66.5844 64.7343 67.3546 66.5472 66.6531C67.2099 66.3966 67.6893 64.9135 68.1911 63.7268C69.5711 60.4616 71.0195 56.3455 71.6645 53.2296C71.81 52.5201 72.2066 50.9732 72.1178 50.3412C71.9592 49.2099 70.3896 48.3711 69.5913 47.6717C68.1203 46.3794 67.1941 45.2429 65.6595 44.0346C65.0378 44.932 63.7024 45.5353 63.1937 46.2655ZM28.4411 14.7251C26.7075 16.5893 27.0704 20.0839 27.2804 22.5696C30.4132 20.642 34.5707 22.7214 34.5314 25.9995C36.027 25.9604 35.0901 24.1725 34.8197 23.0209C33.9358 19.2592 36.3093 15.1724 34.9274 11.7323C32.2444 11.9315 30.0402 13.0031 28.4411 14.7251ZM40.8414 3.90255C36.9185 4.98982 31.8899 7.77757 30.2779 11.2244C31.5264 11.0468 32.3927 10.4311 33.6241 10.3551C34.09 10.3255 34.6995 10.5456 35.2343 10.4157C36.3002 10.1571 37.1996 7.82005 38.0039 6.95042C38.7877 6.10111 39.7302 5.73817 40.3752 4.96397C40.7892 4.76849 41.4018 4.78234 41.4254 4.17375C41.2456 3.98598 41.0564 3.84283 40.8414 3.90255ZM61.265 4.92518C57.1928 2.67891 50.2997 0.988899 45.9682 3.10003C42.473 4.80482 37.7483 7.62427 36.1371 11.1973C37.6419 14.646 35.6914 17.8053 35.5671 21.306C35.5009 23.1684 36.4639 24.7947 36.5376 26.8224C36.0222 27.6535 34.4495 27.7557 33.3603 27.6988C32.9939 25.905 32.3524 23.8887 30.463 23.6861C27.7901 23.4002 25.8361 25.5636 25.7143 27.8244C25.5704 30.4828 27.8023 34.8892 30.9657 34.5835C32.1871 34.4653 32.488 33.2675 33.819 33.2798C34.5405 34.6878 32.7059 35.1299 32.517 36.1368C32.4679 36.3969 32.6694 37.4137 32.7862 37.8906C33.3607 40.2116 34.6416 43.2161 35.9023 44.9837C37.5021 47.2259 40.6463 47.5633 44.0284 47.7831C44.6322 46.5105 46.8575 46.6155 48.3074 46.9486C46.5697 46.2754 44.9542 44.6438 43.6154 43.1998C42.0776 41.543 40.52 39.7656 40.4413 37.6C43.3475 41.5424 45.7488 44.9861 51.0329 46.7199C55.0317 48.0315 59.7017 46.119 62.7735 44.0091C64.0484 43.1321 64.8096 41.7406 65.7155 40.4671C69.1059 35.6975 70.6884 28.8895 70.3408 22.2917C70.1976 19.5701 70.2036 16.8584 69.2702 15.0277C68.2943 13.113 64.9937 11.4005 63.0615 13.132C62.7036 11.2706 64.6682 10.1187 66.976 10.7891C65.3309 8.71123 63.6039 6.21593 61.265 4.92518ZM68.8518 66.3255C72.0341 64.7787 77.9796 62.1618 79.9748 66.3314C80.7111 67.8684 81.5746 70.4662 81.9561 72.0531C82.4944 74.2911 81.3722 78.996 79.0191 79.7471C76.9414 80.4105 74.5166 80.3705 72.0136 79.8783C71.719 79.6385 71.3907 79.2207 71.1612 78.7851C69.3741 78.7174 67.7003 78.8793 66.2885 79.5975C66.4223 80.8898 65.5282 81.0973 64.6903 81.3636C64.0689 83.7727 65.9334 86.9194 65.487 89.1161C65.1687 90.6811 63.1997 90.9231 61.7523 91.2158C61.7051 92.0854 61.8159 92.8116 61.9144 93.5473C61.5839 94.7399 60.0993 95.4187 58.6925 95.5849C54.0659 96.1282 47.0401 96.373 42.5898 94.8076C41.3479 91.8284 40.3692 88.2046 39.3348 84.8036C34.9941 85.257 31.4832 82.972 28.1738 81.4753C27.0279 80.9557 25.4423 80.6694 25.0148 79.7776C24.5996 78.9135 24.7693 77.2589 24.6664 75.6951C24.4044 71.7025 24.18 67.8509 23.1018 63.7625C22.6177 61.9278 21.7734 60.3086 21.1847 58.541C20.6408 56.9027 19.6904 54.8778 19.442 53.2441C19.0747 50.8227 21.406 50.6879 22.8969 49.6384C25.2021 48.0162 27.0113 47.1185 29.5073 45.6541C30.2467 45.2201 32.4758 44.1227 32.7295 43.6169C33.2335 42.6146 31.8641 41.2013 31.498 40.4154C30.9188 39.173 30.6169 38.1174 30.5338 36.891C28.4398 36.5678 26.8526 35.3488 25.8937 33.9749C24.3075 31.7009 23.2073 27.4934 24.5798 24.2929C24.6874 24.0411 25.2245 23.5455 25.3038 23.1585C25.4596 22.3963 25.0095 21.3823 24.9818 20.5718C24.8376 16.4123 25.7014 12.8285 28.5648 11.5738C29.7273 7.04493 33.8879 5.53931 37.8081 3.28873C39.2734 2.44742 40.8887 1.90994 42.5571 1.30966C48.5413 -0.843947 57.7226 -0.438529 62.6894 3.23486C64.7954 4.7925 68.1615 8.0814 69.3656 10.4625C72.546 16.7485 72.3199 27.2549 70.0959 34.9015C69.7969 35.9284 69.3631 37.4374 68.7574 38.6709C68.3353 39.5319 67.0229 41.2552 67.1822 42.0155C67.3462 42.8014 70.1746 44.9015 70.7806 45.4731C71.8729 46.5032 73.9474 47.8706 74.1152 49.1705C74.2959 50.5536 73.4919 52.4459 73.0843 53.7813C71.724 58.2363 70.3956 62.3542 68.8518 66.3255Z" fill="#757575"/>
<path d="M47.6224 35.4891C47.7949 35.2644 48.744 34.9233 50.0721 35.5485C50.0721 35.5485 48.4981 35.8047 48.6294 38.3714L47.9737 38.2427C47.9734 38.2427 47.2953 35.9161 47.6224 35.4891Z" fill="#EEEEEE"/>
<path d="M59.1221 57.5461C59.1221 57.7331 59.0461 57.9125 58.9108 58.0447C58.7756 58.177 58.5921 58.2513 58.4009 58.2513C58.2096 58.2513 58.0262 58.177 57.8909 58.0447C57.7557 57.9125 57.6797 57.7331 57.6797 57.5461C57.6797 57.359 57.7557 57.1796 57.8909 57.0474C58.0262 56.9151 58.2096 56.8408 58.4009 56.8408C58.5921 56.8408 58.7756 56.9151 58.9108 57.0474C59.0461 57.1796 59.1221 57.359 59.1221 57.5461ZM59.8436 60.8168C59.8435 61.004 59.7674 61.1834 59.632 61.3157C59.4966 61.448 59.313 61.5223 59.1216 61.5222C58.9302 61.5221 58.7467 61.4477 58.6114 61.3153C58.4761 61.1829 58.4002 61.0033 58.4002 60.8162C58.4003 60.6291 58.4764 60.4496 58.6118 60.3174C58.7472 60.1851 58.9307 60.1109 59.1221 60.1109C59.3134 60.111 59.4969 60.1854 59.6321 60.3178C59.7674 60.4502 59.8433 60.6297 59.8432 60.8168" fill="#757575"/>
</g>
<path d="M24.848 118.848V127.088C24.848 128.005 24.5653 128.741 24 129.296C23.4347 129.84 22.688 130.112 21.76 130.112C20.8213 130.112 20.0693 129.835 19.504 129.28C18.9387 128.715 18.656 127.947 18.656 126.976H20.112C20.1227 127.52 20.2613 127.963 20.528 128.304C20.8053 128.645 21.216 128.816 21.76 128.816C22.304 128.816 22.7093 128.656 22.976 128.336C23.2427 128.005 23.376 127.589 23.376 127.088V118.848H24.848ZM35.7164 125.28C35.7164 125.557 35.7004 125.851 35.6684 126.16H28.6604C28.7137 127.024 29.007 127.701 29.5404 128.192C30.0844 128.672 30.7404 128.912 31.5084 128.912C32.1377 128.912 32.6604 128.768 33.0764 128.48C33.503 128.181 33.8017 127.787 33.9724 127.296H35.5404C35.3057 128.139 34.8364 128.827 34.1324 129.36C33.4284 129.883 32.5537 130.144 31.5084 130.144C30.6764 130.144 29.9297 129.957 29.2684 129.584C28.6177 129.211 28.1057 128.683 27.7324 128C27.359 127.307 27.1724 126.507 27.1724 125.6C27.1724 124.693 27.3537 123.899 27.7164 123.216C28.079 122.533 28.5857 122.011 29.2364 121.648C29.8977 121.275 30.655 121.088 31.5084 121.088C32.3404 121.088 33.0764 121.269 33.7164 121.632C34.3564 121.995 34.847 122.496 35.1884 123.136C35.5404 123.765 35.7164 124.48 35.7164 125.28ZM34.2124 124.976C34.2124 124.421 34.0897 123.947 33.8444 123.552C33.599 123.147 33.263 122.843 32.8364 122.64C32.4204 122.427 31.9564 122.32 31.4444 122.32C30.7084 122.32 30.079 122.555 29.5564 123.024C29.0444 123.493 28.751 124.144 28.6764 124.976H34.2124ZM41.9103 121.072C42.9769 121.072 43.8409 121.397 44.5023 122.048C45.1636 122.688 45.4943 123.616 45.4943 124.832V130H44.0543V125.04C44.0543 124.165 43.8356 123.499 43.3983 123.04C42.9609 122.571 42.3636 122.336 41.6063 122.336C40.8383 122.336 40.2249 122.576 39.7663 123.056C39.3183 123.536 39.0943 124.235 39.0943 125.152V130H37.6383V121.232H39.0943V122.48C39.3823 122.032 39.7716 121.685 40.2623 121.44C40.7636 121.195 41.3129 121.072 41.9103 121.072ZM52.7686 130L49.3286 126.128V130H47.8726V118.16H49.3286V125.12L52.7046 121.232H54.7366L50.6086 125.6L54.7526 130H52.7686ZM56.859 119.808C56.5817 119.808 56.347 119.712 56.155 119.52C55.963 119.328 55.867 119.093 55.867 118.816C55.867 118.539 55.963 118.304 56.155 118.112C56.347 117.92 56.5817 117.824 56.859 117.824C57.1257 117.824 57.3497 117.92 57.531 118.112C57.723 118.304 57.819 118.539 57.819 118.816C57.819 119.093 57.723 119.328 57.531 119.52C57.3497 119.712 57.1257 119.808 56.859 119.808ZM57.563 121.232V130H56.107V121.232H57.563ZM64.3165 121.072C65.3832 121.072 66.2472 121.397 66.9085 122.048C67.5698 122.688 67.9005 123.616 67.9005 124.832V130H66.4605V125.04C66.4605 124.165 66.2418 123.499 65.8045 123.04C65.3672 122.571 64.7698 122.336 64.0125 122.336C63.2445 122.336 62.6312 122.576 62.1725 123.056C61.7245 123.536 61.5005 124.235 61.5005 125.152V130H60.0445V121.232H61.5005V122.48C61.7885 122.032 62.1778 121.685 62.6685 121.44C63.1698 121.195 63.7192 121.072 64.3165 121.072ZM73.3829 130.144C72.7109 130.144 72.1082 130.032 71.5749 129.808C71.0415 129.573 70.6202 129.253 70.3109 128.848C70.0015 128.432 69.8309 127.957 69.7989 127.424H71.3029C71.3455 127.861 71.5482 128.219 71.9109 128.496C72.2842 128.773 72.7695 128.912 73.3669 128.912C73.9215 128.912 74.3589 128.789 74.6789 128.544C74.9989 128.299 75.1589 127.989 75.1589 127.616C75.1589 127.232 74.9882 126.949 74.6469 126.768C74.3055 126.576 73.7775 126.389 73.0629 126.208C72.4122 126.037 71.8789 125.867 71.4629 125.696C71.0575 125.515 70.7055 125.253 70.4069 124.912C70.1189 124.56 69.9749 124.101 69.9749 123.536C69.9749 123.088 70.1082 122.677 70.3749 122.304C70.6415 121.931 71.0202 121.637 71.5109 121.424C72.0015 121.2 72.5615 121.088 73.1909 121.088C74.1615 121.088 74.9455 121.333 75.5429 121.824C76.1402 122.315 76.4602 122.987 76.5029 123.84H75.0469C75.0149 123.381 74.8282 123.013 74.4869 122.736C74.1562 122.459 73.7082 122.32 73.1429 122.32C72.6202 122.32 72.2042 122.432 71.8949 122.656C71.5855 122.88 71.4309 123.173 71.4309 123.536C71.4309 123.824 71.5215 124.064 71.7029 124.256C71.8949 124.437 72.1295 124.587 72.4069 124.704C72.6949 124.811 73.0895 124.933 73.5909 125.072C74.2202 125.243 74.7322 125.413 75.1269 125.584C75.5215 125.744 75.8575 125.989 76.1349 126.32C76.4229 126.651 76.5722 127.083 76.5829 127.616C76.5829 128.096 76.4495 128.528 76.1829 128.912C75.9162 129.296 75.5375 129.6 75.0469 129.824C74.5669 130.037 74.0122 130.144 73.3829 130.144Z" fill="#AFAFAF"/>
<defs>
<clipPath id="clip0_369_2122">
<rect width="96" height="96" fill="white"/>
</clipPath>
</defs>
</svg>
