<svg width="48" height="48" viewBox="0 0 48 48" fill="none" xmlns="http://www.w3.org/2000/svg">
<path d="M47 46.9983C47 46.9991 46.9991 47 46.9983 47H1.0017C1.00085 47 1 46.9991 1 46.9983V1.0017C1 1.00085 1.00085 1 1.0017 1H46.9987C46.9996 1 47.0004 1.00085 47.0004 1.0017V46.9983H47Z" fill="white"/>
<path d="M46.2333 46.2316C46.2333 46.2324 46.2324 46.2333 46.2316 46.2333H1.76831C1.76745 46.2333 1.7666 46.2324 1.7666 46.2316V1.76831C1.7666 1.76745 1.76745 1.7666 1.76831 1.7666H46.232C46.2328 1.7666 46.2337 1.76745 46.2337 1.76831V46.2316H46.2333Z" fill="#CBCBCB"/>
<path d="M13.9057 36.0823C13.9057 36.116 13.9253 36.1628 13.9487 36.1863L14.7098 36.9474C14.7337 36.9712 14.7806 36.9904 14.8138 36.9904H17.4183C17.452 36.9904 17.4988 36.9708 17.5222 36.9474L18.2834 36.1863C18.3072 36.1624 18.3264 36.1156 18.3264 36.0823V27.8181C18.3264 27.7844 18.3464 27.738 18.3707 27.715L21.6797 24.5547C21.704 24.5317 21.7393 24.5351 21.7581 24.5632L30.1186 36.9406C30.1373 36.9683 30.1803 36.9913 30.2136 36.9913H33.9034C33.937 36.9913 33.977 36.967 33.9924 36.9372L34.6619 35.6398C34.6773 35.61 34.6743 35.5631 34.6551 35.5354L24.8758 21.3606C24.8567 21.3329 24.8605 21.2912 24.8844 21.2674L33.8791 12.3148C33.9029 12.291 33.9221 12.2445 33.9221 12.2109V12.0456C33.9221 12.012 33.911 11.9596 33.8978 11.9285L33.379 10.7355C33.3658 10.7048 33.3271 10.6797 33.2939 10.6797H29.6466C29.613 10.6797 29.5661 10.6993 29.5427 10.7227L18.3703 21.9373C18.3464 21.9612 18.3272 21.9531 18.3272 21.9194V11.6312C18.3272 11.5976 18.3085 11.5503 18.2855 11.5256L17.5388 10.7248C17.5158 10.7001 17.4698 10.6801 17.4362 10.6801H14.8138C14.7801 10.6801 14.7341 10.7001 14.7111 10.7248L13.9466 11.5503C13.9236 11.575 13.9053 11.6223 13.9053 11.6559V36.0823H13.9057Z" fill="white"/>
</svg>
