<svg width="96" height="136" viewBox="0 0 96 136" fill="none" xmlns="http://www.w3.org/2000/svg">
<path d="M48.1884 2L2 49.8645V92.649L48.1225 47.1245L94 2H48.1884Z" fill="#AFAFAF"/>
<path d="M2 92.6491L48.1225 47.1245L94 92.6491H2Z" fill="#CBCBCB"/>
<path d="M2 2H48.1893L2 49.8644V2Z" fill="#E2E2E2"/>
<path d="M33.28 130L28.688 124.912V130H27.232V118.848H28.688V124.016L33.296 118.848H35.136L30.08 124.432L35.184 130H33.28ZM40.6341 130.144C39.8128 130.144 39.0661 129.957 38.3941 129.584C37.7328 129.211 37.2101 128.683 36.8261 128C36.4528 127.307 36.2661 126.507 36.2661 125.6C36.2661 124.704 36.4581 123.915 36.8421 123.232C37.2368 122.539 37.7701 122.011 38.4421 121.648C39.1141 121.275 39.8661 121.088 40.6981 121.088C41.5301 121.088 42.2821 121.275 42.9541 121.648C43.6261 122.011 44.1541 122.533 44.5381 123.216C44.9328 123.899 45.1301 124.693 45.1301 125.6C45.1301 126.507 44.9275 127.307 44.5221 128C44.1275 128.683 43.5888 129.211 42.9061 129.584C42.2235 129.957 41.4661 130.144 40.6341 130.144ZM40.6341 128.864C41.1568 128.864 41.6475 128.741 42.1061 128.496C42.5648 128.251 42.9328 127.883 43.2101 127.392C43.4981 126.901 43.6421 126.304 43.6421 125.6C43.6421 124.896 43.5035 124.299 43.2261 123.808C42.9488 123.317 42.5861 122.955 42.1381 122.72C41.6901 122.475 41.2048 122.352 40.6821 122.352C40.1488 122.352 39.6581 122.475 39.2101 122.72C38.7728 122.955 38.4208 123.317 38.1541 123.808C37.8875 124.299 37.7541 124.896 37.7541 125.6C37.7541 126.315 37.8821 126.917 38.1381 127.408C38.4048 127.899 38.7568 128.267 39.1941 128.512C39.6315 128.747 40.1115 128.864 40.6341 128.864ZM48.8205 122.432V127.6C48.8205 128.027 48.9112 128.331 49.0925 128.512C49.2738 128.683 49.5885 128.768 50.0365 128.768H51.1085V130H49.7965C48.9858 130 48.3778 129.813 47.9725 129.44C47.5672 129.067 47.3645 128.453 47.3645 127.6V122.432H46.2285V121.232H47.3645V119.024H48.8205V121.232H51.1085V122.432H48.8205ZM54.3286 118.16V130H52.8726V118.16H54.3286ZM57.5621 119.808C57.2848 119.808 57.0501 119.712 56.8581 119.52C56.6661 119.328 56.5701 119.093 56.5701 118.816C56.5701 118.539 56.6661 118.304 56.8581 118.112C57.0501 117.92 57.2848 117.824 57.5621 117.824C57.8288 117.824 58.0528 117.92 58.2341 118.112C58.4261 118.304 58.5221 118.539 58.5221 118.816C58.5221 119.093 58.4261 119.328 58.2341 119.52C58.0528 119.712 57.8288 119.808 57.5621 119.808ZM58.2661 121.232V130H56.8101V121.232H58.2661ZM65.0196 121.072C66.0863 121.072 66.9503 121.397 67.6116 122.048C68.273 122.688 68.6036 123.616 68.6036 124.832V130H67.1636V125.04C67.1636 124.165 66.945 123.499 66.5076 123.04C66.0703 122.571 65.473 122.336 64.7156 122.336C63.9476 122.336 63.3343 122.576 62.8756 123.056C62.4276 123.536 62.2036 124.235 62.2036 125.152V130H60.7476V121.232H62.2036V122.48C62.4916 122.032 62.881 121.685 63.3716 121.44C63.873 121.195 64.4223 121.072 65.0196 121.072Z" fill="#AFAFAF"/>
</svg>
