<svg width="96" height="136" viewBox="0 0 96 136" fill="none" xmlns="http://www.w3.org/2000/svg">
<path d="M30.5284 92.4911C28.317 92.4911 26.2287 91.515 24.8158 89.7455L3.3175 63.2043C1.90461 61.4347 1.35194 59.1776 1.90461 56.9806L9.58272 23.85C10.074 21.6534 11.5483 19.8839 13.5756 18.9078L44.6566 4.14198C45.6395 3.65435 46.7452 3.41016 47.8509 3.41016C48.9566 3.41016 50.0619 3.65398 51.0449 4.14235L82.1263 18.8469C84.1532 19.8229 85.6274 21.5924 86.1187 23.789L93.7968 56.9196C94.2885 59.1162 93.7969 61.3738 92.3843 63.1433L70.8852 89.6845C69.4724 91.3928 67.3841 92.4301 65.1727 92.4301L30.5291 92.4911H30.5284Z" fill="#CBCBCB"/>
<path d="M47.7883 4.9357C48.6485 4.9357 49.5084 5.11857 50.3069 5.48467L81.3883 20.1892C82.9852 20.9823 84.2137 22.4467 84.5822 24.1553L92.2603 57.286C92.6903 59.0555 92.2603 60.886 91.0933 62.2891L69.5946 88.8307C68.4889 90.2337 66.7688 91.0269 64.9877 91.0269H30.5279C28.7464 91.0269 27.0267 90.2337 25.921 88.8307L4.42231 62.2891C3.31662 60.886 2.88631 59.0555 3.25525 57.286L10.9334 24.1553C11.3633 22.3858 12.5303 20.9214 14.1273 20.1892L45.2091 5.42408C46.0076 5.11894 46.9288 4.93607 47.7887 4.93607L47.7883 4.9357ZM47.7883 2.06787C46.4985 2.06787 45.2087 2.37301 43.9799 2.92198L12.8989 17.6878C10.4417 18.8471 8.72198 20.9823 8.10758 23.606L0.429468 56.737C-0.184558 59.3606 0.429468 62.0452 2.14956 64.1809L23.6483 90.7221C25.307 92.7964 27.8252 93.9557 30.4665 93.9557H64.926C67.5673 93.9557 70.0859 92.7964 71.7442 90.7221L93.2433 64.1805C94.963 62.1062 95.5774 59.3606 94.963 56.7366L87.2849 23.606C86.6709 20.9823 84.9508 18.8471 82.4939 17.6878L51.5353 2.92161C50.3682 2.37301 49.0784 2.06787 47.7883 2.06787Z" fill="white"/>
<path d="M78.9315 54.6624C78.8701 54.6624 78.8701 54.6624 78.9315 54.6624H78.8701C78.8088 54.6624 78.7474 54.6624 78.7474 54.6015C78.6247 54.6015 78.5019 54.5405 78.3788 54.5405C77.9489 54.4796 77.5803 54.4186 77.2118 54.4186C77.0273 54.4186 76.8432 54.4186 76.5974 54.3573H76.536C75.2462 54.2354 74.2019 54.1135 73.2189 53.8083C72.789 53.6251 72.6663 53.3813 72.5432 53.1371C72.5432 53.0761 72.4818 53.0761 72.4818 53.0152L71.6833 52.7713C72.0606 49.9011 71.9149 46.9869 71.2534 44.1678C70.5827 41.3254 69.4187 38.6207 67.8136 36.175L68.428 35.626V35.5041C68.428 35.199 68.4893 34.8938 68.7348 34.5887C69.4719 33.9175 70.3935 33.3685 71.4992 32.6972C71.6833 32.5753 71.8674 32.5144 72.0519 32.3921C72.4204 32.2092 72.7276 32.0264 73.0962 31.7822C73.1576 31.7212 73.2803 31.6603 73.4034 31.5384C73.4648 31.477 73.5261 31.477 73.5261 31.4161C74.386 30.6839 74.5705 29.4637 73.9561 28.6702C73.6489 28.2431 73.0962 27.9993 72.5432 27.9993C72.0522 27.9993 71.6219 28.1822 71.192 28.4873L71.0693 28.6092C70.9465 28.6702 70.8848 28.7924 70.7621 28.8534C70.4549 29.1585 70.209 29.4024 69.9636 29.7075C69.8409 29.8294 69.7181 30.0126 69.5337 30.1346C68.6734 31.05 67.8749 31.7822 67.0764 32.3311C66.8923 32.4531 66.7082 32.5144 66.5238 32.5144C66.401 32.5144 66.2779 32.5144 66.1552 32.4531H66.0325L65.295 32.9414C64.4965 32.0873 63.6366 31.3551 62.7768 30.6229C59.0742 27.7481 54.6181 25.9903 49.9388 25.5585L49.8774 24.7654L49.7547 24.6434C49.5702 24.4602 49.3247 24.2773 49.263 23.8503C49.2016 22.8739 49.3247 21.7756 49.4475 20.5554V20.4945C49.4475 20.3112 49.5088 20.0674 49.5702 19.8842C49.6316 19.5184 49.6929 19.152 49.7547 18.7249V18.176C49.7547 17.0777 48.8944 16.1626 47.8505 16.1626C47.3588 16.1626 46.8675 16.4064 46.499 16.7725C46.1308 17.1386 45.9463 17.6266 45.9463 18.176V18.664C45.9463 19.091 46.0077 19.4571 46.1304 19.8232C46.1918 20.0064 46.1918 20.1893 46.2531 20.4335V20.4945C46.3759 21.7147 46.5603 22.813 46.4376 23.7893C46.3762 24.2164 46.1304 24.3993 45.9463 24.5825L45.8236 24.7044L45.7618 25.4976C44.6561 25.6195 43.5505 25.7414 42.4448 25.9856C37.7152 27.0229 33.5382 29.4027 30.2829 32.8192L29.6685 32.3921H29.5458C29.423 32.3921 29.2999 32.4531 29.1772 32.4531C28.9927 32.4531 28.8086 32.3921 28.6242 32.2702C27.8257 31.7212 27.0272 30.9277 26.1673 30.0126C26.0446 29.8907 25.9219 29.7075 25.7374 29.5856C25.4916 29.2805 25.2457 29.0363 24.9385 28.7315C24.8772 28.6702 24.7544 28.6096 24.6317 28.4873C24.5703 28.4263 24.509 28.4263 24.509 28.3654C24.1284 28.0531 23.6511 27.8806 23.1574 27.877C22.6044 27.877 22.0518 28.1212 21.7446 28.5483C21.1302 29.3414 21.3146 30.5616 22.1745 31.2938C22.2358 31.2938 22.2358 31.3551 22.2972 31.3551C22.4199 31.4161 22.4817 31.538 22.6044 31.599C22.973 31.8428 23.2802 32.026 23.6487 32.2092C23.8332 32.2702 24.0173 32.3921 24.2018 32.5144C25.3071 33.1853 26.2287 33.7346 26.9658 34.4058C27.273 34.7106 27.273 35.0157 27.273 35.3209V35.4428L27.887 35.9921C27.7643 36.175 27.6416 36.2973 27.5798 36.4801C24.5086 41.3004 23.3415 46.9747 24.14 52.5881L23.3415 52.8319C23.3415 52.8932 23.2802 52.8932 23.2802 52.9538C23.1574 53.198 22.973 53.4422 22.6044 53.6251C21.6832 53.9302 20.5775 54.0525 19.2877 54.1744H19.226C19.0419 54.1744 18.796 54.1744 18.6119 54.2354C18.2434 54.2354 17.8748 54.2963 17.4449 54.3573C17.3222 54.3573 17.1994 54.4186 17.0763 54.4186C17.015 54.4186 16.9536 54.4186 16.8919 54.4796C15.7862 54.7234 15.1104 55.7607 15.2949 56.7367C15.4793 57.5912 16.2778 58.1405 17.2604 58.1405C17.4449 58.1405 17.5676 58.1405 17.7521 58.0792C17.8135 58.0792 17.8748 58.0792 17.8748 58.0183C17.9975 58.0183 18.1203 57.9573 18.243 57.9573C18.6733 57.8354 18.9805 57.7135 19.3491 57.5303C19.5332 57.4693 19.7173 57.347 19.9017 57.2864H19.9631C21.1302 56.859 22.1745 56.4929 23.1574 56.371H23.2802C23.6487 56.371 23.8946 56.5539 24.0787 56.6761C24.14 56.6761 24.14 56.7371 24.2014 56.7371L25.0616 56.6152C26.5359 61.1299 29.3613 65.157 33.1083 68.0858C33.9682 68.7567 34.828 69.306 35.7496 69.8553L35.3811 70.6481C35.3811 70.7094 35.4424 70.7094 35.4424 70.77C35.5651 71.0142 35.6879 71.3193 35.5651 71.7464C35.197 72.6618 34.6439 73.5769 33.9682 74.6142V74.6752C33.8454 74.8584 33.7227 74.9803 33.6 75.1632C33.3541 75.4683 33.1697 75.7735 32.9238 76.1396C32.8625 76.2005 32.8011 76.3224 32.7397 76.4447C32.7397 76.5057 32.6784 76.5666 32.6784 76.5666C32.1871 77.604 32.5556 78.7632 33.4769 79.1903C33.7223 79.3122 33.9682 79.3735 34.214 79.3735C34.9511 79.3735 35.6882 78.8851 36.0568 78.2139C36.0568 78.1529 36.1182 78.092 36.1182 78.092C36.1795 77.9701 36.2409 77.8482 36.3023 77.7868C36.4867 77.3598 36.5481 77.0546 36.6708 76.6885L36.8553 76.1396C37.2852 74.9194 37.5924 73.943 38.1451 73.0889C38.3906 72.7228 38.6981 72.6618 38.9436 72.5396C39.005 72.5396 39.005 72.5396 39.0663 72.4786L39.4966 71.6854C42.1993 72.7228 45.1478 73.2717 48.096 73.2717C49.8774 73.2717 51.7202 73.0889 53.4403 72.6618C54.5227 72.4214 55.5893 72.1157 56.6343 71.7464L57.0025 72.4176C57.0642 72.4176 57.0642 72.4176 57.1256 72.4786C57.4328 72.5396 57.6782 72.6618 57.9241 73.0279C58.4154 73.882 58.7839 74.9194 59.2139 76.0786V76.1396L59.3983 76.6885C59.5211 77.0546 59.5824 77.4207 59.7665 77.7868C59.8283 77.9088 59.8896 77.9701 59.951 78.092C59.951 78.1529 60.0127 78.2139 60.0127 78.2139C60.3809 78.9461 61.1181 79.3735 61.8552 79.3735C62.101 79.3735 62.3468 79.3122 62.5923 79.1903C63.0222 78.9465 63.3908 78.58 63.5139 78.092C63.6366 77.604 63.6366 77.0546 63.3912 76.5666C63.3912 76.5057 63.3294 76.5057 63.3294 76.4447C63.2681 76.3228 63.2067 76.2009 63.1453 76.1396C62.9609 75.7735 62.7154 75.4683 62.4696 75.1632C62.3468 74.9803 62.2241 74.8584 62.1014 74.6756V74.6142C61.4253 73.5769 60.8109 72.6618 60.504 71.7464C60.3813 71.3193 60.504 71.0755 60.5654 70.7704C60.5654 70.7094 60.6268 70.7094 60.6268 70.6485L60.3196 69.9163C63.5753 68.0248 66.3393 65.3399 68.428 62.0453C69.5337 60.3368 70.3935 58.4453 71.0075 56.5539L71.7447 56.6758C71.8064 56.6758 71.8064 56.6148 71.8674 56.6148C72.1132 56.4929 72.2977 56.31 72.6663 56.31H72.789C73.772 56.432 74.8159 56.7977 75.9833 57.2251H76.0447C76.2288 57.2861 76.4129 57.408 76.5974 57.4689C76.9659 57.6522 77.2731 57.7741 77.7031 57.8963C77.8258 57.8963 77.9485 57.9573 78.0716 57.9573C78.133 57.9573 78.1944 57.9573 78.2557 58.0183C78.4402 58.0792 78.5629 58.0792 78.7474 58.0792C79.6686 58.0792 80.4671 57.4693 80.7129 56.6761C80.7129 55.944 80.0372 54.9676 78.9315 54.6628V54.6624ZM50.4914 51.6727L47.7888 52.9542L45.0861 51.6727L44.4107 48.8052L46.2531 46.4867H49.263L51.1058 48.8052L50.4918 51.6727H50.4914ZM66.5238 45.3275C67.0003 47.345 67.1454 49.4259 66.9537 51.4894L57.5555 48.8052C56.6957 48.5614 56.2044 47.7069 56.3885 46.8528C56.4498 46.6086 56.5729 46.3644 56.757 46.1816L64.1897 39.5308C65.2336 41.2394 66.0321 43.1918 66.5238 45.3271V45.3275ZM61.2412 35.8702L53.1945 41.5446C52.5187 41.9716 51.5971 41.8493 51.0445 41.1785C50.8604 40.9952 50.799 40.751 50.7373 40.5072L50.1846 30.5616C54.3679 31.0401 58.2649 32.9112 61.2412 35.8702ZM43.4277 30.8664C44.1035 30.7445 44.7175 30.6226 45.3933 30.5007L44.8406 40.2627C44.7792 41.1168 44.1035 41.849 43.1819 41.849C42.9364 41.849 42.6292 41.788 42.4448 41.6661L34.2754 35.8702C36.7939 33.3685 39.9265 31.6599 43.4277 30.8668V30.8664ZM31.3268 39.5305L38.6364 45.998C39.3122 46.5473 39.3735 47.5843 38.8209 48.2555C38.6364 48.4993 38.3909 48.6826 38.0837 48.7439L28.5628 51.4894C28.1942 47.3405 29.1155 43.1305 31.3268 39.5305ZM29.6681 56.0655L39.4353 54.4179C40.2337 54.3569 40.9709 54.9062 41.155 55.6994C41.2163 56.0651 41.2163 56.3706 41.0936 56.6758L37.3466 65.6446C33.9068 63.448 31.1428 60.0922 29.6685 56.0655H29.6681ZM52.0888 68.2073C50.6759 68.5125 49.263 68.6953 47.7888 68.6953C45.6391 68.6953 43.5505 68.3296 41.5853 67.7193L46.4376 58.9943C46.9289 58.4449 47.7274 58.2011 48.4032 58.5672C48.69 58.7417 48.9402 58.9695 49.1403 59.2381L53.8699 67.7193C53.3172 67.9022 52.7028 68.0245 52.0884 68.2073H52.0888ZM64.0666 59.7265C62.5309 62.1669 60.5037 64.1193 58.1699 65.6446L54.3002 56.4312C54.1157 55.6994 54.4229 54.9062 55.16 54.5398C55.4055 54.4179 55.7127 54.3569 56.0199 54.3569L65.848 56.0045C65.4795 57.3467 64.8651 58.5672 64.0666 59.7265Z" fill="white"/>
<path d="M7.28 130L2.688 124.912V130H1.232V118.848H2.688V124.016L7.296 118.848H9.136L4.08 124.432L9.184 130H7.28ZM18.5861 121.232V130H17.1301V128.704C16.8528 129.152 16.4635 129.504 15.9621 129.76C15.4715 130.005 14.9275 130.128 14.3301 130.128C13.6475 130.128 13.0341 129.989 12.4901 129.712C11.9461 129.424 11.5141 128.997 11.1941 128.432C10.8848 127.867 10.7301 127.179 10.7301 126.368V121.232H12.1701V126.176C12.1701 127.04 12.3888 127.707 12.8261 128.176C13.2635 128.635 13.8608 128.864 14.6181 128.864C15.3968 128.864 16.0101 128.624 16.4581 128.144C16.9061 127.664 17.1301 126.965 17.1301 126.048V121.232H18.5861ZM22.5005 122.864C22.7992 122.341 23.2365 121.915 23.8125 121.584C24.3885 121.253 25.0445 121.088 25.7805 121.088C26.5698 121.088 27.2792 121.275 27.9085 121.648C28.5378 122.021 29.0338 122.549 29.3965 123.232C29.7592 123.904 29.9405 124.688 29.9405 125.584C29.9405 126.469 29.7592 127.259 29.3965 127.952C29.0338 128.645 28.5325 129.184 27.8925 129.568C27.2632 129.952 26.5592 130.144 25.7805 130.144C25.0232 130.144 24.3565 129.979 23.7805 129.648C23.2152 129.317 22.7885 128.896 22.5005 128.384V130H21.0445V118.16H22.5005V122.864ZM28.4525 125.584C28.4525 124.923 28.3192 124.347 28.0525 123.856C27.7858 123.365 27.4232 122.992 26.9645 122.736C26.5165 122.48 26.0205 122.352 25.4765 122.352C24.9432 122.352 24.4472 122.485 23.9885 122.752C23.5405 123.008 23.1778 123.387 22.9005 123.888C22.6338 124.379 22.5005 124.949 22.5005 125.6C22.5005 126.261 22.6338 126.843 22.9005 127.344C23.1778 127.835 23.5405 128.213 23.9885 128.48C24.4472 128.736 24.9432 128.864 25.4765 128.864C26.0205 128.864 26.5165 128.736 26.9645 128.48C27.4232 128.213 27.7858 127.835 28.0525 127.344C28.3192 126.843 28.4525 126.256 28.4525 125.584ZM39.857 125.28C39.857 125.557 39.841 125.851 39.809 126.16H32.801C32.8543 127.024 33.1477 127.701 33.681 128.192C34.225 128.672 34.881 128.912 35.649 128.912C36.2783 128.912 36.801 128.768 37.217 128.48C37.6437 128.181 37.9423 127.787 38.113 127.296H39.681C39.4463 128.139 38.977 128.827 38.273 129.36C37.569 129.883 36.6943 130.144 35.649 130.144C34.817 130.144 34.0703 129.957 33.409 129.584C32.7583 129.211 32.2463 128.683 31.873 128C31.4997 127.307 31.313 126.507 31.313 125.6C31.313 124.693 31.4943 123.899 31.857 123.216C32.2197 122.533 32.7263 122.011 33.377 121.648C34.0383 121.275 34.7957 121.088 35.649 121.088C36.481 121.088 37.217 121.269 37.857 121.632C38.497 121.995 38.9877 122.496 39.329 123.136C39.681 123.765 39.857 124.48 39.857 125.28ZM38.353 124.976C38.353 124.421 38.2303 123.947 37.985 123.552C37.7397 123.147 37.4037 122.843 36.977 122.64C36.561 122.427 36.097 122.32 35.585 122.32C34.849 122.32 34.2197 122.555 33.697 123.024C33.185 123.493 32.8917 124.144 32.817 124.976H38.353ZM43.2349 122.656C43.4909 122.155 43.8535 121.765 44.3229 121.488C44.8029 121.211 45.3842 121.072 46.0669 121.072V122.576H45.6829C44.0509 122.576 43.2349 123.461 43.2349 125.232V130H41.7789V121.232H43.2349V122.656ZM52.0196 121.072C53.0863 121.072 53.9503 121.397 54.6116 122.048C55.273 122.688 55.6036 123.616 55.6036 124.832V130H54.1636V125.04C54.1636 124.165 53.945 123.499 53.5076 123.04C53.0703 122.571 52.473 122.336 51.7156 122.336C50.9476 122.336 50.3343 122.576 49.8756 123.056C49.4276 123.536 49.2036 124.235 49.2036 125.152V130H47.7476V121.232H49.2036V122.48C49.4916 122.032 49.881 121.685 50.3716 121.44C50.873 121.195 51.4223 121.072 52.0196 121.072ZM65.982 125.28C65.982 125.557 65.966 125.851 65.934 126.16H58.926C58.9793 127.024 59.2727 127.701 59.806 128.192C60.35 128.672 61.006 128.912 61.774 128.912C62.4033 128.912 62.926 128.768 63.342 128.48C63.7687 128.181 64.0673 127.787 64.238 127.296H65.806C65.5713 128.139 65.102 128.827 64.398 129.36C63.694 129.883 62.8193 130.144 61.774 130.144C60.942 130.144 60.1953 129.957 59.534 129.584C58.8833 129.211 58.3713 128.683 57.998 128C57.6247 127.307 57.438 126.507 57.438 125.6C57.438 124.693 57.6193 123.899 57.982 123.216C58.3447 122.533 58.8513 122.011 59.502 121.648C60.1633 121.275 60.9207 121.088 61.774 121.088C62.606 121.088 63.342 121.269 63.982 121.632C64.622 121.995 65.1127 122.496 65.454 123.136C65.806 123.765 65.982 124.48 65.982 125.28ZM64.478 124.976C64.478 124.421 64.3553 123.947 64.11 123.552C63.8647 123.147 63.5287 122.843 63.102 122.64C62.686 122.427 62.222 122.32 61.71 122.32C60.974 122.32 60.3447 122.555 59.822 123.024C59.31 123.493 59.0167 124.144 58.942 124.976H64.478ZM69.6799 122.432V127.6C69.6799 128.027 69.7705 128.331 69.9519 128.512C70.1332 128.683 70.4479 128.768 70.8959 128.768H71.9679V130H70.6559C69.8452 130 69.2372 129.813 68.8319 129.44C68.4265 129.067 68.2239 128.453 68.2239 127.6V122.432H67.0879V121.232H68.2239V119.024H69.6799V121.232H71.9679V122.432H69.6799ZM81.732 125.28C81.732 125.557 81.716 125.851 81.684 126.16H74.676C74.7293 127.024 75.0227 127.701 75.556 128.192C76.1 128.672 76.756 128.912 77.524 128.912C78.1533 128.912 78.676 128.768 79.092 128.48C79.5187 128.181 79.8173 127.787 79.988 127.296H81.556C81.3213 128.139 80.852 128.827 80.148 129.36C79.444 129.883 78.5693 130.144 77.524 130.144C76.692 130.144 75.9453 129.957 75.284 129.584C74.6333 129.211 74.1213 128.683 73.748 128C73.3747 127.307 73.188 126.507 73.188 125.6C73.188 124.693 73.3693 123.899 73.732 123.216C74.0947 122.533 74.6013 122.011 75.252 121.648C75.9133 121.275 76.6707 121.088 77.524 121.088C78.356 121.088 79.092 121.269 79.732 121.632C80.372 121.995 80.8627 122.496 81.204 123.136C81.556 123.765 81.732 124.48 81.732 125.28ZM80.228 124.976C80.228 124.421 80.1053 123.947 79.86 123.552C79.6147 123.147 79.2787 122.843 78.852 122.64C78.436 122.427 77.972 122.32 77.46 122.32C76.724 122.32 76.0947 122.555 75.572 123.024C75.06 123.493 74.7667 124.144 74.692 124.976H80.228ZM86.7579 130.144C86.0859 130.144 85.4832 130.032 84.9499 129.808C84.4165 129.573 83.9952 129.253 83.6859 128.848C83.3765 128.432 83.2059 127.957 83.1739 127.424H84.6779C84.7205 127.861 84.9232 128.219 85.2859 128.496C85.6592 128.773 86.1445 128.912 86.7419 128.912C87.2965 128.912 87.7339 128.789 88.0539 128.544C88.3739 128.299 88.5339 127.989 88.5339 127.616C88.5339 127.232 88.3632 126.949 88.0219 126.768C87.6805 126.576 87.1525 126.389 86.4379 126.208C85.7872 126.037 85.2539 125.867 84.8379 125.696C84.4325 125.515 84.0805 125.253 83.7819 124.912C83.4939 124.56 83.3499 124.101 83.3499 123.536C83.3499 123.088 83.4832 122.677 83.7499 122.304C84.0165 121.931 84.3952 121.637 84.8859 121.424C85.3765 121.2 85.9365 121.088 86.5659 121.088C87.5365 121.088 88.3205 121.333 88.9179 121.824C89.5152 122.315 89.8352 122.987 89.8779 123.84H88.4219C88.3899 123.381 88.2032 123.013 87.8619 122.736C87.5312 122.459 87.0832 122.32 86.5179 122.32C85.9952 122.32 85.5792 122.432 85.2699 122.656C84.9605 122.88 84.8059 123.173 84.8059 123.536C84.8059 123.824 84.8965 124.064 85.0779 124.256C85.2699 124.437 85.5045 124.587 85.7819 124.704C86.0699 124.811 86.4645 124.933 86.9659 125.072C87.5952 125.243 88.1072 125.413 88.5019 125.584C88.8965 125.744 89.2325 125.989 89.5099 126.32C89.7979 126.651 89.9472 127.083 89.9579 127.616C89.9579 128.096 89.8245 128.528 89.5579 128.912C89.2912 129.296 88.9125 129.6 88.4219 129.824C87.9419 130.037 87.3872 130.144 86.7579 130.144Z" fill="#AFAFAF"/>
</svg>
