<svg width="96" height="136" viewBox="0 0 96 136" fill="none" xmlns="http://www.w3.org/2000/svg">
<path d="M48 93.9999C73.4051 93.9999 94 73.4051 94 48C94 22.5949 73.4051 2 48 2C22.5949 2 2 22.5949 2 48C2 73.4051 22.5949 93.9999 48 93.9999Z" fill="#CBCBCB"/>
<path d="M78.3184 34.2331H75.5669C74.1977 30.3213 70.2038 27.9701 66.1189 28.6709C62.0341 29.3717 59.0525 32.9198 59.0655 37.0641C59.0665 41.7557 62.8695 45.5585 67.5607 45.5597H78.3186C81.373 45.458 83.7964 42.9524 83.7964 39.8963C83.7964 36.8402 81.373 34.3348 78.3184 34.2331Z" fill="white"/>
<path d="M67.5609 45.5622C72.2528 45.5622 76.0563 41.7586 76.0563 37.0667C76.0563 32.3748 72.2528 28.5713 67.5609 28.5713C62.869 28.5713 59.0654 32.3748 59.0654 37.0667C59.0654 41.7586 62.869 45.5622 67.5609 45.5622Z" fill="white"/>
<path d="M35.4551 21.3408H59.5005V42.25H35.4551V21.3408Z" fill="#EEEEEE"/>
<path d="M32.8408 53.2275H61.5908V81.9775H32.8408V53.2275Z" fill="white"/>
<path d="M64.7271 40.1596H68.9091V48.5231H27.0908V40.1596H31.2727V23.4323L48 12.9775L64.7271 23.4321V40.1596ZM56.3635 40.1596V28.0677L48 22.8406L39.6364 28.0677V40.1596H56.3635Z" fill="#E2E2E2"/>
<path d="M25.2344 87.9803L32.3184 40.1592H63.6821L70.7661 87.9803C63.832 91.9372 55.9839 94.0124 48.0002 94C40.0166 94.0124 32.1685 91.9372 25.2344 87.9803ZM57.3656 54.5884L37.69 60.9806L35.2981 77.122L59.536 69.2455L57.3656 54.5884Z" fill="#E2E2E2"/>
<path d="M35.4543 44.8631H32.2782C30.6915 40.3574 26.087 37.6524 21.3789 38.4605C16.6707 39.2687 13.2316 43.3543 13.2383 48.1313C13.2419 53.5431 17.6288 57.9291 23.0406 57.9314H35.4543C38.9987 57.8416 41.8251 54.9427 41.8251 51.3973C41.8251 47.8518 38.9987 44.9528 35.4543 44.8631Z" fill="white"/>
<path d="M23.0404 57.9333C28.454 57.9333 32.8425 53.5448 32.8425 48.1312C32.8425 42.7177 28.454 38.3291 23.0404 38.3291C17.6268 38.3291 13.2383 42.7177 13.2383 48.1312C13.2383 53.5448 17.6268 57.9333 23.0404 57.9333Z" fill="white"/>
<path d="M7.188 128.816H11.092V130H5.732V118.848H7.188V128.816ZM13.3903 119.808C13.1129 119.808 12.8783 119.712 12.6863 119.52C12.4943 119.328 12.3983 119.093 12.3983 118.816C12.3983 118.539 12.4943 118.304 12.6863 118.112C12.8783 117.92 13.1129 117.824 13.3903 117.824C13.6569 117.824 13.8809 117.92 14.0623 118.112C14.2543 118.304 14.3503 118.539 14.3503 118.816C14.3503 119.093 14.2543 119.328 14.0623 119.52C13.8809 119.712 13.6569 119.808 13.3903 119.808ZM14.0943 121.232V130H12.6383V121.232H14.0943ZM20.1918 121.088C20.9491 121.088 21.6104 121.253 22.1758 121.584C22.7518 121.915 23.1784 122.331 23.4558 122.832V121.232H24.9278V130.192C24.9278 130.992 24.7571 131.701 24.4158 132.32C24.0744 132.949 23.5838 133.44 22.9438 133.792C22.3144 134.144 21.5784 134.32 20.7358 134.32C19.5838 134.32 18.6238 134.048 17.8558 133.504C17.0878 132.96 16.6344 132.219 16.4958 131.28H17.9358C18.0958 131.813 18.4264 132.24 18.9278 132.56C19.4291 132.891 20.0318 133.056 20.7358 133.056C21.5358 133.056 22.1864 132.805 22.6878 132.304C23.1998 131.803 23.4558 131.099 23.4558 130.192V128.352C23.1678 128.864 22.7411 129.291 22.1758 129.632C21.6104 129.973 20.9491 130.144 20.1918 130.144C19.4131 130.144 18.7038 129.952 18.0638 129.568C17.4344 129.184 16.9384 128.645 16.5758 127.952C16.2131 127.259 16.0318 126.469 16.0318 125.584C16.0318 124.688 16.2131 123.904 16.5758 123.232C16.9384 122.549 17.4344 122.021 18.0638 121.648C18.7038 121.275 19.4131 121.088 20.1918 121.088ZM23.4558 125.6C23.4558 124.939 23.3224 124.363 23.0558 123.872C22.7891 123.381 22.4264 123.008 21.9678 122.752C21.5198 122.485 21.0238 122.352 20.4798 122.352C19.9358 122.352 19.4398 122.48 18.9918 122.736C18.5438 122.992 18.1864 123.365 17.9198 123.856C17.6531 124.347 17.5198 124.923 17.5198 125.584C17.5198 126.256 17.6531 126.843 17.9198 127.344C18.1864 127.835 18.5438 128.213 18.9918 128.48C19.4398 128.736 19.9358 128.864 20.4798 128.864C21.0238 128.864 21.5198 128.736 21.9678 128.48C22.4264 128.213 22.7891 127.835 23.0558 127.344C23.3224 126.843 23.4558 126.261 23.4558 125.6ZM31.7403 121.072C32.4016 121.072 32.9989 121.216 33.5323 121.504C34.0656 121.781 34.4816 122.203 34.7803 122.768C35.0896 123.333 35.2443 124.021 35.2443 124.832V130H33.8043V125.04C33.8043 124.165 33.5856 123.499 33.1483 123.04C32.7109 122.571 32.1136 122.336 31.3563 122.336C30.5883 122.336 29.9749 122.576 29.5163 123.056C29.0683 123.536 28.8443 124.235 28.8443 125.152V130H27.3883V118.16H28.8443V122.48C29.1323 122.032 29.5269 121.685 30.0283 121.44C30.5403 121.195 31.1109 121.072 31.7403 121.072ZM39.3986 122.432V127.6C39.3986 128.027 39.4893 128.331 39.6706 128.512C39.852 128.683 40.1666 128.768 40.6146 128.768H41.6866V130H40.3746C39.564 130 38.956 129.813 38.5506 129.44C38.1453 129.067 37.9426 128.453 37.9426 127.6V122.432H36.8066V121.232H37.9426V119.024H39.3986V121.232H41.6866V122.432H39.3986ZM47.8028 121.072C48.4641 121.072 49.0614 121.216 49.5948 121.504C50.1281 121.781 50.5441 122.203 50.8428 122.768C51.1521 123.333 51.3068 124.021 51.3068 124.832V130H49.8668V125.04C49.8668 124.165 49.6481 123.499 49.2108 123.04C48.7734 122.571 48.1761 122.336 47.4188 122.336C46.6508 122.336 46.0374 122.576 45.5788 123.056C45.1308 123.536 44.9068 124.235 44.9068 125.152V130H43.4508V118.16H44.9068V122.48C45.1948 122.032 45.5894 121.685 46.0908 121.44C46.6028 121.195 47.1734 121.072 47.8028 121.072ZM57.5091 130.144C56.6878 130.144 55.9411 129.957 55.2691 129.584C54.6078 129.211 54.0851 128.683 53.7011 128C53.3278 127.307 53.1411 126.507 53.1411 125.6C53.1411 124.704 53.3331 123.915 53.7171 123.232C54.1118 122.539 54.6451 122.011 55.3171 121.648C55.9891 121.275 56.7411 121.088 57.5731 121.088C58.4051 121.088 59.1571 121.275 59.8291 121.648C60.5011 122.011 61.0291 122.533 61.4131 123.216C61.8078 123.899 62.0051 124.693 62.0051 125.6C62.0051 126.507 61.8025 127.307 61.3971 128C61.0025 128.683 60.4638 129.211 59.7811 129.584C59.0985 129.957 58.3411 130.144 57.5091 130.144ZM57.5091 128.864C58.0318 128.864 58.5225 128.741 58.9811 128.496C59.4398 128.251 59.8078 127.883 60.0851 127.392C60.3731 126.901 60.5171 126.304 60.5171 125.6C60.5171 124.896 60.3785 124.299 60.1011 123.808C59.8238 123.317 59.4611 122.955 59.0131 122.72C58.5651 122.475 58.0798 122.352 57.5571 122.352C57.0238 122.352 56.5331 122.475 56.0851 122.72C55.6478 122.955 55.2958 123.317 55.0291 123.808C54.7625 124.299 54.6291 124.896 54.6291 125.6C54.6291 126.315 54.7571 126.917 55.0131 127.408C55.2798 127.899 55.6318 128.267 56.0691 128.512C56.5065 128.747 56.9865 128.864 57.5091 128.864ZM71.6955 121.232V130H70.2395V128.704C69.9622 129.152 69.5728 129.504 69.0715 129.76C68.5808 130.005 68.0368 130.128 67.4395 130.128C66.7568 130.128 66.1435 129.989 65.5995 129.712C65.0555 129.424 64.6235 128.997 64.3035 128.432C63.9942 127.867 63.8395 127.179 63.8395 126.368V121.232H65.2795V126.176C65.2795 127.04 65.4982 127.707 65.9355 128.176C66.3728 128.635 66.9702 128.864 67.7275 128.864C68.5062 128.864 69.1195 128.624 69.5675 128.144C70.0155 127.664 70.2395 126.965 70.2395 126.048V121.232H71.6955ZM77.2579 130.144C76.5859 130.144 75.9832 130.032 75.4499 129.808C74.9165 129.573 74.4952 129.253 74.1859 128.848C73.8765 128.432 73.7059 127.957 73.6739 127.424H75.1779C75.2205 127.861 75.4232 128.219 75.7859 128.496C76.1592 128.773 76.6445 128.912 77.2419 128.912C77.7965 128.912 78.2339 128.789 78.5539 128.544C78.8739 128.299 79.0339 127.989 79.0339 127.616C79.0339 127.232 78.8632 126.949 78.5219 126.768C78.1805 126.576 77.6525 126.389 76.9379 126.208C76.2872 126.037 75.7539 125.867 75.3379 125.696C74.9325 125.515 74.5805 125.253 74.2819 124.912C73.9939 124.56 73.8499 124.101 73.8499 123.536C73.8499 123.088 73.9832 122.677 74.2499 122.304C74.5165 121.931 74.8952 121.637 75.3859 121.424C75.8765 121.2 76.4365 121.088 77.0659 121.088C78.0365 121.088 78.8205 121.333 79.4179 121.824C80.0152 122.315 80.3352 122.987 80.3779 123.84H78.9219C78.8899 123.381 78.7032 123.013 78.3619 122.736C78.0312 122.459 77.5832 122.32 77.0179 122.32C76.4952 122.32 76.0792 122.432 75.7699 122.656C75.4605 122.88 75.3059 123.173 75.3059 123.536C75.3059 123.824 75.3965 124.064 75.5779 124.256C75.7699 124.437 76.0045 124.587 76.2819 124.704C76.5699 124.811 76.9645 124.933 77.4659 125.072C78.0952 125.243 78.6072 125.413 79.0019 125.584C79.3965 125.744 79.7325 125.989 80.0099 126.32C80.2979 126.651 80.4472 127.083 80.4579 127.616C80.4579 128.096 80.3245 128.528 80.0579 128.912C79.7912 129.296 79.4125 129.6 78.9219 129.824C78.4419 130.037 77.8872 130.144 77.2579 130.144ZM90.5133 125.28C90.5133 125.557 90.4973 125.851 90.4653 126.16H83.4573C83.5106 127.024 83.8039 127.701 84.3373 128.192C84.8813 128.672 85.5373 128.912 86.3053 128.912C86.9346 128.912 87.4573 128.768 87.8733 128.48C88.2999 128.181 88.5986 127.787 88.7693 127.296H90.3373C90.1026 128.139 89.6333 128.827 88.9293 129.36C88.2253 129.883 87.3506 130.144 86.3053 130.144C85.4733 130.144 84.7266 129.957 84.0653 129.584C83.4146 129.211 82.9026 128.683 82.5293 128C82.1559 127.307 81.9693 126.507 81.9693 125.6C81.9693 124.693 82.1506 123.899 82.5133 123.216C82.8759 122.533 83.3826 122.011 84.0333 121.648C84.6946 121.275 85.4519 121.088 86.3053 121.088C87.1373 121.088 87.8733 121.269 88.5133 121.632C89.1533 121.995 89.6439 122.496 89.9853 123.136C90.3373 123.765 90.5133 124.48 90.5133 125.28ZM89.0093 124.976C89.0093 124.421 88.8866 123.947 88.6413 123.552C88.3959 123.147 88.0599 122.843 87.6333 122.64C87.2173 122.427 86.7533 122.32 86.2413 122.32C85.5053 122.32 84.8759 122.555 84.3533 123.024C83.8413 123.493 83.5479 124.144 83.4733 124.976H89.0093Z" fill="#AFAFAF"/>
</svg>
