<svg width="96" height="136" viewBox="0 0 96 136" fill="none" xmlns="http://www.w3.org/2000/svg">
<path d="M47.8352 3.4004C46.4202 3.40101 45.032 3.78626 43.8191 4.51493C42.6061 5.2436 41.6141 6.28828 40.9491 7.53723C40.284 8.78618 39.971 10.1924 40.0434 11.6056C40.1159 13.0187 40.5712 14.3855 41.3605 15.5599L44.6942 12.2308C44.584 11.8987 44.5285 11.551 44.5297 11.2011C44.5297 10.5501 44.7227 9.91374 45.0844 9.37247C45.446 8.8312 45.9601 8.40933 46.5615 8.1602C47.1629 7.91108 47.8247 7.8459 48.4632 7.9729C49.1017 8.0999 49.6882 8.41338 50.1485 8.8737C50.6088 9.33401 50.9223 9.92049 51.0493 10.559C51.1763 11.1974 51.1111 11.8592 50.862 12.4607C50.6129 13.0621 50.191 13.5762 49.6497 13.9378C49.1084 14.2995 48.4721 14.4925 47.8211 14.4925C47.4728 14.4933 47.1266 14.4377 46.796 14.328L43.467 17.657C44.4773 18.3422 45.6344 18.7808 46.8451 18.9374C48.0559 19.0939 49.2864 18.9641 50.4379 18.5585C51.5893 18.1528 52.6294 17.4825 53.4746 16.6015C54.3198 15.7206 54.9464 14.6536 55.304 13.4863C55.6617 12.3191 55.7404 11.0842 55.5338 9.881C55.3272 8.6778 54.8411 7.53989 54.1145 6.5588C53.388 5.5777 52.4414 4.78082 51.3508 4.23226C50.2601 3.6837 49.056 3.39877 47.8352 3.4004Z" fill="#CBCBCB"/>
<path d="M44.7318 26.1346C44.7369 23.4995 43.8835 20.9345 42.3008 18.8276L37.975 23.1488C38.6328 24.352 38.8733 25.7393 38.6589 27.0937C38.4445 28.4481 37.7873 29.6933 36.79 30.6345L39.1411 36.3804C40.8554 35.2763 42.2654 33.7599 43.2421 31.97C44.2188 30.18 44.731 28.1737 44.7318 26.1346Z" fill="#CBCBCB"/>
<path d="M32.6433 32.3366H32.5305C31.5632 32.3367 30.6094 32.1107 29.745 31.6767C28.8806 31.2427 28.1295 30.6127 27.5519 29.8369C26.9742 29.0611 26.5858 28.161 26.4177 27.2085C26.2496 26.256 26.3065 25.2773 26.5837 24.3507C26.861 23.424 27.351 22.575 28.0146 21.8714C28.6783 21.1677 29.4972 20.6289 30.4061 20.2979C31.3149 19.9669 32.2885 19.8529 33.2493 19.965C34.21 20.0771 35.1312 20.4122 35.9395 20.9435L40.223 16.66C38.707 15.4309 36.9182 14.5836 35.0069 14.1892C33.0955 13.7948 31.1174 13.8648 29.2387 14.3933C27.36 14.9218 25.6356 15.8934 24.2102 17.2265C22.7849 18.5597 21.7002 20.2154 21.0474 22.0546C20.3945 23.8938 20.1926 25.8628 20.4584 27.7962C20.7243 29.7296 21.4502 31.571 22.5753 33.1658C23.7003 34.7605 25.1916 36.062 26.9239 36.9609C28.6562 37.8598 30.5789 38.3299 32.5305 38.3317C33.3579 38.3321 34.1832 38.2502 34.9944 38.0872L32.6433 32.3366Z" fill="#CBCBCB"/>
<path d="M47.9998 37.3065C45.2924 37.3037 42.5993 37.6982 40.0064 38.4773L43.4342 46.8516C44.9263 46.4818 46.4579 46.2955 47.9951 46.2968C52.3148 46.298 56.5003 47.7969 59.8387 50.5381C63.1771 53.2793 65.4618 57.0932 66.3036 61.33C67.1453 65.5668 66.4921 69.9644 64.4551 73.7736C62.4181 77.5828 59.1234 80.5679 55.1323 82.2203C51.1413 83.8727 46.7007 84.0902 42.5673 82.8357C38.4338 81.5813 34.8632 78.9325 32.4637 75.3407C30.0642 71.7488 28.9842 67.4361 29.4079 63.1373C29.8316 58.8385 31.7326 54.8196 34.7871 51.7653C36.1014 50.4551 37.6018 49.346 39.2399 48.4738L35.8498 40.123C29.7455 43.1125 24.9546 48.2434 22.3899 54.5379C19.8252 60.8325 19.6661 67.8506 21.9429 74.2549C24.2196 80.6592 28.7731 86.002 34.7356 89.2651C40.698 92.5282 47.6526 93.4835 54.2741 91.949C60.8956 90.4144 66.721 86.4974 70.6403 80.9442C74.5596 75.391 76.2987 68.5899 75.5263 61.837C74.7539 55.084 71.5239 48.8513 66.4519 44.3266C61.3798 39.8019 54.8203 37.3014 48.0233 37.3018L47.9998 37.3065Z" fill="#CBCBCB"/>
<path d="M24.688 128.816H28.592V130H23.232V118.848H24.688V128.816ZM33.9623 130.144C33.1409 130.144 32.3943 129.957 31.7223 129.584C31.0609 129.211 30.5383 128.683 30.1543 128C29.7809 127.307 29.5943 126.507 29.5943 125.6C29.5943 124.704 29.7863 123.915 30.1703 123.232C30.5649 122.539 31.0983 122.011 31.7703 121.648C32.4423 121.275 33.1943 121.088 34.0263 121.088C34.8583 121.088 35.6103 121.275 36.2823 121.648C36.9543 122.011 37.4823 122.533 37.8663 123.216C38.2609 123.899 38.4583 124.693 38.4583 125.6C38.4583 126.507 38.2556 127.307 37.8503 128C37.4556 128.683 36.9169 129.211 36.2343 129.584C35.5516 129.957 34.7943 130.144 33.9623 130.144ZM33.9623 128.864C34.4849 128.864 34.9756 128.741 35.4343 128.496C35.8929 128.251 36.2609 127.883 36.5383 127.392C36.8263 126.901 36.9703 126.304 36.9703 125.6C36.9703 124.896 36.8316 124.299 36.5543 123.808C36.2769 123.317 35.9143 122.955 35.4663 122.72C35.0183 122.475 34.5329 122.352 34.0103 122.352C33.4769 122.352 32.9863 122.475 32.5383 122.72C32.1009 122.955 31.7489 123.317 31.4823 123.808C31.2156 124.299 31.0823 124.896 31.0823 125.6C31.0823 126.315 31.2103 126.917 31.4663 127.408C31.7329 127.899 32.0849 128.267 32.5223 128.512C32.9596 128.747 33.4396 128.864 33.9623 128.864ZM44.1966 130.144C43.3753 130.144 42.6286 129.957 41.9566 129.584C41.2953 129.211 40.7726 128.683 40.3886 128C40.0153 127.307 39.8286 126.507 39.8286 125.6C39.8286 124.704 40.0206 123.915 40.4046 123.232C40.7993 122.539 41.3326 122.011 42.0046 121.648C42.6766 121.275 43.4286 121.088 44.2606 121.088C45.0926 121.088 45.8446 121.275 46.5166 121.648C47.1886 122.011 47.7166 122.533 48.1006 123.216C48.4953 123.899 48.6926 124.693 48.6926 125.6C48.6926 126.507 48.49 127.307 48.0846 128C47.69 128.683 47.1513 129.211 46.4686 129.584C45.786 129.957 45.0286 130.144 44.1966 130.144ZM44.1966 128.864C44.7193 128.864 45.21 128.741 45.6686 128.496C46.1273 128.251 46.4953 127.883 46.7726 127.392C47.0606 126.901 47.2046 126.304 47.2046 125.6C47.2046 124.896 47.066 124.299 46.7886 123.808C46.5113 123.317 46.1486 122.955 45.7006 122.72C45.2526 122.475 44.7673 122.352 44.2446 122.352C43.7113 122.352 43.2206 122.475 42.7726 122.72C42.3353 122.955 41.9833 123.317 41.7166 123.808C41.45 124.299 41.3166 124.896 41.3166 125.6C41.3166 126.315 41.4446 126.917 41.7006 127.408C41.9673 127.899 42.3193 128.267 42.7566 128.512C43.194 128.747 43.674 128.864 44.1966 128.864ZM55.503 130L52.063 126.128V130H50.607V118.16H52.063V125.12L55.439 121.232H57.471L53.343 125.6L57.487 130H55.503ZM66.8414 125.28C66.8414 125.557 66.8254 125.851 66.7934 126.16H59.7854C59.8387 127.024 60.132 127.701 60.6654 128.192C61.2094 128.672 61.8654 128.912 62.6334 128.912C63.2627 128.912 63.7854 128.768 64.2014 128.48C64.628 128.181 64.9267 127.787 65.0974 127.296H66.6654C66.4307 128.139 65.9614 128.827 65.2574 129.36C64.5534 129.883 63.6787 130.144 62.6334 130.144C61.8014 130.144 61.0547 129.957 60.3934 129.584C59.7427 129.211 59.2307 128.683 58.8574 128C58.484 127.307 58.2974 126.507 58.2974 125.6C58.2974 124.693 58.4787 123.899 58.8414 123.216C59.204 122.533 59.7107 122.011 60.3614 121.648C61.0227 121.275 61.78 121.088 62.6334 121.088C63.4654 121.088 64.2014 121.269 64.8414 121.632C65.4814 121.995 65.972 122.496 66.3134 123.136C66.6654 123.765 66.8414 124.48 66.8414 125.28ZM65.3374 124.976C65.3374 124.421 65.2147 123.947 64.9694 123.552C64.724 123.147 64.388 122.843 63.9614 122.64C63.5454 122.427 63.0814 122.32 62.5694 122.32C61.8334 122.32 61.204 122.555 60.6814 123.024C60.1694 123.493 59.876 124.144 59.8014 124.976H65.3374ZM70.2193 122.656C70.4753 122.155 70.8379 121.765 71.3073 121.488C71.7873 121.211 72.3686 121.072 73.0513 121.072V122.576H72.6673C71.0353 122.576 70.2193 123.461 70.2193 125.232V130H68.7633V121.232H70.2193V122.656Z" fill="#AFAFAF"/>
</svg>
