<svg width="139" height="136" viewBox="0 0 139 136" fill="none" xmlns="http://www.w3.org/2000/svg">
<path d="M102.854 9.5H55.463C54.4365 9.5 53.4521 9.90678 52.7263 10.6309C52.0005 11.3549 51.5928 12.337 51.5928 13.361V17.75L78.3037 26L106.724 17.75V13.361C106.724 12.337 106.316 11.3549 105.59 10.6309C104.864 9.90678 103.88 9.5 102.854 9.5Z" fill="#AFAFAF"/>
<path d="M111.272 51.8637C111.676 50.5976 111.998 49.3071 112.237 48C112.237 47.6788 112.152 47.3634 111.991 47.0854C111.83 46.8074 111.598 46.5765 111.319 46.416L111.284 46.394L111.272 46.3885L81.397 29.41C81.2681 29.3265 81.1347 29.2503 80.9973 29.1817C80.4259 28.8987 79.7966 28.7515 79.1587 28.7515C78.5207 28.7515 77.8915 28.8987 77.3201 29.1817C77.1827 29.2494 77.0493 29.3247 76.9204 29.4072L47.0449 46.3912L47.0338 46.3967L47.0008 46.416C46.7215 46.5762 46.4894 46.8069 46.3278 47.085C46.1662 47.363 46.0807 47.6786 46.0801 48C46.3189 49.3071 46.6411 50.5976 47.0449 51.8637L78.7231 74.9775L111.272 51.8637Z" fill="#757575"/>
<path d="M90.1842 17.75H70.8884L65.3174 26L70.8884 34.25L90.1842 50.75H106.723V34.25L90.1842 17.75Z" fill="#AFAFAF"/>
<path d="M51.5928 17.75H70.8886V34.25H51.5928V17.75Z" fill="#CBCBCB"/>
<path d="M90.1846 17.75H106.724V34.25H90.1846V17.75Z" fill="#CBCBCB"/>
<path d="M90.1844 50.75L70.8886 34.25H51.5928V50.75L70.8886 67.25L100.748 72.112L90.1844 50.75Z" fill="#AFAFAF"/>
<path d="M70.8887 34.25H90.1846V50.75H70.8887V34.25Z" fill="#CBCBCB"/>
<path d="M51.5928 50.75H70.8886V67.25H51.5928V50.75Z" fill="#AFAFAF"/>
<path d="M90.1846 50.75H106.724V67.25H90.1846V50.75Z" fill="#CBCBCB"/>
<path opacity="0.5" d="M79.6818 73.3496L47.1738 49.6996L48.5383 47.3071C48.5383 47.3071 78.1575 64.1371 78.6095 64.3901C78.7945 64.4639 78.9927 64.4991 79.1918 64.4934C79.391 64.4878 79.5869 64.4414 79.7673 64.3571L109.905 47.2246L111.272 49.6144L79.6818 73.3496Z" fill="#757575"/>
<path d="M111.319 49.5867L111.28 49.6087L111.272 49.6142L81.3966 66.5927C80.8033 66.9744 80.1217 67.1979 79.4171 67.2417C78.7124 67.2855 78.0083 67.1482 77.3721 66.843L87.7753 80.7607L110.528 85.7025V85.7135C111.057 85.3316 111.488 84.8298 111.785 84.2494C112.082 83.6691 112.237 83.0267 112.237 82.375V48C112.237 48.3216 112.152 48.6376 111.991 48.9161C111.83 49.1946 111.598 49.4259 111.319 49.5867Z" fill="#E2E2E2"/>
<path opacity="0.1" d="M112.099 83.4283L81.9342 66.2876L81.3966 66.5901C80.8035 66.9722 80.1221 67.1961 79.4174 67.2404C78.7128 67.2847 78.0086 67.1479 77.3721 66.8431L87.7753 80.7608L110.528 85.7026V85.7136C111.299 85.1559 111.854 84.3497 112.099 83.4311V83.4283Z" fill="#757575"/>
<path d="M47.0449 49.6225V49.595H47.0174L46.9347 49.54C46.6712 49.3787 46.454 49.1521 46.3042 48.8822C46.1545 48.6124 46.0773 48.3084 46.0802 48V82.375C46.0794 82.9169 46.1859 83.4536 46.3934 83.9544C46.601 84.4552 46.9055 84.9102 47.2896 85.2934C47.6737 85.6766 48.1298 85.9804 48.6318 86.1874C49.1338 86.3945 49.6718 86.5007 50.215 86.5H108.103C108.447 86.4966 108.79 86.4504 109.122 86.3625C109.295 86.3325 109.462 86.2769 109.619 86.1975C109.677 86.1918 109.734 86.173 109.784 86.1425C110.01 86.0505 110.223 85.9303 110.418 85.785C110.473 85.7575 110.501 85.7575 110.528 85.7025L47.0449 49.6225Z" fill="#CBCBCB"/>
<path d="M27.7018 26H64.4577C65.4322 26 66.3668 26.3862 67.0559 27.0737C67.745 27.7611 68.1321 28.6935 68.1321 29.6658V66.3343C68.1321 67.3065 67.745 68.2389 67.0559 68.9263C66.3668 69.6138 65.4322 70 64.4577 70H27.7018C26.7273 70 25.7927 69.6138 25.1036 68.9263C24.4145 68.2389 24.0273 67.3065 24.0273 66.3343V29.6658C24.0273 28.6935 24.4145 27.7611 25.1036 27.0737C25.7927 26.3862 26.7273 26 27.7018 26Z" fill="#AFAFAF"/>
<path d="M34.6866 41.0368C35.663 38.9609 37.2393 37.2237 39.2129 36.0483C41.3994 34.7996 43.8891 34.1773 46.4075 34.2498C48.7394 34.1994 51.0404 34.7892 53.059 35.9548C54.9593 37.084 56.4896 38.7397 57.464 40.7206C58.5255 42.904 59.0544 45.3069 59.0077 47.7331C59.0587 50.2673 58.514 52.7782 57.4172 55.0646C56.4216 57.116 54.8451 58.8312 52.8826 59.9981C50.7848 61.2009 48.3964 61.8068 45.9775 61.7498C43.5944 61.8064 41.2413 61.2101 39.1743 60.0256C37.2589 58.8946 35.7105 57.2372 34.7142 55.2516C33.6455 53.1004 33.1095 50.7249 33.1512 48.3243C33.105 45.8107 33.6299 43.3192 34.6866 41.0368ZM39.5106 52.7463C40.0307 54.0586 40.9129 55.1971 42.0549 56.0298C43.2186 56.8424 44.6126 57.2616 46.0326 57.2261C47.5453 57.2848 49.0361 56.8514 50.2804 55.9913C51.4097 55.1591 52.2694 54.0145 52.7531 52.6996C53.2954 51.2345 53.5626 49.6824 53.5414 48.1208C53.5583 46.5444 53.3066 44.9767 52.7972 43.4843C52.3477 42.1418 51.5187 40.9576 50.41 40.0743C49.1985 39.171 47.712 38.7116 46.2008 38.7736C44.7499 38.737 43.3246 39.1596 42.1293 39.9808C40.9649 40.815 40.0624 41.9624 39.5271 43.2891C38.3431 46.3306 38.3362 49.7028 39.5079 52.7491L39.5106 52.7463Z" fill="white"/>
<path d="M12.544 118.928V130H11.088V121.744L7.408 130H6.384L2.688 121.728V130H1.232V118.928H2.8L6.896 128.08L10.992 118.928H12.544ZM15.7653 119.808C15.4879 119.808 15.2533 119.712 15.0613 119.52C14.8693 119.328 14.7733 119.093 14.7733 118.816C14.7733 118.539 14.8693 118.304 15.0613 118.112C15.2533 117.92 15.4879 117.824 15.7653 117.824C16.0319 117.824 16.2559 117.92 16.4373 118.112C16.6293 118.304 16.7253 118.539 16.7253 118.816C16.7253 119.093 16.6293 119.328 16.4373 119.52C16.2559 119.712 16.0319 119.808 15.7653 119.808ZM16.4693 121.232V130H15.0133V121.232H16.4693ZM18.4068 125.6C18.4068 124.693 18.5881 123.904 18.9508 123.232C19.3134 122.549 19.8148 122.021 20.4548 121.648C21.1054 121.275 21.8468 121.088 22.6788 121.088C23.7561 121.088 24.6414 121.349 25.3348 121.872C26.0388 122.395 26.5028 123.12 26.7268 124.048H25.1588C25.0094 123.515 24.7161 123.093 24.2788 122.784C23.8521 122.475 23.3188 122.32 22.6788 122.32C21.8468 122.32 21.1748 122.608 20.6628 123.184C20.1508 123.749 19.8948 124.555 19.8948 125.6C19.8948 126.656 20.1508 127.472 20.6628 128.048C21.1748 128.624 21.8468 128.912 22.6788 128.912C23.3188 128.912 23.8521 128.763 24.2788 128.464C24.7054 128.165 24.9988 127.739 25.1588 127.184H26.7268C26.4921 128.08 26.0228 128.8 25.3188 129.344C24.6148 129.877 23.7348 130.144 22.6788 130.144C21.8468 130.144 21.1054 129.957 20.4548 129.584C19.8148 129.211 19.3134 128.683 18.9508 128C18.5881 127.317 18.4068 126.517 18.4068 125.6ZM30.1255 122.656C30.3815 122.155 30.7442 121.765 31.2135 121.488C31.6935 121.211 32.2748 121.072 32.9575 121.072V122.576H32.5735C30.9415 122.576 30.1255 123.461 30.1255 125.232V130H28.6695V121.232H30.1255V122.656ZM38.4623 130.144C37.6409 130.144 36.8943 129.957 36.2223 129.584C35.5609 129.211 35.0383 128.683 34.6543 128C34.2809 127.307 34.0943 126.507 34.0943 125.6C34.0943 124.704 34.2863 123.915 34.6703 123.232C35.0649 122.539 35.5983 122.011 36.2703 121.648C36.9423 121.275 37.6943 121.088 38.5263 121.088C39.3583 121.088 40.1103 121.275 40.7823 121.648C41.4543 122.011 41.9823 122.533 42.3663 123.216C42.7609 123.899 42.9583 124.693 42.9583 125.6C42.9583 126.507 42.7556 127.307 42.3503 128C41.9556 128.683 41.4169 129.211 40.7343 129.584C40.0516 129.957 39.2943 130.144 38.4623 130.144ZM38.4623 128.864C38.9849 128.864 39.4756 128.741 39.9343 128.496C40.3929 128.251 40.7609 127.883 41.0383 127.392C41.3263 126.901 41.4703 126.304 41.4703 125.6C41.4703 124.896 41.3316 124.299 41.0543 123.808C40.7769 123.317 40.4143 122.955 39.9663 122.72C39.5183 122.475 39.0329 122.352 38.5103 122.352C37.9769 122.352 37.4863 122.475 37.0383 122.72C36.6009 122.955 36.2489 123.317 35.9823 123.808C35.7156 124.299 35.5823 124.896 35.5823 125.6C35.5823 126.315 35.7103 126.917 35.9663 127.408C36.2329 127.899 36.5849 128.267 37.0223 128.512C37.4596 128.747 37.9396 128.864 38.4623 128.864ZM47.9766 130.144C47.3046 130.144 46.702 130.032 46.1686 129.808C45.6353 129.573 45.214 129.253 44.9046 128.848C44.5953 128.432 44.4246 127.957 44.3926 127.424H45.8966C45.9393 127.861 46.142 128.219 46.5046 128.496C46.878 128.773 47.3633 128.912 47.9606 128.912C48.5153 128.912 48.9526 128.789 49.2726 128.544C49.5926 128.299 49.7526 127.989 49.7526 127.616C49.7526 127.232 49.582 126.949 49.2406 126.768C48.8993 126.576 48.3713 126.389 47.6566 126.208C47.006 126.037 46.4726 125.867 46.0566 125.696C45.6513 125.515 45.2993 125.253 45.0006 124.912C44.7126 124.56 44.5686 124.101 44.5686 123.536C44.5686 123.088 44.702 122.677 44.9686 122.304C45.2353 121.931 45.614 121.637 46.1046 121.424C46.5953 121.2 47.1553 121.088 47.7846 121.088C48.7553 121.088 49.5393 121.333 50.1366 121.824C50.734 122.315 51.054 122.987 51.0966 123.84H49.6406C49.6086 123.381 49.422 123.013 49.0806 122.736C48.75 122.459 48.302 122.32 47.7366 122.32C47.214 122.32 46.798 122.432 46.4886 122.656C46.1793 122.88 46.0246 123.173 46.0246 123.536C46.0246 123.824 46.1153 124.064 46.2966 124.256C46.4886 124.437 46.7233 124.587 47.0006 124.704C47.2886 124.811 47.6833 124.933 48.1846 125.072C48.814 125.243 49.326 125.413 49.7206 125.584C50.1153 125.744 50.4513 125.989 50.7286 126.32C51.0166 126.651 51.166 127.083 51.1766 127.616C51.1766 128.096 51.0433 128.528 50.7766 128.912C50.51 129.296 50.1313 129.6 49.6406 129.824C49.1606 130.037 48.606 130.144 47.9766 130.144ZM57.056 130.144C56.2347 130.144 55.488 129.957 54.816 129.584C54.1547 129.211 53.632 128.683 53.248 128C52.8747 127.307 52.688 126.507 52.688 125.6C52.688 124.704 52.88 123.915 53.264 123.232C53.6587 122.539 54.192 122.011 54.864 121.648C55.536 121.275 56.288 121.088 57.12 121.088C57.952 121.088 58.704 121.275 59.376 121.648C60.048 122.011 60.576 122.533 60.96 123.216C61.3547 123.899 61.552 124.693 61.552 125.6C61.552 126.507 61.3493 127.307 60.944 128C60.5493 128.683 60.0107 129.211 59.328 129.584C58.6453 129.957 57.888 130.144 57.056 130.144ZM57.056 128.864C57.5787 128.864 58.0693 128.741 58.528 128.496C58.9867 128.251 59.3547 127.883 59.632 127.392C59.92 126.901 60.064 126.304 60.064 125.6C60.064 124.896 59.9253 124.299 59.648 123.808C59.3707 123.317 59.008 122.955 58.56 122.72C58.112 122.475 57.6267 122.352 57.104 122.352C56.5707 122.352 56.08 122.475 55.632 122.72C55.1947 122.955 54.8427 123.317 54.576 123.808C54.3093 124.299 54.176 124.896 54.176 125.6C54.176 126.315 54.304 126.917 54.56 127.408C54.8267 127.899 55.1787 128.267 55.616 128.512C56.0533 128.747 56.5333 128.864 57.056 128.864ZM67.0344 122.432H65.1944V130H63.7384V122.432H62.6024V121.232H63.7384V120.608C63.7384 119.627 63.989 118.912 64.4904 118.464C65.0024 118.005 65.8184 117.776 66.9384 117.776V118.992C66.2984 118.992 65.845 119.12 65.5784 119.376C65.3224 119.621 65.1944 120.032 65.1944 120.608V121.232H67.0344V122.432ZM70.508 122.432V127.6C70.508 128.027 70.5987 128.331 70.78 128.512C70.9613 128.683 71.276 128.768 71.724 128.768H72.796V130H71.484C70.6733 130 70.0653 129.813 69.66 129.44C69.2547 129.067 69.052 128.453 69.052 127.6V122.432H67.916V121.232H69.052V119.024H70.508V121.232H72.796V122.432H70.508ZM83.8818 130.112C82.8471 130.112 81.9031 129.872 81.0498 129.392C80.1964 128.901 79.5191 128.224 79.0178 127.36C78.5271 126.485 78.2818 125.504 78.2818 124.416C78.2818 123.328 78.5271 122.352 79.0178 121.488C79.5191 120.613 80.1964 119.936 81.0498 119.456C81.9031 118.965 82.8471 118.72 83.8818 118.72C84.9271 118.72 85.8764 118.965 86.7298 119.456C87.5831 119.936 88.2551 120.608 88.7458 121.472C89.2364 122.336 89.4818 123.317 89.4818 124.416C89.4818 125.515 89.2364 126.496 88.7458 127.36C88.2551 128.224 87.5831 128.901 86.7298 129.392C85.8764 129.872 84.9271 130.112 83.8818 130.112ZM83.8818 128.848C84.6604 128.848 85.3591 128.667 85.9778 128.304C86.6071 127.941 87.0978 127.424 87.4498 126.752C87.8124 126.08 87.9938 125.301 87.9938 124.416C87.9938 123.52 87.8124 122.741 87.4498 122.08C87.0978 121.408 86.6124 120.891 85.9938 120.528C85.3751 120.165 84.6711 119.984 83.8818 119.984C83.0924 119.984 82.3884 120.165 81.7698 120.528C81.1511 120.891 80.6604 121.408 80.2978 122.08C79.9458 122.741 79.7698 123.52 79.7698 124.416C79.7698 125.301 79.9458 126.08 80.2978 126.752C80.6604 127.424 81.1511 127.941 81.7698 128.304C82.3991 128.667 83.1031 128.848 83.8818 128.848ZM99.1799 121.232V130H97.7239V128.704C97.4465 129.152 97.0572 129.504 96.5559 129.76C96.0652 130.005 95.5212 130.128 94.9239 130.128C94.2412 130.128 93.6279 129.989 93.0839 129.712C92.5399 129.424 92.1079 128.997 91.7879 128.432C91.4785 127.867 91.3239 127.179 91.3239 126.368V121.232H92.7639V126.176C92.7639 127.04 92.9825 127.707 93.4199 128.176C93.8572 128.635 94.4545 128.864 95.2119 128.864C95.9905 128.864 96.6039 128.624 97.0519 128.144C97.4999 127.664 97.7239 126.965 97.7239 126.048V121.232H99.1799ZM103.414 122.432V127.6C103.414 128.027 103.505 128.331 103.686 128.512C103.868 128.683 104.182 128.768 104.63 128.768H105.702V130H104.39C103.58 130 102.972 129.813 102.566 129.44C102.161 129.067 101.958 128.453 101.958 127.6V122.432H100.822V121.232H101.958V119.024H103.414V121.232H105.702V122.432H103.414ZM108.922 118.16V130H107.466V118.16H108.922ZM115.228 130.144C114.407 130.144 113.66 129.957 112.988 129.584C112.327 129.211 111.804 128.683 111.42 128C111.047 127.307 110.86 126.507 110.86 125.6C110.86 124.704 111.052 123.915 111.436 123.232C111.831 122.539 112.364 122.011 113.036 121.648C113.708 121.275 114.46 121.088 115.292 121.088C116.124 121.088 116.876 121.275 117.548 121.648C118.22 122.011 118.748 122.533 119.132 123.216C119.527 123.899 119.724 124.693 119.724 125.6C119.724 126.507 119.521 127.307 119.116 128C118.721 128.683 118.183 129.211 117.5 129.584C116.817 129.957 116.06 130.144 115.228 130.144ZM115.228 128.864C115.751 128.864 116.241 128.741 116.7 128.496C117.159 128.251 117.527 127.883 117.804 127.392C118.092 126.901 118.236 126.304 118.236 125.6C118.236 124.896 118.097 124.299 117.82 123.808C117.543 123.317 117.18 122.955 116.732 122.72C116.284 122.475 115.799 122.352 115.276 122.352C114.743 122.352 114.252 122.475 113.804 122.72C113.367 122.955 113.015 123.317 112.748 123.808C112.481 124.299 112.348 124.896 112.348 125.6C112.348 126.315 112.476 126.917 112.732 127.408C112.999 127.899 113.351 128.267 113.788 128.512C114.225 128.747 114.705 128.864 115.228 128.864ZM125.462 130.144C124.641 130.144 123.894 129.957 123.222 129.584C122.561 129.211 122.038 128.683 121.654 128C121.281 127.307 121.094 126.507 121.094 125.6C121.094 124.704 121.286 123.915 121.67 123.232C122.065 122.539 122.598 122.011 123.27 121.648C123.942 121.275 124.694 121.088 125.526 121.088C126.358 121.088 127.11 121.275 127.782 121.648C128.454 122.011 128.982 122.533 129.366 123.216C129.761 123.899 129.958 124.693 129.958 125.6C129.958 126.507 129.756 127.307 129.35 128C128.956 128.683 128.417 129.211 127.734 129.584C127.052 129.957 126.294 130.144 125.462 130.144ZM125.462 128.864C125.985 128.864 126.476 128.741 126.934 128.496C127.393 128.251 127.761 127.883 128.038 127.392C128.326 126.901 128.47 126.304 128.47 125.6C128.47 124.896 128.332 124.299 128.054 123.808C127.777 123.317 127.414 122.955 126.966 122.72C126.518 122.475 126.033 122.352 125.51 122.352C124.977 122.352 124.486 122.475 124.038 122.72C123.601 122.955 123.249 123.317 122.982 123.808C122.716 124.299 122.582 124.896 122.582 125.6C122.582 126.315 122.71 126.917 122.966 127.408C123.233 127.899 123.585 128.267 124.022 128.512C124.46 128.747 124.94 128.864 125.462 128.864ZM136.769 130L133.329 126.128V130H131.873V118.16H133.329V125.12L136.705 121.232H138.737L134.609 125.6L138.753 130H136.769Z" fill="#AFAFAF"/>
</svg>
