<svg width="96" height="136" viewBox="0 0 96 136" fill="none" xmlns="http://www.w3.org/2000/svg">
<path d="M56.185 12.254C52.2301 7.67282 48.8244 3.02004 48.1287 2.05369C48.0554 1.9821 47.9455 1.9821 47.8723 2.05369C47.1765 3.02004 43.7709 7.67282 39.8159 12.254C5.86934 54.5227 45.1625 83.0481 45.1625 83.0481L45.492 83.2628C45.7849 87.6649 46.5174 94 46.5174 94H47.9822H49.447C49.447 94 50.1794 87.7007 50.4723 83.2628L50.8019 83.0123C50.8385 83.0481 90.1318 54.5227 56.185 12.254ZM47.9822 82.4037C47.9822 82.4037 46.2244 80.9364 45.7484 80.185V80.113L47.8723 34.0864C47.8723 33.9432 48.092 33.9432 48.092 34.0864L50.216 80.113V80.185C49.7399 80.9364 47.9822 82.4037 47.9822 82.4037Z" fill="#CBCBCB"/>
<path d="M22.044 118.928V130H20.588V121.744L16.908 130H15.884L12.188 121.728V130H10.732V118.928H12.3L16.396 128.08L20.492 118.928H22.044ZM28.3373 130.144C27.5159 130.144 26.7693 129.957 26.0973 129.584C25.4359 129.211 24.9133 128.683 24.5293 128C24.1559 127.307 23.9693 126.507 23.9693 125.6C23.9693 124.704 24.1613 123.915 24.5453 123.232C24.9399 122.539 25.4733 122.011 26.1453 121.648C26.8173 121.275 27.5693 121.088 28.4013 121.088C29.2333 121.088 29.9853 121.275 30.6573 121.648C31.3293 122.011 31.8573 122.533 32.2413 123.216C32.6359 123.899 32.8333 124.693 32.8333 125.6C32.8333 126.507 32.6306 127.307 32.2253 128C31.8306 128.683 31.2919 129.211 30.6093 129.584C29.9266 129.957 29.1693 130.144 28.3373 130.144ZM28.3373 128.864C28.8599 128.864 29.3506 128.741 29.8093 128.496C30.2679 128.251 30.6359 127.883 30.9133 127.392C31.2013 126.901 31.3453 126.304 31.3453 125.6C31.3453 124.896 31.2066 124.299 30.9293 123.808C30.6519 123.317 30.2893 122.955 29.8413 122.72C29.3933 122.475 28.9079 122.352 28.3853 122.352C27.8519 122.352 27.3613 122.475 26.9133 122.72C26.4759 122.955 26.1239 123.317 25.8573 123.808C25.5906 124.299 25.4573 124.896 25.4573 125.6C25.4573 126.315 25.5853 126.917 25.8413 127.408C26.1079 127.899 26.4599 128.267 26.8973 128.512C27.3346 128.747 27.8146 128.864 28.3373 128.864ZM39.0196 121.072C40.0863 121.072 40.9503 121.397 41.6116 122.048C42.273 122.688 42.6036 123.616 42.6036 124.832V130H41.1636V125.04C41.1636 124.165 40.945 123.499 40.5076 123.04C40.0703 122.571 39.473 122.336 38.7156 122.336C37.9476 122.336 37.3343 122.576 36.8756 123.056C36.4276 123.536 36.2036 124.235 36.2036 125.152V130H34.7476V121.232H36.2036V122.48C36.4916 122.032 36.881 121.685 37.3716 121.44C37.873 121.195 38.4223 121.072 39.0196 121.072ZM48.598 121.088C49.3553 121.088 50.0167 121.253 50.582 121.584C51.158 121.915 51.5847 122.331 51.862 122.832V121.232H53.334V130.192C53.334 130.992 53.1633 131.701 52.822 132.32C52.4807 132.949 51.99 133.44 51.35 133.792C50.7207 134.144 49.9847 134.32 49.142 134.32C47.99 134.32 47.03 134.048 46.262 133.504C45.494 132.96 45.0407 132.219 44.902 131.28H46.342C46.502 131.813 46.8327 132.24 47.334 132.56C47.8353 132.891 48.438 133.056 49.142 133.056C49.942 133.056 50.5927 132.805 51.094 132.304C51.606 131.803 51.862 131.099 51.862 130.192V128.352C51.574 128.864 51.1473 129.291 50.582 129.632C50.0167 129.973 49.3553 130.144 48.598 130.144C47.8193 130.144 47.11 129.952 46.47 129.568C45.8407 129.184 45.3447 128.645 44.982 127.952C44.6193 127.259 44.438 126.469 44.438 125.584C44.438 124.688 44.6193 123.904 44.982 123.232C45.3447 122.549 45.8407 122.021 46.47 121.648C47.11 121.275 47.8193 121.088 48.598 121.088ZM51.862 125.6C51.862 124.939 51.7287 124.363 51.462 123.872C51.1953 123.381 50.8327 123.008 50.374 122.752C49.926 122.485 49.43 122.352 48.886 122.352C48.342 122.352 47.846 122.48 47.398 122.736C46.95 122.992 46.5927 123.365 46.326 123.856C46.0593 124.347 45.926 124.923 45.926 125.584C45.926 126.256 46.0593 126.843 46.326 127.344C46.5927 127.835 46.95 128.213 47.398 128.48C47.846 128.736 48.342 128.864 48.886 128.864C49.43 128.864 49.926 128.736 50.374 128.48C50.8327 128.213 51.1953 127.835 51.462 127.344C51.7287 126.843 51.862 126.261 51.862 125.6ZM59.6185 130.144C58.7972 130.144 58.0505 129.957 57.3785 129.584C56.7172 129.211 56.1945 128.683 55.8105 128C55.4372 127.307 55.2505 126.507 55.2505 125.6C55.2505 124.704 55.4425 123.915 55.8265 123.232C56.2212 122.539 56.7545 122.011 57.4265 121.648C58.0985 121.275 58.8505 121.088 59.6825 121.088C60.5145 121.088 61.2665 121.275 61.9385 121.648C62.6105 122.011 63.1385 122.533 63.5225 123.216C63.9172 123.899 64.1145 124.693 64.1145 125.6C64.1145 126.507 63.9118 127.307 63.5065 128C63.1118 128.683 62.5732 129.211 61.8905 129.584C61.2078 129.957 60.4505 130.144 59.6185 130.144ZM59.6185 128.864C60.1412 128.864 60.6318 128.741 61.0905 128.496C61.5492 128.251 61.9172 127.883 62.1945 127.392C62.4825 126.901 62.6265 126.304 62.6265 125.6C62.6265 124.896 62.4878 124.299 62.2105 123.808C61.9332 123.317 61.5705 122.955 61.1225 122.72C60.6745 122.475 60.1892 122.352 59.6665 122.352C59.1332 122.352 58.6425 122.475 58.1945 122.72C57.7572 122.955 57.4052 123.317 57.1385 123.808C56.8718 124.299 56.7385 124.896 56.7385 125.6C56.7385 126.315 56.8665 126.917 57.1225 127.408C57.3892 127.899 57.7412 128.267 58.1785 128.512C58.6158 128.747 59.0958 128.864 59.6185 128.864ZM69.5009 118.848C70.7169 118.848 71.7675 119.077 72.6529 119.536C73.5489 119.984 74.2315 120.629 74.7009 121.472C75.1809 122.315 75.4209 123.307 75.4209 124.448C75.4209 125.589 75.1809 126.581 74.7009 127.424C74.2315 128.256 73.5489 128.896 72.6529 129.344C71.7675 129.781 70.7169 130 69.5009 130H66.0289V118.848H69.5009ZM69.5009 128.8C70.9409 128.8 72.0395 128.421 72.7969 127.664C73.5542 126.896 73.9329 125.824 73.9329 124.448C73.9329 123.061 73.5489 121.979 72.7809 121.2C72.0235 120.421 70.9302 120.032 69.5009 120.032H67.4849V128.8H69.5009ZM82.9254 124.256C83.3307 124.32 83.6987 124.485 84.0294 124.752C84.3707 125.019 84.6374 125.349 84.8294 125.744C85.032 126.139 85.1334 126.56 85.1334 127.008C85.1334 127.573 84.9894 128.085 84.7014 128.544C84.4134 128.992 83.992 129.349 83.4374 129.616C82.8934 129.872 82.248 130 81.5014 130H77.3414V118.848H81.3414C82.0987 118.848 82.744 118.976 83.2774 119.232C83.8107 119.477 84.2107 119.813 84.4774 120.24C84.744 120.667 84.8774 121.147 84.8774 121.68C84.8774 122.341 84.696 122.891 84.3334 123.328C83.9814 123.755 83.512 124.064 82.9254 124.256ZM78.7974 123.664H81.2454C81.928 123.664 82.456 123.504 82.8294 123.184C83.2027 122.864 83.3894 122.421 83.3894 121.856C83.3894 121.291 83.2027 120.848 82.8294 120.528C82.456 120.208 81.9174 120.048 81.2134 120.048H78.7974V123.664ZM81.3734 128.8C82.0987 128.8 82.664 128.629 83.0694 128.288C83.4747 127.947 83.6774 127.472 83.6774 126.864C83.6774 126.245 83.464 125.76 83.0374 125.408C82.6107 125.045 82.04 124.864 81.3254 124.864H78.7974V128.8H81.3734Z" fill="#AFAFAF"/>
</svg>
