<svg width="48" height="48" viewBox="0 0 48 48" fill="none" xmlns="http://www.w3.org/2000/svg">
<path d="M44.259 36.4505C41.7038 36.3871 39.7233 36.6412 38.0624 37.3398C37.5832 37.5302 36.8165 37.5304 36.7526 38.1338C37.0082 38.3879 37.0401 38.8008 37.2637 39.15C37.6474 39.785 38.3177 40.6426 38.9247 41.0874C39.5954 41.5954 40.2664 42.1034 40.9688 42.5481C42.2147 43.3103 43.6203 43.7548 44.834 44.5171C45.537 44.9614 46.2393 45.5334 46.9421 46.0097C47.2935 46.2634 47.5169 46.6766 47.9643 46.8353V46.7402C47.7405 46.4541 47.6766 46.0414 47.4532 45.7238C47.1341 45.4062 46.8143 45.1203 46.4948 44.8027C45.5686 43.5644 44.4187 42.4845 43.1731 41.5954C42.151 40.8967 39.9148 39.944 39.4997 38.7689C39.4997 38.7689 39.4676 38.7373 39.4358 38.7055C40.1384 38.642 40.9688 38.3879 41.6399 38.1973C42.7258 37.9113 43.716 37.975 44.834 37.6892C45.345 37.5621 45.8561 37.4033 46.367 37.2445V36.9588C45.7924 36.3871 45.3771 35.6251 44.7701 35.0851C43.1411 33.6874 41.3522 32.3221 39.4997 31.1789C38.5094 30.5436 37.2316 30.1308 36.1776 29.591C35.7946 29.4002 35.1555 29.3051 34.9321 28.9875C34.3569 28.289 34.0374 27.3681 33.6223 26.5423C32.6963 24.7954 31.8016 22.8584 31.003 21.0166C30.4284 19.7779 30.077 18.5392 29.3742 17.3962C26.0842 11.9974 22.5067 8.72633 17.0128 5.51864C15.8308 4.85184 14.4254 4.56599 12.9242 4.2168C12.1259 4.18486 11.3271 4.12152 10.5286 4.08957C10.0175 3.86725 9.50638 3.26397 9.05915 2.97812C7.23882 1.83472 2.54304 -0.6421 1.20152 2.62893C0.338995 4.69303 2.47933 6.72538 3.21371 7.77368C3.75714 8.504 4.45957 9.32961 4.84292 10.1554C5.06653 10.695 5.13024 11.267 5.35386 11.8386C5.86517 13.2355 6.34398 14.792 7.01501 16.0942C7.36641 16.761 7.74957 17.4595 8.19681 18.063C8.45237 18.4122 8.89942 18.5712 8.99544 19.1427C8.54839 19.7779 8.51626 20.7307 8.26051 21.5246C7.11067 25.1132 7.55809 29.5592 9.18693 32.195C9.69787 32.9887 10.9118 34.7359 12.5408 34.0688C13.9784 33.4972 13.6589 31.687 14.0738 30.0992C14.17 29.7177 14.1061 29.464 14.2976 29.2099V29.2736C14.7449 30.1625 15.1919 31.0202 15.6072 31.9094C16.5975 33.4653 18.3222 35.0851 19.7595 36.165C20.5264 36.7363 21.1332 37.7209 22.0915 38.0703V37.9748H22.0275C21.8358 37.689 21.5483 37.5621 21.2929 37.3396C20.7181 36.7683 20.079 36.0695 19.6319 35.4343C18.2906 33.6557 17.1084 31.6869 16.0544 29.6543C15.5435 28.6701 15.0961 27.5902 14.681 26.6058C14.4891 26.2243 14.4891 25.653 14.1698 25.4626C13.6907 26.1612 12.9881 26.7646 12.6367 27.622C12.0301 28.9875 11.966 30.6707 11.7424 32.4172C11.6146 32.4493 11.6783 32.4172 11.6144 32.4811C10.5925 32.2266 10.2411 31.1789 9.8576 30.2896C8.89924 28.0349 8.73951 24.4145 9.57027 21.8104C9.79389 21.1435 10.7522 19.0476 10.3689 18.4124C10.1772 17.8089 9.53814 17.4595 9.18693 16.9833C8.77182 16.3798 8.32441 15.6179 8.03708 14.9508C7.27039 13.1723 6.88705 11.2033 6.05665 9.42489C5.67331 8.5991 5.00283 7.74192 4.45957 6.97965C3.8528 6.12228 3.18194 5.51864 2.70276 4.50247C2.54322 4.15328 2.31942 3.58158 2.57498 3.20045C2.63887 2.94636 2.76647 2.85126 3.02222 2.78773C3.43751 2.43818 4.61948 2.88283 5.03441 3.0734C6.21638 3.54945 7.2065 3.99447 8.19681 4.66127C8.64386 4.97888 9.12304 5.58235 9.69787 5.74115H10.3687C11.391 5.9633 12.5406 5.80467 13.499 6.09034C15.1921 6.6301 16.7251 7.42412 18.0988 8.28167C22.2832 10.9175 25.7326 14.6649 28.0646 19.1427C28.4479 19.8728 28.6075 20.5402 28.9589 21.3021C29.6299 22.8584 30.4603 24.4462 31.1308 25.9706C31.8016 27.463 32.4404 28.9875 33.3987 30.2262C33.8779 30.8928 35.7943 31.2424 36.6568 31.5918C37.2957 31.8774 38.286 32.1317 38.8608 32.4809C39.9468 33.1475 41.0327 33.9101 42.055 34.6403C42.5661 35.0214 44.163 35.8154 44.259 36.4505V36.4505Z" fill="#AFAFAF"/>
<path d="M11.6776 8.85303C11.1347 8.85303 10.7515 8.91692 10.3682 9.01202V9.07554H10.4321C10.6878 9.58372 11.1347 9.93309 11.4539 10.3776C11.7097 10.8856 11.9331 11.3939 12.1889 11.9021C12.2206 11.8701 12.2526 11.8386 12.2526 11.8386C12.7 11.5208 12.9234 11.0128 12.9234 10.2505C12.7318 10.0284 12.6998 9.80604 12.5401 9.58372C12.3486 9.26592 11.9331 9.1073 11.6776 8.85303V8.85303Z" fill="#AFAFAF"/>
</svg>
