<svg width="96" height="136" viewBox="0 0 96 136" fill="none" xmlns="http://www.w3.org/2000/svg">
<path d="M88.518 72.901C83.4075 72.7743 79.4467 73.2825 76.1247 74.6796C75.1664 75.0603 73.633 75.0607 73.5052 76.2676C74.0163 76.7758 74.0802 77.6016 74.5275 78.3C75.2949 79.5701 76.6355 81.2852 77.8494 82.1748C79.1908 83.1908 80.5328 84.2068 81.9377 85.0961C84.4294 86.6207 87.2406 87.5096 89.6681 89.0341C91.074 89.9227 92.4785 91.0668 93.8841 92.0193C94.5869 92.5268 95.0338 93.3533 95.9286 93.6705V93.4803C95.481 92.9083 95.3532 92.0828 94.9064 91.4476C94.2682 90.8124 93.6286 90.2407 92.9897 89.6055C91.1372 87.1288 88.8375 84.9691 86.3461 83.1908C84.302 81.7933 79.8297 79.888 78.9994 77.5377C78.9994 77.5377 78.9352 77.4746 78.8717 77.411C80.2769 77.284 81.9377 76.7758 83.2797 76.3947C85.4517 75.8226 87.4319 75.95 89.6681 75.3783C90.69 75.1242 91.7122 74.8066 92.7341 74.489V73.9177C91.5848 72.7743 90.7542 71.2501 89.5403 70.1702C86.2822 67.3749 82.7044 64.6442 78.9994 62.3577C77.0188 61.0873 74.4632 60.2615 72.3552 59.182C71.5892 58.8005 70.3111 58.6103 69.8642 57.9751C68.7138 56.5779 68.0749 54.7362 67.2447 53.0846C65.3926 49.5909 63.6033 45.7167 62.006 42.0332C60.8567 39.5558 60.1539 37.0785 58.7483 34.7924C52.1683 23.9947 45.0133 17.4527 34.0256 11.0373C31.6616 9.70368 28.8508 9.13198 25.8483 8.4336C24.2518 8.36971 22.6542 8.24303 21.0573 8.17915C20.035 7.73449 19.0128 6.52794 18.1183 5.95624C14.4776 3.66944 5.08608 -1.2842 2.40304 5.25786C0.677991 9.38607 4.95866 13.4508 6.42741 15.5474C7.51429 17.008 8.91915 18.6592 9.68583 20.3108C10.1331 21.3899 10.2605 22.5341 10.7077 23.6771C11.7303 26.471 12.688 29.5839 14.03 32.1883C14.7328 33.5219 15.4991 34.9191 16.3936 36.126C16.9047 36.8244 17.7988 37.1423 17.9909 38.2854C17.0968 39.5558 17.0325 41.4615 16.521 43.0492C14.2213 50.2265 15.1162 59.1185 18.3739 64.3901C19.3957 65.9774 21.8236 69.4719 25.0816 68.1375C27.9567 66.9945 27.3178 63.3741 28.1477 60.1984C28.3401 59.4354 28.2123 58.9279 28.5953 58.4197V58.5471C29.4897 60.325 30.3838 62.0405 31.2144 63.8187C33.195 66.9306 36.6444 70.1702 39.5191 72.33C41.0528 73.4727 42.2664 75.4418 44.1831 76.1406V75.9497H44.0549C43.6716 75.378 43.0966 75.1242 42.5858 74.6792C41.4362 73.5365 40.158 72.1391 39.2639 70.8686C36.5812 67.3114 34.2169 63.3737 32.1089 59.3087C31.087 57.3402 30.1922 55.1805 29.3619 53.2116C28.9782 52.4486 28.9782 51.306 28.3397 50.9252C27.3813 52.3223 25.9761 53.5292 25.2733 55.244C24.0601 57.9751 23.932 61.3414 23.4847 64.8344C23.2292 64.8986 23.3566 64.8344 23.2288 64.9622C21.185 64.4532 20.4822 62.3577 19.7152 60.5791C17.7985 56.0698 17.479 48.829 19.1405 43.6209C19.5878 42.2869 21.5045 38.0952 20.7378 36.8247C20.3545 35.6178 19.0763 34.9191 18.3739 33.9666C17.5436 32.7597 16.6488 31.2359 16.0742 29.9015C14.5408 26.3447 13.7741 22.4067 12.1133 18.8498C11.3466 17.1982 10.0057 15.4838 8.91915 13.9593C7.70559 12.2446 6.36389 11.0373 5.40553 9.00494C5.08644 8.30656 4.63884 7.16316 5.14997 6.40089C5.27775 5.89271 5.53294 5.70251 6.04444 5.57547C6.87501 4.87636 9.23897 5.76567 10.0688 6.1468C12.4328 7.09891 14.413 7.98895 16.3936 9.32255C17.2877 9.95777 18.2461 11.1647 19.3957 11.4823H20.7374C22.7819 11.9266 25.0813 11.6093 26.998 12.1807C30.3842 13.2602 33.4502 14.8482 36.1975 16.5633C44.5664 21.835 51.4652 29.3298 56.1292 38.2854C56.8959 39.7457 57.2149 41.0804 57.9177 42.6042C59.2598 45.7167 60.9206 48.8925 62.2616 51.9412C63.6033 54.926 64.8807 57.9751 66.7974 60.4524C67.7558 61.7857 71.5885 62.4848 73.3135 63.1835C74.5914 63.7549 76.572 64.2634 77.7216 64.9618C79.8935 66.295 82.0655 67.8203 84.11 69.2806C85.1322 70.0428 88.326 71.6309 88.518 72.901Z" fill="#AFAFAF"/>
<path d="M23.3551 17.7061C22.2693 17.7061 21.503 17.8338 20.7363 18.024V18.1511H20.8641C21.3756 19.1674 22.2693 19.8662 22.9079 20.7551C23.4194 21.7711 23.8662 22.7878 24.3777 23.8042C24.4413 23.7403 24.5051 23.6771 24.5051 23.6771C25.4 23.0416 25.8468 22.0256 25.8468 20.501C25.4635 20.0567 25.3996 19.6121 25.0802 19.1674C24.6972 18.5318 23.8662 18.2146 23.3551 17.7061Z" fill="#AFAFAF"/>
<path d="M34.6924 118.928V130H33.2364V121.744L29.5564 130H28.5324L24.8364 121.728V130H23.3804V118.928H24.9484L29.0444 128.08L33.1404 118.928H34.6924ZM44.7137 121.232L39.4337 134.128H37.9297L39.6577 129.904L36.1217 121.232H37.7377L40.4897 128.336L43.2097 121.232H44.7137ZM49.7133 130.112C48.9773 130.112 48.316 129.984 47.7293 129.728C47.1533 129.461 46.7 129.099 46.3693 128.64C46.0386 128.171 45.868 127.632 45.8573 127.024H47.4093C47.4626 127.547 47.676 127.989 48.0493 128.352C48.4333 128.704 48.988 128.88 49.7133 128.88C50.4066 128.88 50.9506 128.709 51.3453 128.368C51.7506 128.016 51.9533 127.568 51.9533 127.024C51.9533 126.597 51.836 126.251 51.6013 125.984C51.3666 125.717 51.0733 125.515 50.7213 125.376C50.3693 125.237 49.8946 125.088 49.2973 124.928C48.5613 124.736 47.9693 124.544 47.5213 124.352C47.084 124.16 46.7053 123.861 46.3853 123.456C46.076 123.04 45.9213 122.485 45.9213 121.792C45.9213 121.184 46.076 120.645 46.3853 120.176C46.6946 119.707 47.1266 119.344 47.6813 119.088C48.2466 118.832 48.892 118.704 49.6173 118.704C50.6626 118.704 51.516 118.965 52.1773 119.488C52.8493 120.011 53.228 120.704 53.3133 121.568H51.7133C51.66 121.141 51.436 120.768 51.0413 120.448C50.6466 120.117 50.124 119.952 49.4733 119.952C48.8653 119.952 48.3693 120.112 47.9853 120.432C47.6013 120.741 47.4093 121.179 47.4093 121.744C47.4093 122.149 47.5213 122.48 47.7453 122.736C47.98 122.992 48.2626 123.189 48.5933 123.328C48.9346 123.456 49.4093 123.605 50.0173 123.776C50.7533 123.979 51.3453 124.181 51.7933 124.384C52.2413 124.576 52.6253 124.88 52.9453 125.296C53.2653 125.701 53.4253 126.256 53.4253 126.96C53.4253 127.504 53.2813 128.016 52.9933 128.496C52.7053 128.976 52.2786 129.365 51.7133 129.664C51.148 129.963 50.4813 130.112 49.7133 130.112ZM64.5119 132.112L62.2879 129.888C61.7439 130.037 61.1893 130.112 60.6239 130.112C59.5893 130.112 58.6453 129.872 57.7919 129.392C56.9386 128.901 56.2613 128.224 55.7599 127.36C55.2693 126.485 55.0239 125.504 55.0239 124.416C55.0239 123.328 55.2693 122.352 55.7599 121.488C56.2613 120.613 56.9386 119.936 57.7919 119.456C58.6453 118.965 59.5893 118.72 60.6239 118.72C61.6693 118.72 62.6186 118.965 63.4719 119.456C64.3253 119.936 64.9973 120.608 65.4879 121.472C65.9786 122.336 66.2239 123.317 66.2239 124.416C66.2239 125.483 65.9893 126.443 65.5199 127.296C65.0506 128.149 64.4053 128.821 63.5839 129.312L66.3999 132.112H64.5119ZM56.5119 124.416C56.5119 125.301 56.6879 126.08 57.0399 126.752C57.4026 127.424 57.8933 127.941 58.5119 128.304C59.1413 128.667 59.8453 128.848 60.6239 128.848C61.4026 128.848 62.1013 128.667 62.7199 128.304C63.3493 127.941 63.8399 127.424 64.1919 126.752C64.5546 126.08 64.7359 125.301 64.7359 124.416C64.7359 123.52 64.5546 122.741 64.1919 122.08C63.8399 121.408 63.3546 120.891 62.7359 120.528C62.1173 120.165 61.4133 119.984 60.6239 119.984C59.8346 119.984 59.1306 120.165 58.5119 120.528C57.8933 120.891 57.4026 121.408 57.0399 122.08C56.6879 122.741 56.5119 123.52 56.5119 124.416ZM69.6333 128.816H73.5373V130H68.1773V118.848H69.6333V128.816Z" fill="#AFAFAF"/>
</svg>
