<svg width="48" height="48" viewBox="0 0 48 48" fill="none" xmlns="http://www.w3.org/2000/svg">
<path fill-rule="evenodd" clip-rule="evenodd" d="M28.1334 1C27.8002 1 27.4908 1.07156 27.2051 1.16697C27.8121 1.57246 28.1453 2.10915 28.3119 2.71739C28.3238 2.80088 28.3476 2.86051 28.3595 2.94399C28.3715 3.01555 28.3833 3.08711 28.3833 3.15867C28.4309 4.20819 28.1096 4.33937 27.8835 4.95954C27.5384 5.75861 27.6336 6.61731 28.0501 7.30904C28.0858 7.39252 28.1334 7.48793 28.1929 7.57142C27.7407 4.55405 30.2517 4.10085 30.7158 3.15867C30.7515 2.33575 30.0732 1.78714 29.5377 1.4055C29.0259 1.09541 28.5618 1 28.1334 1V1ZM31.9178 1.6798C31.8702 1.95411 31.9059 1.88255 31.894 2.02567C31.8821 2.12107 31.8821 2.24034 31.8702 2.33575C31.8465 2.43116 31.8226 2.52657 31.7869 2.62199C31.7631 2.71739 31.7274 2.81281 31.6917 2.90821C31.6441 3.00363 31.6084 3.08711 31.5608 3.18252C31.5251 3.23025 31.5013 3.27793 31.4656 3.32564C31.4418 3.36142 31.418 3.3972 31.3942 3.43297C31.3347 3.51646 31.2752 3.59994 31.2157 3.6715C31.1443 3.74306 31.0848 3.82654 31.0015 3.88618V3.89812C30.9301 3.95775 30.8587 4.02931 30.7754 4.08894C30.5255 4.27976 30.2398 4.42288 29.978 4.60177C29.8947 4.6614 29.8114 4.70911 29.74 4.78067C29.6567 4.8403 29.5853 4.89993 29.5139 4.97149C29.4306 5.04305 29.3711 5.11461 29.2997 5.19809C29.2402 5.26965 29.1688 5.35313 29.1212 5.43662C29.0617 5.5201 29.0022 5.60359 28.9546 5.68707C28.907 5.78248 28.8713 5.86596 28.8237 5.96137C28.788 6.05678 28.7523 6.14027 28.7285 6.23568C28.6928 6.34302 28.669 6.43843 28.6452 6.53384C28.6332 6.58157 28.6332 6.64118 28.6214 6.68888C28.6094 6.73661 28.6094 6.78429 28.5976 6.832C28.5976 6.92741 28.5857 7.03475 28.5857 7.13015C28.5857 7.20171 28.5857 7.27327 28.5976 7.34483C28.5976 7.44024 28.6095 7.53565 28.6333 7.64299C28.6452 7.7384 28.669 7.83381 28.6928 7.92922C28.7285 8.02463 28.7523 8.12004 28.788 8.21545C28.8118 8.27509 28.8475 8.33472 28.8713 8.38242L26.1342 7.32098C25.67 7.18979 25.2178 7.07053 24.7537 6.96319C24.5038 6.90356 24.2539 6.84392 24.0039 6.78429C23.2899 6.64118 22.564 6.53384 21.838 6.46229C21.8142 6.46229 21.8023 6.45034 21.7785 6.45034C21.0645 6.37878 20.3623 6.34301 19.6483 6.34301C19.1247 6.34301 18.601 6.36684 18.0893 6.40264C17.3634 6.45036 16.6374 6.54575 15.9115 6.66501C15.733 6.68885 15.5545 6.72465 15.376 6.76043C15.007 6.83198 14.65 6.91547 14.3049 6.99895C14.1264 7.04668 13.9479 7.09437 13.7694 7.14207C13.5909 7.21362 13.4243 7.29711 13.2576 7.36867C13.1267 7.4283 12.9958 7.48793 12.8649 7.54757C12.8411 7.55951 12.8173 7.55951 12.8054 7.5714C12.6864 7.63103 12.5793 7.67873 12.4722 7.73837C12.4365 7.75031 12.4127 7.7622 12.3889 7.77415C12.258 7.83378 12.1271 7.90534 12.02 7.96497C11.9367 8.00075 11.8534 8.04845 11.782 8.08423C11.7463 8.10807 11.6987 8.13196 11.6749 8.14387C11.5678 8.20349 11.4607 8.26312 11.3654 8.32276C11.2583 8.38239 11.1631 8.44202 11.0798 8.50165C10.9965 8.56129 10.9132 8.60899 10.8418 8.66862C10.8299 8.68056 10.818 8.68056 10.8061 8.69245C10.7347 8.74018 10.6514 8.79979 10.58 8.85943C10.58 8.85943 10.5681 8.87137 10.5562 8.88326C10.4967 8.93099 10.4372 8.97867 10.3777 9.02637C10.3539 9.03832 10.3301 9.06215 10.3063 9.0741C10.2468 9.12182 10.1873 9.18144 10.1278 9.22914C10.1159 9.25298 10.0921 9.26492 10.0802 9.27687C10.0088 9.34843 9.93737 9.40805 9.86597 9.47961C9.85405 9.47961 9.85405 9.49156 9.84218 9.50345C9.77078 9.56308 9.69938 9.63464 9.62797 9.7062C9.61605 9.71814 9.61605 9.73003 9.60419 9.73003C9.54469 9.78966 9.48519 9.8493 9.42568 9.92085C9.4019 9.94468 9.36618 9.96857 9.34238 9.99241C9.28287 10.064 9.21147 10.1355 9.14007 10.2071C9.12814 10.2309 9.10436 10.2429 9.09244 10.2667C8.99724 10.3621 8.91393 10.4575 8.81873 10.5529C8.80681 10.5649 8.79495 10.5768 8.78303 10.5887C8.59261 10.7915 8.3903 10.9942 8.17609 11.1731C7.96188 11.3639 7.73577 11.5428 7.50966 11.6979C7.27164 11.8648 7.04553 12.008 6.79562 12.1511C6.5576 12.2823 6.30769 12.4015 6.04588 12.5089C5.79596 12.6162 5.53415 12.7116 5.27234 12.7951C4.7725 12.9024 4.26078 13.1052 3.82045 13.141C3.72525 13.141 3.61814 13.1648 3.52294 13.1767C3.41583 13.2006 3.32063 13.2245 3.22542 13.2483C3.13022 13.2841 3.03501 13.3199 2.93981 13.3556C2.8446 13.3914 2.7494 13.4391 2.65419 13.4868C2.57089 13.5465 2.47568 13.5942 2.39237 13.6538C2.30907 13.7134 2.22577 13.785 2.15436 13.8565C2.07106 13.9162 1.98775 13.9997 1.91635 14.0712C1.84494 14.1547 1.77354 14.2263 1.71404 14.3097C1.65454 14.4052 1.58313 14.4886 1.53553 14.5841C1.47603 14.6675 1.41652 14.7629 1.36892 14.8584C1.3213 14.9657 1.27371 15.0611 1.23801 15.1684C1.20231 15.2639 1.16661 15.3712 1.13091 15.4785C1.10712 15.5739 1.08328 15.6693 1.0714 15.7648C1.0714 15.7767 1.05948 15.7886 1.05948 15.8005C1.0357 15.9079 1.0357 16.051 1.02378 16.1226C1.01186 16.206 1 16.2776 1 16.3611C1 16.4088 1 16.4684 1.01192 16.5161C1.02384 16.5996 1.0357 16.6712 1.05954 16.7427C1.08332 16.8143 1.10716 16.8858 1.14284 16.9574V16.9693C1.17854 17.0409 1.22615 17.1125 1.27375 17.184C1.32137 17.2556 1.36896 17.3271 1.42846 17.3987C1.48796 17.4583 1.55937 17.5299 1.63077 17.5895C1.70217 17.6611 1.77358 17.7207 1.85688 17.7803C2.1425 18.0308 2.2139 18.1143 2.58282 18.3051C2.64232 18.3409 2.70183 18.3647 2.77324 18.4005C2.78516 18.4005 2.79702 18.4124 2.80894 18.4124C2.80894 18.4363 2.80894 18.4482 2.82086 18.4721C2.83278 18.5675 2.85656 18.6629 2.88036 18.7583C2.90414 18.8656 2.93987 18.9611 2.97557 19.0445C3.01127 19.1161 3.03507 19.1877 3.07077 19.2592C3.08269 19.2831 3.09456 19.3069 3.10648 19.3189C3.1541 19.4143 3.20168 19.4978 3.24928 19.5812C3.30879 19.6647 3.36829 19.7482 3.42779 19.8317C3.48729 19.9032 3.5587 19.9867 3.6301 20.0583C3.70151 20.1298 3.77291 20.1895 3.85622 20.261C3.85622 20.261 3.86814 20.273 3.88 20.273C3.95141 20.3326 4.02281 20.3923 4.09421 20.44C4.17752 20.4996 4.26082 20.5473 4.35603 20.595C4.43933 20.6427 4.53454 20.6904 4.62974 20.7262C4.70115 20.762 4.78445 20.7858 4.86775 20.8097C4.87968 20.8216 4.89154 20.8216 4.91538 20.8335C4.963 20.8455 5.02248 20.8573 5.07008 20.8693C5.03438 21.5133 5.02246 22.1215 5.1177 22.3362C5.2248 22.5748 5.74844 21.8472 6.27207 21.0124C6.20066 21.8353 6.15306 22.8014 6.27207 23.0876C6.40297 23.3857 7.11701 22.4555 7.73585 21.4298C16.1734 19.4739 23.8731 25.3178 24.6824 33.5708C24.5277 32.2828 22.9449 31.5672 22.2189 31.7461C21.8619 32.6287 21.255 33.7617 20.2791 34.4653C20.3624 33.6782 20.3268 32.8672 20.1601 32.08C19.8983 33.1773 19.3866 34.2029 18.6844 35.0855C17.5539 35.169 16.4233 34.6204 15.8283 33.7974C15.7807 33.7617 15.7688 33.6901 15.7331 33.6424C15.6974 33.5589 15.6617 33.4754 15.6379 33.3919C15.6022 33.3085 15.5784 33.225 15.5665 33.1415C15.5545 33.058 15.5546 32.9745 15.5546 32.8791C15.5546 32.8195 15.5546 32.7598 15.5546 32.7002C15.5665 32.6167 15.5903 32.5332 15.6141 32.4498C15.6378 32.3663 15.6617 32.2828 15.6974 32.1993C15.745 32.1158 15.7807 32.0323 15.8402 31.9489C16.0425 31.3764 16.0425 30.9113 15.6736 30.637C15.6022 30.5892 15.5308 30.5535 15.4474 30.5177C15.3998 30.5058 15.3403 30.4819 15.2927 30.47C15.257 30.458 15.2332 30.4461 15.1975 30.4342C15.1142 30.4104 15.0309 30.3865 14.9476 30.3746C14.8643 30.3507 14.781 30.3388 14.6977 30.3388C14.6144 30.3268 14.5192 30.3149 14.4359 30.3149C14.3764 30.3149 14.3169 30.3269 14.2574 30.3269C14.1622 30.3269 14.0789 30.3388 13.9956 30.3627C13.9123 30.3746 13.829 30.3865 13.7457 30.4104C13.6623 30.4342 13.579 30.4581 13.4957 30.4939C13.4124 30.5297 13.341 30.5654 13.2577 30.6012C13.1863 30.637 13.1149 30.6847 13.0316 30.7205C10.2588 32.5333 11.913 36.7791 13.8052 38.0075C13.0911 38.1387 12.3652 38.2937 12.1629 38.4487C12.1509 38.4607 12.1391 38.4726 12.1391 38.4726C12.6508 38.7827 13.1863 39.045 13.7457 39.2716C14.5073 39.5221 15.3166 39.7487 15.6736 39.8441V39.8561C16.6613 40.0588 17.661 40.1304 18.6725 40.0707C23.9445 39.701 28.2645 35.6818 29.0499 30.3865C29.0737 30.4939 29.0975 30.5893 29.1213 30.6966C29.157 30.9113 29.2046 31.1379 29.2284 31.3645V31.3765C29.2522 31.4838 29.2641 31.5911 29.276 31.6865V31.7343C29.288 31.8416 29.2998 31.9489 29.2998 32.0443C29.3117 32.1755 29.3236 32.3067 29.3236 32.4379V32.6287C29.3236 32.6884 29.3355 32.7599 29.3355 32.8196C29.3355 32.8911 29.3236 32.9627 29.3236 33.0342V33.2012C29.3236 33.2847 29.3117 33.3562 29.3117 33.4397C29.3117 33.4874 29.3117 33.5351 29.2998 33.5948C29.2998 33.6783 29.2878 33.7617 29.2878 33.8572C29.2759 33.8929 29.2759 33.9287 29.2759 33.9645C29.264 34.0599 29.2521 34.1434 29.2402 34.2388C29.2402 34.2746 29.2402 34.3104 29.2283 34.3461C29.2164 34.4654 29.1926 34.5727 29.1807 34.692V34.704V34.7159C29.1569 34.8232 29.133 34.9425 29.1093 35.0498V35.0856C29.0855 35.1929 29.0616 35.3003 29.0379 35.4076C29.0379 35.4196 29.0259 35.4434 29.0259 35.4553C29.0022 35.5627 28.9783 35.67 28.9426 35.7774V35.8131C28.9069 35.9324 28.8712 36.0397 28.8474 36.1471C28.8355 36.159 28.8355 36.1709 28.8355 36.1709C28.7998 36.2902 28.7641 36.4094 28.7284 36.5287C28.6808 36.648 28.6451 36.7553 28.5975 36.8746C28.5499 36.9938 28.5142 37.1131 28.4666 37.2204C28.419 37.3397 28.3714 37.447 28.3238 37.5663H28.3119C28.2642 37.6736 28.2167 37.7929 28.1571 37.9002C28.1452 37.936 28.1334 37.9599 28.1214 37.9837C28.1095 37.9957 28.1095 38.0075 28.0977 38.0195C27.3241 39.5818 26.1817 40.9534 24.7536 42.0267C24.6584 42.0864 24.5632 42.1579 24.468 42.2295C24.4442 42.2533 24.4085 42.2653 24.3847 42.2891C24.3014 42.3487 24.2181 42.4084 24.1229 42.468L24.1586 42.5396H24.1705C24.3371 42.5157 24.5037 42.4919 24.6703 42.468H24.6822C24.9916 42.4203 25.301 42.3607 25.6105 42.301C25.6938 42.2891 25.789 42.2653 25.8723 42.2414C25.9318 42.2294 25.9794 42.2176 26.0389 42.2056C26.1222 42.1937 26.2055 42.1699 26.2888 42.1579C26.3602 42.1341 26.4316 42.1221 26.503 42.0983C27.6931 41.812 28.8474 41.4185 29.9542 40.9533C28.062 43.5414 25.5272 45.6285 22.5639 47C23.9325 46.9046 25.301 46.678 26.622 46.2964C31.418 44.8771 35.4523 41.6451 37.8681 37.292C37.3802 40.0469 36.2853 42.6707 34.6669 44.9606C35.8212 44.1973 36.8804 43.3148 37.8443 42.3129C40.5101 39.5222 42.2595 35.9801 42.8545 32.1756C43.2591 34.0599 43.3781 36.0039 43.1996 37.9241C51.7919 25.9142 43.9137 13.4631 40.6172 10.1834C40.6053 10.1596 40.5934 10.1476 40.5934 10.1238C40.5815 10.1357 40.5815 10.1357 40.5815 10.1476C40.5815 10.1356 40.5815 10.1356 40.5696 10.1238C40.5696 10.2669 40.5576 10.41 40.5458 10.5531C40.5101 10.8274 40.4744 11.0898 40.4268 11.3522C40.3673 11.6145 40.2959 11.8769 40.2245 12.1393C40.1411 12.3898 40.0459 12.6521 39.9388 12.9026C39.8317 13.1411 39.7127 13.3916 39.5818 13.6301C39.4509 13.8567 39.3081 14.0952 39.1534 14.3099C38.9987 14.5365 38.8321 14.7512 38.6655 14.9539C38.487 15.1686 38.2965 15.3594 38.1061 15.5502C37.9871 15.6576 37.88 15.753 37.761 15.8484C37.6658 15.9319 37.5825 16.0034 37.4873 16.0869C37.2731 16.2539 37.0589 16.4089 36.8209 16.5521C36.5948 16.6952 36.3567 16.8383 36.1187 16.9575C35.8688 17.0768 35.6189 17.1841 35.369 17.2915C35.1191 17.3869 34.8573 17.4704 34.5954 17.5419C34.3336 17.6135 34.0599 17.6731 33.7981 17.7208C33.5244 17.7686 33.2507 17.7924 32.9889 17.8162C32.7984 17.8282 32.608 17.8401 32.4176 17.8401C32.1439 17.8401 31.8702 17.8162 31.6084 17.7924C31.3347 17.7685 31.061 17.7327 30.7991 17.6731C30.5254 17.6254 30.2636 17.5538 30.0018 17.4703H29.9899C30.2517 17.4465 30.5135 17.4226 30.7753 17.3749C31.049 17.3272 31.3108 17.2676 31.5727 17.196C31.8345 17.1245 32.0963 17.041 32.3462 16.9456C32.608 16.8502 32.8579 16.7309 33.096 16.6116C33.3459 16.4924 33.572 16.3612 33.81 16.2181C34.0361 16.063 34.2622 15.908 34.4764 15.741C34.6906 15.5741 34.8929 15.3952 35.0834 15.2043C35.2857 15.0254 35.4642 14.8227 35.6427 14.6199C35.8212 14.4053 35.9878 14.1906 36.1425 13.9759C36.1663 13.9401 36.1901 13.8924 36.2139 13.8567C36.3329 13.6658 36.4519 13.475 36.559 13.2842C36.6899 13.0457 36.809 12.8071 36.9161 12.5567C37.0232 12.3062 37.1184 12.0558 37.2017 11.7934C37.285 11.5429 37.3445 11.2806 37.404 11.0182C37.4516 10.7439 37.4992 10.4815 37.523 10.2191C37.5468 9.94482 37.5706 9.67051 37.5706 9.40814C37.5706 9.21731 37.5587 9.02649 37.5468 8.83567C37.523 8.56137 37.4873 8.29899 37.4516 8.03661C37.404 7.7623 37.3445 7.49992 37.2731 7.23754C37.1898 6.98709 37.1065 6.72471 37.0113 6.47426C36.9161 6.2238 36.7971 5.97335 36.6781 5.73482C36.5472 5.4963 36.4163 5.25777 36.2735 5.03117C36.1188 4.80457 35.964 4.5899 35.7974 4.37522C35.6189 4.17247 35.4404 3.96973 35.25 3.76698C35.1548 3.67157 35.0477 3.56423 34.9406 3.46882C34.4051 3.0514 33.8457 2.65783 33.2864 2.30004C33.2031 2.25231 33.1317 2.21655 33.0484 2.18077C32.6557 1.93032 32.2867 1.79913 31.9178 1.67987L31.9178 1.6798Z" fill="#CBCBCB"/>
</svg>
