<svg width="96" height="136" viewBox="0 0 96 136" fill="none" xmlns="http://www.w3.org/2000/svg">
<path fill-rule="evenodd" clip-rule="evenodd" d="M56.2668 2C55.6004 2 54.9815 2.14312 54.4103 2.33394C55.6241 3.14493 56.2906 4.2183 56.6238 5.43479C56.6477 5.60175 56.6952 5.72102 56.719 5.88798C56.7429 6.0311 56.7666 6.17422 56.7666 6.31734C56.8619 8.41637 56.2192 8.67875 55.767 9.91909C55.0767 11.5172 55.2671 13.2346 56.1002 14.6181C56.1716 14.785 56.2668 14.9759 56.3858 15.1428C55.4813 9.1081 60.5034 8.2017 61.4317 6.31734C61.5031 4.6715 60.1464 3.57428 59.0753 2.81099C58.0519 2.19082 57.1236 2 56.2668 2ZM63.8356 3.3596C63.7404 3.90821 63.8118 3.7651 63.788 4.05133C63.7642 4.24215 63.7642 4.48068 63.7405 4.6715C63.6929 4.86232 63.6452 5.05314 63.5739 5.24397C63.5263 5.43479 63.4549 5.62561 63.3835 5.81643C63.2882 6.00726 63.2168 6.17422 63.1216 6.36504C63.0502 6.46049 63.0026 6.55586 62.9312 6.65128C62.8837 6.72283 62.836 6.79439 62.7884 6.86595C62.6694 7.03293 62.5504 7.19989 62.4314 7.343C62.2886 7.48612 62.1696 7.65308 62.003 7.77236V7.79624C61.8602 7.9155 61.7174 8.05862 61.5508 8.17788C61.0509 8.55952 60.4797 8.84575 59.9561 9.20354C59.7895 9.3228 59.6228 9.41822 59.48 9.56134C59.3134 9.6806 59.1706 9.79986 59.0278 9.94298C58.8612 10.0861 58.7422 10.2292 58.5994 10.3962C58.4804 10.5393 58.3376 10.7063 58.2424 10.8732C58.1234 11.0402 58.0044 11.2072 57.9091 11.3741C57.8139 11.565 57.7425 11.7319 57.6473 11.9227C57.5759 12.1136 57.5045 12.2805 57.4569 12.4714C57.3855 12.686 57.3379 12.8769 57.2903 13.0677C57.2665 13.1631 57.2665 13.2824 57.2427 13.3778C57.2189 13.4732 57.2189 13.5686 57.1952 13.664C57.1952 13.8548 57.1714 14.0695 57.1714 14.2603C57.1714 14.4034 57.1714 14.5465 57.1952 14.6897C57.1952 14.8805 57.219 15.0713 57.2666 15.286C57.2904 15.4768 57.338 15.6676 57.3856 15.8584C57.457 16.0493 57.5046 16.2401 57.576 16.4309C57.6236 16.5502 57.695 16.6694 57.7426 16.7648L52.2683 14.642C51.3401 14.3796 50.4356 14.1411 49.5074 13.9264C49.0075 13.8071 48.5077 13.6878 48.0079 13.5686C46.5798 13.2824 45.1279 13.0677 43.6761 12.9246C43.6285 12.9246 43.6047 12.9007 43.5571 12.9007C42.129 12.7576 40.7247 12.686 39.2966 12.686C38.2494 12.686 37.2021 12.7337 36.1786 12.8053C34.7268 12.9007 33.2749 13.0915 31.823 13.33C31.466 13.3777 31.109 13.4493 30.7519 13.5209C30.0141 13.664 29.3001 13.8309 28.6098 13.9979C28.2528 14.0934 27.8958 14.1887 27.5388 14.2841C27.1817 14.4272 26.8485 14.5942 26.5153 14.7373C26.2535 14.8566 25.9917 14.9759 25.7299 15.0951C25.6823 15.119 25.6346 15.119 25.6109 15.1428C25.3728 15.2621 25.1586 15.3575 24.9444 15.4767C24.873 15.5006 24.8254 15.5244 24.7778 15.5483C24.516 15.6676 24.2542 15.8107 24.04 15.9299C23.8734 16.0015 23.7068 16.0969 23.5639 16.1685C23.4925 16.2161 23.3973 16.2639 23.3497 16.2877C23.1355 16.407 22.9213 16.5262 22.7309 16.6455C22.5167 16.7648 22.3263 16.884 22.1597 17.0033C21.9931 17.1226 21.8264 17.218 21.6836 17.3372C21.6598 17.3611 21.6361 17.3611 21.6122 17.3849C21.4694 17.4804 21.3028 17.5996 21.16 17.7189C21.16 17.7189 21.1362 17.7427 21.1124 17.7665C20.9934 17.862 20.8744 17.9573 20.7554 18.0527C20.7079 18.0766 20.6602 18.1243 20.6126 18.1482C20.4936 18.2436 20.3746 18.3629 20.2556 18.4583C20.2318 18.506 20.1842 18.5298 20.1604 18.5537C20.0176 18.6969 19.8747 18.8161 19.7319 18.9592C19.7081 18.9592 19.7081 18.9831 19.6844 19.0069C19.5416 19.1262 19.3988 19.2693 19.2559 19.4124C19.2321 19.4363 19.2321 19.4601 19.2084 19.4601C19.0894 19.5793 18.9704 19.6986 18.8514 19.8417C18.8038 19.8894 18.7324 19.9371 18.6848 19.9848C18.5657 20.1279 18.4229 20.271 18.2801 20.4142C18.2563 20.4618 18.2087 20.4857 18.1849 20.5334C17.9945 20.7243 17.8279 20.9151 17.6375 21.1059C17.6136 21.1298 17.5899 21.1536 17.5661 21.1775C17.1852 21.5829 16.7806 21.9884 16.3522 22.3462C15.9238 22.7279 15.4715 23.0857 15.0193 23.3958C14.5433 23.7297 14.0911 24.0159 13.5912 24.3022C13.1152 24.5645 12.6154 24.8031 12.0918 25.0177C11.5919 25.2324 11.0683 25.4232 10.5447 25.5902C9.54501 25.8049 8.52155 26.2104 7.6409 26.2819C7.4505 26.2819 7.23628 26.3296 7.04588 26.3535C6.83166 26.4011 6.64125 26.4489 6.45085 26.4966C6.26044 26.5682 6.07002 26.6397 5.87961 26.7113C5.6892 26.7828 5.49879 26.8782 5.30839 26.9737C5.14177 27.0929 4.95136 27.1883 4.78475 27.3076C4.61815 27.4268 4.45153 27.57 4.30872 27.7131C4.14212 27.8324 3.97551 27.9993 3.8327 28.1424C3.68989 28.3094 3.54708 28.4525 3.42808 28.6195C3.30907 28.8103 3.16626 28.9773 3.07105 29.1681C2.95205 29.3351 2.83305 29.5259 2.73784 29.7167C2.64259 29.9314 2.54743 30.1222 2.47602 30.3369C2.40462 30.5277 2.33322 30.7424 2.26181 30.9571C2.21425 31.1479 2.16657 31.3387 2.14281 31.5295C2.14281 31.5534 2.11897 31.5772 2.11897 31.6011C2.0714 31.8158 2.0714 32.102 2.04756 32.2451C2.02373 32.4121 2 32.5552 2 32.7222C2 32.8176 2 32.9368 2.02384 33.0322C2.04768 33.1992 2.0714 33.3423 2.11908 33.4855C2.16665 33.6285 2.21432 33.7717 2.28568 33.9148V33.9387C2.35709 34.0818 2.4523 34.2249 2.5475 34.368C2.64274 34.5111 2.73792 34.6543 2.85692 34.7974C2.97592 34.9166 3.11873 35.0598 3.26154 35.179C3.40435 35.3221 3.54716 35.4414 3.71376 35.5607C4.285 36.0616 4.42781 36.2285 5.16564 36.6102C5.28465 36.6817 5.40366 36.7294 5.54647 36.801C5.57031 36.801 5.59404 36.8249 5.61788 36.8249C5.61788 36.8726 5.61788 36.8965 5.64172 36.9442C5.66556 37.135 5.71312 37.3258 5.76072 37.5166C5.80829 37.7313 5.87974 37.9221 5.95114 38.0891C6.02255 38.2322 6.07014 38.3753 6.14155 38.5184C6.16539 38.5661 6.18912 38.6139 6.21295 38.6377C6.3082 38.8285 6.40336 38.9955 6.49856 39.1625C6.61758 39.3294 6.73658 39.4964 6.85558 39.6634C6.97459 39.8065 7.1174 39.9734 7.2602 40.1166C7.40301 40.2597 7.54582 40.3789 7.71244 40.5221C7.71244 40.5221 7.73628 40.546 7.76 40.546C7.90281 40.6652 8.04562 40.7845 8.18843 40.8799C8.35503 40.9992 8.52165 41.0946 8.71205 41.19C8.87867 41.2854 9.06908 41.3808 9.25948 41.4524C9.40229 41.5239 9.56889 41.5716 9.73551 41.6193C9.75935 41.6433 9.78307 41.6433 9.83075 41.667C9.926 41.6909 10.045 41.7147 10.1402 41.7386C10.0688 43.0266 10.0449 44.2431 10.2354 44.6725C10.4496 45.1495 11.4969 43.6945 12.5441 42.0248C12.4013 43.6707 12.3061 45.6027 12.5441 46.1752C12.8059 46.7715 14.234 44.911 15.4717 42.8596C32.3468 38.9478 47.7463 50.6356 49.3647 67.1417C49.0553 64.5656 45.8898 63.1344 44.4379 63.4922C43.7238 65.2573 42.51 67.5233 40.5583 68.9306C40.7249 67.3564 40.6535 65.7344 40.3203 64.1601C39.7966 66.3545 38.7732 68.4059 37.3689 70.171C35.1078 70.3379 32.8466 69.2407 31.6566 67.5949C31.5613 67.5233 31.5376 67.3802 31.4662 67.2848C31.3948 67.1178 31.3233 66.9509 31.2757 66.7839C31.2043 66.6169 31.1567 66.45 31.1329 66.283C31.1091 66.116 31.1091 65.949 31.1091 65.7582C31.1091 65.639 31.1091 65.5197 31.1091 65.4004C31.1329 65.2335 31.1805 65.0665 31.2281 64.8995C31.2757 64.7326 31.3233 64.5656 31.3947 64.3986C31.49 64.2317 31.5613 64.0647 31.6803 63.8977C32.085 62.7528 32.085 61.8225 31.3471 61.2739C31.2043 61.1785 31.0615 61.1069 30.8949 61.0354C30.7996 61.0115 30.6807 60.9638 30.5855 60.9399C30.5141 60.9161 30.4665 60.8923 30.3951 60.8684C30.2285 60.8207 30.0618 60.7729 29.8952 60.7491C29.7286 60.7015 29.562 60.6776 29.3954 60.6776C29.2288 60.6536 29.0384 60.6299 28.8718 60.6299C28.7528 60.6299 28.6338 60.6538 28.5148 60.6538C28.3244 60.6538 28.1577 60.6777 27.9911 60.7253C27.8245 60.7493 27.6579 60.773 27.4913 60.8208C27.3247 60.8684 27.1581 60.9162 26.9915 60.9878C26.8249 61.0593 26.6821 61.1309 26.5154 61.2024C26.3726 61.274 26.2298 61.3694 26.0632 61.441C20.5175 65.0666 23.8259 73.5581 27.6103 76.0149C26.1822 76.2773 24.7304 76.5874 24.3257 76.8975C24.3019 76.9214 24.2782 76.9452 24.2782 76.9452C25.3016 77.5653 26.3727 78.0901 27.4913 78.5433C29.0146 79.0442 30.6331 79.4974 31.3472 79.6882V79.7121C33.3227 80.1176 35.322 80.2607 37.3451 80.1415C47.8891 79.402 56.5289 71.3637 58.0998 60.7731C58.1474 60.9878 58.1951 61.1786 58.2426 61.3932C58.314 61.8226 58.4092 62.2758 58.4568 62.729V62.7529C58.5044 62.9676 58.5282 63.1823 58.5521 63.3731V63.4685C58.5759 63.6832 58.5997 63.8979 58.5997 64.0887C58.6235 64.3511 58.6472 64.6134 58.6472 64.8758V65.2575C58.6472 65.3767 58.6711 65.5198 58.6711 65.6391C58.6711 65.7822 58.6472 65.9254 58.6472 66.0685V66.4024C58.6472 66.5694 58.6234 66.7125 58.6234 66.8795C58.6234 66.9749 58.6234 67.0703 58.5995 67.1895C58.5995 67.3565 58.5757 67.5235 58.5757 67.7143C58.5518 67.7859 58.5518 67.8574 58.5518 67.929C58.528 68.1198 58.5043 68.2868 58.4804 68.4776C58.4804 68.5492 58.4804 68.6207 58.4566 68.6923C58.4327 68.9308 58.3852 69.1455 58.3614 69.384V69.4079V69.4318C58.3138 69.6465 58.2661 69.885 58.2185 70.0997V70.1712C58.171 70.3859 58.1233 70.6006 58.0757 70.8152C58.0757 70.8392 58.0519 70.8868 58.0519 70.9107C58.0043 71.1254 57.9566 71.34 57.8853 71.5547V71.6263C57.8139 71.8648 57.7425 72.0795 57.6949 72.2941C57.671 72.318 57.671 72.3418 57.671 72.3418C57.5996 72.5803 57.5282 72.8189 57.4568 73.0574C57.3616 73.2959 57.2902 73.5106 57.195 73.7491C57.0998 73.9876 57.0284 74.2262 56.9332 74.4408C56.838 74.6794 56.7428 74.8941 56.6476 75.1326H56.6237C56.5285 75.3473 56.4333 75.5858 56.3143 75.8005C56.2905 75.872 56.2667 75.9197 56.2429 75.9674C56.2191 75.9913 56.2191 76.0151 56.1953 76.039C54.6483 79.1637 52.3633 81.9067 49.5072 84.0535C49.3168 84.1727 49.1263 84.3159 48.9359 84.459C48.8884 84.5066 48.8169 84.5305 48.7693 84.5782C48.6027 84.6975 48.4361 84.8168 48.2457 84.936L48.3171 85.0792H48.3409C48.6742 85.0315 49.0074 84.9837 49.3406 84.936H49.3644C49.9833 84.8406 50.6021 84.7214 51.2209 84.6021C51.3875 84.5782 51.578 84.5305 51.7446 84.4828C51.8636 84.4589 51.9588 84.4352 52.0778 84.4113C52.2444 84.3873 52.411 84.3397 52.5776 84.3158C52.7204 84.2682 52.8632 84.2443 53.006 84.1966C55.3862 83.6241 57.6949 82.8369 59.9084 81.9067C56.124 87.0827 51.0543 91.2569 45.1278 94C47.865 93.8092 50.6021 93.356 53.244 92.5927C62.836 89.7542 70.9046 83.2901 75.7363 74.5839C74.7604 80.0939 72.5707 85.3415 69.3337 89.9212C71.6424 88.3946 73.7608 86.6295 75.6887 84.6259C81.0202 79.0444 84.519 71.9601 85.709 64.3511C86.5183 68.1198 86.7563 72.0078 86.3993 75.8481C103.584 51.8285 87.8273 26.9263 81.2344 20.3668C81.2105 20.3191 81.1868 20.2952 81.1868 20.2475C81.1629 20.2714 81.1629 20.2714 81.1629 20.2952C81.1629 20.2713 81.1629 20.2713 81.1391 20.2475C81.1391 20.5337 81.1153 20.82 81.0915 21.1062C81.0201 21.6548 80.9487 22.1796 80.8535 22.7043C80.7345 23.2291 80.5917 23.7538 80.4489 24.2786C80.2823 24.7795 80.0919 25.3043 79.8777 25.8052C79.6635 26.2822 79.4255 26.7831 79.1636 27.2602C78.9018 27.7134 78.6162 28.1905 78.3068 28.6198C77.9974 29.073 77.6642 29.5023 77.3309 29.9078C76.9739 30.3372 76.5931 30.7188 76.2123 31.1005C75.9743 31.3152 75.7601 31.506 75.522 31.6968C75.3316 31.8638 75.165 32.0069 74.9746 32.1738C74.5462 32.5078 74.1178 32.8179 73.6417 33.1041C73.1895 33.3903 72.7135 33.6766 72.2375 33.9151C71.7376 34.1536 71.2378 34.3683 70.738 34.583C70.2382 34.7738 69.7145 34.9408 69.1909 35.0839C68.6673 35.227 68.1198 35.3463 67.5962 35.4417C67.0488 35.5371 66.5013 35.5848 65.9777 35.6325C65.5969 35.6564 65.2161 35.6802 64.8353 35.6802C64.2878 35.6802 63.7404 35.6325 63.2168 35.5847C62.6693 35.537 62.1219 35.4654 61.5983 35.3462C61.0508 35.2507 60.5272 35.1076 60.0036 34.9407H59.9798C60.5034 34.893 61.027 34.8452 61.5506 34.7499C62.0981 34.6544 62.6217 34.5352 63.1453 34.3921C63.669 34.249 64.1926 34.082 64.6924 33.8912C65.216 33.7003 65.7159 33.4618 66.1919 33.2233C66.6917 32.9848 67.144 32.7224 67.62 32.4361C68.0722 32.1261 68.5244 31.816 68.9528 31.482C69.3813 31.1481 69.7859 30.7903 70.1667 30.4087C70.5713 30.0509 70.9284 29.6454 71.2854 29.2399C71.6424 28.8106 71.9756 28.3812 72.285 27.9518C72.3326 27.8803 72.3803 27.7849 72.4278 27.7133C72.6658 27.3317 72.9039 26.95 73.1181 26.5684C73.3799 26.0913 73.6179 25.6143 73.8321 25.1134C74.0463 24.6125 74.2367 24.1116 74.4034 23.5868C74.5699 23.0859 74.689 22.5611 74.808 22.0364C74.9032 21.4878 74.9984 20.963 75.046 20.4383C75.0935 19.8896 75.1412 19.341 75.1412 18.8163C75.1412 18.4346 75.1174 18.053 75.0937 17.6713C75.0461 17.1227 74.9746 16.598 74.9032 16.0732C74.808 15.5246 74.689 14.9999 74.5462 14.4751C74.3796 13.9742 74.213 13.4494 74.0226 12.9485C73.8322 12.4476 73.5942 11.9467 73.3562 11.4696C73.0943 10.9926 72.8325 10.5155 72.5469 10.0623C72.2375 9.60914 71.9281 9.17979 71.5949 8.75044C71.2379 8.34494 70.8808 7.93945 70.5 7.53396C70.3096 7.34314 70.0954 7.12846 69.8812 6.93764C68.8101 6.1028 67.6914 5.31565 66.5728 4.60008C66.4062 4.50463 66.2634 4.4331 66.0968 4.36154C65.3113 3.86064 64.5735 3.59826 63.8356 3.35974L63.8356 3.3596Z" fill="#CBCBCB"/>
<path d="M29 130H27.544L21.688 121.12V130H20.232V118.832H21.688L27.544 127.696V118.832H29V130ZM39.482 125.28C39.482 125.557 39.466 125.851 39.434 126.16H32.426C32.4793 127.024 32.7727 127.701 33.306 128.192C33.85 128.672 34.506 128.912 35.274 128.912C35.9033 128.912 36.426 128.768 36.842 128.48C37.2687 128.181 37.5673 127.787 37.738 127.296H39.306C39.0713 128.139 38.602 128.827 37.898 129.36C37.194 129.883 36.3193 130.144 35.274 130.144C34.442 130.144 33.6953 129.957 33.034 129.584C32.3833 129.211 31.8713 128.683 31.498 128C31.1247 127.307 30.938 126.507 30.938 125.6C30.938 124.693 31.1193 123.899 31.482 123.216C31.8447 122.533 32.3513 122.011 33.002 121.648C33.6633 121.275 34.4207 121.088 35.274 121.088C36.106 121.088 36.842 121.269 37.482 121.632C38.122 121.995 38.6127 122.496 38.954 123.136C39.306 123.765 39.482 124.48 39.482 125.28ZM37.978 124.976C37.978 124.421 37.8553 123.947 37.61 123.552C37.3647 123.147 37.0287 122.843 36.602 122.64C36.186 122.427 35.722 122.32 35.21 122.32C34.474 122.32 33.8447 122.555 33.322 123.024C32.81 123.493 32.5167 124.144 32.442 124.976H37.978ZM44.5079 130.144C43.8359 130.144 43.2332 130.032 42.6999 129.808C42.1665 129.573 41.7452 129.253 41.4359 128.848C41.1265 128.432 40.9559 127.957 40.9239 127.424H42.4279C42.4705 127.861 42.6732 128.219 43.0359 128.496C43.4092 128.773 43.8945 128.912 44.4919 128.912C45.0465 128.912 45.4839 128.789 45.8039 128.544C46.1239 128.299 46.2839 127.989 46.2839 127.616C46.2839 127.232 46.1132 126.949 45.7719 126.768C45.4305 126.576 44.9025 126.389 44.1879 126.208C43.5372 126.037 43.0039 125.867 42.5879 125.696C42.1825 125.515 41.8305 125.253 41.5319 124.912C41.2439 124.56 41.0999 124.101 41.0999 123.536C41.0999 123.088 41.2332 122.677 41.4999 122.304C41.7665 121.931 42.1452 121.637 42.6359 121.424C43.1265 121.2 43.6865 121.088 44.3159 121.088C45.2865 121.088 46.0705 121.333 46.6679 121.824C47.2652 122.315 47.5852 122.987 47.6279 123.84H46.1719C46.1399 123.381 45.9532 123.013 45.6119 122.736C45.2812 122.459 44.8332 122.32 44.2679 122.32C43.7452 122.32 43.3292 122.432 43.0199 122.656C42.7105 122.88 42.5559 123.173 42.5559 123.536C42.5559 123.824 42.6465 124.064 42.8279 124.256C43.0199 124.437 43.2545 124.587 43.5319 124.704C43.8199 124.811 44.2145 124.933 44.7159 125.072C45.3452 125.243 45.8572 125.413 46.2519 125.584C46.6465 125.744 46.9825 125.989 47.2599 126.32C47.5479 126.651 47.6972 127.083 47.7079 127.616C47.7079 128.096 47.5745 128.528 47.3079 128.912C47.0412 129.296 46.6625 129.6 46.1719 129.824C45.6919 130.037 45.1372 130.144 44.5079 130.144ZM51.5393 122.432V127.6C51.5393 128.027 51.6299 128.331 51.8113 128.512C51.9926 128.683 52.3073 128.768 52.7552 128.768H53.8273V130H52.5153C51.7046 130 51.0966 129.813 50.6913 129.44C50.2859 129.067 50.0833 128.453 50.0833 127.6V122.432H48.9473V121.232H50.0833V119.024H51.5393V121.232H53.8273V122.432H51.5393ZM65.473 118.848V127.088C65.473 128.005 65.1903 128.741 64.625 129.296C64.0597 129.84 63.313 130.112 62.385 130.112C61.4463 130.112 60.6943 129.835 60.129 129.28C59.5637 128.715 59.281 127.947 59.281 126.976H60.737C60.7477 127.52 60.8863 127.963 61.153 128.304C61.4303 128.645 61.841 128.816 62.385 128.816C62.929 128.816 63.3343 128.656 63.601 128.336C63.8677 128.005 64.001 127.589 64.001 127.088V118.848H65.473ZM71.8774 130.112C71.1414 130.112 70.48 129.984 69.8934 129.728C69.3174 129.461 68.864 129.099 68.5334 128.64C68.2027 128.171 68.032 127.632 68.0214 127.024H69.5734C69.6267 127.547 69.84 127.989 70.2134 128.352C70.5974 128.704 71.152 128.88 71.8774 128.88C72.5707 128.88 73.1147 128.709 73.5094 128.368C73.9147 128.016 74.1174 127.568 74.1174 127.024C74.1174 126.597 74 126.251 73.7654 125.984C73.5307 125.717 73.2374 125.515 72.8854 125.376C72.5334 125.237 72.0587 125.088 71.4614 124.928C70.7254 124.736 70.1334 124.544 69.6854 124.352C69.248 124.16 68.8694 123.861 68.5494 123.456C68.24 123.04 68.0854 122.485 68.0854 121.792C68.0854 121.184 68.24 120.645 68.5494 120.176C68.8587 119.707 69.2907 119.344 69.8454 119.088C70.4107 118.832 71.056 118.704 71.7814 118.704C72.8267 118.704 73.68 118.965 74.3414 119.488C75.0134 120.011 75.392 120.704 75.4774 121.568H73.8774C73.824 121.141 73.6 120.768 73.2054 120.448C72.8107 120.117 72.288 119.952 71.6374 119.952C71.0294 119.952 70.5334 120.112 70.1494 120.432C69.7654 120.741 69.5734 121.179 69.5734 121.744C69.5734 122.149 69.6854 122.48 69.9094 122.736C70.144 122.992 70.4267 123.189 70.7574 123.328C71.0987 123.456 71.5734 123.605 72.1814 123.776C72.9174 123.979 73.5094 124.181 73.9574 124.384C74.4054 124.576 74.7894 124.88 75.1094 125.296C75.4294 125.701 75.5894 126.256 75.5894 126.96C75.5894 127.504 75.4454 128.016 75.1574 128.496C74.8694 128.976 74.4427 129.365 73.8774 129.664C73.312 129.963 72.6454 130.112 71.8774 130.112Z" fill="#AFAFAF"/>
</svg>
