<svg width="48" height="48" viewBox="0 0 48 48" fill="none" xmlns="http://www.w3.org/2000/svg">
<path d="M2.43802 24.2756C2.31561 24.1465 2.16641 24.0441 2.00191 23.972C1.83742 23.8999 1.66144 23.8657 1.48164 23.8657C1.30184 23.8619 1.12587 23.8999 0.961369 23.9682C0.796871 24.0403 0.647675 24.1427 0.525258 24.2718C0.399015 24.397 0.299551 24.545 0.234517 24.7082C0.169483 24.8752 0.135053 25.0498 0.135053 25.2244C0.131227 25.4027 0.165657 25.5773 0.234517 25.7405C0.303377 25.9037 0.40284 26.0517 0.529083 26.177C0.651536 26.306 0.799926 26.4082 0.964665 26.4768C1.1294 26.5455 1.30683 26.5791 1.48547 26.5754C1.66373 26.5764 1.84034 26.5416 2.0047 26.4731C2.16905 26.4047 2.31775 26.3039 2.44185 26.177C2.57192 26.0555 2.67138 25.9075 2.74024 25.7443C2.8091 25.5811 2.84353 25.4065 2.84353 25.2282C2.84353 25.0498 2.8091 24.8752 2.74024 24.712C2.66756 24.545 2.56809 24.397 2.43802 24.2756V24.2756ZM18.4479 21.1939C18.4288 22.044 18.4708 22.8979 18.5703 23.7442H18.5244C18.4173 23.5355 18.1801 23.1484 17.8167 22.5829L9.09446 9H6.44719V26.3401H8.48237V13.8047C8.50532 13.0115 8.47089 12.2183 8.38673 11.4251H8.46324C8.60861 11.8046 8.79606 12.169 9.01794 12.5105L17.9773 26.3401H20.4831V9H18.4479V21.1939ZM34.2818 24.435H27.0898V18.4272H33.3828V16.5979H27.0898V10.8369H33.8418V9H25.0049V26.3401H34.2703L34.2818 24.435ZM35.8388 9V10.8369H40.8502V26.3401H42.8854V10.8369H47.9542V9H35.8388ZM15.8924 30.6515C15.3841 30.8527 14.925 31.1593 14.5458 31.5509C14.1556 31.9646 13.8496 32.4504 13.6507 32.9855C13.4517 33.5206 13.3638 34.0861 13.3867 34.6516C13.3484 35.699 13.7157 36.7237 14.4196 37.5055C14.7715 37.8737 15.2 38.1583 15.6744 38.3481C16.1487 38.5378 16.6575 38.6213 17.1663 38.5986C17.9314 38.6251 18.6927 38.4657 19.3851 38.1318L19.3928 37.2475C18.7578 37.6156 18.0347 37.7978 17.3002 37.7788C16.9062 37.794 16.5122 37.7257 16.1487 37.5777C15.7853 37.4296 15.4563 37.2019 15.1885 36.9135C14.6285 36.2682 14.3408 35.4336 14.3852 34.5833C14.3393 33.6838 14.6491 32.8033 15.2459 32.1278C15.529 31.8166 15.8771 31.5737 16.2635 31.4067C16.6514 31.243 17.0702 31.1641 17.4915 31.1752C18.161 31.1638 18.819 31.327 19.4043 31.6496V30.697C18.7972 30.4542 18.1456 30.3404 17.4915 30.363C16.9445 30.3554 16.3974 30.4503 15.8924 30.6515V30.6515ZM25.4295 33.3688C25.1738 33.102 24.8629 32.8933 24.5182 32.7571C24.1735 32.6208 23.8031 32.5602 23.4326 32.5794C23.0385 32.5604 22.6483 32.625 22.2811 32.7654C21.9138 32.9058 21.581 33.1183 21.2979 33.3878C21.0225 33.6914 20.8121 34.0444 20.6743 34.4315C20.5366 34.8186 20.4792 35.2246 20.506 35.6345C20.4678 36.4125 20.7394 37.1754 21.2597 37.756C21.5198 38.0331 21.8335 38.2532 22.1854 38.4012C22.5374 38.5454 22.9161 38.6175 23.2948 38.6024C23.6812 38.6137 24.0676 38.5416 24.4272 38.3936C24.7868 38.2456 25.1081 38.0217 25.3721 37.7371C25.9086 37.1371 26.1861 36.352 26.1449 35.551C26.1908 34.754 25.9345 33.976 25.4295 33.3688ZM24.7294 37.2665C24.5611 37.4592 24.3505 37.6111 24.1137 37.7105C23.8769 37.8098 23.6204 37.854 23.3637 37.8395C23.0997 37.8509 22.8396 37.8016 22.5986 37.7029C22.3576 37.6004 22.1434 37.4486 21.9674 37.2513C21.6008 36.801 21.4166 36.2313 21.4509 35.6535C21.4165 35.0577 21.6001 34.4694 21.9674 33.9988C22.1395 33.8015 22.3538 33.6459 22.5948 33.5396C22.8358 33.4371 23.0997 33.3878 23.3599 33.3992C23.62 33.384 23.8763 33.4333 24.1135 33.5358C24.3507 33.6383 24.5611 33.7939 24.7294 33.9912C25.0771 34.4684 25.2462 35.0508 25.2076 35.6383C25.2459 36.2152 25.0775 36.7959 24.7294 37.2665V37.2665ZM29.1632 32.9969C28.8763 33.2512 28.6659 33.5813 28.5626 33.9495V32.7578H27.6062V38.4657H28.5626V35.5548C28.532 35.0273 28.6697 34.4998 28.9528 34.0519C29.0561 33.8887 29.1938 33.7521 29.3621 33.6572C29.5305 33.5624 29.7179 33.5054 29.9092 33.5016C30.154 33.4827 30.3989 33.5472 30.6054 33.6838V32.7426C30.4295 32.6857 30.2458 32.6591 30.0622 32.6667C29.7332 32.6629 29.4157 32.7806 29.1632 32.9969V32.9969ZM36.2022 35.3537C36.2481 34.6288 36.03 33.9153 35.5901 33.3384C35.3721 33.0956 35.1043 32.902 34.802 32.7768C34.4998 32.6515 34.1747 32.5946 33.8495 32.6136C33.4899 32.6022 33.1303 32.6743 32.7975 32.8185C32.4685 32.9627 32.1739 33.1791 31.9367 33.4523C31.4173 34.0535 31.1479 34.8283 31.1831 35.6193C31.1334 36.4087 31.382 37.1905 31.8793 37.8054C32.1203 38.0672 32.4187 38.2722 32.7477 38.4088C33.0767 38.5454 33.4363 38.6024 33.7921 38.5872C34.4998 38.6213 35.1999 38.4316 35.789 38.0445V37.1868C35.2857 37.5925 34.6587 37.8172 34.0102 37.8243C33.7615 37.8395 33.509 37.8016 33.2757 37.7105C33.0423 37.6194 32.8281 37.4866 32.6521 37.3082C32.3103 36.8978 32.1368 36.3748 32.1663 35.8433H36.2098L36.2022 35.3537ZM32.1586 35.088C32.2083 34.6364 32.4073 34.2113 32.721 33.8812C32.8615 33.7313 33.0322 33.6123 33.222 33.5319C33.4117 33.4515 33.6164 33.4115 33.8227 33.4144C34.0216 33.403 34.2167 33.4371 34.4004 33.513C34.584 33.5889 34.7447 33.7028 34.8747 33.8508C35.1425 34.2037 35.2764 34.6364 35.2573 35.0766L32.1586 35.088Z" fill="#AFAFAF"/>
</svg>
