<svg width="96" height="136" viewBox="0 0 96 136" fill="none" xmlns="http://www.w3.org/2000/svg">
<path d="M4.87605 48.5511C4.63122 48.2931 4.33282 48.0881 4.00383 47.9439C3.67483 47.7997 3.32288 47.7314 2.96328 47.7314C2.60368 47.7238 2.25173 47.7997 1.92274 47.9363C1.59374 48.0805 1.29535 48.2855 1.05052 48.5436C0.79803 48.794 0.599102 49.0901 0.469034 49.4164C0.338966 49.7504 0.270106 50.0996 0.270106 50.4487C0.262455 50.8055 0.331315 51.1546 0.469034 51.481C0.606753 51.8074 0.805681 52.1034 1.05817 52.3539C1.30307 52.6121 1.59985 52.8164 1.92933 52.9537C2.25881 53.091 2.61365 53.1582 2.97093 53.1509C3.32745 53.1528 3.68069 53.0832 4.0094 52.9463C4.33811 52.8093 4.6355 52.6078 4.8837 52.3539C5.14384 52.111 5.34276 51.815 5.48048 51.4886C5.6182 51.1622 5.68706 50.8131 5.68706 50.4563C5.68706 50.0996 5.6182 49.7504 5.48048 49.424C5.33511 49.0901 5.13619 48.794 4.87605 48.5511V48.5511ZM36.8958 42.3878C36.8575 44.088 36.9417 45.7959 37.1406 47.4885H37.0488C36.8346 47.071 36.3602 46.2968 35.6333 45.1659L18.1889 18H12.8944V52.6803H16.9647V27.6094C17.0106 26.023 16.9418 24.4366 16.7735 22.8502H16.9265C17.2172 23.6093 17.5921 24.3379 18.0359 25.0211L35.9547 52.6803H40.9661V18H36.8958V42.3878ZM68.5635 48.8699H54.1795V36.8544H66.7655V33.1959H54.1795V21.6737H67.6837V18H50.0097V52.6803H68.5406L68.5635 48.8699ZM71.6775 18V21.6737H81.7004V52.6803H85.7708V21.6737H95.9085V18H71.6775ZM31.7849 61.3029C30.7682 61.7054 29.85 62.3187 29.0917 63.1018C28.3113 63.9292 27.6992 64.9008 27.3013 65.971C26.9035 67.0412 26.7275 68.1722 26.7734 69.3032C26.6969 71.3981 27.4314 73.4475 28.8392 75.0111C29.5431 75.7474 30.4 76.3166 31.3487 76.6962C32.2975 77.0757 33.3151 77.2427 34.3327 77.1971C35.8629 77.2503 37.3854 76.9315 38.7703 76.2635L38.7856 74.495C37.5155 75.2312 36.0695 75.5956 34.6005 75.5576C33.8124 75.588 33.0243 75.4513 32.2975 75.1553C31.5706 74.8593 30.9126 74.4039 30.3771 73.827C29.2571 72.5364 28.6816 70.8672 28.7703 69.1665C28.6785 67.3676 29.2983 65.6067 30.4918 64.2556C31.058 63.6332 31.7543 63.1474 32.527 62.8134C33.3027 62.4861 34.1403 62.3282 34.983 62.3504C36.3219 62.3276 37.6379 62.654 38.8085 63.2992V61.394C37.5945 60.9084 36.2912 60.6808 34.983 60.7261C33.8889 60.7109 32.7948 60.9006 31.7849 61.3029V61.3029ZM50.859 66.7376C50.3476 66.2041 49.7258 65.7867 49.0364 65.5141C48.347 65.2416 47.6062 65.1204 46.8651 65.1588C46.0771 65.1209 45.2966 65.2499 44.5621 65.5308C43.8276 65.8116 43.162 66.2367 42.5958 66.7756C42.0449 67.3828 41.6241 68.0887 41.3487 68.8629C41.0733 69.6371 40.9585 70.4493 41.012 71.2691C40.9355 72.8251 41.4788 74.3507 42.5193 75.5121C43.0396 76.0662 43.667 76.5064 44.3709 76.8024C45.0748 77.0909 45.8322 77.2351 46.5897 77.2047C47.3624 77.2275 48.1352 77.0833 48.8544 76.7872C49.5736 76.4912 50.2163 76.0434 50.7442 75.4741C51.8172 74.2741 52.3722 72.7041 52.2897 71.1021C52.3815 69.5081 51.8689 67.9521 50.859 66.7376ZM49.4588 74.5329C49.1222 74.9184 48.7009 75.2222 48.2274 75.4209C47.7539 75.6196 47.2407 75.7079 46.7274 75.679C46.1995 75.7018 45.6792 75.6031 45.1972 75.4058C44.7152 75.2009 44.2867 74.8972 43.9348 74.5025C43.2015 73.6021 42.8332 72.4626 42.9019 71.307C42.833 70.1153 43.2003 68.9388 43.9348 67.9976C44.2791 67.6029 44.7075 67.2917 45.1895 67.0792C45.6715 66.8743 46.1995 66.7756 46.7197 66.7983C47.24 66.768 47.7526 66.8667 48.227 67.0716C48.7014 67.2765 49.1222 67.5877 49.4588 67.9824C50.1542 68.9367 50.4924 70.1016 50.4152 71.2767C50.4917 72.4304 50.1551 73.5917 49.4588 74.5329V74.5329ZM58.3264 65.9938C57.7526 66.5023 57.3318 67.1627 57.1252 67.8989V65.5156H55.2124V76.9315H57.1252V71.1097C57.064 70.0546 57.3394 68.9995 57.9056 68.1039C58.1122 67.7775 58.3876 67.5042 58.7243 67.3145C59.0609 67.1247 59.4358 67.0109 59.8184 67.0033C60.308 66.9653 60.7977 67.0944 61.2109 67.3676V65.4852C60.8589 65.3714 60.4917 65.3182 60.1244 65.3334C59.4664 65.3258 58.8314 65.5611 58.3264 65.9938V65.9938ZM72.4044 70.7074C72.4962 69.2576 72.0601 67.8306 71.1802 66.6769C70.7441 66.1911 70.2085 65.804 69.6041 65.5535C68.9997 65.303 68.3493 65.1892 67.699 65.2271C66.9798 65.2044 66.2606 65.3486 65.5949 65.637C64.9369 65.9255 64.3478 66.3581 63.8734 66.9046C62.8346 68.1071 62.2957 69.6566 62.3662 71.2387C62.2667 72.8175 62.764 74.3811 63.7587 75.6107C64.2407 76.1345 64.8375 76.5443 65.4955 76.8176C66.1535 77.0909 66.8727 77.2047 67.5842 77.1743C68.9997 77.2427 70.3998 76.8631 71.5781 76.0889V74.3735C70.5713 75.185 69.3174 75.6344 68.0203 75.6487C67.523 75.679 67.018 75.6031 66.5513 75.421C66.0846 75.2388 65.6561 74.9731 65.3042 74.6164C64.6206 73.7956 64.2737 72.7496 64.3325 71.6865H72.4197L72.4044 70.7074ZM64.3172 70.176C64.4167 69.2728 64.8145 68.4227 65.4419 67.7623C65.7231 67.4626 66.0644 67.2247 66.4439 67.0639C66.8235 66.9031 67.2328 66.8229 67.6454 66.8287C68.0433 66.8059 68.4335 66.8742 68.8007 67.0261C69.168 67.1779 69.4893 67.4056 69.7495 67.7016C70.285 68.4075 70.5528 69.2728 70.5146 70.1533L64.3172 70.176Z" fill="#AFAFAF"/>
<path d="M33.696 130.096C33.4187 130.096 33.184 130 32.992 129.808C32.8 129.616 32.704 129.381 32.704 129.104C32.704 128.827 32.8 128.592 32.992 128.4C33.184 128.208 33.4187 128.112 33.696 128.112C33.9627 128.112 34.1867 128.208 34.368 128.4C34.56 128.592 34.656 128.827 34.656 129.104C34.656 129.381 34.56 129.616 34.368 129.808C34.1867 130 33.9627 130.096 33.696 130.096ZM45.3594 130H43.9034L38.0474 121.12V130H36.5914V118.832H38.0474L43.9034 127.696V118.832H45.3594V130ZM49.2974 120.032V123.76H53.3614V124.96H49.2974V128.8H53.8414V130H47.8414V118.832H53.8414V120.032H49.2974ZM62.9085 118.848V120.032H59.8685V130H58.4125V120.032H55.3565V118.848H62.9085Z" fill="#AFAFAF"/>
</svg>
