<svg width="96" height="136" viewBox="0 0 96 136" fill="none" xmlns="http://www.w3.org/2000/svg">
<path d="M47.9995 0C46.7233 0 45.4819 0.264079 44.3832 0.886773L9.61734 20.9959C7.36753 22.2947 6 24.7464 6 27.3554V67.5007C6 70.1076 7.36753 72.5562 9.61734 73.8581L18.6966 79.1079C23.108 81.2852 24.7341 81.2513 26.7417 81.2513C33.2727 81.2513 37.0018 77.2819 37.0018 70.384V30.7555C37.0018 30.1955 36.5176 29.7948 35.9687 29.7948H31.6138C31.0557 29.7948 30.5807 30.1955 30.5807 30.7555V70.384C30.5807 73.4409 27.4004 76.5164 22.2401 73.9321L12.7915 68.3875C12.457 68.2056 12.2006 67.884 12.2006 67.5007V27.3544C12.2006 26.9742 12.454 26.5868 12.7915 26.3936L47.4835 6.3595C47.6402 6.26776 47.8185 6.21942 48 6.21942C48.1815 6.21942 48.3598 6.26776 48.5165 6.3595L83.2095 26.3946C83.5399 26.594 83.8005 26.9629 83.8005 27.3564V67.5017C83.8005 67.885 83.6076 68.2775 83.2834 68.4625L48.5165 88.4976C48.219 88.6754 47.8087 88.6754 47.4835 88.4976L38.5519 83.1749C38.416 83.1011 38.2639 83.0624 38.1092 83.0624C37.9546 83.0624 37.8025 83.1011 37.6666 83.1749C35.2013 84.5744 34.7376 84.7368 32.4252 85.5403C31.8559 85.7397 30.991 86.049 32.7207 87.02L44.3832 93.8943C45.4828 94.5297 46.731 94.8616 48.0005 94.8561C49.2699 94.864 50.5183 94.5323 51.6168 93.8953L86.3837 73.8591C88.6335 72.549 90 70.1086 90 67.5017V27.3554C90 24.7475 88.6335 22.2999 86.3837 20.9979L51.6168 0.888831C50.5273 0.265109 49.2778 0.00102698 48.0005 0.00102698L47.9995 0Z" fill="#CBCBCB"/>
<path d="M57.2941 28.686C47.3941 28.686 41.4982 32.9062 41.4982 39.9243C41.4982 47.5364 47.35 49.6285 56.8519 50.5697C68.2189 51.6846 69.1043 53.3564 69.1043 55.5975C69.1043 59.4847 66.0102 61.1422 58.6975 61.1422C49.5085 61.1422 47.4895 58.8446 46.8134 54.2668C46.7334 53.7757 46.3548 53.379 45.8532 53.379H41.3505C40.7965 53.379 40.3174 53.8579 40.3174 54.4148C40.3174 60.2749 43.4998 67.2047 58.6975 67.2047C69.6983 67.2047 76.0435 62.8797 76.0435 55.3016C76.0435 47.7902 70.9181 45.7731 60.2466 44.3602C49.4644 42.9309 48.4364 42.2312 48.4364 39.7024C48.4364 37.6144 49.3084 34.8215 57.2941 34.8215C64.4282 34.8215 67.0648 36.3628 68.1451 41.181C68.2395 41.6331 68.6375 41.9938 69.1043 41.9938H73.608C73.885 41.9938 74.1538 41.8232 74.3456 41.6239C74.5344 41.4112 74.6678 41.1718 74.6411 40.8851C73.9435 32.5887 68.42 28.686 57.2941 28.686Z" fill="#CBCBCB"/>
<path d="M29 130H27.544L21.688 121.12V130H20.232V118.832H21.688L27.544 127.696V118.832H29V130ZM35.306 130.144C34.4847 130.144 33.738 129.957 33.066 129.584C32.4047 129.211 31.882 128.683 31.498 128C31.1247 127.307 30.938 126.507 30.938 125.6C30.938 124.704 31.13 123.915 31.514 123.232C31.9087 122.539 32.442 122.011 33.114 121.648C33.786 121.275 34.538 121.088 35.37 121.088C36.202 121.088 36.954 121.275 37.626 121.648C38.298 122.011 38.826 122.533 39.21 123.216C39.6047 123.899 39.802 124.693 39.802 125.6C39.802 126.507 39.5993 127.307 39.194 128C38.7993 128.683 38.2607 129.211 37.578 129.584C36.8953 129.957 36.138 130.144 35.306 130.144ZM35.306 128.864C35.8287 128.864 36.3193 128.741 36.778 128.496C37.2367 128.251 37.6047 127.883 37.882 127.392C38.17 126.901 38.314 126.304 38.314 125.6C38.314 124.896 38.1753 124.299 37.898 123.808C37.6207 123.317 37.258 122.955 36.81 122.72C36.362 122.475 35.8767 122.352 35.354 122.352C34.8207 122.352 34.33 122.475 33.882 122.72C33.4447 122.955 33.0927 123.317 32.826 123.808C32.5593 124.299 32.426 124.896 32.426 125.6C32.426 126.315 32.554 126.917 32.81 127.408C33.0767 127.899 33.4287 128.267 33.866 128.512C34.3033 128.747 34.7833 128.864 35.306 128.864ZM41.1724 125.584C41.1724 124.688 41.3537 123.904 41.7164 123.232C42.079 122.549 42.575 122.021 43.2044 121.648C43.8444 121.275 44.559 121.088 45.3484 121.088C46.031 121.088 46.6657 121.248 47.2524 121.568C47.839 121.877 48.287 122.288 48.5964 122.8V118.16H50.0684V130H48.5964V128.352C48.3084 128.875 47.8817 129.307 47.3164 129.648C46.751 129.979 46.0897 130.144 45.3324 130.144C44.5537 130.144 43.8444 129.952 43.2044 129.568C42.575 129.184 42.079 128.645 41.7164 127.952C41.3537 127.259 41.1724 126.469 41.1724 125.584ZM48.5964 125.6C48.5964 124.939 48.463 124.363 48.1964 123.872C47.9297 123.381 47.567 123.008 47.1084 122.752C46.6604 122.485 46.1644 122.352 45.6204 122.352C45.0764 122.352 44.5804 122.48 44.1324 122.736C43.6844 122.992 43.327 123.365 43.0604 123.856C42.7937 124.347 42.6604 124.923 42.6604 125.584C42.6604 126.256 42.7937 126.843 43.0604 127.344C43.327 127.835 43.6844 128.213 44.1324 128.48C44.5804 128.736 45.0764 128.864 45.6204 128.864C46.1644 128.864 46.6604 128.736 47.1084 128.48C47.567 128.213 47.9297 127.835 48.1964 127.344C48.463 126.843 48.5964 126.261 48.5964 125.6ZM60.5289 125.28C60.5289 125.557 60.5129 125.851 60.4809 126.16H53.4729C53.5262 127.024 53.8195 127.701 54.3529 128.192C54.8969 128.672 55.5529 128.912 56.3209 128.912C56.9502 128.912 57.4729 128.768 57.8889 128.48C58.3155 128.181 58.6142 127.787 58.7849 127.296H60.3529C60.1182 128.139 59.6489 128.827 58.9449 129.36C58.2409 129.883 57.3662 130.144 56.3209 130.144C55.4889 130.144 54.7422 129.957 54.0809 129.584C53.4302 129.211 52.9182 128.683 52.5449 128C52.1715 127.307 51.9849 126.507 51.9849 125.6C51.9849 124.693 52.1662 123.899 52.5289 123.216C52.8915 122.533 53.3982 122.011 54.0489 121.648C54.7102 121.275 55.4675 121.088 56.3209 121.088C57.1529 121.088 57.8889 121.269 58.5289 121.632C59.1689 121.995 59.6595 122.496 60.0009 123.136C60.3529 123.765 60.5289 124.48 60.5289 125.28ZM59.0249 124.976C59.0249 124.421 58.9022 123.947 58.6569 123.552C58.4115 123.147 58.0755 122.843 57.6489 122.64C57.2329 122.427 56.7689 122.32 56.2569 122.32C55.5209 122.32 54.8915 122.555 54.3689 123.024C53.8569 123.493 53.5635 124.144 53.4889 124.976H59.0249ZM62.9148 130.096C62.6374 130.096 62.4028 130 62.2108 129.808C62.0188 129.616 61.9228 129.381 61.9228 129.104C61.9228 128.827 62.0188 128.592 62.2108 128.4C62.4028 128.208 62.6374 128.112 62.9148 128.112C63.1814 128.112 63.4054 128.208 63.5868 128.4C63.7788 128.592 63.8748 128.827 63.8748 129.104C63.8748 129.381 63.7788 129.616 63.5868 129.808C63.4054 130 63.1814 130.096 62.9148 130.096ZM66.5941 119.808C66.3168 119.808 66.0821 119.712 65.8901 119.52C65.7088 119.328 65.6181 119.093 65.6181 118.816C65.6181 118.539 65.7088 118.304 65.8901 118.112C66.0821 117.92 66.3168 117.824 66.5941 117.824C66.8715 117.824 67.1008 117.92 67.2821 118.112C67.4741 118.304 67.5701 118.539 67.5701 118.816C67.5701 119.093 67.4741 119.328 67.2821 119.52C67.1008 119.712 66.8715 119.808 66.5941 119.808ZM67.3141 131.904C67.3141 132.683 67.1168 133.253 66.7221 133.616C66.3275 133.979 65.7515 134.16 64.9941 134.16H64.1461V132.928H64.7541C65.1595 132.928 65.4421 132.848 65.6021 132.688C65.7728 132.528 65.8581 132.256 65.8581 131.872V121.232H67.3141V131.904ZM72.8829 130.144C72.2109 130.144 71.6082 130.032 71.0749 129.808C70.5415 129.573 70.1202 129.253 69.8109 128.848C69.5015 128.432 69.3309 127.957 69.2989 127.424H70.8029C70.8455 127.861 71.0482 128.219 71.4109 128.496C71.7842 128.773 72.2695 128.912 72.8669 128.912C73.4215 128.912 73.8589 128.789 74.1789 128.544C74.4989 128.299 74.6589 127.989 74.6589 127.616C74.6589 127.232 74.4882 126.949 74.1469 126.768C73.8055 126.576 73.2775 126.389 72.5629 126.208C71.9122 126.037 71.3789 125.867 70.9629 125.696C70.5575 125.515 70.2055 125.253 69.9069 124.912C69.6189 124.56 69.4749 124.101 69.4749 123.536C69.4749 123.088 69.6082 122.677 69.8749 122.304C70.1415 121.931 70.5202 121.637 71.0109 121.424C71.5015 121.2 72.0615 121.088 72.6909 121.088C73.6615 121.088 74.4455 121.333 75.0429 121.824C75.6402 122.315 75.9602 122.987 76.0029 123.84H74.5469C74.5149 123.381 74.3282 123.013 73.9869 122.736C73.6562 122.459 73.2082 122.32 72.6429 122.32C72.1202 122.32 71.7042 122.432 71.3949 122.656C71.0855 122.88 70.9309 123.173 70.9309 123.536C70.9309 123.824 71.0215 124.064 71.2029 124.256C71.3949 124.437 71.6295 124.587 71.9069 124.704C72.1949 124.811 72.5895 124.933 73.0909 125.072C73.7202 125.243 74.2322 125.413 74.6269 125.584C75.0215 125.744 75.3575 125.989 75.6349 126.32C75.9229 126.651 76.0722 127.083 76.0829 127.616C76.0829 128.096 75.9495 128.528 75.6829 128.912C75.4162 129.296 75.0375 129.6 74.5469 129.824C74.0669 130.037 73.5122 130.144 72.8829 130.144Z" fill="#AFAFAF"/>
</svg>
