<svg width="96" height="136" viewBox="0 0 96 136" fill="none" xmlns="http://www.w3.org/2000/svg">
<path d="M28.6355 79.6043C28.5656 79.4806 28.5032 79.3528 28.4488 79.2215C28.0723 78.3506 27.9564 77.3892 28.1151 76.4538H5.84557L38.941 18.2127L49.806 37.3123L52.9566 31.7376L43.4854 15.0523C43.0314 14.1977 42.3704 13.4705 41.5628 12.9372C40.7552 12.404 39.8268 12.0818 38.8626 12C37.9005 12.044 36.9702 12.3571 36.1772 12.9037C35.3843 13.4502 34.7606 14.2083 34.3772 15.0917L0.849876 74.0393C0.348637 74.8716 0.0596314 75.8144 0.00828565 76.7847C-0.0430601 77.7549 0.144827 78.7229 0.555418 79.6035C1.07115 80.4165 1.80409 81.069 2.67133 81.4872C3.53857 81.9053 4.50552 82.0724 5.4628 81.9697H33.5429C32.5855 82.0741 31.6181 81.9078 30.7505 81.4896C29.883 81.0715 29.1502 80.4183 28.6355 79.6043Z" fill="#E2E2E2"/>
<path d="M93.1957 74.0388L65.6457 25.5046C65.1938 24.6408 64.5317 23.9048 63.7203 23.3645C62.9089 22.8242 61.9745 22.497 61.0033 22.4131C60.0419 22.4545 59.1115 22.7655 58.3184 23.3104C57.5253 23.8553 56.9014 24.6123 56.5179 25.4949L52.9551 31.7371L56.1252 37.3119L61.0318 28.6258L88.2883 76.4533H77.9239C78.0565 77.2439 77.9822 78.0554 77.708 78.8087C77.6503 78.9751 77.578 79.1361 77.492 79.2897L77.4037 79.4664C76.8405 80.2616 76.0901 80.9059 75.2188 81.3423C74.3475 81.7786 73.3821 81.9937 72.408 81.9684H88.622C89.5963 81.9946 90.562 81.78 91.4334 81.3435C92.3049 80.9071 93.0552 80.2623 93.6177 79.4664C94.0617 78.6127 94.2576 77.6516 94.183 76.6922C94.1084 75.7328 93.7664 74.8136 93.1957 74.0388Z" fill="#CBCBCB"/>
<path d="M77.4048 79.4665L77.4931 79.2899C77.5792 79.1362 77.6515 78.9753 77.7092 78.8089C77.9833 78.0555 78.0577 77.244 77.925 76.4534C77.7723 75.6007 77.4664 74.7826 77.022 74.0389L56.1467 37.312L52.957 31.7373L49.7868 37.312L28.9205 74.0399C28.5155 74.7925 28.2432 75.6093 28.1157 76.4543C27.9478 77.387 28.0535 78.3482 28.4201 79.2221C28.4744 79.3534 28.5368 79.4812 28.6068 79.6049C29.1227 80.4177 29.8557 81.0701 30.7229 81.4881C31.5902 81.9061 32.5571 82.0731 33.5144 81.9702H72.3798C73.3588 81.999 74.3297 81.7855 75.2064 81.3487C76.083 80.9119 76.8382 80.2654 77.4048 79.4665ZM52.9562 42.8867L72.0362 76.4534H33.8861L52.9562 42.8867Z" fill="#AFAFAF"/>
<path d="M29 130H27.544L21.688 121.12V130H20.232V118.832H21.688L27.544 127.696V118.832H29V130ZM39.258 121.232V130H37.802V128.704C37.5247 129.152 37.1353 129.504 36.634 129.76C36.1433 130.005 35.5993 130.128 35.002 130.128C34.3193 130.128 33.706 129.989 33.162 129.712C32.618 129.424 32.186 128.997 31.866 128.432C31.5567 127.867 31.402 127.179 31.402 126.368V121.232H32.842V126.176C32.842 127.04 33.0607 127.707 33.498 128.176C33.9353 128.635 34.5327 128.864 35.29 128.864C36.0687 128.864 36.682 128.624 37.13 128.144C37.578 127.664 37.802 126.965 37.802 126.048V121.232H39.258ZM46.2924 130L44.2124 126.736L42.2124 130H40.6924L43.5244 125.648L40.6924 121.232H42.3404L44.4204 124.48L46.4044 121.232H47.9244L45.1084 125.568L47.9404 130H46.2924ZM51.1486 122.432V127.6C51.1486 128.027 51.2393 128.331 51.4206 128.512C51.602 128.683 51.9166 128.768 52.3646 128.768H53.4366V130H52.1246C51.314 130 50.706 129.813 50.3006 129.44C49.8953 129.067 49.6926 128.453 49.6926 127.6V122.432H48.5566V121.232H49.6926V119.024H51.1486V121.232H53.4366V122.432H51.1486ZM65.0824 118.848V127.088C65.0824 128.005 64.7997 128.741 64.2344 129.296C63.669 129.84 62.9224 130.112 61.9944 130.112C61.0557 130.112 60.3037 129.835 59.7384 129.28C59.173 128.715 58.8904 127.947 58.8904 126.976H60.3464C60.357 127.52 60.4957 127.963 60.7624 128.304C61.0397 128.645 61.4504 128.816 61.9944 128.816C62.5384 128.816 62.9437 128.656 63.2104 128.336C63.477 128.005 63.6104 127.589 63.6104 127.088V118.848H65.0824ZM71.4868 130.112C70.7508 130.112 70.0894 129.984 69.5028 129.728C68.9268 129.461 68.4734 129.099 68.1428 128.64C67.8121 128.171 67.6414 127.632 67.6308 127.024H69.1828C69.2361 127.547 69.4494 127.989 69.8228 128.352C70.2068 128.704 70.7614 128.88 71.4868 128.88C72.1801 128.88 72.7241 128.709 73.1188 128.368C73.5241 128.016 73.7268 127.568 73.7268 127.024C73.7268 126.597 73.6094 126.251 73.3748 125.984C73.1401 125.717 72.8468 125.515 72.4948 125.376C72.1428 125.237 71.6681 125.088 71.0708 124.928C70.3348 124.736 69.7428 124.544 69.2948 124.352C68.8574 124.16 68.4788 123.861 68.1588 123.456C67.8494 123.04 67.6948 122.485 67.6948 121.792C67.6948 121.184 67.8494 120.645 68.1588 120.176C68.4681 119.707 68.9001 119.344 69.4548 119.088C70.0201 118.832 70.6654 118.704 71.3908 118.704C72.4361 118.704 73.2894 118.965 73.9508 119.488C74.6228 120.011 75.0014 120.704 75.0868 121.568H73.4868C73.4334 121.141 73.2094 120.768 72.8148 120.448C72.4201 120.117 71.8974 119.952 71.2468 119.952C70.6388 119.952 70.1428 120.112 69.7588 120.432C69.3748 120.741 69.1828 121.179 69.1828 121.744C69.1828 122.149 69.2948 122.48 69.5188 122.736C69.7534 122.992 70.0361 123.189 70.3668 123.328C70.7081 123.456 71.1828 123.605 71.7908 123.776C72.5268 123.979 73.1188 124.181 73.5668 124.384C74.0148 124.576 74.3988 124.88 74.7188 125.296C75.0388 125.701 75.1988 126.256 75.1988 126.96C75.1988 127.504 75.0548 128.016 74.7668 128.496C74.4788 128.976 74.0521 129.365 73.4868 129.664C72.9214 129.963 72.2548 130.112 71.4868 130.112Z" fill="#AFAFAF"/>
</svg>
