<svg width="97" height="136" viewBox="0 0 97 136" fill="none" xmlns="http://www.w3.org/2000/svg">
<path d="M48.3739 93.9984C23.6556 93.9984 2.69381 73.1209 2.50116 48.246C2.45818 42.2454 3.6067 36.296 5.88015 30.7425C8.15361 25.1891 11.5068 20.1422 15.7453 15.8943C20.0116 11.5247 25.1037 8.04625 30.7256 5.66105C36.3476 3.27585 42.3874 2.03142 48.4943 2.00002C54.4909 1.99468 60.4292 3.17599 65.9672 5.4759C71.5051 7.7758 76.5332 11.1488 80.7618 15.4006C85.0609 19.5915 88.4882 24.5917 90.846 30.1132C93.2038 35.6347 94.4455 41.5682 94.4995 47.5718C94.5543 59.7851 89.7729 71.5236 81.2001 80.2228C72.6273 88.9219 60.96 93.8745 48.7472 93.9984H48.3739ZM48.5184 4.40804C42.7314 4.44194 37.0087 5.62481 31.6824 7.888C26.3562 10.1512 21.5324 13.4496 17.4911 17.5919C13.4712 21.6108 10.2892 26.3877 8.12937 31.6456C5.96957 36.9035 4.87502 42.5378 4.90918 48.222C5.08978 71.7965 24.9559 91.5663 48.3619 91.5663H48.6749C60.2554 91.4614 71.3232 86.7759 79.459 78.5341C87.5947 70.2923 92.1366 59.1646 92.0915 47.5838C92.0375 41.8962 90.8586 36.2754 88.6227 31.0454C86.3869 25.8153 83.1383 21.0794 79.0641 17.1103C75.0664 13.0772 70.308 9.87772 65.0646 7.69728C59.8211 5.51683 54.1971 4.39882 48.5184 4.40804Z" fill="#CBCBCB"/>
<path d="M12.8203 61.4536V34.5801H19.3581V36.9881H15.8905V59.0937H19.3581V61.5017L12.8203 61.4536Z" fill="#CBCBCB"/>
<path d="M35.0089 47.7523C35.0089 52.6526 32.035 55.4459 28.0016 55.4459C23.9681 55.4459 21.2832 52.3035 21.2832 48.0052C21.2832 43.5142 24.1006 40.3477 28.2183 40.3477C32.336 40.3477 35.0089 43.6466 35.0089 47.7523ZM24.1006 47.969C24.1006 50.9429 25.5936 53.3028 28.1581 53.3028C30.7226 53.3028 32.1915 50.8948 32.1915 47.8607C32.1915 45.1035 30.831 42.5028 28.1581 42.5028C25.4852 42.5028 24.0765 45.0192 24.0765 48.0292L24.1006 47.969Z" fill="#CBCBCB"/>
<path d="M37.2715 40.854C38.5518 40.6329 39.8491 40.5241 41.1484 40.5289C42.608 40.3863 44.0751 40.711 45.3384 41.456C45.8119 41.7349 46.2023 42.1354 46.4691 42.6159C46.7358 43.0965 46.8692 43.6396 46.8554 44.1891C46.8381 44.9031 46.596 45.5934 46.1637 46.1619C45.7314 46.7305 45.1308 47.1482 44.4474 47.3556C45.2802 47.525 46.0289 47.9772 46.5665 48.6355C47.1041 49.2938 47.3976 50.1177 47.3972 50.9676C47.4063 51.5434 47.2842 52.1137 47.0401 52.6352C46.796 53.1567 46.4364 53.6158 45.9885 53.9777C44.9531 54.8927 43.2313 55.3382 40.5705 55.3382C39.4759 55.3436 38.382 55.2792 37.2956 55.1456L37.2715 40.854ZM39.9203 46.6212H41.2808C43.123 46.6212 44.1584 45.7543 44.1584 44.5142C44.1584 43.274 43.123 42.5155 41.4253 42.5155C40.9172 42.4981 40.4087 42.5345 39.9083 42.6239L39.9203 46.6212ZM39.9203 53.3396C40.3882 53.3878 40.8587 53.4079 41.329 53.3997C43.0387 53.3997 44.5557 52.7496 44.5557 50.9917C44.5557 49.2339 43.0869 48.5837 41.2447 48.5837H39.9203V53.3396Z" fill="#CBCBCB"/>
<path d="M52.6645 40.6611H55.3253V50.1608C55.3253 54.1942 53.3749 55.5427 50.5093 55.5427C49.743 55.5363 48.9827 55.4062 48.2578 55.1574L48.5829 53.0143C49.1172 53.1812 49.6727 53.2704 50.2324 53.2792C51.7494 53.2792 52.6404 52.5808 52.6404 50.0524L52.6645 40.6611Z" fill="#CBCBCB"/>
<path d="M62.8939 48.5703V50.4124H57.3555V48.5703H62.8939Z" fill="#CBCBCB"/>
<path d="M75.8254 54.8332C74.6283 55.3105 73.3446 55.5319 72.0568 55.4833C67.4214 55.4833 64.604 52.5817 64.604 48.1389C64.5492 47.1037 64.7142 46.0687 65.0881 45.1018C65.4619 44.135 66.0362 43.2583 66.7732 42.5293C67.5101 41.8003 68.3931 41.2355 69.3639 40.8722C70.3347 40.5089 71.3715 40.3551 72.406 40.4212C73.6431 40.3699 74.8764 40.5919 76.018 41.0713L75.428 43.1904C74.5225 42.805 73.5466 42.6122 72.5625 42.6245C69.5886 42.6245 67.4455 44.4907 67.4455 48.0064C67.4455 51.2091 69.3358 53.28 72.5384 53.28C73.5321 53.2943 74.5186 53.1101 75.4401 52.7382L75.8254 54.8332Z" fill="#CBCBCB"/>
<path d="M84.1862 34.5078V61.4536H77.6484V59.0455H81.116V36.9158H77.6484V34.5078H84.1862Z" fill="#CBCBCB"/>
<path d="M6.37394 130.112C5.33927 130.112 4.39527 129.872 3.54194 129.392C2.6886 128.901 2.01127 128.224 1.50994 127.36C1.01927 126.485 0.773938 125.504 0.773938 124.416C0.773938 123.328 1.01927 122.352 1.50994 121.488C2.01127 120.613 2.6886 119.936 3.54194 119.456C4.39527 118.965 5.33927 118.72 6.37394 118.72C7.41927 118.72 8.3686 118.965 9.22194 119.456C10.0753 119.936 10.7473 120.608 11.2379 121.472C11.7286 122.336 11.9739 123.317 11.9739 124.416C11.9739 125.515 11.7286 126.496 11.2379 127.36C10.7473 128.224 10.0753 128.901 9.22194 129.392C8.3686 129.872 7.41927 130.112 6.37394 130.112ZM6.37394 128.848C7.1526 128.848 7.85127 128.667 8.46994 128.304C9.09927 127.941 9.58994 127.424 9.94194 126.752C10.3046 126.08 10.4859 125.301 10.4859 124.416C10.4859 123.52 10.3046 122.741 9.94194 122.08C9.58994 121.408 9.1046 120.891 8.48594 120.528C7.86727 120.165 7.16327 119.984 6.37394 119.984C5.5846 119.984 4.8806 120.165 4.26194 120.528C3.64327 120.891 3.1526 121.408 2.78994 122.08C2.43794 122.741 2.26194 123.52 2.26194 124.416C2.26194 125.301 2.43794 126.08 2.78994 126.752C3.1526 127.424 3.64327 127.941 4.26194 128.304C4.89127 128.667 5.59527 128.848 6.37394 128.848ZM15.3521 122.864C15.6507 122.341 16.0881 121.915 16.6641 121.584C17.2401 121.253 17.8961 121.088 18.6321 121.088C19.4214 121.088 20.1307 121.275 20.7601 121.648C21.3894 122.021 21.8854 122.549 22.2481 123.232C22.6107 123.904 22.7921 124.688 22.7921 125.584C22.7921 126.469 22.6107 127.259 22.2481 127.952C21.8854 128.645 21.3841 129.184 20.7441 129.568C20.1147 129.952 19.4107 130.144 18.6321 130.144C17.8747 130.144 17.2081 129.979 16.6321 129.648C16.0667 129.317 15.6401 128.896 15.3521 128.384V130H13.8961V118.16H15.3521V122.864ZM21.3041 125.584C21.3041 124.923 21.1707 124.347 20.9041 123.856C20.6374 123.365 20.2747 122.992 19.8161 122.736C19.3681 122.48 18.8721 122.352 18.3281 122.352C17.7947 122.352 17.2987 122.485 16.8401 122.752C16.3921 123.008 16.0294 123.387 15.7521 123.888C15.4854 124.379 15.3521 124.949 15.3521 125.6C15.3521 126.261 15.4854 126.843 15.7521 127.344C16.0294 127.835 16.3921 128.213 16.8401 128.48C17.2987 128.736 17.7947 128.864 18.3281 128.864C18.8721 128.864 19.3681 128.736 19.8161 128.48C20.2747 128.213 20.6374 127.835 20.9041 127.344C21.1707 126.843 21.3041 126.256 21.3041 125.584ZM25.4926 119.808C25.2152 119.808 24.9806 119.712 24.7886 119.52C24.6072 119.328 24.5166 119.093 24.5166 118.816C24.5166 118.539 24.6072 118.304 24.7886 118.112C24.9806 117.92 25.2152 117.824 25.4926 117.824C25.7699 117.824 25.9992 117.92 26.1806 118.112C26.3726 118.304 26.4686 118.539 26.4686 118.816C26.4686 119.093 26.3726 119.328 26.1806 119.52C25.9992 119.712 25.7699 119.808 25.4926 119.808ZM26.2126 131.904C26.2126 132.683 26.0152 133.253 25.6206 133.616C25.2259 133.979 24.6499 134.16 23.8926 134.16H23.0446V132.928H23.6526C24.0579 132.928 24.3406 132.848 24.5006 132.688C24.6712 132.528 24.7566 132.256 24.7566 131.872V121.232H26.2126V131.904ZM36.6773 125.28C36.6773 125.557 36.6613 125.851 36.6293 126.16H29.6213C29.6746 127.024 29.968 127.701 30.5013 128.192C31.0453 128.672 31.7013 128.912 32.4693 128.912C33.0986 128.912 33.6213 128.768 34.0373 128.48C34.464 128.181 34.7626 127.787 34.9333 127.296H36.5013C36.2666 128.139 35.7973 128.827 35.0933 129.36C34.3893 129.883 33.5146 130.144 32.4693 130.144C31.6373 130.144 30.8906 129.957 30.2293 129.584C29.5786 129.211 29.0666 128.683 28.6933 128C28.32 127.307 28.1333 126.507 28.1333 125.6C28.1333 124.693 28.3146 123.899 28.6773 123.216C29.04 122.533 29.5466 122.011 30.1973 121.648C30.8586 121.275 31.616 121.088 32.4693 121.088C33.3013 121.088 34.0373 121.269 34.6773 121.632C35.3173 121.995 35.808 122.496 36.1493 123.136C36.5013 123.765 36.6773 124.48 36.6773 125.28ZM35.1733 124.976C35.1733 124.421 35.0506 123.947 34.8053 123.552C34.56 123.147 34.224 122.843 33.7973 122.64C33.3813 122.427 32.9173 122.32 32.4053 122.32C31.6693 122.32 31.04 122.555 30.5173 123.024C30.0053 123.493 29.712 124.144 29.6373 124.976H35.1733ZM38.0552 125.6C38.0552 124.693 38.2365 123.904 38.5992 123.232C38.9619 122.549 39.4632 122.021 40.1032 121.648C40.7539 121.275 41.4952 121.088 42.3272 121.088C43.4045 121.088 44.2899 121.349 44.9832 121.872C45.6872 122.395 46.1512 123.12 46.3752 124.048H44.8072C44.6579 123.515 44.3645 123.093 43.9272 122.784C43.5005 122.475 42.9672 122.32 42.3272 122.32C41.4952 122.32 40.8232 122.608 40.3112 123.184C39.7992 123.749 39.5432 124.555 39.5432 125.6C39.5432 126.656 39.7992 127.472 40.3112 128.048C40.8232 128.624 41.4952 128.912 42.3272 128.912C42.9672 128.912 43.5005 128.763 43.9272 128.464C44.3539 128.165 44.6472 127.739 44.8072 127.184H46.3752C46.1405 128.08 45.6712 128.8 44.9672 129.344C44.2632 129.877 43.3832 130.144 42.3272 130.144C41.4952 130.144 40.7539 129.957 40.1032 129.584C39.4632 129.211 38.9619 128.683 38.5992 128C38.2365 127.317 38.0552 126.517 38.0552 125.6ZM50.0939 122.432V127.6C50.0939 128.027 50.1846 128.331 50.3659 128.512C50.5473 128.683 50.8619 128.768 51.3099 128.768H52.3819V130H51.0699C50.2593 130 49.6513 129.813 49.2459 129.44C48.8406 129.067 48.6379 128.453 48.6379 127.6V122.432H47.5019V121.232H48.6379V119.024H50.0939V121.232H52.3819V122.432H50.0939ZM54.8981 119.808C54.6207 119.808 54.3861 119.712 54.1941 119.52C54.0021 119.328 53.9061 119.093 53.9061 118.816C53.9061 118.539 54.0021 118.304 54.1941 118.112C54.3861 117.92 54.6207 117.824 54.8981 117.824C55.1647 117.824 55.3887 117.92 55.5701 118.112C55.7621 118.304 55.8581 118.539 55.8581 118.816C55.8581 119.093 55.7621 119.328 55.5701 119.52C55.3887 119.712 55.1647 119.808 54.8981 119.808ZM55.6021 121.232V130H54.1461V121.232H55.6021ZM61.3476 128.656L64.0676 121.232H65.6196L62.1796 130H60.4836L57.0436 121.232H58.6116L61.3476 128.656ZM75.0523 125.28C75.0523 125.557 75.0363 125.851 75.0043 126.16H67.9963C68.0496 127.024 68.343 127.701 68.8763 128.192C69.4203 128.672 70.0763 128.912 70.8443 128.912C71.4736 128.912 71.9963 128.768 72.4123 128.48C72.839 128.181 73.1376 127.787 73.3083 127.296H74.8763C74.6416 128.139 74.1723 128.827 73.4683 129.36C72.7643 129.883 71.8896 130.144 70.8443 130.144C70.0123 130.144 69.2656 129.957 68.6043 129.584C67.9536 129.211 67.4416 128.683 67.0683 128C66.695 127.307 66.5083 126.507 66.5083 125.6C66.5083 124.693 66.6896 123.899 67.0523 123.216C67.415 122.533 67.9216 122.011 68.5723 121.648C69.2336 121.275 69.991 121.088 70.8443 121.088C71.6763 121.088 72.4123 121.269 73.0523 121.632C73.6923 121.995 74.183 122.496 74.5243 123.136C74.8763 123.765 75.0523 124.48 75.0523 125.28ZM73.5483 124.976C73.5483 124.421 73.4256 123.947 73.1803 123.552C72.935 123.147 72.599 122.843 72.1723 122.64C71.7563 122.427 71.2923 122.32 70.7803 122.32C70.0443 122.32 69.415 122.555 68.8923 123.024C68.3803 123.493 68.087 124.144 68.0123 124.976H73.5483ZM83.0542 123.52V124.752H76.6702V123.52H83.0542ZM85.2427 124.416C85.2427 123.328 85.488 122.352 85.9787 121.488C86.4694 120.613 87.136 119.931 87.9787 119.44C88.832 118.949 89.776 118.704 90.8107 118.704C92.0267 118.704 93.088 118.997 93.9947 119.584C94.9014 120.171 95.5627 121.003 95.9787 122.08H94.2347C93.9254 121.408 93.4774 120.891 92.8907 120.528C92.3147 120.165 91.6214 119.984 90.8107 119.984C90.032 119.984 89.3334 120.165 88.7147 120.528C88.096 120.891 87.6107 121.408 87.2587 122.08C86.9067 122.741 86.7307 123.52 86.7307 124.416C86.7307 125.301 86.9067 126.08 87.2587 126.752C87.6107 127.413 88.096 127.925 88.7147 128.288C89.3334 128.651 90.032 128.832 90.8107 128.832C91.6214 128.832 92.3147 128.656 92.8907 128.304C93.4774 127.941 93.9254 127.424 94.2347 126.752H95.9787C95.5627 127.819 94.9014 128.645 93.9947 129.232C93.088 129.808 92.0267 130.096 90.8107 130.096C89.776 130.096 88.832 129.856 87.9787 129.376C87.136 128.885 86.4694 128.208 85.9787 127.344C85.488 126.48 85.2427 125.504 85.2427 124.416Z" fill="#AFAFAF"/>
</svg>
