<svg width="48" height="48" viewBox="0 0 48 48" fill="none" xmlns="http://www.w3.org/2000/svg">
<path d="M23.937 46.9992C11.5778 46.9992 1.0969 36.5604 1.00058 24.123C0.979088 21.1227 1.55335 18.148 2.69008 15.3713C3.8268 12.5945 5.50339 10.0711 7.62263 7.94715C9.75582 5.76233 12.3018 4.02312 15.1128 2.83053C17.9238 1.63793 20.9437 1.01571 23.9972 1.00001V1.00001C26.9954 0.997338 29.9646 1.588 32.7336 2.73795C35.5026 3.8879 38.0166 5.57442 40.1309 7.70032C42.2805 9.79574 43.9941 12.2959 45.173 15.0566C46.3519 17.8173 46.9727 20.7841 46.9998 23.7859C47.0271 29.8925 44.6364 35.7618 40.35 40.1114C36.0637 44.4609 30.23 46.9372 24.1236 46.9992H23.937ZM24.0092 2.20402C21.1157 2.22097 18.2543 2.81241 15.5912 3.944C12.9281 5.0756 10.5162 6.72482 8.49554 8.79597C6.48562 10.8054 4.89458 13.1938 3.81468 15.8228C2.73479 18.4517 2.18751 21.2689 2.20459 24.111C2.29489 35.8982 12.228 45.7832 23.9309 45.7832H24.0875C29.8777 45.7307 35.4116 43.3879 39.4795 39.267C43.5474 35.1461 45.8183 29.5823 45.7958 23.7919C45.7687 20.9481 45.1793 18.1377 44.0614 15.5227C42.9434 12.9077 41.3192 10.5397 39.2821 8.55517C37.2832 6.53862 34.904 4.93886 32.2823 3.84864C29.6606 2.75842 26.8486 2.19941 24.0092 2.20402V2.20402Z" fill="#CBCBCB"/>
<path d="M6.16016 30.7268V17.29H9.42904V18.494H7.69527V29.5469H9.42904V30.7509L6.16016 30.7268Z" fill="#CBCBCB"/>
<path d="M17.2545 23.8762C17.2545 26.3263 15.7675 27.723 13.7508 27.723C11.7341 27.723 10.3916 26.1517 10.3916 24.0026C10.3916 21.7571 11.8003 20.1738 13.8592 20.1738C15.918 20.1738 17.2545 21.8233 17.2545 23.8762ZM11.8003 23.9845C11.8003 25.4715 12.5468 26.6514 13.829 26.6514C15.1113 26.6514 15.8458 25.4474 15.8458 23.9303C15.8458 22.5517 15.1655 21.2514 13.829 21.2514C12.4926 21.2514 11.7883 22.5096 11.7883 24.0146L11.8003 23.9845Z" fill="#CBCBCB"/>
<path d="M18.3857 20.427C19.0259 20.3164 19.6745 20.262 20.3242 20.2644C21.054 20.1932 21.7876 20.3555 22.4192 20.728C22.656 20.8675 22.8512 21.0677 22.9845 21.308C23.1179 21.5482 23.1846 21.8198 23.1777 22.0945C23.169 22.4515 23.048 22.7967 22.8319 23.081C22.6157 23.3652 22.3154 23.5741 21.9737 23.6778C22.3901 23.7625 22.7645 23.9886 23.0333 24.3178C23.3021 24.6469 23.4488 25.0589 23.4486 25.4838C23.4532 25.7717 23.3921 26.0568 23.2701 26.3176C23.148 26.5784 22.9682 26.8079 22.7443 26.9888C22.2265 27.4464 21.3657 27.6691 20.0352 27.6691C19.4879 27.6718 18.941 27.6396 18.3978 27.5728L18.3857 20.427ZM19.7102 23.3106H20.3904C21.3115 23.3106 21.8292 22.8771 21.8292 22.2571C21.8292 21.637 21.3115 21.2578 20.4627 21.2578C20.2086 21.2491 19.9544 21.2672 19.7041 21.3119L19.7102 23.3106ZM19.7102 26.6698C19.9441 26.6939 20.1793 26.704 20.4145 26.6999C21.2693 26.6999 22.0279 26.3748 22.0279 25.4959C22.0279 24.6169 21.2934 24.2919 20.3724 24.2919H19.7102V26.6698Z" fill="#CBCBCB"/>
<path d="M26.0822 20.3306H27.4127V25.0804C27.4127 27.0971 26.4374 27.7713 25.0047 27.7713C24.6215 27.7682 24.2413 27.7031 23.8789 27.5787L24.0414 26.5071C24.3086 26.5906 24.5864 26.6352 24.8662 26.6396C25.6247 26.6396 26.0702 26.2904 26.0702 25.0262L26.0822 20.3306Z" fill="#CBCBCB"/>
<path d="M31.197 24.2852V25.2062H28.4277V24.2852H31.197Z" fill="#CBCBCB"/>
<path d="M37.6627 27.4166C37.0642 27.6552 36.4223 27.766 35.7784 27.7417C33.4607 27.7417 32.052 26.2908 32.052 24.0694C32.0246 23.5519 32.1071 23.0343 32.294 22.5509C32.481 22.0675 32.7681 21.6291 33.1366 21.2646C33.5051 20.9001 33.9465 20.6178 34.4319 20.4361C34.9174 20.2544 35.4357 20.1776 35.953 20.2106C36.5716 20.185 37.1882 20.296 37.759 20.5357L37.464 21.5952C37.0112 21.4025 36.5233 21.3061 36.0313 21.3123C34.5443 21.3123 33.4727 22.2454 33.4727 24.0032C33.4727 25.6045 34.4179 26.64 36.0192 26.64C36.516 26.6472 37.0093 26.5551 37.47 26.3691L37.6627 27.4166Z" fill="#CBCBCB"/>
<path d="M41.8431 17.2539V30.7268H38.5742V29.5228H40.308V18.4579H38.5742V17.2539H41.8431Z" fill="#CBCBCB"/>
</svg>
