<svg width="96" height="136" viewBox="0 0 96 136" fill="none" xmlns="http://www.w3.org/2000/svg">
<g clip-path="url(#clip0_3877_42239)">
<mask id="mask0_3877_42239" style="mask-type:luminance" maskUnits="userSpaceOnUse" x="1" y="22" width="94" height="50">
<path d="M1.91406 47.0003C1.91406 60.3874 22.5452 71.2401 47.9941 71.2401C73.4429 71.2401 94.0742 60.3874 94.0742 47.0003C94.0742 33.6133 73.4429 22.7605 47.9941 22.7605C22.5452 22.7605 1.91406 33.6133 1.91406 47.0003Z" fill="white"/>
</mask>
<g mask="url(#mask0_3877_42239)">
<path d="M1.91406 47.0007C1.91406 60.3878 22.5452 71.2405 47.9941 71.2405C73.4429 71.2405 94.0742 60.3878 94.0742 47.0007C94.0742 33.6137 73.4429 22.7608 47.9941 22.7608C22.5452 22.7608 1.91406 33.6137 1.91406 47.0007Z" fill="#CBCBCB"/>
</g>
<mask id="mask1_3877_42239" style="mask-type:luminance" maskUnits="userSpaceOnUse" x="0" y="20" width="96" height="54">
<path d="M0 20H96V74H0V20Z" fill="white"/>
</mask>
<g mask="url(#mask1_3877_42239)">
<path d="M47.9987 69.4396C72.4536 69.4396 92.2787 59.3927 92.2787 46.9994C92.2787 34.6062 72.4536 24.5592 47.9987 24.5592C23.5439 24.5592 3.71875 34.6062 3.71875 46.9994C3.71875 59.3927 23.5439 69.4396 47.9987 69.4396Z" fill="#E2E2E2"/>
</g>
<mask id="mask2_3877_42239" style="mask-type:luminance" maskUnits="userSpaceOnUse" x="0" y="20" width="96" height="54">
<path d="M0 20H96V74H0V20Z" fill="white"/>
</mask>
<g mask="url(#mask2_3877_42239)">
<path d="M26.9557 49.7828C28.9665 49.7828 30.4677 49.412 31.4175 48.681C32.3572 47.9575 33.0062 46.704 33.3463 44.9555C33.6635 43.3211 33.5427 42.18 32.9873 41.5641C32.4195 40.9351 31.1918 40.6161 29.3385 40.6161H26.125L24.3435 49.7828H26.9557ZM16.4452 61.0745C16.296 61.0745 16.1543 61.0078 16.0595 60.8925C15.9645 60.7773 15.926 60.6256 15.9545 60.4791L20.6758 36.1873C20.7215 35.9525 20.9273 35.7828 21.1667 35.7828H31.3423C34.5403 35.7828 36.9207 36.6511 38.4168 38.364C39.921 40.0858 40.3855 42.4926 39.7973 45.5175C39.558 46.7498 39.1463 47.8943 38.5738 48.919C38.0007 49.9448 37.2432 50.894 36.322 51.7406C35.2193 52.7726 33.9713 53.521 32.616 53.9613C31.2822 54.3958 29.5692 54.6161 27.5247 54.6161H23.4043L22.2277 60.6698C22.182 60.9048 21.9763 61.0745 21.737 61.0745H16.4452Z" fill="#757575"/>
<path d="M26.5372 41.1158H29.3385C31.5754 41.1158 32.3524 41.6066 32.6164 41.8991C33.0544 42.3848 33.137 43.4088 32.8555 44.8603C32.5392 46.4853 31.9529 47.6374 31.1125 48.2844C30.2522 48.9468 28.8535 49.2824 26.9557 49.2824H24.95L26.5372 41.1158ZM31.3424 35.2824H21.1665C20.6879 35.2824 20.2764 35.6218 20.185 36.0916L15.4637 60.3834C15.4067 60.6766 15.4837 60.9798 15.6735 61.2103C15.8635 61.4408 16.1465 61.5741 16.4452 61.5741H21.7369C22.2157 61.5741 22.6272 61.2348 22.7185 60.7649L23.8165 55.1158H27.5247C29.6217 55.1158 31.387 54.8871 32.7712 54.4363C34.1947 53.9738 35.5044 53.1896 36.6635 52.1056C37.6222 51.2236 38.4119 50.2336 39.0102 49.1628C39.6087 48.0916 40.0387 46.8971 40.2882 45.6124C40.9074 42.4284 40.4044 39.8788 38.7934 38.0348C37.198 36.2084 34.691 35.2824 31.3424 35.2824ZM23.7369 50.2824H26.9557C29.0892 50.2824 30.6784 49.8806 31.7225 49.0768C32.7669 48.2728 33.4712 46.9309 33.8372 45.0506C34.1874 43.2453 34.0279 41.9713 33.3587 41.2291C32.6887 40.4869 31.3489 40.1158 29.3385 40.1158H25.7129L23.7369 50.2824ZM31.3424 36.2824C34.4035 36.2824 36.6367 37.0858 38.0404 38.6926C39.4439 40.2994 39.8665 42.5423 39.3065 45.4218C39.076 46.6079 38.6862 47.6924 38.1374 48.6749C37.5879 49.6581 36.8704 50.5571 35.9837 51.3723C34.927 52.3611 33.7532 53.0658 32.4615 53.4854C31.1699 53.9063 29.5247 54.1158 27.5247 54.1158H22.992L21.7369 60.5741H16.4452L21.1665 36.2824H31.3424Z" fill="white"/>
<path d="M51.9271 54.6155C51.7778 54.6155 51.6363 54.5488 51.5414 54.4335C51.4463 54.3183 51.4078 54.1668 51.4363 54.0201L53.5248 43.272C53.7234 42.2498 53.6744 41.5161 53.3869 41.2061C53.2109 41.0166 52.6823 40.6988 51.1191 40.6988H47.3354L44.7096 54.2108C44.6639 54.4458 44.4581 54.6155 44.2188 54.6155H38.9688C38.8194 54.6155 38.6779 54.5488 38.5829 54.4335C38.4879 54.3183 38.4494 54.1666 38.4779 54.0201L43.1993 29.7283C43.2449 29.4935 43.4508 29.3238 43.6901 29.3238H48.9401C49.0894 29.3238 49.2309 29.3905 49.3259 29.5056C49.4209 29.621 49.4594 29.7725 49.4309 29.9191L48.2916 35.7821H52.3619C55.4628 35.7821 57.5654 36.3288 58.7901 37.4535C60.0384 38.6008 60.4279 40.4353 59.9479 42.9066L57.7513 54.2108C57.7056 54.4458 57.4999 54.6155 57.2604 54.6155H51.9271Z" fill="#757575"/>
<path d="M48.9401 28.8242H43.6901C43.2113 28.8242 42.7998 29.1635 42.7085 29.6333L37.9871 53.9252C37.9301 54.2183 38.0071 54.5215 38.1971 54.752C38.3871 54.9825 38.6701 55.1158 38.9688 55.1158H44.2188C44.6975 55.1158 45.1091 54.7765 45.2005 54.3067L47.7476 41.1992H51.1191C52.6796 41.1992 53.0071 41.5325 53.0203 41.5468C53.115 41.6487 53.2395 42.1203 53.034 43.177L50.9455 53.9252C50.8885 54.2183 50.9655 54.5215 51.1555 54.752C51.3455 54.9825 51.6285 55.1158 51.9271 55.1158H57.2605C57.7391 55.1158 58.1508 54.7765 58.2421 54.3067L60.4386 43.0025C60.9541 40.349 60.5131 38.3585 59.1285 37.0858C57.8071 35.8723 55.5938 35.2825 52.362 35.2825H48.898L49.9218 30.015C49.9786 29.7218 49.9018 29.4185 49.7118 29.1882C49.5218 28.9577 49.2388 28.8242 48.9401 28.8242ZM48.9401 29.8242L47.685 36.2825H52.362C55.3048 36.2825 57.3346 36.7962 58.4518 37.8222C59.569 38.8488 59.9036 40.5123 59.4571 42.8118L57.2605 54.1158H51.9271L54.0156 43.3678C54.2533 42.1452 54.166 41.3112 53.7533 40.8665C53.3405 40.4218 52.4623 40.1992 51.1191 40.1992H46.9231L44.2188 54.1158H38.9688L43.6901 29.8242H48.9401Z" fill="white"/>
<path d="M68.2603 49.7828C70.2712 49.7828 71.7723 49.412 72.7222 48.681C73.6618 47.9576 74.3108 46.7041 74.6512 44.9555C74.9683 43.3211 74.8475 42.18 74.292 41.5641C73.7242 40.9351 72.4965 40.6161 70.6432 40.6161H67.4297L65.6482 49.7828H68.2603ZM57.75 61.0745C57.6008 61.0745 57.4592 61.0078 57.3643 60.8925C57.2693 60.7773 57.2307 60.6256 57.2592 60.4791L61.9805 36.1873C62.0263 35.9525 62.232 35.7828 62.4715 35.7828H72.647C75.8452 35.7828 78.2253 36.6511 79.7217 38.364C81.2258 40.0856 81.6902 42.4925 81.1022 45.5175C80.8625 46.7498 80.451 47.8943 79.8785 48.919C79.3053 49.9448 78.5478 50.894 77.6267 51.7406C76.524 52.7726 75.276 53.521 73.9207 53.9613C72.5868 54.3958 70.8738 54.6161 68.8293 54.6161H64.7088L63.5327 60.6698C63.4868 60.9048 63.2812 61.0745 63.0417 61.0745H57.75Z" fill="#757575"/>
<path d="M67.8417 41.1152H70.6431C72.8799 41.1152 73.6569 41.606 73.9209 41.8985C74.3591 42.3842 74.4417 43.4082 74.1601 44.8595C73.8437 46.4847 73.2572 47.6368 72.4171 48.2838C71.5567 48.9462 70.1581 49.2818 68.2602 49.2818H66.2547L67.8417 41.1152ZM72.6469 35.2818H62.4712C61.9926 35.2818 61.5811 35.6212 61.4897 36.091L56.7684 60.3828C56.7114 60.676 56.7884 60.9792 56.9782 61.2097C57.1682 61.4402 57.4512 61.5735 57.7499 61.5735H63.0416C63.5202 61.5735 63.9319 61.2342 64.0232 60.7643L65.1211 55.1152H68.8292C70.9262 55.1152 72.6916 54.8865 74.0757 54.4357C75.4992 53.9732 76.8092 53.1888 77.9684 52.1047C78.9271 51.2228 79.7164 50.233 80.3147 49.1622C80.9132 48.091 81.3432 46.8965 81.5927 45.6118C82.2119 42.4277 81.7089 39.878 80.0979 38.034C78.5026 36.2078 75.9957 35.2818 72.6469 35.2818ZM65.0416 50.2818H68.2602C70.3937 50.2818 71.9829 49.88 73.0271 49.0762C74.0716 48.2722 74.7757 46.9303 75.1417 45.05C75.4921 43.2447 75.3326 41.9707 74.6632 41.2285C73.9932 40.4863 72.6534 40.1152 70.6431 40.1152H67.0174L65.0416 50.2818ZM72.6469 36.2818C75.7081 36.2818 77.9412 37.0852 79.3449 38.692C80.7486 40.2988 81.1711 42.5417 80.6111 45.4212C80.3806 46.6073 79.9907 47.6918 79.4419 48.6743C78.8924 49.6575 78.1749 50.5565 77.2882 51.3717C76.2316 52.3605 75.0577 53.0652 73.7661 53.4848C72.4744 53.9057 70.8292 54.1152 68.8292 54.1152H64.2966L63.0416 60.5735H57.7499L62.4712 36.2818H72.6469Z" fill="white"/>
</g>
</g>
<path d="M41.688 122.112C41.688 123.04 41.368 123.813 40.728 124.432C40.0987 125.04 39.1333 125.344 37.832 125.344H35.688V130H34.232V118.848H37.832C39.0907 118.848 40.0453 119.152 40.696 119.76C41.3573 120.368 41.688 121.152 41.688 122.112ZM37.832 124.144C38.6427 124.144 39.24 123.968 39.624 123.616C40.008 123.264 40.2 122.763 40.2 122.112C40.2 120.736 39.4107 120.048 37.832 120.048H35.688V124.144H37.832ZM52.0896 118.848V130H50.6336V124.944H44.9536V130H43.4976V118.848H44.9536V123.744H50.6336V118.848H52.0896ZM62.0318 122.112C62.0318 123.04 61.7118 123.813 61.0718 124.432C60.4424 125.04 59.4771 125.344 58.1758 125.344H56.0318V130H54.5758V118.848H58.1758C59.4344 118.848 60.3891 119.152 61.0398 119.76C61.7011 120.368 62.0318 121.152 62.0318 122.112ZM58.1758 124.144C58.9864 124.144 59.5838 123.968 59.9678 123.616C60.3518 123.264 60.5438 122.763 60.5438 122.112C60.5438 120.736 59.7544 120.048 58.1758 120.048H56.0318V124.144H58.1758Z" fill="#AFAFAF"/>
<defs>
<clipPath id="clip0_3877_42239">
<rect width="96" height="96" fill="white"/>
</clipPath>
</defs>
</svg>
