<svg width="48" height="48" viewBox="0 0 48 48" fill="none" xmlns="http://www.w3.org/2000/svg">
<path d="M42.2038 9.94124C39.4233 6.34064 35.6374 3.64549 31.325 2.19664C27.0127 0.747796 22.3675 0.610339 17.977 1.80166C13.5865 2.99297 9.64789 5.45955 6.65931 8.88943C3.67073 12.3193 1.76641 16.5584 1.1872 21.0707C0.607987 25.5829 1.3799 30.1656 3.40532 34.2391C5.43073 38.3126 8.61866 41.6939 12.5659 43.9555C16.5132 46.2171 21.0425 47.2573 25.581 46.9446C30.1195 46.6319 34.4633 44.9803 38.0631 42.1987C48.1112 34.4334 49.9656 19.993 42.2031 9.94124H42.2038Z" fill="#CBCBCB"/>
<path d="M31.758 15.6538L22.0599 25.4288L19.3193 22.6113C28.8643 13.0663 29.8224 13.9288 31.7587 15.6538H31.758Z" fill="white"/>
<path d="M22.0595 25.6964C21.9736 25.6943 21.8916 25.6602 21.8295 25.6008L19.0695 22.8408C19.0074 22.7765 18.9727 22.6906 18.9727 22.6011C18.9727 22.5117 19.0074 22.4257 19.0695 22.3614C28.4801 12.9508 29.7645 13.3914 31.9876 15.4039C32.0631 15.4643 32.1055 15.5563 32.1026 15.6533C32.117 15.7468 32.0811 15.8424 32.007 15.9027L22.3089 25.6015C22.2407 25.6641 22.1522 25.6979 22.0595 25.6971V25.6964ZM19.7976 22.6108L22.0595 24.8727L31.2595 15.6727C30.9419 15.2746 30.4886 15.0076 29.9864 14.9228C29.4843 14.8379 28.9684 14.9411 28.5376 15.2127C26.8701 15.9602 24.187 18.2408 19.7976 22.6108V22.6108Z" fill="#CBCBCB"/>
<path d="M24.8393 28.1315L22.1943 25.429L31.8924 15.8452C34.4993 18.3946 30.6274 22.6496 24.8393 28.1308V28.1315Z" fill="white"/>
<path d="M24.8379 28.4765C24.7531 28.4697 24.6725 28.4362 24.6079 28.3809L21.9054 25.7359C21.8649 25.6376 21.8649 25.5272 21.9054 25.429C21.8767 25.3485 21.8767 25.2601 21.9054 25.1796L31.6035 15.4815C31.7436 15.3499 31.9614 15.3499 32.1016 15.4815C32.7377 16.0665 33.0863 16.8988 33.0597 17.7621C33.0597 20.3496 30.1078 23.6076 25.0866 28.3615C25.0195 28.4279 24.9312 28.4686 24.8372 28.4765H24.8379ZM22.691 25.429L24.8566 27.5938C28.6897 23.9713 32.351 20.2338 32.3697 17.7038C32.3905 17.1675 32.2132 16.6422 31.8716 16.2282L22.691 25.429Z" fill="#CBCBCB"/>
<path d="M19.3953 22.669L21.3122 24.5859C21.3244 24.5966 21.3342 24.6099 21.3409 24.6248C21.3476 24.6397 21.3511 24.6558 21.3511 24.6721C21.3511 24.6884 21.3476 24.7046 21.3409 24.7194C21.3342 24.7343 21.3244 24.7476 21.3122 24.7584L17.2678 25.6209C17.1003 25.6568 16.93 25.5763 16.8495 25.4254C16.769 25.2744 16.7992 25.0875 16.9228 24.969L19.2803 22.6309C19.2803 22.6309 19.3572 22.6309 19.3953 22.669V22.669Z" fill="white"/>
<path d="M17.1724 26.0037C17.0446 26.0021 16.9194 25.9677 16.8087 25.9039C16.6979 25.8401 16.6054 25.749 16.5399 25.6393C16.389 25.3539 16.4429 25.0025 16.6743 24.7768L19.0124 22.4193C19.0967 22.3439 19.2059 22.3022 19.319 22.3022C19.4321 22.3022 19.5412 22.3439 19.6255 22.4193L21.5424 24.3362C21.656 24.444 21.7005 24.6072 21.6574 24.7581C21.6143 24.909 21.4878 25.0291 21.3318 25.065L17.2874 25.9275L17.1724 26.0037ZM19.3193 23.0906L17.1537 25.2562L20.7381 24.4893L19.3193 23.0906Z" fill="#CBCBCB"/>
<path d="M36.9134 10.2676C35.5262 8.92925 33.3469 8.87319 31.8922 10.136C30.4374 11.3989 30.1888 13.5666 31.3215 15.1263C32.4543 16.686 34.5897 17.123 36.2428 16.1326L33.6359 13.5257L36.9134 10.2676Z" fill="white"/>
<path d="M34.3264 17.0139C33.5294 17.0037 32.7531 16.7592 32.0941 16.3108C31.4351 15.8625 30.9226 15.2301 30.6205 14.4925C30.0024 12.9846 30.3445 11.2538 31.483 10.0952C32.2504 9.34194 33.2827 8.91992 34.358 8.91992C35.4333 8.91992 36.4657 9.34194 37.233 10.0952C37.3063 10.157 37.348 10.2483 37.348 10.3446C37.3479 10.392 37.3375 10.4388 37.3177 10.4818C37.2978 10.5249 37.269 10.5631 37.233 10.594L34.128 13.5265L36.4855 15.8459C36.5237 15.8824 36.5524 15.9277 36.5691 15.9778C36.5857 16.0279 36.5899 16.0813 36.5811 16.1334C36.5754 16.1837 36.5588 16.2321 36.5323 16.2752C36.5059 16.3183 36.4703 16.355 36.428 16.3828C35.7947 16.7787 35.0666 16.9972 34.3199 17.0153L34.3264 17.0139ZM34.3264 9.57699C32.9608 9.58418 31.7389 10.4057 31.2264 11.6614C30.714 12.917 30.9928 14.3624 31.9502 15.327C32.9248 16.3066 34.394 16.5884 35.6683 16.0364L33.4064 13.7745C33.3309 13.7141 33.2885 13.6221 33.2914 13.5251C33.2943 13.4352 33.336 13.3511 33.4064 13.2951L36.3964 10.2857C35.802 9.82999 35.0753 9.58131 34.3264 9.57627V9.57699Z" fill="#CBCBCB"/>
<path d="M36.9718 10.3252L33.6943 13.5833L36.3012 16.1902C36.5636 16.0396 36.8079 15.8594 37.0293 15.6533C38.4496 14.1439 38.4237 11.795 36.9718 10.3252Z" fill="white"/>
<path d="M36.2421 16.4777C36.199 16.48 36.156 16.4727 36.1162 16.4561C36.0764 16.4396 36.0408 16.4143 36.0121 16.3821L33.4052 13.7752C33.3297 13.7148 33.2873 13.6228 33.2902 13.5258C33.2931 13.436 33.3347 13.3519 33.4052 13.2958L36.6633 10.0952C36.6947 10.0478 36.7375 10.0089 36.7876 9.98193C36.8378 9.95501 36.8938 9.94092 36.9508 9.94092C37.0077 9.94092 37.0637 9.95501 37.1139 9.98193C37.1641 10.0089 37.2068 10.0478 37.2383 10.0952C37.6208 10.47 37.9246 10.9173 38.1321 11.411C38.3395 11.9046 38.4464 12.4347 38.4464 12.9702C38.4464 13.5057 38.3395 14.0358 38.1321 14.5295C37.9246 15.0231 37.6208 15.4705 37.2383 15.8452C37.0126 16.0845 36.7545 16.2909 36.4714 16.4583C36.4001 16.4942 36.3177 16.5012 36.2414 16.4777H36.2421ZM34.134 13.5265L36.2996 15.6921C36.4486 15.5877 36.5896 15.4724 36.7215 15.3471C37.3581 14.7122 37.7167 13.8506 37.7184 12.9515C37.7199 12.1469 37.4266 11.3696 36.894 10.7665L34.134 13.5265Z" fill="#CBCBCB"/>
<path d="M32.1592 16.0563C31.6202 15.5503 30.7814 15.5503 30.2423 16.0563L21.5605 24.7186L22.998 26.1755L32.1786 18.1255C32.4625 17.8546 32.6214 17.4787 32.6171 17.0862C32.6128 16.6938 32.4475 16.3208 32.1592 16.0555V16.0563Z" fill="white"/>
<path d="M22.9225 26.5212C22.8366 26.5191 22.7545 26.485 22.6925 26.4257L21.2355 24.9687C21.1734 24.9044 21.1387 24.8185 21.1387 24.729C21.1387 24.6396 21.1734 24.5537 21.2355 24.4893L29.918 15.8449C30.6066 15.1578 31.7221 15.1578 32.41 15.8449C32.755 16.1899 32.9418 16.6607 32.9274 17.148C32.9073 17.6325 32.6931 18.0882 32.333 18.413L23.1525 26.463C23.0856 26.5105 23.0037 26.5306 22.9225 26.5205V26.5212ZM21.9069 24.7186L22.865 25.6961L31.873 17.8567C32.0959 17.6627 32.2288 17.3852 32.2374 17.0898C32.2461 16.7944 32.1296 16.5055 31.9119 16.3042C31.4928 15.8873 30.8165 15.8873 30.3975 16.3042L21.9069 24.7186Z" fill="#CBCBCB"/>
<path d="M14.8335 34.5901C14.809 34.6234 14.7958 34.6637 14.7958 34.7051C14.7958 34.7464 14.809 34.7867 14.8335 34.8201L15.2166 36.4876C15.2497 36.6867 15.1541 36.885 14.978 36.9907C14.8926 37.0406 14.7935 37.0622 14.6951 37.0522C14.5967 37.0423 14.504 37.0014 14.4303 36.9353L11.8047 34.4053L19.9891 26.1562H22.826L24.7429 28.0732C21.7527 30.6876 18.4186 32.8802 14.8335 34.5901V34.5901Z" fill="white"/>
<path d="M14.6617 37.4073C14.4446 37.403 14.2304 37.3139 14.0867 37.1579L11.5761 34.6473C11.5006 34.5869 11.4582 34.4949 11.4611 34.3979C11.4639 34.3081 11.5056 34.224 11.5761 34.1679L19.8173 25.9073C19.8634 25.8583 19.9237 25.8249 19.9898 25.8117H22.8454C22.9198 25.7854 23.0009 25.7854 23.0754 25.8117L24.9923 27.7286C25.0663 27.7969 25.1022 27.8975 25.0879 27.9967C25.0892 28.0443 25.0795 28.0916 25.0596 28.1349C25.0396 28.1782 25.01 28.2162 24.9729 28.2461L24.8198 28.3805C21.8175 30.8834 18.5144 33.0017 14.9873 34.6861L15.3517 36.2386C15.3798 36.3584 15.3809 36.4829 15.3548 36.6032C15.3287 36.7234 15.2761 36.8363 15.2009 36.9336C15.1256 37.0309 15.0295 37.1102 14.9197 37.1657C14.8099 37.2211 14.6891 37.2514 14.5661 37.2542L14.6617 37.4073ZM12.3236 34.3979L14.5848 36.6785C14.6058 36.6973 14.6331 36.7077 14.6613 36.7077C14.6895 36.7077 14.7168 36.6973 14.7379 36.6785C14.752 36.6589 14.7595 36.6354 14.7595 36.6113C14.7595 36.5872 14.752 36.5637 14.7379 36.5441L14.3548 34.8766C14.2929 34.6301 14.4123 34.3735 14.6423 34.2635C18.0746 32.6016 21.2925 30.5291 24.2254 28.0916L22.6534 26.5197H20.0854L12.3236 34.3979Z" fill="#CBCBCB"/>
<path d="M9.83117 36.3725L11.7481 34.4556L14.7 37.4075L10.0044 37.0819C9.83908 37.0697 9.69892 36.9525 9.65939 36.7901C9.61986 36.6276 9.68958 36.4594 9.83189 36.3732L9.83117 36.3725Z" fill="white"/>
<path d="M14.7569 37.6952L10.08 37.3696C9.80261 37.3437 9.56398 37.154 9.46623 36.9003C9.36848 36.6465 9.42814 36.3454 9.62004 36.1427L11.537 34.2258C11.6013 34.1636 11.6872 34.1289 11.7767 34.1289C11.8661 34.1289 11.952 34.1636 12.0164 34.2258L14.9489 37.1583C15.0322 37.2733 15.0322 37.4271 14.9489 37.5414C14.9043 37.6133 14.8367 37.6672 14.7569 37.6945V37.6952ZM10.08 36.6221L13.9131 36.8715L11.805 34.8971L10.08 36.6221Z" fill="#CBCBCB"/>
<path d="M23.0936 26.3875L19.2217 26.9819L21.4642 24.7588L23.0936 26.3875Z" fill="white"/>
<path d="M19.2232 27.3449C19.0917 27.3485 18.9717 27.273 18.9163 27.153C18.8755 27.0974 18.8535 27.0303 18.8535 26.9614C18.8535 26.8925 18.8755 26.8254 18.9163 26.7699L21.1394 24.5274C21.2796 24.3958 21.4974 24.3958 21.6375 24.5274L23.2676 26.156C23.3002 26.2077 23.3175 26.2675 23.3175 26.3285C23.3175 26.3896 23.3002 26.4494 23.2676 26.501C23.2517 26.564 23.2179 26.621 23.1703 26.6652C23.1228 26.7095 23.0635 26.739 22.9996 26.7505L19.1665 27.3449H19.2232ZM21.4657 25.2555L20.2201 26.501L22.3671 26.1755L21.4657 25.2555Z" fill="#CBCBCB"/>
<path d="M23.0946 26.3862L20.3921 26.7312C20.3197 26.7477 20.2441 26.7403 20.1762 26.7103C20.1084 26.6804 20.052 26.6293 20.0155 26.5648C19.979 26.5003 19.9642 26.4257 19.9734 26.3521C19.9825 26.2785 20.0152 26.2098 20.0665 26.1562L21.4659 24.7568L23.0946 26.3862Z" fill="white"/>
<path d="M20.3148 27.0962C20.0596 27.094 19.826 26.9546 19.7017 26.7318C19.6285 26.6006 19.6001 26.4491 19.6209 26.3003C19.6416 26.1515 19.7104 26.0135 19.8167 25.9074L21.2161 24.508C21.3563 24.3764 21.574 24.3764 21.7142 24.508L23.3436 26.1374C23.3921 26.1833 23.4261 26.2423 23.4418 26.3072C23.4574 26.3721 23.4538 26.4401 23.4315 26.503C23.4092 26.566 23.3691 26.6211 23.3162 26.6617C23.2632 26.7023 23.1996 26.7266 23.133 26.7318L20.4499 27.0768L20.3148 27.0962ZM20.3148 26.3868L22.3467 26.1374L21.4461 25.2368L20.2961 26.3868H20.3148ZM36.9898 12.5293C36.9537 12.4688 36.8966 12.4237 36.8295 12.4025C36.7623 12.3813 36.6897 12.3855 36.6254 12.4143C36.5937 12.4304 36.5655 12.4526 36.5425 12.4798C36.5195 12.507 36.5023 12.5385 36.4917 12.5724C36.4701 12.6407 36.4773 12.7147 36.5104 12.7787C36.6448 13.0612 36.6074 13.3954 36.4148 13.6412C36.3645 13.6886 36.3429 13.754 36.3429 13.823C36.3436 13.8904 36.3692 13.9552 36.4148 14.0049C36.464 14.0243 36.5187 14.0243 36.5679 14.0049C36.6125 14.0161 36.6594 14.0149 36.7033 14.0013C36.7473 13.9877 36.7867 13.9624 36.8173 13.928C36.9751 13.7347 37.0751 13.5008 37.1056 13.2532C37.1361 13.0056 37.096 12.7543 36.9898 12.5286V12.5293Z" fill="#CBCBCB"/>
</svg>
