<svg width="48" height="48" viewBox="0 0 48 48" fill="none" xmlns="http://www.w3.org/2000/svg">
<path d="M34.8325 34.0138C35.1195 31.6229 35.0335 31.2723 36.8143 31.6596L37.2664 31.6993C38.6357 31.7616 40.4269 31.4791 41.4792 30.9902C43.7445 29.9391 45.0878 28.1841 42.8541 28.6453C37.7589 29.6964 37.4086 27.9711 37.4086 27.9711C42.7889 19.9882 45.038 9.85463 43.0966 7.37415C37.8016 0.608277 28.6359 3.8077 28.4826 3.89077L28.4337 3.89979C27.427 3.6909 26.3003 3.5661 25.0347 3.54563C22.7289 3.50775 20.9793 4.1501 19.6522 5.15674C19.6522 5.15674 3.3012 -1.57965 4.06187 13.6284C4.22365 16.8636 8.69918 38.1086 14.0371 31.6916C15.9881 29.3452 17.8735 27.3612 17.8735 27.3612C18.8097 27.9832 19.9307 28.3004 21.1063 28.1865L21.1971 28.109C21.1687 28.4003 21.1812 28.6853 21.2335 29.0226C19.8586 30.5591 20.2626 30.8288 17.5134 31.3947C14.7319 31.968 16.366 32.9886 17.4326 33.2553C18.7261 33.5788 21.7182 34.037 23.7405 31.2066L23.66 31.5295C24.1994 31.9611 24.163 34.6313 24.2394 36.5391C24.316 38.4471 24.4438 40.2274 24.8327 41.2771C25.2216 42.3266 25.6805 45.0304 29.2936 44.256C32.3133 43.6089 34.6221 42.6775 34.8325 34.0137" fill="#AFAFAF"/>
<path d="M34.8325 34.0138C35.1195 31.6229 35.0335 31.2723 36.8143 31.6596L37.2664 31.6993C38.6357 31.7616 40.4269 31.4791 41.4792 30.9902C43.7445 29.9391 45.0878 28.1841 42.8541 28.6453C37.7589 29.6964 37.4086 27.9711 37.4086 27.9711C42.7889 19.9882 45.038 9.85463 43.0966 7.37415C37.8016 0.608277 28.6359 3.8077 28.4826 3.89077L28.4337 3.89979C27.427 3.6909 26.3003 3.5661 25.0347 3.54563C22.7289 3.50775 20.9793 4.1501 19.6522 5.15674C19.6522 5.15674 3.3012 -1.57965 4.06187 13.6284C4.22365 16.8636 8.69918 38.1086 14.0371 31.6916C15.9881 29.3452 17.8735 27.3612 17.8735 27.3612C18.8097 27.9832 19.9307 28.3004 21.1063 28.1865L21.1971 28.109C21.1687 28.4003 21.1812 28.6853 21.2335 29.0226C19.8586 30.5591 20.2626 30.8288 17.5134 31.3947C14.7319 31.968 16.366 32.9886 17.4326 33.2553C18.7261 33.5788 21.7182 34.037 23.7405 31.2066L23.66 31.5295C24.1994 31.9611 24.163 34.6313 24.2394 36.5391C24.316 38.4471 24.4438 40.2274 24.8327 41.2771C25.2216 42.3266 25.6805 45.0304 29.2936 44.256C32.3133 43.6089 34.6221 42.6775 34.8325 34.0137" stroke="#AFAFAF" stroke-width="4.56979"/>
<path d="M42.8551 28.6452C37.7594 29.6963 37.4091 27.971 37.4091 27.971C42.7894 19.9876 45.0385 9.85386 43.0975 7.37368C37.8025 0.60822 28.6364 3.80785 28.4835 3.89092L28.4342 3.89973C27.4275 3.69074 26.3008 3.56624 25.0345 3.54558C22.7288 3.50779 20.9798 4.15005 19.6527 5.15648C19.6527 5.15648 3.30139 -1.5796 4.06186 13.6284C4.22364 16.8638 8.69907 38.1087 14.0372 31.6918C15.9883 29.3453 17.8734 27.3613 17.8734 27.3613C18.8097 27.9833 19.9306 28.3006 21.1057 28.1866L21.197 28.1091C21.1686 28.4005 21.1816 28.6854 21.2336 29.0228C19.8584 30.5592 20.2625 30.829 17.5135 31.3948C14.7318 31.9681 16.3659 32.9887 17.4328 33.2555C18.7263 33.5789 21.7186 34.0371 23.7405 31.2067L23.6599 31.5297C24.1987 31.9612 24.5771 34.3369 24.5136 36.4903C24.4502 38.6439 24.4079 40.1224 24.8324 41.2773C25.257 42.4321 25.6801 45.0305 29.294 44.2562C32.3137 43.609 33.8785 41.9321 34.0962 39.1348C34.2507 37.1462 34.6003 37.4402 34.6224 35.6622L34.9028 34.8205C35.2261 32.1247 34.9541 31.2551 36.8146 31.6596L37.2667 31.6993C38.636 31.7616 40.4281 31.479 41.4799 30.9901C43.7448 29.939 45.0881 28.1841 42.8549 28.6452H42.8551Z" fill="#CBCBCB"/>
<path d="M23.9598 30.1895C23.8195 35.2055 23.9951 40.2566 24.4859 41.4841C24.977 42.7117 26.028 45.0994 29.6422 44.3251C32.6616 43.6778 33.7602 42.4251 34.2369 39.6601C34.588 37.6257 35.2649 31.9759 35.3518 30.8183" stroke="white" stroke-width="1.52326" stroke-linecap="round" stroke-linejoin="round"/>
<path d="M19.6275 5.04443C19.6275 5.04443 3.26505 -1.64313 4.02572 13.5648C4.1875 16.8002 8.66323 38.0459 14.0012 31.6286C15.9519 29.2819 17.7161 27.4413 17.7161 27.4413" stroke="white" stroke-width="1.52326" stroke-linecap="round" stroke-linejoin="round"/>
<path d="M28.4643 3.82365C27.8979 4.00124 37.566 0.289325 43.0606 7.31017C45.0014 9.79045 42.7523 19.9242 37.3722 27.9078" stroke="white" stroke-width="1.52326" stroke-linecap="round" stroke-linejoin="round"/>
<path d="M37.3749 27.9085C37.3749 27.9085 37.7255 29.6343 42.8213 28.5825C45.054 28.1213 43.7103 29.8765 41.4459 30.9281C39.5875 31.7906 35.4211 32.0116 35.353 30.8198C35.1778 27.7448 37.5459 28.679 37.375 27.9085C37.2205 27.2146 36.1615 26.5335 35.461 24.8352C34.8494 23.3528 27.0736 11.9851 37.6174 13.6734C38.0037 13.5935 34.8674 3.64432 24.9999 3.48254C15.1346 3.32076 15.4583 15.6147 15.4583 15.6147" stroke="white" stroke-width="1.52326" stroke-linecap="round" stroke-linejoin="bevel"/>
<path d="M21.1965 28.9588C19.8212 30.4952 20.2257 30.765 17.4764 31.331C14.6948 31.9044 16.3291 32.9248 17.3957 33.1914C18.6891 33.5151 21.6815 33.9733 23.7034 31.1422C24.3191 30.2802 23.6997 28.9048 22.8539 28.5542C22.4453 28.385 21.8989 28.1728 21.1965 28.9588V28.9588Z" stroke="white" stroke-width="1.52326" stroke-linecap="round" stroke-linejoin="round"/>
<path d="M21.1055 28.9328C20.9669 28.0295 21.4023 26.9546 21.8689 25.697C22.5701 23.8102 24.188 21.923 22.8937 15.9377C21.929 11.4775 15.4586 15.0095 15.4545 15.6142C15.4506 16.2188 15.7472 18.6796 15.3464 21.5453C14.8235 25.2846 17.7258 28.4472 21.0679 28.1236" stroke="white" stroke-width="1.52326" stroke-linecap="round" stroke-linejoin="round"/>
<path d="M19.5669 15.5229C19.5377 15.7295 19.9451 16.2807 20.4762 16.3543C21.0064 16.4283 21.4602 15.9975 21.489 15.7912C21.5178 15.5846 21.111 15.3571 20.5796 15.2831C20.0491 15.2091 19.5951 15.3169 19.567 15.5229H19.5669Z" fill="white" stroke="white" stroke-width="0.507751"/>
<path d="M35.7172 15.1015C35.7459 15.3081 35.3391 15.8592 34.8079 15.9329C34.2772 16.0068 33.8234 15.5761 33.7943 15.3697C33.7663 15.1632 34.1732 14.9357 34.7039 14.8617C35.2347 14.7878 35.6884 14.8955 35.7172 15.1016V15.1015Z" fill="white" stroke="white" stroke-width="0.253875"/>
<path d="M37.6149 13.6724C37.7023 15.2926 37.2659 16.3962 37.2109 18.1209C37.1294 20.628 38.4061 23.4975 36.4824 26.3705" stroke="white" stroke-width="1.52326" stroke-linecap="round" stroke-linejoin="round"/>
</svg>
