<svg width="96" height="136" viewBox="0 0 96 136" fill="none" xmlns="http://www.w3.org/2000/svg">
<path d="M69.665 68.0275C70.239 63.2459 70.067 62.5447 73.6285 63.3192L74.5328 63.3986C77.2714 63.5232 80.8538 62.9582 82.9585 61.9804C87.4891 59.8782 90.1756 56.3683 85.7082 57.2905C75.5178 59.3927 74.8172 55.9422 74.8172 55.9422C85.5777 39.9764 90.076 19.7093 86.1932 14.7483C75.6031 1.21656 57.2719 7.6154 56.9652 7.78154L56.8675 7.79957C54.854 7.3818 52.6006 7.13219 50.0693 7.09127C45.4578 7.01549 41.9587 8.30021 39.3043 10.3135C39.3043 10.3135 6.60239 -3.15929 8.12375 27.2569C8.44731 33.7272 17.3984 76.2172 28.0742 63.3832C31.9761 58.6903 35.747 54.7223 35.747 54.7223C37.6195 55.9663 39.8613 56.6009 42.2125 56.3729L42.3943 56.2179C42.3373 56.8006 42.3624 57.3706 42.467 58.0452C39.7172 61.1181 40.5252 61.6577 35.0268 62.7894C29.4639 63.9359 32.7321 65.9772 34.8653 66.5106C37.4521 67.1576 43.4365 68.0739 47.481 62.4132L47.32 63.0591C48.3988 63.9222 48.3259 69.2626 48.4789 73.0783C48.632 76.8941 48.8875 80.4549 49.6653 82.5543C50.4431 84.6532 51.3609 90.0608 58.5872 88.512C64.6266 87.2178 69.2442 85.3551 69.665 68.0273" fill="#AFAFAF"/>
<path d="M69.665 68.0275C70.239 63.2459 70.067 62.5447 73.6285 63.3192L74.5328 63.3986C77.2714 63.5232 80.8538 62.9582 82.9585 61.9804C87.4891 59.8782 90.1756 56.3683 85.7082 57.2905C75.5178 59.3927 74.8172 55.9422 74.8172 55.9422C85.5777 39.9764 90.076 19.7093 86.1932 14.7483C75.6031 1.21655 57.2719 7.6154 56.9652 7.78154L56.8675 7.79957C54.854 7.3818 52.6006 7.13219 50.0693 7.09127C45.4578 7.01549 41.9587 8.30021 39.3043 10.3135C39.3043 10.3135 6.60239 -3.15929 8.12375 27.2569C8.44731 33.7272 17.3984 76.2172 28.0742 63.3832C31.9761 58.6903 35.747 54.7223 35.747 54.7223C37.6195 55.9663 39.8613 56.6009 42.2125 56.3729L42.3943 56.2179C42.3373 56.8006 42.3624 57.3706 42.467 58.0452C39.7172 61.1181 40.5252 61.6577 35.0268 62.7894C29.4639 63.9359 32.7321 65.9772 34.8653 66.5106C37.4521 67.1576 43.4365 68.0739 47.481 62.4132L47.32 63.0591C48.3988 63.9222 48.3259 69.2626 48.4789 73.0783C48.632 76.8941 48.8875 80.4549 49.6653 82.5543C50.4431 84.6532 51.3609 90.0608 58.5872 88.512C64.6266 87.2178 69.2442 85.3551 69.665 68.0273" stroke="#AFAFAF" stroke-width="4.56979"/>
<path d="M85.7102 57.2904C75.5188 59.3926 74.8182 55.9421 74.8182 55.9421C85.5787 39.9752 90.0769 19.7077 86.195 14.7474C75.6049 1.21644 57.2729 7.6157 56.9669 7.78183L56.8685 7.79946C54.855 7.38149 52.6016 7.13249 50.0691 7.09115C45.4576 7.01558 41.9596 8.30009 39.3053 10.313C39.3053 10.313 6.60277 -3.1592 8.12372 27.2568C8.44728 33.7275 17.3981 76.2175 28.0744 63.3835C31.9765 58.6906 35.7468 54.7226 35.7468 54.7226C37.6194 55.9666 39.8613 56.6012 42.2115 56.3732L42.394 56.2182C42.3373 56.8009 42.3632 57.3708 42.4672 58.0455C39.7168 61.1184 40.525 61.6579 35.0269 62.7897C29.4636 63.9362 32.7318 65.9775 34.8657 66.5109C37.4525 67.1578 43.4372 68.0742 47.481 62.4135L47.3197 63.0594C48.3974 63.9225 49.1541 68.6737 49.0273 72.9807C48.9005 77.2879 48.8158 80.2449 49.6649 82.5546C50.514 84.8642 51.3603 90.061 58.588 88.5123C64.6274 87.2181 67.757 83.8642 68.1924 78.2697C68.5014 74.2924 69.2006 74.8803 69.2448 71.3244L69.8056 69.641C70.4523 64.2495 69.9083 62.5101 73.6291 63.3191L74.5333 63.3985C77.2719 63.5231 80.8562 62.9581 82.9598 61.9803C87.4897 59.8781 90.1762 56.3682 85.7098 57.2904H85.7102Z" fill="#CBCBCB"/>
<path d="M47.9197 60.3794C47.6391 70.4115 47.9902 80.5136 48.9718 82.9688C49.954 85.4239 52.056 90.1993 59.2843 88.6508C65.3232 87.3561 67.5204 84.8507 68.4739 79.3207C69.1761 75.252 70.5299 63.9523 70.7035 61.6372" stroke="white" stroke-width="1.52326" stroke-linecap="round" stroke-linejoin="round"/>
<path d="M39.2549 10.0889C39.2549 10.0889 6.53009 -3.28627 8.05145 27.1297C8.37501 33.6005 17.3265 76.0918 28.0025 63.2573C31.9038 58.5637 35.4322 54.8826 35.4322 54.8826" stroke="white" stroke-width="1.52326" stroke-linecap="round" stroke-linejoin="round"/>
<path d="M56.9285 7.64731C55.7957 8.00247 75.1321 0.578649 86.1211 14.6203C90.0028 19.5809 85.5046 39.8484 74.7443 55.8156" stroke="white" stroke-width="1.52326" stroke-linecap="round" stroke-linejoin="round"/>
<path d="M74.7497 55.817C74.7497 55.817 75.4509 59.2686 85.6425 57.1649C90.1079 56.2427 87.4206 59.753 82.8918 61.8562C79.175 63.5812 70.8421 64.0233 70.706 61.6397C70.3557 55.4896 75.0917 57.358 74.7499 55.817C74.441 54.4292 72.3229 53.0671 70.9219 49.6704C69.6988 46.7057 54.1471 23.9703 75.2348 27.3469C76.0073 27.187 69.7349 7.28864 49.9998 6.96508C30.2692 6.64152 30.9165 31.2294 30.9165 31.2294" stroke="white" stroke-width="1.52326" stroke-linecap="round" stroke-linejoin="bevel"/>
<path d="M42.3941 57.9172C39.6433 60.9899 40.4523 61.5294 34.9538 62.6616C29.3905 63.8083 32.6591 65.8492 34.7923 66.3824C37.3792 67.0297 43.3639 67.9461 47.4077 62.2839C48.6391 60.56 47.4004 57.8092 45.7089 57.108C44.8916 56.7694 43.7987 56.3452 42.3941 57.9172V57.9172Z" stroke="white" stroke-width="1.52326" stroke-linecap="round" stroke-linejoin="round"/>
<path d="M42.2119 57.8652C41.9347 56.0585 42.8055 53.9087 43.7387 51.3936C45.1411 47.6199 48.3769 43.8456 45.7885 31.8749C43.8591 22.9544 30.9181 30.0184 30.91 31.228C30.9021 32.4371 31.4953 37.3588 30.6938 43.09C29.648 50.5688 35.4526 56.8939 42.1367 56.2468" stroke="white" stroke-width="1.52326" stroke-linecap="round" stroke-linejoin="round"/>
<path d="M39.1338 31.0459C39.0755 31.459 39.8901 32.5613 40.9524 32.7086C42.0128 32.8565 42.9205 31.9951 42.978 31.5823C43.0356 31.1692 42.2219 30.7142 41.1592 30.5663C40.0982 30.4182 39.1901 30.6338 39.134 31.0459H39.1338Z" fill="white" stroke="white" stroke-width="0.507751"/>
<path d="M71.4343 30.203C71.4918 30.6161 70.6782 31.7185 69.6157 31.8658C68.5545 32.0137 67.6468 31.1522 67.5887 30.7395C67.5326 30.3264 68.3464 29.8713 69.4079 29.7234C70.4693 29.5755 71.3768 29.7909 71.4343 30.2032V30.203Z" fill="white" stroke="white" stroke-width="0.253875"/>
<path d="M75.2298 27.3452C75.4046 30.5857 74.5318 32.7928 74.4218 36.2424C74.2589 41.2564 76.8123 46.9954 72.9648 52.7415" stroke="white" stroke-width="1.52326" stroke-linecap="round" stroke-linejoin="round"/>
<path d="M12.0396 122.112C12.0396 123.04 11.7196 123.813 11.0796 124.432C10.4502 125.04 9.4849 125.344 8.18356 125.344H6.03956V130H4.58356V118.848H8.18356C9.44223 118.848 10.3969 119.152 11.0476 119.76C11.7089 120.368 12.0396 121.152 12.0396 122.112ZM8.18356 124.144C8.99423 124.144 9.59156 123.968 9.97556 123.616C10.3596 123.264 10.5516 122.763 10.5516 122.112C10.5516 120.736 9.76223 120.048 8.18356 120.048H6.03956V124.144H8.18356ZM17.6732 130.144C16.8519 130.144 16.1052 129.957 15.4332 129.584C14.7719 129.211 14.2492 128.683 13.8652 128C13.4919 127.307 13.3052 126.507 13.3052 125.6C13.3052 124.704 13.4972 123.915 13.8812 123.232C14.2759 122.539 14.8092 122.011 15.4812 121.648C16.1532 121.275 16.9052 121.088 17.7372 121.088C18.5692 121.088 19.3212 121.275 19.9932 121.648C20.6652 122.011 21.1932 122.533 21.5772 123.216C21.9719 123.899 22.1692 124.693 22.1692 125.6C22.1692 126.507 21.9665 127.307 21.5612 128C21.1665 128.683 20.6279 129.211 19.9452 129.584C19.2625 129.957 18.5052 130.144 17.6732 130.144ZM17.6732 128.864C18.1959 128.864 18.6865 128.741 19.1452 128.496C19.6039 128.251 19.9719 127.883 20.2492 127.392C20.5372 126.901 20.6812 126.304 20.6812 125.6C20.6812 124.896 20.5425 124.299 20.2652 123.808C19.9879 123.317 19.6252 122.955 19.1772 122.72C18.7292 122.475 18.2439 122.352 17.7212 122.352C17.1879 122.352 16.6972 122.475 16.2492 122.72C15.8119 122.955 15.4599 123.317 15.1932 123.808C14.9265 124.299 14.7932 124.896 14.7932 125.6C14.7932 126.315 14.9212 126.917 15.1772 127.408C15.4439 127.899 15.7959 128.267 16.2332 128.512C16.6705 128.747 17.1505 128.864 17.6732 128.864ZM27.1876 130.144C26.5156 130.144 25.9129 130.032 25.3796 129.808C24.8462 129.573 24.4249 129.253 24.1156 128.848C23.8062 128.432 23.6356 127.957 23.6036 127.424H25.1076C25.1502 127.861 25.3529 128.219 25.7156 128.496C26.0889 128.773 26.5742 128.912 27.1716 128.912C27.7262 128.912 28.1636 128.789 28.4836 128.544C28.8036 128.299 28.9636 127.989 28.9636 127.616C28.9636 127.232 28.7929 126.949 28.4516 126.768C28.1102 126.576 27.5822 126.389 26.8676 126.208C26.2169 126.037 25.6836 125.867 25.2676 125.696C24.8622 125.515 24.5102 125.253 24.2116 124.912C23.9236 124.56 23.7796 124.101 23.7796 123.536C23.7796 123.088 23.9129 122.677 24.1796 122.304C24.4462 121.931 24.8249 121.637 25.3156 121.424C25.8062 121.2 26.3662 121.088 26.9956 121.088C27.9662 121.088 28.7502 121.333 29.3476 121.824C29.9449 122.315 30.2649 122.987 30.3076 123.84H28.8516C28.8196 123.381 28.6329 123.013 28.2916 122.736C27.9609 122.459 27.5129 122.32 26.9476 122.32C26.4249 122.32 26.0089 122.432 25.6996 122.656C25.3902 122.88 25.2356 123.173 25.2356 123.536C25.2356 123.824 25.3262 124.064 25.5076 124.256C25.6996 124.437 25.9342 124.587 26.2116 124.704C26.4996 124.811 26.8942 124.933 27.3956 125.072C28.0249 125.243 28.5369 125.413 28.9316 125.584C29.3262 125.744 29.6622 125.989 29.9396 126.32C30.2276 126.651 30.3769 127.083 30.3876 127.616C30.3876 128.096 30.2542 128.528 29.9876 128.912C29.7209 129.296 29.3422 129.6 28.8516 129.824C28.3716 130.037 27.8169 130.144 27.1876 130.144ZM34.2189 122.432V127.6C34.2189 128.027 34.3096 128.331 34.4909 128.512C34.6723 128.683 34.9869 128.768 35.4349 128.768H36.5069V130H35.1949C34.3843 130 33.7763 129.813 33.3709 129.44C32.9656 129.067 32.7629 128.453 32.7629 127.6V122.432H31.6269V121.232H32.7629V119.024H34.2189V121.232H36.5069V122.432H34.2189ZM41.8871 121.088C42.6444 121.088 43.3057 121.253 43.8711 121.584C44.4471 121.915 44.8737 122.331 45.1511 122.832V121.232H46.6231V130.192C46.6231 130.992 46.4524 131.701 46.1111 132.32C45.7697 132.949 45.2791 133.44 44.6391 133.792C44.0097 134.144 43.2737 134.32 42.4311 134.32C41.2791 134.32 40.3191 134.048 39.5511 133.504C38.7831 132.96 38.3297 132.219 38.1911 131.28H39.6311C39.7911 131.813 40.1217 132.24 40.6231 132.56C41.1244 132.891 41.7271 133.056 42.4311 133.056C43.2311 133.056 43.8817 132.805 44.3831 132.304C44.8951 131.803 45.1511 131.099 45.1511 130.192V128.352C44.8631 128.864 44.4364 129.291 43.8711 129.632C43.3057 129.973 42.6444 130.144 41.8871 130.144C41.1084 130.144 40.3991 129.952 39.7591 129.568C39.1297 129.184 38.6337 128.645 38.2711 127.952C37.9084 127.259 37.7271 126.469 37.7271 125.584C37.7271 124.688 37.9084 123.904 38.2711 123.232C38.6337 122.549 39.1297 122.021 39.7591 121.648C40.3991 121.275 41.1084 121.088 41.8871 121.088ZM45.1511 125.6C45.1511 124.939 45.0177 124.363 44.7511 123.872C44.4844 123.381 44.1217 123.008 43.6631 122.752C43.2151 122.485 42.7191 122.352 42.1751 122.352C41.6311 122.352 41.1351 122.48 40.6871 122.736C40.2391 122.992 39.8817 123.365 39.6151 123.856C39.3484 124.347 39.2151 124.923 39.2151 125.584C39.2151 126.256 39.3484 126.843 39.6151 127.344C39.8817 127.835 40.2391 128.213 40.6871 128.48C41.1351 128.736 41.6311 128.864 42.1751 128.864C42.7191 128.864 43.2151 128.736 43.6631 128.48C44.1217 128.213 44.4844 127.835 44.7511 127.344C45.0177 126.843 45.1511 126.261 45.1511 125.6ZM50.5396 122.656C50.7956 122.155 51.1582 121.765 51.6276 121.488C52.1076 121.211 52.6889 121.072 53.3716 121.072V122.576H52.9876C51.3556 122.576 50.5396 123.461 50.5396 125.232V130H49.0836V121.232H50.5396V122.656ZM63.0523 125.28C63.0523 125.557 63.0363 125.851 63.0043 126.16H55.9963C56.0496 127.024 56.343 127.701 56.8763 128.192C57.4203 128.672 58.0763 128.912 58.8443 128.912C59.4736 128.912 59.9963 128.768 60.4123 128.48C60.839 128.181 61.1376 127.787 61.3083 127.296H62.8763C62.6416 128.139 62.1723 128.827 61.4683 129.36C60.7643 129.883 59.8896 130.144 58.8443 130.144C58.0123 130.144 57.2656 129.957 56.6043 129.584C55.9536 129.211 55.4416 128.683 55.0683 128C54.695 127.307 54.5083 126.507 54.5083 125.6C54.5083 124.693 54.6896 123.899 55.0523 123.216C55.415 122.533 55.9216 122.011 56.5723 121.648C57.2336 121.275 57.991 121.088 58.8443 121.088C59.6763 121.088 60.4123 121.269 61.0523 121.632C61.6923 121.995 62.183 122.496 62.5243 123.136C62.8763 123.765 63.0523 124.48 63.0523 125.28ZM61.5483 124.976C61.5483 124.421 61.4256 123.947 61.1803 123.552C60.935 123.147 60.599 122.843 60.1723 122.64C59.7563 122.427 59.2923 122.32 58.7803 122.32C58.0443 122.32 57.415 122.555 56.8923 123.024C56.3803 123.493 56.087 124.144 56.0123 124.976H61.5483ZM68.5102 130.112C67.7742 130.112 67.1129 129.984 66.5262 129.728C65.9502 129.461 65.4969 129.099 65.1662 128.64C64.8355 128.171 64.6649 127.632 64.6542 127.024H66.2062C66.2595 127.547 66.4729 127.989 66.8462 128.352C67.2302 128.704 67.7849 128.88 68.5102 128.88C69.2035 128.88 69.7475 128.709 70.1422 128.368C70.5475 128.016 70.7502 127.568 70.7502 127.024C70.7502 126.597 70.6329 126.251 70.3982 125.984C70.1635 125.717 69.8702 125.515 69.5182 125.376C69.1662 125.237 68.6915 125.088 68.0942 124.928C67.3582 124.736 66.7662 124.544 66.3182 124.352C65.8809 124.16 65.5022 123.861 65.1822 123.456C64.8729 123.04 64.7182 122.485 64.7182 121.792C64.7182 121.184 64.8729 120.645 65.1822 120.176C65.4915 119.707 65.9235 119.344 66.4782 119.088C67.0435 118.832 67.6889 118.704 68.4142 118.704C69.4595 118.704 70.3129 118.965 70.9742 119.488C71.6462 120.011 72.0249 120.704 72.1102 121.568H70.5102C70.4569 121.141 70.2329 120.768 69.8382 120.448C69.4435 120.117 68.9209 119.952 68.2702 119.952C67.6622 119.952 67.1662 120.112 66.7822 120.432C66.3982 120.741 66.2062 121.179 66.2062 121.744C66.2062 122.149 66.3182 122.48 66.5422 122.736C66.7769 122.992 67.0595 123.189 67.3902 123.328C67.7315 123.456 68.2062 123.605 68.8142 123.776C69.5502 123.979 70.1422 124.181 70.5902 124.384C71.0382 124.576 71.4222 124.88 71.7422 125.296C72.0622 125.701 72.2222 126.256 72.2222 126.96C72.2222 127.504 72.0782 128.016 71.7902 128.496C71.5022 128.976 71.0755 129.365 70.5102 129.664C69.9449 129.963 69.2782 130.112 68.5102 130.112ZM83.3088 132.112L81.0848 129.888C80.5408 130.037 79.9861 130.112 79.4208 130.112C78.3861 130.112 77.4421 129.872 76.5888 129.392C75.7355 128.901 75.0581 128.224 74.5568 127.36C74.0661 126.485 73.8208 125.504 73.8208 124.416C73.8208 123.328 74.0661 122.352 74.5568 121.488C75.0581 120.613 75.7355 119.936 76.5888 119.456C77.4421 118.965 78.3861 118.72 79.4208 118.72C80.4661 118.72 81.4155 118.965 82.2688 119.456C83.1221 119.936 83.7941 120.608 84.2848 121.472C84.7755 122.336 85.0208 123.317 85.0208 124.416C85.0208 125.483 84.7861 126.443 84.3168 127.296C83.8475 128.149 83.2021 128.821 82.3808 129.312L85.1968 132.112H83.3088ZM75.3088 124.416C75.3088 125.301 75.4848 126.08 75.8368 126.752C76.1995 127.424 76.6901 127.941 77.3088 128.304C77.9381 128.667 78.6421 128.848 79.4208 128.848C80.1995 128.848 80.8981 128.667 81.5168 128.304C82.1461 127.941 82.6368 127.424 82.9888 126.752C83.3515 126.08 83.5328 125.301 83.5328 124.416C83.5328 123.52 83.3515 122.741 82.9888 122.08C82.6368 121.408 82.1515 120.891 81.5328 120.528C80.9141 120.165 80.2101 119.984 79.4208 119.984C78.6315 119.984 77.9275 120.165 77.3088 120.528C76.6901 120.891 76.1995 121.408 75.8368 122.08C75.4848 122.741 75.3088 123.52 75.3088 124.416ZM88.4302 128.816H92.3342V130H86.9742V118.848H88.4302V128.816Z" fill="#AFAFAF"/>
</svg>
