<svg width="96" height="136" viewBox="0 0 96 136" fill="none" xmlns="http://www.w3.org/2000/svg">
<path fill-rule="evenodd" clip-rule="evenodd" d="M11.1262 44.8167C11.3138 44.8302 11.4266 44.8456 11.5393 44.8456C15.0413 44.8457 18.5446 44.8983 22.0448 44.8175C23.5059 44.7839 24.9855 44.5774 26.4129 44.2552C29.3741 43.587 31.5673 41.9666 32.3782 38.8761C33.0424 36.3448 33.1334 33.7824 32.6614 31.2122C32.105 28.1837 30.3614 26.1429 27.3505 25.4278C25.5508 25.0004 23.6831 24.7281 21.8359 24.6609C18.5225 24.5403 15.2016 24.6262 11.8838 24.6283C11.6395 24.6284 11.3951 24.6486 11.1262 24.6605C11.1262 31.4066 11.1262 38.08 11.1262 44.8167ZM2 18C2.29698 18.0187 2.59383 18.0536 2.89081 18.0538C9.59309 18.057 16.2955 18.0267 22.9975 18.0691C26.1783 18.0892 29.3294 18.422 32.3935 19.3772C37.9205 21.1005 41.1776 25.0789 41.8147 30.838C42.1464 33.837 42.103 36.8096 41.476 39.7617C40.3588 45.0218 37.0681 48.3107 32.0836 50.0459C29.2713 51.0249 26.3561 51.3939 23.3995 51.4246C19.5997 51.4639 15.7992 51.434 11.9988 51.434C11.7278 51.434 11.4567 51.434 11.108 51.434C11.108 60.212 11.108 68.9261 11.108 77.7283C8.02011 77.7283 5.01006 77.7283 2 77.7283C2 57.8188 2 37.9094 2 18Z" fill="#CBCBCB"/>
<path fill-rule="evenodd" clip-rule="evenodd" d="M95.4846 77.7161C92.6171 77.7161 89.8311 77.7161 87.0438 77.7161C85.4538 77.7161 83.8638 77.6941 82.2752 77.7285C81.7499 77.74 81.4554 77.5952 81.2051 77.1098C77.5163 69.9532 73.8068 62.8067 70.1001 55.6594C65.037 45.8983 59.9712 36.1386 54.9053 26.3792C54.8155 26.2068 54.7035 26.046 54.4781 25.9121C54.4781 43.1495 54.4781 60.387 54.4781 77.6702C51.7917 77.6702 49.1786 77.6702 46.5254 77.6702C46.5254 57.8228 46.5254 37.9956 46.5254 18.0936C46.7369 18.0807 46.9581 18.0557 47.1807 18.0556C51.3272 18.0532 55.475 18.0611 59.6214 18.044C60.0984 18.042 60.3458 18.1855 60.5726 18.6227C69.3853 35.6121 78.2146 52.5933 87.0424 69.5749C87.1351 69.7519 87.2415 69.9217 87.4766 70.0691C87.4766 52.7683 87.4766 35.4675 87.4766 18.1103C90.1989 18.1103 92.83 18.1103 95.4846 18.1103C95.4846 37.9769 95.4846 57.804 95.4846 77.7161Z" fill="#CBCBCB"/>
<path d="M25.8911 122.112C25.8911 123.04 25.5711 123.813 24.9311 124.432C24.3018 125.04 23.3365 125.344 22.0351 125.344H19.8911V130H18.4351V118.848H22.0351C23.2938 118.848 24.2485 119.152 24.8991 119.76C25.5605 120.368 25.8911 121.152 25.8911 122.112ZM22.0351 124.144C22.8458 124.144 23.4431 123.968 23.8271 123.616C24.2111 123.264 24.4031 122.763 24.4031 122.112C24.4031 120.736 23.6138 120.048 22.0351 120.048H19.8911V124.144H22.0351ZM35.4768 121.232V130H34.0208V128.704C33.7434 129.152 33.3541 129.504 32.8528 129.76C32.3621 130.005 31.8181 130.128 31.2208 130.128C30.5381 130.128 29.9248 129.989 29.3808 129.712C28.8368 129.424 28.4048 128.997 28.0848 128.432C27.7754 127.867 27.6208 127.179 27.6208 126.368V121.232H29.0608V126.176C29.0608 127.04 29.2794 127.707 29.7168 128.176C30.1541 128.635 30.7514 128.864 31.5088 128.864C32.2874 128.864 32.9008 128.624 33.3488 128.144C33.7968 127.664 34.0208 126.965 34.0208 126.048V121.232H35.4768ZM39.3911 122.864C39.6898 122.341 40.1271 121.915 40.7031 121.584C41.2791 121.253 41.9351 121.088 42.6711 121.088C43.4605 121.088 44.1698 121.275 44.7991 121.648C45.4285 122.021 45.9245 122.549 46.2871 123.232C46.6498 123.904 46.8311 124.688 46.8311 125.584C46.8311 126.469 46.6498 127.259 46.2871 127.952C45.9245 128.645 45.4231 129.184 44.7831 129.568C44.1538 129.952 43.4498 130.144 42.6711 130.144C41.9138 130.144 41.2471 129.979 40.6711 129.648C40.1058 129.317 39.6791 128.896 39.3911 128.384V130H37.9351V118.16H39.3911V122.864ZM45.3431 125.584C45.3431 124.923 45.2098 124.347 44.9431 123.856C44.6765 123.365 44.3138 122.992 43.8551 122.736C43.4071 122.48 42.9111 122.352 42.3671 122.352C41.8338 122.352 41.3378 122.485 40.8791 122.752C40.4311 123.008 40.0685 123.387 39.7911 123.888C39.5245 124.379 39.3911 124.949 39.3911 125.6C39.3911 126.261 39.5245 126.843 39.7911 127.344C40.0685 127.835 40.4311 128.213 40.8791 128.48C41.3378 128.736 41.8338 128.864 42.3671 128.864C42.9111 128.864 43.4071 128.736 43.8551 128.48C44.3138 128.213 44.6765 127.835 44.9431 127.344C45.2098 126.843 45.3431 126.256 45.3431 125.584ZM53.0196 121.072C54.0863 121.072 54.9503 121.397 55.6116 122.048C56.273 122.688 56.6036 123.616 56.6036 124.832V130H55.1636V125.04C55.1636 124.165 54.945 123.499 54.5076 123.04C54.0703 122.571 53.473 122.336 52.7156 122.336C51.9476 122.336 51.3343 122.576 50.8756 123.056C50.4276 123.536 50.2036 124.235 50.2036 125.152V130H48.7476V121.232H50.2036V122.48C50.4916 122.032 50.881 121.685 51.3716 121.44C51.873 121.195 52.4223 121.072 53.0196 121.072ZM66.758 121.232V130H65.302V128.704C65.0247 129.152 64.6353 129.504 64.134 129.76C63.6433 130.005 63.0993 130.128 62.502 130.128C61.8193 130.128 61.206 129.989 60.662 129.712C60.118 129.424 59.686 128.997 59.366 128.432C59.0567 127.867 58.902 127.179 58.902 126.368V121.232H60.342V126.176C60.342 127.04 60.5607 127.707 60.998 128.176C61.4353 128.635 62.0327 128.864 62.79 128.864C63.5687 128.864 64.182 128.624 64.63 128.144C65.078 127.664 65.302 126.965 65.302 126.048V121.232H66.758ZM70.6724 122.864C70.971 122.341 71.4084 121.915 71.9844 121.584C72.5604 121.253 73.2164 121.088 73.9524 121.088C74.7417 121.088 75.451 121.275 76.0804 121.648C76.7097 122.021 77.2057 122.549 77.5684 123.232C77.931 123.904 78.1124 124.688 78.1124 125.584C78.1124 126.469 77.931 127.259 77.5684 127.952C77.2057 128.645 76.7044 129.184 76.0644 129.568C75.435 129.952 74.731 130.144 73.9524 130.144C73.195 130.144 72.5284 129.979 71.9524 129.648C71.387 129.317 70.9604 128.896 70.6724 128.384V130H69.2164V118.16H70.6724V122.864ZM76.6244 125.584C76.6244 124.923 76.491 124.347 76.2244 123.856C75.9577 123.365 75.595 122.992 75.1364 122.736C74.6884 122.48 74.1924 122.352 73.6484 122.352C73.115 122.352 72.619 122.485 72.1604 122.752C71.7124 123.008 71.3497 123.387 71.0724 123.888C70.8057 124.379 70.6724 124.949 70.6724 125.6C70.6724 126.261 70.8057 126.843 71.0724 127.344C71.3497 127.835 71.7124 128.213 72.1604 128.48C72.619 128.736 73.115 128.864 73.6484 128.864C74.1924 128.864 74.6884 128.736 75.1364 128.48C75.595 128.213 75.9577 127.835 76.2244 127.344C76.491 126.843 76.6244 126.256 76.6244 125.584Z" fill="#AFAFAF"/>
</svg>
