<svg width="48" height="48" viewBox="0 0 48 48" fill="none" xmlns="http://www.w3.org/2000/svg">
<path d="M35.2949 29.7732L36.6804 26.2778H40.6805L38.7818 20.9753L41.1562 14.9849L47.9565 32.9998H42.9415L41.7795 29.7732H35.2949Z" fill="#CBCBCB"/>
<path d="M31.015 32.0149L38.2947 14L33.4686 14.0004L28.4886 25.642L24.9472 14.0004H21.2377L17.4355 25.642L14.7539 20.3368L12.3271 27.7963L14.7912 32.0149H19.5408L22.9769 21.5749L26.2526 32.0149H31.015Z" fill="#CBCBCB"/>
<path d="M4.5812 25.8309H7.55395C8.4545 25.8309 9.25623 25.7308 9.95952 25.5301L10.7282 23.1672L12.8769 16.5622C12.7135 16.3036 12.5266 16.0584 12.3163 15.8278C11.2131 14.6093 9.59884 14.0005 7.47397 14.0005H0V32.0154H4.5812V25.8309ZM8.51603 18.1447C8.94708 18.5775 9.16241 19.1568 9.16241 19.8819C9.16241 20.6132 8.97284 21.1929 8.59408 21.6214C8.17841 22.0975 7.4136 22.3358 6.29925 22.3358H4.5812V17.496H6.31194C7.35054 17.496 8.08536 17.712 8.51603 18.1447Z" fill="#CBCBCB"/>
</svg>
