<svg width="48" height="48" viewBox="0 0 48 48" fill="none" xmlns="http://www.w3.org/2000/svg">
<g clip-path="url(#clip0_361_991)">
<path d="M38.1064 13.952C45.9645 21.7391 45.9645 34.231 38.1064 42.0722C30.412 49.8593 17.7517 49.8593 9.89359 42.0722C2.03547 34.2851 2.03547 21.7391 9.89359 13.952L23.9727 0V6.97598L22.663 8.27384L13.3315 17.5211C7.43793 23.2533 7.43793 32.6627 13.3315 38.5031C19.116 44.3434 28.6112 44.3434 34.5048 38.5031C40.3984 32.7709 40.3984 23.3614 34.5048 17.5211L38.1064 13.952ZM31.0668 13.0867C29.6202 13.0867 28.4475 11.9246 28.4475 10.491C28.4475 9.05744 29.6202 7.8953 31.0668 7.8953C32.5135 7.8953 33.6862 9.05744 33.6862 10.491C33.6862 11.9246 32.5135 13.0867 31.0668 13.0867Z" fill="#CBCBCB"/>
</g>
<defs>
<clipPath id="clip0_361_991">
<rect width="40" height="48" fill="white" transform="translate(4)"/>
</clipPath>
</defs>
</svg>
