<svg width="48" height="48" viewBox="0 0 48 48" fill="none" xmlns="http://www.w3.org/2000/svg">
<path d="M47.0394 23.5047C47.0394 20.4548 43.22 17.5644 37.3642 15.772C38.7155 9.80362 38.1149 5.05516 35.4685 3.5349C34.8585 3.1783 34.1453 3.00938 33.3664 3.00938V5.10208C33.7981 5.10208 34.1453 5.18654 34.4363 5.34607C35.7125 6.07805 36.2662 8.86519 35.8345 12.45C35.7313 13.3321 35.5624 14.2612 35.3559 15.209C33.5166 14.7585 31.5083 14.4113 29.3969 14.1861C28.13 12.45 26.8162 10.8734 25.493 9.49393C28.5523 6.65049 31.4239 5.0927 33.3758 5.0927V3C30.7951 3 27.4168 4.83932 24.0009 8.02998C20.585 4.85809 17.2067 3.03754 14.626 3.03754V5.13024C16.5685 5.13024 19.4495 6.67864 22.5088 9.50332C21.195 10.8828 19.8812 12.45 18.6331 14.1861C16.5122 14.4113 14.504 14.7585 12.6647 15.2184C12.4488 14.2799 12.2893 13.3696 12.1767 12.4969C11.7356 8.91211 12.2799 6.12497 13.5468 5.38361C13.8283 5.21469 14.1943 5.13962 14.626 5.13962V3.04692C13.8377 3.04692 13.1245 3.21584 12.5051 3.57244C9.86816 5.0927 9.27695 9.83177 10.6377 15.7814C4.80064 17.5832 1 20.4642 1 23.5047C1 26.5546 4.81941 29.4449 10.6752 31.2374C9.32387 37.2058 9.92447 41.9542 12.5708 43.4745C13.1808 43.8311 13.894 44 14.6823 44C17.263 44 20.6413 42.1607 24.0572 38.97C27.4731 42.1419 30.8514 43.9625 33.4321 43.9625C34.2204 43.9625 34.9336 43.7935 35.553 43.4369C38.19 41.9167 38.7812 37.1776 37.4205 31.228C43.2387 29.4356 47.0394 26.5452 47.0394 23.5047ZM34.821 17.2454C34.4738 18.4559 34.0421 19.704 33.5541 20.9522C33.1694 20.2014 32.7658 19.4507 32.3248 18.6999C31.8931 17.9492 31.4333 17.2172 30.9734 16.504C32.306 16.7011 33.5917 16.9451 34.821 17.2454ZM30.523 27.2396C29.791 28.5065 29.0403 29.7077 28.2614 30.8244C26.8631 30.9464 25.4461 31.0121 24.0197 31.0121C22.6027 31.0121 21.1856 30.9464 19.7967 30.8338C19.0179 29.7171 18.2577 28.5253 17.5257 27.2678C16.8125 26.0385 16.165 24.7903 15.5738 23.5328C16.1556 22.2753 16.8125 21.0179 17.5164 19.7885C18.2483 18.5216 18.9991 17.3204 19.778 16.2037C21.1762 16.0817 22.5933 16.016 24.0197 16.016C25.4367 16.016 26.8537 16.0817 28.2426 16.1943C29.0215 17.3111 29.7816 18.5029 30.5136 19.7604C31.2268 20.9897 31.8743 22.2378 32.4655 23.4953C31.8743 24.7528 31.2268 26.0103 30.523 27.2396ZM33.5541 26.0197C34.0609 27.2772 34.4926 28.5347 34.8492 29.7546C33.6198 30.0549 32.3248 30.3083 30.9828 30.5054C31.4427 29.7828 31.9025 29.0414 32.3342 28.2813C32.7658 27.5306 33.1694 26.7704 33.5541 26.0197ZM24.0385 36.0327C23.1657 35.1318 22.293 34.1277 21.4296 33.0298C22.2742 33.0673 23.1376 33.0954 24.0103 33.0954C24.8924 33.0954 25.7652 33.0767 26.6191 33.0298C25.7745 34.1277 24.9018 35.1318 24.0385 36.0327ZM17.0565 30.5054C15.724 30.3083 14.4383 30.0643 13.209 29.764C13.5562 28.5534 13.9879 27.3053 14.4759 26.0572C14.8606 26.808 15.2641 27.5587 15.7052 28.3095C16.1463 29.0602 16.5967 29.7922 17.0565 30.5054ZM23.9915 10.9767C24.8643 11.8775 25.737 12.8817 26.6004 13.9796C25.7558 13.9421 24.8924 13.9139 24.0197 13.9139C23.1376 13.9139 22.2648 13.9327 21.4108 13.9796C22.2554 12.8817 23.1282 11.8775 23.9915 10.9767ZM17.0472 16.504C16.5873 17.2266 16.1275 17.968 15.6958 18.7281C15.2641 19.4788 14.8606 20.2296 14.4759 20.9803C13.9691 19.7228 13.5374 18.4653 13.1808 17.2454C14.4102 16.9545 15.7052 16.7011 17.0472 16.504ZM8.55436 28.2531C5.23232 26.8361 3.08331 24.978 3.08331 23.5047C3.08331 22.0314 5.23232 20.1639 8.55436 18.7562C9.36141 18.409 10.2435 18.0993 11.1538 17.8084C11.6887 19.6477 12.3925 21.5621 13.2653 23.5235C12.4019 25.4754 11.7075 27.3804 11.182 29.2103C10.2529 28.9194 9.37079 28.6004 8.55436 28.2531ZM13.6031 41.6633C12.3268 40.9313 11.7732 38.1442 12.2049 34.5594C12.3081 33.6773 12.477 32.7482 12.6835 31.8004C14.5228 32.2509 16.531 32.5981 18.6425 32.8233C19.9094 34.5594 21.2232 36.136 22.5463 37.5154C19.4871 40.3589 16.6155 41.9167 14.6635 41.9167C14.2412 41.9073 13.8846 41.8228 13.6031 41.6633ZM35.8627 34.5125C36.3037 38.0973 35.7594 40.8844 34.4926 41.6258C34.211 41.7947 33.845 41.8698 33.4134 41.8698C31.4708 41.8698 28.5898 40.3214 25.5306 37.4967C26.8444 36.1172 28.1582 34.55 29.4063 32.8139C31.5271 32.5887 33.5354 32.2415 35.3747 31.7816C35.5905 32.7295 35.7594 33.6397 35.8627 34.5125ZM39.4756 28.2531C38.6686 28.6004 37.7864 28.91 36.8762 29.201C36.3413 27.3616 35.6374 25.4472 34.7647 23.4859C35.6281 21.534 36.3225 19.629 36.848 17.799C37.7771 18.09 38.6592 18.409 39.485 18.7562C42.807 20.1733 44.956 22.0314 44.956 23.5047C44.9467 24.978 42.7977 26.8455 39.4756 28.2531Z" fill="#CBCBCB"/>
<path d="M24.0113 27.7931C26.3798 27.7931 28.2999 25.873 28.2999 23.5044C28.2999 21.1359 26.3798 19.2158 24.0113 19.2158C21.6427 19.2158 19.7227 21.1359 19.7227 23.5044C19.7227 25.873 21.6427 27.7931 24.0113 27.7931Z" fill="#CBCBCB"/>
</svg>
