<svg width="111" height="136" viewBox="0 0 111 136" fill="none" xmlns="http://www.w3.org/2000/svg">
<path d="M15.4991 59.9798C10.785 35.1314 23.2437 11.1666 51.8393 7.97831C47.8957 3.80099 42.5085 3.76964 40.0304 4.27804C35.6538 5.66039 35.791 8.46819 30.8269 12.0947C25.8918 14.889 23.4133 12.7492 19.8186 15.6461C16.2311 18.5212 18.7344 25.1219 17.2298 26.4055C15.7363 28.9718 11.1038 31.258 10.2604 34.4994C9.56322 38.645 12.152 41.6064 12.0525 45.1598C12.3515 48.1208 9.07917 49.7953 9.54921 52.1956C10.9575 56.1164 13.6718 58.4763 14.9515 59.564C15.2447 59.7692 15.5545 60.2741 15.4988 59.9798H15.4991Z" fill="#E2E2E2"/>
<path d="M66.379 25.5827C66.1305 25.5827 65.8845 25.5341 65.655 25.4398C65.4254 25.3455 65.2169 25.2073 65.0412 25.0331C64.8655 24.8589 64.7262 24.6521 64.6311 24.4246C64.536 24.197 64.4871 23.953 64.4871 23.7067C64.4872 23.4604 64.5361 23.2165 64.6312 22.9889C64.7263 22.7613 64.8657 22.5545 65.0414 22.3804C65.2171 22.2062 65.4257 22.0681 65.6553 21.9738C65.8848 21.8796 66.1309 21.8311 66.3793 21.8311C66.8811 21.8311 67.3624 22.0287 67.7172 22.3805C68.072 22.7323 68.2714 23.2094 68.2714 23.7069C68.2714 24.2044 68.072 24.6815 67.7172 25.0333C67.3624 25.385 66.8811 25.5827 66.3793 25.5827H66.379ZM16.6015 62.6902C12.0711 41.0942 26.0896 23.0492 53.2369 31.9329C69.1662 41.1718 89.205 40.5701 90.1081 34.5979C92.3386 27.4385 79.9526 12.6848 61.4342 8.83525C24.6957 1.72792 4.88967 41.0942 16.6015 62.6898V62.6902Z" fill="#AFAFAF"/>
<path d="M76.8656 65.0989C82.3207 65.685 87.4991 64.3871 92.2976 60.509C85.0479 68.5263 75.9827 72.5572 65.5818 73.6538C70.5481 77.8397 75.3373 79.7251 79.9188 78.9181C67.1881 82.401 56.522 78.5675 43.547 65.7573C42.8678 69.2057 46.5415 74.5787 50.3281 78.0082C28.3576 68.5651 26.4315 39.1482 53.222 31.9123C25.4508 18.6838 9.74717 44.3869 17.4622 65.4527C25.0113 81.6774 45.1275 94.1684 67.1748 91.4216C77.8837 90.1212 93.8759 82.8008 100.409 65.4527C95.8046 69.5491 87.5742 73.1169 83.9015 73.3905C96.3317 67.2316 103.042 56.766 101.159 42.4623C98.5838 48.5396 95.1865 53.2072 90.937 56.4126C99.9641 42.4619 98.4153 35.2513 91.7337 27.3267C96.5125 40.3563 90.3305 54.8172 76.8656 65.0989Z" fill="#CBCBCB"/>
<path d="M50.6843 24.6109C51.6131 23.6404 51.9194 22.831 52.5655 21.7358C53.2116 20.6406 54.2035 18.6447 54.2035 18.6447C54.2035 18.6447 46.836 14.8618 41.2227 14.8618C34.8126 14.8618 33.5464 22.5838 37.6876 25.2661C41.8289 27.9484 48.1517 27.2571 50.6843 24.6109Z" fill="#E2E2E2"/>
<path d="M7.104 130L4.448 125.44H2.688V130H1.232V118.848H4.832C5.67467 118.848 6.384 118.992 6.96 119.28C7.54667 119.568 7.984 119.957 8.272 120.448C8.56 120.939 8.704 121.499 8.704 122.128C8.704 122.896 8.48 123.573 8.032 124.16C7.59467 124.747 6.93333 125.136 6.048 125.328L8.848 130H7.104ZM2.688 124.272H4.832C5.62133 124.272 6.21333 124.08 6.608 123.696C7.00267 123.301 7.2 122.779 7.2 122.128C7.2 121.467 7.00267 120.955 6.608 120.592C6.224 120.229 5.632 120.048 4.832 120.048H2.688V124.272ZM18.9664 125.28C18.9664 125.557 18.9504 125.851 18.9184 126.16H11.9104C11.9637 127.024 12.257 127.701 12.7904 128.192C13.3344 128.672 13.9904 128.912 14.7584 128.912C15.3877 128.912 15.9104 128.768 16.3264 128.48C16.753 128.181 17.0517 127.787 17.2224 127.296H18.7904C18.5557 128.139 18.0864 128.827 17.3824 129.36C16.6784 129.883 15.8037 130.144 14.7584 130.144C13.9264 130.144 13.1797 129.957 12.5184 129.584C11.8677 129.211 11.3557 128.683 10.9824 128C10.609 127.307 10.4224 126.507 10.4224 125.6C10.4224 124.693 10.6037 123.899 10.9664 123.216C11.329 122.533 11.8357 122.011 12.4864 121.648C13.1477 121.275 13.905 121.088 14.7584 121.088C15.5904 121.088 16.3264 121.269 16.9664 121.632C17.6064 121.995 18.097 122.496 18.4384 123.136C18.7904 123.765 18.9664 124.48 18.9664 125.28ZM17.4624 124.976C17.4624 124.421 17.3397 123.947 17.0944 123.552C16.849 123.147 16.513 122.843 16.0864 122.64C15.6704 122.427 15.2064 122.32 14.6944 122.32C13.9584 122.32 13.329 122.555 12.8064 123.024C12.2944 123.493 12.001 124.144 11.9264 124.976H17.4624ZM20.3443 125.584C20.3443 124.688 20.5256 123.904 20.8883 123.232C21.2509 122.549 21.7469 122.021 22.3763 121.648C23.0163 121.275 23.7256 121.088 24.5043 121.088C25.2723 121.088 25.9389 121.253 26.5043 121.584C27.0696 121.915 27.4909 122.331 27.7683 122.832V121.232H29.2403V130H27.7683V128.368C27.4803 128.88 27.0483 129.307 26.4723 129.648C25.9069 129.979 25.2456 130.144 24.4883 130.144C23.7096 130.144 23.0056 129.952 22.3763 129.568C21.7469 129.184 21.2509 128.645 20.8883 127.952C20.5256 127.259 20.3443 126.469 20.3443 125.584ZM27.7683 125.6C27.7683 124.939 27.6349 124.363 27.3683 123.872C27.1016 123.381 26.7389 123.008 26.2803 122.752C25.8323 122.485 25.3363 122.352 24.7923 122.352C24.2483 122.352 23.7523 122.48 23.3043 122.736C22.8563 122.992 22.4989 123.365 22.2323 123.856C21.9656 124.347 21.8323 124.923 21.8323 125.584C21.8323 126.256 21.9656 126.843 22.2323 127.344C22.4989 127.835 22.8563 128.213 23.3043 128.48C23.7523 128.736 24.2483 128.864 24.7923 128.864C25.3363 128.864 25.8323 128.736 26.2803 128.48C26.7389 128.213 27.1016 127.835 27.3683 127.344C27.6349 126.843 27.7683 126.261 27.7683 125.6ZM31.1568 125.6C31.1568 124.693 31.3381 123.904 31.7008 123.232C32.0634 122.549 32.5648 122.021 33.2048 121.648C33.8554 121.275 34.5968 121.088 35.4288 121.088C36.5061 121.088 37.3914 121.349 38.0848 121.872C38.7888 122.395 39.2528 123.12 39.4768 124.048H37.9088C37.7594 123.515 37.4661 123.093 37.0288 122.784C36.6021 122.475 36.0688 122.32 35.4288 122.32C34.5968 122.32 33.9248 122.608 33.4128 123.184C32.9008 123.749 32.6448 124.555 32.6448 125.6C32.6448 126.656 32.9008 127.472 33.4128 128.048C33.9248 128.624 34.5968 128.912 35.4288 128.912C36.0688 128.912 36.6021 128.763 37.0288 128.464C37.4554 128.165 37.7488 127.739 37.9088 127.184H39.4768C39.2421 128.08 38.7728 128.8 38.0688 129.344C37.3648 129.877 36.4848 130.144 35.4288 130.144C34.5968 130.144 33.8554 129.957 33.2048 129.584C32.5648 129.211 32.0634 128.683 31.7008 128C31.3381 127.317 31.1568 126.517 31.1568 125.6ZM43.1955 122.432V127.6C43.1955 128.027 43.2862 128.331 43.4675 128.512C43.6488 128.683 43.9635 128.768 44.4115 128.768H45.4835V130H44.1715C43.3608 130 42.7528 129.813 42.3475 129.44C41.9422 129.067 41.7395 128.453 41.7395 127.6V122.432H40.6035V121.232H41.7395V119.024H43.1955V121.232H45.4835V122.432H43.1955ZM47.9996 119.808C47.7223 119.808 47.4876 119.712 47.2956 119.52C47.1036 119.328 47.0076 119.093 47.0076 118.816C47.0076 118.539 47.1036 118.304 47.2956 118.112C47.4876 117.92 47.7223 117.824 47.9996 117.824C48.2663 117.824 48.4903 117.92 48.6716 118.112C48.8636 118.304 48.9596 118.539 48.9596 118.816C48.9596 119.093 48.8636 119.328 48.6716 119.52C48.4903 119.712 48.2663 119.808 47.9996 119.808ZM48.7036 121.232V130H47.2476V121.232H48.7036ZM54.4491 128.656L57.1691 121.232H58.7211L55.2811 130H53.5851L50.1451 121.232H51.7131L54.4491 128.656ZM68.1539 125.28C68.1539 125.557 68.1379 125.851 68.1059 126.16H61.0979C61.1512 127.024 61.4445 127.701 61.9779 128.192C62.5219 128.672 63.1779 128.912 63.9459 128.912C64.5752 128.912 65.0979 128.768 65.5139 128.48C65.9405 128.181 66.2392 127.787 66.4099 127.296H67.9779C67.7432 128.139 67.2739 128.827 66.5699 129.36C65.8659 129.883 64.9912 130.144 63.9459 130.144C63.1139 130.144 62.3672 129.957 61.7059 129.584C61.0552 129.211 60.5432 128.683 60.1699 128C59.7965 127.307 59.6099 126.507 59.6099 125.6C59.6099 124.693 59.7912 123.899 60.1539 123.216C60.5165 122.533 61.0232 122.011 61.6739 121.648C62.3352 121.275 63.0925 121.088 63.9459 121.088C64.7779 121.088 65.5139 121.269 66.1539 121.632C66.7939 121.995 67.2845 122.496 67.6259 123.136C67.9779 123.765 68.1539 124.48 68.1539 125.28ZM66.6499 124.976C66.6499 124.421 66.5272 123.947 66.2819 123.552C66.0365 123.147 65.7005 122.843 65.2739 122.64C64.8579 122.427 64.3939 122.32 63.8819 122.32C63.1459 122.32 62.5165 122.555 61.9939 123.024C61.4819 123.493 61.1885 124.144 61.1139 124.976H66.6499ZM77.8774 130.112C77.1414 130.112 76.48 129.984 75.8934 129.728C75.3174 129.461 74.864 129.099 74.5334 128.64C74.2027 128.171 74.032 127.632 74.0214 127.024H75.5734C75.6267 127.547 75.84 127.989 76.2134 128.352C76.5974 128.704 77.152 128.88 77.8774 128.88C78.5707 128.88 79.1147 128.709 79.5094 128.368C79.9147 128.016 80.1174 127.568 80.1174 127.024C80.1174 126.597 80 126.251 79.7654 125.984C79.5307 125.717 79.2374 125.515 78.8854 125.376C78.5334 125.237 78.0587 125.088 77.4614 124.928C76.7254 124.736 76.1334 124.544 75.6854 124.352C75.248 124.16 74.8694 123.861 74.5494 123.456C74.24 123.04 74.0854 122.485 74.0854 121.792C74.0854 121.184 74.24 120.645 74.5494 120.176C74.8587 119.707 75.2907 119.344 75.8454 119.088C76.4107 118.832 77.056 118.704 77.7814 118.704C78.8267 118.704 79.68 118.965 80.3414 119.488C81.0134 120.011 81.392 120.704 81.4774 121.568H79.8774C79.824 121.141 79.6 120.768 79.2054 120.448C78.8107 120.117 78.288 119.952 77.6374 119.952C77.0294 119.952 76.5334 120.112 76.1494 120.432C75.7654 120.741 75.5734 121.179 75.5734 121.744C75.5734 122.149 75.6854 122.48 75.9094 122.736C76.144 122.992 76.4267 123.189 76.7574 123.328C77.0987 123.456 77.5734 123.605 78.1814 123.776C78.9174 123.979 79.5094 124.181 79.9574 124.384C80.4054 124.576 80.7894 124.88 81.1094 125.296C81.4294 125.701 81.5894 126.256 81.5894 126.96C81.5894 127.504 81.4454 128.016 81.1574 128.496C80.8694 128.976 80.4427 129.365 79.8774 129.664C79.312 129.963 78.6454 130.112 77.8774 130.112ZM95.412 121.232L92.676 130H91.172L89.06 123.04L86.948 130H85.444L82.692 121.232H84.18L86.196 128.592L88.372 121.232H89.86L91.988 128.608L93.972 121.232H95.412ZM97.609 119.808C97.3317 119.808 97.097 119.712 96.905 119.52C96.713 119.328 96.617 119.093 96.617 118.816C96.617 118.539 96.713 118.304 96.905 118.112C97.097 117.92 97.3317 117.824 97.609 117.824C97.8757 117.824 98.0997 117.92 98.281 118.112C98.473 118.304 98.569 118.539 98.569 118.816C98.569 119.093 98.473 119.328 98.281 119.52C98.0997 119.712 97.8757 119.808 97.609 119.808ZM98.313 121.232V130H96.857V121.232H98.313ZM104.363 122.432H102.523V130H101.067V122.432H99.9305V121.232H101.067V120.608C101.067 119.627 101.317 118.912 101.819 118.464C102.331 118.005 103.147 117.776 104.266 117.776V118.992C103.627 118.992 103.173 119.12 102.907 119.376C102.651 119.621 102.523 120.032 102.523 120.608V121.232H104.363V122.432ZM107.836 122.432V127.6C107.836 128.027 107.927 128.331 108.108 128.512C108.289 128.683 108.604 128.768 109.052 128.768H110.124V130H108.812C108.001 130 107.393 129.813 106.988 129.44C106.583 129.067 106.38 128.453 106.38 127.6V122.432H105.244V121.232H106.38V119.024H107.836V121.232H110.124V122.432H107.836Z" fill="#AFAFAF"/>
</svg>
