<svg width="48" height="48" viewBox="0 0 48 48" fill="none" xmlns="http://www.w3.org/2000/svg">
<path d="M3.99907 29.9897C1.64203 17.5655 7.87134 5.58306 22.1692 3.98891C20.1974 1.90025 17.5038 1.88457 16.2647 2.13878C14.0764 2.82995 14.145 4.23385 11.6629 6.04711C9.1954 7.44424 7.95615 6.37435 6.15882 7.82278C4.36508 9.26035 5.61673 12.5607 4.86441 13.2025C4.11766 14.4857 1.80141 15.6288 1.3797 17.2495C1.03112 19.3223 2.32554 20.8029 2.27576 22.5797C2.42526 24.0602 0.789096 24.8974 1.02412 26.0975C1.72828 28.0579 3.0854 29.2379 3.72524 29.7818C3.87186 29.8844 4.02674 30.1368 3.99889 29.9897H3.99907Z" fill="#E2E2E2"/>
<path d="M29.44 12.7916C29.3157 12.7916 29.1927 12.7673 29.078 12.7202C28.9632 12.673 28.8589 12.6039 28.7711 12.5168C28.6832 12.4297 28.6136 12.3263 28.566 12.2125C28.5185 12.0987 28.494 11.9768 28.4941 11.8536C28.4941 11.7304 28.5186 11.6085 28.5661 11.4947C28.6137 11.3809 28.6834 11.2775 28.7712 11.1904C28.8591 11.1034 28.9634 11.0343 29.0781 10.9872C29.1929 10.94 29.3159 10.9158 29.4402 10.9158C29.6911 10.9158 29.9317 11.0146 30.1091 11.1905C30.2865 11.3664 30.3862 11.6049 30.3862 11.8537C30.3862 12.1024 30.2865 12.341 30.1091 12.5169C29.9317 12.6928 29.6911 12.7916 29.4402 12.7916H29.44ZM4.55123 31.3453C2.28602 20.5473 9.29529 11.5248 22.8689 15.9667C30.8336 20.5862 40.853 20.2853 41.3045 17.2992C42.4198 13.7195 36.2268 6.34265 26.9676 4.41787C8.59832 0.864205 -1.30468 20.5473 4.55123 31.3451V31.3453Z" fill="#AFAFAF"/>
<path d="M34.6828 32.5492C37.4104 32.8422 39.9995 32.1933 42.3988 30.2543C38.7739 34.2629 34.2414 36.2783 29.0409 36.8266C31.5241 38.9196 33.9186 39.8623 36.2094 39.4588C29.8441 41.2003 24.511 39.2835 18.0235 32.8784C17.6839 34.6026 19.5208 37.2891 21.414 39.0038C10.4288 34.2823 9.46573 19.5739 22.861 15.9559C8.97539 9.34165 1.12358 22.1932 4.98112 32.7261C8.75564 40.8385 18.8137 47.084 29.8374 45.7105C35.1919 45.0603 43.1879 41.4001 46.4545 32.7261C44.1523 34.7743 40.0371 36.5582 38.2008 36.695C44.4159 33.6155 47.7712 28.3828 46.8293 21.2309C45.5419 24.2696 43.8432 26.6033 41.7185 28.206C46.2321 21.2307 45.4576 17.6254 42.1169 13.6631C44.5062 20.1779 41.4152 27.4083 34.6828 32.5492V32.5492Z" fill="#CBCBCB"/>
<path d="M21.5916 12.3052C22.0561 11.82 22.2092 11.4152 22.5323 10.8677C22.8553 10.3201 23.3512 9.32213 23.3512 9.32213C23.3512 9.32213 19.6675 7.43066 16.8608 7.43066C13.6558 7.43066 13.0227 11.2917 15.0933 12.6328C17.1639 13.974 20.3254 13.6283 21.5916 12.3052Z" fill="#E2E2E2"/>
</svg>
