<svg width="102" height="136" viewBox="0 0 102 136" fill="none" xmlns="http://www.w3.org/2000/svg">
<path d="M97.0787 47.0094C97.0787 40.9096 89.4399 35.1289 77.7283 31.5441C80.431 19.6072 79.2298 10.1103 73.937 7.06981C72.7171 6.3566 71.2907 6.01877 69.7329 6.01877V10.2042C70.5962 10.2042 71.2907 10.3731 71.8725 10.6921C74.425 12.1561 75.5324 17.7304 74.669 24.9C74.4626 26.6642 74.1247 28.5223 73.7118 30.4179C70.0332 29.5171 66.0167 28.8226 61.7938 28.3722C59.26 24.9 56.6324 21.7469 53.986 18.9879C60.1046 13.301 65.8478 10.1854 69.7517 10.1854V6C64.5903 6 57.8336 9.67865 51.0018 16.06C44.1701 9.71618 37.4134 6.07507 32.252 6.07507V10.2605C36.1371 10.2605 41.8991 13.3573 48.0176 19.0066C45.39 21.7656 42.7624 24.9 40.2662 28.3722C36.0245 28.8226 32.008 29.517 28.3294 30.4367C27.8977 28.5599 27.5786 26.7393 27.3534 24.9938C26.4713 17.8242 27.5599 12.2499 30.0936 10.7672C30.6567 10.4294 31.3886 10.2792 32.252 10.2792V6.09384C30.6754 6.09384 29.249 6.43168 28.0103 7.14488C22.7363 10.1854 21.5539 19.6635 24.2753 31.5628C12.6013 35.1664 5 40.9284 5 47.0094C5 53.1092 12.6388 58.8899 24.3504 62.4747C21.6477 74.4115 22.8489 83.9084 28.1417 86.949C29.3616 87.6622 30.788 88 32.3646 88C37.526 88 44.2827 84.3213 51.1144 77.94C57.9462 84.2838 64.7029 87.9249 69.8643 87.9249C71.4408 87.9249 72.8672 87.5871 74.106 86.8739C79.3799 83.8334 80.5624 74.3552 77.8409 62.4559C89.4774 58.8711 97.0787 53.0904 97.0787 47.0094ZM72.642 34.4907C71.9476 36.9119 71.0842 39.4081 70.1083 41.9043C69.3387 40.4028 68.5317 38.9013 67.6496 37.3999C66.7862 35.8984 65.8666 34.4344 64.9469 33.008C67.612 33.4021 70.1833 33.8901 72.642 34.4907ZM64.046 54.4793C62.582 57.013 61.0806 59.4154 59.5228 61.6489C56.7262 61.8929 53.8922 62.0243 51.0394 62.0243C48.2053 62.0243 45.3713 61.8929 42.5935 61.6677C41.0357 59.4342 39.5154 57.0506 38.0515 54.5356C36.6251 52.0769 35.33 49.5807 34.1476 47.0657C35.3113 44.5507 36.6251 42.0357 38.0327 39.577C39.4967 37.0433 40.9982 34.6409 42.556 32.4074C45.3525 32.1634 48.1865 32.032 51.0394 32.032C53.8734 32.032 56.7075 32.1634 59.4852 32.3886C61.043 34.6221 62.5633 37.0057 64.0272 39.5207C65.4536 41.9794 66.7487 44.4756 67.9311 46.9906C66.7487 49.5056 65.4536 52.0206 64.046 54.4793ZM70.1083 52.0394C71.1218 54.5544 71.9851 57.0693 72.6983 59.5093C70.2396 60.1099 67.6496 60.6166 64.9657 61.0108C65.8853 59.5656 66.805 58.0829 67.6683 56.5626C68.5317 55.0611 69.3387 53.5408 70.1083 52.0394ZM51.0769 72.0655C49.3314 70.2637 47.5859 68.2554 45.8592 66.0595C47.5484 66.1346 49.2751 66.1909 51.0206 66.1909C52.7848 66.1909 54.5303 66.1533 56.2383 66.0595C54.5491 68.2554 52.8036 70.2637 51.0769 72.0655ZM37.1131 61.0108C34.4479 60.6166 31.8766 60.1286 29.4179 59.528C30.1124 57.1069 30.9757 54.6107 31.9517 52.1144C32.7212 53.6159 33.5283 55.1174 34.4104 56.6189C35.2925 58.1204 36.1934 59.5843 37.1131 61.0108ZM50.9831 21.9533C52.7285 23.7551 54.474 25.7633 56.2007 27.9593C54.5116 27.8842 52.7848 27.8279 51.0394 27.8279C49.2751 27.8279 47.5296 27.8654 45.8217 27.9593C47.5109 25.7633 49.2564 23.7551 50.9831 21.9533ZM37.0943 33.008C36.1746 34.4532 35.255 35.9359 34.3916 37.4562C33.5283 38.9577 32.7212 40.4591 31.9517 41.9606C30.9382 39.4456 30.0748 36.9306 29.3616 34.4907C31.8203 33.9089 34.4104 33.4021 37.0943 33.008ZM20.1087 56.5063C13.4646 53.6722 9.16663 49.9561 9.16663 47.0094C9.16663 44.0627 13.4646 40.3278 20.1087 37.5125C21.7228 36.818 23.4871 36.1987 25.3076 35.6168C26.3774 39.2955 27.7851 43.1243 29.5306 47.0469C27.8038 50.9508 26.415 54.7608 25.3639 58.4207C23.5058 57.8389 21.7416 57.2007 20.1087 56.5063ZM30.2062 83.3266C27.6537 81.8627 26.5463 76.2884 27.4097 69.1188C27.6162 67.3545 27.954 65.4964 28.3669 63.6008C32.0455 64.5017 36.062 65.1961 40.285 65.6466C42.8187 69.1188 45.4463 72.2719 48.0927 75.0309C41.9741 80.7178 36.2309 83.8334 32.3271 83.8334C31.4825 83.8146 30.7693 83.6457 30.2062 83.3266ZM74.7253 69.0249C75.6075 76.1945 74.5189 81.7688 71.9851 83.2515C71.4221 83.5894 70.6901 83.7395 69.8267 83.7395C65.9416 83.7395 60.1797 80.6427 54.0611 74.9934C56.6887 72.2344 59.3163 69.1 61.8125 65.6278C66.0542 65.1774 70.0707 64.4829 73.7494 63.5633C74.181 65.4589 74.5189 67.2795 74.7253 69.0249ZM81.9512 56.5063C80.3371 57.2007 78.5729 57.8201 76.7523 58.4019C75.6825 54.7233 74.2749 50.8945 72.5294 46.9718C74.2561 43.068 75.645 39.2579 76.696 35.5981C78.5541 36.1799 80.3184 36.818 81.97 37.5125C88.6141 40.3465 92.9121 44.0627 92.9121 47.0094C92.8933 49.9561 88.5953 53.691 81.9512 56.5063Z" fill="#CBCBCB"/>
<path d="M51.0226 55.5861C55.7596 55.5861 59.5998 51.746 59.5998 47.0089C59.5998 42.2718 55.7596 38.4316 51.0226 38.4316C46.2855 38.4316 42.4453 42.2718 42.4453 47.0089C42.4453 51.746 46.2855 55.5861 51.0226 55.5861Z" fill="#CBCBCB"/>
<path d="M7.604 130L4.948 125.44H3.188V130H1.732V118.848H5.332C6.17467 118.848 6.884 118.992 7.46 119.28C8.04667 119.568 8.484 119.957 8.772 120.448C9.06 120.939 9.204 121.499 9.204 122.128C9.204 122.896 8.98 123.573 8.532 124.16C8.09467 124.747 7.43333 125.136 6.548 125.328L9.348 130H7.604ZM3.188 124.272H5.332C6.12133 124.272 6.71333 124.08 7.108 123.696C7.50267 123.301 7.7 122.779 7.7 122.128C7.7 121.467 7.50267 120.955 7.108 120.592C6.724 120.229 6.132 120.048 5.332 120.048H3.188V124.272ZM19.4664 125.28C19.4664 125.557 19.4504 125.851 19.4184 126.16H12.4104C12.4637 127.024 12.757 127.701 13.2904 128.192C13.8344 128.672 14.4904 128.912 15.2584 128.912C15.8877 128.912 16.4104 128.768 16.8264 128.48C17.253 128.181 17.5517 127.787 17.7224 127.296H19.2904C19.0557 128.139 18.5864 128.827 17.8824 129.36C17.1784 129.883 16.3037 130.144 15.2584 130.144C14.4264 130.144 13.6797 129.957 13.0184 129.584C12.3677 129.211 11.8557 128.683 11.4824 128C11.109 127.307 10.9224 126.507 10.9224 125.6C10.9224 124.693 11.1037 123.899 11.4664 123.216C11.829 122.533 12.3357 122.011 12.9864 121.648C13.6477 121.275 14.405 121.088 15.2584 121.088C16.0904 121.088 16.8264 121.269 17.4664 121.632C18.1064 121.995 18.597 122.496 18.9384 123.136C19.2904 123.765 19.4664 124.48 19.4664 125.28ZM17.9624 124.976C17.9624 124.421 17.8397 123.947 17.5944 123.552C17.349 123.147 17.013 122.843 16.5864 122.64C16.1704 122.427 15.7064 122.32 15.1944 122.32C14.4584 122.32 13.829 122.555 13.3064 123.024C12.7944 123.493 12.501 124.144 12.4264 124.976H17.9624ZM20.8443 125.584C20.8443 124.688 21.0256 123.904 21.3883 123.232C21.7509 122.549 22.2469 122.021 22.8763 121.648C23.5163 121.275 24.2256 121.088 25.0043 121.088C25.7723 121.088 26.4389 121.253 27.0043 121.584C27.5696 121.915 27.9909 122.331 28.2683 122.832V121.232H29.7403V130H28.2683V128.368C27.9803 128.88 27.5483 129.307 26.9723 129.648C26.4069 129.979 25.7456 130.144 24.9883 130.144C24.2096 130.144 23.5056 129.952 22.8763 129.568C22.2469 129.184 21.7509 128.645 21.3883 127.952C21.0256 127.259 20.8443 126.469 20.8443 125.584ZM28.2683 125.6C28.2683 124.939 28.1349 124.363 27.8683 123.872C27.6016 123.381 27.2389 123.008 26.7803 122.752C26.3323 122.485 25.8363 122.352 25.2923 122.352C24.7483 122.352 24.2523 122.48 23.8043 122.736C23.3563 122.992 22.9989 123.365 22.7323 123.856C22.4656 124.347 22.3323 124.923 22.3323 125.584C22.3323 126.256 22.4656 126.843 22.7323 127.344C22.9989 127.835 23.3563 128.213 23.8043 128.48C24.2523 128.736 24.7483 128.864 25.2923 128.864C25.8363 128.864 26.3323 128.736 26.7803 128.48C27.2389 128.213 27.6016 127.835 27.8683 127.344C28.1349 126.843 28.2683 126.261 28.2683 125.6ZM31.6568 125.6C31.6568 124.693 31.8381 123.904 32.2008 123.232C32.5634 122.549 33.0648 122.021 33.7048 121.648C34.3554 121.275 35.0968 121.088 35.9288 121.088C37.0061 121.088 37.8914 121.349 38.5848 121.872C39.2888 122.395 39.7528 123.12 39.9768 124.048H38.4088C38.2594 123.515 37.9661 123.093 37.5288 122.784C37.1021 122.475 36.5688 122.32 35.9288 122.32C35.0968 122.32 34.4248 122.608 33.9128 123.184C33.4008 123.749 33.1448 124.555 33.1448 125.6C33.1448 126.656 33.4008 127.472 33.9128 128.048C34.4248 128.624 35.0968 128.912 35.9288 128.912C36.5688 128.912 37.1021 128.763 37.5288 128.464C37.9554 128.165 38.2488 127.739 38.4088 127.184H39.9768C39.7421 128.08 39.2728 128.8 38.5688 129.344C37.8648 129.877 36.9848 130.144 35.9288 130.144C35.0968 130.144 34.3554 129.957 33.7048 129.584C33.0648 129.211 32.5634 128.683 32.2008 128C31.8381 127.317 31.6568 126.517 31.6568 125.6ZM43.6955 122.432V127.6C43.6955 128.027 43.7862 128.331 43.9675 128.512C44.1488 128.683 44.4635 128.768 44.9115 128.768H45.9835V130H44.6715C43.8608 130 43.2528 129.813 42.8475 129.44C42.4422 129.067 42.2395 128.453 42.2395 127.6V122.432H41.1035V121.232H42.2395V119.024H43.6955V121.232H45.9835V122.432H43.6955ZM60.7812 130H59.3253L53.4693 121.12V130H52.0133V118.832H53.4693L59.3253 127.696V118.832H60.7812V130ZM62.7193 125.584C62.7193 124.688 62.9006 123.904 63.2633 123.232C63.6259 122.549 64.1219 122.021 64.7513 121.648C65.3913 121.275 66.1006 121.088 66.8793 121.088C67.6473 121.088 68.3139 121.253 68.8793 121.584C69.4446 121.915 69.8659 122.331 70.1433 122.832V121.232H71.6153V130H70.1433V128.368C69.8553 128.88 69.4233 129.307 68.8473 129.648C68.2819 129.979 67.6206 130.144 66.8633 130.144C66.0846 130.144 65.3806 129.952 64.7513 129.568C64.1219 129.184 63.6259 128.645 63.2633 127.952C62.9006 127.259 62.7193 126.469 62.7193 125.584ZM70.1433 125.6C70.1433 124.939 70.0099 124.363 69.7433 123.872C69.4766 123.381 69.1139 123.008 68.6553 122.752C68.2073 122.485 67.7113 122.352 67.1673 122.352C66.6233 122.352 66.1273 122.48 65.6793 122.736C65.2313 122.992 64.8739 123.365 64.6073 123.856C64.3406 124.347 64.2073 124.923 64.2073 125.584C64.2073 126.256 64.3406 126.843 64.6073 127.344C64.8739 127.835 65.2313 128.213 65.6793 128.48C66.1273 128.736 66.6233 128.864 67.1673 128.864C67.7113 128.864 68.2073 128.736 68.6553 128.48C69.1139 128.213 69.4766 127.835 69.7433 127.344C70.0099 126.843 70.1433 126.261 70.1433 125.6ZM75.8518 122.432V127.6C75.8518 128.027 75.9424 128.331 76.1238 128.512C76.3051 128.683 76.6198 128.768 77.0677 128.768H78.1398V130H76.8278C76.0171 130 75.4091 129.813 75.0038 129.44C74.5984 129.067 74.3958 128.453 74.3958 127.6V122.432H73.2598V121.232H74.3958V119.024H75.8518V121.232H78.1398V122.432H75.8518ZM80.6559 119.808C80.3785 119.808 80.1439 119.712 79.9519 119.52C79.7599 119.328 79.6639 119.093 79.6639 118.816C79.6639 118.539 79.7599 118.304 79.9519 118.112C80.1439 117.92 80.3785 117.824 80.6559 117.824C80.9225 117.824 81.1465 117.92 81.3279 118.112C81.5199 118.304 81.6159 118.539 81.6159 118.816C81.6159 119.093 81.5199 119.328 81.3279 119.52C81.1465 119.712 80.9225 119.808 80.6559 119.808ZM81.3599 121.232V130H79.9039V121.232H81.3599ZM87.1054 128.656L89.8254 121.232H91.3774L87.9374 130H86.2414L82.8014 121.232H84.3694L87.1054 128.656ZM100.81 125.28C100.81 125.557 100.794 125.851 100.762 126.16H93.7541C93.8075 127.024 94.1008 127.701 94.6341 128.192C95.1781 128.672 95.8341 128.912 96.6021 128.912C97.2315 128.912 97.7541 128.768 98.1701 128.48C98.5968 128.181 98.8955 127.787 99.0661 127.296H100.634C100.399 128.139 99.9301 128.827 99.2261 129.36C98.5221 129.883 97.6475 130.144 96.6021 130.144C95.7701 130.144 95.0235 129.957 94.3621 129.584C93.7115 129.211 93.1995 128.683 92.8261 128C92.4528 127.307 92.2661 126.507 92.2661 125.6C92.2661 124.693 92.4475 123.899 92.8101 123.216C93.1728 122.533 93.6795 122.011 94.3301 121.648C94.9915 121.275 95.7488 121.088 96.6021 121.088C97.4341 121.088 98.1701 121.269 98.8101 121.632C99.4501 121.995 99.9408 122.496 100.282 123.136C100.634 123.765 100.81 124.48 100.81 125.28ZM99.3061 124.976C99.3061 124.421 99.1835 123.947 98.9381 123.552C98.6928 123.147 98.3568 122.843 97.9301 122.64C97.5141 122.427 97.0501 122.32 96.5381 122.32C95.8021 122.32 95.1728 122.555 94.6501 123.024C94.1381 123.493 93.8448 124.144 93.7701 124.976H99.3061Z" fill="#AFAFAF"/>
</svg>
