<svg width="96" height="136" viewBox="0 0 96 136" fill="none" xmlns="http://www.w3.org/2000/svg">
<path d="M94.0787 47.0094C94.0787 40.9096 86.4399 35.1289 74.7283 31.5441C77.431 19.6072 76.2298 10.1103 70.937 7.06981C69.7171 6.3566 68.2907 6.01877 66.7329 6.01877V10.2042C67.5962 10.2042 68.2907 10.3731 68.8725 10.6921C71.425 12.1561 72.5324 17.7304 71.669 24.9C71.4626 26.6642 71.1247 28.5223 70.7118 30.4179C67.0332 29.5171 63.0167 28.8226 58.7938 28.3722C56.26 24.9 53.6324 21.7469 50.986 18.9879C57.1046 13.301 62.8478 10.1854 66.7517 10.1854V6C61.5903 6 54.8336 9.67865 48.0018 16.06C41.1701 9.71618 34.4134 6.07507 29.252 6.07507V10.2605C33.1371 10.2605 38.8991 13.3573 45.0176 19.0066C42.39 21.7656 39.7624 24.9 37.2662 28.3722C33.0245 28.8226 29.008 29.517 25.3294 30.4367C24.8977 28.5599 24.5786 26.7393 24.3534 24.9938C23.4713 17.8242 24.5599 12.2499 27.0936 10.7672C27.6567 10.4294 28.3886 10.2792 29.252 10.2792V6.09384C27.6754 6.09384 26.249 6.43168 25.0103 7.14488C19.7363 10.1854 18.5539 19.6635 21.2753 31.5628C9.60128 35.1664 2 40.9284 2 47.0094C2 53.1092 9.63882 58.8899 21.3504 62.4747C18.6477 74.4115 19.8489 83.9084 25.1417 86.949C26.3616 87.6622 27.788 88 29.3646 88C34.526 88 41.2827 84.3213 48.1144 77.94C54.9462 84.2838 61.7029 87.9249 66.8643 87.9249C68.4408 87.9249 69.8672 87.5871 71.106 86.8739C76.3799 83.8334 77.5624 74.3552 74.8409 62.4559C86.4774 58.8711 94.0787 53.0904 94.0787 47.0094ZM69.642 34.4907C68.9476 36.9119 68.0842 39.4081 67.1083 41.9043C66.3387 40.4028 65.5317 38.9013 64.6496 37.3999C63.7862 35.8984 62.8666 34.4344 61.9469 33.008C64.612 33.4021 67.1833 33.8901 69.642 34.4907ZM61.046 54.4793C59.582 57.013 58.0806 59.4154 56.5228 61.6489C53.7262 61.8929 50.8922 62.0243 48.0394 62.0243C45.2053 62.0243 42.3713 61.8929 39.5935 61.6677C38.0357 59.4342 36.5154 57.0506 35.0515 54.5356C33.6251 52.0769 32.33 49.5807 31.1476 47.0657C32.3113 44.5507 33.6251 42.0357 35.0327 39.577C36.4967 37.0433 37.9982 34.6409 39.556 32.4074C42.3525 32.1634 45.1865 32.032 48.0394 32.032C50.8734 32.032 53.7075 32.1634 56.4852 32.3886C58.043 34.6221 59.5633 37.0057 61.0272 39.5207C62.4536 41.9794 63.7487 44.4756 64.9311 46.9906C63.7487 49.5056 62.4536 52.0206 61.046 54.4793ZM67.1083 52.0394C68.1218 54.5544 68.9851 57.0693 69.6983 59.5093C67.2396 60.1099 64.6496 60.6166 61.9657 61.0108C62.8853 59.5656 63.805 58.0829 64.6683 56.5626C65.5317 55.0611 66.3387 53.5408 67.1083 52.0394ZM48.0769 72.0655C46.3314 70.2637 44.5859 68.2554 42.8592 66.0595C44.5484 66.1346 46.2751 66.1909 48.0206 66.1909C49.7848 66.1909 51.5303 66.1533 53.2383 66.0595C51.5491 68.2554 49.8036 70.2637 48.0769 72.0655ZM34.1131 61.0108C31.4479 60.6166 28.8766 60.1286 26.4179 59.528C27.1124 57.1069 27.9757 54.6107 28.9517 52.1144C29.7212 53.6159 30.5283 55.1174 31.4104 56.6189C32.2925 58.1204 33.1934 59.5843 34.1131 61.0108ZM47.9831 21.9533C49.7285 23.7551 51.474 25.7633 53.2007 27.9593C51.5116 27.8842 49.7848 27.8279 48.0394 27.8279C46.2751 27.8279 44.5296 27.8654 42.8217 27.9593C44.5109 25.7633 46.2564 23.7551 47.9831 21.9533ZM34.0943 33.008C33.1746 34.4532 32.255 35.9359 31.3916 37.4562C30.5283 38.9577 29.7212 40.4591 28.9517 41.9606C27.9382 39.4456 27.0748 36.9306 26.3616 34.4907C28.8203 33.9089 31.4104 33.4021 34.0943 33.008ZM17.1087 56.5063C10.4646 53.6722 6.16663 49.9561 6.16663 47.0094C6.16663 44.0627 10.4646 40.3278 17.1087 37.5125C18.7228 36.818 20.4871 36.1987 22.3076 35.6168C23.3774 39.2955 24.7851 43.1243 26.5306 47.0469C24.8038 50.9508 23.415 54.7608 22.3639 58.4207C20.5058 57.8389 18.7416 57.2007 17.1087 56.5063ZM27.2062 83.3266C24.6537 81.8627 23.5463 76.2884 24.4097 69.1188C24.6162 67.3545 24.954 65.4964 25.3669 63.6008C29.0455 64.5017 33.062 65.1961 37.285 65.6466C39.8187 69.1188 42.4463 72.2719 45.0927 75.0309C38.9741 80.7178 33.2309 83.8334 29.3271 83.8334C28.4825 83.8146 27.7693 83.6457 27.2062 83.3266ZM71.7253 69.0249C72.6075 76.1945 71.5189 81.7688 68.9851 83.2515C68.4221 83.5894 67.6901 83.7395 66.8267 83.7395C62.9416 83.7395 57.1797 80.6427 51.0611 74.9934C53.6887 72.2344 56.3163 69.1 58.8125 65.6278C63.0542 65.1774 67.0707 64.4829 70.7494 63.5633C71.181 65.4589 71.5189 67.2795 71.7253 69.0249ZM78.9512 56.5063C77.3371 57.2007 75.5729 57.8201 73.7523 58.4019C72.6825 54.7233 71.2749 50.8945 69.5294 46.9718C71.2561 43.068 72.645 39.2579 73.696 35.5981C75.5541 36.1799 77.3184 36.818 78.97 37.5125C85.6141 40.3465 89.9121 44.0627 89.9121 47.0094C89.8933 49.9561 85.5953 53.691 78.9512 56.5063Z" fill="#CBCBCB"/>
<path d="M48.0226 55.5866C52.7596 55.5866 56.5998 51.7465 56.5998 47.0094C56.5998 42.2723 52.7596 38.4321 48.0226 38.4321C43.2855 38.4321 39.4453 42.2723 39.4453 47.0094C39.4453 51.7465 43.2855 55.5866 48.0226 55.5866Z" fill="#CBCBCB"/>
<path d="M31.604 130L28.948 125.44H27.188V130H25.732V118.848H29.332C30.1747 118.848 30.884 118.992 31.46 119.28C32.0467 119.568 32.484 119.957 32.772 120.448C33.06 120.939 33.204 121.499 33.204 122.128C33.204 122.896 32.98 123.573 32.532 124.16C32.0947 124.747 31.4333 125.136 30.548 125.328L33.348 130H31.604ZM27.188 124.272H29.332C30.1213 124.272 30.7133 124.08 31.108 123.696C31.5027 123.301 31.7 122.779 31.7 122.128C31.7 121.467 31.5027 120.955 31.108 120.592C30.724 120.229 30.132 120.048 29.332 120.048H27.188V124.272ZM43.4664 125.28C43.4664 125.557 43.4504 125.851 43.4184 126.16H36.4104C36.4637 127.024 36.757 127.701 37.2904 128.192C37.8344 128.672 38.4904 128.912 39.2584 128.912C39.8877 128.912 40.4104 128.768 40.8264 128.48C41.253 128.181 41.5517 127.787 41.7224 127.296H43.2904C43.0557 128.139 42.5864 128.827 41.8824 129.36C41.1784 129.883 40.3037 130.144 39.2584 130.144C38.4264 130.144 37.6797 129.957 37.0184 129.584C36.3677 129.211 35.8557 128.683 35.4824 128C35.109 127.307 34.9224 126.507 34.9224 125.6C34.9224 124.693 35.1037 123.899 35.4664 123.216C35.829 122.533 36.3357 122.011 36.9864 121.648C37.6477 121.275 38.405 121.088 39.2584 121.088C40.0904 121.088 40.8264 121.269 41.4664 121.632C42.1064 121.995 42.597 122.496 42.9384 123.136C43.2904 123.765 43.4664 124.48 43.4664 125.28ZM41.9624 124.976C41.9624 124.421 41.8397 123.947 41.5944 123.552C41.349 123.147 41.013 122.843 40.5864 122.64C40.1704 122.427 39.7064 122.32 39.1944 122.32C38.4584 122.32 37.829 122.555 37.3064 123.024C36.7944 123.493 36.501 124.144 36.4264 124.976H41.9624ZM44.8443 125.584C44.8443 124.688 45.0256 123.904 45.3883 123.232C45.7509 122.549 46.2469 122.021 46.8763 121.648C47.5163 121.275 48.2256 121.088 49.0043 121.088C49.7723 121.088 50.4389 121.253 51.0043 121.584C51.5696 121.915 51.9909 122.331 52.2683 122.832V121.232H53.7403V130H52.2683V128.368C51.9803 128.88 51.5483 129.307 50.9723 129.648C50.4069 129.979 49.7456 130.144 48.9883 130.144C48.2096 130.144 47.5056 129.952 46.8763 129.568C46.2469 129.184 45.7509 128.645 45.3883 127.952C45.0256 127.259 44.8443 126.469 44.8443 125.584ZM52.2683 125.6C52.2683 124.939 52.1349 124.363 51.8683 123.872C51.6016 123.381 51.2389 123.008 50.7803 122.752C50.3323 122.485 49.8363 122.352 49.2923 122.352C48.7483 122.352 48.2523 122.48 47.8043 122.736C47.3563 122.992 46.9989 123.365 46.7323 123.856C46.4656 124.347 46.3323 124.923 46.3323 125.584C46.3323 126.256 46.4656 126.843 46.7323 127.344C46.9989 127.835 47.3563 128.213 47.8043 128.48C48.2523 128.736 48.7483 128.864 49.2923 128.864C49.8363 128.864 50.3323 128.736 50.7803 128.48C51.2389 128.213 51.6016 127.835 51.8683 127.344C52.1349 126.843 52.2683 126.261 52.2683 125.6ZM55.6568 125.6C55.6568 124.693 55.8381 123.904 56.2008 123.232C56.5634 122.549 57.0648 122.021 57.7048 121.648C58.3554 121.275 59.0968 121.088 59.9288 121.088C61.0061 121.088 61.8914 121.349 62.5848 121.872C63.2888 122.395 63.7528 123.12 63.9768 124.048H62.4088C62.2594 123.515 61.9661 123.093 61.5288 122.784C61.1021 122.475 60.5688 122.32 59.9288 122.32C59.0968 122.32 58.4248 122.608 57.9128 123.184C57.4008 123.749 57.1448 124.555 57.1448 125.6C57.1448 126.656 57.4008 127.472 57.9128 128.048C58.4248 128.624 59.0968 128.912 59.9288 128.912C60.5688 128.912 61.1021 128.763 61.5288 128.464C61.9554 128.165 62.2488 127.739 62.4088 127.184H63.9768C63.7421 128.08 63.2728 128.8 62.5688 129.344C61.8648 129.877 60.9848 130.144 59.9288 130.144C59.0968 130.144 58.3554 129.957 57.7048 129.584C57.0648 129.211 56.5634 128.683 56.2008 128C55.8381 127.317 55.6568 126.517 55.6568 125.6ZM67.6955 122.432V127.6C67.6955 128.027 67.7862 128.331 67.9675 128.512C68.1488 128.683 68.4635 128.768 68.9115 128.768H69.9835V130H68.6715C67.8608 130 67.2528 129.813 66.8475 129.44C66.4422 129.067 66.2395 128.453 66.2395 127.6V122.432H65.1035V121.232H66.2395V119.024H67.6955V121.232H69.9835V122.432H67.6955Z" fill="#AFAFAF"/>
</svg>
