<svg width="48" height="48" viewBox="0 0 48 48" fill="none" xmlns="http://www.w3.org/2000/svg">
<path d="M44.7476 34.5273C42.3444 35.7991 29.895 40.9961 27.2446 42.399C24.5942 43.8021 23.1218 43.7885 21.028 42.7723C18.9343 41.7561 5.68598 36.3228 3.29944 35.1645C2.10678 34.5859 1.47949 34.0972 1.47949 33.6357V29.0143C1.47949 29.0143 18.7273 25.2021 21.5117 24.1879C24.296 23.1736 25.2621 23.137 27.6316 24.0182C30.0014 24.8998 44.1701 27.4952 46.512 28.366L46.5109 32.9221C46.5113 33.3789 45.9709 33.8801 44.7476 34.5273" fill="#CBCBCB"/>
<path d="M44.7467 29.9331C42.3436 31.2044 29.8946 36.4016 27.2442 37.8043C24.594 39.2076 23.1216 39.1938 21.028 38.1776C18.9341 37.1621 5.6863 31.7279 3.29993 30.5704C0.913556 29.4122 0.863598 28.6151 3.20775 27.6831C5.5519 26.7509 18.7271 21.5027 21.5119 20.4885C24.2962 19.4746 25.2621 19.4376 27.6315 20.3192C30.0012 21.2004 42.376 26.2013 44.7175 27.072C47.0599 27.9437 47.1498 28.6615 44.7467 29.9331" fill="#E2E2E2"/>
<path d="M44.7476 27.0492C42.3444 28.3211 29.895 33.518 27.2446 34.9214C24.5942 36.324 23.1218 36.3104 21.028 35.2942C18.9342 34.2785 5.68598 28.8446 3.29944 27.6864C2.10678 27.1077 1.47949 26.6198 1.47949 26.1581V21.5362C1.47949 21.5362 18.7273 17.7242 21.5117 16.7099C24.296 15.6957 25.2621 15.6589 27.6316 16.5403C30.0016 17.4216 44.1703 20.0165 46.512 20.8875L46.5109 25.4441C46.5113 25.9008 45.9709 26.4019 44.7476 27.0492Z" fill="#CBCBCB"/>
<path d="M44.7467 22.4555C42.3436 23.7271 29.8946 28.924 27.2442 30.3272C24.594 31.7299 23.1216 31.7162 21.028 30.7C18.9341 29.6844 5.6863 24.2504 3.29993 23.0927C0.913556 21.9349 0.863598 21.1376 3.20775 20.2053C5.5519 19.2736 18.7273 14.0251 21.5119 13.011C24.2962 11.9969 25.2621 11.9602 27.6315 12.8415C30.0012 13.7227 42.376 18.7233 44.7175 19.5943C47.0599 20.4659 47.1498 21.1839 44.7467 22.4555" fill="#E2E2E2"/>
<path d="M44.7476 19.2944C42.3444 20.566 29.895 25.7632 27.2446 27.1667C24.5942 28.5694 23.1218 28.5556 21.028 27.5394C18.9342 26.5237 5.68598 21.0897 3.29944 19.932C2.10678 19.3528 1.47949 18.8647 1.47949 18.4036V13.7814C1.47949 13.7814 18.7273 9.9696 21.5117 8.95552C24.296 7.94108 25.2621 7.90464 27.6316 8.78585C30.0016 9.66723 44.1703 12.2621 46.512 13.1331L46.5109 17.6895C46.5113 18.1458 45.9709 18.647 44.7476 19.2944Z" fill="#CBCBCB"/>
<path d="M44.7466 14.7004C42.3435 15.972 29.8945 21.1692 27.2441 22.572C24.5939 23.9747 23.1215 23.9609 21.0279 22.9452C18.9342 21.929 5.68621 16.4953 3.30001 15.3375C0.913468 14.1798 0.863686 13.3823 3.20766 12.4502C5.55182 11.5183 18.7272 6.27055 21.5118 5.25611C24.2961 4.24185 25.262 4.20542 27.6315 5.0868C30.0011 5.96819 42.3759 10.9688 44.7174 11.8398C47.0598 12.7106 47.1497 13.4288 44.7466 14.7004" fill="#E2E2E2"/>
<path d="M29.4982 10.2044L25.6264 10.6125L24.7597 12.7299L23.3599 10.3671L18.8892 9.95916L22.2251 8.73772L21.2242 6.86279L24.3474 8.10298L27.2918 7.12426L26.496 9.06295L29.4982 10.2044M24.5286 20.477L17.3028 17.4342L27.6568 15.8206L24.5286 20.477M14.5106 11.3813C17.567 11.3813 20.0447 12.3565 20.0447 13.5592C20.0447 14.7622 17.567 15.7372 14.5106 15.7372C11.4542 15.7372 8.97656 14.762 8.97656 13.5592C8.97656 12.3565 11.4542 11.3813 14.5106 11.3813Z" fill="white"/>
<path d="M34.0742 10.7834L40.2022 13.242L34.0795 15.6982L34.0742 10.7832" fill="#AFAFAF"/>
<path d="M27.2949 13.5059L34.0744 10.7832L34.0797 15.6981L33.4149 15.962L27.2949 13.5059Z" fill="#AFAFAF"/>
</svg>
