<svg width="96" height="136" viewBox="0 0 96 136" fill="none" xmlns="http://www.w3.org/2000/svg">
<path d="M89.4943 69.0541C84.6878 71.5977 59.789 81.9918 54.4882 84.7976C49.1874 87.6037 46.2427 87.5766 42.055 85.5441C37.8677 83.5117 11.371 72.645 6.5979 70.3286C4.21258 69.1713 2.95801 68.194 2.95801 67.271V58.0282C2.95801 58.0282 37.4536 50.4038 43.0225 48.3753C48.5911 46.3467 50.5232 46.2735 55.2622 48.0359C60.0019 49.7991 88.3393 54.9898 93.023 56.7315L93.0209 65.8436C93.0216 66.7573 91.9408 67.7596 89.4943 69.0541Z" fill="#CBCBCB"/>
<path d="M89.4924 59.8663C84.6863 62.4088 59.7882 72.8032 54.4874 75.6086C49.187 78.4151 46.2423 78.3876 42.0549 76.3552C37.8673 74.3242 11.3716 63.4557 6.59888 61.1407C1.82614 58.8243 1.72622 57.2301 6.41452 55.3663C11.1028 53.5017 37.4532 43.0055 43.0228 40.977C48.5913 38.9492 50.5232 38.8752 55.2621 40.6383C60.0014 42.4007 84.751 52.4026 89.434 54.144C94.1188 55.8874 94.2986 57.323 89.4924 59.8663Z" fill="#E2E2E2"/>
<path d="M89.4943 54.0988C84.6878 56.6428 59.789 67.0365 54.4882 69.8433C49.1874 72.6484 46.2427 72.6213 42.055 70.5888C37.8673 68.5574 11.371 57.6897 6.5979 55.3733C4.21258 54.216 2.95801 53.2401 2.95801 52.3168V43.0729C2.95801 43.0729 37.4536 35.4488 43.0225 33.4203C48.5911 31.3918 50.5232 31.3182 55.2622 33.081C60.0022 34.8438 88.3396 40.0335 93.023 41.7755L93.0209 50.8887C93.0216 51.802 91.9408 52.8043 89.4943 54.0988Z" fill="#CBCBCB"/>
<path d="M89.4924 44.9105C84.6863 47.4537 59.7882 57.8475 54.4874 60.654C49.187 63.4594 46.2423 63.4319 42.0549 61.3994C37.8673 59.3684 11.3716 48.5003 6.59888 46.185C1.82614 43.8693 1.72622 42.2747 6.41452 40.4102C11.1028 38.5467 37.4535 28.0497 43.0228 26.0216C48.5913 23.9934 50.5232 23.9198 55.2621 25.6826C60.0014 27.445 84.751 37.4462 89.434 39.1882C94.1188 40.9313 94.2986 42.3673 89.4924 44.9105Z" fill="#E2E2E2"/>
<path d="M89.4943 38.5888C84.6878 41.1321 59.789 51.5265 54.4882 54.3333C49.1874 57.1388 46.2427 57.1113 42.055 55.0788C37.8673 53.0474 11.371 42.1794 6.5979 39.864C4.21258 38.7056 2.95801 37.7294 2.95801 36.8071V27.5629C2.95801 27.5629 37.4536 19.9392 43.0225 17.911C48.5911 15.8822 50.5232 15.8093 55.2622 17.5717C60.0022 19.3345 88.3396 24.5242 93.023 26.2662L93.0209 35.379C93.0216 36.2917 91.9408 37.294 89.4943 38.5888Z" fill="#CBCBCB"/>
<path d="M89.4932 29.4008C84.6871 31.944 59.789 42.3385 54.4882 45.1439C49.1878 47.9493 46.243 47.9218 42.0557 45.8904C37.8684 43.858 11.3724 32.9906 6.60003 30.6749C1.82694 28.3596 1.72737 26.7647 6.41533 24.9005C11.1036 23.0366 37.4543 12.5411 43.0236 10.5122C48.5921 8.4837 50.524 8.41084 55.2629 10.1736C60.0022 11.9364 84.7518 21.9375 89.4348 23.6796C94.1196 25.4213 94.2994 26.8576 89.4932 29.4008Z" fill="#E2E2E2"/>
<path d="M58.9964 20.4092L51.2529 21.2254L49.5195 25.4604L46.7197 20.7346L37.7783 19.9188L44.4502 17.4759L42.4483 13.7261L48.6948 16.2064L54.5835 14.249L52.9919 18.1264L58.9964 20.4092ZM49.0572 40.9545L34.6056 34.8689L55.3136 31.6416L49.0572 40.9545ZM29.0213 22.7632C35.1341 22.7632 40.0894 24.7135 40.0894 27.1188C40.0894 29.5249 35.1341 31.4748 29.0213 31.4748C22.9085 31.4748 17.9531 29.5245 17.9531 27.1188C17.9531 24.7135 22.9085 22.7632 29.0213 22.7632Z" fill="white"/>
<path d="M68.1484 21.5668L80.4043 26.4839L68.159 31.3965L68.1484 21.5664" fill="#AFAFAF"/>
<path d="M54.5889 27.0124L68.1479 21.5669L68.1584 31.3966L66.8289 31.9245L54.5889 27.0124Z" fill="#AFAFAF"/>
<path d="M33.7212 130L31.0652 125.44H29.3052V130H27.8492V118.848H31.4492C32.2919 118.848 33.0012 118.992 33.5772 119.28C34.1639 119.568 34.6012 119.957 34.8892 120.448C35.1772 120.939 35.3212 121.499 35.3212 122.128C35.3212 122.896 35.0972 123.573 34.6492 124.16C34.2119 124.747 33.5505 125.136 32.6652 125.328L35.4652 130H33.7212ZM29.3052 124.272H31.4492C32.2385 124.272 32.8305 124.08 33.2252 123.696C33.6199 123.301 33.8172 122.779 33.8172 122.128C33.8172 121.467 33.6199 120.955 33.2252 120.592C32.8412 120.229 32.2492 120.048 31.4492 120.048H29.3052V124.272ZM45.5836 125.28C45.5836 125.557 45.5676 125.851 45.5356 126.16H38.5276C38.5809 127.024 38.8742 127.701 39.4076 128.192C39.9516 128.672 40.6076 128.912 41.3756 128.912C42.0049 128.912 42.5276 128.768 42.9436 128.48C43.3702 128.181 43.6689 127.787 43.8396 127.296H45.4076C45.1729 128.139 44.7036 128.827 43.9996 129.36C43.2956 129.883 42.4209 130.144 41.3756 130.144C40.5436 130.144 39.7969 129.957 39.1356 129.584C38.4849 129.211 37.9729 128.683 37.5996 128C37.2262 127.307 37.0396 126.507 37.0396 125.6C37.0396 124.693 37.2209 123.899 37.5836 123.216C37.9462 122.533 38.4529 122.011 39.1036 121.648C39.7649 121.275 40.5222 121.088 41.3756 121.088C42.2076 121.088 42.9436 121.269 43.5836 121.632C44.2236 121.995 44.7142 122.496 45.0556 123.136C45.4076 123.765 45.5836 124.48 45.5836 125.28ZM44.0796 124.976C44.0796 124.421 43.9569 123.947 43.7116 123.552C43.4662 123.147 43.1302 122.843 42.7036 122.64C42.2876 122.427 41.8236 122.32 41.3116 122.32C40.5756 122.32 39.9462 122.555 39.4236 123.024C38.9116 123.493 38.6182 124.144 38.5436 124.976H44.0796ZM46.9614 125.584C46.9614 124.688 47.1428 123.904 47.5054 123.232C47.8681 122.549 48.3641 122.021 48.9934 121.648C49.6334 121.275 50.3481 121.088 51.1374 121.088C51.8201 121.088 52.4548 121.248 53.0414 121.568C53.6281 121.877 54.0761 122.288 54.3854 122.8V118.16H55.8574V130H54.3854V128.352C54.0974 128.875 53.6708 129.307 53.1054 129.648C52.5401 129.979 51.8788 130.144 51.1214 130.144C50.3428 130.144 49.6334 129.952 48.9934 129.568C48.3641 129.184 47.8681 128.645 47.5054 127.952C47.1428 127.259 46.9614 126.469 46.9614 125.584ZM54.3854 125.6C54.3854 124.939 54.2521 124.363 53.9854 123.872C53.7188 123.381 53.3561 123.008 52.8974 122.752C52.4494 122.485 51.9534 122.352 51.4094 122.352C50.8654 122.352 50.3694 122.48 49.9214 122.736C49.4734 122.992 49.1161 123.365 48.8494 123.856C48.5828 124.347 48.4494 124.923 48.4494 125.584C48.4494 126.256 48.5828 126.843 48.8494 127.344C49.1161 127.835 49.4734 128.213 49.9214 128.48C50.3694 128.736 50.8654 128.864 51.4094 128.864C51.9534 128.864 52.4494 128.736 52.8974 128.48C53.3561 128.213 53.7188 127.835 53.9854 127.344C54.2521 126.843 54.3854 126.261 54.3854 125.6ZM59.0699 119.808C58.7926 119.808 58.5579 119.712 58.3659 119.52C58.1739 119.328 58.0779 119.093 58.0779 118.816C58.0779 118.539 58.1739 118.304 58.3659 118.112C58.5579 117.92 58.7926 117.824 59.0699 117.824C59.3366 117.824 59.5606 117.92 59.7419 118.112C59.9339 118.304 60.0299 118.539 60.0299 118.816C60.0299 119.093 59.9339 119.328 59.7419 119.52C59.5606 119.712 59.3366 119.808 59.0699 119.808ZM59.7739 121.232V130H58.3179V121.232H59.7739ZM65.3594 130.144C64.6874 130.144 64.0848 130.032 63.5514 129.808C63.0181 129.573 62.5968 129.253 62.2874 128.848C61.9781 128.432 61.8074 127.957 61.7754 127.424H63.2794C63.3221 127.861 63.5248 128.219 63.8874 128.496C64.2608 128.773 64.7461 128.912 65.3434 128.912C65.8981 128.912 66.3354 128.789 66.6554 128.544C66.9754 128.299 67.1354 127.989 67.1354 127.616C67.1354 127.232 66.9648 126.949 66.6234 126.768C66.2821 126.576 65.7541 126.389 65.0394 126.208C64.3888 126.037 63.8554 125.867 63.4394 125.696C63.0341 125.515 62.6821 125.253 62.3834 124.912C62.0954 124.56 61.9514 124.101 61.9514 123.536C61.9514 123.088 62.0848 122.677 62.3514 122.304C62.6181 121.931 62.9968 121.637 63.4874 121.424C63.9781 121.2 64.5381 121.088 65.1674 121.088C66.1381 121.088 66.9221 121.333 67.5194 121.824C68.1168 122.315 68.4368 122.987 68.4794 123.84H67.0234C66.9914 123.381 66.8048 123.013 66.4634 122.736C66.1328 122.459 65.6848 122.32 65.1194 122.32C64.5968 122.32 64.1808 122.432 63.8714 122.656C63.5621 122.88 63.4074 123.173 63.4074 123.536C63.4074 123.824 63.4981 124.064 63.6794 124.256C63.8714 124.437 64.1061 124.587 64.3834 124.704C64.6714 124.811 65.0661 124.933 65.5674 125.072C66.1968 125.243 66.7088 125.413 67.1034 125.584C67.4981 125.744 67.8341 125.989 68.1114 126.32C68.3994 126.651 68.5488 127.083 68.5594 127.616C68.5594 128.096 68.4261 128.528 68.1594 128.912C67.8928 129.296 67.5141 129.6 67.0234 129.824C66.5434 130.037 65.9888 130.144 65.3594 130.144Z" fill="#AFAFAF"/>
</svg>
