<svg width="48" height="48" viewBox="0 0 48 48" fill="none" xmlns="http://www.w3.org/2000/svg">
<g clip-path="url(#clip0_223_1375)">
<path d="M33.566 32.3027C35.3004 32.1224 36.6163 30.6205 36.5564 28.8181C36.4967 27.0158 35.0014 25.5739 33.2071 25.5739H33.0876C31.2333 25.634 29.798 27.196 29.8578 29.0584C29.9177 29.9596 30.2764 30.7406 30.8147 31.2813C28.7812 35.3066 25.6711 38.2504 21.006 40.7135C17.8361 42.3957 14.5466 42.9966 11.2572 42.5761C8.56571 42.2156 6.47238 41.0141 5.15638 39.0313C3.2426 36.0876 3.06322 32.9033 4.67812 29.7193C5.81456 27.4363 7.60864 25.7541 8.74508 24.913C8.50586 24.132 8.14694 22.8103 7.96756 21.8491C-0.704854 28.1573 0.192369 36.6884 2.824 40.7135C4.79763 43.7176 8.80494 45.58 13.2308 45.58C14.4269 45.58 15.6231 45.4597 16.8194 45.1595C24.475 43.6575 30.2766 39.0915 33.566 32.3027V32.3027ZM44.0926 24.853C39.547 19.506 32.8484 16.5622 25.1927 16.5622H24.2358C23.6975 15.4809 22.5611 14.7598 21.3051 14.7598H21.1854C19.3315 14.8199 17.8961 16.3819 17.9558 18.2444C18.0157 20.0467 19.5108 21.4886 21.3051 21.4886H21.4246C22.7404 21.4285 23.8769 20.5874 24.3553 19.4459H25.4319C29.9775 19.4459 34.2837 20.7676 38.1715 23.351C41.1619 25.3336 43.3151 27.917 44.5112 31.041C45.5279 33.5643 45.4681 36.0275 44.3915 38.1303C42.7169 41.3144 39.9059 43.0567 36.1977 43.0567C33.8053 43.0567 31.5326 42.3356 30.3363 41.7949C29.6784 42.3957 28.4821 43.3569 27.6448 43.9579C30.2167 45.1593 32.8484 45.8203 35.3603 45.8203C41.102 45.8203 45.3485 42.636 46.9634 39.452C48.6978 35.9673 48.5781 29.9596 44.0926 24.853V24.853ZM13.7093 33.3238C13.7691 35.1262 15.2643 36.568 17.0586 36.568H17.1783C19.0324 36.508 20.4677 34.9459 20.4079 33.0835C20.3482 31.2811 18.8528 29.8393 17.0586 29.8393H16.9391C16.8194 29.8393 16.6398 29.8393 16.5205 29.8993C14.0682 25.814 13.0515 21.3684 13.4104 16.5621C13.6494 12.9574 14.8457 9.83325 16.9391 7.24982C18.6735 5.02692 22.0228 3.94553 24.2957 3.8856C30.6353 3.76536 33.3266 11.6956 33.5062 14.8799C34.2837 15.06 35.5995 15.4807 36.4967 15.7811C35.7789 6.04856 29.798 1.00195 24.0564 1.00195C18.6735 1.00195 13.7093 4.90706 11.7355 10.6745C8.98431 18.3645 10.7786 25.7541 14.1279 31.5817C13.829 32.0021 13.6494 32.663 13.7093 33.324V33.3238Z" fill="#CBCBCB"/>
</g>
<defs>
<clipPath id="clip0_223_1375">
<rect width="48" height="48" fill="white"/>
</clipPath>
</defs>
</svg>
