<svg width="48" height="48" viewBox="0 0 48 48" fill="none" xmlns="http://www.w3.org/2000/svg">
<path d="M25.6064 20.0322C25.6062 19.7077 25.6915 19.3889 25.8536 19.1079C26.0157 18.8269 26.249 18.5936 26.5299 18.4316C26.8109 18.2695 27.1295 18.1844 27.4538 18.1849C27.7781 18.1853 28.0965 18.2712 28.377 18.434C30.0489 17.8199 31.9109 17.4985 33.847 17.4985C39.0314 17.4985 43.4782 19.8156 44.9813 23.1501C44.9685 23.9395 43.8477 24.3072 43.4005 23.8227C42.168 21.1444 38.2745 19.2164 33.847 19.2164C32.2377 19.2164 30.6933 19.4622 29.2948 19.9317C29.3085 20.1783 29.2727 20.4251 29.1894 20.6575C29.1061 20.89 28.9771 21.1033 28.81 21.285C28.6429 21.4667 28.441 21.613 28.2164 21.7152C27.9918 21.8175 27.749 21.8737 27.5023 21.8804C27.2556 21.8871 27.0101 21.8442 26.7802 21.7544C26.5504 21.6645 26.3409 21.5294 26.1641 21.3571C25.9874 21.1848 25.8469 20.9787 25.7511 20.7512C25.6554 20.5236 25.6061 20.2791 25.6064 20.0322V20.0322ZM46.3363 26.9035C46.3365 26.6089 46.2663 26.3185 46.1314 26.0566C45.9966 25.7947 45.801 25.5688 45.5612 25.3979C45.3213 25.227 45.0441 25.1161 44.7526 25.0743C44.4611 25.0324 44.1639 25.061 43.8857 25.1576C43.6075 25.2542 43.3565 25.4159 43.1535 25.6294C42.9506 25.8429 42.8016 26.1018 42.7191 26.3846C42.6365 26.6675 42.6228 26.9659 42.679 27.2551C42.7353 27.5443 42.8599 27.8159 43.0424 28.0471C42.4528 28.9541 41.5364 29.7756 40.3622 30.4354C38.5486 31.4528 36.2352 32.0136 33.8463 32.0136C31.7778 32.0136 29.7918 31.6039 28.1014 30.8273C26.9593 30.3022 26.0094 29.6395 25.2995 28.8764C24.8289 28.6021 23.7408 29.4771 24.1353 30.144C26.2672 32.3627 29.883 33.7321 33.8463 33.7321C36.5243 33.7321 39.1368 33.0937 41.2024 31.9338C42.7163 31.0838 43.8912 29.983 44.6303 28.7446C45.0941 28.7091 45.5274 28.4998 45.8437 28.1585C46.16 27.8172 46.3359 27.369 46.3363 26.9035V26.9035Z" fill="#E2E2E2"/>
<path d="M10.7787 30.369C9.0954 28.1852 8.14196 25.1037 8.14196 21.7763C8.14196 18.7482 8.94017 15.8903 10.3892 13.7286C11.908 11.4607 13.963 10.2124 16.1746 10.2124C18.1904 10.2124 20.1122 11.2755 21.5869 13.2049C22.9789 15.0275 23.8847 17.5134 24.136 20.2059C23.5385 19.8755 22.9226 19.5798 22.2911 19.3203C21.5769 15.0403 19.0591 11.9302 16.1746 11.9302C14.5533 11.9302 13.0045 12.9085 11.814 14.6855C10.553 16.5672 9.858 19.0859 9.858 21.777C9.858 24.7353 10.7317 27.544 12.2149 29.4178C12.6252 29.377 13.0373 29.4747 13.3856 29.6956C13.7339 29.9164 13.9983 30.2476 14.1365 30.6363C14.2748 31.0249 14.279 31.4488 14.1485 31.8401C14.018 32.2315 13.7603 32.5679 13.4164 32.7956C13.0726 33.0233 12.6625 33.1292 12.2514 33.0965C11.8404 33.0638 11.4522 32.8943 11.1486 32.6151C10.8451 32.3359 10.6438 31.963 10.5767 31.5559C10.5096 31.1488 10.5808 30.731 10.7787 30.369V30.369ZM23.911 21.2626C20.8976 19.5212 17.5353 18.8301 14.7526 19.316C14.4588 19.0272 14.0768 18.845 13.6675 18.7985C13.2582 18.752 12.8451 18.8438 12.494 19.0594C12.1429 19.275 11.874 19.6019 11.73 19.9881C11.586 20.3742 11.5753 20.7975 11.6996 21.1905C11.8238 21.5835 12.0759 21.9236 12.4156 22.1567C12.7554 22.3898 13.1633 22.5024 13.5744 22.4767C13.9855 22.451 14.3763 22.2884 14.6843 22.0148C14.9924 21.7412 15.2002 21.3723 15.2746 20.9669C17.6165 20.6206 20.4597 21.2519 23.0523 22.7503C26.2188 24.5793 28.4582 27.4186 28.8961 30.0513C29.4422 30.2793 30.0382 30.4745 30.6833 30.6262C30.5153 27.2062 27.8928 23.5618 23.911 21.2626ZM24.366 35.4983C22.7041 35.7099 20.8186 35.4456 18.9644 34.7516C18.4318 35.1634 17.8679 35.5496 17.2754 35.9066C19.245 36.8115 21.3085 37.2867 23.2225 37.2867C23.686 37.2867 24.1417 37.2589 24.5839 37.2026C26.876 36.9112 28.6924 35.8767 29.737 34.2778C29.1458 34.1345 28.5633 33.9573 27.9925 33.747C27.1886 34.6854 25.929 35.2995 24.366 35.4983V35.4983ZM22.5282 28.7495C22.9405 28.7451 23.3395 28.6026 23.6615 28.3448C23.9834 28.0871 24.2098 27.7288 24.3046 27.3273C24.3994 26.9257 24.357 26.504 24.1843 26.1293C24.0116 25.7546 23.7185 25.4486 23.3517 25.2601C22.985 25.0716 22.5657 25.0114 22.1607 25.0891C21.7557 25.1668 21.3885 25.378 21.1174 25.6889C20.8464 25.9999 20.6873 26.3927 20.6654 26.8047C20.6435 27.2167 20.7601 27.6242 20.9966 27.9622C20.6456 28.8072 20.1307 29.653 19.4742 30.4588C18.4589 31.7043 17.1238 32.8243 15.6135 33.6971C13.5051 34.9162 11.2344 35.5703 9.14595 35.5696C8.92806 35.5696 8.7116 35.5624 8.49799 35.5482C6.36468 35.405 4.74406 34.5521 3.93303 33.1478C2.49612 30.6569 3.92876 26.9106 7.2697 24.1553C7.18755 23.5423 7.13764 22.9254 7.12017 22.3071L7.02547 22.1753C4.84944 23.7406 3.17612 25.7613 2.31241 27.8632C1.39742 30.0904 1.44513 32.2721 2.44627 34.0063C3.55209 35.9223 5.66047 37.0794 8.38263 37.2625C8.63256 37.2789 8.88534 37.2874 9.14025 37.2874C11.5292 37.2874 14.1032 36.5535 16.4715 35.1848C19.2948 33.5546 21.4623 31.2262 22.5282 28.7495V28.7495Z" fill="#CBCBCB"/>
</svg>
