<svg width="96" height="136" viewBox="0 0 96 136" fill="none" xmlns="http://www.w3.org/2000/svg">
<g>
<path d="M67.1321 64.6054C70.6009 64.2447 73.2325 61.241 73.1128 57.6361C72.9935 54.0316 70.0027 51.1478 66.4142 51.1478H66.1752C62.4666 51.268 59.5959 54.392 59.7156 58.1167C59.8353 59.9191 60.5528 61.4811 61.6294 62.5625C57.5624 70.6132 51.3423 76.5007 42.0121 81.4271C35.6722 84.7915 29.0933 85.9931 22.5144 85.1522C17.1314 84.4312 12.9448 82.0283 10.3128 78.0627C6.48519 72.1751 6.12645 65.8067 9.35623 59.4386C11.6291 54.8725 15.2173 51.5081 17.4902 49.8259C17.0117 48.264 16.2939 45.6206 15.9351 43.6983C-1.40971 56.3146 0.384738 73.3768 5.648 81.4271C9.59527 87.4352 17.6099 91.16 26.4617 91.16C28.8539 91.16 31.2461 90.9195 33.6387 90.319C48.9501 87.315 60.5532 78.1829 67.1321 64.6054ZM88.1851 49.7061C79.0939 39.012 65.6967 33.1245 50.3854 33.1245H48.4716C47.395 30.9617 45.1221 29.5196 42.6102 29.5196H42.3708C38.6629 29.6398 35.7923 32.7638 35.9116 36.4889C36.0313 40.0934 39.0217 42.9772 42.6102 42.9772H42.8492C45.4809 42.857 47.7538 41.1748 48.7107 38.8918H50.8638C59.955 38.8918 68.5674 41.5351 76.343 46.702C82.3237 50.6672 86.6301 55.8341 89.0223 62.0819C91.0558 67.1285 90.9361 72.0549 88.7829 76.2606C85.4338 82.6287 79.8118 86.1134 72.3953 86.1134C67.6105 86.1134 63.0651 84.6712 60.6725 83.5899C59.3569 84.7915 56.9643 86.7138 55.2895 87.9158C60.4335 90.3187 65.6967 91.6405 70.7206 91.6405C82.204 91.6405 90.6971 85.2721 93.9269 78.904C97.3957 71.9347 97.1563 59.9191 88.1851 49.7061ZM27.4185 66.6476C27.5383 70.2525 30.5286 73.1359 34.1172 73.1359H34.3566C38.0648 73.0161 40.9355 69.8918 40.8158 66.167C40.6964 62.5621 37.7057 59.6787 34.1172 59.6787H33.8781C33.6387 59.6787 33.2796 59.6787 33.0409 59.7985C28.1364 51.628 26.1029 42.7368 26.8208 33.1241C27.2988 25.9147 29.6914 19.6665 33.8781 14.4996C37.3469 10.0538 44.0455 7.89107 48.5913 7.7712C61.2707 7.53073 66.6533 23.3912 67.0124 29.7597C68.5674 30.1201 71.199 30.9613 72.9935 31.5622C71.5578 12.0971 59.5959 2.00391 48.1129 2.00391C37.3469 2.00391 27.4186 9.81411 23.4709 21.3491C17.9686 36.729 21.5571 51.5081 28.2557 63.1633C27.658 64.0042 27.2988 65.3261 27.4185 66.648V66.6476Z" fill="#CBCBCB"/>
</g>
<path d="M30.9243 130L28.2683 125.44H26.5083V130H25.0523V118.848H28.6523C29.495 118.848 30.2043 118.992 30.7803 119.28C31.367 119.568 31.8043 119.957 32.0923 120.448C32.3803 120.939 32.5243 121.499 32.5243 122.128C32.5243 122.896 32.3003 123.573 31.8523 124.16C31.415 124.747 30.7536 125.136 29.8683 125.328L32.6683 130H30.9243ZM26.5083 124.272H28.6523C29.4416 124.272 30.0336 124.08 30.4283 123.696C30.823 123.301 31.0203 122.779 31.0203 122.128C31.0203 121.467 30.823 120.955 30.4283 120.592C30.0443 120.229 29.4523 120.048 28.6523 120.048H26.5083V124.272ZM42.7867 125.28C42.7867 125.557 42.7707 125.851 42.7387 126.16H35.7307C35.784 127.024 36.0774 127.701 36.6107 128.192C37.1547 128.672 37.8107 128.912 38.5787 128.912C39.208 128.912 39.7307 128.768 40.1467 128.48C40.5734 128.181 40.872 127.787 41.0427 127.296H42.6107C42.376 128.139 41.9067 128.827 41.2027 129.36C40.4987 129.883 39.624 130.144 38.5787 130.144C37.7467 130.144 37 129.957 36.3387 129.584C35.688 129.211 35.176 128.683 34.8027 128C34.4294 127.307 34.2427 126.507 34.2427 125.6C34.2427 124.693 34.424 123.899 34.7867 123.216C35.1494 122.533 35.656 122.011 36.3067 121.648C36.968 121.275 37.7254 121.088 38.5787 121.088C39.4107 121.088 40.1467 121.269 40.7867 121.632C41.4267 121.995 41.9174 122.496 42.2587 123.136C42.6107 123.765 42.7867 124.48 42.7867 125.28ZM41.2827 124.976C41.2827 124.421 41.16 123.947 40.9147 123.552C40.6694 123.147 40.3334 122.843 39.9067 122.64C39.4907 122.427 39.0267 122.32 38.5147 122.32C37.7787 122.32 37.1494 122.555 36.6267 123.024C36.1147 123.493 35.8214 124.144 35.7467 124.976H41.2827ZM44.1646 125.584C44.1646 124.688 44.3459 123.904 44.7086 123.232C45.0712 122.549 45.5672 122.021 46.1966 121.648C46.8366 121.275 47.5512 121.088 48.3406 121.088C49.0232 121.088 49.6579 121.248 50.2446 121.568C50.8312 121.877 51.2792 122.288 51.5886 122.8V118.16H53.0606V130H51.5886V128.352C51.3006 128.875 50.8739 129.307 50.3086 129.648C49.7432 129.979 49.0819 130.144 48.3246 130.144C47.5459 130.144 46.8366 129.952 46.1966 129.568C45.5672 129.184 45.0712 128.645 44.7086 127.952C44.3459 127.259 44.1646 126.469 44.1646 125.584ZM51.5886 125.6C51.5886 124.939 51.4552 124.363 51.1886 123.872C50.9219 123.381 50.5592 123.008 50.1006 122.752C49.6526 122.485 49.1566 122.352 48.6126 122.352C48.0686 122.352 47.5726 122.48 47.1246 122.736C46.6766 122.992 46.3192 123.365 46.0526 123.856C45.7859 124.347 45.6526 124.923 45.6526 125.584C45.6526 126.256 45.7859 126.843 46.0526 127.344C46.3192 127.835 46.6766 128.213 47.1246 128.48C47.5726 128.736 48.0686 128.864 48.6126 128.864C49.1566 128.864 49.6526 128.736 50.1006 128.48C50.5592 128.213 50.9219 127.835 51.1886 127.344C51.4552 126.843 51.5886 126.261 51.5886 125.6ZM63.2971 121.232V130H61.8411V128.704C61.5637 129.152 61.1744 129.504 60.6731 129.76C60.1824 130.005 59.6384 130.128 59.0411 130.128C58.3584 130.128 57.7451 129.989 57.2011 129.712C56.6571 129.424 56.2251 128.997 55.9051 128.432C55.5957 127.867 55.4411 127.179 55.4411 126.368V121.232H56.8811V126.176C56.8811 127.04 57.0997 127.707 57.5371 128.176C57.9744 128.635 58.5717 128.864 59.3291 128.864C60.1077 128.864 60.7211 128.624 61.1691 128.144C61.6171 127.664 61.8411 126.965 61.8411 126.048V121.232H63.2971ZM70.3314 130L68.2514 126.736L66.2514 130H64.7314L67.5634 125.648L64.7314 121.232H66.3794L68.4594 124.48L70.4434 121.232H71.9634L69.1474 125.568L71.9794 130H70.3314Z" fill="#AFAFAF"/>
<defs>
<clipPath id="clip0_223_1432">
<rect width="96" height="96" fill="white"/>
</clipPath>
</defs>
</svg>
