<svg width="96" height="136" viewBox="0 0 96 136" fill="none" xmlns="http://www.w3.org/2000/svg">
<path fill-rule="evenodd" clip-rule="evenodd" d="M73.2763 62.7234L20.75 94L88.7616 89.3721L93.9999 20.6021L73.2763 62.7234Z" fill="#E2E2E2"/>
<path fill-rule="evenodd" clip-rule="evenodd" d="M88.8699 89.325L83.0243 48.8661L67.1016 69.95L88.8699 89.325Z" fill="#AFAFAF"/>
<path fill-rule="evenodd" clip-rule="evenodd" d="M88.9511 89.325L46.1253 85.9539L20.9766 93.912L88.9511 89.325Z" fill="#AFAFAF"/>
<path fill-rule="evenodd" clip-rule="evenodd" d="M21.039 93.9208L31.7374 58.7748L8.19531 63.8227L21.039 93.9208Z" fill="#E2E2E2"/>
<path fill-rule="evenodd" clip-rule="evenodd" d="M67.1016 70.0664L57.2575 31.4001L29.0859 57.8808L67.1016 70.0664Z" fill="#E2E2E2"/>
<path fill-rule="evenodd" clip-rule="evenodd" d="M91.7643 31.9449L65.1343 10.1346L57.7188 34.1753L91.7643 31.9449Z" fill="#E2E2E2"/>
<path fill-rule="evenodd" clip-rule="evenodd" d="M79.3091 2.35853L63.6468 11.038L53.7656 2.24213L79.3091 2.35853Z" fill="#E2E2E2"/>
<path fill-rule="evenodd" clip-rule="evenodd" d="M2 75.6121L8.56115 63.6127L3.25372 49.3177L2 75.6121Z" fill="#E2E2E2"/>
<path fill-rule="evenodd" clip-rule="evenodd" d="M2.89844 48.8661L8.23837 64.0551L31.4415 58.8348L57.9322 34.1469L65.4081 10.3349L53.6366 2L33.6235 9.51068C27.3182 15.3916 15.0828 27.0278 14.6416 27.2467C14.2052 27.4702 6.56209 41.9561 2.89844 48.8661Z" fill="white"/>
<path fill-rule="evenodd" clip-rule="evenodd" d="M21.6481 21.5799C35.3137 7.99269 52.9308 -0.0348449 59.6916 6.80532C66.4482 13.6455 59.283 30.2686 45.6174 43.8512C31.9518 57.4337 14.553 65.9036 7.7968 59.0634C1.03598 52.2279 7.98253 35.1624 21.6481 21.5799Z" fill="#E2E2E2"/>
<path fill-rule="evenodd" clip-rule="evenodd" d="M21.0391 93.9069L31.6539 58.649L66.9067 70.0059C54.1605 81.9913 39.9842 92.1235 21.0391 93.9069Z" fill="#CBCBCB"/>
<path fill-rule="evenodd" clip-rule="evenodd" d="M57.9844 34.0775L67.0344 70.0245C77.6817 58.7981 87.2379 46.7288 91.918 31.8006L57.9844 34.0775Z" fill="#CBCBCB"/>
<path fill-rule="evenodd" clip-rule="evenodd" d="M91.8226 31.9822C95.4445 21.0211 96.2803 5.29666 79.2013 2.37714L65.1875 10.1393L91.8226 31.9822Z" fill="#CBCBCB"/>
<path fill-rule="evenodd" clip-rule="evenodd" d="M2 75.4538C2.50149 93.5442 15.517 93.8138 21.0612 93.9725L8.25468 63.9806L2 75.4538Z" fill="#CBCBCB"/>
<path fill-rule="evenodd" clip-rule="evenodd" d="M58.0312 34.1334C66.2129 39.1762 82.7022 49.3038 83.0365 49.49C83.5561 49.7834 90.1456 38.3474 91.6408 31.8844L58.0312 34.1334Z" fill="#AFAFAF"/>
<path fill-rule="evenodd" clip-rule="evenodd" d="M31.6406 58.649L45.8309 86.1028C54.2216 81.5396 60.792 75.9799 66.8099 70.0245L31.6406 58.649Z" fill="#AFAFAF"/>
<path fill-rule="evenodd" clip-rule="evenodd" d="M8.1981 64.0178L6.1875 88.0259C9.98117 93.2224 15.2004 93.6741 20.675 93.269C16.7141 83.3836 8.80174 63.6174 8.1981 64.0178Z" fill="#AFAFAF"/>
<path fill-rule="evenodd" clip-rule="evenodd" d="M65.1016 10.1998L93.2917 14.167C91.7873 7.77385 87.1671 3.64833 79.2919 2.35852L65.1016 10.1998Z" fill="#AFAFAF"/>
<path d="M35.104 130L32.448 125.44H30.688V130H29.232V118.848H32.832C33.6747 118.848 34.384 118.992 34.96 119.28C35.5467 119.568 35.984 119.957 36.272 120.448C36.56 120.939 36.704 121.499 36.704 122.128C36.704 122.896 36.48 123.573 36.032 124.16C35.5947 124.747 34.9333 125.136 34.048 125.328L36.848 130H35.104ZM30.688 124.272H32.832C33.6213 124.272 34.2133 124.08 34.608 123.696C35.0027 123.301 35.2 122.779 35.2 122.128C35.2 121.467 35.0027 120.955 34.608 120.592C34.224 120.229 33.632 120.048 32.832 120.048H30.688V124.272ZM46.7424 121.232V130H45.2864V128.704C45.009 129.152 44.6197 129.504 44.1184 129.76C43.6277 130.005 43.0837 130.128 42.4864 130.128C41.8037 130.128 41.1904 129.989 40.6464 129.712C40.1024 129.424 39.6704 128.997 39.3504 128.432C39.041 127.867 38.8864 127.179 38.8864 126.368V121.232H40.3264V126.176C40.3264 127.04 40.545 127.707 40.9824 128.176C41.4197 128.635 42.017 128.864 42.7744 128.864C43.553 128.864 44.1664 128.624 44.6144 128.144C45.0624 127.664 45.2864 126.965 45.2864 126.048V121.232H46.7424ZM50.6568 122.864C50.9554 122.341 51.3928 121.915 51.9688 121.584C52.5448 121.253 53.2008 121.088 53.9368 121.088C54.7261 121.088 55.4354 121.275 56.0648 121.648C56.6941 122.021 57.1901 122.549 57.5528 123.232C57.9154 123.904 58.0968 124.688 58.0968 125.584C58.0968 126.469 57.9154 127.259 57.5528 127.952C57.1901 128.645 56.6887 129.184 56.0487 129.568C55.4194 129.952 54.7154 130.144 53.9368 130.144C53.1794 130.144 52.5128 129.979 51.9368 129.648C51.3714 129.317 50.9448 128.896 50.6568 128.384V130H49.2008V118.16H50.6568V122.864ZM56.6088 125.584C56.6088 124.923 56.4754 124.347 56.2088 123.856C55.9421 123.365 55.5794 122.992 55.1208 122.736C54.6728 122.48 54.1768 122.352 53.6328 122.352C53.0994 122.352 52.6034 122.485 52.1448 122.752C51.6968 123.008 51.3341 123.387 51.0568 123.888C50.7901 124.379 50.6568 124.949 50.6568 125.6C50.6568 126.261 50.7901 126.843 51.0568 127.344C51.3341 127.835 51.6968 128.213 52.1448 128.48C52.6034 128.736 53.0994 128.864 53.6328 128.864C54.1768 128.864 54.6728 128.736 55.1208 128.48C55.5794 128.213 55.9421 127.835 56.2088 127.344C56.4754 126.843 56.6088 126.256 56.6088 125.584ZM67.5653 121.232L62.2853 134.128H60.7812L62.5093 129.904L58.9733 121.232H60.5893L63.3413 128.336L66.0613 121.232H67.5653Z" fill="#AFAFAF"/>
</svg>
