<svg width="48" height="48" viewBox="0 0 48 48" fill="none" xmlns="http://www.w3.org/2000/svg">
<g clip-path="url(#clip0_361_1049)">
<path d="M10 29.2992V32.8366C10 33.4329 22.7287 34.4315 31.0219 36.374C35.0281 35.4355 38 34.2771 38 32.8366V29.2992C38 27.8595 35.0281 26.7003 31.0219 25.7618C22.7286 27.7046 10 28.7034 10 29.2992Z" fill="#CBCBCB"/>
<path d="M10 15.1498V18.6872C10 19.2835 22.7287 20.2821 31.0219 22.2246C35.0281 21.2861 38 20.1277 38 18.6872V15.1498C38 13.7101 35.0281 12.5509 31.0219 11.6124C22.7286 13.5552 10 14.554 10 15.1498Z" fill="#CBCBCB"/>
<path d="M10 22.2242V32.8364C10 31.9521 38 30.1834 38 25.7616V15.1494C38 19.5712 10 21.3399 10 22.2242Z" fill="#E2E2E2"/>
<path d="M10 8.07481V18.687C10 17.8027 38 16.034 38 11.6122V1.00001C38 5.42176 10 7.19046 10 8.07481Z" fill="#E2E2E2"/>
<path d="M10 36.3741V46.9863C10 46.102 38 44.3333 38 39.9115V29.2993C38 33.7211 10 35.4898 10 36.3741Z" fill="#E2E2E2"/>
</g>
<defs>
<clipPath id="clip0_361_1049">
<rect width="28" height="46" fill="white" transform="translate(10 1)"/>
</clipPath>
</defs>
</svg>
