<svg width="96" height="136" viewBox="0 0 96 136" fill="none" xmlns="http://www.w3.org/2000/svg">
<g clip-path="url(#clip0_361_1065)">
<path d="M20 58.5984V65.6732C20 66.8658 45.4575 68.8631 62.0438 72.748C70.0561 70.871 76 68.5542 76 65.6732V58.5984C76 55.719 70.0561 53.4007 62.0438 51.5236C45.4573 55.4093 20 57.4068 20 58.5984Z" fill="#CBCBCB"/>
<path d="M20 30.2991V37.3739C20 38.5665 45.4575 40.5638 62.0438 44.4487C70.0561 42.5717 76 40.2549 76 37.3739V30.2991C76 27.4197 70.0561 25.1014 62.0438 23.2243C45.4573 27.1099 20 29.1075 20 30.2991Z" fill="#CBCBCB"/>
<path d="M20 44.4489V65.6733C20 63.9046 76 60.3672 76 51.5237V30.2993C76 39.1428 20 42.6802 20 44.4489Z" fill="#E2E2E2"/>
<path d="M20 16.1496V37.374C20 35.6053 76 32.0679 76 23.2244V2.00002C76 10.8435 20 14.3809 20 16.1496Z" fill="#E2E2E2"/>
<path d="M20 72.7478V93.9722C20 92.2035 76 88.6661 76 79.8226V58.5982C76 67.4417 20 70.9791 20 72.7478Z" fill="#E2E2E2"/>
</g>
<path d="M30.268 130.112C29.532 130.112 28.8707 129.984 28.284 129.728C27.708 129.461 27.2547 129.099 26.924 128.64C26.5933 128.171 26.4227 127.632 26.412 127.024H27.964C28.0173 127.547 28.2307 127.989 28.604 128.352C28.988 128.704 29.5427 128.88 30.268 128.88C30.9613 128.88 31.5053 128.709 31.9 128.368C32.3053 128.016 32.508 127.568 32.508 127.024C32.508 126.597 32.3907 126.251 32.156 125.984C31.9213 125.717 31.628 125.515 31.276 125.376C30.924 125.237 30.4493 125.088 29.852 124.928C29.116 124.736 28.524 124.544 28.076 124.352C27.6387 124.16 27.26 123.861 26.94 123.456C26.6307 123.04 26.476 122.485 26.476 121.792C26.476 121.184 26.6307 120.645 26.94 120.176C27.2493 119.707 27.6813 119.344 28.236 119.088C28.8013 118.832 29.4467 118.704 30.172 118.704C31.2173 118.704 32.0707 118.965 32.732 119.488C33.404 120.011 33.7827 120.704 33.868 121.568H32.268C32.2147 121.141 31.9907 120.768 31.596 120.448C31.2013 120.117 30.6787 119.952 30.028 119.952C29.42 119.952 28.924 120.112 28.54 120.432C28.156 120.741 27.964 121.179 27.964 121.744C27.964 122.149 28.076 122.48 28.3 122.736C28.5347 122.992 28.8173 123.189 29.148 123.328C29.4893 123.456 29.964 123.605 30.572 123.776C31.308 123.979 31.9 124.181 32.348 124.384C32.796 124.576 33.18 124.88 33.5 125.296C33.82 125.701 33.98 126.256 33.98 126.96C33.98 127.504 33.836 128.016 33.548 128.496C33.26 128.976 32.8333 129.365 32.268 129.664C31.7027 129.963 31.036 130.112 30.268 130.112ZM35.5786 125.6C35.5786 124.693 35.76 123.904 36.1226 123.232C36.4853 122.549 36.9866 122.021 37.6266 121.648C38.2773 121.275 39.0186 121.088 39.8506 121.088C40.928 121.088 41.8133 121.349 42.5066 121.872C43.2106 122.395 43.6746 123.12 43.8986 124.048H42.3306C42.1813 123.515 41.888 123.093 41.4506 122.784C41.024 122.475 40.4906 122.32 39.8506 122.32C39.0186 122.32 38.3466 122.608 37.8346 123.184C37.3226 123.749 37.0666 124.555 37.0666 125.6C37.0666 126.656 37.3226 127.472 37.8346 128.048C38.3466 128.624 39.0186 128.912 39.8506 128.912C40.4906 128.912 41.024 128.763 41.4506 128.464C41.8773 128.165 42.1706 127.739 42.3306 127.184H43.8986C43.664 128.08 43.1946 128.8 42.4906 129.344C41.7866 129.877 40.9066 130.144 39.8506 130.144C39.0186 130.144 38.2773 129.957 37.6266 129.584C36.9866 129.211 36.4853 128.683 36.1226 128C35.76 127.317 35.5786 126.517 35.5786 125.6ZM45.2974 125.584C45.2974 124.688 45.4787 123.904 45.8414 123.232C46.204 122.549 46.7 122.021 47.3294 121.648C47.9694 121.275 48.6787 121.088 49.4574 121.088C50.2254 121.088 50.892 121.253 51.4574 121.584C52.0227 121.915 52.444 122.331 52.7214 122.832V121.232H54.1934V130H52.7214V128.368C52.4334 128.88 52.0014 129.307 51.4254 129.648C50.86 129.979 50.1987 130.144 49.4414 130.144C48.6627 130.144 47.9587 129.952 47.3294 129.568C46.7 129.184 46.204 128.645 45.8414 127.952C45.4787 127.259 45.2974 126.469 45.2974 125.584ZM52.7214 125.6C52.7214 124.939 52.588 124.363 52.3214 123.872C52.0547 123.381 51.692 123.008 51.2334 122.752C50.7854 122.485 50.2894 122.352 49.7454 122.352C49.2014 122.352 48.7054 122.48 48.2574 122.736C47.8094 122.992 47.452 123.365 47.1854 123.856C46.9187 124.347 46.7854 124.923 46.7854 125.584C46.7854 126.256 46.9187 126.843 47.1854 127.344C47.452 127.835 47.8094 128.213 48.2574 128.48C48.7054 128.736 49.2014 128.864 49.7454 128.864C50.2894 128.864 50.7854 128.736 51.2334 128.48C51.692 128.213 52.0547 127.835 52.3214 127.344C52.588 126.843 52.7214 126.261 52.7214 125.6ZM58.1099 118.16V130H56.6539V118.16H58.1099ZM60.0474 125.584C60.0474 124.688 60.2287 123.904 60.5914 123.232C60.954 122.549 61.45 122.021 62.0794 121.648C62.7194 121.275 63.4287 121.088 64.2074 121.088C64.9754 121.088 65.642 121.253 66.2074 121.584C66.7727 121.915 67.194 122.331 67.4714 122.832V121.232H68.9434V130H67.4714V128.368C67.1834 128.88 66.7514 129.307 66.1754 129.648C65.61 129.979 64.9487 130.144 64.1914 130.144C63.4127 130.144 62.7087 129.952 62.0794 129.568C61.45 129.184 60.954 128.645 60.5914 127.952C60.2287 127.259 60.0474 126.469 60.0474 125.584ZM67.4714 125.6C67.4714 124.939 67.338 124.363 67.0714 123.872C66.8047 123.381 66.442 123.008 65.9834 122.752C65.5354 122.485 65.0394 122.352 64.4954 122.352C63.9514 122.352 63.4554 122.48 63.0074 122.736C62.5594 122.992 62.202 123.365 61.9354 123.856C61.6687 124.347 61.5354 124.923 61.5354 125.584C61.5354 126.256 61.6687 126.843 61.9354 127.344C62.202 127.835 62.5594 128.213 63.0074 128.48C63.4554 128.736 63.9514 128.864 64.4954 128.864C65.0394 128.864 65.5354 128.736 65.9834 128.48C66.442 128.213 66.8047 127.835 67.0714 127.344C67.338 126.843 67.4714 126.261 67.4714 125.6Z" fill="#AFAFAF"/>
<defs>
<clipPath id="clip0_361_1065">
<rect width="56" height="92" fill="white" transform="translate(20 2)"/>
</clipPath>
</defs>
</svg>
