<svg width="48" height="48" viewBox="0 0 48 48" fill="none" xmlns="http://www.w3.org/2000/svg">
<g clip-path="url(#clip0_203_1209)">
<path d="M43.1597 0.000613575C43.2748 -0.00677309 43.3841 0.0530014 43.4414 0.154705C43.4986 0.256409 43.4939 0.382319 43.4291 0.479287L31.7753 16.549C31.6898 16.6469 31.5672 16.7029 31.4384 16.7029C31.3096 16.7029 31.187 16.6469 31.1016 16.549L26.9924 11.8991C26.8921 11.7933 26.7499 11.7395 26.6058 11.7528C26.4617 11.7661 26.3314 11.845 26.2515 11.9674L23.759 15.1814C23.6801 15.3624 23.706 15.5727 23.8264 15.7284L31.2363 23.524C31.3218 23.6218 31.4444 23.6779 31.5732 23.6779C31.702 23.6779 31.8246 23.6218 31.91 23.524L46.4605 6.90718C46.5464 6.81346 46.6795 6.78163 46.7976 6.82658C46.9157 6.87153 46.9954 6.98437 46.9994 7.11233V47.526C47.005 47.6183 46.9713 47.7086 46.9069 47.774C46.8425 47.8394 46.7535 47.8736 46.6626 47.8679H2.33741C2.24649 47.8736 2.15754 47.8394 2.09313 47.774C2.02871 47.7086 1.99502 47.6183 2.0006 47.526V0.342523C1.99502 0.250224 2.02871 0.159931 2.09313 0.0945436C2.15754 0.0291559 2.24649 -0.00504537 2.33741 0.000613575H43.1597ZM31.7079 27.285C29.7024 27.2492 27.7696 28.0469 26.3577 29.4931C24.9457 30.9393 24.1773 32.9083 24.2305 34.9437C24.2305 39.6621 27.5987 42.6709 31.9773 42.6709C34.0043 42.7221 35.9919 42.0976 37.6359 40.893C37.7883 40.7525 37.8169 40.5201 37.7032 40.3459L36.4907 38.4996C36.3544 38.3409 36.1224 38.3115 35.9518 38.4312C34.8979 39.1619 33.6575 39.5657 32.3815 39.5937C30.0238 39.5937 28.5418 38.0893 28.2724 36.3114C28.2772 36.238 28.3348 36.1796 28.4071 36.1746H38.579C38.7958 36.1597 38.9685 35.9845 38.9831 35.7643V35.354C38.9831 30.5673 36.0192 27.285 31.7079 27.285ZM21.6707 24.6865C19.6247 22.9887 17.0358 22.1127 14.3955 22.2247C9.81476 22.2247 6.98549 24.96 6.98549 28.2423C6.98549 35.6959 18.1678 33.3026 18.1678 36.7901C18.1678 37.8842 17.09 38.9783 14.7997 38.9783C12.6244 38.9965 10.5257 38.1639 8.93904 36.6533C8.84431 36.5634 8.71598 36.5193 8.58694 36.5324C8.45791 36.5455 8.34071 36.6145 8.2654 36.7217L6.51395 39.1834C6.4003 39.3577 6.42892 39.59 6.58131 39.7305C8.40013 41.44 10.9599 42.6025 14.5302 42.6025C19.7846 42.6025 22.3444 39.8672 22.4791 36.3114C22.4791 28.9261 11.2968 31.046 11.2968 27.9004C11.2968 26.7379 12.3072 25.9173 14.0587 25.9173C15.9894 25.8905 17.8697 26.5429 19.3804 27.7637C19.4692 27.8375 19.5836 27.8719 19.6977 27.859C19.8118 27.8462 19.916 27.7871 19.9866 27.6953L21.7381 25.3019C21.8109 25.2117 21.8447 25.0956 21.832 24.9798C21.8194 24.864 21.7612 24.7582 21.6707 24.6865ZM31.7753 30.2938C33.6075 30.1897 35.1892 31.5833 35.3455 33.4393C35.3406 33.5127 35.2831 33.5711 35.2108 33.5761H28.3397C28.2674 33.5711 28.2099 33.5127 28.205 33.4393C28.4302 31.6197 29.9689 30.2641 31.7753 30.2938Z" fill="#CBCBCB"/>
</g>
<defs>
<clipPath id="clip0_203_1209">
<rect width="48" height="48" fill="white"/>
</clipPath>
</defs>
</svg>
