<svg width="96" height="136" viewBox="0 0 96 136" fill="none" xmlns="http://www.w3.org/2000/svg">
<path fill-rule="evenodd" clip-rule="evenodd" d="M35.7313 2C30.6457 2.00375 26.5298 6.12265 26.5336 11.1981C26.5298 16.2736 30.6494 20.3925 35.7351 20.3962H44.9366V11.2019C44.9403 6.1264 40.8207 2.0075 35.7313 2C35.7351 2 35.7351 2 35.7313 2V2ZM35.7313 26.5333H11.2015C6.11588 26.5371 1.99625 30.656 2.00001 35.7315C1.99249 40.8069 6.11212 44.9258 11.1978 44.9333H35.7313C40.817 44.9296 44.9366 40.8107 44.9328 35.7352C44.9366 30.656 40.817 26.5371 35.7313 26.5333Z" fill="#CBCBCB"/>
<path fill-rule="evenodd" clip-rule="evenodd" d="M94.0003 35.7315C94.0041 30.656 89.8844 26.5371 84.7988 26.5333C79.7131 26.5371 75.5935 30.656 75.5973 35.7315V44.9333H84.7988C89.8844 44.9296 94.0041 40.8107 94.0003 35.7315ZM69.4667 35.7315V11.1981C69.4704 6.1264 65.3546 2.0075 60.2689 2C55.1833 2.00375 51.0636 6.12265 51.0674 11.1981V35.7315C51.0599 40.8069 55.1795 44.9258 60.2652 44.9333C65.3508 44.9296 69.4704 40.8107 69.4667 35.7315Z" fill="#E2E2E2"/>
<path fill-rule="evenodd" clip-rule="evenodd" d="M60.265 94.0001C65.3506 93.9963 69.4702 89.8774 69.4665 84.8019C69.4702 79.7265 65.3506 75.6076 60.265 75.6038H51.0635V84.8019C51.0597 89.8737 55.1793 93.9926 60.265 94.0001ZM60.265 69.463H84.7986C89.8842 69.4592 94.0038 65.3403 94.0001 60.2649C94.0076 55.1894 89.8879 51.0705 84.8023 51.063H60.2687C55.1831 51.0667 51.0635 55.1856 51.0672 60.2611C51.0635 65.3403 55.1793 69.4592 60.265 69.463Z" fill="#CBCBCB"/>
<path fill-rule="evenodd" clip-rule="evenodd" d="M2 60.2645C1.99624 65.34 6.11588 69.4589 11.2015 69.4627C16.2872 69.4589 20.4068 65.34 20.403 60.2645V51.0664H11.2015C6.11588 51.0702 1.99624 55.1891 2 60.2645ZM26.5336 60.2645V84.7979C26.5261 89.8734 30.6457 93.9923 35.7314 93.9998C40.817 93.9961 44.9366 89.8771 44.9329 84.8017V60.272C44.9404 55.1966 40.8208 51.0777 35.7351 51.0702C30.6457 51.0702 26.5299 55.1891 26.5336 60.2645C26.5336 60.2645 26.5336 60.2683 26.5336 60.2645Z" fill="#AFAFAF"/>
<path d="M31.268 130.112C30.532 130.112 29.8707 129.984 29.284 129.728C28.708 129.461 28.2547 129.099 27.924 128.64C27.5933 128.171 27.4227 127.632 27.412 127.024H28.964C29.0173 127.547 29.2307 127.989 29.604 128.352C29.988 128.704 30.5427 128.88 31.268 128.88C31.9613 128.88 32.5053 128.709 32.9 128.368C33.3053 128.016 33.508 127.568 33.508 127.024C33.508 126.597 33.3907 126.251 33.156 125.984C32.9213 125.717 32.628 125.515 32.276 125.376C31.924 125.237 31.4493 125.088 30.852 124.928C30.116 124.736 29.524 124.544 29.076 124.352C28.6387 124.16 28.26 123.861 27.94 123.456C27.6307 123.04 27.476 122.485 27.476 121.792C27.476 121.184 27.6307 120.645 27.94 120.176C28.2493 119.707 28.6813 119.344 29.236 119.088C29.8013 118.832 30.4467 118.704 31.172 118.704C32.2173 118.704 33.0707 118.965 33.732 119.488C34.404 120.011 34.7827 120.704 34.868 121.568H33.268C33.2147 121.141 32.9907 120.768 32.596 120.448C32.2013 120.117 31.6787 119.952 31.028 119.952C30.42 119.952 29.924 120.112 29.54 120.432C29.156 120.741 28.964 121.179 28.964 121.744C28.964 122.149 29.076 122.48 29.3 122.736C29.5347 122.992 29.8173 123.189 30.148 123.328C30.4893 123.456 30.964 123.605 31.572 123.776C32.308 123.979 32.9 124.181 33.348 124.384C33.796 124.576 34.18 124.88 34.5 125.296C34.82 125.701 34.98 126.256 34.98 126.96C34.98 127.504 34.836 128.016 34.548 128.496C34.26 128.976 33.8333 129.365 33.268 129.664C32.7027 129.963 32.036 130.112 31.268 130.112ZM38.5786 118.16V130H37.1226V118.16H38.5786ZM40.5161 125.584C40.5161 124.688 40.6975 123.904 41.0601 123.232C41.4228 122.549 41.9188 122.021 42.5481 121.648C43.1881 121.275 43.8975 121.088 44.6761 121.088C45.4441 121.088 46.1108 121.253 46.6761 121.584C47.2415 121.915 47.6628 122.331 47.9401 122.832V121.232H49.4121V130H47.9401V128.368C47.6521 128.88 47.2201 129.307 46.6441 129.648C46.0788 129.979 45.4175 130.144 44.6601 130.144C43.8815 130.144 43.1775 129.952 42.5481 129.568C41.9188 129.184 41.4228 128.645 41.0601 127.952C40.6975 127.259 40.5161 126.469 40.5161 125.584ZM47.9401 125.6C47.9401 124.939 47.8068 124.363 47.5401 123.872C47.2735 123.381 46.9108 123.008 46.4521 122.752C46.0041 122.485 45.5081 122.352 44.9641 122.352C44.4201 122.352 43.9241 122.48 43.4761 122.736C43.0281 122.992 42.6708 123.365 42.4041 123.856C42.1375 124.347 42.0041 124.923 42.0041 125.584C42.0041 126.256 42.1375 126.843 42.4041 127.344C42.6708 127.835 43.0281 128.213 43.4761 128.48C43.9241 128.736 44.4201 128.864 44.9641 128.864C45.5081 128.864 46.0041 128.736 46.4521 128.48C46.9108 128.213 47.2735 127.835 47.5401 127.344C47.8068 126.843 47.9401 126.261 47.9401 125.6ZM51.3286 125.6C51.3286 124.693 51.51 123.904 51.8726 123.232C52.2353 122.549 52.7366 122.021 53.3766 121.648C54.0273 121.275 54.7686 121.088 55.6006 121.088C56.678 121.088 57.5633 121.349 58.2566 121.872C58.9606 122.395 59.4246 123.12 59.6486 124.048H58.0806C57.9313 123.515 57.638 123.093 57.2006 122.784C56.774 122.475 56.2406 122.32 55.6006 122.32C54.7686 122.32 54.0966 122.608 53.5846 123.184C53.0726 123.749 52.8166 124.555 52.8166 125.6C52.8166 126.656 53.0726 127.472 53.5846 128.048C54.0966 128.624 54.7686 128.912 55.6006 128.912C56.2406 128.912 56.774 128.763 57.2006 128.464C57.6273 128.165 57.9206 127.739 58.0806 127.184H59.6486C59.414 128.08 58.9446 128.8 58.2406 129.344C57.5366 129.877 56.6566 130.144 55.6006 130.144C54.7686 130.144 54.0273 129.957 53.3766 129.584C52.7366 129.211 52.2353 128.683 51.8726 128C51.51 127.317 51.3286 126.517 51.3286 125.6ZM66.4874 130L63.0474 126.128V130H61.5914V118.16H63.0474V125.12L66.4234 121.232H68.4554L64.3274 125.6L68.4714 130H66.4874Z" fill="#AFAFAF"/>
</svg>
