<svg width="48" height="48" viewBox="0 0 48 48" fill="none" xmlns="http://www.w3.org/2000/svg">
<path d="M20.615 17.1776C21.1951 16.5935 21.4857 15.9111 21.4857 15.034V3.82598C21.4857 2.26686 20.228 1 18.6806 1C17.1329 1 15.8757 2.26686 15.8757 3.82598V10.2588L10.4596 7.04227C9.1056 6.16552 7.36447 6.55506 6.59113 7.91941C5.72066 9.28414 6.10723 11.0382 7.46121 11.8179C7.55795 11.8179 7.55795 11.9152 7.65508 11.9152L17.3268 17.5677C18.2938 18.2499 19.7445 18.0553 20.615 17.1776ZM16.4561 23.9999C16.4561 22.9278 15.9722 21.9532 15.005 21.4656L5.3337 15.813C3.97933 14.9363 2.23859 15.3258 1.46486 16.6902C0.594196 18.0551 0.981349 19.809 2.33533 20.5886C2.43207 20.5886 2.43207 20.6861 2.52862 20.6861L8.04146 23.9022L2.52862 27.1187C1.17464 27.898 0.594196 29.5552 1.36812 31.0172C2.14204 32.479 3.78605 32.9658 5.23657 32.1862C5.3337 32.1862 5.3337 32.1862 5.42986 32.1862L15.1021 26.534C15.9722 26.0466 16.4561 25.072 16.4561 23.9999ZM21.4857 32.8687V44.174C21.4857 45.7333 20.228 47 18.6806 47C17.1329 47 15.8757 45.7331 15.8757 44.174V37.8391L10.3628 41.0554C9.00886 41.9321 7.26773 41.5426 6.49439 40.1783C5.62372 38.8137 6.01049 37.0594 7.36447 36.2798C7.46102 36.2798 7.46102 36.1823 7.55776 36.1823L17.23 30.5298C18.584 29.7499 20.4217 30.2373 21.1952 31.6992C21.3885 31.9912 21.5818 32.479 21.4857 32.8687ZM26.5146 33.1612V44.1738C26.5146 45.7331 27.7718 46.9998 29.3195 46.9998C30.8668 46.9998 32.124 45.7329 32.124 44.1738V37.8389L37.5401 40.9577C38.8941 41.8345 40.6352 41.4449 41.4089 40.0806C42.2796 38.7157 41.8925 36.9618 40.5385 36.1821C40.4417 36.1821 40.4417 36.0846 40.3452 36.0846L30.6733 30.4321C29.3193 29.6522 27.5782 30.1397 26.8044 31.5042C26.6113 31.9912 26.4179 32.6738 26.5146 33.1612ZM31.5441 23.9999C31.5441 22.9278 32.0275 21.9532 32.9947 21.4656L42.6666 15.813C44.0205 14.9363 45.7617 15.3258 46.5354 16.6902C47.4055 18.0551 47.0189 19.809 45.6647 20.5886C45.5682 20.5886 45.5682 20.6861 45.4715 20.6861L39.9582 23.9022L45.4715 27.1185C46.8254 27.8978 47.4055 29.555 46.632 31.017C45.8582 32.3813 44.2136 32.9656 42.7631 32.186C42.6666 32.186 42.6666 32.0885 42.5698 32.0885L32.8981 26.436C32.0275 26.0466 31.4474 25.072 31.5441 23.9999ZM26.5146 14.839V3.82598C26.5146 2.26686 27.7718 1 29.3195 1C30.8668 1 32.124 2.26686 32.124 3.82598V10.1609L37.5401 7.04208C38.8941 6.16533 40.6352 6.55487 41.4089 7.91921C42.2796 9.28395 41.8925 11.038 40.5385 11.8177C40.4417 11.8177 40.4417 11.915 40.3452 11.915L30.6733 17.5675C29.3193 18.3474 27.5782 17.86 26.8044 16.4956C26.6113 16.0086 26.4179 15.4235 26.5146 14.839ZM25.1606 18.9321C24.9673 18.7375 24.7735 18.6396 24.4834 18.6396H23.5162C23.2262 18.6396 23.0327 18.7375 22.8394 18.9321L18.9706 22.8305C18.7773 23.0253 18.6806 23.2202 18.6806 23.5123V24.4873C18.6806 24.7797 18.7773 24.9745 18.9706 25.1693L22.8394 29.0677C23.0327 29.2625 23.2262 29.36 23.5162 29.36H24.4834C24.7735 29.36 24.9673 29.2625 25.1606 29.0677L29.0291 25.1693C29.1258 24.9743 29.2228 24.6821 29.2228 24.4873V23.5123C29.2228 23.2201 29.1258 23.0251 28.9323 22.8305L25.1606 18.9321ZM24.5802 22.3435C24.4834 22.2456 24.2902 22.1481 24.0967 22.1481C23.9028 22.1481 23.7095 22.2456 23.6132 22.3435L22.4523 23.5125C22.3555 23.61 22.2588 23.8053 22.2588 24.0001C22.2588 24.1951 22.3555 24.3902 22.4523 24.4877L23.6132 25.6569C23.7093 25.7542 23.9028 25.852 24.0967 25.852C24.29 25.852 24.4834 25.7542 24.5802 25.6569L25.7407 24.4877C25.8372 24.3902 25.9344 24.1951 25.9344 24.0001C25.9344 23.8053 25.8372 23.61 25.7407 23.5125L24.5802 22.3435Z" fill="#CBCBCB"/>
</svg>
