<svg width="96" height="136" viewBox="0 0 96 136" fill="none" xmlns="http://www.w3.org/2000/svg">
<path d="M41.23 34.3552C42.3901 33.1869 42.9713 31.8222 42.9713 30.0679V7.65196C42.9713 4.53373 40.4561 2 37.3611 2C34.2658 2 31.7514 4.53373 31.7514 7.65196V20.5175L20.9192 14.0845C18.2112 12.331 14.7289 13.1101 13.1823 15.8388C11.4413 18.5683 12.2145 22.0764 14.9224 23.6357C15.1159 23.6357 15.1159 23.8303 15.3102 23.8303L34.6536 35.1354C36.5876 36.4998 39.489 36.1106 41.23 34.3552ZM32.9123 47.9998C32.9123 45.8556 31.9445 43.9064 30.01 42.9312L10.6674 31.6261C7.95867 29.8726 4.47717 30.6517 2.92971 33.3804C1.18839 36.1102 1.9627 39.618 4.67065 41.1773C4.86413 41.1773 4.86413 41.3723 5.05723 41.3723L16.0829 47.8045L5.05723 54.2374C2.34927 55.796 1.18839 59.1103 2.73623 62.0344C4.28408 64.958 7.57209 65.9317 10.4731 64.3724C10.6674 64.3724 10.6674 64.3724 10.8597 64.3724L30.2043 53.068C31.9445 52.0932 32.9123 50.144 32.9123 47.9998ZM42.9713 65.7375V88.348C42.9713 91.4666 40.4561 94 37.3611 94C34.2658 94 31.7514 91.4663 31.7514 88.348V75.6782L20.7257 82.1108C18.0177 83.8643 14.5355 83.0852 12.9888 80.3565C11.2474 77.6274 12.021 74.1189 14.7289 72.5596C14.922 72.5596 14.922 72.3646 15.1155 72.3646L34.4601 61.0595C37.1681 59.4998 40.8434 60.4747 42.3905 63.3983C42.7771 63.9824 43.1636 64.958 42.9713 65.7375ZM53.0292 66.3223V88.3476C53.0292 91.4663 55.5437 93.9996 58.639 93.9996C61.7335 93.9996 64.248 91.4659 64.248 88.3476V75.6778L75.0802 81.9154C77.7882 83.6689 81.2704 82.8899 82.8179 80.1612C84.5592 77.4313 83.7849 73.9235 81.077 72.3642C80.8835 72.3642 80.8835 72.1693 80.6904 72.1693L61.3466 60.8642C58.6386 59.3045 55.1563 60.2793 53.6089 63.0084C53.2227 63.9824 52.8357 65.3475 53.0292 66.3223ZM63.0883 47.9998C63.0883 45.8556 64.0549 43.9064 65.9893 42.9312L85.3331 31.6261C88.0411 29.8726 91.5234 30.6517 93.0708 33.3804C94.811 36.1102 94.0378 39.618 91.3295 41.1773C91.1364 41.1773 91.1364 41.3723 90.9429 41.3723L79.9165 47.8045L90.9429 54.237C93.6509 55.7956 94.811 59.1099 93.2639 62.034C91.7165 64.7626 88.4273 65.9313 85.5262 64.372C85.3331 64.372 85.3331 64.177 85.1397 64.177L65.7962 52.8719C64.0549 52.0932 62.8948 50.144 63.0883 47.9998ZM53.0292 29.678V7.65196C53.0292 4.53373 55.5437 2 58.639 2C61.7335 2 64.248 4.53373 64.248 7.65196V20.3218L75.0802 14.0842C77.7882 12.3307 81.2704 13.1097 82.8179 15.8384C84.5592 18.5679 83.7849 22.076 81.077 23.6354C80.8835 23.6354 80.8835 23.8299 80.6904 23.8299L61.3466 35.135C58.6386 36.6947 55.1563 35.7199 53.6089 32.9912C53.2227 32.0172 52.8357 30.847 53.0292 29.678ZM50.3213 37.8641C49.9347 37.475 49.547 37.2792 48.9669 37.2792H47.0325C46.4524 37.2792 46.0655 37.475 45.6789 37.8641L37.9412 45.661C37.5546 46.0506 37.3611 46.4405 37.3611 47.0246V48.9746C37.3611 49.5595 37.5546 49.949 37.9412 50.3386L45.6789 58.1355C46.0655 58.525 46.4524 58.72 47.0325 58.72H48.9669C49.547 58.72 49.9347 58.525 50.3213 58.1355L58.0582 50.3386C58.2516 49.9487 58.4455 49.3641 58.4455 48.9746V47.0246C58.4455 46.4401 58.2516 46.0502 57.8647 45.661L50.3213 37.8641ZM49.1604 44.687C48.9669 44.4913 48.5803 44.2963 48.1934 44.2963C47.8056 44.2963 47.4191 44.4913 47.2263 44.687L44.9046 47.025C44.7111 47.2199 44.5176 47.6107 44.5176 48.0002C44.5176 48.3901 44.7111 48.7804 44.9046 48.9754L47.2263 51.3138C47.4187 51.5084 47.8056 51.7041 48.1934 51.7041C48.5799 51.7041 48.9669 51.5084 49.1604 51.3138L51.4814 48.9754C51.6745 48.7804 51.8687 48.3901 51.8687 48.0002C51.8687 47.6107 51.6745 47.2199 51.4814 47.025L49.1604 44.687Z" fill="#CBCBCB"/>
<path d="M11.768 130.112C11.032 130.112 10.3707 129.984 9.784 129.728C9.208 129.461 8.75467 129.099 8.424 128.64C8.09333 128.171 7.92267 127.632 7.912 127.024H9.464C9.51733 127.547 9.73067 127.989 10.104 128.352C10.488 128.704 11.0427 128.88 11.768 128.88C12.4613 128.88 13.0053 128.709 13.4 128.368C13.8053 128.016 14.008 127.568 14.008 127.024C14.008 126.597 13.8907 126.251 13.656 125.984C13.4213 125.717 13.128 125.515 12.776 125.376C12.424 125.237 11.9493 125.088 11.352 124.928C10.616 124.736 10.024 124.544 9.576 124.352C9.13867 124.16 8.76 123.861 8.44 123.456C8.13067 123.04 7.976 122.485 7.976 121.792C7.976 121.184 8.13067 120.645 8.44 120.176C8.74933 119.707 9.18133 119.344 9.736 119.088C10.3013 118.832 10.9467 118.704 11.672 118.704C12.7173 118.704 13.5707 118.965 14.232 119.488C14.904 120.011 15.2827 120.704 15.368 121.568H13.768C13.7147 121.141 13.4907 120.768 13.096 120.448C12.7013 120.117 12.1787 119.952 11.528 119.952C10.92 119.952 10.424 120.112 10.04 120.432C9.656 120.741 9.464 121.179 9.464 121.744C9.464 122.149 9.576 122.48 9.8 122.736C10.0347 122.992 10.3173 123.189 10.648 123.328C10.9893 123.456 11.464 123.605 12.072 123.776C12.808 123.979 13.4 124.181 13.848 124.384C14.296 124.576 14.68 124.88 15 125.296C15.32 125.701 15.48 126.256 15.48 126.96C15.48 127.504 15.336 128.016 15.048 128.496C14.76 128.976 14.3333 129.365 13.768 129.664C13.2027 129.963 12.536 130.112 11.768 130.112ZM21.8946 121.072C22.9613 121.072 23.8253 121.397 24.4866 122.048C25.148 122.688 25.4786 123.616 25.4786 124.832V130H24.0386V125.04C24.0386 124.165 23.82 123.499 23.3826 123.04C22.9453 122.571 22.348 122.336 21.5906 122.336C20.8226 122.336 20.2093 122.576 19.7506 123.056C19.3026 123.536 19.0786 124.235 19.0786 125.152V130H17.6226V121.232H19.0786V122.48C19.3666 122.032 19.756 121.685 20.2466 121.44C20.748 121.195 21.2973 121.072 21.8946 121.072ZM31.681 130.144C30.8597 130.144 30.113 129.957 29.441 129.584C28.7797 129.211 28.257 128.683 27.873 128C27.4997 127.307 27.313 126.507 27.313 125.6C27.313 124.704 27.505 123.915 27.889 123.232C28.2837 122.539 28.817 122.011 29.489 121.648C30.161 121.275 30.913 121.088 31.745 121.088C32.577 121.088 33.329 121.275 34.001 121.648C34.673 122.011 35.201 122.533 35.585 123.216C35.9797 123.899 36.177 124.693 36.177 125.6C36.177 126.507 35.9743 127.307 35.569 128C35.1743 128.683 34.6357 129.211 33.953 129.584C33.2703 129.957 32.513 130.144 31.681 130.144ZM31.681 128.864C32.2037 128.864 32.6943 128.741 33.153 128.496C33.6117 128.251 33.9797 127.883 34.257 127.392C34.545 126.901 34.689 126.304 34.689 125.6C34.689 124.896 34.5503 124.299 34.273 123.808C33.9957 123.317 33.633 122.955 33.185 122.72C32.737 122.475 32.2517 122.352 31.729 122.352C31.1957 122.352 30.705 122.475 30.257 122.72C29.8197 122.955 29.4677 123.317 29.201 123.808C28.9343 124.299 28.801 124.896 28.801 125.6C28.801 126.315 28.929 126.917 29.185 127.408C29.4517 127.899 29.8037 128.267 30.241 128.512C30.6783 128.747 31.1583 128.864 31.681 128.864ZM49.7714 121.232L47.0354 130H45.5314L43.4194 123.04L41.3074 130H39.8034L37.0514 121.232H38.5394L40.5554 128.592L42.7314 121.232H44.2194L46.3474 128.608L48.3314 121.232H49.7714ZM54.7844 122.432H52.9444V130H51.4884V122.432H50.3524V121.232H51.4884V120.608C51.4884 119.627 51.739 118.912 52.2404 118.464C52.7524 118.005 53.5684 117.776 54.6884 117.776V118.992C54.0484 118.992 53.595 119.12 53.3284 119.376C53.0724 119.621 52.9444 120.032 52.9444 120.608V121.232H54.7844V122.432ZM57.938 118.16V130H56.482V118.16H57.938ZM59.8755 125.584C59.8755 124.688 60.0568 123.904 60.4195 123.232C60.7822 122.549 61.2782 122.021 61.9075 121.648C62.5475 121.275 63.2568 121.088 64.0355 121.088C64.8035 121.088 65.4702 121.253 66.0355 121.584C66.6008 121.915 67.0222 122.331 67.2995 122.832V121.232H68.7715V130H67.2995V128.368C67.0115 128.88 66.5795 129.307 66.0035 129.648C65.4382 129.979 64.7768 130.144 64.0195 130.144C63.2408 130.144 62.5368 129.952 61.9075 129.568C61.2782 129.184 60.7822 128.645 60.4195 127.952C60.0568 127.259 59.8755 126.469 59.8755 125.584ZM67.2995 125.6C67.2995 124.939 67.1662 124.363 66.8995 123.872C66.6328 123.381 66.2702 123.008 65.8115 122.752C65.3635 122.485 64.8675 122.352 64.3235 122.352C63.7795 122.352 63.2835 122.48 62.8355 122.736C62.3875 122.992 62.0302 123.365 61.7635 123.856C61.4968 124.347 61.3635 124.923 61.3635 125.584C61.3635 126.256 61.4968 126.843 61.7635 127.344C62.0302 127.835 62.3875 128.213 62.8355 128.48C63.2835 128.736 63.7795 128.864 64.3235 128.864C64.8675 128.864 65.3635 128.736 65.8115 128.48C66.2702 128.213 66.6328 127.835 66.8995 127.344C67.1662 126.843 67.2995 126.261 67.2995 125.6ZM76.128 130L72.688 126.128V130H71.232V118.16H72.688V125.12L76.064 121.232H78.096L73.968 125.6L78.112 130H76.128ZM87.4664 125.28C87.4664 125.557 87.4504 125.851 87.4184 126.16H80.4104C80.4637 127.024 80.757 127.701 81.2904 128.192C81.8344 128.672 82.4904 128.912 83.2584 128.912C83.8877 128.912 84.4104 128.768 84.8264 128.48C85.253 128.181 85.5517 127.787 85.7224 127.296H87.2904C87.0557 128.139 86.5864 128.827 85.8824 129.36C85.1784 129.883 84.3037 130.144 83.2584 130.144C82.4264 130.144 81.6797 129.957 81.0184 129.584C80.3677 129.211 79.8557 128.683 79.4824 128C79.109 127.307 78.9224 126.507 78.9224 125.6C78.9224 124.693 79.1037 123.899 79.4664 123.216C79.829 122.533 80.3357 122.011 80.9864 121.648C81.6477 121.275 82.405 121.088 83.2584 121.088C84.0904 121.088 84.8264 121.269 85.4664 121.632C86.1064 121.995 86.597 122.496 86.9384 123.136C87.2904 123.765 87.4664 124.48 87.4664 125.28ZM85.9624 124.976C85.9624 124.421 85.8397 123.947 85.5944 123.552C85.349 123.147 85.013 122.843 84.5864 122.64C84.1704 122.427 83.7064 122.32 83.1944 122.32C82.4584 122.32 81.829 122.555 81.3064 123.024C80.7944 123.493 80.501 124.144 80.4264 124.976H85.9624Z" fill="#AFAFAF"/>
</svg>
