<svg width="48" height="48" viewBox="0 0 48 48" fill="none" xmlns="http://www.w3.org/2000/svg">
<path d="M23.7956 45.5409C11.8086 45.5409 2.05176 35.8151 2.05176 23.7971C2.05176 11.7792 11.7776 2.11523 23.7956 2.11523C35.8135 2.11523 45.5394 11.8411 45.5394 23.8591C45.5394 35.877 35.7826 45.5409 23.7956 45.5409Z" fill="#E2E2E2"/>
<path d="M23.7969 3.19916C35.1644 3.19916 44.3947 12.4294 44.3947 23.7969C44.3947 35.1644 35.1644 44.3947 23.7969 44.3947C12.4294 44.3947 3.19916 35.1644 3.19916 23.7969C3.19916 12.4294 12.4294 3.19916 23.7969 3.19916ZM23.7969 1C11.2215 1 1 11.2215 1 23.7969C1 36.3724 11.2524 46.5939 23.7969 46.5939C36.3415 46.5939 46.5939 36.3414 46.5939 23.7969C46.5939 11.2524 36.3415 1 23.7969 1Z" fill="#AFAFAF"/>
<path d="M36.8995 22.93L38.665 20.4211L36.7756 15.837L33.7711 15.2794L32.4392 13.9476L31.9436 10.9431L27.2975 8.9917L24.7886 10.7572H22.8992L20.3903 8.9917L15.7441 10.8811L15.1866 13.8856L13.7928 15.2175L10.7883 15.775L8.83691 20.3592L10.6024 22.8681V24.7575L8.83691 27.2664L10.7263 31.9125L13.7308 32.4701L15.0627 33.802L15.6202 36.8065L20.2044 38.7578L22.7133 36.9923H24.6027L27.1116 38.7578L31.7578 36.8684L32.3153 33.8639L33.7091 32.532L36.7136 32.0364L38.665 27.4523L36.8995 24.9434V22.93V22.93ZM36.218 27.6381L35.2269 30.0851L32.718 30.5187L30.3949 32.8418L29.9613 35.3507L27.5143 36.3418L25.439 34.8861H22.1868L20.0495 36.3418L17.6026 35.3507L17.169 32.8418L14.9078 30.5187L12.3989 30.0851L11.4078 27.6381L12.8636 25.5628V22.3106L11.4078 20.1734L12.3989 17.7264L14.9078 17.2928L17.2309 14.9697L17.6645 12.4608L20.1115 11.4696L22.1868 12.9254H25.439L27.5763 11.4696L30.0232 12.4608L30.4569 14.9697L32.7799 17.2928L35.2888 17.7264L36.28 20.1734L34.8242 22.3106V25.5628L36.218 27.6381ZM31.8817 24.4168C31.8817 28.8771 28.2267 32.532 23.7664 32.532C19.3062 32.532 15.6512 28.8771 15.6512 24.4168C15.6512 22.2796 16.4565 20.2043 18.0362 18.6866L19.554 20.2043C18.4389 21.3194 17.7884 22.8371 17.7884 24.4168C17.7884 26.8018 19.1823 28.8151 21.1646 29.7444L24.1072 25.0982L19.5849 24.169L24.5408 15.3104L26.4302 16.3635L22.8992 22.6513L27.6692 23.7044L23.4567 30.3638C23.5806 30.3638 23.6425 30.3638 23.7664 30.3638C27.0187 30.3638 29.6825 27.731 29.6825 24.4478C29.6825 22.6823 28.9391 21.0716 27.5453 19.9256L28.9391 18.222C30.8285 19.7707 31.8817 22.0318 31.8817 24.4168Z" fill="#AFAFAF"/>
</svg>
