<svg width="96" height="136" viewBox="0 0 96 136" fill="none" xmlns="http://www.w3.org/2000/svg">
<path d="M72.1318 6.16064H13.1833C9.23249 6.16064 6 9.38743 6 13.3304V78.2128C6 82.1555 9.23249 85.3818 13.1833 85.3818H52.0083C51.5676 66.1014 58.1645 28.6841 72.1318 6.16064Z" fill="#CBCBCB"/>
<path d="M69.9917 8.25146H13.1848C10.3795 8.25146 8.09668 10.5293 8.09668 13.3296V73.4782C20.9622 68.5501 40.2718 64.2978 53.6232 64.491C56.3062 50.4895 64.1915 23.0495 69.9917 8.25146Z" fill="#E2E2E2"/>
<path d="M85.8819 4.03687C81.8446 0.443504 76.9565 1.88691 72.132 6.16021C71.416 6.79508 70.7014 7.49941 69.9905 8.25178C61.7374 16.9898 54.0768 33.1755 51.6968 45.5364C52.6239 47.4129 53.3482 49.8075 53.8251 51.6367C53.9472 52.106 54.0576 52.5465 54.1457 52.9212C54.3553 53.808 54.4678 54.3831 54.4678 54.3831C54.4678 54.3831 54.3938 54.1036 54.0902 53.225C54.0324 53.0565 53.968 52.8724 53.8917 52.6559C53.8591 52.5665 53.8139 52.4578 53.7643 52.3418C53.226 51.0928 51.7368 48.4565 51.0814 47.3087C50.5209 48.9591 50.0255 50.503 49.6108 51.8998C51.5028 55.3548 52.6558 61.2758 52.6558 61.2758C52.6558 61.2758 52.5558 60.8921 52.0804 59.5528C51.6583 58.3683 49.556 54.692 49.058 53.8326C48.2061 56.9712 47.8676 59.0903 48.1729 59.6063C48.7655 60.606 49.3299 62.331 49.8255 64.2387C50.9452 68.5363 51.7235 73.7681 51.7235 73.7681C51.7235 73.7681 51.7487 74.1148 51.7909 74.6483C51.6354 78.2574 51.7287 81.9992 52.0086 85.3813C52.3796 89.8585 53.0779 93.7045 53.968 95.7629L54.5722 95.4341C53.2652 91.3787 52.7343 86.0641 52.9668 79.935C53.3185 70.5665 55.4786 59.2684 59.47 47.4927C66.2131 29.7166 75.5688 15.454 84.1313 8.64275C76.3271 15.6772 65.7644 38.4473 62.6024 46.8793C59.062 56.3217 56.5531 65.1825 55.041 73.6719C57.6498 65.7131 66.085 62.292 66.085 62.292C66.085 62.292 70.2223 57.1996 75.0571 49.9243C72.1609 50.5835 67.4053 51.7121 65.8125 52.3802C63.4628 53.3639 62.8297 53.6995 62.8297 53.6995C62.8297 53.6995 70.4407 49.0736 76.9706 46.9791C85.9508 32.8628 95.7345 12.8089 85.8819 4.03687Z" fill="#AFAFAF"/>
<path d="M28.268 130.112C27.532 130.112 26.8707 129.984 26.284 129.728C25.708 129.461 25.2547 129.099 24.924 128.64C24.5933 128.171 24.4227 127.632 24.412 127.024H25.964C26.0173 127.547 26.2307 127.989 26.604 128.352C26.988 128.704 27.5427 128.88 28.268 128.88C28.9613 128.88 29.5053 128.709 29.9 128.368C30.3053 128.016 30.508 127.568 30.508 127.024C30.508 126.597 30.3907 126.251 30.156 125.984C29.9213 125.717 29.628 125.515 29.276 125.376C28.924 125.237 28.4493 125.088 27.852 124.928C27.116 124.736 26.524 124.544 26.076 124.352C25.6387 124.16 25.26 123.861 24.94 123.456C24.6307 123.04 24.476 122.485 24.476 121.792C24.476 121.184 24.6307 120.645 24.94 120.176C25.2493 119.707 25.6813 119.344 26.236 119.088C26.8013 118.832 27.4467 118.704 28.172 118.704C29.2173 118.704 30.0707 118.965 30.732 119.488C31.404 120.011 31.7827 120.704 31.868 121.568H30.268C30.2147 121.141 29.9907 120.768 29.596 120.448C29.2013 120.117 28.6787 119.952 28.028 119.952C27.42 119.952 26.924 120.112 26.54 120.432C26.156 120.741 25.964 121.179 25.964 121.744C25.964 122.149 26.076 122.48 26.3 122.736C26.5347 122.992 26.8173 123.189 27.148 123.328C27.4893 123.456 27.964 123.605 28.572 123.776C29.308 123.979 29.9 124.181 30.348 124.384C30.796 124.576 31.18 124.88 31.5 125.296C31.82 125.701 31.98 126.256 31.98 126.96C31.98 127.504 31.836 128.016 31.548 128.496C31.26 128.976 30.8333 129.365 30.268 129.664C29.7027 129.963 29.036 130.112 28.268 130.112ZM43.0666 132.112L40.8426 129.888C40.2986 130.037 39.744 130.112 39.1786 130.112C38.144 130.112 37.2 129.872 36.3466 129.392C35.4933 128.901 34.816 128.224 34.3146 127.36C33.824 126.485 33.5786 125.504 33.5786 124.416C33.5786 123.328 33.824 122.352 34.3146 121.488C34.816 120.613 35.4933 119.936 36.3466 119.456C37.2 118.965 38.144 118.72 39.1786 118.72C40.224 118.72 41.1733 118.965 42.0266 119.456C42.88 119.936 43.552 120.608 44.0426 121.472C44.5333 122.336 44.7786 123.317 44.7786 124.416C44.7786 125.483 44.544 126.443 44.0746 127.296C43.6053 128.149 42.96 128.821 42.1386 129.312L44.9546 132.112H43.0666ZM35.0666 124.416C35.0666 125.301 35.2426 126.08 35.5946 126.752C35.9573 127.424 36.448 127.941 37.0666 128.304C37.696 128.667 38.4 128.848 39.1786 128.848C39.9573 128.848 40.656 128.667 41.2746 128.304C41.904 127.941 42.3946 127.424 42.7466 126.752C43.1093 126.08 43.2906 125.301 43.2906 124.416C43.2906 123.52 43.1093 122.741 42.7466 122.08C42.3946 121.408 41.9093 120.891 41.2906 120.528C40.672 120.165 39.968 119.984 39.1786 119.984C38.3893 119.984 37.6853 120.165 37.0666 120.528C36.448 120.891 35.9573 121.408 35.5946 122.08C35.2426 122.741 35.0666 123.52 35.0666 124.416ZM48.188 128.816H52.092V130H46.732V118.848H48.188V128.816ZM54.3903 119.808C54.1129 119.808 53.8783 119.712 53.6863 119.52C53.4943 119.328 53.3983 119.093 53.3983 118.816C53.3983 118.539 53.4943 118.304 53.6863 118.112C53.8783 117.92 54.1129 117.824 54.3903 117.824C54.6569 117.824 54.8809 117.92 55.0623 118.112C55.2543 118.304 55.3503 118.539 55.3503 118.816C55.3503 119.093 55.2543 119.328 55.0623 119.52C54.8809 119.712 54.6569 119.808 54.3903 119.808ZM55.0943 121.232V130H53.6383V121.232H55.0943ZM59.3518 122.432V127.6C59.3518 128.027 59.4424 128.331 59.6238 128.512C59.8051 128.683 60.1198 128.768 60.5677 128.768H61.6398V130H60.3278C59.5171 130 58.9091 129.813 58.5038 129.44C58.0984 129.067 57.8958 128.453 57.8958 127.6V122.432H56.7598V121.232H57.8958V119.024H59.3518V121.232H61.6398V122.432H59.3518ZM71.4039 125.28C71.4039 125.557 71.3879 125.851 71.3559 126.16H64.3479C64.4012 127.024 64.6945 127.701 65.2279 128.192C65.7719 128.672 66.4279 128.912 67.1959 128.912C67.8252 128.912 68.3479 128.768 68.7639 128.48C69.1905 128.181 69.4892 127.787 69.6599 127.296H71.2279C70.9932 128.139 70.5239 128.827 69.8199 129.36C69.1159 129.883 68.2412 130.144 67.1959 130.144C66.3639 130.144 65.6172 129.957 64.9559 129.584C64.3052 129.211 63.7932 128.683 63.4199 128C63.0465 127.307 62.8599 126.507 62.8599 125.6C62.8599 124.693 63.0412 123.899 63.4039 123.216C63.7665 122.533 64.2732 122.011 64.9239 121.648C65.5852 121.275 66.3425 121.088 67.1959 121.088C68.0279 121.088 68.7639 121.269 69.4039 121.632C70.0439 121.995 70.5345 122.496 70.8759 123.136C71.2279 123.765 71.4039 124.48 71.4039 125.28ZM69.8999 124.976C69.8999 124.421 69.7772 123.947 69.5319 123.552C69.2865 123.147 68.9505 122.843 68.5239 122.64C68.1079 122.427 67.6439 122.32 67.1319 122.32C66.3959 122.32 65.7665 122.555 65.2439 123.024C64.7319 123.493 64.4385 124.144 64.3639 124.976H69.8999Z" fill="#AFAFAF"/>
</svg>
