<svg width="192" height="136" viewBox="0 0 192 136" fill="none" xmlns="http://www.w3.org/2000/svg">
<path fill-rule="evenodd" clip-rule="evenodd" d="M189.034 48.5809C189.034 35.3498 182.625 24.9097 170.376 24.9097C158.075 24.9097 150.633 35.3498 150.633 48.4775C150.633 64.0344 159.419 71.8903 172.03 71.8903C178.18 71.8903 182.832 70.4949 186.346 68.5309V58.1941C182.832 59.9513 178.801 61.0367 173.684 61.0367C168.67 61.0367 164.226 59.2795 163.657 53.1808H188.931C188.931 52.5089 189.034 49.8213 189.034 48.5809ZM163.502 43.6709C163.502 37.8306 167.068 35.4015 170.324 35.4015C173.477 35.4015 176.837 37.8306 176.837 43.6709H163.502Z" fill="#CBCBCB"/>
<path fill-rule="evenodd" clip-rule="evenodd" d="M130.68 24.9097C125.615 24.9097 122.359 27.2871 120.55 28.941L119.878 25.7366H108.508V86L121.429 83.2608L121.48 68.6342C123.341 69.978 126.08 71.8903 130.629 71.8903C139.88 71.8903 148.304 64.4478 148.304 48.0641C148.253 33.0757 139.725 24.9097 130.68 24.9097ZM127.579 60.5199C124.53 60.5199 122.721 59.4345 121.48 58.0907L121.429 38.916C122.773 37.4172 124.633 36.3835 127.579 36.3835C132.282 36.3835 135.538 41.6552 135.538 48.4258C135.538 55.3515 132.334 60.5199 127.579 60.5199Z" fill="#CBCBCB"/>
<path fill-rule="evenodd" clip-rule="evenodd" d="M90.7266 21.8604L103.699 19.0695V8.57764L90.7266 11.3169V21.8604Z" fill="#CBCBCB"/>
<path d="M103.699 25.7888H90.7266V71.0122H103.699V25.7888Z" fill="#CBCBCB"/>
<path fill-rule="evenodd" clip-rule="evenodd" d="M76.8266 29.6127L75.9997 25.7881H64.8359V71.0115H77.7569V40.363C80.8063 36.3833 85.9747 37.1069 87.5769 37.6754V25.7881C85.923 25.1679 79.8759 24.0309 76.8266 29.6127Z" fill="#CBCBCB"/>
<path fill-rule="evenodd" clip-rule="evenodd" d="M50.9829 14.5732L38.372 17.2608L38.3203 58.6596C38.3203 66.3088 44.0572 71.9424 51.7064 71.9424C55.9445 71.9424 59.0456 71.1671 60.7511 70.2368V59.745C59.0972 60.4169 50.9312 62.7943 50.9312 55.1451V36.7973H60.7511V25.7887H50.9312L50.9829 14.5732Z" fill="#CBCBCB"/>
<path fill-rule="evenodd" clip-rule="evenodd" d="M16.0448 38.916C16.0448 36.9003 17.6987 36.1251 20.4379 36.1251C24.3659 36.1251 29.3275 37.3138 33.2555 39.4328V27.2871C28.9657 25.5816 24.7277 24.9097 20.4379 24.9097C9.94608 24.9097 2.96875 30.3882 2.96875 39.5362C2.96875 53.801 22.6086 51.5269 22.6086 57.6773C22.6086 60.0547 20.5413 60.83 17.647 60.83C13.3572 60.83 7.87872 59.0727 3.53727 56.6953V68.996C8.34387 71.0634 13.2022 71.942 17.647 71.942C28.3972 71.942 35.788 66.6186 35.788 57.3672C35.7363 41.9654 16.0448 44.7046 16.0448 38.916Z" fill="#CBCBCB"/>
<path d="M77.768 130.112C77.032 130.112 76.3707 129.984 75.784 129.728C75.208 129.461 74.7547 129.099 74.424 128.64C74.0933 128.171 73.9227 127.632 73.912 127.024H75.464C75.5173 127.547 75.7307 127.989 76.104 128.352C76.488 128.704 77.0427 128.88 77.768 128.88C78.4613 128.88 79.0053 128.709 79.4 128.368C79.8053 128.016 80.008 127.568 80.008 127.024C80.008 126.597 79.8907 126.251 79.656 125.984C79.4213 125.717 79.128 125.515 78.776 125.376C78.424 125.237 77.9493 125.088 77.352 124.928C76.616 124.736 76.024 124.544 75.576 124.352C75.1387 124.16 74.76 123.861 74.44 123.456C74.1307 123.04 73.976 122.485 73.976 121.792C73.976 121.184 74.1307 120.645 74.44 120.176C74.7493 119.707 75.1813 119.344 75.736 119.088C76.3013 118.832 76.9467 118.704 77.672 118.704C78.7173 118.704 79.5707 118.965 80.232 119.488C80.904 120.011 81.2827 120.704 81.368 121.568H79.768C79.7147 121.141 79.4907 120.768 79.096 120.448C78.7013 120.117 78.1787 119.952 77.528 119.952C76.92 119.952 76.424 120.112 76.04 120.432C75.656 120.741 75.464 121.179 75.464 121.744C75.464 122.149 75.576 122.48 75.8 122.736C76.0347 122.992 76.3173 123.189 76.648 123.328C76.9893 123.456 77.464 123.605 78.072 123.776C78.808 123.979 79.4 124.181 79.848 124.384C80.296 124.576 80.68 124.88 81 125.296C81.32 125.701 81.48 126.256 81.48 126.96C81.48 127.504 81.336 128.016 81.048 128.496C80.76 128.976 80.3333 129.365 79.768 129.664C79.2027 129.963 78.536 130.112 77.768 130.112ZM85.3986 122.432V127.6C85.3986 128.027 85.4893 128.331 85.6706 128.512C85.852 128.683 86.1666 128.768 86.6146 128.768H87.6866V130H86.3746C85.564 130 84.956 129.813 84.5506 129.44C84.1453 129.067 83.9426 128.453 83.9426 127.6V122.432H82.8066V121.232H83.9426V119.024H85.3986V121.232H87.6866V122.432H85.3986ZM90.9068 122.656C91.1628 122.155 91.5254 121.765 91.9948 121.488C92.4748 121.211 93.0561 121.072 93.7388 121.072V122.576H93.3548C91.7228 122.576 90.9068 123.461 90.9068 125.232V130H89.4508V121.232H90.9068V122.656ZM96.1715 119.808C95.8942 119.808 95.6595 119.712 95.4675 119.52C95.2755 119.328 95.1795 119.093 95.1795 118.816C95.1795 118.539 95.2755 118.304 95.4675 118.112C95.6595 117.92 95.8942 117.824 96.1715 117.824C96.4382 117.824 96.6622 117.92 96.8435 118.112C97.0355 118.304 97.1315 118.539 97.1315 118.816C97.1315 119.093 97.0355 119.328 96.8435 119.52C96.6622 119.712 96.4382 119.808 96.1715 119.808ZM96.8755 121.232V130H95.4195V121.232H96.8755ZM100.813 122.848C101.101 122.347 101.528 121.931 102.093 121.6C102.669 121.259 103.336 121.088 104.093 121.088C104.872 121.088 105.576 121.275 106.205 121.648C106.845 122.021 107.346 122.549 107.709 123.232C108.072 123.904 108.253 124.688 108.253 125.584C108.253 126.469 108.072 127.259 107.709 127.952C107.346 128.645 106.845 129.184 106.205 129.568C105.576 129.952 104.872 130.144 104.093 130.144C103.346 130.144 102.685 129.979 102.109 129.648C101.544 129.307 101.112 128.885 100.813 128.384V134.16H99.357V121.232H100.813V122.848ZM106.765 125.584C106.765 124.923 106.632 124.347 106.365 123.856C106.098 123.365 105.736 122.992 105.277 122.736C104.829 122.48 104.333 122.352 103.789 122.352C103.256 122.352 102.76 122.485 102.301 122.752C101.853 123.008 101.49 123.387 101.213 123.888C100.946 124.379 100.813 124.949 100.813 125.6C100.813 126.261 100.946 126.843 101.213 127.344C101.49 127.835 101.853 128.213 102.301 128.48C102.76 128.736 103.256 128.864 103.789 128.864C104.333 128.864 104.829 128.736 105.277 128.48C105.736 128.213 106.098 127.835 106.365 127.344C106.632 126.843 106.765 126.256 106.765 125.584ZM118.17 125.28C118.17 125.557 118.154 125.851 118.122 126.16H111.114C111.167 127.024 111.46 127.701 111.994 128.192C112.538 128.672 113.194 128.912 113.962 128.912C114.591 128.912 115.114 128.768 115.53 128.48C115.956 128.181 116.255 127.787 116.426 127.296H117.994C117.759 128.139 117.29 128.827 116.586 129.36C115.882 129.883 115.007 130.144 113.962 130.144C113.13 130.144 112.383 129.957 111.722 129.584C111.071 129.211 110.559 128.683 110.186 128C109.812 127.307 109.626 126.507 109.626 125.6C109.626 124.693 109.807 123.899 110.17 123.216C110.532 122.533 111.039 122.011 111.69 121.648C112.351 121.275 113.108 121.088 113.962 121.088C114.794 121.088 115.53 121.269 116.17 121.632C116.81 121.995 117.3 122.496 117.642 123.136C117.994 123.765 118.17 124.48 118.17 125.28ZM116.666 124.976C116.666 124.421 116.543 123.947 116.298 123.552C116.052 123.147 115.716 122.843 115.29 122.64C114.874 122.427 114.41 122.32 113.898 122.32C113.162 122.32 112.532 122.555 112.01 123.024C111.498 123.493 111.204 124.144 111.13 124.976H116.666Z" fill="#AFAFAF"/>
</svg>
