<svg width="48" height="48" viewBox="0 0 48 48" fill="none" xmlns="http://www.w3.org/2000/svg">
<path d="M23.9996 45.7223C12.0277 45.7223 2.27734 35.972 2.27734 24.0001C2.27734 12.0281 12.0277 2.27783 23.9996 2.27783C35.9715 2.27783 45.7218 12.0281 45.7218 24.0001C45.7218 35.972 35.9715 45.7223 23.9996 45.7223Z" fill="#E2E2E2"/>
<path d="M24 3.20975C35.4844 3.20975 44.8214 12.5156 44.8214 24.0311C44.8214 35.5156 35.5156 44.8525 24 44.8525C12.5156 44.8525 3.17862 35.5467 3.17862 24.0311C3.17862 12.5156 12.5156 3.20975 24 3.20975ZM24 1C11.3018 1 1 11.3329 1 24C1 36.6671 11.3329 47 24 47C36.6671 47 47 36.6671 47 24C47 11.3329 36.6671 1 24 1Z" fill="#CBCBCB"/>
<path d="M15.4729 16.7301C15.4104 17.4912 15.5041 18.2827 15.4416 19.0742C15.3792 19.8657 15.2854 20.6268 15.1293 21.3879C14.9106 22.4838 14.1922 23.3057 13.224 24.0059C15.098 25.1932 15.3167 27.0502 15.4416 28.9376C15.5041 29.9422 15.4729 30.9773 15.5978 31.9819C15.6915 32.7734 15.9726 32.956 16.8159 32.9865C17.1595 32.9865 17.5031 32.9865 17.8779 32.9865V35.3914C15.4416 35.7872 13.4114 35.1175 12.9116 33.1083C12.7554 32.3776 12.6305 31.6166 12.5993 30.8555C12.5368 30.064 12.6305 29.2421 12.568 28.4505C12.3806 26.2587 12.0995 25.4976 9.94434 25.4063V22.6665C10.1005 22.636 10.2567 22.6056 10.4129 22.5751C11.5998 22.5142 12.0995 22.1489 12.3806 21.0225C12.5056 20.3833 12.568 19.744 12.5993 19.0742C12.693 17.8261 12.6617 16.5475 12.8804 15.2993C13.1927 13.5032 14.3172 12.6508 16.2225 12.5291C16.7535 12.4986 17.2845 12.5291 17.9092 12.5291V14.9949C17.6593 15.0254 17.4406 15.0558 17.1908 15.0558C15.6603 14.9645 15.5978 15.482 15.4729 16.7301ZM18.4401 22.4229H18.4089C17.5343 22.3925 16.7535 23.0622 16.7222 23.9146C16.691 24.7974 17.3782 25.5281 18.2527 25.5889H18.3464C19.221 25.6498 19.9706 24.9801 20.0331 24.1277V24.0364C20.0331 23.1535 19.3147 22.4229 18.4401 22.4229ZM23.9999 22.4229C23.1253 22.3925 22.4069 23.0622 22.4069 23.8842C22.4069 23.945 22.4069 23.9755 22.4069 24.0364C22.4069 24.9801 23.0629 25.5889 24.0624 25.5889C25.0306 25.5889 25.6553 24.9801 25.6553 23.9755C25.6241 23.0318 24.9682 22.3925 23.9999 22.4229ZM29.6846 22.4229C28.7788 22.3925 28.0292 23.0926 27.9979 23.9755C27.9979 24.8583 28.7163 25.5585 29.6221 25.5585H29.6534C30.4654 25.7107 31.3088 24.9192 31.34 24.0059C31.4025 23.1535 30.5904 22.4229 29.6846 22.4229ZM37.5245 22.5447C36.4937 22.5142 35.994 22.1794 35.7129 21.2052C35.5567 20.5964 35.463 19.9571 35.4317 19.3482C35.3693 18.1914 35.3693 17.0346 35.2756 15.8473C35.0882 13.1075 33.0579 12.1333 30.0906 12.6204V14.9949C30.5592 14.9949 30.934 14.9949 31.2775 14.9949C31.9022 14.9949 32.402 15.2385 32.4645 15.9082C32.5269 16.517 32.5269 17.1563 32.5894 17.7956C32.7143 19.0438 32.7768 20.3224 32.9955 21.5705C33.1829 22.6056 33.9013 23.3666 34.8071 23.9755C33.2453 25.0105 32.7768 26.4718 32.6831 28.1157C32.6519 29.242 32.6206 30.3989 32.5582 31.5252C32.4957 32.5603 32.1209 32.8952 31.0589 32.9256C30.7466 32.9256 30.4655 32.956 30.1219 32.9865V35.4219C30.7466 35.4219 31.34 35.4523 31.9022 35.4219C33.6826 35.3306 34.7758 34.4782 35.1194 32.7734C35.2756 31.8297 35.3693 30.8859 35.4005 29.9422C35.463 29.0898 35.463 28.207 35.5567 27.3546C35.6816 26.0151 36.3063 25.4672 37.6806 25.3758C37.8056 25.3454 37.9305 25.3454 38.0555 25.2845V22.5447C37.8368 22.5751 37.6806 22.5447 37.5245 22.5447Z" fill="#CBCBCB"/>
</svg>
