<svg width="96" height="136" viewBox="0 0 96 136" fill="none" xmlns="http://www.w3.org/2000/svg">
<path d="M48.0001 91.4445C24.0563 91.4445 4.55566 71.9439 4.55566 48.0001C4.55566 24.0563 24.0563 4.55566 48.0001 4.55566C71.9439 4.55566 91.4445 24.0563 91.4445 48.0001C91.4445 71.9439 71.9439 91.4445 48.0001 91.4445Z" fill="#E2E2E2"/>
<path d="M48 6.41949C70.9689 6.41949 89.6428 25.0311 89.6428 48.0623C89.6428 71.0311 71.0311 89.705 48 89.705C25.0311 89.705 6.35724 71.0934 6.35724 48.0623C6.35724 25.0311 25.0311 6.41949 48 6.41949ZM48 2C22.6035 2 2 22.6658 2 48C2 73.3342 22.6658 94 48 94C73.3342 94 94 73.3342 94 48C94 22.6658 73.3342 2 48 2Z" fill="#CBCBCB"/>
<path d="M30.9457 33.4603C30.8208 34.9824 31.0082 36.5654 30.8832 38.1484C30.7583 39.7315 30.5709 41.2536 30.2586 42.7757C29.8213 44.9676 28.3845 46.6115 26.4479 48.0118C30.1961 50.3864 30.6334 54.1004 30.8832 57.8753C31.0082 59.8845 30.9457 61.9546 31.1956 63.9638C31.383 65.5468 31.9452 65.9121 33.6319 65.973C34.319 65.973 35.0062 65.973 35.7558 65.973V70.7829C30.8832 71.5744 26.8227 70.2349 25.8232 66.2165C25.5109 64.7553 25.261 63.2331 25.1985 61.711C25.0736 60.128 25.261 58.4841 25.1361 56.9011C24.7613 52.5174 24.199 50.9952 19.8887 50.8126V45.3329C20.201 45.272 20.5134 45.2111 20.8257 45.1502C23.1995 45.0285 24.199 44.2978 24.7613 42.0451C25.0111 40.7665 25.1361 39.4879 25.1985 38.1484C25.386 35.6522 25.3235 33.095 25.7608 30.5987C26.3855 27.0065 28.6344 25.3017 32.445 25.0581C33.507 24.9973 34.5689 25.0581 35.8183 25.0581V29.9898C35.3186 30.0507 34.8813 30.1116 34.3815 30.1116C31.3205 29.929 31.1956 30.964 30.9457 33.4603ZM36.8803 44.8458H36.8178C35.0687 44.7849 33.5069 46.1244 33.4445 47.8292C33.382 49.5949 34.7563 51.0561 36.5055 51.1779H36.6929C38.442 51.2997 39.9413 49.9602 40.0662 48.2554V48.0727C40.0662 46.3071 38.6294 44.8458 36.8803 44.8458ZM47.9998 44.8458C46.2507 44.7849 44.8139 46.1244 44.8139 47.7683C44.8139 47.8901 44.8139 47.951 44.8139 48.0727C44.8139 49.9602 46.1257 51.1779 48.1247 51.1779C50.0613 51.1779 51.3107 49.9602 51.3107 47.951C51.2482 46.0635 49.9363 44.7849 47.9998 44.8458ZM59.3692 44.8458C57.5576 44.7849 56.0583 46.1853 55.9958 47.951C55.9958 49.7166 57.4326 51.117 59.2442 51.117H59.3067C60.9309 51.4214 62.6176 49.8384 62.68 48.0118C62.805 46.3071 61.1808 44.8458 59.3692 44.8458ZM75.0489 45.0894C72.9874 45.0285 71.9879 44.3587 71.4257 42.4104C71.1134 41.1927 70.926 39.9141 70.8635 38.6964C70.7386 36.3828 70.7386 34.0691 70.5512 31.6946C70.1763 26.215 66.1158 24.2666 60.1813 25.2408V29.9898C61.1183 29.9898 61.8679 29.9898 62.5551 29.9898C63.8045 29.9898 64.804 30.4769 64.9289 31.8164C65.0539 33.0341 65.0539 34.3127 65.1788 35.5913C65.4287 38.0876 65.5536 40.6447 65.9909 43.141C66.3657 45.2111 67.8025 46.7333 69.6141 47.951C66.4907 50.0211 65.5536 52.9435 65.3662 56.2313C65.3037 58.4841 65.2413 60.7977 65.1163 63.0505C64.9914 65.1206 64.2418 65.7903 62.1178 65.8512C61.4931 65.8512 60.9309 65.9121 60.2437 65.973V70.8438C61.4931 70.8438 62.68 70.9047 63.8045 70.8438C67.3652 70.6611 69.5516 68.9563 70.2388 65.5468C70.5512 63.6593 70.7386 61.7719 70.801 59.8845C70.926 58.1797 70.926 56.414 71.1134 54.7092C71.3633 52.0303 72.6126 50.9343 75.3613 50.7517C75.6112 50.6908 75.861 50.6908 76.1109 50.569V45.0894C75.6736 45.1503 75.3613 45.0894 75.0489 45.0894Z" fill="#CBCBCB"/>
<path d="M17.268 130.112C16.532 130.112 15.8707 129.984 15.284 129.728C14.708 129.461 14.2547 129.099 13.924 128.64C13.5933 128.171 13.4227 127.632 13.412 127.024H14.964C15.0173 127.547 15.2307 127.989 15.604 128.352C15.988 128.704 16.5427 128.88 17.268 128.88C17.9613 128.88 18.5053 128.709 18.9 128.368C19.3053 128.016 19.508 127.568 19.508 127.024C19.508 126.597 19.3907 126.251 19.156 125.984C18.9213 125.717 18.628 125.515 18.276 125.376C17.924 125.237 17.4493 125.088 16.852 124.928C16.116 124.736 15.524 124.544 15.076 124.352C14.6387 124.16 14.26 123.861 13.94 123.456C13.6307 123.04 13.476 122.485 13.476 121.792C13.476 121.184 13.6307 120.645 13.94 120.176C14.2493 119.707 14.6813 119.344 15.236 119.088C15.8013 118.832 16.4467 118.704 17.172 118.704C18.2173 118.704 19.0707 118.965 19.732 119.488C20.404 120.011 20.7827 120.704 20.868 121.568H19.268C19.2147 121.141 18.9907 120.768 18.596 120.448C18.2013 120.117 17.6787 119.952 17.028 119.952C16.42 119.952 15.924 120.112 15.54 120.432C15.156 120.741 14.964 121.179 14.964 121.744C14.964 122.149 15.076 122.48 15.3 122.736C15.5347 122.992 15.8173 123.189 16.148 123.328C16.4893 123.456 16.964 123.605 17.572 123.776C18.308 123.979 18.9 124.181 19.348 124.384C19.796 124.576 20.18 124.88 20.5 125.296C20.82 125.701 20.98 126.256 20.98 126.96C20.98 127.504 20.836 128.016 20.548 128.496C20.26 128.976 19.8333 129.365 19.268 129.664C18.7027 129.963 18.036 130.112 17.268 130.112ZM34.8026 121.232L32.0666 130H30.5626L28.4506 123.04L26.3386 130H24.8346L22.0826 121.232H23.5706L25.5866 128.592L27.7626 121.232H29.2506L31.3786 128.608L33.3626 121.232H34.8026ZM35.7036 125.584C35.7036 124.688 35.885 123.904 36.2476 123.232C36.6103 122.549 37.1063 122.021 37.7356 121.648C38.3756 121.275 39.085 121.088 39.8636 121.088C40.6316 121.088 41.2983 121.253 41.8636 121.584C42.429 121.915 42.8503 122.331 43.1276 122.832V121.232H44.5996V130H43.1276V128.368C42.8396 128.88 42.4076 129.307 41.8316 129.648C41.2663 129.979 40.605 130.144 39.8476 130.144C39.069 130.144 38.365 129.952 37.7356 129.568C37.1063 129.184 36.6103 128.645 36.2476 127.952C35.885 127.259 35.7036 126.469 35.7036 125.584ZM43.1276 125.6C43.1276 124.939 42.9943 124.363 42.7276 123.872C42.461 123.381 42.0983 123.008 41.6396 122.752C41.1916 122.485 40.6956 122.352 40.1516 122.352C39.6076 122.352 39.1116 122.48 38.6636 122.736C38.2156 122.992 37.8583 123.365 37.5916 123.856C37.325 124.347 37.1916 124.923 37.1916 125.584C37.1916 126.256 37.325 126.843 37.5916 127.344C37.8583 127.835 38.2156 128.213 38.6636 128.48C39.1116 128.736 39.6076 128.864 40.1516 128.864C40.6956 128.864 41.1916 128.736 41.6396 128.48C42.0983 128.213 42.461 127.835 42.7276 127.344C42.9943 126.843 43.1276 126.261 43.1276 125.6ZM50.6761 121.088C51.4335 121.088 52.0948 121.253 52.6601 121.584C53.2361 121.915 53.6628 122.331 53.9401 122.832V121.232H55.4121V130.192C55.4121 130.992 55.2415 131.701 54.9001 132.32C54.5588 132.949 54.0681 133.44 53.4281 133.792C52.7988 134.144 52.0628 134.32 51.2201 134.32C50.0681 134.32 49.1081 134.048 48.3401 133.504C47.5721 132.96 47.1188 132.219 46.9801 131.28H48.4201C48.5801 131.813 48.9108 132.24 49.4121 132.56C49.9135 132.891 50.5161 133.056 51.2201 133.056C52.0201 133.056 52.6708 132.805 53.1721 132.304C53.6841 131.803 53.9401 131.099 53.9401 130.192V128.352C53.6521 128.864 53.2255 129.291 52.6601 129.632C52.0948 129.973 51.4335 130.144 50.6761 130.144C49.8975 130.144 49.1881 129.952 48.5481 129.568C47.9188 129.184 47.4228 128.645 47.0601 127.952C46.6975 127.259 46.5161 126.469 46.5161 125.584C46.5161 124.688 46.6975 123.904 47.0601 123.232C47.4228 122.549 47.9188 122.021 48.5481 121.648C49.1881 121.275 49.8975 121.088 50.6761 121.088ZM53.9401 125.6C53.9401 124.939 53.8068 124.363 53.5401 123.872C53.2735 123.381 52.9108 123.008 52.4521 122.752C52.0041 122.485 51.5081 122.352 50.9641 122.352C50.4201 122.352 49.9241 122.48 49.4761 122.736C49.0281 122.992 48.6708 123.365 48.4041 123.856C48.1375 124.347 48.0041 124.923 48.0041 125.584C48.0041 126.256 48.1375 126.843 48.4041 127.344C48.6708 127.835 49.0281 128.213 49.4761 128.48C49.9241 128.736 50.4201 128.864 50.9641 128.864C51.5081 128.864 52.0041 128.736 52.4521 128.48C52.9108 128.213 53.2735 127.835 53.5401 127.344C53.8068 126.843 53.9401 126.261 53.9401 125.6ZM61.4886 121.088C62.246 121.088 62.9073 121.253 63.4726 121.584C64.0486 121.915 64.4753 122.331 64.7526 122.832V121.232H66.2246V130.192C66.2246 130.992 66.054 131.701 65.7126 132.32C65.3713 132.949 64.8806 133.44 64.2406 133.792C63.6113 134.144 62.8753 134.32 62.0326 134.32C60.8806 134.32 59.9206 134.048 59.1526 133.504C58.3846 132.96 57.9313 132.219 57.7926 131.28H59.2326C59.3926 131.813 59.7233 132.24 60.2246 132.56C60.726 132.891 61.3286 133.056 62.0326 133.056C62.8326 133.056 63.4833 132.805 63.9846 132.304C64.4966 131.803 64.7526 131.099 64.7526 130.192V128.352C64.4646 128.864 64.038 129.291 63.4726 129.632C62.9073 129.973 62.246 130.144 61.4886 130.144C60.71 130.144 60.0006 129.952 59.3606 129.568C58.7313 129.184 58.2353 128.645 57.8726 127.952C57.51 127.259 57.3286 126.469 57.3286 125.584C57.3286 124.688 57.51 123.904 57.8726 123.232C58.2353 122.549 58.7313 122.021 59.3606 121.648C60.0006 121.275 60.71 121.088 61.4886 121.088ZM64.7526 125.6C64.7526 124.939 64.6193 124.363 64.3526 123.872C64.086 123.381 63.7233 123.008 63.2646 122.752C62.8166 122.485 62.3206 122.352 61.7766 122.352C61.2326 122.352 60.7366 122.48 60.2886 122.736C59.8406 122.992 59.4833 123.365 59.2166 123.856C58.95 124.347 58.8166 124.923 58.8166 125.584C58.8166 126.256 58.95 126.843 59.2166 127.344C59.4833 127.835 59.8406 128.213 60.2886 128.48C60.7366 128.736 61.2326 128.864 61.7766 128.864C62.3206 128.864 62.8166 128.736 63.2646 128.48C63.7233 128.213 64.086 127.835 64.3526 127.344C64.6193 126.843 64.7526 126.261 64.7526 125.6ZM76.6851 125.28C76.6851 125.557 76.6691 125.851 76.6371 126.16H69.6291C69.6825 127.024 69.9758 127.701 70.5091 128.192C71.0531 128.672 71.7091 128.912 72.4771 128.912C73.1065 128.912 73.6291 128.768 74.0451 128.48C74.4718 128.181 74.7705 127.787 74.9411 127.296H76.5091C76.2745 128.139 75.8051 128.827 75.1011 129.36C74.3971 129.883 73.5225 130.144 72.4771 130.144C71.6451 130.144 70.8985 129.957 70.2371 129.584C69.5865 129.211 69.0745 128.683 68.7011 128C68.3278 127.307 68.1411 126.507 68.1411 125.6C68.1411 124.693 68.3225 123.899 68.6851 123.216C69.0478 122.533 69.5545 122.011 70.2051 121.648C70.8665 121.275 71.6238 121.088 72.4771 121.088C73.3091 121.088 74.0451 121.269 74.6851 121.632C75.3251 121.995 75.8158 122.496 76.1571 123.136C76.5091 123.765 76.6851 124.48 76.6851 125.28ZM75.1811 124.976C75.1811 124.421 75.0585 123.947 74.8131 123.552C74.5678 123.147 74.2318 122.843 73.8051 122.64C73.3891 122.427 72.9251 122.32 72.4131 122.32C71.6771 122.32 71.0478 122.555 70.5251 123.024C70.0131 123.493 69.7198 124.144 69.6451 124.976H75.1811ZM80.063 122.656C80.319 122.155 80.6817 121.765 81.151 121.488C81.631 121.211 82.2123 121.072 82.895 121.072V122.576H82.511C80.879 122.576 80.063 123.461 80.063 125.232V130H78.607V121.232H80.063V122.656Z" fill="#AFAFAF"/>
</svg>
