<svg width="97" height="136" viewBox="0 0 97 136" fill="none" xmlns="http://www.w3.org/2000/svg">
<path d="M22.9375 2H73.8786C76.3574 2 78.7643 2.39517 81.0994 3.22144C84.4763 4.44287 87.5299 6.59835 89.8291 9.40046C92.1642 12.2026 93.709 15.6513 94.2478 19.2438C94.4634 20.573 94.4993 21.9022 94.4993 23.2314V72.9151C94.4993 74.4958 94.4275 76.1124 94.1041 77.6572C93.3857 81.2137 91.6972 84.5547 89.2543 87.249C86.8474 89.9434 83.686 91.9552 80.2732 93.0329C78.1896 93.6795 76.0341 93.9669 73.8427 93.9669C72.8727 93.9669 22.7938 93.9669 22.0394 93.931C18.3751 93.7514 14.7467 92.5659 11.6932 90.5182C8.71141 88.5064 6.26854 85.7043 4.68786 82.4711C3.32273 79.7049 2.64016 76.6154 2.64016 73.5258V22.4411C2.56831 19.3875 3.21495 16.3698 4.54416 13.6396C6.08892 10.4064 8.49587 7.56831 11.4776 5.55653C14.5312 3.47291 18.1237 2.25147 21.788 2.07185C22.1472 2 22.5424 2 22.9375 2Z" fill="#E2E2E2"/>
<path d="M80.0971 77.2261C79.7738 76.7231 79.4145 76.2202 79.0194 75.7532C78.1212 74.6754 77.0794 73.7414 75.9298 72.9511C74.4929 71.9811 72.8044 71.3704 71.08 71.2985C69.8586 71.2267 68.6372 71.4422 67.4876 71.8733C66.338 72.2685 65.2243 72.8433 64.1466 73.4181C62.8892 74.0647 61.6319 74.7114 60.3027 75.2502C58.722 75.8969 57.0694 76.3998 55.381 76.7591C53.2614 77.1542 51.106 77.2979 48.9864 77.262C45.1425 77.1902 41.2985 76.6154 37.6342 75.5376C34.401 74.5677 31.3115 73.2385 28.4016 71.55C25.851 70.0771 23.48 68.3886 21.2526 66.4846C19.4205 64.9039 17.732 63.2155 16.1513 61.4193C15.0736 60.1619 14.0318 58.8327 13.0618 57.4676C12.6667 56.9287 12.3074 56.3539 11.9841 55.7791L2.5 45.5406V22.3692C2.5 11.1248 11.5889 2 22.8333 2H40.9752L54.411 15.6513C84.7314 36.2721 74.924 59.0123 74.924 59.0123C74.924 59.0123 83.5459 68.712 80.0971 77.2261Z" fill="#CBCBCB"/>
<path d="M54.4812 15.6514C84.8016 36.2721 74.9941 59.0123 74.9941 59.0123C74.9941 59.0123 83.616 68.7479 80.1314 77.262C80.1314 77.262 76.5748 71.2985 70.6113 71.2985C64.8634 71.2985 61.4865 77.262 49.9188 77.262C24.1609 77.262 11.9824 55.7432 11.9824 55.7432C35.1897 71.0111 51.0324 60.1978 51.0324 60.1978C40.5784 54.1266 18.3411 25.0995 18.3411 25.0995C37.7044 41.5889 46.0749 45.9358 46.0749 45.9358C41.0813 41.8045 27.0707 21.6148 27.0707 21.6148C38.2792 32.967 60.5525 48.8098 60.5525 48.8098C66.8752 31.2786 54.4812 15.6514 54.4812 15.6514Z" fill="white"/>
<path d="M26.768 130.112C26.032 130.112 25.3707 129.984 24.784 129.728C24.208 129.461 23.7547 129.099 23.424 128.64C23.0933 128.171 22.9227 127.632 22.912 127.024H24.464C24.5173 127.547 24.7307 127.989 25.104 128.352C25.488 128.704 26.0427 128.88 26.768 128.88C27.4613 128.88 28.0053 128.709 28.4 128.368C28.8053 128.016 29.008 127.568 29.008 127.024C29.008 126.597 28.8907 126.251 28.656 125.984C28.4213 125.717 28.128 125.515 27.776 125.376C27.424 125.237 26.9493 125.088 26.352 124.928C25.616 124.736 25.024 124.544 24.576 124.352C24.1387 124.16 23.76 123.861 23.44 123.456C23.1307 123.04 22.976 122.485 22.976 121.792C22.976 121.184 23.1307 120.645 23.44 120.176C23.7493 119.707 24.1813 119.344 24.736 119.088C25.3013 118.832 25.9467 118.704 26.672 118.704C27.7173 118.704 28.5707 118.965 29.232 119.488C29.904 120.011 30.2827 120.704 30.368 121.568H28.768C28.7147 121.141 28.4907 120.768 28.096 120.448C27.7013 120.117 27.1787 119.952 26.528 119.952C25.92 119.952 25.424 120.112 25.04 120.432C24.656 120.741 24.464 121.179 24.464 121.744C24.464 122.149 24.576 122.48 24.8 122.736C25.0347 122.992 25.3173 123.189 25.648 123.328C25.9893 123.456 26.464 123.605 27.072 123.776C27.808 123.979 28.4 124.181 28.848 124.384C29.296 124.576 29.68 124.88 30 125.296C30.32 125.701 30.48 126.256 30.48 126.96C30.48 127.504 30.336 128.016 30.048 128.496C29.76 128.976 29.3333 129.365 28.768 129.664C28.2027 129.963 27.536 130.112 26.768 130.112ZM44.3026 121.232L41.5666 130H40.0626L37.9506 123.04L35.8386 130H34.3346L31.5826 121.232H33.0706L35.0866 128.592L37.2626 121.232H38.7506L40.8786 128.608L42.8626 121.232H44.3026ZM46.4996 119.808C46.2223 119.808 45.9876 119.712 45.7956 119.52C45.6036 119.328 45.5076 119.093 45.5076 118.816C45.5076 118.539 45.6036 118.304 45.7956 118.112C45.9876 117.92 46.2223 117.824 46.4996 117.824C46.7663 117.824 46.9903 117.92 47.1716 118.112C47.3636 118.304 47.4596 118.539 47.4596 118.816C47.4596 119.093 47.3636 119.328 47.1716 119.52C46.9903 119.712 46.7663 119.808 46.4996 119.808ZM47.2036 121.232V130H45.7476V121.232H47.2036ZM53.2531 122.432H51.4131V130H49.9571V122.432H48.8211V121.232H49.9571V120.608C49.9571 119.627 50.2078 118.912 50.7091 118.464C51.2211 118.005 52.0371 117.776 53.1571 117.776V118.992C52.5171 118.992 52.0638 119.12 51.7971 119.376C51.5411 119.621 51.4131 120.032 51.4131 120.608V121.232H53.2531V122.432ZM56.7268 122.432V127.6C56.7268 128.027 56.8174 128.331 56.9988 128.512C57.1801 128.683 57.4948 128.768 57.9427 128.768H59.0148V130H57.7028C56.8921 130 56.2841 129.813 55.8788 129.44C55.4734 129.067 55.2708 128.453 55.2708 127.6V122.432H54.1348V121.232H55.2708V119.024H56.7268V121.232H59.0148V122.432H56.7268ZM62.2029 118.848V125.904C62.2029 126.896 62.4429 127.632 62.9229 128.112C63.4135 128.592 64.0909 128.832 64.9549 128.832C65.8082 128.832 66.4749 128.592 66.9549 128.112C67.4455 127.632 67.6909 126.896 67.6909 125.904V118.848H69.1469V125.888C69.1469 126.816 68.9602 127.6 68.5869 128.24C68.2135 128.869 67.7069 129.339 67.0669 129.648C66.4375 129.957 65.7282 130.112 64.9389 130.112C64.1495 130.112 63.4349 129.957 62.7949 129.648C62.1655 129.339 61.6642 128.869 61.2909 128.24C60.9282 127.6 60.7469 126.816 60.7469 125.888V118.848H62.2029ZM73.0318 118.848V130H71.5758V118.848H73.0318Z" fill="#AFAFAF"/>
</svg>
