<svg width="48" height="48" viewBox="0 0 48 48" fill="none" xmlns="http://www.w3.org/2000/svg">
<path d="M11.2188 1H36.6893C37.9287 1 39.1322 1.19759 40.2997 1.61072C41.9882 2.22144 43.515 3.29917 44.6646 4.70023C45.8321 6.10129 46.6045 7.82567 46.8739 9.6219C46.9817 10.2865 46.9997 10.9511 46.9997 11.6157V36.4576C46.9997 37.2479 46.9637 38.0562 46.8021 38.8286C46.4428 40.6069 45.5986 42.2773 44.3772 43.6245C43.1737 44.9717 41.593 45.9776 39.8866 46.5164C38.8448 46.8398 37.767 46.9835 36.6713 46.9835C36.1864 46.9835 11.1469 46.9835 10.7697 46.9655C8.93756 46.8757 7.12337 46.2829 5.59658 45.2591C4.10571 44.2532 2.88427 42.8521 2.09393 41.2355C1.41136 39.8524 1.07008 38.3077 1.07008 36.7629V11.2205C1.03415 9.69375 1.35748 8.18492 2.02208 6.81978C2.79446 5.20318 3.99793 3.78416 5.4888 2.77827C7.0156 1.73645 8.81183 1.12574 10.644 1.03592C10.8236 1 11.0212 1 11.2188 1V1Z" fill="#E2E2E2"/>
<path d="M39.7986 38.613C39.6369 38.3616 39.4573 38.1101 39.2597 37.8766C38.8106 37.3377 38.2897 36.8707 37.7149 36.4755C36.9964 35.9905 36.1522 35.6852 35.29 35.6493C34.6793 35.6133 34.0686 35.7211 33.4938 35.9367C32.919 36.1342 32.3622 36.4216 31.8233 36.709C31.1946 37.0324 30.5659 37.3557 29.9013 37.6251C29.111 37.9484 28.2847 38.1999 27.4405 38.3795C26.3807 38.5771 25.303 38.649 24.2432 38.631C22.3212 38.5951 20.3993 38.3077 18.5671 37.7688C16.9505 37.2838 15.4058 36.6192 13.9508 35.775C12.6755 35.0385 11.49 34.1943 10.3763 33.2423C9.46024 32.452 8.61601 31.6077 7.82567 30.7096C7.2868 30.081 6.7659 29.4163 6.28091 28.7338C6.08333 28.4643 5.90371 28.1769 5.74204 27.8896L1 22.7703V11.1846C1 5.56242 5.54446 1 11.1667 1H20.2376L26.9555 7.82567C42.1157 18.136 37.212 29.5062 37.212 29.5062C37.212 29.5062 41.5229 34.356 39.7986 38.613V38.613Z" fill="#CBCBCB"/>
<path d="M26.9906 7.82568C42.1508 18.136 37.2471 29.5062 37.2471 29.5062C37.2471 29.5062 41.558 34.374 39.8157 38.631C39.8157 38.631 38.0374 35.6493 35.0557 35.6493C32.1817 35.6493 30.4932 38.631 24.7094 38.631C11.8304 38.631 5.74121 27.8716 5.74121 27.8716C17.3449 35.5056 25.2662 30.0989 25.2662 30.0989C20.0392 27.0633 8.92054 12.5498 8.92054 12.5498C18.6022 20.7945 22.7874 22.9679 22.7874 22.9679C20.2907 20.9022 13.2854 10.8074 13.2854 10.8074C18.8896 16.4835 30.0262 24.4049 30.0262 24.4049C33.1876 15.6393 26.9906 7.82568 26.9906 7.82568Z" fill="white"/>
</svg>
