<svg width="96" height="136" viewBox="0 0 96 136" fill="none" xmlns="http://www.w3.org/2000/svg">
<path d="M22.4385 2H73.3796C75.8584 2 78.2653 2.39517 80.6004 3.22144C83.9773 4.44287 87.0309 6.59835 89.3301 9.40046C91.6652 12.2026 93.2099 15.6513 93.7488 19.2438C93.9644 20.573 94.0003 21.9022 94.0003 23.2314V72.9151C94.0003 74.4958 93.9284 76.1124 93.6051 77.6572C92.8866 81.2137 91.1982 84.5547 88.7553 87.249C86.3484 89.9434 83.187 91.9552 79.7742 93.0329C77.6905 93.6795 75.5351 93.9669 73.3437 93.9669C72.3737 93.9669 22.2948 93.9669 21.5404 93.931C17.8761 93.7514 14.2477 92.5659 11.1941 90.5182C8.21239 88.5064 5.76952 85.7043 4.18884 82.4711C2.8237 79.7049 2.14114 76.6154 2.14114 73.5258V22.4411C2.06929 19.3875 2.71593 16.3698 4.04514 13.6396C5.5899 10.4064 7.99684 7.56831 10.9786 5.55653C14.0322 3.47291 17.6246 2.25147 21.2889 2.07185C21.6482 2 22.0434 2 22.4385 2Z" fill="#E2E2E2"/>
<path d="M79.5971 77.2261C79.2738 76.7231 78.9145 76.2202 78.5194 75.7532C77.6212 74.6754 76.5794 73.7414 75.4298 72.9511C73.9929 71.9811 72.3044 71.3704 70.58 71.2985C69.3586 71.2267 68.1372 71.4422 66.9876 71.8733C65.838 72.2685 64.7243 72.8433 63.6466 73.4181C62.3892 74.0647 61.1319 74.7114 59.8027 75.2502C58.222 75.8969 56.5694 76.3998 54.881 76.7591C52.7614 77.1542 50.606 77.2979 48.4864 77.262C44.6425 77.1902 40.7985 76.6154 37.1342 75.5376C33.901 74.5677 30.8115 73.2385 27.9016 71.55C25.351 70.0771 22.98 68.3886 20.7526 66.4846C18.9205 64.9039 17.232 63.2155 15.6513 61.4193C14.5736 60.1619 13.5318 58.8327 12.5618 57.4676C12.1667 56.9287 11.8074 56.3539 11.4841 55.7791L2 45.5406V22.3692C2 11.1248 11.0889 2 22.3333 2H40.4752L53.911 15.6513C84.2314 36.2721 74.424 59.0123 74.424 59.0123C74.424 59.0123 83.0459 68.712 79.5971 77.2261Z" fill="#CBCBCB"/>
<path d="M53.9802 15.6514C84.3006 36.2721 74.4932 59.0123 74.4932 59.0123C74.4932 59.0123 83.1151 68.7479 79.6304 77.262C79.6304 77.262 76.0739 71.2985 70.1104 71.2985C64.3624 71.2985 60.9855 77.262 49.4178 77.262C23.6599 77.262 11.4814 55.7432 11.4814 55.7432C34.6887 71.0111 50.5315 60.1978 50.5315 60.1978C40.0774 54.1266 17.8401 25.0995 17.8401 25.0995C37.2034 41.5889 45.5739 45.9358 45.5739 45.9358C40.5804 41.8045 26.5698 21.6148 26.5698 21.6148C37.7782 32.967 60.0515 48.8098 60.0515 48.8098C66.3742 31.2786 53.9802 15.6514 53.9802 15.6514Z" fill="white"/>
<path d="M33.768 130.112C33.032 130.112 32.3707 129.984 31.784 129.728C31.208 129.461 30.7547 129.099 30.424 128.64C30.0933 128.171 29.9227 127.632 29.912 127.024H31.464C31.5173 127.547 31.7307 127.989 32.104 128.352C32.488 128.704 33.0427 128.88 33.768 128.88C34.4613 128.88 35.0053 128.709 35.4 128.368C35.8053 128.016 36.008 127.568 36.008 127.024C36.008 126.597 35.8907 126.251 35.656 125.984C35.4213 125.717 35.128 125.515 34.776 125.376C34.424 125.237 33.9493 125.088 33.352 124.928C32.616 124.736 32.024 124.544 31.576 124.352C31.1387 124.16 30.76 123.861 30.44 123.456C30.1307 123.04 29.976 122.485 29.976 121.792C29.976 121.184 30.1307 120.645 30.44 120.176C30.7493 119.707 31.1813 119.344 31.736 119.088C32.3013 118.832 32.9467 118.704 33.672 118.704C34.7173 118.704 35.5707 118.965 36.232 119.488C36.904 120.011 37.2827 120.704 37.368 121.568H35.768C35.7147 121.141 35.4907 120.768 35.096 120.448C34.7013 120.117 34.1787 119.952 33.528 119.952C32.92 119.952 32.424 120.112 32.04 120.432C31.656 120.741 31.464 121.179 31.464 121.744C31.464 122.149 31.576 122.48 31.8 122.736C32.0347 122.992 32.3173 123.189 32.648 123.328C32.9893 123.456 33.464 123.605 34.072 123.776C34.808 123.979 35.4 124.181 35.848 124.384C36.296 124.576 36.68 124.88 37 125.296C37.32 125.701 37.48 126.256 37.48 126.96C37.48 127.504 37.336 128.016 37.048 128.496C36.76 128.976 36.3333 129.365 35.768 129.664C35.2027 129.963 34.536 130.112 33.768 130.112ZM51.3026 121.232L48.5666 130H47.0626L44.9506 123.04L42.8386 130H41.3346L38.5826 121.232H40.0706L42.0866 128.592L44.2626 121.232H45.7506L47.8786 128.608L49.8626 121.232H51.3026ZM53.4996 119.808C53.2223 119.808 52.9876 119.712 52.7956 119.52C52.6036 119.328 52.5076 119.093 52.5076 118.816C52.5076 118.539 52.6036 118.304 52.7956 118.112C52.9876 117.92 53.2223 117.824 53.4996 117.824C53.7663 117.824 53.9903 117.92 54.1716 118.112C54.3636 118.304 54.4596 118.539 54.4596 118.816C54.4596 119.093 54.3636 119.328 54.1716 119.52C53.9903 119.712 53.7663 119.808 53.4996 119.808ZM54.2036 121.232V130H52.7476V121.232H54.2036ZM60.2531 122.432H58.4131V130H56.9571V122.432H55.8211V121.232H56.9571V120.608C56.9571 119.627 57.2078 118.912 57.7091 118.464C58.2211 118.005 59.0371 117.776 60.1571 117.776V118.992C59.5171 118.992 59.0638 119.12 58.7971 119.376C58.5411 119.621 58.4131 120.032 58.4131 120.608V121.232H60.2531V122.432ZM63.7268 122.432V127.6C63.7268 128.027 63.8174 128.331 63.9988 128.512C64.1801 128.683 64.4948 128.768 64.9427 128.768H66.0148V130H64.7028C63.8921 130 63.2841 129.813 62.8788 129.44C62.4734 129.067 62.2708 128.453 62.2708 127.6V122.432H61.1348V121.232H62.2708V119.024H63.7268V121.232H66.0148V122.432H63.7268Z" fill="#AFAFAF"/>
</svg>
