<svg width="96" height="136" viewBox="0 0 96 136" fill="none" xmlns="http://www.w3.org/2000/svg">
<path d="M55.4291 14.7686V29.5372L81.1456 44.3058V29.5372L55.4291 14.7686ZM4 29.5372V44.3058L16.8582 51.6902V36.9215L4 29.5372ZM42.5709 36.9215L29.7126 44.3058V88.6118L42.5709 95.9999V66.4626L55.4291 73.847V59.0783L42.5709 51.694V36.9215Z" fill="#CBCBCB"/>
<path d="M55.4293 14.7686L16.8584 36.9215V51.6902L42.5749 36.9215V51.6902L55.4331 44.3058V14.7686H55.4293ZM94.0002 22.1529L81.1419 29.5372V44.3058L94.0002 36.9215V22.1529ZM68.2875 51.694L55.4293 59.0783V73.847L68.2875 66.4626V51.694ZM55.4293 73.847L42.571 66.4626V95.9999L55.4293 88.6156V73.847Z" fill="#AFAFAF"/>
<path d="M55.4291 0L4 29.5373L16.8582 36.9216L55.4291 14.7686L81.1456 29.5373L94.0039 22.153L55.4291 0ZM55.4291 44.3059L42.5709 51.6902L55.4291 59.0746L68.2874 51.6902L55.4291 44.3059Z" fill="#E2E2E2"/>
<path d="M11.596 118.848V120.032H8.556V130H7.1V120.032H4.044V118.848H11.596ZM21.3883 125.28C21.3883 125.557 21.3723 125.851 21.3403 126.16H14.3323C14.3856 127.024 14.6789 127.701 15.2123 128.192C15.7563 128.672 16.4123 128.912 17.1803 128.912C17.8096 128.912 18.3323 128.768 18.7483 128.48C19.1749 128.181 19.4736 127.787 19.6443 127.296H21.2123C20.9776 128.139 20.5083 128.827 19.8043 129.36C19.1003 129.883 18.2256 130.144 17.1803 130.144C16.3483 130.144 15.6016 129.957 14.9403 129.584C14.2896 129.211 13.7776 128.683 13.4043 128C13.0309 127.307 12.8443 126.507 12.8443 125.6C12.8443 124.693 13.0256 123.899 13.3883 123.216C13.7509 122.533 14.2576 122.011 14.9083 121.648C15.5696 121.275 16.3269 121.088 17.1803 121.088C18.0123 121.088 18.7483 121.269 19.3883 121.632C20.0283 121.995 20.5189 122.496 20.8603 123.136C21.2123 123.765 21.3883 124.48 21.3883 125.28ZM19.8843 124.976C19.8843 124.421 19.7616 123.947 19.5163 123.552C19.2709 123.147 18.9349 122.843 18.5083 122.64C18.0923 122.427 17.6283 122.32 17.1163 122.32C16.3803 122.32 15.7509 122.555 15.2283 123.024C14.7163 123.493 14.4229 124.144 14.3483 124.976H19.8843ZM27.5821 121.072C28.6488 121.072 29.5128 121.397 30.1741 122.048C30.8355 122.688 31.1661 123.616 31.1661 124.832V130H29.7261V125.04C29.7261 124.165 29.5075 123.499 29.0701 123.04C28.6328 122.571 28.0355 122.336 27.2781 122.336C26.5101 122.336 25.8968 122.576 25.4381 123.056C24.9901 123.536 24.7661 124.235 24.7661 125.152V130H23.3101V121.232H24.7661V122.48C25.0541 122.032 25.4435 121.685 25.9341 121.44C26.4355 121.195 26.9848 121.072 27.5821 121.072ZM36.6485 130.144C35.9765 130.144 35.3738 130.032 34.8405 129.808C34.3072 129.573 33.8858 129.253 33.5765 128.848C33.2672 128.432 33.0965 127.957 33.0645 127.424H34.5685C34.6112 127.861 34.8138 128.219 35.1765 128.496C35.5498 128.773 36.0352 128.912 36.6325 128.912C37.1872 128.912 37.6245 128.789 37.9445 128.544C38.2645 128.299 38.4245 127.989 38.4245 127.616C38.4245 127.232 38.2538 126.949 37.9125 126.768C37.5712 126.576 37.0432 126.389 36.3285 126.208C35.6778 126.037 35.1445 125.867 34.7285 125.696C34.3232 125.515 33.9712 125.253 33.6725 124.912C33.3845 124.56 33.2405 124.101 33.2405 123.536C33.2405 123.088 33.3738 122.677 33.6405 122.304C33.9072 121.931 34.2858 121.637 34.7765 121.424C35.2672 121.2 35.8272 121.088 36.4565 121.088C37.4272 121.088 38.2112 121.333 38.8085 121.824C39.4058 122.315 39.7258 122.987 39.7685 123.84H38.3125C38.2805 123.381 38.0938 123.013 37.7525 122.736C37.4218 122.459 36.9738 122.32 36.4085 122.32C35.8858 122.32 35.4698 122.432 35.1605 122.656C34.8512 122.88 34.6965 123.173 34.6965 123.536C34.6965 123.824 34.7872 124.064 34.9685 124.256C35.1605 124.437 35.3952 124.587 35.6725 124.704C35.9605 124.811 36.3552 124.933 36.8565 125.072C37.4858 125.243 37.9978 125.413 38.3925 125.584C38.7872 125.744 39.1232 125.989 39.4005 126.32C39.6885 126.651 39.8378 127.083 39.8485 127.616C39.8485 128.096 39.7152 128.528 39.4485 128.912C39.1818 129.296 38.8032 129.6 38.3125 129.824C37.8325 130.037 37.2778 130.144 36.6485 130.144ZM45.7279 130.144C44.9065 130.144 44.1599 129.957 43.4879 129.584C42.8265 129.211 42.3039 128.683 41.9199 128C41.5465 127.307 41.3599 126.507 41.3599 125.6C41.3599 124.704 41.5519 123.915 41.9359 123.232C42.3305 122.539 42.8639 122.011 43.5359 121.648C44.2079 121.275 44.9599 121.088 45.7919 121.088C46.6239 121.088 47.3759 121.275 48.0479 121.648C48.7199 122.011 49.2479 122.533 49.6319 123.216C50.0265 123.899 50.2239 124.693 50.2239 125.6C50.2239 126.507 50.0212 127.307 49.6159 128C49.2212 128.683 48.6825 129.211 47.9999 129.584C47.3172 129.957 46.5599 130.144 45.7279 130.144ZM45.7279 128.864C46.2505 128.864 46.7412 128.741 47.1999 128.496C47.6585 128.251 48.0265 127.883 48.3039 127.392C48.5919 126.901 48.7359 126.304 48.7359 125.6C48.7359 124.896 48.5972 124.299 48.3199 123.808C48.0425 123.317 47.6799 122.955 47.2319 122.72C46.7839 122.475 46.2985 122.352 45.7759 122.352C45.2425 122.352 44.7519 122.475 44.3039 122.72C43.8665 122.955 43.5145 123.317 43.2479 123.808C42.9812 124.299 42.8479 124.896 42.8479 125.6C42.8479 126.315 42.9759 126.917 43.2319 127.408C43.4985 127.899 43.8505 128.267 44.2879 128.512C44.7252 128.747 45.2052 128.864 45.7279 128.864ZM53.5943 122.656C53.8503 122.155 54.2129 121.765 54.6823 121.488C55.1623 121.211 55.7436 121.072 56.4263 121.072V122.576H56.0423C54.4103 122.576 53.5943 123.461 53.5943 125.232V130H52.1383V121.232H53.5943V122.656ZM64.411 118.848V120.032H59.563V123.792H63.499V124.976H59.563V130H58.107V118.848H64.411ZM67.6255 118.16V130H66.1695V118.16H67.6255ZM73.931 130.144C73.1097 130.144 72.363 129.957 71.691 129.584C71.0297 129.211 70.507 128.683 70.123 128C69.7497 127.307 69.563 126.507 69.563 125.6C69.563 124.704 69.755 123.915 70.139 123.232C70.5337 122.539 71.067 122.011 71.739 121.648C72.411 121.275 73.163 121.088 73.995 121.088C74.827 121.088 75.579 121.275 76.251 121.648C76.923 122.011 77.451 122.533 77.835 123.216C78.2297 123.899 78.427 124.693 78.427 125.6C78.427 126.507 78.2243 127.307 77.819 128C77.4243 128.683 76.8857 129.211 76.203 129.584C75.5203 129.957 74.763 130.144 73.931 130.144ZM73.931 128.864C74.4537 128.864 74.9443 128.741 75.403 128.496C75.8617 128.251 76.2297 127.883 76.507 127.392C76.795 126.901 76.939 126.304 76.939 125.6C76.939 124.896 76.8003 124.299 76.523 123.808C76.2457 123.317 75.883 122.955 75.435 122.72C74.987 122.475 74.5017 122.352 73.979 122.352C73.4457 122.352 72.955 122.475 72.507 122.72C72.0697 122.955 71.7177 123.317 71.451 123.808C71.1843 124.299 71.051 124.896 71.051 125.6C71.051 126.315 71.179 126.917 71.435 127.408C71.7017 127.899 72.0537 128.267 72.491 128.512C72.9283 128.747 73.4083 128.864 73.931 128.864ZM92.0214 121.232L89.2854 130H87.7814L85.6694 123.04L83.5574 130H82.0534L79.3014 121.232H80.7894L82.8054 128.592L84.9814 121.232H86.4694L88.5974 128.608L90.5814 121.232H92.0214Z" fill="#AFAFAF"/>
</svg>
