<svg width="48" height="48" viewBox="0 0 48 48" fill="none" xmlns="http://www.w3.org/2000/svg">
<path d="M27.7146 7.38428V14.7686L40.5728 22.1529V14.7686L27.7146 7.38428ZM2 14.7686V22.1529L8.42912 25.8451V18.4608L2 14.7686ZM21.2854 18.4608L14.8563 22.1529V44.3059L21.2854 48V33.2313L27.7146 36.9235V29.5392L21.2854 25.847V18.4608Z" fill="#CBCBCB"/>
<path d="M27.7142 7.38428L8.42871 18.4608V25.8451L21.287 18.4608V25.8451L27.7161 22.1529V7.38428H27.7142ZM46.9996 11.0764L40.5705 14.7686V22.1529L46.9996 18.4608V11.0764ZM34.1433 25.847L27.7142 29.5392V36.9235L34.1433 33.2313V25.847ZM27.7142 36.9235L21.285 33.2313V48L27.7142 44.3078V36.9235Z" fill="#AFAFAF"/>
<path d="M27.7146 0L2 14.7686L8.42912 18.4608L27.7146 7.38432L40.5728 14.7686L47.0019 11.0765L27.7146 0ZM27.7146 22.153L21.2854 25.8451L27.7146 29.5373L34.1437 25.8451L27.7146 22.153Z" fill="#E2E2E2"/>
</svg>
