<svg width="96" height="136" viewBox="0 0 96 136" fill="none" xmlns="http://www.w3.org/2000/svg">
<path d="M13.1552 47.4919C13.1552 66.5211 28.4636 81.8297 47.4929 81.8297C66.5222 81.8297 81.8306 66.5211 81.8306 47.4919C81.8306 28.4626 66.5222 13.1542 47.4929 13.1542C28.4636 13.1542 13.1552 28.4626 13.1552 47.4919Z" stroke="#CBCBCB" stroke-width="5.55684"/>
<path fill-rule="evenodd" clip-rule="evenodd" d="M58.1308 27.9414C63.0566 27.9414 67.0498 31.9346 67.0498 36.8603C67.0498 41.7861 63.0566 45.7793 58.1308 45.7793C53.2051 45.7793 49.2119 41.7861 49.2119 36.8603C49.2119 31.9346 53.2051 27.9414 58.1308 27.9414Z" fill="#CBCBCB"/>
<path fill-rule="evenodd" clip-rule="evenodd" d="M58.1308 49.2085C63.0566 49.2085 67.0498 53.2016 67.0498 58.1274C67.0498 63.0532 63.0566 67.0464 58.1308 67.0464C53.2051 67.0464 49.2119 63.0532 49.2119 58.1274C49.2119 53.2016 53.2051 49.2085 58.1308 49.2085Z" fill="#CBCBCB"/>
<path fill-rule="evenodd" clip-rule="evenodd" d="M36.8634 49.2085C41.7892 49.2085 45.7823 53.2016 45.7823 58.1274C45.7823 63.0532 41.7892 67.0464 36.8634 67.0464C31.9376 67.0464 27.9443 63.0532 27.9443 58.1274C27.9443 53.2016 31.9376 49.2085 36.8634 49.2085Z" fill="#CBCBCB"/>
<path fill-rule="evenodd" clip-rule="evenodd" d="M36.8634 27.9414C41.7892 27.9414 45.7823 31.9346 45.7823 36.8603C45.7823 41.7861 41.7892 45.7793 36.8634 45.7793C31.9376 45.7793 27.9443 41.7861 27.9443 36.8603C27.9443 31.9346 31.9376 27.9414 36.8634 27.9414Z" fill="#CBCBCB"/>
<path d="M34.1819 118.848V120.032H31.1419V130H29.6859V120.032H26.6299V118.848H34.1819ZM47.6542 121.232L44.9182 130H43.4142L41.3022 123.04L39.1902 130H37.6862L34.9342 121.232H36.4222L38.4382 128.592L40.6142 121.232H42.1022L44.2302 128.608L46.2142 121.232H47.6542ZM49.8512 119.808C49.5739 119.808 49.3392 119.712 49.1472 119.52C48.9552 119.328 48.8592 119.093 48.8592 118.816C48.8592 118.539 48.9552 118.304 49.1472 118.112C49.3392 117.92 49.5739 117.824 49.8512 117.824C50.1179 117.824 50.3419 117.92 50.5232 118.112C50.7152 118.304 50.8112 118.539 50.8112 118.816C50.8112 119.093 50.7152 119.328 50.5232 119.52C50.3419 119.712 50.1179 119.808 49.8512 119.808ZM50.5552 121.232V130H49.0992V121.232H50.5552ZM54.4927 118.16V130H53.0367V118.16H54.4927ZM57.7262 119.808C57.4489 119.808 57.2142 119.712 57.0222 119.52C56.8302 119.328 56.7342 119.093 56.7342 118.816C56.7342 118.539 56.8302 118.304 57.0222 118.112C57.2142 117.92 57.4489 117.824 57.7262 117.824C57.9929 117.824 58.2169 117.92 58.3982 118.112C58.5902 118.304 58.6862 118.539 58.6862 118.816C58.6862 119.093 58.5902 119.328 58.3982 119.52C58.2169 119.712 57.9929 119.808 57.7262 119.808ZM58.4302 121.232V130H56.9742V121.232H58.4302ZM64.7357 130.144C63.9144 130.144 63.1677 129.957 62.4957 129.584C61.8344 129.211 61.3117 128.683 60.9277 128C60.5544 127.307 60.3677 126.507 60.3677 125.6C60.3677 124.704 60.5597 123.915 60.9437 123.232C61.3384 122.539 61.8717 122.011 62.5437 121.648C63.2157 121.275 63.9677 121.088 64.7997 121.088C65.6317 121.088 66.3837 121.275 67.0557 121.648C67.7277 122.011 68.2557 122.533 68.6397 123.216C69.0344 123.899 69.2317 124.693 69.2317 125.6C69.2317 126.507 69.029 127.307 68.6237 128C68.229 128.683 67.6904 129.211 67.0077 129.584C66.325 129.957 65.5677 130.144 64.7357 130.144ZM64.7357 128.864C65.2584 128.864 65.749 128.741 66.2077 128.496C66.6664 128.251 67.0344 127.883 67.3117 127.392C67.5997 126.901 67.7437 126.304 67.7437 125.6C67.7437 124.896 67.605 124.299 67.3277 123.808C67.0504 123.317 66.6877 122.955 66.2397 122.72C65.7917 122.475 65.3064 122.352 64.7837 122.352C64.2504 122.352 63.7597 122.475 63.3117 122.72C62.8744 122.955 62.5224 123.317 62.2557 123.808C61.989 124.299 61.8557 124.896 61.8557 125.6C61.8557 126.315 61.9837 126.917 62.2397 127.408C62.5064 127.899 62.8584 128.267 63.2957 128.512C63.733 128.747 64.213 128.864 64.7357 128.864Z" fill="#AFAFAF"/>
</svg>
