<svg width="96" height="136" viewBox="0 0 96 136" fill="none" xmlns="http://www.w3.org/2000/svg">
<path d="M62.6283 9.20633L46.761 0L30.2021 10.2699L46.2907 19.1447L62.6283 9.20633ZM70.216 13.1706L53.83 23.1229L72.4018 33.8417V62.1583L47.3559 76.3718L22.6004 62.1583V40.0576L6 31.825V71.8273L46.761 96L89.0022 72.0069V24.0069L70.216 13.1706Z" fill="#CBCBCB"/>
<path d="M33.156 118.848V125.904C33.156 126.896 33.396 127.632 33.876 128.112C34.3667 128.592 35.044 128.832 35.908 128.832C36.7613 128.832 37.428 128.592 37.908 128.112C38.3987 127.632 38.644 126.896 38.644 125.904V118.848H40.1V125.888C40.1 126.816 39.9133 127.6 39.54 128.24C39.1667 128.869 38.66 129.339 38.02 129.648C37.3907 129.957 36.6813 130.112 35.892 130.112C35.1027 130.112 34.388 129.957 33.748 129.648C33.1187 129.339 32.6173 128.869 32.244 128.24C31.8813 127.6 31.7 126.816 31.7 125.888V118.848H33.156ZM43.9849 118.848V130H42.5289V118.848H43.9849ZM52.5144 130L47.9224 124.912V130H46.4664V118.848H47.9224V124.016L52.5304 118.848H54.3704L49.3144 124.432L54.4184 130H52.5144ZM56.7965 119.808C56.5192 119.808 56.2845 119.712 56.0925 119.52C55.9005 119.328 55.8045 119.093 55.8045 118.816C55.8045 118.539 55.9005 118.304 56.0925 118.112C56.2845 117.92 56.5192 117.824 56.7965 117.824C57.0632 117.824 57.2872 117.92 57.4685 118.112C57.6605 118.304 57.7565 118.539 57.7565 118.816C57.7565 119.093 57.6605 119.328 57.4685 119.52C57.2872 119.712 57.0632 119.808 56.7965 119.808ZM57.5005 121.232V130H56.0445V121.232H57.5005ZM61.758 122.432V127.6C61.758 128.027 61.8487 128.331 62.03 128.512C62.2113 128.683 62.526 128.768 62.974 128.768H64.046V130H62.734C61.9233 130 61.3153 129.813 60.91 129.44C60.5047 129.067 60.302 128.453 60.302 127.6V122.432H59.166V121.232H60.302V119.024H61.758V121.232H64.046V122.432H61.758Z" fill="#AFAFAF"/>
</svg>
