<svg width="103" height="136" viewBox="0 0 103 136" fill="none" xmlns="http://www.w3.org/2000/svg">
<path d="M94.4209 11.7874L73.965 3.5874L38.2591 38.3591L16.7574 21.9914L8.58134 26.1034L8.57324 69.0272L16.7108 73.1094L38.1951 56.7551L73.9888 91.495L94.4286 83.327L94.4209 11.7874Z" fill="#CBCBCB" stroke="white" stroke-width="3.06595"/>
<path d="M71.9274 32.2197L51.4957 47.4937L71.9355 62.8875L71.9274 32.2197ZM18.7871 38.377L18.7993 56.7484L29.0068 47.5005L18.7871 38.377Z" fill="white"/>
<path d="M10.5496 118.848L6.34156 130H4.66156L0.453563 118.848H2.00556L5.50956 128.464L9.01356 118.848H10.5496ZM12.8981 119.808C12.6207 119.808 12.3861 119.712 12.1941 119.52C12.0021 119.328 11.9061 119.093 11.9061 118.816C11.9061 118.539 12.0021 118.304 12.1941 118.112C12.3861 117.92 12.6207 117.824 12.8981 117.824C13.1647 117.824 13.3887 117.92 13.5701 118.112C13.7621 118.304 13.8581 118.539 13.8581 118.816C13.8581 119.093 13.7621 119.328 13.5701 119.52C13.3887 119.712 13.1647 119.808 12.8981 119.808ZM13.6021 121.232V130H12.1461V121.232H13.6021ZM19.1876 130.144C18.5156 130.144 17.9129 130.032 17.3796 129.808C16.8462 129.573 16.4249 129.253 16.1156 128.848C15.8062 128.432 15.6356 127.957 15.6036 127.424H17.1076C17.1502 127.861 17.3529 128.219 17.7156 128.496C18.0889 128.773 18.5742 128.912 19.1716 128.912C19.7262 128.912 20.1636 128.789 20.4836 128.544C20.8036 128.299 20.9636 127.989 20.9636 127.616C20.9636 127.232 20.7929 126.949 20.4516 126.768C20.1102 126.576 19.5822 126.389 18.8676 126.208C18.2169 126.037 17.6836 125.867 17.2676 125.696C16.8622 125.515 16.5102 125.253 16.2116 124.912C15.9236 124.56 15.7796 124.101 15.7796 123.536C15.7796 123.088 15.9129 122.677 16.1796 122.304C16.4462 121.931 16.8249 121.637 17.3156 121.424C17.8062 121.2 18.3662 121.088 18.9956 121.088C19.9662 121.088 20.7502 121.333 21.3476 121.824C21.9449 122.315 22.2649 122.987 22.3076 123.84H20.8516C20.8196 123.381 20.6329 123.013 20.2916 122.736C19.9609 122.459 19.5129 122.32 18.9476 122.32C18.4249 122.32 18.0089 122.432 17.6996 122.656C17.3902 122.88 17.2356 123.173 17.2356 123.536C17.2356 123.824 17.3262 124.064 17.5076 124.256C17.6996 124.437 17.9342 124.587 18.2116 124.704C18.4996 124.811 18.8942 124.933 19.3956 125.072C20.0249 125.243 20.5369 125.413 20.9316 125.584C21.3262 125.744 21.6622 125.989 21.9396 126.32C22.2276 126.651 22.3769 127.083 22.3876 127.616C22.3876 128.096 22.2542 128.528 21.9876 128.912C21.7209 129.296 21.3422 129.6 20.8516 129.824C20.3716 130.037 19.8169 130.144 19.1876 130.144ZM32.2189 121.232V130H30.7629V128.704C30.4856 129.152 30.0963 129.504 29.5949 129.76C29.1043 130.005 28.5603 130.128 27.9629 130.128C27.2803 130.128 26.6669 129.989 26.1229 129.712C25.5789 129.424 25.1469 128.997 24.8269 128.432C24.5176 127.867 24.3629 127.179 24.3629 126.368V121.232H25.8029V126.176C25.8029 127.04 26.0216 127.707 26.4589 128.176C26.8963 128.635 27.4936 128.864 28.2509 128.864C29.0296 128.864 29.6429 128.624 30.0909 128.144C30.5389 127.664 30.7629 126.965 30.7629 126.048V121.232H32.2189ZM34.1333 125.584C34.1333 124.688 34.3146 123.904 34.6773 123.232C35.04 122.549 35.536 122.021 36.1653 121.648C36.8053 121.275 37.5146 121.088 38.2933 121.088C39.0613 121.088 39.728 121.253 40.2933 121.584C40.8586 121.915 41.28 122.331 41.5573 122.832V121.232H43.0293V130H41.5573V128.368C41.2693 128.88 40.8373 129.307 40.2613 129.648C39.696 129.979 39.0346 130.144 38.2773 130.144C37.4986 130.144 36.7946 129.952 36.1653 129.568C35.536 129.184 35.04 128.645 34.6773 127.952C34.3146 127.259 34.1333 126.469 34.1333 125.584ZM41.5573 125.6C41.5573 124.939 41.424 124.363 41.1573 123.872C40.8906 123.381 40.528 123.008 40.0693 122.752C39.6213 122.485 39.1253 122.352 38.5813 122.352C38.0373 122.352 37.5413 122.48 37.0933 122.736C36.6453 122.992 36.288 123.365 36.0213 123.856C35.7546 124.347 35.6213 124.923 35.6213 125.584C35.6213 126.256 35.7546 126.843 36.0213 127.344C36.288 127.835 36.6453 128.213 37.0933 128.48C37.5413 128.736 38.0373 128.864 38.5813 128.864C39.1253 128.864 39.6213 128.736 40.0693 128.48C40.528 128.213 40.8906 127.835 41.1573 127.344C41.424 126.843 41.5573 126.261 41.5573 125.6ZM46.9458 118.16V130H45.4898V118.16H46.9458ZM57.2289 130.112C56.4929 130.112 55.8316 129.984 55.2449 129.728C54.6689 129.461 54.2156 129.099 53.8849 128.64C53.5543 128.171 53.3836 127.632 53.3729 127.024H54.9249C54.9783 127.547 55.1916 127.989 55.5649 128.352C55.9489 128.704 56.5036 128.88 57.2289 128.88C57.9223 128.88 58.4663 128.709 58.8609 128.368C59.2663 128.016 59.4689 127.568 59.4689 127.024C59.4689 126.597 59.3516 126.251 59.1169 125.984C58.8823 125.717 58.5889 125.515 58.2369 125.376C57.8849 125.237 57.4103 125.088 56.8129 124.928C56.0769 124.736 55.4849 124.544 55.0369 124.352C54.5996 124.16 54.2209 123.861 53.9009 123.456C53.5916 123.04 53.4369 122.485 53.4369 121.792C53.4369 121.184 53.5916 120.645 53.9009 120.176C54.2103 119.707 54.6423 119.344 55.1969 119.088C55.7623 118.832 56.4076 118.704 57.1329 118.704C58.1783 118.704 59.0316 118.965 59.6929 119.488C60.3649 120.011 60.7436 120.704 60.8289 121.568H59.2289C59.1756 121.141 58.9516 120.768 58.5569 120.448C58.1623 120.117 57.6396 119.952 56.9889 119.952C56.3809 119.952 55.8849 120.112 55.5009 120.432C55.1169 120.741 54.9249 121.179 54.9249 121.744C54.9249 122.149 55.0369 122.48 55.2609 122.736C55.4956 122.992 55.7783 123.189 56.1089 123.328C56.4503 123.456 56.9249 123.605 57.5329 123.776C58.2689 123.979 58.8609 124.181 59.3089 124.384C59.7569 124.576 60.1409 124.88 60.4609 125.296C60.7809 125.701 60.9409 126.256 60.9409 126.96C60.9409 127.504 60.7969 128.016 60.5089 128.496C60.2209 128.976 59.7943 129.365 59.2289 129.664C58.6636 129.963 57.9969 130.112 57.2289 130.112ZM64.8596 122.432V127.6C64.8596 128.027 64.9502 128.331 65.1316 128.512C65.3129 128.683 65.6276 128.768 66.0756 128.768H67.1476V130H65.8356C65.0249 130 64.4169 129.813 64.0116 129.44C63.6062 129.067 63.4036 128.453 63.4036 127.6V122.432H62.2676V121.232H63.4036V119.024H64.8596V121.232H67.1476V122.432H64.8596ZM76.6877 121.232V130H75.2317V128.704C74.9544 129.152 74.565 129.504 74.0637 129.76C73.573 130.005 73.029 130.128 72.4317 130.128C71.749 130.128 71.1357 129.989 70.5917 129.712C70.0477 129.424 69.6157 128.997 69.2957 128.432C68.9864 127.867 68.8317 127.179 68.8317 126.368V121.232H70.2717V126.176C70.2717 127.04 70.4904 127.707 70.9277 128.176C71.365 128.635 71.9624 128.864 72.7197 128.864C73.4984 128.864 74.1117 128.624 74.5597 128.144C75.0077 127.664 75.2317 126.965 75.2317 126.048V121.232H76.6877ZM78.6021 125.584C78.6021 124.688 78.7834 123.904 79.1461 123.232C79.5087 122.549 80.0047 122.021 80.6341 121.648C81.2741 121.275 81.9887 121.088 82.7781 121.088C83.4607 121.088 84.0954 121.248 84.6821 121.568C85.2687 121.877 85.7167 122.288 86.0261 122.8V118.16H87.4981V130H86.0261V128.352C85.7381 128.875 85.3114 129.307 84.7461 129.648C84.1807 129.979 83.5194 130.144 82.7621 130.144C81.9834 130.144 81.2741 129.952 80.6341 129.568C80.0047 129.184 79.5087 128.645 79.1461 127.952C78.7834 127.259 78.6021 126.469 78.6021 125.584ZM86.0261 125.6C86.0261 124.939 85.8927 124.363 85.6261 123.872C85.3594 123.381 84.9967 123.008 84.5381 122.752C84.0901 122.485 83.5941 122.352 83.0501 122.352C82.5061 122.352 82.0101 122.48 81.5621 122.736C81.1141 122.992 80.7567 123.365 80.4901 123.856C80.2234 124.347 80.0901 124.923 80.0901 125.584C80.0901 126.256 80.2234 126.843 80.4901 127.344C80.7567 127.835 81.1141 128.213 81.5621 128.48C82.0101 128.736 82.5061 128.864 83.0501 128.864C83.5941 128.864 84.0901 128.736 84.5381 128.48C84.9967 128.213 85.3594 127.835 85.6261 127.344C85.8927 126.843 86.0261 126.261 86.0261 125.6ZM90.7106 119.808C90.4332 119.808 90.1986 119.712 90.0066 119.52C89.8146 119.328 89.7186 119.093 89.7186 118.816C89.7186 118.539 89.8146 118.304 90.0066 118.112C90.1986 117.92 90.4332 117.824 90.7106 117.824C90.9772 117.824 91.2012 117.92 91.3826 118.112C91.5746 118.304 91.6706 118.539 91.6706 118.816C91.6706 119.093 91.5746 119.328 91.3826 119.52C91.2012 119.712 90.9772 119.808 90.7106 119.808ZM91.4146 121.232V130H89.9586V121.232H91.4146ZM97.7201 130.144C96.8987 130.144 96.1521 129.957 95.4801 129.584C94.8187 129.211 94.2961 128.683 93.9121 128C93.5387 127.307 93.3521 126.507 93.3521 125.6C93.3521 124.704 93.5441 123.915 93.9281 123.232C94.3227 122.539 94.8561 122.011 95.5281 121.648C96.2001 121.275 96.9521 121.088 97.7841 121.088C98.6161 121.088 99.3681 121.275 100.04 121.648C100.712 122.011 101.24 122.533 101.624 123.216C102.019 123.899 102.216 124.693 102.216 125.6C102.216 126.507 102.013 127.307 101.608 128C101.213 128.683 100.675 129.211 99.9921 129.584C99.3094 129.957 98.5521 130.144 97.7201 130.144ZM97.7201 128.864C98.2427 128.864 98.7334 128.741 99.1921 128.496C99.6507 128.251 100.019 127.883 100.296 127.392C100.584 126.901 100.728 126.304 100.728 125.6C100.728 124.896 100.589 124.299 100.312 123.808C100.035 123.317 99.6721 122.955 99.2241 122.72C98.7761 122.475 98.2907 122.352 97.7681 122.352C97.2347 122.352 96.7441 122.475 96.2961 122.72C95.8587 122.955 95.5067 123.317 95.2401 123.808C94.9734 124.299 94.8401 124.896 94.8401 125.6C94.8401 126.315 94.9681 126.917 95.2241 127.408C95.4907 127.899 95.8427 128.267 96.2801 128.512C96.7174 128.747 97.1974 128.864 97.7201 128.864Z" fill="#AFAFAF"/>
</svg>
