<svg width="96" height="136" viewBox="0 0 96 136" fill="none" xmlns="http://www.w3.org/2000/svg">
<path d="M59.8541 8.59272L49 27.3927L38.1459 8.59272H2L49 90L96 8.59272H59.8541Z" fill="#E2E2E2"/>
<path d="M59.853 8.59262L48.9988 27.3926L38.1447 8.59262H20.7988L48.9988 57.436L77.1988 8.59262H59.853Z" fill="#CBCBCB"/>
<path d="M31.8933 118.848L27.6853 130H26.0053L21.7973 118.848H23.3493L26.8533 128.464L30.3573 118.848H31.8933ZM41.2658 121.232V130H39.8098V128.704C39.5325 129.152 39.1431 129.504 38.6418 129.76C38.1511 130.005 37.6071 130.128 37.0098 130.128C36.3271 130.128 35.7138 129.989 35.1698 129.712C34.6258 129.424 34.1938 128.997 33.8738 128.432C33.5645 127.867 33.4098 127.179 33.4098 126.368V121.232H34.8498V126.176C34.8498 127.04 35.0685 127.707 35.5058 128.176C35.9431 128.635 36.5405 128.864 37.2978 128.864C38.0765 128.864 38.6898 128.624 39.1378 128.144C39.5858 127.664 39.8098 126.965 39.8098 126.048V121.232H41.2658ZM51.7242 125.28C51.7242 125.557 51.7082 125.851 51.6762 126.16H44.6682C44.7215 127.024 45.0149 127.701 45.5482 128.192C46.0922 128.672 46.7482 128.912 47.5162 128.912C48.1455 128.912 48.6682 128.768 49.0842 128.48C49.5109 128.181 49.8095 127.787 49.9802 127.296H51.5482C51.3135 128.139 50.8442 128.827 50.1402 129.36C49.4362 129.883 48.5615 130.144 47.5162 130.144C46.6842 130.144 45.9375 129.957 45.2762 129.584C44.6255 129.211 44.1135 128.683 43.7402 128C43.3669 127.307 43.1802 126.507 43.1802 125.6C43.1802 124.693 43.3615 123.899 43.7242 123.216C44.0869 122.533 44.5935 122.011 45.2442 121.648C45.9055 121.275 46.6629 121.088 47.5162 121.088C48.3482 121.088 49.0842 121.269 49.7242 121.632C50.3642 121.995 50.8549 122.496 51.1962 123.136C51.5482 123.765 51.7242 124.48 51.7242 125.28ZM50.2202 124.976C50.2202 124.421 50.0975 123.947 49.8522 123.552C49.6069 123.147 49.2709 122.843 48.8442 122.64C48.4282 122.427 47.9642 122.32 47.4522 122.32C46.7162 122.32 46.0869 122.555 45.5642 123.024C45.0522 123.493 44.7589 124.144 44.6842 124.976H50.2202ZM63.5277 118.848V127.088C63.5277 128.005 63.245 128.741 62.6797 129.296C62.1144 129.84 61.3677 130.112 60.4397 130.112C59.501 130.112 58.749 129.835 58.1837 129.28C57.6184 128.715 57.3357 127.947 57.3357 126.976H58.7917C58.8024 127.52 58.941 127.963 59.2077 128.304C59.485 128.645 59.8957 128.816 60.4397 128.816C60.9837 128.816 61.389 128.656 61.6557 128.336C61.9224 128.005 62.0557 127.589 62.0557 127.088V118.848H63.5277ZM69.9321 130.112C69.1961 130.112 68.5347 129.984 67.9481 129.728C67.3721 129.461 66.9187 129.099 66.5881 128.64C66.2574 128.171 66.0867 127.632 66.0761 127.024H67.6281C67.6814 127.547 67.8947 127.989 68.2681 128.352C68.6521 128.704 69.2067 128.88 69.9321 128.88C70.6254 128.88 71.1694 128.709 71.5641 128.368C71.9694 128.016 72.1721 127.568 72.1721 127.024C72.1721 126.597 72.0547 126.251 71.8201 125.984C71.5854 125.717 71.2921 125.515 70.9401 125.376C70.5881 125.237 70.1134 125.088 69.5161 124.928C68.7801 124.736 68.1881 124.544 67.7401 124.352C67.3027 124.16 66.9241 123.861 66.6041 123.456C66.2947 123.04 66.1401 122.485 66.1401 121.792C66.1401 121.184 66.2947 120.645 66.6041 120.176C66.9134 119.707 67.3454 119.344 67.9001 119.088C68.4654 118.832 69.1107 118.704 69.8361 118.704C70.8814 118.704 71.7347 118.965 72.3961 119.488C73.0681 120.011 73.4467 120.704 73.5321 121.568H71.9321C71.8787 121.141 71.6547 120.768 71.2601 120.448C70.8654 120.117 70.3427 119.952 69.6921 119.952C69.0841 119.952 68.5881 120.112 68.2041 120.432C67.8201 120.741 67.6281 121.179 67.6281 121.744C67.6281 122.149 67.7401 122.48 67.9641 122.736C68.1987 122.992 68.4814 123.189 68.8121 123.328C69.1534 123.456 69.6281 123.605 70.2361 123.776C70.9721 123.979 71.5641 124.181 72.0121 124.384C72.4601 124.576 72.8441 124.88 73.1641 125.296C73.4841 125.701 73.6441 126.256 73.6441 126.96C73.6441 127.504 73.5001 128.016 73.2121 128.496C72.9241 128.976 72.4974 129.365 71.9321 129.664C71.3667 129.963 70.7001 130.112 69.9321 130.112Z" fill="#AFAFAF"/>
</svg>
