<svg width="48" height="48" viewBox="0 0 48 48" fill="none" xmlns="http://www.w3.org/2000/svg">
<g clip-path="url(#clip0_217_1058)">
<path d="M26.6391 35.9281C26.6391 41.7539 21.8042 46.4771 15.8395 46.4771C9.874 46.4771 5.03906 41.7539 5.03906 35.9281C5.03906 30.1023 9.874 25.3791 15.8395 25.3791C21.8042 25.3791 26.6391 30.1023 26.6391 35.9281" fill="#CBCBCB"/>
<path d="M48.0004 21.1595C48.0004 26.9846 43.1655 31.7085 37.2008 31.7085C31.2353 31.7085 26.4004 26.9846 26.4004 21.1595C26.4004 15.3337 31.2353 10.6098 37.2008 10.6098C43.1655 10.6098 48.0004 15.3337 48.0004 21.1595" fill="#CBCBCB"/>
<path d="M21.6 20.9266C21.6 26.7517 16.7651 31.4756 10.7996 31.4756C4.83572 31.4756 0 26.7517 0 20.9266C0 15.1008 4.83572 10.3769 10.7996 10.3769C16.7651 10.3769 21.6 15.1008 21.6 20.9266" fill="#CBCBCB"/>
<path d="M43.1995 35.9281C43.1995 41.7539 38.3646 46.4771 32.3983 46.4771C26.4344 46.4771 21.5986 41.7539 21.5986 35.9281C21.5986 30.1023 26.4344 25.3791 32.3983 25.3791C38.3646 25.3791 43.1995 30.1023 43.1995 35.9281" fill="#CBCBCB"/>
<path d="M34.8001 11.5487C34.8001 17.3745 29.9643 22.0977 23.9996 22.0977C18.0349 22.0977 13.1992 17.3745 13.1992 11.5487C13.1992 5.72289 18.0349 0.999755 23.9996 0.999755C29.9643 0.999755 34.8001 5.72289 34.8001 11.5487Z" fill="#CBCBCB"/>
<path d="M26.4014 21.1603C26.4014 21.3822 26.4212 21.5995 26.4354 21.8184C31.226 20.7389 34.8013 16.5555 34.8013 11.5486C34.8013 11.3266 34.7815 11.1086 34.7673 10.8897C29.9767 11.97 26.4014 16.1534 26.4014 21.1603Z" fill="#AFAFAF"/>
<path d="M27.8223 26.383C29.6836 29.5611 33.1813 31.7085 37.1984 31.7085C38.8357 31.7085 40.3818 31.342 41.7729 30.7048C39.9124 27.5267 36.4146 25.3793 32.3967 25.3793C30.7595 25.3793 29.2133 25.7458 27.8223 26.383" fill="#AFAFAF"/>
<path d="M21.5986 35.9286C21.5986 38.5059 22.5471 40.8644 24.1194 42.6963C25.6902 40.8644 26.6386 38.5059 26.6386 35.9286C26.6386 33.3513 25.6902 30.9928 24.1194 29.161C22.5471 30.9928 21.5986 33.3513 21.5986 35.9286" fill="#AFAFAF"/>
<path d="M6.52246 30.6114C7.83431 31.165 9.27838 31.4751 10.7985 31.4751C14.776 31.4751 18.2413 29.3695 20.116 26.2432C18.8042 25.6895 17.3593 25.3802 15.84 25.3802C11.8625 25.3802 8.39642 27.4858 6.52246 30.6114" fill="#AFAFAF"/>
<path d="M13.2459 10.6582C13.2206 10.952 13.1992 11.2474 13.1992 11.5482C13.1992 16.5513 16.769 20.7308 21.5541 21.8149C21.5786 21.5211 21.6 21.2257 21.6 20.9257C21.6 15.9226 18.031 11.7416 13.2459 10.6582" fill="#AFAFAF"/>
<path d="M14.2572 34.622H12.5677C11.0762 34.622 9.86328 33.4412 9.86328 31.9883V17.0518C9.86328 15.5988 11.0762 14.4172 12.5677 14.4172H33.753C35.2445 14.4172 36.4566 15.5988 36.4566 17.0518V31.9883C36.4566 33.4412 35.2445 34.622 33.753 34.622H26.5358L12.0555 41.5552L14.2572 34.622V34.622Z" fill="white"/>
</g>
<defs>
<clipPath id="clip0_217_1058">
<rect width="48" height="48" fill="white"/>
</clipPath>
</defs>
</svg>
