<svg width="96" height="136" viewBox="0 0 96 136" fill="none" xmlns="http://www.w3.org/2000/svg">
<g clip-path="url(#clip0_217_1070)">
<path d="M53.2783 71.8562C53.2783 83.5078 43.6084 92.9541 31.679 92.9541C19.748 92.9541 10.0781 83.5078 10.0781 71.8562C10.0781 60.2046 19.748 50.7583 31.679 50.7583C43.6084 50.7583 53.2783 60.2046 53.2783 71.8562Z" fill="#CBCBCB"/>
<path d="M96.0009 42.3191C96.0009 53.9692 86.331 63.417 74.4016 63.417C62.4707 63.417 52.8008 53.9692 52.8008 42.3191C52.8008 30.6675 62.4707 21.2196 74.4016 21.2196C86.331 21.2196 96.0009 30.6675 96.0009 42.3191Z" fill="#CBCBCB"/>
<path d="M43.2 41.8533C43.2 53.5034 33.5302 62.9512 21.5992 62.9512C9.67144 62.9512 0 53.5034 0 41.8533C0 30.2016 9.67144 20.7538 21.5992 20.7538C33.5302 20.7538 43.2 30.2016 43.2 41.8533Z" fill="#CBCBCB"/>
<path d="M86.399 71.8562C86.399 83.5078 76.7291 92.9541 64.7965 92.9541C52.8687 92.9541 43.1973 83.5078 43.1973 71.8562C43.1973 60.2046 52.8687 50.7583 64.7965 50.7583C76.7291 50.7583 86.399 60.2046 86.399 71.8562Z" fill="#CBCBCB"/>
<path d="M69.6001 23.0974C69.6001 34.749 59.9287 44.1953 47.9993 44.1953C36.0699 44.1953 26.3984 34.749 26.3984 23.0974C26.3984 11.4458 36.0699 1.99951 47.9993 1.99951C59.9287 1.99951 69.6001 11.4458 69.6001 23.0974Z" fill="#CBCBCB"/>
<path d="M52.8027 42.3206C52.8027 42.7645 52.8423 43.199 52.8708 43.6367C62.452 41.4777 69.6027 33.111 69.6027 23.0971C69.6027 22.6533 69.5631 22.2171 69.5346 21.7795C59.9534 23.94 52.8027 32.3068 52.8027 42.3206Z" fill="#AFAFAF"/>
<path d="M55.6445 52.766C59.3671 59.1222 66.3626 63.417 74.3968 63.417C77.6713 63.417 80.7637 62.6839 83.5457 61.4096C79.8247 55.0533 72.8292 50.7586 64.7935 50.7586C61.519 50.7586 58.4266 51.4916 55.6445 52.766" fill="#AFAFAF"/>
<path d="M43.1973 71.8573C43.1973 77.0119 45.0942 81.7288 48.2388 85.3926C51.3803 81.7288 53.2772 77.0119 53.2772 71.8573C53.2772 66.7026 51.3803 61.9857 48.2388 58.3219C45.0942 61.9857 43.1973 66.7026 43.1973 71.8573" fill="#AFAFAF"/>
<path d="M13.0449 61.2227C15.6686 62.33 18.5568 62.9502 21.5969 62.9502C29.5519 62.9502 36.4825 58.739 40.232 52.4863C37.6083 51.379 34.7186 50.7604 31.68 50.7604C23.725 50.7604 16.7928 54.9716 13.0449 61.2227" fill="#AFAFAF"/>
<path d="M26.4919 21.3164C26.4412 21.9041 26.3984 22.4949 26.3984 23.0965C26.3984 33.1026 33.538 41.4616 43.1081 43.6299C43.1572 43.0422 43.2 42.4514 43.2 41.8514C43.2 31.8452 36.062 23.4831 26.4919 21.3164Z" fill="#AFAFAF"/>
<path d="M28.5145 69.2441H25.1355C22.1523 69.2441 19.7266 66.8825 19.7266 63.9765V34.1036C19.7266 31.1976 22.1523 28.8345 25.1355 28.8345H67.5059C70.489 28.8345 72.9132 31.1976 72.9132 34.1036V63.9765C72.9132 66.8825 70.489 69.2441 67.5059 69.2441H53.0716L24.111 83.1104L28.5145 69.2441Z" fill="white"/>
</g>
<path d="M29.7011 118.848L26.4691 130H24.8371L22.2451 121.024L19.5571 130L17.9411 130.016L14.8211 118.848H16.3731L18.8051 128.304L21.4931 118.848H23.1251L25.6851 128.272L28.1331 118.848H29.7011ZM39.2945 125.28C39.2945 125.557 39.2785 125.851 39.2465 126.16H32.2385C32.2918 127.024 32.5852 127.701 33.1185 128.192C33.6625 128.672 34.3185 128.912 35.0865 128.912C35.7158 128.912 36.2385 128.768 36.6545 128.48C37.0812 128.181 37.3798 127.787 37.5505 127.296H39.1185C38.8838 128.139 38.4145 128.827 37.7105 129.36C37.0065 129.883 36.1318 130.144 35.0865 130.144C34.2545 130.144 33.5078 129.957 32.8465 129.584C32.1958 129.211 31.6838 128.683 31.3105 128C30.9372 127.307 30.7505 126.507 30.7505 125.6C30.7505 124.693 30.9318 123.899 31.2945 123.216C31.6572 122.533 32.1638 122.011 32.8145 121.648C33.4758 121.275 34.2332 121.088 35.0865 121.088C35.9185 121.088 36.6545 121.269 37.2945 121.632C37.9345 121.995 38.4252 122.496 38.7665 123.136C39.1185 123.765 39.2945 124.48 39.2945 125.28ZM37.7905 124.976C37.7905 124.421 37.6678 123.947 37.4225 123.552C37.1772 123.147 36.8412 122.843 36.4145 122.64C35.9985 122.427 35.5345 122.32 35.0225 122.32C34.2865 122.32 33.6572 122.555 33.1345 123.024C32.6225 123.493 32.3292 124.144 32.2545 124.976H37.7905ZM42.6724 122.864C42.971 122.341 43.4084 121.915 43.9844 121.584C44.5604 121.253 45.2164 121.088 45.9524 121.088C46.7417 121.088 47.451 121.275 48.0804 121.648C48.7097 122.021 49.2057 122.549 49.5684 123.232C49.931 123.904 50.1124 124.688 50.1124 125.584C50.1124 126.469 49.931 127.259 49.5684 127.952C49.2057 128.645 48.7044 129.184 48.0644 129.568C47.435 129.952 46.731 130.144 45.9524 130.144C45.195 130.144 44.5284 129.979 43.9524 129.648C43.387 129.317 42.9604 128.896 42.6724 128.384V130H41.2164V118.16H42.6724V122.864ZM48.6244 125.584C48.6244 124.923 48.491 124.347 48.2244 123.856C47.9577 123.365 47.595 122.992 47.1364 122.736C46.6884 122.48 46.1924 122.352 45.6484 122.352C45.115 122.352 44.619 122.485 44.1604 122.752C43.7124 123.008 43.3497 123.387 43.0724 123.888C42.8057 124.379 42.6724 124.949 42.6724 125.6C42.6724 126.261 42.8057 126.843 43.0724 127.344C43.3497 127.835 43.7124 128.213 44.1604 128.48C44.619 128.736 45.115 128.864 45.6484 128.864C46.1924 128.864 46.6884 128.736 47.1364 128.48C47.595 128.213 47.9577 127.835 48.2244 127.344C48.491 126.843 48.6244 126.256 48.6244 125.584ZM57.9009 130L55.2449 125.44H53.4849V130H52.0289V118.848H55.6289C56.4715 118.848 57.1809 118.992 57.7569 119.28C58.3435 119.568 58.7809 119.957 59.0689 120.448C59.3569 120.939 59.5009 121.499 59.5009 122.128C59.5009 122.896 59.2769 123.573 58.8289 124.16C58.3915 124.747 57.7302 125.136 56.8449 125.328L59.6449 130H57.9009ZM53.4849 124.272H55.6289C56.4182 124.272 57.0102 124.08 57.4049 123.696C57.7995 123.301 57.9969 122.779 57.9969 122.128C57.9969 121.467 57.7995 120.955 57.4049 120.592C57.0209 120.229 56.4289 120.048 55.6289 120.048H53.4849V124.272ZM68.6273 118.848V120.032H65.5873V130H64.1313V120.032H61.0753V118.848H68.6273ZM69.8755 124.416C69.8755 123.328 70.1208 122.352 70.6115 121.488C71.1022 120.613 71.7688 119.931 72.6115 119.44C73.4648 118.949 74.4088 118.704 75.4435 118.704C76.6595 118.704 77.7208 118.997 78.6275 119.584C79.5342 120.171 80.1955 121.003 80.6115 122.08H78.8675C78.5582 121.408 78.1102 120.891 77.5235 120.528C76.9475 120.165 76.2542 119.984 75.4435 119.984C74.6648 119.984 73.9662 120.165 73.3475 120.528C72.7288 120.891 72.2435 121.408 71.8915 122.08C71.5395 122.741 71.3635 123.52 71.3635 124.416C71.3635 125.301 71.5395 126.08 71.8915 126.752C72.2435 127.413 72.7288 127.925 73.3475 128.288C73.9662 128.651 74.6648 128.832 75.4435 128.832C76.2542 128.832 76.9475 128.656 77.5235 128.304C78.1102 127.941 78.5582 127.424 78.8675 126.752H80.6115C80.1955 127.819 79.5342 128.645 78.6275 129.232C77.7208 129.808 76.6595 130.096 75.4435 130.096C74.4088 130.096 73.4648 129.856 72.6115 129.376C71.7688 128.885 71.1022 128.208 70.6115 127.344C70.1208 126.48 69.8755 125.504 69.8755 124.416Z" fill="#AFAFAF"/>
<defs>
<clipPath id="clip0_217_1070">
<rect width="96" height="96" fill="white"/>
</clipPath>
</defs>
</svg>
