<svg width="48" height="48" viewBox="0 0 48 48" fill="none" xmlns="http://www.w3.org/2000/svg">
<path d="M14.6274 3.16406C13.3665 3.1668 12.1322 3.88427 11.4976 4.97866L1.62499 22.1679C1 23.2652 1 24.6996 1.62499 25.7969L11.4976 42.9863C12.1322 44.0806 13.3665 44.7983 14.6274 44.8009H34.3726C35.6335 44.7981 36.8678 44.0806 37.5024 42.9863L47.375 25.7969C48 24.6996 47.9998 23.2652 47.375 22.1679L37.5024 4.97866C36.8678 3.88409 35.6335 3.16662 34.3726 3.16406L14.6274 3.16406ZM14.8067 13.2201C14.8339 13.2174 14.8623 13.2174 14.8895 13.2201H18.2951C18.3708 13.2226 18.4446 13.2442 18.5097 13.2829C18.5749 13.3216 18.6291 13.3762 18.6675 13.4416L24.4449 23.7607C24.4741 23.8119 24.4927 23.8686 24.4996 23.9271C24.5069 23.8686 24.5255 23.8119 24.5547 23.7607L30.3182 13.4416C30.358 13.3744 30.4144 13.3186 30.4821 13.2798C30.5498 13.2409 30.6263 13.2204 30.7043 13.2201H34.1101C34.4116 13.2227 34.6376 13.6034 34.4962 13.871L28.8567 23.9825L34.4962 34.08C34.6509 34.3491 34.4196 34.7474 34.1101 34.7448H30.7043C30.625 34.7431 30.5475 34.7205 30.4797 34.6791C30.4119 34.6378 30.3562 34.5792 30.3182 34.5094L24.5547 24.1901C24.5255 24.1391 24.5069 24.0823 24.4998 24.024C24.4927 24.0825 24.4741 24.139 24.4449 24.1903L18.6674 34.5094C18.6306 34.5772 18.5771 34.6345 18.512 34.6758C18.4469 34.717 18.3723 34.7408 18.2953 34.7448H14.8893C14.5798 34.7476 14.3486 34.3491 14.5032 34.08L20.1428 23.9825L14.5032 13.871C14.3681 13.6268 14.533 13.2722 14.8065 13.2201H14.8067Z" fill="#CBCBCB"/>
</svg>
