<svg width="48" height="48" viewBox="0 0 48 48" fill="none" xmlns="http://www.w3.org/2000/svg">
<path d="M34.8816 20.2969L35.1202 19.5019C35.9152 16.6413 36.723 13.7807 37.8227 11.0114C38.3129 9.76648 39.1474 9.07073 40.4462 8.91835C41.3072 8.82492 42.2215 8.74585 42.8037 9.56738C43.1875 10.0849 43.6252 10.3889 44.2412 10.5018C44.5323 10.5413 44.8162 10.6211 45.1022 10.7267C45.486 10.8726 45.6319 10.7138 45.7383 10.3559L46.7589 6.88573C47.1428 5.57473 47.1428 5.58767 45.8713 5.13701C45.3416 4.95157 44.865 4.87107 44.308 5.11042C43.4074 5.48129 42.5859 5.33539 41.8643 4.60729C41.0952 3.83823 40.2219 3.2431 39.1761 2.87223C36.1696 1.82573 33.0833 1.36285 29.9172 1.86598C28.3934 2.1046 26.9107 2.51501 25.6263 3.42926C25.4408 3.56151 25.2956 3.72035 25.1231 3.87992C26.8718 3.73401 28.5537 3.70742 30.2363 3.9331C31.3755 4.07901 32.3954 4.46282 33.1501 5.42954C33.9451 6.45017 34.1305 7.65479 34.2283 8.87379C34.3742 10.5823 34.0558 12.2253 33.5792 13.8547L32.1087 19.047C32.0425 19.2719 31.9893 19.4782 32.2941 19.5501L34.8773 20.3048L34.8816 20.2969ZM26.7346 46.3386C27.5683 46.4048 28.2439 46.0209 28.6752 45.2792C28.9302 44.8356 29.1218 44.3585 29.2444 43.8618L33.0323 28.073L34.5689 21.5166C34.6746 21.0854 34.5689 20.92 34.1593 20.828L32.4903 20.3644C31.4697 20.0597 31.6688 20.0985 31.3648 20.9394L23.8344 42.3582C23.7288 42.6493 23.636 42.9677 23.6224 43.2724C23.5505 45.0736 24.8155 46.3322 26.7346 46.3458V46.3386ZM1.03782 14.5613L1.19594 15.7271L2.3481 23.3566L3.47366 31.0472L4.63947 38.7831L5.36829 43.685C5.42147 44.03 5.54079 44.1881 5.94329 44.122L13.1753 42.9699L23.4937 41.367C23.626 41.3404 23.7323 41.1816 23.8517 41.0759C23.7058 41.0041 23.534 40.851 23.401 40.8639L17.7718 41.712L6.37957 43.5003C5.9821 43.5664 5.84985 43.4737 5.80457 43.0906L5.0966 38.1427L3.4406 27.189L1.6466 15.2369C1.58047 14.7999 1.71847 14.6008 2.1641 14.5483L4.45547 14.1904L13.8337 12.6666L29.6491 10.0705L33.2119 9.46101C33.3578 9.43442 33.4635 9.22238 33.5828 9.10307L33.1063 8.91763C33.0668 8.9047 33.0128 8.93057 32.9604 8.94423L28.5228 9.68598L1.42163 14.1372C1.09101 14.1904 0.918506 14.2831 1.03782 14.5684V14.5613ZM38.7887 10.1639C38.7168 10.1639 38.6306 10.1639 38.5501 10.151C38.5106 10.4816 38.392 10.8266 38.4308 11.1573L38.9605 14.3758L40.398 23.0123L42.7699 37.1588C42.8231 37.4369 42.7699 37.6353 42.4249 37.6885L34.781 38.8809L31.1657 39.4774C31.06 39.4904 30.9673 39.6629 30.8746 39.7685C31.0068 39.8347 31.1261 39.954 31.2454 39.954C31.6293 39.9274 32.0001 39.8605 32.371 39.8081L43.4182 38.0328L38.7823 10.1632L38.7887 10.1639ZM28.7348 26.8533C29.0396 26.5486 28.9864 26.3236 28.7744 26.072L26.2976 23.0914L19.33 14.6806C19.1446 14.4556 18.985 14.1509 18.9325 13.859C18.8391 13.2898 19.2236 12.7809 19.7807 12.548C20.3772 12.3231 20.8933 12.4819 21.3964 13.0778L28.2447 21.2715L29.9136 23.2452C30.2047 22.9404 30.1652 22.7155 29.9531 22.4639L27.2111 19.1843L21.6875 12.6149C20.9458 11.7538 19.8188 11.7006 18.9994 12.4165C18.1915 13.1187 18.1513 14.1128 18.9059 15.0126L27.4893 25.3713L28.7341 26.8548L28.7348 26.8533ZM19.5952 21.2686C19.5018 21.2025 19.3968 21.1105 19.2775 21.0566L16.5355 20.0504C16.2444 19.9447 16.1043 20.0504 16.0058 20.3019L10.999 32.6069C10.8667 32.9117 10.9594 33.0576 11.2376 33.1632L13.8071 34.2227C14.2707 34.4347 14.4562 34.3283 14.6287 33.8647L19.588 21.2679L19.5952 21.2686ZM28.3244 26.959L26.5491 24.6949C26.0985 23.9999 25.5953 23.6405 24.7616 23.9999C24.5632 24.0718 24.3303 24.0718 24.1255 24.1055L18.8068 25.0198C18.5286 25.073 18.2893 25.1391 18.1707 25.4704L17.0976 28.3979C17.058 28.5036 17.058 28.6365 17.0314 28.8292L28.3173 26.9748L28.3244 26.959ZM13.4355 25.7802L7.06454 26.8131L7.47422 29.701C7.52741 30.1107 7.69919 30.1646 8.07079 30.1107L11.3555 29.66C11.6861 29.6205 11.8988 29.4875 12.0311 29.1835L13.263 26.3229C13.3292 26.1648 13.3565 26.0318 13.4355 25.7795V25.7802Z" fill="#AFAFAF"/>
<path d="M36.7215 34.0464L32.7346 31.6221C32.7877 31.8736 32.7612 32.1654 32.8927 32.3106C33.1453 32.5911 33.4459 32.8242 33.7803 32.9992C34.231 33.2507 34.7147 33.4304 35.1711 33.6482C35.8467 33.9788 36.3369 34.4561 36.3369 35.2776C36.3369 35.4099 36.4031 35.5436 36.4562 35.6873L36.5885 35.6212C36.6252 35.5861 36.6566 35.5459 36.6819 35.5019C37.4769 34.3231 37.5301 33.0251 37.1851 31.6925C36.8012 30.209 36.112 28.9239 34.668 28.1821C34.2705 27.9837 34.019 28.1555 33.7279 28.3546C33.4231 28.5667 33.2513 28.8182 33.3304 29.2689C33.5424 29.1366 33.7279 29.0439 33.8601 28.9109C34.1907 28.5659 34.4962 28.645 34.8664 28.8843C36.3233 29.905 37.2382 32.4738 36.7207 34.0378L36.7215 34.0464ZM10.0846 39.5973C10.1378 39.6239 10.1902 39.6505 10.2427 39.6634L14.2174 34.7041L13.7667 34.4654L11.2367 33.4448C10.8393 33.2723 10.7192 33.3916 10.6934 33.8027L10.3433 37.1536L10.0918 39.5973H10.0846ZM18.6277 16.7605C17.8586 16.8323 17.3555 17.1579 17.0644 17.8336L16.4549 19.2905C16.3226 19.5686 16.3614 19.7411 16.6798 19.8468L19.3292 20.8272C19.6468 20.9465 19.7798 20.8401 19.8984 20.5612L20.5345 19.0518C20.8127 18.3762 20.6926 17.807 20.0838 17.4095C19.6468 17.1313 19.1171 16.9725 18.6269 16.7605H18.6277ZM34.1656 25.9001L37.4718 25.4365C37.5653 25.4236 37.6839 25.1849 37.6702 25.0786L37.1937 22.4551C37.1671 22.3229 36.9421 22.1374 36.8099 22.1374C36.2536 22.177 35.6972 22.2567 35.1409 22.3495C34.8628 22.389 34.6644 22.522 34.8232 22.9187L36.3599 22.7333C36.4792 22.7203 36.7049 22.8267 36.7179 22.9058L37.1017 24.9592L34.6378 25.2899C34.3467 25.3294 34.0815 25.3955 34.1742 25.8994L34.1656 25.9001ZM34.8815 20.2974L32.3119 19.5557C32.0072 19.4622 32.0604 19.2775 32.1265 19.0526L33.5971 13.8603C34.0736 12.2309 34.392 10.5756 34.2461 8.87937C34.1404 7.66109 33.9679 6.46868 33.168 5.43512C32.4133 4.4684 31.3927 4.08387 30.2542 3.93868C28.5723 3.71371 26.9026 3.74031 25.141 3.88549C25.3135 3.73959 25.4587 3.56781 25.6441 3.43484C26.9292 2.52059 28.4127 2.11018 29.935 1.87156C33.1141 1.36843 36.1882 1.84496 39.194 2.87781C40.2405 3.23574 41.1145 3.84453 41.8821 4.61287C42.6109 5.34168 43.4317 5.48687 44.3258 5.11599C44.8822 4.87737 45.3587 4.95787 45.8891 5.14259C47.1613 5.59324 47.1613 5.57959 46.7768 6.89131L45.7562 10.3614C45.6505 10.7194 45.5046 10.8646 45.1201 10.7323C44.8419 10.6267 44.5508 10.5469 44.259 10.5073C43.6366 10.4139 43.1859 10.1099 42.8215 9.57296C42.2249 8.76509 41.3251 8.83121 40.464 8.92393C39.1659 9.06984 38.3315 9.77206 37.8406 11.0169C36.7409 13.7856 35.933 16.6462 35.1381 19.5075L34.8865 20.2888L34.8815 20.2974ZM26.7344 46.3392C24.8139 46.3262 23.5554 45.0814 23.6222 43.2658C23.6352 42.9611 23.7279 42.6434 23.8343 42.3516L31.3704 20.9601C31.6615 20.112 31.476 20.0861 32.4959 20.3851L34.1649 20.8487C34.5746 20.9422 34.6824 21.1147 34.5746 21.5373L33.0379 28.0937L29.2501 43.8825C29.1274 44.3792 28.9358 44.8563 28.6808 45.2999C28.2438 46.0287 27.5682 46.4125 26.7402 46.3464L26.7344 46.3392ZM1.03768 14.5618C0.918371 14.2837 1.09087 14.1909 1.43515 14.1306L28.5356 9.69299L32.9732 8.95124C33.0264 8.93831 33.0788 8.91171 33.1191 8.92465L33.5956 9.11009C33.4763 9.2294 33.3707 9.44071 33.2247 9.46803L29.6619 10.0775L22.0446 11.3138L13.8451 12.665L4.46684 14.1888L2.17546 14.5467C1.73846 14.5999 1.60046 14.7983 1.65796 15.2353L5.09646 38.1397L5.81162 43.0804C5.86481 43.4642 5.98412 43.5569 6.38662 43.4901L17.7788 41.7018L23.4081 40.8537C23.5403 40.8407 23.7128 40.9859 23.8587 41.0657C23.7394 41.1714 23.6337 41.3317 23.5008 41.3568L13.1968 42.9611L5.96472 44.1132C5.55503 44.1793 5.435 44.0198 5.38971 43.6762L4.6609 38.7743L3.49509 31.0384L2.36953 23.3478L1.03696 14.569L1.03768 14.5618ZM38.7886 10.1645L43.4511 38.0606L40.855 38.4919L32.4039 39.8431L31.2784 39.989C31.1591 40.002 31.0268 39.8697 30.9075 39.8036C31.0009 39.6979 31.0929 39.5377 31.1986 39.5125L34.8139 38.9159L42.4434 37.7228C42.7884 37.6696 42.8272 37.4712 42.7884 37.1931L41.8541 31.6824L38.9791 14.4094L38.4493 11.1909C38.4098 10.8732 38.5212 10.5296 38.5687 10.1846C38.6348 10.1717 38.7009 10.1717 38.7807 10.1717L38.7886 10.1645Z" fill="#AFAFAF"/>
<path d="M28.7348 26.853L27.4899 25.3695L18.9066 15.0109C18.1519 14.1103 18.1914 13.1299 19 12.4148C19.8338 11.6859 20.9608 11.7391 21.6881 12.6131L29.9538 22.455C30.1658 22.7065 30.2197 22.9315 29.9142 23.2363L28.2453 21.2626L21.397 13.0688C20.8939 12.4723 20.3764 12.2998 19.7813 12.5391C19.212 12.7641 18.8412 13.2808 18.9332 13.8501C18.9727 14.1412 19.1315 14.4467 19.3306 14.6716L28.775 26.0638C28.987 26.3154 29.0532 26.5403 28.7355 26.8451L28.7348 26.853ZM19.5951 21.2683L19.437 21.719L14.6214 33.8917C14.436 34.3553 14.2635 34.461 13.7999 34.2497L11.2303 33.1902C10.9392 33.0709 10.8595 32.9387 10.9917 32.6339L15.9985 20.3289C16.1042 20.063 16.2371 19.958 16.5282 20.0773L19.2703 21.0836C19.3896 21.1102 19.4823 21.2029 19.588 21.269L19.5951 21.2683ZM16.4686 20.6071L15.8325 22.1833L11.7263 32.2372C11.5681 32.6346 11.6544 32.7935 12.0174 32.9257L13.5806 33.5618C13.9781 33.7602 14.137 33.6811 14.2958 33.2707L18.9461 21.5084L16.4693 20.6078L16.4686 20.6071ZM28.3244 26.9587L17.0522 28.813C17.0788 28.6276 17.0788 28.5083 17.1183 28.3818L18.1914 25.4543C18.3107 25.1237 18.5494 25.0446 18.8275 25.0037L24.1463 24.0894C24.3583 24.0499 24.5833 24.0628 24.7824 23.9838C25.6161 23.6531 26.107 24.0103 26.5706 24.686C27.0608 25.4407 27.6703 26.1235 28.3315 26.95L28.3244 26.9587ZM17.7803 28.164L27.3569 26.5828L25.7807 24.6091C25.6873 24.5034 25.476 24.4509 25.3171 24.4632L23.9529 24.6752L19.2379 25.4967C19.0395 25.5363 18.7477 25.6548 18.6816 25.8144C18.351 26.5562 18.085 27.3238 17.781 28.1719L17.7803 28.164ZM13.4355 25.7799L13.263 26.2974L12.031 29.158C11.8988 29.4757 11.7004 29.595 11.3554 29.6346L8.0707 30.0852C7.69983 30.1384 7.52733 30.0852 7.47414 29.6755L7.06445 26.7876L13.4355 25.7813V25.7799ZM12.6139 26.4555L8.11095 27.1836C7.96505 27.2102 7.72714 27.4496 7.72714 27.5674C7.76667 28.1367 7.87305 28.7067 7.99308 29.2759C8.02878 29.3418 8.08005 29.398 8.14243 29.4396C8.20482 29.4812 8.27642 29.5069 8.35102 29.5145L11.0391 29.1437C11.2116 29.1171 11.4704 29.0243 11.5293 28.8921L12.6075 26.4483L12.6139 26.4555ZM36.7208 34.0455C37.2383 32.4823 36.3233 29.9127 34.8664 28.9194C34.5085 28.6678 34.2052 28.6017 33.8602 28.946C33.7279 29.0783 33.5425 29.158 33.3305 29.3039C33.2586 28.8403 33.4239 28.6017 33.7279 28.3897C34.019 28.1777 34.2713 28.0188 34.668 28.2172C36.1055 28.9589 36.8006 30.2441 37.1851 31.7276C37.5301 33.0522 37.4762 34.351 36.682 35.5369C36.6554 35.5765 36.6288 35.6088 36.5885 35.6562C36.562 35.6828 36.5354 35.6828 36.4563 35.7224C36.4168 35.5765 36.337 35.4442 36.337 35.3127C36.337 34.4912 35.8468 34.0146 35.1712 33.6833L33.7804 33.0343C33.4498 32.8488 33.1314 32.6246 32.8927 32.3457C32.7605 32.1998 32.7871 31.9087 32.7346 31.6571L36.7215 34.0477L36.7208 34.0455ZM10.0846 39.5964L10.3233 37.1527L10.6812 33.8012C10.7207 33.3915 10.8271 33.2714 11.2246 33.4432L13.7546 34.4638C13.8868 34.517 14.0061 34.5961 14.2052 34.7025L10.2305 39.6618C10.191 39.6489 10.1371 39.6223 10.0846 39.5957V39.5964ZM10.7603 38.0598C10.7998 38.0727 10.8321 38.0727 10.8659 38.0863L13.383 34.8807L11.198 34.0197L10.761 38.059L10.7603 38.0598ZM18.6277 16.7596C19.1179 16.9716 19.6483 17.1305 20.0846 17.4208C20.6941 17.8183 20.8134 18.3876 20.5353 19.0632L19.8992 20.5726C19.7935 20.8507 19.6476 20.9564 19.3299 20.8385L16.6806 19.8581C16.3629 19.7525 16.3356 19.58 16.4556 19.3018L17.0651 17.8449C17.3562 17.1563 17.8464 16.8387 18.6284 16.7668L18.6277 16.7596ZM17.012 19.3953L19.2243 20.2031C19.2961 20.2297 19.4902 20.1097 19.542 20.0047L20.0595 18.826C20.232 18.4551 20.1529 18.0972 19.8345 17.9118C19.4636 17.6868 19.0532 17.5279 18.6291 17.4216C18.1655 17.3159 17.781 17.5272 17.5963 17.9779L17.0213 19.3953H17.012ZM34.1656 25.8999C34.06 25.3968 34.3381 25.3307 34.6292 25.2904L37.0931 24.9598L36.7093 22.9063C36.6964 22.8345 36.4707 22.7209 36.3514 22.7338L34.8147 22.9193C34.6688 22.5096 34.8679 22.3896 35.1324 22.35L36.8013 22.138C36.9335 22.1251 37.1592 22.3234 37.1851 22.4557L37.6616 25.0791C37.6746 25.1848 37.5423 25.4241 37.4633 25.4371L34.157 25.9007L34.1656 25.8999Z" fill="#AFAFAF"/>
<path d="M16.4691 20.6214L18.9459 21.522L14.2956 33.2844C14.1375 33.6941 13.965 33.7746 13.5805 33.5755C13.0774 33.3239 12.5476 33.1248 12.0172 32.9394C11.6463 32.8071 11.5665 32.6483 11.7261 32.2508L15.8323 22.1969L16.4684 20.6207L16.4691 20.6214ZM17.7809 28.1647L18.6685 25.8202C18.7346 25.662 19.0264 25.542 19.2248 25.5025L23.9398 24.6809L25.304 24.4689C25.4499 24.456 25.6749 24.5084 25.7676 24.6148L27.3438 26.5885L17.7801 28.1647H17.7809ZM12.6152 26.4555L11.5371 28.8799C11.4709 29.0121 11.2194 29.1048 11.0469 29.1314L8.35876 29.5023C8.23944 29.5153 8.01376 29.3701 8.00082 29.2637C7.88151 28.7074 7.77585 28.1381 7.73488 27.5552C7.72194 27.4359 7.95985 27.1973 8.11869 27.1714L12.6224 26.4563L12.6152 26.4555ZM10.7608 38.0583L11.2115 34.0189L13.3965 34.88L10.8794 38.0856C10.8385 38.0832 10.7982 38.0743 10.7601 38.059L10.7608 38.0583ZM17.0125 19.3953L17.5875 17.9915C17.7859 17.5409 18.1568 17.3303 18.6203 17.4352C19.0463 17.5314 19.4535 17.697 19.8257 17.9254C20.1434 18.1238 20.2232 18.4688 20.0507 18.8397L19.5332 20.0184C19.48 20.1118 19.2945 20.2434 19.2155 20.2168L17.0032 19.3953H17.0125Z" fill="#AFAFAF"/>
</svg>
