<svg width="96" height="136" viewBox="0 0 96 136" fill="none" xmlns="http://www.w3.org/2000/svg">
<path d="M8.3514 40.8053C8.22767 41.3826 8.13831 41.9188 8.08333 42.4137C8.02834 42.9086 8.00084 43.376 8.00084 43.8159C8.00084 43.9259 8.00084 44.0358 8.00084 44.1458C8.00084 44.242 8.00772 44.3452 8.02146 44.4551H6.28932L6.00063 42.6817H5.91815C5.76693 42.9292 5.5676 43.1766 5.32015 43.4241C5.08645 43.6578 4.82525 43.8777 4.53656 44.084C4.24787 44.2764 3.93856 44.4276 3.60863 44.5376C3.29244 44.6613 2.97626 44.7232 2.66007 44.7232C1.80775 44.7232 1.14789 44.4208 0.680484 43.8159C0.226828 43.211 0 42.3793 0 41.3208C0 40.3585 0.130598 39.4305 0.391794 38.537C0.65299 37.6434 1.01729 36.853 1.48469 36.1656C1.96584 35.4645 2.54322 34.9077 3.21683 34.4953C3.90419 34.0829 4.66028 33.8767 5.48511 33.8767C5.88378 33.8767 6.21371 33.9042 6.47491 33.9592C6.7361 34.0004 6.98355 34.076 7.21725 34.186L8.10394 30H10.6403L8.3514 40.8053ZM6.7636 36.3099C6.59863 36.2 6.40617 36.1244 6.18622 36.0831C5.98001 36.0281 5.69819 36.0006 5.34077 36.0006C4.92835 36.0006 4.55031 36.145 4.20663 36.4337C3.8767 36.7086 3.59488 37.0867 3.36118 37.5678C3.12748 38.0352 2.94189 38.5782 2.80442 39.1968C2.68069 39.8155 2.61883 40.4616 2.61883 41.1352C2.61883 41.5339 2.70819 41.8775 2.8869 42.1662C3.06561 42.4549 3.31994 42.5993 3.64987 42.5993C3.85608 42.5993 4.06228 42.5511 4.26849 42.4549C4.48845 42.3449 4.68778 42.2075 4.86649 42.0425C5.05895 41.8775 5.23079 41.6988 5.38201 41.5064C5.54698 41.3139 5.67757 41.1352 5.7738 40.9702L6.7636 36.3099Z" fill="#AFAFAF"/>
<path d="M15.524 44.4345L16.6994 38.8257C16.7819 38.4408 16.8438 38.1039 16.885 37.8153C16.94 37.5128 16.9675 37.2447 16.9675 37.011C16.9675 36.3787 16.7269 36.0625 16.2457 36.0625C16.012 36.0625 15.7783 36.1244 15.5446 36.2481C15.3109 36.3718 15.091 36.5299 14.8848 36.7224C14.6923 36.9148 14.5067 37.1279 14.328 37.3616C14.1631 37.5816 14.0256 37.7946 13.9156 38.0008L12.5959 44.4345H10.0595L12.2453 34.1241H14.2249L14.1012 35.9388H14.1837C14.3899 35.7188 14.6098 35.4851 14.8435 35.2377C15.091 34.9902 15.3659 34.7634 15.6684 34.5572C15.9708 34.351 16.3076 34.1791 16.6788 34.0417C17.05 33.9042 17.4555 33.8355 17.8954 33.8355C18.4453 33.8355 18.8577 34.0348 19.1327 34.4335C19.4213 34.8321 19.5519 35.3614 19.5244 36.0213C19.7307 35.7601 19.9644 35.4989 20.2255 35.2377C20.5005 34.9765 20.7892 34.7428 21.0916 34.5366C21.4078 34.3304 21.7377 34.1654 22.0814 34.0417C22.4388 33.9042 22.8031 33.8355 23.1743 33.8355C23.8067 33.8355 24.2878 33.9867 24.6178 34.2891C24.9614 34.5778 25.1333 35.1277 25.1333 35.9388C25.1333 36.5299 25.0302 37.2997 24.824 38.2483L23.5249 44.4345H20.9885L22.2051 38.6401C22.2739 38.3239 22.3289 38.0283 22.3701 37.7534C22.4113 37.4784 22.432 37.2379 22.432 37.0317C22.432 36.7155 22.3701 36.4749 22.2464 36.3099C22.1364 36.145 21.9439 36.0625 21.669 36.0625C21.449 36.0625 21.2222 36.1312 20.9885 36.2687C20.7686 36.3924 20.5555 36.5574 20.3493 36.7636C20.1431 36.9561 19.9506 37.1691 19.7719 37.4028C19.6069 37.6365 19.4763 37.8565 19.3801 38.0627L18.0604 44.4345H15.524Z" fill="#AFAFAF"/>
<path d="M28.9605 41.3826C28.878 41.7813 28.878 42.0769 28.9605 42.2693C29.0568 42.4618 29.208 42.558 29.4142 42.558C29.7991 42.558 30.1634 42.4824 30.5071 42.3312L30.4452 44.1664C30.1978 44.3177 29.8403 44.4414 29.3729 44.5376C28.9055 44.6338 28.445 44.682 27.9913 44.682C27.4002 44.682 26.9466 44.572 26.6304 44.352C26.3279 44.1183 26.1767 43.6922 26.1767 43.0735C26.1767 42.7574 26.218 42.3931 26.3004 41.9806L28.8368 30H31.3731L28.9605 41.3826Z" fill="#AFAFAF"/>
<path d="M39.2185 36.4543C38.9573 36.3031 38.6824 36.2 38.3937 36.145C38.1188 36.09 37.8163 36.0625 37.4864 36.0625C37.1152 36.0625 36.7509 36.1862 36.3935 36.4337C36.0498 36.6674 35.7336 36.9836 35.4449 37.3822C35.17 37.7671 34.95 38.2208 34.7851 38.7432C34.6201 39.2656 34.5376 39.8017 34.5376 40.3516C34.5376 41.0527 34.6888 41.5888 34.9913 41.96C35.2937 42.3174 35.6924 42.4962 36.1873 42.4962C36.5997 42.4962 36.9777 42.4343 37.3214 42.3106C37.6788 42.1731 37.995 42.0219 38.27 41.8569L38.7443 43.5891C38.3043 43.919 37.7888 44.1939 37.1977 44.4139C36.6203 44.6201 36.0429 44.7232 35.4656 44.7232C34.8057 44.7232 34.2421 44.627 33.7747 44.4345C33.321 44.242 32.9498 43.9809 32.6611 43.6509C32.3724 43.321 32.1594 42.9429 32.0219 42.5168C31.8844 42.0906 31.8157 41.6438 31.8157 41.1764C31.8157 40.0217 31.9807 38.9906 32.3106 38.0833C32.6405 37.176 33.0736 36.413 33.6097 35.7944C34.1596 35.1621 34.7782 34.6809 35.4656 34.351C36.1667 34.0073 36.8815 33.8355 37.6101 33.8355C38.2562 33.8355 38.7649 33.8973 39.136 34.021C39.521 34.1448 39.8646 34.2822 40.1671 34.4335L39.2185 36.4543Z" fill="#AFAFAF"/>
<path d="M7.6984 57.1165L4.59155 47.6859H8.46824L10.1179 53.2398L10.3928 55.1919L11.4101 53.2398L15.5068 47.6859H19.7959L12.5649 56.979L16.0017 66.932H12.18L10.2004 60.9932L9.87045 58.9586L8.77068 60.9932L4.3441 66.932H0L7.6984 57.1165Z" fill="#CBCBCB"/>
<path d="M26.1097 56.8965H31.8835L30.0689 65.4748C29.2441 66.1163 28.3734 66.5837 27.4569 66.877C26.5588 67.1702 25.5873 67.3169 24.5425 67.3169C23.5344 67.3169 22.5996 67.1427 21.7381 66.7945C20.895 66.4462 20.1618 65.9422 19.5386 65.2823C18.9154 64.6224 18.4296 63.8068 18.0814 62.8353C17.7331 61.8638 17.559 60.7549 17.559 59.5085C17.559 57.4006 17.8431 55.5768 18.4113 54.0371C18.9978 52.4974 19.786 51.2327 20.7758 50.2429C21.7656 49.2348 22.9204 48.4924 24.2401 48.0159C25.5598 47.5393 26.9529 47.301 28.4192 47.301C29.464 47.301 30.3897 47.3927 31.1962 47.576C32.021 47.7409 32.6442 47.9151 33.0658 48.0984L31.6361 51.2602C31.2511 51.0769 30.7654 50.9303 30.1789 50.8203C29.6106 50.7103 28.9141 50.6553 28.0893 50.6553C27.1178 50.6553 26.2197 50.8386 25.3949 51.2052C24.57 51.5718 23.8552 52.1125 23.2503 52.8274C22.6454 53.5422 22.1689 54.4312 21.8206 55.4943C21.4907 56.5391 21.3257 57.7397 21.3257 59.0961C21.3257 60.6174 21.6831 61.8089 22.398 62.6703C23.1128 63.5318 24.0751 63.9626 25.2849 63.9626C26.183 63.9626 26.9712 63.7335 27.6494 63.2752L28.4192 59.6185L25.6148 59.1786L26.1097 56.8965Z" fill="#CBCBCB"/>
<path d="M36.6115 47.8234C36.9597 47.7684 37.3538 47.7134 37.7937 47.6585C38.2336 47.6035 38.701 47.5576 39.1959 47.521C39.6908 47.4843 40.1949 47.4568 40.7081 47.4385C41.2397 47.4202 41.7529 47.411 42.2478 47.411C43.0909 47.411 43.87 47.5027 44.5848 47.6859C45.318 47.8509 45.9412 48.1167 46.4544 48.4833C46.986 48.8499 47.3984 49.3264 47.6917 49.913C48.0033 50.4812 48.1591 51.1686 48.1591 51.9751C48.1591 52.5799 48.0583 53.1665 47.8566 53.7347C47.655 54.2846 47.3617 54.7795 46.9768 55.2194C46.6102 55.6593 46.1611 56.0259 45.6296 56.3192C45.1164 56.6124 44.5298 56.8049 43.87 56.8965V57.034C44.2182 57.1073 44.5665 57.2448 44.9147 57.4464C45.263 57.6297 45.5746 57.8772 45.8495 58.1888C46.1245 58.482 46.3444 58.8395 46.5094 59.261C46.6744 59.6643 46.7569 60.1225 46.7569 60.6358C46.7569 61.8089 46.5277 62.817 46.0695 63.6601C45.6113 64.485 44.9972 65.1632 44.2274 65.6947C43.4575 66.2079 42.5594 66.5929 41.5329 66.8495C40.5065 67.0878 39.425 67.2069 38.2886 67.2069C37.9953 67.2069 37.6104 67.2069 37.1338 67.2069C36.6756 67.2069 36.1807 67.1886 35.6492 67.1519C35.1176 67.1336 34.586 67.0969 34.0545 67.0419C33.5229 66.9869 33.0372 66.9045 32.5973 66.7945L36.6115 47.8234ZM36.639 63.9351C36.7123 63.9717 36.8406 63.9992 37.0239 64.0176C37.2255 64.0359 37.4363 64.0542 37.6562 64.0726C37.8945 64.0726 38.1328 64.0817 38.3711 64.1C38.6094 64.1 38.811 64.1 38.976 64.1C39.4342 64.1 39.9016 64.0451 40.3782 63.9351C40.8731 63.8251 41.313 63.6418 41.6979 63.3852C42.1012 63.1286 42.4311 62.7986 42.6877 62.3954C42.9443 61.9921 43.0726 61.4973 43.0726 60.9107C43.0726 60.4525 42.9718 60.0767 42.7702 59.7834C42.5686 59.4902 42.3028 59.261 41.9728 59.0961C41.6429 58.9128 41.258 58.7936 40.8181 58.7387C40.3965 58.6653 39.9566 58.6287 39.4984 58.6287H37.7387L36.639 63.9351ZM38.3711 55.7693H39.5533C39.81 55.7693 40.1124 55.7693 40.4607 55.7693C40.8089 55.7509 41.1022 55.7234 41.3405 55.6868C41.6704 55.6318 42.0187 55.5402 42.3853 55.4118C42.7702 55.2835 43.1093 55.1002 43.4025 54.862C43.7141 54.6237 43.9708 54.3212 44.1724 53.9546C44.374 53.5881 44.4748 53.1298 44.4748 52.5799C44.4748 51.7918 44.209 51.251 43.6775 50.9578C43.1643 50.6645 42.5044 50.5179 41.6979 50.5179C41.2213 50.5179 40.7814 50.527 40.3782 50.5454C39.9749 50.5637 39.6633 50.5912 39.4434 50.6278L38.3711 55.7693Z" fill="#CBCBCB"/>
<path d="M48.6089 62.4779C48.6089 61.0298 48.8105 59.7101 49.2137 58.5187C49.6353 57.3273 50.1852 56.31 50.8634 55.4668C51.5599 54.6237 52.3572 53.973 53.2554 53.5147C54.1719 53.0382 55.125 52.7999 56.1148 52.7999C56.9946 52.7999 57.737 52.9374 58.3418 53.2123C58.9467 53.4872 59.4324 53.8538 59.799 54.3121C60.1839 54.7703 60.4589 55.2927 60.6239 55.8792C60.7888 56.4658 60.8713 57.0707 60.8713 57.6939C60.8713 59.1236 60.6697 60.4341 60.2664 61.6256C59.8632 62.7986 59.3225 63.8068 58.6443 64.6499C57.9661 65.4931 57.1779 66.153 56.2798 66.6295C55.3816 67.0878 54.4376 67.3169 53.4478 67.3169C52.5864 67.3169 51.8532 67.1794 51.2483 66.9045C50.6434 66.6112 50.1394 66.2354 49.7361 65.7772C49.3512 65.319 49.0671 64.8057 48.8838 64.2375C48.7005 63.651 48.6089 63.0644 48.6089 62.4779ZM52.1006 62.0105C52.1006 63.6601 52.6963 64.485 53.8878 64.485C54.3277 64.485 54.7584 64.2925 55.18 63.9076C55.6016 63.5227 55.9773 63.0186 56.3073 62.3954C56.6372 61.7722 56.8938 61.0665 57.0771 60.2783C57.2787 59.4902 57.3795 58.702 57.3795 57.9138C57.3795 57.1806 57.2512 56.6216 56.9946 56.2367C56.7563 55.8334 56.2981 55.6318 55.6199 55.6318C55.18 55.6318 54.7492 55.8151 54.3277 56.1817C53.9061 56.5483 53.5303 57.034 53.2004 57.6389C52.8705 58.2254 52.6047 58.9036 52.4031 59.6735C52.2014 60.4433 52.1006 61.2223 52.1006 62.0105Z" fill="#CBCBCB"/>
<path d="M62.2486 62.4779C62.2486 61.0298 62.4502 59.7101 62.8535 58.5187C63.2751 57.3273 63.8249 56.31 64.5031 55.4668C65.1997 54.6237 65.997 53.973 66.8951 53.5147C67.8116 53.0382 68.7647 52.7999 69.7545 52.7999C70.6344 52.7999 71.3767 52.9374 71.9816 53.2123C72.5865 53.4872 73.0722 53.8538 73.4388 54.3121C73.8237 54.7703 74.0986 55.2927 74.2636 55.8792C74.4286 56.4658 74.5111 57.0707 74.5111 57.6939C74.5111 59.1236 74.3094 60.4341 73.9062 61.6256C73.5029 62.7986 72.9622 63.8068 72.284 64.6499C71.6058 65.4931 70.8177 66.153 69.9195 66.6295C69.0214 67.0878 68.0774 67.3169 67.0876 67.3169C66.2261 67.3169 65.4929 67.1794 64.8881 66.9045C64.2832 66.6112 63.7791 66.2354 63.3759 65.7772C62.9909 65.319 62.7068 64.8057 62.5235 64.2375C62.3402 63.651 62.2486 63.0644 62.2486 62.4779ZM65.7404 62.0105C65.7404 63.6601 66.3361 64.485 67.5275 64.485C67.9674 64.485 68.3982 64.2925 68.8197 63.9076C69.2413 63.5227 69.6171 63.0186 69.947 62.3954C70.2769 61.7722 70.5335 61.0665 70.7168 60.2783C70.9185 59.4902 71.0193 58.702 71.0193 57.9138C71.0193 57.1806 70.891 56.6216 70.6344 56.2367C70.3961 55.8334 69.9378 55.6318 69.2596 55.6318C68.8197 55.6318 68.389 55.8151 67.9674 56.1817C67.5458 56.5483 67.1701 57.034 66.8401 57.6389C66.5102 58.2254 66.2444 58.9036 66.0428 59.6735C65.8412 60.4433 65.7404 61.2223 65.7404 62.0105Z" fill="#CBCBCB"/>
<path d="M75.9983 63.7151C76.3649 63.9167 76.8323 64.1 77.4005 64.265C77.9871 64.4116 78.6011 64.485 79.2427 64.485C79.8842 64.485 80.3699 64.3658 80.6999 64.1275C81.0481 63.8709 81.2314 63.486 81.2497 62.9728C81.2497 62.6062 81.1398 62.2946 80.9198 62.038C80.6999 61.763 80.4157 61.5064 80.0675 61.2681C79.7376 61.0298 79.3801 60.7916 78.9952 60.5533C78.6103 60.2967 78.2437 60.0126 77.8954 59.701C77.5655 59.371 77.2906 58.9861 77.0706 58.5462C76.8506 58.1063 76.7407 57.5747 76.7407 56.9515C76.7407 56.3467 76.8598 55.7876 77.0981 55.2744C77.3364 54.7611 77.6663 54.3212 78.0879 53.9546C78.5278 53.5881 79.0502 53.3039 79.6551 53.1023C80.2783 52.9007 80.9748 52.7999 81.7446 52.7999C82.8077 52.7999 83.6876 52.8824 84.3841 53.0473C85.0806 53.194 85.6305 53.3864 86.0338 53.6247L85.0989 56.2092C84.7323 56.0442 84.2833 55.9067 83.7517 55.7968C83.2385 55.6868 82.6978 55.6318 82.1296 55.6318C81.543 55.6318 81.0756 55.7326 80.7273 55.9342C80.3974 56.1359 80.2324 56.4566 80.2324 56.8965C80.2324 57.1898 80.3424 57.4556 80.5624 57.6939C80.7823 57.9138 81.0573 58.1429 81.3872 58.3812C81.7355 58.6195 82.1021 58.867 82.487 59.1236C82.8719 59.3619 83.2293 59.6551 83.5593 60.0034C83.9075 60.3517 84.1916 60.7549 84.4116 61.2131C84.6315 61.6531 84.7415 62.1846 84.7415 62.8078C84.7415 64.3292 84.2466 65.4656 83.2568 66.2171C82.267 66.9503 80.9473 67.3169 79.2976 67.3169C78.3628 67.3169 77.5013 67.2252 76.7132 67.0419C75.9433 66.877 75.3476 66.6662 74.926 66.4096L75.9983 63.7151Z" fill="#CBCBCB"/>
<path d="M87.6142 53.1848H89.4014L89.9513 50.6003L93.553 49.5831L92.7832 53.1848H96L95.3676 56.0167H92.1783L90.8311 62.2304C90.7211 62.7253 90.6661 63.1286 90.6661 63.4402C90.6661 63.8434 90.7578 64.1184 90.941 64.265C91.1243 64.4116 91.3993 64.485 91.7659 64.485C92.1141 64.485 92.4257 64.4483 92.7007 64.375C92.994 64.3017 93.2964 64.1825 93.608 64.0176V66.547C93.4064 66.657 93.1589 66.767 92.8657 66.877C92.5907 66.9686 92.2883 67.0419 91.9583 67.0969C91.6284 67.1702 91.2893 67.2252 90.941 67.2619C90.5928 67.2985 90.272 67.3169 89.9788 67.3169C89.0439 67.3169 88.3199 67.1061 87.8067 66.6845C87.3118 66.2446 87.0644 65.5847 87.0644 64.7049C87.0644 64.5216 87.0735 64.3292 87.0919 64.1275C87.1285 63.9259 87.1652 63.7151 87.2018 63.4952L88.7965 56.0167H86.9544L87.6142 53.1848Z" fill="#CBCBCB"/>
<path d="M20.292 124.432L23.716 130H22.068L19.396 125.648L16.852 130H15.236L18.644 124.432L15.22 118.848H16.852L19.54 123.216L22.1 118.848H23.732L20.292 124.432ZM34.1175 122.08C33.8082 121.429 33.3602 120.928 32.7735 120.576C32.1868 120.213 31.5042 120.032 30.7255 120.032C29.9468 120.032 29.2428 120.213 28.6135 120.576C27.9948 120.928 27.5042 121.44 27.1415 122.112C26.7895 122.773 26.6135 123.541 26.6135 124.416C26.6135 125.291 26.7895 126.059 27.1415 126.72C27.5042 127.381 27.9948 127.893 28.6135 128.256C29.2428 128.608 29.9468 128.784 30.7255 128.784C31.8135 128.784 32.7095 128.459 33.4135 127.808C34.1175 127.157 34.5282 126.277 34.6455 125.168H30.1975V123.984H36.1975V125.104C36.1122 126.021 35.8242 126.864 35.3335 127.632C34.8428 128.389 34.1975 128.992 33.3975 129.44C32.5975 129.877 31.7068 130.096 30.7255 130.096C29.6908 130.096 28.7468 129.856 27.8935 129.376C27.0402 128.885 26.3628 128.208 25.8615 127.344C25.3708 126.48 25.1255 125.504 25.1255 124.416C25.1255 123.328 25.3708 122.352 25.8615 121.488C26.3628 120.613 27.0402 119.936 27.8935 119.456C28.7468 118.965 29.6908 118.72 30.7255 118.72C31.9095 118.72 32.9548 119.013 33.8615 119.6C34.7788 120.187 35.4455 121.013 35.8615 122.08H34.1175ZM43.7066 124.256C44.112 124.32 44.48 124.485 44.8106 124.752C45.152 125.019 45.4186 125.349 45.6106 125.744C45.8133 126.139 45.9146 126.56 45.9146 127.008C45.9146 127.573 45.7706 128.085 45.4826 128.544C45.1946 128.992 44.7733 129.349 44.2186 129.616C43.6746 129.872 43.0293 130 42.2826 130H38.1226V118.848H42.1226C42.88 118.848 43.5253 118.976 44.0586 119.232C44.592 119.477 44.992 119.813 45.2586 120.24C45.5253 120.667 45.6586 121.147 45.6586 121.68C45.6586 122.341 45.4773 122.891 45.1146 123.328C44.7626 123.755 44.2933 124.064 43.7066 124.256ZM39.5786 123.664H42.0266C42.7093 123.664 43.2373 123.504 43.6106 123.184C43.984 122.864 44.1706 122.421 44.1706 121.856C44.1706 121.291 43.984 120.848 43.6106 120.528C43.2373 120.208 42.6986 120.048 41.9946 120.048H39.5786V123.664ZM42.1546 128.8C42.88 128.8 43.4453 128.629 43.8506 128.288C44.256 127.947 44.4586 127.472 44.4586 126.864C44.4586 126.245 44.2453 125.76 43.8186 125.408C43.392 125.045 42.8213 124.864 42.1066 124.864H39.5786V128.8H42.1546ZM51.7591 130.144C50.9378 130.144 50.1911 129.957 49.5191 129.584C48.8578 129.211 48.3351 128.683 47.9511 128C47.5778 127.307 47.3911 126.507 47.3911 125.6C47.3911 124.704 47.5831 123.915 47.9671 123.232C48.3618 122.539 48.8951 122.011 49.5671 121.648C50.2391 121.275 50.9911 121.088 51.8231 121.088C52.6551 121.088 53.4071 121.275 54.0791 121.648C54.7511 122.011 55.2791 122.533 55.6631 123.216C56.0578 123.899 56.2551 124.693 56.2551 125.6C56.2551 126.507 56.0525 127.307 55.6471 128C55.2525 128.683 54.7138 129.211 54.0311 129.584C53.3485 129.957 52.5911 130.144 51.7591 130.144ZM51.7591 128.864C52.2818 128.864 52.7725 128.741 53.2311 128.496C53.6898 128.251 54.0578 127.883 54.3351 127.392C54.6231 126.901 54.7671 126.304 54.7671 125.6C54.7671 124.896 54.6285 124.299 54.3511 123.808C54.0738 123.317 53.7111 122.955 53.2631 122.72C52.8151 122.475 52.3298 122.352 51.8071 122.352C51.2738 122.352 50.7831 122.475 50.3351 122.72C49.8978 122.955 49.5458 123.317 49.2791 123.808C49.0125 124.299 48.8791 124.896 48.8791 125.6C48.8791 126.315 49.0071 126.917 49.2631 127.408C49.5298 127.899 49.8818 128.267 50.3191 128.512C50.7565 128.747 51.2365 128.864 51.7591 128.864ZM61.9935 130.144C61.1722 130.144 60.4255 129.957 59.7535 129.584C59.0922 129.211 58.5695 128.683 58.1855 128C57.8122 127.307 57.6255 126.507 57.6255 125.6C57.6255 124.704 57.8175 123.915 58.2015 123.232C58.5962 122.539 59.1295 122.011 59.8015 121.648C60.4735 121.275 61.2255 121.088 62.0575 121.088C62.8895 121.088 63.6415 121.275 64.3135 121.648C64.9855 122.011 65.5135 122.533 65.8975 123.216C66.2922 123.899 66.4895 124.693 66.4895 125.6C66.4895 126.507 66.2868 127.307 65.8815 128C65.4868 128.683 64.9482 129.211 64.2655 129.584C63.5828 129.957 62.8255 130.144 61.9935 130.144ZM61.9935 128.864C62.5162 128.864 63.0068 128.741 63.4655 128.496C63.9242 128.251 64.2922 127.883 64.5695 127.392C64.8575 126.901 65.0015 126.304 65.0015 125.6C65.0015 124.896 64.8628 124.299 64.5855 123.808C64.3082 123.317 63.9455 122.955 63.4975 122.72C63.0495 122.475 62.5642 122.352 62.0415 122.352C61.5082 122.352 61.0175 122.475 60.5695 122.72C60.1322 122.955 59.7802 123.317 59.5135 123.808C59.2468 124.299 59.1135 124.896 59.1135 125.6C59.1135 126.315 59.2415 126.917 59.4975 127.408C59.7642 127.899 60.1162 128.267 60.5535 128.512C60.9908 128.747 61.4708 128.864 61.9935 128.864ZM71.5079 130.144C70.8359 130.144 70.2332 130.032 69.6999 129.808C69.1665 129.573 68.7452 129.253 68.4359 128.848C68.1265 128.432 67.9559 127.957 67.9239 127.424H69.4279C69.4705 127.861 69.6732 128.219 70.0359 128.496C70.4092 128.773 70.8945 128.912 71.4919 128.912C72.0465 128.912 72.4839 128.789 72.8039 128.544C73.1239 128.299 73.2839 127.989 73.2839 127.616C73.2839 127.232 73.1132 126.949 72.7719 126.768C72.4305 126.576 71.9025 126.389 71.1879 126.208C70.5372 126.037 70.0039 125.867 69.5879 125.696C69.1825 125.515 68.8305 125.253 68.5319 124.912C68.2439 124.56 68.0999 124.101 68.0999 123.536C68.0999 123.088 68.2332 122.677 68.4999 122.304C68.7665 121.931 69.1452 121.637 69.6359 121.424C70.1265 121.2 70.6865 121.088 71.3159 121.088C72.2865 121.088 73.0705 121.333 73.6679 121.824C74.2652 122.315 74.5852 122.987 74.6279 123.84H73.1719C73.1399 123.381 72.9532 123.013 72.6119 122.736C72.2812 122.459 71.8332 122.32 71.2679 122.32C70.7452 122.32 70.3292 122.432 70.0199 122.656C69.7105 122.88 69.5559 123.173 69.5559 123.536C69.5559 123.824 69.6465 124.064 69.8279 124.256C70.0199 124.437 70.2545 124.587 70.5319 124.704C70.8199 124.811 71.2145 124.933 71.7159 125.072C72.3452 125.243 72.8572 125.413 73.2519 125.584C73.6465 125.744 73.9825 125.989 74.2599 126.32C74.5479 126.651 74.6972 127.083 74.7079 127.616C74.7079 128.096 74.5745 128.528 74.3079 128.912C74.0412 129.296 73.6625 129.6 73.1719 129.824C72.6919 130.037 72.1372 130.144 71.5079 130.144ZM78.5393 122.432V127.6C78.5393 128.027 78.6299 128.331 78.8113 128.512C78.9926 128.683 79.3073 128.768 79.7552 128.768H80.8273V130H79.5153C78.7046 130 78.0966 129.813 77.6913 129.44C77.2859 129.067 77.0833 128.453 77.0833 127.6V122.432H75.9473V121.232H77.0833V119.024H78.5393V121.232H80.8273V122.432H78.5393Z" fill="#AFAFAF"/>
</svg>
