<svg xmlns="http://www.w3.org/2000/svg" xmlns:xlink="http://www.w3.org/1999/xlink" width="49" height="49" viewBox="0 0 49 49">
    <defs>
        <path id="a" d="M.078 0H48.37v48.017H.078z" />
    </defs>
    <g fill="none" fill-rule="evenodd">
        <mask id="b" fill="#fff">
            <use xlink:href="#a" />
        </mask>
        <path fill="#3A5998" d="M24.188 0C10.85 0 0 10.77 0 24.011 0 37.25 10.849 48.017 24.188 48.017c13.335 0 24.183-10.768 24.183-24.006C48.371 10.77 37.523 0 24.188 0zm6.013 24.852h-3.932v13.922h-5.836V24.852h-2.77v-4.915h2.77v-3.184c0-2.281 1.09-5.843 5.887-5.843l4.323.016v4.78h-3.136c-.513 0-1.238.251-1.238 1.34v2.89h4.44l-.508 4.916z" mask="url(#b)" />
    </g>
</svg>
