<svg xmlns="http://www.w3.org/2000/svg" xmlns:xlink="http://www.w3.org/1999/xlink" width="50" height="49" viewBox="0 0 50 49">
    <defs>
        <path id="a" d="M.006 0H49.36v49H.006z" />
    </defs>
    <g fill="none" fill-rule="evenodd" transform="translate(.32)">
        <mask id="b" fill="#fff">
            <use xlink:href="#a" />
        </mask>
        <path fill="#0077B5" d="M24.68 0C11.052 0 0 10.971 0 24.5S11.052 49 24.68 49c13.629 0 24.68-10.971 24.68-24.5S38.31 0 24.68 0zM11.498 37.037h6.01V19.086h-6.01v17.951zm3.005-20.403h-.039c-2.017 0-3.321-1.378-3.321-3.1 0-1.762 1.344-3.102 3.4-3.102 2.057 0 3.322 1.34 3.361 3.101 0 1.723-1.304 3.101-3.4 3.101zm24.68 20.403h-6.01v-9.604c0-2.413-.871-4.059-3.046-4.059-1.66 0-2.65 1.11-3.084 2.182-.159.384-.198.92-.198 1.456v10.025h-6.01s.079-16.267 0-17.951h6.01v2.541c.8-1.223 2.228-2.963 5.417-2.963 3.955 0 6.92 2.566 6.92 8.08v10.293z" mask="url(#b)" />
    </g>
</svg>
