<?xml version="1.0" encoding="UTF-8"?>
<svg width="32px" height="32px" viewBox="0 0 32 32" version="1.1" xmlns="http://www.w3.org/2000/svg" xmlns:xlink="http://www.w3.org/1999/xlink">
    <!-- Generator: Sketch 53.2 (72643) - https://sketchapp.com -->
    <title>medium</title>
    <desc>Created with Sketch.</desc>
    <g id="Page-1" stroke="none" stroke-width="1" fill="none" fill-rule="evenodd">
        <g id="medium">
            <path d="M7.6086262,11.46888 C7.63600271,11.205998 7.53307164,10.9461475 7.33146965,10.7691956 L5.27715655,8.36072621 L5.27715655,8.00077743 L11.6549521,8.00077743 L16.5854633,18.5248091 L20.9193291,8 L27,8 L27,8.35994878 L25.2428115,9.99876526 C25.0915673,10.1111667 25.0165714,10.2957518 25.0479233,10.4784378 L25.0479233,22.5207847 C25.0164372,22.7038779 25.0917865,22.8888754 25.2436102,23.0012347 L26.9584665,24.6400512 L26.9584665,25 L18.3322684,25 L18.3322684,24.6400512 L20.1086262,22.9608085 C20.2835463,22.7913294 20.2835463,22.7415741 20.2835463,22.481136 L20.2835463,12.7477477 L15.3434505,24.9603512 L14.6757188,24.9603512 L8.92412141,12.7469703 L8.92412141,20.932501 C8.87619808,21.2769013 8.99361022,21.6228564 9.2428115,21.8716331 L11.5535144,24.6004024 L11.5535144,24.9603512 L5,24.9603512 L5,24.6004024 L7.31070288,21.8716331 C7.55830671,21.6228564 7.66853035,21.2737916 7.6086262,20.932501 L7.6086262,11.46888 Z" id="Path" fill="#FFFFFF" fill-rule="nonzero"></path>
        </g>
    </g>
</svg>
