<?xml version="1.0" encoding="utf-8"?>
<!-- Generator: Adobe Illustrator 21.0.0, SVG Export Plug-In . SVG Version: 6.00 Build 0)  -->
<svg version="1.1" id="Слой_1" xmlns="http://www.w3.org/2000/svg" xmlns:xlink="http://www.w3.org/1999/xlink" x="0px" y="0px"
	 viewBox="0 0 32 32" style="enable-background:new 0 0 32 32;" xml:space="preserve">
<style type="text/css">
	.st0{fill:#FFFFFF;}
</style>
<g id="XMLID_496_">
	<path id="XMLID_497_" class="st0" d="M6.5,16.2l4.6,1.7l1.8,5.8c0.1,0.4,0.6,0.5,0.9,0.3l2.6-2.1c0.3-0.2,0.7-0.2,0.9,0l4.7,3.4
		c0.3,0.2,0.8,0.1,0.9-0.3l3.4-16.4c0.1-0.4-0.3-0.8-0.7-0.6l-19,7.3C6,15.3,6,16,6.5,16.2z M12.6,17l9-5.6c0.2-0.1,0.3,0.1,0.2,0.2
		l-7.5,6.9c-0.3,0.2-0.4,0.6-0.5,0.9l-0.3,1.9c0,0.3-0.4,0.3-0.5,0l-1-3.4C12.1,17.6,12.3,17.2,12.6,17z" />
</g>
</svg>
