<svg xmlns="http://www.w3.org/2000/svg" xmlns:xlink="http://www.w3.org/1999/xlink" width="49" height="49" viewBox="0 0 49 49">
    <defs>
        <path id="a" d="M.078 0H48.37v48.017H.078z"/>
    </defs>
    <g fill="none" fill-rule="evenodd" transform="translate(.64)">
        <mask id="b" fill="#fff">
            <use xlink:href="#a"/>
        </mask>
        <path fill="#55ACEE" d="M24.188 0C10.85 0 0 10.77 0 24.011 0 37.25 10.849 48.017 24.188 48.017c13.335 0 24.183-10.768 24.183-24.006C48.371 10.77 37.523 0 24.188 0zm10.788 18.516c.01.237.016.474.016.715 0 7.304-5.598 15.72-15.837 15.72-3.147 0-6.074-.911-8.535-2.477.437.05.878.075 1.324.075a11.22 11.22 0 0 0 6.917-2.368 5.57 5.57 0 0 1-5.201-3.837 5.6 5.6 0 0 0 2.516-.092c-2.547-.508-4.464-2.74-4.464-5.42v-.069c.75.413 1.608.664 2.52.69a5.498 5.498 0 0 1-2.475-4.6c0-1.012.274-1.958.75-2.775a15.862 15.862 0 0 0 11.473 5.773 5.438 5.438 0 0 1-.141-1.26c0-3.052 2.491-5.525 5.566-5.525a5.59 5.59 0 0 1 4.064 1.742 11.152 11.152 0 0 0 3.536-1.34 5.576 5.576 0 0 1-2.45 3.058 10.946 10.946 0 0 0 3.196-.87 11.207 11.207 0 0 1-2.775 2.86z" mask="url(#b)"/>
    </g>
</svg>
