<svg width="64" height="64" viewBox="0 0 64 64" fill="none" xmlns="http://www.w3.org/2000/svg">
<circle cx="32" cy="32" r="32" fill="#FFE603"/>
<path d="M38.5708 39C38.0185 39 37.5708 39.4477 37.5708 40C37.5708 40.5523 38.0185 41 38.5708 41V39ZM40.8568 33.143L40.1497 32.4359C39.9622 32.6234 39.8568 32.8778 39.8568 33.143H40.8568ZM41.9998 32L42.7069 32.7071C43.0974 32.3166 43.0974 31.6834 42.7069 31.2929L41.9998 32ZM40.8568 30.857H39.8568C39.8568 31.1222 39.9622 31.3766 40.1497 31.5641L40.8568 30.857ZM38.5708 23C38.0185 23 37.5708 23.4477 37.5708 24C37.5708 24.5523 38.0185 25 38.5708 25V23ZM25.429 25C25.9813 25 26.429 24.5523 26.429 24C26.429 23.4477 25.9813 23 25.429 23V25ZM23.143 30.857L23.8501 31.5641C24.0376 31.3766 24.143 31.1222 24.143 30.857H23.143ZM22 32L21.2929 31.2929C21.1054 31.4804 21 31.7348 21 32C21 32.2652 21.1054 32.5196 21.2929 32.7071L22 32ZM23.143 33.143H24.143C24.143 32.8778 24.0376 32.6234 23.8501 32.4359L23.143 33.143ZM25.429 41C25.9813 41 26.429 40.5523 26.429 40C26.429 39.4477 25.9813 39 25.429 39V41ZM27.5 31C26.9477 31 26.5 31.4477 26.5 32C26.5 32.5523 26.9477 33 27.5 33V31ZM27.51 33C28.0623 33 28.51 32.5523 28.51 32C28.51 31.4477 28.0623 31 27.51 31V33ZM32 31C31.4477 31 31 31.4477 31 32C31 32.5523 31.4477 33 32 33V31ZM32.01 33C32.5623 33 33.01 32.5523 33.01 32C33.01 31.4477 32.5623 31 32.01 31V33ZM36.5 31C35.9477 31 35.5 31.4477 35.5 32C35.5 32.5523 35.9477 33 36.5 33V31ZM36.51 33C37.0623 33 37.51 32.5523 37.51 32C37.51 31.4477 37.0623 31 36.51 31V33ZM38.5708 41C40.3848 41 41.8568 39.5296 41.8568 37.714H39.8568C39.8568 38.4244 39.2808 39 38.5708 39V41ZM41.8568 37.714V33.143H39.8568V37.714H41.8568ZM41.5639 33.8501L42.7069 32.7071L41.2927 31.2929L40.1497 32.4359L41.5639 33.8501ZM42.7069 31.2929L41.5639 30.1499L40.1497 31.5641L41.2927 32.7071L42.7069 31.2929ZM41.8568 30.857V26.286H39.8568V30.857H41.8568ZM41.8568 26.286C41.8568 24.4707 40.3861 23 38.5708 23V25C39.2815 25 39.8568 25.5753 39.8568 26.286H41.8568ZM25.429 23C23.6137 23 22.143 24.4707 22.143 26.286H24.143C24.143 25.5753 24.7183 25 25.429 25V23ZM22.143 26.286V30.857H24.143V26.286H22.143ZM22.4359 30.1499L21.2929 31.2929L22.7071 32.7071L23.8501 31.5641L22.4359 30.1499ZM21.2929 32.7071L22.4359 33.8501L23.8501 32.4359L22.7071 31.2929L21.2929 32.7071ZM22.143 33.143V37.714H24.143V33.143H22.143ZM22.143 37.714C22.143 39.5293 23.6137 41 25.429 41V39C24.7183 39 24.143 38.4247 24.143 37.714H22.143ZM27.5 33H27.51V31H27.5V33ZM27 32C27 31.7239 27.2239 31.5 27.5 31.5V33.5C28.3284 33.5 29 32.8284 29 32H27ZM27.5 31.5C27.7761 31.5 28 31.7239 28 32H26C26 32.8284 26.6716 33.5 27.5 33.5V31.5ZM28 32C28 32.2761 27.7761 32.5 27.5 32.5V30.5C26.6716 30.5 26 31.1716 26 32H28ZM27.5 32.5C27.2239 32.5 27 32.2761 27 32H29C29 31.1716 28.3284 30.5 27.5 30.5V32.5ZM32 33H32.01V31H32V33ZM31.5 32C31.5 31.7239 31.7239 31.5 32 31.5V33.5C32.8284 33.5 33.5 32.8284 33.5 32H31.5ZM32 31.5C32.2761 31.5 32.5 31.7239 32.5 32H30.5C30.5 32.8284 31.1716 33.5 32 33.5V31.5ZM32.5 32C32.5 32.2761 32.2761 32.5 32 32.5V30.5C31.1716 30.5 30.5 31.1716 30.5 32H32.5ZM32 32.5C31.7239 32.5 31.5 32.2761 31.5 32H33.5C33.5 31.1716 32.8284 30.5 32 30.5V32.5ZM36.5 33H36.51V31H36.5V33ZM36 32C36 31.7239 36.2239 31.5 36.5 31.5V33.5C37.3284 33.5 38 32.8284 38 32H36ZM36.5 31.5C36.7761 31.5 37 31.7239 37 32H35C35 32.8284 35.6716 33.5 36.5 33.5V31.5ZM37 32C37 32.2761 36.7761 32.5 36.5 32.5V30.5C35.6716 30.5 35 31.1716 35 32H37ZM36.5 32.5C36.2239 32.5 36 32.2761 36 32H38C38 31.1716 37.3284 30.5 36.5 30.5V32.5Z" fill="#171717"/>
</svg>
