<svg width="64" height="64" viewBox="0 0 64 64" fill="none" xmlns="http://www.w3.org/2000/svg">
<circle cx="32" cy="32" r="32" fill="#FFE603"/>
<path d="M22 25C21.4477 25 21 25.4477 21 26C21 26.5523 21.4477 27 22 27V25ZM37 42C37 42.5523 37.4477 43 38 43C38.5523 43 39 42.5523 39 42H37ZM36.908 26.218L36.454 27.109L36.454 27.109L36.908 26.218ZM37.782 27.092L36.891 27.546L37.782 27.092ZM42 39C42.5523 39 43 38.5523 43 38C43 37.4477 42.5523 37 42 37V39ZM29.2 38V39V38ZM27 22C27 21.4477 26.5523 21 26 21C25.4477 21 25 21.4477 25 22H27ZM27.092 37.782L27.546 36.891L27.092 37.782ZM26.218 36.908L27.109 36.454L27.109 36.454L26.218 36.908ZM22 27H34.8V25H22V27ZM37 29.2V42H39V29.2H37ZM34.8 27C35.3766 27 35.7488 27.0008 36.0322 27.0239C36.3038 27.0461 36.4045 27.0838 36.454 27.109L37.362 25.327C36.9836 25.1342 36.5904 25.0629 36.195 25.0306C35.8114 24.9992 35.3436 25 34.8 25V27ZM39 29.2C39 28.6564 39.0008 28.1886 38.9694 27.805C38.9371 27.4096 38.8658 27.0164 38.673 26.638L36.891 27.546C36.9162 27.5955 36.9539 27.6962 36.9761 27.9678C36.9992 28.2512 37 28.6234 37 29.2H39ZM36.454 27.109C36.6422 27.2049 36.7951 27.3578 36.891 27.546L38.673 26.638C38.3854 26.0735 37.9265 25.6146 37.362 25.327L36.454 27.109ZM42 37L29.2 37V39L42 39V37ZM27 34.8V22H25V34.8H27ZM29.2 37C28.6234 37 28.2512 36.9992 27.9678 36.9761C27.6962 36.9539 27.5955 36.9162 27.546 36.891L26.638 38.673C27.0164 38.8658 27.4096 38.9371 27.805 38.9694C28.1886 39.0008 28.6564 39 29.2 39V37ZM25 34.8C25 35.3436 24.9992 35.8114 25.0306 36.195C25.0629 36.5904 25.1342 36.9836 25.327 37.362L27.109 36.454C27.0838 36.4045 27.0461 36.3038 27.0239 36.0322C27.0008 35.7488 27 35.3766 27 34.8H25ZM27.546 36.891C27.3578 36.7951 27.2049 36.6422 27.109 36.454L25.327 37.362C25.6146 37.9265 26.0735 38.3854 26.638 38.673L27.546 36.891Z" fill="#171717"/>
</svg>
