<svg width="64" height="64" viewBox="0 0 64 64" fill="none" xmlns="http://www.w3.org/2000/svg">
<circle cx="32" cy="32" r="32" fill="#FFE603"/>
<path d="M39.9171 28.5423L40.8895 28.3089L39.9171 28.5423ZM38.5941 26.5941L39.3012 25.887L38.5941 26.5941ZM39.5579 27.6751L40.4106 27.1526L39.5579 27.6751ZM33.4577 22.0829L33.6911 21.1105L33.4577 22.0829ZM35.4059 23.4059L34.6988 24.113L35.4059 23.4059ZM34.3249 22.4421L34.8474 21.5894L34.3249 22.4421ZM25.638 41.673L25.184 42.564L25.638 41.673ZM24.327 40.362L23.436 40.816L24.327 40.362ZM38.362 41.673L38.816 42.564L38.362 41.673ZM39.673 40.362L40.564 40.816L39.673 40.362ZM24.327 23.638L23.436 23.184L24.327 23.638ZM25.638 22.327L25.184 21.436L25.638 22.327ZM35 22.2695C35 21.7172 34.5523 21.2695 34 21.2695C33.4477 21.2695 33 21.7172 33 22.2695H35ZM39.7305 29C40.2828 29 40.7305 28.5523 40.7305 28C40.7305 27.4477 40.2828 27 39.7305 27V29ZM34.109 27.454L35 27V27L34.109 27.454ZM34.546 27.891L35 27L34.546 27.891ZM35.2 41H28.8V43H35.2V41ZM25 37.2V26.8H23V37.2H25ZM28.8 23H32.0118V21H28.8V23ZM39 29.9882V37.2H41V29.9882H39ZM34.6988 24.113L37.887 27.3012L39.3012 25.887L36.113 22.6988L34.6988 24.113ZM41 29.9882C41 29.3021 41.0064 28.796 40.8895 28.3089L38.9447 28.7757C38.9936 28.9792 39 29.2069 39 29.9882H41ZM37.887 27.3012C38.4395 27.8537 38.596 28.0193 38.7053 28.1976L40.4106 27.1526C40.1488 26.7255 39.7864 26.3722 39.3012 25.887L37.887 27.3012ZM40.8895 28.3089C40.7915 27.9007 40.6299 27.5105 40.4106 27.1526L38.7053 28.1976C38.8149 28.3766 38.8957 28.5717 38.9447 28.7757L40.8895 28.3089ZM32.0118 23C32.7931 23 33.0208 23.0064 33.2242 23.0553L33.6911 21.1105C33.204 20.9936 32.6979 21 32.0118 21V23ZM36.113 22.6988C35.6278 22.2136 35.2745 21.8512 34.8474 21.5894L33.8024 23.2947C33.9807 23.404 34.1463 23.5605 34.6988 24.113L36.113 22.6988ZM33.2242 23.0553C33.4283 23.1043 33.6234 23.1851 33.8024 23.2947L34.8474 21.5894C34.4895 21.3701 34.0993 21.2085 33.6911 21.1105L33.2242 23.0553ZM28.8 41C27.9434 41 27.3611 40.9992 26.911 40.9624C26.4726 40.9266 26.2484 40.8617 26.092 40.782L25.184 42.564C25.6694 42.8113 26.1861 42.9099 26.7482 42.9558C27.2986 43.0008 27.9764 43 28.8 43V41ZM23 37.2C23 38.0236 22.9992 38.7014 23.0442 39.2518C23.0901 39.8139 23.1887 40.3306 23.436 40.816L25.218 39.908C25.1383 39.7516 25.0734 39.5274 25.0376 39.089C25.0008 38.6389 25 38.0566 25 37.2H23ZM26.092 40.782C25.7157 40.5903 25.4097 40.2843 25.218 39.908L23.436 40.816C23.8195 41.5686 24.4314 42.1805 25.184 42.564L26.092 40.782ZM35.2 43C36.0236 43 36.7014 43.0008 37.2518 42.9558C37.8139 42.9099 38.3306 42.8113 38.816 42.564L37.908 40.782C37.7516 40.8617 37.5274 40.9266 37.089 40.9624C36.6389 40.9992 36.0566 41 35.2 41V43ZM39 37.2C39 38.0566 38.9992 38.6389 38.9624 39.089C38.9266 39.5274 38.8617 39.7516 38.782 39.908L40.564 40.816C40.8113 40.3306 40.9099 39.8139 40.9558 39.2518C41.0008 38.7014 41 38.0236 41 37.2H39ZM38.816 42.564C39.5686 42.1805 40.1805 41.5686 40.564 40.816L38.782 39.908C38.5903 40.2843 38.2843 40.5903 37.908 40.782L38.816 42.564ZM25 26.8C25 25.9434 25.0008 25.3611 25.0376 24.911C25.0734 24.4726 25.1383 24.2484 25.218 24.092L23.436 23.184C23.1887 23.6694 23.0901 24.1861 23.0442 24.7482C22.9992 25.2986 23 25.9764 23 26.8H25ZM28.8 21C27.9764 21 27.2986 20.9992 26.7482 21.0442C26.1861 21.0901 25.6694 21.1887 25.184 21.436L26.092 23.218C26.2484 23.1383 26.4726 23.0734 26.911 23.0376C27.3611 23.0008 27.9434 23 28.8 23V21ZM25.218 24.092C25.4097 23.7157 25.7157 23.4097 26.092 23.218L25.184 21.436C24.4314 21.8195 23.8195 22.4314 23.436 23.184L25.218 24.092ZM33 22.2695V26.4H35V22.2695H33ZM35.6 29H39.7305V27H35.6V29ZM33 26.4C33 26.6635 32.9992 26.9213 33.0169 27.1382C33.0356 27.3668 33.0797 27.6366 33.218 27.908L35 27C35.0293 27.0575 35.0189 27.0803 35.0103 26.9754C35.0008 26.8588 35 26.6965 35 26.4H33ZM35.6 27C35.3035 27 35.1412 26.9992 35.0246 26.9897C34.9197 26.9811 34.9425 26.9707 35 27L34.092 28.782C34.3634 28.9203 34.6332 28.9644 34.8618 28.9831C35.0787 29.0008 35.3365 29 35.6 29V27ZM33.218 27.908C33.4097 28.2843 33.7157 28.5903 34.092 28.782L35 27V27L33.218 27.908Z" fill="#171717"/>
</svg>
