<svg width="64" height="64" viewBox="0 0 64 64" fill="none" xmlns="http://www.w3.org/2000/svg">
<circle cx="32" cy="32" r="32" fill="#FFE603"/>
<path d="M40.9856 28.1525C41.4684 27.8843 41.6423 27.2755 41.3741 26.7927C41.1059 26.3099 40.4971 26.136 40.0143 26.4042L40.9856 28.1525ZM23.9856 26.4042C23.5028 26.136 22.894 26.3099 22.6258 26.7927C22.3576 27.2755 22.5315 27.8843 23.0143 28.1525L23.9856 26.4042ZM31 41.5006C31 42.0529 31.4477 42.5006 32 42.5006C32.5523 42.5006 33 42.0529 33 41.5006L31 41.5006ZM40.9495 36.7259L41.899 37.0396L40.9495 36.7259ZM40.177 37.4578L40.6627 38.3319L40.177 37.4578ZM40.7354 37.0898L41.4707 37.7675L40.7354 37.0898ZM31.223 41.5689L30.7373 42.443L31.223 41.5689ZM31.7986 41.8361L32 40.8566L31.7986 41.8361ZM32.777 41.5689L32.2914 40.6947H32.2914L32.777 41.5689ZM32.2015 41.8361L32.4029 42.8156L32.2015 41.8361ZM23.0505 27.2753L22.101 26.9615L23.0505 27.2753ZM23.823 26.5434L24.3086 27.4175H24.3086L23.823 26.5434ZM23.2646 26.9113L22.5293 26.2336L23.2646 26.9113ZM23.0505 36.7259L22.101 37.0396L23.0505 36.7259ZM23.823 37.4578L23.3373 38.3319L23.823 37.4578ZM23.2646 37.0898L24 36.4122L23.2646 37.0898ZM40.177 26.5434L40.6627 25.6692L40.177 26.5434ZM40.7354 26.9113L40 27.589L40.7354 26.9113ZM40.9495 27.2753L41.899 26.9615L40.9495 27.2753ZM32.777 22.4323L32.2914 23.3064L32.777 22.4323ZM32.2015 22.165L32 23.1445L32.2015 22.165ZM31.223 22.4323L30.7373 21.5581V21.5581L31.223 22.4323ZM31.7986 22.165L32 23.1445L31.7986 22.165ZM40.0143 26.4042L31.5143 31.1264L32.4856 32.8747L40.9856 28.1525L40.0143 26.4042ZM32.4856 31.1264L23.9856 26.4042L23.0143 28.1525L31.5143 32.8747L32.4856 31.1264ZM31 32.0005L31 41.5006L33 41.5006L33 32.0005L31 32.0005ZM32.2914 23.3064L39.6914 27.4175L40.6627 25.6692L33.2627 21.5581L32.2914 23.3064ZM24 36.0591V27.942H22V36.0591H24ZM24.3086 27.4175L31.7086 23.3064L30.7373 21.5581L23.3373 25.6692L24.3086 27.4175ZM31.7086 40.6947L24.3086 36.5836L23.3373 38.3319L30.7373 42.443L31.7086 40.6947ZM40 27.942V36.0591H42V27.942H40ZM39.6914 36.5836L32.2914 40.6947L33.2627 42.443L40.6627 38.3319L39.6914 36.5836ZM40 36.0591C40 36.2421 39.9996 36.3358 39.9955 36.4036C39.9921 36.4599 39.9884 36.4474 40 36.4122L41.899 37.0396C42.012 36.6977 42 36.333 42 36.0591H40ZM40.6627 38.3319C40.902 38.199 41.2267 38.0323 41.4707 37.7675L40 36.4122C40.0251 36.3849 40.0379 36.3821 39.9903 36.4124C39.933 36.4489 39.8513 36.4948 39.6914 36.5836L40.6627 38.3319ZM40 36.4122V36.4122L41.4707 37.7675C41.6637 37.5581 41.8097 37.31 41.899 37.0396L40 36.4122ZM30.7373 42.443C30.9643 42.5692 31.2612 42.7465 31.5971 42.8156L32 40.8566C32.0342 40.8636 32.0428 40.8723 31.9952 40.8493C31.9375 40.8215 31.8602 40.7789 31.7086 40.6947L30.7373 42.443ZM32.2914 40.6947C32.1398 40.7789 32.0625 40.8215 32.0048 40.8493C31.9572 40.8723 31.9658 40.8636 32 40.8566L32.4029 42.8156C32.7388 42.7465 33.0357 42.5692 33.2627 42.443L32.2914 40.6947ZM31.5971 42.8156C31.8629 42.8703 32.1371 42.8703 32.4029 42.8156L32 40.8566L31.5971 42.8156ZM24 27.942C24 27.759 24.0004 27.6654 24.0045 27.5976C24.0079 27.5413 24.0116 27.5538 24 27.589L22.101 26.9615C21.988 27.3035 22 27.6682 22 27.942H24ZM23.3373 25.6692C23.098 25.8022 22.7733 25.9688 22.5293 26.2336L24 27.589C23.9749 27.6162 23.9621 27.619 24.0097 27.5887C24.067 27.5522 24.1487 27.5064 24.3086 27.4175L23.3373 25.6692ZM24 27.589V27.589L22.5293 26.2336C22.3363 26.443 22.1903 26.6912 22.101 26.9615L24 27.589ZM22 36.0591C22 36.3329 21.988 36.6977 22.101 37.0396L24 36.4122C24.0116 36.4474 24.0079 36.4599 24.0045 36.4036C24.0004 36.3358 24 36.2421 24 36.0591H22ZM24.3086 36.5836C24.1487 36.4948 24.067 36.4489 24.0097 36.4124C23.9621 36.3821 23.9749 36.3849 24 36.4122L22.5293 37.7675C22.7733 38.0323 23.098 38.199 23.3373 38.3319L24.3086 36.5836ZM22.101 37.0396C22.1903 37.31 22.3363 37.5581 22.5293 37.7675L24 36.4122V36.4122L22.101 37.0396ZM39.6914 27.4175C39.8513 27.5064 39.933 27.5522 39.9903 27.5887C40.0379 27.619 40.0251 27.6162 40 27.589L41.4707 26.2336C41.2267 25.9688 40.902 25.8022 40.6627 25.6692L39.6914 27.4175ZM42 27.942C42 27.6682 42.012 27.3035 41.899 26.9615L40 27.589C39.9884 27.5538 39.9921 27.5413 39.9955 27.5976C39.9996 27.6654 40 27.759 40 27.942H42ZM40 27.589V27.589L41.899 26.9615C41.8097 26.6912 41.6637 26.443 41.4707 26.2336L40 27.589ZM33.2627 21.5581C33.0357 21.432 32.7388 21.2546 32.4029 21.1855L32 23.1445C31.9658 23.1375 31.9572 23.1289 32.0048 23.1519C32.0625 23.1797 32.1398 23.2222 32.2914 23.3064L33.2627 21.5581ZM31.7086 23.3064C31.8602 23.2222 31.9375 23.1797 31.9952 23.1519C32.0428 23.1289 32.0342 23.1375 32 23.1445L31.5971 21.1855C31.2612 21.2546 30.9643 21.432 30.7373 21.5581L31.7086 23.3064ZM32.4029 21.1855C32.1371 21.1309 31.8629 21.1309 31.5971 21.1855L32 23.1445L32.4029 21.1855Z" fill="#171717"/>
<path d="M36.5 29.5L27.5 24.5" stroke="#171717" stroke-width="2" stroke-linecap="round" stroke-linejoin="round"/>
</svg>
