<svg width="64" height="64" viewBox="0 0 64 64" fill="none" xmlns="http://www.w3.org/2000/svg">
<circle cx="32" cy="32" r="32" fill="#FFE603"/>
<path d="M30.7326 35.7076L30.1918 34.8664L30.7326 35.7076ZM29.9644 36.0829L29.8931 37.0804L29.9644 36.0829ZM29.5997 35.8838L30.4003 35.2845L29.5997 35.8838ZM35.4532 31.3271L35.994 30.4859L35.4532 31.3271ZM36.0359 31.8054L36.9571 31.4162L36.0359 31.8054ZM35.4532 32.6729L35.994 33.5141L35.4532 32.6729ZM36.0359 32.1946L36.9571 32.5838L36.0359 32.1946ZM30.7326 28.2924L30.1918 29.1336L30.7326 28.2924ZM29.9644 27.9171L29.8931 26.9196L29.9644 27.9171ZM29.5997 28.1162L30.4003 28.7155L29.5997 28.1162ZM41 32C41 36.9706 36.9706 41 32 41V43C38.0751 43 43 38.0751 43 32H41ZM32 41C27.0294 41 23 36.9706 23 32H21C21 38.0751 25.9249 43 32 43V41ZM23 32C23 27.0294 27.0294 23 32 23V21C25.9249 21 21 25.9249 21 32H23ZM32 23C36.9706 23 41 27.0294 41 32H43C43 25.9249 38.0751 21 32 21V23ZM30.1918 29.1336L34.9124 32.1682L35.994 30.4859L31.2734 27.4512L30.1918 29.1336ZM34.9124 31.8318L30.1918 34.8664L31.2734 36.5488L35.994 33.5141L34.9124 31.8318ZM30.5 35.0347V28.9653H28.5V35.0347H30.5ZM30.1918 34.8664C30.0894 34.9323 30.0093 34.9837 29.9402 35.0265C29.8705 35.0697 29.8268 35.0947 29.7985 35.1094C29.7689 35.1248 29.7775 35.1176 29.8119 35.1074C29.8509 35.0957 29.9303 35.0779 30.0356 35.0854L29.8931 37.0804C30.2611 37.1066 30.5582 36.9687 30.7219 36.8835C30.8934 36.7943 31.0893 36.6671 31.2734 36.5488L30.1918 34.8664ZM28.5 35.0347C28.5 35.2535 28.499 35.4871 28.5166 35.6796C28.5335 35.8633 28.5781 36.1878 28.7992 36.4831L30.4003 35.2845C30.4635 35.369 30.4915 35.4454 30.5028 35.4846C30.5128 35.5191 30.5113 35.5301 30.5083 35.497C30.5054 35.4652 30.5028 35.4149 30.5014 35.333C30.5 35.2516 30.5 35.1565 30.5 35.0347H28.5ZM30.0356 35.0854C30.1803 35.0958 30.3133 35.1684 30.4003 35.2845L28.7992 36.4831C29.06 36.8314 29.4591 37.0494 29.8931 37.0804L30.0356 35.0854ZM34.9124 32.1682C35.0017 32.2256 35.07 32.2696 35.1277 32.3081C35.1857 32.3468 35.2187 32.3706 35.2377 32.3854C35.2572 32.4006 35.2451 32.3934 35.221 32.3664C35.1939 32.3358 35.1503 32.2786 35.1148 32.1946L36.9571 31.4162C36.8273 31.1089 36.6071 30.917 36.4676 30.8083C36.3285 30.6998 36.1519 30.5874 35.994 30.4859L34.9124 32.1682ZM35.994 33.5141C36.1519 33.4126 36.3285 33.3002 36.4676 33.1917C36.6071 33.083 36.8273 32.8911 36.9571 32.5838L35.1148 31.8054C35.1503 31.7214 35.1939 31.6642 35.221 31.6336C35.2451 31.6066 35.2572 31.5994 35.2377 31.6146C35.2187 31.6294 35.1857 31.6532 35.1277 31.6919C35.07 31.7304 35.0017 31.7744 34.9124 31.8318L35.994 33.5141ZM35.1148 32.1946C35.0622 32.0702 35.0622 31.9298 35.1148 31.8054L36.9571 32.5838C37.1148 32.2106 37.1148 31.7894 36.9571 31.4162L35.1148 32.1946ZM31.2734 27.4512C31.0893 27.3329 30.8934 27.2057 30.7219 27.1165C30.5582 27.0313 30.2611 26.8934 29.8931 26.9196L30.0356 28.9146C29.9303 28.9221 29.8509 28.9043 29.8119 28.8926C29.7775 28.8824 29.7689 28.8752 29.7985 28.8906C29.8268 28.9053 29.8705 28.9303 29.9402 28.9735C30.0093 29.0163 30.0894 29.0677 30.1918 29.1336L31.2734 27.4512ZM30.5 28.9653C30.5 28.8435 30.5 28.7484 30.5014 28.667C30.5028 28.5851 30.5054 28.5348 30.5083 28.503C30.5113 28.4699 30.5128 28.4809 30.5028 28.5154C30.4915 28.5546 30.4635 28.631 30.4003 28.7155L28.7992 27.5169C28.5781 27.8122 28.5335 28.1367 28.5166 28.3204C28.499 28.5129 28.5 28.7465 28.5 28.9653H30.5ZM29.8931 26.9196C29.4591 26.9506 29.06 27.1686 28.7992 27.5169L30.4003 28.7155C30.3133 28.8316 30.1803 28.9042 30.0356 28.9146L29.8931 26.9196Z" fill="#171717"/>
</svg>
