<svg width="64" height="64" viewBox="0 0 64 64" fill="none" xmlns="http://www.w3.org/2000/svg">
<circle cx="32" cy="32" r="32" fill="#FFE603"/>
<path d="M32 37.5H32.01M27.2 42H36.8C37.9201 42 38.4802 42 38.908 41.782C39.2843 41.5903 39.5903 41.2843 39.782 40.908C40 40.4802 40 39.9201 40 38.8V25.2C40 24.0799 40 23.5198 39.782 23.092C39.5903 22.7157 39.2843 22.4097 38.908 22.218C38.4802 22 37.9201 22 36.8 22H27.2C26.0799 22 25.5198 22 25.092 22.218C24.7157 22.4097 24.4097 22.7157 24.218 23.092C24 23.5198 24 24.0799 24 25.2V38.8C24 39.9201 24 40.4802 24.218 40.908C24.4097 41.2843 24.7157 41.5903 25.092 41.782C25.5198 42 26.0799 42 27.2 42ZM32.5 37.5C32.5 37.7761 32.2761 38 32 38C31.7239 38 31.5 37.7761 31.5 37.5C31.5 37.2239 31.7239 37 32 37C32.2761 37 32.5 37.2239 32.5 37.5Z" stroke="#171717" stroke-width="2" stroke-linecap="round" stroke-linejoin="round"/>
</svg>
