<svg width="64" height="64" viewBox="0 0 64 64" fill="none" xmlns="http://www.w3.org/2000/svg">
<circle cx="32" cy="32" r="32" fill="#FFE603"/>
<path d="M37 32L36.2929 31.2929C36.1054 31.4804 36 31.7348 36 32C36 32.2652 36.1054 32.5196 36.2929 32.7071L37 32ZM41.4608 36.2914L41.5392 35.2944L41.4608 36.2914ZM41.8802 36.1176L41.1198 35.4682L41.8802 36.1176ZM40.6343 28.3657L41.3414 29.0728V29.0728L40.6343 28.3657ZM41.4608 27.7086L41.5392 28.7056L41.4608 27.7086ZM41.8802 27.8824L41.1198 28.5318L41.8802 27.8824ZM23.638 38.673L23.184 39.564L23.638 38.673ZM22.327 37.362L21.436 37.816L22.327 37.362ZM36.673 37.362L37.564 37.816L36.673 37.362ZM35.362 38.673L35.816 39.564L35.362 38.673ZM35.362 25.327L35.816 24.436L35.362 25.327ZM36.673 26.638L37.564 26.184L36.673 26.638ZM23.638 25.327L23.184 24.436L23.638 25.327ZM22.327 26.638L21.436 26.184L22.327 26.638ZM39.9272 27.6586L36.2929 31.2929L37.7071 32.7071L41.3414 29.0728L39.9272 27.6586ZM36.2929 32.7071L39.9272 36.3414L41.3414 34.9272L37.7071 31.2929L36.2929 32.7071ZM43 35.0686V28.9314H41V35.0686H43ZM39.9272 36.3414C40.1274 36.5416 40.325 36.7406 40.4973 36.8848C40.6442 37.0078 40.9537 37.2545 41.3823 37.2883L41.5392 35.2944C41.6736 35.305 41.7634 35.3486 41.7944 35.3656C41.8222 35.3808 41.8212 35.3848 41.7812 35.3513C41.7434 35.3197 41.6907 35.2716 41.6139 35.1972C41.5377 35.1235 41.4502 35.036 41.3414 34.9272L39.9272 36.3414ZM41 35.0686C41 35.2225 41 35.3462 40.9983 35.4522C40.9965 35.5591 40.9933 35.6304 40.9889 35.6794C40.9843 35.7314 40.9808 35.7294 40.9897 35.699C40.9996 35.665 41.0322 35.5707 41.1198 35.4682L42.6406 36.7671C42.9198 36.4401 42.9642 36.0469 42.9811 35.856C43.001 35.6322 43 35.3518 43 35.0686H41ZM41.3823 37.2883C41.861 37.3259 42.3288 37.1322 42.6406 36.7671L41.1198 35.4682C41.2237 35.3465 41.3797 35.2819 41.5392 35.2944L41.3823 37.2883ZM41.3414 29.0728C41.4502 28.964 41.5377 28.8765 41.6139 28.8028C41.6907 28.7284 41.7434 28.6803 41.7812 28.6487C41.8212 28.6152 41.8222 28.6192 41.7944 28.6344C41.7634 28.6514 41.6736 28.695 41.5392 28.7056L41.3823 26.7117C40.9537 26.7455 40.6442 26.9922 40.4973 27.1152C40.325 27.2594 40.1274 27.4584 39.9272 27.6586L41.3414 29.0728ZM43 28.9314C43 28.6482 43.001 28.3678 42.9811 28.144C42.9642 27.9531 42.9198 27.5599 42.6406 27.2329L41.1198 28.5318C41.0322 28.4293 40.9996 28.335 40.9897 28.301C40.9808 28.2706 40.9843 28.2686 40.9889 28.3206C40.9933 28.3696 40.9965 28.4409 40.9983 28.5478C41 28.6538 41 28.7775 41 28.9314H43ZM41.5392 28.7056C41.3797 28.7181 41.2237 28.6535 41.1198 28.5318L42.6406 27.2329C42.3288 26.8678 41.861 26.6741 41.3823 26.7117L41.5392 28.7056ZM26.8 26H32.2V24H26.8V26ZM36 29.8V34.2H38V29.8H36ZM32.2 38H26.8V40H32.2V38ZM23 34.2V29.8H21V34.2H23ZM26.8 38C25.9434 38 25.3611 37.9992 24.911 37.9624C24.4726 37.9266 24.2484 37.8617 24.092 37.782L23.184 39.564C23.6694 39.8113 24.1861 39.9099 24.7482 39.9558C25.2986 40.0008 25.9764 40 26.8 40V38ZM21 34.2C21 35.0236 20.9992 35.7014 21.0442 36.2518C21.0901 36.8139 21.1887 37.3306 21.436 37.816L23.218 36.908C23.1383 36.7516 23.0734 36.5274 23.0376 36.089C23.0008 35.6389 23 35.0566 23 34.2H21ZM24.092 37.782C23.7157 37.5903 23.4097 37.2843 23.218 36.908L21.436 37.816C21.8195 38.5686 22.4314 39.1805 23.184 39.564L24.092 37.782ZM36 34.2C36 35.0566 35.9992 35.6389 35.9624 36.089C35.9266 36.5274 35.8617 36.7516 35.782 36.908L37.564 37.816C37.8113 37.3306 37.9099 36.8139 37.9558 36.2518C38.0008 35.7014 38 35.0236 38 34.2H36ZM32.2 40C33.0236 40 33.7014 40.0008 34.2518 39.9558C34.8139 39.9099 35.3306 39.8113 35.816 39.564L34.908 37.782C34.7516 37.8617 34.5274 37.9266 34.089 37.9624C33.6389 37.9992 33.0566 38 32.2 38V40ZM35.782 36.908C35.5903 37.2843 35.2843 37.5903 34.908 37.782L35.816 39.564C36.5686 39.1805 37.1805 38.5686 37.564 37.816L35.782 36.908ZM32.2 26C33.0566 26 33.6389 26.0008 34.089 26.0376C34.5274 26.0734 34.7516 26.1383 34.908 26.218L35.816 24.436C35.3306 24.1887 34.8139 24.0901 34.2518 24.0442C33.7014 23.9992 33.0236 24 32.2 24V26ZM38 29.8C38 28.9764 38.0008 28.2986 37.9558 27.7482C37.9099 27.1861 37.8113 26.6694 37.564 26.184L35.782 27.092C35.8617 27.2484 35.9266 27.4726 35.9624 27.911C35.9992 28.3611 36 28.9434 36 29.8H38ZM34.908 26.218C35.2843 26.4097 35.5903 26.7157 35.782 27.092L37.564 26.184C37.1805 25.4314 36.5686 24.8195 35.816 24.436L34.908 26.218ZM26.8 24C25.9764 24 25.2986 23.9992 24.7482 24.0442C24.1861 24.0901 23.6694 24.1887 23.184 24.436L24.092 26.218C24.2484 26.1383 24.4726 26.0734 24.911 26.0376C25.3611 26.0008 25.9434 26 26.8 26V24ZM23 29.8C23 28.9434 23.0008 28.3611 23.0376 27.911C23.0734 27.4726 23.1383 27.2484 23.218 27.092L21.436 26.184C21.1887 26.6694 21.0901 27.1861 21.0442 27.7482C20.9992 28.2986 21 28.9764 21 29.8H23ZM23.184 24.436C22.4314 24.8195 21.8195 25.4314 21.436 26.184L23.218 27.092C23.4097 26.7157 23.7157 26.4097 24.092 26.218L23.184 24.436Z" fill="#171717"/>
</svg>
