<svg xmlns="http://www.w3.org/2000/svg" width="40" height="40" fill="none">
  <path fill="#161616" d="M36.348 28.409a2.371 2.371 0 0 0-2.261 1.667h-3.24v-7.77h1.63a7.147 7.147 0 0 0 .653 0 7.182 7.182 0 0 0 6.86-7.188 7.17 7.17 0 0 0-4.576-6.705 9.724 9.724 0 0 0-3.08-5.8A9.723 9.723 0 0 0 25.766.068a9.727 9.727 0 0 0-7.756 3.843 7.182 7.182 0 0 0-3.252-.776c-3.09 0-5.8 1.955-6.796 4.827a7.263 7.263 0 0 0-.758-.04c-3.968 0-7.196 3.228-7.196 7.196 0 3.967 3.228 7.196 7.196 7.196.12 0 .243-.004.368-.01.02.002.04.002.06.002h1.61v7.77H6.004a2.371 2.371 0 0 0-2.261-1.667 2.37 2.37 0 0 0-2.368 2.367 2.37 2.37 0 0 0 2.368 2.367 2.371 2.371 0 0 0 2.261-1.667h3.94a.7.7 0 0 0 .7-.7v-8.47h4.323V35.35c-.965.3-1.667 1.2-1.667 2.262a2.37 2.37 0 0 0 2.367 2.367 2.37 2.37 0 0 0 2.367-2.367 2.371 2.371 0 0 0-1.667-2.262V22.306h7.357V35.35c-.964.3-1.667 1.2-1.667 2.262a2.37 2.37 0 0 0 2.367 2.367 2.37 2.37 0 0 0 2.368-2.367 2.371 2.371 0 0 0-1.668-2.262V22.306h4.323v8.47a.7.7 0 0 0 .7.7h3.94c.3.965 1.2 1.667 2.262 1.667a2.37 2.37 0 0 0 2.367-2.367 2.37 2.37 0 0 0-2.367-2.367ZM3.742 31.743a.968.968 0 0 1 0-1.934.968.968 0 0 1 0 1.934Zm11.924 6.834a.968.968 0 0 1 0-1.933.968.968 0 0 1 0 1.933Zm8.757 0a.968.968 0 0 1 0-1.933.968.968 0 0 1 0 1.933ZM7.586 20.9a5.802 5.802 0 0 1-6.178-5.783 5.802 5.802 0 0 1 6.916-5.686.7.7 0 0 0 .814-.517 5.785 5.785 0 0 1 5.62-4.378c1.095 0 2.162.306 3.084.887a.7.7 0 0 0 .957-.206 8.335 8.335 0 0 1 6.967-3.749 8.312 8.312 0 0 1 8.308 7.528.7.7 0 0 0 .484.6 5.776 5.776 0 0 1 4.033 5.522 5.784 5.784 0 0 1-5.522 5.789h-.004a5.66 5.66 0 0 1-.572-.001H7.73a.702.702 0 0 0-.144-.006Zm28.762 10.843a.968.968 0 0 1 0-1.934.968.968 0 0 1 0 1.934Z" />
</svg>
