<svg width="40" height="40" viewBox="0 0 40 40" fill="none" xmlns="http://www.w3.org/2000/svg">
<path d="M17.5 28.75H5C4.33696 28.75 3.70107 28.4866 3.23223 28.0178C2.76339 27.5489 2.5 26.913 2.5 26.25V15C2.5 14.337 2.76339 13.7011 3.23223 13.2322C3.70107 12.7634 4.33696 12.5 5 12.5H17.5" stroke="#161616" stroke-width="2" stroke-linecap="round" stroke-linejoin="round"/>
<path d="M17.5 33.75H10" stroke="#161616" stroke-width="2" stroke-linecap="round" stroke-linejoin="round"/>
<path d="M36.25 6.25H23.75C23.0596 6.25 22.5 6.80964 22.5 7.5V32.5C22.5 33.1904 23.0596 33.75 23.75 33.75H36.25C36.9404 33.75 37.5 33.1904 37.5 32.5V7.5C37.5 6.80964 36.9404 6.25 36.25 6.25Z" stroke="#161616" stroke-width="2" stroke-linecap="round" stroke-linejoin="round"/>
<path d="M13.75 28.75V33.75" stroke="#161616" stroke-width="2" stroke-linecap="round" stroke-linejoin="round"/>
<path d="M30 30C31.0355 30 31.875 29.1605 31.875 28.125C31.875 27.0895 31.0355 26.25 30 26.25C28.9645 26.25 28.125 27.0895 28.125 28.125C28.125 29.1605 28.9645 30 30 30Z" fill="#161616"/>
</svg>
