<svg xmlns="http://www.w3.org/2000/svg" width="40" height="40" fill="none">
  <path fill="#161616" fillRule="evenodd" d="M4.071 13.954c2.611-2.612 6.705-5.248 12.543-5.248 5.888 0 10.002 2.682 12.61 5.315a1 1 0 0 1-1.421 1.407c-2.342-2.364-5.973-4.722-11.19-4.722-5.171 0-8.784 2.318-11.127 4.662a18.73 18.73 0 0 0-2.58 3.232 15.61 15.61 0 0 0-.59 1.015c.132.249.328.598.59 1.016.555.88 1.405 2.057 2.58 3.231 2.343 2.343 5.955 4.661 11.128 4.661a1 1 0 1 1 0 2c-5.838 0-9.932-2.636-12.543-5.247a20.727 20.727 0 0 1-2.857-3.58c-.308-.489-.536-.899-.689-1.19a11.558 11.558 0 0 1-.22-.442l-.012-.028-.004-.01-.002-.002v-.001l.913-.407a89.484 89.484 0 0 1-.913-.407v-.002l.002-.003.004-.008.012-.029a11.535 11.535 0 0 1 .22-.442c.153-.291.381-.701.69-1.19a20.733 20.733 0 0 1 2.856-3.581Zm-2.87 5.662-.915.406a1 1 0 0 1 0-.813l.914.407Zm15.413-4.505a4.505 4.505 0 1 0 0 9.01 1 1 0 1 1 0 2 6.505 6.505 0 1 1 5.995-9.033 1 1 0 1 1-1.843.778 4.506 4.506 0 0 0-4.152-2.755Zm10.84 3.673a7.309 7.309 0 1 0 0 14.618 7.309 7.309 0 0 0 0-14.618Zm-9.308 7.31a9.309 9.309 0 1 1 16.56 5.838l4.139 4.137a1 1 0 0 1-1.415 1.414l-4.138-4.138a9.27 9.27 0 0 1-5.837 2.057 9.309 9.309 0 0 1-9.309-9.309Z" clipRule="evenodd"/>
</svg>
