<svg xmlns="http://www.w3.org/2000/svg" width="26" height="32" fill="none">
  <path fill="#161616" d="m24.788 25.29-6.76-13.208V1.875h.919a.937.937 0 1 0 0-1.875H7.054a.938.938 0 0 0 0 1.875h.919v10.207l-6.76 13.207a4.578 4.578 0 0 0 .17 4.506A4.578 4.578 0 0 0 5.316 32h15.369a4.578 4.578 0 0 0 3.933-2.205 4.578 4.578 0 0 0 .17-4.506ZM9.745 12.734a.937.937 0 0 0 .103-.427V1.875h6.305v10.433c0 .148.035.294.103.427l2.608 5.096H7.136l2.609-5.096Zm10.94 17.39H5.316c-.96 0-1.832-.49-2.333-1.308a2.725 2.725 0 0 1-.244-2.347c.04-.11 3.438-6.764 3.438-6.764h13.647s3.348 6.545 3.372 6.6c.142.326.217.67.226 1.015a2.725 2.725 0 0 1-.404 1.496 2.716 2.716 0 0 1-2.333 1.308Z" />
</svg>
