<svg xmlns="http://www.w3.org/2000/svg" width="87" height="146" fill="none">
  <path fill="#B3B3B3" d="M43.367.116.289 15.314l6.807 56.578 36.316 20.01 36.503-20.28 6.805-56.577L43.367.116Z" />
  <path fill="#5E5E5E" d="M82.423 18.314 43.266 4.928v82.193L76.08 68.914l6.342-50.6Z" />
  <path fill="#878787" d="m5.121 18.556 5.833 50.6 32.31 17.965V4.927L5.12 18.555Z" />
  <path fill="#F2F2F2" d="m54.045 48.684-10.778 5.053h-11.36l-5.341 13.39-9.933.184L43.267 7.913l10.778 40.771Zm-1.041-2.544-9.666-19.182L35.41 45.81h7.856l9.738.33Z" />
  <path fill="#B3B3B3" d="m43.266 7.913.071 19.045 8.996 18.866h-9.047l-.02 7.9 12.51.012 5.846 13.577 9.504.177-27.86-59.577Z" />
  <path fill="#A0A0A0" d="M16.802 133.21H11.33L10.322 136H8.594l4.536-12.474h1.89L19.538 136H17.81l-1.008-2.79Zm-.468-1.332-2.268-6.336-2.268 6.336h4.536Zm9.987-5.922c1.2 0 2.172.366 2.916 1.098.744.72 1.116 1.764 1.116 3.132V136h-1.62v-5.58c0-.984-.246-1.734-.738-2.25-.492-.528-1.164-.792-2.016-.792-.864 0-1.554.27-2.07.81-.504.54-.756 1.326-.756 2.358V136h-1.638v-9.864h1.638v1.404a3.266 3.266 0 0 1 1.314-1.17 4.16 4.16 0 0 1 1.854-.414Zm10.776.018c.852 0 1.596.186 2.232.558.648.372 1.128.84 1.44 1.404v-1.8h1.656v10.08c0 .9-.192 1.698-.576 2.394a4.076 4.076 0 0 1-1.656 1.656c-.708.396-1.536.594-2.484.594-1.296 0-2.376-.306-3.24-.918-.864-.612-1.374-1.446-1.53-2.502h1.62c.18.6.552 1.08 1.116 1.44.564.372 1.242.558 2.034.558.9 0 1.632-.282 2.196-.846.576-.564.864-1.356.864-2.376v-2.07c-.324.576-.804 1.056-1.44 1.44-.636.384-1.38.576-2.232.576a4.564 4.564 0 0 1-2.394-.648c-.708-.432-1.266-1.038-1.674-1.818-.408-.78-.612-1.668-.612-2.664 0-1.008.204-1.89.612-2.646a4.446 4.446 0 0 1 1.674-1.782c.72-.42 1.518-.63 2.394-.63Zm3.672 5.076c0-.744-.15-1.392-.45-1.944a3.098 3.098 0 0 0-1.224-1.26 3.211 3.211 0 0 0-1.674-.45c-.612 0-1.17.144-1.674.432a3.134 3.134 0 0 0-1.206 1.26c-.3.552-.45 1.2-.45 1.944 0 .756.15 1.416.45 1.98.3.552.702.978 1.206 1.278a3.314 3.314 0 0 0 1.674.432c.612 0 1.17-.144 1.674-.432.516-.3.924-.726 1.224-1.278.3-.564.45-1.218.45-1.962Zm13.172-4.914V136h-1.638v-1.458c-.312.504-.75.9-1.314 1.188a4.047 4.047 0 0 1-1.836.414c-.768 0-1.458-.156-2.07-.468a3.582 3.582 0 0 1-1.458-1.44c-.348-.636-.522-1.41-.522-2.322v-5.778h1.62v5.562c0 .972.246 1.722.738 2.25.492.516 1.164.774 2.016.774.876 0 1.566-.27 2.07-.81.504-.54.756-1.326.756-2.358v-5.418h1.638Zm4.403-3.456V136h-1.638v-13.32h1.638Zm2.18 8.352c0-1.008.204-1.89.612-2.646a4.446 4.446 0 0 1 1.674-1.782c.72-.42 1.518-.63 2.394-.63.864 0 1.614.186 2.25.558.636.372 1.11.84 1.422 1.404v-1.8h1.656V136h-1.656v-1.836c-.324.576-.81 1.056-1.458 1.44-.636.372-1.38.558-2.232.558-.876 0-1.668-.216-2.376-.648-.708-.432-1.266-1.038-1.674-1.818-.408-.78-.612-1.668-.612-2.664Zm8.352.018c0-.744-.15-1.392-.45-1.944a3.098 3.098 0 0 0-1.224-1.26 3.211 3.211 0 0 0-1.674-.45c-.612 0-1.17.144-1.674.432a3.134 3.134 0 0 0-1.206 1.26c-.3.552-.45 1.2-.45 1.944 0 .756.15 1.416.45 1.98.3.552.702.978 1.206 1.278a3.314 3.314 0 0 0 1.674.432c.612 0 1.17-.144 1.674-.432.516-.3.924-.726 1.224-1.278.3-.564.45-1.218.45-1.962Zm6.062-3.312a3.16 3.16 0 0 1 1.224-1.314c.54-.312 1.194-.468 1.962-.468v1.692h-.432c-1.836 0-2.754.996-2.754 2.988V136H73.3v-9.864h1.638v1.602Z" />
</svg>
