<svg xmlns="http://www.w3.org/2000/svg" width="205" height="143" fill="none">
  <path fill="#6A6A6A" d="M79.633 35.426c0 1.29.14 2.335.383 3.102.279.767.627 1.603 1.115 2.51.175.278.244.557.244.801 0 .349-.209.697-.662 1.046l-2.196 1.464c-.313.209-.627.313-.906.313-.348 0-.697-.174-1.045-.488a10.774 10.774 0 0 1-1.255-1.638 26.947 26.947 0 0 1-1.08-2.056c-2.72 3.206-6.135 4.81-10.247 4.81-2.928 0-5.263-.837-6.971-2.51-1.708-1.673-2.58-3.904-2.58-6.692 0-2.962 1.046-5.367 3.172-7.18 2.126-1.812 4.95-2.718 8.54-2.718 1.184 0 2.404.104 3.694.279 1.29.174 2.614.453 4.008.766v-2.544c0-2.649-.558-4.496-1.638-5.576-1.115-1.08-2.998-1.604-5.681-1.604-1.22 0-2.475.14-3.764.453-1.29.314-2.545.697-3.765 1.185a9.99 9.99 0 0 1-1.22.453c-.243.07-.418.105-.557.105-.488 0-.732-.349-.732-1.08v-1.708c0-.558.07-.976.244-1.22s.488-.488.976-.732c1.22-.627 2.684-1.15 4.391-1.568 1.708-.454 3.52-.663 5.438-.663 4.147 0 7.18.941 9.131 2.823 1.917 1.883 2.893 4.74 2.893 8.574v11.293h.07Zm-14.15 5.298c1.15 0 2.334-.21 3.59-.628 1.254-.418 2.37-1.185 3.31-2.23.558-.663.976-1.394 1.185-2.23.21-.837.349-1.848.349-3.033v-1.464a29.095 29.095 0 0 0-3.207-.592 26.265 26.265 0 0 0-3.276-.21c-2.335 0-4.043.454-5.193 1.395-1.15.94-1.708 2.265-1.708 4.008 0 1.638.418 2.858 1.29 3.694.836.872 2.056 1.29 3.66 1.29Zm27.987 3.764c-.628 0-1.046-.105-1.325-.349-.279-.209-.523-.697-.732-1.359l-8.19-26.942c-.21-.697-.314-1.15-.314-1.394 0-.558.279-.871.836-.871h3.416c.662 0 1.115.104 1.36.348.278.21.487.697.696 1.36l5.856 23.073 5.437-23.073c.174-.697.383-1.15.662-1.36.279-.209.767-.348 1.394-.348h2.789c.662 0 1.115.104 1.394.348.279.21.523.697.662 1.36l5.507 23.352 6.029-23.352c.21-.697.454-1.15.698-1.36.278-.209.731-.348 1.359-.348h3.241c.558 0 .872.279.872.871 0 .174-.035.349-.07.558a5.01 5.01 0 0 1-.244.871l-8.4 26.942c-.209.697-.453 1.15-.732 1.36-.279.208-.732.348-1.324.348h-2.998c-.662 0-1.115-.105-1.394-.349-.279-.244-.523-.697-.662-1.394l-5.402-22.48-5.368 22.445c-.174.697-.383 1.15-.662 1.394s-.767.349-1.394.349H93.47Zm44.786.94c-1.812 0-3.624-.208-5.367-.626-1.743-.419-3.102-.872-4.008-1.395-.558-.313-.941-.662-1.081-.975a2.467 2.467 0 0 1-.209-.976v-1.778c0-.732.279-1.08.802-1.08.209 0 .418.035.627.104.209.07.523.21.872.349 1.185.523 2.474.94 3.833 1.22 1.395.279 2.754.418 4.148.418 2.196 0 3.904-.383 5.089-1.15 1.185-.767 1.812-1.882 1.812-3.311 0-.976-.314-1.778-.941-2.44-.627-.662-1.812-1.255-3.52-1.812l-5.054-1.569c-2.544-.802-4.426-1.987-5.577-3.555-1.15-1.534-1.742-3.241-1.742-5.054 0-1.464.313-2.753.941-3.868a8.964 8.964 0 0 1 2.509-2.858c1.046-.802 2.231-1.395 3.625-1.813 1.394-.418 2.858-.592 4.392-.592.766 0 1.568.034 2.335.139.801.105 1.533.244 2.265.383.697.175 1.359.349 1.987.558.627.21 1.115.418 1.464.627.488.28.836.558 1.045.872.209.279.314.662.314 1.15v1.638c0 .732-.279 1.115-.802 1.115-.278 0-.732-.139-1.324-.418-1.987-.906-4.217-1.36-6.692-1.36-1.987 0-3.555.315-4.635.977-1.081.662-1.639 1.673-1.639 3.102 0 .976.349 1.812 1.046 2.474.697.663 1.987 1.325 3.834 1.917l4.949 1.569c2.51.801 4.322 1.917 5.402 3.346 1.081 1.429 1.604 3.067 1.604 4.88 0 1.498-.314 2.857-.907 4.042-.627 1.185-1.463 2.23-2.544 3.067-1.08.872-2.37 1.499-3.869 1.952-1.568.488-3.206.732-4.984.732Z" />
  <path fill="#A3A3A3" fill-rule="evenodd" d="M144.845 62.368c-11.467 8.469-28.127 12.965-42.452 12.965-20.076 0-38.165-7.424-51.827-19.762-1.08-.976-.105-2.3 1.185-1.533 14.778 8.574 33.006 13.767 51.862 13.767 12.721 0 26.698-2.65 39.559-8.086 1.917-.872 3.555 1.255 1.673 2.649Z" clip-rule="evenodd" />
  <path fill="#A3A3A3" fill-rule="evenodd" d="M149.618 56.93c-1.464-1.882-9.689-.906-13.418-.453-1.116.14-1.29-.836-.279-1.568 6.552-4.6 17.322-3.276 18.577-1.743 1.254 1.569-.349 12.338-6.483 17.497-.941.801-1.847.383-1.429-.663 1.394-3.45 4.496-11.222 3.032-13.07Z" clip-rule="evenodd" />
  <path fill="#A0A0A0" d="M8.802 130.21H3.33L2.322 133H.594l4.536-12.474h1.89L11.538 133H9.81l-1.008-2.79Zm-.468-1.332-2.268-6.336-2.268 6.336h4.536Zm20.949-8.424L25.647 133H23.81l-2.916-10.098L17.87 133l-1.818.018-3.51-12.564h1.746l2.736 10.638 3.024-10.638h1.836l2.88 10.602 2.754-10.602h1.764Zm5.77 12.672c-.828 0-1.572-.144-2.231-.432-.649-.3-1.159-.708-1.53-1.224a3.178 3.178 0 0 1-.577-1.818h1.747c.06.588.3 1.086.72 1.494.431.396 1.055.594 1.871.594.78 0 1.393-.192 1.837-.576.456-.396.684-.9.684-1.512 0-.48-.133-.87-.396-1.17a2.53 2.53 0 0 0-.99-.684c-.397-.156-.93-.324-1.602-.504-.828-.216-1.494-.432-1.998-.648a3.318 3.318 0 0 1-1.279-1.008c-.348-.468-.521-1.092-.521-1.872 0-.684.174-1.29.521-1.818.348-.528.835-.936 1.458-1.224.636-.288 1.362-.432 2.178-.432 1.176 0 2.136.294 2.88.882.756.588 1.182 1.368 1.278 2.34h-1.8c-.06-.48-.311-.9-.755-1.26-.445-.372-1.032-.558-1.765-.558-.684 0-1.242.18-1.674.54-.431.348-.648.84-.648 1.476 0 .456.127.828.379 1.116.263.288.581.51.953.666.385.144.919.312 1.602.504.828.228 1.494.456 1.998.684.505.216.937.558 1.297 1.026.36.456.54 1.08.54 1.872 0 .612-.162 1.188-.486 1.728-.325.54-.804.978-1.44 1.314-.637.336-1.387.504-2.25.504Zm24.112-12.582V133h-1.638v-9.288L53.387 133h-1.152l-4.158-9.306V133h-1.638v-12.456h1.764l4.608 10.296 4.608-10.296h1.746Zm2.166 7.488c0-1.008.204-1.89.612-2.646a4.446 4.446 0 0 1 1.674-1.782c.72-.42 1.518-.63 2.394-.63.864 0 1.614.186 2.25.558.636.372 1.11.84 1.422 1.404v-1.8h1.656V133h-1.656v-1.836c-.324.576-.81 1.056-1.458 1.44-.636.372-1.38.558-2.232.558-.876 0-1.668-.216-2.376-.648-.708-.432-1.266-1.038-1.674-1.818-.408-.78-.612-1.668-.612-2.664Zm8.352.018c0-.744-.15-1.392-.45-1.944a3.098 3.098 0 0 0-1.224-1.26 3.211 3.211 0 0 0-1.674-.45c-.612 0-1.17.144-1.674.432a3.134 3.134 0 0 0-1.206 1.26c-.3.552-.45 1.2-.45 1.944 0 .756.15 1.416.45 1.98.3.552.702.978 1.206 1.278a3.314 3.314 0 0 0 1.674.432c.612 0 1.17-.144 1.674-.432.516-.3.924-.726 1.224-1.278.3-.564.45-1.218.45-1.962Zm3.812 0c0-1.02.204-1.908.612-2.664a4.407 4.407 0 0 1 1.692-1.782c.732-.42 1.566-.63 2.502-.63 1.212 0 2.208.294 2.988.882.792.588 1.314 1.404 1.566 2.448H81.09a2.518 2.518 0 0 0-.99-1.422c-.48-.348-1.08-.522-1.8-.522-.936 0-1.692.324-2.268.972-.576.636-.864 1.542-.864 2.718 0 1.188.288 2.106.864 2.754.576.648 1.332.972 2.268.972.72 0 1.32-.168 1.8-.504.48-.336.81-.816.99-1.44h1.764c-.264 1.008-.792 1.818-1.584 2.43-.792.6-1.782.9-2.97.9-.936 0-1.77-.21-2.502-.63a4.407 4.407 0 0 1-1.692-1.782c-.408-.768-.612-1.668-.612-2.7Zm16.441-5.094c.744 0 1.416.162 2.016.486.6.312 1.068.786 1.404 1.422.348.636.522 1.41.522 2.322V133h-1.62v-5.58c0-.984-.246-1.734-.738-2.25-.492-.528-1.164-.792-2.016-.792-.864 0-1.554.27-2.07.81-.504.54-.756 1.326-.756 2.358V133H85.04v-13.32h1.638v4.86a3.24 3.24 0 0 1 1.332-1.17c.576-.276 1.218-.414 1.926-.414Zm7.464-1.422c-.312 0-.576-.108-.792-.324a1.077 1.077 0 0 1-.324-.792c0-.312.108-.576.324-.792.216-.216.48-.324.792-.324.3 0 .552.108.756.324.216.216.324.48.324.792 0 .312-.108.576-.324.792a.998.998 0 0 1-.756.324Zm.792 1.602V133h-1.638v-9.864h1.638Zm7.598-.18c1.2 0 2.172.366 2.916 1.098.744.72 1.116 1.764 1.116 3.132V133h-1.62v-5.58c0-.984-.246-1.734-.738-2.25-.492-.528-1.164-.792-2.016-.792-.864 0-1.554.27-2.07.81-.504.54-.756 1.326-.756 2.358V133h-1.638v-9.864h1.638v1.404a3.266 3.266 0 0 1 1.314-1.17 4.16 4.16 0 0 1 1.854-.414Zm15.707 4.734c0 .312-.018.642-.054.99h-7.884c.06.972.39 1.734.99 2.286.612.54 1.35.81 2.214.81.708 0 1.296-.162 1.764-.486.48-.336.816-.78 1.008-1.332h1.764a4.284 4.284 0 0 1-1.584 2.322c-.792.588-1.776.882-2.952.882-.936 0-1.776-.21-2.52-.63a4.492 4.492 0 0 1-1.728-1.782c-.42-.78-.63-1.68-.63-2.7 0-1.02.204-1.914.612-2.682a4.254 4.254 0 0 1 1.71-1.764c.744-.42 1.596-.63 2.556-.63.936 0 1.764.204 2.484.612.72.408 1.272.972 1.656 1.692.396.708.594 1.512.594 2.412Zm-1.692-.342c0-.624-.138-1.158-.414-1.602a2.605 2.605 0 0 0-1.134-1.026c-.468-.24-.99-.36-1.566-.36-.828 0-1.536.264-2.124.792-.576.528-.906 1.26-.99 2.196h6.228Zm10.291 4.32h4.392V133h-6.03v-12.546h1.638v11.214Zm15.132-3.978c0 .312-.018.642-.054.99h-7.884c.06.972.39 1.734.99 2.286.612.54 1.35.81 2.214.81.708 0 1.296-.162 1.764-.486.48-.336.816-.78 1.008-1.332h1.764a4.284 4.284 0 0 1-1.584 2.322c-.792.588-1.776.882-2.952.882-.936 0-1.776-.21-2.52-.63a4.492 4.492 0 0 1-1.728-1.782c-.42-.78-.63-1.68-.63-2.7 0-1.02.204-1.914.612-2.682a4.254 4.254 0 0 1 1.71-1.764c.744-.42 1.596-.63 2.556-.63.936 0 1.764.204 2.484.612.72.408 1.272.972 1.656 1.692.396.708.594 1.512.594 2.412Zm-1.692-.342c0-.624-.138-1.158-.414-1.602a2.605 2.605 0 0 0-1.134-1.026c-.468-.24-.99-.36-1.566-.36-.828 0-1.536.264-2.124.792-.576.528-.906 1.26-.99 2.196h6.228Zm3.242.684c0-1.008.204-1.89.612-2.646a4.446 4.446 0 0 1 1.674-1.782c.72-.42 1.518-.63 2.394-.63.864 0 1.614.186 2.25.558.636.372 1.11.84 1.422 1.404v-1.8h1.656V133h-1.656v-1.836c-.324.576-.81 1.056-1.458 1.44-.636.372-1.38.558-2.232.558-.876 0-1.668-.216-2.376-.648-.708-.432-1.266-1.038-1.674-1.818-.408-.78-.612-1.668-.612-2.664Zm8.352.018c0-.744-.15-1.392-.45-1.944a3.098 3.098 0 0 0-1.224-1.26 3.211 3.211 0 0 0-1.674-.45c-.612 0-1.17.144-1.674.432a3.134 3.134 0 0 0-1.206 1.26c-.3.552-.45 1.2-.45 1.944 0 .756.15 1.416.45 1.98.3.552.702.978 1.206 1.278a3.314 3.314 0 0 0 1.674.432c.612 0 1.17-.144 1.674-.432.516-.3.924-.726 1.224-1.278.3-.564.45-1.218.45-1.962Zm6.062-3.312a3.16 3.16 0 0 1 1.224-1.314c.54-.312 1.194-.468 1.962-.468v1.692h-.432c-1.836 0-2.754.996-2.754 2.988V133h-1.638v-9.864h1.638v1.602Zm9.883-1.782c1.2 0 2.172.366 2.916 1.098.744.72 1.116 1.764 1.116 3.132V133h-1.62v-5.58c0-.984-.246-1.734-.738-2.25-.492-.528-1.164-.792-2.016-.792-.864 0-1.554.27-2.07.81-.504.54-.756 1.326-.756 2.358V133h-1.638v-9.864h1.638v1.404a3.266 3.266 0 0 1 1.314-1.17 4.16 4.16 0 0 1 1.854-.414Zm7.553-1.422c-.312 0-.576-.108-.792-.324a1.077 1.077 0 0 1-.324-.792c0-.312.108-.576.324-.792.216-.216.48-.324.792-.324.3 0 .552.108.756.324.216.216.324.48.324.792 0 .312-.108.576-.324.792a.998.998 0 0 1-.756.324Zm.792 1.602V133h-1.638v-9.864h1.638Zm7.598-.18c1.2 0 2.172.366 2.916 1.098.744.72 1.116 1.764 1.116 3.132V133h-1.62v-5.58c0-.984-.246-1.734-.738-2.25-.492-.528-1.164-.792-2.016-.792-.864 0-1.554.27-2.07.81-.504.54-.756 1.326-.756 2.358V133h-1.638v-9.864h1.638v1.404a3.266 3.266 0 0 1 1.314-1.17 4.16 4.16 0 0 1 1.854-.414Zm10.776.018c.852 0 1.596.186 2.232.558.648.372 1.128.84 1.44 1.404v-1.8h1.656v10.08c0 .9-.192 1.698-.576 2.394a4.076 4.076 0 0 1-1.656 1.656c-.708.396-1.536.594-2.484.594-1.296 0-2.376-.306-3.24-.918-.864-.612-1.374-1.446-1.53-2.502h1.62c.18.6.552 1.08 1.116 1.44.564.372 1.242.558 2.034.558.9 0 1.632-.282 2.196-.846.576-.564.864-1.356.864-2.376v-2.07c-.324.576-.804 1.056-1.44 1.44-.636.384-1.38.576-2.232.576a4.564 4.564 0 0 1-2.394-.648c-.708-.432-1.266-1.038-1.674-1.818-.408-.78-.612-1.668-.612-2.664 0-1.008.204-1.89.612-2.646a4.446 4.446 0 0 1 1.674-1.782c.72-.42 1.518-.63 2.394-.63Zm3.672 5.076c0-.744-.15-1.392-.45-1.944a3.098 3.098 0 0 0-1.224-1.26 3.211 3.211 0 0 0-1.674-.45c-.612 0-1.17.144-1.674.432a3.134 3.134 0 0 0-1.206 1.26c-.3.552-.45 1.2-.45 1.944 0 .756.15 1.416.45 1.98.3.552.702.978 1.206 1.278a3.314 3.314 0 0 0 1.674.432c.612 0 1.17-.144 1.674-.432.516-.3.924-.726 1.224-1.278.3-.564.45-1.218.45-1.962Z" />
</svg>
