<svg width="200" height="146" viewBox="0 0 200 146" fill="none" xmlns="http://www.w3.org/2000/svg">
<path d="M77.6327 38.426C77.6327 39.7156 77.7721 40.7612 78.0161 41.5279C78.2949 42.2947 78.6435 43.1312 79.1314 44.0374C79.3057 44.3162 79.3754 44.5951 79.3754 44.839C79.3754 45.1876 79.1663 45.5361 78.7132 45.8846L76.5174 47.3485C76.2037 47.5576 75.89 47.6622 75.6112 47.6622C75.2627 47.6622 74.9141 47.4879 74.5656 47.1742C74.0776 46.6514 73.6594 46.0938 73.3109 45.5361C72.9623 44.9436 72.6138 44.2814 72.2304 43.4797C69.5118 46.6863 66.0962 48.2895 61.9835 48.2895C59.0558 48.2895 56.7206 47.453 55.0128 45.7801C53.3049 44.1071 52.4336 41.8765 52.4336 39.0882C52.4336 36.1257 53.4792 33.7208 55.6053 31.9084C57.7313 30.096 60.5545 29.1898 64.1444 29.1898C65.3294 29.1898 66.5493 29.2944 67.8389 29.4686C69.1284 29.6429 70.4529 29.9217 71.847 30.2354V27.6911C71.847 25.0422 71.2894 23.195 70.2089 22.1145C69.0936 21.0341 67.2115 20.5113 64.5278 20.5113C63.3079 20.5113 62.0532 20.6507 60.7636 20.9644C59.474 21.278 58.2193 21.6614 56.9994 22.1494C56.4418 22.3934 56.0235 22.5328 55.7795 22.6025C55.5356 22.6722 55.3613 22.707 55.2219 22.707C54.7339 22.707 54.49 22.3585 54.49 21.6266V19.9188C54.49 19.3611 54.5597 18.9429 54.7339 18.6989C54.9082 18.4549 55.2219 18.2109 55.7098 17.967C56.9297 17.3396 58.3935 16.8168 60.1014 16.3986C61.8092 15.9455 63.6216 15.7363 65.5385 15.7363C69.6861 15.7363 72.7184 16.6774 74.6702 18.5595C76.5871 20.4416 77.563 23.2996 77.563 27.1334V38.426H77.6327ZM63.4822 43.7237C64.6323 43.7237 65.8174 43.5146 67.0721 43.0964C68.3268 42.6781 69.4421 41.9113 70.3832 40.8657C70.9408 40.2035 71.3591 39.4716 71.5682 38.6351C71.7773 37.7986 71.9167 36.7879 71.9167 35.6028V34.139C70.906 33.895 69.8255 33.6859 68.7102 33.5465C67.5949 33.4071 66.5144 33.3374 65.434 33.3374C63.0988 33.3374 61.391 33.7905 60.2408 34.7315C59.0906 35.6726 58.533 36.997 58.533 38.7397C58.533 40.3778 58.9512 41.5977 59.8225 42.4341C60.659 43.3055 61.8789 43.7237 63.4822 43.7237ZM91.4696 47.4879C90.8422 47.4879 90.424 47.3833 90.1451 47.1394C89.8663 46.9302 89.6223 46.4423 89.4132 45.7801L81.2226 18.8383C81.0135 18.1412 80.9089 17.6881 80.9089 17.4442C80.9089 16.8865 81.1878 16.5728 81.7454 16.5728H85.1611C85.8233 16.5728 86.2764 16.6774 86.5204 16.9214C86.7992 17.1305 87.0083 17.6184 87.2174 18.2806L93.0728 41.3537L98.51 18.2806C98.6842 17.5836 98.8934 17.1305 99.1722 16.9214C99.451 16.7122 99.939 16.5728 100.566 16.5728H103.355C104.017 16.5728 104.47 16.6774 104.749 16.9214C105.028 17.1305 105.272 17.6184 105.411 18.2806L110.918 41.6325L116.947 18.2806C117.157 17.5836 117.401 17.1305 117.645 16.9214C117.923 16.7122 118.376 16.5728 119.004 16.5728H122.245C122.803 16.5728 123.117 16.8516 123.117 17.4442C123.117 17.6184 123.082 17.7927 123.047 18.0018C123.012 18.2109 122.942 18.4898 122.803 18.8732L114.403 45.8149C114.194 46.512 113.95 46.9651 113.671 47.1742C113.392 47.3833 112.939 47.5228 112.347 47.5228H109.349C108.687 47.5228 108.234 47.4182 107.955 47.1742C107.676 46.9302 107.432 46.4771 107.293 45.7801L101.891 23.2995L96.5233 45.7452C96.3491 46.4423 96.1399 46.8954 95.8611 47.1394C95.5823 47.3833 95.0943 47.4879 94.467 47.4879H91.4696ZM136.256 48.4289C134.444 48.4289 132.632 48.2198 130.889 47.8016C129.146 47.3833 127.787 46.9302 126.881 46.4074C126.323 46.0938 125.94 45.7452 125.8 45.4315C125.661 45.1179 125.591 44.7693 125.591 44.4556V42.6781C125.591 41.9462 125.87 41.5977 126.393 41.5977C126.602 41.5977 126.811 41.6325 127.02 41.7022C127.229 41.7719 127.543 41.9113 127.892 42.0508C129.077 42.5736 130.366 42.9918 131.725 43.2706C133.12 43.5495 134.479 43.6889 135.873 43.6889C138.069 43.6889 139.777 43.3055 140.962 42.5387C142.147 41.7719 142.774 40.6566 142.774 39.2276C142.774 38.2517 142.46 37.4501 141.833 36.7879C141.206 36.1257 140.021 35.5331 138.313 34.9755L133.259 33.4071C130.715 32.6054 128.833 31.4204 127.682 29.852C126.532 28.3185 125.94 26.6106 125.94 24.7983C125.94 23.3344 126.253 22.0448 126.881 20.9295C127.508 19.8142 128.345 18.8383 129.39 18.0715C130.436 17.2699 131.621 16.6774 133.015 16.2591C134.409 15.8409 135.873 15.6666 137.407 15.6666C138.173 15.6666 138.975 15.7015 139.742 15.806C140.543 15.9106 141.275 16.05 142.007 16.1894C142.704 16.3637 143.366 16.538 143.994 16.7471C144.621 16.9562 145.109 17.1653 145.458 17.3744C145.946 17.6533 146.294 17.9321 146.503 18.2458C146.712 18.5246 146.817 18.908 146.817 19.396V21.0341C146.817 21.766 146.538 22.1494 146.015 22.1494C145.737 22.1494 145.283 22.01 144.691 21.7311C142.704 20.8249 140.474 20.3719 137.999 20.3719C136.012 20.3719 134.444 20.6855 133.364 21.3478C132.283 22.01 131.725 23.0207 131.725 24.4497C131.725 25.4256 132.074 26.2621 132.771 26.9243C133.468 27.5865 134.758 28.2488 136.605 28.8413L141.554 30.4097C144.064 31.2113 145.876 32.3266 146.956 33.7556C148.037 35.1846 148.56 36.8227 148.56 38.6351C148.56 40.1338 148.246 41.4931 147.653 42.6781C147.026 43.8631 146.19 44.9087 145.109 45.7452C144.029 46.6166 142.739 47.2439 141.24 47.697C139.672 48.185 138.034 48.4289 136.256 48.4289Z" fill="#6A6A6A"/>
<path fill-rule="evenodd" clip-rule="evenodd" d="M142.845 65.3676C131.378 73.837 114.718 78.3331 100.393 78.3331C80.3174 78.3331 62.2284 70.9093 48.5658 58.5712C47.4854 57.5953 48.4613 56.2708 49.7508 57.0376C64.5287 65.6116 82.7571 70.8048 101.613 70.8048C114.334 70.8048 128.311 68.1559 141.172 62.7187C143.089 61.8474 144.727 63.9735 142.845 65.3676Z" fill="#A3A3A3"/>
<path fill-rule="evenodd" clip-rule="evenodd" d="M147.618 59.9304C146.154 58.0483 137.929 59.0242 134.2 59.4773C133.084 59.6167 132.91 58.6408 133.921 57.9089C140.473 53.3082 151.243 54.6326 152.498 56.1662C153.752 57.7346 152.149 68.5043 146.015 73.6627C145.074 74.4643 144.168 74.046 144.586 73.0004C145.98 69.5499 149.082 61.7776 147.618 59.9304Z" fill="#A3A3A3"/>
<path d="M8.802 133.21H3.33L2.322 136H0.594L5.13 123.526H7.02L11.538 136H9.81L8.802 133.21ZM8.334 131.878L6.066 125.542L3.798 131.878H8.334ZM25.3769 125.956C26.1449 125.956 26.8289 126.118 27.4289 126.442C28.0289 126.754 28.5029 127.228 28.8509 127.864C29.1989 128.5 29.3729 129.274 29.3729 130.186V136H27.7529V130.42C27.7529 129.436 27.5069 128.686 27.0149 128.17C26.5349 127.642 25.8809 127.378 25.0529 127.378C24.2009 127.378 23.5229 127.654 23.0189 128.206C22.5149 128.746 22.2629 129.532 22.2629 130.564V136H20.6429V130.42C20.6429 129.436 20.3969 128.686 19.9049 128.17C19.4249 127.642 18.7709 127.378 17.9429 127.378C17.0909 127.378 16.4129 127.654 15.9089 128.206C15.4049 128.746 15.1529 129.532 15.1529 130.564V136H13.5149V126.136H15.1529V127.558C15.4769 127.042 15.9089 126.646 16.4489 126.37C17.0009 126.094 17.6069 125.956 18.2669 125.956C19.0949 125.956 19.8269 126.142 20.4629 126.514C21.0989 126.886 21.5729 127.432 21.8849 128.152C22.1609 127.456 22.6169 126.916 23.2529 126.532C23.8889 126.148 24.5969 125.956 25.3769 125.956ZM31.4478 131.032C31.4478 130.024 31.6518 129.142 32.0598 128.386C32.4678 127.618 33.0258 127.024 33.7338 126.604C34.4538 126.184 35.2518 125.974 36.1278 125.974C36.9918 125.974 37.7418 126.16 38.3778 126.532C39.0138 126.904 39.4878 127.372 39.7998 127.936V126.136H41.4558V136H39.7998V134.164C39.4758 134.74 38.9898 135.22 38.3418 135.604C37.7058 135.976 36.9618 136.162 36.1098 136.162C35.2338 136.162 34.4418 135.946 33.7338 135.514C33.0258 135.082 32.4678 134.476 32.0598 133.696C31.6518 132.916 31.4478 132.028 31.4478 131.032ZM39.7998 131.05C39.7998 130.306 39.6498 129.658 39.3498 129.106C39.0498 128.554 38.6418 128.134 38.1258 127.846C37.6218 127.546 37.0638 127.396 36.4518 127.396C35.8398 127.396 35.2818 127.54 34.7778 127.828C34.2738 128.116 33.8718 128.536 33.5718 129.088C33.2718 129.64 33.1218 130.288 33.1218 131.032C33.1218 131.788 33.2718 132.448 33.5718 133.012C33.8718 133.564 34.2738 133.99 34.7778 134.29C35.2818 134.578 35.8398 134.722 36.4518 134.722C37.0638 134.722 37.6218 134.578 38.1258 134.29C38.6418 133.99 39.0498 133.564 39.3498 133.012C39.6498 132.448 39.7998 131.794 39.7998 131.05ZM45.4479 134.65H50.2899V136H43.5759V134.65L48.3639 127.468H43.6119V126.136H50.2539V127.468L45.4479 134.65ZM56.7173 136.162C55.7933 136.162 54.9533 135.952 54.1973 135.532C53.4533 135.112 52.8653 134.518 52.4333 133.75C52.0133 132.97 51.8033 132.07 51.8033 131.05C51.8033 130.042 52.0193 129.154 52.4513 128.386C52.8953 127.606 53.4953 127.012 54.2513 126.604C55.0073 126.184 55.8533 125.974 56.7893 125.974C57.7253 125.974 58.5713 126.184 59.3273 126.604C60.0833 127.012 60.6773 127.6 61.1093 128.368C61.5533 129.136 61.7753 130.03 61.7753 131.05C61.7753 132.07 61.5473 132.97 61.0913 133.75C60.6473 134.518 60.0413 135.112 59.2733 135.532C58.5053 135.952 57.6533 136.162 56.7173 136.162ZM56.7173 134.722C57.3053 134.722 57.8573 134.584 58.3733 134.308C58.8893 134.032 59.3033 133.618 59.6153 133.066C59.9393 132.514 60.1013 131.842 60.1013 131.05C60.1013 130.258 59.9453 129.586 59.6333 129.034C59.3213 128.482 58.9133 128.074 58.4093 127.81C57.9053 127.534 57.3593 127.396 56.7713 127.396C56.1713 127.396 55.6193 127.534 55.1153 127.81C54.6233 128.074 54.2273 128.482 53.9273 129.034C53.6273 129.586 53.4773 130.258 53.4773 131.05C53.4773 131.854 53.6213 132.532 53.9093 133.084C54.2093 133.636 54.6053 134.05 55.0973 134.326C55.5893 134.59 56.1293 134.722 56.7173 134.722ZM68.735 125.956C69.935 125.956 70.907 126.322 71.651 127.054C72.395 127.774 72.767 128.818 72.767 130.186V136H71.147V130.42C71.147 129.436 70.901 128.686 70.409 128.17C69.917 127.642 69.245 127.378 68.393 127.378C67.529 127.378 66.839 127.648 66.323 128.188C65.819 128.728 65.567 129.514 65.567 130.546V136H63.929V126.136H65.567V127.54C65.891 127.036 66.329 126.646 66.881 126.37C67.445 126.094 68.063 125.956 68.735 125.956ZM96.0095 123.454L92.3735 136H90.5375L87.6215 125.902L84.5975 136L82.7795 136.018L79.2695 123.454H81.0155L83.7515 134.092L86.7755 123.454H88.6115L91.4915 134.056L94.2455 123.454H96.0095ZM106.802 130.69C106.802 131.002 106.784 131.332 106.748 131.68H98.864C98.924 132.652 99.254 133.414 99.854 133.966C100.466 134.506 101.204 134.776 102.068 134.776C102.776 134.776 103.364 134.614 103.832 134.29C104.312 133.954 104.648 133.51 104.84 132.958H106.604C106.34 133.906 105.812 134.68 105.02 135.28C104.228 135.868 103.244 136.162 102.068 136.162C101.132 136.162 100.292 135.952 99.548 135.532C98.816 135.112 98.24 134.518 97.82 133.75C97.4 132.97 97.19 132.07 97.19 131.05C97.19 130.03 97.394 129.136 97.802 128.368C98.21 127.6 98.78 127.012 99.512 126.604C100.256 126.184 101.108 125.974 102.068 125.974C103.004 125.974 103.832 126.178 104.552 126.586C105.272 126.994 105.824 127.558 106.208 128.278C106.604 128.986 106.802 129.79 106.802 130.69ZM105.11 130.348C105.11 129.724 104.972 129.19 104.696 128.746C104.42 128.29 104.042 127.948 103.562 127.72C103.094 127.48 102.572 127.36 101.996 127.36C101.168 127.36 100.46 127.624 99.872 128.152C99.296 128.68 98.966 129.412 98.882 130.348H105.11ZM110.602 127.972C110.938 127.384 111.43 126.904 112.078 126.532C112.726 126.16 113.464 125.974 114.292 125.974C115.18 125.974 115.978 126.184 116.686 126.604C117.394 127.024 117.952 127.618 118.36 128.386C118.768 129.142 118.972 130.024 118.972 131.032C118.972 132.028 118.768 132.916 118.36 133.696C117.952 134.476 117.388 135.082 116.668 135.514C115.96 135.946 115.168 136.162 114.292 136.162C113.44 136.162 112.69 135.976 112.042 135.604C111.406 135.232 110.926 134.758 110.602 134.182V136H108.964V122.68H110.602V127.972ZM117.298 131.032C117.298 130.288 117.148 129.64 116.848 129.088C116.548 128.536 116.14 128.116 115.624 127.828C115.12 127.54 114.562 127.396 113.95 127.396C113.35 127.396 112.792 127.546 112.276 127.846C111.772 128.134 111.364 128.56 111.052 129.124C110.752 129.676 110.602 130.318 110.602 131.05C110.602 131.794 110.752 132.448 111.052 133.012C111.364 133.564 111.772 133.99 112.276 134.29C112.792 134.578 113.35 134.722 113.95 134.722C114.562 134.722 115.12 134.578 115.624 134.29C116.14 133.99 116.548 133.564 116.848 133.012C117.148 132.448 117.298 131.788 117.298 131.032ZM129.905 136.126C129.077 136.126 128.333 135.982 127.673 135.694C127.025 135.394 126.515 134.986 126.143 134.47C125.771 133.942 125.579 133.336 125.567 132.652H127.313C127.373 133.24 127.613 133.738 128.033 134.146C128.465 134.542 129.089 134.74 129.905 134.74C130.685 134.74 131.297 134.548 131.741 134.164C132.197 133.768 132.425 133.264 132.425 132.652C132.425 132.172 132.293 131.782 132.029 131.482C131.765 131.182 131.435 130.954 131.039 130.798C130.643 130.642 130.109 130.474 129.437 130.294C128.609 130.078 127.943 129.862 127.439 129.646C126.947 129.43 126.521 129.094 126.161 128.638C125.813 128.17 125.639 127.546 125.639 126.766C125.639 126.082 125.813 125.476 126.161 124.948C126.509 124.42 126.995 124.012 127.619 123.724C128.255 123.436 128.981 123.292 129.797 123.292C130.973 123.292 131.933 123.586 132.677 124.174C133.433 124.762 133.859 125.542 133.955 126.514H132.155C132.095 126.034 131.843 125.614 131.399 125.254C130.955 124.882 130.367 124.696 129.635 124.696C128.951 124.696 128.393 124.876 127.961 125.236C127.529 125.584 127.313 126.076 127.313 126.712C127.313 127.168 127.439 127.54 127.691 127.828C127.955 128.116 128.273 128.338 128.645 128.494C129.029 128.638 129.563 128.806 130.247 128.998C131.075 129.226 131.741 129.454 132.245 129.682C132.749 129.898 133.181 130.24 133.541 130.708C133.901 131.164 134.081 131.788 134.081 132.58C134.081 133.192 133.919 133.768 133.595 134.308C133.271 134.848 132.791 135.286 132.155 135.622C131.519 135.958 130.769 136.126 129.905 136.126ZM145.491 130.69C145.491 131.002 145.473 131.332 145.437 131.68H137.553C137.613 132.652 137.943 133.414 138.543 133.966C139.155 134.506 139.893 134.776 140.757 134.776C141.465 134.776 142.053 134.614 142.521 134.29C143.001 133.954 143.337 133.51 143.529 132.958H145.293C145.029 133.906 144.501 134.68 143.709 135.28C142.917 135.868 141.933 136.162 140.757 136.162C139.821 136.162 138.981 135.952 138.237 135.532C137.505 135.112 136.929 134.518 136.509 133.75C136.089 132.97 135.879 132.07 135.879 131.05C135.879 130.03 136.083 129.136 136.491 128.368C136.899 127.6 137.469 127.012 138.201 126.604C138.945 126.184 139.797 125.974 140.757 125.974C141.693 125.974 142.521 126.178 143.241 126.586C143.961 126.994 144.513 127.558 144.897 128.278C145.293 128.986 145.491 129.79 145.491 130.69ZM143.799 130.348C143.799 129.724 143.661 129.19 143.385 128.746C143.109 128.29 142.731 127.948 142.251 127.72C141.783 127.48 141.261 127.36 140.685 127.36C139.857 127.36 139.149 127.624 138.561 128.152C137.985 128.68 137.655 129.412 137.571 130.348H143.799ZM149.292 127.738C149.58 127.174 149.988 126.736 150.516 126.424C151.056 126.112 151.71 125.956 152.478 125.956V127.648H152.046C150.21 127.648 149.292 128.644 149.292 130.636V136H147.654V126.136H149.292V127.738ZM158.04 134.488L161.1 126.136H162.846L158.976 136H157.068L153.198 126.136H154.962L158.04 134.488ZM165.304 124.534C164.992 124.534 164.728 124.426 164.512 124.21C164.296 123.994 164.188 123.73 164.188 123.418C164.188 123.106 164.296 122.842 164.512 122.626C164.728 122.41 164.992 122.302 165.304 122.302C165.604 122.302 165.856 122.41 166.06 122.626C166.276 122.842 166.384 123.106 166.384 123.418C166.384 123.73 166.276 123.994 166.06 124.21C165.856 124.426 165.604 124.534 165.304 124.534ZM166.096 126.136V136H164.458V126.136H166.096ZM168.276 131.05C168.276 130.03 168.48 129.142 168.888 128.386C169.296 127.618 169.86 127.024 170.58 126.604C171.312 126.184 172.146 125.974 173.082 125.974C174.294 125.974 175.29 126.268 176.07 126.856C176.862 127.444 177.384 128.26 177.636 129.304H175.872C175.704 128.704 175.374 128.23 174.882 127.882C174.402 127.534 173.802 127.36 173.082 127.36C172.146 127.36 171.39 127.684 170.814 128.332C170.238 128.968 169.95 129.874 169.95 131.05C169.95 132.238 170.238 133.156 170.814 133.804C171.39 134.452 172.146 134.776 173.082 134.776C173.802 134.776 174.402 134.608 174.882 134.272C175.362 133.936 175.692 133.456 175.872 132.832H177.636C177.372 133.84 176.844 134.65 176.052 135.262C175.26 135.862 174.27 136.162 173.082 136.162C172.146 136.162 171.312 135.952 170.58 135.532C169.86 135.112 169.296 134.518 168.888 133.75C168.48 132.982 168.276 132.082 168.276 131.05ZM188.822 130.69C188.822 131.002 188.804 131.332 188.768 131.68H180.884C180.944 132.652 181.274 133.414 181.874 133.966C182.486 134.506 183.224 134.776 184.088 134.776C184.796 134.776 185.384 134.614 185.852 134.29C186.332 133.954 186.668 133.51 186.86 132.958H188.624C188.36 133.906 187.832 134.68 187.04 135.28C186.248 135.868 185.264 136.162 184.088 136.162C183.152 136.162 182.312 135.952 181.568 135.532C180.836 135.112 180.26 134.518 179.84 133.75C179.42 132.97 179.21 132.07 179.21 131.05C179.21 130.03 179.414 129.136 179.822 128.368C180.23 127.6 180.8 127.012 181.532 126.604C182.276 126.184 183.128 125.974 184.088 125.974C185.024 125.974 185.852 126.178 186.572 126.586C187.292 126.994 187.844 127.558 188.228 128.278C188.624 128.986 188.822 129.79 188.822 130.69ZM187.13 130.348C187.13 129.724 186.992 129.19 186.716 128.746C186.44 128.29 186.062 127.948 185.582 127.72C185.114 127.48 184.592 127.36 184.016 127.36C183.188 127.36 182.48 127.624 181.892 128.152C181.316 128.68 180.986 129.412 180.902 130.348H187.13ZM194.476 136.162C193.72 136.162 193.042 136.036 192.442 135.784C191.842 135.52 191.368 135.16 191.02 134.704C190.672 134.236 190.48 133.702 190.444 133.102H192.136C192.184 133.594 192.412 133.996 192.82 134.308C193.24 134.62 193.786 134.776 194.458 134.776C195.082 134.776 195.574 134.638 195.934 134.362C196.294 134.086 196.474 133.738 196.474 133.318C196.474 132.886 196.282 132.568 195.898 132.364C195.514 132.148 194.92 131.938 194.116 131.734C193.384 131.542 192.784 131.35 192.316 131.158C191.86 130.954 191.464 130.66 191.128 130.276C190.804 129.88 190.642 129.364 190.642 128.728C190.642 128.224 190.792 127.762 191.092 127.342C191.392 126.922 191.818 126.592 192.37 126.352C192.922 126.1 193.552 125.974 194.26 125.974C195.352 125.974 196.234 126.25 196.906 126.802C197.578 127.354 197.938 128.11 197.986 129.07H196.348C196.312 128.554 196.102 128.14 195.718 127.828C195.346 127.516 194.842 127.36 194.206 127.36C193.618 127.36 193.15 127.486 192.802 127.738C192.454 127.99 192.28 128.32 192.28 128.728C192.28 129.052 192.382 129.322 192.586 129.538C192.802 129.742 193.066 129.91 193.378 130.042C193.702 130.162 194.146 130.3 194.71 130.456C195.418 130.648 195.994 130.84 196.438 131.032C196.882 131.212 197.26 131.488 197.572 131.86C197.896 132.232 198.064 132.718 198.076 133.318C198.076 133.858 197.926 134.344 197.626 134.776C197.326 135.208 196.9 135.55 196.348 135.802C195.808 136.042 195.184 136.162 194.476 136.162Z" fill="#A0A0A0"/>
</svg>
