<svg width="92" height="146" viewBox="0 0 92 146" fill="none" xmlns="http://www.w3.org/2000/svg">
<g>
<path d="M19.4766 0H23.6094V4.09687H27.4187V0H31.5516V12.3984H27.4187V8.26562H23.6453V12.3984H19.4766V0ZM37.0141 4.13281H33.3664V0H44.8125V4.13281H41.1469V12.3984H37.0141V4.13281ZM46.6273 0H50.9578L53.6172 4.36641L56.2766 0H60.607V12.3984H56.4742V6.25312L53.5812 10.7094L50.6883 6.25312V12.3984H46.6273V0ZM62.6555 0H66.7883V8.30156H72.6461V12.3984H62.6555" fill="black"/>
<path d="M19.3359 84.633L13.4062 18.0768H78.5969L72.6672 84.5971L45.9477 92.0002" fill="#5E5E5E"/>
<path d="M46 86.3398V23.5391H72.6477L67.5625 80.3203" fill="#878787"/>
<path d="M25.5156 31.6791H46V39.8369H34.4641L35.2188 48.1924H46V56.3322H27.7437L25.5156 31.6791ZM28.1031 60.4291H36.2969L36.8719 66.9517L46 69.3955V77.9127L29.2531 73.2408" fill="#EBEBEB"/>
<path d="M66.4133 31.6791H45.9648V39.8369H65.6586L66.4133 31.6791ZM64.9219 48.1924H45.9648V56.3502H56.0273L55.075 66.9517L45.9648 69.3955V77.8767L62.6758 73.2408" fill="white"/>
</g>
<path d="M34.052 123.454V136H32.414V130.312H26.024V136H24.386V123.454H26.024V128.962H32.414V123.454H34.052ZM44.5709 123.454V124.786H41.1509V136H39.5129V124.786H36.0749V123.454H44.5709ZM59.3132 123.544V136H57.6752V126.712L53.5352 136H52.3832L48.2252 126.694V136H46.5872V123.544H48.3512L52.9592 133.84L57.5672 123.544H59.3132ZM63.7291 134.668H68.1211V136H62.0911V123.454H63.7291V134.668Z" fill="#A0A0A0"/>
<defs>
<clipPath id="clip0_5535_15376">
<rect width="92" height="92" fill="white"/>
</clipPath>
</defs>
</svg>
