<svg xmlns="http://www.w3.org/2000/svg" width="180" height="145" fill="none">
  <path fill="#898989" d="M101.936 91.841h1.123l18.342-9.115.305-.429V9.539l-.305-.431L103.059 0h-1.137l.014 91.841Z" />
  <path fill="#727272" d="M78.065 91.841h-1.14L58.6 82.726l-.372-.636-.189-72.18.56-.802L76.926 0h1.154l-.014 91.841Z" />
  <path fill="gray" d="M76.957 0h26.082v91.841H76.957V0Z" />
  <path fill="#6A6A6A" d="m131 43.857-.62-.136-8.849-.82-.132.065-18.357-.73H76.958l-18.358.73V29.053l-.019.01.02-.04 18.358-4.228h26.083l18.357 4.227 6.749 3.566v-2.293l2.852-.31-.295-.572-9.031-6.417-.275.088-18.357-5.653H76.958L58.6 23.084V9.108L49 20.286v9.762l.074-.054 2.778.302v2.339L49 34.152v9.713l.074-.008 2.778.041v4.077l-2.396.036-.456-.044v9.718l2.852 1.524v2.366l-2.732.3-.12-.09v9.761l9.6 11.18V68.75l18.358 5.653h26.084l18.411-5.67.245.107 8.912-6.323.39-.63-2.852-.313v-2.319l-.374-.148-6.1 3.268-.221.458-18.411 4.203v.005H76.958v-.005L58.6 62.817V48.852l18.358.727v.018h26.084l18.357-.745.418.19 8.578-.733.605-.294-2.852-.04v-4.078l2.852-.04Z" />
  <path fill="gray" d="M121.398 68.75v13.976l9.601-11.18V61.85l-9.545 6.885-.056.016ZM121.398 62.847l.056-.013 9.545-5.102v-9.757l-9.601.878v13.994ZM121.454 29.035l-.056-.013v13.944l9.601.891v-9.752l-9.545-5.07ZM121.454 23.14l9.545 6.845v-9.697l-9.601-11.18v13.976l.056.02v.035Z" />
  <path fill="#A0A0A0" d="M8.802 132.21H3.33L2.322 135H.594l4.536-12.474h1.89L11.538 135H9.81l-1.008-2.79Zm-.468-1.332-2.268-6.336-2.268 6.336h4.536Zm17.043-5.922c.768 0 1.452.162 2.052.486.6.312 1.074.786 1.422 1.422.348.636.522 1.41.522 2.322V135h-1.62v-5.58c0-.984-.246-1.734-.738-2.25-.48-.528-1.134-.792-1.962-.792-.852 0-1.53.276-2.034.828-.504.54-.756 1.326-.756 2.358V135h-1.62v-5.58c0-.984-.246-1.734-.738-2.25-.48-.528-1.134-.792-1.962-.792-.852 0-1.53.276-2.034.828-.504.54-.756 1.326-.756 2.358V135h-1.638v-9.864h1.638v1.422a3.252 3.252 0 0 1 1.296-1.188 4.008 4.008 0 0 1 1.818-.414c.828 0 1.56.186 2.196.558.636.372 1.11.918 1.422 1.638a3.235 3.235 0 0 1 1.368-1.62 4.03 4.03 0 0 1 2.124-.576Zm6.07 5.076c0-1.008.205-1.89.613-2.646a4.446 4.446 0 0 1 1.674-1.782c.72-.42 1.518-.63 2.394-.63.864 0 1.614.186 2.25.558.636.372 1.11.84 1.422 1.404v-1.8h1.656V135H39.8v-1.836c-.324.576-.81 1.056-1.458 1.44-.636.372-1.38.558-2.232.558-.876 0-1.668-.216-2.376-.648-.708-.432-1.266-1.038-1.674-1.818-.408-.78-.612-1.668-.612-2.664Zm8.353.018c0-.744-.15-1.392-.45-1.944a3.098 3.098 0 0 0-1.224-1.26 3.211 3.211 0 0 0-1.674-.45c-.612 0-1.17.144-1.674.432a3.134 3.134 0 0 0-1.206 1.26c-.3.552-.45 1.2-.45 1.944 0 .756.15 1.416.45 1.98.3.552.702.978 1.206 1.278a3.314 3.314 0 0 0 1.674.432c.612 0 1.17-.144 1.674-.432.516-.3.924-.726 1.224-1.278.3-.564.45-1.218.45-1.962Zm5.648 3.6h4.842V135h-6.714v-1.35l4.788-7.182h-4.752v-1.332h6.642v1.332l-4.806 7.182Zm11.27 1.512c-.925 0-1.765-.21-2.52-.63a4.58 4.58 0 0 1-1.765-1.782c-.42-.78-.63-1.68-.63-2.7 0-1.008.216-1.896.648-2.664a4.51 4.51 0 0 1 1.8-1.782c.756-.42 1.602-.63 2.538-.63.936 0 1.782.21 2.538.63.756.408 1.35.996 1.782 1.764.444.768.666 1.662.666 2.682s-.228 1.92-.684 2.7a4.634 4.634 0 0 1-1.818 1.782c-.768.42-1.62.63-2.556.63Zm0-1.44c.587 0 1.14-.138 1.655-.414.516-.276.93-.69 1.242-1.242.324-.552.486-1.224.486-2.016s-.156-1.464-.468-2.016c-.312-.552-.72-.96-1.224-1.224a3.356 3.356 0 0 0-1.638-.414c-.6 0-1.152.138-1.656.414-.492.264-.888.672-1.188 1.224-.3.552-.45 1.224-.45 2.016 0 .804.144 1.482.432 2.034.3.552.696.966 1.188 1.242a3.372 3.372 0 0 0 1.62.396Zm12.017-8.766c1.2 0 2.172.366 2.916 1.098.744.72 1.116 1.764 1.116 3.132V135h-1.62v-5.58c0-.984-.246-1.734-.738-2.25-.492-.528-1.164-.792-2.016-.792-.864 0-1.554.27-2.07.81-.504.54-.756 1.326-.756 2.358V135h-1.638v-9.864h1.638v1.404a3.266 3.266 0 0 1 1.314-1.17 4.16 4.16 0 0 1 1.854-.414Zm15.412-2.502c1.368 0 2.55.258 3.546.774 1.008.504 1.776 1.23 2.305 2.178.54.948.81 2.064.81 3.348 0 1.284-.27 2.4-.81 3.348-.529.936-1.297 1.656-2.305 2.16-.995.492-2.177.738-3.546.738h-3.906v-12.546h3.906Zm0 11.196c1.62 0 2.856-.426 3.709-1.278.852-.864 1.278-2.07 1.278-3.618 0-1.56-.433-2.778-1.296-3.654-.852-.876-2.082-1.314-3.69-1.314h-2.269v9.864h2.268Zm17.317-8.514-5.94 14.508h-1.692l1.944-4.752-3.978-9.756h1.818l3.096 7.992 3.06-7.992h1.692Zm6.453-.18c1.2 0 2.172.366 2.916 1.098.744.72 1.116 1.764 1.116 3.132V135h-1.62v-5.58c0-.984-.246-1.734-.738-2.25-.492-.528-1.164-.792-2.016-.792-.864 0-1.554.27-2.07.81-.504.54-.756 1.326-.756 2.358V135h-1.638v-9.864h1.638v1.404a3.266 3.266 0 0 1 1.314-1.17 4.16 4.16 0 0 1 1.854-.414Zm6.095 5.076c0-1.008.204-1.89.612-2.646a4.446 4.446 0 0 1 1.674-1.782c.72-.42 1.518-.63 2.394-.63.864 0 1.614.186 2.25.558.636.372 1.11.84 1.422 1.404v-1.8h1.656V135h-1.656v-1.836c-.324.576-.81 1.056-1.458 1.44-.636.372-1.38.558-2.232.558-.876 0-1.668-.216-2.376-.648-.708-.432-1.266-1.038-1.674-1.818-.408-.78-.612-1.668-.612-2.664Zm8.352.018c0-.744-.15-1.392-.45-1.944a3.098 3.098 0 0 0-1.224-1.26 3.211 3.211 0 0 0-1.674-.45c-.612 0-1.17.144-1.674.432a3.134 3.134 0 0 0-1.206 1.26c-.3.552-.45 1.2-.45 1.944 0 .756.15 1.416.45 1.98.3.552.702.978 1.206 1.278a3.314 3.314 0 0 0 1.674.432c.612 0 1.17-.144 1.674-.432.516-.3.924-.726 1.224-1.278.3-.564.45-1.218.45-1.962Zm16.286-5.094c.768 0 1.452.162 2.052.486.6.312 1.074.786 1.422 1.422.348.636.522 1.41.522 2.322V135h-1.62v-5.58c0-.984-.246-1.734-.738-2.25-.48-.528-1.134-.792-1.962-.792-.852 0-1.53.276-2.034.828-.504.54-.756 1.326-.756 2.358V135h-1.62v-5.58c0-.984-.246-1.734-.738-2.25-.48-.528-1.134-.792-1.962-.792-.852 0-1.53.276-2.034.828-.504.54-.756 1.326-.756 2.358V135h-1.638v-9.864h1.638v1.422a3.252 3.252 0 0 1 1.296-1.188 4.008 4.008 0 0 1 1.818-.414c.828 0 1.56.186 2.196.558.636.372 1.11.918 1.422 1.638a3.235 3.235 0 0 1 1.368-1.62 4.03 4.03 0 0 1 2.124-.576Zm10.985 10.206c-.924 0-1.764-.21-2.52-.63a4.58 4.58 0 0 1-1.764-1.782c-.42-.78-.63-1.68-.63-2.7 0-1.008.216-1.896.648-2.664a4.51 4.51 0 0 1 1.8-1.782c.756-.42 1.602-.63 2.538-.63.936 0 1.782.21 2.538.63.756.408 1.35.996 1.782 1.764.444.768.666 1.662.666 2.682s-.228 1.92-.684 2.7a4.634 4.634 0 0 1-1.818 1.782c-.768.42-1.62.63-2.556.63Zm0-1.44c.588 0 1.14-.138 1.656-.414.516-.276.93-.69 1.242-1.242.324-.552.486-1.224.486-2.016s-.156-1.464-.468-2.016c-.312-.552-.72-.96-1.224-1.224a3.356 3.356 0 0 0-1.638-.414c-.6 0-1.152.138-1.656.414-.492.264-.888.672-1.188 1.224-.3.552-.45 1.224-.45 2.016 0 .804.144 1.482.432 2.034.3.552.696.966 1.188 1.242a3.372 3.372 0 0 0 1.62.396Zm11.118-11.268c1.368 0 2.55.258 3.546.774 1.008.504 1.776 1.23 2.304 2.178.54.948.81 2.064.81 3.348 0 1.284-.27 2.4-.81 3.348-.528.936-1.296 1.656-2.304 2.16-.996.492-2.178.738-3.546.738h-3.906v-12.546h3.906Zm0 11.196c1.62 0 2.856-.426 3.708-1.278.852-.864 1.278-2.07 1.278-3.618 0-1.56-.432-2.778-1.296-3.654-.852-.876-2.082-1.314-3.69-1.314h-2.268v9.864h2.268Zm15.103-5.112c.456.072.87.258 1.242.558.384.3.684.672.9 1.116.228.444.342.918.342 1.422 0 .636-.162 1.212-.486 1.728-.324.504-.798.906-1.422 1.206-.612.288-1.338.432-2.178.432h-4.68v-12.546h4.5c.852 0 1.578.144 2.178.432.6.276 1.05.654 1.35 1.134.3.48.45 1.02.45 1.62 0 .744-.204 1.362-.613 1.854-.395.48-.923.828-1.583 1.044Zm-4.644-.666h2.754c.768 0 1.362-.18 1.782-.54.42-.36.63-.858.63-1.494s-.21-1.134-.63-1.494c-.42-.36-1.026-.54-1.818-.54h-2.718v4.068Zm2.898 5.778c.816 0 1.452-.192 1.908-.576.456-.384.684-.918.684-1.602 0-.696-.24-1.242-.72-1.638-.48-.408-1.122-.612-1.926-.612h-2.844v4.428h2.898Z" />
</svg>
