<svg width="205" height="143" viewBox="0 0 205 143" fill="none" xmlns="http://www.w3.org/2000/svg">
<path d="M79.6327 35.426C79.6327 36.7156 79.7721 37.7612 80.0161 38.5279C80.2949 39.2947 80.6435 40.1312 81.1314 41.0374C81.3057 41.3162 81.3754 41.5951 81.3754 41.839C81.3754 42.1876 81.1663 42.5361 80.7132 42.8846L78.5174 44.3485C78.2037 44.5576 77.89 44.6622 77.6112 44.6622C77.2627 44.6622 76.9141 44.4879 76.5656 44.1742C76.0776 43.6514 75.6594 43.0938 75.3109 42.5361C74.9623 41.9436 74.6138 41.2814 74.2304 40.4797C71.5118 43.6863 68.0962 45.2895 63.9835 45.2895C61.0558 45.2895 58.7206 44.453 57.0128 42.7801C55.3049 41.1071 54.4336 38.8765 54.4336 36.0882C54.4336 33.1257 55.4792 30.7208 57.6053 28.9084C59.7313 27.096 62.5545 26.1898 66.1444 26.1898C67.3294 26.1898 68.5493 26.2944 69.8389 26.4686C71.1284 26.6429 72.4529 26.9217 73.847 27.2354V24.6911C73.847 22.0422 73.2894 20.195 72.2089 19.1145C71.0936 18.0341 69.2115 17.5113 66.5278 17.5113C65.3079 17.5113 64.0532 17.6507 62.7636 17.9644C61.474 18.278 60.2193 18.6614 58.9994 19.1494C58.4418 19.3934 58.0235 19.5328 57.7795 19.6025C57.5356 19.6722 57.3613 19.707 57.2219 19.707C56.7339 19.707 56.49 19.3585 56.49 18.6266V16.9188C56.49 16.3611 56.5597 15.9429 56.7339 15.6989C56.9082 15.4549 57.2219 15.2109 57.7098 14.967C58.9297 14.3396 60.3935 13.8168 62.1014 13.3986C63.8092 12.9455 65.6216 12.7363 67.5385 12.7363C71.6861 12.7363 74.7184 13.6774 76.6702 15.5595C78.5871 17.4416 79.563 20.2996 79.563 24.1334V35.426H79.6327ZM65.4822 40.7237C66.6323 40.7237 67.8174 40.5146 69.0721 40.0964C70.3268 39.6781 71.4421 38.9113 72.3832 37.8657C72.9408 37.2035 73.3591 36.4716 73.5682 35.6351C73.7773 34.7986 73.9167 33.7879 73.9167 32.6028V31.139C72.906 30.895 71.8255 30.6859 70.7102 30.5465C69.5949 30.4071 68.5144 30.3374 67.434 30.3374C65.0988 30.3374 63.391 30.7905 62.2408 31.7315C61.0906 32.6726 60.533 33.997 60.533 35.7397C60.533 37.3778 60.9512 38.5977 61.8225 39.4341C62.659 40.3055 63.8789 40.7237 65.4822 40.7237ZM93.4696 44.4879C92.8422 44.4879 92.424 44.3833 92.1451 44.1394C91.8663 43.9302 91.6223 43.4423 91.4132 42.7801L83.2226 15.8383C83.0135 15.1412 82.9089 14.6881 82.9089 14.4442C82.9089 13.8865 83.1878 13.5728 83.7454 13.5728H87.1611C87.8233 13.5728 88.2764 13.6774 88.5204 13.9214C88.7992 14.1305 89.0083 14.6184 89.2174 15.2806L95.0728 38.3537L100.51 15.2806C100.684 14.5836 100.893 14.1305 101.172 13.9214C101.451 13.7122 101.939 13.5728 102.566 13.5728H105.355C106.017 13.5728 106.47 13.6774 106.749 13.9214C107.028 14.1305 107.272 14.6184 107.411 15.2806L112.918 38.6325L118.947 15.2806C119.157 14.5836 119.401 14.1305 119.645 13.9214C119.923 13.7122 120.376 13.5728 121.004 13.5728H124.245C124.803 13.5728 125.117 13.8516 125.117 14.4442C125.117 14.6184 125.082 14.7927 125.047 15.0018C125.012 15.2109 124.942 15.4898 124.803 15.8732L116.403 42.8149C116.194 43.512 115.95 43.9651 115.671 44.1742C115.392 44.3833 114.939 44.5228 114.347 44.5228H111.349C110.687 44.5228 110.234 44.4182 109.955 44.1742C109.676 43.9302 109.432 43.4771 109.293 42.7801L103.891 20.2995L98.5233 42.7452C98.3491 43.4423 98.1399 43.8954 97.8611 44.1394C97.5823 44.3833 97.0943 44.4879 96.467 44.4879H93.4696ZM138.256 45.4289C136.444 45.4289 134.632 45.2198 132.889 44.8016C131.146 44.3833 129.787 43.9302 128.881 43.4074C128.323 43.0938 127.94 42.7452 127.8 42.4315C127.661 42.1179 127.591 41.7693 127.591 41.4556V39.6781C127.591 38.9462 127.87 38.5977 128.393 38.5977C128.602 38.5977 128.811 38.6325 129.02 38.7022C129.229 38.7719 129.543 38.9113 129.892 39.0508C131.077 39.5736 132.366 39.9918 133.725 40.2706C135.12 40.5495 136.479 40.6889 137.873 40.6889C140.069 40.6889 141.777 40.3055 142.962 39.5387C144.147 38.7719 144.774 37.6566 144.774 36.2276C144.774 35.2517 144.46 34.4501 143.833 33.7879C143.206 33.1257 142.021 32.5331 140.313 31.9755L135.259 30.4071C132.715 29.6054 130.833 28.4204 129.682 26.852C128.532 25.3185 127.94 23.6106 127.94 21.7983C127.94 20.3344 128.253 19.0448 128.881 17.9295C129.508 16.8142 130.345 15.8383 131.39 15.0715C132.436 14.2699 133.621 13.6774 135.015 13.2591C136.409 12.8409 137.873 12.6666 139.407 12.6666C140.173 12.6666 140.975 12.7015 141.742 12.806C142.543 12.9106 143.275 13.05 144.007 13.1894C144.704 13.3637 145.366 13.538 145.994 13.7471C146.621 13.9562 147.109 14.1653 147.458 14.3744C147.946 14.6533 148.294 14.9321 148.503 15.2458C148.712 15.5246 148.817 15.908 148.817 16.396V18.0341C148.817 18.766 148.538 19.1494 148.015 19.1494C147.737 19.1494 147.283 19.01 146.691 18.7311C144.704 17.8249 142.474 17.3719 139.999 17.3719C138.012 17.3719 136.444 17.6855 135.364 18.3478C134.283 19.01 133.725 20.0207 133.725 21.4497C133.725 22.4256 134.074 23.2621 134.771 23.9243C135.468 24.5865 136.758 25.2488 138.605 25.8413L143.554 27.4097C146.064 28.2113 147.876 29.3266 148.956 30.7556C150.037 32.1846 150.56 33.8227 150.56 35.6351C150.56 37.1338 150.246 38.4931 149.653 39.6781C149.026 40.8631 148.19 41.9087 147.109 42.7452C146.029 43.6166 144.739 44.2439 143.24 44.697C141.672 45.185 140.034 45.4289 138.256 45.4289Z" fill="#6A6A6A"/>
<path fill-rule="evenodd" clip-rule="evenodd" d="M144.845 62.3676C133.378 70.837 116.718 75.3331 102.393 75.3331C82.3174 75.3331 64.2284 67.9093 50.5658 55.5712C49.4854 54.5953 50.4613 53.2708 51.7508 54.0376C66.5287 62.6116 84.7571 67.8048 103.613 67.8048C116.334 67.8048 130.311 65.1559 143.172 59.7187C145.089 58.8474 146.727 60.9735 144.845 62.3676Z" fill="#A3A3A3"/>
<path fill-rule="evenodd" clip-rule="evenodd" d="M149.618 56.9304C148.154 55.0483 139.929 56.0242 136.2 56.4773C135.084 56.6167 134.91 55.6408 135.921 54.9089C142.473 50.3082 153.243 51.6326 154.498 53.1662C155.752 54.7346 154.149 65.5043 148.015 70.6627C147.074 71.4643 146.168 71.046 146.586 70.0004C147.98 66.5499 151.082 58.7776 149.618 56.9304Z" fill="#A3A3A3"/>
<path d="M8.802 130.21H3.33L2.322 133H0.594L5.13 120.526H7.02L11.538 133H9.81L8.802 130.21ZM8.334 128.878L6.066 122.542L3.798 128.878H8.334ZM29.2829 120.454L25.6469 133H23.8109L20.8949 122.902L17.8709 133L16.0529 133.018L12.5429 120.454H14.2889L17.0249 131.092L20.0489 120.454H21.8849L24.7649 131.056L27.5189 120.454H29.2829ZM35.0535 133.126C34.2255 133.126 33.4815 132.982 32.8215 132.694C32.1735 132.394 31.6635 131.986 31.2915 131.47C30.9195 130.942 30.7275 130.336 30.7155 129.652H32.4615C32.5215 130.24 32.7615 130.738 33.1815 131.146C33.6135 131.542 34.2375 131.74 35.0535 131.74C35.8335 131.74 36.4455 131.548 36.8895 131.164C37.3455 130.768 37.5735 130.264 37.5735 129.652C37.5735 129.172 37.4415 128.782 37.1775 128.482C36.9135 128.182 36.5835 127.954 36.1875 127.798C35.7915 127.642 35.2575 127.474 34.5855 127.294C33.7575 127.078 33.0915 126.862 32.5875 126.646C32.0955 126.43 31.6695 126.094 31.3095 125.638C30.9615 125.17 30.7875 124.546 30.7875 123.766C30.7875 123.082 30.9615 122.476 31.3095 121.948C31.6575 121.42 32.1435 121.012 32.7675 120.724C33.4035 120.436 34.1295 120.292 34.9455 120.292C36.1215 120.292 37.0815 120.586 37.8255 121.174C38.5815 121.762 39.0075 122.542 39.1035 123.514H37.3035C37.2435 123.034 36.9915 122.614 36.5475 122.254C36.1035 121.882 35.5155 121.696 34.7835 121.696C34.0995 121.696 33.5415 121.876 33.1095 122.236C32.6775 122.584 32.4615 123.076 32.4615 123.712C32.4615 124.168 32.5875 124.54 32.8395 124.828C33.1035 125.116 33.4215 125.338 33.7935 125.494C34.1775 125.638 34.7115 125.806 35.3955 125.998C36.2235 126.226 36.8895 126.454 37.3935 126.682C37.8975 126.898 38.3295 127.24 38.6895 127.708C39.0495 128.164 39.2295 128.788 39.2295 129.58C39.2295 130.192 39.0675 130.768 38.7435 131.308C38.4195 131.848 37.9395 132.286 37.3035 132.622C36.6675 132.958 35.9175 133.126 35.0535 133.126ZM59.1647 120.544V133H57.5267V123.712L53.3867 133H52.2347L48.0767 123.694V133H46.4387V120.544H48.2027L52.8107 130.84L57.4187 120.544H59.1647ZM61.3306 128.032C61.3306 127.024 61.5346 126.142 61.9426 125.386C62.3506 124.618 62.9086 124.024 63.6166 123.604C64.3366 123.184 65.1346 122.974 66.0106 122.974C66.8746 122.974 67.6246 123.16 68.2606 123.532C68.8966 123.904 69.3706 124.372 69.6826 124.936V123.136H71.3386V133H69.6826V131.164C69.3586 131.74 68.8726 132.22 68.2246 132.604C67.5886 132.976 66.8446 133.162 65.9926 133.162C65.1166 133.162 64.3246 132.946 63.6166 132.514C62.9086 132.082 62.3506 131.476 61.9426 130.696C61.5346 129.916 61.3306 129.028 61.3306 128.032ZM69.6826 128.05C69.6826 127.306 69.5326 126.658 69.2326 126.106C68.9326 125.554 68.5246 125.134 68.0086 124.846C67.5046 124.546 66.9466 124.396 66.3346 124.396C65.7226 124.396 65.1646 124.54 64.6606 124.828C64.1566 125.116 63.7546 125.536 63.4546 126.088C63.1546 126.64 63.0046 127.288 63.0046 128.032C63.0046 128.788 63.1546 129.448 63.4546 130.012C63.7546 130.564 64.1566 130.99 64.6606 131.29C65.1646 131.578 65.7226 131.722 66.3346 131.722C66.9466 131.722 67.5046 131.578 68.0086 131.29C68.5246 130.99 68.9326 130.564 69.2326 130.012C69.5326 129.448 69.6826 128.794 69.6826 128.05ZM73.4947 128.05C73.4947 127.03 73.6987 126.142 74.1067 125.386C74.5147 124.618 75.0787 124.024 75.7987 123.604C76.5307 123.184 77.3647 122.974 78.3007 122.974C79.5127 122.974 80.5087 123.268 81.2887 123.856C82.0807 124.444 82.6027 125.26 82.8547 126.304H81.0907C80.9227 125.704 80.5927 125.23 80.1007 124.882C79.6207 124.534 79.0207 124.36 78.3007 124.36C77.3647 124.36 76.6087 124.684 76.0327 125.332C75.4567 125.968 75.1687 126.874 75.1687 128.05C75.1687 129.238 75.4567 130.156 76.0327 130.804C76.6087 131.452 77.3647 131.776 78.3007 131.776C79.0207 131.776 79.6207 131.608 80.1007 131.272C80.5807 130.936 80.9107 130.456 81.0907 129.832H82.8547C82.5907 130.84 82.0627 131.65 81.2707 132.262C80.4787 132.862 79.4887 133.162 78.3007 133.162C77.3647 133.162 76.5307 132.952 75.7987 132.532C75.0787 132.112 74.5147 131.518 74.1067 130.75C73.6987 129.982 73.4947 129.082 73.4947 128.05ZM89.9363 122.956C90.6803 122.956 91.3523 123.118 91.9523 123.442C92.5523 123.754 93.0203 124.228 93.3563 124.864C93.7043 125.5 93.8783 126.274 93.8783 127.186V133H92.2583V127.42C92.2583 126.436 92.0123 125.686 91.5203 125.17C91.0283 124.642 90.3563 124.378 89.5043 124.378C88.6403 124.378 87.9503 124.648 87.4343 125.188C86.9303 125.728 86.6783 126.514 86.6783 127.546V133H85.0403V119.68H86.6783V124.54C87.0023 124.036 87.4463 123.646 88.0103 123.37C88.5863 123.094 89.2283 122.956 89.9363 122.956ZM97.4 121.534C97.088 121.534 96.824 121.426 96.608 121.21C96.392 120.994 96.284 120.73 96.284 120.418C96.284 120.106 96.392 119.842 96.608 119.626C96.824 119.41 97.088 119.302 97.4 119.302C97.7 119.302 97.952 119.41 98.156 119.626C98.372 119.842 98.48 120.106 98.48 120.418C98.48 120.73 98.372 120.994 98.156 121.21C97.952 121.426 97.7 121.534 97.4 121.534ZM98.192 123.136V133H96.554V123.136H98.192ZM105.79 122.956C106.99 122.956 107.962 123.322 108.706 124.054C109.45 124.774 109.822 125.818 109.822 127.186V133H108.202V127.42C108.202 126.436 107.956 125.686 107.464 125.17C106.972 124.642 106.3 124.378 105.448 124.378C104.584 124.378 103.894 124.648 103.378 125.188C102.874 125.728 102.622 126.514 102.622 127.546V133H100.984V123.136H102.622V124.54C102.946 124.036 103.384 123.646 103.936 123.37C104.5 123.094 105.118 122.956 105.79 122.956ZM121.497 127.69C121.497 128.002 121.479 128.332 121.443 128.68H113.559C113.619 129.652 113.949 130.414 114.549 130.966C115.161 131.506 115.899 131.776 116.763 131.776C117.471 131.776 118.059 131.614 118.527 131.29C119.007 130.954 119.343 130.51 119.535 129.958H121.299C121.035 130.906 120.507 131.68 119.715 132.28C118.923 132.868 117.939 133.162 116.763 133.162C115.827 133.162 114.987 132.952 114.243 132.532C113.511 132.112 112.935 131.518 112.515 130.75C112.095 129.97 111.885 129.07 111.885 128.05C111.885 127.03 112.089 126.136 112.497 125.368C112.905 124.6 113.475 124.012 114.207 123.604C114.951 123.184 115.803 122.974 116.763 122.974C117.699 122.974 118.527 123.178 119.247 123.586C119.967 123.994 120.519 124.558 120.903 125.278C121.299 125.986 121.497 126.79 121.497 127.69ZM119.805 127.348C119.805 126.724 119.667 126.19 119.391 125.746C119.115 125.29 118.737 124.948 118.257 124.72C117.789 124.48 117.267 124.36 116.691 124.36C115.863 124.36 115.155 124.624 114.567 125.152C113.991 125.68 113.661 126.412 113.577 127.348H119.805ZM130.096 131.668H134.488V133H128.458V120.454H130.096V131.668ZM145.228 127.69C145.228 128.002 145.21 128.332 145.174 128.68H137.29C137.35 129.652 137.68 130.414 138.28 130.966C138.892 131.506 139.63 131.776 140.494 131.776C141.202 131.776 141.79 131.614 142.258 131.29C142.738 130.954 143.074 130.51 143.266 129.958H145.03C144.766 130.906 144.238 131.68 143.446 132.28C142.654 132.868 141.67 133.162 140.494 133.162C139.558 133.162 138.718 132.952 137.974 132.532C137.242 132.112 136.666 131.518 136.246 130.75C135.826 129.97 135.616 129.07 135.616 128.05C135.616 127.03 135.82 126.136 136.228 125.368C136.636 124.6 137.206 124.012 137.938 123.604C138.682 123.184 139.534 122.974 140.494 122.974C141.43 122.974 142.258 123.178 142.978 123.586C143.698 123.994 144.25 124.558 144.634 125.278C145.03 125.986 145.228 126.79 145.228 127.69ZM143.536 127.348C143.536 126.724 143.398 126.19 143.122 125.746C142.846 125.29 142.468 124.948 141.988 124.72C141.52 124.48 140.998 124.36 140.422 124.36C139.594 124.36 138.886 124.624 138.298 125.152C137.722 125.68 137.392 126.412 137.308 127.348H143.536ZM146.778 128.032C146.778 127.024 146.982 126.142 147.39 125.386C147.798 124.618 148.356 124.024 149.064 123.604C149.784 123.184 150.582 122.974 151.458 122.974C152.322 122.974 153.072 123.16 153.708 123.532C154.344 123.904 154.818 124.372 155.13 124.936V123.136H156.786V133H155.13V131.164C154.806 131.74 154.32 132.22 153.672 132.604C153.036 132.976 152.292 133.162 151.44 133.162C150.564 133.162 149.772 132.946 149.064 132.514C148.356 132.082 147.798 131.476 147.39 130.696C146.982 129.916 146.778 129.028 146.778 128.032ZM155.13 128.05C155.13 127.306 154.98 126.658 154.68 126.106C154.38 125.554 153.972 125.134 153.456 124.846C152.952 124.546 152.394 124.396 151.782 124.396C151.17 124.396 150.612 124.54 150.108 124.828C149.604 125.116 149.202 125.536 148.902 126.088C148.602 126.64 148.452 127.288 148.452 128.032C148.452 128.788 148.602 129.448 148.902 130.012C149.202 130.564 149.604 130.99 150.108 131.29C150.612 131.578 151.17 131.722 151.782 131.722C152.394 131.722 152.952 131.578 153.456 131.29C153.972 130.99 154.38 130.564 154.68 130.012C154.98 129.448 155.13 128.794 155.13 128.05ZM161.192 124.738C161.48 124.174 161.888 123.736 162.416 123.424C162.956 123.112 163.61 122.956 164.378 122.956V124.648H163.946C162.11 124.648 161.192 125.644 161.192 127.636V133H159.554V123.136H161.192V124.738ZM171.075 122.956C172.275 122.956 173.247 123.322 173.991 124.054C174.735 124.774 175.107 125.818 175.107 127.186V133H173.487V127.42C173.487 126.436 173.241 125.686 172.749 125.17C172.257 124.642 171.585 124.378 170.733 124.378C169.869 124.378 169.179 124.648 168.663 125.188C168.159 125.728 167.907 126.514 167.907 127.546V133H166.269V123.136H167.907V124.54C168.231 124.036 168.669 123.646 169.221 123.37C169.785 123.094 170.403 122.956 171.075 122.956ZM178.628 121.534C178.316 121.534 178.052 121.426 177.836 121.21C177.62 120.994 177.512 120.73 177.512 120.418C177.512 120.106 177.62 119.842 177.836 119.626C178.052 119.41 178.316 119.302 178.628 119.302C178.928 119.302 179.18 119.41 179.384 119.626C179.6 119.842 179.708 120.106 179.708 120.418C179.708 120.73 179.6 120.994 179.384 121.21C179.18 121.426 178.928 121.534 178.628 121.534ZM179.42 123.136V133H177.782V123.136H179.42ZM187.018 122.956C188.218 122.956 189.19 123.322 189.934 124.054C190.678 124.774 191.05 125.818 191.05 127.186V133H189.43V127.42C189.43 126.436 189.184 125.686 188.692 125.17C188.2 124.642 187.528 124.378 186.676 124.378C185.812 124.378 185.122 124.648 184.606 125.188C184.102 125.728 183.85 126.514 183.85 127.546V133H182.212V123.136H183.85V124.54C184.174 124.036 184.612 123.646 185.164 123.37C185.728 123.094 186.346 122.956 187.018 122.956ZM197.794 122.974C198.646 122.974 199.39 123.16 200.026 123.532C200.674 123.904 201.154 124.372 201.466 124.936V123.136H203.122V133.216C203.122 134.116 202.93 134.914 202.546 135.61C202.162 136.318 201.61 136.87 200.89 137.266C200.182 137.662 199.354 137.86 198.406 137.86C197.11 137.86 196.03 137.554 195.166 136.942C194.302 136.33 193.792 135.496 193.636 134.44H195.256C195.436 135.04 195.808 135.52 196.372 135.88C196.936 136.252 197.614 136.438 198.406 136.438C199.306 136.438 200.038 136.156 200.602 135.592C201.178 135.028 201.466 134.236 201.466 133.216V131.146C201.142 131.722 200.662 132.202 200.026 132.586C199.39 132.97 198.646 133.162 197.794 133.162C196.918 133.162 196.12 132.946 195.4 132.514C194.692 132.082 194.134 131.476 193.726 130.696C193.318 129.916 193.114 129.028 193.114 128.032C193.114 127.024 193.318 126.142 193.726 125.386C194.134 124.618 194.692 124.024 195.4 123.604C196.12 123.184 196.918 122.974 197.794 122.974ZM201.466 128.05C201.466 127.306 201.316 126.658 201.016 126.106C200.716 125.554 200.308 125.134 199.792 124.846C199.288 124.546 198.73 124.396 198.118 124.396C197.506 124.396 196.948 124.54 196.444 124.828C195.94 125.116 195.538 125.536 195.238 126.088C194.938 126.64 194.788 127.288 194.788 128.032C194.788 128.788 194.938 129.448 195.238 130.012C195.538 130.564 195.94 130.99 196.444 131.29C196.948 131.578 197.506 131.722 198.118 131.722C198.73 131.722 199.288 131.578 199.792 131.29C200.308 130.99 200.716 130.564 201.016 130.012C201.316 129.448 201.466 128.794 201.466 128.05Z" fill="#A0A0A0"/>
</svg>
