<svg xmlns="http://www.w3.org/2000/svg" width="101" height="145" fill="none">
  <path fill="#A0A0A0" d="M8.802 132.21H3.33L2.322 135H.594l4.536-12.474h1.89L11.538 135H9.81l-1.008-2.79Zm-.468-1.332-2.268-6.336-2.268 6.336h4.536Zm17.043-5.922c.768 0 1.452.162 2.052.486.6.312 1.074.786 1.422 1.422.348.636.522 1.41.522 2.322V135h-1.62v-5.58c0-.984-.246-1.734-.738-2.25-.48-.528-1.134-.792-1.962-.792-.852 0-1.53.276-2.034.828-.504.54-.756 1.326-.756 2.358V135h-1.62v-5.58c0-.984-.246-1.734-.738-2.25-.48-.528-1.134-.792-1.962-.792-.852 0-1.53.276-2.034.828-.504.54-.756 1.326-.756 2.358V135h-1.638v-9.864h1.638v1.422a3.252 3.252 0 0 1 1.296-1.188 4.008 4.008 0 0 1 1.818-.414c.828 0 1.56.186 2.196.558.636.372 1.11.918 1.422 1.638a3.235 3.235 0 0 1 1.368-1.62 4.03 4.03 0 0 1 2.124-.576Zm6.07 5.076c0-1.008.205-1.89.613-2.646a4.446 4.446 0 0 1 1.674-1.782c.72-.42 1.518-.63 2.394-.63.864 0 1.614.186 2.25.558.636.372 1.11.84 1.422 1.404v-1.8h1.656V135H39.8v-1.836c-.324.576-.81 1.056-1.458 1.44-.636.372-1.38.558-2.232.558-.876 0-1.668-.216-2.376-.648-.708-.432-1.266-1.038-1.674-1.818-.408-.78-.612-1.668-.612-2.664Zm8.353.018c0-.744-.15-1.392-.45-1.944a3.098 3.098 0 0 0-1.224-1.26 3.211 3.211 0 0 0-1.674-.45c-.612 0-1.17.144-1.674.432a3.134 3.134 0 0 0-1.206 1.26c-.3.552-.45 1.2-.45 1.944 0 .756.15 1.416.45 1.98.3.552.702.978 1.206 1.278a3.314 3.314 0 0 0 1.674.432c.612 0 1.17-.144 1.674-.432.516-.3.924-.726 1.224-1.278.3-.564.45-1.218.45-1.962Zm5.648 3.6h4.842V135h-6.714v-1.35l4.788-7.182h-4.752v-1.332h6.642v1.332l-4.806 7.182Zm11.27 1.512c-.925 0-1.765-.21-2.52-.63a4.58 4.58 0 0 1-1.765-1.782c-.42-.78-.63-1.68-.63-2.7 0-1.008.216-1.896.648-2.664a4.51 4.51 0 0 1 1.8-1.782c.756-.42 1.602-.63 2.538-.63.936 0 1.782.21 2.538.63.756.408 1.35.996 1.782 1.764.444.768.666 1.662.666 2.682s-.228 1.92-.684 2.7a4.634 4.634 0 0 1-1.818 1.782c-.768.42-1.62.63-2.556.63Zm0-1.44c.587 0 1.14-.138 1.655-.414.516-.276.93-.69 1.242-1.242.324-.552.486-1.224.486-2.016s-.156-1.464-.468-2.016c-.312-.552-.72-.96-1.224-1.224a3.356 3.356 0 0 0-1.638-.414c-.6 0-1.152.138-1.656.414-.492.264-.888.672-1.188 1.224-.3.552-.45 1.224-.45 2.016 0 .804.144 1.482.432 2.034.3.552.696.966 1.188 1.242a3.372 3.372 0 0 0 1.62.396Zm12.017-8.766c1.2 0 2.172.366 2.916 1.098.744.72 1.116 1.764 1.116 3.132V135h-1.62v-5.58c0-.984-.246-1.734-.738-2.25-.492-.528-1.164-.792-2.016-.792-.864 0-1.554.27-2.07.81-.504.54-.756 1.326-.756 2.358V135h-1.638v-9.864h1.638v1.404a3.266 3.266 0 0 1 1.314-1.17 4.16 4.16 0 0 1 1.854-.414Zm15.484 10.17c-.828 0-1.572-.144-2.231-.432-.648-.3-1.159-.708-1.53-1.224a3.178 3.178 0 0 1-.576-1.818h1.745c.06.588.3 1.086.72 1.494.433.396 1.056.594 1.873.594.78 0 1.392-.192 1.835-.576.456-.396.684-.9.684-1.512 0-.48-.132-.87-.395-1.17a2.53 2.53 0 0 0-.99-.684c-.397-.156-.93-.324-1.603-.504-.828-.216-1.494-.432-1.998-.648a3.318 3.318 0 0 1-1.278-1.008c-.347-.468-.521-1.092-.521-1.872 0-.684.174-1.29.522-1.818.347-.528.834-.936 1.457-1.224.636-.288 1.362-.432 2.178-.432 1.176 0 2.136.294 2.88.882.757.588 1.183 1.368 1.278 2.34h-1.8c-.06-.48-.311-.9-.755-1.26-.445-.372-1.032-.558-1.764-.558-.684 0-1.243.18-1.675.54-.431.348-.648.84-.648 1.476 0 .456.127.828.379 1.116.263.288.582.51.954.666.384.144.918.312 1.602.504.828.228 1.493.456 1.998.684.504.216.936.558 1.296 1.026.36.456.54 1.08.54 1.872 0 .612-.162 1.188-.487 1.728-.324.54-.803.978-1.44 1.314-.635.336-1.385.504-2.25.504Zm6.28-9.864c.085-1.104.51-1.968 1.279-2.592.768-.624 1.764-.936 2.988-.936.816 0 1.518.15 2.106.45.6.288 1.05.684 1.35 1.188.312.504.468 1.074.468 1.71 0 .744-.216 1.386-.648 1.926a2.83 2.83 0 0 1-1.656 1.044v.09c.78.192 1.398.57 1.854 1.134.456.564.684 1.302.684 2.214 0 .684-.156 1.302-.468 1.854-.312.54-.78.966-1.404 1.278-.624.312-1.374.468-2.25.468-1.272 0-2.316-.33-3.132-.99-.816-.672-1.272-1.62-1.368-2.844h1.584c.084.72.378 1.308.882 1.764.504.456 1.176.684 2.016.684.84 0 1.476-.216 1.908-.648.444-.444.666-1.014.666-1.71 0-.9-.3-1.548-.9-1.944-.6-.396-1.506-.594-2.718-.594h-.414v-1.368h.432c1.104-.012 1.938-.192 2.502-.54.564-.36.846-.912.846-1.656 0-.636-.21-1.146-.63-1.53-.408-.384-.996-.576-1.764-.576-.744 0-1.344.192-1.8.576-.456.384-.726.9-.81 1.548H90.5Z" />
  <path fill="#696969" d="m50.996 68.073 31.875 7.713V15.938l-31.875 7.718v44.417Z" />
  <path fill="#9C9C9C" d="M82.875 15.938 89.001 19v53.742l-6.126 3.06V15.939ZM64.9 26.61l-13.904-3.44V0L64.9 6.951V26.61ZM50.996 91.864l13.902-6.949V65.256l-13.902 3.439v23.169ZM64.9 55.774l-13.904 1.77V34.371L64.9 36.116v19.658Z" />
  <path fill="#9C9C9C" d="M50.998 68.073 19.12 75.786V15.938l31.877 7.718v44.417Z" />
  <path fill="#696969" d="M19.123 15.938 13 19v53.742l6.123 3.06V15.939ZM37.098 26.61l13.9-3.44V0l-13.9 6.951V26.61ZM50.998 91.864l-13.9-6.949V65.256l13.9 3.439v23.169ZM37.098 55.774l13.9 1.77V34.371l-13.9 1.744v19.658Z" />
  <path fill="#404040" d="m64.9 26.61-13.903 2.534-13.9-2.534 13.9-3.44L64.9 26.61Z" />
  <path fill="#BBB" d="m64.9 65.255-13.903-2.55-13.9 2.55 13.9 3.461L64.9 65.255Z" />
</svg>
