<svg xmlns="http://www.w3.org/2000/svg" width="119" height="137" fill="none">
  <path fill="#A0A0A0" d="M8.748 124.066h-5.58L2.106 127H.342l4.698-12.456h1.854L11.574 127H9.81l-1.062-2.934Zm-.468-1.278-2.322-6.408-2.322 6.408H8.28Zm20.558-8.478L25.616 127h-1.998l-2.934-10.368L17.75 127h-1.998l-3.24-12.69h1.818l2.43 10.782 3.006-10.782h1.818l3.006 10.746 2.448-10.746h1.8Zm9.947 9.396c0 .6-.144 1.158-.432 1.674-.288.516-.726.936-1.314 1.26-.588.324-1.314.486-2.178.486-.84 0-1.59-.15-2.25-.45a4.187 4.187 0 0 1-1.566-1.26 3.661 3.661 0 0 1-.666-1.836h1.746a2.6 2.6 0 0 0 .36 1.062c.216.336.516.618.9.846.396.216.87.324 1.422.324.72 0 1.272-.192 1.656-.576.384-.384.576-.876.576-1.476 0-.516-.138-.936-.414-1.26a2.695 2.695 0 0 0-.99-.756c-.396-.192-.936-.396-1.62-.612a18.488 18.488 0 0 1-1.944-.738 3.483 3.483 0 0 1-1.242-1.062c-.336-.468-.504-1.086-.504-1.854 0-.66.156-1.242.468-1.746.324-.504.78-.894 1.368-1.17.6-.276 1.302-.414 2.106-.414 1.248 0 2.238.306 2.97.918a3.445 3.445 0 0 1 1.278 2.304h-1.764c-.096-.504-.354-.948-.774-1.332-.42-.384-.99-.576-1.71-.576-.66 0-1.188.174-1.584.522-.396.336-.594.816-.594 1.44 0 .492.126.894.378 1.206.264.3.588.54.972.72.384.168.912.36 1.584.576.816.264 1.47.516 1.962.756.504.24.93.606 1.278 1.098.348.48.522 1.122.522 1.926Zm8.288 2.016h4.5V127h-6.138v-12.69h1.638v11.412Zm10.217-8.73c.96 0 1.77.24 2.43.72a3.735 3.735 0 0 1 1.404 1.926v-2.52h1.638V127h-1.638v-2.52a3.735 3.735 0 0 1-1.404 1.926c-.66.48-1.47.72-2.43.72-.876 0-1.656-.204-2.34-.612-.684-.408-1.224-.99-1.62-1.746-.384-.768-.576-1.668-.576-2.7 0-1.032.192-1.932.576-2.7.396-.768.936-1.356 1.62-1.764.684-.408 1.464-.612 2.34-.612Zm.468 1.458c-1.008 0-1.818.324-2.43.972-.6.636-.9 1.518-.9 2.646s.3 2.016.9 2.664c.612.636 1.422.954 2.43.954.648 0 1.224-.15 1.728-.45.516-.3.918-.72 1.206-1.26.288-.552.432-1.188.432-1.908s-.144-1.356-.432-1.908a2.985 2.985 0 0 0-1.206-1.26c-.504-.3-1.08-.45-1.728-.45Zm19.76-1.494c1.153 0 2.077.372 2.773 1.116.708.732 1.062 1.794 1.062 3.186V127h-1.638v-5.598c0-.972-.24-1.716-.72-2.232-.468-.516-1.116-.774-1.944-.774-.864 0-1.56.288-2.088.864-.516.564-.774 1.398-.774 2.502V127H72.55v-5.598c0-.972-.24-1.716-.72-2.232-.48-.516-1.128-.774-1.944-.774-.876 0-1.578.288-2.106.864-.516.564-.774 1.398-.774 2.502V127h-1.638v-9.882h1.638v2.25c.24-.78.666-1.374 1.278-1.782.624-.42 1.338-.63 2.142-.63.84 0 1.566.216 2.178.648.624.42 1.068 1.044 1.332 1.872.276-.804.738-1.422 1.386-1.854a3.794 3.794 0 0 1 2.196-.666Zm11.832.036c.876 0 1.656.204 2.34.612.684.408 1.218.996 1.602 1.764.396.768.594 1.668.594 2.7 0 1.032-.198 1.932-.594 2.7-.384.756-.918 1.338-1.602 1.746-.684.408-1.464.612-2.34.612-.96 0-1.776-.24-2.448-.72a3.769 3.769 0 0 1-1.368-1.926V127h-1.638v-13.32h1.638v5.958a3.675 3.675 0 0 1 1.368-1.908c.672-.492 1.488-.738 2.448-.738Zm-.468 1.458c-.636 0-1.212.15-1.728.45a2.985 2.985 0 0 0-1.206 1.26c-.288.552-.432 1.188-.432 1.908s.144 1.356.432 1.908c.288.54.69.96 1.206 1.26.516.3 1.092.45 1.728.45 1.02 0 1.83-.318 2.43-.954.612-.648.918-1.536.918-2.664 0-1.128-.306-2.01-.918-2.646-.6-.648-1.41-.972-2.43-.972Zm11.193-1.458c.96 0 1.77.24 2.43.72a3.735 3.735 0 0 1 1.404 1.926v-5.958h1.638V127h-1.638v-2.52a3.735 3.735 0 0 1-1.404 1.926c-.66.48-1.47.72-2.43.72-.876 0-1.656-.204-2.34-.612-.684-.408-1.224-.99-1.62-1.746-.384-.768-.576-1.668-.576-2.7 0-1.032.192-1.932.576-2.7.396-.768.936-1.356 1.62-1.764.684-.408 1.464-.612 2.34-.612Zm.468 1.458c-1.008 0-1.818.324-2.43.972-.6.636-.9 1.518-.9 2.646s.3 2.016.9 2.664c.612.636 1.422.954 2.43.954.648 0 1.224-.15 1.728-.45.516-.3.918-.72 1.206-1.26.288-.552.432-1.188.432-1.908s-.144-1.356-.432-1.908a2.985 2.985 0 0 0-1.206-1.26c-.504-.3-1.08-.45-1.728-.45Zm11.661-1.458c.96 0 1.77.24 2.43.72a3.735 3.735 0 0 1 1.404 1.926v-2.52h1.638V127h-1.638v-2.52a3.735 3.735 0 0 1-1.404 1.926c-.66.48-1.47.72-2.43.72-.876 0-1.656-.204-2.34-.612-.684-.408-1.224-.99-1.62-1.746-.384-.768-.576-1.668-.576-2.7 0-1.032.192-1.932.576-2.7.396-.768.936-1.356 1.62-1.764.684-.408 1.464-.612 2.34-.612Zm.468 1.458c-1.008 0-1.818.324-2.43.972-.6.636-.9 1.518-.9 2.646s.3 2.016.9 2.664c.612.636 1.422.954 2.43.954.648 0 1.224-.15 1.728-.45.516-.3.918-.72 1.206-1.26.288-.552.432-1.188.432-1.908s-.144-1.356-.432-1.908a2.985 2.985 0 0 0-1.206-1.26c-.504-.3-1.08-.45-1.728-.45Z" />
  <path fill="#6A6A6A" d="m68.401 64.875-7.485-18.97-10.973 17.29h-6.88l15.326-24.748-1.721-4.892H50.7v-5.828h10.216l11.733 29.837 5.159-1.68 1.719 5.78-11.126 3.21Z" />
  <path stroke="#6A6A6A" stroke-width="6.592" d="M90.456 47.323c0 16.592-13.447 30.038-30.037 30.038S30.38 63.915 30.38 47.323c0-16.59 13.447-30.037 30.038-30.037 16.59 0 30.037 13.448 30.037 30.037Z" />
</svg>
