<svg xmlns="http://www.w3.org/2000/svg" width="59" height="59" fill="none">
  <path stroke="#161616" stroke-linecap="round" stroke-linejoin="round" stroke-width="2" d="M33.75 18.625v-7.25c0-.801-.65-1.45-1.45-1.45h-7.25c-.8 0-1.45.649-1.45 1.45v7.25c0 .8.65 1.45 1.45 1.45h7.25c.8 0 1.45-.65 1.45-1.45ZM34.473 44.725v-8.7c0-.8-.65-1.45-1.45-1.45h-8.7c-.801 0-1.45.65-1.45 1.45v8.7c0 .801.649 1.45 1.45 1.45h8.7c.8 0 1.45-.649 1.45-1.45ZM51.875 44.725v-8.7c0-.8-.65-1.45-1.45-1.45h-8.7c-.8 0-1.45.65-1.45 1.45v8.7c0 .801.65 1.45 1.45 1.45h8.7c.8 0 1.45-.649 1.45-1.45ZM17.074 44.725v-8.7c0-.8-.649-1.45-1.45-1.45h-8.7c-.8 0-1.45.65-1.45 1.45v8.7c0 .801.65 1.45 1.45 1.45h8.7c.801 0 1.45-.649 1.45-1.45ZM28.672 20.075v7.25M28.672 26.6v7.25" />
  <path stroke="#161616" stroke-linecap="round" stroke-linejoin="round" stroke-width="2" d="M11.274 34.575v-2.9a4.35 4.35 0 0 1 4.35-4.35h26.1a4.35 4.35 0 0 1 4.35 4.35v2.9" />
</svg>
