<svg width="118" height="136" viewBox="0 0 118 136" fill="none" xmlns="http://www.w3.org/2000/svg">
<mask id="mask0_369_1371" style="mask-type:alpha" maskUnits="userSpaceOnUse" x="17" y="2" width="86" height="92">
<path d="M103 44.6342C103 21.09 83.7462 2 60 2C36.2538 2 17 21.09 17 44.6342C17 57.5816 22.8276 69.1714 32.0161 76.9858L26.8561 85.8436V92.8783C26.8561 93.4953 27.3653 94.0002 27.9876 94.0002C28.197 94.0002 28.3893 93.9441 28.5591 93.8487L34.6979 90.337L39.4901 82.1131C45.5837 85.4004 52.5712 87.2685 60 87.2685C67.4288 87.2685 74.4163 85.4004 80.5155 82.1131L85.3078 90.337L91.4466 93.8487C91.6163 93.9441 91.8087 94.0002 92.018 94.0002C92.6404 94.0002 93.1496 93.4953 93.1496 92.8783V85.8436L87.9896 76.9858C97.1724 69.1714 103 57.5816 103 44.6342V44.6342Z" fill="white"/>
</mask>
<g mask="url(#mask0_369_1371)">
<path d="M60 87.2685C83.7482 87.2685 103 68.1805 103 44.6342C103 21.088 83.7482 2 60 2C36.2518 2 17 21.088 17 44.6342C17 68.1805 36.2518 87.2685 60 87.2685Z" fill="#CBCBCB"/>
</g>
<mask id="mask1_369_1371" style="mask-type:alpha" maskUnits="userSpaceOnUse" x="17" y="2" width="86" height="92">
<path d="M103 44.6342C103 21.09 83.7462 2 60 2C36.2538 2 17 21.09 17 44.6342C17 57.5816 22.8276 69.1714 32.0161 76.9858L26.8561 85.8436V92.8783C26.8561 93.4953 27.3653 94.0002 27.9876 94.0002C28.197 94.0002 28.3893 93.9441 28.5591 93.8487L34.6979 90.337L39.4901 82.1131C45.5837 85.4004 52.5712 87.2685 60 87.2685C67.4288 87.2685 74.4163 85.4004 80.5155 82.1131L85.3078 90.337L91.4466 93.8487C91.6163 93.9441 91.8087 94.0002 92.018 94.0002C92.6404 94.0002 93.1496 93.4953 93.1496 92.8783V85.8436L87.9896 76.9858C97.1724 69.1714 103 57.5816 103 44.6342V44.6342Z" fill="white"/>
</mask>
<g mask="url(#mask1_369_1371)">
<path d="M103 45.1948H17V44.6338H103V45.1948Z" fill="white"/>
</g>
<mask id="mask2_369_1371" style="mask-type:alpha" maskUnits="userSpaceOnUse" x="17" y="2" width="86" height="92">
<path d="M103 44.6342C103 21.09 83.7462 2 60 2C36.2538 2 17 21.09 17 44.6342C17 57.5816 22.8276 69.1714 32.0161 76.9858L26.8561 85.8436V92.8783C26.8561 93.4953 27.3653 94.0002 27.9876 94.0002C28.197 94.0002 28.3893 93.9441 28.5591 93.8487L34.6979 90.337L39.4901 82.1131C45.5837 85.4004 52.5712 87.2685 60 87.2685C67.4288 87.2685 74.4163 85.4004 80.5155 82.1131L85.3078 90.337L91.4466 93.8487C91.6163 93.9441 91.8087 94.0002 92.018 94.0002C92.6404 94.0002 93.1496 93.4953 93.1496 92.8783V85.8436L87.9896 76.9858C97.1724 69.1714 103 57.5816 103 44.6342V44.6342Z" fill="white"/>
</mask>
<g mask="url(#mask2_369_1371)">
<path d="M69.1482 44.6338H58.6924L85.3071 90.3366L91.4459 93.8483C91.6157 93.9437 91.808 93.9998 92.0174 93.9998C92.6397 93.9998 93.149 93.4949 93.149 92.8778V85.8432L69.1482 44.6338Z" fill="#E2E2E2"/>
<path opacity="0.5" d="M69.1482 44.6338H58.6924L85.3071 90.3366L91.4459 93.8483C91.6157 93.9437 91.808 93.9998 92.0174 93.9998C92.6397 93.9998 93.149 93.4949 93.149 92.8778V85.8432L69.1482 44.6338Z" fill="#CBCBCB"/>
<path d="M93.1426 85.8432L69.1475 44.6338H68.8193L93.1426 86.4041V85.8432Z" fill="white"/>
</g>
<mask id="mask3_369_1371" style="mask-type:alpha" maskUnits="userSpaceOnUse" x="17" y="2" width="86" height="92">
<path d="M103 44.6342C103 21.09 83.7462 2 60 2C36.2538 2 17 21.09 17 44.6342C17 57.5816 22.8276 69.1714 32.0161 76.9858L26.8561 85.8436V92.8783C26.8561 93.4953 27.3653 94.0002 27.9876 94.0002C28.197 94.0002 28.3893 93.9441 28.5591 93.8487L34.6979 90.337L39.4901 82.1131C45.5837 85.4004 52.5712 87.2685 60 87.2685C67.4288 87.2685 74.4163 85.4004 80.5155 82.1131L85.3078 90.337L91.4466 93.8487C91.6163 93.9441 91.8087 94.0002 92.018 94.0002C92.6404 94.0002 93.1496 93.4953 93.1496 92.8783V85.8436L87.9896 76.9858C97.1724 69.1714 103 57.5816 103 44.6342V44.6342Z" fill="white"/>
</mask>
<g mask="url(#mask3_369_1371)">
<path d="M82.6328 44.6348C82.6328 57.0267 72.4995 67.0738 60.0012 67.0738C56.2839 67.0738 52.776 66.1819 49.6812 64.6055L60.0012 46.8787L61.3081 44.6348H50.8524L26.8516 85.8441V92.8788C26.8516 93.4959 27.3608 94.0007 27.9831 94.0007C28.1925 94.0007 28.3849 93.9446 28.5546 93.8493L34.6934 90.3376L45.1492 72.3863C49.5793 74.72 54.6318 76.0495 60.0012 76.0495C77.501 76.0495 91.6854 61.9858 91.6854 44.6348H82.6328Z" fill="#EEEEEE"/>
<path d="M50.8524 44.6348L26.8516 85.8441V86.4051L51.1805 44.6348H50.8524ZM60.0012 67.0738C56.2839 67.0738 52.776 66.1819 49.6812 64.6055V65.1665C52.776 66.7429 56.2839 67.6348 60.0012 67.6348C72.4995 67.6348 82.6328 57.5877 82.6328 45.1957H91.6684C91.6741 45.0106 91.6854 44.8255 91.6854 44.6348H82.6328C82.6328 57.0267 72.4995 67.0738 60.0012 67.0738Z" fill="white"/>
</g>
<path d="M70.1821 24.4388H64.5242V17.707H55.4716V24.4388H49.8137C47.9466 24.4388 46.4189 25.9534 46.4189 27.8046V44.6339L57.5989 55.7076C58.2157 56.3135 59.0587 56.6949 59.9979 56.6949C60.9371 56.6949 61.7858 56.3191 62.3968 55.7076L73.5768 44.6339V27.8046C73.5768 25.9534 72.0492 24.4388 70.1821 24.4388V24.4388ZM59.9979 43.512C56.8747 43.512 54.34 40.9988 54.34 37.9022C54.34 34.8056 56.8747 32.2924 59.9979 32.2924C63.1211 32.2924 65.6558 34.8056 65.6558 37.9022C65.6558 40.9988 63.1211 43.512 59.9979 43.512Z" fill="#757575"/>
<path d="M7.824 127.52H2.96L2.064 130H0.528L4.56 118.912H6.24L10.256 130H8.72L7.824 127.52ZM7.408 126.336L5.392 120.704L3.376 126.336H7.408ZM16.2853 121.072C17.3519 121.072 18.2159 121.397 18.8773 122.048C19.5386 122.688 19.8693 123.616 19.8693 124.832V130H18.4293V125.04C18.4293 124.165 18.2106 123.499 17.7733 123.04C17.3359 122.571 16.7386 122.336 15.9813 122.336C15.2133 122.336 14.5999 122.576 14.1413 123.056C13.6933 123.536 13.4693 124.235 13.4693 125.152V130H12.0133V121.232H13.4693V122.48C13.7573 122.032 14.1466 121.685 14.6373 121.44C15.1386 121.195 15.6879 121.072 16.2853 121.072ZM21.7036 125.584C21.7036 124.688 21.885 123.904 22.2476 123.232C22.6103 122.549 23.1063 122.021 23.7356 121.648C24.3756 121.275 25.0903 121.088 25.8796 121.088C26.5623 121.088 27.197 121.248 27.7836 121.568C28.3703 121.877 28.8183 122.288 29.1276 122.8V118.16H30.5996V130H29.1276V128.352C28.8396 128.875 28.413 129.307 27.8476 129.648C27.2823 129.979 26.621 130.144 25.8636 130.144C25.085 130.144 24.3756 129.952 23.7356 129.568C23.1063 129.184 22.6103 128.645 22.2476 127.952C21.885 127.259 21.7036 126.469 21.7036 125.584ZM29.1276 125.6C29.1276 124.939 28.9943 124.363 28.7276 123.872C28.461 123.381 28.0983 123.008 27.6396 122.752C27.1916 122.485 26.6956 122.352 26.1516 122.352C25.6076 122.352 25.1116 122.48 24.6636 122.736C24.2156 122.992 23.8583 123.365 23.5916 123.856C23.325 124.347 23.1916 124.923 23.1916 125.584C23.1916 126.256 23.325 126.843 23.5916 127.344C23.8583 127.835 24.2156 128.213 24.6636 128.48C25.1116 128.736 25.6076 128.864 26.1516 128.864C26.6956 128.864 27.1916 128.736 27.6396 128.48C28.0983 128.213 28.461 127.835 28.7276 127.344C28.9943 126.843 29.1276 126.261 29.1276 125.6ZM34.5161 122.656C34.7721 122.155 35.1348 121.765 35.6041 121.488C36.0841 121.211 36.6655 121.072 37.3481 121.072V122.576H36.9641C35.3321 122.576 34.5161 123.461 34.5161 125.232V130H33.0601V121.232H34.5161V122.656ZM42.8529 130.144C42.0315 130.144 41.2849 129.957 40.6129 129.584C39.9515 129.211 39.4289 128.683 39.0449 128C38.6715 127.307 38.4849 126.507 38.4849 125.6C38.4849 124.704 38.6769 123.915 39.0609 123.232C39.4555 122.539 39.9889 122.011 40.6609 121.648C41.3329 121.275 42.0849 121.088 42.9169 121.088C43.7489 121.088 44.5009 121.275 45.1729 121.648C45.8449 122.011 46.3729 122.533 46.7569 123.216C47.1515 123.899 47.3489 124.693 47.3489 125.6C47.3489 126.507 47.1462 127.307 46.7409 128C46.3462 128.683 45.8075 129.211 45.1249 129.584C44.4422 129.957 43.6849 130.144 42.8529 130.144ZM42.8529 128.864C43.3755 128.864 43.8662 128.741 44.3249 128.496C44.7835 128.251 45.1515 127.883 45.4289 127.392C45.7169 126.901 45.8609 126.304 45.8609 125.6C45.8609 124.896 45.7222 124.299 45.4449 123.808C45.1675 123.317 44.8049 122.955 44.3569 122.72C43.9089 122.475 43.4235 122.352 42.9009 122.352C42.3675 122.352 41.8769 122.475 41.4289 122.72C40.9915 122.955 40.6395 123.317 40.3729 123.808C40.1062 124.299 39.9729 124.896 39.9729 125.6C39.9729 126.315 40.1009 126.917 40.3569 127.408C40.6235 127.899 40.9755 128.267 41.4129 128.512C41.8502 128.747 42.3302 128.864 42.8529 128.864ZM50.0153 119.808C49.7379 119.808 49.5033 119.712 49.3113 119.52C49.1193 119.328 49.0233 119.093 49.0233 118.816C49.0233 118.539 49.1193 118.304 49.3113 118.112C49.5033 117.92 49.7379 117.824 50.0153 117.824C50.2819 117.824 50.5059 117.92 50.6873 118.112C50.8793 118.304 50.9753 118.539 50.9753 118.816C50.9753 119.093 50.8793 119.328 50.6873 119.52C50.5059 119.712 50.2819 119.808 50.0153 119.808ZM50.7193 121.232V130H49.2633V121.232H50.7193ZM52.6568 125.584C52.6568 124.688 52.8381 123.904 53.2008 123.232C53.5634 122.549 54.0594 122.021 54.6888 121.648C55.3288 121.275 56.0434 121.088 56.8328 121.088C57.5154 121.088 58.1501 121.248 58.7368 121.568C59.3234 121.877 59.7714 122.288 60.0808 122.8V118.16H61.5528V130H60.0808V128.352C59.7928 128.875 59.3661 129.307 58.8008 129.648C58.2354 129.979 57.5741 130.144 56.8168 130.144C56.0381 130.144 55.3288 129.952 54.6888 129.568C54.0594 129.184 53.5634 128.645 53.2008 127.952C52.8381 127.259 52.6568 126.469 52.6568 125.584ZM60.0808 125.6C60.0808 124.939 59.9474 124.363 59.6808 123.872C59.4141 123.381 59.0514 123.008 58.5928 122.752C58.1448 122.485 57.6488 122.352 57.1048 122.352C56.5608 122.352 56.0648 122.48 55.6168 122.736C55.1688 122.992 54.8114 123.365 54.5448 123.856C54.2781 124.347 54.1448 124.923 54.1448 125.584C54.1448 126.256 54.2781 126.843 54.5448 127.344C54.8114 127.835 55.1688 128.213 55.6168 128.48C56.0648 128.736 56.5608 128.864 57.1048 128.864C57.6488 128.864 58.1448 128.736 58.5928 128.48C59.0514 128.213 59.4141 127.835 59.6808 127.344C59.9474 126.843 60.0808 126.261 60.0808 125.6ZM71.8149 130.112C71.0789 130.112 70.4175 129.984 69.8309 129.728C69.2549 129.461 68.8015 129.099 68.4709 128.64C68.1402 128.171 67.9695 127.632 67.9589 127.024H69.5109C69.5642 127.547 69.7775 127.989 70.1509 128.352C70.5349 128.704 71.0895 128.88 71.8149 128.88C72.5082 128.88 73.0522 128.709 73.4469 128.368C73.8522 128.016 74.0549 127.568 74.0549 127.024C74.0549 126.597 73.9375 126.251 73.7029 125.984C73.4682 125.717 73.1749 125.515 72.8229 125.376C72.4709 125.237 71.9962 125.088 71.3989 124.928C70.6629 124.736 70.0709 124.544 69.6229 124.352C69.1855 124.16 68.8069 123.861 68.4869 123.456C68.1775 123.04 68.0229 122.485 68.0229 121.792C68.0229 121.184 68.1775 120.645 68.4869 120.176C68.7962 119.707 69.2282 119.344 69.7829 119.088C70.3482 118.832 70.9935 118.704 71.7189 118.704C72.7642 118.704 73.6175 118.965 74.2789 119.488C74.9509 120.011 75.3295 120.704 75.4149 121.568H73.8149C73.7615 121.141 73.5375 120.768 73.1429 120.448C72.7482 120.117 72.2255 119.952 71.5749 119.952C70.9669 119.952 70.4709 120.112 70.0869 120.432C69.7029 120.741 69.5109 121.179 69.5109 121.744C69.5109 122.149 69.6229 122.48 69.8469 122.736C70.0815 122.992 70.3642 123.189 70.6949 123.328C71.0362 123.456 71.5109 123.605 72.1189 123.776C72.8549 123.979 73.4469 124.181 73.8949 124.384C74.3429 124.576 74.7269 124.88 75.0469 125.296C75.3669 125.701 75.5269 126.256 75.5269 126.96C75.5269 127.504 75.3829 128.016 75.0949 128.496C74.8069 128.976 74.3802 129.365 73.8149 129.664C73.2495 129.963 72.5829 130.112 71.8149 130.112ZM79.4455 122.432V127.6C79.4455 128.027 79.5362 128.331 79.7175 128.512C79.8988 128.683 80.2135 128.768 80.6615 128.768H81.7335V130H80.4215C79.6108 130 79.0028 129.813 78.5975 129.44C78.1922 129.067 77.9895 128.453 77.9895 127.6V122.432H76.8535V121.232H77.9895V119.024H79.4455V121.232H81.7335V122.432H79.4455ZM91.2736 121.232V130H89.8176V128.704C89.5403 129.152 89.151 129.504 88.6496 129.76C88.159 130.005 87.615 130.128 87.0176 130.128C86.335 130.128 85.7216 129.989 85.1776 129.712C84.6336 129.424 84.2016 128.997 83.8816 128.432C83.5723 127.867 83.4176 127.179 83.4176 126.368V121.232H84.8576V126.176C84.8576 127.04 85.0763 127.707 85.5136 128.176C85.951 128.635 86.5483 128.864 87.3056 128.864C88.0843 128.864 88.6976 128.624 89.1456 128.144C89.5936 127.664 89.8176 126.965 89.8176 126.048V121.232H91.2736ZM93.188 125.584C93.188 124.688 93.3693 123.904 93.732 123.232C94.0947 122.549 94.5907 122.021 95.22 121.648C95.86 121.275 96.5747 121.088 97.364 121.088C98.0467 121.088 98.6813 121.248 99.268 121.568C99.8547 121.877 100.303 122.288 100.612 122.8V118.16H102.084V130H100.612V128.352C100.324 128.875 99.8973 129.307 99.332 129.648C98.7667 129.979 98.1053 130.144 97.348 130.144C96.5693 130.144 95.86 129.952 95.22 129.568C94.5907 129.184 94.0947 128.645 93.732 127.952C93.3693 127.259 93.188 126.469 93.188 125.584ZM100.612 125.6C100.612 124.939 100.479 124.363 100.212 123.872C99.9453 123.381 99.5827 123.008 99.124 122.752C98.676 122.485 98.18 122.352 97.636 122.352C97.092 122.352 96.596 122.48 96.148 122.736C95.7 122.992 95.3427 123.365 95.076 123.856C94.8093 124.347 94.676 124.923 94.676 125.584C94.676 126.256 94.8093 126.843 95.076 127.344C95.3427 127.835 95.7 128.213 96.148 128.48C96.596 128.736 97.092 128.864 97.636 128.864C98.18 128.864 98.676 128.736 99.124 128.48C99.5827 128.213 99.9453 127.835 100.212 127.344C100.479 126.843 100.612 126.261 100.612 125.6ZM105.297 119.808C105.019 119.808 104.785 119.712 104.593 119.52C104.401 119.328 104.305 119.093 104.305 118.816C104.305 118.539 104.401 118.304 104.593 118.112C104.785 117.92 105.019 117.824 105.297 117.824C105.563 117.824 105.787 117.92 105.969 118.112C106.161 118.304 106.257 118.539 106.257 118.816C106.257 119.093 106.161 119.328 105.969 119.52C105.787 119.712 105.563 119.808 105.297 119.808ZM106.001 121.232V130H104.545V121.232H106.001ZM112.306 130.144C111.485 130.144 110.738 129.957 110.066 129.584C109.405 129.211 108.882 128.683 108.498 128C108.125 127.307 107.938 126.507 107.938 125.6C107.938 124.704 108.13 123.915 108.514 123.232C108.909 122.539 109.442 122.011 110.114 121.648C110.786 121.275 111.538 121.088 112.37 121.088C113.202 121.088 113.954 121.275 114.626 121.648C115.298 122.011 115.826 122.533 116.21 123.216C116.605 123.899 116.802 124.693 116.802 125.6C116.802 126.507 116.599 127.307 116.194 128C115.799 128.683 115.261 129.211 114.578 129.584C113.895 129.957 113.138 130.144 112.306 130.144ZM112.306 128.864C112.829 128.864 113.319 128.741 113.778 128.496C114.237 128.251 114.605 127.883 114.882 127.392C115.17 126.901 115.314 126.304 115.314 125.6C115.314 124.896 115.175 124.299 114.898 123.808C114.621 123.317 114.258 122.955 113.81 122.72C113.362 122.475 112.877 122.352 112.354 122.352C111.821 122.352 111.33 122.475 110.882 122.72C110.445 122.955 110.093 123.317 109.826 123.808C109.559 124.299 109.426 124.896 109.426 125.6C109.426 126.315 109.554 126.917 109.81 127.408C110.077 127.899 110.429 128.267 110.866 128.512C111.303 128.747 111.783 128.864 112.306 128.864Z" fill="#AFAFAF"/>
</svg>
