<svg width="96" height="136" viewBox="0 0 96 136" fill="none" xmlns="http://www.w3.org/2000/svg">
<path d="M29.1778 11.8585C33.5696 8.41074 39.0653 6.42787 44.6554 6.03127C48.2931 5.7991 51.7728 7.01797 55.228 7.9416C66.1163 10.7852 77.0836 13.3289 88.0461 15.8772C91.0973 16.3027 93.6504 18.5564 94.9665 21.2112C96.0313 23.7067 94.6462 26.4195 92.689 28.054C90.4813 30.0078 88.0459 31.6956 85.6753 33.4559C82.6095 35.6415 79.657 38.0063 76.3939 39.9116C73.9094 40.6904 71.4203 41.8799 68.7435 41.6381C54.6711 40.2504 40.559 39.2589 26.4865 37.8757C18.6245 37.0585 10.7331 36.6377 2.86139 35.9703C1.555 35.9219 0.859865 34.7131 0.046875 33.8912C1.11649 32.2856 2.37817 30.7816 4.00944 29.6934C12.4337 23.7984 20.8132 17.8407 29.1778 11.8585V11.8585Z" fill="#CBCBCB"/>
<path d="M85.6744 33.4551C88.0452 31.6949 90.4804 30.007 92.6881 28.0532C93.7483 29.5429 95.2813 30.9597 95.3058 32.8987C95.5079 35.0267 94.1129 36.8884 92.6091 38.2619C86.5465 43.1944 80.0352 47.571 73.6717 52.1117C69.2704 55.3712 64.8637 58.6304 60.5162 61.9529C55.5969 65.6619 49.421 68.0267 43.1507 67.611C39.7199 67.4708 36.4174 66.3342 33.4502 64.6851C23.8236 59.3656 14.0886 54.2057 3.97437 49.8293C1.94348 48.8476 -0.358316 46.9616 0.124505 44.476C0.652036 42.4304 2.45144 41.0958 3.92477 39.6983C13.0388 43.6443 21.8472 48.2287 30.5222 53.0212C33.3419 54.5926 36.1763 56.2611 39.3604 57.0153C44.6047 58.2437 50.2339 57.4893 55.0596 55.1729C58.9736 53.4274 62.138 50.5159 65.5488 48.016C69.1668 45.3176 72.76 42.5899 76.393 39.9109C79.6561 38.0055 82.6087 35.6407 85.6744 33.4551V33.4551Z" fill="#CBCBCB"/>
<path d="M0.0452086 33.8901C0.858199 34.7121 1.55333 35.9209 2.85972 35.9693C10.7313 36.6366 18.6228 37.0574 26.4849 37.8747C40.5574 39.2579 54.6694 40.2494 68.7418 41.6371C71.4186 41.8789 73.9078 40.6893 76.3922 39.9105C72.7593 42.5897 69.1661 45.3172 65.5481 48.0157C62.1373 50.5158 58.9729 53.427 55.0588 55.1725C50.2333 57.489 44.604 58.2434 39.3596 57.015C36.1757 56.2606 33.3413 54.5923 30.5216 53.0207C21.8466 48.2282 13.0382 43.6438 3.92418 39.6978C1.62754 38.6727 -0.324513 36.5159 0.0452086 33.8901V33.8901Z" fill="#E2E2E2"/>
<path d="M73.6701 52.112C80.0335 47.5714 86.5449 43.1947 92.6076 38.2622C93.8106 39.6211 95.2893 41.0814 95.3043 43.0109C95.5358 45.1387 94.1212 46.9859 92.6177 48.3498C84.6474 54.8491 75.8881 60.3331 67.7405 66.6052C65.3077 68.408 62.8908 70.2313 60.4899 72.0748C55.5705 75.7693 49.404 78.1341 43.144 77.7468C39.7235 77.5685 36.4109 76.4703 33.4485 74.8114C23.8168 69.4827 14.0527 64.3614 3.9378 59.9656C2.30124 59.1143 0.640337 57.8523 0.127753 56.0244C-0.335755 53.3162 2.15335 51.435 3.97233 49.8296C14.0868 54.2061 23.8218 59.3659 33.4485 64.6854C36.4156 66.3344 39.718 67.471 43.1489 67.6112C49.4192 68.027 55.5949 65.6622 60.5145 61.9531C64.8621 58.6308 69.2686 55.3715 73.6701 52.112V52.112Z" fill="#E2E2E2"/>
<path d="M67.743 66.6046C75.8907 60.3324 84.65 54.8485 92.62 48.3491C93.7339 49.7902 95.2868 51.2218 95.2622 53.1702C95.484 55.9462 93.2212 58.0451 91.2053 59.6359C81.4608 67.0446 71.2227 73.8098 61.5818 81.3542C57.4409 84.6958 52.438 87.1279 47.0805 87.7664C42.6342 88.3129 38.0399 87.3839 34.1217 85.2758C24.3127 79.9035 14.4449 74.5886 4.12787 70.2025C2.07238 69.1869 -0.322811 67.33 0.0959862 64.7912C0.549441 62.6925 2.40757 61.3239 3.94056 59.965C14.0553 64.3608 23.8195 69.4821 33.4512 74.8108C36.4136 76.4698 39.7263 77.5679 43.1468 77.7463C49.4069 78.1335 55.5731 75.7687 60.4926 72.0742C62.8934 70.2307 65.3103 68.4075 67.743 66.6046V66.6046Z" fill="#AFAFAF"/>
<path d="M11.316 124.256C11.7213 124.32 12.0893 124.485 12.42 124.752C12.7613 125.019 13.028 125.349 13.22 125.744C13.4227 126.139 13.524 126.56 13.524 127.008C13.524 127.573 13.38 128.085 13.092 128.544C12.804 128.992 12.3827 129.349 11.828 129.616C11.284 129.872 10.6387 130 9.892 130H5.732V118.848H9.732C10.4893 118.848 11.1347 118.976 11.668 119.232C12.2013 119.477 12.6013 119.813 12.868 120.24C13.1347 120.667 13.268 121.147 13.268 121.68C13.268 122.341 13.0867 122.891 12.724 123.328C12.372 123.755 11.9027 124.064 11.316 124.256ZM7.188 123.664H9.636C10.3187 123.664 10.8467 123.504 11.22 123.184C11.5933 122.864 11.78 122.421 11.78 121.856C11.78 121.291 11.5933 120.848 11.22 120.528C10.8467 120.208 10.308 120.048 9.604 120.048H7.188V123.664ZM9.764 128.8C10.4893 128.8 11.0547 128.629 11.46 128.288C11.8653 127.947 12.068 127.472 12.068 126.864C12.068 126.245 11.8547 125.76 11.428 125.408C11.0013 125.045 10.4307 124.864 9.716 124.864H7.188V128.8H9.764ZM17.0005 118.16V130H15.5445V118.16H17.0005ZM27.258 121.232V130H25.802V128.704C25.5247 129.152 25.1353 129.504 24.634 129.76C24.1433 130.005 23.5993 130.128 23.002 130.128C22.3193 130.128 21.706 129.989 21.162 129.712C20.618 129.424 20.186 128.997 19.866 128.432C19.5567 127.867 19.402 127.179 19.402 126.368V121.232H20.842V126.176C20.842 127.04 21.0607 127.707 21.498 128.176C21.9353 128.635 22.5327 128.864 23.29 128.864C24.0687 128.864 24.682 128.624 25.13 128.144C25.578 127.664 25.802 126.965 25.802 126.048V121.232H27.258ZM37.7164 125.28C37.7164 125.557 37.7004 125.851 37.6684 126.16H30.6604C30.7137 127.024 31.007 127.701 31.5404 128.192C32.0844 128.672 32.7404 128.912 33.5084 128.912C34.1377 128.912 34.6604 128.768 35.0764 128.48C35.503 128.181 35.8017 127.787 35.9724 127.296H37.5404C37.3057 128.139 36.8364 128.827 36.1324 129.36C35.4284 129.883 34.5537 130.144 33.5084 130.144C32.6764 130.144 31.9297 129.957 31.2684 129.584C30.6177 129.211 30.1057 128.683 29.7324 128C29.359 127.307 29.1724 126.507 29.1724 125.6C29.1724 124.693 29.3537 123.899 29.7164 123.216C30.079 122.533 30.5857 122.011 31.2364 121.648C31.8977 121.275 32.655 121.088 33.5084 121.088C34.3404 121.088 35.0764 121.269 35.7164 121.632C36.3564 121.995 36.847 122.496 37.1884 123.136C37.5404 123.765 37.7164 124.48 37.7164 125.28ZM36.2124 124.976C36.2124 124.421 36.0897 123.947 35.8444 123.552C35.599 123.147 35.263 122.843 34.8364 122.64C34.4204 122.427 33.9564 122.32 33.4444 122.32C32.7084 122.32 32.079 122.555 31.5564 123.024C31.0444 123.493 30.751 124.144 30.6764 124.976H36.2124ZM43.1743 130.112C42.4383 130.112 41.7769 129.984 41.1903 129.728C40.6143 129.461 40.1609 129.099 39.8303 128.64C39.4996 128.171 39.3289 127.632 39.3183 127.024H40.8703C40.9236 127.547 41.1369 127.989 41.5103 128.352C41.8943 128.704 42.4489 128.88 43.1743 128.88C43.8676 128.88 44.4116 128.709 44.8063 128.368C45.2116 128.016 45.4143 127.568 45.4143 127.024C45.4143 126.597 45.2969 126.251 45.0623 125.984C44.8276 125.717 44.5343 125.515 44.1823 125.376C43.8303 125.237 43.3556 125.088 42.7583 124.928C42.0223 124.736 41.4303 124.544 40.9823 124.352C40.5449 124.16 40.1663 123.861 39.8463 123.456C39.5369 123.04 39.3823 122.485 39.3823 121.792C39.3823 121.184 39.5369 120.645 39.8463 120.176C40.1556 119.707 40.5876 119.344 41.1423 119.088C41.7076 118.832 42.3529 118.704 43.0783 118.704C44.1236 118.704 44.9769 118.965 45.6383 119.488C46.3103 120.011 46.6889 120.704 46.7743 121.568H45.1743C45.1209 121.141 44.8969 120.768 44.5023 120.448C44.1076 120.117 43.5849 119.952 42.9343 119.952C42.3263 119.952 41.8303 120.112 41.4463 120.432C41.0623 120.741 40.8703 121.179 40.8703 121.744C40.8703 122.149 40.9823 122.48 41.2063 122.736C41.4409 122.992 41.7236 123.189 42.0543 123.328C42.3956 123.456 42.8703 123.605 43.4783 123.776C44.2143 123.979 44.8063 124.181 45.2543 124.384C45.7023 124.576 46.0863 124.88 46.4062 125.296C46.7263 125.701 46.8863 126.256 46.8863 126.96C46.8863 127.504 46.7423 128.016 46.4543 128.496C46.1663 128.976 45.7396 129.365 45.1743 129.664C44.6089 129.963 43.9423 130.112 43.1743 130.112ZM50.8049 122.432V127.6C50.8049 128.027 50.8955 128.331 51.0769 128.512C51.2582 128.683 51.5729 128.768 52.0209 128.768H53.0929V130H51.7809C50.9702 130 50.3622 129.813 49.9569 129.44C49.5515 129.067 49.3489 128.453 49.3489 127.6V122.432H48.2129V121.232H49.3489V119.024H50.8049V121.232H53.0929V122.432H50.8049ZM54.313 125.584C54.313 124.688 54.4943 123.904 54.857 123.232C55.2197 122.549 55.7157 122.021 56.345 121.648C56.985 121.275 57.6943 121.088 58.473 121.088C59.241 121.088 59.9077 121.253 60.473 121.584C61.0383 121.915 61.4597 122.331 61.737 122.832V121.232H63.209V130H61.737V128.368C61.449 128.88 61.017 129.307 60.441 129.648C59.8757 129.979 59.2143 130.144 58.457 130.144C57.6783 130.144 56.9743 129.952 56.345 129.568C55.7157 129.184 55.2197 128.645 54.857 127.952C54.4943 127.259 54.313 126.469 54.313 125.584ZM61.737 125.6C61.737 124.939 61.6037 124.363 61.337 123.872C61.0703 123.381 60.7077 123.008 60.249 122.752C59.801 122.485 59.305 122.352 58.761 122.352C58.217 122.352 57.721 122.48 57.273 122.736C56.825 122.992 56.4677 123.365 56.201 123.856C55.9343 124.347 55.801 124.923 55.801 125.584C55.801 126.256 55.9343 126.843 56.201 127.344C56.4677 127.835 56.825 128.213 57.273 128.48C57.721 128.736 58.217 128.864 58.761 128.864C59.305 128.864 59.801 128.736 60.249 128.48C60.7077 128.213 61.0703 127.835 61.337 127.344C61.6037 126.843 61.737 126.261 61.737 125.6ZM65.1255 125.6C65.1255 124.693 65.3068 123.904 65.6695 123.232C66.0322 122.549 66.5335 122.021 67.1735 121.648C67.8242 121.275 68.5655 121.088 69.3975 121.088C70.4748 121.088 71.3602 121.349 72.0535 121.872C72.7575 122.395 73.2215 123.12 73.4455 124.048H71.8775C71.7282 123.515 71.4348 123.093 70.9975 122.784C70.5708 122.475 70.0375 122.32 69.3975 122.32C68.5655 122.32 67.8935 122.608 67.3815 123.184C66.8695 123.749 66.6135 124.555 66.6135 125.6C66.6135 126.656 66.8695 127.472 67.3815 128.048C67.8935 128.624 68.5655 128.912 69.3975 128.912C70.0375 128.912 70.5708 128.763 70.9975 128.464C71.4242 128.165 71.7175 127.739 71.8775 127.184H73.4455C73.2108 128.08 72.7415 128.8 72.0375 129.344C71.3335 129.877 70.4535 130.144 69.3975 130.144C68.5655 130.144 67.8242 129.957 67.1735 129.584C66.5335 129.211 66.0322 128.683 65.6695 128C65.3068 127.317 65.1255 126.517 65.1255 125.6ZM80.2843 130L76.8443 126.128V130H75.3883V118.16H76.8443V125.12L80.2203 121.232H82.2523L78.1243 125.6L82.2683 130H80.2843ZM86.7266 130.144C86.0546 130.144 85.452 130.032 84.9186 129.808C84.3853 129.573 83.964 129.253 83.6546 128.848C83.3453 128.432 83.1746 127.957 83.1426 127.424H84.6466C84.6893 127.861 84.892 128.219 85.2546 128.496C85.628 128.773 86.1133 128.912 86.7106 128.912C87.2653 128.912 87.7026 128.789 88.0226 128.544C88.3426 128.299 88.5026 127.989 88.5026 127.616C88.5026 127.232 88.332 126.949 87.9906 126.768C87.6493 126.576 87.1213 126.389 86.4066 126.208C85.756 126.037 85.2226 125.867 84.8066 125.696C84.4013 125.515 84.0493 125.253 83.7506 124.912C83.4626 124.56 83.3186 124.101 83.3186 123.536C83.3186 123.088 83.452 122.677 83.7186 122.304C83.9853 121.931 84.364 121.637 84.8546 121.424C85.3453 121.2 85.9053 121.088 86.5346 121.088C87.5053 121.088 88.2893 121.333 88.8866 121.824C89.484 122.315 89.804 122.987 89.8466 123.84H88.3906C88.3586 123.381 88.172 123.013 87.8306 122.736C87.5 122.459 87.052 122.32 86.4866 122.32C85.964 122.32 85.548 122.432 85.2386 122.656C84.9293 122.88 84.7746 123.173 84.7746 123.536C84.7746 123.824 84.8653 124.064 85.0466 124.256C85.2386 124.437 85.4733 124.587 85.7506 124.704C86.0386 124.811 86.4333 124.933 86.9346 125.072C87.564 125.243 88.076 125.413 88.4706 125.584C88.8653 125.744 89.2013 125.989 89.4786 126.32C89.7666 126.651 89.916 127.083 89.9266 127.616C89.9266 128.096 89.7933 128.528 89.5266 128.912C89.26 129.296 88.8813 129.6 88.3906 129.824C87.9106 130.037 87.356 130.144 86.7266 130.144Z" fill="#AFAFAF"/>
</svg>
