<svg width="96" height="136" viewBox="0 0 96 136" fill="none" xmlns="http://www.w3.org/2000/svg">
<path d="M29.3109 66.3763C26.9663 63.9996 25.1115 61.1816 23.8528 58.0837C22.5941 54.9858 21.9561 51.6689 21.9755 48.323C21.967 44.9772 22.6226 41.6632 23.904 38.5749C25.1854 35.4866 27.0669 32.6859 29.4385 30.3366C30.4544 29.4295 31.2754 28.3237 31.851 27.0869C32.4266 25.8501 32.7449 24.5082 32.7863 23.1436C32.8277 21.7789 32.5914 20.42 32.0918 19.1503C31.5922 17.8805 30.8399 16.7266 29.8809 15.7591C28.9219 14.7915 27.7763 14.0308 26.5145 13.5235C25.2526 13.0162 23.9009 12.7729 22.5421 12.8086C21.1834 12.8443 19.8462 13.1582 18.6124 13.7311C17.3787 14.3039 16.2743 15.1238 15.3669 16.1403C6.84408 24.651 2.03565 36.2138 1.99923 48.2854C1.96281 60.357 6.70139 71.9489 15.1727 80.5113C16.0771 81.5264 17.1779 82.3459 18.4079 82.9198C19.6378 83.4937 20.9713 83.8099 22.3269 83.8492C23.6825 83.8885 25.0319 83.6501 26.2928 83.1485C27.5537 82.6469 28.6997 81.8926 29.6609 80.9316C30.6222 79.9706 31.3785 78.823 31.8838 77.5588C32.3891 76.2946 32.6328 74.9403 32.6 73.5784C32.5673 72.2165 32.2588 70.8756 31.6933 69.6374C31.1278 68.3992 30.3172 67.2896 29.3109 66.3763Z" fill="#E2E2E2"/>
<path d="M29.4388 30.3366C34.2183 25.5838 40.6789 22.9283 47.4043 22.9523C54.1297 22.9764 60.5712 25.6779 65.317 30.4648C66.2182 31.4906 67.3188 32.3205 68.5511 32.9033C69.7834 33.4861 71.1213 33.8096 72.4826 33.8538C73.8439 33.8981 75.1999 33.6622 76.4671 33.1606C77.7343 32.6591 78.886 31.9024 79.8514 30.9373C80.8167 29.9721 81.5754 28.8188 82.0807 27.5483C82.586 26.2778 82.8272 24.9169 82.7896 23.5492C82.752 22.1816 82.4363 20.8361 81.8619 19.5955C81.2875 18.355 80.4666 17.2455 79.4497 16.3354C75.2705 12.0833 70.2964 8.70249 64.8128 6.387C59.3292 4.07151 53.4442 2.867 47.4959 2.84266C41.5476 2.81832 35.653 3.97462 30.1508 6.24516C24.6486 8.51569 19.6472 11.8557 15.4337 16.0734C14.4142 16.9758 13.5886 18.0777 13.0077 19.3117C12.4267 20.5457 12.1025 21.8857 12.0549 23.2499C12.0074 24.6141 12.2375 25.9736 12.7311 27.2454C13.2247 28.5172 13.9715 29.6744 14.9257 30.6462C15.88 31.618 17.0216 32.384 18.2807 32.8973C19.5399 33.4106 20.89 33.6605 22.2486 33.6315C23.6072 33.6025 24.9456 33.2953 26.1819 32.7288C27.4182 32.1623 28.5265 31.3483 29.4388 30.3366Z" fill="#E2E2E2"/>
<path d="M65.2555 66.5045C62.8904 68.8644 60.085 70.7324 57 72.0015C53.9151 73.2707 50.6112 73.9161 47.2776 73.9008C43.9448 73.9058 40.6445 73.2428 37.57 71.9508C34.4954 70.6588 31.7083 68.7636 29.3718 66.3763C28.4688 65.3558 27.368 64.5312 26.1367 63.953C24.9054 63.3747 23.5696 63.055 22.211 63.0134C20.8524 62.9718 19.4997 63.2092 18.2356 63.7111C16.9716 64.2129 15.8228 64.9686 14.8596 65.932C13.8964 66.8953 13.1391 68.046 12.6341 69.3136C12.129 70.5811 11.8868 71.9389 11.9224 73.3038C11.9579 74.6686 12.2704 76.0118 12.8407 77.2512C13.411 78.4905 14.2271 79.5998 15.2391 80.5113C19.4254 84.763 24.4059 88.1431 29.8951 90.4578C35.3843 92.7724 41.2742 93.9761 47.2274 94C53.1806 94.0238 59.0799 92.8672 64.5873 90.5966C70.0946 88.3259 75.1017 84.9858 79.3216 80.7677C80.254 79.8399 80.9953 78.7368 81.5032 77.5213C82.0111 76.3057 82.2757 75.0016 82.2819 73.6834C82.2881 72.3651 82.0357 71.0586 81.5392 69.8383C81.0427 68.618 80.3118 67.5079 79.3882 66.5714C78.4646 65.6348 77.3664 64.8902 76.1564 64.38C74.9463 63.8698 73.648 63.604 72.3357 63.5978C71.0233 63.5916 69.7226 63.8451 68.5078 64.3438C67.293 64.8425 66.1879 65.5768 65.2555 66.5045Z" fill="#CBCBCB"/>
<path d="M29.4386 30.3367C28.0387 31.7412 26.255 32.6964 24.3139 33.0812C22.3727 33.466 20.3616 33.2629 18.5355 32.4978C16.7094 31.7327 15.1506 30.44 14.057 28.7838C12.9634 27.1275 12.3841 25.1822 12.3927 23.1948C12.4013 21.2073 12.9973 19.2672 14.1052 17.6205C15.2131 15.9738 16.7829 14.6948 18.6156 13.9456C20.4482 13.1964 22.4611 13.0109 24.3988 13.4126C26.3366 13.8143 28.1119 14.785 29.4996 16.2017C31.3484 18.089 32.3794 20.634 32.368 23.2818C32.3566 25.9296 31.3036 28.4655 29.4386 30.3367Z" fill="#EEEEEE"/>
<path d="M29.2434 80.5118C27.843 81.9158 26.0589 82.8703 24.1176 83.2543C22.1763 83.6383 20.1652 83.4345 18.3394 82.6687C16.5136 81.9028 14.9554 80.6095 13.8624 78.9528C12.7694 77.2961 12.1909 75.3506 12.2003 73.3632C12.2097 71.3757 12.8065 69.4358 13.915 67.7896C15.0236 66.1433 16.5939 64.8649 18.4268 64.1165C20.2598 63.368 22.2727 63.1833 24.2103 63.5858C26.1479 63.9882 27.9228 64.9596 29.31 66.3769C31.158 68.2649 32.1881 70.8103 32.1756 73.4581C32.1631 76.1059 31.1091 78.6414 29.2434 80.5118Z" fill="#EEEEEE"/>
<path d="M6.64894 124.416C6.64894 123.328 6.89427 122.352 7.38494 121.488C7.8756 120.613 8.54227 119.931 9.38494 119.44C10.2383 118.949 11.1823 118.704 12.2169 118.704C13.4329 118.704 14.4943 118.997 15.4009 119.584C16.3076 120.171 16.9689 121.003 17.3849 122.08H15.6409C15.3316 121.408 14.8836 120.891 14.2969 120.528C13.7209 120.165 13.0276 119.984 12.2169 119.984C11.4383 119.984 10.7396 120.165 10.1209 120.528C9.50227 120.891 9.01694 121.408 8.66494 122.08C8.31294 122.741 8.13694 123.52 8.13694 124.416C8.13694 125.301 8.31294 126.08 8.66494 126.752C9.01694 127.413 9.50227 127.925 10.1209 128.288C10.7396 128.651 11.4383 128.832 12.2169 128.832C13.0276 128.832 13.7209 128.656 14.2969 128.304C14.8836 127.941 15.3316 127.424 15.6409 126.752H17.3849C16.9689 127.819 16.3076 128.645 15.4009 129.232C14.4943 129.808 13.4329 130.096 12.2169 130.096C11.1823 130.096 10.2383 129.856 9.38494 129.376C8.54227 128.885 7.8756 128.208 7.38494 127.344C6.89427 126.48 6.64894 125.504 6.64894 124.416ZM23.3763 130.144C22.555 130.144 21.8083 129.957 21.1363 129.584C20.475 129.211 19.9523 128.683 19.5683 128C19.195 127.307 19.0083 126.507 19.0083 125.6C19.0083 124.704 19.2003 123.915 19.5843 123.232C19.979 122.539 20.5123 122.011 21.1843 121.648C21.8563 121.275 22.6083 121.088 23.4403 121.088C24.2723 121.088 25.0243 121.275 25.6963 121.648C26.3683 122.011 26.8963 122.533 27.2803 123.216C27.675 123.899 27.8723 124.693 27.8723 125.6C27.8723 126.507 27.6696 127.307 27.2643 128C26.8696 128.683 26.331 129.211 25.6483 129.584C24.9656 129.957 24.2083 130.144 23.3763 130.144ZM23.3763 128.864C23.899 128.864 24.3896 128.741 24.8483 128.496C25.307 128.251 25.675 127.883 25.9523 127.392C26.2403 126.901 26.3843 126.304 26.3843 125.6C26.3843 124.896 26.2456 124.299 25.9683 123.808C25.691 123.317 25.3283 122.955 24.8803 122.72C24.4323 122.475 23.947 122.352 23.4243 122.352C22.891 122.352 22.4003 122.475 21.9523 122.72C21.515 122.955 21.163 123.317 20.8963 123.808C20.6296 124.299 20.4963 124.896 20.4963 125.6C20.4963 126.315 20.6243 126.917 20.8803 127.408C21.147 127.899 21.499 128.267 21.9363 128.512C22.3736 128.747 22.8536 128.864 23.3763 128.864ZM34.0587 121.072C35.1254 121.072 35.9894 121.397 36.6507 122.048C37.312 122.688 37.6427 123.616 37.6427 124.832V130H36.2027V125.04C36.2027 124.165 35.984 123.499 35.5467 123.04C35.1094 122.571 34.512 122.336 33.7547 122.336C32.9867 122.336 32.3734 122.576 31.9147 123.056C31.4667 123.536 31.2427 124.235 31.2427 125.152V130H29.7867V121.232H31.2427V122.48C31.5307 122.032 31.92 121.685 32.4107 121.44C32.912 121.195 33.4614 121.072 34.0587 121.072ZM41.7971 122.432V127.6C41.7971 128.027 41.8877 128.331 42.0691 128.512C42.2504 128.683 42.5651 128.768 43.0131 128.768H44.0851V130H42.7731C41.9624 130 41.3544 129.813 40.9491 129.44C40.5437 129.067 40.3411 128.453 40.3411 127.6V122.432H39.2051V121.232H40.3411V119.024H41.7971V121.232H44.0851V122.432H41.7971ZM53.8492 125.28C53.8492 125.557 53.8332 125.851 53.8012 126.16H46.7932C46.8465 127.024 47.1399 127.701 47.6732 128.192C48.2172 128.672 48.8732 128.912 49.6412 128.912C50.2705 128.912 50.7932 128.768 51.2092 128.48C51.6359 128.181 51.9345 127.787 52.1052 127.296H53.6732C53.4385 128.139 52.9692 128.827 52.2652 129.36C51.5612 129.883 50.6865 130.144 49.6412 130.144C48.8092 130.144 48.0625 129.957 47.4012 129.584C46.7505 129.211 46.2385 128.683 45.8652 128C45.4919 127.307 45.3052 126.507 45.3052 125.6C45.3052 124.693 45.4865 123.899 45.8492 123.216C46.2119 122.533 46.7185 122.011 47.3692 121.648C48.0305 121.275 48.7879 121.088 49.6412 121.088C50.4732 121.088 51.2092 121.269 51.8492 121.632C52.4892 121.995 52.9799 122.496 53.3212 123.136C53.6732 123.765 53.8492 124.48 53.8492 125.28ZM52.3452 124.976C52.3452 124.421 52.2225 123.947 51.9772 123.552C51.7319 123.147 51.3959 122.843 50.9692 122.64C50.5532 122.427 50.0892 122.32 49.5772 122.32C48.8412 122.32 48.2119 122.555 47.6892 123.024C47.1772 123.493 46.8839 124.144 46.8092 124.976H52.3452ZM60.0431 121.072C61.1097 121.072 61.9737 121.397 62.6351 122.048C63.2964 122.688 63.6271 123.616 63.6271 124.832V130H62.1871V125.04C62.1871 124.165 61.9684 123.499 61.5311 123.04C61.0937 122.571 60.4964 122.336 59.7391 122.336C58.9711 122.336 58.3577 122.576 57.8991 123.056C57.4511 123.536 57.2271 124.235 57.2271 125.152V130H55.7711V121.232H57.2271V122.48C57.5151 122.032 57.9044 121.685 58.3951 121.44C58.8964 121.195 59.4457 121.072 60.0431 121.072ZM67.7814 122.432V127.6C67.7814 128.027 67.8721 128.331 68.0534 128.512C68.2348 128.683 68.5494 128.768 68.9974 128.768H70.0694V130H68.7574C67.9468 130 67.3388 129.813 66.9334 129.44C66.5281 129.067 66.3254 128.453 66.3254 127.6V122.432H65.1894V121.232H66.3254V119.024H67.7814V121.232H70.0694V122.432H67.7814ZM75.4016 122.432H73.5616V130H72.1056V122.432H70.9696V121.232H72.1056V120.608C72.1056 119.627 72.3562 118.912 72.8576 118.464C73.3696 118.005 74.1856 117.776 75.3056 117.776V118.992C74.6656 118.992 74.2122 119.12 73.9456 119.376C73.6896 119.621 73.5616 120.032 73.5616 120.608V121.232H75.4016V122.432ZM84.8752 121.232V130H83.4192V128.704C83.1419 129.152 82.7525 129.504 82.2512 129.76C81.7605 130.005 81.2165 130.128 80.6192 130.128C79.9365 130.128 79.3232 129.989 78.7792 129.712C78.2352 129.424 77.8032 128.997 77.4832 128.432C77.1739 127.867 77.0192 127.179 77.0192 126.368V121.232H78.4592V126.176C78.4592 127.04 78.6779 127.707 79.1152 128.176C79.5525 128.635 80.1499 128.864 80.9072 128.864C81.6859 128.864 82.2992 128.624 82.7472 128.144C83.1952 127.664 83.4192 126.965 83.4192 126.048V121.232H84.8752ZM88.7896 118.16V130H87.3336V118.16H88.7896Z" fill="#AFAFAF"/>
</svg>
