<svg width="96" height="136" viewBox="0 0 96 136" fill="none" xmlns="http://www.w3.org/2000/svg">
<path d="M8.45819 24.1579C8.45819 24.0284 8.52948 23.9094 8.64368 23.8483L7.51513 21.7393L8.64368 23.8483L47.8343 2.87668C47.9378 2.82129 48.0622 2.82129 48.1657 2.87668L87.3563 23.8483C87.4705 23.9094 87.5418 24.0284 87.5418 24.1579V70.5177C87.5418 70.6472 87.4705 70.7662 87.3563 70.8273L48.1657 91.7989C48.0622 91.8543 47.9378 91.8543 47.8343 91.7989L8.64368 70.8273C8.52948 70.7662 8.45819 70.6472 8.45819 70.5177V24.1579Z" fill="#E2E2E2" stroke="#CBCBCB" stroke-width="4.91639"/>
<path d="M47.9116 32.1702L26.0682 34.9707C26.044 34.9738 26.0216 34.9586 26.0169 34.9346C25.3531 31.5476 29.0527 24.5815 47.9383 24.5815C63.0873 24.5815 69.0384 30.0909 70.1277 32.8574C70.1308 32.8654 70.1315 32.8737 70.1299 32.8822L64.0929 66.2966C64.0924 66.2993 64.0917 66.3017 64.0908 66.3042C63.3843 68.2252 59.0279 72.1161 47.236 72.3407C35.4448 72.5653 29.5919 65.7949 28.4157 62.3746C28.414 62.3697 28.4132 62.3647 28.4132 62.3595V55.3514C28.4132 55.306 28.4726 55.2857 28.4995 55.3224C36.0313 65.6283 49.5011 64.7994 55.3497 63.2194C55.3701 63.2138 55.3831 63.1956 55.3831 63.1745V41.875C55.3831 41.8647 55.3797 41.8547 55.3734 41.8465L47.9547 32.1882C47.9445 32.175 47.9281 32.1681 47.9116 32.1702Z" fill="white"/>
<path d="M47.2076 34.5581L29.7754 36.9289C29.7363 36.9342 29.7204 36.9819 29.7495 37.0085C34.9328 41.7565 46.9076 42.4127 52.3527 42.1436C52.3892 42.1418 52.407 42.1007 52.3864 42.0706L47.2526 34.578C47.2426 34.5634 47.2252 34.5557 47.2076 34.5581Z" fill="#CBCBCB"/>
<path d="M30.6607 53.3725L29.6852 39.5758C29.6823 39.5353 29.7287 39.5104 29.7608 39.5353C36.4881 44.7352 47.5975 44.9451 52.3824 44.3929C52.4105 44.3897 52.4333 44.4103 52.4329 44.4386C52.3862 47.83 52.3221 55.7471 52.4327 60.7805C52.4332 60.8043 52.4148 60.8243 52.3911 60.8274C37.1467 62.8323 31.5545 56.7034 30.6621 53.3811C30.6614 53.3782 30.6609 53.3754 30.6607 53.3725Z" fill="#CBCBCB"/>
<path d="M7.688 124.416C7.688 123.328 7.93333 122.352 8.424 121.488C8.91467 120.613 9.58133 119.931 10.424 119.44C11.2773 118.949 12.2213 118.704 13.256 118.704C14.472 118.704 15.5333 118.997 16.44 119.584C17.3467 120.171 18.008 121.003 18.424 122.08H16.68C16.3707 121.408 15.9227 120.891 15.336 120.528C14.76 120.165 14.0667 119.984 13.256 119.984C12.4773 119.984 11.7787 120.165 11.16 120.528C10.5413 120.891 10.056 121.408 9.704 122.08C9.352 122.741 9.176 123.52 9.176 124.416C9.176 125.301 9.352 126.08 9.704 126.752C10.056 127.413 10.5413 127.925 11.16 128.288C11.7787 128.651 12.4773 128.832 13.256 128.832C14.0667 128.832 14.76 128.656 15.336 128.304C15.9227 127.941 16.3707 127.424 16.68 126.752H18.424C18.008 127.819 17.3467 128.645 16.44 129.232C15.5333 129.808 14.472 130.096 13.256 130.096C12.2213 130.096 11.2773 129.856 10.424 129.376C9.58133 128.885 8.91467 128.208 8.424 127.344C7.93333 126.48 7.688 125.504 7.688 124.416ZM24.4154 130.144C23.594 130.144 22.8474 129.957 22.1754 129.584C21.514 129.211 20.9914 128.683 20.6074 128C20.234 127.307 20.0474 126.507 20.0474 125.6C20.0474 124.704 20.2394 123.915 20.6234 123.232C21.018 122.539 21.5514 122.011 22.2234 121.648C22.8954 121.275 23.6474 121.088 24.4794 121.088C25.3114 121.088 26.0634 121.275 26.7354 121.648C27.4074 122.011 27.9354 122.533 28.3194 123.216C28.714 123.899 28.9114 124.693 28.9114 125.6C28.9114 126.507 28.7087 127.307 28.3034 128C27.9087 128.683 27.37 129.211 26.6874 129.584C26.0047 129.957 25.2474 130.144 24.4154 130.144ZM24.4154 128.864C24.938 128.864 25.4287 128.741 25.8874 128.496C26.346 128.251 26.714 127.883 26.9914 127.392C27.2794 126.901 27.4234 126.304 27.4234 125.6C27.4234 124.896 27.2847 124.299 27.0074 123.808C26.73 123.317 26.3674 122.955 25.9194 122.72C25.4714 122.475 24.986 122.352 24.4634 122.352C23.93 122.352 23.4394 122.475 22.9914 122.72C22.554 122.955 22.202 123.317 21.9354 123.808C21.6687 124.299 21.5354 124.896 21.5354 125.6C21.5354 126.315 21.6634 126.917 21.9194 127.408C22.186 127.899 22.538 128.267 22.9754 128.512C23.4127 128.747 23.8927 128.864 24.4154 128.864ZM32.2818 122.656C32.5378 122.155 32.9004 121.765 33.3698 121.488C33.8498 121.211 34.4311 121.072 35.1138 121.072V122.576H34.7298C33.0978 122.576 32.2818 123.461 32.2818 125.232V130H30.8258V121.232H32.2818V122.656ZM44.7945 125.28C44.7945 125.557 44.7785 125.851 44.7465 126.16H37.7385C37.7918 127.024 38.0852 127.701 38.6185 128.192C39.1625 128.672 39.8185 128.912 40.5865 128.912C41.2158 128.912 41.7385 128.768 42.1545 128.48C42.5812 128.181 42.8798 127.787 43.0505 127.296H44.6185C44.3838 128.139 43.9145 128.827 43.2105 129.36C42.5065 129.883 41.6318 130.144 40.5865 130.144C39.7545 130.144 39.0078 129.957 38.3465 129.584C37.6958 129.211 37.1838 128.683 36.8105 128C36.4372 127.307 36.2505 126.507 36.2505 125.6C36.2505 124.693 36.4318 123.899 36.7945 123.216C37.1572 122.533 37.6638 122.011 38.3145 121.648C38.9758 121.275 39.7332 121.088 40.5865 121.088C41.4185 121.088 42.1545 121.269 42.7945 121.632C43.4345 121.995 43.9252 122.496 44.2665 123.136C44.6185 123.765 44.7945 124.48 44.7945 125.28ZM43.2905 124.976C43.2905 124.421 43.1678 123.947 42.9225 123.552C42.6772 123.147 42.3412 122.843 41.9145 122.64C41.4985 122.427 41.0345 122.32 40.5225 122.32C39.7865 122.32 39.1572 122.555 38.6345 123.024C38.1225 123.493 37.8292 124.144 37.7545 124.976H43.2905ZM54.454 118.848C55.67 118.848 56.7207 119.077 57.606 119.536C58.502 119.984 59.1847 120.629 59.654 121.472C60.134 122.315 60.374 123.307 60.374 124.448C60.374 125.589 60.134 126.581 59.654 127.424C59.1847 128.256 58.502 128.896 57.606 129.344C56.7207 129.781 55.67 130 54.454 130H50.982V118.848H54.454ZM54.454 128.8C55.894 128.8 56.9927 128.421 57.75 127.664C58.5073 126.896 58.886 125.824 58.886 124.448C58.886 123.061 58.502 121.979 57.734 121.2C56.9767 120.421 55.8833 120.032 54.454 120.032H52.438V128.8H54.454ZM61.7505 125.584C61.7505 124.688 61.9318 123.904 62.2945 123.232C62.6572 122.549 63.1532 122.021 63.7825 121.648C64.4225 121.275 65.1318 121.088 65.9105 121.088C66.6785 121.088 67.3452 121.253 67.9105 121.584C68.4758 121.915 68.8972 122.331 69.1745 122.832V121.232H70.6465V130H69.1745V128.368C68.8865 128.88 68.4545 129.307 67.8785 129.648C67.3132 129.979 66.6518 130.144 65.8945 130.144C65.1158 130.144 64.4118 129.952 63.7825 129.568C63.1532 129.184 62.6572 128.645 62.2945 127.952C61.9318 127.259 61.7505 126.469 61.7505 125.584ZM69.1745 125.6C69.1745 124.939 69.0412 124.363 68.7745 123.872C68.5078 123.381 68.1452 123.008 67.6865 122.752C67.2385 122.485 66.7425 122.352 66.1985 122.352C65.6545 122.352 65.1585 122.48 64.7105 122.736C64.2625 122.992 63.9052 123.365 63.6385 123.856C63.3718 124.347 63.2385 124.923 63.2385 125.584C63.2385 126.256 63.3718 126.843 63.6385 127.344C63.9052 127.835 64.2625 128.213 64.7105 128.48C65.1585 128.736 65.6545 128.864 66.1985 128.864C66.7425 128.864 67.2385 128.736 67.6865 128.48C68.1452 128.213 68.5078 127.835 68.7745 127.344C69.0412 126.843 69.1745 126.261 69.1745 125.6ZM74.883 122.432V127.6C74.883 128.027 74.9737 128.331 75.155 128.512C75.3363 128.683 75.651 128.768 76.099 128.768H77.171V130H75.859C75.0483 130 74.4403 129.813 74.035 129.44C73.6297 129.067 73.427 128.453 73.427 127.6V122.432H72.291V121.232H73.427V119.024H74.883V121.232H77.171V122.432H74.883ZM78.3911 125.584C78.3911 124.688 78.5725 123.904 78.9351 123.232C79.2978 122.549 79.7938 122.021 80.4231 121.648C81.0631 121.275 81.7725 121.088 82.5511 121.088C83.3191 121.088 83.9858 121.253 84.5511 121.584C85.1165 121.915 85.5378 122.331 85.8151 122.832V121.232H87.2871V130H85.8151V128.368C85.5271 128.88 85.0951 129.307 84.5191 129.648C83.9538 129.979 83.2925 130.144 82.5351 130.144C81.7565 130.144 81.0525 129.952 80.4231 129.568C79.7938 129.184 79.2978 128.645 78.9351 127.952C78.5725 127.259 78.3911 126.469 78.3911 125.584ZM85.8151 125.6C85.8151 124.939 85.6818 124.363 85.4151 123.872C85.1485 123.381 84.7858 123.008 84.3271 122.752C83.8791 122.485 83.3831 122.352 82.8391 122.352C82.2951 122.352 81.7991 122.48 81.3511 122.736C80.9031 122.992 80.5458 123.365 80.2791 123.856C80.0125 124.347 79.8791 124.923 79.8791 125.584C79.8791 126.256 80.0125 126.843 80.2791 127.344C80.5458 127.835 80.9031 128.213 81.3511 128.48C81.7991 128.736 82.2951 128.864 82.8391 128.864C83.3831 128.864 83.8791 128.736 84.3271 128.48C84.7858 128.213 85.1485 127.835 85.4151 127.344C85.6818 126.843 85.8151 126.261 85.8151 125.6Z" fill="#AFAFAF"/>
</svg>
