<svg width="96" height="136" viewBox="0 0 96 136" fill="none" xmlns="http://www.w3.org/2000/svg">
<path d="M73.877 2H22.127C11.0122 2 2.00195 11.0103 2.00195 22.125V73.875C2.00195 84.9897 11.0122 94 22.127 94H73.877C84.9917 94 94.002 84.9897 94.002 73.875V22.125C94.002 11.0103 84.9917 2 73.877 2Z" fill="#CBCBCB"/>
<path d="M4.12714 4.1275L91.8747 91.8747M91.8786 4.12139L4.12355 91.8765M66.1581 2V94M29.8422 2V94M94.0011 66.1578H2.00108M94 29.8422H2M2 48H94M48 2V94M48 73.6579C62.1709 73.6579 73.6583 62.1705 73.6583 48C73.6583 33.8295 62.1709 22.3417 48 22.3417C33.8298 22.3417 22.3421 33.8295 22.3421 48C22.3421 62.1705 33.8295 73.6579 48 73.6579Z" stroke="#E2E2E2" stroke-width="0.0898437"/>
<path fill-rule="evenodd" clip-rule="evenodd" d="M48.0004 83.7103C67.7229 83.7103 83.7108 67.7224 83.7108 47.9999C83.7108 28.2774 67.7229 12.2896 48.0004 12.2896C28.2779 12.2896 12.29 28.2774 12.29 47.9999C12.29 67.7224 28.2779 83.7103 48.0004 83.7103Z" stroke="white" stroke-width="0.539062"/>
<path d="M48.0005 66.1339C58.0152 66.1339 66.1339 58.0152 66.1339 48.0005C66.1339 37.9858 58.0152 29.8672 48.0005 29.8672C37.9858 29.8672 29.8672 37.9858 29.8672 48.0005C29.8672 58.0152 37.9858 66.1339 48.0005 66.1339Z" stroke="white" stroke-width="0.539062"/>
<path d="M63.7121 57.083L48.3488 83.6933M32.2715 57.0816L16.9082 30.4717M48.0017 29.8672H78.7283M48.0013 62.221C55.8548 62.221 62.2214 55.8543 62.2214 48.0005C62.2214 40.1468 55.8548 33.7801 48.0013 33.7801C40.1475 33.7801 33.7809 40.1468 33.7809 48.0005C33.7809 55.8543 40.1475 62.221 48.0013 62.221Z" stroke="white" stroke-width="0.539062"/>
<path d="M18.204 118.848C19.42 118.848 20.4707 119.077 21.356 119.536C22.252 119.984 22.9347 120.629 23.404 121.472C23.884 122.315 24.124 123.307 24.124 124.448C24.124 125.589 23.884 126.581 23.404 127.424C22.9347 128.256 22.252 128.896 21.356 129.344C20.4707 129.781 19.42 130 18.204 130H14.732V118.848H18.204ZM18.204 128.8C19.644 128.8 20.7427 128.421 21.5 127.664C22.2573 126.896 22.636 125.824 22.636 124.448C22.636 123.061 22.252 121.979 21.484 121.2C20.7267 120.421 19.6333 120.032 18.204 120.032H16.188V128.8H18.204ZM34.0445 125.28C34.0445 125.557 34.0285 125.851 33.9965 126.16H26.9885C27.0418 127.024 27.3352 127.701 27.8685 128.192C28.4125 128.672 29.0685 128.912 29.8365 128.912C30.4658 128.912 30.9885 128.768 31.4045 128.48C31.8312 128.181 32.1298 127.787 32.3005 127.296H33.8685C33.6338 128.139 33.1645 128.827 32.4605 129.36C31.7565 129.883 30.8818 130.144 29.8365 130.144C29.0045 130.144 28.2578 129.957 27.5965 129.584C26.9458 129.211 26.4338 128.683 26.0605 128C25.6872 127.307 25.5005 126.507 25.5005 125.6C25.5005 124.693 25.6818 123.899 26.0445 123.216C26.4072 122.533 26.9138 122.011 27.5645 121.648C28.2258 121.275 28.9832 121.088 29.8365 121.088C30.6685 121.088 31.4045 121.269 32.0445 121.632C32.6845 121.995 33.1752 122.496 33.5165 123.136C33.8685 123.765 34.0445 124.48 34.0445 125.28ZM32.5405 124.976C32.5405 124.421 32.4178 123.947 32.1725 123.552C31.9272 123.147 31.5912 122.843 31.1645 122.64C30.7485 122.427 30.2845 122.32 29.7725 122.32C29.0365 122.32 28.4072 122.555 27.8845 123.024C27.3725 123.493 27.0792 124.144 27.0045 124.976H32.5405ZM39.2304 128.656L41.9504 121.232H43.5024L40.0624 130H38.3664L34.9264 121.232H36.4944L39.2304 128.656ZM46.7111 122.432V127.6C46.7111 128.027 46.8018 128.331 46.9831 128.512C47.1645 128.683 47.4791 128.768 47.9271 128.768H48.9991V130H47.6871C46.8765 130 46.2685 129.813 45.8631 129.44C45.4578 129.067 45.2551 128.453 45.2551 127.6V122.432H44.1191V121.232H45.2551V119.024H46.7111V121.232H48.9991V122.432H46.7111ZM54.5873 130.144C53.7659 130.144 53.0193 129.957 52.3473 129.584C51.6859 129.211 51.1633 128.683 50.7793 128C50.4059 127.307 50.2193 126.507 50.2193 125.6C50.2193 124.704 50.4113 123.915 50.7953 123.232C51.1899 122.539 51.7233 122.011 52.3953 121.648C53.0673 121.275 53.8193 121.088 54.6513 121.088C55.4833 121.088 56.2353 121.275 56.9073 121.648C57.5793 122.011 58.1073 122.533 58.4913 123.216C58.8859 123.899 59.0833 124.693 59.0833 125.6C59.0833 126.507 58.8806 127.307 58.4753 128C58.0806 128.683 57.5419 129.211 56.8593 129.584C56.1766 129.957 55.4193 130.144 54.5873 130.144ZM54.5873 128.864C55.1099 128.864 55.6006 128.741 56.0593 128.496C56.5179 128.251 56.8859 127.883 57.1633 127.392C57.4513 126.901 57.5953 126.304 57.5953 125.6C57.5953 124.896 57.4566 124.299 57.1793 123.808C56.9019 123.317 56.5393 122.955 56.0913 122.72C55.6433 122.475 55.1579 122.352 54.6353 122.352C54.1019 122.352 53.6113 122.475 53.1633 122.72C52.7259 122.955 52.3739 123.317 52.1073 123.808C51.8406 124.299 51.7073 124.896 51.7073 125.6C51.7073 126.315 51.8353 126.917 52.0913 127.408C52.3579 127.899 52.7099 128.267 53.1473 128.512C53.5846 128.747 54.0646 128.864 54.5873 128.864ZM64.8216 130.144C64.0003 130.144 63.2536 129.957 62.5816 129.584C61.9203 129.211 61.3976 128.683 61.0136 128C60.6403 127.307 60.4536 126.507 60.4536 125.6C60.4536 124.704 60.6456 123.915 61.0296 123.232C61.4243 122.539 61.9576 122.011 62.6296 121.648C63.3016 121.275 64.0536 121.088 64.8856 121.088C65.7176 121.088 66.4696 121.275 67.1416 121.648C67.8136 122.011 68.3416 122.533 68.7256 123.216C69.1203 123.899 69.3176 124.693 69.3176 125.6C69.3176 126.507 69.115 127.307 68.7096 128C68.315 128.683 67.7763 129.211 67.0936 129.584C66.411 129.957 65.6536 130.144 64.8216 130.144ZM64.8216 128.864C65.3443 128.864 65.835 128.741 66.2936 128.496C66.7523 128.251 67.1203 127.883 67.3976 127.392C67.6856 126.901 67.8296 126.304 67.8296 125.6C67.8296 124.896 67.691 124.299 67.4136 123.808C67.1363 123.317 66.7736 122.955 66.3256 122.72C65.8776 122.475 65.3923 122.352 64.8696 122.352C64.3363 122.352 63.8456 122.475 63.3976 122.72C62.9603 122.955 62.6083 123.317 62.3416 123.808C62.075 124.299 61.9416 124.896 61.9416 125.6C61.9416 126.315 62.0696 126.917 62.3256 127.408C62.5923 127.899 62.9443 128.267 63.3816 128.512C63.819 128.747 64.299 128.864 64.8216 128.864ZM72.688 118.16V130H71.232V118.16H72.688ZM78.2735 130.144C77.6015 130.144 76.9988 130.032 76.4655 129.808C75.9322 129.573 75.5108 129.253 75.2015 128.848C74.8922 128.432 74.7215 127.957 74.6895 127.424H76.1935C76.2362 127.861 76.4388 128.219 76.8015 128.496C77.1748 128.773 77.6602 128.912 78.2575 128.912C78.8122 128.912 79.2495 128.789 79.5695 128.544C79.8895 128.299 80.0495 127.989 80.0495 127.616C80.0495 127.232 79.8788 126.949 79.5375 126.768C79.1962 126.576 78.6682 126.389 77.9535 126.208C77.3028 126.037 76.7695 125.867 76.3535 125.696C75.9482 125.515 75.5962 125.253 75.2975 124.912C75.0095 124.56 74.8655 124.101 74.8655 123.536C74.8655 123.088 74.9988 122.677 75.2655 122.304C75.5322 121.931 75.9108 121.637 76.4015 121.424C76.8922 121.2 77.4522 121.088 78.0815 121.088C79.0522 121.088 79.8362 121.333 80.4335 121.824C81.0308 122.315 81.3508 122.987 81.3935 123.84H79.9375C79.9055 123.381 79.7188 123.013 79.3775 122.736C79.0468 122.459 78.5988 122.32 78.0335 122.32C77.5108 122.32 77.0948 122.432 76.7855 122.656C76.4762 122.88 76.3215 123.173 76.3215 123.536C76.3215 123.824 76.4122 124.064 76.5935 124.256C76.7855 124.437 77.0202 124.587 77.2975 124.704C77.5855 124.811 77.9802 124.933 78.4815 125.072C79.1108 125.243 79.6228 125.413 80.0175 125.584C80.4122 125.744 80.7482 125.989 81.0255 126.32C81.3135 126.651 81.4628 127.083 81.4735 127.616C81.4735 128.096 81.3402 128.528 81.0735 128.912C80.8068 129.296 80.4282 129.6 79.9375 129.824C79.4575 130.037 78.9028 130.144 78.2735 130.144Z" fill="#AFAFAF"/>
</svg>
