<svg width="96" height="136" viewBox="0 0 96 136" fill="none" xmlns="http://www.w3.org/2000/svg">
<path d="M44.1298 22.9672H52.5894C52.9901 22.9672 53.3463 22.6594 53.3463 22.2199V14.7473C53.3463 14.3516 52.9901 14 52.5894 14H44.1298C43.729 14 43.3728 14.3078 43.3728 14.7473V22.2199C43.3728 22.6152 43.729 22.9672 44.1298 22.9672Z" fill="#CBCBCB"/>
<path d="M28.9915 33.6926H20.5319C20.1312 33.6926 19.8195 33.3406 19.775 32.9453V25.4728C19.775 25.0332 20.1312 24.7254 20.5319 24.7254H28.9915C29.4368 24.7254 29.7484 25.077 29.7484 25.4728V32.9453C29.7484 33.3406 29.3922 33.6926 28.9915 33.6926Z" fill="#CBCBCB"/>
<path d="M87.2288 37.692C92.3935 37.692 94.7978 39.4945 95.065 39.7143L96 40.3736L95.5993 41.5163C94.9314 43.099 93.9964 44.5052 92.7497 45.6483C90.8797 47.4945 87.4959 49.6481 82.0194 49.6481H81.1289C78.9472 55.1868 75.9641 61.4283 70.9329 67.0107C67.9497 70.3517 64.4324 73.2088 60.5142 75.4504C55.7501 78.1315 50.5853 79.9778 45.1979 80.9449C41.3243 81.648 37.4062 82 33.488 82C24.8058 82 17.1031 80.3735 12.3835 77.5164C8.19825 74.967 4.94799 70.7912 2.76632 65.1645C0.851756 60.022 -0.083242 54.5713 0.00581191 49.1206C0.00581191 47.4945 1.34154 46.1759 2.98894 46.1759H66.2133C67.0147 46.1317 70.8438 45.8239 73.2036 44.5052C71.2446 41.4283 70.6657 37.8242 71.6007 34C72.0905 32.022 72.9365 30.0877 74.0496 28.3737L74.94 27.0988L76.3203 27.8899C76.3351 27.9015 76.3739 27.9268 76.4338 27.9659C77.2742 28.5141 82.2626 31.7657 83.177 38.044C84.5128 37.8242 85.893 37.692 87.2288 37.692Z" fill="#CBCBCB"/>
<path d="M17.3265 44.3738H8.86693C8.4662 44.3738 8.15453 44.0661 8.11001 43.6265V36.154C8.11001 35.7144 8.4662 35.4067 8.86693 35.4067H17.3265C17.7718 35.4067 18.0834 35.7582 18.0834 36.154V43.6265C18.0834 44.0661 17.7272 44.3738 17.3265 44.3738Z" fill="#CBCBCB"/>
<path d="M20.5319 44.3738H28.9915C29.3922 44.3738 29.7484 44.0661 29.7484 43.6265V36.154C29.7484 35.7582 29.4368 35.4067 28.9915 35.4067H20.5319C20.1312 35.4067 19.775 35.7144 19.775 36.154V43.6265C19.8195 44.0661 20.1312 44.3738 20.5319 44.3738Z" fill="#CBCBCB"/>
<path d="M32.4195 33.6926H40.8791C41.2798 33.6926 41.6361 33.3406 41.6361 32.9453V25.4728C41.6361 25.077 41.3244 24.7254 40.8791 24.7254H32.4195C32.0188 24.7254 31.6626 25.0332 31.6626 25.4728V32.9453C31.6626 33.3406 31.9743 33.6926 32.4195 33.6926Z" fill="#CBCBCB"/>
<path d="M52.5894 33.6926H44.1298C43.729 33.6926 43.3728 33.3406 43.3728 32.9453V25.4728C43.3728 25.0332 43.729 24.7254 44.1298 24.7254H52.5894C52.9901 24.7254 53.3463 25.077 53.3463 25.4728V32.9453C53.3463 33.3406 52.9901 33.6926 52.5894 33.6926Z" fill="#CBCBCB"/>
<path d="M64.3883 44.3738H55.9287C55.5279 44.3738 55.2163 44.0661 55.1718 43.6265V36.154C55.1718 35.7144 55.5279 35.4067 55.9287 35.4067H64.3883C64.8335 35.4067 65.1452 35.7582 65.1452 36.154V43.6265C65.1452 44.0661 64.789 44.3738 64.3883 44.3738Z" fill="#CBCBCB"/>
<path d="M32.4195 44.3738H40.8791C41.2798 44.3738 41.6361 44.0661 41.6361 43.6265V36.154C41.6361 35.7582 41.3244 35.4067 40.8791 35.4067H32.4195C32.0188 35.4067 31.6626 35.7144 31.6626 36.154V43.6265C31.6626 44.0661 31.9743 44.3738 32.4195 44.3738Z" fill="#CBCBCB"/>
<path d="M52.5894 44.3738H44.1298C43.729 44.3738 43.3728 44.0661 43.3728 43.6265V36.154C43.3728 35.7144 43.729 35.4067 44.1298 35.4067H52.5894C53.0346 35.4067 53.3463 35.7582 53.3463 36.154V43.6265C53.3463 44.0661 52.9901 44.3738 52.5894 44.3738Z" fill="#CBCBCB"/>
<path d="M25.0087 118.848C26.2247 118.848 27.2754 119.077 28.1607 119.536C29.0567 119.984 29.7394 120.629 30.2087 121.472C30.6887 122.315 30.9287 123.307 30.9287 124.448C30.9287 125.589 30.6887 126.581 30.2087 127.424C29.7394 128.256 29.0567 128.896 28.1607 129.344C27.2754 129.781 26.2247 130 25.0087 130H21.5367V118.848H25.0087ZM25.0087 128.8C26.4487 128.8 27.5474 128.421 28.3047 127.664C29.062 126.896 29.4407 125.824 29.4407 124.448C29.4407 123.061 29.0567 121.979 28.2887 121.2C27.5314 120.421 26.438 120.032 25.0087 120.032H22.9927V128.8H25.0087ZM36.6732 130.144C35.8519 130.144 35.1052 129.957 34.4332 129.584C33.7719 129.211 33.2492 128.683 32.8652 128C32.4919 127.307 32.3052 126.507 32.3052 125.6C32.3052 124.704 32.4972 123.915 32.8812 123.232C33.2759 122.539 33.8092 122.011 34.4812 121.648C35.1532 121.275 35.9052 121.088 36.7372 121.088C37.5692 121.088 38.3212 121.275 38.9932 121.648C39.6652 122.011 40.1932 122.533 40.5772 123.216C40.9719 123.899 41.1692 124.693 41.1692 125.6C41.1692 126.507 40.9665 127.307 40.5612 128C40.1665 128.683 39.6279 129.211 38.9452 129.584C38.2625 129.957 37.5052 130.144 36.6732 130.144ZM36.6732 128.864C37.1959 128.864 37.6865 128.741 38.1452 128.496C38.6039 128.251 38.9719 127.883 39.2492 127.392C39.5372 126.901 39.6812 126.304 39.6812 125.6C39.6812 124.896 39.5425 124.299 39.2652 123.808C38.9879 123.317 38.6252 122.955 38.1772 122.72C37.7292 122.475 37.2439 122.352 36.7212 122.352C36.1879 122.352 35.6972 122.475 35.2492 122.72C34.8119 122.955 34.4599 123.317 34.1932 123.808C33.9265 124.299 33.7932 124.896 33.7932 125.6C33.7932 126.315 33.9212 126.917 34.1772 127.408C34.4439 127.899 34.7959 128.267 35.2332 128.512C35.6705 128.747 36.1505 128.864 36.6732 128.864ZM42.5396 125.6C42.5396 124.693 42.7209 123.904 43.0836 123.232C43.4462 122.549 43.9476 122.021 44.5876 121.648C45.2382 121.275 45.9796 121.088 46.8116 121.088C47.8889 121.088 48.7742 121.349 49.4676 121.872C50.1716 122.395 50.6356 123.12 50.8596 124.048H49.2916C49.1422 123.515 48.8489 123.093 48.4116 122.784C47.9849 122.475 47.4516 122.32 46.8116 122.32C45.9796 122.32 45.3076 122.608 44.7956 123.184C44.2836 123.749 44.0276 124.555 44.0276 125.6C44.0276 126.656 44.2836 127.472 44.7956 128.048C45.3076 128.624 45.9796 128.912 46.8116 128.912C47.4516 128.912 47.9849 128.763 48.4116 128.464C48.8382 128.165 49.1316 127.739 49.2916 127.184H50.8596C50.6249 128.08 50.1556 128.8 49.4516 129.344C48.7476 129.877 47.8676 130.144 46.8116 130.144C45.9796 130.144 45.2382 129.957 44.5876 129.584C43.9476 129.211 43.4462 128.683 43.0836 128C42.7209 127.317 42.5396 126.517 42.5396 125.6ZM57.6983 130L54.2583 126.128V130H52.8023V118.16H54.2583V125.12L57.6343 121.232H59.6663L55.5383 125.6L59.6823 130H57.6983ZM69.0367 125.28C69.0367 125.557 69.0207 125.851 68.9887 126.16H61.9807C62.034 127.024 62.3274 127.701 62.8607 128.192C63.4047 128.672 64.0607 128.912 64.8287 128.912C65.458 128.912 65.9807 128.768 66.3967 128.48C66.8234 128.181 67.122 127.787 67.2927 127.296H68.8607C68.626 128.139 68.1567 128.827 67.4527 129.36C66.7487 129.883 65.874 130.144 64.8287 130.144C63.9967 130.144 63.25 129.957 62.5887 129.584C61.938 129.211 61.426 128.683 61.0527 128C60.6794 127.307 60.4927 126.507 60.4927 125.6C60.4927 124.693 60.674 123.899 61.0367 123.216C61.3994 122.533 61.906 122.011 62.5567 121.648C63.218 121.275 63.9754 121.088 64.8287 121.088C65.6607 121.088 66.3967 121.269 67.0367 121.632C67.6767 121.995 68.1674 122.496 68.5087 123.136C68.8607 123.765 69.0367 124.48 69.0367 125.28ZM67.5327 124.976C67.5327 124.421 67.41 123.947 67.1647 123.552C66.9194 123.147 66.5834 122.843 66.1567 122.64C65.7407 122.427 65.2767 122.32 64.7647 122.32C64.0287 122.32 63.3994 122.555 62.8767 123.024C62.3647 123.493 62.0714 124.144 61.9967 124.976H67.5327ZM72.4146 122.656C72.6706 122.155 73.0332 121.765 73.5026 121.488C73.9826 121.211 74.5639 121.072 75.2466 121.072V122.576H74.8626C73.2306 122.576 72.4146 123.461 72.4146 125.232V130H70.9586V121.232H72.4146V122.656Z" fill="#AFAFAF"/>
</svg>
