<svg width="96" height="136" viewBox="0 0 96 136" fill="none" xmlns="http://www.w3.org/2000/svg">
<path d="M90.7825 16.4303C84.9827 10.6672 75.6276 10.5065 69.6306 16.067C69.3428 16.3366 69.1752 16.7092 69.1649 17.102C69.1671 17.4932 69.3221 17.8682 69.5973 18.148L71.493 20.0969C72.0042 20.6025 72.8114 20.6588 73.3887 20.2291C74.8924 19.1019 76.7263 18.4947 78.6102 18.5004C82.1449 18.485 85.3387 20.5921 86.6949 23.8342C88.0512 27.0763 87.3011 30.8109 84.7961 33.2879C72.7124 45.2898 56.5824 11.6626 19.9766 28.9607C18.7176 29.5452 17.762 30.6259 17.3409 31.9413C16.9198 33.2567 17.0715 34.6871 17.7594 35.8865L24.034 46.6661C25.3964 48.9999 28.3907 49.8181 30.7632 48.505L30.9184 48.4169L30.7965 48.505L33.5791 46.9524C36.6801 45.0399 39.6102 42.8664 42.337 40.456C42.9142 39.9642 43.7663 39.9642 44.3435 40.456C44.6843 40.7215 44.8843 41.127 44.8867 41.5571C44.8947 41.9752 44.721 42.3764 44.41 42.6582C41.5381 45.1902 38.448 47.4672 35.1754 49.4629H35.0867L32.3042 51.0044C31.128 51.6665 29.7981 52.0119 28.4463 52.0064C25.6048 52.0066 22.9762 50.5106 21.5397 48.0755L15.6087 37.8905C4.21238 45.8844 -2.70526 61.2886 1.00854 80.8328C1.14464 81.5059 1.73637 81.9926 2.42754 82H9.18997C9.91726 82 10.5305 81.4616 10.6201 80.7448C11.2435 75.8283 15.4531 72.1408 20.4422 72.1408C25.4313 72.1408 29.6409 75.8283 30.2644 80.7448C30.359 81.4634 30.9759 82 31.7055 82H38.2906C39.0179 82 39.6312 81.4616 39.7207 80.7448C40.3642 75.8416 44.57 72.1734 49.5484 72.1734C54.5267 72.1734 58.7325 75.8416 59.3761 80.7448C59.4656 81.4616 60.0788 82 60.8061 82H67.3136C68.101 82 68.7427 81.3725 68.7548 80.5906C68.91 71.4846 71.3821 61.0243 78.4328 55.7831C102.855 37.6372 96.4364 22.0789 90.7825 16.4303ZM65.8724 43.8804L61.2163 41.5571C61.2112 40.1847 62.1732 38.9957 63.5237 38.7053C64.8743 38.4149 66.2452 39.1022 66.8121 40.3539C67.3789 41.6055 66.9872 43.0804 65.8724 43.8914V43.8804Z" fill="#CBCBCB"/>
<path d="M30.68 122.08C30.3707 121.429 29.9227 120.928 29.336 120.576C28.7493 120.213 28.0667 120.032 27.288 120.032C26.5093 120.032 25.8053 120.213 25.176 120.576C24.5573 120.928 24.0667 121.44 23.704 122.112C23.352 122.773 23.176 123.541 23.176 124.416C23.176 125.291 23.352 126.059 23.704 126.72C24.0667 127.381 24.5573 127.893 25.176 128.256C25.8053 128.608 26.5093 128.784 27.288 128.784C28.376 128.784 29.272 128.459 29.976 127.808C30.68 127.157 31.0907 126.277 31.208 125.168H26.76V123.984H32.76V125.104C32.6747 126.021 32.3867 126.864 31.896 127.632C31.4053 128.389 30.76 128.992 29.96 129.44C29.16 129.877 28.2693 130.096 27.288 130.096C26.2533 130.096 25.3093 129.856 24.456 129.376C23.6027 128.885 22.9253 128.208 22.424 127.344C21.9333 126.48 21.688 125.504 21.688 124.416C21.688 123.328 21.9333 122.352 22.424 121.488C22.9253 120.613 23.6027 119.936 24.456 119.456C25.3093 118.965 26.2533 118.72 27.288 118.72C28.472 118.72 29.5173 119.013 30.424 119.6C31.3413 120.187 32.008 121.013 32.424 122.08H30.68ZM36.1411 122.656C36.3971 122.155 36.7598 121.765 37.2291 121.488C37.7091 121.211 38.2905 121.072 38.9731 121.072V122.576H38.5891C36.9571 122.576 36.1411 123.461 36.1411 125.232V130H34.6851V121.232H36.1411V122.656ZM40.1099 125.584C40.1099 124.688 40.2912 123.904 40.6539 123.232C41.0165 122.549 41.5125 122.021 42.1419 121.648C42.7819 121.275 43.4912 121.088 44.2699 121.088C45.0379 121.088 45.7045 121.253 46.2699 121.584C46.8352 121.915 47.2565 122.331 47.5339 122.832V121.232H49.0059V130H47.5339V128.368C47.2459 128.88 46.8139 129.307 46.2379 129.648C45.6725 129.979 45.0112 130.144 44.2539 130.144C43.4752 130.144 42.7712 129.952 42.1419 129.568C41.5125 129.184 41.0165 128.645 40.6539 127.952C40.2912 127.259 40.1099 126.469 40.1099 125.584ZM47.5339 125.6C47.5339 124.939 47.4005 124.363 47.1339 123.872C46.8672 123.381 46.5045 123.008 46.0459 122.752C45.5979 122.485 45.1019 122.352 44.5579 122.352C44.0139 122.352 43.5179 122.48 43.0699 122.736C42.6219 122.992 42.2645 123.365 41.9979 123.856C41.7312 124.347 41.5979 124.923 41.5979 125.584C41.5979 126.256 41.7312 126.843 41.9979 127.344C42.2645 127.835 42.6219 128.213 43.0699 128.48C43.5179 128.736 44.0139 128.864 44.5579 128.864C45.1019 128.864 45.5979 128.736 46.0459 128.48C46.5045 128.213 46.8672 127.835 47.1339 127.344C47.4005 126.843 47.5339 126.261 47.5339 125.6ZM50.9224 125.584C50.9224 124.688 51.1037 123.904 51.4664 123.232C51.829 122.549 52.325 122.021 52.9544 121.648C53.5944 121.275 54.309 121.088 55.0984 121.088C55.781 121.088 56.4157 121.248 57.0024 121.568C57.589 121.877 58.037 122.288 58.3464 122.8V118.16H59.8184V130H58.3464V128.352C58.0584 128.875 57.6317 129.307 57.0664 129.648C56.501 129.979 55.8397 130.144 55.0824 130.144C54.3037 130.144 53.5944 129.952 52.9544 129.568C52.325 129.184 51.829 128.645 51.4664 127.952C51.1037 127.259 50.9224 126.469 50.9224 125.584ZM58.3464 125.6C58.3464 124.939 58.213 124.363 57.9464 123.872C57.6797 123.381 57.317 123.008 56.8584 122.752C56.4104 122.485 55.9144 122.352 55.3704 122.352C54.8264 122.352 54.3304 122.48 53.8824 122.736C53.4344 122.992 53.077 123.365 52.8104 123.856C52.5437 124.347 52.4104 124.923 52.4104 125.584C52.4104 126.256 52.5437 126.843 52.8104 127.344C53.077 127.835 53.4344 128.213 53.8824 128.48C54.3304 128.736 54.8264 128.864 55.3704 128.864C55.9144 128.864 56.4104 128.736 56.8584 128.48C57.317 128.213 57.6797 127.835 57.9464 127.344C58.213 126.843 58.3464 126.261 58.3464 125.6ZM63.7349 118.16V130H62.2789V118.16H63.7349ZM74.2164 125.28C74.2164 125.557 74.2004 125.851 74.1684 126.16H67.1604C67.2137 127.024 67.507 127.701 68.0404 128.192C68.5844 128.672 69.2404 128.912 70.0084 128.912C70.6377 128.912 71.1604 128.768 71.5764 128.48C72.003 128.181 72.3017 127.787 72.4724 127.296H74.0404C73.8057 128.139 73.3364 128.827 72.6324 129.36C71.9284 129.883 71.0537 130.144 70.0084 130.144C69.1764 130.144 68.4297 129.957 67.7684 129.584C67.1177 129.211 66.6057 128.683 66.2324 128C65.859 127.307 65.6724 126.507 65.6724 125.6C65.6724 124.693 65.8537 123.899 66.2164 123.216C66.579 122.533 67.0857 122.011 67.7364 121.648C68.3977 121.275 69.155 121.088 70.0084 121.088C70.8404 121.088 71.5764 121.269 72.2164 121.632C72.8564 121.995 73.347 122.496 73.6884 123.136C74.0404 123.765 74.2164 124.48 74.2164 125.28ZM72.7124 124.976C72.7124 124.421 72.5897 123.947 72.3444 123.552C72.099 123.147 71.763 122.843 71.3364 122.64C70.9204 122.427 70.4564 122.32 69.9444 122.32C69.2084 122.32 68.579 122.555 68.0564 123.024C67.5444 123.493 67.251 124.144 67.1764 124.976H72.7124Z" fill="#AFAFAF"/>
</svg>
