<svg width="96" height="136" viewBox="0 0 96 136" fill="none" xmlns="http://www.w3.org/2000/svg">
<path d="M21.4775 2H25.6103V6.09687H29.4197V2H33.5525V14.3984H29.4197V10.2656H25.6463V14.3984H21.4775V2ZM39.015 6.13281H35.3674V2H46.8135V6.13281H43.1478V14.3984H39.015V6.13281ZM48.6283 2H52.9588L55.6182 6.36641L58.2775 2H62.608V14.3984H58.4752V8.25312L55.5822 12.7094L52.6893 8.25312V14.3984H48.6283V2ZM64.6564 2H68.7892V10.3016H74.6471V14.3984H64.6564" fill="#AFAFAF"/>
<path d="M21.335 86.6329L15.4053 20.0767H80.5959L74.6662 86.597L47.9467 94.0001" fill="#AFAFAF"/>
<path d="M48 88.3398V25.5391H74.6477L69.5625 82.3203" fill="#CBCBCB"/>
<path d="M27.5156 33.6792H48V41.837H36.4641L37.2188 50.1925H48V58.3323H29.7437L27.5156 33.6792ZM30.1031 62.4292H38.2969L38.8719 68.9519L48 71.3956V79.9128L31.2531 75.2409" fill="#E2E2E2"/>
<path d="M68.4123 33.6792H47.9639V41.837H67.6576L68.4123 33.6792ZM66.9209 50.1925H47.9639V58.3503H58.0264L57.074 68.9519L47.9639 71.3956V79.8769L64.6748 75.2409" fill="white"/>
<path d="M37.324 118.848V130H35.868V124.944H30.188V130H28.732V118.848H30.188V123.744H35.868V118.848H37.324ZM46.6741 118.848V120.032H43.6341V130H42.1781V120.032H39.1221V118.848H46.6741ZM59.7784 118.928V130H58.3224V121.744L54.6424 130H53.6184L49.9224 121.728V130H48.4664V118.928H50.0344L54.1304 128.08L58.2264 118.928H59.7784ZM63.7036 128.816H67.6076V130H62.2476V118.848H63.7036V128.816Z" fill="#AFAFAF"/>
</svg>
