<svg width="96" height="136" viewBox="0 0 96 136" fill="none" xmlns="http://www.w3.org/2000/svg">
<path d="M70.5889 59.547L73.3597 52.556H81.3601L77.5626 41.951L82.3114 29.9702L95.912 66.0001H85.8821L83.5581 59.547H70.5889Z" fill="#CBCBCB"/>
<path d="M62.0309 64.0296L76.5905 27.9998L66.9382 28.0005L56.9783 51.2838L49.8953 28.0005H42.4764L34.872 51.2838L29.5087 40.6734L24.6553 55.5923L29.5833 64.0296H39.0826L45.9548 43.1495L52.5063 64.0296H62.0309Z" fill="#CBCBCB"/>
<path d="M9.16241 51.662H15.1079C16.909 51.662 18.5125 51.4618 19.919 51.0605L21.4564 46.3346L25.7538 33.1246C25.4269 32.6074 25.0532 32.1171 24.6325 31.6559C22.4261 29.2189 19.1977 28.0012 14.9479 28.0012H0V64.0311H9.16241V51.662ZM17.0321 36.2897C17.8942 37.1552 18.3248 38.3139 18.3248 39.7641C18.3248 41.2266 17.9457 42.386 17.1882 43.2431C16.3568 44.1953 14.8272 44.6718 12.5985 44.6718H9.16241V34.9922H12.6239C14.7011 34.9922 16.1707 35.4242 17.0321 36.2897Z" fill="#CBCBCB"/>
<path d="M38.688 122.112C38.688 123.04 38.368 123.813 37.728 124.432C37.0987 125.04 36.1333 125.344 34.832 125.344H32.688V130H31.232V118.848H34.832C36.0907 118.848 37.0453 119.152 37.696 119.76C38.3573 120.368 38.688 121.152 38.688 122.112ZM34.832 124.144C35.6427 124.144 36.24 123.968 36.624 123.616C37.008 123.264 37.2 122.763 37.2 122.112C37.2 120.736 36.4107 120.048 34.832 120.048H32.688V124.144H34.832ZM54.5136 118.848L51.2816 130H49.6496L47.0576 121.024L44.3696 130L42.7536 130.016L39.6336 118.848H41.1856L43.6176 128.304L46.3056 118.848H47.9376L50.4976 128.272L52.9456 118.848H54.5136ZM62.699 127.52H57.835L56.939 130H55.403L59.435 118.912H61.115L65.131 130H63.595L62.699 127.52ZM62.283 126.336L60.267 120.704L58.251 126.336H62.283Z" fill="#AFAFAF"/>
</svg>
