<svg width="96" height="136" viewBox="0 0 96 136" fill="none" xmlns="http://www.w3.org/2000/svg">
<path d="M48.4641 2.00073C44.7536 2.01774 41.2098 2.33453 38.0911 2.88708C28.9041 4.51072 27.2363 7.91032 27.2363 14.1788V22.4582H48.9451V25.2178H19.0897C12.7802 25.2178 7.25603 29.0128 5.52827 36.2316C3.53494 44.5062 3.44669 49.6696 5.52827 58.3096C7.07144 64.7409 10.7561 69.3234 17.0656 69.3234H24.5296V59.3985C24.5296 52.2282 30.729 45.903 38.0911 45.903H59.7732C65.8098 45.903 70.628 40.93 70.628 34.864V14.1796C70.628 8.29192 65.6649 3.86904 59.774 2.88708C56.0448 2.26566 52.1755 1.98371 48.4641 2.00073ZM36.7244 8.65975C38.9671 8.65975 40.7977 10.5216 40.7977 12.812C40.7977 15.0935 38.9671 16.9384 36.7252 16.9384C34.4744 16.9384 32.6511 15.0935 32.6511 12.812C32.6511 10.5216 34.4744 8.65975 36.7244 8.65975Z" fill="#CBCBCB"/>
<path d="M73.3345 25.2178V34.864C73.3345 42.3429 66.9983 48.6374 59.7731 48.6374H38.0902C32.1507 48.6374 27.2354 53.7246 27.2354 59.6763V80.3623C27.2354 86.2492 32.3515 89.712 38.0902 91.4013C44.9616 93.4227 51.5512 93.7881 59.7722 91.4013C65.2381 89.8174 70.6271 86.6308 70.6271 80.3623V72.0829H48.9442V69.3234H81.4811C87.7906 69.3234 90.1417 64.9191 92.3359 58.3095C94.602 51.5047 94.5057 44.9607 92.3359 36.2316C90.7765 29.9469 87.7987 25.2178 81.4811 25.2178H73.3345ZM61.1389 77.602C63.3897 77.602 65.213 79.4476 65.213 81.7291C65.213 84.0196 63.3897 85.8814 61.1389 85.8814C58.8962 85.8814 57.0664 84.0196 57.0664 81.7291C57.0664 79.4476 58.8962 77.602 61.1389 77.602Z" fill="#E2E2E2"/>
<path d="M29.188 122.112C29.188 123.04 28.868 123.813 28.228 124.432C27.5987 125.04 26.6333 125.344 25.332 125.344H23.188V130H21.732V118.848H25.332C26.5907 118.848 27.5453 119.152 28.196 119.76C28.8573 120.368 29.188 121.152 29.188 122.112ZM25.332 124.144C26.1427 124.144 26.74 123.968 27.124 123.616C27.508 123.264 27.7 122.763 27.7 122.112C27.7 120.736 26.9107 120.048 25.332 120.048H23.188V124.144H25.332ZM38.5496 121.232L33.2696 134.128H31.7656L33.4936 129.904L29.9576 121.232H31.5736L34.3256 128.336L37.0456 121.232H38.5496ZM41.7893 122.432V127.6C41.7893 128.027 41.8799 128.331 42.0613 128.512C42.2426 128.683 42.5573 128.768 43.0052 128.768H44.0773V130H42.7653C41.9546 130 41.3466 129.813 40.9413 129.44C40.5359 129.067 40.3333 128.453 40.3333 127.6V122.432H39.1973V121.232H40.3333V119.024H41.7893V121.232H44.0773V122.432H41.7893ZM50.1934 121.072C50.8547 121.072 51.452 121.216 51.9854 121.504C52.5187 121.781 52.9347 122.203 53.2334 122.768C53.5427 123.333 53.6974 124.021 53.6974 124.832V130H52.2574V125.04C52.2574 124.165 52.0387 123.499 51.6014 123.04C51.164 122.571 50.5667 122.336 49.8094 122.336C49.0414 122.336 48.428 122.576 47.9694 123.056C47.5214 123.536 47.2974 124.235 47.2974 125.152V130H45.8414V118.16H47.2974V122.48C47.5854 122.032 47.98 121.685 48.4814 121.44C48.9934 121.195 49.564 121.072 50.1934 121.072ZM59.8998 130.144C59.0784 130.144 58.3318 129.957 57.6598 129.584C56.9984 129.211 56.4758 128.683 56.0918 128C55.7184 127.307 55.5318 126.507 55.5318 125.6C55.5318 124.704 55.7238 123.915 56.1078 123.232C56.5024 122.539 57.0358 122.011 57.7078 121.648C58.3798 121.275 59.1318 121.088 59.9638 121.088C60.7958 121.088 61.5478 121.275 62.2198 121.648C62.8918 122.011 63.4198 122.533 63.8038 123.216C64.1984 123.899 64.3958 124.693 64.3958 125.6C64.3958 126.507 64.1931 127.307 63.7878 128C63.3931 128.683 62.8544 129.211 62.1718 129.584C61.4891 129.957 60.7318 130.144 59.8998 130.144ZM59.8998 128.864C60.4224 128.864 60.9131 128.741 61.3718 128.496C61.8304 128.251 62.1984 127.883 62.4758 127.392C62.7638 126.901 62.9078 126.304 62.9078 125.6C62.9078 124.896 62.7691 124.299 62.4918 123.808C62.2144 123.317 61.8518 122.955 61.4038 122.72C60.9558 122.475 60.4704 122.352 59.9478 122.352C59.4144 122.352 58.9238 122.475 58.4758 122.72C58.0384 122.955 57.6864 123.317 57.4198 123.808C57.1531 124.299 57.0198 124.896 57.0198 125.6C57.0198 126.315 57.1478 126.917 57.4038 127.408C57.6704 127.899 58.0224 128.267 58.4598 128.512C58.8971 128.747 59.3771 128.864 59.8998 128.864ZM70.5821 121.072C71.6488 121.072 72.5128 121.397 73.1741 122.048C73.8355 122.688 74.1661 123.616 74.1661 124.832V130H72.7261V125.04C72.7261 124.165 72.5075 123.499 72.0701 123.04C71.6328 122.571 71.0355 122.336 70.2781 122.336C69.5101 122.336 68.8968 122.576 68.4381 123.056C67.9901 123.536 67.7661 124.235 67.7661 125.152V130H66.3101V121.232H67.7661V122.48C68.0541 122.032 68.4435 121.685 68.9341 121.44C69.4355 121.195 69.9848 121.072 70.5821 121.072Z" fill="#AFAFAF"/>
</svg>
