<svg width="96" height="136" viewBox="0 0 96 136" fill="none" xmlns="http://www.w3.org/2000/svg">
<g clip-path="url(#clip0_361_1004)">
<path d="M76.2128 27.9039C91.9291 43.4782 91.9291 68.462 76.2128 84.1444C60.824 99.7187 35.5034 99.7187 19.7872 84.1444C4.07094 68.5701 4.07094 43.4782 19.7872 27.9039L47.9454 0V13.952L45.3261 16.5477L26.663 35.0421C14.8759 46.5065 14.8759 65.3255 26.663 77.0062C38.2319 88.6869 57.2224 88.6869 69.0096 77.0062C80.7967 65.5418 80.7967 46.7229 69.0096 35.0421L76.2128 27.9039ZM62.1337 26.1734C59.2404 26.1734 56.895 23.8492 56.895 20.982C56.895 18.1149 59.2404 15.7906 62.1337 15.7906C65.027 15.7906 67.3724 18.1149 67.3724 20.982C67.3724 23.8492 65.027 26.1734 62.1337 26.1734Z" fill="#CBCBCB"/>
</g>
<path d="M24.688 122.112C24.688 123.04 24.368 123.813 23.728 124.432C23.0987 125.04 22.1333 125.344 20.832 125.344H18.688V130H17.232V118.848H20.832C22.0907 118.848 23.0453 119.152 23.696 119.76C24.3573 120.368 24.688 121.152 24.688 122.112ZM20.832 124.144C21.6427 124.144 22.24 123.968 22.624 123.616C23.008 123.264 23.2 122.763 23.2 122.112C23.2 120.736 22.4107 120.048 20.832 120.048H18.688V124.144H20.832ZM34.0496 121.232L28.7696 134.128H27.2656L28.9936 129.904L25.4576 121.232H27.0736L29.8256 128.336L32.5456 121.232H34.0496ZM42.3773 118.848V120.032H39.3373V130H37.8813V120.032H34.8253V118.848H42.3773ZM47.9935 130.144C47.1722 130.144 46.4255 129.957 45.7535 129.584C45.0922 129.211 44.5695 128.683 44.1855 128C43.8122 127.307 43.6255 126.507 43.6255 125.6C43.6255 124.704 43.8175 123.915 44.2015 123.232C44.5962 122.539 45.1295 122.011 45.8015 121.648C46.4735 121.275 47.2255 121.088 48.0575 121.088C48.8895 121.088 49.6415 121.275 50.3135 121.648C50.9855 122.011 51.5135 122.533 51.8975 123.216C52.2922 123.899 52.4895 124.693 52.4895 125.6C52.4895 126.507 52.2868 127.307 51.8815 128C51.4868 128.683 50.9482 129.211 50.2655 129.584C49.5828 129.957 48.8255 130.144 47.9935 130.144ZM47.9935 128.864C48.5162 128.864 49.0068 128.741 49.4655 128.496C49.9242 128.251 50.2922 127.883 50.5695 127.392C50.8575 126.901 51.0015 126.304 51.0015 125.6C51.0015 124.896 50.8628 124.299 50.5855 123.808C50.3082 123.317 49.9455 122.955 49.4975 122.72C49.0495 122.475 48.5642 122.352 48.0415 122.352C47.5082 122.352 47.0175 122.475 46.5695 122.72C46.1322 122.955 45.7802 123.317 45.5135 123.808C45.2468 124.299 45.1135 124.896 45.1135 125.6C45.1135 126.315 45.2415 126.917 45.4975 127.408C45.7642 127.899 46.1162 128.267 46.5535 128.512C46.9908 128.747 47.4708 128.864 47.9935 128.864ZM55.8599 122.656C56.1159 122.155 56.4785 121.765 56.9479 121.488C57.4279 121.211 58.0092 121.072 58.6919 121.072V122.576H58.3079C56.6759 122.576 55.8599 123.461 55.8599 125.232V130H54.4039V121.232H55.8599V122.656ZM59.8286 125.6C59.8286 124.693 60.01 123.904 60.3726 123.232C60.7353 122.549 61.2366 122.021 61.8766 121.648C62.5273 121.275 63.2686 121.088 64.1006 121.088C65.178 121.088 66.0633 121.349 66.7566 121.872C67.4606 122.395 67.9246 123.12 68.1486 124.048H66.5806C66.4313 123.515 66.138 123.093 65.7006 122.784C65.274 122.475 64.7406 122.32 64.1006 122.32C63.2686 122.32 62.5966 122.608 62.0846 123.184C61.5726 123.749 61.3166 124.555 61.3166 125.6C61.3166 126.656 61.5726 127.472 62.0846 128.048C62.5966 128.624 63.2686 128.912 64.1006 128.912C64.7406 128.912 65.274 128.763 65.7006 128.464C66.1273 128.165 66.4206 127.739 66.5806 127.184H68.1486C67.914 128.08 67.4446 128.8 66.7406 129.344C66.0366 129.877 65.1566 130.144 64.1006 130.144C63.2686 130.144 62.5273 129.957 61.8766 129.584C61.2366 129.211 60.7353 128.683 60.3726 128C60.01 127.317 59.8286 126.517 59.8286 125.6ZM74.4434 121.072C75.1047 121.072 75.702 121.216 76.2354 121.504C76.7687 121.781 77.1847 122.203 77.4834 122.768C77.7927 123.333 77.9474 124.021 77.9474 124.832V130H76.5074V125.04C76.5074 124.165 76.2887 123.499 75.8514 123.04C75.414 122.571 74.8167 122.336 74.0594 122.336C73.2914 122.336 72.678 122.576 72.2194 123.056C71.7714 123.536 71.5474 124.235 71.5474 125.152V130H70.0914V118.16H71.5474V122.48C71.8354 122.032 72.23 121.685 72.7314 121.44C73.2434 121.195 73.814 121.072 74.4434 121.072Z" fill="#AFAFAF"/>
<defs>
<clipPath id="clip0_361_1004">
<rect width="80" height="96" fill="white" transform="translate(8)"/>
</clipPath>
</defs>
</svg>
