<svg width="161" height="136" viewBox="0 0 161 136" fill="none" xmlns="http://www.w3.org/2000/svg">
<g clip-path="url(#clip0_204_1344)">
<path d="M118.819 0.00122715C119.05 -0.0135462 119.268 0.106003 119.383 0.309411C119.497 0.512818 119.488 0.764638 119.358 0.958573L96.0505 33.098C95.8797 33.2938 95.6345 33.4058 95.3769 33.4058C95.1193 33.4058 94.8741 33.2938 94.7032 33.098L86.4849 23.7981C86.2842 23.5866 85.9997 23.479 85.7116 23.5056C85.4234 23.5322 85.1628 23.6901 85.0029 23.9349L80.018 30.3628C79.8603 30.7247 79.9121 31.1455 80.1527 31.4569L94.9727 47.048C95.1435 47.2437 95.3887 47.3557 95.6463 47.3557C95.9039 47.3557 96.1492 47.2437 96.32 47.048L125.421 13.8144C125.593 13.6269 125.859 13.5633 126.095 13.6532C126.331 13.7431 126.491 13.9687 126.499 14.2247V95.052C126.51 95.2366 126.443 95.4172 126.314 95.548C126.185 95.6788 126.007 95.7472 125.825 95.7358H37.1748C36.993 95.7472 36.8151 95.6788 36.6863 95.548C36.5574 95.4172 36.49 95.2366 36.5012 95.052V0.685046C36.49 0.500448 36.5574 0.319862 36.6863 0.189087C36.8151 0.0583118 36.993 -0.0100907 37.1748 0.00122715H118.819ZM95.9158 54.57C91.9048 54.4984 88.0392 56.0937 85.2153 58.9861C82.3915 61.8785 80.8546 65.8167 80.9611 69.8875C80.9611 79.3242 87.6974 85.3418 96.4547 85.3418C100.509 85.4442 104.484 84.1952 107.772 81.7859C108.077 81.505 108.134 81.0403 107.906 80.6918L105.481 76.9992C105.209 76.6819 104.745 76.623 104.404 76.8624C102.296 78.3237 99.8149 79.1315 97.2631 79.1874C92.5476 79.1874 89.5836 76.1786 89.0447 72.6228C89.0545 72.476 89.1696 72.3592 89.3142 72.3492H109.658C110.092 72.3195 110.437 71.9689 110.466 71.5287V70.7081C110.466 61.1346 104.538 54.57 95.9158 54.57ZM75.8415 49.3729C71.7494 45.9775 66.5716 44.2255 61.291 44.4494C52.1295 44.4494 46.471 49.92 46.471 56.4846C46.471 71.3919 68.8357 66.6052 68.8357 73.5801C68.8357 75.7683 66.68 77.9566 62.0993 77.9566C57.7488 77.993 53.5514 76.3279 50.3781 73.3066C50.1886 73.1268 49.932 73.0387 49.6739 73.0649C49.4158 73.0911 49.1814 73.229 49.0308 73.4434L45.5279 78.3668C45.3006 78.7153 45.3578 79.18 45.6626 79.461C49.3003 82.8801 54.4199 85.205 61.5604 85.205C72.0691 85.205 77.1887 79.7345 77.4582 72.6228C77.4582 57.8523 55.0935 62.092 55.0935 55.8008C55.0935 53.4758 57.1144 51.8347 60.6173 51.8347C64.4787 51.781 68.2395 53.0857 71.2607 55.5273C71.4384 55.675 71.6672 55.7438 71.8954 55.718C72.1236 55.6923 72.3319 55.5742 72.4733 55.3905L75.9762 50.6038C76.1217 50.4235 76.1894 50.1912 76.1641 49.9596C76.1387 49.7279 76.0224 49.5164 75.8415 49.3729ZM96.0505 60.5876C99.715 60.3795 102.878 63.1666 103.191 66.8787C103.181 67.0255 103.066 67.1423 102.922 67.1522H89.1794C89.0349 67.1423 88.9198 67.0255 88.91 66.8787C89.3605 63.2395 92.4378 60.5282 96.0505 60.5876Z" fill="#CBCBCB"/>
</g>
<path d="M4.893 130.112C4.157 130.112 3.49567 129.984 2.909 129.728C2.333 129.461 1.87967 129.099 1.549 128.64C1.21833 128.171 1.04767 127.632 1.037 127.024H2.589C2.64233 127.547 2.85567 127.989 3.229 128.352C3.613 128.704 4.16767 128.88 4.893 128.88C5.58633 128.88 6.13033 128.709 6.525 128.368C6.93033 128.016 7.133 127.568 7.133 127.024C7.133 126.597 7.01567 126.251 6.781 125.984C6.54633 125.717 6.253 125.515 5.901 125.376C5.549 125.237 5.07433 125.088 4.477 124.928C3.741 124.736 3.149 124.544 2.701 124.352C2.26367 124.16 1.885 123.861 1.565 123.456C1.25567 123.04 1.101 122.485 1.101 121.792C1.101 121.184 1.25567 120.645 1.565 120.176C1.87433 119.707 2.30633 119.344 2.861 119.088C3.42633 118.832 4.07167 118.704 4.797 118.704C5.84233 118.704 6.69567 118.965 7.357 119.488C8.029 120.011 8.40767 120.704 8.493 121.568H6.893C6.83967 121.141 6.61567 120.768 6.221 120.448C5.82633 120.117 5.30367 119.952 4.653 119.952C4.045 119.952 3.549 120.112 3.165 120.432C2.781 120.741 2.589 121.179 2.589 121.744C2.589 122.149 2.701 122.48 2.925 122.736C3.15967 122.992 3.44233 123.189 3.773 123.328C4.11433 123.456 4.589 123.605 5.197 123.776C5.933 123.979 6.525 124.181 6.973 124.384C7.421 124.576 7.805 124.88 8.125 125.296C8.445 125.701 8.605 126.256 8.605 126.96C8.605 127.504 8.461 128.016 8.173 128.496C7.885 128.976 7.45833 129.365 6.893 129.664C6.32767 129.963 5.661 130.112 4.893 130.112ZM18.7476 125.28C18.7476 125.557 18.7316 125.851 18.6996 126.16H11.6916C11.745 127.024 12.0383 127.701 12.5716 128.192C13.1156 128.672 13.7716 128.912 14.5396 128.912C15.169 128.912 15.6916 128.768 16.1076 128.48C16.5343 128.181 16.833 127.787 17.0036 127.296H18.5716C18.337 128.139 17.8676 128.827 17.1636 129.36C16.4596 129.883 15.585 130.144 14.5396 130.144C13.7076 130.144 12.961 129.957 12.2996 129.584C11.649 129.211 11.137 128.683 10.7636 128C10.3903 127.307 10.2036 126.507 10.2036 125.6C10.2036 124.693 10.385 123.899 10.7476 123.216C11.1103 122.533 11.617 122.011 12.2676 121.648C12.929 121.275 13.6863 121.088 14.5396 121.088C15.3716 121.088 16.1076 121.269 16.7476 121.632C17.3876 121.995 17.8783 122.496 18.2196 123.136C18.5716 123.765 18.7476 124.48 18.7476 125.28ZM17.2436 124.976C17.2436 124.421 17.121 123.947 16.8756 123.552C16.6303 123.147 16.2943 122.843 15.8676 122.64C15.4516 122.427 14.9876 122.32 14.4756 122.32C13.7396 122.32 13.1103 122.555 12.5876 123.024C12.0756 123.493 11.7823 124.144 11.7076 124.976H17.2436ZM22.1255 118.16V130H20.6695V118.16H22.1255ZM32.607 125.28C32.607 125.557 32.591 125.851 32.559 126.16H25.551C25.6043 127.024 25.8977 127.701 26.431 128.192C26.975 128.672 27.631 128.912 28.399 128.912C29.0283 128.912 29.551 128.768 29.967 128.48C30.3937 128.181 30.6923 127.787 30.863 127.296H32.431C32.1963 128.139 31.727 128.827 31.023 129.36C30.319 129.883 29.4443 130.144 28.399 130.144C27.567 130.144 26.8203 129.957 26.159 129.584C25.5083 129.211 24.9963 128.683 24.623 128C24.2497 127.307 24.063 126.507 24.063 125.6C24.063 124.693 24.2443 123.899 24.607 123.216C24.9697 122.533 25.4763 122.011 26.127 121.648C26.7883 121.275 27.5457 121.088 28.399 121.088C29.231 121.088 29.967 121.269 30.607 121.632C31.247 121.995 31.7377 122.496 32.079 123.136C32.431 123.765 32.607 124.48 32.607 125.28ZM31.103 124.976C31.103 124.421 30.9803 123.947 30.735 123.552C30.4897 123.147 30.1537 122.843 29.727 122.64C29.311 122.427 28.847 122.32 28.335 122.32C27.599 122.32 26.9697 122.555 26.447 123.024C25.935 123.493 25.6417 124.144 25.567 124.976H31.103ZM38.8009 121.072C39.8675 121.072 40.7315 121.397 41.3929 122.048C42.0542 122.688 42.3849 123.616 42.3849 124.832V130H40.9449V125.04C40.9449 124.165 40.7262 123.499 40.2889 123.04C39.8515 122.571 39.2542 122.336 38.4969 122.336C37.7289 122.336 37.1155 122.576 36.6569 123.056C36.2089 123.536 35.9849 124.235 35.9849 125.152V130H34.5289V121.232H35.9849V122.48C36.2729 122.032 36.6622 121.685 37.1529 121.44C37.6542 121.195 38.2035 121.072 38.8009 121.072ZM45.5153 119.808C45.2379 119.808 45.0033 119.712 44.8113 119.52C44.6193 119.328 44.5233 119.093 44.5233 118.816C44.5233 118.539 44.6193 118.304 44.8113 118.112C45.0033 117.92 45.2379 117.824 45.5153 117.824C45.7819 117.824 46.0059 117.92 46.1873 118.112C46.3793 118.304 46.4753 118.539 46.4753 118.816C46.4753 119.093 46.3793 119.328 46.1873 119.52C46.0059 119.712 45.7819 119.808 45.5153 119.808ZM46.2193 121.232V130H44.7633V121.232H46.2193ZM56.4768 121.232V130H55.0208V128.704C54.7434 129.152 54.3541 129.504 53.8528 129.76C53.3621 130.005 52.8181 130.128 52.2208 130.128C51.5381 130.128 50.9248 129.989 50.3808 129.712C49.8368 129.424 49.4048 128.997 49.0848 128.432C48.7754 127.867 48.6208 127.179 48.6208 126.368V121.232H50.0608V126.176C50.0608 127.04 50.2794 127.707 50.7168 128.176C51.1541 128.635 51.7514 128.864 52.5088 128.864C53.2874 128.864 53.9008 128.624 54.3488 128.144C54.7968 127.664 55.0208 126.965 55.0208 126.048V121.232H56.4768ZM69.4791 121.072C70.1618 121.072 70.7698 121.216 71.3031 121.504C71.8365 121.781 72.2578 122.203 72.5671 122.768C72.8765 123.333 73.0311 124.021 73.0311 124.832V130H71.5911V125.04C71.5911 124.165 71.3725 123.499 70.9351 123.04C70.5085 122.571 69.9271 122.336 69.1911 122.336C68.4338 122.336 67.8311 122.581 67.3831 123.072C66.9351 123.552 66.7111 124.251 66.7111 125.168V130H65.2711V125.04C65.2711 124.165 65.0525 123.499 64.6151 123.04C64.1885 122.571 63.6071 122.336 62.8711 122.336C62.1138 122.336 61.5111 122.581 61.0631 123.072C60.6151 123.552 60.3911 124.251 60.3911 125.168V130H58.9351V121.232H60.3911V122.496C60.6791 122.037 61.0631 121.685 61.5431 121.44C62.0338 121.195 62.5725 121.072 63.1591 121.072C63.8951 121.072 64.5458 121.237 65.1111 121.568C65.6765 121.899 66.0978 122.384 66.3751 123.024C66.6205 122.405 67.0258 121.925 67.5911 121.584C68.1565 121.243 68.7858 121.072 69.4791 121.072ZM93.7011 118.848L90.4691 130H88.8371L86.2451 121.024L83.5571 130L81.9411 130.016L78.8211 118.848H80.3731L82.8051 128.304L85.4931 118.848H87.1251L89.6851 128.272L92.1331 118.848H93.7011ZM103.295 125.28C103.295 125.557 103.279 125.851 103.247 126.16H96.2385C96.2918 127.024 96.5852 127.701 97.1185 128.192C97.6625 128.672 98.3185 128.912 99.0865 128.912C99.7158 128.912 100.239 128.768 100.655 128.48C101.081 128.181 101.38 127.787 101.551 127.296H103.119C102.884 128.139 102.415 128.827 101.711 129.36C101.007 129.883 100.132 130.144 99.0865 130.144C98.2545 130.144 97.5078 129.957 96.8465 129.584C96.1958 129.211 95.6838 128.683 95.3105 128C94.9372 127.307 94.7505 126.507 94.7505 125.6C94.7505 124.693 94.9318 123.899 95.2945 123.216C95.6572 122.533 96.1638 122.011 96.8145 121.648C97.4758 121.275 98.2332 121.088 99.0865 121.088C99.9185 121.088 100.655 121.269 101.295 121.632C101.935 121.995 102.425 122.496 102.767 123.136C103.119 123.765 103.295 124.48 103.295 125.28ZM101.791 124.976C101.791 124.421 101.668 123.947 101.423 123.552C101.177 123.147 100.841 122.843 100.415 122.64C99.9985 122.427 99.5345 122.32 99.0225 122.32C98.2865 122.32 97.6572 122.555 97.1345 123.024C96.6225 123.493 96.3292 124.144 96.2545 124.976H101.791ZM106.672 122.864C106.971 122.341 107.408 121.915 107.984 121.584C108.56 121.253 109.216 121.088 109.952 121.088C110.742 121.088 111.451 121.275 112.08 121.648C112.71 122.021 113.206 122.549 113.568 123.232C113.931 123.904 114.112 124.688 114.112 125.584C114.112 126.469 113.931 127.259 113.568 127.952C113.206 128.645 112.704 129.184 112.064 129.568C111.435 129.952 110.731 130.144 109.952 130.144C109.195 130.144 108.528 129.979 107.952 129.648C107.387 129.317 106.96 128.896 106.672 128.384V130H105.216V118.16H106.672V122.864ZM112.624 125.584C112.624 124.923 112.491 124.347 112.224 123.856C111.958 123.365 111.595 122.992 111.136 122.736C110.688 122.48 110.192 122.352 109.648 122.352C109.115 122.352 108.619 122.485 108.16 122.752C107.712 123.008 107.35 123.387 107.072 123.888C106.806 124.379 106.672 124.949 106.672 125.6C106.672 126.261 106.806 126.843 107.072 127.344C107.35 127.835 107.712 128.213 108.16 128.48C108.619 128.736 109.115 128.864 109.648 128.864C110.192 128.864 110.688 128.736 111.136 128.48C111.595 128.213 111.958 127.835 112.224 127.344C112.491 126.843 112.624 126.256 112.624 125.584ZM119.501 118.848C120.717 118.848 121.768 119.077 122.653 119.536C123.549 119.984 124.232 120.629 124.701 121.472C125.181 122.315 125.421 123.307 125.421 124.448C125.421 125.589 125.181 126.581 124.701 127.424C124.232 128.256 123.549 128.896 122.653 129.344C121.768 129.781 120.717 130 119.501 130H116.029V118.848H119.501ZM119.501 128.8C120.941 128.8 122.04 128.421 122.797 127.664C123.554 126.896 123.933 125.824 123.933 124.448C123.933 123.061 123.549 121.979 122.781 121.2C122.024 120.421 120.93 120.032 119.501 120.032H117.485V128.8H119.501ZM128.797 122.656C129.053 122.155 129.416 121.765 129.885 121.488C130.365 121.211 130.947 121.072 131.629 121.072V122.576H131.245C129.613 122.576 128.797 123.461 128.797 125.232V130H127.341V121.232H128.797V122.656ZM134.062 119.808C133.785 119.808 133.55 119.712 133.358 119.52C133.166 119.328 133.07 119.093 133.07 118.816C133.07 118.539 133.166 118.304 133.358 118.112C133.55 117.92 133.785 117.824 134.062 117.824C134.329 117.824 134.553 117.92 134.734 118.112C134.926 118.304 135.022 118.539 135.022 118.816C135.022 119.093 134.926 119.328 134.734 119.52C134.553 119.712 134.329 119.808 134.062 119.808ZM134.766 121.232V130H133.31V121.232H134.766ZM140.512 128.656L143.232 121.232H144.784L141.344 130H139.648L136.208 121.232H137.776L140.512 128.656ZM154.216 125.28C154.216 125.557 154.2 125.851 154.168 126.16H147.16C147.214 127.024 147.507 127.701 148.04 128.192C148.584 128.672 149.24 128.912 150.008 128.912C150.638 128.912 151.16 128.768 151.576 128.48C152.003 128.181 152.302 127.787 152.472 127.296H154.04C153.806 128.139 153.336 128.827 152.632 129.36C151.928 129.883 151.054 130.144 150.008 130.144C149.176 130.144 148.43 129.957 147.768 129.584C147.118 129.211 146.606 128.683 146.232 128C145.859 127.307 145.672 126.507 145.672 125.6C145.672 124.693 145.854 123.899 146.216 123.216C146.579 122.533 147.086 122.011 147.736 121.648C148.398 121.275 149.155 121.088 150.008 121.088C150.84 121.088 151.576 121.269 152.216 121.632C152.856 121.995 153.347 122.496 153.688 123.136C154.04 123.765 154.216 124.48 154.216 125.28ZM152.712 124.976C152.712 124.421 152.59 123.947 152.344 123.552C152.099 123.147 151.763 122.843 151.336 122.64C150.92 122.427 150.456 122.32 149.944 122.32C149.208 122.32 148.579 122.555 148.056 123.024C147.544 123.493 147.251 124.144 147.176 124.976H152.712ZM157.594 122.656C157.85 122.155 158.213 121.765 158.682 121.488C159.162 121.211 159.744 121.072 160.426 121.072V122.576H160.042C158.41 122.576 157.594 123.461 157.594 125.232V130H156.138V121.232H157.594V122.656Z" fill="#AFAFAF"/>
<defs>
<clipPath id="clip0_204_1344">
<rect width="96" height="96" fill="white" transform="translate(32.5)"/>
</clipPath>
</defs>
</svg>
