<svg width="96" height="136" viewBox="0 0 96 136" fill="none" xmlns="http://www.w3.org/2000/svg">
<path d="M69.7632 40.5943L70.2404 39.0044C71.8303 33.2831 73.4461 27.5619 75.6454 22.0232C76.6258 19.5334 78.2948 18.1419 80.8923 17.8372C82.6144 17.6503 84.4429 17.4922 85.6073 19.1353C86.3749 20.1703 87.2504 20.7783 88.4823 21.004C89.0645 21.0831 89.6323 21.2426 90.2044 21.4539C90.9721 21.7458 91.2639 21.4281 91.4766 20.7122L93.5179 13.7719C94.2855 11.1499 94.2855 11.1758 91.7426 10.2745C90.6831 9.90363 89.7301 9.74263 88.616 10.2213C86.8148 10.9631 85.1718 10.6713 83.7285 9.21507C82.1904 7.67695 80.4438 6.4867 78.3523 5.74495C72.3392 3.65195 66.1666 2.7262 59.8344 3.73245C56.7869 4.2097 53.8213 5.03051 51.2525 6.85901C50.8816 7.12351 50.5913 7.4412 50.2463 7.76032C53.7437 7.46851 57.1074 7.41532 60.4726 7.8667C62.7511 8.15851 64.7909 8.92613 66.3003 10.8596C67.8901 12.9008 68.261 15.3101 68.4565 17.7481C68.7483 21.165 68.1115 24.4511 67.1584 27.7099L64.2173 38.0944C64.0851 38.5444 63.9787 38.9569 64.5882 39.1007L69.7546 40.6101L69.7632 40.5943ZM53.4691 92.6777C55.1366 92.81 56.4879 92.0424 57.3504 90.5589C57.8604 89.6718 58.2437 88.7176 58.4889 87.7241L66.0645 56.1466L69.1379 43.0337C69.3492 42.1712 69.1379 41.8406 68.3185 41.6566L64.9806 40.7294C62.9394 40.1199 63.3376 40.1975 62.7295 41.8794L47.6688 84.7169C47.4575 85.2991 47.2721 85.9359 47.2448 86.5454C47.101 90.1478 49.631 92.6648 53.4691 92.6921V92.6777ZM2.07564 29.123L2.39189 31.4546L4.6962 46.7137L6.94732 62.0949L9.27895 77.5667L10.7366 87.3705C10.8429 88.0605 11.0816 88.3767 11.8866 88.2445L26.3507 85.9402L46.9874 82.7346C47.2519 82.6814 47.4647 82.3637 47.7033 82.1524C47.4115 82.0086 47.0679 81.7024 46.802 81.7283L35.5435 83.4246L12.7591 87.0011C11.9642 87.1333 11.6997 86.9479 11.6091 86.1817L10.1932 76.2859L6.8812 54.3784L3.2932 30.4743C3.16095 29.6003 3.43695 29.2021 4.3282 29.0971L8.91095 28.3813L27.6674 25.3338L59.2982 20.1415L66.4239 18.9225C66.7157 18.8693 66.927 18.4453 67.1656 18.2066L66.2126 17.8358C66.1335 17.8099 66.0257 17.8616 65.9208 17.8889L57.0456 19.3724L2.84326 28.2749C2.18201 28.3813 1.83701 28.5667 2.07564 29.1374V29.123ZM77.5774 20.3284C77.4337 20.3284 77.2612 20.3284 77.1002 20.3025C77.0211 20.9638 76.7839 21.6538 76.8616 22.315L77.921 28.7521L80.796 46.0251L85.5398 74.318C85.6461 74.8743 85.5398 75.2711 84.8498 75.3774L69.5619 77.7623L62.3313 78.9554C62.12 78.9813 61.9346 79.3262 61.7491 79.5376C62.0136 79.6698 62.2523 79.9084 62.4909 79.9084C63.2585 79.8552 64.0003 79.7216 64.742 79.6166L86.8364 76.066L77.5645 20.3269L77.5774 20.3284ZM57.4697 53.7071C58.0792 53.0976 57.9728 52.6477 57.5488 52.1446L52.5951 46.1833L38.66 29.3616C38.2891 28.9117 37.97 28.3022 37.8651 27.7186C37.6782 26.5801 38.4473 25.5623 39.5613 25.0966C40.7544 24.6466 41.7866 24.9643 42.7928 26.156L56.4893 42.5435L59.8272 46.4909C60.4094 45.8814 60.3303 45.4314 59.9063 44.9283L54.4222 38.369L43.375 25.2303C41.8915 23.5081 39.6375 23.4018 37.9988 24.8335C36.383 26.2379 36.3025 28.226 37.8119 30.0258L54.9785 50.743L57.4683 53.71L57.4697 53.7071ZM39.1904 42.5378C39.0036 42.4055 38.7937 42.2215 38.5551 42.1137L33.071 40.1012C32.4888 39.8899 32.2085 40.1012 32.0116 40.6043L21.9979 65.2143C21.7334 65.8238 21.9189 66.1156 22.4752 66.3269L27.6143 68.4458C28.5414 68.8699 28.9123 68.6571 29.2573 67.7299L39.1761 42.5363L39.1904 42.5378ZM56.6489 53.9184L53.0983 49.3903C52.1969 48.0003 51.1907 47.2815 49.5232 48.0003C49.1264 48.144 48.6607 48.144 48.251 48.2116L37.6135 50.0401C37.0572 50.1464 36.5785 50.2787 36.3413 50.9414L34.1951 56.7963C34.1161 57.0076 34.1161 57.2736 34.0629 57.6588L56.6345 53.9501L56.6489 53.9184ZM26.8711 51.5609L14.1291 53.6266L14.9484 59.4025C15.0548 60.2219 15.3984 60.3297 16.1416 60.2219L22.7109 59.3206C23.3722 59.2415 23.7977 58.9756 24.0622 58.3675L26.5261 52.6463C26.6583 52.33 26.7129 52.0641 26.8711 51.5595V51.5609Z" fill="#AFAFAF"/>
<path d="M73.4429 68.0928L65.4691 63.2441C65.5755 63.7472 65.5223 64.3309 65.7854 64.6212C66.2906 65.1821 66.8918 65.6484 67.5607 65.9984C68.462 66.5015 69.4294 66.8609 70.3422 67.2964C71.6935 67.9577 72.6739 68.9122 72.6739 70.5552C72.6739 70.8197 72.8061 71.0871 72.9125 71.3746L73.177 71.2424C73.2504 71.1721 73.3133 71.0918 73.3639 71.0037C74.9537 68.6462 75.0601 66.0501 74.3701 63.385C73.6025 60.418 72.2239 57.8477 69.336 56.3642C68.5411 55.9675 68.0379 56.3111 67.4557 56.7092C66.8462 57.1333 66.5027 57.6364 66.6608 58.5377C67.0849 58.2732 67.4557 58.0878 67.7202 57.8219C68.3815 57.1319 68.9924 57.29 69.7327 57.7687C72.6466 59.8099 74.4765 64.9476 73.4415 68.0756L73.4429 68.0928ZM20.1692 79.1946C20.2756 79.2478 20.3805 79.301 20.4854 79.3269L28.4348 69.4081L27.5335 68.9309L22.4735 66.8896C21.6786 66.5446 21.4385 66.7832 21.3867 67.6055L20.6867 74.3071L20.1836 79.1946H20.1692ZM37.2553 33.5209C35.7172 33.6647 34.7109 34.3159 34.1287 35.6671L32.9097 38.5809C32.6452 39.1372 32.7229 39.4822 33.3597 39.6936L38.6583 41.6543C39.2937 41.8929 39.5596 41.6802 39.7968 41.1224L41.069 38.1037C41.6253 36.7524 41.3852 35.6139 40.1677 34.819C39.2937 34.2627 38.2342 33.945 37.2539 33.5209H37.2553ZM68.3312 51.8002L74.9437 50.873C75.1306 50.8471 75.3677 50.3699 75.3404 50.1571L74.3874 44.9102C74.3342 44.6457 73.8842 44.2749 73.6198 44.2749C72.5071 44.3539 71.3945 44.5135 70.2819 44.6989C69.7256 44.778 69.3288 45.0439 69.6465 45.8374L72.7199 45.4666C72.9585 45.4407 73.4099 45.6534 73.4357 45.8116L74.2034 49.9185L69.2756 50.5797C68.6934 50.6588 68.163 50.791 68.3484 51.7987L68.3312 51.8002ZM69.7629 40.5949L64.6239 39.1114C64.0144 38.9245 64.1207 38.5551 64.253 38.1051L67.1941 27.7206C68.1472 24.4618 68.784 21.1512 68.4922 17.7587C68.2809 15.3222 67.9359 12.9374 66.3359 10.8702C64.8266 8.9368 62.7853 8.16774 60.5083 7.87736C57.1446 7.42743 53.8052 7.48061 50.2819 7.77099C50.6269 7.47918 50.9173 7.13561 51.2882 6.86968C53.8584 5.04118 56.8254 4.22036 59.8701 3.74311C66.2281 2.73686 72.3763 3.68993 78.3879 5.75561C80.4809 6.47149 82.2289 7.68905 83.7642 9.22574C85.2218 10.6834 86.8634 10.9737 88.6517 10.232C89.7643 9.75474 90.7174 9.91574 91.7783 10.2852C94.3226 11.1865 94.3226 11.1592 93.5536 13.7826L91.5123 20.7229C91.301 21.4387 91.0092 21.7291 90.2401 21.4646C89.6838 21.2533 89.1016 21.0937 88.518 21.0147C87.2731 20.8278 86.3718 20.2197 85.643 19.1459C84.4499 17.5302 82.6501 17.6624 80.928 17.8479C78.3319 18.1397 76.6629 19.5441 75.6811 22.0339C73.4817 27.5711 71.866 33.2924 70.2761 39.0151L69.773 40.5776L69.7629 40.5949ZM53.4689 92.6784C49.6279 92.6525 47.1108 90.1627 47.2445 86.5316C47.2704 85.9221 47.4558 85.2867 47.6686 84.7031L62.7407 41.9202C63.3229 40.224 62.9521 40.1722 64.9919 40.7702L68.3298 41.6974C69.1491 41.8843 69.3647 42.2293 69.1491 43.0746L66.0757 56.1874L58.5001 87.765C58.2549 88.7584 57.8717 89.7126 57.3616 90.5997C56.4876 92.0574 55.1364 92.825 53.4804 92.6927L53.4689 92.6784ZM2.07537 29.1236C1.83674 28.5673 2.18174 28.3819 2.8703 28.2611L57.0712 19.386L65.9464 17.9025C66.0527 17.8766 66.1577 17.8234 66.2382 17.8493L67.1912 18.2202C66.9526 18.4588 66.7413 18.8814 66.4495 18.9361L59.3238 20.1551L44.0892 22.6276L27.6902 25.3301L8.93368 28.3776L4.35093 29.0934C3.47693 29.1998 3.20093 29.5966 3.31593 30.4706L10.1929 76.2794L11.6232 86.1607C11.7296 86.9284 11.9682 87.1138 12.7732 86.9801L35.5576 83.4036L46.8161 81.7074C47.0806 81.6815 47.4256 81.9719 47.7174 82.1314C47.4788 82.3427 47.2675 82.6633 47.0016 82.7136L26.3936 85.9221L11.9294 88.2264C11.1101 88.3587 10.87 88.0396 10.7794 87.3524L9.32181 77.5487L6.99018 62.0769L4.73905 46.6956L2.07393 29.138L2.07537 29.1236ZM77.5772 20.329L86.9022 76.1212L81.71 76.9837L64.8079 79.6862L62.5567 79.9781C62.3181 80.0039 62.0536 79.7394 61.815 79.6072C62.0019 79.3959 62.1859 79.0753 62.3972 79.025L69.6278 77.8319L84.8869 75.4456C85.5769 75.3392 85.6545 74.9425 85.5769 74.3862L83.7081 63.3649L77.9581 28.8189L76.8987 22.3817C76.8196 21.7464 77.0424 21.0592 77.1373 20.3692C77.2696 20.3434 77.4018 20.3434 77.5614 20.3434L77.5772 20.329Z" fill="#AFAFAF"/>
<path d="M57.4695 53.7065L54.9798 50.7395L37.8132 30.0222C36.3038 28.2211 36.3828 26.2603 38 24.83C39.6675 23.3724 41.9215 23.4787 43.3763 25.2267L59.9075 44.9104C60.3316 45.4136 60.4394 45.8635 59.8285 46.473L56.4906 42.5256L42.7941 26.1381C41.7878 24.945 40.7528 24.6 39.5626 25.0787C38.4241 25.5286 37.6823 26.5622 37.8663 27.7007C37.9454 28.2829 38.2631 28.8938 38.6613 29.3437L57.55 52.1281C57.9741 52.6312 58.1063 53.0812 57.471 53.6907L57.4695 53.7065ZM39.1903 42.5371L38.874 43.4384L29.2428 67.7839C28.8719 68.7111 28.5269 68.9224 27.5997 68.4998L22.4607 66.3809C21.8785 66.1423 21.7189 65.8778 21.9834 65.2683L31.997 40.6583C32.2083 40.1264 32.4743 39.9165 33.0565 40.1552L38.5405 42.1677C38.7792 42.2209 38.9646 42.4063 39.1759 42.5386L39.1903 42.5371ZM32.9372 41.2146L31.665 44.3671L23.4525 64.4748C23.1363 65.2697 23.3088 65.5874 24.0347 65.8519L27.1613 67.1241C27.9562 67.5209 28.2739 67.3627 28.5916 66.5419L37.8922 43.0172L32.9386 41.2161L32.9372 41.2146ZM56.6487 53.9178L34.1044 57.6265C34.1576 57.2557 34.1576 57.0171 34.2367 56.7641L36.3828 50.9091C36.6215 50.2479 37.0987 50.0897 37.655 50.0078L48.2925 48.1793C48.7166 48.1002 49.1665 48.1261 49.5647 47.968C51.2322 47.3067 52.214 48.0212 53.1412 49.3724C54.1216 50.8818 55.3406 52.2474 56.6631 53.9006L56.6487 53.9178ZM35.5606 56.3285L54.7138 53.166L51.5614 49.2186C51.3745 49.0073 50.9519 48.9024 50.6342 48.9268L47.9058 49.3509L38.4758 50.9939C38.0791 51.073 37.4955 51.3102 37.3632 51.6293C36.702 53.1128 36.1701 54.6481 35.562 56.3443L35.5606 56.3285ZM26.8709 51.5603L26.5259 52.5953L24.062 58.3166C23.7975 58.9519 23.4008 59.1906 22.7108 59.2696L16.1414 60.1709C15.3997 60.2773 15.0547 60.1709 14.9483 59.3516L14.1289 53.5757L26.8709 51.5632V51.5603ZM25.2278 52.9116L16.2219 54.3677C15.9301 54.4209 15.4543 54.8996 15.4543 55.1354C15.5333 56.2739 15.7461 57.4138 15.9862 58.5523C16.0576 58.6842 16.1601 58.7966 16.2849 58.8798C16.4096 58.9629 16.5528 59.0144 16.702 59.0296L22.0783 58.2878C22.4233 58.2346 22.9408 58.0492 23.0587 57.7847L25.2149 52.8972L25.2278 52.9116ZM73.4416 68.0916C74.4766 64.965 72.6467 59.8259 69.7328 57.8393C69.017 57.3362 68.4103 57.2039 67.7203 57.8925C67.4558 58.157 67.085 58.3166 66.6609 58.6084C66.5172 57.6812 66.8478 57.2039 67.4558 56.7799C68.038 56.3558 68.5426 56.0381 69.3361 56.4349C72.2111 57.9184 73.6012 60.4886 74.3702 63.4556C75.0602 66.1049 74.9524 68.7025 73.364 71.0744C73.3108 71.1534 73.2576 71.2181 73.1771 71.313C73.1239 71.3662 73.0707 71.3662 72.9126 71.4452C72.8335 71.1534 72.674 70.8889 72.674 70.6259C72.674 68.9828 71.6936 68.0297 70.3423 67.3671L67.5608 66.069C66.8995 65.6981 66.2627 65.2496 65.7855 64.6919C65.521 64.4001 65.5742 63.8179 65.4692 63.3147L73.443 68.0959L73.4416 68.0916ZM20.1693 79.1934L20.6465 74.3059L21.3624 67.6028C21.4415 66.7834 21.6542 66.5434 22.4492 66.8869L27.5092 68.9282C27.7737 69.0345 28.0123 69.1927 28.4105 69.4054L20.4611 79.3242C20.382 79.2983 20.2742 79.2451 20.1693 79.1919V79.1934ZM21.5205 76.12C21.5996 76.1459 21.6643 76.1459 21.7318 76.1732L26.766 69.7619L22.396 68.0398L21.522 76.1186L21.5205 76.12ZM37.2554 33.5197C38.2358 33.9437 39.2967 34.2614 40.1692 34.8422C41.3882 35.6371 41.6268 36.7756 41.0705 38.1269L39.7983 41.1456C39.587 41.7019 39.2952 41.9132 38.6598 41.6775L33.3612 39.7167C32.7258 39.5054 32.6712 39.1604 32.9113 38.6041L34.1303 35.6903C34.7125 34.3132 35.6928 33.6778 37.2568 33.5341L37.2554 33.5197ZM34.0239 38.791L38.4485 40.4067C38.5923 40.4599 38.9804 40.2199 39.0839 40.01L40.1189 37.6525C40.4639 36.9107 40.3058 36.1949 39.669 35.824C38.9272 35.3741 38.1064 35.0564 37.2583 34.8436C36.3311 34.6323 35.562 35.0549 35.1926 35.9562L34.0426 38.791H34.0239ZM68.3313 51.8004C68.12 50.7941 68.6763 50.6619 69.2585 50.5814L74.1862 49.9201L73.4186 45.8132C73.3927 45.6694 72.9413 45.4423 72.7027 45.4682L69.6293 45.8391C69.3375 45.0197 69.7357 44.7796 70.2647 44.7006L73.6026 44.2765C73.8671 44.2506 74.3185 44.6474 74.3702 44.9119L75.3233 50.1587C75.3492 50.3701 75.0846 50.8487 74.9265 50.8746L68.314 51.8018L68.3313 51.8004Z" fill="#AFAFAF"/>
<path d="M32.9383 41.2434L37.8919 43.0446L28.5913 66.5693C28.275 67.3886 27.93 67.5496 27.161 67.1514C26.1547 66.6483 25.0953 66.2501 24.0344 65.8792C23.2926 65.6147 23.1331 65.2971 23.4522 64.5021L31.6646 44.3944L32.9368 41.2419L32.9383 41.2434ZM35.5617 56.3299L37.337 51.6408C37.4693 51.3246 38.0529 51.0845 38.4496 51.0054L47.8796 49.3624L50.608 48.9383C50.8998 48.9124 51.3498 49.0174 51.5352 49.2301L54.6876 53.1775L35.5603 56.3299H35.5617ZM25.2304 52.9116L23.0741 57.7603C22.9419 58.0248 22.4388 58.2102 22.0938 58.2634L16.7175 59.0051C16.4789 59.031 16.0275 58.7406 16.0016 58.5279C15.763 57.4153 15.5517 56.2767 15.4698 55.1109C15.4439 54.8723 15.9197 54.3951 16.2374 54.3433L25.2448 52.913L25.2304 52.9116ZM21.5216 76.1171L22.4229 68.0384L26.7929 69.7605L21.7588 76.1717C21.6769 76.167 21.5964 76.149 21.5202 76.1186L21.5216 76.1171ZM34.025 38.791L35.175 35.9836C35.5718 35.0822 36.3135 34.6611 37.2407 34.8709C38.0926 35.0633 38.907 35.3945 39.6514 35.8513C40.2868 36.2481 40.4463 36.9381 40.1013 37.6798L39.0663 40.0373C38.96 40.2242 38.5891 40.4872 38.431 40.4341L34.0063 38.791H34.025Z" fill="#AFAFAF"/>
<path d="M28.4795 124.432L31.9035 130H30.2555L27.5835 125.648L25.0395 130H23.4235L26.8315 124.432L23.4075 118.848H25.0395L27.7275 123.216L30.2875 118.848H31.9195L28.4795 124.432ZM33.313 125.6C33.313 124.693 33.4943 123.904 33.857 123.232C34.2197 122.549 34.721 122.021 35.361 121.648C36.0117 121.275 36.753 121.088 37.585 121.088C38.6623 121.088 39.5477 121.349 40.241 121.872C40.945 122.395 41.409 123.12 41.633 124.048H40.065C39.9157 123.515 39.6223 123.093 39.185 122.784C38.7583 122.475 38.225 122.32 37.585 122.32C36.753 122.32 36.081 122.608 35.569 123.184C35.057 123.749 34.801 124.555 34.801 125.6C34.801 126.656 35.057 127.472 35.569 128.048C36.081 128.624 36.753 128.912 37.585 128.912C38.225 128.912 38.7583 128.763 39.185 128.464C39.6117 128.165 39.905 127.739 40.065 127.184H41.633C41.3983 128.08 40.929 128.8 40.225 129.344C39.521 129.877 38.641 130.144 37.585 130.144C36.753 130.144 36.0117 129.957 35.361 129.584C34.721 129.211 34.2197 128.683 33.857 128C33.4943 127.317 33.313 126.517 33.313 125.6ZM47.3998 130.144C46.5784 130.144 45.8318 129.957 45.1598 129.584C44.4984 129.211 43.9758 128.683 43.5918 128C43.2184 127.307 43.0318 126.507 43.0318 125.6C43.0318 124.704 43.2238 123.915 43.6078 123.232C44.0024 122.539 44.5358 122.011 45.2078 121.648C45.8798 121.275 46.6318 121.088 47.4638 121.088C48.2958 121.088 49.0478 121.275 49.7198 121.648C50.3918 122.011 50.9198 122.533 51.3038 123.216C51.6984 123.899 51.8958 124.693 51.8958 125.6C51.8958 126.507 51.6931 127.307 51.2878 128C50.8931 128.683 50.3544 129.211 49.6718 129.584C48.9891 129.957 48.2318 130.144 47.3998 130.144ZM47.3998 128.864C47.9224 128.864 48.4131 128.741 48.8718 128.496C49.3304 128.251 49.6984 127.883 49.9758 127.392C50.2638 126.901 50.4078 126.304 50.4078 125.6C50.4078 124.896 50.2691 124.299 49.9918 123.808C49.7144 123.317 49.3518 122.955 48.9038 122.72C48.4558 122.475 47.9704 122.352 47.4478 122.352C46.9144 122.352 46.4238 122.475 45.9758 122.72C45.5384 122.955 45.1864 123.317 44.9198 123.808C44.6531 124.299 44.5198 124.896 44.5198 125.6C44.5198 126.315 44.6478 126.917 44.9038 127.408C45.1704 127.899 45.5224 128.267 45.9598 128.512C46.3971 128.747 46.8771 128.864 47.3998 128.864ZM53.2661 125.584C53.2661 124.688 53.4475 123.904 53.8101 123.232C54.1728 122.549 54.6688 122.021 55.2981 121.648C55.9381 121.275 56.6528 121.088 57.4421 121.088C58.1248 121.088 58.7595 121.248 59.3461 121.568C59.9328 121.877 60.3808 122.288 60.6901 122.8V118.16H62.1621V130H60.6901V128.352C60.4021 128.875 59.9755 129.307 59.4101 129.648C58.8448 129.979 58.1835 130.144 57.4261 130.144C56.6475 130.144 55.9381 129.952 55.2981 129.568C54.6688 129.184 54.1728 128.645 53.8101 127.952C53.4475 127.259 53.2661 126.469 53.2661 125.584ZM60.6901 125.6C60.6901 124.939 60.5568 124.363 60.2901 123.872C60.0235 123.381 59.6608 123.008 59.2021 122.752C58.7541 122.485 58.2581 122.352 57.7141 122.352C57.1701 122.352 56.6741 122.48 56.2261 122.736C55.7781 122.992 55.4208 123.365 55.1541 123.856C54.8875 124.347 54.7541 124.923 54.7541 125.584C54.7541 126.256 54.8875 126.843 55.1541 127.344C55.4208 127.835 55.7781 128.213 56.2261 128.48C56.6741 128.736 57.1701 128.864 57.7141 128.864C58.2581 128.864 58.7541 128.736 59.2021 128.48C59.6608 128.213 60.0235 127.835 60.2901 127.344C60.5568 126.843 60.6901 126.261 60.6901 125.6ZM72.6226 125.28C72.6226 125.557 72.6066 125.851 72.5746 126.16H65.5666C65.62 127.024 65.9133 127.701 66.4466 128.192C66.9906 128.672 67.6466 128.912 68.4146 128.912C69.044 128.912 69.5666 128.768 69.9826 128.48C70.4093 128.181 70.708 127.787 70.8786 127.296H72.4466C72.212 128.139 71.7426 128.827 71.0386 129.36C70.3346 129.883 69.46 130.144 68.4146 130.144C67.5826 130.144 66.836 129.957 66.1746 129.584C65.524 129.211 65.012 128.683 64.6386 128C64.2653 127.307 64.0786 126.507 64.0786 125.6C64.0786 124.693 64.26 123.899 64.6226 123.216C64.9853 122.533 65.492 122.011 66.1426 121.648C66.804 121.275 67.5613 121.088 68.4146 121.088C69.2466 121.088 69.9826 121.269 70.6226 121.632C71.2626 121.995 71.7533 122.496 72.0946 123.136C72.4466 123.765 72.6226 124.48 72.6226 125.28ZM71.1186 124.976C71.1186 124.421 70.996 123.947 70.7506 123.552C70.5053 123.147 70.1693 122.843 69.7426 122.64C69.3266 122.427 68.8626 122.32 68.3506 122.32C67.6146 122.32 66.9853 122.555 66.4626 123.024C65.9506 123.493 65.6573 124.144 65.5826 124.976H71.1186Z" fill="#AFAFAF"/>
</svg>
