<svg width="48" height="48" viewBox="0 0 48 48" fill="none" xmlns="http://www.w3.org/2000/svg">
<path d="M35.0858 30.4312C34.689 30.4312 34.3011 30.3181 33.9712 30.1062C33.6413 29.8943 33.3842 29.5931 33.2324 29.2407C33.0805 28.8883 33.0408 28.5006 33.1182 28.1265C33.1956 27.7524 33.3867 27.4088 33.6672 27.1391C33.9478 26.8694 34.3053 26.6857 34.6944 26.6113C35.0835 26.5369 35.4869 26.5751 35.8535 26.7211C36.22 26.867 36.5333 27.1142 36.7538 27.4313C36.9742 27.7485 37.0919 28.1213 37.0919 28.5027C37.0918 29.0142 36.8804 29.5046 36.5042 29.8662C36.128 30.2279 35.6178 30.4311 35.0858 30.4312V30.4312ZM12.9978 30.4312C12.601 30.4312 12.2132 30.3181 11.8833 30.1062C11.5534 29.8943 11.2963 29.5931 11.1444 29.2407C10.9926 28.8883 10.9529 28.5006 11.0303 28.1265C11.1077 27.7524 11.2987 27.4088 11.5793 27.1391C11.8599 26.8694 12.2173 26.6857 12.6064 26.6113C12.9956 26.5369 13.399 26.5751 13.7655 26.7211C14.1321 26.867 14.4454 27.1142 14.6658 27.4313C14.8863 27.7485 15.0039 28.1213 15.0039 28.5027C15.0038 29.0142 14.7924 29.5046 14.4162 29.8662C14.04 30.2279 13.5298 30.4311 12.9978 30.4312V30.4312ZM35.7963 18.8604L39.8085 12.2113C39.8626 12.1202 39.8975 12.0198 39.9111 11.9157C39.9248 11.8117 39.9169 11.7061 39.888 11.605C39.859 11.5039 39.8096 11.4092 39.7425 11.3266C39.6754 11.2439 39.5919 11.1747 39.497 11.1231C39.402 11.0715 39.2974 11.0385 39.1891 11.0259C39.0808 11.0133 38.9709 11.0213 38.8659 11.0496C38.7609 11.078 38.6627 11.1259 38.577 11.1908C38.4913 11.2557 38.4198 11.3363 38.3666 11.4278L34.3126 18.1573C31.0928 16.7429 27.5923 16.0165 24.0522 16.028C20.5081 16.0197 17.0029 16.7388 13.771 18.1373L9.69612 11.4077C9.6429 11.3162 9.5714 11.2357 9.48571 11.1708C9.40002 11.1059 9.30182 11.0579 9.19678 11.0296C9.09174 11.0012 8.98193 10.9932 8.87363 11.0058C8.76533 11.0184 8.66068 11.0514 8.56571 11.103C8.47074 11.1546 8.38732 11.2238 8.32023 11.3065C8.25313 11.3892 8.20369 11.4838 8.17475 11.5849C8.14581 11.686 8.13792 11.7916 8.15156 11.8957C8.1652 11.9997 8.20011 12.1001 8.25425 12.1912L12.2455 18.8403C8.79451 20.6496 5.8674 23.2578 3.72921 26.4286C1.59102 29.5995 0.309273 33.2329 0 37H48C47.7001 33.2382 46.4265 29.6081 44.2951 26.44C42.1637 23.2719 39.2422 20.6664 35.7963 18.8604Z" fill="#CBCBCB"/>
</svg>
