<svg width="48" height="48" viewBox="0 0 48 48" fill="none" xmlns="http://www.w3.org/2000/svg">
<path d="M14.5889 5.92903C16.7848 4.20513 19.5326 3.21369 22.3277 3.01539C24.1465 2.8993 25.8864 3.50874 27.614 3.97055C33.0582 5.39233 38.5418 6.66422 44.0231 7.93838C45.5487 8.15109 46.8252 9.27795 47.4832 10.6054C48.0157 11.8531 47.3231 13.2095 46.3445 14.0268C45.2406 15.0037 44.0229 15.8476 42.8376 16.7277C41.3047 17.8205 39.8285 19.0029 38.197 19.9555C36.9547 20.3449 35.7102 20.9397 34.3718 20.8188C27.3355 20.125 20.2795 19.6292 13.2433 18.9376C9.31224 18.529 5.36654 18.3186 1.43069 17.9849C0.777498 17.9607 0.429933 17.3563 0.0234375 16.9453C0.558244 16.1425 1.18909 15.3905 2.00472 14.8464C6.21684 11.8989 10.4066 8.92008 14.5889 5.92903V5.92903Z" fill="#CBCBCB"/>
<path d="M42.8377 16.7278C44.0231 15.8477 45.2407 15.0038 46.3445 14.0269C46.8746 14.7717 47.6411 15.4801 47.6534 16.4496C47.7544 17.5136 47.0569 18.4444 46.3051 19.1312C43.2737 21.5974 40.0181 23.7858 36.8363 26.0561C34.6357 27.6858 32.4324 29.3155 30.2586 30.9767C27.7989 32.8312 24.711 34.0136 21.5758 33.8058C19.8604 33.7356 18.2092 33.1673 16.7256 32.3428C11.9123 29.6831 7.04479 27.1031 1.98767 24.9149C0.97223 24.4241 -0.178669 23.481 0.0627409 22.2382C0.326506 21.2154 1.22621 20.5481 1.96287 19.8494C6.51991 21.8224 10.9241 24.1146 15.2616 26.5108C16.6714 27.2966 18.0886 28.1308 19.6807 28.5079C22.3028 29.1221 25.1174 28.7449 27.5303 27.5867C29.4873 26.7139 31.0695 25.2582 32.7749 24.0083C34.5839 22.659 36.3805 21.2952 38.197 19.9557C39.8285 19.003 41.3048 17.8206 42.8377 16.7278V16.7278Z" fill="#CBCBCB"/>
<path d="M0.0226043 16.9453C0.4291 17.3563 0.776665 17.9607 1.42986 17.9849C5.36564 18.3186 9.31141 18.5289 13.2424 18.9376C20.2787 19.6292 27.3347 20.1249 34.3709 20.8188C35.7093 20.9397 36.9539 20.3449 38.1961 19.9555C36.3797 21.2951 34.583 22.6588 32.774 24.0081C31.0686 25.2582 29.4864 26.7137 27.5294 27.5865C25.1166 28.7448 22.302 29.122 19.6798 28.5077C18.0878 28.1305 16.6707 27.2964 15.2608 26.5106C10.9233 24.1144 6.51912 21.8222 1.96209 19.8492C0.813769 19.3366 -0.162256 18.2582 0.0226043 16.9453V16.9453Z" fill="#E2E2E2"/>
<path d="M36.8355 26.0562C40.0172 23.786 43.2729 21.5976 46.3043 19.1313C46.9058 19.8108 47.6452 20.5409 47.6526 21.5057C47.7684 22.5696 47.0611 23.4932 46.3093 24.1752C42.3242 27.4248 37.9446 30.1668 33.8707 33.3028C32.6544 34.2042 31.4459 35.1159 30.2454 36.0376C27.7857 37.8849 24.7025 39.0673 21.5725 38.8737C19.8623 38.7845 18.2059 38.2354 16.7247 37.4059C11.9089 34.7416 7.02684 32.181 1.96939 29.983C1.15111 29.5574 0.320657 28.9264 0.0643648 28.0124C-0.167389 26.6583 1.07716 25.7178 1.98665 24.915C7.0439 27.1033 11.9114 29.6832 16.7247 32.3429C18.2083 33.1675 19.8595 33.7358 21.575 33.8058C24.7101 34.0137 27.7979 32.8313 30.2577 30.9768C32.4315 29.3157 34.6348 27.686 36.8355 26.0562V26.0562Z" fill="#E2E2E2"/>
<path d="M33.871 33.3025C37.9449 30.1664 42.3245 27.4245 46.3095 24.1748C46.8665 24.8953 47.6429 25.6111 47.6306 26.5854C47.7415 27.9733 46.6101 29.0228 45.6021 29.8182C40.7299 33.5226 35.6109 36.9052 30.7904 40.6773C28.72 42.3482 26.2185 43.5642 23.5398 43.8834C21.3166 44.1567 19.0194 43.6922 17.0604 42.6382C12.1558 39.952 7.22195 37.2946 2.06345 35.1015C1.0357 34.5937 -0.161894 33.6653 0.0475048 32.3958C0.274232 31.3465 1.2033 30.6622 1.96979 29.9827C7.02717 32.1807 11.9093 34.7413 16.7251 37.4056C18.2063 38.2351 19.8627 38.7842 21.5729 38.8734C24.703 39.067 27.7861 37.8846 30.2458 36.0373C31.4462 35.1156 32.6547 34.204 33.871 33.3025V33.3025Z" fill="#AFAFAF"/>
</svg>
