<svg width="48" height="48" viewBox="0 0 48 48" fill="none" xmlns="http://www.w3.org/2000/svg">
<path d="M40.6773 4.75H16.982C16.4688 4.75 15.9766 4.95339 15.6137 5.31543C15.2508 5.67747 15.0469 6.1685 15.0469 6.6805V8.875L28.4023 13L42.6123 8.875V6.6805C42.6123 6.1685 42.4085 5.67747 42.0456 5.31543C41.6827 4.95339 41.1905 4.75 40.6773 4.75V4.75Z" fill="#AFAFAF"/>
<path d="M44.8862 25.9321C45.0881 25.2991 45.2492 24.6538 45.3686 24.0002C45.3684 23.8397 45.3259 23.682 45.2454 23.543C45.1648 23.4039 45.0491 23.2885 44.9097 23.2082L44.8918 23.1972L44.8862 23.1945L29.9485 14.7052C29.8841 14.6635 29.8173 14.6254 29.7486 14.5911C29.4629 14.4496 29.1483 14.376 28.8293 14.376C28.5104 14.376 28.1957 14.4496 27.91 14.5911C27.8414 14.6249 27.7746 14.6626 27.7102 14.7039L12.7724 23.1959L12.7669 23.1986L12.7504 23.2082C12.6107 23.2883 12.4947 23.4037 12.4139 23.5427C12.3331 23.6817 12.2904 23.8395 12.29 24.0002C12.4094 24.6538 12.5706 25.2991 12.7724 25.9321L28.6116 37.489L44.8862 25.9321Z" fill="#757575"/>
<path d="M34.3426 8.875H24.6947L21.9092 13L24.6947 17.125L34.3426 25.375H42.6122V17.125L34.3426 8.875Z" fill="#AFAFAF"/>
<path d="M15.0469 8.875H24.6948V17.125H15.0469V8.875Z" fill="#CBCBCB"/>
<path d="M34.3428 8.875H42.6124V17.125H34.3428V8.875Z" fill="#CBCBCB"/>
<path d="M34.3427 25.375L24.6948 17.125H15.0469V25.375L24.6948 33.625L39.6243 36.056L34.3427 25.375Z" fill="#AFAFAF"/>
<path d="M24.6943 17.125H34.3423V25.375H24.6943V17.125Z" fill="#CBCBCB"/>
<path d="M15.0469 25.375H24.6948V33.625H15.0469V25.375Z" fill="#AFAFAF"/>
<path d="M34.3428 25.375H42.6124V33.625H34.3428V25.375Z" fill="#CBCBCB"/>
<path opacity="0.5" d="M29.0909 36.6748L12.8369 24.8498L13.5192 23.6536C13.5192 23.6536 28.3287 32.0686 28.5548 32.1951C28.6473 32.232 28.7463 32.2496 28.8459 32.2467C28.9455 32.2439 29.0434 32.2207 29.1336 32.1786L44.2023 23.6123L44.886 24.8072L29.0909 36.6748Z" fill="#757575"/>
<path d="M44.91 24.7934L44.8907 24.8044L44.8865 24.8071L29.9488 33.2964C29.6521 33.4872 29.3113 33.5989 28.959 33.6208C28.6067 33.6428 28.2547 33.5741 27.9365 33.4215L33.1381 40.3804L44.5144 42.8513V42.8568C44.779 42.6658 44.9945 42.4149 45.143 42.1247C45.2916 41.8345 45.369 41.5133 45.3689 41.1875V24C45.369 24.1608 45.3266 24.3188 45.246 24.4581C45.1655 24.5973 45.0496 24.713 44.91 24.7934V24.7934Z" fill="#E2E2E2"/>
<path opacity="0.1" d="M45.3 41.7139L30.2176 33.1436L29.9488 33.2948C29.6523 33.4859 29.3115 33.5978 28.9592 33.62C28.6069 33.6421 28.2548 33.5737 27.9365 33.4213L33.1381 40.3802L44.5144 42.8511V42.8566C44.9002 42.5777 45.1777 42.1746 45.3 41.7153V41.7139Z" fill="#757575"/>
<path d="M12.7725 24.8112V24.7975H12.7587L12.7173 24.77C12.5856 24.6893 12.477 24.576 12.4021 24.4411C12.3272 24.3062 12.2887 24.1542 12.2901 24V41.1875C12.2897 41.4584 12.3429 41.7268 12.4467 41.9772C12.5505 42.2276 12.7028 42.4551 12.8948 42.6467C13.0868 42.8383 13.3149 42.9902 13.5659 43.0937C13.8169 43.1972 14.0859 43.2503 14.3575 43.25H43.3013C43.4735 43.2483 43.6448 43.2252 43.8112 43.1812C43.8976 43.1662 43.9812 43.1384 44.0593 43.0987C44.0886 43.0959 44.1169 43.0865 44.142 43.0712C44.2548 43.0252 44.3614 42.9652 44.459 42.8925C44.4866 42.8787 44.5004 42.8787 44.5142 42.8512L12.7725 24.8112Z" fill="#CBCBCB"/>
<path d="M3.10091 13H21.4788C21.9661 13 22.4334 13.1931 22.778 13.5368C23.1225 13.8806 23.3161 14.3468 23.3161 14.8329V33.1671C23.3161 33.6532 23.1225 34.1194 22.778 34.4632C22.4334 34.8069 21.9661 35 21.4788 35H3.10091C2.61365 35 2.14634 34.8069 1.80179 34.4632C1.45724 34.1194 1.26367 33.6532 1.26367 33.1671L1.26367 14.8329C1.26367 14.3468 1.45724 13.8806 1.80179 13.5368C2.14634 13.1931 2.61365 13 3.10091 13V13Z" fill="#AFAFAF"/>
<path d="M6.59332 20.5184C7.08151 19.4805 7.86964 18.6118 8.85645 18.0242C9.94972 17.3998 11.1945 17.0886 12.4537 17.1249C13.6197 17.0997 14.7702 17.3946 15.7795 17.9774C16.7296 18.542 17.4948 19.3699 17.982 20.3603C18.5127 21.452 18.7772 22.6534 18.7538 23.8665C18.7794 25.1337 18.507 26.3891 17.9586 27.5323C17.4608 28.558 16.6725 29.4156 15.6913 29.999C14.6424 30.6004 13.4482 30.9034 12.2387 30.8749C11.0472 30.9032 9.87067 30.605 8.83715 30.0128C7.87945 29.4473 7.10525 28.6186 6.6071 27.6258C6.07273 26.5502 5.80474 25.3624 5.82562 24.1622C5.80251 22.9053 6.06497 21.6596 6.59332 20.5184V20.5184ZM9.0053 26.3732C9.26537 27.0293 9.70645 27.5985 10.2775 28.0149C10.8593 28.4212 11.5563 28.6308 12.2663 28.613C13.0226 28.6424 13.7681 28.4257 14.3902 27.9957C14.9549 27.5795 15.3847 27.0073 15.6265 26.3498C15.8977 25.6173 16.0313 24.8412 16.0207 24.0604C16.0291 23.2722 15.9033 22.4883 15.6486 21.7422C15.4238 21.0709 15.0093 20.4788 14.455 20.0372C13.8492 19.5855 13.106 19.3558 12.3504 19.3868C11.6249 19.3685 10.9123 19.5798 10.3147 19.9904C9.73246 20.4075 9.2812 20.9812 9.01357 21.6445C8.42155 23.1653 8.41811 24.8514 9.00393 26.3745L9.0053 26.3732Z" fill="white"/>
</svg>
