<svg width="96" height="48" viewBox="0 0 96 48" fill="none" xmlns="http://www.w3.org/2000/svg">
<g clip-path="url(#clip0_369_1795)">
<path fill-rule="evenodd" clip-rule="evenodd" d="M87.5874 24.1996C87.5044 24.0289 87.4671 23.9431 87.4224 23.8611C86.2227 21.6638 85.0261 19.4665 83.8141 17.2692C83.6925 17.0489 83.708 16.9189 83.8742 16.7288C85.7832 14.582 87.6676 12.4233 89.5797 10.2854C89.6472 10.21 89.7074 10.1302 89.7327 9.99564C89.1775 10.1349 88.6224 10.2727 88.0642 10.4143C85.7604 11.0022 83.4381 11.5872 81.1559 12.184C80.9416 12.2395 80.8444 12.1793 80.7365 12.0076C79.4288 9.90241 78.1119 7.79123 76.7889 5.71272C76.7213 5.60375 76.6476 5.49804 76.5033 5.40688C76.3972 5.96808 76.2899 6.52631 76.1856 7.08751C75.8186 9.06803 75.4516 11.0367 75.0877 13.0261C75.0479 13.2396 74.9936 13.4537 74.9745 13.6675C74.9563 13.8718 74.8468 13.9472 74.6538 14.006C71.9367 14.8285 69.2258 15.6569 66.5119 16.4854C66.3928 16.5213 66.2759 16.5688 66.148 16.6801C68.3685 17.5294 70.589 18.3786 72.8404 19.2426C72.7583 19.3053 72.704 19.354 72.6439 19.3911C71.2561 20.2552 69.8652 21.1192 68.4804 21.9863C68.3142 22.0908 68.1828 22.1056 67.9962 22.0246C66.337 21.306 64.6654 20.5993 63.0001 19.8867C62.2537 19.566 61.5845 19.1414 61.0633 18.5238C59.8821 17.1341 60.1165 15.5545 61.6893 14.5746C62.2044 14.2569 62.7903 14.0223 63.3732 13.8382C66.0348 13.0038 68.7086 12.1992 71.3609 11.3915C71.5848 11.3229 71.6878 11.2267 71.731 10.9936C72.0888 9.01013 72.4558 7.01476 72.8289 5.05502C73.0276 3.99498 73.1324 2.91119 73.6678 1.93726C73.8729 1.56312 74.1181 1.1979 74.4142 0.886122C75.4751 -0.248151 76.9523 -0.289722 78.0842 0.788729C78.4635 1.15395 78.7874 1.58153 79.068 2.02396C80.3016 3.96291 81.5167 5.91374 82.738 7.87348C82.8814 8.1042 83.0103 8.15052 83.2747 8.08341C86.2508 7.31436 89.2269 6.55719 92.2184 5.80002C92.8352 5.64354 93.4551 5.58682 94.0874 5.70055C95.4598 5.94759 96.0612 6.95359 95.5955 8.23336C95.3848 8.81535 95.0187 9.30528 94.6086 9.77146C92.5299 12.1261 90.4451 14.4927 88.3788 16.8384C88.2088 17.0308 88.2054 17.168 88.3233 17.3848C89.5692 19.6444 90.8028 21.8981 92.055 24.1845C92.3513 24.7249 92.5793 25.289 92.5854 25.9096C92.5999 27.323 91.5245 28.481 90.0658 28.6889C89.2485 28.8038 88.4898 28.6357 87.7219 28.4083C85.856 27.853 83.9902 27.3067 82.1089 26.7633C81.9352 26.7134 81.8689 26.6472 81.8378 26.4676C81.6231 25.1997 81.3875 23.9347 81.1593 22.6668C81.1534 22.6321 81.1642 22.595 81.1704 22.5172C83.3015 23.0843 85.4264 23.6426 87.6161 24.2275" fill="#CBCBCB"/>
<path fill-rule="evenodd" clip-rule="evenodd" d="M83.8866 42.7579C82.2027 42.7555 80.525 42.7475 78.8287 42.7546C78.6058 42.7546 78.4802 42.6931 78.3569 42.5108C76.3646 39.589 74.3476 36.6613 72.3738 33.7514C72.31 33.6587 72.2424 33.5694 72.1292 33.4129C71.7005 36.5603 71.278 39.6484 70.8555 42.7365H66.4453C66.4971 42.3237 66.5431 41.9229 66.5974 41.525C67.026 38.3479 67.4609 35.2004 67.8927 32.0232C68.3059 28.9946 68.7161 25.9659 69.1355 22.9372C69.1476 22.8478 69.2102 22.7329 69.286 22.6854C70.8034 21.7322 72.3269 20.788 73.8504 19.8438C73.8723 19.8298 73.9035 19.8286 73.9818 19.8066C73.5223 23.1916 73.0659 26.547 72.6063 29.9023C72.6245 29.9138 72.6424 29.9266 72.6606 29.9382C75.0508 27.3905 77.4409 24.831 79.8773 22.2477C79.9473 22.6397 80.0087 22.9752 80.0688 23.3107C80.24 24.2698 80.405 25.2348 80.5869 26.1939C80.6243 26.3875 80.57 26.5057 80.4364 26.6423C78.8913 28.1982 77.3524 29.76 75.8104 31.3338C75.7428 31.4024 75.679 31.473 75.6019 31.5544C75.6512 31.6295 75.6935 31.7029 75.7428 31.77C78.3982 35.3628 81.0474 38.9557 83.6997 42.5485C83.7478 42.6136 83.8175 42.6646 83.8767 42.7225V42.7792" fill="#AFAFAF"/>
<path fill-rule="evenodd" clip-rule="evenodd" d="M31.7657 33.2561C31.6982 32.9265 31.65 32.4395 31.4971 31.9852C30.7569 29.7909 28.4223 28.6002 26.0074 29.1317C23.3521 29.7256 21.443 31.7358 21.1963 34.3577C20.9928 36.2877 22.0722 38.1584 24.0768 38.8413C25.6929 39.4025 27.2534 39.168 28.7029 38.3336C30.6181 37.229 31.6544 35.587 31.787 33.2561H31.7657ZM20.108 41.4217C19.9778 42.3659 19.8526 43.2537 19.7317 44.1445C19.5704 45.3263 19.4079 46.5111 19.2537 47.7077C19.2358 47.8458 19.1923 47.9072 19.0381 47.906C17.8261 47.9016 16.614 47.9028 15.3989 47.9004C15.3712 47.9004 15.3434 47.8864 15.2783 47.868C15.3517 47.3098 15.423 46.7486 15.4988 46.1904C15.7662 44.2306 16.0324 42.2709 16.3038 40.3112C16.6153 38.0664 16.8589 35.8275 17.2567 33.6005C17.9599 29.6514 21.4511 26.2664 25.522 25.4053C27.8875 24.9123 30.1481 25.1407 32.2144 26.4237C34.2746 27.7005 35.4527 29.5712 35.7302 31.8872C36.1127 35.1832 34.8513 37.9149 32.4303 40.2013C30.8328 41.6889 28.9145 42.6331 26.7248 42.9538C24.4518 43.2834 22.3146 42.9191 20.4025 41.6295C20.3325 41.582 20.2566 41.5404 20.1363 41.4674" fill="#AFAFAF"/>
<path fill-rule="evenodd" clip-rule="evenodd" d="M18.0726 22.7152C16.7156 23.6891 15.4049 24.6274 14.0941 25.5687C13.8823 25.248 13.6932 24.9273 13.4712 24.6274C12.9006 23.8584 12.1913 23.2853 11.1612 23.217C10.3038 23.1588 9.56983 23.4302 8.98694 24.0395C8.46574 24.5829 8.39789 25.3579 8.88455 25.9725C9.42118 26.6495 10.0071 27.2909 10.6085 27.9174C11.6047 28.9567 12.644 29.9544 13.6309 31.0055C14.5284 31.9557 15.247 33.0187 15.469 34.3311C15.733 35.8751 15.4126 37.3301 14.6548 38.696C13.2516 41.205 11.0465 42.6748 8.11662 43.1202C6.82749 43.3207 5.54452 43.2815 4.29239 42.9252C2.62392 42.453 1.46123 41.3989 0.714884 39.9262C0.451197 39.4006 0.249191 38.8453 0.0117188 38.2812C1.47048 37.5299 2.89223 36.7965 4.3294 36.0572C4.37874 36.1721 4.41483 36.2683 4.46078 36.36C4.70658 36.8321 4.90797 37.334 5.21021 37.7704C6.11383 39.0621 7.56951 39.454 9.03444 38.8156C9.41378 38.6508 9.78078 38.4207 10.0923 38.1535C11.0422 37.3399 11.221 36.2056 10.5179 35.1842C10.1139 34.5963 9.60807 34.0677 9.11462 33.5422C7.93651 32.2832 6.70906 31.0628 5.56796 29.7711C4.77535 28.8863 4.23564 27.8589 4.06294 26.6831C3.87635 25.3885 4.14497 24.171 4.8432 23.0902C6.57953 20.3852 9.0992 18.9926 12.43 19.0817C14.3328 19.1479 15.8533 20.0051 17.0252 21.4304C17.3737 21.852 17.7006 22.2885 18.0553 22.7458" fill="#AFAFAF"/>
<path fill-rule="evenodd" clip-rule="evenodd" d="M50.2704 37.1163C50.0487 38.7465 49.8386 40.2935 49.6228 41.8375C49.6107 41.9165 49.5469 42.0231 49.4781 42.0534C46.1782 43.5202 41.8605 43.3153 39.1774 40.3639C37.7279 38.7782 37.1203 36.8898 37.2097 34.8113C37.4204 29.9713 41.5891 25.7252 46.5853 25.1313C49.4997 24.7869 52.0441 25.5441 54.0179 27.7265C55.3625 29.2112 55.9855 30.9927 55.893 32.9525C55.8328 34.2471 55.6219 35.5328 55.455 36.8126C55.2176 38.6357 54.9585 40.4648 54.7087 42.2761C54.6991 42.3396 54.6859 42.4047 54.6701 42.4872H50.7534C50.8052 42.0685 50.8533 41.6588 50.9088 41.249C51.1932 39.1438 51.5071 37.0326 51.7569 34.9244C51.9124 33.612 51.8146 32.3084 51.1895 31.094C50.5264 29.8023 49.4161 29.1164 47.9512 28.968C44.9227 28.6592 42.0298 30.6842 41.413 33.5407C40.9874 35.4351 41.6588 37.2523 43.2264 38.2619C44.753 39.2388 46.3722 39.2418 48.0376 38.6093C48.8826 38.2886 49.5981 37.7779 50.2828 37.092" fill="#AFAFAF"/>
<path fill-rule="evenodd" clip-rule="evenodd" d="M66.9245 25.625C66.745 26.9375 66.5667 28.2291 66.3878 29.5445C65.5551 29.5445 64.741 29.5401 63.9268 29.5457C63.2668 29.5505 62.6654 29.9614 62.4649 30.5553C62.3878 30.7872 62.3591 31.0363 62.3252 31.2798C61.9119 34.3085 61.5018 37.3075 61.0916 40.3065C60.988 41.0666 60.888 41.8267 60.7844 42.5988H56.6826C56.7585 42.0198 56.8307 41.4585 56.9065 40.8974C57.1727 38.9435 57.4401 36.9779 57.7084 35.0478C57.9409 33.3583 58.1494 31.6628 58.4239 29.9703C58.7909 27.7136 61.1224 25.6945 63.4817 25.6054C64.6105 25.5579 65.7423 25.5974 66.905 25.5974" fill="#AFAFAF"/>
<path d="M88.8209 42.758V41.0952H88.8113L88.1328 42.758H87.9172L87.2387 41.0952H87.2279V42.758H86.8887V40.7656H87.4161L88.0329 42.28L88.6404 40.7656H89.1647V42.758H88.8209ZM85.817 41.0329V42.758H85.4777V41.0329H84.8301V40.7659H86.4677V41.0329H85.8201" fill="#AFAFAF"/>
<path d="M23.5313 19.9238H24.546L24.306 18.4451L23.5313 19.9238ZM24.7064 20.88H23.0194L22.4827 21.8925H21.2861L23.923 17.1416H25.0764L25.9739 21.8925H24.8667L24.7076 20.88" fill="#AFAFAF"/>
<path d="M30.7485 18.113H30.1471L29.9448 19.2086H30.5462C30.9101 19.2086 31.197 18.9791 31.197 18.5465C31.197 18.26 31.0162 18.113 30.7467 18.113H30.7485ZM29.2929 17.1569H30.8719C31.6984 17.1569 32.2751 17.6319 32.2751 18.4455C32.2751 19.4729 31.5226 20.1618 30.4494 20.1618H29.7678L29.4471 21.8988H28.417L29.2867 17.1479" fill="#AFAFAF"/>
<path d="M35.7746 19.9238H36.7893L36.5497 18.4451L35.7746 19.9238ZM36.9466 20.88H35.2596L34.723 21.8925H33.5264L36.1632 17.1416H37.3167L38.2141 21.8925H37.107L36.9478 20.88" fill="#AFAFAF"/>
<path d="M43.4853 21.7352C43.1368 21.8884 42.7544 21.9799 42.3689 21.9799C41.0643 21.9799 40.2471 21.0386 40.2471 19.8598C40.2471 18.3514 41.564 17.0835 43.1307 17.0835C43.5223 17.0835 43.877 17.1741 44.1669 17.327L44.0223 18.4642C43.8055 18.2335 43.4548 18.0723 43.023 18.0723C42.1256 18.0723 41.3268 18.8532 41.3268 19.7588C41.3268 20.4477 41.7771 20.9881 42.4864 20.9881C42.9213 20.9881 43.3407 20.8269 43.6244 20.6051L43.4872 21.7334" fill="#AFAFAF"/>
<path d="M49.9613 19.9832H47.8179L47.4694 21.8925H46.4424L47.3121 17.1416H48.3422L47.9968 19.0182H50.1402L50.4887 17.1416H51.5187L50.649 21.8925H49.619L49.9644 19.9832" fill="#AFAFAF"/>
<path d="M53.6631 21.8837L54.5328 17.1328H57.2653L57.0916 18.0889H55.3892L55.2156 19.0094H56.7792L56.6056 19.9655H55.042L54.8683 20.9216H56.5707L56.3971 21.8778H53.6646" fill="#AFAFAF"/>
</g>
<defs>
<clipPath id="clip0_369_1795">
<rect width="96" height="48" fill="white"/>
</clipPath>
</defs>
</svg>
