<svg width="48" height="48" viewBox="0 0 48 48" fill="none" xmlns="http://www.w3.org/2000/svg">
<path d="M1.47949 23.9998V1.479H46.5212V46.5207H1.47949" fill="#CBCBCB"/>
<path d="M11.3545 24.0788V25.9142H17.2099V42.5797H21.365V25.9142H27.2204V24.1126C27.2204 23.0991 27.2204 22.2771 27.1754 22.2546C27.1754 22.2208 23.6058 22.2096 19.2706 22.2096L11.3883 22.2433V24.09L11.3545 24.0788V24.0788ZM37.6701 22.1983C38.8186 22.4685 39.697 22.9865 40.4852 23.8085C40.9018 24.259 41.5211 25.0472 41.5662 25.2499C41.5662 25.3174 39.6181 26.6349 38.4358 27.3668C38.3908 27.4006 38.2106 27.2092 38.0304 26.9164C37.4449 26.0831 36.8481 25.7228 35.9135 25.6552C34.5622 25.5652 33.6614 26.2746 33.6614 27.4569C33.6614 27.8172 33.7289 28.0199 33.8641 28.3127C34.1681 28.932 34.7311 29.3036 36.4765 30.0693C39.697 31.4544 41.0933 32.3665 41.9378 33.6727C42.8949 35.1365 43.1089 37.4336 42.467 39.1565C41.7464 41.037 39.9897 42.3094 37.4787 42.726C36.6904 42.8612 34.8888 42.8386 34.0442 42.6923C32.2426 42.3544 30.5197 41.4536 29.4612 40.2938C29.0446 39.8434 28.2451 38.6385 28.2902 38.5597L28.7181 38.2894L30.4071 37.3098L31.6795 36.5666L31.9723 36.9607C32.3439 37.5462 33.1772 38.3345 33.6614 38.6047C35.1252 39.3592 37.0845 39.2578 38.0529 38.3795C38.4696 37.9967 38.6497 37.5913 38.6497 37.0283C38.6497 36.5103 38.5709 36.2738 38.3119 35.8797C37.9516 35.3842 37.2309 34.9789 35.2041 34.078C32.8731 33.0871 31.8822 32.4565 30.9589 31.4881C30.4296 30.9026 29.9454 29.9905 29.7202 29.2361C29.5513 28.583 29.495 26.984 29.6527 26.3421C30.1369 24.09 31.8372 22.5136 34.2694 22.0632C35.0577 21.9055 36.9156 21.9731 37.6926 22.1758L37.6701 22.1983V22.1983Z" fill="white"/>
</svg>
