<svg width="64" height="64" viewBox="0 0 64 64" fill="none" xmlns="http://www.w3.org/2000/svg">
<circle cx="32" cy="32" r="32" fill="#FFE603"/>
<path d="M29.4011 23.2858C29.0067 23.6723 29.0002 24.3054 29.3868 24.6999C29.7733 25.0944 30.4065 25.1008 30.8009 24.7142L29.4011 23.2858ZM39.2857 33.1991C38.8992 33.5936 38.9056 34.2267 39.3 34.6133C39.6945 34.9998 40.3276 34.9934 40.7142 34.599L39.2857 33.1991ZM26.9453 32.1679C26.4858 32.4743 26.3616 33.0952 26.6679 33.5547C26.9743 34.0142 27.5952 34.1384 28.0547 33.8321L26.9453 32.1679ZM29 32H30C30 31.6312 29.797 31.2923 29.4719 31.1183C29.1467 30.9443 28.7522 30.9634 28.4453 31.1679L29 32ZM28 37.5C28 38.0523 28.4477 38.5 29 38.5C29.5523 38.5 30 38.0523 30 37.5H28ZM27.5 36.5C26.9477 36.5 26.5 36.9477 26.5 37.5C26.5 38.0523 26.9477 38.5 27.5 38.5V36.5ZM30.5 38.5C31.0523 38.5 31.5 38.0523 31.5 37.5C31.5 36.9477 31.0523 36.5 30.5 36.5V38.5ZM43 29C43 24.5817 39.4183 21 35 21V23C38.3137 23 41 25.6863 41 29H43ZM35 21C32.8206 21 30.843 21.8728 29.4011 23.2858L30.8009 24.7142C31.8841 23.6528 33.3648 23 35 23V21ZM40.7142 34.599C42.1271 33.1571 43 31.1795 43 29H41C41 30.6352 40.3472 32.1159 39.2857 33.1991L40.7142 34.599ZM35 35C35 38.3137 32.3137 41 29 41V43C33.4183 43 37 39.4183 37 35H35ZM29 41C25.6863 41 23 38.3137 23 35H21C21 39.4183 24.5817 43 29 43V41ZM23 35C23 31.6863 25.6863 29 29 29V27C24.5817 27 21 30.5817 21 35H23ZM29 29C32.3137 29 35 31.6863 35 35H37C37 30.5817 33.4183 27 29 27V29ZM28.0547 33.8321L29.5547 32.8321L28.4453 31.1679L26.9453 32.1679L28.0547 33.8321ZM28 32V37.5H30V32H28ZM27.5 38.5H30.5V36.5H27.5V38.5Z" fill="#171717"/>
</svg>
