<svg width="64" height="64" viewBox="0 0 64 64" fill="none" xmlns="http://www.w3.org/2000/svg">
<circle cx="32" cy="32" r="32" fill="#FFE603"/>
<path d="M29.5 34.6667C29.5 34.1144 29.0523 33.6667 28.5 33.6667C27.9477 33.6667 27.5 34.1144 27.5 34.6667H29.5ZM34.5 29.3333C34.5 29.8856 34.9477 30.3333 35.5 30.3333C36.0523 30.3333 36.5 29.8856 36.5 29.3333H34.5ZM33 25.5C33 24.9477 32.5523 24.5 32 24.5C31.4477 24.5 31 24.9477 31 25.5H33ZM31 27C31 27.5523 31.4477 28 32 28C32.5523 28 33 27.5523 33 27H31ZM33 37C33 36.4477 32.5523 36 32 36C31.4477 36 31 36.4477 31 37H33ZM31 38.5C31 39.0523 31.4477 39.5 32 39.5C32.5523 39.5 33 39.0523 33 38.5H31ZM33.1667 26H31V28H33.1667V26ZM31 33H33V31H31V33ZM33 36H30.8333V38H33V36ZM30.8333 36C30.097 36 29.5 35.403 29.5 34.6667H27.5C27.5 36.5076 28.9924 38 30.8333 38V36ZM34.5 34.5C34.5 35.3284 33.8284 36 33 36V38C34.933 38 36.5 36.433 36.5 34.5H34.5ZM33 33C33.8284 33 34.5 33.6716 34.5 34.5H36.5C36.5 32.567 34.933 31 33 31V33ZM27.5 29.5C27.5 31.433 29.067 33 31 33V31C30.1716 31 29.5 30.3284 29.5 29.5H27.5ZM31 26C29.067 26 27.5 27.567 27.5 29.5H29.5C29.5 28.6716 30.1716 28 31 28V26ZM36.5 29.3333C36.5 27.4924 35.0076 26 33.1667 26V28C33.903 28 34.5 28.597 34.5 29.3333H36.5ZM31 25.5V27H33V25.5H31ZM31 37V38.5H33V37H31ZM41 32C41 36.9706 36.9706 41 32 41V43C38.0751 43 43 38.0751 43 32H41ZM32 41C27.0294 41 23 36.9706 23 32H21C21 38.0751 25.9249 43 32 43V41ZM23 32C23 27.0294 27.0294 23 32 23V21C25.9249 21 21 25.9249 21 32H23ZM32 23C36.9706 23 41 27.0294 41 32H43C43 25.9249 38.0751 21 32 21V23Z" fill="#171717"/>
</svg>
