<?xml version="1.0" encoding="utf-8"?>
<!-- Generator: Adobe Illustrator 23.0.1, SVG Export Plug-In . SVG Version: 6.00 Build 0)  -->
<svg version="1.1" id="Isolation_Mode" xmlns="http://www.w3.org/2000/svg" xmlns:xlink="http://www.w3.org/1999/xlink" x="0px"
	 y="0px" viewBox="0 0 800 800" style="enable-background:new 0 0 800 800;" xml:space="preserve">
<style type="text/css">
	.st0{fill:#FFFFFF;stroke:#212121;stroke-width:4;stroke-linecap:round;stroke-linejoin:round;}
	.st1{fill:none;stroke:#212121;stroke-width:2;stroke-linecap:round;stroke-linejoin:round;}
	.st2{fill:none;}
	.st3{fill:none;stroke:#212121;stroke-width:4;stroke-linecap:round;stroke-linejoin:round;}
</style>
<title>icon_isometr</title>
<polygon class="st0" points="374,530 321.9,500 374,470 " />
<path class="st0" d="M573,245.3l-43-24.8l-0.2-0.1l-0.2-0.1l0,0c-21.6-12.5-48.1-12.4-69.7,0.1l-190.7,110
	c-37.2,21.4-60.1,61.1-60.1,104v9.5c-0.1,25.2,13.4,48.4,35.3,60.8l0,0l43.4,25l8.3-17.8c6.3-1.6,12.4-4.1,18-7.4l190.7-109.9
	c37.2-21.4,60.1-61.1,60.1-104v-9.5c0-9.6-1.9-19.1-5.7-27.9L573,245.3z" />
<path class="st0" d="M559.2,253.3c3.8,8.8,5.7,18.3,5.7,27.9v9.5c0,42.9-22.9,82.6-60.1,104L314.1,504.5c-5.6,3.3-11.7,5.7-18,7.4
	l-8.3,17.8l-43.4-25c-21.9-12.4-35.4-35.6-35.3-60.8v-9.5c0-42.9,22.9-82.6,60.1-104l190.7-109.9c10.6-6.2,22.6-9.4,34.9-9.4
	c12.2,0,24.2,3.2,34.8,9.3l0.2,0.1l0.2,0.1l43,24.8L559.2,253.3z" />
<path class="st1" d="M503.3,245.5L312.6,355.4c-37.2,21.4-60.1,61.1-60.1,104v9.5c0,53.9,58.3,87.6,105,60.6l190.7-109.9
	c37.2-21.4,60.1-61.1,60.1-104v-9.5C608.2,252.3,550,218.6,503.3,245.5z" />
<path class="st0" d="M503.3,245.5L312.6,355.4c-37.2,21.4-60.1,61.1-60.1,104v9.5c0,53.9,58.3,87.6,105,60.6l7.9-4.5l52.1,30v-60
	l130.8-75.4c37.2-21.4,60.1-61.1,60.1-104v-9.5C608.2,252.3,550,218.6,503.3,245.5z" />
<path class="st1" d="M510.3,257.6c8.4-5,18.1-7.6,27.9-7.6c27,0,56.1,21.5,56.1,56.1" />
<line class="st1" x1="530.1" y1="389.5" x2="518.9" y2="386.5" />
<line class="st1" x1="530.2" y1="398.5" x2="508.3" y2="392.6" />
<line class="st1" x1="530.2" y1="407.4" x2="497.7" y2="398.7" />
<line class="st1" x1="530.2" y1="416.4" x2="487.1" y2="404.8" />
<line class="st1" x1="530.2" y1="425.4" x2="476.5" y2="411" />
<path class="st1" d="M466.7,417.3L466.7,417.3L525,433" />
<line class="st1" x1="514.4" y1="439.1" x2="461.9" y2="425" />
<line class="st1" x1="503.8" y1="445.2" x2="460.7" y2="433.6" />
<polyline class="st1" points="460.7,442.6 493.1,451.3 493.1,451.3 " />
<line class="st1" x1="482.5" y1="457.4" x2="460.7" y2="451.6" />
<line class="st1" x1="471.9" y1="463.6" x2="460.7" y2="460.6" />
<line class="st1" x1="461.3" y1="469.7" x2="460.7" y2="469.5" />
<path class="st2" d="M530.2,390.4V430l-69.4,40v-38.4c0-7.1,3.8-13.8,10-17.3l50.4-29c2.9-1.7,6.5-0.7,8.2,2.2
	C529.9,388.3,530.2,389.3,530.2,390.4z" />
<path class="st1" d="M350.5,517.4c-8.4,5-18,7.6-27.8,7.6l0,0c-27,0-56.1-21.5-56.1-56.1v-9.5c0.1-37.9,20.3-72.9,53.1-91.8" />
<path class="st0" d="M556.2,450v-51.1l14.7-8.5l-17.4-10l0,0c-1.9-1.3-4.3-1.4-6.3-0.2l-47.4,27.3c-8,4.6-13,13.2-13,22.5v64.6
	c0,2.3,1.3,4.4,3.4,5.4l0,0l17.4,10l54.7-31.5l-15.1-8.7C552.9,464.8,556.2,457.6,556.2,450z" />
<path class="st0" d="M560.5,482.5l-47.4,27.3c-2.9,1.7-6.5,0.7-8.2-2.2c-0.5-0.9-0.8-1.9-0.8-3V440c0-9.3,5-17.9,13-22.5l47.4-27.3
	c2.9-1.7,6.5-0.7,8.2,2.2c0.5,0.9,0.8,1.9,0.8,3V460C573.5,469.3,568.6,477.9,560.5,482.5z" />
<polygon class="st3" points="200.4,330 330.6,265 217.8,340 " />
<line class="st3" x1="488.8" y1="420" x2="500.8" y2="426.9" />
<line class="st3" x1="482" y1="212.2" x2="525.4" y2="237.2" />
<line class="st3" x1="497.4" y1="211.1" x2="540.7" y2="236.1" />
<line class="st3" x1="219.7" y1="481.1" x2="263.1" y2="506.1" />
<line class="st3" x1="213" y1="467.3" x2="256.4" y2="492.3" />
<line class="st1" x1="316.6" y1="307.6" x2="311.3" y2="306.1" />
<line class="st1" x1="311.4" y1="315.1" x2="300.6" y2="312.2" />
<line class="st1" x1="306.2" y1="322.7" x2="290" y2="318.4" />
<polyline class="st1" points="279.4,324.5 279.4,324.5 300.9,330.2 " />
<line class="st1" x1="295.7" y1="337.8" x2="268.8" y2="330.6" />
<line class="st1" x1="290.4" y1="345.4" x2="259" y2="336.9" />
<line class="st1" x1="285.2" y1="352.9" x2="250.6" y2="343.6" />
<line class="st1" x1="279.9" y1="360.5" x2="243.1" y2="350.6" />
<line class="st1" x1="274.7" y1="368.1" x2="236.7" y2="357.8" />
<polyline class="st1" points="231,365.3 231,365.3 269.4,375.6 " />
<line class="st1" x1="264.2" y1="383.2" x2="226" y2="372.9" />
<line class="st1" x1="258.9" y1="390.7" x2="221.8" y2="380.8" />
<line class="st1" x1="253.7" y1="398.3" x2="245.9" y2="396.2" />
<path class="st2" d="M321.9,300l-5.3,7.6l-5.2,7.6l-21,30.2l-5.2,7.6l-5.3,7.6l-5.2,7.6l-5.2,7.6l-15.8,22.7l-1.2,1.7l-6.6-3.8
	l-18.5-10.7l-4.9,4.4l-7.4,6.7c0.9-2.7,1.9-5.3,2.9-7.9c1.1-2.7,2.3-5.4,3.6-8s2.7-5.2,4.3-7.8c1.5-2.6,3.2-5.2,4.9-7.6l0,0
	c1.8-2.6,3.7-5,5.7-7.5s4.2-4.8,6.5-7.2c2.4-2.4,4.8-4.8,7.4-7c2.7-2.4,5.5-4.6,8.5-6.7c3.2-2.3,6.4-4.4,9.8-6.4l0.4-0.2l10.2-5.9
	l0,0l10.6-6.1l10.6-6.1l10.6-6.1L321.9,300L321.9,300z" />
<path class="st1" d="M395.7,346.8L395.7,346.8l29.3,7.9" />
<polyline class="st1" points="382.8,352.3 382.8,352.3 430.6,365.1 " />
<line class="st1" x1="432.5" y1="374.6" x2="373.4" y2="358.7" />
<line class="st1" x1="432.8" y1="383.6" x2="365.6" y2="365.6" />
<line class="st1" x1="432" y1="392.4" x2="359" y2="372.8" />
<line class="st1" x1="430.2" y1="400.9" x2="353.2" y2="380.2" />
<line class="st1" x1="427.8" y1="409.2" x2="348.2" y2="387.8" />
<line class="st1" x1="424.6" y1="417.4" x2="343.9" y2="395.6" />
<line class="st1" x1="420.9" y1="425.3" x2="340.2" y2="403.6" />
<polyline class="st1" points="337.2,411.8 337.2,411.8 416.5,433.1 " />
<line class="st1" x1="411.4" y1="440.7" x2="334.8" y2="420.1" />
<line class="st1" x1="405.5" y1="448.1" x2="333.2" y2="428.6" />
<line class="st1" x1="398.8" y1="455.3" x2="332.4" y2="437.4" />
<line class="st1" x1="390.9" y1="462.1" x2="332.9" y2="446.5" />
<line class="st1" x1="381.2" y1="468.5" x2="335.1" y2="456.1" />
<polyline class="st1" points="341.5,466.8 341.5,466.8 367.4,473.7 " />
<ellipse transform="matrix(0.5047 -0.8633 0.8633 0.5047 -164.3768 533.4293)" class="st2" cx="382.7" cy="410" rx="70.8" ry="40.9" />
<path class="st0" d="M575.5,150c0,0-25.6-14.8-26-15l0,0c-3.6-1.8-7.8-1.7-11.3,0.4l-128.9,74.2c-11.1,6.4-18,18.3-18,31.2v108.4
	c0,4.6,2.6,8.7,6.6,10.8l0,0l26,15L575.5,150z" />
<polygon class="st0" points="209.1,375 200.4,330 330.6,265 " />
<polygon class="st0" points="330.6,265 157,305 261.2,365 " />
<line class="st1" x1="261.2" y1="355" x2="295.9" y2="305" />
<polygon class="st0" points="209.1,375 217.8,340 330.6,265 200.4,330 " />
<polygon class="st0" points="495.5,300 530.2,320 530.2,350 495.5,330 " />
<path class="st0" d="M564.2,150.4l-128.8,74.2c-11.1,6.4-18,18.3-18,31.2v108.4c0,6.6,5.4,12,12,12c2.1,0,4.2-0.6,6-1.6l128.8-74.2
	c11.1-6.4,18-18.3,18-31.2V160.8c0-6.6-5.4-12-12-12C568.1,148.8,566,149.3,564.2,150.4z" />
<path class="st0" d="M564.2,150.4l-128.8,74.2c-11.1,6.4-18,18.3-18,31.2v108.4c0,6.6,5.4,12,12,12c2.1,0,4.2-0.6,6-1.6l94.8-54.6
	v30l26-45l8-4.6c11.1-6.4,18-18.3,18-31.2V160.8c0-6.6-5.4-12-12-12C568,148.8,566,149.3,564.2,150.4z" />
<path class="st0" d="M517.7,251.7l-8.7-5l0,0l-0.1-0.1l0,0c-2.4-1.3-5.5-1.1-9.1,1c-7.2,4.1-13,14.2-13,22.4c0,4.2,1.5,7.1,3.9,8.4
	l0,0l8.8,5.1L517.7,251.7z" />
<path class="st0" d="M552.4,231.7l-8.7-5l0,0h-0.1l0,0c-2.3-1.3-5.5-1.1-9.1,1c-7.2,4.1-13,14.2-13,22.4c0,4.2,1.5,7.1,3.9,8.4l0,0
	l8.8,5.1L552.4,231.7z" />
<line class="st3" x1="396.2" y1="222.8" x2="417.4" y2="235" />
<ellipse transform="matrix(0.505 -0.8631 0.8631 0.505 55.1863 591.3858)" class="st0" cx="543.2" cy="247.6" rx="18.3" ry="10.6" />
<path class="st0" d="M470.9,344.1l-26.1-15l0,0c-9.1-5.6-22-5-36.2,3.2c-27.7,16-50.2,54.8-50.2,86.6c0,15.5,5.3,26.5,14,31.8l0,0
	l0.4,0.2l0.5,0.3l25.1,14.5L470.9,344.1z" />
<path class="st1" d="M543.2,255.5c-3.8,2.2-6.9,0.4-6.9-4" />
<ellipse transform="matrix(0.505 -0.8631 0.8631 0.505 20.7972 571.2778)" class="st0" cx="508.5" cy="267.5" rx="18.3" ry="10.6" />
<path class="st0" d="M483,271.7l-8.7-5l0,0h-0.1l0,0c-2.3-1.3-5.5-1-9.1,1c-7.2,4.1-13,14.2-13,22.4c0,4.2,1.5,7.1,3.9,8.4l0,0
	l8.8,5.1L483,271.7z" />
<path class="st1" d="M508.5,275.5c-3.8,2.2-6.9,0.4-6.9-4" />
<ellipse transform="matrix(0.505 -0.8631 0.8631 0.505 -13.6453 551.2224)" class="st0" cx="473.8" cy="287.5" rx="18.3" ry="10.6" />
<path class="st1" d="M473.8,295.5c-3.8,2.2-6.9,0.4-6.9-4" />
<ellipse transform="matrix(0.5047 -0.8633 0.8633 0.5047 -134.3352 575.8926)" class="st0" cx="434.7" cy="405" rx="70.8" ry="40.9" />
<ellipse transform="matrix(0.5047 -0.8633 0.8633 0.5047 -134.3352 575.8926)" class="st0" cx="434.7" cy="405" rx="70.8" ry="40.9" />
<path class="st1" d="M439.7,356c6.3-3.6,12.4-5.6,17.5-5.6s17.7,2.6,17.7,25.6" />
<line class="st3" x1="383" y1="355.2" x2="409.1" y2="370.2" />
<line class="st3" x1="377.9" y1="362.2" x2="403.9" y2="377.2" />
<line class="st3" x1="373.3" y1="369.6" x2="399.3" y2="384.6" />
<line class="st1" x1="408.7" y1="540" x2="408.7" y2="510" />
<line class="st3" x1="535.5" y1="136.9" x2="561.5" y2="151.9" />
<line class="st3" x1="526.8" y1="141.9" x2="552.8" y2="156.9" />
<line class="st1" x1="534.4" y1="437.6" x2="534.4" y2="447.6" />
<path class="st1" d="M568.2,157.3c0.6-0.4,1.3-0.6,2-0.6c2.2,0,4,1.8,4,4v108.5c0,10-5.3,19.2-14,24.3" />
<line class="st1" x1="425.4" y1="310.4" x2="425.4" y2="255.8" />
<path class="st3" d="M539.5,458.6l-1.4,0.8c-5,2.9-9.2-0.2-9.2-6.9v-17.9c0-6.7,4.1-14.6,9.2-17.5l1.4-0.8c5.1-2.9,9.2,0.2,9.2,6.9
	v17.9C548.7,447.9,544.6,455.7,539.5,458.6z" />
<path class="st3" d="M555,440.5c0,10.4-7.2,23-16.2,28.1s-16.2,0.9-16.2-9.4" />
<line class="st3" x1="538.8" y1="468.6" x2="538.8" y2="477.4" />
<line class="st3" x1="547.9" y1="472.1" x2="529.7" y2="482.7" />
<ellipse transform="matrix(0.5026 -0.8645 0.8645 0.5026 -105.8485 580.2482)" class="st3" cx="451.3" cy="382.1" rx="9.7" ry="5.6" />
<ellipse transform="matrix(0.5047 -0.8633 0.8633 0.5047 -144.6461 558.8488)" class="st3" cx="414.7" cy="405.5" rx="9.8" ry="5.6" />
<path class="st3" d="M452.7,406.3c1.2-0.7,2,0.1,1.7,1.6c-2.6,11.1-10.4,22.6-19.6,28s-17.1,2.8-19.6-5.3c-0.2-1.4,0.4-2.8,1.6-3.5
	L452.7,406.3z" />
</svg>
