<svg version="1.1" id="Isolation_Mode" xmlns="http://www.w3.org/2000/svg" x="0" y="0" viewBox="0 0 800 800" xml:space="preserve"><style>.st0,.st1{stroke:#212121;stroke-linecap:round;stroke-linejoin:round}.st0{fill:#fff;stroke-width:4}.st1{stroke-width:2}.st1,.st2,.st3{fill:none}.st3{stroke:#212121;stroke-width:4;stroke-linecap:round;stroke-linejoin:round}</style><path class="st0" d="m374 530-52.1-30 52.1-30z"/><path class="st0" d="m573 245.3-43-24.8-.2-.1-.2-.1h0a69.5 69.5 0 0 0-69.7.1l-190.7 110a120 120 0 0 0-60.1 104v9.5a69.5 69.5 0 0 0 35.3 60.8h0l43.4 25 8.3-17.8a69 69 0 0 0 18-7.4l190.7-109.9a120 120 0 0 0 60.1-104v-9.5c0-9.6-1.9-19.1-5.7-27.9l13.8-7.9z"/><path class="st0" d="M559.2 253.3a70.3 70.3 0 0 1 5.7 27.9v9.5a120 120 0 0 1-60.1 104L314.1 504.5a72.6 72.6 0 0 1-18 7.4l-8.3 17.8-43.4-25a69.5 69.5 0 0 1-35.3-60.8v-9.5a120 120 0 0 1 60.1-104l190.7-109.9a69 69 0 0 1 69.7-.1l.2.1.2.1 43 24.8-13.8 7.9z"/><path class="st1" d="M503.3 245.5 312.6 355.4a120 120 0 0 0-60.1 104v9.5a70 70 0 0 0 105 60.6l190.7-109.9a120 120 0 0 0 60.1-104v-9.5a70 70 0 0 0-105-60.6z"/><path class="st0" d="M503.3 245.5 312.6 355.4a120 120 0 0 0-60.1 104v9.5a70 70 0 0 0 105 60.6l7.9-4.5 52.1 30v-60l130.8-75.4a120 120 0 0 0 60.1-104v-9.5a70.1 70.1 0 0 0-105.1-60.6z"/><path class="st1" d="M510.3 257.6a56.2 56.2 0 0 1 84 48.5m-64.2 83.4-11.2-3m11.3 12-21.9-5.9m21.9 14.8-32.5-8.7m32.5 17.7-43.1-11.6m43.1 20.6L476.5 411m-9.8 6.3h0L525 433m-10.6 6.1L461.9 425m41.9 20.2-43.1-11.6m0 9 32.4 8.7h0m-10.6 6.1-21.8-5.8m11.2 12-11.2-3m.6 9.1-.6-.2"/><path class="st2" d="M530.2 390.4V430l-69.4 40v-38.4a20 20 0 0 1 10-17.3l50.4-29a6 6 0 0 1 8.2 2.2c.5.8.8 1.8.8 2.9z"/><path class="st1" d="M350.5 517.4c-8.4 5-18 7.6-27.8 7.6h0c-27 0-56.1-21.5-56.1-56.1v-9.5c.1-37.9 20.3-72.9 53.1-91.8"/><path class="st0" d="M556.2 450v-51.1l14.7-8.5-17.4-10h0a5.8 5.8 0 0 0-6.3-.2l-47.4 27.3a26 26 0 0 0-13 22.5v64.6a6 6 0 0 0 3.4 5.4h0l17.4 10 54.7-31.5-15.1-8.7c5.7-5 9-12.2 9-19.8z"/><path class="st0" d="m560.5 482.5-47.4 27.3a6 6 0 0 1-8.2-2.2c-.5-.9-.8-1.9-.8-3V440a26 26 0 0 1 13-22.5l47.4-27.3a6 6 0 0 1 8.2 2.2c.5.9.8 1.9.8 3V460c0 9.3-4.9 17.9-13 22.5z"/><path class="st3" d="m200.4 330 130.2-65-112.8 75zm288.4 90 12 6.9M482 212.2l43.4 25m-28-26.1 43.3 25m-321 245 43.4 25M213 467.3l43.4 25"/><path class="st1" d="m316.6 307.6-5.3-1.5m.1 9-10.8-2.9m5.6 10.5-16.2-4.3m-10.6 6.1h0l21.5 5.7m-5.2 7.6-26.9-7.2m21.6 14.8-31.4-8.5m26.2 16-34.6-9.3m29.3 16.9-36.8-9.9m31.6 17.5-38-10.3m-5.7 7.5h0l38.4 10.3m-5.2 7.6L226 372.9m32.9 17.8-37.1-9.9m31.9 17.5-7.8-2.1"/><path class="st2" d="m321.9 300-5.3 7.6-5.2 7.6-21 30.2-5.2 7.6-5.3 7.6-5.2 7.6-5.2 7.6-15.8 22.7-1.2 1.7-6.6-3.8-18.5-10.7-4.9 4.4-7.4 6.7a184 184 0 0 1 6.5-15.9 100.7 100.7 0 0 1 9.2-15.4 134.7 134.7 0 0 1 12.2-14.7c2.4-2.4 4.8-4.8 7.4-7a126.7 126.7 0 0 1 18.3-13.1l.4-.2 10.2-5.9 10.6-6.1 10.6-6.1 10.6-6.1 10.8-6.3z"/><path class="st1" d="M395.7 346.8h0l29.3 7.9m-42.2-2.4h0l47.8 12.8m1.9 9.5-59.1-15.9m59.4 24.9-67.2-18m66.4 26.8-73-19.6m71.2 28.1-77-20.7m74.6 29-79.6-21.4m76.4 29.6-80.7-21.8m77 29.7-80.7-21.7m-3 8.2h0l79.3 21.3m-5.1 7.6-76.6-20.6m70.7 28-72.3-19.5m65.6 26.7-66.4-17.9m58.5 24.7-58-15.6m48.3 22-46.1-12.4m6.4 10.7h0l25.9 6.9"/><ellipse transform="rotate(-59.7 382.7 410)" class="st2" cx="382.7" cy="410" rx="70.8" ry="40.9"/><path class="st0" d="m575.5 150-26-15h0a11.7 11.7 0 0 0-11.3.4l-128.9 74.2a36 36 0 0 0-18 31.2v108.4c0 4.6 2.6 8.7 6.6 10.8h0l26 15 151.6-225zM209.1 375l-8.7-45 130.2-65z"/><path class="st0" d="M330.6 265 157 305l104.2 60z"/><path class="st1" d="m261.2 355 34.7-50"/><path class="st0" d="m209.1 375 8.7-35 112.8-75-130.2 65zm286.4-75 34.7 20v30l-34.7-20z"/><path class="st0" d="m564.2 150.4-128.8 74.2a36 36 0 0 0-18 31.2v108.4a12 12 0 0 0 18 10.4l128.8-74.2a36 36 0 0 0 18-31.2V160.8a12 12 0 0 0-18-10.4z"/><path class="st0" d="m564.2 150.4-128.8 74.2a36 36 0 0 0-18 31.2v108.4a12 12 0 0 0 18 10.4l94.8-54.6v30l26-45 8-4.6a36 36 0 0 0 18-31.2V160.8a12 12 0 0 0-18-10.4z"/><path class="st0" d="m517.7 251.7-8.7-5h0l-.1-.1h0c-2.4-1.3-5.5-1.1-9.1 1a28.5 28.5 0 0 0-13 22.4c0 4.2 1.5 7.1 3.9 8.4h0l8.8 5.1 18.2-31.8zm34.7-20-8.7-5h0-.1 0c-2.3-1.3-5.5-1.1-9.1 1a28.5 28.5 0 0 0-13 22.4c0 4.2 1.5 7.1 3.9 8.4h0l8.8 5.1 18.2-31.9z"/><path class="st3" d="m396.2 222.8 21.2 12.2"/><ellipse transform="rotate(-59.7 543.2 247.6)" class="st0" cx="543.2" cy="247.6" rx="18.3" ry="10.6"/><path class="st0" d="m470.9 344.1-26.1-15h0c-9.1-5.6-22-5-36.2 3.2-27.7 16-50.2 54.8-50.2 86.6 0 15.5 5.3 26.5 14 31.8h0l.4.2.5.3 25.1 14.5 72.5-121.6z"/><path class="st1" d="M543.2 255.5c-3.8 2.2-6.9.4-6.9-4"/><ellipse transform="rotate(-59.7 508.5 267.5)" class="st0" cx="508.5" cy="267.5" rx="18.3" ry="10.6"/><path class="st0" d="m483 271.7-8.7-5h0-.1 0c-2.3-1.3-5.5-1-9.1 1a28.5 28.5 0 0 0-13 22.4c0 4.2 1.5 7.1 3.9 8.4h0l8.8 5.1 18.2-31.9z"/><path class="st1" d="M508.5 275.5c-3.8 2.2-6.9.4-6.9-4"/><ellipse transform="rotate(-59.7 473.8 287.5)" class="st0" cx="473.8" cy="287.5" rx="18.3" ry="10.6"/><path class="st1" d="M473.8 295.5c-3.8 2.2-6.9.4-6.9-4"/><ellipse transform="rotate(-59.7 434.7 405)" class="st0" cx="434.7" cy="405" rx="70.8" ry="40.9"/><ellipse transform="rotate(-59.7 434.7 405)" class="st0" cx="434.7" cy="405" rx="70.8" ry="40.9"/><path class="st1" d="M439.7 356c6.3-3.6 12.4-5.6 17.5-5.6s17.7 2.6 17.7 25.6"/><path class="st3" d="m383 355.2 26.1 15m-31.2-8 26 15m-30.6-7.6 26 15"/><path class="st1" d="M408.7 540v-30"/><path class="st3" d="m535.5 136.9 26 15m-34.7-10 26 15"/><path class="st1" d="M534.4 437.6v10m33.8-290.3c.6-.4 1.3-.6 2-.6a4 4 0 0 1 4 4v108.5c0 10-5.3 19.2-14 24.3m-134.8 16.9v-54.6"/><path class="st3" d="m539.5 458.6-1.4.8c-5 2.9-9.2-.2-9.2-6.9v-17.9c0-6.7 4.1-14.6 9.2-17.5l1.4-.8c5.1-2.9 9.2.2 9.2 6.9v17.9c0 6.8-4.1 14.6-9.2 17.5z"/><path class="st3" d="M555 440.5c0 10.4-7.2 23-16.2 28.1s-16.2.9-16.2-9.4m16.2 9.4v8.8m9.1-5.3-18.2 10.6"/><ellipse transform="rotate(-59.8 451.3 382.1)" class="st3" cx="451.3" cy="382.1" rx="9.7" ry="5.6"/><ellipse transform="rotate(-59.7 414.7 405.5)" class="st3" cx="414.7" cy="405.5" rx="9.8" ry="5.6"/><path class="st3" d="M452.7 406.3c1.2-.7 2 .1 1.7 1.6-2.6 11.1-10.4 22.6-19.6 28s-17.1 2.8-19.6-5.3c-.2-1.4.4-2.8 1.6-3.5l35.9-20.8z"/></svg>
