<svg version="1.1" id="Isolation_Mode" xmlns="http://www.w3.org/2000/svg" x="0" y="0" viewBox="0 0 800 800" xml:space="preserve"><style>.st0{fill:#fff;stroke-width:4}.st0,.st1,.st2{stroke:#212121;stroke-linecap:round;stroke-linejoin:round}.st1{fill:none;stroke-width:2}.st2{stroke-width:4}.st2,.st3{fill:none}</style><path class="st0" d="m606 247-51-30h-1 0c-14-8-34-7-56 4v-10l-51-30h-1 0c-21-12-51-10-83 9a267 267 0 0 0-117 179l-16 8c-46 26-84 92-84 145 0 26 9 45 24 54h1l51 30v-32l8-4h0l266-153h0c34-21 64-62 77-105l34 20v-85z"/><path class="st0" d="M198 552c0-54 38-119 84-146l16-7c10-69 58-145 117-179s106-14 117 44l15-11c47-26 85-5 85 48s-38 119-84 146h0L282 600h0c-47 27-84 5-84-48z"/><path class="st0" d="M198 552c0-54 38-119 84-146l16-7c10-69 58-145 117-179s106-14 117 44l15-11c47-26 85-5 85 48s-38 119-84 146h0L282 600h0c-47 27-84 5-84-48z"/><path class="st0" d="M632 301c0 54-38 119-84 146l-44 25-69 40-52 30-70 40-31 18c-14 8-26 11-38 11-27 0-46-21-46-59 0-54 38-119 84-146l16-7c10-69 58-145 117-179s106-14 117 44l15-11c47-26 85-5 85 48z"/><path class="st1" d="M214 552c0-23 8-50 22-75m78-76a249 249 0 0 1 109-167"/><path class="st2" d="m298 399-52-30m-46 204-52-30m56 42-52-30m61 46-43-25m411-334-52-30m39 32-52-30M299 390l-52-30m51 39-44-25"/><path class="st0" d="M554 110V76l-34 7-33 32v34c0 4 1 16 9 24l6 3 17 10 34-31-10-6 2-5c8-16 9-29 9-34z"/><path class="st0" d="m538 93 33-7v34a94 94 0 0 1-33 66c-4 1-16 5-25-3-8-8-9-20-9-24v-34l34-32z"/><path class="st1" d="m383 492-70 40m70-30-70 40m70-30-70 40m70-30-70 40m70-30-70 40"/><path class="st3" d="M352 469v57l-69 40v-57z"/><path class="st1" d="M463 376h0l13-7m9 5-31 17m-8 15h0l47-27m9 5-65 37m-9 15h0l83-47m8 5-99 57m-9 15h0l117-67m-24 23-69 40m69-30-69 40m69-30-69 40m69-30-69 40m69-30-69 40"/><path class="st3" d="m530 400-26 15v57l-69 40v-57l-26 15 60-105z"/><path class="st0" d="m520 83 18 10-34 32-17-10z"/><path class="st0" d="m520 83 18 10 33-7-17-10zM339 500l26 15v80l-26-15z"/><path class="st0" d="m339 500 26 15 70-40-26-15zm-26 95 26 15 26-15-26-15zm96-55 26 15 26-15-26-15z"/><path class="st0" d="m339 610 61 35 61-105-26 15v-80l-70 40v80z"/><path class="st1" d="M375 601v-80l50-29"/><path class="st0" d="m461 430 26 15v80l-26-15z"/><path class="st0" d="m582 390-60-35-61 105 26-15v80l69-40v-80z"/><path class="st1" d="m525 369 37 21-16 9"/><path class="st0" d="m496 340 26 15-62 105-25-15zm51-224-12 22-6-4-8 13 6 3 8 4 19-33z"/><path class="st2" d="m504 125-17-10m17 20-17-10m17 20-17-10m35 220-18-10m13 17-25-15m21 23-26-15M365 515l-26-15m26 25-26-15m26 25-26-15"/><path class="st1" d="m450 294-15 8m17 0-17 10m17 0-17 10m6 7h0l10-6"/><path class="st3" d="M440 292c-3 2-5 5-5 9v20a8 8 0 0 0 12 7c3-2 5-5 5-9v-20a8 8 0 0 0-12-7z"/><path class="st1" d="m363 344-15 8m17 0-17 10m17 0-17 10m6 7h0l11-6h0"/><path class="st3" d="M353 342c-3 2-5 5-5 9v20a8 8 0 0 0 12 7c3-2 5-5 5-9v-20a8 8 0 0 0-12-7z"/><path class="st0" d="m466 292-9-5h0c-3-1-6-2-8 0h0c-4 2-6 5-6 9v20c0 3 2 6 4 7h0l9 5 1-7c2-2 4-4 4-7v-4l5-18z"/><path class="st0" d="M457 292h0c-3 2-5 5-5 9v20a8 8 0 0 0 12 7h0c3-2 5-5 5-9v-20a8 8 0 0 0-12-7z"/><path class="st1" d="m454 295-9-5"/><path class="st0" d="m379 342-9-5h0c-2-1-6-2-8 0h0c-3 2-5 5-5 9v20c0 3 1 6 3 7h1l8 5 2-7c2-2 3-4 3-7v-4l5-18z"/><path class="st0" d="M371 342h0c-4 2-6 5-6 9v20a8 8 0 0 0 12 7h0c4-2 6-5 6-9v-20c0-5-4-8-8-8l-4 1z"/><path class="st1" d="m367 346-9-5"/><path class="st0" d="M420 374h0a13 13 0 0 1-20-12v-7l35-20v13c0 10-6 20-15 26z"/><path class="st2" d="m400 365 35-20"/><path class="st1" d="M414 357c6 1 11 4 14 10"/><path class="st0" d="m230 233-17-10h0c-10-6-24-6-39 3-28 16-52 57-52 89 0 16 5 27 13 32h1l4 3 13 7 3-5c7-1 13-4 18-7 29-17 52-57 52-90l-1-14 5-8z"/><ellipse transform="rotate(-60 192 295)" class="st0" cx="191.7" cy="295.4" rx="73.3" ry="42.3"/><path class="st1" d="M150 325c0-29 21-66 47-81"/><path class="st2" d="m220 227-7-4m-6 7-17-10m6 13-17-10m-8 114v-6c5 3 15 8 24 3 12-7 38-29 24-42l-7 1c-3 11-11 22-20 27-7 4-14 4-18 0l10-5v-9l-21 12h0v24l8-5z"/><path class="st0" d="M163 318v24l8 5v-24z"/><path class="st0" d="m163 318 21-12 8 5-21 12zm50-64v6c-5-4-13-3-21 2-13 7-23 22-28 36l9 5 8-4 9-19 10-4v9l21-12h0v-24l-8 5z"/><path class="st0" d="M200 276v9l9 5v-9zm12 17 7-1 9 5-7 1z"/><path class="st0" d="M222 259v6c-6-4-13-3-22 2-12 7-23 22-27 37l7-1c3-11 11-22 20-27 8-5 14-4 18 0l-9 5v9l20-12h0v-24l-7 5zm-43 83v-6c5 3 13 3 21-2 13-7 23-22 28-37l-7 1c-3 11-11 22-21 27-7 4-13 4-17 0l9-5v-9l-21 12h0v24l8-5z"/><path class="st0" d="m213 254 8-5 9 5-8 5z"/></svg>
