<?xml version="1.0" encoding="utf-8"?>
<!-- Generator: Adobe Illustrator 23.0.1, SVG Export Plug-In . SVG Version: 6.00 Build 0)  -->
<svg version="1.1" id="Isolation_Mode" xmlns="http://www.w3.org/2000/svg" xmlns:xlink="http://www.w3.org/1999/xlink" x="0px"
	 y="0px" viewBox="0 0 800 800" style="enable-background:new 0 0 800 800;" xml:space="preserve">
<style type="text/css">
	.st0{fill:#FFFFFF;stroke:#212121;stroke-width:4;stroke-linecap:round;stroke-linejoin:round;}
	.st1{fill:none;stroke:#212121;stroke-width:2;stroke-linecap:round;stroke-linejoin:round;}
	.st2{fill:none;stroke:#212121;stroke-width:4;stroke-linecap:round;stroke-linejoin:round;}
	.st3{fill:none;}
</style>
<title>icon_isometr</title>
<path class="st0" d="M606.4,247.1l-51.3-29.6l-0.7-0.4h-0.1l0,0c-14.5-8.1-34.1-7.2-55.9,4.4v-10.4l-51.6-29.7l-0.4-0.2l0,0l0,0
	c-21.5-12.1-51.1-10.1-83.8,8.8c-58.3,33.7-106.8,109.8-117,179.2c-5.4,2-10.6,4.4-15.5,7.3c-46.5,26.9-84.3,92-84.3,145.4
	c0,26.3,9.2,44.9,24,53.7l0,0l1,0.6l51,29.4v-31.4c2.6-1.2,5.2-2.6,7.9-4.1l0,0l265.8-153.4l0,0c34.9-20.3,64.8-62.1,77.5-104.3
	l33.5,19.3V247.1z" />
<path class="st0" d="M197.9,551.8c0-53.4,37.7-118.5,84.3-145.4c5-2.9,10.2-5.3,15.5-7.3c10.2-69.4,58.7-145.5,117-179.2
	s106.8-13.5,117,44.1c4.9-3.9,10.1-7.5,15.5-10.6c46.5-26.9,84.3-5.4,84.3,48s-37.6,118.2-84,145.2l0,0L281.8,600l0,0
	C235.4,626.6,197.9,605,197.9,551.8z" />
<path class="st0" d="M197.9,551.8c0-53.4,37.7-118.5,84.3-145.4c5-2.9,10.2-5.3,15.5-7.3c10.2-69.4,58.7-145.5,117-179.2
	s106.8-13.5,117,44.1c4.9-3.9,10.1-7.5,15.5-10.6c46.5-26.9,84.3-5.4,84.3,48s-37.6,118.2-84,145.2l0,0L281.8,600l0,0
	C235.4,626.6,197.9,605,197.9,551.8z" />
<path class="st0" d="M631.5,301.4c0,53.3-37.5,118.2-83.9,145.2l-43.4,25l-69.4,40.1l-52.1,30.1l-69.4,40.1L281.8,600
	c-13.5,7.7-26.2,11.4-37.5,11.4c-27.5,0-46.4-21.8-46.4-59.6c0-53.4,37.7-118.5,84.3-145.4c5-2.9,10.2-5.3,15.5-7.3
	c10.2-69.4,58.7-145.5,117-179.2s106.8-13.5,117,44.1c4.9-3.9,10.1-7.5,15.5-10.6C593.7,226.5,631.5,248,631.5,301.4z" />
<path class="st1" d="M213.9,551.8c0-23,8-49.5,22.5-74.6" />
<path class="st1" d="M313.5,401.4c4.6-31.6,18.2-65.9,38.1-96.6c20-30.9,45.3-56.1,71.1-71" />
<line class="st2" x1="297.7" y1="399.1" x2="245.6" y2="369.1" />
<line class="st2" x1="200.2" y1="573" x2="148.1" y2="543" />
<line class="st2" x1="204.2" y1="585" x2="152.1" y2="555" />
<line class="st2" x1="213.2" y1="600.5" x2="169.8" y2="575.5" />
<line class="st2" x1="580.7" y1="242" x2="528.6" y2="212" />
<line class="st2" x1="568" y1="244.3" x2="515.9" y2="214.4" />
<line class="st2" x1="299.3" y1="389.7" x2="247.2" y2="359.7" />
<line class="st2" x1="297.7" y1="399.1" x2="254.3" y2="374.1" />
<path class="st0" d="M553.8,110.1V76.3l-33.5,6.9L486.8,115v33.8c0.1,4.2,1,16.5,9,23.7c1.8,1.6,3.8,2.9,6.1,3.8l17.4,10l33.5-31.7
	l-10.3-5.9c0.8-1.4,1.5-2.8,2.3-4.3C552.8,127.7,553.7,114.5,553.8,110.1z" />
<path class="st0" d="M537.6,93.3l33.5-6.9v33.8c-0.1,4.4-1,17.6-9,34.2c-5.8,12.2-14.1,23-24.5,31.7c-3.3,1.1-15.4,4.8-24.5-3.4
	c-8.1-7.3-8.9-19.5-9-23.7V125L537.6,93.3z" />
<line class="st1" x1="382.6" y1="492.3" x2="313.2" y2="532.3" />
<line class="st1" x1="382.6" y1="502.3" x2="313.2" y2="542.3" />
<line class="st1" x1="382.6" y1="512.3" x2="313.2" y2="552.3" />
<line class="st1" x1="382.6" y1="522.3" x2="313.2" y2="562.3" />
<line class="st1" x1="382.6" y1="532.3" x2="313.2" y2="572.3" />
<polygon class="st3" points="352.1,468.8 352.1,525.5 282.7,565.6 282.7,508.8 " />
<polyline class="st1" points="463,376 463,376 475.8,368.7 " />
<line class="st1" x1="484.5" y1="373.7" x2="454.4" y2="391" />
<polyline class="st1" points="445.7,406 445.7,406 493.1,378.7 " />
<line class="st1" x1="501.8" y1="383.7" x2="437" y2="421" />
<polyline class="st1" points="428.3,436 428.4,436 510.5,388.7 " />
<line class="st1" x1="519.2" y1="393.7" x2="419.7" y2="451" />
<polyline class="st1" points="411,466 411,466 527.8,398.7 " />
<line class="st1" x1="504.1" y1="422.3" x2="434.7" y2="462.3" />
<line class="st1" x1="504.1" y1="432.3" x2="434.7" y2="472.3" />
<line class="st1" x1="504.1" y1="442.3" x2="434.7" y2="482.3" />
<line class="st1" x1="504.1" y1="452.3" x2="434.7" y2="492.3" />
<line class="st1" x1="504.1" y1="462.3" x2="434.7" y2="502.3" />
<polygon class="st3" points="530.2,400 504.1,415 504.1,471.6 434.7,511.7 434.7,455 408.7,470 469.4,365 " />
<polygon class="st0" points="520.3,83.3 537.6,93.3 504.1,125 486.8,115 " />
<polygon class="st0" points="520.3,83.3 537.6,93.3 571.1,86.3 553.8,76.3 " />
<polygon class="st0" points="339.3,500 365.3,515 365.3,595 339.3,580 " />
<polygon class="st0" points="339.3,500 365.3,515 434.7,475 408.7,460 " />
<polygon class="st0" points="313.2,595 339.3,610 365.3,595 339.3,580 " />
<polygon class="st0" points="408.7,540 434.7,555 460.7,540 434.7,525 " />
<polygon class="st0" points="339.3,610 400,645 460.7,540 434.7,555 434.7,475 365.3,515 365.3,595 " />
<polyline class="st1" points="375.3,600.8 375.3,520.8 424.7,492.3 " />
<polygon class="st0" points="460.7,430 486.8,445 486.8,525 460.7,510 " />
<polygon class="st0" points="582.2,390 521.5,355 460.7,460 486.8,445 486.8,525 556.2,485 556.2,405 " />
<polyline class="st1" points="525.1,368.6 562.2,390 546.2,399.2 " />
<polygon class="st0" points="495.8,340 521.5,355 460.4,460 434.7,445 " />
<polygon class="st0" points="546.7,116.4 534.5,137.5 528.6,134.1 521.3,146.6 527.2,150 534.5,154.1 553.9,120.6 " />
<line class="st2" x1="504.1" y1="125" x2="486.8" y2="115" />
<line class="st2" x1="504.1" y1="134.7" x2="486.8" y2="124.7" />
<line class="st2" x1="504.1" y1="145" x2="486.8" y2="135" />
<line class="st2" x1="521.5" y1="355" x2="504.1" y2="345" />
<line class="st2" x1="517.3" y1="362.3" x2="491.5" y2="347.4" />
<line class="st2" x1="512.8" y1="370" x2="487" y2="355.1" />
<line class="st2" x1="365.3" y1="515" x2="339.3" y2="500" />
<line class="st2" x1="365.3" y1="524.7" x2="339.3" y2="509.7" />
<line class="st2" x1="365.3" y1="535" x2="339.3" y2="520" />
<line class="st1" x1="450" y1="293.5" x2="434.7" y2="302.3" />
<line class="st1" x1="452.1" y1="302.3" x2="434.7" y2="312.3" />
<line class="st1" x1="452.1" y1="312.3" x2="434.8" y2="322.3" />
<polyline class="st1" points="440.7,328.9 440.7,328.9 451.3,322.8 " />
<path class="st3" d="M440.1,291.9L440.1,291.9c-3.3,1.9-5.4,5.5-5.4,9.3v20c0,4.4,3.6,8,8,8c1.4,0,2.8-0.4,4-1.1l0,0
	c3.3-1.9,5.4-5.5,5.4-9.3v-20c0-4.4-3.6-8-8-8C442.7,290.8,441.3,291.2,440.1,291.9z" />
<line class="st1" x1="363.3" y1="343.5" x2="347.9" y2="352.3" />
<line class="st1" x1="365.3" y1="352.3" x2="347.9" y2="362.3" />
<line class="st1" x1="365.3" y1="362.3" x2="348" y2="372.3" />
<polyline class="st1" points="353.9,378.9 353.9,378.9 364.5,372.8 364.5,372.8 " />
<path class="st3" d="M353.3,341.9L353.3,341.9c-3.3,1.9-5.4,5.5-5.4,9.3v20c0,4.4,3.6,8,8,8c1.4,0,2.8-0.4,4-1.1l0,0
	c3.3-1.9,5.4-5.5,5.4-9.3v-20c0-4.4-3.6-8-8-8C355.9,340.8,354.5,341.2,353.3,341.9z" />
<path class="st0" d="M465.6,292.1l-8.7-5l0,0c-2.5-1.6-5.7-1.7-8.2-0.2l0,0c-3.3,1.9-5.4,5.5-5.4,9.3v20c0,2.7,1.4,5.3,3.7,6.7l0,0
	l0.1,0.1l0.3,0.2l8.2,4.7l1.8-6.5c2-2,3.2-4.8,3.2-7.6v-4L465.6,292.1z" />
<path class="st0" d="M457.4,291.9L457.4,291.9c-3.3,1.9-5.4,5.5-5.4,9.3v20c0,4.4,3.6,8,8,8c1.4,0,2.8-0.4,4-1.1l0,0
	c3.3-1.9,5.4-5.5,5.4-9.3v-20c0-4.4-3.6-8-8-8C460,290.8,458.6,291.2,457.4,291.9z" />
<line class="st1" x1="453.7" y1="295.3" x2="445" y2="290.3" />
<path class="st0" d="M378.9,342.1l-8.7-5l0,0c-2.5-1.6-5.7-1.7-8.2-0.2l0,0c-3.3,1.9-5.4,5.5-5.4,9.3v20c0,2.7,1.4,5.3,3.7,6.7l0,0
	l0.1,0.1l0.3,0.2l8.2,4.7l1.8-6.5c2-2,3.2-4.8,3.2-7.6v-4L378.9,342.1z" />
<path class="st0" d="M370.6,341.9L370.6,341.9c-3.3,1.9-5.4,5.5-5.4,9.3v20c0,4.4,3.6,8,8,8c1.4,0,2.8-0.4,4-1.1l0,0
	c3.3-1.9,5.4-5.5,5.4-9.3v-20c0-4.4-3.6-8-8-8C373.2,340.8,371.9,341.2,370.6,341.9z" />
<line class="st1" x1="366.9" y1="345.5" x2="358.3" y2="340.5" />
<path class="st0" d="M419.7,373.7L419.7,373.7c-6.3,3.6-14.3,1.5-17.9-4.8c-1.1-2-1.7-4.2-1.7-6.5V355l34.7-20v12.7
	C434.7,358.4,429,368.3,419.7,373.7z" />
<line class="st2" x1="400" y1="365" x2="434.7" y2="345" />
<path class="st1" d="M414,357c6,0.6,11.3,4.3,14,9.7" />
<path class="st0" d="M230,233l-17.4-10l0,0c-9.5-6.4-23.1-5.9-38.3,2.8c-28.7,16.6-52,56.7-52,89.6c0,15.2,5,26.2,13.1,32l0,0h0.1
	c1.3,0.9,2.6,1.7,4,2.3l13.2,7.6l3.5-5.7c6.4-1.1,12.5-3.4,18-6.7c28.7-16.6,52-56.7,52-89.6c0-4.7-0.5-9.4-1.6-13.9L230,233z" />
<ellipse transform="matrix(0.5047 -0.8633 0.8633 0.5047 -160.0165 311.8387)" class="st0" cx="191.7" cy="295.4" rx="73.3" ry="42.3" />
<path class="st1" d="M149.8,325.4c0-29.2,21.5-66.3,47-81" />
<line class="st2" x1="220.2" y1="227.3" x2="212.7" y2="222.9" />
<line class="st2" x1="207.2" y1="229.5" x2="189.9" y2="219.5" />
<line class="st2" x1="196.1" y1="233.4" x2="178.8" y2="223.4" />
<path class="st2" d="M170.5,337.1V331c5.4,3.3,15.6,7.5,24,2.6c12.4-7.1,38.3-29.1,24.6-41.3l-7.1,0.3c-3.1,11.1-11,22.3-20.2,27.6
	c-7.2,4.2-13.6,3.8-17.5-0.2l9.2-5.3v-9l-20.7,12l0,0v23.9L170.5,337.1z" />
<polygon class="st0" points="162.7,317.8 162.7,341.6 171.4,346.6 171.4,322.8 " />
<polygon class="st0" points="162.7,317.8 183.5,305.8 192.1,310.8 171.4,322.8 " />
<path class="st0" d="M213,253.6v6.1c-5.4-3.3-12.9-3-21.3,1.9c-12.4,7.1-22.9,22-27.3,36.9l8.7,5l7.8-4.5l9.2-19.1l9.9-3.9v9
	l20.8-12l0,0v-23.9L213,253.6z" />
<polygon class="st0" points="200,276 200,285 208.7,290 208.7,281 " />
<polygon class="st0" points="212,292.6 219.1,292.3 227.7,297.3 220.6,297.6 " />
<path class="st0" d="M221.7,258.6v6.1c-5.4-3.3-12.9-3-21.3,1.9c-12.4,7.1-22.9,22-27.3,36.9l7.1-0.3c3.1-11.1,11-22.3,20.2-27.6
	c7.2-4.2,13.6-3.8,17.5,0.2l-9.2,5.3v9l20.8-12l0,0v-23.9L221.7,258.6z" />
<path class="st0" d="M179.1,342.1V336c5.4,3.3,12.9,3,21.3-1.9c12.4-7.1,22.9-22,27.3-36.9l-7.1,0.3c-3.1,11.1-11,22.3-20.2,27.6
	c-7.2,4.2-13.6,3.8-17.5-0.2l9.2-5.3v-9l-20.8,12l0,0v23.9L179.1,342.1z" />
<polygon class="st0" points="213,253.6 220.8,249.1 229.5,254.1 221.7,258.6 " />
</svg>
