<?xml version="1.0" encoding="utf-8"?>
<!-- Generator: Adobe Illustrator 23.0.1, SVG Export Plug-In . SVG Version: 6.00 Build 0)  -->
<svg version="1.1" xmlns="http://www.w3.org/2000/svg" xmlns:xlink="http://www.w3.org/1999/xlink" x="0px" y="0px"
	 viewBox="0 0 2504 2490" style="enable-background:new 0 0 2504 2490;" xml:space="preserve">
<style type="text/css">
	.st0{fill:#FFFFFF;stroke:#212121;stroke-width:12.5;stroke-linecap:round;stroke-linejoin:round;stroke-miterlimit:10;}
	.st1{clip-path:url(#SVGID_2_);}
	.st2{fill:none;stroke:#212121;stroke-width:12.5;stroke-linecap:round;stroke-linejoin:round;stroke-miterlimit:10;}
	.st3{clip-path:url(#SVGID_4_);}
	.st4{fill:none;stroke:#212121;stroke-width:6.25;stroke-linecap:round;stroke-linejoin:round;stroke-miterlimit:10;}
	.st5{fill:none;}
	.st6{fill:#FFE603;stroke:#212121;stroke-width:12.5;stroke-linecap:round;stroke-linejoin:round;stroke-miterlimit:10;}
	.st7{fill:#212121;stroke:#212121;stroke-width:9.375;stroke-linecap:round;stroke-linejoin:round;stroke-miterlimit:10;}
	.st8{clip-path:url(#SVGID_6_);}
	.st9{fill:none;stroke:#212121;stroke-width:9.375;stroke-linecap:round;stroke-linejoin:round;stroke-miterlimit:10;}
	.st10{fill:#FFFFFF;stroke:#212121;stroke-width:6.25;stroke-linecap:round;stroke-linejoin:round;stroke-miterlimit:10;}
	.st11{clip-path:url(#SVGID_8_);}

		.st12{fill:#FFFFFF;stroke:#212121;stroke-width:9.375;stroke-linecap:round;stroke-linejoin:round;stroke-miterlimit:10;stroke-dasharray:25,25;}

		.st13{fill:none;stroke:#212121;stroke-width:9.375;stroke-linecap:round;stroke-linejoin:round;stroke-miterlimit:10;stroke-dasharray:25,25;}
</style>
<g id="Layer_1">
</g>
<g id="Isolation_Mode">
	<g>
		<path class="st0" d="M778.3,558.6l-44.2,44.2l0,0c-8.9,8.9-13.4,22.3-9.7,36.3l310,1153.2c13.9,51.7,54.2,92,105.9,105.9
			l548.8,147.5c14,3.8,27.3-0.8,36.3-9.7l0,0l44.2-44.2L778.3,558.6z" />
		<path class="st0" d="M1363.3,696.4L814.5,548.9c-27.9-7.5-53.5,18-46,46l310,1153.2c13.9,51.7,54.2,92,105.9,105.9l548.8,147.5
			c27.9,7.5,53.5-18,45.9-46l-310-1153.2C1455.3,750.7,1415,710.3,1363.3,696.4z" />
		<path class="st0" d="M1360.9,751.8L859.8,617.1c-14-3.8-26.7,9-23,23L1134,1745.6c6.9,25.8,27.1,46,53,53l501.1,134.7
			c14,3.8,26.7-9,23-23L1413.8,804.8C1406.9,779,1386.7,758.8,1360.9,751.8z" />
		<path class="st0" d="M367.8,1036l298.7-276.6l67.8-67.8l44.2,44.2c3,3,4.5,7.4,3.2,12.1l-76.3,283.7
			c-4.6,17.2-18.1,30.7-35.3,35.3l-313.9,84.4c-4.7,1.3-9.1-0.3-12.1-3.2l-44.2-44.2L367.8,1036z" />
		<g>
			<defs>
				<path id="SVGID_1_" d="M367.8,1036l298.7-276.6l67.8-67.8l44.2,44.2c3,3,4.5,7.4,3.2,12.1l-76.3,283.7
					c-4.6,17.2-18.1,30.7-35.3,35.3l-313.9,84.4c-4.7,1.3-9.1-0.3-12.1-3.2l-44.2-44.2L367.8,1036z" />
			</defs>
			<clipPath id="SVGID_2_">
				<use xlink:href="#SVGID_1_"  style="overflow:visible;" />
			</clipPath>
			<g class="st1">
				<line class="st2" x1="428.7" y1="1154.8" x2="327.5" y2="1053.6" />
				<line class="st2" x1="398.1" y1="1163" x2="296.9" y2="1061.8" />
				<line class="st2" x1="367.4" y1="1171.3" x2="266.2" y2="1070.1" />
			</g>
		</g>
		<path class="st0" d="M408.3,772.7l313.9-84.4c9.3-2.5,17.8,6,15.3,15.3l-76.3,283.7c-4.6,17.2-18.1,30.7-35.3,35.3L312.1,1107
			c-9.3,2.5-17.8-6-15.3-15.3L373,808C377.6,790.8,391.1,777.4,408.3,772.7z" />
		<line class="st2" x1="692.5" y1="1053.9" x2="661.6" y2="1023" />
		<line class="st2" x1="1073.2" y1="1859.4" x2="1104.1" y2="1828.4" />
		<path class="st0" d="M723,1080.9l-44.2,44.2l0,0c-3,3-4.5,7.4-3.2,12.1l84.4,313.9c4.6,17.2,18.1,30.7,35.3,35.3l706.8,190
			c4.7,1.3,9.1-0.3,12.1-3.2l0,0l44.2-44.2L723,1080.9z" />
		<g>
			<defs>
				<path id="SVGID_3_" d="M723,1080.9l-44.2,44.2l0,0c-3,3-4.5,7.4-3.2,12.1l84.4,313.9c4.6,17.2,18.1,30.7,35.3,35.3l706.8,190
					c4.7,1.3,9.1-0.3,12.1-3.2l0,0l44.2-44.2L723,1080.9z" />
			</defs>
			<clipPath id="SVGID_4_">
				<use xlink:href="#SVGID_3_"  style="overflow:visible;" />
			</clipPath>
			<g class="st3">
				<line class="st2" x1="1409.2" y1="1700.3" x2="1510.4" y2="1599.1" />
				<line class="st2" x1="1439.9" y1="1708.5" x2="1541.1" y2="1607.3" />
				<line class="st2" x1="1470.5" y1="1716.8" x2="1571.7" y2="1615.6" />
			</g>
		</g>
		<path class="st0" d="M1441.8,1267.7l-706.8-190c-9.3-2.5-17.8,6-15.3,15.3l84.4,313.9c4.6,17.2,18.1,30.7,35.3,35.3l706.8,190
			c9.3,2.5,17.8-6,15.3-15.3l-84.4-313.9C1472.5,1285.8,1459,1272.3,1441.8,1267.7z" />
		<line class="st2" x1="772.9" y1="1473.5" x2="803.8" y2="1442.5" />
		<g>
			<path class="st2" d="M1015,1209.2l-203.3-54.8c-9.3-2.5-17.8,6-15.3,15.3l54.5,202.6c2.9,10.8,11.3,19.2,22,22.1l203.3,54.8
				c9.3,2.5,17.8-6,15.3-15.3l-54.5-202.6C1034.2,1220.5,1025.8,1212.1,1015,1209.2z" />
			<line class="st4" x1="1010.5" y1="1235.8" x2="877.8" y2="1368" />
			<line class="st4" x1="1059.2" y1="1417.2" x2="829.1" y2="1186.9" />
		</g>
		<g>
			<line class="st4" x1="1339.7" y1="1380.4" x2="1314.3" y2="1395.1" />
			<line class="st4" x1="1376.7" y1="1390.4" x2="1321.6" y2="1422.1" />
			<line class="st4" x1="1413.7" y1="1400.3" x2="1328.8" y2="1449.2" />
			<polyline class="st4" points="1351.1,1467.6 1351.1,1467.6 1450.6,1410.3 			" />
			<line class="st4" x1="1487.6" y1="1420.2" x2="1388.1" y2="1477.6" />
			<line class="st4" x1="1524.6" y1="1430.1" x2="1425" y2="1487.5" />
			<line class="st4" x1="1561.6" y1="1440.1" x2="1462" y2="1497.4" />
			<line class="st4" x1="1588.8" y1="1455.6" x2="1499" y2="1507.4" />
			<line class="st4" x1="1596.1" y1="1482.7" x2="1536" y2="1517.3" />
			<line class="st4" x1="1603.3" y1="1509.8" x2="1573" y2="1527.3" />
			<line class="st4" x1="1610.6" y1="1536.8" x2="1609.9" y2="1537.2" />
		</g>
		<path class="st5" d="M1687.1,1473.8l-358-96.3c-9.3-2.5-17.8,6-15.3,15.3l15,55.8c2.3,8.6,9,15.3,17.7,17.7l358,96.3
			c9.3,2.5,17.8-6,15.3-15.3l-15-55.8C1702.4,1482.9,1695.7,1476.1,1687.1,1473.8z" />
		<g>
			<line class="st4" x1="1320.7" y1="1235.1" x2="1277.9" y2="1259.8" />
			<line class="st4" x1="1357.7" y1="1245.1" x2="1285.2" y2="1286.8" />
			<line class="st4" x1="1394.6" y1="1255" x2="1297.3" y2="1311.1" />
			<line class="st4" x1="1431.6" y1="1264.9" x2="1332.1" y2="1322.3" />
			<polyline class="st4" points="1369.1,1332.3 1468.6,1274.9 1468.6,1274.9 			" />
			<polyline class="st4" points="1406,1342.2 1505.6,1284.9 1505.6,1284.9 			" />
			<line class="st4" x1="1542.5" y1="1294.8" x2="1443" y2="1352.1" />
			<line class="st4" x1="1552.4" y1="1320.4" x2="1480" y2="1362.1" />
			<line class="st4" x1="1559.7" y1="1347.4" x2="1517" y2="1372" />
			<line class="st4" x1="1567" y1="1374.4" x2="1554" y2="1381.9" />
		</g>
		<path class="st5" d="M1706.9,1339l-418.5-112.5c-9.3-2.5-17.8,6-15.3,15.3l15,55.8c2.3,8.6,9,15.3,17.7,17.7l418.5,112.5
			c9.3,2.5,17.8-6,15.3-15.3l-15-55.8C1722.2,1348,1715.5,1341.3,1706.9,1339z" />
		<path class="st6" d="M2158.2,1666.9c0.1-0.1,0.2-0.1,0.3-0.2l80.6-46.6l-228.9-396.5l-81.2,46.9l0,0
			c-29.6,16.7-47.9,52.8-47.9,104.5c0,102.9,72.7,228.3,162.4,280.1c44.7,25.8,85.1,28.4,114.5,11.9l0,0L2158.2,1666.9z" />
		<g>
			<polyline class="st4" points="905.2,787.1 925,775.6 925,775.6 			" />
			<line class="st4" x1="962" y1="785.6" x2="912.1" y2="814.3" />
			<line class="st4" x1="999" y1="795.5" x2="919.4" y2="841.3" />
			<line class="st4" x1="1036" y1="805.4" x2="926.7" y2="868.4" />
			<line class="st4" x1="1072.9" y1="815.4" x2="934" y2="895.5" />
			<line class="st4" x1="1109.9" y1="825.3" x2="941.2" y2="922.5" />
			<line class="st4" x1="1146.9" y1="835.2" x2="948.5" y2="949.6" />
			<line class="st4" x1="1183.9" y1="845.2" x2="955.8" y2="976.6" />
			<polyline class="st4" points="967,1001.4 1220.8,855.1 1220.9,855.1 			" />
			<polyline class="st4" points="992.4,1018 1257.8,865.1 1257.8,865.1 			" />
			<line class="st4" x1="1287" y1="879.5" x2="1029.4" y2="1028" />
			<line class="st4" x1="1300.5" y1="903" x2="1066.4" y2="1037.9" />
			<line class="st4" x1="1307.8" y1="930.1" x2="1103.3" y2="1047.8" />
			<line class="st4" x1="1315" y1="957.1" x2="1140.3" y2="1057.8" />
			<line class="st4" x1="1322.3" y1="984.2" x2="1177.3" y2="1067.7" />
			<polyline class="st4" points="1214.3,1077.7 1214.3,1077.7 1329.6,1011.2 			" />
			<line class="st4" x1="1336.9" y1="1038.3" x2="1251.3" y2="1087.6" />
			<line class="st4" x1="1344.1" y1="1065.3" x2="1288.2" y2="1097.6" />
			<line class="st4" x1="1351.4" y1="1092.4" x2="1325.2" y2="1107.5" />
		</g>
		<g>
			<path class="st0" d="M1801.3,1385l22.1-22.1l-29.5-29.5l-4.4-16.3c-2.3-8.6-9-15.3-17.7-17.7l-379-101.9l-29.5-29.5l-22.1,22.1
				l0,0c-3,3-4.5,7.4-3.2,12.1l15,55.8c2.3,8.6,9,15.3,17.7,17.7l418.5,112.5C1793.8,1389.5,1798.3,1388,1801.3,1385z" />
			<path class="st0" d="M1781.5,1519.8l22.1-22.1l-29.5-29.5l-4.4-16.3c-2.3-8.6-9-15.3-17.7-17.7l-318.5-85.6l-29.5-29.5
				l-22.1,22.1l0,0c-3,3-4.5,7.4-3.2,12.1l15,55.8c2.3,8.6,9,15.3,17.7,17.7l358,96.3C1774,1524.3,1778.5,1522.8,1781.5,1519.8z" />
			<path class="st0" d="M1774.1,1412.2l-358-96.3c-9.3-2.5-17.8,6-15.3,15.3l15,55.8c2.3,8.6,9,15.3,17.7,17.7l358,96.3
				c9.3,2.5,17.8-6,15.3-15.3l-15-55.8C1789.5,1421.2,1782.7,1414.5,1774.1,1412.2z" />
			<path class="st0" d="M1793.9,1277.3l-418.5-112.5c-9.3-2.5-17.8,6-15.3,15.3l15,55.8c2.3,8.6,9,15.3,17.7,17.7l418.5,112.5
				c9.3,2.5,17.8-6,15.3-15.3l-15-55.8C1809.3,1286.4,1802.6,1279.7,1793.9,1277.3z" />
		</g>
		<path class="st0" d="M1836.8,1314.9l44.2-44.2l-250.7-250.7l-44.2,44.2l0,0c-3,3-4.5,7.4-3.2,12.1l43.8,162.8
			c4.6,17.2,18.1,30.7,35.3,35.3l162.8,43.8C1829.4,1319.4,1833.8,1317.9,1836.8,1314.9z" />
		<path class="st0" d="M1805.2,1060.6l-162.8-43.8c-9.3-2.5-17.8,6-15.3,15.3l43.8,162.8c4.6,17.2,18.1,30.7,35.3,35.3l162.8,43.8
			c9.3,2.5,17.8-6,15.3-15.3l-43.8-162.8C1835.8,1078.7,1822.4,1065.2,1805.2,1060.6z" />
		<g>
			<g>
				<polygon class="st0" points="1839.1,1202.7 1788.4,1139.4 1774.4,1162.9 1727.7,1104.5 1692.4,1163.4 				" />

					<ellipse transform="matrix(0.7033 -0.7109 0.7109 0.7033 -252.0468 1587.9918)" class="st7" cx="1776.2" cy="1095.9" rx="6.5" ry="11.3" />
			</g>
		</g>
		<g>
			<g>
				<line class="st4" x1="1733" y1="1133.9" x2="1719.6" y2="1156.3" />
			</g>
		</g>
		<path class="st0" d="M1392.6,1062.2l44.2-44.2l-67.8-67.8l-25-93.1c-4.6-17.2-18.1-30.7-35.3-35.3l-244.2-65.6l0,0l-67.8-67.8
			l-44.2,44.2l0,0c-3,3-4.5,7.4-3.2,12.1l51.9,193c4.6,17.2,18.1,30.7,35.3,35.3l344.1,92.5
			C1385.1,1066.7,1389.6,1065.2,1392.6,1062.2z" />
		<g>
			<defs>
				<path id="SVGID_5_" d="M1392.6,1062.2l44.2-44.2l-67.8-67.8l-25-93.1c-4.6-17.2-18.1-30.7-35.3-35.3l-244.2-65.6l0,0l-67.8-67.8
					l-44.2,44.2l0,0c-3,3-4.5,7.4-3.2,12.1l51.9,193c4.6,17.2,18.1,30.7,35.3,35.3l344.1,92.5
					C1385.1,1066.7,1389.6,1065.2,1392.6,1062.2z" />
			</defs>
			<clipPath id="SVGID_6_">
				<use xlink:href="#SVGID_5_"  style="overflow:visible;" />
			</clipPath>
			<g class="st8">
				<line class="st2" x1="1313.7" y1="1063.3" x2="1414.9" y2="962.1" />
				<line class="st2" x1="1344.3" y1="1071.5" x2="1445.5" y2="970.3" />
				<line class="st2" x1="1375" y1="1079.8" x2="1476.2" y2="978.6" />
			</g>
		</g>
		<path class="st0" d="M1440,1005.9l-51.9-193c-4.6-17.2-18.1-30.7-35.3-35.3l-344.1-92.5c-9.3-2.5-17.8,6-15.3,15.3l51.9,193
			c4.6,17.2,18.1,30.7,35.3,35.3l344.1,92.5C1434,1023.7,1442.5,1015.2,1440,1005.9z" />

			<ellipse transform="matrix(0.2641 -0.9645 0.9645 0.2641 481.1631 1956.2192)" class="st0" cx="1522.5" cy="662.8" rx="191.6" ry="331.9" />

			<ellipse transform="matrix(0.2641 -0.9645 0.9645 0.2641 516.2293 1941.8055)" class="st0" cx="1530.5" cy="632.6" rx="191.6" ry="331.9" />

			<ellipse transform="matrix(0.2536 -0.9673 0.9673 0.2536 584.1098 1930.3453)" class="st0" cx="1542.9" cy="586.7" rx="110.1" ry="190.8" />
		<line class="st2" x1="1643.4" y1="1264.9" x2="1674.3" y2="1234" />
		<line class="st2" x1="1012.4" y1="958.3" x2="1043.3" y2="927.4" />
		<g>
			<g>

					<ellipse transform="matrix(0.5243 -0.8515 0.8515 0.5243 -492.2111 903.7986)" class="st7" cx="562.8" cy="892.5" rx="13.9" ry="7.4" />

					<ellipse transform="matrix(0.5243 -0.8515 0.8515 0.5243 -559.4067 834.6728)" class="st7" cx="467.4" cy="918" rx="13.9" ry="7.4" />
			</g>
			<path class="st7" d="M518.5,928.5c-0.8-2.6-6.8-1.3-9.4-0.6s-8.8,2.7-11.2,6.2s2.7,7,8,5.9C511.3,938.1,519.3,931.1,518.5,928.5z
				" />
			<g>
				<path class="st9" d="M523.5,957.4c-13.3,3.6-21.3-4.3-17.7-17.5" />
				<path class="st9" d="M475.2,970.4c13.3-3.6,27-17.2,30.6-30.5" />
			</g>
			<path class="st9" d="M635.9,849.2c12.9-26.7,14-57.9,13-77.1c-0.5-9.6-11.8-10.9-23.1-2.6L576.2,806c-10.8-0.1-22.8,1.4-35.8,4.9
				s-25.9,8.6-38.5,15l-36.3-13.5c-8.2-3-22.1,5-28.1,16.3c-12.2,22.8-28.9,58.1-29.5,81.5c-8,12.7-14,25.8-17.4,38.7
				c-15.6,58.3,26.1,90.9,93.2,73c67.1-18,134.2-79.8,149.8-138.1C637.1,871,637.7,859.3,635.9,849.2z" />
			<path class="st4" d="M453.9,838.7l23.3,8.7c-16.8,13.5-31.9,29.7-43.9,47.2C434.8,881.8,442.1,862,453.9,838.7z" />
			<path class="st4" d="M615.8,845.6c-3.8-13.2-11.9-23.3-23.5-29.1l31.9-23.4C624.4,813.2,621.4,831.8,615.8,845.6z" />
			<path class="st4" d="M477.3,1004.7c-51,13.7-81.3-16.3-67.7-67" />
		</g>
		<g>
			<g>

					<ellipse transform="matrix(0.2536 -0.9673 0.9673 0.2536 345.0373 1778.5148)" class="st4" cx="1324.9" cy="665.7" rx="2.9" ry="5.1" />
			</g>
			<g>

					<ellipse transform="matrix(0.2536 -0.9673 0.9673 0.2536 520.938 2197.8081)" class="st4" cx="1684.6" cy="761.4" rx="2.9" ry="5.1" />
			</g>
			<g>

					<ellipse transform="matrix(0.2536 -0.9673 0.9673 0.2536 678.7734 2234.7441)" class="st4" cx="1787.4" cy="677.5" rx="3.1" ry="5.4" />

					<ellipse transform="matrix(0.2536 -0.9673 0.9673 0.2536 430.0121 1641.7739)" class="st4" cx="1278.8" cy="542.3" rx="3.1" ry="5.4" />
			</g>
			<g>

					<ellipse transform="matrix(0.2536 -0.9673 0.9673 0.2536 382.7 2008.8318)" class="st4" cx="1493" cy="756.4" rx="2.9" ry="5.1" />
			</g>
		</g>
		<path class="st0" d="M1727.2,635.6c-7.4,27.2-32.9,49.7-74.6,60.9c-83.4,22.3-200.1-8.7-260.7-69.4
			c-29.9-29.9-40.6-61.4-33.7-88.4c0.1-0.3,0.2-0.7,0.2-1l0.1-0.4c27.1-101,131.5-160.8,233.3-133.5
			c101.3,27.1,161.7,130.2,135.6,230.8C1727.4,634.9,1727.3,635.3,1727.2,635.6z" />
		<circle class="st0" cx="1533.6" cy="621.8" r="40.6" />
		<path class="st10" d="M1527.2,646c-13.3-3.6-21.3-17.3-17.7-30.6" />
		<circle class="st0" cx="1676.7" cy="611.6" r="32.8" />
		<circle class="st0" cx="1414.9" cy="541.5" r="32.8" />
		<g>
			<defs>
				<path id="SVGID_7_" d="M2158.2,1666.9c0.1-0.1,0.2-0.1,0.3-0.2l80.6-46.6l-228.9-396.5l-81.2,46.9l0,0
					c-29.6,16.7-47.9,52.8-47.9,104.5c0,102.9,72.7,228.3,162.4,280.1c44.7,25.8,85.1,28.4,114.5,11.9l0,0L2158.2,1666.9z" />
			</defs>
			<use xlink:href="#SVGID_7_"  style="overflow:visible;fill:#FFFFFF;" />
			<clipPath id="SVGID_8_">
				<use xlink:href="#SVGID_7_"  style="overflow:visible;" />
			</clipPath>
			<g class="st11">
				<line class="st2" x1="1835.3" y1="1428.3" x2="1959.2" y2="1356.8" />
				<line class="st2" x1="1862.8" y1="1444.2" x2="1986.7" y2="1372.7" />
				<line class="st2" x1="1890.2" y1="1460.1" x2="2014.2" y2="1388.6" />
			</g>
			<g class="st11">
				<line class="st2" x1="2058.7" y1="1660.9" x2="2182.6" y2="1589.3" />
				<line class="st2" x1="2086.1" y1="1676.7" x2="2210.1" y2="1605.2" />
				<line class="st2" x1="2113.6" y1="1692.6" x2="2237.6" y2="1621.1" />
			</g>

				<use xlink:href="#SVGID_7_"  style="overflow:visible;fill:none;stroke:#212121;stroke-width:12.5;stroke-linecap:round;stroke-linejoin:round;stroke-miterlimit:10;" />
		</g>

			<ellipse transform="matrix(0.8633 -0.5047 0.5047 0.8633 -427.1789 1266.6865)" class="st0" cx="2124.7" cy="1421.9" rx="132.2" ry="228.9" />
		<g>
			<path class="st0" d="M2143.8,1363.5l-19.1,10.9l-19.1-33c-19-32.8-49.9-50.6-68.9-39.8h0c-19,10.8-19,46.2,0,79.1l88,151.8
				l88-50.2c19-10.8,19-46.2,0-79.1v0C2193.7,1370.5,2162.9,1352.7,2143.8,1363.5z" />
			<path class="st4" d="M2124.7,1497.4L2052,1372c-5.1-8.8-7.9-18.2-7.9-26.5c0-8.3,2.8-14.5,7.9-17.4c5.1-2.9,11.9-2.2,19.1,2
				c7.2,4.2,14,11.3,19.1,20.1" />
			<path class="st4" d="M2159.2,1389.9c5.1-2.9,11.9-2.2,19.1,2c7.2,4.2,14,11.3,19.1,20.1c10.6,18.2,10.6,37.9,0,43.9" />
		</g>
		<g>
			<g>
				<path class="st4" d="M1316.2,825.4l-164.9-44.2c-11.5-3.1-17.9,5.2-14.4,18.4l0,0c3.6,13.3,15.7,26.5,27.2,29.6l164.9,44.2
					c11.5,3.1,17.9-5.2,14.4-18.4v0C1339.9,841.7,1327.7,828.5,1316.2,825.4z" />

					<ellipse transform="matrix(0.7033 -0.7109 0.7109 0.7033 -234.1794 1009.6008)" class="st4" cx="1092.3" cy="785.3" rx="15.4" ry="26.7" />
			</g>
			<g>
				<path class="st4" d="M1334.7,894.1l-164.9-44.2c-11.5-3.1-17.9,5.2-14.4,18.4l0,0c3.6,13.3,15.7,26.5,27.2,29.6l164.9,44.2
					c11.5,3.1,17.9-5.2,14.4-18.4l0,0C1358.3,910.4,1346.2,897.2,1334.7,894.1z" />

					<ellipse transform="matrix(0.7033 -0.7109 0.7109 0.7033 -277.566 1043.1375)" class="st4" cx="1110.8" cy="854.1" rx="15.4" ry="26.7" />
			</g>
		</g>

			<ellipse transform="matrix(0.7033 -0.7109 0.7109 0.7033 -667.9125 1285.8665)" class="st12" cx="1206.4" cy="1443" rx="33" ry="57.2" />

			<ellipse transform="matrix(0.7033 -0.7109 0.7109 0.7033 -651.9539 1405.3506)" class="st12" cx="1357.5" cy="1483.7" rx="33" ry="57.2" />

			<ellipse transform="matrix(0.7033 -0.7109 0.7109 0.7033 -754.5722 1712.4508)" class="st4" cx="1674.1" cy="1760.1" rx="29.4" ry="50.9" />
		<g>
			<path class="st13" d="M1489.7,1739.8l-186.2-50.1c-27.9-7.5-53.5,18-45.9,45.9l1.3,4.9c8.8,32.9,34.6,58.6,67.5,67.5l186.2,50.1
				c27.9,7.5,53.5-18,45.9-45.9l-1.3-4.9C1548.3,1774.3,1522.6,1748.6,1489.7,1739.8z" />
		</g>
		<g>
			<path class="st0" d="M1696.5,1860l44.2-44.2l-281.5-149l-44.2,44.2l0,0c-8.9,8.9-13.4,22.3-9.7,36.3l1.3,4.9
				c8.8,32.9,34.6,58.6,67.5,67.5l186.2,50.1C1674.2,1873.5,1687.5,1869,1696.5,1860z" />
			<path class="st0" d="M1681.6,1707.2l-186.2-50.1c-27.9-7.5-53.5,18-45.9,46l1.3,4.9c8.8,32.9,34.6,58.6,67.5,67.5l186.2,50.1
				c27.9,7.5,53.5-18,45.9-46l-1.3-4.9C1740.2,1741.8,1714.5,1716.1,1681.6,1707.2z" />

				<ellipse transform="matrix(0.7033 -0.7109 0.7109 0.7033 -753.7236 1726.0193)" class="st4" cx="1690.8" cy="1765.9" rx="29.4" ry="50.9" />
		</g>
	</g>
</g>
</svg>
