<svg xmlns="http://www.w3.org/2000/svg" xmlns:xlink="http://www.w3.org/1999/xlink" viewBox="0 0 2504 2490" xml:space="preserve"><style>.st0{fill:#fff;stroke-width:12.5}.st0,.st2,.st4{stroke:#212121;stroke-linecap:round;stroke-linejoin:round;stroke-miterlimit:10}.st2{fill:none;stroke-width:12.5}.st4{stroke-width:6.25}.st4,.st5{fill:none}.st7,.st9{fill:#212121;stroke:#212121;stroke-width:9.375;stroke-linecap:round;stroke-linejoin:round;stroke-miterlimit:10}.st9{fill:none}.st11{clip-path:url(#SVGID_8_)}.st12{fill:#fff;stroke:#212121;stroke-width:9.375;stroke-linecap:round;stroke-linejoin:round;stroke-miterlimit:10;stroke-dasharray:25,25}</style><g id="Isolation_Mode"><path class="st0" d="m778 559-44 44h0c-9 9-13 22-10 36l310 1153c14 52 55 92 106 106l549 148c14 4 27-1 36-10h0l45-44L778 559z"/><path class="st0" d="M1363 696 815 549c-28-8-54 18-46 46l310 1153c13 52 54 92 105 106l549 148c28 7 54-18 46-46L1469 802c-14-51-54-92-106-106z"/><path class="st0" d="M1361 752 860 617c-14-4-27 9-23 23l297 1106c7 25 27 46 53 53l501 134c14 4 27-9 23-23L1414 805c-7-26-27-46-53-53zm-993 284 299-277 67-67 44 44c4 3 5 7 4 12l-77 284c-4 17-18 30-35 35l-314 84c-4 2-9 0-12-3l-44-44 68-68z"/><defs><path id="SVGID_1_" d="m368 1036 299-277 67-67 44 44c4 3 5 7 4 12l-77 284c-4 17-18 30-35 35l-314 84c-4 2-9 0-12-3l-44-44 68-68z"/></defs><clipPath id="SVGID_2_"><use xlink:href="#SVGID_1_" overflow="visible"/></clipPath><g clip-path="url(#SVGID_2_)"><path class="st2" d="m429 1155-101-101m70 109-101-101m70 109-101-101"/></g><path class="st0" d="m408 773 314-85c10-2 18 6 16 16l-77 283c-4 17-18 31-35 36l-314 84c-9 3-18-6-15-15l76-284c5-17 18-31 35-35z"/><path class="st2" d="m693 1054-31-31m411 836 31-31"/><path class="st0" d="m723 1081-44 44h0c-3 3-5 8-3 12l84 314c5 17 18 31 35 35l707 190c5 2 9 0 12-3h0l44-44-835-548z"/><defs><path id="SVGID_3_" d="m723 1081-44 44c-3 3-5 8-3 12l84 314c5 17 18 31 35 35l707 190c5 2 9 0 12-3l44-44-835-548z"/></defs><clipPath id="SVGID_4_"><use xlink:href="#SVGID_3_" overflow="visible"/></clipPath><g clip-path="url(#SVGID_4_)"><path class="st2" d="m1409 1700 101-101m-70 110 101-102m-70 110 101-101"/></g><path class="st0" d="m1442 1268-707-190c-9-3-18 6-15 15l84 314c5 17 18 31 35 35l707 190c9 3 18-6 15-15l-84-314c-4-17-18-31-35-35z"/><path class="st2" d="m773 1474 31-31m211-234-203-55c-10-2-18 6-16 16l55 202c3 11 11 19 22 22l203 55c10 3 18-6 16-15l-55-203c-3-10-11-19-22-22z"/><path class="st4" d="m1011 1236-133 132m181 49-230-230m511 193-26 15m63-5-55 32m92-22-85 49m22 19h0l100-58m37 10-100 58m137-48-100 58m137-48-100 57m127-41-90 51m97-24-60 34m67-7-30 17m38 10h-1"/><path class="st5" d="m1687 1474-358-97c-9-2-18 7-15 16l15 56c2 8 9 15 17 17l359 97c9 2 17-6 15-16l-15-56c-3-8-9-15-18-17z"/><path class="st4" d="m1321 1235-43 25m80-15-73 42m110-32-98 56m135-46-100 57m37 10 100-57h0m-63 67 100-57h0m37 10-100 57m109-32-72 42m80-15-43 25m50 2-13 8"/><path class="st5" d="m1707 1339-419-112c-9-3-17 6-15 15l15 56c2 8 9 15 18 17l418 113c10 2 18-6 16-16l-15-55c-3-9-9-16-18-18z"/><path d="M2158 1667s0 0 0 0l81-47-229-396-81 47h0c-30 16-48 52-48 104 0 103 73 228 162 280 45 26 86 29 115 12h0z" fill="#ffe603" stroke="#212121" stroke-width="12.5" stroke-linecap="round" stroke-linejoin="round" stroke-miterlimit="10"/><path class="st4" d="m905 787 20-11h0m37 10-50 28m87-18-80 45m117-36-109 63m146-53-139 81m176-71-169 98m206-88L949 950m235-105L956 977m11 24 254-146h0m-229 163 266-153h0m29 15-258 148m272-125-235 135m242-108-205 118m212-91-175 101m182-74-145 84m37 10h0l116-67m7 27-86 50m93-23-56 33m63-6-26 16"/><path class="st0" d="m1801 1385 22-22-29-30-5-16c-2-8-9-15-17-18l-379-101-30-30-22 22h0c-3 3-4 7-3 12l15 56c2 9 9 15 18 18l418 112c5 2 9 0 12-3zm-19 135 22-22-30-30-4-16c-3-9-9-15-18-18l-319-85-29-30-22 22h0c-3 3-5 8-3 12l15 56c2 9 9 15 17 18l358 96c5 1 10 0 13-3z"/><path class="st0" d="m1774 1412-358-96c-9-3-18 6-15 15l15 56c2 9 9 15 17 18l359 96c9 3 17-6 15-15l-15-56c-2-9-9-15-18-18zm20-135-419-112c-9-3-17 6-15 15l15 56c2 8 9 15 18 18l418 112c10 3 18-6 16-15l-15-56c-3-9-9-15-18-18z"/><path class="st0" d="m1837 1315 44-44-251-251-44 44h0c-3 3-4 8-3 12l44 163c4 17 18 31 35 35l163 44c4 1 9 0 12-3z"/><path class="st0" d="m1805 1061-163-44c-9-3-17 6-15 15l44 163c5 17 18 31 35 35l163 44c9 2 18-6 15-15l-44-163c-4-17-18-31-35-35z"/><path class="st0" d="m1839 1203-51-64-14 24-46-58-36 58z"/><ellipse transform="rotate(-45 1776 1096)" class="st7" cx="1776.2" cy="1095.9" rx="6.5" ry="11.3"/><path class="st4" d="m1733 1134-13 22"/><path class="st0" d="m1393 1062 44-44-68-68-25-93c-5-17-18-31-35-35l-244-66h0l-68-68-44 45h0c-3 3-5 7-4 12l52 193c5 17 18 30 35 35l345 93c4 1 9-1 12-4z"/><defs><path id="SVGID_5_" d="m1393 1062 44-44-68-68-25-93c-5-17-18-31-35-35l-244-66-68-68-44 45c-3 3-5 7-4 12l52 193c5 17 18 30 35 35l345 93c4 1 9-1 12-4z"/></defs><clipPath id="SVGID_6_"><use xlink:href="#SVGID_5_" overflow="visible"/></clipPath><g clip-path="url(#SVGID_6_)"><path class="st2" d="m1314 1063 101-101m-71 110 102-102m-71 110 101-101"/></g><path class="st0" d="m1440 1006-52-193c-5-17-18-31-35-35l-344-93c-10-2-18 6-16 15l52 193c5 18 18 31 36 36l344 92c9 3 18-6 15-15z"/><ellipse transform="rotate(-75 1523 663)" class="st0" cx="1522.5" cy="662.8" rx="191.6" ry="331.9"/><ellipse transform="rotate(-75 1531 633)" class="st0" cx="1530.5" cy="632.6" rx="191.6" ry="331.9"/><ellipse transform="rotate(-75 1543 587)" class="st0" cx="1542.9" cy="586.7" rx="110.1" ry="190.8"/><path class="st2" d="m1643 1265 31-31m-662-276 31-31"/><ellipse transform="rotate(-58 563 892)" class="st7" cx="562.8" cy="892.5" rx="13.9" ry="7.4"/><ellipse transform="rotate(-58 467 918)" class="st7" cx="467.4" cy="918" rx="13.9" ry="7.4"/><path class="st7" d="M519 929c-1-3-7-2-10-1s-9 3-11 6 3 7 8 6c5-2 13-9 13-11z"/><path class="st9" d="M524 957c-14 4-22-4-18-17"/><path class="st9" d="M475 970c13-3 27-17 31-30"/><path class="st9" d="M636 849c13-26 14-58 13-77-1-9-12-11-23-2l-50 36c-11 0-23 1-36 5s-25 8-38 15l-36-14c-9-3-22 5-28 17-13 22-29 58-30 81-8 13-14 26-17 39-16 58 26 91 93 73s134-80 150-138c3-13 4-25 2-35z"/><path class="st4" d="m454 839 23 8c-17 14-32 30-44 48 2-13 9-33 21-56zm162 7c-4-14-12-24-24-29l32-24c0 20-3 39-8 53zm-139 159c-51 13-81-17-67-67"/><ellipse transform="rotate(-75 1325 666)" class="st4" cx="1324.9" cy="665.7" rx="2.9" ry="5.1"/><ellipse transform="rotate(-75 1685 761)" class="st4" cx="1684.6" cy="761.4" rx="2.9" ry="5.1"/><ellipse transform="rotate(-75 1787 678)" class="st4" cx="1787.4" cy="677.5" rx="3.1" ry="5.4"/><ellipse transform="rotate(-75 1279 542)" class="st4" cx="1278.8" cy="542.3" rx="3.1" ry="5.4"/><ellipse transform="rotate(-75 1493 756)" class="st4" cx="1493" cy="756.4" rx="2.9" ry="5.1"/><path class="st0" d="M1727 636c-7 27-33 49-74 61-84 22-200-9-261-70-30-30-41-61-34-88v-1l1-1a190 190 0 0 1 233-133 190 190 0 0 1 135 232z"/><circle class="st0" cx="1533.6" cy="621.8" r="40.6"/><path d="M1527 646c-13-4-21-17-17-31" fill="#fff" stroke="#212121" stroke-width="6.3" stroke-linecap="round" stroke-linejoin="round" stroke-miterlimit="10"/><circle class="st0" cx="1676.7" cy="611.6" r="32.8"/><circle class="st0" cx="1414.9" cy="541.5" r="32.8"/><defs><path id="SVGID_7_" d="m2158 1667 81-47-229-396-81 47c-30 16-48 52-48 104 0 103 73 228 162 280 45 26 86 29 115 12z"/></defs><use xlink:href="#SVGID_7_" overflow="visible" fill="#fff"/><clipPath id="SVGID_8_"><use xlink:href="#SVGID_7_" overflow="visible"/></clipPath><g class="st11"><path class="st2" d="m1835 1428 124-71m-96 87 124-71m-97 87 124-71"/></g><g class="st11"><path class="st2" d="m2059 1661 124-72m-97 88 124-72m-96 88 124-72"/></g><use xlink:href="#SVGID_7_" overflow="visible" fill="none" stroke="#212121" stroke-width="12.5" stroke-linecap="round" stroke-linejoin="round" stroke-miterlimit="10"/><ellipse transform="rotate(-30 2125 1422)" class="st0" cx="2124.7" cy="1421.9" rx="132.2" ry="228.9"/><path class="st0" d="m2144 1364-19 10-19-33c-19-32-50-50-69-39h0c-19 10-19 46 0 79l88 152 88-51c19-11 19-46 0-79v0c-19-32-50-50-69-39z"/><path class="st4" d="m2125 1497-73-125c-5-9-8-18-8-26 0-9 3-15 8-18s12-2 19 2 14 11 19 20m69 40c5-3 12-2 19 2s14 11 19 20c11 18 11 38 0 44m-881-631-165-44c-11-3-18 5-14 19h0c3 13 16 26 27 29l165 44c12 3 18-5 14-18v0c-3-13-15-26-27-30z"/><ellipse transform="rotate(-45 1092 785)" class="st4" cx="1092.3" cy="785.3" rx="15.4" ry="26.7"/><path class="st4" d="m1335 894-165-44c-12-3-18 5-15 18h0c4 14 16 27 28 30l164 44c12 3 18-5 15-18h0c-4-14-16-27-27-30z"/><ellipse transform="rotate(-45 1111 854)" class="st4" cx="1110.8" cy="854.1" rx="15.4" ry="26.7"/><ellipse transform="rotate(-45 1207 1443)" class="st12" cx="1206.4" cy="1443" rx="33" ry="57.2"/><ellipse transform="rotate(-45 1358 1484)" class="st12" cx="1357.5" cy="1483.7" rx="33" ry="57.2"/><ellipse transform="rotate(-45 1674 1760)" class="st4" cx="1674.1" cy="1760.1" rx="29.4" ry="50.9"/><path d="m1490 1740-186-50c-28-8-54 18-46 46l1 5c9 32 34 58 67 67l187 50c27 8 53-18 45-46l-1-5c-9-33-34-58-67-67z" fill="none" stroke="#212121" stroke-width="9.4" stroke-linecap="round" stroke-linejoin="round" stroke-miterlimit="10" stroke-dasharray="25,25"/><path class="st0" d="m1697 1860 44-44-282-149-44 44h0c-9 9-13 22-10 36l2 5c8 33 34 59 67 68l186 50c14 4 28-1 37-10z"/><path class="st0" d="m1682 1707-187-50c-28-7-53 18-46 46l2 5c9 33 34 59 67 68l186 50c28 7 54-18 46-46l-1-5c-9-33-34-59-67-68z"/><ellipse transform="rotate(-45 1691 1766)" class="st4" cx="1690.8" cy="1765.9" rx="29.4" ry="50.9"/></g></svg>
