<svg width="24" height="24" viewBox="0 0 24 24" fill="none" xmlns="http://www.w3.org/2000/svg">
<path d="M19.5633 6.68281L21 5.30234V5H16.0242L12.4781 13.8688L8.44453 5H3.22734V5.30234L4.90547 7.33203C5.06953 7.48203 5.15391 7.70234 5.13281 7.92266V15.8984C5.18438 16.1867 5.09297 16.4797 4.89141 16.6883L3 18.9922V19.2898H8.35781V18.9875L6.46875 16.6906C6.36754 16.5879 6.2914 16.4631 6.24628 16.3261C6.20116 16.1891 6.18826 16.0436 6.20859 15.9008V9.00078L10.9125 19.2945H11.4586L15.5039 9.00078V17.2016C15.5039 17.4172 15.5039 17.4617 15.3633 17.6047L13.9078 19.018V19.3203H20.9672V19.018L19.5633 17.6375C19.4414 17.5438 19.3781 17.3867 19.4039 17.2344V7.08594C19.3918 7.01062 19.4002 6.93343 19.4282 6.86248C19.4563 6.79154 19.5029 6.72947 19.5633 6.68281Z" fill="#171717"/>
</svg>
