<svg width="48" height="48" viewBox="0 0 48 48" fill="none" xmlns="http://www.w3.org/2000/svg">
<g clip-path="url(#clip0)">
<g clip-path="url(#clip1)">
<path d="M29.5583 13.7186L26.4526 13.7144C22.9635 13.7144 20.7086 15.6808 20.7086 18.7243V21.0342H17.586C17.3162 21.0342 17.0977 21.2201 17.0977 21.4495V24.7963C17.0977 25.0256 17.3164 25.2114 17.586 25.2114H20.7086V33.6564C20.7086 33.8858 20.9271 34.0715 21.197 34.0715H25.2711C25.541 34.0715 25.7595 33.8856 25.7595 33.6564V25.2114H29.4106C29.6804 25.2114 29.8989 25.0256 29.8989 24.7963L29.9004 21.4495C29.9004 21.3394 29.8488 21.2339 29.7574 21.156C29.6659 21.078 29.5414 21.0342 29.4118 21.0342H25.7595V19.076C25.7595 18.1349 26.0233 17.6571 27.4657 17.6571L29.5578 17.6565C29.8274 17.6565 30.0459 17.4705 30.0459 17.2414V14.1337C30.0459 13.9047 29.8276 13.719 29.5583 13.7186Z" fill="white" />
</g>
</g>
<circle opacity="0.3" cx="24" cy="24" r="23.5" stroke="white" />
<defs>
<clipPath id="clip0">
<rect width="24" height="24" fill="white" transform="translate(12 12)" />
</clipPath>
<clipPath id="clip1">
<rect width="23.9496" height="20.3571" fill="white" transform="translate(11.5967 13.7144)" />
</clipPath>
</defs>
</svg>
