<svg width="90" height="90" viewBox="0 0 90 90" fill="none" xmlns="http://www.w3.org/2000/svg"><circle opacity=".5" cx="45" cy="45" r="45" fill="#FFE603"/><path d="M42.5 53.75H30a2.5 2.5 0 0 1-2.5-2.5V40a2.5 2.5 0 0 1 2.5-2.5h12.5m0 21.25H35m26.25-27.5h-12.5c-.69 0-1.25.56-1.25 1.25v25c0 .69.56 1.25 1.25 1.25h12.5c.69 0 1.25-.56 1.25-1.25v-25c0-.69-.56-1.25-1.25-1.25Zm-22.5 22.5v5" stroke="#161616" stroke-width="2" stroke-linecap="round" stroke-linejoin="round"/><path d="M55 55a1.875 1.875 0 1 0 0-3.75A1.875 1.875 0 0 0 55 55Z" fill="#161616"/></svg>