<svg width="40" height="40" viewBox="0 0 40 40" fill="none" xmlns="http://www.w3.org/2000/svg"><path d="M22.18 15.799a1.141 1.141 0 0 0 1.624 0 1.166 1.166 0 0 0 0-1.639l-3.475-3.506c1.192.147 2.35.53 3.405 1.133a9.232 9.232 0 0 1 3.68 3.895 9.34 9.34 0 0 1-1.243 10.222 9.178 9.178 0 0 1-4.505 2.881 9.113 9.113 0 0 1-2.455.337H2.159a1.159 1.159 0 1 0 0 2.317h33.397l-3.55 3.584a1.166 1.166 0 0 0 0 1.639 1.141 1.141 0 0 0 1.624 0l4.698-4.743a2.332 2.332 0 0 0 0-3.276l-4.591-4.632a1.141 1.141 0 0 0-1.624 0 1.166 1.166 0 0 0 0 1.638l3.442 3.473H26.1c.659-.498 1.266-1.07 1.81-1.706a11.637 11.637 0 0 0 2.698-6.15 11.676 11.676 0 0 0-1.144-6.627 11.543 11.543 0 0 0-4.6-4.87 11.411 11.411 0 0 0-4.543-1.447l3.314-3.343a1.166 1.166 0 0 0 0-1.639 1.141 1.141 0 0 0-1.624 0l-4.466 4.506a2.332 2.332 0 0 0 0 3.277L22.18 15.8Z" fill="#161616"/><path d="M15.046 11.592a9.204 9.204 0 0 0-3.04 2.512 9.337 9.337 0 0 0-.817 10.266 9.253 9.253 0 0 0 1.946 2.435h-3.11a11.662 11.662 0 0 1-2.204-8.423 11.64 11.64 0 0 1 2.383-5.715 11.497 11.497 0 0 1 4.346-3.402c-.037.796.128 1.6.496 2.327Z" fill="#161616"/></svg>