<svg width="40" height="40" viewBox="0 0 40 40" fill="none" xmlns="http://www.w3.org/2000/svg"><path d="M27.5 24.375a1.875 1.875 0 1 1-3.75 0 1.875 1.875 0 0 1 3.75 0ZM14.375 22.5a1.875 1.875 0 1 0 0 3.751 1.875 1.875 0 0 0 0-3.75ZM37.5 26.25V30a2.503 2.503 0 0 1-2.5 2.5H5A2.502 2.502 0 0 1 2.5 30v-3.573A17.716 17.716 0 0 1 8.032 13.55L4.116 9.633a1.25 1.25 0 0 1 1.768-1.768l4.088 4.088a17.41 17.41 0 0 1 20.086-.03l4.058-4.058a1.25 1.25 0 0 1 1.768 1.768l-3.881 3.881A17.384 17.384 0 0 1 37.5 26.25Zm-2.5 0a14.9 14.9 0 0 0-4.412-10.625 15.271 15.271 0 0 0-1.19-1.067l-.023-.019A14.884 14.884 0 0 0 20 11.25h-.053C11.705 11.28 5 18.087 5 26.427v3.575L35 30v-3.75Z" fill="#161616"/></svg>