<svg width="90" height="90" viewBox="0 0 90 90" fill="none" xmlns="http://www.w3.org/2000/svg"><circle opacity=".5" cx="45" cy="45" r="45" fill="#FFE603"/><path d="M52.5 49.375a1.875 1.875 0 1 1-3.751 0 1.875 1.875 0 0 1 3.751 0ZM39.375 47.5a1.875 1.875 0 1 0 0 3.751 1.875 1.875 0 0 0 0-3.75ZM62.5 51.25V55a2.503 2.503 0 0 1-2.5 2.5H30a2.503 2.503 0 0 1-2.5-2.5v-3.574a17.715 17.715 0 0 1 5.532-12.877l-3.916-3.915a1.25 1.25 0 0 1 1.768-1.768l4.088 4.088a17.41 17.41 0 0 1 20.086-.03l4.058-4.058a1.25 1.25 0 0 1 1.768 1.768l-3.881 3.881A17.385 17.385 0 0 1 62.5 51.25Zm-2.5 0a14.9 14.9 0 0 0-4.412-10.625 15.25 15.25 0 0 0-1.19-1.067l-.023-.019A14.884 14.884 0 0 0 45 36.25h-.053C36.705 36.28 30 43.087 30 51.427v3.575L60 55v-3.75Z" fill="#000"/></svg>