<svg width="201" height="67" viewBox="-1 -1 203 69" fill="none" xmlns="http://www.w3.org/2000/svg"><path d="M136.556 32.162v3.837h-2.405v2.517h2.405v8.55c0 2.92 1.321 4.088 4.644 4.088.584 0 1.14-.07 1.627-.153v-2.488c-.417.041-.681.069-1.14.069-1.488 0-2.142-.695-2.142-2.28v-7.786h3.282v-2.517h-3.282v-3.837h-2.989Zm14.736 19.201c4.421 0 7.133-2.962 7.133-7.87 0-4.88-2.726-7.855-7.133-7.855-4.421 0-7.147 2.975-7.147 7.855 0 4.908 2.712 7.87 7.147 7.87Zm0-2.656c-2.6 0-4.06-1.905-4.06-5.214 0-3.281 1.46-5.2 4.06-5.2 2.586 0 4.06 1.919 4.06 5.2 0 3.295-1.474 5.214-4.06 5.214Zm9.452 2.363h2.99v-8.94c0-2.127 1.599-3.559 3.865-3.559.528 0 1.418.098 1.668.181v-2.948c-.319-.083-.889-.125-1.334-.125-1.975 0-3.657 1.085-4.088 2.572h-.223V35.93h-2.878v15.142Zm15.946-12.888c2.21 0 3.656 1.543 3.726 3.92h-7.647c.167-2.363 1.71-3.92 3.921-3.92Zm3.712 8.801c-.556 1.182-1.793 1.835-3.601 1.835-2.391 0-3.935-1.682-4.032-4.338v-.166h10.692V43.27c0-4.755-2.544-7.633-6.757-7.633-4.269 0-6.98 3.072-6.98 7.91 0 4.84 2.656 7.815 6.994 7.815 3.462 0 5.881-1.669 6.562-4.38h-2.878Zm-63.449-1.503c.23 3.717 3.329 6.095 7.94 6.095 4.929 0 8.013-2.493 8.013-6.47 0-3.127-1.759-4.857-6.024-5.851l-2.292-.562c-2.709-.634-3.804-1.484-3.804-2.969 0-1.873 1.7-3.098 4.251-3.098 2.421 0 4.093 1.196 4.395 3.113h3.142c-.187-3.502-3.271-5.966-7.494-5.966-4.539 0-7.565 2.464-7.565 6.167 0 3.056 1.715 4.871 5.476 5.75l2.68.649c2.753.648 3.963 1.6 3.963 3.185 0 1.844-1.902 3.184-4.496 3.184-2.781 0-4.712-1.253-4.986-3.228h-3.199Zm-30.967-9.8c-2.057 0-3.837 1.028-4.755 2.752h-.222V35.93H78.13v20.175h2.99v-7.327h.235c.793 1.599 2.503 2.544 4.658 2.544 3.824 0 6.257-3.017 6.257-7.828 0-4.81-2.433-7.814-6.285-7.814Zm-.848 12.958c-2.502 0-4.074-1.975-4.074-5.13 0-3.171 1.572-5.145 4.088-5.145 2.53 0 4.046 1.932 4.046 5.13 0 3.212-1.515 5.145-4.06 5.145Zm17.593-12.958c-2.058 0-3.837 1.028-4.755 2.752h-.222V35.93h-2.879v20.175h2.99v-7.327h.236c.793 1.599 2.503 2.544 4.658 2.544 3.823 0 6.257-3.017 6.257-7.828 0-4.81-2.434-7.814-6.285-7.814Zm-.848 12.958c-2.503 0-4.074-1.975-4.074-5.13 0-3.171 1.571-5.145 4.088-5.145 2.53 0 4.046 1.932 4.046 5.13 0 3.212-1.516 5.145-4.06 5.145ZM72.767 51.07h3.43L68.69 30.277h-3.473L57.708 51.07h3.315l1.916-5.52h7.926l1.902 5.52Zm-5.98-17.019h.245l3.012 8.791H63.76l3.026-8.79ZM59.716 14.59v10.032h3.622c2.99 0 4.72-1.842 4.72-5.047 0-3.156-1.745-4.984-4.72-4.984h-3.622Zm1.557 1.419h1.891c2.079 0 3.31 1.32 3.31 3.587 0 2.301-1.21 3.608-3.31 3.608h-1.891V16.01Zm12.087 8.759c2.21 0 3.566-1.48 3.566-3.934 0-2.44-1.363-3.928-3.566-3.928-2.211 0-3.574 1.487-3.574 3.928 0 2.454 1.356 3.934 3.574 3.934Zm0-1.328c-1.3 0-2.03-.952-2.03-2.606 0-1.641.73-2.6 2.03-2.6 1.293 0 2.03.959 2.03 2.6 0 1.647-.737 2.607-2.03 2.607Zm15.11-6.388h-1.494l-1.349 5.777h-.118l-1.558-5.777H82.52l-1.558 5.777h-.111l-1.356-5.777H77.98l2.085 7.57h1.537l1.557-5.575h.118l1.564 5.575h1.55l2.08-7.57Zm1.722 7.57h1.494v-4.428c0-1.182.702-1.919 1.808-1.919 1.105 0 1.633.605 1.633 1.822v4.525h1.495v-4.9c0-1.801-.931-2.816-2.62-2.816-1.14 0-1.892.507-2.26 1.348h-.111v-1.202h-1.44v7.57Zm8.784 0h1.495V14.097h-1.495v10.525Zm7.116.146c2.211 0 3.566-1.48 3.566-3.934 0-2.44-1.362-3.928-3.566-3.928-2.211 0-3.573 1.487-3.573 3.928 0 2.454 1.355 3.934 3.573 3.934Zm0-1.328c-1.3 0-2.03-.952-2.03-2.606 0-1.641.73-2.6 2.03-2.6 1.293 0 2.03.959 2.03 2.6 0 1.647-.737 2.607-2.03 2.607Zm8.02.05c-.814 0-1.405-.397-1.405-1.078 0-.668.473-1.022 1.516-1.092l1.849-.118v.633c0 .938-.834 1.654-1.96 1.654Zm-.383 1.258c.994 0 1.822-.431 2.274-1.19h.118v1.064h1.439V19.45c0-1.599-1.071-2.544-2.969-2.544-1.717 0-2.94.834-3.093 2.134h1.446c.167-.535.744-.841 1.578-.841 1.022 0 1.55.452 1.55 1.251v.654l-2.051.118c-1.8.111-2.815.897-2.815 2.26 0 1.383 1.063 2.265 2.523 2.265Zm8.903-.001c1.043 0 1.926-.493 2.377-1.32h.119v1.195h1.432V14.097h-1.495v4.157h-.111c-.41-.834-1.286-1.327-2.322-1.327-1.912 0-3.142 1.515-3.142 3.907 0 2.398 1.216 3.913 3.142 3.913Zm.424-6.479c1.251 0 2.037.994 2.037 2.572 0 1.586-.779 2.566-2.037 2.566-1.265 0-2.023-.966-2.023-2.572 0-1.592.765-2.566 2.023-2.566Zm13.196 6.5c2.211 0 3.566-1.48 3.566-3.934 0-2.44-1.362-3.928-3.566-3.928-2.211 0-3.573 1.487-3.573 3.928 0 2.454 1.355 3.934 3.573 3.934Zm0-1.328c-1.3 0-2.03-.952-2.03-2.606 0-1.641.73-2.6 2.03-2.6 1.293 0 2.03.959 2.03 2.6 0 1.647-.737 2.607-2.03 2.607Zm5.545 1.182h1.495v-4.428c0-1.182.702-1.919 1.807-1.919s1.634.605 1.634 1.822v4.525h1.494v-4.9c0-1.801-.931-2.816-2.62-2.816-1.141 0-1.891.507-2.26 1.348h-.111v-1.202h-1.439v7.57Zm13.314-9.454v1.919h-1.202v1.258h1.202v4.275c0 1.46.661 2.044 2.322 2.044.292 0 .57-.035.814-.076v-1.245c-.209.021-.341.035-.571.035-.743 0-1.07-.348-1.07-1.14v-3.893h1.641v-1.258h-1.641v-1.92h-1.495Zm5.142 9.454h1.495v-4.421c0-1.147.681-1.919 1.904-1.919 1.057 0 1.62.612 1.62 1.822v4.518h1.495v-4.887c0-1.8-.994-2.822-2.607-2.822-1.14 0-1.94.507-2.308 1.355h-.118v-4.17h-1.481v10.524Zm11.906-6.444c1.105 0 1.828.772 1.863 1.96h-3.824c.084-1.182.855-1.96 1.961-1.96Zm1.856 4.4c-.278.591-.897.918-1.801.918-1.195 0-1.967-.841-2.016-2.169v-.083h5.346v-.522c0-2.377-1.272-3.816-3.378-3.816-2.135 0-3.49 1.536-3.49 3.955 0 2.42 1.328 3.907 3.497 3.907 1.731 0 2.94-.834 3.281-2.19h-1.439ZM41.488 34.004a8.356 8.356 0 0 1 3.947-6.955 8.59 8.59 0 0 0-6.685-3.614c-2.813-.295-5.54 1.683-6.973 1.683-1.461 0-3.668-1.654-6.044-1.605a8.976 8.976 0 0 0-7.492 4.57c-3.24 5.608-.824 13.85 2.28 18.384 1.552 2.22 3.366 4.7 5.74 4.612 2.324-.096 3.192-1.482 5.996-1.482 2.779 0 3.593 1.482 6.015 1.426 2.493-.04 4.064-2.23 5.562-4.47a18.363 18.363 0 0 0 2.543-5.18c-2.93-1.24-4.886-4.188-4.89-7.37Zm-4.576-13.551a8.161 8.161 0 0 0 1.867-5.847 8.304 8.304 0 0 0-5.373 2.78 7.837 7.837 0 0 0-1.915 5.63 6.946 6.946 0 0 0 5.421-2.563ZM4.939 66.391l-.383.924.383-.924Zm195.452-4.33.924.383-.924-.383Zm-4.33 4.33-.382-.924.382.924Zm0-65.782-.382.924.382-.924ZM12 1h177v-2H12v2Zm188 11v43h2V12h-2Zm-11 54H12v2h177v-2ZM1 55V12h-2v43h2Zm11 11c-1.877 0-3.235 0-4.31-.074-1.064-.072-1.776-.213-2.369-.459l-.765 1.848c.877.363 1.832.527 2.999.607C8.712 68 10.15 68 12 68v-2ZM-1 55c0 1.85 0 3.288.078 4.445.08 1.167.244 2.122.607 3l1.848-.766c-.246-.593-.387-1.305-.46-2.37C1.002 58.236 1 56.878 1 55h-2Zm6.321 10.467a7 7 0 0 1-3.788-3.788l-1.848.765a9 9 0 0 0 4.87 4.87l.766-1.847ZM200 55c0 1.877-.001 3.236-.074 4.31-.072 1.064-.213 1.776-.459 2.369l1.848.765c.363-.877.527-1.832.607-2.999.079-1.157.078-2.595.078-4.445h-2Zm-11 13c1.85 0 3.288 0 4.445-.078 1.167-.08 2.122-.244 2.999-.607l-.765-1.848c-.593.246-1.305.387-2.37.46-1.074.072-2.432.073-4.309.073v2Zm10.467-6.321a6.999 6.999 0 0 1-3.788 3.788l.765 1.848a9.003 9.003 0 0 0 4.871-4.87l-1.848-.766ZM189 1c1.877 0 3.235 0 4.309.074 1.065.072 1.777.213 2.37.459l.765-1.848c-.877-.363-1.832-.527-2.999-.607C192.288-1 190.85-1 189-1v2Zm13 11c0-1.85.001-3.288-.078-4.445-.08-1.167-.244-2.122-.607-3l-1.848.766c.246.593.387 1.305.459 2.37.073 1.074.074 2.432.074 4.309h2Zm-6.321-10.467a6.999 6.999 0 0 1 3.788 3.788l1.848-.765a9.003 9.003 0 0 0-4.871-4.87l-.765 1.847ZM12-1c-1.85 0-3.288 0-4.445.078-1.167.08-2.122.244-3 .607l.766 1.848c.593-.246 1.305-.387 2.37-.46C8.765 1.002 10.123 1 12 1v-2ZM1 12c0-1.877 0-3.235.074-4.31.072-1.064.213-1.776.459-2.369l-1.848-.765c-.363.877-.527 1.832-.607 2.999C-1 8.712-1 10.15-1 12h2ZM4.556-.315a9 9 0 0 0-4.87 4.87l1.847.766A7 7 0 0 1 5.32 1.533L4.556-.315Z" fill="#fff"/></svg>