<svg width="40" height="40" viewBox="0 0 40 40" fill="none" xmlns="http://www.w3.org/2000/svg"><path fill-rule="evenodd" clip-rule="evenodd" d="M6.09 2.998h9.273a3.094 3.094 0 0 1 3.09 3.092v9.273a3.094 3.094 0 0 1-3.09 3.09H6.09a3.094 3.094 0 0 1-3.091-3.09V6.09a3.094 3.094 0 0 1 3.09-3.091Zm9.273 13.91c.852 0 1.545-.693 1.545-1.545V6.09c0-.852-.693-1.546-1.545-1.546H6.09c-.852 0-1.546.694-1.546 1.546v9.273c0 .852.694 1.545 1.546 1.545h9.273Zm9.276-13.91h9.273a3.094 3.094 0 0 1 3.091 3.092v9.273a3.094 3.094 0 0 1-3.091 3.09h-9.273a3.094 3.094 0 0 1-3.091-3.09V6.09a3.094 3.094 0 0 1 3.09-3.091Zm9.273 13.91c.852 0 1.546-.693 1.546-1.545V6.09c0-.852-.694-1.546-1.546-1.546h-9.273c-.852 0-1.546.694-1.546 1.546v9.273c0 .852.694 1.545 1.546 1.545h9.273Zm-18.55 4.637H6.09a3.094 3.094 0 0 0-3.091 3.09v9.274A3.094 3.094 0 0 0 6.089 37h9.274a3.094 3.094 0 0 0 3.09-3.091v-9.273a3.094 3.094 0 0 0-3.09-3.091Zm1.546 12.364c0 .852-.693 1.546-1.545 1.546H6.09a1.548 1.548 0 0 1-1.546-1.546v-9.273c0-.852.694-1.546 1.546-1.546h9.273c.852 0 1.545.694 1.545 1.546v9.273Zm13.134-5.41h3.091a.772.772 0 1 1 0 1.546h-3.09v3.091a.772.772 0 1 1-1.546 0v-3.09h-3.091a.772.772 0 1 1 0-1.546h3.09v-3.091a.772.772 0 1 1 1.546 0v3.09Z" fill="#161616"/><path fill-rule="evenodd" clip-rule="evenodd" d="M6.09 2.748h9.273a3.344 3.344 0 0 1 3.34 3.342v9.273a3.344 3.344 0 0 1-3.34 3.34H6.09a3.344 3.344 0 0 1-3.341-3.34V6.09a3.344 3.344 0 0 1 3.34-3.341Zm9.273 13.91c.713 0 1.295-.582 1.295-1.295V6.09c0-.714-.582-1.296-1.295-1.296H6.09c-.714 0-1.296.582-1.296 1.296v9.273c0 .713.582 1.295 1.296 1.295h9.273Zm9.276-13.91h9.273a3.344 3.344 0 0 1 3.341 3.342v9.273a3.344 3.344 0 0 1-3.341 3.34h-9.273a3.344 3.344 0 0 1-3.341-3.34V6.09a3.344 3.344 0 0 1 3.34-3.341Zm9.273 13.91c.714 0 1.296-.582 1.296-1.295V6.09c0-.714-.582-1.296-1.296-1.296h-9.273c-.714 0-1.296.582-1.296 1.296v9.273c0 .713.582 1.295 1.296 1.295h9.273ZM6.09 21.295h9.273a3.344 3.344 0 0 1 3.34 3.34v9.274a3.344 3.344 0 0 1-3.34 3.341H6.09a3.344 3.344 0 0 1-3.341-3.341v-9.273a3.344 3.344 0 0 1 3.34-3.341Zm9.273 13.91c.713 0 1.295-.582 1.295-1.296v-9.273c0-.714-.582-1.296-1.295-1.296H6.09c-.714 0-1.296.582-1.296 1.296v9.273c0 .714.582 1.296 1.296 1.296h9.273Zm14.93-6.955h2.84a1.022 1.022 0 1 1 0 2.045h-2.84v2.841a1.022 1.022 0 1 1-2.046 0v-2.84h-2.841a1.022 1.022 0 1 1 0-2.046h2.84v-2.841a1.022 1.022 0 1 1 2.046 0v2.84ZM15.362 2.998H6.09A3.094 3.094 0 0 0 2.999 6.09v9.273a3.094 3.094 0 0 0 3.09 3.09h9.274a3.094 3.094 0 0 0 3.09-3.09V6.09a3.094 3.094 0 0 0-3.09-3.091Zm1.545 12.365c0 .852-.693 1.545-1.545 1.545H6.09a1.548 1.548 0 0 1-1.546-1.545V6.09c0-.852.694-1.546 1.546-1.546h9.273c.852 0 1.545.694 1.545 1.546v9.273ZM33.912 2.999h-9.273a3.094 3.094 0 0 0-3.091 3.09v9.274a3.094 3.094 0 0 0 3.09 3.09h9.274a3.094 3.094 0 0 0 3.091-3.09V6.09a3.094 3.094 0 0 0-3.091-3.091Zm1.546 12.364c0 .852-.694 1.545-1.546 1.545h-9.273a1.547 1.547 0 0 1-1.546-1.545V6.09c0-.852.694-1.546 1.546-1.546h9.273c.852 0 1.546.694 1.546 1.546v9.273ZM6.09 21.545h9.273a3.094 3.094 0 0 1 3.09 3.09v9.274A3.094 3.094 0 0 1 15.364 37H6.09a3.094 3.094 0 0 1-3.091-3.091v-9.273a3.094 3.094 0 0 1 3.09-3.091Zm9.273 13.91c.852 0 1.545-.694 1.545-1.546v-9.273c0-.852-.693-1.546-1.545-1.546H6.09c-.852 0-1.546.694-1.546 1.546v9.273c0 .852.694 1.546 1.546 1.546h9.273Zm14.68-6.955v-3.091a.772.772 0 1 0-1.546 0v3.09h-3.091a.772.772 0 1 0 0 1.546h3.09v3.091a.772.772 0 1 0 1.546 0v-3.09h3.091a.772.772 0 1 0 0-1.546h-3.09Z" fill="#161616"/></svg>