<svg width="40" height="40" viewBox="0 0 40 40" fill="none" xmlns="http://www.w3.org/2000/svg">
<path fill-rule="evenodd" clip-rule="evenodd" d="M20.7071 5.2929L20.7076 5.29341L28.7071 13.2929C29.0976 13.6834 29.0976 14.3166 28.7071 14.7071C28.3166 15.0976 27.6834 15.0976 27.2929 14.7071L21 8.41422V34C21 34.5523 20.5523 35 20 35C19.4477 35 19 34.5523 19 34V8.41422L12.7071 14.7071C12.3166 15.0976 11.6834 15.0976 11.2929 14.7071C10.9024 14.3166 10.9024 13.6834 11.2929 13.2929L19.2929 5.2929L19.295 5.29078M19.295 5.29077C19.386 5.20028 19.4901 5.13091 19.6012 5.08267C19.6065 5.08036 19.6119 5.07809 19.6172 5.07588" fill="#161616"/>
</svg>
