<svg width="90" height="90" viewBox="0 0 90 90" fill="none" xmlns="http://www.w3.org/2000/svg"><circle opacity=".5" cx="45" cy="45" r="45" fill="#FFE603"/><path d="M37.26 30.586A7.82 7.82 0 0 1 42 29a3.514 3.514 0 0 1 3 1.56A3.514 3.514 0 0 1 48 29a7.82 7.82 0 0 1 4.74 1.586c1.05.816 1.86 1.946 2.146 3.312.656.05 1.256.322 1.76.732.764.62 1.32 1.55 1.67 2.534.548 1.53.696 3.48.128 5.14.144.068.286.148.424.24.55.366.968.89 1.276 1.508C60.75 45.262 61 46.95 61 49c0 2.282-.87 3.814-1.974 4.76a5.361 5.361 0 0 1-2.108 1.11c-.2 1.116-.76 2.408-1.638 3.504C54.14 59.804 52.372 61 50 61c-1.88 0-3.376-1.04-4.348-2.06-.232-.243-.45-.5-.652-.77-.202.27-.42.526-.652.77C43.376 59.96 41.882 61 40 61c-2.372 0-4.138-1.196-5.28-2.626a8.114 8.114 0 0 1-1.638-3.504 5.361 5.361 0 0 1-2.108-1.11C29.87 52.814 29 51.28 29 49c0-2.05.252-3.74.856-4.948.308-.618.726-1.14 1.276-1.51.135-.09.277-.168.424-.236-.568-1.664-.42-3.612.128-5.142.35-.984.906-1.914 1.67-2.534.504-.41 1.104-.68 1.76-.732.288-1.366 1.098-2.496 2.148-3.312h-.002ZM44 34v-.02l-.004-.1a5.488 5.488 0 0 0-.308-1.528 2.444 2.444 0 0 0-.618-.98A1.52 1.52 0 0 0 42 31a5.82 5.82 0 0 0-3.512 1.164C37.56 32.886 37 33.864 37 35a1 1 0 0 1-1.316.948c-.376-.124-.712-.054-1.07.234-.392.32-.774.888-1.048 1.654-.558 1.564-.5 3.458.266 4.61A1 1 0 0 1 34 43h1.5a4.5 4.5 0 0 1 4.5 4.5v.67a3 3 0 1 1-2 0v-.67a2.5 2.5 0 0 0-2.5-2.5H32a.999.999 0 0 1-.35-.064l-.006.012C31.248 45.738 31 47.05 31 49c0 1.718.63 2.686 1.276 3.24.694.596 1.464.76 1.724.76a1 1 0 0 1 1 1c0 .736.4 2.022 1.28 3.126C37.138 58.196 38.372 59 40 59c1.12 0 2.124-.626 2.9-1.44.382-.4.68-.814.874-1.154a3.15 3.15 0 0 0 .226-.472V40h-2.17a3 3 0 1 1 0-2H44v-4Zm2 19.998v1.934c.062.163.138.321.226.472.196.34.492.754.872 1.154.778.814 1.784 1.44 2.902 1.44 1.628 0 2.862-.804 3.72-1.874.88-1.104 1.28-2.39 1.28-3.126a1 1 0 0 1 1-1c.26 0 1.03-.164 1.724-.76.646-.554 1.276-1.522 1.276-3.24 0-1.95-.25-3.26-.644-4.052a1.846 1.846 0 0 0-.6-.74A1.314 1.314 0 0 0 57 44a1 1 0 0 1-.832-1.554c.768-1.152.824-3.046.266-4.61-.274-.766-.656-1.336-1.048-1.654-.358-.288-.694-.36-1.07-.234A1 1 0 0 1 53 35c0-1.136-.56-2.114-1.49-2.836A5.82 5.82 0 0 0 48 31a1.52 1.52 0 0 0-1.07.372 2.44 2.44 0 0 0-.62.98A5.158 5.158 0 0 0 46 33.98V52h1.5a2.5 2.5 0 0 0 2.5-2.5v-3.67a3 3 0 1 1 2 0v3.67a4.5 4.5 0 0 1-4.5 4.5H46v-.002ZM38 39a1 1 0 1 0 2 0 1 1 0 0 0-2 0Zm13 5a1 1 0 1 0 0-2 1 1 0 0 0 0 2Zm-12 6a1 1 0 1 0 0 2 1 1 0 0 0 0-2Z" fill="#000"/></svg>