<svg width="24" height="24" viewBox="0 0 24 24" fill="none" xmlns="http://www.w3.org/2000/svg"><path fill-rule="evenodd" clip-rule="evenodd" d="M14.887 4.124A4.8 4.8 0 0 0 7.2 7.959v8.483a.6.6 0 1 1-1.2 0V7.96a6 6 0 0 1 12 0v10.214a4.13 4.13 0 0 1-5.982 3.691l-.172-.086a4.48 4.48 0 0 1-2.471-4.004v-8.21a2.76 2.76 0 0 1 1.386-2.394l.176-.1a2.463 2.463 0 0 1 3.688 2.137v7.235a.6.6 0 1 1-1.2 0V9.207a1.263 1.263 0 0 0-1.891-1.096l-.176.1a1.56 1.56 0 0 0-.783 1.353v8.21c0 1.24.7 2.375 1.809 2.931l.172.087a2.93 2.93 0 0 0 4.244-2.619V7.96a4.8 4.8 0 0 0-1.913-3.835Z" fill="#161616"/></svg>