<svg width="40" height="40" viewBox="0 0 40 40" fill="none" xmlns="http://www.w3.org/2000/svg"><path fill-rule="evenodd" clip-rule="evenodd" d="M24.811 6.873A8 8 0 0 0 12 13.264v14.14a1 1 0 1 1-2 0v-14.14a10 10 0 0 1 20 0v17.024a6.883 6.883 0 0 1-9.97 6.152l-.287-.144a7.466 7.466 0 0 1-4.118-6.673V15.939a4.6 4.6 0 0 1 2.31-3.989l.293-.167a4.105 4.105 0 0 1 6.147 3.56v12.06a1 1 0 1 1-2 0v-12.06a2.105 2.105 0 0 0-3.152-1.825l-.292.167a2.598 2.598 0 0 0-1.306 2.254v13.684a5.466 5.466 0 0 0 3.015 4.886l.287.144A4.884 4.884 0 0 0 28 30.288V13.265a8 8 0 0 0-3.189-6.392Z" fill="#161616"/></svg>