<svg width="40" height="40" viewBox="0 0 40 40" fill="none" xmlns="http://www.w3.org/2000/svg"><path fill-rule="evenodd" clip-rule="evenodd" d="M3.116 12c.616 0 1.115-.5 1.115-1.116V5.231h5.653a1.116 1.116 0 0 0 0-2.231H3.116C2.5 3 2 3.5 2 4.116v6.768C2 11.501 2.5 12 3.116 12ZM4.23 34.769h5.653a1.116 1.116 0 1 1 0 2.231H3.116C2.5 37 2 36.5 2 35.884v-6.768a1.116 1.116 0 0 1 2.231 0v5.653Zm31.538-5.653a1.116 1.116 0 1 1 2.231 0v6.768c0 .617-.5 1.116-1.116 1.116h-6.768a1.116 1.116 0 1 1 0-2.231h5.653v-5.653ZM30.107 3h6.786C37.505 3 38 3.5 38 4.116v6.768c0 .617-.495 1.116-1.107 1.116-.61 0-1.106-.5-1.106-1.116V5.231h-5.68c-.612 0-1.107-.5-1.107-1.115C29 3.5 29.495 3 30.107 3ZM20 17.537Zm.346-8.732a4.379 4.379 0 0 0 0 0ZM20 10.3a2.868 2.868 0 0 1 0 0Zm11.61 4.474a2.768 2.768 0 0 1-2.764 2.764h-.013.014a2.768 2.768 0 0 0 2.764-2.764Zm-2.767 1.256a1.258 1.258 0 0 1-1.253-1.256 1.258 1.258 0 0 0 0 0c0 .691.561 1.254 1.253 1.256Zm-3.655 5.195a6.063 6.063 0 0 0 0 0Zm7.68 1.414c0-1.797-1.415-3.273-3.195-3.385 1.78.112 3.194 1.588 3.195 3.385v5.437a1.53 1.53 0 0 0 0 0v-5.437Zm-6.09 6.962a1.762 1.762 0 0 0 0 0ZM11.713 19.246c1.374 0 2.56.812 3.1 1.978a3.418 3.418 0 0 0-3.1-1.978ZM8.64 22.638c0-1.039.854-1.884 1.905-1.884-1.05 0-1.905.845-1.905 1.884v5.454-5.454Zm3.083-1.884h-.012.012Zm7.573 0a4.58 4.58 0 0 0-4.574 4.575v4.12a.253.253 0 0 1 0 0v-4.12a4.58 4.58 0 0 1 4.574-4.575Zm1.435 0h-.03.03Zm10.33 7.339H29.619m-.002 0h.001m-.15-7.339h-.013.013Zm-1.178 0c-1.05 0-1.905.845-1.905 1.884v.516c.424 1.106.42 1.828.407 3.712l-.005.926v.3c0-.459.002-.864.005-1.226.012-1.884.017-2.606-.408-3.712v-.516c0-1.039.855-1.884 1.905-1.884Zm-14.37-5.981a2.768 2.768 0 0 1-2.765 2.764h-.014.014a2.768 2.768 0 0 0 2.764-2.764Zm-2.765-1.257a1.258 1.258 0 1 0-1.256 1.257c0-.693.563-1.257 1.256-1.257Zm1.756 13.356c.002.28.004.585.004.92H8.941v-5.154c0-.87.717-1.584 1.605-1.584h1.166c.888 0 1.605.714 1.605 1.584v.461c-.425 1.132-.42 1.924-.408 3.735v.038ZM20 17.837a4.678 4.678 0 0 0 4.673-4.673A4.678 4.678 0 0 0 20 8.491a4.678 4.678 0 0 0-4.673 4.673A4.678 4.678 0 0 0 20 17.837Zm0-7.238a2.568 2.568 0 0 1 2.565 2.565A2.568 2.568 0 0 1 20 15.73a2.568 2.568 0 0 1-2.565-2.565A2.568 2.568 0 0 1 20 10.6Zm8.847 7.238a3.068 3.068 0 0 0 3.064-3.064 3.068 3.068 0 0 0-3.064-3.065 3.068 3.068 0 0 0-3.065 3.065 3.068 3.068 0 0 0 3.065 3.064Zm0-4.02c.527 0 .956.429.956.956 0 .527-.43.956-.956.956a.958.958 0 0 1-.957-.956c0-.527.43-.957.957-.957Zm.608 5.13h-1.166c-1.343 0-2.52.712-3.172 1.775a6.361 6.361 0 0 0-4.414-1.776h-1.405a6.361 6.361 0 0 0-4.414 1.776 3.717 3.717 0 0 0-3.172-1.776h-1.166c-2.046 0-3.713 1.654-3.713 3.692v5.49c0 .978.799 1.772 1.778 1.772h4.354a2.063 2.063 0 0 0 2.01 1.609h10.05c.982 0 1.804-.69 2.01-1.609h4.302a1.83 1.83 0 0 0 1.83-1.825v-5.437c0-2.038-1.667-3.692-3.712-3.692Zm-4.477 6.382V29.4h-9.955v-4.072a4.28 4.28 0 0 1 4.275-4.275h1.405a4.28 4.28 0 0 1 4.275 4.275Zm6.081-2.69v5.154h-3.973c0-.337.003-.644.005-.925v-.038c.012-1.821.017-2.6-.408-3.73v-.462c0-.87.718-1.584 1.605-1.584h1.167c.887 0 1.605.714 1.605 1.584Zm-19.905-4.802a3.068 3.068 0 0 0 3.065-3.064 3.068 3.068 0 0 0-3.065-3.065 3.068 3.068 0 0 0-3.064 3.065 3.068 3.068 0 0 0 3.064 3.064Zm0-4.02c.527 0 .957.429.957.956a.958.958 0 0 1-1.913 0c0-.527.429-.957.956-.957Z" fill="#161616"/></svg>