<svg width="48" height="48" viewBox="0 0 48 48" fill="none" xmlns="http://www.w3.org/2000/svg"><path d="M28.313 17.037h6.234v1.512h-6.234v-1.512Zm-6.247 5.984c1.378-.659 2.1-1.662 2.1-3.212 0-3.066-2.282-3.81-4.916-3.81H12v15.388h7.453c2.794 0 5.416-1.344 5.416-4.469 0-1.931-.913-3.36-2.803-3.897Zm-6.685-4.396h3.172c1.222 0 2.319.34 2.319 1.759 0 1.306-.853 1.831-2.063 1.831h-3.428v-3.59Zm3.61 10.15h-3.613v-4.238h3.684c1.488 0 2.429.622 2.429 2.197 0 1.55-1.122 2.04-2.5 2.04Zm17.993-2.797c0-3.297-1.928-6.044-5.415-6.044-3.39 0-5.697 2.553-5.697 5.9 0 3.469 2.184 5.85 5.697 5.85 2.66 0 4.381-1.197 5.21-3.75H34.08c-.294.953-1.487 1.453-2.415 1.453-1.794 0-2.732-1.05-2.732-2.834h8.028c.01-.185.022-.379.022-.575Zm-8.05-1.357c.097-1.465 1.075-2.38 2.538-2.38 1.537 0 2.306.902 2.44 2.38h-4.978Z" fill="#171717"/><circle opacity=".3" cx="24" cy="24" r="23.5" stroke="#171717"/></svg>