<svg width="35" height="22" viewBox="0 0 35 22" fill="none" xmlns="http://www.w3.org/2000/svg"><path d="M32.083 2.917H21.875V0h10.208v2.917Zm2.48 14.583c-.584 1.896-2.917 4.375-7.438 4.375-4.52 0-8.167-2.48-8.167-8.313 0-5.687 3.355-8.604 8.021-8.604 4.521 0 7.292 2.625 7.875 6.417.146.73.146 1.75.146 3.208H23.333c.146 4.667 5.105 4.813 6.709 2.917h4.52Zm-11.23-5.833h7.292c-.146-2.188-1.604-3.209-3.646-3.209-2.041 0-3.208 1.021-3.646 3.209ZM9.48 21.875H0V0h10.208c8.021.146 8.167 7.875 3.938 10.063 4.958 1.895 5.104 11.812-4.667 11.812ZM4.375 8.75h5.25c3.646 0 4.23-4.375-.438-4.375H4.375V8.75Zm4.958 4.375H4.375V17.5h4.813c4.52 0 4.229-4.375.145-4.375Z" fill="#161616"/></svg>