<svg width="90" height="90" viewBox="0 0 90 90" fill="none" xmlns="http://www.w3.org/2000/svg"><circle opacity=".5" cx="45" cy="45" r="45" fill="#FFE603"/><g clip-path="url(#a)" fill="#161616"><path d="M27.245 32.466a.62.62 0 0 0 .617-.617.62.62 0 0 0-.617-.616.618.618 0 0 0 0 1.233Zm1.973 0a.617.617 0 0 0 0-1.233.619.619 0 0 0-.616.616.619.619 0 0 0 .616.617Zm1.972 0a.62.62 0 0 0 .617-.617.62.62 0 0 0-.616-.616.62.62 0 0 0-.617.616.62.62 0 0 0 .617.617Z"/><path d="M60.123 37.708H48.288c-1.1 0-2 .88-2.03 1.973h-.6c-1.12 0-2.032.911-2.032 2.031v5.202H42.43V45c0-1.12-.911-2.032-2.032-2.032h-10.52c-1.12 0-2.032.912-2.032 2.032v5.26c0 1.12.912 2.032 2.032 2.032h10.52c1.12 0 2.032-.911 2.032-2.032v-1.913h1.197v5.201c0 1.12.911 2.032 2.032 2.032h.6a2.034 2.034 0 0 0 2.03 1.972h11.835c1.12 0 2.032-.911 2.032-2.031v-1.316c0-1.12-.911-2.031-2.032-2.031H48.288c-1.1 0-2 .88-2.03 1.973h-.6a.6.6 0 0 1-.599-.599v-5.201h1.198a2.034 2.034 0 0 0 2.03 1.972h11.836c1.12 0 2.032-.911 2.032-2.031v-1.315c0-1.12-.911-2.032-2.032-2.032H48.288c-1.1 0-2 .88-2.03 1.973h-1.199v-5.202a.6.6 0 0 1 .599-.598h.6a2.034 2.034 0 0 0 2.03 1.972h11.835c1.12 0 2.032-.91 2.032-2.031V39.74c0-1.12-.911-2.032-2.032-2.032ZM40.996 50.26a.6.6 0 0 1-.599.599h-10.52a.6.6 0 0 1-.599-.599V45a.6.6 0 0 1 .599-.599h10.52a.6.6 0 0 1 .599.599v5.26Zm6.693 3.946a.6.6 0 0 1 .599-.6h11.835a.6.6 0 0 1 .599.6v1.315a.6.6 0 0 1-.599.598H48.288a.6.6 0 0 1-.599-.598v-1.316Zm0-7.233a.6.6 0 0 1 .599-.599h11.835a.6.6 0 0 1 .599.599v1.315a.6.6 0 0 1-.599.598H48.288a.6.6 0 0 1-.599-.598v-1.315Zm13.033-5.918a.6.6 0 0 1-.599.598H48.288a.6.6 0 0 1-.599-.598V39.74a.6.6 0 0 1 .599-.599h11.835a.6.6 0 0 1 .599.599v1.315Z" stroke="#161616" stroke-width=".2"/><path d="M62.753 28.503H27.247a3.35 3.35 0 0 0-3.347 3.346v26.302a3.35 3.35 0 0 0 3.347 3.346h35.506a3.35 3.35 0 0 0 3.347-3.346V31.849a3.35 3.35 0 0 0-3.347-3.346Zm-35.506 1.433h35.506c1.056 0 1.914.858 1.914 1.913v1.914H25.333V31.85c0-1.055.859-1.913 1.914-1.913Zm35.506 30.128H27.247a1.916 1.916 0 0 1-1.914-1.913V35.196h39.334V58.15a1.916 1.916 0 0 1-1.914 1.913Z" stroke="#161616" stroke-width=".2"/></g><defs><clipPath id="a"><path fill="#fff" transform="translate(24 24)" d="M0 0h42v42H0z"/></clipPath></defs></svg>