<svg width="201" height="67" viewBox="0 0 201 67" fill="none" xmlns="http://www.w3.org/2000/svg"><path d="M0 12c0-3.728 0-5.591.609-7.061a8 8 0 0 1 4.33-4.33C6.409 0 8.272 0 12 0h177c3.728 0 5.591 0 7.061.609a7.998 7.998 0 0 1 4.33 4.33C201 6.409 201 8.272 201 12v43c0 3.727 0 5.591-.609 7.062a7.998 7.998 0 0 1-4.33 4.329C194.591 67 192.728 67 189 67H12c-3.728 0-5.591 0-7.061-.609a8 8 0 0 1-4.33-4.33C0 60.592 0 58.727 0 55V12Z" fill="#171717"/><path d="M136.556 32.162v3.837h-2.406v2.517h2.406v8.55c0 2.92 1.321 4.088 4.644 4.088.584 0 1.14-.07 1.626-.153v-2.488c-.417.041-.681.069-1.14.069-1.488 0-2.141-.695-2.141-2.28v-7.786h3.281v-2.517h-3.281v-3.837h-2.989ZM151.291 51.363c4.422 0 7.133-2.962 7.133-7.87 0-4.88-2.725-7.855-7.133-7.855-4.421 0-7.146 2.975-7.146 7.855 0 4.908 2.711 7.87 7.146 7.87Zm0-2.656c-2.6 0-4.059-1.905-4.059-5.214 0-3.281 1.459-5.2 4.059-5.2 2.587 0 4.06 1.919 4.06 5.2 0 3.295-1.473 5.214-4.06 5.214ZM160.744 51.07h2.989v-8.94c0-2.127 1.599-3.559 3.865-3.559.529 0 1.419.098 1.669.181v-2.948c-.32-.083-.89-.125-1.335-.125-1.974 0-3.657 1.085-4.088 2.572h-.222V35.93h-2.878v15.142ZM176.689 38.182c2.211 0 3.657 1.543 3.727 3.92h-7.648c.167-2.363 1.711-3.92 3.921-3.92Zm3.713 8.801c-.557 1.182-1.794 1.835-3.601 1.835-2.392 0-3.935-1.682-4.033-4.338v-.166h10.692V43.27c0-4.755-2.544-7.633-6.757-7.633-4.268 0-6.98 3.072-6.98 7.91 0 4.84 2.656 7.815 6.994 7.815 3.462 0 5.881-1.669 6.563-4.38h-2.878ZM116.952 45.48c.231 3.717 3.329 6.095 7.941 6.095 4.928 0 8.012-2.493 8.012-6.47 0-3.127-1.758-4.857-6.024-5.851l-2.291-.562c-2.709-.634-3.805-1.484-3.805-2.969 0-1.873 1.701-3.098 4.252-3.098 2.421 0 4.092 1.196 4.395 3.113h3.142c-.188-3.502-3.272-5.966-7.494-5.966-4.54 0-7.566 2.464-7.566 6.167 0 3.056 1.715 4.871 5.476 5.75l2.681.649c2.752.648 3.963 1.6 3.963 3.185 0 1.844-1.902 3.184-4.496 3.184-2.782 0-4.713-1.253-4.987-3.228h-3.199ZM85.986 35.68c-2.058 0-3.838 1.028-4.755 2.752h-.223V35.93H78.13v20.175h2.99v-7.327h.236c.792 1.599 2.503 2.544 4.658 2.544 3.823 0 6.256-3.017 6.256-7.828 0-4.81-2.433-7.814-6.284-7.814Zm-.848 12.958c-2.503 0-4.074-1.975-4.074-5.13 0-3.171 1.571-5.145 4.088-5.145 2.53 0 4.046 1.932 4.046 5.13 0 3.212-1.516 5.145-4.06 5.145ZM102.731 35.68c-2.058 0-3.838 1.028-4.756 2.752h-.222V35.93h-2.878v20.175h2.99v-7.327h.236c.792 1.599 2.502 2.544 4.657 2.544 3.824 0 6.257-3.017 6.257-7.828 0-4.81-2.433-7.814-6.284-7.814Zm-.849 12.958c-2.502 0-4.073-1.975-4.073-5.13 0-3.171 1.57-5.145 4.087-5.145 2.531 0 4.046 1.932 4.046 5.13 0 3.212-1.515 5.145-4.06 5.145ZM72.767 51.07h3.43l-7.508-20.794h-3.473L57.708 51.07h3.314l1.917-5.52h7.926l1.902 5.52Zm-5.98-17.019h.244l3.012 8.791H63.76l3.026-8.79ZM59.716 14.59v10.032h3.621c2.99 0 4.72-1.842 4.72-5.047 0-3.156-1.744-4.984-4.72-4.984h-3.621Zm1.557 1.419h1.89c2.08 0 3.31 1.32 3.31 3.587 0 2.301-1.21 3.608-3.31 3.608h-1.89V16.01ZM73.36 24.768c2.21 0 3.566-1.48 3.566-3.934 0-2.44-1.363-3.928-3.567-3.928-2.21 0-3.573 1.487-3.573 3.928 0 2.454 1.356 3.934 3.573 3.934Zm0-1.328c-1.3 0-2.03-.952-2.03-2.606 0-1.641.73-2.6 2.03-2.6 1.292 0 2.03.959 2.03 2.6 0 1.647-.738 2.607-2.03 2.607ZM88.47 17.052h-1.495l-1.348 5.777h-.118l-1.558-5.777H82.52l-1.557 5.777h-.111l-1.356-5.777H77.98l2.085 7.57h1.537l1.557-5.575h.118l1.564 5.575h1.55l2.079-7.57ZM90.191 24.622h1.495v-4.428c0-1.182.702-1.919 1.807-1.919 1.106 0 1.634.605 1.634 1.822v4.525h1.495v-4.9c0-1.801-.932-2.816-2.621-2.816-1.14 0-1.89.507-2.26 1.348h-.11v-1.202h-1.44v7.57ZM98.976 24.622h1.494V14.097h-1.494v10.525ZM106.092 24.768c2.21 0 3.566-1.48 3.566-3.934 0-2.44-1.363-3.928-3.566-3.928-2.211 0-3.574 1.487-3.574 3.928 0 2.454 1.356 3.934 3.574 3.934Zm0-1.328c-1.3 0-2.03-.952-2.03-2.606 0-1.641.73-2.6 2.03-2.6 1.293 0 2.03.959 2.03 2.6 0 1.647-.737 2.607-2.03 2.607ZM114.111 23.49c-.813 0-1.404-.397-1.404-1.078 0-.668.473-1.022 1.516-1.092l1.849-.118v.633c0 .938-.834 1.654-1.961 1.654Zm-.382 1.258c.994 0 1.821-.431 2.273-1.19h.119v1.064h1.439V19.45c0-1.599-1.071-2.544-2.969-2.544-1.717 0-2.941.834-3.093 2.134h1.446c.166-.535.743-.841 1.578-.841 1.022 0 1.55.452 1.55 1.251v.654l-2.051.118c-1.8.111-2.815.897-2.815 2.26 0 1.383 1.063 2.265 2.523 2.265ZM122.632 24.747c1.042 0 1.925-.493 2.377-1.32h.118v1.195h1.433V14.097h-1.495v4.157h-.111c-.411-.834-1.286-1.327-2.322-1.327-1.912 0-3.143 1.515-3.143 3.907 0 2.398 1.217 3.913 3.143 3.913Zm.424-6.479c1.251 0 2.037.994 2.037 2.572 0 1.586-.779 2.566-2.037 2.566-1.265 0-2.023-.966-2.023-2.572 0-1.592.764-2.566 2.023-2.566ZM136.252 24.768c2.211 0 3.566-1.48 3.566-3.934 0-2.44-1.362-3.928-3.566-3.928-2.211 0-3.573 1.487-3.573 3.928 0 2.454 1.355 3.934 3.573 3.934Zm0-1.328c-1.3 0-2.03-.952-2.03-2.606 0-1.641.73-2.6 2.03-2.6 1.293 0 2.03.959 2.03 2.6 0 1.647-.737 2.607-2.03 2.607ZM141.797 24.622h1.494v-4.428c0-1.182.703-1.919 1.808-1.919s1.634.605 1.634 1.822v4.525h1.494v-4.9c0-1.801-.931-2.816-2.621-2.816-1.14 0-1.891.507-2.259 1.348h-.111v-1.202h-1.439v7.57ZM155.111 15.168v1.919h-1.203v1.258h1.203v4.275c0 1.46.66 2.044 2.322 2.044.292 0 .57-.035.813-.076v-1.245c-.208.021-.34.035-.57.035-.744 0-1.07-.348-1.07-1.14v-3.893h1.64v-1.258h-1.64v-1.92h-1.495ZM160.253 24.622h1.494v-4.421c0-1.147.682-1.919 1.905-1.919 1.057 0 1.62.612 1.62 1.822v4.518h1.495v-4.887c0-1.8-.995-2.822-2.607-2.822-1.141 0-1.94.507-2.308 1.355h-.119v-4.17h-1.48v10.524ZM172.158 18.178c1.106 0 1.829.772 1.864 1.96h-3.824c.083-1.182.855-1.96 1.96-1.96Zm1.857 4.4c-.278.591-.897.918-1.801.918-1.196 0-1.967-.841-2.016-2.169v-.083h5.346v-.522c0-2.377-1.272-3.816-3.379-3.816-2.134 0-3.489 1.536-3.489 3.955 0 2.42 1.327 3.907 3.496 3.907 1.731 0 2.941-.834 3.282-2.19h-1.439ZM41.488 34.004a8.356 8.356 0 0 1 3.947-6.955 8.59 8.59 0 0 0-6.685-3.614c-2.813-.295-5.54 1.683-6.973 1.683-1.461 0-3.668-1.654-6.044-1.605a8.976 8.976 0 0 0-7.492 4.57c-3.24 5.608-.823 13.85 2.28 18.384 1.552 2.22 3.367 4.7 5.741 4.612 2.323-.096 3.191-1.482 5.995-1.482 2.779 0 3.593 1.482 6.015 1.426 2.493-.04 4.064-2.23 5.562-4.47a18.36 18.36 0 0 0 2.544-5.18c-2.93-1.24-4.887-4.188-4.89-7.37ZM36.912 20.453a8.162 8.162 0 0 0 1.867-5.847 8.304 8.304 0 0 0-5.373 2.78 7.836 7.836 0 0 0-1.915 5.63 6.947 6.947 0 0 0 5.421-2.563Z" fill="#fff"/><path d="m4.939 66.391-.383.924.383-.924Zm195.452-4.33.924.383-.924-.383Zm-4.33 4.33-.382-.924.382.924Zm0-65.782-.382.924.382-.924ZM12 1h177v-2H12v2Zm188 11v43h2V12h-2Zm-11 54H12v2h177v-2ZM1 55V12h-2v43h2Zm11 11c-1.877 0-3.235 0-4.31-.074-1.064-.072-1.776-.213-2.369-.459l-.765 1.848c.877.363 1.832.527 2.999.607C8.712 68 10.15 68 12 68v-2ZM-1 55c0 1.85 0 3.288.078 4.445.08 1.167.244 2.122.607 3l1.848-.766c-.246-.593-.387-1.305-.46-2.37C1.002 58.236 1 56.878 1 55h-2Zm6.321 10.467a7 7 0 0 1-3.788-3.788l-1.848.765a9 9 0 0 0 4.87 4.87l.766-1.847ZM200 55c0 1.877-.001 3.236-.074 4.31-.072 1.064-.213 1.776-.459 2.369l1.848.765c.363-.877.527-1.832.607-2.999.079-1.157.078-2.595.078-4.445h-2Zm-11 13c1.85 0 3.288 0 4.445-.078 1.167-.08 2.122-.244 2.999-.607l-.765-1.848c-.593.246-1.305.387-2.37.46-1.074.072-2.432.073-4.309.073v2Zm10.467-6.321a6.999 6.999 0 0 1-3.788 3.788l.765 1.848a9.003 9.003 0 0 0 4.871-4.87l-1.848-.766ZM189 1c1.877 0 3.235 0 4.309.074 1.065.072 1.777.213 2.37.459l.765-1.848c-.877-.363-1.832-.527-2.999-.607C192.288-1 190.85-1 189-1v2Zm13 11c0-1.85.001-3.288-.078-4.445-.08-1.167-.244-2.122-.607-3l-1.848.766c.246.593.387 1.305.459 2.37.073 1.074.074 2.432.074 4.309h2Zm-6.321-10.467a6.999 6.999 0 0 1 3.788 3.788l1.848-.765a9.003 9.003 0 0 0-4.871-4.87l-.765 1.847ZM12-1c-1.85 0-3.288 0-4.445.078-1.167.08-2.122.244-3 .607l.766 1.848c.593-.246 1.305-.387 2.37-.46C8.765 1.002 10.123 1 12 1v-2ZM1 12c0-1.877 0-3.235.074-4.31.072-1.064.213-1.776.459-2.369l-1.848-.765c-.363.877-.527 1.832-.607 2.999C-1 8.712-1 10.15-1 12h2ZM4.556-.315a9 9 0 0 0-4.87 4.87l1.847.766A7 7 0 0 1 5.32 1.533L4.556-.315Z" fill="#171717"/></svg>