<svg width="40" height="40" viewBox="0 0 40 40" fill="none" xmlns="http://www.w3.org/2000/svg"><path fill-rule="evenodd" clip-rule="evenodd" d="M5 7.75A2.25 2.25 0 0 0 2.75 10v20A2.25 2.25 0 0 0 5 32.25h10a4 4 0 0 1 4 4 1 1 0 1 0 2 0 4 4 0 0 1 4-4h10A2.25 2.25 0 0 0 37.25 30V10A2.25 2.25 0 0 0 35 7.75H25a6 6 0 0 0-5 2.683 6 6 0 0 0-5-2.683H5Zm16 6v18.028a6 6 0 0 1 4-1.528h10a.25.25 0 0 0 .25-.25V10a.25.25 0 0 0-.25-.25H25a4 4 0 0 0-4 4Zm-2 0a4 4 0 0 0-4-4H5a.25.25 0 0 0-.25.25v20a.25.25 0 0 0 .25.25h10a6 6 0 0 1 4 1.528V13.75Z" fill="#161616"/></svg>