<svg width="40" height="40" viewBox="0 0 40 40" fill="none" xmlns="http://www.w3.org/2000/svg"><path fill-rule="evenodd" clip-rule="evenodd" d="M11.11 2.737a.792.792 0 0 0-.544.24L4.283 9.265l-.05.046a.791.791 0 0 0-.231.56V35.2a.792.792 0 0 0 .836.8c.05-.003.102-.008.153-.008h25.133a.98.98 0 0 0 .024-.003.862.862 0 0 0 .133-.016.786.786 0 0 0 .223-.08l.019-.013a.766.766 0 0 0 .16-.12l.01-.01 6.323-6.323a.792.792 0 0 0 .232-.56V3.538a.792.792 0 0 0-.792-.791H11.351c-.053 0-.106-.006-.159-.009a.795.795 0 0 0-.081 0Zm.344 1.592h23.091L30.09 8.786a1 1 0 0 1-.707.292H6.704l4.75-4.749Zm24.21 1.12v23.09l-4.749 4.75V10.198l4.75-4.75ZM5.586 10.661h23.747v23.747H6.585a1 1 0 0 1-1-1V10.662ZM7.96 24.91a.792.792 0 0 0 0 1.583h7.916a.792.792 0 1 0 0-1.583H7.96Zm0 3.166a.792.792 0 1 0 0 1.583h4.75a.792.792 0 1 0 0-1.583H7.96Z" fill="#000"/></svg>