<svg xmlns="http://www.w3.org/2000/svg" width="781" height="72" viewBox="0 0 781 72" fill="none"><path fill="#E5E5E5" d="M0 0h781v72H0z"/><path fill="#fff" d="M-325-218h1430v972H-325z"/><path fill="#fff" d="M0 0h781v72H0z"/><path d="M0 8a8 8 0 0 1 8-8h765a8 8 0 0 1 8 8v64H0V8Z" fill="#202124"/><path fill="#35363A" d="M0 24h781v48H0z"/><circle cx="13" cy="12" r="5" fill="#ED655A"/><circle cx="31" cy="12" r="5" fill="#E1C14C"/><circle cx="49" cy="12" r="5" fill="#72BE47"/><path d="M31.333 48c0-.645-.522-1.167-1.166-1.167H17.134l5.693-5.693a1.167 1.167 0 1 0-1.65-1.651l-8.512 8.51 8.511 8.511a1.164 1.164 0 0 0 1.646-1.645l-5.688-5.699h13.031c.645 0 1.167-.522 1.167-1.166Z" fill="#F1F3F4"/><path d="M74.823 39.49a1.164 1.164 0 0 0-1.647 1.644l5.689 5.7H65.833a1.167 1.167 0 1 0 0 2.332h13.032l-5.689 5.7a1.164 1.164 0 0 0 1.647 1.644l8.51-8.51-8.51-8.51Z" fill="#86888A"/><path d="M132.592 41.408A9.286 9.286 0 0 0 126 38.666c-5.157 0-9.322 4.177-9.322 9.334s4.165 9.333 9.322 9.333c3.799 0 7.047-2.268 8.502-5.522.323-.725-.257-1.478-1.051-1.478-.515 0-.965.33-1.194.791A6.988 6.988 0 0 1 126 55c-3.862 0-7-3.139-7-7 0-3.862 3.138-7 7-7 1.937 0 3.663.805 4.923 2.077l-3.756 3.756h8.166v-8.166l-2.741 2.741Z" fill="#F1F3F4"/><rect x="164" y="32" width="583" height="32" rx="16" fill="#202124"/><rect x="180" y="45.834" width="9.905" height="8.667" rx="1.619" fill="#F1F3F4"/><path fill-rule="evenodd" clip-rule="evenodd" d="M184.952 42.738c-1.019 0-1.85.829-1.85 1.857l-.001.225-.004.557c-.001.176-.002.348-.001.482l.002.158v.008c.026.174.069.224.07.225.001 0 .023.032.136.073.127.045.323.084.62.106.295.021.628.023 1.028.023.401 0 .734-.002 1.029-.023.297-.022.493-.061.62-.106.115-.041.136-.073.136-.073.001-.002.044-.051.07-.225l.001-.008.001-.158a38.555 38.555 0 0 0-.005-1.035l-.001-.229a1.854 1.854 0 0 0-1.851-1.857Zm1.854 3.314.001-.002-.001.002Zm-3.707 0v-.002.002Zm4.943-1.247-.001-.21a3.092 3.092 0 0 0-3.089-3.095 3.092 3.092 0 0 0-3.088 3.095l-.001.207c-.004.405-.011 1.24.002 1.34.189 1.528 1.513 1.548 3.087 1.548 1.575 0 2.899-.02 3.089-1.547.012-.1.005-.932.001-1.338Z" fill="#F1F3F4"/><text fill="#fff" xml:space="preserve" font-family="Roboto" font-size="14" letter-spacing="0em">
    <tspan x="202.905" y="52.785">gmail.com</tspan>
  </text><path d="M765 44.666c.917 0 1.667-.75 1.667-1.666 0-.917-.75-1.667-1.667-1.667s-1.667.75-1.667 1.667c0 .916.75 1.666 1.667 1.666Zm0 1.667c-.917 0-1.667.75-1.667 1.667 0 .916.75 1.666 1.667 1.666s1.667-.75 1.667-1.666c0-.917-.75-1.667-1.667-1.667Zm0 5c-.917 0-1.667.75-1.667 1.667 0 .916.75 1.666 1.667 1.666s1.667-.75 1.667-1.666c0-.917-.75-1.667-1.667-1.667Z" fill="#86888A"/></svg>