<svg width="40" height="40" viewBox="0 0 40 40" fill="none" xmlns="http://www.w3.org/2000/svg"><path fill-rule="evenodd" clip-rule="evenodd" d="M12.5 36.5a1 1 0 0 1 1-1H26a1 1 0 1 1 0 2H13.5a1 1 0 0 1-1-1Z" fill="#161616"/><path d="M11.797 26.346a12.478 12.478 0 0 1-4.054-14.072 12.64 12.64 0 0 1 4.716-6.084 12.38 12.38 0 0 1 6.74-2.186A12.5 12.5 0 0 1 27.22 26.33a3.795 3.795 0 0 0-1.471 2.978v.941a1.25 1.25 0 0 1-1.25 1.25h-10a1.25 1.25 0 0 1-1.25-1.25v-.942a3.768 3.768 0 0 0-1.453-2.962Z" stroke="#161616" stroke-width="2" stroke-linecap="round" stroke-linejoin="round"/></svg>