<svg width="40" height="40" viewBox="0 0 40 40" fill="none" xmlns="http://www.w3.org/2000/svg">
<path fill-rule="evenodd" clip-rule="evenodd" d="M12.5 36.5C12.5 35.9477 12.9477 35.5 13.5 35.5H26C26.5523 35.5 27 35.9477 27 36.5C27 37.0523 26.5523 37.5 26 37.5H13.5C12.9477 37.5 12.5 37.0523 12.5 36.5Z" fill="#161616"/>
<path d="M11.7975 26.3456C10.3111 25.1847 9.10725 23.702 8.27636 22.009C7.95838 21.3611 7.69819 20.6888 7.49762 20C7.1741 18.8889 7.00571 17.7348 7.00019 16.5706C6.99188 15.0662 7.25473 13.6181 7.74289 12.2737C8.64365 9.79316 10.3115 7.6659 12.4585 6.18973C14.388 4.86309 16.7044 4.06233 19.1986 4.00362C21.8234 3.94042 24.4014 4.70529 26.5671 6.18973C28.7327 7.67418 30.376 9.80282 31.2637 12.2737C31.7619 13.6602 32.008 15.115 31.9998 16.5706C31.9934 17.7091 31.8315 18.8482 31.513 19.9556C31.3098 20.6623 31.0456 21.3461 30.7253 22C29.9019 23.6807 28.7072 25.1638 27.2207 26.3313C26.7659 26.6837 26.3972 27.1348 26.1424 27.6507C25.8876 28.1665 25.7535 28.7335 25.75 29.3088L25.75 30.2501C25.75 30.5816 25.6183 30.8995 25.3839 31.134C25.1495 31.3684 24.8315 31.5001 24.5 31.5001H14.5C14.1685 31.5001 13.8505 31.3684 13.6161 31.134C13.3817 30.8995 13.25 30.5816 13.25 30.2501L13.25 29.3077C13.2485 28.7361 13.117 28.1724 12.8654 27.6591C12.6137 27.1459 12.2485 26.6967 11.7975 26.3456Z" stroke="#161616" stroke-width="2" stroke-linecap="round" stroke-linejoin="round"/>
</svg>
