<svg width="90" height="90" viewBox="0 0 90 90" fill="none" xmlns="http://www.w3.org/2000/svg"><circle opacity=".7" cx="45" cy="45" r="45" fill="#FFE603"/><path fill-rule="evenodd" clip-rule="evenodd" d="M37.5 61.5a1 1 0 0 1 1-1H51a1 1 0 1 1 0 2H38.5a1 1 0 0 1-1-1Z" fill="#161616"/><path d="M36.797 51.345a12.477 12.477 0 0 1-4.054-14.071c.9-2.48 2.569-4.608 4.715-6.084a12.381 12.381 0 0 1 6.74-2.186 12.501 12.501 0 0 1 8.023 22.327 3.795 3.795 0 0 0-1.471 2.977v.942a1.25 1.25 0 0 1-1.25 1.25h-10a1.25 1.25 0 0 1-1.25-1.25v-.943a3.767 3.767 0 0 0-1.453-2.962Z" stroke="#161616" stroke-width="2" stroke-linecap="round" stroke-linejoin="round"/></svg>