<svg width="40" height="40" viewBox="0 0 40 40" fill="none" xmlns="http://www.w3.org/2000/svg"><path d="M30.125 24.727a.75.75 0 0 0-1.5 0v.773h-.188a2.312 2.312 0 1 0 0 4.625h1.875a.812.812 0 1 1 0 1.625H27.5a.75.75 0 0 0 0 1.5h1.125v.773a.75.75 0 1 0 1.5 0v-.773h.188a2.312 2.312 0 1 0 0-4.625h-1.875a.812.812 0 1 1 0-1.625h2.812a.75.75 0 0 0 0-1.5h-1.125v-.773Z" fill="#161616"/><path fill-rule="evenodd" clip-rule="evenodd" d="M14.873 6.123a7.25 7.25 0 0 0-2.054 4.127H6.25A2.25 2.25 0 0 0 4 12.5v20a2.25 2.25 0 0 0 2.25 2.25h15.945A8.969 8.969 0 1 0 36 23.33V12.5a2.25 2.25 0 0 0-2.25-2.25h-6.57a7.25 7.25 0 0 0-12.306-4.127Zm5.533 23.252c0 1.194.234 2.333.657 3.375H6.25A.25.25 0 0 1 6 32.5v-14h28v3.19a8.969 8.969 0 0 0-13.594 7.686ZM20 6a5.25 5.25 0 0 0-5.154 4.25h10.308A5.25 5.25 0 0 0 20 6Zm14 6.5a.25.25 0 0 0-.25-.25H6.25a.25.25 0 0 0-.25.25v4h28v-4Zm-4.625 9.906a6.969 6.969 0 1 0 0 13.938 6.969 6.969 0 0 0 0-13.938Z" fill="#161616"/></svg>