<svg width="40" height="40" viewBox="0 0 40 40" fill="none" xmlns="http://www.w3.org/2000/svg"><path d="M33.75 11.25H6.25c-.69 0-1.25.56-1.25 1.25v20c0 .69.56 1.25 1.25 1.25h27.5c.69 0 1.25-.56 1.25-1.25v-20c0-.69-.56-1.25-1.25-1.25ZM13.75 11.25a6.25 6.25 0 0 1 12.5 0M5 17.5h30" stroke="#161616" stroke-width="2" stroke-linecap="round" stroke-linejoin="round"/><path d="M29.375 37.344a7.969 7.969 0 1 0 0-15.938 7.969 7.969 0 0 0 0 15.938Z" fill="#FFF281" stroke="#161616" stroke-width="2" stroke-linecap="round" stroke-linejoin="round"/><path d="M27.5 32.5h2.813a1.563 1.563 0 0 0 0-3.125h-1.875a1.563 1.563 0 0 1 0-3.125h2.812M29.375 24.727v1.328M29.375 32.695v1.328" stroke="#161616" stroke-width="1.5" stroke-linecap="round" stroke-linejoin="round"/></svg>