<svg width="90" height="90" viewBox="0 0 90 90" fill="none" xmlns="http://www.w3.org/2000/svg"><circle opacity=".5" cx="45" cy="45" r="45" fill="#FFE603"/><path d="M58.75 36.25h-27.5c-.69 0-1.25.56-1.25 1.25v20c0 .69.56 1.25 1.25 1.25h27.5c.69 0 1.25-.56 1.25-1.25v-20c0-.69-.56-1.25-1.25-1.25ZM38.75 36.25a6.25 6.25 0 0 1 12.5 0M30 42.5h30" stroke="#161616" stroke-width="2" stroke-linecap="round" stroke-linejoin="round"/><path d="M54.375 62.344a7.969 7.969 0 1 0 0-15.938 7.969 7.969 0 0 0 0 15.938Z" fill="#FFF281" stroke="#161616" stroke-width="2" stroke-linecap="round" stroke-linejoin="round"/><path d="M52.5 57.5h2.813a1.563 1.563 0 0 0 0-3.125h-1.876a1.563 1.563 0 0 1 0-3.125h2.813M54.375 49.727v1.328M54.375 57.695v1.328" stroke="#161616" stroke-width="1.5" stroke-linecap="round" stroke-linejoin="round"/></svg>