<svg width="40" height="40" viewBox="0 0 40 40" fill="none" xmlns="http://www.w3.org/2000/svg"><path fill-rule="evenodd" clip-rule="evenodd" d="M17.862 6.195A.667.667 0 0 1 18.333 6h15a.667.667 0 0 1 .667.667v14.252l-3.293-3.293a1 1 0 0 0-.707-.293H18.333a.667.667 0 0 1-.666-.666v-10c0-.177.07-.347.195-.472ZM18.333 4a2.666 2.666 0 0 0-2.666 2.667v10a2.667 2.667 0 0 0 2.666 2.666h11.253l4.707 4.707A1 1 0 0 0 36 23.333V6.667A2.667 2.667 0 0 0 33.333 4h-15ZM6.195 17.862a.667.667 0 0 1 .472-.195H10a1 1 0 1 0 0-2H6.667A2.667 2.667 0 0 0 4 18.333V35a1 1 0 0 0 1.707.707L10.414 31h11.253a2.667 2.667 0 0 0 2.666-2.667V25a1 1 0 1 0-2 0v3.333a.667.667 0 0 1-.666.667H10a1 1 0 0 0-.707.293L6 32.586V18.333c0-.176.07-.346.195-.471Z" fill="#161616"/></svg>