<svg
  width="17"
  height="14"
  viewBox="0 0 17 14"
  fill="currentColor"
  xmlns="http://www.w3.org/2000/svg"
>
  <path
    fill-rule="evenodd"
    clip-rule="evenodd"
    d="M13.9398 0.940072C14.2197 0.662615 14.5976 0.506464 14.9917 0.505377C15.3858 0.504289 15.7645 0.658353 16.0459 0.934261C16.3274 1.21017 16.4889 1.58575 16.4956 1.97981C16.5023 2.37387 16.3537 2.75473 16.0818 3.04007L8.09783 13.0201C7.96061 13.1679 7.795 13.2865 7.61089 13.3688C7.42679 13.4511 7.22797 13.4955 7.02633 13.4992C6.82469 13.503 6.62437 13.466 6.43734 13.3905C6.25031 13.3151 6.08042 13.2027 5.93783 13.0601L0.647827 7.76807C0.500453 7.63075 0.382249 7.46515 0.300265 7.28115C0.218281 7.09715 0.174197 6.89852 0.170644 6.69712C0.16709 6.49571 0.20414 6.29565 0.279582 6.10888C0.355024 5.9221 0.467313 5.75243 0.609751 5.61C0.752188 5.46756 0.921856 5.35527 1.10863 5.27983C1.29541 5.20439 1.49547 5.16734 1.69687 5.17089C1.89828 5.17444 2.0969 5.21853 2.2809 5.30051C2.4649 5.38249 2.6305 5.5007 2.76783 5.64807L6.95583 9.83407L13.9018 0.984073C13.9142 0.96858 13.9276 0.953883 13.9418 0.940072H13.9398Z"
    fill="currentColor"
  ></path>
</svg>
