<svg width="90" height="90" viewBox="0 0 90 90" fill="none" xmlns="http://www.w3.org/2000/svg"><circle opacity=".5" cx="45" cy="45" r="45" fill="#FFE603"/><path d="M31 52.27a1 1 0 1 0-2 0h2Zm-2 0a1 1 0 1 0 2 0h-2Zm31.167-13.75a1 1 0 1 0-2 0h2Zm-2 0a1 1 0 1 0 2 0h-2ZM44.02 32.667a1 1 0 1 0 0-2v2Zm5.528-2a1 1 0 0 0 0 2v-2Zm5.005 2.444a1 1 0 1 0 .766-1.848l-.766 1.848Zm5.016 2.403a1 1 0 1 0-1.847.766l1.847-.766Zm-1.847 5.246a1 1 0 0 0 1.847.766l-1.847-.766Zm-2.403 5.017a1 1 0 0 0-.766-1.848l.766 1.848Zm-6.86-1.404a1 1 0 1 0 0 2v-2Zm-7.709 2a1 1 0 1 0 0-2v2Zm-6.877-1.4a1 1 0 0 0 .766 1.847l-.766-1.847Zm-2.427 5.04a1 1 0 0 0-1.847-.766l1.847.766Zm-1.847 5.28a1 1 0 0 0 1.847-.766l-1.847.766Zm5.04 2.427a1 1 0 1 0-.766 1.847l.766-1.847Zm5.322 2.447a1 1 0 1 0 0-2v2Zm6.13-2a1 1 0 0 0 0 2v-2Zm-4.835-25.5h2.764v-2h-2.764v2Zm8.292 0h2.764v-2H49.55v2Zm2.764 0a5.82 5.82 0 0 1 2.24.444l.767-1.848a7.834 7.834 0 0 0-3.007-.596v2Zm5.41 3.613c.285.688.444 1.444.444 2.24h2a7.833 7.833 0 0 0-.597-3.006l-1.847.766Zm.444 2.24c0 .795-.159 1.551-.444 2.24l1.847.766a7.834 7.834 0 0 0 .597-3.006h-2Zm-3.613 5.41a5.83 5.83 0 0 1-2.24.443v2a7.832 7.832 0 0 0 3.006-.596l-.766-1.848Zm-2.24.443h-3.855v2h3.854v-2Zm-11.563 0h-3.854v2h3.854v-2Zm-3.854 0c-1.07 0-2.09.213-3.023.6l.766 1.847a5.875 5.875 0 0 1 2.257-.447v-2ZM29.6 49.247a7.876 7.876 0 0 0-.6 3.023h2c0-.802.16-1.563.447-2.257l-1.847-.766ZM29 52.27c0 1.069.213 2.09.6 3.023l1.847-.766A5.875 5.875 0 0 1 31 52.27h-2Zm4.874 7.297c.932.387 1.954.6 3.023.6v-2c-.802 0-1.563-.16-2.257-.447l-.766 1.847Zm3.023.6h3.065v-2h-3.065v2Zm9.195 0h3.065v-2h-3.065v2Z" fill="#161616"/><path d="M31.43 40a8.571 8.571 0 1 0 0-17.143 8.571 8.571 0 0 0 0 17.143Z" fill="#FFF281" stroke="#161616" stroke-width="2" stroke-miterlimit="10"/><path d="M31.43 34.286a3.571 3.571 0 1 0 0-7.143 3.571 3.571 0 0 0 0 7.143Z" fill="#FFF281" stroke="#161616" stroke-width="2" stroke-miterlimit="10"/><path d="M25.695 37.801a6.431 6.431 0 0 1 11.465 0" stroke="#161616" stroke-width="2" stroke-linecap="round" stroke-linejoin="round"/><path d="M58.93 67.5a8.571 8.571 0 1 0 0-17.143 8.571 8.571 0 0 0 0 17.143Z" fill="#FFF281" stroke="#161616" stroke-width="2" stroke-linecap="round" stroke-linejoin="round"/><path d="m62.857 56.786-5.238 5-2.619-2.5" stroke="#161616" stroke-width="2" stroke-linecap="round" stroke-linejoin="round"/></svg>