<svg width="40" height="40" viewBox="0 0 40 40" fill="none" xmlns="http://www.w3.org/2000/svg"><path d="M33.902 27.144c-.903 0-1.668.599-1.923 1.42h-2.755v-6.619h1.387a6.03 6.03 0 0 0 .555 0A6.114 6.114 0 0 0 37 15.82a6.108 6.108 0 0 0-3.892-5.711 8.288 8.288 0 0 0-2.619-4.942A8.26 8.26 0 0 0 24.904 3a8.266 8.266 0 0 0-6.596 3.274 6.099 6.099 0 0 0-2.765-.66 6.11 6.11 0 0 0-5.779 4.11 6.165 6.165 0 0 0-.645-.033C5.745 9.69 3 12.44 3 15.82s2.745 6.13 6.12 6.13c.101 0 .206-.002.313-.008a.593.593 0 0 0 .05.002h1.37v6.62H8.098a2.017 2.017 0 0 0-1.923-1.42 2.017 2.017 0 0 0 0 4.032c.903 0 1.669-.598 1.923-1.42h3.35a.596.596 0 0 0 .596-.596v-7.216h3.676v11.112A2.017 2.017 0 0 0 16.315 37a2.017 2.017 0 0 0 .596-3.943V21.945h6.256v11.112A2.017 2.017 0 0 0 23.762 37a2.017 2.017 0 0 0 .595-3.943V21.945h3.676v7.216c0 .33.267.596.596.596h3.35a2.017 2.017 0 0 0 1.923 1.42 2.017 2.017 0 0 0 0-4.033Zm-27.727 2.84a.824.824 0 0 1 0-1.647.824.824 0 0 1 0 1.648Zm10.14 5.823a.824.824 0 0 1 0-1.647.824.824 0 0 1 0 1.647Zm7.447 0a.824.824 0 0 1 0-1.647.824.824 0 0 1 0 1.647ZM9.444 20.747a4.938 4.938 0 1 1-.325-9.864c.32 0 .64.032.953.093a.595.595 0 0 0 .692-.44 4.921 4.921 0 0 1 4.78-3.73c.93 0 1.837.261 2.621.756a.595.595 0 0 0 .814-.176 7.085 7.085 0 0 1 5.925-3.193 7.073 7.073 0 0 1 7.064 6.413.596.596 0 0 0 .412.51 4.92 4.92 0 0 1 3.43 4.705 4.924 4.924 0 0 1-4.696 4.932h-.003a4.756 4.756 0 0 1-.487 0H9.567a.598.598 0 0 0-.123-.005Zm24.458 9.238a.824.824 0 0 1 0-1.648.824.824 0 0 1 0 1.648Z" fill="#161616"/><path fill-rule="evenodd" clip-rule="evenodd" d="M31.161 21.945a6.191 6.191 0 0 1-.55 0h-1.387v6.62h2.755a2.017 2.017 0 0 1 1.923-1.42 2.017 2.017 0 0 1 0 4.032 2.017 2.017 0 0 1-1.923-1.42h-3.35a.596.596 0 0 1-.595-.596v-7.216h-3.676v11.112A2.017 2.017 0 0 1 23.763 37a2.017 2.017 0 0 1-.596-3.943V21.945H16.91v11.112A2.017 2.017 0 0 1 16.316 37a2.017 2.017 0 0 1-.596-3.943V21.945h-3.676v7.216c0 .33-.267.596-.595.596h-3.35a2.017 2.017 0 0 1-1.924 1.42 2.017 2.017 0 0 1 0-4.033c.903 0 1.669.599 1.923 1.42h2.755v-6.619h-1.37c-.017 0-.034 0-.05-.002a6.098 6.098 0 0 1-.314.008c-3.374 0-6.119-2.75-6.119-6.13s2.745-6.13 6.12-6.13c.214 0 .43.011.644.034a6.11 6.11 0 0 1 5.78-4.112 6.1 6.1 0 0 1 2.764.66A8.267 8.267 0 0 1 24.904 3a8.26 8.26 0 0 1 5.585 2.168 8.288 8.288 0 0 1 2.619 4.942A6.108 6.108 0 0 1 37 15.82a6.114 6.114 0 0 1-5.834 6.124h-.005Zm2.217-12.05a8.59 8.59 0 0 0-2.686-4.948A8.56 8.56 0 0 0 24.904 2.7a8.565 8.565 0 0 0-6.683 3.198 6.401 6.401 0 0 0-2.678-.585 6.41 6.41 0 0 0-5.981 4.093 6.449 6.449 0 0 0-.443-.015c-3.54 0-6.419 2.885-6.419 6.43 0 3.546 2.879 6.43 6.42 6.43.1 0 .205-.002.31-.007a.952.952 0 0 0 .053.001h1.07v6.02H8.308a2.316 2.316 0 0 0-2.133-1.42 2.317 2.317 0 0 0 0 4.632c.96 0 1.783-.587 2.133-1.42h3.14a.896.896 0 0 0 .896-.896v-6.916h3.076v10.602a2.317 2.317 0 0 0 .895 4.453 2.317 2.317 0 0 0 .896-4.453V22.245h5.656v10.602a2.317 2.317 0 0 0 .895 4.453 2.317 2.317 0 0 0 .895-4.453V22.245h3.077v6.916c0 .494.4.896.895.896h3.14a2.316 2.316 0 0 0 2.133 1.42 2.317 2.317 0 0 0 0-4.633c-.959 0-1.782.587-2.132 1.42h-2.246v-6.019h1.08a6.438 6.438 0 0 0 .562 0h.013A6.414 6.414 0 0 0 37.3 15.82a6.408 6.408 0 0 0-3.922-5.926ZM9.425 20.448a.896.896 0 0 1 .161.004h21.067l.012.001c.152.007.278.007.43 0h.001m.008 0a4.623 4.623 0 0 0 4.405-4.632 4.62 4.62 0 0 0-3.22-4.419.896.896 0 0 1-.619-.767 6.773 6.773 0 0 0-6.766-6.142 6.784 6.784 0 0 0-5.674 3.059.895.895 0 0 1-1.225.264 4.607 4.607 0 0 0-2.461-.71 4.621 4.621 0 0 0-4.489 3.503.895.895 0 0 1-1.04.662 4.638 4.638 0 1 0-.896 9.188c.098 0 .201-.004.306-.01m21.668.005s-.001 0 0 0Zm-21.526.298a.591.591 0 0 0-.123-.004 4.938 4.938 0 1 1-.325-9.864c.32 0 .64.03.953.092a.595.595 0 0 0 .692-.44 4.921 4.921 0 0 1 4.78-3.73c.93 0 1.837.261 2.622.756a.595.595 0 0 0 .813-.176 7.085 7.085 0 0 1 5.925-3.193 7.073 7.073 0 0 1 7.065 6.413.596.596 0 0 0 .411.51 4.92 4.92 0 0 1 3.43 4.705 4.923 4.923 0 0 1-4.696 4.932h-.003a4.756 4.756 0 0 1-.487 0H9.567Zm21.612 1.492h.002-.002ZM5.653 29.161c0 .289.235.523.522.523a.524.524 0 0 0 0-1.047.524.524 0 0 0-.522.524Zm10.14 5.822c0 .29.235.524.522.524a.524.524 0 0 0 0-1.047.524.524 0 0 0-.522.523Zm7.447 0c0 .29.235.524.522.524a.524.524 0 0 0 0-1.047.524.524 0 0 0-.522.523Zm10.14-5.822c0 .289.235.523.522.523a.524.524 0 0 0 0-1.047.524.524 0 0 0-.522.524Zm-28.027 0c0 .454.369.824.822.824a.824.824 0 0 0 0-1.648.824.824 0 0 0-.822.824Zm10.14 5.822c0 .455.369.824.822.824a.824.824 0 0 0 0-1.647.824.824 0 0 0-.822.823Zm7.447 0c0 .455.369.824.822.824a.824.824 0 0 0 0-1.647.824.824 0 0 0-.822.823Zm10.14-5.822c0 .454.369.824.822.824a.824.824 0 0 0 0-1.648.824.824 0 0 0-.822.824Z" fill="#161616"/></svg>