<svg width="40" height="40" viewBox="0 0 40 40" fill="none" xmlns="http://www.w3.org/2000/svg"><path d="M35.704 19.624a6.922 6.922 0 0 0-6.913-6.815c-.853 0-1.698.16-2.49.465a10.231 10.231 0 0 0-3.274-4.737 10.195 10.195 0 0 0-6.39-2.257c-5.461 0-9.931 4.327-10.162 9.732a9.085 9.085 0 0 0-4.455 2.974A9.058 9.058 0 0 0 0 24.68c0 4.984 4.055 9.039 9.039 9.039h23.575c4.073 0 7.386-3.314 7.386-7.386a7.421 7.421 0 0 0-4.296-6.71Zm-3.09 12.544H9.039c-4.128 0-7.487-3.359-7.487-7.487a7.5 7.5 0 0 1 1.673-4.716 7.516 7.516 0 0 1 4.187-2.593.776.776 0 0 0 .608-.77v-.026c-.002-.041-.002-.083-.002-.125 0-4.752 3.866-8.62 8.62-8.62 1.994 0 3.866.662 5.414 1.913a8.653 8.653 0 0 1 2.991 4.792.776.776 0 0 0 1.136.506 5.36 5.36 0 0 1 2.612-.68 5.368 5.368 0 0 1 5.348 5.722.776.776 0 0 0 .505.779 5.86 5.86 0 0 1 3.804 5.47 5.84 5.84 0 0 1-5.834 5.835Z" fill="#000"/></svg>