<svg width="90" height="90" viewBox="0 0 90 90" fill="none" xmlns="http://www.w3.org/2000/svg"><circle opacity=".7" cx="45" cy="45" r="45" fill="#FFE603"/><path fill-rule="evenodd" clip-rule="evenodd" d="M49.303 31.91a1 1 0 1 0-1.94-.484l-6.667 26.666a1 1 0 1 0 1.94.485l6.667-26.666Zm-11.93 5.718a1 1 0 0 1 0 1.414l-5.959 5.96 5.96 5.959a1 1 0 0 1-1.414 1.414l-6.667-6.666a1 1 0 0 1 0-1.415l6.667-6.666a1 1 0 0 1 1.414 0Zm15.253 0a1 1 0 0 1 1.415 0l6.666 6.666a1 1 0 0 1 0 1.415l-6.666 6.666a1 1 0 1 1-1.415-1.414l5.96-5.96-5.96-5.96a1 1 0 0 1 0-1.413Z" fill="#161616"/></svg>