<svg width="40" height="40" viewBox="0 0 40 40" fill="none" xmlns="http://www.w3.org/2000/svg"><path fill-rule="evenodd" clip-rule="evenodd" d="M24.303 6.91a1 1 0 1 0-1.94-.486l-6.667 26.667a1 1 0 1 0 1.94.485l6.667-26.667Zm-11.93 5.716a1 1 0 0 1 0 1.414L6.415 20l5.96 5.96a1 1 0 0 1-1.414 1.414l-6.667-6.667a1 1 0 0 1 0-1.414l6.667-6.667a1 1 0 0 1 1.414 0Zm15.253 0a1 1 0 0 1 1.415 0l6.666 6.667a1 1 0 0 1 0 1.414l-6.666 6.667a1 1 0 0 1-1.415-1.414l5.96-5.96-5.96-5.96a1 1 0 0 1 0-1.414Z" fill="#161616"/></svg>