<svg width="90" height="90" viewBox="0 0 90 90" fill="none" xmlns="http://www.w3.org/2000/svg"><circle opacity=".7" cx="45" cy="45" r="45" fill="#FFE603"/><path fill-rule="evenodd" clip-rule="evenodd" d="M61 52.222c0 .963-.802 1.778-1.833 1.778H30.833C29.803 54 29 53.185 29 52.222V32.778c0-.963.802-1.778 1.833-1.778h28.334c1.03 0 1.833.814 1.833 1.778v19.444ZM59.167 56H46v4h5a1 1 0 1 1 0 2H39a1 1 0 1 1 0-2h5v-4H30.833C28.735 56 27 54.327 27 52.222V32.778C27 30.673 28.735 29 30.833 29h28.334C61.265 29 63 30.673 63 32.778v19.444C63 54.327 61.265 56 59.167 56ZM48.12 33.806a.75.75 0 0 1 .448.962l-5.727 15.75a.75.75 0 0 1-1.41-.513l5.728-15.75a.75.75 0 0 1 .96-.449Zm-8.367 5.577a.75.75 0 1 0-.96-1.152l-4.296 3.58a.75.75 0 0 0 0 1.151l4.295 3.58a.75.75 0 1 0 .96-1.152l-3.603-3.004 3.604-3.003Zm11.454-1.152a.75.75 0 1 0-.96 1.152l3.604 3.003-3.604 3.004a.75.75 0 0 0 .96 1.152l4.296-3.58a.75.75 0 0 0 0-1.152l-4.296-3.58Z" fill="#161616"/></svg>