<svg
  width="90"
  height="90"
  viewBox="0 0 90 90"
  fill="none"
  xmlns="http://www.w3.org/2000/svg"
>
  <circle
    opacity="0.5"
    cx="45"
    cy="45"
    r="45"
    fill="#FFE603"
  ></circle>
  <path
    d="M67.5 50L60 42.5H42.5C41.837 42.5 41.2011 42.2366 40.7322 41.7678C40.2634 41.2989 40 40.663 40 40V25C40 24.337 40.2634 23.7011 40.7322 23.2322C41.2011 22.7634 41.837 22.5 42.5 22.5H65C65.663 22.5 66.2989 22.7634 66.7678 23.2322C67.2366 23.7011 67.5 24.337 67.5 25V50Z"
    stroke="#171717"
    stroke-width="3.5"
    stroke-linecap="round"
    stroke-linejoin="round"
  ></path>
  <path
    d="M50 52.5V57.5C50 58.163 49.7366 58.7989 49.2678 59.2678C48.7989 59.7366 48.163 60 47.5 60H30L22.5 67.5V42.5C22.5 41.837 22.7634 41.2011 23.2322 40.7322C23.7011 40.2634 24.337 40 25 40H30"
    stroke="#171717"
    stroke-width="3.5"
    stroke-linecap="round"
    stroke-linejoin="round"
  ></path>
</svg>
