<svg width="40" height="40" viewBox="0 0 40 40" fill="none" xmlns="http://www.w3.org/2000/svg"><path fill-rule="evenodd" clip-rule="evenodd" d="M23.5 7.5a.25.25 0 0 1 .25-.25h12.5a.25.25 0 0 1 .25.25v25a.25.25 0 0 1-.25.25h-12.5a.25.25 0 0 1-.25-.25v-25Zm.25-2.25A2.25 2.25 0 0 0 21.5 7.5v25a2.25 2.25 0 0 0 2.25 2.25h12.5a2.25 2.25 0 0 0 2.25-2.25v-25a2.25 2.25 0 0 0-2.25-2.25h-12.5ZM5 13.5A1.5 1.5 0 0 0 3.5 15v11.25a1.5 1.5 0 0 0 1.5 1.5h12.5a1 1 0 1 1 0 2h-2.75v3h2.75a1 1 0 1 1 0 2H10a1 1 0 1 1 0-2h2.75v-3H5a3.5 3.5 0 0 1-3.5-3.5V15A3.5 3.5 0 0 1 5 11.5h12.5a1 1 0 1 1 0 2H5Zm26.875 14.625a1.875 1.875 0 1 1-3.75 0 1.875 1.875 0 0 1 3.75 0Z" fill="#161616"/></svg>