<svg width="40" height="40" viewBox="0 0 40 40" fill="none" xmlns="http://www.w3.org/2000/svg"><path fill-rule="evenodd" clip-rule="evenodd" d="M36 27.667c0 1.012-.82 1.833-1.833 1.833H5.833A1.833 1.833 0 0 1 4 27.667V7.833C4 6.821 4.82 6 5.833 6h28.334C35.179 6 36 6.82 36 7.833v19.834ZM34.167 31.5H21v3.667h4.668a1 1 0 1 1 0 2H14.335a1 1 0 1 1 0-2H19V31.5H5.833A3.833 3.833 0 0 1 2 27.667V7.833A3.833 3.833 0 0 1 5.833 4h28.334A3.833 3.833 0 0 1 38 7.833v19.834a3.833 3.833 0 0 1-3.833 3.833ZM20.247 8a5.75 5.75 0 0 0-3.606 10.23A9.253 9.253 0 0 0 11 26.47a1 1 0 1 0 1.999.06 7.25 7.25 0 0 1 14.493 0 1 1 0 0 0 2-.06 9.253 9.253 0 0 0-5.64-8.24A5.75 5.75 0 0 0 20.246 8Zm-3.75 5.75a3.75 3.75 0 1 1 7.5 0 3.75 3.75 0 0 1-7.5 0Z" fill="#161616"/></svg>