<svg width="90" height="90" viewBox="0 0 90 90" fill="none" xmlns="http://www.w3.org/2000/svg"><circle opacity=".7" cx="45" cy="45" r="45" fill="#FFE603"/><path fill-rule="evenodd" clip-rule="evenodd" d="M34.74 34.395c-1.428-1.354-7.14-1.792-8.857-1.894a.833.833 0 0 0-.883.832v15c0 .46.373.833.833.833h5c.36 0 .68-.232.792-.575.017-.053.087-.267.196-.61l.436.454.181.19.014.014c.74.772 1.501 1.568 2.015 1.998 3.103 2.599 6.833 5.404 7.576 5.892.614.403 1.935.97 2.959.97.821 0 1.453-.188 1.891-.557.587.229 1.254.23 1.895-.02a3.283 3.283 0 0 0 1.735-1.601c.657.14 1.409.041 2.092-.302.668-.337 1.151-.852 1.392-1.453.663.035 1.346-.2 1.911-.685.763-.652 1.085-1.594.904-2.53l1.317-.885c.093.3.169.555.224.755.1.362.428.612.803.612h5c.46 0 .834-.374.834-.834V35a.832.832 0 0 0-.834-.833c-6.543 0-10.173 1.675-10.325 1.745a.83.83 0 0 0-.396 1.117 90.598 90.598 0 0 1-4.77-1.957c-3.007-1.344-4.946-.934-7.096.762h-6.668c.036-.267.065-.521.086-.762a.829.829 0 0 0-.257-.676Zm19.709 4.78a97.66 97.66 0 0 1-6.456-2.58c-2.95-1.319-4.346-.64-7.055 2.07-1.138 1.138-2.016 2.841-1.841 3.573.025.106.071.218.331.305.815.273 2.035.423 3.214-1.339a.833.833 0 0 1 .61-.365c.56-.056.7-.12 1.114-.304l.004-.002.037-.017c.268-.119.608-.27 1.145-.465a.833.833 0 0 1 .871.195c.912.912 2.342 2.068 3.855 3.292h.002v.001c2.293 1.855 4.654 3.765 5.803 5.3l1.522-1.022c-.856-2.566-2.178-6.264-3.156-8.641Zm-20.806 8.296c-.497-.52-.96-1-1.265-1.286.696-2.298 1.702-5.819 2.256-8.686h5.112c-1.138 1.146-2.671 3.44-2.273 5.124.172.72.679 1.253 1.432 1.501 1.888.624 3.611.027 4.895-1.676.53-.082.818-.202 1.252-.397.156-.07.34-.152.583-.25.953.895 2.24 1.937 3.595 3.032l.005.003c2.448 1.981 5.224 4.226 5.848 5.525.309.642-.023 1.06-.248 1.252-.318.273-.75.366-1 .219-.626-.504-3.263-3.204-4.899-4.91a.833.833 0 1 0-1.203 1.153c.387.404 3.504 3.654 4.753 4.792-.097.36-.448.575-.618.66-.522.265-1.067.226-1.285.042a.854.854 0 0 0-.06-.053c-.999-.798-3.507-3.463-4.074-4.08a.835.835 0 0 0-1.228 1.128l.018.02c.226.243 2.517 2.705 3.839 3.89a1.611 1.611 0 0 1-.89.892c-.255.096-.625.155-.957-.149a.832.832 0 0 0-.039-.033c-1.193-1.01-3.61-3.581-4.083-4.088a.833.833 0 1 0-1.218 1.138c.564.604 2.245 2.388 3.507 3.576a3.035 3.035 0 0 1-.397.022c-.554 0-1.553-.375-2.041-.698-.585-.385-4.254-3.122-7.422-5.775-.445-.375-1.215-1.178-1.895-1.888Zm-3.418.028h-3.558V34.226c2.678.212 5.568.672 6.618 1.182-.442 3.65-2.44 10.135-3.06 12.091Zm29.564 1.667h3.544V35.843c-3.965.093-6.697.835-7.968 1.266 1.301 2.774 3.634 9.484 4.424 12.057Z" fill="#161616"/></svg>