<svg width="90" height="90" viewBox="0 0 90 90" fill="none" xmlns="http://www.w3.org/2000/svg"><circle opacity=".5" cx="45" cy="45" r="45" fill="#FFE603"/><path d="M56.584 49.641c-.785-1.636-3.593-3.908-6.307-6.103-1.513-1.223-2.943-2.38-3.855-3.292a.833.833 0 0 0-.871-.195c-.562.204-.909.36-1.182.482-.417.187-.557.25-1.118.307a.833.833 0 0 0-.61.365c-1.179 1.761-2.399 1.611-3.214 1.338-.26-.087-.306-.198-.331-.305-.175-.732.703-2.435 1.841-3.573 2.709-2.71 4.105-3.389 7.055-2.07a97.344 97.344 0 0 0 6.734 2.68.835.835 0 0 0 .548-1.575 95.002 95.002 0 0 1-6.6-2.629c-3.822-1.708-5.918-.583-8.913 2.414-1.14 1.14-2.689 3.446-2.289 5.138.172.72.679 1.253 1.432 1.502 1.888.623 3.611.026 4.895-1.677.53-.082.818-.202 1.252-.397.156-.07.34-.151.583-.25.953.895 2.24 1.937 3.595 3.032 2.45 1.982 5.228 4.228 5.853 5.528.309.642-.023 1.06-.248 1.252-.33.283-.782.373-1.027.202a.835.835 0 0 0-1.301.775c.056.53-.429.833-.639.938-.533.27-1.09.223-1.298.03a.833.833 0 0 0-1.398.532c-.05.546-.456 1.071-.984 1.276-.255.097-.625.155-.956-.148a.843.843 0 0 0-.762-.193.832.832 0 0 0-.585.525c-.032.083-.103.283-.883.283-.555 0-1.554-.375-2.042-.698-.585-.385-4.254-3.122-7.422-5.775-.445-.375-1.215-1.179-1.895-1.889-.603-.63-1.155-1.201-1.438-1.441a.834.834 0 0 0-1.077 1.273c.259.218.759.747 1.31 1.322.744.776 1.512 1.58 2.029 2.013 3.103 2.598 6.833 5.403 7.576 5.892.614.403 1.935.97 2.959.97.821 0 1.453-.189 1.891-.557.587.228 1.254.23 1.895-.02a3.282 3.282 0 0 0 1.735-1.602c.657.14 1.409.042 2.092-.301.668-.337 1.152-.852 1.392-1.454.663.035 1.346-.2 1.911-.685.957-.818 1.22-2.091.667-3.24Z" fill="#161616"/><path d="M41.67 35.833h-7.5a.834.834 0 0 0 0 1.667h7.5a.834.834 0 0 0 0-1.667ZM59.024 47.868a.831.831 0 0 0-1.157-.227l-2.436 1.637a.834.834 0 0 0 .93 1.383l2.437-1.636a.834.834 0 0 0 .226-1.157ZM53.85 51.845c-.596-.47-3.265-3.202-4.915-4.922a.832.832 0 1 0-1.203 1.153c.428.447 4.207 4.386 5.085 5.079a.83.83 0 0 0 .515.178.833.833 0 0 0 .518-1.489ZM50.521 53.517c-.998-.799-3.506-3.464-4.073-4.08a.835.835 0 0 0-1.229 1.128c.03.032 3.024 3.263 4.26 4.253a.838.838 0 0 0 1.172-.13.835.835 0 0 0-.13-1.172ZM47.206 55.195c-1.189-1.002-3.62-3.59-4.096-4.099a.833.833 0 1 0-1.218 1.139c.683.732 3.01 3.198 4.239 4.235a.83.83 0 0 0 1.175-.1.834.834 0 0 0-.1-1.175Z" fill="#161616"/><path d="M34.74 34.395c-1.428-1.354-7.14-1.792-8.857-1.894a.833.833 0 0 0-.883.832v15c0 .46.373.833.833.833h5c.36 0 .68-.231.792-.575.122-.373 2.993-9.186 3.372-13.52a.829.829 0 0 0-.257-.676ZM30.225 47.5h-3.558V34.226c2.678.212 5.568.672 6.618 1.182-.442 3.65-2.44 10.135-3.06 12.092ZM64.167 34.166c-6.543 0-10.173 1.675-10.325 1.745a.83.83 0 0 0-.445.519.84.84 0 0 0 .092.676c1.03 1.659 4.255 10.869 4.875 13.115.1.362.428.612.803.612h5c.46 0 .833-.373.833-.833V35a.833.833 0 0 0-.833-.834Zm-.833 15H59.79c-.79-2.573-3.123-9.283-4.425-12.056 1.272-.432 4.004-1.174 7.969-1.267v13.323Z" fill="#161616"/></svg>