<svg width="90" height="90" viewBox="0 0 90 90" fill="none" xmlns="http://www.w3.org/2000/svg"><circle opacity=".5" cx="45" cy="45" r="45" fill="#FFE603"/><path d="M61 38.808h-1.228l.516-1.033h-5.285l-.516 1.033h-2.892A11.312 11.312 0 0 0 40.358 29C34.096 29 29 34.096 29 40.358c0 4.195 2.287 7.86 5.676 9.826V61h1.033v-4.642H45V61h1.033V50.197c2.96-1.7 5.07-4.7 5.562-8.29H54.5l.517.983h5.291l-.516-.983H61v-3.1ZM35.709 55.324v-4.61c1.417.636 2.992.995 4.642.995a11.4 11.4 0 0 0 4.643-.99v4.605h-9.285Zm4.648-4.648c-5.694 0-10.324-4.63-10.324-10.325 0-5.694 4.63-10.318 10.325-10.318 5.152 0 9.442 3.742 10.198 8.775h-1.569c-.743-4.151-4.371-7.225-8.63-7.225-4.837 0-8.774 3.937-8.774 8.775 0 4.837 3.937 8.774 8.775 8.774 4.264 0 7.886-3.074 8.63-7.225h1.568a10.27 10.27 0 0 1-10.198 8.769Zm-.006-13.418a3.105 3.105 0 0 0-3.099 3.1c0 1.707 1.392 3.099 3.1 3.099 1.114 0 2.128-.599 2.676-1.55h1.701a4.663 4.663 0 0 1-4.378 3.1 4.647 4.647 0 0 1-4.642-4.643 4.65 4.65 0 0 1 4.642-4.643 4.663 4.663 0 0 1 4.378 3.1h-1.7v-.013a3.088 3.088 0 0 0-2.678-1.55Zm1.033 4.643h.334a2.067 2.067 0 1 1-1.367-3.616c.51 0 .995.189 1.367.517h-.334a1.549 1.549 0 1 0 0 3.099Zm-1.033-7.22a5.68 5.68 0 0 0-5.675 5.677 5.68 5.68 0 0 0 5.675 5.675 5.7 5.7 0 0 0 5.462-4.126h2.122a7.749 7.749 0 0 1-7.584 6.192c-4.27 0-7.742-3.47-7.742-7.741 0-4.271 3.478-7.742 7.748-7.742a7.754 7.754 0 0 1 7.585 6.192h-2.13a5.7 5.7 0 0 0-5.46-4.126Zm17.726 6.193.517.983h-2.96l-.517-.983H41.383a.519.519 0 0 1-.516-.517c0-.283.233-.516.516-.516h13.739l.516-1.033h2.974l-.517 1.033h1.865v1.033h-1.884Z" fill="#000"/></svg>