<svg width="40" height="40" viewBox="0 0 40 40" fill="none" xmlns="http://www.w3.org/2000/svg"><path d="M15.636 3.875H6.909a3.037 3.037 0 0 0-3.034 3.034v8.727a3.037 3.037 0 0 0 3.034 3.034h8.727a3.037 3.037 0 0 0 3.034-3.034V6.909a3.037 3.037 0 0 0-3.034-3.034Zm1.33 11.76c0 .734-.598 1.33-1.33 1.33H6.909c-.733 0-1.33-.596-1.33-1.33V6.91c0-.733.597-1.33 1.33-1.33h8.727c.733 0 1.33.597 1.33 1.33v8.727Zm16.127-11.76h-8.727a3.037 3.037 0 0 0-3.034 3.034v8.727a3.037 3.037 0 0 0 3.034 3.034h8.727a3.037 3.037 0 0 0 3.034-3.034V6.909a3.037 3.037 0 0 0-3.034-3.034Zm1.33 11.76c0 .734-.598 1.33-1.33 1.33h-8.727c-.733 0-1.33-.596-1.33-1.33V6.91c0-.733.597-1.33 1.33-1.33h8.727c.732 0 1.33.597 1.33 1.33v8.727Zm-18.787 5.694H6.909a3.037 3.037 0 0 0-3.034 3.034v8.727a3.037 3.037 0 0 0 3.034 3.034h8.727a3.037 3.037 0 0 0 3.034-3.034v-8.727a3.037 3.037 0 0 0-3.034-3.034Zm1.33 11.76c0 .733-.598 1.33-1.33 1.33H6.909c-.733 0-1.33-.597-1.33-1.33v-8.726c0-.733.597-1.33 1.33-1.33h8.727c.733 0 1.33.597 1.33 1.33v8.727Zm15.394-5.215h-2.785V25.09a.852.852 0 1 0-1.704 0v2.784h-2.784a.852.852 0 1 0 0 1.704h2.784v2.784a.852.852 0 1 0 1.704 0v-2.784h2.784a.852.852 0 1 0 0-1.704Z" fill="#161616" stroke="#161616" stroke-width=".25"/></svg>