<svg width="90" height="90" viewBox="0 0 90 90" fill="none" xmlns="http://www.w3.org/2000/svg"><circle opacity=".5" cx="45" cy="45" r="45" fill="#FFE603"/><path d="M35.677 29.006a4.123 4.123 0 0 0-4.126 4.12 4.133 4.133 0 0 0 4.126 4.132 4.132 4.132 0 0 0 4.126-4.126 4.132 4.132 0 0 0-4.126-4.126Zm0 7.225a3.101 3.101 0 0 1-3.093-3.105 3.09 3.09 0 0 1 3.093-3.093c1.707 0 3.099 1.392 3.099 3.1 0 1.706-1.392 3.098-3.1 3.098ZM54.263 29a4.132 4.132 0 0 0-4.126 4.126 4.125 4.125 0 1 0 8.252.006A4.133 4.133 0 0 0 54.263 29Zm0 7.231a3.105 3.105 0 0 1-3.1-3.099c0-1.707 1.393-3.099 3.1-3.099s3.099 1.392 3.099 3.1c0 1.706-1.392 3.098-3.1 3.098ZM57.351 38.808h-7.364c-1.07 0-2.015.642-2.4 1.638l-2.62 6.696-2.62-6.69a2.569 2.569 0 0 0-2.407-1.638h-2.33l-1.934 3.49-1.934-3.49h-1.16A2.586 2.586 0 0 0 30 41.397V51.72h2.066V61h7.225V43.375l3.263 8.334h4.838l3.263-8.334V61h7.225v-9.291h2.066V41.384a2.604 2.604 0 0 0-2.595-2.576ZM43.254 50.669v.007l-3.005-7.68a1.02 1.02 0 0 0-1.153-.635c-.498.094-.838.51-.838 1.014v16.592h-2.066v-7.742H35.16v7.742h-2.066v-9.291h-2.06v-9.292c0-.856.693-1.55 1.55-1.55h.554l2.545 4.586 2.545-4.585h1.726c.642 0 1.21.384 1.442.982l3.855 9.852h-1.996Zm15.647.007h-2.066v9.291h-2.066v-7.742h-1.033v7.742h-2.067V43.375c0-.504-.346-.92-.837-1.014a1.02 1.02 0 0 0-1.153.636l-3.005 7.679h-.321l-.832-2.123 3.024-7.736c.233-.598.8-.982 1.442-.982h7.364c.857 0 1.55.693 1.55 1.55v9.29Z" fill="#000"/><path d="M54.78 40.874h-1.034v1.033h1.033v-1.033ZM54.78 42.934h-1.034v1.033h1.033v-1.033ZM54.78 45h-1.034v1.033h1.033V45Z" fill="#000"/></svg>