<svg width="90" height="90" viewBox="0 0 90 90" fill="none" xmlns="http://www.w3.org/2000/svg"><circle opacity=".5" cx="45" cy="45" r="45" fill="#FFE603"/><path d="M32.5 57h25a2.5 2.5 0 0 0 2.5-2.5V37a2.5 2.5 0 0 0-2.5-2.5h-25A2.5 2.5 0 0 0 30 37v17.5a2.5 2.5 0 0 0 2.5 2.5ZM50 62H40M45 57v5" stroke="#161616" stroke-width="2" stroke-linecap="round" stroke-linejoin="round"/><path d="m40 42.625-3.75 3.125L40 48.875M50 42.625l3.75 3.125L50 48.875M47.5 38.875l-5 13.75" stroke="#161616" stroke-width="1.5" stroke-linecap="round" stroke-linejoin="round"/></svg>