<svg width="90" height="90" viewBox="0 0 90 90" fill="none" xmlns="http://www.w3.org/2000/svg"><circle opacity=".5" cx="45" cy="45" r="45" fill="#FFE603"/><path d="M45.007 19.19C32.431 19.19 22.2 29.422 22.2 41.998v12.367a4.567 4.567 0 0 0 4.562 4.562h1.782a4.569 4.569 0 0 0 4.3 3.041 4.567 4.567 0 0 0 4.562-4.561V45.04a4.567 4.567 0 0 0-4.562-4.562 4.569 4.569 0 0 0-4.3 3.041H26.76c-.533 0-1.045.093-1.52.262v-1.782c0-10.9 8.867-19.768 19.766-19.768 10.9 0 19.767 8.868 19.767 19.767v1.783a4.542 4.542 0 0 0-1.52-.262h-1.782a4.569 4.569 0 0 0-4.3-3.041 4.567 4.567 0 0 0-4.562 4.561v12.368a4.567 4.567 0 0 0 5.886 4.365 4.57 4.57 0 0 1-4.366 3.237h-4.823a4.569 4.569 0 0 0-4.3-3.04 4.567 4.567 0 0 0-4.561 4.56 4.567 4.567 0 0 0 4.561 4.562 4.569 4.569 0 0 0 4.3-3.04h4.823c4.193 0 7.603-3.411 7.603-7.603v-1.52h1.52a4.567 4.567 0 0 0 4.562-4.563V41.998c0-12.576-10.231-22.808-22.808-22.808ZM31.322 45.04c0-.839.683-1.521 1.521-1.521.838 0 1.52.682 1.52 1.52v12.368a1.521 1.521 0 0 1-3.04 0V45.04Zm-4.561 1.52h1.52v9.326h-1.52c-.839 0-1.52-.682-1.52-1.52V48.08c0-.839.681-1.52 1.52-1.52Zm18.246 21.49a1.521 1.521 0 1 1 1.52-1.52c0 .838-.681 1.52-1.52 1.52Zm13.685-10.643c0 .838-.682 1.52-1.52 1.52a1.522 1.522 0 0 1-1.521-1.52V45.04c0-.839.682-1.521 1.52-1.521.839 0 1.521.682 1.521 1.52v12.368Zm6.082-3.041c0 .838-.682 1.52-1.52 1.52h-1.52V46.56h1.52c.838 0 1.52.682 1.52 1.52v6.285Z" fill="#171717"/></svg>