<svg width="90" height="90" viewBox="0 0 90 90" fill="none" xmlns="http://www.w3.org/2000/svg"><circle opacity=".7" cx="45" cy="45" r="45" fill="#FFE603"/><path fill-rule="evenodd" clip-rule="evenodd" d="M59.167 54.5c1.012 0 1.833-.821 1.833-1.834V32.833C61 31.821 60.18 31 59.167 31H30.833C29.821 31 29 31.82 29 32.833v19.833c0 1.013.82 1.834 1.833 1.834h28.334ZM46 56.5h13.167A3.833 3.833 0 0 0 63 52.666V32.833A3.833 3.833 0 0 0 59.167 29H30.833A3.833 3.833 0 0 0 27 32.833v19.833a3.833 3.833 0 0 0 3.833 3.834H44v3.666h-4.666a1 1 0 0 0 0 2h11.334a1 1 0 1 0 0-2H46V56.5Z" fill="#161616"/></svg>