<svg width="40" height="41" viewBox="0 0 40 41" fill="none" xmlns="http://www.w3.org/2000/svg"><path d="M16 16c6.075 0 11-2.686 11-6s-4.925-6-11-6S5 6.686 5 10s4.925 6 11 6Z" stroke="#161616" stroke-width="2" stroke-linecap="round" stroke-linejoin="round"/><path d="M5 10v6c0 3.314 4.925 6 11 6s11-2.686 11-6v-6" stroke="#161616" stroke-width="2" stroke-linecap="round" stroke-linejoin="round"/><path d="M5 16v6c0 3.314 4.925 6 11 6s11-2.686 11-6v-6" stroke="#161616" stroke-width="2" stroke-linecap="round" stroke-linejoin="round"/><path d="M18.398 25.867V20a.8.8 0 0 1 .8-.8h16a.8.8 0 0 1 .8.8v5.867c0 8.401-7.13 11.185-8.554 11.657a.755.755 0 0 1-.491 0c-1.424-.472-8.555-3.256-8.555-11.657Z" fill="#FFF281" stroke="#161616" stroke-width="2" stroke-linecap="round" stroke-linejoin="round"/><path d="m31.597 24.8-5.867 5.6-2.933-2.8" stroke="#161616" stroke-width="2" stroke-linecap="round" stroke-linejoin="round"/></svg>