<svg width="40" height="40" viewBox="0 0 40 40" fill="none" xmlns="http://www.w3.org/2000/svg"><path fill-rule="evenodd" clip-rule="evenodd" d="M10 3a2 2 0 0 1 2 2v5a2 2 0 0 1-2 2H5a2 2 0 0 1-2-2V5a2 2 0 0 1 2-2h5Zm0 7V5H5v5h5Zm2.5-3a1 1 0 0 1 1-1h12.729a1 1 0 0 1 0 2H13.5a1 1 0 0 1-1-1ZM7 12.5a1 1 0 0 1 1 1v12.73a1 1 0 1 1-2 0V13.5a1 1 0 0 1 1-1Zm26 0a1 1 0 0 1 1 1v12.73a1 1 0 1 1-2 0V13.5a1 1 0 0 1 1-1ZM12.5 33a1 1 0 0 1 1-1h12.729a1 1 0 0 1 0 2H13.5a1 1 0 0 1-1-1Zm-.5-3a2 2 0 0 0-2-2H5a2 2 0 0 0-2 2v5a2 2 0 0 0 2 2h5a2 2 0 0 0 2-2v-5Zm-2 0v5H5v-5h5ZM35 3a2 2 0 0 1 2 2v5a2 2 0 0 1-2 2h-5a2 2 0 0 1-2-2V5a2 2 0 0 1 2-2h5Zm0 7V5h-5v5h5Zm2 20a2 2 0 0 0-2-2h-5a2 2 0 0 0-2 2v5a2 2 0 0 0 2 2h5a2 2 0 0 0 2-2v-5Zm-2 0v5h-5v-5h5Z" fill="#161616"/></svg>