<svg width="40" height="40" viewBox="0 0 40 40" fill="none" xmlns="http://www.w3.org/2000/svg">
<path fill-rule="evenodd" clip-rule="evenodd" d="M10 3C11.1046 3 12 3.89543 12 5V10C12 11.1046 11.1046 12 10 12H5C3.89543 12 3 11.1046 3 10V5C3 3.89543 3.89543 3 5 3H10ZM10 10V5H5V10H10ZM12.5 7C12.5 6.44772 12.9477 6 13.5 6H19.6324H26.2288C26.781 6 27.2288 6.44772 27.2288 7C27.2288 7.55228 26.781 8 26.2288 8H19.6324H13.5C12.9477 8 12.5 7.55228 12.5 7ZM7 12.5C7.55228 12.5 8 12.9477 8 13.5V19.8397V26.2299C8 26.7822 7.55228 27.2299 7 27.2299C6.44772 27.2299 6 26.7822 6 26.2299V19.8397V13.5C6 12.9477 6.44772 12.5 7 12.5ZM33 12.5C33.5523 12.5 34 12.9477 34 13.5V19.8397V26.2299C34 26.7822 33.5523 27.2299 33 27.2299C32.4477 27.2299 32 26.7822 32 26.2299V19.8397V13.5C32 12.9477 32.4477 12.5 33 12.5ZM12.5 33C12.5 32.4477 12.9477 32 13.5 32H19.6324H26.2288C26.781 32 27.2288 32.4477 27.2288 33C27.2288 33.5523 26.781 34 26.2288 34H19.6324H13.5C12.9477 34 12.5 33.5523 12.5 33ZM12 30C12 28.8954 11.1046 28 10 28H5C3.89543 28 3 28.8954 3 30V35C3 36.1046 3.89543 37 5 37H10C11.1046 37 12 36.1046 12 35V30ZM10 30V35H5V30H10ZM35 3C36.1046 3 37 3.89543 37 5V10C37 11.1046 36.1046 12 35 12H30C28.8954 12 28 11.1046 28 10V5C28 3.89543 28.8954 3 30 3H35ZM35 10V5H30V10H35ZM37 30C37 28.8954 36.1046 28 35 28H30C28.8954 28 28 28.8954 28 30V35C28 36.1046 28.8954 37 30 37H35C36.1046 37 37 36.1046 37 35V30ZM35 30V35H30V30H35Z" fill="#161616"/>
</svg>
