<svg width="40" height="40" viewBox="0 0 40 40" fill="none" xmlns="http://www.w3.org/2000/svg"><path fill-rule="evenodd" clip-rule="evenodd" d="M36 27.667c0 1.012-.82 1.833-1.833 1.833H5.833A1.833 1.833 0 0 1 4 27.667V7.833C4 6.821 4.82 6 5.833 6h28.334C35.179 6 36 6.82 36 7.833v19.834ZM34.167 31.5H21v3.667h4.668a1 1 0 1 1 0 2H14.335a1 1 0 1 1 0-2H19V31.5H5.833A3.833 3.833 0 0 1 2 27.667V7.833A3.833 3.833 0 0 1 5.833 4h28.334A3.833 3.833 0 0 1 38 7.833v19.834a3.833 3.833 0 0 1-3.833 3.833Zm-20.861-9.354c-1.866 0-2.896-1.142-2.896-3.144v-.723c0-1.919 1.06-3.066 2.896-3.066.869 0 1.64.264 2.119.727.322.313.517.694.517.996 0 .391-.268.65-.659.65-.259 0-.449-.098-.703-.356-.366-.45-.708-.655-1.177-.655-.879 0-1.377.65-1.377 1.777v.577c0 1.2.489 1.85 1.377 1.85.474 0 .855-.205 1.201-.644.26-.269.435-.362.684-.362.396 0 .664.264.664.65s-.264.815-.688 1.133c-.479.37-1.153.59-1.958.59Zm5.156-.937c0 .532-.269.84-.737.84-.464 0-.708-.293-.708-.84v-4.883c0-.65.37-1.045.966-1.045.518 0 .855.259 1.114.957l1.294 3.33h.053l1.29-3.335c.263-.708.58-.952 1.122-.952.606 0 .953.381.953 1.045v4.883c0 .532-.269.84-.738.84-.459 0-.703-.293-.703-.84v-3.354h-.044l-1.162 2.968c-.19.498-.415.654-.742.654-.332 0-.562-.166-.752-.654l-1.167-2.968h-.04v3.354Zm6.792.244c-.283-.268-.44-.552-.44-.825 0-.39.284-.664.63-.664.235 0 .435.088.704.327.4.376.883.581 1.376.581.699 0 1.075-.254 1.075-.713 0-.37-.293-.6-.997-.752l-.917-.21c-1.202-.254-1.792-.874-1.792-1.894 0-1.28.996-2.09 2.558-2.09.855 0 1.626.249 2.075.674.288.263.44.556.44.854 0 .357-.254.6-.63.6-.21 0-.42-.092-.625-.287-.342-.376-.737-.572-1.24-.572-.591 0-.962.269-.962.689 0 .366.283.625.903.747l.928.2c1.24.25 1.84.86 1.84 1.87 0 1.314-1.069 2.159-2.739 2.159-.918 0-1.733-.264-2.187-.694Z" fill="#161616"/></svg>