<svg width="40" height="40" viewBox="0 0 40 40" fill="none" xmlns="http://www.w3.org/2000/svg"><path fill-rule="evenodd" clip-rule="evenodd" d="M34.167 29.5c1.012 0 1.833-.82 1.833-1.833V7.833C36 6.821 35.18 6 34.167 6H5.833C4.821 6 4 6.82 4 7.833v19.834c0 1.012.82 1.833 1.833 1.833h28.334ZM21 31.5h13.167A3.833 3.833 0 0 0 38 27.667V7.833A3.833 3.833 0 0 0 34.167 4H5.833A3.833 3.833 0 0 0 2 7.833v19.834A3.833 3.833 0 0 0 5.833 31.5H19v3.667h-4.665a1 1 0 1 0 0 2h11.333a1 1 0 1 0 0-2H21V31.5Z" fill="#161616"/></svg>