<svg width="90" height="90" viewBox="0 0 90 90" fill="none" xmlns="http://www.w3.org/2000/svg"><circle opacity=".7" cx="45" cy="45" r="45" fill="#FFE603"/><path fill-rule="evenodd" clip-rule="evenodd" d="M48.5 32.5a.25.25 0 0 1 .25-.25h12.5a.25.25 0 0 1 .25.25v25a.25.25 0 0 1-.25.25h-12.5a.25.25 0 0 1-.25-.25v-25Zm.25-2.25a2.25 2.25 0 0 0-2.25 2.25v25a2.25 2.25 0 0 0 2.25 2.25h12.5a2.25 2.25 0 0 0 2.25-2.25v-25a2.25 2.25 0 0 0-2.25-2.25h-12.5ZM30 38.5a1.5 1.5 0 0 0-1.5 1.5v11.25a1.5 1.5 0 0 0 1.5 1.5h12.5a1 1 0 1 1 0 2h-2.75v3h2.75a1 1 0 1 1 0 2H35a1 1 0 1 1 0-2h2.75v-3H30a3.5 3.5 0 0 1-3.5-3.5V40a3.5 3.5 0 0 1 3.5-3.5h12.5a1 1 0 1 1 0 2H30Zm26.875 14.625a1.875 1.875 0 1 1-3.75 0 1.875 1.875 0 0 1 3.75 0Z" fill="#161616"/></svg>