<svg width="40" height="40" viewBox="0 0 40 40" fill="none" xmlns="http://www.w3.org/2000/svg"><path fill-rule="evenodd" clip-rule="evenodd" d="M36 27.222c0 .963-.802 1.778-1.833 1.778H5.833C4.803 29 4 28.186 4 27.222V7.778C4 6.815 4.802 6 5.833 6h28.334C35.197 6 36 6.815 36 7.778v19.444ZM34.167 31H21v4h5a1 1 0 1 1 0 2H14a1 1 0 1 1 0-2h5v-4H5.833C3.735 31 2 29.327 2 27.222V7.778C2 5.673 3.735 4 5.833 4h28.334C36.265 4 38 5.673 38 7.778v19.444C38 29.327 36.265 31 34.167 31ZM23.12 8.807a.75.75 0 0 1 .448.96l-5.727 15.75a.75.75 0 0 1-1.41-.512l5.728-15.75a.75.75 0 0 1 .96-.448Zm-8.367 5.576a.75.75 0 1 0-.96-1.152l-4.296 3.58a.75.75 0 0 0 0 1.151l4.295 3.58a.75.75 0 1 0 .96-1.152l-3.603-3.004 3.604-3.003Zm11.454-1.152a.75.75 0 1 0-.96 1.152l3.604 3.003-3.604 3.004a.75.75 0 1 0 .96 1.152l4.296-3.58a.75.75 0 0 0 0-1.152l-4.296-3.58Z" fill="#161616"/></svg>