<svg width="42" height="42" viewBox="0 0 42 42" fill="none" xmlns="http://www.w3.org/2000/svg"><path d="M33.287 5.88H5.91c-.687 0-1.244.548-1.244 1.225v22.05c0 .677.557 1.225 1.244 1.225h27.377c.687 0 1.244-.548 1.244-1.225V7.105c0-.677-.557-1.225-1.244-1.225Z" stroke="#161616" stroke-width="2" stroke-linecap="round" stroke-linejoin="round"/><path d="m28.107 17.666-1.917-1.47a.802.802 0 0 0-.729-.13c-.593.19-1.17.434-1.72.729a.82.82 0 0 0-.287.257.845.845 0 0 0-.14.363l-.34 2.428a8.742 8.742 0 0 0-.736.753h0l-2.371.348a.801.801 0 0 0-.605.436 10.878 10.878 0 0 0-.713 1.76.85.85 0 0 0 .126.748l1.437 1.962a9.137 9.137 0 0 0 0 1.066h0l-1.437 1.962a.842.842 0 0 0-.126.746c.186.608.424 1.197.712 1.762a.802.802 0 0 0 .606.437l2.37.347a8.844 8.844 0 0 0 .737.754h0l.34 2.427c.017.13.066.255.14.362a.819.819 0 0 0 .286.257c.55.295 1.126.54 1.72.73a.795.795 0 0 0 .73-.129l1.916-1.471a8.554 8.554 0 0 0 1.042 0h0l1.916 1.47a.802.802 0 0 0 .73.13c.593-.19 1.169-.434 1.72-.729a.844.844 0 0 0 .427-.62l.34-2.427a8.8 8.8 0 0 0 .736-.754h0l2.37-.347a.801.801 0 0 0 .606-.436c.288-.565.527-1.154.713-1.761a.852.852 0 0 0-.126-.748l-1.438-1.962a9.05 9.05 0 0 0 0-1.066h0l1.437-1.962a.84.84 0 0 0 .127-.746 10.883 10.883 0 0 0-.712-1.761.804.804 0 0 0-.606-.437l-2.371-.347a8.844 8.844 0 0 0-.737-.754h0l-.339-2.428a.844.844 0 0 0-.14-.362.818.818 0 0 0-.286-.257 10.367 10.367 0 0 0-1.72-.73.794.794 0 0 0-.73.13l-1.917 1.47a8.554 8.554 0 0 0-1.041 0h0Z" fill="#FFF281" stroke="#161616" stroke-width="2" stroke-linecap="round" stroke-linejoin="round"/><path d="M28.63 31.573c2.723 0 4.93-2.261 4.93-5.05 0-2.79-2.207-5.05-4.93-5.05s-4.93 2.26-4.93 5.05c0 2.789 2.207 5.05 4.93 5.05Z" stroke="#161616" stroke-width="2" stroke-linecap="round" stroke-linejoin="round"/><path d="m30.04 25.88-1.794 1.797-.896-.898" stroke="#161616" stroke-width="1.5" stroke-linecap="round" stroke-linejoin="round"/></svg>