<svg width="90" height="90" viewBox="0 0 90 90" fill="none" xmlns="http://www.w3.org/2000/svg"><circle cx="45" cy="45" r="45" fill="#FFE603"/><path d="M36.614 51.342c.77-.612 1.122-.895 1.054-.85 2.221-1.836 3.967-3.343 5.236-4.522 1.292-1.179 2.38-2.414 3.264-3.706.884-1.292 1.326-2.55 1.326-3.774 0-.93-.215-1.655-.646-2.176-.43-.521-1.077-.782-1.938-.782s-1.541.329-2.04.986c-.476.635-.714 1.541-.714 2.72h-5.61c.045-1.927.453-3.536 1.224-4.828.793-1.292 1.825-2.244 3.094-2.856 1.292-.612 2.72-.918 4.284-.918 2.697 0 4.726.691 6.086 2.074 1.383 1.383 2.074 3.185 2.074 5.406 0 2.425-.827 4.68-2.482 6.766-1.655 2.063-3.763 4.08-6.324 6.052h9.18v4.726H36.614v-4.318Z" fill="#000"/></svg>