<svg width="90" height="90" viewBox="0 0 90 90" fill="none" xmlns="http://www.w3.org/2000/svg"><circle cx="45" cy="45" r="45" fill="#FFE603"/><path d="M36.941 38.184c.09-2.425.884-4.295 2.38-5.61 1.496-1.315 3.525-1.972 6.086-1.972 1.7 0 3.15.295 4.352.884 1.224.59 2.142 1.394 2.754 2.414.635 1.02.952 2.165.952 3.434 0 1.496-.374 2.72-1.122 3.672-.748.93-1.62 1.564-2.618 1.904v.136c1.292.43 2.312 1.145 3.06 2.142.748.997 1.122 2.278 1.122 3.842 0 1.405-.329 2.652-.986 3.74-.635 1.065-1.575 1.904-2.822 2.516-1.224.612-2.686.918-4.386.918-2.72 0-4.896-.669-6.528-2.006-1.61-1.337-2.46-3.355-2.55-6.052h5.644c.023.997.306 1.79.85 2.38.544.567 1.337.85 2.38.85.884 0 1.564-.25 2.04-.748.499-.521.748-1.201.748-2.04 0-1.088-.351-1.87-1.054-2.346-.68-.499-1.78-.748-3.298-.748h-1.088v-4.726h1.088c1.156 0 2.085-.193 2.788-.578.725-.408 1.088-1.122 1.088-2.142 0-.816-.227-1.45-.68-1.904-.453-.453-1.077-.68-1.87-.68-.861 0-1.507.26-1.938.782-.408.521-.646 1.167-.714 1.938h-5.678Z" fill="#000"/></svg>