<svg width="40" height="40" viewBox="0 0 40 40" fill="none" xmlns="http://www.w3.org/2000/svg"><path fill-rule="evenodd" clip-rule="evenodd" d="M20 4.75A5.25 5.25 0 0 0 14.75 10v.25h10.5V10A5.25 5.25 0 0 0 20 4.75Zm-5.127.123a7.25 7.25 0 0 1 10.604.377h5.773A2.25 2.25 0 0 1 33.5 7.5v18a1 1 0 1 1-2 0v-18a.25.25 0 0 0-.25-.25h-4.542c.355.864.542 1.798.542 2.75v1.25a1 1 0 0 1-1 1h-12.5a1 1 0 0 1-1-1V10c0-.952.187-1.886.542-2.75H8.75a.25.25 0 0 0-.25.25v26.25a.25.25 0 0 0 .25.25H18a1 1 0 1 1 0 2H8.75a2.25 2.25 0 0 1-2.25-2.25V7.5a2.25 2.25 0 0 1 2.25-2.25h5.773c.112-.13.229-.255.35-.377ZM14 18.75a1 1 0 0 1 1-1h10a1 1 0 1 1 0 2H15a1 1 0 0 1-1-1Zm0 5a1 1 0 0 1 1-1h10a1 1 0 1 1 0 2H15a1 1 0 0 1-1-1Zm22.383 2.464a1.145 1.145 0 0 0-1.598.265l-6.874 9.602-.007.01-.007.008a1.04 1.04 0 0 1-.722.359 1.04 1.04 0 0 1-.785-.28l-.003-.004-4.443-4.336a1.145 1.145 0 0 0-1.599 1.64l4.449 4.34.002.002.01.01a3.345 3.345 0 0 0 2.522.912 3.346 3.346 0 0 0 2.417-1.29l6.902-9.64a1.145 1.145 0 0 0-.264-1.598Z" fill="#161616"/></svg>