<svg width="40" height="40" viewBox="0 0 40 40" fill="none" xmlns="http://www.w3.org/2000/svg"><path fill-rule="evenodd" clip-rule="evenodd" d="M16.288 6.288A5.25 5.25 0 0 1 25.25 10v.25h-10.5V10a5.25 5.25 0 0 1 1.538-3.712ZM20 2.75a7.25 7.25 0 0 0-5.477 2.5H8.75A2.25 2.25 0 0 0 6.5 7.5v26.25A2.25 2.25 0 0 0 8.75 36h22.5a2.25 2.25 0 0 0 2.25-2.25V7.5a2.25 2.25 0 0 0-2.25-2.25h-5.773A7.243 7.243 0 0 0 20 2.75Zm6.708 4.5c.355.864.542 1.798.542 2.75v1.25a1 1 0 0 1-1 1h-12.5a1 1 0 0 1-1-1V10c0-.952.187-1.886.542-2.75H8.75a.25.25 0 0 0-.25.25v26.25a.25.25 0 0 0 .25.25h22.5a.25.25 0 0 0 .25-.25V7.5a.25.25 0 0 0-.25-.25h-4.542ZM15 17.75a1 1 0 1 0 0 2h10a1 1 0 1 0 0-2H15Zm0 5a1 1 0 1 0 0 2h10a1 1 0 1 0 0-2H15Z" fill="#161616"/></svg>