<svg width="40" height="40" viewBox="0 0 40 40" fill="none" xmlns="http://www.w3.org/2000/svg"><path d="M3.172 13.016c.647 0 1.172-.525 1.172-1.172V5.906h5.937a1.172 1.172 0 0 0 0-2.343h-7.11C2.526 3.563 2 4.087 2 4.734v7.11c0 .647.525 1.172 1.172 1.172Zm1.172 21.078h5.937a1.172 1.172 0 1 1 0 2.343h-7.11A1.172 1.172 0 0 1 2 35.267v-7.11a1.172 1.172 0 0 1 2.344 0v5.938Zm31.312-5.938a1.172 1.172 0 0 1 2.344 0v7.11c0 .647-.525 1.172-1.172 1.172h-7.11a1.172 1.172 0 0 1 0-2.344h5.938v-5.938ZM29.64 3.563h7.188c.647 0 1.172.524 1.172 1.171v7.11a1.172 1.172 0 0 1-2.344 0V5.906h-6.015a1.172 1.172 0 0 1 0-2.343Zm-5.433 13.73a1 1 0 0 1 0 1.414l-4 4a1 1 0 0 1-1.414 0l-2-2a1 1 0 0 1 1.414-1.414l1.293 1.293 3.293-3.293a1 1 0 0 1 1.414 0Z" fill="#161616"/><path fill-rule="evenodd" clip-rule="evenodd" d="M20 10c-5.523 0-10 4.477-10 10s4.477 10 10 10 10-4.477 10-10-4.477-10-10-10Zm-8 10a8 8 0 1 1 16 0 8 8 0 0 1-16 0Z" fill="#161616"/></svg>