<svg xmlns="http://www.w3.org/2000/svg" width="33" height="33" viewBox="0 0 33 33"><g fill="none" fill-rule="evenodd"><circle cx="16.5" cy="16.5" r="16.5" fill="#FFF"/><path fill="#0E0E0F" stroke="#0E0E0F" stroke-width=".5" d="M22.12 11.92c-.153.207-1.37 1.766-4.054 2.862.169.346.33.698.482 1.052l.156.375c2.416-.304 4.816.183 5.055.234a7.226 7.226 0 0 0-1.639-4.523zm-7.321-2.467c.2.268 1.519 2.064 2.709 4.25 2.581-.968 3.674-2.437 3.805-2.623a7.233 7.233 0 0 0-6.514-1.627zm-5.406 5.571c.325.004 3.316.017 6.712-.885a46.091 46.091 0 0 0-2.692-4.198 7.287 7.287 0 0 0-4.02 5.083zm1.713 6.341c.165-.281 2.157-3.58 5.902-4.79.094-.031.19-.06.286-.087a25.158 25.158 0 0 0-.589-1.232c-3.626 1.085-7.144 1.04-7.462 1.033l-.003.222c0 1.865.707 3.567 1.866 4.854zm8.23 1.83c-.108-.638-.53-2.858-1.549-5.506l-.048.016c-4.095 1.427-5.565 4.267-5.695 4.534a7.22 7.22 0 0 0 4.456 1.532 7.208 7.208 0 0 0 2.836-.577zm4.332-5.531c-.248-.079-2.247-.675-4.522-.31.95 2.609 1.336 4.734 1.41 5.176a7.268 7.268 0 0 0 3.112-4.866zM16.5 25C11.813 25 8 21.187 8 16.5 8 11.813 11.813 8 16.5 8c4.687 0 8.5 3.813 8.5 8.5 0 4.687-3.813 8.5-8.5 8.5z"/></g></svg>