<svg width="35" height="35" viewBox="0 0 35 35" fill="none" xmlns="http://www.w3.org/2000/svg"><path d="M17.5 0C7.875 0 0 7.875 0 17.5S7.875 35 17.5 35 35 27.125 35 17.5 27.125 0 17.5 0Zm14.438 16.625c-3.792-.583-7.146-.583-10.355-.146-.291-.875-.729-1.604-1.166-2.479 3.354-1.458 6.125-3.5 8.02-5.98 2.042 2.48 3.355 5.397 3.5 8.605Zm-5.688-10.5c-1.75 2.333-4.23 4.083-7.292 5.396A66.12 66.12 0 0 0 14 3.5a14.383 14.383 0 0 1 3.5-.438c3.354 0 6.417 1.167 8.75 3.063ZM10.937 4.667c1.896 2.479 3.646 5.104 5.105 7.875-3.5 1.02-7.73 1.458-12.542 1.604 1.02-4.23 3.792-7.584 7.438-9.48ZM3.064 17.5v-.438c5.541 0 10.5-.583 14.437-1.895.292.729.73 1.458 1.02 2.041-4.957 1.605-9.04 4.667-12.103 9.48C4.375 24.207 3.063 21 3.063 17.5Zm5.541 11.375c2.917-4.52 6.563-7.438 11.084-8.75 1.312 3.5 2.333 7.146 2.916 10.938a14.604 14.604 0 0 1-14-2.188Zm16.917.583c-.584-3.5-1.604-6.854-2.771-10.062 2.77-.438 5.688-.292 9.042.291-.73 4.084-2.917 7.584-6.271 9.771Z" fill="#161616"/></svg>