<svg width="48" height="49" viewBox="0 0 48 49" fill="none" xmlns="http://www.w3.org/2000/svg"><path d="M33.393 19.416a10.854 10.854 0 0 0-3.98-3.978c-1.675-.976-3.503-1.464-5.484-1.464-1.982 0-3.81.488-5.486 1.464a10.85 10.85 0 0 0-3.979 3.978C13.488 21.091 13 22.921 13 24.902c0 1.982.487 3.811 1.464 5.487a10.846 10.846 0 0 0 3.98 3.978c1.675.976 3.503 1.464 5.485 1.464 1.981 0 3.81-.488 5.486-1.464a10.854 10.854 0 0 0 3.98-3.978c.975-1.676 1.462-3.505 1.462-5.487 0-1.981-.487-3.81-1.464-5.486Zm-9.464-3.628c2.186 0 4.122.7 5.814 2.097-1.006 1.283-2.498 2.339-4.48 3.17-1.096-1.982-2.283-3.637-3.565-4.962a8.432 8.432 0 0 1 2.23-.305Zm-7.093 3.431a8.87 8.87 0 0 1 2.963-2.426c1.324 1.313 2.54 2.951 3.65 4.918-2.186.656-4.496.984-6.93.984-.626 0-1.1-.014-1.42-.044a9.343 9.343 0 0 1 1.737-3.432Zm-2.022 5.683c0-.059.004-.13.011-.218.008-.088.011-.16.011-.219.278.015.7.022 1.269.022 2.913 0 5.624-.401 8.13-1.202.204.408.416.867.634 1.377-1.443.32-2.923 1.1-4.439 2.339-1.515 1.239-2.621 2.543-3.32 3.912-1.53-1.734-2.296-3.737-2.296-6.01Zm9.115 9.115c-2.07 0-3.928-.642-5.575-1.922.657-1.298 1.666-2.538 3.028-3.717 1.362-1.18 2.714-1.916 4.055-2.208a32.176 32.176 0 0 1 1.705 7.235 8.924 8.924 0 0 1-3.213.612Zm7.737-4.328a9.127 9.127 0 0 1-2.82 2.865 31.457 31.457 0 0 0-1.506-6.646 39.16 39.16 0 0 1 2.732-.11c.873 0 1.842.038 2.906.11a8.85 8.85 0 0 1-1.312 3.781Zm-1.355-5.464c-1.268 0-2.44.051-3.519.153a29.617 29.617 0 0 0-.743-1.77c2.258-.99 3.86-2.193 4.808-3.607 1.31 1.545 2.026 3.308 2.142 5.29a54.645 54.645 0 0 0-2.688-.066Z" fill="currentColor"/><circle opacity=".3" cx="24" cy="24.973" r="23.5" stroke="currentColor"/></svg>