<svg width="90" height="90" viewBox="0 0 90 90" fill="none" xmlns="http://www.w3.org/2000/svg"><circle opacity=".5" cx="45" cy="45" r="45" fill="#FFE603"/><path d="M45.001 41.25V30.625a3.125 3.125 0 1 0-6.25 0v18.948l-3.426-5.934a3.126 3.126 0 1 0-5.413 3.124C35.001 57.5 38.097 61.25 45.001 61.25a12.5 12.5 0 0 0 12.5-12.5V42.5a3.125 3.125 0 1 0-6.25 0" stroke="#161616" stroke-width="2" stroke-linecap="round" stroke-linejoin="round"/><path d="M51.25 42.5v-1.875a3.125 3.125 0 1 0-6.25 0v.625M49 30.5c0-1.99-.737-3.897-2.05-5.303C45.637 23.79 43.856 23 42 23c-1.856 0-3.637.79-4.95 2.197C35.737 26.603 35 28.51 35 30.5" stroke="#161616" stroke-width="2" stroke-linecap="round" stroke-linejoin="round"/></svg>