<svg
  width="90"
  height="90"
  viewBox="0 0 90 90"
  fill="none"
  xmlns="http://www.w3.org/2000/svg"
>
  <circle
    opacity="0.5"
    cx="45"
    cy="45"
    r="45"
    fill="#FFE603"
  ></circle>
  <path
    d="M45.001 41.25V30.625C45.001 29.7962 44.6718 29.0013 44.0857 28.4153C43.4997 27.8292 42.7048 27.5 41.876 27.5C41.0472 27.5 40.2523 27.8292 39.6663 28.4153C39.0802 29.0013 38.751 29.7962 38.751 30.625V49.5728L35.3248 43.6385C35.1198 43.2828 34.8467 42.9709 34.5211 42.7207C34.1955 42.4706 33.8238 42.287 33.4273 42.1806C33.0307 42.0741 32.617 42.0469 32.2099 42.1004C31.8028 42.1539 31.4103 42.2871 31.0547 42.4924C30.6991 42.6977 30.3875 42.9711 30.1376 43.2969C29.8877 43.6227 29.7044 43.9946 29.5983 44.3912C29.4922 44.7879 29.4653 45.2015 29.5192 45.6086C29.573 46.0156 29.7066 46.4081 29.9122 46.7635C35.001 57.5 38.0974 61.25 45.001 61.25C46.6425 61.25 48.268 60.9267 49.7845 60.2985C51.3011 59.6703 52.6791 58.7496 53.8398 57.5888C55.0006 56.4281 55.9213 55.0501 56.5495 53.5335C57.1777 52.017 57.501 50.3915 57.501 48.75V42.5C57.501 41.6712 57.1718 40.8763 56.5857 40.2903C55.9997 39.7042 55.2048 39.375 54.376 39.375C53.5472 39.375 52.7523 39.7042 52.1663 40.2903C51.5802 40.8763 51.251 41.6712 51.251 42.5"
    stroke="#161616"
    stroke-width="2"
    stroke-linecap="round"
    stroke-linejoin="round"
  ></path>
  <path
    d="M51.25 42.5V40.625C51.25 39.7962 50.9208 39.0013 50.3347 38.4153C49.7487 37.8292 48.9538 37.5 48.125 37.5C47.2962 37.5 46.5013 37.8292 45.9153 38.4153C45.3292 39.0013 45 39.7962 45 40.625V41.25"
    stroke="#161616"
    stroke-width="2"
    stroke-linecap="round"
    stroke-linejoin="round"
  ></path>
  <path
    d="M49 30.5C49 28.5109 48.2625 26.6032 46.9497 25.1967C45.637 23.7902 43.8565 23 42 23C40.1435 23 38.363 23.7902 37.0503 25.1967C35.7375 26.6032 35 28.5109 35 30.5"
    stroke="#161616"
    stroke-width="2"
    stroke-linecap="round"
    stroke-linejoin="round"
  ></path>
</svg>
