<svg
  width="90"
  height="90"
  viewBox="0 0 90 90"
  fill="none"
  xmlns="http://www.w3.org/2000/svg"
>
  <circle
    opacity="0.5"
    cx="45"
    cy="45"
    r="45"
    fill="#FFE603"
  ></circle>
  <path
    d="M45 38.75C45 37.4239 45.5268 36.1521 46.4645 35.2145C47.4021 34.2768 48.6739 33.75 50 33.75H60C60.3315 33.75 60.6495 33.8817 60.8839 34.1161C61.1183 34.3505 61.25 34.6685 61.25 35V55C61.25 55.3315 61.1183 55.6495 60.8839 55.8839C60.6495 56.1183 60.3315 56.25 60 56.25H50C48.6739 56.25 47.4021 56.7768 46.4645 57.7145C45.5268 58.6521 45 59.9239 45 61.25"
    stroke="#161616"
    stroke-width="2"
    stroke-linecap="round"
    stroke-linejoin="round"
  ></path>
  <path
    d="M28.75 55C28.75 55.3315 28.8817 55.6495 29.1161 55.8839C29.3505 56.1183 29.6685 56.25 30 56.25H40C41.3261 56.25 42.5979 56.7768 43.5355 57.7145C44.4732 58.6521 45 59.9239 45 61.25V38.75C45 37.4239 44.4732 36.1521 43.5355 35.2145C42.5979 34.2768 41.3261 33.75 40 33.75H30C29.6685 33.75 29.3505 33.8817 29.1161 34.1161C28.8817 34.3505 28.75 34.6685 28.75 35V55Z"
    stroke="#161616"
    stroke-width="2"
    stroke-linecap="round"
    stroke-linejoin="round"
  ></path>
</svg>
