<svg width="40" height="40" viewBox="0 0 40 40" fill="none" xmlns="http://www.w3.org/2000/svg"><path fill-rule="evenodd" clip-rule="evenodd" d="m39.298 26.027-9.286-4.887a1.1 1.1 0 0 0-1.024 0l-9.286 4.887a1.1 1.1 0 0 0 0 1.946L23 29.71V35.967c0 .267.096.507.248.693.65.795 1.63 1.403 2.687 1.825 1.07.428 2.297.697 3.52.764 2.367.13 5.104-.5 6.396-2.723.096-.165.149-.354.149-.552v-6.265l3.298-1.736a1.1 1.1 0 0 0 0-1.946ZM25 30.764v-.002l3.988 2.098a1.1 1.1 0 0 0 1.024 0L34 30.762v4.95c-.78 1.108-2.44 1.65-4.436 1.54a9.298 9.298 0 0 1-2.887-.624c-.728-.29-1.298-.647-1.677-1.014V30.765Zm-.534-2.544L22.147 27l7.353-3.87L36.853 27l-2.319 1.22-5.034 2.65-5.034-2.65ZM31 18.5a1 1 0 1 1-2 0V6.25a1.5 1.5 0 0 0-1.5-1.5h-15a1.5 1.5 0 0 0-1.5 1.5v27.5a1.5 1.5 0 0 0 1.5 1.5h8a1 1 0 1 1 0 2h-8a3.5 3.5 0 0 1-3.5-3.5V6.25a3.5 3.5 0 0 1 3.5-3.5h15a3.5 3.5 0 0 1 3.5 3.5V18.5Z" fill="#161616"/></svg>