<svg width="90" height="90" viewBox="0 0 90 90" fill="none" xmlns="http://www.w3.org/2000/svg"><circle opacity=".7" cx="45" cy="45" r="45" fill="#FFE603"/><path d="M38.85 34h-3.6A2.24 2.24 0 0 0 33 36.23V60.77a2.24 2.24 0 0 0 2.25 2.23h13.5A2.24 2.24 0 0 0 51 60.77v-12.27" stroke="#161616" stroke-width="2" stroke-linecap="round" stroke-linejoin="round"/><path d="m48.657 44.388-1.387 1.065a.58.58 0 0 1-.528.094 7.494 7.494 0 0 1-1.246-.528.594.594 0 0 1-.31-.449l-.245-1.758a6.32 6.32 0 0 1-.533-.545l-1.717-.252a.579.579 0 0 1-.438-.316 7.893 7.893 0 0 1-.516-1.274.617.617 0 0 1 .091-.542l1.04-1.42a6.665 6.665 0 0 1 0-.772l-1.04-1.42a.61.61 0 0 1-.091-.541c.134-.44.307-.867.515-1.275a.597.597 0 0 1 .439-.317l1.717-.251a6.43 6.43 0 0 1 .533-.546l.246-1.757a.61.61 0 0 1 .308-.449c.4-.213.816-.39 1.246-.528a.576.576 0 0 1 .528.093l1.388 1.065a6.197 6.197 0 0 1 .754 0l1.388-1.064a.581.581 0 0 1 .528-.094c.43.137.846.314 1.245.527a.593.593 0 0 1 .31.45l.245 1.757a6.44 6.44 0 0 1 .533.546l1.717.251a.581.581 0 0 1 .438.316c.209.408.382.835.517 1.275a.615.615 0 0 1-.092.541l-1.04 1.42a6.668 6.668 0 0 1 0 .773l1.04 1.42a.609.609 0 0 1 .091.54c-.134.44-.307.867-.515 1.276a.598.598 0 0 1-.439.316l-1.717.252a6.43 6.43 0 0 1-.533.545l-.245 1.758a.61.61 0 0 1-.309.448c-.399.214-.816.39-1.245.529a.576.576 0 0 1-.53-.094l-1.387-1.065a6.116 6.116 0 0 1-.754 0Z" stroke="#161616" stroke-width="1.905" stroke-linecap="round" stroke-linejoin="round"/><path fill-rule="evenodd" clip-rule="evenodd" d="M49.035 40.681c-1.425 0-2.618-1.189-2.618-2.704 0-1.515 1.193-2.704 2.618-2.704 1.424 0 2.617 1.19 2.617 2.704 0 1.515-1.193 2.704-2.617 2.704Zm-4.523-2.704c0 2.524 2.004 4.609 4.523 4.609 2.519 0 4.522-2.085 4.522-4.609s-2.003-4.609-4.522-4.609c-2.52 0-4.523 2.085-4.523 4.61Z" fill="#161616"/></svg>