<svg width="211" height="53" viewBox="0 0 211 53" fill="none" xmlns="http://www.w3.org/2000/svg"><path d="M44.763 33.617c-2.085-.366-7.482-.366-7.482 1.338 0 1.703 5.888 1.339 7.482-1.338ZM28.45.999C26.366.634 12.875-.461 5.761 8.909c-3.434 4.261-.98 9.494 6.746 9.494C5.27 21.08-.25 25.95 1.223 31.669c2.036 7.914 10.916 7.546 17.907 6.816 12.436-1.3 20.972-12.9 22.935-14.362 2.943 1.462 4.415 4.138 3.188 5.843-3.31.12-12.019.85-11.651 5.354.368 4.503 14.104 4.016 21.708-.973 1.105.365 3.312 1.46 4.415 2.311 1.105.853 2.33.122 2.453-3.529-1.103-1.095-4.17-2.19-5.763-2.19.49-2.434 1.349-5.354-5.52-10.345-1.103-.608-.98-1.34-.122-1.948.858-.608-.123-2.068-2.454-2.8-2.33-.73-7.358-.363-8.952 1.462-.736.73-.736 3.286.49 4.138-1.226 2.07-7.358 10.953-16.435 11.683-3.311.366-7.036-.116-6.745-4.868.245-4.016 6.377-7.545 8.585-8.519 1.35-.608 1.104-2.556-.614-3.043-1.716-.486-5.763-.73-6.009-3.894-.245-3.164 3.802-5.477 10.303-6.694 1.961-.243 1.961-4.504-.492-5.112Zm52.247 21.055c-1.962-.243-8.217-.973-9.075 4.99-.859 5.963 4.047 6.451 6.01 6.207 1.961-.244 6.008-2.312 6.008-9.492-.122-3.652 1.35-4.991 4.538-5.113 3.19-.122 4.661.608 4.661 3.895s.123 27.992.123 29.088c-2.33 0-8.463.244-10.915.609.245-5.843.98-17.648.98-19.474-1.595 2.313-4.66 5.72-10.425 5.599-5.763-.122-11.038-2.8-10.67-10.345.368-7.546 8.094-12.78 19.992-11.075 2.084.365 2.33 5.476-1.227 5.11m127.676 11.442c-2.82-.123-4.783.364-6.99.73-2.208.365-5.642.73-8.218.122-2.576-.61-3.312-3.165-2.576-4.748.737-1.581 3.189-2.434 4.661-2.92 1.472-.486 1.472-2.434-.122-2.8-1.595-.364-3.802-.974-3.802-2.312 0-1.338 1.962-3.164 8.094-2.677 2.331.244 1.717-3.774-.858-4.382-2.331-.121-10.425.608-15.945 3.408-2.821 1.46-3.311 5.477 4.17 6.816-4.66.365-7.849 4.38-7.726 6.207.035.519-.059 1.443.255 2.459-1.21.776-2.703 1.03-4.364.949-2.453-.122-6.132-3.043-5.334-8.034.705-4.42 1.961-3.894 2.574-4.138 1.35 0 2.699-.73 2.699-2.433 0-1.704.43-2.13-.92-2.13-1.349 0-9.75 1.217-16.006-.183-.122-1.825-3.189-4.38-6.377-2.678-3.188 1.705-2.33 5.6 1.349 6.573.287.076.581.148.872.22-1.127 4.603-3.718 12.288-7.862 13.046-2.331.487-3.804-1.095-3.557-4.868.245-3.773.981-10.832.981-10.832.245-3.044-10.916-2.92-10.793.852V31.67c0 .284.061.642.171 1.035-2.825 2.181-9.057 2.681-8.633-2.252l1.471-10.832c.368-3.164-9.812-4.259-10.057.122l-.123 8.762c-.04.5-.056 1.105-.017 1.765-.811 1.499-2.341 2.898-4.275 2.982-2.821.121-4.416-.244-4.171-3.773.246-3.529 1.104-10.224 1.104-10.224.246-3.163-9.934-3.163-10.18-.364-.122 2.312-.735 10.832-.858 13.509-.122 2.678 4.048 5.964 9.934 5.72 5.192-.214 7.045-1.66 9.177-4.502 1.039 2.497 3.395 4.712 8.485 4.503 1.936-.114 4.828.505 9.358-3.017 1.209 1.62 3.257 3.124 6.34 3.26 5.52.243 9.69-.243 12.633-5.964 2.557-4.97 3.356-7 4.004-10.161 2.511.48 5.104.79 7.647.79-2.943 2.069-4.169 3.772-3.924 7.303.123 2.19 1.594 7.83 11.038 7.91 5.335.045 7.788-1.088 9.477-2.346 2.265 1.634 6.975 2.805 16.77 1.981 3.188-.488 7.972-.365 11.038-.243 2.084.121 2.207-4.016-.614-4.138m-70.154-19.939c3.065 0 5.55-2.081 5.55-4.648 0-2.566-2.485-4.646-5.55-4.646-3.066 0-5.551 2.08-5.551 4.646 0 2.567 2.485 4.648 5.551 4.648" opacity=".5" fill-rule="evenodd" clip-rule="evenodd" fill="#171717"/></svg>