<svg width="40" height="40" fill="none" xmlns="http://www.w3.org/2000/svg"><g clip-path="url(#a)"><g clip-path="url(#b)"><path d="M24.6 11.4H22c-2.9 0-4.7 1.7-4.7 4.2v2h-2.6c-.3 0-.5 0-.5.3v2.8c0 .2.2.3.5.3h2.6v7c0 .2.1.4.4.4H21c.2 0 .4-.2.4-.4v-7h3c.2 0 .4-.1.4-.3v-2.8l-.1-.3h-3.3v-1.7c0-.8.2-1.2 1.4-1.2h1.7c.3 0 .4-.1.4-.3v-2.6c0-.2-.1-.4-.4-.4Z" fill="#fff"/></g></g><circle opacity=".3" cx="20" cy="20" r="19.5" stroke="#fff"/><defs><clipPath id="a"><path fill="#fff" transform="translate(10 10)" d="M0 0h20v20H0z"/></clipPath><clipPath id="b"><path fill="#fff" transform="translate(9.7 11.4)" d="M0 0h20v17H0z"/></clipPath></defs></svg>