<svg width="90" height="90" viewBox="0 0 90 90" fill="none" xmlns="http://www.w3.org/2000/svg"><circle opacity=".7" cx="45" cy="45" r="45" fill="#FFE603"/><path fill-rule="evenodd" clip-rule="evenodd" d="M43.74 34.778c0-.83.566-1.753 1.846-2.521C46.848 31.5 48.654 31 50.703 31c2.048 0 3.855.5 5.116 1.257 1.28.768 1.847 1.69 1.847 2.52 0 .83-.566 1.753-1.847 2.522-1.261.756-3.068 1.256-5.116 1.256-2.05 0-3.856-.5-5.117-1.256-1.28-.769-1.846-1.691-1.846-2.521ZM50.703 29c-2.35 0-4.524.57-6.146 1.542-1.6.96-2.817 2.427-2.817 4.236v19.11c0 1.81 1.217 3.276 2.818 4.237 1.621.972 3.796 1.541 6.145 1.541 2.348 0 4.523-.569 6.145-1.541 1.6-.961 2.818-2.428 2.818-4.236V34.778c0-1.809-1.217-3.275-2.818-4.236C55.227 29.569 53.052 29 50.703 29Zm6.963 22.19a7.726 7.726 0 0 1-.818.564c-1.622.973-3.797 1.542-6.145 1.542-2.349 0-4.524-.57-6.145-1.542a7.726 7.726 0 0 1-.818-.563v2.698c0 .83.566 1.752 1.847 2.52 1.26.757 3.067 1.257 5.116 1.257 2.048 0 3.855-.5 5.116-1.256 1.28-.769 1.847-1.691 1.847-2.521V51.19ZM43.74 41.149V38.45c.257.204.531.392.817.563 1.622.973 3.797 1.542 6.146 1.542 2.349 0 4.524-.569 6.145-1.541.286-.172.56-.36.818-.564v2.698c0 .83-.566 1.752-1.847 2.521-1.261.757-3.068 1.257-5.116 1.257-2.049 0-3.855-.5-5.116-1.257-1.281-.768-1.847-1.69-1.847-2.52Zm13.108 4.236c.286-.172.56-.36.818-.563v2.697c0 .83-.566 1.753-1.847 2.521-1.261.757-3.068 1.257-5.116 1.257-2.049 0-3.855-.5-5.116-1.257-1.281-.768-1.847-1.69-1.847-2.52v-2.7c.257.203.531.391.818.563 1.621.973 3.796 1.542 6.145 1.542 2.348 0 4.523-.57 6.145-1.542Zm-22.663-6.829v-.592a1 1 0 0 0-2 0v.599a3.389 3.389 0 0 0 .204 6.771h1.592a1.389 1.389 0 0 1 0 2.778H30a1 1 0 1 0 0 2h2.185v.592a1 1 0 0 0 2 0v-.598a3.389 3.389 0 0 0-.204-6.772H32.39a1.389 1.389 0 1 1 0-2.778h3.981a1 1 0 1 0 0-2h-2.185Z" fill="#161616"/></svg>