<svg
  width="71"
  height="69"
  viewBox="0 0 71 69"
  fill="none"
  xmlns="http://www.w3.org/2000/svg"
>
  <g clip-path="url(#clip0)">
    <path
      d="M43.2852 24.9219L36.2786 31.3476L29.7773 18.4209L33.1417 10.9861C34.0167 9.47673 35.3817 9.49398 36.2348 10.9861L43.2852 24.9219Z"
      fill="#ACACAC"
    ></path>
    <path
      d="M29.7769 18.4208L36.2781 31.3476L10.0938 55.3574L29.7769 18.4208Z"
      fill="#6A6A6A"
    ></path>
    <path
      d="M50.9475 15.1002C52.1987 13.9143 53.4937 14.3196 53.8241 15.9994L60.6403 55.0383L38.0478 68.407C37.2603 68.8383 35.1603 69.0237 35.1603 69.0237C35.1603 69.0237 33.2484 68.7995 32.52 68.3768L10.0938 55.3574L50.9475 15.1002Z"
      fill="#9B9B9B"
    ></path>
    <path
      d="M29.7786 18.4209L10.0977 55.3574L18.863 1.3757C19.1867 -0.306177 20.158 -0.467896 21.0242 1.0156L29.7786 18.4209Z"
      fill="#ACACAC"
    ></path>
  </g>
  <defs>
    <clipPath id="clip0">
      <rect
        width="70"
        height="69"
        fill="white"
        transform="translate(0.367188)"
      ></rect>
    </clipPath>
  </defs>
</svg>
