<svg
  width="90"
  height="90"
  viewBox="0 0 90 90"
  fill="none"
  xmlns="http://www.w3.org/2000/svg"
>
  <circle
    opacity="0.5"
    cx="45"
    cy="45"
    r="45"
    fill="#FFE603"
  ></circle>
  <path
    d="M37.3346 36.6666H32.668C32.4028 36.6666 32.1484 36.772 31.9609 36.9595C31.7733 37.1471 31.668 37.4014 31.668 37.6666V52.3333C31.668 52.4646 31.6938 52.5947 31.7441 52.716C31.7943 52.8373 31.868 52.9475 31.9609 53.0404C32.0537 53.1333 32.164 53.2069 32.2853 53.2572C32.4066 53.3074 32.5366 53.3333 32.668 53.3333H37.3346C37.466 53.3333 37.596 53.3074 37.7173 53.2572C37.8386 53.2069 37.9489 53.1333 38.0417 53.0404C38.1346 52.9475 38.2083 52.8373 38.2585 52.716C38.3088 52.5947 38.3346 52.4646 38.3346 52.3333V37.6666C38.3346 37.4014 38.2293 37.1471 38.0417 36.9595C37.8542 36.772 37.5999 36.6666 37.3346 36.6666V36.6666Z"
    stroke="black"
    stroke-width="2"
    stroke-linecap="round"
    stroke-linejoin="round"
  ></path>
  <path
    d="M57.3346 36.6666H52.668C52.4028 36.6666 52.1484 36.772 51.9609 36.9595C51.7733 37.1471 51.668 37.4014 51.668 37.6666V52.3333C51.668 52.4646 51.6938 52.5947 51.7441 52.716C51.7943 52.8373 51.868 52.9475 51.9609 53.0404C52.0537 53.1333 52.164 53.2069 52.2853 53.2572C52.4066 53.3074 52.5366 53.3333 52.668 53.3333H57.3346C57.466 53.3333 57.596 53.3074 57.7173 53.2572C57.8386 53.2069 57.9489 53.1333 58.0417 53.0404C58.1346 52.9475 58.2083 52.8373 58.2585 52.716C58.3088 52.5947 58.3346 52.4646 58.3346 52.3333V37.6666C58.3346 37.4014 58.2293 37.1471 58.0417 36.9595C57.8542 36.772 57.5999 36.6666 57.3346 36.6666V36.6666Z"
    stroke="black"
    stroke-width="2"
    stroke-linecap="round"
    stroke-linejoin="round"
  ></path>
  <path
    d="M26.668 48.9999V40.9999C26.668 40.7347 26.7733 40.4804 26.9609 40.2928C27.1484 40.1053 27.4028 39.9999 27.668 39.9999H30.668C30.9332 39.9999 31.1875 40.1053 31.3751 40.2928C31.5626 40.4804 31.668 40.7347 31.668 40.9999V48.9999C31.668 49.2652 31.5626 49.5195 31.3751 49.707C31.1875 49.8946 30.9332 49.9999 30.668 49.9999H27.668C27.4028 49.9999 27.1484 49.8946 26.9609 49.707C26.7733 49.5195 26.668 49.2652 26.668 48.9999V48.9999Z"
    stroke="black"
    stroke-width="2"
    stroke-linecap="round"
    stroke-linejoin="round"
  ></path>
  <path
    d="M63.3359 49V41C63.3359 40.7348 63.2306 40.4804 63.043 40.2929C62.8555 40.1054 62.6012 40 62.3359 40H59.3359C59.0707 40 58.8164 40.1054 58.6288 40.2929C58.4413 40.4804 58.3359 40.7348 58.3359 41V49C58.3359 49.2652 58.4413 49.5196 58.6288 49.7071C58.8164 49.8946 59.0707 50 59.3359 50H62.3359C62.6012 50 62.8555 49.8946 63.043 49.7071C63.2306 49.5196 63.3359 49.2652 63.3359 49V49Z"
    stroke="black"
    stroke-width="2"
    stroke-linecap="round"
    stroke-linejoin="round"
  ></path>
  <path
    d="M38.3359 45H51.6693"
    stroke="black"
    stroke-width="2"
    stroke-linecap="round"
    stroke-linejoin="round"
  ></path>
</svg>
