<svg width="90" height="90" viewBox="0 0 90 90" fill="none" xmlns="http://www.w3.org/2000/svg"><circle opacity=".5" cx="45" cy="45" r="45" fill="#FFE603"/><path d="M37.335 36.667h-4.667a1 1 0 0 0-1 1v14.666a1 1 0 0 0 1 1h4.667a1 1 0 0 0 1-1V37.667a1 1 0 0 0-1-1v0Zm20 0h-4.667a1 1 0 0 0-1 1v14.666a1 1 0 0 0 1 1h4.667a1 1 0 0 0 1-1V37.667a1 1 0 0 0-1-1v0ZM26.668 49v-8a1 1 0 0 1 1-1h3a1 1 0 0 1 1 1v8a1 1 0 0 1-1 1h-3a1 1 0 0 1-1-1v0Zm36.668 0v-8a1 1 0 0 0-1-1h-3a1 1 0 0 0-1 1v8a1 1 0 0 0 1 1h3a1 1 0 0 0 1-1v0Zm-25-4h13.333" stroke="#000" stroke-width="2" stroke-linecap="round" stroke-linejoin="round"/></svg>