<svg width="90" height="90" viewBox="0 0 90 90" fill="none" xmlns="http://www.w3.org/2000/svg"><circle opacity=".5" cx="45" cy="45" r="45" fill="#FFE603"/><path d="M62.656 61.244h.15v-6.088a1.022 1.022 0 0 1 2.044 0v7.11c0 .564-.457 1.022-1.022 1.022h-7.11a1.022 1.022 0 1 1 0-2.044h5.938ZM27.194 61.094v.15H33.28a1.022 1.022 0 1 1 0 2.044h-7.11a1.022 1.022 0 0 1-1.021-1.022v-7.11a1.022 1.022 0 0 1 2.044 0v5.938ZM27.344 28.756h-.15v6.088a1.022 1.022 0 0 1-2.044 0v-7.11c0-.564.458-1.022 1.022-1.022h7.11a1.022 1.022 0 1 1 0 2.044h-5.938ZM62.806 28.906v-.15h-6.165a1.022 1.022 0 0 1 0-2.044h7.187c.564 0 1.022.458 1.022 1.022v7.11a1.022 1.022 0 0 1-2.044 0v-5.938Z" fill="#161616" stroke="#FFF281" stroke-width=".3"/><path d="M45 42.263c2.678 0 4.858-2.18 4.858-4.858 0-2.68-2.18-4.859-4.859-4.859a4.864 4.864 0 0 0-4.858 4.859c0 2.679 2.18 4.858 4.858 4.858Zm0-8.042a3.187 3.187 0 0 1 3.183 3.184 3.187 3.187 0 0 1-3.184 3.183 3.187 3.187 0 0 1-3.183-3.183 3.187 3.187 0 0 1 3.183-3.184ZM54.83 42.263a3.075 3.075 0 0 0 3.071-3.071 3.075 3.075 0 0 0-3.072-3.072 3.075 3.075 0 0 0-3.071 3.072 3.075 3.075 0 0 0 3.071 3.071Zm0-4.467c.77 0 1.396.626 1.396 1.396a1.398 1.398 0 0 1-2.792 0c0-.77.626-1.396 1.395-1.396ZM55.505 44.162h-1.296a3.798 3.798 0 0 0-3.445 2.198 6.742 6.742 0 0 0-4.983-2.198h-1.562c-1.97 0-3.746.848-4.983 2.198a3.798 3.798 0 0 0-3.445-2.198h-1.296c-2.09 0-3.792 1.691-3.792 3.77v6.098c0 .903.737 1.637 1.643 1.637h5.122c.086 1 .927 1.787 1.948 1.787h11.168a1.958 1.958 0 0 0 1.948-1.787h5.064a1.7 1.7 0 0 0 1.701-1.695v-6.04c0-2.079-1.701-3.77-3.792-3.77Zm-23.127 3.77c0-1.155.95-2.094 2.117-2.094h1.296c1.167 0 2.116.939 2.116 2.093v.574c-.563 1.467-.446 2.346-.446 5.486h-5.082v-6.06Zm18.486 7.566a.28.28 0 0 1-.28.28H39.416a.28.28 0 0 1-.28-.28v-4.577a5.089 5.089 0 0 1 5.083-5.083h1.562a5.09 5.09 0 0 1 5.083 5.083v4.577Zm6.758-1.526c0 .03.312.02-5.083.02 0-3.164.116-4.023-.446-5.487v-.574c0-1.154.95-2.093 2.116-2.093h1.296c1.167 0 2.116.939 2.116 2.093v6.041ZM35.17 42.263a3.075 3.075 0 0 0 3.07-3.071 3.075 3.075 0 0 0-3.07-3.072 3.075 3.075 0 0 0-3.072 3.072 3.075 3.075 0 0 0 3.071 3.071Zm0-4.467c.77 0 1.395.626 1.395 1.396 0 .77-.626 1.396-1.396 1.396-.77 0-1.396-.626-1.396-1.396 0-.77.626-1.396 1.396-1.396Z" fill="#161616"/></svg>