<svg width="40" height="40" viewBox="0 0 40 40" fill="none" xmlns="http://www.w3.org/2000/svg">
<path fill-rule="evenodd" clip-rule="evenodd" d="M21 3.00395V8.99658C21 8.99772 21 8.99886 21 9C21 9.00114 21 9.00228 21 9.00342V17.1707C22.1652 17.5825 23 18.6938 23 20C23 21.6569 21.6569 23 20 23C18.3431 23 17 21.6569 17 20C17 18.6938 17.8348 17.5825 19 17.1707V10.0501C17.3755 10.2134 15.8102 10.7726 14.4443 11.6853C12.7998 12.7841 11.5181 14.3459 10.7612 16.1732C10.0043 18.0004 9.8063 20.0111 10.1922 21.9509C10.578 23.8907 11.5304 25.6725 12.9289 27.0711C14.3275 28.4696 16.1093 29.422 18.0491 29.8079C19.9889 30.1937 21.9996 29.9957 23.8268 29.2388C25.6541 28.4819 27.2159 27.2002 28.3147 25.5557C29.4135 23.9112 30 21.9778 30 20C30 19.4477 30.4477 19 31 19C31.5523 19 32 19.4477 32 20C32 22.3734 31.2962 24.6935 29.9776 26.6668C28.6591 28.6402 26.7849 30.1783 24.5922 31.0866C22.3995 31.9948 19.9867 32.2324 17.6589 31.7694C15.3312 31.3064 13.193 30.1635 11.5147 28.4853C9.83649 26.8071 8.6936 24.6689 8.23058 22.3411C7.76756 20.0133 8.0052 17.6005 8.91345 15.4078C9.8217 13.2151 11.3598 11.3409 13.3332 10.0224C15.0283 8.88972 16.9792 8.21071 19 8.04173V4.03127C16.1871 4.2074 13.4641 5.1241 11.1109 6.69649C8.4797 8.45459 6.42894 10.9534 5.21794 13.8771C4.00693 16.8007 3.69008 20.0177 4.30744 23.1214C4.92481 26.2251 6.44866 29.0761 8.6863 31.3137C10.9239 33.5513 13.7749 35.0752 16.8786 35.6926C19.9823 36.3099 23.1993 35.9931 26.1229 34.7821C29.0466 33.5711 31.5454 31.5203 33.3035 28.8891C35.0616 26.2579 36 23.1645 36 20C36 19.4477 36.4477 19 37 19C37.5523 19 38 19.4477 38 20C38 23.5601 36.9443 27.0402 34.9665 30.0003C32.9886 32.9603 30.1774 35.2675 26.8883 36.6298C23.5992 37.9922 19.98 38.3487 16.4884 37.6541C12.9967 36.9596 9.78943 35.2453 7.27209 32.7279C4.75474 30.2106 3.04041 27.0033 2.34587 23.5116C1.65134 20.02 2.0078 16.4008 3.37018 13.1117C4.73255 9.82263 7.03966 7.01141 9.99974 5.03355C12.9598 3.05568 16.4399 2 20 2C20.5523 2 21 2.44772 21 3" fill="#161616"/>
</svg>
