<svg width="202" height="85" viewBox="0 0 202 85" fill="none" xmlns="http://www.w3.org/2000/svg"><path d="M12.333 10.55s-1.666-.166-1.666 1.319v6.592h11v1.979s.033.989-1 .989h-10V30h12s7.266-1.121 7.333-8.571V10.55H12.333ZM29.666 0H8C.166 1.846 0 8.274 0 8.274V30h8.334V10.22C8.334 8.539 10 8.243 10 8.243h19.667V0h-.001Zm28.603 23.783c-.572.381-.995.661-1.293.84a23.13 23.13 0 0 1-3.032 1.578c-1.367.56-2.585.84-3.678.84-3.753 0-6.86-1.145-9.372-3.462-2.511-2.318-3.751-5.219-3.751-8.732 0-3.386 1.118-6.314 3.38-8.81 2.261-2.494 4.996-3.717 8.227-3.717 1.343 0 2.783.229 4.274.714 1.939.61 3.505 1.527 4.747 2.723L55.61 8.15c-.919-.89-2.112-1.553-3.505-1.96-1.043-.306-2.185-.457-3.454-.457-2.261 0-4.176.914-5.691 2.723-1.516 1.833-2.286 3.997-2.286 6.543 0 2.521.868 4.582 2.608 6.238 1.74 1.654 3.952 2.494 6.636 2.494 1.119 0 2.263-.357 3.43-1.042.97-.739 1.467-1.096 1.492-1.122V16.35h-7.26l1.043-3.259h9.645v10.693Zm21.921-6.366c0 2.52-.894 4.71-2.684 6.543-1.79 1.833-4.002 2.776-6.636 2.776-2.436 0-4.573-.917-6.413-2.725-1.84-1.807-2.734-3.997-2.734-6.568 0-2.546.871-4.736 2.61-6.62 1.738-1.884 3.877-2.8 6.387-2.8 2.784 0 5.046.891 6.81 2.698 1.766 1.758 2.66 3.998 2.66 6.696Zm-3.406.052c0-1.706-.571-3.158-1.714-4.329-1.143-1.197-2.56-1.783-4.25-1.783-1.59 0-2.933.612-4.051 1.834-1.119 1.222-1.666 2.622-1.666 4.2 0 1.656.571 3.056 1.69 4.228 1.118 1.171 2.511 1.781 4.2 1.781 1.567 0 2.908-.586 4.053-1.757 1.167-1.172 1.74-2.572 1.74-4.174h-.002Zm25.029-.052c0 2.52-.894 4.71-2.684 6.543-1.79 1.833-4.002 2.776-6.636 2.776-2.436 0-4.573-.917-6.413-2.725-1.839-1.807-2.734-3.997-2.734-6.568 0-2.546.871-4.736 2.61-6.62 1.74-1.884 3.877-2.8 6.387-2.8 2.784 0 5.046.891 6.81 2.698 1.766 1.758 2.66 3.998 2.66 6.696Zm-3.406.052c0-1.706-.571-3.158-1.714-4.329-1.143-1.197-2.56-1.783-4.25-1.783-1.59 0-2.933.612-4.052 1.834-1.118 1.222-1.665 2.622-1.665 4.2 0 1.656.571 3.056 1.691 4.228 1.117 1.171 2.51 1.781 4.2 1.781 1.566 0 2.907-.586 4.052-1.757 1.167-1.172 1.74-2.572 1.74-4.174h-.002Zm23.414 8.757-3.131.484v-3.03l-.671.763a8.24 8.24 0 0 1-1.989 1.376 8.032 8.032 0 0 1-3.404.738c-2.436 0-4.525-.891-6.215-2.7-1.69-1.808-2.534-3.946-2.534-6.44 0-2.571.844-4.786 2.51-6.62 1.666-1.834 3.703-2.75 6.139-2.75 1.393 0 2.61.229 3.628.687a6.161 6.161 0 0 1 1.865 1.3c.174.229.348.483.522.712V2.803l3.329-.484-.049 23.907Zm-2.932-8.58c0-1.782-.598-3.285-1.815-4.506-1.217-1.249-2.585-1.859-4.15-1.859-1.74 0-3.131.586-4.2 1.758-.995 1.118-1.517 2.494-1.517 4.098 0 1.807.522 3.309 1.566 4.48 1.043 1.172 2.361 1.757 3.977 1.757 1.59 0 2.983-.534 4.226-1.628 1.267-1.122 1.914-2.496 1.914-4.1h-.001Zm20.504-11.532h-9.32v6.339h7.231v3.258h-7.231v10.49l-3.629.535V2.829h12.227l.722 3.285Zm7.481-1.86-2.237 2.826-2.137-2.826 2.261-2.8 2.113 2.8Zm-.671 21.972-3.33.458V8.99l3.33-.509v17.746-.001ZM161.24 8.303l-1.566 3.614a4.4 4.4 0 0 0-.621-.05 6.35 6.35 0 0 0-.97.076c-.324.05-.672.178-1.043.357-.696.306-1.293.967-1.814 1.96a7.935 7.935 0 0 0-.872 3.641v8.3l-3.328.535V8.99l3.081-.56v3.691c.397-.637.82-1.272 1.217-1.934.572-.663 1.243-1.146 1.989-1.427.397-.151 1.118-.28 2.211-.381 1.045-.076 1.642-.128 1.716-.076Zm24.803 17.923-3.33.484V14.566c0-1.122-.249-1.936-.746-2.445-.497-.51-1.243-.764-2.213-.764-1.167 0-2.063.484-2.658 1.452-.399.661-.622 1.374-.622 2.087V26.2l-3.33.611v-12.17c0-1.068-.248-1.884-.721-2.442-.497-.562-1.143-.842-1.989-.842h-.323c-1.168 0-2.014.484-2.535 1.477-.397.739-.596 1.68-.596 2.826V26.2l-3.454.611V8.99l3.105-.534v2.265c.349-.535.696-.968 1.02-1.272.895-.84 1.939-1.249 3.106-1.249 1.317 0 2.286.204 2.957.637.572.357 1.119 1.069 1.666 2.087 1.143-1.807 2.759-2.724 4.897-2.724 2.037 0 3.554.637 4.547 1.936.822 1.068 1.219 2.647 1.219 4.71v11.38Zm15.214-5.372c0 1.629-.571 2.979-1.714 4.023-1.143 1.069-2.586 1.579-4.326 1.579-1.317 0-2.486-.306-3.554-.917-1.069-.61-1.863-1.299-2.386-2.113l2.337-2.087a4.6 4.6 0 0 0 .472.61c.871.891 1.914 1.35 3.131 1.35.846 0 1.517-.229 1.989-.662.497-.433.721-1.044.721-1.834 0-.89-.571-1.502-1.714-1.833-2.263-.687-3.482-1.069-3.654-1.146-1.045-.534-1.79-1.094-2.263-1.731-.522-.739-.795-1.706-.795-2.953 0-1.529.572-2.8 1.69-3.819 1.119-1.018 2.46-1.502 4-1.502 1.17 0 2.263.254 3.258.79.994.534 1.714 1.094 2.137 1.757l-1.989 2.163a7.366 7.366 0 0 0-.968-.815c-.796-.56-1.566-.84-2.286-.84-.697 0-1.269.153-1.716.457-.523.383-.796.943-.796 1.682 0 .713.249 1.247.772 1.578.447.28 1.391.586 2.883.916 1.49.357 2.634.969 3.454 1.834.92.916 1.317 2.062 1.317 3.513Z" fill="#3A7AF3"/><path d="m30.93 78.626 4.926 3.12c.63.4 1.411-.194 1.224-.929l-1.422-5.597a.855.855 0 0 1 .277-.867l4.416-3.676c.58-.483.281-1.447-.465-1.495l-5.767-.374a.822.822 0 0 1-.708-.523l-2.151-5.417a.812.812 0 0 0-1.52 0l-2.15 5.417a.822.822 0 0 1-.709.523l-5.768.374c-.745.049-1.045 1.012-.464 1.495l4.416 3.676a.855.855 0 0 1 .277.867l-1.32 5.191c-.223.882.715 1.594 1.47 1.115l4.577-2.9a.803.803 0 0 1 .862 0Zm35 0 4.926 3.12c.63.4 1.411-.194 1.225-.929l-1.424-5.597a.855.855 0 0 1 .278-.867l4.416-3.676c.58-.483.281-1.447-.465-1.495l-5.767-.374a.822.822 0 0 1-.708-.523l-2.151-5.417a.812.812 0 0 0-1.52 0l-2.15 5.417a.822.822 0 0 1-.709.523l-5.767.374c-.746.049-1.046 1.012-.465 1.495l4.416 3.676a.855.855 0 0 1 .278.867l-1.32 5.191c-.224.882.714 1.594 1.47 1.115l4.576-2.9a.803.803 0 0 1 .862 0Zm35.001 0 4.925 3.12c.63.4 1.411-.194 1.225-.929l-1.423-5.597a.847.847 0 0 1 .277-.867l4.416-3.676c.581-.483.281-1.447-.464-1.495l-5.768-.374a.82.82 0 0 1-.708-.523l-2.151-5.417a.815.815 0 0 0-1.221-.38.81.81 0 0 0-.299.38l-2.15 5.417a.822.822 0 0 1-.709.523l-5.767.374c-.746.049-1.046 1.012-.465 1.495l4.416 3.676a.855.855 0 0 1 .278.867l-1.32 5.191c-.224.882.714 1.594 1.47 1.115l4.576-2.9a.803.803 0 0 1 .862 0Zm35 0 4.925 3.12c.63.4 1.411-.194 1.225-.929l-1.423-5.597a.847.847 0 0 1 .277-.867l4.416-3.676c.581-.483.281-1.447-.464-1.495l-5.768-.374a.82.82 0 0 1-.708-.523l-2.151-5.417a.815.815 0 0 0-1.221-.38.815.815 0 0 0-.299.38l-2.151 5.417a.821.821 0 0 1-.708.523l-5.768.374c-.745.049-1.045 1.012-.464 1.495l4.416 3.676a.857.857 0 0 1 .278.867l-1.32 5.191c-.224.882.714 1.594 1.469 1.115l4.577-2.9a.803.803 0 0 1 .862 0Zm35 0 4.925 3.12c.63.4 1.411-.194 1.225-.929l-1.423-5.597a.847.847 0 0 1 .277-.867l4.416-3.676c.581-.483.281-1.447-.464-1.495l-5.768-.374a.82.82 0 0 1-.708-.523l-2.151-5.417a.815.815 0 0 0-1.221-.38.815.815 0 0 0-.299.38l-2.151 5.417a.821.821 0 0 1-.708.523l-5.768.374c-.745.049-1.045 1.012-.464 1.495l4.416 3.676a.857.857 0 0 1 .278.867l-1.32 5.191c-.224.882.714 1.594 1.469 1.115l4.577-2.9a.803.803 0 0 1 .862 0Z" fill="#161616"/></svg>