<svg width="90" height="90" viewBox="0 0 90 90" fill="none" xmlns="http://www.w3.org/2000/svg"><circle opacity=".5" cx="45" cy="45" r="45" fill="#FFE603"/><g clip-path="url(#a)" fill="#171717"><path d="M46.17 33.885c-.477-.96-1.856-.968-2.338 0l-9.14 18.368c-.208.417-.178.912.078 1.3l5.008 7.595v4.832c0 .721.584 1.306 1.306 1.306h7.834c.722 0 1.306-.585 1.306-1.306v-4.832l5.008-7.594c.256-.389.286-.884.079-1.301l-9.14-18.368Zm1.443 30.789h-5.224v-2.612h5.224v2.612Zm.602-5.223h-6.428l-4.422-6.708 6.33-12.721v12.813a1.306 1.306 0 0 0 2.612 0V40.022l6.33 12.721-4.422 6.708Z"/><path d="M63.369 22.714a3.924 3.924 0 0 0-3.693 2.612H48.918V24.02c0-.721-.585-1.306-1.306-1.306H42.39c-.721 0-1.306.585-1.306 1.306v1.306H30.325a3.924 3.924 0 0 0-3.693-2.612 3.922 3.922 0 0 0-3.917 3.918 3.922 3.922 0 0 0 3.917 3.917 3.925 3.925 0 0 0 3.693-2.612h4.885c-6.085 3.494-9.884 9.95-9.884 16.976a1.306 1.306 0 0 0 2.612 0c0-7.879 5.554-14.731 13.145-16.521v.851c0 .721.585 1.306 1.306 1.306h5.223c.721 0 1.306-.585 1.306-1.306v-.851c7.591 1.79 13.145 8.642 13.145 16.52a1.306 1.306 0 0 0 2.612 0c0-7.017-3.791-13.476-9.884-16.975h4.885a3.924 3.924 0 0 0 3.693 2.612 3.922 3.922 0 0 0 3.917-3.917 3.922 3.922 0 0 0-3.917-3.918Zm-36.737 5.223c-.72 0-1.306-.585-1.306-1.305s.586-1.306 1.306-1.306c.72 0 1.306.586 1.306 1.306 0 .72-.586 1.305-1.306 1.305Zm19.674 0h-2.611v-2.611h2.611v2.611Zm17.063 0c-.72 0-1.306-.585-1.306-1.305s.586-1.306 1.306-1.306c.72 0 1.306.586 1.306 1.306 0 .72-.586 1.305-1.306 1.305Z"/></g><defs><clipPath id="a"><path fill="#fff" transform="translate(22.715 22.714)" d="M0 0h44.571v44.571H0z"/></clipPath></defs></svg>