<svg width="40" height="40" viewBox="0 0 40 40" fill="none" xmlns="http://www.w3.org/2000/svg"><path fill-rule="evenodd" clip-rule="evenodd" d="M14.865 7.302a3.506 3.506 0 0 1 5.985 2.48v9.03a.85.85 0 0 1-1.7 0v-9.03a1.806 1.806 0 1 0-3.612 0v16.105a.85.85 0 0 1-1.586.425l-2.913-5.044a1.807 1.807 0 1 0-3.128 1.805l.032.062c2.165 4.569 3.851 7.521 5.668 9.343 1.753 1.757 3.651 2.484 6.39 2.484a9.774 9.774 0 0 0 9.774-9.775v-5.312a1.806 1.806 0 1 0-3.612 0 .85.85 0 0 1-1.7 0 3.507 3.507 0 0 1 7.012 0v5.313A11.475 11.475 0 0 1 20 36.663c-3.13 0-5.481-.867-7.593-2.985-2.043-2.049-3.833-5.244-5.986-9.786a3.507 3.507 0 0 1 6.09-3.474h.001l1.326 2.297V9.78c0-.93.37-1.821 1.027-2.479Z" fill="#161616"/><path fill-rule="evenodd" clip-rule="evenodd" d="M20.177 15.802a3.506 3.506 0 0 1 5.985 2.48v1.593a.85.85 0 0 1-1.7 0v-1.594a1.807 1.807 0 0 0-3.612 0v.532a.85.85 0 0 1-1.7 0v-.532c0-.93.37-1.822 1.027-2.479ZM12.621 4.587c1.27-1.36 3.006-2.137 4.829-2.137s3.559.777 4.829 2.137c1.268 1.359 1.97 3.19 1.97 5.088a.85.85 0 0 1-1.7 0c0-1.484-.55-2.895-1.513-3.928-.962-1.03-2.253-1.597-3.586-1.597-1.333 0-2.624.567-3.586 1.597C12.9 6.78 12.35 8.191 12.35 9.675a.85.85 0 0 1-1.7 0c0-1.898.703-3.729 1.971-5.088Z" fill="#161616"/></svg>