<svg width="90" height="90" viewBox="0 0 90 90" fill="none" xmlns="http://www.w3.org/2000/svg"><circle opacity=".5" cx="45" cy="45" r="45" fill="#FFE603"/><path d="M32.5 55h25a2.5 2.5 0 0 0 2.5-2.5V35a2.5 2.5 0 0 0-2.5-2.5h-25A2.5 2.5 0 0 0 30 35v17.5a2.5 2.5 0 0 0 2.5 2.5ZM50 60H40" stroke="#161616" stroke-width="2" stroke-linecap="round" stroke-linejoin="round"/><path d="M34.959 44.575c0 1.953 1.001 3.067 2.783 3.067.806 0 1.465-.225 1.934-.63.39-.327.64-.757.64-1.109 0-.327-.22-.542-.557-.542-.225 0-.371.088-.581.347-.352.547-.796.8-1.363.8-.99 0-1.533-.698-1.533-1.977v-.757c0-1.23.552-1.933 1.533-1.933.562 0 .967.254 1.338.81.21.26.376.352.61.352.323 0 .547-.215.547-.547 0-.298-.2-.698-.527-1.02-.473-.47-1.196-.728-2.04-.728-1.764 0-2.784 1.123-2.784 3.013v.854Zm7.104 2.974c.386 0 .601-.25.601-.698v-3.785h.044l1.352 3.316c.181.45.381.605.684.605.298 0 .498-.146.679-.605l1.352-3.316h.044v3.785c0 .459.2.698.581.698.386 0 .601-.25.601-.698v-5.22c0-.542-.278-.855-.762-.855-.434 0-.678.19-.908.796l-1.562 3.882h-.05l-1.567-3.877c-.23-.6-.478-.8-.903-.8-.474 0-.772.322-.772.854v5.22c0 .459.2.698.587.698Zm7.041-1.421c0 .278.166.576.474.86.44.414 1.206.654 2.07.654 1.592 0 2.603-.806 2.603-2.076 0-.981-.576-1.572-1.797-1.85l-1-.24c-.621-.141-.924-.434-.924-.849 0-.518.445-.85 1.138-.85.576 0 1.025.25 1.323.694.157.195.332.283.537.283.318 0 .532-.21.532-.518 0-.307-.16-.62-.463-.893-.44-.406-1.153-.635-1.949-.635-1.484 0-2.45.796-2.45 2.022 0 .966.57 1.577 1.718 1.84l.996.245c.723.17 1.035.449 1.035.898 0 .542-.444.854-1.225.854a1.86 1.86 0 0 1-1.455-.659c-.235-.254-.415-.346-.635-.346-.298 0-.527.234-.527.566Z" fill="#161616"/></svg>