<svg width="32" height="36" viewBox="0 0 32 36" fill="none" xmlns="http://www.w3.org/2000/svg"><path d="M16.006.794C7.622.794.801 7.614.801 15.999v8.245a3.045 3.045 0 0 0 3.04 3.04H5.03a3.046 3.046 0 0 0 2.867 2.028 3.045 3.045 0 0 0 3.04-3.04v-8.246a3.045 3.045 0 0 0-3.04-3.04 3.046 3.046 0 0 0-2.867 2.027H3.842c-.356 0-.697.062-1.014.174V16c0-7.266 5.912-13.178 13.178-13.178 7.267 0 13.178 5.912 13.178 13.178v1.188a3.027 3.027 0 0 0-1.014-.174h-1.188a3.046 3.046 0 0 0-2.866-2.028 3.044 3.044 0 0 0-3.041 3.041v8.245a3.045 3.045 0 0 0 3.923 2.91 3.046 3.046 0 0 1-2.91 2.159h-3.215a3.046 3.046 0 0 0-2.867-2.028 3.044 3.044 0 0 0-3.04 3.041 3.044 3.044 0 0 0 3.04 3.041 3.046 3.046 0 0 0 2.867-2.027h3.215a5.074 5.074 0 0 0 5.069-5.068v-1.014h1.013a3.045 3.045 0 0 0 3.041-3.041v-8.245c0-8.384-6.82-15.205-15.205-15.205ZM6.883 18.026a1.015 1.015 0 0 1 2.027 0v8.245a1.015 1.015 0 0 1-2.027 0v-8.245ZM3.842 19.04h1.014v6.217H3.842a1.015 1.015 0 0 1-1.014-1.013v-4.19c0-.56.455-1.014 1.014-1.014Zm12.164 14.327a1.015 1.015 0 0 1 0-2.027 1.015 1.015 0 0 1 0 2.027Zm9.123-7.096a1.015 1.015 0 0 1-2.027 0v-8.245a1.015 1.015 0 0 1 2.027 0v8.245Zm4.055-2.027c0 .559-.455 1.013-1.014 1.013h-1.013V19.04h1.013c.56 0 1.014.455 1.014 1.014v4.19Z" fill="#171717"/></svg>