<svg width="40" height="40" viewBox="0 0 40 40" fill="none" xmlns="http://www.w3.org/2000/svg"><path fill-rule="evenodd" clip-rule="evenodd" d="M24.871 6.493c-2.019 1.154-3.441 2.883-3.977 3.954a1 1 0 0 1-1.789 0c-.58-1.16-1.73-2.87-3.41-3.99-1.627-1.085-3.783-1.645-6.574-.529-5.53 2.213-6.75 8.9-3.321 13.472 1.817 2.423 5.506 6.118 8.796 9.25A276.198 276.198 0 0 0 20 33.658a276.198 276.198 0 0 0 5.404-5.006c3.29-3.133 6.979-6.828 8.796-9.251 1.742-2.323 2.587-5.199 2.306-7.727-.276-2.483-1.629-4.645-4.377-5.745-2.784-1.113-5.276-.568-7.258.565ZM20 35l-.665.747-.033-.03-.096-.085-.366-.328c-.316-.285-.772-.696-1.33-1.206a277.258 277.258 0 0 1-4.294-3.999C9.944 26.982 6.133 23.177 4.2 20.6.128 15.171 1.409 6.86 8.378 4.072c3.46-1.384 6.304-.694 8.427.721 1.407.939 2.482 2.182 3.236 3.303a13.289 13.289 0 0 1 3.838-3.34c2.392-1.366 5.526-2.071 8.992-.684 3.501 1.4 5.274 4.238 5.623 7.38.344 3.097-.687 6.471-2.694 9.148-1.933 2.577-5.744 6.382-9.017 9.5a277.258 277.258 0 0 1-5.99 5.532l-.095.086-.033.029L20 35Zm0 0 .665.747c-.379.337-.95.337-1.33 0L20 35Z" fill="#161616"/></svg>