<svg width="90" height="90" viewBox="0 0 90 90" fill="none" xmlns="http://www.w3.org/2000/svg"><circle opacity=".5" cx="45" cy="45" r="45" fill="#FFE603"/><path d="M53.566 31.118V29H35.794v2.118C32.004 31.386 29 34.55 29 38.409c0 4.038 3.285 7.317 7.317 7.317.632 0 1.25-.082 1.856-.242a8.9 8.9 0 0 0 3.56 2.341 6.54 6.54 0 0 1-.013 5.218h-1.748v2.093a2.62 2.62 0 0 0-2.615 2.615v3.656H51.99v-3.662a2.62 2.62 0 0 0-2.616-2.616v-2.092h-1.748a6.54 6.54 0 0 1-.012-5.218 8.9 8.9 0 0 0 3.56-2.341c.605.16 1.224.242 1.856.242 4.038 0 7.317-3.285 7.317-7.317.012-3.853-2.992-7.017-6.782-7.285Zm-.153 9.926a6.59 6.59 0 0 0 .077-.498 8.515 8.515 0 0 0 .07-1.097v-3.904a2.954 2.954 0 0 1 2.258 2.858 2.942 2.942 0 0 1-2.456 2.896c.026-.076.039-.166.051-.255ZM35.8 35.494v3.955c-.006.275.013.542.039.81.006.096.019.192.031.287.02.166.045.332.077.498.02.102.032.198.057.3a2.948 2.948 0 0 1-2.749-2.935 2.95 2.95 0 0 1 2.545-2.915Zm.517 9.186a6.278 6.278 0 0 1-6.27-6.27 6.28 6.28 0 0 1 5.747-6.252v2.283a3.994 3.994 0 0 0-3.592 3.968 3.989 3.989 0 0 0 3.987 3.987v-.306c.026.083.064.16.09.243.057.16.108.319.172.478.051.128.115.249.172.376a7.618 7.618 0 0 0 .357.683c.064.108.128.217.198.325.07.109.14.224.21.326.02.019.026.044.045.063-.363.064-.74.096-1.116.096Zm13.071 11.496a1.575 1.575 0 0 1 1.563 1.569v2.615H38.409v-2.615c0-.868.702-1.57 1.57-1.57h9.41Zm-1.25-2.086h.204v1.046h-7.323V54.09h7.119Zm-5.161-5.92a8.858 8.858 0 0 0 3.406 0 7.634 7.634 0 0 0 .115 4.873h-3.636a7.634 7.634 0 0 0 .115-4.873Zm8.708-5.238c-.07.14-.14.275-.217.408-.045.077-.09.147-.134.217a20.14 20.14 0 0 1-.25.39c-.05.07-.101.133-.152.204-.096.12-.185.248-.287.363a7.813 7.813 0 0 1-5.971 2.775 7.829 7.829 0 0 1-5.971-2.768c-.102-.121-.198-.25-.294-.37-.05-.064-.102-.128-.146-.198-.09-.128-.173-.262-.255-.39a2.41 2.41 0 0 1-.128-.216c-.077-.134-.147-.274-.217-.408a3.716 3.716 0 0 1-.108-.23c-.064-.14-.122-.28-.18-.421a13.17 13.17 0 0 0-.095-.255 5.337 5.337 0 0 1-.134-.421l-.076-.3a7.327 7.327 0 0 1-.09-.396 8.58 8.58 0 0 1-.063-.395c-.013-.108-.032-.21-.045-.319a7.133 7.133 0 0 1-.038-.746v-9.41H52.52v9.41c0 .248-.013.497-.038.746-.013.108-.026.217-.045.319-.019.134-.038.268-.063.395-.026.134-.058.262-.09.396-.025.102-.05.204-.076.3-.039.14-.09.28-.134.414l-.096.256c-.057.14-.115.28-.179.42l-.114.23Zm1.358 1.748a6.54 6.54 0 0 1-1.116-.096.56.56 0 0 0 .038-.063c.077-.109.14-.217.21-.326a10.08 10.08 0 0 0 .395-.683c.059-.108.11-.216.16-.325.058-.127.116-.248.173-.376.057-.14.102-.28.153-.421a3.99 3.99 0 0 0 3.809-3.98 3.988 3.988 0 0 0-3.299-3.924v-2.328a6.28 6.28 0 0 1 5.748 6.251 6.278 6.278 0 0 1-6.27 6.271Z" fill="#000"/><path d="M41.03 57.745h-1.046v1.046h1.047v-1.046Zm2.083 0h-1.047v1.046h1.047v-1.046Zm2.089 0h-1.046v1.046h1.046v-1.046Zm2.094 0H46.25v1.046h1.046v-1.046Zm2.09 0H48.34v1.046h1.046v-1.046Zm2.129-21.913h-4.83l-1.492-4.593-1.493 4.593h-4.829l3.904 2.839-1.48 4.593 3.904-2.839 3.904 2.839-1.492-4.593 3.904-2.839Zm-6.316 3.304-1.92 1.398.734-2.259-1.92-1.397h2.373l.733-2.258.734 2.258h2.373l-1.92 1.397.733 2.259-1.92-1.398Z" fill="#000"/></svg>