<svg
  width="90"
  height="90"
  viewBox="0 0 90 90"
  fill="none"
  xmlns="http://www.w3.org/2000/svg"
>
  <circle
    opacity="0.5"
    cx="45"
    cy="45"
    r="45"
    fill="#FFE603"
  ></circle>
  <path
    d="M39 61.5H51.5"
    stroke="#161616"
    stroke-width="2"
    stroke-linecap="round"
    stroke-linejoin="round"
  ></path>
  <path
    d="M36.7975 51.3456C35.3111 50.1847 34.1073 48.702 33.2764 47.009C32.4455 45.3159 32.0091 43.4566 32.0002 41.5706C31.9628 34.7953 37.425 29.1631 44.1986 29.0036C46.8234 28.9404 49.4014 29.7053 51.5671 31.1897C53.7327 32.6742 55.376 34.8028 56.2637 37.2737C57.1515 39.7446 57.2387 42.4324 56.513 44.9556C55.7873 47.4789 54.2856 49.7096 52.2207 51.3313C51.7659 51.6837 51.3972 52.1348 51.1424 52.6507C50.8876 53.1665 50.7535 53.7335 50.75 54.3088L50.75 55.2501C50.75 55.5816 50.6183 55.8995 50.3839 56.134C50.1495 56.3684 49.8315 56.5001 49.5 56.5001H39.5C39.1685 56.5001 38.8505 56.3684 38.6161 56.134C38.3817 55.8995 38.25 55.5816 38.25 55.2501L38.25 54.3077C38.2485 53.7361 38.117 53.1724 37.8654 52.6591C37.6137 52.1459 37.2485 51.6967 36.7975 51.3456V51.3456Z"
    stroke="#161616"
    stroke-width="2"
    stroke-linecap="round"
    stroke-linejoin="round"
  ></path>
</svg>
