<svg width="90" height="90" viewBox="0 0 90 90" fill="none" xmlns="http://www.w3.org/2000/svg"><circle opacity=".5" cx="45" cy="45" r="45" fill="#FFE603"/><path d="M39 61.5h12.5M36.797 51.346A12.478 12.478 0 0 1 32 41.57c-.037-6.776 5.425-12.408 12.199-12.567A12.501 12.501 0 0 1 52.22 51.33a3.795 3.795 0 0 0-1.471 2.978v.941a1.25 1.25 0 0 1-1.25 1.25h-10a1.25 1.25 0 0 1-1.25-1.25v-.942a3.768 3.768 0 0 0-1.453-2.962v0Z" stroke="#161616" stroke-width="2" stroke-linecap="round" stroke-linejoin="round"/></svg>