<svg width="40" height="40" viewBox="0 0 40 40" fill="none" xmlns="http://www.w3.org/2000/svg"><path fill-rule="evenodd" clip-rule="evenodd" d="M3.634 13.044c0-.933.792-1.71 1.744-1.71.95 0 1.743.777 1.743 1.71 0 .933-.792 1.711-1.743 1.711-.952 0-1.744-.778-1.744-1.71Zm.119 15.94v-12.48h3.25v12.48h-3.25Zm13.16-17.65c-1.347 0-2.497.272-3.606.816-2.893 1.4-4.558 4.394-4.558 8.126 0 3.732 1.625 6.648 4.518 7.97.793.35 1.585.545 2.774.7l.038.002c.58.038 1.124.074 1.706-.002 1.189-.155 1.982-.35 2.774-.7 2.893-1.36 4.518-4.238 4.518-7.97 0-3.732-1.664-6.726-4.558-8.126a8.16 8.16 0 0 0-3.606-.816Zm1.15 2.643c1.743.467 2.972 1.983 3.487 4.238.357 1.555.238 3.383-.238 4.821-.753 2.216-2.378 3.5-4.399 3.46-1.982.04-3.646-1.244-4.399-3.46a9.412 9.412 0 0 1-.238-4.82c.476-2.256 1.744-3.772 3.488-4.239a5.721 5.721 0 0 1 2.298 0ZM29.75 28.985l-.268-.045c-1.292-.215-2.538-.423-3.576-1.005 0 0 .674-2.527.713-2.566 1.823.622 4.4 1.439 6.103.66.951-.466 1.387-1.321 1.268-2.293-.158-1.128-.95-1.75-3.09-2.527-2.379-.894-3.805-1.944-4.36-3.344-.278-.7-.357-1.555-.238-2.332.357-2.139 2.06-3.616 4.637-4.083.753-.116 2.378-.116 3.17 0 1.15.195 2.458.622 2.458.778 0 .078-.674 2.371-.714 2.45-1.15-.429-2.378-.74-3.487-.779-1.506-.038-3.17.856-2.893 2.411.198.972.832 1.439 3.17 2.372 1.744.7 2.536 1.166 3.25 1.866.99.972 1.308 2.1 1.308 3.227 0 .933-.08 1.36-.436 2.1-.833 1.749-2.497 2.76-5.033 3.032-.476.078-1.586.117-1.982.078Z" fill="#161616"/></svg>