<svg width="90" height="90" viewBox="0 0 90 90" fill="none" xmlns="http://www.w3.org/2000/svg"><circle opacity=".5" cx="45" cy="45" r="45" fill="#FFE603"/><path d="M55.103 54.318c-1.44-.242-2.838-.444-3.99-1.09 0 0 .7-2.622.74-2.662 1.892.645 4.566 1.492 6.334.685.987-.484 1.44-1.371 1.316-2.38-.164-1.17-.987-1.816-3.208-2.623-2.467-.928-3.948-2.017-4.524-3.47-.288-.726-.37-1.614-.246-2.42.37-2.22 2.138-3.753 4.812-4.237.781-.121 2.467-.121 3.29 0 1.192.202 2.55.646 2.55.807 0 .08-.7 2.461-.74 2.542-1.193-.444-2.468-.767-3.62-.807-1.563-.04-3.29.888-3.002 2.502.206 1.008.864 1.492 3.29 2.46 1.81.727 2.632 1.211 3.373 1.938 1.028 1.008 1.357 2.178 1.357 3.348 0 .969-.083 1.413-.453 2.18-.863 1.815-2.59 2.864-5.223 3.146-.493.081-1.645.121-2.056.08ZM41.781 36c-1.398 0-2.591.282-3.743.847-3.002 1.453-4.73 4.56-4.73 8.433s1.687 6.9 4.69 8.271c.822.363 1.644.565 2.878.727.617.04 1.193.08 1.81 0 1.234-.162 2.056-.364 2.879-.727 3.002-1.412 4.688-4.398 4.688-8.271 0-3.873-1.727-6.98-4.73-8.433A8.468 8.468 0 0 0 41.782 36Zm1.193 2.744c1.81.484 3.084 2.057 3.619 4.398.37 1.613.247 3.51-.247 5.003-.781 2.3-2.467 3.631-4.565 3.59-2.056.041-3.784-1.29-4.565-3.59a9.767 9.767 0 0 1-.247-5.003c.493-2.34 1.81-3.914 3.62-4.398a5.936 5.936 0 0 1 2.385 0ZM29.81 36c-.987 0-1.81.807-1.81 1.775 0 .969.823 1.776 1.81 1.776.987 0 1.81-.807 1.81-1.776 0-.968-.823-1.775-1.81-1.775Zm-1.687 5.366v12.952h3.373V41.366h-3.373Z" fill="#171717"/></svg>