<svg
  width="14"
  height="12"
  viewBox="0 0 14 12"
  fill="none"
  xmlns="http://www.w3.org/2000/svg"
>
  <path
    fill-rule="evenodd"
    clip-rule="evenodd"
    d="M11.7499 1.1522C11.9738 0.930239 12.2761 0.805318 12.5914 0.804448C12.9067 0.803578 13.2097 0.926829 13.4348 1.14756C13.6599 1.36828 13.7892 1.66875 13.7945 1.98399C13.7999 2.29924 13.681 2.60393 13.4635 2.8322L7.07631 10.8162C6.96653 10.9344 6.83404 11.0293 6.68676 11.0952C6.53948 11.1611 6.38042 11.1965 6.21911 11.1995C6.0578 11.2025 5.89754 11.1729 5.74792 11.1126C5.5983 11.0522 5.46239 10.9623 5.34831 10.8482L1.11631 6.6146C0.99841 6.50475 0.903846 6.37226 0.838259 6.22507C0.772672 6.07787 0.737405 5.91897 0.734562 5.75784C0.731719 5.59672 0.761359 5.43667 0.821712 5.28725C0.882066 5.13783 0.971897 5.00209 1.08585 4.88814C1.1998 4.77419 1.33553 4.68436 1.48495 4.62401C1.63437 4.56365 1.79442 4.53402 1.95554 4.53686C2.11667 4.5397 2.27557 4.57497 2.42277 4.64056C2.56997 4.70614 2.70245 4.80071 2.81231 4.9186L6.16271 8.26741L11.7195 1.1874C11.7294 1.17501 11.7401 1.16325 11.7515 1.1522H11.7499Z"
    fill="#171717"
  ></path>
</svg>
