<svg width="40" height="38" viewBox="0 0 40 38" fill="none" xmlns="http://www.w3.org/2000/svg"><path d="M26.668 5.556V30a2.222 2.222 0 0 1-2.222 2.222H11.112A2.222 2.222 0 0 1 8.89 30V5.556c0-1.228.995-2.222 2.222-2.222h13.334c1.227 0 2.222.994 2.222 2.222Z" stroke="#161616" stroke-width="2" stroke-linecap="round" stroke-linejoin="round"/><path d="M17.776 25.556a1.667 1.667 0 1 1 0 3.333 1.667 1.667 0 0 1 0-3.333Z" fill="#161616"/><path d="m29.6 21.227-1.474-1.105a.624.624 0 0 0-.561-.097c-.457.143-.9.326-1.324.547a.624.624 0 0 0-.329.466l-.26 1.825a6.65 6.65 0 0 0-.567.566h0l-1.824.261a.625.625 0 0 0-.465.328 8.071 8.071 0 0 0-.549 1.323.625.625 0 0 0 .097.562l1.106 1.474a6.645 6.645 0 0 0 0 .801h0l-1.105 1.475a.626.626 0 0 0-.098.56c.143.457.326.9.548 1.324a.624.624 0 0 0 .466.329l1.824.26a6.656 6.656 0 0 0 .567.567h0l.26 1.824a.625.625 0 0 0 .329.465c.423.222.866.406 1.323.549a.625.625 0 0 0 .561-.097l1.475-1.106a6.647 6.647 0 0 0 .801 0h0l1.474 1.105a.624.624 0 0 0 .561.098c.457-.143.9-.326 1.324-.548a.625.625 0 0 0 .328-.466l.261-1.824a6.65 6.65 0 0 0 .567-.567h0l1.824-.26a.625.625 0 0 0 .465-.328c.222-.424.405-.867.549-1.323a.626.626 0 0 0-.097-.562l-1.106-1.475a6.645 6.645 0 0 0 0-.8h0l1.105-1.475a.626.626 0 0 0 .098-.561 8.075 8.075 0 0 0-.548-1.324.626.626 0 0 0-.466-.328l-1.824-.26a6.656 6.656 0 0 0-.567-.567h0l-.26-1.824a.626.626 0 0 0-.329-.466 8.072 8.072 0 0 0-1.323-.549.625.625 0 0 0-.562.098l-1.474 1.105a6.733 6.733 0 0 0-.801 0h0Z" fill="#FFF281" stroke="#161616" stroke-width="2" stroke-linecap="round" stroke-linejoin="round"/><path d="M30 31.528a3.75 3.75 0 1 0 0-7.5 3.75 3.75 0 0 0 0 7.5Z" stroke="#161616" stroke-width="2" stroke-linecap="round" stroke-linejoin="round"/></svg>