<svg width="40" height="40" viewBox="0 0 40 40" fill="none" xmlns="http://www.w3.org/2000/svg"><path d="M28.89 6.667v22.222a2.222 2.222 0 0 1-2.222 2.222H8.891a2.222 2.222 0 0 1-2.223-2.222V6.667c0-1.227.995-2.222 2.223-2.222h17.777c1.228 0 2.223.995 2.223 2.222ZM13.332 26.667h8.889" stroke="#161616" stroke-width="2" stroke-linecap="round" stroke-linejoin="round"/><path d="m28.443 21.61-1.638-1.227a.694.694 0 0 0-.623-.109c-.507.16-1 .363-1.47.609a.695.695 0 0 0-.366.518l-.29 2.027a7.486 7.486 0 0 0-.629.63h0l-2.026.289a.694.694 0 0 0-.518.364c-.246.471-.45.963-.61 1.47a.695.695 0 0 0 .109.625l1.228 1.638a7.374 7.374 0 0 0 0 .89h0l-1.228 1.638a.693.693 0 0 0-.108.623c.159.508.362 1 .608 1.471a.694.694 0 0 0 .518.365l2.027.29a7.486 7.486 0 0 0 .63.63h0l.29 2.026a.694.694 0 0 0 .364.517c.47.246.963.45 1.47.61a.695.695 0 0 0 .624-.108l1.638-1.229a7.458 7.458 0 0 0 .89 0h0l1.639 1.228a.694.694 0 0 0 .623.108c.507-.158 1-.362 1.47-.608a.695.695 0 0 0 .366-.518l.29-2.027a7.429 7.429 0 0 0 .629-.63h0l2.026-.29a.694.694 0 0 0 .518-.363c.246-.471.45-.963.61-1.47a.694.694 0 0 0-.109-.625l-1.228-1.638a7.458 7.458 0 0 0 0-.89h0l1.228-1.638a.694.694 0 0 0 .108-.623c-.159-.508-.362-1-.608-1.471a.693.693 0 0 0-.518-.365l-2.027-.29a7.425 7.425 0 0 0-.63-.63h0l-.29-2.026a.693.693 0 0 0-.364-.517 8.968 8.968 0 0 0-1.47-.61.696.696 0 0 0-.624.108l-1.638 1.229a7.457 7.457 0 0 0-.89 0h0Z" fill="#FFF281" stroke="#161616" stroke-width="2" stroke-linecap="round" stroke-linejoin="round"/><path d="M28.89 33.056a4.167 4.167 0 1 0 0-8.334 4.167 4.167 0 0 0 0 8.334Z" stroke="#161616" stroke-width="2" stroke-linecap="round" stroke-linejoin="round"/></svg>