<svg width="40" height="40" viewBox="0 0 40 40" fill="none" xmlns="http://www.w3.org/2000/svg"><path d="M28.889 6.668V28.89a2.222 2.222 0 0 1-2.223 2.222H8.89a2.222 2.222 0 0 1-2.223-2.222V6.668c0-1.228.995-2.223 2.223-2.223h17.777c1.228 0 2.223.995 2.223 2.223ZM13.334 26.668h8.888" stroke="#161616" stroke-width="2" stroke-linecap="round" stroke-linejoin="round"/><path d="m28.444 21.611-1.638-1.228a.693.693 0 0 0-.623-.108c-.508.16-1 .363-1.471.609a.693.693 0 0 0-.365.517l-.29 2.027a7.484 7.484 0 0 0-.63.63h0l-2.026.29a.694.694 0 0 0-.517.364c-.247.471-.45.963-.61 1.47a.696.696 0 0 0 .108.625l1.229 1.638a7.458 7.458 0 0 0 0 .89h0l-1.229 1.638a.695.695 0 0 0-.108.623c.16.507.363 1 .609 1.47a.696.696 0 0 0 .518.366l2.027.29a7.429 7.429 0 0 0 .63.63h0l.289 2.026a.694.694 0 0 0 .364.517c.471.246.963.45 1.47.61a.694.694 0 0 0 .625-.108l1.638-1.229a7.375 7.375 0 0 0 .89 0h0l1.638 1.228a.694.694 0 0 0 .623.108c.508-.158 1-.362 1.471-.608a.694.694 0 0 0 .365-.518l.29-2.027a7.425 7.425 0 0 0 .63-.63h0l2.026-.29a.694.694 0 0 0 .517-.363c.246-.471.45-.964.61-1.47a.696.696 0 0 0-.108-.625l-1.229-1.638a7.46 7.46 0 0 0 0-.89h0l1.228-1.638a.694.694 0 0 0 .108-.624c-.158-.507-.362-1-.608-1.47a.696.696 0 0 0-.518-.365l-2.027-.29a7.484 7.484 0 0 0-.63-.63h0l-.29-2.026a.693.693 0 0 0-.363-.517 8.975 8.975 0 0 0-1.47-.61.694.694 0 0 0-.625.108l-1.638 1.229a7.457 7.457 0 0 0-.89 0h0Z" fill="#FFF281" stroke="#161616" stroke-width="2" stroke-linecap="round" stroke-linejoin="round"/><path d="M28.889 33.056a4.167 4.167 0 1 0 0-8.333 4.167 4.167 0 0 0 0 8.334Z" stroke="#161616" stroke-width="2" stroke-linecap="round" stroke-linejoin="round"/></svg>