<svg width="40" height="40" viewBox="0 0 40 40" fill="none" xmlns="http://www.w3.org/2000/svg">
<path d="M28.8887 6.66761V28.8898C28.8887 30.1171 27.8937 31.1121 26.6664 31.1121H8.88867C7.66137 31.1121 6.66645 30.1171 6.66645 28.8898V6.66761C6.66645 5.44032 7.66137 4.44539 8.88867 4.44539H26.6664C27.8937 4.44539 28.8887 5.44032 28.8887 6.66761Z" stroke="#161616" stroke-width="2" stroke-linecap="round" stroke-linejoin="round"/>
<path d="M13.3335 26.6676H22.2224" stroke="#161616" stroke-width="2" stroke-linecap="round" stroke-linejoin="round"/>
<path d="M28.4438 21.6115L26.8058 20.3834C26.7179 20.3172 26.6156 20.273 26.5072 20.2542C26.3989 20.2354 26.2876 20.2426 26.1826 20.2752C25.6753 20.4341 25.1831 20.6377 24.7119 20.8837C24.6143 20.9349 24.5303 21.0085 24.4669 21.0986C24.4034 21.1886 24.3622 21.2924 24.3468 21.4015L24.0572 23.4285C23.9468 23.5263 23.8388 23.6281 23.733 23.7337C23.6273 23.8394 23.5255 23.9475 23.4277 24.058L23.4276 24.058L21.401 24.3478C21.2921 24.3632 21.1884 24.4043 21.0985 24.4676C21.0086 24.5309 20.935 24.6147 20.8839 24.7121C20.6375 25.1831 20.4334 25.6751 20.2742 26.1823C20.2414 26.2875 20.2341 26.3989 20.2528 26.5075C20.2716 26.616 20.3159 26.7185 20.3821 26.8066L21.6106 28.4446C21.6018 28.5918 21.5973 28.7402 21.5973 28.8897C21.5973 29.0392 21.6017 29.1876 21.6107 29.3349L21.6106 29.335L20.3825 30.9729C20.3164 31.0608 20.2721 31.1632 20.2533 31.2715C20.2345 31.3799 20.2418 31.4911 20.2744 31.5962C20.4333 32.1034 20.6369 32.5956 20.8829 33.0669C20.9341 33.1644 21.0077 33.2484 21.0977 33.3119C21.1877 33.3754 21.2916 33.4165 21.4006 33.432L23.4276 33.7215C23.5255 33.8319 23.6272 33.94 23.7329 34.0457C23.8386 34.1514 23.9467 34.2532 24.0572 34.3511L24.0572 34.3511L24.347 36.3777C24.3624 36.4866 24.4035 36.5903 24.4668 36.6802C24.5301 36.7701 24.6139 36.8437 24.7112 36.8949C25.1823 37.1413 25.6743 37.3453 26.1815 37.5046C26.2866 37.5374 26.3981 37.5447 26.5066 37.5259C26.6152 37.5071 26.7177 37.4628 26.8057 37.3966L28.4438 36.1681C28.591 36.177 28.7394 36.1814 28.8889 36.1814C29.0384 36.1814 29.1868 36.177 29.3341 36.1681L29.3341 36.1681L30.9721 37.3962C31.06 37.4623 31.1623 37.5066 31.2707 37.5254C31.379 37.5442 31.4903 37.537 31.5953 37.5043C32.1026 37.3455 32.5948 37.1418 33.066 36.8958C33.1636 36.8447 33.2476 36.771 33.3111 36.681C33.3745 36.591 33.4157 36.4872 33.4312 36.3781L33.7207 34.3511C33.8311 34.2533 33.9391 34.1515 34.0449 34.0458C34.1506 33.9401 34.2524 33.832 34.3502 33.7216L34.3503 33.7215L36.3769 33.4317C36.4858 33.4163 36.5895 33.3753 36.6794 33.312C36.7693 33.2486 36.8429 33.1648 36.8941 33.0675C37.1404 32.5965 37.3445 32.1044 37.5037 31.5973C37.5365 31.4921 37.5438 31.3807 37.5251 31.2721C37.5063 31.1636 37.462 31.061 37.3958 30.973L36.1673 29.335C36.1761 29.1877 36.1806 29.0394 36.1806 28.8899C36.1806 28.7404 36.1762 28.592 36.1673 28.4447L36.1673 28.4446L37.3954 26.8066C37.4615 26.7188 37.5058 26.6164 37.5246 26.5081C37.5434 26.3997 37.5361 26.2884 37.5035 26.1834C37.3446 25.6761 37.141 25.1839 36.895 24.7127C36.8438 24.6152 36.7702 24.5312 36.6802 24.4677C36.5902 24.4042 36.4863 24.363 36.3773 24.3476L34.3503 24.058C34.2524 23.9477 34.1507 23.8396 34.045 23.7339C33.9393 23.6282 33.8312 23.5264 33.7207 23.4285L33.7207 23.4285L33.4309 21.4018C33.4155 21.2929 33.3745 21.1893 33.3111 21.0994C33.2478 21.0094 33.164 20.9359 33.0667 20.8847C32.5956 20.6383 32.1036 20.4343 31.5964 20.275C31.4913 20.2422 31.3798 20.2349 31.2713 20.2537C31.1627 20.2724 31.0602 20.3167 30.9722 20.3829L29.3341 21.6115C29.1869 21.6026 29.0385 21.5982 28.889 21.5981C28.7395 21.5981 28.5911 21.6026 28.4438 21.6115L28.4438 21.6115Z" fill="#FFF281" stroke="#161616" stroke-width="2" stroke-linecap="round" stroke-linejoin="round"/>
<path d="M28.8888 33.0565C31.19 33.0565 33.0555 31.191 33.0555 28.8898C33.0555 26.5886 31.19 24.7232 28.8888 24.7232C26.5876 24.7232 24.7222 26.5886 24.7222 28.8898C24.7222 31.191 26.5876 33.0565 28.8888 33.0565Z" stroke="#161616" stroke-width="2" stroke-linecap="round" stroke-linejoin="round"/>
</svg>
