<svg width="62" height="113" viewBox="0 0 62 113" fill="none" xmlns="http://www.w3.org/2000/svg"><path d="M58.25 88.54h-.414v-.235h1.115v.235h-.411v1.168h-.29V88.54Zm2.225.06h-.006l-.41 1.108h-.189l-.408-1.107h-.005v1.107h-.273v-1.402h.402l.378.993.377-.993h.4v1.402h-.266v-1.107Z" fill="#6A6A6A"/><path d="M21.162 59.854s-2.883 1.694 2.051 2.267c5.978.69 9.033.59 15.621-.67 0 0 1.732 1.098 4.151 2.048-14.768 6.396-33.423-.37-21.823-3.645ZM19.353 51.508s-3.233 2.419 1.705 2.935c6.386.666 11.429.72 20.155-.978 0 0 1.207 1.236 3.105 1.913-17.855 5.275-37.743.416-24.965-3.87Z" fill="#9B9B9B"/><path d="M34.568 37.351c3.639 4.234-.956 8.043-.956 8.043s9.24-4.82 4.996-10.855c-3.963-5.628-7.002-8.425 9.451-18.066 0 0-25.826 6.517-13.49 20.878Z" fill="#6A6A6A"/><path d="M54.102 66.027s2.133 1.776-2.35 3.15c-8.524 2.61-35.479 3.397-42.967.104-2.692-1.183 2.356-2.825 3.944-3.17 1.656-.363 2.602-.295 2.602-.295-2.993-2.13-19.348 4.184-8.307 5.992 30.11 4.934 54.888-2.222 47.078-5.781ZM22.544 42.861s-13.711 3.29-4.856 4.486c3.74.506 11.193.391 18.136-.197 5.674-.483 11.372-1.512 11.372-1.512s-2 .866-3.448 1.865c-13.924 3.7-40.82 1.979-33.077-1.806 6.548-3.199 11.873-2.836 11.873-2.836ZM47.144 56.753c14.154-7.432 7.61-14.573 3.042-13.611-1.12.235-1.619.44-1.619.44s.416-.658 1.21-.943c9.036-3.21 15.985 9.467-2.918 14.488 0 0 .22-.197.285-.374Z" fill="#9B9B9B"/><path d="M38.606.904s7.839 7.923-7.434 20.106c-12.247 9.773-2.793 15.345-.005 21.712-7.15-6.517-12.396-12.255-8.876-17.595C27.457 17.29 41.77 13.49 38.606.905Z" fill="#6A6A6A"/><path d="M23.935 76.89c13.586.88 34.448-.487 34.942-6.982 0 0-.95 2.462-11.228 4.417-11.595 2.205-25.897 1.948-34.38.535 0 0 1.737 1.452 10.666 2.03Z" fill="#9B9B9B"/><path d="M21.708 101.71c-1.282 1.123-2.635 1.754-3.85 1.754-1.734 0-2.67-1.051-2.67-2.736 0-1.822 1.003-3.155 5.03-3.155h1.49v4.137Zm3.536 4.031v-12.48c0-3.187-1.8-5.29-6.138-5.29-2.533 0-4.752.631-6.555 1.437l.52 2.21c1.42-.527 3.258-1.018 5.062-1.018 2.5 0 3.575 1.017 3.575 3.12v1.577H20.46c-6.072 0-8.812 2.381-8.812 5.957 0 3.085 1.806 4.839 5.204 4.839 2.185 0 3.816-.912 5.34-2.246l.278 1.895h2.774v-.001ZM37.047 105.741h-4.41l-5.309-17.455h3.852l3.294 10.725.732 3.225c1.666-4.663 2.845-9.394 3.434-13.95h3.747c-1.004 5.748-2.81 12.057-5.34 17.455ZM53.968 101.71c-1.284 1.123-2.64 1.754-3.855 1.754-1.73 0-2.67-1.051-2.67-2.736 0-1.822 1.007-3.155 5.033-3.155h1.492v4.137Zm3.536 4.031v-12.48c0-3.187-1.804-5.29-6.137-5.29-2.535 0-4.755.631-6.557 1.437l.52 2.21c1.42-.527 3.261-1.018 5.064-1.018 2.497 0 3.574 1.017 3.574 3.12v1.577h-1.25c-6.074 0-8.812 2.381-8.812 5.957 0 3.085 1.804 4.839 5.202 4.839 2.186 0 3.817-.912 5.344-2.246l.278 1.895h2.774v-.001ZM7.774 108.706c-1.008 1.487-2.636 2.664-4.419 3.329l-1.746-2.076c1.357-.703 2.52-1.839 3.062-2.898.467-.941.66-2.154.66-5.055V82.078H9.09v19.655c0 3.878-.307 5.445-1.315 6.973Z" fill="#6A6A6A"/></svg>