<svg width="137" height="30" viewBox="0 0 137 30" fill="none" xmlns="http://www.w3.org/2000/svg"><path d="M38.012 1.213h6.318v12.372L55.983 1.213h7.632L51.92 13.221l12.227 16.294h-7.59l-8.904-12.048-3.324 3.396v8.652h-6.318V1.212v.001Z" fill="#6A6A6A"/><path d="M60.79 18.8v-.08c0-6.226 5.087-11.28 11.939-11.28 6.811 0 11.858 4.972 11.858 11.199v.08c0 6.227-5.088 11.28-11.94 11.28-6.811 0-11.858-4.972-11.858-11.199Zm17.642 0v-.08c0-3.194-2.338-5.984-5.785-5.984-3.57 0-5.703 2.709-5.703 5.903v.081c0 3.194 2.338 5.984 5.785 5.984 3.57 0 5.703-2.71 5.703-5.903Z" fill="#6A6A6A"/><path d="M86.31 23.37V13.1h-2.626V7.844h2.626v-5.54h6.236v5.54h5.17V13.1h-5.17v9.259c0 1.415.615 2.102 2.01 2.102a6.412 6.412 0 0 0 3.078-.768v4.933c-1.313.768-2.831 1.253-4.924 1.253-3.816 0-6.4-1.496-6.4-6.51ZM99.508 0h6.236v29.514h-6.236V0ZM107.996 0h6.565v5.458h-6.565V0Zm.164 7.844h6.237v21.67h-6.237V7.845ZM116.77 7.844h6.236v3.072c1.436-1.819 3.283-3.477 6.442-3.477 4.719 0 7.468 3.073 7.468 8.046v14.03h-6.237v-12.09c0-2.91-1.395-4.406-3.775-4.406s-3.898 1.496-3.898 4.407v12.089h-6.236V7.844Z" fill="#6A6A6A"/><path d="M14.464 1.199.047 16.139v13.355l14.397-14.21L28.764 1.2h-14.3Z" fill="url(#a)"/><path d="m.047 29.494 14.397-14.21 14.32 14.21H.047Z" fill="url(#b)"/><path d="M.047 1.199h14.418L.047 16.139V1.2Z" fill="url(#c)"/><defs><linearGradient id="a" x1="-3.208" y1="25.658" x2="19.479" y2="2.635" gradientUnits="userSpaceOnUse"><stop stop-color="#3E3E3E"/><stop offset="1" stop-color="#949494"/></linearGradient><linearGradient id="b" x1="10.175" y1="33.653" x2="22.127" y2="21.523" gradientUnits="userSpaceOnUse"><stop stop-color="#575757"/><stop offset="1" stop-color="#9D9D9D"/></linearGradient><linearGradient id="c" x1="-1.27" y1="9.967" x2="9.176" y2="-.634" gradientUnits="userSpaceOnUse"><stop stop-color="gray"/><stop offset="1" stop-color="#727272"/></linearGradient></defs></svg>