<svg width="40" height="40" viewBox="0 0 40 40" fill="none" xmlns="http://www.w3.org/2000/svg"><path fill-rule="evenodd" clip-rule="evenodd" d="M36.54 9.972V28.96h1.96a.5.5 0 0 1 .5.5v2.613a.5.5 0 0 1-.146.354l-2.52 2.519a.5.5 0 0 1-.353.146H4.019a.5.5 0 0 1-.353-.146l-2.52-2.512A.5.5 0 0 1 1 32.081v-2.613a.5.5 0 0 1 .5-.5h1.953V9.972A3.07 3.07 0 0 1 6.52 6.905h7.174a.523.523 0 0 0 .451-.267c1.046-1.821 2.935-3.132 5.09-3.367a6.776 6.776 0 0 1 5.257 1.675 6.767 6.767 0 0 1 1.35 1.69c.093.163.264.27.452.27h7.18a3.07 3.07 0 0 1 3.066 3.066ZM19.367 4.49c-2.46.276-4.495 2.25-4.831 4.696a5.47 5.47 0 0 0 1.525 4.637c1.22 1.25 1.945 2.91 2.08 4.727h3.724c.142-1.773.897-3.463 2.161-4.809a5.506 5.506 0 0 0 1.489-3.77c0-1.57-.673-3.066-1.84-4.113-1.182-1.062-2.707-1.548-4.308-1.368ZM6.512 8.132c-1.01 0-1.832.823-1.832 1.84v18.996h30.64V9.964c0-1.017-.822-1.84-1.84-1.84h-7.007c.165.599.262 1.212.262 1.84 0 1.72-.651 3.358-1.825 4.607a6.772 6.772 0 0 0-1.825 3.971h.697a.5.5 0 0 1 .5.5v.227a.5.5 0 0 1-.5.5h-7.579a.5.5 0 0 1-.5-.5v-.227a.5.5 0 0 1 .5-.5h.697c-.135-1.48-.748-2.864-1.728-3.866a6.713 6.713 0 0 1-1.854-5.662 7.23 7.23 0 0 1 .194-.882h-7ZM37.768 31.78a.005.005 0 0 0 .005-.005v-1.08a.5.5 0 0 0-.5-.5H2.727a.5.5 0 0 0-.5.5v.878a.5.5 0 0 0 .146.353l1.801 1.802a.5.5 0 0 0 .354.146h30.937a.5.5 0 0 0 .353-.146l1.946-1.947a.005.005 0 0 1 .004-.001ZM17.551 21.003h6.238a.5.5 0 0 1 .5.5v.227a.5.5 0 0 1-.5.5H16.21a.5.5 0 0 1-.5-.5v-.227a.5.5 0 0 1 .5-.5h1.34Z" fill="#161616"/><path fill-rule="evenodd" clip-rule="evenodd" d="M24.625 4.798a6.968 6.968 0 0 1 1.39 1.74c.06.104.167.167.278.167h7.18a3.27 3.27 0 0 1 3.266 3.267V28.76h1.76a.7.7 0 0 1 .7.7v2.614a.7.7 0 0 1-.204.495l-2.52 2.52a.7.7 0 0 1-.494.204H4.019a.7.7 0 0 1-.495-.204l.141-.142a.5.5 0 0 0 .354.146H35.98a.5.5 0 0 0 .353-.146l2.52-2.52a.5.5 0 0 0 .146-.353v-2.613a.5.5 0 0 0-.5-.5h-1.96V9.97a3.07 3.07 0 0 0-3.067-3.066h-7.18a.522.522 0 0 1-.451-.27 6.769 6.769 0 0 0-1.351-1.69 6.777 6.777 0 0 0-5.258-1.674c-2.154.235-4.043 1.546-5.09 3.367a.523.523 0 0 1-.45.267H6.52a3.07 3.07 0 0 0-3.066 3.067v18.996H1.5a.5.5 0 0 0-.5.5v2.613a.5.5 0 0 0 .147.354l2.518 2.512-.14.142-2.52-2.512A.7.7 0 0 1 .8 32.08v-2.613a.7.7 0 0 1 .7-.7h1.753V9.972a3.27 3.27 0 0 1 3.266-3.267h7.174c.11 0 .217-.062.277-.167 1.076-1.873 3.02-3.223 5.242-3.466a6.978 6.978 0 0 1 5.413 1.726Zm-9.89 4.416a5.27 5.27 0 0 0 1.47 4.469c1.213 1.242 1.948 2.878 2.12 4.667h3.358c.182-1.752.948-3.414 2.198-4.746a5.306 5.306 0 0 0 1.434-3.632 5.333 5.333 0 0 0-1.773-3.965c-1.139-1.023-2.607-1.492-4.152-1.319-2.37.267-4.331 2.172-4.655 4.526Zm4.633-4.724c1.6-.18 3.126.306 4.308 1.368a5.533 5.533 0 0 1 1.84 4.114 5.506 5.506 0 0 1-1.489 3.769c-1.264 1.346-2.02 3.036-2.161 4.809H18.14c-.134-1.817-.86-3.478-2.079-4.727a5.47 5.47 0 0 1-1.526-4.637c.337-2.445 2.371-4.42 4.832-4.696Zm-6.249 4.497v-.002c.034-.222.079-.439.133-.653h-6.74c-.899 0-1.633.732-1.633 1.64v18.796H35.12V9.964c0-.906-.733-1.64-1.64-1.64h-6.749a6.97 6.97 0 0 1 .203 1.64c0 1.771-.67 3.458-1.879 4.744a6.587 6.587 0 0 0-1.746 3.634h.472a.7.7 0 0 1 .7.7v.227a.7.7 0 0 1-.7.7h-7.578a.7.7 0 0 1-.7-.7v-.227a.7.7 0 0 1 .7-.7h.474c-.168-1.355-.75-2.609-1.648-3.526a6.913 6.913 0 0 1-1.91-5.83Zm2.053 5.689c.936.957 1.537 2.261 1.707 3.666.008.067.015.134.02.2h-.696a.5.5 0 0 0-.5.5v.227a.5.5 0 0 0 .5.5h7.578a.5.5 0 0 0 .5-.5v-.227a.5.5 0 0 0-.5-.5h-.696a6.785 6.785 0 0 1 1.825-3.971 6.707 6.707 0 0 0 1.825-4.607 6.797 6.797 0 0 0-.262-1.84h7.007c1.018 0 1.84.823 1.84 1.84v19.004H4.68V9.972c0-1.017.822-1.84 1.832-1.84h7a6.77 6.77 0 0 0-.194.883 6.713 6.713 0 0 0 1.854 5.66ZM37.573 31.69l-1.896 1.896a.3.3 0 0 1-.212.088H4.528a.3.3 0 0 1-.213-.088l-1.8-1.801a.3.3 0 0 1-.089-.212v-.878a.3.3 0 0 1 .3-.3h34.547a.3.3 0 0 1 .3.3v.995ZM23.79 20.803a.7.7 0 0 1 .7.7v.227a.7.7 0 0 1-.7.7h-7.578a.7.7 0 0 1-.7-.7v-.227a.7.7 0 0 1 .7-.7h7.578Zm13.984 10.972a.005.005 0 0 1-.005.005c-.001 0-.003 0-.004.002l-1.946 1.946a.5.5 0 0 1-.353.146H4.528a.5.5 0 0 1-.354-.146l-1.801-1.802a.5.5 0 0 1-.147-.353v-.878a.5.5 0 0 1 .5-.5h34.547a.5.5 0 0 1 .5.5v1.08ZM16.211 21.003a.5.5 0 0 0-.5.5v.227a.5.5 0 0 0 .5.5h7.578a.5.5 0 0 0 .5-.5v-.227a.5.5 0 0 0-.5-.5h-7.578Z" fill="#161616"/></svg>