<svg width="40" height="40" viewBox="0 0 40 40" fill="none" xmlns="http://www.w3.org/2000/svg"><path d="M36.54 28.96V9.973a3.07 3.07 0 0 0-3.067-3.067h-7.486a6.794 6.794 0 0 0-1.496-1.96 6.776 6.776 0 0 0-5.258-1.674c-2.258.246-4.225 1.675-5.235 3.634H6.52a3.07 3.07 0 0 0-3.066 3.067v18.996H1v3.32l2.812 2.805h32.376L39 32.281v-3.32h-2.46ZM14.536 9.186c.336-2.445 2.37-4.42 4.831-4.696 1.6-.18 3.126.306 4.308 1.368a5.532 5.532 0 0 1 1.84 4.114 5.506 5.506 0 0 1-1.489 3.769c-1.264 1.346-2.019 3.036-2.161 4.809h-3.724c-.135-1.817-.86-3.478-2.08-4.727a5.47 5.47 0 0 1-1.525-4.637Zm-9.857.786c0-1.017.822-1.84 1.832-1.84h7c-.082.292-.15.583-.194.882a6.713 6.713 0 0 0 1.854 5.662c.98 1.002 1.593 2.386 1.728 3.866h-1.197v1.227h8.579v-1.227h-1.197a6.772 6.772 0 0 1 1.825-3.97 6.707 6.707 0 0 0 1.825-4.608c0-.628-.098-1.241-.262-1.84h7.008c1.017 0 1.84.823 1.84 1.84v16.543H4.68V9.972Zm0 17.77h30.64v1.226H23.063v1.227H16.93v-1.227H4.68V27.74Zm33.093 4.038h-.007l-2.094 2.094H4.32L2.227 31.78v-1.585H15.71v1.226h8.578v-1.226h13.484v1.585Z" fill="#000"/><path d="M29.805 31.42h-1.227v1.227h1.227v-1.226Zm2.453 0H31.03v1.227h1.227v-1.226Zm2.452 0h-1.226v1.227h1.227v-1.226ZM22.45 21.003h-6.74v1.227h1.84v.613h-.007c0 1.017.823 1.84 1.84 1.84h1.227c1.017 0 1.84-.823 1.84-1.84v-.613h1.84v-1.227h-1.84Zm-1.227 1.84a.616.616 0 0 1-.613.613h-1.227a.616.616 0 0 1-.613-.613v-.613h2.453v.613ZM23.68 11.19V9.965h-.674a3.05 3.05 0 0 0-.449-1.077l.479-.478-.875-.86-.479.478a3.132 3.132 0 0 0-1.077-.449v-.673H19.38v.673a3.05 3.05 0 0 0-1.077.45l-.479-.48-.867.868.478.479c-.21.321-.366.68-.448 1.077h-.674v1.226h.674c.082.389.239.748.456 1.07l-.479.478.868.868.478-.479c.322.21.68.367 1.077.449v.673h1.227v-.673a3.052 3.052 0 0 0 1.077-.449l.478.479.868-.868-.479-.478c.21-.322.367-.681.45-1.077h.672Zm-3.688 1.235a1.839 1.839 0 0 1-1.84-1.84 1.839 1.839 0 1 1 3.68 0c0 1.017-.823 1.84-1.84 1.84Z" fill="#000"/></svg>