<svg width="40" height="40" viewBox="0 0 40 40" fill="none" xmlns="http://www.w3.org/2000/svg">
<path d="M14 36.5H26.5" stroke="#161616" stroke-width="2" stroke-linecap="round" stroke-linejoin="round"/>
<path d="M11.7975 26.3456C10.3111 25.1847 9.10725 23.702 8.27636 22.009C7.44546 20.3159 7.00914 18.4566 7.00019 16.5706C6.96275 9.79525 12.425 4.16305 19.1986 4.00362C21.8234 3.94042 24.4014 4.70529 26.5671 6.18973C28.7327 7.67418 30.376 9.80282 31.2637 12.2737C32.1515 14.7446 32.2387 17.4324 31.513 19.9556C30.7873 22.4789 29.2856 24.7096 27.2207 26.3313C26.7659 26.6837 26.3972 27.1348 26.1424 27.6507C25.8876 28.1665 25.7535 28.7335 25.75 29.3088L25.75 30.2501C25.75 30.5816 25.6183 30.8995 25.3839 31.134C25.1495 31.3684 24.8315 31.5001 24.5 31.5001H14.5C14.1685 31.5001 13.8505 31.3684 13.6161 31.134C13.3817 30.8995 13.25 30.5816 13.25 30.2501L13.25 29.3077C13.2485 28.7361 13.117 28.1724 12.8654 27.6591C12.6137 27.1459 12.2485 26.6967 11.7975 26.3456V26.3456Z" stroke="#161616" stroke-width="2" stroke-linecap="round" stroke-linejoin="round"/>
</svg>
