<svg
  xmlns="http://www.w3.org/2000/svg"
  xmlns:xlink="http://www.w3.org/1999/xlink"
  width="33"
  height="33"
  viewBox="0 0 33 33"
>
  <defs>
    <path
      id="prefix__a"
      d="M0.002 0.004L0.002 3.409 3.311 3.409 3.311 0.004 0.002 0.004z"
    ></path>
  </defs>
  <g fill="none" fill-rule="evenodd">
    <circle
      cx="16.5"
      cy="16.5"
      r="16.5"
      fill="#FFF"
    ></circle>
    <g transform="translate(10 9)">
      <mask id="prefix__b" fill="#fff">
        <use xlink:href="#prefix__a"></use>
      </mask>
      <path
        fill="#0E0E0F"
        d="M1.656.004C.741.004 0 .767 0 1.706c0 .94.74 1.703 1.656 1.703.913 0 1.655-.763 1.655-1.703 0-.94-.742-1.702-1.655-1.702z"
        mask="url(#prefix__b)"
      ></path>
      <path
        fill="#0E0E0F"
        d="M0 13.211L2.855 13.211 2.855 3.914 0 3.914zM9.551 3.914c-1.336 0-2.231.752-2.598 1.466h-.037V4.14H4.282v9.071h2.744V8.724c0-1.183.22-2.33 1.648-2.33 1.409 0 1.427 1.354 1.427 2.406v4.411h2.745V8.236c0-2.443-.513-4.322-3.295-4.322z"
      ></path>
    </g>
  </g>
</svg>
