<svg xmlns="http://www.w3.org/2000/svg" width="24" height="24" fill="none">
  <circle cx="12" cy="12" r="12" fill="#171717" />
  <path fill="#fff" d="M9.063 16.974h-2.43v-7.82h2.43v7.82Zm-1.23-8.78c-.768 0-1.264-.544-1.264-1.217 0-.686.511-1.213 1.295-1.213.784 0 1.264.527 1.279 1.213 0 .673-.495 1.217-1.31 1.217Zm10.105 8.78h-2.43V12.64c0-1.009-.353-1.694-1.232-1.694-.67 0-1.07.464-1.246.91-.065.159-.081.384-.081.608v4.508h-2.431v-5.325c0-.976-.032-1.792-.064-2.495h2.111l.111 1.087h.05c.32-.51 1.103-1.263 2.414-1.263 1.599 0 2.798 1.071 2.798 3.374v4.624Z" />
</svg>
