<svg width="90" height="90" viewBox="0 0 90 90" fill="none" xmlns="http://www.w3.org/2000/svg"><circle opacity=".7" cx="45" cy="45" r="45" fill="#FFE603"/><path fill-rule="evenodd" clip-rule="evenodd" d="M36.11 27.735a.792.792 0 0 0-.544.241l-6.283 6.286-.05.047a.79.79 0 0 0-.098.12l-.006.01a.76.76 0 0 0-.034.058l-.006.01c-.01.02-.02.04-.028.062l-.006.012a.822.822 0 0 0-.053.287v25.33a.798.798 0 0 0 .59.775c.08.021.164.03.246.025.05-.003.102-.008.153-.008h25.133a.666.666 0 0 0 .024-.003.74.74 0 0 0 .375-.108.766.766 0 0 0 .16-.121l.01-.01 6.323-6.322a.792.792 0 0 0 .232-.56v-25.33a.792.792 0 0 0-.792-.792H36.351c-.053 0-.106-.005-.159-.008a.762.762 0 0 0-.081 0Zm.344 1.593h23.091l-4.456 4.456a1 1 0 0 1-.707.293H31.704l4.75-4.75Zm24.21 1.119v23.091l-4.749 4.75V35.195l4.75-4.75ZM30.586 35.66h23.747v23.747H31.585a1 1 0 0 1-1-1V35.66Zm2.375 14.248a.792.792 0 0 0 0 1.583h7.916a.792.792 0 1 0 0-1.583H32.96Zm0 3.166a.791.791 0 1 0 0 1.583h4.75a.792.792 0 1 0 0-1.583h-4.75Z" fill="#000"/></svg>