<svg width="58" height="52" viewBox="0 0 58 52" fill="none" xmlns="http://www.w3.org/2000/svg"><path d="M24.466 10.705C9.172 10.705 3.055 24.47 3.055 24.47s6.117 13.763 21.412 13.763c15.294 0 21.411-13.763 21.411-13.763s-6.117-13.766-21.412-13.766Z" stroke="#161616" stroke-width="2" stroke-linecap="round" stroke-linejoin="round"/><path d="M24.467 32.118a7.647 7.647 0 1 0 0-15.294 7.647 7.647 0 0 0 0 15.294Z" stroke="#161616" stroke-width="2" stroke-linecap="round" stroke-linejoin="round"/><path d="M39.647 51.176c9.714 0 17.588-7.874 17.588-17.588C57.235 23.875 49.361 16 39.647 16c-9.714 0-17.588 7.875-17.588 17.588 0 9.714 7.874 17.588 17.588 17.588Z" fill="#FFF281"/><path d="M39.527 45.011c6.374 0 11.542-5.167 11.542-11.542S45.9 21.927 39.527 21.927c-6.375 0-11.543 5.167-11.543 11.542s5.168 11.542 11.543 11.542Z" fill="#FFF281" stroke="#161616" stroke-width="2" stroke-linecap="round" stroke-linejoin="round"/><path d="m47.688 41.63 6.678 6.679" stroke="#161616" stroke-width="2" stroke-linecap="round" stroke-linejoin="round"/></svg>