<svg width="58" height="52" viewBox="0 0 58 52" fill="none" xmlns="http://www.w3.org/2000/svg">
<path d="M24.4665 10.7046C9.17233 10.7046 3.05469 24.4708 3.05469 24.4708C3.05469 24.4708 9.17233 38.234 24.4665 38.234C39.7606 38.234 45.8782 24.4708 45.8782 24.4708C45.8782 24.4708 39.7606 10.7046 24.4665 10.7046Z" stroke="#161616" stroke-width="2" stroke-linecap="round" stroke-linejoin="round"/>
<path d="M24.4674 32.1178C28.6907 32.1178 32.1144 28.6941 32.1144 24.4708C32.1144 20.2474 28.6907 16.8237 24.4674 16.8237C20.244 16.8237 16.8203 20.2474 16.8203 24.4708C16.8203 28.6941 20.244 32.1178 24.4674 32.1178Z" stroke="#161616" stroke-width="2" stroke-linecap="round" stroke-linejoin="round"/>
<path d="M39.6468 51.1765C49.3605 51.1765 57.2351 43.3019 57.2351 33.5882C57.2351 23.8745 49.3605 16 39.6468 16C29.9331 16 22.0586 23.8745 22.0586 33.5882C22.0586 43.3019 29.9331 51.1765 39.6468 51.1765Z" fill="#FFF281"/>
<path d="M39.5267 45.0113C45.9013 45.0113 51.0689 39.8437 51.0689 33.469C51.0689 27.0944 45.9013 21.9268 39.5267 21.9268C33.152 21.9268 27.9844 27.0944 27.9844 33.469C27.9844 39.8437 33.152 45.0113 39.5267 45.0113Z" fill="#FFF281" stroke="#161616" stroke-width="2" stroke-linecap="round" stroke-linejoin="round"/>
<path d="M47.6875 41.6309L54.3656 48.309" stroke="#161616" stroke-width="2" stroke-linecap="round" stroke-linejoin="round"/>
</svg>
