<svg width="48" height="48" viewBox="0 0 48 48" fill="none" xmlns="http://www.w3.org/2000/svg"><path d="M31.563 18.558 33 17.178v-.303h-4.976l-3.546 8.869-4.034-8.869h-5.217v.302l1.678 2.03c.165.15.249.37.228.59v7.976a.906.906 0 0 1-.242.79L15 30.867v.298h5.358v-.302l-1.89-2.297a.936.936 0 0 1-.26-.79v-6.9l4.705 10.293h.546l4.045-10.293v8.2c0 .216 0 .26-.14.404l-1.456 1.413v.302h7.06v-.302l-1.405-1.38a.424.424 0 0 1-.16-.404V18.961a.425.425 0 0 1 .16-.403Z" fill="#171717"/><circle opacity=".3" cx="24" cy="24" r="23.5" stroke="#171717"/></svg>