<svg width="40" height="40" viewBox="0 0 40 40" fill="none" xmlns="http://www.w3.org/2000/svg">
<path d="M20 4.0625C17.221 4.06327 14.4904 4.79048 12.0791 6.17202C9.66786 7.55356 7.65961 9.54143 6.25355 11.9385C4.8475 14.3356 4.09248 17.0585 4.06337 19.8374C4.03427 22.6163 4.73209 25.3545 6.08763 27.7805L4.71654 32.5791C4.60941 32.9542 4.60455 33.3511 4.70244 33.7287C4.80033 34.1064 4.99742 34.451 5.27328 34.7268C5.54915 35.0026 5.89375 35.1997 6.27139 35.2975C6.64903 35.3954 7.04597 35.3904 7.42107 35.2833L12.2198 33.9123C14.3455 35.101 16.7154 35.7868 19.1474 35.9169C21.5795 36.047 24.009 35.6181 26.2494 34.663C28.4898 33.7079 30.4816 32.2521 32.0717 30.4073C33.6618 28.5625 34.8081 26.3778 35.4223 24.0211C36.0366 21.6643 36.1026 19.1981 35.6153 16.8118C35.1279 14.4256 34.1002 12.1827 32.611 10.2556C31.1219 8.32836 29.2108 6.76807 27.0247 5.69451C24.8386 4.62094 22.4355 4.06265 20 4.0625ZM20 34.0625C17.4745 34.0642 14.9953 33.3848 12.8234 32.0959C12.7136 32.0306 12.5916 31.9884 12.4649 31.972C12.3381 31.9556 12.2094 31.9652 12.0865 32.0003L6.90591 33.4805C6.85232 33.4958 6.79559 33.4965 6.74162 33.4825C6.68765 33.4686 6.6384 33.4404 6.59898 33.401C6.55956 33.3616 6.5314 33.3123 6.51743 33.2584C6.50345 33.2044 6.50417 33.1477 6.51951 33.0941L7.99966 27.9134C8.0347 27.7906 8.04427 27.6619 8.0278 27.5353C8.01133 27.4086 7.96916 27.2867 7.90388 27.1769C6.31992 24.5083 5.66301 21.3908 6.03549 18.31C6.40796 15.2292 7.78891 12.3581 9.9632 10.1439C12.1375 7.92973 14.983 6.49683 18.0566 6.06842C21.1301 5.64001 24.259 6.24014 26.9559 7.77534C29.6528 9.31054 31.7663 11.6946 32.967 14.5561C34.1678 17.4176 34.3884 20.5959 33.5946 23.5959C32.8008 26.5959 31.037 29.2491 28.5781 31.1423C26.1192 33.0354 23.1032 34.0621 20 34.0625ZM14.0625 19.9995C14.0625 20.3086 13.9708 20.6107 13.7991 20.8676C13.6275 21.1246 13.3834 21.3248 13.0979 21.4431C12.8124 21.5614 12.4982 21.5923 12.1951 21.532C11.8921 21.4717 11.6136 21.3229 11.3951 21.1044C11.1766 20.8859 11.0278 20.6075 10.9675 20.3044C10.9072 20.0013 10.9382 19.6871 11.0564 19.4016C11.1747 19.1161 11.3749 18.872 11.6319 18.7004C11.8889 18.5287 12.1909 18.437 12.5 18.437C12.9142 18.4375 13.3114 18.6023 13.6043 18.8952C13.8972 19.1881 14.062 19.5853 14.0625 19.9995ZM21.5625 19.9995C21.5625 20.3086 21.4708 20.6107 21.2991 20.8676C21.1275 21.1246 20.8834 21.3248 20.5979 21.4431C20.3124 21.5614 19.9982 21.5923 19.6951 21.532C19.3921 21.4717 19.1136 21.3229 18.8951 21.1044C18.6766 20.8859 18.5278 20.6075 18.4675 20.3044C18.4072 20.0013 18.4382 19.6871 18.5564 19.4016C18.6747 19.1161 18.8749 18.872 19.1319 18.7004C19.3889 18.5287 19.6909 18.437 20 18.437C20.4142 18.4375 20.8114 18.6023 21.1043 18.8952C21.3972 19.1881 21.562 19.5853 21.5625 19.9995ZM29.0625 19.9995C29.0625 20.3086 28.9708 20.6107 28.7992 20.8676C28.6275 21.1246 28.3834 21.3248 28.0979 21.4431C27.8124 21.5614 27.4982 21.5923 27.1952 21.532C26.8921 21.4717 26.6136 21.3229 26.3951 21.1044C26.1766 20.8859 26.0278 20.6075 25.9675 20.3044C25.9072 20.0013 25.9382 19.6871 26.0564 19.4016C26.1747 19.1161 26.3749 18.872 26.6319 18.7004C26.8889 18.5287 27.1909 18.437 27.5 18.437C27.9142 18.4375 28.3114 18.6023 28.6043 18.8952C28.8972 19.1881 29.062 19.5853 29.0625 19.9995Z" fill="#161616"/>
</svg>
