<svg width="60" height="60" viewBox="0 0 60 60" fill="none" xmlns="http://www.w3.org/2000/svg"><path d="M16 37.27a1 1 0 1 0-2 0h2Zm-2 0a1 1 0 1 0 2 0h-2Zm31.167-13.75a1 1 0 1 0-2 0h2Zm-2 0a1 1 0 1 0 2 0h-2ZM29.02 17.666a1 1 0 1 0 0-2v2Zm5.528-2a1 1 0 1 0 0 2v-2Zm5.005 2.444a1 1 0 0 0 .766-1.847l-.766 1.847Zm5.016 2.403a1 1 0 0 0-1.847.766l1.847-.766Zm-1.847 5.247a1 1 0 1 0 1.847.766l-1.847-.766Zm-2.403 5.017a1 1 0 0 0-.766-1.848l.766 1.848Zm-6.86-1.404a1 1 0 1 0 0 2v-2Zm-7.709 2a1 1 0 0 0 0-2v2Zm-6.877-1.4a1 1 0 1 0 .766 1.847l-.766-1.848Zm-2.427 5.04a1 1 0 0 0-1.847-.766l1.847.766Zm-1.847 5.28a1 1 0 0 0 1.847-.766l-1.847.766Zm5.04 2.426a1 1 0 0 0-.766 1.848l.766-1.848Zm5.322 2.447a1 1 0 1 0 0-2v2Zm6.13-2a1 1 0 1 0 0 2v-2Zm-4.835-25.5h2.764v-2h-2.764v2Zm8.292 0h2.764v-2H34.55v2Zm2.764 0c.796 0 1.552.159 2.24.444l.767-1.847a7.832 7.832 0 0 0-3.007-.597v2Zm5.41 3.613a5.85 5.85 0 0 1 .444 2.24h2a7.829 7.829 0 0 0-.597-3.006l-1.847.766Zm.444 2.24c0 .796-.159 1.552-.444 2.24l1.847.767a7.833 7.833 0 0 0 .597-3.006h-2Zm-3.613 5.41a5.832 5.832 0 0 1-2.24.444v2a7.834 7.834 0 0 0 3.006-.596l-.766-1.848Zm-2.24.444h-3.855v2h3.854v-2Zm-11.563 0h-3.854v2h3.854v-2Zm-3.854 0c-1.07 0-2.09.213-3.023.6l.766 1.847a5.876 5.876 0 0 1 2.257-.447v-2ZM14.6 34.247a7.876 7.876 0 0 0-.6 3.023h2c0-.802.16-1.563.447-2.257l-1.847-.766ZM14 37.27c0 1.069.213 2.09.6 3.023l1.847-.766A5.875 5.875 0 0 1 16 37.27h-2Zm4.874 7.297c.932.387 1.954.6 3.023.6v-2a5.87 5.87 0 0 1-2.257-.448l-.766 1.848Zm3.023.6h3.065v-2h-3.065v2Zm9.195 0h3.065v-2h-3.065v2Z" fill="#161616"/><path d="M16.43 25a8.571 8.571 0 1 0 0-17.143 8.571 8.571 0 0 0 0 17.143Z" fill="#FFF281" stroke="#161616" stroke-width="2" stroke-miterlimit="10"/><path d="M16.43 19.285a3.571 3.571 0 1 0 0-7.142 3.571 3.571 0 0 0 0 7.142Z" fill="#FFF281" stroke="#161616" stroke-width="2" stroke-miterlimit="10"/><path d="M10.695 22.802a6.431 6.431 0 0 1 11.465 0" stroke="#161616" stroke-width="2" stroke-linecap="round" stroke-linejoin="round"/><path d="M43.93 52.5a8.571 8.571 0 1 0 0-17.143 8.571 8.571 0 0 0 0 17.143Z" fill="#FFF281" stroke="#161616" stroke-width="2" stroke-linecap="round" stroke-linejoin="round"/><path d="m47.857 41.786-5.238 5-2.619-2.5" stroke="#161616" stroke-width="2" stroke-linecap="round" stroke-linejoin="round"/></svg>