<svg width="90" height="90" viewBox="0 0 90 90" fill="none" xmlns="http://www.w3.org/2000/svg"><circle opacity=".5" cx="45" cy="45" r="45" fill="#FFE603"/><path d="M45 29.063A15.943 15.943 0 0 0 31.088 52.78l-1.372 4.798a2.188 2.188 0 0 0 2.705 2.704l4.799-1.37A15.938 15.938 0 1 0 45 29.062Zm0 30a14.044 14.044 0 0 1-7.177-1.967.937.937 0 0 0-.736-.096l-5.181 1.48a.313.313 0 0 1-.386-.386l1.48-5.18a.938.938 0 0 0-.096-.737A14.064 14.064 0 1 1 45 59.063Zm-5.938-14.064a1.562 1.562 0 1 1-3.124 0 1.562 1.562 0 0 1 3.124 0Zm7.5 0a1.562 1.562 0 1 1-3.124 0 1.562 1.562 0 0 1 3.124 0Zm7.5 0a1.563 1.563 0 1 1-3.125 0 1.563 1.563 0 0 1 3.126 0Z" fill="#000"/></svg>