<svg
  width="90"
  height="90"
  viewBox="0 0 90 90"
  fill="none"
  xmlns="http://www.w3.org/2000/svg"
>
  <circle
    opacity="0.5"
    cx="45"
    cy="45"
    r="45"
    fill="#FFE603"
  ></circle>
  <path
    d="M45 29.0625C42.221 29.0633 39.4904 29.7905 37.0791 31.172C34.6679 32.5536 32.6596 34.5414 31.2536 36.9385C29.8475 39.3356 29.0925 42.0585 29.0634 44.8374C29.0343 47.6163 29.7321 50.3545 31.0876 52.7805L29.7165 57.5791C29.6094 57.9542 29.6045 58.3511 29.7024 58.7287C29.8003 59.1064 29.9974 59.451 30.2733 59.7268C30.5491 60.0026 30.8938 60.1997 31.2714 60.2975C31.649 60.3954 32.046 60.3904 32.4211 60.2833L37.2198 58.9123C39.3455 60.101 41.7154 60.7868 44.1474 60.9169C46.5795 61.047 49.009 60.6181 51.2494 59.663C53.4898 58.7079 55.4816 57.2521 57.0717 55.4073C58.6618 53.5625 59.8081 51.3778 60.4223 49.0211C61.0366 46.6643 61.1026 44.1981 60.6153 41.8118C60.1279 39.4256 59.1002 37.1827 57.611 35.2556C56.1219 33.3284 54.2108 31.7681 52.0247 30.6945C49.8386 29.6209 47.4355 29.0626 45 29.0625ZM45 59.0625C42.4745 59.0642 39.9953 58.3848 37.8234 57.0959C37.7136 57.0306 37.5916 56.9884 37.4649 56.972C37.3381 56.9556 37.2094 56.9652 37.0865 57.0003L31.9059 58.4805C31.8523 58.4958 31.7956 58.4965 31.7416 58.4825C31.6876 58.4686 31.6384 58.4404 31.599 58.401C31.5596 58.3616 31.5314 58.3123 31.5174 58.2584C31.5035 58.2044 31.5042 58.1477 31.5195 58.0941L32.9997 52.9134C33.0347 52.7906 33.0443 52.6619 33.0278 52.5353C33.0113 52.4086 32.9692 52.2867 32.9039 52.1769C31.3199 49.5083 30.663 46.3908 31.0355 43.31C31.408 40.2292 32.7889 37.3581 34.9632 35.1439C37.1375 32.9297 39.983 31.4968 43.0566 31.0684C46.1301 30.64 49.259 31.2401 51.9559 32.7753C54.6528 34.3105 56.7663 36.6946 57.967 39.5561C59.1678 42.4176 59.3884 45.5959 58.5946 48.5959C57.8008 51.5959 56.037 54.2491 53.5781 56.1423C51.1192 58.0354 48.1032 59.0621 45 59.0625ZM39.0625 44.9995C39.0625 45.3086 38.9708 45.6107 38.7991 45.8676C38.6275 46.1246 38.3834 46.3248 38.0979 46.4431C37.8124 46.5614 37.4982 46.5923 37.1951 46.532C36.8921 46.4717 36.6136 46.3229 36.3951 46.1044C36.1766 45.8859 36.0278 45.6075 35.9675 45.3044C35.9072 45.0013 35.9382 44.6871 36.0564 44.4016C36.1747 44.1161 36.3749 43.872 36.6319 43.7004C36.8889 43.5287 37.1909 43.437 37.5 43.437C37.9142 43.4375 38.3114 43.6023 38.6043 43.8952C38.8972 44.1881 39.062 44.5853 39.0625 44.9995ZM46.5625 44.9995C46.5625 45.3086 46.4708 45.6107 46.2991 45.8676C46.1275 46.1246 45.8834 46.3248 45.5979 46.4431C45.3124 46.5614 44.9982 46.5923 44.6951 46.532C44.3921 46.4717 44.1136 46.3229 43.8951 46.1044C43.6766 45.8859 43.5278 45.6075 43.4675 45.3044C43.4072 45.0013 43.4382 44.6871 43.5564 44.4016C43.6747 44.1161 43.8749 43.872 44.1319 43.7004C44.3889 43.5287 44.6909 43.437 45 43.437C45.4142 43.4375 45.8114 43.6023 46.1043 43.8952C46.3972 44.1881 46.562 44.5853 46.5625 44.9995ZM54.0625 44.9995C54.0625 45.3086 53.9708 45.6107 53.7992 45.8676C53.6275 46.1246 53.3834 46.3248 53.0979 46.4431C52.8124 46.5614 52.4982 46.5923 52.1952 46.532C51.8921 46.4717 51.6136 46.3229 51.3951 46.1044C51.1766 45.8859 51.0278 45.6075 50.9675 45.3044C50.9072 45.0013 50.9382 44.6871 51.0564 44.4016C51.1747 44.1161 51.3749 43.872 51.6319 43.7004C51.8889 43.5287 52.1909 43.437 52.5 43.437C52.9142 43.4375 53.3114 43.6023 53.6043 43.8952C53.8972 44.1881 54.062 44.5853 54.0625 44.9995Z"
    fill="black"
  ></path>
</svg>
