<svg width="40" height="40" viewBox="0 0 40 40" fill="none" xmlns="http://www.w3.org/2000/svg"><path d="M13.85 31h-3.6A2.24 2.24 0 0 1 8 28.77V4.23A2.24 2.24 0 0 1 10.25 2h13.5A2.24 2.24 0 0 1 26 4.23V16.5" stroke="#161616" stroke-width="2" stroke-linecap="round" stroke-linejoin="round"/><path d="m23.657 20.612-1.387-1.065a.581.581 0 0 0-.528-.093c-.43.137-.847.314-1.246.527a.593.593 0 0 0-.31.45l-.245 1.757a6.382 6.382 0 0 0-.533.546l-1.717.251a.58.58 0 0 0-.438.316 7.893 7.893 0 0 0-.516 1.275.617.617 0 0 0 .091.541l1.04 1.42a6.669 6.669 0 0 0 0 .773l-1.04 1.42a.609.609 0 0 0-.091.54c.134.44.307.867.515 1.276a.598.598 0 0 0 .439.316l1.717.251a6.43 6.43 0 0 0 .533.546l.246 1.758a.61.61 0 0 0 .308.448c.4.214.816.39 1.246.529a.575.575 0 0 0 .528-.094l1.388-1.065a6.116 6.116 0 0 0 .754 0L25.8 34.3a.581.581 0 0 0 .528.094c.43-.138.846-.315 1.245-.528a.593.593 0 0 0 .31-.45l.245-1.757a6.382 6.382 0 0 0 .533-.546l1.717-.251a.58.58 0 0 0 .438-.316c.209-.408.382-.835.516-1.275a.616.616 0 0 0-.09-.541l-1.042-1.42a6.668 6.668 0 0 0 0-.772l1.04-1.42a.609.609 0 0 0 .092-.541 7.889 7.889 0 0 0-.515-1.276.598.598 0 0 0-.439-.316l-1.717-.251a6.316 6.316 0 0 0-.533-.546l-.245-1.758a.608.608 0 0 0-.309-.448 7.506 7.506 0 0 0-1.245-.529.575.575 0 0 0-.53.094l-1.387 1.065a6.116 6.116 0 0 0-.754 0Z" stroke="#161616" stroke-width="1.905" stroke-linecap="round" stroke-linejoin="round"/><path fill-rule="evenodd" clip-rule="evenodd" d="M24.035 24.32c-1.425 0-2.618 1.19-2.618 2.704 0 1.515 1.193 2.704 2.618 2.704 1.424 0 2.617-1.189 2.617-2.704 0-1.515-1.193-2.704-2.617-2.704Zm-4.523 2.704c0-2.523 2.004-4.608 4.523-4.608 2.519 0 4.522 2.085 4.522 4.608 0 2.524-2.003 4.61-4.522 4.61-2.52 0-4.523-2.086-4.523-4.61Z" fill="#161616"/></svg>