<svg xmlns="http://www.w3.org/2000/svg" width="40" height="40" fill="none"><path stroke="#161616" stroke-linecap="round" stroke-linejoin="round" stroke-width="2" d="M13.85 9h-3.6A2.24 2.24 0 0 0 8 11.23v24.54A2.24 2.24 0 0 0 10.25 38h13.5A2.24 2.24 0 0 0 26 35.77V23.5"/><path stroke="#161616" stroke-linecap="round" stroke-linejoin="round" stroke-width="1.905" d="m23.657 19.388-1.387 1.065a.581.581 0 0 1-.528.094 7.502 7.502 0 0 1-1.246-.528.593.593 0 0 1-.31-.45l-.245-1.757a6.44 6.44 0 0 1-.533-.546l-1.717-.251a.581.581 0 0 1-.438-.316 7.89 7.89 0 0 1-.516-1.275.617.617 0 0 1 .091-.541l1.04-1.42a6.668 6.668 0 0 1 0-.772l-1.04-1.42a.609.609 0 0 1-.091-.541c.134-.44.307-.867.515-1.276a.597.597 0 0 1 .439-.316l1.717-.251a6.43 6.43 0 0 1 .533-.546l.246-1.758a.61.61 0 0 1 .308-.448c.4-.214.816-.39 1.246-.529a.576.576 0 0 1 .528.094l1.388 1.065a6.156 6.156 0 0 1 .754 0L25.8 5.7a.58.58 0 0 1 .528-.094 7.5 7.5 0 0 1 1.245.528.593.593 0 0 1 .31.45l.245 1.757a6.38 6.38 0 0 1 .533.546l1.717.251a.58.58 0 0 1 .438.316c.209.408.382.835.516 1.275a.616.616 0 0 1-.09.541L30.2 12.69a6.665 6.665 0 0 1 0 .773l1.04 1.42a.609.609 0 0 1 .092.54c-.134.44-.307.867-.515 1.276a.597.597 0 0 1-.439.316l-1.717.251a6.43 6.43 0 0 1-.533.546l-.245 1.758a.608.608 0 0 1-.309.448c-.399.214-.816.39-1.245.529a.577.577 0 0 1-.53-.094l-1.387-1.065a6.197 6.197 0 0 1-.754 0Z"/><path fill="#161616" fill-rule="evenodd" d="M24.034 15.68c-1.424 0-2.617-1.19-2.617-2.704 0-1.515 1.193-2.704 2.617-2.704 1.425 0 2.618 1.189 2.618 2.704 0 1.515-1.193 2.704-2.618 2.704Zm-4.522-2.704c0 2.523 2.003 4.608 4.522 4.608 2.52 0 4.523-2.085 4.523-4.608 0-2.524-2.004-4.61-4.523-4.61-2.519 0-4.522 2.086-4.522 4.61Z" clip-rule="evenodd"/></svg>