<svg width="40" height="40" viewBox="0 0 40 40" fill="none" xmlns="http://www.w3.org/2000/svg"><path d="M19.447 28.823c0-.974-.746-1.764-1.667-1.764-.92 0-1.666.79-1.666 1.764 0 .975.746 1.765 1.666 1.765.92 0 1.667-.79 1.667-1.765Z" fill="#161616"/><path fill-rule="evenodd" clip-rule="evenodd" d="M25.25 30a4.75 4.75 0 1 1 9.5 0 4.75 4.75 0 0 1-9.5 0ZM30 27.25a2.75 2.75 0 1 0 0 5.5 2.75 2.75 0 0 0 0-5.5Z" fill="#161616"/><path fill-rule="evenodd" clip-rule="evenodd" d="M23.572 35.117h-12.46c-1.832 0-3.221-1.555-3.221-3.352V5.882c0-1.797 1.39-3.353 3.222-3.353h13.333c1.833 0 3.222 1.556 3.222 3.353v15.325c.378-.04.756.09 1.134.393l1.2.9h.2l1.2-.9c.4-.3 1-.4 1.5-.3l1.5.6c.5.2.8.7.9 1.2l.2 1.5.1.1 1.5.2c.5.1 1 .4 1.2.9.066.166.144.333.222.5.155.333.31.666.378 1 .2.5.1 1-.3 1.5l-.9 1.2v.2l.9 1.2c.3.4.4 1 .3 1.5l-.6 1.5c-.2.5-.7.8-1.2.9l-1.5.2-.1.1-.2 1.5c-.1.5-.4 1-.9 1.2a9.8 9.8 0 0 0-.5.222c-.334.156-.667.311-1 .378-.5.2-1 .1-1.5-.3l-1.2-.9h-.2l-1.2.9a18.29 18.29 0 0 0-.198.05c-.308.081-.571.15-.902.15-.2 0-.3 0-.5-.1l-1.5-.6c-.5-.2-.8-.7-.9-1.2l-.2-1.5-.1-.1-.5-.1h-.2l-.23-.083Zm-2.247-2H11.113c-.622 0-1.222-.55-1.222-1.352V5.882c0-.802.6-1.353 1.222-1.353h13.333c.622 0 1.222.551 1.222 1.353v16.08c-.42.23-.676.684-.766 1.138l-.2 1.5-.1.1-1.5.2c-.5.1-.9.4-1.3.8l-.6 1.5c-.1.5 0 1.1.3 1.5l.9 1.1v.2l-.9 1.2c-.4.5-.5 1-.3 1.5.027.139.07.278.123.417Zm5.977 3.433a6.92 6.92 0 0 0-.4-.15l-.3-1.6c0-.2-.1-.4-.3-.6l-.5-.5c-.2-.2-.4-.3-.6-.3l-.8-.1-.9-.3c0-.2-.1-.4-.2-.6l1-1.3c.1-.2.2-.5.2-.7v-.7c0-.3-.1-.5-.2-.7l-1-1.3c.1-.3.2-.6.3-.8l1.6-.3c.3 0 .5-.1.6-.3l.5-.5c.2-.2.3-.4.3-.6l.3-1.6c.06-.03.13-.06.206-.094.175-.076.384-.167.594-.306l1.3 1c.2.2.4.3.6.2h.7c.26.087.446.022.688-.062l.112-.038 1.3-1c.15.05.275.1.4.15.125.05.25.1.4.15l.2 1.6c0 .2.1.4.3.6.2.2.3.3.5.6.2.2.4.3.6.3l1.6.2c.05.15.1.275.15.4.05.125.1.25.15.4l-1 1.3c-.1.2-.2.5-.2.7v.7c0 .3.1.5.2.7l1 1.3c-.05.15-.1.275-.15.4-.05.125-.1.25-.15.4l-1.6.2c-.2 0-.4.1-.6.3l-.5.5c-.2.2-.3.4-.3.6l-.2 1.6c-.15.05-.275.1-.4.15-.125.05-.25.1-.4.15l-1.3-1c-.2-.1-.5-.2-.7-.2h-.7c-.3 0-.5.1-.7.2l-1.3 1c-.15-.05-.275-.1-.4-.15Z" fill="#161616"/></svg>