<svg width="90" height="90" viewBox="0 0 90 90" fill="none" xmlns="http://www.w3.org/2000/svg"><circle opacity=".5" cx="45" cy="45" r="45" fill="#FFE603"/><path d="M40.127 27.5a12.25 12.25 0 0 0-6.75 2l8 8a2.623 2.623 0 0 1 .25 3.75 2.625 2.625 0 0 1-3.75-.25l-8.25-8a12.3 12.3 0 0 0-2.125 7.125A12.675 12.675 0 0 0 40.127 52.75c1.094.006 2.185-.12 3.25-.375l8.375 8.375a6.275 6.275 0 0 0 8.875-8.875L52.252 43.5a13.68 13.68 0 0 0 .375-3.25 12.499 12.499 0 0 0-12.5-12.75Zm10 12.625a9.51 9.51 0 0 1-.375 2.625l-.375 1.375 1 1 8.375 8.375a3.6 3.6 0 0 1 1.125 2.625 3.399 3.399 0 0 1-1.125 2.625 3.625 3.625 0 0 1-5.25 0l-8.375-8.375-1-1-1.375.375a9.517 9.517 0 0 1-2.625.375 10.338 10.338 0 0 1-7.125-2.875 9.539 9.539 0 0 1-3-7.125c.002-.93.128-1.854.375-2.75l5.5 5.5a5.176 5.176 0 0 0 7.375.25 5.175 5.175 0 0 0-.25-7.375l-5.5-5.5a8.06 8.06 0 0 1 2.5-.375 10.337 10.337 0 0 1 7.125 2.875 10.612 10.612 0 0 1 3 7.375Z" fill="#000"/></svg>