<svg width="40" height="40" viewBox="0 0 40 40" fill="none" xmlns="http://www.w3.org/2000/svg"><path fill-rule="evenodd" clip-rule="evenodd" d="M18.74 9.779c0-.83.566-1.753 1.847-2.521C21.847 6.5 23.654 6 25.703 6c2.049 0 3.855.5 5.116 1.257 1.28.768 1.847 1.69 1.847 2.52 0 .83-.566 1.753-1.847 2.522-1.261.756-3.067 1.256-5.116 1.256-2.05 0-3.856-.5-5.116-1.256-1.281-.769-1.847-1.691-1.847-2.521ZM25.703 4c-2.35 0-4.524.57-6.145 1.542-1.602.96-2.818 2.427-2.818 4.236v19.11c0 1.81 1.217 3.276 2.818 4.237 1.621.973 3.796 1.542 6.145 1.542 2.348 0 4.523-.57 6.145-1.542 1.6-.96 2.818-2.427 2.818-4.236V9.779c0-1.809-1.217-3.275-2.818-4.236C30.227 4.57 28.052 4 25.703 4Zm6.963 22.19a7.726 7.726 0 0 1-.818.564c-1.622.973-3.797 1.542-6.145 1.542-2.349 0-4.524-.569-6.145-1.542a7.726 7.726 0 0 1-.818-.563v2.698c0 .83.566 1.752 1.847 2.52 1.26.757 3.067 1.258 5.116 1.258 2.048 0 3.855-.5 5.116-1.257 1.28-.769 1.847-1.691 1.847-2.521v-2.698ZM18.74 16.15v-2.698c.257.204.531.392.818.564 1.62.972 3.796 1.541 6.145 1.541 2.349 0 4.524-.569 6.145-1.541.286-.172.56-.36.818-.564v2.698c0 .83-.566 1.753-1.847 2.521-1.261.757-3.068 1.257-5.116 1.257-2.049 0-3.855-.5-5.116-1.257-1.281-.768-1.847-1.69-1.847-2.52Zm13.108 4.236c.286-.172.56-.36.818-.563v2.697c0 .83-.566 1.753-1.847 2.521-1.261.757-3.068 1.257-5.116 1.257-2.049 0-3.855-.5-5.116-1.257-1.281-.768-1.847-1.69-1.847-2.52v-2.698c.257.203.531.391.818.563 1.621.973 3.796 1.542 6.145 1.542 2.348 0 4.523-.57 6.145-1.542ZM9.185 13.556v-.592a1 1 0 0 0-2 0v.599a3.389 3.389 0 0 0 .204 6.771H8.98a1.39 1.39 0 0 1 0 2.778H5a1 1 0 1 0 0 2h2.185v.593a1 1 0 1 0 2 0v-.6a3.389 3.389 0 0 0-.204-6.77H7.39a1.389 1.389 0 1 1 0-2.779h3.981a1 1 0 1 0 0-2H9.185Z" fill="#161616"/></svg>