<svg width="40" height="40" viewBox="0 0 40 40" fill="none" xmlns="http://www.w3.org/2000/svg"><path d="M19.959 36.668H20c6.432 0 11.667-5.234 11.667-11.667V15c0-6.402-5.212-11.623-11.635-11.667h-.1C13.532 3.37 8.334 8.595 8.334 15v10c0 6.433 5.215 11.667 11.625 11.667ZM11.667 15a8.345 8.345 0 0 1 8.308-8.333c4.608.01 8.358 3.748 8.358 8.333v10c0 4.595-3.738 8.333-8.333 8.333h-.041c-4.649 0-8.292-3.66-8.292-8.333V15Z" fill="#161616"/><path d="M18.334 10h3.333v10h-3.334V10Z" fill="#161616"/></svg>