<svg width="40" height="40" viewBox="0 0 40 40" fill="none" xmlns="http://www.w3.org/2000/svg"><path fill-rule="evenodd" clip-rule="evenodd" d="M27.5 19.634a1 1 0 0 1 0 1.732l-11.25 6.495a1 1 0 0 1-1.5-.866v-12.99a1 1 0 0 1 1.5-.866l11.25 6.495Zm-10.75-3.897L25 20.5l-8.25 4.763v-9.526Z" fill="#161616"/><path fill-rule="evenodd" clip-rule="evenodd" d="M12.08 6.172a15.938 15.938 0 1 1 .14 27.74L7.42 35.283a2.188 2.188 0 0 1-2.704-2.704l1.37-4.799A15.942 15.942 0 0 1 12.08 6.172Zm.743 25.924a14.064 14.064 0 1 0-4.92-4.919.938.938 0 0 1 .097.736l-1.48 5.181a.312.312 0 0 0 .386.386l5.18-1.48a.939.939 0 0 1 .737.096Z" fill="#161616"/></svg>