<svg width="90" height="90" viewBox="0 0 90 90" fill="none" xmlns="http://www.w3.org/2000/svg"><circle opacity=".5" cx="45" cy="45" r="45" fill="#FFE603"/><path d="M57.08 31.88H29.051c-.703 0-1.274.548-1.274 1.225v22.05c0 .676.57 1.225 1.274 1.225H57.08c.704 0 1.274-.549 1.274-1.225v-22.05c0-.677-.57-1.225-1.274-1.225Z" stroke="#161616" stroke-width="2" stroke-linecap="round" stroke-linejoin="round"/><path d="m51.776 43.666-1.962-1.47a.83.83 0 0 0-.746-.13c-.608.19-1.197.434-1.762.729a.83.83 0 0 0-.437.62l-.347 2.427a8.996 8.996 0 0 0-.754.754h0l-2.427.347a.831.831 0 0 0-.62.437c-.295.564-.54 1.153-.73 1.76a.831.831 0 0 0 .13.748l1.47 1.962a8.88 8.88 0 0 0 0 1.066h0l-1.47 1.962a.832.832 0 0 0-.13.746c.19.608.434 1.197.729 1.761a.832.832 0 0 0 .62.438l2.428.346a8.935 8.935 0 0 0 .754.754h0l.347 2.428a.832.832 0 0 0 .437.619c.564.295 1.153.54 1.76.73a.833.833 0 0 0 .748-.13l1.962-1.47a8.886 8.886 0 0 0 1.067 0h0l1.962 1.47a.832.832 0 0 0 .746.13c.608-.19 1.198-.434 1.762-.729a.833.833 0 0 0 .437-.62l.347-2.428a8.937 8.937 0 0 0 .754-.754h0l2.428-.347a.832.832 0 0 0 .62-.436c.294-.564.539-1.153.73-1.76a.831.831 0 0 0-.13-.748l-1.471-1.962a8.964 8.964 0 0 0 0-1.066h0l1.47-1.962a.83.83 0 0 0 .13-.746 10.74 10.74 0 0 0-.728-1.762.832.832 0 0 0-.62-.437l-2.429-.347a8.878 8.878 0 0 0-.754-.754h0l-.347-2.427a.831.831 0 0 0-.436-.62 10.753 10.753 0 0 0-1.761-.73.832.832 0 0 0-.748.13l-1.962 1.471a8.97 8.97 0 0 0-1.066 0h0Z" fill="#FFF281" stroke="#161616" stroke-width="2" stroke-linecap="round" stroke-linejoin="round"/><path d="M52.31 57.573a5.05 5.05 0 0 0 5.048-5.05 5.05 5.05 0 1 0-5.048 5.05Z" stroke="#161616" stroke-width="2" stroke-linecap="round" stroke-linejoin="round"/><path d="m53.754 51.88-1.836 1.797L51 52.78" stroke="#161616" stroke-width="1.5" stroke-linecap="round" stroke-linejoin="round"/></svg>