<svg width="90" height="90" viewBox="0 0 90 90" fill="none" xmlns="http://www.w3.org/2000/svg"><circle opacity=".7" cx="45" cy="45" r="45" fill="#FFE603"/><path fill-rule="evenodd" clip-rule="evenodd" d="M52.5 29.75a1.5 1.5 0 0 1 1.5 1.5v27.5a1.5 1.5 0 0 1-1.5 1.5h-15a1.5 1.5 0 0 1-1.5-1.5v-27.5a1.5 1.5 0 0 1 1.5-1.5h15Zm3.5 1.5a3.5 3.5 0 0 0-3.5-3.5h-15a3.5 3.5 0 0 0-3.5 3.5v27.5a3.5 3.5 0 0 0 3.5 3.5h15a3.5 3.5 0 0 0 3.5-3.5v-27.5Zm-9.125 3.125a1.875 1.875 0 1 1-3.75 0 1.875 1.875 0 0 1 3.75 0Z" fill="#161616"/></svg>