<svg xmlns="http://www.w3.org/2000/svg" width="100" height="26" viewBox="0 0 100 26"><g fill="none" fill-rule="evenodd"><path fill="#5F656A" d="M22.536 0v25.2h-3.852L4.788 8.136V25.2H.144V0h3.852l13.896 17.064V0h4.644zM61.38 3.96h-8.352V0h21.384v3.96H66.06V25.2h-4.68V3.96zM88.308 0c2.184 0 4.086.36 5.706 1.08 1.62.72 2.862 1.752 3.726 3.096.864 1.344 1.296 2.94 1.296 4.788 0 1.824-.432 3.414-1.296 4.77-.864 1.356-2.106 2.394-3.726 3.114-1.62.72-3.522 1.08-5.706 1.08H82.62V25.2h-4.68V0h10.368zm-.216 13.968c2.04 0 3.588-.432 4.644-1.296 1.056-.864 1.584-2.1 1.584-3.708s-.528-2.844-1.584-3.708c-1.056-.864-2.604-1.296-4.644-1.296H82.62v10.008h5.472zM41.688 0l11.376 25.2h-4.896l-2.49-5.766-6.33-14.754-6.33 14.754h.002L30.564 25.2H25.74L37.08 0h4.608z"/><path fill="#81C342" d="m39.276 10.44 3.571 8.279h-7.116l3.545-8.279z"/></g></svg>