<svg width="67" height="67" viewBox="0 0 67 67" fill="none" xmlns="http://www.w3.org/2000/svg"><path d="M33.35 66.317C15.53 66.317.42 51.267.281 33.337A32.685 32.685 0 0 1 9.83 10.015 33.233 33.233 0 0 1 33.436 0a32.764 32.764 0 0 1 23.26 9.66 32.798 32.798 0 0 1 9.903 23.19 33.318 33.318 0 0 1-32.98 33.467h-.27Zm.103-64.581a31.505 31.505 0 0 0-22.366 9.503 30.957 30.957 0 0 0-9.07 22.08c.131 16.993 14.451 31.244 31.323 31.244h.226A31.583 31.583 0 0 0 64.863 32.86a31.078 31.078 0 0 0-9.391-21.967 30.931 30.931 0 0 0-22.019-9.156Z" fill="#6A6A6A"/><path d="M7.723 42.857V23.485h4.712v1.736h-2.5v15.935h2.5v1.736l-4.712-.035ZM23.714 32.98c0 3.533-2.143 5.546-5.05 5.546-2.908 0-4.844-2.265-4.844-5.364 0-3.237 2.031-5.52 5-5.52 2.968 0 4.894 2.379 4.894 5.338Zm-7.863.156c0 2.144 1.076 3.845 2.925 3.845 1.849 0 2.907-1.736 2.907-3.923 0-1.987-.98-3.862-2.907-3.862s-2.942 1.814-2.942 3.984l.017-.044ZM25.348 28.008c.923-.16 1.858-.238 2.794-.235a4.99 4.99 0 0 1 3.02.668 2.222 2.222 0 0 1 1.094 1.97 2.448 2.448 0 0 1-1.736 2.283 2.655 2.655 0 0 1 2.127 2.604 2.732 2.732 0 0 1-1.016 2.17c-.746.66-1.987.98-3.905.98a18.591 18.591 0 0 1-2.361-.139l-.017-10.301Zm1.909 4.157h.98c1.329 0 2.075-.625 2.075-1.52 0-.893-.746-1.44-1.97-1.44a5.21 5.21 0 0 0-1.094.078l.009 2.882Zm0 4.843c.337.034.676.049 1.015.043 1.233 0 2.327-.469 2.327-1.736s-1.06-1.736-2.387-1.736h-.955v3.429ZM36.438 27.869h1.918v6.847c0 2.908-1.406 3.88-3.471 3.88a5.127 5.127 0 0 1-1.623-.278l.234-1.545c.385.12.786.185 1.19.191 1.093 0 1.735-.503 1.735-2.326l.017-6.77ZM43.817 33.57v1.328h-3.993V33.57h3.993ZM53.14 38.084a6.657 6.657 0 0 1-2.717.469c-3.342 0-5.373-2.092-5.373-5.294a5.294 5.294 0 0 1 5.624-5.564 6.076 6.076 0 0 1 2.604.469l-.425 1.527a5.111 5.111 0 0 0-2.066-.407c-2.143 0-3.688 1.345-3.688 3.88 0 2.308 1.362 3.8 3.67 3.8a5.38 5.38 0 0 0 2.093-.39l.277 1.51ZM59.162 23.433v19.424h-4.713V41.12h2.5V25.169h-2.5v-1.736h4.713Z" fill="#6A6A6A"/></svg>