<svg width="40" height="40" viewBox="0 0 40 40" fill="none" xmlns="http://www.w3.org/2000/svg"><path d="M20.005 2.794c-8.385 0-15.206 6.82-15.206 15.205v8.245a3.044 3.044 0 0 0 3.041 3.04h1.188a3.046 3.046 0 0 0 2.867 2.028 3.045 3.045 0 0 0 3.041-3.041v-8.245a3.045 3.045 0 0 0-3.04-3.04 3.046 3.046 0 0 0-2.868 2.027H7.84c-.355 0-.696.061-1.013.174v-1.188c0-7.266 5.911-13.178 13.178-13.178 7.266 0 13.178 5.912 13.178 13.178v1.188a3.026 3.026 0 0 0-1.014-.174h-1.188a3.046 3.046 0 0 0-2.867-2.028 3.045 3.045 0 0 0-3.04 3.041v8.245a3.045 3.045 0 0 0 3.923 2.91 3.046 3.046 0 0 1-2.91 2.159H22.87a3.046 3.046 0 0 0-2.866-2.028 3.045 3.045 0 0 0-3.041 3.041 3.045 3.045 0 0 0 3.04 3.041 3.046 3.046 0 0 0 2.867-2.027h3.216a5.074 5.074 0 0 0 5.068-5.069v-1.013h1.014a3.044 3.044 0 0 0 3.041-3.041v-8.245c0-8.384-6.821-15.205-15.205-15.205Zm-9.123 17.232a1.015 1.015 0 0 1 2.027 0v8.245a1.015 1.015 0 0 1-2.027 0v-8.245ZM7.84 21.04h1.014v6.217H7.84a1.015 1.015 0 0 1-1.013-1.013v-4.19c0-.56.454-1.014 1.013-1.014Zm12.165 14.327a1.015 1.015 0 0 1 0-2.027 1.015 1.015 0 0 1 0 2.027Zm9.123-7.096a1.015 1.015 0 0 1-2.027 0v-8.245a1.015 1.015 0 0 1 2.027 0v8.245Zm4.055-2.027c0 .559-.455 1.013-1.014 1.013h-1.014V21.04h1.014c.559 0 1.014.455 1.014 1.014v4.19Z" fill="#161616"/></svg>