<svg width="40" height="40" viewBox="0 0 40 40" fill="none" xmlns="http://www.w3.org/2000/svg"><path d="M17.501 7.5v7.778a1 1 0 0 1-.47.85L4.638 23.873a1 1 0 0 0-.47.847v1.5a1 1 0 0 0 1.243.97l10.847-2.713a1 1 0 0 1 1.243.97v4.933a1 1 0 0 1-.341.752l-3.6 3.15c-.764.67-.162 1.918.836 1.736l5.427-.985c.118-.021.239-.021.357 0l5.426.985c.999.184 1.6-1.066.837-1.735l-3.6-3.15a1 1 0 0 1-.342-.753v-4.933a1 1 0 0 1 1.242-.97l10.85 2.713a1 1 0 0 0 1.242-.97v-1.5a1 1 0 0 0-.47-.847L22.97 16.127a1 1 0 0 1-.47-.849V7.5a2.5 2.5 0 0 0-5 0v0Z" stroke="#161616" stroke-width="2" stroke-linecap="round" stroke-linejoin="round"/></svg>