<svg width="78" height="80" viewBox="0 0 78 80" fill="none" xmlns="http://www.w3.org/2000/svg"><path d="M57.467 57.782c.498-4.146.349-4.754 3.437-4.082l.784.068c2.374.108 5.48-.382 7.305-1.23 3.929-1.822 6.258-4.865 2.385-4.066-8.836 1.823-9.443-1.169-9.443-1.169 9.33-13.843 13.23-31.416 9.863-35.717C62.616-.147 46.722 5.4 46.456 5.545l-.085.015c-1.746-.362-3.7-.578-5.894-.614-3.999-.065-7.033 1.049-9.334 2.794 0 0-28.355-11.682-27.036 14.691.28 5.61 8.042 42.452 17.298 31.324a170.767 170.767 0 0 1 6.653-7.51c1.624 1.08 3.568 1.63 5.606 1.432l.158-.135c-.05.505-.028 1 .063 1.585-2.384 2.664-1.684 3.132-6.451 4.113-4.824.994-1.99 2.764-.14 3.227 2.243.56 7.431 1.355 10.938-3.553l-.14.56c.936.748.873 5.379 1.006 8.687.132 3.309.354 6.396 1.028 8.216.675 1.82 1.47 6.51 7.736 5.166 5.237-1.122 9.24-2.737 9.605-17.761" fill="#6A6A6A"/><path d="M57.467 57.782c.498-4.146.349-4.754 3.437-4.082l.784.068c2.374.108 5.48-.382 7.305-1.23 3.929-1.822 6.258-4.865 2.385-4.066-8.836 1.823-9.443-1.169-9.443-1.169 9.33-13.843 13.23-31.416 9.863-35.717C62.616-.147 46.722 5.4 46.456 5.545l-.085.015c-1.746-.362-3.7-.578-5.894-.614-3.999-.065-7.033 1.049-9.334 2.794 0 0-28.355-11.682-27.036 14.691.28 5.61 8.042 42.452 17.298 31.324a170.767 170.767 0 0 1 6.653-7.51c1.624 1.08 3.568 1.63 5.606 1.432l.158-.135c-.05.505-.028 1 .063 1.585-2.384 2.664-1.684 3.132-6.451 4.113-4.824.994-1.99 2.764-.14 3.227 2.243.56 7.431 1.355 10.938-3.553l-.14.56c.936.748.873 5.379 1.006 8.687.132 3.309.354 6.396 1.028 8.216.675 1.82 1.47 6.51 7.736 5.166 5.237-1.122 9.24-2.737 9.605-17.761" stroke="#6A6A6A" stroke-width="7.925"/><path d="M71.38 48.472c-8.837 1.822-9.445-1.17-9.445-1.17 9.33-13.844 13.23-31.417 9.865-35.718-9.182-11.732-25.078-6.183-25.343-6.04l-.085.016c-1.746-.363-3.7-.578-5.896-.614-3.998-.066-7.031 1.048-9.332 2.793 0 0-28.356-11.68-27.037 14.692.28 5.61 8.042 42.452 17.299 31.324 3.383-4.07 6.652-7.51 6.652-7.51 1.624 1.079 3.568 1.629 5.605 1.431l.159-.134c-.05.505-.027 1 .063 1.584-2.385 2.665-1.684 3.133-6.451 4.114-4.824.994-1.99 2.764-.14 3.226 2.243.561 7.432 1.356 10.938-3.552l-.14.56c.935.748 1.591 4.868 1.481 8.602-.11 3.735-.183 6.299.553 8.301.736 2.003 1.47 6.509 7.737 5.166 5.236-1.122 7.95-4.03 8.328-8.881.267-3.449.874-2.939.912-6.022l.486-1.46c.56-4.674.09-6.182 3.315-5.481l.784.069c2.375.108 5.483-.382 7.307-1.23 3.927-1.823 6.257-4.866 2.384-4.066Z" fill="#7C7C7C"/><path d="M38.612 51.151c-.243 8.699.061 17.458.913 19.587.851 2.129 2.674 6.27 8.941 4.926 5.236-1.122 7.141-3.294 7.968-8.09.609-3.527 1.783-13.325 1.933-15.332M31.1 7.545S2.725-4.052 4.045 22.321c.28 5.61 8.042 42.453 17.298 31.325 3.383-4.07 6.442-7.262 6.442-7.262M46.424 5.428c-.982.308 15.784-6.129 25.312 6.046 3.366 4.301-.535 21.875-9.865 35.72" stroke="#fff" stroke-width="2.642" stroke-linecap="round" stroke-linejoin="round"/><path d="M61.876 47.193s.608 2.993 9.444 1.17c3.872-.8 1.542 2.243-2.385 4.067-3.222 1.495-10.448 1.879-10.566-.188-.303-5.332 3.803-3.712 3.507-5.049-.268-1.203-2.105-2.384-3.32-5.329-1.06-2.57-14.544-22.284 3.74-19.356.67-.139-4.769-17.392-21.88-17.672-17.108-.28-16.547 21.038-16.547 21.038" stroke="#fff" stroke-width="2.642" stroke-linecap="round" stroke-linejoin="bevel"/><path d="M33.821 49.017c-2.385 2.664-1.683 3.132-6.45 4.113-4.825.995-1.99 2.764-.14 3.226 2.242.562 7.431 1.356 10.937-3.553 1.068-1.495-.006-3.88-1.473-4.488-.708-.293-1.656-.661-2.874.702v0Z" stroke="#fff" stroke-width="2.642" stroke-linecap="round" stroke-linejoin="round"/><path d="M33.663 48.97c-.24-1.566.515-3.43 1.324-5.611 1.216-3.272 4.022-6.545 1.778-16.924-1.673-7.735-12.894-1.61-12.901-.56-.007 1.047.508 5.315-.187 10.284-.907 6.485 4.126 11.97 9.921 11.408" stroke="#fff" stroke-width="2.642" stroke-linecap="round" stroke-linejoin="round"/><path d="M30.995 25.717c-.05.358.655 1.314 1.577 1.442.919.128 1.706-.619 1.756-.977.05-.358-.656-.752-1.577-.88-.92-.13-1.707.058-1.756.415Z" fill="#fff" stroke="#fff" stroke-width=".881"/><path d="M59 24.987c.05.358-.655 1.314-1.576 1.441-.92.128-1.707-.618-1.758-.976-.048-.359.657-.753 1.578-.881.92-.129 1.707.058 1.757.416Z" fill="#fff" stroke="#fff" stroke-width=".44"/><path d="M62.292 22.508c.151 2.81-.605 4.723-.7 7.714-.142 4.348 2.072 9.324-1.264 14.306" stroke="#fff" stroke-width="2.642" stroke-linecap="round" stroke-linejoin="round"/></svg>