<svg width="40" height="40" viewBox="0 0 40 40" fill="none" xmlns="http://www.w3.org/2000/svg">
<path d="M30.3765 28.3848C29.9903 27.9098 29.2605 27.5138 28.1934 27.2093C28.1065 27.1845 28.0455 27.1055 28.0455 27.0151V24.6309C28.0455 24.4866 28.1941 24.3913 28.3112 24.4755C28.5759 24.6657 28.7605 24.9425 28.8606 25.306C28.8888 25.4086 28.9855 25.4803 29.091 25.4665L30.5095 25.2807C30.6224 25.2659 30.7007 25.1598 30.6757 25.0488C30.5333 24.4163 30.2629 23.9022 29.8593 23.5116C29.4476 23.1133 28.9033 22.8558 28.2209 22.7448C28.1211 22.7285 28.0455 22.6439 28.0455 22.5428V22.2C28.0455 22.0895 27.956 22 27.8455 22H27.2111C27.1007 22 27.0111 22.0895 27.0111 22.2V22.5382C27.0111 22.6412 26.9327 22.7268 26.8307 22.7414C26.0923 22.8473 25.4941 23.1558 25.0415 23.6556C24.5455 24.1955 24.2976 24.8649 24.2976 25.6567C24.2976 26.4413 24.5172 27.1107 24.9494 27.6578C25.3659 28.1765 25.9989 28.5722 26.8605 28.845C26.9452 28.8718 27.004 28.9498 27.004 29.0386V31.6076C27.004 31.7569 26.8474 31.8503 26.7291 31.7594C26.5785 31.6437 26.4364 31.4984 26.3026 31.3217C26.1236 31.0852 25.9948 30.8079 25.9121 30.4983C25.8855 30.3986 25.7921 30.3296 25.6895 30.3407L24.2069 30.5004C24.094 30.5126 24.0135 30.6164 24.034 30.7281C24.1911 31.5858 24.5118 32.2525 24.9848 32.7398C25.465 33.2276 26.0735 33.5293 26.8215 33.6507C26.9213 33.6669 26.997 33.7516 26.997 33.8527V34.8C26.997 34.9105 27.0865 35 27.197 35H27.8314C27.9418 35 28.0314 34.9105 28.0314 34.8V33.8122C28.0314 33.713 28.1042 33.6293 28.2018 33.6114C29.0492 33.4563 29.7218 33.0982 30.2136 32.531C30.7379 31.9264 31 31.1921 31 30.314C31 29.5293 30.7945 28.8887 30.3765 28.3848ZM27.004 26.5095C27.004 26.6538 26.8555 26.7501 26.7334 26.6731C26.556 26.5614 26.4163 26.4306 26.3097 26.2829C26.1538 26.0598 26.083 25.8223 26.083 25.5703C26.083 25.2896 26.168 25.0305 26.331 24.8001C26.4457 24.6447 26.583 24.5188 26.7473 24.4223C26.8664 24.3524 27.004 24.4486 27.004 24.5868V26.5095ZM28.917 31.5305C28.7419 31.7362 28.5286 31.8861 28.2774 31.9735C28.1595 32.0146 28.0455 31.9193 28.0455 31.7944V29.467C28.0455 29.333 28.1751 29.2365 28.2996 29.2859C28.5999 29.4051 28.8223 29.5558 28.9737 29.7381C29.165 29.9756 29.2571 30.2564 29.2571 30.5803C29.2571 30.9474 29.1437 31.2641 28.917 31.5305Z" fill="#161616"/>
<path d="M2.9 16.2V26.8C2.9 26.9657 3.03431 27.1 3.2 27.1H7.8C7.96569 27.1 8.1 26.9657 8.1 26.8V16.2C8.1 16.0343 7.96569 15.9 7.8 15.9H3.2C3.03431 15.9 2.9 16.0343 2.9 16.2ZM6.55573 25.7414H4.45191C4.39668 25.7414 4.35191 25.6966 4.35191 25.6414V17.3586C4.35191 17.3034 4.39668 17.2586 4.45191 17.2586H6.55572C6.61095 17.2586 6.65573 17.3034 6.65573 17.3586V25.6414C6.65573 25.6966 6.61095 25.7414 6.55573 25.7414Z" fill="#161616" stroke="#161616" stroke-width="0.2"/>
<path d="M9.9 13.2V26.8C9.9 26.9657 10.0343 27.1 10.2 27.1H14.8C14.9657 27.1 15.1 26.9657 15.1 26.8V13.2C15.1 13.0343 14.9657 12.9 14.8 12.9H10.2C10.0343 12.9 9.9 13.0343 9.9 13.2ZM13.5557 25.7857H11.4519C11.3967 25.7857 11.3519 25.741 11.3519 25.6857V14.3211C11.3519 14.2659 11.3967 14.2211 11.4519 14.2211H13.5557C13.611 14.2211 13.6557 14.2659 13.6557 14.3211V25.6857C13.6557 25.741 13.611 25.7857 13.5557 25.7857Z" fill="#161616" stroke="#161616" stroke-width="0.2"/>
<mask id="path-4-outside-1_6873_23378" x="16" y="1" width="22" height="38" fill="black">
<rect fill="white" x="16" y="1" width="22" height="38"/>
<path d="M35.2775 23.3165V2.2C35.2775 2.08954 35.188 2 35.0775 2H30.9099C30.7994 2 30.7099 2.08954 30.7099 2.2V19.8937C29.9847 19.6528 29.2176 19.5039 28.4226 19.4543V5.68661C28.4226 5.57616 28.3331 5.48661 28.2226 5.48661H24.055C23.9445 5.48661 23.855 5.57616 23.855 5.68661V20.3685C23.0112 20.7866 22.2441 21.3323 21.5676 21.9772V9.16614C21.5676 9.05568 21.4781 8.96614 21.3676 8.96614H17.2C17.0895 8.96614 17 9.05569 17 9.16614V26.7661C17 26.8766 17.0895 26.9661 17.2 26.9661H18.8828C18.7782 27.5331 18.7155 28.1142 18.7155 28.7094C18.7155 33.8331 22.8159 38 27.8577 38C32.8996 38 37 33.8331 37 28.7094C36.993 26.6968 36.3515 24.8402 35.2775 23.3165ZM31.8536 3.36221C31.8536 3.25175 31.9431 3.1622 32.0536 3.1622H33.9409C34.0513 3.1622 34.1409 3.25175 34.1409 3.3622V21.9772C34.0781 21.9134 34.0084 21.8567 33.9456 21.8C33.8061 21.6724 33.6597 21.5449 33.5133 21.4244C33.3598 21.2969 33.1994 21.1764 33.0321 21.063C32.9414 20.9992 32.8438 20.9354 32.7462 20.8787C32.6137 20.7937 32.4812 20.7087 32.3417 20.6307C32.2441 20.574 32.1395 20.5173 32.0349 20.4677C31.9721 20.4252 31.9163 20.3898 31.8536 20.3614V3.36221ZM24.9916 6.84173C24.9916 6.73128 25.0812 6.64173 25.1916 6.64173H27.0789C27.1894 6.64173 27.2789 6.73128 27.2789 6.84173V19.4331C27.1953 19.4402 27.1046 19.4472 27.0209 19.4614C26.9582 19.4685 26.9024 19.4685 26.8396 19.4756C26.5746 19.5039 26.3166 19.5465 26.0586 19.5961C26.0028 19.6102 25.947 19.6244 25.8842 19.6386C25.682 19.6811 25.4728 19.7378 25.2706 19.8016C25.1939 19.8228 25.1241 19.8441 25.0474 19.8654C25.0404 19.8724 25.0195 19.8795 24.9916 19.8866V6.84173ZM19.636 24.6417C19.4547 25.0173 19.2943 25.4 19.1618 25.8039H18.3367C18.2262 25.8039 18.1367 25.7144 18.1367 25.6039V10.3283C18.1367 10.2179 18.2262 10.1283 18.3367 10.1283H20.224C20.3344 10.1283 20.424 10.2179 20.424 10.3283V23.3094C20.417 23.3236 20.41 23.3378 20.3961 23.352C20.2915 23.5008 20.2008 23.6496 20.1032 23.7984C20.0614 23.8693 20.0195 23.9331 19.9777 24.0039C19.887 24.1598 19.8033 24.3157 19.7197 24.4717C19.6918 24.5283 19.6639 24.585 19.636 24.6417ZM27.8508 36.8378C23.4365 36.8378 19.8522 33.1882 19.8522 28.7094C19.8522 27.9583 19.9637 27.2283 20.152 26.5339C20.2148 26.3071 20.2845 26.0945 20.3612 25.8748C20.3682 25.8465 20.3821 25.8252 20.3891 25.7969C20.4658 25.5913 20.5495 25.3929 20.6471 25.2016C20.6611 25.1661 20.682 25.1307 20.696 25.0953C20.7866 24.9039 20.8912 24.7197 20.9958 24.5425C21.0167 24.5071 21.0377 24.4717 21.0586 24.4362C21.1702 24.2591 21.2887 24.0819 21.4142 23.9047C22.251 22.7567 23.3668 21.8354 24.6709 21.2614C24.894 21.1622 25.1241 21.0772 25.3543 20.9992C25.3821 20.9921 25.4031 20.978 25.424 20.9709C25.6611 20.8929 25.9052 20.8291 26.1423 20.7795C26.1632 20.7724 26.1841 20.7654 26.212 20.7583C26.4491 20.7087 26.6932 20.6732 26.9303 20.6449C26.9582 20.6449 26.9861 20.6378 27.0209 20.6307C27.2929 20.6024 27.5649 20.5882 27.8438 20.5882C28.9386 20.5882 29.9777 20.815 30.9331 21.2189L30.9888 21.2472C31.0307 21.2685 31.0725 21.2898 31.1144 21.3039C31.3724 21.4244 31.6234 21.552 31.8675 21.7008C31.9303 21.7362 31.993 21.7787 32.0488 21.8142C32.2859 21.963 32.523 22.1331 32.7462 22.3102C32.7671 22.3315 32.795 22.3457 32.8159 22.3669C33.3319 22.7921 33.8061 23.2811 34.2106 23.8268C35.2287 25.1874 35.8354 26.8811 35.8354 28.7236C35.8494 33.1953 32.265 36.8378 27.8508 36.8378Z"/>
</mask>
<path d="M35.2775 23.3165V2.2C35.2775 2.08954 35.188 2 35.0775 2H30.9099C30.7994 2 30.7099 2.08954 30.7099 2.2V19.8937C29.9847 19.6528 29.2176 19.5039 28.4226 19.4543V5.68661C28.4226 5.57616 28.3331 5.48661 28.2226 5.48661H24.055C23.9445 5.48661 23.855 5.57616 23.855 5.68661V20.3685C23.0112 20.7866 22.2441 21.3323 21.5676 21.9772V9.16614C21.5676 9.05568 21.4781 8.96614 21.3676 8.96614H17.2C17.0895 8.96614 17 9.05569 17 9.16614V26.7661C17 26.8766 17.0895 26.9661 17.2 26.9661H18.8828C18.7782 27.5331 18.7155 28.1142 18.7155 28.7094C18.7155 33.8331 22.8159 38 27.8577 38C32.8996 38 37 33.8331 37 28.7094C36.993 26.6968 36.3515 24.8402 35.2775 23.3165ZM31.8536 3.36221C31.8536 3.25175 31.9431 3.1622 32.0536 3.1622H33.9409C34.0513 3.1622 34.1409 3.25175 34.1409 3.3622V21.9772C34.0781 21.9134 34.0084 21.8567 33.9456 21.8C33.8061 21.6724 33.6597 21.5449 33.5133 21.4244C33.3598 21.2969 33.1994 21.1764 33.0321 21.063C32.9414 20.9992 32.8438 20.9354 32.7462 20.8787C32.6137 20.7937 32.4812 20.7087 32.3417 20.6307C32.2441 20.574 32.1395 20.5173 32.0349 20.4677C31.9721 20.4252 31.9163 20.3898 31.8536 20.3614V3.36221ZM24.9916 6.84173C24.9916 6.73128 25.0812 6.64173 25.1916 6.64173H27.0789C27.1894 6.64173 27.2789 6.73128 27.2789 6.84173V19.4331C27.1953 19.4402 27.1046 19.4472 27.0209 19.4614C26.9582 19.4685 26.9024 19.4685 26.8396 19.4756C26.5746 19.5039 26.3166 19.5465 26.0586 19.5961C26.0028 19.6102 25.947 19.6244 25.8842 19.6386C25.682 19.6811 25.4728 19.7378 25.2706 19.8016C25.1939 19.8228 25.1241 19.8441 25.0474 19.8654C25.0404 19.8724 25.0195 19.8795 24.9916 19.8866V6.84173ZM19.636 24.6417C19.4547 25.0173 19.2943 25.4 19.1618 25.8039H18.3367C18.2262 25.8039 18.1367 25.7144 18.1367 25.6039V10.3283C18.1367 10.2179 18.2262 10.1283 18.3367 10.1283H20.224C20.3344 10.1283 20.424 10.2179 20.424 10.3283V23.3094C20.417 23.3236 20.41 23.3378 20.3961 23.352C20.2915 23.5008 20.2008 23.6496 20.1032 23.7984C20.0614 23.8693 20.0195 23.9331 19.9777 24.0039C19.887 24.1598 19.8033 24.3157 19.7197 24.4717C19.6918 24.5283 19.6639 24.585 19.636 24.6417ZM27.8508 36.8378C23.4365 36.8378 19.8522 33.1882 19.8522 28.7094C19.8522 27.9583 19.9637 27.2283 20.152 26.5339C20.2148 26.3071 20.2845 26.0945 20.3612 25.8748C20.3682 25.8465 20.3821 25.8252 20.3891 25.7969C20.4658 25.5913 20.5495 25.3929 20.6471 25.2016C20.6611 25.1661 20.682 25.1307 20.696 25.0953C20.7866 24.9039 20.8912 24.7197 20.9958 24.5425C21.0167 24.5071 21.0377 24.4717 21.0586 24.4362C21.1702 24.2591 21.2887 24.0819 21.4142 23.9047C22.251 22.7567 23.3668 21.8354 24.6709 21.2614C24.894 21.1622 25.1241 21.0772 25.3543 20.9992C25.3821 20.9921 25.4031 20.978 25.424 20.9709C25.6611 20.8929 25.9052 20.8291 26.1423 20.7795C26.1632 20.7724 26.1841 20.7654 26.212 20.7583C26.4491 20.7087 26.6932 20.6732 26.9303 20.6449C26.9582 20.6449 26.9861 20.6378 27.0209 20.6307C27.2929 20.6024 27.5649 20.5882 27.8438 20.5882C28.9386 20.5882 29.9777 20.815 30.9331 21.2189L30.9888 21.2472C31.0307 21.2685 31.0725 21.2898 31.1144 21.3039C31.3724 21.4244 31.6234 21.552 31.8675 21.7008C31.9303 21.7362 31.993 21.7787 32.0488 21.8142C32.2859 21.963 32.523 22.1331 32.7462 22.3102C32.7671 22.3315 32.795 22.3457 32.8159 22.3669C33.3319 22.7921 33.8061 23.2811 34.2106 23.8268C35.2287 25.1874 35.8354 26.8811 35.8354 28.7236C35.8494 33.1953 32.265 36.8378 27.8508 36.8378Z" fill="#161616"/>
<path d="M35.2775 23.3165H35.0775V23.3799L35.1141 23.4318L35.2775 23.3165ZM30.7099 19.8937L30.6468 20.0835L30.9099 20.1709V19.8937H30.7099ZM28.4226 19.4543H28.2226V19.6422L28.4101 19.6539L28.4226 19.4543ZM23.855 20.3685L23.9438 20.5477L24.055 20.4926V20.3685H23.855ZM21.5676 21.9772H21.3676V22.4442L21.7056 22.1219L21.5676 21.9772ZM18.8828 26.9661L19.0795 27.0024L19.1231 26.7661H18.8828V26.9661ZM37 28.7094H37.2L37.2 28.7088L37 28.7094ZM34.1409 21.9772L33.9983 22.1174L34.3409 22.4656V21.9772H34.1409ZM33.9456 21.8L33.8106 21.9476L33.8115 21.9484L33.9456 21.8ZM33.5133 21.4244L33.3854 21.5782L33.3862 21.5789L33.5133 21.4244ZM33.0321 21.063L32.917 21.2266L32.9199 21.2286L33.0321 21.063ZM32.7462 20.8787L32.638 21.0472L32.6457 21.0517L32.7462 20.8787ZM32.3417 20.6307L32.2413 20.8037L32.2441 20.8053L32.3417 20.6307ZM32.0349 20.4677L31.9227 20.6333L31.9354 20.6419L31.9492 20.6484L32.0349 20.4677ZM31.8536 20.3614H31.6536V20.4905L31.7712 20.5437L31.8536 20.3614ZM27.2789 19.4331L27.2958 19.6324L27.4789 19.6168V19.4331H27.2789ZM27.0209 19.4614L27.0434 19.6605L27.0543 19.6586L27.0209 19.4614ZM26.8396 19.4756L26.8609 19.6745L26.862 19.6743L26.8396 19.4756ZM26.0586 19.5961L26.0208 19.3993L26.0093 19.4022L26.0586 19.5961ZM25.8842 19.6386L25.9254 19.8343L25.9283 19.8337L25.8842 19.6386ZM25.2706 19.8016L25.324 19.9944L25.3307 19.9923L25.2706 19.8016ZM25.0474 19.8654L24.994 19.6726L24.9424 19.6869L24.9049 19.7251L25.0474 19.8654ZM24.9916 19.8866H24.7916V20.1438L25.0409 20.0805L24.9916 19.8866ZM19.636 24.6417L19.4565 24.5534L19.4559 24.5548L19.636 24.6417ZM19.1618 25.8039V26.0039H19.3067L19.3518 25.8663L19.1618 25.8039ZM20.424 23.3094L20.6034 23.3977L20.624 23.356V23.3094H20.424ZM20.3961 23.352L20.2535 23.2117L20.242 23.2235L20.2325 23.237L20.3961 23.352ZM20.1032 23.7984L19.9358 23.6886L19.931 23.6967L20.1032 23.7984ZM19.9777 24.0039L19.8055 23.9023L19.8048 23.9034L19.9777 24.0039ZM19.7197 24.4717L19.5433 24.377L19.5402 24.3834L19.7197 24.4717ZM20.152 26.5339L19.9593 26.4805L19.959 26.4815L20.152 26.5339ZM20.3612 25.8748L20.55 25.9407L20.5532 25.9318L20.5554 25.9226L20.3612 25.8748ZM20.3891 25.7969L20.2017 25.7269L20.1977 25.7378L20.1949 25.7491L20.3891 25.7969ZM20.6471 25.2016L20.8253 25.2925L20.8297 25.2838L20.8332 25.2748L20.6471 25.2016ZM20.696 25.0953L20.5148 25.0094L20.5099 25.022L20.696 25.0953ZM20.9958 24.5425L20.8236 24.4408L20.9958 24.5425ZM21.0586 24.4362L20.8893 24.3296L20.8864 24.3345L21.0586 24.4362ZM21.4142 23.9047L21.2526 23.7869L21.251 23.7891L21.4142 23.9047ZM24.6709 21.2614L24.7514 21.4445L24.7521 21.4442L24.6709 21.2614ZM25.3543 20.9992L25.305 20.8054L25.2975 20.8073L25.2901 20.8098L25.3543 20.9992ZM25.424 20.9709L25.3615 20.7809L25.3598 20.7814L25.424 20.9709ZM26.1423 20.7795L26.1832 20.9753L26.195 20.9728L26.2064 20.969L26.1423 20.7795ZM26.212 20.7583L26.171 20.5623L26.1627 20.5644L26.212 20.7583ZM26.9303 20.6449V20.4449H26.9184L26.9065 20.4463L26.9303 20.6449ZM27.0209 20.6307L27.0002 20.4318L26.9906 20.4328L26.9811 20.4347L27.0209 20.6307ZM30.9331 21.2189L31.0239 21.0402L31.0109 21.0347L30.9331 21.2189ZM30.9888 21.2472L31.0794 21.0689L31.0794 21.0689L30.9888 21.2472ZM31.1144 21.3039L31.199 21.1227L31.189 21.118L31.1785 21.1145L31.1144 21.3039ZM31.8675 21.7008L31.7633 21.8716L31.7692 21.8749L31.8675 21.7008ZM32.0488 21.8142L31.9416 21.983L31.9425 21.9836L32.0488 21.8142ZM32.7462 22.3102L32.8887 22.17L32.8801 22.1612L32.8705 22.1536L32.7462 22.3102ZM32.8159 22.3669L32.6733 22.5072L32.6807 22.5146L32.6887 22.5213L32.8159 22.3669ZM34.2106 23.8268L34.0499 23.9459L34.0505 23.9466L34.2106 23.8268ZM35.8354 28.7236H35.6354L35.6354 28.7242L35.8354 28.7236ZM35.4775 23.3165V2.2H35.0775V23.3165H35.4775ZM35.0775 1.8H30.9099V2.2H35.0775V1.8ZM30.5099 2.2V19.8937H30.9099V2.2H30.5099ZM30.773 19.7039C30.031 19.4574 29.2469 19.3054 28.4351 19.2547L28.4101 19.6539C29.1882 19.7025 29.9383 19.8481 30.6468 20.0835L30.773 19.7039ZM28.6226 19.4543V5.68661H28.2226V19.4543H28.6226ZM28.2226 5.28661H24.055V5.68661H28.2226V5.28661ZM23.655 5.68661V20.3685H24.055V5.68661H23.655ZM23.7662 20.1893C22.9035 20.6168 22.12 21.1743 21.4296 21.8324L21.7056 22.1219C22.3682 21.4903 23.1188 20.9565 23.9438 20.5477L23.7662 20.1893ZM21.7676 21.9772V9.16614H21.3676V21.9772H21.7676ZM21.3676 8.76614H17.2V9.16614H21.3676V8.76614ZM16.8 9.16614V26.7661H17.2V9.16614H16.8ZM17.2 27.1661H18.8828V26.7661H17.2V27.1661ZM18.6862 26.9299C18.5797 27.5067 18.5155 28.1001 18.5155 28.7094H18.9155C18.9155 28.1283 18.9768 27.5594 19.0795 27.0024L18.6862 26.9299ZM18.5155 28.7094C18.5155 33.9405 22.7024 38.2 27.8577 38.2V37.8C22.9294 37.8 18.9155 33.7257 18.9155 28.7094H18.5155ZM27.8577 38.2C33.0131 38.2 37.2 33.9405 37.2 28.7094H36.8C36.8 33.7257 32.7861 37.8 27.8577 37.8V38.2ZM37.2 28.7088C37.1929 26.6533 36.5375 24.757 35.441 23.2013L35.1141 23.4318C36.1654 24.9234 36.7932 26.7404 36.8 28.7101L37.2 28.7088ZM32.0536 3.3622H33.9409V2.9622H32.0536V3.3622ZM33.9409 3.3622V21.9772H34.3409V3.3622H33.9409ZM34.2834 21.8369C34.2156 21.768 34.1316 21.6985 34.0797 21.6516L33.8115 21.9484C33.8852 22.0149 33.9406 22.0588 33.9983 22.1174L34.2834 21.8369ZM34.0806 21.6524C33.9387 21.5227 33.7897 21.3928 33.6403 21.27L33.3862 21.5789C33.5297 21.697 33.6735 21.8222 33.8106 21.9476L34.0806 21.6524ZM33.6411 21.2706C33.4826 21.1388 33.317 21.0144 33.1443 20.8974L32.9199 21.2286C33.0819 21.3383 33.2371 21.4549 33.3854 21.5782L33.6411 21.2706ZM33.1472 20.8994C33.0528 20.833 32.9502 20.766 32.8466 20.7058L32.6457 21.0517C32.7374 21.1049 32.8301 21.1654 32.917 21.2266L33.1472 20.8994ZM32.8542 20.7104C32.7225 20.6259 32.5849 20.5375 32.4393 20.4561L32.2441 20.8053C32.3774 20.8798 32.5048 20.9615 32.6381 21.0471L32.8542 20.7104ZM32.4421 20.4578C32.3412 20.3991 32.2315 20.3396 32.1206 20.287L31.9492 20.6484C32.0474 20.695 32.147 20.7489 32.2413 20.8037L32.4421 20.4578ZM32.147 20.3021C32.0823 20.2583 32.0149 20.2148 31.9359 20.1791L31.7712 20.5437C31.8177 20.5647 31.8619 20.5921 31.9227 20.6333L32.147 20.3021ZM32.0536 20.3614V3.36221H31.6536V20.3614H32.0536ZM25.1916 6.84173H27.0789V6.44173H25.1916V6.84173ZM27.0789 6.84173V19.4331H27.4789V6.84173H27.0789ZM27.2621 19.2338C27.1814 19.2406 27.0813 19.2483 26.9875 19.2642L27.0543 19.6586C27.1279 19.6461 27.2091 19.6397 27.2958 19.6324L27.2621 19.2338ZM26.9985 19.2627C26.9731 19.2655 26.9486 19.267 26.9183 19.2689C26.8893 19.2706 26.8546 19.2726 26.8172 19.2769L26.862 19.6743C26.8874 19.6715 26.9119 19.67 26.9422 19.6681C26.9712 19.6664 27.0059 19.6644 27.0434 19.6602L26.9985 19.2627ZM26.8183 19.2767C26.546 19.3059 26.2822 19.3494 26.0208 19.3997L26.0963 19.7925C26.351 19.7435 26.6032 19.702 26.8609 19.6745L26.8183 19.2767ZM26.0093 19.4022C25.9533 19.4164 25.9 19.43 25.8402 19.4435L25.9283 19.8337C25.994 19.8188 26.0522 19.804 26.1078 19.7899L26.0093 19.4022ZM25.8431 19.4429C25.6333 19.487 25.4177 19.5455 25.2104 19.6108L25.3307 19.9923C25.5279 19.9301 25.7307 19.8752 25.9254 19.8343L25.8431 19.4429ZM25.2172 19.6088C25.1774 19.6198 25.1397 19.6308 25.1032 19.6414C25.0665 19.6521 25.031 19.6624 24.994 19.6726L25.1008 20.0581C25.1406 20.0471 25.1783 20.0361 25.2148 20.0255C25.2515 20.0149 25.287 20.0046 25.324 19.9943L25.2172 19.6088ZM24.9049 19.7251C24.9153 19.7145 24.9249 19.7073 24.9312 19.703C24.9377 19.6985 24.9432 19.6954 24.9468 19.6936C24.9536 19.69 24.958 19.6884 24.9581 19.6884C24.9581 19.6884 24.9536 19.6899 24.9424 19.6928L25.0409 20.0805C25.0575 20.0762 25.0775 20.0707 25.0967 20.0636C25.106 20.0602 25.152 20.0442 25.19 20.0056L24.9049 19.7251ZM25.1916 19.8866V6.84173H24.7916V19.8866H25.1916ZM19.4559 24.5548C19.2715 24.9367 19.1075 25.3277 18.9717 25.7416L19.3518 25.8663C19.4811 25.4723 19.6379 25.0979 19.8161 24.7287L19.4559 24.5548ZM19.1618 25.6039H18.3367V26.0039H19.1618V25.6039ZM18.3367 25.6039V10.3283H17.9367V25.6039H18.3367ZM18.3367 10.3283H20.224V9.92835H18.3367V10.3283ZM20.224 10.3283V23.3094H20.624V10.3283H20.224ZM20.2445 23.2212C20.2426 23.225 20.2419 23.2264 20.2414 23.2274C20.241 23.2281 20.2414 23.2274 20.2423 23.2259C20.2445 23.2223 20.2483 23.217 20.2535 23.2117L20.5386 23.4922C20.5775 23.4527 20.5965 23.4119 20.6034 23.3977L20.2445 23.2212ZM20.2325 23.237C20.1257 23.3888 20.0285 23.5476 19.936 23.6887L20.2704 23.9081C20.3731 23.7516 20.4573 23.6128 20.5597 23.467L20.2325 23.237ZM19.931 23.6967C19.9114 23.7299 19.8917 23.7617 19.8706 23.7956C19.8498 23.829 19.8277 23.8646 19.8055 23.9023L20.1499 24.1056C20.1695 24.0725 20.1892 24.0407 20.2103 24.0068C20.2311 23.9734 20.2532 23.9378 20.2754 23.9001L19.931 23.6967ZM19.8048 23.9034C19.7121 24.0627 19.6269 24.2216 19.5434 24.3771L19.8959 24.5662C19.9798 24.4099 20.0619 24.257 20.1506 24.1045L19.8048 23.9034ZM19.5402 24.3834C19.5263 24.4117 19.5123 24.4401 19.4984 24.4684C19.4844 24.4967 19.4705 24.5251 19.4565 24.5534L19.8154 24.73C19.8294 24.7017 19.8433 24.6733 19.8573 24.645C19.8712 24.6166 19.8852 24.5883 19.8991 24.5599L19.5402 24.3834ZM27.8508 36.6378C23.5501 36.6378 20.0522 33.0809 20.0522 28.7094H19.6522C19.6522 33.2955 23.3229 37.0378 27.8508 37.0378V36.6378ZM20.0522 28.7094C20.0522 27.9781 20.1608 27.2658 20.3451 26.5862L19.959 26.4815C19.7667 27.1909 19.6522 27.9384 19.6522 28.7094H20.0522ZM20.3448 26.5872C20.4059 26.3662 20.4741 26.1581 20.55 25.9407L20.1724 25.8089C20.0949 26.0308 20.0236 26.2479 19.9593 26.4805L20.3448 26.5872ZM20.5554 25.9226C20.5546 25.926 20.5536 25.9275 20.5595 25.9135C20.564 25.9027 20.5755 25.8764 20.5833 25.8446L20.1949 25.7491C20.1958 25.7456 20.1968 25.7441 20.1909 25.7581C20.1863 25.7689 20.1748 25.7953 20.167 25.827L20.5554 25.9226ZM20.5765 25.8668C20.6513 25.6663 20.732 25.4752 20.8253 25.2925L20.469 25.1107C20.367 25.3106 20.2803 25.5164 20.2017 25.7269L20.5765 25.8668ZM20.8332 25.2748C20.8367 25.2661 20.8416 25.2559 20.851 25.2367C20.859 25.2204 20.8715 25.1952 20.8821 25.1685L20.5099 25.022C20.5064 25.0307 20.5015 25.041 20.4921 25.0601C20.4841 25.0764 20.4716 25.1016 20.461 25.1283L20.8332 25.2748ZM20.8767 25.1809C20.9634 24.9979 21.0643 24.8199 21.168 24.6442L20.8236 24.4408C20.7181 24.6195 20.6098 24.81 20.5152 25.0096L20.8767 25.1809ZM21.168 24.6442C21.1785 24.6265 21.189 24.6088 21.1994 24.5911C21.2099 24.5733 21.2203 24.5556 21.2308 24.5379L20.8864 24.3345C20.8759 24.3523 20.8654 24.37 20.855 24.3877C20.8445 24.4054 20.8341 24.4231 20.8236 24.4408L21.168 24.6442ZM21.2278 24.5428C21.3374 24.3688 21.4539 24.1947 21.5774 24.0203L21.251 23.7891C21.1235 23.9691 21.0029 24.1493 20.8893 24.3296L21.2278 24.5428ZM21.5758 24.0225C22.3929 22.9016 23.4812 22.0036 24.7514 21.4445L24.5903 21.0784C23.2524 21.6673 22.1092 22.6118 21.2526 23.7869L21.5758 24.0225ZM24.7521 21.4442C24.9676 21.3483 25.1915 21.2655 25.4184 21.1886L25.2901 20.8098C25.0567 20.8888 24.8204 20.9761 24.5896 21.0787L24.7521 21.4442ZM25.4035 21.1931C25.4363 21.1847 25.4623 21.1728 25.4767 21.1661C25.4866 21.1614 25.4865 21.1614 25.4912 21.1592C25.4938 21.1581 25.4921 21.159 25.4882 21.1603L25.3598 20.7814C25.3454 20.7863 25.3333 20.7916 25.3252 20.7953C25.321 20.7972 25.3172 20.7991 25.3142 20.8004C25.3109 20.802 25.309 20.8029 25.3068 20.804C25.2985 20.8079 25.3001 20.8066 25.305 20.8054L25.4035 21.1931ZM25.4865 21.1609C25.7158 21.0855 25.9526 21.0235 26.1832 20.9753L26.1013 20.5838C25.8577 20.6347 25.6064 20.7004 25.3615 20.7809L25.4865 21.1609ZM26.2064 20.969C26.2271 20.962 26.2416 20.9571 26.2612 20.9521L26.1627 20.5644C26.1266 20.5736 26.0993 20.5829 26.0781 20.5901L26.2064 20.969ZM26.253 20.954C26.4822 20.9061 26.72 20.8714 26.954 20.8435L26.9065 20.4463C26.6663 20.475 26.416 20.5113 26.171 20.5625L26.253 20.954ZM26.9303 20.8449C26.9843 20.8449 27.0408 20.8308 27.0608 20.8267L26.9811 20.4347C26.9717 20.4366 26.9617 20.4387 26.9551 20.4401C26.9476 20.4417 26.9422 20.4428 26.9377 20.4436C26.9285 20.4452 26.9276 20.4449 26.9303 20.4449V20.8449ZM27.0417 20.8296C27.3067 20.802 27.5717 20.7882 27.8438 20.7882V20.3882C27.558 20.3882 27.2791 20.4027 27.0002 20.4318L27.0417 20.8296ZM27.8438 20.7882C28.9106 20.7882 29.9232 21.0091 30.8552 21.4031L31.0109 21.0347C30.0321 20.6208 28.9667 20.3882 27.8438 20.3882V20.7882ZM30.8425 21.3972L30.8982 21.4255L31.0794 21.0689L31.0237 21.0406L30.8425 21.3972ZM30.8982 21.4255C30.9373 21.4454 30.9923 21.4737 31.0502 21.4934L31.1785 21.1145C31.1528 21.1058 31.124 21.0916 31.0794 21.0689L30.8982 21.4255ZM31.0298 21.4852C31.284 21.6039 31.5279 21.7279 31.7634 21.8715L31.9716 21.53C31.719 21.376 31.4608 21.245 31.199 21.1227L31.0298 21.4852ZM31.7692 21.8749C31.8259 21.907 31.8788 21.9431 31.9416 21.983L32.156 21.6453C32.1073 21.6144 32.0346 21.5654 31.9658 21.5266L31.7692 21.8749ZM31.9425 21.9836C32.1726 22.128 32.4037 22.2937 32.6218 22.4669L32.8705 22.1536C32.6424 21.9725 32.3993 21.798 32.1551 21.6448L31.9425 21.9836ZM32.6036 22.4505C32.6277 22.475 32.6537 22.4933 32.6635 22.5004C32.6781 22.511 32.6765 22.5104 32.6733 22.5072L32.9585 22.2267C32.9344 22.2022 32.9083 22.1839 32.8985 22.1767C32.8839 22.1661 32.8856 22.1668 32.8887 22.17L32.6036 22.4505ZM32.6887 22.5213C33.1932 22.937 33.6559 23.4143 34.0499 23.9459L34.3713 23.7077C33.9564 23.1479 33.4707 22.6473 32.9431 22.2126L32.6887 22.5213ZM34.0505 23.9466C35.0436 25.2738 35.6354 26.9258 35.6354 28.7236H36.0354C36.0354 26.8364 35.4138 25.101 34.3707 23.7069L34.0505 23.9466ZM35.6354 28.7242C35.649 33.0877 32.1519 36.6378 27.8508 36.6378V37.0378C32.3781 37.0378 36.0497 33.3029 36.0354 28.723L35.6354 28.7242ZM18.3367 25.6039H17.9367C17.9367 25.8249 18.1158 26.0039 18.3367 26.0039V25.6039ZM25.1916 6.44173C24.9707 6.44173 24.7916 6.62082 24.7916 6.84173H25.1916V6.84173V6.44173ZM16.8 26.7661C16.8 26.9871 16.9791 27.1661 17.2 27.1661V26.7661H16.8ZM17.2 8.76614C16.9791 8.76614 16.8 8.94523 16.8 9.16614H17.2H17.2V8.76614ZM21.7676 9.16614C21.7676 8.94523 21.5886 8.76614 21.3676 8.76614V9.16614H21.7676ZM27.0789 6.84173H27.4789C27.4789 6.62082 27.2999 6.44173 27.0789 6.44173V6.84173ZM18.3367 10.3283V9.92835C18.1158 9.92835 17.9367 10.1074 17.9367 10.3283H18.3367ZM32.0536 2.9622C31.8326 2.9622 31.6536 3.14129 31.6536 3.36221H32.0536V3.3622V2.9622ZM28.6226 5.68661C28.6226 5.4657 28.4435 5.28661 28.2226 5.28661V5.68661V5.68661H28.6226ZM30.9099 1.8C30.689 1.8 30.5099 1.97909 30.5099 2.2H30.9099V1.8ZM20.224 10.3283H20.624C20.624 10.1074 20.4449 9.92835 20.224 9.92835V10.3283ZM33.9409 3.3622H34.3409C34.3409 3.14129 34.1618 2.9622 33.9409 2.9622V3.3622ZM24.055 5.28661C23.834 5.28661 23.655 5.4657 23.655 5.68661H24.055V5.28661ZM35.4775 2.2C35.4775 1.97909 35.2985 1.8 35.0775 1.8V2.2V2.2H35.4775Z" fill="#161616" mask="url(#path-4-outside-1_6873_23378)"/>
</svg>
