<svg width="40" height="40" viewBox="0 0 40 40" fill="none" xmlns="http://www.w3.org/2000/svg"><path d="M30.377 28.385c-.387-.475-1.116-.871-2.184-1.176a.203.203 0 0 1-.148-.194v-2.384c0-.144.15-.24.266-.155.265.19.45.466.55.83a.214.214 0 0 0 .23.16l1.418-.185a.193.193 0 0 0 .167-.232c-.143-.633-.413-1.147-.817-1.537-.411-.399-.956-.656-1.638-.767a.207.207 0 0 1-.175-.202V22.2a.2.2 0 0 0-.2-.2h-.635a.2.2 0 0 0-.2.2v.338a.208.208 0 0 1-.18.203c-.739.106-1.337.415-1.79.915-.495.54-.743 1.209-.743 2 0 .785.22 1.455.651 2.002.417.518 1.05.914 1.911 1.187a.204.204 0 0 1 .144.194v2.569c0 .149-.157.242-.275.151a2.287 2.287 0 0 1-.426-.437 2.36 2.36 0 0 1-.39-.824.21.21 0 0 0-.224-.157l-1.482.16a.195.195 0 0 0-.173.227c.157.858.478 1.524.95 2.012.481.488 1.09.79 1.837.91.1.017.176.102.176.203v.947c0 .11.09.2.2.2h.634a.2.2 0 0 0 .2-.2v-.988c0-.099.073-.183.17-.2.848-.156 1.52-.514 2.013-1.081.524-.605.786-1.339.786-2.217 0-.785-.206-1.425-.623-1.93Zm-3.373-1.876c0 .145-.149.241-.27.164a1.498 1.498 0 0 1-.424-.39 1.214 1.214 0 0 1-.227-.713c0-.28.085-.54.248-.77.115-.155.252-.281.416-.378.12-.07.257.027.257.165v1.922Zm1.913 5.021a1.462 1.462 0 0 1-.64.444c-.117.04-.232-.055-.232-.18v-2.327c0-.134.13-.23.255-.181.3.12.522.27.674.452.191.238.283.518.283.842 0 .367-.113.684-.34.95Z" fill="#161616"/><path d="M2.9 16.2v10.6a.3.3 0 0 0 .3.3h4.6a.3.3 0 0 0 .3-.3V16.2a.3.3 0 0 0-.3-.3H3.2a.3.3 0 0 0-.3.3Zm3.656 9.541H4.452a.1.1 0 0 1-.1-.1V17.36a.1.1 0 0 1 .1-.1h2.104a.1.1 0 0 1 .1.1v8.282a.1.1 0 0 1-.1.1ZM9.9 13.2v13.6a.3.3 0 0 0 .3.3h4.6a.3.3 0 0 0 .3-.3V13.2a.3.3 0 0 0-.3-.3h-4.6a.3.3 0 0 0-.3.3Zm3.656 12.586h-2.104a.1.1 0 0 1-.1-.1V14.32a.1.1 0 0 1 .1-.1h2.104a.1.1 0 0 1 .1.1v11.365a.1.1 0 0 1-.1.1Z" fill="#161616" stroke="#161616" stroke-width=".2"/><mask id="a" maskUnits="userSpaceOnUse" x="16" y="1" width="22" height="38" fill="#000"><path fill="#fff" d="M16 1h22v38H16z"/><path d="M35.278 23.317V2.2a.2.2 0 0 0-.2-.2H30.91a.2.2 0 0 0-.2.2v17.694a9.032 9.032 0 0 0-2.287-.44V5.687a.2.2 0 0 0-.2-.2h-4.168a.2.2 0 0 0-.2.2v14.681a9.304 9.304 0 0 0-2.287 1.61V9.165a.2.2 0 0 0-.2-.2H17.2a.2.2 0 0 0-.2.2v17.6c0 .11.09.2.2.2h1.683a9.59 9.59 0 0 0-.168 1.743c0 5.124 4.1 9.291 9.143 9.291C32.9 38 37 33.833 37 28.71a9.384 9.384 0 0 0-1.722-5.393ZM31.854 3.362c0-.11.09-.2.2-.2h1.887c.11 0 .2.09.2.2v18.615c-.063-.064-.133-.12-.195-.177a11.06 11.06 0 0 0-.433-.376 6.175 6.175 0 0 0-.767-.545c-.132-.085-.265-.17-.404-.248a4.212 4.212 0 0 0-.307-.163 1.217 1.217 0 0 0-.181-.107V3.362Zm-6.862 3.48c0-.11.09-.2.2-.2h1.887c.11 0 .2.09.2.2v12.591c-.084.007-.174.014-.258.028-.063.008-.119.008-.181.015-.265.028-.523.07-.781.12l-.175.043a6.53 6.53 0 0 0-.613.163c-.077.02-.147.042-.224.063a.154.154 0 0 1-.055.022V6.842Zm-5.356 17.8a9.41 9.41 0 0 0-.474 1.162h-.825a.2.2 0 0 1-.2-.2V10.328c0-.11.09-.2.2-.2h1.887c.11 0 .2.09.2.2V23.31a.15.15 0 0 1-.028.043c-.105.149-.195.298-.293.446-.042.071-.084.135-.125.206-.091.156-.175.312-.258.468l-.084.17Zm8.215 12.196c-4.415 0-7.999-3.65-7.999-8.129 0-.75.112-1.48.3-2.175.063-.227.133-.44.21-.66.006-.027.02-.049.027-.077.077-.206.16-.404.258-.595.014-.036.035-.071.049-.107.09-.191.195-.375.3-.552.02-.036.042-.071.063-.107a8.062 8.062 0 0 1 3.612-3.175 8 8 0 0 1 .683-.262c.028-.007.05-.021.07-.028.237-.078.481-.142.718-.192a.865.865 0 0 1 .07-.02c.237-.05.481-.086.718-.114.028 0 .056-.007.09-.014a7.914 7.914 0 0 1 3.913.588l.056.028c.042.021.084.043.125.057.258.12.51.248.753.397.063.035.126.078.182.113.237.149.474.32.697.496.021.021.049.036.07.057.516.425.99.914 1.395 1.46a8.143 8.143 0 0 1 1.624 4.897c.014 4.471-3.57 8.114-7.984 8.114Z"/></mask><path d="M35.278 23.317V2.2a.2.2 0 0 0-.2-.2H30.91a.2.2 0 0 0-.2.2v17.694a9.032 9.032 0 0 0-2.287-.44V5.687a.2.2 0 0 0-.2-.2h-4.168a.2.2 0 0 0-.2.2v14.681a9.304 9.304 0 0 0-2.287 1.61V9.165a.2.2 0 0 0-.2-.2H17.2a.2.2 0 0 0-.2.2v17.6c0 .11.09.2.2.2h1.683a9.59 9.59 0 0 0-.168 1.743c0 5.124 4.1 9.291 9.143 9.291C32.9 38 37 33.833 37 28.71a9.384 9.384 0 0 0-1.722-5.393ZM31.854 3.362c0-.11.09-.2.2-.2h1.887c.11 0 .2.09.2.2v18.615c-.063-.064-.133-.12-.195-.177a11.06 11.06 0 0 0-.433-.376 6.175 6.175 0 0 0-.767-.545c-.132-.085-.265-.17-.404-.248a4.212 4.212 0 0 0-.307-.163 1.217 1.217 0 0 0-.181-.107V3.362Zm-6.862 3.48c0-.11.09-.2.2-.2h1.887c.11 0 .2.09.2.2v12.591c-.084.007-.174.014-.258.028-.063.008-.119.008-.181.015-.265.028-.523.07-.781.12l-.175.043a6.53 6.53 0 0 0-.613.163c-.077.02-.147.042-.224.063a.154.154 0 0 1-.055.022V6.842Zm-5.356 17.8a9.41 9.41 0 0 0-.474 1.162h-.825a.2.2 0 0 1-.2-.2V10.328c0-.11.09-.2.2-.2h1.887c.11 0 .2.09.2.2V23.31a.15.15 0 0 1-.028.043c-.105.149-.195.298-.293.446-.042.071-.084.135-.125.206-.091.156-.175.312-.258.468l-.084.17Zm8.215 12.196c-4.415 0-7.999-3.65-7.999-8.129 0-.75.112-1.48.3-2.175.063-.227.133-.44.21-.66.006-.027.02-.049.027-.077.077-.206.16-.404.258-.595.014-.036.035-.071.049-.107.09-.191.195-.375.3-.552.02-.036.042-.071.063-.107a8.062 8.062 0 0 1 3.612-3.175 8 8 0 0 1 .683-.262c.028-.007.05-.021.07-.028.237-.078.481-.142.718-.192a.865.865 0 0 1 .07-.02c.237-.05.481-.086.718-.114.028 0 .056-.007.09-.014a7.914 7.914 0 0 1 3.913.588l.056.028c.042.021.084.043.125.057.258.12.51.248.753.397.063.035.126.078.182.113.237.149.474.32.697.496.021.021.049.036.07.057.516.425.99.914 1.395 1.46a8.143 8.143 0 0 1 1.624 4.897c.014 4.471-3.57 8.114-7.984 8.114Z" fill="#161616"/><path d="M35.278 23.317h-.2v.063l.036.052.164-.115Zm-4.568-3.423-.063.19.263.087v-.277h-.2Zm-2.287-.44h-.2v.188l.187.012.013-.2Zm-4.568.915.089.179.111-.055v-.124h-.2Zm-2.287 1.608h-.2v.467l.338-.322-.138-.145Zm-2.685 4.99.197.035.043-.236h-.24v.2ZM37 28.708h.2-.2Zm-2.86-6.732-.142.14.343.349v-.489h-.2Zm-.194-.177-.135.148.135-.148Zm-.433-.376-.128.154h.001l.127-.154Zm-.48-.361-.116.164.003.002.112-.166Zm-.287-.184-.108.168.008.005.1-.173Zm-.404-.248-.1.173.002.001.098-.174Zm-.307-.163-.112.165.012.009.014.006.086-.18Zm-.181-.107h-.2v.13l.117.053.083-.183Zm-4.575-.928.017.2.183-.016v-.184h-.2Zm-.258.028.022.2.011-.002-.033-.198Zm-.181.015.02.198h.002l-.022-.198Zm-.781.12-.038-.197-.012.003.05.194Zm-.175.043.041.195h.003l-.044-.195Zm-.613.163.053.192.007-.002-.06-.19Zm-.224.063-.053-.192-.052.014-.037.038.142.14Zm-.055.022h-.2v.257l.249-.063-.05-.194Zm-5.356 4.755-.18-.089v.002l.18.087Zm-.474 1.162v.2h.145l.045-.138-.19-.062Zm1.262-2.495.18.089.02-.042v-.047h-.2Zm-.028.043-.143-.14-.011.012-.01.013.164.115Zm-.293.446-.167-.11-.005.009.172.101Zm-.125.206-.173-.102v.001l.173.1Zm-.258.468-.177-.095-.003.006.18.089Zm.432 2.062-.193-.053.193.053Zm.21-.66.188.067.003-.01.002-.008-.194-.048Zm.027-.077-.187-.07-.004.01-.003.012.194.048Zm.258-.595.178.09.005-.008.003-.01-.186-.072Zm.049-.107-.181-.086-.005.013.186.073Zm.3-.552-.172-.102.172.102Zm.063-.107-.17-.106-.003.005.173.101Zm.355-.531-.161-.118-.002.002.163.116Zm3.257-2.644.08.184h.001l-.081-.184Zm.683-.262-.049-.194-.008.002-.007.003.064.19Zm.07-.028-.063-.19h-.001l.064.19Zm.718-.192.041.196.012-.002.011-.004-.064-.19Zm.07-.02-.041-.197-.008.002.049.194Zm.718-.114v-.2h-.012l-.011.001.023.199Zm.09-.014-.02-.2-.01.002-.009.002.04.196Zm3.913.588.09-.179-.012-.005-.078.184Zm.056.028.09-.178-.09.178Zm.125.057.085-.181-.01-.005-.01-.003-.065.189Zm.753.397-.104.17.006.004.099-.174Zm.182.113-.107.169.107-.169Zm.697.496.143-.14-.009-.009-.01-.007-.124.156Zm.07.057-.143.14.008.008.008.006.127-.154Zm1.395 1.46-.161.119.16-.12Zm1.624 4.897h-.2.2Zm-.358-5.407V2.2h-.4v21.117h.4Zm-.4-21.517H30.91v.4h4.168v-.4Zm-4.567.4v17.694h.4V2.2h-.4Zm.263 17.504a9.233 9.233 0 0 0-2.338-.45l-.025.4a8.832 8.832 0 0 1 2.237.43l.126-.38Zm-2.15-.25V5.687h-.4v13.767h.4Zm-.4-14.167h-4.168v.4h4.168v-.4Zm-4.568.4v14.681h.4V5.688h-.4Zm.111 14.502a9.506 9.506 0 0 0-2.336 1.643l.276.29a9.106 9.106 0 0 1 2.238-1.574l-.178-.359Zm-1.998 1.788V9.167h-.4v12.81h.4Zm-.4-13.21H17.2v.4h4.168v-.4Zm-4.568.4v17.6h.4v-17.6h-.4Zm.4 18h1.683v-.4H17.2v.4Zm1.486-.237a9.782 9.782 0 0 0-.17 1.78h.4c0-.582.06-1.15.163-1.708l-.393-.072Zm-.17 1.78c0 5.23 4.186 9.49 9.342 9.49v-.4c-4.929 0-8.942-4.074-8.942-9.09h-.4Zm9.342 9.49c5.155 0 9.342-4.26 9.342-9.49h-.4c0 5.016-4.014 9.09-8.942 9.09v.4Zm9.342-9.491a9.585 9.585 0 0 0-1.759-5.508l-.327.23a9.185 9.185 0 0 1 1.686 5.28l.4-.002ZM32.054 3.362h1.887v-.4h-1.887v.4Zm1.887 0v18.615h.4V3.362h-.4Zm.342 18.475c-.067-.069-.151-.139-.203-.185l-.268.296c.073.067.129.11.186.17l.285-.281Zm-.202-.185c-.142-.13-.291-.26-.44-.382l-.255.309c.144.118.287.243.425.369l.27-.296Zm-.44-.381a6.324 6.324 0 0 0-.497-.374l-.224.332c.162.11.317.226.465.35l.256-.308Zm-.494-.372a4.182 4.182 0 0 0-.3-.193l-.201.346c.091.053.184.113.271.175l.23-.328Zm-.293-.189c-.132-.084-.27-.172-.415-.254l-.195.35c.133.074.26.155.394.241l.216-.337Zm-.412-.252c-.1-.059-.21-.118-.321-.171l-.172.361c.098.047.198.1.292.156l.201-.346Zm-.295-.156a1.403 1.403 0 0 0-.211-.123l-.165.365c.047.02.09.048.152.09l.224-.332Zm-.093.06v-17h-.4v17h.4Zm-6.862-13.52h1.887v-.4h-1.887v.4Zm1.887 0v12.591h.4V6.842h-.4Zm.183 12.392c-.08.007-.18.014-.274.03l.066.395c.074-.013.155-.02.242-.027l-.034-.398Zm-.264.029-.08.006c-.029.002-.063.004-.1.008l.044.397.08-.006c.03-.002.064-.004.101-.008L27 19.263Zm-.18.014c-.272.029-.536.072-.797.123l.075.393c.255-.05.507-.091.765-.119l-.043-.397Zm-.809.125c-.056.014-.109.028-.169.041l.088.39c.066-.014.124-.029.18-.043l-.099-.388Zm-.166.04c-.21.045-.425.104-.633.169l.12.381c.198-.062.4-.117.595-.158l-.082-.391Zm-.626.167c-.04.01-.077.022-.114.032l-.109.032.107.385c.04-.01.077-.022.114-.032l.109-.032-.107-.385Zm-.312.116a.176.176 0 0 1 .053-.037l-.016.005.099.387a.588.588 0 0 0 .056-.016c.009-.004.055-.02.093-.058l-.285-.28Zm.287.162V6.842h-.4v13.045h.4Zm-5.736 4.668a9.603 9.603 0 0 0-.484 1.187l.38.124a9.22 9.22 0 0 1 .464-1.137l-.36-.174Zm-.294 1.049h-.825v.4h.825v-.4Zm-.825 0V10.328h-.4v15.276h.4Zm0-15.276h1.887v-.4h-1.887v.4Zm1.887 0V23.31h.4V10.33h-.4Zm.02 12.893-.003.006.001-.001a.082.082 0 0 1 .011-.014l.286.28c.038-.04.057-.08.064-.094l-.359-.177Zm-.011.016c-.107.152-.204.31-.297.452l.334.22c.103-.157.187-.296.29-.442l-.327-.23Zm-.302.46a4.89 4.89 0 0 1-.06.099l-.066.106.345.204.06-.1c.021-.033.043-.068.065-.106l-.344-.203Zm-.126.206c-.093.16-.178.319-.262.474l.353.19c.084-.157.166-.31.255-.462l-.346-.202Zm-.265.48-.042.085c-.014.029-.027.057-.042.085l.36.177.041-.085.042-.085-.359-.177Zm8.31 12.255c-4.3 0-7.798-3.557-7.798-7.929h-.4c0 4.586 3.67 8.329 8.199 8.329v-.4Zm-7.798-7.929c0-.73.109-1.443.293-2.123l-.386-.104a8.512 8.512 0 0 0-.307 2.227h.4Zm.293-2.122c.06-.22.13-.429.205-.646l-.378-.132c-.077.222-.148.439-.213.671l.386.107Zm.21-.664c0 .003-.001.005.005-.01.004-.01.016-.037.023-.068l-.388-.096c0-.003.002-.005-.004.01-.005.01-.016.036-.024.068l.388.096Zm.021-.056c.075-.2.156-.392.25-.575l-.357-.181a5.86 5.86 0 0 0-.267.616l.374.14Zm.257-.592a.624.624 0 0 1 .018-.038l.031-.068-.372-.147a.597.597 0 0 1-.018.038l-.031.068.372.147Zm.044-.094a6.75 6.75 0 0 1 .291-.537l-.344-.203c-.106.178-.214.369-.309.569l.362.17Zm.291-.537.031-.053.032-.053-.345-.204-.031.054-.031.053.344.203Zm.06-.101c.11-.174.226-.348.35-.523l-.327-.23c-.128.18-.248.36-.362.54l.339.213Zm.348-.52a7.862 7.862 0 0 1 3.175-2.578l-.16-.367a8.262 8.262 0 0 0-3.338 2.709l.323.236Zm3.176-2.579c.216-.096.44-.178.666-.255l-.128-.38c-.233.08-.47.167-.7.27l.162.365Zm.652-.25a.414.414 0 0 0 .073-.028l.014-.007-.003.001-.128-.379a.37.37 0 0 0-.035.014l-.01.005-.008.004-.002.001.099.388Zm.082-.033c.23-.076.467-.138.697-.186l-.082-.391c-.243.05-.495.116-.74.197l.125.38Zm.72-.192a.69.69 0 0 1 .055-.017l-.098-.388-.085.026.128.379Zm.047-.015c.23-.048.467-.083.701-.11l-.047-.398a8.61 8.61 0 0 0-.736.116l.082.392Zm.677-.11c.054 0 .11-.013.13-.017l-.079-.392a2.925 2.925 0 0 0-.043.009h-.008v.4Zm.112-.014c.265-.028.53-.042.802-.042v-.4a8.09 8.09 0 0 0-.844.044l.042.398Zm.802-.042a7.7 7.7 0 0 1 3.011.615l.156-.368a8.098 8.098 0 0 0-3.167-.647v.4Zm2.998.61.056.027.181-.356-.055-.028-.181.356Zm.056.027c.04.02.094.049.152.068l.128-.378a.804.804 0 0 1-.099-.046l-.18.357Zm.132.06c.254.119.498.243.733.387l.209-.342a7.87 7.87 0 0 0-.773-.407l-.17.362Zm.74.39c.056.032.109.068.172.108l.214-.338c-.049-.03-.121-.08-.19-.118l-.197.348Zm.172.109c.23.144.462.31.68.483l.248-.313a8.017 8.017 0 0 0-.715-.51l-.213.34Zm.662.466c.024.025.05.043.06.05.014.011.012.01.01.007l.285-.28c-.025-.025-.05-.043-.06-.05l-.01-.007-.285.28Zm.085.071a8.12 8.12 0 0 1 1.36 1.425l.322-.238c-.415-.56-.9-1.06-1.428-1.495l-.254.308Zm1.361 1.426a7.943 7.943 0 0 1 1.585 4.777h.4a8.343 8.343 0 0 0-1.664-5.017l-.32.24Zm1.585 4.777c.014 4.364-3.483 7.914-7.784 7.914v.4c4.527 0 8.199-3.735 8.184-8.315l-.4.001Zm-17.298-3.12h-.4c0 .22.179.4.4.4v-.4Zm6.855-19.162a.4.4 0 0 0-.4.4h.4v-.4ZM16.8 26.766c0 .221.18.4.4.4v-.4h-.4Zm.4-18a.4.4 0 0 0-.4.4h.4v-.4Zm4.568.4a.4.4 0 0 0-.4-.4v.4h.4Zm5.31-2.324h.4a.4.4 0 0 0-.4-.4v.4Zm-8.741 3.486v-.4a.4.4 0 0 0-.4.4h.4Zm13.717-7.366a.4.4 0 0 0-.4.4h.4v-.4Zm-3.431 2.725a.4.4 0 0 0-.4-.4v.4h.4ZM30.91 1.8a.4.4 0 0 0-.4.4h.4v-.4Zm-10.686 8.528h.4a.4.4 0 0 0-.4-.4v.4Zm13.717-6.966h.4a.4.4 0 0 0-.4-.4v.4Zm-9.886 1.925a.4.4 0 0 0-.4.4h.4v-.4ZM35.477 2.2a.4.4 0 0 0-.4-.4v.4h.4Z" fill="#161616" mask="url(#a)"/></svg>