<svg width="90" height="90" viewBox="0 0 90 90" fill="none" xmlns="http://www.w3.org/2000/svg"><circle opacity=".7" cx="45" cy="45" r="45" fill="#FFE603"/><path d="m56.788 54.289-6.76-13.208V30.875h.918a.938.938 0 0 0 0-1.875H39.053a.938.938 0 0 0 0 1.875h.92v10.206L33.211 54.29a4.578 4.578 0 0 0 .17 4.506A4.578 4.578 0 0 0 37.316 61h15.368a4.578 4.578 0 0 0 3.933-2.205 4.578 4.578 0 0 0 .17-4.506ZM41.745 41.735a.937.937 0 0 0 .102-.428V30.875h6.305v10.432c0 .149.035.295.103.428l2.609 5.096H39.136l2.608-5.096Zm10.94 17.39h-15.37c-.96 0-1.832-.49-2.333-1.309a2.725 2.725 0 0 1-.243-2.346c.04-.11 3.437-6.764 3.437-6.764h13.648s3.348 6.545 3.371 6.6c.142.326.217.67.226 1.015a2.725 2.725 0 0 1-.404 1.495 2.716 2.716 0 0 1-2.333 1.309Z" fill="#161616"/></svg>