<svg width="67" height="71" viewBox="0 0 67 71" fill="none" xmlns="http://www.w3.org/2000/svg"><g opacity=".5" fill-rule="evenodd" clip-rule="evenodd" fill="#171717"><path d="M5.192 65.885c0-.616-.477-.992-1.095-.992H2.441v1.974h1.656c.618 0 1.095-.375 1.095-.982ZM.875 71v-7.484H4.32c1.603 0 2.475 1.08 2.475 2.369 0 1.28-.884 2.359-2.475 2.359H2.444V71H.875ZM7.75 71v-5.457h1.402v.717c.387-.463 1.039-.848 1.702-.848v1.366a1.837 1.837 0 0 0-.386-.033c-.465 0-1.084.265-1.316.606V71H7.75M15.57 68.2c0-.826-.486-1.543-1.37-1.543-.873 0-1.36.717-1.36 1.543 0 .838.486 1.555 1.36 1.555.884 0 1.37-.717 1.37-1.555Zm-4.187 0c0-1.51 1.06-2.788 2.817-2.788 1.766 0 2.827 1.278 2.827 2.788 0 1.51-1.06 2.8-2.827 2.8-1.757 0-2.817-1.29-2.817-2.8ZM21.745 69.148v-1.884c-.231-.353-.74-.607-1.204-.607-.805 0-1.357.628-1.357 1.543 0 .926.552 1.555 1.357 1.555.465 0 .973-.254 1.204-.607ZM21.747 71v-.816c-.42.53-.994.816-1.646.816-1.336 0-2.363-1.014-2.363-2.8 0-1.73 1.006-2.788 2.363-2.788.63 0 1.226.263 1.646.814v-2.71h1.414V71h-1.414ZM28.16 71v-.805a2.54 2.54 0 0 1-1.878.805c-1.171 0-1.723-.64-1.723-1.676v-3.78h1.401v3.23c0 .738.388.98.984.98.541 0 .973-.297 1.215-.606v-3.605h1.403V71H28.16M30.617 68.2c0-1.63 1.192-2.788 2.827-2.788 1.094 0 1.757.473 2.11.959l-.917.859c-.254-.374-.64-.573-1.126-.573-.85 0-1.447.618-1.447 1.543 0 .926.596 1.554 1.447 1.554.486 0 .872-.22 1.126-.584l.917.86c-.353.485-1.016.97-2.11.97-1.635 0-2.827-1.157-2.827-2.8M36.758 69.534v-2.767h-.883v-1.224h.883v-1.455h1.403v1.456h1.082v1.224h-1.082v2.391c0 .342.176.595.486.595.21 0 .41-.077.486-.165l.299 1.07c-.21.187-.586.341-1.172.341-.982 0-1.502-.507-1.502-1.466M48.227 71v-3.23h-3.48V71H43.18v-7.484h1.568v2.887h3.48v-2.887h1.578V71h-1.579M54.826 71v-.805A2.536 2.536 0 0 1 52.95 71c-1.171 0-1.723-.64-1.723-1.676v-3.78h1.401v3.23c0 .738.388.98.984.98.541 0 .971-.297 1.214-.606v-3.605h1.404V71h-1.404M61.225 71v-3.351c0-.738-.386-.992-.983-.992-.552 0-.971.309-1.215.618V71h-1.402v-5.457h1.402v.684c.342-.396 1.005-.815 1.867-.815 1.181 0 1.745.66 1.745 1.697V71h-1.414M64.313 69.534v-2.767h-.883v-1.224h.883v-1.455h1.403v1.456h1.082v1.224h-1.082v2.391c0 .342.176.595.486.595.209 0 .408-.077.486-.165l.297 1.07c-.209.187-.585.341-1.17.341-.983 0-1.502-.507-1.502-1.466M37.522 32.284h-7.638v8.071h-5.392V13.452h13.03c5.212 0 9.436 4.215 9.436 9.416 0 5.2-4.224 9.416-9.436 9.416ZM33.927 0C19.039 0 6.969 12.045 6.969 26.903c0 14.858 12.07 26.903 26.958 26.903 14.889 0 26.96-12.045 26.96-26.903C60.886 12.045 48.815 0 33.926 0Z"/><path d="M37.632 19.352h-7.706v7.033h7.706c2.202 0 3.899-1.336 3.899-3.497 0-2.2-1.697-3.536-3.9-3.536"/></g></svg>