<svg width="90" height="90" viewBox="0 0 90 90" fill="none" xmlns="http://www.w3.org/2000/svg"><circle opacity=".5" cx="45" cy="45" r="45" fill="#FFE603"/><path d="M54.708 52.641c-.359-.434-1.052-.794-2.072-1.064v-2.489c.41.177.668.517.762 1.02l1.613-.207c-.114-.636-.366-1.147-.763-1.525-.396-.377-.932-.61-1.612-.692v-.63h-.92v.63c-.73.069-1.316.346-1.751.819-.44.472-.661 1.058-.661 1.75 0 .687.195 1.273.58 1.752.39.479.994.838 1.826 1.077v2.665a1.82 1.82 0 0 1-.624-.536 2.126 2.126 0 0 1-.384-.875l-1.663.176c.126.838.422 1.48.876 1.94.46.46 1.052.73 1.789.819v1.16h.92V57.24c.825-.12 1.473-.441 1.94-.97.466-.53.699-1.172.699-1.94 0-.687-.183-1.248-.555-1.689Zm-2.998-1.373a1.457 1.457 0 0 1-.617-.466 1.05 1.05 0 0 1-.202-.624c0-.245.076-.472.22-.674.152-.201.347-.346.599-.434v2.198Zm1.7 4.126c-.2.233-.46.384-.774.44v-2.481c.384.113.655.27.825.472.17.208.252.454.252.737 0 .322-.1.599-.302.832ZM29.965 41.384v9.808h4.126v-9.808h-4.126Zm3.1 8.775h-2.067v-7.742h2.066v7.742ZM36.156 38.291v12.901h4.126v-12.9h-4.126Zm3.1 11.875h-2.067V39.325h2.066v10.84Z" fill="#000"/><path d="M58.866 47.948V29H54.74v15.906a8.273 8.273 0 0 0-2.066-.391V32.099h-4.126v13.229a8.404 8.404 0 0 0-2.067 1.43V35.191h-4.126v16h1.701a8.392 8.392 0 0 0-.15 1.55c0 4.554 3.703 8.258 8.257 8.258 4.555 0 8.259-3.704 8.259-8.258a8.252 8.252 0 0 0-1.556-4.794Zm-3.093-17.915h2.066v16.724c-.057-.056-.12-.107-.176-.157a9.911 9.911 0 0 0-.391-.334 5.572 5.572 0 0 0-.693-.485 7.021 7.021 0 0 0-.365-.22c-.088-.05-.183-.101-.277-.145a1.101 1.101 0 0 0-.164-.095V30.033Zm-6.199 3.093h2.067v11.37c-.076.006-.158.013-.234.025-.056.007-.107.007-.163.013-.24.025-.473.063-.706.107l-.157.038a5.989 5.989 0 0 0-.555.145l-.201.056a.138.138 0 0 1-.05.02V33.125Zm-4.837 16a8.277 8.277 0 0 0-.429 1.033h-.926V36.225h2.066v11.717a.132.132 0 0 1-.025.038c-.094.132-.176.264-.264.396-.038.063-.076.12-.114.183-.082.139-.157.277-.233.416l-.075.151Zm7.42 10.84c-3.987 0-7.225-3.243-7.225-7.224a7.276 7.276 0 0 1 .46-2.52c.006-.025.019-.044.025-.07.07-.182.145-.358.233-.528.013-.032.032-.063.044-.095.082-.17.176-.334.27-.491l.058-.095a7.26 7.26 0 0 1 3.263-2.822c.201-.088.41-.163.617-.233.025-.006.044-.019.063-.025.214-.07.435-.126.649-.17a.793.793 0 0 1 .063-.019c.214-.044.434-.076.648-.1.026 0 .05-.007.082-.013a7.25 7.25 0 0 1 3.534.523l.05.025a6.943 6.943 0 0 1 .794.403c.057.031.114.07.164.1.214.133.428.284.63.441.019.02.044.032.063.05.466.379.895.813 1.26 1.299a7.162 7.162 0 0 1 1.468 4.352c.012 3.975-3.226 7.213-7.213 7.213Z" fill="#000"/></svg>