<svg width="40" height="40" viewBox="0 0 40 40" fill="none" xmlns="http://www.w3.org/2000/svg"><path d="M36.675 5.496H23.563c-.786 0-1.425.64-1.425 1.425v3.706c-1.69.329-2.85 1.86-2.85 3.491v2.424a.714.714 0 0 0 1.424 0v-2.424a2.147 2.147 0 0 1 1.426-2.013v20.47c0 .786.639 1.425 1.425 1.425h13.112c.786 0 1.425-.64 1.425-1.425V6.92c0-.786-.64-1.425-1.425-1.425Zm0 27.079H23.563V6.92h13.112v25.654ZM34.537 8.346H25.7a.713.713 0 0 0-.713.713v8.836c0 .394.32.713.713.713h8.836c.393 0 .712-.32.712-.713V9.06a.713.713 0 0 0-.712-.713Zm-.713 8.837h-7.41V9.772h7.41v7.41ZM20 15.003a.713.713 0 0 0-.713.712v9.663a2.147 2.147 0 0 1-1.425 2.013V6.921c0-.786-.64-1.425-1.425-1.425H3.325c-.786 0-1.425.64-1.425 1.425v25.654C1.9 33.36 2.54 34 3.325 34h13.112c.786 0 1.425-.64 1.425-1.425v-3.706a3.553 3.553 0 0 0 2.85-3.491v-9.663a.713.713 0 0 0-.712-.712Zm-3.563 17.572H3.325V6.92h13.112v20.594h-1.425a2.14 2.14 0 0 0-2.138-2.137H6.888a2.14 2.14 0 0 0-2.138 2.137v1.426a2.14 2.14 0 0 0 2.138 2.137h5.986a2.14 2.14 0 0 0 2.138-2.137h1.426v3.634h-.001Zm-2.85-3.634c0 .393-.32.712-.713.712H6.888a.713.713 0 0 1-.713-.712v-1.426c0-.393.32-.712.713-.712h5.986c.393 0 .712.32.712.712v1.426Z" fill="#161616"/><path fill-rule="evenodd" clip-rule="evenodd" d="M19.288 14.118c0-1.632 1.16-3.162 2.85-3.491V6.92c0-.786.64-1.425 1.425-1.425h13.112c.786 0 1.425.64 1.425 1.425v25.654c0 .786-.64 1.425-1.425 1.425H23.563c-.786 0-1.425-.64-1.425-1.425v-20.47a2.146 2.146 0 0 0-1.425 2.014v11.259a3.553 3.553 0 0 1-2.85 3.491v3.706c0 .786-.64 1.425-1.426 1.425H3.325C2.54 34 1.9 33.36 1.9 32.575V6.92c0-.786.64-1.425 1.425-1.425h13.112c.786 0 1.425.64 1.425 1.425v20.47a2.146 2.146 0 0 0 1.425-2.014V14.12Zm-1.226 12.966a1.945 1.945 0 0 0 1.026-1.707V14.12c0-1.67 1.15-3.242 2.85-3.653V6.92c0-.896.729-1.625 1.625-1.625h13.112c.896 0 1.625.729 1.625 1.625v25.654c0 .896-.729 1.625-1.625 1.625H23.563a1.627 1.627 0 0 1-1.625-1.625V12.412a1.945 1.945 0 0 0-1.025 1.707v11.259a3.756 3.756 0 0 1-2.85 3.653v3.544c0 .896-.73 1.625-1.626 1.625H3.325A1.627 1.627 0 0 1 1.7 32.575V6.92c0-.896.73-1.625 1.625-1.625h13.112c.896 0 1.625.729 1.625 1.625v20.163Zm5.701 5.29h12.713l-.001-25.253H23.763v25.254ZM36.675 6.922H23.563v25.654h13.112V6.92ZM25.701 8.146h8.836c.504 0 .913.41.913.913v8.836a.913.913 0 0 1-.913.913h-8.836a.913.913 0 0 1-.913-.913V9.06c0-.504.409-.913.913-.913Zm.913 8.837h7.01V9.972h-7.01v7.01ZM3.525 32.375h12.713V29.14h-1.034a2.34 2.34 0 0 1-2.33 2.137H6.888a2.34 2.34 0 0 1-2.337-2.337v-1.426a2.34 2.34 0 0 1 2.337-2.337h5.986a2.34 2.34 0 0 1 2.33 2.137h1.034V7.121H3.524v25.254ZM16.437 6.92H3.325v25.654h13.112l.001-3.634h-1.426a2.14 2.14 0 0 1-2.138 2.137H6.888a2.14 2.14 0 0 1-2.137-2.137v-1.426a2.14 2.14 0 0 1 2.137-2.137h5.986a2.14 2.14 0 0 1 2.138 2.137h1.426V6.921Zm-3.563 22.532c.283 0 .513-.23.513-.512v-1.426a.513.513 0 0 0-.513-.512H6.888a.513.513 0 0 0-.512.512v1.426c0 .282.23.512.512.512h5.986ZM25.701 8.346h8.836c.394 0 .713.32.713.713v8.836c0 .394-.32.713-.713.713h-8.836a.713.713 0 0 1-.713-.713V9.06c0-.393.32-.713.713-.713Zm8.124 8.837V9.772h-7.411v7.41h7.41Zm-20.95 12.47c.392 0 .712-.32.712-.712v-1.426a.713.713 0 0 0-.713-.712H6.888a.713.713 0 0 0-.712.712v1.426c0 .393.32.712.712.712h5.986Z" fill="#161616"/></svg>