<svg width="40" height="32" viewBox="0 0 40 32" fill="none" xmlns="http://www.w3.org/2000/svg"><path d="M38.425 0H23.937c-.868 0-1.575.706-1.575 1.575v4.094c-1.867.364-3.15 2.055-3.15 3.859v2.678a.789.789 0 0 0 1.575 0V9.527a2.373 2.373 0 0 1 1.575-2.226v22.62c0 .868.707 1.574 1.575 1.574h14.488c.869 0 1.575-.706 1.575-1.575V1.575C40 .706 39.294 0 38.425 0Zm0 29.921H23.937V1.575h14.488l.001 28.346ZM3.15 16.457c0-.435.352-.788.787-.788h4.882a.787.787 0 0 1 0 1.575H3.937a.787.787 0 0 1-.787-.787Zm0 3.15c0-.435.352-.788.787-.788h9.764a.787.787 0 0 1 0 1.575H3.937a.787.787 0 0 1-.787-.788Zm0-15.67c0-.435.352-.787.787-.787h9.764a.787.787 0 0 1 0 1.574H3.937a.787.787 0 0 1-.787-.787Zm33.7 12.913a.787.787 0 0 1-.787.788h-9.764a.787.787 0 0 1 0-1.575h9.764c.435 0 .787.353.787.787Zm0 3.15a.787.787 0 0 1-.787.787h-9.764a.787.787 0 0 1 0-1.574h9.764c.435 0 .787.352.787.787Zm-4.882 3.15a.787.787 0 0 1-.787.787H26.3a.787.787 0 0 1 0-1.575h4.882c.435 0 .787.353.787.788Zm4.095-20h-9.764a.787.787 0 0 0-.787.787v9.764c0 .435.352.787.787.787h9.764a.787.787 0 0 0 .787-.787V3.937a.787.787 0 0 0-.787-.787Zm-.787 9.763h-8.19V4.724h8.19v8.19ZM20 10.505a.788.788 0 0 0-.787.787v10.676a2.373 2.373 0 0 1-1.575 2.226V1.574C17.638.707 16.93 0 16.063 0H1.575C.706 0 0 .706 0 1.575V29.92c0 .869.706 1.575 1.575 1.575h14.488c.868 0 1.575-.706 1.575-1.575v-4.094a3.926 3.926 0 0 0 3.15-3.859V11.292a.788.788 0 0 0-.788-.787ZM16.063 29.92H1.575V1.575h14.488V24.33h-1.575a2.365 2.365 0 0 0-2.362-2.363H5.512a2.365 2.365 0 0 0-2.362 2.363v1.575a2.365 2.365 0 0 0 2.362 2.362h6.614a2.365 2.365 0 0 0 2.362-2.363h1.576v4.016h-.001Zm-3.15-4.015a.788.788 0 0 1-.787.787H5.512a.788.788 0 0 1-.788-.788v-1.574c0-.434.354-.788.788-.788h6.614c.434 0 .787.354.787.788v1.575Z" fill="#161616"/></svg>