<svg width="90" height="90" viewBox="0 0 90 90" fill="none" xmlns="http://www.w3.org/2000/svg"><circle opacity=".5" cx="45" cy="45" r="45" fill="#FFE603"/><path d="M52.5 60a7.5 7.5 0 1 0 0-15 7.5 7.5 0 0 0 0 15Z" stroke="#171717" stroke-width="3" stroke-linecap="round" stroke-linejoin="round"/><path d="M47.5 58.75V70l5-3.75 5 3.75V58.75" stroke="#171717" stroke-width="3" stroke-linecap="round" stroke-linejoin="round"/><path d="M40 62.5H27.5a5 5 0 0 1-5-5v-25c0-2.75 2.25-5 5-5h35a5 5 0 0 1 5 5v25a5 5 0 0 1-2.5 4.325M30 37.5h30M30 45h7.5M30 52.5h5" stroke="#171717" stroke-width="3" stroke-linecap="round" stroke-linejoin="round"/></svg>