<svg
  width="90"
  height="90"
  viewBox="0 0 90 90"
  fill="none"
  xmlns="http://www.w3.org/2000/svg"
>
  <circle
    opacity="0.5"
    cx="45"
    cy="45"
    r="45"
    fill="#FFE603"
  ></circle>
  <path
    d="M52.5 60C56.6421 60 60 56.6421 60 52.5C60 48.3579 56.6421 45 52.5 45C48.3579 45 45 48.3579 45 52.5C45 56.6421 48.3579 60 52.5 60Z"
    stroke="#171717"
    stroke-width="3"
    stroke-linecap="round"
    stroke-linejoin="round"
  ></path>
  <path
    d="M47.5 58.75V70L52.5 66.25L57.5 70V58.75"
    stroke="#171717"
    stroke-width="3"
    stroke-linecap="round"
    stroke-linejoin="round"
  ></path>
  <path
    d="M40 62.5H27.5C26.1739 62.5 24.9021 61.9732 23.9645 61.0355C23.0268 60.0979 22.5 58.8261 22.5 57.5V32.5C22.5 29.75 24.75 27.5 27.5 27.5H62.5C63.8261 27.5 65.0979 28.0268 66.0355 28.9645C66.9732 29.9021 67.5 31.1739 67.5 32.5V57.5C67.4991 58.3768 67.2676 59.238 66.8288 59.9971C66.3901 60.7562 65.7593 61.3866 65 61.825"
    stroke="#171717"
    stroke-width="3"
    stroke-linecap="round"
    stroke-linejoin="round"
  ></path>
  <path
    d="M30 37.5H60"
    stroke="#171717"
    stroke-width="3"
    stroke-linecap="round"
    stroke-linejoin="round"
  ></path>
  <path
    d="M30 45H37.5"
    stroke="#171717"
    stroke-width="3"
    stroke-linecap="round"
    stroke-linejoin="round"
  ></path>
  <path
    d="M30 52.5H35"
    stroke="#171717"
    stroke-width="3"
    stroke-linecap="round"
    stroke-linejoin="round"
  ></path>
</svg>
