<svg width="145" height="33" viewBox="0 0 145 33" fill="none" xmlns="http://www.w3.org/2000/svg"><path fill-rule="evenodd" clip-rule="evenodd" d="M51.004 20.988c0 2.382.006 4.764-.008 7.145-.002.303.101.424.37.523 1.382.507 2.805.831 4.268.939 1.03.075 2.065.07 3.078-.202 1.93-.516 3.063-1.841 3.586-3.728.762-2.754.831-5.554.375-8.367-.19-1.177-.587-2.281-1.383-3.193-1.161-1.33-2.69-1.793-4.371-1.816-1.922-.025-3.779.354-5.575 1.049-.255.098-.35.217-.348.505.014 2.382.008 4.764.008 7.145Zm4.185 12.016c-.457-.05-.915-.098-1.373-.149-2.394-.267-4.733-.771-6.997-1.625-.311-.117-.405-.278-.405-.612.01-10.057.008-20.114.008-30.17V0h4.572v10.36c.276-.1.491-.176.705-.255 2.247-.834 4.555-1.263 6.956-1.157 3.794.167 6.624 2.238 7.973 5.845.618 1.651.856 3.367.884 5.12.035 2.129-.12 4.236-.688 6.298-1.009 3.664-3.396 5.784-7.04 6.495-.556.108-1.124.15-1.687.228-.088.012-.173.046-.26.07H55.19Zm73.287-12.03c0 2.405.002 4.81-.003 7.216-.001.205.021.342.249.426 1.975.725 4.004 1.115 6.107.991 1.228-.072 2.376-.41 3.337-1.245.901-.784 1.391-1.821 1.678-2.954.666-2.625.74-5.287.334-7.958-.177-1.162-.543-2.27-1.295-3.2-1.159-1.43-2.733-1.934-4.481-1.96-1.933-.03-3.802.35-5.609 1.058-.246.096-.325.212-.324.48.012 2.382.007 4.764.007 7.146Zm4.198 12.03-1.373-.148c-2.394-.265-4.733-.77-6.996-1.623-.306-.115-.415-.267-.414-.61.01-10.068.008-20.136.008-30.204V.002h4.568v10.355c.315-.111.572-.2.828-.294 2.205-.81 4.472-1.223 6.823-1.114 3.868.179 6.691 2.273 8.033 5.964.74 2.036.899 4.154.836 6.296-.057 1.876-.267 3.731-.849 5.529-1.052 3.25-3.276 5.162-6.525 5.89-.676.152-1.374.206-2.062.308-.1.015-.199.045-.299.068h-2.578ZM4.598 15.595c.094.007.151.014.208.014 1.765 0 3.53.027 5.295-.014a11.081 11.081 0 0 0 2.201-.288c1.492-.342 2.598-1.17 3.007-2.752a9.07 9.07 0 0 0 .142-3.923c-.28-1.55-1.159-2.594-2.676-2.96a14.164 14.164 0 0 0-2.78-.392c-1.67-.062-3.343-.018-5.015-.017-.124 0-.247.01-.382.016v10.316ZM0 1.87c.15.01.3.027.449.027 3.378.002 6.756-.013 10.134.008 1.603.01 3.19.18 4.735.67 2.786.882 4.427 2.918 4.748 5.865.168 1.535.146 3.056-.17 4.567-.563 2.692-2.222 4.375-4.734 5.263-1.417.501-2.887.69-4.377.706-1.915.02-3.83.004-5.746.004H4.59v13.457H0V1.871Zm31.216 31.134c-.56-.074-1.122-.136-1.68-.224-1.328-.21-2.597-.606-3.75-1.327-1.794-1.121-2.71-2.792-2.917-4.886-.058-.597-.068-1.2-.069-1.8-.005-4.953-.003-9.905-.003-14.858v-.44h4.582v.46c0 4.446-.005 8.892.004 13.337.002 1.11.096 2.214.42 3.282.537 1.763 1.738 2.767 3.516 2.982 2.179.263 4.327.004 6.44-.59.3-.085.392-.23.391-.544-.01-6.155-.007-12.31-.007-18.466v-.466h4.58v.46c0 7.004-.002 14.008.008 21.012 0 .34-.09.484-.424.577-2.682.741-5.404 1.236-8.178 1.43-.09.007-.176.04-.265.061h-2.648m77.489 0c-.561-.074-1.122-.137-1.68-.223-1.307-.203-2.555-.592-3.694-1.287-1.816-1.108-2.758-2.775-2.974-4.885a16.377 16.377 0 0 1-.069-1.659c-.004-5.011-.002-10.023-.002-15.035v-.443h4.581v.452c0 4.528-.005 9.056.004 13.585.002 1.062.121 2.115.447 3.134.556 1.734 1.769 2.681 3.511 2.89 2.133.256 4.236-.01 6.309-.555.369-.097.505-.27.504-.681-.015-6.12-.01-12.241-.01-18.361v-.47h4.558c.007.132.021.257.021.381.001 7.052-.001 14.104.007 21.156.001.288-.083.41-.356.486-2.691.753-5.424 1.254-8.21 1.45-.101.008-.2.043-.299.065h-2.648m-12.855-.571h-4.253c-.801 0-1.603-.011-2.403.006-.265.006-.414-.068-.54-.316-1.859-3.663-3.729-7.32-5.597-10.978L75.4 6.16a.55.55 0 0 0-.215-.239V32.41h-4.008V1.92c.106-.006.218-.018.33-.019 2.09 0 4.18.003 6.27-.005.24-.001.365.072.48.296 4.441 8.694 8.89 17.385 13.34 26.076.047.09.1.177.219.252V1.93h4.036v30.504" fill="#6A6A6A"/></svg>