<svg width="69" height="61" viewBox="0 0 69 61" fill="none" xmlns="http://www.w3.org/2000/svg"><path d="M68.282 30.38c0-4.519-5.659-8.801-14.335-11.457C55.95 10.08 55.06 3.045 51.14.793c-.904-.529-1.96-.78-3.115-.78v3.101c.64 0 1.154.126 1.585.362C51.5 4.56 52.321 8.69 51.681 14a42.788 42.788 0 0 1-.709 4.088c-2.725-.668-5.7-1.182-8.829-1.516-1.877-2.572-3.823-4.908-5.784-6.952 4.533-4.212 8.787-6.52 11.68-6.52V0c-3.824 0-8.83 2.725-13.89 7.452C29.086 2.753 24.081.056 20.258.056v3.1c2.878 0 7.146 2.294 11.679 6.48a65.676 65.676 0 0 0-5.742 6.937c-3.143.334-6.118.848-8.843 1.53a41.926 41.926 0 0 1-.723-4.032c-.654-5.312.153-9.441 2.03-10.54.417-.25.959-.36 1.599-.36V.07c-1.168 0-2.225.25-3.143.778-3.907 2.253-4.783 9.274-2.766 18.089C5.7 21.607.07 25.875.07 30.38c0 4.518 5.66 8.8 14.335 11.456-2.002 8.843-1.112 15.879 2.809 18.13.903.53 1.96.78 3.128.78 3.824 0 8.829-2.726 13.89-7.453 5.06 4.7 10.066 7.397 13.89 7.397 1.168 0 2.224-.25 3.142-.779 3.907-2.252 4.783-9.273 2.767-18.089 8.62-2.655 14.251-6.937 14.251-11.442ZM50.18 21.106a62.604 62.604 0 0 1-1.877 5.492 65.818 65.818 0 0 0-1.822-3.337 75.35 75.35 0 0 0-2.002-3.253c1.974.291 3.88.653 5.7 1.098Zm-6.368 14.807a74.093 74.093 0 0 1-3.351 5.312c-2.072.18-4.171.278-6.285.278-2.1 0-4.199-.098-6.256-.264a76.605 76.605 0 0 1-3.365-5.284 72.423 72.423 0 0 1-2.892-5.534 72.522 72.522 0 0 1 2.878-5.547 74.034 74.034 0 0 1 3.35-5.311 72.362 72.362 0 0 1 6.285-.278c2.1 0 4.2.097 6.257.264a76.602 76.602 0 0 1 3.365 5.283 72.406 72.406 0 0 1 2.892 5.534 77.868 77.868 0 0 1-2.878 5.547Zm4.49-1.807a59.583 59.583 0 0 1 1.92 5.534 62.35 62.35 0 0 1-5.73 1.112 76.867 76.867 0 0 0 2.003-3.295 79.062 79.062 0 0 0 1.808-3.351ZM34.205 48.94a57.336 57.336 0 0 1-3.865-4.449c1.251.056 2.53.097 3.823.097 1.307 0 2.6-.027 3.866-.097a54.284 54.284 0 0 1-3.824 4.45Zm-10.344-8.19a62.682 62.682 0 0 1-5.7-1.097 62.647 62.647 0 0 1 1.876-5.492 65.818 65.818 0 0 0 1.822 3.337 92.016 92.016 0 0 0 2.002 3.253Zm10.275-28.933A57.336 57.336 0 0 1 38 16.268a86.092 86.092 0 0 0-3.824-.098c-1.307 0-2.6.028-3.865.097a54.284 54.284 0 0 1 3.824-4.449Zm-10.29 8.19a76.833 76.833 0 0 0-3.809 6.632 59.573 59.573 0 0 1-1.919-5.534 67.535 67.535 0 0 1 5.729-1.099ZM11.264 37.415c-4.922-2.1-8.106-4.852-8.106-7.035s3.184-4.95 8.106-7.036c1.196-.514 2.502-.973 3.851-1.404.793 2.725 1.835 5.562 3.128 8.467-1.279 2.893-2.308 5.715-3.086 8.426a42.22 42.22 0 0 1-3.893-1.418Zm7.48 19.868c-1.89-1.084-2.711-5.213-2.072-10.525.153-1.307.404-2.683.71-4.087 2.725.667 5.7 1.181 8.828 1.515 1.877 2.572 3.824 4.908 5.784 6.952-4.532 4.213-8.787 6.52-11.679 6.52-.625-.013-1.154-.138-1.57-.375Zm32.98-10.594c.653 5.311-.153 9.44-2.03 10.539-.417.25-.96.361-1.6.361-2.877 0-7.146-2.294-11.678-6.479a65.677 65.677 0 0 0 5.742-6.938c3.142-.333 6.118-.848 8.843-1.53.32 1.405.57 2.754.723 4.047Zm5.353-9.274c-1.196.514-2.503.973-3.852 1.404-.792-2.725-1.835-5.561-3.128-8.467 1.28-2.892 2.308-5.715 3.087-8.426 1.376.431 2.683.904 3.907 1.418 4.922 2.1 8.106 4.853 8.106 7.036-.014 2.183-3.198 4.95-8.12 7.035Z" fill="#6A6A6A"/><path d="M34.163 36.734a6.354 6.354 0 1 0 0-12.708 6.354 6.354 0 0 0 0 12.708Z" fill="#6A6A6A"/></svg>