<svg width="40" height="40" viewBox="0 0 40 40" fill="none" xmlns="http://www.w3.org/2000/svg"><path fill-rule="evenodd" clip-rule="evenodd" d="M3.664 13.534c0-6.14 4.977-11.118 11.118-11.118 5.18 0 9.534 3.542 10.768 8.338a1 1 0 1 0 1.937-.499C26.03 4.597 20.896.415 14.782.415 7.537.416 1.664 6.29 1.664 13.535a13.113 13.113 0 0 0 13.114 13.118h.007c.743 0 1.472-.062 2.182-.181a1 1 0 1 0-.33-1.973c-.282.048-.567.084-.855.11v-2.995a2.03 2.03 0 0 1 4.06-.034v2.453c0 .296.128.562.333.745.126.63.32 1.248.58 1.84l-7.531 6.506a4 4 0 1 0 5.653 5.653l6.506-7.531a9.004 9.004 0 0 0 11.904-11.758 1 1 0 0 0-1.311-.53.999.999 0 0 0-.318.213l-4.866 4.867-2.358-.471-.47-2.358 4.866-4.866a1 1 0 0 0-.317-1.628 9.003 9.003 0 0 0-11.177 3.566l-2.371-5.138a1.043 1.043 0 0 0-.024-.053L15.69 6.046a1 1 0 0 0-1.816 0l-3.258 7.059-.01.021-2.791 6.048a1 1 0 0 0-.092.42v2.529a11.096 11.096 0 0 1-4.06-8.59ZM14.782 8.85l1.7 3.683h-3.4l1.7-3.683Zm4.096 8.876-1.473-3.193h-5.246l-1.474 3.193a4.025 4.025 0 0 1 4.097 1.23 4.03 4.03 0 0 1 4.096-1.23Zm-9.155 3.886v1.824a11.047 11.047 0 0 0 4.059 1.17v-2.994a2.03 2.03 0 0 0-4.06 0Zm17.762-5.447a7.003 7.003 0 0 1 2.749-.057l-4.064 4.064a1 1 0 0 0-.273.903l.707 3.535a1 1 0 0 0 .785.785l3.535.707a1 1 0 0 0 .903-.274l4.064-4.063a7.003 7.003 0 0 1-10.255 7.377 1 1 0 0 0-1.262.21l-6.984 8.085a2 2 0 0 1-2.828-2.828l8.086-6.984a1 1 0 0 0 .212-1.257 7.003 7.003 0 0 1 4.625-10.203Z" fill="#161616"/></svg>