<svg width="42" height="45" viewBox="0 0 42 45" fill="none" xmlns="http://www.w3.org/2000/svg"><path d="M16 28c6.627 0 12-5.373 12-12S22.627 4 16 4 4 9.373 4 16s5.373 12 12 12Z" stroke="#161616" stroke-width="2" stroke-linecap="round" stroke-linejoin="round"/><path d="M22 26.395V22L16 9l-6 13v4.395" stroke="#161616" stroke-width="2" stroke-linecap="round" stroke-linejoin="round"/><path d="M16 24a3 3 0 0 1 6 0m-6 4v-4a3 3 0 0 0-6 0m2.77-8h6.461" stroke="#161616" stroke-width="2" stroke-linecap="round" stroke-linejoin="round"/><path d="m33.123 17.634-5.245 5.245.707 3.535 3.535.707 5.245-5.245h0a8.003 8.003 0 0 1-11.234 10.13v-.001l-7.01 8.116a3 3 0 0 1-4.243-4.242l8.116-7.01h0a8.003 8.003 0 0 1 10.129-11.236h0Z" fill="#FFF281" stroke="#161616" stroke-width="2" stroke-linecap="round" stroke-linejoin="round"/></svg>