<svg width="42" height="42" viewBox="0 0 42 42" fill="none" xmlns="http://www.w3.org/2000/svg"><path d="M42 21a1 1 0 1 0-2 0h2Zm-4.37 11.112-.832-.555.831.555Zm-8.976 7.366-.383-.923.383.923Zm-11.556 1.139-.195.98.195-.98Zm-10.24-5.474-.707.707.707-.707Zm-5.474-10.24-.98.195.98-.195Zm1.138-11.556-.923-.383.923.383ZM9.89 4.371l-.556-.831.556.831ZM21 2.001a1 1 0 1 0 0-2v2Zm19 19a19 19 0 0 1-3.202 10.556l1.663 1.11A21 21 0 0 0 42 21.002h-2Zm-3.202 10.556a19 19 0 0 1-8.527 6.998l.765 1.847a21 21 0 0 0 9.425-7.734l-1.663-1.111Zm-8.527 6.998a19 19 0 0 1-10.978 1.08l-.39 1.962a21 21 0 0 0 12.133-1.195l-.765-1.847Zm-10.978 1.08a19 19 0 0 1-9.728-5.2L6.151 35.85a21 21 0 0 0 10.752 5.747l.39-1.961Zm-9.728-5.2a19 19 0 0 1-5.2-9.727l-1.961.39A21 21 0 0 0 6.15 35.85l1.414-1.414Zm-5.2-9.727A19 19 0 0 1 3.446 13.73L1.6 12.964A21 21 0 0 0 .404 25.099l1.961-.39ZM3.446 13.73a19 19 0 0 1 6.998-8.527L9.333 3.54a21 21 0 0 0-7.734 9.425l1.847.765Zm6.998-8.527A19 19 0 0 1 21 2V0A21 21 0 0 0 9.333 3.54l1.111 1.663ZM34.73 21a1 1 0 1 0-2 0h2ZM18.52 33.484l-.195.981.195-.98ZM12.003 30l.707-.707-.707.707ZM8.52 23.484l.98-.196-.98.196Zm.724-7.354-.924-.383.924.383Zm4.688-5.712-.556-.831.556.831Zm7.07-1.145a1 1 0 0 0 0-2v2ZM32.73 21.001c0 2.319-.688 4.586-1.976 6.515l1.662 1.111a13.728 13.728 0 0 0 2.314-7.626h-2Zm-1.976 6.515a11.727 11.727 0 0 1-5.264 4.32l.766 1.847a13.727 13.727 0 0 0 6.16-5.056l-1.662-1.111Zm-5.264 4.32a11.725 11.725 0 0 1-6.775.666l-.39 1.962a13.72 13.72 0 0 0 7.93-.781l-.764-1.848Zm-6.775.666a11.727 11.727 0 0 1-6.005-3.209l-1.414 1.414a13.728 13.728 0 0 0 7.029 3.757l.39-1.962Zm-6.005-3.209a11.727 11.727 0 0 1-3.21-6.005l-1.96.39a13.727 13.727 0 0 0 3.756 7.03l1.414-1.415ZM9.5 23.288a11.727 11.727 0 0 1 .668-6.775l-1.848-.766a13.727 13.727 0 0 0-.78 7.932l1.96-.39Zm.668-6.775a11.727 11.727 0 0 1 4.32-5.263l-1.112-1.663a13.728 13.728 0 0 0-5.056 6.16l1.848.766Zm4.32-5.263a11.728 11.728 0 0 1 6.515-1.977v-2c-2.715 0-5.37.805-7.627 2.314l1.111 1.663Z" fill="#161616"/><circle cx="20.952" cy="21.001" r="3.03" fill="#161616"/><path d="M20 21.606a1 1 0 0 0 2 0h-2ZM22 1a1 1 0 1 0-2 0h2Zm0 20.606V1h-2v20.606h2Z" fill="#161616"/></svg>