<svg width="40" height="40" viewBox="0 0 40 40" fill="none" xmlns="http://www.w3.org/2000/svg"><path fill-rule="evenodd" clip-rule="evenodd" d="M4 32.333A3.67 3.67 0 0 0 7.667 36H32.333A3.67 3.67 0 0 0 36 32.333V7.667A3.67 3.67 0 0 0 32.333 4H7.667A3.67 3.67 0 0 0 4 7.667V32.333ZM16 34h16.333c.919 0 1.667-.748 1.667-1.667V7.667C34 6.748 33.252 6 32.333 6H7.667A1.67 1.67 0 0 0 6 7.667V24h9a1 1 0 0 1 1 1v9ZM6 26h8v8H7.667A1.669 1.669 0 0 1 6 32.333V26Zm22.667-7a1 1 0 0 0 2 0v-8.609a.998.998 0 0 0-1.043-1.058H21a1 1 0 0 0 0 2h6.253l-9.626 9.626a1 1 0 1 0 1.415 1.414l9.625-9.624V19Z" fill="#161616"/></svg>