<svg width="40" height="40" viewBox="0 0 40 40" fill="none" xmlns="http://www.w3.org/2000/svg"><path fill-rule="evenodd" clip-rule="evenodd" d="M7.349 9.334A4.67 4.67 0 0 1 10.625 8h18.75a4.67 4.67 0 0 1 3.276 1.334A4.494 4.494 0 0 1 34 12.537v11.074c0 1.198-.483 2.35-1.349 3.203a4.67 4.67 0 0 1-3.276 1.334H12.5a1 1 0 0 0-.543.16L6 32.163V12.537c0-1.198.483-2.35 1.349-3.203ZM10.625 6a6.67 6.67 0 0 0-4.679 1.91A6.494 6.494 0 0 0 4 12.536V34a1 1 0 0 0 1.543.84l7.252-4.692h16.58a6.67 6.67 0 0 0 4.679-1.909A6.494 6.494 0 0 0 36 23.611V12.537a6.494 6.494 0 0 0-1.946-4.628A6.67 6.67 0 0 0 29.375 6h-18.75Zm10.28 5.575a1 1 0 0 0-1.81 0l-1.628 3.468-3.618.55a1 1 0 0 0-.564 1.688l2.651 2.714-.627 3.844a1 1 0 0 0 1.47 1.036l3.225-1.782 3.215 1.782a1 1 0 0 0 1.472-1.036l-.627-3.844 2.651-2.714a1 1 0 0 0-.564-1.687l-3.618-.551-1.628-3.468Zm-1.854 4.8.949-2.02.949 2.022a1 1 0 0 0 .755.563l2.219.338-1.642 1.682a1 1 0 0 0-.272.86l.376 2.307-1.896-1.05a1 1 0 0 0-.969-.001l-1.906 1.053.377-2.31a1 1 0 0 0-.271-.86l-1.643-1.68 2.22-.339a1 1 0 0 0 .754-.563Z" fill="#161616"/></svg>