<svg width="40" height="40" viewBox="0 0 40 40" fill="none" xmlns="http://www.w3.org/2000/svg"><path d="M26 13a1 1 0 1 0 0 2h3.665l-7.343 8.297-4.874-5.676a1 1 0 0 0-1.468-.054l-8.689 8.727a1 1 0 1 0 1.418 1.412l7.926-7.962 4.917 5.726a1 1 0 0 0 1.508.01L31 16.51V20a1 1 0 1 0 2 0v-5a2 2 0 0 0-2-2h-5Z" fill="#161616"/><path fill-rule="evenodd" clip-rule="evenodd" d="M3 9a6 6 0 0 1 6-6h22a6 6 0 0 1 6 6v22a6 6 0 0 1-6 6H9a6 6 0 0 1-6-6V9Zm6-4h22a4 4 0 0 1 4 4v22a4 4 0 0 1-4 4H9a4 4 0 0 1-4-4V9a4 4 0 0 1 4-4Z" fill="#161616"/></svg>