<svg width="40" height="40" viewBox="0 0 40 40" fill="none" xmlns="http://www.w3.org/2000/svg"><path d="M15.587 29.136c-.82 2.459-2.782 4.268-5.675 5.233-1.31.433-2.675.673-4.053.71a.938.938 0 0 1-.938-.937 14.15 14.15 0 0 1 .711-4.053c.965-2.892 2.774-4.855 5.234-5.675a.937.937 0 1 1 .593 1.779c-3.48 1.16-4.363 5.063-4.587 6.933 1.871-.228 5.781-1.117 6.936-4.583a.937.937 0 1 1 1.78.593ZM31.27 17.128l-1.493 1.493v9.7a2.172 2.172 0 0 1-.64 1.547l-5.054 5.054a2.187 2.187 0 0 1-3.692-1.118l-1.254-6.27-6.67-6.67-6.27-1.254a2.187 2.187 0 0 1-1.117-3.692l5.053-5.053a2.17 2.17 0 0 1 1.547-.641h9.7l1.494-1.493c4.366-4.367 8.83-4.242 10.546-3.986a2.17 2.17 0 0 1 1.836 1.836c.257 1.716.38 6.18-3.986 10.547Zm-24.705.643 6.057 1.212 6.884-6.884H11.68a.31.31 0 0 0-.221.091l-5.054 5.054a.312.312 0 0 0 .16.527Zm21.337 2.725-6.883 6.883 1.211 6.057a.312.312 0 0 0 .527.16l5.054-5.054a.31.31 0 0 0 .091-.22v-7.826Zm2.043-4.694c1.253-1.254 4.1-4.635 3.457-8.944a.305.305 0 0 0-.258-.259c-4.31-.643-7.69 2.204-8.945 3.457l-1.767 1.768L14.255 20 20 25.745l8.176-8.175 1.768-1.768Z" fill="#161616"/></svg>