<svg width="90" height="90" viewBox="0 0 90 90" fill="none" xmlns="http://www.w3.org/2000/svg"><circle opacity=".5" cx="45" cy="45" r="45" fill="#FFE603"/><path d="M50.554 36.833c6.597 0 11.944-3.208 11.944-7.166S57.151 22.5 50.554 22.5s-11.945 3.209-11.945 7.167c0 3.958 5.348 7.166 11.945 7.166Z" stroke="#171717" stroke-width="3.5" stroke-linecap="round" stroke-linejoin="round"/><path d="M38.61 29.667v9.555c0 3.959 5.348 7.167 11.944 7.167 6.596 0 11.944-3.208 11.944-7.167v-9.555" stroke="#171717" stroke-width="3.5" stroke-linecap="round" stroke-linejoin="round"/><path d="M38.61 39.222v9.556c0 3.958 5.348 7.166 11.944 7.166 6.596 0 11.944-3.208 11.944-7.166v-9.556" stroke="#171717" stroke-width="3.5" stroke-linecap="round" stroke-linejoin="round"/><path d="M38.61 48.778v9.555c0 3.959 5.348 7.167 11.944 7.167 6.596 0 11.944-3.208 11.944-7.167v-9.555M29.056 36.833h-5.973a3.583 3.583 0 0 0 0 7.167h2.39a3.583 3.583 0 1 1 0 7.167H19.5M24.277 34.444v2.39m0 14.333v2.389-2.39Z" stroke="#171717" stroke-width="3.5" stroke-linecap="round" stroke-linejoin="round"/></svg>