<svg width="90" height="90" viewBox="0 0 90 90" fill="none" xmlns="http://www.w3.org/2000/svg"><circle opacity=".5" cx="45" cy="45" r="45" fill="#FFE603"/><path d="M56.562 60H33.438A3.44 3.44 0 0 1 30 56.562V33.438A3.44 3.44 0 0 1 33.438 30h23.124A3.44 3.44 0 0 1 60 33.438v23.124A3.44 3.44 0 0 1 56.562 60ZM33.438 31.875c-.862 0-1.563.701-1.563 1.563v23.124c0 .862.701 1.563 1.563 1.563h23.124c.862 0 1.563-.701 1.563-1.563V33.438c0-.862-.701-1.563-1.563-1.563H33.438Z" fill="#161616"/><path d="M54.063 45a.938.938 0 0 1-.938-.937v-7.188h-7.188a.938.938 0 0 1 0-1.875h8.126c.517 0 .937.42.937.938v8.125c0 .517-.42.937-.937.937Z" fill="#161616"/><path d="M43.437 47.5a.938.938 0 0 1-.662-1.601L53.4 35.274a.938.938 0 0 1 1.326 1.326L44.101 47.225a.935.935 0 0 1-.664.275ZM40.313 60a.938.938 0 0 1-.938-.938v-8.437h-8.438a.938.938 0 0 1 0-1.875h9.375c.518 0 .938.42.938.938v9.374c0 .518-.42.938-.938.938Z" fill="#161616"/></svg>