<svg width="21" height="21" viewBox="0 0 21 21" fill="none" xmlns="http://www.w3.org/2000/svg">
<path fill-rule="evenodd" clip-rule="evenodd" d="M2.99823 8.94219C2.99823 12.7762 6.10635 15.8844 9.94041 15.8844C11.7643 15.8844 13.4239 15.181 14.6628 14.0307C14.7056 13.9568 14.7586 13.8872 14.8218 13.824C14.8851 13.7608 14.9547 13.7077 15.0286 13.665C16.1791 12.4261 16.8826 10.7663 16.8826 8.94219C16.8826 5.10812 13.7745 2 9.94041 2C6.10635 2 2.99823 5.10812 2.99823 8.94219ZM16.931 14.519C18.1524 12.9899 18.8826 11.0513 18.8826 8.94219C18.8826 4.00355 14.879 0 9.94041 0C5.00178 0 0.998226 4.00355 0.998226 8.94219C0.998226 13.8808 5.00178 17.8844 9.94041 17.8844C12.0493 17.8844 13.9878 17.1543 15.5167 15.9331L19.2929 19.7093C19.6834 20.0998 20.3166 20.0998 20.7071 19.7093C21.0976 19.3188 21.0976 18.6856 20.7071 18.2951L16.931 14.519Z" fill="#171717" />
  </svg>
