<svg width="40" height="40" viewBox="0 0 40 40" fill="none" xmlns="http://www.w3.org/2000/svg"><path d="M25.9 30.501c-.4.4-1 .4-1.4 0l-2.9-2.7c-.4-.4-.4-1 0-1.4.4-.4 1-.4 1.4 0l2.2 2.1 5.2-4.9c.4-.4 1-.4 1.4 0 .4.4.4 1 0 1.4l-5.9 5.5Z" fill="#161616"/><path fill-rule="evenodd" clip-rule="evenodd" d="M34.7 17.8c.5 0 1 .2 1.3.5.3.4.5.8.5 1.1v5.8c0 4.5-2 7.5-4.1 9.4-2.002 1.812-4.186 2.624-5.078 2.956-.044.016-.085.03-.122.045-.3.1-.7.1-1.1 0-.8-.2-3.1-1.1-5.2-3-1.6-1.4-3.1-3.5-3.7-6.3-.5.1-1.1.1-1.7.1-3.1 0-6-.6-8.2-1.8-2.2-1.1-3.8-2.8-3.8-5V9.8c0-2.2 1.6-3.9 3.8-5C9.4 3.6 12.4 3 15.5 3c3.1 0 6 .6 8.2 1.8 2.2 1.1 3.8 2.8 3.8 5v5.9c0 .7-.2 1.4-.6 2.1h7.8ZM15.5 4.9c-2.9 0-5.5.6-7.3 1.6-1.9 1-2.7 2.201-2.7 3.301s.8 2.3 2.7 3.3c1.8 1 4.4 1.6 7.3 1.6 2.9 0 5.5-.6 7.3-1.6 1.9-1 2.7-2.2 2.7-3.3 0-1.1-.8-2.3-2.7-3.3-1.8-1-4.4-1.6-7.3-1.6Zm-7.3 20c1.8 1 4.4 1.6 7.3 1.6.264 0 .528-.027.777-.053.223-.024.434-.046.623-.046v-3.9c-.5.1-.9.1-1.4.1-3.1 0-6-.6-8.2-1.8-.654-.28-1.22-.735-1.7-1.12l-.1-.08v2c0 1.1.8 2.3 2.7 3.3Zm8.7-5.3c0-.5.2-1 .5-1.3.4-.3.8-.5 1.3-.5h5.7c.8-.7 1.1-1.4 1.1-2.1v-2c-.6.5-1.2.9-1.8 1.2-2.1 1.1-5.1 1.8-8.2 1.8-3.1 0-6-.6-8.2-1.8-.654-.28-1.22-.734-1.7-1.119l-.1-.08v2c0 1.1.8 2.3 2.7 3.3 1.8 1 4.4 1.6 7.3 1.6.25 0 .475-.025.7-.05.225-.025.45-.05.7-.05v-.9Zm14.2 13.7c1.8-1.6 3.4-4.1 3.4-7.9v-5.5H18.9v5.5c0 3.8 1.6 6.3 3.4 7.9 1.8 1.6 3.7 2.4 4.4 2.6l.23-.095c.829-.344 2.54-1.055 4.17-2.504Z" fill="#161616"/></svg>