<svg
  width="90"
  height="90"
  viewBox="0 0 90 90"
  fill="none"
  xmlns="http://www.w3.org/2000/svg"
>
  <circle
    opacity="0.5"
    cx="45"
    cy="45"
    r="45"
    fill="#FFE603"
  ></circle>
  <path
    d="M44.9999 29.0625C42.2209 29.0632 39.4904 29.7905 37.0791 31.172C34.6678 32.5535 32.6595 34.5414 31.2535 36.9385C29.8474 39.3356 29.0924 42.0586 29.0634 44.8374C29.0343 47.6163 29.7322 50.3545 31.0877 52.7805L29.7166 57.5789C29.6094 57.954 29.6045 58.351 29.7023 58.7287C29.8001 59.1064 29.9972 59.451 30.2731 59.7269C30.5489 60.0028 30.8936 60.1999 31.2712 60.2977C31.6489 60.3956 32.0459 60.3906 32.421 60.2834L37.2196 58.9123C39.3453 60.101 41.7152 60.7868 44.1472 60.9169C46.5792 61.0471 49.0088 60.6181 51.2492 59.663C53.4896 58.7079 55.4813 57.2521 57.0715 55.4073C58.6616 53.5626 59.8078 51.3779 60.4221 49.0211C61.0364 46.6644 61.1024 44.1982 60.6151 41.8119C60.1278 39.4257 59.1001 37.1828 57.6109 35.2556C56.1218 33.3284 54.2107 31.7682 52.0246 30.6946C49.8385 29.621 47.4354 29.0627 44.9999 29.0625ZM44.9999 59.0625C42.4744 59.0642 39.9952 58.3848 37.8234 57.0958C37.7135 57.0305 37.5915 56.9884 37.4648 56.9719C37.3381 56.9555 37.2094 56.9651 37.0865 57.0002L31.9059 58.4803C31.8523 58.4956 31.7956 58.4964 31.7417 58.4824C31.6878 58.4684 31.6385 58.4403 31.5991 58.4009C31.5597 58.3615 31.5316 58.3123 31.5176 58.2584C31.5036 58.2045 31.5043 58.1478 31.5196 58.0942L32.9996 52.9134C33.0347 52.7906 33.0443 52.6619 33.0279 52.5353C33.0114 52.4086 32.9693 52.2867 32.904 52.1769C31.3201 49.5083 30.6632 46.3909 31.0357 43.3101C31.4082 40.2293 32.7891 37.3582 34.9634 35.1441C37.1377 32.93 39.9832 31.4971 43.0567 31.0687C46.1302 30.6403 49.2591 31.2405 51.9559 32.7757C54.6528 34.3109 56.7662 36.6949 57.9669 39.5564C59.1677 42.4179 59.3883 45.5962 58.5945 48.5961C57.8006 51.5961 56.0369 54.2492 53.578 56.1423C51.1191 58.0354 48.1031 59.0621 44.9999 59.0625ZM53.0474 47.6261L49.8506 45.7991C49.5131 45.6067 49.1305 45.5074 48.742 45.5116C48.3536 45.5158 47.9732 45.6232 47.6399 45.8228L45.6329 47.027C44.5059 46.4187 43.5813 45.4941 42.9731 44.367L44.1773 42.36C44.3769 42.0267 44.4843 41.6463 44.4885 41.2579C44.4926 40.8694 44.3933 40.4868 44.2007 40.1494L42.374 36.9525C42.1975 36.6445 41.9428 36.3884 41.6357 36.2102C41.3286 36.032 40.98 35.9379 40.6249 35.9375C39.2194 35.9379 37.8713 36.4952 36.8756 37.4873C35.88 38.4793 35.3179 39.8254 35.3124 41.2309C35.3099 42.9972 35.6556 44.7466 36.3298 46.3791C37.0039 48.0116 37.9933 49.4952 39.2413 50.745C40.4894 51.9948 41.9715 52.9863 43.6031 53.6628C45.2346 54.3393 46.9835 54.6875 48.7498 54.6875H48.769C50.1745 54.682 51.5206 54.1199 52.5127 53.1243C53.5048 52.1286 54.062 50.7805 54.0624 49.375C54.062 49.02 53.968 48.6713 53.7898 48.3643C53.6115 48.0572 53.3555 47.8026 53.0474 47.6261ZM48.7663 52.8125H48.7499C47.2302 52.8125 45.7253 52.5129 44.3214 51.9308C42.9175 51.3487 41.6421 50.4956 40.5683 49.4202C39.4944 48.3448 38.643 47.0682 38.0629 45.6635C37.4828 44.2588 37.1853 42.7535 37.1874 41.2338C37.1915 40.3248 37.5555 39.4545 38.1997 38.8133C38.844 38.1721 39.716 37.8122 40.6249 37.8125C40.6495 37.8125 40.6737 37.819 40.6949 37.8314C40.7162 37.8437 40.7338 37.8615 40.746 37.8828L42.5727 41.0797C42.6002 41.1279 42.6144 41.1825 42.6139 41.2379C42.6133 41.2934 42.598 41.3477 42.5695 41.3953L41.1023 43.8406C41.0245 43.9703 40.9793 44.1168 40.9704 44.2677C40.9616 44.4186 40.9893 44.5695 41.0513 44.7073C41.8984 46.5926 43.4075 48.1016 45.2927 48.9486C45.4306 49.0106 45.5815 49.0384 45.7324 49.0295C45.8833 49.0206 46.0298 48.9753 46.1595 48.8975L48.6045 47.4306C48.6521 47.4022 48.7064 47.3868 48.7619 47.3862C48.8174 47.3856 48.8721 47.3997 48.9204 47.427L52.1173 49.2541C52.1386 49.2663 52.1563 49.2839 52.1686 49.3051C52.1809 49.3264 52.1874 49.3505 52.1874 49.375C52.1877 50.2839 51.8279 51.1559 51.1867 51.8002C50.5455 52.4444 49.6752 52.8084 48.7663 52.8125Z"
    fill="black"
  ></path>
</svg>
