<svg width="90" height="90" viewBox="0 0 90 90" fill="none" xmlns="http://www.w3.org/2000/svg"><circle opacity=".5" cx="45" cy="45" r="45" fill="#FFE603"/><path d="M45 29.063A15.942 15.942 0 0 0 31.088 52.78l-1.371 4.798a2.188 2.188 0 0 0 2.704 2.704l4.799-1.37A15.938 15.938 0 1 0 45 29.062Zm0 30a14.042 14.042 0 0 1-7.177-1.967.94.94 0 0 0-.736-.096l-5.181 1.48a.312.312 0 0 1-.386-.386l1.48-5.18a.938.938 0 0 0-.096-.737A14.064 14.064 0 1 1 45 59.063Zm8.047-11.437L49.851 45.8a2.19 2.19 0 0 0-2.211.024l-2.007 1.204a6.566 6.566 0 0 1-2.66-2.66l1.204-2.007a2.191 2.191 0 0 0 .024-2.21l-1.827-3.197a2.019 2.019 0 0 0-1.75-1.016 5.314 5.314 0 0 0-5.312 5.294A13.437 13.437 0 0 0 48.75 54.687h.019a5.315 5.315 0 0 0 5.293-5.312 2.018 2.018 0 0 0-1.015-1.749Zm-4.28 5.187h-.017a11.562 11.562 0 0 1-11.563-11.58 3.437 3.437 0 0 1 3.438-3.42.139.139 0 0 1 .121.07l1.827 3.197a.314.314 0 0 1-.004.315l-1.467 2.446a.937.937 0 0 0-.05.866 8.443 8.443 0 0 0 4.24 4.242.938.938 0 0 0 .867-.051l2.446-1.467a.314.314 0 0 1 .315-.004l3.197 1.827a.14.14 0 0 1 .07.121 3.436 3.436 0 0 1-3.42 3.438Z" fill="#000"/></svg>