<svg width="40" height="40" viewBox="0 0 40 40" fill="none" xmlns="http://www.w3.org/2000/svg"><path fill-rule="evenodd" clip-rule="evenodd" d="M6.254 11.252a2 2 0 0 1 1.414-.585h4.667a2 2 0 0 1 2 2V19h11.333v-6.333a2 2 0 0 1 2-2h4.667a2 2 0 0 1 2 2V14h3a2 2 0 0 1 2 2v8a2 2 0 0 1-2 2h-3v1.333a2 2 0 0 1-2 2h-4.667a2 2 0 0 1-2-2V21H14.335v6.333a2 2 0 0 1-2 2H7.668a2 2 0 0 1-2-2V26h-3a2 2 0 0 1-2-2v-8a2 2 0 0 1 2-2h3v-1.333a2 2 0 0 1 .586-1.415Zm21.414 8.8v7.281h4.667V12.667h-4.667v7.281a1.1 1.1 0 0 1 0 .104ZM7.668 16v11.333h4.667V12.667H7.668V16Zm-2 0h-3v8h3v-8Zm28.668 8h3v-8h-3v8Z" fill="#161616"/></svg>