<svg width="90" height="90" viewBox="0 0 90 90" fill="none" xmlns="http://www.w3.org/2000/svg"><circle opacity=".5" cx="45" cy="45" r="45" fill="#FFE603"/><path d="M47.774 39.866a2.01 2.01 0 0 0 .51-1.335c0-1.128-.92-2.047-2.047-2.047-1.128 0-2.047.92-2.047 2.047 0 .51.195.976.51 1.335-.39.17-.756.403-1.077.693a5.874 5.874 0 0 0-.907-.41 2.853 2.853 0 0 0-1.877-5.007 2.851 2.851 0 0 0-1.871 5.008 5.874 5.874 0 0 0-.907.409 3.89 3.89 0 0 0-1.077-.693c.314-.359.51-.825.51-1.335 0-1.128-.92-2.047-2.047-2.047-1.128 0-2.048.92-2.048 2.047 0 .51.196.976.51 1.335a3.88 3.88 0 0 0-2.343 3.56H32.6a2.854 2.854 0 0 1 2.847-2.854c.63 0 1.24.214 1.732.592a5.647 5.647 0 0 0-2.01 4.32h1.034a4.64 4.64 0 0 1 4.636-4.635 4.64 4.64 0 0 1 4.636 4.636h1.033a5.662 5.662 0 0 0-2.003-4.321 2.851 2.851 0 0 1 1.732-.592 2.854 2.854 0 0 1 2.847 2.853h1.033a3.873 3.873 0 0 0-2.343-3.559Zm-12.321-.321a1.013 1.013 0 1 1-.001-2.03 1.013 1.013 0 0 1 0 2.03Zm5.392.277a1.832 1.832 0 0 1-1.827-1.827 1.828 1.828 0 0 1 3.653 0 1.828 1.828 0 0 1-1.826 1.827Zm5.392-.277a1.013 1.013 0 1 1-.001-2.03 1.013 1.013 0 0 1 0 2.03Z" fill="#000"/><path d="m59.941 54.845-6.608-6.607-.976.976-1.713-1.713a11.79 11.79 0 0 0 2.053-6.652C52.697 34.317 47.381 29 40.848 29 34.317 29 29 34.317 29 40.85s5.316 11.848 11.849 11.848c2.463 0 4.755-.756 6.651-2.053l1.714 1.713-.977.977 6.608 6.607A3.588 3.588 0 0 0 57.396 61a3.602 3.602 0 0 0 2.545-6.154Zm-12.29-5.6a10.746 10.746 0 0 1-6.803 2.42c-5.965 0-10.815-4.851-10.815-10.816 0-5.965 4.85-10.816 10.816-10.816 5.965 0 10.815 4.85 10.815 10.816 0 2.576-.907 4.945-2.419 6.803-.025.038-.056.069-.082.107-.422.51-.894.983-1.404 1.404a.688.688 0 0 1-.108.082Zm11.566 9.972a2.564 2.564 0 0 1-1.82.756c-.687 0-1.336-.271-1.821-.756l-5.877-5.877.976-.977-2.33-2.33a.755.755 0 0 1 .075-.07c.24-.201.472-.409.7-.63.069-.069.144-.138.213-.214.22-.226.429-.453.63-.693a.755.755 0 0 0 .07-.075l2.33 2.33.977-.976 5.877 5.877a2.574 2.574 0 0 1 0 3.635Z" fill="#000"/><path d="m56.492 55.722-.73.73.73.731.73-.73-.73-.73ZM55.039 54.263l-.73.73.73.731.73-.73-.73-.73ZM53.578 52.81l-.73.73.73.73.73-.73-.73-.73Z" fill="#000"/></svg>