<svg width="40" height="40" viewBox="0 0 40 40" fill="none" xmlns="http://www.w3.org/2000/svg"><path d="M7.002 7a1 1 0 0 1 1.414 1.413 16.386 16.386 0 0 0 0 23.173A1 1 0 1 1 7.002 33a18.386 18.386 0 0 1 0-26Z" fill="#161616"/><path d="M11.498 28.5a1 1 0 0 0 1.414-1.414 10.023 10.023 0 0 1 0-14.173 1 1 0 0 0-1.414-1.414 12.02 12.02 0 0 0 0 17.001Z" fill="#161616"/><path fill-rule="evenodd" clip-rule="evenodd" d="m26.499 20.866-9 5.196a1 1 0 0 1-1.5-.866V14.804a1 1 0 0 1 1.5-.866l9 5.196a1 1 0 0 1 0 1.732Zm-8.5-4.33 6 3.464-6 3.464v-6.928Z" fill="#161616"/><path d="M31.582 7a1 1 0 0 1 1.415 0 18.384 18.384 0 0 1 0 26 1 1 0 0 1-1.415-1.414 16.385 16.385 0 0 0 0-23.173 1 1 0 0 1 0-1.414Z" fill="#161616"/><path d="M27.586 11A1 1 0 0 1 29 11a12.729 12.729 0 0 1 0 18 1 1 0 0 1-1.414-1.414 10.728 10.728 0 0 0 0-15.172 1 1 0 0 1 0-1.415Z" fill="#161616"/></svg>