<svg width="40" height="40" viewBox="0 0 40 40" fill="none" xmlns="http://www.w3.org/2000/svg"><path fill-rule="evenodd" clip-rule="evenodd" d="M9.74 9.395C8.312 8.04 2.6 7.603.883 7.5A.833.833 0 0 0 0 8.333v15c0 .46.373.833.833.833h5c.36 0 .68-.231.792-.575.017-.053.087-.267.196-.61l.436.455.181.189.014.014c.74.772 1.501 1.568 2.015 1.999 3.103 2.598 6.833 5.403 7.576 5.892.614.403 1.935.97 2.959.97.821 0 1.453-.189 1.891-.557.587.228 1.254.23 1.895-.02a3.282 3.282 0 0 0 1.735-1.602c.657.14 1.409.042 2.092-.301.668-.337 1.152-.852 1.392-1.454.663.035 1.346-.2 1.911-.685.763-.652 1.085-1.593.904-2.53l1.317-.884c.093.3.169.555.224.754.1.362.428.612.803.612h5c.46 0 .834-.373.834-.833V10a.833.833 0 0 0-.834-.834c-6.543 0-10.173 1.675-10.325 1.745a.83.83 0 0 0-.396 1.117 90.598 90.598 0 0 1-4.77-1.957c-3.007-1.344-4.946-.934-7.096.762H9.911c.036-.266.065-.52.086-.762a.829.829 0 0 0-.257-.676Zm19.709 4.781a97.602 97.602 0 0 1-6.456-2.581c-2.95-1.319-4.346-.64-7.055 2.07-1.138 1.138-2.016 2.841-1.841 3.573.025.107.071.218.331.305.815.273 2.035.423 3.214-1.338a.833.833 0 0 1 .61-.365c.56-.057.7-.12 1.114-.305l.004-.002.037-.016c.268-.12.608-.271 1.145-.466a.833.833 0 0 1 .871.195c.912.912 2.342 2.069 3.855 3.292l.002.001c2.293 1.855 4.654 3.765 5.803 5.3l1.522-1.022c-.856-2.566-2.178-6.264-3.156-8.64ZM8.643 22.471c-.497-.52-.96-.999-1.265-1.286.696-2.298 1.702-5.819 2.256-8.685h5.112c-1.138 1.145-2.671 3.439-2.273 5.123.172.72.679 1.253 1.432 1.502 1.888.623 3.612.026 4.895-1.677.53-.082.818-.202 1.252-.397.156-.07.34-.151.583-.25.953.895 2.24 1.937 3.595 3.032l.005.004c2.448 1.98 5.224 4.225 5.848 5.524.309.642-.023 1.06-.248 1.252-.318.273-.75.367-1 .22-.626-.505-3.263-3.204-4.899-4.91a.833.833 0 1 0-1.203 1.153c.387.404 3.505 3.654 4.753 4.791-.097.36-.448.576-.618.661-.522.265-1.067.225-1.285.042a.854.854 0 0 0-.06-.053c-.999-.799-3.507-3.464-4.074-4.08a.835.835 0 0 0-1.228 1.128l.018.019c.226.243 2.517 2.706 3.839 3.89a1.61 1.61 0 0 1-.89.892c-.255.097-.625.155-.956-.148a.832.832 0 0 0-.04-.034c-1.193-1.009-3.61-3.58-4.083-4.088a.833.833 0 1 0-1.218 1.139c.564.603 2.245 2.387 3.507 3.576a3.055 3.055 0 0 1-.396.022c-.555 0-1.554-.375-2.042-.698-.585-.385-4.254-3.122-7.422-5.775-.445-.375-1.215-1.179-1.895-1.889Zm-3.418.029H1.667V9.226c2.678.212 5.568.672 6.618 1.182-.442 3.65-2.44 10.135-3.06 12.092Zm29.564 1.666h3.544V10.843c-3.965.093-6.697.835-7.968 1.267 1.301 2.773 3.634 9.483 4.424 12.056Z" fill="#161616"/></svg>