<svg width="40" height="41" viewBox="0 0 40 41" fill="none" xmlns="http://www.w3.org/2000/svg"><path fill-rule="evenodd" clip-rule="evenodd" d="M9.74 10.316C8.312 8.963 2.6 8.525.883 8.423A.833.833 0 0 0 0 9.255v15c0 .46.373.833.833.833h5c.36 0 .68-.232.792-.575l.196-.61c.137.141.283.295.436.454l.181.189.014.015c.74.772 1.501 1.568 2.015 1.998 3.103 2.599 6.833 5.404 7.576 5.892.614.403 1.935.97 2.959.97.821 0 1.453-.188 1.891-.557a2.59 2.59 0 0 0 1.895-.02 3.282 3.282 0 0 0 1.735-1.601c.657.14 1.409.041 2.092-.302.668-.337 1.152-.852 1.392-1.453.663.035 1.346-.2 1.911-.685.763-.652 1.085-1.594.904-2.53l1.317-.885c.093.3.169.555.224.755.1.361.428.611.803.611h5c.46 0 .834-.373.834-.833v-15a.832.832 0 0 0-.834-.833c-6.543 0-10.173 1.675-10.325 1.745a.83.83 0 0 0-.396 1.116 90.598 90.598 0 0 1-4.77-1.956c-3.007-1.344-4.946-.934-7.096.762H9.911c.036-.267.065-.521.086-.762a.829.829 0 0 0-.257-.677Zm19.709 4.782a97.583 97.583 0 0 1-6.456-2.582c-2.95-1.318-4.346-.64-7.055 2.07-1.138 1.139-2.016 2.842-1.841 3.574.025.106.071.218.331.305.815.273 2.035.423 3.214-1.339a.833.833 0 0 1 .61-.365c.56-.056.7-.12 1.114-.305l.004-.002.037-.016c.268-.12.608-.27 1.145-.465a.833.833 0 0 1 .871.195c.912.912 2.342 2.068 3.855 3.291l.002.002c2.293 1.855 4.654 3.765 5.803 5.3l1.522-1.022c-.856-2.567-2.178-6.264-3.156-8.641ZM8.643 23.393c-.497-.52-.96-1-1.265-1.286.696-2.298 1.702-5.82 2.256-8.686h5.112c-1.138 1.146-2.671 3.44-2.273 5.123.172.72.679 1.254 1.432 1.502 1.888.623 3.612.027 4.895-1.677.53-.081.818-.201 1.252-.396.156-.07.34-.152.583-.25.953.895 2.24 1.937 3.595 3.032l.005.003c2.448 1.981 5.224 4.226 5.848 5.525.309.641-.023 1.06-.248 1.251-.318.274-.75.367-1 .22-.626-.504-3.263-3.204-4.899-4.91a.833.833 0 1 0-1.203 1.153c.387.404 3.505 3.654 4.753 4.792-.097.36-.448.575-.618.66-.522.265-1.067.225-1.285.042a.88.88 0 0 0-.06-.053c-.999-.798-3.507-3.463-4.074-4.08a.835.835 0 0 0-1.228 1.128l.018.02c.226.243 2.517 2.705 3.839 3.89a1.61 1.61 0 0 1-.89.892c-.255.096-.625.155-.956-.149a.832.832 0 0 0-.04-.033c-1.193-1.01-3.61-3.582-4.083-4.088a.833.833 0 1 0-1.218 1.138c.564.604 2.245 2.388 3.507 3.576a3.035 3.035 0 0 1-.396.022c-.555 0-1.554-.375-2.042-.698-.585-.385-4.254-3.122-7.422-5.775-.445-.375-1.215-1.178-1.895-1.888Zm-3.418.028H1.667V10.148c2.678.212 5.568.672 6.618 1.182-.442 3.65-2.44 10.135-3.06 12.091Zm29.564 1.667h3.544V11.765c-3.965.093-6.697.835-7.968 1.266 1.301 2.774 3.634 9.484 4.424 12.057Z" fill="#161616"/></svg>