<svg width="40" height="40" viewBox="0 0 40 40" fill="none" xmlns="http://www.w3.org/2000/svg"><path d="M37.612 19.029 33.75 20.96l-5-9.575 3.901-1.951a1.25 1.25 0 0 1 1.667.54l3.843 7.358a1.25 1.25 0 0 1-.549 1.697v0Zm-31.36 1.764L2.39 18.861a1.25 1.25 0 0 1-.549-1.697l3.843-7.36a1.25 1.25 0 0 1 1.667-.539l3.901 1.951-5 9.575Zm27.498.167-2.5 2.925-5.75 5.75a1.25 1.25 0 0 1-1.187.328l-9.055-2.264a1.25 1.25 0 0 1-.467-.228L6.25 20.793" stroke="#161616" stroke-width="2" stroke-linecap="round" stroke-linejoin="round"/><path d="m31.25 23.884-6.876-5-2 1.5a5 5 0 0 1-6 0l-.847-.635a1.253 1.253 0 0 1-.42-1.437c.062-.168.16-.32.287-.447l6.114-6.114a1.251 1.251 0 0 1 .884-.367h6.357" stroke="#161616" stroke-width="2" stroke-linecap="round" stroke-linejoin="round"/><path d="m11.34 11.217 8.019-2.338a1.25 1.25 0 0 1 .865.062l5.401 2.443M17.5 33.26l-4.71-1.178a1.25 1.25 0 0 1-.516-.269L8.75 28.75" stroke="#161616" stroke-width="2" stroke-linecap="round" stroke-linejoin="round"/></svg>