<svg width="61" height="61" viewBox="0 0 61 61" fill="none" xmlns="http://www.w3.org/2000/svg"><g clip-path="url(#a)"><path d="M13.556 0h33.789c1.644 0 3.24.262 4.789.81a13.46 13.46 0 0 1 5.79 4.099 13.36 13.36 0 0 1 2.931 6.529c.143.881.167 1.763.167 2.644v32.955c0 1.048-.048 2.12-.262 3.145a13.488 13.488 0 0 1-3.217 6.362 13.49 13.49 0 0 1-5.957 3.837c-1.382.428-2.812.619-4.265.619-.644 0-33.86 0-34.36-.024a13.597 13.597 0 0 1-6.863-2.264 13.772 13.772 0 0 1-4.646-5.337C.546 51.54.093 49.491.093 47.442V13.558A12.649 12.649 0 0 1 1.356 7.72a13.53 13.53 0 0 1 4.6-5.361A13.347 13.347 0 0 1 12.793.048c.238-.048.5-.048.762-.048Z" fill="#7C7C7C"/><path d="M51.469 49.896a9.32 9.32 0 0 0-.715-.977 10.121 10.121 0 0 0-2.05-1.858c-.952-.644-2.072-1.049-3.216-1.096a5.824 5.824 0 0 0-2.383.38c-.762.263-1.501.644-2.216 1.025-.834.43-1.668.858-2.55 1.216a19.149 19.149 0 0 1-3.264 1 21.215 21.215 0 0 1-4.241.334c-2.55-.048-5.1-.429-7.53-1.144a28.487 28.487 0 0 1-6.124-2.645 31.576 31.576 0 0 1-4.742-3.36 34.65 34.65 0 0 1-3.383-3.36 36.785 36.785 0 0 1-2.05-2.62c-.262-.358-.5-.739-.714-1.12L0 28.88V13.51C0 6.053 6.029 0 13.487 0H25.52l8.912 9.055c20.11 13.677 13.605 28.76 13.605 28.76s5.72 6.434 3.432 12.081Z" fill="#6A6A6A"/><path d="M34.478 9.055c20.11 13.677 13.606 28.76 13.606 28.76s5.718 6.458 3.407 12.105c0 0-2.359-3.956-6.314-3.956-3.813 0-6.053 3.956-13.725 3.956-17.085 0-25.163-14.273-25.163-14.273 15.393 10.127 25.901 2.955 25.901 2.955-6.934-4.027-21.683-23.28-21.683-23.28 12.843 10.937 18.395 13.82 18.395 13.82-3.312-2.74-12.605-16.132-12.605-16.132 7.434 7.53 22.208 18.038 22.208 18.038 4.193-11.628-4.027-21.993-4.027-21.993Z" fill="#fff"/></g><defs><clipPath id="a"><path fill="#fff" d="M0 0h61v61H0z"/></clipPath></defs></svg>