<svg width="40" height="40" viewBox="0 0 40 40" fill="none" xmlns="http://www.w3.org/2000/svg"><path d="M37.656 36.244h.15v-6.088a1.022 1.022 0 0 1 2.044 0v7.11c0 .564-.458 1.022-1.022 1.022h-7.11a1.022 1.022 0 1 1 0-2.044h5.938Zm-35.462-.15v.15H8.28a1.022 1.022 0 1 1 0 2.044H1.17a1.022 1.022 0 0 1-1.02-1.022v-7.11a1.022 1.022 0 0 1 2.044 0v5.938Zm.15-32.338h-.15v6.088a1.022 1.022 0 0 1-2.044 0v-7.11c0-.564.458-1.022 1.022-1.022h7.11a1.022 1.022 0 0 1 0 2.044H2.343Zm35.462.15v-.15h-6.165a1.022 1.022 0 0 1 0-2.043h7.187c.564 0 1.022.457 1.022 1.021v7.11a1.022 1.022 0 0 1-2.044 0V3.906Z" fill="#161616" stroke="#FFF281" stroke-width=".3"/><path d="M20 17.264a4.865 4.865 0 0 0 4.858-4.86 4.865 4.865 0 0 0-4.859-4.858 4.864 4.864 0 0 0-4.858 4.859 4.865 4.865 0 0 0 4.858 4.859Zm0-8.042a3.187 3.187 0 0 1 3.183 3.183 3.187 3.187 0 0 1-3.184 3.183 3.187 3.187 0 0 1-3.183-3.183 3.187 3.187 0 0 1 3.183-3.183Zm9.83 8.042a3.075 3.075 0 0 0 3.071-3.072 3.075 3.075 0 0 0-3.072-3.072 3.075 3.075 0 0 0-3.071 3.072 3.075 3.075 0 0 0 3.071 3.072Zm0-4.468c.77 0 1.396.626 1.396 1.396a1.398 1.398 0 0 1-2.792 0c0-.77.626-1.396 1.395-1.396Zm.675 6.366h-1.296a3.798 3.798 0 0 0-3.445 2.198 6.742 6.742 0 0 0-4.983-2.198h-1.562c-1.97 0-3.746.848-4.983 2.198a3.798 3.798 0 0 0-3.445-2.198H9.495c-2.09 0-3.792 1.691-3.792 3.77v6.099c0 .902.737 1.636 1.643 1.636h5.122c.086 1 .927 1.787 1.948 1.787h11.168a1.958 1.958 0 0 0 1.948-1.787h5.064a1.7 1.7 0 0 0 1.701-1.695v-6.04c0-2.079-1.701-3.77-3.792-3.77Zm-23.126 3.77c0-1.155.95-2.094 2.116-2.094h1.296c1.167 0 2.116.939 2.116 2.093v.574c-.563 1.467-.446 2.346-.446 5.486H7.379v-6.06Zm18.485 7.566a.28.28 0 0 1-.28.28H14.416a.28.28 0 0 1-.28-.28v-4.577a5.089 5.089 0 0 1 5.083-5.083h1.562a5.089 5.089 0 0 1 5.083 5.083v4.577Zm6.757-1.526c0 .03.313.02-5.082.02 0-3.164.116-4.023-.446-5.487v-.573c0-1.155.95-2.094 2.116-2.094h1.296c1.167 0 2.116.939 2.116 2.093v6.041ZM10.17 17.264a3.075 3.075 0 0 0 3.07-3.072 3.075 3.075 0 0 0-3.07-3.072 3.075 3.075 0 0 0-3.072 3.072 3.075 3.075 0 0 0 3.071 3.072Zm0-4.468a1.396 1.396 0 1 1 0 2.793 1.396 1.396 0 0 1-.001-2.793Z" fill="#161616"/></svg>