<svg width="86" height="63" viewBox="0 0 86 63" fill="none" xmlns="http://www.w3.org/2000/svg"><g opacity=".5"><mask id="a" x="0" y="0" width="43" height="45"><path fill-rule="evenodd" clip-rule="evenodd" d="M0 44.085V.2h42.67v43.884H0Z" fill="#fff"/></mask><g><path fill-rule="evenodd" clip-rule="evenodd" d="M42.668.2v14.628H28.422v29.257H14.176V14.828H-.07V.201h42.738" fill="#171717"/></g><path fill-rule="evenodd" clip-rule="evenodd" d="M56.918 14.828H85.41V.201H56.918v14.627Zm-.004 14.628h28.493v14.629H42.668V14.828h14.246v14.628Z" fill="#171717"/><mask id="b" x="1" y="51" width="75" height="12"><path fill-rule="evenodd" clip-rule="evenodd" d="M75.278 62.8H1.66V51.935h73.618v10.863Z" fill="#fff"/></mask><g fill-rule="evenodd" clip-rule="evenodd" fill="#171717"><path d="M7.272 54.862v7.846H4.481v-7.846H1.66v-2.497h8.432v2.497h-2.82m5.911 1.89c-.59 0-.92.415-1.008 1.182h2.159c-.13-.782-.389-1.182-1.151-1.182Zm3.424 2.838h-4.432c.087.857.575 1.24 1.28 1.24.663 0 1.21-.147 1.958-.546l.992 1.7c-.935.56-1.899.886-3.078.886-2.274 0-3.526-1.655-3.526-4.035 0-2.673 1.468-4.047 3.454-4.047 2.071 0 3.367 1.404 3.367 4.284 0 .222 0 .384-.015.518Zm4.82 3.28c-2.215 0-3.54-1.448-3.54-4.063 0-2.38 1.18-4.02 3.598-4.02 1.424 0 2.245.68 2.907 1.773l-1.785 1.39c-.36-.68-.604-1.005-1.166-1.005-.662 0-.992.68-.992 1.905 0 1.228.359 1.862 1.064 1.862.49 0 .835-.28 1.31-1.005l1.64 1.315c-.877 1.33-1.698 1.848-3.036 1.848m8.833-.162v-4.404c0-1.005-.33-1.271-.863-1.271-.547 0-.878.267-.878 1.24v4.434h-2.59V53l2.59-1.064v3.531c.475-.37 1.007-.68 1.9-.68 1.655 0 2.447 1.138 2.447 3.177v4.744H30.26m8.808.162c-2.993 0-4.591-2.276-4.591-5.334 0-3.324 1.9-5.334 4.605-5.334 2.475 0 3.453 1.094 4.144 3.044l-2.532 1.02c-.36-.96-.706-1.566-1.626-1.566-1.166 0-1.67 1.196-1.67 2.836 0 1.581.49 2.837 1.698 2.837.877 0 1.252-.487 1.799-1.462l2.36 1.285c-.676 1.36-1.799 2.674-4.187 2.674m10.557-4.994c-.33-.37-.705-.65-1.208-.65-.634 0-1.022.31-1.022 1.256v4.226h-2.59V54.95h2.59v.562c.446-.444.95-.724 1.612-.724.547 0 .92.132 1.224.325l-.606 2.763m6.16 4.831v-.517c-.46.368-1.007.68-1.885.68-1.655 0-2.447-1.138-2.447-3.178v-4.743h2.604v4.405c0 1.003.332 1.27.865 1.27.531 0 .863-.267.863-1.242v-4.433h2.604v7.758h-2.604m8.805.001v-4.404c0-1.004-.33-1.27-.864-1.27-.547 0-.877.266-.877 1.24v4.434h-2.591V54.95h2.59v.517c.475-.37 1.008-.68 1.9-.68 1.655 0 2.447 1.138 2.447 3.177v4.744H64.59m7.653.162c-2.216 0-3.54-1.448-3.54-4.063 0-2.38 1.18-4.02 3.597-4.02 1.425 0 2.245.68 2.907 1.773l-1.784 1.39c-.36-.68-.605-1.005-1.166-1.005-.663 0-.993.68-.993 1.905 0 1.228.36 1.862 1.066 1.862.488 0 .834-.28 1.309-1.005l1.64 1.315c-.878 1.33-1.698 1.848-3.036 1.848"/></g><path fill-rule="evenodd" clip-rule="evenodd" d="M81.078 62.707v-4.403c0-1.005-.332-1.272-.863-1.272-.548 0-.88.267-.88 1.241v4.434h-2.589v-9.708l2.59-1.064v3.532c.475-.37 1.008-.68 1.9-.68 1.655 0 2.446 1.137 2.446 3.176v4.744h-2.604" fill="#171717"/></g></svg>
