<svg xmlns="http://www.w3.org/2000/svg" xmlns:xlink="http://www.w3.org/1999/xlink" width="86" height="64" viewBox="0 0 86 64"><defs><path id="a" d="M.069 44.784V.724H42.76v44.06z"/><path id="c" d="M74.241 11.715H.586V.81H74.24z"/></defs><g fill="none" fill-rule="evenodd" opacity=".404"><g transform="translate(0 -.073)"><mask id="b" fill="#fff"><use xlink:href="#a"/></mask><path fill="#B5BFC9" d="M42.76.724V15.41H28.507v29.374H14.253V15.41H0V.724h42.76" mask="url(#b)"/></g><path fill="#B5BFC9" d="M57.014 15.337H85.52V.651H57.014zm0 14.686H85.52v14.688H42.76V15.337h14.253z"/><g transform="translate(1.144 51.785)"><mask id="d" fill="#fff"><use xlink:href="#c"/></mask><path fill="#B5BFC9" d="M6.2 3.746v7.877H3.409V3.746H.586V1.239h8.437v2.507H6.2m5.917 1.898c-.59 0-.921.416-1.008 1.187h2.16c-.13-.786-.39-1.187-1.152-1.187zm3.426 2.849h-4.434c.087.86.575 1.246 1.281 1.246.662 0 1.21-.149 1.958-.55l.993 1.707c-.935.563-1.9.89-3.08.89-2.275 0-3.528-1.662-3.528-4.051 0-2.684 1.469-4.064 3.456-4.064 2.072 0 3.368 1.41 3.368 4.302 0 .223 0 .385-.014.52zm4.822 3.293c-2.217 0-3.542-1.453-3.542-4.08 0-2.388 1.181-4.035 3.6-4.035 1.424 0 2.246.683 2.908 1.78l-1.786 1.395c-.36-.683-.605-1.008-1.166-1.008-.663 0-.993.682-.993 1.912 0 1.233.36 1.87 1.065 1.87.49 0 .835-.282 1.31-1.01l1.64 1.32c-.876 1.336-1.698 1.856-3.036 1.856m8.837-.163v-4.42c0-1.01-.33-1.277-.863-1.277-.548 0-.879.267-.879 1.246v4.451h-2.59V1.876L27.46.81v3.545c.475-.372 1.008-.683 1.9-.683 1.657 0 2.45 1.142 2.45 3.19v4.762h-2.608m8.81.162c-2.994 0-4.593-2.285-4.593-5.356 0-3.337 1.9-5.355 4.607-5.355 2.476 0 3.456 1.098 4.146 3.056L39.64 5.155c-.36-.964-.706-1.572-1.627-1.572-1.166 0-1.67 1.2-1.67 2.847 0 1.588.49 2.849 1.699 2.849.877 0 1.252-.49 1.8-1.469l2.361 1.291c-.677 1.365-1.8 2.685-4.19 2.685m10.563-5.014c-.33-.371-.705-.653-1.208-.653-.635 0-1.023.311-1.023 1.261v4.243h-2.592v-7.79h2.592v.565c.446-.445.95-.727 1.613-.727.547 0 .92.133 1.224.327l-.606 2.774m6.162 4.851v-.52c-.461.37-1.008.683-1.887.683-1.655 0-2.447-1.142-2.447-3.19V3.833h2.605v4.422c0 1.008.332 1.275.865 1.275.532 0 .864-.267.864-1.247v-4.45h2.605v7.79h-2.605m8.808 0v-4.42c0-1.01-.33-1.277-.863-1.277-.548 0-.879.267-.879 1.246v4.451h-2.592v-7.79h2.592v.52c.475-.37 1.008-.682 1.901-.682 1.655 0 2.448 1.142 2.448 3.19v4.762h-2.607m7.657.163c-2.217 0-3.541-1.453-3.541-4.08 0-2.388 1.18-4.035 3.598-4.035 1.427 0 2.247.683 2.91 1.78l-1.786 1.395c-.36-.683-.605-1.008-1.166-1.008-.663 0-.994.682-.994 1.912 0 1.233.36 1.87 1.066 1.87.489 0 .835-.282 1.31-1.01l1.641 1.32c-.878 1.336-1.698 1.856-3.038 1.856" mask="url(#d)"/></g><path fill="#B5BFC9" d="M81.186 63.408v-4.42c0-1.01-.332-1.277-.864-1.277-.548 0-.88.267-.88 1.245v4.452h-2.59v-9.747l2.59-1.068v3.545c.476-.37 1.01-.682 1.901-.682 1.657 0 2.448 1.142 2.448 3.19v4.762h-2.605"/></g></svg>