<svg width="285" height="37" viewBox="0 0 285 37" fill="none" xmlns="http://www.w3.org/2000/svg"><g opacity=".5" fill-rule="evenodd" clip-rule="evenodd"><path d="M1.72 9.227H.523L.706.995h34.201l.183 8.232h-1.118c-.4-2.255-.943-3.884-1.638-4.886-.692-1.001-1.438-1.616-2.235-1.843-.797-.228-2.157-.342-4.08-.342h-5.665v24.17c0 2.678.065 4.437.193 5.28.13.842.482 1.464 1.055 1.868.57.403 1.645.606 3.221.606h1.716v1.162H8.969V34.08h1.82c1.507 0 2.552-.185 3.132-.555.581-.37.953-.948 1.116-1.73.167-.782.248-2.606.248-5.468V2.157H10.06c-2.269 0-3.793.105-4.57.314-.782.212-1.514.847-2.199 1.908-.684 1.06-1.208 2.677-1.571 4.848M66.848 18.069h-18.4v8.258c0 2.694.07 4.456.209 5.291.138.834.489 1.452 1.052 1.856.563.403 1.633.606 3.21.606h.908v1.162h-15.85V34.08h.908c1.506 0 2.551-.185 3.13-.555.582-.37.954-.948 1.118-1.73.166-.782.247-2.606.247-5.468V9.53c0-2.726-.08-4.486-.247-5.278-.164-.791-.51-1.338-1.038-1.641-.528-.303-1.686-.455-3.471-.455h-.647V.995h15.85v1.161h-.65c-1.713 0-2.84.14-3.377.416-.537.279-.895.797-1.078 1.554-.183.759-.273 2.56-.273 5.404v6.795h18.399V9.53c0-2.726-.076-4.486-.234-5.278-.153-.791-.498-1.338-1.025-1.641-.529-.303-1.687-.455-3.47-.455h-.935V.995h16.034v1.161H76.7c-1.732 0-2.869.14-3.404.416-.537.279-.897.797-1.08 1.554-.183.759-.273 2.56-.273 5.404v16.797c0 2.694.065 4.456.196 5.291.13.834.481 1.452 1.052 1.856.572.403 1.645.606 3.224.606h.804v1.162H61.184V34.08h1.22c1.492 0 2.525-.185 3.107-.555.58-.37.95-.948 1.103-1.73.158-.782.234-2.606.234-5.468v-8.259" fill="#171717"/><path d="M175.849 36.005H80.703V.995h95.146v35.01Z" fill="#fff"/><path d="M109.395 24.585h1.246l-.753 10.657H80.703V34.08h.727c1.748 0 2.88-.227 3.392-.681.51-.455.835-1.032.975-1.73.138-.699.208-2.48.208-5.342V9.53c0-2.608-.075-4.326-.222-5.15-.148-.826-.484-1.403-1.013-1.731-.53-.328-1.643-.493-3.34-.493V.995h25.183l.832 8.535h-1.223c-.554-2.388-1.233-4.086-2.038-5.087-.807-1.002-1.765-1.634-2.873-1.895-1.108-.261-2.893-.392-5.353-.392h-4.886v14.37h3.743c1.713 0 2.916-.14 3.598-.429.684-.284 1.136-.718 1.353-1.3.216-.58.323-1.713.323-3.396h1.222v11.718h-1.222c0-1.902-.164-3.178-.493-3.827-.33-.648-.81-1.068-1.443-1.262-.63-.193-1.701-.29-3.21-.29h-3.87v8.106c0 4.06.266 6.446.804 7.16.537.716 1.985 1.074 4.34 1.074h2.626c1.854 0 3.378-.23 4.574-.694 1.195-.463 2.334-1.414 3.419-2.854 1.081-1.44 1.935-3.422 2.559-5.947M162.307 36.076h-1.169L150.404 7.839l-9.38 28.237h-1.249l-8.498-26.671c-.762-2.426-1.313-4.037-1.65-4.837-.338-.799-.781-1.39-1.325-1.768-.547-.378-1.452-.593-2.716-.644V.995h13.228v1.161c-1.595.101-2.616.325-3.067.67-.451.346-.675.829-.675 1.452 0 .555.364 1.978 1.091 4.268l6.288 19.952L151.652.995h1.456l10.344 27.503 5.38-18.183c.71-2.46 1.066-4.067 1.066-4.824 0-2.223-1.223-3.335-3.666-3.335V.995h9.617v1.161c-1.421.101-2.477.611-3.172 1.528-.692.918-1.569 3.12-2.625 6.605l-7.745 25.787M206.411 24.585h1.246l-.752 10.657h-29.186V34.08h.727c1.748 0 2.88-.227 3.392-.681a3.07 3.07 0 0 0 .975-1.73c.138-.699.208-2.48.208-5.342V9.53c0-2.608-.075-4.326-.223-5.15-.147-.826-.484-1.403-1.012-1.731-.53-.328-1.643-.493-3.34-.493V.995h25.183l.832 8.535h-1.223c-.553-2.388-1.234-4.086-2.038-5.087-.806-1.002-1.765-1.634-2.873-1.895-1.108-.261-2.894-.392-5.353-.392h-4.886v14.37h3.743c1.714 0 2.915-.14 3.597-.429.685-.284 1.136-.718 1.354-1.3.215-.58.323-1.713.323-3.396h1.222v11.718h-1.222c0-1.902-.163-3.178-.494-3.827-.329-.648-.809-1.068-1.441-1.262-.632-.193-1.703-.29-3.211-.29h-3.871v8.106c0 4.06.267 6.446.805 7.16.538.716 1.985 1.074 4.341 1.074h2.625c1.853 0 3.377-.23 4.575-.694 1.194-.463 2.332-1.414 3.417-2.854 1.083-1.44 1.936-3.422 2.56-5.947M239.675 24.585h1.246l-.752 10.657h-29.185V34.08h.727c1.748 0 2.879-.227 3.392-.681.51-.455.834-1.032.974-1.73.138-.699.208-2.48.208-5.342V9.53c0-2.608-.074-4.326-.221-5.15-.148-.826-.484-1.403-1.013-1.731-.531-.328-1.642-.493-3.34-.493V.995h25.183l.833 8.535h-1.223c-.554-2.388-1.234-4.086-2.039-5.087-.806-1.002-1.765-1.634-2.873-1.895-1.108-.261-2.893-.392-5.352-.392h-4.886v14.37h3.742c1.713 0 2.916-.14 3.598-.429.685-.284 1.136-.718 1.354-1.3.214-.58.321-1.713.321-3.396h1.223v11.718h-1.223c0-1.902-.163-3.178-.492-3.827-.33-.648-.809-1.068-1.443-1.262-.63-.193-1.702-.29-3.209-.29h-3.871v8.106c0 4.06.266 6.446.804 7.16.537.716 1.984 1.074 4.34 1.074h2.625c1.855 0 3.379-.23 4.575-.694 1.196-.463 2.334-1.414 3.418-2.854 1.082-1.44 1.935-3.422 2.559-5.947M254.726 18.421l10.76-9.42c2.494-2.172 3.742-3.721 3.742-4.648 0-1.396-1.248-2.129-3.742-2.197V.995h13.28v1.161c-1.092.017-2.188.245-3.287.682-1.1.437-2.11 1.01-3.03 1.717-.918.707-2.622 2.198-5.119 4.471l-6.419 5.758 13.203 12.957c3.015 2.98 5.033 4.782 6.054 5.404 1.025.624 2.349.935 3.976.935v1.162H265.85V34.08h.702c1.975 0 3.205-.16 3.688-.479.487-.32.73-.716.73-1.187 0-.708-1.258-2.282-3.768-4.724l-9.954-9.748-2.522 2.147v6.238c0 2.694.07 4.456.208 5.291.138.834.488 1.452 1.052 1.856.563.403 1.641.606 3.235.606h.678v1.162H244.07V34.08h1.093c1.507 0 2.55-.185 3.129-.555.583-.37.955-.948 1.12-1.73.164-.782.246-2.606.246-5.468V9.53c0-2.827-.091-4.629-.274-5.404-.18-.774-.539-1.295-1.077-1.566-.538-.269-1.793-.404-3.769-.404V.995h15.594v1.161h-.649c-1.735 0-2.868.14-3.407.416-.537.279-.895.797-1.076 1.554-.183.759-.274 2.56-.274 5.404v8.891" fill="#171717"/></g></svg>