<svg width="155" height="51" viewBox="0 0 155 51" fill="none" xmlns="http://www.w3.org/2000/svg"><path opacity=".5" fill-rule="evenodd" clip-rule="evenodd" d="m154.394 10.037-.681.002-.007-.356c-.071-.884-.219-3.384-.408-5.487-.016-.187-.047-.334-.047-.334-.408-.013-2.071-.066-2.098-.095-.027-.024-1.353-.042-1.38-.057-.013-.006-4.362-.033-8.844-.036-3.06-.003-6.07.016-7.916.016-.453-.002-2.082.062-2.082.062l-.008 19.956 12.812.044c.06 0 3.393-.104 3.475-.102.202.002 2.489-.131 2.576-.162 0 0 .034-.21.088-.36.185-1.209.422-2.356.479-3.252 0 0 .061-.384.065-.642l.728-.016c0 .094.037.323.034.65-.007 1.201-.094 3.699-.092 5.337.004 2.357.069 4.485.082 5.55.01.306-.011.792-.011.792h-.799a16.764 16.764 0 0 0-.044-.353 69.162 69.162 0 0 0-.469-3.703c-.007-.07-.047-.32-.063-.481a72.724 72.724 0 0 0-2.062-.081c-.249-.009-3.373-.031-6.888-.037-1.441-.002-4.028.066-5.124.064-1.285 0-3.407.081-4.792.132l.013 18.097.056 2.332 7.779.134 11.078-.01c.05 0 2.536-.1 3.313-.084.165.003.496-.026.496-.026.073-.585.165-1.77.256-2.899.007-.134.284-3.136.284-3.942l.681-.008c0 .762-.145 10.243-.145 10.243-1.249 0-5.081-.003-9.813-.073-2.871-.043-6.069-.04-9.223-.087-2.56-.036-5.091-.128-7.395-.125-3.28.004-6.495.22-7.743.22-.284 0-.788-.02-.898-.02V49.65h.229c.769-.004 3.032-.14 4.213-.358 0-.24.078-3.192.078-3.252l-.006-39.154c0-1.81-.032-4.828-.032-5.095-.667-.08-.905-.12-1.045-.15-.709-.1-2.106-.222-2.854-.276a3.095 3.095 0 0 1-.559-.042S119.677.15 119.67.134c.171.009.52-.017 1.147-.013 1.321.005 3.751.2 6.721.204 1.866.002 4.876-.09 7.031-.117 3.077 0 5.411-.03 8.391-.049 4.86-.033 9.012-.067 10.635-.076.476-.001.736-.004.736-.004 0 .095-.004.2-.004.322 0 .376-.016 1.039-.011 1.848.018 2.524.078 6.492.078 7.788Zm-81.75 6.982s-1.121 6.206-2.74 14.962c-.86 4.73-2.637 16.559-2.756 17.34 1.024.152 3.042.317 3.59.299.127 0 .343.004.502.004l-.003 1.199a9.55 9.55 0 0 1-.787.033c-1.943-.04-3.344-.189-5.44-.189-.553 0-3.469.152-4.496.188-.428.017-1.035-.03-1.15-.024l.002-1.186c.1 0 .303-.042.432-.046.93-.042 2.36-.185 3.572-.344.1-.582 1.147-6.413 1.48-8.48 1.288-6.835 5.083-29.676 5.556-32.757.417-3.326.901-7.464.946-7.92 1.005.018 2.74-.022 2.74-.022s3.359 10.435 3.903 11.962c.546 1.528 10.808 27.932 10.808 27.932s4.817-11.376 9.11-23.583c.869-2.472 2.009-5.695 2.849-8.304 1.229-3.82 2.58-8.008 2.58-8.008h2.641s.655 4.664.887 6.738c.676 6.045 5.087 30.602 6.637 38.679.387 2.021.68 3.77.68 3.77.456.032 2.24.209 3.298.297.22.018.814.052.95.052l.005 1.217s-.482.024-.744.024c-2.367-.015-6.054-.227-8.329-.227-2.024 0-3.971.173-5.995.218-.344.007-.691-.01-1.041-.01v-1.205c.009-.001.279-.017.42-.012.989-.045 3.61-.303 3.87-.315.002-.442-.142-1.972-.354-3.536-.148-1.103-.398-2.987-.665-4.845-.576-3.612-3.243-18.579-4.036-22.734-.131-.68-.212-1.063-.212-1.063s-8.263 21.2-9.93 25.377c-.161.41-.278.698-.317.795-1.592 4.023-2.928 7.608-2.928 7.608l-2.35-.013-12.878-33.1-.306-.77ZM56.99 50.867c-1.744 0-4.708-.29-6.929-.29-2.196 0-5.176.29-7.321.29-.183 0-.505-.041-.681-.041v-1.204c.424-.01 2.32-.183 2.847-.221.618-.045 1.19-.076 1.444-.158l.012-3.703c.023-7.781.07-29.777-.004-39.728-.007-1.05-.014-3.712-.014-4.097-.402-.04-.964-.095-1.366-.148-.502-.027-2.574-.225-2.929-.245L42.035.117c2.057 0 5.107.21 7.584.21 2.367 0 5.577-.21 8.008-.21l-.005 1.257c-.386.026-1.324.085-1.354.088-.709.067-2.691.291-3.179.327V5.66c-.001 8.91-.01 32.226-.014 40.076v2.545c0 .599.003.96.01.982.011.046 1.255.161 1.54.179.549.064 2.805.164 2.873.18h.152l-.001 1.203c-.149 0-.508.04-.66.04ZM16.854 3.639l-4.499-.02H5.383c-.485 0-4.224.037-4.224.037l-.066 6.046-.683.02.041-6.796L.427.134c2.377.115 10.963.19 19.872.19C30.688.325 37.38.22 40.007.143l-.03 3.093.055 6.875-.709-.007c.006-.56-.115-2.843-.108-3.066.003-.083-.149-3.147-.17-3.377l-2.983-.04-8.937-.002-3.425.013.005 42.411c0 .057.065 2.78.076 3.346.344.048 3.656.278 4.255.278l.234-.004v1.158c-.177 0-.4.017-.583.016-1.882-.02-4.92-.246-7.078-.246-2.124 0-5.121.208-7.337.243-.059.002-.513-.009-.685-.017l-.005-1.232c.023 0 .16-.003.367-.01.936-.037 3.241-.192 3.842-.243l.093-.013-.03-45.679Z" fill="#171717"/></svg>