<svg width="116" height="148" viewBox="0 0 116 148" fill="none" xmlns="http://www.w3.org/2000/svg"><path d="M11.93 125.454 7.198 138h-1.89L.573 125.454h1.746l3.942 10.818 3.942-10.818h1.728Zm2.643 1.08c-.312 0-.576-.108-.792-.324a1.077 1.077 0 0 1-.324-.792c0-.312.108-.576.324-.792.216-.216.48-.324.792-.324.3 0 .552.108.756.324.216.216.324.48.324.792 0 .312-.108.576-.324.792a.998.998 0 0 1-.756.324Zm.792 1.602V138h-1.638v-9.864h1.638Zm6.283 10.026c-.756 0-1.433-.126-2.034-.378-.6-.264-1.073-.624-1.422-1.08a2.92 2.92 0 0 1-.576-1.602h1.692c.049.492.276.894.684 1.206.42.312.966.468 1.639.468.623 0 1.116-.138 1.476-.414.36-.276.54-.624.54-1.044 0-.432-.192-.75-.576-.954-.385-.216-.979-.426-1.783-.63a14.665 14.665 0 0 1-1.8-.576 3.418 3.418 0 0 1-1.188-.882c-.323-.396-.486-.912-.486-1.548 0-.504.15-.966.45-1.386.3-.42.727-.75 1.279-.99.552-.252 1.181-.378 1.89-.378 1.091 0 1.974.276 2.645.828.672.552 1.032 1.308 1.08 2.268H23.52c-.035-.516-.245-.93-.63-1.242-.372-.312-.875-.468-1.512-.468-.587 0-1.055.126-1.404.378-.348.252-.521.582-.521.99 0 .324.102.594.306.81.215.204.48.372.791.504.325.12.768.258 1.332.414.708.192 1.284.384 1.728.576.445.18.823.456 1.134.828.325.372.492.858.505 1.458 0 .54-.15 1.026-.45 1.458-.3.432-.726.774-1.279 1.026-.54.24-1.163.36-1.872.36Zm14.66-10.026V138h-1.637v-1.458c-.312.504-.75.9-1.314 1.188a4.047 4.047 0 0 1-1.836.414c-.768 0-1.458-.156-2.07-.468a3.582 3.582 0 0 1-1.458-1.44c-.348-.636-.522-1.41-.522-2.322v-5.778h1.62v5.562c0 .972.246 1.722.738 2.25.492.516 1.164.774 2.016.774.876 0 1.566-.27 2.07-.81.504-.54.756-1.326.756-2.358v-5.418h1.638Zm2.154 4.896c0-1.008.204-1.89.612-2.646a4.446 4.446 0 0 1 1.675-1.782 4.66 4.66 0 0 1 2.393-.63c.864 0 1.614.186 2.25.558.636.372 1.11.84 1.422 1.404v-1.8h1.657V138h-1.656v-1.836c-.325.576-.81 1.056-1.459 1.44-.636.372-1.38.558-2.232.558-.876 0-1.668-.216-2.376-.648-.707-.432-1.265-1.038-1.673-1.818-.409-.78-.613-1.668-.613-2.664Zm8.352.018c0-.744-.15-1.392-.45-1.944a3.098 3.098 0 0 0-1.223-1.26 3.211 3.211 0 0 0-1.674-.45 3.32 3.32 0 0 0-1.675.432 3.134 3.134 0 0 0-1.206 1.26c-.3.552-.45 1.2-.45 1.944 0 .756.15 1.416.45 1.98.3.552.703.978 1.206 1.278a3.314 3.314 0 0 0 1.675.432c.611 0 1.17-.144 1.674-.432.516-.3.924-.726 1.224-1.278.3-.564.45-1.218.45-1.962Zm6.063-8.37V138h-1.639v-13.32h1.639Zm11.568 13.446c-.828 0-1.572-.144-2.232-.432-.648-.3-1.158-.708-1.53-1.224a3.178 3.178 0 0 1-.576-1.818h1.746c.06.588.3 1.086.72 1.494.432.396 1.056.594 1.872.594.78 0 1.392-.192 1.836-.576.456-.396.684-.9.684-1.512 0-.48-.132-.87-.396-1.17a2.53 2.53 0 0 0-.99-.684c-.396-.156-.93-.324-1.602-.504-.828-.216-1.494-.432-1.998-.648a3.318 3.318 0 0 1-1.278-1.008c-.348-.468-.522-1.092-.522-1.872 0-.684.174-1.29.522-1.818.348-.528.834-.936 1.458-1.224.636-.288 1.362-.432 2.178-.432 1.176 0 2.136.294 2.88.882.756.588 1.182 1.368 1.278 2.34h-1.8c-.06-.48-.312-.9-.756-1.26-.444-.372-1.032-.558-1.764-.558-.684 0-1.242.18-1.674.54-.432.348-.648.84-.648 1.476 0 .456.126.828.378 1.116.264.288.582.51.954.666.384.144.918.312 1.602.504.828.228 1.494.456 1.998.684.504.216.936.558 1.296 1.026.36.456.54 1.08.54 1.872 0 .612-.162 1.188-.486 1.728-.324.54-.804.978-1.44 1.314-.636.336-1.386.504-2.25.504Zm8.585-8.64v5.814c0 .48.102.822.305 1.026.205.192.559.288 1.063.288h1.206V138h-1.477c-.911 0-1.596-.21-2.051-.63-.456-.42-.684-1.11-.684-2.07v-5.814h-1.278v-1.35h1.277v-2.484h1.638v2.484h2.575v1.35h-2.575Zm13.306-1.35V138h-1.638v-1.458c-.312.504-.75.9-1.314 1.188a4.047 4.047 0 0 1-1.836.414c-.768 0-1.458-.156-2.07-.468a3.582 3.582 0 0 1-1.458-1.44c-.348-.636-.522-1.41-.522-2.322v-5.778h1.62v5.562c0 .972.246 1.722.738 2.25.492.516 1.164.774 2.016.774.876 0 1.566-.27 2.07-.81.504-.54.756-1.326.756-2.358v-5.418h1.638Zm2.154 4.896c0-1.008.204-1.89.612-2.646a4.446 4.446 0 0 1 1.674-1.782c.72-.42 1.524-.63 2.412-.63.768 0 1.482.18 2.142.54.66.348 1.164.81 1.512 1.386v-5.22h1.656V138h-1.656v-1.854c-.324.588-.804 1.074-1.44 1.458-.636.372-1.38.558-2.232.558a4.564 4.564 0 0 1-2.394-.648c-.708-.432-1.266-1.038-1.674-1.818-.408-.78-.612-1.668-.612-2.664Zm8.352.018c0-.744-.15-1.392-.45-1.944a3.098 3.098 0 0 0-1.224-1.26 3.211 3.211 0 0 0-1.674-.45c-.612 0-1.17.144-1.674.432a3.134 3.134 0 0 0-1.206 1.26c-.3.552-.45 1.2-.45 1.944 0 .756.15 1.416.45 1.98.3.552.702.978 1.206 1.278a3.314 3.314 0 0 0 1.674.432c.612 0 1.17-.144 1.674-.432.516-.3.924-.726 1.224-1.278.3-.564.45-1.218.45-1.962Zm5.27-6.516c-.312 0-.576-.108-.792-.324a1.077 1.077 0 0 1-.324-.792c0-.312.108-.576.324-.792.216-.216.48-.324.792-.324.3 0 .552.108.756.324.216.216.324.48.324.792 0 .312-.108.576-.324.792a.998.998 0 0 1-.756.324Zm.792 1.602V138h-1.638v-9.864h1.638Zm7.094 10.026c-.924 0-1.764-.21-2.52-.63a4.58 4.58 0 0 1-1.764-1.782c-.42-.78-.63-1.68-.63-2.7 0-1.008.216-1.896.648-2.664a4.51 4.51 0 0 1 1.8-1.782c.756-.42 1.602-.63 2.538-.63.936 0 1.782.21 2.538.63.756.408 1.35.996 1.782 1.764.444.768.666 1.662.666 2.682s-.228 1.92-.684 2.7a4.634 4.634 0 0 1-1.818 1.782c-.768.42-1.62.63-2.556.63Zm0-1.44c.588 0 1.14-.138 1.656-.414.516-.276.93-.69 1.242-1.242.324-.552.486-1.224.486-2.016s-.156-1.464-.468-2.016c-.312-.552-.72-.96-1.224-1.224a3.356 3.356 0 0 0-1.638-.414c-.6 0-1.152.138-1.656.414-.492.264-.888.672-1.188 1.224-.3.552-.45 1.224-.45 2.016 0 .804.144 1.482.432 2.034.3.552.696.966 1.188 1.242a3.372 3.372 0 0 0 1.62.396Z" fill="#A0A0A0"/><path d="M101.28 11.902 80.626 3.623l-36.05 35.108-21.71-16.526-8.256 4.152-.008 43.339 8.216 4.121L44.51 57.305 80.65 92.38l20.638-8.247-.008-72.232Z" fill="#CFCFCF" stroke="#fff" stroke-width="6.191"/><path d="M78.57 32.531 57.942 47.953 78.58 63.495l-.008-30.964Zm-53.654 6.217.013 18.55 10.306-9.338-10.319-9.212Z" fill="#fff"/></svg>