<svg width="182" height="105" viewBox="0 0 182 105" fill="none" xmlns="http://www.w3.org/2000/svg">
<path d="M94.004 24.664C94.004 28.5655 90.7661 31.7285 86.7715 31.7285C82.7765 31.7285 79.5386 28.5655 79.5386 24.664C79.5386 20.7625 82.7765 17.5994 86.7715 17.5994C90.7661 17.5994 94.004 20.7625 94.004 24.664Z" fill="#858585"/>
<path d="M108.309 14.7733C108.309 18.6743 105.071 21.8379 101.077 21.8379C97.0817 21.8379 93.8438 18.6743 93.8438 14.7733C93.8438 10.8718 97.0817 7.70827 101.077 7.70827C105.071 7.70827 108.309 10.8718 108.309 14.7733Z" fill="#848484"/>
<path d="M90.6294 14.6171C90.6294 18.5181 87.3915 21.6816 83.3965 21.6816C79.4025 21.6816 76.1641 18.5181 76.1641 14.6171C76.1641 10.7156 79.4025 7.55202 83.3965 7.55202C87.3915 7.55202 90.6294 10.7156 90.6294 14.6171Z" fill="#9A9A9A"/>
<path d="M105.095 24.664C105.095 28.5655 101.857 31.7285 97.8613 31.7285C93.8674 31.7285 90.6289 28.5655 90.6289 24.664C90.6289 20.7625 93.8674 17.5994 97.8613 17.5994C101.857 17.5994 105.095 20.7625 105.095 24.664Z" fill="#878787"/>
<path d="M99.4693 8.33779C99.4693 12.2393 96.2309 15.4023 92.2364 15.4023C88.2419 15.4023 85.0034 12.2393 85.0034 8.33779C85.0034 4.43629 88.2419 1.27324 92.2364 1.27324C96.2309 1.27324 99.4693 4.43629 99.4693 8.33779Z" fill="#777777"/>
<path d="M93.8442 14.7742C93.8442 14.9228 93.8575 15.0683 93.867 15.2148C97.0753 14.4919 99.4696 11.6903 99.4696 8.33724C99.4696 8.18861 99.4564 8.04258 99.4468 7.89603C96.2386 8.61947 93.8442 11.4211 93.8442 14.7742Z" fill="#555454"/>
<path d="M94.7969 18.2714C96.0434 20.3998 98.3858 21.8379 101.076 21.8379C102.172 21.8379 103.208 21.5924 104.139 21.1657C102.894 19.0373 100.551 17.5993 97.8604 17.5993C96.7639 17.5993 95.7284 17.8447 94.7969 18.2714" fill="#6A6A6A"/>
<path d="M90.6289 24.665C90.6289 26.391 91.2641 27.9705 92.3171 29.1973C93.369 27.9705 94.0041 26.391 94.0041 24.665C94.0041 22.939 93.369 21.3596 92.3171 20.1328C91.2641 21.3596 90.6289 22.939 90.6289 24.665" fill="#6A6A6A"/>
<path d="M80.5322 21.1032C81.4108 21.474 82.3778 21.6816 83.3958 21.6816C86.0595 21.6816 88.3802 20.2715 89.6357 18.1778C88.7572 17.8071 87.7896 17.5999 86.7721 17.5999C84.1084 17.5999 81.7872 19.01 80.5322 21.1032" fill="#6A6A6A"/>
<path d="M85.0352 7.74131C85.0182 7.93809 85.0039 8.13591 85.0039 8.33735C85.0039 11.6879 87.3946 14.4869 90.5991 15.2129C90.6155 15.0161 90.6298 14.8183 90.6298 14.6174C90.6298 11.2668 88.2397 8.46682 85.0352 7.74131Z" fill="#5F5F5F"/>
<path d="M85.7121 23.7905H84.5807C83.5818 23.7905 82.7695 22.9998 82.7695 22.0267V12.0239C82.7695 11.0508 83.5818 10.2595 84.5807 10.2595H98.7683C99.7672 10.2595 100.579 11.0508 100.579 12.0239V22.0267C100.579 22.9998 99.7672 23.7905 98.7683 23.7905H93.935L84.2377 28.4336L85.7121 23.7905Z" fill="white"/>
<path d="M21.3933 25.3632L17.4101 10.9342L13.3764 25.3632C13.0627 26.4575 12.8106 27.2455 12.6201 27.7269C12.4409 28.1975 12.1215 28.6243 11.6621 29.0073C11.2028 29.3794 10.5921 29.5655 9.83023 29.5655C9.21399 29.5655 8.7042 29.4505 8.30083 29.2207C7.90868 29.0019 7.58936 28.69 7.34286 28.2851C7.09636 27.8692 6.89468 27.3822 6.73781 26.8241C6.58095 26.255 6.44089 25.7297 6.31765 25.2482L2.21692 9.04618C1.97042 8.10503 1.84717 7.38822 1.84717 6.89575C1.84717 6.27197 2.07125 5.74669 2.51943 5.31989C2.9676 4.89309 3.52221 4.67969 4.18327 4.67969C5.09083 4.67969 5.70148 4.96422 6.01521 5.53328C6.32893 6.10234 6.60344 6.9286 6.83874 8.01205L10.0656 22.0637L13.6791 8.91507C13.948 7.90826 14.1889 7.14221 14.4018 6.61693C14.6147 6.09163 14.962 5.63747 15.4438 5.25445C15.9256 4.87143 16.581 4.67992 17.4102 4.67992C18.2505 4.67992 18.9004 4.88238 19.3597 5.28729C19.8303 5.68126 20.1553 6.11353 20.3345 6.58409C20.5138 7.05467 20.7547 7.83166 21.0572 8.91507L24.7043 22.0637L27.9311 8.01205C28.088 7.27884 28.2336 6.7043 28.3681 6.28844C28.5138 5.87258 28.7547 5.50049 29.0908 5.17219C29.4381 4.84388 29.9367 4.67973 30.5866 4.67973C31.2364 4.67973 31.7855 4.89313 32.2336 5.31993C32.693 5.73579 32.9227 6.26109 32.9227 6.8958C32.9227 7.34449 32.7995 8.0613 32.553 9.04622L28.4522 25.2483C28.1721 26.3426 27.9368 27.147 27.7464 27.6613C27.5671 28.1647 27.2534 28.6079 26.8052 28.9909C26.3682 29.3739 25.7464 29.5655 24.9397 29.5655C24.1777 29.5655 23.5671 29.3794 23.1077 29.0073C22.6484 28.6353 22.329 28.2194 22.1498 27.7598C21.9705 27.2892 21.7184 26.4903 21.3935 25.363L21.3933 25.3632Z" fill="#6A6A6A"/>
<path d="M47.8625 21.5538H38.8878C38.899 22.5716 39.1062 23.4689 39.5096 24.2459C39.9242 25.0229 40.4676 25.6084 41.1399 26.0024C41.8233 26.3963 42.574 26.5933 43.392 26.5933C43.941 26.5933 44.4396 26.5331 44.8877 26.4128C45.3471 26.2814 45.7897 26.0845 46.2155 25.8218C46.6412 25.5482 47.0334 25.2582 47.3919 24.9518C47.7505 24.6454 48.2155 24.2295 48.7869 23.7042C49.0222 23.5072 49.3583 23.4088 49.7953 23.4088C50.2659 23.4088 50.6468 23.5346 50.9382 23.7863C51.2295 24.038 51.3751 24.3937 51.3751 24.8533C51.3751 25.2582 51.2127 25.7342 50.8878 26.2814C50.5628 26.8177 50.0698 27.3375 49.4088 27.8409C48.7589 28.3333 47.9354 28.7437 46.9382 29.0721C45.9522 29.4004 44.815 29.5645 43.5265 29.5645C40.5797 29.5645 38.2884 28.7437 36.6526 27.1022C35.0167 25.4607 34.1987 23.2337 34.1987 20.4211C34.1987 19.097 34.4004 17.8713 34.8038 16.744C35.2071 15.6059 35.7954 14.6319 36.5685 13.8221C37.3416 13.0123 38.294 12.394 39.4256 11.9672C40.5573 11.5294 41.8122 11.3105 43.1904 11.3105C44.9832 11.3105 46.5183 11.6826 47.7955 12.4268C49.0841 13.16 50.0476 14.1121 50.6862 15.2832C51.3249 16.4541 51.6442 17.647 51.6442 18.8618C51.6442 19.989 51.3137 20.7222 50.6526 21.0615C49.9916 21.3898 49.0616 21.5539 47.8628 21.5539L47.8625 21.5538ZM38.8878 19.0095H47.207C47.095 17.4774 46.6692 16.3338 45.9297 15.5787C45.2014 14.8127 44.2378 14.4296 43.039 14.4296C41.8962 14.4296 40.955 14.8181 40.2154 15.5951C39.4871 16.3612 39.0445 17.4993 38.8877 19.0094L38.8878 19.0095Z" fill="#6A6A6A"/>
<path d="M59.2572 7.24244V14.0876C60.1199 13.2121 60.9995 12.5445 61.8959 12.0849C62.7923 11.6143 63.9016 11.379 65.2237 11.379C66.7475 11.379 68.0809 11.7347 69.2238 12.446C70.3779 13.1464 71.2686 14.1696 71.8961 15.5157C72.5347 16.8508 72.8541 18.4377 72.8541 20.2762C72.8541 21.6332 72.6748 22.8808 72.3162 24.0189C71.9689 25.1461 71.4591 26.1255 70.7868 26.9573C70.1146 27.789 69.2966 28.4347 68.333 28.8943C67.3806 29.343 66.3274 29.5673 65.1734 29.5673C64.4675 29.5673 63.8009 29.4853 63.1734 29.3211C62.5572 29.157 62.0306 28.9436 61.5936 28.6809C61.1566 28.4073 60.7813 28.1283 60.4676 27.8437C60.165 27.5592 59.7617 27.1324 59.2575 26.5633V27.0065C59.2575 27.8492 59.0502 28.4894 58.6357 28.9271C58.2211 29.3539 57.6945 29.5673 57.0558 29.5673C56.406 29.5673 55.885 29.3539 55.4928 28.9271C55.1119 28.4894 54.9214 27.8492 54.9214 27.0065V7.43942C54.9214 6.5311 55.1063 5.84714 55.476 5.38751C55.8569 4.91693 56.3836 4.68164 57.0558 4.68164C57.7617 4.68164 58.3051 4.90598 58.6861 5.35467C59.067 5.79241 59.2575 6.42166 59.2575 7.24244H59.2572ZM59.4757 20.5553C59.4757 22.3391 59.8903 23.7125 60.7194 24.6756C61.5597 25.6277 62.6578 26.1038 64.0136 26.1038C65.1676 26.1038 66.1592 25.6168 66.9883 24.6428C67.8286 23.6579 68.2488 22.2516 68.2488 20.424C68.2488 19.2421 68.0751 18.2244 67.7278 17.3708C67.3804 16.5172 66.8874 15.8606 66.2488 15.401C65.6101 14.9304 64.865 14.6951 64.0135 14.6951C63.1395 14.6951 62.3608 14.9304 61.6774 15.401C60.9939 15.8606 60.4561 16.5336 60.0639 17.42C59.6718 18.2955 59.4757 19.3406 59.4757 20.5553V20.5553Z" fill="#6A6A6A"/>
<path d="M119.064 18.3324H117.226V26.4639C117.226 27.5342 116.984 28.3226 116.501 28.829C116.018 29.3354 115.387 29.5886 114.61 29.5886C113.773 29.5886 113.125 29.3239 112.665 28.7945C112.206 28.2651 111.976 27.4882 111.976 26.4638V6.98983C111.976 5.88492 112.229 5.08499 112.736 4.59002C113.243 4.09511 114.062 3.84766 115.193 3.84766H123.731C124.909 3.84766 125.916 3.89946 126.753 4.00304C127.59 4.09512 128.344 4.29077 129.015 4.59001C129.829 4.92378 130.547 5.40143 131.172 6.02294C131.796 6.64446 132.268 7.36956 132.586 8.19823C132.916 9.01541 133.081 9.88441 133.081 10.8052C133.081 12.6928 132.533 14.2005 131.437 15.3284C130.353 16.4563 128.703 17.2562 126.488 17.7282C127.419 18.2116 128.308 18.9251 129.157 19.8689C130.005 20.8127 130.76 21.8197 131.419 22.8901C132.091 23.9489 132.61 24.91 132.975 25.7731C133.352 26.6248 133.541 27.2118 133.541 27.534C133.541 27.8678 133.429 28.2016 133.205 28.5354C132.993 28.8576 132.698 29.1108 132.321 29.295C131.944 29.4906 131.508 29.5884 131.013 29.5884C130.424 29.5884 129.929 29.4503 129.528 29.1741C129.128 28.9094 128.78 28.5699 128.485 28.1555C128.202 27.7412 127.814 27.1312 127.319 26.3255L125.215 22.9072C124.461 21.6526 123.784 20.6974 123.183 20.0414C122.593 19.3853 121.992 18.9365 121.38 18.6948C120.767 18.4531 119.995 18.3322 119.064 18.3322L119.064 18.3324ZM122.069 7.6977H117.226V14.6553H121.927C123.188 14.6553 124.249 14.5517 125.109 14.3445C125.969 14.1258 126.623 13.7633 127.071 13.2569C127.531 12.7389 127.761 12.0311 127.761 11.1334C127.761 10.4313 127.578 9.81551 127.213 9.28608C126.847 8.74513 126.341 8.3423 125.692 8.07758C125.08 7.82438 123.872 7.69777 122.069 7.69777V7.6977Z" fill="#6A6A6A"/>
<path d="M153.126 8.07744H147.399V26.4639C147.399 27.5227 147.157 28.3111 146.674 28.829C146.191 29.3354 145.566 29.5886 144.8 29.5886C144.023 29.5886 143.386 29.3297 142.891 28.8118C142.408 28.2938 142.167 27.5112 142.167 26.4638V8.07741H136.44C135.544 8.07741 134.879 7.8875 134.443 7.50769C134.007 7.11637 133.789 6.6042 133.789 5.97116C133.789 5.31512 134.012 4.7972 134.46 4.41738C134.92 4.03757 135.58 3.84766 136.44 3.84766H153.126C154.033 3.84766 154.705 4.04332 155.141 4.43463C155.589 4.82595 155.813 5.33813 155.813 5.97116C155.813 6.60418 155.589 7.11635 155.141 7.50769C154.693 7.8875 154.022 8.07741 153.126 8.07741L153.126 8.07744Z" fill="#6A6A6A"/>
<path d="M180.083 21.1635C180.083 21.9692 179.876 22.8439 179.464 23.7877C179.063 24.72 178.427 25.6408 177.555 26.5501C176.683 27.4478 175.569 28.1787 174.214 28.7426C172.859 29.3066 171.28 29.5886 169.477 29.5886C168.11 29.5886 166.867 29.462 165.748 29.2088C164.628 28.9556 163.609 28.5643 162.69 28.0348C161.782 27.4939 160.946 26.786 160.18 25.9113C159.496 25.1172 158.913 24.2309 158.43 23.2527C157.947 22.2629 157.581 21.2098 157.334 20.0934C157.098 18.977 156.98 17.7915 156.98 16.537C156.98 14.4998 157.281 12.6755 157.882 11.0641C158.495 9.4528 159.367 8.0774 160.498 6.93796C161.629 5.78702 162.955 4.91228 164.475 4.31376C165.995 3.71526 167.616 3.41602 169.336 3.41602C171.434 3.41602 173.301 3.8246 174.939 4.64178C176.577 5.45895 177.832 6.47181 178.704 7.68037C179.576 8.87736 180.012 10.0111 180.012 11.0815C180.012 11.6685 179.8 12.1864 179.376 12.6353C178.952 13.0841 178.439 13.3086 177.838 13.3086C177.167 13.3086 176.66 13.1532 176.318 12.8424C175.988 12.5317 175.617 11.9965 175.205 11.2369C174.521 9.98234 173.714 9.04435 172.783 8.42292C171.864 7.8014 170.727 7.49064 169.372 7.49064C167.215 7.49064 165.495 8.29058 164.21 9.89045C162.938 11.4903 162.301 13.7635 162.301 16.7099C162.301 18.678 162.584 20.3181 163.15 21.6302C163.715 22.9308 164.517 23.9033 165.554 24.5479C166.591 25.1924 167.804 25.5147 169.195 25.5147C170.703 25.5147 171.976 25.1521 173.013 24.427C174.061 23.6904 174.851 22.6143 175.381 21.1987C175.605 20.5311 175.882 19.9902 176.212 19.5758C176.542 19.15 177.072 18.937 177.803 18.937C178.427 18.937 178.964 19.15 179.411 19.5758C179.859 20.0017 180.083 20.5311 180.083 21.1641L180.083 21.1635Z" fill="#6A6A6A"/>
<path d="M70.6188 82.454L66.9828 95H65.1468L62.2308 84.902L59.2068 95L57.3888 95.018L53.8788 82.454H55.6248L58.3608 93.092L61.3848 82.454H63.2208L66.1008 93.056L68.8548 82.454H70.6188ZM81.4114 89.69C81.4114 90.002 81.3934 90.332 81.3574 90.68H73.4734C73.5334 91.652 73.8634 92.414 74.4634 92.966C75.0754 93.506 75.8134 93.776 76.6774 93.776C77.3854 93.776 77.9734 93.614 78.4414 93.29C78.9214 92.954 79.2574 92.51 79.4494 91.958H81.2134C80.9494 92.906 80.4214 93.68 79.6294 94.28C78.8374 94.868 77.8534 95.162 76.6774 95.162C75.7414 95.162 74.9014 94.952 74.1574 94.532C73.4254 94.112 72.8494 93.518 72.4294 92.75C72.0094 91.97 71.7994 91.07 71.7994 90.05C71.7994 89.03 72.0034 88.136 72.4114 87.368C72.8194 86.6 73.3894 86.012 74.1214 85.604C74.8654 85.184 75.7174 84.974 76.6774 84.974C77.6134 84.974 78.4414 85.178 79.1614 85.586C79.8814 85.994 80.4334 86.558 80.8174 87.278C81.2134 87.986 81.4114 88.79 81.4114 89.69ZM79.7194 89.348C79.7194 88.724 79.5814 88.19 79.3054 87.746C79.0294 87.29 78.6514 86.948 78.1714 86.72C77.7034 86.48 77.1814 86.36 76.6054 86.36C75.7774 86.36 75.0694 86.624 74.4814 87.152C73.9054 87.68 73.5754 88.412 73.4914 89.348H79.7194ZM85.2115 86.972C85.5475 86.384 86.0395 85.904 86.6875 85.532C87.3355 85.16 88.0735 84.974 88.9015 84.974C89.7895 84.974 90.5875 85.184 91.2955 85.604C92.0035 86.024 92.5615 86.618 92.9695 87.386C93.3775 88.142 93.5815 89.024 93.5815 90.032C93.5815 91.028 93.3775 91.916 92.9695 92.696C92.5615 93.476 91.9975 94.082 91.2775 94.514C90.5695 94.946 89.7775 95.162 88.9015 95.162C88.0495 95.162 87.2995 94.976 86.6515 94.604C86.0155 94.232 85.5355 93.758 85.2115 93.182V95H83.5735V81.68H85.2115V86.972ZM91.9075 90.032C91.9075 89.288 91.7575 88.64 91.4575 88.088C91.1575 87.536 90.7495 87.116 90.2335 86.828C89.7295 86.54 89.1715 86.396 88.5595 86.396C87.9595 86.396 87.4015 86.546 86.8855 86.846C86.3815 87.134 85.9735 87.56 85.6615 88.124C85.3615 88.676 85.2115 89.318 85.2115 90.05C85.2115 90.794 85.3615 91.448 85.6615 92.012C85.9735 92.564 86.3815 92.99 86.8855 93.29C87.4015 93.578 87.9595 93.722 88.5595 93.722C89.1715 93.722 89.7295 93.578 90.2335 93.29C90.7495 92.99 91.1575 92.564 91.4575 92.012C91.7575 91.448 91.9075 90.788 91.9075 90.032ZM102.344 95L99.3556 89.87H97.3756V95H95.7376V82.454H99.7876C100.736 82.454 101.534 82.616 102.182 82.94C102.842 83.264 103.334 83.702 103.658 84.254C103.982 84.806 104.144 85.436 104.144 86.144C104.144 87.008 103.892 87.77 103.388 88.43C102.896 89.09 102.152 89.528 101.156 89.744L104.306 95H102.344ZM97.3756 88.556H99.7876C100.676 88.556 101.342 88.34 101.786 87.908C102.23 87.464 102.452 86.876 102.452 86.144C102.452 85.4 102.23 84.824 101.786 84.416C101.354 84.008 100.688 83.804 99.7876 83.804H97.3756V88.556ZM114.411 82.454V83.786H110.991V95H109.353V83.786H105.915V82.454H114.411ZM115.815 88.718C115.815 87.494 116.091 86.396 116.643 85.424C117.195 84.44 117.945 83.672 118.893 83.12C119.853 82.568 120.915 82.292 122.079 82.292C123.447 82.292 124.641 82.622 125.661 83.282C126.681 83.942 127.425 84.878 127.893 86.09H125.931C125.583 85.334 125.079 84.752 124.419 84.344C123.771 83.936 122.991 83.732 122.079 83.732C121.203 83.732 120.417 83.936 119.721 84.344C119.025 84.752 118.479 85.334 118.083 86.09C117.687 86.834 117.489 87.71 117.489 88.718C117.489 89.714 117.687 90.59 118.083 91.346C118.479 92.09 119.025 92.666 119.721 93.074C120.417 93.482 121.203 93.686 122.079 93.686C122.991 93.686 123.771 93.488 124.419 93.092C125.079 92.684 125.583 92.102 125.931 91.346H127.893C127.425 92.546 126.681 93.476 125.661 94.136C124.641 94.784 123.447 95.108 122.079 95.108C120.915 95.108 119.853 94.838 118.893 94.298C117.945 93.746 117.195 92.984 116.643 92.012C116.091 91.04 115.815 89.942 115.815 88.718Z" fill="#A0A0A0"/>
</svg>
