<svg width="208" height="127" viewBox="0 0 208 127" fill="none" xmlns="http://www.w3.org/2000/svg"><path d="M191.362 21c-.506 0-.997.105-1.432.351l-13.767 7.963a2.908 2.908 0 0 0-1.433 2.518V47.73c0 1.033.542 2.002 1.433 2.518l3.595 2.079c1.747.862 2.391.849 3.186.849 2.586 0 4.063-1.572 4.063-4.304V33.18c0-.222-.192-.38-.409-.38h-1.725c-.221 0-.409.158-.409.38V48.87c0 1.21-1.259 2.428-3.303 1.405l-3.741-2.195c-.133-.072-.234-.2-.234-.352V31.832c0-.15.1-.304.234-.38l13.737-7.934a.406.406 0 0 1 .409 0l13.739 7.934c.13.079.233.225.233.38V47.73a.442.442 0 0 1-.204.38l-13.768 7.934a.422.422 0 0 1-.409 0l-3.536-2.108a.369.369 0 0 0-.351 0c-.976.554-1.16.619-2.075.937-.226.079-.568.201.117.586l4.618 2.722c.435.252.929.383 1.432.38.503.004.997-.127 1.432-.38l13.767-7.934a2.912 2.912 0 0 0 1.432-2.517V31.832a2.907 2.907 0 0 0-1.432-2.517l-13.767-7.963c-.431-.247-.926-.352-1.432-.352Z" fill="#A3A3A3"/><path d="M195.043 32.36c-3.92 0-6.255 1.67-6.255 4.45 0 3.014 2.317 3.842 6.08 4.215 4.501.441 4.852 1.103 4.852 1.99 0 1.54-1.226 2.196-4.121 2.196-3.639 0-4.439-.91-4.706-2.722-.032-.195-.182-.352-.381-.352h-1.783a.418.418 0 0 0-.409.41c0 2.32 1.26 5.065 7.279 5.065 4.356 0 6.868-1.713 6.868-4.713 0-2.975-2.029-3.774-6.255-4.333-4.27-.566-4.677-.843-4.677-1.845 0-.826.346-1.932 3.508-1.932 2.825 0 3.869.61 4.297 2.518a.4.4 0 0 0 .38.322h1.783c.11 0 .216-.068.292-.147.075-.084.128-.179.117-.292-.276-3.285-2.463-4.83-6.869-4.83Z" fill="#A3A3A3"/><path d="M110.426.156a.884.884 0 0 0-.439.116.886.886 0 0 0-.439.762V23.43a.59.59 0 0 1-.599.61.607.607 0 0 1-.306-.083l-3.654-2.108a1.75 1.75 0 0 0-1.754 0L88.65 30.281a1.8 1.8 0 0 0-.877 1.552v16.863c0 .63.332 1.206.877 1.522l14.585 8.431a1.744 1.744 0 0 0 1.754 0l14.585-8.431a1.752 1.752 0 0 0 .877-1.523V6.656a1.784 1.784 0 0 0-.906-1.552l-8.681-4.86a.85.85 0 0 0-.438-.087Zm-93.827 21.05c-.278.01-.54.059-.789.204L1.224 29.84a1.75 1.75 0 0 0-.876 1.523l.029 22.63c0 .315.162.608.438.762a.85.85 0 0 0 .877 0l8.652-4.977c.548-.326.906-.894.906-1.523V37.689c0-.631.331-1.21.877-1.523l3.683-2.137c.266-.155.569-.236.877-.234.3 0 .61.075.877.234l3.683 2.137a1.747 1.747 0 0 1 .877 1.523v10.568c0 .63.361 1.2.906 1.523l8.651 4.977a.85.85 0 0 0 .878 0 .88.88 0 0 0 .438-.761l.029-22.631a1.743 1.743 0 0 0-.877-1.523L17.564 21.41c-.247-.145-.51-.193-.79-.205H16.6Zm131.065.204c-.305 0-.604.077-.877.234l-14.585 8.432a1.761 1.761 0 0 0-.878 1.522v16.863c0 .635.357 1.209.906 1.523l14.469 8.256a1.753 1.753 0 0 0 1.725.028l8.769-4.889a.887.887 0 0 0 .467-.76.862.862 0 0 0-.438-.762l-14.673-8.432a.946.946 0 0 1-.468-.79v-5.27c0-.315.195-.604.468-.76l4.559-2.636a.878.878 0 0 1 .877 0l4.56 2.635a.877.877 0 0 1 .438.761v4.157a.88.88 0 0 0 .439.761.866.866 0 0 0 .876 0l8.74-5.093a1.756 1.756 0 0 0 .877-1.523v-4.069c0-.628-.333-1.206-.877-1.522l-14.497-8.432a1.737 1.737 0 0 0-.877-.234Zm-43.611 12.589c.077 0 .166.018.234.058l4.999 2.898a.456.456 0 0 1 .234.38v5.797a.453.453 0 0 1-.234.381l-4.999 2.899a.44.44 0 0 1-.438 0l-4.998-2.899a.454.454 0 0 1-.234-.38v-5.797c0-.157.098-.301.234-.38l4.998-2.899a.382.382 0 0 1 .205-.058h-.001Z" fill="#404137"/><path d="M60.413 21.322c-.303 0-.604.078-.876.235L44.95 29.959a1.798 1.798 0 0 0-.877 1.552v16.863c0 .63.332 1.206.877 1.522l14.586 8.431a1.745 1.745 0 0 0 1.754 0l14.585-8.43a1.753 1.753 0 0 0 .877-1.523V31.51c0-.631-.332-1.237-.877-1.552L61.29 21.557a1.744 1.744 0 0 0-.877-.235Zm87.221 15.049c-.058 0-.123 0-.175.029l-2.806 1.64a.346.346 0 0 0-.176.292v3.22c0 .122.07.233.176.293l2.806 1.61a.304.304 0 0 0 .321 0l2.806-1.61a.348.348 0 0 0 .176-.293v-3.22a.348.348 0 0 0-.176-.293l-2.806-1.64c-.052-.03-.088-.028-.146-.028Z" fill="#A3A3A3"/><path d="M82.25 117h-1.638l-6.588-9.99V117h-1.638v-12.564h1.638l6.588 9.972v-9.972h1.638V117Zm7.094.162c-.924 0-1.764-.21-2.52-.63a4.58 4.58 0 0 1-1.764-1.782c-.42-.78-.63-1.68-.63-2.7 0-1.008.216-1.896.648-2.664a4.51 4.51 0 0 1 1.8-1.782c.756-.42 1.602-.63 2.538-.63.936 0 1.782.21 2.538.63.756.408 1.35.996 1.782 1.764.444.768.666 1.662.666 2.682s-.228 1.92-.684 2.7a4.634 4.634 0 0 1-1.818 1.782c-.768.42-1.62.63-2.556.63Zm0-1.44c.588 0 1.14-.138 1.656-.414.516-.276.93-.69 1.242-1.242.324-.552.486-1.224.486-2.016s-.156-1.464-.468-2.016c-.312-.552-.72-.96-1.224-1.224a3.356 3.356 0 0 0-1.638-.414c-.6 0-1.152.138-1.656.414-.492.264-.888.672-1.188 1.224-.3.552-.45 1.224-.45 2.016 0 .804.144 1.482.432 2.034.3.552.696.966 1.188 1.242a3.372 3.372 0 0 0 1.62.396Zm6.6-3.69c0-1.008.204-1.89.612-2.646a4.446 4.446 0 0 1 1.674-1.782c.72-.42 1.524-.63 2.412-.63.768 0 1.482.18 2.142.54.66.348 1.164.81 1.512 1.386v-5.22h1.656V117h-1.656v-1.854c-.324.588-.804 1.074-1.44 1.458-.636.372-1.38.558-2.232.558a4.565 4.565 0 0 1-2.394-.648c-.708-.432-1.266-1.038-1.674-1.818-.408-.78-.612-1.668-.612-2.664Zm8.352.018c0-.744-.15-1.392-.45-1.944a3.098 3.098 0 0 0-1.224-1.26 3.211 3.211 0 0 0-1.674-.45c-.612 0-1.17.144-1.674.432a3.134 3.134 0 0 0-1.206 1.26c-.3.552-.45 1.2-.45 1.944 0 .756.15 1.416.45 1.98.3.552.702.978 1.206 1.278a3.315 3.315 0 0 0 1.674.432c.612 0 1.17-.144 1.674-.432.516-.3.924-.726 1.224-1.278.3-.564.45-1.218.45-1.962Zm13.424-.36c0 .312-.018.642-.054.99h-7.884c.06.972.39 1.734.99 2.286.612.54 1.35.81 2.214.81.708 0 1.296-.162 1.764-.486.48-.336.816-.78 1.008-1.332h1.764a4.284 4.284 0 0 1-1.584 2.322c-.792.588-1.776.882-2.952.882-.936 0-1.776-.21-2.52-.63a4.492 4.492 0 0 1-1.728-1.782c-.42-.78-.63-1.68-.63-2.7 0-1.02.204-1.914.612-2.682a4.254 4.254 0 0 1 1.71-1.764c.744-.42 1.596-.63 2.556-.63.936 0 1.764.204 2.484.612.72.408 1.272.972 1.656 1.692.396.708.594 1.512.594 2.412Zm-1.692-.342c0-.624-.138-1.158-.414-1.602a2.605 2.605 0 0 0-1.134-1.026c-.468-.24-.99-.36-1.566-.36-.828 0-1.536.264-2.124.792-.576.528-.906 1.26-.99 2.196h6.228Zm4.376 5.76c-.312 0-.576-.108-.792-.324a1.077 1.077 0 0 1-.324-.792c0-.312.108-.576.324-.792.216-.216.48-.324.792-.324.3 0 .552.108.756.324.216.216.324.48.324.792 0 .312-.108.576-.324.792a.998.998 0 0 1-.756.324Zm4.139-11.574c-.312 0-.576-.108-.792-.324a1.11 1.11 0 0 1-.306-.792c0-.312.102-.576.306-.792.216-.216.48-.324.792-.324.312 0 .57.108.774.324.216.216.324.48.324.792 0 .312-.108.576-.324.792a1.019 1.019 0 0 1-.774.324Zm.81 13.608c0 .876-.222 1.518-.666 1.926-.444.408-1.092.612-1.944.612h-.954v-1.386h.684c.456 0 .774-.09.954-.27.192-.18.288-.486.288-.918v-11.97h1.638v12.006Zm6.265-1.98c-.756 0-1.434-.126-2.034-.378-.6-.264-1.074-.624-1.422-1.08a2.92 2.92 0 0 1-.576-1.602h1.692c.048.492.276.894.684 1.206.42.312.966.468 1.638.468.624 0 1.116-.138 1.476-.414.36-.276.54-.624.54-1.044 0-.432-.192-.75-.576-.954-.384-.216-.978-.426-1.782-.63a14.665 14.665 0 0 1-1.8-.576 3.418 3.418 0 0 1-1.188-.882c-.324-.396-.486-.912-.486-1.548 0-.504.15-.966.45-1.386.3-.42.726-.75 1.278-.99.552-.252 1.182-.378 1.89-.378 1.092 0 1.974.276 2.646.828.672.552 1.032 1.308 1.08 2.268h-1.638c-.036-.516-.246-.93-.63-1.242-.372-.312-.876-.468-1.512-.468-.588 0-1.056.126-1.404.378-.348.252-.522.582-.522.99 0 .324.102.594.306.81.216.204.48.372.792.504.324.12.768.258 1.332.414.708.192 1.284.384 1.728.576.444.18.822.456 1.134.828.324.372.492.858.504 1.458 0 .54-.15 1.026-.45 1.458-.3.432-.726.774-1.278 1.026-.54.24-1.164.36-1.872.36Z" fill="#A0A0A0"/></svg>