<svg width="149" height="138" viewBox="0 0 149 138" fill="none" xmlns="http://www.w3.org/2000/svg">
<g>
<path d="M14.112 115.544V128H12.474V118.712L8.334 128H7.182L3.024 118.694V128H1.386V115.544H3.15L7.758 125.84L12.366 115.544H14.112ZM17.7359 116.534C17.4239 116.534 17.1599 116.426 16.9439 116.21C16.7279 115.994 16.6199 115.73 16.6199 115.418C16.6199 115.106 16.7279 114.842 16.9439 114.626C17.1599 114.41 17.4239 114.302 17.7359 114.302C18.0359 114.302 18.2879 114.41 18.4919 114.626C18.7079 114.842 18.8159 115.106 18.8159 115.418C18.8159 115.73 18.7079 115.994 18.4919 116.21C18.2879 116.426 18.0359 116.534 17.7359 116.534ZM18.5279 118.136V128H16.8899V118.136H18.5279ZM20.7076 123.05C20.7076 122.03 20.9116 121.142 21.3196 120.386C21.7276 119.618 22.2916 119.024 23.0116 118.604C23.7436 118.184 24.5776 117.974 25.5136 117.974C26.7256 117.974 27.7216 118.268 28.5016 118.856C29.2936 119.444 29.8156 120.26 30.0676 121.304H28.3036C28.1356 120.704 27.8056 120.23 27.3136 119.882C26.8336 119.534 26.2336 119.36 25.5136 119.36C24.5776 119.36 23.8216 119.684 23.2456 120.332C22.6696 120.968 22.3816 121.874 22.3816 123.05C22.3816 124.238 22.6696 125.156 23.2456 125.804C23.8216 126.452 24.5776 126.776 25.5136 126.776C26.2336 126.776 26.8336 126.608 27.3136 126.272C27.7936 125.936 28.1236 125.456 28.3036 124.832H30.0676C29.8036 125.84 29.2756 126.65 28.4836 127.262C27.6916 127.862 26.7016 128.162 25.5136 128.162C24.5776 128.162 23.7436 127.952 23.0116 127.532C22.2916 127.112 21.7276 126.518 21.3196 125.75C20.9116 124.982 20.7076 124.082 20.7076 123.05ZM33.8912 119.738C34.1792 119.174 34.5872 118.736 35.1152 118.424C35.6552 118.112 36.3092 117.956 37.0772 117.956V119.648H36.6452C34.8092 119.648 33.8912 120.644 33.8912 122.636V128H32.2532V118.136H33.8912V119.738ZM43.27 128.162C42.346 128.162 41.506 127.952 40.75 127.532C40.006 127.112 39.418 126.518 38.986 125.75C38.566 124.97 38.356 124.07 38.356 123.05C38.356 122.042 38.572 121.154 39.004 120.386C39.448 119.606 40.048 119.012 40.804 118.604C41.56 118.184 42.406 117.974 43.342 117.974C44.278 117.974 45.124 118.184 45.88 118.604C46.636 119.012 47.23 119.6 47.662 120.368C48.106 121.136 48.328 122.03 48.328 123.05C48.328 124.07 48.1 124.97 47.644 125.75C47.2 126.518 46.594 127.112 45.826 127.532C45.058 127.952 44.206 128.162 43.27 128.162ZM43.27 126.722C43.858 126.722 44.41 126.584 44.926 126.308C45.442 126.032 45.856 125.618 46.168 125.066C46.492 124.514 46.654 123.842 46.654 123.05C46.654 122.258 46.498 121.586 46.186 121.034C45.874 120.482 45.466 120.074 44.962 119.81C44.458 119.534 43.912 119.396 43.324 119.396C42.724 119.396 42.172 119.534 41.668 119.81C41.176 120.074 40.78 120.482 40.48 121.034C40.18 121.586 40.03 122.258 40.03 123.05C40.03 123.854 40.174 124.532 40.462 125.084C40.762 125.636 41.158 126.05 41.65 126.326C42.142 126.59 42.682 126.722 43.27 126.722ZM53.9737 128.162C53.2177 128.162 52.5397 128.036 51.9397 127.784C51.3397 127.52 50.8657 127.16 50.5177 126.704C50.1697 126.236 49.9777 125.702 49.9417 125.102H51.6337C51.6817 125.594 51.9097 125.996 52.3177 126.308C52.7377 126.62 53.2837 126.776 53.9557 126.776C54.5797 126.776 55.0717 126.638 55.4317 126.362C55.7917 126.086 55.9717 125.738 55.9717 125.318C55.9717 124.886 55.7797 124.568 55.3957 124.364C55.0117 124.148 54.4177 123.938 53.6137 123.734C52.8817 123.542 52.2817 123.35 51.8137 123.158C51.3577 122.954 50.9617 122.66 50.6257 122.276C50.3017 121.88 50.1397 121.364 50.1397 120.728C50.1397 120.224 50.2897 119.762 50.5897 119.342C50.8897 118.922 51.3157 118.592 51.8677 118.352C52.4197 118.1 53.0497 117.974 53.7577 117.974C54.8497 117.974 55.7317 118.25 56.4037 118.802C57.0757 119.354 57.4357 120.11 57.4837 121.07H55.8457C55.8097 120.554 55.5997 120.14 55.2157 119.828C54.8437 119.516 54.3397 119.36 53.7037 119.36C53.1157 119.36 52.6477 119.486 52.2997 119.738C51.9517 119.99 51.7777 120.32 51.7777 120.728C51.7777 121.052 51.8797 121.322 52.0837 121.538C52.2997 121.742 52.5637 121.91 52.8757 122.042C53.1997 122.162 53.6437 122.3 54.2077 122.456C54.9157 122.648 55.4917 122.84 55.9357 123.032C56.3797 123.212 56.7577 123.488 57.0697 123.86C57.3937 124.232 57.5617 124.718 57.5737 125.318C57.5737 125.858 57.4237 126.344 57.1237 126.776C56.8237 127.208 56.3977 127.55 55.8457 127.802C55.3057 128.042 54.6817 128.162 53.9737 128.162ZM64.188 128.162C63.264 128.162 62.424 127.952 61.668 127.532C60.924 127.112 60.336 126.518 59.904 125.75C59.484 124.97 59.274 124.07 59.274 123.05C59.274 122.042 59.49 121.154 59.922 120.386C60.366 119.606 60.966 119.012 61.722 118.604C62.478 118.184 63.324 117.974 64.26 117.974C65.196 117.974 66.042 118.184 66.798 118.604C67.554 119.012 68.148 119.6 68.58 120.368C69.024 121.136 69.246 122.03 69.246 123.05C69.246 124.07 69.018 124.97 68.562 125.75C68.118 126.518 67.512 127.112 66.744 127.532C65.976 127.952 65.124 128.162 64.188 128.162ZM64.188 126.722C64.776 126.722 65.328 126.584 65.844 126.308C66.36 126.032 66.774 125.618 67.086 125.066C67.41 124.514 67.572 123.842 67.572 123.05C67.572 122.258 67.416 121.586 67.104 121.034C66.792 120.482 66.384 120.074 65.88 119.81C65.376 119.534 64.83 119.396 64.242 119.396C63.642 119.396 63.09 119.534 62.586 119.81C62.094 120.074 61.698 120.482 61.398 121.034C61.098 121.586 60.948 122.258 60.948 123.05C60.948 123.854 61.092 124.532 61.38 125.084C61.68 125.636 62.076 126.05 62.568 126.326C63.06 126.59 63.6 126.722 64.188 126.722ZM75.4137 119.486H73.3437V128H71.7057V119.486H70.4277V118.136H71.7057V117.434C71.7057 116.33 71.9877 115.526 72.5517 115.022C73.1277 114.506 74.0457 114.248 75.3057 114.248V115.616C74.5857 115.616 74.0757 115.76 73.7757 116.048C73.4877 116.324 73.3437 116.786 73.3437 117.434V118.136H75.4137V119.486ZM79.3215 119.486V125.3C79.3215 125.78 79.4235 126.122 79.6275 126.326C79.8315 126.518 80.1855 126.614 80.6895 126.614H81.8955V128H80.4195C79.5075 128 78.8235 127.79 78.3675 127.37C77.9115 126.95 77.6835 126.26 77.6835 125.3V119.486H76.4055V118.136H77.6835V115.652H79.3215V118.136H81.8955V119.486H79.3215ZM96.401 115.454V116.786H92.981V128H91.343V116.786H87.905V115.454H96.401ZM107.417 122.69C107.417 123.002 107.399 123.332 107.363 123.68H99.4793C99.5393 124.652 99.8693 125.414 100.469 125.966C101.081 126.506 101.819 126.776 102.683 126.776C103.391 126.776 103.979 126.614 104.447 126.29C104.927 125.954 105.263 125.51 105.455 124.958H107.219C106.955 125.906 106.427 126.68 105.635 127.28C104.843 127.868 103.859 128.162 102.683 128.162C101.747 128.162 100.907 127.952 100.163 127.532C99.4313 127.112 98.8553 126.518 98.4353 125.75C98.0153 124.97 97.8053 124.07 97.8053 123.05C97.8053 122.03 98.0093 121.136 98.4173 120.368C98.8253 119.6 99.3953 119.012 100.127 118.604C100.871 118.184 101.723 117.974 102.683 117.974C103.619 117.974 104.447 118.178 105.167 118.586C105.887 118.994 106.439 119.558 106.823 120.278C107.219 120.986 107.417 121.79 107.417 122.69ZM105.725 122.348C105.725 121.724 105.587 121.19 105.311 120.746C105.035 120.29 104.657 119.948 104.177 119.72C103.709 119.48 103.187 119.36 102.611 119.36C101.783 119.36 101.075 119.624 100.487 120.152C99.9113 120.68 99.5813 121.412 99.4973 122.348H105.725ZM108.967 123.032C108.967 122.024 109.171 121.142 109.579 120.386C109.987 119.618 110.545 119.024 111.253 118.604C111.973 118.184 112.771 117.974 113.647 117.974C114.511 117.974 115.261 118.16 115.897 118.532C116.533 118.904 117.007 119.372 117.319 119.936V118.136H118.975V128H117.319V126.164C116.995 126.74 116.509 127.22 115.861 127.604C115.225 127.976 114.481 128.162 113.629 128.162C112.753 128.162 111.961 127.946 111.253 127.514C110.545 127.082 109.987 126.476 109.579 125.696C109.171 124.916 108.967 124.028 108.967 123.032ZM117.319 123.05C117.319 122.306 117.169 121.658 116.869 121.106C116.569 120.554 116.161 120.134 115.645 119.846C115.141 119.546 114.583 119.396 113.971 119.396C113.359 119.396 112.801 119.54 112.297 119.828C111.793 120.116 111.391 120.536 111.091 121.088C110.791 121.64 110.641 122.288 110.641 123.032C110.641 123.788 110.791 124.448 111.091 125.012C111.391 125.564 111.793 125.99 112.297 126.29C112.801 126.578 113.359 126.722 113.971 126.722C114.583 126.722 115.141 126.578 115.645 126.29C116.161 125.99 116.569 125.564 116.869 125.012C117.169 124.448 117.319 123.794 117.319 123.05ZM133.605 117.956C134.373 117.956 135.057 118.118 135.657 118.442C136.257 118.754 136.731 119.228 137.079 119.864C137.427 120.5 137.601 121.274 137.601 122.186V128H135.981V122.42C135.981 121.436 135.735 120.686 135.243 120.17C134.763 119.642 134.109 119.378 133.281 119.378C132.429 119.378 131.751 119.654 131.247 120.206C130.743 120.746 130.491 121.532 130.491 122.564V128H128.871V122.42C128.871 121.436 128.625 120.686 128.133 120.17C127.653 119.642 126.999 119.378 126.171 119.378C125.319 119.378 124.641 119.654 124.137 120.206C123.633 120.746 123.381 121.532 123.381 122.564V128H121.743V118.136H123.381V119.558C123.705 119.042 124.137 118.646 124.677 118.37C125.229 118.094 125.835 117.956 126.495 117.956C127.323 117.956 128.055 118.142 128.691 118.514C129.327 118.886 129.801 119.432 130.113 120.152C130.389 119.456 130.845 118.916 131.481 118.532C132.117 118.148 132.825 117.956 133.605 117.956ZM143.78 128.162C143.024 128.162 142.346 128.036 141.746 127.784C141.146 127.52 140.672 127.16 140.324 126.704C139.976 126.236 139.784 125.702 139.748 125.102H141.44C141.488 125.594 141.716 125.996 142.124 126.308C142.544 126.62 143.09 126.776 143.762 126.776C144.386 126.776 144.878 126.638 145.238 126.362C145.598 126.086 145.778 125.738 145.778 125.318C145.778 124.886 145.586 124.568 145.202 124.364C144.818 124.148 144.224 123.938 143.42 123.734C142.688 123.542 142.088 123.35 141.62 123.158C141.164 122.954 140.768 122.66 140.432 122.276C140.108 121.88 139.946 121.364 139.946 120.728C139.946 120.224 140.096 119.762 140.396 119.342C140.696 118.922 141.122 118.592 141.674 118.352C142.226 118.1 142.856 117.974 143.564 117.974C144.656 117.974 145.538 118.25 146.21 118.802C146.882 119.354 147.242 120.11 147.29 121.07H145.652C145.616 120.554 145.406 120.14 145.022 119.828C144.65 119.516 144.146 119.36 143.51 119.36C142.922 119.36 142.454 119.486 142.106 119.738C141.758 119.99 141.584 120.32 141.584 120.728C141.584 121.052 141.686 121.322 141.89 121.538C142.106 121.742 142.37 121.91 142.682 122.042C143.006 122.162 143.45 122.3 144.014 122.456C144.722 122.648 145.298 122.84 145.742 123.032C146.186 123.212 146.564 123.488 146.876 123.86C147.2 124.232 147.368 124.718 147.38 125.318C147.38 125.858 147.23 126.344 146.93 126.776C146.63 127.208 146.204 127.55 145.652 127.802C145.112 128.042 144.488 128.162 143.78 128.162Z" fill="#A0A0A0"/>
<g>
<path d="M76.9557 28.6671C83.8456 28.6671 89.4309 23.0517 89.4309 16.1246C89.4309 9.19752 83.8456 3.58203 76.9557 3.58203C70.0658 3.58203 64.4805 9.19752 64.4805 16.1246C64.4805 23.0517 70.0658 28.6671 76.9557 28.6671Z" fill="#C4C4C4"/>
<path opacity="0.1" d="M76.0647 18.8125H64.7656L64.8218 19.0624L64.8271 19.0839L64.8859 19.3151C65.7069 22.4452 67.6989 25.1355 70.4459 26.8241C73.1929 28.5128 76.4825 29.0693 79.6279 28.3773V22.3949C79.6251 21.4457 79.2488 20.5361 78.5811 19.8649C77.9135 19.1937 77.0088 18.8153 76.0647 18.8125Z" fill="black"/>
<path opacity="0.2" d="M73.3927 21.5H65.6836C66.6954 23.6447 68.2917 25.4567 70.2871 26.7255C72.2824 27.9942 74.595 28.6677 76.9559 28.6676V25.0824C76.9531 24.1332 76.5768 23.2236 75.9092 22.5524C75.2416 21.8812 74.3369 21.5028 73.3927 21.5Z" fill="black"/>
<path d="M105.02 29.5625C110.187 29.5625 114.376 25.3512 114.376 20.1562C114.376 14.9613 110.187 10.75 105.02 10.75C99.8528 10.75 95.6641 14.9613 95.6641 20.1562C95.6641 25.3512 99.8528 29.5625 105.02 29.5625Z" fill="#A4A4A4"/>
<path d="M113.039 32.25H92.0256C91.5719 32.25 91.1367 32.4312 90.8159 32.7538C90.4951 33.0763 90.3148 33.5138 90.3148 33.97V55.7656C90.2569 58.9201 91.2787 61.9987 93.2092 64.4861C95.1396 66.9734 97.8615 68.7184 100.919 69.4289C102.866 69.8397 104.88 69.8087 106.814 69.3382C108.748 68.8677 110.553 67.9696 112.098 66.7091C113.643 65.4487 114.889 63.8577 115.746 62.052C116.602 60.2463 117.047 58.2713 117.048 56.2709V36.2812C117.048 35.2121 116.626 34.1867 115.874 33.4307C115.122 32.6747 114.102 32.25 113.039 32.25Z" fill="#A4A4A4"/>
<path d="M98.3396 36.2813V61.8125C98.3422 66.544 96.7914 71.144 93.9278 74.8987C91.0642 78.6535 87.048 81.3529 82.5024 82.5781C77.9569 83.8034 73.1362 83.4858 68.7884 81.6749C64.4407 79.8639 60.8091 76.6607 58.4572 72.5625C57.9429 71.703 57.496 70.8044 57.1207 69.875C56.7708 68.9987 56.4762 68.1011 56.2386 67.1875C55.7979 65.4301 55.5735 63.6249 55.5703 61.8125V36.2813C55.5696 35.7517 55.6728 35.2271 55.8741 34.7377C56.0753 34.2483 56.3707 33.8036 56.7431 33.4292C57.1156 33.0547 57.5579 32.7578 58.0447 32.5554C58.5315 32.3531 59.0532 32.2493 59.5799 32.25H94.3299C94.8567 32.2493 95.3784 32.3531 95.8652 32.5554C96.352 32.7578 96.7943 33.0547 97.1667 33.4292C97.5392 33.8036 97.8345 34.2483 98.0358 34.7377C98.237 35.2271 98.3403 35.7517 98.3396 36.2813Z" fill="#C4C4C4"/>
<path opacity="0.2" d="M73.3927 21.5H65.6836C66.6954 23.6447 68.2917 25.4567 70.2871 26.7255C72.2824 27.9942 74.595 28.6677 76.9559 28.6676V25.0824C76.9531 24.1332 76.5768 23.2236 75.9092 22.5524C75.2416 21.8812 74.3369 21.5028 73.3927 21.5Z" fill="black"/>
<path opacity="0.1" d="M79.628 32.25V66.3006C79.628 67.1108 79.3522 67.8965 78.8465 68.5272C78.3407 69.158 77.6355 69.5956 76.848 69.7675C76.5965 69.8427 76.3351 69.879 76.0728 69.875H57.1207C56.7708 68.9987 56.4762 68.1011 56.2386 67.1875C55.7979 65.4301 55.5735 63.6249 55.5703 61.8125V36.2813C55.5696 35.7517 55.6728 35.2271 55.8741 34.7377C56.0753 34.2483 56.3707 33.8036 56.7431 33.4292C57.1156 33.0547 57.5579 32.7578 58.0447 32.5554C58.5315 32.3531 59.0532 32.2493 59.5799 32.25H79.628Z" fill="black"/>
<path opacity="0.2" d="M76.9549 32.25V68.9881C76.9588 69.2519 76.9228 69.5147 76.848 69.7675C76.6771 70.5592 76.2418 71.2683 75.6144 71.7768C74.9871 72.2853 74.2056 72.5625 73.3997 72.5625H58.4572C57.9429 71.703 57.496 70.8044 57.1207 69.875C56.7708 68.9987 56.4762 68.1011 56.2386 67.1875C55.7979 65.4301 55.5735 63.6249 55.5703 61.8125V36.2813C55.5696 35.7517 55.6728 35.2271 55.8741 34.7377C56.0753 34.2483 56.3707 33.8036 56.7431 33.4292C57.1156 33.0547 57.5579 32.7578 58.0447 32.5554C58.5315 32.3531 59.0532 32.2493 59.5799 32.25H76.9549Z" fill="black"/>
<path opacity="0.2" d="M76.9549 32.25V63.6131C76.9507 64.5598 76.5748 65.4665 75.909 66.1359C75.2432 66.8053 74.3413 67.1833 73.3997 67.1875H56.2386C55.7979 65.4301 55.5735 63.6249 55.5703 61.8125V36.2813C55.5696 35.7517 55.6728 35.2271 55.8741 34.7377C56.0753 34.2483 56.3707 33.8036 56.7431 33.4292C57.1156 33.0547 57.5579 32.7578 58.0447 32.5554C58.5315 32.3531 59.0532 32.2493 59.5799 32.25H76.9549Z" fill="black"/>
<path opacity="0.2" d="M59.5799 32.25C59.0532 32.2493 58.5315 32.3531 58.0447 32.5554C57.5579 32.7578 57.1156 33.0547 56.7431 33.4292C56.3707 33.8036 56.0753 34.2483 55.8741 34.7377C55.6728 35.2271 55.5696 35.7517 55.5703 36.2813V61.8125C55.5735 63.6249 55.7979 65.4301 56.2386 67.1875H70.7267C71.6682 67.1833 72.5701 66.8053 73.2359 66.1359C73.9017 65.4665 74.2776 64.5598 74.2818 63.6131V32.25H59.5799Z" fill="black"/>
<path d="M35.0749 21.5H70.7177C71.6627 21.5 72.569 21.8774 73.2373 22.5493C73.9055 23.2211 74.2809 24.1323 74.2809 25.0824V60.9176C74.2809 61.8677 73.9055 62.7789 73.2373 63.4507C72.569 64.1226 71.6627 64.5 70.7177 64.5H35.0749C34.1299 64.5 33.2236 64.1226 32.5554 63.4507C31.8871 62.7789 31.5117 61.8677 31.5117 60.9176V25.0824C31.5117 24.1323 31.8871 23.2211 32.5554 22.5493C33.2236 21.8774 34.1299 21.5 35.0749 21.5Z" fill="#7E7E7E"/>
<path d="M63.5355 34.8706H55.543V56.4243H50.2984V34.8706H42.2578V29.5762H63.5355V34.8706Z" fill="white"/>
</g>
</g>
<defs>
<clipPath>
<rect width="149" height="138" fill="white"/>
</clipPath>
<clipPath>
<rect width="87" height="86" fill="white" transform="translate(31)"/>
</clipPath>
</defs>
</svg>
