<svg width="157" height="138" viewBox="0 0 157 138" fill="none" xmlns="http://www.w3.org/2000/svg">
<g clip-path="url(#clip0_7502_64232)">
<path d="M14.112 115.544V128H12.474V118.712L8.334 128H7.182L3.024 118.694V128H1.386V115.544H3.15L7.758 125.84L12.366 115.544H14.112ZM17.7359 116.534C17.4239 116.534 17.1599 116.426 16.9439 116.21C16.7279 115.994 16.6199 115.73 16.6199 115.418C16.6199 115.106 16.7279 114.842 16.9439 114.626C17.1599 114.41 17.4239 114.302 17.7359 114.302C18.0359 114.302 18.2879 114.41 18.4919 114.626C18.7079 114.842 18.8159 115.106 18.8159 115.418C18.8159 115.73 18.7079 115.994 18.4919 116.21C18.2879 116.426 18.0359 116.534 17.7359 116.534ZM18.5279 118.136V128H16.8899V118.136H18.5279ZM20.7076 123.05C20.7076 122.03 20.9116 121.142 21.3196 120.386C21.7276 119.618 22.2916 119.024 23.0116 118.604C23.7436 118.184 24.5776 117.974 25.5136 117.974C26.7256 117.974 27.7216 118.268 28.5016 118.856C29.2936 119.444 29.8156 120.26 30.0676 121.304H28.3036C28.1356 120.704 27.8056 120.23 27.3136 119.882C26.8336 119.534 26.2336 119.36 25.5136 119.36C24.5776 119.36 23.8216 119.684 23.2456 120.332C22.6696 120.968 22.3816 121.874 22.3816 123.05C22.3816 124.238 22.6696 125.156 23.2456 125.804C23.8216 126.452 24.5776 126.776 25.5136 126.776C26.2336 126.776 26.8336 126.608 27.3136 126.272C27.7936 125.936 28.1236 125.456 28.3036 124.832H30.0676C29.8036 125.84 29.2756 126.65 28.4836 127.262C27.6916 127.862 26.7016 128.162 25.5136 128.162C24.5776 128.162 23.7436 127.952 23.0116 127.532C22.2916 127.112 21.7276 126.518 21.3196 125.75C20.9116 124.982 20.7076 124.082 20.7076 123.05ZM33.8912 119.738C34.1792 119.174 34.5872 118.736 35.1152 118.424C35.6552 118.112 36.3092 117.956 37.0772 117.956V119.648H36.6452C34.8092 119.648 33.8912 120.644 33.8912 122.636V128H32.2532V118.136H33.8912V119.738ZM43.27 128.162C42.346 128.162 41.506 127.952 40.75 127.532C40.006 127.112 39.418 126.518 38.986 125.75C38.566 124.97 38.356 124.07 38.356 123.05C38.356 122.042 38.572 121.154 39.004 120.386C39.448 119.606 40.048 119.012 40.804 118.604C41.56 118.184 42.406 117.974 43.342 117.974C44.278 117.974 45.124 118.184 45.88 118.604C46.636 119.012 47.23 119.6 47.662 120.368C48.106 121.136 48.328 122.03 48.328 123.05C48.328 124.07 48.1 124.97 47.644 125.75C47.2 126.518 46.594 127.112 45.826 127.532C45.058 127.952 44.206 128.162 43.27 128.162ZM43.27 126.722C43.858 126.722 44.41 126.584 44.926 126.308C45.442 126.032 45.856 125.618 46.168 125.066C46.492 124.514 46.654 123.842 46.654 123.05C46.654 122.258 46.498 121.586 46.186 121.034C45.874 120.482 45.466 120.074 44.962 119.81C44.458 119.534 43.912 119.396 43.324 119.396C42.724 119.396 42.172 119.534 41.668 119.81C41.176 120.074 40.78 120.482 40.48 121.034C40.18 121.586 40.03 122.258 40.03 123.05C40.03 123.854 40.174 124.532 40.462 125.084C40.762 125.636 41.158 126.05 41.65 126.326C42.142 126.59 42.682 126.722 43.27 126.722ZM53.9737 128.162C53.2177 128.162 52.5397 128.036 51.9397 127.784C51.3397 127.52 50.8657 127.16 50.5177 126.704C50.1697 126.236 49.9777 125.702 49.9417 125.102H51.6337C51.6817 125.594 51.9097 125.996 52.3177 126.308C52.7377 126.62 53.2837 126.776 53.9557 126.776C54.5797 126.776 55.0717 126.638 55.4317 126.362C55.7917 126.086 55.9717 125.738 55.9717 125.318C55.9717 124.886 55.7797 124.568 55.3957 124.364C55.0117 124.148 54.4177 123.938 53.6137 123.734C52.8817 123.542 52.2817 123.35 51.8137 123.158C51.3577 122.954 50.9617 122.66 50.6257 122.276C50.3017 121.88 50.1397 121.364 50.1397 120.728C50.1397 120.224 50.2897 119.762 50.5897 119.342C50.8897 118.922 51.3157 118.592 51.8677 118.352C52.4197 118.1 53.0497 117.974 53.7577 117.974C54.8497 117.974 55.7317 118.25 56.4037 118.802C57.0757 119.354 57.4357 120.11 57.4837 121.07H55.8457C55.8097 120.554 55.5997 120.14 55.2157 119.828C54.8437 119.516 54.3397 119.36 53.7037 119.36C53.1157 119.36 52.6477 119.486 52.2997 119.738C51.9517 119.99 51.7777 120.32 51.7777 120.728C51.7777 121.052 51.8797 121.322 52.0837 121.538C52.2997 121.742 52.5637 121.91 52.8757 122.042C53.1997 122.162 53.6437 122.3 54.2077 122.456C54.9157 122.648 55.4917 122.84 55.9357 123.032C56.3797 123.212 56.7577 123.488 57.0697 123.86C57.3937 124.232 57.5617 124.718 57.5737 125.318C57.5737 125.858 57.4237 126.344 57.1237 126.776C56.8237 127.208 56.3977 127.55 55.8457 127.802C55.3057 128.042 54.6817 128.162 53.9737 128.162ZM64.188 128.162C63.264 128.162 62.424 127.952 61.668 127.532C60.924 127.112 60.336 126.518 59.904 125.75C59.484 124.97 59.274 124.07 59.274 123.05C59.274 122.042 59.49 121.154 59.922 120.386C60.366 119.606 60.966 119.012 61.722 118.604C62.478 118.184 63.324 117.974 64.26 117.974C65.196 117.974 66.042 118.184 66.798 118.604C67.554 119.012 68.148 119.6 68.58 120.368C69.024 121.136 69.246 122.03 69.246 123.05C69.246 124.07 69.018 124.97 68.562 125.75C68.118 126.518 67.512 127.112 66.744 127.532C65.976 127.952 65.124 128.162 64.188 128.162ZM64.188 126.722C64.776 126.722 65.328 126.584 65.844 126.308C66.36 126.032 66.774 125.618 67.086 125.066C67.41 124.514 67.572 123.842 67.572 123.05C67.572 122.258 67.416 121.586 67.104 121.034C66.792 120.482 66.384 120.074 65.88 119.81C65.376 119.534 64.83 119.396 64.242 119.396C63.642 119.396 63.09 119.534 62.586 119.81C62.094 120.074 61.698 120.482 61.398 121.034C61.098 121.586 60.948 122.258 60.948 123.05C60.948 123.854 61.092 124.532 61.38 125.084C61.68 125.636 62.076 126.05 62.568 126.326C63.06 126.59 63.6 126.722 64.188 126.722ZM75.4137 119.486H73.3437V128H71.7057V119.486H70.4277V118.136H71.7057V117.434C71.7057 116.33 71.9877 115.526 72.5517 115.022C73.1277 114.506 74.0457 114.248 75.3057 114.248V115.616C74.5857 115.616 74.0757 115.76 73.7757 116.048C73.4877 116.324 73.3437 116.786 73.3437 117.434V118.136H75.4137V119.486ZM79.3215 119.486V125.3C79.3215 125.78 79.4235 126.122 79.6275 126.326C79.8315 126.518 80.1855 126.614 80.6895 126.614H81.8955V128H80.4195C79.5075 128 78.8235 127.79 78.3675 127.37C77.9115 126.95 77.6835 126.26 77.6835 125.3V119.486H76.4055V118.136H77.6835V115.652H79.3215V118.136H81.8955V119.486H79.3215ZM94.367 128.126C93.203 128.126 92.141 127.856 91.181 127.316C90.221 126.764 89.459 126.002 88.895 125.03C88.343 124.046 88.067 122.942 88.067 121.718C88.067 120.494 88.343 119.396 88.895 118.424C89.459 117.44 90.221 116.678 91.181 116.138C92.141 115.586 93.203 115.31 94.367 115.31C95.543 115.31 96.611 115.586 97.571 116.138C98.531 116.678 99.287 117.434 99.839 118.406C100.391 119.378 100.667 120.482 100.667 121.718C100.667 122.954 100.391 124.058 99.839 125.03C99.287 126.002 98.531 126.764 97.571 127.316C96.611 127.856 95.543 128.126 94.367 128.126ZM94.367 126.704C95.243 126.704 96.029 126.5 96.725 126.092C97.433 125.684 97.985 125.102 98.381 124.346C98.789 123.59 98.993 122.714 98.993 121.718C98.993 120.71 98.789 119.834 98.381 119.09C97.985 118.334 97.439 117.752 96.743 117.344C96.047 116.936 95.255 116.732 94.367 116.732C93.479 116.732 92.687 116.936 91.991 117.344C91.295 117.752 90.743 118.334 90.335 119.09C89.939 119.834 89.741 120.71 89.741 121.718C89.741 122.714 89.939 123.59 90.335 124.346C90.743 125.102 91.295 125.684 91.991 126.092C92.699 126.5 93.491 126.704 94.367 126.704ZM111.577 118.136V128H109.939V126.542C109.627 127.046 109.189 127.442 108.625 127.73C108.073 128.006 107.461 128.144 106.789 128.144C106.021 128.144 105.331 127.988 104.719 127.676C104.107 127.352 103.621 126.872 103.261 126.236C102.913 125.6 102.739 124.826 102.739 123.914V118.136H104.359V123.698C104.359 124.67 104.605 125.42 105.097 125.948C105.589 126.464 106.261 126.722 107.113 126.722C107.989 126.722 108.679 126.452 109.183 125.912C109.687 125.372 109.939 124.586 109.939 123.554V118.136H111.577ZM116.341 119.486V125.3C116.341 125.78 116.443 126.122 116.647 126.326C116.851 126.518 117.205 126.614 117.709 126.614H118.915V128H117.439C116.527 128 115.843 127.79 115.387 127.37C114.931 126.95 114.703 126.26 114.703 125.3V119.486H113.425V118.136H114.703V115.652H116.341V118.136H118.915V119.486H116.341ZM122.538 114.68V128H120.9V114.68H122.538ZM129.631 128.162C128.707 128.162 127.867 127.952 127.111 127.532C126.367 127.112 125.779 126.518 125.347 125.75C124.927 124.97 124.717 124.07 124.717 123.05C124.717 122.042 124.933 121.154 125.365 120.386C125.809 119.606 126.409 119.012 127.165 118.604C127.921 118.184 128.767 117.974 129.703 117.974C130.639 117.974 131.485 118.184 132.241 118.604C132.997 119.012 133.591 119.6 134.023 120.368C134.467 121.136 134.689 122.03 134.689 123.05C134.689 124.07 134.461 124.97 134.005 125.75C133.561 126.518 132.955 127.112 132.187 127.532C131.419 127.952 130.567 128.162 129.631 128.162ZM129.631 126.722C130.219 126.722 130.771 126.584 131.287 126.308C131.803 126.032 132.217 125.618 132.529 125.066C132.853 124.514 133.015 123.842 133.015 123.05C133.015 122.258 132.859 121.586 132.547 121.034C132.235 120.482 131.827 120.074 131.323 119.81C130.819 119.534 130.273 119.396 129.685 119.396C129.085 119.396 128.533 119.534 128.029 119.81C127.537 120.074 127.141 120.482 126.841 121.034C126.541 121.586 126.391 122.258 126.391 123.05C126.391 123.854 126.535 124.532 126.823 125.084C127.123 125.636 127.519 126.05 128.011 126.326C128.503 126.59 129.043 126.722 129.631 126.722ZM141.145 128.162C140.221 128.162 139.381 127.952 138.625 127.532C137.881 127.112 137.293 126.518 136.861 125.75C136.441 124.97 136.231 124.07 136.231 123.05C136.231 122.042 136.447 121.154 136.879 120.386C137.323 119.606 137.923 119.012 138.679 118.604C139.435 118.184 140.281 117.974 141.217 117.974C142.153 117.974 142.999 118.184 143.755 118.604C144.511 119.012 145.105 119.6 145.537 120.368C145.981 121.136 146.203 122.03 146.203 123.05C146.203 124.07 145.975 124.97 145.519 125.75C145.075 126.518 144.469 127.112 143.701 127.532C142.933 127.952 142.081 128.162 141.145 128.162ZM141.145 126.722C141.733 126.722 142.285 126.584 142.801 126.308C143.317 126.032 143.731 125.618 144.043 125.066C144.367 124.514 144.529 123.842 144.529 123.05C144.529 122.258 144.373 121.586 144.061 121.034C143.749 120.482 143.341 120.074 142.837 119.81C142.333 119.534 141.787 119.396 141.199 119.396C140.599 119.396 140.047 119.534 139.543 119.81C139.051 120.074 138.655 120.482 138.355 121.034C138.055 121.586 137.905 122.258 137.905 123.05C137.905 123.854 138.049 124.532 138.337 125.084C138.637 125.636 139.033 126.05 139.525 126.326C140.017 126.59 140.557 126.722 141.145 126.722ZM153.865 128L149.995 123.644V128H148.357V114.68H149.995V122.51L153.793 118.136H156.079L151.435 123.05L156.097 128H153.865Z" fill="#A0A0A0"/>
<path d="M111.627 5.375H65.2665C64.2624 5.375 63.2994 5.77254 62.5894 6.48016C61.8794 7.18778 61.4805 8.14752 61.4805 9.14825V13.4375L87.6107 21.5L115.413 13.4375V9.14825C115.413 8.14752 115.014 7.18778 114.304 6.48016C113.594 5.77254 112.631 5.375 111.627 5.375Z" fill="#767676"/>
<path d="M119.865 46.7764C120.26 45.5391 120.575 44.2779 120.809 43.0005C120.808 42.6867 120.725 42.3784 120.568 42.1067C120.41 41.835 120.184 41.6094 119.911 41.4525L119.876 41.431L119.865 41.4256L90.639 24.833C90.5129 24.7514 90.3824 24.677 90.248 24.6099C89.689 24.3334 89.0734 24.1895 88.4493 24.1895C87.8253 24.1895 87.2097 24.3334 86.6507 24.6099C86.5163 24.6761 86.3858 24.7496 86.2597 24.8303L57.0337 41.4283L57.0229 41.4337L56.9905 41.4525C56.7173 41.6091 56.4902 41.8345 56.3321 42.1063C56.174 42.378 56.0905 42.6864 56.0898 43.0005C56.3234 44.2779 56.6387 45.5391 57.0337 46.7764L88.0233 69.3649L119.865 46.7764Z" fill="#1A1A1A"/>
<path d="M99.2364 13.4375H80.36L74.9102 21.5L80.36 29.5625L99.2364 45.6875H115.416V29.5625L99.2364 13.4375Z" fill="#C4C4C4"/>
<path d="M61.4805 13.4375H80.3568V29.5625H61.4805V13.4375Z" fill="#A6A6A6"/>
<path d="M99.2344 13.4375H115.414V29.5625H99.2344V13.4375Z" fill="#D8D8D8"/>
<path d="M99.2332 45.6875L80.3568 29.5625H61.4805V45.6875L80.3568 61.8125L109.567 66.564L99.2332 45.6875Z" fill="#767676"/>
<path d="M80.3594 29.5625H99.2358V45.6875H80.3594V29.5625Z" fill="#A6A6A6"/>
<path d="M61.4805 45.6875H80.3568V61.8125H61.4805V45.6875Z" fill="#4F4F4F"/>
<path d="M99.2344 45.6875H115.414V61.8125H99.2344V45.6875Z" fill="#A6A6A6"/>
<path opacity="0.5" d="M88.9615 67.7734L57.1602 44.6609L58.495 42.3228C58.495 42.3228 87.4702 58.7703 87.9125 59.0176C88.0934 59.0897 88.2873 59.1241 88.4821 59.1186C88.6769 59.113 88.8685 59.0677 89.0451 58.9853L118.527 42.2422L119.865 44.5776L88.9615 67.7734Z" fill="#1A1A1A"/>
<path d="M119.908 44.5507L119.87 44.5722L119.862 44.5776L90.6363 61.1702C90.0558 61.5432 89.3891 61.7616 88.6998 61.8044C88.0105 61.8472 87.3216 61.713 86.6992 61.4147L96.8763 75.0162L119.134 79.8456V79.8564C119.652 79.4831 120.073 78.9927 120.364 78.4256C120.655 77.8584 120.806 77.2306 120.806 76.5938V43C120.806 43.3143 120.723 43.6231 120.566 43.8953C120.408 44.1675 120.181 44.3935 119.908 44.5507Z" fill="#A8A8A8"/>
<path opacity="0.05" d="M120.806 76.5941V74.6107L93.8857 59.3242L90.6363 61.1705C90.0558 61.5435 89.3891 61.7619 88.6998 61.8047C88.0105 61.8475 87.3216 61.7134 86.6992 61.4151L96.8763 75.0165L119.134 79.846V79.8567C119.652 79.4834 120.073 78.9931 120.364 78.4259C120.655 77.8587 120.806 77.2309 120.806 76.5941Z" fill="black"/>
<path opacity="0.1" d="M120.671 77.6223L91.1621 60.8711L90.6363 61.1667C90.0561 61.5402 89.3894 61.759 88.7001 61.8023C88.0108 61.8456 87.3219 61.7119 86.6992 61.414L96.8763 75.0154L119.134 79.8448V79.8556C119.889 79.3106 120.432 78.5227 120.671 77.625V77.6223Z" fill="black"/>
<path d="M57.0337 44.5856V44.5587H57.0068L56.9259 44.505C56.6681 44.3473 56.4556 44.1259 56.3091 43.8622C56.1626 43.5984 56.0871 43.3014 56.0899 43V76.5937C56.0892 77.1233 56.1933 77.6478 56.3964 78.1373C56.5994 78.6267 56.8973 79.0714 57.2731 79.4458C57.6488 79.8203 58.095 80.1172 58.5861 80.3196C59.0772 80.5219 59.6035 80.6257 60.1349 80.625H116.764C117.101 80.6217 117.436 80.5765 117.762 80.4906C117.931 80.4613 118.094 80.4069 118.247 80.3293C118.304 80.3238 118.36 80.3054 118.409 80.2756C118.63 80.1857 118.838 80.0683 119.029 79.9262C119.083 79.8993 119.11 79.8993 119.137 79.8456L57.0337 44.5856Z" fill="#C4C4C4"/>
<path opacity="0.1" d="M83.0561 66.2926V22.3949C83.0532 21.4457 82.6736 20.5361 82.0001 19.8649C81.3266 19.1937 80.414 18.8153 79.4615 18.8125H61.564V38.8505L57.0337 41.4251L57.0202 41.4305L56.9878 41.4493C56.7147 41.6065 56.4879 41.8325 56.3303 42.1047C56.1727 42.3769 56.0897 42.6857 56.0898 43V43.0134V43V69.875H79.4615C80.414 69.8722 81.3266 69.4938 82.0001 68.8226C82.6736 68.1514 83.0532 67.2418 83.0561 66.2926Z" fill="black"/>
<path opacity="0.2" d="M80.3594 68.9801V25.0824C80.3566 24.1332 79.9769 23.2236 79.3034 22.5524C78.6299 21.8812 77.7173 21.5028 76.7648 21.5H61.564V38.8505L57.0337 41.4251L57.0202 41.4305L56.9878 41.4493C56.7147 41.6065 56.4879 41.8325 56.3303 42.1047C56.1727 42.3769 56.0897 42.6857 56.0898 43V43.0134V43V72.5625H76.7648C77.7173 72.5597 78.6299 72.1813 79.3034 71.5101C79.9769 70.8389 80.3566 69.9293 80.3594 68.9801Z" fill="black"/>
<path opacity="0.2" d="M80.3594 63.6051V25.0824C80.3566 24.1332 79.9769 23.2236 79.3034 22.5524C78.6299 21.8812 77.7173 21.5028 76.7648 21.5H61.564V38.8505L57.0337 41.4251L57.0202 41.4305L56.9878 41.4493C56.7147 41.6065 56.4879 41.8325 56.3303 42.1047C56.1727 42.3769 56.0897 42.6857 56.0898 43V43.0134V43V67.1875H76.7648C77.7173 67.1847 78.6299 66.8063 79.3034 66.1351C79.9769 65.4639 80.3566 64.5543 80.3594 63.6051Z" fill="black"/>
<path opacity="0.2" d="M77.6628 63.6051V25.0824C77.66 24.1332 77.2804 23.2236 76.6069 22.5524C75.9334 21.8812 75.0207 21.5028 74.0682 21.5H61.564V38.8505L57.0337 41.4251L57.0202 41.4305L56.9878 41.4493C56.7147 41.6065 56.4879 41.8325 56.3303 42.1047C56.1727 42.3769 56.0897 42.6857 56.0898 43V43.0134V43V67.1875H74.0682C75.0207 67.1847 75.9334 66.8063 76.6069 66.1351C77.2804 65.4639 77.66 64.5543 77.6628 63.6051Z" fill="black"/>
<path d="M38.1102 21.5H74.067C75.0204 21.5 75.9347 21.8774 76.6088 22.5493C77.2829 23.2211 77.6616 24.1323 77.6616 25.0824V60.9176C77.6616 61.8677 77.2829 62.7789 76.6088 63.4507C75.9347 64.1226 75.0204 64.5 74.067 64.5H38.1102C37.1569 64.5 36.2426 64.1226 35.5685 63.4507C34.8943 62.7789 34.5156 61.8677 34.5156 60.9176V25.0824C34.5156 24.1323 34.8943 23.2211 35.5685 22.5493C36.2426 21.8774 37.1569 21.5 38.1102 21.5Z" fill="#A6A6A6"/>
<path d="M44.9423 36.195C45.8974 34.1662 47.4394 32.4685 49.3701 31.3198C51.5091 30.0995 53.9446 29.4913 56.4083 29.5622C58.6895 29.5129 60.9405 30.0893 62.9153 31.2285C64.7742 32.332 66.2713 33.95 67.2245 35.8859C68.2629 38.0197 68.7803 40.3679 68.7346 42.739C68.7845 45.2156 68.2516 47.6695 67.1786 49.9039C66.2047 51.9086 64.6625 53.5849 62.7427 54.7253C60.6904 55.9007 58.354 56.4929 55.9876 56.4372C53.6564 56.4925 51.3545 55.9097 49.3324 54.7521C47.4586 53.6468 45.9439 52.0271 44.9692 50.0866C43.9237 47.9844 43.3994 45.6628 43.4402 43.3168C43.395 40.8603 43.9085 38.4255 44.9423 36.195ZM49.6614 47.6383C50.1702 48.9208 51.0332 50.0334 52.1503 50.8472C53.2887 51.6413 54.6525 52.051 56.0416 52.0163C57.5214 52.0736 58.9798 51.6501 60.1971 50.8096C61.3018 49.9962 62.1428 48.8777 62.6159 47.5926C63.1464 46.1609 63.4079 44.6441 63.3872 43.118C63.4036 41.5774 63.1574 40.0452 62.6591 38.5868C62.2194 37.2748 61.4084 36.1175 60.3238 35.2543C59.1386 34.3715 57.6845 33.9226 56.2061 33.9831C54.7867 33.9474 53.3925 34.3604 52.2232 35.163C51.0841 35.9782 50.2012 37.0995 49.6775 38.396C48.5192 41.3684 48.5125 44.664 49.6587 47.641L49.6614 47.6383Z" fill="white"/>
</g>
<defs>
<clipPath id="clip0_7502_64232">
<rect width="157" height="138" fill="white"/>
</clipPath>
</defs>
</svg>
