<svg width="200" height="106" viewBox="0 0 200 106" fill="none" xmlns="http://www.w3.org/2000/svg"><path d="M76.635 83.454c1.368 0 2.55.258 3.546.774 1.008.504 1.776 1.23 2.304 2.178.54.948.81 2.064.81 3.348 0 1.284-.27 2.4-.81 3.348-.528.936-1.296 1.656-2.304 2.16-.996.492-2.178.738-3.546.738h-3.906V83.454h3.906Zm0 11.196c1.62 0 2.856-.426 3.708-1.278.852-.864 1.278-2.07 1.278-3.618 0-1.56-.432-2.778-1.296-3.654-.852-.876-2.082-1.314-3.69-1.314h-2.268v9.864h2.268Zm13.122 1.512c-.924 0-1.764-.21-2.52-.63a4.58 4.58 0 0 1-1.764-1.782c-.42-.78-.63-1.68-.63-2.7 0-1.008.216-1.896.648-2.664a4.51 4.51 0 0 1 1.8-1.782c.756-.42 1.602-.63 2.538-.63.936 0 1.782.21 2.538.63.756.408 1.35.996 1.782 1.764.444.768.666 1.662.666 2.682s-.228 1.92-.684 2.7a4.634 4.634 0 0 1-1.818 1.782c-.768.42-1.62.63-2.556.63Zm0-1.44c.588 0 1.14-.138 1.656-.414.516-.276.93-.69 1.242-1.242.324-.552.486-1.224.486-2.016s-.156-1.464-.468-2.016c-.312-.552-.72-.96-1.224-1.224a3.356 3.356 0 0 0-1.638-.414c-.6 0-1.152.138-1.656.414-.492.264-.888.672-1.188 1.224-.3.552-.45 1.224-.45 2.016 0 .804.144 1.482.432 2.034.3.552.696.966 1.188 1.242a3.372 3.372 0 0 0 1.62.396Zm6.6-3.672c0-1.02.204-1.908.612-2.664a4.407 4.407 0 0 1 1.692-1.782c.732-.42 1.566-.63 2.502-.63 1.212 0 2.208.294 2.988.882.792.588 1.314 1.404 1.566 2.448h-1.764a2.518 2.518 0 0 0-.99-1.422c-.48-.348-1.08-.522-1.8-.522-.936 0-1.692.324-2.268.972-.576.636-.864 1.542-.864 2.718 0 1.188.288 2.106.864 2.754.576.648 1.332.972 2.268.972.72 0 1.32-.168 1.8-.504.48-.336.81-.816.99-1.44h1.764c-.264 1.008-.792 1.818-1.584 2.43-.792.6-1.782.9-2.97.9-.936 0-1.77-.21-2.502-.63a4.407 4.407 0 0 1-1.692-1.782c-.408-.768-.612-1.668-.612-2.7ZM113.411 96l-3.87-4.356V96h-1.638V82.68h1.638v7.83l3.798-4.374h2.286l-4.644 4.914 4.662 4.95h-2.232Zm12.755-5.31c0 .312-.018.642-.054.99h-7.884c.06.972.39 1.734.99 2.286.612.54 1.35.81 2.214.81.708 0 1.296-.162 1.764-.486.48-.336.816-.78 1.008-1.332h1.764a4.284 4.284 0 0 1-1.584 2.322c-.792.588-1.776.882-2.952.882-.936 0-1.776-.21-2.52-.63a4.492 4.492 0 0 1-1.728-1.782c-.42-.78-.63-1.68-.63-2.7 0-1.02.204-1.914.612-2.682a4.254 4.254 0 0 1 1.71-1.764c.744-.42 1.596-.63 2.556-.63.936 0 1.764.204 2.484.612.72.408 1.272.972 1.656 1.692.396.708.594 1.512.594 2.412Zm-1.692-.342c0-.624-.138-1.158-.414-1.602a2.605 2.605 0 0 0-1.134-1.026c-.468-.24-.99-.36-1.566-.36-.828 0-1.536.264-2.124.792-.576.528-.906 1.26-.99 2.196h6.228Zm5.492-2.61a3.16 3.16 0 0 1 1.224-1.314c.54-.312 1.194-.468 1.962-.468v1.692h-.432c-1.836 0-2.754.996-2.754 2.988V96h-1.638v-9.864h1.638v1.602Z" fill="#A0A0A0"/><path d="M37.22 6.33h5.985a.527.527 0 0 0 .535-.528V.528A.548.548 0 0 0 43.205 0H37.22a.527.527 0 0 0-.536.528v5.274c0 .28.252.528.536.528ZM26.51 13.9h-5.985c-.283 0-.504-.248-.535-.527V8.098c0-.31.252-.527.535-.527h5.985c.315 0 .536.248.536.527v5.275c0 .28-.252.528-.536.528ZM67.71 16.724c3.654 0 5.355 1.272 5.544 1.427l.661.466-.283.806c-.473 1.117-1.134 2.11-2.016 2.917-1.323 1.303-3.717 2.823-7.591 2.823h-.63c-1.544 3.91-3.654 8.316-7.213 12.256a29.566 29.566 0 0 1-7.371 5.958 34.528 34.528 0 0 1-10.836 3.878c-2.74.496-5.512.745-8.284.745-6.142 0-11.591-1.148-14.93-3.165-2.961-1.8-5.26-4.747-6.804-8.719a30.973 30.973 0 0 1-1.953-11.325c0-1.148.945-2.079 2.11-2.079h44.729c.567-.03 3.276-.248 4.945-1.179-1.386-2.172-1.795-4.716-1.134-7.415a13.163 13.163 0 0 1 1.733-3.972l.63-.9.976.559c.01.008.038.026.08.053.595.387 4.124 2.682 4.77 7.114a17.887 17.887 0 0 1 2.867-.248Z" fill="#6A6A6A"/><path d="M18.258 21.44h-5.985c-.284 0-.504-.217-.535-.527v-5.275c0-.31.251-.527.535-.527h5.985c.315 0 .535.248.535.527v5.275c0 .31-.252.527-.535.527ZM20.525 21.44h5.985a.527.527 0 0 0 .536-.527v-5.275c0-.28-.22-.527-.536-.527h-5.985a.527.527 0 0 0-.535.527v5.275c.031.31.252.527.535.527ZM28.935 13.9h5.985a.548.548 0 0 0 .535-.527V8.098c0-.279-.22-.527-.535-.527h-5.985a.527.527 0 0 0-.535.527v5.275c0 .28.22.528.535.528ZM43.205 13.9H37.22a.548.548 0 0 1-.536-.527V8.098c0-.31.252-.527.536-.527h5.985c.283 0 .535.248.535.527v5.275c0 .28-.252.528-.535.528ZM51.552 21.44h-5.985c-.284 0-.504-.217-.536-.527v-5.275c0-.31.252-.527.536-.527h5.985c.315 0 .535.248.535.527v5.275c0 .31-.252.527-.535.527ZM28.935 21.44h5.985a.527.527 0 0 0 .535-.527v-5.275c0-.28-.22-.527-.535-.527h-5.985a.527.527 0 0 0-.535.527v5.275c0 .31.22.527.535.527ZM43.205 21.44H37.22a.527.527 0 0 1-.536-.527v-5.275c0-.31.252-.527.536-.527h5.985c.315 0 .535.248.535.527v5.275c0 .31-.252.527-.535.527Z" fill="#6A6A6A"/><path fill-rule="evenodd" clip-rule="evenodd" d="M94.863 13.993c-1.008-.03-1.827.745-1.859 1.707v8.936c-4.315-3.413-10.646-2.73-14.111 1.52-1.418 1.769-2.205 3.94-2.205 6.206-.095 5.46 4.315 9.96 9.86 10.053 5.543.093 10.11-4.25 10.205-9.712V15.824c0-.496-.19-.962-.536-1.303a2.003 2.003 0 0 0-1.354-.528ZM92.5 34.751c-.63 1.49-1.827 2.668-3.338 3.32a6.419 6.419 0 0 1-4.914 0c-1.512-.62-2.678-1.83-3.308-3.289a6.075 6.075 0 0 1 0-4.81 6.193 6.193 0 0 1 3.308-3.288 6.419 6.419 0 0 1 4.913 0c1.512.651 2.71 1.83 3.34 3.32a5.927 5.927 0 0 1 0 4.747ZM115.809 25.38c-3.906-3.847-10.269-3.847-14.175 0a9.79 9.79 0 0 0-2.929 6.982c-.094 5.461 4.315 9.96 9.859 10.053 5.544.093 10.111-4.25 10.206-9.712v-.341a9.789 9.789 0 0 0-.756-3.786 9.424 9.424 0 0 0-2.205-3.195Zm-1.292 9.34a6.079 6.079 0 0 1-1.354 1.955 6.547 6.547 0 0 1-1.984 1.334 6.422 6.422 0 0 1-4.914 0 6.251 6.251 0 0 1-3.339-3.289 6.071 6.071 0 0 1 0-4.81c.63-1.489 1.827-2.637 3.339-3.288a6.422 6.422 0 0 1 4.914 0c.756.31 1.417.775 1.984 1.334a6.434 6.434 0 0 1 1.354 1.955c.662 1.582.662 3.32 0 4.81Z" fill="#6A6A6A"/><path d="M157.136 23.581c.094.217.157.466.157.714.032.589-.22 1.148-.724 1.458l-7.497 4.81 7.686 8.532c.315.341.504.807.504 1.272 0 .248-.063.496-.158.714a1.603 1.603 0 0 1-.19.318c-.068.093-.144.182-.219.271a1.94 1.94 0 0 1-.46.339 1.842 1.842 0 0 1-.139.065c-.22.124-.472.155-.724.155-.473.03-.914-.155-1.26-.466l-8.284-9.153-2.174 1.396v6.361c.032.496-.189.962-.535 1.303a1.777 1.777 0 0 1-1.323.559c-.504 0-.977-.186-1.323-.559a1.814 1.814 0 0 1-.536-1.303V15.824a1.876 1.876 0 0 1 3.213-1.272c.347.341.536.807.536 1.303V29.57l10.709-6.857c.315-.186.662-.279 1.008-.279.252 0 .504.062.725.155.22.093.441.248.598.403.103.122.207.244.292.375a1.543 1.543 0 0 1 .118.215ZM126.204 27.956a6.314 6.314 0 0 1 2.016-1.334c.787-.31 1.606-.497 2.457-.497.756 0 1.48.124 2.173.372.693.28 1.354.652 1.921 1.149.347.279.788.403 1.229.403a1.706 1.706 0 0 0 1.354-.528c.347-.34.536-.837.536-1.334 0-.527-.221-1.055-.662-1.396a9.535 9.535 0 0 0-6.551-2.39c-5.544 0-10.049 4.438-10.049 9.899 0 5.46 4.473 9.867 9.986 9.897 2.425 0 4.756-.837 6.583-2.389.378-.34.598-.837.598-1.365a1.781 1.781 0 0 0-1.732-1.83h-.126c-.441 0-.851.124-1.197.372a6.536 6.536 0 0 1-1.89 1.148 6.53 6.53 0 0 1-2.173.372c-.851 0-1.67-.155-2.457-.496-.756-.31-1.418-.776-2.016-1.334a6.143 6.143 0 0 1-.032-8.75.243.243 0 0 0 .029.05c.003.003.003-.005.003-.02ZM193.233 22.96c.472.156.882.404 1.26.745.346.342.535.776.504 1.241a1.809 1.809 0 0 1-.286.953c-.083.131-.182.253-.281.35-.189.187-.378.31-.599.404a1.146 1.146 0 0 1-.356.125c-.121.023-.244.03-.368.03-.284 0-.536-.062-.788-.186a7.31 7.31 0 0 0-2.457-.434c-.85 0-1.669.186-2.457.496a6.545 6.545 0 0 0-1.984 1.334 5.63 5.63 0 0 0-1.354 1.955 5.848 5.848 0 0 0-.504 2.42v8.036a1.845 1.845 0 0 1-1.796 1.769c-1.039.03-1.921-.745-1.953-1.769V24.326a1.845 1.845 0 0 1 1.796-1.769c1.039-.031 1.921.745 1.953 1.769v.372a10.336 10.336 0 0 1 2.929-1.613c1.071-.404 2.236-.59 3.37-.59.567 0 1.134.031 1.701.093a7.673 7.673 0 0 1 1.67.372Z" fill="#6A6A6A"/><path fill-rule="evenodd" clip-rule="evenodd" d="M177.105 28.576c-1.606-3.66-5.26-6.05-9.292-6.08-5.544 0-10.016 4.405-10.048 9.866 0 5.461 4.504 9.898 10.048 9.898 2.394 0 4.725-.838 6.552-2.39l.063-.061c.157-.124.315-.28.409-.466a1.861 1.861 0 0 0-.472-2.606 1.879 1.879 0 0 0-2.3.217c-.035.035-.11.099-.168.154-.047.043-.084.08-.084.094l-.031.031c-.535.435-1.134.807-1.795 1.024a5.708 5.708 0 0 1-2.174.342 6.371 6.371 0 0 1-2.016-.31c-.63-.218-1.228-.497-1.764-.9a5.757 5.757 0 0 1-1.386-1.366c-.409-.527-.693-1.148-.882-1.768h14.175c.504 0 .976-.187 1.323-.528.378-.341.567-.807.535-1.303a9.914 9.914 0 0 0-.693-3.848Zm-15.34 1.986a5.21 5.21 0 0 1 .882-1.768 5.75 5.75 0 0 1 1.386-1.365 7.26 7.26 0 0 1 1.764-.9 6.17 6.17 0 0 1 1.985-.31c.661 0 1.354.092 1.984.31a6.388 6.388 0 0 1 3.15 2.265c.409.527.693 1.148.913 1.768h-12.064ZM188.413 40.864a.303.303 0 0 0 .252-.31c0-.31-.303-.373-.567-.373-.157 0-.346 0-.504.03v1.273h.284v-.497h.126c.065 0 .12.011.164.033.061.03.101.081.119.154l.028.089.02.068c.015.053.031.107.047.153h.315c-.063-.093-.059-.221-.077-.31-.033-.154-.081-.248-.207-.31Zm-.378-.093h-.157v-.373h.157c.152 0 .284.07.284.186 0 .117-.088.187-.284.187Z" fill="#6A6A6A"/><path fill-rule="evenodd" clip-rule="evenodd" d="M186.807 40.864c0-.714.567-1.304 1.291-1.304.725 0 1.323.559 1.323 1.304 0 .682-.567 1.272-1.291 1.272-.725 0-1.323-.559-1.323-1.272Zm.22.03c.032.559.504 1.063 1.071 1.032h.032c.567 0 1.113-.535 1.081-1.062V40.8a1.084 1.084 0 0 0-1.176-1.03c-.567.032-1.039.565-1.008 1.123Z" fill="#6A6A6A"/></svg>