<svg
  width="200"
  height="106"
  viewBox="0 0 200 106"
  fill="none"
  xmlns="http://www.w3.org/2000/svg"
>
  <path
    d="M76.6348 83.454C78.0028 83.454 79.1848 83.712 80.1808 84.228C81.1888 84.732 81.9568 85.458 82.4848 86.406C83.0248 87.354 83.2948 88.47 83.2948 89.754C83.2948 91.038 83.0248 92.154 82.4848 93.102C81.9568 94.038 81.1888 94.758 80.1808 95.262C79.1848 95.754 78.0028 96 76.6348 96H72.7288V83.454H76.6348ZM76.6348 94.65C78.2548 94.65 79.4908 94.224 80.3428 93.372C81.1948 92.508 81.6208 91.302 81.6208 89.754C81.6208 88.194 81.1888 86.976 80.3248 86.1C79.4728 85.224 78.2428 84.786 76.6348 84.786H74.3668V94.65H76.6348ZM89.7573 96.162C88.8333 96.162 87.9933 95.952 87.2373 95.532C86.4933 95.112 85.9053 94.518 85.4733 93.75C85.0533 92.97 84.8433 92.07 84.8433 91.05C84.8433 90.042 85.0593 89.154 85.4913 88.386C85.9353 87.606 86.5353 87.012 87.2913 86.604C88.0473 86.184 88.8933 85.974 89.8293 85.974C90.7653 85.974 91.6113 86.184 92.3673 86.604C93.1233 87.012 93.7173 87.6 94.1493 88.368C94.5933 89.136 94.8153 90.03 94.8153 91.05C94.8153 92.07 94.5873 92.97 94.1313 93.75C93.6873 94.518 93.0813 95.112 92.3133 95.532C91.5453 95.952 90.6933 96.162 89.7573 96.162ZM89.7573 94.722C90.3453 94.722 90.8973 94.584 91.4133 94.308C91.9293 94.032 92.3433 93.618 92.6553 93.066C92.9793 92.514 93.1413 91.842 93.1413 91.05C93.1413 90.258 92.9853 89.586 92.6733 89.034C92.3613 88.482 91.9533 88.074 91.4493 87.81C90.9453 87.534 90.3993 87.396 89.8113 87.396C89.2113 87.396 88.6593 87.534 88.1553 87.81C87.6633 88.074 87.2673 88.482 86.9673 89.034C86.6673 89.586 86.5173 90.258 86.5173 91.05C86.5173 91.854 86.6613 92.532 86.9493 93.084C87.2493 93.636 87.6453 94.05 88.1373 94.326C88.6293 94.59 89.1693 94.722 89.7573 94.722ZM96.357 91.05C96.357 90.03 96.561 89.142 96.969 88.386C97.377 87.618 97.941 87.024 98.661 86.604C99.393 86.184 100.227 85.974 101.163 85.974C102.375 85.974 103.371 86.268 104.151 86.856C104.943 87.444 105.465 88.26 105.717 89.304H103.953C103.785 88.704 103.455 88.23 102.963 87.882C102.483 87.534 101.883 87.36 101.163 87.36C100.227 87.36 99.471 87.684 98.895 88.332C98.319 88.968 98.031 89.874 98.031 91.05C98.031 92.238 98.319 93.156 98.895 93.804C99.471 94.452 100.227 94.776 101.163 94.776C101.883 94.776 102.483 94.608 102.963 94.272C103.443 93.936 103.773 93.456 103.953 92.832H105.717C105.453 93.84 104.925 94.65 104.133 95.262C103.341 95.862 102.351 96.162 101.163 96.162C100.227 96.162 99.393 95.952 98.661 95.532C97.941 95.112 97.377 94.518 96.969 93.75C96.561 92.982 96.357 92.082 96.357 91.05ZM113.411 96L109.541 91.644V96H107.903V82.68H109.541V90.51L113.339 86.136H115.625L110.981 91.05L115.643 96H113.411ZM126.166 90.69C126.166 91.002 126.148 91.332 126.112 91.68H118.228C118.288 92.652 118.618 93.414 119.218 93.966C119.83 94.506 120.568 94.776 121.432 94.776C122.14 94.776 122.728 94.614 123.196 94.29C123.676 93.954 124.012 93.51 124.204 92.958H125.968C125.704 93.906 125.176 94.68 124.384 95.28C123.592 95.868 122.608 96.162 121.432 96.162C120.496 96.162 119.656 95.952 118.912 95.532C118.18 95.112 117.604 94.518 117.184 93.75C116.764 92.97 116.554 92.07 116.554 91.05C116.554 90.03 116.758 89.136 117.166 88.368C117.574 87.6 118.144 87.012 118.876 86.604C119.62 86.184 120.472 85.974 121.432 85.974C122.368 85.974 123.196 86.178 123.916 86.586C124.636 86.994 125.188 87.558 125.572 88.278C125.968 88.986 126.166 89.79 126.166 90.69ZM124.474 90.348C124.474 89.724 124.336 89.19 124.06 88.746C123.784 88.29 123.406 87.948 122.926 87.72C122.458 87.48 121.936 87.36 121.36 87.36C120.532 87.36 119.824 87.624 119.236 88.152C118.66 88.68 118.33 89.412 118.246 90.348H124.474ZM129.966 87.738C130.254 87.174 130.662 86.736 131.19 86.424C131.73 86.112 132.384 85.956 133.152 85.956V87.648H132.72C130.884 87.648 129.966 88.644 129.966 90.636V96H128.328V86.136H129.966V87.738Z"
    fill="#A0A0A0"
  ></path>
  <path
    d="M37.2197 6.32978H43.2045C43.488 6.32978 43.74 6.11253 43.74 5.80225V0.527532C43.74 0.248161 43.488 0 43.2045 0H37.2197C36.9362 0 36.6842 0.217255 36.6842 0.527532V5.80225C36.6842 6.08132 36.9362 6.32978 37.2197 6.32978Z"
    fill="#6A6A6A"
  ></path>
  <path
    d="M26.5101 13.9007H20.5254C20.2419 13.9007 20.0214 13.6522 19.9899 13.3731V8.09843C19.9899 7.78815 20.2419 7.57089 20.5254 7.57089H26.5101C26.8251 7.57089 27.0456 7.81906 27.0456 8.09843V13.3731C27.0456 13.6522 26.7936 13.9007 26.5101 13.9007Z"
    fill="#6A6A6A"
  ></path>
  <path
    d="M67.7102 16.7238C71.3641 16.7238 73.065 17.9961 73.254 18.1512L73.9155 18.6167L73.632 19.4233C73.1595 20.5404 72.498 21.5331 71.6161 22.34C70.2931 23.6432 67.8992 25.1634 64.0249 25.1634H63.3949C61.8514 29.0731 59.741 33.4788 56.1817 37.4193C54.0712 39.7776 51.5828 41.7944 48.811 43.3767C45.4406 45.2693 41.7867 46.5725 37.9754 47.2552C35.235 47.7515 32.4631 48 29.6912 48C23.5489 48 18.0996 46.8519 14.7608 44.8351C11.7999 43.0356 9.50047 40.0879 7.95704 36.1161C6.60258 32.4861 5.94111 28.6386 6.00411 24.791C6.00411 23.6432 6.94907 22.7124 8.11453 22.7124H52.8428C53.4098 22.6812 56.1187 22.4639 57.7881 21.5331C56.4022 19.3611 55.9927 16.8171 56.6541 14.1176C57.0006 12.7214 57.5991 11.356 58.3866 10.1461L59.0165 9.24621L59.993 9.80465C60.0035 9.81283 60.031 9.83071 60.0733 9.85828C60.6678 10.2452 64.1969 12.5405 64.8438 16.9722C65.7888 16.8171 66.7653 16.7238 67.7102 16.7238Z"
    fill="#6A6A6A"
  ></path>
  <path
    d="M18.2577 21.4404H12.2729C11.9894 21.4404 11.7689 21.2231 11.7375 20.9128V15.6381C11.7375 15.3278 11.9894 15.1106 12.2729 15.1106H18.2577C18.5727 15.1106 18.7932 15.3587 18.7932 15.6381V20.9128C18.7932 21.2231 18.5412 21.4404 18.2577 21.4404Z"
    fill="#6A6A6A"
  ></path>
  <path
    d="M20.5254 21.4404H26.5101C26.7936 21.4404 27.0456 21.2231 27.0456 20.9128V15.6381C27.0456 15.3587 26.8251 15.1106 26.5101 15.1106H20.5254C20.2419 15.1106 19.9899 15.3278 19.9899 15.6381V20.9128C20.0214 21.2231 20.2419 21.4404 20.5254 21.4404Z"
    fill="#6A6A6A"
  ></path>
  <path
    d="M28.9353 13.9007H34.9201C35.2035 13.9007 35.4555 13.6522 35.4555 13.3731V8.09843C35.4555 7.81906 35.2351 7.57089 34.9201 7.57089H28.9353C28.6518 7.57089 28.3998 7.78815 28.3998 8.09843V13.3731C28.3998 13.6522 28.6203 13.9007 28.9353 13.9007Z"
    fill="#6A6A6A"
  ></path>
  <path
    d="M43.2045 13.9007H37.2197C36.9362 13.9007 36.6842 13.6522 36.6842 13.3731V8.09843C36.6842 7.78815 36.9362 7.57089 37.2197 7.57089H43.2045C43.488 7.57089 43.74 7.81906 43.74 8.09843V13.3731C43.74 13.6522 43.488 13.9007 43.2045 13.9007Z"
    fill="#6A6A6A"
  ></path>
  <path
    d="M51.5517 21.4404H45.5669C45.2834 21.4404 45.0629 21.2231 45.0314 20.9128V15.6381C45.0314 15.3278 45.2834 15.1106 45.5669 15.1106H51.5517C51.8666 15.1106 52.0871 15.3587 52.0871 15.6381V20.9128C52.0871 21.2231 51.8351 21.4404 51.5517 21.4404Z"
    fill="#6A6A6A"
  ></path>
  <path
    d="M28.9353 21.4404H34.9201C35.2035 21.4404 35.4555 21.2231 35.4555 20.9128V15.6381C35.4555 15.3587 35.2351 15.1106 34.9201 15.1106H28.9353C28.6518 15.1106 28.3998 15.3278 28.3998 15.6381V20.9128C28.3998 21.2231 28.6203 21.4404 28.9353 21.4404Z"
    fill="#6A6A6A"
  ></path>
  <path
    d="M43.2045 21.4404H37.2197C36.9362 21.4404 36.6842 21.2231 36.6842 20.9128V15.6381C36.6842 15.3278 36.9362 15.1106 37.2197 15.1106H43.2045C43.5195 15.1106 43.74 15.3587 43.74 15.6381V20.9128C43.74 21.2231 43.488 21.4404 43.2045 21.4404Z"
    fill="#6A6A6A"
  ></path>
  <path
    fill-rule="evenodd"
    clip-rule="evenodd"
    d="M94.8627 13.9934C93.8548 13.9625 93.0358 14.7382 93.0043 15.6999V24.6359C88.689 21.2228 82.3577 21.9055 78.8929 26.1563C77.4754 27.925 76.688 30.0969 76.688 32.3619C76.5934 37.8227 81.0033 42.3217 86.5471 42.4147C92.0908 42.508 96.6582 38.1641 96.7527 32.7031V15.8242C96.7527 15.3275 96.5637 14.8621 96.2172 14.5209C95.8392 14.1794 95.3667 13.9934 94.8627 13.9934ZM92.5003 34.7511C91.8704 36.2404 90.6734 37.4193 89.1615 38.0708C87.5865 38.7226 85.8226 38.7226 84.2476 38.0708C82.7357 37.4503 81.5702 36.2404 80.9403 34.782C80.2788 33.2615 80.2788 31.5241 80.9403 29.9727C81.5702 28.4834 82.7672 27.3044 84.2476 26.6839C85.8226 26.0321 87.5865 26.0321 89.1615 26.6839C90.6734 27.3353 91.8704 28.5143 92.5003 30.0036C93.1618 31.4932 93.1618 33.2306 92.5003 34.7511Z"
    fill="#6A6A6A"
  ></path>
  <path
    fill-rule="evenodd"
    clip-rule="evenodd"
    d="M115.809 25.3806C111.903 21.5334 105.54 21.5334 101.634 25.3806C99.7446 27.2423 98.7051 29.7557 98.7051 32.3619C98.6106 37.823 103.02 42.322 108.564 42.415C114.108 42.508 118.675 38.1641 118.77 32.7034V32.3619C118.77 31.0587 118.518 29.7866 118.014 28.5764C117.51 27.3665 116.754 26.2806 115.809 25.3806ZM114.517 34.7202C114.202 35.4647 113.73 36.1164 113.163 36.6749C112.596 37.2333 111.903 37.6987 111.179 38.009C109.604 38.6605 107.84 38.6605 106.265 38.009C104.753 37.3884 103.556 36.1782 102.926 34.7202C102.264 33.1997 102.264 31.4623 102.926 29.9109C103.556 28.4213 104.753 27.2735 106.265 26.6218C107.84 25.9703 109.604 25.9703 111.179 26.6218C111.935 26.932 112.596 27.3974 113.163 27.9559C113.73 28.5146 114.202 29.197 114.517 29.9109C115.179 31.4932 115.179 33.2306 114.517 34.7202Z"
    fill="#6A6A6A"
  ></path>
  <path
    d="M157.136 23.5811C157.23 23.798 157.293 24.0465 157.293 24.2947C157.325 24.884 157.073 25.4428 156.569 25.753L149.072 30.5623L156.758 39.095C157.073 39.4362 157.262 39.9016 157.262 40.367C157.262 40.6152 157.199 40.8633 157.104 41.0806C157.055 41.1936 156.989 41.2984 156.914 41.399C156.846 41.4917 156.77 41.5808 156.695 41.6702C156.594 41.7693 156.494 41.8508 156.388 41.9193C156.338 41.9517 156.287 41.9814 156.235 42.0087C156.19 42.032 156.144 42.0535 156.096 42.0735C155.876 42.1977 155.624 42.2287 155.372 42.2287C154.899 42.2596 154.458 42.0735 154.112 41.7632L145.828 32.6101L143.654 34.0063V40.367C143.686 40.8633 143.465 41.3287 143.119 41.6702C142.772 42.0426 142.3 42.2287 141.796 42.2287C141.292 42.2287 140.819 42.0426 140.473 41.6702C140.126 41.3287 139.937 40.8633 139.937 40.367V15.8242C139.969 14.8 140.788 13.9934 141.827 13.9934C142.331 13.9934 142.804 14.2107 143.15 14.5518C143.497 14.8933 143.686 15.3587 143.686 15.8551V29.5694L154.395 22.7121C154.71 22.526 155.057 22.433 155.403 22.433C155.655 22.433 155.907 22.4951 156.128 22.5881C156.348 22.6812 156.569 22.8363 156.726 22.9914C156.829 23.1133 156.933 23.2354 157.018 23.366C157.037 23.3944 157.054 23.4232 157.071 23.4526C157.095 23.4944 157.117 23.5372 157.136 23.5811Z"
    fill="#6A6A6A"
  ></path>
  <path
    d="M126.204 27.9559C126.771 27.3974 127.464 26.932 128.22 26.6218C129.007 26.3115 129.826 26.1251 130.677 26.1251C131.433 26.1251 132.157 26.2494 132.85 26.4975C133.543 26.7769 134.204 27.149 134.771 27.6456C135.118 27.9247 135.559 28.0489 136 28.0489C136.504 28.0798 137.008 27.8938 137.354 27.5214C137.701 27.1802 137.89 26.6836 137.89 26.1872C137.89 25.6597 137.669 25.1322 137.228 24.791C135.433 23.2087 133.102 22.3397 130.677 22.4018C125.133 22.4018 120.628 26.8387 120.628 32.2998C120.628 37.7605 125.101 42.1665 130.614 42.1974C133.039 42.1974 135.37 41.3599 137.197 39.8085C137.575 39.4671 137.795 38.9707 137.795 38.4432C137.827 37.4503 137.039 36.6437 136.063 36.6124H135.937C135.496 36.6124 135.086 36.7367 134.74 36.9848C134.173 37.4815 133.543 37.8536 132.85 38.1329C132.157 38.3811 131.401 38.5053 130.677 38.5053C129.826 38.5053 129.007 38.3502 128.22 38.0087C127.464 37.6984 126.802 37.233 126.204 36.6746C123.747 34.2545 123.747 30.3451 126.172 27.9247C126.189 27.958 126.197 27.9735 126.201 27.9759C126.204 27.978 126.204 27.9701 126.204 27.9559Z"
    fill="#6A6A6A"
  ></path>
  <path
    d="M193.233 22.9605C193.705 23.1157 194.115 23.3638 194.493 23.7053C194.839 24.0465 195.028 24.481 194.997 24.9464C194.997 25.1946 194.934 25.4428 194.839 25.66C194.804 25.7409 194.76 25.8215 194.711 25.8991C194.628 26.03 194.529 26.1518 194.43 26.2494C194.241 26.4357 194.052 26.5596 193.831 26.653C193.719 26.716 193.599 26.7551 193.475 26.7781C193.354 26.8005 193.231 26.8081 193.107 26.8081C192.823 26.8081 192.571 26.746 192.319 26.6218C191.532 26.3427 190.713 26.1875 189.862 26.1875C189.012 26.1875 188.193 26.3736 187.405 26.6839C186.681 26.9941 185.988 27.4596 185.421 28.018C184.823 28.5764 184.382 29.2282 184.067 29.9727C183.72 30.7484 183.563 31.5553 183.563 32.3931V40.4291C183.531 41.3911 182.744 42.1668 181.767 42.1977C180.728 42.2287 179.846 41.453 179.814 40.4291V24.3259C179.846 23.3638 180.633 22.5881 181.61 22.5572C182.649 22.526 183.531 23.3017 183.563 24.3259V24.698C184.445 24.0156 185.421 23.4569 186.492 23.0848C187.563 22.6812 188.728 22.4951 189.862 22.4951C190.429 22.4951 190.996 22.526 191.563 22.5881C192.13 22.6503 192.697 22.7745 193.233 22.9605Z"
    fill="#6A6A6A"
  ></path>
  <path
    fill-rule="evenodd"
    clip-rule="evenodd"
    d="M177.105 28.5764C175.499 24.9152 171.845 22.526 167.813 22.4951C162.269 22.4951 157.797 26.9011 157.765 32.3619C157.765 37.823 162.269 42.2599 167.813 42.2599C170.207 42.2599 172.538 41.4221 174.365 39.8707L174.428 39.8085C174.585 39.6846 174.743 39.5295 174.837 39.3431C175.436 38.4744 175.215 37.3263 174.365 36.737C173.64 36.2716 172.695 36.3646 172.065 36.9539C172.03 36.9888 171.955 37.0527 171.897 37.1076C171.85 37.1509 171.813 37.1888 171.813 37.2024L171.782 37.2333C171.247 37.6678 170.648 38.0399 169.987 38.2572C169.294 38.5053 168.569 38.6296 167.813 38.5986C167.12 38.5986 166.459 38.5053 165.797 38.2884C165.167 38.0711 164.569 37.7917 164.033 37.3884C163.498 37.0161 163.025 36.5506 162.647 36.0231C162.238 35.4959 161.954 34.8753 161.765 34.2548H175.94C176.444 34.2548 176.916 34.0684 177.263 33.7272C177.641 33.3857 177.83 32.9203 177.798 32.424C177.83 31.0899 177.578 29.7866 177.105 28.5764ZM161.765 30.5623C161.954 29.9109 162.238 29.3212 162.647 28.7937C163.025 28.2662 163.498 27.8007 164.033 27.4287C164.569 27.0563 165.167 26.746 165.797 26.5287C166.427 26.3115 167.12 26.2185 167.782 26.2185C168.443 26.2185 169.136 26.3115 169.766 26.5287C171.026 26.932 172.128 27.7389 172.916 28.7937C173.325 29.3212 173.609 29.9418 173.829 30.5623H161.765Z"
    fill="#6A6A6A"
  ></path>
  <path
    fill-rule="evenodd"
    clip-rule="evenodd"
    d="M188.413 40.8636C188.571 40.8324 188.665 40.7085 188.665 40.5533C188.665 40.2444 188.362 40.1809 188.098 40.1809C187.941 40.1809 187.752 40.1809 187.594 40.2118V41.4842H187.878V40.9875H188.004C188.069 40.9875 188.124 40.9985 188.168 41.02C188.229 41.0503 188.269 41.1015 188.287 41.1739C188.296 41.2015 188.306 41.2318 188.315 41.263L188.335 41.3305C188.35 41.3845 188.366 41.4381 188.382 41.4842H188.697C188.634 41.3911 188.638 41.263 188.62 41.1739C188.587 41.02 188.539 40.9257 188.413 40.8636ZM188.035 40.7706H187.878V40.3982H188.035C188.187 40.3982 188.319 40.4675 188.319 40.5842C188.319 40.701 188.231 40.7706 188.035 40.7706Z"
    fill="#6A6A6A"
  ></path>
  <path
    fill-rule="evenodd"
    clip-rule="evenodd"
    d="M186.807 40.8636C186.807 40.15 187.374 39.5604 188.098 39.5604C188.823 39.5604 189.421 40.1188 189.421 40.8636C189.421 41.5463 188.854 42.1356 188.13 42.1356C187.405 42.1356 186.807 41.5772 186.807 40.8636ZM187.027 40.8945C187.059 41.453 187.531 41.9574 188.098 41.9264H188.13C188.697 41.9264 189.243 41.3911 189.211 40.8636V40.8015C189.18 40.2431 188.729 39.7338 188.035 39.7716C187.468 39.8025 186.996 40.3361 187.027 40.8945Z"
    fill="#6A6A6A"
  ></path>
</svg>
