<svg width="85" height="143" viewBox="0 0 85 143" fill="none" xmlns="http://www.w3.org/2000/svg"><path d="M21.774 124.126c0 1.044-.36 1.914-1.08 2.61-.708.684-1.794 1.026-3.258 1.026h-2.412V133h-1.638v-12.546h4.05c1.416 0 2.49.342 3.222 1.026.744.684 1.116 1.566 1.116 2.646Zm-4.338 2.286c.912 0 1.584-.198 2.016-.594.432-.396.648-.96.648-1.692 0-1.548-.888-2.322-2.664-2.322h-2.412v4.608h2.412Zm14.87-3.276-5.94 14.508h-1.692l1.944-4.752-3.978-9.756h1.818l3.096 7.992 3.06-7.992h1.692Zm3.644 1.35v5.814c0 .48.102.822.306 1.026.204.192.558.288 1.062.288h1.206V133h-1.476c-.912 0-1.596-.21-2.052-.63-.456-.42-.684-1.11-.684-2.07v-5.814h-1.278v-1.35h1.278v-2.484h1.638v2.484h2.574v1.35H35.95Zm9.455-1.53c.744 0 1.416.162 2.016.486.6.312 1.068.786 1.404 1.422.348.636.522 1.41.522 2.322V133h-1.62v-5.58c0-.984-.246-1.734-.738-2.25-.492-.528-1.164-.792-2.016-.792-.864 0-1.554.27-2.07.81-.504.54-.756 1.326-.756 2.358V133h-1.638v-13.32h1.638v4.86a3.24 3.24 0 0 1 1.332-1.17c.576-.276 1.218-.414 1.926-.414Zm10.92 10.206c-.924 0-1.764-.21-2.52-.63a4.58 4.58 0 0 1-1.764-1.782c-.42-.78-.63-1.68-.63-2.7 0-1.008.216-1.896.648-2.664a4.51 4.51 0 0 1 1.8-1.782c.756-.42 1.602-.63 2.538-.63.936 0 1.782.21 2.538.63.756.408 1.35.996 1.782 1.764.444.768.666 1.662.666 2.682s-.228 1.92-.684 2.7a4.634 4.634 0 0 1-1.818 1.782c-.768.42-1.62.63-2.556.63Zm0-1.44c.588 0 1.14-.138 1.656-.414.516-.276.93-.69 1.242-1.242.324-.552.486-1.224.486-2.016s-.156-1.464-.468-2.016c-.312-.552-.72-.96-1.224-1.224a3.356 3.356 0 0 0-1.638-.414c-.6 0-1.152.138-1.656.414-.492.264-.888.672-1.188 1.224-.3.552-.45 1.224-.45 2.016 0 .804.144 1.482.432 2.034.3.552.696.966 1.188 1.242a3.372 3.372 0 0 0 1.62.396Zm12.017-8.766c1.2 0 2.172.366 2.916 1.098.744.72 1.116 1.764 1.116 3.132V133h-1.62v-5.58c0-.984-.246-1.734-.738-2.25-.492-.528-1.164-.792-2.016-.792-.864 0-1.554.27-2.07.81-.504.54-.756 1.326-.756 2.358V133h-1.638v-9.864h1.638v1.404a3.266 3.266 0 0 1 1.314-1.17 4.16 4.16 0 0 1 1.854-.414Z" fill="#A0A0A0"/><path d="M41.995 0c-3.505.017-6.852.316-9.797.838C23.52 2.37 21.946 5.582 21.946 11.502v7.82h20.503v2.606H14.252c-5.96 0-11.177 3.584-12.809 10.402-1.882 7.815-1.966 12.692 0 20.852 1.458 6.074 4.938 10.402 10.897 10.402h7.05v-9.373c0-6.772 5.854-12.746 12.808-12.746h20.478c5.701 0 10.252-4.697 10.252-10.426V11.503c0-5.56-4.688-9.738-10.252-10.665C49.154.25 45.5-.015 41.995 0ZM30.907 6.29c2.118 0 3.847 1.758 3.847 3.921 0 2.155-1.729 3.898-3.846 3.898-2.126 0-3.848-1.743-3.848-3.898 0-2.163 1.722-3.921 3.847-3.921Z" fill="#AFAFAF"/><path d="M65.484 21.928v9.11c0 7.064-5.984 13.01-12.808 13.01H32.197c-5.61 0-10.252 4.804-10.252 10.425V74.01c0 5.56 4.832 8.83 10.252 10.426 6.49 1.91 12.714 2.254 20.478 0 5.162-1.496 10.252-4.506 10.252-10.426v-7.82H42.448v-2.606h30.73c5.96 0 8.18-4.16 10.252-10.402 2.14-6.427 2.05-12.607 0-20.852-1.473-5.935-4.285-10.402-10.252-10.402h-7.694ZM53.966 71.403c2.126 0 3.848 1.743 3.848 3.898 0 2.163-1.722 3.922-3.848 3.922-2.118 0-3.846-1.759-3.846-3.922 0-2.155 1.728-3.898 3.846-3.898Z" fill="#DBDBDB"/></svg>