<svg width="96" height="145" viewBox="0 0 96 145" fill="none" xmlns="http://www.w3.org/2000/svg"><path d="M1.48 129.718c0-1.224.276-2.322.828-3.294a6.017 6.017 0 0 1 2.25-2.304c.96-.552 2.022-.828 3.186-.828 1.368 0 2.562.33 3.582.99 1.02.66 1.764 1.596 2.232 2.808h-1.962c-.348-.756-.852-1.338-1.512-1.746-.648-.408-1.428-.612-2.34-.612-.876 0-1.662.204-2.358.612-.696.408-1.242.99-1.638 1.746-.396.744-.594 1.62-.594 2.628 0 .996.198 1.872.594 2.628.396.744.942 1.32 1.638 1.728.696.408 1.482.612 2.358.612.912 0 1.692-.198 2.34-.594.66-.408 1.164-.99 1.512-1.746h1.962c-.468 1.2-1.212 2.13-2.232 2.79-1.02.648-2.214.972-3.582.972-1.164 0-2.226-.27-3.186-.81a6.053 6.053 0 0 1-2.25-2.286c-.552-.972-.828-2.07-.828-3.294Zm18.818 6.444c-.924 0-1.764-.21-2.52-.63a4.58 4.58 0 0 1-1.764-1.782c-.42-.78-.63-1.68-.63-2.7 0-1.008.216-1.896.648-2.664a4.51 4.51 0 0 1 1.8-1.782c.756-.42 1.602-.63 2.538-.63.936 0 1.782.21 2.538.63.756.408 1.35.996 1.782 1.764.444.768.666 1.662.666 2.682s-.228 1.92-.684 2.7a4.634 4.634 0 0 1-1.818 1.782c-.768.42-1.62.63-2.556.63Zm0-1.44c.588 0 1.14-.138 1.656-.414.516-.276.93-.69 1.242-1.242.324-.552.486-1.224.486-2.016s-.156-1.464-.468-2.016c-.312-.552-.72-.96-1.224-1.224a3.356 3.356 0 0 0-1.638-.414c-.6 0-1.152.138-1.656.414-.492.264-.888.672-1.188 1.224-.3.552-.45 1.224-.45 2.016 0 .804.144 1.482.432 2.034.3.552.696.966 1.188 1.242a3.372 3.372 0 0 0 1.62.396Zm12.018-8.766c1.2 0 2.172.366 2.916 1.098.744.72 1.116 1.764 1.116 3.132V136h-1.62v-5.58c0-.984-.246-1.734-.738-2.25-.492-.528-1.164-.792-2.016-.792-.864 0-1.554.27-2.07.81-.504.54-.756 1.326-.756 2.358V136H27.51v-9.864h1.638v1.404a3.266 3.266 0 0 1 1.314-1.17 4.16 4.16 0 0 1 1.854-.414Zm8.706 1.53v5.814c0 .48.102.822.306 1.026.204.192.558.288 1.062.288h1.206V136H42.12c-.912 0-1.596-.21-2.052-.63-.456-.42-.684-1.11-.684-2.07v-5.814h-1.278v-1.35h1.278v-2.484h1.638v2.484h2.574v1.35h-2.574Zm13.558 3.204c0 .312-.018.642-.054.99h-7.884c.06.972.39 1.734.99 2.286.612.54 1.35.81 2.214.81.708 0 1.296-.162 1.764-.486.48-.336.816-.78 1.008-1.332h1.764a4.284 4.284 0 0 1-1.584 2.322c-.792.588-1.776.882-2.952.882-.936 0-1.776-.21-2.52-.63a4.492 4.492 0 0 1-1.728-1.782c-.42-.78-.63-1.68-.63-2.7 0-1.02.204-1.914.612-2.682a4.254 4.254 0 0 1 1.71-1.764c.744-.42 1.596-.63 2.556-.63.936 0 1.764.204 2.484.612.72.408 1.272.972 1.656 1.692.396.708.594 1.512.594 2.412Zm-1.692-.342c0-.624-.138-1.158-.414-1.602a2.605 2.605 0 0 0-1.134-1.026c-.468-.24-.99-.36-1.566-.36-.828 0-1.536.264-2.124.792-.576.528-.906 1.26-.99 2.196h6.228Zm8.66-4.392c1.2 0 2.172.366 2.916 1.098.744.72 1.116 1.764 1.116 3.132V136h-1.62v-5.58c0-.984-.246-1.734-.738-2.25-.492-.528-1.164-.792-2.016-.792-.864 0-1.554.27-2.07.81-.504.54-.756 1.326-.756 2.358V136h-1.638v-9.864h1.638v1.404a3.266 3.266 0 0 1 1.314-1.17 4.16 4.16 0 0 1 1.854-.414Zm8.706 1.53v5.814c0 .48.102.822.306 1.026.204.192.558.288 1.062.288h1.206V136h-1.476c-.912 0-1.596-.21-2.052-.63-.456-.42-.684-1.11-.684-2.07v-5.814h-1.278v-1.35h1.278v-2.484h1.638v2.484h2.574v1.35h-2.574Zm8.573 0h-2.07V136h-1.638v-8.514H73.84v-1.35h1.278v-.702c0-1.104.282-1.908.846-2.412.576-.516 1.494-.774 2.754-.774v1.368c-.72 0-1.23.144-1.53.432-.288.276-.432.738-.432 1.386v.702h2.07v1.35Zm10.658-1.35V136h-1.638v-1.458c-.312.504-.75.9-1.314 1.188a4.047 4.047 0 0 1-1.836.414c-.768 0-1.458-.156-2.07-.468a3.582 3.582 0 0 1-1.458-1.44c-.348-.636-.522-1.41-.522-2.322v-5.778h1.62v5.562c0 .972.246 1.722.738 2.25.492.516 1.164.774 2.016.774.876 0 1.566-.27 2.07-.81.504-.54.756-1.326.756-2.358v-5.418h1.638Zm4.403-3.456V136H92.25v-13.32h1.638Z" fill="#A0A0A0"/><path d="M32.25 68.98a22.127 22.127 0 0 1-4.747-7.21 22.207 22.207 0 0 1-1.632-8.488 21.973 21.973 0 0 1 1.677-8.477 21.894 21.894 0 0 1 4.812-7.164 8.755 8.755 0 0 0 .385-12.676 8.65 8.65 0 0 0-9.799-1.764 8.689 8.689 0 0 0-2.822 2.096A39.673 39.673 0 0 0 8.5 53.249 39.675 39.675 0 0 0 19.955 81.27a8.654 8.654 0 0 0 12.598.365 8.759 8.759 0 0 0-.304-12.657Z" fill="#CCC"/><path d="M32.36 37.64a22.043 22.043 0 0 1 15.622-6.42c5.848.02 11.45 2.37 15.576 6.532a8.689 8.689 0 0 0 2.813 2.12 8.653 8.653 0 0 0 9.826-1.71c.84-.838 1.5-1.841 1.939-2.946a8.76 8.76 0 0 0-.19-6.916 8.72 8.72 0 0 0-2.098-2.834 39.262 39.262 0 0 0-12.728-8.651 39.12 39.12 0 0 0-30.14-.124 39.258 39.258 0 0 0-12.798 8.547 8.72 8.72 0 0 0-2.11 2.816 8.758 8.758 0 0 0 1.668 9.856 8.652 8.652 0 0 0 12.62-.27Z" fill="#D8D8D8"/><path d="M63.505 69.09a22.034 22.034 0 0 1-7.18 4.78 21.954 21.954 0 0 1-8.453 1.652 21.705 21.705 0 0 1-8.442-1.696 21.785 21.785 0 0 1-7.129-4.847 8.688 8.688 0 0 0-2.813-2.107 8.653 8.653 0 0 0-9.806 1.72 8.727 8.727 0 0 0-1.935 2.941 8.76 8.76 0 0 0 .18 6.902 8.72 8.72 0 0 0 2.085 2.835 39.334 39.334 0 0 0 12.744 8.65 39.19 39.19 0 0 0 30.167.12 39.328 39.328 0 0 0 12.813-8.547 8.763 8.763 0 0 0 .058-12.345 8.657 8.657 0 0 0-12.29-.058Z" fill="#B2B2B2"/><path d="M32.358 37.64a8.673 8.673 0 0 1-4.456 2.387 8.649 8.649 0 0 1-5.025-.507 8.694 8.694 0 0 1-3.894-3.23 8.753 8.753 0 0 1 .041-9.707 8.694 8.694 0 0 1 3.922-3.195 8.649 8.649 0 0 1 5.03-.464 8.673 8.673 0 0 1 4.435 2.425 8.744 8.744 0 0 1 2.494 6.157 8.744 8.744 0 0 1-2.547 6.135ZM32.191 81.27a8.673 8.673 0 0 1-4.457 2.385 8.648 8.648 0 0 1-5.024-.51 8.693 8.693 0 0 1-3.893-3.23 8.752 8.752 0 0 1 .045-9.708 8.693 8.693 0 0 1 3.924-3.194 8.649 8.649 0 0 1 5.029-.461 8.674 8.674 0 0 1 4.434 2.427 8.745 8.745 0 0 1 2.492 6.157 8.744 8.744 0 0 1-2.55 6.134Z" fill="#E6E6E6"/></svg>