<svg width="114" height="148" viewBox="0 0 114 148" fill="none" xmlns="http://www.w3.org/2000/svg"><path d="M37.322 129.09a3.844 3.844 0 0 0-1.512-1.692c-.66-.408-1.428-.612-2.304-.612-.876 0-1.668.204-2.376.612-.696.396-1.248.972-1.656 1.728-.396.744-.594 1.608-.594 2.592s.198 1.848.594 2.592c.408.744.96 1.32 1.656 1.728.708.396 1.5.594 2.376.594 1.224 0 2.232-.366 3.024-1.098.792-.732 1.254-1.722 1.386-2.97h-5.004v-1.332h6.75v1.26a6.289 6.289 0 0 1-.972 2.844 6.11 6.11 0 0 1-2.178 2.034c-.9.492-1.902.738-3.006.738-1.164 0-2.226-.27-3.186-.81a6.146 6.146 0 0 1-2.286-2.286c-.552-.972-.828-2.07-.828-3.294 0-1.224.276-2.322.828-3.294a5.976 5.976 0 0 1 2.286-2.286c.96-.552 2.022-.828 3.186-.828 1.332 0 2.508.33 3.528.99 1.032.66 1.782 1.59 2.25 2.79h-1.962Zm5.351-2.556c-.312 0-.576-.108-.792-.324a1.077 1.077 0 0 1-.324-.792c0-.312.108-.576.324-.792.216-.216.48-.324.792-.324.3 0 .552.108.756.324.216.216.324.48.324.792 0 .312-.108.576-.324.792a.998.998 0 0 1-.756.324Zm.792 1.602V138h-1.638v-9.864h1.638Zm4.79 1.35v5.814c0 .48.102.822.306 1.026.204.192.558.288 1.062.288h1.206V138h-1.476c-.912 0-1.596-.21-2.052-.63-.456-.42-.684-1.11-.684-2.07v-5.814H45.34v-1.35h1.278v-2.484h1.638v2.484h2.574v1.35h-2.574Zm14.225-4.032V138h-1.638v-5.688h-6.39V138h-1.638v-12.546h1.638v5.508h6.39v-5.508h1.638Zm11.545 2.682V138h-1.638v-1.458c-.312.504-.75.9-1.314 1.188a4.047 4.047 0 0 1-1.836.414c-.768 0-1.458-.156-2.07-.468a3.582 3.582 0 0 1-1.458-1.44c-.348-.636-.522-1.41-.522-2.322v-5.778h1.62v5.562c0 .972.246 1.722.738 2.25.492.516 1.164.774 2.016.774.876 0 1.566-.27 2.07-.81.504-.54.756-1.326.756-2.358v-5.418h1.638Zm4.403 1.836c.336-.588.828-1.068 1.476-1.44.648-.372 1.386-.558 2.214-.558.888 0 1.686.21 2.394.63a4.446 4.446 0 0 1 1.674 1.782c.408.756.612 1.638.612 2.646 0 .996-.204 1.884-.612 2.664a4.504 4.504 0 0 1-1.692 1.818c-.708.432-1.5.648-2.376.648-.852 0-1.602-.186-2.25-.558-.636-.372-1.116-.846-1.44-1.422V138H76.79v-13.32h1.638v5.292Zm6.696 3.06c0-.744-.15-1.392-.45-1.944a3.098 3.098 0 0 0-1.224-1.26 3.314 3.314 0 0 0-1.674-.432c-.6 0-1.158.15-1.674.45-.504.288-.912.714-1.224 1.278-.3.552-.45 1.194-.45 1.926 0 .744.15 1.398.45 1.962.312.552.72.978 1.224 1.278a3.379 3.379 0 0 0 1.674.432c.612 0 1.17-.144 1.674-.432.516-.3.924-.726 1.224-1.278.3-.564.45-1.224.45-1.98Z" fill="#A0A0A0"/><path d="M98.378 45.168 60.83 7.622a5.539 5.539 0 0 0-7.832 0L45.2 15.419l9.89 9.89a6.575 6.575 0 0 1 6.767 1.578 6.585 6.585 0 0 1 1.563 6.808l9.532 9.532a6.58 6.58 0 0 1 6.81 1.565 6.588 6.588 0 0 1 0 9.319 6.59 6.59 0 0 1-10.757-7.168l-8.89-8.89v23.394a6.69 6.69 0 0 1 1.742 1.246 6.59 6.59 0 1 1-7.162-1.437V37.644a6.51 6.51 0 0 1-2.157-1.438A6.588 6.588 0 0 1 51.12 29l-9.75-9.751-25.746 25.745a5.54 5.54 0 0 0 0 7.834l37.549 37.547a5.539 5.539 0 0 0 7.832 0l37.374-37.372a5.541 5.541 0 0 0 0-7.836" fill="#C2C2C2"/></svg>