<svg width="107" height="138" viewBox="0 0 107 138" fill="none" xmlns="http://www.w3.org/2000/svg">
<g>
<path d="M37.802 125.21H32.33L31.322 128H29.594L34.13 115.526H36.02L40.538 128H38.81L37.802 125.21ZM37.334 123.878L35.066 117.542L32.798 123.878H37.334ZM43.7389 126.65H48.5809V128H41.8669V126.65L46.6549 119.468H41.9029V118.136H48.5449V119.468L43.7389 126.65ZM59.4543 118.136V128H57.8163V126.542C57.5043 127.046 57.0663 127.442 56.5023 127.73C55.9503 128.006 55.3383 128.144 54.6663 128.144C53.8983 128.144 53.2083 127.988 52.5963 127.676C51.9843 127.352 51.4983 126.872 51.1383 126.236C50.7903 125.6 50.6163 124.826 50.6163 123.914V118.136H52.2363V123.698C52.2363 124.67 52.4823 125.42 52.9743 125.948C53.4663 126.464 54.1383 126.722 54.9903 126.722C55.8663 126.722 56.5563 126.452 57.0603 125.912C57.5643 125.372 57.8163 124.586 57.8163 123.554V118.136H59.4543ZM63.858 119.738C64.146 119.174 64.554 118.736 65.082 118.424C65.622 118.112 66.276 117.956 67.044 117.956V119.648H66.612C64.776 119.648 63.858 120.644 63.858 122.636V128H62.22V118.136H63.858V119.738ZM77.9348 122.69C77.9348 123.002 77.9168 123.332 77.8808 123.68H69.9968C70.0568 124.652 70.3868 125.414 70.9868 125.966C71.5988 126.506 72.3368 126.776 73.2008 126.776C73.9088 126.776 74.4968 126.614 74.9648 126.29C75.4448 125.954 75.7808 125.51 75.9728 124.958H77.7368C77.4728 125.906 76.9448 126.68 76.1528 127.28C75.3608 127.868 74.3768 128.162 73.2008 128.162C72.2648 128.162 71.4248 127.952 70.6808 127.532C69.9488 127.112 69.3728 126.518 68.9528 125.75C68.5328 124.97 68.3228 124.07 68.3228 123.05C68.3228 122.03 68.5268 121.136 68.9348 120.368C69.3428 119.6 69.9128 119.012 70.6448 118.604C71.3888 118.184 72.2408 117.974 73.2008 117.974C74.1368 117.974 74.9648 118.178 75.6848 118.586C76.4048 118.994 76.9568 119.558 77.3408 120.278C77.7368 120.986 77.9348 121.79 77.9348 122.69ZM76.2428 122.348C76.2428 121.724 76.1048 121.19 75.8288 120.746C75.5528 120.29 75.1748 119.948 74.6948 119.72C74.2268 119.48 73.7048 119.36 73.1288 119.36C72.3008 119.36 71.5928 119.624 71.0048 120.152C70.4288 120.68 70.0988 121.412 70.0148 122.348H76.2428Z" fill="#A0A0A0"/>
<g>
<path d="M58.4615 0.00374317L26.9116 27.5546L0 76.2166H24.2693L58.4615 0.00374317ZM62.6572 6.44896L49.1941 44.6654L75.0058 77.3299L24.9249 85.9963H107L62.6572 6.44896Z" fill="#B7B7B7"/>
</g>
</g>
<defs>
<clipPath>
<rect width="107" height="138" fill="white"/>
</clipPath>
<clipPath id="clip1_13_17">
<rect width="107" height="86" fill="white"/>
</clipPath>
</defs>
</svg>
