<svg width="92" height="146" viewBox="0 0 92 146" fill="none" xmlns="http://www.w3.org/2000/svg"><path d="M19.477 0h4.132v4.097h3.81V0h4.133v12.398h-4.133V8.266h-3.774v4.132h-4.168V0Zm17.537 4.133h-3.648V0h11.447v4.133h-3.666v8.265h-4.133V4.133ZM46.627 0h4.33l2.66 4.366L56.277 0h4.33v12.398h-4.133V6.253l-2.893 4.456-2.893-4.456v6.145h-4.06V0Zm16.029 0h4.132v8.302h5.858v4.096h-9.99" fill="#000"/><path d="m19.336 84.633-5.93-66.556h65.19l-5.929 66.52L45.947 92" fill="#5E5E5E"/><path d="M46 86.34v-62.8h26.648l-5.085 56.78" fill="#878787"/><path d="M25.516 31.68H46v8.157H34.464l.755 8.355H46v8.14H27.744L25.516 31.68Zm2.587 28.75h8.194l.575 6.522L46 69.396v8.517L29.253 73.24" fill="#EBEBEB"/><path d="M66.413 31.68H45.965v8.157h19.694l.754-8.158Zm-1.491 16.512H45.965v8.158h10.062l-.952 10.602-9.11 2.444v8.48l16.71-4.635" fill="#fff"/><path d="M34.052 123.454V136h-1.638v-5.688h-6.39V136h-1.638v-12.546h1.638v5.508h6.39v-5.508h1.638Zm10.519 0v1.332h-3.42V136h-1.638v-11.214h-3.438v-1.332h8.496Zm14.742.09V136h-1.638v-9.288L53.535 136h-1.152l-4.158-9.306V136h-1.638v-12.456h1.764l4.608 10.296 4.608-10.296h1.746Zm4.416 11.124h4.392V136h-6.03v-12.546h1.638v11.214Z" fill="#A0A0A0"/></svg>