<svg width="136" height="125" viewBox="0 0 136 125" fill="none" xmlns="http://www.w3.org/2000/svg">
<g>
<path d="M15.4423 37.6797C15.1439 37.3615 14.7803 37.1087 14.3793 36.9308C13.9783 36.753 13.5494 36.6687 13.1111 36.6687C12.6729 36.6593 12.2439 36.753 11.843 36.9215C11.442 37.0993 11.0783 37.3521 10.7799 37.6704C10.4722 37.9793 10.2298 38.3444 10.0713 38.7469C9.91275 39.1589 9.82883 39.5895 9.82883 40.0201C9.8195 40.4601 9.90342 40.8907 10.0713 41.2933C10.2391 41.6958 10.4816 42.0609 10.7893 42.3698C11.0878 42.6882 11.4495 42.9402 11.851 43.1096C12.2526 43.2789 12.685 43.3617 13.1205 43.3528C13.555 43.3552 13.9855 43.2693 14.3861 43.1004C14.7867 42.9315 15.1492 42.683 15.4516 42.3698C15.7687 42.0703 16.0111 41.7052 16.179 41.3026C16.3468 40.9001 16.4307 40.4694 16.4307 40.0295C16.4307 39.5895 16.3468 39.1589 16.179 38.7563C16.0018 38.3444 15.7594 37.9793 15.4423 37.6797ZM54.4664 30.0783C54.4197 32.1752 54.5223 34.2815 54.7648 36.3691H54.6529C54.3918 35.8543 53.8136 34.8994 52.9278 33.5046L31.6674 0H25.2146V42.7724H30.1754V11.8516C30.2314 9.89503 30.1474 7.93849 29.9423 5.98195H30.1288C30.4831 6.91809 30.94 7.81679 31.4809 8.65932L53.3194 42.7724H59.4271V0H54.4664V30.0783ZM93.0615 38.0729H75.5309V23.2538H90.8701V18.7416H75.5309V4.53093H91.9891V0H70.449V42.7724H93.0335L93.0615 38.0729ZM96.8566 0V4.53093H109.072V42.7724H114.033V4.53093H126.388V0H96.8566ZM48.2374 53.4069C46.9984 53.9033 45.8793 54.6597 44.9551 55.6256C44.004 56.646 43.258 57.8443 42.7731 59.1642C42.2882 60.4842 42.0738 61.879 42.1297 63.2739C42.0365 65.8576 42.9317 68.3852 44.6474 70.3137C45.5053 71.2217 46.5497 71.9239 47.7059 72.3919C48.8622 72.86 50.1024 73.0659 51.3426 73.0098C53.2075 73.0753 55.0631 72.6821 56.7509 71.8583L56.7696 69.6771C55.2217 70.5852 53.4593 71.0345 51.6689 70.9877C50.7085 71.0252 49.748 70.8566 48.8622 70.4916C47.9763 70.1265 47.1744 69.5648 46.5217 68.8533C45.1567 67.2616 44.4554 65.2029 44.5635 63.1054C44.4516 60.8867 45.2069 58.7149 46.6616 57.0485C47.3516 56.2809 48.2001 55.6818 49.1419 55.2699C50.0873 54.8662 51.1082 54.6714 52.1352 54.6988C53.767 54.6707 55.3709 55.0733 56.7975 55.869V53.5193C55.3179 52.9203 53.7296 52.6397 52.1352 52.6955C50.8017 52.6768 49.4683 52.9108 48.2374 53.4069ZM71.484 60.1097C70.8608 59.4517 70.103 58.9369 69.2627 58.6008C68.4225 58.2646 67.5197 58.1151 66.6165 58.1625C65.6561 58.1157 64.7049 58.2749 63.8097 58.6213C62.9146 58.9676 62.1033 59.4919 61.4133 60.1565C60.7419 60.9054 60.229 61.7761 59.8934 62.7309C59.5577 63.6858 59.4178 64.6875 59.4831 65.6985C59.3898 67.6176 60.0519 69.4992 61.32 70.9315C61.9541 71.6149 62.7188 72.1579 63.5766 72.523C64.4345 72.8787 65.3577 73.0566 66.2808 73.0191C67.2226 73.0472 68.1644 72.8693 69.0409 72.5042C69.9175 72.1392 70.7007 71.5868 71.3441 70.8847C72.6519 69.4048 73.3283 67.4683 73.2277 65.4925C73.3396 63.5266 72.7149 61.6076 71.484 60.1097ZM69.7776 69.7239C69.3673 70.1994 68.8539 70.5741 68.2768 70.8191C67.6997 71.0642 67.0743 71.1731 66.4487 71.1375C65.8052 71.1656 65.1712 71.0439 64.5837 70.8005C63.9962 70.5477 63.4741 70.1733 63.0451 69.6865C62.1515 68.5759 61.7026 67.1705 61.7863 65.7453C61.7024 64.2756 62.1499 62.8245 63.0451 61.6637C63.4647 61.1769 63.9869 60.7931 64.5744 60.531C65.1618 60.2782 65.8052 60.1565 66.4393 60.1846C67.0734 60.1472 67.6982 60.2689 68.2763 60.5216C68.8544 60.7744 69.3673 61.1582 69.7776 61.645C70.625 62.8219 71.0372 64.2587 70.9432 65.7079C71.0364 67.1308 70.6261 68.5631 69.7776 69.7239ZM80.585 59.1923C79.8856 59.8195 79.3727 60.634 79.121 61.542V58.6025H76.7898V72.6821H79.121V65.5019C79.0464 64.2007 79.3821 62.8994 80.0721 61.7948C80.3239 61.3922 80.6596 61.0552 81.0698 60.8212C81.4801 60.5872 81.937 60.4467 82.4033 60.4374C83.0001 60.3906 83.5968 60.5497 84.1004 60.8867V58.5651C83.6714 58.4247 83.2239 58.3591 82.7763 58.3779C81.9743 58.3685 81.2004 58.6587 80.585 59.1923ZM97.7425 65.0058C97.8544 63.2177 97.3229 61.4578 96.2505 60.0348C95.719 59.4357 95.0663 58.9583 94.3296 58.6493C93.593 58.3404 92.8004 58.2 92.0078 58.2468C91.1312 58.2187 90.2547 58.3966 89.4435 58.7523C88.6415 59.1081 87.9235 59.6417 87.3454 60.3157C86.0793 61.7987 85.4226 63.7097 85.5084 65.661C85.3872 67.6082 85.9933 69.5367 87.2055 71.0532C87.793 71.6992 88.5203 72.2047 89.3222 72.5417C90.1242 72.8787 91.0007 73.0191 91.8679 72.9817C93.593 73.0659 95.2994 72.5979 96.7354 71.643V69.5273C95.5085 70.5281 93.9802 71.0825 92.3994 71.1C91.7933 71.1375 91.1779 71.0439 90.609 70.8192C90.0402 70.5945 89.5181 70.2669 89.0891 69.8269C88.256 68.8146 87.8332 67.5245 87.9049 66.2134H97.7611L97.7425 65.0058ZM87.8862 64.3504C88.0074 63.2364 88.4923 62.188 89.257 61.3735C89.5996 61.0039 90.0156 60.7104 90.4782 60.5121C90.9407 60.3138 91.4396 60.215 91.9425 60.2221C92.4274 60.194 92.9029 60.2782 93.3505 60.4655C93.7981 60.6527 94.1898 60.9335 94.5068 61.2986C95.1595 62.1692 95.4859 63.2364 95.4393 64.3224L87.8862 64.3504Z" fill="#D2D2D2"/>
</g>
<path d="M52.2068 115.108C51.8948 115.108 51.6308 115 51.4148 114.784C51.1988 114.568 51.0908 114.304 51.0908 113.992C51.0908 113.68 51.1988 113.416 51.4148 113.2C51.6308 112.984 51.8948 112.876 52.2068 112.876C52.5068 112.876 52.7588 112.984 52.9628 113.2C53.1788 113.416 53.2868 113.68 53.2868 113.992C53.2868 114.304 53.1788 114.568 52.9628 114.784C52.7588 115 52.5068 115.108 52.2068 115.108ZM65.3281 115H63.6901L57.1021 105.01V115H55.4641V102.436H57.1021L63.6901 112.408V102.436H65.3281V115ZM69.7584 103.786V107.98H74.3304V109.33H69.7584V113.65H74.8704V115H68.1204V102.436H74.8704V103.786H69.7584ZM85.0709 102.454V103.786H81.6509V115H80.0129V103.786H76.5749V102.454H85.0709Z" fill="#A0A0A0"/>
<defs>
<clipPath id="clip0_8570_56157">
<rect width="117" height="74" fill="white" transform="translate(9.5)"/>
</clipPath>
</defs>
</svg>
