<svg
  width="107"
  height="137"
  viewBox="0 0 107 137"
  fill="none"
  xmlns="http://www.w3.org/2000/svg"
>
  <path
    d="M8.952 121.888V127H7.314V114.31H11.346C12.798 114.31 13.884 114.652 14.604 115.336C15.324 116.008 15.684 116.932 15.684 118.108C15.684 119.296 15.312 120.226 14.568 120.898C13.824 121.558 12.75 121.888 11.346 121.888H8.952ZM11.202 120.52C12.198 120.52 12.912 120.31 13.344 119.89C13.788 119.47 14.01 118.876 14.01 118.108C14.01 117.316 13.788 116.716 13.344 116.308C12.912 115.888 12.198 115.678 11.202 115.678H8.952V120.52H11.202ZM22.0792 116.992C23.0272 116.992 23.8732 117.196 24.6172 117.604C25.3732 118.012 25.9612 118.6 26.3812 119.368C26.8132 120.136 27.0292 121.036 27.0292 122.068C27.0292 123.1 26.8132 124 26.3812 124.768C25.9612 125.524 25.3732 126.106 24.6172 126.514C23.8732 126.922 23.0272 127.126 22.0792 127.126C21.1312 127.126 20.2792 126.922 19.5232 126.514C18.7792 126.106 18.1912 125.524 17.7592 124.768C17.3272 124 17.1112 123.1 17.1112 122.068C17.1112 121.036 17.3272 120.136 17.7592 119.368C18.1912 118.6 18.7792 118.012 19.5232 117.604C20.2792 117.196 21.1312 116.992 22.0792 116.992ZM22.0792 118.432C21.4912 118.432 20.9452 118.564 20.4412 118.828C19.9492 119.092 19.5472 119.5 19.2352 120.052C18.9352 120.592 18.7852 121.264 18.7852 122.068C18.7852 122.86 18.9352 123.532 19.2352 124.084C19.5472 124.624 19.9492 125.026 20.4412 125.29C20.9452 125.554 21.4912 125.686 22.0792 125.686C22.6672 125.686 23.2072 125.554 23.6992 125.29C24.2032 125.026 24.6052 124.624 24.9052 124.084C25.2172 123.532 25.3732 122.86 25.3732 122.068C25.3732 121.264 25.2172 120.592 24.9052 120.052C24.6052 119.5 24.2032 119.092 23.6992 118.828C23.2072 118.564 22.6672 118.432 22.0792 118.432ZM32.2596 116.992C33.3756 116.992 34.2696 117.286 34.9416 117.874C35.6256 118.45 36.0396 119.23 36.1836 120.214H34.6176C34.5456 119.626 34.2996 119.146 33.8796 118.774C33.4716 118.39 32.9196 118.198 32.2236 118.198C31.6356 118.198 31.1736 118.342 30.8376 118.63C30.5136 118.906 30.3516 119.284 30.3516 119.764C30.3516 120.124 30.4596 120.418 30.6756 120.646C30.9036 120.862 31.1796 121.03 31.5036 121.15C31.8396 121.258 32.2956 121.378 32.8716 121.51C33.6036 121.678 34.1916 121.852 34.6356 122.032C35.0916 122.2 35.4756 122.476 35.7876 122.86C36.1116 123.244 36.2736 123.76 36.2736 124.408C36.2736 125.212 35.9676 125.866 35.3556 126.37C34.7556 126.874 33.9516 127.126 32.9436 127.126C31.7676 127.126 30.8076 126.844 30.0636 126.28C29.3196 125.716 28.8816 124.93 28.7496 123.922H30.3336C30.3936 124.522 30.6516 125.008 31.1076 125.38C31.5756 125.752 32.1876 125.938 32.9436 125.938C33.5076 125.938 33.9456 125.794 34.2576 125.506C34.5816 125.218 34.7436 124.84 34.7436 124.372C34.7436 123.988 34.6296 123.682 34.4016 123.454C34.1736 123.226 33.8916 123.052 33.5556 122.932C33.2196 122.812 32.7576 122.686 32.1696 122.554C31.4376 122.386 30.8496 122.218 30.4056 122.05C29.9736 121.882 29.6016 121.618 29.2896 121.258C28.9896 120.886 28.8396 120.388 28.8396 119.764C28.8396 118.936 29.1456 118.27 29.7576 117.766C30.3696 117.25 31.2036 116.992 32.2596 116.992ZM43.1784 125.56V127H41.9544C40.9464 127 40.1904 126.76 39.6864 126.28C39.1944 125.8 38.9484 124.996 38.9484 123.868V118.54H37.4724V117.118H38.9484V114.652H40.6044V117.118H43.1604V118.54H40.6044V123.904C40.6044 124.54 40.7184 124.978 40.9464 125.218C41.1864 125.446 41.5944 125.56 42.1704 125.56H43.1784ZM49.2273 116.992C50.1873 116.992 50.9973 117.232 51.6573 117.712C52.3293 118.192 52.7973 118.834 53.0613 119.638V117.118H54.6993V127.162C54.6993 128.074 54.5073 128.884 54.1233 129.592C53.7393 130.3 53.1993 130.852 52.5033 131.248C51.8073 131.644 50.9973 131.842 50.0733 131.842C48.7413 131.842 47.6553 131.518 46.8153 130.87C45.9753 130.234 45.4413 129.37 45.2133 128.278H46.8333C47.0253 128.938 47.3853 129.454 47.9133 129.826C48.4533 130.21 49.1433 130.402 49.9833 130.402C50.8713 130.402 51.6033 130.114 52.1793 129.538C52.7673 128.974 53.0613 128.182 53.0613 127.162V124.48C52.7973 125.284 52.3293 125.926 51.6573 126.406C50.9973 126.886 50.1873 127.126 49.2273 127.126C48.3513 127.126 47.5713 126.922 46.8873 126.514C46.2033 126.106 45.6633 125.524 45.2673 124.768C44.8833 124 44.6913 123.1 44.6913 122.068C44.6913 121.036 44.8833 120.136 45.2673 119.368C45.6633 118.6 46.2033 118.012 46.8873 117.604C47.5713 117.196 48.3513 116.992 49.2273 116.992ZM49.6953 118.45C48.6873 118.45 47.8773 118.774 47.2653 119.422C46.6653 120.058 46.3653 120.94 46.3653 122.068C46.3653 123.196 46.6653 124.084 47.2653 124.732C47.8773 125.368 48.6873 125.686 49.6953 125.686C50.3433 125.686 50.9193 125.536 51.4233 125.236C51.9393 124.936 52.3413 124.516 52.6293 123.976C52.9173 123.424 53.0613 122.788 53.0613 122.068C53.0613 121.348 52.9173 120.712 52.6293 120.16C52.3413 119.608 51.9393 119.188 51.4233 118.9C50.9193 118.6 50.3433 118.45 49.6953 118.45ZM58.9442 119.116C59.2682 118.432 59.7422 117.904 60.3662 117.532C60.9902 117.148 61.7342 116.956 62.5982 116.956V118.738H62.0942C61.1702 118.738 60.4142 118.978 59.8262 119.458C59.2382 119.926 58.9442 120.706 58.9442 121.798V127H57.3062V117.118H58.9442V119.116ZM73.3044 121.51C73.3044 121.858 73.2804 122.158 73.2324 122.41H65.3304C65.3664 123.538 65.6844 124.384 66.2844 124.948C66.8964 125.512 67.6404 125.794 68.5164 125.794C69.3084 125.794 69.9684 125.596 70.4964 125.2C71.0364 124.792 71.3664 124.252 71.4864 123.58H73.2324C73.1124 124.264 72.8424 124.876 72.4224 125.416C72.0144 125.956 71.4804 126.376 70.8204 126.676C70.1604 126.976 69.4164 127.126 68.5884 127.126C67.6404 127.126 66.8004 126.922 66.0684 126.514C65.3364 126.106 64.7604 125.524 64.3404 124.768C63.9324 124 63.7284 123.1 63.7284 122.068C63.7284 121.036 63.9324 120.136 64.3404 119.368C64.7604 118.6 65.3364 118.012 66.0684 117.604C66.8004 117.196 67.6404 116.992 68.5884 116.992C69.5484 116.992 70.3824 117.196 71.0904 117.604C71.8104 118.012 72.3564 118.558 72.7284 119.242C73.1124 119.926 73.3044 120.682 73.3044 121.51ZM71.6484 121.618C71.6844 120.886 71.5644 120.274 71.2884 119.782C71.0124 119.29 70.6344 118.924 70.1544 118.684C69.6744 118.444 69.1524 118.324 68.5884 118.324C67.6884 118.324 66.9324 118.606 66.3204 119.17C65.7084 119.722 65.3784 120.538 65.3304 121.618H71.6484ZM83.4748 123.706C83.4748 124.306 83.3308 124.864 83.0428 125.38C82.7548 125.896 82.3168 126.316 81.7288 126.64C81.1408 126.964 80.4148 127.126 79.5508 127.126C78.7108 127.126 77.9608 126.976 77.3008 126.676C76.6528 126.364 76.1308 125.944 75.7348 125.416C75.3508 124.876 75.1288 124.264 75.0688 123.58H76.8148C76.8508 123.94 76.9708 124.294 77.1748 124.642C77.3908 124.978 77.6908 125.26 78.0748 125.488C78.4708 125.704 78.9448 125.812 79.4968 125.812C80.2168 125.812 80.7688 125.62 81.1528 125.236C81.5368 124.852 81.7288 124.36 81.7288 123.76C81.7288 123.244 81.5908 122.824 81.3148 122.5C81.0508 122.176 80.7208 121.924 80.3248 121.744C79.9288 121.552 79.3888 121.348 78.7048 121.132C77.9008 120.868 77.2528 120.622 76.7608 120.394C76.2808 120.154 75.8668 119.8 75.5188 119.332C75.1828 118.864 75.0148 118.246 75.0148 117.478C75.0148 116.818 75.1708 116.236 75.4828 115.732C75.8068 115.228 76.2628 114.838 76.8508 114.562C77.4508 114.286 78.1528 114.148 78.9568 114.148C80.2048 114.148 81.1948 114.454 81.9268 115.066C82.6588 115.666 83.0848 116.434 83.2048 117.37H81.4408C81.3448 116.866 81.0868 116.422 80.6668 116.038C80.2468 115.654 79.6768 115.462 78.9568 115.462C78.2968 115.462 77.7688 115.636 77.3728 115.984C76.9768 116.32 76.7788 116.8 76.7788 117.424C76.7788 117.916 76.9048 118.318 77.1568 118.63C77.4208 118.93 77.7448 119.17 78.1288 119.35C78.5128 119.518 79.0408 119.71 79.7128 119.926C80.5288 120.19 81.1828 120.442 81.6748 120.682C82.1788 120.922 82.6048 121.288 82.9528 121.78C83.3008 122.26 83.4748 122.902 83.4748 123.706ZM95.8833 129.466L93.3273 126.892C92.7273 127.06 92.1153 127.144 91.4913 127.144C90.3153 127.144 89.2473 126.868 88.2873 126.316C87.3393 125.764 86.5953 124.996 86.0553 124.012C85.5153 123.016 85.2453 121.894 85.2453 120.646C85.2453 119.398 85.5153 118.282 86.0553 117.298C86.5953 116.302 87.3393 115.528 88.2873 114.976C89.2473 114.424 90.3153 114.148 91.4913 114.148C92.6673 114.148 93.7233 114.424 94.6593 114.976C95.6073 115.528 96.3513 116.302 96.8913 117.298C97.4313 118.282 97.7013 119.398 97.7013 120.646C97.7013 121.906 97.4313 123.034 96.8913 124.03C96.3513 125.014 95.6073 125.776 94.6593 126.316L97.9533 129.466H95.8833ZM86.9373 120.646C86.9373 121.642 87.1293 122.518 87.5133 123.274C87.9093 124.03 88.4493 124.612 89.1333 125.02C89.8293 125.416 90.6153 125.614 91.4913 125.614C92.3553 125.614 93.1293 125.41 93.8133 125.002C94.5093 124.594 95.0493 124.018 95.4333 123.274C95.8293 122.518 96.0273 121.642 96.0273 120.646C96.0273 119.638 95.8293 118.762 95.4333 118.018C95.0493 117.262 94.5093 116.686 93.8133 116.29C93.1293 115.882 92.3553 115.678 91.4913 115.678C90.6153 115.678 89.8293 115.882 89.1333 116.29C88.4493 116.686 87.9093 117.262 87.5133 118.018C87.1293 118.762 86.9373 119.638 86.9373 120.646ZM101.554 125.722H106.054V127H99.9156V114.31H101.554V125.722Z"
    fill="#A0A0A0"
  ></path>
  <path
    d="M65.3328 64.3278C65.792 60.5253 65.6543 59.9676 68.5036 60.5836L69.227 60.6467C71.4179 60.7458 74.2838 60.2965 75.9675 59.5189C79.5921 57.8471 81.7413 55.0559 78.1673 55.7893C70.015 57.4611 69.4546 54.717 69.4546 54.717C78.063 42.0203 81.6615 25.903 78.5554 21.9578C70.0833 11.1968 55.4183 16.2854 55.1729 16.4175L55.0948 16.4319C53.484 16.0996 51.6813 15.9011 49.6562 15.8686C45.967 15.8083 43.1677 16.83 41.0443 18.431C41.0443 18.431 14.8827 7.71689 16.0998 31.9052C16.3586 37.0507 23.5195 70.8406 32.0601 60.6345C35.1817 56.9025 38.1984 53.7469 38.1984 53.7469C39.6964 54.7362 41.4898 55.2408 43.3708 55.0596L43.5162 54.9363C43.4706 55.3997 43.4907 55.8529 43.5744 56.3895C41.3746 58.8332 42.021 59.2622 37.6222 60.1623C33.1719 61.074 35.7864 62.6973 37.493 63.1215C39.5625 63.636 44.3499 64.3647 47.5856 59.8631L47.4568 60.3767C48.3199 61.0631 48.2615 65.31 48.3839 68.3444C48.5064 71.3789 48.7108 74.2106 49.333 75.8801C49.9553 77.5494 50.6895 81.8496 56.4705 80.618C61.3021 79.5888 64.9961 78.1075 65.3328 64.3277"
    fill="#6A6A6A"
  ></path>
  <path
    d="M65.3328 64.3278C65.792 60.5253 65.6543 59.9676 68.5036 60.5836L69.227 60.6467C71.4179 60.7458 74.2838 60.2965 75.9675 59.5189C79.5921 57.8471 81.7413 55.0559 78.1673 55.7893C70.015 57.4611 69.4546 54.717 69.4546 54.717C78.063 42.0203 81.6615 25.903 78.5554 21.9578C70.0833 11.1968 55.4183 16.2854 55.1729 16.4175L55.0948 16.4319C53.484 16.0996 51.6813 15.9011 49.6562 15.8686C45.967 15.8083 43.1677 16.83 41.0443 18.431C41.0443 18.431 14.8827 7.71689 16.0998 31.9052C16.3586 37.0507 23.5195 70.8406 32.0601 60.6345C35.1817 56.9025 38.1984 53.7469 38.1984 53.7469C39.6964 54.7362 41.4898 55.2408 43.3708 55.0596L43.5162 54.9363C43.4706 55.3997 43.4907 55.8529 43.5744 56.3895C41.3746 58.8332 42.021 59.2622 37.6222 60.1623C33.1719 61.074 35.7864 62.6973 37.493 63.1215C39.5625 63.636 44.3499 64.3647 47.5856 59.8631L47.4568 60.3767C48.3199 61.0631 48.2615 65.31 48.3839 68.3444C48.5064 71.3789 48.7108 74.2106 49.333 75.8802C49.9553 77.5494 50.6895 81.8496 56.4705 80.618C61.3021 79.5888 64.9961 78.1075 65.3328 64.3277"
    stroke="#6A6A6A"
    stroke-width="7.9246"
  ></path>
  <path
    d="M78.1689 55.7887C70.0158 57.4605 69.4553 54.7165 69.4553 54.7165C78.0638 42.0189 81.6623 25.9013 78.5568 21.9566C70.0847 11.1962 55.4191 16.2852 55.1743 16.4173L55.0956 16.4313C53.4848 16.0989 51.6821 15.9009 49.656 15.868C45.9669 15.8079 43.1685 16.8294 41.045 18.4301C41.045 18.4301 14.883 7.71647 16.0998 31.9046C16.3586 37.0505 23.5193 70.8404 32.0603 60.6342C35.182 56.9022 38.1982 53.7467 38.1982 53.7467C39.6963 54.736 41.4898 55.2406 43.37 55.0593L43.516 54.9361C43.4706 55.3994 43.4914 55.8527 43.5745 56.3892C41.3742 58.8329 42.0208 59.262 37.6223 60.162C33.1717 61.0738 35.7862 62.6971 37.4933 63.1213C39.5628 63.6357 44.3506 64.3645 47.5856 59.8628L47.4566 60.3764C48.3187 61.0628 48.9241 64.8412 48.8226 68.2663C48.7211 71.6916 48.6534 74.0431 49.3327 75.8799C50.012 77.7167 50.689 81.8494 56.4712 80.6178C61.3027 79.5886 63.8064 76.9214 64.1547 72.4724C64.4019 69.3094 64.9613 69.777 64.9966 66.9492L65.4452 65.6104C65.9626 61.3229 65.5274 59.9396 68.5041 60.583L69.2275 60.6462C71.4183 60.7452 74.2857 60.2959 75.9687 59.5183C79.5925 57.8465 81.7417 55.0553 78.1686 55.7887H78.1689Z"
    fill="#7C7C7C"
  ></path>
  <path
    d="M47.9381 58.2458C47.7136 66.2239 47.9945 74.2575 48.7798 76.2099C49.5656 78.1624 51.2472 81.96 57.0298 80.7285C61.8609 79.699 63.6187 77.7066 64.3814 73.3088C64.9432 70.0732 66.0263 61.0872 66.1652 59.2461"
    stroke="white"
    stroke-width="2.64153"
    stroke-linecap="round"
    stroke-linejoin="round"
  ></path>
  <path
    d="M41.0039 18.2515C41.0039 18.2515 14.8241 7.61502 16.0412 31.8032C16.3 36.949 23.4612 70.74 32.002 60.5334C35.1231 56.8009 37.9458 53.8735 37.9458 53.8735"
    stroke="white"
    stroke-width="2.64153"
    stroke-linecap="round"
    stroke-linejoin="round"
  ></path>
  <path
    d="M55.1436 16.31C54.2374 16.5925 69.7065 10.6887 78.4977 21.8553C81.603 25.8001 78.0045 41.9178 69.3962 54.6156"
    stroke="white"
    stroke-width="2.64153"
    stroke-linecap="round"
    stroke-linejoin="round"
  ></path>
  <path
    d="M69.4006 54.6158C69.4006 54.6158 69.9615 57.3606 78.1148 55.6877C81.6871 54.9543 79.5373 57.7459 75.9142 59.4185C72.9408 60.7902 66.2745 61.1418 66.1656 59.2462C65.8853 54.3554 69.6742 55.8413 69.4007 54.6158C69.1536 53.5121 67.4591 52.4289 66.3383 49.7277C65.3598 47.3701 52.9185 29.2898 69.7886 31.9751C70.4066 31.8479 65.3887 16.0239 49.6006 15.7666C33.8161 15.5092 34.334 35.0626 34.334 35.0626"
    stroke="white"
    stroke-width="2.64153"
    stroke-linecap="round"
    stroke-linejoin="bevel"
  ></path>
  <path
    d="M43.5145 56.288C41.3139 58.7316 41.9611 59.1606 37.5623 60.061C33.1116 60.9729 35.7265 62.5959 37.4331 63.0199C39.5026 63.5347 44.2904 64.2635 47.5254 59.7607C48.5105 58.3897 47.5195 56.2022 46.1663 55.6445C45.5125 55.3753 44.6382 55.0379 43.5145 56.288V56.288Z"
    stroke="white"
    stroke-width="2.64153"
    stroke-linecap="round"
    stroke-linejoin="round"
  ></path>
  <path
    d="M43.3711 56.2455C43.1493 54.8088 43.846 53.0991 44.5925 51.099C45.7145 48.0979 48.3031 45.0964 46.2323 35.5768C44.6888 28.4829 34.3361 34.1005 34.3296 35.0624C34.3233 36.0239 34.7978 39.9379 34.1566 44.4956C33.32 50.443 37.9636 55.473 43.3109 54.9584"
    stroke="white"
    stroke-width="2.64153"
    stroke-linecap="round"
    stroke-linejoin="round"
  ></path>
  <path
    d="M40.9047 34.9183C40.858 35.2468 41.5098 36.1235 42.3596 36.2406C43.2079 36.3582 43.934 35.6732 43.9801 35.345C44.0261 35.0164 43.3752 34.6546 42.5251 34.5369C41.6762 34.4192 40.9498 34.5906 40.9049 34.9183H40.9047Z"
    fill="white"
    stroke="white"
    stroke-width="0.880504"
  ></path>
  <path
    d="M66.7467 34.2482C66.7927 34.5767 66.1418 35.4534 65.2918 35.5705C64.4428 35.6881 63.7167 35.003 63.6702 34.6748C63.6253 34.3463 64.2764 33.9844 65.1255 33.8668C65.9747 33.7492 66.7006 33.9205 66.7467 34.2484V34.2482Z"
    fill="white"
    stroke="white"
    stroke-width="0.440252"
  ></path>
  <path
    d="M69.7846 31.9749C69.9245 34.5518 69.2262 36.307 69.1382 39.0503C69.0079 43.0377 71.0506 47.6016 67.9727 52.1711"
    stroke="white"
    stroke-width="2.64153"
    stroke-linecap="round"
    stroke-linejoin="round"
  ></path>
</svg>
