<svg width="75" height="143" viewBox="0 0 75 143" fill="none" xmlns="http://www.w3.org/2000/svg"><path d="M11.774 124.126c0 1.044-.36 1.914-1.08 2.61-.708.684-1.794 1.026-3.258 1.026H5.024V133H3.386v-12.546h4.05c1.416 0 2.49.342 3.222 1.026.744.684 1.116 1.566 1.116 2.646Zm-4.338 2.286c.912 0 1.584-.198 2.016-.594.432-.396.648-.96.648-1.692 0-1.548-.888-2.322-2.664-2.322H5.024v4.608h2.412Zm14.87-3.276-5.94 14.508h-1.692l1.944-4.752-3.978-9.756h1.818l3.096 7.992 3.06-7.992h1.692Zm9.368-2.682v1.332h-3.42V133h-1.638v-11.214h-3.438v-1.332h8.496Zm6.319 12.708c-.924 0-1.764-.21-2.52-.63a4.58 4.58 0 0 1-1.764-1.782c-.42-.78-.63-1.68-.63-2.7 0-1.008.216-1.896.648-2.664a4.51 4.51 0 0 1 1.8-1.782c.756-.42 1.602-.63 2.538-.63.936 0 1.782.21 2.538.63.756.408 1.35.996 1.782 1.764.444.768.666 1.662.666 2.682s-.228 1.92-.684 2.7a4.634 4.634 0 0 1-1.818 1.782c-.768.42-1.62.63-2.556.63Zm0-1.44c.588 0 1.14-.138 1.656-.414.516-.276.93-.69 1.242-1.242.324-.552.486-1.224.486-2.016s-.156-1.464-.468-2.016c-.312-.552-.72-.96-1.224-1.224a3.356 3.356 0 0 0-1.638-.414c-.6 0-1.152.138-1.656.414-.492.264-.888.672-1.188 1.224-.3.552-.45 1.224-.45 2.016 0 .804.144 1.482.432 2.034.3.552.696.966 1.188 1.242a3.372 3.372 0 0 0 1.62.396Zm8.85-6.984a3.16 3.16 0 0 1 1.223-1.314c.54-.312 1.194-.468 1.962-.468v1.692h-.432c-1.836 0-2.754.996-2.754 2.988V133h-1.638v-9.864h1.638v1.602Zm4.464 3.312c0-1.02.204-1.908.612-2.664a4.407 4.407 0 0 1 1.692-1.782c.732-.42 1.566-.63 2.502-.63 1.212 0 2.208.294 2.988.882.792.588 1.314 1.404 1.566 2.448h-1.764a2.518 2.518 0 0 0-.99-1.422c-.48-.348-1.08-.522-1.8-.522-.936 0-1.692.324-2.268.972-.576.636-.864 1.542-.864 2.718 0 1.188.288 2.106.864 2.754.576.648 1.332.972 2.268.972.72 0 1.32-.168 1.8-.504.48-.336.81-.816.99-1.44h1.764c-.264 1.008-.792 1.818-1.584 2.43-.792.6-1.782.9-2.97.9-.936 0-1.77-.21-2.502-.63a4.407 4.407 0 0 1-1.692-1.782c-.408-.768-.612-1.668-.612-2.7Zm16.442-5.094c.744 0 1.416.162 2.016.486.6.312 1.068.786 1.404 1.422.348.636.522 1.41.522 2.322V133h-1.62v-5.58c0-.984-.246-1.734-.738-2.25-.492-.528-1.164-.792-2.016-.792-.864 0-1.554.27-2.07.81-.504.54-.756 1.326-.756 2.358V133h-1.638v-13.32h1.638v4.86a3.24 3.24 0 0 1 1.332-1.17c.576-.276 1.218-.414 1.926-.414Z" fill="#A0A0A0"/><path d="M63.95 26.45c14.733 14.764 14.733 38.446 0 53.312-14.428 14.763-38.166 14.763-52.9 0-14.733-14.763-14.733-38.548 0-53.311L37.45 0v13.225l-2.456 2.46-17.496 17.532c-11.05 10.867-11.05 28.706 0 39.778 10.845 11.073 28.649 11.073 39.7 0 11.05-10.867 11.05-28.706 0-39.778l6.752-6.766Zm-13.2-1.64a4.916 4.916 0 0 1-4.911-4.92 4.916 4.916 0 0 1 4.911-4.922 4.916 4.916 0 0 1 4.912 4.921 4.916 4.916 0 0 1-4.912 4.921Z" fill="#A3A3A3"/></svg>