<svg
  width="144"
  height="132"
  viewBox="0 0 144 132"
  fill="none"
  xmlns="http://www.w3.org/2000/svg"
>
  <path
    d="M50.53 122.126C49.702 122.126 48.958 121.982 48.298 121.694C47.65 121.394 47.14 120.986 46.768 120.47C46.396 119.942 46.204 119.336 46.192 118.652H47.938C47.998 119.24 48.238 119.738 48.658 120.146C49.09 120.542 49.714 120.74 50.53 120.74C51.31 120.74 51.922 120.548 52.366 120.164C52.822 119.768 53.05 119.264 53.05 118.652C53.05 118.172 52.918 117.782 52.654 117.482C52.39 117.182 52.06 116.954 51.664 116.798C51.268 116.642 50.734 116.474 50.062 116.294C49.234 116.078 48.568 115.862 48.064 115.646C47.572 115.43 47.146 115.094 46.786 114.638C46.438 114.17 46.264 113.546 46.264 112.766C46.264 112.082 46.438 111.476 46.786 110.948C47.134 110.42 47.62 110.012 48.244 109.724C48.88 109.436 49.606 109.292 50.422 109.292C51.598 109.292 52.558 109.586 53.302 110.174C54.058 110.762 54.484 111.542 54.58 112.514H52.78C52.72 112.034 52.468 111.614 52.024 111.254C51.58 110.882 50.992 110.696 50.26 110.696C49.576 110.696 49.018 110.876 48.586 111.236C48.154 111.584 47.938 112.076 47.938 112.712C47.938 113.168 48.064 113.54 48.316 113.828C48.58 114.116 48.898 114.338 49.27 114.494C49.654 114.638 50.188 114.806 50.872 114.998C51.7 115.226 52.366 115.454 52.87 115.682C53.374 115.898 53.806 116.24 54.166 116.708C54.526 117.164 54.706 117.788 54.706 118.58C54.706 119.192 54.544 119.768 54.22 120.308C53.896 120.848 53.416 121.286 52.78 121.622C52.144 121.958 51.394 122.126 50.53 122.126ZM67.1785 124.376L64.6765 121.874C64.0645 122.042 63.4405 122.126 62.8045 122.126C61.6405 122.126 60.5785 121.856 59.6185 121.316C58.6585 120.764 57.8965 120.002 57.3325 119.03C56.7805 118.046 56.5045 116.942 56.5045 115.718C56.5045 114.494 56.7805 113.396 57.3325 112.424C57.8965 111.44 58.6585 110.678 59.6185 110.138C60.5785 109.586 61.6405 109.31 62.8045 109.31C63.9805 109.31 65.0485 109.586 66.0085 110.138C66.9685 110.678 67.7245 111.434 68.2765 112.406C68.8285 113.378 69.1045 114.482 69.1045 115.718C69.1045 116.918 68.8405 117.998 68.3125 118.958C67.7845 119.918 67.0585 120.674 66.1345 121.226L69.3025 124.376H67.1785ZM58.1785 115.718C58.1785 116.714 58.3765 117.59 58.7725 118.346C59.1805 119.102 59.7325 119.684 60.4285 120.092C61.1365 120.5 61.9285 120.704 62.8045 120.704C63.6805 120.704 64.4665 120.5 65.1625 120.092C65.8705 119.684 66.4225 119.102 66.8185 118.346C67.2265 117.59 67.4305 116.714 67.4305 115.718C67.4305 114.71 67.2265 113.834 66.8185 113.09C66.4225 112.334 65.8765 111.752 65.1805 111.344C64.4845 110.936 63.6925 110.732 62.8045 110.732C61.9165 110.732 61.1245 110.936 60.4285 111.344C59.7325 111.752 59.1805 112.334 58.7725 113.09C58.3765 113.834 58.1785 114.71 58.1785 115.718ZM72.94 120.668H77.332V122H71.302V109.454H72.94V120.668ZM79.9175 110.534C79.6055 110.534 79.3415 110.426 79.1255 110.21C78.9095 109.994 78.8015 109.73 78.8015 109.418C78.8015 109.106 78.9095 108.842 79.1255 108.626C79.3415 108.41 79.6055 108.302 79.9175 108.302C80.2175 108.302 80.4695 108.41 80.6735 108.626C80.8895 108.842 80.9975 109.106 80.9975 109.418C80.9975 109.73 80.8895 109.994 80.6735 110.21C80.4695 110.426 80.2175 110.534 79.9175 110.534ZM80.7095 112.136V122H79.0715V112.136H80.7095ZM85.4992 113.486V119.3C85.4992 119.78 85.6012 120.122 85.8052 120.326C86.0092 120.518 86.3632 120.614 86.8672 120.614H88.0732V122H86.5972C85.6852 122 85.0012 121.79 84.5452 121.37C84.0892 120.95 83.8612 120.26 83.8612 119.3V113.486H82.5832V112.136H83.8612V109.652H85.4992V112.136H88.0732V113.486H85.4992ZM99.0579 116.69C99.0579 117.002 99.0399 117.332 99.0039 117.68H91.1199C91.1799 118.652 91.5099 119.414 92.1099 119.966C92.7219 120.506 93.4599 120.776 94.3239 120.776C95.0319 120.776 95.6199 120.614 96.0879 120.29C96.5679 119.954 96.9039 119.51 97.0959 118.958H98.8599C98.5959 119.906 98.0679 120.68 97.2759 121.28C96.4839 121.868 95.4999 122.162 94.3239 122.162C93.3879 122.162 92.5479 121.952 91.8039 121.532C91.0719 121.112 90.4959 120.518 90.0759 119.75C89.6559 118.97 89.4459 118.07 89.4459 117.05C89.4459 116.03 89.6499 115.136 90.0579 114.368C90.4659 113.6 91.0359 113.012 91.7679 112.604C92.5119 112.184 93.3639 111.974 94.3239 111.974C95.2599 111.974 96.0879 112.178 96.8079 112.586C97.5279 112.994 98.0799 113.558 98.4639 114.278C98.8599 114.986 99.0579 115.79 99.0579 116.69ZM97.3659 116.348C97.3659 115.724 97.2279 115.19 96.9519 114.746C96.6759 114.29 96.2979 113.948 95.8179 113.72C95.3499 113.48 94.8279 113.36 94.2519 113.36C93.4239 113.36 92.7159 113.624 92.1279 114.152C91.5519 114.68 91.2219 115.412 91.1379 116.348H97.3659Z"
    fill="#A0A0A0"
  ></path>
  <path
    d="M54.7095 31.451C52.7911 31.451 51.2313 32.0177 50.0355 33.1507C48.8396 34.2847 48.233 35.7711 48.233 37.5923C48.233 38.5362 48.3836 39.3967 48.6805 40.1853C48.9773 40.9755 49.4393 41.7075 50.0603 42.3689C50.6814 43.0309 51.9245 43.9302 53.7772 45.0736C56.0505 46.4587 57.5383 47.5828 58.2523 48.4606C58.9668 49.3376 59.3214 50.2567 59.3214 51.2149C59.3214 52.4978 58.8982 53.5219 58.0286 54.2917C57.1574 55.0619 55.9924 55.4456 54.5479 55.4456C53.0244 55.4456 51.6972 54.9095 50.5576 53.8451C49.4179 52.7791 48.8426 51.3692 48.8297 49.602H48.1211V56.0163H48.8297C49.046 55.4089 49.3453 55.0982 49.7371 55.0982C49.9256 55.0982 50.3671 55.2279 51.0548 55.4704C52.728 56.0646 54.1019 56.3513 55.1819 56.3513C57.043 56.3513 58.6317 55.7007 59.9553 54.3786C61.277 53.0571 61.9443 51.463 61.9443 49.602C61.9443 48.159 61.5037 46.8751 60.639 45.7559C59.7744 44.6355 58.0927 43.3321 55.5797 41.8354C53.4172 40.5387 52.0135 39.4826 51.3656 38.6593C50.7167 37.8372 50.3835 36.9278 50.3835 35.9298C50.3835 34.8504 50.7808 33.9834 51.5645 33.3368C52.3481 32.6897 53.3749 32.3691 54.6598 32.3691C56.1057 32.3691 57.311 32.7974 58.2647 33.6594C59.2174 34.5229 59.7684 35.7195 59.9305 37.2573H60.639V31.6991H59.9802C59.8997 31.9825 59.8251 32.1636 59.7565 32.245C59.6898 32.3259 59.5615 32.3691 59.3711 32.3691C59.1419 32.3691 58.7331 32.2728 58.1529 32.0837C56.9098 31.6659 55.7636 31.451 54.7095 31.451ZM77.8683 31.451C75.5308 31.451 73.4086 32.0009 71.4913 33.1011C69.5709 34.1993 68.0509 35.7244 66.9291 37.6668C65.8078 39.609 65.2509 41.6718 65.2509 43.8701C65.2509 46.8235 66.2195 49.4547 68.1722 51.7608C70.1258 54.0655 72.4668 55.5016 75.1832 56.0535C75.8043 56.3765 76.6929 57.2102 77.8559 58.5596C79.1666 60.0825 80.2755 61.1809 81.1874 61.835C82.0983 62.4894 83.0819 62.9691 84.1211 63.2866C85.1613 63.6028 86.2861 63.7581 87.5023 63.7581C88.9751 63.7581 90.2938 63.5026 91.4553 62.9764L91.1943 62.3313C90.52 62.574 89.801 62.6911 89.0437 62.6911C88.016 62.6911 86.9772 62.3528 85.936 61.6737C84.8963 60.9929 83.596 59.6941 82.0451 57.778C81.3162 56.8599 80.813 56.2807 80.5286 56.0535C83.5005 55.4742 85.9445 54.0367 87.8504 51.736C89.7558 49.4362 90.7095 46.8116 90.7095 43.8701C90.7095 40.3774 89.4644 37.4421 86.9926 35.0489C84.5189 32.6555 81.4768 31.451 77.8683 31.451ZM92.3255 31.451L92.3628 32.2078C93.9191 32.2078 94.7908 32.6654 94.9857 33.5849C95.0583 33.914 95.0916 34.5215 95.0976 35.3963L95.0852 52.133C95.0723 53.383 94.8937 54.1811 94.5507 54.5275C94.2071 54.8714 93.6263 55.0868 92.7855 55.1726L92.7482 55.9294H108.262L108.66 52.133H107.951C107.749 53.1672 107.285 53.9081 106.547 54.329C105.806 54.7529 104.497 54.9617 102.606 54.9617H101.139C99.4375 54.9617 98.453 54.3478 98.1929 53.1131C98.1392 52.8688 98.1208 52.607 98.1184 52.3191L98.1805 35.3963C98.1801 34.1483 98.3381 33.312 98.6653 32.9026C98.996 32.4946 99.5922 32.2664 100.455 32.2078L100.418 31.451H92.3256H92.3255ZM78.1169 32.3691C80.7533 32.3691 82.9058 33.4054 84.5686 35.4956C86.2309 37.5865 87.0548 40.4523 87.0548 44.081C87.0548 47.5196 86.2189 50.2729 84.5437 52.3439C82.8686 54.4142 80.6389 55.4456 77.8683 55.4456C75.2066 55.4456 73.0481 54.3821 71.3918 52.2446C69.737 50.1072 68.9181 47.3322 68.9181 43.9197C68.9181 40.4131 69.747 37.6061 71.4167 35.508C73.0854 33.4121 75.32 32.3691 78.1169 32.3691ZM113.794 35.967C113.415 35.967 113.127 36.0946 112.911 36.3516C112.69 36.6077 112.623 36.9179 112.7 37.2946C112.774 37.66 112.981 37.9802 113.309 38.2499C113.635 38.5193 113.987 38.6593 114.366 38.6593C114.732 38.6593 115.01 38.5193 115.211 38.2499C115.411 37.9802 115.472 37.66 115.397 37.2946C115.32 36.9179 115.121 36.6077 114.813 36.3516C114.502 36.0946 114.16 35.967 113.794 35.967ZM124.024 38.5352C123.381 41.0038 121.988 42.3396 119.848 42.555L119.872 43.2622H122.371L122.321 51.6243C122.325 53.0539 122.369 54.0058 122.471 54.4902C122.717 55.6501 123.475 56.2396 124.745 56.2396C126.583 56.2396 128.51 55.1226 130.526 52.8898L129.917 52.3687C128.461 53.8391 127.174 54.5771 126.051 54.5771C125.36 54.5771 124.932 54.1807 124.77 53.3985C124.726 53.2085 124.708 52.9865 124.708 52.7285L124.733 43.2622H128.549L128.512 42.1332H124.745V38.5352H124.024H124.024ZM138.78 41.6865C136.645 41.6865 134.909 42.7207 133.559 44.7758C132.216 46.8343 131.8 49.115 132.328 51.6243C132.639 53.0941 133.258 54.2332 134.205 55.0361C135.151 55.8387 136.351 56.2396 137.785 56.2396C139.121 56.2396 140.981 55.9021 141.763 55.2222C142.548 54.5428 143.271 53.4421 143.939 51.9345L143.404 51.3762C142.339 53.332 140.19 54.3165 138.569 54.3165C136.34 54.3165 134.975 53.0962 134.466 50.669C134.4 50.3592 134.351 50.0263 134.317 49.6764C136.969 49.2575 138.978 48.5156 140.334 47.4432C141.689 46.3703 143.049 45.2329 142.795 44.0314C142.644 43.3174 142.273 42.756 141.701 42.3317C141.122 41.9075 139.62 41.6865 138.78 41.6865ZM115.447 41.7734L110.848 42.8279V43.6468L112.439 43.4483C113.209 43.4483 113.663 43.7966 113.806 44.4904C113.854 44.7226 113.885 45.0487 113.893 45.4582L113.843 52.9642C113.831 54.0029 113.715 54.6067 113.483 54.788C113.249 54.9696 112.631 55.061 111.631 55.061L111.606 55.7681H118.903L118.89 55.061C117.877 55.061 117.219 54.9811 116.926 54.8252C116.638 54.6703 116.44 54.3885 116.355 53.9568C116.288 53.6456 116.26 53.1096 116.255 52.3687L116.28 41.7734H115.447H115.447ZM137.611 43.1629C138.055 43.1629 138.485 43.3341 138.917 43.6716C139.343 44.0079 139.602 44.3819 139.687 44.7882C140.104 46.7837 138.331 48.1634 134.342 48.932C134.228 47.4769 134.481 46.156 135.125 44.9619C135.765 43.7689 136.598 43.1629 137.611 43.1629Z"
    fill="#676767"
  ></path>
  <path
    d="M44.4059 2.79346H4.8234C2.17054 2.79346 0 4.96016 0 7.60776V51.1748C0 53.8222 2.17054 55.9886 4.8234 55.9886H30.8935C30.5976 43.0422 35.0272 17.9174 44.4059 2.79346Z"
    fill="#B6B6B6"
  ></path>
  <path
    d="M42.9673 4.19794H4.82282C2.93913 4.19794 1.40625 5.72744 1.40625 7.6078V47.9961C10.0452 44.687 23.0111 41.8317 31.9763 41.9614C33.7778 32.5598 39.0726 14.1345 42.9673 4.19794Z"
    fill="#CFCFCF"
  ></path>
  <path
    d="M53.639 1.36771C50.928 -1.04515 47.6458 -0.0759379 44.4063 2.79349C43.9254 3.21978 43.4456 3.69272 42.9683 4.19792C37.4265 10.0653 32.2826 20.9336 30.6845 29.2337C31.307 30.4937 31.7933 32.1016 32.1136 33.3299C32.1956 33.645 32.2697 33.9408 32.3289 34.1924C32.4696 34.7879 32.5452 35.174 32.5452 35.174C32.5452 35.174 32.4954 34.9864 32.2916 34.3963C32.2528 34.2832 32.2095 34.1596 32.1583 34.0142C32.1364 33.9542 32.1061 33.8812 32.0728 33.8033C31.7113 32.9646 30.7113 31.1944 30.2713 30.4237C29.8949 31.5319 29.5622 32.5686 29.2838 33.5065C30.5542 35.8265 31.3284 39.8023 31.3284 39.8023C31.3284 39.8023 31.2613 39.5446 30.9421 38.6454C30.6586 37.85 29.247 35.3814 28.9126 34.8043C28.3406 36.9119 28.1133 38.3348 28.3182 38.6812C28.7162 39.3525 29.0952 40.5108 29.428 41.7918C30.1798 44.6775 30.7024 48.1906 30.7024 48.1906C30.7024 48.1906 30.7193 48.4234 30.7476 48.7816C30.6432 51.205 30.7059 53.7176 30.8938 55.9886C31.1429 58.9949 31.6118 61.5774 32.2095 62.9596L32.6153 62.7388C31.7376 60.0157 31.3811 56.447 31.5373 52.3315C31.7734 46.0407 33.2239 38.4544 35.904 30.5473C40.4318 18.611 46.7139 9.03406 52.4635 4.46045C47.2231 9.18393 40.1305 24.4735 38.0073 30.1354C35.63 36.4757 33.9454 42.4255 32.93 48.126C34.6818 42.7818 40.3458 40.4847 40.3458 40.4847C40.3458 40.4847 43.1239 37.0652 46.3704 32.18C44.4257 32.6227 41.2324 33.3805 40.1628 33.8291C38.5851 34.4896 38.16 34.715 38.16 34.715C38.16 34.715 43.2706 31.6088 47.6552 30.2024C53.6852 20.7237 60.2547 7.25792 53.639 1.36771Z"
    fill="#676767"
  ></path>
</svg>
