<svg width="96" height="136" viewBox="0 0 96 136" fill="none" xmlns="http://www.w3.org/2000/svg">
<g clip-path="url(#clip0_9380_56254)">
<path d="M66.1321 65.6054C69.6009 65.2447 72.2325 62.241 72.1128 58.6361C71.9935 55.0316 69.0027 52.1478 65.4142 52.1478H65.1752C61.4666 52.268 58.5959 55.392 58.7156 59.1167C58.8353 60.9191 59.5528 62.4811 60.6294 63.5625C56.5624 71.6132 50.3423 77.5007 41.0121 82.4271C34.6722 85.7915 28.0933 86.9931 21.5144 86.1522C16.1314 85.4312 11.9448 83.0283 9.31275 79.0627C5.48519 73.1751 5.12645 66.8067 8.35623 60.4386C10.6291 55.8725 14.2173 52.5081 16.4902 50.8259C16.0117 49.264 15.2939 46.6206 14.9351 44.6983C-2.40971 57.3146 -0.615262 74.3768 4.648 82.4271C8.59527 88.4352 16.6099 92.16 25.4617 92.16C27.8539 92.16 30.2461 91.9195 32.6387 91.319C47.9501 88.315 59.5532 79.1829 66.1321 65.6054ZM87.1851 50.7061C78.0939 40.012 64.6967 34.1245 49.3854 34.1245H47.4716C46.395 31.9617 44.1221 30.5196 41.6102 30.5196H41.3708C37.6629 30.6398 34.7923 33.7638 34.9116 37.4889C35.0313 41.0934 38.0217 43.9772 41.6102 43.9772H41.8492C44.4809 43.857 46.7538 42.1748 47.7107 39.8918H49.8638C58.955 39.8918 67.5674 42.5351 75.343 47.702C81.3237 51.6672 85.6301 56.8341 88.0223 63.0819C90.0558 68.1285 89.9361 73.0549 87.7829 77.2606C84.4338 83.6287 78.8118 87.1134 71.3953 87.1134C66.6105 87.1134 62.0651 85.6712 59.6725 84.5899C58.3569 85.7915 55.9643 87.7138 54.2895 88.9158C59.4335 91.3187 64.6967 92.6405 69.7206 92.6405C81.204 92.6405 89.6971 86.2721 92.9269 79.904C96.3957 72.9347 96.1563 60.9191 87.1851 50.7061ZM26.4185 67.6476C26.5383 71.2525 29.5286 74.1359 33.1172 74.1359H33.3566C37.0648 74.0161 39.9355 70.8918 39.8158 67.167C39.6964 63.5621 36.7057 60.6787 33.1172 60.6787H32.8781C32.6387 60.6787 32.2796 60.6787 32.0409 60.7985C27.1364 52.628 25.1029 43.7368 25.8208 34.1241C26.2988 26.9147 28.6914 20.6665 32.8781 15.4996C36.3469 11.0538 43.0455 8.89107 47.5913 8.7712C60.2707 8.53073 65.6533 24.3912 66.0124 30.7597C67.5674 31.1201 70.199 31.9613 71.9935 32.5622C70.5578 13.0971 58.5959 3.00391 47.1129 3.00391C36.3469 3.00391 26.4186 10.8141 22.4709 22.3491C16.9686 37.729 20.5571 52.5081 27.2557 64.1633C26.658 65.0042 26.2988 66.3261 26.4185 67.648V67.6476Z" fill="#C5C5C5"/>
</g>
<path d="M30.9243 130L28.2683 125.44H26.5083V130H25.0523V118.848H28.6523C29.495 118.848 30.2043 118.992 30.7803 119.28C31.367 119.568 31.8043 119.957 32.0923 120.448C32.3803 120.939 32.5243 121.499 32.5243 122.128C32.5243 122.896 32.3003 123.573 31.8523 124.16C31.415 124.747 30.7536 125.136 29.8683 125.328L32.6683 130H30.9243ZM26.5083 124.272H28.6523C29.4416 124.272 30.0336 124.08 30.4283 123.696C30.823 123.301 31.0203 122.779 31.0203 122.128C31.0203 121.467 30.823 120.955 30.4283 120.592C30.0443 120.229 29.4523 120.048 28.6523 120.048H26.5083V124.272ZM42.7867 125.28C42.7867 125.557 42.7707 125.851 42.7387 126.16H35.7307C35.784 127.024 36.0774 127.701 36.6107 128.192C37.1547 128.672 37.8107 128.912 38.5787 128.912C39.208 128.912 39.7307 128.768 40.1467 128.48C40.5734 128.181 40.872 127.787 41.0427 127.296H42.6107C42.376 128.139 41.9067 128.827 41.2027 129.36C40.4987 129.883 39.624 130.144 38.5787 130.144C37.7467 130.144 37 129.957 36.3387 129.584C35.688 129.211 35.176 128.683 34.8027 128C34.4294 127.307 34.2427 126.507 34.2427 125.6C34.2427 124.693 34.424 123.899 34.7867 123.216C35.1494 122.533 35.656 122.011 36.3067 121.648C36.968 121.275 37.7254 121.088 38.5787 121.088C39.4107 121.088 40.1467 121.269 40.7867 121.632C41.4267 121.995 41.9174 122.496 42.2587 123.136C42.6107 123.765 42.7867 124.48 42.7867 125.28ZM41.2827 124.976C41.2827 124.421 41.16 123.947 40.9147 123.552C40.6694 123.147 40.3334 122.843 39.9067 122.64C39.4907 122.427 39.0267 122.32 38.5147 122.32C37.7787 122.32 37.1494 122.555 36.6267 123.024C36.1147 123.493 35.8214 124.144 35.7467 124.976H41.2827ZM44.1646 125.584C44.1646 124.688 44.3459 123.904 44.7086 123.232C45.0712 122.549 45.5672 122.021 46.1966 121.648C46.8366 121.275 47.5512 121.088 48.3406 121.088C49.0232 121.088 49.6579 121.248 50.2446 121.568C50.8312 121.877 51.2792 122.288 51.5886 122.8V118.16H53.0606V130H51.5886V128.352C51.3006 128.875 50.8739 129.307 50.3086 129.648C49.7432 129.979 49.0819 130.144 48.3246 130.144C47.5459 130.144 46.8366 129.952 46.1966 129.568C45.5672 129.184 45.0712 128.645 44.7086 127.952C44.3459 127.259 44.1646 126.469 44.1646 125.584ZM51.5886 125.6C51.5886 124.939 51.4552 124.363 51.1886 123.872C50.9219 123.381 50.5592 123.008 50.1006 122.752C49.6526 122.485 49.1566 122.352 48.6126 122.352C48.0686 122.352 47.5726 122.48 47.1246 122.736C46.6766 122.992 46.3192 123.365 46.0526 123.856C45.7859 124.347 45.6526 124.923 45.6526 125.584C45.6526 126.256 45.7859 126.843 46.0526 127.344C46.3192 127.835 46.6766 128.213 47.1246 128.48C47.5726 128.736 48.0686 128.864 48.6126 128.864C49.1566 128.864 49.6526 128.736 50.1006 128.48C50.5592 128.213 50.9219 127.835 51.1886 127.344C51.4552 126.843 51.5886 126.261 51.5886 125.6ZM63.2971 121.232V130H61.8411V128.704C61.5637 129.152 61.1744 129.504 60.6731 129.76C60.1824 130.005 59.6384 130.128 59.0411 130.128C58.3584 130.128 57.7451 129.989 57.2011 129.712C56.6571 129.424 56.2251 128.997 55.9051 128.432C55.5957 127.867 55.4411 127.179 55.4411 126.368V121.232H56.8811V126.176C56.8811 127.04 57.0997 127.707 57.5371 128.176C57.9744 128.635 58.5717 128.864 59.3291 128.864C60.1077 128.864 60.7211 128.624 61.1691 128.144C61.6171 127.664 61.8411 126.965 61.8411 126.048V121.232H63.2971ZM70.3314 130L68.2514 126.736L66.2514 130H64.7314L67.5634 125.648L64.7314 121.232H66.3794L68.4594 124.48L70.4434 121.232H71.9634L69.1474 125.568L71.9794 130H70.3314Z" fill="#AFAFAF"/>
<defs>
<clipPath id="clip0_9380_56254">
<rect width="94" height="90" fill="white" transform="translate(1 3)"/>
</clipPath>
</defs>
</svg>
