<svg width="78" height="106" viewBox="0 0 78 106" fill="none" xmlns="http://www.w3.org/2000/svg"><path d="M20.068 87.09a3.844 3.844 0 0 0-1.512-1.692c-.66-.408-1.428-.612-2.304-.612-.876 0-1.668.204-2.376.612-.696.396-1.248.972-1.656 1.728-.396.744-.594 1.608-.594 2.592s.198 1.848.594 2.592c.408.744.96 1.32 1.656 1.728.708.396 1.5.594 2.376.594 1.224 0 2.232-.366 3.024-1.098.792-.732 1.254-1.722 1.386-2.97h-5.004v-1.332h6.75v1.26a6.289 6.289 0 0 1-.972 2.844 6.11 6.11 0 0 1-2.178 2.034c-.9.492-1.902.738-3.006.738-1.164 0-2.226-.27-3.186-.81a6.146 6.146 0 0 1-2.286-2.286c-.552-.972-.828-2.07-.828-3.294 0-1.224.276-2.322.828-3.294a5.976 5.976 0 0 1 2.286-2.286c.96-.552 2.022-.828 3.186-.828 1.332 0 2.508.33 3.528.99 1.032.66 1.782 1.59 2.25 2.79h-1.962Zm6.143.648a3.16 3.16 0 0 1 1.225-1.314c.54-.312 1.194-.468 1.962-.468v1.692h-.433c-1.835 0-2.753.996-2.753 2.988V96h-1.639v-9.864h1.639v1.602Zm4.465 3.294c0-1.008.204-1.89.612-2.646a4.446 4.446 0 0 1 1.674-1.782c.72-.42 1.518-.63 2.394-.63.864 0 1.614.186 2.25.558.636.372 1.11.84 1.422 1.404v-1.8h1.656V96h-1.656v-1.836c-.324.576-.81 1.056-1.458 1.44-.636.372-1.38.558-2.232.558-.876 0-1.668-.216-2.376-.648-.708-.432-1.266-1.038-1.674-1.818-.408-.78-.612-1.668-.612-2.664Zm8.352.018c0-.744-.15-1.392-.45-1.944a3.098 3.098 0 0 0-1.224-1.26 3.211 3.211 0 0 0-1.674-.45c-.612 0-1.17.144-1.674.432a3.134 3.134 0 0 0-1.206 1.26c-.3.552-.45 1.2-.45 1.944 0 .756.15 1.416.45 1.98.3.552.702.978 1.206 1.278a3.314 3.314 0 0 0 1.674.432c.612 0 1.17-.144 1.674-.432.516-.3.924-.726 1.224-1.278.3-.564.45-1.218.45-1.962Zm3.812-.018c0-1.008.204-1.89.612-2.646a4.446 4.446 0 0 1 1.674-1.782c.72-.42 1.524-.63 2.412-.63.768 0 1.482.18 2.142.54.66.348 1.164.81 1.512 1.386v-5.22h1.656V96h-1.656v-1.854c-.324.588-.804 1.074-1.44 1.458-.636.372-1.38.558-2.232.558a4.564 4.564 0 0 1-2.394-.648c-.708-.432-1.266-1.038-1.674-1.818-.408-.78-.612-1.668-.612-2.664Zm8.352.018c0-.744-.15-1.392-.45-1.944a3.098 3.098 0 0 0-1.224-1.26 3.211 3.211 0 0 0-1.674-.45c-.612 0-1.17.144-1.674.432a3.134 3.134 0 0 0-1.206 1.26c-.3.552-.45 1.2-.45 1.944 0 .756.15 1.416.45 1.98.3.552.702.978 1.206 1.278a3.314 3.314 0 0 0 1.674.432c.612 0 1.17-.144 1.674-.432.516-.3.924-.726 1.224-1.278.3-.564.45-1.218.45-1.962Zm6.063-8.37V96h-1.639V82.68h1.639Zm11.791 8.01c0 .312-.018.642-.054.99h-7.884c.06.972.39 1.734.99 2.286.612.54 1.35.81 2.214.81.708 0 1.296-.162 1.764-.486.48-.336.816-.78 1.008-1.332h1.764a4.284 4.284 0 0 1-1.584 2.322c-.792.588-1.776.882-2.952.882-.936 0-1.776-.21-2.52-.63a4.492 4.492 0 0 1-1.728-1.782c-.42-.78-.63-1.68-.63-2.7 0-1.02.204-1.914.612-2.682a4.254 4.254 0 0 1 1.71-1.764c.744-.42 1.596-.63 2.556-.63.936 0 1.764.204 2.484.612.72.408 1.272.972 1.656 1.692.396.708.594 1.512.594 2.412Zm-1.692-.342c0-.624-.138-1.158-.414-1.602a2.605 2.605 0 0 0-1.134-1.026c-.468-.24-.99-.36-1.566-.36-.828 0-1.536.264-2.124.792-.576.528-.906 1.26-.99 2.196h6.228Z" fill="#A0A0A0"/><path d="M73.76 4.606C69.049-.085 61.448-.216 56.576 4.311c-.234.22-.37.522-.379.842.002.319.128.624.352.852l1.54 1.586a1.184 1.184 0 0 0 1.54.108 7.03 7.03 0 0 1 4.243-1.408 7.08 7.08 0 0 1 6.569 4.342 7.02 7.02 0 0 1-1.543 7.696C59.079 28.099 45.973.725 16.23 14.806a4.03 4.03 0 0 0-2.142 2.427 4.007 4.007 0 0 0 .34 3.211l5.099 8.775a4.055 4.055 0 0 0 5.467 1.497l.126-.072-.099.072 2.261-1.264a51.802 51.802 0 0 0 7.116-5.288c.469-.4 1.161-.4 1.63 0 .277.216.44.546.441.896a1.18 1.18 0 0 1-.387.896 53.328 53.328 0 0 1-7.503 5.54h-.072l-2.26 1.255a6.33 6.33 0 0 1-3.135.815 6.51 6.51 0 0 1-5.612-3.2l-4.819-8.29C3.422 28.583-2.198 41.121.82 57.032c.111.548.592.944 1.153.95h5.495c.59 0 1.09-.439 1.162-1.022.506-4.002 3.927-7.004 7.98-7.004 4.054 0 7.474 3.002 7.98 7.004a1.178 1.178 0 0 0 1.172 1.022h5.35c.591 0 1.09-.439 1.162-1.022.523-3.991 3.94-6.977 7.985-6.977s7.462 2.986 7.985 6.977a1.17 1.17 0 0 0 1.162 1.022h5.287c.64 0 1.161-.511 1.171-1.148.126-7.412 2.135-15.927 7.864-20.194C83.57 21.87 78.355 9.205 73.76 4.607ZM53.522 26.951l-3.783-1.89a2.381 2.381 0 0 1 4.547-.98 2.36 2.36 0 0 1-.764 2.88v-.01Z" fill="#A3A3A3"/></svg>