<svg width="178" height="138" viewBox="0 0 178 138" fill="none" xmlns="http://www.w3.org/2000/svg">
<path d="M63.704 115.454V124.724C63.704 125.756 63.386 126.584 62.75 127.208C62.114 127.82 61.274 128.126 60.23 128.126C59.174 128.126 58.328 127.814 57.692 127.19C57.056 126.554 56.738 125.69 56.738 124.598H58.376C58.388 125.21 58.544 125.708 58.844 126.092C59.156 126.476 59.618 126.668 60.23 126.668C60.842 126.668 61.298 126.488 61.598 126.128C61.898 125.756 62.048 125.288 62.048 124.724V115.454H63.704ZM75.9309 122.69C75.9309 123.002 75.9129 123.332 75.8769 123.68H67.9929C68.0529 124.652 68.3829 125.414 68.9829 125.966C69.5949 126.506 70.3329 126.776 71.1969 126.776C71.9049 126.776 72.4929 126.614 72.9609 126.29C73.4409 125.954 73.7769 125.51 73.9689 124.958H75.7329C75.4689 125.906 74.9409 126.68 74.1489 127.28C73.3569 127.868 72.3729 128.162 71.1969 128.162C70.2609 128.162 69.4209 127.952 68.6769 127.532C67.9449 127.112 67.3689 126.518 66.9489 125.75C66.5289 124.97 66.3189 124.07 66.3189 123.05C66.3189 122.03 66.5229 121.136 66.9309 120.368C67.3389 119.6 67.9089 119.012 68.6409 118.604C69.3849 118.184 70.2369 117.974 71.1969 117.974C72.1329 117.974 72.9609 118.178 73.6809 118.586C74.4009 118.994 74.9529 119.558 75.3369 120.278C75.7329 120.986 75.9309 121.79 75.9309 122.69ZM74.2389 122.348C74.2389 121.724 74.1009 121.19 73.8249 120.746C73.5489 120.29 73.1709 119.948 72.6909 119.72C72.2229 119.48 71.7009 119.36 71.1249 119.36C70.2969 119.36 69.5889 119.624 69.0009 120.152C68.4249 120.68 68.0949 121.412 68.0109 122.348H74.2389ZM82.899 117.956C84.099 117.956 85.071 118.322 85.815 119.054C86.559 119.774 86.931 120.818 86.931 122.186V128H85.311V122.42C85.311 121.436 85.065 120.686 84.573 120.17C84.081 119.642 83.409 119.378 82.557 119.378C81.693 119.378 81.003 119.648 80.487 120.188C79.983 120.728 79.731 121.514 79.731 122.546V128H78.093V118.136H79.731V119.54C80.055 119.036 80.493 118.646 81.045 118.37C81.609 118.094 82.227 117.956 82.899 117.956ZM95.1147 128L91.2447 123.644V128H89.6067V114.68H91.2447V122.51L95.0427 118.136H97.3287L92.6847 123.05L97.3467 128H95.1147ZM99.7164 116.534C99.4044 116.534 99.1404 116.426 98.9244 116.21C98.7084 115.994 98.6004 115.73 98.6004 115.418C98.6004 115.106 98.7084 114.842 98.9244 114.626C99.1404 114.41 99.4044 114.302 99.7164 114.302C100.016 114.302 100.268 114.41 100.472 114.626C100.688 114.842 100.796 115.106 100.796 115.418C100.796 115.73 100.688 115.994 100.472 116.21C100.268 116.426 100.016 116.534 99.7164 116.534ZM100.508 118.136V128H98.8704V118.136H100.508ZM108.106 117.956C109.306 117.956 110.278 118.322 111.022 119.054C111.766 119.774 112.138 120.818 112.138 122.186V128H110.518V122.42C110.518 121.436 110.272 120.686 109.78 120.17C109.288 119.642 108.616 119.378 107.764 119.378C106.9 119.378 106.21 119.648 105.694 120.188C105.19 120.728 104.938 121.514 104.938 122.546V128H103.3V118.136H104.938V119.54C105.262 119.036 105.7 118.646 106.252 118.37C106.816 118.094 107.434 117.956 108.106 117.956ZM118.306 128.162C117.55 128.162 116.872 128.036 116.272 127.784C115.672 127.52 115.198 127.16 114.85 126.704C114.502 126.236 114.31 125.702 114.274 125.102H115.966C116.014 125.594 116.242 125.996 116.65 126.308C117.07 126.62 117.616 126.776 118.288 126.776C118.912 126.776 119.404 126.638 119.764 126.362C120.124 126.086 120.304 125.738 120.304 125.318C120.304 124.886 120.112 124.568 119.728 124.364C119.344 124.148 118.75 123.938 117.946 123.734C117.214 123.542 116.614 123.35 116.146 123.158C115.69 122.954 115.294 122.66 114.958 122.276C114.634 121.88 114.472 121.364 114.472 120.728C114.472 120.224 114.622 119.762 114.922 119.342C115.222 118.922 115.648 118.592 116.2 118.352C116.752 118.1 117.382 117.974 118.09 117.974C119.182 117.974 120.064 118.25 120.736 118.802C121.408 119.354 121.768 120.11 121.816 121.07H120.178C120.142 120.554 119.932 120.14 119.548 119.828C119.176 119.516 118.672 119.36 118.036 119.36C117.448 119.36 116.98 119.486 116.632 119.738C116.284 119.99 116.11 120.32 116.11 120.728C116.11 121.052 116.212 121.322 116.416 121.538C116.632 121.742 116.896 121.91 117.208 122.042C117.532 122.162 117.976 122.3 118.54 122.456C119.248 122.648 119.824 122.84 120.268 123.032C120.712 123.212 121.09 123.488 121.402 123.86C121.726 124.232 121.894 124.718 121.906 125.318C121.906 125.858 121.756 126.344 121.456 126.776C121.156 127.208 120.73 127.55 120.178 127.802C119.638 128.042 119.014 128.162 118.306 128.162Z" fill="#A0A0A0"/>
<g>
<path d="M38.8583 54.503C38.8583 65.3998 30.2945 74.2335 19.7301 74.2335C9.16617 74.2335 0.602356 65.3998 0.602356 54.503C0.602356 43.606 9.16617 34.7724 19.7301 34.7724C30.2945 34.7724 38.8583 43.6062 38.8583 54.5032" fill="#CACACA"/>
<path d="M1.38186 59.3897C1.38186 59.3897 -0.00271491 38.8137 18.7975 38.2261L17.486 36.0215L7.2846 39.4751L4.36961 42.8556L1.81907 47.7792L0.361572 53.511L0.798787 57.3321" fill="#7D7D7D"/>
<path d="M6.62911 41.0431C3.27305 44.506 1.19628 49.2872 1.19628 54.5767C1.19628 59.8646 3.27305 64.6466 6.62911 68.1091C9.98692 71.5711 14.6142 73.7078 19.73 73.7078C24.8459 73.7078 29.4736 71.5713 32.8312 68.1091C36.1869 64.6467 38.264 59.865 38.264 54.5767C38.264 49.2872 36.1867 44.506 32.8312 41.0431C29.4736 37.5817 24.8461 35.4454 19.73 35.4448C14.6142 35.4452 9.98692 37.5817 6.62911 41.0431V41.0431ZM5.77987 68.9465C2.21307 65.2681 0.00793457 60.1846 0.00793457 54.5767C0.00793457 48.968 2.21307 43.8849 5.77952 40.2061C9.34544 36.5265 14.2814 34.2461 19.7298 34.2468C25.1782 34.2461 30.1147 36.5265 33.6799 40.2061C37.2471 43.8849 39.4526 48.9686 39.4519 54.5767C39.4524 60.1844 37.2471 65.2679 33.6799 68.9465C30.1147 72.6258 25.1782 74.9062 19.7298 74.9062C14.2816 74.9062 9.34544 72.6258 5.77987 68.9465" fill="#484848"/>
<path d="M27.7822 54.6124L24.8672 55.0533L20.9323 55.4942L18.3819 55.5676L15.9043 55.4942L14.0098 54.9062L12.3339 53.0692L11.0222 49.3215L10.7307 48.513L8.98183 47.9254L7.96172 46.2351L7.23297 43.8101L8.03447 41.6789L9.92919 41.0176L11.4594 41.7526L12.188 43.3692L13.0624 43.2221L13.354 42.8549L13.0624 41.1646L12.9897 39.0335L13.4269 36.0942L13.4099 34.4152L14.7385 32.2733L17.0703 30.583L21.1509 28.8194L25.6689 29.4807L29.6038 32.3467L31.4254 35.2861L32.5916 37.4171L32.8829 42.708L32.0085 47.2642L30.4055 51.3057L28.8753 53.4369" fill="white"/>
<path d="M25.3045 67.3252L14.8842 67.7661V69.5297L15.7587 75.7024L15.3214 76.2169L8.03448 73.7184L7.52451 72.8365L6.79576 64.5328L5.11983 59.5357L4.75537 58.3601L10.585 54.3187L12.4066 53.5836L14.0098 55.5677L15.3944 56.8171L16.9974 57.3314L17.7261 57.5518L18.6006 61.3731L19.2564 62.1814L20.9323 61.5935L19.7665 63.8716L26.1061 66.8844L25.3045 67.3254" fill="#474747"/>
<path d="M8.03452 41.6789L9.92924 41.0176L11.4595 41.7527L12.1881 43.3692L13.0625 43.2221L13.2811 42.3403L12.8439 40.6504L13.2811 36.6085L12.9166 34.4039L14.2283 32.8608L17.0702 30.5828L16.2688 29.4806L12.2608 31.4647L10.5851 32.7874L9.6377 34.8448L8.18038 36.8289L7.74316 39.1806L8.03452 41.6789" fill="#6D6B6D"/>
<path d="M11.0221 34.7715C11.0221 34.7715 12.1151 32.0527 16.4873 30.7299C20.8594 29.4072 16.7059 29.7744 16.7059 29.7744L11.9693 31.6119L10.1477 33.4488L9.34599 34.9186L11.0221 34.7715V34.7715ZM8.83602 41.1647C8.83602 41.1647 7.30577 36.0207 13.1351 35.2858L12.9165 34.4039L8.90877 35.3595L7.74298 39.1806L8.03434 41.6789L8.83602 41.1647" fill="#DCD9D8"/>
<path d="M11.1676 47.9987L12.1218 47.0665C12.1218 47.0665 12.5523 47.1169 12.6251 47.6312C12.6978 48.1458 12.9165 52.7754 16.0501 55.2739C16.3357 55.5019 13.7181 54.9062 13.7181 54.9062L11.3862 51.2324L11.1676 47.9987ZM24.5761 46.6026C24.5761 46.6026 24.7461 44.3752 25.3411 44.5464C25.9358 44.7177 25.9358 45.3177 25.9358 45.3177C25.9358 45.3177 24.4911 46.26 24.5761 46.6026ZM30.624 38.4458C30.624 38.4458 29.4225 38.7016 29.3124 39.7686C29.2017 40.8357 30.624 39.989 30.8426 39.9153L30.624 38.4458ZM21.8068 38.5194C21.8068 38.5194 20.2038 38.7398 20.2038 39.7686C20.2038 40.7971 22.0254 40.7239 22.5357 40.283L21.8068 38.5194ZM11.8965 43.2958C11.8965 43.2958 9.12738 41.6056 8.83602 43.2221C8.54431 44.839 7.88849 46.0146 9.27323 47.7049L8.3257 47.4107L7.45127 45.1328L7.15991 42.9283L8.83602 41.1645L10.7304 41.3116L11.8234 42.1934L11.8965 43.2956V43.2958ZM13.2082 38.6663C13.2082 38.6663 14.4467 32.1994 20.7136 30.9504C25.8732 29.922 28.5833 31.1708 29.6037 32.3465C29.6037 32.3465 25.013 26.8353 20.6408 28.5254C16.2687 30.2153 13.0623 33.3017 13.1351 35.2857C13.2592 38.6649 13.2082 38.6663 13.2082 38.6663V38.6663ZM30.1139 33.0812C30.1139 33.0812 28.0009 33.0078 27.9278 34.9186C27.9278 34.9186 27.9276 35.2124 28.0736 35.5062C28.0736 35.5062 29.7499 33.5957 30.7697 34.6244" fill="#F5F5F5"/>
<path d="M20.8604 35.7053C20.8604 35.7053 20.4967 32.7726 18.0175 34.4776C16.4141 35.5799 16.56 37.1231 16.8514 37.4169C17.1431 37.7111 17.0637 38.303 17.2856 37.8966C17.5072 37.4903 17.4342 36.1676 18.2361 35.8004C19.0374 35.4328 20.3515 35.0224 20.8604 35.7053Z" fill="#F5F5F5"/>
<path d="M14.0094 55.5675L7.15987 58.6539C7.15987 58.6539 10.0018 70.0442 8.54426 73.5714L7.52433 73.2042L7.45123 68.8685L5.55686 60.6383L4.75519 58.3601L11.8965 53.5103L14.0094 55.5675V55.5675ZM14.7139 61.8676L15.6856 63.063V67.4721H14.5198C14.5198 67.4721 14.3739 64.3857 14.3739 64.0183C14.3739 63.651 14.5198 62.3283 14.5198 62.3283L14.7139 61.8676ZM14.7384 68.1338L11.4593 68.2805L12.4064 68.9419L14.7384 69.3092" fill="#666666"/>
<path d="M25.9603 67.3987L28.6567 67.3252L29.3125 74.0857L26.5434 74.4531L25.9603 67.3987" fill="#474747"/>
<path d="M26.689 67.3987L30.7695 67.1783C30.7695 67.1783 32.4456 62.9161 32.4456 62.6956C32.4456 62.4752 33.9031 56.5229 33.9031 56.5229L30.624 53.0694L29.9681 52.4815L28.2193 54.2452V61.0793L26.689 67.3987Z" fill="#474747"/>
<path d="M28.5107 66.8843L25.9601 67.3987L26.3246 69.4565C27.2718 69.8974 28.8751 68.7214 28.8751 68.7214L28.5107 66.8843ZM28.5836 54.0247L33.6847 57.846L33.8302 56.0823L29.9684 52.4815L28.5836 54.0247Z" fill="#666666"/>
<path d="M17.2673 81.876L15.7587 75.7021L15.0084 71.147L14.8843 67.7657L21.7124 67.3992L25.9603 67.3985L25.5744 75.1151L26.2302 81.0674L26.1571 82.1697L20.6193 82.6106L17.2673 81.876Z" fill="white"/>
<path d="M25.0129 67.3252C25.0129 67.3252 24.6485 74.9675 25.7415 80.4055C25.7415 80.4055 23.5554 81.802 20.3491 82.1691L26.4702 81.9487L27.199 81.5078L26.3246 69.4565L26.106 66.8843" fill="#DCD9D8"/>
<path d="M29.4364 73.4988L32.2783 72.6903L37.6705 72.3965L38.4722 69.8978L37.0147 65.5624L35.3389 65.342L33.007 66.0767L30.7697 67.1783L29.582 66.9585L28.6564 67.3252" fill="white"/>
<path d="M29.3851 72.0282C29.3851 72.0282 31.2794 71.1466 31.5711 71.2202L30.7695 67.1783L31.7168 66.8111C31.7168 66.8111 32.3726 70.6322 32.3726 71.0731C32.3726 71.0731 36.4533 71.2935 36.8177 71.2935C36.8177 71.2935 37.6921 69.6034 37.4735 67.8398L38.275 70.1912L38.348 71.514L37.182 73.2776L35.8704 73.5716L33.6843 73.4981L32.9555 72.5429L30.4054 72.9101L29.6037 73.2042" fill="#DCD9D8"/>
<path d="M26.5215 66.8116L24.9185 62.6967L23.2424 60.2717C23.2424 60.2717 23.6067 59.2428 24.1168 59.2428H25.7929L27.3959 59.8308L27.2504 62.5496L26.5215 66.8116Z" fill="white"/>
<path d="M26.8347 65.4146C26.8347 65.4146 24.7945 61.4466 24.7945 60.8588C24.7945 60.8588 25.1588 59.977 25.6689 60.1974C26.1789 60.4179 27.2719 61.0055 27.2719 61.0055V59.6094L24.7945 59.0948L23.1184 59.3153L25.9603 66.076L26.5434 66.1497" fill="#DCD9D8"/>
<path d="M17.9231 55.7155L15.9044 55.4942L14.0096 54.9062V55.5675L14.9355 56.5972L17.8503 57.9199" fill="white"/>
<path d="M14.6658 55.9358C14.6658 55.9358 16.9246 56.8912 17.6536 56.6707L17.7258 57.5516L15.6859 57.1116L14.4472 56.2298L14.6658 55.9358Z" fill="#DCD9D8"/>
<path d="M29.4284 59.4929C28.192 59.4562 27.075 59.308 26.0969 59.0299C26.1633 58.6255 26.0388 58.2287 26.1388 57.9373C26.4113 57.7393 26.8685 57.7425 27.2803 57.6961C26.9239 57.5194 26.4235 57.4497 26.0122 57.5515C26.0024 57.2709 25.8776 57.097 25.802 56.8774C26.4972 56.627 28.1383 54.9868 29.0615 55.53C29.5014 55.7883 29.6883 57.264 29.7224 57.9814C29.7509 58.577 29.6691 59.1775 29.4286 59.4929" fill="#CACACA"/>
<path d="M29.4284 59.4929C28.192 59.4562 27.075 59.308 26.0969 59.0299C26.1633 58.6255 26.0388 58.2287 26.1388 57.9373C26.4113 57.7393 26.8685 57.7425 27.2803 57.6961C26.9239 57.5194 26.4235 57.4497 26.0122 57.5515C26.0024 57.2709 25.8776 57.097 25.802 56.8774C26.4972 56.627 28.1383 54.9868 29.0615 55.53C29.5014 55.7883 29.6883 57.264 29.7224 57.9814C29.7509 58.577 29.6691 59.1775 29.4286 59.4929H29.4284Z" stroke="#CACACA" stroke-width="6.14065"/>
<path d="M23.5159 57.4545C23.5126 57.5488 23.5086 57.6439 23.5049 57.7391C23.1189 57.9948 22.4958 57.9917 22.0719 58.2067C22.6966 58.2342 23.1882 58.3858 23.6135 58.5998L23.586 59.3126C22.8784 59.8012 22.2321 60.5287 21.3989 60.9868C21.0049 61.2036 19.6222 61.7611 19.2032 61.6625C18.9663 61.6069 18.9447 61.3103 18.85 61.0304C18.648 60.4317 18.1829 59.4784 18.1422 58.5763C18.0908 57.4375 17.9766 55.5291 19.1936 55.7637C20.1754 55.9524 21.3176 56.4086 22.0776 56.8275C22.5423 57.0832 22.8111 57.3998 23.5159 57.4545" fill="#CACACA"/>
<path d="M23.5159 57.4545C23.5126 57.5488 23.5086 57.6439 23.5049 57.7391C23.1189 57.9948 22.4958 57.9917 22.0719 58.2067C22.6966 58.2342 23.1882 58.3858 23.6135 58.5998L23.586 59.3126C22.8784 59.8012 22.2321 60.5287 21.3989 60.9868C21.0049 61.2036 19.6222 61.7611 19.2032 61.6625C18.9663 61.6069 18.9447 61.3103 18.85 61.0304C18.648 60.4317 18.1829 59.4784 18.1422 58.5763C18.0908 57.4375 17.9766 55.5291 19.1936 55.7637C20.1754 55.9524 21.3176 56.4086 22.0776 56.8275C22.5423 57.0832 22.8111 57.3998 23.5159 57.4545V57.4545Z" stroke="#CACACA" stroke-width="6.14065"/>
<path d="M24.2188 58.8133C24.1104 58.1931 23.9857 58.016 24.0339 57.4746C25.6749 56.3716 25.9829 59.3696 24.2186 58.8133" fill="#CACACA"/>
<path d="M24.2188 58.8133C24.1104 58.1931 23.9857 58.016 24.0339 57.4746C25.6749 56.3716 25.9829 59.3696 24.2186 58.8133H24.2188Z" stroke="#CACACA" stroke-width="6.14065"/>
<path d="M26.5943 59.3162C26.5943 59.3162 26.0841 58.5813 26.4488 58.3608C26.8129 58.1403 27.1775 58.361 27.3961 57.9934C27.6147 57.6262 27.3961 57.4058 27.4689 56.9649C27.542 56.524 27.9066 56.4503 28.2705 56.3769C28.6348 56.3035 29.6553 56.1564 29.8008 56.524L29.3636 55.2012L28.4892 54.9071L25.72 56.524L25.5745 57.3321V58.949L26.5943 59.3162ZM18.943 61.7412C18.8554 60.5944 18.7629 59.4491 18.6597 58.3035C18.5056 56.5928 19.0672 56.8912 20.5378 56.8912C20.7623 56.8912 21.9206 57.1614 22.0035 57.3321C22.401 58.1507 21.3389 57.9687 22.4615 58.586C23.4087 59.107 25.0827 58.2698 24.6999 57.1116C24.4857 56.8541 23.5836 57.0314 23.2604 56.8626L21.5526 55.9697C20.8283 55.5905 19.1544 55.0385 18.382 55.5679C16.4255 56.91 18.5056 60.2627 19.2036 61.6625" fill="#7D7D7D"/>
<path d="M20.8605 35.7053C18.8744 35.2388 17.8876 36.5436 17.2856 37.8966C16.748 37.7652 16.9621 37.0281 17.0978 36.6524C17.4533 35.6665 18.886 34.3542 20.0565 34.5322C20.5602 34.6085 21.2419 35.0731 20.8605 35.7053ZM30.5376 37.9862L30.6318 37.9898C31.0806 38.9301 31.469 39.9262 32.035 40.7562C31.656 41.647 29.1632 42.4354 29.2015 40.8357C29.7405 40.5982 30.671 40.7872 31.149 40.4837C30.8728 39.719 30.4741 39.0679 30.5376 37.9862V37.9862ZM21.8774 38.0106C22.3033 38.7979 22.4419 39.625 23.0472 40.2201C23.3199 40.4879 23.8499 40.8144 23.5871 41.5594C23.5257 41.735 23.077 42.1267 22.8176 42.2036C21.8713 42.4853 19.6662 42.2618 20.4129 41.0719C21.1959 41.1087 22.2475 41.5844 22.8325 41.0117C22.3835 40.2874 21.5827 38.8548 21.8774 38.0106V38.0106ZM30.1822 46.0118C28.7574 46.9351 27.1686 47.9386 24.8339 47.7058C24.3349 47.2684 24.1448 46.2951 24.6294 45.6522C24.8818 46.0896 24.7232 46.894 25.4262 47.0152C26.751 47.2437 28.2929 46.1979 29.2461 45.8321C29.8366 44.8275 29.1948 44.4581 28.6626 43.8115C27.5731 42.4867 26.111 40.8447 26.164 38.8615C26.6048 38.5395 26.6425 39.3532 26.7058 39.5014C27.2749 40.8442 28.7069 42.562 29.7522 43.7113C30.0087 43.9944 30.4313 44.266 30.4783 44.4531C30.6138 44.9977 30.1257 45.6498 30.1824 46.0118H30.1822ZM11.3977 45.0401C10.9512 44.7829 10.8447 43.6507 10.3204 43.6186C9.57139 43.5725 9.70798 45.0872 9.71078 45.973C9.19522 45.5011 9.10445 44.047 9.48325 43.3004C9.05128 43.0867 8.85838 43.5364 8.61914 43.6948C8.92694 41.4396 11.8906 42.6489 11.3979 45.0401H11.3977ZM31.0895 46.951C30.4264 48.2241 29.4881 49.6262 27.5418 49.667C27.5023 49.2559 27.4718 48.6301 27.5439 48.3823C29.0318 48.2384 29.9503 47.4748 31.0895 46.951V46.951ZM21.7653 47.7763C23.0065 48.4349 25.2879 48.5054 26.9752 48.4555C27.0656 48.8284 27.0635 49.2888 27.067 49.7435C24.898 49.8525 22.3339 49.3114 21.7653 47.7763V47.7763ZM21.5292 49.0038C22.3877 51.1773 25.3381 50.9271 27.826 50.8671C27.7165 51.1493 27.479 51.4826 27.184 51.6033C26.3865 51.9304 24.1877 52.1786 23.0806 51.5856C22.3786 51.2094 21.928 50.3592 21.5432 49.8608C21.3577 49.62 20.4327 49.0051 21.5292 49.0037" fill="#484848"/>
<path d="M30.0787 60.9925C29.0713 62.7323 28.1077 64.5194 26.9124 66.0541C27.4134 64.5683 27.6278 62.0819 27.7035 60.1862C28.7518 59.6916 29.6493 60.2976 30.0787 60.9925Z" fill="#D3D3D3"/>
<path d="M35.4993 67.246C34.3714 67.4737 33.579 68.5791 32.4788 68.508C33.0834 67.6484 34.143 67.286 35.4993 67.246ZM35.9968 69.0258C35.0776 69.1241 33.9979 69.274 33.0656 69.1966C33.5068 68.5167 35.2074 68.7512 35.9968 69.0258ZM36.3153 70.5606C35.2822 70.5831 33.998 70.5623 33.0164 70.4794C33.597 69.8502 35.6453 70.2457 36.3153 70.5606Z" fill="#484848"/>
<path d="M28.1348 74.76C28.2828 76.0684 28.7971 77.3941 28.733 78.8271C28.1618 79.0212 27.8335 79.1913 27.068 79.1904C27.014 77.9724 26.8524 76.1107 26.9009 74.9497C27.2774 74.9749 27.8325 74.6787 28.1348 74.76" fill="#DCD9D8"/>
<path d="M26.4692 55.4764C25.9505 55.8178 25.5087 56.2444 25.0105 56.609C23.9056 56.6642 23.3027 56.5319 22.4911 55.8921C22.5044 55.8409 22.5859 55.8638 22.589 55.8007C23.7716 56.3319 25.2751 55.5838 26.4692 55.4762" fill="white"/>
<path d="M20.2607 63.6062C20.5857 62.1865 21.8588 61.451 23.015 60.6689C24.2084 62.1962 24.9342 64.1605 25.7334 66.0559C23.845 65.4818 21.9157 64.5504 20.2607 63.6062" fill="#D3D3D3"/>
<path d="M26.901 74.9497C26.8527 76.1107 27.0141 77.9724 27.0682 79.1904C27.8338 79.1915 28.1617 79.0216 28.7331 78.8271C28.7976 77.3941 28.2831 76.0684 28.135 74.76C27.8324 74.6787 27.2775 74.975 26.901 74.9497V74.9497ZM14.9839 68.3474C15.4886 73.0261 16.2195 76.959 17.56 81.1022C20.5359 82.0133 24.1228 82.0926 26.7529 81.2706C26.2702 78.9322 26.4809 76.0853 26.1988 73.5898C25.986 71.7142 26.0946 69.8271 25.8029 67.9135C22.6159 67.2451 18.1114 67.7574 14.9839 68.3474V68.3474ZM26.5561 67.9433C26.5294 69.9525 26.6453 71.9344 26.7975 73.9464C27.5628 73.8307 28.082 73.7533 28.7926 73.5961C28.5619 71.6593 28.5902 69.4798 28.1199 67.7664C27.5768 67.7716 27.0981 67.7601 26.5563 67.9433H26.5561ZM30.4377 67.6192C30.0745 67.5354 29.6518 67.6158 29.3048 67.6227C29.468 69.2608 29.8636 71.0685 30.0028 72.7877C30.5488 72.8048 30.8403 72.5452 31.2894 72.4579C31.3134 70.9486 31.1582 68.8692 30.4377 67.6192V67.6192ZM36.3147 73.0342C37.4526 72.7558 38.1678 71.3503 37.8497 69.9068C37.6362 68.9368 37.2558 67.1104 36.8487 66.4897C36.5479 66.0312 35.7324 65.4302 35.0811 65.8504C34.0216 66.5347 32.1553 66.7331 31.383 67.5612C31.7703 68.8618 31.8905 70.6484 32.0503 72.2965C33.3737 72.3799 35.0019 71.9293 36.1026 72.4076C35.3342 72.6584 34.3371 72.6604 33.6734 73.0261C34.2161 73.2903 35.4863 73.2371 36.3147 73.0342V73.0342ZM25.7335 66.0559C24.9342 64.1605 24.2083 62.1962 23.015 60.6689C21.8589 61.451 20.5857 62.1863 20.2608 63.6062C21.9157 64.5505 23.845 65.4818 25.7335 66.0559ZM27.7035 60.1865C27.6278 62.0821 27.4134 64.5686 26.9124 66.0541C28.1075 64.5198 29.0713 62.7327 30.0787 60.9929C29.6493 60.2976 28.7518 59.6916 27.7035 60.1863V60.1865ZM25.4703 59.3862C25.0175 59.3368 24.6333 59.911 24.0442 59.6627C23.9096 59.8132 23.787 59.9761 23.6495 60.123C24.9498 61.7032 25.5406 63.9452 26.5449 65.8025C27.0838 64.0185 27.0217 62.0643 27.1404 60.1172C26.3999 60.1643 25.9891 59.4417 25.4703 59.3862V59.3862ZM24.0343 57.4748C23.9858 58.016 24.1107 58.1933 24.2189 58.8135C25.9828 59.3696 25.6749 56.3716 24.0343 57.4749V57.4748ZM22.0778 56.8271C21.3178 56.4083 20.1756 55.9519 19.1938 55.7631C17.9767 55.5282 18.0909 57.4374 18.1425 58.576C18.1831 59.4779 18.648 60.4313 18.8501 61.0301C18.9451 61.3098 18.9663 61.6066 19.2034 61.6621C19.6224 61.7606 21.0049 61.2031 21.3991 60.9863C22.2322 60.5283 22.8786 59.8008 23.5862 59.3123C23.5955 59.0745 23.6044 58.837 23.6138 58.5992C23.1883 58.3858 22.6967 58.2338 22.0722 58.2063C22.4958 57.9911 23.1191 57.9943 23.5052 57.7386C23.5087 57.6434 23.5128 57.5486 23.5161 57.4541C22.8111 57.3998 22.5425 57.0832 22.0778 56.8271V56.8271ZM14.8173 55.4968C14.1863 56.1429 16.5866 57.0231 17.3512 57.0707C17.3468 56.6617 17.582 56.2767 17.5348 55.9834C16.6268 55.8228 15.4339 55.9288 14.8171 55.4968H14.8173ZM22.5892 55.8002C22.586 55.8633 22.5045 55.8404 22.4913 55.8919C23.3029 56.5316 23.9059 56.6638 25.0107 56.6086C25.5089 56.2441 25.9507 55.8176 26.4694 55.476C25.2751 55.5836 23.7718 56.3317 22.5892 55.8002ZM29.7228 57.9818C29.6887 57.264 29.5017 55.7885 29.0619 55.5303C28.1387 54.9866 26.4977 56.6273 25.8025 56.8778C25.8781 57.0972 26.003 57.2711 26.0124 57.5518C26.4237 57.4499 26.9244 57.5195 27.2807 57.6964C26.8688 57.7428 26.4117 57.7398 26.1392 57.9375C26.0392 58.2287 26.1637 58.6255 26.0972 59.0301C27.0752 59.3084 28.1924 59.4565 29.4288 59.4931C29.6691 59.1774 29.7511 58.5768 29.7226 57.9816L29.7228 57.9818ZM13.7552 56.1217C13.5572 55.9792 12.2169 54.2207 12.0334 54.2937C9.60829 55.2582 7.34072 56.9261 5.31414 58.5033C7.24628 62.684 8.02627 67.806 8.16391 72.7425C10.3771 73.7866 12.3211 75.2915 15.3244 75.4485C14.9768 72.9688 14.6593 70.7565 14.4622 68.422C13.7076 68.101 12.6251 68.4364 11.9189 68.3223C11.9131 67.4643 12.9976 67.9463 13.0878 67.3695C13.1558 66.933 12.4909 66.9 12.7074 66.2125C13.2597 66.415 13.5495 66.8617 14.1382 67.0298C14.6763 65.8428 14.1308 63.7427 14.2081 62.7507C14.2228 62.5644 14.3005 61.7189 14.7141 61.8671C15.0803 61.9983 14.6933 64.1162 14.7333 65.0552C14.7699 65.9203 14.6296 66.7571 14.9771 67.3003C17.8793 66.9017 20.8283 66.6442 23.9683 66.5575C23.2775 66.2585 22.457 65.9758 21.5572 65.4644C21.0693 65.1871 19.5317 64.6101 19.3909 64.1429C19.1665 63.3985 19.9801 63.0018 20.1193 62.3635C18.6544 63.1695 18.3685 61.5914 18.022 60.4736C17.7081 59.4611 17.5292 58.7047 17.4523 58.1208C16.1905 57.5141 14.8412 56.8996 13.7552 56.1217V56.1217ZM28.441 54.5064C30.4617 53.5184 30.8258 58.1993 30.0337 59.7072C30.1561 60.1569 30.5773 60.329 30.749 60.7334C29.6215 62.7704 28.3692 64.672 27.2186 66.6848C28.0745 66.1474 29.2969 66.5887 30.3041 66.1868C30.6722 66.0398 30.9386 65.1901 31.2174 64.5102C31.9841 62.6396 32.7887 60.2814 33.147 58.4963C33.2278 58.0897 33.4482 57.2035 33.3989 56.8414C33.3107 56.1933 32.4388 55.7127 31.9952 55.312C31.178 54.5716 30.6635 53.9205 29.8109 53.2283C29.4655 53.7424 28.7237 54.088 28.441 54.5064V54.5064ZM9.134 36.4364C8.1709 37.5044 8.37255 39.5065 8.4892 40.9306C10.2297 39.8262 12.5394 41.0176 12.5175 42.8957C13.3484 42.8733 12.8279 41.8489 12.6777 41.1892C12.1866 39.034 13.5053 36.6926 12.7375 34.7217C11.247 34.8359 10.0224 35.4498 9.134 36.4364V36.4364ZM16.0231 30.2359C13.8437 30.8589 11.05 32.456 10.1545 34.4307C10.8481 34.329 11.3293 33.9763 12.0135 33.9327C12.2723 33.9158 12.6109 34.0419 12.908 33.9674C13.5002 33.8193 13.9998 32.4803 14.4467 31.9821C14.8821 31.4955 15.4058 31.2876 15.7641 30.844C15.9941 30.732 16.3344 30.74 16.3475 30.3913C16.2477 30.2837 16.1425 30.2017 16.0231 30.2359V30.2359ZM27.3695 30.8218C25.1072 29.5349 21.2777 28.5667 18.8713 29.7762C16.9295 30.7529 14.3047 32.3682 13.4096 34.4152C14.2456 36.391 13.162 38.201 13.0929 40.2066C13.0562 41.2736 13.5911 42.2054 13.6321 43.3671C13.3458 43.8433 12.472 43.9018 11.8669 43.8692C11.6634 42.8415 11.307 41.6863 10.2573 41.5703C8.77234 41.4065 7.68682 42.6459 7.61914 43.9411C7.53922 45.4642 8.77916 47.9887 10.5366 47.8136C11.2151 47.7458 11.3823 47.0596 12.1217 47.0667C12.5226 47.8733 11.5034 48.1266 11.3984 48.7035C11.3711 48.8525 11.4831 49.435 11.5479 49.7082C11.8671 51.038 12.5787 52.7593 13.2791 53.772C14.1679 55.0566 15.9147 55.2499 17.7936 55.3758C18.1291 54.6468 19.3653 54.7069 20.1709 54.8977C19.2055 54.512 18.308 53.5773 17.5642 52.75C16.7099 51.8008 15.8445 50.7825 15.8008 49.5417C17.4154 51.8004 18.7494 53.7734 21.685 54.7667C23.9066 55.5182 26.501 54.4224 28.2076 53.2136C28.9159 52.7112 29.3387 51.914 29.8421 51.1844C31.7256 48.4518 32.6047 44.5514 32.4116 40.7714C32.3321 39.2121 32.3354 37.6585 31.8169 36.6097C31.2747 35.5127 29.441 34.5316 28.3676 35.5237C28.1687 34.4572 29.2602 33.7972 30.5423 34.1814C29.6283 32.9909 28.6689 31.5613 27.3695 30.8218V30.8218ZM31.5844 65.9991C33.3524 65.1129 36.6554 63.6136 37.7639 66.0025C38.1729 66.883 38.6526 68.3714 38.8646 69.2805C39.1636 70.5627 38.5402 73.2582 37.2329 73.6886C36.0787 74.0686 34.7315 74.0457 33.341 73.7637C33.1773 73.6263 32.9949 73.387 32.8674 73.1374C31.8746 73.0986 30.9447 73.1914 30.1603 73.6028C30.2347 74.3432 29.738 74.4621 29.2724 74.6146C28.9272 75.9949 29.9631 77.7976 29.7151 79.0562C29.5383 79.9528 28.4444 80.0914 27.6402 80.2592C27.614 80.7574 27.6756 81.1734 27.7303 81.5949C27.5467 82.2782 26.7219 82.667 25.9403 82.7623C23.3701 83.0736 19.4668 83.2138 16.9944 82.317C16.3045 80.6101 15.7608 78.534 15.1861 76.5855C12.7746 76.8453 10.8241 75.5361 8.98552 74.6787C8.34894 74.381 7.46804 74.2169 7.23054 73.706C6.99987 73.211 7.09413 72.263 7.03694 71.3671C6.89144 69.0796 6.76675 66.873 6.16776 64.5307C5.89879 63.4796 5.42974 62.5519 5.10271 61.5392C4.8005 60.6006 4.27252 59.4405 4.13454 58.5045C3.93045 57.1173 5.22565 57.04 6.05391 56.4388C7.3346 55.5094 8.33967 54.9951 9.72634 54.1561C10.1371 53.9074 11.3755 53.2787 11.5165 52.9889C11.7965 52.4147 11.0357 51.605 10.8323 51.1548C10.5105 50.443 10.3428 49.8382 10.2966 49.1356C9.1333 48.9504 8.25153 48.252 7.71882 47.4649C6.83757 46.1621 6.22635 43.7516 6.98885 41.9179C7.04866 41.7736 7.34702 41.4897 7.39109 41.268C7.47766 40.8313 7.22757 40.2504 7.21218 39.786C7.13208 37.403 7.61197 35.3498 9.20273 34.6309C9.84858 32.0363 12.16 31.1737 14.3379 29.8843C15.152 29.4023 16.0493 29.0943 16.9762 28.7504C20.3008 27.5166 25.4015 27.7489 28.1609 29.8534C29.3309 30.7458 31.2009 32.6301 31.8699 33.9942C33.6367 37.5956 33.5112 43.6149 32.2756 47.9957C32.1094 48.5841 31.8685 49.4486 31.532 50.1553C31.2975 50.6486 30.5684 51.6359 30.6568 52.0715C30.748 52.5218 32.3193 53.7249 32.656 54.0524C33.2628 54.6425 34.4153 55.4259 34.5085 56.1707C34.6089 56.9631 34.1623 58.0472 33.9358 58.8123C33.1801 61.3646 32.4421 63.7238 31.5844 65.9991" fill="#484848"/>
<path d="M19.7899 48.3322C19.8858 48.2035 20.4131 48.0081 21.1509 48.3663C21.1509 48.3663 20.2765 48.513 20.3494 49.9835L19.9851 49.9098C19.9849 49.9098 19.6082 48.5768 19.7899 48.3322" fill="#F5F5F5"/>
<path d="M26.1789 60.969C26.1789 61.0762 26.1367 61.179 26.0615 61.2548C25.9864 61.3305 25.8845 61.3731 25.7782 61.3731C25.672 61.3731 25.5701 61.3305 25.4949 61.2548C25.4198 61.179 25.3776 61.0762 25.3776 60.969C25.3776 60.8619 25.4198 60.7591 25.4949 60.6833C25.5701 60.6076 25.672 60.565 25.7782 60.565C25.8845 60.565 25.9864 60.6076 26.0615 60.6833C26.1367 60.7591 26.1789 60.8619 26.1789 60.969V60.969ZM26.5797 62.8429C26.5797 62.9501 26.5374 63.053 26.4622 63.1287C26.3869 63.2045 26.285 63.2471 26.1786 63.247C26.0723 63.247 25.9703 63.2044 25.8952 63.1285C25.82 63.0526 25.7778 62.9498 25.7779 62.8426C25.7779 62.7353 25.8202 62.6325 25.8954 62.5568C25.9706 62.481 26.0726 62.4385 26.1789 62.4385C26.2852 62.4386 26.3871 62.4812 26.4623 62.557C26.5374 62.6329 26.5796 62.7357 26.5795 62.8429" fill="#1D1919"/>
<path d="M68.5826 46.4035C68.1728 46.4554 67.8243 46.5069 67.5375 46.5587C67.2122 46.619 66.8891 46.6913 66.5691 46.7757C66.1487 46.8894 65.8797 47.0913 65.7622 47.3806C65.6443 47.6703 65.5854 48.0012 65.5854 48.3735V60.5038C65.5854 61.6209 65.3624 62.6447 64.9166 63.5753C64.4708 64.506 63.8584 65.2868 63.0798 65.9174C62.2907 66.5382 61.4095 67.0061 60.4361 67.3213C59.4623 67.6366 58.4224 67.7945 57.3159 67.7945C55.3995 67.7945 53.8549 67.3296 52.6814 66.3994C51.508 65.4693 50.9216 64.1933 50.9216 62.5708C50.9216 61.6098 51.1905 60.8142 51.7285 60.1837C52.2664 59.5534 53.0067 59.2382 53.9495 59.2382C54.8409 59.2382 55.5503 59.5017 56.0783 60.0287C56.6061 60.556 56.8698 61.2068 56.8698 61.9817C56.8698 62.6432 56.6416 63.2552 56.186 63.8185C55.7299 64.3818 55.2098 64.9012 54.6256 65.3763V65.5778C54.7182 65.7846 54.9184 65.9603 55.2269 66.1049C55.5347 66.2497 55.8483 66.3218 56.1671 66.3218C57.4 66.3218 58.3684 65.8772 59.0723 64.9878C59.7762 64.0986 60.1284 62.754 60.1284 60.9544V48.5287C60.1284 48.1564 60.0718 47.8462 59.9584 47.598C59.8448 47.3499 59.5719 47.1324 59.14 46.9465C58.831 46.812 58.4579 46.6982 58.0202 46.6053C57.5826 46.5122 57.2194 46.445 56.9313 46.4035V45.1946H68.5824V46.4035H68.5826ZM86.8123 63.4854C86.4536 64.0744 86.021 64.63 85.5136 65.152C85.0065 65.6737 84.4297 66.1208 83.784 66.4927C83.0974 66.8855 82.4031 67.1823 81.7015 67.3839C80.9995 67.5855 80.1924 67.6862 79.2804 67.6862C77.7637 67.6862 76.4544 67.4692 75.3533 67.0352C74.2517 66.6012 73.3421 66.0176 72.6249 65.2838C71.9077 64.5501 71.3722 63.6847 71.0187 62.6873C70.6653 61.6904 70.4885 60.608 70.4885 59.4401C70.4885 58.3862 70.6807 57.3761 71.0649 56.4097C71.4435 55.4526 71.999 54.5769 72.7019 53.829C73.3988 53.0953 74.2776 52.5009 75.3381 52.0463C76.3988 51.5918 77.5847 51.3643 78.8963 51.3643C80.3309 51.3643 81.5093 51.5401 82.4316 51.8912C83.354 52.2427 84.1173 52.7284 84.7219 53.3484C85.306 53.9374 85.7312 54.6323 85.9977 55.433C86.2642 56.234 86.3973 57.0737 86.3973 57.952V58.9595H76.0067C76.0067 61.078 76.4115 62.6903 77.2211 63.7958C78.0306 64.9016 79.3167 65.4543 81.0791 65.4543C82.0423 65.4543 82.9082 65.1885 83.6768 64.6561C84.4454 64.1238 85.1013 63.4498 85.6443 62.6332L86.8123 63.4854V63.4854ZM80.9407 57.5952C80.9407 56.9753 80.9099 56.3395 80.8486 55.6887C80.7872 55.0379 80.6794 54.5053 80.5255 54.0921C80.3514 53.6064 80.1128 53.2395 79.811 52.9916C79.5086 52.7436 79.1268 52.6195 78.6656 52.6195C77.8767 52.6195 77.2464 53.0224 76.7751 53.8284C76.3038 54.6344 76.0476 55.9109 76.0065 57.6571L80.9407 57.5952V57.5952ZM108.578 67.1899H99.3396V66.0583C99.5342 66.0379 99.77 66.0118 100.047 65.9807C100.323 65.9497 100.533 65.8984 100.677 65.8257C100.892 65.7123 101.046 65.5467 101.138 65.3298C101.23 65.1129 101.276 64.7926 101.276 64.3688V57.1146C101.276 56.0605 101.083 55.2676 100.698 54.7351C100.313 54.203 99.745 53.9369 98.9947 53.9369C98.5837 53.9369 98.2012 53.9988 97.8468 54.123C97.4924 54.2469 97.1455 54.4279 96.8062 54.6654C96.5082 54.8723 96.2693 55.084 96.0895 55.3011C95.9331 55.4884 95.7815 55.6797 95.6348 55.8748V64.1984C95.6348 64.5601 95.686 64.8626 95.7885 65.1051C95.8908 65.3481 96.0598 65.5315 96.2957 65.6554C96.4594 65.7485 96.6647 65.8314 96.9104 65.9033C97.1563 65.976 97.397 66.0273 97.6329 66.0585V67.1899H88.2875V66.0583C88.547 66.0374 88.8058 66.009 89.0636 65.973C89.3249 65.9368 89.5481 65.8878 89.7324 65.8257C90.0603 65.7123 90.2857 65.5365 90.4089 65.2987C90.5316 65.0612 90.5934 64.7511 90.5934 64.3686V55.3469C90.5934 55.0268 90.5112 54.7115 90.3473 54.4016C90.1834 54.0916 89.9683 53.8385 89.702 53.642C89.5173 53.518 89.2843 53.4149 89.0024 53.332C88.7205 53.2494 88.4108 53.1926 88.0726 53.1616V52.03L95.4045 51.6271L95.635 51.8597V54.1071H95.6965C96.0435 53.7955 96.3919 53.4855 96.7417 53.1771C97.1514 52.8156 97.5306 52.521 97.8791 52.2935C98.2579 52.0454 98.7553 51.8338 99.37 51.6579C99.9847 51.4823 100.641 51.3944 101.337 51.3944C103.008 51.3944 104.26 51.8726 105.096 52.8283C105.931 53.7842 106.348 55.0527 106.348 56.6338V64.2293C106.348 64.6118 106.404 64.9167 106.517 65.1437C106.63 65.3712 106.84 65.552 107.147 65.6862C107.311 65.7589 107.514 65.8312 107.754 65.9031C107.995 65.9758 108.269 66.0271 108.577 66.0583V67.1897L108.578 67.1899ZM129.728 67.1899H122.483C121.592 65.6132 120.778 64.2755 120.041 63.178C119.354 62.1538 118.658 61.1358 117.952 60.1242L117.047 60.8967V64.2758C117.047 64.648 117.1 64.9527 117.208 65.1903C117.316 65.428 117.523 65.6039 117.831 65.7173C118.015 65.8001 118.23 65.8725 118.476 65.9342C118.722 65.9959 118.968 66.0379 119.214 66.0582V67.1897H109.669V66.0582C109.927 66.0376 110.185 66.0091 110.442 65.9728C110.7 65.9367 110.927 65.8874 111.123 65.8255C111.453 65.712 111.678 65.5363 111.797 65.2984C111.915 65.061 111.974 64.7508 111.974 64.3684V47.0852C111.974 46.7441 111.9 46.3903 111.751 46.0235C111.603 45.6568 111.385 45.3803 111.098 45.1942C110.904 45.0702 110.611 44.967 110.222 44.8842C109.833 44.8014 109.479 44.7499 109.161 44.7291V43.5976L116.816 43.1946L117.046 43.4426V59.4387C117.804 58.7565 118.656 57.9661 119.602 57.0672C120.549 56.1684 121.309 55.4243 121.882 54.8353C122.221 54.4841 122.407 54.218 122.443 54.0372C122.479 53.8565 122.497 53.7454 122.497 53.7039C122.497 53.5178 122.335 53.3628 122.012 53.239C121.688 53.115 121.201 53.0062 120.551 52.9133V51.8128H128.36V52.8824C127.336 53.172 126.556 53.4432 126.019 53.6962C125.482 53.9494 124.896 54.2879 124.262 54.7113C123.845 54.9886 123.438 55.2813 123.043 55.5885C122.649 55.8943 122.197 56.2753 121.686 56.7314C122.689 58.1984 123.614 59.556 124.463 60.8059C125.313 62.0558 126.202 63.3776 127.133 64.7719C127.45 65.2575 127.844 65.5829 128.315 65.7479C128.786 65.9135 129.257 66.0169 129.728 66.058V67.1899H129.728ZM139.611 67.1899H129.897V66.0583C130.163 66.0379 130.424 66.0118 130.681 65.9807C130.937 65.9497 131.157 65.8984 131.341 65.8257C131.669 65.7019 131.9 65.5236 132.033 65.291C132.166 65.0584 132.233 64.7513 132.233 64.3686V55.3469C132.233 54.9854 132.151 54.6676 131.987 54.3937C131.823 54.1203 131.618 53.9004 131.372 53.735C131.188 53.6111 130.909 53.4923 130.535 53.3787C130.16 53.2649 129.82 53.1925 129.512 53.1618V52.03L137.044 51.6271L137.275 51.8597V64.1672C137.275 64.5287 137.352 64.8361 137.505 65.0896C137.659 65.3428 137.88 65.5314 138.166 65.6552C138.371 65.7483 138.597 65.8312 138.843 65.9031C139.089 65.9758 139.345 66.0271 139.611 66.0583V67.1897V67.1899ZM137.367 46.0473C137.367 46.8328 137.067 47.5017 136.468 48.0545C135.868 48.6074 135.159 48.8839 134.339 48.8839C133.509 48.8839 132.794 48.6074 132.194 48.0545C131.595 47.5017 131.295 46.8324 131.295 46.0473C131.295 45.2619 131.595 44.5903 132.194 44.0321C132.794 43.474 133.509 43.1949 134.339 43.1949C135.169 43.1949 135.881 43.4741 136.475 44.0321C137.069 44.5903 137.367 45.2619 137.367 46.0473V46.0473ZM161.315 67.1899H152.077V66.0583C152.271 66.0379 152.507 66.0118 152.784 65.9807C153.06 65.9497 153.27 65.8984 153.414 65.8257C153.629 65.7123 153.783 65.5467 153.875 65.3298C153.967 65.1129 154.013 64.7926 154.013 64.3688V57.1146C154.013 56.0605 153.821 55.2676 153.435 54.7351C153.05 54.203 152.482 53.9369 151.732 53.9369C151.321 53.9369 150.939 53.9988 150.584 54.123C150.23 54.2469 149.883 54.4279 149.543 54.6654C149.245 54.8723 149.006 55.084 148.827 55.3011C148.67 55.4884 148.519 55.6797 148.372 55.8748V64.1984C148.372 64.5601 148.423 64.8626 148.526 65.1051C148.628 65.3481 148.797 65.5315 149.033 65.6554C149.197 65.7485 149.402 65.8314 149.648 65.9033C149.894 65.976 150.134 66.0273 150.37 66.0585V67.1899H141.025V66.0583C141.284 66.0374 141.543 66.009 141.801 65.973C142.062 65.9368 142.285 65.8878 142.47 65.8257C142.798 65.7123 143.023 65.5365 143.146 65.2987C143.269 65.0612 143.331 64.7511 143.331 64.3686V55.3469C143.331 55.0268 143.248 54.7115 143.085 54.4016C142.921 54.0916 142.705 53.8385 142.439 53.642C142.255 53.518 142.022 53.4149 141.74 53.332C141.458 53.2494 141.148 53.1926 140.81 53.1616V52.03L148.142 51.6271L148.372 51.8597V54.1071H148.434C148.781 53.7955 149.129 53.4855 149.479 53.1771C149.889 52.8156 150.268 52.521 150.616 52.2935C150.995 52.0454 151.492 51.8338 152.107 51.6579C152.722 51.4823 153.378 51.3944 154.075 51.3944C155.745 51.3944 156.998 51.8726 157.833 52.8283C158.668 53.7842 159.085 55.0527 159.085 56.6338V64.2293C159.085 64.6118 159.141 64.9167 159.254 65.1437C159.367 65.3712 159.577 65.552 159.885 65.6862C160.048 65.7589 160.251 65.8312 160.492 65.9031C160.732 65.9758 161.007 66.0271 161.314 66.0583V67.1897L161.315 67.1899ZM169.861 67.717C168.873 67.7181 167.892 67.5691 166.948 67.2753C166 66.9807 165.265 66.6684 164.743 66.3375L164.281 67.3915H163.083L162.883 61.6096H164.005C164.159 62.0745 164.415 62.5992 164.773 63.1829C165.132 63.7667 165.542 64.2912 166.003 64.7564C166.485 65.2213 167.035 65.6141 167.656 65.9345C168.276 66.255 168.939 66.4151 169.646 66.4151C170.578 66.4151 171.273 66.2317 171.729 65.8649C172.185 65.498 172.413 64.9323 172.413 64.1676C172.413 63.7543 172.31 63.4134 172.105 63.1445C171.9 62.8759 171.618 62.6432 171.26 62.4469C170.86 62.2403 170.422 62.0646 169.946 61.9196C169.469 61.7754 168.883 61.5997 168.186 61.3926C167.489 61.1861 166.892 60.9766 166.395 60.7648C165.898 60.5532 165.383 60.2198 164.851 59.765C164.389 59.362 164.02 58.8766 163.744 58.3082C163.467 57.74 163.329 57.0631 163.329 56.2774C163.329 54.8206 163.936 53.6425 165.151 52.7434C166.365 51.8443 167.956 51.3948 169.923 51.3948C170.855 51.3948 171.714 51.4906 172.497 51.6817C173.281 51.8731 173.94 52.0821 174.473 52.3096L174.796 51.3951H175.964L176.21 56.6807H175.134C174.775 55.6063 174.16 54.679 173.289 53.8986C172.418 53.1184 171.481 52.7281 170.476 52.7281C169.687 52.7281 169.067 52.8935 168.616 53.2242C168.166 53.5551 167.94 54.0147 167.94 54.6037C167.94 55.3892 168.27 55.9577 168.93 56.3088C169.589 56.6605 170.513 56.9908 171.699 57.3008C173.53 57.7763 174.87 58.4246 175.72 59.2461C176.569 60.0678 176.993 61.114 176.993 62.3849C176.993 64.0797 176.335 65.3922 175.018 66.322C173.701 67.252 171.982 67.717 169.861 67.717H169.861Z" fill="#5A5A5A"/>
</g>
<defs>
<clipPath id="clip0_14_16">
<rect width="178" height="55" fill="white" transform="translate(0 28)"/>
</clipPath>
</defs>
</svg>
