<svg width="88" height="143" viewBox="0 0 88 143" fill="none" xmlns="http://www.w3.org/2000/svg"><path d="m27.19 133-5.166-5.724V133h-1.638v-12.546h1.638v5.814l5.184-5.814h2.07l-5.688 6.282L29.332 133H27.19Zm12.971-5.31c0 .312-.018.642-.054.99h-7.884c.06.972.39 1.734.99 2.286.612.54 1.35.81 2.214.81.708 0 1.296-.162 1.764-.486.48-.336.816-.78 1.008-1.332h1.764a4.284 4.284 0 0 1-1.584 2.322c-.792.588-1.776.882-2.952.882-.936 0-1.776-.21-2.52-.63a4.492 4.492 0 0 1-1.728-1.782c-.42-.78-.63-1.68-.63-2.7 0-1.02.204-1.914.612-2.682a4.254 4.254 0 0 1 1.71-1.764c.744-.42 1.596-.63 2.556-.63.936 0 1.764.204 2.484.612.72.408 1.272.972 1.656 1.692.396.708.594 1.512.594 2.412Zm-1.692-.342c0-.624-.138-1.158-.414-1.602a2.605 2.605 0 0 0-1.134-1.026c-.468-.24-.99-.36-1.566-.36-.828 0-1.536.264-2.124.792-.576.528-.906 1.26-.99 2.196h6.228Zm5.492-2.61a3.16 3.16 0 0 1 1.224-1.314c.54-.312 1.194-.468 1.962-.468v1.692h-.431c-1.837 0-2.755.996-2.755 2.988V133h-1.637v-9.864h1.638v1.602Zm4.465 3.294c0-1.008.204-1.89.612-2.646a4.446 4.446 0 0 1 1.674-1.782c.72-.42 1.518-.63 2.394-.63.864 0 1.614.186 2.25.558.636.372 1.11.84 1.422 1.404v-1.8h1.656V133h-1.656v-1.836c-.324.576-.81 1.056-1.458 1.44-.636.372-1.38.558-2.232.558-.876 0-1.668-.216-2.376-.648-.708-.432-1.266-1.038-1.674-1.818-.408-.78-.612-1.668-.612-2.664Zm8.352.018c0-.744-.15-1.392-.45-1.944a3.098 3.098 0 0 0-1.224-1.26 3.211 3.211 0 0 0-1.674-.45c-.612 0-1.17.144-1.674.432a3.134 3.134 0 0 0-1.206 1.26c-.3.552-.45 1.2-.45 1.944 0 .756.15 1.416.45 1.98.3.552.702.978 1.206 1.278a3.314 3.314 0 0 0 1.674.432c.612 0 1.17-.144 1.674-.432.516-.3.924-.726 1.224-1.278.3-.564.45-1.218.45-1.962Zm7.916 5.112c-.756 0-1.434-.126-2.034-.378-.6-.264-1.074-.624-1.422-1.08a2.92 2.92 0 0 1-.576-1.602h1.692c.048.492.276.894.684 1.206.42.312.966.468 1.638.468.624 0 1.116-.138 1.476-.414.36-.276.54-.624.54-1.044 0-.432-.192-.75-.576-.954-.384-.216-.978-.426-1.782-.63a14.665 14.665 0 0 1-1.8-.576 3.418 3.418 0 0 1-1.188-.882c-.324-.396-.486-.912-.486-1.548 0-.504.15-.966.45-1.386.3-.42.726-.75 1.278-.99.552-.252 1.182-.378 1.89-.378 1.092 0 1.974.276 2.646.828.672.552 1.032 1.308 1.08 2.268h-1.638c-.036-.516-.246-.93-.63-1.242-.372-.312-.876-.468-1.512-.468-.588 0-1.056.126-1.404.378-.348.252-.522.582-.522.99 0 .324.102.594.306.81.216.204.48.372.792.504.324.12.768.258 1.332.414.708.192 1.284.384 1.728.576.444.18.822.456 1.134.828.324.372.492.858.504 1.458 0 .54-.15 1.026-.45 1.458-.3.432-.726.774-1.278 1.026-.54.24-1.164.36-1.872.36Z" fill="#A0A0A0"/><g clip-path="url(#a)"><path d="M88 87.997a.003.003 0 0 1-.003.003H.003A.003.003 0 0 1 0 87.997V.003L.003 0h87.995L88 .003v87.994Z" fill="#fff"/><path d="M86.531 86.53c0 .002-.001.003-.003.003H1.468c-.002 0-.003-.001-.003-.003V1.47c0-.002.001-.003.003-.003H86.53c.002 0 .003.001.003.003v85.06Z" fill="#A3A3A3"/><path d="M24.688 67.114c0 .064.038.154.083.199l1.456 1.456a.324.324 0 0 0 .198.082h4.983a.325.325 0 0 0 .199-.082l1.456-1.456a.324.324 0 0 0 .082-.2V51.305c0-.064.039-.153.085-.197l6.33-6.046a.095.095 0 0 1 .15.016l15.994 23.679a.248.248 0 0 0 .182.097h7.059a.21.21 0 0 0 .17-.104l1.28-2.482a.214.214 0 0 0-.012-.2L45.675 38.952a.145.145 0 0 1 .016-.179l17.207-17.127a.322.322 0 0 0 .082-.198v-.316a.682.682 0 0 0-.046-.224l-.992-2.283a.194.194 0 0 0-.163-.107H54.8a.324.324 0 0 0-.198.083L33.229 40.054c-.045.045-.082.03-.082-.034V20.338a.342.342 0 0 0-.08-.202l-1.428-1.532a.307.307 0 0 0-.197-.086h-5.017a.307.307 0 0 0-.196.086l-1.462 1.579a.341.341 0 0 0-.08.202v46.729h.001Z" fill="#fff"/></g><defs><clipPath id="a"><path fill="#fff" d="M0 0h88v88H0z"/></clipPath></defs></svg>