<svg width="96" height="148" viewBox="0 0 96 148" fill="none" xmlns="http://www.w3.org/2000/svg"><path d="M15.364 138.126c-.828 0-1.572-.144-2.232-.432-.648-.3-1.158-.708-1.53-1.224a3.178 3.178 0 0 1-.576-1.818h1.746c.06.588.3 1.086.72 1.494.432.396 1.056.594 1.872.594.78 0 1.392-.192 1.836-.576.456-.396.684-.9.684-1.512 0-.48-.132-.87-.396-1.17a2.53 2.53 0 0 0-.99-.684c-.396-.156-.93-.324-1.602-.504-.828-.216-1.494-.432-1.998-.648a3.318 3.318 0 0 1-1.278-1.008c-.348-.468-.522-1.092-.522-1.872 0-.684.174-1.29.522-1.818.348-.528.834-.936 1.458-1.224.636-.288 1.362-.432 2.178-.432 1.176 0 2.136.294 2.88.882.756.588 1.182 1.368 1.278 2.34h-1.8c-.06-.48-.312-.9-.756-1.26-.444-.372-1.032-.558-1.764-.558-.684 0-1.242.18-1.674.54-.432.348-.648.84-.648 1.476 0 .456.126.828.378 1.116.264.288.582.51.954.666.384.144.918.312 1.602.504.828.228 1.494.456 1.998.684.504.216.936.558 1.296 1.026.36.456.54 1.08.54 1.872 0 .612-.162 1.188-.486 1.728-.324.54-.804.978-1.44 1.314-.636.336-1.386.504-2.25.504Zm19.726-9.99L32.012 138H30.32l-2.375-7.83-2.377 7.83h-1.692l-3.096-9.864h1.674l2.268 8.28 2.448-8.28h1.674l2.394 8.298 2.233-8.298h1.62Zm1.014 4.896c0-1.008.204-1.89.612-2.646a4.446 4.446 0 0 1 1.674-1.782c.72-.42 1.518-.63 2.394-.63.864 0 1.614.186 2.25.558.636.372 1.11.84 1.422 1.404v-1.8h1.656V138h-1.656v-1.836c-.324.576-.81 1.056-1.458 1.44-.636.372-1.38.558-2.232.558-.876 0-1.668-.216-2.376-.648-.708-.432-1.266-1.038-1.674-1.818-.408-.78-.612-1.668-.612-2.664Zm8.352.018c0-.744-.15-1.392-.45-1.944a3.098 3.098 0 0 0-1.224-1.26 3.211 3.211 0 0 0-1.674-.45c-.612 0-1.17.144-1.674.432a3.134 3.134 0 0 0-1.206 1.26c-.3.552-.45 1.2-.45 1.944 0 .756.15 1.416.45 1.98.3.552.702.978 1.206 1.278a3.314 3.314 0 0 0 1.674.432c.612 0 1.17-.144 1.674-.432.516-.3.924-.726 1.224-1.278.3-.564.45-1.218.45-1.962Zm8.492-5.076c.852 0 1.596.186 2.232.558.648.372 1.128.84 1.44 1.404v-1.8h1.656v10.08c0 .9-.192 1.698-.576 2.394a4.076 4.076 0 0 1-1.656 1.656c-.708.396-1.536.594-2.484.594-1.296 0-2.376-.306-3.24-.918-.864-.612-1.374-1.446-1.53-2.502h1.62c.18.6.552 1.08 1.116 1.44.564.372 1.242.558 2.034.558.9 0 1.632-.282 2.196-.846.576-.564.864-1.356.864-2.376v-2.07c-.324.576-.804 1.056-1.44 1.44-.636.384-1.38.576-2.232.576a4.564 4.564 0 0 1-2.394-.648c-.708-.432-1.266-1.038-1.674-1.818-.408-.78-.612-1.668-.612-2.664 0-1.008.204-1.89.612-2.646a4.446 4.446 0 0 1 1.674-1.782c.72-.42 1.518-.63 2.394-.63Zm3.672 5.076c0-.744-.15-1.392-.45-1.944a3.098 3.098 0 0 0-1.224-1.26 3.211 3.211 0 0 0-1.674-.45c-.612 0-1.17.144-1.674.432a3.134 3.134 0 0 0-1.206 1.26c-.3.552-.45 1.2-.45 1.944 0 .756.15 1.416.45 1.98.3.552.702.978 1.206 1.278a3.314 3.314 0 0 0 1.674.432c.612 0 1.17-.144 1.674-.432.516-.3.924-.726 1.224-1.278.3-.564.45-1.218.45-1.962Zm8.492-5.076c.852 0 1.596.186 2.232.558.648.372 1.128.84 1.44 1.404v-1.8h1.656v10.08c0 .9-.192 1.698-.576 2.394a4.076 4.076 0 0 1-1.656 1.656c-.708.396-1.536.594-2.484.594-1.296 0-2.376-.306-3.24-.918-.864-.612-1.374-1.446-1.53-2.502h1.62c.18.6.552 1.08 1.116 1.44.564.372 1.242.558 2.034.558.9 0 1.632-.282 2.196-.846.576-.564.864-1.356.864-2.376v-2.07c-.324.576-.804 1.056-1.44 1.44-.636.384-1.38.576-2.232.576a4.564 4.564 0 0 1-2.394-.648c-.708-.432-1.266-1.038-1.674-1.818-.408-.78-.612-1.668-.612-2.664 0-1.008.204-1.89.612-2.646a4.446 4.446 0 0 1 1.674-1.782c.72-.42 1.518-.63 2.394-.63Zm3.672 5.076c0-.744-.15-1.392-.45-1.944a3.098 3.098 0 0 0-1.224-1.26 3.211 3.211 0 0 0-1.674-.45c-.612 0-1.17.144-1.674.432a3.134 3.134 0 0 0-1.206 1.26c-.3.552-.45 1.2-.45 1.944 0 .756.15 1.416.45 1.98.3.552.702.978 1.206 1.278a3.314 3.314 0 0 0 1.674.432c.612 0 1.17-.144 1.674-.432.516-.3.924-.726 1.224-1.278.3-.564.45-1.218.45-1.962Zm13.424-.36c0 .312-.018.642-.054.99H74.27c.06.972.39 1.734.99 2.286.612.54 1.35.81 2.214.81.708 0 1.296-.162 1.764-.486.48-.336.816-.78 1.008-1.332h1.764a4.284 4.284 0 0 1-1.584 2.322c-.792.588-1.776.882-2.952.882-.936 0-1.776-.21-2.52-.63a4.492 4.492 0 0 1-1.728-1.782c-.42-.78-.63-1.68-.63-2.7 0-1.02.204-1.914.612-2.682a4.254 4.254 0 0 1 1.71-1.764c.744-.42 1.596-.63 2.556-.63.936 0 1.764.204 2.484.612.72.408 1.272.972 1.656 1.692.396.708.594 1.512.594 2.412Zm-1.692-.342c0-.624-.138-1.158-.414-1.602a2.605 2.605 0 0 0-1.134-1.026c-.468-.24-.99-.36-1.566-.36-.828 0-1.536.264-2.124.792-.576.528-.906 1.26-.99 2.196h6.228Zm5.492-2.61a3.16 3.16 0 0 1 1.224-1.314c.54-.312 1.194-.468 1.962-.468v1.692h-.432c-1.836 0-2.754.996-2.754 2.988V138H84.37v-9.864h1.638v1.602Z" fill="#A0A0A0"/><path d="M48 85.722C26.658 85.722 9.277 68.342 9.277 47 9.277 25.659 26.658 8.278 48 8.278c21.34 0 38.722 17.38 38.722 38.722 0 21.341-17.381 38.722-38.722 38.722Z" fill="#A3A3A3"/><path d="M48 9.94c20.472 0 37.116 16.588 37.116 37.116 0 20.472-16.588 37.116-37.116 37.116-20.472 0-37.116-16.589-37.116-37.116C10.884 26.528 27.528 9.939 48 9.939ZM48 6C25.364 6 7 24.42 7 47s18.42 41 41 41 41-18.42 41-41S70.58 6 48 6Z" fill="#6A6A6A"/><path d="M32.8 34.04c-.11 1.357.056 2.768-.055 4.18a33.478 33.478 0 0 1-.557 4.124c-.39 1.953-1.67 3.418-3.396 4.667 3.34 2.116 3.73 5.426 3.953 8.79.111 1.792.056 3.637.278 5.428.167 1.41.668 1.736 2.172 1.79h1.893v4.288c-4.343.705-7.962-.489-8.853-4.07-.279-1.303-.501-2.66-.557-4.016-.111-1.411.056-2.877-.056-4.287-.334-3.908-.835-5.264-4.677-5.427v-4.884l.835-.163c2.116-.108 3.007-.76 3.508-2.768.223-1.14.334-2.279.39-3.473.167-2.225.111-4.504.501-6.729.557-3.202 2.561-4.721 5.958-4.938.946-.055 1.893 0 3.007 0v4.396c-.446.054-.836.108-1.281.108-2.728-.163-2.84.76-3.063 2.985Zm5.29 10.149h-.056c-1.559-.055-2.95 1.14-3.006 2.659-.056 1.574 1.169 2.876 2.728 2.985h.167a2.83 2.83 0 0 0 3.007-2.605v-.163c0-1.574-1.281-2.876-2.84-2.876Zm9.91 0c-1.558-.055-2.839 1.14-2.839 2.605v.27c0 1.683 1.17 2.769 2.951 2.769 1.726 0 2.84-1.086 2.84-2.877-.056-1.682-1.225-2.822-2.951-2.767Zm10.135 0c-1.615-.055-2.951 1.194-3.007 2.767 0 1.574 1.28 2.822 2.895 2.822h.056c1.447.272 2.95-1.14 3.006-2.767.112-1.52-1.336-2.822-2.95-2.822Zm13.975.217c-1.838-.054-2.728-.651-3.23-2.388a17.01 17.01 0 0 1-.5-3.31c-.112-2.063-.112-4.125-.279-6.241-.334-4.884-3.953-6.62-9.243-5.752v4.233h2.116c1.114 0 2.005.434 2.116 1.627.111 1.086.111 2.225.223 3.365.222 2.225.334 4.504.723 6.73.335 1.844 1.615 3.2 3.23 4.286-2.784 1.845-3.62 4.45-3.786 7.38-.056 2.008-.112 4.07-.223 6.079-.111 1.845-.78 2.442-2.673 2.496-.556 0-1.058.054-1.67.108v4.342c1.114 0 2.171.054 3.174 0 3.173-.163 5.122-1.683 5.735-4.722a38.73 38.73 0 0 0 .5-5.046c.112-1.52.112-3.094.28-4.613.222-2.388 1.335-3.365 3.785-3.527.223-.055.446-.055.668-.163v-4.884c-.39.054-.668 0-.946 0Z" fill="#6A6A6A"/></svg>