<svg width="102" height="128" viewBox="0 0 102 128" fill="none" xmlns="http://www.w3.org/2000/svg"><path d="M70.002 57.782c.498-4.146.349-4.754 3.437-4.082l.784.068c2.374.108 5.48-.382 7.305-1.23 3.929-1.822 6.258-4.865 2.384-4.066-8.835 1.823-9.443-1.169-9.443-1.169C83.8 33.46 87.7 15.887 84.333 11.586 75.151-.147 59.256 5.4 58.99 5.545l-.084.015c-1.746-.362-3.7-.578-5.895-.614-3.998-.065-7.032 1.049-9.334 2.794 0 0-28.354-11.682-27.035 14.691.28 5.61 8.041 42.452 17.298 31.324a170.69 170.69 0 0 1 6.653-7.51c1.623 1.08 3.567 1.63 5.606 1.432l.157-.135c-.049.505-.027 1 .064 1.585-2.385 2.664-1.684 3.132-6.452 4.113-4.823.994-1.99 2.764-.14 3.227 2.243.56 7.432 1.355 10.94-3.553l-.14.56c.935.748.872 5.379 1.004 8.687.133 3.309.355 6.396 1.029 8.216.674 1.82 1.47 6.51 7.736 5.166 5.236-1.122 9.24-2.737 9.605-17.761" fill="#6A6A6A"/><path d="M70.002 57.782c.498-4.146.349-4.754 3.437-4.082l.784.068c2.374.108 5.48-.382 7.305-1.23 3.929-1.822 6.258-4.865 2.384-4.066-8.835 1.823-9.443-1.169-9.443-1.169C83.8 33.46 87.7 15.887 84.333 11.586 75.151-.147 59.256 5.4 58.99 5.545l-.084.015c-1.746-.362-3.7-.578-5.895-.614-3.998-.065-7.032 1.049-9.334 2.794 0 0-28.354-11.682-27.035 14.691.28 5.61 8.041 42.452 17.298 31.324a170.69 170.69 0 0 1 6.653-7.51c1.623 1.08 3.567 1.63 5.606 1.432l.157-.135c-.049.505-.027 1 .064 1.585-2.385 2.664-1.684 3.132-6.452 4.113-4.823.994-1.99 2.764-.14 3.227 2.243.56 7.432 1.355 10.94-3.553l-.14.56c.935.748.872 5.379 1.004 8.687.133 3.309.355 6.396 1.029 8.216.674 1.82 1.47 6.51 7.736 5.166 5.236-1.122 9.24-2.737 9.605-17.761" stroke="#6A6A6A" stroke-width="7.925"/><path d="M83.914 48.472c-8.837 1.823-9.444-1.169-9.444-1.169C83.8 33.46 87.7 15.886 84.335 11.585 75.151-.148 59.257 5.4 58.992 5.545l-.085.015c-1.746-.362-3.7-.578-5.896-.614-3.998-.065-7.031 1.048-9.333 2.794 0 0-28.355-11.681-27.036 14.691.28 5.61 8.041 42.452 17.298 31.324 3.384-4.069 6.653-7.51 6.653-7.51 1.623 1.08 3.567 1.63 5.605 1.432l.158-.135c-.049.506-.026 1 .064 1.585-2.385 2.664-1.684 3.132-6.451 4.113-4.824.994-1.99 2.764-.14 3.227 2.243.56 7.432 1.355 10.938-3.553l-.14.56c.935.749 1.59 4.868 1.48 8.603-.11 3.734-.183 6.298.554 8.3.736 2.003 1.47 6.51 7.736 5.166 5.237-1.122 7.95-4.03 8.328-8.88.268-3.45.874-2.94.913-6.022l.486-1.46c.56-4.675.089-6.183 3.315-5.482l.784.07c2.375.107 5.482-.383 7.306-1.23 3.928-1.823 6.257-4.867 2.385-4.067Z" fill="#7C7C7C"/><path d="M51.147 51.15c-.243 8.699.061 17.458.912 19.587.852 2.129 2.675 6.27 8.942 4.927 5.236-1.123 7.141-3.295 7.968-8.09.609-3.528 1.782-13.326 1.933-15.333M43.635 7.545S15.26-4.052 16.579 22.321c.28 5.61 8.042 42.453 17.3 31.325 3.382-4.07 6.441-7.262 6.441-7.262M58.959 5.428c-.982.308 15.783-6.129 25.312 6.046 3.365 4.301-.535 21.875-9.865 35.72" stroke="#fff" stroke-width="2.642" stroke-linecap="round" stroke-linejoin="round"/><path d="M74.41 47.194s.608 2.993 9.445 1.17c3.872-.8 1.542 2.243-2.385 4.067-3.223 1.495-10.448 1.879-10.566-.188-.304-5.333 3.803-3.712 3.506-5.049-.268-1.203-2.104-2.384-3.319-5.33-1.06-2.57-14.545-22.283 3.74-19.355.67-.139-4.77-17.392-21.88-17.672-17.108-.28-16.547 21.038-16.547 21.038" stroke="#fff" stroke-width="2.642" stroke-linecap="round" stroke-linejoin="bevel"/><path d="M46.356 49.016c-2.385 2.664-1.684 3.132-6.451 4.113-4.824.995-1.99 2.764-.14 3.227 2.243.56 7.432 1.355 10.938-3.554 1.068-1.495-.006-3.88-1.473-4.488-.709-.294-1.656-.661-2.874.702v0Z" stroke="#fff" stroke-width="2.642" stroke-linecap="round" stroke-linejoin="round"/><path d="M46.198 48.97c-.24-1.566.515-3.43 1.324-5.611 1.216-3.272 4.022-6.545 1.777-16.924-1.673-7.735-12.893-1.61-12.9-.56-.007 1.047.507 5.315-.188 10.284-.907 6.485 4.126 11.97 9.922 11.408" stroke="#fff" stroke-width="2.642" stroke-linecap="round" stroke-linejoin="round"/><path d="M43.53 25.716c-.051.358.655 1.314 1.576 1.442.92.128 1.707-.619 1.757-.977.05-.358-.656-.753-1.577-.88-.92-.13-1.708.058-1.756.415Z" fill="#fff" stroke="#fff" stroke-width=".881"/><path d="M71.535 24.986c.05.358-.655 1.314-1.576 1.441-.92.128-1.708-.618-1.758-.976-.049-.358.657-.753 1.578-.881.92-.128 1.707.058 1.757.416Z" fill="#fff" stroke="#fff" stroke-width=".44"/><path d="M74.827 22.508c.151 2.81-.606 4.723-.701 7.714-.141 4.348 2.073 9.324-1.263 14.306" stroke="#fff" stroke-width="2.642" stroke-linecap="round" stroke-linejoin="round"/><path d="M10.309 109.126c0 1.044-.36 1.914-1.08 2.61-.708.684-1.794 1.026-3.258 1.026H3.559V118H1.92v-12.546h4.05c1.416 0 2.49.342 3.222 1.026.744.684 1.116 1.566 1.116 2.646Zm-4.338 2.286c.912 0 1.584-.198 2.016-.594.432-.396.648-.96.648-1.692 0-1.548-.888-2.322-2.664-2.322H3.559v4.608H5.97Zm10.675 6.75c-.924 0-1.764-.21-2.52-.63a4.58 4.58 0 0 1-1.763-1.782c-.42-.78-.63-1.68-.63-2.7 0-1.008.215-1.896.647-2.664a4.51 4.51 0 0 1 1.8-1.782c.757-.42 1.603-.63 2.538-.63.936 0 1.782.21 2.538.63.756.408 1.35.996 1.782 1.764.445.768.666 1.662.666 2.682s-.227 1.92-.684 2.7a4.634 4.634 0 0 1-1.817 1.782c-.768.42-1.62.63-2.556.63Zm0-1.44c.588 0 1.14-.138 1.656-.414.517-.276.93-.69 1.242-1.242.325-.552.486-1.224.486-2.016s-.155-1.464-.468-2.016c-.312-.552-.72-.96-1.224-1.224a3.356 3.356 0 0 0-1.637-.414c-.6 0-1.152.138-1.657.414-.492.264-.888.672-1.188 1.224-.3.552-.45 1.224-.45 2.016 0 .804.144 1.482.432 2.034.3.552.697.966 1.189 1.242a3.372 3.372 0 0 0 1.62.396Zm10.704 1.44c-.756 0-1.434-.126-2.034-.378-.6-.264-1.074-.624-1.422-1.08a2.92 2.92 0 0 1-.576-1.602h1.692c.048.492.276.894.684 1.206.42.312.966.468 1.638.468.624 0 1.116-.138 1.476-.414.36-.276.54-.624.54-1.044 0-.432-.192-.75-.576-.954-.384-.216-.978-.426-1.782-.63a14.665 14.665 0 0 1-1.8-.576 3.418 3.418 0 0 1-1.188-.882c-.324-.396-.486-.912-.486-1.548 0-.504.15-.966.45-1.386.3-.42.726-.75 1.278-.99.552-.252 1.182-.378 1.89-.378 1.092 0 1.974.276 2.646.828.672.552 1.032 1.308 1.08 2.268h-1.638c-.036-.516-.246-.93-.63-1.242-.372-.312-.876-.468-1.512-.468-.588 0-1.056.126-1.404.378-.348.252-.522.582-.522.99 0 .324.102.594.306.81.216.204.48.372.792.504.324.12.768.258 1.332.414.708.192 1.284.384 1.728.576.444.18.822.456 1.134.828.324.372.492.858.504 1.458 0 .54-.15 1.026-.45 1.458-.3.432-.726.774-1.278 1.026-.54.24-1.164.36-1.872.36Zm7.91-8.676v5.814c0 .48.102.822.306 1.026.204.192.558.288 1.063.288h1.206V118h-1.477c-.911 0-1.595-.21-2.051-.63-.457-.42-.684-1.11-.684-2.07v-5.814h-1.279v-1.35h1.279v-2.484h1.638v2.484h2.573v1.35H35.26Zm8.627-1.512c.852 0 1.596.186 2.232.558.648.372 1.128.84 1.44 1.404v-1.8h1.656v10.08c0 .9-.192 1.698-.576 2.394a4.076 4.076 0 0 1-1.656 1.656c-.708.396-1.536.594-2.484.594-1.296 0-2.376-.306-3.24-.918-.864-.612-1.374-1.446-1.53-2.502h1.62c.18.6.552 1.08 1.116 1.44.564.372 1.242.558 2.034.558.9 0 1.632-.282 2.196-.846.576-.564.864-1.356.864-2.376v-2.07c-.324.576-.804 1.056-1.44 1.44-.636.384-1.38.576-2.232.576a4.564 4.564 0 0 1-2.394-.648c-.708-.432-1.266-1.038-1.674-1.818-.408-.78-.612-1.668-.612-2.664 0-1.008.204-1.89.612-2.646a4.446 4.446 0 0 1 1.674-1.782c.72-.42 1.518-.63 2.394-.63Zm3.672 5.076c0-.744-.15-1.392-.45-1.944a3.098 3.098 0 0 0-1.224-1.26 3.211 3.211 0 0 0-1.674-.45c-.612 0-1.17.144-1.674.432a3.134 3.134 0 0 0-1.206 1.26c-.3.552-.45 1.2-.45 1.944 0 .756.15 1.416.45 1.98.3.552.702.978 1.206 1.278a3.314 3.314 0 0 0 1.674.432c.612 0 1.17-.144 1.674-.432.516-.3.924-.726 1.224-1.278.3-.564.45-1.218.45-1.962Zm6.062-3.312a3.16 3.16 0 0 1 1.224-1.314c.54-.312 1.194-.468 1.962-.468v1.692h-.432c-1.836 0-2.754.996-2.754 2.988V118h-1.638v-9.864h1.638v1.602Zm14.077 2.952c0 .312-.018.642-.054.99H59.76c.06.972.39 1.734.99 2.286.612.54 1.35.81 2.214.81.708 0 1.296-.162 1.764-.486.48-.336.816-.78 1.008-1.332H67.5a4.284 4.284 0 0 1-1.584 2.322c-.792.588-1.776.882-2.952.882-.936 0-1.776-.21-2.52-.63a4.492 4.492 0 0 1-1.728-1.782c-.42-.78-.63-1.68-.63-2.7 0-1.02.204-1.914.612-2.682a4.254 4.254 0 0 1 1.71-1.764c.744-.42 1.596-.63 2.556-.63.936 0 1.764.204 2.484.612.72.408 1.272.972 1.656 1.692.396.708.594 1.512.594 2.412Zm-1.692-.342c0-.624-.138-1.158-.414-1.602a2.605 2.605 0 0 0-1.134-1.026c-.468-.24-.99-.36-1.566-.36-.828 0-1.536.264-2.124.792-.576.528-.906 1.26-.99 2.196h6.228Zm7.832 5.778c-.828 0-1.572-.144-2.232-.432-.648-.3-1.158-.708-1.53-1.224a3.178 3.178 0 0 1-.576-1.818h1.746c.06.588.3 1.086.72 1.494.432.396 1.056.594 1.872.594.78 0 1.392-.192 1.836-.576.456-.396.684-.9.684-1.512 0-.48-.132-.87-.396-1.17a2.53 2.53 0 0 0-.99-.684c-.396-.156-.93-.324-1.602-.504-.828-.216-1.494-.432-1.998-.648a3.318 3.318 0 0 1-1.278-1.008c-.348-.468-.522-1.092-.522-1.872 0-.684.174-1.29.522-1.818.348-.528.834-.936 1.458-1.224.636-.288 1.362-.432 2.178-.432 1.176 0 2.136.294 2.88.882.756.588 1.182 1.368 1.278 2.34h-1.8c-.06-.48-.312-.9-.756-1.26-.444-.372-1.032-.558-1.764-.558-.684 0-1.242.18-1.674.54-.432.348-.648.84-.648 1.476 0 .456.126.828.378 1.116.264.288.582.51.954.666.384.144.918.312 1.602.504.828.228 1.494.456 1.998.684.504.216.936.558 1.296 1.026.36.456.54 1.08.54 1.872 0 .612-.162 1.188-.486 1.728-.324.54-.804.978-1.44 1.314-.636.336-1.386.504-2.25.504Zm16.649 2.25-2.502-2.502a7.04 7.04 0 0 1-1.872.252c-1.164 0-2.226-.27-3.186-.81a6.146 6.146 0 0 1-2.286-2.286c-.552-.984-.828-2.088-.828-3.312 0-1.224.276-2.322.828-3.294a5.976 5.976 0 0 1 2.286-2.286c.96-.552 2.022-.828 3.186-.828 1.176 0 2.244.276 3.204.828a5.885 5.885 0 0 1 2.268 2.268c.552.972.828 2.076.828 3.312 0 1.2-.264 2.28-.792 3.24a5.907 5.907 0 0 1-2.178 2.268l3.168 3.15h-2.124Zm-9-8.658c0 .996.198 1.872.594 2.628.408.756.96 1.338 1.656 1.746.708.408 1.5.612 2.376.612.876 0 1.662-.204 2.358-.612a4.23 4.23 0 0 0 1.656-1.746c.408-.756.612-1.632.612-2.628 0-1.008-.204-1.884-.612-2.628-.396-.756-.942-1.338-1.638-1.746-.696-.408-1.488-.612-2.376-.612-.888 0-1.68.204-2.376.612-.696.408-1.248.99-1.656 1.746-.396.744-.594 1.62-.594 2.628Zm14.761 4.95h4.392V118h-6.03v-12.546h1.638v11.214Z" fill="#A0A0A0"/></svg>