<svg width="182" height="145" viewBox="0 0 182 145" fill="none" xmlns="http://www.w3.org/2000/svg"><g clip-path="url(#a)"><path d="M5.942 136.126c-.828 0-1.572-.144-2.232-.432-.648-.3-1.158-.708-1.53-1.224a3.178 3.178 0 0 1-.576-1.818H3.35c.06.588.3 1.086.72 1.494.432.396 1.056.594 1.872.594.78 0 1.392-.192 1.836-.576.456-.396.684-.9.684-1.512 0-.48-.132-.87-.396-1.17a2.53 2.53 0 0 0-.99-.684c-.396-.156-.93-.324-1.602-.504-.828-.216-1.494-.432-1.998-.648a3.318 3.318 0 0 1-1.278-1.008c-.348-.468-.522-1.092-.522-1.872 0-.684.174-1.29.522-1.818.348-.528.834-.936 1.458-1.224.636-.288 1.362-.432 2.178-.432 1.176 0 2.136.294 2.88.882.756.588 1.182 1.368 1.278 2.34h-1.8c-.06-.48-.312-.9-.756-1.26-.444-.372-1.032-.558-1.764-.558-.684 0-1.242.18-1.674.54-.432.348-.648.84-.648 1.476 0 .456.126.828.378 1.116.264.288.582.51.954.666.384.144.918.312 1.602.504.828.228 1.494.456 1.998.684.504.216.936.558 1.296 1.026.36.456.54 1.08.54 1.872 0 .612-.162 1.188-.486 1.728-.324.54-.804.978-1.44 1.314-.636.336-1.386.504-2.25.504Zm15.587-5.436c0 .312-.018.642-.054.99H13.59c.06.972.39 1.734.99 2.286.612.54 1.35.81 2.214.81.708 0 1.296-.162 1.764-.486.48-.336.816-.78 1.008-1.332h1.764a4.284 4.284 0 0 1-1.584 2.322c-.792.588-1.776.882-2.952.882-.936 0-1.776-.21-2.52-.63a4.492 4.492 0 0 1-1.728-1.782c-.42-.78-.63-1.68-.63-2.7 0-1.02.204-1.914.612-2.682a4.254 4.254 0 0 1 1.71-1.764c.744-.42 1.596-.63 2.556-.63.936 0 1.764.204 2.484.612.72.408 1.272.972 1.656 1.692.396.708.594 1.512.594 2.412Zm-1.692-.342c0-.624-.138-1.158-.414-1.602a2.605 2.605 0 0 0-1.134-1.026c-.468-.24-.99-.36-1.566-.36-.828 0-1.536.264-2.124.792-.576.528-.906 1.26-.99 2.196h6.228Zm5.492-7.668V136H23.69v-13.32h1.638Zm11.791 8.01c0 .312-.018.642-.054.99h-7.884c.06.972.39 1.734.99 2.286.612.54 1.35.81 2.214.81.708 0 1.296-.162 1.764-.486.48-.336.816-.78 1.008-1.332h1.764a4.284 4.284 0 0 1-1.584 2.322c-.792.588-1.776.882-2.952.882-.936 0-1.776-.21-2.52-.63a4.492 4.492 0 0 1-1.728-1.782c-.42-.78-.63-1.68-.63-2.7 0-1.02.204-1.914.612-2.682a4.254 4.254 0 0 1 1.71-1.764c.744-.42 1.596-.63 2.556-.63.936 0 1.764.204 2.484.612.72.408 1.272.972 1.656 1.692.396.708.594 1.512.594 2.412Zm-1.692-.342c0-.624-.138-1.158-.414-1.602a2.605 2.605 0 0 0-1.134-1.026c-.468-.24-.99-.36-1.566-.36-.828 0-1.536.264-2.124.792-.576.528-.906 1.26-.99 2.196h6.228Zm8.66-4.392c1.2 0 2.172.366 2.916 1.098.745.72 1.117 1.764 1.117 3.132V136H46.5v-5.58c0-.984-.246-1.734-.738-2.25-.492-.528-1.164-.792-2.017-.792-.864 0-1.553.27-2.07.81-.504.54-.756 1.326-.756 2.358V136h-1.638v-9.864h1.639v1.404a3.266 3.266 0 0 1 1.313-1.17 4.16 4.16 0 0 1 1.855-.414Zm7.554-1.422c-.312 0-.576-.108-.792-.324a1.077 1.077 0 0 1-.324-.792c0-.312.108-.576.324-.792.216-.216.48-.324.792-.324.3 0 .552.108.756.324.216.216.324.48.324.792 0 .312-.108.576-.324.792a.998.998 0 0 1-.756.324Zm.792 1.602V136h-1.638v-9.864h1.638Zm11.54 0V136h-1.638v-1.458c-.312.504-.75.9-1.314 1.188a4.047 4.047 0 0 1-1.836.414c-.768 0-1.458-.156-2.07-.468a3.582 3.582 0 0 1-1.458-1.44c-.348-.636-.522-1.41-.522-2.322v-5.778h1.62v5.562c0 .972.246 1.722.738 2.25.492.516 1.164.774 2.016.774.876 0 1.566-.27 2.07-.81.504-.54.756-1.326.756-2.358v-5.418h1.638Zm14.628-.18c.767 0 1.451.162 2.051.486.6.312 1.075.786 1.422 1.422.349.636.522 1.41.522 2.322V136h-1.62v-5.58c0-.984-.246-1.734-.737-2.25-.48-.528-1.134-.792-1.962-.792-.853 0-1.53.276-2.035.828-.503.54-.755 1.326-.755 2.358V136h-1.62v-5.58c0-.984-.246-1.734-.739-2.25-.48-.528-1.133-.792-1.962-.792-.852 0-1.53.276-2.034.828-.504.54-.755 1.326-.755 2.358V136H66.74v-9.864h1.638v1.422a3.252 3.252 0 0 1 1.296-1.188 4.008 4.008 0 0 1 1.817-.414c.829 0 1.56.186 2.197.558.635.372 1.11.918 1.421 1.638a3.235 3.235 0 0 1 1.369-1.62 4.03 4.03 0 0 1 2.124-.576Zm27.249-2.502L102.215 136h-1.836l-2.916-10.098L94.44 136l-1.818.018-3.51-12.564h1.746l2.736 10.638 3.024-10.638h1.836l2.88 10.602 2.754-10.602h1.764Zm10.793 7.236c0 .312-.018.642-.054.99h-7.884c.06.972.39 1.734.99 2.286.612.54 1.35.81 2.214.81.708 0 1.296-.162 1.764-.486.48-.336.816-.78 1.008-1.332h1.764a4.284 4.284 0 0 1-1.584 2.322c-.792.588-1.776.882-2.952.882-.936 0-1.776-.21-2.52-.63a4.492 4.492 0 0 1-1.728-1.782c-.42-.78-.63-1.68-.63-2.7 0-1.02.204-1.914.612-2.682a4.254 4.254 0 0 1 1.71-1.764c.744-.42 1.596-.63 2.556-.63.936 0 1.764.204 2.484.612.72.408 1.272.972 1.656 1.692.396.708.594 1.512.594 2.412Zm-1.692-.342c0-.624-.138-1.158-.414-1.602a2.605 2.605 0 0 0-1.134-1.026c-.468-.24-.99-.36-1.566-.36-.828 0-1.536.264-2.124.792-.576.528-.906 1.26-.99 2.196h6.228Zm5.492-2.376c.336-.588.828-1.068 1.476-1.44.648-.372 1.386-.558 2.214-.558.888 0 1.686.21 2.394.63a4.446 4.446 0 0 1 1.674 1.782c.408.756.612 1.638.612 2.646 0 .996-.204 1.884-.612 2.664a4.504 4.504 0 0 1-1.692 1.818c-.708.432-1.5.648-2.376.648-.852 0-1.602-.186-2.25-.558-.636-.372-1.116-.846-1.44-1.422V136h-1.638v-13.32h1.638v5.292Zm6.696 3.06c0-.744-.15-1.392-.45-1.944a3.098 3.098 0 0 0-1.224-1.26 3.314 3.314 0 0 0-1.674-.432c-.6 0-1.158.15-1.674.45-.504.288-.912.714-1.224 1.278-.3.552-.45 1.194-.45 1.926 0 .744.15 1.398.45 1.962.312.552.72.978 1.224 1.278a3.379 3.379 0 0 0 1.674.432c.612 0 1.17-.144 1.674-.432.516-.3.924-.726 1.224-1.278.3-.564.45-1.224.45-1.98Zm7.736-7.578c1.368 0 2.55.258 3.546.774 1.008.504 1.776 1.23 2.304 2.178.54.948.81 2.064.81 3.348 0 1.284-.27 2.4-.81 3.348-.528.936-1.296 1.656-2.304 2.16-.996.492-2.178.738-3.546.738h-3.906v-12.546h3.906Zm0 11.196c1.62 0 2.856-.426 3.708-1.278.852-.864 1.278-2.07 1.278-3.618 0-1.56-.432-2.778-1.296-3.654-.852-.876-2.082-1.314-3.69-1.314h-2.268v9.864h2.268Zm10.459-6.912a3.16 3.16 0 0 1 1.224-1.314c.54-.312 1.194-.468 1.962-.468v1.692h-.432c-1.836 0-2.754.996-2.754 2.988V136h-1.638v-9.864h1.638v1.602Zm5.922-3.204c-.312 0-.576-.108-.792-.324a1.077 1.077 0 0 1-.324-.792c0-.312.108-.576.324-.792.216-.216.48-.324.792-.324.3 0 .552.108.756.324.216.216.324.48.324.792 0 .312-.108.576-.324.792a.998.998 0 0 1-.756.324Zm.792 1.602V136h-1.638v-9.864h1.638Zm6.464 8.352 3.06-8.352h1.746l-3.87 9.864h-1.908l-3.87-9.864h1.764l3.078 8.352Zm15.418-3.798c0 .312-.018.642-.054.99h-7.884c.06.972.39 1.734.99 2.286.612.54 1.35.81 2.214.81.708 0 1.296-.162 1.764-.486.48-.336.816-.78 1.008-1.332h1.764a4.284 4.284 0 0 1-1.584 2.322c-.792.588-1.776.882-2.952.882-.936 0-1.776-.21-2.52-.63a4.492 4.492 0 0 1-1.728-1.782c-.42-.78-.63-1.68-.63-2.7 0-1.02.204-1.914.612-2.682a4.254 4.254 0 0 1 1.71-1.764c.744-.42 1.596-.63 2.556-.63.936 0 1.764.204 2.484.612.72.408 1.272.972 1.656 1.692.396.708.594 1.512.594 2.412Zm-1.692-.342c0-.624-.138-1.158-.414-1.602a2.605 2.605 0 0 0-1.134-1.026c-.468-.24-.99-.36-1.566-.36-.828 0-1.536.264-2.124.792-.576.528-.906 1.26-.99 2.196h6.228Zm5.492-2.61a3.16 3.16 0 0 1 1.224-1.314c.54-.312 1.194-.468 1.962-.468v1.692h-.432c-1.836 0-2.754.996-2.754 2.988V136h-1.638v-9.864h1.638v1.602Z" fill="#A0A0A0"/><g clip-path="url(#b)"><path d="M127.905.001a.598.598 0 0 1 .557.302c.113.2.104.446-.024.636l-23.049 31.47a.89.89 0 0 1-1.332 0l-8.127-9.107a.94.94 0 0 0-1.466.134l-4.93 6.294c-.156.355-.104.767.134 1.072l14.655 15.266a.887.887 0 0 0 1.332 0l28.778-32.541a.614.614 0 0 1 1.066.401v79.144a.629.629 0 0 1-.666.67H47.167a.627.627 0 0 1-.666-.67V.67a.634.634 0 0 1 .666-.67h80.738Zm-22.649 53.432a14.5 14.5 0 0 0-10.582 4.324 14.653 14.653 0 0 0-4.207 10.675c0 9.24 6.662 15.132 15.322 15.132 4.008.1 7.939-1.123 11.191-3.482a.832.832 0 0 0 .133-1.071l-2.398-3.616a.803.803 0 0 0-1.066-.134 12.973 12.973 0 0 1-7.061 2.277c-4.663 0-7.594-2.946-8.127-6.428a.287.287 0 0 1 .266-.268h20.118a.861.861 0 0 0 .799-.803v-.804c0-9.374-5.862-15.802-14.388-15.802Zm-19.852-5.089a21.258 21.258 0 0 0-14.388-4.82c-9.06 0-14.656 5.356-14.656 11.784 0 14.597 22.116 9.91 22.116 16.74 0 2.142-2.131 4.284-6.661 4.284a16.695 16.695 0 0 1-11.591-4.553.887.887 0 0 0-1.332.134l-3.464 4.821a.832.832 0 0 0 .133 1.072c3.597 3.347 8.66 5.624 15.721 5.624 10.392 0 15.455-5.357 15.721-12.32 0-14.463-22.116-10.312-22.116-16.472 0-2.276 1.998-3.883 5.462-3.883a16.48 16.48 0 0 1 10.525 3.615.84.84 0 0 0 1.2-.133l3.464-4.687a.85.85 0 0 0-.134-1.206Zm19.985 10.981c3.624-.203 6.752 2.526 7.061 6.16a.287.287 0 0 1-.266.268h-13.59a.287.287 0 0 1-.266-.268c.445-3.563 3.488-6.218 7.061-6.16Z" fill="#CCC"/></g></g><defs><clipPath id="a"><path fill="#fff" transform="translate(.5)" d="M0 0h181v145H0z"/></clipPath><clipPath id="b"><path fill="#fff" transform="translate(46.5)" d="M0 0h89v94H0z"/></clipPath></defs></svg>