<svg width="146" height="100" viewBox="0 0 146 100" fill="none" xmlns="http://www.w3.org/2000/svg"><mask id="a" style="mask-type:alpha" maskUnits="userSpaceOnUse" x="0" y="0" width="146" height="34"><path fill-rule="evenodd" clip-rule="evenodd" d="M.465 0h145.07v33.159H.465V0Z" fill="#fff"/></mask><g mask="url(#a)" fill-rule="evenodd" clip-rule="evenodd" fill="#6A6A6A"><path d="M51.492 21.09c0 2.393.006 4.786-.008 7.18-.001.303.102.425.37.524 1.383.51 2.806.836 4.27.944 1.032.076 2.066.07 3.08-.203 1.93-.519 3.065-1.85 3.587-3.746.763-2.767.833-5.58.376-8.407-.19-1.183-.587-2.293-1.383-3.208-1.162-1.337-2.692-1.802-4.374-1.825-1.923-.026-3.78.355-5.578 1.054-.255.099-.35.218-.348.507.014 2.393.008 4.787.008 7.18Zm4.186 12.073c-.458-.05-.916-.098-1.374-.15-2.395-.268-4.736-.775-7-1.632-.312-.119-.406-.28-.406-.616.01-10.105.008-20.21.008-30.315V0h4.575v10.41c.275-.1.491-.177.705-.257 2.248-.837 4.557-1.268 6.959-1.162 3.796.168 6.627 2.25 7.977 5.873.618 1.66.857 3.384.885 5.145.034 2.139-.121 4.256-.69 6.328-1.008 3.682-3.396 5.812-7.041 6.526-.557.11-1.126.152-1.689.23-.088.012-.173.046-.26.07h-2.65Zm73.329-12.09c0 2.417.002 4.834-.002 7.251-.001.207.021.344.249.428 1.976.728 4.006 1.12 6.11.996 1.228-.072 2.377-.413 3.338-1.251.901-.788 1.392-1.83 1.68-2.968.665-2.638.74-5.313.333-7.997-.177-1.167-.543-2.28-1.295-3.214-1.16-1.438-2.735-1.945-4.483-1.97-1.935-.03-3.805.352-5.612 1.063-.246.096-.325.213-.325.482.012 2.393.007 4.787.007 7.18Zm4.199 12.09-1.374-.15c-2.395-.265-4.736-.774-7-1.63-.305-.116-.415-.268-.414-.613.01-10.116.008-20.233.008-30.35V.003h4.57v10.404c.315-.112.573-.2.829-.295 2.206-.814 4.474-1.229 6.827-1.12 3.87.18 6.694 2.284 8.036 5.993.74 2.046.9 4.174.836 6.327-.056 1.885-.267 3.749-.849 5.555-1.052 3.267-3.277 5.187-6.528 5.919-.677.152-1.375.207-2.063.309-.1.015-.199.045-.299.069h-2.579ZM5.065 15.671c.095.007.152.015.209.015 1.765 0 3.532.027 5.297-.014a11.041 11.041 0 0 0 2.202-.29c1.494-.343 2.6-1.176 3.008-2.766a9.15 9.15 0 0 0 .143-3.94c-.28-1.558-1.16-2.607-2.678-2.975-.907-.22-1.85-.36-2.78-.395-1.671-.062-3.346-.017-5.019-.016-.123 0-.246.01-.382.016v10.365Zm-4.6-13.79c.15.01.299.027.449.028 3.38.001 6.759-.014 10.138.007 1.604.01 3.193.182 4.738.673 2.787.886 4.43 2.932 4.75 5.894.168 1.542.146 3.07-.17 4.588-.564 2.705-2.223 4.397-4.736 5.289-1.418.503-2.888.693-4.38.709-1.915.02-3.832.005-5.748.005h-.45v13.521H.465V1.881Zm31.233 31.282c-.56-.074-1.123-.136-1.681-.225-1.33-.212-2.599-.61-3.753-1.334-1.794-1.126-2.71-2.805-2.917-4.91a18.472 18.472 0 0 1-.07-1.808c-.005-4.977-.003-9.953-.003-14.93v-.44h4.584v.462c0 4.466-.005 8.933.004 13.4.002 1.115.096 2.224.421 3.298.537 1.771 1.739 2.78 3.517 2.996 2.18.264 4.33.004 6.443-.594.3-.084.392-.23.392-.545-.01-6.185-.007-12.37-.007-18.555V9.51h4.582v.461c0 7.038-.002 14.076.008 21.114 0 .341-.09.487-.425.58-2.683.745-5.406 1.241-8.181 1.437-.09.006-.177.04-.265.061h-2.65Zm64.665-.573h-4.256c-.802 0-1.604-.012-2.405.006-.265.006-.413-.068-.54-.318-1.86-3.68-3.73-7.355-5.599-11.03-2.553-5.02-5.107-10.039-7.662-15.057a.55.55 0 0 0-.215-.24v26.615h-4.01V1.93c.106-.007.218-.02.33-.02 2.091 0 4.183.003 6.273-.006.24 0 .366.073.48.298 4.444 8.736 8.896 17.469 13.347 26.201.047.091.1.178.219.254V1.938h4.038V32.59Zm12.858.573c-.561-.074-1.123-.138-1.681-.225-1.307-.203-2.556-.594-3.696-1.292-1.816-1.113-2.758-2.79-2.975-4.91a16.244 16.244 0 0 1-.068-1.666c-.005-5.035-.003-10.071-.003-15.107v-.446h4.584v.454c0 4.55-.006 9.1.004 13.65.002 1.068.12 2.127.447 3.15.556 1.742 1.769 2.694 3.513 2.905 2.134.257 4.237-.01 6.311-.559.369-.097.505-.271.505-.684-.016-6.15-.011-12.3-.011-18.45v-.471h4.561c.007.132.021.257.021.383.001 7.085-.001 14.171.007 21.257.001.29-.084.412-.356.489-2.693.756-5.427 1.26-8.214 1.457-.101.007-.2.043-.3.065h-2.649Z"/></g><path d="M48.239 81.126c0 1.044-.36 1.914-1.08 2.61-.708.684-1.794 1.026-3.258 1.026h-2.412V90H39.85V77.454h4.05c1.416 0 2.49.342 3.222 1.026.744.684 1.116 1.566 1.116 2.646ZM43.9 83.412c.912 0 1.584-.198 2.016-.594.432-.396.648-.96.648-1.692 0-1.548-.888-2.322-2.664-2.322h-2.412v4.608H43.9Zm15.122-3.276V90h-1.638v-1.458c-.312.504-.75.9-1.314 1.188a4.047 4.047 0 0 1-1.836.414c-.768 0-1.458-.156-2.07-.468a3.582 3.582 0 0 1-1.458-1.44c-.348-.636-.522-1.41-.522-2.322v-5.778h1.62v5.562c0 .972.246 1.722.738 2.25.492.516 1.164.774 2.016.774.876 0 1.566-.27 2.07-.81.504-.54.756-1.326.756-2.358v-5.418h1.638Zm4.403 1.836c.336-.588.828-1.068 1.476-1.44.648-.372 1.386-.558 2.214-.558.888 0 1.686.21 2.394.63a4.446 4.446 0 0 1 1.674 1.782c.408.756.612 1.638.612 2.646 0 .996-.204 1.884-.612 2.664a4.504 4.504 0 0 1-1.692 1.818c-.708.432-1.5.648-2.376.648-.852 0-1.602-.186-2.25-.558-.636-.372-1.116-.846-1.44-1.422V90h-1.638V76.68h1.638v5.292Zm6.696 3.06c0-.744-.15-1.392-.45-1.944a3.098 3.098 0 0 0-1.224-1.26 3.314 3.314 0 0 0-1.674-.432c-.6 0-1.158.15-1.674.45-.504.288-.912.714-1.224 1.278-.3.552-.45 1.194-.45 1.926 0 .744.15 1.398.45 1.962.312.552.72.978 1.224 1.278a3.379 3.379 0 0 0 1.674.432c.612 0 1.17-.144 1.674-.432.516-.3.924-.726 1.224-1.278.3-.564.45-1.224.45-1.98Zm8.636-5.076c1.2 0 2.172.366 2.916 1.098.744.72 1.116 1.764 1.116 3.132V90h-1.62v-5.58c0-.984-.246-1.734-.738-2.25-.492-.528-1.164-.792-2.016-.792-.864 0-1.554.27-2.07.81-.504.54-.756 1.326-.756 2.358V90h-1.638v-9.864h1.638v1.404a3.266 3.266 0 0 1 1.314-1.17 4.16 4.16 0 0 1 1.854-.414Zm15.456.18V90h-1.638v-1.458c-.312.504-.75.9-1.314 1.188a4.047 4.047 0 0 1-1.836.414c-.768 0-1.458-.156-2.07-.468a3.582 3.582 0 0 1-1.458-1.44c-.348-.636-.522-1.41-.522-2.322v-5.778h1.62v5.562c0 .972.246 1.722.738 2.25.492.516 1.164.774 2.016.774.876 0 1.566-.27 2.07-.81.504-.54.756-1.326.756-2.358v-5.418h1.638Zm4.404 1.836c.336-.588.828-1.068 1.476-1.44.648-.372 1.386-.558 2.214-.558.888 0 1.686.21 2.394.63a4.446 4.446 0 0 1 1.674 1.782c.408.756.612 1.638.612 2.646 0 .996-.204 1.884-.612 2.664a4.504 4.504 0 0 1-1.692 1.818c-.708.432-1.5.648-2.376.648-.852 0-1.602-.186-2.25-.558-.636-.372-1.116-.846-1.44-1.422V90H96.98V76.68h1.638v5.292Zm6.696 3.06c0-.744-.15-1.392-.45-1.944a3.098 3.098 0 0 0-1.224-1.26 3.314 3.314 0 0 0-1.674-.432c-.6 0-1.158.15-1.674.45-.504.288-.912.714-1.224 1.278-.3.552-.45 1.194-.45 1.926 0 .744.15 1.398.45 1.962.312.552.72.978 1.224 1.278a3.379 3.379 0 0 0 1.674.432c.612 0 1.17-.144 1.674-.432.516-.3.924-.726 1.224-1.278.3-.564.45-1.224.45-1.98Z" fill="#A0A0A0"/></svg>