<svg width="102" height="128" viewBox="0 0 102 128" fill="none" xmlns="http://www.w3.org/2000/svg">
<path d="M70.0019 57.7819C70.4996 53.6359 70.3505 53.0279 73.4386 53.6995L74.2226 53.7684C76.5971 53.8764 79.7033 53.3865 81.5282 52.5387C85.4566 50.7159 87.7859 47.6726 83.9124 48.4723C75.0767 50.295 74.4692 47.3032 74.4692 47.3032C83.7993 33.4598 87.6995 15.8869 84.333 11.5855C75.1507 -0.147402 59.2563 5.4008 58.9904 5.54485L58.9057 5.56049C57.1599 5.19825 55.2061 4.98183 53.0112 4.94634C49.0128 4.88064 45.9788 5.99457 43.6773 7.74021C43.6773 7.74021 15.3227 -3.94154 16.6418 22.4312C16.9224 28.0414 24.6835 64.8829 33.9401 53.755C37.3233 49.686 40.5929 46.2455 40.5929 46.2455C42.2165 47.3241 44.1603 47.8743 46.1989 47.6766L46.3565 47.5423C46.3071 48.0475 46.3289 48.5416 46.4196 49.1266C44.0354 51.791 44.7359 52.2588 39.9684 53.2401C35.145 54.2342 37.9788 56.0041 39.8284 56.4667C42.0714 57.0276 47.2601 57.8221 50.7671 52.9139L50.6274 53.474C51.5628 54.2223 51.4996 58.8528 51.6322 62.1612C51.765 65.4698 51.9866 68.5572 52.661 70.3775C53.3354 72.1974 54.1311 76.8861 60.3968 75.5433C65.6334 74.4211 69.6371 72.806 70.0019 57.7817" fill="#6A6A6A"/>
<path d="M70.0019 57.7819C70.4996 53.6359 70.3505 53.0279 73.4386 53.6995L74.2226 53.7684C76.5971 53.8764 79.7033 53.3865 81.5282 52.5387C85.4566 50.7159 87.7859 47.6726 83.9124 48.4723C75.0767 50.295 74.4692 47.3032 74.4692 47.3032C83.7993 33.4598 87.6995 15.8869 84.333 11.5855C75.1507 -0.147402 59.2563 5.4008 58.9904 5.54485L58.9057 5.56049C57.1599 5.19825 55.2061 4.98183 53.0112 4.94634C49.0128 4.88064 45.9788 5.99457 43.6773 7.74021C43.6773 7.74021 15.3227 -3.94154 16.6418 22.4312C16.9224 28.0414 24.6835 64.8829 33.9401 53.755C37.3233 49.686 40.5929 46.2455 40.5929 46.2455C42.2165 47.3241 44.1603 47.8743 46.1989 47.6766L46.3565 47.5423C46.3071 48.0475 46.3289 48.5416 46.4196 49.1266C44.0354 51.791 44.7359 52.2588 39.9684 53.2401C35.145 54.2342 37.9788 56.0041 39.8284 56.4667C42.0714 57.0276 47.2601 57.8221 50.7671 52.9139L50.6274 53.474C51.5628 54.2223 51.4996 58.8528 51.6322 62.1612C51.765 65.4698 51.9866 68.5572 52.661 70.3775C53.3354 72.1975 54.1311 76.8861 60.3968 75.5433C65.6334 74.4211 69.6371 72.806 70.0019 57.7817" stroke="#6A6A6A" stroke-width="7.9246"/>
<path d="M83.9141 48.4722C75.0775 50.2949 74.4701 47.3031 74.4701 47.3031C83.8001 33.4588 87.7004 15.8856 84.3345 11.5847C75.1522 -0.147501 59.2572 5.40106 58.9919 5.54511L58.9065 5.56039C57.1607 5.19798 55.2069 4.98208 53.011 4.94624C49.0126 4.88072 45.9796 5.99447 43.6782 7.73976C43.6782 7.73976 15.323 -3.94146 16.6418 22.4311C16.9223 28.0417 24.6833 64.8831 33.9402 53.7553C37.3237 49.6862 40.5927 46.2457 40.5927 46.2457C42.2164 47.3243 44.1602 47.8745 46.198 47.6769L46.3563 47.5425C46.3071 48.0477 46.3296 48.5419 46.4197 49.1269C44.035 51.7913 44.7357 52.2591 39.9686 53.2404C35.1448 54.2345 37.9786 56.0044 39.8287 56.4669C42.0717 57.0278 47.2608 57.8224 50.767 52.9142L50.6272 53.4742C51.5616 54.2226 52.2177 58.3422 52.1077 62.0766C51.9978 65.8112 51.9243 68.3751 52.6606 70.3778C53.3968 72.3804 54.1306 76.8863 60.3975 75.5435C65.634 74.4213 68.3476 71.5133 68.7251 66.6625C68.993 63.2139 69.5993 63.7237 69.6376 60.6405L70.1238 59.1809C70.6846 54.5061 70.2129 52.998 73.4391 53.6994L74.2231 53.7683C76.5976 53.8763 79.7054 53.3864 81.5294 52.5386C85.457 50.7158 87.7864 47.6725 83.9138 48.4722H83.9141Z" fill="#7C7C7C"/>
<path d="M51.147 51.1504C50.9037 59.8489 51.2081 68.608 52.0592 70.7368C52.9109 72.8656 54.7335 77.0061 61.0009 75.6635C66.2369 74.5409 68.1421 72.3686 68.9688 67.5737C69.5776 64.0458 70.7515 54.2483 70.902 52.2409" stroke="white" stroke-width="2.64153" stroke-linecap="round" stroke-linejoin="round"/>
<path d="M43.6347 7.54522C43.6347 7.54522 15.2602 -4.05185 16.5793 22.3207C16.8598 27.9313 24.6213 64.774 33.8781 53.6456C37.2608 49.576 40.3201 46.3842 40.3201 46.3842" stroke="white" stroke-width="2.64153" stroke-linecap="round" stroke-linejoin="round"/>
<path d="M58.9588 5.42832C57.9766 5.73627 74.7424 -0.700652 84.2706 11.4744C87.6363 15.7755 83.7361 33.3487 74.4062 47.1933" stroke="white" stroke-width="2.64153" stroke-linecap="round" stroke-linejoin="round"/>
<path d="M74.4101 47.1944C74.4101 47.1944 75.0181 50.1871 83.8549 48.3632C87.7267 47.5635 85.3966 50.6072 81.4698 52.4308C78.2471 53.9265 71.022 54.3098 70.9039 52.243C70.6002 46.9105 74.7067 48.5306 74.4103 47.1944C74.1424 45.9911 72.306 44.81 71.0912 41.8649C70.0307 39.2943 56.5464 19.5813 74.8307 22.509C75.5005 22.3704 70.0619 5.11728 52.9504 4.83673C35.8427 4.55618 36.404 25.8754 36.404 25.8754" stroke="white" stroke-width="2.64153" stroke-linecap="round" stroke-linejoin="bevel"/>
<path d="M46.3559 49.0157C43.9709 51.6799 44.6723 52.1477 39.9048 53.1294C35.081 54.1237 37.9151 55.8932 39.7648 56.3556C42.0077 56.9168 47.1969 57.7114 50.7031 52.8019C51.7708 51.3071 50.6968 48.9221 49.2301 48.3141C48.5214 48.0205 47.5739 47.6527 46.3559 49.0157V49.0157Z" stroke="white" stroke-width="2.64153" stroke-linecap="round" stroke-linejoin="round"/>
<path d="M46.1981 48.9702C45.9578 47.4038 46.7128 45.5397 47.522 43.359C48.738 40.0869 51.5436 36.8144 49.2992 26.435C47.6263 18.7004 36.4057 24.8254 36.3987 25.8741C36.3918 26.9225 36.9062 31.1899 36.2112 36.1593C35.3044 42.6438 40.3374 48.1281 46.1329 47.567" stroke="white" stroke-width="2.64153" stroke-linecap="round" stroke-linejoin="round"/>
<path d="M43.5294 25.7161C43.4788 26.0743 44.1852 27.0301 45.1062 27.1578C46.0257 27.2861 46.8127 26.5391 46.8626 26.1813C46.9125 25.8231 46.207 25.4285 45.2856 25.3003C44.3656 25.1719 43.5782 25.3588 43.5296 25.7161H43.5294Z" fill="white" stroke="white" stroke-width="0.880504"/>
<path d="M71.5355 24.9856C71.5854 25.3438 70.8799 26.2996 69.9587 26.4273C69.0385 26.5555 68.2515 25.8086 68.2011 25.4508C68.1524 25.0926 68.8581 24.698 69.7785 24.5698C70.6988 24.4415 71.4856 24.6283 71.5355 24.9858V24.9856Z" fill="white" stroke="white" stroke-width="0.440252"/>
<path d="M74.8266 22.5078C74.9782 25.3175 74.2214 27.2312 74.126 30.2222C73.9848 34.5697 76.1988 39.5458 72.8628 44.5279" stroke="white" stroke-width="2.64153" stroke-linecap="round" stroke-linejoin="round"/>
<path d="M10.3087 109.126C10.3087 110.17 9.94867 111.04 9.22867 111.736C8.52067 112.42 7.43467 112.762 5.97067 112.762H3.55867V118H1.92067V105.454H5.97067C7.38667 105.454 8.46067 105.796 9.19267 106.48C9.93667 107.164 10.3087 108.046 10.3087 109.126ZM5.97067 111.412C6.88267 111.412 7.55467 111.214 7.98667 110.818C8.41867 110.422 8.63467 109.858 8.63467 109.126C8.63467 107.578 7.74667 106.804 5.97067 106.804H3.55867V111.412H5.97067ZM16.6465 118.162C15.7225 118.162 14.8825 117.952 14.1265 117.532C13.3825 117.112 12.7945 116.518 12.3625 115.75C11.9425 114.97 11.7325 114.07 11.7325 113.05C11.7325 112.042 11.9485 111.154 12.3805 110.386C12.8245 109.606 13.4245 109.012 14.1805 108.604C14.9365 108.184 15.7825 107.974 16.7185 107.974C17.6545 107.974 18.5005 108.184 19.2565 108.604C20.0125 109.012 20.6065 109.6 21.0385 110.368C21.4825 111.136 21.7045 112.03 21.7045 113.05C21.7045 114.07 21.4765 114.97 21.0205 115.75C20.5765 116.518 19.9705 117.112 19.2025 117.532C18.4345 117.952 17.5825 118.162 16.6465 118.162ZM16.6465 116.722C17.2345 116.722 17.7865 116.584 18.3025 116.308C18.8185 116.032 19.2325 115.618 19.5445 115.066C19.8685 114.514 20.0305 113.842 20.0305 113.05C20.0305 112.258 19.8745 111.586 19.5625 111.034C19.2505 110.482 18.8425 110.074 18.3385 109.81C17.8345 109.534 17.2885 109.396 16.7005 109.396C16.1005 109.396 15.5485 109.534 15.0445 109.81C14.5525 110.074 14.1565 110.482 13.8565 111.034C13.5565 111.586 13.4065 112.258 13.4065 113.05C13.4065 113.854 13.5505 114.532 13.8385 115.084C14.1385 115.636 14.5345 116.05 15.0265 116.326C15.5185 116.59 16.0585 116.722 16.6465 116.722ZM27.3502 118.162C26.5942 118.162 25.9162 118.036 25.3162 117.784C24.7162 117.52 24.2422 117.16 23.8942 116.704C23.5462 116.236 23.3542 115.702 23.3182 115.102H25.0102C25.0582 115.594 25.2862 115.996 25.6942 116.308C26.1142 116.62 26.6602 116.776 27.3322 116.776C27.9562 116.776 28.4482 116.638 28.8082 116.362C29.1682 116.086 29.3482 115.738 29.3482 115.318C29.3482 114.886 29.1562 114.568 28.7722 114.364C28.3882 114.148 27.7942 113.938 26.9902 113.734C26.2582 113.542 25.6582 113.35 25.1902 113.158C24.7342 112.954 24.3382 112.66 24.0022 112.276C23.6782 111.88 23.5162 111.364 23.5162 110.728C23.5162 110.224 23.6662 109.762 23.9662 109.342C24.2662 108.922 24.6922 108.592 25.2442 108.352C25.7962 108.1 26.4262 107.974 27.1342 107.974C28.2262 107.974 29.1082 108.25 29.7802 108.802C30.4522 109.354 30.8122 110.11 30.8602 111.07H29.2222C29.1862 110.554 28.9762 110.14 28.5922 109.828C28.2202 109.516 27.7162 109.36 27.0802 109.36C26.4922 109.36 26.0242 109.486 25.6762 109.738C25.3282 109.99 25.1542 110.32 25.1542 110.728C25.1542 111.052 25.2562 111.322 25.4602 111.538C25.6762 111.742 25.9402 111.91 26.2522 112.042C26.5762 112.162 27.0202 112.3 27.5842 112.456C28.2922 112.648 28.8682 112.84 29.3122 113.032C29.7562 113.212 30.1342 113.488 30.4462 113.86C30.7702 114.232 30.9382 114.718 30.9502 115.318C30.9502 115.858 30.8002 116.344 30.5002 116.776C30.2002 117.208 29.7742 117.55 29.2222 117.802C28.6822 118.042 28.0582 118.162 27.3502 118.162ZM35.2605 109.486V115.3C35.2605 115.78 35.3625 116.122 35.5665 116.326C35.7705 116.518 36.1245 116.614 36.6285 116.614H37.8345V118H36.3585C35.4465 118 34.7625 117.79 34.3065 117.37C33.8505 116.95 33.6225 116.26 33.6225 115.3V109.486H32.3445V108.136H33.6225V105.652H35.2605V108.136H37.8345V109.486H35.2605ZM43.8871 107.974C44.7391 107.974 45.4831 108.16 46.1191 108.532C46.7671 108.904 47.2471 109.372 47.5591 109.936V108.136H49.2151V118.216C49.2151 119.116 49.0231 119.914 48.6391 120.61C48.2551 121.318 47.7031 121.87 46.9831 122.266C46.2751 122.662 45.4471 122.86 44.4991 122.86C43.2031 122.86 42.1231 122.554 41.2591 121.942C40.3951 121.33 39.8851 120.496 39.7291 119.44H41.3491C41.5291 120.04 41.9011 120.52 42.4651 120.88C43.0291 121.252 43.7071 121.438 44.4991 121.438C45.3991 121.438 46.1311 121.156 46.6951 120.592C47.2711 120.028 47.5591 119.236 47.5591 118.216V116.146C47.2351 116.722 46.7551 117.202 46.1191 117.586C45.4831 117.97 44.7391 118.162 43.8871 118.162C43.0111 118.162 42.2131 117.946 41.4931 117.514C40.7851 117.082 40.2271 116.476 39.8191 115.696C39.4111 114.916 39.2071 114.028 39.2071 113.032C39.2071 112.024 39.4111 111.142 39.8191 110.386C40.2271 109.618 40.7851 109.024 41.4931 108.604C42.2131 108.184 43.0111 107.974 43.8871 107.974ZM47.5591 113.05C47.5591 112.306 47.4091 111.658 47.1091 111.106C46.8091 110.554 46.4011 110.134 45.8851 109.846C45.3811 109.546 44.8231 109.396 44.2111 109.396C43.5991 109.396 43.0411 109.54 42.5371 109.828C42.0331 110.116 41.6311 110.536 41.3311 111.088C41.0311 111.64 40.8811 112.288 40.8811 113.032C40.8811 113.788 41.0311 114.448 41.3311 115.012C41.6311 115.564 42.0331 115.99 42.5371 116.29C43.0411 116.578 43.5991 116.722 44.2111 116.722C44.8231 116.722 45.3811 116.578 45.8851 116.29C46.4011 115.99 46.8091 115.564 47.1091 115.012C47.4091 114.448 47.5591 113.794 47.5591 113.05ZM53.6212 109.738C53.9092 109.174 54.3172 108.736 54.8452 108.424C55.3852 108.112 56.0392 107.956 56.8072 107.956V109.648H56.3752C54.5392 109.648 53.6212 110.644 53.6212 112.636V118H51.9832V108.136H53.6212V109.738ZM67.698 112.69C67.698 113.002 67.68 113.332 67.644 113.68H59.76C59.82 114.652 60.15 115.414 60.75 115.966C61.362 116.506 62.1 116.776 62.964 116.776C63.672 116.776 64.26 116.614 64.728 116.29C65.208 115.954 65.544 115.51 65.736 114.958H67.5C67.236 115.906 66.708 116.68 65.916 117.28C65.124 117.868 64.14 118.162 62.964 118.162C62.028 118.162 61.188 117.952 60.444 117.532C59.712 117.112 59.136 116.518 58.716 115.75C58.296 114.97 58.086 114.07 58.086 113.05C58.086 112.03 58.29 111.136 58.698 110.368C59.106 109.6 59.676 109.012 60.408 108.604C61.152 108.184 62.004 107.974 62.964 107.974C63.9 107.974 64.728 108.178 65.448 108.586C66.168 108.994 66.72 109.558 67.104 110.278C67.5 110.986 67.698 111.79 67.698 112.69ZM66.006 112.348C66.006 111.724 65.868 111.19 65.592 110.746C65.316 110.29 64.938 109.948 64.458 109.72C63.99 109.48 63.468 109.36 62.892 109.36C62.064 109.36 61.356 109.624 60.768 110.152C60.192 110.68 59.862 111.412 59.778 112.348H66.006ZM73.8381 118.126C73.0101 118.126 72.2661 117.982 71.6061 117.694C70.9581 117.394 70.4481 116.986 70.0761 116.47C69.7041 115.942 69.5121 115.336 69.5001 114.652H71.2461C71.3061 115.24 71.5461 115.738 71.9661 116.146C72.3981 116.542 73.0221 116.74 73.8381 116.74C74.6181 116.74 75.2301 116.548 75.6741 116.164C76.1301 115.768 76.3581 115.264 76.3581 114.652C76.3581 114.172 76.2261 113.782 75.9621 113.482C75.6981 113.182 75.3681 112.954 74.9721 112.798C74.5761 112.642 74.0421 112.474 73.3701 112.294C72.5421 112.078 71.8761 111.862 71.3721 111.646C70.8801 111.43 70.4541 111.094 70.0941 110.638C69.7461 110.17 69.5721 109.546 69.5721 108.766C69.5721 108.082 69.7461 107.476 70.0941 106.948C70.4421 106.42 70.9281 106.012 71.5521 105.724C72.1881 105.436 72.9141 105.292 73.7301 105.292C74.9061 105.292 75.8661 105.586 76.6101 106.174C77.3661 106.762 77.7921 107.542 77.8881 108.514H76.0881C76.0281 108.034 75.7761 107.614 75.3321 107.254C74.8881 106.882 74.3001 106.696 73.5681 106.696C72.8841 106.696 72.3261 106.876 71.8941 107.236C71.4621 107.584 71.2461 108.076 71.2461 108.712C71.2461 109.168 71.3721 109.54 71.6241 109.828C71.8881 110.116 72.2061 110.338 72.5781 110.494C72.9621 110.638 73.4961 110.806 74.1801 110.998C75.0081 111.226 75.6741 111.454 76.1781 111.682C76.6821 111.898 77.1141 112.24 77.4741 112.708C77.8341 113.164 78.0141 113.788 78.0141 114.58C78.0141 115.192 77.8521 115.768 77.5281 116.308C77.2041 116.848 76.7241 117.286 76.0881 117.622C75.4521 117.958 74.7021 118.126 73.8381 118.126ZM90.4866 120.376L87.9846 117.874C87.3726 118.042 86.7486 118.126 86.1126 118.126C84.9486 118.126 83.8866 117.856 82.9266 117.316C81.9666 116.764 81.2046 116.002 80.6406 115.03C80.0886 114.046 79.8126 112.942 79.8126 111.718C79.8126 110.494 80.0886 109.396 80.6406 108.424C81.2046 107.44 81.9666 106.678 82.9266 106.138C83.8866 105.586 84.9486 105.31 86.1126 105.31C87.2886 105.31 88.3566 105.586 89.3166 106.138C90.2766 106.678 91.0326 107.434 91.5846 108.406C92.1366 109.378 92.4126 110.482 92.4126 111.718C92.4126 112.918 92.1486 113.998 91.6206 114.958C91.0926 115.918 90.3666 116.674 89.4426 117.226L92.6106 120.376H90.4866ZM81.4866 111.718C81.4866 112.714 81.6846 113.59 82.0806 114.346C82.4886 115.102 83.0406 115.684 83.7366 116.092C84.4446 116.5 85.2366 116.704 86.1126 116.704C86.9886 116.704 87.7746 116.5 88.4706 116.092C89.1786 115.684 89.7306 115.102 90.1266 114.346C90.5346 113.59 90.7386 112.714 90.7386 111.718C90.7386 110.71 90.5346 109.834 90.1266 109.09C89.7306 108.334 89.1846 107.752 88.4886 107.344C87.7926 106.936 87.0006 106.732 86.1126 106.732C85.2246 106.732 84.4326 106.936 83.7366 107.344C83.0406 107.752 82.4886 108.334 82.0806 109.09C81.6846 109.834 81.4866 110.71 81.4866 111.718ZM96.2481 116.668H100.64V118H94.6101V105.454H96.2481V116.668Z" fill="#A0A0A0"/>
</svg>
