<svg width="96" height="136" viewBox="0 0 96 136" fill="none" xmlns="http://www.w3.org/2000/svg">
<g clip-path="url(#clip0_9380_56235)">
<path d="M44.0469 2.96331L2.96506 44.0113C0.756437 46.2182 0.756437 49.7825 2.96506 51.9893L44.0469 93.0374C46.2555 95.2442 49.8228 95.2442 52.0314 93.0374L69.2565 75.8265C71.2345 73.8502 71.2345 70.6458 69.2565 68.6695C67.2785 66.6931 64.0715 66.6931 62.0935 68.6695L49.0354 81.7169C48.4857 82.2662 47.6513 82.2662 47.1016 81.7169L14.2949 48.9371C13.7451 48.3878 13.7451 47.5542 14.2949 47.0049L47.1016 14.2251C47.6513 13.6759 48.4857 13.6759 49.0354 14.2251L62.0935 27.2726C64.0715 29.2489 67.2785 29.2489 69.2565 27.2726C71.2345 25.2962 71.2345 22.0919 69.2565 20.1155L52.0333 2.90654C49.8156 0.747486 46.247 0.764965 44.0469 2.96331Z" fill="#B5B5B5"/>
<path d="M44.0469 2.96331L2.96506 44.0113C0.756437 46.2182 0.756437 49.7825 2.96506 51.9893L44.0469 93.0374C46.2555 95.2442 49.8228 95.2442 52.0314 93.0374L69.2565 75.8265C71.2345 73.8502 71.2345 70.6458 69.2565 68.6695C67.2785 66.6931 64.0715 66.6931 62.0935 68.6695L49.0354 81.7169C48.4857 82.2662 47.6513 82.2662 47.1016 81.7169L14.2949 48.9371C13.7451 48.3878 13.7451 47.5542 14.2949 47.0049L47.1016 14.2251C48.4704 13.0451 50.7038 10.655 53.9834 10.096C56.4208 9.68055 59.0855 10.5949 61.9776 12.8391C60.0441 10.9072 56.7293 7.59633 52.0333 2.90654C49.8156 0.747486 46.247 0.764965 44.0469 2.96331Z" fill="#CCCCCC"/>
<path d="M73.2337 64.8522C75.2117 66.8286 78.4186 66.8286 80.3966 64.8522L93.1026 52.1567C95.3112 49.9499 95.3112 46.3855 93.1029 44.1789L80.2861 31.4181C78.3034 29.4441 75.0955 29.4469 73.1163 31.4245C71.1383 33.4008 71.1383 36.6051 73.1163 38.5815L81.7728 47.2309C82.3226 47.7802 82.3226 48.6138 81.7728 49.1631L73.2337 57.6952C71.2557 59.6716 71.2557 62.8759 73.2337 64.8522Z" fill="#C2C2C2"/>
<path d="M48.2444 59.289C54.3704 59.289 59.3365 54.327 59.3365 48.206C59.3365 42.0851 54.3704 37.123 48.2444 37.123C42.1184 37.123 37.1523 42.0851 37.1523 48.206C37.1523 54.327 42.1184 59.289 48.2444 59.289Z" fill="#D5D5D5"/>
</g>
<path d="M36.324 127.52H31.46L30.564 130H29.028L33.06 118.912H34.74L38.756 130H37.22L36.324 127.52ZM35.908 126.336L33.892 120.704L31.876 126.336H35.908ZM44.7853 121.072C45.8519 121.072 46.7159 121.397 47.3773 122.048C48.0386 122.688 48.3693 123.616 48.3693 124.832V130H46.9293V125.04C46.9293 124.165 46.7106 123.499 46.2733 123.04C45.8359 122.571 45.2386 122.336 44.4813 122.336C43.7133 122.336 43.0999 122.576 42.6413 123.056C42.1933 123.536 41.9693 124.235 41.9693 125.152V130H40.5133V121.232H41.9693V122.48C42.2573 122.032 42.6466 121.685 43.1373 121.44C43.6386 121.195 44.1879 121.072 44.7853 121.072ZM52.5236 122.432V127.6C52.5236 128.027 52.6143 128.331 52.7956 128.512C52.977 128.683 53.2916 128.768 53.7396 128.768H54.8116V130H53.4996C52.689 130 52.081 129.813 51.6756 129.44C51.2703 129.067 51.0676 128.453 51.0676 127.6V122.432H49.9316V121.232H51.0676V119.024H52.5236V121.232H54.8116V122.432H52.5236ZM60.0477 118.848C61.2638 118.848 62.3144 119.077 63.1998 119.536C64.0958 119.984 64.7784 120.629 65.2478 121.472C65.7278 122.315 65.9678 123.307 65.9678 124.448C65.9678 125.589 65.7278 126.581 65.2478 127.424C64.7784 128.256 64.0958 128.896 63.1998 129.344C62.3144 129.781 61.2638 130 60.0477 130H56.5758V118.848H60.0477ZM60.0477 128.8C61.4878 128.8 62.5864 128.421 63.3438 127.664C64.1011 126.896 64.4798 125.824 64.4798 124.448C64.4798 123.061 64.0958 121.979 63.3278 121.2C62.5704 120.421 61.4771 120.032 60.0477 120.032H58.0318V128.8H60.0477Z" fill="#AFAFAF"/>
<defs>
<clipPath id="clip0_9380_56235">
<rect width="94" height="94" fill="white" transform="translate(1 1)"/>
</clipPath>
</defs>
</svg>
