<svg width="96" height="137" viewBox="0 0 96 137" fill="none" xmlns="http://www.w3.org/2000/svg"><path d="M17.496 114.31v1.332h-5.544v4.392h4.698v1.278h-4.698V127h-1.638v-12.69h7.182Zm1.653-.09c0-.3.102-.54.306-.72.204-.192.474-.288.81-.288.336 0 .606.096.81.288.204.18.306.42.306.72s-.102.546-.306.738c-.204.18-.474.27-.81.27-.336 0-.606-.09-.81-.27a.969.969 0 0 1-.306-.738Zm1.926 2.898V127h-1.638v-9.882h1.638Zm4.271 1.998a3.58 3.58 0 0 1 1.422-1.584c.624-.384 1.369-.576 2.232-.576v1.782h-.503c-.924 0-1.68.24-2.268.72-.588.468-.883 1.248-.883 2.34V127H23.71v-9.882h1.637v1.998Zm14.36 2.394c0 .348-.023.648-.071.9h-7.902c.036 1.128.354 1.974.954 2.538.612.564 1.356.846 2.232.846.792 0 1.452-.198 1.98-.594.54-.408.87-.948.99-1.62h1.746a4.098 4.098 0 0 1-.81 1.836c-.408.54-.942.96-1.602 1.26-.66.3-1.404.45-2.232.45-.948 0-1.788-.204-2.52-.612a4.399 4.399 0 0 1-1.728-1.746c-.408-.768-.612-1.668-.612-2.7 0-1.032.204-1.932.612-2.7a4.37 4.37 0 0 1 1.728-1.764c.732-.408 1.572-.612 2.52-.612.96 0 1.794.204 2.502.612.72.408 1.266.954 1.638 1.638.384.684.576 1.44.576 2.268Zm-1.655.108c.036-.732-.084-1.344-.36-1.836a2.632 2.632 0 0 0-1.134-1.098 3.452 3.452 0 0 0-1.566-.36c-.9 0-1.656.282-2.268.846-.612.552-.942 1.368-.99 2.448h6.318Zm9.252-4.626c.876 0 1.656.204 2.34.612.684.408 1.218.996 1.602 1.764.396.768.594 1.668.594 2.7 0 1.032-.198 1.932-.594 2.7-.384.756-.918 1.338-1.602 1.746-.684.408-1.464.612-2.34.612-.96 0-1.776-.24-2.448-.72a3.769 3.769 0 0 1-1.368-1.926V127H41.85v-13.32h1.638v5.958a3.675 3.675 0 0 1 1.368-1.908c.672-.492 1.488-.738 2.448-.738Zm-.468 1.458c-.636 0-1.212.15-1.728.45a2.985 2.985 0 0 0-1.206 1.26c-.288.552-.432 1.188-.432 1.908s.144 1.356.432 1.908c.288.54.69.96 1.206 1.26.516.3 1.092.45 1.728.45 1.02 0 1.83-.318 2.43-.954.612-.648.918-1.536.918-2.664 0-1.128-.306-2.01-.918-2.646-.6-.648-1.41-.972-2.43-.972Zm11.193-1.458c.96 0 1.77.24 2.43.72a3.735 3.735 0 0 1 1.404 1.926v-2.52H63.5V127h-1.638v-2.52a3.735 3.735 0 0 1-1.404 1.926c-.66.48-1.47.72-2.43.72-.876 0-1.656-.204-2.34-.612-.684-.408-1.224-.99-1.62-1.746-.384-.768-.576-1.668-.576-2.7 0-1.032.192-1.932.576-2.7.396-.768.936-1.356 1.62-1.764.684-.408 1.464-.612 2.34-.612Zm.468 1.458c-1.008 0-1.818.324-2.43.972-.6.636-.9 1.518-.9 2.646s.3 2.016.9 2.664c.612.636 1.422.954 2.43.954.648 0 1.224-.15 1.728-.45.516-.3.918-.72 1.206-1.26.288-.552.432-1.188.432-1.908s-.144-1.356-.432-1.908a2.985 2.985 0 0 0-1.206-1.26c-.504-.3-1.08-.45-1.728-.45Zm10.707-1.458c1.116 0 2.01.294 2.682.882.684.576 1.098 1.356 1.242 2.34h-1.566c-.072-.588-.318-1.068-.738-1.44-.408-.384-.96-.576-1.656-.576-.588 0-1.05.144-1.386.432-.324.276-.486.654-.486 1.134 0 .36.108.654.324.882.228.216.504.384.828.504.336.108.792.228 1.368.36.732.168 1.32.342 1.764.522.456.168.84.444 1.152.828.324.384.486.9.486 1.548 0 .804-.306 1.458-.918 1.962-.6.504-1.404.756-2.412.756-1.176 0-2.136-.282-2.88-.846-.744-.564-1.182-1.35-1.314-2.358h1.584c.06.6.318 1.086.774 1.458.468.372 1.08.558 1.836.558.564 0 1.002-.144 1.314-.432.324-.288.486-.666.486-1.134 0-.384-.114-.69-.342-.918a2.243 2.243 0 0 0-.846-.522c-.336-.12-.798-.246-1.386-.378-.732-.168-1.32-.336-1.764-.504a2.804 2.804 0 0 1-1.116-.792c-.3-.372-.45-.87-.45-1.494 0-.828.306-1.494.918-1.998.612-.516 1.446-.774 2.502-.774Zm15.293 4.518c0 .348-.024.648-.072.9h-7.902c.036 1.128.354 1.974.954 2.538.612.564 1.356.846 2.232.846.792 0 1.452-.198 1.98-.594.54-.408.87-.948.99-1.62h1.746a4.098 4.098 0 0 1-.81 1.836c-.408.54-.942.96-1.602 1.26-.66.3-1.404.45-2.232.45-.948 0-1.788-.204-2.52-.612a4.399 4.399 0 0 1-1.728-1.746c-.408-.768-.612-1.668-.612-2.7 0-1.032.204-1.932.612-2.7a4.37 4.37 0 0 1 1.728-1.764c.732-.408 1.572-.612 2.52-.612.96 0 1.794.204 2.502.612.72.408 1.266.954 1.638 1.638.384.684.576 1.44.576 2.268Zm-1.656.108c.036-.732-.084-1.344-.36-1.836a2.632 2.632 0 0 0-1.134-1.098 3.452 3.452 0 0 0-1.566-.36c-.9 0-1.656.282-2.268.846-.612.552-.942 1.368-.99 2.448h6.318Z" fill="#A0A0A0"/><path d="m55.692 37.56-6.806 6.333-6.316-12.74 3.269-7.326c.85-1.488 2.176-1.47 3.004 0l6.85 13.734Z" fill="#ACACAC"/><path d="m42.57 31.154 6.316 12.74-25.437 23.661L42.57 31.154Z" fill="#6A6A6A"/><path d="M63.136 27.881c1.215-1.168 2.473-.769 2.794.886l6.622 38.474-21.947 13.175c-.765.425-2.805.607-2.805.607s-1.858-.22-2.565-.637l-21.786-12.83L63.136 27.88Z" fill="#9B9B9B"/><path d="M42.572 31.154 23.453 67.555l8.515-53.2c.314-1.657 1.258-1.816 2.1-.354l8.504 17.153Z" fill="#ACACAC"/></svg>