<svg width="147" height="138" viewBox="0 0 147 138" fill="none" xmlns="http://www.w3.org/2000/svg">
<g clip-path="url(#clip0_15_64)">
<path d="M61.802 125.21H56.33L55.322 128H53.594L58.13 115.526H60.02L64.538 128H62.81L61.802 125.21ZM61.334 123.878L59.066 117.542L56.798 123.878H61.334ZM82.2829 115.454L78.6469 128H76.8109L73.8949 117.902L70.8709 128L69.0529 128.018L65.5429 115.454H67.2889L70.0249 126.092L73.0489 115.454H74.8849L77.7649 126.056L80.5189 115.454H82.2829ZM88.0535 128.126C87.2255 128.126 86.4815 127.982 85.8215 127.694C85.1735 127.394 84.6635 126.986 84.2915 126.47C83.9195 125.942 83.7275 125.336 83.7155 124.652H85.4615C85.5215 125.24 85.7615 125.738 86.1815 126.146C86.6135 126.542 87.2375 126.74 88.0535 126.74C88.8335 126.74 89.4455 126.548 89.8895 126.164C90.3455 125.768 90.5735 125.264 90.5735 124.652C90.5735 124.172 90.4415 123.782 90.1775 123.482C89.9135 123.182 89.5835 122.954 89.1875 122.798C88.7915 122.642 88.2575 122.474 87.5855 122.294C86.7575 122.078 86.0915 121.862 85.5875 121.646C85.0955 121.43 84.6695 121.094 84.3095 120.638C83.9615 120.17 83.7875 119.546 83.7875 118.766C83.7875 118.082 83.9615 117.476 84.3095 116.948C84.6575 116.42 85.1435 116.012 85.7675 115.724C86.4035 115.436 87.1295 115.292 87.9455 115.292C89.1215 115.292 90.0815 115.586 90.8255 116.174C91.5815 116.762 92.0075 117.542 92.1035 118.514H90.3035C90.2435 118.034 89.9915 117.614 89.5475 117.254C89.1035 116.882 88.5155 116.696 87.7835 116.696C87.0995 116.696 86.5415 116.876 86.1095 117.236C85.6775 117.584 85.4615 118.076 85.4615 118.712C85.4615 119.168 85.5875 119.54 85.8395 119.828C86.1035 120.116 86.4215 120.338 86.7935 120.494C87.1775 120.638 87.7115 120.806 88.3955 120.998C89.2235 121.226 89.8895 121.454 90.3935 121.682C90.8975 121.898 91.3295 122.24 91.6895 122.708C92.0495 123.164 92.2295 123.788 92.2295 124.58C92.2295 125.192 92.0675 125.768 91.7435 126.308C91.4195 126.848 90.9395 127.286 90.3035 127.622C89.6675 127.958 88.9175 128.126 88.0535 128.126Z" fill="#A0A0A0"/>
<g clip-path="url(#clip1_15_64)">
<path d="M41.9034 31.2336C41.9034 33.0034 42.0951 34.4383 42.4304 35.4906C42.8137 36.5428 43.2928 37.6908 43.9636 38.9344C44.2031 39.317 44.2989 39.6997 44.2989 40.0345C44.2989 40.5128 44.0115 40.9911 43.3886 41.4694L40.3703 43.4783C39.9391 43.7653 39.5079 43.9088 39.1247 43.9088C38.6456 43.9088 38.1665 43.6697 37.6874 43.2392C37.0166 42.5217 36.4417 41.7564 35.9626 40.9911C35.4835 40.178 35.0044 39.2692 34.4774 38.1691C30.7404 42.5695 26.0452 44.7698 20.3919 44.7698C16.3674 44.7698 13.1575 43.6218 10.8099 41.3259C8.4623 39.0301 7.26456 35.9689 7.26456 32.1424C7.26456 28.0768 8.70185 24.7764 11.6244 22.2892C14.5469 19.802 18.4276 18.5584 23.3623 18.5584C24.9912 18.5584 26.6681 18.7019 28.4407 18.9411C30.2134 19.1802 32.034 19.5629 33.9504 19.9933V16.5017C33.9504 12.8665 33.1838 10.3315 31.6986 8.84872C30.1655 7.36596 27.5784 6.6485 23.8893 6.6485C22.2125 6.6485 20.4877 6.83982 18.715 7.2703C16.9424 7.70078 15.2176 8.22692 13.5408 8.89655C12.7742 9.23137 12.1993 9.42269 11.8639 9.51836C11.5285 9.61402 11.289 9.66185 11.0974 9.66185C10.4266 9.66185 10.0912 9.18354 10.0912 8.17909V5.83537C10.0912 5.07008 10.1871 4.49611 10.4266 4.16129C10.6662 3.82647 11.0974 3.49166 11.7681 3.15684C13.4449 2.29588 15.4572 1.57842 17.8047 1.00445C20.1523 0.382644 22.6436 0.0956581 25.2787 0.0956581C30.98 0.0956581 35.1481 1.38709 37.8311 3.96997C40.4661 6.55284 41.8076 10.475 41.8076 15.7364V31.2336H41.9034ZM22.452 38.5039C24.033 38.5039 25.662 38.2169 27.3867 37.643C29.1115 37.069 30.6446 36.0167 31.9382 34.5818C32.7047 33.673 33.2796 32.6685 33.5671 31.5206C33.8546 30.3727 34.0462 28.9856 34.0462 27.3593V25.3504C32.6568 25.0156 31.1716 24.7286 29.6385 24.5373C28.1054 24.346 26.6202 24.2503 25.135 24.2503C21.925 24.2503 19.5774 24.8721 17.9964 26.1635C16.4154 27.455 15.6488 29.2725 15.6488 31.6641C15.6488 33.9121 16.2237 35.5862 17.4215 36.7342C18.5713 37.9299 20.2481 38.5039 22.452 38.5039V38.5039ZM60.9237 43.6697C60.0613 43.6697 59.4864 43.5262 59.1031 43.1913C58.7198 42.9044 58.3844 42.2347 58.097 41.3259L46.8382 4.35261C46.5507 3.39599 46.407 2.77419 46.407 2.43937C46.407 1.67408 46.7902 1.2436 47.5568 1.2436H52.252C53.1623 1.2436 53.7851 1.38709 54.1205 1.72191C54.5037 2.0089 54.7912 2.67853 55.0787 3.58732L63.1275 35.2514L70.6015 3.58732C70.841 2.6307 71.1285 2.0089 71.5118 1.72191C71.895 1.43492 72.5658 1.2436 73.4282 1.2436H77.2609C78.1712 1.2436 78.7941 1.38709 79.1773 1.72191C79.5606 2.0089 79.896 2.67853 80.0876 3.58732L87.6574 35.6341L95.9458 3.58732C96.2333 2.6307 96.5686 2.0089 96.904 1.72191C97.2873 1.43492 97.9101 1.2436 98.7725 1.2436H103.228C103.995 1.2436 104.426 1.62625 104.426 2.43937C104.426 2.67853 104.378 2.91768 104.33 3.20467C104.282 3.49166 104.186 3.8743 103.995 4.40044L92.4484 41.3738C92.1609 42.3304 91.8256 42.9522 91.4423 43.2392C91.059 43.5262 90.4362 43.7175 89.6217 43.7175H85.5015C84.5912 43.7175 83.9683 43.574 83.5851 43.2392C83.2018 42.9044 82.8664 42.2826 82.6748 41.3259L75.2487 10.475L67.8706 41.2781C67.6311 42.2347 67.3436 42.8565 66.9603 43.1913C66.577 43.5262 65.9063 43.6697 65.0439 43.6697H60.9237ZM122.488 44.9611C119.997 44.9611 117.505 44.6741 115.11 44.1001C112.714 43.5262 110.846 42.9044 109.6 42.1869C108.834 41.7564 108.307 41.2781 108.115 40.8476C107.923 40.4172 107.827 39.9388 107.827 39.5084V37.069C107.827 36.0645 108.211 35.5862 108.929 35.5862C109.217 35.5862 109.504 35.6341 109.792 35.7297C110.079 35.8254 110.51 36.0167 110.99 36.208C112.618 36.9255 114.391 37.4995 116.26 37.8821C118.176 38.2648 120.045 38.4561 121.961 38.4561C124.979 38.4561 127.327 37.9299 128.956 36.8777C130.585 35.8254 131.447 34.2948 131.447 32.3337C131.447 30.9945 131.016 29.8943 130.154 28.9856C129.291 28.0768 127.662 27.2636 125.315 26.4983L118.368 24.346C114.87 23.2458 112.283 21.6196 110.702 19.4672C109.121 17.3626 108.307 15.0189 108.307 12.5317C108.307 10.5228 108.738 8.75306 109.6 7.22247C110.463 5.69188 111.612 4.35261 113.05 3.30033C114.487 2.20022 116.116 1.38709 118.032 0.813122C119.949 0.239151 121.961 -3.8147e-06 124.069 -3.8147e-06C125.123 -3.8147e-06 126.225 0.0478271 127.279 0.19132C128.381 0.334813 129.387 0.526137 130.393 0.71746C131.351 0.956615 132.262 1.19577 133.124 1.48276C133.986 1.76974 134.657 2.05673 135.136 2.34371C135.807 2.72636 136.286 3.10901 136.573 3.53949C136.861 3.92213 137.005 4.44827 137.005 5.11791V7.36596C137.005 8.37041 136.621 8.89655 135.903 8.89655C135.519 8.89655 134.897 8.70523 134.082 8.32258C131.351 7.07898 128.285 6.45718 124.883 6.45718C122.153 6.45718 119.997 6.88765 118.511 7.79644C117.026 8.70523 116.26 10.0923 116.26 12.0534C116.26 13.3927 116.739 14.5406 117.697 15.4494C118.655 16.3582 120.428 17.267 122.967 18.0801L129.77 20.2325C133.22 21.3326 135.711 22.8632 137.196 24.8243C138.681 26.7853 139.4 29.0334 139.4 31.5206C139.4 33.5773 138.969 35.4427 138.154 37.069C137.292 38.6952 136.142 40.1302 134.657 41.2781C133.172 42.4739 131.399 43.3348 129.339 43.9566C127.183 44.6263 124.931 44.9611 122.488 44.9611V44.9611Z" fill="#646464"/>
<path fill-rule="evenodd" clip-rule="evenodd" d="M131.543 68.2069C115.78 79.8299 92.8795 86.0001 73.1885 86.0001C45.5924 86.0001 20.7272 75.812 1.94655 58.8799C0.461342 57.5406 1.80282 55.723 3.57548 56.7753C23.8893 68.5417 48.9461 75.6686 74.8654 75.6686C92.3525 75.6686 111.564 72.0334 129.243 64.5718C131.878 63.376 134.13 66.2937 131.543 68.2069V68.2069Z" fill="#B4B4B4"/>
<path fill-rule="evenodd" clip-rule="evenodd" d="M138.106 60.7453C136.094 58.1624 124.788 59.5017 119.661 60.1235C118.128 60.3148 117.889 58.9755 119.278 57.9711C128.285 51.6574 143.089 53.475 144.814 55.5795C146.539 57.7319 144.335 72.5117 135.903 79.5907C134.609 80.6908 133.363 80.1168 133.938 78.6819C135.855 73.9466 140.119 63.2803 138.106 60.7453V60.7453Z" fill="#B4B4B4"/>
</g>
</g>
<defs>
<clipPath>
<rect width="147" height="138" fill="white"/>
</clipPath>
<clipPath id="clip1_15_64">
<rect width="147" height="86" fill="white"/>
</clipPath>
</defs>
</svg>
