<svg width="96" height="138" viewBox="0 0 96 138" fill="none" xmlns="http://www.w3.org/2000/svg">
<g clip-path="url(#clip0_7502_63974)">
<g clip-path="url(#clip1_7502_63974)">
<path d="M3.91543 0.570566C3.4745 0.564846 3.03767 0.656033 2.63562 0.837723C2.23356 1.01941 1.87603 1.2872 1.58814 1.62227C1.30024 1.95735 1.08896 2.35159 0.969138 2.77731C0.849313 3.20303 0.823847 3.64991 0.894529 4.08655L13.7188 82.185C13.8786 83.1407 14.3689 84.0094 15.1037 84.6385C15.8385 85.2676 16.7708 85.6168 17.7367 85.6248H79.2597C79.9838 85.6341 80.687 85.3821 81.2414 84.9149C81.7958 84.4476 82.1645 83.7962 82.2803 83.0791L95.1049 4.1017C95.1755 3.66508 95.1499 3.21825 95.03 2.7926C94.9101 2.36694 94.6988 1.97278 94.4109 1.63778C94.1229 1.30278 93.7654 1.03508 93.3634 0.853453C92.9613 0.671831 92.5245 0.580698 92.0836 0.586454L3.91543 0.570566ZM57.916 57.0155H38.2794L32.9624 29.1492H62.6742L57.916 57.0155Z" fill="#C2C2C2"/>
<path d="M90.9502 29.1094H62.6211L57.8665 56.9535H38.2457L15.0781 84.5401C15.8124 85.177 16.7486 85.5311 17.7193 85.5392H79.2084C79.9319 85.5485 80.6347 85.2969 81.1888 84.83C81.7429 84.3632 82.1113 83.7122 82.2271 82.9957L90.9502 29.1094Z" fill="#B4B4B4"/>
</g>
<path d="M14.168 121.538C14.624 121.61 15.038 121.796 15.41 122.096C15.794 122.396 16.094 122.768 16.31 123.212C16.538 123.656 16.652 124.13 16.652 124.634C16.652 125.27 16.49 125.846 16.166 126.362C15.842 126.866 15.368 127.268 14.744 127.568C14.132 127.856 13.406 128 12.566 128H7.886V115.454H12.386C13.238 115.454 13.964 115.598 14.564 115.886C15.164 116.162 15.614 116.54 15.914 117.02C16.214 117.5 16.364 118.04 16.364 118.64C16.364 119.384 16.16 120.002 15.752 120.494C15.356 120.974 14.828 121.322 14.168 121.538ZM9.524 120.872H12.278C13.046 120.872 13.64 120.692 14.06 120.332C14.48 119.972 14.69 119.474 14.69 118.838C14.69 118.202 14.48 117.704 14.06 117.344C13.64 116.984 13.034 116.804 12.242 116.804H9.524V120.872ZM12.422 126.65C13.238 126.65 13.874 126.458 14.33 126.074C14.786 125.69 15.014 125.156 15.014 124.472C15.014 123.776 14.774 123.23 14.294 122.834C13.814 122.426 13.172 122.222 12.368 122.222H9.524V126.65H12.422ZM19.7711 116.534C19.4591 116.534 19.1951 116.426 18.9791 116.21C18.7631 115.994 18.6551 115.73 18.6551 115.418C18.6551 115.106 18.7631 114.842 18.9791 114.626C19.1951 114.41 19.4591 114.302 19.7711 114.302C20.0711 114.302 20.3231 114.41 20.5271 114.626C20.7431 114.842 20.8511 115.106 20.8511 115.418C20.8511 115.73 20.7431 115.994 20.5271 116.21C20.3231 116.426 20.0711 116.534 19.7711 116.534ZM20.5631 118.136V128H18.9251V118.136H20.5631ZM25.3528 119.486V125.3C25.3528 125.78 25.4548 126.122 25.6588 126.326C25.8628 126.518 26.2168 126.614 26.7207 126.614H27.9268V128H26.4508C25.5388 128 24.8548 127.79 24.3988 127.37C23.9428 126.95 23.7148 126.26 23.7148 125.3V119.486H22.4368V118.136H23.7148V115.652H25.3528V118.136H27.9268V119.486H25.3528ZM31.5494 119.972C31.8854 119.384 32.3774 118.904 33.0254 118.532C33.6734 118.16 34.4114 117.974 35.2394 117.974C36.1274 117.974 36.9254 118.184 37.6334 118.604C38.3414 119.024 38.8994 119.618 39.3074 120.386C39.7154 121.142 39.9194 122.024 39.9194 123.032C39.9194 124.028 39.7154 124.916 39.3074 125.696C38.8994 126.476 38.3354 127.082 37.6154 127.514C36.9074 127.946 36.1154 128.162 35.2394 128.162C34.3874 128.162 33.6374 127.976 32.9894 127.604C32.3534 127.232 31.8734 126.758 31.5494 126.182V128H29.9114V114.68H31.5494V119.972ZM38.2454 123.032C38.2454 122.288 38.0954 121.64 37.7954 121.088C37.4954 120.536 37.0874 120.116 36.5714 119.828C36.0674 119.54 35.5094 119.396 34.8974 119.396C34.2974 119.396 33.7394 119.546 33.2234 119.846C32.7194 120.134 32.3114 120.56 31.9994 121.124C31.6994 121.676 31.5494 122.318 31.5494 123.05C31.5494 123.794 31.6994 124.448 31.9994 125.012C32.3114 125.564 32.7194 125.99 33.2234 126.29C33.7394 126.578 34.2974 126.722 34.8974 126.722C35.5094 126.722 36.0674 126.578 36.5714 126.29C37.0874 125.99 37.4954 125.564 37.7954 125.012C38.0954 124.448 38.2454 123.788 38.2454 123.032ZM50.8235 118.136V128H49.1855V126.542C48.8735 127.046 48.4355 127.442 47.8715 127.73C47.3195 128.006 46.7075 128.144 46.0355 128.144C45.2675 128.144 44.5775 127.988 43.9655 127.676C43.3535 127.352 42.8675 126.872 42.5075 126.236C42.1595 125.6 41.9855 124.826 41.9855 123.914V118.136H43.6055V123.698C43.6055 124.67 43.8515 125.42 44.3435 125.948C44.8355 126.464 45.5075 126.722 46.3595 126.722C47.2355 126.722 47.9255 126.452 48.4295 125.912C48.9335 125.372 49.1855 124.586 49.1855 123.554V118.136H50.8235ZM52.9771 123.05C52.9771 122.03 53.1811 121.142 53.5891 120.386C53.9971 119.618 54.5611 119.024 55.2811 118.604C56.0131 118.184 56.8471 117.974 57.7831 117.974C58.9951 117.974 59.9911 118.268 60.7711 118.856C61.5631 119.444 62.0851 120.26 62.3371 121.304H60.5731C60.4051 120.704 60.0751 120.23 59.5831 119.882C59.1031 119.534 58.5031 119.36 57.7831 119.36C56.8471 119.36 56.0911 119.684 55.5151 120.332C54.9391 120.968 54.6511 121.874 54.6511 123.05C54.6511 124.238 54.9391 125.156 55.5151 125.804C56.0911 126.452 56.8471 126.776 57.7831 126.776C58.5031 126.776 59.1031 126.608 59.5831 126.272C60.0631 125.936 60.3931 125.456 60.5731 124.832H62.3371C62.0731 125.84 61.5451 126.65 60.7531 127.262C59.9611 127.862 58.9711 128.162 57.7831 128.162C56.8471 128.162 56.0131 127.952 55.2811 127.532C54.5611 127.112 53.9971 126.518 53.5891 125.75C53.1811 124.982 52.9771 124.082 52.9771 123.05ZM70.0307 128L66.1607 123.644V128H64.5227V114.68H66.1607V122.51L69.9587 118.136H72.2447L67.6007 123.05L72.2627 128H70.0307ZM82.7864 122.69C82.7864 123.002 82.7684 123.332 82.7324 123.68H74.8484C74.9084 124.652 75.2384 125.414 75.8384 125.966C76.4504 126.506 77.1884 126.776 78.0524 126.776C78.7604 126.776 79.3484 126.614 79.8164 126.29C80.2964 125.954 80.6324 125.51 80.8244 124.958H82.5884C82.3244 125.906 81.7964 126.68 81.0044 127.28C80.2124 127.868 79.2284 128.162 78.0524 128.162C77.1164 128.162 76.2764 127.952 75.5324 127.532C74.8004 127.112 74.2244 126.518 73.8044 125.75C73.3844 124.97 73.1744 124.07 73.1744 123.05C73.1744 122.03 73.3784 121.136 73.7864 120.368C74.1944 119.6 74.7644 119.012 75.4964 118.604C76.2404 118.184 77.0924 117.974 78.0524 117.974C78.9884 117.974 79.8164 118.178 80.5364 118.586C81.2564 118.994 81.8084 119.558 82.1924 120.278C82.5884 120.986 82.7864 121.79 82.7864 122.69ZM81.0944 122.348C81.0944 121.724 80.9564 121.19 80.6804 120.746C80.4044 120.29 80.0264 119.948 79.5464 119.72C79.0784 119.48 78.5564 119.36 77.9804 119.36C77.1524 119.36 76.4444 119.624 75.8564 120.152C75.2804 120.68 74.9504 121.412 74.8664 122.348H81.0944ZM86.9465 119.486V125.3C86.9465 125.78 87.0485 126.122 87.2525 126.326C87.4565 126.518 87.8105 126.614 88.3145 126.614H89.5205V128H88.0445C87.1325 128 86.4485 127.79 85.9925 127.37C85.5365 126.95 85.3085 126.26 85.3085 125.3V119.486H84.0305V118.136H85.3085V115.652H86.9465V118.136H89.5205V119.486H86.9465Z" fill="#A0A0A0"/>
</g>
<defs>
<clipPath id="clip0_7502_63974">
<rect width="95" height="138" fill="white" transform="translate(0.5)"/>
</clipPath>
<clipPath id="clip1_7502_63974">
<rect width="95" height="86" fill="white" transform="translate(0.5)"/>
</clipPath>
</defs>
</svg>
