<svg width="96" height="136" viewBox="0 0 96 136" fill="none" xmlns="http://www.w3.org/2000/svg">
<g>
<path d="M91.2987 69.9693C86.2832 72.6235 60.3019 83.4695 54.7706 86.3973C49.2393 89.3254 46.1666 89.2971 41.7969 87.1763C37.4275 85.0555 9.77877 73.7164 4.79815 71.2992C2.30912 70.0916 1 69.0718 1 68.1087V58.464C1 58.464 36.9954 50.5081 42.8064 48.3914C48.6171 46.2747 50.6333 46.1983 55.5783 48.0373C60.524 49.8771 90.0935 55.2936 94.9809 57.111L94.9787 66.6193C94.9794 67.5727 93.8516 68.6186 91.2987 69.9693Z" fill="#CBCBCB"/>
<path d="M91.2968 60.3829C86.2817 63.0359 60.3011 73.8823 54.7698 76.8097C49.2389 79.7382 46.1662 79.7095 41.7968 77.5887C37.427 75.4694 9.77942 64.1284 4.79917 61.7127C-0.181084 59.2956 -0.285344 57.6321 4.6068 55.6872C9.49894 53.7416 36.995 42.789 42.8067 40.6723C48.6174 38.5563 50.6332 38.4792 55.5782 40.3189C60.5236 42.158 86.3492 52.5947 91.2359 54.4118C96.1243 56.231 96.3119 57.729 91.2968 60.3829Z" fill="#EBEBEB"/>
<path d="M91.2987 54.3636C86.2832 57.0182 60.3019 67.8638 54.7706 70.7927C49.2393 73.7197 46.1666 73.6914 41.7969 71.5706C37.4271 69.4509 9.77877 58.1107 4.79815 55.6935C2.30912 54.4859 1 53.4676 1 52.5041V42.8583C1 42.8583 36.9954 34.9028 42.8064 32.7861C48.6171 30.6694 50.6333 30.5926 55.5783 32.432C60.5244 34.2714 90.0939 39.6868 94.9809 41.5046L94.9787 51.0139C94.9794 51.967 93.8516 53.0129 91.2987 54.3636Z" fill="#CBCBCB"/>
<path d="M91.2968 44.7772C86.2817 47.431 60.3011 58.2766 54.7698 61.2052C49.2389 64.1326 46.1662 64.1039 41.7968 61.983C37.427 59.8637 9.77942 48.5231 4.79917 46.1071C-0.181084 43.6907 -0.285344 42.0268 4.6068 40.0812C9.49894 38.1367 36.9953 27.1834 42.8067 25.067C48.6174 22.9507 50.6332 22.8739 55.5782 24.7133C60.5236 26.5523 86.3492 36.9883 91.2359 38.8061C96.1243 40.625 96.3119 42.1234 91.2968 44.7772Z" fill="#EBEBEB"/>
<path d="M91.2987 38.1793C86.2832 40.8331 60.3019 51.6795 54.7706 54.6084C49.2393 57.5358 46.1666 57.5071 41.7969 55.3862C37.4271 53.2665 9.77877 41.9259 4.79815 39.5099C2.30912 38.3012 1 37.2825 1 36.3201V26.6739C1 26.6739 36.9954 18.7188 42.8064 16.6025C48.6171 14.4854 50.6333 14.4094 55.5783 16.2484C60.5244 18.0878 90.0939 23.5032 94.9809 25.3209L94.9787 34.83C94.9794 35.7823 93.8516 36.8281 91.2987 38.1793Z" fill="#CBCBCB"/>
<path d="M91.2966 28.5912C86.2815 31.245 60.3009 42.0914 54.7696 45.0188C49.2387 47.9462 46.166 47.9175 41.7966 45.7978C37.4272 43.677 9.77924 32.3371 4.79935 29.9207C-0.181267 27.5047 -0.28516 25.8405 4.60662 23.8952C9.49876 21.9503 36.9951 10.9985 42.8065 8.88139C48.6172 6.76467 50.633 6.68863 55.578 8.52804C60.5234 10.3675 86.349 20.8034 91.2357 22.6212C96.1242 24.4387 96.3118 25.9374 91.2966 28.5912Z" fill="#EBEBEB"/>
<path d="M59.4762 19.2101L51.396 20.0617L49.5873 24.4808L46.6658 19.5496L37.3356 18.6983L44.2975 16.1492L42.2087 12.2363L48.7267 14.8245L54.8715 12.782L53.2107 16.828L59.4762 19.2101ZM49.1049 40.6486L34.025 34.2984L55.6332 30.9308L49.1049 40.6486ZM28.1978 21.6663C34.5764 21.6663 39.7472 23.7014 39.7472 26.2114C39.7472 28.7221 34.5764 30.7568 28.1978 30.7568C21.8192 30.7568 16.6484 28.7217 16.6484 26.2114C16.6484 23.7014 21.8192 21.6663 28.1978 21.6663Z" fill="white"/>
<path d="M69.0234 20.4183L81.8122 25.5493L69.0345 30.6754L69.0234 20.418" fill="#979797"/>
<path d="M54.875 26.1002L69.0235 20.418L69.0345 30.6751L67.6472 31.2259L54.875 26.1002Z" fill="#BBBBBB"/>
</g>
<path d="M33.7212 130L31.0652 125.44H29.3052V130H27.8492V118.848H31.4492C32.2919 118.848 33.0012 118.992 33.5772 119.28C34.1639 119.568 34.6012 119.957 34.8892 120.448C35.1772 120.939 35.3212 121.499 35.3212 122.128C35.3212 122.896 35.0972 123.573 34.6492 124.16C34.2119 124.747 33.5505 125.136 32.6652 125.328L35.4652 130H33.7212ZM29.3052 124.272H31.4492C32.2385 124.272 32.8305 124.08 33.2252 123.696C33.6199 123.301 33.8172 122.779 33.8172 122.128C33.8172 121.467 33.6199 120.955 33.2252 120.592C32.8412 120.229 32.2492 120.048 31.4492 120.048H29.3052V124.272ZM45.5836 125.28C45.5836 125.557 45.5676 125.851 45.5356 126.16H38.5276C38.5809 127.024 38.8742 127.701 39.4076 128.192C39.9516 128.672 40.6076 128.912 41.3756 128.912C42.0049 128.912 42.5276 128.768 42.9436 128.48C43.3702 128.181 43.6689 127.787 43.8396 127.296H45.4076C45.1729 128.139 44.7036 128.827 43.9996 129.36C43.2956 129.883 42.4209 130.144 41.3756 130.144C40.5436 130.144 39.7969 129.957 39.1356 129.584C38.4849 129.211 37.9729 128.683 37.5996 128C37.2262 127.307 37.0396 126.507 37.0396 125.6C37.0396 124.693 37.2209 123.899 37.5836 123.216C37.9462 122.533 38.4529 122.011 39.1036 121.648C39.7649 121.275 40.5222 121.088 41.3756 121.088C42.2076 121.088 42.9436 121.269 43.5836 121.632C44.2236 121.995 44.7142 122.496 45.0556 123.136C45.4076 123.765 45.5836 124.48 45.5836 125.28ZM44.0796 124.976C44.0796 124.421 43.9569 123.947 43.7116 123.552C43.4662 123.147 43.1302 122.843 42.7036 122.64C42.2876 122.427 41.8236 122.32 41.3116 122.32C40.5756 122.32 39.9462 122.555 39.4236 123.024C38.9116 123.493 38.6182 124.144 38.5436 124.976H44.0796ZM46.9614 125.584C46.9614 124.688 47.1428 123.904 47.5054 123.232C47.8681 122.549 48.3641 122.021 48.9934 121.648C49.6334 121.275 50.3481 121.088 51.1374 121.088C51.8201 121.088 52.4548 121.248 53.0414 121.568C53.6281 121.877 54.0761 122.288 54.3854 122.8V118.16H55.8574V130H54.3854V128.352C54.0974 128.875 53.6708 129.307 53.1054 129.648C52.5401 129.979 51.8788 130.144 51.1214 130.144C50.3428 130.144 49.6334 129.952 48.9934 129.568C48.3641 129.184 47.8681 128.645 47.5054 127.952C47.1428 127.259 46.9614 126.469 46.9614 125.584ZM54.3854 125.6C54.3854 124.939 54.2521 124.363 53.9854 123.872C53.7188 123.381 53.3561 123.008 52.8974 122.752C52.4494 122.485 51.9534 122.352 51.4094 122.352C50.8654 122.352 50.3694 122.48 49.9214 122.736C49.4734 122.992 49.1161 123.365 48.8494 123.856C48.5828 124.347 48.4494 124.923 48.4494 125.584C48.4494 126.256 48.5828 126.843 48.8494 127.344C49.1161 127.835 49.4734 128.213 49.9214 128.48C50.3694 128.736 50.8654 128.864 51.4094 128.864C51.9534 128.864 52.4494 128.736 52.8974 128.48C53.3561 128.213 53.7188 127.835 53.9854 127.344C54.2521 126.843 54.3854 126.261 54.3854 125.6ZM59.0699 119.808C58.7926 119.808 58.5579 119.712 58.3659 119.52C58.1739 119.328 58.0779 119.093 58.0779 118.816C58.0779 118.539 58.1739 118.304 58.3659 118.112C58.5579 117.92 58.7926 117.824 59.0699 117.824C59.3366 117.824 59.5606 117.92 59.7419 118.112C59.9339 118.304 60.0299 118.539 60.0299 118.816C60.0299 119.093 59.9339 119.328 59.7419 119.52C59.5606 119.712 59.3366 119.808 59.0699 119.808ZM59.7739 121.232V130H58.3179V121.232H59.7739ZM65.3594 130.144C64.6874 130.144 64.0848 130.032 63.5514 129.808C63.0181 129.573 62.5968 129.253 62.2874 128.848C61.9781 128.432 61.8074 127.957 61.7754 127.424H63.2794C63.3221 127.861 63.5248 128.219 63.8874 128.496C64.2608 128.773 64.7461 128.912 65.3434 128.912C65.8981 128.912 66.3354 128.789 66.6554 128.544C66.9754 128.299 67.1354 127.989 67.1354 127.616C67.1354 127.232 66.9648 126.949 66.6234 126.768C66.2821 126.576 65.7541 126.389 65.0394 126.208C64.3888 126.037 63.8554 125.867 63.4394 125.696C63.0341 125.515 62.6821 125.253 62.3834 124.912C62.0954 124.56 61.9514 124.101 61.9514 123.536C61.9514 123.088 62.0848 122.677 62.3514 122.304C62.6181 121.931 62.9968 121.637 63.4874 121.424C63.9781 121.2 64.5381 121.088 65.1674 121.088C66.1381 121.088 66.9221 121.333 67.5194 121.824C68.1168 122.315 68.4368 122.987 68.4794 123.84H67.0234C66.9914 123.381 66.8048 123.013 66.4634 122.736C66.1328 122.459 65.6848 122.32 65.1194 122.32C64.5968 122.32 64.1808 122.432 63.8714 122.656C63.5621 122.88 63.4074 123.173 63.4074 123.536C63.4074 123.824 63.4981 124.064 63.6794 124.256C63.8714 124.437 64.1061 124.587 64.3834 124.704C64.6714 124.811 65.0661 124.933 65.5674 125.072C66.1968 125.243 66.7088 125.413 67.1034 125.584C67.4981 125.744 67.8341 125.989 68.1114 126.32C68.3994 126.651 68.5488 127.083 68.5594 127.616C68.5594 128.096 68.4261 128.528 68.1594 128.912C67.8928 129.296 67.5141 129.6 67.0234 129.824C66.5434 130.037 65.9888 130.144 65.3594 130.144Z" fill="#AFAFAF"/>
<defs>
<clipPath id="clip0_9380_56275">
<rect width="94" height="82" fill="white" transform="translate(1 7)"/>
</clipPath>
</defs>
</svg>
