<svg width="186" height="104" viewBox="0 0 186 104" fill="none" xmlns="http://www.w3.org/2000/svg"><path d="M72.178 94H70.54l-6.588-10.026V94h-1.638V81.31h1.638l6.588 10.044V81.31h1.638V94Zm11.418-9.882V94h-1.638v-2.322c-.252.804-.702 1.422-1.35 1.854-.636.42-1.38.63-2.232.63-1.14 0-2.064-.366-2.772-1.098-.708-.744-1.062-1.806-1.062-3.186v-5.76h1.638v5.598c0 .984.252 1.746.756 2.286.504.528 1.188.792 2.052.792.9 0 1.62-.288 2.16-.864.54-.588.81-1.44.81-2.556v-5.256h1.638ZM91.908 94l-2.574-3.78L87.012 94h-1.818l3.24-5.094-3.258-4.788h1.872l2.502 3.672 2.286-3.672h1.818l-3.222 4.968L93.78 94h-1.872Zm8.116-1.44V94H98.8c-1.008 0-1.764-.24-2.268-.72-.492-.48-.738-1.284-.738-2.412V85.54h-1.476v-1.422h1.476v-2.466h1.656v2.466h2.556v1.422H97.45v5.364c0 .636.114 1.074.342 1.314.24.228.648.342 1.224.342h1.008Zm12.62-11.25v9.432c0 1.044-.3 1.872-.9 2.484-.588.6-1.416.9-2.484.9-1.152 0-2.058-.336-2.718-1.008-.648-.684-.972-1.638-.972-2.862h1.638c0 .732.162 1.314.486 1.746.324.42.822.63 1.494.63.636 0 1.098-.18 1.386-.54.288-.36.432-.81.432-1.35V81.31h1.638Zm10.573 9.396c0 .6-.144 1.158-.432 1.674-.288.516-.726.936-1.314 1.26-.588.324-1.314.486-2.178.486-.84 0-1.59-.15-2.25-.45a4.187 4.187 0 0 1-1.566-1.26 3.661 3.661 0 0 1-.666-1.836h1.746a2.6 2.6 0 0 0 .36 1.062c.216.336.516.618.9.846.396.216.87.324 1.422.324.72 0 1.272-.192 1.656-.576.384-.384.576-.876.576-1.476 0-.516-.138-.936-.414-1.26a2.695 2.695 0 0 0-.99-.756c-.396-.192-.936-.396-1.62-.612a18.488 18.488 0 0 1-1.944-.738 3.483 3.483 0 0 1-1.242-1.062c-.336-.468-.504-1.086-.504-1.854 0-.66.156-1.242.468-1.746.324-.504.78-.894 1.368-1.17.6-.276 1.302-.414 2.106-.414 1.248 0 2.238.306 2.97.918a3.445 3.445 0 0 1 1.278 2.304h-1.764c-.096-.504-.354-.948-.774-1.332-.42-.384-.99-.576-1.71-.576-.66 0-1.188.174-1.584.522-.396.336-.594.816-.594 1.44 0 .492.126.894.378 1.206.264.3.588.54.972.72.384.168.912.36 1.584.576.816.264 1.47.516 1.962.756.504.24.93.606 1.278 1.098.348.48.522 1.122.522 1.926Z" fill="#A0A0A0"/><path d="M74.128 10.06a1.353 1.353 0 0 1 .376.982V29.92a1.518 1.518 0 0 1-.42 1.088 1.427 1.427 0 0 1-1.075.442c-.227 0-.452-.035-.668-.106a1.145 1.145 0 0 1-.513-.327l-12.23-15.924v14.99a1.327 1.327 0 0 1-1.367 1.367 1.27 1.27 0 0 1-.964-.39 1.353 1.353 0 0 1-.372-.977V11.165a1.435 1.435 0 0 1 .443-1.07 1.394 1.394 0 0 1 1.04-.42c.245-.001.488.045.716.137.207.08.389.215.526.39L71.797 26.16V11.042a1.326 1.326 0 0 1 1.367-1.367 1.283 1.283 0 0 1 .964.385Zm25.124 0c.264.294.404.68.39 1.074v11.943a8.94 8.94 0 0 1-1.089 4.423 7.91 7.91 0 0 1-3.003 3.066 8.475 8.475 0 0 1-4.309 1.123 8.63 8.63 0 0 1-4.357-1.101 7.883 7.883 0 0 1-3.016-3.066A8.94 8.94 0 0 1 82.78 23.1V11.156a1.429 1.429 0 0 1 .442-1.074 1.552 1.552 0 0 1 1.12-.443 1.455 1.455 0 0 1 1.043.443 1.414 1.414 0 0 1 .442 1.057V23.08a5.693 5.693 0 0 0 .748 2.91 5.369 5.369 0 0 0 4.666 2.721c.97.007 1.924-.24 2.769-.716a5.405 5.405 0 0 0 2.052-2.004c.514-.883.777-1.89.761-2.91V11.138a1.575 1.575 0 0 1 .372-1.075 1.327 1.327 0 0 1 1.03-.442 1.349 1.349 0 0 1 1.026.437Zm23.943 19.152c.186.256.284.567.278.884a1.36 1.36 0 0 1-.442 1.058 1.473 1.473 0 0 1-1.013.402 1.397 1.397 0 0 1-1.212-.62l-6.046-8.072-5.91 8.06a1.426 1.426 0 0 1-1.211.65 1.284 1.284 0 0 1-.951-.39 1.2 1.2 0 0 1-.389-.884c.006-.375.139-.736.376-1.026l6.378-8.683-6.409-8.616a1.444 1.444 0 0 1-.314-.885 1.419 1.419 0 0 1 .442-1.057 1.464 1.464 0 0 1 1.044-.442c.231 0 .46.055.667.159.22.104.407.264.545.464l5.975 8.028 5.919-7.949a1.504 1.504 0 0 1 1.181-.686 1.324 1.324 0 0 1 .981.443 1.336 1.336 0 0 1 .443.951 1.57 1.57 0 0 1-.31.885l-6.494 8.643 6.472 8.683Zm22.447-19.152a1.362 1.362 0 0 1 .443 1.043 1.338 1.338 0 0 1-.443 1.027 1.571 1.571 0 0 1-1.074.371h-5.538V29.96a1.42 1.42 0 0 1-.443 1.057 1.706 1.706 0 0 1-2.273 0 1.44 1.44 0 0 1-.442-1.057V12.5h-5.525a1.52 1.52 0 0 1-1.07-.385 1.361 1.361 0 0 1-.421-1.043 1.322 1.322 0 0 1 .421-1.013 1.52 1.52 0 0 1 1.07-.385h14.22c.395-.014.78.123 1.075.385Z" fill="#6A6A6A"/><path d="M152.45 30.893a6.555 6.555 0 0 1-2.429-2.397 1.575 1.575 0 0 1-.283-.84 1.328 1.328 0 0 1 .469-1.014c.253-.265.598-.423.964-.442a1.994 1.994 0 0 1 1.403.778 3.753 3.753 0 0 0 3.264 1.805 3.977 3.977 0 0 0 2.893-1.15 3.806 3.806 0 0 0 1.185-2.83V11.164a1.405 1.405 0 0 1 .464-1.057 1.54 1.54 0 0 1 1.089-.442 1.474 1.474 0 0 1 1.105.42 1.465 1.465 0 0 1 .421 1.07v13.668a6.736 6.736 0 0 1-.934 3.486 6.866 6.866 0 0 1-2.565 2.517 7.228 7.228 0 0 1-3.658.937 6.746 6.746 0 0 1-3.388-.871Zm21.39.23a10.258 10.258 0 0 1-3.33-2.066 1.656 1.656 0 0 1-.651-1.278 1.423 1.423 0 0 1 .443-1.009 1.39 1.39 0 0 1 1.026-.442c.328-.004.644.118.885.34a8.655 8.655 0 0 0 2.565 1.695c.955.38 1.976.566 3.003.548a5.833 5.833 0 0 0 3.313-.907c.404-.227.742-.556.98-.954a2.66 2.66 0 0 0 .374-1.315 2.917 2.917 0 0 0-1.354-2.503 12.023 12.023 0 0 0-4.024-1.477 10.804 10.804 0 0 1-4.937-2.15 5.177 5.177 0 0 1-1.725-4.136 5.505 5.505 0 0 1 .973-3.242 6.194 6.194 0 0 1 2.654-2.132 9.525 9.525 0 0 1 3.857-.748 10.55 10.55 0 0 1 3.641.624 7.655 7.655 0 0 1 2.768 1.65 1.77 1.77 0 0 1 .717 1.327 1.393 1.393 0 0 1-.421.995 1.324 1.324 0 0 1-1.012.442c-.261.01-.516-.08-.713-.252a6.41 6.41 0 0 0-2.242-1.367 7.445 7.445 0 0 0-2.716-.54 5.701 5.701 0 0 0-3.313.859 2.749 2.749 0 0 0-.904 3.595c.215.4.525.74.904.992 1.133.66 2.37 1.125 3.658 1.371a19.29 19.29 0 0 1 3.981 1.243 5.617 5.617 0 0 1 2.38 1.99 5.99 5.99 0 0 1 .836 3.331 5.338 5.338 0 0 1-1.009 3.203 6.67 6.67 0 0 1-2.756 2.18 9.285 9.285 0 0 1-3.826.779 11.536 11.536 0 0 1-4.025-.646ZM13.444 31.194a2.211 2.211 0 0 1-.235-1.42H3.174L18.088 3.526l4.897 8.608 1.42-2.512-4.268-7.52A2.609 2.609 0 0 0 18.053.727a2.32 2.32 0 0 0-2.021 1.393L.922 28.686a2.672 2.672 0 0 0-.133 2.507 2.326 2.326 0 0 0 2.212 1.067h12.655a2.32 2.32 0 0 1-2.212-1.066Z" fill="#A2A2A2"/><path d="M42.541 28.686 30.126 6.813a2.615 2.615 0 0 0-2.093-1.393 2.313 2.313 0 0 0-2.021 1.389l-1.606 2.813 1.429 2.512 2.211-3.914L40.33 29.774h-4.671c.06.356.026.722-.097 1.061a1.343 1.343 0 0 1-.098.217l-.04.08a2.674 2.674 0 0 1-2.251 1.127h7.307a2.67 2.67 0 0 0 2.252-1.127 2.319 2.319 0 0 0-.19-2.446Z" fill="#8A8A8A"/><path d="m35.424 31.132.04-.08c.038-.07.07-.142.097-.217.123-.34.157-.705.097-1.061a3.234 3.234 0 0 0-.407-1.088l-9.408-16.552-1.437-2.512-1.429 2.512-9.404 16.552a3.35 3.35 0 0 0-.362 1.088c-.076.42-.028.854.137 1.247.024.06.052.117.084.173a2.325 2.325 0 0 0 2.212 1.066h17.515a2.68 2.68 0 0 0 2.265-1.128ZM24.406 14.646l8.598 15.128H15.811l8.595-15.128Z" fill="#6A6A6A"/></svg>