<svg width="107" height="137" viewBox="0 0 107 137" fill="none" xmlns="http://www.w3.org/2000/svg"><path d="M8.952 121.888V127H7.314v-12.69h4.032c1.452 0 2.538.342 3.258 1.026.72.672 1.08 1.596 1.08 2.772 0 1.188-.372 2.118-1.116 2.79-.744.66-1.818.99-3.222.99H8.952Zm2.25-1.368c.996 0 1.71-.21 2.142-.63.444-.42.666-1.014.666-1.782 0-.792-.222-1.392-.666-1.8-.432-.42-1.146-.63-2.142-.63h-2.25v4.842h2.25Zm10.877-3.528c.948 0 1.794.204 2.538.612a4.307 4.307 0 0 1 1.764 1.764c.432.768.648 1.668.648 2.7 0 1.032-.216 1.932-.648 2.7a4.336 4.336 0 0 1-1.764 1.746c-.744.408-1.59.612-2.538.612-.948 0-1.8-.204-2.556-.612a4.486 4.486 0 0 1-1.764-1.746c-.432-.768-.648-1.668-.648-2.7 0-1.032.216-1.932.648-2.7a4.454 4.454 0 0 1 1.764-1.764c.756-.408 1.608-.612 2.556-.612Zm0 1.44c-.588 0-1.134.132-1.638.396-.492.264-.894.672-1.206 1.224-.3.54-.45 1.212-.45 2.016 0 .792.15 1.464.45 2.016.312.54.714.942 1.206 1.206.504.264 1.05.396 1.638.396.588 0 1.128-.132 1.62-.396.504-.264.906-.666 1.206-1.206.312-.552.468-1.224.468-2.016 0-.804-.156-1.476-.468-2.016-.3-.552-.702-.96-1.206-1.224a3.372 3.372 0 0 0-1.62-.396Zm10.18-1.44c1.117 0 2.01.294 2.683.882.684.576 1.098 1.356 1.242 2.34h-1.566c-.072-.588-.318-1.068-.738-1.44-.408-.384-.96-.576-1.656-.576-.588 0-1.05.144-1.386.432-.324.276-.486.654-.486 1.134 0 .36.108.654.324.882.228.216.504.384.828.504.336.108.792.228 1.368.36.732.168 1.32.342 1.764.522.456.168.84.444 1.152.828.324.384.486.9.486 1.548 0 .804-.306 1.458-.918 1.962-.6.504-1.404.756-2.412.756-1.176 0-2.136-.282-2.88-.846-.744-.564-1.182-1.35-1.314-2.358h1.584c.06.6.318 1.086.774 1.458.468.372 1.08.558 1.836.558.564 0 1.002-.144 1.314-.432.324-.288.486-.666.486-1.134 0-.384-.114-.69-.342-.918a2.243 2.243 0 0 0-.846-.522c-.336-.12-.798-.246-1.386-.378-.732-.168-1.32-.336-1.764-.504a2.804 2.804 0 0 1-1.116-.792c-.3-.372-.45-.87-.45-1.494 0-.828.306-1.494.918-1.998.612-.516 1.446-.774 2.502-.774Zm10.92 8.568V127h-1.225c-1.008 0-1.764-.24-2.268-.72-.492-.48-.738-1.284-.738-2.412v-5.328h-1.476v-1.422h1.476v-2.466h1.656v2.466h2.556v1.422h-2.556v5.364c0 .636.114 1.074.342 1.314.24.228.648.342 1.224.342h1.008Zm6.048-8.568c.96 0 1.77.24 2.43.72a3.735 3.735 0 0 1 1.404 1.926v-2.52H54.7v10.044c0 .912-.192 1.722-.576 2.43a4.137 4.137 0 0 1-1.62 1.656c-.696.396-1.506.594-2.43.594-1.332 0-2.418-.324-3.258-.972-.84-.636-1.374-1.5-1.602-2.592h1.62c.192.66.552 1.176 1.08 1.548.54.384 1.23.576 2.07.576.888 0 1.62-.288 2.196-.864.588-.564.882-1.356.882-2.376v-2.682a3.735 3.735 0 0 1-1.404 1.926c-.66.48-1.47.72-2.43.72-.876 0-1.656-.204-2.34-.612-.684-.408-1.224-.99-1.62-1.746-.384-.768-.576-1.668-.576-2.7 0-1.032.192-1.932.576-2.7.396-.768.936-1.356 1.62-1.764.684-.408 1.464-.612 2.34-.612Zm.468 1.458c-1.008 0-1.818.324-2.43.972-.6.636-.9 1.518-.9 2.646s.3 2.016.9 2.664c.612.636 1.422.954 2.43.954.648 0 1.224-.15 1.728-.45.516-.3.918-.72 1.206-1.26.288-.552.432-1.188.432-1.908s-.144-1.356-.432-1.908a2.985 2.985 0 0 0-1.206-1.26c-.504-.3-1.08-.45-1.728-.45Zm9.25.666a3.58 3.58 0 0 1 1.421-1.584c.624-.384 1.368-.576 2.232-.576v1.782h-.504c-.924 0-1.68.24-2.268.72-.588.468-.882 1.248-.882 2.34V127h-1.638v-9.882h1.638v1.998Zm14.36 2.394c0 .348-.025.648-.073.9H65.33c.036 1.128.354 1.974.954 2.538.612.564 1.356.846 2.232.846.792 0 1.452-.198 1.98-.594.54-.408.87-.948.99-1.62h1.746a4.098 4.098 0 0 1-.81 1.836c-.408.54-.942.96-1.602 1.26-.66.3-1.404.45-2.232.45-.948 0-1.788-.204-2.52-.612a4.399 4.399 0 0 1-1.728-1.746c-.408-.768-.612-1.668-.612-2.7 0-1.032.204-1.932.612-2.7a4.37 4.37 0 0 1 1.728-1.764c.732-.408 1.572-.612 2.52-.612.96 0 1.794.204 2.502.612.72.408 1.266.954 1.638 1.638.384.684.576 1.44.576 2.268Zm-1.657.108c.036-.732-.084-1.344-.36-1.836a2.632 2.632 0 0 0-1.134-1.098 3.452 3.452 0 0 0-1.566-.36c-.9 0-1.656.282-2.268.846-.612.552-.942 1.368-.99 2.448h6.318Zm11.827 2.088c0 .6-.144 1.158-.432 1.674-.288.516-.726.936-1.314 1.26-.588.324-1.314.486-2.178.486-.84 0-1.59-.15-2.25-.45a4.187 4.187 0 0 1-1.566-1.26 3.661 3.661 0 0 1-.666-1.836h1.746a2.6 2.6 0 0 0 .36 1.062c.216.336.516.618.9.846.396.216.87.324 1.422.324.72 0 1.272-.192 1.656-.576.384-.384.576-.876.576-1.476 0-.516-.138-.936-.414-1.26a2.695 2.695 0 0 0-.99-.756c-.396-.192-.936-.396-1.62-.612a18.488 18.488 0 0 1-1.944-.738 3.483 3.483 0 0 1-1.242-1.062c-.336-.468-.504-1.086-.504-1.854 0-.66.156-1.242.468-1.746.324-.504.78-.894 1.368-1.17.6-.276 1.302-.414 2.106-.414 1.248 0 2.238.306 2.97.918a3.445 3.445 0 0 1 1.278 2.304H81.44c-.096-.504-.354-.948-.774-1.332-.42-.384-.99-.576-1.71-.576-.66 0-1.188.174-1.584.522-.396.336-.594.816-.594 1.44 0 .492.126.894.378 1.206.264.3.588.54.972.72.384.168.912.36 1.584.576.816.264 1.47.516 1.962.756.504.24.93.606 1.278 1.098.348.48.522 1.122.522 1.926Zm12.408 5.76-2.556-2.574c-.6.168-1.212.252-1.836.252-1.176 0-2.244-.276-3.204-.828a5.89 5.89 0 0 1-2.232-2.304c-.54-.996-.81-2.118-.81-3.366 0-1.248.27-2.364.81-3.348a5.858 5.858 0 0 1 2.232-2.322c.96-.552 2.028-.828 3.204-.828 1.176 0 2.232.276 3.168.828a5.858 5.858 0 0 1 2.232 2.322c.54.984.81 2.1.81 3.348 0 1.26-.27 2.388-.81 3.384a5.764 5.764 0 0 1-2.232 2.286l3.294 3.15h-2.07Zm-8.946-8.82c0 .996.192 1.872.576 2.628.396.756.936 1.338 1.62 1.746.696.396 1.482.594 2.358.594.864 0 1.638-.204 2.322-.612a4.174 4.174 0 0 0 1.62-1.728c.396-.756.594-1.632.594-2.628 0-1.008-.198-1.884-.594-2.628-.384-.756-.924-1.332-1.62-1.728-.684-.408-1.458-.612-2.322-.612-.876 0-1.662.204-2.358.612-.684.396-1.224.972-1.62 1.728-.384.744-.576 1.62-.576 2.628Zm14.617 5.076h4.5V127h-6.138v-12.69h1.638v11.412Z" fill="#A0A0A0"/><path d="M65.333 64.328c.459-3.803.321-4.36 3.17-3.744l.724.063c2.19.099 5.057-.35 6.74-1.128 3.625-1.672 5.774-4.463 2.2-3.73-8.152 1.672-8.712-1.072-8.712-1.072 8.608-12.697 12.207-28.814 9.1-32.76-8.472-10.76-23.137-5.672-23.382-5.54l-.078.015c-1.611-.332-3.414-.53-5.439-.563-3.689-.06-6.488.961-8.612 2.562 0 0-26.161-10.714-24.944 13.474.259 5.146 7.42 38.936 15.96 28.73 3.122-3.732 6.138-6.888 6.138-6.888 1.498.99 3.292 1.494 5.173 1.313l.145-.124c-.045.464-.025.917.058 1.453-2.2 2.444-1.553 2.873-5.952 3.773-4.45.912-1.836 2.535-.129 2.96 2.07.514 6.857 1.243 10.093-3.259l-.13.514c.864.686.805 4.933.928 7.967.122 3.035.327 5.867.949 7.536.622 1.67 1.357 5.97 7.138 4.738 4.831-1.03 8.525-2.51 8.862-16.29" fill="#6A6A6A"/><path d="M65.333 64.328c.459-3.803.321-4.36 3.17-3.744l.724.063c2.19.099 5.057-.35 6.74-1.128 3.625-1.672 5.774-4.463 2.2-3.73-8.152 1.672-8.712-1.072-8.712-1.072 8.608-12.697 12.207-28.814 9.1-32.76-8.472-10.76-23.137-5.672-23.382-5.54l-.078.015c-1.611-.332-3.414-.53-5.439-.563-3.689-.06-6.488.961-8.612 2.562 0 0-26.161-10.714-24.944 13.474.259 5.146 7.42 38.936 15.96 28.73 3.122-3.732 6.138-6.888 6.138-6.888 1.498.99 3.292 1.494 5.173 1.313l.145-.124c-.045.464-.025.917.058 1.453-2.2 2.444-1.553 2.873-5.952 3.773-4.45.912-1.836 2.535-.129 2.96 2.07.514 6.857 1.243 10.093-3.259l-.13.514c.864.686.805 4.933.928 7.967.122 3.035.327 5.867.949 7.536.622 1.67 1.357 5.97 7.138 4.738 4.831-1.03 8.525-2.51 8.862-16.29" stroke="#6A6A6A" stroke-width="7.925"/><path d="M78.169 55.789c-8.153 1.672-8.714-1.072-8.714-1.072 8.609-12.698 12.207-28.816 9.102-32.76-8.472-10.76-23.138-5.672-23.383-5.54l-.078.014c-1.611-.332-3.414-.53-5.44-.563-3.69-.06-6.487.961-8.611 2.562 0 0-26.162-10.714-24.945 13.475.259 5.145 7.42 38.935 15.96 28.73a156.798 156.798 0 0 1 6.138-6.888c1.498.989 3.292 1.494 5.172 1.312l.146-.123c-.045.463-.025.917.059 1.453-2.2 2.444-1.554 2.873-5.953 3.773-4.45.912-1.836 2.535-.129 2.96 2.07.514 6.858 1.243 10.093-3.26l-.13.514c.863.687 1.468 4.465 1.367 7.89-.102 3.426-.17 5.777.51 7.614.679 1.837 1.356 5.97 7.138 4.738 4.832-1.03 7.335-3.697 7.684-8.146.247-3.163.806-2.695.842-5.523l.448-1.339c.518-4.287.082-5.67 3.06-5.027l.723.063c2.19.1 5.058-.35 6.74-1.128 3.624-1.672 5.774-4.463 2.2-3.73Z" fill="#7C7C7C"/><path d="M47.938 58.246c-.224 7.978.056 16.011.842 17.964.786 1.952 2.467 5.75 8.25 4.519 4.83-1.03 6.589-3.022 7.351-7.42.562-3.236 1.645-12.222 1.784-14.063M41.004 18.252S14.824 7.614 16.04 31.803c.259 5.146 7.42 38.937 15.961 28.73 3.121-3.732 5.944-6.66 5.944-6.66M55.144 16.31c-.907.283 14.563-5.621 23.354 5.545 3.105 3.945-.494 20.063-9.102 32.76" stroke="#fff" stroke-width="2.642" stroke-linecap="round" stroke-linejoin="round"/><path d="M69.4 54.616s.561 2.745 8.715 1.072c3.572-.734 1.422 2.058-2.2 3.73-2.974 1.372-9.64 1.724-9.75-.172-.28-4.89 3.51-3.405 3.236-4.63-.247-1.104-1.942-2.187-3.063-4.888-.978-2.358-13.42-20.438 3.45-17.753.619-.127-4.4-15.951-20.187-16.208-15.785-.258-15.267 19.296-15.267 19.296" stroke="#fff" stroke-width="2.642" stroke-linecap="round" stroke-linejoin="bevel"/><path d="M43.514 56.288c-2.2 2.444-1.553 2.873-5.952 3.773-4.45.912-1.835 2.535-.129 2.959 2.07.515 6.857 1.243 10.092-3.26.986-1.37-.005-3.558-1.359-4.115-.653-.27-1.528-.607-2.651.643v0Z" stroke="#fff" stroke-width="2.642" stroke-linecap="round" stroke-linejoin="round"/><path d="M43.371 56.245c-.222-1.436.475-3.146 1.221-5.146 1.123-3.001 3.711-6.003 1.64-15.522-1.543-7.094-11.896-1.477-11.902-.515-.007.962.468 4.876-.173 9.434-.837 5.947 3.807 10.977 9.154 10.462" stroke="#fff" stroke-width="2.642" stroke-linecap="round" stroke-linejoin="round"/><path d="M40.905 34.918c-.047.329.605 1.206 1.455 1.323.848.117 1.574-.568 1.62-.896.046-.329-.605-.69-1.455-.808-.849-.118-1.575.054-1.62.381Z" fill="#fff" stroke="#fff" stroke-width=".881"/><path d="M66.747 34.248c.046.329-.605 1.205-1.455 1.323-.85.117-1.575-.568-1.622-.896-.045-.329.606-.69 1.456-.808.849-.118 1.575.053 1.62.381Z" fill="#fff" stroke="#fff" stroke-width=".44"/><path d="M69.785 31.975c.14 2.577-.559 4.332-.647 7.075-.13 3.988 1.913 8.552-1.165 13.121" stroke="#fff" stroke-width="2.642" stroke-linecap="round" stroke-linejoin="round"/></svg>