<svg width="133" height="138" viewBox="0 0 133 138" fill="none" xmlns="http://www.w3.org/2000/svg"><path d="M44.54 121.736 48.39 128h-1.854l-3.006-4.896L40.67 128h-1.818l3.834-6.264-3.852-6.282h1.836l3.024 4.914 2.88-4.914h1.836l-3.87 6.282Zm5.437 1.314c0-1.02.204-1.908.612-2.664a4.407 4.407 0 0 1 1.692-1.782c.732-.42 1.566-.63 2.502-.63 1.212 0 2.208.294 2.988.882.792.588 1.314 1.404 1.566 2.448h-1.764a2.518 2.518 0 0 0-.99-1.422c-.48-.348-1.08-.522-1.8-.522-.936 0-1.692.324-2.268.972-.576.636-.864 1.542-.864 2.718 0 1.188.288 2.106.864 2.754.576.648 1.332.972 2.268.972.72 0 1.32-.168 1.8-.504.48-.336.81-.816.99-1.44h1.764c-.264 1.008-.792 1.818-1.584 2.43-.792.6-1.782.9-2.97.9-.936 0-1.77-.21-2.502-.63a4.407 4.407 0 0 1-1.692-1.782c-.408-.768-.612-1.668-.612-2.7Zm15.848 5.112c-.924 0-1.764-.21-2.52-.63a4.58 4.58 0 0 1-1.764-1.782c-.42-.78-.63-1.68-.63-2.7 0-1.008.216-1.896.648-2.664a4.51 4.51 0 0 1 1.8-1.782c.756-.42 1.602-.63 2.538-.63.936 0 1.782.21 2.538.63.756.408 1.35.996 1.782 1.764.444.768.666 1.662.666 2.682s-.228 1.92-.684 2.7a4.634 4.634 0 0 1-1.818 1.782c-.768.42-1.62.63-2.556.63Zm0-1.44c.588 0 1.14-.138 1.656-.414.516-.276.93-.69 1.242-1.242.324-.552.486-1.224.486-2.016s-.156-1.464-.468-2.016c-.312-.552-.72-.96-1.224-1.224a3.356 3.356 0 0 0-1.638-.414c-.6 0-1.152.138-1.656.414-.492.264-.888.672-1.188 1.224-.3.552-.45 1.224-.45 2.016 0 .804.144 1.482.432 2.034.3.552.696.966 1.188 1.242a3.372 3.372 0 0 0 1.62.396Zm6.6-3.69c0-1.008.203-1.89.611-2.646a4.446 4.446 0 0 1 1.674-1.782c.72-.42 1.524-.63 2.412-.63.768 0 1.482.18 2.142.54.66.348 1.164.81 1.512 1.386v-5.22h1.656V128h-1.656v-1.854c-.324.588-.804 1.074-1.44 1.458-.636.372-1.38.558-2.232.558a4.564 4.564 0 0 1-2.394-.648c-.708-.432-1.266-1.038-1.674-1.818-.408-.78-.612-1.668-.612-2.664Zm8.351.018c0-.744-.15-1.392-.45-1.944a3.098 3.098 0 0 0-1.224-1.26 3.211 3.211 0 0 0-1.674-.45c-.612 0-1.17.144-1.674.432a3.134 3.134 0 0 0-1.206 1.26c-.3.552-.45 1.2-.45 1.944 0 .756.15 1.416.45 1.98.3.552.702.978 1.206 1.278a3.314 3.314 0 0 0 1.674.432c.612 0 1.17-.144 1.674-.432.516-.3.924-.726 1.224-1.278.3-.564.45-1.218.45-1.962Zm13.425-.36c0 .312-.018.642-.054.99h-7.885c.06.972.39 1.734.99 2.286.613.54 1.35.81 2.215.81.707 0 1.296-.162 1.764-.486.48-.336.816-.78 1.008-1.332h1.763a4.284 4.284 0 0 1-1.584 2.322c-.792.588-1.776.882-2.952.882-.935 0-1.775-.21-2.52-.63a4.492 4.492 0 0 1-1.727-1.782c-.42-.78-.63-1.68-.63-2.7 0-1.02.204-1.914.612-2.682a4.254 4.254 0 0 1 1.71-1.764c.743-.42 1.596-.63 2.555-.63.937 0 1.765.204 2.485.612.72.408 1.272.972 1.656 1.692.395.708.594 1.512.594 2.412Zm-1.692-.342c0-.624-.138-1.158-.415-1.602a2.605 2.605 0 0 0-1.133-1.026c-.468-.24-.99-.36-1.567-.36-.828 0-1.535.264-2.124.792-.575.528-.905 1.26-.99 2.196h6.228Z" fill="#A0A0A0"/><g fill="#939393"><path d="m86.871 35.238.436-1.452c1.452-5.224 2.927-10.447 4.935-15.505.895-2.273 2.419-3.543 4.79-3.821 1.573-.171 3.242-.316 4.306 1.185.7.945 1.5 1.5 2.625 1.706.531.072 1.05.218 1.572.41.701.267.967-.023 1.162-.677l1.863-6.336c.701-2.394.701-2.37-1.621-3.194-.967-.338-1.837-.485-2.854-.048-1.645.677-3.145.41-4.463-.919-1.404-1.404-2.999-2.491-4.909-3.168C89.223 1.508 83.587.663 77.806 1.58c-2.783.436-5.49 1.185-7.836 2.855-.338.241-.604.532-.919.823 3.194-.267 6.265-.315 9.337.097 2.08.266 3.943.967 5.321 2.733 1.452 1.863 1.79 4.063 1.97 6.29.266 3.119-.316 6.12-1.186 9.095l-2.685 9.481c-.121.411-.218.788.338.919l4.717 1.378.008-.014ZM71.994 82.792c1.522.12 2.756-.58 3.544-1.934.466-.81.815-1.682 1.04-2.589l6.916-28.831L86.3 37.465c.193-.788 0-1.09-.748-1.257l-3.048-.847c-1.863-.556-1.5-.485-2.055 1.05L66.7 75.524c-.194.531-.363 1.113-.388 1.67-.131 3.288 2.179 5.586 5.683 5.611v-.013ZM25.07 24.764l.288 2.129 2.104 13.932 2.056 14.044 2.128 14.126 1.331 8.951c.098.63.315.92 1.05.798l13.207-2.103 18.842-2.927c.242-.049.436-.339.654-.532-.267-.131-.58-.41-.823-.387l-10.28 1.549-20.803 3.265c-.726.12-.967-.048-1.05-.748l-1.293-9.035-3.024-20.003-3.276-21.825c-.12-.798.131-1.162.945-1.258l4.184-.653 17.126-2.783 28.88-4.74 6.506-1.114c.267-.048.46-.435.677-.653l-.87-.339c-.072-.023-.17.024-.266.049L75.26 15.86l-49.49 8.13c-.603.097-.918.266-.7.787v-.013Zm68.936-8.03c-.131 0-.289 0-.436-.024-.072.604-.288 1.234-.218 1.838l.968 5.877 2.625 15.771 4.331 25.833c.097.508 0 .87-.63.967l-13.959 2.178-6.601 1.09c-.193.023-.363.338-.532.53.242.121.46.34.677.34.701-.05 1.378-.171 2.056-.267l20.173-3.242-8.466-50.892.012.001ZM75.646 47.21c.557-.556.46-.967.073-1.426l-4.523-5.443-12.723-15.36c-.339-.41-.63-.966-.726-1.5-.17-1.039.531-1.968 1.549-2.393 1.089-.411 2.031-.121 2.95.967l12.506 14.962 3.047 3.605c.532-.557.46-.968.072-1.427l-5.007-5.99L62.778 21.21c-1.355-1.573-3.413-1.67-4.91-.363-1.474 1.283-1.548 3.098-.17 4.741l15.674 18.916 2.273 2.709.002-.003ZM58.958 37.012c-.17-.12-.362-.288-.58-.387l-5.007-1.837c-.532-.193-.788 0-.968.459l-9.142 22.47c-.242.556-.073.823.435 1.016l4.692 1.934c.847.388 1.186.193 1.5-.653l9.057-23.003.013.001Zm15.94 10.391-3.242-4.134c-.823-1.27-1.741-1.925-3.264-1.27-.362.132-.787.132-1.161.194l-9.713 1.67c-.508.096-.945.217-1.161.822l-1.96 5.346c-.072.193-.072.436-.12.787l20.608-3.386.013-.029ZM47.71 45.251l-11.634 1.886.748 5.273c.097.749.41.847 1.09.749l5.998-.823c.603-.072.992-.315 1.233-.87l2.25-5.224c.12-.29.17-.532.315-.992Z"/><path d="m90.231 60.345-7.28-4.427c.097.46.048.992.288 1.257a5.8 5.8 0 0 0 1.621 1.258c.823.459 1.707.787 2.54 1.185 1.234.603 2.129 1.475 2.129 2.975 0 .242.12.486.218.748l.241-.12a.971.971 0 0 0 .17-.218c1.452-2.153 1.55-4.523.92-6.956-.701-2.71-1.96-5.056-4.597-6.41-.726-.363-1.185-.05-1.717.314-.556.387-.87.847-.725 1.67.387-.242.725-.411.967-.654.604-.63 1.162-.486 1.837-.048 2.66 1.863 4.332 6.554 3.387 9.41l.001.016ZM41.59 70.48c.097.049.193.098.288.121l7.259-9.056-.823-.436-4.62-1.864c-.726-.315-.945-.097-.993.654l-.639 6.119-.46 4.462h-.012Zm15.6-41.702c-1.404.131-2.323.726-2.855 1.96l-1.113 2.66c-.241.508-.17.823.411 1.016l4.838 1.79c.58.218.823.024 1.04-.485l1.161-2.756c.508-1.234.289-2.274-.823-3-.798-.508-1.765-.797-2.66-1.185h.001Zm28.374 16.69 6.037-.846c.17-.024.387-.46.362-.654l-.87-4.79c-.048-.242-.46-.58-.7-.58a32.677 32.677 0 0 0-3.048.386c-.508.072-.87.315-.58 1.04l2.806-.339c.218-.023.63.17.653.315l.701 3.75-4.499.604c-.532.072-1.016.193-.847 1.113l-.015.001Zm1.307-10.23-4.692-1.355c-.557-.171-.46-.508-.339-.92l2.686-9.48c.87-2.976 1.451-5.999 1.185-9.096-.193-2.225-.508-4.402-1.969-6.29-1.378-1.765-3.242-2.467-5.32-2.732-3.072-.411-6.121-.363-9.338-.098.315-.266.58-.58.919-.822 2.347-1.67 5.055-2.42 7.835-2.855 5.806-.919 11.42-.049 16.908 1.837 1.911.654 3.507 1.766 4.909 3.169 1.331 1.33 2.829 1.596 4.462.918 1.016-.435 1.886-.288 2.855.05 2.323.822 2.323.797 1.621 3.192l-1.864 6.337c-.193.654-.459.919-1.161.677a7.175 7.175 0 0 0-1.573-.41c-1.136-.171-1.959-.726-2.625-1.707-1.089-1.475-2.732-1.354-4.305-1.185-2.37.267-3.894 1.549-4.79 3.822-2.009 5.056-3.484 10.28-4.935 15.505l-.46 1.426-.009.016ZM71.994 82.792c-3.507-.024-5.805-2.297-5.683-5.613.023-.556.193-1.136.387-1.67l13.761-39.062c.532-1.548.193-1.596 2.056-1.05l3.047.847c.749.17.945.485.749 1.257l-2.807 11.973-6.916 28.831a10.004 10.004 0 0 1-1.04 2.589c-.798 1.33-2.032 2.032-3.544 1.91l-.01-.012ZM25.069 24.764c-.218-.508.097-.677.726-.787l49.488-8.104 8.103-1.354c.097-.024.193-.072.267-.049l.87.339c-.218.218-.41.604-.677.654l-6.506 1.113-13.91 2.257-14.973 2.468-17.126 2.782-4.184.654c-.798.097-1.05.46-.945 1.257l6.279 41.826 1.306 9.022c.097.7.315.87 1.05.748l20.803-3.266 10.28-1.548c.241-.024.556.241.823.387-.218.193-.411.485-.654.531l-18.816 2.93-13.207 2.104c-.748.12-.967-.17-1.05-.798l-1.33-8.952-2.13-14.126-2.055-14.044-2.433-16.03.001-.014Zm68.937-8.03 8.514 50.941-4.74.788-15.433 2.467-2.056.267c-.218.023-.459-.218-.677-.339.17-.193.339-.486.532-.532l6.602-1.089 13.932-2.179c.63-.097.701-.459.63-.967l-1.707-10.063-5.25-31.542-.967-5.877c-.072-.58.132-1.208.218-1.838.12-.023.242-.023.387-.023l.015-.014Z"/><path d="m75.647 47.21-2.274-2.708L57.7 25.586c-1.378-1.645-1.305-3.435.171-4.74 1.523-1.332 3.58-1.235 4.909.361L77.873 39.18c.387.46.485.87-.073 1.427l-3.047-3.604L62.247 22.04c-.919-1.089-1.864-1.404-2.95-.967-1.04.411-1.717 1.355-1.549 2.394.072.532.362 1.09.726 1.5L75.72 45.77c.387.46.508.87-.072 1.427l-.001.015Zm-16.69-10.197-.289.822-8.794 22.229c-.338.846-.653 1.04-1.5.654l-4.692-1.935c-.532-.218-.677-.46-.436-1.016l9.143-22.47c.193-.486.436-.677.967-.46l5.008 1.838c.218.049.387.218.58.339l.013-.002Zm-5.71-1.208-1.161 2.878-7.498 18.36c-.29.725-.132 1.015.531 1.257l2.855 1.162c.726.362 1.016.217 1.306-.532l8.492-21.48-4.523-1.644-.002-.001Zm21.65 11.599L54.313 50.79c.049-.339.049-.557.121-.788l1.96-5.346c.217-.603.653-.748 1.161-.822l9.713-1.67c.387-.072.798-.049 1.161-.193 1.523-.604 2.42.049 3.266 1.282.895 1.379 2.008 2.625 3.215 4.135l-.013.016Zm-19.254 2.2 17.487-2.887-2.878-3.604c-.17-.193-.556-.289-.846-.267l-2.492.388-8.61 1.5c-.362.072-.895.289-1.015.58-.604 1.355-1.09 2.756-1.645 4.305l-.001-.014Zm-7.934-4.353-.315.945-2.25 5.224c-.241.58-.604.798-1.234.87l-5.998.823c-.677.097-.992 0-1.09-.748l-.747-5.274 11.634-1.837v-.003Zm-1.5 1.234-8.223 1.33c-.267.048-.701.485-.701.7.072 1.04.266 2.08.486 3.12a.839.839 0 0 0 .653.436l4.909-.677c.315-.049.787-.218.895-.46l1.969-4.462.011.013Zm44.02 13.86c.946-2.855-.725-7.547-3.385-9.361-.654-.46-1.208-.58-1.838.049-.242.241-.58.387-.967.653-.132-.846.17-1.282.725-1.67.532-.386.993-.676 1.717-.314 2.625 1.354 3.895 3.701 4.597 6.41.63 2.419.531 4.79-.92 6.956a2.369 2.369 0 0 1-.17.218c-.048.049-.097.049-.241.12-.072-.266-.218-.507-.218-.747 0-1.5-.895-2.37-2.129-2.976l-2.54-1.185c-.603-.338-1.185-.748-1.62-1.257-.242-.267-.194-.798-.29-1.258l7.281 4.366-.001-.004ZM41.59 70.48l.437-4.462.653-6.12c.072-.749.267-.968.992-.654l4.62 1.864c.242.097.46.241.823.435L41.857 70.6a2.194 2.194 0 0 1-.266-.121v.001Zm1.235-2.806c.072.024.13.024.193.049l4.596-5.854-3.99-1.572-.798 7.376-.001.001ZM57.19 28.78c.895.387 1.864.677 2.66 1.208 1.114.726 1.331 1.765.824 2.999l-1.162 2.756c-.193.508-.46.7-1.04.486l-4.837-1.79c-.58-.194-.63-.509-.411-1.017l1.113-2.66c.531-1.257 1.426-1.837 2.854-1.969v-.013Zm-2.95 4.813 4.04 1.475c.13.049.485-.17.58-.362l.945-2.152c.315-.678.17-1.331-.411-1.67a7.978 7.978 0 0 0-2.201-.895c-.847-.193-1.549.193-1.886 1.016l-1.05 2.588h-.017ZM85.564 45.47c-.193-.919.315-1.04.846-1.113l4.5-.603-.701-3.75c-.024-.132-.436-.339-.654-.315l-2.806.338c-.266-.748.097-.967.58-1.04l3.048-.386c.241-.024.653.338.7.58l.87 4.79c.025.193-.217.63-.361.654l-6.038.846h.016Z"/><path d="m53.248 35.832 4.523 1.644-8.492 21.48c-.288.747-.603.894-1.306.53-.918-.459-1.886-.822-2.854-1.16-.678-.242-.823-.532-.532-1.258l7.498-18.36 1.162-2.878.001.002Zm2.396 13.774 1.62-4.281c.121-.289.654-.508 1.017-.58l8.61-1.5 2.49-.388c.267-.023.678.073.847.267l2.879 3.604-17.465 2.878h.002Zm-9.433-3.12-1.969 4.426c-.12.242-.58.411-.895.46l-4.909.677c-.218.023-.63-.242-.654-.436-.217-1.016-.41-2.055-.485-3.12-.024-.218.41-.653.7-.7l8.225-1.306-.013-.002Zm-3.386 21.187.822-7.376 3.99 1.572-4.596 5.854a.694.694 0 0 1-.218-.049l.002-.001Zm11.416-34.08 1.05-2.564c.362-.823 1.04-1.207 1.886-1.016a7.274 7.274 0 0 1 2.2.895c.58.363.727.993.412 1.67l-.945 2.152c-.098.171-.436.411-.58.363l-4.04-1.5h.017Z"/></g></svg>