<svg width="55" height="143" viewBox="0 0 55 143" fill="none" xmlns="http://www.w3.org/2000/svg"><path d="M7.364 133.126c-.828 0-1.572-.144-2.232-.432-.648-.3-1.158-.708-1.53-1.224a3.178 3.178 0 0 1-.576-1.818h1.746c.06.588.3 1.086.72 1.494.432.396 1.056.594 1.872.594.78 0 1.392-.192 1.836-.576.456-.396.684-.9.684-1.512 0-.48-.132-.87-.396-1.17a2.53 2.53 0 0 0-.99-.684c-.396-.156-.93-.324-1.602-.504-.828-.216-1.494-.432-1.998-.648a3.318 3.318 0 0 1-1.278-1.008c-.348-.468-.522-1.092-.522-1.872 0-.684.174-1.29.522-1.818.348-.528.834-.936 1.458-1.224.636-.288 1.362-.432 2.178-.432 1.176 0 2.136.294 2.88.882.756.588 1.182 1.368 1.278 2.34h-1.8c-.06-.48-.312-.9-.756-1.26-.444-.372-1.032-.558-1.764-.558-.684 0-1.242.18-1.674.54-.432.348-.648.84-.648 1.476 0 .456.126.828.378 1.116.264.288.582.51.954.666.384.144.918.312 1.602.504.828.228 1.494.456 1.998.684.504.216.936.558 1.296 1.026.36.456.54 1.08.54 1.872 0 .612-.162 1.188-.486 1.728-.324.54-.804.978-1.44 1.314-.636.336-1.386.504-2.25.504Zm5.974-5.076c0-1.02.205-1.908.613-2.664a4.407 4.407 0 0 1 1.691-1.782c.733-.42 1.567-.63 2.503-.63 1.212 0 2.207.294 2.988.882.791.588 1.314 1.404 1.566 2.448h-1.765a2.518 2.518 0 0 0-.99-1.422c-.48-.348-1.08-.522-1.8-.522-.935 0-1.691.324-2.267.972-.577.636-.865 1.542-.865 2.718 0 1.188.288 2.106.864 2.754.577.648 1.333.972 2.269.972.72 0 1.32-.168 1.8-.504.48-.336.81-.816.99-1.44h1.764c-.265 1.008-.793 1.818-1.585 2.43-.791.6-1.782.9-2.97.9-.935 0-1.77-.21-2.501-.63a4.407 4.407 0 0 1-1.693-1.782c-.407-.768-.611-1.668-.611-2.7Zm10.934-.018c0-1.008.204-1.89.612-2.646a4.446 4.446 0 0 1 1.674-1.782c.72-.42 1.518-.63 2.394-.63.864 0 1.614.186 2.25.558.636.372 1.11.84 1.422 1.404v-1.8h1.656V133h-1.656v-1.836c-.324.576-.81 1.056-1.458 1.44-.636.372-1.38.558-2.232.558-.876 0-1.668-.216-2.376-.648-.708-.432-1.266-1.038-1.674-1.818-.408-.78-.612-1.668-.612-2.664Zm8.352.018c0-.744-.15-1.392-.45-1.944a3.098 3.098 0 0 0-1.224-1.26 3.211 3.211 0 0 0-1.674-.45c-.612 0-1.17.144-1.674.432a3.134 3.134 0 0 0-1.206 1.26c-.3.552-.45 1.2-.45 1.944 0 .756.15 1.416.45 1.98.3.552.702.978 1.206 1.278a3.314 3.314 0 0 0 1.674.432c.612 0 1.17-.144 1.674-.432.516-.3.924-.726 1.224-1.278.3-.564.45-1.218.45-1.962Zm6.062-8.37V133h-1.638v-13.32h1.638Zm2.18 8.352c0-1.008.204-1.89.612-2.646a4.446 4.446 0 0 1 1.674-1.782c.72-.42 1.518-.63 2.394-.63.864 0 1.614.186 2.25.558.636.372 1.11.84 1.422 1.404v-1.8h1.656V133h-1.656v-1.836c-.324.576-.81 1.056-1.458 1.44-.636.372-1.38.558-2.232.558-.876 0-1.668-.216-2.376-.648-.708-.432-1.266-1.038-1.674-1.818-.408-.78-.612-1.668-.612-2.664Zm8.352.018c0-.744-.15-1.392-.45-1.944a3.098 3.098 0 0 0-1.224-1.26 3.211 3.211 0 0 0-1.674-.45c-.612 0-1.17.144-1.674.432a3.134 3.134 0 0 0-1.206 1.26c-.3.552-.45 1.2-.45 1.944 0 .756.15 1.416.45 1.98.3.552.702.978 1.206 1.278a3.314 3.314 0 0 0 1.674.432c.612 0 1.17-.144 1.674-.432.516-.3.924-.726 1.224-1.278.3-.564.45-1.218.45-1.962Z" fill="#A0A0A0"/><path d="M0 54.753v6.844c0 1.154 25.003 3.086 41.293 6.844C49.163 66.625 55 64.384 55 61.597v-6.844c0-2.786-5.838-5.028-13.707-6.844C25.003 51.668 0 53.6 0 54.753ZM0 27.376v6.845c0 1.153 25.003 3.085 41.293 6.844C49.163 39.249 55 37.008 55 34.22v-6.845c0-2.785-5.838-5.028-13.707-6.844C25.003 24.292 0 26.224 0 27.376Z" fill="#4F4F4F"/><path d="M0 41.065v20.532c0-1.711 55-5.133 55-13.688V27.376c0 8.556-55 11.978-55 13.689ZM0 13.688V34.22c0-1.71 55-5.133 55-13.688V0C55 8.555 0 11.977 0 13.688ZM0 68.441v20.532c0-1.71 55-5.133 55-13.688V54.753C55 63.308 0 66.73 0 68.44Z" fill="#A3A3A3"/></svg>