<svg width="96" height="136" viewBox="0 0 96 136" fill="none" xmlns="http://www.w3.org/2000/svg">
<g>
<path d="M86.685 72.1303C81.6833 72.005 77.8067 72.5077 74.5554 73.8896C73.6175 74.2662 72.1167 74.2666 71.9916 75.4604C72.4919 75.963 72.5544 76.7799 72.9921 77.4706C73.7432 78.7269 75.0553 80.4234 76.2434 81.3034C77.5562 82.3083 78.8697 83.3133 80.2447 84.1929C82.6834 85.7009 85.4348 86.5802 87.8106 88.0881C89.1867 88.967 90.5613 90.0987 91.937 91.0408C92.6248 91.5428 93.0622 92.3603 93.938 92.6741V92.486C93.4999 91.9201 93.3748 91.1037 92.9375 90.4754C92.3129 89.8471 91.6868 89.2816 91.0615 88.6532C89.2485 86.2035 86.9977 84.0673 84.5593 82.3083C82.5587 80.926 78.1815 79.0414 77.369 76.7167C77.369 76.7167 77.3061 76.6542 77.2439 76.5914C78.6192 76.4657 80.2447 75.963 81.5582 75.5861C83.6839 75.0202 85.622 75.1462 87.8106 74.5807C88.8108 74.3294 89.8113 74.0153 90.8114 73.7011V73.136C89.6865 72.005 88.8736 70.4974 87.6855 69.4293C84.4968 66.6643 80.9951 63.9633 77.369 61.7017C75.4305 60.445 72.9293 59.6282 70.8661 58.5605C70.1164 58.1831 68.8654 57.995 68.4281 57.3666C67.3022 55.9847 66.6768 54.163 65.8643 52.5293C64.0516 49.0736 62.3004 45.2416 60.7371 41.598C59.6123 39.1476 58.9244 36.6972 57.5487 34.436C51.1087 23.7556 44.1059 17.2847 33.352 10.939C31.0383 9.61994 28.2873 9.05446 25.3487 8.36367C23.7862 8.30048 22.2225 8.17518 20.6596 8.11198C19.6591 7.67216 18.6586 6.47872 17.7832 5.91323C14.22 3.65129 5.02823 -1.2485 2.40227 5.22245C0.713931 9.30579 4.90352 13.3263 6.34102 15.4001C7.40477 16.8449 8.77974 18.4781 9.53012 20.1118C9.96784 21.1792 10.0925 22.3109 10.5303 23.4415C11.5311 26.205 12.4684 29.2841 13.7819 31.8602C14.4697 33.1793 15.2197 34.5613 16.0952 35.7551C16.5954 36.4458 17.4705 36.7604 17.6585 37.891C16.7834 39.1476 16.7205 41.0326 16.2199 42.603C13.9691 49.7023 14.8449 58.4976 18.0333 63.7119C19.0334 65.282 21.4096 68.7385 24.5984 67.4186C27.4123 66.288 26.7869 62.707 27.5991 59.5658C27.7874 58.8111 27.6624 58.3091 28.0372 57.8065V57.9325C28.9126 59.6911 29.7877 61.3879 30.6006 63.1468C32.5391 66.2248 35.9151 69.4293 38.7286 71.5655C40.2297 72.6958 41.4175 74.6436 43.2934 75.3347V75.1459H43.168C42.7928 74.5804 42.23 74.3294 41.7301 73.8892C40.6049 72.759 39.3539 71.3767 38.4789 70.12C35.8533 66.6015 33.5392 62.7066 31.4761 58.6858C30.4759 56.7387 29.6001 54.6024 28.7876 52.655C28.412 51.9003 28.412 50.77 27.7871 50.3934C26.8491 51.7754 25.4738 52.9692 24.7859 54.6652C23.5986 57.3666 23.4731 60.6964 23.0354 64.1514C22.7853 64.215 22.91 64.1514 22.7849 64.2778C20.7847 63.7744 20.0968 61.7017 19.3461 59.9424C17.4701 55.4821 17.1575 48.32 18.7837 43.1685C19.2214 41.849 21.0973 37.7028 20.3469 36.4462C19.9718 35.2524 18.7208 34.5613 18.0333 33.6191C17.2207 32.4253 16.3449 30.9181 15.7825 29.5983C14.2818 26.0801 13.5314 22.1848 11.9059 18.6666C11.1556 17.033 9.84313 15.3373 8.77974 13.8293C7.59201 12.1332 6.27885 10.939 5.34088 8.9288C5.02859 8.23801 4.59051 7.10704 5.09076 6.35306C5.21582 5.8504 5.46559 5.66227 5.9662 5.5366C6.7791 4.84509 9.09276 5.72474 9.90495 6.10173C12.2186 7.04348 14.1567 7.92385 16.0952 9.24295C16.9703 9.87127 17.9082 11.0651 19.0334 11.3792H20.3466C22.3476 11.8187 24.598 11.5049 26.4739 12.07C29.7881 13.1378 32.7889 14.7086 35.4777 16.405C43.6686 21.6194 50.4205 29.0328 54.9853 37.891C55.7357 39.3354 56.048 40.6556 56.7358 42.1628C58.0493 45.2416 59.6748 48.3828 60.9872 51.3984C62.3004 54.3507 63.5506 57.3667 65.4266 59.8171C66.3645 61.1358 70.1157 61.8273 71.8041 62.5185C73.0547 63.0836 74.9931 63.5866 76.1183 64.2774C78.244 65.5962 80.3698 67.1049 82.3708 68.5493C83.3713 69.3032 86.4971 70.874 86.685 72.1303Z" fill="#A3A3A3"/>
<path d="M22.9107 17.5352C21.848 17.5352 21.098 17.6615 20.3477 17.8497V17.9753H20.4727C20.9733 18.9806 21.848 19.6718 22.473 20.5511C22.9736 21.556 23.411 22.5617 23.9116 23.567C23.9738 23.5038 24.0363 23.4413 24.0363 23.4413C24.9121 22.8127 25.3494 21.8077 25.3494 20.2998C24.9743 19.8603 24.9117 19.4205 24.5991 18.9806C24.2242 18.352 23.411 18.0382 22.9107 17.5352Z" fill="#A3A3A3"/>
</g>
<path d="M34.6924 118.928V130H33.2364V121.744L29.5564 130H28.5324L24.8364 121.728V130H23.3804V118.928H24.9484L29.0444 128.08L33.1404 118.928H34.6924ZM44.7137 121.232L39.4337 134.128H37.9297L39.6577 129.904L36.1217 121.232H37.7377L40.4897 128.336L43.2097 121.232H44.7137ZM49.7133 130.112C48.9773 130.112 48.316 129.984 47.7293 129.728C47.1533 129.461 46.7 129.099 46.3693 128.64C46.0386 128.171 45.868 127.632 45.8573 127.024H47.4093C47.4626 127.547 47.676 127.989 48.0493 128.352C48.4333 128.704 48.988 128.88 49.7133 128.88C50.4066 128.88 50.9506 128.709 51.3453 128.368C51.7506 128.016 51.9533 127.568 51.9533 127.024C51.9533 126.597 51.836 126.251 51.6013 125.984C51.3666 125.717 51.0733 125.515 50.7213 125.376C50.3693 125.237 49.8946 125.088 49.2973 124.928C48.5613 124.736 47.9693 124.544 47.5213 124.352C47.084 124.16 46.7053 123.861 46.3853 123.456C46.076 123.04 45.9213 122.485 45.9213 121.792C45.9213 121.184 46.076 120.645 46.3853 120.176C46.6946 119.707 47.1266 119.344 47.6813 119.088C48.2466 118.832 48.892 118.704 49.6173 118.704C50.6626 118.704 51.516 118.965 52.1773 119.488C52.8493 120.011 53.228 120.704 53.3133 121.568H51.7133C51.66 121.141 51.436 120.768 51.0413 120.448C50.6466 120.117 50.124 119.952 49.4733 119.952C48.8653 119.952 48.3693 120.112 47.9853 120.432C47.6013 120.741 47.4093 121.179 47.4093 121.744C47.4093 122.149 47.5213 122.48 47.7453 122.736C47.98 122.992 48.2626 123.189 48.5933 123.328C48.9346 123.456 49.4093 123.605 50.0173 123.776C50.7533 123.979 51.3453 124.181 51.7933 124.384C52.2413 124.576 52.6253 124.88 52.9453 125.296C53.2653 125.701 53.4253 126.256 53.4253 126.96C53.4253 127.504 53.2813 128.016 52.9933 128.496C52.7053 128.976 52.2786 129.365 51.7133 129.664C51.148 129.963 50.4813 130.112 49.7133 130.112ZM64.5119 132.112L62.2879 129.888C61.7439 130.037 61.1893 130.112 60.6239 130.112C59.5893 130.112 58.6453 129.872 57.7919 129.392C56.9386 128.901 56.2613 128.224 55.7599 127.36C55.2693 126.485 55.0239 125.504 55.0239 124.416C55.0239 123.328 55.2693 122.352 55.7599 121.488C56.2613 120.613 56.9386 119.936 57.7919 119.456C58.6453 118.965 59.5893 118.72 60.6239 118.72C61.6693 118.72 62.6186 118.965 63.4719 119.456C64.3253 119.936 64.9973 120.608 65.4879 121.472C65.9786 122.336 66.2239 123.317 66.2239 124.416C66.2239 125.483 65.9893 126.443 65.5199 127.296C65.0506 128.149 64.4053 128.821 63.5839 129.312L66.3999 132.112H64.5119ZM56.5119 124.416C56.5119 125.301 56.6879 126.08 57.0399 126.752C57.4026 127.424 57.8933 127.941 58.5119 128.304C59.1413 128.667 59.8453 128.848 60.6239 128.848C61.4026 128.848 62.1013 128.667 62.7199 128.304C63.3493 127.941 63.8399 127.424 64.1919 126.752C64.5546 126.08 64.7359 125.301 64.7359 124.416C64.7359 123.52 64.5546 122.741 64.1919 122.08C63.8399 121.408 63.3546 120.891 62.7359 120.528C62.1173 120.165 61.4133 119.984 60.6239 119.984C59.8346 119.984 59.1306 120.165 58.5119 120.528C57.8933 120.891 57.4026 121.408 57.0399 122.08C56.6879 122.741 56.5119 123.52 56.5119 124.416ZM69.6333 128.816H73.5373V130H68.1773V118.848H69.6333V128.816Z" fill="#AFAFAF"/>
<defs>
<clipPath id="clip0_9380_56269">
<rect width="92" height="91" fill="white" transform="translate(2 2)"/>
</clipPath>
</defs>
</svg>
