<svg width="178" height="110" viewBox="0 0 178 110" fill="none" xmlns="http://www.w3.org/2000/svg">
<path d="M47.668 93.538C48.124 93.61 48.538 93.796 48.91 94.096C49.294 94.396 49.594 94.768 49.81 95.212C50.038 95.656 50.152 96.13 50.152 96.634C50.152 97.27 49.99 97.846 49.666 98.362C49.342 98.866 48.868 99.268 48.244 99.568C47.632 99.856 46.906 100 46.066 100H41.386V87.454H45.886C46.738 87.454 47.464 87.598 48.064 87.886C48.664 88.162 49.114 88.54 49.414 89.02C49.714 89.5 49.864 90.04 49.864 90.64C49.864 91.384 49.66 92.002 49.252 92.494C48.856 92.974 48.328 93.322 47.668 93.538ZM43.024 92.872H45.778C46.546 92.872 47.14 92.692 47.56 92.332C47.98 91.972 48.19 91.474 48.19 90.838C48.19 90.202 47.98 89.704 47.56 89.344C47.14 88.984 46.534 88.804 45.742 88.804H43.024V92.872ZM45.922 98.65C46.738 98.65 47.374 98.458 47.83 98.074C48.286 97.69 48.514 97.156 48.514 96.472C48.514 95.776 48.274 95.23 47.794 94.834C47.314 94.426 46.672 94.222 45.868 94.222H43.024V98.65H45.922ZM54.0631 86.68V100H52.4251V86.68H54.0631ZM56.2428 95.032C56.2428 94.024 56.4468 93.142 56.8548 92.386C57.2628 91.618 57.8208 91.024 58.5288 90.604C59.2488 90.184 60.0468 89.974 60.9228 89.974C61.7868 89.974 62.5368 90.16 63.1728 90.532C63.8088 90.904 64.2828 91.372 64.5948 91.936V90.136H66.2508V100H64.5948V98.164C64.2708 98.74 63.7848 99.22 63.1368 99.604C62.5008 99.976 61.7568 100.162 60.9048 100.162C60.0288 100.162 59.2368 99.946 58.5288 99.514C57.8208 99.082 57.2628 98.476 56.8548 97.696C56.4468 96.916 56.2428 96.028 56.2428 95.032ZM64.5948 95.05C64.5948 94.306 64.4448 93.658 64.1448 93.106C63.8448 92.554 63.4368 92.134 62.9208 91.846C62.4168 91.546 61.8588 91.396 61.2468 91.396C60.6348 91.396 60.0768 91.54 59.5728 91.828C59.0688 92.116 58.6668 92.536 58.3668 93.088C58.0668 93.64 57.9168 94.288 57.9168 95.032C57.9168 95.788 58.0668 96.448 58.3668 97.012C58.6668 97.564 59.0688 97.99 59.5728 98.29C60.0768 98.578 60.6348 98.722 61.2468 98.722C61.8588 98.722 62.4168 98.578 62.9208 98.29C63.4368 97.99 63.8448 97.564 64.1448 97.012C64.4448 96.448 64.5948 95.794 64.5948 95.05ZM70.2428 98.65H75.0848V100H68.3708V98.65L73.1588 91.468H68.4068V90.136H75.0488V91.468L70.2428 98.65ZM86.2102 94.69C86.2102 95.002 86.1922 95.332 86.1562 95.68H78.2722C78.3322 96.652 78.6622 97.414 79.2622 97.966C79.8742 98.506 80.6122 98.776 81.4762 98.776C82.1842 98.776 82.7722 98.614 83.2402 98.29C83.7202 97.954 84.0562 97.51 84.2482 96.958H86.0122C85.7482 97.906 85.2202 98.68 84.4282 99.28C83.6362 99.868 82.6522 100.162 81.4762 100.162C80.5402 100.162 79.7002 99.952 78.9562 99.532C78.2242 99.112 77.6482 98.518 77.2282 97.75C76.8082 96.97 76.5982 96.07 76.5982 95.05C76.5982 94.03 76.8022 93.136 77.2102 92.368C77.6182 91.6 78.1882 91.012 78.9202 90.604C79.6642 90.184 80.5162 89.974 81.4762 89.974C82.4122 89.974 83.2402 90.178 83.9602 90.586C84.6802 90.994 85.2322 91.558 85.6162 92.278C86.0122 92.986 86.2102 93.79 86.2102 94.69ZM84.5182 94.348C84.5182 93.724 84.3802 93.19 84.1042 92.746C83.8282 92.29 83.4502 91.948 82.9702 91.72C82.5022 91.48 81.9802 91.36 81.4042 91.36C80.5762 91.36 79.8682 91.624 79.2802 92.152C78.7042 92.68 78.3742 93.412 78.2902 94.348H84.5182ZM101.098 87.544V100H99.4603V90.712L95.3203 100H94.1683L90.0103 90.694V100H88.3723V87.544H90.1363L94.7443 97.84L99.3523 87.544H101.098ZM112.876 94.69C112.876 95.002 112.858 95.332 112.822 95.68H104.938C104.998 96.652 105.328 97.414 105.928 97.966C106.54 98.506 107.278 98.776 108.142 98.776C108.85 98.776 109.438 98.614 109.906 98.29C110.386 97.954 110.722 97.51 110.914 96.958H112.678C112.414 97.906 111.886 98.68 111.094 99.28C110.302 99.868 109.318 100.162 108.142 100.162C107.206 100.162 106.366 99.952 105.622 99.532C104.89 99.112 104.314 98.518 103.894 97.75C103.474 96.97 103.264 96.07 103.264 95.05C103.264 94.03 103.468 93.136 103.876 92.368C104.284 91.6 104.854 91.012 105.586 90.604C106.33 90.184 107.182 89.974 108.142 89.974C109.078 89.974 109.906 90.178 110.626 90.586C111.346 90.994 111.898 91.558 112.282 92.278C112.678 92.986 112.876 93.79 112.876 94.69ZM111.184 94.348C111.184 93.724 111.046 93.19 110.77 92.746C110.494 92.29 110.116 91.948 109.636 91.72C109.168 91.48 108.646 91.36 108.07 91.36C107.242 91.36 106.534 91.624 105.946 92.152C105.37 92.68 105.04 93.412 104.956 94.348H111.184ZM117.036 91.486V97.3C117.036 97.78 117.138 98.122 117.342 98.326C117.546 98.518 117.9 98.614 118.404 98.614H119.61V100H118.134C117.222 100 116.538 99.79 116.082 99.37C115.626 98.95 115.398 98.26 115.398 97.3V91.486H114.12V90.136H115.398V87.652H117.036V90.136H119.61V91.486H117.036ZM130.595 94.69C130.595 95.002 130.577 95.332 130.541 95.68H122.657C122.717 96.652 123.047 97.414 123.647 97.966C124.259 98.506 124.997 98.776 125.861 98.776C126.569 98.776 127.157 98.614 127.625 98.29C128.105 97.954 128.441 97.51 128.633 96.958H130.397C130.133 97.906 129.605 98.68 128.813 99.28C128.021 99.868 127.037 100.162 125.861 100.162C124.925 100.162 124.085 99.952 123.341 99.532C122.609 99.112 122.033 98.518 121.613 97.75C121.193 96.97 120.983 96.07 120.983 95.05C120.983 94.03 121.187 93.136 121.595 92.368C122.003 91.6 122.573 91.012 123.305 90.604C124.049 90.184 124.901 89.974 125.861 89.974C126.797 89.974 127.625 90.178 128.345 90.586C129.065 90.994 129.617 91.558 130.001 92.278C130.397 92.986 130.595 93.79 130.595 94.69ZM128.903 94.348C128.903 93.724 128.765 93.19 128.489 92.746C128.213 92.29 127.835 91.948 127.355 91.72C126.887 91.48 126.365 91.36 125.789 91.36C124.961 91.36 124.253 91.624 123.665 92.152C123.089 92.68 122.759 93.412 122.675 94.348H128.903ZM134.395 91.738C134.683 91.174 135.091 90.736 135.619 90.424C136.159 90.112 136.813 89.956 137.581 89.956V91.648H137.149C135.313 91.648 134.395 92.644 134.395 94.636V100H132.757V90.136H134.395V91.738Z" fill="#A0A0A0"/>
<g clip-path="url(#clip0_1_13)">
<path d="M25.5615 7.85319C25.5615 7.17452 24.9739 6.64127 24.3373 6.64127H1.22421C0.489684 6.64127 0 7.22299 0 7.85319C0 8.53186 0.58762 9.0651 1.22421 9.0651H24.2883C24.9739 9.0651 25.5615 8.53186 25.5615 7.85319Z" fill="#BDBDBD"/>
<path d="M28.2058 3.58726C28.2058 2.90859 27.6182 2.37535 26.9816 2.37535H12.7807C12.0952 2.37535 11.5565 2.95706 11.5565 3.58726C11.5565 4.26593 12.1442 4.79917 12.7807 4.79917H26.9816C27.6671 4.75069 28.2058 4.26593 28.2058 3.58726Z" fill="#BDBDBD"/>
<path d="M23.3579 16.6274C23.3579 15.9488 22.7703 15.4155 22.1337 15.4155H16.3554C15.6699 15.464 15.1802 15.9972 15.1802 16.6274C15.1802 17.3061 15.7678 17.8393 16.4044 17.8393H22.1827C22.7703 17.8393 23.3579 17.3061 23.3579 16.6274Z" fill="#BDBDBD"/>
<path d="M21.644 12.1676C21.644 11.4889 21.0564 10.9557 20.4198 10.9557H6.36589C5.68033 10.9557 5.14168 11.5374 5.14168 12.1676C5.14168 12.8463 5.7293 13.3795 6.36589 13.3795H20.4688C21.0564 13.3795 21.644 12.7978 21.644 12.1676Z" fill="#BDBDBD"/>
<path d="M40.4479 0.0484765H33.3475C32.8578 0.0484765 32.564 0.290859 32.515 0.727147L29.1362 19.4875C29.0872 19.9238 29.2831 20.1662 29.7728 20.1662H37.5098C40.252 20.1662 42.4556 19.5845 44.1205 18.518C45.7854 17.403 46.6179 15.7064 46.6179 13.2825C46.6179 12.2645 46.373 11.392 45.8344 10.7618C45.3937 10.0831 44.7081 9.64682 43.9246 9.45291C45.0509 9.0651 45.9323 8.4349 46.5689 7.51385C47.2055 6.64127 47.4993 5.57479 47.4993 4.36288C47.5483 1.50277 45.2468 0.0484765 40.4479 0.0484765ZM37.6567 16.9668V16.9183H33.6413L34.6696 11.2465H38.7829C40.1051 11.2465 41.1334 11.392 41.721 11.7313C42.3087 12.1191 42.6025 12.6039 42.6025 13.3795C42.6025 15.7549 40.9865 16.9668 37.6567 16.9668ZM39.1747 8.33795H35.1103L36.0407 3.19945H39.9582C41.1824 3.19945 42.0638 3.34488 42.6025 3.63573C43.1901 3.92659 43.4349 4.41136 43.4349 5.09003C43.5329 7.27147 42.1128 8.33795 39.1747 8.33795ZM54.9425 0H52.3961C51.9554 0 51.7106 0.193906 51.6126 0.630194L48.2338 19.536C48.1849 19.9723 48.3807 20.1662 48.8215 20.1662H51.3678C51.7596 20.1662 52.0044 19.9723 52.0534 19.536L55.4812 0.630194C55.5791 0.193906 55.3832 0 54.9425 0V0ZM63.8547 4.84765C61.896 4.84765 59.9862 5.1385 58.1254 5.91413C57.6847 6.10803 57.4889 6.35042 57.5378 6.73823L57.7827 8.28947C57.8316 8.67729 58.0765 8.77424 58.5662 8.67729C60.0842 8.09557 61.6022 7.80471 63.0712 7.80471C64.2955 7.80471 65.0789 7.99862 65.5686 8.4349C66.0583 8.87119 66.2052 9.50139 66.0093 10.374L65.8624 11.0042H65.5686C64.6872 11.0526 63.9037 11.0526 63.1692 11.1496C62.4836 11.1981 61.6512 11.295 60.7697 11.392C59.8883 11.4404 59.1048 11.6344 58.4682 11.8767C57.8316 12.1191 57.195 12.4585 56.6074 12.7978C56.0198 13.1856 55.5791 13.7188 55.2853 14.349C54.9915 14.9792 54.8446 15.7064 54.8446 16.6274C54.8446 17.7424 55.2363 18.615 56.0688 19.3421C56.9012 20.0208 58.0275 20.3601 59.4966 20.3601C61.7001 20.3601 63.512 19.5845 64.8341 18.0332L64.6382 19.5845C64.6382 19.9723 64.8831 20.1662 65.2748 20.1662H67.4294C67.8701 20.1662 68.115 19.9723 68.2129 19.536L69.682 10.4224C69.7309 9.98615 69.8289 9.54986 69.8289 9.11357C69.7799 6.30194 67.8212 4.84765 63.8547 4.84765ZM65.3728 14.446C65.1769 15.464 64.6872 16.2881 63.9037 16.9183C63.1202 17.5485 62.1408 17.8393 60.8677 17.8393C60.1821 17.8393 59.5945 17.6939 59.2027 17.403C58.811 17.1122 58.6151 16.7244 58.6151 16.1911C58.6151 15.7549 58.6641 15.367 58.86 15.0762C59.0558 14.6884 59.3007 14.446 59.6924 14.2521C60.0842 14.0582 60.4759 13.8643 60.7697 13.7673C61.1615 13.6219 61.6512 13.5249 62.2878 13.4765C62.9243 13.428 63.414 13.331 63.8058 13.331L65.5197 13.2825L65.3728 14.446ZM84.6663 5.1385H73.9912C73.5505 5.1385 73.3056 5.33241 73.2077 5.7687L72.9139 7.6108C72.8649 7.99862 73.0608 8.241 73.5015 8.241H80.1612L71.2 17.3546C71.0041 17.5485 70.8082 17.8393 70.7593 18.1787L70.5144 19.536C70.4655 19.9723 70.6613 20.1662 71.151 20.1662H82.1199C82.5117 20.1662 82.7565 19.9723 82.8055 19.536L83.0993 17.6939C83.1483 17.2576 82.9524 17.0637 82.5117 17.0637H75.6071L84.4214 7.99862C84.7153 7.70776 84.8622 7.36842 84.9111 7.07756L85.156 5.7687C85.3029 5.33241 85.107 5.1385 84.6663 5.1385ZM94.1172 4.70222C91.8157 4.70222 90.0038 5.38089 88.4858 6.68975C87.0168 7.99862 86.0864 9.93767 85.6457 12.41C85.4988 13.0402 85.4498 13.6704 85.4498 14.2521C85.4498 16.1911 86.0864 17.7909 87.3596 18.8573C88.6327 19.9238 90.3466 20.5055 92.6481 20.5055C94.411 20.5055 96.0759 20.1177 97.6429 19.3906C98.0836 19.1482 98.2795 18.9058 98.2305 18.5665L97.9857 17.2576C97.9367 16.8213 97.5939 16.6759 97.1532 16.8698C95.8801 17.5 94.5579 17.7424 93.2358 17.6939C92.0115 17.6939 91.0322 17.403 90.2976 16.8213C89.6121 16.2396 89.2203 15.464 89.2203 14.446V14.0097H99.063C99.5527 14.0097 99.8465 13.7673 99.8955 13.331L100.14 11.9737C100.189 11.5374 100.287 10.9557 100.287 10.4224C100.287 8.72576 99.7975 7.36842 98.7202 6.35042C97.545 5.23546 96.027 4.70222 94.1172 4.70222ZM96.6635 11.4404V11.6344H89.5142C90.1507 8.91967 91.6688 7.56233 93.8723 7.56233C94.8027 7.56233 95.5373 7.80471 96.027 8.33795C96.4677 8.82272 96.7125 9.54986 96.7125 10.4224C96.7125 10.6648 96.7125 11.0526 96.6635 11.4404ZM123.498 0.0484765H120.952C120.56 0.0484765 120.266 0.193906 120.07 0.436288L112.725 9.64682L108.71 0.436288C108.563 0.193906 108.318 0.0484765 107.877 0.0484765H105.478C104.988 0.0484765 104.694 0.290859 104.645 0.727147L101.267 19.4875C101.218 19.9238 101.413 20.1662 101.903 20.1662H104.45C104.89 20.1662 105.135 19.9723 105.282 19.4875L107.583 6.5928L111.256 14.8823C111.403 15.1247 111.55 15.2701 111.844 15.2701C112.138 15.2701 112.431 15.1247 112.529 14.8823L119.14 6.5928L116.839 19.4875C116.692 19.9238 116.887 20.1662 117.426 20.1662H119.972C120.413 20.1662 120.658 19.9723 120.805 19.4875L124.184 0.727147C124.184 0.290859 123.988 0.0484765 123.498 0.0484765ZM133.194 4.70222C130.892 4.70222 129.081 5.38089 127.563 6.68975C126.094 7.99862 125.163 9.93767 124.722 12.41C124.576 13.0402 124.527 13.6704 124.527 14.2521C124.527 16.1911 125.163 17.7909 126.436 18.8573C127.709 19.9238 129.423 20.5055 131.725 20.5055C133.488 20.5055 135.153 20.1177 136.72 19.3906C137.16 19.1482 137.356 18.9058 137.307 18.5665L137.062 17.2576C137.013 16.8213 136.671 16.6759 136.23 16.8698C134.957 17.5 133.635 17.7424 132.313 17.6939C131.088 17.6939 130.109 17.403 129.374 16.8213C128.689 16.2396 128.297 15.464 128.297 14.446V14.0097H138.091C138.58 14.0097 138.874 13.7673 138.923 13.331L139.168 11.9737C139.217 11.5374 139.315 10.9557 139.315 10.4224C139.315 8.72576 138.825 7.36842 137.748 6.35042C136.622 5.23546 135.104 4.70222 133.194 4.70222ZM135.74 11.4404V11.6344H128.591C129.276 8.91967 130.746 7.56233 132.949 7.56233C133.879 7.56233 134.614 7.80471 135.104 8.33795C135.544 8.82272 135.789 9.54986 135.789 10.4224C135.789 10.6648 135.789 11.0526 135.74 11.4404ZM150.382 5.33241H147.199L147.835 1.79363C147.884 1.35734 147.689 1.16344 147.248 1.16344H144.946C144.506 1.16344 144.261 1.40582 144.163 1.79363L143.526 5.33241H141.861C141.421 5.33241 141.176 5.52632 141.078 5.9626L140.784 7.6108C140.735 7.99862 140.931 8.241 141.372 8.241H142.89L141.617 15.464C141.568 15.9488 141.47 16.482 141.47 17.0152C141.47 18.2271 141.861 19.0997 142.547 19.5845C143.232 20.1662 144.31 20.4086 145.779 20.4086C146.611 20.4086 147.297 20.2632 147.982 20.1177C148.423 19.9723 148.668 19.8269 148.668 19.4875L148.815 17.8393C148.864 17.6454 148.815 17.5485 148.766 17.403C148.619 17.2576 148.521 17.2576 148.325 17.2576C148.178 17.2576 148.031 17.2576 147.738 17.3061C147.444 17.3546 147.248 17.3546 147.052 17.3546C146.415 17.3546 145.975 17.3061 145.73 17.1122C145.485 16.9183 145.338 16.6274 145.338 16.0942C145.338 15.8518 145.338 15.5125 145.387 15.2216L146.66 8.241L149.892 8.19252C150.333 8.19252 150.578 7.99862 150.676 7.56233L150.92 5.91413C151.067 5.57479 150.872 5.33241 150.382 5.33241ZM162.428 16.8213C161.155 17.4515 159.833 17.6939 158.511 17.6454C157.286 17.6454 156.307 17.3546 155.572 16.7729C154.887 16.1911 154.495 15.4155 154.495 14.3975V13.9612H164.338C164.827 13.9612 165.121 13.7188 165.17 13.2825L165.415 11.9252C165.464 11.4889 165.562 10.9072 165.562 10.374C165.562 8.67729 165.072 7.31995 163.995 6.30194C162.918 5.28393 161.4 4.79917 159.49 4.79917C157.188 4.79917 155.377 5.47784 153.859 6.7867C152.39 8.09557 151.459 10.0346 151.018 12.5069C150.872 13.1371 150.823 13.7673 150.823 14.349C150.823 16.2881 151.459 17.8878 152.732 18.9543C154.005 20.0208 155.719 20.6025 158.021 20.6025C159.784 20.6025 161.449 20.2147 163.016 19.4875C163.456 19.2452 163.652 19.0028 163.603 18.6634L163.358 17.3546C163.212 16.7729 162.869 16.6274 162.428 16.8213ZM159.196 7.51385C160.127 7.51385 160.861 7.75623 161.351 8.28947C161.791 8.77424 162.036 9.50139 162.036 10.374C162.036 10.6648 162.036 11.0526 161.987 11.4404V11.6344H154.838C155.475 8.91967 156.993 7.51385 159.196 7.51385ZM177.461 4.9446C176.384 4.9446 175.307 5.23546 174.425 5.86565C173.544 6.49585 172.858 7.17452 172.32 7.95014L172.564 5.67175C172.613 5.23546 172.418 5.04155 171.977 5.04155H169.773C169.333 5.04155 169.088 5.23546 168.99 5.67175L166.492 19.4875C166.443 19.9238 166.639 20.1177 167.129 20.1177H169.626C170.018 20.1177 170.263 19.9238 170.312 19.4875L171.536 12.8947C171.732 11.6828 172.32 10.7133 173.103 9.8892C173.936 9.0651 174.866 8.62881 175.943 8.62881H176.825C177.119 8.62881 177.412 8.4349 177.461 8.14404L177.902 5.52632C178.049 5.1385 177.853 4.9446 177.461 4.9446ZM127.073 28.1648C126.681 27.9224 126.24 27.8255 125.8 27.8255C125.114 27.777 124.429 28.1163 124.037 28.6981V25.644H123.009V32.9155H123.988V32.1399C124.184 32.4308 124.429 32.6731 124.771 32.8186C125.065 32.964 125.457 33.0609 125.8 33.0609C126.142 33.0609 126.485 33.0125 126.828 32.867C127.122 32.7216 127.416 32.5762 127.612 32.3338C127.807 32.0914 128.003 31.8006 128.101 31.5097C128.199 31.1704 128.297 30.831 128.297 30.4917C128.297 30.0554 128.199 29.5706 128.003 29.1828C127.758 28.7465 127.465 28.4072 127.073 28.1648ZM127.024 31.3643C126.926 31.6067 126.73 31.849 126.485 31.9945C126.24 32.1399 125.947 32.2368 125.604 32.2368C125.359 32.2368 125.114 32.1884 124.918 32.0914C124.722 31.9945 124.527 31.8975 124.429 31.7036C124.282 31.5582 124.184 31.3643 124.135 31.1219C124.037 30.8795 124.037 30.6371 124.037 30.3947C124.037 30.1039 124.086 29.7645 124.233 29.4737C124.331 29.2313 124.527 28.9889 124.771 28.8435C125.31 28.5526 125.947 28.5526 126.485 28.8435C126.73 28.9889 126.926 29.2313 127.024 29.4737C127.269 30.1039 127.269 30.7826 127.024 31.3643ZM131.431 31.849L129.913 27.9224H128.836L130.843 32.867L130.599 33.5457L130.452 33.8366C130.403 33.885 130.354 33.982 130.305 34.0305C130.256 34.0789 130.207 34.079 130.158 34.1274C130.109 34.1274 130.06 34.1759 130.06 34.1759H129.913C129.717 34.1759 129.57 34.1274 129.374 34.079L129.179 34.9031L129.276 34.9515C129.374 35 129.521 35 129.619 35.0485C129.766 35.097 129.962 35.097 130.109 35.097C130.403 35.097 130.648 35 130.892 34.8546C131.137 34.6122 131.333 34.2729 131.48 33.9335L133.928 28.0194H132.851L131.431 31.849ZM141.763 26.856C141.714 26.7105 141.617 26.6136 141.519 26.5166C141.029 25.8864 140.245 25.5956 139.462 25.6925H137.405V32.964H138.434V29.813H139.462C140.098 29.8615 140.735 29.6676 141.225 29.2798C141.47 29.0859 141.617 28.8435 141.763 28.6011C141.91 28.3103 141.959 28.0194 141.959 27.7285C141.959 27.5831 141.959 27.3892 141.91 27.2438C141.861 27.0983 141.812 27.0014 141.763 26.856ZM140.735 28.3103C140.637 28.4557 140.539 28.6011 140.392 28.6981C140.05 28.892 139.707 28.9889 139.315 28.9889H138.385V26.5166H139.315C139.707 26.5166 140.05 26.6136 140.392 26.8075C140.49 26.856 140.539 26.9529 140.637 27.0499C140.686 27.1468 140.784 27.2438 140.784 27.3892C140.833 27.5346 140.833 27.6316 140.833 27.777C140.882 27.9224 140.833 28.1648 140.735 28.3103ZM146.415 28.1648C146.024 27.9709 145.583 27.874 145.191 27.874C144.848 27.874 144.506 27.9224 144.212 28.0679C143.918 28.1648 143.624 28.3587 143.379 28.6011C143.135 28.8435 142.939 29.1344 142.841 29.4252C142.694 29.7645 142.645 30.1524 142.645 30.4917C142.645 30.9765 142.743 31.4612 142.988 31.8975C143.183 32.2853 143.477 32.6247 143.869 32.8186C144.261 33.0609 144.75 33.1579 145.191 33.1579C145.338 33.1579 145.485 33.1579 145.681 33.1094C145.828 33.1094 145.975 33.0609 146.073 33.0609C146.22 33.0125 146.317 33.0125 146.415 32.964L146.709 32.8186C146.807 32.7701 146.856 32.7216 146.954 32.6731C147.003 32.6247 147.101 32.5762 147.15 32.5277C147.199 32.4792 147.248 32.4308 147.297 32.4308L147.395 32.3338L147.444 32.2853L147.003 31.7036C147.003 31.7036 146.954 31.7521 146.905 31.7521C146.856 31.8006 146.807 31.849 146.709 31.849C146.611 31.8975 146.562 31.946 146.464 31.9945C146.366 32.0429 146.268 32.0914 146.122 32.1399C145.975 32.1884 145.877 32.2368 145.73 32.2368C145.583 32.2853 145.436 32.2853 145.289 32.2853C144.848 32.2853 144.457 32.1399 144.114 31.849C143.82 31.5582 143.624 31.1219 143.624 30.6856H147.542V30.2493C147.542 29.813 147.444 29.3767 147.248 28.9889C147.052 28.6496 146.758 28.3587 146.415 28.1648ZM143.624 30.0069C143.624 29.8615 143.673 29.7645 143.673 29.6191C143.771 29.3283 143.918 29.0859 144.163 28.892C144.261 28.795 144.408 28.6981 144.555 28.6496C144.75 28.6011 144.897 28.5526 145.093 28.5526C145.289 28.5526 145.485 28.6011 145.632 28.6496C145.779 28.6981 145.926 28.795 146.024 28.892C146.122 28.9889 146.22 29.0859 146.317 29.2313C146.415 29.3283 146.464 29.4737 146.464 29.6191C146.513 29.7161 146.513 29.8615 146.513 30.0069H143.624ZM151.41 27.874H151.116C150.92 27.874 150.774 27.9224 150.627 27.9709C150.48 28.0194 150.333 28.1163 150.186 28.2618C150.039 28.4072 149.941 28.5526 149.892 28.7465H149.843V27.9709H148.815V32.964H149.843V30.4917C149.843 30.0554 149.941 29.6191 150.137 29.2313C150.235 29.1344 150.333 29.0374 150.48 28.9404C150.627 28.8435 150.823 28.795 150.969 28.795H151.557L151.606 27.9224H151.557C151.508 27.874 151.459 27.874 151.41 27.874ZM154.838 25.5956C154.691 25.5956 154.495 25.5471 154.348 25.5471C154.103 25.5471 153.859 25.5956 153.614 25.6925C153.418 25.7895 153.271 25.9349 153.124 26.0803C152.879 26.4681 152.732 26.9529 152.781 27.4377V27.9224H152.047V28.7465H152.781V32.964H153.81V28.7465H155.034V27.9224H153.81V27.0499C153.81 26.9529 153.859 26.856 153.859 26.759C153.908 26.6621 153.908 26.6136 154.005 26.5166C154.054 26.4681 154.152 26.4197 154.25 26.3712C154.348 26.3227 154.495 26.3227 154.593 26.3227C154.789 26.3227 154.985 26.3712 155.181 26.4197L155.23 25.644L155.132 25.5956H154.838ZM160.029 28.5526C159.784 28.3103 159.49 28.1163 159.196 28.0194C158.853 27.874 158.511 27.8255 158.168 27.8255C157.825 27.8255 157.433 27.874 157.09 28.0194C156.797 28.1163 156.503 28.3103 156.258 28.5526C156.013 28.795 155.817 29.0859 155.67 29.3767C155.523 29.7161 155.475 30.0554 155.475 30.4432C155.475 30.6371 155.475 30.8795 155.524 31.0734C155.572 31.2673 155.621 31.4612 155.719 31.6551C155.817 31.849 155.915 31.9945 156.013 32.1399C156.111 32.2853 156.258 32.4308 156.405 32.5277C156.552 32.6247 156.748 32.7216 156.895 32.8186C157.09 32.9155 157.286 32.964 157.482 33.0125C157.678 33.0609 157.923 33.0609 158.119 33.0609C158.462 33.0609 158.853 33.0125 159.147 32.867C159.441 32.7701 159.735 32.5762 159.98 32.3338C160.224 32.0914 160.42 31.8006 160.567 31.5097C160.861 30.831 160.861 30.0554 160.567 29.3767C160.469 29.0859 160.273 28.795 160.029 28.5526ZM159.588 31.3643C159.441 31.6067 159.245 31.849 159 31.9945C158.755 32.1399 158.413 32.2368 158.119 32.2368C157.825 32.2368 157.482 32.1399 157.237 31.9945C156.993 31.849 156.797 31.6067 156.65 31.3643C156.503 31.0734 156.454 30.7826 156.454 30.4432C156.454 30.1524 156.503 29.813 156.65 29.5706C156.797 29.3283 156.993 29.0859 157.237 28.9404C157.482 28.795 157.825 28.6981 158.119 28.6981C158.755 28.6981 159.294 29.0374 159.588 29.5706C159.735 29.8615 159.784 30.1524 159.784 30.4432C159.784 30.7341 159.686 31.0734 159.588 31.3643ZM164.681 27.874H164.387C164.191 27.874 164.044 27.9224 163.897 27.9709C163.75 28.0194 163.603 28.1163 163.456 28.2618C163.309 28.4072 163.212 28.5526 163.163 28.7465H163.114V27.9709H162.085V32.964H163.114V30.4917C163.114 30.0554 163.212 29.6191 163.407 29.2313C163.505 29.1344 163.603 29.0374 163.75 28.9404C163.897 28.8435 164.093 28.795 164.24 28.795H164.827L164.876 27.9224H164.827C164.827 27.874 164.779 27.874 164.681 27.874ZM169.626 31.6551C169.577 31.7036 169.479 31.7521 169.431 31.8006C169.333 31.849 169.235 31.946 169.137 31.9945C168.99 32.0429 168.843 32.1399 168.696 32.1399C168.5 32.1884 168.353 32.1884 168.157 32.1884C167.717 32.1884 167.276 32.0429 166.982 31.7036C166.688 31.3643 166.492 30.8795 166.541 30.3947C166.541 30.1524 166.59 29.91 166.688 29.6676C166.786 29.4737 166.884 29.2798 167.031 29.1344C167.325 28.8435 167.766 28.6496 168.206 28.6496C168.353 28.6496 168.549 28.6496 168.696 28.6981C168.843 28.7465 168.941 28.7465 169.088 28.795L169.382 28.9404C169.431 28.9889 169.528 29.0374 169.577 29.0859L169.724 29.2313L170.067 28.5042C170.067 28.4557 170.018 28.4557 170.018 28.4072C169.969 28.3587 169.92 28.3587 169.871 28.2618C169.773 28.2133 169.675 28.1163 169.577 28.0679C169.479 28.0194 169.333 27.9709 169.235 27.9224C169.088 27.874 168.892 27.8255 168.745 27.777C168.549 27.7285 168.353 27.7285 168.157 27.7285C167.472 27.7285 166.835 27.9709 166.346 28.4072C166.101 28.6496 165.905 28.9404 165.758 29.2313C165.611 29.5706 165.562 29.9585 165.562 30.2978C165.562 30.6856 165.611 31.0249 165.758 31.3643C165.905 31.6551 166.052 31.946 166.297 32.1884C166.786 32.6247 167.423 32.9155 168.108 32.867C168.353 32.867 168.549 32.867 168.794 32.8186C168.99 32.7701 169.137 32.7216 169.333 32.6731C169.479 32.6247 169.577 32.5762 169.724 32.4792C169.822 32.4308 169.92 32.3823 169.969 32.2853L170.116 32.1399L170.165 32.0914L169.822 31.3643L169.626 31.6551ZM174.572 28.1648C174.18 27.9709 173.74 27.874 173.348 27.874C173.005 27.874 172.662 27.9224 172.369 28.0679C172.075 28.1648 171.781 28.3587 171.536 28.6011C171.291 28.8435 171.095 29.1344 170.998 29.4252C170.851 29.7645 170.802 30.1524 170.802 30.4917C170.802 30.9765 170.9 31.4612 171.144 31.8975C171.34 32.2853 171.634 32.6247 172.026 32.8186C172.418 33.0609 172.907 33.1579 173.348 33.1579C173.495 33.1579 173.642 33.1579 173.838 33.1094C173.985 33.1094 174.131 33.0609 174.229 33.0609C174.376 33.0125 174.474 33.0125 174.572 32.964L174.866 32.8186C174.964 32.7701 175.013 32.7216 175.111 32.6731C175.16 32.6247 175.258 32.5762 175.307 32.5277C175.356 32.4792 175.405 32.4308 175.454 32.4308C175.503 32.4308 175.503 32.3823 175.552 32.3338L175.601 32.2853L175.16 31.7036C175.16 31.7036 175.111 31.7521 175.062 31.7521C175.013 31.7521 174.964 31.849 174.866 31.849C174.768 31.8975 174.719 31.946 174.621 31.9945C174.523 32.0429 174.425 32.0914 174.278 32.1399C174.131 32.1884 174.034 32.2368 173.887 32.2368C173.74 32.2853 173.593 32.2853 173.446 32.2853C173.005 32.2853 172.613 32.1399 172.271 31.849C171.977 31.5582 171.781 31.1219 171.781 30.6856H175.698V30.2493C175.698 29.813 175.601 29.3767 175.405 28.9889C175.209 28.6496 174.915 28.3587 174.572 28.1648ZM171.781 30.0069C171.781 29.5706 171.977 29.1828 172.32 28.892C172.418 28.795 172.564 28.6981 172.711 28.6496C172.907 28.6011 173.054 28.5526 173.25 28.5526C173.446 28.5526 173.642 28.6011 173.789 28.6496C173.936 28.6981 174.083 28.795 174.18 28.892C174.376 29.0859 174.572 29.3283 174.621 29.6191C174.67 29.7161 174.67 29.8615 174.67 30.0069H171.781Z" fill="#3F3F3F"/>
</g>
<defs>
<clipPath id="clip0_1_13">
<rect width="178" height="35" fill="white"/>
</clipPath>
</defs>
</svg>
