<svg width="234" height="106" viewBox="0 0 234 106" fill="none" xmlns="http://www.w3.org/2000/svg">
<path d="M60.217 93.21H54.745L53.737 96H52.009L56.545 83.526H58.435L62.953 96H61.225L60.217 93.21ZM59.749 91.878L57.481 85.542L55.213 91.878H59.749ZM69.7359 85.956C70.9359 85.956 71.9079 86.322 72.6519 87.054C73.3959 87.774 73.7679 88.818 73.7679 90.186V96H72.1479V90.42C72.1479 89.436 71.9019 88.686 71.4099 88.17C70.9179 87.642 70.2459 87.378 69.3939 87.378C68.5299 87.378 67.8399 87.648 67.3239 88.188C66.8199 88.728 66.5679 89.514 66.5679 90.546V96H64.9299V86.136H66.5679V87.54C66.8919 87.036 67.3299 86.646 67.8819 86.37C68.4459 86.094 69.0639 85.956 69.7359 85.956ZM75.8316 91.032C75.8316 90.024 76.0356 89.142 76.4436 88.386C76.8516 87.618 77.4096 87.024 78.1176 86.604C78.8376 86.184 79.6416 85.974 80.5296 85.974C81.2976 85.974 82.0116 86.154 82.6716 86.514C83.3316 86.862 83.8356 87.324 84.1836 87.9V82.68H85.8396V96H84.1836V94.146C83.8596 94.734 83.3796 95.22 82.7436 95.604C82.1076 95.976 81.3636 96.162 80.5116 96.162C79.6356 96.162 78.8376 95.946 78.1176 95.514C77.4096 95.082 76.8516 94.476 76.4436 93.696C76.0356 92.916 75.8316 92.028 75.8316 91.032ZM84.1836 91.05C84.1836 90.306 84.0336 89.658 83.7336 89.106C83.4336 88.554 83.0256 88.134 82.5096 87.846C82.0056 87.546 81.4476 87.396 80.8356 87.396C80.2236 87.396 79.6656 87.54 79.1616 87.828C78.6576 88.116 78.2556 88.536 77.9556 89.088C77.6556 89.64 77.5056 90.288 77.5056 91.032C77.5056 91.788 77.6556 92.448 77.9556 93.012C78.2556 93.564 78.6576 93.99 79.1616 94.29C79.6656 94.578 80.2236 94.722 80.8356 94.722C81.4476 94.722 82.0056 94.578 82.5096 94.29C83.0256 93.99 83.4336 93.564 83.7336 93.012C84.0336 92.448 84.1836 91.794 84.1836 91.05ZM90.2457 87.738C90.5337 87.174 90.9417 86.736 91.4697 86.424C92.0097 86.112 92.6637 85.956 93.4317 85.956V87.648H92.9997C91.1637 87.648 90.2457 88.644 90.2457 90.636V96H88.6077V86.136H90.2457V87.738ZM99.6245 96.162C98.7005 96.162 97.8605 95.952 97.1045 95.532C96.3605 95.112 95.7725 94.518 95.3405 93.75C94.9205 92.97 94.7105 92.07 94.7105 91.05C94.7105 90.042 94.9265 89.154 95.3585 88.386C95.8025 87.606 96.4025 87.012 97.1585 86.604C97.9145 86.184 98.7605 85.974 99.6965 85.974C100.633 85.974 101.479 86.184 102.235 86.604C102.991 87.012 103.585 87.6 104.017 88.368C104.461 89.136 104.683 90.03 104.683 91.05C104.683 92.07 104.455 92.97 103.999 93.75C103.555 94.518 102.949 95.112 102.181 95.532C101.413 95.952 100.561 96.162 99.6245 96.162ZM99.6245 94.722C100.213 94.722 100.765 94.584 101.281 94.308C101.797 94.032 102.211 93.618 102.523 93.066C102.847 92.514 103.009 91.842 103.009 91.05C103.009 90.258 102.853 89.586 102.541 89.034C102.229 88.482 101.821 88.074 101.317 87.81C100.813 87.534 100.267 87.396 99.6785 87.396C99.0785 87.396 98.5265 87.534 98.0225 87.81C97.5305 88.074 97.1345 88.482 96.8345 89.034C96.5345 89.586 96.3845 90.258 96.3845 91.05C96.3845 91.854 96.5285 92.532 96.8165 93.084C97.1165 93.636 97.5125 94.05 98.0045 94.326C98.4965 94.59 99.0365 94.722 99.6245 94.722ZM107.682 84.534C107.37 84.534 107.106 84.426 106.89 84.21C106.674 83.994 106.566 83.73 106.566 83.418C106.566 83.106 106.674 82.842 106.89 82.626C107.106 82.41 107.37 82.302 107.682 82.302C107.982 82.302 108.234 82.41 108.438 82.626C108.654 82.842 108.762 83.106 108.762 83.418C108.762 83.73 108.654 83.994 108.438 84.21C108.234 84.426 107.982 84.534 107.682 84.534ZM108.474 86.136V96H106.836V86.136H108.474ZM110.654 91.032C110.654 90.024 110.858 89.142 111.266 88.386C111.674 87.618 112.232 87.024 112.94 86.604C113.66 86.184 114.464 85.974 115.352 85.974C116.12 85.974 116.834 86.154 117.494 86.514C118.154 86.862 118.658 87.324 119.006 87.9V82.68H120.662V96H119.006V94.146C118.682 94.734 118.202 95.22 117.566 95.604C116.93 95.976 116.186 96.162 115.334 96.162C114.458 96.162 113.66 95.946 112.94 95.514C112.232 95.082 111.674 94.476 111.266 93.696C110.858 92.916 110.654 92.028 110.654 91.032ZM119.006 91.05C119.006 90.306 118.856 89.658 118.556 89.106C118.256 88.554 117.848 88.134 117.332 87.846C116.828 87.546 116.27 87.396 115.658 87.396C115.046 87.396 114.488 87.54 113.984 87.828C113.48 88.116 113.078 88.536 112.778 89.088C112.478 89.64 112.328 90.288 112.328 91.032C112.328 91.788 112.478 92.448 112.778 93.012C113.078 93.564 113.48 93.99 113.984 94.29C114.488 94.578 115.046 94.722 115.658 94.722C116.27 94.722 116.828 94.578 117.332 94.29C117.848 93.99 118.256 93.564 118.556 93.012C118.856 92.448 119.006 91.794 119.006 91.05ZM132.207 96.126C131.379 96.126 130.635 95.982 129.975 95.694C129.327 95.394 128.817 94.986 128.445 94.47C128.073 93.942 127.881 93.336 127.869 92.652H129.615C129.675 93.24 129.915 93.738 130.335 94.146C130.767 94.542 131.391 94.74 132.207 94.74C132.987 94.74 133.599 94.548 134.043 94.164C134.499 93.768 134.727 93.264 134.727 92.652C134.727 92.172 134.595 91.782 134.331 91.482C134.067 91.182 133.737 90.954 133.341 90.798C132.945 90.642 132.411 90.474 131.739 90.294C130.911 90.078 130.245 89.862 129.741 89.646C129.249 89.43 128.823 89.094 128.463 88.638C128.115 88.17 127.941 87.546 127.941 86.766C127.941 86.082 128.115 85.476 128.463 84.948C128.811 84.42 129.297 84.012 129.921 83.724C130.557 83.436 131.283 83.292 132.099 83.292C133.275 83.292 134.235 83.586 134.979 84.174C135.735 84.762 136.161 85.542 136.257 86.514H134.457C134.397 86.034 134.145 85.614 133.701 85.254C133.257 84.882 132.669 84.696 131.937 84.696C131.253 84.696 130.695 84.876 130.263 85.236C129.831 85.584 129.615 86.076 129.615 86.712C129.615 87.168 129.741 87.54 129.993 87.828C130.257 88.116 130.575 88.338 130.947 88.494C131.331 88.638 131.865 88.806 132.549 88.998C133.377 89.226 134.043 89.454 134.547 89.682C135.051 89.898 135.483 90.24 135.843 90.708C136.203 91.164 136.383 91.788 136.383 92.58C136.383 93.192 136.221 93.768 135.897 94.308C135.573 94.848 135.093 95.286 134.457 95.622C133.821 95.958 133.071 96.126 132.207 96.126ZM140.791 87.486V93.3C140.791 93.78 140.893 94.122 141.097 94.326C141.301 94.518 141.655 94.614 142.159 94.614H143.365V96H141.889C140.977 96 140.293 95.79 139.837 95.37C139.381 94.95 139.153 94.26 139.153 93.3V87.486H137.875V86.136H139.153V83.652H140.791V86.136H143.365V87.486H140.791ZM154.098 86.136V96H152.46V94.542C152.148 95.046 151.71 95.442 151.146 95.73C150.594 96.006 149.982 96.144 149.31 96.144C148.542 96.144 147.852 95.988 147.24 95.676C146.628 95.352 146.142 94.872 145.782 94.236C145.434 93.6 145.26 92.826 145.26 91.914V86.136H146.88V91.698C146.88 92.67 147.126 93.42 147.618 93.948C148.11 94.464 148.782 94.722 149.634 94.722C150.51 94.722 151.2 94.452 151.704 93.912C152.208 93.372 152.46 92.586 152.46 91.554V86.136H154.098ZM156.252 91.032C156.252 90.024 156.456 89.142 156.864 88.386C157.272 87.618 157.83 87.024 158.538 86.604C159.258 86.184 160.062 85.974 160.95 85.974C161.718 85.974 162.432 86.154 163.092 86.514C163.752 86.862 164.256 87.324 164.604 87.9V82.68H166.26V96H164.604V94.146C164.28 94.734 163.8 95.22 163.164 95.604C162.528 95.976 161.784 96.162 160.932 96.162C160.056 96.162 159.258 95.946 158.538 95.514C157.83 95.082 157.272 94.476 156.864 93.696C156.456 92.916 156.252 92.028 156.252 91.032ZM164.604 91.05C164.604 90.306 164.454 89.658 164.154 89.106C163.854 88.554 163.446 88.134 162.93 87.846C162.426 87.546 161.868 87.396 161.256 87.396C160.644 87.396 160.086 87.54 159.582 87.828C159.078 88.116 158.676 88.536 158.376 89.088C158.076 89.64 157.926 90.288 157.926 91.032C157.926 91.788 158.076 92.448 158.376 93.012C158.676 93.564 159.078 93.99 159.582 94.29C160.086 94.578 160.644 94.722 161.256 94.722C161.868 94.722 162.426 94.578 162.93 94.29C163.446 93.99 163.854 93.564 164.154 93.012C164.454 92.448 164.604 91.794 164.604 91.05ZM169.874 84.534C169.562 84.534 169.298 84.426 169.082 84.21C168.866 83.994 168.758 83.73 168.758 83.418C168.758 83.106 168.866 82.842 169.082 82.626C169.298 82.41 169.562 82.302 169.874 82.302C170.174 82.302 170.426 82.41 170.63 82.626C170.846 82.842 170.954 83.106 170.954 83.418C170.954 83.73 170.846 83.994 170.63 84.21C170.426 84.426 170.174 84.534 169.874 84.534ZM170.666 86.136V96H169.028V86.136H170.666ZM177.759 96.162C176.835 96.162 175.995 95.952 175.239 95.532C174.495 95.112 173.907 94.518 173.475 93.75C173.055 92.97 172.845 92.07 172.845 91.05C172.845 90.042 173.061 89.154 173.493 88.386C173.937 87.606 174.537 87.012 175.293 86.604C176.049 86.184 176.895 85.974 177.831 85.974C178.767 85.974 179.613 86.184 180.369 86.604C181.125 87.012 181.719 87.6 182.151 88.368C182.595 89.136 182.817 90.03 182.817 91.05C182.817 92.07 182.589 92.97 182.133 93.75C181.689 94.518 181.083 95.112 180.315 95.532C179.547 95.952 178.695 96.162 177.759 96.162ZM177.759 94.722C178.347 94.722 178.899 94.584 179.415 94.308C179.931 94.032 180.345 93.618 180.657 93.066C180.981 92.514 181.143 91.842 181.143 91.05C181.143 90.258 180.987 89.586 180.675 89.034C180.363 88.482 179.955 88.074 179.451 87.81C178.947 87.534 178.401 87.396 177.813 87.396C177.213 87.396 176.661 87.534 176.157 87.81C175.665 88.074 175.269 88.482 174.969 89.034C174.669 89.586 174.519 90.258 174.519 91.05C174.519 91.854 174.663 92.532 174.951 93.084C175.251 93.636 175.647 94.05 176.139 94.326C176.631 94.59 177.171 94.722 177.759 94.722Z" fill="#A0A0A0"/>
<path d="M22.1226 20.0249C25.1472 20.0249 27.6595 21.6263 28.8547 23.3527V20.4503H33.4648V41.9934H30.1475C29.9743 41.9941 29.8027 41.9597 29.6426 41.892C29.4825 41.8244 29.337 41.7249 29.2145 41.5993C29.0921 41.4737 28.9951 41.3245 28.9291 41.1602C28.8632 40.9959 28.8296 40.8199 28.8303 40.6423V39.091C27.6595 40.8424 25.1472 42.4438 22.1226 42.4438C16.3661 42.4438 12 37.3895 12 31.2344C12 25.0792 16.3417 20.0249 22.1226 20.0249ZM22.9275 24.3286C19.1956 24.3286 16.6588 27.3561 16.6588 31.2344C16.6588 35.1126 19.1712 38.1402 22.9275 38.1402C26.6595 38.1402 29.1962 35.1126 29.1962 31.2344C29.1962 27.3561 26.7082 24.3286 22.9275 24.3286V24.3286ZM38.709 20.4503H43.3434V23.3778C44.6118 21.2259 47.0022 20.0249 49.7341 20.0249C54.6124 20.0249 57.759 23.5529 57.759 29.0325V41.9934H54.4417C54.2685 41.9941 54.0969 41.9597 53.9368 41.892C53.7767 41.8244 53.6312 41.7249 53.5088 41.5993C53.3863 41.4737 53.2893 41.3245 53.2234 41.1602C53.1574 40.9959 53.1238 40.8199 53.1245 40.6423V29.8082C53.1245 26.4053 51.4415 24.3286 48.7584 24.3286C45.6851 24.3286 43.3434 26.7806 43.3434 31.3845V41.9934H40.0262C39.853 41.9941 39.6814 41.9597 39.5213 41.892C39.3611 41.8244 39.2157 41.7249 39.0932 41.5993C38.9708 41.4737 38.8738 41.3245 38.8078 41.1602C38.7419 40.9959 38.7083 40.8199 38.709 40.6423V20.4503ZM71.5403 20.0249C74.5649 20.0249 77.0773 21.6263 78.2725 23.3527V9.69125H82.8825V42.0184H79.5652C79.3921 42.0192 79.2205 41.9847 79.0604 41.9171C78.9002 41.8494 78.7547 41.7499 78.6323 41.6243C78.5098 41.4987 78.4128 41.3495 78.3469 41.1852C78.281 41.021 78.2474 40.8449 78.2481 40.6673V39.116C77.0773 40.8424 74.5405 42.4438 71.516 42.4438C65.7595 42.4438 61.3934 37.3895 61.3934 31.2344C61.4178 25.0792 65.7839 20.0249 71.5403 20.0249V20.0249ZM72.3697 24.3286C68.6377 24.3286 66.101 27.3561 66.101 31.2344C66.101 35.1126 68.6133 38.1402 72.3697 38.1402C76.1016 38.1402 78.6384 35.1126 78.6384 31.2344C78.6384 27.3561 76.1016 24.3286 72.3697 24.3286V24.3286ZM88.1268 20.4503H92.7368V24.2785C93.1412 23.1007 93.8899 22.0795 94.8807 21.3541C95.8716 20.6287 97.0565 20.2345 98.2737 20.2251C98.8795 20.2237 99.484 20.2823 100.079 20.4003V25.2794C99.3318 25.021 98.5497 24.8859 97.7615 24.879C95.1028 24.879 92.7124 27.1559 92.7124 31.4846V41.9934H89.3951C89.222 41.9941 89.0504 41.9597 88.8902 41.892C88.7301 41.8244 88.5846 41.7249 88.4622 41.5993C88.3397 41.4737 88.2427 41.3245 88.1768 41.1602C88.1108 40.9959 88.0773 40.8199 88.078 40.6423V20.4503H88.1268ZM112.567 42.4438C106.347 42.4438 101.567 37.4896 101.567 31.2344C101.567 24.9791 106.347 20.0249 112.567 20.0249C118.787 20.0249 123.568 24.9791 123.568 31.2344C123.568 37.4896 118.787 42.4438 112.567 42.4438ZM112.567 38.0401C116.275 38.0401 118.86 35.0626 118.86 31.2344C118.86 27.4061 116.25 24.4286 112.567 24.4286C108.835 24.4286 106.225 27.4061 106.225 31.2344C106.225 35.0626 108.835 38.0401 112.567 38.0401ZM129.617 15.7463C128.799 15.7463 128.014 15.4129 127.435 14.8193C126.857 14.2257 126.532 13.4206 126.532 12.5812C126.532 11.7417 126.857 10.9367 127.435 10.3431C128.014 9.74949 128.799 9.41602 129.617 9.41602C130.436 9.41602 131.22 9.74949 131.799 10.3431C132.378 10.9367 132.703 11.7417 132.703 12.5812C132.703 13.4206 132.378 14.2257 131.799 14.8193C131.22 15.4129 130.436 15.7463 129.617 15.7463V15.7463ZM127.324 20.4503H131.934V41.9934H128.617C128.444 41.9941 128.272 41.9597 128.112 41.892C127.952 41.8244 127.807 41.7249 127.684 41.5993C127.562 41.4737 127.465 41.3245 127.399 41.1602C127.333 40.9959 127.299 40.8199 127.3 40.6423C127.324 40.6423 127.324 20.4503 127.324 20.4503V20.4503ZM145.862 20.0249C148.887 20.0249 151.399 21.6263 152.594 23.3527V9.69125H157.204V42.0184H153.887C153.714 42.0192 153.542 41.9847 153.382 41.9171C153.222 41.8494 153.077 41.7499 152.954 41.6243C152.832 41.4987 152.735 41.3495 152.669 41.1852C152.603 41.021 152.569 40.8449 152.57 40.6673V39.116C151.399 40.8424 148.862 42.4438 145.838 42.4438C140.081 42.4438 135.715 37.3895 135.715 31.2344C135.74 25.0792 140.106 20.0249 145.862 20.0249ZM146.716 24.3286C142.984 24.3286 140.447 27.3561 140.447 31.2344C140.447 35.1126 142.959 38.1402 146.716 38.1402C150.448 38.1402 152.985 35.1126 152.985 31.2344C152.985 27.3561 150.448 24.3286 146.716 24.3286" fill="#6A6A6A"/>
<path d="M208.045 33.2483C207.585 33.2483 207.136 33.1096 206.754 32.8497C206.372 32.5898 206.074 32.2204 205.899 31.7882C205.723 31.356 205.677 30.8804 205.766 30.4216C205.856 29.9628 206.077 29.5413 206.402 29.2106C206.727 28.8798 207.141 28.6545 207.592 28.5632C208.042 28.472 208.509 28.5188 208.934 28.6978C209.358 28.8768 209.721 29.18 209.976 29.569C210.232 29.9579 210.368 30.4152 210.368 30.883C210.368 31.5103 210.123 32.1118 209.687 32.5554C209.252 32.9989 208.661 33.2482 208.045 33.2483V33.2483ZM182.466 33.2483C182.007 33.2483 181.557 33.1096 181.175 32.8497C180.793 32.5898 180.496 32.2204 180.32 31.7882C180.144 31.356 180.098 30.8804 180.188 30.4216C180.277 29.9628 180.498 29.5413 180.823 29.2106C181.148 28.8798 181.562 28.6545 182.013 28.5632C182.464 28.472 182.931 28.5188 183.355 28.6978C183.78 28.8768 184.142 29.18 184.398 29.569C184.653 29.9579 184.789 30.4152 184.789 30.883C184.789 31.5103 184.544 32.1118 184.109 32.5554C183.673 32.9989 183.082 33.2482 182.466 33.2483V33.2483ZM208.868 19.0568L213.514 10.9016C213.577 10.79 213.617 10.6668 213.633 10.5392C213.649 10.4116 213.64 10.282 213.606 10.158C213.572 10.034 213.515 9.91795 213.438 9.81653C213.36 9.71511 213.263 9.63033 213.153 9.56704C213.043 9.50375 212.922 9.46321 212.797 9.44774C212.671 9.43227 212.544 9.44219 212.422 9.47691C212.301 9.51164 212.187 9.57049 212.088 9.65009C211.989 9.72968 211.906 9.82846 211.844 9.94074L207.149 18.1945C203.421 16.4597 199.367 15.5687 195.268 15.5828C191.163 15.5726 187.104 16.4546 183.361 18.1698L178.643 9.9161C178.581 9.80382 178.498 9.70505 178.399 9.62545C178.3 9.54585 178.186 9.487 178.064 9.45227C177.943 9.41755 177.816 9.40763 177.69 9.4231C177.565 9.43857 177.443 9.47911 177.334 9.5424C177.224 9.60569 177.127 9.69048 177.049 9.79189C176.972 9.89331 176.914 10.0094 176.881 10.1334C176.847 10.2574 176.838 10.3869 176.854 10.5145C176.87 10.6421 176.91 10.7653 176.973 10.877L181.595 19.0322C177.598 21.2513 174.209 24.4501 171.733 28.3392C169.257 32.2282 167.772 36.6846 167.414 41.3049H223C222.653 36.691 221.178 32.2388 218.71 28.3531C216.241 24.4675 212.858 21.2718 208.868 19.0568Z" fill="#A3A3A3"/>
</svg>
