<svg width="160" height="136" viewBox="0 0 160 136" fill="none" xmlns="http://www.w3.org/2000/svg">
<g clip-path="url(#clip0_9380_55950)">
<path d="M90.8954 89.855H91.9213L108.668 81.5323L108.947 81.1408V14.7093L108.668 14.3157L91.9213 6H90.8828L90.8954 89.855Z" fill="#CCCCCC"/>
<path d="M69.1007 89.855H68.0604L51.3282 81.5323L50.9887 80.9518L50.8164 15.0476L51.3282 14.3157L68.0604 6H69.1135L69.1007 89.855Z" fill="#CCCCCC"/>
<path d="M68.0898 6H91.9036V89.855H68.0898V6Z" fill="#D8D8D8"/>
<path d="M117.432 46.0443L116.866 45.9196L108.786 45.1709L108.666 45.2302L91.9048 44.564H68.0898L51.3281 45.2302V32.5273L51.3105 32.5366L51.3281 32.4994L68.0898 28.6394H91.9048L108.666 32.4994L114.828 35.7544V33.6617L117.432 33.3786L117.162 32.856L108.917 26.9966L108.666 27.0777L91.9048 21.9159H68.0898L51.3281 27.0777V14.3164L42.5625 24.5223V33.4356L42.6304 33.3867L45.1666 33.6617V35.7974L42.5625 37.1824V46.0513L42.6304 46.0443L45.1666 46.0815V49.8039L42.9784 49.8365L42.5625 49.797V58.6693L45.1666 60.0609V62.2214L42.6716 62.4952L42.5625 62.4138V71.3257L51.3281 81.533V68.7728L68.0898 73.9346H91.9048L108.716 68.7577L108.939 68.8551L117.076 63.082L117.432 62.5068L114.828 62.2214V60.1043L114.487 59.9688L108.917 62.9524L108.716 63.371L91.9048 67.2085V67.2132H68.0898V67.2085L51.3281 63.3547V50.6053L68.0898 51.2691V51.2854H91.9048L108.666 50.6053L109.048 50.7797L116.88 50.1094L117.432 49.8411L114.828 49.8039V46.0815L117.432 46.0443Z" fill="#B2B2B2"/>
<path d="M108.664 68.7716V81.5317L117.43 71.3244V62.4707L108.715 68.7565L108.664 68.7716Z" fill="#B2B2B2"/>
<path d="M108.664 63.3814L108.715 63.3698L117.43 58.7111V49.8027L108.664 50.6041V63.3814Z" fill="#B2B2B2"/>
<path d="M108.715 32.5097L108.664 32.498V45.2288L117.43 46.043V37.139L108.715 32.5097Z" fill="#B2B2B2"/>
<path d="M108.715 27.1277L117.43 33.3786V24.5246L108.664 14.3164V27.0777L108.715 27.0952V27.1277Z" fill="#B2B2B2"/>
</g>
<path d="M7.824 127.52H2.96L2.064 130H0.528L4.56 118.912H6.24L10.256 130H8.72L7.824 127.52ZM7.408 126.336L5.392 120.704L3.376 126.336H7.408ZM22.5573 121.072C23.2399 121.072 23.8479 121.216 24.3813 121.504C24.9146 121.781 25.3359 122.203 25.6453 122.768C25.9546 123.333 26.1093 124.021 26.1093 124.832V130H24.6693V125.04C24.6693 124.165 24.4506 123.499 24.0133 123.04C23.5866 122.571 23.0053 122.336 22.2693 122.336C21.5119 122.336 20.9093 122.581 20.4613 123.072C20.0133 123.552 19.7893 124.251 19.7893 125.168V130H18.3493V125.04C18.3493 124.165 18.1306 123.499 17.6933 123.04C17.2666 122.571 16.6853 122.336 15.9493 122.336C15.1919 122.336 14.5893 122.581 14.1413 123.072C13.6933 123.552 13.4693 124.251 13.4693 125.168V130H12.0133V121.232H13.4693V122.496C13.7573 122.037 14.1413 121.685 14.6213 121.44C15.1119 121.195 15.6506 121.072 16.2373 121.072C16.9733 121.072 17.6239 121.237 18.1893 121.568C18.7546 121.899 19.1759 122.384 19.4533 123.024C19.6986 122.405 20.1039 121.925 20.6693 121.584C21.2346 121.243 21.8639 121.072 22.5573 121.072ZM27.9536 125.584C27.9536 124.688 28.135 123.904 28.4976 123.232C28.8603 122.549 29.3563 122.021 29.9856 121.648C30.6256 121.275 31.335 121.088 32.1136 121.088C32.8816 121.088 33.5483 121.253 34.1136 121.584C34.679 121.915 35.1003 122.331 35.3776 122.832V121.232H36.8496V130H35.3776V128.368C35.0896 128.88 34.6576 129.307 34.0816 129.648C33.5163 129.979 32.855 130.144 32.0976 130.144C31.319 130.144 30.615 129.952 29.9856 129.568C29.3563 129.184 28.8603 128.645 28.4976 127.952C28.135 127.259 27.9536 126.469 27.9536 125.584ZM35.3776 125.6C35.3776 124.939 35.2443 124.363 34.9776 123.872C34.711 123.381 34.3483 123.008 33.8896 122.752C33.4416 122.485 32.9456 122.352 32.4016 122.352C31.8576 122.352 31.3616 122.48 30.9136 122.736C30.4656 122.992 30.1083 123.365 29.8416 123.856C29.575 124.347 29.4416 124.923 29.4416 125.584C29.4416 126.256 29.575 126.843 29.8416 127.344C30.1083 127.835 30.4656 128.213 30.9136 128.48C31.3616 128.736 31.8576 128.864 32.4016 128.864C32.9456 128.864 33.4416 128.736 33.8896 128.48C34.3483 128.213 34.711 127.835 34.9776 127.344C35.2443 126.843 35.3776 126.261 35.3776 125.6ZM40.3981 128.8H44.7021V130H38.7341V128.8L42.9901 122.416H38.7661V121.232H44.6701V122.416L40.3981 128.8ZM50.4154 130.144C49.594 130.144 48.8474 129.957 48.1754 129.584C47.514 129.211 46.9914 128.683 46.6074 128C46.234 127.307 46.0474 126.507 46.0474 125.6C46.0474 124.704 46.2394 123.915 46.6234 123.232C47.018 122.539 47.5514 122.011 48.2234 121.648C48.8954 121.275 49.6474 121.088 50.4794 121.088C51.3114 121.088 52.0634 121.275 52.7354 121.648C53.4074 122.011 53.9354 122.533 54.3194 123.216C54.714 123.899 54.9114 124.693 54.9114 125.6C54.9114 126.507 54.7087 127.307 54.3034 128C53.9087 128.683 53.37 129.211 52.6874 129.584C52.0047 129.957 51.2474 130.144 50.4154 130.144ZM50.4154 128.864C50.938 128.864 51.4287 128.741 51.8874 128.496C52.346 128.251 52.714 127.883 52.9914 127.392C53.2794 126.901 53.4234 126.304 53.4234 125.6C53.4234 124.896 53.2847 124.299 53.0074 123.808C52.73 123.317 52.3674 122.955 51.9194 122.72C51.4714 122.475 50.986 122.352 50.4634 122.352C49.93 122.352 49.4394 122.475 48.9914 122.72C48.554 122.955 48.202 123.317 47.9354 123.808C47.6687 124.299 47.5354 124.896 47.5354 125.6C47.5354 126.315 47.6634 126.917 47.9194 127.408C48.186 127.899 48.538 128.267 48.9754 128.512C49.4127 128.747 49.8927 128.864 50.4154 128.864ZM61.0978 121.072C62.1644 121.072 63.0284 121.397 63.6898 122.048C64.3511 122.688 64.6818 123.616 64.6818 124.832V130H63.2418V125.04C63.2418 124.165 63.0231 123.499 62.5858 123.04C62.1484 122.571 61.5511 122.336 60.7938 122.336C60.0258 122.336 59.4124 122.576 58.9538 123.056C58.5058 123.536 58.2818 124.235 58.2818 125.152V130H56.8258V121.232H58.2818V122.48C58.5698 122.032 58.9591 121.685 59.4498 121.44C59.9511 121.195 60.5004 121.072 61.0978 121.072ZM74.7977 118.848C76.0138 118.848 77.0644 119.077 77.9498 119.536C78.8458 119.984 79.5284 120.629 79.9978 121.472C80.4778 122.315 80.7178 123.307 80.7178 124.448C80.7178 125.589 80.4778 126.581 79.9978 127.424C79.5284 128.256 78.8458 128.896 77.9498 129.344C77.0644 129.781 76.0138 130 74.7977 130H71.3258V118.848H74.7977ZM74.7977 128.8C76.2378 128.8 77.3364 128.421 78.0938 127.664C78.8511 126.896 79.2298 125.824 79.2298 124.448C79.2298 123.061 78.8458 121.979 78.0778 121.2C77.3204 120.421 76.2271 120.032 74.7977 120.032H72.7818V128.8H74.7977ZM90.1903 121.232L84.9103 134.128H83.4062L85.1343 129.904L81.5983 121.232H83.2143L85.9663 128.336L88.6863 121.232H90.1903ZM95.9259 121.072C96.9925 121.072 97.8565 121.397 98.5179 122.048C99.1792 122.688 99.5099 123.616 99.5099 124.832V130H98.0699V125.04C98.0699 124.165 97.8512 123.499 97.4139 123.04C96.9765 122.571 96.3792 122.336 95.6219 122.336C94.8539 122.336 94.2405 122.576 93.7819 123.056C93.3339 123.536 93.1099 124.235 93.1099 125.152V130H91.6539V121.232H93.1099V122.48C93.3979 122.032 93.7872 121.685 94.2779 121.44C94.7792 121.195 95.3285 121.072 95.9259 121.072ZM101.344 125.584C101.344 124.688 101.526 123.904 101.888 123.232C102.251 122.549 102.747 122.021 103.376 121.648C104.016 121.275 104.726 121.088 105.504 121.088C106.272 121.088 106.939 121.253 107.504 121.584C108.07 121.915 108.491 122.331 108.768 122.832V121.232H110.24V130H108.768V128.368C108.48 128.88 108.048 129.307 107.472 129.648C106.907 129.979 106.246 130.144 105.488 130.144C104.71 130.144 104.006 129.952 103.376 129.568C102.747 129.184 102.251 128.645 101.888 127.952C101.526 127.259 101.344 126.469 101.344 125.584ZM108.768 125.6C108.768 124.939 108.635 124.363 108.368 123.872C108.102 123.381 107.739 123.008 107.28 122.752C106.832 122.485 106.336 122.352 105.792 122.352C105.248 122.352 104.752 122.48 104.304 122.736C103.856 122.992 103.499 123.365 103.232 123.856C102.966 124.347 102.832 124.923 102.832 125.584C102.832 126.256 102.966 126.843 103.232 127.344C103.499 127.835 103.856 128.213 104.304 128.48C104.752 128.736 105.248 128.864 105.792 128.864C106.336 128.864 106.832 128.736 107.28 128.48C107.739 128.213 108.102 127.835 108.368 127.344C108.635 126.843 108.768 126.261 108.768 125.6ZM123.245 121.072C123.927 121.072 124.535 121.216 125.069 121.504C125.602 121.781 126.023 122.203 126.333 122.768C126.642 123.333 126.797 124.021 126.797 124.832V130H125.357V125.04C125.357 124.165 125.138 123.499 124.701 123.04C124.274 122.571 123.693 122.336 122.957 122.336C122.199 122.336 121.597 122.581 121.149 123.072C120.701 123.552 120.477 124.251 120.477 125.168V130H119.037V125.04C119.037 124.165 118.818 123.499 118.381 123.04C117.954 122.571 117.373 122.336 116.637 122.336C115.879 122.336 115.277 122.581 114.829 123.072C114.381 123.552 114.157 124.251 114.157 125.168V130H112.701V121.232H114.157V122.496C114.445 122.037 114.829 121.685 115.309 121.44C115.799 121.195 116.338 121.072 116.925 121.072C117.661 121.072 118.311 121.237 118.877 121.568C119.442 121.899 119.863 122.384 120.141 123.024C120.386 122.405 120.791 121.925 121.357 121.584C121.922 121.243 122.551 121.072 123.245 121.072ZM133.009 130.144C132.188 130.144 131.441 129.957 130.769 129.584C130.108 129.211 129.585 128.683 129.201 128C128.828 127.307 128.641 126.507 128.641 125.6C128.641 124.704 128.833 123.915 129.217 123.232C129.612 122.539 130.145 122.011 130.817 121.648C131.489 121.275 132.241 121.088 133.073 121.088C133.905 121.088 134.657 121.275 135.329 121.648C136.001 122.011 136.529 122.533 136.913 123.216C137.308 123.899 137.505 124.693 137.505 125.6C137.505 126.507 137.302 127.307 136.897 128C136.502 128.683 135.964 129.211 135.281 129.584C134.598 129.957 133.841 130.144 133.009 130.144ZM133.009 128.864C133.532 128.864 134.022 128.741 134.481 128.496C134.94 128.251 135.308 127.883 135.585 127.392C135.873 126.901 136.017 126.304 136.017 125.6C136.017 124.896 135.878 124.299 135.601 123.808C135.324 123.317 134.961 122.955 134.513 122.72C134.065 122.475 133.58 122.352 133.057 122.352C132.524 122.352 132.033 122.475 131.585 122.72C131.148 122.955 130.796 123.317 130.529 123.808C130.262 124.299 130.129 124.896 130.129 125.6C130.129 126.315 130.257 126.917 130.513 127.408C130.78 127.899 131.132 128.267 131.569 128.512C132.006 128.747 132.486 128.864 133.009 128.864ZM142.891 118.848C144.108 118.848 145.158 119.077 146.044 119.536C146.94 119.984 147.622 120.629 148.092 121.472C148.572 122.315 148.812 123.307 148.812 124.448C148.812 125.589 148.572 126.581 148.092 127.424C147.622 128.256 146.94 128.896 146.044 129.344C145.158 129.781 144.108 130 142.891 130H139.42V118.848H142.891ZM142.891 128.8C144.332 128.8 145.43 128.421 146.188 127.664C146.945 126.896 147.324 125.824 147.324 124.448C147.324 123.061 146.94 121.979 146.172 121.2C145.414 120.421 144.321 120.032 142.891 120.032H140.876V128.8H142.891ZM156.316 124.256C156.721 124.32 157.089 124.485 157.42 124.752C157.761 125.019 158.028 125.349 158.22 125.744C158.423 126.139 158.524 126.56 158.524 127.008C158.524 127.573 158.38 128.085 158.092 128.544C157.804 128.992 157.383 129.349 156.828 129.616C156.284 129.872 155.639 130 154.892 130H150.732V118.848H154.732C155.489 118.848 156.135 118.976 156.668 119.232C157.201 119.477 157.601 119.813 157.868 120.24C158.135 120.667 158.268 121.147 158.268 121.68C158.268 122.341 158.087 122.891 157.724 123.328C157.372 123.755 156.903 124.064 156.316 124.256ZM152.188 123.664H154.636C155.319 123.664 155.847 123.504 156.22 123.184C156.593 122.864 156.78 122.421 156.78 121.856C156.78 121.291 156.593 120.848 156.22 120.528C155.847 120.208 155.308 120.048 154.604 120.048H152.188V123.664ZM154.764 128.8C155.489 128.8 156.055 128.629 156.46 128.288C156.865 127.947 157.068 127.472 157.068 126.864C157.068 126.245 156.855 125.76 156.428 125.408C156.001 125.045 155.431 124.864 154.716 124.864H152.188V128.8H154.764Z" fill="#AFAFAF"/>
<defs>
<clipPath id="clip0_9380_55950">
<rect width="74.8696" height="84" fill="white" transform="translate(42.5664 6)"/>
</clipPath>
</defs>
</svg>
