<svg width="96" height="137" viewBox="0 0 96 137" fill="none" xmlns="http://www.w3.org/2000/svg"><path d="M33.488 114.31v9.432c0 1.044-.3 1.872-.9 2.484-.588.6-1.416.9-2.484.9-1.152 0-2.058-.336-2.718-1.008-.648-.684-.972-1.638-.972-2.862h1.638c0 .732.162 1.314.486 1.746.324.42.822.63 1.494.63.636 0 1.098-.18 1.386-.54.288-.36.432-.81.432-1.35v-9.432h1.638Zm6.595 2.682c.96 0 1.77.24 2.43.72a3.735 3.735 0 0 1 1.404 1.926v-2.52h1.638V127h-1.638v-2.52a3.735 3.735 0 0 1-1.404 1.926c-.66.48-1.47.72-2.43.72-.876 0-1.656-.204-2.34-.612-.684-.408-1.224-.99-1.62-1.746-.384-.768-.576-1.668-.576-2.7 0-1.032.192-1.932.576-2.7.396-.768.936-1.356 1.62-1.764.684-.408 1.464-.612 2.34-.612Zm.468 1.458c-1.008 0-1.818.324-2.43.972-.6.636-.9 1.518-.9 2.646s.3 2.016.9 2.664c.612.636 1.422.954 2.43.954.648 0 1.224-.15 1.728-.45.516-.3.918-.72 1.206-1.26.288-.552.432-1.188.432-1.908s-.144-1.356-.432-1.908a2.985 2.985 0 0 0-1.206-1.26c-.504-.3-1.08-.45-1.728-.45Zm11.445 6.804 3.06-8.136h1.764L52.95 127h-1.944l-3.87-9.882H48.9l3.096 8.136Zm10.481-8.262c.96 0 1.77.24 2.43.72a3.735 3.735 0 0 1 1.404 1.926v-2.52h1.638V127h-1.638v-2.52a3.735 3.735 0 0 1-1.404 1.926c-.66.48-1.47.72-2.43.72-.876 0-1.656-.204-2.34-.612-.684-.408-1.224-.99-1.62-1.746-.384-.768-.576-1.668-.576-2.7 0-1.032.192-1.932.576-2.7.396-.768.936-1.356 1.62-1.764.684-.408 1.464-.612 2.34-.612Zm.468 1.458c-1.008 0-1.818.324-2.43.972-.6.636-.9 1.518-.9 2.646s.3 2.016.9 2.664c.612.636 1.422.954 2.43.954.648 0 1.224-.15 1.728-.45.516-.3.918-.72 1.206-1.26.288-.552.432-1.188.432-1.908s-.144-1.356-.432-1.908a2.985 2.985 0 0 0-1.206-1.26c-.504-.3-1.08-.45-1.728-.45Z" fill="#A0A0A0"/><path d="M37.92 67.95s-2.884 1.694 2.051 2.267c5.978.69 9.033.59 15.621-.67 0 0 1.732 1.098 4.15 2.048-14.767 6.396-33.422-.37-21.823-3.645ZM36.111 59.605s-3.233 2.418 1.705 2.934c6.386.666 11.429.72 20.155-.978 0 0 1.207 1.237 3.105 1.913-17.855 5.276-37.743.416-24.965-3.87Z" fill="#9B9B9B"/><path d="M51.326 45.447c3.639 4.234-.956 8.043-.956 8.043s9.24-4.82 4.996-10.855c-3.963-5.628-7.002-8.424 9.45-18.066 0 0-25.825 6.517-13.49 20.878Z" fill="#6A6A6A"/><path d="M70.86 74.123s2.133 1.776-2.35 3.15c-8.524 2.61-35.48 3.397-42.967.104-2.692-1.183 2.356-2.825 3.944-3.17 1.656-.362 2.602-.295 2.602-.295-2.993-2.13-19.349 4.184-8.308 5.992 30.11 4.934 54.889-2.221 47.078-5.781ZM39.301 50.958s-13.71 3.29-4.855 4.485c3.74.506 11.193.391 18.136-.197 5.674-.483 11.372-1.511 11.372-1.511s-2.001.865-3.449 1.864c-13.923 3.7-40.82 1.979-33.077-1.806 6.549-3.198 11.873-2.835 11.873-2.835ZM63.902 64.85c14.153-7.432 7.61-14.574 3.041-13.612-1.119.236-1.618.44-1.618.44s.415-.658 1.21-.943c9.035-3.21 15.985 9.468-2.918 14.489 0 0 .22-.198.285-.375Z" fill="#9B9B9B"/><path d="M55.364 9s7.839 7.923-7.434 20.106c-12.248 9.773-2.793 15.346-.005 21.712-7.15-6.517-12.396-12.255-8.876-17.594C44.215 25.385 58.527 21.585 55.364 9Z" fill="#6A6A6A"/><path d="M40.693 84.987c13.586.879 34.448-.488 34.942-6.983 0 0-.95 2.462-11.228 4.418-11.596 2.205-25.897 1.947-34.38.534 0 0 1.737 1.452 10.666 2.03Z" fill="#9B9B9B"/></svg>