<svg width="96" height="136" viewBox="0 0 96 136" fill="none" xmlns="http://www.w3.org/2000/svg">
<g>
<path d="M85.9991 47.3809C85.9991 42.3603 79.7117 37.6023 70.0721 34.6517C72.2966 24.8268 71.308 17.0101 66.9516 14.5075C65.9475 13.9205 64.7734 13.6424 63.4912 13.6424V17.0873C64.2019 17.0873 64.7734 17.2263 65.2523 17.489C67.3533 18.6939 68.2647 23.282 67.5541 29.1831C67.3842 30.6353 67.1061 32.1646 66.7662 33.7249C63.7384 32.9834 60.4325 32.4118 56.9567 32.041C54.8712 29.1831 52.7085 26.5879 50.5303 24.317C55.5664 19.6362 60.2935 17.0719 63.5067 17.0719V13.627C59.2585 13.627 53.6972 16.6548 48.0741 21.9071C42.451 16.6857 36.8897 13.6887 32.6415 13.6887V17.1337C35.8392 17.1337 40.5818 19.6826 45.6179 24.3324C43.4551 26.6033 41.2924 29.1831 39.2378 32.041C35.7466 32.4118 32.4407 32.9834 29.4129 33.7403C29.0576 32.1955 28.7949 30.697 28.6096 29.2604C27.8835 23.3592 28.7795 18.7712 30.865 17.5508C31.3284 17.2727 31.9309 17.1491 32.6415 17.1491V13.7042C31.3439 13.7042 30.1698 13.9823 29.1502 14.5693C24.8093 17.0719 23.8361 24.8731 26.0761 34.6672C16.4674 37.6332 10.2109 42.3758 10.2109 47.3809C10.2109 52.4016 16.4983 57.1595 26.1379 60.1101C23.9134 69.9351 24.902 77.7518 29.2584 80.2544C30.2625 80.8414 31.4366 81.1195 32.7342 81.1195C36.9824 81.1195 42.5437 78.0917 48.1668 72.8393C53.7899 78.0608 59.3512 81.0577 63.5994 81.0577C64.897 81.0577 66.0711 80.7796 67.0906 80.1926C71.4315 77.69 72.4048 69.8887 70.1648 60.0947C79.7426 57.1441 85.9991 52.3861 85.9991 47.3809ZM65.8857 37.0771C65.3141 39.0699 64.6035 41.1245 63.8002 43.1791C63.1668 41.9432 62.5026 40.7074 61.7765 39.4715C61.0659 38.2357 60.309 37.0307 59.552 35.8567C61.7456 36.1811 63.862 36.5828 65.8857 37.0771ZM58.8105 53.5293C57.6055 55.6147 56.3697 57.5921 55.0875 59.4304C52.7858 59.6312 50.4531 59.7394 48.105 59.7394C45.7723 59.7394 43.4397 59.6312 41.1534 59.4459C39.8712 57.6075 38.6199 55.6456 37.4149 53.5756C36.2409 51.5519 35.175 49.4973 34.2018 47.4273C35.1595 45.3572 36.2409 43.2872 37.3995 41.2635C38.6045 39.178 39.8403 37.2007 41.1225 35.3624C43.4242 35.1615 45.7569 35.0534 48.105 35.0534C50.4377 35.0534 52.7703 35.1615 55.0566 35.3469C56.3388 37.1852 57.5901 39.1471 58.795 41.2172C59.9691 43.2409 61.035 45.2954 62.0082 47.3655C61.035 49.4355 59.9691 51.5056 58.8105 53.5293ZM63.8002 51.521C64.6344 53.591 65.345 55.6611 65.932 57.6693C63.9084 58.1637 61.7765 58.5808 59.5674 58.9052C60.3244 57.7157 61.0814 56.4953 61.792 55.244C62.5026 54.0081 63.1668 52.7569 63.8002 51.521ZM48.1359 68.0041C46.6992 66.5211 45.2626 64.8681 43.8413 63.0607C45.2317 63.1225 46.6529 63.1688 48.0896 63.1688C49.5417 63.1688 50.9783 63.1379 52.3841 63.0607C50.9938 64.8681 49.5571 66.5211 48.1359 68.0041ZM36.6425 58.9052C34.4489 58.5808 32.3325 58.1791 30.3088 57.6848C30.8804 55.692 31.591 53.6374 32.3943 51.5828C33.0277 52.8186 33.692 54.0545 34.418 55.2903C35.1441 56.5262 35.8856 57.7311 36.6425 58.9052ZM48.0587 26.7578C49.4953 28.2408 50.932 29.8937 52.3532 31.7012C50.9629 31.6394 49.5417 31.593 48.105 31.593C46.6529 31.593 45.2162 31.6239 43.8104 31.7012C45.2008 29.8937 46.6374 28.2408 48.0587 26.7578ZM36.6271 35.8567C35.8701 37.0462 35.1132 38.2666 34.4026 39.5179C33.692 40.7537 33.0277 41.9896 32.3943 43.2254C31.5601 41.1554 30.8495 39.0853 30.2625 37.0771C32.2862 36.5982 34.418 36.1811 36.6271 35.8567ZM22.6466 55.1977C17.178 52.865 13.6404 49.8063 13.6404 47.3809C13.6404 44.9556 17.178 41.8814 22.6466 39.5642C23.9752 38.9926 25.4273 38.4829 26.9257 38.004C27.8063 41.0318 28.9649 44.1832 30.4015 47.4118C28.9803 50.625 27.8372 53.761 26.9721 56.7733C25.4427 56.2945 23.9906 55.7692 22.6466 55.1977ZM30.9577 77.2729C28.8567 76.068 27.9453 71.4799 28.6559 65.5787C28.8258 64.1266 29.1039 62.5973 29.4438 61.037C32.4716 61.7785 35.7775 62.3501 39.2533 62.7208C41.3388 65.5787 43.5015 68.174 45.6797 70.4449C40.6436 75.1256 35.9165 77.69 32.7033 77.69C32.0081 77.6746 31.4211 77.5355 30.9577 77.2729ZM67.6004 65.5015C68.3265 71.4026 67.4305 75.9907 65.345 77.2111C64.8816 77.4892 64.2791 77.6128 63.5685 77.6128C60.3707 77.6128 55.6282 75.0638 50.5921 70.414C52.7549 68.1431 54.9176 65.5633 56.9722 62.7054C60.4634 62.3346 63.7693 61.7631 66.7971 61.0061C67.1524 62.5664 67.4305 64.0648 67.6004 65.5015ZM73.5479 55.1977C72.2194 55.7692 70.7673 56.279 69.2688 56.7579C68.3883 53.7301 67.2297 50.5787 65.793 47.35C67.2142 44.1368 68.3574 41.0009 69.2225 37.9885C70.7518 38.4674 72.2039 38.9926 73.5634 39.5642C79.032 41.8969 82.5696 44.9556 82.5696 47.3809C82.5541 49.8063 79.0165 52.8804 73.5479 55.1977Z" fill="#CCCCCC"/>
<path d="M48.091 54.4398C51.99 54.4398 55.1508 51.2791 55.1508 47.3801C55.1508 43.4811 51.99 40.3203 48.091 40.3203C44.192 40.3203 41.0312 43.4811 41.0312 47.3801C41.0312 51.2791 44.192 54.4398 48.091 54.4398Z" fill="#CCCCCC"/>
</g>
<path d="M31.604 130L28.948 125.44H27.188V130H25.732V118.848H29.332C30.1747 118.848 30.884 118.992 31.46 119.28C32.0467 119.568 32.484 119.957 32.772 120.448C33.06 120.939 33.204 121.499 33.204 122.128C33.204 122.896 32.98 123.573 32.532 124.16C32.0947 124.747 31.4333 125.136 30.548 125.328L33.348 130H31.604ZM27.188 124.272H29.332C30.1213 124.272 30.7133 124.08 31.108 123.696C31.5027 123.301 31.7 122.779 31.7 122.128C31.7 121.467 31.5027 120.955 31.108 120.592C30.724 120.229 30.132 120.048 29.332 120.048H27.188V124.272ZM43.4664 125.28C43.4664 125.557 43.4504 125.851 43.4184 126.16H36.4104C36.4637 127.024 36.757 127.701 37.2904 128.192C37.8344 128.672 38.4904 128.912 39.2584 128.912C39.8877 128.912 40.4104 128.768 40.8264 128.48C41.253 128.181 41.5517 127.787 41.7224 127.296H43.2904C43.0557 128.139 42.5864 128.827 41.8824 129.36C41.1784 129.883 40.3037 130.144 39.2584 130.144C38.4264 130.144 37.6797 129.957 37.0184 129.584C36.3677 129.211 35.8557 128.683 35.4824 128C35.109 127.307 34.9224 126.507 34.9224 125.6C34.9224 124.693 35.1037 123.899 35.4664 123.216C35.829 122.533 36.3357 122.011 36.9864 121.648C37.6477 121.275 38.405 121.088 39.2584 121.088C40.0904 121.088 40.8264 121.269 41.4664 121.632C42.1064 121.995 42.597 122.496 42.9384 123.136C43.2904 123.765 43.4664 124.48 43.4664 125.28ZM41.9624 124.976C41.9624 124.421 41.8397 123.947 41.5944 123.552C41.349 123.147 41.013 122.843 40.5864 122.64C40.1704 122.427 39.7064 122.32 39.1944 122.32C38.4584 122.32 37.829 122.555 37.3064 123.024C36.7944 123.493 36.501 124.144 36.4264 124.976H41.9624ZM44.8443 125.584C44.8443 124.688 45.0256 123.904 45.3883 123.232C45.7509 122.549 46.2469 122.021 46.8763 121.648C47.5163 121.275 48.2256 121.088 49.0043 121.088C49.7723 121.088 50.4389 121.253 51.0043 121.584C51.5696 121.915 51.9909 122.331 52.2683 122.832V121.232H53.7403V130H52.2683V128.368C51.9803 128.88 51.5483 129.307 50.9723 129.648C50.4069 129.979 49.7456 130.144 48.9883 130.144C48.2096 130.144 47.5056 129.952 46.8763 129.568C46.2469 129.184 45.7509 128.645 45.3883 127.952C45.0256 127.259 44.8443 126.469 44.8443 125.584ZM52.2683 125.6C52.2683 124.939 52.1349 124.363 51.8683 123.872C51.6016 123.381 51.2389 123.008 50.7803 122.752C50.3323 122.485 49.8363 122.352 49.2923 122.352C48.7483 122.352 48.2523 122.48 47.8043 122.736C47.3563 122.992 46.9989 123.365 46.7323 123.856C46.4656 124.347 46.3323 124.923 46.3323 125.584C46.3323 126.256 46.4656 126.843 46.7323 127.344C46.9989 127.835 47.3563 128.213 47.8043 128.48C48.2523 128.736 48.7483 128.864 49.2923 128.864C49.8363 128.864 50.3323 128.736 50.7803 128.48C51.2389 128.213 51.6016 127.835 51.8683 127.344C52.1349 126.843 52.2683 126.261 52.2683 125.6ZM55.6568 125.6C55.6568 124.693 55.8381 123.904 56.2008 123.232C56.5634 122.549 57.0648 122.021 57.7048 121.648C58.3554 121.275 59.0968 121.088 59.9288 121.088C61.0061 121.088 61.8914 121.349 62.5848 121.872C63.2888 122.395 63.7528 123.12 63.9768 124.048H62.4088C62.2594 123.515 61.9661 123.093 61.5288 122.784C61.1021 122.475 60.5688 122.32 59.9288 122.32C59.0968 122.32 58.4248 122.608 57.9128 123.184C57.4008 123.749 57.1448 124.555 57.1448 125.6C57.1448 126.656 57.4008 127.472 57.9128 128.048C58.4248 128.624 59.0968 128.912 59.9288 128.912C60.5688 128.912 61.1021 128.763 61.5288 128.464C61.9554 128.165 62.2488 127.739 62.4088 127.184H63.9768C63.7421 128.08 63.2728 128.8 62.5688 129.344C61.8648 129.877 60.9848 130.144 59.9288 130.144C59.0968 130.144 58.3554 129.957 57.7048 129.584C57.0648 129.211 56.5634 128.683 56.2008 128C55.8381 127.317 55.6568 126.517 55.6568 125.6ZM67.6955 122.432V127.6C67.6955 128.027 67.7862 128.331 67.9675 128.512C68.1488 128.683 68.4635 128.768 68.9115 128.768H69.9835V130H68.6715C67.8608 130 67.2528 129.813 66.8475 129.44C66.4422 129.067 66.2395 128.453 66.2395 127.6V122.432H65.1035V121.232H66.2395V119.024H67.6955V121.232H69.9835V122.432H67.6955Z" fill="#AFAFAF"/>
<defs>
<clipPath id="clip0_9380_56174">
<rect width="96" height="96" fill="white"/>
</clipPath>
</defs>
</svg>
