<svg width="172" height="148" viewBox="0 0 172 148" fill="none" xmlns="http://www.w3.org/2000/svg"><path d="M27.047 135.21h-5.472L20.567 138H18.84l4.536-12.474h1.89L29.783 138h-1.728l-1.008-2.79Zm-.468-1.332-2.268-6.336-2.268 6.336h4.536Zm6.819-3.924c.324-.564.804-1.032 1.44-1.404.648-.384 1.398-.576 2.25-.576.876 0 1.668.21 2.376.63a4.407 4.407 0 0 1 1.692 1.782c.408.756.612 1.638.612 2.646 0 .996-.204 1.884-.612 2.664a4.504 4.504 0 0 1-1.692 1.818c-.708.432-1.5.648-2.376.648-.84 0-1.584-.186-2.232-.558-.636-.384-1.122-.858-1.458-1.422v6.498H31.76v-14.544h1.638v1.818Zm6.696 3.078c0-.744-.15-1.392-.45-1.944a3.098 3.098 0 0 0-1.224-1.26 3.314 3.314 0 0 0-1.674-.432c-.6 0-1.158.15-1.674.45-.504.288-.912.714-1.224 1.278-.3.552-.45 1.194-.45 1.926 0 .744.15 1.398.45 1.962.312.552.72.978 1.224 1.278a3.379 3.379 0 0 0 1.674.432c.612 0 1.17-.144 1.674-.432.516-.3.924-.726 1.224-1.278.3-.564.45-1.224.45-1.98Zm3.218 0c0-1.008.204-1.89.612-2.646a4.446 4.446 0 0 1 1.674-1.782c.72-.42 1.518-.63 2.394-.63.864 0 1.614.186 2.25.558.636.372 1.11.84 1.422 1.404v-1.8h1.656V138h-1.656v-1.836c-.324.576-.81 1.056-1.458 1.44-.636.372-1.38.558-2.232.558-.876 0-1.668-.216-2.376-.648-.708-.432-1.266-1.038-1.674-1.818-.408-.78-.612-1.668-.612-2.664Zm8.352.018c0-.744-.15-1.392-.45-1.944a3.098 3.098 0 0 0-1.224-1.26 3.211 3.211 0 0 0-1.674-.45c-.612 0-1.17.144-1.674.432a3.134 3.134 0 0 0-1.206 1.26c-.3.552-.45 1.2-.45 1.944 0 .756.15 1.416.45 1.98.3.552.702.978 1.206 1.278a3.314 3.314 0 0 0 1.674.432c.612 0 1.17-.144 1.674-.432.516-.3.924-.726 1.224-1.278.3-.564.45-1.218.45-1.962Zm3.812 0c0-1.02.204-1.908.612-2.664a4.407 4.407 0 0 1 1.692-1.782c.732-.42 1.566-.63 2.502-.63 1.212 0 2.208.294 2.988.882.792.588 1.314 1.404 1.566 2.448h-1.764a2.518 2.518 0 0 0-.99-1.422c-.48-.348-1.08-.522-1.8-.522-.936 0-1.692.324-2.268.972-.576.636-.864 1.542-.864 2.718 0 1.188.288 2.106.864 2.754.576.648 1.332.972 2.268.972.72 0 1.32-.168 1.8-.504.48-.336.81-.816.99-1.44h1.764c-.264 1.008-.792 1.818-1.584 2.43-.792.6-1.782.9-2.97.9-.936 0-1.77-.21-2.502-.63a4.407 4.407 0 0 1-1.692-1.782c-.408-.768-.612-1.668-.612-2.7Zm16.442-5.094c.744 0 1.416.162 2.016.486.6.312 1.068.786 1.404 1.422.348.636.522 1.41.522 2.322V138h-1.62v-5.58c0-.984-.246-1.734-.738-2.25-.492-.528-1.164-.792-2.016-.792-.864 0-1.554.27-2.07.81-.504.54-.756 1.326-.756 2.358V138h-1.638v-13.32h1.638v4.86a3.24 3.24 0 0 1 1.332-1.17c.576-.276 1.218-.414 1.926-.414Zm15.617 4.734c0 .312-.018.642-.054.99h-7.884c.06.972.39 1.734.99 2.286.612.54 1.35.81 2.214.81.708 0 1.296-.162 1.764-.486.48-.336.816-.78 1.008-1.332h1.764a4.284 4.284 0 0 1-1.584 2.322c-.792.588-1.776.882-2.952.882-.936 0-1.776-.21-2.52-.63a4.492 4.492 0 0 1-1.728-1.782c-.42-.78-.63-1.68-.63-2.7 0-1.02.204-1.914.612-2.682a4.254 4.254 0 0 1 1.71-1.764c.744-.42 1.596-.63 2.556-.63.936 0 1.764.204 2.484.612.72.408 1.272.972 1.656 1.692.396.708.594 1.512.594 2.412Zm-1.692-.342c0-.624-.138-1.158-.414-1.602a2.605 2.605 0 0 0-1.134-1.026c-.468-.24-.99-.36-1.566-.36-.828 0-1.536.264-2.124.792-.576.528-.906 1.26-.99 2.196h6.228Zm14.971-6.894v9.27c0 1.032-.318 1.86-.954 2.484-.636.612-1.476.918-2.52.918-1.056 0-1.902-.312-2.538-.936-.636-.636-.954-1.5-.954-2.592h1.638c.012.612.168 1.11.468 1.494.312.384.774.576 1.386.576.612 0 1.068-.18 1.368-.54.3-.372.45-.84.45-1.404v-9.27h1.656Zm15.953.09V138h-1.638v-9.288l-4.14 9.288h-1.152l-4.158-9.306V138h-1.638v-12.456h1.764l4.608 10.296 4.608-10.296h1.746Zm11.778 7.146c0 .312-.018.642-.054.99h-7.884c.06.972.39 1.734.99 2.286.612.54 1.35.81 2.214.81.708 0 1.296-.162 1.764-.486.48-.336.816-.78 1.008-1.332h1.764a4.284 4.284 0 0 1-1.584 2.322c-.792.588-1.776.882-2.952.882-.936 0-1.776-.21-2.52-.63a4.492 4.492 0 0 1-1.728-1.782c-.42-.78-.63-1.68-.63-2.7 0-1.02.204-1.914.612-2.682a4.254 4.254 0 0 1 1.71-1.764c.744-.42 1.596-.63 2.556-.63.936 0 1.764.204 2.484.612.72.408 1.272.972 1.656 1.692.396.708.594 1.512.594 2.412Zm-1.692-.342c0-.624-.138-1.158-.414-1.602a2.605 2.605 0 0 0-1.134-1.026c-.468-.24-.99-.36-1.566-.36-.828 0-1.536.264-2.124.792-.576.528-.906 1.26-.99 2.196h6.228Zm5.852-2.862v5.814c0 .48.102.822.306 1.026.204.192.558.288 1.062.288h1.206V138h-1.476c-.912 0-1.596-.21-2.052-.63-.456-.42-.684-1.11-.684-2.07v-5.814h-1.278v-1.35h1.278v-2.484h1.638v2.484h2.574v1.35h-2.574Zm13.559 3.204c0 .312-.018.642-.054.99h-7.884c.06.972.39 1.734.99 2.286.612.54 1.35.81 2.214.81.708 0 1.296-.162 1.764-.486.48-.336.816-.78 1.008-1.332h1.764a4.284 4.284 0 0 1-1.584 2.322c-.792.588-1.776.882-2.952.882-.936 0-1.776-.21-2.52-.63a4.492 4.492 0 0 1-1.728-1.782c-.42-.78-.63-1.68-.63-2.7 0-1.02.204-1.914.612-2.682a4.254 4.254 0 0 1 1.71-1.764c.744-.42 1.596-.63 2.556-.63.936 0 1.764.204 2.484.612.72.408 1.272.972 1.656 1.692.396.708.594 1.512.594 2.412Zm-1.692-.342c0-.624-.138-1.158-.414-1.602a2.605 2.605 0 0 0-1.134-1.026c-.468-.24-.99-.36-1.566-.36-.828 0-1.536.264-2.124.792-.576.528-.906 1.26-.99 2.196h6.228Zm5.492-2.61a3.16 3.16 0 0 1 1.224-1.314c.54-.312 1.194-.468 1.962-.468v1.692h-.432c-1.836 0-2.754.996-2.754 2.988V138h-1.638v-9.864h1.638v1.602Z" fill="#A0A0A0"/><path d="M24.81 20.28c-.915.54-2.439 2.057-4.246 4.255l1.666 3.13c1.164-1.668 2.362-3.162 3.56-4.44.087-.098.141-.152.141-.152-.044.054-.098.098-.142.152-.392.422-1.567 1.787-3.342 4.505 1.71-.087 4.333-.433 6.478-.802.642-3.552-.62-5.176-.62-5.176s-1.612-2.588-3.495-1.473Zm-5.607 26.27a13.739 13.739 0 0 1-.315.055c.109-.01.217-.033.315-.054Z" fill="#A3A3A3"/><path opacity=".35" d="M19.203 46.55a13.739 13.739 0 0 1-.315.055c.109-.01.217-.033.315-.054Z" fill="#A3A3A3"/><path d="M19.77 43.811c-.01 0-.01 0 0 0 .033 0 .066-.01.098-.01a4.65 4.65 0 0 0 .414-.076c-.163.032-.338.054-.512.086Z" fill="#A3A3A3"/><path opacity=".35" d="M19.77 43.811c-.01 0-.01 0 0 0 .033 0 .066-.01.098-.01a4.65 4.65 0 0 0 .414-.076c-.163.032-.338.054-.512.086Z" fill="#A3A3A3"/><path d="M17.31 35.744a149.59 149.59 0 0 1 1.535-2.762 71.544 71.544 0 0 1 1.633-2.707c.032-.054.065-.108.098-.152a65.117 65.117 0 0 1 1.643-2.469l-1.665-3.119c-.12.152-.25.303-.381.466a71.78 71.78 0 0 0-1.492 1.917c-.577.768-1.165 1.58-1.774 2.436a112.53 112.53 0 0 0-1.688 2.48 136.13 136.13 0 0 0-1.436 2.253c-.022.032-.033.054-.055.086l2.166 4.256c.48-.898.947-1.797 1.416-2.685ZM7.436 59.752c-.283.78-.577 1.582-.86 2.405 0 .01-.01.021-.01.032-.044.12-.088.227-.12.347-.197.552-.36 1.05-.752 2.176.643.293 1.154 1.05 1.633 1.917a3.483 3.483 0 0 0-1.132-2.393c3.146.14 5.868-.65 7.261-2.946.12-.206.24-.422.349-.65-.643.802-1.426 1.148-2.918 1.062h-.01.01c2.188-.975 3.288-1.917 4.257-3.466.228-.368.457-.769.685-1.213-1.916 1.96-4.136 2.513-6.477 2.09l-1.753.195c-.054.152-.109.293-.163.444Z" fill="#A3A3A3"/><path d="M8.252 55.843c.38-.975.773-1.96 1.165-2.957.38-.953.773-1.906 1.175-2.87.403-.964.817-1.927 1.23-2.891.425-.986.86-1.96 1.307-2.935.435-.964.893-1.928 1.339-2.88.163-.347.327-.683.5-1.03.284-.584.578-1.169.872-1.754.01-.032.032-.065.043-.097l-2.144-4.245c-.033.054-.066.119-.11.173-.5.823-1.012 1.657-1.502 2.512a92.3 92.3 0 0 0-1.47 2.643 150.45 150.45 0 0 0-1.186 2.285c-.076.151-.152.314-.228.465a59.218 59.218 0 0 0-3.048 7.472c-.153.477-.295.965-.436 1.441a42.39 42.39 0 0 0-.827 3.379l2.177 4.277c.283-.769.588-1.537.882-2.328.087-.217.174-.433.26-.66Z" fill="#A3A3A3"/><path d="M4.899 54.706a33.024 33.024 0 0 0-.566 4.094c0 .043-.011.097-.011.14-.675-1.082-2.504-2.144-2.493-2.133 1.306 1.884 2.297 3.747 2.439 5.577-.697.141-1.655-.065-2.755-.465 1.154 1.05 2.014 1.343 2.352 1.418-1.056.065-2.156.79-3.266 1.625 1.622-.66 2.94-.92 3.875-.704C2.983 68.448 1.492 73.084 0 78c.457-.13.73-.444.882-.855.261-.888 2.036-6.736 4.8-14.414.077-.217.164-.433.24-.66.022-.066.044-.12.066-.185.294-.801.598-1.624.914-2.469.076-.195.142-.379.218-.574v-.01l-2.177-4.278a.794.794 0 0 0-.044.151Zm11.344-15.908c-.066.13-.12.249-.185.379-.186.39-.381.78-.567 1.18-.206.433-.413.877-.631 1.332-.109.228-.218.455-.327.693-.326.704-.653 1.43-.99 2.177a223.83 223.83 0 0 0-2.482 5.805c-.392.963-.795 1.949-1.198 2.978-.36.91-.718 1.852-1.089 2.815-.021.044-.032.098-.054.141-.36.953-.73 1.938-1.1 2.946a.153.153 0 0 0-.021.065l1.752-.195c-.032-.011-.065-.011-.108-.022 2.1-.26 4.888-1.82 6.684-3.747.827-.888 1.578-1.928 2.275-3.151.523-.91 1.002-1.917 1.47-3.043.403-.975.794-2.036 1.165-3.184a6.51 6.51 0 0 1-1.644.563l-.327.065c-.109.022-.218.032-.337.054 1.96-.747 3.19-2.188 4.082-3.964a7.149 7.149 0 0 1-2.351 1.03c-.131.032-.273.053-.414.075-.033 0-.065.01-.109.01.675-.28 1.252-.595 1.753-.974.109-.076.207-.162.305-.249.152-.13.293-.27.435-.411.087-.098.174-.184.261-.282.196-.227.381-.476.545-.747.054-.087.108-.163.152-.25.065-.13.13-.248.185-.367a19.269 19.269 0 0 0 .893-2.058c.022-.076.054-.14.076-.217.065-.205.13-.39.174-.552.066-.238.11-.433.13-.574a1.198 1.198 0 0 1-.228.152c-.588.346-1.6.671-2.416.823l1.61-.174-1.61.174c-.011 0-.022 0-.033.01-.076.011-.164.022-.25.044.01-.01.032-.01.043-.022l-5.509.596c.011.043 0 .065-.01.076Z" fill="#A3A3A3"/><path d="M22.448 27.73a85.384 85.384 0 0 0-1.6 2.556c-.034.054-.066.097-.088.151-.5.834-1.023 1.744-1.578 2.751-.48.866-.98 1.787-1.503 2.794-.457.866-.914 1.787-1.404 2.761l5.508-.595c1.6-.737 2.32-1.397 3.016-2.36.185-.26.37-.542.555-.835a31.912 31.912 0 0 0 1.611-2.805c.48-.93.904-1.851 1.22-2.675.207-.53.37-1.017.49-1.45.098-.38.174-.737.239-1.084-2.134.358-4.757.704-6.466.791Zm-3.56 18.885c-.11.022-.218.033-.338.054.11-.021.218-.043.338-.054Z" fill="#A3A3A3"/><path opacity=".35" d="M18.888 46.615c-.11.022-.218.033-.338.054.11-.021.218-.043.338-.054Z" fill="#A3A3A3"/><path d="M18.888 46.615c-.11.022-.218.033-.338.054.11-.021.218-.043.338-.054Zm.872-2.803c.032 0 .065-.011.108-.011-.032 0-.065.01-.109.01Z" fill="#A3A3A3"/><path opacity=".35" d="M19.76 43.812c.032 0 .065-.011.108-.011-.032 0-.065.01-.109.01Z" fill="#A3A3A3"/><path d="M19.76 43.812c.032 0 .065-.011.108-.011-.032 0-.065.01-.109.01Z" fill="#A3A3A3"/><path d="M22.291 38.049v.792h-.224v-.792h-.282v-.19h.78v.19h-.274Zm1.319.173-.266.536h-.132l-.265-.536v.619h-.216v-.982h.298l.257.536.257-.536h.299v.982h-.216v-.619h-.016Z" fill="#B0AFB0"/><path d="M31.335 76.456c-.92 0-1.726-.05-2.42-.148-.693-.085-1.28-.19-1.76-.317v-5.447c.523.112 1.075.21 1.655.295.566.085 1.188.127 1.867.127a7.27 7.27 0 0 0 1.804-.211 3.516 3.516 0 0 0 1.465-.74c.425-.337.75-.794.976-1.372.241-.577.361-1.302.361-2.174V36.508h6.58v29.75c0 1.773-.262 3.3-.785 4.581-.51 1.281-1.231 2.337-2.165 3.167-.92.845-2.024 1.464-3.311 1.858-1.288.394-2.71.592-4.267.592ZM45.39 36.51v30.864h5.882v-14.36c0-.394-.011-.836-.025-1.328 0-.493-.014-1.004-.042-1.539a64.73 64.73 0 0 0-.06-1.623 56.756 56.756 0 0 0-.067-1.605 203.385 203.385 0 0 0-.212-3.759h.195l6.812 24.214h6.043l7.345-24.172h.169a254.713 254.713 0 0 1-.144 3.691c-.014.507-.04 1.03-.067 1.564l-.043 1.58-.042 1.48v15.857h6.136V36.51h-8.959l-7.133 23.6h-.127l-6.702-23.6h-8.96Zm61.605 2.236-1.867 4.977-3.559 2.161v2.724h3.094v11.376c0 1.52.181 2.787.549 3.8.382 1 .904 1.8 1.555 2.405a5.533 5.533 0 0 0 2.316 1.253c.891.239 1.849.353 2.882.353 1.061 0 2.041-.1 2.933-.311.906-.197 1.657-.456 2.265-.765v-4.793c-.594.211-1.178.39-1.758.53-.566.14-1.172.21-1.809.21-.735 0-1.33-.22-1.783-.656-.453-.436-.676-1.111-.676-2.026V48.608h5.772v-4.834h-5.772v-5.028h-4.142Zm-16.616 4.582c-1.613 0-3.082.261-4.412.782a9.01 9.01 0 0 0-3.397 2.338c-.934 1.027-1.666 2.319-2.19 3.867-.523 1.549-.786 3.354-.786 5.423 0 2.041.288 3.827.854 5.347.58 1.507 1.384 2.76 2.417 3.759 1.033.985 2.265 1.718 3.694 2.21 1.429.493 2.993.74 4.69.74.878 0 1.682-.03 2.418-.1a14.82 14.82 0 0 0 2.062-.294 15.934 15.934 0 0 0 1.8-.513c.58-.212 1.159-.461 1.725-.757v-4.986a25.46 25.46 0 0 1-1.826.824c-.594.225-1.2.417-1.809.572a15.93 15.93 0 0 1-1.885.361c-.636.07-1.315.101-2.036.101-.864 0-1.637-.127-2.316-.395a4.984 4.984 0 0 1-1.725-1.143c-.466-.507-.83-1.124-1.098-1.842-.255-.731-.394-1.545-.423-2.446h14.47v-3.128c0-1.717-.238-3.234-.719-4.557-.467-1.337-1.145-2.465-2.037-3.38-.877-.915-1.955-1.603-3.228-2.068-1.26-.478-2.672-.715-4.243-.715Zm38.972 0c-1.613 0-3.082.261-4.412.782a9.011 9.011 0 0 0-3.398 2.338c-.934 1.027-1.665 2.319-2.189 3.867-.523 1.549-.786 3.354-.786 5.423 0 2.041.288 3.827.854 5.347.58 1.507 1.384 2.76 2.417 3.759 1.033.985 2.264 1.718 3.693 2.21 1.43.493 2.993.74 4.691.74.877 0 1.682-.03 2.417-.1a14.83 14.83 0 0 0 2.063-.294 15.994 15.994 0 0 0 1.8-.513c.58-.212 1.158-.461 1.724-.757v-4.986c-.622.31-1.231.585-1.825.824a16.9 16.9 0 0 1-1.809.572 15.95 15.95 0 0 1-1.885.361c-.637.07-1.315.101-2.037.101-.863 0-1.636-.127-2.316-.395a4.947 4.947 0 0 1-1.715-1.143 5.574 5.574 0 0 1-1.108-1.842c-.254-.731-.394-1.545-.422-2.446h14.469v-3.128c0-1.717-.237-3.234-.718-4.557-.467-1.337-1.145-2.465-2.037-3.38-.877-.915-1.955-1.603-3.228-2.068-1.26-.478-2.673-.715-4.243-.715Zm24.333 0c-.793 0-1.499.098-2.122.295a5.637 5.637 0 0 0-1.656.798c-.481.338-.914.76-1.31 1.253a11.856 11.856 0 0 0-1.108 1.64h-.321l-.955-3.54h-4.902v23.6h6.474V55.36c0-1.112.137-2.048.406-2.808.283-.775.671-1.394 1.166-1.858a4.542 4.542 0 0 1 1.809-1.035 8.012 8.012 0 0 1 2.307-.32c.142 0 .321.012.533.026.212 0 .421.014.634.042.226.014.444.04.642.067.198.029.352.056.465.085v-6.046a1.807 1.807 0 0 0-.38-.058 5.012 5.012 0 0 0-.533-.068 3.904 3.904 0 0 0-.592-.042 7.82 7.82 0 0 0-.557-.017Zm-63.263 4.583c.68 0 1.274.125 1.784.378.509.253.936.6 1.276 1.05.34.437.59.96.76 1.565.17.605.265 1.266.28 1.984h-8.258c.113-1.717.543-2.973 1.293-3.775.764-.803 1.72-1.202 2.865-1.202Zm38.972 0c.679 0 1.274.125 1.783.378.51.253.937.6 1.277 1.05.339.437.59.96.76 1.565.17.605.265 1.266.279 1.984h-8.257c.113-1.717.543-2.973 1.293-3.775.764-.803 1.719-1.202 2.865-1.202Z" fill="#5E5E5E" stroke="#5E5E5E" stroke-width="1.229" stroke-linejoin="round"/><path d="M162.252 43.27h-1.439v-5.58h-1.709v-1.195h4.852v1.195h-1.704v5.578Zm5.49 0-1.495-5.315h-.042a46.041 46.041 0 0 1 .061 1.177c.006.12.01.24.014.357.006.117.009.23.009.338.003.108.005.205.005.292v3.15h-1.29v-6.773h1.965l1.471 5.18h.028l1.565-5.18h1.965v6.773h-1.345V39.79a102.641 102.641 0 0 0 .018-.672c.006-.117.011-.231.014-.343.013-.259.023-.53.033-.81h-.038l-1.611 5.304h-1.327Z" fill="#4D4D4D"/><path d="m35.195 31.76 4.647-11.047h.896l4.647 11.047h-1.169l-1.442-3.451h-4.996l-1.424 3.451h-1.16Zm5.1-9.772-2.282 5.458h4.507l-2.225-5.458Zm6.279 9.772V20.713h4.6c1.904 0 3.28 1.754 3.28 3.47 0 1.8-1.281 3.498-3.185 3.498h-3.611v4.079h-1.084Zm1.084-5.045h3.554c1.31 0 2.159-1.2 2.159-2.532 0-1.388-1.028-2.504-2.253-2.504h-3.46v5.036Zm6.193 5.045 4.648-11.047h.895l4.648 11.047h-1.188l-1.442-3.451h-4.987L55 31.76h-1.15Zm5.1-9.772-2.281 5.458h4.506l-2.225-5.458Zm10.332-1.342c1.97 0 3.413.994 4.101 2.41l-.877.526c-.707-1.463-2.083-1.96-3.28-1.96-2.659 0-4.11 2.363-4.11 4.586 0 2.438 1.8 4.651 4.157 4.651 1.254 0 2.724-.619 3.422-2.054l.905.47c-.717 1.65-2.687 2.569-4.393 2.569-3.045 0-5.195-2.898-5.195-5.693 0-2.654 1.923-5.505 5.27-5.505Zm14.602.067V31.76h-1.093v-5.167h-6.58v5.167h-1.075V20.713h1.075v4.914h6.58v-4.914h1.093Zm9.966 10.081v.966h-7.457V20.713h7.316v.966h-6.241v3.985h5.44v.92h-5.44v4.21h6.382Z" fill="#5E5E5E"/></svg>