<svg width="96" height="136" viewBox="0 0 96 136" fill="none" xmlns="http://www.w3.org/2000/svg">
<g>
<path d="M1 50.9083V10.0078L36.25 30.4581V44.0916L12.75 30.4581V57.7251L1 50.9083Z" fill="#CDCDCD"/>
<path d="M36.25 30.4581L71.5 10.0078V50.9083L48 64.5418L36.25 57.7251L59.75 44.0916V30.4581L36.25 44.0916V30.4581Z" fill="#B9B9B9"/>
<path d="M36.25 57.7246V71.3581L59.75 84.9916V71.3581L36.25 57.7246Z" fill="#CDCDCD"/>
<path d="M59.75 84.9921L95 64.5418V37.2748L83.25 44.0916V57.7251L59.75 71.3586V84.9921ZM83.25 30.4581V16.8246L95 10.0078V23.6413L83.25 30.4581Z" fill="#B9B9B9"/>
</g>
<path d="M20.544 118.928V130H19.088V121.744L15.408 130H14.384L10.688 121.728V130H9.232V118.928H10.8L14.896 128.08L18.992 118.928H20.544ZM22.4693 125.584C22.4693 124.688 22.6506 123.904 23.0133 123.232C23.3759 122.549 23.8719 122.021 24.5013 121.648C25.1413 121.275 25.8506 121.088 26.6293 121.088C27.3973 121.088 28.0639 121.253 28.6293 121.584C29.1946 121.915 29.6159 122.331 29.8933 122.832V121.232H31.3653V130H29.8933V128.368C29.6053 128.88 29.1733 129.307 28.5973 129.648C28.0319 129.979 27.3706 130.144 26.6133 130.144C25.8346 130.144 25.1306 129.952 24.5013 129.568C23.8719 129.184 23.3759 128.645 23.0133 127.952C22.6506 127.259 22.4693 126.469 22.4693 125.584ZM29.8933 125.6C29.8933 124.939 29.7599 124.363 29.4933 123.872C29.2266 123.381 28.8639 123.008 28.4053 122.752C27.9573 122.485 27.4613 122.352 26.9173 122.352C26.3733 122.352 25.8773 122.48 25.4293 122.736C24.9813 122.992 24.6239 123.365 24.3573 123.856C24.0906 124.347 23.9573 124.923 23.9573 125.584C23.9573 126.256 24.0906 126.843 24.3573 127.344C24.6239 127.835 24.9813 128.213 25.4293 128.48C25.8773 128.736 26.3733 128.864 26.9173 128.864C27.4613 128.864 27.9573 128.736 28.4053 128.48C28.8639 128.213 29.2266 127.835 29.4933 127.344C29.7599 126.843 29.8933 126.261 29.8933 125.6ZM35.6018 122.432V127.6C35.6018 128.027 35.6924 128.331 35.8738 128.512C36.0551 128.683 36.3698 128.768 36.8177 128.768H37.8898V130H36.5778C35.7671 130 35.1591 129.813 34.7538 129.44C34.3484 129.067 34.1458 128.453 34.1458 127.6V122.432H33.0098V121.232H34.1458V119.024H35.6018V121.232H37.8898V122.432H35.6018ZM47.6539 125.28C47.6539 125.557 47.6379 125.851 47.6059 126.16H40.5979C40.6512 127.024 40.9445 127.701 41.4779 128.192C42.0219 128.672 42.6779 128.912 43.4459 128.912C44.0752 128.912 44.5979 128.768 45.0139 128.48C45.4405 128.181 45.7392 127.787 45.9099 127.296H47.4779C47.2432 128.139 46.7739 128.827 46.0699 129.36C45.3659 129.883 44.4912 130.144 43.4459 130.144C42.6139 130.144 41.8672 129.957 41.2059 129.584C40.5552 129.211 40.0432 128.683 39.6699 128C39.2965 127.307 39.1099 126.507 39.1099 125.6C39.1099 124.693 39.2912 123.899 39.6539 123.216C40.0165 122.533 40.5232 122.011 41.1739 121.648C41.8352 121.275 42.5925 121.088 43.4459 121.088C44.2779 121.088 45.0139 121.269 45.6539 121.632C46.2939 121.995 46.7845 122.496 47.1259 123.136C47.4779 123.765 47.6539 124.48 47.6539 125.28ZM46.1499 124.976C46.1499 124.421 46.0272 123.947 45.7819 123.552C45.5365 123.147 45.2005 122.843 44.7739 122.64C44.3579 122.427 43.8939 122.32 43.3819 122.32C42.6459 122.32 42.0165 122.555 41.4939 123.024C40.9819 123.493 40.6885 124.144 40.6139 124.976H46.1499ZM51.0318 122.656C51.2878 122.155 51.6504 121.765 52.1198 121.488C52.5998 121.211 53.1811 121.072 53.8638 121.072V122.576H53.4798C51.8478 122.576 51.0318 123.461 51.0318 125.232V130H49.5758V121.232H51.0318V122.656ZM56.2965 119.808C56.0192 119.808 55.7845 119.712 55.5925 119.52C55.4005 119.328 55.3045 119.093 55.3045 118.816C55.3045 118.539 55.4005 118.304 55.5925 118.112C55.7845 117.92 56.0192 117.824 56.2965 117.824C56.5632 117.824 56.7872 117.92 56.9685 118.112C57.1605 118.304 57.2565 118.539 57.2565 118.816C57.2565 119.093 57.1605 119.328 56.9685 119.52C56.7872 119.712 56.5632 119.808 56.2965 119.808ZM57.0005 121.232V130H55.5445V121.232H57.0005ZM58.938 125.584C58.938 124.688 59.1193 123.904 59.482 123.232C59.8447 122.549 60.3407 122.021 60.97 121.648C61.61 121.275 62.3193 121.088 63.098 121.088C63.866 121.088 64.5327 121.253 65.098 121.584C65.6633 121.915 66.0847 122.331 66.362 122.832V121.232H67.834V130H66.362V128.368C66.074 128.88 65.642 129.307 65.066 129.648C64.5007 129.979 63.8393 130.144 63.082 130.144C62.3033 130.144 61.5993 129.952 60.97 129.568C60.3407 129.184 59.8447 128.645 59.482 127.952C59.1193 127.259 58.938 126.469 58.938 125.584ZM66.362 125.6C66.362 124.939 66.2287 124.363 65.962 123.872C65.6953 123.381 65.3327 123.008 64.874 122.752C64.426 122.485 63.93 122.352 63.386 122.352C62.842 122.352 62.346 122.48 61.898 122.736C61.45 122.992 61.0927 123.365 60.826 123.856C60.5593 124.347 60.426 124.923 60.426 125.584C60.426 126.256 60.5593 126.843 60.826 127.344C61.0927 127.835 61.45 128.213 61.898 128.48C62.346 128.736 62.842 128.864 63.386 128.864C63.93 128.864 64.426 128.736 64.874 128.48C65.3327 128.213 65.6953 127.835 65.962 127.344C66.2287 126.843 66.362 126.261 66.362 125.6ZM71.7505 118.16V130H70.2945V118.16H71.7505ZM75.656 118.848V125.904C75.656 126.896 75.896 127.632 76.376 128.112C76.8667 128.592 77.544 128.832 78.408 128.832C79.2613 128.832 79.928 128.592 80.408 128.112C80.8987 127.632 81.144 126.896 81.144 125.904V118.848H82.6V125.888C82.6 126.816 82.4133 127.6 82.04 128.24C81.6667 128.869 81.16 129.339 80.52 129.648C79.8907 129.957 79.1813 130.112 78.392 130.112C77.6027 130.112 76.888 129.957 76.248 129.648C75.6187 129.339 75.1173 128.869 74.744 128.24C74.3813 127.6 74.2 126.816 74.2 125.888V118.848H75.656ZM86.4849 118.848V130H85.0289V118.848H86.4849Z" fill="#AFAFAF"/>
<defs>
<clipPath id="clip0_9380_56246">
<rect width="94" height="75" fill="white" transform="translate(1 10)"/>
</clipPath>
</defs>
</svg>
