<svg width="96" height="137" viewBox="0 0 96 137" fill="none" xmlns="http://www.w3.org/2000/svg"><path d="m21.142 114.31 3.87 10.872 3.924-10.872h1.782L26.056 127h-2.07l-4.644-12.69h1.8Zm20.015 2.808V127h-1.638v-2.322c-.252.804-.702 1.422-1.35 1.854-.636.42-1.38.63-2.232.63-1.14 0-2.064-.366-2.772-1.098-.708-.744-1.062-1.806-1.062-3.186v-5.76h1.638v5.598c0 .984.252 1.746.756 2.286.504.528 1.188.792 2.052.792.9 0 1.62-.288 2.16-.864.54-.588.81-1.44.81-2.556v-5.256h1.638Zm11.714 4.392c0 .348-.024.648-.072.9h-7.902c.036 1.128.354 1.974.954 2.538.612.564 1.356.846 2.232.846.792 0 1.452-.198 1.98-.594.54-.408.87-.948.99-1.62h1.746a4.098 4.098 0 0 1-.81 1.836c-.408.54-.942.96-1.602 1.26-.66.3-1.404.45-2.232.45-.948 0-1.788-.204-2.52-.612a4.399 4.399 0 0 1-1.728-1.746c-.408-.768-.612-1.668-.612-2.7 0-1.032.204-1.932.612-2.7a4.37 4.37 0 0 1 1.728-1.764c.732-.408 1.572-.612 2.52-.612.96 0 1.794.204 2.502.612.72.408 1.266.954 1.638 1.638.384.684.576 1.44.576 2.268Zm-1.656.108c.036-.732-.084-1.344-.36-1.836a2.632 2.632 0 0 0-1.134-1.098 3.452 3.452 0 0 0-1.566-.36c-.9 0-1.656.282-2.268.846-.612.552-.942 1.368-.99 2.448h6.318Zm14.42-7.308v9.432c0 1.044-.3 1.872-.9 2.484-.588.6-1.416.9-2.484.9-1.152 0-2.058-.336-2.718-1.008-.648-.684-.973-1.638-.973-2.862H60.2c0 .732.162 1.314.486 1.746.323.42.822.63 1.493.63.637 0 1.099-.18 1.387-.54.288-.36.431-.81.431-1.35v-9.432h1.639Zm10.572 9.396c0 .6-.144 1.158-.432 1.674-.288.516-.726.936-1.314 1.26-.588.324-1.314.486-2.178.486-.84 0-1.59-.15-2.25-.45a4.187 4.187 0 0 1-1.566-1.26 3.661 3.661 0 0 1-.666-1.836h1.746a2.6 2.6 0 0 0 .36 1.062c.216.336.516.618.9.846.396.216.87.324 1.422.324.72 0 1.272-.192 1.656-.576.384-.384.576-.876.576-1.476 0-.516-.138-.936-.414-1.26a2.695 2.695 0 0 0-.99-.756c-.396-.192-.936-.396-1.62-.612a18.488 18.488 0 0 1-1.944-.738 3.483 3.483 0 0 1-1.242-1.062c-.336-.468-.504-1.086-.504-1.854 0-.66.156-1.242.468-1.746.324-.504.78-.894 1.368-1.17.6-.276 1.302-.414 2.106-.414 1.248 0 2.238.306 2.97.918a3.445 3.445 0 0 1 1.278 2.304h-1.764c-.096-.504-.354-.948-.774-1.332-.42-.384-.99-.576-1.71-.576-.66 0-1.188.174-1.584.522-.396.336-.594.816-.594 1.44 0 .492.126.894.378 1.206.264.3.588.54.972.72.384.168.912.36 1.584.576.816.264 1.47.516 1.962.756.504.24.93.606 1.278 1.098.348.48.522 1.122.522 1.926Z" fill="#A0A0A0"/><g clip-path="url(#a)"><path d="m56.082 17-8.083 14-8.083-14H13l35 60.621 34.998-60.62H56.082Z" fill="#A3A3A3"/><path d="M56.082 17 48 31l-8.082-14H27l21 36.372L68.998 17H56.082Z" fill="#6A6A6A"/></g><defs><clipPath id="a"><path fill="#fff" transform="translate(13 17)" d="M0 0h70v60.622H0z"/></clipPath></defs></svg>