<svg width="70" height="138" viewBox="0 0 70 138" fill="none" xmlns="http://www.w3.org/2000/svg"><path d="M10.364 128.126c-.828 0-1.572-.144-2.232-.432-.648-.3-1.158-.708-1.53-1.224a3.178 3.178 0 0 1-.576-1.818h1.746c.06.588.3 1.086.72 1.494.432.396 1.056.594 1.872.594.78 0 1.392-.192 1.836-.576.456-.396.684-.9.684-1.512 0-.48-.132-.87-.396-1.17a2.53 2.53 0 0 0-.99-.684c-.396-.156-.93-.324-1.602-.504-.828-.216-1.494-.432-1.998-.648a3.318 3.318 0 0 1-1.278-1.008c-.348-.468-.522-1.092-.522-1.872 0-.684.174-1.29.522-1.818.348-.528.834-.936 1.458-1.224.636-.288 1.362-.432 2.178-.432 1.176 0 2.136.294 2.88.882.756.588 1.182 1.368 1.278 2.34h-1.8c-.06-.48-.312-.9-.756-1.26-.444-.372-1.032-.558-1.764-.558-.684 0-1.242.18-1.674.54-.432.348-.648.84-.648 1.476 0 .456.126.828.378 1.116.264.288.582.51.954.666.384.144.918.312 1.602.504.828.228 1.494.456 1.998.684.504.216.936.558 1.296 1.026.36.456.54 1.08.54 1.872 0 .612-.162 1.188-.486 1.728-.324.54-.804.978-1.44 1.314-.636.336-1.386.504-2.25.504Zm19.726-9.99L27.012 128H25.32l-2.375-7.83-2.377 7.83h-1.692l-3.096-9.864h1.675l2.268 8.28 2.448-8.28h1.674l2.393 8.298 2.233-8.298h1.62Zm2.472-1.602c-.312 0-.576-.108-.792-.324a1.077 1.077 0 0 1-.324-.792c0-.312.108-.576.324-.792.216-.216.48-.324.792-.324.3 0 .552.108.756.324.216.216.324.48.324.792 0 .312-.108.576-.324.792a.998.998 0 0 1-.756.324Zm.792 1.602V128h-1.638v-9.864h1.638Zm6.806 1.35h-2.07V128h-1.638v-8.514h-1.278v-1.35h1.278v-.702c0-1.104.282-1.908.846-2.412.576-.516 1.494-.774 2.754-.774v1.368c-.72 0-1.23.144-1.53.432-.288.276-.432.738-.432 1.386v.702h2.07v1.35Zm3.908 0v5.814c0 .48.102.822.306 1.026.204.192.558.288 1.062.288h1.206V128h-1.476c-.912 0-1.596-.21-2.052-.63-.456-.42-.684-1.11-.684-2.07v-5.814h-1.278v-1.35h1.278v-2.484h1.638v2.484h2.574v1.35h-2.574Zm6.16-4.032v7.938c0 1.116.27 1.944.81 2.484.552.54 1.314.81 2.286.81.96 0 1.71-.27 2.25-.81.552-.54.828-1.368.828-2.484v-7.938h1.638v7.92c0 1.044-.21 1.926-.63 2.646a3.958 3.958 0 0 1-1.71 1.584c-.708.348-1.506.522-2.394.522-.888 0-1.692-.174-2.412-.522a3.981 3.981 0 0 1-1.692-1.584c-.408-.72-.612-1.602-.612-2.646v-7.92h1.638Zm12.183 0V128h-1.638v-12.546h1.638Z" fill="#A0A0A0"/><g clip-path="url(#a)"><path d="M15.557 10H54.33c1.887 0 3.719.3 5.496.93a15.45 15.45 0 0 1 6.645 4.703 15.332 15.332 0 0 1 3.363 7.492c.164 1.012.192 2.023.192 3.035v37.817c0 1.203-.055 2.433-.301 3.609a15.478 15.478 0 0 1-3.692 7.3 15.48 15.48 0 0 1-6.836 4.403c-1.586.492-3.226.711-4.894.711-.738 0-38.855 0-39.43-.027a15.604 15.604 0 0 1-7.875-2.598 15.803 15.803 0 0 1-5.332-6.125C.627 69.144.108 66.793.108 64.441V25.56a14.515 14.515 0 0 1 1.449-6.7c1.176-2.46 3.008-4.62 5.277-6.152a15.316 15.316 0 0 1 7.848-2.652c.273-.055.574-.055.875-.055Z" fill="#7C7C7C"/><path d="M59.063 67.258c-.247-.383-.52-.766-.82-1.121a11.616 11.616 0 0 0-2.352-2.133c-1.094-.738-2.38-1.203-3.692-1.258-.93-.055-1.86.11-2.734.438-.875.3-1.723.738-2.543 1.175-.957.493-1.914.985-2.926 1.395-1.203.492-2.46.875-3.746 1.148-1.613.301-3.254.41-4.867.383a32.894 32.894 0 0 1-8.64-1.312 32.685 32.685 0 0 1-7.028-3.035 36.24 36.24 0 0 1-5.442-3.856 39.77 39.77 0 0 1-3.882-3.855 42.253 42.253 0 0 1-2.352-3.008c-.3-.41-.574-.848-.82-1.285L0 43.14V25.504C0 16.945 6.918 10 15.477 10h13.808l10.227 10.39C62.59 36.087 55.125 53.396 55.125 53.396s6.563 7.382 3.938 13.863Z" fill="#6A6A6A"/><path d="M39.564 20.39c23.079 15.696 15.614 33.005 15.614 33.005s6.562 7.41 3.91 13.89c0 0-2.707-4.539-7.246-4.539-4.375 0-6.945 4.54-15.75 4.54-19.606 0-28.875-16.38-28.875-16.38 17.664 11.621 29.723 3.39 29.723 3.39-7.958-4.62-24.883-26.714-24.883-26.714 14.738 12.55 21.109 15.86 21.109 15.86-3.8-3.145-14.465-18.512-14.465-18.512 8.531 8.64 25.484 20.699 25.484 20.699 4.813-13.344-4.62-25.238-4.62-25.238Z" fill="#fff"/></g><defs><clipPath id="a"><path fill="#fff" transform="translate(0 10)" d="M0 0h70v70H0z"/></clipPath></defs></svg>