<svg width="87" height="138" viewBox="0 0 87 138" fill="none" xmlns="http://www.w3.org/2000/svg">
<g>
<path d="M23.39 119.09C23.042 118.358 22.538 117.794 21.878 117.398C21.218 116.99 20.45 116.786 19.574 116.786C18.698 116.786 17.906 116.99 17.198 117.398C16.502 117.794 15.95 118.37 15.542 119.126C15.146 119.87 14.948 120.734 14.948 121.718C14.948 122.702 15.146 123.566 15.542 124.31C15.95 125.054 16.502 125.63 17.198 126.038C17.906 126.434 18.698 126.632 19.574 126.632C20.798 126.632 21.806 126.266 22.598 125.534C23.39 124.802 23.852 123.812 23.984 122.564H18.98V121.232H25.73V122.492C25.634 123.524 25.31 124.472 24.758 125.336C24.206 126.188 23.48 126.866 22.58 127.37C21.68 127.862 20.678 128.108 19.574 128.108C18.41 128.108 17.348 127.838 16.388 127.298C15.428 126.746 14.666 125.984 14.102 125.012C13.55 124.04 13.274 122.942 13.274 121.718C13.274 120.494 13.55 119.396 14.102 118.424C14.666 117.44 15.428 116.678 16.388 116.138C17.348 115.586 18.41 115.31 19.574 115.31C20.906 115.31 22.082 115.64 23.102 116.3C24.134 116.96 24.884 117.89 25.352 119.09H23.39ZM28.7418 116.534C28.4298 116.534 28.1658 116.426 27.9498 116.21C27.7338 115.994 27.6258 115.73 27.6258 115.418C27.6258 115.106 27.7338 114.842 27.9498 114.626C28.1658 114.41 28.4298 114.302 28.7418 114.302C29.0418 114.302 29.2938 114.41 29.4978 114.626C29.7138 114.842 29.8218 115.106 29.8218 115.418C29.8218 115.73 29.7138 115.994 29.4978 116.21C29.2938 116.426 29.0418 116.534 28.7418 116.534ZM29.5338 118.136V128H27.8958V118.136H29.5338ZM34.3235 119.486V125.3C34.3235 125.78 34.4255 126.122 34.6295 126.326C34.8335 126.518 35.1875 126.614 35.6915 126.614H36.8975V128H35.4215C34.5095 128 33.8255 127.79 33.3695 127.37C32.9135 126.95 32.6855 126.26 32.6855 125.3V119.486H31.4075V118.136H32.6855V115.652H34.3235V118.136H36.8975V119.486H34.3235ZM48.5481 115.454V128H46.9101V122.312H40.5201V128H38.8821V115.454H40.5201V120.962H46.9101V115.454H48.5481ZM60.093 118.136V128H58.455V126.542C58.143 127.046 57.705 127.442 57.141 127.73C56.589 128.006 55.977 128.144 55.305 128.144C54.537 128.144 53.847 127.988 53.235 127.676C52.623 127.352 52.137 126.872 51.777 126.236C51.429 125.6 51.255 124.826 51.255 123.914V118.136H52.875V123.698C52.875 124.67 53.121 125.42 53.613 125.948C54.105 126.464 54.777 126.722 55.629 126.722C56.505 126.722 57.195 126.452 57.699 125.912C58.203 125.372 58.455 124.586 58.455 123.554V118.136H60.093ZM64.4967 119.972C64.8327 119.384 65.3247 118.904 65.9727 118.532C66.6207 118.16 67.3587 117.974 68.1867 117.974C69.0747 117.974 69.8727 118.184 70.5807 118.604C71.2887 119.024 71.8467 119.618 72.2547 120.386C72.6627 121.142 72.8667 122.024 72.8667 123.032C72.8667 124.028 72.6627 124.916 72.2547 125.696C71.8467 126.476 71.2827 127.082 70.5627 127.514C69.8547 127.946 69.0627 128.162 68.1867 128.162C67.3347 128.162 66.5847 127.976 65.9367 127.604C65.3007 127.232 64.8207 126.758 64.4967 126.182V128H62.8587V114.68H64.4967V119.972ZM71.1927 123.032C71.1927 122.288 71.0427 121.64 70.7427 121.088C70.4427 120.536 70.0347 120.116 69.5187 119.828C69.0147 119.54 68.4567 119.396 67.8447 119.396C67.2447 119.396 66.6867 119.546 66.1707 119.846C65.6667 120.134 65.2587 120.56 64.9467 121.124C64.6467 121.676 64.4967 122.318 64.4967 123.05C64.4967 123.794 64.6467 124.448 64.9467 125.012C65.2587 125.564 65.6667 125.99 66.1707 126.29C66.6867 126.578 67.2447 126.722 67.8447 126.722C68.4567 126.722 69.0147 126.578 69.5187 126.29C70.0347 125.99 70.4427 125.564 70.7427 125.012C71.0427 124.448 71.1927 123.788 71.1927 123.032Z" fill="#A0A0A0"/>
<g>
<path d="M0.5 43C0.5 31.1302 4.69921 20.9961 13.0977 12.5976C21.4961 4.19921 31.6302 0 43.5 0C55.3697 0 65.5038 4.19921 73.9024 12.5976C82.3007 20.9961 86.5 31.1302 86.5 43C86.5 54.8697 82.3008 65.0038 73.9024 73.4023C65.5039 81.8007 55.3698 86 43.5 86C31.6302 86 21.4961 81.8008 13.0977 73.4023C4.69921 65.0039 0.5 54.8697 0.5 43ZM5.20312 43C5.20312 53.5261 8.95442 62.5403 16.457 70.043C23.9596 77.5455 32.9739 81.2969 43.5 81.2969C54.0261 81.2969 63.0404 77.5456 70.543 70.043C78.0456 62.5404 81.7969 53.5261 81.7969 43C81.7969 32.4739 78.0457 23.4596 70.543 15.957C63.0404 8.45442 54.026 4.70312 43.5 4.70312C32.9739 4.70312 23.9597 8.45442 16.457 15.957C8.95442 23.4596 5.20312 32.4739 5.20312 43ZM17.2969 52.2382C17.073 52.0143 17.073 51.7903 17.2969 51.5664C17.7448 51.1184 18.3048 50.9505 18.9765 51.0624C19.6484 51.1744 20.0403 51.2864 20.1523 51.3984C20.9362 51.7343 21.8041 52.4901 22.7558 53.666C23.7075 54.8418 24.4634 55.6536 25.0234 56.1015C27.7109 58.3411 30.4543 58.5091 33.2538 56.6054C33.4777 55.8216 33.8417 55.1497 34.3455 54.5897C34.8494 54.0298 35.3254 53.638 35.7733 53.4139C36.2213 53.19 37.0052 52.854 38.125 52.4061C34.4296 52.0702 31.4342 51.4263 29.1386 50.4744C26.843 49.5226 25.0233 48.3189 23.6796 46.8631C21.8879 44.8475 20.7961 42.216 20.4041 38.9686C20.0121 35.7212 20.2641 32.7538 21.16 30.0663C21.8319 28.3866 22.7837 26.875 24.0154 25.5311C23.1196 22.7317 23.2876 19.5403 24.5193 15.9569C28.1027 16.1809 31.3501 17.4127 34.2615 19.6522C39.8605 18.1965 45.6834 18.1405 51.7302 19.4843C52.514 18.9244 53.7178 18.2245 55.3414 17.3846C56.9651 16.5448 59.0088 16.0688 61.4723 15.9568C61.9203 17.1886 62.2282 18.6443 62.3962 20.324C62.5642 22.0037 62.4802 23.5714 62.1443 25.0271C64.7197 27.7146 66.0635 31.298 66.1755 35.7771C66.1755 39.3605 65.5597 42.3279 64.3279 44.6795C63.0961 47.031 60.9125 48.9907 57.7771 50.5583C55.6495 51.5662 52.85 52.182 49.3787 52.4059C50.9465 53.1898 52.0942 54.0017 52.8221 54.8415C53.55 55.6814 54.0259 56.9971 54.25 58.7887V64.0799L54.4178 69.2029C54.7538 69.7629 55.1458 70.2387 55.5937 70.6307C56.0416 71.0227 56.4335 71.3026 56.7695 71.4706C57.1053 71.6386 57.2174 71.8905 57.1053 72.2265C56.9933 72.5624 56.5454 72.7304 55.7617 72.7304C53.8579 72.7304 52.3463 72.0585 51.2265 70.7147C50.8906 70.1548 50.7226 69.483 50.7226 68.6991V60.6366C50.7226 59.7407 50.4986 59.0968 50.0507 58.7049C49.6028 58.3129 49.1549 58.061 48.707 57.949V68.531C48.707 70.4347 48.9309 71.6664 49.3789 72.2263C49.8268 72.7862 50.1067 73.3462 50.2188 73.906C50.3308 74.018 50.2467 74.1019 49.9668 74.1579C49.6869 74.2138 49.211 74.13 48.539 73.906C47.0833 73.5701 46.0755 72.8142 45.5156 71.6384C44.9557 70.4626 44.6757 69.2028 44.6757 67.859V57.4453H42.4921V67.8593C42.4921 69.2031 42.2121 70.4909 41.6522 71.7226C40.8685 73.2904 39.4126 74.1301 37.2851 74.2421C36.9492 74.1301 36.7812 74.0182 36.7812 73.9063C36.8932 73.7942 37.2291 73.2344 37.789 72.2266C37.901 72.0026 38.041 71.5547 38.209 70.8828C38.377 70.211 38.461 69.4271 38.461 68.5313V57.9492C38.0131 58.0611 37.5931 58.313 37.2012 58.7051C36.8092 59.0971 36.6132 59.7409 36.6132 60.6367V68.6992C36.6132 69.483 36.4453 70.155 36.1093 70.7149C35.1015 72.0586 33.5898 72.7306 31.5743 72.7306C30.7904 72.7306 30.3425 72.5626 30.2305 72.2267C30.1185 72.0027 30.1465 71.8067 30.3146 71.6387C30.4826 71.4708 30.7345 71.2748 31.0705 71.0508C31.4064 70.8268 31.6304 70.6588 31.7423 70.5469C32.1902 70.211 32.5261 69.763 32.7501 69.2031C33.0861 68.7552 33.17 67.5794 33.0021 65.6758C32.8341 63.7722 32.806 62.5404 32.918 61.9805C30.0065 62.9883 27.0391 62.4843 24.0156 60.4688C23.1198 59.5729 22.2239 58.2851 21.3281 56.6055C20.6562 55.3736 19.3125 53.9179 17.2969 52.2382Z" fill="#919191"/>
</g>
</g>
<defs>
<clipPath id="clip0_7502_63985">
<rect width="86" height="138" fill="white" transform="translate(0.5)"/>
</clipPath>
<clipPath id="clip1_7502_63985">
<rect width="86" height="86" fill="white" transform="translate(0.5)"/>
</clipPath>
</defs>
</svg>
