<svg width="60" height="138" viewBox="0 0 60 138" fill="none" xmlns="http://www.w3.org/2000/svg"><path d="M12.988 115.454v7.938c0 1.116.27 1.944.81 2.484.552.54 1.314.81 2.286.81.96 0 1.71-.27 2.25-.81.552-.54.828-1.368.828-2.484v-7.938H20.8v7.92c0 1.044-.21 1.926-.63 2.646a3.958 3.958 0 0 1-1.71 1.584c-.708.348-1.506.522-2.394.522-.888 0-1.692-.174-2.412-.522a3.981 3.981 0 0 1-1.692-1.584c-.408-.72-.612-1.602-.612-2.646v-7.92h1.638Zm12.183 0V128h-1.639v-12.546h1.639ZM34.766 128l-5.166-5.724V128h-1.638v-12.546H29.6v5.814l5.184-5.814h2.07l-5.688 6.282L36.908 128h-2.142Zm4.818-11.466c-.312 0-.576-.108-.792-.324a1.077 1.077 0 0 1-.324-.792c0-.312.108-.576.324-.792.216-.216.48-.324.792-.324.3 0 .552.108.756.324.216.216.324.48.324.792 0 .312-.108.576-.324.792a.998.998 0 0 1-.756.324Zm.792 1.602V128h-1.638v-9.864h1.638Zm4.79 1.35v5.814c0 .48.101.822.305 1.026.204.192.558.288 1.062.288h1.206V128h-1.476c-.912 0-1.596-.21-2.052-.63-.456-.42-.684-1.11-.684-2.07v-5.814H42.25v-1.35h1.278v-2.484h1.638v2.484h2.574v1.35h-2.574Z" fill="#A0A0A0"/><g><path d="M41.227 15.702 29.675 9 17.62 16.477l11.712 6.46 11.895-7.235Zm5.524 2.886-11.93 7.246 13.52 7.804v20.614L30.109 64.6 12.085 54.253v-16.09L0 32.169v29.123L29.675 78.89l30.752-17.468V26.478l-13.676-7.89Z" fill="#A9A9A9"/></g><defs><clipPath id="a"><path fill="#fff" transform="translate(0 9)" d="M0 0h60.427v70H0z"/></clipPath></defs></svg>
