<svg width="104" height="138" viewBox="0 0 104 138" fill="none" xmlns="http://www.w3.org/2000/svg"><path d="m8.561 128-5.166-5.724V128H1.757v-12.546h1.638v5.814l5.184-5.814h2.07l-5.688 6.282L10.703 128H8.561Zm12.72-9.864V128h-1.639v-1.458c-.311.504-.75.9-1.314 1.188a4.047 4.047 0 0 1-1.835.414c-.768 0-1.458-.156-2.07-.468a3.582 3.582 0 0 1-1.459-1.44c-.348-.636-.521-1.41-.521-2.322v-5.778h1.62v5.562c0 .972.245 1.722.737 2.25.492.516 1.164.774 2.017.774.875 0 1.566-.27 2.07-.81.503-.54.755-1.326.755-2.358v-5.418h1.639Zm4.403 1.836c.336-.588.828-1.068 1.476-1.44.648-.372 1.386-.558 2.214-.558.888 0 1.686.21 2.394.63a4.446 4.446 0 0 1 1.674 1.782c.408.756.612 1.638.612 2.646 0 .996-.204 1.884-.612 2.664a4.504 4.504 0 0 1-1.692 1.818c-.708.432-1.5.648-2.376.648-.852 0-1.602-.186-2.25-.558-.636-.372-1.116-.846-1.44-1.422V128h-1.638v-13.32h1.638v5.292Zm6.696 3.06c0-.744-.15-1.392-.45-1.944a3.098 3.098 0 0 0-1.224-1.26 3.314 3.314 0 0 0-1.674-.432c-.6 0-1.158.15-1.674.45-.504.288-.912.714-1.224 1.278-.3.552-.45 1.194-.45 1.926 0 .744.15 1.398.45 1.962.312.552.72.978 1.224 1.278a3.379 3.379 0 0 0 1.674.432c.612 0 1.17-.144 1.674-.432.516-.3.924-.726 1.224-1.278.3-.564.45-1.224.45-1.98Zm12.83-.342c0 .312-.018.642-.054.99h-7.884c.06.972.39 1.734.99 2.286.612.54 1.35.81 2.214.81.708 0 1.296-.162 1.764-.486.48-.336.816-.78 1.008-1.332h1.764a4.284 4.284 0 0 1-1.584 2.322c-.792.588-1.776.882-2.952.882-.936 0-1.776-.21-2.52-.63a4.492 4.492 0 0 1-1.728-1.782c-.42-.78-.63-1.68-.63-2.7 0-1.02.204-1.914.612-2.682a4.254 4.254 0 0 1 1.71-1.764c.744-.42 1.596-.63 2.556-.63.936 0 1.764.204 2.484.612.72.408 1.272.972 1.656 1.692.396.708.594 1.512.594 2.412Zm-1.692-.342c0-.624-.138-1.158-.414-1.602a2.605 2.605 0 0 0-1.134-1.026c-.468-.24-.99-.36-1.566-.36-.828 0-1.536.264-2.124.792-.576.528-.906 1.26-.99 2.196h6.228Zm5.492-2.61a3.16 3.16 0 0 1 1.224-1.314c.54-.312 1.194-.468 1.962-.468v1.692h-.432c-1.836 0-2.754.996-2.754 2.988V128h-1.638v-9.864h1.638v1.602Zm9.883-1.782c1.2 0 2.172.366 2.916 1.098.744.72 1.116 1.764 1.116 3.132V128h-1.62v-5.58c0-.984-.246-1.734-.738-2.25-.492-.528-1.164-.792-2.016-.792-.864 0-1.554.27-2.07.81-.504.54-.756 1.326-.756 2.358V128h-1.638v-9.864h1.638v1.404a3.266 3.266 0 0 1 1.314-1.17 4.16 4.16 0 0 1 1.854-.414Zm15.708 4.734c0 .312-.018.642-.054.99h-7.884c.06.972.39 1.734.99 2.286.612.54 1.35.81 2.214.81.708 0 1.296-.162 1.764-.486.48-.336.816-.78 1.008-1.332h1.764a4.284 4.284 0 0 1-1.584 2.322c-.792.588-1.776.882-2.952.882-.936 0-1.776-.21-2.52-.63a4.492 4.492 0 0 1-1.728-1.782c-.42-.78-.63-1.68-.63-2.7 0-1.02.204-1.914.612-2.682a4.254 4.254 0 0 1 1.71-1.764c.744-.42 1.596-.63 2.556-.63.936 0 1.764.204 2.484.612.72.408 1.272.972 1.656 1.692.396.708.594 1.512.594 2.412Zm-1.692-.342c0-.624-.138-1.158-.414-1.602a2.605 2.605 0 0 0-1.134-1.026c-.468-.24-.99-.36-1.566-.36-.828 0-1.536.264-2.124.792-.576.528-.906 1.26-.99 2.196h6.228Zm5.852-2.862v5.814c0 .48.102.822.306 1.026.204.192.558.288 1.062.288h1.206V128h-1.476c-.912 0-1.596-.21-2.052-.63-.456-.42-.684-1.11-.684-2.07v-5.814h-1.278v-1.35h1.278v-2.484h1.638v2.484h2.574v1.35h-2.574Zm13.559 3.204c0 .312-.018.642-.054.99h-7.884c.06.972.39 1.734.99 2.286.612.54 1.35.81 2.214.81.708 0 1.296-.162 1.764-.486.48-.336.816-.78 1.008-1.332h1.764a4.284 4.284 0 0 1-1.584 2.322c-.792.588-1.776.882-2.952.882-.936 0-1.776-.21-2.52-.63a4.492 4.492 0 0 1-1.728-1.782c-.42-.78-.63-1.68-.63-2.7 0-1.02.204-1.914.612-2.682a4.254 4.254 0 0 1 1.71-1.764c.744-.42 1.596-.63 2.556-.63.936 0 1.764.204 2.484.612.72.408 1.272.972 1.656 1.692.396.708.594 1.512.594 2.412Zm-1.692-.342c0-.624-.138-1.158-.414-1.602a2.605 2.605 0 0 0-1.134-1.026c-.468-.24-.99-.36-1.566-.36-.828 0-1.536.264-2.124.792-.576.528-.906 1.26-.99 2.196h6.228Zm7.346 5.814c-.756 0-1.434-.126-2.034-.378-.6-.264-1.074-.624-1.422-1.08a2.92 2.92 0 0 1-.576-1.602h1.692c.048.492.276.894.684 1.206.42.312.966.468 1.638.468.624 0 1.116-.138 1.476-.414.36-.276.54-.624.54-1.044 0-.432-.192-.75-.576-.954-.384-.216-.978-.426-1.782-.63a14.665 14.665 0 0 1-1.8-.576 3.418 3.418 0 0 1-1.188-.882c-.324-.396-.486-.912-.486-1.548 0-.504.15-.966.45-1.386.3-.42.726-.75 1.278-.99.552-.252 1.182-.378 1.89-.378 1.092 0 1.974.276 2.646.828.672.552 1.032 1.308 1.08 2.268h-1.638c-.036-.516-.246-.93-.63-1.242-.372-.312-.876-.468-1.512-.468-.588 0-1.056.126-1.404.378-.348.252-.522.582-.522.99 0 .324.102.594.306.81.216.204.48.372.792.504.324.12.768.258 1.332.414.708.192 1.284.384 1.728.576.444.18.822.456 1.134.828.324.372.492.858.504 1.458 0 .54-.15 1.026-.45 1.458-.3.432-.726.774-1.278 1.026-.54.24-1.164.36-1.872.36Z" fill="#A0A0A0"/><g><path d="M35.908 84.59a6.79 6.79 0 0 1-5.34-2.567L10.47 57.213c-1.32-1.654-1.837-3.764-1.32-5.818l7.177-30.97c.46-2.053 1.837-3.707 3.732-4.62L49.114 2.002a6.744 6.744 0 0 1 2.986-.684c1.034 0 2.067.228 2.986.685L84.14 15.748c1.895.913 3.273 2.567 3.733 4.62l7.177 30.97c.46 2.053 0 4.164-1.32 5.818l-20.098 24.81c-1.32 1.597-3.272 2.567-5.34 2.567l-32.384.057Z" fill="#CCC"/><path d="M52.042 2.743c.804 0 1.608.171 2.354.513l29.055 13.746c1.493.741 2.64 2.11 2.985 3.707l7.178 30.97a5.306 5.306 0 0 1-1.091 4.677l-20.097 24.81c-1.034 1.312-2.641 2.054-4.306 2.054H35.907c-1.665 0-3.273-.742-4.306-2.053l-20.097-24.81a5.68 5.68 0 0 1-1.09-4.678l7.177-30.97c.401-1.654 1.492-3.023 2.985-3.707L49.631 3.2a6.954 6.954 0 0 1 2.411-.456Zm0-2.68c-1.206 0-2.411.285-3.56.798L19.428 14.664a8.088 8.088 0 0 0-4.479 5.532l-7.177 30.97c-.574 2.453 0 4.962 1.608 6.959l20.096 24.81c1.55 1.939 3.905 3.023 6.374 3.023h32.212c2.469 0 4.823-1.084 6.374-3.023l20.096-24.81c1.608-1.94 2.182-4.506 1.608-6.96l-7.177-30.969a8.088 8.088 0 0 0-4.479-5.532L55.544.86a8.284 8.284 0 0 0-3.502-.798Z" fill="#fff"/><path d="M81.155 49.227c-.057 0-.057 0 0 0h-.057c-.057 0-.115 0-.115-.057-.115 0-.23-.057-.344-.057-.402-.057-.747-.114-1.091-.114-.173 0-.345 0-.575-.057h-.057c-1.206-.114-2.182-.228-3.1-.513-.403-.171-.517-.4-.632-.628 0-.057-.058-.057-.058-.114l-.746-.227a22.412 22.412 0 0 0-.402-8.043 23.416 23.416 0 0 0-3.216-7.472l.575-.513v-.114c0-.285.057-.57.287-.855.689-.628 1.55-1.141 2.584-1.768.172-.114.344-.171.516-.286.345-.17.632-.341.977-.57.057-.057.172-.114.287-.228.057-.057.114-.057.114-.114.804-.684.977-1.825.402-2.567-.287-.4-.803-.627-1.32-.627-.46 0-.862.171-1.263.456l-.115.114c-.115.057-.173.171-.287.228-.288.286-.517.514-.747.799-.115.114-.23.285-.402.399-.804.856-1.55 1.54-2.297 2.053a.93.93 0 0 1-.516.172c-.115 0-.23 0-.345-.058h-.115l-.689.457c-.746-.799-1.55-1.483-2.354-2.167a23.017 23.017 0 0 0-12-4.735l-.058-.741-.115-.114c-.172-.171-.402-.342-.46-.741-.057-.913.058-1.94.173-3.08v-.057c0-.172.057-.4.115-.57.057-.343.115-.685.172-1.085v-.513c0-1.026-.804-1.882-1.78-1.882-.46 0-.919.228-1.263.57-.344.343-.517.799-.517 1.312v.457c0 .399.058.74.172 1.083.058.171.058.342.115.57v.058c.115 1.14.287 2.167.173 3.08-.058.399-.288.57-.46.741l-.114.114-.058.741c-1.034.114-2.067.228-3.1.457a22.176 22.176 0 0 0-11.37 6.387l-.574-.399h-.115c-.114 0-.23.057-.344.057a.932.932 0 0 1-.517-.17c-.746-.514-1.493-1.255-2.297-2.11-.114-.115-.23-.286-.402-.4a9.443 9.443 0 0 0-.746-.799c-.058-.057-.172-.113-.287-.228-.058-.057-.115-.057-.115-.114a2.016 2.016 0 0 0-1.263-.456c-.517 0-1.034.228-1.321.627-.574.742-.402 1.882.402 2.567.057 0 .057.057.114.057.115.057.173.17.288.228.344.228.631.4.976.57.172.057.345.171.517.286 1.033.627 1.895 1.14 2.584 1.768.287.285.287.57.287.855v.114l.574.514c-.115.17-.23.285-.287.456-2.871 4.506-3.962 9.81-3.216 15.057l-.746.228c0 .058-.058.058-.058.114a1.33 1.33 0 0 1-.631.628c-.861.285-1.895.4-3.1.513h-.058c-.172 0-.402 0-.574.057-.345 0-.69.057-1.091.114-.115 0-.23.057-.345.057-.057 0-.115 0-.172.057-1.034.228-1.666 1.198-1.493 2.11.172.799.919 1.313 1.837 1.313.173 0 .287 0 .46-.058.057 0 .115 0 .115-.057.114 0 .229-.057.344-.057a5.52 5.52 0 0 0 1.034-.399c.172-.057.344-.171.516-.228h.058c1.09-.4 2.067-.742 2.986-.856h.114c.345 0 .575.171.747.286.057 0 .057.057.114.057l.805-.114a22.559 22.559 0 0 0 7.522 10.722c.803.627 1.607 1.14 2.469 1.654l-.345.741c0 .058.057.058.057.114.115.229.23.514.115.913-.344.856-.861 1.711-1.493 2.68v.058c-.114.171-.23.285-.344.456-.23.285-.402.57-.632.913a1.244 1.244 0 0 0-.172.285c0 .057-.057.114-.057.114-.46.97-.115 2.053.746 2.453.23.113.46.17.69.17.688 0 1.377-.456 1.722-1.083 0-.057.057-.114.057-.114.057-.114.115-.228.172-.285.173-.4.23-.685.345-1.027l.172-.513c.402-1.14.69-2.054 1.206-2.852.23-.342.517-.4.746-.513.058 0 .058 0 .115-.057l.402-.742a22.565 22.565 0 0 0 8.039 1.483c1.665 0 3.388-.171 4.996-.57a25.67 25.67 0 0 0 2.985-.856l.344.627c.058 0 .058 0 .116.058.287.056.516.17.746.513.46.798.804 1.768 1.206 2.852v.057l.172.513c.115.342.172.684.344 1.027.058.114.115.17.173.285 0 .057.057.114.057.114a1.951 1.951 0 0 0 1.723 1.084c.23 0 .46-.058.689-.171.402-.229.746-.571.861-1.027.115-.456.115-.97-.114-1.426 0-.057-.058-.057-.058-.114a1.258 1.258 0 0 0-.172-.285c-.173-.343-.402-.628-.632-.913-.115-.17-.23-.285-.344-.456v-.057c-.632-.97-1.207-1.825-1.493-2.68-.115-.4 0-.628.057-.913 0-.057.057-.057.057-.114l-.287-.685c3.044-1.768 5.627-4.278 7.58-7.357 1.033-1.597 1.837-3.366 2.411-5.134l.69.114c.057 0 .057-.057.114-.057.23-.114.402-.285.747-.285h.114c.92.114 1.895.456 2.986.856h.058c.172.057.344.17.516.228.345.171.632.285 1.034.4.115 0 .23.056.344.056.058 0 .115 0 .173.057.172.057.287.057.46.057.86 0 1.607-.57 1.837-1.311 0-.685-.632-1.597-1.666-1.882ZM54.57 46.433l-2.526 1.197-2.527-1.198-.631-2.68 1.722-2.167h2.814l1.722 2.167-.574 2.68ZM69.557 40.5c.445 1.886.58 3.831.402 5.76l-8.786-2.509a1.545 1.545 0 0 1-1.09-1.825c.057-.228.172-.457.344-.627l6.948-6.217c.976 1.597 1.722 3.422 2.182 5.418Zm-4.938-8.84-7.522 5.304c-.632.4-1.493.285-2.01-.342-.172-.172-.23-.4-.287-.628l-.517-9.297a17.475 17.475 0 0 1 10.336 4.963Zm-16.652-4.678c.632-.114 1.206-.228 1.837-.342l-.516 9.126c-.058.798-.69 1.482-1.55 1.482-.23 0-.517-.056-.69-.17l-7.637-5.418c2.355-2.339 5.283-3.936 8.556-4.678Zm-11.312 8.1 6.833 6.045c.632.513.69 1.483.173 2.11-.173.228-.402.4-.69.457l-8.9 2.566c-.344-3.878.517-7.814 2.584-11.179Zm-1.55 15.456 9.13-1.54a1.547 1.547 0 0 1 1.608 1.198c.057.341.057.627-.058.912l-3.502 8.384a18 18 0 0 1-7.178-8.954Zm20.958 11.35c-1.32.285-2.641.456-4.02.456-2.009 0-3.961-.342-5.798-.912l4.536-8.156c.459-.514 1.205-.742 1.837-.4.268.163.502.376.689.627l4.421 7.929c-.517.17-1.09.285-1.665.456ZM67.26 53.96c-1.436 2.281-3.33 4.106-5.512 5.532l-3.618-8.612a1.532 1.532 0 0 1 .804-1.768c.23-.114.517-.171.804-.171l9.187 1.54c-.344 1.254-.919 2.395-1.665 3.479Z" fill="#fff"/></g><defs><clipPath id="a"><path fill="#fff" transform="translate(7.371)" d="M0 0h89v86H0z"/></clipPath></defs></svg>