<svg width="86" height="138" viewBox="0 0 86 138" fill="none" xmlns="http://www.w3.org/2000/svg">
<g clip-path="url(#clip0_7502_64257)">
<path d="M34.704 115.454V124.724C34.704 125.756 34.386 126.584 33.75 127.208C33.114 127.82 32.274 128.126 31.23 128.126C30.174 128.126 29.328 127.814 28.692 127.19C28.056 126.554 27.738 125.69 27.738 124.598H29.376C29.388 125.21 29.544 125.708 29.844 126.092C30.156 126.476 30.618 126.668 31.23 126.668C31.842 126.668 32.298 126.488 32.598 126.128C32.898 125.756 33.048 125.288 33.048 124.724V115.454H34.704ZM38.7769 116.534C38.4649 116.534 38.2009 116.426 37.9849 116.21C37.7689 115.994 37.6609 115.73 37.6609 115.418C37.6609 115.106 37.7689 114.842 37.9849 114.626C38.2009 114.41 38.4649 114.302 38.7769 114.302C39.0769 114.302 39.3289 114.41 39.5329 114.626C39.7489 114.842 39.8569 115.106 39.8569 115.418C39.8569 115.73 39.7489 115.994 39.5329 116.21C39.3289 116.426 39.0769 116.534 38.7769 116.534ZM39.5689 118.136V128H37.9309V118.136H39.5689ZM43.9986 119.738C44.2866 119.174 44.6946 118.736 45.2226 118.424C45.7626 118.112 46.4166 117.956 47.1846 117.956V119.648H46.7526C44.9166 119.648 43.9986 120.644 43.9986 122.636V128H42.3606V118.136H43.9986V119.738ZM48.4635 123.032C48.4635 122.024 48.6675 121.142 49.0755 120.386C49.4835 119.618 50.0415 119.024 50.7495 118.604C51.4695 118.184 52.2675 117.974 53.1435 117.974C54.0075 117.974 54.7575 118.16 55.3935 118.532C56.0295 118.904 56.5035 119.372 56.8155 119.936V118.136H58.4715V128H56.8155V126.164C56.4915 126.74 56.0055 127.22 55.3575 127.604C54.7215 127.976 53.9775 128.162 53.1255 128.162C52.2495 128.162 51.4575 127.946 50.7495 127.514C50.0415 127.082 49.4835 126.476 49.0755 125.696C48.6675 124.916 48.4635 124.028 48.4635 123.032ZM56.8155 123.05C56.8155 122.306 56.6655 121.658 56.3655 121.106C56.0655 120.554 55.6575 120.134 55.1415 119.846C54.6375 119.546 54.0795 119.396 53.4675 119.396C52.8555 119.396 52.2975 119.54 51.7935 119.828C51.2895 120.116 50.8875 120.536 50.5875 121.088C50.2875 121.64 50.1375 122.288 50.1375 123.032C50.1375 123.788 50.2875 124.448 50.5875 125.012C50.8875 125.564 51.2895 125.99 51.7935 126.29C52.2975 126.578 52.8555 126.722 53.4675 126.722C54.0795 126.722 54.6375 126.578 55.1415 126.29C55.6575 125.99 56.0655 125.564 56.3655 125.012C56.6655 124.448 56.8155 123.794 56.8155 123.05Z" fill="#A0A0A0"/>
<path d="M78.1879 9.21289H41.2109C41.2109 13.6399 42.9696 17.8855 46.0999 21.0159C49.2302 24.1462 53.4759 25.9049 57.9029 25.9049H64.7145V32.4815C64.7205 41.6919 72.1853 49.157 81.3956 49.163V12.4206C81.3956 10.6496 79.9598 9.21289 78.1879 9.21289Z" fill="#999999"/>
<path d="M59.8907 27.6367H22.9141C22.9198 36.847 30.3846 44.3121 39.5952 44.3181H46.4068V50.9159C46.4185 60.1262 53.8884 67.5862 63.0987 67.5862V30.8451C63.0987 29.0734 61.6624 27.637 59.8907 27.637V27.6367Z" fill="#A8A8A8"/>
<path d="M41.5824 46.0508H4.60547C4.60547 55.2695 12.079 62.7427 21.2974 62.7427H28.1304V69.3191C28.1364 78.521 35.5882 85.9828 44.7904 86.0003V49.2588C44.7904 47.4871 43.3541 46.0508 41.5824 46.0508Z" fill="#B7B7B7"/>
</g>
<defs>
<clipPath id="clip0_7502_64257">
<rect width="86" height="138" fill="white"/>
</clipPath>
</defs>
</svg>
