<svg width="144" height="132" viewBox="0 0 144 132" fill="none" xmlns="http://www.w3.org/2000/svg"><path d="M50.53 122.126c-.828 0-1.572-.144-2.232-.432-.648-.3-1.158-.708-1.53-1.224a3.178 3.178 0 0 1-.576-1.818h1.746c.06.588.3 1.086.72 1.494.432.396 1.056.594 1.872.594.78 0 1.392-.192 1.836-.576.456-.396.684-.9.684-1.512 0-.48-.132-.87-.396-1.17a2.53 2.53 0 0 0-.99-.684c-.396-.156-.93-.324-1.602-.504-.828-.216-1.494-.432-1.998-.648a3.318 3.318 0 0 1-1.278-1.008c-.348-.468-.522-1.092-.522-1.872 0-.684.174-1.29.522-1.818.348-.528.834-.936 1.458-1.224.636-.288 1.362-.432 2.178-.432 1.176 0 2.136.294 2.88.882.756.588 1.182 1.368 1.278 2.34h-1.8c-.06-.48-.312-.9-.756-1.26-.444-.372-1.032-.558-1.764-.558-.684 0-1.242.18-1.674.54-.432.348-.648.84-.648 1.476 0 .456.126.828.378 1.116.264.288.582.51.954.666.384.144.918.312 1.602.504.828.228 1.494.456 1.998.684.504.216.936.558 1.296 1.026.36.456.54 1.08.54 1.872 0 .612-.162 1.188-.486 1.728-.324.54-.804.978-1.44 1.314-.636.336-1.386.504-2.25.504Zm16.648 2.25-2.501-2.502a7.04 7.04 0 0 1-1.873.252c-1.163 0-2.226-.27-3.186-.81a6.146 6.146 0 0 1-2.285-2.286c-.552-.984-.828-2.088-.828-3.312 0-1.224.276-2.322.828-3.294a5.976 5.976 0 0 1 2.285-2.286c.96-.552 2.023-.828 3.186-.828 1.176 0 2.245.276 3.204.828a5.885 5.885 0 0 1 2.269 2.268c.552.972.828 2.076.828 3.312 0 1.2-.264 2.28-.793 3.24a5.907 5.907 0 0 1-2.177 2.268l3.167 3.15h-2.124Zm-9-8.658c0 .996.199 1.872.595 2.628.407.756.96 1.338 1.655 1.746.709.408 1.5.612 2.377.612.876 0 1.661-.204 2.357-.612a4.23 4.23 0 0 0 1.656-1.746c.409-.756.612-1.632.612-2.628 0-1.008-.204-1.884-.612-2.628a4.26 4.26 0 0 0-1.638-1.746c-.696-.408-1.488-.612-2.376-.612-.888 0-1.68.204-2.376.612-.695.408-1.247.99-1.655 1.746-.397.744-.595 1.62-.595 2.628Zm14.762 4.95h4.392V122h-6.03v-12.546h1.638v11.214Zm6.978-10.134c-.313 0-.577-.108-.793-.324a1.077 1.077 0 0 1-.323-.792c0-.312.107-.576.323-.792.216-.216.48-.324.793-.324.3 0 .551.108.755.324.216.216.325.48.325.792 0 .312-.109.576-.325.792a.998.998 0 0 1-.755.324Zm.791 1.602V122h-1.638v-9.864h1.639Zm4.79 1.35v5.814c0 .48.102.822.306 1.026.204.192.558.288 1.062.288h1.206V122h-1.476c-.912 0-1.596-.21-2.052-.63-.456-.42-.684-1.11-.684-2.07v-5.814h-1.278v-1.35h1.278v-2.484H85.5v2.484h2.574v1.35H85.5Zm13.559 3.204c0 .312-.018.642-.054.99H91.12c.06.972.39 1.734.99 2.286.612.54 1.35.81 2.214.81.708 0 1.296-.162 1.764-.486.48-.336.816-.78 1.008-1.332h1.764a4.284 4.284 0 0 1-1.584 2.322c-.792.588-1.776.882-2.952.882-.936 0-1.776-.21-2.52-.63a4.492 4.492 0 0 1-1.728-1.782c-.42-.78-.63-1.68-.63-2.7 0-1.02.204-1.914.612-2.682a4.254 4.254 0 0 1 1.71-1.764c.744-.42 1.596-.63 2.556-.63.936 0 1.764.204 2.484.612.72.408 1.272.972 1.656 1.692.396.708.594 1.512.594 2.412Zm-1.692-.342c0-.624-.138-1.158-.414-1.602a2.605 2.605 0 0 0-1.134-1.026c-.468-.24-.99-.36-1.566-.36-.828 0-1.536.264-2.124.792-.576.528-.906 1.26-.99 2.196h6.228Z" fill="#A0A0A0"/><path d="M54.71 31.451c-1.919 0-3.479.567-4.675 1.7-1.195 1.134-1.802 2.62-1.802 4.441 0 .944.15 1.805.448 2.593a6.55 6.55 0 0 0 1.38 2.184c.62.662 1.864 1.561 3.716 2.705 2.273 1.385 3.761 2.509 4.475 3.387.715.877 1.07 1.796 1.07 2.754 0 1.283-.424 2.307-1.293 3.077-.872.77-2.037 1.154-3.481 1.154-1.524 0-2.85-.536-3.99-1.6-1.14-1.067-1.715-2.477-1.728-4.244h-.709v6.414h.709c.216-.607.515-.918.907-.918.189 0 .63.13 1.318.372 1.673.595 3.047.881 4.127.881 1.861 0 3.45-.65 4.773-1.972 1.322-1.322 1.99-2.916 1.99-4.777a6.13 6.13 0 0 0-1.306-3.846c-.865-1.12-2.546-2.424-5.06-3.92-2.162-1.297-3.566-2.353-4.213-3.177-.65-.822-.983-1.731-.983-2.73 0-1.079.398-1.946 1.181-2.592.784-.647 1.81-.968 3.096-.968 1.446 0 2.651.428 3.605 1.29.952.864 1.503 2.06 1.666 3.598h.708V31.7h-.659c-.08.284-.155.465-.223.546-.067.081-.195.124-.386.124-.23 0-.638-.096-1.218-.285-1.243-.418-2.39-.633-3.444-.633Zm23.158 0c-2.337 0-4.46.55-6.377 1.65-1.92 1.098-3.44 2.623-4.562 4.566-1.121 1.942-1.678 4.005-1.678 6.203 0 2.954.968 5.585 2.921 7.89 1.954 2.306 4.295 3.742 7.011 4.294.621.322 1.51 1.156 2.673 2.506 1.31 1.523 2.42 2.621 3.331 3.275a10.02 10.02 0 0 0 2.934 1.452c1.04.316 2.165.471 3.381.471 1.473 0 2.792-.255 3.953-.782l-.26-.645a6.306 6.306 0 0 1-2.151.36c-1.028 0-2.067-.338-3.108-1.017-1.04-.681-2.34-1.98-3.89-3.896-.73-.918-1.233-1.497-1.517-1.724 2.972-.58 5.416-2.017 7.321-4.318 1.906-2.3 2.86-4.924 2.86-7.866 0-3.492-1.246-6.428-3.717-8.821-2.474-2.393-5.516-3.598-9.125-3.598Zm14.458 0 .037.757c1.556 0 2.428.457 2.623 1.377.072.329.106.937.112 1.811l-.013 16.737c-.013 1.25-.191 2.048-.534 2.395-.344.343-.925.559-1.766.645l-.037.756h15.514l.398-3.796h-.709c-.202 1.034-.666 1.775-1.404 2.196-.741.424-2.05.633-3.941.633h-1.467c-1.701 0-2.686-.614-2.946-1.849a3.85 3.85 0 0 1-.075-.794l.063-16.923c0-1.248.157-2.084.484-2.493.331-.408.927-.637 1.79-.695l-.037-.757h-8.092Zm-14.21.918c2.637 0 4.79 1.037 6.453 3.127 1.662 2.09 2.486 4.956 2.486 8.585 0 3.439-.836 6.192-2.511 8.263-1.675 2.07-3.905 3.102-6.676 3.102-2.661 0-4.82-1.064-6.476-3.201-1.655-2.138-2.474-4.913-2.474-8.325 0-3.507.829-6.314 2.499-8.412 1.668-2.096 3.903-3.139 6.7-3.139Zm35.678 3.598c-.379 0-.667.128-.883.385-.221.256-.288.566-.211.943.074.365.281.685.609.955.326.27.678.41 1.057.41.366 0 .644-.14.845-.41.2-.27.261-.59.186-.955a1.626 1.626 0 0 0-.584-.943 1.569 1.569 0 0 0-1.019-.385Zm10.23 2.568c-.643 2.469-2.036 3.805-4.176 4.02l.024.707h2.499l-.05 8.362c.004 1.43.048 2.382.15 2.866.246 1.16 1.004 1.75 2.274 1.75 1.838 0 3.765-1.117 5.781-3.35l-.609-.521c-1.456 1.47-2.743 2.208-3.866 2.208-.691 0-1.119-.396-1.281-1.178a3.007 3.007 0 0 1-.062-.67l.025-9.467h3.816l-.037-1.129h-3.767v-3.598h-.721Zm14.756 3.152c-2.135 0-3.871 1.034-5.221 3.089-1.343 2.058-1.759 4.34-1.231 6.848.311 1.47.93 2.61 1.877 3.412.946.803 2.146 1.204 3.58 1.204 1.336 0 3.196-.338 3.978-1.018.785-.68 1.508-1.78 2.176-3.288l-.535-.558c-1.065 1.956-3.214 2.94-4.835 2.94-2.229 0-3.594-1.22-4.103-3.647a8.93 8.93 0 0 1-.149-.992c2.652-.42 4.661-1.161 6.017-2.234 1.355-1.073 2.715-2.21 2.461-3.411a2.762 2.762 0 0 0-1.094-1.7c-.579-.424-2.081-.645-2.921-.645Zm-23.333.086-4.599 1.055v.819l1.591-.199c.77 0 1.224.349 1.367 1.042.048.233.079.559.087.968l-.05 7.506c-.012 1.039-.128 1.643-.36 1.824-.234.182-.852.273-1.852.273l-.025.707h7.297l-.013-.707c-1.013 0-1.671-.08-1.964-.236-.288-.155-.486-.437-.571-.868-.067-.311-.095-.847-.1-1.588l.025-10.596h-.833Zm22.164 1.39c.444 0 .874.171 1.306.509.426.336.685.71.77 1.116.417 1.996-1.356 3.375-5.345 4.144-.114-1.455.139-2.776.783-3.97.64-1.193 1.473-1.799 2.486-1.799Z" fill="#676767"/><path d="M44.406 2.793H4.823C2.171 2.793 0 4.96 0 7.608v43.567c0 2.647 2.17 4.814 4.823 4.814h26.07c-.295-12.947 4.134-38.072 13.513-53.196Z" fill="#B6B6B6"/><path d="M42.967 4.198H4.823a3.417 3.417 0 0 0-3.417 3.41v40.388c8.64-3.309 21.605-6.164 30.57-6.035 1.802-9.401 7.097-27.827 10.991-37.763Z" fill="#CFCFCF"/><path d="M53.639 1.368c-2.711-2.413-5.993-1.444-9.233 1.425-.48.427-.96.9-1.438 1.405-5.542 5.867-10.685 16.736-12.284 25.036.623 1.26 1.11 2.868 1.43 4.096.082.315.156.61.215.862.14.596.216.982.216.982s-.05-.188-.253-.778a50.875 50.875 0 0 0-.134-.382 4.475 4.475 0 0 0-.085-.21c-.362-.84-1.362-2.61-1.802-3.38a84.257 84.257 0 0 0-.987 3.083c1.27 2.32 2.044 6.295 2.044 6.295s-.067-.257-.386-1.157c-.283-.795-1.695-3.264-2.03-3.84-.571 2.107-.799 3.53-.594 3.876.398.672.777 1.83 1.11 3.11.752 2.887 1.274 6.4 1.274 6.4s.017.232.046.59a58.69 58.69 0 0 0 .146 7.208c.249 3.006.718 5.588 1.316 6.97l.405-.22c-.877-2.723-1.234-6.292-1.078-10.407.236-6.291 1.687-13.878 4.367-21.785 4.528-11.936 10.81-21.513 16.56-26.087-5.24 4.724-12.334 20.014-14.457 25.675-2.377 6.34-4.062 12.29-5.077 17.991 1.752-5.344 7.416-7.641 7.416-7.641s2.778-3.42 6.024-8.305c-1.944.443-5.138 1.2-6.207 1.65-1.578.66-2.003.885-2.003.885s5.11-3.106 9.495-4.513c6.03-9.478 12.6-22.944 5.984-28.834Z" fill="#676767"/></svg>