<svg width="172" height="148" viewBox="0 0 172 148" fill="none" xmlns="http://www.w3.org/2000/svg">
<path d="M27.0471 135.21H21.5751L20.5671 138H18.8391L23.3751 125.526H25.2651L29.7831 138H28.0551L27.0471 135.21ZM26.5791 133.878L24.3111 127.542L22.0431 133.878H26.5791ZM33.398 129.954C33.722 129.39 34.202 128.922 34.838 128.55C35.486 128.166 36.236 127.974 37.088 127.974C37.964 127.974 38.756 128.184 39.464 128.604C40.184 129.024 40.748 129.618 41.156 130.386C41.564 131.142 41.768 132.024 41.768 133.032C41.768 134.028 41.564 134.916 41.156 135.696C40.748 136.476 40.184 137.082 39.464 137.514C38.756 137.946 37.964 138.162 37.088 138.162C36.248 138.162 35.504 137.976 34.856 137.604C34.22 137.22 33.734 136.746 33.398 136.182V142.68H31.76V128.136H33.398V129.954ZM40.094 133.032C40.094 132.288 39.944 131.64 39.644 131.088C39.344 130.536 38.936 130.116 38.42 129.828C37.916 129.54 37.358 129.396 36.746 129.396C36.146 129.396 35.588 129.546 35.072 129.846C34.568 130.134 34.16 130.56 33.848 131.124C33.548 131.676 33.398 132.318 33.398 133.05C33.398 133.794 33.548 134.448 33.848 135.012C34.16 135.564 34.568 135.99 35.072 136.29C35.588 136.578 36.146 136.722 36.746 136.722C37.358 136.722 37.916 136.578 38.42 136.29C38.936 135.99 39.344 135.564 39.644 135.012C39.944 134.448 40.094 133.788 40.094 133.032ZM43.3121 133.032C43.3121 132.024 43.5161 131.142 43.9241 130.386C44.3321 129.618 44.8901 129.024 45.5981 128.604C46.3181 128.184 47.1161 127.974 47.9921 127.974C48.8561 127.974 49.6061 128.16 50.2421 128.532C50.8781 128.904 51.3521 129.372 51.6641 129.936V128.136H53.3201V138H51.6641V136.164C51.3401 136.74 50.8541 137.22 50.2061 137.604C49.5701 137.976 48.8261 138.162 47.9741 138.162C47.0981 138.162 46.3061 137.946 45.5981 137.514C44.8901 137.082 44.3321 136.476 43.9241 135.696C43.5161 134.916 43.3121 134.028 43.3121 133.032ZM51.6641 133.05C51.6641 132.306 51.5141 131.658 51.2141 131.106C50.9141 130.554 50.5061 130.134 49.9901 129.846C49.4861 129.546 48.9281 129.396 48.3161 129.396C47.7041 129.396 47.1461 129.54 46.6421 129.828C46.1381 130.116 45.7361 130.536 45.4361 131.088C45.1361 131.64 44.9861 132.288 44.9861 133.032C44.9861 133.788 45.1361 134.448 45.4361 135.012C45.7361 135.564 46.1381 135.99 46.6421 136.29C47.1461 136.578 47.7041 136.722 48.3161 136.722C48.9281 136.722 49.4861 136.578 49.9901 136.29C50.5061 135.99 50.9141 135.564 51.2141 135.012C51.5141 134.448 51.6641 133.794 51.6641 133.05ZM55.4761 133.05C55.4761 132.03 55.6801 131.142 56.0881 130.386C56.4961 129.618 57.0601 129.024 57.7801 128.604C58.5121 128.184 59.3461 127.974 60.2821 127.974C61.4941 127.974 62.4901 128.268 63.2701 128.856C64.0621 129.444 64.5841 130.26 64.8361 131.304H63.0721C62.9041 130.704 62.5741 130.23 62.0821 129.882C61.6021 129.534 61.0021 129.36 60.2821 129.36C59.3461 129.36 58.5901 129.684 58.0141 130.332C57.4381 130.968 57.1501 131.874 57.1501 133.05C57.1501 134.238 57.4381 135.156 58.0141 135.804C58.5901 136.452 59.3461 136.776 60.2821 136.776C61.0021 136.776 61.6021 136.608 62.0821 136.272C62.5621 135.936 62.8921 135.456 63.0721 134.832H64.8361C64.5721 135.84 64.0441 136.65 63.2521 137.262C62.4601 137.862 61.4701 138.162 60.2821 138.162C59.3461 138.162 58.5121 137.952 57.7801 137.532C57.0601 137.112 56.4961 136.518 56.0881 135.75C55.6801 134.982 55.4761 134.082 55.4761 133.05ZM71.9177 127.956C72.6617 127.956 73.3337 128.118 73.9337 128.442C74.5337 128.754 75.0017 129.228 75.3377 129.864C75.6857 130.5 75.8597 131.274 75.8597 132.186V138H74.2397V132.42C74.2397 131.436 73.9937 130.686 73.5017 130.17C73.0097 129.642 72.3377 129.378 71.4857 129.378C70.6217 129.378 69.9317 129.648 69.4157 130.188C68.9117 130.728 68.6597 131.514 68.6597 132.546V138H67.0217V124.68H68.6597V129.54C68.9837 129.036 69.4277 128.646 69.9917 128.37C70.5677 128.094 71.2097 127.956 71.9177 127.956ZM87.5354 132.69C87.5354 133.002 87.5174 133.332 87.4814 133.68H79.5974C79.6574 134.652 79.9874 135.414 80.5874 135.966C81.1994 136.506 81.9374 136.776 82.8014 136.776C83.5094 136.776 84.0974 136.614 84.5654 136.29C85.0454 135.954 85.3814 135.51 85.5734 134.958H87.3374C87.0734 135.906 86.5454 136.68 85.7534 137.28C84.9614 137.868 83.9774 138.162 82.8014 138.162C81.8654 138.162 81.0254 137.952 80.2814 137.532C79.5494 137.112 78.9734 136.518 78.5534 135.75C78.1334 134.97 77.9234 134.07 77.9234 133.05C77.9234 132.03 78.1274 131.136 78.5354 130.368C78.9434 129.6 79.5134 129.012 80.2454 128.604C80.9894 128.184 81.8414 127.974 82.8014 127.974C83.7374 127.974 84.5654 128.178 85.2854 128.586C86.0054 128.994 86.5574 129.558 86.9414 130.278C87.3374 130.986 87.5354 131.79 87.5354 132.69ZM85.8434 132.348C85.8434 131.724 85.7054 131.19 85.4294 130.746C85.1534 130.29 84.7754 129.948 84.2954 129.72C83.8274 129.48 83.3054 129.36 82.7294 129.36C81.9014 129.36 81.1934 129.624 80.6054 130.152C80.0294 130.68 79.6994 131.412 79.6154 132.348H85.8434ZM100.814 125.454V134.724C100.814 135.756 100.496 136.584 99.8604 137.208C99.2244 137.82 98.3844 138.126 97.3404 138.126C96.2844 138.126 95.4384 137.814 94.8024 137.19C94.1664 136.554 93.8484 135.69 93.8484 134.598H95.4864C95.4984 135.21 95.6544 135.708 95.9544 136.092C96.2664 136.476 96.7284 136.668 97.3404 136.668C97.9524 136.668 98.4084 136.488 98.7084 136.128C99.0084 135.756 99.1584 135.288 99.1584 134.724V125.454H100.814ZM116.767 125.544V138H115.129V128.712L110.989 138H109.837L105.679 128.694V138H104.041V125.544H105.805L110.413 135.84L115.021 125.544H116.767ZM128.545 132.69C128.545 133.002 128.527 133.332 128.491 133.68H120.607C120.667 134.652 120.997 135.414 121.597 135.966C122.209 136.506 122.947 136.776 123.811 136.776C124.519 136.776 125.107 136.614 125.575 136.29C126.055 135.954 126.391 135.51 126.583 134.958H128.347C128.083 135.906 127.555 136.68 126.763 137.28C125.971 137.868 124.987 138.162 123.811 138.162C122.875 138.162 122.035 137.952 121.291 137.532C120.559 137.112 119.983 136.518 119.563 135.75C119.143 134.97 118.933 134.07 118.933 133.05C118.933 132.03 119.137 131.136 119.545 130.368C119.953 129.6 120.523 129.012 121.255 128.604C121.999 128.184 122.851 127.974 123.811 127.974C124.747 127.974 125.575 128.178 126.295 128.586C127.015 128.994 127.567 129.558 127.951 130.278C128.347 130.986 128.545 131.79 128.545 132.69ZM126.853 132.348C126.853 131.724 126.715 131.19 126.439 130.746C126.163 130.29 125.785 129.948 125.305 129.72C124.837 129.48 124.315 129.36 123.739 129.36C122.911 129.36 122.203 129.624 121.615 130.152C121.039 130.68 120.709 131.412 120.625 132.348H126.853ZM132.705 129.486V135.3C132.705 135.78 132.807 136.122 133.011 136.326C133.215 136.518 133.569 136.614 134.073 136.614H135.279V138H133.803C132.891 138 132.207 137.79 131.751 137.37C131.295 136.95 131.067 136.26 131.067 135.3V129.486H129.789V128.136H131.067V125.652H132.705V128.136H135.279V129.486H132.705ZM146.264 132.69C146.264 133.002 146.246 133.332 146.21 133.68H138.326C138.386 134.652 138.716 135.414 139.316 135.966C139.928 136.506 140.666 136.776 141.53 136.776C142.238 136.776 142.826 136.614 143.294 136.29C143.774 135.954 144.11 135.51 144.302 134.958H146.066C145.802 135.906 145.274 136.68 144.482 137.28C143.69 137.868 142.706 138.162 141.53 138.162C140.594 138.162 139.754 137.952 139.01 137.532C138.278 137.112 137.702 136.518 137.282 135.75C136.862 134.97 136.652 134.07 136.652 133.05C136.652 132.03 136.856 131.136 137.264 130.368C137.672 129.6 138.242 129.012 138.974 128.604C139.718 128.184 140.57 127.974 141.53 127.974C142.466 127.974 143.294 128.178 144.014 128.586C144.734 128.994 145.286 129.558 145.67 130.278C146.066 130.986 146.264 131.79 146.264 132.69ZM144.572 132.348C144.572 131.724 144.434 131.19 144.158 130.746C143.882 130.29 143.504 129.948 143.024 129.72C142.556 129.48 142.034 129.36 141.458 129.36C140.63 129.36 139.922 129.624 139.334 130.152C138.758 130.68 138.428 131.412 138.344 132.348H144.572ZM150.064 129.738C150.352 129.174 150.76 128.736 151.288 128.424C151.828 128.112 152.482 127.956 153.25 127.956V129.648H152.818C150.982 129.648 150.064 130.644 150.064 132.636V138H148.426V128.136H150.064V129.738Z" fill="#A0A0A0"/>
<g clip-path="url(#clip0_6994_50328)">
<path d="M24.8097 20.2791C23.8952 20.8206 22.3711 22.3367 20.564 24.5351L22.2296 27.6648C23.3944 25.997 24.5919 24.5026 25.7894 23.2247C25.8765 23.1272 25.931 23.0731 25.931 23.0731C25.8874 23.1272 25.833 23.1705 25.7894 23.2247C25.3975 23.647 24.2218 25.0116 22.4473 27.7297C24.1565 27.6431 26.7801 27.2966 28.9247 26.9284C29.567 23.3763 28.3042 21.7519 28.3042 21.7519C28.3042 21.7519 26.693 19.1637 24.8097 20.2791Z" fill="#A3A3A3"/>
<path d="M19.2035 46.5508C18.9857 46.5941 18.768 46.6266 18.5503 46.6591C18.6592 46.6482 18.7789 46.6266 18.8878 46.6049C18.9966 46.5941 19.1055 46.5724 19.2035 46.5508Z" fill="#A3A3A3"/>
<path opacity="0.35" d="M19.2035 46.5508C18.9857 46.5941 18.768 46.6266 18.5503 46.6591C18.6592 46.6482 18.7789 46.6266 18.8878 46.6049C18.9966 46.5941 19.1055 46.5724 19.2035 46.5508Z" fill="#A3A3A3"/>
<path d="M19.7702 43.8112C19.7594 43.8112 19.7594 43.8112 19.7702 43.8112C19.8029 43.8112 19.8356 43.8004 19.8682 43.8004C20.0097 43.7788 20.1513 43.7571 20.2819 43.7246C20.1186 43.7571 19.9444 43.7788 19.7702 43.8112Z" fill="#A3A3A3"/>
<path opacity="0.35" d="M19.7702 43.8112C19.7594 43.8112 19.7594 43.8112 19.7702 43.8112C19.8029 43.8112 19.8356 43.8004 19.8682 43.8004C20.0097 43.7788 20.1513 43.7571 20.2819 43.7246C20.1186 43.7571 19.9444 43.7788 19.7702 43.8112Z" fill="#A3A3A3"/>
<path d="M17.3097 35.7436C17.8213 34.8015 18.333 33.881 18.8446 32.9821C19.3781 32.0508 19.9224 31.1519 20.4776 30.2748C20.5103 30.2206 20.5429 30.1665 20.5756 30.1231C21.1199 29.2676 21.6642 28.4446 22.2194 27.654L20.5538 24.5352C20.434 24.6868 20.3034 24.8384 20.1728 25.0008C19.6938 25.5964 19.193 26.2354 18.6813 26.9176C18.1044 27.6865 17.5165 28.4987 16.9069 29.3543C16.3516 30.1448 15.7856 30.9787 15.2195 31.8342C14.7405 32.5706 14.2615 33.3178 13.7825 34.0867C13.7607 34.1192 13.7498 34.1409 13.728 34.1734L15.8944 38.4293C16.3734 37.5305 16.8415 36.6316 17.3097 35.7436Z" fill="#A3A3A3"/>
<path d="M7.43604 59.7525C7.15299 60.5322 6.85906 61.3336 6.57601 62.1566C6.57601 62.1674 6.56513 62.1782 6.56513 62.1891C6.52158 62.3082 6.47803 62.4165 6.44538 62.5356C6.24942 63.0879 6.08612 63.5861 5.69421 64.7123C6.33651 65.0047 6.84817 65.7628 7.32717 66.6291C7.27274 65.7303 6.9026 64.8856 6.19499 64.2358C9.34116 64.3766 12.0628 63.5861 13.4562 61.2902C13.576 61.0845 13.6957 60.8679 13.8046 60.6405C13.1623 61.4418 12.3785 61.7884 10.887 61.7018H10.8761H10.887C13.0752 60.7271 14.1747 59.7849 15.1436 58.2363C15.3722 57.8681 15.6008 57.4674 15.8295 57.0234C13.9134 58.9836 11.6926 59.5359 9.35204 59.1135L7.59933 59.3084C7.5449 59.4601 7.49047 59.6008 7.43604 59.7525Z" fill="#A3A3A3"/>
<path d="M8.25187 55.8425C8.63289 54.8678 9.0248 53.8823 9.41671 52.886C9.79774 51.933 10.1896 50.9801 10.5924 50.0162C10.9952 49.0524 11.4089 48.0886 11.8226 47.1248C12.2472 46.1393 12.6826 45.1646 13.129 44.19C13.5644 43.2262 14.0217 42.2624 14.468 41.3094C14.6313 40.9628 14.7946 40.6271 14.9688 40.2806C15.2518 39.6958 15.5458 39.111 15.8397 38.5262C15.8506 38.4937 15.8723 38.4612 15.8832 38.4287L13.7386 34.1836C13.706 34.2377 13.6733 34.3027 13.6297 34.3569C13.129 35.1799 12.6173 36.0138 12.1274 36.8693C11.6267 37.7357 11.1368 38.6128 10.6578 39.5117C10.255 40.2697 9.86306 41.0278 9.47115 41.7967C9.39494 41.9483 9.31874 42.1107 9.24253 42.2624C8.77442 43.2262 8.33896 44.1683 7.95794 45.0672C7.52248 46.0851 7.14146 47.0598 6.80398 47.9803C6.58625 48.5867 6.37941 49.1715 6.19434 49.7347C6.04193 50.2112 5.90041 50.6985 5.75888 51.175C5.43229 52.3012 5.16013 53.4275 4.93152 54.5538L7.1088 58.8314C7.39184 58.0625 7.69666 57.2936 7.9906 56.5031C8.07769 56.2865 8.16478 56.0699 8.25187 55.8425Z" fill="#A3A3A3"/>
<path d="M4.899 54.7063C4.62684 56.0708 4.43089 57.4353 4.33291 58.7998C4.33291 58.8431 4.32202 58.8973 4.32202 58.9406C3.64707 57.8577 1.81815 56.7964 1.82904 56.8072C3.1354 58.6915 4.12607 60.5542 4.26759 62.3844C3.57086 62.5252 2.61286 62.3194 1.51333 61.9187C2.66729 62.9692 3.52731 63.2616 3.86479 63.3374C2.80881 63.4023 1.70929 64.1279 0.598874 64.9618C2.22095 64.3012 3.5382 64.0413 4.47443 64.2579C2.983 68.4489 1.49156 73.0839 0.00012207 78.0004C0.457351 77.8705 0.729511 77.5564 0.88192 77.1449C1.14319 76.2569 2.91768 70.409 5.68282 62.7309C5.75903 62.5143 5.84612 62.2977 5.92232 62.0703C5.9441 62.0053 5.96587 61.9512 5.98764 61.8862C6.28157 61.0848 6.58639 60.2618 6.9021 59.4171C6.9783 59.2222 7.04362 59.0381 7.11983 58.8431V58.8323L4.94255 54.5547C4.92077 54.6088 4.90989 54.6522 4.899 54.7063Z" fill="#A3A3A3"/>
<path d="M16.2426 38.7977C16.1772 38.9277 16.1228 39.0468 16.0575 39.1767C15.8724 39.5666 15.6765 39.9565 15.4914 40.3571C15.2846 40.7903 15.0777 41.2343 14.86 41.6892C14.7511 41.9166 14.6423 42.144 14.5334 42.3822C14.2068 43.0862 13.8802 43.8117 13.5427 44.559C13.129 45.4795 12.7154 46.4325 12.2908 47.4288C11.888 48.3709 11.4743 49.3564 11.0606 50.3635C10.6687 51.3274 10.2659 52.3128 9.86313 53.3416C9.50387 54.2513 9.14462 55.1935 8.77449 56.1573C8.75271 56.2006 8.74183 56.2548 8.72005 56.2981C8.3608 57.2511 7.99066 58.2365 7.62053 59.2437C7.60964 59.2653 7.59875 59.287 7.59875 59.3087L9.35146 59.1137C9.31881 59.1029 9.28615 59.1029 9.2426 59.0921C11.3437 58.8322 14.1306 57.2727 15.9268 55.3451C16.7542 54.4571 17.5054 53.4174 18.2021 52.1937C18.7247 51.284 19.2037 50.2769 19.6718 49.1506C20.0746 48.176 20.4665 47.1147 20.8366 45.9668C20.3576 46.2159 19.8024 46.4 19.1928 46.5299C19.0839 46.5516 18.975 46.5732 18.8662 46.5949C18.7573 46.6166 18.6484 46.6274 18.5287 46.649C20.4882 45.9018 21.7184 44.4615 22.6111 42.6855C22.0994 43.032 21.2612 43.4869 20.2596 43.7143C20.129 43.7468 19.9875 43.7684 19.846 43.7901C19.8133 43.7901 19.7806 43.8009 19.7371 43.8009C20.412 43.5193 20.989 43.2053 21.4898 42.8263C21.5987 42.7504 21.6966 42.6638 21.7946 42.5772C21.947 42.4472 22.0885 42.3064 22.2301 42.1657C22.3172 42.0682 22.4043 41.9816 22.4913 41.8841C22.6873 41.6567 22.8724 41.4076 23.0357 41.1369C23.0901 41.0502 23.1445 40.9744 23.1881 40.8878C23.2534 40.7578 23.3187 40.6387 23.3731 40.5196C23.6453 39.9781 23.863 39.4908 24.0372 39.0576C24.1243 38.841 24.2005 38.6461 24.2658 38.462C24.2876 38.3862 24.3203 38.3212 24.342 38.2454C24.4074 38.0396 24.4727 37.8555 24.5162 37.6931C24.5815 37.4549 24.6251 37.2599 24.6469 37.1191C24.5815 37.1733 24.5053 37.2274 24.4182 37.2708C23.8304 37.6173 22.8179 37.9422 22.0015 38.0938L23.6126 37.9205L22.0015 38.0938C21.9906 38.0938 21.9797 38.0938 21.9688 38.1046C21.8926 38.1154 21.8055 38.1263 21.7184 38.1479C21.7293 38.1371 21.7511 38.1371 21.762 38.1263L16.2534 38.7219C16.2643 38.7652 16.2534 38.7869 16.2426 38.7977Z" fill="#A3A3A3"/>
<path d="M22.4475 27.73C21.9576 28.4772 21.4242 29.3328 20.8472 30.2858C20.8145 30.3399 20.7819 30.3832 20.7601 30.4374C20.2593 31.2712 19.7368 32.1809 19.1816 33.188C18.7026 34.0544 18.2018 34.9749 17.6792 35.982C17.222 36.8484 16.7648 37.7689 16.2749 38.7435L21.7834 38.1479C23.3837 37.4115 24.1022 36.7509 24.799 35.7871C24.984 35.5272 25.1691 35.2456 25.3542 34.9532C25.9203 34.0761 26.4755 33.1122 26.9653 32.1484C27.4443 31.2171 27.8689 30.2966 28.1846 29.4735C28.3915 28.9429 28.5548 28.4556 28.6745 28.0224C28.7725 27.6434 28.8487 27.286 28.914 26.9395C26.7803 27.2968 24.1567 27.6434 22.4475 27.73Z" fill="#A3A3A3"/>
<path d="M18.8878 46.6152C18.7789 46.6369 18.67 46.6477 18.5503 46.6694C18.6592 46.6477 18.768 46.6261 18.8878 46.6152Z" fill="#A3A3A3"/>
<path opacity="0.35" d="M18.8878 46.6152C18.7789 46.6369 18.67 46.6477 18.5503 46.6694C18.6592 46.6477 18.768 46.6261 18.8878 46.6152Z" fill="#A3A3A3"/>
<path d="M18.8878 46.6152C18.7789 46.6369 18.67 46.6477 18.5503 46.6694C18.6592 46.6477 18.768 46.6261 18.8878 46.6152Z" fill="#A3A3A3"/>
<path d="M19.7593 43.8116C19.7919 43.8116 19.8246 43.8008 19.8681 43.8008C19.8355 43.8008 19.8028 43.8116 19.7593 43.8116Z" fill="#A3A3A3"/>
<path opacity="0.35" d="M19.7593 43.8116C19.7919 43.8116 19.8246 43.8008 19.8681 43.8008C19.8355 43.8008 19.8028 43.8116 19.7593 43.8116Z" fill="#A3A3A3"/>
<path d="M19.7593 43.8116C19.7919 43.8116 19.8246 43.8008 19.8681 43.8008C19.8355 43.8008 19.8028 43.8116 19.7593 43.8116Z" fill="#A3A3A3"/>
<path d="M22.2912 38.049V38.8406H22.0673V38.049H21.7855V37.8594H22.5647V38.049H22.2912Z" fill="#B0AFB0"/>
<path d="M23.6096 38.2222L23.3443 38.7582H23.2117L22.9465 38.2222V38.8406H22.731V37.8594H23.0294L23.2863 38.3954L23.5433 37.8594H23.8417V38.8406H23.6262V38.2222H23.6096Z" fill="#B0AFB0"/>
<path d="M31.3354 76.4556C30.4156 76.4556 29.6091 76.4063 28.9158 76.3078C28.2224 76.2233 27.6352 76.1177 27.1541 75.9911V70.5436C27.6776 70.6563 28.2295 70.7548 28.8096 70.8392C29.3756 70.9237 29.9982 70.9659 30.6774 70.9659C31.3283 70.9659 31.9297 70.8956 32.4815 70.7548C33.0476 70.614 33.5357 70.3677 33.9461 70.0158C34.3706 69.678 34.696 69.2205 34.9224 68.6434C35.163 68.0663 35.2833 67.3414 35.2833 66.4686V36.5078H41.863V66.2575C41.863 68.0311 41.6013 69.5583 41.0777 70.8392C40.5683 72.1202 39.8467 73.1759 38.9128 74.0064C37.993 74.8509 36.8893 75.4703 35.6017 75.8644C34.314 76.2585 32.8919 76.4556 31.3354 76.4556Z" fill="#5E5E5E" stroke="#5E5E5E" stroke-width="1.22877" stroke-linejoin="round"/>
<path d="M45.3896 36.5098V67.3743H51.2722V53.014C51.2721 52.6199 51.2609 52.1783 51.2468 51.6856C51.2468 51.193 51.2329 50.6819 51.2045 50.147C51.1903 49.6121 51.1737 49.0733 51.1454 48.5243C51.1312 47.9754 51.106 47.4393 51.0778 46.9185C51.0212 45.7079 50.9513 44.4552 50.8665 43.1602H51.0609L57.8731 67.3743H63.9162L71.2609 43.2023H71.4299C71.3874 44.4832 71.3428 45.7109 71.2862 46.8932C71.272 47.4 71.2469 47.9222 71.2186 48.4571C71.2044 48.992 71.1905 49.5169 71.1763 50.0377C71.1621 50.5585 71.1482 51.053 71.1341 51.5175C71.134 51.982 71.134 52.3958 71.1341 52.7618V67.3743H77.2701V36.5098H68.3112L61.1778 60.1101H61.051L54.3487 36.5098H45.3896ZM106.995 38.7462L105.128 43.7235L101.569 45.8843V48.6084H104.663V59.984C104.663 61.5042 104.844 62.7708 105.212 63.7842C105.594 64.7836 106.116 65.5836 106.767 66.1888C107.418 66.78 108.192 67.2023 109.083 67.4416C109.974 67.6809 110.932 67.7947 111.965 67.7947C113.026 67.7947 114.006 67.6947 114.898 67.4836C115.804 67.2865 116.555 67.0282 117.163 66.7185V61.9261C116.569 62.1373 115.985 62.3151 115.405 62.4558C114.839 62.5966 114.233 62.666 113.596 62.666C112.861 62.666 112.266 62.4466 111.813 62.0102C111.36 61.5739 111.137 60.8989 111.137 59.984V48.6084H116.909V43.774H111.137V38.7462H106.995ZM90.379 43.3284C88.7659 43.3284 87.2972 43.5895 85.9671 44.1103C84.6512 44.6311 83.5175 45.406 82.5695 46.4476C81.6356 47.4752 80.904 48.7668 80.3805 50.3152C79.8569 51.8635 79.5944 53.6689 79.5944 55.7381C79.5944 57.7791 79.882 59.5652 80.4481 61.0854C81.0282 62.5915 81.8323 63.8442 82.8653 64.8436C83.8983 65.8289 85.1296 66.5622 86.5588 67.0548C87.9879 67.5475 89.5516 67.7947 91.2496 67.7947C92.1269 67.7947 92.931 67.7642 93.6668 67.6938C94.4026 67.6375 95.0923 67.5403 95.7291 67.3995C96.3658 67.2588 96.9633 67.0837 97.5293 66.8867C98.1095 66.6755 98.6875 66.4256 99.2535 66.13V61.1442C98.6309 61.4539 98.0222 61.7289 97.4279 61.9682C96.8336 62.1934 96.2276 62.3851 95.6192 62.5399C95.0107 62.6947 94.3853 62.817 93.7344 62.9014C93.0977 62.9718 92.4191 63.0023 91.6975 63.0023C90.8343 63.0023 90.0609 62.8746 89.3817 62.6072C88.7166 62.3397 88.1386 61.9564 87.6575 61.4637C87.1905 60.957 86.8276 60.3403 86.5588 59.6224C86.3041 58.8905 86.1645 58.0767 86.1362 57.1758H100.606V54.0482C100.606 52.3309 100.368 50.8144 99.8874 49.4912C99.4204 48.154 98.7419 47.0263 97.8505 46.1113C96.9732 45.1964 95.8954 44.5076 94.6219 44.043C93.3625 43.5645 91.9497 43.3284 90.379 43.3284ZM129.351 43.3284C127.738 43.3284 126.269 43.5895 124.939 44.1103C123.623 44.6311 122.489 45.406 121.541 46.4476C120.607 47.4752 119.876 48.7668 119.352 50.3152C118.829 51.8635 118.566 53.6689 118.566 55.7381C118.566 57.7791 118.854 59.5652 119.42 61.0854C120 62.5915 120.804 63.8442 121.837 64.8436C122.87 65.8289 124.101 66.5622 125.53 67.0548C126.96 67.5475 128.523 67.7947 130.221 67.7947C131.098 67.7947 131.903 67.7642 132.638 67.6938C133.374 67.6375 134.064 67.5403 134.701 67.3995C135.337 67.2588 135.935 67.0837 136.501 66.8867C137.081 66.6755 137.659 66.4256 138.225 66.13V61.1442C137.603 61.4539 136.994 61.7289 136.4 61.9682C135.805 62.1934 135.199 62.3851 134.591 62.5399C133.982 62.6947 133.357 62.817 132.706 62.9014C132.069 62.9718 131.391 63.0023 130.669 63.0023C129.806 63.0023 129.033 62.8746 128.353 62.6072C127.688 62.3397 127.119 61.9564 126.638 61.4637C126.171 60.957 125.799 60.3403 125.53 59.6224C125.276 58.8905 125.136 58.0767 125.108 57.1758H139.577V54.0482C139.577 52.3309 139.34 50.8144 138.859 49.4912C138.392 48.154 137.714 47.0263 136.822 46.1113C135.945 45.1964 134.867 44.5076 133.594 44.043C132.334 43.5645 130.921 43.3284 129.351 43.3284ZM153.684 43.3284C152.891 43.3284 152.185 43.4256 151.562 43.6227C150.954 43.8057 150.401 44.0695 149.906 44.4214C149.425 44.7592 148.992 45.1815 148.596 45.6741C148.199 46.1668 147.828 46.7084 147.488 47.3136H147.167L146.212 43.774H141.31V67.3743H147.784V55.3597C147.784 54.2478 147.921 53.3117 148.19 52.5516C148.473 51.7774 148.861 51.158 149.356 50.6935C149.866 50.2149 150.472 49.8705 151.165 49.6593C151.872 49.4482 152.637 49.3399 153.472 49.3399C153.614 49.3399 153.793 49.351 154.005 49.3651C154.217 49.3651 154.426 49.379 154.639 49.4071C154.865 49.4213 155.083 49.4463 155.281 49.4744C155.479 49.5026 155.633 49.5303 155.746 49.5585V43.5133C155.661 43.4852 155.535 43.4686 155.366 43.4545C155.21 43.4264 155.031 43.4013 154.833 43.3872C154.649 43.3591 154.454 43.3452 154.241 43.3452C154.043 43.3311 153.853 43.3284 153.684 43.3284V43.3284ZM90.4213 47.9106C91.1005 47.9106 91.6952 48.0356 92.2046 48.2889C92.714 48.5423 93.1413 48.8894 93.4809 49.3399C93.8205 49.7762 94.0717 50.2984 94.2416 50.9037C94.4113 51.509 94.5063 52.17 94.5204 52.8879H86.263C86.3761 51.1706 86.8062 49.9152 87.5561 49.1129C88.3202 48.3105 89.2751 47.9106 90.4213 47.9106ZM129.393 47.9106C130.072 47.9106 130.667 48.0356 131.176 48.2889C131.686 48.5423 132.113 48.8894 132.453 49.3399C132.792 49.7762 133.043 50.2984 133.213 50.9037C133.383 51.509 133.478 52.17 133.492 52.8879H125.235C125.348 51.1706 125.778 49.9152 126.528 49.1129C127.292 48.3105 128.247 47.9106 129.393 47.9106Z" fill="#5E5E5E" stroke="#5E5E5E" stroke-width="1.22877" stroke-linejoin="round"/>
<path d="M162.252 43.2691H160.813V37.6913H159.104V36.4961H163.956V37.6913H162.252V43.2691Z" fill="#4D4D4D"/>
<path d="M167.742 43.2691L166.247 37.9554H166.205C166.224 38.2395 166.239 38.5144 166.252 38.78C166.258 38.8943 166.262 39.0117 166.266 39.1321C166.272 39.2526 166.276 39.3715 166.28 39.4888C166.286 39.6062 166.289 39.7189 166.289 39.827C166.292 39.9351 166.294 40.0324 166.294 40.1189V43.2691H165.004V36.4961H166.969L168.44 41.6755H168.468L170.033 36.4961H171.998V43.2691H170.653V40.0633C170.653 39.983 170.653 39.8919 170.653 39.7899C170.656 39.688 170.659 39.5799 170.662 39.4657C170.665 39.3514 170.668 39.2356 170.671 39.1182C170.677 39.0008 170.682 38.8866 170.685 38.7754C170.698 38.516 170.708 38.2457 170.718 37.9647H170.68L169.069 43.2691H167.742Z" fill="#4D4D4D"/>
<path d="M35.1946 31.76L39.8422 20.7129H40.7378L45.3854 31.76H44.2164L42.7741 28.309H37.7776L36.3541 31.76H35.1946ZM40.2947 21.9883L38.0133 27.4462H42.5195L40.2947 21.9883Z" fill="#5E5E5E"/>
<path d="M46.5737 31.76V20.7129H51.1742C53.0785 20.7129 54.4549 22.4666 54.4549 24.1827C54.4549 25.9833 53.1728 27.6807 51.2685 27.6807H47.6579V31.76H46.5737ZM47.6579 26.7147H51.2119C52.5223 26.7147 53.3707 25.5144 53.3707 24.1827C53.3707 22.7948 52.3432 21.6788 51.1176 21.6788H47.6579V26.7147Z" fill="#5E5E5E"/>
<path d="M53.851 31.76L58.4986 20.7129H59.3941L64.0418 31.76H62.8539L61.4116 28.309H56.4246L55.0011 31.76H53.851ZM58.9511 21.9883L56.6697 27.4462H61.1759L58.9511 21.9883Z" fill="#5E5E5E"/>
<path d="M69.2831 20.6465C71.2534 20.6465 72.6958 21.6405 73.384 23.0566L72.5072 23.5818C71.8002 22.1188 70.4238 21.6218 69.2266 21.6218C66.5681 21.6218 65.1163 23.985 65.1163 26.2076C65.1163 28.6458 66.9169 30.859 69.2737 30.859C70.5275 30.859 71.9982 30.2401 72.6958 28.8052L73.6008 29.2741C72.8843 30.9246 70.914 31.8437 69.2077 31.8437C66.1627 31.8437 64.0133 28.9459 64.0133 26.1513C64.0133 23.4974 65.9365 20.6465 69.2831 20.6465Z" fill="#5E5E5E"/>
<path d="M83.8854 20.7129V31.76H82.7919V26.5928H76.2117V31.76H75.137V20.7129H76.2117V25.6269H82.7919V20.7129H83.8854Z" fill="#5E5E5E"/>
<path d="M93.8512 30.7941V31.76H86.3943V20.7129H93.7098V21.6788H87.469V25.6644H92.9085V26.5834H87.469V30.7941H93.8512Z" fill="#5E5E5E"/>
</g>
<defs>
<clipPath id="clip0_6994_50328">
<rect width="172" height="58" fill="white" transform="translate(0 20)"/>
</clipPath>
</defs>
</svg>
