<svg width="125" height="138" viewBox="0 0 125 138" fill="none" xmlns="http://www.w3.org/2000/svg"><path d="m7.992 128-2.988-5.13h-1.98V128H1.386v-12.546h4.05c.948 0 1.746.162 2.394.486.66.324 1.152.762 1.476 1.314.324.552.486 1.182.486 1.89 0 .864-.252 1.626-.756 2.286-.492.66-1.236 1.098-2.232 1.314L9.954 128H7.992Zm-4.968-6.444h2.412c.888 0 1.554-.216 1.998-.648.444-.444.666-1.032.666-1.764 0-.744-.222-1.32-.666-1.728-.432-.408-1.098-.612-1.998-.612H3.024v4.752Zm18.313 1.134c0 .312-.018.642-.054.99H13.4c.06.972.39 1.734.99 2.286.612.54 1.35.81 2.214.81.708 0 1.296-.162 1.764-.486.48-.336.816-.78 1.008-1.332h1.764a4.284 4.284 0 0 1-1.584 2.322c-.792.588-1.776.882-2.952.882-.936 0-1.776-.21-2.52-.63a4.492 4.492 0 0 1-1.728-1.782c-.42-.78-.63-1.68-.63-2.7 0-1.02.204-1.914.612-2.682a4.254 4.254 0 0 1 1.71-1.764c.744-.42 1.596-.63 2.556-.63.936 0 1.764.204 2.484.612.72.408 1.272.972 1.656 1.692.396.708.594 1.512.594 2.412Zm-1.692-.342c0-.624-.138-1.158-.414-1.602a2.605 2.605 0 0 0-1.134-1.026c-.468-.24-.99-.36-1.566-.36-.828 0-1.536.264-2.124.792-.576.528-.906 1.26-.99 2.196h6.228Zm3.242.684c0-1.008.204-1.89.612-2.646a4.446 4.446 0 0 1 1.674-1.782c.72-.42 1.518-.63 2.394-.63.864 0 1.614.186 2.25.558.636.372 1.11.84 1.422 1.404v-1.8h1.656V128H31.24v-1.836c-.324.576-.81 1.056-1.458 1.44-.636.372-1.38.558-2.232.558-.876 0-1.668-.216-2.376-.648-.708-.432-1.266-1.038-1.674-1.818-.408-.78-.612-1.668-.612-2.664Zm8.352.018c0-.744-.15-1.392-.45-1.944a3.098 3.098 0 0 0-1.224-1.26 3.211 3.211 0 0 0-1.674-.45c-.612 0-1.17.144-1.674.432a3.134 3.134 0 0 0-1.206 1.26c-.3.552-.45 1.2-.45 1.944 0 .756.15 1.416.45 1.98.3.552.702.978 1.206 1.278a3.314 3.314 0 0 0 1.674.432c.612 0 1.17-.144 1.674-.432.516-.3.924-.726 1.224-1.278.3-.564.45-1.218.45-1.962Zm3.812 0c0-1.02.204-1.908.612-2.664a4.407 4.407 0 0 1 1.692-1.782c.732-.42 1.566-.63 2.502-.63 1.212 0 2.208.294 2.988.882.792.588 1.314 1.404 1.566 2.448h-1.764a2.518 2.518 0 0 0-.99-1.422c-.48-.348-1.08-.522-1.8-.522-.936 0-1.692.324-2.268.972-.576.636-.864 1.542-.864 2.718 0 1.188.288 2.106.864 2.754.576.648 1.332.972 2.268.972.72 0 1.32-.168 1.8-.504.48-.336.81-.816.99-1.44h1.764c-.264 1.008-.792 1.818-1.584 2.43-.792.6-1.782.9-2.97.9-.936 0-1.77-.21-2.502-.63a4.407 4.407 0 0 1-1.692-1.782c-.408-.768-.612-1.668-.612-2.7Zm13.544-3.564v5.814c0 .48.102.822.306 1.026.204.192.558.288 1.062.288h1.206V128h-1.476c-.912 0-1.596-.21-2.052-.63-.456-.42-.684-1.11-.684-2.07v-5.814h-1.278v-1.35h1.278v-2.484h1.638v2.484h2.574v1.35h-2.574ZM54 116.534c-.312 0-.576-.108-.792-.324a1.077 1.077 0 0 1-.324-.792c0-.312.108-.576.324-.792.216-.216.48-.324.792-.324.3 0 .552.108.756.324.216.216.324.48.324.792 0 .312-.108.576-.324.792a.998.998 0 0 1-.756.324Zm.792 1.602V128h-1.638v-9.864h1.638Zm6.463 8.352 3.06-8.352h1.746L62.191 128h-1.908l-3.87-9.864h1.764l3.078 8.352Zm15.418-3.798c0 .312-.018.642-.054.99h-7.884c.06.972.39 1.734.99 2.286.612.54 1.35.81 2.214.81.708 0 1.296-.162 1.764-.486.48-.336.816-.78 1.008-1.332h1.764a4.284 4.284 0 0 1-1.584 2.322c-.792.588-1.776.882-2.952.882-.936 0-1.776-.21-2.52-.63a4.492 4.492 0 0 1-1.728-1.782c-.42-.78-.63-1.68-.63-2.7 0-1.02.204-1.914.612-2.682a4.254 4.254 0 0 1 1.71-1.764c.744-.42 1.596-.63 2.556-.63.936 0 1.764.204 2.484.612.72.408 1.272.972 1.656 1.692.396.708.594 1.512.594 2.412Zm-1.692-.342c0-.624-.138-1.158-.414-1.602a2.605 2.605 0 0 0-1.134-1.026c-.468-.24-.99-.36-1.566-.36-.828 0-1.536.264-2.124.792-.576.528-.906 1.26-.99 2.196h6.228Zm12.631 5.778c-.828 0-1.572-.144-2.232-.432-.648-.3-1.158-.708-1.53-1.224a3.178 3.178 0 0 1-.576-1.818h1.746c.06.588.3 1.086.72 1.494.432.396 1.056.594 1.872.594.78 0 1.392-.192 1.836-.576.456-.396.684-.9.684-1.512 0-.48-.132-.87-.396-1.17a2.53 2.53 0 0 0-.99-.684c-.396-.156-.93-.324-1.602-.504-.828-.216-1.494-.432-1.998-.648a3.318 3.318 0 0 1-1.278-1.008c-.348-.468-.522-1.092-.522-1.872 0-.684.174-1.29.522-1.818.348-.528.834-.936 1.458-1.224.636-.288 1.362-.432 2.178-.432 1.176 0 2.136.294 2.88.882.756.588 1.182 1.368 1.278 2.34h-1.8c-.06-.48-.312-.9-.756-1.26-.444-.372-1.032-.558-1.764-.558-.684 0-1.242.18-1.674.54-.432.348-.648.84-.648 1.476 0 .456.126.828.378 1.116.264.288.582.51.954.666.384.144.918.312 1.602.504.828.228 1.494.456 1.998.684.504.216.936.558 1.296 1.026.36.456.54 1.08.54 1.872 0 .612-.162 1.188-.486 1.728-.324.54-.804.978-1.44 1.314-.636.336-1.386.504-2.25.504Zm19.727-9.99L104.261 128h-1.692l-2.376-7.83-2.376 7.83h-1.692l-3.097-9.864h1.674l2.269 8.28 2.447-8.28h1.675l2.394 8.298 2.232-8.298h1.62Zm2.471-1.602c-.312 0-.576-.108-.792-.324a1.077 1.077 0 0 1-.324-.792c0-.312.108-.576.324-.792.216-.216.48-.324.792-.324.3 0 .552.108.756.324.216.216.324.48.324.792 0 .312-.108.576-.324.792a.998.998 0 0 1-.756.324Zm.792 1.602V128h-1.638v-9.864h1.638Zm6.806 1.35h-2.07V128H113.7v-8.514h-1.278v-1.35h1.278v-.702c0-1.104.282-1.908.846-2.412.576-.516 1.494-.774 2.754-.774v1.368c-.72 0-1.23.144-1.53.432-.288.276-.432.738-.432 1.386v.702h2.07v1.35Zm3.908 0v5.814c0 .48.102.822.306 1.026.204.192.558.288 1.062.288h1.206V128h-1.476c-.912 0-1.596-.21-2.052-.63-.456-.42-.684-1.11-.684-2.07v-5.814H118.4v-1.35h1.278v-2.484h1.638v2.484h2.574v1.35h-2.574Z" fill="#A0A0A0"/><g clip-path="url(#a)"><path d="M30.74 53.53c-3.725-19.767 6.119-38.83 28.713-41.366-3.116-3.322-7.372-3.347-9.33-2.943-3.458 1.1-3.35 3.333-7.272 6.218-3.9 2.223-5.858.52-8.698 2.825-2.835 2.287-.857 7.537-2.046 8.559-1.18 2.04-4.84 3.86-5.507 6.438-.55 3.297 1.495 5.653 1.416 8.48.237 2.355-2.349 3.687-1.977 5.596 1.112 3.12 3.257 4.996 4.268 5.861.232.164.477.565.433.331Z" fill="#AEAEAE"/><path d="M70.942 26.169a1.495 1.495 0 0 1-1.38-2.063 1.493 1.493 0 0 1 1.38-.921 1.496 1.496 0 0 1 1.495 1.492 1.49 1.49 0 0 1-1.495 1.492Zm-39.33 29.517c-3.58-17.178 7.496-31.532 28.946-24.466 12.586 7.35 28.42 6.87 29.133 2.12 1.763-5.695-8.024-17.43-22.656-20.493-29.028-5.653-44.678 25.66-35.424 42.839Z" fill="url(#b)"/><path d="M79.228 57.6c4.31.467 8.401-.565 12.193-3.65-5.728 6.377-12.89 9.583-21.109 10.456 3.924 3.33 7.708 4.83 11.328 4.187-10.059 2.77-18.486-.279-28.739-10.469-.536 2.743 2.367 7.017 5.358 9.745-17.36-7.511-18.881-30.91 2.287-36.667-21.943-10.522-34.35 9.923-28.255 26.68 5.965 12.906 21.86 22.842 39.28 20.657 8.461-1.034 21.097-6.857 26.26-20.657-3.639 3.259-10.142 6.097-13.044 6.314 9.822-4.899 15.124-13.224 13.635-24.602-2.034 4.835-4.718 8.547-8.076 11.097 7.133-11.097 5.909-16.833.63-23.136 3.775 10.364-1.11 21.867-11.748 30.046Z" fill="url(#c)"/><path d="M74.188 69.542c-.745-.139 1.69.984-3.018-.26-4.707-1.243-9.5-2.441-18.268-11.157-.536 2.743 2.367 7.017 5.358 9.745 8.077 5.623 2.584 2.993 14.89 7.24.988-1.963 1.038-3.706 1.038-5.568Z" fill="url(#d)"/><path d="M58.541 25.396s1.07-1.577 1.487-2.287c.51-.872 1.294-2.46 1.294-2.46s-8.236-2.681-10.257-3.008c-6.283 1.628-6.305 4.255-2.793 8.276.39.448 10.27-.521 10.27-.521Z" fill="url(#e)"/></g><defs><radialGradient id="b" cx="0" cy="0" r="1" gradientTransform="matrix(54.7713 0 0 39.106 76.954 28.642)"><stop stop-color="#767676"/><stop offset="1" stop-color="#939393"/></radialGradient><radialGradient id="c" cx="0" cy="0" r="1" gradientTransform="matrix(55.5162 0 0 41.9159 77.435 29.81)"><stop stop-color="#797979"/><stop offset=".292" stop-color="#919191"/><stop offset="1" stop-color="#C4C4C4"/></radialGradient><linearGradient id="d" x1="56.732" y1="58.125" x2="66.518" y2="74.614" gradientUnits="userSpaceOnUse"><stop stop-color="#A4A4A4"/><stop offset=".67" stop-color="#B8B8B8"/><stop offset=".827" stop-color="#B5B5B5" stop-opacity=".2"/><stop offset="1" stop-color="#CACACA" stop-opacity="0"/></linearGradient><linearGradient id="e" x1="55.916" y1="23.648" x2="54.496" y2="20.923" gradientUnits="userSpaceOnUse"><stop stop-color="#545454" stop-opacity=".151"/><stop offset=".4" stop-color="#ABABAB" stop-opacity=".4"/><stop offset=".649" stop-color="#AEAEAE" stop-opacity=".892"/><stop offset="1" stop-color="#D1D1D1"/></linearGradient><clipPath id="a"><path fill="#fff" transform="translate(26 9)" d="M0 0h72.692v70H0z"/></clipPath></defs></svg>
