<svg width="96" height="148" viewBox="0 0 96 148" fill="none" xmlns="http://www.w3.org/2000/svg"><path d="M16.66 131.736 20.512 138h-1.854l-3.006-4.896L12.791 138h-1.819l3.835-6.264-3.853-6.282h1.836l3.025 4.914 2.88-4.914h1.835l-3.87 6.282Zm5.438 1.296c0-1.008.204-1.89.612-2.646a4.446 4.446 0 0 1 1.674-1.782c.72-.42 1.518-.63 2.394-.63.864 0 1.614.186 2.25.558.636.372 1.11.84 1.422 1.404v-1.8h1.656V138H30.45v-1.836c-.324.576-.81 1.056-1.458 1.44-.636.372-1.38.558-2.232.558-.876 0-1.668-.216-2.376-.648-.708-.432-1.266-1.038-1.674-1.818-.408-.78-.612-1.668-.612-2.664Zm8.352.018c0-.744-.15-1.392-.45-1.944a3.098 3.098 0 0 0-1.224-1.26 3.211 3.211 0 0 0-1.674-.45c-.612 0-1.17.144-1.674.432a3.134 3.134 0 0 0-1.206 1.26c-.3.552-.45 1.2-.45 1.944 0 .756.15 1.416.45 1.98.3.552.702.978 1.206 1.278a3.314 3.314 0 0 0 1.674.432c.612 0 1.17-.144 1.674-.432.516-.3.924-.726 1.224-1.278.3-.564.45-1.218.45-1.962Zm16.286-5.094c.768 0 1.452.162 2.052.486.6.312 1.074.786 1.422 1.422.348.636.522 1.41.522 2.322V138h-1.62v-5.58c0-.984-.246-1.734-.738-2.25-.48-.528-1.134-.792-1.962-.792-.852 0-1.53.276-2.034.828-.504.54-.756 1.326-.756 2.358V138h-1.62v-5.58c0-.984-.246-1.734-.738-2.25-.48-.528-1.134-.792-1.962-.792-.852 0-1.53.276-2.034.828-.504.54-.756 1.326-.756 2.358V138h-1.638v-9.864h1.638v1.422a3.252 3.252 0 0 1 1.296-1.188 4.008 4.008 0 0 1 1.818-.414c.828 0 1.56.186 2.196.558.636.372 1.11.918 1.422 1.638a3.235 3.235 0 0 1 1.368-1.62 4.03 4.03 0 0 1 2.124-.576Zm6.071 5.076c0-1.008.204-1.89.612-2.646a4.446 4.446 0 0 1 1.674-1.782c.72-.42 1.518-.63 2.394-.63.864 0 1.614.186 2.25.558.636.372 1.11.84 1.422 1.404v-1.8h1.656V138H61.16v-1.836c-.324.576-.81 1.056-1.458 1.44-.636.372-1.38.558-2.232.558-.876 0-1.668-.216-2.376-.648-.708-.432-1.266-1.038-1.674-1.818-.408-.78-.612-1.668-.612-2.664Zm8.352.018c0-.744-.15-1.392-.45-1.944a3.098 3.098 0 0 0-1.224-1.26 3.211 3.211 0 0 0-1.674-.45c-.612 0-1.17.144-1.674.432a3.134 3.134 0 0 0-1.206 1.26c-.3.552-.45 1.2-.45 1.944 0 .756.15 1.416.45 1.98.3.552.702.978 1.206 1.278a3.314 3.314 0 0 0 1.674.432c.612 0 1.17-.144 1.674-.432.516-.3.924-.726 1.224-1.278.3-.564.45-1.218.45-1.962Zm6.062-3.312a3.16 3.16 0 0 1 1.224-1.314c.54-.312 1.194-.468 1.962-.468v1.692h-.432c-1.836 0-2.754.996-2.754 2.988V138h-1.638v-9.864h1.638v1.602Zm5.923-3.204c-.312 0-.576-.108-.792-.324a1.077 1.077 0 0 1-.324-.792c0-.312.108-.576.324-.792.216-.216.48-.324.792-.324.3 0 .552.108.756.324.216.216.324.48.324.792 0 .312-.108.576-.324.792a.998.998 0 0 1-.756.324Zm.792 1.602V138h-1.638v-9.864h1.638Zm7.598-.18c1.2 0 2.172.366 2.916 1.098.744.72 1.116 1.764 1.116 3.132V138h-1.62v-5.58c0-.984-.246-1.734-.738-2.25-.492-.528-1.164-.792-2.016-.792-.864 0-1.554.27-2.07.81-.504.54-.756 1.326-.756 2.358V138h-1.638v-9.864h1.638v1.404a3.266 3.266 0 0 1 1.314-1.17 4.16 4.16 0 0 1 1.854-.414Z" fill="#A0A0A0"/><path d="M30.355 14.293c-2.253.005-4.46 1.287-5.593 3.243L7.117 48.257C6 50.218 6 52.782 7.117 54.743l17.645 30.721c1.134 1.957 3.34 3.24 5.593 3.244h35.29c2.253-.005 4.46-1.287 5.594-3.243l17.644-30.722c1.117-1.961 1.117-4.525 0-6.486l-17.644-30.72c-1.135-1.957-3.34-3.24-5.594-3.244h-35.29Zm.32 17.973a.746.746 0 0 1 .149 0h6.086a.802.802 0 0 1 .666.395l10.326 18.443a.788.788 0 0 1 .097.297.801.801 0 0 1 .099-.297l10.3-18.443a.806.806 0 0 1 .69-.395h6.088c.538.004.942.684.69 1.163L55.786 51.5l10.08 18.047c.276.48-.137 1.193-.69 1.188h-6.087a.803.803 0 0 1-.69-.42L48.098 51.87a.793.793 0 0 1-.098-.297.795.795 0 0 1-.098.298L37.576 70.314a.806.806 0 0 1-.665.421h-6.088c-.553.005-.966-.707-.69-1.188L40.214 51.5 30.133 33.43c-.241-.437.054-1.07.543-1.163Z" fill="#BCBCBC"/></svg>