<svg width="96" height="146" viewBox="0 0 96 146" fill="none" xmlns="http://www.w3.org/2000/svg"><path d="M2 0h92v92H2V0Z" fill="#A3A3A3"/><path d="m26.192 76.882 7.04-4.261c1.358 2.408 2.594 4.446 5.558 4.446 2.84 0 4.632-1.111 4.632-5.434V42.237h8.646v29.518c0 8.955-5.25 13.03-12.908 13.03-6.916 0-10.93-3.581-12.969-7.904Zm30.571-.927 7.04-4.075c1.853 3.026 4.262 5.249 8.523 5.249 3.582 0 5.866-1.791 5.866-4.261 0-2.965-2.346-4.015-6.299-5.743l-2.16-.927c-6.239-2.655-10.376-5.99-10.376-13.03 0-6.485 4.94-11.426 12.66-11.426 5.496 0 9.449 1.915 12.29 6.917l-6.733 4.324c-1.482-2.656-3.087-3.706-5.557-3.706-2.532 0-4.138 1.606-4.138 3.706 0 2.593 1.606 3.644 5.31 5.25l2.162.925c7.35 3.15 11.487 6.361 11.487 13.586 0 7.782-6.114 12.043-14.328 12.043-8.028 0-13.215-3.829-15.747-8.831" fill="#6A6A6A"/><path d="M7.704 123.454v9.27c0 1.032-.318 1.86-.954 2.484-.636.612-1.476.918-2.52.918-1.056 0-1.902-.312-2.538-.936-.636-.636-.954-1.5-.954-2.592h1.638c.012.612.168 1.11.468 1.494.312.384.774.576 1.386.576.612 0 1.068-.18 1.368-.54.3-.372.45-.84.45-1.404v-9.27h1.656Zm2.615 7.578c0-1.008.204-1.89.612-2.646a4.446 4.446 0 0 1 1.674-1.782c.72-.42 1.518-.63 2.394-.63.864 0 1.614.186 2.25.558.636.372 1.11.84 1.422 1.404v-1.8h1.656V136H18.67v-1.836c-.324.576-.81 1.056-1.458 1.44-.636.372-1.38.558-2.232.558-.876 0-1.668-.216-2.376-.648-.708-.432-1.266-1.038-1.674-1.818-.408-.78-.612-1.668-.612-2.664Zm8.352.018c0-.744-.15-1.392-.45-1.944a3.098 3.098 0 0 0-1.224-1.26 3.211 3.211 0 0 0-1.674-.45c-.612 0-1.17.144-1.674.432a3.134 3.134 0 0 0-1.206 1.26c-.3.552-.45 1.2-.45 1.944 0 .756.15 1.416.45 1.98.3.552.702.978 1.206 1.278a3.314 3.314 0 0 0 1.674.432c.612 0 1.17-.144 1.674-.432.516-.3.924-.726 1.224-1.278.3-.564.45-1.218.45-1.962Zm8.096 3.438 3.06-8.352h1.746L27.703 136h-1.908l-3.87-9.864h1.764l3.078 8.352Zm5.806-3.456c0-1.008.204-1.89.612-2.646a4.446 4.446 0 0 1 1.674-1.782c.72-.42 1.518-.63 2.394-.63.864 0 1.614.186 2.25.558.636.372 1.11.84 1.422 1.404v-1.8h1.656V136h-1.656v-1.836c-.324.576-.81 1.056-1.458 1.44-.636.372-1.38.558-2.232.558-.876 0-1.668-.216-2.376-.648-.708-.432-1.266-1.038-1.674-1.818-.408-.78-.612-1.668-.612-2.664Zm8.352.018c0-.744-.15-1.392-.45-1.944a3.098 3.098 0 0 0-1.224-1.26 3.211 3.211 0 0 0-1.674-.45c-.612 0-1.17.144-1.674.432a3.134 3.134 0 0 0-1.206 1.26c-.3.552-.45 1.2-.45 1.944 0 .756.15 1.416.45 1.98.3.552.702.978 1.206 1.278a3.314 3.314 0 0 0 1.674.432c.612 0 1.17-.144 1.674-.432.516-.3.924-.726 1.224-1.278.3-.564.45-1.218.45-1.962Zm8.402 5.076c-.828 0-1.572-.144-2.232-.432-.648-.3-1.158-.708-1.53-1.224a3.178 3.178 0 0 1-.576-1.818h1.746c.06.588.3 1.086.72 1.494.432.396 1.056.594 1.872.594.78 0 1.392-.192 1.836-.576.456-.396.684-.9.684-1.512 0-.48-.132-.87-.396-1.17a2.53 2.53 0 0 0-.99-.684c-.396-.156-.93-.324-1.602-.504-.828-.216-1.494-.432-1.998-.648a3.318 3.318 0 0 1-1.278-1.008c-.348-.468-.522-1.092-.522-1.872 0-.684.174-1.29.522-1.818.348-.528.834-.936 1.458-1.224.636-.288 1.362-.432 2.178-.432 1.176 0 2.136.294 2.88.882.756.588 1.182 1.368 1.278 2.34h-1.8c-.06-.48-.312-.9-.756-1.26-.444-.372-1.032-.558-1.764-.558-.684 0-1.242.18-1.674.54-.432.348-.648.84-.648 1.476 0 .456.126.828.378 1.116.264.288.582.51.954.666.384.144.918.312 1.602.504.828.228 1.494.456 1.998.684.504.216.936.558 1.296 1.026.36.456.54 1.08.54 1.872 0 .612-.162 1.188-.486 1.728-.324.54-.804.978-1.44 1.314-.636.336-1.386.504-2.25.504Zm5.974-5.076c0-1.02.204-1.908.612-2.664a4.407 4.407 0 0 1 1.692-1.782c.732-.42 1.566-.63 2.502-.63 1.212 0 2.208.294 2.988.882.792.588 1.314 1.404 1.566 2.448h-1.764a2.518 2.518 0 0 0-.99-1.422c-.48-.348-1.08-.522-1.8-.522-.936 0-1.692.324-2.268.972-.576.636-.864 1.542-.864 2.718 0 1.188.288 2.106.864 2.754.576.648 1.332.972 2.268.972.72 0 1.32-.168 1.8-.504.48-.336.81-.816.99-1.44h1.764c-.264 1.008-.792 1.818-1.584 2.43-.792.6-1.782.9-2.97.9-.936 0-1.77-.21-2.502-.63a4.407 4.407 0 0 1-1.692-1.782c-.408-.768-.612-1.668-.612-2.7Zm13.184-3.312a3.16 3.16 0 0 1 1.224-1.314c.54-.312 1.194-.468 1.962-.468v1.692h-.432c-1.836 0-2.754.996-2.754 2.988V136h-1.638v-9.864h1.638v1.602Zm5.923-3.204c-.312 0-.576-.108-.792-.324a1.077 1.077 0 0 1-.324-.792c0-.312.108-.576.324-.792.216-.216.48-.324.792-.324.3 0 .552.108.756.324.216.216.324.48.324.792 0 .312-.108.576-.324.792a.998.998 0 0 1-.756.324Zm.792 1.602V136h-1.638v-9.864H75.2Zm4.43 1.818c.324-.564.803-1.032 1.44-1.404.648-.384 1.398-.576 2.25-.576.876 0 1.668.21 2.376.63a4.407 4.407 0 0 1 1.692 1.782c.407.756.611 1.638.611 2.646 0 .996-.203 1.884-.611 2.664a4.504 4.504 0 0 1-1.693 1.818c-.707.432-1.5.648-2.375.648-.84 0-1.584-.186-2.232-.558-.636-.384-1.122-.858-1.459-1.422v6.498h-1.638v-14.544h1.638v1.818Zm6.696 3.078c0-.744-.15-1.392-.45-1.944a3.098 3.098 0 0 0-1.225-1.26 3.314 3.314 0 0 0-1.673-.432c-.6 0-1.158.15-1.674.45-.505.288-.913.714-1.225 1.278-.3.552-.45 1.194-.45 1.926 0 .744.15 1.398.45 1.962.313.552.72.978 1.225 1.278a3.379 3.379 0 0 0 1.674.432c.612 0 1.17-.144 1.674-.432.516-.3.924-.726 1.224-1.278.3-.564.45-1.224.45-1.98Zm5.828-3.546v5.814c0 .48.102.822.306 1.026.204.192.558.288 1.062.288h1.206V136H93.25c-.912 0-1.596-.21-2.052-.63-.456-.42-.683-1.11-.683-2.07v-5.814h-1.279v-1.35h1.279v-2.484h1.637v2.484h2.575v1.35h-2.575Z" fill="#A0A0A0"/></svg>