<svg width="109" height="138" viewBox="0 0 109 138" fill="none" xmlns="http://www.w3.org/2000/svg"><path d="M7.128 115.148c1.176 0 2.232.276 3.168.828a5.858 5.858 0 0 1 2.232 2.322c.54.984.81 2.1.81 3.348 0 1.248-.27 2.37-.81 3.366a5.89 5.89 0 0 1-2.232 2.304c-.936.552-1.992.828-3.168.828-1.176 0-2.244-.276-3.204-.828a5.89 5.89 0 0 1-2.232-2.304c-.54-.996-.81-2.118-.81-3.366 0-1.248.27-2.364.81-3.348a5.858 5.858 0 0 1 2.232-2.322c.96-.552 2.028-.828 3.204-.828Zm0 1.53c-.876 0-1.662.204-2.358.612-.684.396-1.224.972-1.62 1.728-.384.744-.576 1.62-.576 2.628 0 .996.192 1.872.576 2.628.396.756.936 1.338 1.62 1.746.696.396 1.482.594 2.358.594.864 0 1.638-.204 2.322-.612a4.174 4.174 0 0 0 1.62-1.728c.396-.756.594-1.632.594-2.628 0-1.008-.198-1.884-.594-2.628-.384-.756-.924-1.332-1.62-1.728-.684-.408-1.458-.612-2.322-.612Zm13.878 1.314c.876 0 1.656.204 2.34.612.684.408 1.218.996 1.602 1.764.396.768.594 1.668.594 2.7 0 1.032-.198 1.932-.594 2.7-.384.756-.918 1.338-1.602 1.746-.684.408-1.464.612-2.34.612-.96 0-1.776-.24-2.448-.72a3.769 3.769 0 0 1-1.368-1.926V128h-1.638v-13.32h1.638v5.958a3.675 3.675 0 0 1 1.368-1.908c.672-.492 1.488-.738 2.448-.738Zm-.468 1.458c-.636 0-1.212.15-1.728.45a2.985 2.985 0 0 0-1.206 1.26c-.288.552-.432 1.188-.432 1.908s.144 1.356.432 1.908c.288.54.69.96 1.206 1.26.516.3 1.092.45 1.728.45 1.02 0 1.83-.318 2.43-.954.612-.648.918-1.536.918-2.664 0-1.128-.306-2.01-.918-2.646-.6-.648-1.41-.972-2.43-.972Zm8.08-3.222c-.337 0-.613-.09-.829-.27a.969.969 0 0 1-.306-.738c0-.3.102-.54.306-.72.216-.192.492-.288.828-.288.324 0 .588.096.792.288.204.18.306.42.306.72s-.102.546-.306.738c-.204.18-.468.27-.792.27Zm-2.755 15.012h.684c.432 0 .744-.096.936-.288.204-.192.306-.522.306-.99v-11.844h1.656v11.898c0 1.776-.9 2.664-2.7 2.664h-.882v-1.44Zm15.285-8.73c0 .348-.024.648-.072.9h-7.902c.036 1.128.354 1.974.954 2.538.612.564 1.356.846 2.232.846.792 0 1.452-.198 1.98-.594.54-.408.87-.948.99-1.62h1.746a4.098 4.098 0 0 1-.81 1.836c-.408.54-.942.96-1.602 1.26-.66.3-1.404.45-2.232.45-.948 0-1.788-.204-2.52-.612a4.399 4.399 0 0 1-1.728-1.746c-.408-.768-.612-1.668-.612-2.7 0-1.032.204-1.932.612-2.7a4.37 4.37 0 0 1 1.728-1.764c.732-.408 1.572-.612 2.52-.612.96 0 1.794.204 2.502.612.72.408 1.266.954 1.638 1.638.384.684.576 1.44.576 2.268Zm-1.656.108c.036-.732-.084-1.344-.36-1.836a2.632 2.632 0 0 0-1.134-1.098 3.452 3.452 0 0 0-1.566-.36c-.9 0-1.656.282-2.268.846-.612.552-.942 1.368-.99 2.448h6.318Zm8.173-4.626c1.26 0 2.304.336 3.132 1.008.828.672 1.338 1.572 1.53 2.7h-1.728c-.12-.708-.45-1.26-.99-1.656-.528-.408-1.188-.612-1.98-.612-.576 0-1.104.132-1.584.396-.468.264-.846.672-1.134 1.224-.288.54-.432 1.212-.432 2.016s.144 1.482.432 2.034c.288.54.666.942 1.134 1.206.48.264 1.008.396 1.584.396.792 0 1.452-.204 1.98-.612.54-.408.87-.966.99-1.674h1.728c-.192 1.14-.702 2.046-1.53 2.718-.828.66-1.872.99-3.132.99-.948 0-1.788-.204-2.52-.612a4.399 4.399 0 0 1-1.728-1.746c-.408-.768-.612-1.668-.612-2.7 0-1.032.204-1.932.612-2.7a4.37 4.37 0 0 1 1.728-1.764c.732-.408 1.572-.612 2.52-.612Zm11.521 8.568V128h-1.224c-1.008 0-1.764-.24-2.268-.72-.492-.48-.738-1.284-.738-2.412v-5.328H53.48v-1.422h1.476v-2.466h1.656v2.466h2.556v1.422h-2.556v5.364c0 .636.114 1.074.342 1.314.24.228.648.342 1.224.342h1.008Zm1.711-11.34c0-.3.102-.54.306-.72.204-.192.474-.288.81-.288.336 0 .606.096.81.288.204.18.306.42.306.72s-.102.546-.306.738c-.204.18-.474.27-.81.27-.336 0-.606-.09-.81-.27a.969.969 0 0 1-.306-.738Zm1.926 2.898V128h-1.638v-9.882h1.638Zm6.468 8.136 3.06-8.136h1.764L70.245 128H68.3l-3.87-9.882h1.764l3.096 8.136Zm15.521-3.744c0 .348-.024.648-.072.9h-7.902c.036 1.128.354 1.974.954 2.538.612.564 1.356.846 2.232.846.792 0 1.452-.198 1.98-.594.54-.408.87-.948.99-1.62h1.746a4.098 4.098 0 0 1-.81 1.836c-.408.54-.942.96-1.602 1.26-.66.3-1.404.45-2.232.45-.948 0-1.788-.204-2.52-.612a4.399 4.399 0 0 1-1.728-1.746c-.408-.768-.612-1.668-.612-2.7 0-1.032.204-1.932.612-2.7a4.37 4.37 0 0 1 1.728-1.764c.732-.408 1.572-.612 2.52-.612.96 0 1.794.204 2.502.612.72.408 1.266.954 1.638 1.638.384.684.576 1.44.576 2.268Zm-1.656.108c.036-.732-.084-1.344-.36-1.836a2.632 2.632 0 0 0-1.134-1.098 3.452 3.452 0 0 0-1.566-.36c-.9 0-1.656.282-2.268.846-.612.552-.942 1.368-.99 2.448h6.318Zm9.415-1.908v1.386h-7.2v-1.386h7.2Zm8.841-5.526c1.548 0 2.826.384 3.834 1.152 1.008.756 1.704 1.794 2.088 3.114h-1.728a4.18 4.18 0 0 0-1.566-1.998c-.72-.504-1.602-.756-2.646-.756-.828 0-1.572.204-2.232.612-.648.396-1.164.972-1.548 1.728-.372.744-.558 1.62-.558 2.628 0 .996.186 1.866.558 2.61.384.744.9 1.32 1.548 1.728.66.396 1.404.594 2.232.594 1.044 0 1.926-.246 2.646-.738a4.284 4.284 0 0 0 1.566-2.016h1.728c-.384 1.32-1.08 2.364-2.088 3.132-1.008.756-2.286 1.134-3.834 1.134-1.188 0-2.238-.27-3.15-.81a5.786 5.786 0 0 1-2.142-2.286c-.504-.984-.756-2.1-.756-3.348 0-1.26.252-2.382.756-3.366.516-.984 1.23-1.746 2.142-2.286.912-.552 1.962-.828 3.15-.828Z" fill="#A0A0A0"/><path d="M52.912 79.999c-17.195 0-31.777-14.524-31.911-31.828a31.544 31.544 0 0 1 9.213-22.505A32.072 32.072 0 0 1 52.996 16a31.62 31.62 0 0 1 22.447 9.322A31.653 31.653 0 0 1 85 47.702 32.154 32.154 0 0 1 53.172 80h-.26Zm.1-62.324a30.402 30.402 0 0 0-21.583 9.172 29.875 29.875 0 0 0-8.753 21.307c.126 16.4 13.945 30.153 30.228 30.153h.218a30.48 30.48 0 0 0 30.203-30.596 29.995 29.995 0 0 0-9.063-21.2 29.852 29.852 0 0 0-21.25-8.836Z" fill="#6A6A6A"/><path d="M28.18 57.36V38.664h4.548v1.675h-2.413v15.377h2.413v1.676l-4.548-.034ZM43.615 47.828c0 3.408-2.07 5.352-4.875 5.352-2.806 0-4.674-2.186-4.674-5.176 0-3.125 1.96-5.328 4.825-5.328 2.864 0 4.724 2.295 4.724 5.152Zm-7.589.15c0 2.07 1.039 3.71 2.823 3.71s2.806-1.674 2.806-3.785c0-1.918-.947-3.727-2.806-3.727-1.86 0-2.84 1.75-2.84 3.844l.017-.042ZM45.188 43.029c.89-.154 1.793-.23 2.697-.227a4.815 4.815 0 0 1 2.914.645 2.144 2.144 0 0 1 1.056 1.902 2.363 2.363 0 0 1-1.676 2.203 2.563 2.563 0 0 1 2.052 2.512 2.639 2.639 0 0 1-.98 2.094c-.72.637-1.917.947-3.769.947a17.92 17.92 0 0 1-2.278-.134l-.017-9.942Zm1.842 4.012h.947c1.281 0 2.001-.603 2.001-1.466s-.72-1.39-1.9-1.39a5.023 5.023 0 0 0-1.056.075l.008 2.78Zm0 4.673c.326.034.653.048.98.042 1.19 0 2.245-.452 2.245-1.675s-1.022-1.675-2.303-1.675h-.922v3.308ZM55.898 42.895h1.85v6.608c0 2.806-1.356 3.744-3.35 3.744a4.95 4.95 0 0 1-1.566-.268l.226-1.49c.372.115.758.177 1.148.183 1.055 0 1.675-.485 1.675-2.244l.017-6.533ZM63.013 48.397v1.282H59.16v-1.282h3.853ZM72.009 52.753a6.425 6.425 0 0 1-2.622.452c-3.225 0-5.184-2.018-5.184-5.109a5.108 5.108 0 0 1 5.427-5.369 5.864 5.864 0 0 1 2.513.453l-.41 1.474a4.932 4.932 0 0 0-1.994-.394c-2.069 0-3.56 1.298-3.56 3.744 0 2.228 1.315 3.669 3.543 3.669a5.193 5.193 0 0 0 2.019-.377l.268 1.457ZM77.825 38.614V57.36h-4.548v-1.675h2.413V40.289h-2.413v-1.675h4.548Z" fill="#6A6A6A"/></svg>