<svg width="96" height="137" viewBox="0 0 96 137" fill="none" xmlns="http://www.w3.org/2000/svg"><path d="M27.464 120.592 33.26 127h-2.016l-5.292-5.922V127h-1.638v-12.69h1.638v5.886l5.31-5.886h1.998l-5.796 6.282Zm11.897-3.6c.948 0 1.794.204 2.538.612a4.307 4.307 0 0 1 1.764 1.764c.431.768.648 1.668.648 2.7 0 1.032-.217 1.932-.648 2.7a4.336 4.336 0 0 1-1.764 1.746c-.745.408-1.59.612-2.538.612-.948 0-1.8-.204-2.556-.612a4.486 4.486 0 0 1-1.764-1.746c-.432-.768-.648-1.668-.648-2.7 0-1.032.215-1.932.648-2.7a4.454 4.454 0 0 1 1.764-1.764c.755-.408 1.608-.612 2.556-.612Zm0 1.44c-.588 0-1.134.132-1.639.396-.492.264-.894.672-1.206 1.224-.3.54-.45 1.212-.45 2.016 0 .792.15 1.464.45 2.016.313.54.715.942 1.206 1.206.505.264 1.05.396 1.639.396.588 0 1.128-.132 1.62-.396.503-.264.905-.666 1.206-1.206.312-.552.468-1.224.468-2.016 0-.804-.157-1.476-.468-2.016-.3-.552-.703-.96-1.206-1.224a3.372 3.372 0 0 0-1.62-.396Zm11.8 7.128V127h-1.224c-1.008 0-1.764-.24-2.268-.72-.492-.48-.738-1.284-.738-2.412v-5.328h-1.476v-1.422h1.476v-2.466h1.656v2.466h2.556v1.422h-2.556v5.364c0 .636.114 1.074.342 1.314.24.228.648.342 1.224.342h1.008Zm3.637-11.88V127H53.16v-13.32h1.638Zm2.345.54c0-.3.102-.54.306-.72.204-.192.474-.288.81-.288.336 0 .606.096.81.288.204.18.306.42.306.72s-.102.546-.306.738c-.204.18-.474.27-.81.27-.336 0-.606-.09-.81-.27a.969.969 0 0 1-.306-.738Zm1.926 2.898V127h-1.638v-9.882h1.638Zm7.836-.162c1.152 0 2.082.372 2.79 1.116.708.732 1.062 1.794 1.062 3.186V127h-1.638v-5.598c0-.984-.252-1.74-.756-2.268-.504-.528-1.188-.792-2.052-.792-.9 0-1.62.294-2.16.882-.54.576-.81 1.422-.81 2.538V127h-1.638v-9.882h1.638v2.34c.252-.804.696-1.422 1.332-1.854.648-.432 1.392-.648 2.232-.648Z" fill="#A0A0A0"/><path d="M48.609 21 22 48.457V73l26.57-26.115L75 21H48.609Z" fill="url(#a)"/><path d="m22 73 26.57-26L75 73H22Z" fill="url(#b)"/><path d="M22 21h27L22 49V21Z" fill="url(#c)"/><defs><linearGradient id="a" x1="15.993" y1="65.95" x2="57.682" y2="23.462" gradientUnits="userSpaceOnUse"><stop stop-color="#4F4F4F"/><stop offset="1" stop-color="#AEAEAE"/></linearGradient><linearGradient id="b" x1="40.692" y1="80.608" x2="62.556" y2="58.226" gradientUnits="userSpaceOnUse"><stop stop-color="#575555"/><stop offset="1" stop-color="#ACAAAA"/></linearGradient><linearGradient id="c" x1="19.534" y1="37.432" x2="39.111" y2="17.58" gradientUnits="userSpaceOnUse"><stop stop-color="#8F8F8F"/><stop offset="1" stop-color="#727272"/></linearGradient></defs></svg>