<svg width="133" height="138" viewBox="0 0 133 138" fill="none" xmlns="http://www.w3.org/2000/svg">
<path d="M44.5394 121.736L48.3914 128H46.5374L43.5314 123.104L40.6694 128H38.8514L42.6854 121.736L38.8334 115.454H40.6694L43.6934 120.368L46.5734 115.454H48.4094L44.5394 121.736ZM49.9771 123.05C49.9771 122.03 50.1811 121.142 50.5891 120.386C50.9971 119.618 51.5611 119.024 52.2811 118.604C53.0131 118.184 53.8471 117.974 54.7831 117.974C55.9951 117.974 56.9911 118.268 57.7711 118.856C58.5631 119.444 59.0851 120.26 59.3371 121.304H57.5731C57.4051 120.704 57.0751 120.23 56.5831 119.882C56.1031 119.534 55.5031 119.36 54.7831 119.36C53.8471 119.36 53.0911 119.684 52.5151 120.332C51.9391 120.968 51.6511 121.874 51.6511 123.05C51.6511 124.238 51.9391 125.156 52.5151 125.804C53.0911 126.452 53.8471 126.776 54.7831 126.776C55.5031 126.776 56.1031 126.608 56.5831 126.272C57.0631 125.936 57.3931 125.456 57.5731 124.832H59.3371C59.0731 125.84 58.5451 126.65 57.7531 127.262C56.9611 127.862 55.9711 128.162 54.7831 128.162C53.8471 128.162 53.0131 127.952 52.2811 127.532C51.5611 127.112 50.9971 126.518 50.5891 125.75C50.1811 124.982 49.9771 124.082 49.9771 123.05ZM65.8247 128.162C64.9007 128.162 64.0607 127.952 63.3047 127.532C62.5607 127.112 61.9727 126.518 61.5407 125.75C61.1207 124.97 60.9107 124.07 60.9107 123.05C60.9107 122.042 61.1267 121.154 61.5587 120.386C62.0027 119.606 62.6027 119.012 63.3587 118.604C64.1147 118.184 64.9607 117.974 65.8967 117.974C66.8327 117.974 67.6787 118.184 68.4347 118.604C69.1907 119.012 69.7847 119.6 70.2167 120.368C70.6607 121.136 70.8827 122.03 70.8827 123.05C70.8827 124.07 70.6547 124.97 70.1987 125.75C69.7547 126.518 69.1487 127.112 68.3807 127.532C67.6127 127.952 66.7607 128.162 65.8247 128.162ZM65.8247 126.722C66.4127 126.722 66.9647 126.584 67.4807 126.308C67.9967 126.032 68.4107 125.618 68.7227 125.066C69.0467 124.514 69.2087 123.842 69.2087 123.05C69.2087 122.258 69.0527 121.586 68.7407 121.034C68.4287 120.482 68.0207 120.074 67.5167 119.81C67.0127 119.534 66.4667 119.396 65.8787 119.396C65.2787 119.396 64.7267 119.534 64.2227 119.81C63.7307 120.074 63.3347 120.482 63.0347 121.034C62.7347 121.586 62.5847 122.258 62.5847 123.05C62.5847 123.854 62.7287 124.532 63.0167 125.084C63.3167 125.636 63.7127 126.05 64.2047 126.326C64.6967 126.59 65.2367 126.722 65.8247 126.722ZM72.4244 123.032C72.4244 122.024 72.6284 121.142 73.0364 120.386C73.4444 119.618 74.0024 119.024 74.7104 118.604C75.4304 118.184 76.2344 117.974 77.1224 117.974C77.8904 117.974 78.6044 118.154 79.2644 118.514C79.9244 118.862 80.4284 119.324 80.7764 119.9V114.68H82.4324V128H80.7764V126.146C80.4524 126.734 79.9724 127.22 79.3364 127.604C78.7004 127.976 77.9564 128.162 77.1044 128.162C76.2284 128.162 75.4304 127.946 74.7104 127.514C74.0024 127.082 73.4444 126.476 73.0364 125.696C72.6284 124.916 72.4244 124.028 72.4244 123.032ZM80.7764 123.05C80.7764 122.306 80.6264 121.658 80.3264 121.106C80.0264 120.554 79.6184 120.134 79.1024 119.846C78.5984 119.546 78.0404 119.396 77.4284 119.396C76.8164 119.396 76.2584 119.54 75.7544 119.828C75.2504 120.116 74.8484 120.536 74.5484 121.088C74.2484 121.64 74.0984 122.288 74.0984 123.032C74.0984 123.788 74.2484 124.448 74.5484 125.012C74.8484 125.564 75.2504 125.99 75.7544 126.29C76.2584 126.578 76.8164 126.722 77.4284 126.722C78.0404 126.722 78.5984 126.578 79.1024 126.29C79.6184 125.99 80.0264 125.564 80.3264 125.012C80.6264 124.448 80.7764 123.794 80.7764 123.05ZM94.2005 122.69C94.2005 123.002 94.1825 123.332 94.1465 123.68H86.2625C86.3225 124.652 86.6525 125.414 87.2525 125.966C87.8645 126.506 88.6025 126.776 89.4665 126.776C90.1745 126.776 90.7625 126.614 91.2305 126.29C91.7105 125.954 92.0465 125.51 92.2385 124.958H94.0025C93.7385 125.906 93.2105 126.68 92.4185 127.28C91.6265 127.868 90.6425 128.162 89.4665 128.162C88.5305 128.162 87.6905 127.952 86.9465 127.532C86.2145 127.112 85.6385 126.518 85.2185 125.75C84.7985 124.97 84.5885 124.07 84.5885 123.05C84.5885 122.03 84.7925 121.136 85.2005 120.368C85.6085 119.6 86.1785 119.012 86.9105 118.604C87.6545 118.184 88.5065 117.974 89.4665 117.974C90.4025 117.974 91.2305 118.178 91.9505 118.586C92.6705 118.994 93.2225 119.558 93.6065 120.278C94.0025 120.986 94.2005 121.79 94.2005 122.69ZM92.5085 122.348C92.5085 121.724 92.3705 121.19 92.0945 120.746C91.8185 120.29 91.4405 119.948 90.9605 119.72C90.4925 119.48 89.9705 119.36 89.3945 119.36C88.5665 119.36 87.8585 119.624 87.2705 120.152C86.6945 120.68 86.3645 121.412 86.2805 122.348H92.5085Z" fill="#A0A0A0"/>
<g clip-path="url(#clip0_6994_50092)">
<path d="M86.8712 35.2377L87.307 33.7861C88.7586 28.5623 90.2339 23.3386 92.242 18.2815C93.1371 16.0083 94.6609 14.7378 97.0326 14.4595C98.605 14.2889 100.274 14.1445 101.338 15.6447C102.038 16.5897 102.838 17.1449 103.963 17.351C104.494 17.4231 105.013 17.5688 105.535 17.7618C106.236 18.0282 106.502 17.7381 106.697 17.0845L108.56 10.7478C109.261 8.35377 109.261 8.37739 106.939 7.55446C105.972 7.21583 105.102 7.06883 104.085 7.50589C102.44 8.18314 100.94 7.91671 99.6222 6.58714C98.2178 5.18277 96.6231 4.09602 94.7134 3.41877C89.2232 1.50777 83.5874 0.662518 77.8058 1.58127C75.0233 2.01702 72.3156 2.76646 69.9702 4.43596C69.6315 4.67746 69.3664 4.96752 69.0514 5.25889C72.2447 4.99246 75.316 4.94389 78.3885 5.35602C80.4689 5.62245 82.3313 6.32333 83.7094 8.08864C85.161 9.95239 85.4997 12.1521 85.6782 14.3781C85.9446 17.498 85.3632 20.4983 84.493 23.4738L81.8076 32.9553C81.6869 33.3661 81.5897 33.7428 82.1462 33.874L86.8634 35.2521L86.8712 35.2377ZM71.994 82.7922C73.5165 82.9129 74.7503 82.2121 75.5378 80.8576C76.0035 80.0476 76.3534 79.1764 76.5773 78.2693L83.4942 49.4376L86.3003 37.465C86.4932 36.6775 86.3003 36.3756 85.5522 36.2076L82.5045 35.3611C80.6408 34.8046 81.0044 34.8755 80.4492 36.4111L66.6981 75.5236C66.5052 76.0551 66.3359 76.6366 66.3109 77.1931C66.1797 80.4822 68.4897 82.7804 71.994 82.8053V82.7922ZM25.0695 24.764L25.3583 26.8928L27.4622 40.825L29.5176 54.8688L31.6465 68.9952L32.9774 77.9464C33.0745 78.5764 33.2924 78.8652 34.0274 78.7444L47.2337 76.6405L66.076 73.7136C66.3175 73.6651 66.5117 73.375 66.7296 73.1821C66.4632 73.0508 66.1495 72.7713 65.9067 72.7949L55.6272 74.3436L34.824 77.6091C34.0982 77.7299 33.8567 77.5606 33.774 76.861L32.4812 67.8258L29.4572 47.8233L26.1812 25.9977C26.0605 25.1997 26.3125 24.8361 27.1262 24.7403L31.3105 24.0867L48.436 21.3042L77.3162 16.5635L83.8223 15.4505C84.0887 15.4019 84.2817 15.0147 84.4995 14.7968L83.6294 14.4582C83.5572 14.4346 83.4587 14.4818 83.3629 14.5068L75.2595 15.8613L25.7704 23.9896C25.1667 24.0867 24.8517 24.256 25.0695 24.7771V24.764ZM94.006 16.7341C93.8747 16.7341 93.7172 16.7341 93.5702 16.7105C93.498 17.3142 93.2815 17.9442 93.3524 18.548L94.3197 24.4253L96.9447 40.1963L101.276 66.0289C101.373 66.5369 101.276 66.8991 100.646 66.9963L86.6875 69.1737L80.0856 70.2631C79.8927 70.2867 79.7234 70.6017 79.554 70.7946C79.7955 70.9154 80.0134 71.1333 80.2313 71.1333C80.9322 71.0847 81.6094 70.9626 82.2867 70.8668L102.46 67.6249L93.9942 16.7328L94.006 16.7341ZM75.6467 47.2103C76.2032 46.6538 76.1061 46.243 75.7189 45.7836L71.196 40.3407L58.4727 24.9818C58.134 24.571 57.8427 24.0145 57.7469 23.4816C57.5762 22.4421 58.2784 21.5129 59.2956 21.0876C60.385 20.6768 61.3274 20.9669 62.2461 22.055L74.7516 37.0175L77.7992 40.6216C78.3308 40.0651 78.2586 39.6543 77.8714 39.1949L72.8642 33.2059L62.7777 21.2097C61.4232 19.6373 59.3652 19.5402 57.8689 20.8475C56.3937 22.1298 56.3202 23.945 57.6983 25.5882L73.3722 44.504L75.6454 47.213L75.6467 47.2103ZM58.957 37.0122C58.7864 36.8915 58.5947 36.7235 58.3769 36.625L53.3697 34.7875C52.8381 34.5946 52.5822 34.7875 52.4024 35.2469L43.2595 57.7169C43.018 58.2734 43.1873 58.5398 43.6952 58.7328L48.3874 60.6674C49.234 61.0546 49.5726 60.8603 49.8876 60.0138L58.9439 37.0109L58.957 37.0122ZM74.8973 47.4033L71.6554 43.2689C70.8325 41.9997 69.9137 41.3435 68.3912 41.9997C68.029 42.131 67.6037 42.131 67.2297 42.1926L57.5172 43.8621C57.0092 43.9593 56.5722 44.08 56.3556 44.6851L54.396 50.0309C54.3239 50.2238 54.3239 50.4666 54.2753 50.8184L74.8842 47.4321L74.8973 47.4033ZM47.7089 45.2508L36.0749 47.1368L36.823 52.4104C36.9201 53.1586 37.2338 53.257 37.9124 53.1586L43.9105 52.3356C44.5142 52.2635 44.9027 52.0206 45.1442 51.4655L47.3939 46.2417C47.5146 45.9529 47.5645 45.7101 47.7089 45.2495V45.2508Z" fill="#939393"/>
<path d="M90.231 60.3449L82.9506 55.9179C83.0477 56.3772 82.9991 56.9101 83.2393 57.1752C83.7006 57.6873 84.2495 58.1131 84.8602 58.4326C85.6832 58.892 86.5665 59.2201 87.3999 59.6178C88.6337 60.2215 89.5288 61.093 89.5288 62.5932C89.5288 62.8347 89.6496 63.0789 89.7467 63.3414L89.9882 63.2206C90.0552 63.1565 90.1126 63.0831 90.1588 63.0027C91.6104 60.8502 91.7076 58.4799 91.0776 56.0465C90.3767 53.3375 89.118 50.9907 86.4812 49.6362C85.7554 49.274 85.296 49.5877 84.7644 49.9512C84.2079 50.3384 83.8942 50.7978 84.0386 51.6207C84.4258 51.3792 84.7644 51.2099 85.0059 50.9671C85.6097 50.3371 86.1675 50.4815 86.8434 50.9185C89.5039 52.7823 91.1747 57.4732 90.2297 60.3292L90.231 60.3449ZM41.5897 70.4814C41.6869 70.5299 41.7827 70.5785 41.8785 70.6021L49.1366 61.5459L48.3137 61.1101L43.6937 59.2464C42.9679 58.9314 42.7487 59.1492 42.7014 59.9L42.0622 66.0189L41.6029 70.4814H41.5897ZM57.1901 28.7793C55.7857 28.9105 54.867 29.5051 54.3354 30.7389L53.2224 33.3993C52.9809 33.9072 53.0518 34.2222 53.6332 34.4152L58.4711 36.2054C59.0512 36.4233 59.2941 36.229 59.5106 35.7198L60.6722 32.9635C61.1801 31.7298 60.9609 30.6903 59.8492 29.9645C59.0512 29.4565 58.0839 29.1665 57.1888 28.7793H57.1901ZM85.5637 45.469L91.6012 44.6225C91.7719 44.5989 91.9884 44.1631 91.9635 43.9689L91.0933 39.1782C91.0447 38.9367 90.6339 38.5981 90.3924 38.5981C89.3765 38.6703 88.3607 38.816 87.3448 38.9853C86.8369 39.0575 86.4746 39.3003 86.7647 40.0248L89.5708 39.6862C89.7887 39.6625 90.2008 39.8568 90.2244 40.0012L90.9253 43.751L86.426 44.3547C85.8945 44.4269 85.4102 44.5477 85.5795 45.4677L85.5637 45.469ZM86.871 35.2381L82.1788 33.8836C81.6223 33.713 81.7194 33.3757 81.8402 32.9649L84.5256 23.4834C85.3957 20.5079 85.9772 17.4852 85.7107 14.3877C85.5178 12.163 85.2028 9.98561 83.742 8.09823C82.3639 6.33292 80.5001 5.63073 78.4211 5.36561C75.3499 4.9548 72.3009 5.00336 69.084 5.26848C69.399 5.00205 69.6641 4.68836 70.0027 4.44555C72.3495 2.77605 75.0585 2.02661 77.8384 1.59086C83.6435 0.672108 89.2571 1.5423 94.746 3.42836C96.657 4.08198 98.253 5.19367 99.6547 6.59673C100.986 7.92761 102.484 8.19273 104.117 7.51548C105.133 7.07973 106.003 7.22673 106.972 7.56405C109.295 8.38698 109.295 8.36205 108.593 10.7574L106.729 17.0941C106.536 17.7477 106.27 18.0129 105.568 17.7714C105.06 17.5784 104.528 17.4327 103.995 17.3605C102.859 17.1899 102.036 16.6347 101.37 15.6543C100.281 14.179 98.6376 14.2998 97.0652 14.4691C94.6948 14.7355 93.171 16.0179 92.2746 18.2911C90.2664 23.3469 88.7912 28.5706 87.3396 33.7957L86.8802 35.2224L86.871 35.2381ZM71.9938 82.7926C68.4868 82.769 66.1886 80.4957 66.3107 77.1804C66.3343 76.6239 66.5036 76.0437 66.6979 75.5109L80.4594 36.4482C80.991 34.8995 80.6524 34.8522 82.5148 35.3982L85.5624 36.2448C86.3106 36.4154 86.5074 36.7304 86.3106 37.5022L83.5044 49.4748L76.5876 78.3065C76.3636 79.2135 76.0137 80.0848 75.548 80.8947C74.75 82.2256 73.5163 82.9265 72.0043 82.8057L71.9938 82.7926ZM25.0693 24.7644C24.8514 24.2564 25.1664 24.0871 25.7951 23.9769L75.2829 15.8735L83.3863 14.519C83.4834 14.4954 83.5792 14.4468 83.6527 14.4704L84.5229 14.809C84.3051 15.0269 84.1121 15.4128 83.8457 15.4627L77.3396 16.5757L63.4297 18.8332L48.4567 21.3007L31.3312 24.0832L27.147 24.7368C26.349 24.8339 26.097 25.1962 26.202 25.9942L32.481 67.8196L33.7869 76.8417C33.8841 77.5426 34.1019 77.7119 34.8369 77.5899L55.6401 74.3244L65.9196 72.7756C66.1611 72.752 66.4761 73.0171 66.7425 73.1628C66.5246 73.3557 66.3317 73.6484 66.0889 73.6944L47.2729 76.6239L34.0665 78.7278C33.3184 78.8485 33.0992 78.5572 33.0165 77.9298L31.6856 68.9785L29.5567 54.8521L27.5014 40.8084L25.068 24.7775L25.0693 24.7644ZM94.0057 16.7345L102.52 67.6752L97.7792 68.4627L82.3468 70.9302L80.2914 71.1967C80.0735 71.2203 79.8321 70.9788 79.6142 70.858C79.7848 70.6651 79.9528 70.3724 80.1457 70.3265L86.7476 69.2371L100.68 67.0584C101.31 66.9612 101.381 66.599 101.31 66.091L99.6035 56.0281L94.3535 24.4861L93.3862 18.6087C93.314 18.0286 93.5175 17.4012 93.6041 16.7712C93.7249 16.7476 93.8456 16.7476 93.9913 16.7476L94.0057 16.7345Z" fill="#939393"/>
<path d="M75.6466 47.2106L73.3733 44.5016L57.6995 25.5858C56.3213 23.9413 56.3935 22.151 57.8701 20.8451C59.3926 19.5142 61.4506 19.6113 62.7788 21.2073L77.8726 39.1794C78.2598 39.6388 78.3582 40.0496 77.8004 40.6061L74.7528 37.002L62.2473 22.0395C61.3285 20.9501 60.3835 20.6351 59.2968 21.0722C58.2573 21.483 57.58 22.4267 57.748 23.4662C57.8202 23.9977 58.1103 24.5555 58.4738 24.9663L75.7201 45.7695C76.1073 46.2288 76.228 46.6397 75.6479 47.1962L75.6466 47.2106ZM58.9568 37.0125L58.6681 37.8354L49.8743 60.0639C49.5357 60.9105 49.2207 61.1034 48.3741 60.7175L43.682 58.7829C43.1504 58.565 43.0047 58.3235 43.2462 57.767L52.3891 35.297C52.582 34.8114 52.8248 34.6198 53.3564 34.8377L58.3636 36.6752C58.5815 36.7237 58.7508 36.893 58.9437 37.0138L58.9568 37.0125ZM53.2475 35.805L52.0859 38.6833L44.5876 57.0425C44.2988 57.7683 44.4563 58.0584 45.1191 58.2999L47.9738 59.4615C48.6996 59.8237 48.9897 59.6793 49.2798 58.9299L57.7716 37.4508L53.2488 35.8063L53.2475 35.805ZM74.8971 47.4035L54.3132 50.7898C54.3618 50.4512 54.3618 50.2333 54.434 50.0023L56.3935 44.6565C56.6114 44.0527 57.0471 43.9083 57.5551 43.8335L67.2676 42.164C67.6548 42.0918 68.0656 42.1155 68.4291 41.9711C69.9516 41.3673 70.8481 42.0197 71.6946 43.2534C72.5898 44.6315 73.7028 45.8784 74.9103 47.3878L74.8971 47.4035ZM55.6428 49.6046L73.1305 46.7171L70.2522 43.113C70.0816 42.92 69.6957 42.8242 69.4056 42.8465L66.9145 43.2337L58.3045 44.7339C57.9423 44.8061 57.4094 45.0227 57.2886 45.314C56.6849 46.6685 56.1993 48.0703 55.6441 49.619L55.6428 49.6046ZM47.7087 45.251L47.3937 46.196L45.1441 51.4198C44.9026 51.9999 44.5403 52.2178 43.9103 52.29L37.9122 53.1129C37.235 53.21 36.92 53.1129 36.8228 52.3648L36.0747 47.0912L47.7087 45.2537V45.251ZM46.2085 46.4848L37.9857 47.8143C37.7193 47.8629 37.2848 48.3 37.2848 48.5152C37.357 49.5547 37.5513 50.5955 37.7705 51.635C37.8356 51.7554 37.9293 51.8581 38.0432 51.934C38.1571 52.01 38.2879 52.0569 38.4241 52.0708L43.3328 51.3935C43.6478 51.345 44.1203 51.1757 44.228 50.9342L46.1967 46.4717L46.2085 46.4848ZM90.2298 60.3448C91.1748 57.4901 89.504 52.7979 86.8435 50.984C86.1899 50.5247 85.636 50.4039 85.006 51.0326C84.7645 51.2741 84.4259 51.4198 84.0387 51.6862C83.9075 50.8397 84.2093 50.4039 84.7645 50.0167C85.2961 49.6295 85.7568 49.3395 86.4813 49.7017C89.1063 51.0562 90.3755 53.403 91.0776 56.112C91.7076 58.5309 91.6092 60.9026 90.1589 63.0682C90.1103 63.1404 90.0618 63.1995 89.9883 63.2861C89.9397 63.3347 89.8911 63.3347 89.7468 63.4068C89.6746 63.1404 89.5289 62.8989 89.5289 62.6587C89.5289 61.1585 88.6338 60.2883 87.4 59.6833L84.8603 58.4981C84.2566 58.1595 83.6751 57.75 83.2394 57.2407C82.9979 56.9743 83.0465 56.4427 82.9506 55.9833L90.2311 60.3487L90.2298 60.3448ZM41.5898 70.4812L42.0256 66.0187L42.6792 59.8985C42.7514 59.1504 42.9456 58.9312 43.6715 59.2449L48.2915 61.1087C48.533 61.2058 48.7508 61.3502 49.1144 61.5444L41.8563 70.6007C41.7841 70.577 41.6856 70.5285 41.5898 70.4799V70.4812ZM42.8236 67.6751C42.8958 67.6987 42.9548 67.6987 43.0165 67.7237L47.6129 61.8699L43.6229 60.2975L42.8249 67.6738L42.8236 67.6751ZM57.1902 28.7792C58.0853 29.1663 59.054 29.4564 59.8506 29.9867C60.9636 30.7125 61.1815 31.752 60.6736 32.9857L59.512 35.742C59.3191 36.2499 59.0526 36.4428 58.4725 36.2276L53.6346 34.4373C53.0545 34.2444 53.0046 33.9294 53.2238 33.4215L54.3368 30.761C54.8684 29.5037 55.7635 28.9235 57.1915 28.7923L57.1902 28.7792ZM54.2397 33.5921L58.2796 35.0673C58.4108 35.1159 58.7652 34.8967 58.8597 34.7051L59.8047 32.5526C60.1197 31.8753 59.9753 31.2217 59.3939 30.8831C58.7166 30.4723 57.9672 30.1822 57.1928 29.988C56.3463 29.795 55.6441 30.1809 55.3068 31.0038L54.2568 33.5921H54.2397ZM85.5638 45.4702C85.3709 44.5515 85.8788 44.4307 86.4104 44.3572L90.9096 43.7535L90.2088 40.0037C90.1851 39.8724 89.773 39.665 89.5551 39.6887L86.749 40.0273C86.4826 39.2792 86.8461 39.06 87.3291 38.9878L90.3768 38.6006C90.6183 38.577 91.0304 38.9392 91.0776 39.1807L91.9478 43.9713C91.9715 44.1643 91.73 44.6013 91.5856 44.625L85.5481 45.4715L85.5638 45.4702Z" fill="#939393"/>
<path d="M53.2484 35.8316L57.7713 37.4762L49.2794 58.9552C48.9906 59.7034 48.6756 59.8504 47.9735 59.4868C47.0547 59.0274 46.0874 58.6639 45.1188 58.3252C44.4415 58.0837 44.2958 57.7937 44.5872 57.0679L52.0855 38.7086L53.2471 35.8303L53.2484 35.8316ZM55.6437 49.6063L57.2646 45.3249C57.3854 45.0362 57.9183 44.817 58.2805 44.7448L66.8905 43.2446L69.3816 42.8574C69.6481 42.8338 70.0589 42.9296 70.2282 43.1239L73.1065 46.728L55.6424 49.6063H55.6437ZM46.2108 46.4852L44.242 50.9122C44.1213 51.1537 43.6619 51.323 43.3469 51.3716L38.4381 52.0489C38.2203 52.0725 37.8081 51.8074 37.7845 51.6131C37.5666 50.5972 37.3737 49.5577 37.2989 48.4933C37.2753 48.2754 37.7097 47.8397 37.9998 47.7924L46.2239 46.4865L46.2108 46.4852ZM42.8245 67.6729L43.6475 60.2966L47.6375 61.869L43.0411 67.7227C42.9663 67.7184 42.8927 67.702 42.8232 67.6742L42.8245 67.6729ZM54.2406 33.5925L55.2906 31.0292C55.6529 30.2062 56.3301 29.8217 57.1767 30.0133C57.9545 30.189 58.6981 30.4914 59.3778 30.9084C59.9579 31.2707 60.1036 31.9007 59.7886 32.5779L58.8436 34.7304C58.7465 34.901 58.4078 35.1412 58.2635 35.0927L54.2236 33.5925H54.2406Z" fill="#939393"/>
</g>
<defs>
<clipPath id="clip0_6994_50092">
<rect width="84" height="84" fill="white" transform="translate(25)"/>
</clipPath>
</defs>
</svg>
