<svg width="114" height="148" viewBox="0 0 114 148" fill="none" xmlns="http://www.w3.org/2000/svg"><path d="m38.29 138-2.988-5.13h-1.98V138h-1.638v-12.546h4.05c.948 0 1.746.162 2.394.486.66.324 1.152.762 1.476 1.314.324.552.486 1.182.486 1.89 0 .864-.252 1.626-.756 2.286-.492.66-1.236 1.098-2.232 1.314l3.15 5.256H38.29Zm-4.968-6.444h2.412c.888 0 1.554-.216 1.998-.648.444-.444.666-1.032.666-1.764 0-.744-.222-1.32-.666-1.728-.432-.408-1.098-.612-1.998-.612h-2.412v4.752Zm18.313 1.134c0 .312-.018.642-.054.99h-7.884c.06.972.39 1.734.99 2.286.612.54 1.35.81 2.214.81.708 0 1.296-.162 1.764-.486.48-.336.816-.78 1.008-1.332h1.764a4.284 4.284 0 0 1-1.584 2.322c-.792.588-1.776.882-2.952.882-.936 0-1.776-.21-2.52-.63a4.492 4.492 0 0 1-1.728-1.782c-.42-.78-.63-1.68-.63-2.7 0-1.02.204-1.914.612-2.682a4.254 4.254 0 0 1 1.71-1.764c.744-.42 1.596-.63 2.556-.63.936 0 1.764.204 2.484.612.72.408 1.272.972 1.656 1.692.396.708.594 1.512.594 2.412Zm-1.692-.342c0-.624-.138-1.158-.414-1.602a2.605 2.605 0 0 0-1.134-1.026c-.468-.24-.99-.36-1.566-.36-.828 0-1.536.264-2.124.792-.576.528-.906 1.26-.99 2.196h6.228Zm3.242.684c0-1.008.204-1.89.612-2.646a4.446 4.446 0 0 1 1.674-1.782c.72-.42 1.524-.63 2.412-.63.768 0 1.482.18 2.142.54.66.348 1.164.81 1.512 1.386v-5.22h1.656V138h-1.656v-1.854c-.324.588-.804 1.074-1.44 1.458-.636.372-1.38.558-2.232.558a4.564 4.564 0 0 1-2.394-.648c-.708-.432-1.266-1.038-1.674-1.818-.408-.78-.612-1.668-.612-2.664Zm8.352.018c0-.744-.15-1.392-.45-1.944a3.098 3.098 0 0 0-1.224-1.26 3.211 3.211 0 0 0-1.674-.45c-.612 0-1.17.144-1.674.432a3.134 3.134 0 0 0-1.206 1.26c-.3.552-.45 1.2-.45 1.944 0 .756.15 1.416.45 1.98.3.552.702.978 1.206 1.278a3.314 3.314 0 0 0 1.674.432c.612 0 1.17-.144 1.674-.432.516-.3.924-.726 1.224-1.278.3-.564.45-1.218.45-1.962Zm13.172-4.914V138h-1.638v-1.458c-.312.504-.75.9-1.314 1.188a4.047 4.047 0 0 1-1.836.414c-.768 0-1.458-.156-2.07-.468a3.582 3.582 0 0 1-1.458-1.44c-.348-.636-.522-1.41-.522-2.322v-5.778h1.62v5.562c0 .972.246 1.722.738 2.25.492.516 1.164.774 2.016.774.876 0 1.566-.27 2.07-.81.504-.54.756-1.326.756-2.358v-5.418h1.638ZM82.623 138l-2.34-3.672-2.25 3.672h-1.71l3.186-4.896-3.186-4.968h1.854l2.34 3.654 2.232-3.654h1.71l-3.168 4.878L84.477 138h-1.854Z" fill="#A0A0A0"/><path d="M75.132 66.605c3.469-.36 6.1-3.364 5.98-6.969-.118-3.604-3.11-6.488-6.698-6.488h-.239c-3.708.12-6.58 3.244-6.46 6.969.12 1.802.838 3.364 1.914 4.446-4.067 8.05-10.287 13.938-19.617 18.864-6.34 3.364-12.919 4.566-19.498 3.725-5.383-.72-9.57-3.124-12.201-7.09-3.828-5.887-4.187-12.255-.957-18.623 2.273-4.566 5.861-7.93 8.134-9.613-.478-1.562-1.196-4.205-1.555-6.128C6.59 58.315 8.385 75.377 13.648 83.428c3.947 6.007 11.962 9.732 20.814 9.732 2.392 0 4.784-.24 7.177-.841 15.311-3.004 26.914-12.136 33.493-25.714Zm21.053-14.899c-9.091-10.694-22.488-16.582-37.8-16.582h-1.913c-1.077-2.162-3.35-3.604-5.862-3.604h-.24c-3.707.12-6.578 3.244-6.458 6.969.12 3.604 3.11 6.488 6.698 6.488h.24c2.63-.12 4.904-1.802 5.86-4.085h2.154c9.091 0 17.703 2.643 25.479 7.81 5.98 3.965 10.287 9.132 12.68 15.38 2.033 5.047 1.913 9.973-.24 14.179-3.35 6.368-8.971 9.852-16.388 9.852-4.784 0-9.33-1.442-11.722-2.523-1.316 1.201-3.709 3.124-5.384 4.326 5.144 2.403 10.408 3.725 15.432 3.725 11.483 0 19.976-6.369 23.206-12.737 3.469-6.97 3.229-18.985-5.742-29.198ZM35.418 68.648c.12 3.605 3.11 6.488 6.7 6.488h.239c3.708-.12 6.578-3.244 6.459-6.969-.12-3.605-3.11-6.488-6.699-6.488h-.239c-.24 0-.598 0-.837.12-4.905-8.171-6.938-17.062-6.22-26.675.478-7.21 2.87-13.458 7.057-18.624 3.469-4.446 10.167-6.609 14.713-6.729 12.68-.24 18.062 15.62 18.421 21.989 1.555.36 4.187 1.201 5.981 1.802-1.435-19.465-13.397-29.558-24.88-29.558-10.766 0-20.694 7.81-24.642 19.345-5.502 15.38-1.914 30.16 4.785 41.814-.598.841-.957 2.163-.837 3.485Z" fill="#A3A3A3"/></svg>