<svg
  width="96"
  height="137"
  viewBox="0 0 96 137"
  fill="none"
  xmlns="http://www.w3.org/2000/svg"
>
  <path
    d="M27.178 127H25.54L18.952 116.974V127H17.314V114.31H18.952L25.54 124.354V114.31H27.178V127ZM38.902 121.51C38.902 121.858 38.878 122.158 38.83 122.41H30.928C30.964 123.538 31.282 124.384 31.882 124.948C32.494 125.512 33.238 125.794 34.114 125.794C34.906 125.794 35.566 125.596 36.094 125.2C36.634 124.792 36.964 124.252 37.084 123.58H38.83C38.71 124.264 38.44 124.876 38.02 125.416C37.612 125.956 37.078 126.376 36.418 126.676C35.758 126.976 35.014 127.126 34.186 127.126C33.238 127.126 32.398 126.922 31.666 126.514C30.934 126.106 30.358 125.524 29.938 124.768C29.53 124 29.326 123.1 29.326 122.068C29.326 121.036 29.53 120.136 29.938 119.368C30.358 118.6 30.934 118.012 31.666 117.604C32.398 117.196 33.238 116.992 34.186 116.992C35.146 116.992 35.98 117.196 36.688 117.604C37.408 118.012 37.954 118.558 38.326 119.242C38.71 119.926 38.902 120.682 38.902 121.51ZM37.246 121.618C37.282 120.886 37.162 120.274 36.886 119.782C36.61 119.29 36.232 118.924 35.752 118.684C35.272 118.444 34.75 118.324 34.186 118.324C33.286 118.324 32.53 118.606 31.918 119.17C31.306 119.722 30.976 120.538 30.928 121.618H37.246ZM44.1405 116.992C45.2565 116.992 46.1505 117.286 46.8225 117.874C47.5065 118.45 47.9205 119.23 48.0645 120.214H46.4985C46.4265 119.626 46.1805 119.146 45.7605 118.774C45.3525 118.39 44.8005 118.198 44.1045 118.198C43.5165 118.198 43.0545 118.342 42.7185 118.63C42.3945 118.906 42.2325 119.284 42.2325 119.764C42.2325 120.124 42.3405 120.418 42.5565 120.646C42.7845 120.862 43.0605 121.03 43.3845 121.15C43.7205 121.258 44.1765 121.378 44.7525 121.51C45.4845 121.678 46.0725 121.852 46.5165 122.032C46.9725 122.2 47.3565 122.476 47.6685 122.86C47.9925 123.244 48.1545 123.76 48.1545 124.408C48.1545 125.212 47.8485 125.866 47.2365 126.37C46.6365 126.874 45.8325 127.126 44.8245 127.126C43.6485 127.126 42.6885 126.844 41.9445 126.28C41.2005 125.716 40.7625 124.93 40.6305 123.922H42.2145C42.2745 124.522 42.5325 125.008 42.9885 125.38C43.4565 125.752 44.0685 125.938 44.8245 125.938C45.3885 125.938 45.8265 125.794 46.1385 125.506C46.4625 125.218 46.6245 124.84 46.6245 124.372C46.6245 123.988 46.5105 123.682 46.2825 123.454C46.0545 123.226 45.7725 123.052 45.4365 122.932C45.1005 122.812 44.6385 122.686 44.0505 122.554C43.3185 122.386 42.7305 122.218 42.2865 122.05C41.8545 121.882 41.4825 121.618 41.1705 121.258C40.8705 120.886 40.7205 120.388 40.7205 119.764C40.7205 118.936 41.0265 118.27 41.6385 117.766C42.2505 117.25 43.0845 116.992 44.1405 116.992ZM55.0593 125.56V127H53.8353C52.8273 127 52.0713 126.76 51.5673 126.28C51.0753 125.8 50.8293 124.996 50.8293 123.868V118.54H49.3533V117.118H50.8293V114.652H52.4853V117.118H55.0413V118.54H52.4853V123.904C52.4853 124.54 52.5993 124.978 52.8273 125.218C53.0673 125.446 53.4753 125.56 54.0513 125.56H55.0593ZM67.6794 114.31V123.742C67.6794 124.786 67.3794 125.614 66.7794 126.226C66.1914 126.826 65.3634 127.126 64.2954 127.126C63.1434 127.126 62.2374 126.79 61.5774 126.118C60.9294 125.434 60.6054 124.48 60.6054 123.256H62.2434C62.2434 123.988 62.4054 124.57 62.7294 125.002C63.0534 125.422 63.5514 125.632 64.2234 125.632C64.8594 125.632 65.3214 125.452 65.6094 125.092C65.8974 124.732 66.0414 124.282 66.0414 123.742V114.31H67.6794ZM78.2522 123.706C78.2522 124.306 78.1082 124.864 77.8202 125.38C77.5322 125.896 77.0942 126.316 76.5062 126.64C75.9182 126.964 75.1922 127.126 74.3282 127.126C73.4882 127.126 72.7382 126.976 72.0782 126.676C71.4302 126.364 70.9082 125.944 70.5122 125.416C70.1282 124.876 69.9062 124.264 69.8462 123.58H71.5922C71.6282 123.94 71.7482 124.294 71.9522 124.642C72.1682 124.978 72.4682 125.26 72.8522 125.488C73.2482 125.704 73.7222 125.812 74.2742 125.812C74.9942 125.812 75.5462 125.62 75.9302 125.236C76.3142 124.852 76.5062 124.36 76.5062 123.76C76.5062 123.244 76.3682 122.824 76.0922 122.5C75.8282 122.176 75.4982 121.924 75.1022 121.744C74.7062 121.552 74.1662 121.348 73.4822 121.132C72.6782 120.868 72.0302 120.622 71.5382 120.394C71.0582 120.154 70.6442 119.8 70.2962 119.332C69.9602 118.864 69.7922 118.246 69.7922 117.478C69.7922 116.818 69.9482 116.236 70.2602 115.732C70.5842 115.228 71.0402 114.838 71.6282 114.562C72.2282 114.286 72.9302 114.148 73.7342 114.148C74.9822 114.148 75.9722 114.454 76.7042 115.066C77.4362 115.666 77.8622 116.434 77.9822 117.37H76.2182C76.1222 116.866 75.8642 116.422 75.4442 116.038C75.0242 115.654 74.4542 115.462 73.7342 115.462C73.0742 115.462 72.5462 115.636 72.1502 115.984C71.7542 116.32 71.5562 116.8 71.5562 117.424C71.5562 117.916 71.6822 118.318 71.9342 118.63C72.1982 118.93 72.5222 119.17 72.9062 119.35C73.2902 119.518 73.8182 119.71 74.4902 119.926C75.3062 120.19 75.9602 120.442 76.4522 120.682C76.9562 120.922 77.3822 121.288 77.7302 121.78C78.0782 122.26 78.2522 122.902 78.2522 123.706Z"
    fill="#A0A0A0"
  ></path>
  <path
    fill-rule="evenodd"
    clip-rule="evenodd"
    d="M54.2168 13C53.7106 13 53.2406 13.1087 52.8068 13.2536C53.7287 13.8696 54.2349 14.6849 54.488 15.6088C54.5061 15.7356 54.5422 15.8262 54.5603 15.953C54.5784 16.0617 54.5964 16.1704 54.5964 16.2791C54.6688 17.8734 54.1806 18.0727 53.8372 19.0147C53.3129 20.2285 53.4575 21.5329 54.0903 22.5837C54.1445 22.7105 54.2168 22.8554 54.3072 22.9823C53.6202 18.3988 57.4346 17.7103 58.1396 16.2791C58.1939 15.0291 57.1635 14.1957 56.35 13.616C55.5726 13.1449 54.8676 13 54.2168 13ZM59.9655 14.0326C59.8931 14.4493 59.9474 14.3406 59.9294 14.558C59.9113 14.703 59.9113 14.8841 59.8932 15.0291C59.8571 15.174 59.8209 15.3189 59.7667 15.4639C59.7306 15.6088 59.6763 15.7537 59.6221 15.8987C59.5497 16.0436 59.4955 16.1704 59.4232 16.3153C59.369 16.3878 59.3328 16.4603 59.2786 16.5327C59.2425 16.5871 59.2063 16.6414 59.1701 16.6958C59.0797 16.8226 58.9893 16.9494 58.899 17.0581C58.7905 17.1668 58.7001 17.2936 58.5736 17.3842V17.4024C58.4651 17.493 58.3566 17.6017 58.2301 17.6922C57.8505 17.9821 57.4166 18.1995 57.0189 18.4712C56.8923 18.5618 56.7658 18.6343 56.6573 18.743C56.5308 18.8336 56.4223 18.9242 56.3139 19.0329C56.1873 19.1416 56.0969 19.2503 55.9885 19.3771C55.8981 19.4858 55.7896 19.6126 55.7173 19.7394C55.6269 19.8662 55.5365 19.993 55.4642 20.1199C55.3919 20.2648 55.3377 20.3916 55.2654 20.5365C55.2111 20.6815 55.1569 20.8083 55.1207 20.9532C55.0665 21.1163 55.0304 21.2612 54.9942 21.4061C54.9761 21.4786 54.9761 21.5692 54.9581 21.6417C54.9399 21.7142 54.9399 21.7866 54.9219 21.8591C54.9219 22.004 54.9038 22.167 54.9038 22.312C54.9038 22.4207 54.9038 22.5294 54.9219 22.6381C54.9219 22.783 54.94 22.9279 54.9762 23.091C54.9943 23.2359 55.0304 23.3809 55.0666 23.5258C55.1208 23.6707 55.157 23.8157 55.2112 23.9606C55.2473 24.0512 55.3016 24.1418 55.3377 24.2142L51.1799 22.6018C50.4748 22.4026 49.7879 22.2214 49.0829 22.0583C48.7033 21.9678 48.3236 21.8772 47.944 21.7866C46.8593 21.5692 45.7566 21.4061 44.6539 21.2974C44.6177 21.2974 44.5996 21.2793 44.5635 21.2793C43.4788 21.1706 42.4122 21.1163 41.3276 21.1163C40.5322 21.1163 39.7368 21.1525 38.9594 21.2068C37.8567 21.2793 36.7539 21.4242 35.6512 21.6054C35.38 21.6416 35.1089 21.696 34.8377 21.7503C34.2773 21.859 33.735 21.9859 33.2107 22.1127C32.9396 22.1852 32.6684 22.2576 32.3972 22.3301C32.1261 22.4388 31.873 22.5656 31.6199 22.6743C31.421 22.7649 31.2222 22.8554 31.0233 22.946C30.9872 22.9642 30.951 22.9642 30.933 22.9822C30.7522 23.0728 30.5895 23.1453 30.4268 23.2359C30.3726 23.254 30.3364 23.2721 30.3002 23.2902C30.1014 23.3808 29.9025 23.4895 29.7398 23.5801C29.6133 23.6344 29.4868 23.7069 29.3783 23.7613C29.3241 23.7975 29.2517 23.8338 29.2156 23.8518C29.0529 23.9424 28.8902 24.033 28.7456 24.1236C28.5829 24.2142 28.4382 24.3048 28.3117 24.3953C28.1852 24.4859 28.0586 24.5584 27.9502 24.649C27.932 24.6671 27.914 24.6671 27.8959 24.6852C27.7874 24.7577 27.6609 24.8482 27.5524 24.9388C27.5524 24.9388 27.5343 24.9569 27.5163 24.975C27.4259 25.0475 27.3355 25.1199 27.2452 25.1924C27.209 25.2105 27.1728 25.2468 27.1367 25.2649C27.0463 25.3374 26.9559 25.428 26.8655 25.5004C26.8474 25.5366 26.8113 25.5548 26.7932 25.5729C26.6847 25.6816 26.5763 25.7722 26.4678 25.8809C26.4497 25.8809 26.4497 25.899 26.4317 25.9171C26.3232 26.0077 26.2147 26.1164 26.1063 26.2251C26.0882 26.2432 26.0882 26.2613 26.0701 26.2613C25.9798 26.3519 25.8894 26.4425 25.799 26.5512C25.7628 26.5874 25.7086 26.6237 25.6724 26.6599C25.582 26.7686 25.4736 26.8773 25.3651 26.986C25.347 27.0222 25.3109 27.0403 25.2928 27.0765C25.1482 27.2215 25.0216 27.3664 24.877 27.5113C24.8589 27.5295 24.8409 27.5475 24.8228 27.5657C24.5335 27.8737 24.2262 28.1817 23.9008 28.4534C23.5754 28.7433 23.2319 29.015 22.8884 29.2505C22.5269 29.5042 22.1834 29.7216 21.8038 29.939C21.4422 30.1382 21.0626 30.3194 20.6649 30.4825C20.2853 30.6455 19.8876 30.7905 19.4899 30.9173C18.7306 31.0803 17.9533 31.3883 17.2844 31.4426C17.1398 31.4426 16.9771 31.4789 16.8325 31.497C16.6698 31.5332 16.5251 31.5695 16.3805 31.6057C16.2359 31.66 16.0913 31.7144 15.9466 31.7687C15.802 31.8231 15.6574 31.8956 15.5128 31.968C15.3862 32.0586 15.2416 32.1311 15.1151 32.2217C14.9885 32.3122 14.862 32.4209 14.7535 32.5296C14.627 32.6202 14.5004 32.747 14.392 32.8557C14.2835 32.9826 14.175 33.0913 14.0847 33.2181C13.9943 33.363 13.8858 33.4898 13.8135 33.6348C13.7231 33.7616 13.6327 33.9065 13.5604 34.0514C13.4881 34.2145 13.4158 34.3594 13.3616 34.5225C13.3073 34.6674 13.2531 34.8305 13.1989 34.9935C13.1627 35.1384 13.1265 35.2834 13.1085 35.4283C13.1085 35.4465 13.0904 35.4645 13.0904 35.4826C13.0542 35.6457 13.0542 35.8631 13.0361 35.9718C13.018 36.0986 13 36.2073 13 36.3341C13 36.4066 13 36.4972 13.0181 36.5697C13.0362 36.6965 13.0542 36.8052 13.0904 36.9139C13.1266 37.0226 13.1628 37.1313 13.217 37.24V37.2581C13.2712 37.3668 13.3435 37.4755 13.4158 37.5842C13.4882 37.6929 13.5605 37.8016 13.6508 37.9103C13.7412 38.0009 13.8497 38.1096 13.9582 38.2002C14.0666 38.3089 14.1751 38.3995 14.3016 38.49C14.7355 38.8705 14.844 38.9973 15.4044 39.2872C15.4948 39.3415 15.5852 39.3778 15.6936 39.4321C15.7117 39.4321 15.7297 39.4503 15.7479 39.4503C15.7479 39.4865 15.7479 39.5046 15.766 39.5408C15.7841 39.6858 15.8202 39.8307 15.8563 39.9756C15.8925 40.1387 15.9467 40.2836 16.001 40.4104C16.0552 40.5191 16.0914 40.6278 16.1456 40.7365C16.1637 40.7728 16.1817 40.809 16.1998 40.8271C16.2722 40.9721 16.3444 41.0989 16.4168 41.2257C16.5071 41.3525 16.5975 41.4793 16.6879 41.6061C16.7783 41.7148 16.8868 41.8417 16.9952 41.9504C17.1037 42.0591 17.2122 42.1496 17.3387 42.2583C17.3387 42.2583 17.3568 42.2765 17.3748 42.2765C17.4833 42.3671 17.5918 42.4577 17.7002 42.5301C17.8268 42.6207 17.9533 42.6932 18.0979 42.7656C18.2245 42.8381 18.3691 42.9106 18.5137 42.9649C18.6222 43.0193 18.7487 43.0555 18.8753 43.0917C18.8934 43.1099 18.9114 43.1099 18.9476 43.128C19.02 43.1461 19.1103 43.1642 19.1826 43.1823C19.1284 44.1606 19.1103 45.0845 19.255 45.4107C19.4177 45.773 20.2131 44.6679 21.0085 43.3997C20.9 44.6498 20.8277 46.1172 21.0085 46.552C21.2073 47.0049 22.292 45.5918 23.232 44.0338C36.0491 41.0627 47.7453 49.9398 48.9746 62.4765C48.7395 60.5199 46.3352 59.4329 45.2325 59.7047C44.6902 61.0453 43.7682 62.7664 42.2858 63.8353C42.4124 62.6396 42.3582 61.4076 42.1051 60.2119C41.7074 61.8787 40.93 63.4367 39.8634 64.7773C38.1461 64.9041 36.4287 64.0708 35.5248 62.8207C35.4525 62.7664 35.4344 62.6577 35.3802 62.5852C35.326 62.4584 35.2717 62.3316 35.2356 62.2048C35.1813 62.0779 35.1452 61.9511 35.1271 61.8243C35.109 61.6975 35.109 61.5707 35.109 61.4258C35.109 61.3352 35.109 61.2446 35.109 61.154C35.1271 61.0272 35.1632 60.9004 35.1994 60.7735C35.2355 60.6467 35.2717 60.5199 35.3259 60.3931C35.3983 60.2663 35.4525 60.1395 35.5429 60.0127C35.8502 59.1431 35.8502 58.4365 35.2898 58.0198C35.1813 57.9473 35.0728 57.893 34.9463 57.8387C34.874 57.8205 34.7836 57.7843 34.7113 57.7662C34.6571 57.748 34.6209 57.7299 34.5667 57.7118C34.4401 57.6756 34.3136 57.6393 34.187 57.6212C34.0605 57.585 33.934 57.5669 33.8074 57.5669C33.6809 57.5487 33.5362 57.5307 33.4097 57.5307C33.3193 57.5307 33.2289 57.5488 33.1385 57.5488C32.9939 57.5488 32.8674 57.567 32.7408 57.6032C32.6143 57.6213 32.4877 57.6394 32.3612 57.6756C32.2347 57.7119 32.1081 57.7481 31.9816 57.8025C31.855 57.8568 31.7466 57.9112 31.62 57.9655C31.5116 58.0199 31.4031 58.0923 31.2765 58.1467C27.0645 60.9004 29.5772 67.3499 32.4516 69.2159C31.3669 69.4152 30.2642 69.6508 29.9569 69.8863C29.9388 69.9044 29.9208 69.9225 29.9208 69.9225C30.6981 70.3935 31.5116 70.7921 32.3612 71.1363C33.5182 71.5167 34.7475 71.8609 35.2898 72.0059V72.024C36.7902 72.332 38.3088 72.4407 39.8454 72.3501C47.8537 71.7885 54.4159 65.6832 55.609 57.6394C55.6452 57.8025 55.6814 57.9474 55.7175 58.1105C55.7717 58.4365 55.844 58.7808 55.8802 59.125V59.1431C55.9163 59.3062 55.9344 59.4692 55.9525 59.6142V59.6867C55.9707 59.8497 55.9887 60.0128 55.9887 60.1577C56.0068 60.357 56.0248 60.5563 56.0248 60.7556V61.0454C56.0248 61.136 56.0429 61.2447 56.0429 61.3353C56.0429 61.444 56.0248 61.5527 56.0248 61.6614V61.915C56.0248 62.0418 56.0067 62.1505 56.0067 62.2774C56.0067 62.3498 56.0067 62.4223 55.9886 62.5129C55.9886 62.6397 55.9705 62.7665 55.9705 62.9114C55.9523 62.9658 55.9523 63.0201 55.9523 63.0745C55.9342 63.2194 55.9162 63.3462 55.8981 63.4912C55.8981 63.5455 55.8981 63.5999 55.88 63.6542C55.8619 63.8354 55.8258 63.9984 55.8077 64.1796V64.1978V64.2159C55.7715 64.379 55.7353 64.5601 55.6992 64.7232V64.7775C55.6631 64.9406 55.6269 65.1036 55.5907 65.2667C55.5907 65.2848 55.5726 65.321 55.5726 65.3392C55.5365 65.5022 55.5003 65.6653 55.4461 65.8283V65.8827C55.3919 66.0638 55.3376 66.2269 55.3015 66.3899C55.2834 66.4081 55.2834 66.4261 55.2834 66.4261C55.2291 66.6073 55.1749 66.7885 55.1207 66.9696C55.0483 67.1508 54.9941 67.3138 54.9218 67.495C54.8495 67.6762 54.7953 67.8573 54.723 68.0204C54.6506 68.2016 54.5783 68.3646 54.506 68.5458H54.4879C54.4156 68.7088 54.3433 68.89 54.2529 69.053C54.2348 69.1074 54.2168 69.1436 54.1987 69.1799C54.1806 69.198 54.1806 69.2161 54.1625 69.2342C52.9875 71.6075 51.252 73.6909 49.0827 75.3214C48.9381 75.412 48.7935 75.5207 48.6489 75.6294C48.6127 75.6656 48.5585 75.6837 48.5223 75.72C48.3958 75.8105 48.2692 75.9011 48.1246 75.9917L48.1788 76.1004H48.1969C48.45 76.0642 48.7031 76.0279 48.9562 75.9917H48.9743C49.4443 75.9192 49.9143 75.8287 50.3844 75.7381C50.5109 75.7199 50.6555 75.6837 50.7821 75.6475C50.8725 75.6293 50.9448 75.6113 51.0352 75.5931C51.1617 75.575 51.2882 75.5388 51.4148 75.5206C51.5233 75.4844 51.6317 75.4663 51.7402 75.4301C53.5479 74.9953 55.3015 74.3974 56.9827 73.6909C54.1084 77.6222 50.2578 80.7926 45.7565 82.876C47.8354 82.7311 49.9143 82.3868 51.921 81.8071C59.2062 79.6512 65.3345 74.7416 69.0043 68.1291C68.2631 72.314 66.6 76.2997 64.1414 79.7781C65.895 78.6186 67.5039 77.2779 68.9681 75.7562C73.0175 71.5169 75.6749 66.1362 76.5788 60.357C77.1935 63.2194 77.3742 66.1725 77.1031 69.0892C90.1551 50.8458 78.1877 31.932 73.1802 26.95C73.1621 26.9138 73.1441 26.8956 73.1441 26.8594C73.126 26.8775 73.126 26.8775 73.126 26.8956C73.126 26.8774 73.126 26.8774 73.1079 26.8594C73.1079 27.0768 73.0898 27.2942 73.0717 27.5116C73.0175 27.9283 72.9633 28.3268 72.891 28.7254C72.8006 29.124 72.6921 29.5225 72.5836 29.9211C72.4571 30.3015 72.3125 30.7001 72.1498 31.0806C71.9871 31.4429 71.8063 31.8233 71.6075 32.1857C71.4086 32.5299 71.1917 32.8922 70.9567 33.2183C70.7217 33.5625 70.4686 33.8886 70.2155 34.1966C69.9443 34.5227 69.6551 34.8126 69.3658 35.1024C69.1851 35.2655 69.0224 35.4104 68.8416 35.5554C68.697 35.6822 68.5704 35.7909 68.4258 35.9177C68.1004 36.1713 67.775 36.4068 67.4135 36.6242C67.07 36.8416 66.7084 37.059 66.3469 37.2402C65.9672 37.4214 65.5876 37.5844 65.208 37.7475C64.8284 37.8924 64.4306 38.0192 64.0329 38.1279C63.6352 38.2366 63.2194 38.3272 62.8217 38.3997C62.406 38.4722 61.9902 38.5084 61.5925 38.5446C61.3032 38.5627 61.014 38.5808 60.7247 38.5808C60.309 38.5808 59.8932 38.5446 59.4955 38.5083C59.0797 38.4721 58.6639 38.4177 58.2662 38.3271C57.8504 38.2546 57.4527 38.146 57.055 38.0192H57.0369C57.4346 37.983 57.8323 37.9467 58.23 37.8742C58.6458 37.8017 59.0435 37.7112 59.4412 37.6025C59.8389 37.4938 60.2366 37.367 60.6162 37.222C61.014 37.0771 61.3936 36.8959 61.7551 36.7148C62.1348 36.5336 62.4782 36.3343 62.8398 36.1169C63.1833 35.8814 63.5267 35.6459 63.8521 35.3922C64.1775 35.1386 64.4849 34.8669 64.7741 34.577C65.0814 34.3052 65.3526 33.9973 65.6237 33.6893C65.8949 33.3632 66.148 33.0371 66.383 32.711C66.4191 32.6566 66.4553 32.5842 66.4915 32.5298C66.6722 32.24 66.853 31.9501 67.0157 31.6602C67.2146 31.2979 67.3954 30.9356 67.558 30.5551C67.7207 30.1747 67.8654 29.7942 67.9919 29.3956C68.1185 29.0152 68.2088 28.6166 68.2992 28.2181C68.3716 27.8014 68.4438 27.4028 68.48 27.0043C68.5161 26.5876 68.5523 26.1709 68.5523 25.7723C68.5523 25.4825 68.5342 25.1926 68.5162 24.9027C68.4801 24.486 68.4258 24.0875 68.3716 23.6889C68.2993 23.2722 68.2089 22.8737 68.1004 22.4751C67.9739 22.0947 67.8473 21.6961 67.7027 21.3156C67.5581 20.9352 67.3773 20.5547 67.1965 20.1924C66.9977 19.8301 66.7988 19.4677 66.5819 19.1235C66.3469 18.7793 66.1119 18.4532 65.8588 18.1271C65.5877 17.8191 65.3165 17.5111 65.0272 17.2032C64.8826 17.0582 64.7199 16.8952 64.5572 16.7502C63.7437 16.1162 62.8941 15.5183 62.0444 14.9748C61.9179 14.9023 61.8094 14.848 61.6829 14.7936C61.0863 14.4132 60.5259 14.2139 59.9655 14.0327L59.9655 14.0326Z"
    fill="#6A6A6A"
  ></path>
</svg>
