<svg width="179" height="138" viewBox="0 0 179 138" fill="none" xmlns="http://www.w3.org/2000/svg">
<g clip-path="url(#clip0_7502_63999)">
<path d="M44.864 128.126C44.036 128.126 43.292 127.982 42.632 127.694C41.984 127.394 41.474 126.986 41.102 126.47C40.73 125.942 40.538 125.336 40.526 124.652H42.272C42.332 125.24 42.572 125.738 42.992 126.146C43.424 126.542 44.048 126.74 44.864 126.74C45.644 126.74 46.256 126.548 46.7 126.164C47.156 125.768 47.384 125.264 47.384 124.652C47.384 124.172 47.252 123.782 46.988 123.482C46.724 123.182 46.394 122.954 45.998 122.798C45.602 122.642 45.068 122.474 44.396 122.294C43.568 122.078 42.902 121.862 42.398 121.646C41.906 121.43 41.48 121.094 41.12 120.638C40.772 120.17 40.598 119.546 40.598 118.766C40.598 118.082 40.772 117.476 41.12 116.948C41.468 116.42 41.954 116.012 42.578 115.724C43.214 115.436 43.94 115.292 44.756 115.292C45.932 115.292 46.892 115.586 47.636 116.174C48.392 116.762 48.818 117.542 48.914 118.514H47.114C47.054 118.034 46.802 117.614 46.358 117.254C45.914 116.882 45.326 116.696 44.594 116.696C43.91 116.696 43.352 116.876 42.92 117.236C42.488 117.584 42.272 118.076 42.272 118.712C42.272 119.168 42.398 119.54 42.65 119.828C42.914 120.116 43.232 120.338 43.604 120.494C43.988 120.638 44.522 120.806 45.206 120.998C46.034 121.226 46.7 121.454 47.204 121.682C47.708 121.898 48.14 122.24 48.5 122.708C48.86 123.164 49.04 123.788 49.04 124.58C49.04 125.192 48.878 125.768 48.554 126.308C48.23 126.848 47.75 127.286 47.114 127.622C46.478 127.958 45.728 128.126 44.864 128.126ZM55.7525 128.162C54.8285 128.162 53.9885 127.952 53.2325 127.532C52.4885 127.112 51.9005 126.518 51.4685 125.75C51.0485 124.97 50.8385 124.07 50.8385 123.05C50.8385 122.042 51.0545 121.154 51.4865 120.386C51.9305 119.606 52.5305 119.012 53.2865 118.604C54.0425 118.184 54.8885 117.974 55.8245 117.974C56.7605 117.974 57.6065 118.184 58.3625 118.604C59.1185 119.012 59.7125 119.6 60.1445 120.368C60.5885 121.136 60.8105 122.03 60.8105 123.05C60.8105 124.07 60.5825 124.97 60.1265 125.75C59.6825 126.518 59.0765 127.112 58.3085 127.532C57.5405 127.952 56.6885 128.162 55.7525 128.162ZM55.7525 126.722C56.3405 126.722 56.8925 126.584 57.4085 126.308C57.9245 126.032 58.3385 125.618 58.6505 125.066C58.9745 124.514 59.1365 123.842 59.1365 123.05C59.1365 122.258 58.9805 121.586 58.6685 121.034C58.3565 120.482 57.9485 120.074 57.4445 119.81C56.9405 119.534 56.3945 119.396 55.8065 119.396C55.2065 119.396 54.6545 119.534 54.1505 119.81C53.6585 120.074 53.2625 120.482 52.9625 121.034C52.6625 121.586 52.5125 122.258 52.5125 123.05C52.5125 123.854 52.6565 124.532 52.9445 125.084C53.2445 125.636 53.6405 126.05 54.1325 126.326C54.6245 126.59 55.1645 126.722 55.7525 126.722ZM67.7701 117.956C68.9701 117.956 69.9421 118.322 70.6861 119.054C71.4301 119.774 71.8021 120.818 71.8021 122.186V128H70.1821V122.42C70.1821 121.436 69.9361 120.686 69.4441 120.17C68.9521 119.642 68.2801 119.378 67.4281 119.378C66.5641 119.378 65.8741 119.648 65.3581 120.188C64.8541 120.728 64.6021 121.514 64.6021 122.546V128H62.9641V118.136H64.6021V119.54C64.9261 119.036 65.3641 118.646 65.9161 118.37C66.4801 118.094 67.0981 117.956 67.7701 117.956ZM73.8658 123.032C73.8658 122.024 74.0698 121.142 74.4778 120.386C74.8858 119.618 75.4438 119.024 76.1518 118.604C76.8718 118.184 77.6698 117.974 78.5458 117.974C79.4098 117.974 80.1598 118.16 80.7958 118.532C81.4318 118.904 81.9058 119.372 82.2178 119.936V118.136H83.8738V128H82.2178V126.164C81.8938 126.74 81.4078 127.22 80.7598 127.604C80.1238 127.976 79.3798 128.162 78.5278 128.162C77.6518 128.162 76.8598 127.946 76.1518 127.514C75.4438 127.082 74.8858 126.476 74.4778 125.696C74.0698 124.916 73.8658 124.028 73.8658 123.032ZM82.2178 123.05C82.2178 122.306 82.0678 121.658 81.7678 121.106C81.4678 120.554 81.0598 120.134 80.5438 119.846C80.0398 119.546 79.4818 119.396 78.8698 119.396C78.2578 119.396 77.6998 119.54 77.1958 119.828C76.6918 120.116 76.2898 120.536 75.9898 121.088C75.6898 121.64 75.5398 122.288 75.5398 123.032C75.5398 123.788 75.6898 124.448 75.9898 125.012C76.2898 125.564 76.6918 125.99 77.1958 126.29C77.6998 126.578 78.2578 126.722 78.8698 126.722C79.4818 126.722 80.0398 126.578 80.5438 126.29C81.0598 125.99 81.4678 125.564 81.7678 125.012C82.0678 124.448 82.2178 123.794 82.2178 123.05ZM88.2799 119.738C88.5679 119.174 88.9759 118.736 89.5039 118.424C90.0439 118.112 90.6979 117.956 91.4659 117.956V119.648H91.0339C89.1979 119.648 88.2799 120.644 88.2799 122.636V128H86.6419V118.136H88.2799V119.738ZM92.7447 123.032C92.7447 122.024 92.9487 121.142 93.3567 120.386C93.7647 119.618 94.3227 119.024 95.0307 118.604C95.7507 118.184 96.5547 117.974 97.4427 117.974C98.2947 117.974 99.0387 118.166 99.6747 118.55C100.323 118.922 100.797 119.384 101.097 119.936V118.136H102.753V132.68H101.097V126.182C100.785 126.734 100.305 127.202 99.6567 127.586C99.0087 127.97 98.2527 128.162 97.3887 128.162C96.5247 128.162 95.7387 127.946 95.0307 127.514C94.3227 127.082 93.7647 126.476 93.3567 125.696C92.9487 124.916 92.7447 124.028 92.7447 123.032ZM101.097 123.05C101.097 122.306 100.947 121.658 100.647 121.106C100.347 120.554 99.9387 120.134 99.4227 119.846C98.9187 119.546 98.3607 119.396 97.7487 119.396C97.1367 119.396 96.5787 119.54 96.0747 119.828C95.5707 120.116 95.1687 120.536 94.8687 121.088C94.5687 121.64 94.4187 122.288 94.4187 123.032C94.4187 123.788 94.5687 124.448 94.8687 125.012C95.1687 125.564 95.5707 125.99 96.0747 126.29C96.5787 126.578 97.1367 126.722 97.7487 126.722C98.3607 126.722 98.9187 126.578 99.4227 126.29C99.9387 125.99 100.347 125.564 100.647 125.012C100.947 124.448 101.097 123.794 101.097 123.05ZM114.269 118.136V128H112.631V126.542C112.319 127.046 111.881 127.442 111.317 127.73C110.765 128.006 110.153 128.144 109.481 128.144C108.713 128.144 108.023 127.988 107.411 127.676C106.799 127.352 106.313 126.872 105.953 126.236C105.605 125.6 105.431 124.826 105.431 123.914V118.136H107.051V123.698C107.051 124.67 107.297 125.42 107.789 125.948C108.281 126.464 108.953 126.722 109.805 126.722C110.681 126.722 111.371 126.452 111.875 125.912C112.379 125.372 112.631 124.586 112.631 123.554V118.136H114.269ZM118.672 119.972C119.008 119.384 119.5 118.904 120.148 118.532C120.796 118.16 121.534 117.974 122.362 117.974C123.25 117.974 124.048 118.184 124.756 118.604C125.464 119.024 126.022 119.618 126.43 120.386C126.838 121.142 127.042 122.024 127.042 123.032C127.042 124.028 126.838 124.916 126.43 125.696C126.022 126.476 125.458 127.082 124.738 127.514C124.03 127.946 123.238 128.162 122.362 128.162C121.51 128.162 120.76 127.976 120.112 127.604C119.476 127.232 118.996 126.758 118.672 126.182V128H117.034V114.68H118.672V119.972ZM125.368 123.032C125.368 122.288 125.218 121.64 124.918 121.088C124.618 120.536 124.21 120.116 123.694 119.828C123.19 119.54 122.632 119.396 122.02 119.396C121.42 119.396 120.862 119.546 120.346 119.846C119.842 120.134 119.434 120.56 119.122 121.124C118.822 121.676 118.672 122.318 118.672 123.05C118.672 123.794 118.822 124.448 119.122 125.012C119.434 125.564 119.842 125.99 120.346 126.29C120.862 126.578 121.42 126.722 122.02 126.722C122.632 126.722 123.19 126.578 123.694 126.29C124.21 125.99 124.618 125.564 124.918 125.012C125.218 124.448 125.368 123.788 125.368 123.032ZM138.199 122.69C138.199 123.002 138.181 123.332 138.145 123.68H130.261C130.321 124.652 130.651 125.414 131.251 125.966C131.863 126.506 132.601 126.776 133.465 126.776C134.173 126.776 134.761 126.614 135.229 126.29C135.709 125.954 136.045 125.51 136.237 124.958H138.001C137.737 125.906 137.209 126.68 136.417 127.28C135.625 127.868 134.641 128.162 133.465 128.162C132.529 128.162 131.689 127.952 130.945 127.532C130.213 127.112 129.637 126.518 129.217 125.75C128.797 124.97 128.587 124.07 128.587 123.05C128.587 122.03 128.791 121.136 129.199 120.368C129.607 119.6 130.177 119.012 130.909 118.604C131.653 118.184 132.505 117.974 133.465 117.974C134.401 117.974 135.229 118.178 135.949 118.586C136.669 118.994 137.221 119.558 137.605 120.278C138.001 120.986 138.199 121.79 138.199 122.69ZM136.507 122.348C136.507 121.724 136.369 121.19 136.093 120.746C135.817 120.29 135.439 119.948 134.959 119.72C134.491 119.48 133.969 119.36 133.393 119.36C132.565 119.36 131.857 119.624 131.269 120.152C130.693 120.68 130.363 121.412 130.279 122.348H136.507Z" fill="#A0A0A0"/>
<g clip-path="url(#clip1_7502_63999)">
<path d="M1.45149 61.5651C2.43671 62.1722 4.48157 62.8835 6.06309 62.8835C7.68528 62.8835 8.35301 62.3125 8.35301 61.4258C8.35301 60.5392 7.82716 60.1084 5.81802 59.4331C2.25911 58.2229 0.889922 56.2662 0.921672 54.2024C0.921672 50.9634 3.67097 48.5118 7.93035 48.5118C9.93949 48.5118 11.7343 48.9707 12.792 49.5057L11.8425 53.2396C11.0676 52.8128 9.58826 52.2458 8.10894 52.2458C6.80424 52.2458 6.06408 52.7768 6.06408 53.6674C6.06408 54.4859 6.73677 54.9137 8.84811 55.6601C12.1223 56.7982 13.4994 58.4653 13.5311 61.0311C13.5311 64.2661 10.9962 66.6505 6.06408 66.6505C3.80987 66.6505 1.8047 66.1496 0.5 65.4403L1.45149 61.5651ZM32.3794 57.4083C32.3794 63.7742 27.9067 66.6936 23.2911 66.6936C18.2529 66.6896 14.3834 63.3464 14.3834 57.7239C14.3834 52.1015 18.0455 48.5148 23.5788 48.5148C28.8592 48.5148 32.3794 52.1766 32.3794 57.4083ZM19.9098 57.5837C19.9098 60.5712 21.1431 62.8114 23.433 62.8114C25.5165 62.8114 26.85 60.7075 26.85 57.5837C26.85 54.9879 25.8658 52.353 23.433 52.353C20.8623 52.353 19.9098 55.0199 19.9098 57.5837ZM34.2893 54.4529C34.2893 52.2848 34.2179 50.4354 34.1474 48.9066H38.7977L39.0428 51.286H39.1499C39.8544 50.1839 41.6135 48.5148 44.465 48.5148C47.9892 48.5148 50.6313 50.8592 50.6313 55.9827V66.3019H45.2736V56.658C45.2736 54.4168 44.4987 52.888 42.561 52.888C41.0817 52.888 40.2036 53.9179 39.8524 54.9167C39.7095 55.2363 39.6381 55.7673 39.6381 56.2662V66.2979H34.2893V54.4529ZM63.3142 66.2979L62.9997 64.5526H62.9005C61.7734 65.9422 60.0093 66.6896 57.9684 66.6896C54.4799 66.6896 52.4033 64.1258 52.4033 61.3537C52.4033 56.8373 56.4176 54.6643 62.5125 54.7003V54.4529C62.5125 53.5261 62.0164 52.2127 59.3763 52.2127C57.6162 52.2127 55.7499 52.8138 54.6228 53.5261L53.6306 50.0447C54.8292 49.3654 57.1905 48.5148 60.3228 48.5148C66.0645 48.5148 67.896 51.9292 67.896 56.0188V62.065C67.896 63.7341 67.9675 65.3351 68.1451 66.2979H63.3142ZM62.6812 58.0826C59.8654 58.0465 57.6787 58.7248 57.6787 60.8217C57.6787 62.2113 58.5964 62.8865 59.794 62.8865C60.4052 62.8891 61.0018 62.6983 61.5001 62.3409C61.9984 61.9835 62.3732 61.4774 62.572 60.8938C62.6444 60.5904 62.68 60.2792 62.6782 59.9671L62.6812 58.0826ZM70.7178 54.6292C70.7178 52.0694 70.6463 50.3993 70.5759 48.9066H75.1904L75.369 52.1045H75.507C76.389 49.5808 78.5013 48.5148 80.1582 48.5148C80.5352 48.5002 80.9128 48.523 81.2853 48.583V53.6704C80.8098 53.5759 80.3264 53.5275 79.8417 53.5261C77.8683 53.5261 76.5319 54.5971 76.1707 56.2662C76.1011 56.6657 76.0679 57.0708 76.0715 57.4765V66.2979H70.7138L70.7178 54.6292ZM116.622 61.6011C116.622 63.3784 116.658 64.9443 116.764 66.2979H114.016L113.838 63.4866H113.771C112.96 64.8722 111.161 66.6926 108.135 66.6926C105.457 66.6926 102.25 65.1988 102.25 59.1526V49.0819H105.35V58.6106C105.35 61.8806 106.336 64.0898 109.155 64.0898C111.232 64.0898 112.676 62.628 113.241 61.2425C113.427 60.729 113.523 60.1863 113.522 59.6395V49.0819H116.622V61.6011ZM120.221 66.2979C120.292 65.1237 120.36 63.3784 120.36 61.8486V41.043H123.423V51.857H123.494C124.586 49.9365 126.559 48.6902 129.307 48.6902C133.531 48.6902 136.525 52.2488 136.49 57.4765C136.49 63.6299 132.65 66.6936 128.85 66.6936C126.382 66.6936 124.412 65.7308 123.143 63.4546H123.036L122.898 66.3019L120.221 66.2979ZM123.423 59.397C123.433 59.7802 123.481 60.1614 123.565 60.5352C124.16 62.7042 125.958 64.197 128.212 64.197C131.455 64.197 133.389 61.53 133.389 57.5847C133.389 54.1343 131.629 51.1838 128.319 51.1838C126.207 51.1838 124.233 52.6415 123.6 55.0209C123.53 55.3806 123.423 55.8044 123.423 56.3033V59.397ZM140.723 58.2589C140.791 62.4918 143.469 64.233 146.569 64.233C148.788 64.233 150.128 63.8423 151.287 63.3464L151.817 65.5865C150.725 66.0825 148.859 66.6535 146.145 66.6535C140.898 66.6535 137.762 63.167 137.762 57.9754C137.762 52.7838 140.791 48.6922 145.757 48.6922C151.323 48.6922 152.802 53.6363 152.802 56.8072C152.799 57.2947 152.765 57.7816 152.703 58.2649L140.723 58.2589ZM149.807 56.0188C149.843 54.0261 149.001 50.9303 145.512 50.9303C142.376 50.9303 141.004 53.8497 140.75 56.0188H149.807Z" fill="#8A8A8A"/>
<path fill-rule="evenodd" clip-rule="evenodd" d="M98.5681 52.1807C97.5857 50.7215 96.2123 49.5748 94.6083 48.8746C93.0044 48.1744 91.2363 47.9496 89.5105 48.2265C87.7847 48.5035 86.1727 49.2707 84.8628 50.4385C83.5529 51.6063 82.5992 53.1265 82.1132 54.8214C81.6272 56.5162 81.629 58.3158 82.1183 60.0096C82.6077 61.7035 83.5644 63.2218 84.8766 64.3869C86.1888 65.5521 87.8024 66.3161 89.5287 66.5895C91.255 66.863 93.0227 66.6347 94.6252 65.9312L98.1881 71.7721L101.015 69.8304L97.4539 63.9886C98.9733 62.4594 99.9161 60.4424 100.12 58.286C100.323 56.1295 99.7743 53.9691 98.5681 52.1777V52.1807ZM94.5776 62.7884C93.5227 63.5125 92.2789 63.9044 91.0033 63.9146C89.7278 63.9249 88.478 63.5529 87.4118 62.8459C86.3456 62.1388 85.511 61.1284 85.0136 59.9424C84.5162 58.7563 84.3782 57.448 84.6172 56.1828C84.8561 54.9176 85.4613 53.7523 86.3561 52.8344C87.2509 51.9165 88.3952 51.2872 89.6443 51.026C90.8933 50.7648 92.191 50.8835 93.3733 51.367C94.5555 51.8506 95.5692 52.6773 96.2861 53.7426C97.2461 55.1714 97.6053 56.9264 97.285 58.6224C96.9647 60.3183 95.991 61.8167 94.5776 62.7884Z" fill="#8A8A8A"/>
<path d="M173.987 66.3685H171.805C171.805 48.6176 157.298 34.1748 139.469 34.1748V31.9707C158.502 31.9707 173.987 47.4013 173.987 66.3685Z" fill="#ADADAD"/>
<path d="M175.497 54.5324C172.874 43.3947 163.939 34.0945 152.734 30.8504L153.23 29.0842C165.057 32.5125 174.491 42.3337 177.262 54.1076L175.497 54.5324ZM177.176 44.083C174.475 38.137 169.874 32.9513 164.221 29.4829L164.977 28.2266C170.876 31.8463 175.678 37.2593 178.499 43.4698L177.176 44.083Z" fill="#ADADAD"/>
</g>
</g>
<defs>
<clipPath>
<rect width="178" height="138" fill="white" transform="translate(0.5)"/>
</clipPath>
<clipPath id="clip1_7502_63999">
<rect width="178" height="44" fill="white" transform="translate(0.5 28)"/>
</clipPath>
</defs>
</svg>
