<svg width="96" height="136" viewBox="0 0 96 136" fill="none" xmlns="http://www.w3.org/2000/svg">
<g>
<path d="M66.4673 65.7819C66.9649 61.6359 66.8158 61.0279 69.9039 61.6995L70.6879 61.7684C73.0625 61.8764 76.1687 61.3865 77.9935 60.5387C81.9219 58.7159 84.2513 55.6726 80.3777 56.4723C71.542 58.295 70.9346 55.3032 70.9346 55.3032C80.2646 41.4598 84.1648 23.8869 80.7983 19.5855C71.616 7.8526 55.7217 13.4008 55.4557 13.5449L55.371 13.5605C53.6252 13.1983 51.6714 12.9818 49.4766 12.9463C45.4781 12.8806 42.4441 13.9946 40.1427 15.7402C40.1427 15.7402 11.788 4.05846 13.1071 30.4312C13.3877 36.0414 21.1488 72.8829 30.4054 61.755C33.7887 57.686 37.0582 54.2455 37.0582 54.2455C38.6818 55.3241 40.6256 55.8743 42.6642 55.6766L42.8218 55.5423C42.7725 56.0475 42.7942 56.5416 42.8849 57.1266C40.5007 59.791 41.2013 60.2588 36.4337 61.2401C31.6103 62.2342 34.4441 64.0041 36.2937 64.4667C38.5367 65.0276 43.7255 65.8221 47.2324 60.9139L47.0927 61.474C48.0282 62.2223 47.9649 66.8528 48.0976 70.1612C48.2304 73.4698 48.4519 76.5572 49.1263 78.3775C49.8007 80.1974 50.5965 84.8861 56.8621 83.5433C62.0987 82.4211 66.1024 80.806 66.4673 65.7817" fill="#B2B2B2"/>
<path d="M66.4673 65.7819C66.9649 61.6359 66.8158 61.0279 69.9039 61.6995L70.6879 61.7684C73.0625 61.8764 76.1687 61.3865 77.9935 60.5387C81.9219 58.7159 84.2513 55.6726 80.3777 56.4723C71.542 58.295 70.9346 55.3032 70.9346 55.3032C80.2646 41.4598 84.1648 23.8869 80.7983 19.5855C71.616 7.8526 55.7217 13.4008 55.4557 13.5449L55.371 13.5605C53.6252 13.1983 51.6714 12.9818 49.4766 12.9463C45.4781 12.8806 42.4441 13.9946 40.1427 15.7402C40.1427 15.7402 11.788 4.05846 13.1071 30.4312C13.3877 36.0414 21.1488 72.8829 30.4054 61.755C33.7887 57.686 37.0582 54.2455 37.0582 54.2455C38.6818 55.3241 40.6256 55.8743 42.6642 55.6766L42.8218 55.5423C42.7725 56.0475 42.7942 56.5416 42.8849 57.1266C40.5007 59.791 41.2013 60.2588 36.4337 61.2401C31.6104 62.2342 34.4441 64.0041 36.2937 64.4667C38.5367 65.0276 43.7255 65.8221 47.2324 60.9139L47.0927 61.474C48.0282 62.2223 47.9649 66.8528 48.0976 70.1612C48.2304 73.4698 48.4519 76.5572 49.1263 78.3775C49.8007 80.1975 50.5965 84.8861 56.8621 83.5433C62.0987 82.4211 66.1024 80.806 66.4673 65.7817" stroke="#B2B2B2" stroke-width="7.9246"/>
<path d="M80.3795 56.4722C71.5429 58.2949 70.9354 55.3031 70.9354 55.3031C80.2655 41.4588 84.1657 23.8856 80.7998 19.5847C71.6175 7.8525 55.7225 13.4011 55.4573 13.5451L55.3719 13.5604C53.6261 13.198 51.6723 12.9821 49.4764 12.9462C45.4779 12.8807 42.445 13.9945 40.1435 15.7398C40.1435 15.7398 11.7884 4.05854 13.1071 30.4311C13.3877 36.0417 21.1486 72.8831 30.4056 61.7553C33.789 57.6862 37.058 54.2457 37.058 54.2457C38.6818 55.3243 40.6256 55.8745 42.6633 55.6769L42.8216 55.5425C42.7724 56.0477 42.7949 56.5419 42.885 57.1269C40.5003 59.7913 41.2011 60.2591 36.4339 61.2404C31.6101 62.2345 34.4439 64.0044 36.2941 64.4669C38.537 65.0278 43.7261 65.8224 47.2324 60.9142L47.0925 61.4742C48.0269 62.2226 48.683 66.3422 48.5731 70.0766C48.4631 73.8112 48.3897 76.3751 49.1259 78.3778C49.8621 80.3804 50.5959 84.8863 56.8628 83.5435C62.0994 82.4213 64.8129 79.5133 65.1905 74.6625C65.4584 71.2139 66.0646 71.7237 66.1029 68.6405L66.5891 67.1809C67.1499 62.5061 66.6782 60.998 69.9044 61.6994L70.6884 61.7683C73.063 61.8763 76.1707 61.3864 77.9947 60.5386C81.9224 58.7158 84.2518 55.6725 80.3791 56.4722H80.3795Z" fill="#CCCCCC"/>
<path d="M47.6123 59.1504C47.369 67.8489 47.6735 76.608 48.5246 78.7368C49.3762 80.8656 51.1988 85.0061 57.4662 83.6635C62.7023 82.5409 64.6074 80.3686 65.4341 75.5737C66.043 72.0458 67.2168 62.2483 67.3674 60.2409" stroke="white" stroke-width="2.64153" stroke-linecap="round" stroke-linejoin="round"/>
<path d="M40.1 15.5452C40.1 15.5452 11.7255 3.94815 13.0446 30.3207C13.3252 35.9313 21.0866 72.774 30.3434 61.6456C33.7261 57.576 36.7854 54.3842 36.7854 54.3842" stroke="white" stroke-width="2.64153" stroke-linecap="round" stroke-linejoin="round"/>
<path d="M55.4241 13.4283C54.4419 13.7363 71.2078 7.29935 80.736 19.4744C84.1016 23.7755 80.2014 41.3487 70.8715 55.1933" stroke="white" stroke-width="2.64153" stroke-linecap="round" stroke-linejoin="round"/>
<path d="M70.8755 55.1944C70.8755 55.1944 71.4835 58.1871 80.3202 56.3632C84.192 55.5635 81.8619 58.6072 77.9351 60.4308C74.7125 61.9265 67.4873 62.3098 67.3693 60.243C67.0655 54.9105 71.172 56.5306 70.8757 55.1944C70.6078 53.9911 68.7713 52.81 67.5565 49.8649C66.496 47.2943 53.0117 27.5813 71.296 30.509C71.9659 30.3704 66.5273 13.1173 49.4157 12.8367C32.308 12.5562 32.8693 33.8754 32.8693 33.8754" stroke="white" stroke-width="2.64153" stroke-linecap="round" stroke-linejoin="bevel"/>
<path d="M42.8213 57.0157C40.4362 59.6799 41.1376 60.1477 36.3701 61.1294C31.5464 62.1237 34.3805 63.8932 36.2301 64.3556C38.4731 64.9168 43.6622 65.7114 47.1684 60.8019C48.2361 59.3071 47.1621 56.9221 45.6954 56.3141C44.9868 56.0205 44.0392 55.6527 42.8213 57.0157V57.0157Z" stroke="white" stroke-width="2.64153" stroke-linecap="round" stroke-linejoin="round"/>
<path d="M42.6634 56.9702C42.4231 55.4038 43.1782 53.5397 43.9873 51.359C45.2033 48.0869 48.0089 44.8144 45.7646 34.435C44.0916 26.7004 32.871 32.8254 32.864 33.8741C32.8572 34.9225 33.3715 39.1899 32.6766 44.1593C31.7698 50.6438 36.8027 56.1281 42.5983 55.567" stroke="white" stroke-width="2.64153" stroke-linecap="round" stroke-linejoin="round"/>
<path d="M39.9947 33.7161C39.9442 34.0743 40.6505 35.0301 41.5716 35.1578C42.491 35.2861 43.278 34.5391 43.3279 34.1813C43.3778 33.8231 42.6723 33.4285 41.7509 33.3003C40.8309 33.1719 40.0436 33.3588 39.9949 33.7161H39.9947Z" fill="white" stroke="white" stroke-width="0.880504"/>
<path d="M68.0008 32.9856C68.0507 33.3438 67.3452 34.2996 66.424 34.4273C65.5039 34.5555 64.7169 33.8086 64.6664 33.4508C64.6178 33.0926 65.3234 32.698 66.2438 32.5698C67.1641 32.4415 67.951 32.6283 68.0008 32.9858V32.9856Z" fill="white" stroke="white" stroke-width="0.440252"/>
<path d="M71.2919 30.5078C71.4435 33.3175 70.6868 35.2312 70.5914 38.2222C70.4501 42.5697 72.6641 47.5458 69.3281 52.5279" stroke="white" stroke-width="2.64153" stroke-linecap="round" stroke-linejoin="round"/>
</g>
<path d="M12.0396 122.112C12.0396 123.04 11.7196 123.813 11.0796 124.432C10.4502 125.04 9.4849 125.344 8.18356 125.344H6.03956V130H4.58356V118.848H8.18356C9.44223 118.848 10.3969 119.152 11.0476 119.76C11.7089 120.368 12.0396 121.152 12.0396 122.112ZM8.18356 124.144C8.99423 124.144 9.59156 123.968 9.97556 123.616C10.3596 123.264 10.5516 122.763 10.5516 122.112C10.5516 120.736 9.76223 120.048 8.18356 120.048H6.03956V124.144H8.18356ZM17.6732 130.144C16.8519 130.144 16.1052 129.957 15.4332 129.584C14.7719 129.211 14.2492 128.683 13.8652 128C13.4919 127.307 13.3052 126.507 13.3052 125.6C13.3052 124.704 13.4972 123.915 13.8812 123.232C14.2759 122.539 14.8092 122.011 15.4812 121.648C16.1532 121.275 16.9052 121.088 17.7372 121.088C18.5692 121.088 19.3212 121.275 19.9932 121.648C20.6652 122.011 21.1932 122.533 21.5772 123.216C21.9719 123.899 22.1692 124.693 22.1692 125.6C22.1692 126.507 21.9665 127.307 21.5612 128C21.1665 128.683 20.6279 129.211 19.9452 129.584C19.2625 129.957 18.5052 130.144 17.6732 130.144ZM17.6732 128.864C18.1959 128.864 18.6865 128.741 19.1452 128.496C19.6039 128.251 19.9719 127.883 20.2492 127.392C20.5372 126.901 20.6812 126.304 20.6812 125.6C20.6812 124.896 20.5425 124.299 20.2652 123.808C19.9879 123.317 19.6252 122.955 19.1772 122.72C18.7292 122.475 18.2439 122.352 17.7212 122.352C17.1879 122.352 16.6972 122.475 16.2492 122.72C15.8119 122.955 15.4599 123.317 15.1932 123.808C14.9265 124.299 14.7932 124.896 14.7932 125.6C14.7932 126.315 14.9212 126.917 15.1772 127.408C15.4439 127.899 15.7959 128.267 16.2332 128.512C16.6705 128.747 17.1505 128.864 17.6732 128.864ZM27.1876 130.144C26.5156 130.144 25.9129 130.032 25.3796 129.808C24.8462 129.573 24.4249 129.253 24.1156 128.848C23.8062 128.432 23.6356 127.957 23.6036 127.424H25.1076C25.1502 127.861 25.3529 128.219 25.7156 128.496C26.0889 128.773 26.5742 128.912 27.1716 128.912C27.7262 128.912 28.1636 128.789 28.4836 128.544C28.8036 128.299 28.9636 127.989 28.9636 127.616C28.9636 127.232 28.7929 126.949 28.4516 126.768C28.1102 126.576 27.5822 126.389 26.8676 126.208C26.2169 126.037 25.6836 125.867 25.2676 125.696C24.8622 125.515 24.5102 125.253 24.2116 124.912C23.9236 124.56 23.7796 124.101 23.7796 123.536C23.7796 123.088 23.9129 122.677 24.1796 122.304C24.4462 121.931 24.8249 121.637 25.3156 121.424C25.8062 121.2 26.3662 121.088 26.9956 121.088C27.9662 121.088 28.7502 121.333 29.3476 121.824C29.9449 122.315 30.2649 122.987 30.3076 123.84H28.8516C28.8196 123.381 28.6329 123.013 28.2916 122.736C27.9609 122.459 27.5129 122.32 26.9476 122.32C26.4249 122.32 26.0089 122.432 25.6996 122.656C25.3902 122.88 25.2356 123.173 25.2356 123.536C25.2356 123.824 25.3262 124.064 25.5076 124.256C25.6996 124.437 25.9342 124.587 26.2116 124.704C26.4996 124.811 26.8942 124.933 27.3956 125.072C28.0249 125.243 28.5369 125.413 28.9316 125.584C29.3262 125.744 29.6622 125.989 29.9396 126.32C30.2276 126.651 30.3769 127.083 30.3876 127.616C30.3876 128.096 30.2542 128.528 29.9876 128.912C29.7209 129.296 29.3422 129.6 28.8516 129.824C28.3716 130.037 27.8169 130.144 27.1876 130.144ZM34.2189 122.432V127.6C34.2189 128.027 34.3096 128.331 34.4909 128.512C34.6723 128.683 34.9869 128.768 35.4349 128.768H36.5069V130H35.1949C34.3843 130 33.7763 129.813 33.3709 129.44C32.9656 129.067 32.7629 128.453 32.7629 127.6V122.432H31.6269V121.232H32.7629V119.024H34.2189V121.232H36.5069V122.432H34.2189ZM41.8871 121.088C42.6444 121.088 43.3057 121.253 43.8711 121.584C44.4471 121.915 44.8737 122.331 45.1511 122.832V121.232H46.6231V130.192C46.6231 130.992 46.4524 131.701 46.1111 132.32C45.7697 132.949 45.2791 133.44 44.6391 133.792C44.0097 134.144 43.2737 134.32 42.4311 134.32C41.2791 134.32 40.3191 134.048 39.5511 133.504C38.7831 132.96 38.3297 132.219 38.1911 131.28H39.6311C39.7911 131.813 40.1217 132.24 40.6231 132.56C41.1244 132.891 41.7271 133.056 42.4311 133.056C43.2311 133.056 43.8817 132.805 44.3831 132.304C44.8951 131.803 45.1511 131.099 45.1511 130.192V128.352C44.8631 128.864 44.4364 129.291 43.8711 129.632C43.3057 129.973 42.6444 130.144 41.8871 130.144C41.1084 130.144 40.3991 129.952 39.7591 129.568C39.1297 129.184 38.6337 128.645 38.2711 127.952C37.9084 127.259 37.7271 126.469 37.7271 125.584C37.7271 124.688 37.9084 123.904 38.2711 123.232C38.6337 122.549 39.1297 122.021 39.7591 121.648C40.3991 121.275 41.1084 121.088 41.8871 121.088ZM45.1511 125.6C45.1511 124.939 45.0177 124.363 44.7511 123.872C44.4844 123.381 44.1217 123.008 43.6631 122.752C43.2151 122.485 42.7191 122.352 42.1751 122.352C41.6311 122.352 41.1351 122.48 40.6871 122.736C40.2391 122.992 39.8817 123.365 39.6151 123.856C39.3484 124.347 39.2151 124.923 39.2151 125.584C39.2151 126.256 39.3484 126.843 39.6151 127.344C39.8817 127.835 40.2391 128.213 40.6871 128.48C41.1351 128.736 41.6311 128.864 42.1751 128.864C42.7191 128.864 43.2151 128.736 43.6631 128.48C44.1217 128.213 44.4844 127.835 44.7511 127.344C45.0177 126.843 45.1511 126.261 45.1511 125.6ZM50.5396 122.656C50.7956 122.155 51.1582 121.765 51.6276 121.488C52.1076 121.211 52.6889 121.072 53.3716 121.072V122.576H52.9876C51.3556 122.576 50.5396 123.461 50.5396 125.232V130H49.0836V121.232H50.5396V122.656ZM63.0523 125.28C63.0523 125.557 63.0363 125.851 63.0043 126.16H55.9963C56.0496 127.024 56.343 127.701 56.8763 128.192C57.4203 128.672 58.0763 128.912 58.8443 128.912C59.4736 128.912 59.9963 128.768 60.4123 128.48C60.839 128.181 61.1376 127.787 61.3083 127.296H62.8763C62.6416 128.139 62.1723 128.827 61.4683 129.36C60.7643 129.883 59.8896 130.144 58.8443 130.144C58.0123 130.144 57.2656 129.957 56.6043 129.584C55.9536 129.211 55.4416 128.683 55.0683 128C54.695 127.307 54.5083 126.507 54.5083 125.6C54.5083 124.693 54.6896 123.899 55.0523 123.216C55.415 122.533 55.9216 122.011 56.5723 121.648C57.2336 121.275 57.991 121.088 58.8443 121.088C59.6763 121.088 60.4123 121.269 61.0523 121.632C61.6923 121.995 62.183 122.496 62.5243 123.136C62.8763 123.765 63.0523 124.48 63.0523 125.28ZM61.5483 124.976C61.5483 124.421 61.4256 123.947 61.1803 123.552C60.935 123.147 60.599 122.843 60.1723 122.64C59.7563 122.427 59.2923 122.32 58.7803 122.32C58.0443 122.32 57.415 122.555 56.8923 123.024C56.3803 123.493 56.087 124.144 56.0123 124.976H61.5483ZM68.5102 130.112C67.7742 130.112 67.1129 129.984 66.5262 129.728C65.9502 129.461 65.4969 129.099 65.1662 128.64C64.8355 128.171 64.6649 127.632 64.6542 127.024H66.2062C66.2595 127.547 66.4729 127.989 66.8462 128.352C67.2302 128.704 67.7849 128.88 68.5102 128.88C69.2035 128.88 69.7475 128.709 70.1422 128.368C70.5475 128.016 70.7502 127.568 70.7502 127.024C70.7502 126.597 70.6329 126.251 70.3982 125.984C70.1635 125.717 69.8702 125.515 69.5182 125.376C69.1662 125.237 68.6915 125.088 68.0942 124.928C67.3582 124.736 66.7662 124.544 66.3182 124.352C65.8809 124.16 65.5022 123.861 65.1822 123.456C64.8729 123.04 64.7182 122.485 64.7182 121.792C64.7182 121.184 64.8729 120.645 65.1822 120.176C65.4915 119.707 65.9235 119.344 66.4782 119.088C67.0435 118.832 67.6889 118.704 68.4142 118.704C69.4595 118.704 70.3129 118.965 70.9742 119.488C71.6462 120.011 72.0249 120.704 72.1102 121.568H70.5102C70.4569 121.141 70.2329 120.768 69.8382 120.448C69.4435 120.117 68.9209 119.952 68.2702 119.952C67.6622 119.952 67.1662 120.112 66.7822 120.432C66.3982 120.741 66.2062 121.179 66.2062 121.744C66.2062 122.149 66.3182 122.48 66.5422 122.736C66.7769 122.992 67.0595 123.189 67.3902 123.328C67.7315 123.456 68.2062 123.605 68.8142 123.776C69.5502 123.979 70.1422 124.181 70.5902 124.384C71.0382 124.576 71.4222 124.88 71.7422 125.296C72.0622 125.701 72.2222 126.256 72.2222 126.96C72.2222 127.504 72.0782 128.016 71.7902 128.496C71.5022 128.976 71.0755 129.365 70.5102 129.664C69.9449 129.963 69.2782 130.112 68.5102 130.112ZM83.3088 132.112L81.0848 129.888C80.5408 130.037 79.9861 130.112 79.4208 130.112C78.3861 130.112 77.4421 129.872 76.5888 129.392C75.7355 128.901 75.0581 128.224 74.5568 127.36C74.0661 126.485 73.8208 125.504 73.8208 124.416C73.8208 123.328 74.0661 122.352 74.5568 121.488C75.0581 120.613 75.7355 119.936 76.5888 119.456C77.4421 118.965 78.3861 118.72 79.4208 118.72C80.4661 118.72 81.4155 118.965 82.2688 119.456C83.1221 119.936 83.7941 120.608 84.2848 121.472C84.7755 122.336 85.0208 123.317 85.0208 124.416C85.0208 125.483 84.7861 126.443 84.3168 127.296C83.8475 128.149 83.2021 128.821 82.3808 129.312L85.1968 132.112H83.3088ZM75.3088 124.416C75.3088 125.301 75.4848 126.08 75.8368 126.752C76.1995 127.424 76.6901 127.941 77.3088 128.304C77.9381 128.667 78.6421 128.848 79.4208 128.848C80.1995 128.848 80.8981 128.667 81.5168 128.304C82.1461 127.941 82.6368 127.424 82.9888 126.752C83.3515 126.08 83.5328 125.301 83.5328 124.416C83.5328 123.52 83.3515 122.741 82.9888 122.08C82.6368 121.408 82.1515 120.891 81.5328 120.528C80.9141 120.165 80.2101 119.984 79.4208 119.984C78.6315 119.984 77.9275 120.165 77.3088 120.528C76.6901 120.891 76.1995 121.408 75.8368 122.08C75.4848 122.741 75.3088 123.52 75.3088 124.416ZM88.4302 128.816H92.3342V130H86.9742V118.848H88.4302V128.816Z" fill="#AFAFAF"/>
<defs>
<clipPath id="clip0_9380_56196">
<rect width="96" height="96" fill="white"/>
</clipPath>
</defs>
</svg>
