<svg width="164" height="108" viewBox="0 0 164 108" fill="none" xmlns="http://www.w3.org/2000/svg"><g clip-path="url(#a)"><path d="M23.937 18.833c0 2.834-2.282 5.167-5.053 5.167s-5.053-2.333-5.053-5.167c0-2.833 2.282-5.166 5.053-5.166 2.77 0 5.053 2.333 5.053 5.166ZM18.884 26c-2.771 0-5.053 2.333-5.053 5.167 0 2.833 2.282 5.166 5.053 5.166 2.77 0 5.053-2.333 5.053-5.166 0-2.834-2.282-5.167-5.053-5.167Zm30.48-1c0 13.833-10.92 25-24.45 25C11.387 50 .465 38.833.465 25S11.387 0 24.915 0c13.53 0 24.45 11.167 24.45 25Zm-6.52 0c0-10.167-7.986-18.333-17.93-18.333-9.942 0-17.93 8.166-17.93 18.333 0 10.167 7.988 18.333 17.93 18.333 9.944 0 17.93-8.166 17.93-18.333Zm-11.898 1c-2.771 0-5.053 2.333-5.053 5.167 0 2.833 2.282 5.166 5.053 5.166 2.77 0 5.053-2.333 5.053-5.166 0-2.834-2.282-5.167-5.053-5.167Zm0-12.333c-2.771 0-5.053 2.333-5.053 5.166 0 2.834 2.282 5.167 5.053 5.167 2.77 0 5.053-2.333 5.053-5.167 0-2.833-2.282-5.166-5.053-5.166Zm84.108-3.834c.163 0 .326.167.489.334V15.5c0 .333-.326.5-.489.5h-8.639c-.326 0-.489-.333-.489-.5v-5.167c0-.333.326-.5.489-.5h8.639Zm-.163 7.5H98.265c-.163 0-.49.167-.49.5l-2.118 8.334-.163.5-2.608-8.834c0-.166-.326-.5-.49-.5h-6.52c-.162 0-.488.167-.488.5l-2.445 8.334-.163.5-.163-.5L81.639 22l-.978-4.167c0-.166-.326-.5-.49-.5h-13.04v-7.166c0-.167-.325-.5-.651-.334L58.33 12.5c-.326 0-.49.167-.49.5v4.5h-2.118c-.163 0-.49.167-.49.5v6.333c0 .167.164.5.49.5h2.119v7.834c0 5.5 2.934 8 8.313 8 2.282 0 4.4-.5 5.868-1.334v-6.666c0-.334-.326-.5-.49-.334-.814.334-1.63.5-2.281.5-1.467 0-2.282-.666-2.282-2.333v-5.667h4.727c.163 0 .489-.166.489-.5V19l6.194 21c0 .167.326.5.489.5h6.846c.163 0 .489-.167.489-.5l2.934-9.333 1.467 4.833 1.304 4.5c0 .167.326.5.489.5h6.846c.163 0 .489-.167.489-.5l6.194-21v21c0 .167.163.5.489.5h8.313c.163 0 .489-.167.489-.5V17.833c0-.166-.163-.5-.326-.5Zm10.921-7.5h-8.313c-.163 0-.489.167-.489.5v29.5c0 .167.163.5.489.5h8.313c.163 0 .489-.166.489-.5V10.167c0-.167-.163-.334-.489-.334Zm11.084 0h-8.639c-.163 0-.489.167-.489.5V15.5c0 .167.163.5.489.5h8.639c.163 0 .489-.167.489-.5v-5.333c0-.167-.163-.334-.489-.334Zm-.163 7.5h-8.313c-.163 0-.489.167-.489.5v21.834c0 .166.163.5.489.5h8.313c.163 0 .489-.167.489-.5V17.833c0-.166-.163-.5-.489-.5Zm26.243 11.334c0 6.333-5.216 11.833-12.551 11.833-7.172 0-12.388-5.5-12.388-11.833 0-6.334 5.216-11.834 12.551-11.834 7.172 0 12.388 5.5 12.388 11.834Zm-8.802.166c0-2.333-1.63-4.166-3.586-4-2.119 0-3.586 1.834-3.586 4 0 2.167 1.63 4 3.586 4 2.119 0 3.586-1.833 3.586-4Z" fill="#6A6A6A"/></g><path d="M66.573 85.454v1.332h-3.42V98h-1.638V86.786h-3.438v-1.332h8.496Zm15.156 2.682L78.651 98H76.96l-2.376-7.83L72.207 98h-1.692l-3.096-9.864h1.674l2.268 8.28 2.448-8.28h1.674l2.394 8.298 2.232-8.298h1.62Zm2.472-1.602c-.312 0-.576-.108-.792-.324a1.077 1.077 0 0 1-.324-.792c0-.312.108-.576.324-.792.216-.216.48-.324.792-.324.3 0 .552.108.756.324.216.216.324.48.324.792 0 .312-.108.576-.324.792a.998.998 0 0 1-.756.324Zm.792 1.602V98h-1.638v-9.864h1.638Zm4.43-3.456V98h-1.639V84.68h1.638Zm3.637 1.854c-.312 0-.576-.108-.792-.324a1.077 1.077 0 0 1-.324-.792c0-.312.108-.576.324-.792.216-.216.48-.324.792-.324.3 0 .552.108.756.324.216.216.324.48.324.792 0 .312-.108.576-.324.792a.998.998 0 0 1-.756.324Zm.792 1.602V98h-1.638v-9.864h1.638Zm7.094 10.026c-.924 0-1.764-.21-2.52-.63a4.58 4.58 0 0 1-1.764-1.782c-.42-.78-.63-1.68-.63-2.7 0-1.008.216-1.896.648-2.664a4.51 4.51 0 0 1 1.8-1.782c.756-.42 1.602-.63 2.538-.63.936 0 1.782.21 2.538.63.756.408 1.35.996 1.782 1.764.444.768.666 1.662.666 2.682s-.228 1.92-.684 2.7a4.634 4.634 0 0 1-1.818 1.782c-.768.42-1.62.63-2.556.63Zm0-1.44c.588 0 1.14-.138 1.656-.414.516-.276.93-.69 1.242-1.242.324-.552.486-1.224.486-2.016s-.156-1.464-.468-2.016c-.312-.552-.72-.96-1.224-1.224a3.356 3.356 0 0 0-1.638-.414c-.6 0-1.152.138-1.656.414-.492.264-.888.672-1.188 1.224-.3.552-.45 1.224-.45 2.016 0 .804.144 1.482.432 2.034.3.552.696.966 1.188 1.242a3.372 3.372 0 0 0 1.62.396Z" fill="#A0A0A0"/><defs><clipPath id="a"><path fill="#fff" transform="translate(.465)" d="M0 0h163v50H0z"/></clipPath></defs></svg>