<svg width="124" height="138" viewBox="0 0 124 138" fill="none" xmlns="http://www.w3.org/2000/svg">
<g clip-path="url(#clip0_13_9)">
<path d="M10.89 119.09C10.542 118.358 10.038 117.794 9.378 117.398C8.718 116.99 7.95 116.786 7.074 116.786C6.198 116.786 5.406 116.99 4.698 117.398C4.002 117.794 3.45 118.37 3.042 119.126C2.646 119.87 2.448 120.734 2.448 121.718C2.448 122.702 2.646 123.566 3.042 124.31C3.45 125.054 4.002 125.63 4.698 126.038C5.406 126.434 6.198 126.632 7.074 126.632C8.298 126.632 9.306 126.266 10.098 125.534C10.89 124.802 11.352 123.812 11.484 122.564H6.48V121.232H13.23V122.492C13.134 123.524 12.81 124.472 12.258 125.336C11.706 126.188 10.98 126.866 10.08 127.37C9.18 127.862 8.178 128.108 7.074 128.108C5.91 128.108 4.848 127.838 3.888 127.298C2.928 126.746 2.166 125.984 1.602 125.012C1.05 124.04 0.774 122.942 0.774 121.718C0.774 120.494 1.05 119.396 1.602 118.424C2.166 117.44 2.928 116.678 3.888 116.138C4.848 115.586 5.91 115.31 7.074 115.31C8.406 115.31 9.582 115.64 10.602 116.3C11.634 116.96 12.384 117.89 12.852 119.09H10.89ZM19.6978 128.162C18.7738 128.162 17.9338 127.952 17.1778 127.532C16.4338 127.112 15.8458 126.518 15.4138 125.75C14.9938 124.97 14.7838 124.07 14.7838 123.05C14.7838 122.042 14.9998 121.154 15.4318 120.386C15.8758 119.606 16.4758 119.012 17.2318 118.604C17.9878 118.184 18.8338 117.974 19.7698 117.974C20.7058 117.974 21.5518 118.184 22.3078 118.604C23.0638 119.012 23.6578 119.6 24.0898 120.368C24.5338 121.136 24.7558 122.03 24.7558 123.05C24.7558 124.07 24.5278 124.97 24.0718 125.75C23.6278 126.518 23.0218 127.112 22.2538 127.532C21.4858 127.952 20.6338 128.162 19.6978 128.162ZM19.6978 126.722C20.2858 126.722 20.8378 126.584 21.3538 126.308C21.8698 126.032 22.2838 125.618 22.5958 125.066C22.9198 124.514 23.0818 123.842 23.0818 123.05C23.0818 122.258 22.9258 121.586 22.6138 121.034C22.3018 120.482 21.8938 120.074 21.3898 119.81C20.8858 119.534 20.3398 119.396 19.7518 119.396C19.1518 119.396 18.5998 119.534 18.0958 119.81C17.6038 120.074 17.2078 120.482 16.9078 121.034C16.6078 121.586 16.4578 122.258 16.4578 123.05C16.4578 123.854 16.6018 124.532 16.8898 125.084C17.1898 125.636 17.5858 126.05 18.0778 126.326C18.5698 126.59 19.1098 126.722 19.6978 126.722ZM31.2114 128.162C30.2874 128.162 29.4474 127.952 28.6914 127.532C27.9474 127.112 27.3594 126.518 26.9274 125.75C26.5074 124.97 26.2974 124.07 26.2974 123.05C26.2974 122.042 26.5134 121.154 26.9454 120.386C27.3894 119.606 27.9894 119.012 28.7454 118.604C29.5014 118.184 30.3474 117.974 31.2834 117.974C32.2194 117.974 33.0654 118.184 33.8214 118.604C34.5774 119.012 35.1714 119.6 35.6034 120.368C36.0474 121.136 36.2694 122.03 36.2694 123.05C36.2694 124.07 36.0414 124.97 35.5854 125.75C35.1414 126.518 34.5354 127.112 33.7674 127.532C32.9994 127.952 32.1474 128.162 31.2114 128.162ZM31.2114 126.722C31.7994 126.722 32.3514 126.584 32.8674 126.308C33.3834 126.032 33.7974 125.618 34.1094 125.066C34.4334 124.514 34.5954 123.842 34.5954 123.05C34.5954 122.258 34.4394 121.586 34.1274 121.034C33.8154 120.482 33.4074 120.074 32.9034 119.81C32.3994 119.534 31.8534 119.396 31.2654 119.396C30.6654 119.396 30.1134 119.534 29.6094 119.81C29.1174 120.074 28.7214 120.482 28.4214 121.034C28.1214 121.586 27.9714 122.258 27.9714 123.05C27.9714 123.854 28.1154 124.532 28.4034 125.084C28.7034 125.636 29.0994 126.05 29.5914 126.326C30.0834 126.59 30.6234 126.722 31.2114 126.722ZM42.4911 117.974C43.3431 117.974 44.0871 118.16 44.7231 118.532C45.3711 118.904 45.8511 119.372 46.1631 119.936V118.136H47.8191V128.216C47.8191 129.116 47.6271 129.914 47.2431 130.61C46.8591 131.318 46.3071 131.87 45.5871 132.266C44.8791 132.662 44.0511 132.86 43.1031 132.86C41.8071 132.86 40.7271 132.554 39.8631 131.942C38.9991 131.33 38.4891 130.496 38.3331 129.44H39.9531C40.1331 130.04 40.5051 130.52 41.0691 130.88C41.6331 131.252 42.3111 131.438 43.1031 131.438C44.0031 131.438 44.7351 131.156 45.2991 130.592C45.8751 130.028 46.1631 129.236 46.1631 128.216V126.146C45.8391 126.722 45.3591 127.202 44.7231 127.586C44.0871 127.97 43.3431 128.162 42.4911 128.162C41.6151 128.162 40.8171 127.946 40.0971 127.514C39.3891 127.082 38.8311 126.476 38.4231 125.696C38.0151 124.916 37.8111 124.028 37.8111 123.032C37.8111 122.024 38.0151 121.142 38.4231 120.386C38.8311 119.618 39.3891 119.024 40.0971 118.604C40.8171 118.184 41.6151 117.974 42.4911 117.974ZM46.1631 123.05C46.1631 122.306 46.0131 121.658 45.7131 121.106C45.4131 120.554 45.0051 120.134 44.4891 119.846C43.9851 119.546 43.4271 119.396 42.8151 119.396C42.2031 119.396 41.6451 119.54 41.1411 119.828C40.6371 120.116 40.2351 120.536 39.9351 121.088C39.6351 121.64 39.4851 122.288 39.4851 123.032C39.4851 123.788 39.6351 124.448 39.9351 125.012C40.2351 125.564 40.6371 125.99 41.1411 126.29C41.6451 126.578 42.2031 126.722 42.8151 126.722C43.4271 126.722 43.9851 126.578 44.4891 126.29C45.0051 125.99 45.4131 125.564 45.7131 125.012C46.0131 124.448 46.1631 123.794 46.1631 123.05ZM52.2252 114.68V128H50.5872V114.68H52.2252ZM64.0169 122.69C64.0169 123.002 63.9989 123.332 63.9629 123.68H56.0789C56.1389 124.652 56.4689 125.414 57.0689 125.966C57.6809 126.506 58.4189 126.776 59.2829 126.776C59.9909 126.776 60.5789 126.614 61.0469 126.29C61.5269 125.954 61.8629 125.51 62.0549 124.958H63.8189C63.5549 125.906 63.0269 126.68 62.2349 127.28C61.4429 127.868 60.4589 128.162 59.2829 128.162C58.3469 128.162 57.5069 127.952 56.7629 127.532C56.0309 127.112 55.4549 126.518 55.0349 125.75C54.6149 124.97 54.4049 124.07 54.4049 123.05C54.4049 122.03 54.6089 121.136 55.0169 120.368C55.4249 119.6 55.9949 119.012 56.7269 118.604C57.4709 118.184 58.3229 117.974 59.2829 117.974C60.2189 117.974 61.0469 118.178 61.7669 118.586C62.4869 118.994 63.0389 119.558 63.4229 120.278C63.8189 120.986 64.0169 121.79 64.0169 122.69ZM62.3249 122.348C62.3249 121.724 62.1869 121.19 61.9109 120.746C61.6349 120.29 61.2569 119.948 60.7769 119.72C60.3089 119.48 59.7869 119.36 59.2109 119.36C58.3829 119.36 57.6749 119.624 57.0869 120.152C56.5109 120.68 56.1809 121.412 56.0969 122.348H62.3249ZM70.3658 121.718C70.3658 120.494 70.6418 119.396 71.1938 118.424C71.7458 117.44 72.4958 116.672 73.4438 116.12C74.4038 115.568 75.4658 115.292 76.6298 115.292C77.9978 115.292 79.1918 115.622 80.2118 116.282C81.2318 116.942 81.9758 117.878 82.4438 119.09H80.4818C80.1338 118.334 79.6298 117.752 78.9698 117.344C78.3218 116.936 77.5418 116.732 76.6298 116.732C75.7538 116.732 74.9678 116.936 74.2718 117.344C73.5758 117.752 73.0298 118.334 72.6338 119.09C72.2378 119.834 72.0398 120.71 72.0398 121.718C72.0398 122.714 72.2378 123.59 72.6338 124.346C73.0298 125.09 73.5758 125.666 74.2718 126.074C74.9678 126.482 75.7538 126.686 76.6298 126.686C77.5418 126.686 78.3218 126.488 78.9698 126.092C79.6298 125.684 80.1338 125.102 80.4818 124.346H82.4438C81.9758 125.546 81.2318 126.476 80.2118 127.136C79.1918 127.784 77.9978 128.108 76.6298 128.108C75.4658 128.108 74.4038 127.838 73.4438 127.298C72.4958 126.746 71.7458 125.984 71.1938 125.012C70.6418 124.04 70.3658 122.942 70.3658 121.718ZM86.5201 114.68V128H84.8821V114.68H86.5201ZM93.6138 128.162C92.6898 128.162 91.8498 127.952 91.0938 127.532C90.3498 127.112 89.7618 126.518 89.3298 125.75C88.9098 124.97 88.6998 124.07 88.6998 123.05C88.6998 122.042 88.9158 121.154 89.3478 120.386C89.7918 119.606 90.3918 119.012 91.1478 118.604C91.9038 118.184 92.7498 117.974 93.6858 117.974C94.6218 117.974 95.4678 118.184 96.2238 118.604C96.9798 119.012 97.5738 119.6 98.0058 120.368C98.4498 121.136 98.6718 122.03 98.6718 123.05C98.6718 124.07 98.4438 124.97 97.9878 125.75C97.5438 126.518 96.9378 127.112 96.1698 127.532C95.4018 127.952 94.5498 128.162 93.6138 128.162ZM93.6138 126.722C94.2018 126.722 94.7538 126.584 95.2698 126.308C95.7858 126.032 96.1998 125.618 96.5118 125.066C96.8358 124.514 96.9978 123.842 96.9978 123.05C96.9978 122.258 96.8418 121.586 96.5298 121.034C96.2178 120.482 95.8098 120.074 95.3058 119.81C94.8018 119.534 94.2558 119.396 93.6678 119.396C93.0678 119.396 92.5158 119.534 92.0118 119.81C91.5198 120.074 91.1238 120.482 90.8238 121.034C90.5238 121.586 90.3738 122.258 90.3738 123.05C90.3738 123.854 90.5178 124.532 90.8058 125.084C91.1058 125.636 91.5018 126.05 91.9938 126.326C92.4858 126.59 93.0258 126.722 93.6138 126.722ZM109.573 118.136V128H107.935V126.542C107.623 127.046 107.185 127.442 106.621 127.73C106.069 128.006 105.457 128.144 104.785 128.144C104.017 128.144 103.327 127.988 102.715 127.676C102.103 127.352 101.617 126.872 101.257 126.236C100.909 125.6 100.735 124.826 100.735 123.914V118.136H102.355V123.698C102.355 124.67 102.601 125.42 103.093 125.948C103.585 126.464 104.257 126.722 105.109 126.722C105.985 126.722 106.675 126.452 107.179 125.912C107.683 125.372 107.935 124.586 107.935 123.554V118.136H109.573ZM111.727 123.032C111.727 122.024 111.931 121.142 112.339 120.386C112.747 119.618 113.305 119.024 114.013 118.604C114.733 118.184 115.537 117.974 116.425 117.974C117.193 117.974 117.907 118.154 118.567 118.514C119.227 118.862 119.731 119.324 120.079 119.9V114.68H121.735V128H120.079V126.146C119.755 126.734 119.275 127.22 118.639 127.604C118.003 127.976 117.259 128.162 116.407 128.162C115.531 128.162 114.733 127.946 114.013 127.514C113.305 127.082 112.747 126.476 112.339 125.696C111.931 124.916 111.727 124.028 111.727 123.032ZM120.079 123.05C120.079 122.306 119.929 121.658 119.629 121.106C119.329 120.554 118.921 120.134 118.405 119.846C117.901 119.546 117.343 119.396 116.731 119.396C116.119 119.396 115.561 119.54 115.057 119.828C114.553 120.116 114.151 120.536 113.851 121.088C113.551 121.64 113.401 122.288 113.401 123.032C113.401 123.788 113.551 124.448 113.851 125.012C114.151 125.564 114.553 125.99 115.057 126.29C115.561 126.578 116.119 126.722 116.731 126.722C117.343 126.722 117.901 126.578 118.405 126.29C118.921 125.99 119.329 125.564 119.629 125.012C119.929 124.448 120.079 123.794 120.079 123.05Z" fill="#A0A0A0"/>
<g clip-path="url(#clip1_13_9)">
<path d="M76.5293 23.6826H79.825L89.2139 14.3923L89.6757 10.4504C72.2061 -4.8064 45.5377 -3.16246 30.1188 14.1235C25.8317 18.9255 22.7217 24.6367 21.0286 30.8183C22.0744 30.3927 23.2333 30.3255 24.3243 30.6212L43.0976 27.5573C43.0976 27.5573 44.0528 25.994 44.5463 26.0925C52.8985 17.0172 66.9548 15.9601 76.5972 23.6826H76.5293Z" fill="#A8A8A8"/>
<path d="M102.587 30.8183C100.427 22.9569 95.9998 15.8884 89.8386 10.4818L76.6651 23.5168C82.2288 28.0142 85.3976 34.7915 85.2618 41.9003V44.2162C91.7399 44.2162 96.9867 49.4123 96.9867 55.8178C96.9867 62.2278 91.7354 67.4194 85.2618 67.4194H61.8076L59.4672 69.7667V83.6841L61.8076 86H85.2618C98.7069 86.103 110.636 77.4802 114.628 64.7766C118.612 52.0685 113.723 38.272 102.587 30.8183Z" fill="#B7B7B7"/>
<path d="M38.3217 85.8701H61.7759V67.294H38.3217C36.6512 67.294 34.9989 66.9401 33.4778 66.2503L30.1822 67.2582L20.7299 76.5485L19.9059 79.8095C25.207 83.7692 31.6761 85.897 38.3217 85.8701Z" fill="#999999"/>
<path d="M38.3217 25.6043C25.293 25.6804 13.7538 33.9359 9.59802 46.1513C5.44226 58.3666 9.58444 71.8496 19.9105 79.7064L33.514 66.2458C27.6108 63.6075 24.9897 56.7361 27.6561 50.8949C30.3225 45.0538 37.2669 42.4602 43.1701 45.0986C45.7685 46.2632 47.8509 48.3238 49.028 50.8949L62.6315 37.4343C56.8415 29.9493 47.8464 25.5729 38.3217 25.6043Z" fill="#DCDCDC"/>
</g>
</g>
<defs>
<clipPath>
<rect width="124" height="138" fill="white"/>
</clipPath>
<clipPath id="clip1_13_9">
<rect width="108" height="86" fill="white" transform="translate(8)"/>
</clipPath>
</defs>
</svg>
