<svg width="182" height="105" viewBox="0 0 182 105" fill="none" xmlns="http://www.w3.org/2000/svg"><path d="M94.004 24.664c0 3.901-3.238 7.064-7.233 7.064-3.995 0-7.232-3.163-7.232-7.064 0-3.902 3.237-7.065 7.233-7.065 3.994 0 7.232 3.163 7.232 7.065Z" fill="#858585"/><path d="M108.309 14.773c0 3.901-3.238 7.065-7.232 7.065-3.995 0-7.233-3.164-7.233-7.065 0-3.901 3.238-7.065 7.233-7.065 3.994 0 7.232 3.164 7.232 7.065Z" fill="#848484"/><path d="M90.63 14.617c0 3.901-3.239 7.065-7.233 7.065-3.995 0-7.233-3.164-7.233-7.065 0-3.901 3.239-7.065 7.233-7.065 3.994 0 7.232 3.164 7.232 7.065Z" fill="#9A9A9A"/><path d="M105.095 24.664c0 3.901-3.238 7.064-7.234 7.064-3.994 0-7.232-3.163-7.232-7.064 0-3.902 3.238-7.065 7.232-7.065 3.996 0 7.234 3.163 7.234 7.065Z" fill="#878787"/><path d="M99.47 8.338c0 3.901-3.24 7.064-7.234 7.064-3.994 0-7.233-3.163-7.233-7.064 0-3.902 3.239-7.065 7.233-7.065 3.995 0 7.233 3.163 7.233 7.065Z" fill="#777"/><path d="M93.844 14.774c0 .149.014.294.023.44 3.208-.722 5.603-3.524 5.603-6.877 0-.148-.014-.294-.023-.441-3.208.723-5.603 3.525-5.603 6.878Z" fill="#555454"/><path d="M94.797 18.271a7.258 7.258 0 0 0 6.279 3.567 7.332 7.332 0 0 0 3.063-.672 7.255 7.255 0 0 0-6.279-3.567 7.335 7.335 0 0 0-3.063.672M90.629 24.665c0 1.726.635 3.306 1.688 4.532a6.937 6.937 0 0 0 1.687-4.532 6.937 6.937 0 0 0-1.687-4.532 6.932 6.932 0 0 0-1.688 4.532M80.532 21.103c.879.371 1.846.579 2.864.579a7.256 7.256 0 0 0 6.24-3.504 7.35 7.35 0 0 0-2.864-.578 7.256 7.256 0 0 0-6.24 3.503" fill="#6A6A6A"/><path d="M85.035 7.741a6.899 6.899 0 0 0-.031.596c0 3.35 2.39 6.15 5.595 6.876.016-.197.03-.395.03-.596 0-3.35-2.39-6.15-5.594-6.876Z" fill="#5F5F5F"/><path d="M85.712 23.79h-1.131c-1 0-1.812-.79-1.812-1.763V12.024c0-.973.813-1.764 1.812-1.764h14.187c1 0 1.811.79 1.811 1.764v10.003c0 .973-.812 1.764-1.81 1.764h-4.834l-9.697 4.643 1.474-4.643Z" fill="#fff"/><path d="M21.393 25.363 17.41 10.934l-4.034 14.43c-.313 1.093-.565 1.881-.756 2.363-.18.47-.498.897-.958 1.28-.46.372-1.07.558-1.832.558-.616 0-1.126-.114-1.53-.344a2.588 2.588 0 0 1-.957-.936 6.087 6.087 0 0 1-.605-1.46 89.237 89.237 0 0 1-.42-1.577L2.217 9.046c-.247-.941-.37-1.658-.37-2.15 0-.624.224-1.15.672-1.576.449-.427 1.003-.64 1.664-.64.908 0 1.518.284 1.832.853.314.57.588 1.396.824 2.479l3.227 14.052 3.613-13.149c.269-1.007.51-1.773.723-2.298.213-.525.56-.98 1.042-1.363s1.137-.574 1.966-.574c.84 0 1.49.202 1.95.607.47.394.795.827.974 1.297.18.47.42 1.248.723 2.331l3.647 13.149 3.227-14.052c.157-.733.303-1.308.437-1.724a2.88 2.88 0 0 1 .723-1.116c.347-.328.846-.492 1.496-.492s1.198.213 1.647.64c.459.416.689.941.689 1.576 0 .448-.123 1.165-.37 2.15l-4.1 16.202c-.28 1.095-.516 1.899-.707 2.413-.179.504-.493.947-.94 1.33-.438.383-1.06.575-1.866.575-.762 0-1.373-.187-1.832-.559-.46-.372-.779-.788-.958-1.247-.18-.47-.432-1.27-.756-2.397ZM47.862 21.554h-8.974c.011 1.018.218 1.915.622 2.692.414.777.958 1.362 1.63 1.756a4.43 4.43 0 0 0 2.252.591c.549 0 1.048-.06 1.496-.18.46-.132.902-.329 1.328-.591.425-.274.817-.564 1.176-.87.358-.307.823-.723 1.395-1.248.235-.197.571-.295 1.008-.295.47 0 .852.126 1.143.377.291.252.437.608.437 1.067 0 .405-.162.881-.487 1.428-.325.537-.818 1.056-1.48 1.56-.65.492-1.473.903-2.47 1.231-.986.328-2.123.492-3.412.492-2.946 0-5.238-.82-6.873-2.462-1.636-1.641-2.454-3.868-2.454-6.68 0-1.325.201-2.55.605-3.678.403-1.138.991-2.112 1.764-2.922.774-.81 1.726-1.428 2.858-1.855 1.131-.438 2.386-.657 3.764-.657 1.793 0 3.328.373 4.605 1.117 1.29.733 2.253 1.685 2.891 2.856.639 1.171.958 2.364.958 3.579 0 1.127-.33 1.86-.991 2.2-.661.328-1.591.492-2.79.492Zm-8.974-2.544h8.319c-.112-1.533-.538-2.676-1.277-3.431-.729-.766-1.692-1.15-2.891-1.15-1.143 0-2.084.39-2.824 1.166-.728.766-1.17 1.904-1.327 3.414ZM59.257 7.242v6.846c.863-.876 1.742-1.543 2.639-2.003.896-.47 2.006-.706 3.328-.706 1.523 0 2.857.356 4 1.067 1.154.7 2.045 1.724 2.672 3.07.639 1.335.958 2.922.958 4.76 0 1.357-.18 2.605-.538 3.743-.347 1.127-.857 2.107-1.53 2.938a6.981 6.981 0 0 1-2.453 1.937c-.952.449-2.006.673-3.16.673a7.873 7.873 0 0 1-2-.246c-.616-.164-1.142-.377-1.58-.64a7.96 7.96 0 0 1-1.125-.837 20.682 20.682 0 0 1-1.21-1.28v.442c0 .843-.208 1.483-.622 1.921-.415.427-.942.64-1.58.64-.65 0-1.171-.213-1.563-.64-.381-.438-.572-1.078-.572-1.92V7.438c0-.908.185-1.592.555-2.051.38-.471.908-.706 1.58-.706.706 0 1.25.224 1.63.673.381.437.572 1.067.572 1.887Zm.219 13.313c0 1.784.414 3.157 1.243 4.12.84.953 1.939 1.429 3.295 1.429 1.154 0 2.145-.487 2.974-1.461.84-.985 1.26-2.391 1.26-4.219 0-1.182-.173-2.2-.52-3.053-.348-.854-.84-1.51-1.48-1.97-.638-.47-1.383-.706-2.235-.706-.874 0-1.652.235-2.336.706-.683.46-1.22 1.133-1.613 2.019-.392.875-.588 1.92-.588 3.135ZM119.064 18.332h-1.838v8.132c0 1.07-.242 1.859-.725 2.365-.483.506-1.114.76-1.891.76-.837 0-1.485-.265-1.945-.794-.459-.53-.689-1.307-.689-2.331V6.99c0-1.105.253-1.905.76-2.4.507-.495 1.326-.742 2.457-.742h8.538c1.178 0 2.185.051 3.022.155a7.552 7.552 0 0 1 2.262.587 6.558 6.558 0 0 1 2.157 1.433 6.142 6.142 0 0 1 1.414 2.175c.33.817.495 1.686.495 2.607 0 1.888-.548 3.396-1.644 4.523-1.084 1.128-2.734 1.928-4.949 2.4.931.484 1.82 1.197 2.669 2.14.848.945 1.603 1.952 2.262 3.022.672 1.059 1.191 2.02 1.556 2.883.377.852.566 1.439.566 1.761 0 .334-.112.668-.336 1.001a2.173 2.173 0 0 1-.884.76c-.377.196-.813.293-1.308.293-.589 0-1.084-.138-1.485-.414a3.959 3.959 0 0 1-1.043-1.018 48.615 48.615 0 0 1-1.166-1.83l-2.104-3.419c-.754-1.254-1.431-2.21-2.032-2.866-.59-.656-1.191-1.105-1.803-1.346-.613-.242-1.385-.363-2.316-.363Zm3.005-10.634h-4.843v6.957h4.701c1.261 0 2.322-.103 3.182-.31.86-.22 1.514-.582 1.962-1.088.46-.518.69-1.226.69-2.124 0-.702-.183-1.317-.548-1.847-.366-.54-.872-.944-1.521-1.208-.612-.254-1.82-.38-3.623-.38ZM153.126 8.077h-5.727v18.387c0 1.059-.242 1.847-.725 2.365-.483.506-1.108.76-1.874.76-.777 0-1.414-.26-1.909-.777-.483-.518-.724-1.3-.724-2.348V8.077h-5.727c-.896 0-1.561-.19-1.997-.57-.436-.39-.654-.903-.654-1.536 0-.656.223-1.174.671-1.554.46-.38 1.12-.57 1.98-.57h16.686c.907 0 1.579.196 2.015.588.448.391.672.903.672 1.536s-.224 1.145-.672 1.537c-.448.38-1.119.57-2.015.57ZM180.083 21.163c0 .806-.207 1.68-.619 2.625-.401.932-1.037 1.853-1.909 2.762-.872.898-1.986 1.629-3.341 2.193-1.355.564-2.934.846-4.737.846-1.367 0-2.61-.127-3.729-.38a10.896 10.896 0 0 1-3.058-1.174c-.908-.541-1.744-1.249-2.51-2.124a12.597 12.597 0 0 1-1.75-2.658 14.143 14.143 0 0 1-1.096-3.16 17.17 17.17 0 0 1-.354-3.556c0-2.037.301-3.861.902-5.473.613-1.611 1.485-2.987 2.616-4.126a11.332 11.332 0 0 1 3.977-2.624c1.52-.599 3.141-.898 4.861-.898 2.098 0 3.965.409 5.603 1.226s2.893 1.83 3.765 3.038c.872 1.197 1.308 2.331 1.308 3.402 0 .586-.212 1.104-.636 1.553-.424.45-.937.674-1.538.674-.671 0-1.178-.156-1.52-.467-.33-.31-.701-.846-1.113-1.605-.684-1.255-1.491-2.193-2.422-2.814-.919-.622-2.056-.932-3.411-.932-2.157 0-3.877.8-5.162 2.4-1.272 1.6-1.909 3.873-1.909 6.819 0 1.968.283 3.608.849 4.92.565 1.3 1.367 2.273 2.404 2.918 1.037.644 2.25.967 3.641.967 1.508 0 2.781-.363 3.818-1.088 1.048-.737 1.838-1.813 2.368-3.228.224-.668.501-1.209.831-1.623.33-.426.86-.639 1.591-.639a2.25 2.25 0 0 1 1.608.639c.448.426.672.955.672 1.588Z" fill="#6A6A6A"/><path d="M70.619 82.454 66.983 95h-1.836L62.23 84.902 59.207 95l-1.818.018-3.51-12.564h1.746l2.736 10.638 3.024-10.638h1.836l2.88 10.602 2.754-10.602h1.764ZM81.41 89.69c0 .312-.018.642-.054.99h-7.884c.06.972.39 1.734.99 2.286.612.54 1.35.81 2.214.81.708 0 1.296-.162 1.764-.486.48-.336.816-.78 1.008-1.332h1.764a4.284 4.284 0 0 1-1.584 2.322c-.792.588-1.776.882-2.952.882-.936 0-1.776-.21-2.52-.63a4.492 4.492 0 0 1-1.728-1.782c-.42-.78-.63-1.68-.63-2.7 0-1.02.204-1.914.612-2.682a4.254 4.254 0 0 1 1.71-1.764c.744-.42 1.596-.63 2.556-.63.936 0 1.764.204 2.484.612.72.408 1.272.972 1.656 1.692.396.708.594 1.512.594 2.412Zm-1.692-.342c0-.624-.138-1.158-.414-1.602a2.605 2.605 0 0 0-1.134-1.026c-.468-.24-.99-.36-1.566-.36-.828 0-1.536.264-2.124.792-.576.528-.906 1.26-.99 2.196h6.228Zm5.493-2.376c.335-.588.828-1.068 1.475-1.44.648-.372 1.386-.558 2.215-.558.888 0 1.686.21 2.394.63a4.446 4.446 0 0 1 1.673 1.782c.409.756.613 1.638.613 2.646 0 .996-.204 1.884-.612 2.664a4.504 4.504 0 0 1-1.692 1.818c-.709.432-1.5.648-2.377.648-.852 0-1.602-.186-2.25-.558-.635-.372-1.115-.846-1.44-1.422V95h-1.638V81.68h1.639v5.292Zm6.695 3.06c0-.744-.15-1.392-.45-1.944a3.098 3.098 0 0 0-1.223-1.26 3.314 3.314 0 0 0-1.674-.432c-.6 0-1.159.15-1.675.45-.504.288-.912.714-1.224 1.278-.3.552-.45 1.194-.45 1.926 0 .744.15 1.398.45 1.962.313.552.72.978 1.224 1.278a3.379 3.379 0 0 0 1.674.432c.612 0 1.17-.144 1.675-.432.516-.3.924-.726 1.224-1.278.3-.564.45-1.224.45-1.98ZM102.344 95l-2.988-5.13h-1.98V95h-1.638V82.454h4.05c.948 0 1.746.162 2.394.486.66.324 1.152.762 1.476 1.314.324.552.486 1.182.486 1.89 0 .864-.252 1.626-.756 2.286-.492.66-1.236 1.098-2.232 1.314l3.15 5.256h-1.962Zm-4.968-6.444h2.412c.888 0 1.554-.216 1.998-.648.444-.444.666-1.032.666-1.764 0-.744-.222-1.32-.666-1.728-.432-.408-1.098-.612-1.998-.612h-2.412v4.752Zm17.035-6.102v1.332h-3.42V95h-1.638V83.786h-3.438v-1.332h8.496Zm1.404 6.264c0-1.224.276-2.322.828-3.294a6.017 6.017 0 0 1 2.25-2.304c.96-.552 2.022-.828 3.186-.828 1.368 0 2.562.33 3.582.99 1.02.66 1.764 1.596 2.232 2.808h-1.962c-.348-.756-.852-1.338-1.512-1.746-.648-.408-1.428-.612-2.34-.612-.876 0-1.662.204-2.358.612-.696.408-1.242.99-1.638 1.746-.396.744-.594 1.62-.594 2.628 0 .996.198 1.872.594 2.628.396.744.942 1.32 1.638 1.728.696.408 1.482.612 2.358.612.912 0 1.692-.198 2.34-.594.66-.408 1.164-.99 1.512-1.746h1.962c-.468 1.2-1.212 2.13-2.232 2.79-1.02.648-2.214.972-3.582.972-1.164 0-2.226-.27-3.186-.81a6.053 6.053 0 0 1-2.25-2.286c-.552-.972-.828-2.07-.828-3.294Z" fill="#A0A0A0"/></svg>