<svg width="104" height="138" viewBox="0 0 104 138" fill="none" xmlns="http://www.w3.org/2000/svg">
<g>
<path d="M0.774 121.718C0.774 120.494 1.05 119.396 1.602 118.424C2.154 117.44 2.904 116.672 3.852 116.12C4.812 115.568 5.874 115.292 7.038 115.292C8.406 115.292 9.6 115.622 10.62 116.282C11.64 116.942 12.384 117.878 12.852 119.09H10.89C10.542 118.334 10.038 117.752 9.378 117.344C8.73 116.936 7.95 116.732 7.038 116.732C6.162 116.732 5.376 116.936 4.68 117.344C3.984 117.752 3.438 118.334 3.042 119.09C2.646 119.834 2.448 120.71 2.448 121.718C2.448 122.714 2.646 123.59 3.042 124.346C3.438 125.09 3.984 125.666 4.68 126.074C5.376 126.482 6.162 126.686 7.038 126.686C7.95 126.686 8.73 126.488 9.378 126.092C10.038 125.684 10.542 125.102 10.89 124.346H12.852C12.384 125.546 11.64 126.476 10.62 127.136C9.6 127.784 8.406 128.108 7.038 128.108C5.874 128.108 4.812 127.838 3.852 127.298C2.904 126.746 2.154 125.984 1.602 125.012C1.05 124.04 0.774 122.942 0.774 121.718ZM19.5923 128.162C18.6683 128.162 17.8283 127.952 17.0723 127.532C16.3283 127.112 15.7403 126.518 15.3083 125.75C14.8883 124.97 14.6783 124.07 14.6783 123.05C14.6783 122.042 14.8943 121.154 15.3263 120.386C15.7703 119.606 16.3703 119.012 17.1263 118.604C17.8823 118.184 18.7283 117.974 19.6643 117.974C20.6003 117.974 21.4463 118.184 22.2023 118.604C22.9583 119.012 23.5523 119.6 23.9843 120.368C24.4283 121.136 24.6503 122.03 24.6503 123.05C24.6503 124.07 24.4223 124.97 23.9663 125.75C23.5223 126.518 22.9163 127.112 22.1483 127.532C21.3803 127.952 20.5283 128.162 19.5923 128.162ZM19.5923 126.722C20.1803 126.722 20.7323 126.584 21.2483 126.308C21.7643 126.032 22.1783 125.618 22.4903 125.066C22.8143 124.514 22.9763 123.842 22.9763 123.05C22.9763 122.258 22.8203 121.586 22.5083 121.034C22.1963 120.482 21.7883 120.074 21.2843 119.81C20.7803 119.534 20.2343 119.396 19.6463 119.396C19.0463 119.396 18.4943 119.534 17.9903 119.81C17.4983 120.074 17.1023 120.482 16.8023 121.034C16.5023 121.586 16.3523 122.258 16.3523 123.05C16.3523 123.854 16.4963 124.532 16.7843 125.084C17.0843 125.636 17.4803 126.05 17.9723 126.326C18.4643 126.59 19.0043 126.722 19.5923 126.722ZM31.61 117.956C32.81 117.956 33.782 118.322 34.526 119.054C35.27 119.774 35.642 120.818 35.642 122.186V128H34.022V122.42C34.022 121.436 33.776 120.686 33.284 120.17C32.792 119.642 32.12 119.378 31.268 119.378C30.404 119.378 29.714 119.648 29.198 120.188C28.694 120.728 28.442 121.514 28.442 122.546V128H26.804V118.136H28.442V119.54C28.766 119.036 29.204 118.646 29.756 118.37C30.32 118.094 30.938 117.956 31.61 117.956ZM42.3316 119.486H40.2616V128H38.6236V119.486H37.3456V118.136H38.6236V117.434C38.6236 116.33 38.9056 115.526 39.4696 115.022C40.0456 114.506 40.9636 114.248 42.2236 114.248V115.616C41.5036 115.616 40.9936 115.76 40.6936 116.048C40.4056 116.324 40.2616 116.786 40.2616 117.434V118.136H42.3316V119.486ZM45.8795 114.68V128H44.2415V114.68H45.8795ZM57.4192 118.136V128H55.7812V126.542C55.4692 127.046 55.0312 127.442 54.4672 127.73C53.9152 128.006 53.3032 128.144 52.6312 128.144C51.8632 128.144 51.1732 127.988 50.5612 127.676C49.9492 127.352 49.4632 126.872 49.1032 126.236C48.7552 125.6 48.5812 124.826 48.5812 123.914V118.136H50.2012V123.698C50.2012 124.67 50.4472 125.42 50.9392 125.948C51.4312 126.464 52.1032 126.722 52.9552 126.722C53.8312 126.722 54.5212 126.452 55.0252 125.912C55.5292 125.372 55.7812 124.586 55.7812 123.554V118.136H57.4192ZM69.1848 122.69C69.1848 123.002 69.1668 123.332 69.1308 123.68H61.2468C61.3068 124.652 61.6368 125.414 62.2368 125.966C62.8488 126.506 63.5868 126.776 64.4508 126.776C65.1588 126.776 65.7468 126.614 66.2148 126.29C66.6948 125.954 67.0308 125.51 67.2228 124.958H68.9868C68.7228 125.906 68.1948 126.68 67.4028 127.28C66.6108 127.868 65.6268 128.162 64.4508 128.162C63.5148 128.162 62.6748 127.952 61.9308 127.532C61.1988 127.112 60.6228 126.518 60.2028 125.75C59.7828 124.97 59.5728 124.07 59.5728 123.05C59.5728 122.03 59.7768 121.136 60.1848 120.368C60.5928 119.6 61.1628 119.012 61.8948 118.604C62.6388 118.184 63.4908 117.974 64.4508 117.974C65.3868 117.974 66.2148 118.178 66.9348 118.586C67.6548 118.994 68.2068 119.558 68.5908 120.278C68.9868 120.986 69.1848 121.79 69.1848 122.69ZM67.4928 122.348C67.4928 121.724 67.3548 121.19 67.0788 120.746C66.8028 120.29 66.4248 119.948 65.9448 119.72C65.4768 119.48 64.9548 119.36 64.3788 119.36C63.5508 119.36 62.8428 119.624 62.2548 120.152C61.6788 120.68 61.3488 121.412 61.2648 122.348H67.4928ZM76.1529 117.956C77.3529 117.956 78.3249 118.322 79.0689 119.054C79.8129 119.774 80.1849 120.818 80.1849 122.186V128H78.5649V122.42C78.5649 121.436 78.3189 120.686 77.8269 120.17C77.3349 119.642 76.6629 119.378 75.8109 119.378C74.9469 119.378 74.2569 119.648 73.7409 120.188C73.2369 120.728 72.9849 121.514 72.9849 122.546V128H71.3469V118.136H72.9849V119.54C73.3089 119.036 73.7469 118.646 74.2989 118.37C74.8629 118.094 75.4809 117.956 76.1529 117.956ZM82.2486 123.05C82.2486 122.03 82.4526 121.142 82.8606 120.386C83.2686 119.618 83.8326 119.024 84.5526 118.604C85.2846 118.184 86.1186 117.974 87.0546 117.974C88.2666 117.974 89.2626 118.268 90.0426 118.856C90.8346 119.444 91.3566 120.26 91.6086 121.304H89.8446C89.6766 120.704 89.3466 120.23 88.8546 119.882C88.3746 119.534 87.7746 119.36 87.0546 119.36C86.1186 119.36 85.3626 119.684 84.7866 120.332C84.2106 120.968 83.9226 121.874 83.9226 123.05C83.9226 124.238 84.2106 125.156 84.7866 125.804C85.3626 126.452 86.1186 126.776 87.0546 126.776C87.7746 126.776 88.3746 126.608 88.8546 126.272C89.3346 125.936 89.6646 125.456 89.8446 124.832H91.6086C91.3446 125.84 90.8166 126.65 90.0246 127.262C89.2326 127.862 88.2426 128.162 87.0546 128.162C86.1186 128.162 85.2846 127.952 84.5526 127.532C83.8326 127.112 83.2686 126.518 82.8606 125.75C82.4526 124.982 82.2486 124.082 82.2486 123.05ZM102.794 122.69C102.794 123.002 102.776 123.332 102.74 123.68H94.8562C94.9162 124.652 95.2462 125.414 95.8462 125.966C96.4582 126.506 97.1962 126.776 98.0602 126.776C98.7682 126.776 99.3562 126.614 99.8242 126.29C100.304 125.954 100.64 125.51 100.832 124.958H102.596C102.332 125.906 101.804 126.68 101.012 127.28C100.22 127.868 99.2362 128.162 98.0602 128.162C97.1242 128.162 96.2842 127.952 95.5402 127.532C94.8082 127.112 94.2322 126.518 93.8122 125.75C93.3922 124.97 93.1822 124.07 93.1822 123.05C93.1822 122.03 93.3862 121.136 93.7942 120.368C94.2022 119.6 94.7722 119.012 95.5042 118.604C96.2482 118.184 97.1002 117.974 98.0602 117.974C98.9962 117.974 99.8242 118.178 100.544 118.586C101.264 118.994 101.816 119.558 102.2 120.278C102.596 120.986 102.794 121.79 102.794 122.69ZM101.102 122.348C101.102 121.724 100.964 121.19 100.688 120.746C100.412 120.29 100.034 119.948 99.5542 119.72C99.0862 119.48 98.5642 119.36 97.9882 119.36C97.1602 119.36 96.4522 119.624 95.8642 120.152C95.2882 120.68 94.9582 121.412 94.8742 122.348H101.102Z" fill="#A0A0A0"/>
<g>
<path d="M10.2284 65.6515C9.30096 67.1551 8.25056 68.9175 7.42148 70.3127C7.2388 70.6239 7.12287 70.9701 7.07018 71.3268C7.02015 71.6849 7.03923 72.0492 7.12638 72.4003C7.2107 72.7534 7.36527 73.0821 7.57605 73.3759C7.78684 73.6696 8.05383 73.9214 8.35946 74.1172L26.9892 85.5482C27.3089 85.7475 27.6707 85.8804 28.0466 85.9398C28.419 85.9993 28.8054 85.9853 29.1743 85.8944C29.5432 85.8035 29.8909 85.6426 30.1966 85.4188C30.5022 85.195 30.7587 84.9118 30.9519 84.5866C31.7037 83.3417 32.6557 81.7297 33.678 80.0093C41.0624 67.9559 48.5452 69.4315 61.9124 75.7572L80.391 84.4782C80.737 84.6434 81.1128 84.7375 81.4961 84.7549C81.8793 84.7723 82.2622 84.7127 82.6218 84.5796C82.9801 84.4467 83.3104 84.2439 83.5879 83.9816C83.8689 83.7194 84.0903 83.4047 84.2449 83.055L93.1153 63.1478C93.2664 62.8121 93.3507 62.4519 93.3612 62.0847C93.3753 61.7211 93.3155 61.3539 93.1891 61.0112C93.0626 60.6686 92.8729 60.3503 92.627 60.0776C92.3811 59.8048 92.086 59.5845 91.7522 59.4202C87.8563 57.5949 80.103 54.0037 73.1541 50.6188C47.8778 38.4814 26.55 39.2822 10.2284 65.6515Z" fill="#C4C4C4"/>
<path d="M93.7569 20.4011C94.6949 18.8974 95.7453 17.1386 96.5638 15.7433C96.75 15.4251 96.873 15.072 96.9257 14.7048C96.9784 14.3411 96.9573 13.967 96.8659 13.6103C96.7726 13.2528 96.6103 12.9167 96.3882 12.6207C96.1664 12.3239 95.8883 12.0732 95.5696 11.8829L76.968 0.451896C76.6448 0.25258 76.2865 0.119702 75.9106 0.0602563C75.5347 0.000810916 75.1518 0.0182949 74.7829 0.105715C74.414 0.196631 74.0662 0.357483 73.7606 0.581278C73.455 0.805072 73.1985 1.08831 73.0018 1.41351C72.2676 2.65837 71.298 4.27039 70.2757 5.99081C62.8631 18.1002 55.4506 16.6245 42.0694 10.2988L23.6083 1.57437C23.264 1.41002 22.8917 1.31211 22.5122 1.29113C22.1328 1.26665 21.7499 1.3226 21.3916 1.44848C21.0333 1.57436 20.703 1.77018 20.422 2.02545C20.1374 2.28072 19.9126 2.58843 19.751 2.93112L10.8805 22.8943C10.5757 23.5714 10.5467 24.3399 10.7997 25.0378C10.9262 25.384 11.1194 25.7022 11.3653 25.9749C11.6113 26.2477 11.9099 26.4715 12.2436 26.6323C16.1536 28.4612 23.9069 32.0489 30.8417 35.4372C56.0513 47.5711 77.4458 46.7738 93.7569 20.4011Z" fill="#C4C4C4"/>
</g>
</g>
<defs>
<clipPath>
<rect width="104" height="138" fill="white"/>
</clipPath>
<clipPath>
<rect width="90" height="86" fill="white" transform="translate(7)"/>
</clipPath>
</defs>
</svg>
