<svg width="137" height="106" viewBox="0 0 137 106" fill="none" xmlns="http://www.w3.org/2000/svg"><path d="m52.58 96-5.165-5.724V96h-1.638V83.454h1.638v5.814l5.184-5.814h2.07l-5.688 6.282L54.723 96H52.58Zm8.274.162c-.924 0-1.764-.21-2.52-.63a4.58 4.58 0 0 1-1.764-1.782c-.42-.78-.63-1.68-.63-2.7 0-1.008.216-1.896.648-2.664a4.51 4.51 0 0 1 1.8-1.782c.756-.42 1.602-.63 2.538-.63.936 0 1.782.21 2.538.63.756.408 1.35.996 1.782 1.764.444.768.666 1.662.666 2.682s-.228 1.92-.684 2.7a4.634 4.634 0 0 1-1.818 1.782c-.768.42-1.62.63-2.556.63Zm0-1.44c.588 0 1.14-.138 1.656-.414.516-.276.93-.69 1.242-1.242.324-.552.486-1.224.486-2.016s-.156-1.464-.468-2.016c-.312-.552-.72-.96-1.224-1.224a3.356 3.356 0 0 0-1.638-.414c-.6 0-1.152.138-1.656.414-.492.264-.888.672-1.188 1.224-.3.552-.45 1.224-.45 2.016 0 .804.144 1.482.432 2.034.3.552.696.966 1.188 1.242a3.372 3.372 0 0 0 1.62.396Zm9.21-7.236V93.3c0 .48.102.822.306 1.026.204.192.558.288 1.062.288h1.206V96h-1.476c-.912 0-1.596-.21-2.052-.63-.456-.42-.684-1.11-.684-2.07v-5.814h-1.278v-1.35h1.278v-2.484h1.638v2.484h2.574v1.35h-2.574Zm6.196-4.806V96h-1.638V82.68h1.638Zm3.638 1.854c-.312 0-.576-.108-.792-.324a1.077 1.077 0 0 1-.324-.792c0-.312.108-.576.324-.792.216-.216.48-.324.792-.324.3 0 .552.108.756.324.216.216.324.48.324.792 0 .312-.108.576-.324.792a.998.998 0 0 1-.756.324Zm.792 1.602V96h-1.638v-9.864h1.638Zm7.598-.18c1.2 0 2.172.366 2.916 1.098.744.72 1.116 1.764 1.116 3.132V96H90.7v-5.58c0-.984-.246-1.734-.738-2.25-.492-.528-1.164-.792-2.016-.792-.864 0-1.554.27-2.07.81-.504.54-.756 1.326-.756 2.358V96h-1.638v-9.864h1.638v1.404a3.266 3.266 0 0 1 1.314-1.17 4.16 4.16 0 0 1 1.854-.414Z" fill="#A0A0A0"/><path d="M38.012 15.213h6.318v12.372l11.653-12.372h7.632L51.92 27.221l12.227 16.294h-7.59l-8.904-12.048-3.324 3.396v8.652h-6.318V15.212v.001Z" fill="#6A6A6A"/><path d="M60.79 32.8v-.08c0-6.226 5.087-11.28 11.939-11.28 6.811 0 11.858 4.972 11.858 11.199v.08c0 6.227-5.088 11.28-11.94 11.28-6.811 0-11.858-4.972-11.858-11.199Zm17.642 0v-.08c0-3.194-2.338-5.984-5.785-5.984-3.57 0-5.703 2.709-5.703 5.903v.081c0 3.194 2.338 5.984 5.785 5.984 3.57 0 5.703-2.71 5.703-5.903Z" fill="#6A6A6A"/><path d="M86.31 37.37V27.1h-2.626v-5.256h2.626v-5.54h6.236v5.54h5.17V27.1h-5.17v9.259c0 1.415.615 2.102 2.01 2.102a6.413 6.413 0 0 0 3.078-.768v4.933c-1.313.768-2.831 1.253-4.924 1.253-3.816 0-6.4-1.496-6.4-6.51ZM99.508 14h6.236v29.514h-6.236V14Zm8.488 0h6.565v5.458h-6.565V14Zm.164 7.844h6.237v21.67h-6.237v-21.67Zm8.61 0h6.236v3.072c1.436-1.819 3.283-3.477 6.442-3.477 4.719 0 7.468 3.073 7.468 8.046v14.03h-6.237v-12.09c0-2.91-1.395-4.406-3.775-4.406s-3.898 1.496-3.898 4.407v12.089h-6.236V21.844Z" fill="#6A6A6A"/><path d="M14.464 15.199.047 30.139v13.356l14.397-14.21 14.32-14.086h-14.3Z" fill="url(#a)"/><path d="m.047 43.495 14.397-14.21 14.32 14.21H.047Z" fill="url(#b)"/><path d="M.047 15.199h14.418L.047 30.139V15.2Z" fill="url(#c)"/><defs><linearGradient id="a" x1="-3.208" y1="39.658" x2="19.479" y2="16.635" gradientUnits="userSpaceOnUse"><stop stop-color="#3E3E3E"/><stop offset="1" stop-color="#949494"/></linearGradient><linearGradient id="b" x1="10.175" y1="47.653" x2="22.127" y2="35.523" gradientUnits="userSpaceOnUse"><stop stop-color="#575757"/><stop offset="1" stop-color="#9D9D9D"/></linearGradient><linearGradient id="c" x1="-1.27" y1="23.967" x2="9.176" y2="13.366" gradientUnits="userSpaceOnUse"><stop stop-color="gray"/><stop offset="1" stop-color="#727272"/></linearGradient></defs></svg>