<svg width="85" height="137" viewBox="0 0 85 137" fill="none" xmlns="http://www.w3.org/2000/svg">
  <g clip-path="url(#clip0_7502_64181)">
    <path d="M5.864 127.126C5.036 127.126 4.292 126.982 3.632 126.694C2.984 126.394 2.474 125.986 2.102 125.47C1.73 124.942 1.538 124.336 1.526 123.652H3.272C3.332 124.24 3.572 124.738 3.992 125.146C4.424 125.542 5.048 125.74 5.864 125.74C6.644 125.74 7.256 125.548 7.7 125.164C8.156 124.768 8.384 124.264 8.384 123.652C8.384 123.172 8.252 122.782 7.988 122.482C7.724 122.182 7.394 121.954 6.998 121.798C6.602 121.642 6.068 121.474 5.396 121.294C4.568 121.078 3.902 120.862 3.398 120.646C2.906 120.43 2.48 120.094 2.12 119.638C1.772 119.17 1.598 118.546 1.598 117.766C1.598 117.082 1.772 116.476 2.12 115.948C2.468 115.42 2.954 115.012 3.578 114.724C4.214 114.436 4.94 114.292 5.756 114.292C6.932 114.292 7.892 114.586 8.636 115.174C9.392 115.762 9.818 116.542 9.914 117.514H8.114C8.054 117.034 7.802 116.614 7.358 116.254C6.914 115.882 6.326 115.696 5.594 115.696C4.91 115.696 4.352 115.876 3.92 116.236C3.488 116.584 3.272 117.076 3.272 117.712C3.272 118.168 3.398 118.54 3.65 118.828C3.914 119.116 4.232 119.338 4.604 119.494C4.988 119.638 5.522 119.806 6.206 119.998C7.034 120.226 7.7 120.454 8.204 120.682C8.708 120.898 9.14 121.24 9.5 121.708C9.86 122.164 10.04 122.788 10.04 123.58C10.04 124.192 9.878 124.768 9.554 125.308C9.23 125.848 8.75 126.286 8.114 126.622C7.478 126.958 6.728 127.126 5.864 127.126ZM21.4505 121.69C21.4505 122.002 21.4325 122.332 21.3965 122.68H13.5125C13.5725 123.652 13.9025 124.414 14.5025 124.966C15.1145 125.506 15.8525 125.776 16.7165 125.776C17.4245 125.776 18.0125 125.614 18.4805 125.29C18.9605 124.954 19.2965 124.51 19.4885 123.958H21.2525C20.9885 124.906 20.4605 125.68 19.6685 126.28C18.8765 126.868 17.8925 127.162 16.7165 127.162C15.7805 127.162 14.9405 126.952 14.1965 126.532C13.4645 126.112 12.8885 125.518 12.4685 124.75C12.0485 123.97 11.8385 123.07 11.8385 122.05C11.8385 121.03 12.0425 120.136 12.4505 119.368C12.8585 118.6 13.4285 118.012 14.1605 117.604C14.9045 117.184 15.7565 116.974 16.7165 116.974C17.6525 116.974 18.4805 117.178 19.2005 117.586C19.9205 117.994 20.4725 118.558 20.8565 119.278C21.2525 119.986 21.4505 120.79 21.4505 121.69ZM19.7585 121.348C19.7585 120.724 19.6205 120.19 19.3445 119.746C19.0685 119.29 18.6905 118.948 18.2105 118.72C17.7425 118.48 17.2205 118.36 16.6445 118.36C15.8165 118.36 15.1085 118.624 14.5205 119.152C13.9445 119.68 13.6145 120.412 13.5305 121.348H19.7585ZM25.2506 113.68V127H23.6126V113.68H25.2506ZM37.0423 121.69C37.0423 122.002 37.0243 122.332 36.9883 122.68H29.1043C29.1643 123.652 29.4943 124.414 30.0943 124.966C30.7063 125.506 31.4443 125.776 32.3083 125.776C33.0163 125.776 33.6043 125.614 34.0723 125.29C34.5523 124.954 34.8883 124.51 35.0803 123.958H36.8443C36.5803 124.906 36.0523 125.68 35.2603 126.28C34.4683 126.868 33.4843 127.162 32.3083 127.162C31.3723 127.162 30.5323 126.952 29.7883 126.532C29.0563 126.112 28.4803 125.518 28.0603 124.75C27.6403 123.97 27.4303 123.07 27.4303 122.05C27.4303 121.03 27.6343 120.136 28.0423 119.368C28.4503 118.6 29.0203 118.012 29.7523 117.604C30.4963 117.184 31.3483 116.974 32.3083 116.974C33.2443 116.974 34.0723 117.178 34.7923 117.586C35.5123 117.994 36.0643 118.558 36.4483 119.278C36.8443 119.986 37.0423 120.79 37.0423 121.69ZM35.3503 121.348C35.3503 120.724 35.2123 120.19 34.9363 119.746C34.6603 119.29 34.2823 118.948 33.8023 118.72C33.3343 118.48 32.8123 118.36 32.2363 118.36C31.4083 118.36 30.7003 118.624 30.1123 119.152C29.5363 119.68 29.2063 120.412 29.1223 121.348H35.3503ZM44.0104 116.956C45.2104 116.956 46.1824 117.322 46.9264 118.054C47.6704 118.774 48.0424 119.818 48.0424 121.186V127H46.4224V121.42C46.4224 120.436 46.1764 119.686 45.6844 119.17C45.1924 118.642 44.5204 118.378 43.6684 118.378C42.8044 118.378 42.1144 118.648 41.5984 119.188C41.0944 119.728 40.8424 120.514 40.8424 121.546V127H39.2044V117.136H40.8424V118.54C41.1664 118.036 41.6044 117.646 42.1564 117.37C42.7204 117.094 43.3384 116.956 44.0104 116.956ZM51.564 115.534C51.252 115.534 50.988 115.426 50.772 115.21C50.556 114.994 50.448 114.73 50.448 114.418C50.448 114.106 50.556 113.842 50.772 113.626C50.988 113.41 51.252 113.302 51.564 113.302C51.864 113.302 52.116 113.41 52.32 113.626C52.536 113.842 52.644 114.106 52.644 114.418C52.644 114.73 52.536 114.994 52.32 115.21C52.116 115.426 51.864 115.534 51.564 115.534ZM52.356 117.136V127H50.718V117.136H52.356ZM63.8957 117.136V127H62.2577V125.542C61.9457 126.046 61.5077 126.442 60.9437 126.73C60.3917 127.006 59.7797 127.144 59.1077 127.144C58.3397 127.144 57.6497 126.988 57.0377 126.676C56.4257 126.352 55.9397 125.872 55.5797 125.236C55.2317 124.6 55.0577 123.826 55.0577 122.914V117.136H56.6777V122.698C56.6777 123.67 56.9237 124.42 57.4157 124.948C57.9077 125.464 58.5797 125.722 59.4317 125.722C60.3077 125.722 60.9977 125.452 61.5017 124.912C62.0057 124.372 62.2577 123.586 62.2577 122.554V117.136H63.8957ZM78.5234 116.956C79.2914 116.956 79.9754 117.118 80.5754 117.442C81.1754 117.754 81.6494 118.228 81.9974 118.864C82.3454 119.5 82.5194 120.274 82.5194 121.186V127H80.8994V121.42C80.8994 120.436 80.6534 119.686 80.1614 119.17C79.6814 118.642 79.0274 118.378 78.1994 118.378C77.3474 118.378 76.6694 118.654 76.1654 119.206C75.6614 119.746 75.4094 120.532 75.4094 121.564V127H73.7894V121.42C73.7894 120.436 73.5434 119.686 73.0514 119.17C72.5714 118.642 71.9174 118.378 71.0894 118.378C70.2374 118.378 69.5594 118.654 69.0554 119.206C68.5514 119.746 68.2994 120.532 68.2994 121.564V127H66.6614V117.136H68.2994V118.558C68.6234 118.042 69.0554 117.646 69.5954 117.37C70.1474 117.094 70.7534 116.956 71.4134 116.956C72.2414 116.956 72.9734 117.142 73.6094 117.514C74.2454 117.886 74.7194 118.432 75.0314 119.152C75.3074 118.456 75.7634 117.916 76.3994 117.532C77.0354 117.148 77.7434 116.956 78.5234 116.956Z" fill="#A0A0A0"/>
    <g clip-path="url(#clip1_7502_64181)">
      <path d="M76.5021 0.00109932C76.7119 -0.0121351 76.9111 0.0949609 77.0154 0.27718C77.1197 0.4594 77.1111 0.684989 76.9931 0.858722L55.7571 29.6503C55.6015 29.8257 55.3781 29.926 55.1434 29.926C54.9087 29.926 54.6852 29.8257 54.5296 29.6503L47.0418 21.3191C46.8589 21.1297 46.5997 21.0333 46.3372 21.0571C46.0747 21.0809 45.8372 21.2224 45.6915 21.4417L41.1497 27.2C41.006 27.5242 41.0532 27.9012 41.2725 28.1801L54.7751 42.1471C54.9308 42.3225 55.1542 42.4228 55.3889 42.4228C55.6236 42.4228 55.847 42.3225 56.0026 42.1471L82.5169 12.3754C82.6734 12.2074 82.916 12.1504 83.1312 12.231C83.3464 12.3115 83.4916 12.5137 83.4989 12.7429V85.1508C83.5091 85.3161 83.4477 85.4779 83.3303 85.5951C83.2129 85.7122 83.0508 85.7735 82.8852 85.7634H2.11484C1.94916 85.7735 1.78708 85.7122 1.6697 85.5951C1.55232 85.4779 1.49093 85.3161 1.50109 85.1508V0.613687C1.49093 0.448318 1.55232 0.286543 1.6697 0.169391C1.78708 0.0522377 1.94916 -0.00903963 2.11484 0.00109932H76.5021ZM55.6344 48.8856C51.9799 48.8215 48.458 50.2506 45.8851 52.8417C43.3122 55.4328 41.912 58.9608 42.009 62.6076C42.009 71.0613 48.1466 76.452 56.1254 76.452C59.8189 76.5438 63.4408 75.4249 66.4365 73.2666C66.7142 73.0149 66.7663 72.5986 66.5592 72.2864L64.3497 68.9785C64.1013 68.6942 63.6786 68.6414 63.3677 68.8559C61.4472 70.165 59.1869 70.8886 56.8619 70.9387C52.5656 70.9387 49.8651 68.2434 49.3741 65.0579C49.383 64.9264 49.4879 64.8218 49.6196 64.8129H68.155C68.5502 64.7862 68.8648 64.4722 68.8915 64.0778V63.3427C68.8915 54.7664 63.4905 48.8856 55.6344 48.8856ZM37.3444 44.2299C33.6161 41.1882 28.8985 39.6186 24.0873 39.8193C15.7402 39.8193 10.5847 44.72 10.5847 50.6008C10.5847 63.9552 30.9614 59.6671 30.9614 65.9155C30.9614 67.8758 28.9974 69.8361 24.8238 69.8361C20.86 69.8687 17.0357 68.377 14.1445 65.6705C13.9719 65.5094 13.738 65.4305 13.5029 65.454C13.2677 65.4774 13.0542 65.601 12.917 65.793L9.72542 70.2036C9.51833 70.5158 9.57047 70.9321 9.84817 71.1838C13.1625 74.2467 17.827 76.3295 24.3328 76.3295C33.9074 76.3295 38.572 71.4288 38.8175 65.0579C38.8175 51.826 18.4408 55.6241 18.4408 49.9883C18.4408 47.9055 20.282 46.4352 23.4736 46.4352C26.9917 46.3871 30.4182 47.5559 33.1709 49.7432C33.3327 49.8755 33.5412 49.9371 33.7491 49.9141C33.9571 49.891 34.1469 49.7853 34.2757 49.6207L37.4672 45.3326C37.5998 45.1711 37.6615 44.963 37.6384 44.7555C37.6153 44.5479 37.5093 44.3585 37.3444 44.2299ZM55.7571 54.2764C59.0959 54.09 61.9781 56.5867 62.2629 59.9122C62.254 60.0436 62.1492 60.1483 62.0174 60.1572H49.4968C49.3651 60.1483 49.2602 60.0436 49.2513 59.9122C49.6618 56.6521 52.4655 54.2232 55.7571 54.2764Z" fill="#B4B4B4"/>
    </g>
  </g>
  <defs>
    <clipPath id="clip0_7502_64181">
      <rect width="84" height="137" fill="white" transform="translate(0.5)"/>
    </clipPath>
    <clipPath>
      <rect width="82" height="86" fill="white" transform="translate(1.5)"/>
    </clipPath>
  </defs>
</svg>
