<svg width="141" height="148" viewBox="0 0 141 148" fill="none" xmlns="http://www.w3.org/2000/svg">
<g>
<path d="M39.4076 129.736L43.2596 136H41.4056L38.3996 131.104L35.5376 136H33.7196L37.5536 129.736L33.7016 123.454H35.5376L38.5616 128.368L41.4416 123.454H43.2776L39.4076 129.736ZM54.9613 127.09C54.6133 126.358 54.1093 125.794 53.4493 125.398C52.7893 124.99 52.0213 124.786 51.1453 124.786C50.2693 124.786 49.4773 124.99 48.7693 125.398C48.0733 125.794 47.5213 126.37 47.1133 127.126C46.7173 127.87 46.5193 128.734 46.5193 129.718C46.5193 130.702 46.7173 131.566 47.1133 132.31C47.5213 133.054 48.0733 133.63 48.7693 134.038C49.4773 134.434 50.2693 134.632 51.1453 134.632C52.3693 134.632 53.3773 134.266 54.1693 133.534C54.9613 132.802 55.4233 131.812 55.5553 130.564H50.5513V129.232H57.3013V130.492C57.2053 131.524 56.8813 132.472 56.3293 133.336C55.7773 134.188 55.0513 134.866 54.1513 135.37C53.2513 135.862 52.2493 136.108 51.1453 136.108C49.9813 136.108 48.9193 135.838 47.9593 135.298C46.9993 134.746 46.2373 133.984 45.6733 133.012C45.1213 132.04 44.8453 130.942 44.8453 129.718C44.8453 128.494 45.1213 127.396 45.6733 126.424C46.2373 125.44 46.9993 124.678 47.9593 124.138C48.9193 123.586 49.9813 123.31 51.1453 123.31C52.4773 123.31 53.6533 123.64 54.6733 124.3C55.7053 124.96 56.4553 125.89 56.9233 127.09H54.9613ZM65.7491 129.538C66.2051 129.61 66.6191 129.796 66.9911 130.096C67.3751 130.396 67.6751 130.768 67.8911 131.212C68.1191 131.656 68.2331 132.13 68.2331 132.634C68.2331 133.27 68.0711 133.846 67.7471 134.362C67.4231 134.866 66.9491 135.268 66.3251 135.568C65.7131 135.856 64.9871 136 64.1471 136H59.4671V123.454H63.9671C64.8191 123.454 65.5451 123.598 66.1451 123.886C66.7451 124.162 67.1951 124.54 67.4951 125.02C67.7951 125.5 67.9451 126.04 67.9451 126.64C67.9451 127.384 67.7411 128.002 67.3331 128.494C66.9371 128.974 66.4091 129.322 65.7491 129.538ZM61.1051 128.872H63.8591C64.6271 128.872 65.2211 128.692 65.6411 128.332C66.0611 127.972 66.2711 127.474 66.2711 126.838C66.2711 126.202 66.0611 125.704 65.6411 125.344C65.2211 124.984 64.6151 124.804 63.8231 124.804H61.1051V128.872ZM64.0031 134.65C64.8191 134.65 65.4551 134.458 65.9111 134.074C66.3671 133.69 66.5951 133.156 66.5951 132.472C66.5951 131.776 66.3551 131.23 65.8751 130.834C65.3951 130.426 64.7531 130.222 63.9491 130.222H61.1051V134.65H64.0031ZM74.8081 136.162C73.8841 136.162 73.0441 135.952 72.2881 135.532C71.5441 135.112 70.9561 134.518 70.5241 133.75C70.1041 132.97 69.8941 132.07 69.8941 131.05C69.8941 130.042 70.1101 129.154 70.5421 128.386C70.9861 127.606 71.5861 127.012 72.3421 126.604C73.0981 126.184 73.9441 125.974 74.8801 125.974C75.8161 125.974 76.6621 126.184 77.4181 126.604C78.1741 127.012 78.7681 127.6 79.2001 128.368C79.6441 129.136 79.8661 130.03 79.8661 131.05C79.8661 132.07 79.6381 132.97 79.1821 133.75C78.7381 134.518 78.1321 135.112 77.3641 135.532C76.5961 135.952 75.7441 136.162 74.8081 136.162ZM74.8081 134.722C75.3961 134.722 75.9481 134.584 76.4641 134.308C76.9801 134.032 77.3941 133.618 77.7061 133.066C78.0301 132.514 78.1921 131.842 78.1921 131.05C78.1921 130.258 78.0361 129.586 77.7241 129.034C77.4121 128.482 77.0041 128.074 76.5001 127.81C75.9961 127.534 75.4501 127.396 74.8621 127.396C74.2621 127.396 73.7101 127.534 73.2061 127.81C72.7141 128.074 72.3181 128.482 72.0181 129.034C71.7181 129.586 71.5681 130.258 71.5681 131.05C71.5681 131.854 71.7121 132.532 72.0001 133.084C72.3001 133.636 72.6961 134.05 73.1881 134.326C73.6801 134.59 74.2201 134.722 74.8081 134.722ZM86.3218 136.162C85.3978 136.162 84.5578 135.952 83.8018 135.532C83.0578 135.112 82.4698 134.518 82.0378 133.75C81.6178 132.97 81.4078 132.07 81.4078 131.05C81.4078 130.042 81.6238 129.154 82.0558 128.386C82.4998 127.606 83.0998 127.012 83.8558 126.604C84.6118 126.184 85.4578 125.974 86.3938 125.974C87.3298 125.974 88.1758 126.184 88.9318 126.604C89.6878 127.012 90.2818 127.6 90.7138 128.368C91.1578 129.136 91.3798 130.03 91.3798 131.05C91.3798 132.07 91.1518 132.97 90.6958 133.75C90.2518 134.518 89.6458 135.112 88.8778 135.532C88.1098 135.952 87.2578 136.162 86.3218 136.162ZM86.3218 134.722C86.9098 134.722 87.4618 134.584 87.9778 134.308C88.4938 134.032 88.9078 133.618 89.2198 133.066C89.5438 132.514 89.7058 131.842 89.7058 131.05C89.7058 130.258 89.5498 129.586 89.2378 129.034C88.9258 128.482 88.5178 128.074 88.0138 127.81C87.5098 127.534 86.9638 127.396 86.3758 127.396C85.7758 127.396 85.2238 127.534 84.7198 127.81C84.2278 128.074 83.8318 128.482 83.5318 129.034C83.2318 129.586 83.0818 130.258 83.0818 131.05C83.0818 131.854 83.2258 132.532 83.5138 133.084C83.8138 133.636 84.2098 134.05 84.7018 134.326C85.1938 134.59 85.7338 134.722 86.3218 134.722ZM97.0255 136.162C96.2695 136.162 95.5915 136.036 94.9915 135.784C94.3915 135.52 93.9175 135.16 93.5695 134.704C93.2215 134.236 93.0295 133.702 92.9935 133.102H94.6855C94.7335 133.594 94.9615 133.996 95.3695 134.308C95.7895 134.62 96.3355 134.776 97.0075 134.776C97.6315 134.776 98.1235 134.638 98.4835 134.362C98.8435 134.086 99.0235 133.738 99.0235 133.318C99.0235 132.886 98.8315 132.568 98.4475 132.364C98.0635 132.148 97.4695 131.938 96.6655 131.734C95.9335 131.542 95.3335 131.35 94.8655 131.158C94.4095 130.954 94.0135 130.66 93.6775 130.276C93.3535 129.88 93.1915 129.364 93.1915 128.728C93.1915 128.224 93.3415 127.762 93.6415 127.342C93.9415 126.922 94.3675 126.592 94.9195 126.352C95.4715 126.1 96.1015 125.974 96.8095 125.974C97.9015 125.974 98.7835 126.25 99.4555 126.802C100.127 127.354 100.487 128.11 100.535 129.07H98.8975C98.8615 128.554 98.6515 128.14 98.2675 127.828C97.8955 127.516 97.3915 127.36 96.7555 127.36C96.1675 127.36 95.6995 127.486 95.3515 127.738C95.0035 127.99 94.8295 128.32 94.8295 128.728C94.8295 129.052 94.9315 129.322 95.1355 129.538C95.3515 129.742 95.6155 129.91 95.9275 130.042C96.2515 130.162 96.6955 130.3 97.2595 130.456C97.9675 130.648 98.5435 130.84 98.9875 131.032C99.4315 131.212 99.8095 131.488 100.121 131.86C100.445 132.232 100.613 132.718 100.625 133.318C100.625 133.858 100.475 134.344 100.175 134.776C99.8755 135.208 99.4495 135.55 98.8975 135.802C98.3575 136.042 97.7335 136.162 97.0255 136.162ZM104.936 127.486V133.3C104.936 133.78 105.038 134.122 105.242 134.326C105.446 134.518 105.8 134.614 106.304 134.614H107.51V136H106.034C105.122 136 104.438 135.79 103.982 135.37C103.526 134.95 103.298 134.26 103.298 133.3V127.486H102.02V126.136H103.298V123.652H104.936V126.136H107.51V127.486H104.936Z" fill="#A0A0A0"/>
<path d="M23.46 58.3771L19.844 47.4011H24.356L26.276 53.8651L26.596 56.1371L27.78 53.8651L32.548 47.4011H37.54L29.124 58.2171L33.124 69.8011H28.676L26.372 62.8891L25.988 60.5211L24.708 62.8891L19.556 69.8011H14.5L23.46 58.3771Z" fill="#C4C4C4"/>
<path d="M44.8885 58.1211H51.6085L49.4965 68.1051C48.5365 68.8518 47.5232 69.3958 46.4565 69.7371C45.4112 70.0785 44.2805 70.2491 43.0645 70.2491C41.8912 70.2491 40.8032 70.0465 39.8005 69.6411C38.8192 69.2358 37.9658 68.6491 37.2405 67.8811C36.5152 67.1131 35.9498 66.1638 35.5445 65.0331C35.1392 63.9025 34.9365 62.6118 34.9365 61.1611C34.9365 58.7078 35.2672 56.5851 35.9285 54.7931C36.6112 53.0011 37.5285 51.5291 38.6805 50.3771C39.8325 49.2038 41.1765 48.3398 42.7125 47.7851C44.2485 47.2305 45.8698 46.9531 47.5765 46.9531C48.7925 46.9531 49.8698 47.0598 50.8085 47.2731C51.7685 47.4651 52.4938 47.6678 52.9845 47.8811L51.3205 51.5611C50.8725 51.3478 50.3072 51.1771 49.6245 51.0491C48.9632 50.9211 48.1525 50.8571 47.1925 50.8571C46.0618 50.8571 45.0165 51.0705 44.0565 51.4971C43.0965 51.9238 42.2645 52.5531 41.5605 53.3851C40.8565 54.2171 40.3018 55.2518 39.8965 56.4891C39.5125 57.7051 39.3205 59.1025 39.3205 60.6811C39.3205 62.4518 39.7365 63.8385 40.5685 64.8411C41.4005 65.8438 42.5205 66.3451 43.9285 66.3451C44.9738 66.3451 45.8912 66.0785 46.6805 65.5451L47.5765 61.2891L44.3125 60.7771L44.8885 58.1211Z" fill="#C4C4C4"/>
<path d="M57.1113 47.5611C57.5166 47.4971 57.9753 47.4331 58.4873 47.3691C58.9993 47.3051 59.5433 47.2518 60.1193 47.2091C60.6953 47.1665 61.2819 47.1345 61.8793 47.1131C62.4979 47.0918 63.0953 47.0811 63.6713 47.0811C64.6526 47.0811 65.5593 47.1878 66.3913 47.4011C67.2446 47.5931 67.9699 47.9025 68.5673 48.3291C69.1859 48.7558 69.6659 49.3105 70.0073 49.9931C70.3699 50.6545 70.5513 51.4545 70.5513 52.3931C70.5513 53.0971 70.4339 53.7798 70.1993 54.4411C69.9646 55.0811 69.6232 55.6571 69.1753 56.1691C68.7486 56.6811 68.2259 57.1078 67.6073 57.4491C67.0099 57.7905 66.3273 58.0145 65.5593 58.1211V58.2811C65.9646 58.3665 66.3699 58.5265 66.7753 58.7611C67.1806 58.9745 67.5433 59.2625 67.8633 59.6251C68.1833 59.9665 68.4393 60.3825 68.6313 60.8731C68.8233 61.3425 68.9193 61.8758 68.9193 62.4731C68.9193 63.8385 68.6526 65.0118 68.1193 65.9931C67.5859 66.9531 66.8713 67.7425 65.9753 68.3611C65.0793 68.9585 64.0339 69.4065 62.8393 69.7051C61.6446 69.9825 60.3859 70.1211 59.0633 70.1211C58.7219 70.1211 58.2739 70.1211 57.7192 70.1211C57.1859 70.1211 56.6099 70.0998 55.9913 70.0571C55.3726 70.0358 54.7539 69.9931 54.1353 69.9291C53.5166 69.8651 52.9513 69.7691 52.4393 69.6411L57.1113 47.5611ZM57.1433 66.3131C57.2286 66.3558 57.3779 66.3878 57.5913 66.4091C57.8259 66.4305 58.0713 66.4518 58.3273 66.4731C58.6046 66.4731 58.8819 66.4838 59.1593 66.5051C59.4366 66.5051 59.6712 66.5051 59.8633 66.5051C60.3966 66.5051 60.9406 66.4411 61.4953 66.3131C62.0713 66.1851 62.5833 65.9718 63.0313 65.6731C63.5006 65.3745 63.8846 64.9905 64.1833 64.5211C64.4819 64.0518 64.6313 63.4758 64.6313 62.7931C64.6313 62.2598 64.5139 61.8225 64.2793 61.4811C64.0446 61.1398 63.7353 60.8731 63.3513 60.6811C62.9673 60.4678 62.5193 60.3291 62.0073 60.2651C61.5166 60.1798 61.0046 60.1371 60.4713 60.1371H58.4233L57.1433 66.3131ZM59.1593 56.8091H60.5353C60.8339 56.8091 61.1859 56.8091 61.5913 56.8091C61.9966 56.7878 62.3379 56.7558 62.6153 56.7131C62.9993 56.6491 63.4046 56.5425 63.8313 56.3931C64.2793 56.2438 64.6739 56.0305 65.0153 55.7531C65.3779 55.4758 65.6766 55.1238 65.9113 54.6971C66.1459 54.2705 66.2633 53.7371 66.2633 53.0971C66.2633 52.1798 65.9539 51.5505 65.3353 51.2091C64.7379 50.8678 63.9699 50.6971 63.0313 50.6971C62.4766 50.6971 61.9646 50.7078 61.4953 50.7291C61.0259 50.7505 60.6633 50.7825 60.4073 50.8251L59.1593 56.8091Z" fill="#C4C4C4"/>
<path d="M71.0748 64.6171C71.0748 62.9318 71.3094 61.3958 71.7788 60.0091C72.2694 58.6225 72.9094 57.4385 73.6988 56.4571C74.5094 55.4758 75.4374 54.7185 76.4828 54.1851C77.5494 53.6305 78.6587 53.3531 79.8107 53.3531C80.8347 53.3531 81.6987 53.5131 82.4027 53.8331C83.1068 54.1531 83.6721 54.5798 84.0987 55.1131C84.5467 55.6465 84.8667 56.2545 85.0587 56.9371C85.2507 57.6198 85.3467 58.3238 85.3467 59.0491C85.3467 60.7131 85.1121 62.2385 84.6427 63.6251C84.1734 64.9905 83.5441 66.1638 82.7547 67.1451C81.9654 68.1265 81.0481 68.8945 80.0027 69.4491C78.9574 69.9825 77.8588 70.2491 76.7068 70.2491C75.7041 70.2491 74.8507 70.0891 74.1468 69.7691C73.4428 69.4278 72.8561 68.9905 72.3868 68.4571C71.9388 67.9238 71.6081 67.3265 71.3948 66.6651C71.1814 65.9825 71.0748 65.2998 71.0748 64.6171ZM75.1388 64.0731C75.1388 65.9931 75.8321 66.9531 77.2188 66.9531C77.7308 66.9531 78.2321 66.7291 78.7227 66.2811C79.2134 65.8331 79.6507 65.2465 80.0348 64.5211C80.4188 63.7958 80.7174 62.9745 80.9307 62.0571C81.1654 61.1398 81.2827 60.2225 81.2827 59.3051C81.2827 58.4518 81.1334 57.8011 80.8347 57.3531C80.5574 56.8838 80.0241 56.6491 79.2347 56.6491C78.7227 56.6491 78.2214 56.8625 77.7308 57.2891C77.2401 57.7158 76.8027 58.2811 76.4188 58.9851C76.0348 59.6678 75.7254 60.4571 75.4908 61.3531C75.2561 62.2491 75.1388 63.1558 75.1388 64.0731Z" fill="#C4C4C4"/>
<path d="M86.9497 64.6171C86.9497 62.9318 87.1844 61.3958 87.6537 60.0091C88.1444 58.6225 88.7844 57.4385 89.5737 56.4571C90.3844 55.4758 91.3124 54.7185 92.3577 54.1851C93.4244 53.6305 94.5337 53.3531 95.6857 53.3531C96.7097 53.3531 97.5737 53.5131 98.2777 53.8331C98.9818 54.1531 99.5471 54.5798 99.9737 55.1131C100.422 55.6465 100.742 56.2545 100.934 56.9371C101.126 57.6198 101.222 58.3238 101.222 59.0491C101.222 60.7131 100.987 62.2385 100.518 63.6251C100.048 64.9905 99.4191 66.1638 98.6297 67.1451C97.8404 68.1265 96.9231 68.8945 95.8777 69.4491C94.8324 69.9825 93.7337 70.2491 92.5817 70.2491C91.5791 70.2491 90.7258 70.0891 90.0218 69.7691C89.3177 69.4278 88.7311 68.9905 88.2617 68.4571C87.8138 67.9238 87.4831 67.3265 87.2697 66.6651C87.0564 65.9825 86.9497 65.2998 86.9497 64.6171ZM91.0137 64.0731C91.0137 65.9931 91.7071 66.9531 93.0938 66.9531C93.6058 66.9531 94.1071 66.7291 94.5977 66.2811C95.0884 65.8331 95.5257 65.2465 95.9098 64.5211C96.2938 63.7958 96.5924 62.9745 96.8057 62.0571C97.0404 61.1398 97.1577 60.2225 97.1577 59.3051C97.1577 58.4518 97.0084 57.8011 96.7097 57.3531C96.4324 56.8838 95.8991 56.6491 95.1097 56.6491C94.5977 56.6491 94.0964 56.8625 93.6058 57.2891C93.1151 57.7158 92.6777 58.2811 92.2937 58.9851C91.9097 59.6678 91.6004 60.4571 91.3657 61.3531C91.1311 62.2491 91.0137 63.1558 91.0137 64.0731Z" fill="#C4C4C4"/>
<path d="M102.953 66.0571C103.379 66.2918 103.923 66.5051 104.585 66.6971C105.267 66.8678 105.982 66.9531 106.729 66.9531C107.475 66.9531 108.041 66.8145 108.425 66.5371C108.83 66.2385 109.043 65.7905 109.065 65.1931C109.065 64.7665 108.937 64.4038 108.681 64.1051C108.425 63.7851 108.094 63.4865 107.689 63.2091C107.305 62.9318 106.889 62.6545 106.441 62.3771C105.993 62.0785 105.566 61.7478 105.161 61.3851C104.777 61.0011 104.457 60.5531 104.201 60.0411C103.945 59.5291 103.817 58.9105 103.817 58.1851C103.817 57.4811 103.955 56.8305 104.233 56.2331C104.51 55.6358 104.894 55.1238 105.385 54.6971C105.897 54.2705 106.505 53.9398 107.209 53.7051C107.934 53.4705 108.745 53.3531 109.641 53.3531C110.878 53.3531 111.902 53.4491 112.713 53.6411C113.523 53.8118 114.163 54.0358 114.633 54.3131L113.545 57.3211C113.118 57.1291 112.595 56.9691 111.977 56.8411C111.379 56.7131 110.75 56.6491 110.089 56.6491C109.406 56.6491 108.862 56.7665 108.457 57.0011C108.073 57.2358 107.881 57.6091 107.881 58.1211C107.881 58.4625 108.009 58.7718 108.265 59.0491C108.521 59.3051 108.841 59.5718 109.225 59.8491C109.63 60.1265 110.057 60.4145 110.505 60.7131C110.953 60.9905 111.369 61.3318 111.753 61.7371C112.158 62.1425 112.489 62.6118 112.745 63.1451C113.001 63.6571 113.129 64.2758 113.129 65.0011C113.129 66.7718 112.553 68.0945 111.401 68.9691C110.249 69.8225 108.713 70.2491 106.793 70.2491C105.705 70.2491 104.702 70.1425 103.785 69.9291C102.889 69.7371 102.195 69.4918 101.705 69.1931L102.953 66.0571Z" fill="#C4C4C4"/>
<path d="M116.472 53.8011H118.552L119.192 50.7931L123.384 49.6091L122.488 53.8011H126.232L125.496 57.0971H121.784L120.216 64.3291C120.088 64.9051 120.024 65.3745 120.024 65.7371C120.024 66.2065 120.131 66.5265 120.344 66.6971C120.558 66.8678 120.878 66.9531 121.304 66.9531C121.71 66.9531 122.072 66.9105 122.392 66.8251C122.734 66.7398 123.086 66.6011 123.448 66.4091V69.3531C123.214 69.4811 122.926 69.6091 122.584 69.7371C122.264 69.8438 121.912 69.9291 121.528 69.9931C121.144 70.0785 120.75 70.1425 120.344 70.1851C119.939 70.2278 119.566 70.2491 119.224 70.2491C118.136 70.2491 117.294 70.0038 116.696 69.5131C116.12 69.0011 115.832 68.2331 115.832 67.2091C115.832 66.9958 115.843 66.7718 115.864 66.5371C115.907 66.3025 115.95 66.0571 115.992 65.8011L117.848 57.0971H115.704L116.472 53.8011Z" fill="#C4C4C4"/>
<path d="M27.5833 38.576C27.4393 39.248 27.3353 39.872 27.2713 40.448C27.2073 41.024 27.1753 41.568 27.1753 42.08C27.1753 42.208 27.1753 42.336 27.1753 42.464C27.1753 42.576 27.1833 42.696 27.1993 42.824H25.1833L24.8473 40.76H24.7513C24.5753 41.048 24.3433 41.336 24.0553 41.624C23.7833 41.896 23.4793 42.152 23.1433 42.392C22.8073 42.616 22.4473 42.792 22.0633 42.92C21.6953 43.064 21.3273 43.136 20.9593 43.136C19.9673 43.136 19.1993 42.784 18.6553 42.08C18.1273 41.376 17.8633 40.408 17.8633 39.176C17.8633 38.056 18.0153 36.976 18.3193 35.936C18.6233 34.896 19.0473 33.976 19.5913 33.176C20.1513 32.36 20.8233 31.712 21.6073 31.232C22.4073 30.752 23.2873 30.512 24.2473 30.512C24.7113 30.512 25.0953 30.544 25.3993 30.608C25.7033 30.656 25.9913 30.744 26.2633 30.872L27.2953 26H30.2473L27.5833 38.576ZM25.7353 33.344C25.5433 33.216 25.3193 33.128 25.0633 33.08C24.8233 33.016 24.4953 32.984 24.0793 32.984C23.5993 32.984 23.1593 33.152 22.7593 33.488C22.3753 33.808 22.0473 34.248 21.7753 34.808C21.5033 35.352 21.2873 35.984 21.1273 36.704C20.9833 37.424 20.9113 38.176 20.9113 38.96C20.9113 39.424 21.0153 39.824 21.2233 40.16C21.4313 40.496 21.7273 40.664 22.1113 40.664C22.3513 40.664 22.5913 40.608 22.8313 40.496C23.0873 40.368 23.3193 40.208 23.5273 40.016C23.7513 39.824 23.9513 39.616 24.1273 39.392C24.3193 39.168 24.4713 38.96 24.5833 38.768L25.7353 33.344Z" fill="#999999"/>
<path d="M35.9313 42.8L37.2993 36.272C37.3953 35.824 37.4673 35.432 37.5153 35.096C37.5793 34.744 37.6113 34.432 37.6113 34.16C37.6113 33.424 37.3313 33.056 36.7713 33.056C36.4993 33.056 36.2273 33.128 35.9553 33.272C35.6833 33.416 35.4273 33.6 35.1873 33.824C34.9633 34.048 34.7473 34.296 34.5393 34.568C34.3473 34.824 34.1873 35.072 34.0593 35.312L32.5233 42.8H29.5713L32.1153 30.8H34.4193L34.2753 32.912H34.3713C34.6113 32.656 34.8673 32.384 35.1393 32.096C35.4273 31.808 35.7473 31.544 36.0993 31.304C36.4513 31.064 36.8433 30.864 37.2753 30.704C37.7073 30.544 38.1793 30.464 38.6913 30.464C39.3313 30.464 39.8113 30.696 40.1313 31.16C40.4673 31.624 40.6193 32.24 40.5873 33.008C40.8273 32.704 41.0993 32.4 41.4033 32.096C41.7233 31.792 42.0593 31.52 42.4113 31.28C42.7793 31.04 43.1633 30.848 43.5633 30.704C43.9793 30.544 44.4033 30.464 44.8353 30.464C45.5713 30.464 46.1313 30.64 46.5153 30.992C46.9153 31.328 47.1153 31.968 47.1153 32.912C47.1153 33.6 46.9953 34.496 46.7553 35.6L45.2433 42.8H42.2913L43.7073 36.056C43.7873 35.688 43.8513 35.344 43.8993 35.024C43.9473 34.704 43.9713 34.424 43.9713 34.184C43.9713 33.816 43.8993 33.536 43.7553 33.344C43.6273 33.152 43.4033 33.056 43.0833 33.056C42.8273 33.056 42.5633 33.136 42.2913 33.296C42.0353 33.44 41.7873 33.632 41.5473 33.872C41.3073 34.096 41.0833 34.344 40.8753 34.616C40.6833 34.888 40.5313 35.144 40.4193 35.384L38.8833 42.8H35.9313Z" fill="#999999"/>
<path d="M51.5698 39.248C51.4738 39.712 51.4738 40.056 51.5698 40.28C51.6818 40.504 51.8578 40.616 52.0978 40.616C52.5458 40.616 52.9698 40.528 53.3698 40.352L53.2978 42.488C53.0098 42.664 52.5938 42.808 52.0498 42.92C51.5058 43.032 50.9698 43.088 50.4418 43.088C49.7538 43.088 49.2258 42.96 48.8578 42.704C48.5058 42.432 48.3298 41.936 48.3298 41.216C48.3298 40.848 48.3778 40.424 48.4738 39.944L51.4258 26H54.3778L51.5698 39.248Z" fill="#999999"/>
<path d="M63.5088 33.512C63.2048 33.336 62.8848 33.216 62.5488 33.152C62.2288 33.088 61.8768 33.056 61.4928 33.056C61.0608 33.056 60.6368 33.2 60.2208 33.488C59.8208 33.76 59.4528 34.128 59.1168 34.592C58.7968 35.04 58.5408 35.568 58.3488 36.176C58.1568 36.784 58.0608 37.408 58.0608 38.048C58.0608 38.864 58.2368 39.488 58.5888 39.92C58.9408 40.336 59.4048 40.544 59.9808 40.544C60.4608 40.544 60.9008 40.472 61.3008 40.328C61.7168 40.168 62.0848 39.992 62.4048 39.8L62.9568 41.816C62.4448 42.2 61.8448 42.52 61.1568 42.776C60.4848 43.016 59.8128 43.136 59.1408 43.136C58.3728 43.136 57.7168 43.024 57.1728 42.8C56.6448 42.576 56.2128 42.272 55.8768 41.888C55.5408 41.504 55.2928 41.064 55.1328 40.568C54.9728 40.072 54.8928 39.552 54.8928 39.008C54.8928 37.664 55.0848 36.464 55.4688 35.408C55.8528 34.352 56.3568 33.464 56.9808 32.744C57.6208 32.008 58.3408 31.448 59.1408 31.064C59.9568 30.664 60.7888 30.464 61.6368 30.464C62.3888 30.464 62.9808 30.536 63.4128 30.68C63.8608 30.824 64.2608 30.984 64.6128 31.16L63.5088 33.512Z" fill="#999999"/>
</g>
<defs>
<clipPath id="clip0_8570_56139">
<rect width="140" height="148" fill="white" transform="translate(0.5)"/>
</clipPath>
</defs>
</svg>
