<svg width="120" height="131" viewBox="0 0 120 131" fill="none" xmlns="http://www.w3.org/2000/svg"><path d="M15.952 109.642v4.338h4.824v1.26h-4.824v4.428h5.364V121h-7.002v-12.69h7.002v1.332h-5.364ZM29.108 121l-2.575-3.78-2.322 3.78h-1.817l3.24-5.094-3.259-4.788h1.872l2.503 3.672 2.285-3.672h1.819l-3.223 4.968L30.98 121h-1.872Zm8.853-10.008c.876 0 1.656.204 2.34.612.684.408 1.218.996 1.602 1.764.396.768.594 1.668.594 2.7 0 1.032-.198 1.932-.594 2.7-.384.756-.918 1.338-1.602 1.746-.684.408-1.464.612-2.34.612-.96 0-1.776-.24-2.448-.72a3.769 3.769 0 0 1-1.368-1.926v7.2h-1.638v-14.562h1.638v2.52a3.675 3.675 0 0 1 1.368-1.908c.672-.492 1.488-.738 2.448-.738Zm-.468 1.458c-.636 0-1.212.15-1.728.45a2.985 2.985 0 0 0-1.206 1.26c-.288.552-.432 1.188-.432 1.908s.144 1.356.432 1.908c.288.54.69.96 1.206 1.26.516.3 1.092.45 1.728.45 1.02 0 1.83-.318 2.43-.954.612-.648.918-1.536.918-2.664 0-1.128-.306-2.01-.918-2.646-.6-.648-1.41-.972-2.43-.972Zm8.781.666a3.58 3.58 0 0 1 1.422-1.584c.624-.384 1.368-.576 2.232-.576v1.782h-.504c-.924 0-1.68.24-2.268.72-.588.468-.882 1.248-.882 2.34V121h-1.638v-9.882h1.638v1.998Zm14.36 2.394c0 .348-.023.648-.072.9h-7.901c.035 1.128.353 1.974.953 2.538.613.564 1.357.846 2.233.846.791 0 1.451-.198 1.98-.594.54-.408.87-.948.99-1.62h1.745a4.098 4.098 0 0 1-.81 1.836c-.408.54-.942.96-1.602 1.26-.66.3-1.404.45-2.231.45-.948 0-1.788-.204-2.52-.612a4.399 4.399 0 0 1-1.729-1.746c-.407-.768-.611-1.668-.611-2.7 0-1.032.204-1.932.611-2.7a4.37 4.37 0 0 1 1.728-1.764c.732-.408 1.572-.612 2.52-.612.96 0 1.794.204 2.502.612.72.408 1.267.954 1.639 1.638.384.684.576 1.44.576 2.268Zm-1.656.108c.036-.732-.084-1.344-.36-1.836a2.632 2.632 0 0 0-1.134-1.098 3.452 3.452 0 0 0-1.566-.36c-.9 0-1.655.282-2.267.846-.613.552-.943 1.368-.99 2.448h6.317Zm6.895-4.626c1.116 0 2.01.294 2.682.882.684.576 1.098 1.356 1.242 2.34H68.23c-.072-.588-.318-1.068-.738-1.44-.408-.384-.96-.576-1.656-.576-.588 0-1.05.144-1.386.432-.324.276-.486.654-.486 1.134 0 .36.108.654.324.882.228.216.504.384.828.504.336.108.792.228 1.368.36.732.168 1.32.342 1.764.522.456.168.84.444 1.152.828.324.384.486.9.486 1.548 0 .804-.306 1.458-.918 1.962-.6.504-1.404.756-2.412.756-1.176 0-2.136-.282-2.88-.846-.744-.564-1.182-1.35-1.314-2.358h1.584c.06.6.318 1.086.774 1.458.468.372 1.08.558 1.836.558.564 0 1.002-.144 1.314-.432.324-.288.486-.666.486-1.134 0-.384-.114-.69-.342-.918a2.243 2.243 0 0 0-.846-.522c-.336-.12-.798-.246-1.386-.378-.732-.168-1.32-.336-1.764-.504a2.804 2.804 0 0 1-1.116-.792c-.3-.372-.45-.87-.45-1.494 0-.828.306-1.494.918-1.998.612-.516 1.446-.774 2.502-.774Zm9.299 0c1.116 0 2.01.294 2.682.882.684.576 1.098 1.356 1.242 2.34H77.53c-.072-.588-.318-1.068-.738-1.44-.408-.384-.96-.576-1.656-.576-.588 0-1.05.144-1.386.432-.324.276-.486.654-.486 1.134 0 .36.108.654.324.882.228.216.504.384.828.504.336.108.792.228 1.368.36.732.168 1.32.342 1.764.522.456.168.84.444 1.152.828.324.384.486.9.486 1.548 0 .804-.306 1.458-.918 1.962-.6.504-1.404.756-2.412.756-1.176 0-2.136-.282-2.88-.846-.744-.564-1.182-1.35-1.314-2.358h1.584c.06.6.318 1.086.774 1.458.468.372 1.08.558 1.836.558.564 0 1.002-.144 1.314-.432.324-.288.486-.666.486-1.134 0-.384-.114-.69-.342-.918a2.243 2.243 0 0 0-.846-.522c-.336-.12-.798-.246-1.386-.378-.732-.168-1.32-.336-1.764-.504a2.804 2.804 0 0 1-1.116-.792c-.3-.372-.45-.87-.45-1.494 0-.828.306-1.494.918-1.998.612-.516 1.446-.774 2.502-.774Zm16.824-2.682v9.432c0 1.044-.3 1.872-.9 2.484-.588.6-1.416.9-2.484.9-1.152 0-2.058-.336-2.718-1.008-.648-.684-.972-1.638-.972-2.862h1.638c0 .732.162 1.314.486 1.746.324.42.822.63 1.494.63.636 0 1.098-.18 1.386-.54.288-.36.432-.81.432-1.35v-9.432h1.638Zm10.573 9.396c0 .6-.144 1.158-.432 1.674-.288.516-.726.936-1.314 1.26-.588.324-1.314.486-2.178.486-.84 0-1.59-.15-2.25-.45a4.187 4.187 0 0 1-1.566-1.26 3.661 3.661 0 0 1-.666-1.836h1.746a2.6 2.6 0 0 0 .36 1.062c.216.336.516.618.9.846.396.216.87.324 1.422.324.72 0 1.272-.192 1.656-.576.384-.384.576-.876.576-1.476 0-.516-.138-.936-.414-1.26a2.696 2.696 0 0 0-.99-.756c-.396-.192-.936-.396-1.62-.612a18.488 18.488 0 0 1-1.944-.738 3.483 3.483 0 0 1-1.242-1.062c-.336-.468-.504-1.086-.504-1.854 0-.66.156-1.242.468-1.746.324-.504.78-.894 1.368-1.17.6-.276 1.302-.414 2.106-.414 1.248 0 2.238.306 2.97.918a3.445 3.445 0 0 1 1.278 2.304h-1.764c-.096-.504-.354-.948-.774-1.332-.42-.384-.99-.576-1.71-.576-.66 0-1.188.174-1.584.522-.396.336-.594.816-.594 1.44 0 .492.126.894.378 1.206.264.3.588.54.972.72.384.168.912.36 1.584.576.816.264 1.47.516 1.962.756.504.24.93.606 1.278 1.098.348.48.522 1.122.522 1.926Z" fill="#A0A0A0"/><path d="M40.012 51.753V28.708h1.25v3.625a4.73 4.73 0 0 0 .41-.51 6.195 6.195 0 0 1 5.65-3.507c2.85-.085 5.166.97 6.527 3.507a11.267 11.267 0 0 1 .273 10.33c-1.269 2.843-4.4 4.256-7.753 3.737a6.271 6.271 0 0 1-5.004-3.302v9.165h-1.353Zm1.25-14.892c.111 1.123.154 1.923.282 2.706.493 3.08 2.314 4.91 5.174 5.242a5.88 5.88 0 0 0 6.459-3.736 10.015 10.015 0 0 0-.221-8.238 5.762 5.762 0 0 0-6.068-3.353 5.608 5.608 0 0 0-5.013 4.145 28.43 28.43 0 0 0-.612 3.234ZM80.757 39.992a6.74 6.74 0 0 1-6.587 5.957c-5.242.264-7.701-3.216-8.093-7.233a11.59 11.59 0 0 1 1.021-6.383 7.123 7.123 0 0 1 7.413-3.974 6.808 6.808 0 0 1 6.042 5.182c.266 1.265.462 2.544.587 3.83H67.362c-.255 3.642 1.702 6.57 4.477 7.276 3.455.851 6.408-.646 7.48-3.931.238-.843.672-.962 1.438-.724Zm-13.395-3.787h12.314c-.076-3.88-2.493-6.689-5.77-6.731-3.71-.06-6.382 2.646-6.544 6.731ZM83.293 40.077h1.209a4.841 4.841 0 0 0 2.842 4.17 7.432 7.432 0 0 0 6.45-.17 2.903 2.903 0 0 0 1.703-2.85 2.63 2.63 0 0 0-1.77-2.63c-1.328-.494-2.74-.766-4.094-1.2a29.993 29.993 0 0 1-4.119-1.507c-2.178-1.063-2.314-5.208.153-6.518a8.69 8.69 0 0 1 8.306-.128 4.374 4.374 0 0 1 2.213 4.46h-1.038c0-.052-.094-.094-.094-.145-.127-3.31-2.902-4.332-5.88-4.043-.89.11-1.753.372-2.553.775a2.553 2.553 0 0 0-1.481 2.553 2.553 2.553 0 0 0 1.702 2.4c1.31.476 2.68.782 4.025 1.157 1.08.298 2.204.494 3.251.851a3.838 3.838 0 0 1 2.638 3.464 4.093 4.093 0 0 1-2.204 4.255c-2.842 1.608-7.523 1.183-9.608-.851a5.675 5.675 0 0 1-1.65-4.043ZM112.075 33.703h-1.132c0-.153-.059-.289-.076-.417a3.704 3.704 0 0 0-3.013-3.557 7.429 7.429 0 0 0-4.774.23 2.904 2.904 0 0 0-2.102 2.766 2.674 2.674 0 0 0 2.042 2.689c1.702.527 3.447.85 5.175 1.328.559.134 1.111.302 1.651.502a4.254 4.254 0 0 1 .229 7.922 9.469 9.469 0 0 1-7.659.077 5.31 5.31 0 0 1-3.2-5.157h1.107a6.202 6.202 0 0 0 9.446 3.949 3.035 3.035 0 0 0 1.634-2.842 2.628 2.628 0 0 0-1.796-2.613c-1.327-.494-2.74-.758-4.093-1.192a30.194 30.194 0 0 1-4.145-1.489c-2.127-1.047-2.297-5.157.128-6.468a8.57 8.57 0 0 1 8.442-.093 4.45 4.45 0 0 1 2.136 4.365ZM37.944 45.532a1.949 1.949 0 0 1-2.417-.919c-1.387-2.076-2.919-4.059-4.391-6.084l-.638-.851c-1.754 2.348-3.507 4.604-5.107 6.944a1.872 1.872 0 0 1-2.297.902l6.578-8.825-6.119-7.974a2.035 2.035 0 0 1 2.426.85c1.42 2.077 2.995 4.06 4.561 6.162 1.575-2.085 3.132-4.076 4.587-6.136a1.83 1.83 0 0 1 2.28-.85l-2.373 3.148c-1.064 1.404-2.111 2.817-3.217 4.187a.85.85 0 0 0 0 1.268c2.034 2.698 4.05 5.404 6.127 8.178ZM65.873 28.64v1.191a6.17 6.17 0 0 0-6.57 6.374V45.566h-1.217V28.708h1.191v3.455c1.473-2.519 3.745-3.455 6.596-3.523ZM7.332 36.588c.179-.85.29-1.778.536-2.646 1.472-5.234 7.472-7.413 11.6-4.17 2.416 1.897 3.02 4.587 2.901 7.616H8.753c-.221 5.413 3.685 8.68 8.68 7.013a5.184 5.184 0 0 0 3.294-3.668c.264-.851.69-.996 1.498-.75a6.911 6.911 0 0 1-3.302 5.047 8 8 0 0 1-9.319-1.191 8.383 8.383 0 0 1-2.093-4.919c0-.29-.11-.579-.17-.851-.006-.505-.009-.998-.009-1.48Zm1.438-.366h12.314c-.076-3.923-2.553-6.706-5.854-6.731-3.677-.051-6.307 2.672-6.468 6.714l.008.017Z" fill="#000"/></svg>