<svg width="96" height="148" viewBox="0 0 96 148" fill="none" xmlns="http://www.w3.org/2000/svg"><path d="M28.976 125.454v1.332h-5.454v4.23h4.428v1.332h-4.428V138h-1.638v-12.546h7.092Zm3.616-.774V138h-1.638v-13.32h1.638Zm11.54 3.456V138h-1.638v-1.458c-.312.504-.75.9-1.314 1.188a4.047 4.047 0 0 1-1.836.414c-.768 0-1.458-.156-2.07-.468a3.582 3.582 0 0 1-1.458-1.44c-.348-.636-.522-1.41-.522-2.322v-5.778h1.62v5.562c0 .972.246 1.722.738 2.25.492.516 1.164.774 2.016.774.876 0 1.566-.27 2.07-.81.504-.54.756-1.326.756-2.358v-5.418h1.638Zm4.764 1.35v5.814c0 .48.102.822.306 1.026.204.192.558.288 1.062.288h1.206V138h-1.476c-.912 0-1.596-.21-2.052-.63-.456-.42-.684-1.11-.684-2.07v-5.814H45.98v-1.35h1.278v-2.484h1.638v2.484h2.574v1.35h-2.574Zm6.556 0v5.814c0 .48.102.822.306 1.026.204.192.558.288 1.062.288h1.206V138H56.55c-.912 0-1.596-.21-2.052-.63-.456-.42-.684-1.11-.684-2.07v-5.814h-1.278v-1.35h1.278v-2.484h1.638v2.484h2.574v1.35h-2.574Zm13.559 3.204c0 .312-.018.642-.054.99h-7.884c.06.972.39 1.734.99 2.286.612.54 1.35.81 2.214.81.708 0 1.296-.162 1.764-.486.48-.336.816-.78 1.008-1.332h1.764a4.284 4.284 0 0 1-1.584 2.322c-.792.588-1.776.882-2.952.882-.936 0-1.776-.21-2.52-.63a4.492 4.492 0 0 1-1.728-1.782c-.42-.78-.63-1.68-.63-2.7 0-1.02.204-1.914.612-2.682a4.254 4.254 0 0 1 1.71-1.764c.744-.42 1.596-.63 2.556-.63.936 0 1.764.204 2.484.612.72.408 1.272.972 1.656 1.692.396.708.594 1.512.594 2.412Zm-1.692-.342c0-.624-.138-1.158-.414-1.602a2.605 2.605 0 0 0-1.134-1.026c-.468-.24-.99-.36-1.566-.36-.828 0-1.536.264-2.124.792-.576.528-.906 1.26-.99 2.196h6.228Zm5.492-2.61a3.16 3.16 0 0 1 1.224-1.314c.54-.312 1.194-.468 1.962-.468v1.692h-.432c-1.836 0-2.754.996-2.754 2.988V138h-1.638v-9.864h1.638v1.602Z" fill="#A0A0A0"/><path d="M73.617 45.48H53.194l-17.87 17.641 10.21 10.077L73.617 45.48ZM30.214 58.081 20 48l33.19-32.759h20.424l-43.4 42.84Z" fill="#A3A3A3"/><path d="m45.531 73.198 7.66 7.56h20.424l-17.87-17.637-10.214 10.077Z" fill="#6A6A6A"/><path d="m45.531 73.198 15.147-5.174-4.933-4.903-10.214 10.077Z" fill="url(#a)"/><path d="M45.528 53.04 35.316 63.12l10.212 10.079L55.74 63.119 45.528 53.04Z" fill="#868686"/><defs><linearGradient id="a" x1="48.51" y1="75.146" x2="56.017" y2="67.54" gradientUnits="userSpaceOnUse"><stop stop-color="#393939" stop-opacity=".5"/><stop offset="1" stop-color="#393939" stop-opacity="0"/></linearGradient></defs></svg>