<svg width="96" height="136" viewBox="0 0 96 136" fill="none" xmlns="http://www.w3.org/2000/svg">
<path d="M48.3681 10C47.3542 10 46.3679 10.2098 45.495 10.7045L17.8739 26.681C16.0865 27.7129 15 29.6608 15 31.7335V63.6285C15 65.6997 16.0865 67.6451 17.8739 68.6794L25.0873 72.8503C28.5921 74.5802 29.884 74.5532 31.4791 74.5532C36.6678 74.5532 39.6306 71.3996 39.6306 65.9193V34.4349C39.6306 33.99 39.2459 33.6716 38.8098 33.6716H35.3498C34.9064 33.6716 34.5291 33.99 34.5291 34.4349V65.9193C34.5291 68.348 32.0024 70.7914 27.9026 68.7382L20.3958 64.333C20.13 64.1885 19.9263 63.933 19.9263 63.6285V31.7327C19.9263 31.4307 20.1276 31.1229 20.3958 30.9694L47.9581 15.0525C48.0827 14.9797 48.2243 14.9413 48.3685 14.9413C48.5128 14.9413 48.6544 14.9797 48.7789 15.0525L76.3421 30.9702C76.6045 31.1286 76.8116 31.4217 76.8116 31.7344V63.6293C76.8116 63.9338 76.6583 64.2457 76.4008 64.3926L48.7789 80.3103C48.5425 80.4515 48.2165 80.4515 47.9581 80.3103L40.8621 76.0815C40.7542 76.0228 40.6333 75.9921 40.5104 75.9921C40.3876 75.9921 40.2667 76.0228 40.1587 76.0815C38.2001 77.1934 37.8317 77.3224 35.9945 77.9608C35.5422 78.1192 34.8551 78.3649 36.2293 79.1364L45.495 84.5979C46.3686 85.1028 47.3603 85.3664 48.3689 85.362C49.3774 85.3683 50.3693 85.1048 51.242 84.5987L78.8639 68.6802C80.6514 67.6394 81.737 65.7005 81.737 63.6293V31.7335C81.737 29.6616 80.6514 27.717 78.8639 26.6826L51.242 10.7062C50.3764 10.2106 49.3837 10.0008 48.3689 10.0008L48.3681 10Z" fill="#CCCCCC"/>
<path d="M55.7534 32.791C47.888 32.791 43.2038 36.1439 43.2038 41.7197C43.2038 47.7674 47.8529 49.4295 55.4021 50.1773C64.4331 51.0631 65.1365 52.3914 65.1365 54.1719C65.1365 57.2602 62.6782 58.577 56.8684 58.577C49.5678 58.577 47.9638 56.7516 47.4266 53.1147C47.3631 52.7244 47.0623 52.4093 46.6637 52.4093H43.0864C42.6463 52.4093 42.2656 52.7897 42.2656 53.2322C42.2656 57.888 44.794 63.3936 56.8684 63.3936C65.6084 63.3936 70.6496 59.9575 70.6496 53.9368C70.6496 47.9691 66.5775 46.3665 58.0992 45.244C49.5328 44.1084 48.7161 43.5525 48.7161 41.5434C48.7161 39.8845 49.4089 37.6656 55.7534 37.6656C61.4214 37.6656 63.5161 38.8902 64.3744 42.7181C64.4494 43.0773 64.7656 43.3639 65.1365 43.3639H68.7147C68.9347 43.3639 69.1483 43.2284 69.3007 43.07C69.4507 42.901 69.5566 42.7108 69.5354 42.483C68.9812 35.8916 64.5928 32.791 55.7534 32.791Z" fill="#CCCCCC"/>
<path d="M29 130H27.544L21.688 121.12V130H20.232V118.832H21.688L27.544 127.696V118.832H29V130ZM35.306 130.144C34.4847 130.144 33.738 129.957 33.066 129.584C32.4047 129.211 31.882 128.683 31.498 128C31.1247 127.307 30.938 126.507 30.938 125.6C30.938 124.704 31.13 123.915 31.514 123.232C31.9087 122.539 32.442 122.011 33.114 121.648C33.786 121.275 34.538 121.088 35.37 121.088C36.202 121.088 36.954 121.275 37.626 121.648C38.298 122.011 38.826 122.533 39.21 123.216C39.6047 123.899 39.802 124.693 39.802 125.6C39.802 126.507 39.5993 127.307 39.194 128C38.7993 128.683 38.2607 129.211 37.578 129.584C36.8953 129.957 36.138 130.144 35.306 130.144ZM35.306 128.864C35.8287 128.864 36.3193 128.741 36.778 128.496C37.2367 128.251 37.6047 127.883 37.882 127.392C38.17 126.901 38.314 126.304 38.314 125.6C38.314 124.896 38.1753 124.299 37.898 123.808C37.6207 123.317 37.258 122.955 36.81 122.72C36.362 122.475 35.8767 122.352 35.354 122.352C34.8207 122.352 34.33 122.475 33.882 122.72C33.4447 122.955 33.0927 123.317 32.826 123.808C32.5593 124.299 32.426 124.896 32.426 125.6C32.426 126.315 32.554 126.917 32.81 127.408C33.0767 127.899 33.4287 128.267 33.866 128.512C34.3033 128.747 34.7833 128.864 35.306 128.864ZM41.1724 125.584C41.1724 124.688 41.3537 123.904 41.7164 123.232C42.079 122.549 42.575 122.021 43.2044 121.648C43.8444 121.275 44.559 121.088 45.3484 121.088C46.031 121.088 46.6657 121.248 47.2524 121.568C47.839 121.877 48.287 122.288 48.5964 122.8V118.16H50.0684V130H48.5964V128.352C48.3084 128.875 47.8817 129.307 47.3164 129.648C46.751 129.979 46.0897 130.144 45.3324 130.144C44.5537 130.144 43.8444 129.952 43.2044 129.568C42.575 129.184 42.079 128.645 41.7164 127.952C41.3537 127.259 41.1724 126.469 41.1724 125.584ZM48.5964 125.6C48.5964 124.939 48.463 124.363 48.1964 123.872C47.9297 123.381 47.567 123.008 47.1084 122.752C46.6604 122.485 46.1644 122.352 45.6204 122.352C45.0764 122.352 44.5804 122.48 44.1324 122.736C43.6844 122.992 43.327 123.365 43.0604 123.856C42.7937 124.347 42.6604 124.923 42.6604 125.584C42.6604 126.256 42.7937 126.843 43.0604 127.344C43.327 127.835 43.6844 128.213 44.1324 128.48C44.5804 128.736 45.0764 128.864 45.6204 128.864C46.1644 128.864 46.6604 128.736 47.1084 128.48C47.567 128.213 47.9297 127.835 48.1964 127.344C48.463 126.843 48.5964 126.261 48.5964 125.6ZM60.5289 125.28C60.5289 125.557 60.5129 125.851 60.4809 126.16H53.4729C53.5262 127.024 53.8195 127.701 54.3529 128.192C54.8969 128.672 55.5529 128.912 56.3209 128.912C56.9502 128.912 57.4729 128.768 57.8889 128.48C58.3155 128.181 58.6142 127.787 58.7849 127.296H60.3529C60.1182 128.139 59.6489 128.827 58.9449 129.36C58.2409 129.883 57.3662 130.144 56.3209 130.144C55.4889 130.144 54.7422 129.957 54.0809 129.584C53.4302 129.211 52.9182 128.683 52.5449 128C52.1715 127.307 51.9849 126.507 51.9849 125.6C51.9849 124.693 52.1662 123.899 52.5289 123.216C52.8915 122.533 53.3982 122.011 54.0489 121.648C54.7102 121.275 55.4675 121.088 56.3209 121.088C57.1529 121.088 57.8889 121.269 58.5289 121.632C59.1689 121.995 59.6595 122.496 60.0009 123.136C60.3529 123.765 60.5289 124.48 60.5289 125.28ZM59.0249 124.976C59.0249 124.421 58.9022 123.947 58.6569 123.552C58.4115 123.147 58.0755 122.843 57.6489 122.64C57.2329 122.427 56.7689 122.32 56.2569 122.32C55.5209 122.32 54.8915 122.555 54.3689 123.024C53.8569 123.493 53.5635 124.144 53.4889 124.976H59.0249ZM62.9148 130.096C62.6374 130.096 62.4028 130 62.2108 129.808C62.0188 129.616 61.9228 129.381 61.9228 129.104C61.9228 128.827 62.0188 128.592 62.2108 128.4C62.4028 128.208 62.6374 128.112 62.9148 128.112C63.1814 128.112 63.4054 128.208 63.5868 128.4C63.7788 128.592 63.8748 128.827 63.8748 129.104C63.8748 129.381 63.7788 129.616 63.5868 129.808C63.4054 130 63.1814 130.096 62.9148 130.096ZM66.5941 119.808C66.3168 119.808 66.0821 119.712 65.8901 119.52C65.7088 119.328 65.6181 119.093 65.6181 118.816C65.6181 118.539 65.7088 118.304 65.8901 118.112C66.0821 117.92 66.3168 117.824 66.5941 117.824C66.8715 117.824 67.1008 117.92 67.2821 118.112C67.4741 118.304 67.5701 118.539 67.5701 118.816C67.5701 119.093 67.4741 119.328 67.2821 119.52C67.1008 119.712 66.8715 119.808 66.5941 119.808ZM67.3141 131.904C67.3141 132.683 67.1168 133.253 66.7221 133.616C66.3275 133.979 65.7515 134.16 64.9941 134.16H64.1461V132.928H64.7541C65.1595 132.928 65.4421 132.848 65.6021 132.688C65.7728 132.528 65.8581 132.256 65.8581 131.872V121.232H67.3141V131.904ZM72.8829 130.144C72.2109 130.144 71.6082 130.032 71.0749 129.808C70.5415 129.573 70.1202 129.253 69.8109 128.848C69.5015 128.432 69.3309 127.957 69.2989 127.424H70.8029C70.8455 127.861 71.0482 128.219 71.4109 128.496C71.7842 128.773 72.2695 128.912 72.8669 128.912C73.4215 128.912 73.8589 128.789 74.1789 128.544C74.4989 128.299 74.6589 127.989 74.6589 127.616C74.6589 127.232 74.4882 126.949 74.1469 126.768C73.8055 126.576 73.2775 126.389 72.5629 126.208C71.9122 126.037 71.3789 125.867 70.9629 125.696C70.5575 125.515 70.2055 125.253 69.9069 124.912C69.6189 124.56 69.4749 124.101 69.4749 123.536C69.4749 123.088 69.6082 122.677 69.8749 122.304C70.1415 121.931 70.5202 121.637 71.0109 121.424C71.5015 121.2 72.0615 121.088 72.6909 121.088C73.6615 121.088 74.4455 121.333 75.0429 121.824C75.6402 122.315 75.9602 122.987 76.0029 123.84H74.5469C74.5149 123.381 74.3282 123.013 73.9869 122.736C73.6562 122.459 73.2082 122.32 72.6429 122.32C72.1202 122.32 71.7042 122.432 71.3949 122.656C71.0855 122.88 70.9309 123.173 70.9309 123.536C70.9309 123.824 71.0215 124.064 71.2029 124.256C71.3949 124.437 71.6295 124.587 71.9069 124.704C72.1949 124.811 72.5895 124.933 73.0909 125.072C73.7202 125.243 74.2322 125.413 74.6269 125.584C75.0215 125.744 75.3575 125.989 75.6349 126.32C75.9229 126.651 76.0722 127.083 76.0829 127.616C76.0829 128.096 75.9495 128.528 75.6829 128.912C75.4162 129.296 75.0375 129.6 74.5469 129.824C74.0669 130.037 73.5122 130.144 72.8829 130.144Z" fill="#AFAFAF"/>
</svg>
