<svg width="96" height="136" viewBox="0 0 96 136" fill="none" xmlns="http://www.w3.org/2000/svg">
<g clip-path="url(#clip0_9380_56218)">
<path d="M1 48V1H95V95H1" fill="#DFDFDF"/>
<path d="M21.6094 48.1637V51.9942H33.8294V86.7742H42.5009V51.9942H54.7209V48.2342C54.7209 46.1192 54.7209 44.4037 54.6269 44.3567C54.6269 44.2862 47.1774 44.2627 38.1299 44.2627L21.6799 44.3332V48.1872L21.6094 48.1637ZM76.5289 44.2392C78.9259 44.8032 80.7589 45.8842 82.4039 47.5997C83.2734 48.5397 84.5659 50.1847 84.6599 50.6077C84.6599 50.7487 80.5944 53.4982 78.1269 55.0257C78.0329 55.0962 77.6569 54.6967 77.2809 54.0857C76.0589 52.3467 74.8134 51.5947 72.8629 51.4537C70.0429 51.2657 68.1629 52.7462 68.1629 55.2137C68.1629 55.9657 68.3039 56.3887 68.5859 56.9997C69.2204 58.2922 70.3954 59.0677 74.0379 60.6657C80.7589 63.5562 83.6729 65.4597 85.4354 68.1857C87.4329 71.2407 87.8794 76.0347 86.5399 79.6302C85.0359 83.5547 81.3699 86.2102 76.1294 87.0797C74.4844 87.3617 70.7244 87.3147 68.9619 87.0092C65.2019 86.3042 61.6064 84.4242 59.3974 82.0037C58.5279 81.0637 56.8594 78.5492 56.9534 78.3847L57.8464 77.8207L61.3714 75.7762L64.0269 74.2252L64.6379 75.0477C65.4134 76.2697 67.1524 77.9147 68.1629 78.4787C71.2179 80.0532 75.3069 79.8417 77.3279 78.0087C78.1974 77.2097 78.5734 76.3637 78.5734 75.1887C78.5734 74.1077 78.4089 73.6142 77.8684 72.7917C77.1164 71.7577 75.6124 70.9117 71.3824 69.0317C66.5179 66.9637 64.4499 65.6477 62.5229 63.6267C61.4184 62.4047 60.4079 60.5012 59.9379 58.9267C59.5854 57.5637 59.4679 54.2267 59.7969 52.8872C60.8074 48.1872 64.3559 44.8972 69.4319 43.9572C71.0769 43.6282 74.9544 43.7692 76.5759 44.1922L76.5289 44.2392Z" fill="white"/>
</g>
<path d="M14.096 118.848V120.032H11.056V130H9.6V120.032H6.544V118.848H14.096ZM23.4403 121.232L18.1603 134.128H16.6562L18.3843 129.904L14.8483 121.232H16.4643L19.2163 128.336L21.9363 121.232H23.4403ZM26.3599 122.848C26.6479 122.347 27.0745 121.931 27.6399 121.6C28.2159 121.259 28.8825 121.088 29.6399 121.088C30.4185 121.088 31.1225 121.275 31.7519 121.648C32.3919 122.021 32.8932 122.549 33.2559 123.232C33.6185 123.904 33.7999 124.688 33.7999 125.584C33.7999 126.469 33.6185 127.259 33.2559 127.952C32.8932 128.645 32.3919 129.184 31.7519 129.568C31.1225 129.952 30.4185 130.144 29.6399 130.144C28.8932 130.144 28.2319 129.979 27.6559 129.648C27.0905 129.307 26.6585 128.885 26.3599 128.384V134.16H24.9039V121.232H26.3599V122.848ZM32.3119 125.584C32.3119 124.923 32.1785 124.347 31.9119 123.856C31.6452 123.365 31.2825 122.992 30.8239 122.736C30.3759 122.48 29.8799 122.352 29.3359 122.352C28.8025 122.352 28.3065 122.485 27.8479 122.752C27.3999 123.008 27.0372 123.387 26.7599 123.888C26.4932 124.379 26.3599 124.949 26.3599 125.6C26.3599 126.261 26.4932 126.843 26.7599 127.344C27.0372 127.835 27.3999 128.213 27.8479 128.48C28.3065 128.736 28.8025 128.864 29.3359 128.864C29.8799 128.864 30.3759 128.736 30.8239 128.48C31.2825 128.213 31.6452 127.835 31.9119 127.344C32.1785 126.843 32.3119 126.256 32.3119 125.584ZM43.7164 125.28C43.7164 125.557 43.7004 125.851 43.6684 126.16H36.6604C36.7137 127.024 37.007 127.701 37.5404 128.192C38.0844 128.672 38.7404 128.912 39.5084 128.912C40.1377 128.912 40.6604 128.768 41.0764 128.48C41.503 128.181 41.8017 127.787 41.9724 127.296H43.5404C43.3057 128.139 42.8364 128.827 42.1324 129.36C41.4284 129.883 40.5537 130.144 39.5084 130.144C38.6764 130.144 37.9297 129.957 37.2684 129.584C36.6177 129.211 36.1057 128.683 35.7324 128C35.359 127.307 35.1724 126.507 35.1724 125.6C35.1724 124.693 35.3537 123.899 35.7164 123.216C36.079 122.533 36.5857 122.011 37.2364 121.648C37.8977 121.275 38.655 121.088 39.5084 121.088C40.3404 121.088 41.0764 121.269 41.7164 121.632C42.3564 121.995 42.847 122.496 43.1884 123.136C43.5404 123.765 43.7164 124.48 43.7164 125.28ZM42.2124 124.976C42.2124 124.421 42.0897 123.947 41.8444 123.552C41.599 123.147 41.263 122.843 40.8364 122.64C40.4204 122.427 39.9564 122.32 39.4444 122.32C38.7084 122.32 38.079 122.555 37.5564 123.024C37.0444 123.493 36.751 124.144 36.6764 124.976H42.2124ZM48.7423 130.144C48.0703 130.144 47.4676 130.032 46.9343 129.808C46.4009 129.573 45.9796 129.253 45.6703 128.848C45.3609 128.432 45.1903 127.957 45.1583 127.424H46.6623C46.7049 127.861 46.9076 128.219 47.2703 128.496C47.6436 128.773 48.1289 128.912 48.7263 128.912C49.2809 128.912 49.7183 128.789 50.0383 128.544C50.3583 128.299 50.5183 127.989 50.5183 127.616C50.5183 127.232 50.3476 126.949 50.0063 126.768C49.6649 126.576 49.1369 126.389 48.4223 126.208C47.7716 126.037 47.2383 125.867 46.8223 125.696C46.4169 125.515 46.0649 125.253 45.7663 124.912C45.4783 124.56 45.3343 124.101 45.3343 123.536C45.3343 123.088 45.4676 122.677 45.7343 122.304C46.0009 121.931 46.3796 121.637 46.8703 121.424C47.3609 121.2 47.9209 121.088 48.5503 121.088C49.5209 121.088 50.3049 121.333 50.9023 121.824C51.4996 122.315 51.8196 122.987 51.8623 123.84H50.4063C50.3743 123.381 50.1876 123.013 49.8463 122.736C49.5156 122.459 49.0676 122.32 48.5023 122.32C47.9796 122.32 47.5636 122.432 47.2543 122.656C46.9449 122.88 46.7903 123.173 46.7903 123.536C46.7903 123.824 46.8809 124.064 47.0623 124.256C47.2543 124.437 47.4889 124.587 47.7663 124.704C48.0543 124.811 48.4489 124.933 48.9503 125.072C49.5796 125.243 50.0916 125.413 50.4863 125.584C50.8809 125.744 51.2169 125.989 51.4943 126.32C51.7823 126.651 51.9316 127.083 51.9423 127.616C51.9423 128.096 51.8089 128.528 51.5423 128.912C51.2756 129.296 50.8969 129.6 50.4063 129.824C49.9263 130.037 49.3716 130.144 48.7423 130.144ZM53.4536 125.6C53.4536 124.693 53.635 123.904 53.9976 123.232C54.3603 122.549 54.8616 122.021 55.5016 121.648C56.1523 121.275 56.8936 121.088 57.7256 121.088C58.803 121.088 59.6883 121.349 60.3816 121.872C61.0856 122.395 61.5496 123.12 61.7736 124.048H60.2056C60.0563 123.515 59.763 123.093 59.3256 122.784C58.899 122.475 58.3656 122.32 57.7256 122.32C56.8936 122.32 56.2216 122.608 55.7096 123.184C55.1976 123.749 54.9416 124.555 54.9416 125.6C54.9416 126.656 55.1976 127.472 55.7096 128.048C56.2216 128.624 56.8936 128.912 57.7256 128.912C58.3656 128.912 58.899 128.763 59.3256 128.464C59.7523 128.165 60.0456 127.739 60.2056 127.184H61.7736C61.539 128.08 61.0696 128.8 60.3656 129.344C59.6616 129.877 58.7816 130.144 57.7256 130.144C56.8936 130.144 56.1523 129.957 55.5016 129.584C54.8616 129.211 54.3603 128.683 53.9976 128C53.635 127.317 53.4536 126.517 53.4536 125.6ZM65.1724 122.656C65.4284 122.155 65.791 121.765 66.2604 121.488C66.7404 121.211 67.3217 121.072 68.0044 121.072V122.576H67.6204C65.9884 122.576 65.1724 123.461 65.1724 125.232V130H63.7164V121.232H65.1724V122.656ZM70.4371 119.808C70.1598 119.808 69.9251 119.712 69.7331 119.52C69.5411 119.328 69.4451 119.093 69.4451 118.816C69.4451 118.539 69.5411 118.304 69.7331 118.112C69.9251 117.92 70.1598 117.824 70.4371 117.824C70.7038 117.824 70.9278 117.92 71.1091 118.112C71.3011 118.304 71.3971 118.539 71.3971 118.816C71.3971 119.093 71.3011 119.328 71.1091 119.52C70.9278 119.712 70.7038 119.808 70.4371 119.808ZM71.1411 121.232V130H69.6851V121.232H71.1411ZM75.0786 122.848C75.3666 122.347 75.7933 121.931 76.3586 121.6C76.9346 121.259 77.6013 121.088 78.3586 121.088C79.1373 121.088 79.8413 121.275 80.4706 121.648C81.1106 122.021 81.612 122.549 81.9746 123.232C82.3373 123.904 82.5186 124.688 82.5186 125.584C82.5186 126.469 82.3373 127.259 81.9746 127.952C81.612 128.645 81.1106 129.184 80.4706 129.568C79.8413 129.952 79.1373 130.144 78.3586 130.144C77.612 130.144 76.9506 129.979 76.3746 129.648C75.8093 129.307 75.3773 128.885 75.0786 128.384V134.16H73.6226V121.232H75.0786V122.848ZM81.0306 125.584C81.0306 124.923 80.8973 124.347 80.6306 123.856C80.364 123.365 80.0013 122.992 79.5426 122.736C79.0946 122.48 78.5986 122.352 78.0546 122.352C77.5213 122.352 77.0253 122.485 76.5666 122.752C76.1186 123.008 75.756 123.387 75.4786 123.888C75.212 124.379 75.0786 124.949 75.0786 125.6C75.0786 126.261 75.212 126.843 75.4786 127.344C75.756 127.835 76.1186 128.213 76.5666 128.48C77.0253 128.736 77.5213 128.864 78.0546 128.864C78.5986 128.864 79.0946 128.736 79.5426 128.48C80.0013 128.213 80.364 127.835 80.6306 127.344C80.8973 126.843 81.0306 126.256 81.0306 125.584ZM86.2111 122.432V127.6C86.2111 128.027 86.3018 128.331 86.4831 128.512C86.6645 128.683 86.9791 128.768 87.4271 128.768H88.4991V130H87.1871C86.3765 130 85.7685 129.813 85.3631 129.44C84.9578 129.067 84.7551 128.453 84.7551 127.6V122.432H83.6191V121.232H84.7551V119.024H86.2111V121.232H88.4991V122.432H86.2111Z" fill="#AFAFAF"/>
<defs>
<clipPath id="clip0_9380_56218">
<rect width="94" height="94" fill="white" transform="translate(1 1)"/>
</clipPath>
</defs>
</svg>
