<svg width="86" height="138" viewBox="0 0 86 138" fill="none" xmlns="http://www.w3.org/2000/svg">
<g>
<path d="M24.364 128.126C23.536 128.126 22.792 127.982 22.132 127.694C21.484 127.394 20.974 126.986 20.602 126.47C20.23 125.942 20.038 125.336 20.026 124.652H21.772C21.832 125.24 22.072 125.738 22.492 126.146C22.924 126.542 23.548 126.74 24.364 126.74C25.144 126.74 25.756 126.548 26.2 126.164C26.656 125.768 26.884 125.264 26.884 124.652C26.884 124.172 26.752 123.782 26.488 123.482C26.224 123.182 25.894 122.954 25.498 122.798C25.102 122.642 24.568 122.474 23.896 122.294C23.068 122.078 22.402 121.862 21.898 121.646C21.406 121.43 20.98 121.094 20.62 120.638C20.272 120.17 20.098 119.546 20.098 118.766C20.098 118.082 20.272 117.476 20.62 116.948C20.968 116.42 21.454 116.012 22.078 115.724C22.714 115.436 23.44 115.292 24.256 115.292C25.432 115.292 26.392 115.586 27.136 116.174C27.892 116.762 28.318 117.542 28.414 118.514H26.614C26.554 118.034 26.302 117.614 25.858 117.254C25.414 116.882 24.826 116.696 24.094 116.696C23.41 116.696 22.852 116.876 22.42 117.236C21.988 117.584 21.772 118.076 21.772 118.712C21.772 119.168 21.898 119.54 22.15 119.828C22.414 120.116 22.732 120.338 23.104 120.494C23.488 120.638 24.022 120.806 24.706 120.998C25.534 121.226 26.2 121.454 26.704 121.682C27.208 121.898 27.64 122.24 28 122.708C28.36 123.164 28.54 123.788 28.54 124.58C28.54 125.192 28.378 125.768 28.054 126.308C27.73 126.848 27.25 127.286 26.614 127.622C25.978 127.958 25.228 128.126 24.364 128.126ZM32.5885 114.68V128H30.9505V114.68H32.5885ZM34.7681 123.032C34.7681 122.024 34.9721 121.142 35.3801 120.386C35.7881 119.618 36.3461 119.024 37.0541 118.604C37.7741 118.184 38.5721 117.974 39.4481 117.974C40.3121 117.974 41.0621 118.16 41.6981 118.532C42.3341 118.904 42.8081 119.372 43.1201 119.936V118.136H44.7761V128H43.1201V126.164C42.7961 126.74 42.3101 127.22 41.6621 127.604C41.0261 127.976 40.2821 128.162 39.4301 128.162C38.5541 128.162 37.7621 127.946 37.0541 127.514C36.3461 127.082 35.7881 126.476 35.3801 125.696C34.9721 124.916 34.7681 124.028 34.7681 123.032ZM43.1201 123.05C43.1201 122.306 42.9701 121.658 42.6701 121.106C42.3701 120.554 41.9621 120.134 41.4461 119.846C40.9421 119.546 40.3841 119.396 39.7721 119.396C39.1601 119.396 38.6021 119.54 38.0981 119.828C37.5941 120.116 37.1921 120.536 36.8921 121.088C36.5921 121.64 36.4421 122.288 36.4421 123.032C36.4421 123.788 36.5921 124.448 36.8921 125.012C37.1921 125.564 37.5941 125.99 38.0981 126.29C38.6021 126.578 39.1601 126.722 39.7721 126.722C40.3841 126.722 40.9421 126.578 41.4461 126.29C41.9621 125.99 42.3701 125.564 42.6701 125.012C42.9701 124.448 43.1201 123.794 43.1201 123.05ZM46.9322 123.05C46.9322 122.03 47.1362 121.142 47.5442 120.386C47.9522 119.618 48.5162 119.024 49.2362 118.604C49.9682 118.184 50.8022 117.974 51.7382 117.974C52.9502 117.974 53.9462 118.268 54.7262 118.856C55.5182 119.444 56.0402 120.26 56.2922 121.304H54.5282C54.3602 120.704 54.0302 120.23 53.5382 119.882C53.0582 119.534 52.4582 119.36 51.7382 119.36C50.8022 119.36 50.0462 119.684 49.4702 120.332C48.8942 120.968 48.6062 121.874 48.6062 123.05C48.6062 124.238 48.8942 125.156 49.4702 125.804C50.0462 126.452 50.8022 126.776 51.7382 126.776C52.4582 126.776 53.0582 126.608 53.5382 126.272C54.0182 125.936 54.3482 125.456 54.5282 124.832H56.2922C56.0282 125.84 55.5002 126.65 54.7082 127.262C53.9162 127.862 52.9262 128.162 51.7382 128.162C50.8022 128.162 49.9682 127.952 49.2362 127.532C48.5162 127.112 47.9522 126.518 47.5442 125.75C47.1362 124.982 46.9322 124.082 46.9322 123.05ZM63.9858 128L60.1158 123.644V128H58.4778V114.68H60.1158V122.51L63.9138 118.136H66.1998L61.5558 123.05L66.2178 128H63.9858Z" fill="#A0A0A0"/>
<g>
<path fill-rule="evenodd" clip-rule="evenodd" d="M31.5315 0C26.7775 0.00350663 22.9301 3.85378 22.9336 8.59825C22.9301 13.3427 26.781 17.193 31.535 17.1965H40.1364V8.60175C40.1399 3.85729 36.2889 0.00701325 31.5315 0C31.535 0 31.535 0 31.5315 0V0ZM31.5315 22.9333H8.60141C3.84745 22.9368 -0.00350404 26.7871 9.60236e-06 31.5316C-0.00701769 36.276 3.84394 40.1263 8.5979 40.1333H31.5315C36.2854 40.1298 40.1364 36.2795 40.1329 31.5351C40.1364 26.7871 36.2854 22.9368 31.5315 22.9333Z" fill="#DCDCDC"/>
<path fill-rule="evenodd" clip-rule="evenodd" d="M86.0001 31.5316C86.0036 26.7871 82.1527 22.9368 77.3987 22.9333C72.6447 22.9368 68.7938 26.7871 68.7973 31.5316V40.1333H77.3987C82.1527 40.1298 86.0036 36.2796 86.0001 31.5316ZM63.0665 31.5316V8.59825C63.07 3.85729 59.2226 0.00701325 54.4686 0C49.7146 0.00350663 45.8637 3.85378 45.8672 8.59825V31.5316C45.8602 36.276 49.7111 40.1263 54.4651 40.1333C59.2191 40.1298 63.07 36.2796 63.0665 31.5316Z" fill="#B7B7B7"/>
<path fill-rule="evenodd" clip-rule="evenodd" d="M54.4647 86.0001C59.2186 85.9966 63.0696 82.1463 63.0661 77.4019C63.0696 72.6574 59.2186 68.8071 54.4647 68.8036H45.8633V77.4019C45.8598 82.1428 49.7107 85.9931 54.4647 86.0001ZM54.4647 63.0633H77.3982C82.1522 63.0598 86.0032 59.2095 85.9997 54.465C86.0067 49.7206 82.1557 45.8703 77.4018 45.8633H54.4682C49.7142 45.8668 45.8633 49.7171 45.8668 54.4615C45.8633 59.2095 49.7107 63.0598 54.4647 63.0633Z" fill="#A8A8A8"/>
<path fill-rule="evenodd" clip-rule="evenodd" d="M2.4025e-06 54.4654C-0.00351125 59.2099 3.84745 63.0602 8.60142 63.0637C13.3554 63.0602 17.2063 59.2099 17.2028 54.4654V45.8672H8.60142C3.84745 45.8707 -0.00351125 49.721 2.4025e-06 54.4654ZM22.9336 54.4654V77.3988C22.9266 82.1433 26.7775 85.9936 31.5315 86.0006C36.2855 85.9971 40.1364 82.1468 40.1329 77.4023V54.4725C40.1399 49.728 36.289 45.8777 31.535 45.8707C26.7775 45.8707 22.9301 49.721 22.9336 54.4654C22.9336 54.4654 22.9336 54.469 22.9336 54.4654Z" fill="#999999"/>
</g>
</g>
<defs>
<clipPath>
<rect width="86" height="138" fill="white"/>
</clipPath>
<clipPath>
<rect width="86" height="86" fill="white"/>
</clipPath>
</defs>
</svg>
