<svg width="234" height="106" viewBox="0 0 234 106" fill="none" xmlns="http://www.w3.org/2000/svg"><path d="M60.217 93.21h-5.472L53.737 96h-1.728l4.536-12.474h1.89L62.953 96h-1.728l-1.008-2.79Zm-.468-1.332-2.268-6.336-2.268 6.336h4.536Zm9.987-5.922c1.2 0 2.172.366 2.916 1.098.744.72 1.116 1.764 1.116 3.132V96h-1.62v-5.58c0-.984-.246-1.734-.738-2.25-.492-.528-1.164-.792-2.016-.792-.864 0-1.554.27-2.07.81-.504.54-.756 1.326-.756 2.358V96H64.93v-9.864h1.638v1.404a3.266 3.266 0 0 1 1.314-1.17 4.16 4.16 0 0 1 1.854-.414Zm6.096 5.076c0-1.008.204-1.89.612-2.646a4.446 4.446 0 0 1 1.674-1.782c.72-.42 1.524-.63 2.412-.63.768 0 1.482.18 2.142.54.66.348 1.164.81 1.512 1.386v-5.22h1.656V96h-1.656v-1.854c-.324.588-.804 1.074-1.44 1.458-.636.372-1.38.558-2.232.558a4.564 4.564 0 0 1-2.394-.648c-.708-.432-1.266-1.038-1.674-1.818-.408-.78-.612-1.668-.612-2.664Zm8.352.018c0-.744-.15-1.392-.45-1.944a3.098 3.098 0 0 0-1.224-1.26 3.211 3.211 0 0 0-1.674-.45c-.612 0-1.17.144-1.674.432a3.134 3.134 0 0 0-1.206 1.26c-.3.552-.45 1.2-.45 1.944 0 .756.15 1.416.45 1.98.3.552.702.978 1.206 1.278a3.314 3.314 0 0 0 1.674.432c.612 0 1.17-.144 1.674-.432.516-.3.924-.726 1.224-1.278.3-.564.45-1.218.45-1.962Zm6.062-3.312a3.16 3.16 0 0 1 1.224-1.314c.54-.312 1.194-.468 1.962-.468v1.692H93c-1.836 0-2.754.996-2.754 2.988V96h-1.638v-9.864h1.638v1.602Zm9.379 8.424c-.924 0-1.764-.21-2.52-.63a4.58 4.58 0 0 1-1.764-1.782c-.42-.78-.63-1.68-.63-2.7 0-1.008.216-1.896.648-2.664a4.51 4.51 0 0 1 1.8-1.782c.755-.42 1.601-.63 2.537-.63.937 0 1.783.21 2.539.63.756.408 1.35.996 1.782 1.764.444.768.666 1.662.666 2.682s-.228 1.92-.684 2.7a4.634 4.634 0 0 1-1.818 1.782c-.768.42-1.62.63-2.556.63Zm0-1.44a3.46 3.46 0 0 0 1.656-.414c.516-.276.93-.69 1.242-1.242.324-.552.486-1.224.486-2.016s-.156-1.464-.468-2.016c-.312-.552-.72-.96-1.224-1.224a3.356 3.356 0 0 0-1.638-.414c-.6 0-1.153.138-1.657.414-.492.264-.888.672-1.188 1.224-.3.552-.45 1.224-.45 2.016 0 .804.144 1.482.433 2.034.3.552.696.966 1.188 1.242a3.372 3.372 0 0 0 1.62.396Zm8.057-10.188c-.312 0-.576-.108-.792-.324a1.077 1.077 0 0 1-.324-.792c0-.312.108-.576.324-.792.216-.216.48-.324.792-.324.3 0 .552.108.756.324.216.216.324.48.324.792 0 .312-.108.576-.324.792a.998.998 0 0 1-.756.324Zm.792 1.602V96h-1.638v-9.864h1.638Zm2.18 4.896c0-1.008.204-1.89.612-2.646a4.446 4.446 0 0 1 1.674-1.782c.72-.42 1.524-.63 2.412-.63.768 0 1.482.18 2.142.54.66.348 1.164.81 1.512 1.386v-5.22h1.656V96h-1.656v-1.854c-.324.588-.804 1.074-1.44 1.458-.636.372-1.38.558-2.232.558a4.564 4.564 0 0 1-2.394-.648c-.708-.432-1.266-1.038-1.674-1.818-.408-.78-.612-1.668-.612-2.664Zm8.352.018c0-.744-.15-1.392-.45-1.944a3.098 3.098 0 0 0-1.224-1.26 3.211 3.211 0 0 0-1.674-.45c-.612 0-1.17.144-1.674.432a3.134 3.134 0 0 0-1.206 1.26c-.3.552-.45 1.2-.45 1.944 0 .756.15 1.416.45 1.98.3.552.702.978 1.206 1.278a3.314 3.314 0 0 0 1.674.432c.612 0 1.17-.144 1.674-.432.516-.3.924-.726 1.224-1.278.3-.564.45-1.218.45-1.962Zm13.201 5.076c-.828 0-1.572-.144-2.232-.432-.648-.3-1.158-.708-1.53-1.224a3.178 3.178 0 0 1-.576-1.818h1.746c.06.588.3 1.086.72 1.494.432.396 1.056.594 1.872.594.78 0 1.392-.192 1.836-.576.456-.396.684-.9.684-1.512 0-.48-.132-.87-.396-1.17a2.53 2.53 0 0 0-.99-.684c-.396-.156-.93-.324-1.602-.504-.828-.216-1.494-.432-1.998-.648a3.318 3.318 0 0 1-1.278-1.008c-.348-.468-.522-1.092-.522-1.872 0-.684.174-1.29.522-1.818.348-.528.834-.936 1.458-1.224.636-.288 1.362-.432 2.178-.432 1.176 0 2.136.294 2.88.882.756.588 1.182 1.368 1.278 2.34h-1.8c-.06-.48-.312-.9-.756-1.26-.444-.372-1.032-.558-1.764-.558-.684 0-1.242.18-1.674.54-.432.348-.648.84-.648 1.476 0 .456.126.828.378 1.116.264.288.582.51.954.666.384.144.918.312 1.602.504.828.228 1.494.456 1.998.684.504.216.936.558 1.296 1.026.36.456.54 1.08.54 1.872 0 .612-.162 1.188-.486 1.728-.324.54-.804.978-1.44 1.314-.636.336-1.386.504-2.25.504Zm8.584-8.64V93.3c0 .48.102.822.306 1.026.204.192.558.288 1.062.288h1.206V96h-1.476c-.912 0-1.596-.21-2.052-.63-.456-.42-.684-1.11-.684-2.07v-5.814h-1.278v-1.35h1.278v-2.484h1.638v2.484h2.574v1.35h-2.574Zm13.307-1.35V96h-1.638v-1.458c-.312.504-.75.9-1.314 1.188a4.047 4.047 0 0 1-1.836.414c-.768 0-1.458-.156-2.07-.468a3.582 3.582 0 0 1-1.458-1.44c-.348-.636-.522-1.41-.522-2.322v-5.778h1.62v5.562c0 .972.246 1.722.738 2.25.492.516 1.164.774 2.016.774.876 0 1.566-.27 2.07-.81.504-.54.756-1.326.756-2.358v-5.418h1.638Zm2.154 4.896c0-1.008.204-1.89.612-2.646a4.446 4.446 0 0 1 1.674-1.782c.72-.42 1.524-.63 2.412-.63.768 0 1.482.18 2.142.54.66.348 1.164.81 1.512 1.386v-5.22h1.656V96h-1.656v-1.854c-.324.588-.804 1.074-1.44 1.458-.636.372-1.38.558-2.232.558a4.564 4.564 0 0 1-2.394-.648c-.708-.432-1.266-1.038-1.674-1.818-.408-.78-.612-1.668-.612-2.664Zm8.352.018c0-.744-.15-1.392-.45-1.944a3.098 3.098 0 0 0-1.224-1.26 3.211 3.211 0 0 0-1.674-.45c-.612 0-1.17.144-1.674.432a3.134 3.134 0 0 0-1.206 1.26c-.3.552-.45 1.2-.45 1.944 0 .756.15 1.416.45 1.98.3.552.702.978 1.206 1.278a3.314 3.314 0 0 0 1.674.432c.612 0 1.17-.144 1.674-.432.516-.3.924-.726 1.224-1.278.3-.564.45-1.218.45-1.962Zm5.27-6.516c-.312 0-.576-.108-.792-.324a1.077 1.077 0 0 1-.324-.792c0-.312.108-.576.324-.792.216-.216.48-.324.792-.324.3 0 .552.108.756.324.216.216.324.48.324.792 0 .312-.108.576-.324.792a.998.998 0 0 1-.756.324Zm.792 1.602V96h-1.638v-9.864h1.638Zm7.093 10.026c-.924 0-1.764-.21-2.52-.63a4.58 4.58 0 0 1-1.764-1.782c-.42-.78-.63-1.68-.63-2.7 0-1.008.216-1.896.648-2.664a4.51 4.51 0 0 1 1.8-1.782c.756-.42 1.602-.63 2.538-.63.936 0 1.782.21 2.538.63.756.408 1.35.996 1.782 1.764.444.768.666 1.662.666 2.682s-.228 1.92-.684 2.7a4.634 4.634 0 0 1-1.818 1.782c-.768.42-1.62.63-2.556.63Zm0-1.44c.588 0 1.14-.138 1.656-.414.516-.276.93-.69 1.242-1.242.324-.552.486-1.224.486-2.016s-.156-1.464-.468-2.016c-.312-.552-.72-.96-1.224-1.224a3.356 3.356 0 0 0-1.638-.414c-.6 0-1.152.138-1.656.414-.492.264-.888.672-1.188 1.224-.3.552-.45 1.224-.45 2.016 0 .804.144 1.482.432 2.034.3.552.696.966 1.188 1.242a3.372 3.372 0 0 0 1.62.396Z" fill="#A0A0A0"/><path d="M22.123 20.025c3.024 0 5.537 1.601 6.732 3.328V20.45h4.61v21.543h-3.318a1.282 1.282 0 0 1-.932-.394 1.35 1.35 0 0 1-.385-.957v-1.551c-1.17 1.751-3.683 3.353-6.707 3.353-5.757 0-10.123-5.055-10.123-11.21 0-6.155 4.342-11.21 10.123-11.21Zm.804 4.304c-3.731 0-6.268 3.027-6.268 6.905 0 3.879 2.512 6.906 6.268 6.906 3.733 0 6.27-3.027 6.27-6.906 0-3.878-2.489-6.905-6.27-6.905ZM38.71 20.45h4.634v2.928c1.269-2.152 3.66-3.353 6.391-3.353 4.878 0 8.025 3.528 8.025 9.008v12.96h-3.317a1.282 1.282 0 0 1-.933-.394 1.375 1.375 0 0 1-.384-.957V29.808c0-3.403-1.684-5.48-4.367-5.48-3.073 0-5.415 2.453-5.415 7.056v10.61h-3.317a1.282 1.282 0 0 1-.933-.395 1.35 1.35 0 0 1-.384-.957V20.45Zm32.831-.425c3.025 0 5.537 1.601 6.732 3.328V9.69h4.61v32.327h-3.317a1.282 1.282 0 0 1-.933-.394 1.377 1.377 0 0 1-.384-.957v-1.551c-1.17 1.726-3.708 3.328-6.732 3.328-5.757 0-10.123-5.055-10.123-11.21.025-6.155 4.39-11.21 10.147-11.21Zm.83 4.304c-3.732 0-6.269 3.027-6.269 6.905 0 3.879 2.512 6.906 6.269 6.906 3.732 0 6.268-3.027 6.268-6.906 0-3.878-2.536-6.905-6.268-6.905Zm15.757-3.879h4.61v3.829a6.058 6.058 0 0 1 2.144-2.925 5.818 5.818 0 0 1 3.393-1.129 9.17 9.17 0 0 1 1.805.175v4.88a7.283 7.283 0 0 0-2.317-.401c-2.66 0-5.05 2.277-5.05 6.606v10.508h-3.317a1.283 1.283 0 0 1-.933-.394 1.375 1.375 0 0 1-.384-.957V20.45h.049Zm24.44 21.994c-6.22 0-11-4.954-11-11.21 0-6.255 4.78-11.21 11-11.21s11.001 4.955 11.001 11.21c0 6.256-4.781 11.21-11.001 11.21Zm0-4.404c3.708 0 6.293-2.977 6.293-6.806 0-3.828-2.61-6.805-6.293-6.805-3.732 0-6.342 2.977-6.342 6.805 0 3.829 2.61 6.806 6.342 6.806Zm17.05-22.294a3.048 3.048 0 0 1-2.182-.927 3.21 3.21 0 0 1-.903-2.238c0-.84.325-1.644.903-2.238a3.048 3.048 0 0 1 2.182-.927c.819 0 1.603.333 2.182.927.579.594.904 1.399.904 2.238 0 .84-.325 1.645-.904 2.238a3.046 3.046 0 0 1-2.182.927Zm-2.293 4.704h4.61v21.543h-3.317a1.283 1.283 0 0 1-.933-.394 1.355 1.355 0 0 1-.384-.957c.024 0 .024-20.192.024-20.192Zm18.538-.425c3.025 0 5.537 1.601 6.732 3.328V9.69h4.61v32.327h-3.317a1.283 1.283 0 0 1-.933-.394 1.355 1.355 0 0 1-.384-.957v-1.551c-1.171 1.726-3.708 3.328-6.732 3.328-5.757 0-10.123-5.055-10.123-11.21.025-6.155 4.391-11.21 10.147-11.21Zm.854 4.304c-3.732 0-6.269 3.027-6.269 6.905 0 3.879 2.512 6.906 6.269 6.906 3.732 0 6.269-3.027 6.269-6.906 0-3.878-2.537-6.905-6.269-6.905" fill="#6A6A6A"/><path d="M208.045 33.248c-.46 0-.909-.138-1.291-.398a2.35 2.35 0 0 1-.855-1.062 2.41 2.41 0 0 1-.133-1.366c.09-.46.311-.88.636-1.211a2.286 2.286 0 0 1 2.532-.513c.424.179.787.482 1.042.871.256.389.392.846.392 1.314 0 .627-.245 1.229-.681 1.672a2.3 2.3 0 0 1-1.642.693Zm-25.579 0c-.459 0-.909-.138-1.291-.398a2.357 2.357 0 0 1-.855-1.062 2.4 2.4 0 0 1 .503-2.577 2.316 2.316 0 0 1 1.19-.648 2.284 2.284 0 0 1 1.342.135c.425.179.787.482 1.043.871a2.397 2.397 0 0 1-.289 2.986 2.305 2.305 0 0 1-1.643.693Zm26.402-14.191 4.646-8.155a.986.986 0 0 0-.361-1.335.947.947 0 0 0-1.309.374l-4.695 8.254a27.926 27.926 0 0 0-11.881-2.612 28.403 28.403 0 0 0-11.907 2.587l-4.718-8.254a.95.95 0 0 0-1.762.217.98.98 0 0 0 .092.744l4.622 8.155a27.562 27.562 0 0 0-9.862 9.307 28.205 28.205 0 0 0-4.319 12.966H223a28.092 28.092 0 0 0-4.29-12.952 27.47 27.47 0 0 0-9.842-9.296Z" fill="#A3A3A3"/></svg>