<svg width="40" height="40" viewBox="0 0 40 40" fill="none" xmlns="http://www.w3.org/2000/svg"><path fill-rule="evenodd" clip-rule="evenodd" d="M12.352 5.28a9.671 9.671 0 0 1 10.792 14.043 1 1 0 0 0 .21 1.26l10.793 9.321a3 3 0 0 1-4.243 4.243l-9.322-10.793a1 1 0 0 0-1.265-.207A9.671 9.671 0 0 1 5.281 12.352l5.852 5.852a1 1 0 0 0 .903.273l4.714-.943a1 1 0 0 0 .784-.784l.943-4.714a1 1 0 0 0-.273-.903L12.352 5.28Zm7.228 19.973a11.671 11.671 0 0 1-15.655-15.14 1 1 0 0 1 1.31-.531h.001a1 1 0 0 1 .317.214l6.615 6.615 3.536-.707.707-3.536-6.615-6.615a1 1 0 0 1 .317-1.629 11.67 11.67 0 0 1 15.14 15.656l10.23 8.836a5 5 0 1 1-7.067 7.067l-8.836-10.23Z" fill="#161616"/></svg>