<svg width="90" height="90" viewBox="0 0 90 90" fill="none" xmlns="http://www.w3.org/2000/svg"><circle opacity=".5" cx="45" cy="45" r="45" fill="#FFE603"/><path d="M42.501 32.5v7.778a1 1 0 0 1-.47.85l-12.393 7.745a1 1 0 0 0-.47.847v1.5a1 1 0 0 0 1.243.97l10.847-2.713a1 1 0 0 1 1.243.97v4.933a1 1 0 0 1-.341.752l-3.6 3.15c-.764.67-.162 1.918.836 1.736l5.427-.985c.118-.021.239-.021.357 0l5.426.985c.999.184 1.6-1.066.837-1.735l-3.6-3.15a1 1 0 0 1-.342-.753v-4.933a1 1 0 0 1 1.242-.97l10.85 2.713a1 1 0 0 0 1.242-.97v-1.5a1 1 0 0 0-.47-.847L47.97 41.127a1 1 0 0 1-.47-.849V32.5a2.5 2.5 0 0 0-5 0v0Z" stroke="#000" stroke-width="2" stroke-linecap="round" stroke-linejoin="round"/></svg>