<svg width="59" height="59" viewBox="0 0 59 59" fill="none" xmlns="http://www.w3.org/2000/svg"><path d="M33.75 18.625v-7.25c0-.801-.65-1.45-1.45-1.45h-7.25c-.8 0-1.45.649-1.45 1.45v7.25c0 .8.65 1.45 1.45 1.45h7.25c.8 0 1.45-.65 1.45-1.45Zm.723 26.1v-8.7c0-.8-.65-1.45-1.45-1.45h-8.7c-.801 0-1.45.65-1.45 1.45v8.7c0 .801.649 1.45 1.45 1.45h8.7c.8 0 1.45-.649 1.45-1.45Zm17.402 0v-8.7c0-.8-.65-1.45-1.45-1.45h-8.7c-.8 0-1.45.65-1.45 1.45v8.7c0 .801.65 1.45 1.45 1.45h8.7c.8 0 1.45-.649 1.45-1.45Zm-34.801 0v-8.7c0-.8-.649-1.45-1.45-1.45h-8.7c-.8 0-1.45.65-1.45 1.45v8.7c0 .801.65 1.45 1.45 1.45h8.7a1.45 1.45 0 0 0 1.45-1.45Zm11.598-24.65v7.25m0-.725v7.25" stroke="#161616" stroke-width="2" stroke-linecap="round" stroke-linejoin="round"/><path d="M11.274 34.575v-2.9a4.35 4.35 0 0 1 4.35-4.35h26.1a4.35 4.35 0 0 1 4.35 4.35v2.9" stroke="#161616" stroke-width="2" stroke-linecap="round" stroke-linejoin="round"/></svg>