<svg width="41" height="40" viewBox="0 0 41 40" fill="none" xmlns="http://www.w3.org/2000/svg"><path fill-rule="evenodd" clip-rule="evenodd" d="M24.75 9.531a4.533 4.533 0 0 1-3.529 4.42v2.665c.099.066.193.143.28.23L25 20.344h3.197c1.064 0 2.08.429 2.828 1.188a4.062 4.062 0 0 1 1.163 2.849v1.869h4.786c1.085 0 1.965.88 1.965 1.964v4.821c0 1.085-.88 1.965-1.965 1.965H25.402a1.964 1.964 0 0 1-1.965-1.965v-4.821c0-1.085.88-1.964 1.965-1.964h4.785v-1.87c0-.545-.213-1.065-.588-1.446a1.969 1.969 0 0 0-1.403-.591h-2.765c-.09.223-.225.433-.406.614l-3.523 3.524a1.83 1.83 0 0 1-2.59 0l-3.522-3.524a1.826 1.826 0 0 1-.406-.614h-2.742c-.524 0-1.029.21-1.403.59a2.063 2.063 0 0 0-.589 1.447v1.869h4.786c1.085 0 1.964.88 1.964 1.964v4.821C17 34.12 16.12 35 15.036 35H3.464A1.964 1.964 0 0 1 1.5 33.035v-4.821c0-1.085.88-1.964 1.964-1.964H8.25v-1.87c0-1.066.417-2.091 1.164-2.85a3.969 3.969 0 0 1 2.828-1.187h3.173l3.498-3.498a1.85 1.85 0 0 1 .308-.248v-2.646A4.533 4.533 0 0 1 20.22 5a4.531 4.531 0 0 1 4.531 4.531Zm-4.531 2.531a2.531 2.531 0 1 0 0-5.062 2.531 2.531 0 0 0 0 5.062ZM3.5 33v-4.75H15V33H3.5Zm21.938 0v-4.75h11.5V33h-11.5Zm-5.23-8.053-3.284-3.283 3.283-3.284 3.284 3.284-3.284 3.283Z" fill="#161616"/></svg>