<svg width="40" height="40" viewBox="0 0 40 40" fill="none" xmlns="http://www.w3.org/2000/svg"><path fill-rule="evenodd" clip-rule="evenodd" d="M22.5 7a2 2 0 0 1 2 2v5a2 2 0 0 1-2 2H21v3h8a4 4 0 0 1 4 4v1h2a2 2 0 0 1 2 2v6a2 2 0 0 1-2 2h-6a2 2 0 0 1-2-2v-6a2 2 0 0 1 2-2h2v-1a2 2 0 0 0-2-2h-8v3h2a2 2 0 0 1 2 2v6a2 2 0 0 1-2 2h-6a2 2 0 0 1-2-2v-6a2 2 0 0 1 2-2h2v-3h-8a2 2 0 0 0-2 2v1h2a2 2 0 0 1 2 2v6a2 2 0 0 1-2 2H5a2 2 0 0 1-2-2v-6a2 2 0 0 1 2-2h2v-1a4 4 0 0 1 4-4h8v-3h-1.5a2 2 0 0 1-2-2V9a2 2 0 0 1 2-2h5ZM8 26H5v6h6v-6H8Zm24 0h-3v6h6v-6h-3ZM20 14h2.5V9h-5v5H20Zm3 18v-6h-6v6h6Z" fill="#161616"/></svg>