<svg width="163" height="50" viewBox="0 0 163 50" fill="none" xmlns="http://www.w3.org/2000/svg"><path d="M23.472 18.833c0 2.834-2.282 5.167-5.053 5.167s-5.053-2.333-5.053-5.167c0-2.833 2.282-5.166 5.053-5.166s5.053 2.333 5.053 5.166ZM18.419 26c-2.771 0-5.053 2.333-5.053 5.167 0 2.833 2.282 5.166 5.053 5.166s5.053-2.333 5.053-5.166c0-2.834-2.282-5.167-5.053-5.167ZM48.9 25c0 13.833-10.921 25-24.45 25S0 38.833 0 25 10.921 0 24.45 0 48.9 11.167 48.9 25Zm-6.52 0c0-10.167-7.987-18.333-17.93-18.333S6.52 14.833 6.52 25c0 10.167 7.987 18.333 17.93 18.333S42.38 35.167 42.38 25Zm-11.899 1c-2.771 0-5.053 2.333-5.053 5.167 0 2.833 2.282 5.166 5.053 5.166s5.053-2.333 5.053-5.166c0-2.834-2.282-5.167-5.053-5.167Zm0-12.333c-2.771 0-5.053 2.333-5.053 5.166 0 2.834 2.282 5.167 5.053 5.167s5.053-2.333 5.053-5.167c0-2.833-2.282-5.166-5.053-5.166Zm84.108-3.834c.163 0 .326.167.489.334V15.5c0 .333-.326.5-.489.5h-8.639c-.326 0-.489-.333-.489-.5v-5.167c0-.333.326-.5.489-.5h8.639Zm-.163 7.5H97.8c-.163 0-.489.167-.489.5l-2.119 8.334-.163.5-2.608-8.834c0-.166-.326-.5-.489-.5h-6.52c-.163 0-.489.167-.489.5l-2.445 8.334-.163.5-.163-.5L81.174 22l-.978-4.167c0-.166-.326-.5-.489-.5h-13.04v-7.166c0-.167-.326-.5-.652-.334l-8.15 2.667c-.326 0-.489.167-.489.5v4.5h-2.119c-.163 0-.489.167-.489.5v6.333c0 .167.163.5.489.5h2.119v7.834c0 5.5 2.934 8 8.313 8 2.282 0 4.401-.5 5.868-1.334v-6.666c0-.334-.326-.5-.489-.334-.815.334-1.63.5-2.282.5-1.467 0-2.282-.666-2.282-2.333v-5.667h4.727c.163 0 .489-.166.489-.5V19l6.194 21c0 .167.326.5.489.5h6.846c.163 0 .489-.167.489-.5l2.934-9.333 1.467 4.833 1.304 4.5c0 .167.326.5.489.5h6.846c.163 0 .489-.167.489-.5l6.194-21v21c0 .167.163.5.489.5h8.313c.163 0 .489-.167.489-.5V17.833c0-.166-.163-.5-.326-.5Zm10.921-7.5h-8.313c-.163 0-.489.167-.489.5v29.5c0 .167.163.5.489.5h8.313c.163 0 .489-.166.489-.5V10.167c0-.167-.163-.334-.489-.334Zm11.084 0h-8.639c-.163 0-.489.167-.489.5V15.5c0 .167.163.5.489.5h8.639c.163 0 .489-.167.489-.5v-5.333c0-.167-.163-.334-.489-.334Zm-.163 7.5h-8.313c-.163 0-.489.167-.489.5v21.834c0 .166.163.5.489.5h8.313c.163 0 .489-.167.489-.5V17.833c0-.166-.163-.5-.489-.5Zm26.243 11.334c0 6.333-5.216 11.833-12.551 11.833-7.172 0-12.388-5.5-12.388-11.833 0-6.334 5.216-11.834 12.551-11.834 7.172 0 12.388 5.5 12.388 11.834Zm-8.802.166c0-2.333-1.63-4.166-3.586-4-2.119 0-3.586 1.834-3.586 4 0 2.167 1.63 4 3.586 4 2.119 0 3.586-1.833 3.586-4Z" fill="#6A6A6A"/></svg>