<svg
  width="48"
  height="48"
  viewBox="0 0 48 48"
  fill="none"
  xmlns="http://www.w3.org/2000/svg"
>
  <path
    d="M20.5096 32H20.4296C18.818 31.9859 17.2296 31.6136 15.7796 30.91C15.5129 30.7847 15.2933 30.5773 15.1529 30.3182C15.0126 30.0591 14.9588 29.7619 14.9996 29.47C15.0439 29.1762 15.18 28.9039 15.3883 28.692C15.5966 28.4801 15.8666 28.3394 16.1596 28.29C17.0582 28.1701 17.9227 27.8672 18.6996 27.4C17.3508 26.3454 16.3124 24.9456 15.6944 23.3488C15.0765 21.7521 14.9021 20.0179 15.1896 18.33C15.2286 18.0627 15.3436 17.8122 15.5209 17.6083C15.6981 17.4044 15.9303 17.2558 16.1896 17.18C16.4419 17.1008 16.7119 17.0974 16.9662 17.1703C17.2204 17.2432 17.4476 17.3891 17.6196 17.59C18.2036 18.3558 18.9375 18.9946 19.7765 19.4674C20.6155 19.9402 21.5421 20.2371 22.4996 20.34C22.5453 19.1619 23.0516 18.0487 23.9096 17.24C24.338 16.8298 24.8438 16.5089 25.3974 16.2961C25.9511 16.0833 26.5415 15.9828 27.1344 16.0005C27.7273 16.0182 28.3107 16.1537 28.8507 16.3991C29.3907 16.6446 29.8764 16.995 30.2796 17.43C30.3846 17.5229 30.5152 17.5821 30.6542 17.5999C30.7933 17.6177 30.9345 17.5934 31.0596 17.53C31.298 17.4176 31.5635 17.3752 31.8251 17.408C32.0867 17.4407 32.3336 17.5471 32.5369 17.7149C32.7403 17.8826 32.8918 18.1047 32.9737 18.3553C33.0556 18.6058 33.0646 18.8745 32.9996 19.13C32.769 20.0801 32.3319 20.9678 31.7196 21.73C31.5846 24.5748 30.3305 27.2508 28.2305 29.1746C26.1306 31.0985 23.3553 32.1141 20.5096 32ZM20.5096 30H20.5896C21.7523 30.04 22.9113 29.8488 23.9995 29.4375C25.0878 29.0262 26.0835 28.4029 26.929 27.6039C27.7746 26.8049 28.4531 25.8459 28.9253 24.7827C29.3974 23.7195 29.6538 22.5731 29.6796 21.41C29.6961 21.0913 29.8276 20.7893 30.0496 20.56C30.2935 20.2513 30.5015 19.9158 30.6696 19.56C30.3094 19.5607 29.953 19.4853 29.6239 19.3389C29.2948 19.1924 29.0002 18.9781 28.7596 18.71C28.5282 18.4806 28.2534 18.2996 27.9511 18.1777C27.6489 18.0558 27.3254 17.9954 26.9996 18C26.6705 17.9915 26.343 18.0481 26.0358 18.1665C25.7286 18.2849 25.4478 18.4628 25.2096 18.69C24.8882 18.995 24.6525 19.3791 24.5261 19.8038C24.3998 20.2285 24.3872 20.6789 24.4896 21.11L24.7496 22.25L23.5796 22.33C22.3807 22.4278 21.1749 22.2638 20.0456 21.8494C18.9164 21.435 17.8907 20.7801 17.0396 19.93C17.0031 21.2464 17.3324 22.5471 17.9909 23.6876C18.6494 24.828 19.6113 25.7635 20.7696 26.39L21.7196 26.93L21.0896 27.83C20.4083 28.7235 19.4748 29.3923 18.4096 29.75C19.0929 29.9213 19.7952 30.0053 20.4996 30H20.5096Z"
    fill="#171717"
  ></path>
  <circle
    opacity="0.3"
    cx="24"
    cy="24"
    r="23.5"
    stroke="#171717"
  ></circle>
</svg>
