<svg width="48" height="49" viewBox="0 0 48 49" fill="none" xmlns="http://www.w3.org/2000/svg"><path d="M20.51 32.998h-.08a10.87 10.87 0 0 1-4.65-1.09 1.38 1.38 0 0 1-.78-1.44 1.41 1.41 0 0 1 1.16-1.18 6.63 6.63 0 0 0 2.54-.89 9.49 9.49 0 0 1-3.51-9.07 1.41 1.41 0 0 1 1-1.15 1.35 1.35 0 0 1 1.43.41 7.09 7.09 0 0 0 4.88 2.75 4.5 4.5 0 0 1 1.41-3.1 4.47 4.47 0 0 1 6.37.19.701.701 0 0 0 .78.1 1.39 1.39 0 0 1 1.94 1.6 6.661 6.661 0 0 1-1.28 2.6 10.79 10.79 0 0 1-11.21 10.27Zm0-2h.08a8.79 8.79 0 0 0 9.09-8.59 1.32 1.32 0 0 1 .37-.85c.244-.31.452-.645.62-1a2.559 2.559 0 0 1-1.91-.85 2.45 2.45 0 0 0-1.76-.71 2.498 2.498 0 0 0-1.79.69 2.53 2.53 0 0 0-.72 2.42l.26 1.14-1.17.08a8.301 8.301 0 0 1-6.54-2.4 7.12 7.12 0 0 0 3.73 6.46l.95.54-.63.9a5.62 5.62 0 0 1-2.68 1.92 8.346 8.346 0 0 0 2.09.25h.01Z" fill="#fff"/><circle opacity=".3" cx="24" cy="24.998" r="23.5" stroke="#fff"/></svg>