<svg width="24" height="24" viewBox="0 0 24 24" fill="none" xmlns="http://www.w3.org/2000/svg"><circle cx="12" cy="12" r="12" fill="#171717"/><path d="M17.767 9.045c.008.126.008.257.008.386 0 3.932-2.995 8.462-8.467 8.462a8.437 8.437 0 0 1-4.57-1.334c.241.026.472.037.718.037a5.968 5.968 0 0 0 3.694-1.27 2.976 2.976 0 0 1-2.78-2.062c.458.067.87.067 1.341-.053a2.973 2.973 0 0 1-2.38-2.92v-.038c.393.223.856.36 1.341.378a2.976 2.976 0 0 1-.921-3.975 8.445 8.445 0 0 0 6.134 3.11c-.42-2.022 1.09-3.66 2.906-3.66a2.97 2.97 0 0 1 2.172.938 5.877 5.877 0 0 0 1.889-.715 2.96 2.96 0 0 1-1.308 1.637c.6-.064 1.18-.23 1.715-.464a6.235 6.235 0 0 1-1.492 1.543Z" fill="#fff"/></svg>