<svg width="40" height="40" fill="none" xmlns="http://www.w3.org/2000/svg"><path d="M17 26.7a9 9 0 0 1-3.9-1 1.2 1.2 0 0 1 .4-2.1 5 5 0 0 0 2-.8 8 8 0 0 1-2.8-7.5 1.2 1.2 0 0 1 1.4-1c.3 0 .4.2.6.4a6 6 0 0 0 4 2.2 3.8 3.8 0 0 1 6.5-2.4.6.6 0 0 0 .7.1 1.2 1.2 0 0 1 1.6 1.3c-.2.8-.6 1.6-1 2.2a9 9 0 0 1-9.4 8.6Zm0-1.7h.2a7.3 7.3 0 0 0 7.5-7.2l.3-.7.6-.8a2.1 2.1 0 0 1-1.6-.7 2 2 0 0 0-1.5-.6 2 2 0 0 0-2 1.5c-.2.4-.2.7 0 1l.1 1-1 .1a7 7 0 0 1-5.4-2 6 6 0 0 0 3.1 5.4l.8.4-.5.8c-.6.7-1.4 1.3-2.3 1.6a7 7 0 0 0 1.8.2Z" fill="#fff"/><circle opacity=".3" cx="20" cy="20" r="19.5" stroke="#fff"/></svg>