<svg
  width="48"
  height="48"
  viewBox="0 0 48 48"
  fill="none"
  xmlns="http://www.w3.org/2000/svg"
>
  <path
    d="M20.5101 32H20.4301C18.8185 31.9859 17.2301 31.6136 15.7801 30.91C15.5134 30.7847 15.2937 30.5773 15.1534 30.3182C15.013 30.0591 14.9593 29.7619 15.0001 29.47C15.0444 29.1762 15.1805 28.9039 15.3888 28.692C15.5971 28.4801 15.8671 28.3394 16.1601 28.29C17.0587 28.1701 17.9232 27.8672 18.7001 27.4C17.3513 26.3454 16.3128 24.9456 15.6949 23.3488C15.077 21.7521 14.9025 20.0179 15.1901 18.33C15.2291 18.0627 15.3441 17.8122 15.5213 17.6083C15.6986 17.4044 15.9307 17.2558 16.1901 17.18C16.4424 17.1008 16.7124 17.0974 16.9667 17.1703C17.2209 17.2432 17.4481 17.3891 17.6201 17.59C18.2041 18.3558 18.938 18.9946 19.777 19.4674C20.616 19.9402 21.5425 20.2371 22.5001 20.34C22.5458 19.1619 23.0521 18.0487 23.9101 17.24C24.3385 16.8298 24.8443 16.5089 25.3979 16.2961C25.9516 16.0833 26.542 15.9828 27.1349 16.0005C27.7278 16.0182 28.3112 16.1537 28.8512 16.3991C29.3912 16.6446 29.8769 16.995 30.2801 17.43C30.3851 17.5229 30.5156 17.5821 30.6547 17.5999C30.7938 17.6177 30.935 17.5934 31.0601 17.53C31.2985 17.4176 31.564 17.3752 31.8256 17.408C32.0872 17.4407 32.3341 17.5471 32.5374 17.7149C32.7408 17.8826 32.8923 18.1047 32.9742 18.3553C33.0561 18.6058 33.0651 18.8745 33.0001 19.13C32.7694 20.0801 32.3324 20.9678 31.7201 21.73C31.5851 24.5748 30.331 27.2508 28.231 29.1746C26.1311 31.0985 23.3558 32.1141 20.5101 32ZM20.5101 30H20.5901C21.7528 30.04 22.9118 29.8488 24 29.4375C25.0882 29.0262 26.084 28.4029 26.9295 27.6039C27.7751 26.8049 28.4536 25.8459 28.9257 24.7827C29.3979 23.7195 29.6543 22.5731 29.6801 21.41C29.6966 21.0913 29.828 20.7893 30.0501 20.56C30.294 20.2513 30.502 19.9158 30.6701 19.56C30.3098 19.5607 29.9535 19.4853 29.6244 19.3389C29.2952 19.1924 29.0007 18.9781 28.7601 18.71C28.5287 18.4806 28.2538 18.2996 27.9516 18.1777C27.6494 18.0558 27.3259 17.9954 27.0001 18C26.671 17.9915 26.3435 18.0481 26.0363 18.1665C25.7291 18.2849 25.4483 18.4628 25.2101 18.69C24.8887 18.995 24.653 19.3791 24.5266 19.8038C24.4003 20.2285 24.3877 20.6789 24.4901 21.11L24.7501 22.25L23.5801 22.33C22.3812 22.4278 21.1754 22.2638 20.0461 21.8494C18.9169 21.435 17.8912 20.7801 17.0401 19.93C17.0036 21.2464 17.3329 22.5471 17.9914 23.6876C18.6499 24.828 19.6118 25.7635 20.7701 26.39L21.7201 26.93L21.0901 27.83C20.4088 28.7235 19.4753 29.3923 18.4101 29.75C19.0934 29.9213 19.7957 30.0053 20.5001 30H20.5101Z"
    fill="white"
  ></path>
  <circle
    opacity="0.3"
    cx="24"
    cy="24"
    r="23.5"
    stroke="white"
  ></circle>
</svg>
