<svg version="1.1" id="Isolation_Mode" xmlns="http://www.w3.org/2000/svg" x="0" y="0" viewBox="0 0 800 800" xml:space="preserve"><style>.st0{stroke:#212121;stroke-width:4;stroke-linecap:round;stroke-linejoin:round}.st0,.st1{fill:none}.st1,.st2,.st4{stroke:#212121;stroke-linecap:round;stroke-linejoin:round}.st1{stroke-width:2}.st2,.st4{fill:#fff;stroke-width:4}.st4{fill:#212121}</style><path class="st0" d="M651 191c39 46-43 177-182 294S187 659 149 613c-23-27-5-82 42-147"/><path class="st1" d="M161 568c4-18 14-40 29-65m419-308c9 0 21 2 27 9 6 8 5 22 3 32-4 18-14 40-29 65"/><circle class="st2" cx="148.7" cy="612.8" r="30"/><circle class="st2" cx="140.9" cy="567" r="6"/><path class="st0" d="M149 191c-39 46 43 177 182 294s282 174 320 128c22-26 6-79-37-140"/><path class="st2" d="M550 585v-30h-9c-8-11-19-22-35-31-59-34-154-34-212-1-16 10-28 21-35 32h-9v30h0c0 22 15 44 44 61 59 34 154 34 213 1 29-18 44-40 43-62z"/><ellipse transform="matrix(.00541 -1 1 .00541 -157 952)" class="st2" cx="400" cy="555" rx="86.7" ry="150.2"/><ellipse transform="matrix(.00541 -1 1 .00541 -157 952)" class="st2" cx="400" cy="555" rx="37.4" ry="64.7"/><ellipse transform="matrix(.00541 -1 1 .00541 -157 952)" class="st2" cx="400" cy="555" rx="86.7" ry="150.2"/><path class="st0" d="M400 493c59 0 107 28 107 62m-107-27c25 0 46 12 46 27s-20 27-46 27-46-12-46-27"/><ellipse transform="matrix(.00541 -1 1 .00541 -157 952)" class="st0" cx="400" cy="555" rx="12.7" ry="22"/><ellipse transform="matrix(.00541 -1 1 .00541 -203 906)" class="st2" cx="353.6" cy="554.9" rx="8.5" ry="14.7"/><ellipse transform="matrix(.00541 -1 1 .00541 -130 925)" class="st2" cx="399.9" cy="528.2" rx="8.5" ry="14.7"/><ellipse transform="matrix(.00541 -1 1 .00541 -95 890)" class="st2" cx="399.7" cy="493" rx="8.5" ry="14.6"/><ellipse transform="matrix(.00541 -1 1 .00541 -51 1060)" class="st2" cx="507.4" cy="555.2" rx="8.5" ry="14.7"/><path class="st1" d="m515 554 1 1-1 1-7 2-8-2-1-1 1-1"/><path class="st0" d="m506 494-52 30m-116 68-43 25m184-17 28 16m-218-61h34"/><ellipse transform="matrix(.00541 -1 1 .00541 -267 841)" class="st2" cx="288.9" cy="554.8" rx="8.5" ry="14.7"/><path class="st0" d="M400 619v-20"/><ellipse transform="matrix(.00541 -1 1 .00541 -221 1016)" class="st2" cx="400.3" cy="619.1" rx="8.5" ry="14.7"/><path class="st1" d="M409 619c-1 1-4 3-9 3h0c-4 0-7-2-8-3"/><ellipse transform="matrix(.00541 -1 1 .00541 -124 1076)" class="st2" cx="479" cy="600.3" rx="8.5" ry="14.7"/><path class="st1" d="M486 600h1v1l-8 2-7-2-1-1h1"/><ellipse transform="rotate(-89 339 594) scale(.99995)" class="st2" cx="339.3" cy="594.3" rx="8.5" ry="14.7"/><ellipse transform="rotate(-30 478 458)" class="st2" cx="478.1" cy="458.4" rx="43.7" ry="75.7"/><path class="st2" d="M532 489c0-35-25-79-57-97-8-5-17-7-24-7h-1c-18-1-39-14-56-35l-3-3c-10-12-22-17-31-12-5 3-8 10-7 19l1 6c3 25 13 51 28 77 27 46 64 79 98 89h0l18 10 17-10c10-6 17-19 17-37z"/><ellipse transform="rotate(-30 461 468)" class="st2" cx="460.7" cy="468.4" rx="43.7" ry="75.7"/><path class="st2" d="M458 402c-9-5-17-7-24-7h-1c-18-1-39-14-57-35l-2-3c-10-12-23-17-31-12-6 3-8 10-8 19l1 6c4 25 14 52 29 78 30 53 76 87 114 91h6c17 0 29-15 29-40 0-35-25-79-56-97z"/><path class="st2" d="M521 506c0-44-31-98-69-120-21-12-39-12-52-3h0l-46 27-52-30c-19-11-35-3-35 19 0 14 7 30 16 43l53 97h1c4 7 9 14 15 20h0l2 3 1 1 2 2 1 1 2 2 1 1 2 1 1 2 2 1 1 2 2 1 2 1 1 1 2 2 1 1 3 1 1 1 3 2 2 1h1l1 1h1l1 1h1l1 1h0l2 1h1l1 1h2l1 1h2v1h4l3 1h14l8-2h0l1-1h1l1-1h1l1-1h0l2-1h0l63-36h0c14-7 23-23 23-46z"/><path class="st0" d="M259 614v-30"/><path class="st2" d="M482 532s-3-60-52-107l-35-10s38 30 52 54c8 15 15 31 18 47 1 5 4 9 8 11l9 5"/><path class="st2" d="M400 406c39 22 70 73 77 119a10 10 0 0 0 15 7l30-17c5-3 8-9 8-15-5-47-38-101-78-124"/><path class="st2" d="M400 406c39 22 70 73 77 119a10 10 0 0 0 15 7l30-17c5-3 8-9 8-15-5-47-38-101-78-124l-52 30z"/><path class="st0" d="M426 391a174 174 0 0 1 78 127"/><path class="st1" d="M405 398c39 22 72 72 81 120 0 2 2 3 4 3h2l25-15c2-1 3-3 3-5-3-22-11-45-24-67s-31-39-49-49"/><path class="st0" d="M267 625v-30m231 56v-30m9 26v-30m-18 38v-30"/><path class="st1" d="M383 426c38 22 69 76 69 120"/><circle class="st2" cx="434.7" cy="315" r="138"/><path class="st1" d="M378 210h0l30-18h0m18 0-48 28m60-25-55 32m65-27-57 32m63-26-53 30m14 2h0l43-24m-6 13-14 8"/><ellipse transform="matrix(.00541 -1 1 .00541 200 631)" cx="417.3" cy="215" rx="23.3" ry="40.3" fill="none"/><path class="st0" d="M435 203c54 31 98 106 98 169 0 31-11 53-29 63"/><path class="st2" d="M475 200v-16h-81v16h0c0 6 4 12 12 17 16 9 42 9 57 0 8-5 12-11 12-17z"/><ellipse transform="matrix(.00541 -1 1 .00541 248 618)" class="st2" cx="434.7" cy="184.3" rx="23.3" ry="40.3"/><ellipse transform="matrix(.00541 -1 1 .00541 248 618)" class="st1" cx="434.7" cy="184.3" rx="14.5" ry="25"/><ellipse transform="matrix(.00541 -1 1 .00541 248 618)" class="st2" cx="434.7" cy="184.3" rx="4.9" ry="8.6"/><path class="st0" d="M435 116v68"/><circle class="st2" cx="434.7" cy="116.3" r="16"/><ellipse transform="rotate(-30 357 528)" class="st2" cx="356.6" cy="528.4" rx="43.7" ry="75.7"/><path class="st2" d="M410 559c0-31-19-68-45-87h0l-8-5c-14-8-27-10-36-5h0l-4 2-14 8 73 133 17-10h0c11-6 17-18 17-36z"/><path class="st2" d="M410 559c0-35-25-79-56-97-9-5-17-7-24-7h-2c-17-1-38-14-56-35l-2-3c-10-12-22-17-31-12h0l-17 10 9 5v4l1 6c4 25 14 52 29 78 26 45 64 78 98 88h0l17 10 18-10c10-6 16-19 16-37z"/><ellipse transform="rotate(-30 339 538)" class="st2" cx="339.3" cy="538.4" rx="43.7" ry="75.7"/><path class="st2" d="M337 472c-9-5-17-7-25-7h-1c-18-1-39-14-56-35l-3-3c-10-12-22-17-30-12-6 3-9 10-8 19l1 6c4 25 13 52 28 78 31 53 76 87 114 91h6c18-1 30-15 30-40 0-35-25-79-56-97z"/><path class="st2" d="M365 553c0-16-11-36-26-44-7-4-13-5-17-3h0l-2 1-15 9 35 64 17-10c5-2 8-8 8-17z"/><ellipse transform="rotate(-30 322 548)" class="st2" cx="321.9" cy="548.4" rx="21.1" ry="36.6"/><path class="st0" d="m298 444-17 10m26-5-18 10m28-6-17 10"/><ellipse transform="rotate(-30 322 548)" class="st0" cx="321.9" cy="548.4" rx="12.7" ry="22"/><path class="st0" d="m338 557-1 6c-3 6-8 7-15 3-9-5-16-17-16-27 0-7 4-11 10-11l6 2c9 6 16 18 16 27z"/><path class="st0" d="m338 557-1 6-6-2c-9-5-16-17-16-27l1-6 6 2c9 6 16 18 16 27zm27-11-18 10m18 0-17 10m-26-13-9 5m15 1-9 5"/><path class="st2" d="m581 301-7-27c-1-4-4-6-7-5l-2 1-1 1c1 19-12 39-38 54-34 20-84 26-128 19h0v35c0 8 4 15 10 19h0c8 4 17 7 26 7h1c39 0 75-9 103-25 12-7 21-15 28-23a136 136 0 0 0 6-51l9-5z"/><path class="st2" d="M583 315c0 25-16 48-45 65-28 16-64 25-103 25h0c-9 0-15-7-15-15v-34h0l16 1c35 0 69-8 95-23 27-16 42-37 42-61 0-2 1 0 1 0l7 28 2 14z"/><path class="st1" d="M435 395h-1c-2 0-4-3-4-5v-23h5c38 0 74-9 101-24 16-10 28-21 36-34m-174 35 17 10"/><path class="st2" d="M592 392h0c-17 0-37-27-37-27 0-10-7-14-16-9-4 3-8 6-10 11h0c-8 11-18 20-29 26-8 5-18 7-26 8h-2c-9 0-16 7-16 16 0 10 8 25 31 16 27-11 38 9 61 11h6c16 0 29-7 29-16l-1-3 6-4c4-3 9-6 12-11 6-7 2-18-8-18z"/><ellipse transform="rotate(-75 549 422)" class="st2" cx="548.9" cy="421.8" rx="9.5" ry="20.8"/><path class="st2" d="M472 401h2c8-1 18-3 26-7 11-6 21-16 29-27h0c3-5 6-8 11-11 8-5 15-1 15 9 0 0 20 27 37 27h0c10 0 14 11 8 19-3 4-7 7-12 10a90 90 0 0 1-65 4c-7-3-15-6-24-7-8 0-13 0-17 4"/><path class="st1" d="M586 397c-18-4-33-17-39-34m37 47c-11 8-30 10-43 5"/><ellipse transform="rotate(-30 545 380)" class="st0" cx="544.7" cy="380" rx="2.8" ry="4.9"/><path class="st0" d="M363 294c128-99 253-145 288-103"/><circle class="st2" cx="651.3" cy="191.2" r="13"/><path class="st0" d="M366 244c-101-63-188-87-217-53"/><circle class="st2" cx="494.5" cy="279.4" r=".5"/><circle class="st2" cx="511.9" cy="269.4" r=".5"/><circle class="st2" cx="481.5" cy="472" r=".5"/><circle class="st2" cx="498.9" cy="462" r=".5"/><circle class="st2" cx="485.8" cy="265.6" r=".5"/><circle class="st2" cx="503.2" cy="255.6" r=".5"/><circle class="st2" cx="477.1" cy="251.9" r=".5"/><circle class="st2" cx="494.5" cy="241.9" r=".5"/><path class="st1" d="M482 428c-4 0-6-3-6-6s2-6 6-6"/><path class="st2" d="M372 392c0-22-16-49-35-60-10-6-19-6-25-3h0l-17 10v21l7-5c2 21 17 46 35 56l6 3v10l17-10v1c7-4 12-12 12-23z"/><ellipse transform="rotate(-30 319 381)" class="st2" cx="319.5" cy="381.5" rx="28.2" ry="48.8"/><ellipse transform="rotate(-30 319 381)" class="st2" cx="319.5" cy="381.5" rx="19" ry="33"/><path class="st2" d="m343 395-2 9c-3 8-12 10-22 4-12-7-23-25-23-40 0-11 6-17 15-16 3 0 6 1 8 3 13 7 24 25 24 40z"/><path class="st2" d="m343 395-2 9-8-3c-13-8-24-26-24-41l2-8c3 0 6 1 8 3 13 7 24 25 24 40z"/><path class="st0" d="m334 401-13 8m5-13-13 7m18-74-18 10m27-5-18 10"/><circle class="st4" cx="430.7" cy="112.3" r="3"/><circle class="st4" cx="655.3" cy="187.2" r="2"/></svg>
