<svg width="90" height="90" viewBox="0 0 90 90" fill="none" xmlns="http://www.w3.org/2000/svg"><circle opacity=".5" cx="45" cy="45" r="45" fill="#FFE603"/><path stroke="#161616" stroke-width="2" d="M30.18 30.178h29.533v29.533H30.18z"/><path d="M33.8 32.544v-6.287c0-.694-.562-1.257-1.256-1.257h-6.287c-.695 0-1.257.563-1.257 1.257v6.287c0 .694.563 1.257 1.257 1.257h6.287c.694 0 1.257-.563 1.257-1.257ZM33.797 62.893v-6.287c0-.694-.563-1.257-1.257-1.257h-6.287c-.694 0-1.257.563-1.257 1.257v6.287c0 .694.563 1.257 1.257 1.257h6.287c.694 0 1.257-.563 1.257-1.257ZM64.148 32.544v-6.287c0-.694-.562-1.257-1.257-1.257h-6.286c-.695 0-1.258.563-1.258 1.257v6.287c0 .694.563 1.257 1.258 1.257h6.286c.695 0 1.257-.563 1.257-1.257ZM64.148 62.893v-6.287c0-.694-.562-1.257-1.257-1.257h-6.286c-.695 0-1.258.563-1.258 1.257v6.287c0 .694.563 1.257 1.258 1.257h6.286c.695 0 1.257-.563 1.257-1.257Z" fill="#FFF281" stroke="#161616" stroke-width="2" stroke-linecap="round" stroke-linejoin="round"/></svg>