<svg width="90" height="90" viewBox="0 0 90 90" fill="none" xmlns="http://www.w3.org/2000/svg"><circle opacity=".7" cx="45" cy="45" r="45" fill="#FFE603"/><path fill-rule="evenodd" clip-rule="evenodd" d="M54.784 31.884a2.616 2.616 0 0 1 2.462-1.741 2.615 2.615 0 0 1 2.611 2.611 2.615 2.615 0 0 1-2.611 2.612 2.616 2.616 0 0 1-2.462-1.741h-3.257c4.062 2.332 6.59 6.638 6.59 11.316a.87.87 0 0 1-1.742 0c0-5.252-3.702-9.82-8.763-11.014v.568c0 .481-.39.87-.87.87h-3.483a.87.87 0 0 1-.87-.87v-.567c-5.061 1.193-8.764 5.761-8.764 11.014a.87.87 0 0 1-1.74 0c0-4.685 2.532-8.988 6.588-11.318h-3.256a2.616 2.616 0 0 1-2.462 1.742 2.614 2.614 0 0 1-2.612-2.612 2.614 2.614 0 0 1 2.612-2.611c1.135 0 2.102.727 2.462 1.74h7.172v-.87c0-.48.39-.87.87-.87h3.482c.481 0 .87.39.87.87v.87h7.173Zm-22.9.87a.872.872 0 0 0 1.741 0 .872.872 0 0 0-1.74 0Zm12.246.87h1.74v-1.74h-1.74v1.74Zm12.245-.87a.871.871 0 0 0 1.741 0 .872.872 0 0 0-1.74 0ZM44.222 37.59a.871.871 0 0 1 1.559 0l6.093 12.246a.87.87 0 0 1-.052.867l-3.339 5.063v3.221c0 .48-.39.87-.87.87H42.39a.87.87 0 0 1-.87-.87v-3.221l-3.34-5.063a.87.87 0 0 1-.052-.867l6.094-12.246Zm-.962 18.785v1.741h3.482v-1.74H43.26Zm-.401-1.74h4.285l2.949-4.472-4.221-8.481v8.542a.87.87 0 0 1-1.741 0V41.68l-4.22 8.48 2.947 4.472Z" fill="#161616"/></svg>