<svg width="90" height="90" viewBox="0 0 90 90" fill="none" xmlns="http://www.w3.org/2000/svg"><circle opacity=".5" cx="45" cy="45" r="45" fill="#FFE603"/><path d="M39.41 61.045v-6.363c0-.703-.57-1.273-1.273-1.273H22.865c-.703 0-1.273.57-1.273 1.273v6.363c0 .703.57 1.273 1.273 1.273h15.272c.703 0 1.273-.57 1.273-1.273Zm28 0v-6.363c0-.703-.57-1.273-1.273-1.273H50.865c-.703 0-1.273.57-1.273 1.273v6.363c0 .703.57 1.273 1.273 1.273h15.272c.703 0 1.273-.57 1.273-1.273ZM44.504 33.682v6.363m-14 12.473v-2.545a3.818 3.818 0 0 1 3.818-3.818h20.364a3.818 3.818 0 0 1 3.818 3.818v2.545" stroke="#161616" stroke-width="2" stroke-linecap="round" stroke-linejoin="round"/><circle cx="44.502" cy="29.227" r="4.818" fill="#FFF281" stroke="#161616" stroke-width="2"/><path d="m43.713 40.696-4.632 4.632a1.092 1.092 0 0 0 0 1.544l4.632 4.632a1.092 1.092 0 0 0 1.544 0l4.632-4.632a1.092 1.092 0 0 0 0-1.544l-4.632-4.632a1.092 1.092 0 0 0-1.544 0Z" fill="#FFF281" stroke="#161616" stroke-width="2" stroke-linecap="round" stroke-linejoin="round"/></svg>