<svg
  width="90"
  height="90"
  viewBox="0 0 90 90"
  fill="none"
  xmlns="http://www.w3.org/2000/svg"
>
  <circle
    opacity="0.5"
    cx="45"
    cy="45"
    r="45"
    fill="#FFE603"
  ></circle>
  <path
    d="M38.5 49.875H51.5"
    stroke="#161616"
    stroke-width="2"
    stroke-linecap="round"
    stroke-linejoin="round"
  ></path>
  <path
    d="M38.5 43.375H51.5"
    stroke="#161616"
    stroke-width="2"
    stroke-linecap="round"
    stroke-linejoin="round"
  ></path>
  <path
    d="M51.5004 27.125H59.625C60.056 27.125 60.4693 27.2962 60.774 27.601C61.0788 27.9057 61.25 28.319 61.25 28.75V62.875C61.25 63.306 61.0788 63.7193 60.774 64.024C60.4693 64.3288 60.056 64.5 59.625 64.5H30.375C29.944 64.5 29.5307 64.3288 29.226 64.024C28.9212 63.7193 28.75 63.306 28.75 62.875V28.75C28.75 28.319 28.9212 27.9057 29.226 27.601C29.5307 27.2962 29.944 27.125 30.375 27.125H38.4996"
    stroke="#161616"
    stroke-width="2"
    stroke-linecap="round"
    stroke-linejoin="round"
  ></path>
  <path
    d="M36.875 33.625V32C36.875 29.8451 37.731 27.7785 39.2548 26.2548C40.7785 24.731 42.8451 23.875 45 23.875C47.1549 23.875 49.2215 24.731 50.7452 26.2548C52.269 27.7785 53.125 29.8451 53.125 32V33.625H36.875Z"
    stroke="#161616"
    stroke-width="2"
    stroke-linecap="round"
    stroke-linejoin="round"
  ></path>
</svg>
