<svg
  width="90"
  height="90"
  viewBox="0 0 90 90"
  fill="none"
  xmlns="http://www.w3.org/2000/svg"
>
  <circle
    opacity="0.5"
    cx="45"
    cy="45"
    r="45"
    fill="#FFE603"
  ></circle>
  <g clip-path="url(#clip0)">
    <path
      d="M45 65.25C56.1838 65.25 65.25 56.1838 65.25 45C65.25 33.8162 56.1838 24.75 45 24.75C33.8162 24.75 24.75 33.8162 24.75 45C24.75 56.1838 33.8162 65.25 45 65.25Z"
      stroke="#161616"
      stroke-width="2"
      stroke-miterlimit="10"
    ></path>
    <path
      d="M45 51.75C49.6599 51.75 53.4375 47.9724 53.4375 43.3125C53.4375 38.6526 49.6599 34.875 45 34.875C40.3401 34.875 36.5625 38.6526 36.5625 43.3125C36.5625 47.9724 40.3401 51.75 45 51.75Z"
      stroke="#161616"
      stroke-width="2"
      stroke-miterlimit="10"
    ></path>
    <path
      d="M31.4609 60.0555C32.7321 57.5563 34.67 55.4576 37.0601 53.9918C39.4503 52.5259 42.1994 51.75 45.0033 51.75C47.8071 51.75 50.5563 52.5259 52.9465 53.9917C55.3366 55.4576 57.2745 57.5563 58.5457 60.0554"
      stroke="#161616"
      stroke-width="2"
      stroke-linecap="round"
      stroke-linejoin="round"
    ></path>
  </g>
  <defs>
    <clipPath id="clip0">
      <rect
        width="72"
        height="72"
        fill="white"
        transform="translate(9 9)"
      ></rect>
    </clipPath>
  </defs>
</svg>
