<svg width="40" height="40" viewBox="0 0 40 40" fill="none" xmlns="http://www.w3.org/2000/svg">
<path fill-rule="evenodd" clip-rule="evenodd" d="M19.9998 4.06667C11.2 4.06667 4.06644 11.2003 4.06644 20C4.06644 28.7997 11.2 35.9333 19.9998 35.9333C28.7995 35.9333 35.9331 28.7997 35.9331 20C35.9331 11.2003 28.7995 4.06667 19.9998 4.06667ZM1.93311 20C1.93311 10.0221 10.0218 1.93333 19.9998 1.93333C29.9777 1.93333 38.0664 10.0221 38.0664 20C38.0664 29.9779 29.9777 38.0667 19.9998 38.0667C10.0218 38.0667 1.93311 29.9779 1.93311 20Z" fill="#161616"/>
<path fill-rule="evenodd" clip-rule="evenodd" d="M20.0001 12.5667C16.6772 12.5667 13.9834 15.2604 13.9834 18.5833C13.9834 21.9062 16.6772 24.6 20.0001 24.6C23.323 24.6 26.0168 21.9062 26.0168 18.5833C26.0168 15.2604 23.323 12.5667 20.0001 12.5667ZM11.8501 18.5833C11.8501 14.0822 15.499 10.4333 20.0001 10.4333C24.5012 10.4333 28.1501 14.0822 28.1501 18.5833C28.1501 23.0845 24.5012 26.7333 20.0001 26.7333C15.499 26.7333 11.8501 23.0845 11.8501 18.5833Z" fill="#161616"/>
<path fill-rule="evenodd" clip-rule="evenodd" d="M20.0032 26.7333C17.8462 26.7333 15.7312 27.3302 13.8925 28.4579C12.0537 29.5856 10.5629 31.2001 9.58503 33.1227C9.31796 33.6478 8.67579 33.857 8.1507 33.5899C7.62562 33.3228 7.41645 32.6807 7.68352 32.1556C8.83989 29.8821 10.6028 27.9729 12.7772 26.6393C14.9515 25.3058 17.4525 24.6 20.0032 24.6C22.5539 24.6 25.0548 25.3058 27.2292 26.6393C29.4035 27.9728 31.1665 29.882 32.3228 32.1555C32.5899 32.6806 32.3808 33.3228 31.8557 33.5899C31.3306 33.8569 30.6884 33.6478 30.4213 33.1227C29.4434 31.2001 27.9526 29.5856 26.1139 28.4579C24.2751 27.3302 22.1602 26.7333 20.0032 26.7333Z" fill="#161616"/>
</svg>
