<svg width="40" height="40" viewBox="0 0 40 40" fill="none" xmlns="http://www.w3.org/2000/svg"><g clip-path="url(#a)" fill="#161616"><path d="M3.091 8.063a.59.59 0 0 0 .587-.587.59.59 0 0 0-.587-.588.588.588 0 0 0 0 1.175ZM4.97 8.063a.588.588 0 1 0-.002-1.176.588.588 0 0 0 .002 1.176ZM6.849 8.063a.59.59 0 0 0 .587-.587.59.59 0 0 0-.587-.588.59.59 0 0 0-.587.588.59.59 0 0 0 .587.587Z"/><path d="M34.404 13.05H23.132c-1.05 0-1.907.838-1.939 1.88h-.566c-1.07 0-1.94.87-1.94 1.939v4.949h-1.13V20c0-1.07-.87-1.94-1.94-1.94H5.597c-1.07 0-1.94.87-1.94 1.94v5.01c0 1.07.87 1.94 1.94 1.94h10.02c1.07 0 1.94-.87 1.94-1.94v-1.818h1.13v4.949c0 1.07.87 1.94 1.94 1.94h.566a1.942 1.942 0 0 0 1.939 1.878h11.272c1.07 0 1.94-.87 1.94-1.94v-1.252c0-1.07-.87-1.94-1.94-1.94H23.132c-1.05 0-1.907.838-1.939 1.88h-.566a.566.566 0 0 1-.566-.566v-4.95h1.132a1.942 1.942 0 0 0 1.939 1.88h11.272c1.07 0 1.94-.87 1.94-1.94V21.88c0-1.07-.87-1.94-1.94-1.94H23.132c-1.05 0-1.907.837-1.939 1.879h-1.132v-4.95c0-.31.254-.564.566-.564h.566a1.942 1.942 0 0 0 1.939 1.878h11.272c1.07 0 1.94-.87 1.94-1.94V14.99c0-1.07-.87-1.94-1.94-1.94ZM16.182 25.01a.566.566 0 0 1-.565.565H5.597a.566.566 0 0 1-.565-.565V20c0-.312.254-.565.565-.565h10.02c.312 0 .565.253.565.565v5.01Zm6.384 3.757c0-.312.254-.565.566-.565h11.272c.311 0 .565.253.565.565v1.253a.566.566 0 0 1-.565.565H23.132a.566.566 0 0 1-.566-.566v-1.252Zm0-6.888c0-.312.254-.566.566-.566h11.272c.311 0 .565.254.565.566v1.252a.566.566 0 0 1-.565.565H23.132a.566.566 0 0 1-.566-.565V21.88Zm12.403-5.636a.566.566 0 0 1-.565.565H23.132a.566.566 0 0 1-.566-.565V14.99c0-.312.254-.565.566-.565h11.272c.311 0 .565.253.565.565v1.253Z" stroke="#161616" stroke-width=".2"/><path d="M36.908 4.284H3.092A3.196 3.196 0 0 0-.1 7.476v25.048a3.195 3.195 0 0 0 3.192 3.192h33.816a3.196 3.196 0 0 0 3.192-3.192V7.476a3.196 3.196 0 0 0-3.192-3.192ZM3.092 5.658h33.816a1.82 1.82 0 0 1 1.818 1.818v1.817H1.274V7.476a1.82 1.82 0 0 1 1.818-1.818Zm33.816 28.684H3.092a1.82 1.82 0 0 1-1.818-1.818V10.667h37.452v21.857a1.82 1.82 0 0 1-1.818 1.818Z" stroke="#161616" stroke-width=".2"/></g><defs><clipPath id="a"><path fill="#fff" d="M0 0h40v40H0z"/></clipPath></defs></svg>