<svg width="40" height="40" viewBox="0 0 40 40" fill="none" xmlns="http://www.w3.org/2000/svg"><path fill-rule="evenodd" clip-rule="evenodd" d="M15.352 13.545c.188.198.382.402.597.617.613.613.908 1.257.89 1.965a3.032 3.032 0 0 1-.146.817 8.746 8.746 0 0 1-.104.311l-.01.028-.08.233c-.1.31-.13.518-.07.761.039.16.13.383.341.68.139.195.33.422.592.684.66.66 1.099.868 1.364.933.079.019.154.029.23.03.159.002.321-.034.53-.102.074-.024.148-.05.233-.08l.027-.01c.093-.032.2-.069.311-.103.221-.069.5-.14.817-.147.708-.02 1.352.275 1.966.888.212.213.415.405.61.591l.007.007c.194.184.388.368.56.546.33.337.7.76.876 1.294.201.606.107 1.2-.183 1.769-.27.526-.724 1.066-1.315 1.658l-.046.043-.018.018-.005.006c-.03.03-.078.079-.134.133a3.213 3.213 0 0 1-.528.409c-.474.293-1.132.52-1.996.468-1.669-.1-3.946-1.23-7.186-4.47-3.242-3.24-4.372-5.518-4.474-7.186-.053-.865.174-1.522.467-1.997.142-.23.292-.405.409-.528.054-.057.103-.104.133-.134l.006-.005.018-.02.043-.045c.593-.592 1.134-1.047 1.66-1.316.57-.292 1.165-.385 1.771-.184.533.177.956.55 1.292.878.175.17.357.363.539.554l.006.006Zm-3.928 1.553-.004.005a3.141 3.141 0 0 0-.086.085c-.053.056-.107.121-.157.202-.091.147-.2.398-.173.824.056.911.739 2.74 3.892 5.893 3.152 3.152 4.982 3.834 5.893 3.89.425.025.676-.083.823-.174.08-.05.146-.105.202-.158.029-.027.054-.053.086-.086l.004-.004a2.12 2.12 0 0 1 .098-.096c.537-.54.805-.895.927-1.133a.601.601 0 0 0 .07-.19.076.076 0 0 0-.004-.04c-.023-.069-.107-.216-.409-.526a19.906 19.906 0 0 0-.507-.493l-.012-.012c-.193-.183-.41-.39-.641-.62-.17-.17-.29-.246-.37-.279a.272.272 0 0 0-.125-.025h-.004a1.084 1.084 0 0 0-.28.059 6.773 6.773 0 0 0-.24.08l-.028.01c-.082.03-.178.063-.277.095-.458.148-1.085.3-1.852.111-.746-.182-1.493-.652-2.302-1.46-.809-.81-1.279-1.557-1.462-2.302a3.096 3.096 0 0 1 .012-1.51c.03-.123.065-.237.099-.343.031-.098.065-.194.094-.277l.01-.028c.032-.093.058-.168.08-.24.044-.143.057-.224.058-.28v-.004c.002-.042.008-.184-.304-.495a34.206 34.206 0 0 1-.628-.65l-.005-.004c-.19-.2-.347-.366-.493-.508-.31-.303-.457-.387-.525-.41a.07.07 0 0 0-.038-.004.599.599 0 0 0-.19.07c-.239.122-.595.39-1.136.93a2.107 2.107 0 0 1-.096.097Z" fill="#161616"/><path fill-rule="evenodd" clip-rule="evenodd" d="M3 13a7 7 0 0 1 7-7h14a7 7 0 0 1 7 7v1.938l1.963-2.174c.365-.405.83-.675 1.355-.746.52-.07 1.015.068 1.42.328.8.514 1.263 1.489 1.262 2.561L36.986 26.1c0 1.073-.465 2.047-1.266 2.558a2.1 2.1 0 0 1-1.42.323c-.524-.072-.988-.343-1.352-.747L31 26.068V27a7 7 0 0 1-7 7H10a7 7 0 0 1-7-7V13Zm28 10.077v-5.154l3.448-3.82a.438.438 0 0 1 .107-.09.097.097 0 0 1 .03-.013h.005l.01.002c.01.002.029.009.057.027.118.076.343.346.343.877l-.014 11.193c0 .53-.225.798-.342.873a.194.194 0 0 1-.057.026c-.009.003-.014.002-.014.002s-.012-.002-.032-.013a.446.446 0 0 1-.107-.091L31 23.076ZM10 8a5 5 0 0 0-5 5v14a5 5 0 0 0 5 5h14a5 5 0 0 0 5-5V13a5 5 0 0 0-5-5H10Z" fill="#161616"/></svg>