<svg width="120" height="40" viewBox="0 0 120 40" fill="none" xmlns="http://www.w3.org/2000/svg"><rect x=".293" y=".292" width="119.415" height="39.415" rx="4.388" stroke="#fff" stroke-width=".585"/><path d="M40.436 15.27 36.782 25h-1.848l-3.668-9.73h1.708l2.884 8.093 2.898-8.092h1.68Zm2.147.995a.989.989 0 0 1-.728-.294.989.989 0 0 1-.294-.728c0-.29.098-.532.294-.728a.989.989 0 0 1 .728-.294c.28 0 .518.098.714.294a.989.989 0 0 1 .294.728c0 .29-.098.532-.294.728a.972.972 0 0 1-.714.294Zm.784 1.022V25H41.77v-7.714h1.596Zm4.895 7.84a4.01 4.01 0 0 1-1.638-.322 2.96 2.96 0 0 1-1.134-.896 2.267 2.267 0 0 1-.448-1.274h1.652c.028.326.182.602.462.826.29.215.649.322 1.078.322.448 0 .793-.084 1.036-.252.252-.177.378-.401.378-.672 0-.29-.14-.504-.42-.644-.27-.14-.705-.294-1.302-.462a12.645 12.645 0 0 1-1.414-.462 2.54 2.54 0 0 1-.952-.686c-.261-.308-.392-.714-.392-1.218 0-.41.121-.784.364-1.12.243-.345.588-.616 1.036-.812.457-.196.98-.294 1.568-.294.877 0 1.582.224 2.114.672.541.439.83 1.04.868 1.806h-1.596a1.137 1.137 0 0 0-.42-.826c-.252-.205-.593-.308-1.022-.308-.42 0-.742.08-.966.238a.737.737 0 0 0-.336.63c0 .205.075.378.224.518.15.14.331.252.546.336.215.075.532.172.952.294.56.15 1.017.303 1.372.462.364.15.677.373.938.672.261.298.397.695.406 1.19 0 .439-.121.83-.364 1.176-.243.345-.588.616-1.036.812-.439.196-.957.294-1.554.294Zm5.49-8.862a.989.989 0 0 1-.727-.294.989.989 0 0 1-.294-.728c0-.29.098-.532.294-.728a.989.989 0 0 1 .728-.294c.28 0 .518.098.714.294a.989.989 0 0 1 .294.728c0 .29-.098.532-.294.728a.972.972 0 0 1-.714.294Zm.785 1.022V25H52.94v-7.714h1.596Zm3.957 1.302v4.27c0 .29.065.5.196.63.14.121.373.182.7.182h.98V25h-1.26c-.719 0-1.27-.168-1.652-.504-.383-.336-.574-.882-.574-1.638v-4.27h-.91v-1.302h.91v-1.918h1.61v1.918h1.876v1.302h-1.876Zm9.784 6.538a4.01 4.01 0 0 1-1.638-.322 2.96 2.96 0 0 1-1.134-.896 2.267 2.267 0 0 1-.448-1.274h1.652c.028.326.182.602.462.826.29.215.648.322 1.078.322.448 0 .793-.084 1.036-.252.252-.177.378-.401.378-.672 0-.29-.14-.504-.42-.644-.27-.14-.705-.294-1.302-.462a12.652 12.652 0 0 1-1.414-.462 2.54 2.54 0 0 1-.952-.686c-.262-.308-.392-.714-.392-1.218 0-.41.121-.784.364-1.12.242-.345.588-.616 1.036-.812.457-.196.98-.294 1.568-.294.877 0 1.582.224 2.114.672.541.439.83 1.04.868 1.806h-1.596a1.137 1.137 0 0 0-.42-.826c-.252-.205-.593-.308-1.022-.308-.42 0-.742.08-.966.238a.737.737 0 0 0-.336.63c0 .205.074.378.224.518.15.14.331.252.546.336.214.075.532.172.952.294.56.15 1.017.303 1.372.462.364.15.676.373.938.672.261.298.396.695.406 1.19 0 .439-.122.83-.364 1.176-.243.345-.588.616-1.036.812-.439.196-.957.294-1.554.294Zm5.49-8.862a.989.989 0 0 1-.728-.294.989.989 0 0 1-.294-.728c0-.29.098-.532.294-.728a.989.989 0 0 1 .728-.294c.28 0 .518.098.714.294a.989.989 0 0 1 .294.728c0 .29-.098.532-.294.728a.972.972 0 0 1-.714.294Zm.784 1.022V25h-1.596v-7.714h1.596Zm3.958 1.302v4.27c0 .29.065.5.196.63.14.121.373.182.7.182h.98V25h-1.26c-.719 0-1.27-.168-1.652-.504-.383-.336-.574-.882-.574-1.638v-4.27h-.91v-1.302h.91v-1.918h1.61v1.918h1.876v1.302H78.51Zm10.417 2.366c0 .29-.019.55-.056.784h-5.894c.046.616.275 1.11.686 1.484.41.373.914.56 1.512.56.858 0 1.465-.36 1.82-1.078h1.722a3.498 3.498 0 0 1-1.274 1.75c-.607.448-1.363.672-2.268.672-.738 0-1.4-.163-1.988-.49a3.663 3.663 0 0 1-1.372-1.4c-.327-.607-.49-1.307-.49-2.1 0-.794.158-1.489.476-2.086a3.444 3.444 0 0 1 1.358-1.4c.588-.327 1.26-.49 2.016-.49.728 0 1.376.159 1.946.476a3.35 3.35 0 0 1 1.33 1.344c.317.57.476 1.227.476 1.974Zm-1.666-.504c-.01-.588-.22-1.06-.63-1.414-.411-.355-.92-.532-1.526-.532-.551 0-1.022.177-1.414.532-.392.345-.626.817-.7 1.414h4.27Z" fill="#fff"/></svg>