<svg width="90" height="90" viewBox="0 0 90 90" fill="none" xmlns="http://www.w3.org/2000/svg"><circle opacity=".5" cx="45" cy="45" r="45" fill="#FFE603"/><path d="M40.467 27.704c-15.295 0-21.412 13.767-21.412 13.767s6.117 13.763 21.412 13.763c15.294 0 21.411-13.764 21.411-13.764s-6.117-13.766-21.411-13.766Z" stroke="#161616" stroke-width="2" stroke-linecap="round" stroke-linejoin="round"/><path d="M40.467 49.118a7.647 7.647 0 1 0 0-15.294 7.647 7.647 0 0 0 0 15.294Z" stroke="#161616" stroke-width="2" stroke-linecap="round" stroke-linejoin="round"/><path d="M55.647 68.177c9.714 0 17.588-7.875 17.588-17.589C73.235 40.874 65.361 33 55.647 33c-9.714 0-17.588 7.874-17.588 17.588 0 9.714 7.874 17.589 17.588 17.589Z" fill="#FFF281"/><path d="M55.527 62.011c6.374 0 11.542-5.168 11.542-11.542 0-6.375-5.168-11.543-11.542-11.543-6.375 0-11.543 5.168-11.543 11.543 0 6.374 5.168 11.542 11.543 11.542Z" fill="#FFF281" stroke="#161616" stroke-width="2" stroke-linecap="round" stroke-linejoin="round"/><path d="m63.688 58.63 6.678 6.679" stroke="#161616" stroke-width="2" stroke-linecap="round" stroke-linejoin="round"/></svg>