<svg
  width="90"
  height="90"
  viewBox="0 0 90 90"
  fill="none"
  xmlns="http://www.w3.org/2000/svg"
>
  <circle
    opacity="0.5"
    cx="45"
    cy="45"
    r="45"
    fill="#FFE603"
  ></circle>
  <path
    d="M40.4665 27.7043C25.1723 27.7043 19.0547 41.4705 19.0547 41.4705C19.0547 41.4705 25.1723 55.2338 40.4665 55.2338C55.7606 55.2338 61.8782 41.4705 61.8782 41.4705C61.8782 41.4705 55.7606 27.7043 40.4665 27.7043Z"
    stroke="#161616"
    stroke-width="2"
    stroke-linecap="round"
    stroke-linejoin="round"
  ></path>
  <path
    d="M40.4674 49.1178C44.6907 49.1178 48.1144 45.6941 48.1144 41.4708C48.1144 37.2474 44.6907 33.8237 40.4674 33.8237C36.244 33.8237 32.8203 37.2474 32.8203 41.4708C32.8203 45.6941 36.244 49.1178 40.4674 49.1178Z"
    stroke="#161616"
    stroke-width="2"
    stroke-linecap="round"
    stroke-linejoin="round"
  ></path>
  <path
    d="M55.6468 68.1765C65.3605 68.1765 73.2351 60.3019 73.2351 50.5882C73.2351 40.8745 65.3605 33 55.6468 33C45.9331 33 38.0586 40.8745 38.0586 50.5882C38.0586 60.3019 45.9331 68.1765 55.6468 68.1765Z"
    fill="#FFF281"
  ></path>
  <path
    d="M55.5267 62.0111C61.9013 62.0111 67.0689 56.8434 67.0689 50.4688C67.0689 44.0942 61.9013 38.9265 55.5267 38.9265C49.152 38.9265 43.9844 44.0942 43.9844 50.4688C43.9844 56.8434 49.152 62.0111 55.5267 62.0111Z"
    fill="#FFF281"
    stroke="#161616"
    stroke-width="2"
    stroke-linecap="round"
    stroke-linejoin="round"
  ></path>
  <path
    d="M63.6875 58.6307L70.3656 65.3089"
    stroke="#161616"
    stroke-width="2"
    stroke-linecap="round"
    stroke-linejoin="round"
  ></path>
</svg>
