<svg
  width="90"
  height="90"
  viewBox="0 0 90 90"
  fill="none"
  xmlns="http://www.w3.org/2000/svg"
>
  <circle
    opacity="0.5"
    cx="45"
    cy="45"
    r="45"
    fill="#FFE603"
  ></circle>
  <path
    d="M40 58.7501H32.5C32.1685 58.7501 31.8505 58.6184 31.6161 58.3839C31.3817 58.1495 31.25 57.8316 31.25 57.5001V50.5178C31.25 50.3537 31.2823 50.1911 31.3452 50.0395C31.408 49.8878 31.5 49.75 31.6161 49.6339L50.3661 30.8839C50.6005 30.6495 50.9185 30.5178 51.25 30.5178C51.5815 30.5178 51.8995 30.6495 52.1339 30.8839L59.1161 37.8662C59.3505 38.1006 59.4822 38.4185 59.4822 38.7501C59.4822 39.0816 59.3505 39.3995 59.1161 39.6339L40 58.7501Z"
    stroke="#161616"
    stroke-width="2"
    stroke-linecap="round"
    stroke-linejoin="round"
  ></path>
  <path
    d="M46.25 35L55 43.75"
    stroke="#161616"
    stroke-width="2"
    stroke-linecap="round"
    stroke-linejoin="round"
  ></path>
  <path
    d="M58.7486 58.7501H39.9986L31.3281 50.0796"
    stroke="#161616"
    stroke-width="2"
    stroke-linecap="round"
    stroke-linejoin="round"
  ></path>
</svg>
