<svg width="40" height="40" viewBox="0 0 40 40" fill="none" xmlns="http://www.w3.org/2000/svg"><path d="M20 4.063A15.941 15.941 0 0 0 6.088 27.78l-1.37 4.798a2.187 2.187 0 0 0 2.704 2.704l4.798-1.37A15.938 15.938 0 1 0 20 4.062Zm0 30a14.042 14.042 0 0 1-7.176-1.967.94.94 0 0 0-.737-.096l-5.18 1.48a.312.312 0 0 1-.387-.386L8 27.914a.937.937 0 0 0-.096-.737A14.064 14.064 0 1 1 20 34.063Zm8.048-11.437L24.85 20.8a2.19 2.19 0 0 0-2.21.024l-2.008 1.204a6.567 6.567 0 0 1-2.66-2.66l1.205-2.007a2.19 2.19 0 0 0 .023-2.21l-1.826-3.197a2.02 2.02 0 0 0-1.75-1.015 5.314 5.314 0 0 0-5.312 5.293A13.437 13.437 0 0 0 23.75 29.687h.02a5.315 5.315 0 0 0 5.293-5.312 2.018 2.018 0 0 0-1.015-1.749Zm-4.281 5.186h-.017a11.562 11.562 0 0 1-11.562-11.578 3.437 3.437 0 0 1 3.437-3.422.139.139 0 0 1 .121.07l1.827 3.198a.312.312 0 0 1-.003.315l-1.467 2.446a.937.937 0 0 0-.051.866 8.443 8.443 0 0 0 4.241 4.242.938.938 0 0 0 .867-.052l2.445-1.466a.315.315 0 0 1 .316-.004l3.197 1.827a.14.14 0 0 1 .07.121 3.437 3.437 0 0 1-3.421 3.438Z" fill="#161616"/></svg>