<svg
  width="90"
  height="90"
  viewBox="0 0 90 90"
  fill="none"
  xmlns="http://www.w3.org/2000/svg"
>
  <circle
    opacity="0.5"
    cx="45"
    cy="45"
    r="45"
    fill="#FFE603"
  ></circle>
  <path
    d="M20.2539 27.2496C20.2539 26.1319 21.16 25.2258 22.2777 25.2258H67.4129C68.5306 25.2258 69.4367 26.1319 69.4367 27.2496V32.1291H20.2539V27.2496Z"
    fill="#FFF281"
  ></path>
  <path
    d="M20.2539 27.2496C20.2539 26.1319 21.16 25.2258 22.2777 25.2258H67.4129C68.5306 25.2258 69.4367 26.1319 69.4367 27.2496V32.1291H20.2539V27.2496Z"
    stroke="#161616"
    stroke-width="2"
  ></path>
  <path
    d="M20.2539 31.0129H69.4367V61.8601C69.4367 62.9778 68.5306 63.8839 67.4129 63.8839H22.2777C21.16 63.8839 20.2539 62.9778 20.2539 61.8601V31.0129Z"
    fill="#FFF281"
  ></path>
  <path
    fill-rule="evenodd"
    clip-rule="evenodd"
    d="M25.6023 35.9485H64.0843C64.266 35.9485 64.4132 36.0397 64.4132 36.1522V46.1319C64.4132 46.2443 64.266 46.3356 64.0843 46.3356H25.6023C25.4207 46.3356 25.2734 46.2443 25.2734 46.1319V36.1522C25.2734 36.0397 25.4207 35.9485 25.6023 35.9485V35.9485Z"
    stroke="#161616"
    stroke-width="2"
    stroke-linecap="round"
    stroke-linejoin="round"
  ></path>
  <path
    fill-rule="evenodd"
    clip-rule="evenodd"
    d="M25.5612 50.7871H34.7706C34.9295 50.7871 35.0584 50.9461 35.0584 51.1419V58.5936C35.0584 58.7894 34.9295 58.9484 34.7706 58.9484H25.5612C25.4023 58.9484 25.2734 58.7894 25.2734 58.5936V51.1419C25.2734 50.9461 25.4023 50.7871 25.5612 50.7871V50.7871Z"
    stroke="#161616"
    stroke-width="2"
    stroke-linecap="round"
    stroke-linejoin="round"
  ></path>
  <path
    fill-rule="evenodd"
    clip-rule="evenodd"
    d="M39.8841 50.7871H49.8019C49.9731 50.7871 50.1119 50.9461 50.1119 51.1419V58.5936C50.1119 58.7894 49.9731 58.9484 49.8019 58.9484H39.8841C39.713 58.9484 39.5742 58.7894 39.5742 58.5936V51.1419C39.5742 50.9461 39.713 50.7871 39.8841 50.7871V50.7871Z"
    stroke="#161616"
    stroke-width="2"
    stroke-linecap="round"
    stroke-linejoin="round"
  ></path>
  <path
    fill-rule="evenodd"
    clip-rule="evenodd"
    d="M54.9167 50.7871H64.1261C64.285 50.7871 64.4138 50.9461 64.4138 51.1419V58.5936C64.4138 58.7894 64.285 58.9484 64.1261 58.9484H54.9167C54.7578 58.9484 54.6289 58.7894 54.6289 58.5936V51.1419C54.6289 50.9461 54.7578 50.7871 54.9167 50.7871V50.7871Z"
    stroke="#161616"
    stroke-width="2"
    stroke-linecap="round"
    stroke-linejoin="round"
  ></path>
  <path
    d="M20.2539 31.0129H69.4367V61.8601C69.4367 62.9778 68.5306 63.8839 67.4129 63.8839H22.2777C21.16 63.8839 20.2539 62.9778 20.2539 61.8601V31.0129Z"
    stroke="#161616"
    stroke-width="2"
  ></path>
</svg>
