<svg width="40" height="40" viewBox="0 0 40 40" fill="none" xmlns="http://www.w3.org/2000/svg">
<path fill-rule="evenodd" clip-rule="evenodd" d="M4.7975 6H35.393C36.9355 6 38.1905 7.26887 38.1905 8.82847V31.7426C38.1905 33.3022 36.9355 34.5711 35.393 34.5711H4.7975C3.25498 34.5711 2 33.3022 2 31.7426V8.82847C2 7.26887 3.25498 6 4.7975 6ZM35.393 7.0741H4.7975C3.84076 7.0741 3.06234 7.86113 3.06234 8.82847V10.5828H37.1281V8.82847C37.1281 7.86113 36.3497 7.0741 35.393 7.0741ZM4.7975 33.497H35.393C36.3497 33.497 37.1281 32.7099 37.1281 31.7426V11.6569H3.06234V31.7426C3.06234 32.7099 3.84076 33.497 4.7975 33.497ZM7.06205 18.4849C7.26663 18.4276 7.51484 18.3999 7.76471 18.3999H32.2353C32.4852 18.3999 32.7334 18.4276 32.938 18.4849C33.0361 18.5124 33.159 18.5562 33.2713 18.6306C33.3602 18.6895 33.6 18.8745 33.6 19.2141V23.7141C33.6 24.0537 33.3602 24.2388 33.2713 24.2977C33.159 24.372 33.0361 24.4158 32.938 24.4433C32.7334 24.5006 32.4852 24.5284 32.2353 24.5284H7.76471C7.51484 24.5284 7.26663 24.5006 7.06205 24.4433C6.96393 24.4158 6.84102 24.372 6.72873 24.2977C6.63982 24.2388 6.4 24.0537 6.4 23.7141V19.2141C6.4 18.8745 6.63982 18.6895 6.72873 18.6306C6.84102 18.5562 6.96393 18.5124 7.06205 18.4849ZM7.76471 19.5998C7.70486 19.5998 7.64963 19.6023 7.6 19.6063V23.3219C7.64963 23.3259 7.70486 23.3284 7.76471 23.3284H32.2353C32.2951 23.3284 32.3504 23.3259 32.4 23.3219V19.6063C32.3504 19.6023 32.2951 19.5998 32.2353 19.5998H7.76471Z" fill="#161616"/>
<path fill-rule="evenodd" clip-rule="evenodd" d="M6.72893 24.2969L6.56324 24.547C6.45209 24.4733 6.1002 24.21 6.1002 23.7133V19.2133C6.1002 18.7167 6.45209 18.4533 6.56325 18.3797C6.71225 18.281 6.86855 18.2269 6.98128 18.1953C7.21895 18.1286 7.49568 18.0991 7.7649 18.0991H32.2355C32.5047 18.0991 32.7814 18.1286 33.0191 18.1953C33.1318 18.2269 33.2881 18.281 33.4371 18.3797L33.2715 18.6298C33.1592 18.5554 33.0363 18.5116 32.9381 18.4841C32.7336 18.4268 32.4854 18.3991 32.2355 18.3991H7.7649C7.51503 18.3991 7.26682 18.4268 7.06224 18.4841C6.96413 18.5116 6.84122 18.5554 6.72893 18.6298C6.64002 18.6887 6.4002 18.8737 6.4002 19.2133V23.7133C6.4002 24.0529 6.64002 24.238 6.72893 24.2969ZM7.06224 24.4425C6.96413 24.415 6.84122 24.3713 6.72893 24.2969L6.56324 24.547C6.71225 24.6457 6.86855 24.6998 6.98128 24.7314C7.21895 24.798 7.49568 24.8276 7.7649 24.8276H32.2355C32.5047 24.8276 32.7814 24.798 33.0191 24.7314C33.1318 24.6998 33.2881 24.6457 33.4371 24.547C33.5483 24.4733 33.9002 24.21 33.9002 23.7133V19.2133C33.9002 18.7167 33.5483 18.4533 33.4371 18.3797L33.2715 18.6298C33.3604 18.6887 33.6002 18.8737 33.6002 19.2133V23.7133C33.6002 24.0529 33.3604 24.238 33.2715 24.2969C33.1592 24.3713 33.0363 24.415 32.9381 24.4425C32.7336 24.4999 32.4854 24.5276 32.2355 24.5276H7.7649C7.51503 24.5276 7.26682 24.4999 7.06224 24.4425ZM4.7977 5.69922H35.3932C37.1045 5.69922 38.4907 7.10553 38.4907 8.82768V31.7418C38.4907 33.464 37.1045 34.8703 35.3932 34.8703H4.7977C3.08638 34.8703 1.7002 33.464 1.7002 31.7418V8.82768C1.7002 7.10553 3.08638 5.69922 4.7977 5.69922ZM35.3932 7.37331H4.7977C4.00975 7.37331 3.36254 8.0229 3.36254 8.82768V10.282H36.8283V8.82768C36.8283 8.0229 36.1811 7.37331 35.3932 7.37331ZM4.7977 33.1962H35.3932C36.1811 33.1962 36.8283 32.5466 36.8283 31.7418V11.9561H3.36254V31.7418C3.36254 32.5466 4.00975 33.1962 4.7977 33.1962ZM7.9002 19.8991V23.0276H32.1002V19.8991H7.9002ZM32.4002 19.6055V23.3211C32.3506 23.3251 32.2953 23.3276 32.2355 23.3276H7.7649C7.70506 23.3276 7.64982 23.3251 7.6002 23.3211V19.6055C7.64982 19.6015 7.70506 19.5991 7.7649 19.5991H32.2355C32.2953 19.5991 32.3506 19.6015 32.4002 19.6055ZM35.3932 5.99922H4.7977C3.25518 5.99922 2.0002 7.26809 2.0002 8.82768V31.7418C2.0002 33.3014 3.25518 34.5703 4.7977 34.5703H35.3932C36.9357 34.5703 38.1907 33.3014 38.1907 31.7418V8.82768C38.1907 7.26809 36.9357 5.99922 35.3932 5.99922ZM4.7977 7.07332H35.3932C36.3499 7.07332 37.1283 7.86035 37.1283 8.82768V10.582H3.06254V8.82768C3.06254 7.86035 3.84095 7.07332 4.7977 7.07332ZM35.3932 33.4962H4.7977C3.84095 33.4962 3.06254 32.7092 3.06254 31.7418V11.6561H37.1283V31.7418C37.1283 32.7092 36.3499 33.4962 35.3932 33.4962Z" fill="#161616"/>
</svg>
