<svg width="90" height="90" viewBox="0 0 90 90" fill="none" xmlns="http://www.w3.org/2000/svg"><circle opacity=".5" cx="45" cy="45" r="45" fill="#FFE603"/><path d="M20.254 27.25c0-1.118.906-2.024 2.024-2.024h45.135c1.118 0 2.024.906 2.024 2.024v4.88H20.254v-4.88Z" fill="#FFF281"/><path d="M20.254 27.25c0-1.118.906-2.024 2.024-2.024h45.135c1.118 0 2.024.906 2.024 2.024v4.88H20.254v-4.88Z" stroke="#161616" stroke-width="2"/><path d="M20.254 31.013h49.183V61.86a2.024 2.024 0 0 1-2.024 2.024H22.278a2.024 2.024 0 0 1-2.024-2.024V31.013Z" fill="#FFF281"/><path clip-rule="evenodd" d="M25.602 35.949h38.482c.182 0 .33.09.33.203v9.98c0 .112-.148.204-.33.204H25.602c-.181 0-.329-.092-.329-.204v-9.98c0-.112.148-.203.33-.203v0Zm-.041 14.838h9.21c.158 0 .287.16.287.355v7.452c0 .195-.129.354-.287.354h-9.21c-.159 0-.288-.159-.288-.354v-7.452c0-.196.13-.355.288-.355v0Zm14.323 0h9.918c.171 0 .31.16.31.355v7.452c0 .195-.139.354-.31.354h-9.918c-.171 0-.31-.159-.31-.354v-7.452c0-.196.139-.355.31-.355v0Zm15.033 0h9.21c.158 0 .287.16.287.355v7.452c0 .195-.129.354-.288.354h-9.21c-.158 0-.287-.159-.287-.354v-7.452c0-.196.129-.355.288-.355v0Z" stroke="#161616" stroke-width="2" stroke-linecap="round" stroke-linejoin="round"/><path d="M20.254 31.013h49.183V61.86a2.024 2.024 0 0 1-2.024 2.024H22.278a2.024 2.024 0 0 1-2.024-2.024V31.013Z" stroke="#161616" stroke-width="2"/></svg>