<svg width="40" height="40" viewBox="0 0 40 40" fill="none" xmlns="http://www.w3.org/2000/svg"><path fill-rule="evenodd" clip-rule="evenodd" d="M4.798 6h30.595c1.542 0 2.797 1.269 2.797 2.829v22.914c0 1.56-1.255 2.828-2.797 2.828H4.797C3.255 34.571 2 33.303 2 31.743V8.828C2 7.268 3.255 6 4.798 6Zm30.595 1.074H4.797c-.956 0-1.735.787-1.735 1.755v1.754h34.066V8.828c0-.967-.778-1.754-1.735-1.754ZM4.797 33.497h30.596c.957 0 1.735-.787 1.735-1.754V11.657H3.062v20.086c0 .967.779 1.754 1.736 1.754Zm2.265-15.012c.205-.057.453-.085.703-.085h24.47c.25 0 .498.028.703.085.098.028.221.071.333.146a.704.704 0 0 1 .329.583v4.5c0 .34-.24.525-.329.584a1.184 1.184 0 0 1-.333.146 2.683 2.683 0 0 1-.703.085H7.765c-.25 0-.498-.028-.703-.085a1.184 1.184 0 0 1-.333-.146.704.704 0 0 1-.329-.584v-4.5c0-.34.24-.524.329-.583a1.18 1.18 0 0 1 .333-.146Zm.703 1.115c-.06 0-.115.002-.165.006v3.716c.05.004.105.007.165.007h24.47c.06 0 .115-.003.165-.007v-3.715a2.055 2.055 0 0 0-.165-.007H7.765Z" fill="#161616"/><path fill-rule="evenodd" clip-rule="evenodd" d="m6.729 24.298-.166.25c-.11-.074-.463-.337-.463-.834v-4.5c0-.496.352-.76.463-.833.15-.1.306-.153.418-.185.238-.066.515-.096.784-.096h24.47c.27 0 .546.03.784.096.113.032.27.086.418.185l-.165.25a1.184 1.184 0 0 0-.334-.146 2.681 2.681 0 0 0-.703-.085H7.766c-.25 0-.498.028-.703.085a1.184 1.184 0 0 0-.333.146.704.704 0 0 0-.329.583v4.5c0 .34.24.525.329.584Zm.333.146a1.184 1.184 0 0 1-.333-.146l-.166.25c.15.099.306.153.418.184.238.067.515.097.784.097h24.47c.27 0 .546-.03.784-.097a1.44 1.44 0 0 0 .418-.184c.111-.074.463-.337.463-.834v-4.5c0-.496-.352-.76-.463-.833l-.165.25a.704.704 0 0 1 .328.583v4.5c0 .34-.24.525-.328.584a1.184 1.184 0 0 1-.334.146 2.681 2.681 0 0 1-.703.085H7.766c-.25 0-.498-.028-.703-.085ZM4.798 5.7h30.595c1.712 0 3.098 1.406 3.098 3.128v22.915c0 1.722-1.386 3.128-3.098 3.128H4.798c-1.712 0-3.098-1.406-3.098-3.128V8.828C1.7 7.106 3.086 5.7 4.798 5.7Zm30.595 1.674H4.798c-.788 0-1.435.65-1.435 1.455v1.454h33.465V8.829c0-.805-.647-1.455-1.435-1.455ZM4.798 33.197h30.595c.788 0 1.435-.65 1.435-1.454V11.957H3.363v19.786c0 .805.647 1.454 1.435 1.454ZM7.9 19.9v3.129h24.2V19.9H7.9Zm24.5-.293v3.715c-.05.004-.105.007-.164.007H7.765c-.06 0-.115-.003-.165-.007v-3.715a2.01 2.01 0 0 1 .165-.007h24.47c.06 0 .116.002.165.006ZM35.393 6H4.798C3.255 6 2 7.269 2 8.829v22.914c0 1.56 1.255 2.828 2.798 2.828h30.595c1.543 0 2.798-1.268 2.798-2.828V8.828C38.19 7.268 36.936 6 35.393 6ZM4.798 7.074h30.595c.957 0 1.735.787 1.735 1.755v1.754H3.063V8.828c0-.967.778-1.754 1.735-1.754Zm30.595 26.423H4.798a1.747 1.747 0 0 1-1.735-1.754V11.657h34.065v20.086c0 .967-.778 1.754-1.735 1.754Z" fill="#161616"/></svg>