<svg
  width="40"
  height="40"
  viewBox="0 0 40 40"
  fill="none"
  xmlns="http://www.w3.org/2000/svg"
>
  <circle cx="20" cy="20" r="20" fill="#FFE603"></circle>
  <path
    fill-rule="evenodd"
    clip-rule="evenodd"
    d="M24.7499 15.152C24.9738 14.93 25.2761 14.8051 25.5914 14.8042C25.9067 14.8033 26.2097 14.9266 26.4348 15.1473C26.6599 15.368 26.7892 15.6685 26.7945 15.9837C26.7999 16.299 26.681 16.6037 26.4635 16.832L20.0763 24.816C19.9665 24.9342 19.834 25.0291 19.6868 25.0949C19.5395 25.1608 19.3804 25.1963 19.2191 25.1993C19.0578 25.2023 18.8975 25.1727 18.7479 25.1123C18.5983 25.052 18.4624 24.9621 18.3483 24.848L14.1163 20.6144C13.9984 20.5045 13.9038 20.372 13.8383 20.2248C13.7727 20.0776 13.7374 19.9187 13.7346 19.7576C13.7317 19.5965 13.7614 19.4364 13.8217 19.287C13.8821 19.1376 13.9719 19.0018 14.0858 18.8879C14.1998 18.7739 14.3355 18.6841 14.485 18.6238C14.6344 18.5634 14.7944 18.5338 14.9555 18.5366C15.1167 18.5395 15.2756 18.5747 15.4228 18.6403C15.57 18.7059 15.7024 18.8005 15.8123 18.9184L19.1627 22.2672L24.7195 15.1872C24.7294 15.1748 24.7401 15.163 24.7515 15.152H24.7499Z"
    fill="#171717"
  ></path>
</svg>
