<svg xmlns="http://www.w3.org/2000/svg" width="100" height="100" fill="none">
  <rect width="100" height="100" fill="#FFE603" rx="17" />
  <g clip-path="url(#a)" clip-rule="evenodd">
    <path fill="#FFE603" fill-rule="evenodd" d="M49.304 17.961c17.38 0 31.47 14.09 31.47 31.47s-14.09 31.47-31.47 31.47-31.47-14.09-31.47-31.47 14.09-31.47 31.47-31.47Z" />
    <path stroke="#171717" stroke-linejoin="round" stroke-width=".755" d="M49.304 17.961c17.38 0 31.47 14.09 31.47 31.47s-14.09 31.47-31.47 31.47-31.47-14.09-31.47-31.47 14.09-31.47 31.47-31.47Z" />
    <path fill="#171717" fill-rule="evenodd" d="m31.086 55.978 1.74 2.657c10.5-6.864 21.317-6.832 33.083.031l1.613-2.72c-12.746-7.464-24.986-7.464-36.436.032Z" />
    <path fill="#171717" fill-rule="evenodd" d="M49.336 64.011a2.22 2.22 0 0 1-2.214-2.213c0-1.202 1.012-2.214 2.214-2.214s2.214 1.012 2.214 2.213a2.22 2.22 0 0 1-2.214 2.215Zm0-7.622a5.372 5.372 0 0 0-5.377 5.377 5.372 5.372 0 0 0 5.377 5.377 5.372 5.372 0 0 0 5.377-5.377 5.372 5.372 0 0 0-5.377-5.377ZM47.09 45.477l2.214 2.214 13.758-13.726-2.245-2.246L49.367 43.2 37.855 31.687l-2.246 2.246 11.513 11.481-.032.063Z" />
    <path fill="#171717" fill-rule="evenodd" d="M49.304 79.572c-16.636 0-30.141-13.537-30.141-30.141 0-16.605 13.537-30.142 30.141-30.142 16.636 0 30.142 13.537 30.142 30.142 0 16.604-13.537 30.141-30.142 30.141Zm0-63.446C30.928 16.127 16 31.056 16 49.431c0 18.376 14.928 33.304 33.304 33.304S82.608 67.807 82.608 49.43 67.68 16.127 49.304 16.127Z" />
  </g>
  <defs>
    <clipPath id="a">
      <path fill="#fff" d="M0 0h68v68H0z" transform="translate(16 16)" />
    </clipPath>
  </defs>
</svg>
