<svg width="64" height="64" viewBox="0 0 64 64" fill="none" xmlns="http://www.w3.org/2000/svg">
<circle cx="32" cy="32" r="32" fill="#FFE603"/>
<path d="M36.2929 36.2929C35.9024 36.6834 35.9024 37.3166 36.2929 37.7071C36.6834 38.0976 37.3166 38.0976 37.7071 37.7071L36.2929 36.2929ZM42 32L42.7071 32.7071C43.0976 32.3166 43.0976 31.6834 42.7071 31.2929L42 32ZM37.7071 26.2929C37.3166 25.9024 36.6834 25.9024 36.2929 26.2929C35.9024 26.6834 35.9024 27.3166 36.2929 27.7071L37.7071 26.2929ZM27.7071 27.7071C28.0976 27.3166 28.0976 26.6834 27.7071 26.2929C27.3166 25.9024 26.6834 25.9024 26.2929 26.2929L27.7071 27.7071ZM22 32L21.2929 31.2929C20.9024 31.6834 20.9024 32.3166 21.2929 32.7071L22 32ZM26.2929 37.7071C26.6834 38.0976 27.3166 38.0976 27.7071 37.7071C28.0976 37.3166 28.0976 36.6834 27.7071 36.2929L26.2929 37.7071ZM34.9762 23.2169C35.096 22.6778 34.7561 22.1436 34.2169 22.0238C33.6778 21.904 33.1436 22.2439 33.0238 22.7831L34.9762 23.2169ZM29.0238 40.7831C28.904 41.3222 29.2439 41.8564 29.7831 41.9762C30.3222 42.096 30.8564 41.7561 30.9762 41.2169L29.0238 40.7831ZM37.7071 37.7071L42.7071 32.7071L41.2929 31.2929L36.2929 36.2929L37.7071 37.7071ZM42.7071 31.2929L37.7071 26.2929L36.2929 27.7071L41.2929 32.7071L42.7071 31.2929ZM26.2929 26.2929L21.2929 31.2929L22.7071 32.7071L27.7071 27.7071L26.2929 26.2929ZM21.2929 32.7071L26.2929 37.7071L27.7071 36.2929L22.7071 31.2929L21.2929 32.7071ZM33.0238 22.7831L29.0238 40.7831L30.9762 41.2169L34.9762 23.2169L33.0238 22.7831Z" fill="#171717"/>
</svg>
