<svg width="64" height="64" viewBox="0 0 64 64" fill="none" xmlns="http://www.w3.org/2000/svg">
<circle cx="32" cy="32" r="32" fill="#FFE603"/>
<path d="M29.5 41C28.9477 41 28.5 41.4477 28.5 42C28.5 42.5523 28.9477 43 29.5 43V41ZM34.5 43C35.0523 43 35.5 42.5523 35.5 42C35.5 41.4477 35.0523 41 34.5 41V43ZM35 35.3264L34.5709 34.4231C34.2222 34.5888 34 34.9403 34 35.3264H35ZM29 35.3264H30C30 34.9403 29.7778 34.5888 29.4291 34.4231L29 35.3264ZM34.8478 37.7654L33.9239 37.3827L34.8478 37.7654ZM29.5 43H34.5V41H29.5V43ZM35.4291 36.2296C38.1296 34.9468 40 32.1928 40 29H38C38 31.392 36.6003 33.459 34.5709 34.4231L35.4291 36.2296ZM40 29C40 24.5817 36.4183 21 32 21V23C35.3137 23 38 25.6863 38 29H40ZM32 21C27.5817 21 24 24.5817 24 29H26C26 25.6863 28.6863 23 32 23V21ZM24 29C24 32.1928 25.8704 34.9468 28.5709 36.2296L29.4291 34.4231C27.3997 33.459 26 31.392 26 29H24ZM30 36V35.3264H28V36H30ZM34 35.3264V36H36V35.3264H34ZM32 40C32.4523 40 32.8415 40.0005 33.1624 39.9787C33.4922 39.9561 33.8221 39.9066 34.1481 39.7716L33.3827 37.9239C33.3411 37.9411 33.2542 37.9677 33.0262 37.9833C32.7893 37.9995 32.4796 38 32 38V40ZM34 36C34 36.4796 33.9995 36.7893 33.9833 37.0262C33.9677 37.2542 33.9411 37.3411 33.9239 37.3827L35.7716 38.1481C35.9066 37.8221 35.9561 37.4922 35.9787 37.1624C36.0005 36.8415 36 36.4523 36 36H34ZM34.1481 39.7716C34.8831 39.4672 35.4672 38.8831 35.7716 38.1481L33.9239 37.3827C33.8224 37.6277 33.6277 37.8224 33.3827 37.9239L34.1481 39.7716ZM28 36C28 36.4523 27.9995 36.8415 28.0213 37.1624C28.0439 37.4922 28.0934 37.8221 28.2284 38.1481L30.0761 37.3827C30.0589 37.3411 30.0323 37.2542 30.0167 37.0262C30.0005 36.7893 30 36.4796 30 36H28ZM32 38C31.5204 38 31.2107 37.9995 30.9738 37.9833C30.7458 37.9677 30.6589 37.9411 30.6173 37.9239L29.8519 39.7716C30.1779 39.9066 30.5078 39.9561 30.8376 39.9787C31.1585 40.0005 31.5477 40 32 40V38ZM28.2284 38.1481C28.5328 38.8831 29.1169 39.4672 29.8519 39.7716L30.6173 37.9239C30.3723 37.8224 30.1776 37.6277 30.0761 37.3827L28.2284 38.1481Z" fill="#171717"/>
</svg>
