<svg width="64" height="64" viewBox="0 0 64 64" fill="none" xmlns="http://www.w3.org/2000/svg">
<circle cx="32" cy="32" r="32" fill="#FFE603"/>
<path d="M41 33C41.5523 33 42 32.5523 42 32C42 31.4477 41.5523 31 41 31V33ZM29 31C28.4477 31 28 31.4477 28 32C28 32.5523 28.4477 33 29 33V31ZM41 27C41.5523 27 42 26.5523 42 26C42 25.4477 41.5523 25 41 25V27ZM29 25C28.4477 25 28 25.4477 28 26C28 26.5523 28.4477 27 29 27V25ZM41 39C41.5523 39 42 38.5523 42 38C42 37.4477 41.5523 37 41 37V39ZM29 37C28.4477 37 28 37.4477 28 38C28 38.5523 28.4477 39 29 39V37ZM41 31L29 31V33L41 33V31ZM24 32V34C25.1046 34 26 33.1046 26 32H24ZM24 32H22C22 33.1046 22.8954 34 24 34V32ZM24 32V30C22.8954 30 22 30.8954 22 32H24ZM24 32H26C26 30.8954 25.1046 30 24 30V32ZM41 25L29 25V27L41 27V25ZM24 26V28C25.1046 28 26 27.1046 26 26H24ZM24 26H22C22 27.1046 22.8954 28 24 28V26ZM24 26V24C22.8954 24 22 24.8954 22 26H24ZM24 26H26C26 24.8954 25.1046 24 24 24V26ZM41 37L29 37V39L41 39V37ZM24 38V40C25.1046 40 26 39.1046 26 38H24ZM24 38H22C22 39.1046 22.8954 40 24 40V38ZM24 38V36C22.8954 36 22 36.8954 22 38H24ZM24 38H26C26 36.8954 25.1046 36 24 36V38Z" fill="#171717"/>
</svg>
