<svg width="64" height="64" viewBox="0 0 64 64" fill="none" xmlns="http://www.w3.org/2000/svg">
<circle cx="32" cy="32" r="32" fill="#FFE603"/>
<path d="M25.5 39C24.9477 39 24.5 39.4477 24.5 40C24.5 40.5523 24.9477 41 25.5 41V39ZM28 41C28.5523 41 29 40.5523 29 40C29 39.4477 28.5523 39 28 39V41ZM36 37C36 37.5523 36.4477 38 37 38C37.5523 38 38 37.5523 38 37H36ZM38 36.8C38 36.2477 37.5523 35.8 37 35.8C36.4477 35.8 36 36.2477 36 36.8H38ZM33.092 39.782L33.546 38.891L33.092 39.782ZM32.218 38.908L33.109 38.454L32.218 38.908ZM41.782 38.908L40.891 38.454L41.782 38.908ZM40.908 39.782L40.454 38.891L40.908 39.782ZM40.908 24.218L40.454 25.109L40.908 24.218ZM41.782 25.092L40.891 25.546L41.782 25.092ZM33.092 24.218L33.546 25.109L33.092 24.218ZM32.218 25.092L33.109 25.546L32.218 25.092ZM28 27C28.5523 27 29 26.5523 29 26C29 25.4477 28.5523 25 28 25V27ZM28 37C28.5523 37 29 36.5523 29 36C29 35.4477 28.5523 35 28 35V37ZM23.092 35.782L23.546 34.891H23.546L23.092 35.782ZM22.218 34.908L23.109 34.454L23.109 34.454L22.218 34.908ZM23.092 26.218L22.638 25.327L22.638 25.327L23.092 26.218ZM22.218 27.092L21.327 26.638H21.327L22.218 27.092ZM25.5 41H28V39H25.5V41ZM38 37V36.8H36V37H38ZM35.2 25H38.8V23H35.2V25ZM41 27.2V36.8H43V27.2H41ZM38.8 39H35.2V41H38.8V39ZM33 36.8V27.2H31V36.8H33ZM35.2 39C34.6234 39 34.2512 38.9992 33.9678 38.9761C33.6962 38.9539 33.5955 38.9162 33.546 38.891L32.638 40.673C33.0164 40.8658 33.4096 40.9371 33.805 40.9694C34.1886 41.0008 34.6564 41 35.2 41V39ZM31 36.8C31 37.3436 30.9992 37.8114 31.0306 38.195C31.0629 38.5904 31.1342 38.9836 31.327 39.362L33.109 38.454C33.0838 38.4045 33.0461 38.3038 33.0239 38.0322C33.0008 37.7488 33 37.3766 33 36.8H31ZM33.546 38.891C33.3578 38.7951 33.2049 38.6422 33.109 38.454L31.327 39.362C31.6146 39.9265 32.0735 40.3854 32.638 40.673L33.546 38.891ZM41 36.8C41 37.3766 40.9992 37.7488 40.9761 38.0322C40.9539 38.3038 40.9162 38.4045 40.891 38.454L42.673 39.362C42.8658 38.9836 42.9371 38.5904 42.9694 38.195C43.0008 37.8114 43 37.3436 43 36.8H41ZM38.8 41C39.3436 41 39.8114 41.0008 40.195 40.9694C40.5904 40.9371 40.9836 40.8658 41.362 40.673L40.454 38.891C40.4045 38.9162 40.3038 38.9539 40.0322 38.9761C39.7488 38.9992 39.3766 39 38.8 39V41ZM40.891 38.454C40.7951 38.6422 40.6422 38.7951 40.454 38.891L41.362 40.673C41.9265 40.3854 42.3854 39.9265 42.673 39.362L40.891 38.454ZM38.8 25C39.3766 25 39.7488 25.0008 40.0322 25.0239C40.3038 25.0461 40.4045 25.0838 40.454 25.109L41.362 23.327C40.9836 23.1342 40.5904 23.0629 40.195 23.0306C39.8114 22.9992 39.3436 23 38.8 23V25ZM43 27.2C43 26.6564 43.0008 26.1886 42.9694 25.805C42.9371 25.4096 42.8658 25.0164 42.673 24.638L40.891 25.546C40.9162 25.5955 40.9539 25.6962 40.9761 25.9678C40.9992 26.2512 41 26.6234 41 27.2H43ZM40.454 25.109C40.6422 25.2049 40.7951 25.3578 40.891 25.546L42.673 24.638C42.3854 24.0735 41.9265 23.6146 41.362 23.327L40.454 25.109ZM35.2 23C34.6564 23 34.1886 22.9992 33.805 23.0306C33.4096 23.0629 33.0164 23.1342 32.638 23.327L33.546 25.109C33.5955 25.0838 33.6962 25.0461 33.9678 25.0239C34.2512 25.0008 34.6234 25 35.2 25V23ZM33 27.2C33 26.6234 33.0008 26.2512 33.0239 25.9678C33.0461 25.6962 33.0838 25.5955 33.109 25.546L31.327 24.638C31.1342 25.0164 31.0629 25.4096 31.0306 25.805C30.9992 26.1886 31 26.6564 31 27.2H33ZM32.638 23.327C32.0735 23.6146 31.6146 24.0735 31.327 24.638L33.109 25.546C33.2049 25.3578 33.3578 25.2049 33.546 25.109L32.638 23.327ZM25.2 27H28V25H25.2V27ZM28 35H25.2V37H28V35ZM23 32.8V29.2H21V32.8H23ZM25.2 35C24.6234 35 24.2512 34.9992 23.9678 34.9761C23.6962 34.9539 23.5955 34.9162 23.546 34.891L22.638 36.673C23.0164 36.8658 23.4096 36.9371 23.805 36.9694C24.1886 37.0008 24.6564 37 25.2 37V35ZM21 32.8C21 33.3436 20.9992 33.8114 21.0306 34.195C21.0629 34.5904 21.1342 34.9836 21.327 35.362L23.109 34.454C23.0838 34.4045 23.0461 34.3038 23.0239 34.0322C23.0008 33.7488 23 33.3766 23 32.8H21ZM23.546 34.891C23.3578 34.7951 23.2049 34.6422 23.109 34.454L21.327 35.362C21.6146 35.9265 22.0735 36.3854 22.638 36.673L23.546 34.891ZM25.2 25C24.6564 25 24.1886 24.9992 23.805 25.0306C23.4096 25.0629 23.0164 25.1342 22.638 25.327L23.546 27.109C23.5955 27.0838 23.6962 27.0461 23.9678 27.0239C24.2512 27.0008 24.6234 27 25.2 27V25ZM23 29.2C23 28.6234 23.0008 28.2512 23.0239 27.9678C23.0461 27.6962 23.0838 27.5955 23.109 27.546L21.327 26.638C21.1342 27.0164 21.0629 27.4096 21.0306 27.805C20.9992 28.1886 21 28.6564 21 29.2H23ZM22.638 25.327C22.0735 25.6146 21.6146 26.0735 21.327 26.638L23.109 27.546C23.2049 27.3578 23.3578 27.2049 23.546 27.109L22.638 25.327Z" fill="#171717"/>
</svg>
