<svg width="64" height="64" viewBox="0 0 64 64" fill="none" xmlns="http://www.w3.org/2000/svg">
<circle cx="32" cy="32" r="32" fill="#FFE603"/>
<path d="M23.638 36.673L23.184 37.564L23.638 36.673ZM22.327 35.362L21.436 35.816L22.327 35.362ZM41.673 35.362L42.564 35.816L41.673 35.362ZM40.362 36.673L40.816 37.564L40.362 36.673ZM40.362 23.327L40.816 22.436L40.362 23.327ZM41.673 24.638L42.564 24.184L41.673 24.638ZM23.638 23.327L23.184 22.436L23.638 23.327ZM22.327 24.638L21.436 24.184L22.327 24.638ZM28 40C27.4477 40 27 40.4477 27 41C27 41.5523 27.4477 42 28 42V40ZM36 42C36.5523 42 37 41.5523 37 41C37 40.4477 36.5523 40 36 40V42ZM33 37C33 36.4477 32.5523 36 32 36C31.4477 36 31 36.4477 31 37H33ZM31 41C31 41.5523 31.4477 42 32 42C32.5523 42 33 41.5523 33 41H31ZM26.8 24H37.2V22H26.8V24ZM41 27.8V32.2H43V27.8H41ZM37.2 36H26.8V38H37.2V36ZM23 32.2V27.8H21V32.2H23ZM26.8 36C25.9434 36 25.3611 35.9992 24.911 35.9624C24.4726 35.9266 24.2484 35.8617 24.092 35.782L23.184 37.564C23.6694 37.8113 24.1861 37.9099 24.7482 37.9558C25.2986 38.0008 25.9764 38 26.8 38V36ZM21 32.2C21 33.0236 20.9992 33.7014 21.0442 34.2518C21.0901 34.8139 21.1887 35.3306 21.436 35.816L23.218 34.908C23.1383 34.7516 23.0734 34.5274 23.0376 34.089C23.0008 33.6389 23 33.0566 23 32.2H21ZM24.092 35.782C23.7157 35.5903 23.4097 35.2843 23.218 34.908L21.436 35.816C21.8195 36.5686 22.4314 37.1805 23.184 37.564L24.092 35.782ZM41 32.2C41 33.0566 40.9992 33.6389 40.9624 34.089C40.9266 34.5274 40.8617 34.7516 40.782 34.908L42.564 35.816C42.8113 35.3306 42.9099 34.8139 42.9558 34.2518C43.0008 33.7014 43 33.0236 43 32.2H41ZM37.2 38C38.0236 38 38.7014 38.0008 39.2518 37.9558C39.8139 37.9099 40.3306 37.8113 40.816 37.564L39.908 35.782C39.7516 35.8617 39.5274 35.9266 39.089 35.9624C38.6389 35.9992 38.0566 36 37.2 36V38ZM40.782 34.908C40.5903 35.2843 40.2843 35.5903 39.908 35.782L40.816 37.564C41.5686 37.1805 42.1805 36.5686 42.564 35.816L40.782 34.908ZM37.2 24C38.0566 24 38.6389 24.0008 39.089 24.0376C39.5274 24.0734 39.7516 24.1383 39.908 24.218L40.816 22.436C40.3306 22.1887 39.8139 22.0901 39.2518 22.0442C38.7014 21.9992 38.0236 22 37.2 22V24ZM43 27.8C43 26.9764 43.0008 26.2986 42.9558 25.7482C42.9099 25.1861 42.8113 24.6694 42.564 24.184L40.782 25.092C40.8617 25.2484 40.9266 25.4726 40.9624 25.911C40.9992 26.3611 41 26.9434 41 27.8H43ZM39.908 24.218C40.2843 24.4097 40.5903 24.7157 40.782 25.092L42.564 24.184C42.1805 23.4314 41.5686 22.8195 40.816 22.436L39.908 24.218ZM26.8 22C25.9764 22 25.2986 21.9992 24.7482 22.0442C24.1861 22.0901 23.6694 22.1887 23.184 22.436L24.092 24.218C24.2484 24.1383 24.4726 24.0734 24.911 24.0376C25.3611 24.0008 25.9434 24 26.8 24V22ZM23 27.8C23 26.9434 23.0008 26.3611 23.0376 25.911C23.0734 25.4726 23.1383 25.2484 23.218 25.092L21.436 24.184C21.1887 24.6694 21.0901 25.1861 21.0442 25.7482C20.9992 26.2986 21 26.9764 21 27.8H23ZM23.184 22.436C22.4314 22.8195 21.8195 23.4314 21.436 24.184L23.218 25.092C23.4097 24.7157 23.7157 24.4097 24.092 24.218L23.184 22.436ZM28 42H36V40H28V42ZM31 37V41H33V37H31Z" fill="#171717"/>
</svg>
