<svg width="64" height="64" viewBox="0 0 64 64" fill="none" xmlns="http://www.w3.org/2000/svg">
<circle cx="32" cy="32" r="32" fill="#FFE603"/>
<path d="M31 29C31 29.5523 31.4477 30 32 30C32.5523 30 33 29.5523 33 29H31ZM33 26C33 25.4477 32.5523 25 32 25C31.4477 25 31 25.4477 31 26H33ZM38 29V35H40V29H38ZM26 35V29H24V35H26ZM32 41C28.6863 41 26 38.3137 26 35H24C24 39.4183 27.5817 43 32 43V41ZM38 35C38 38.3137 35.3137 41 32 41V43C36.4183 43 40 39.4183 40 35H38ZM32 23C35.3137 23 38 25.6863 38 29H40C40 24.5817 36.4183 21 32 21V23ZM32 21C27.5817 21 24 24.5817 24 29H26C26 25.6863 28.6863 23 32 23V21ZM33 29V26H31V29H33Z" fill="#171717"/>
</svg>
