<svg width="64" height="64" viewBox="0 0 64 64" fill="none" xmlns="http://www.w3.org/2000/svg">
<circle cx="32" cy="32" r="32" fill="#FFE603"/>
<path d="M26.5 25.5C25.9477 25.5 25.5 25.9477 25.5 26.5C25.5 27.0523 25.9477 27.5 26.5 27.5V25.5ZM26.51 27.5C27.0623 27.5 27.51 27.0523 27.51 26.5C27.51 25.9477 27.0623 25.5 26.51 25.5V27.5ZM37.5 25.5C36.9477 25.5 36.5 25.9477 36.5 26.5C36.5 27.0523 36.9477 27.5 37.5 27.5V25.5ZM37.51 27.5C38.0623 27.5 38.51 27.0523 38.51 26.5C38.51 25.9477 38.0623 25.5 37.51 25.5V27.5ZM26.5 36.5C25.9477 36.5 25.5 36.9477 25.5 37.5C25.5 38.0523 25.9477 38.5 26.5 38.5V36.5ZM26.51 38.5C27.0623 38.5 27.51 38.0523 27.51 37.5C27.51 36.9477 27.0623 36.5 26.51 36.5V38.5ZM33 32C32.4477 32 32 32.4477 32 33C32 33.5523 32.4477 34 33 34V32ZM33.01 34C33.5623 34 34.01 33.5523 34.01 33C34.01 32.4477 33.5623 32 33.01 32V34ZM37.5 36.5C36.9477 36.5 36.5 36.9477 36.5 37.5C36.5 38.0523 36.9477 38.5 37.5 38.5V36.5ZM37.51 38.5C38.0623 38.5 38.51 38.0523 38.51 37.5C38.51 36.9477 38.0623 36.5 37.51 36.5V38.5ZM37 40C36.4477 40 36 40.4477 36 41C36 41.5523 36.4477 42 37 42V40ZM41 41V42C41.5523 42 42 41.5523 42 41H41ZM42 37C42 36.4477 41.5523 36 41 36C40.4477 36 40 36.4477 40 37H42ZM35 36.5C35 35.9477 34.5523 35.5 34 35.5C33.4477 35.5 33 35.9477 33 36.5H35ZM33 41C33 41.5523 33.4477 42 34 42C34.5523 42 35 41.5523 35 41H33ZM41 35C41.5523 35 42 34.5523 42 34C42 33.4477 41.5523 33 41 33V35ZM36.5 33C35.9477 33 35.5 33.4477 35.5 34C35.5 34.5523 35.9477 35 36.5 35V33ZM34.546 29.891L35 29L34.546 29.891ZM34.109 29.454L35 29L34.109 29.454ZM40.891 29.454L40 29L40.891 29.454ZM40.454 29.891L40 29L40.454 29.891ZM40.454 23.109L40 24L40.454 23.109ZM40.891 23.546L40 24L40.891 23.546ZM34.546 23.109L35 24L34.546 23.109ZM34.109 23.546L35 24L34.109 23.546ZM23.546 29.891L24 29L23.546 29.891ZM23.109 29.454L24 29L23.109 29.454ZM29.891 29.454L29 29L29.891 29.454ZM29.454 29.891L29 29L29.454 29.891ZM29.454 23.109L29 24L29.454 23.109ZM29.891 23.546L29 24L29.891 23.546ZM23.546 23.109L24 24L23.546 23.109ZM23.109 23.546L24 24L23.109 23.546ZM23.546 40.891L24 40L23.546 40.891ZM23.109 40.454L24 40L23.109 40.454ZM29.891 40.454L29 40L29.891 40.454ZM29.454 40.891L29 40L29.454 40.891ZM29.454 34.109L29 35L29.454 34.109ZM29.891 34.546L29 35L29.891 34.546ZM23.546 34.109L24 35L23.546 34.109ZM23.109 34.546L24 35L23.109 34.546ZM26.5 27.5H26.51V25.5H26.5V27.5ZM37.5 27.5H37.51V25.5H37.5V27.5ZM26.5 38.5H26.51V36.5H26.5V38.5ZM33 34H33.01V32H33V34ZM37.5 38.5H37.51V36.5H37.5V38.5ZM37 42H41V40H37V42ZM42 41V37H40V41H42ZM33 36.5V41H35V36.5H33ZM41 33H36.5V35H41V33ZM35.6 24H39.4V22H35.6V24ZM40 24.6V28.4H42V24.6H40ZM39.4 29H35.6V31H39.4V29ZM35 28.4V24.6H33V28.4H35ZM35.6 29C35.3035 29 35.1412 28.9992 35.0246 28.9897C34.9197 28.9811 34.9425 28.9707 35 29L34.092 30.782C34.3634 30.9203 34.6332 30.9644 34.8618 30.9831C35.0787 31.0008 35.3365 31 35.6 31V29ZM33 28.4C33 28.6635 32.9992 28.9213 33.0169 29.1382C33.0356 29.3668 33.0797 29.6366 33.218 29.908L35 29C35.0293 29.0575 35.0189 29.0803 35.0103 28.9754C35.0008 28.8588 35 28.6965 35 28.4H33ZM35 29L33.218 29.908C33.4097 30.2843 33.7157 30.5903 34.092 30.782L35 29ZM40 28.4C40 28.6965 39.9992 28.8588 39.9897 28.9754C39.9811 29.0803 39.9707 29.0575 40 29L41.782 29.908C41.9203 29.6366 41.9644 29.3668 41.9831 29.1382C42.0008 28.9213 42 28.6635 42 28.4H40ZM39.4 31C39.6635 31 39.9213 31.0008 40.1382 30.9831C40.3668 30.9644 40.6366 30.9203 40.908 30.782L40 29C40.0575 28.9707 40.0803 28.9811 39.9754 28.9897C39.8588 28.9992 39.6965 29 39.4 29V31ZM40 29L40.908 30.782C41.2843 30.5903 41.5903 30.2843 41.782 29.908L40 29ZM39.4 24C39.6965 24 39.8588 24.0008 39.9754 24.0103C40.0803 24.0189 40.0575 24.0293 40 24L40.908 22.218C40.6366 22.0797 40.3668 22.0356 40.1382 22.0169C39.9213 21.9992 39.6635 22 39.4 22V24ZM42 24.6C42 24.3365 42.0008 24.0787 41.9831 23.8618C41.9644 23.6332 41.9203 23.3634 41.782 23.092L40 24C39.9707 23.9425 39.9811 23.9197 39.9897 24.0246C39.9992 24.1412 40 24.3035 40 24.6H42ZM40 24L41.782 23.092C41.5903 22.7157 41.2843 22.4097 40.908 22.218L40 24ZM35.6 22C35.3365 22 35.0787 21.9992 34.8618 22.0169C34.6332 22.0356 34.3634 22.0797 34.092 22.218L35 24C34.9425 24.0293 34.9197 24.0189 35.0246 24.0103C35.1412 24.0008 35.3035 24 35.6 24V22ZM35 24.6C35 24.3035 35.0008 24.1412 35.0103 24.0246C35.0189 23.9197 35.0293 23.9425 35 24L33.218 23.092C33.0797 23.3634 33.0356 23.6332 33.0169 23.8618C32.9992 24.0787 33 24.3365 33 24.6H35ZM34.092 22.218C33.7157 22.4097 33.4097 22.7157 33.218 23.092L35 24L34.092 22.218ZM24.6 24H28.4V22H24.6V24ZM29 24.6V28.4H31V24.6H29ZM28.4 29H24.6V31H28.4V29ZM24 28.4V24.6H22V28.4H24ZM24.6 29C24.3035 29 24.1412 28.9992 24.0246 28.9897C23.9197 28.9811 23.9425 28.9707 24 29L23.092 30.782C23.3634 30.9203 23.6332 30.9644 23.8618 30.9831C24.0787 31.0008 24.3365 31 24.6 31V29ZM22 28.4C22 28.6635 21.9992 28.9213 22.0169 29.1382C22.0356 29.3668 22.0797 29.6366 22.218 29.908L24 29C24.0293 29.0575 24.0189 29.0803 24.0103 28.9754C24.0008 28.8588 24 28.6965 24 28.4H22ZM24 29L22.218 29.908C22.4097 30.2843 22.7157 30.5903 23.092 30.782L24 29ZM29 28.4C29 28.6965 28.9992 28.8588 28.9897 28.9754C28.9811 29.0803 28.9707 29.0575 29 29L30.782 29.908C30.9203 29.6366 30.9644 29.3668 30.9831 29.1382C31.0008 28.9213 31 28.6635 31 28.4H29ZM28.4 31C28.6635 31 28.9213 31.0008 29.1382 30.9831C29.3668 30.9644 29.6366 30.9203 29.908 30.782L29 29C29.0575 28.9707 29.0803 28.9811 28.9754 28.9897C28.8588 28.9992 28.6965 29 28.4 29V31ZM29 29L29.908 30.782C30.2843 30.5903 30.5903 30.2843 30.782 29.908L29 29ZM28.4 24C28.6965 24 28.8588 24.0008 28.9754 24.0103C29.0803 24.0189 29.0575 24.0293 29 24L29.908 22.218C29.6366 22.0797 29.3668 22.0356 29.1382 22.0169C28.9213 21.9992 28.6635 22 28.4 22V24ZM31 24.6C31 24.3365 31.0008 24.0787 30.9831 23.8618C30.9644 23.6332 30.9203 23.3634 30.782 23.092L29 24C28.9707 23.9425 28.9811 23.9197 28.9897 24.0246C28.9992 24.1412 29 24.3035 29 24.6H31ZM29 24L30.782 23.092C30.5903 22.7157 30.2843 22.4097 29.908 22.218L29 24ZM24.6 22C24.3365 22 24.0787 21.9992 23.8618 22.0169C23.6332 22.0356 23.3634 22.0797 23.092 22.218L24 24C23.9425 24.0293 23.9197 24.0189 24.0246 24.0103C24.1412 24.0008 24.3035 24 24.6 24V22ZM24 24.6C24 24.3035 24.0008 24.1412 24.0103 24.0246C24.0189 23.9197 24.0293 23.9425 24 24L22.218 23.092C22.0797 23.3634 22.0356 23.6332 22.0169 23.8618C21.9992 24.0787 22 24.3365 22 24.6H24ZM23.092 22.218C22.7157 22.4097 22.4097 22.7157 22.218 23.092L24 24L23.092 22.218ZM24.6 35H28.4V33H24.6V35ZM29 35.6V39.4H31V35.6H29ZM28.4 40H24.6V42H28.4V40ZM24 39.4V35.6H22V39.4H24ZM24.6 40C24.3035 40 24.1412 39.9992 24.0246 39.9897C23.9197 39.9811 23.9425 39.9707 24 40L23.092 41.782C23.3634 41.9203 23.6332 41.9644 23.8618 41.9831C24.0787 42.0008 24.3365 42 24.6 42V40ZM22 39.4C22 39.6635 21.9992 39.9213 22.0169 40.1382C22.0356 40.3668 22.0797 40.6366 22.218 40.908L24 40C24.0293 40.0575 24.0189 40.0803 24.0103 39.9754C24.0008 39.8588 24 39.6965 24 39.4H22ZM24 40L22.218 40.908C22.4097 41.2843 22.7157 41.5903 23.092 41.782L24 40ZM29 39.4C29 39.6965 28.9992 39.8588 28.9897 39.9754C28.9811 40.0803 28.9707 40.0575 29 40L30.782 40.908C30.9203 40.6366 30.9644 40.3668 30.9831 40.1382C31.0008 39.9213 31 39.6635 31 39.4H29ZM28.4 42C28.6635 42 28.9213 42.0008 29.1382 41.9831C29.3668 41.9644 29.6366 41.9203 29.908 41.782L29 40C29.0575 39.9707 29.0803 39.9811 28.9754 39.9897C28.8588 39.9992 28.6965 40 28.4 40V42ZM29 40L29.908 41.782C30.2843 41.5903 30.5903 41.2843 30.782 40.908L29 40ZM28.4 35C28.6965 35 28.8588 35.0008 28.9754 35.0103C29.0803 35.0189 29.0575 35.0293 29 35L29.908 33.218C29.6366 33.0797 29.3668 33.0356 29.1382 33.0169C28.9213 32.9992 28.6635 33 28.4 33V35ZM31 35.6C31 35.3365 31.0008 35.0787 30.9831 34.8618C30.9644 34.6332 30.9203 34.3634 30.782 34.092L29 35C28.9707 34.9425 28.9811 34.9197 28.9897 35.0246C28.9992 35.1412 29 35.3035 29 35.6H31ZM29 35L30.782 34.092C30.5903 33.7157 30.2843 33.4097 29.908 33.218L29 35ZM24.6 33C24.3365 33 24.0787 32.9992 23.8618 33.0169C23.6332 33.0356 23.3634 33.0797 23.092 33.218L24 35C23.9425 35.0293 23.9197 35.0189 24.0246 35.0103C24.1412 35.0008 24.3035 35 24.6 35V33ZM24 35.6C24 35.3035 24.0008 35.1412 24.0103 35.0246C24.0189 34.9197 24.0293 34.9425 24 35L22.218 34.092C22.0797 34.3634 22.0356 34.6332 22.0169 34.8618C21.9992 35.0787 22 35.3365 22 35.6H24ZM23.092 33.218C22.7157 33.4097 22.4097 33.7157 22.218 34.092L24 35L23.092 33.218Z" fill="#171717"/>
</svg>
