<svg width="64" height="64" viewBox="0 0 64 64" fill="none" xmlns="http://www.w3.org/2000/svg">
<circle cx="32" cy="32" r="32" fill="#FFE603"/>
<path d="M36.9497 27.051C36.5592 26.6605 35.9261 26.6605 35.5355 27.051C35.145 27.4415 35.145 28.0747 35.5355 28.4652L36.9497 27.051ZM35.5355 35.5363C35.145 35.9268 35.145 36.56 35.5355 36.9505C35.9261 37.341 36.5592 37.341 36.9497 36.9505L35.5355 35.5363ZM27.0503 36.9505C27.4408 37.341 28.0739 37.341 28.4645 36.9505C28.855 36.5599 28.855 35.9268 28.4645 35.5363L27.0503 36.9505ZM28.4645 28.4652C28.855 28.0747 28.855 27.4415 28.4645 27.051C28.0739 26.6604 27.4408 26.6604 27.0503 27.051L28.4645 28.4652ZM24.2218 39.7789C24.6123 40.1695 25.2455 40.1695 25.636 39.7789C26.0266 39.3884 26.0266 38.7552 25.636 38.3647L24.2218 39.7789ZM25.636 25.6368C26.0266 25.2463 26.0266 24.6131 25.636 24.2226C25.2455 23.8321 24.6123 23.8321 24.2218 24.2226L25.636 25.6368ZM39.7782 24.2226C39.3876 23.8321 38.7545 23.8321 38.364 24.2226C37.9734 24.6132 37.9734 25.2463 38.364 25.6368L39.7782 24.2226ZM38.364 38.3648C37.9734 38.7553 37.9734 39.3885 38.364 39.779C38.7545 40.1695 39.3876 40.1695 39.7782 39.779L38.364 38.3648ZM33 32.0008C33 32.553 32.5523 33.0008 32 33.0008V35.0008C33.6569 35.0008 35 33.6576 35 32.0008H33ZM32 33.0008C31.4477 33.0008 31 32.553 31 32.0008H29C29 33.6576 30.3431 35.0008 32 35.0008V33.0008ZM31 32.0008C31 31.4485 31.4477 31.0008 32 31.0008V29.0008C30.3431 29.0008 29 30.3439 29 32.0008H31ZM32 31.0008C32.5523 31.0008 33 31.4485 33 32.0008H35C35 30.3439 33.6569 29.0008 32 29.0008V31.0008ZM35.5355 28.4652C37.4882 30.4178 37.4882 33.5837 35.5355 35.5363L36.9497 36.9505C39.6834 34.2168 39.6834 29.7847 36.9497 27.051L35.5355 28.4652ZM28.4645 35.5363C26.5118 33.5836 26.5118 30.4178 28.4645 28.4652L27.0503 27.051C24.3166 29.7846 24.3166 34.2168 27.0503 36.9505L28.4645 35.5363ZM25.636 38.3647C22.1213 34.85 22.1213 29.1515 25.636 25.6368L24.2218 24.2226C19.9261 28.5183 19.9261 35.4832 24.2218 39.7789L25.636 38.3647ZM38.364 25.6368C41.8787 29.1516 41.8787 34.85 38.364 38.3648L39.7782 39.779C44.0739 35.4832 44.0739 28.5184 39.7782 24.2226L38.364 25.6368Z" fill="#171717"/>
</svg>
