<svg width="64" height="64" viewBox="0 0 64 64" fill="none" xmlns="http://www.w3.org/2000/svg">
<circle cx="32" cy="32" r="32" fill="#FFE603"/>
<path d="M40 27C40 26.4477 39.5523 26 39 26C38.4477 26 38 26.4477 38 27H40ZM38 37C38 37.5523 38.4477 38 39 38C39.5523 38 40 37.5523 40 37H38ZM26 27C26 26.4477 25.5523 26 25 26C24.4477 26 24 26.4477 24 27H26ZM24 37C24 37.5523 24.4477 38 25 38C25.5523 38 26 37.5523 26 37H24ZM37 26C37.5523 26 38 25.5523 38 25C38 24.4477 37.5523 24 37 24V26ZM27 24C26.4477 24 26 24.4477 26 25C26 25.5523 26.4477 26 27 26V24ZM37 40C37.5523 40 38 39.5523 38 39C38 38.4477 37.5523 38 37 38V40ZM27 38C26.4477 38 26 38.4477 26 39C26 39.5523 26.4477 40 27 40V38ZM23.546 26.891L24 26L23.546 26.891ZM23.109 26.454L24 26L23.109 26.454ZM26.891 26.454L26 26L26.891 26.454ZM26.454 26.891L26 26L26.454 26.891ZM26.454 23.109L26 24L26.454 23.109ZM26.891 23.546L26 24L26.891 23.546ZM23.546 23.109L24 24L23.546 23.109ZM23.109 23.546L24 24L23.109 23.546ZM23.546 40.891L24 40L23.546 40.891ZM23.109 40.454L24 40L23.109 40.454ZM26.891 40.454L26 40L26.891 40.454ZM26.454 40.891L26 40L26.454 40.891ZM26.454 37.109L26 38L26.454 37.109ZM26.891 37.546L26 38L26.891 37.546ZM23.546 37.109L24 38L23.546 37.109ZM23.109 37.546L24 38L23.109 37.546ZM37.546 26.891L38 26L37.546 26.891ZM37.109 26.454L38 26L37.109 26.454ZM40.891 26.454L40 26L40.891 26.454ZM40.454 26.891L40 26L40.454 26.891ZM40.454 23.109L40 24L40.454 23.109ZM40.891 23.546L40 24L40.891 23.546ZM37.546 23.109L38 24L37.546 23.109ZM37.109 23.546L38 24L37.109 23.546ZM37.546 40.891L38 40L37.546 40.891ZM37.109 40.454L38 40L37.109 40.454ZM40.891 40.454L40 40L40.891 40.454ZM40.454 40.891L40 40L40.454 40.891ZM40.454 37.109L40 38L40.454 37.109ZM40.891 37.546L40 38L40.891 37.546ZM37.546 37.109L38 38L37.546 37.109ZM37.109 37.546L38 38L37.109 37.546ZM38 27V37H40V27H38ZM24 27V37H26V27H24ZM37 24L27 24V26L37 26V24ZM37 38H27V40H37V38ZM24.6 24H25.4V22H24.6V24ZM26 24.6V25.4H28V24.6H26ZM25.4 26H24.6V28H25.4V26ZM24 25.4V24.6H22V25.4H24ZM24.6 26C24.3035 26 24.1412 25.9992 24.0246 25.9897C23.9197 25.9811 23.9425 25.9707 24 26L23.092 27.782C23.3634 27.9203 23.6332 27.9644 23.8618 27.9831C24.0787 28.0008 24.3365 28 24.6 28V26ZM22 25.4C22 25.6635 21.9992 25.9213 22.0169 26.1382C22.0356 26.3668 22.0797 26.6366 22.218 26.908L24 26C24.0293 26.0575 24.0189 26.0803 24.0103 25.9754C24.0008 25.8588 24 25.6965 24 25.4H22ZM24 26L22.218 26.908C22.4097 27.2843 22.7157 27.5903 23.092 27.782L24 26ZM26 25.4C26 25.6965 25.9992 25.8588 25.9897 25.9754C25.9811 26.0803 25.9707 26.0575 26 26L27.782 26.908C27.9203 26.6366 27.9644 26.3668 27.9831 26.1382C28.0008 25.9213 28 25.6635 28 25.4H26ZM25.4 28C25.6635 28 25.9213 28.0008 26.1382 27.9831C26.3668 27.9644 26.6366 27.9203 26.908 27.782L26 26C26.0575 25.9707 26.0803 25.9811 25.9754 25.9897C25.8588 25.9992 25.6965 26 25.4 26V28ZM26 26L26.908 27.782C27.2843 27.5903 27.5903 27.2843 27.782 26.908L26 26ZM25.4 24C25.6965 24 25.8588 24.0008 25.9754 24.0103C26.0803 24.0189 26.0575 24.0293 26 24L26.908 22.218C26.6366 22.0797 26.3668 22.0356 26.1382 22.0169C25.9213 21.9992 25.6635 22 25.4 22V24ZM28 24.6C28 24.3365 28.0008 24.0787 27.9831 23.8618C27.9644 23.6332 27.9203 23.3634 27.782 23.092L26 24C25.9707 23.9425 25.9811 23.9197 25.9897 24.0246C25.9992 24.1412 26 24.3035 26 24.6H28ZM26 24L27.782 23.092C27.5903 22.7157 27.2843 22.4097 26.908 22.218L26 24ZM24.6 22C24.3365 22 24.0787 21.9992 23.8618 22.0169C23.6332 22.0356 23.3634 22.0797 23.092 22.218L24 24C23.9425 24.0293 23.9197 24.0189 24.0246 24.0103C24.1412 24.0008 24.3035 24 24.6 24V22ZM24 24.6C24 24.3035 24.0008 24.1412 24.0103 24.0246C24.0189 23.9197 24.0293 23.9425 24 24L22.218 23.092C22.0797 23.3634 22.0356 23.6332 22.0169 23.8618C21.9992 24.0787 22 24.3365 22 24.6H24ZM23.092 22.218C22.7157 22.4097 22.4097 22.7157 22.218 23.092L24 24L23.092 22.218ZM24.6 38H25.4V36H24.6V38ZM26 38.6V39.4H28V38.6H26ZM25.4 40H24.6V42H25.4V40ZM24 39.4V38.6H22V39.4H24ZM24.6 40C24.3035 40 24.1412 39.9992 24.0246 39.9897C23.9197 39.9811 23.9425 39.9707 24 40L23.092 41.782C23.3634 41.9203 23.6332 41.9644 23.8618 41.9831C24.0787 42.0008 24.3365 42 24.6 42V40ZM22 39.4C22 39.6635 21.9992 39.9213 22.0169 40.1382C22.0356 40.3668 22.0797 40.6366 22.218 40.908L24 40C24.0293 40.0575 24.0189 40.0803 24.0103 39.9754C24.0008 39.8588 24 39.6965 24 39.4H22ZM24 40L22.218 40.908C22.4097 41.2843 22.7157 41.5903 23.092 41.782L24 40ZM26 39.4C26 39.6965 25.9992 39.8588 25.9897 39.9754C25.9811 40.0803 25.9707 40.0575 26 40L27.782 40.908C27.9203 40.6366 27.9644 40.3668 27.9831 40.1382C28.0008 39.9213 28 39.6635 28 39.4H26ZM25.4 42C25.6635 42 25.9213 42.0008 26.1382 41.9831C26.3668 41.9644 26.6366 41.9203 26.908 41.782L26 40C26.0575 39.9707 26.0803 39.9811 25.9754 39.9897C25.8588 39.9992 25.6965 40 25.4 40V42ZM26 40L26.908 41.782C27.2843 41.5903 27.5903 41.2843 27.782 40.908L26 40ZM25.4 38C25.6965 38 25.8588 38.0008 25.9754 38.0103C26.0803 38.0189 26.0575 38.0293 26 38L26.908 36.218C26.6366 36.0797 26.3668 36.0356 26.1382 36.0169C25.9213 35.9992 25.6635 36 25.4 36V38ZM28 38.6C28 38.3365 28.0008 38.0787 27.9831 37.8618C27.9644 37.6332 27.9203 37.3634 27.782 37.092L26 38C25.9707 37.9425 25.9811 37.9197 25.9897 38.0246C25.9992 38.1412 26 38.3035 26 38.6H28ZM26 38L27.782 37.092C27.5903 36.7157 27.2843 36.4097 26.908 36.218L26 38ZM24.6 36C24.3365 36 24.0787 35.9992 23.8618 36.0169C23.6332 36.0356 23.3634 36.0797 23.092 36.218L24 38C23.9425 38.0293 23.9197 38.0189 24.0246 38.0103C24.1412 38.0008 24.3035 38 24.6 38V36ZM24 38.6C24 38.3035 24.0008 38.1412 24.0103 38.0246C24.0189 37.9197 24.0293 37.9425 24 38L22.218 37.092C22.0797 37.3634 22.0356 37.6332 22.0169 37.8618C21.9992 38.0787 22 38.3365 22 38.6H24ZM23.092 36.218C22.7157 36.4097 22.4097 36.7157 22.218 37.092L24 38L23.092 36.218ZM38.6 24H39.4V22H38.6V24ZM40 24.6V25.4H42V24.6H40ZM39.4 26H38.6V28H39.4V26ZM38 25.4V24.6H36V25.4H38ZM38.6 26C38.3035 26 38.1412 25.9992 38.0246 25.9897C37.9197 25.9811 37.9425 25.9707 38 26L37.092 27.782C37.3634 27.9203 37.6332 27.9644 37.8618 27.9831C38.0787 28.0008 38.3365 28 38.6 28V26ZM36 25.4C36 25.6635 35.9992 25.9213 36.0169 26.1382C36.0356 26.3668 36.0797 26.6366 36.218 26.908L38 26C38.0293 26.0575 38.0189 26.0803 38.0103 25.9754C38.0008 25.8588 38 25.6965 38 25.4H36ZM38 26L36.218 26.908C36.4097 27.2843 36.7157 27.5903 37.092 27.782L38 26ZM40 25.4C40 25.6965 39.9992 25.8588 39.9897 25.9754C39.9811 26.0803 39.9707 26.0575 40 26L41.782 26.908C41.9203 26.6366 41.9644 26.3668 41.9831 26.1382C42.0008 25.9213 42 25.6635 42 25.4H40ZM39.4 28C39.6635 28 39.9213 28.0008 40.1382 27.9831C40.3668 27.9644 40.6366 27.9203 40.908 27.782L40 26C40.0575 25.9707 40.0803 25.9811 39.9754 25.9897C39.8588 25.9992 39.6965 26 39.4 26V28ZM40 26L40.908 27.782C41.2843 27.5903 41.5903 27.2843 41.782 26.908L40 26ZM39.4 24C39.6965 24 39.8588 24.0008 39.9754 24.0103C40.0803 24.0189 40.0575 24.0293 40 24L40.908 22.218C40.6366 22.0797 40.3668 22.0356 40.1382 22.0169C39.9213 21.9992 39.6635 22 39.4 22V24ZM42 24.6C42 24.3365 42.0008 24.0787 41.9831 23.8618C41.9644 23.6332 41.9203 23.3634 41.782 23.092L40 24C39.9707 23.9425 39.9811 23.9197 39.9897 24.0246C39.9992 24.1412 40 24.3035 40 24.6H42ZM40 24L41.782 23.092C41.5903 22.7157 41.2843 22.4097 40.908 22.218L40 24ZM38.6 22C38.3365 22 38.0787 21.9992 37.8618 22.0169C37.6332 22.0356 37.3634 22.0797 37.092 22.218L38 24C37.9425 24.0293 37.9197 24.0189 38.0246 24.0103C38.1412 24.0008 38.3035 24 38.6 24V22ZM38 24.6C38 24.3035 38.0008 24.1412 38.0103 24.0246C38.0189 23.9197 38.0293 23.9425 38 24L36.218 23.092C36.0797 23.3634 36.0356 23.6332 36.0169 23.8618C35.9992 24.0787 36 24.3365 36 24.6H38ZM37.092 22.218C36.7157 22.4097 36.4097 22.7157 36.218 23.092L38 24L37.092 22.218ZM38.6 38H39.4V36H38.6V38ZM40 38.6V39.4H42V38.6H40ZM39.4 40H38.6V42H39.4V40ZM38 39.4V38.6H36V39.4H38ZM38.6 40C38.3035 40 38.1412 39.9992 38.0246 39.9897C37.9197 39.9811 37.9425 39.9707 38 40L37.092 41.782C37.3634 41.9203 37.6332 41.9644 37.8618 41.9831C38.0787 42.0008 38.3365 42 38.6 42V40ZM36 39.4C36 39.6635 35.9992 39.9213 36.0169 40.1382C36.0356 40.3668 36.0797 40.6366 36.218 40.908L38 40C38.0293 40.0575 38.0189 40.0803 38.0103 39.9754C38.0008 39.8588 38 39.6965 38 39.4H36ZM38 40L36.218 40.908C36.4097 41.2843 36.7157 41.5903 37.092 41.782L38 40ZM40 39.4C40 39.6965 39.9992 39.8588 39.9897 39.9754C39.9811 40.0803 39.9707 40.0575 40 40L41.782 40.908C41.9203 40.6366 41.9644 40.3668 41.9831 40.1382C42.0008 39.9213 42 39.6635 42 39.4H40ZM39.4 42C39.6635 42 39.9213 42.0008 40.1382 41.9831C40.3668 41.9644 40.6366 41.9203 40.908 41.782L40 40C40.0575 39.9707 40.0803 39.9811 39.9754 39.9897C39.8588 39.9992 39.6965 40 39.4 40V42ZM40 40L40.908 41.782C41.2843 41.5903 41.5903 41.2843 41.782 40.908L40 40ZM39.4 38C39.6965 38 39.8588 38.0008 39.9754 38.0103C40.0803 38.0189 40.0575 38.0293 40 38L40.908 36.218C40.6366 36.0797 40.3668 36.0356 40.1382 36.0169C39.9213 35.9992 39.6635 36 39.4 36V38ZM42 38.6C42 38.3365 42.0008 38.0787 41.9831 37.8618C41.9644 37.6332 41.9203 37.3634 41.782 37.092L40 38C39.9707 37.9425 39.9811 37.9197 39.9897 38.0246C39.9992 38.1412 40 38.3035 40 38.6H42ZM40 38L41.782 37.092C41.5903 36.7157 41.2843 36.4097 40.908 36.218L40 38ZM38.6 36C38.3365 36 38.0787 35.9992 37.8618 36.0169C37.6332 36.0356 37.3634 36.0797 37.092 36.218L38 38C37.9425 38.0293 37.9197 38.0189 38.0246 38.0103C38.1412 38.0008 38.3035 38 38.6 38V36ZM38 38.6C38 38.3035 38.0008 38.1412 38.0103 38.0246C38.0189 37.9197 38.0293 37.9425 38 38L36.218 37.092C36.0797 37.3634 36.0356 37.6332 36.0169 37.8618C35.9992 38.0787 36 38.3365 36 38.6H38ZM37.092 36.218C36.7157 36.4097 36.4097 36.7157 36.218 37.092L38 38L37.092 36.218Z" fill="#171717"/>
</svg>
