<svg width="64" height="64" viewBox="0 0 64 64" fill="none" xmlns="http://www.w3.org/2000/svg">
<circle cx="32" cy="32" r="32" fill="#FFE603"/>
<path d="M41 42C41.5523 42 42 41.5523 42 41C42 40.4477 41.5523 40 41 40V42ZM24 23C24 22.4477 23.5523 22 23 22C22.4477 22 22 22.4477 22 23H24ZM23.546 40.891L24 40L24 40L23.546 40.891ZM23.109 40.454L22.218 40.908L22.218 40.908L23.109 40.454ZM41 27H42C42 26.4477 41.5523 26 41 26V27ZM26.2929 34.2929C25.9024 34.6834 25.9024 35.3166 26.2929 35.7071C26.6834 36.0976 27.3166 36.0976 27.7071 35.7071L26.2929 34.2929ZM32.5657 30.5657L31.8586 31.2728L32.5657 30.5657ZM32.1545 30.2316L32.4635 29.2805L32.1545 30.2316ZM31.8455 30.2316L31.5365 29.2805L31.8455 30.2316ZM35.1545 32.7684L35.4635 33.7195L35.1545 32.7684ZM34.4343 32.4343L35.1414 31.7272L34.4343 32.4343ZM34.8455 32.7684L34.5365 33.7195L34.8455 32.7684ZM37 26C36.4477 26 36 26.4477 36 27C36 27.5523 36.4477 28 37 28V26ZM40 31C40 31.5523 40.4477 32 41 32C41.5523 32 42 31.5523 42 31H40ZM41 40H24.6V42H41V40ZM24 39.4V23H22V39.4H24ZM24.6 40C24.3035 40 24.1412 39.9992 24.0246 39.9897C23.9197 39.9811 23.9425 39.9707 24 40L23.092 41.782C23.3634 41.9203 23.6332 41.9644 23.8618 41.9831C24.0787 42.0008 24.3365 42 24.6 42V40ZM22 39.4C22 39.6635 21.9992 39.9213 22.0169 40.1382C22.0356 40.3668 22.0797 40.6366 22.218 40.908L24 40C24.0293 40.0575 24.0189 40.0803 24.0103 39.9754C24.0008 39.8588 24 39.6965 24 39.4H22ZM24 40L24 40L22.218 40.908C22.4097 41.2843 22.7157 41.5903 23.092 41.782L24 40ZM40.2929 26.2929L34.8586 31.7272L36.2728 33.1414L41.7071 27.7071L40.2929 26.2929ZM35.1414 31.7272L33.2728 29.8586L31.8586 31.2728L33.7272 33.1414L35.1414 31.7272ZM30.7272 29.8586L26.2929 34.2929L27.7071 35.7071L32.1414 31.2728L30.7272 29.8586ZM33.2728 29.8586C33.1855 29.7712 33.078 29.6627 32.9758 29.576C32.8648 29.4817 32.6962 29.3561 32.4635 29.2805L31.8455 31.1826C31.7875 31.1638 31.7426 31.1403 31.7129 31.122C31.6859 31.1053 31.674 31.0943 31.6815 31.1006C31.6892 31.1072 31.7059 31.1222 31.7381 31.1533C31.7702 31.1844 31.8075 31.2217 31.8586 31.2728L33.2728 29.8586ZM32.1414 31.2728C32.1925 31.2217 32.2298 31.1844 32.2619 31.1533C32.2941 31.1222 32.3108 31.1072 32.3185 31.1006C32.326 31.0943 32.3141 31.1053 32.2871 31.122C32.2574 31.1403 32.2125 31.1638 32.1545 31.1826L31.5365 29.2805C31.3038 29.3561 31.1352 29.4817 31.0242 29.5759C30.922 29.6627 30.8145 29.7712 30.7272 29.8586L32.1414 31.2728ZM32.4635 29.2805C32.1623 29.1826 31.8377 29.1826 31.5365 29.2805L32.1545 31.1826C32.0541 31.2153 31.9459 31.2153 31.8455 31.1826L32.4635 29.2805ZM34.8586 31.7272C34.8075 31.7783 34.7702 31.8156 34.7381 31.8467C34.7059 31.8778 34.6892 31.8928 34.6815 31.8994C34.674 31.9057 34.6859 31.8947 34.7129 31.878C34.7426 31.8597 34.7875 31.8362 34.8455 31.8174L35.4635 33.7195C35.6962 33.6439 35.8648 33.5183 35.9758 33.4241C36.078 33.3373 36.1855 33.2288 36.2728 33.1414L34.8586 31.7272ZM33.7272 33.1414C33.8145 33.2288 33.922 33.3373 34.0242 33.4241C34.1352 33.5183 34.3038 33.6439 34.5365 33.7195L35.1545 31.8174C35.2125 31.8362 35.2574 31.8597 35.2871 31.878C35.3141 31.8947 35.326 31.9057 35.3185 31.8994C35.3108 31.8928 35.2941 31.8778 35.2619 31.8467C35.2298 31.8156 35.1925 31.7783 35.1414 31.7272L33.7272 33.1414ZM34.8455 31.8174C34.9459 31.7847 35.0541 31.7847 35.1545 31.8174L34.5365 33.7195C34.8377 33.8174 35.1623 33.8174 35.4635 33.7195L34.8455 31.8174ZM37 28H41V26H37V28ZM40 27V31H42V27H40Z" fill="#171717"/>
</svg>
