<?xml version="1.0" standalone="no"?>
<!DOCTYPE svg PUBLIC "-//W3C//DTD SVG 20010904//EN"
 "http://www.w3.org/TR/2001/REC-SVG-20010904/DTD/svg10.dtd">
<svg version="1.0" xmlns="http://www.w3.org/2000/svg"
 width="520.000000pt" height="520.000000pt" viewBox="0 0 520.000000 520.000000"
 preserveAspectRatio="xMidYMid meet">
<metadata>
Created by potrace 1.11, written by Peter Selinger 2001-2013
</metadata>
<g transform="translate(0.000000,520.000000) scale(0.100000,-0.100000)"
fill="#000000" stroke="none">
<path d="M2365 5139 c-772 -79 -1456 -494 -1889 -1144 -87 -130 -225 -409
-275 -557 -49 -145 -96 -331 -116 -468 -23 -149 -30 -449 -16 -606 110 -1177
1006 -2123 2175 -2295 677 -99 1355 76 1915 494 124 92 396 364 488 488 384
513 569 1148 513 1754 -58 623 -313 1169 -748 1602 -392 390 -885 635 -1447
719 -122 18 -476 26 -600 13z m595 -254 c752 -118 1396 -590 1730 -1269 533
-1086 145 -2386 -898 -3011 -261 -156 -556 -258 -887 -306 -134 -20 -473 -17
-615 4 -1017 156 -1789 910 -1962 1917 -38 225 -35 574 8 800 185 972 960
1718 1934 1864 158 24 170 24 385 21 118 -2 243 -10 305 -20z"/>
<path d="M1657 3852 l-87 -87 525 -525 525 -525 519 525 519 525 -89 90 -89
90 -433 -433 -432 -432 -430 430 c-236 236 -432 430 -435 430 -3 0 -45 -39
-93 -88z"/>
<path d="M2340 2524 c-280 -35 -563 -121 -815 -246 -108 -54 -282 -156 -291
-169 -4 -7 99 -173 127 -203 4 -5 50 16 103 48 290 173 602 281 916 317 129
14 397 7 530 -16 277 -47 581 -156 857 -307 73 -40 105 -53 111 -44 5 6 35 55
65 109 l56 98 -32 20 c-68 43 -378 189 -492 232 -152 57 -346 111 -500 138
-96 17 -167 22 -360 24 -132 2 -256 1 -275 -1z"/>
<path d="M2556 2068 c-82 -11 -157 -48 -225 -113 -170 -162 -173 -423 -6 -590
205 -204 541 -143 672 123 25 52 28 67 28 167 0 99 -3 116 -28 169 -52 111
-130 183 -241 224 -64 24 -125 30 -200 20z m130 -269 c108 -52 119 -201 22
-271 -45 -31 -134 -32 -175 -2 -94 70 -99 191 -11 257 55 42 103 46 164 16z"/>
</g>
</svg>
