<svg width="238" height="60" viewBox="0 0 238 60" fill="none" xmlns="http://www.w3.org/2000/svg">
  <g>
    <path fill-rule="evenodd" clip-rule="evenodd"
      d="M21.5371 32.3645H12.8132L17.4478 17.6831L21.5371 32.3645ZM8.72389 47.2052L11.4501 38.2583H22.6276L25.3538 47.2052H34.6229L24.8086 13.2495C24.2633 11.0194 23.1728 10.3026 20.7192 10.3026H7.08816V13.3556H8.17865C9.81437 13.3556 10.6322 13.8601 10.6322 15.0813C10.6322 15.8512 10.6322 16.3557 9.81437 18.1875L0 47.2052"
      fill="#CBCBCB" />
    <path
      d="M46.3457 47.2052V13.0105C46.3457 11.2318 45.2552 10.3026 43.3468 10.3026H34.8956V13.3556H35.4408C37.0765 13.3556 37.8944 14.0194 37.8944 15.453V47.2052"
      fill="#CBCBCB" />
    <path
      d="M61.6125 47.2052V13.0105C61.6125 11.2318 60.522 10.3026 58.6136 10.3026H50.1624V13.3556H50.7076C52.3433 13.3556 53.1612 14.0194 53.1612 15.453V47.2052"
      fill="#CBCBCB" />
    <path fill-rule="evenodd" clip-rule="evenodd"
      d="M77.1519 13.5681C77.1519 11.1256 75.2435 9.69196 72.2447 9.69196C68.9732 9.69196 67.3375 11.1256 67.3375 13.5681C67.3375 16.0636 68.9732 17.5238 72.2447 17.5238C75.2435 17.5238 77.1519 16.0636 77.1519 13.5681ZM76.8793 47.2052V22.3026C76.8793 20.5769 75.7888 19.5681 74.1531 19.5681H65.7018V22.5681H66.247C67.8828 22.5681 68.428 23.2318 68.428 24.7451V47.2052"
      fill="#CBCBCB" />
    <path fill-rule="evenodd" clip-rule="evenodd"
      d="M97.0533 33.7981V39.3202C95.4176 40.9132 93.5092 41.8158 91.8735 41.8158C90.2377 41.8158 89.4199 41.0459 89.4199 38.9751C89.4199 36.6919 89.9651 35.8158 91.8735 35.099C93.2366 34.5415 94.5997 34.1963 97.0533 33.7981ZM85.0579 27.1875L85.8758 26.8689C88.0568 26.0194 89.4199 25.7008 91.0556 25.4087C91.8735 25.3025 92.964 25.1963 93.5092 25.1963C96.2354 25.1963 97.0533 26.0725 97.0533 28.5149V29.2052C93.2366 29.8158 92.1461 30.0282 89.9651 30.4795C88.8746 30.745 87.7842 31.0902 86.6937 31.5415C83.1496 32.922 81.5139 35.5769 81.5139 39.745C81.5139 44.9751 83.6948 47.4707 88.602 47.4707C90.5104 47.4707 92.4187 47.0459 93.7818 46.1964C95.1449 45.5857 95.6902 45.2672 97.3259 43.807V44.6565C97.3259 46.3822 98.1438 47.2052 99.7795 47.2052H107.958V44.3645H107.686C106.05 44.3645 105.232 43.6477 105.232 42.214V28.6477C105.232 21.5857 102.778 19.1964 95.6902 19.1964C93.2366 19.1964 91.0556 19.4618 88.8746 19.9663C86.6937 20.4707 85.6032 20.8424 83.1496 22.0902"
      fill="#CBCBCB" />
    <path fill-rule="evenodd" clip-rule="evenodd"
      d="M120.771 47.2052V28.4618C122.68 26.7362 124.043 26.0725 125.951 26.0725C127.86 26.0725 128.405 26.8689 128.405 29.6831V47.2052H136.856V28.3556C136.856 24.4795 136.311 22.807 135.22 21.3468C133.857 19.9132 132.221 19.2495 129.768 19.2495C126.496 19.2495 124.043 20.4176 120.226 23.63V22.1433C120.226 20.4176 119.408 19.568 117.773 19.568H109.594V22.568H109.866C111.502 22.568 112.32 23.2317 112.32 24.745V47.2052"
      fill="#CBCBCB" />
    <mask id="mask0_4734_47901" style="mask-type:luminance" maskUnits="userSpaceOnUse" x="0" y="-1" width="238"
      height="61">
      <path d="M0.00128174 -0.000152588H238V59.9999H0.00128174V-0.000152588Z" fill="white" />
    </mask>
    <g>
      <path
        d="M163.029 41.9203H150.489L162.484 25.2477V19.5662H144.491C142.31 19.5662 141.492 20.4159 141.492 22.4601V27.4778H144.491V26.9203C144.491 25.407 145.309 24.7964 146.945 24.7964H153.488L141.22 41.4689V47.2035H163.029"
        fill="#CBCBCB" />
      <path fill-rule="evenodd" clip-rule="evenodd"
        d="M211.283 45.6902V14.4158C211.283 11.8936 210.193 11.0706 207.739 11.0706H200.378V14.5221H201.196C202.559 14.5221 203.104 15.0264 203.104 16.5662V45.6902H211.283ZM215.645 45.6902H223.551V22.0884C223.551 19.699 222.461 18.7432 220.007 18.7432H215.645V45.6902ZM198.742 45.6902V18.7432H194.381C191.927 18.7432 190.836 19.699 190.836 22.0884V45.6902H198.742ZM232.82 29.9734C232.82 44.6017 221.915 55.2742 207.194 55.2742C192.472 55.2742 181.567 44.6017 181.567 29.9734C181.567 15.3451 192.472 4.67244 207.194 4.67244C221.915 4.67244 232.82 15.3451 232.82 29.9734ZM238 29.9734C238 12.8495 224.914 -0.000152588 207.194 -0.000152588C189.746 -0.000152588 176.388 12.8495 176.388 29.9734C176.388 47.1504 189.746 59.9999 207.194 59.9999C224.914 59.9999 238 47.1504 238 29.9734Z"
        fill="#CBCBCB" />
    </g>
  </g>
  <defs>
    <clipPath id="clip0_4734_47901">
      <rect width="238" height="60" fill="white" />
    </clipPath>
  </defs>
</svg>