<svg width="238" height="60" viewBox="0 0 238 60" fill="none" xmlns="http://www.w3.org/2000/svg">
<g clip-path="url(#clip0_5192_54576)">
<path fill-rule="evenodd" clip-rule="evenodd" d="M21.5371 32.3647H12.8132L17.4478 17.6833L21.5371 32.3647ZM8.72389 47.2054L11.4501 38.2585H22.6276L25.3538 47.2054H34.6229L24.8086 13.2496C24.2633 11.0195 23.1728 10.3027 20.7192 10.3027H7.08816V13.3558H8.17865C9.81437 13.3558 10.6322 13.8603 10.6322 15.0815C10.6322 15.8514 10.6322 16.3558 9.81437 18.1877L0 47.2054" fill="#CBCBCB"/>
<path d="M46.3456 47.2054V13.0107C46.3456 11.2319 45.2551 10.3027 43.3468 10.3027H34.8955V13.3558H35.4408C37.0765 13.3558 37.8943 14.0195 37.8943 15.4532V47.2054" fill="#CBCBCB"/>
<path d="M61.6122 47.2054V13.0107C61.6122 11.2319 60.5217 10.3027 58.6134 10.3027H50.1621V13.3558H50.7074C52.3431 13.3558 53.1609 14.0195 53.1609 15.4532V47.2054" fill="#CBCBCB"/>
<path fill-rule="evenodd" clip-rule="evenodd" d="M77.1523 13.5685C77.1523 11.126 75.2439 9.69238 72.2451 9.69238C68.9736 9.69238 67.3379 11.126 67.3379 13.5685C67.3379 16.0641 68.9736 17.5242 72.2451 17.5242C75.2439 17.5242 77.1523 16.0641 77.1523 13.5685ZM76.8796 47.2057V22.303C76.8796 20.5773 75.7891 19.5685 74.1534 19.5685H65.7021V22.5685H66.2474C67.8831 22.5685 68.4284 23.2322 68.4284 24.7455V47.2057" fill="#CBCBCB"/>
<path fill-rule="evenodd" clip-rule="evenodd" d="M97.0531 33.7981V39.3202C95.4174 40.9131 93.509 41.8158 91.8733 41.8158C90.2376 41.8158 89.4197 41.0459 89.4197 38.975C89.4197 36.6919 89.9649 35.8158 91.8733 35.0989C93.2364 34.5414 94.5995 34.1963 97.0531 33.7981ZM85.0578 27.1874L85.8756 26.8689C88.0566 26.0193 89.4197 25.7007 91.0554 25.4087C91.8733 25.3025 92.9638 25.1963 93.509 25.1963C96.2352 25.1963 97.0531 26.0724 97.0531 28.5149V29.2051C93.2364 29.8158 92.1459 30.0281 89.9649 30.4795C88.8745 30.745 87.784 31.0901 86.6935 31.5414C83.1494 32.922 81.5137 35.5768 81.5137 39.745C81.5137 44.975 83.6946 47.4706 88.6018 47.4706C90.5102 47.4706 92.4185 47.0458 93.7816 46.1963C95.1447 45.5857 95.69 45.2671 97.3257 43.8069V44.6565C97.3257 46.3821 98.1436 47.2051 99.7793 47.2051H107.958V44.3644H107.685C106.05 44.3644 105.232 43.6476 105.232 42.214V28.6476C105.232 21.5857 102.778 19.1963 95.69 19.1963C93.2364 19.1963 91.0554 19.4618 88.8745 19.9662C86.6935 20.4706 85.603 20.8423 83.1494 22.0901" fill="#CBCBCB"/>
<path fill-rule="evenodd" clip-rule="evenodd" d="M120.771 47.2058V28.4624C122.68 26.7367 124.043 26.073 125.951 26.073C127.859 26.073 128.405 26.8695 128.405 29.6836V47.2058H136.856V28.3562C136.856 24.4801 136.311 22.8075 135.22 21.3473C133.857 19.9137 132.221 19.25 129.768 19.25C126.496 19.25 124.043 20.4181 120.226 23.6305V22.1438C120.226 20.4181 119.408 19.5686 117.772 19.5686H109.594V22.5686H109.866C111.502 22.5686 112.32 23.2323 112.32 24.7456V47.2058" fill="#CBCBCB"/>
<mask id="mask0_5192_54576" style="mask-type:luminance" maskUnits="userSpaceOnUse" x="0" y="0" width="238" height="60">
<path d="M0.000976562 -9.15527e-05H238V60H0.000976562V-9.15527e-05Z" fill="white"/>
</mask>
<g mask="url(#mask0_5192_54576)">
<path d="M163.029 41.92H150.489L162.484 25.2473V19.5659H144.491C142.31 19.5659 141.492 20.4155 141.492 22.4597V27.4775H144.491V26.9199C144.491 25.4066 145.309 24.796 146.945 24.796H153.488L141.22 41.4685V47.2031H163.029" fill="#CBCBCB"/>
<path fill-rule="evenodd" clip-rule="evenodd" d="M211.283 45.6902V14.4158C211.283 11.8937 210.193 11.0707 207.739 11.0707H200.378V14.5221H201.196C202.559 14.5221 203.104 15.0264 203.104 16.5663V45.6902H211.283ZM215.645 45.6902H223.551V22.0884C223.551 19.699 222.461 18.7433 220.007 18.7433H215.645V45.6902ZM198.743 45.6902V18.7433H194.381C191.927 18.7433 190.836 19.699 190.836 22.0884V45.6902H198.743ZM232.82 29.9735C232.82 44.6018 221.915 55.2743 207.194 55.2743C192.472 55.2743 181.567 44.6018 181.567 29.9735C181.567 15.3451 192.472 4.6725 207.194 4.6725C221.915 4.6725 232.82 15.3451 232.82 29.9735ZM238 29.9735C238 12.8496 224.914 -9.15527e-05 207.194 -9.15527e-05C189.746 -9.15527e-05 176.388 12.8496 176.388 29.9735C176.388 47.1504 189.746 60 207.194 60C224.914 60 238 47.1504 238 29.9735Z" fill="#CBCBCB"/>
</g>
</g>
<defs>
<clipPath id="clip0_5192_54576">
<rect width="238" height="60" fill="white"/>
</clipPath>
</defs>
</svg>
