<svg width="225" height="60" viewBox="0 0 225 60" fill="none" xmlns="http://www.w3.org/2000/svg">
<g clip-path="url(#clip0_5192_54598)">
<path d="M81.3546 44.1491C78.8486 44.1491 75.9982 43.8849 74.3145 43.3171V18.7083C75.9982 18.3272 79.4067 18.0254 81.1679 18.0254C85.5518 18.0254 89.2235 19.9949 89.2235 24.7254C89.2235 27.3024 87.7601 29.3087 85.5182 30.218V30.4067C88.2846 31.1273 90.1205 33.2855 90.1205 36.503C90.1205 41.1938 86.6755 44.1491 81.3546 44.1491ZM81.0942 21.2457C80.0834 21.2457 78.5835 21.3957 77.8733 21.5485V29.1587H80.7965C83.7897 29.1587 85.5182 27.6061 85.5182 25.1451C85.5182 22.4936 83.4947 21.2457 81.0942 21.2457ZM80.6789 32.2611H77.8733V40.6288C78.6965 40.7778 80.2337 40.8967 81.3163 40.8967C84.2787 40.8967 86.3405 39.4176 86.3405 36.4634C86.3405 33.36 84.1275 32.2611 80.6789 32.2611Z" fill="#CBCBCB"/>
<path d="M95.4392 20.2609C94.2044 20.2609 93.3037 19.3507 93.3037 18.0254C93.3037 16.7774 94.238 15.8672 95.4774 15.8672C96.6758 15.8672 97.5718 16.7774 97.5718 18.0254C97.5718 19.3507 96.6385 20.2609 95.4392 20.2609ZM93.7153 23.8944H97.1621V43.7331H93.7153V23.8944Z" fill="#CBCBCB"/>
<path d="M109.758 44.1497C103.876 44.1497 100.469 39.8343 100.469 33.7767C100.469 27.9869 104.289 23.4395 109.796 23.4395C115.531 23.4395 119.086 27.5323 119.086 33.7767C119.086 39.7211 115.152 44.1497 109.758 44.1497ZM109.758 26.7739C106.537 26.7739 104.177 29.2698 104.177 33.7767C104.177 38.0525 106.277 40.8181 109.723 40.8181C113.131 40.8181 115.378 38.1308 115.378 33.7767C115.378 29.4612 113.244 26.7739 109.758 26.7739Z" fill="#CBCBCB"/>
<path d="M134.6 43.7337V31.6185C134.6 28.1737 133.025 26.8484 130.478 26.8484C128.647 26.8484 127.032 27.7945 126.062 29.1943V43.7337H122.575V29.5358C122.575 27.869 122.315 25.6014 121.863 24.3101L125.125 23.5187C125.349 24.0837 125.646 25.4099 125.684 25.9778C127.334 24.1214 129.396 23.4395 131.268 23.4395C134.524 23.4395 138.084 24.8836 138.084 31.128V43.7337H134.6Z" fill="#CBCBCB"/>
<path d="M150.585 44.1497C144.704 44.1497 141.296 39.8343 141.296 33.7767C141.296 27.9869 145.116 23.4395 150.624 23.4395C156.354 23.4395 159.914 27.5323 159.914 33.7767C159.914 39.7211 155.98 44.1497 150.585 44.1497ZM150.585 26.7739C147.364 26.7739 145.006 29.2698 145.006 33.7767C145.006 38.0525 147.104 40.8181 150.545 40.8181C153.958 40.8181 156.207 38.1308 156.207 33.7767C156.207 29.4612 154.071 26.7739 150.585 26.7739Z" fill="#CBCBCB"/>
<path d="M172.677 27.3427C172.265 27.2634 171.703 27.1899 171.144 27.1899C169.342 27.1899 167.995 28.0265 166.869 29.8772V43.7337H163.426V30.2932C163.426 28.0992 163.161 25.8646 162.673 24.3101L165.934 23.5583C166.232 24.2752 166.535 25.4873 166.535 26.5466C167.731 24.3506 169.607 23.4395 171.666 23.4395C172.001 23.4395 172.642 23.5187 173.015 23.6319L172.677 27.3427Z" fill="#CBCBCB"/>
<path d="M177.196 20.2609C175.961 20.2609 175.06 19.3507 175.06 18.0254C175.06 16.7774 175.995 15.8672 177.234 15.8672C178.429 15.8672 179.329 16.7774 179.329 18.0254C179.329 19.3507 178.395 20.2609 177.196 20.2609ZM175.472 23.8944H178.922V43.7331H175.472V23.8944Z" fill="#CBCBCB"/>
<path d="M196.053 29.1594C195.116 27.7191 193.506 26.889 191.67 26.889C188.184 26.889 186.012 29.5754 186.012 33.9654C186.012 38.0525 188.373 40.6295 191.856 40.6295C193.956 40.6295 196.315 39.7211 197.55 38.6968L197.849 42.3689C196.35 43.4706 193.803 44.1488 191.445 44.1488C185.862 44.1488 182.303 40.2531 182.303 34.1568C182.303 27.5314 186.199 23.4404 191.633 23.4404C194.442 23.4404 196.615 24.2752 198.187 26.2438L196.053 29.1594Z" fill="#CBCBCB"/>
<path d="M212.077 43.9215L211.475 41.1209H211.288C209.941 42.9405 208.218 44.1488 205.706 44.1488C202.033 44.1488 199.79 41.9171 199.79 38.2063C199.79 33.8908 202.709 32.4948 211.027 32.4948C211.103 31.7327 211.14 30.9752 211.14 30.4074C211.14 27.987 209.677 26.7343 207.243 26.7343C205.445 26.7343 203.463 27.2248 202.033 27.987L201.588 24.6912C203.085 23.9734 205.445 23.4404 207.806 23.4404C211.592 23.4404 214.51 25.4486 214.51 29.9169C214.51 32.2231 214.024 36.2009 214.024 37.4875L215.484 43.5451L212.077 43.9215ZM203.723 35.8604C203.345 36.5386 203.199 37.2998 203.199 37.8648C203.199 39.873 204.132 41.2351 206.382 41.2351C209.529 41.2351 210.838 38.6968 211.027 35.1029C208.742 35.1378 205.668 35.4444 203.723 35.8604Z" fill="#CBCBCB"/>
<path d="M60.0242 29.9986C60.0242 46.5727 46.74 60 30.3461 60C13.9567 60 0.666992 46.5727 0.666992 29.9986C0.666992 13.433 13.9567 0 30.3461 0C46.74 0 60.0242 13.433 60.0242 29.9986Z" fill="#CBCBCB"/>
<path d="M43.972 30.0185C43.972 37.7307 37.9296 43.8826 30.2996 43.8826C27.5565 43.8826 22.1805 42.7894 22.8553 38.8814C22.8982 38.6334 23.055 37.8476 23.517 37.1336C24.0462 36.3186 25.295 35.197 27.9849 34.2991C31.9562 32.9719 35.1034 34.5037 35.1034 34.5037C35.1034 34.5037 32.5685 32.3144 27.9606 33.6275C27.031 33.8935 26.2853 34.1944 25.5573 34.5396C24.9674 34.8207 24.8601 34.416 24.9842 34.2038C25.52 33.2879 26.0417 32.3814 26.6764 31.5891C27.4697 30.5949 29.4596 28.4848 32.5704 27.2774C34.8132 26.4068 37.0774 26.1568 37.0774 26.1568C37.0774 26.1568 34.8496 25.9955 32.6534 26.7341C31.7444 27.0397 31.0257 27.3472 30.4172 27.6708C29.8964 27.9471 30.0205 27.5821 30.238 27.3227C30.3789 27.152 30.5404 27.001 30.6916 26.8454C34.9942 22.3998 38.9105 20.3086 38.9105 20.3086C35.3657 21.1245 32.4994 22.6545 29.608 25.3051C29.4866 25.4154 29.2402 25.6475 29.2244 25.2532C29.2085 24.8683 29.2141 24.4891 29.1618 23.9015C29.034 22.4668 28.291 21.5914 28.291 21.5914C28.291 21.5914 28.9472 22.7252 28.7988 24.3269C28.6485 25.9521 28.082 26.802 27.8944 27.0001C27.0422 27.9037 26.3824 28.6829 25.4854 29.7978C25.4126 29.8884 25.156 29.9468 25.156 29.5592C25.155 28.9498 25.0972 28.0037 25.0617 27.4029C24.8582 23.9694 23.5002 22.8403 23.5002 22.8403C23.5002 22.8403 24.511 24.4816 24.5288 27.3972C24.5372 28.6319 24.3598 29.8987 24.2077 30.7618C24.092 31.4117 23.3444 32.588 23.2753 32.6842C20.9933 35.8526 19.346 38.7805 18.6114 40.1152C17.4261 42.2574 16.686 43.7223 15.9178 45.1758C15.4652 46.0257 14.7101 44.7551 15.3662 43.3214C16.4228 41.0075 18.5694 37.808 17.5213 35.0716C16.8885 33.4171 16.5852 31.9145 16.5852 30.0185C16.5852 22.3111 22.7293 16.1592 30.1596 16.1592H43.972V30.0185Z" fill="#FAFAFA"/>
<path d="M224.667 19.4328C224.667 17.3727 223.138 15.8691 221.222 15.8691C219.327 15.8691 217.819 17.4142 217.819 19.4328C217.819 21.4731 219.265 22.9964 221.222 22.9964C223.22 22.9964 224.667 21.4938 224.667 19.4328ZM224.055 19.4328C224.055 21.2042 222.914 22.4399 221.243 22.4399C219.572 22.4399 218.43 21.1222 218.43 19.4328C218.43 17.6821 219.612 16.4257 221.243 16.4257C222.832 16.4257 224.055 17.6821 224.055 19.4328ZM222.71 21.0401C222.548 20.6071 222.302 20.2166 221.875 19.6186C222.241 19.4535 222.465 19.1451 222.465 18.7329C222.465 18.033 221.997 17.6613 221.162 17.6613C220.957 17.6613 220.407 17.7028 220.101 17.7434V21.142H220.733V19.8242H221.284C221.651 20.3808 221.895 20.8128 221.997 21.1024L222.71 21.0401ZM221.793 18.7536C221.793 19.1451 221.528 19.3102 221.141 19.3102H220.733V18.2386C220.876 18.2179 221.079 18.2179 221.182 18.2179C221.569 18.2179 221.793 18.3829 221.793 18.7536Z" fill="#CBCBCB"/>
</g>
<defs>
<clipPath id="clip0_5192_54598">
<rect width="224" height="60" fill="white" transform="translate(0.666992)"/>
</clipPath>
</defs>
</svg>
