<svg width="225" height="60" viewBox="0 0 225 60" fill="none" xmlns="http://www.w3.org/2000/svg">
  <g>
    <path
      d="M81.1875 44.1494C78.6815 44.1494 75.8311 43.8852 74.1473 43.3174V18.7086C75.8311 18.3275 79.2396 18.0257 81.0008 18.0257C85.3847 18.0257 89.0564 19.9952 89.0564 24.7257C89.0564 27.3027 87.5929 29.309 85.3511 30.2183V30.407C88.1175 31.1276 89.9533 33.2858 89.9533 36.5033C89.9533 41.1941 86.5084 44.1494 81.1875 44.1494ZM80.9271 21.246C79.9163 21.246 78.4164 21.396 77.7061 21.5488V29.159H80.6293C83.6225 29.159 85.3511 27.6064 85.3511 25.1454C85.3511 22.4939 83.3276 21.246 80.9271 21.246ZM80.5117 32.2614H77.7061V40.6291C78.5293 40.7781 80.0665 40.897 81.1492 40.897C84.1116 40.897 86.1733 39.418 86.1733 36.4637C86.1733 33.3603 83.9604 32.2614 80.5117 32.2614Z"
      fill="#CBCBCB" />
    <path
      d="M95.2724 20.2613C94.0376 20.2613 93.1369 19.3511 93.1369 18.0258C93.1369 16.7779 94.0712 15.8676 95.3107 15.8676C96.5091 15.8676 97.4051 16.7779 97.4051 18.0258C97.4051 19.3511 96.4717 20.2613 95.2724 20.2613ZM93.5485 23.8948H96.9953V43.7335H93.5485V23.8948Z"
      fill="#CBCBCB" />
    <path
      d="M109.591 44.1494C103.709 44.1494 100.301 39.834 100.301 33.7764C100.301 27.9866 104.121 23.4391 109.629 23.4391C115.363 23.4391 118.919 27.532 118.919 33.7764C118.919 39.7208 114.985 44.1494 109.591 44.1494ZM109.591 26.7736C106.37 26.7736 104.009 29.2695 104.009 33.7764C104.009 38.0522 106.109 40.8178 109.555 40.8178C112.964 40.8178 115.21 38.1305 115.21 33.7764C115.21 29.4609 113.077 26.7736 109.591 26.7736Z"
      fill="#CBCBCB" />
    <path
      d="M134.432 43.7334V31.6182C134.432 28.1734 132.858 26.8481 130.311 26.8481C128.48 26.8481 126.865 27.7942 125.895 29.194V43.7334H122.408V29.5355C122.408 27.8687 122.148 25.6011 121.696 24.3098L124.958 23.5184C125.182 24.0834 125.479 25.4096 125.517 25.9775C127.166 24.1211 129.229 23.4391 131.1 23.4391C134.357 23.4391 137.916 24.8833 137.916 31.1277V43.7334H134.432Z"
      fill="#CBCBCB" />
    <path
      d="M150.419 44.1494C144.538 44.1494 141.129 39.834 141.129 33.7764C141.129 27.9866 144.949 23.4391 150.457 23.4391C156.187 23.4391 159.747 27.532 159.747 33.7764C159.747 39.7208 155.813 44.1494 150.419 44.1494ZM150.419 26.7736C147.198 26.7736 144.839 29.2695 144.839 33.7764C144.839 38.0522 146.937 40.8178 150.378 40.8178C153.792 40.8178 156.04 38.1305 156.04 33.7764C156.04 29.4609 153.905 26.7736 150.419 26.7736Z"
      fill="#CBCBCB" />
    <path
      d="M172.51 27.3424C172.098 27.2631 171.536 27.1896 170.977 27.1896C169.175 27.1896 167.828 28.0262 166.702 29.8769V43.7334H163.259V30.2929C163.259 28.0989 162.994 25.8643 162.506 24.3098L165.767 23.558C166.065 24.2749 166.368 25.487 166.368 26.5463C167.564 24.3503 169.44 23.4391 171.5 23.4391C171.834 23.4391 172.475 23.5184 172.848 23.6316L172.51 27.3424Z"
      fill="#CBCBCB" />
    <path
      d="M177.029 20.2613C175.794 20.2613 174.892 19.3511 174.892 18.0258C174.892 16.7779 175.828 15.8676 177.067 15.8676C178.262 15.8676 179.161 16.7779 179.161 18.0258C179.161 19.3511 178.228 20.2613 177.029 20.2613ZM175.305 23.8948H178.754V43.7335H175.305V23.8948Z"
      fill="#CBCBCB" />
    <path
      d="M195.886 29.1591C194.949 27.7187 193.339 26.8886 191.503 26.8886C188.017 26.8886 185.845 29.575 185.845 33.965C185.845 38.0521 188.206 40.6291 191.69 40.6291C193.79 40.6291 196.148 39.7208 197.383 38.6964L197.683 42.3685C196.184 43.4702 193.637 44.1485 191.278 44.1485C185.695 44.1485 182.136 40.2528 182.136 34.1565C182.136 27.531 186.033 23.4401 191.467 23.4401C194.275 23.4401 196.449 24.2749 198.02 26.2434L195.886 29.1591Z"
      fill="#CBCBCB" />
    <path
      d="M211.91 43.9211L211.308 41.1206H211.121C209.774 42.9401 208.051 44.1485 205.539 44.1485C201.866 44.1485 199.623 41.9167 199.623 38.2059C199.623 33.8905 202.541 32.4944 210.86 32.4944C210.936 31.7323 210.973 30.9748 210.973 30.407C210.973 27.9866 209.51 26.7339 207.075 26.7339C205.278 26.7339 203.295 27.2244 201.866 27.9866L201.42 24.6908C202.918 23.973 205.278 23.4401 207.639 23.4401C211.425 23.4401 214.342 25.4483 214.342 29.9165C214.342 32.2228 213.857 36.2005 213.857 37.4871L215.317 43.5448L211.91 43.9211ZM203.556 35.86C203.178 36.5382 203.031 37.2994 203.031 37.8644C203.031 39.8726 203.965 41.2347 206.215 41.2347C209.362 41.2347 210.671 38.6964 210.86 35.1026C208.574 35.1375 205.501 35.444 203.556 35.86Z"
      fill="#CBCBCB" />
    <path
      d="M59.8572 29.9986C59.8572 46.5727 46.5731 60 30.1791 60C13.7897 60 0.5 46.5727 0.5 29.9986C0.5 13.433 13.7897 0 30.1791 0C46.5731 0 59.8572 13.433 59.8572 29.9986Z"
      fill="#CBCBCB" />
    <path
      d="M43.8047 30.0183C43.8047 37.7304 37.7624 43.8824 30.1324 43.8824C27.3893 43.8824 22.0133 42.7891 22.6881 38.8812C22.731 38.6331 22.8878 37.8474 23.3498 37.1333C23.879 36.3183 25.1278 35.1968 27.8177 34.2988C31.789 32.9716 34.9362 34.5035 34.9362 34.5035C34.9362 34.5035 32.4013 32.3142 27.7934 33.6272C26.8638 33.8932 26.1181 34.1941 25.3901 34.5394C24.8002 34.8204 24.6929 34.4158 24.817 34.2036C25.3528 33.2876 25.8745 32.3812 26.5092 31.5888C27.3025 30.5946 29.2924 28.4845 32.4032 27.2772C34.646 26.4065 36.9102 26.1566 36.9102 26.1566C36.9102 26.1566 34.6824 25.9953 32.4862 26.7339C31.5772 27.0395 30.8585 27.347 30.25 27.6705C29.7292 27.9469 29.8533 27.5818 30.0708 27.3224C30.2117 27.1517 30.3732 27.0008 30.5244 26.8452C34.827 22.3996 38.7433 20.3083 38.7433 20.3083C35.1985 21.1243 32.3322 22.6542 29.4408 25.3048C29.3194 25.4152 29.073 25.6472 29.0572 25.2529C29.0413 24.8681 29.0469 24.4889 28.9946 23.9012C28.8668 22.4665 28.1238 21.5912 28.1238 21.5912C28.1238 21.5912 28.78 22.725 28.6316 24.3266C28.4813 25.9519 27.9148 26.8018 27.7272 26.9999C26.875 27.9035 26.2152 28.6826 25.3182 29.7976C25.2454 29.8881 24.9888 29.9466 24.9888 29.5589C24.9878 28.9496 24.93 28.0035 24.8945 27.4026C24.691 23.9692 23.333 22.8401 23.333 22.8401C23.333 22.8401 24.3438 24.4813 24.3616 27.397C24.37 28.6317 24.1926 29.8985 24.0405 30.7616C23.9248 31.4115 23.1772 32.5877 23.1081 32.684C20.8261 35.8524 19.1788 38.7803 18.4442 40.115C17.2589 42.2571 16.5188 43.722 15.7506 45.1756C15.298 46.0255 14.5429 44.7549 15.199 43.3211C16.2556 41.0073 18.4022 37.8078 17.3541 35.0714C16.7213 33.4169 16.418 31.9143 16.418 30.0183C16.418 22.3109 22.5621 16.1589 29.9924 16.1589H43.8047V30.0183Z"
      fill="#FAFAFA" />
    <path
      d="M224.5 19.4331C224.5 17.373 222.971 15.8694 221.055 15.8694C219.16 15.8694 217.652 17.4145 217.652 19.4331C217.652 21.4734 219.098 22.9967 221.055 22.9967C223.052 22.9967 224.5 21.4941 224.5 19.4331ZM223.888 19.4331C223.888 21.2045 222.747 22.4402 221.076 22.4402C219.405 22.4402 218.263 21.1225 218.263 19.4331C218.263 17.6824 219.445 16.426 221.076 16.426C222.665 16.426 223.888 17.6824 223.888 19.4331ZM222.543 21.0404C222.38 20.6075 222.135 20.2169 221.708 19.6189C222.074 19.4538 222.298 19.1454 222.298 18.7332C222.298 18.0333 221.83 17.6616 220.994 17.6616C220.79 17.6616 220.24 17.7031 219.934 17.7437V21.1423H220.566V19.8245H221.117C221.484 20.3811 221.728 20.8131 221.83 21.1027L222.543 21.0404ZM221.626 18.7539C221.626 19.1454 221.361 19.3105 220.974 19.3105H220.566V18.2389C220.709 18.2182 220.912 18.2182 221.015 18.2182C221.401 18.2182 221.626 18.3832 221.626 18.7539Z"
      fill="#CBCBCB" />
  </g>
  <defs>
    <clipPath id="clip0_4734_47924">
      <rect width="224" height="60" fill="white" transform="translate(0.5)" />
    </clipPath>
  </defs>
</svg>
