<svg width="135" height="60" viewBox="0 0 135 60" fill="none" xmlns="http://www.w3.org/2000/svg">
  <g>
    <path
      d="M129.223 34.3829C128.494 34.3829 127.901 33.7601 127.901 32.9947C127.901 32.2271 128.494 31.6082 129.223 31.6082C129.953 31.6082 130.545 32.2271 130.545 32.9947C130.545 33.7601 129.953 34.3829 129.223 34.3829ZM129.223 31.2716C128.317 31.2716 127.58 32.0398 127.58 32.9947C127.58 33.9471 128.317 34.7222 129.223 34.7222C130.131 34.7222 130.87 33.9471 130.87 32.9947C130.87 32.0398 130.131 31.2716 129.223 31.2716Z"
      fill="#CBCBCB" />
    <path
      d="M128.946 33.2686H129.051L129.154 33.2737C129.227 33.2789 129.284 33.2852 129.319 33.3032C129.38 33.3265 129.431 33.3727 129.452 33.4334C129.469 33.4753 129.479 33.5466 129.479 33.6521C129.484 33.7603 129.495 33.8438 129.512 33.8995H129.97L129.953 33.8497C129.949 33.8325 129.943 33.816 129.943 33.7969C129.943 33.7804 129.937 33.7647 129.937 33.7453V33.5871C129.937 33.4004 129.888 33.2686 129.776 33.1875C129.717 33.1367 129.628 33.1056 129.514 33.08C129.641 33.0685 129.748 33.0258 129.834 32.9602C129.922 32.8949 129.964 32.7833 129.964 32.6344C129.964 32.4358 129.881 32.2941 129.717 32.2077C129.622 32.1567 129.503 32.1228 129.353 32.1142C129.33 32.1142 129.204 32.1142 128.977 32.1114H128.464V33.8995H128.946V33.2686ZM129.397 32.8801C129.336 32.924 129.245 32.9474 129.132 32.9474H128.946V32.4252H129.062C129.183 32.4252 129.275 32.4358 129.342 32.4613C129.441 32.5033 129.489 32.5682 129.489 32.6669C129.489 32.7678 129.461 32.8352 129.397 32.8801Z"
      fill="#CBCBCB" />
    <path
      d="M64.4559 40.6793C65.5463 40.6793 65.8057 41.7603 65.7544 42.3655C65.5383 44.8639 62.1252 46.8958 61.2607 46.9969C61.7235 41.831 63.2514 40.7384 64.4559 40.6793ZM30.4448 41.2306C29.7557 42.2705 28.8859 43.4176 27.8192 44.6909C27.8763 44.1677 27.9328 43.6709 27.9944 43.1921C28.8507 36.3831 30.1167 34.0965 31.7646 34.3852C32.3014 34.4975 32.5207 35.0741 32.5342 35.5408C32.6551 37.0219 32.0228 38.8457 30.4448 41.2306ZM123.723 47.5781C122.888 46.3299 122.123 44.9916 121.462 43.6353C120.356 45.1897 119.128 46.7523 117.864 48.2392C119.628 48.195 121.647 48.0159 123.723 47.5781ZM122.016 37.4349C122.706 36.1388 123.14 35.01 123.196 34.1711C123.258 33.6723 123.173 32.8105 122.461 32.8105C121.23 32.8105 121.23 34.7788 122.016 37.4349ZM100.341 45.6549C103.339 42.1912 104.872 36.996 104.518 34.8661C104.441 34.4199 104.272 34.0773 103.828 34.1314C102.428 34.3094 99.1629 40.587 100.341 45.6549ZM83.0531 50.1693C81.8728 49.7916 80.8923 49.1276 80.317 48.4139C80.2741 48.4487 80.2347 48.4795 80.1912 48.5103C80.1863 48.5646 80.1751 48.6209 80.1595 48.6744C80.1285 53.028 81.625 57.0532 83.2842 56.8599C85.0326 56.5564 84.2078 52.8233 83.0531 50.1693ZM80.4263 44.8573C83.8325 41.4986 86.4852 36.7141 86.4676 34.1526C86.4676 33.6595 86.3568 33.2253 85.888 33.2253C84.8225 33.2253 81.3464 36.7574 80.4263 44.8573ZM70.4868 48.1827C69.1183 48.3064 68.8167 51.4012 66.0848 51.55C64.2202 51.6526 63.3657 49.3412 63.3657 49.3412C63.3657 49.3412 68.6422 46.9243 68.6034 41.7053C68.5185 40.2096 67.7676 37.8144 64.9762 37.8144C63.7703 37.8144 62.4355 38.5877 61.6435 39.4399C61.9126 38.0282 62.1664 36.2152 62.2858 33.7515C62.3638 32.1481 61.2333 31.9934 60.7953 32.0175C60.4698 32.0338 59.5224 32.2812 59.3937 33.7316C58.962 38.5689 58.8967 39.2872 58.5058 42.3643C57.7895 48.0159 53.825 49.9814 51.2431 49.8326C50.1446 49.7682 48.4258 49.1773 48.4258 46.1883C48.4258 42.9817 50.4525 40.6081 51.5283 40.7537C52.2858 40.8555 52.6767 41.6485 52.0047 42.7861C51.461 43.7294 50.8914 45.0421 52.2942 45.5816C53.96 46.1546 55.1918 43.7257 55.2367 41.4753C55.2367 39.7219 54.143 37.6744 51.461 37.5418C48.6382 37.4018 45.2663 41.2681 45.2663 46.4653C45.2663 46.8983 45.2962 47.304 45.3512 47.6901C45.1475 48.8648 44.1494 50.069 43.1556 50.069C42.076 50.069 41.1651 48.4615 41.2791 46.4103C41.3997 44.2949 42.0429 42.8865 42.314 42.0441C42.8721 40.2943 42.2107 39.9411 41.4247 39.7894C40.8071 39.6729 39.8263 39.8345 39.31 41.5741C38.8408 43.1525 38.2304 45.3094 37.6991 46.8958C37.369 47.882 36.9474 49.0071 36.3919 49.7764C35.9041 50.3268 35.3763 50.6891 34.8821 50.6891C33.1377 50.7054 34.6156 47.1523 34.6156 44.7159C34.5986 44.0272 34.0763 42.7702 32.3391 43.1185C34.2625 40.2353 35.2352 37.7687 35.1745 35.248C35.0582 32.4807 33.0995 31.6769 31.6207 31.706C27.6596 31.7902 25.5874 36.3378 24.835 46.971C21.2655 50.4973 16.9173 52.626 12.7703 52.2761C6.90516 51.7794 3.88211 45.766 4.27369 38.5552C4.82454 28.4374 12.4575 16.231 19.7335 16.9807C22.2838 17.2452 24.0427 19.6008 23.7712 24.7064C23.4544 30.6251 19.3779 39.2564 15.0738 39.0032C13.0867 38.8864 12.4662 36.7574 12.6177 34.8744C12.9454 30.7967 14.9232 29.6779 15.0553 28.0246C15.1321 27.0526 14.1806 26.6279 13.4828 26.8593C12.2849 27.2598 9.899 30.3671 9.60814 34.7871C9.25256 40.1869 12.6528 41.872 14.6685 41.9898C20.6318 42.3406 26.4516 33.6141 26.9415 24.447C27.2563 18.5137 24.7881 14.6829 20.1152 14.1567C11.0294 13.1365 1.48469 25.6054 0.996775 38.6661C0.703689 46.4753 4.3063 54.6493 12.7084 55.2713C16.7223 55.5412 20.9224 53.8857 24.5972 50.9155C24.5904 51.5808 24.5972 52.1728 24.5953 52.6176C24.6287 53.7116 25.0034 54.6557 26.1529 54.6191C27.2498 54.5792 27.5387 53.7492 27.5129 52.7537C27.4988 52.1758 27.5031 51.6147 27.516 51.0692C27.756 46.3134 30.0234 45.6255 30.9412 45.7954C32.207 46.0739 31.1982 47.2775 31.3243 50.6906C31.4138 53.1363 33.3251 53.7885 34.2032 53.7885C36.2791 53.7885 38.0819 52.2193 39.1381 49.8816L39.175 49.8537C40.0919 52.2498 41.6475 53.1078 42.8894 53.1078C44.3459 53.1078 45.7248 51.9938 46.5868 50.7576C47.7656 52.2988 49.4999 52.9776 50.7944 53.0402C53.4189 53.1654 55.6491 51.9129 57.3241 50.2322C57.1293 51.5549 56.8938 53.3328 56.8938 53.6224C56.8938 54.4079 57.2455 54.9634 57.9872 55.0493C59.2081 55.1895 60.0994 54.3352 60.4804 50.1433C60.4804 50.1433 62.2058 54.2817 66.0365 54.2817C69.8758 54.2817 71.5361 50.434 71.5361 49.2602C71.5361 48.9196 71.4135 48.0963 70.4868 48.1827ZM33.5864 26.0412C33.5864 24.8127 30.3748 22.4864 28.1064 22.268C28.1332 22.9314 28.1281 23.6135 28.0907 24.3224C28.0017 25.9976 27.7588 27.6883 27.3833 29.3481C31.5514 26.3226 33.5864 27.1538 33.5864 26.0412ZM132.195 54.2956C129.934 54.1739 127.591 52.4394 125.506 49.9646C121.824 50.8434 118.049 51.0173 115.418 50.9961C113.235 53.3464 111.146 55.3044 109.652 56.4172C109.652 56.4172 107.64 58.0076 106.664 56.6569C106.093 55.7502 106.384 54.7734 107.953 53.7349C108.933 53.0835 110.164 52.0338 111.497 50.739C109.245 50.0957 109.799 47.6468 112 47.9287C112.16 47.9504 112.89 48.0587 114.015 48.1434C116.197 45.764 118.416 43.0244 120.127 40.5147C119.321 38.3132 118.85 36.2215 118.85 34.5811C118.85 32.4281 120.025 29.9909 122.415 29.9909C124.729 29.9909 125.913 32.0085 125.913 34.0942C125.913 35.868 124.879 38.2685 123.301 40.8567C124.205 42.8762 125.375 44.9731 126.689 46.766C128.107 46.2829 129.503 45.6474 130.816 44.8283C132.584 43.72 134.105 45.8544 132.248 47.2216C131.132 47.9547 129.896 48.5504 128.602 49.0333C129.964 50.4098 131.4 51.3354 132.78 51.4602C135.143 51.6711 135.24 54.5533 132.195 54.2956ZM109.133 47.8863C108.856 49.0236 107.43 52.3062 103.793 52.3923H103.714C102.027 52.4192 100.377 51.5662 99.1609 49.9971C97.451 51.1282 95.8039 51.6731 94.6202 51.4862C92.0559 51.0789 91.2877 48.9566 91.0678 47.5724C89.598 49.3947 87.6436 50.2607 85.7639 50.4397C86.4345 51.8129 86.7735 53.4627 86.7735 54.9806C86.7735 57.3494 85.4626 59.772 83.09 59.772C79.7733 59.772 77.7857 54.8865 77.527 50.1296C76.96 50.3502 76.0244 50.5241 75.5898 49.5732C75.0651 48.4307 76.366 47.376 77.4643 46.7244C77.6559 37.2448 81.6112 30.5387 85.888 30.5387C87.3258 30.5387 89.0575 31.456 89.0575 34.2105C89.0575 37.0966 87.4248 40.7931 84.7917 44.0928C84.4337 44.5406 83.6014 45.4168 82.6755 46.3154C86.4141 49.0906 88.6811 46.1002 89.6153 44.2638C89.8378 43.7719 90.0243 43.2859 90.1662 42.8592C90.6966 41.2768 90.5443 41.6463 91.0437 40.0776C91.756 37.8426 92.9115 37.9403 93.4342 38.0282C95.296 38.3525 94.1804 40.5158 93.7248 42.4181L93.7038 42.4644C93.0039 45.7062 93.3294 48.279 95.26 48.6773C95.8765 48.7727 96.9399 48.3951 98.0278 47.5839C95.4827 40.672 99.3692 32.4893 103.392 31.7006C104.735 31.4375 106.501 31.9541 106.946 34.445C107.408 37.0587 106.48 40.7005 104.552 44.1677C104.117 44.9545 102.861 46.7244 101.373 48.0687C101.382 48.0815 101.388 48.0943 101.388 48.0963C102.515 49.6485 103.941 49.6109 103.941 49.6109C106.053 49.5983 106.69 47.9014 106.95 47.1991C107.249 46.3935 107.862 46.1267 108.511 46.3427C109.217 46.5799 109.268 47.3396 109.133 47.8863ZM94.1505 33.4927C93.2543 33.4927 92.5282 34.2504 92.5282 35.1925C92.5282 36.1302 93.2543 36.8916 94.1505 36.8916C95.0453 36.8916 95.7682 36.1302 95.7682 35.1925C95.7682 34.2504 95.0453 33.4927 94.1505 33.4927ZM112.406 44.1677C114.475 44.1677 115.276 43.3206 115.276 42.4496C115.276 41.331 113.997 40.7917 112.408 40.8074C110.783 40.825 109.627 41.4561 109.627 42.4644C109.627 43.2859 110.338 44.1677 112.406 44.1677ZM73.0341 44.1746C75.1083 44.1746 75.9176 43.3229 75.9176 42.4496C75.9176 41.3253 74.6332 40.7855 73.0341 40.8014C71.4023 40.8193 70.2439 41.4533 70.2439 42.4644C70.2439 43.2907 70.9594 44.1746 73.0341 44.1746ZM42.2524 35.1907C41.309 35.1907 40.5461 35.9903 40.5461 36.9806C40.5461 37.9668 41.309 38.7664 42.2524 38.7664C43.1921 38.7664 43.9568 37.9668 43.9568 36.9806C43.9568 35.9903 43.1921 35.1907 42.2524 35.1907ZM6.58083 10.2931C5.80624 11.2495 6.04658 12.8024 7.45299 14.0615C8.85851 15.3242 10.8105 15.7333 11.5881 14.7784C12.3656 13.8229 11.6725 11.8623 10.2675 10.603C8.86167 9.34077 7.36193 9.3382 6.58083 10.2931ZM12.1439 3.46077C10.6329 4.18765 10.0963 6.35203 11.2085 8.8978C12.3189 11.4441 14.5881 13.2471 16.098 12.5245C17.6101 11.7968 17.7914 8.81286 16.6801 6.26595C15.5685 3.72245 13.6545 2.73618 12.1439 3.46077ZM23.6515 0.301857C21.6438 -0.158783 19.5874 1.55522 18.892 4.9208C18.193 8.28495 19.166 11.8218 21.1745 12.2779C23.1806 12.736 25.4677 9.94394 26.163 6.57893C26.8606 3.21421 25.6599 0.75708 23.6515 0.301857ZM38.1515 5.77338C36.6187 3.61128 33.3012 3.4793 29.9494 6.09292C26.5978 8.70739 24.6863 12.9156 26.2187 15.0831C27.7515 17.2452 32.1471 16.5451 35.5015 13.9304C38.8518 11.3156 39.6832 7.94061 38.1515 5.77338ZM21.987 22.5323C21.9494 24.289 19.9075 26.4326 18.9322 24.7816C18.4008 23.5177 19.7369 21.2179 20.9741 21.1789C21.9715 21.1789 21.9952 22.113 21.987 22.5323Z"
      fill="#CBCBCB" />
  </g>
  <defs>
    <clipPath id="clip0_4734_47916">
      <rect width="134" height="60" fill="white" transform="translate(0.75)" />
    </clipPath>
  </defs>
</svg>