<svg width="135" height="60" viewBox="0 0 135 60" fill="none" xmlns="http://www.w3.org/2000/svg">
<g clip-path="url(#clip0_5192_54591)">
<path d="M128.806 34.3834C128.077 34.3834 127.485 33.7606 127.485 32.9952C127.485 32.2276 128.077 31.6087 128.806 31.6087C129.537 31.6087 130.129 32.2276 130.129 32.9952C130.129 33.7606 129.537 34.3834 128.806 34.3834ZM128.806 31.2721C127.9 31.2721 127.163 32.0403 127.163 32.9952C127.163 33.9476 127.9 34.7227 128.806 34.7227C129.714 34.7227 130.454 33.9476 130.454 32.9952C130.454 32.0403 129.714 31.2721 128.806 31.2721Z" fill="#CBCBCB"/>
<path d="M128.529 33.2695H128.633L128.737 33.2746C128.81 33.2797 128.867 33.2861 128.901 33.304C128.963 33.3274 129.013 33.3736 129.035 33.4343C129.052 33.4762 129.062 33.5474 129.062 33.653C129.067 33.7612 129.078 33.8447 129.095 33.9004H129.553L129.536 33.8505C129.532 33.8333 129.525 33.8169 129.525 33.7977C129.525 33.7812 129.52 33.7655 129.52 33.7462V33.5879C129.52 33.4012 129.47 33.2695 129.359 33.1883C129.299 33.1375 129.211 33.1065 129.096 33.0809C129.224 33.0694 129.33 33.0266 129.417 32.961C129.505 32.8958 129.547 32.7841 129.547 32.6353C129.547 32.4366 129.463 32.295 129.299 32.2086C129.205 32.1576 129.086 32.1236 128.936 32.115C128.912 32.115 128.787 32.115 128.56 32.1122H128.047V33.9004H128.529V33.2695ZM128.979 32.881C128.918 32.9249 128.827 32.9482 128.715 32.9482H128.529V32.426H128.645C128.766 32.426 128.857 32.4366 128.925 32.4622C129.024 32.5042 129.072 32.5691 129.072 32.6678C129.072 32.7686 129.044 32.836 128.979 32.881Z" fill="#CBCBCB"/>
<path d="M64.0391 40.6798C65.1295 40.6798 65.3888 41.7608 65.3376 42.366C65.1215 44.8644 61.7084 46.8962 60.8439 46.9974C61.3067 41.8315 62.8346 40.7389 64.0391 40.6798ZM30.0279 41.2311C29.3389 42.271 28.4691 43.4181 27.4024 44.6914C27.4595 44.1682 27.5159 43.6714 27.5776 43.1926C28.4339 36.3836 29.6999 34.097 31.3478 34.3857C31.8846 34.4979 32.1039 35.0746 32.1174 35.5413C32.2383 37.0224 31.606 38.8462 30.0279 41.2311ZM123.306 47.5786C122.472 46.3304 121.706 44.9921 121.045 43.6358C119.94 45.1902 118.711 46.7528 117.448 48.2397C119.211 48.1954 121.23 48.0164 123.306 47.5786ZM121.6 37.4354C122.289 36.1393 122.723 35.0105 122.779 34.1716C122.841 33.6728 122.757 32.811 122.044 32.811C120.813 32.811 120.813 34.7793 121.6 37.4354ZM99.9243 45.6554C102.922 42.1917 104.455 36.9965 104.102 34.8666C104.024 34.4204 103.855 34.0778 103.411 34.1319C102.011 34.3099 98.7461 40.5875 99.9243 45.6554ZM82.6363 50.1698C81.456 49.7921 80.4755 49.1281 79.9002 48.4144C79.8573 48.4492 79.8178 48.4799 79.7744 48.5108C79.7695 48.5651 79.7583 48.6214 79.7427 48.6749C79.7116 53.0285 81.2082 57.0537 82.8674 56.8604C84.6158 56.5568 83.791 52.8238 82.6363 50.1698ZM80.0095 44.8578C83.4157 41.4991 86.0684 36.7145 86.0508 34.1531C86.0508 33.66 85.94 33.2258 85.4712 33.2258C84.4057 33.2258 80.9296 36.7578 80.0095 44.8578ZM70.07 48.1832C68.7015 48.3069 68.3998 51.4017 65.668 51.5505C63.8033 51.6531 62.9489 49.3417 62.9489 49.3417C62.9489 49.3417 68.2254 46.9247 68.1866 41.7058C68.1017 40.2101 67.3508 37.8149 64.5594 37.8149C63.3535 37.8149 62.0187 38.5882 61.2267 39.4404C61.4957 38.0286 61.7496 36.2157 61.869 33.752C61.947 32.1486 60.8165 31.9938 60.3785 32.018C60.053 32.0343 59.1055 32.2817 58.9769 33.7321C58.5452 38.5694 58.4799 39.2877 58.089 42.3648C57.3727 48.0164 53.4082 49.9819 50.8263 49.833C49.7278 49.7687 48.009 49.1777 48.009 46.1888C48.009 42.9822 50.0357 40.6086 51.1115 40.7542C51.869 40.856 52.2599 41.649 51.5878 42.7866C51.0442 43.7299 50.4746 45.0425 51.8774 45.5821C53.5432 46.1551 54.775 43.7262 54.8199 41.4757C54.8199 39.7224 53.7262 37.6749 51.0442 37.5423C48.2214 37.4023 44.8495 41.2685 44.8495 46.4658C44.8495 46.8988 44.8794 47.3045 44.9344 47.6906C44.7306 48.8653 43.7325 50.0694 42.7388 50.0694C41.6592 50.0694 40.7483 48.462 40.8623 46.4108C40.9829 44.2954 41.6261 42.887 41.8972 42.0446C42.4553 40.2948 41.7939 39.9416 41.0079 39.7899C40.3903 39.6734 39.4095 39.8349 38.8931 41.5746C38.424 43.153 37.8136 45.3099 37.2823 46.8962C36.9522 47.8825 36.5306 49.0076 35.9751 49.7769C35.4873 50.3273 34.9594 50.6896 34.4653 50.6896C32.7209 50.7059 34.1988 47.1528 34.1988 44.7164C34.1818 44.0277 33.6594 42.7707 31.9223 43.119C33.8457 40.2358 34.8184 37.7692 34.7577 35.2485C34.6414 32.4812 32.6826 31.6774 31.2039 31.7065C27.2428 31.7907 25.1706 36.3383 24.4182 46.9715C20.8487 50.4978 16.5005 52.6265 12.3535 52.2765C6.48835 51.7799 3.4653 45.7665 3.85688 38.5557C4.40774 28.4378 12.0407 16.2315 19.3167 16.9812C21.867 17.2457 23.6259 19.6013 23.3544 24.7068C23.0376 30.6256 18.9611 39.2569 14.657 39.0037C12.6699 38.8869 12.0494 36.7578 12.2009 34.8749C12.5286 30.7972 14.5064 29.6784 14.6385 28.0251C14.7153 27.0531 13.7638 26.6284 13.066 26.8598C11.8681 27.2603 9.48219 30.3676 9.19134 34.7875C8.83576 40.1874 12.236 41.8725 14.2517 41.9903C20.215 42.3411 26.0348 33.6146 26.5247 24.4474C26.8395 18.5141 24.3713 14.6834 19.6984 14.1572C10.6126 13.137 1.06788 25.6059 0.579966 38.6666C0.286879 46.4758 3.88949 54.6498 12.2916 55.2718C16.3055 55.5417 20.5056 53.8862 24.1804 50.916C24.1736 51.5813 24.1804 52.1733 24.1784 52.6181C24.2119 53.7121 24.5865 54.6562 25.7361 54.6196C26.833 54.5797 27.1219 53.7497 27.096 52.7542C27.082 52.1762 27.0863 51.6151 27.0992 51.0697C27.3392 46.3139 29.6066 45.626 30.5244 45.7959C31.7902 46.0744 30.7814 47.278 30.9075 50.6911C30.997 53.1368 32.9083 53.789 33.7864 53.789C35.8623 53.789 37.6651 52.2198 38.7213 49.8821L38.7582 49.8542C39.6751 52.2503 41.2307 53.1083 42.4725 53.1083C43.9291 53.1083 45.308 51.9943 46.17 50.7581C47.3488 52.2993 49.0831 52.9781 50.3776 53.0407C53.0021 53.1659 55.2323 51.9133 56.9073 50.2327C56.7125 51.5553 56.477 53.3333 56.477 53.6229C56.477 54.4084 56.8287 54.9639 57.5704 55.0498C58.7913 55.19 59.6826 54.3357 60.0636 50.1438C60.0636 50.1438 61.789 54.2822 65.6197 54.2822C69.459 54.2822 71.1193 50.4345 71.1193 49.2607C71.1193 48.9201 70.9967 48.0968 70.07 48.1832ZM33.1696 26.0417C33.1696 24.8132 29.958 22.4869 27.6896 22.2685C27.7164 22.9318 27.7113 23.614 27.6739 24.3229C27.5849 25.9981 27.342 27.6887 26.9665 29.3486C31.1346 26.3231 33.1696 27.1543 33.1696 26.0417ZM131.778 54.2961C129.517 54.1743 127.174 52.4399 125.09 49.9651C121.407 50.8439 117.633 51.0178 115.001 50.9966C112.818 53.3469 110.729 55.3049 109.236 56.4177C109.236 56.4177 107.224 58.0081 106.247 56.6574C105.676 55.7507 105.967 54.7739 107.536 53.7354C108.516 53.084 109.747 52.0343 111.08 50.7395C108.828 50.0962 109.382 47.6473 111.583 47.9292C111.743 47.9509 112.473 48.0592 113.598 48.1439C115.781 45.7645 117.999 43.0249 119.71 40.5152C118.904 38.3137 118.434 36.2219 118.434 34.5816C118.434 32.4285 119.608 29.9914 121.998 29.9914C124.312 29.9914 125.496 32.009 125.496 34.0947C125.496 35.8685 124.462 38.2689 122.884 40.8572C123.788 42.8767 124.958 44.9736 126.273 46.7665C127.69 46.2834 129.087 45.6479 130.399 44.8288C132.167 43.7205 133.689 45.8549 131.832 47.2221C130.715 47.9552 129.48 48.5509 128.185 49.0338C129.547 50.4103 130.983 51.3359 132.363 51.4607C134.726 51.6716 134.824 54.5538 131.778 54.2961ZM108.716 47.8868C108.439 49.0241 107.013 52.3067 103.377 52.3928H103.297C101.61 52.4196 99.9597 51.5667 98.744 49.9976C97.0342 51.1287 95.3871 51.6736 94.2034 51.4866C91.6391 51.0793 90.8709 48.9571 90.651 47.5729C89.1812 49.3952 87.2268 50.2612 85.3471 50.4402C86.0177 51.8133 86.3567 53.4632 86.3567 54.9811C86.3567 57.3499 85.0458 59.7725 82.6731 59.7725C79.3565 59.7725 77.3689 54.887 77.1102 50.1301C76.5432 50.3507 75.6076 50.5246 75.173 49.5737C74.6483 48.4312 75.9492 47.3765 77.0475 46.7249C77.2391 37.2453 81.1944 30.5392 85.4712 30.5392C86.909 30.5392 88.6407 31.4565 88.6407 34.211C88.6407 37.0971 87.008 40.7936 84.3749 44.0933C84.0169 44.5411 83.1846 45.4173 82.2587 46.3159C85.9973 49.0911 88.2643 46.1007 89.1985 44.2643C89.421 43.7724 89.6075 43.2864 89.7494 42.8597C90.2798 41.2773 90.1275 41.6468 90.6269 40.0781C91.3392 37.8431 92.4947 37.9408 93.0173 38.0286C94.8792 38.353 93.7636 40.5163 93.308 42.4186L93.287 42.4648C92.5871 45.7067 92.9126 48.2795 94.8432 48.6778C95.4597 48.7732 96.5231 48.3955 97.611 47.5844C95.0659 40.6725 98.9524 32.4898 102.975 31.7011C104.318 31.438 106.084 31.9546 106.529 34.4455C106.991 37.0592 106.063 40.701 104.135 44.1682C103.7 44.955 102.444 46.7249 100.956 48.0692C100.965 48.082 100.972 48.0948 100.971 48.0968C102.098 49.649 103.524 49.6113 103.524 49.6113C105.636 49.5988 106.273 47.9018 106.533 47.1996C106.832 46.394 107.445 46.1272 108.094 46.3432C108.8 46.5804 108.851 47.3401 108.716 47.8868ZM93.7337 33.4931C92.8375 33.4931 92.1114 34.2509 92.1114 35.193C92.1114 36.1307 92.8375 36.8921 93.7337 36.8921C94.6285 36.8921 95.3514 36.1307 95.3514 35.193C95.3514 34.2509 94.6285 33.4931 93.7337 33.4931ZM111.99 44.1682C114.058 44.1682 114.86 43.3211 114.86 42.45C114.86 41.3315 113.581 40.7922 111.992 40.8079C110.366 40.8255 109.21 41.4566 109.21 42.4648C109.21 43.2864 109.921 44.1682 111.99 44.1682ZM72.6173 44.1751C74.6915 44.1751 75.5008 43.3234 75.5008 42.45C75.5008 41.3258 74.2163 40.786 72.6173 40.8019C70.9855 40.8198 69.8271 41.4538 69.8271 42.4648C69.8271 43.2912 70.5425 44.1751 72.6173 44.1751ZM41.8356 35.1912C40.8922 35.1912 40.1293 35.9908 40.1293 36.9811C40.1293 37.9673 40.8922 38.7669 41.8356 38.7669C42.7753 38.7669 43.54 37.9673 43.54 36.9811C43.54 35.9908 42.7753 35.1912 41.8356 35.1912ZM6.16402 10.2936C5.38943 11.2499 5.62978 12.8029 7.03618 14.062C8.4417 15.3247 10.3937 15.7338 11.1713 14.7789C11.9487 13.8234 11.2557 11.8628 9.85069 10.6035C8.44486 9.34126 6.94512 9.33869 6.16402 10.2936ZM11.7271 3.46126C10.2161 4.18814 9.67948 6.35252 10.7917 8.89829C11.9021 11.4446 14.1713 13.2476 15.6812 12.525C17.1933 11.7972 17.3746 8.81335 16.2633 6.26643C15.1517 3.72294 13.2377 2.73667 11.7271 3.46126ZM23.2346 0.302345C21.227 -0.158295 19.1706 1.55571 18.4752 4.92128C17.7762 8.28543 18.7492 11.8223 20.7576 12.2784C22.7638 12.7365 25.0509 9.94442 25.7462 6.57942C26.4438 3.21469 25.2431 0.757568 23.2346 0.302345ZM37.7347 5.77387C36.2019 3.61177 32.8844 3.47979 29.5326 6.09341C26.1809 8.70788 24.2695 12.9161 25.8019 15.0836C27.3347 17.2457 31.7303 16.5456 35.0846 13.9308C38.435 11.3161 39.2664 7.9411 37.7347 5.77387ZM21.5702 22.5328C21.5326 24.2895 19.4907 26.4331 18.5154 24.7821C17.9839 23.5182 19.3201 21.2184 20.5573 21.1794C21.5547 21.1794 21.5783 22.1135 21.5702 22.5328Z" fill="#CBCBCB"/>
</g>
<defs>
<clipPath id="clip0_5192_54591">
<rect width="134" height="60" fill="white" transform="translate(0.333008)"/>
</clipPath>
</defs>
</svg>
