<svg width="216" height="54" viewBox="0 0 216 54" fill="none" xmlns="http://www.w3.org/2000/svg">
<path fill-rule="evenodd" clip-rule="evenodd" d="M45.1274 34.3284C42.9789 33.9514 37.4155 33.9514 37.4155 35.7064C37.4155 37.4601 43.4844 37.0843 45.1274 34.3284ZM28.3125 0.743491C26.164 0.367692 12.2567 -0.759707 4.92395 8.88829C1.38395 13.2751 3.91288 18.6628 11.8776 18.6628C4.41842 21.4199 -1.27136 26.433 0.246495 32.3218C2.34497 40.4703 11.4984 40.0908 18.7048 39.3392C31.5247 38.001 40.324 26.0572 42.3474 24.5528C45.3806 26.0572 46.8985 28.8131 45.6334 30.5681C42.221 30.6921 33.244 31.4437 33.6231 36.081C34.0023 40.7171 48.1623 40.2161 56.0006 35.0789C57.1393 35.4547 59.4142 36.5821 60.5517 37.459C61.6904 38.3371 62.9542 37.5842 63.0806 33.825C61.9432 32.6976 58.7823 31.5702 57.1393 31.5702C57.6449 29.0636 58.5295 26.0572 51.4495 20.9188C50.3121 20.2925 50.4385 19.5397 51.3232 18.9133C52.2078 18.287 51.1968 16.7838 48.7942 16.031C46.3917 15.2794 41.2087 15.6564 39.5657 17.5354C38.8074 18.287 38.8074 20.9188 40.0712 21.7957C38.8074 23.9265 32.4857 33.0734 23.1295 33.825C19.7159 34.202 15.8768 33.7059 16.1759 28.8131C16.4287 24.6781 22.7504 21.0441 25.0265 20.042C26.4167 19.4156 26.164 17.4101 24.3934 16.9091C22.624 16.408 18.452 16.1575 18.1993 12.8993C17.9465 9.64113 22.1184 7.25983 28.8193 6.00716C30.8414 5.75663 30.8414 1.36982 28.3125 0.743491Z" fill="#AFAFAF"/>
<path fill-rule="evenodd" clip-rule="evenodd" d="M82.1694 22.4223C80.1472 22.1718 73.6991 21.4202 72.8144 27.5595C71.9297 33.7 76.9864 34.2024 79.0098 33.9506C81.0319 33.7 85.2038 31.5705 85.2038 24.1773C85.0774 20.4181 86.594 19.0389 89.8813 18.9136C93.1698 18.7884 94.6864 19.54 94.6864 22.9234C94.6864 26.3081 94.8128 51.7446 94.8128 52.8733C92.4102 52.8733 86.0885 53.1238 83.5608 53.4996C83.8136 47.4843 84.5719 35.3298 84.5719 33.4495C82.9277 35.8308 79.7681 39.3395 73.8255 39.2143C67.8842 39.089 62.4472 36.3319 62.8263 28.5629C63.2055 20.7939 71.1702 15.4049 83.4344 17.1599C85.583 17.5357 85.8357 22.7981 82.1694 22.4223Z" fill="#AFAFAF"/>
<path fill-rule="evenodd" clip-rule="evenodd" d="M213.783 34.2027C210.876 34.0762 208.852 34.5773 206.577 34.9543C204.301 35.3301 200.761 35.7059 198.106 35.0796C195.451 34.452 194.692 31.8214 195.451 30.1917C196.21 28.5633 198.738 27.6852 200.256 27.1853C201.772 26.6843 201.772 24.6788 200.129 24.303C198.485 23.9272 196.21 23.2996 196.21 21.9217C196.21 20.5437 198.232 18.6635 204.554 19.1658C206.957 19.4163 206.323 15.2801 203.669 14.6537C201.267 14.5285 192.923 15.2801 187.233 18.1624C184.325 19.6656 183.82 23.8019 191.531 25.1798C186.728 25.5556 183.44 29.6907 183.567 31.5709C183.603 32.1054 183.507 33.0567 183.83 34.1023C182.583 34.9022 181.044 35.1639 179.331 35.0796C176.803 34.9543 173.011 31.9467 173.833 26.8083C174.56 22.2578 175.855 22.7985 176.487 22.548C177.878 22.548 179.268 21.7964 179.268 20.0427C179.268 18.2877 179.711 17.8499 178.32 17.8499C176.93 17.8499 168.269 19.1025 161.821 17.6614C161.695 15.7824 158.534 13.1505 155.247 14.9043C151.961 16.6592 152.845 20.669 156.638 21.6711C156.934 21.7493 157.236 21.8237 157.537 21.8981C156.375 26.6371 153.704 34.55 149.432 35.3301C147.029 35.8312 145.511 34.2027 145.765 30.3182C146.018 26.4337 146.777 19.1658 146.777 19.1658C147.029 16.0317 135.525 16.1582 135.651 20.0427V32.3225C135.651 32.6152 135.714 32.9836 135.827 33.3879C132.916 35.634 126.491 36.1487 126.928 31.0698L128.445 19.9174C128.824 16.6592 118.33 15.5318 118.077 20.0427L117.951 29.0643C117.91 29.5778 117.893 30.2016 117.933 30.8813C117.098 32.4242 115.52 33.8654 113.526 33.951C110.618 34.0762 108.974 33.7004 109.227 30.0665C109.481 26.4337 110.365 19.5404 110.365 19.5404C110.618 16.2834 100.125 16.2834 99.8718 19.1658C99.7454 21.5459 99.1135 30.3182 98.9871 33.0741C98.8607 35.8312 103.159 39.2146 109.227 38.9641C114.579 38.7433 116.489 37.2538 118.687 34.328C119.758 36.8991 122.187 39.1799 127.434 38.9641C129.429 38.8475 132.41 39.485 137.08 35.8585C138.326 37.5266 140.437 39.0745 143.616 39.2146C149.305 39.4652 153.604 38.9641 156.638 33.0741C159.274 27.958 160.097 25.8669 160.765 22.6125C163.354 23.1073 166.027 23.4249 168.648 23.4249C165.614 25.5556 164.35 27.3094 164.603 30.9446C164.729 33.1994 166.246 39.0063 175.981 39.0894C181.481 39.1353 184.01 37.9694 185.75 36.6733C188.085 38.3564 192.94 39.5619 203.037 38.7136C206.323 38.2113 211.255 38.3378 214.416 38.463C216.564 38.5883 216.691 34.328 213.783 34.2027Z" fill="#AFAFAF"/>
<path fill-rule="evenodd" clip-rule="evenodd" d="M141.465 13.6734C144.625 13.6734 147.187 11.5302 147.187 8.88721C147.187 6.24545 144.625 4.10352 141.465 4.10352C138.305 4.10352 135.743 6.24545 135.743 8.88721C135.743 11.5302 138.305 13.6734 141.465 13.6734Z" fill="#AFAFAF"/>
</svg>
