<svg xmlns="http://www.w3.org/2000/svg" width="113" height="23" viewBox="0 0 113 23"><g fill="none" fill-rule="evenodd"><path fill="#F69543" d="M8.962 18.697c-1.7 0-3.233-.367-4.598-1.1-1.365-.733-2.433-1.743-3.206-3.03C.386 13.278 0 11.832 0 10.226c0-1.607.386-3.054 1.158-4.34C1.931 4.597 3 3.587 4.364 2.854c1.365-.733 2.898-1.1 4.598-1.1 1.7 0 3.23.367 4.587 1.1a8.265 8.265 0 0 1 3.205 3.03c.78 1.287 1.17 2.734 1.17 4.34 0 1.608-.39 3.054-1.17 4.341a8.25 8.25 0 0 1-3.205 3.03c-1.358.734-2.886 1.1-4.587 1.1zm0-3.23c.967 0 1.841-.222 2.621-.667a4.781 4.781 0 0 0 1.837-1.86c.445-.795.667-1.7.667-2.714s-.222-1.919-.667-2.715a4.795 4.795 0 0 0-1.837-1.86c-.78-.445-1.654-.667-2.62-.667-.968 0-1.842.222-2.622.667a4.795 4.795 0 0 0-1.837 1.86c-.444.796-.666 1.7-.666 2.715 0 1.014.222 1.919.667 2.714a4.772 4.772 0 0 0 1.836 1.86c.78.445 1.654.667 2.621.667zM27.963 5.64c1.17 0 2.235.27 3.194.808a5.785 5.785 0 0 1 2.258 2.27c.546.975.82 2.11.82 3.404 0 1.295-.274 2.43-.82 3.405a5.798 5.798 0 0 1-2.258 2.27c-.96.538-2.024.807-3.194.807-1.607 0-2.87-.507-3.79-1.521v5.873h-3.651V5.827h3.486v1.45c.905-1.092 2.223-1.638 3.955-1.638zm-.632 9.969c.936 0 1.704-.316 2.305-.948.6-.632.901-1.478.901-2.539 0-1.06-.3-1.907-.9-2.539-.602-.632-1.37-.947-2.306-.947-.936 0-1.704.315-2.305.947-.6.632-.9 1.478-.9 2.54 0 1.06.3 1.906.9 2.538.6.632 1.37.948 2.305.948zm16.779-9.97c1.17 0 2.235.27 3.194.808a5.785 5.785 0 0 1 2.258 2.27c.546.975.82 2.11.82 3.404 0 1.295-.274 2.43-.82 3.405a5.798 5.798 0 0 1-2.258 2.27c-.96.538-2.024.807-3.194.807-1.607 0-2.87-.507-3.79-1.521v5.873h-3.651V5.827h3.486v1.45c.905-1.092 2.223-1.638 3.955-1.638zm-.632 9.969c.936 0 1.704-.316 2.305-.948.6-.632.901-1.478.901-2.539 0-1.06-.3-1.907-.9-2.539-.602-.632-1.37-.947-2.306-.947-.936 0-1.704.315-2.305.947-.6.632-.9 1.478-.9 2.54 0 1.06.3 1.906.9 2.538.6.632 1.37.948 2.305.948z"/><path fill="#6C6E6E" d="M61.012 18.697c-1.295 0-2.547-.176-3.756-.527-1.21-.35-2.18-.807-2.913-1.369l1.287-2.855c.702.515 1.536.929 2.503 1.24a9.384 9.384 0 0 0 2.902.469c1.076 0 1.872-.16 2.387-.48.515-.32.772-.745.772-1.275 0-.39-.152-.714-.456-.972-.305-.257-.694-.464-1.17-.62a23.39 23.39 0 0 0-1.93-.514c-1.249-.297-2.27-.593-3.066-.89a4.98 4.98 0 0 1-2.048-1.427c-.57-.655-.854-1.529-.854-2.62 0-.952.258-1.814.772-2.587.515-.772 1.291-1.384 2.329-1.836 1.037-.453 2.305-.679 3.802-.679 1.045 0 2.067.125 3.066.374.998.25 1.872.609 2.62 1.077l-1.17 2.878c-1.513-.858-3.026-1.287-4.54-1.287-1.06 0-1.844.172-2.35.515-.508.343-.761.795-.761 1.357 0 .562.292.979.877 1.252s1.478.542 2.68.807c1.247.297 2.27.593 3.065.89a5.076 5.076 0 0 1 2.047 1.403c.57.64.854 1.506.854 2.598 0 .936-.26 1.79-.784 2.562-.522.772-1.306 1.385-2.351 1.837-1.045.452-2.317.679-3.814.679zm9.29-12.87h3.65v12.589h-3.65V5.826zm1.825-1.755c-.671 0-1.217-.195-1.638-.585a1.895 1.895 0 0 1-.632-1.451c0-.577.21-1.061.632-1.451.42-.39.967-.585 1.638-.585.67 0 1.216.187 1.638.562.42.374.631.842.631 1.404 0 .608-.21 1.111-.631 1.509-.422.398-.968.597-1.638.597zm13.338 13.735c-.36.266-.8.464-1.323.597a6.66 6.66 0 0 1-1.65.199c-1.497 0-2.655-.382-3.474-1.147-.82-.764-1.229-1.887-1.229-3.37v-5.17h-1.942v-2.81h1.942V3.042h3.65v3.065h3.136v2.808H81.44v5.125c0 .53.136.94.41 1.229.272.288.658.432 1.158.432.577 0 1.068-.156 1.474-.468l.983 2.574zm14.39-5.639c0 .047-.023.374-.07.983h-9.523c.171.78.577 1.396 1.216 1.848.64.453 1.436.679 2.387.679.655 0 1.236-.097 1.744-.293a4.224 4.224 0 0 0 1.415-.924l1.942 2.106c-1.185 1.357-2.917 2.036-5.194 2.036-1.42 0-2.676-.277-3.768-.83-1.092-.555-1.934-1.323-2.527-2.306-.593-.982-.89-2.098-.89-3.346 0-1.232.293-2.344.878-3.334a6.159 6.159 0 0 1 2.41-2.317c1.022-.554 2.165-.83 3.429-.83 1.232 0 2.347.265 3.346.795a5.795 5.795 0 0 1 2.351 2.282c.57.99.855 2.14.855 3.451zm-6.528-3.767c-.827 0-1.521.234-2.083.702-.561.468-.904 1.107-1.03 1.918h6.202c-.125-.795-.468-1.43-1.03-1.907-.561-.476-1.248-.713-2.059-.713zm13.198 10.202c-1.046 0-2.067-.129-3.066-.386-.998-.258-1.794-.581-2.387-.971l1.217-2.621c.562.359 1.24.651 2.036.877.796.227 1.576.34 2.34.34 1.544 0 2.317-.382 2.317-1.147 0-.359-.211-.616-.632-.772-.421-.156-1.069-.289-1.942-.398-1.03-.156-1.88-.335-2.551-.538a3.967 3.967 0 0 1-1.743-1.076c-.492-.515-.737-1.248-.737-2.2 0-.796.23-1.501.69-2.118.46-.616 1.13-1.096 2.012-1.439.882-.343 1.923-.515 3.124-.515.89 0 1.775.098 2.656.293.882.195 1.61.464 2.188.807l-1.217 2.598a7.261 7.261 0 0 0-3.627-.936c-.78 0-1.365.109-1.755.327-.39.219-.585.5-.585.843 0 .39.21.663.632.819.421.156 1.092.304 2.012.444 1.03.172 1.872.355 2.528.55.655.195 1.224.55 1.708 1.065.483.515.725 1.232.725 2.153 0 .78-.234 1.474-.702 2.082-.468.609-1.15 1.08-2.047 1.416-.897.335-1.962.503-3.194.503z"/></g></svg>