<svg width="62" height="66" viewBox="0 0 62 66" fill="none" xmlns="http://www.w3.org/2000/svg">
<path fill-rule="evenodd" clip-rule="evenodd" d="M4.0484 61.2458C4.0484 60.6726 3.60153 60.3237 3.02205 60.3237H1.46907V62.1583H3.02205C3.60153 62.1583 4.0484 61.8095 4.0484 61.2458ZM0 65.9997V59.0425H3.23089C4.7339 59.0425 5.55171 60.0463 5.55171 61.2449C5.55171 62.4341 4.72332 63.4379 3.23089 63.4379H1.47129V65.9997H0Z" fill="#AFAFAF"/>
<path fill-rule="evenodd" clip-rule="evenodd" d="M6.44727 66V60.9278H7.76192V61.5941C8.12517 61.1635 8.73637 60.8052 9.35814 60.8052V62.0751C9.26492 62.0552 9.15056 62.0447 8.99584 62.0447C8.56051 62.0447 7.98006 62.2909 7.76192 62.6084V66H6.44727Z" fill="#AFAFAF"/>
<path fill-rule="evenodd" clip-rule="evenodd" d="M13.7798 63.3983C13.7798 62.6302 13.3243 61.9639 12.4959 61.9639C11.6762 61.9639 11.2206 62.6302 11.2206 63.3983C11.2206 64.1768 11.6762 64.8431 12.4959 64.8431C13.3243 64.8431 13.7798 64.1768 13.7798 63.3983ZM9.85449 63.3974C9.85449 61.9934 10.8491 60.8052 12.4963 60.8052C14.1531 60.8052 15.1477 61.9934 15.1477 63.3974C15.1477 64.8014 14.1531 66 12.4963 66C10.8491 66 9.85449 64.8014 9.85449 63.3974Z" fill="#AFAFAF"/>
<path fill-rule="evenodd" clip-rule="evenodd" d="M19.572 64.2775V62.5256C19.3548 62.1977 18.8782 61.9619 18.4429 61.9619C17.6875 61.9619 17.1695 62.5456 17.1695 63.3963C17.1695 64.2566 17.6875 64.8412 18.4429 64.8412C18.8782 64.8412 19.3548 64.6054 19.572 64.2775ZM19.5739 65.9997V65.2411C19.1799 65.7335 18.6417 65.9997 18.0305 65.9997C16.7774 65.9997 15.8145 65.0567 15.8145 63.397C15.8145 61.7887 16.7572 60.8048 18.0305 60.8048C18.6206 60.8048 19.1799 61.0501 19.5739 61.5624V59.0425H20.9001V65.9997H19.5739Z" fill="#AFAFAF"/>
<path fill-rule="evenodd" clip-rule="evenodd" d="M25.5879 65.999V65.2509C25.2458 65.6197 24.6452 65.999 23.8273 65.999C22.7289 65.999 22.2109 65.4049 22.2109 64.441V60.9268H23.5256V63.9296C23.5256 64.6159 23.8888 64.8412 24.4481 64.8412C24.9556 64.8412 25.3601 64.5646 25.5879 64.2775V60.9268H26.9035V65.999H25.5879Z" fill="#AFAFAF"/>
<path fill-rule="evenodd" clip-rule="evenodd" d="M27.8926 63.3974C27.8926 61.8812 29.0102 60.8052 30.544 60.8052C31.5694 60.8052 32.1911 61.2453 32.5227 61.6968L31.6626 62.4953C31.4243 62.1474 31.062 61.963 30.6064 61.963C29.8088 61.963 29.2495 62.5371 29.2495 63.3974C29.2495 64.2576 29.8088 64.8422 30.6064 64.8422C31.062 64.8422 31.4243 64.6369 31.6626 64.2985L32.5227 65.0979C32.1911 65.5495 31.5694 66 30.544 66C29.0102 66 27.8926 64.924 27.8926 63.3974Z" fill="#AFAFAF"/>
<path fill-rule="evenodd" clip-rule="evenodd" d="M33.6526 64.636V62.0647H32.8242V60.9269H33.6526V59.5742H34.9682V60.9269H35.983V62.0647H34.9682V64.2881C34.9682 64.6056 35.1335 64.8413 35.4237 64.8413C35.6207 64.8413 35.8081 64.7691 35.8792 64.6873L36.1599 65.6816C35.9629 65.8556 35.6102 65.9991 35.0614 65.9991C34.1398 65.9991 33.6526 65.5276 33.6526 64.636Z" fill="#AFAFAF"/>
<path fill-rule="evenodd" clip-rule="evenodd" d="M44.4087 65.9997V62.9978H41.1451V65.9997H39.6748V59.0425H41.1451V61.7269H44.4087V59.0425H45.8896V65.9997H44.4087Z" fill="#AFAFAF"/>
<path fill-rule="evenodd" clip-rule="evenodd" d="M50.5967 65.999V65.2509C50.2555 65.6197 49.6549 65.999 48.8371 65.999C47.7387 65.999 47.2207 65.4049 47.2207 64.441V60.9268H48.5354V63.9296C48.5354 64.6159 48.8986 64.8412 49.4579 64.8412C49.9653 64.8412 50.3689 64.5646 50.5967 64.2775V60.9268H51.9133V65.999H50.5967Z" fill="#AFAFAF"/>
<path fill-rule="evenodd" clip-rule="evenodd" d="M56.5977 66V62.885C56.5977 62.1987 56.2363 61.963 55.6761 61.963C55.1581 61.963 54.765 62.25 54.5363 62.5371V66H53.2217V60.9278H54.5363V61.5628C54.8573 61.1949 55.4791 60.8052 56.2873 60.8052C57.3953 60.8052 57.9239 61.4192 57.9239 62.3831V66H56.5977Z" fill="#AFAFAF"/>
<path fill-rule="evenodd" clip-rule="evenodd" d="M59.4934 64.636V62.0647H58.665V60.9269H59.4934V59.5742H60.809V60.9269H61.8239V62.0647H60.809V64.2881C60.809 64.6056 60.9743 64.8413 61.2645 64.8413C61.4606 64.8413 61.648 64.7691 61.721 64.6873L61.9997 65.6816C61.8037 65.8556 61.451 65.9991 60.9013 65.9991C59.9797 65.9991 59.4934 65.5276 59.4934 64.636Z" fill="#AFAFAF"/>
<path fill-rule="evenodd" clip-rule="evenodd" d="M34.3685 30.011H27.2052V37.5138H22.1484V12.5054H34.3685C39.2561 12.5054 43.2174 16.4236 43.2174 21.2582C43.2174 26.0918 39.2561 30.011 34.3685 30.011ZM30.9969 0C17.0345 0 5.71484 11.1967 5.71484 25.0084C5.71484 38.8202 17.0345 50.0169 30.9969 50.0169C44.9602 50.0169 56.2799 38.8202 56.2799 25.0084C56.2799 11.1967 44.9602 0 30.9969 0Z" fill="#AFAFAF"/>
<path fill-rule="evenodd" clip-rule="evenodd" d="M34.4719 17.9888H27.2451V24.5268H34.4719C36.537 24.5268 38.1285 23.2853 38.1285 21.2758C38.1285 19.2302 36.537 17.9888 34.4719 17.9888Z" fill="#AFAFAF"/>
</svg>
