<svg width="213" height="60" viewBox="0 0 213 60" fill="none" xmlns="http://www.w3.org/2000/svg">
  <g>
    <path
      d="M176.835 52.2717L144.904 52.3395C144.428 52.3395 144.119 51.9544 144.224 51.4967L145.439 46.5679H144.3L141.241 52.1033C141.151 52.267 140.817 52.4627 140.629 52.4627L95.5963 52.5188C95.169 52.5188 94.8554 52.1688 94.902 51.7532L95.368 47.6407C90.7649 51.5537 84.4638 52.4097 80.6869 52.4097H62.2359C61.717 52.4097 61.4114 51.9903 61.5772 51.503L62.2517 49.5071C59.2125 51.786 55.1434 53.4139 49.6976 53.4139C43.2503 53.4139 39.4655 51.0453 37.8203 47.4286C33.9075 51.1888 27.9302 53.3694 21.9039 53.3694C20.0201 53.3694 18.1893 53.1691 16.4486 52.7941L14.2608 59.4592C14.0483 60.1094 13.3659 60.1905 13.0034 59.6089L0.361561 39.3742C0.126196 38.9992 0.276261 38.5431 0.689336 38.3755L19.0897 30.9182C19.025 30.7701 18.9649 30.622 18.9104 30.4777C17.984 28.0741 17.7542 24.0442 18.3765 21.4402C19.3377 17.4313 24.4005 7.52366 37.8827 8.11463C40.6123 8.23391 44.2186 9.341 46.5865 10.6126L47.3328 8.9504C47.411 8.71963 47.7483 8.48028 47.9955 8.48028L91.1354 8.36489C94.0095 8.36489 97.1617 8.9808 99.5643 10.5861L99.7318 9.10788C99.7689 8.78434 100.098 8.49587 100.426 8.49587L177.156 8.53875C177.479 8.53875 177.809 8.82332 177.848 9.14063L178.787 16.6057C181.856 13.3998 184.29 11.4195 187.393 9.86959C189.807 8.66661 192.832 8.39764 194.86 8.3415C195.229 8.32981 195.579 8.32591 195.917 8.32825L198.432 0.543573C198.643 -0.108204 199.325 -0.191625 199.692 0.389984L212.139 20.2762C212.374 20.6551 212.224 21.1112 211.803 21.2772L190.154 29.8798C189.525 30.1324 189.027 29.6802 189.228 29.037L189.846 27.0567C188.385 28.4982 186.839 30.2844 185.288 32.2803C183.212 34.949 180.583 40.3705 179.886 42.4148L179.691 42.973"
      fill="#AFAFAF" />
    <path
      d="M195.724 19.9479C191.596 19.7944 186.615 24.915 182.519 30.1791C180.16 33.2142 177.368 38.9952 176.579 41.3147C176.347 41.9945 173.868 49.0627 173.868 49.0627H162.544L168.26 32.9718L164.994 11.8943H174.588L176.369 25.3586C176.369 25.3586 179.202 21.2226 180.821 19.4981C184.005 16.1113 186.207 14.319 188.966 12.9452C192.336 11.2628 198.427 11.8826 198.427 11.8826L199.909 7.29443L207.427 19.3032L194.29 24.5221L195.724 19.9479ZM125.258 49.0752L145.433 11.938H135.504L124.496 34.9879C125.014 32.2802 128.566 11.938 128.566 11.938H119.836C119.836 11.938 109.713 32.3777 108.479 35.136L112.949 11.938H102.923L98.7153 49.0752H108.594L119.518 25.8272C118.999 28.3883 115.429 49.0752 115.429 49.0752H125.258ZM149.738 11.938L129.526 49.019H138.972L142.23 43.1226H149.829L148.416 49.1251H159.168L163.634 11.938H149.738ZM153.63 21.9048L151.35 35.5134H146.244L153.63 21.9048Z"
      fill="#E2E2E2" />
    <path
      d="M65.0974 12.1937H75.2742L67.0435 36.4755C65.5247 40.9584 61.4714 49.9687 49.6976 49.9687C37.9214 49.9687 39.9804 40.9576 41.4992 36.4755L49.7284 12.1937H59.9099L51.9943 35.5399C51.661 36.5254 51.1753 37.8055 51.1421 38.7887C51.09 39.824 51.4715 40.613 52.8695 40.613C54.3164 40.613 55.2326 39.824 55.8155 38.8386C56.4647 37.8048 56.8509 36.5254 57.1684 35.5882L65.0974 12.1937ZM12.802 52.7262L14.1786 48.5302C16.4833 49.4221 19.1134 49.9234 21.9031 49.9234C31.2482 49.9234 38.8202 44.2796 38.8202 37.3167C38.8202 34.3237 37.1647 31.8125 35.0812 29.4104C33.4494 27.5284 31.6652 25.0647 32.7283 22.5629C33.804 20.0322 36.6434 19.0256 41.365 21.7778L45.5115 13.9829C43.751 12.8494 40.1692 11.6604 37.7287 11.5544C26.5606 11.0632 22.5152 19.127 21.7704 22.2315C21.2989 24.2024 21.5074 27.526 22.17 29.2498C22.7711 30.8052 23.8784 32.7987 25.3577 34.3245C26.6364 35.635 27.1498 37.5849 26.7557 38.5064C26.1768 39.8591 24.2859 40.5678 22.6534 40.666C20.8344 40.776 18.822 40.4563 17.1594 39.4459L18.6798 34.8055L5.05466 40.3284L12.802 52.7262ZM83.6052 26.5569H85.0167C86.5789 26.5569 89.3527 26.0143 90.3764 23.5008C91.6669 20.3191 89.021 20.0961 87.5907 20.0961H85.8752L83.6052 26.5569ZM79.4081 41.1385L82.1788 41.1424C84.3548 41.1424 86.3064 40.3245 86.8482 37.9498C87.3995 35.5539 85.2607 34.2106 81.7286 34.3759L79.4081 41.1385ZM78.6712 12.0378H91.1354C96.8402 12.0378 101.724 14.3073 99.3961 22.3898C98.5755 25.2339 95.7116 28.7945 92.7829 29.826C95.5023 31.2542 98.2145 35.4167 96.7154 39.8505C94.1319 47.4886 85.8436 49.1937 80.6869 49.1937H66.1116L78.6712 12.0378Z"
      fill="white" />
  </g>
  <defs>
    <clipPath id="clip0_4734_47940">
      <rect width="212" height="60" fill="white" transform="translate(0.25)" />
    </clipPath>
  </defs>
</svg>