<svg width="87" height="64" viewBox="0 0 87 64" fill="none" xmlns="http://www.w3.org/2000/svg">
<mask id="mask0_818_2976" style="mask-type:alpha" maskUnits="userSpaceOnUse" x="0" y="0" width="44" height="45">
<path fill-rule="evenodd" clip-rule="evenodd" d="M0 44.8658V0L21.7323 0L43.4646 0V44.8658H0Z" fill="white"/>
</mask>
<g mask="url(#mask0_818_2976)">
<path fill-rule="evenodd" clip-rule="evenodd" d="M43.4622 0V14.9549H28.9507V44.8658H14.4392V14.9549H-0.0722656V0H43.4622Z" fill="#AFAFAF"/>
</g>
<path fill-rule="evenodd" clip-rule="evenodd" d="M57.9766 14.9549H86.9996V0H57.9766V14.9549Z" fill="#AFAFAF"/>
<path fill-rule="evenodd" clip-rule="evenodd" d="M57.9734 29.909H86.9964V44.8651H43.4619V14.9541H57.9734V29.909Z" fill="#AFAFAF"/>
<mask id="mask1_818_2976" style="mask-type:alpha" maskUnits="userSpaceOnUse" x="1" y="52" width="76" height="12">
<path fill-rule="evenodd" clip-rule="evenodd" d="M76.6834 63.9996H1.69434L1.69434 52.8936H76.6834V63.9996Z" fill="white"/>
</mask>
<g mask="url(#mask1_818_2976)">
<path fill-rule="evenodd" clip-rule="evenodd" d="M7.41113 55.8852V63.9069H4.56729V55.8852H1.69434V53.3325H10.2841V55.8852H7.41113Z" fill="#AFAFAF"/>
<path fill-rule="evenodd" clip-rule="evenodd" d="M13.4323 57.8174C12.8314 57.8174 12.4948 58.2411 12.4063 59.0262H14.605C14.4722 58.2255 14.209 57.8174 13.4323 57.8174ZM16.9189 60.7183H12.4051C12.4936 61.5944 12.9909 61.9869 13.7094 61.9869C14.3837 61.9869 14.9403 61.8357 15.7031 61.4276L16.714 63.1654C15.7614 63.7391 14.7796 64.0715 13.5778 64.0715C11.2615 64.0715 9.98633 62.3793 9.98633 59.9467C9.98633 57.214 11.4816 55.8086 13.5044 55.8086C15.6146 55.8086 16.9341 57.244 16.9341 60.1891C16.9341 60.4159 16.9341 60.5815 16.9189 60.7183Z" fill="#AFAFAF"/>
<path fill-rule="evenodd" clip-rule="evenodd" d="M21.8303 64.072C19.5734 64.072 18.2236 62.5922 18.2236 59.9183C18.2236 57.4857 19.4266 55.8091 21.8885 55.8091C23.3395 55.8091 24.1757 56.504 24.8499 57.6213L23.0321 59.0422C22.6652 58.3462 22.416 58.0149 21.8442 58.0149C21.17 58.0149 20.8334 58.7098 20.8334 59.9627C20.8334 61.2181 21.1991 61.8662 21.9176 61.8662C22.416 61.8662 22.7677 61.5793 23.251 60.8388L24.9221 62.183C24.0289 63.5428 23.1928 64.072 21.8303 64.072Z" fill="#AFAFAF"/>
<path fill-rule="evenodd" clip-rule="evenodd" d="M30.8264 63.906V59.4043C30.8264 58.377 30.4898 58.1045 29.9471 58.1045C29.3893 58.1045 29.0528 58.377 29.0528 59.3731V63.906H26.415V53.9809L29.0528 52.8936V56.5036C29.536 56.1255 30.0787 55.8087 30.9871 55.8087C32.6734 55.8087 33.4804 56.9716 33.4804 59.0562V63.906H30.8264Z" fill="#AFAFAF"/>
<path fill-rule="evenodd" clip-rule="evenodd" d="M39.7989 64.0724C36.7501 64.0724 35.1221 61.7453 35.1221 58.6189C35.1221 55.2202 37.0576 53.1655 39.8129 53.1655C42.3342 53.1655 43.331 54.2841 44.0344 56.2775L41.4549 57.3204C41.0881 56.3387 40.7364 55.7194 39.7989 55.7194C38.6111 55.7194 38.0987 56.9424 38.0987 58.6189C38.0987 60.2355 38.5971 61.5197 39.828 61.5197C40.7212 61.5197 41.1032 61.0216 41.6599 60.0243L44.0647 61.3384C43.3753 62.7282 42.2317 64.0724 39.7989 64.0724Z" fill="#AFAFAF"/>
<path fill-rule="evenodd" clip-rule="evenodd" d="M50.5523 58.9666C50.2158 58.5886 49.835 58.3018 49.3226 58.3018C48.6762 58.3018 48.2815 58.6186 48.2815 59.5859V63.9064H45.6426V55.9747H48.2815V56.5496C48.7356 56.0959 49.248 55.8091 49.9235 55.8091C50.4801 55.8091 50.8609 55.9447 51.1696 56.1415L50.5523 58.9666Z" fill="#AFAFAF"/>
<path fill-rule="evenodd" clip-rule="evenodd" d="M56.8266 63.9063V63.377C56.3572 63.7539 55.8006 64.0719 54.9062 64.0719C53.2211 64.0719 52.4141 62.909 52.4141 60.8232V55.9746H55.0669V60.4775C55.0669 61.5036 55.4046 61.7761 55.9473 61.7761C56.4888 61.7761 56.8266 61.5036 56.8266 60.5063V55.9746H59.4794V63.9063H56.8266Z" fill="#AFAFAF"/>
<path fill-rule="evenodd" clip-rule="evenodd" d="M65.7953 63.9064V59.4047C65.7953 58.3774 65.4588 58.1049 64.9161 58.1049C64.3582 58.1049 64.0217 58.3774 64.0217 59.3735V63.9064H61.3828V55.9747H64.0217V56.504C64.505 56.1259 65.0477 55.8091 65.9572 55.8091C67.6423 55.8091 68.4493 56.972 68.4493 59.0566V63.9064H65.7953Z" fill="#AFAFAF"/>
<path fill-rule="evenodd" clip-rule="evenodd" d="M73.5908 64.072C71.3339 64.072 69.9854 62.5922 69.9854 59.9183C69.9854 57.4857 71.1872 55.8091 73.649 55.8091C75.1012 55.8091 75.9362 56.504 76.6105 57.6213L74.7926 59.0422C74.427 58.3462 74.1766 58.0149 73.6059 58.0149C72.9305 58.0149 72.594 58.7098 72.594 59.9627C72.594 61.2181 72.9608 61.8662 73.6793 61.8662C74.1766 61.8662 74.5294 61.5793 75.0127 60.8388L76.6839 62.183C75.7895 63.5428 74.9545 64.072 73.5908 64.072Z" fill="#AFAFAF"/>
</g>
<path fill-rule="evenodd" clip-rule="evenodd" d="M82.5873 63.904V59.4023C82.5873 58.375 82.2496 58.1026 81.7081 58.1026C81.1502 58.1026 80.8125 58.375 80.8125 59.3711V63.904H78.1748V53.9789L80.8125 52.8916V56.5016C81.297 56.1236 81.8397 55.8067 82.748 55.8067C84.4343 55.8067 85.2402 56.9697 85.2402 59.0543V63.904H82.5873Z" fill="#AFAFAF"/>
</svg>
