<svg width="317" height="40" viewBox="0 0 317 40" fill="none" xmlns="http://www.w3.org/2000/svg">
<path fill-rule="evenodd" clip-rule="evenodd" d="M1.33716 9.66925H0L0.204158 0.497559H38.4303L38.6345 9.66925H37.3852C36.939 7.15728 36.3306 5.34206 35.5545 4.22622C34.7812 3.11037 33.9469 2.42541 33.056 2.17264C32.165 1.91856 30.6453 1.79152 28.4969 1.79152H22.1639V28.7199C22.1639 31.702 22.237 33.6626 22.3803 34.6003C22.5263 35.5394 22.9184 36.2322 23.5592 36.6827C24.1961 37.1319 25.398 37.3572 27.1597 37.3572H29.0769V38.6525H9.43992V37.3572H11.4747C13.158 37.3572 14.3262 37.1516 14.9738 36.739C15.6241 36.3265 16.0392 35.6834 16.2217 34.8112C16.4083 33.9402 16.4989 31.9089 16.4989 28.7199V1.79152H10.6595C8.12304 1.79152 6.41947 1.90939 5.55011 2.14252C4.6767 2.37826 3.85871 3.08549 3.09346 4.26813C2.32821 5.44946 1.74278 7.25027 1.33716 9.66925Z" fill="#AFAFAF"/>
<path fill-rule="evenodd" clip-rule="evenodd" d="M74.1304 19.5194H53.5659V28.7199C53.5659 31.7216 53.6443 33.6848 53.7985 34.6147C53.9526 35.5433 54.3447 36.2322 54.9747 36.6827C55.6034 37.1319 56.8 37.3572 58.5617 37.3572H59.5771V38.6525H41.8613V37.3572H42.8767C44.56 37.3572 45.7282 37.1516 46.3758 36.739C47.0261 36.3265 47.4412 35.6834 47.6251 34.8112C47.8103 33.9402 47.9009 31.9089 47.9009 28.7199V10.0071C47.9009 6.97 47.8103 5.00941 47.6251 4.12668C47.4412 3.24527 47.0545 2.63627 46.465 2.29837C45.8742 1.96047 44.5803 1.79152 42.5847 1.79152H41.8613V0.497559H59.5771V1.79152H58.851C56.9365 1.79152 55.6764 1.94737 55.0761 2.25515C54.4758 2.56554 54.0756 3.14311 53.8715 3.98655C53.6673 4.83129 53.5659 6.83772 53.5659 10.0071V17.5771H74.1304V10.0071C74.1304 6.97 74.0452 5.00941 73.8695 4.12668C73.6977 3.24527 73.3124 2.63627 72.7229 2.29837C72.1321 1.96047 70.8382 1.79152 68.8453 1.79152H67.8002V0.497559H85.7214V1.79152H85.1414C83.2053 1.79152 81.9344 1.94737 81.3368 2.25515C80.7365 2.56554 80.3335 3.14311 80.1294 3.98655C79.9252 4.83129 79.8238 6.83772 79.8238 10.0071V28.7199C79.8238 31.7216 79.8968 33.6848 80.0429 34.6147C80.1875 35.5433 80.581 36.2322 81.2191 36.6827C81.8586 37.1319 83.0579 37.3572 84.8223 37.3572H85.7214V38.6525H67.8002V37.3572H69.1644C70.8314 37.3572 71.9861 37.1516 72.6364 36.739C73.284 36.3265 73.6977 35.6834 73.8695 34.8112C74.0452 33.9402 74.1304 31.9089 74.1304 28.7199V19.5194Z" fill="#AFAFAF"/>
<mask id="mask0_818_2980" style="mask-type:alpha" maskUnits="userSpaceOnUse" x="89" y="0" width="107" height="40">
<path fill-rule="evenodd" clip-rule="evenodd" d="M195.959 39.5024H89.6162L89.6162 0.497559H195.959V39.5024Z" fill="white"/>
</mask>
<g mask="url(#mask0_818_2980)">
<path fill-rule="evenodd" clip-rule="evenodd" d="M121.685 26.7789H123.078L122.235 38.6525H89.6162V37.3572H90.4288C92.3825 37.3572 93.648 37.1044 94.2199 36.5989C94.7891 36.092 95.1528 35.449 95.3096 34.671C95.4638 33.8931 95.5422 31.9089 95.5422 28.7199V10.0071C95.5422 7.10096 95.4584 5.18752 95.2934 4.26813C95.1285 3.34873 94.7526 2.70568 94.1618 2.34028C93.5696 1.97488 92.3257 1.79152 90.4288 1.79152V0.497559H118.575L119.506 10.0071H118.139C117.52 7.34587 116.76 5.4547 115.861 4.33885C114.959 3.223 113.888 2.51839 112.65 2.22765C111.411 1.9369 109.415 1.79152 106.667 1.79152H101.206V17.8011H105.389C107.304 17.8011 108.647 17.6439 109.41 17.323C110.175 17.0061 110.68 16.5228 110.923 15.8745C111.164 15.2275 111.284 13.9663 111.284 12.0908H112.65V25.1457H111.284C111.284 23.0267 111.1 21.6057 110.732 20.8827C110.363 20.1611 109.828 19.6922 109.119 19.4761C108.415 19.2613 107.218 19.1526 105.532 19.1526H101.206V28.1842C101.206 32.7065 101.503 35.3652 102.105 36.1615C102.705 36.959 104.324 37.3572 106.956 37.3572H109.891C111.963 37.3572 113.666 37.1005 115.003 36.5845C116.339 36.0685 117.611 35.0089 118.824 33.4046C120.033 31.8015 120.988 29.5921 121.685 26.7789Z" fill="#AFAFAF"/>
<path fill-rule="evenodd" clip-rule="evenodd" d="M180.825 39.581H179.519L167.521 8.12252L157.037 39.581H155.642L146.144 9.86701C145.292 7.16514 144.675 5.36957 144.299 4.47899C143.921 3.5884 143.426 2.93094 142.818 2.50923C142.206 2.08751 141.195 1.84784 139.782 1.79152V0.497559H154.567V1.79152C152.785 1.90415 151.644 2.15299 151.139 2.53804C150.635 2.92309 150.385 3.46136 150.385 4.15549C150.385 4.77366 150.792 6.35969 151.604 8.91094L158.632 31.1388L168.916 0.497559H170.544L182.105 31.1388L188.118 10.8807C188.911 8.14085 189.309 6.35052 189.309 5.50708C189.309 3.03048 187.942 1.79152 185.212 1.79152V0.497559H195.961V1.79152C194.372 1.90415 193.192 2.47256 192.416 3.49411C191.642 4.51697 190.662 6.97 189.482 10.8519L180.825 39.581Z" fill="#AFAFAF"/>
</g>
<path fill-rule="evenodd" clip-rule="evenodd" d="M230.118 26.7789H231.51L230.669 38.6525H198.049V37.3572H198.861C200.815 37.3572 202.081 37.1044 202.653 36.5989C203.222 36.092 203.585 35.449 203.742 34.671C203.896 33.8931 203.975 31.9089 203.975 28.7199V10.0071C203.975 7.10096 203.891 5.18752 203.726 4.26813C203.561 3.34873 203.185 2.70568 202.594 2.34028C202.002 1.97488 200.758 1.79152 198.861 1.79152V0.497559H227.008L227.938 10.0071H226.571C225.954 7.34587 225.192 5.4547 224.293 4.33885C223.393 3.223 222.321 2.51839 221.082 2.22765C219.844 1.9369 217.848 1.79152 215.099 1.79152H209.638V17.8011H213.822C215.738 17.8011 217.08 17.6439 217.843 17.323C218.608 17.0061 219.112 16.5228 219.356 15.8745C219.596 15.2275 219.717 13.9663 219.717 12.0908H221.082V25.1457H219.717C219.717 23.0267 219.534 21.6057 219.165 20.8827C218.797 20.1611 218.26 19.6922 217.553 19.4761C216.848 19.2613 215.651 19.1526 213.965 19.1526H209.638V28.1842C209.638 32.7065 209.937 35.3652 210.538 36.1615C211.139 36.959 212.756 37.3572 215.39 37.3572H218.324C220.395 37.3572 222.099 37.1005 223.437 36.5845C224.772 36.0685 226.044 35.0089 227.257 33.4046C228.467 31.8015 229.42 29.5921 230.118 26.7789Z" fill="#AFAFAF"/>
<path fill-rule="evenodd" clip-rule="evenodd" d="M267.297 26.7789H268.69L267.849 38.6525H235.229V37.3572H236.042C237.996 37.3572 239.26 37.1044 239.833 36.5989C240.402 36.092 240.765 35.449 240.922 34.671C241.076 33.8931 241.154 31.9089 241.154 28.7199V10.0071C241.154 7.10096 241.072 5.18752 240.907 4.26813C240.742 3.34873 240.366 2.70568 239.775 2.34028C239.181 1.97488 237.939 1.79152 236.042 1.79152V0.497559H264.189L265.119 10.0071H263.752C263.133 7.34587 262.373 5.4547 261.474 4.33885C260.572 3.223 259.501 2.51839 258.263 2.22765C257.024 1.9369 255.029 1.79152 252.28 1.79152H246.819V17.8011H251.002C252.917 17.8011 254.261 17.6439 255.023 17.323C255.789 17.0061 256.293 16.5228 256.536 15.8745C256.776 15.2275 256.896 13.9663 256.896 12.0908H258.263V25.1457H256.896C256.896 23.0267 256.713 21.6057 256.346 20.8827C255.976 20.1611 255.441 19.6922 254.733 19.4761C254.028 19.2613 252.83 19.1526 251.146 19.1526H246.819V28.1842C246.819 32.7065 247.117 35.3652 247.718 36.1615C248.319 36.959 249.936 37.3572 252.569 37.3572H255.503C257.576 37.3572 259.28 37.1005 260.617 36.5845C261.953 36.0685 263.225 35.0089 264.436 33.4046C265.646 31.8015 266.599 29.5921 267.297 26.7789Z" fill="#AFAFAF"/>
<path fill-rule="evenodd" clip-rule="evenodd" d="M284.12 19.9123L296.146 9.41648C298.933 6.9975 300.328 5.27134 300.328 4.23931C300.328 2.68341 298.933 1.86748 296.146 1.79152V0.497559H310.989V1.79152C309.768 1.80986 308.543 2.06394 307.316 2.55114C306.085 3.03834 304.956 3.67615 303.929 4.46458C302.903 5.2517 300.998 6.91237 298.207 9.44529L291.033 15.8601L305.789 30.2954C309.16 33.6154 311.415 35.6232 312.556 36.316C313.701 37.0114 315.182 37.3572 317 37.3572V38.6525H296.553V37.3572H297.338C299.545 37.3572 300.919 37.1791 301.46 36.8242C302.003 36.4666 302.275 36.0266 302.275 35.5014C302.275 34.7129 300.869 32.9593 298.064 30.2391L286.939 19.3779L284.12 21.7707V28.7199C284.12 31.7216 284.198 33.6848 284.353 34.6147C284.507 35.5433 284.897 36.2322 285.528 36.6827C286.158 37.1319 287.362 37.3572 289.144 37.3572H289.901V38.6525H272.21V37.3572H273.431C275.115 37.3572 276.281 37.1516 276.929 36.739C277.58 36.3265 277.995 35.6834 278.181 34.8112C278.363 33.9402 278.455 31.9089 278.455 28.7199V10.0071C278.455 6.85736 278.354 4.84963 278.149 3.98655C277.948 3.12347 277.546 2.54328 276.945 2.24205C276.344 1.94214 274.941 1.79152 272.733 1.79152V0.497559H290.162V1.79152H289.436C287.497 1.79152 286.231 1.94737 285.629 2.25515C285.029 2.56554 284.628 3.14311 284.426 3.98655C284.221 4.83129 284.12 6.83772 284.12 10.0071V19.9123Z" fill="#AFAFAF"/>
</svg>
