<svg width="318" height="40" viewBox="0 0 318 40" fill="none" xmlns="http://www.w3.org/2000/svg">
<path fill-rule="evenodd" clip-rule="evenodd" d="M1.33716 9.66925H0L0.204158 0.497559H38.4303L38.6345 9.66925H37.3852C36.939 7.15728 36.3306 5.34206 35.5545 4.22622C34.7812 3.11037 33.9469 2.42541 33.056 2.17264C32.165 1.91856 30.6453 1.79152 28.4969 1.79152H22.1639V28.7199C22.1639 31.702 22.237 33.6626 22.3803 34.6003C22.5263 35.5394 22.9184 36.2322 23.5592 36.6827C24.1961 37.1319 25.398 37.3572 27.1597 37.3572H29.0769V38.6525H9.43992V37.3572H11.4747C13.158 37.3572 14.3262 37.1516 14.9738 36.739C15.6241 36.3265 16.0392 35.6834 16.2217 34.8112C16.4083 33.9402 16.4989 31.9089 16.4989 28.7199V1.79152H10.6595C8.12304 1.79152 6.41947 1.90939 5.55011 2.14252C4.6767 2.37826 3.85871 3.08549 3.09346 4.26813C2.32821 5.44946 1.74278 7.25027 1.33716 9.66925Z" fill="#AFAFAF"/>
<path fill-rule="evenodd" clip-rule="evenodd" d="M74.1304 19.5194H53.5659V28.7199C53.5659 31.7216 53.6443 33.6848 53.7985 34.6147C53.9526 35.5433 54.3447 36.2322 54.9747 36.6827C55.6034 37.1319 56.8 37.3572 58.5617 37.3572H59.5771V38.6525H41.8613V37.3572H42.8767C44.56 37.3572 45.7282 37.1516 46.3758 36.739C47.0261 36.3265 47.4412 35.6834 47.6251 34.8112C47.8103 33.9402 47.9009 31.9089 47.9009 28.7199V10.0071C47.9009 6.97 47.8103 5.00941 47.6251 4.12668C47.4412 3.24527 47.0545 2.63627 46.465 2.29837C45.8742 1.96047 44.5803 1.79152 42.5847 1.79152H41.8613V0.497559H59.5771V1.79152H58.851C56.9365 1.79152 55.6764 1.94737 55.0761 2.25515C54.4758 2.56554 54.0756 3.14311 53.8715 3.98655C53.6673 4.83129 53.5659 6.83772 53.5659 10.0071V17.5771H74.1304V10.0071C74.1304 6.97 74.0452 5.00941 73.8695 4.12668C73.6977 3.24527 73.3124 2.63627 72.7229 2.29837C72.1321 1.96047 70.8382 1.79152 68.8453 1.79152H67.8002V0.497559H85.7214V1.79152H85.1414C83.2053 1.79152 81.9344 1.94737 81.3368 2.25515C80.7365 2.56554 80.3335 3.14311 80.1294 3.98655C79.9252 4.83129 79.8238 6.83772 79.8238 10.0071V28.7199C79.8238 31.7216 79.8968 33.6848 80.0429 34.6147C80.1875 35.5433 80.581 36.2322 81.2191 36.6827C81.8586 37.1319 83.0579 37.3572 84.8223 37.3572H85.7214V38.6525H67.8002V37.3572H69.1644C70.8314 37.3572 71.9861 37.1516 72.6364 36.739C73.284 36.3265 73.6977 35.6834 73.8695 34.8112C74.0452 33.9402 74.1304 31.9089 74.1304 28.7199V19.5194Z" fill="#AFAFAF"/>
<mask id="mask0_236_20845" style="mask-type:alpha" maskUnits="userSpaceOnUse" x="89" y="0" width="107" height="40">
<path fill-rule="evenodd" clip-rule="evenodd" d="M195.958 39.5024H89.6152L89.6152 0.497559H195.958V39.5024Z" fill="white"/>
</mask>
<g>
<path fill-rule="evenodd" clip-rule="evenodd" d="M121.684 26.7789H123.077L122.234 38.6525H89.6152V37.3572H90.4278C92.3815 37.3572 93.647 37.1044 94.2189 36.5989C94.7881 36.092 95.1518 35.449 95.3087 34.671C95.4628 33.8931 95.5412 31.9089 95.5412 28.7199V10.0071C95.5412 7.10096 95.4574 5.18752 95.2924 4.26813C95.1275 3.34873 94.7516 2.70568 94.1608 2.34028C93.5686 1.97488 92.3247 1.79152 90.4278 1.79152V0.497559H118.575L119.505 10.0071H118.138C117.519 7.34587 116.759 5.4547 115.86 4.33885C114.958 3.223 113.887 2.51839 112.649 2.22765C111.41 1.9369 109.414 1.79152 106.666 1.79152H101.205V17.8011H105.388C107.303 17.8011 108.647 17.6439 109.409 17.323C110.174 17.0061 110.679 16.5228 110.922 15.8745C111.163 15.2275 111.283 13.9663 111.283 12.0908H112.649V25.1457H111.283C111.283 23.0267 111.099 21.6057 110.731 20.8827C110.362 20.1611 109.827 19.6922 109.118 19.4761C108.414 19.2613 107.217 19.1526 105.531 19.1526H101.205V28.1842C101.205 32.7065 101.502 35.3652 102.104 36.1615C102.704 36.959 104.323 37.3572 106.955 37.3572H109.89C111.962 37.3572 113.665 37.1005 115.002 36.5845C116.338 36.0685 117.611 35.0089 118.823 33.4046C120.032 31.8015 120.987 29.5921 121.684 26.7789Z" fill="#AFAFAF"/>
<path fill-rule="evenodd" clip-rule="evenodd" d="M180.824 39.581H179.518L167.52 8.12252L157.036 39.581H155.641L146.143 9.86701C145.291 7.16514 144.674 5.36957 144.298 4.47899C143.92 3.5884 143.425 2.93094 142.817 2.50923C142.205 2.08751 141.194 1.84784 139.781 1.79152V0.497559H154.566V1.79152C152.784 1.90415 151.643 2.15299 151.138 2.53804C150.634 2.92309 150.384 3.46136 150.384 4.15549C150.384 4.77366 150.791 6.35969 151.603 8.91094L158.631 31.1388L168.915 0.497559H170.543L182.104 31.1388L188.117 10.8807C188.91 8.14085 189.308 6.35052 189.308 5.50708C189.308 3.03048 187.941 1.79152 185.211 1.79152V0.497559H195.96V1.79152C194.371 1.90415 193.191 2.47256 192.415 3.49411C191.641 4.51697 190.661 6.97 189.481 10.8519L180.824 39.581Z" fill="#AFAFAF"/>
</g>
<path fill-rule="evenodd" clip-rule="evenodd" d="M230.118 26.7789H231.51L230.669 38.6525H198.049V37.3572H198.861C200.815 37.3572 202.081 37.1044 202.653 36.5989C203.222 36.092 203.585 35.449 203.742 34.671C203.896 33.8931 203.975 31.9089 203.975 28.7199V10.0071C203.975 7.10096 203.891 5.18752 203.726 4.26813C203.561 3.34873 203.185 2.70568 202.594 2.34028C202.002 1.97488 200.758 1.79152 198.861 1.79152V0.497559H227.008L227.938 10.0071H226.571C225.954 7.34587 225.192 5.4547 224.293 4.33885C223.393 3.223 222.321 2.51839 221.082 2.22765C219.844 1.9369 217.848 1.79152 215.099 1.79152H209.638V17.8011H213.822C215.738 17.8011 217.08 17.6439 217.843 17.323C218.608 17.0061 219.112 16.5228 219.356 15.8745C219.596 15.2275 219.717 13.9663 219.717 12.0908H221.082V25.1457H219.717C219.717 23.0267 219.534 21.6057 219.165 20.8827C218.797 20.1611 218.26 19.6922 217.553 19.4761C216.848 19.2613 215.651 19.1526 213.965 19.1526H209.638V28.1842C209.638 32.7065 209.937 35.3652 210.538 36.1615C211.139 36.959 212.756 37.3572 215.39 37.3572H218.324C220.395 37.3572 222.099 37.1005 223.437 36.5845C224.772 36.0685 226.044 35.0089 227.257 33.4046C228.467 31.8015 229.42 29.5921 230.118 26.7789Z" fill="#AFAFAF"/>
<path fill-rule="evenodd" clip-rule="evenodd" d="M267.296 26.7789H268.689L267.848 38.6525H235.229V37.3572H236.041C237.995 37.3572 239.259 37.1044 239.832 36.5989C240.401 36.092 240.764 35.449 240.921 34.671C241.075 33.8931 241.153 31.9089 241.153 28.7199V10.0071C241.153 7.10096 241.071 5.18752 240.906 4.26813C240.741 3.34873 240.365 2.70568 239.774 2.34028C239.181 1.97488 237.938 1.79152 236.041 1.79152V0.497559H264.188L265.118 10.0071H263.751C263.132 7.34587 262.372 5.4547 261.473 4.33885C260.571 3.223 259.5 2.51839 258.262 2.22765C257.023 1.9369 255.028 1.79152 252.279 1.79152H246.818V17.8011H251.001C252.916 17.8011 254.26 17.6439 255.022 17.323C255.788 17.0061 256.292 16.5228 256.535 15.8745C256.775 15.2275 256.895 13.9663 256.895 12.0908H258.262V25.1457H256.895C256.895 23.0267 256.712 21.6057 256.345 20.8827C255.976 20.1611 255.44 19.6922 254.732 19.4761C254.027 19.2613 252.829 19.1526 251.145 19.1526H246.818V28.1842C246.818 32.7065 247.116 35.3652 247.717 36.1615C248.318 36.959 249.935 37.3572 252.568 37.3572H255.502C257.575 37.3572 259.279 37.1005 260.616 36.5845C261.952 36.0685 263.224 35.0089 264.435 33.4046C265.645 31.8015 266.598 29.5921 267.296 26.7789Z" fill="#AFAFAF"/>
<path fill-rule="evenodd" clip-rule="evenodd" d="M284.121 19.9123L296.147 9.41648C298.934 6.9975 300.329 5.27134 300.329 4.23931C300.329 2.68341 298.934 1.86748 296.147 1.79152V0.497559H310.99V1.79152C309.769 1.80986 308.544 2.06394 307.317 2.55114C306.086 3.03834 304.957 3.67615 303.93 4.46458C302.904 5.2517 300.999 6.91237 298.208 9.44529L291.034 15.8601L305.79 30.2954C309.161 33.6154 311.416 35.6232 312.557 36.316C313.702 37.0114 315.183 37.3572 317.001 37.3572V38.6525H296.554V37.3572H297.339C299.546 37.3572 300.92 37.1791 301.461 36.8242C302.004 36.4666 302.276 36.0266 302.276 35.5014C302.276 34.7129 300.87 32.9593 298.065 30.2391L286.94 19.3779L284.121 21.7707V28.7199C284.121 31.7216 284.199 33.6848 284.354 34.6147C284.508 35.5433 284.898 36.2322 285.529 36.6827C286.159 37.1319 287.363 37.3572 289.145 37.3572H289.902V38.6525H272.211V37.3572H273.432C275.116 37.3572 276.282 37.1516 276.93 36.739C277.581 36.3265 277.996 35.6834 278.182 34.8112C278.364 33.9402 278.456 31.9089 278.456 28.7199V10.0071C278.456 6.85736 278.355 4.84963 278.15 3.98655C277.949 3.12347 277.547 2.54328 276.946 2.24205C276.345 1.94214 274.942 1.79152 272.734 1.79152V0.497559H290.163V1.79152H289.437C287.498 1.79152 286.232 1.94737 285.63 2.25515C285.03 2.56554 284.629 3.14311 284.427 3.98655C284.222 4.83129 284.121 6.83772 284.121 10.0071V19.9123Z" fill="#AFAFAF"/>
</svg>
