<svg width="174" height="58" viewBox="0 0 174 58" fill="none" xmlns="http://www.w3.org/2000/svg">
<path fill-rule="evenodd" clip-rule="evenodd" d="M173.46 11.6661L172.692 11.6688L172.684 11.2698C172.605 10.2788 172.437 7.47651 172.225 5.11944C172.206 4.90937 172.172 4.74421 172.172 4.74421C171.712 4.72968 169.839 4.67023 169.809 4.63852C169.778 4.61077 168.284 4.59095 168.254 4.57378C168.239 4.56717 163.34 4.53678 158.291 4.53414C154.845 4.53018 151.454 4.55131 149.373 4.55131C148.864 4.54999 147.029 4.62134 147.029 4.62134L147.019 26.991L161.452 27.0399C161.52 27.0399 165.275 26.9237 165.366 26.925C165.595 26.9276 168.17 26.7783 168.269 26.744C168.269 26.744 168.307 26.5088 168.368 26.3397C168.577 24.9854 168.843 23.6999 168.907 22.6957C168.907 22.6957 168.976 22.265 168.98 21.9757L169.801 21.9572C169.801 22.0629 169.842 22.3192 169.839 22.6852C169.831 24.0328 169.733 26.8325 169.736 28.669C169.74 31.3101 169.813 33.6963 169.827 34.8907C169.839 35.2329 169.815 35.7772 169.815 35.7772H168.915C168.9 35.6517 168.885 35.5209 168.866 35.3822C168.707 33.8588 168.577 32.7833 168.338 31.2309C168.33 31.1516 168.284 30.8715 168.266 30.6918C167.805 30.6588 166.589 30.6191 165.944 30.6006C165.662 30.5914 162.144 30.5663 158.184 30.5597C156.561 30.557 153.647 30.6337 152.412 30.631C150.964 30.631 148.574 30.7222 147.014 30.779L147.029 51.0651L147.091 53.6785L155.855 53.8291L168.334 53.8186C168.391 53.8186 171.191 53.7063 172.066 53.7234C172.251 53.7274 172.625 53.6944 172.625 53.6944C172.707 53.039 172.81 51.7112 172.913 50.4455C172.921 50.2949 173.233 46.9297 173.233 46.026L174 46.0167C174 46.8716 173.837 57.4995 173.837 57.4995C172.429 57.4995 168.113 57.4956 162.783 57.4176C159.549 57.3687 155.945 57.3727 152.392 57.3198C149.509 57.2789 146.658 57.1758 144.063 57.1798C140.368 57.1837 136.746 57.4255 135.34 57.4268C135.02 57.4268 134.452 57.4044 134.328 57.4044V56.0686H134.586C135.453 56.0647 138.002 55.9127 139.332 55.667C139.332 55.3988 139.42 52.0891 139.42 52.0217C139.42 52.0217 139.413 10.0172 139.413 8.13316C139.413 6.10376 139.378 2.72141 139.378 2.4215C138.626 2.33297 138.358 2.28673 138.2 2.2537C137.402 2.1414 135.827 2.00531 134.986 1.94453C134.745 1.95114 134.484 1.91943 134.355 1.89697C134.355 1.89697 134.351 0.583668 134.343 0.565171C134.536 0.575741 134.929 0.546674 135.635 0.550637C137.123 0.557244 139.861 0.775246 143.206 0.77921C145.308 0.781852 148.699 0.678797 151.127 0.648408C154.592 0.648408 157.222 0.615378 160.579 0.594238C166.054 0.557244 170.731 0.518928 172.559 0.508358C173.096 0.507037 173.388 0.504395 173.388 0.504395C173.388 0.610093 173.384 0.729003 173.384 0.86509C173.384 1.28656 173.365 2.02909 173.372 2.93677C173.392 5.76552 173.46 10.2141 173.46 11.6661ZM81.3713 19.494C81.3713 19.494 80.1074 26.4502 78.2832 36.2643C77.3154 41.5664 75.3133 54.8262 75.1792 55.7022C76.3329 55.8727 78.6058 56.0576 79.2245 56.0365C79.3666 56.0365 79.6095 56.0418 79.7888 56.0418L79.7861 57.3855C79.5285 57.4185 78.9245 57.4225 78.8992 57.4225C76.7099 57.3775 75.1327 57.2111 72.7708 57.2111C72.1481 57.2111 68.8635 57.3815 67.7058 57.4211C67.2239 57.4409 66.5401 57.3881 66.41 57.3947L66.4127 56.0656C66.5255 56.0656 66.7539 56.018 66.8999 56.014C67.9474 55.9665 69.5592 55.8066 70.924 55.6282C71.0356 54.9755 72.2158 48.4394 72.5916 46.1233C74.0414 38.4602 78.3164 12.8574 78.8501 9.40375C79.3188 5.67525 79.8644 1.03774 79.9149 0.526425C81.0474 0.546243 83.0017 0.501321 83.0017 0.501321C83.0017 0.501321 86.7855 12.1982 87.3989 13.9105C88.0136 15.6228 99.5734 45.2196 99.5734 45.2196C99.5734 45.2196 105 32.4684 109.836 18.7845C110.815 16.0139 112.098 12.4016 113.045 9.47642C114.43 5.19564 115.951 0.5 115.951 0.5H118.927C118.927 0.5 119.665 5.7281 119.926 8.05346C120.687 14.8287 125.656 42.3565 127.402 51.4095C127.838 53.6755 128.168 55.6362 128.168 55.6362C128.682 55.6718 130.692 55.87 131.883 55.9691C132.131 55.9889 132.801 56.0272 132.953 56.0272L132.96 57.3907C132.96 57.3907 132.417 57.4185 132.121 57.4185C129.455 57.4013 125.302 57.1635 122.738 57.1635C120.459 57.1635 118.265 57.3577 115.986 57.4079C115.598 57.4158 115.207 57.396 114.812 57.396V56.0457C114.823 56.0444 115.127 56.0272 115.286 56.0325C116.4 55.9823 119.353 55.693 119.645 55.6798C119.648 55.1843 119.486 53.4693 119.247 51.7161C119.079 50.4794 118.798 48.3681 118.498 46.2845C117.849 42.2363 114.844 25.4593 113.951 20.802C113.803 20.0383 113.712 19.6102 113.712 19.6102C113.712 19.6102 104.403 43.3738 102.526 48.0563C102.344 48.5147 102.213 48.8384 102.169 48.9468C100.375 53.4561 98.8711 57.4753 98.8711 57.4753L96.2224 57.4608L81.7165 20.3581L81.3713 19.494ZM63.736 57.4351C61.771 57.4351 58.432 57.1101 55.9307 57.1101C53.4573 57.1101 50.0997 57.4351 47.6833 57.4351C47.4776 57.4351 47.1151 57.3889 46.916 57.3889V56.0399C47.3939 56.0293 49.5301 55.8351 50.1236 55.7915C50.8192 55.7413 51.4632 55.7069 51.7499 55.6145C51.7499 55.6145 51.7552 53.9854 51.7632 51.4645C51.7898 42.7417 51.8415 18.0863 51.7592 6.93119C51.7513 5.75398 51.7433 2.77064 51.7433 2.3386C51.2906 2.29368 50.6573 2.2329 50.2045 2.17345C49.639 2.14306 47.305 1.9211 46.9053 1.89863L46.8907 0.54834C49.2075 0.54834 52.6434 0.783518 55.4342 0.783518C58.1001 0.783518 61.7166 0.54834 64.4542 0.54834L64.4489 1.95677C64.0148 1.98584 62.958 2.0519 62.9234 2.05586C62.1255 2.13117 59.8924 2.3822 59.3428 2.42184C59.3428 3.26214 59.3428 4.82912 59.3428 6.76207C59.3414 16.7506 59.3308 42.8858 59.3268 51.6851C59.3268 52.8359 59.3268 53.8995 59.3268 54.5377C59.3268 55.2088 59.3308 55.6145 59.3375 55.6382C59.3507 55.6898 60.7514 55.8193 61.074 55.8391C61.6914 55.9104 64.2325 56.0227 64.3095 56.0399H64.4808L64.4794 57.3889C64.3122 57.3889 63.9072 57.4351 63.736 57.4351ZM18.5234 4.49503L13.4557 4.47257H5.60136C5.0557 4.47257 0.843059 4.51353 0.843059 4.51353L0.76871 11.2914L0 11.3139L0.0464678 3.69569L0.0185871 0.565704C2.69646 0.695184 12.3684 0.779743 22.4041 0.779743C34.1074 0.779743 41.6471 0.662154 44.6051 0.574953L44.5706 4.04185L44.633 11.7486L43.8351 11.7406C43.8417 11.1117 43.705 8.55385 43.7129 8.30413C43.7169 8.21033 43.5456 4.77646 43.5217 4.51882L40.1615 4.47257L30.0939 4.47125L26.2357 4.48579L26.241 52.0262C26.241 52.0896 26.314 55.1417 26.3273 55.7758C26.715 55.83 30.4457 56.0876 31.1201 56.0876L31.3843 56.0837V57.3811C31.1839 57.3811 30.9343 57.401 30.7272 57.3996C28.6069 57.3772 25.1855 57.1235 22.7533 57.1235C20.3609 57.1235 16.9846 57.3573 14.4887 57.3957C14.4223 57.3983 13.9111 57.3864 13.7173 57.3772L13.712 55.9965C13.7372 55.9965 13.8912 55.9925 14.1249 55.9859C15.179 55.9436 17.7759 55.7692 18.453 55.7124L18.5579 55.6979L18.5234 4.49503Z" fill="#AFAFAF"/>
</svg>
