<svg xmlns="http://www.w3.org/2000/svg" xmlns:xlink="http://www.w3.org/1999/xlink" width="313" height="71" viewBox="0 0 313 71">
    <defs>
        <path id="su2ad76ema" d="M0 0.083L312.132 0.083 312.132 70.041 0 70.041z"/>
    </defs>
    <g fill="none" fill-rule="evenodd">
        <mask id="3z2vqxa3yb" fill="#fff">
            <use xlink:href="#su2ad76ema"/>
        </mask>
        <path fill="#FFF" d="M109.79 44.577c0 5.049.013 10.098-.017 15.147-.004.642.217.898.795 1.107 2.976 1.075 6.038 1.763 9.188 1.99 2.22.161 4.445.15 6.627-.426 4.152-1.095 6.594-3.904 7.718-7.904 1.64-5.838 1.79-11.774.809-17.738-.41-2.494-1.265-4.836-2.977-6.767-2.5-2.82-5.793-3.802-9.411-3.85-4.138-.055-8.134.749-12.001 2.223-.549.208-.752.46-.748 1.07.029 5.05.016 10.099.016 15.148zm9.01 25.473c-.985-.105-1.97-.208-2.955-.316-5.154-.567-10.19-1.635-15.063-3.444-.67-.25-.873-.59-.872-1.3.02-21.319.017-42.638.017-63.957v-.95h9.843v21.962c.592-.211 1.056-.372 1.518-.54 4.835-1.767 9.805-2.677 14.971-2.453 8.168.354 14.26 4.746 17.164 12.391 1.33 3.501 1.843 7.14 1.904 10.856.074 4.511-.261 8.978-1.483 13.35-2.17 7.767-7.309 12.262-15.152 13.768-1.198.23-2.422.32-3.633.484-.19.026-.373.098-.559.149h-5.7zM276.573 44.546c0 5.1.005 10.2-.006 15.298-.002.436.045.726.537.904 4.251 1.536 8.619 2.363 13.146 2.101 2.643-.152 5.115-.872 7.182-2.64 1.94-1.662 2.994-3.86 3.613-6.262 1.433-5.565 1.594-11.208.719-16.871-.381-2.463-1.168-4.813-2.787-6.781-2.496-3.035-5.885-4.103-9.647-4.158-4.162-.061-8.185.744-12.073 2.243-.53.204-.7.45-.699 1.018.026 5.049.015 10.099.015 15.148zM285.6 70.05c-.986-.105-1.97-.208-2.955-.315-5.154-.56-10.19-1.633-15.061-3.44-.658-.243-.893-.565-.892-1.292.023-21.343.019-42.687.019-64.031V.089h9.832v21.95c.678-.236 1.233-.424 1.784-.623 4.745-1.716 9.625-2.592 14.688-2.361 8.326.379 14.403 4.817 17.29 12.643 1.593 4.316 1.936 8.805 1.8 13.348-.122 3.977-.575 7.909-1.827 11.719-2.265 6.893-7.052 10.945-14.046 12.488-1.457.322-2.958.437-4.439.652-.216.032-.428.096-.643.145h-5.55zM9.904 33.144c.204.014.326.03.448.03 3.8.001 7.6.058 11.398-.03 1.585-.036 3.19-.26 4.739-.61 3.213-.725 5.592-2.483 6.472-5.835.72-2.747.82-5.527.307-8.315-.604-3.286-2.495-5.5-5.762-6.276-1.952-.463-3.979-.759-5.983-.832-3.594-.13-7.197-.037-10.797-.035-.265 0-.53.022-.822.035v21.868zM0 4.05c.322.02.644.058.966.058 7.272.004 14.543-.029 21.815.017 3.45.022 6.87.383 10.193 1.42 5.997 1.869 9.53 6.185 10.222 12.433.36 3.254.312 6.479-.368 9.682-1.212 5.706-4.782 9.274-10.19 11.157-3.05 1.062-6.214 1.462-9.421 1.496-4.123.042-8.246.01-12.37.01h-.966V68.85H0V4.05zM67.2 70.05c-1.206-.157-2.415-.288-3.616-.475-2.86-.447-5.592-1.285-8.074-2.814-3.86-2.376-5.833-5.918-6.278-10.358-.127-1.264-.148-2.544-.149-3.816-.011-10.5-.006-20.998-.006-31.497v-.931h9.862v.975c0 9.424-.011 18.848.008 28.272.005 2.352.207 4.692.907 6.957 1.154 3.738 3.74 5.865 7.567 6.32 4.69.559 9.314.01 13.862-1.25.646-.18.844-.486.843-1.152-.02-13.048-.015-26.097-.015-39.146v-.988h9.86v.974c0 14.848-.005 29.697.016 44.545 0 .72-.194 1.027-.914 1.223-5.773 1.571-11.632 2.62-17.603 3.033-.192.013-.38.084-.57.128h-5.7M234 70.05c-1.206-.156-2.415-.29-3.617-.473-2.812-.43-5.499-1.254-7.951-2.727-3.907-2.349-5.935-5.884-6.402-10.357-.121-1.164-.145-2.343-.147-3.516-.01-10.624-.006-21.249-.006-31.874v-.94h9.862v.959c0 9.6-.012 19.199.01 28.799.004 2.252.259 4.485.961 6.645 1.197 3.674 3.807 5.684 7.558 6.127 4.592.542 9.118-.02 13.58-1.178.795-.206 1.087-.573 1.086-1.444-.033-12.975-.023-25.95-.023-38.924v-.995h9.813c.016.28.046.543.046.808.001 14.95-.003 29.899.015 44.848.001.61-.18.87-.767 1.031-5.793 1.596-11.676 2.657-17.673 3.074-.218.015-.43.09-.645.137H234" mask="url(#3z2vqxa3yb)"/>
        <path fill="#FFF" d="M206.339 68.84h-9.158c-1.725 0-3.45-.025-5.174.013-.57.012-.889-.145-1.16-.671-4.002-7.765-8.027-15.518-12.049-23.272-5.493-10.59-10.988-21.179-16.484-31.767-.098-.187-.22-.361-.464-.507V68.79h-8.628V4.154c.23-.014.47-.041.711-.041 4.499-.003 8.999.006 13.497-.013.517-.002.786.154 1.032.628 9.561 18.432 19.14 36.855 28.718 55.279.1.192.215.376.47.536V4.173h8.689v64.666"/>
    </g>
</svg>
