<svg xmlns="http://www.w3.org/2000/svg" xmlns:xlink="http://www.w3.org/1999/xlink" width="312" height="94" viewBox="0 0 312 94">
    <defs>
        <path id="o8p2gmqwfa" d="M0.007 0L311.956 0 311.956 93.85 0.007 93.85z"/>
    </defs>
    <g fill="none" fill-rule="evenodd">
        <mask id="ls9uwroomb" fill="#fff">
            <use xlink:href="#o8p2gmqwfa"/>
        </mask>
        <path fill="#FFF" d="M46.925 81.461c-19.146 0-34.537-15.391-34.537-34.536 0-19.146 15.391-34.537 34.537-34.537 19.145 0 34.536 15.391 34.536 34.537 0 19.145-15.39 34.536-34.536 34.536zm0-81.461C21.022 0 0 21.022 0 46.925 0 72.827 21.022 93.85 46.925 93.85c25.902 0 46.925-21.023 46.925-46.925C93.85 21.022 72.827 0 46.925 0zm247.95 54.057c0 4.13-2.816 7.32-6.757 7.32-3.94 0-6.945-3.378-6.945-7.507v-.188c0-4.13 2.816-7.32 6.758-7.32 3.941 0 6.944 3.378 6.944 7.695zm-6.757-22.336c-14.077 0-24.025 10.324-24.025 22.336v.188c0 12.013 9.948 22.149 23.838 22.149 14.078 0 24.025-10.324 24.025-22.337v-.187c0-12.013-9.947-22.149-23.838-22.149zm-26.465.939H245.7c-.376 0-.752.375-.752.75v41.107c0 .375.376.75.752.75h15.954c.375 0 .75-.375.75-.75V33.598c0-.563-.375-.938-.75-.938zm.187-14.265h-16.517c-.376 0-.751.375-.751.75v9.573c0 .375.375.75.751.75h16.517c.376 0 .752-.375.752-.75v-9.573c.187-.375-.189-.75-.752-.75zm-21.21 0h-15.954c-.375 0-.751.375-.751.75v55.372c0 .375.376.75.751.75h15.955c.375 0 .75-.375.75-.75V19.145c0-.375-.375-.75-.75-.75zM219.609 32.66H187.7c-.375 0-.938.375-1.125.75l-4.13 15.58-.189.75-4.88-16.705c-.186-.375-.562-.75-1.125-.75h-12.389c-.375 0-.938.375-1.126.75l-4.692 15.579-.188.75-.188-.375-1.877-7.695-2.064-7.696c-.188-.375-.564-.75-1.127-.75h-24.964V19.332c0-.376-.562-.939-1.125-.75l-15.767 4.88c-.564.187-.751.375-.751.75v8.447h-4.13c-.375 0-.75.375-.75.75v12.013c0 .375.375.75.75.75h4.13v14.641c0 10.324 5.63 15.204 15.954 15.204 4.318 0 8.446-.938 11.262-2.44V61.19c0-.563-.563-.751-.939-.751-1.688.75-3.003.939-4.504.939-2.815 0-4.317-1.127-4.317-4.318V46.362h9.01c.375 0 .75-.376.75-.751V35.475l11.826 39.23c.187.375.563.75 1.125.75h13.14c.375 0 .938-.375 1.125-.75l5.631-17.457 2.815 9.01 2.629 8.258c.187.376.563.751 1.125.751h13.14c.375 0 .938-.375 1.126-.75L202.902 35.1v39.416c0 .376.376.751.752.751h15.954c.376 0 .751-.375.751-.75V33.597c0-.563-.375-.938-.75-.938zm.187-14.265h-16.517c-.376 0-.75.375-.75.75v9.573c0 .375.374.75.75.75h16.517c.376 0 .752-.375.752-.75v-9.573c.187-.375-.188-.75-.752-.75z" mask="url(#ls9uwroomb)"/>
        <path fill="#FFF" d="M58.562 25.527c5.39 0 9.76 4.37 9.76 9.76s-4.37 9.76-9.76 9.76-9.76-4.37-9.76-9.76 4.37-9.76 9.76-9.76M58.562 48.802c5.39 0 9.76 4.37 9.76 9.76s-4.37 9.76-9.76 9.76-9.76-4.37-9.76-9.76 4.37-9.76 9.76-9.76M35.287 48.802c5.39 0 9.76 4.37 9.76 9.76s-4.37 9.76-9.76 9.76-9.76-4.37-9.76-9.76 4.37-9.76 9.76-9.76M35.287 25.527c5.39 0 9.76 4.37 9.76 9.76s-4.37 9.76-9.76 9.76-9.76-4.37-9.76-9.76 4.37-9.76 9.76-9.76"/>
    </g>
</svg>
