<svg xmlns="http://www.w3.org/2000/svg" xmlns:xlink="http://www.w3.org/1999/xlink" width="20" height="20" viewBox="0 0 20 20">
    <defs>
        <path id="a" d="M.003.02V20H19.98V.02H.003z"/>
    </defs>
    <g fill="none" fill-rule="evenodd">
        <mask id="b" fill="#fff">
            <use xlink:href="#a"/>
        </mask>
        <path fill="#1C1B1B" d="M9.99 20c5.509 0 9.99-4.482 9.99-9.99C19.98 4.5 15.5.02 9.99.02 4.482.02 0 4.5 0 10.01 0 15.518 4.482 20 9.99 20zm-6.513-5.058c.791-.311 1.788-.56 2.908-.73.152.914.354 1.76.603 2.507.13.391.268.736.41 1.043a8.208 8.208 0 0 1-3.921-2.82zm-1.66-4.932a8.13 8.13 0 0 1 .72-3.357c.983.421 2.224.746 3.621.956a27.553 27.553 0 0 0 0 4.801c-1.397.21-2.638.536-3.62.956a8.128 8.128 0 0 1-.722-3.356zM9.99 1.836c.196 0 .766.498 1.28 2.04.21.632.384 1.35.518 2.128a25.856 25.856 0 0 1-3.596 0c.134-.777.308-1.496.52-2.129.513-1.54 1.083-2.04 1.278-2.04zm0 6.047c.692 0 1.37-.025 2.027-.074a25.905 25.905 0 0 1 0 4.401 27.523 27.523 0 0 0-4.054 0 25.826 25.826 0 0 1-.092-2.2c0-.754.032-1.492.092-2.2.657.048 1.335.073 2.027.073zm8.174 2.127a8.128 8.128 0 0 1-.721 3.356c-.982-.42-2.223-.746-3.621-.956a27.555 27.555 0 0 0 0-4.8c1.398-.21 2.639-.536 3.62-.957a8.128 8.128 0 0 1 .722 3.357zM9.99 18.184c-.195 0-.765-.499-1.279-2.04a14.662 14.662 0 0 1-.519-2.129 25.852 25.852 0 0 1 3.596 0 14.662 14.662 0 0 1-.519 2.13c-.513 1.54-1.083 2.039-1.279 2.039zm2.593-.422c.142-.307.279-.652.41-1.043.248-.747.45-1.593.602-2.506 1.12.17 2.117.418 2.909.729a8.208 8.208 0 0 1-3.92 2.82zm3.92-12.685c-.79.312-1.787.56-2.908.73a16.627 16.627 0 0 0-.603-2.506c-.13-.391-.267-.737-.409-1.043a8.208 8.208 0 0 1 3.92 2.82zm-9.106-2.82c-.141.307-.279.653-.409 1.044a16.67 16.67 0 0 0-.603 2.506c-1.12-.17-2.117-.418-2.908-.73a8.207 8.207 0 0 1 3.92-2.82z" mask="url(#b)"/>
    </g>
</svg>
