<svg xmlns="http://www.w3.org/2000/svg" xmlns:xlink="http://www.w3.org/1999/xlink" width="284" height="36" viewBox="0 0 284 36">
    <defs>
        <path id="a" d="M95.534 35.337H.34V.187h95.194v35.15z"/>
    </defs>
    <g fill="none" fill-rule="evenodd" opacity=".404">
        <path fill="#B5BFC9" d="M1.209 8.47H.012L.195.205h34.218l.183 8.265h-1.118c-.4-2.264-.945-3.9-1.64-4.905-.691-1.006-1.438-1.623-2.236-1.85-.797-.23-2.158-.344-4.08-.344h-5.67v24.267c0 2.688.065 4.455.194 5.3.13.846.481 1.47 1.055 1.876.57.405 1.646.608 3.223.608h1.716v1.168H8.462v-1.168h1.822c1.506 0 2.552-.185 3.132-.557.582-.372.953-.951 1.117-1.737.167-.785.248-2.616.248-5.49V1.371H9.554c-2.27 0-3.796.106-4.574.316-.782.213-1.514.85-2.199 1.916-.685 1.064-1.21 2.687-1.572 4.867M66.368 17.347H47.96v8.291c0 2.706.07 4.475.208 5.313.138.837.489 1.457 1.053 1.863.563.405 1.634.608 3.21.608h.91v1.168H37.482v-1.168h.91c1.506 0 2.552-.185 3.132-.557.582-.372.953-.951 1.118-1.737.166-.785.247-2.616.247-5.49V8.775c0-2.737-.081-4.504-.247-5.3-.165-.794-.51-1.343-1.039-1.647-.528-.305-1.687-.457-3.473-.457h-.648V.205h15.859V1.37h-.65c-1.714 0-2.842.14-3.38.418-.537.28-.895.8-1.078 1.56-.182.761-.273 2.57-.273 5.426v6.822h18.408V8.775c0-2.737-.076-4.504-.233-5.3-.154-.794-.499-1.343-1.027-1.647-.528-.305-1.687-.457-3.47-.457h-.936V.205h16.042V1.37h-.52c-1.732 0-2.87.14-3.405.418-.537.28-.898.8-1.08 1.56-.183.761-.274 2.57-.274 5.426v16.863c0 2.706.065 4.475.196 5.313.13.837.482 1.457 1.053 1.863.572.405 1.646.608 3.225.608h.805v1.168H60.702v-1.168h1.22c1.493 0 2.527-.185 3.109-.557.58-.372.95-.951 1.104-1.737.157-.785.233-2.616.233-5.49v-8.291"/>
        <g transform="translate(79.89 .018)">
            <mask id="b" fill="#fff">
                <use xlink:href="#a"/>
            </mask>
            <path fill="#B5BFC9" d="M29.047 23.871h1.247l-.754 10.7H.34v-1.167h.727c1.75 0 2.882-.228 3.394-.683a3.08 3.08 0 0 0 .976-1.738c.138-.7.208-2.489.208-5.363V8.756c0-2.619-.075-4.343-.223-5.172-.148-.828-.484-1.408-1.013-1.737-.53-.33-1.643-.494-3.342-.494V.186h25.196l.833 8.57h-1.224c-.554-2.398-1.234-4.102-2.039-5.108-.807-1.005-1.766-1.64-2.874-1.902-1.11-.262-2.895-.393-5.356-.393h-4.888V15.78h3.744c1.714 0 2.917-.141 3.6-.43.685-.286 1.136-.722 1.354-1.306.215-.583.323-1.72.323-3.41h1.223V22.4h-1.223c0-1.91-.164-3.19-.494-3.842-.33-.65-.81-1.072-1.444-1.267-.63-.194-1.701-.292-3.21-.292h-3.873v8.14c0 4.075.266 6.47.805 7.188.537.72 1.986 1.078 4.342 1.078h2.628c1.854 0 3.379-.231 4.576-.696 1.195-.465 2.334-1.42 3.42-2.866 1.082-1.445 1.936-3.436 2.56-5.971M81.985 35.408h-1.17l-10.74-28.35-9.384 28.35h-1.249L50.94 8.63c-.763-2.435-1.315-4.053-1.651-4.855-.339-.803-.782-1.396-1.326-1.776-.548-.38-1.453-.596-2.718-.646V.186H58.48v1.167c-1.595.101-2.617.325-3.068.672-.452.347-.676.832-.676 1.458 0 .557.365 1.986 1.092 4.286L62.12 27.8 71.325.186h1.457L83.132 27.8l5.381-18.256c.71-2.47 1.066-4.083 1.066-4.843 0-2.232-1.223-3.348-3.667-3.348V.186h9.622v1.167c-1.422.101-2.479.613-3.173 1.534-.693.922-1.57 3.132-2.627 6.63l-7.75 25.891" mask="url(#b)"/>
        </g>
        <path fill="#B5BFC9" d="M206.003 23.89h1.246l-.752 10.7h-29.2v-1.168h.726c1.75 0 2.882-.228 3.394-.683a3.08 3.08 0 0 0 .976-1.737c.138-.702.208-2.49.208-5.364V8.775c0-2.62-.075-4.344-.223-5.172-.148-.829-.484-1.408-1.013-1.738-.53-.329-1.644-.494-3.342-.494V.205h25.196l.833 8.57h-1.224c-.553-2.399-1.234-4.103-2.039-5.109-.806-1.005-1.766-1.64-2.874-1.902-1.11-.262-2.895-.393-5.356-.393h-4.888v14.427h3.744c1.715 0 2.917-.141 3.6-.43.685-.286 1.136-.722 1.354-1.306.215-.583.323-1.72.323-3.41h1.223v11.765h-1.223c0-1.91-.163-3.19-.494-3.841-.329-.65-.81-1.073-1.442-1.268-.632-.194-1.703-.292-3.212-.292h-3.873v8.14c0 4.075.267 6.471.804 7.189.54.718 1.987 1.077 4.344 1.077h2.627c1.854 0 3.379-.231 4.577-.696 1.194-.465 2.333-1.42 3.419-2.866 1.083-1.444 1.936-3.436 2.56-5.97M239.286 23.89h1.246l-.752 10.7h-29.2v-1.168h.728c1.748 0 2.88-.228 3.393-.683.51-.457.834-1.036.975-1.737.137-.702.208-2.49.208-5.364V8.775c0-2.62-.074-4.344-.222-5.172-.147-.829-.484-1.408-1.013-1.738-.531-.329-1.643-.494-3.341-.494V.205h25.195l.833 8.57h-1.224c-.554-2.399-1.234-4.103-2.039-5.109-.807-1.005-1.766-1.64-2.874-1.902-1.109-.262-2.895-.393-5.356-.393h-4.888v14.427h3.744c1.714 0 2.917-.141 3.6-.43.685-.286 1.136-.722 1.354-1.306.214-.583.322-1.72.322-3.41h1.224v11.765h-1.224c0-1.91-.163-3.19-.493-3.841-.33-.65-.81-1.073-1.443-1.268-.631-.194-1.703-.292-3.211-.292h-3.873v8.14c0 4.075.266 6.471.805 7.189.537.718 1.984 1.077 4.342 1.077h2.626c1.856 0 3.38-.231 4.578-.696 1.196-.465 2.334-1.42 3.419-2.866 1.083-1.444 1.936-3.436 2.56-5.97M254.342 17.701l10.765-9.459c2.495-2.18 3.744-3.735 3.744-4.665 0-1.402-1.25-2.138-3.744-2.206V.205h13.287V1.37c-1.093.016-2.19.245-3.289.684a12.51 12.51 0 0 0-3.031 1.725c-.919.71-2.624 2.206-5.122 4.488l-6.422 5.781 13.21 13.01c3.016 2.991 5.035 4.8 6.057 5.425 1.025.627 2.35.938 3.978.938v1.168h-18.303v-1.168h.702c1.976 0 3.206-.16 3.69-.48.486-.322.73-.719.73-1.192 0-.71-1.26-2.291-3.77-4.743l-9.959-9.788-2.523 2.157v6.262c0 2.706.07 4.475.208 5.313.138.837.488 1.457 1.052 1.863.564.405 1.642.608 3.237.608h.678v1.168H243.68v-1.168h1.093c1.508 0 2.552-.185 3.131-.557.584-.372.955-.951 1.121-1.737.163-.785.246-2.616.246-5.49V8.775c0-2.839-.091-4.648-.274-5.426-.18-.778-.54-1.3-1.078-1.572-.538-.27-1.794-.406-3.77-.406V.205h15.602V1.37h-.65c-1.736 0-2.87.14-3.409.418-.537.28-.895.8-1.077 1.56-.182.761-.273 2.57-.273 5.426V17.7"/>
    </g>
</svg>
