<svg width="77" height="25" viewBox="0 0 77 25" fill="none" xmlns="http://www.w3.org/2000/svg">
<path d="M13.704 4.776L5.592 24.216H2.76L5.448 17.784L0.24 4.776H3.288L7.008 14.856L10.872 4.776H13.704ZM27.8888 11.064C27.8888 11.56 27.8568 12.008 27.7928 12.408H17.6888C17.7688 13.464 18.1608 14.312 18.8648 14.952C19.5688 15.592 20.4328 15.912 21.4568 15.912C22.9288 15.912 23.9688 15.296 24.5768 14.064H27.5287C27.1288 15.28 26.4008 16.28 25.3448 17.064C24.3048 17.832 23.0088 18.216 21.4568 18.216C20.1928 18.216 19.0568 17.936 18.0488 17.376C17.0568 16.8 16.2728 16 15.6968 14.976C15.1368 13.936 14.8568 12.736 14.8568 11.376C14.8568 10.016 15.1288 8.824 15.6728 7.8C16.2328 6.76 17.0088 5.96 18.0008 5.4C19.0088 4.84 20.1608 4.56 21.4568 4.56C22.7048 4.56 23.8168 4.832 24.7928 5.376C25.7688 5.92 26.5288 6.688 27.0728 7.68C27.6168 8.656 27.8888 9.784 27.8888 11.064ZM25.0328 10.2C25.0168 9.192 24.6568 8.384 23.9528 7.776C23.2488 7.168 22.3768 6.864 21.3368 6.864C20.3928 6.864 19.5848 7.168 18.9128 7.776C18.2408 8.368 17.8408 9.176 17.7128 10.2H25.0328ZM33.3173 0.24V18H30.5813V0.24H33.3173ZM39.6454 0.24V18H36.9094V0.24H39.6454ZM48.9735 18.216C47.7255 18.216 46.5975 17.936 45.5895 17.376C44.5815 16.8 43.7895 16 43.2135 14.976C42.6375 13.936 42.3495 12.736 42.3495 11.376C42.3495 10.032 42.6455 8.84 43.2375 7.8C43.8295 6.76 44.6375 5.96 45.6615 5.4C46.6855 4.84 47.8295 4.56 49.0935 4.56C50.3575 4.56 51.5015 4.84 52.5255 5.4C53.5495 5.96 54.3575 6.76 54.9495 7.8C55.5415 8.84 55.8375 10.032 55.8375 11.376C55.8375 12.72 55.5335 13.912 54.9255 14.952C54.3175 15.992 53.4855 16.8 52.4295 17.376C51.3895 17.936 50.2375 18.216 48.9735 18.216ZM48.9735 15.84C49.6775 15.84 50.3335 15.672 50.9415 15.336C51.5655 15 52.0695 14.496 52.4535 13.824C52.8375 13.152 53.0295 12.336 53.0295 11.376C53.0295 10.416 52.8455 9.608 52.4775 8.952C52.1095 8.28 51.6215 7.776 51.0135 7.44C50.4055 7.104 49.7495 6.936 49.0455 6.936C48.3415 6.936 47.6855 7.104 47.0775 7.44C46.4855 7.776 46.0135 8.28 45.6615 8.952C45.3095 9.608 45.1335 10.416 45.1335 11.376C45.1335 12.8 45.4935 13.904 46.2135 14.688C46.9495 15.456 47.8695 15.84 48.9735 15.84ZM76.3022 4.776L72.1982 18H69.3182L66.6542 8.232L63.9902 18H61.1102L56.9822 4.776H59.7662L62.5262 15.408L65.3342 4.776H68.1902L70.8782 15.36L73.6142 4.776H76.3022Z" fill="#171717"/>
</svg>
