<svg width="136" height="44" viewBox="0 0 136 44" fill="none" xmlns="http://www.w3.org/2000/svg">
<circle cx="22" cy="22" r="21" stroke="#171717" stroke-width="2"/>
<path fill-rule="evenodd" clip-rule="evenodd" d="M9.98389 26.0745L11.135 27.8327C18.0839 23.2908 25.242 23.3117 33.0281 27.8536L34.0955 26.0536C25.6606 21.1141 17.5606 21.1141 9.98389 26.0745Z" fill="#171717"/>
<path fill-rule="evenodd" clip-rule="evenodd" d="M22.0606 31.3899C21.2443 31.3899 20.5955 30.7201 20.5955 29.9248C20.5955 29.1294 21.2652 28.4597 22.0606 28.4597C22.8559 28.4597 23.5257 29.1294 23.5257 29.9248C23.5257 30.7201 22.8769 31.3899 22.0606 31.3899ZM22.0606 26.3457C20.0931 26.3457 18.5024 27.9364 18.5024 29.9038C18.5024 31.8713 20.0931 33.462 22.0606 33.462C24.028 33.462 25.6187 31.8713 25.6187 29.9038C25.6187 27.9364 24.028 26.3457 22.0606 26.3457Z" fill="#171717"/>
<path fill-rule="evenodd" clip-rule="evenodd" d="M20.5742 19.1256L22.0394 20.5907L31.144 11.507L29.658 10.0209L22.0812 17.6186L14.4626 10L12.9766 11.486L20.5952 19.0837L20.5742 19.1256Z" fill="#171717"/>
<path d="M72.704 16.776L64.592 36.216H61.76L64.448 29.784L59.24 16.776H62.288L66.008 26.856L69.872 16.776H72.704ZM86.8888 23.064C86.8888 23.56 86.8568 24.008 86.7928 24.408H76.6888C76.7688 25.464 77.1608 26.312 77.8648 26.952C78.5688 27.592 79.4328 27.912 80.4568 27.912C81.9288 27.912 82.9688 27.296 83.5768 26.064H86.5287C86.1288 27.28 85.4008 28.28 84.3448 29.064C83.3048 29.832 82.0088 30.216 80.4568 30.216C79.1928 30.216 78.0568 29.936 77.0488 29.376C76.0568 28.8 75.2728 28 74.6968 26.976C74.1368 25.936 73.8568 24.736 73.8568 23.376C73.8568 22.016 74.1288 20.824 74.6728 19.8C75.2328 18.76 76.0088 17.96 77.0008 17.4C78.0088 16.84 79.1608 16.56 80.4568 16.56C81.7048 16.56 82.8168 16.832 83.7928 17.376C84.7688 17.92 85.5288 18.688 86.0728 19.68C86.6168 20.656 86.8888 21.784 86.8888 23.064ZM84.0328 22.2C84.0168 21.192 83.6568 20.384 82.9528 19.776C82.2488 19.168 81.3768 18.864 80.3368 18.864C79.3928 18.864 78.5848 19.168 77.9128 19.776C77.2408 20.368 76.8408 21.176 76.7128 22.2H84.0328ZM92.3173 12.24V30H89.5813V12.24H92.3173ZM98.6454 12.24V30H95.9094V12.24H98.6454ZM107.974 30.216C106.726 30.216 105.598 29.936 104.59 29.376C103.582 28.8 102.79 28 102.214 26.976C101.638 25.936 101.35 24.736 101.35 23.376C101.35 22.032 101.646 20.84 102.238 19.8C102.83 18.76 103.638 17.96 104.662 17.4C105.686 16.84 106.83 16.56 108.094 16.56C109.358 16.56 110.502 16.84 111.526 17.4C112.55 17.96 113.358 18.76 113.95 19.8C114.542 20.84 114.838 22.032 114.838 23.376C114.838 24.72 114.534 25.912 113.926 26.952C113.318 27.992 112.486 28.8 111.43 29.376C110.39 29.936 109.238 30.216 107.974 30.216ZM107.974 27.84C108.678 27.84 109.334 27.672 109.942 27.336C110.566 27 111.07 26.496 111.454 25.824C111.838 25.152 112.03 24.336 112.03 23.376C112.03 22.416 111.846 21.608 111.478 20.952C111.11 20.28 110.622 19.776 110.014 19.44C109.406 19.104 108.75 18.936 108.046 18.936C107.342 18.936 106.686 19.104 106.078 19.44C105.486 19.776 105.014 20.28 104.662 20.952C104.31 21.608 104.134 22.416 104.134 23.376C104.134 24.8 104.494 25.904 105.214 26.688C105.95 27.456 106.87 27.84 107.974 27.84ZM135.302 16.776L131.198 30H128.318L125.654 20.232L122.99 30H120.11L115.982 16.776H118.766L121.526 27.408L124.334 16.776H127.19L129.878 27.36L132.614 16.776H135.302Z" fill="#171717"/>
</svg>
