<svg width="44" height="44" viewBox="0 0 44 44" fill="none" xmlns="http://www.w3.org/2000/svg">
<circle cx="22" cy="22" r="21" stroke="white" stroke-width="2"/>
<path fill-rule="evenodd" clip-rule="evenodd" d="M9.98389 26.0745L11.135 27.8327C18.0839 23.2908 25.242 23.3117 33.0281 27.8536L34.0955 26.0536C25.6606 21.1141 17.5606 21.1141 9.98389 26.0745Z" fill="white"/>
<path fill-rule="evenodd" clip-rule="evenodd" d="M22.0606 31.3899C21.2443 31.3899 20.5955 30.7201 20.5955 29.9248C20.5955 29.1294 21.2652 28.4597 22.0606 28.4597C22.8559 28.4597 23.5257 29.1294 23.5257 29.9248C23.5257 30.7201 22.8769 31.3899 22.0606 31.3899ZM22.0606 26.3457C20.0931 26.3457 18.5024 27.9364 18.5024 29.9038C18.5024 31.8713 20.0931 33.462 22.0606 33.462C24.028 33.462 25.6187 31.8713 25.6187 29.9038C25.6187 27.9364 24.028 26.3457 22.0606 26.3457Z" fill="white"/>
<path fill-rule="evenodd" clip-rule="evenodd" d="M20.5742 19.1256L22.0394 20.5907L31.144 11.507L29.658 10.0209L22.0812 17.6186L14.4626 10L12.9766 11.486L20.5952 19.0837L20.5742 19.1256Z" fill="white"/>
</svg>
