<svg width="136" height="36" viewBox="0 0 136 36" fill="none" xmlns="http://www.w3.org/2000/svg">
<path d="M73.1571 12.776L65.0451 32.216H62.2131L64.9011 25.784L59.6931 12.776H62.7411L66.4611 22.856L70.3251 12.776H73.1571ZM87.3419 19.064C87.3419 19.56 87.3099 20.008 87.2459 20.408H77.1419C77.2219 21.464 77.6139 22.312 78.3179 22.952C79.0219 23.592 79.8859 23.912 80.9099 23.912C82.3819 23.912 83.4219 23.296 84.0299 22.064H86.9819C86.5819 23.28 85.8539 24.28 84.7979 25.064C83.7579 25.832 82.4619 26.216 80.9099 26.216C79.6459 26.216 78.5099 25.936 77.5019 25.376C76.5099 24.8 75.7259 24 75.1499 22.976C74.5899 21.936 74.3099 20.736 74.3099 19.376C74.3099 18.016 74.5819 16.824 75.1259 15.8C75.6859 14.76 76.4619 13.96 77.4539 13.4C78.4619 12.84 79.6139 12.56 80.9099 12.56C82.1579 12.56 83.2699 12.832 84.2459 13.376C85.2219 13.92 85.9819 14.688 86.5259 15.68C87.0699 16.656 87.3419 17.784 87.3419 19.064ZM84.4859 18.2C84.4699 17.192 84.1099 16.384 83.4059 15.776C82.7019 15.168 81.8299 14.864 80.7899 14.864C79.8459 14.864 79.0379 15.168 78.3659 15.776C77.6939 16.368 77.2939 17.176 77.1659 18.2H84.4859ZM92.7704 8.24V26H90.0344V8.24H92.7704ZM99.0985 8.24V26H96.3625V8.24H99.0985ZM108.427 26.216C107.179 26.216 106.051 25.936 105.043 25.376C104.035 24.8 103.243 24 102.667 22.976C102.091 21.936 101.803 20.736 101.803 19.376C101.803 18.032 102.099 16.84 102.691 15.8C103.283 14.76 104.091 13.96 105.115 13.4C106.139 12.84 107.283 12.56 108.547 12.56C109.811 12.56 110.955 12.84 111.979 13.4C113.003 13.96 113.811 14.76 114.403 15.8C114.995 16.84 115.291 18.032 115.291 19.376C115.291 20.72 114.987 21.912 114.379 22.952C113.771 23.992 112.939 24.8 111.883 25.376C110.843 25.936 109.691 26.216 108.427 26.216ZM108.427 23.84C109.131 23.84 109.787 23.672 110.395 23.336C111.019 23 111.523 22.496 111.907 21.824C112.291 21.152 112.483 20.336 112.483 19.376C112.483 18.416 112.299 17.608 111.931 16.952C111.563 16.28 111.075 15.776 110.467 15.44C109.859 15.104 109.203 14.936 108.499 14.936C107.795 14.936 107.139 15.104 106.531 15.44C105.939 15.776 105.467 16.28 105.115 16.952C104.763 17.608 104.587 18.416 104.587 19.376C104.587 20.8 104.947 21.904 105.667 22.688C106.403 23.456 107.323 23.84 108.427 23.84ZM135.755 12.776L131.651 26H128.771L126.107 16.232L123.443 26H120.563L116.435 12.776H119.219L121.979 23.408L124.787 12.776H127.643L130.331 23.36L133.067 12.776H135.755Z" fill="white"/>
</svg>
