<svg width="48" height="49" viewBox="0 0 48 49" fill="none" xmlns="http://www.w3.org/2000/svg"><path d="M28.313 18.035h6.234v1.513h-6.234v-1.512Zm-6.247 5.985c1.378-.66 2.1-1.663 2.1-3.213 0-3.065-2.282-3.809-4.916-3.809H12v15.387h7.453c2.794 0 5.416-1.343 5.416-4.468 0-1.932-.913-3.36-2.803-3.897Zm-6.685-4.397h3.172c1.222 0 2.319.34 2.319 1.76 0 1.306-.853 1.83-2.063 1.83h-3.428v-3.59Zm3.61 10.15h-3.613v-4.238h3.684c1.488 0 2.429.622 2.429 2.197 0 1.55-1.122 2.041-2.5 2.041Zm17.993-2.797c0-3.297-1.928-6.044-5.415-6.044-3.39 0-5.697 2.553-5.697 5.9 0 3.47 2.184 5.85 5.697 5.85 2.66 0 4.381-1.197 5.21-3.75H34.08c-.294.954-1.487 1.454-2.415 1.454-1.794 0-2.732-1.05-2.732-2.835h8.028c.01-.184.022-.378.022-.575Zm-8.05-1.356c.097-1.466 1.075-2.381 2.538-2.381 1.537 0 2.306.903 2.44 2.38h-4.978Z" fill="#fff"/><circle opacity=".3" cx="24" cy="24.998" r="23.5" stroke="#fff"/></svg>