<svg width="40" height="40" viewBox="0 0 40 40" fill="none" xmlns="http://www.w3.org/2000/svg"><path fill-rule="evenodd" clip-rule="evenodd" d="M12.555 7.463c-.57.564-.868 1.165-.899 1.72a1.701 1.701 0 0 1-.479 1.074c-.254.265-.617.48-1.046.525-.512.055-1.069.355-1.597.912-.525.552-.97 1.305-1.253 2.13-.545 1.584-.406 3.079.381 3.925h2.237a4.002 4.002 0 0 1 3.956 3.401 2.5 2.5 0 1 1-1.825.045A2.202 2.202 0 0 0 9.9 19.55H7.438c-.788.251-1.335.825-1.67 1.636-.36.869-.457 1.98-.29 3.103.166 1.12.584 2.17 1.163 2.914.574.738 1.251 1.12 1.984 1.116.842-.005 1.61.694 1.622 1.58.022 1.672 1.513 3.583 3.493 4.364.956.377 1.95.455 2.856.152.875-.293 1.766-.972 2.503-2.289V15.065h-2.164a2.501 2.501 0 1 1-.262-1.8H19.1V7.207c-.939-1.318-2.633-1.591-4.339-1.046-.858.275-1.64.742-2.206 1.301Zm4.612 28.658c1.056-.353 2.023-1.04 2.833-2.094.81 1.053 1.777 1.741 2.833 2.094 1.385.462 2.82.315 4.087-.185 2.404-.948 4.491-3.302 4.625-5.822 1.26-.05 2.296-.701 3.058-1.591.791-.924 1.326-2.142 1.594-3.394.269-1.255.283-2.606-.032-3.82-.306-1.179-.94-2.285-2.014-2.983 1.03-1.671.8-3.905.053-5.652-.742-1.737-2.19-3.432-4.068-3.673-.086-1.095-.662-2.063-1.425-2.818-.786-.776-1.821-1.382-2.924-1.735-1.881-.602-4.2-.514-5.787 1.048-1.587-1.562-3.905-1.65-5.787-1.048-1.103.353-2.138.959-2.924 1.735-.763.755-1.34 1.723-1.425 2.818-1.034.133-1.933.714-2.636 1.453-.724.763-1.293 1.748-1.649 2.784-.55 1.603-.66 3.589.267 5.09-.81.528-1.382 1.3-1.741 2.17-.511 1.236-.609 2.69-.407 4.054.203 1.364.718 2.72 1.523 3.755.776.998 1.873 1.752 3.234 1.807.134 2.52 2.221 4.874 4.626 5.822 1.267.5 2.702.648 4.086.185Zm6.236-1.707c-.875-.293-1.766-.972-2.503-2.289v-3.357H23a3.9 3.9 0 0 0 3.9-3.9v-3.535a2.501 2.501 0 1 0-1.8 0v3.535a2.1 2.1 0 0 1-2.1 2.1h-2.1V7.208c.939-1.318 2.633-1.591 4.339-1.046.858.275 1.64.742 2.206 1.301.57.564.868 1.165.899 1.72.024.434.225.809.479 1.074s.617.48 1.046.525c.954.101 2.03 1.078 2.68 2.6.641 1.5.67 3.084.035 4.056a1.69 1.69 0 0 0-.217 1.284c.086.39.319.816.745 1.077.63.385 1.077 1.062 1.31 1.962.235.901.235 1.966.015 2.99-.22 1.029-.646 1.953-1.201 2.601-.548.64-1.178.969-1.862.966-.841-.005-1.61.694-1.622 1.58-.022 1.672-1.513 3.583-3.493 4.364-.956.377-1.95.455-2.856.152ZM15.2 14.5a.7.7 0 1 1-1.4 0 .7.7 0 0 1 1.4 0ZM13 24.2a.7.7 0 1 0 0-1.4.7.7 0 0 0 0 1.4ZM26.7 19a.7.7 0 1 1-1.4 0 .7.7 0 0 1 1.4 0Z" fill="#161616"/></svg>