<svg width="40" height="40" viewBox="0 0 40 40" fill="none" xmlns="http://www.w3.org/2000/svg"><path fill-rule="evenodd" clip-rule="evenodd" d="M8.333 9.333A2.343 2.343 0 0 0 6 11.667v16.666a2.333 2.333 0 0 0 2.333 2.334h8.334a1 1 0 1 1 0 2H8.333A4.334 4.334 0 0 1 4 28.333V11.667a4.343 4.343 0 0 1 4.333-4.334h23.334A4.333 4.333 0 0 1 36 11.667v16.667a4.333 4.333 0 0 1-2.167 3.749 1 1 0 1 1-1-1.732A2.333 2.333 0 0 0 34 28.332V11.667a2.333 2.333 0 0 0-2.333-2.334H8.333ZM21 25a4 4 0 1 1 8 0 4 4 0 0 1-8 0Zm4-6a6 6 0 0 0-4.333 10.15v7.517a1 1 0 0 0 1.6.8L25 35.417l2.733 2.05a1 1 0 0 0 1.6-.8V29.15A6 6 0 0 0 25 19Zm2.333 11.53A5.981 5.981 0 0 1 25 31a5.98 5.98 0 0 1-2.334-.47v4.137l1.734-1.3a1 1 0 0 1 1.2 0l1.733 1.3v-4.138ZM10 14a1 1 0 1 0 0 2h20a1 1 0 1 0 0-2H10Zm-1 6a1 1 0 0 1 1-1h5a1 1 0 1 1 0 2h-5a1 1 0 0 1-1-1Zm1 4a1 1 0 1 0 0 2h3.333a1 1 0 1 0 0-2H10Z" fill="#161616"/></svg>