<svg width="166" height="85" viewBox="0 0 166 85" fill="none" xmlns="http://www.w3.org/2000/svg"><path d="m13.36 78.626 4.926 3.12c.63.4 1.411-.194 1.224-.929l-1.423-5.597a.855.855 0 0 1 .277-.867l4.417-3.676c.58-.483.28-1.447-.465-1.495l-5.768-.374a.822.822 0 0 1-.707-.523l-2.152-5.417a.812.812 0 0 0-1.519 0l-2.151 5.417a.822.822 0 0 1-.708.523l-5.768.374c-.745.049-1.045 1.012-.465 1.495l4.417 3.676a.855.855 0 0 1 .277.867l-1.32 5.191c-.224.882.714 1.594 1.47 1.115l4.577-2.9a.803.803 0 0 1 .861 0Zm35 0 4.926 3.12c.63.4 1.411-.194 1.224-.929l-1.423-5.597a.855.855 0 0 1 .277-.867l4.417-3.676c.58-.483.28-1.447-.465-1.495l-5.768-.374a.822.822 0 0 1-.708-.523l-2.15-5.417a.812.812 0 0 0-1.52 0l-2.151 5.417a.822.822 0 0 1-.708.523l-5.768.374c-.745.049-1.045 1.012-.465 1.495l4.417 3.676a.855.855 0 0 1 .277.867l-1.32 5.191c-.224.882.714 1.594 1.47 1.115l4.577-2.9a.803.803 0 0 1 .861 0Zm35 0 4.926 3.12c.63.4 1.411-.194 1.224-.929l-1.423-5.597a.855.855 0 0 1 .277-.867l4.417-3.676c.58-.483.28-1.447-.465-1.495l-5.768-.374a.822.822 0 0 1-.707-.523l-2.152-5.417a.812.812 0 0 0-1.519 0l-2.151 5.417a.822.822 0 0 1-.708.523l-5.768.374c-.745.049-1.045 1.012-.465 1.495l4.417 3.676a.855.855 0 0 1 .277.867l-1.32 5.191c-.224.882.714 1.594 1.47 1.115l4.577-2.9a.803.803 0 0 1 .862 0Zm35 0 4.926 3.12c.629.4 1.411-.194 1.224-.929l-1.423-5.597a.856.856 0 0 1 .277-.867l4.417-3.676c.58-.483.281-1.447-.465-1.495l-5.768-.374a.82.82 0 0 1-.708-.523l-2.151-5.417a.807.807 0 0 0-.759-.524.815.815 0 0 0-.76.524l-2.151 5.417a.821.821 0 0 1-.708.523l-5.768.374c-.745.049-1.045 1.012-.465 1.495l4.417 3.676a.855.855 0 0 1 .277.867l-1.32 5.191c-.224.882.714 1.594 1.47 1.115l4.577-2.9a.803.803 0 0 1 .861 0Zm35 0 4.926 3.12c.629.4 1.411-.194 1.224-.929l-1.423-5.597a.856.856 0 0 1 .277-.867l4.417-3.676c.58-.483.281-1.447-.465-1.495l-5.768-.374a.82.82 0 0 1-.708-.523l-2.151-5.417a.807.807 0 0 0-.759-.524.815.815 0 0 0-.76.524l-2.151 5.417a.821.821 0 0 1-.708.523l-5.768.374c-.745.049-1.045 1.012-.465 1.495l4.417 3.676a.855.855 0 0 1 .277.867l-1.32 5.191c-.224.882.714 1.594 1.47 1.115l4.577-2.9a.803.803 0 0 1 .861 0Z" fill="#161616"/><path d="M57.89 0h4.86v30h-4.86V0Zm21.767 20.493c0 4.648-3.802 5.07-5.07 5.07-2.958 0-3.38-2.746-3.38-4.225V9.718h-4.86v11.409c0 2.746.846 5.281 2.536 6.76C70.362 29.366 72.263 30 74.587 30c1.69 0 3.803-.423 5.07-1.69V30h4.86V9.718h-4.86v10.775ZM94.021 2.324h-4.86V9.72h-3.59v4.647h3.59V30h4.86V14.366h3.591V9.72h-3.591V2.324Zm18.802 21.549c-1.056.845-2.535 1.48-4.014 1.48-3.38 0-5.704-2.536-5.704-5.916 0-3.38 2.324-5.705 5.704-5.705 1.479 0 2.958.423 4.014 1.48l.634.633 3.38-3.169-.845-.634a10.83 10.83 0 0 0-7.183-2.746c-5.915 0-10.352 4.437-10.352 10.352S102.894 30 108.809 30a10.83 10.83 0 0 0 7.183-2.747l.845-.633-3.38-3.38-.634.633Zm21.126-12.465c-1.479-1.478-2.958-2.112-5.282-2.112-1.69 0-3.38.422-4.648 1.69V0h-4.859v30h4.859V18.803c0-4.648 3.169-5.07 4.437-5.07 2.958 0 2.746 2.746 2.746 4.225v11.83h4.859v-11.62c0-2.746-.633-5.28-2.112-6.76Z" fill="#17313B"/><path d="M108.595 23.028a3.38 3.38 0 1 0 0-6.76 3.38 3.38 0 0 0 0 6.76Z" fill="#EF4335"/><path d="M51.134 22.605c-1.69 1.69-4.226 2.747-6.972 2.747-5.282 0-9.084-4.225-9.084-9.93 0-5.704 3.802-9.929 9.295-9.929 2.535 0 5.07 1.056 6.972 2.958l.634.634 3.169-3.17-.634-.633c-2.746-2.747-6.338-4.226-10.14-4.226-8.03-.21-13.944 6.127-13.944 14.366C30.43 23.663 36.345 30 44.162 30c3.803 0 7.606-1.479 10.14-4.226l.635-.633-3.17-3.17-.633.634Z" fill="#17313B"/></svg>