<svg width="40" height="40" viewBox="0 0 40 40" fill="none" xmlns="http://www.w3.org/2000/svg"><path fill-rule="evenodd" clip-rule="evenodd" d="M27.18 11.25a7.246 7.246 0 0 0-5.262-5.991 7.247 7.247 0 0 0-9.098 5.991H6.25A2.25 2.25 0 0 0 4 13.5v20a2.25 2.25 0 0 0 2.25 2.25h27.5c.441 0 .852-.127 1.2-.347A2.245 2.245 0 0 0 36 33.5v-20a2.25 2.25 0 0 0-2.25-2.25h-6.57ZM20 7a5.25 5.25 0 0 0-5.152 4.25h10.304A5.25 5.25 0 0 0 20 7ZM6.25 13.25a.233.233 0 0 0-.14.045.247.247 0 0 0-.11.205v4h28v-4a.25.25 0 0 0-.25-.25H6.25ZM34 19.5H6v14l.004.047a.25.25 0 0 0 .246.203h27.5a.25.25 0 0 0 .25-.25v-14Z" fill="#161616"/></svg>