<svg width="48" height="49" viewBox="0 0 48 49" fill="none" xmlns="http://www.w3.org/2000/svg"><path d="M33.393 19.44a10.854 10.854 0 0 0-3.98-3.978c-1.675-.975-3.503-1.464-5.484-1.464-1.982 0-3.81.489-5.487 1.465a10.85 10.85 0 0 0-3.978 3.978C13.488 21.116 13 22.945 13 24.927c0 1.981.487 3.81 1.464 5.486a10.846 10.846 0 0 0 3.98 3.978c1.675.976 3.503 1.465 5.485 1.465 1.981 0 3.81-.489 5.486-1.465a10.853 10.853 0 0 0 3.979-3.978c.976-1.675 1.463-3.505 1.463-5.486 0-1.982-.487-3.811-1.464-5.486Zm-9.464-3.628c2.185 0 4.122.7 5.814 2.097-1.006 1.284-2.499 2.34-4.481 3.17-1.095-1.982-2.282-3.636-3.564-4.962a8.432 8.432 0 0 1 2.23-.305Zm-7.093 3.432a8.87 8.87 0 0 1 2.963-2.426c1.324 1.312 2.54 2.95 3.65 4.918-2.186.655-4.496.983-6.93.983-.626 0-1.1-.014-1.42-.044a9.344 9.344 0 0 1 1.737-3.431Zm-2.022 5.683c0-.06.003-.131.011-.219.008-.087.01-.16.01-.218.278.015.701.022 1.27.022 2.913 0 5.624-.402 8.13-1.203.204.408.416.867.634 1.377-1.443.32-2.923 1.1-4.439 2.34-1.515 1.238-2.621 2.542-3.32 3.912-1.53-1.735-2.296-3.738-2.296-6.011Zm9.115 9.114c-2.07 0-3.928-.641-5.575-1.922.657-1.297 1.665-2.538 3.028-3.717 1.362-1.18 2.714-1.916 4.055-2.207a32.176 32.176 0 0 1 1.705 7.234 8.924 8.924 0 0 1-3.213.612Zm7.737-4.327a9.125 9.125 0 0 1-2.82 2.864 31.457 31.457 0 0 0-1.506-6.646 39.155 39.155 0 0 1 2.732-.109c.873 0 1.842.037 2.906.11a8.85 8.85 0 0 1-1.312 3.78Zm-1.355-5.465c-1.268 0-2.44.052-3.519.153a29.521 29.521 0 0 0-.743-1.77c2.258-.99 3.86-2.193 4.807-3.607 1.312 1.546 2.027 3.308 2.142 5.29a54.642 54.642 0 0 0-2.687-.066Z" fill="#fff"/><circle opacity=".3" cx="24" cy="24.998" r="23.5" stroke="#fff"/></svg>