<svg width="71" height="69" viewBox="0 0 71 69" fill="none" xmlns="http://www.w3.org/2000/svg"><path d="m43.285 24.922-7.006 6.426-6.502-12.927 3.365-7.435c.875-1.51 2.24-1.492 3.093 0l7.05 13.936Z" fill="#ACACAC"/><path d="m29.777 18.42 6.501 12.928-26.184 24.01L29.777 18.42Z" fill="#6A6A6A"/><path d="M50.947 15.1c1.252-1.186 2.547-.78 2.877.9l6.816 39.038-22.592 13.369c-.788.431-2.888.617-2.888.617s-1.912-.225-2.64-.647l-22.426-13.02L50.947 15.1Z" fill="#9B9B9B"/><path d="M29.779 18.42 10.098 55.358l8.765-53.981c.324-1.682 1.295-1.844 2.161-.36L29.78 18.42Z" fill="#ACACAC"/></svg>