<svg width="24" height="24" viewBox="0 0 24 24" fill="none" xmlns="http://www.w3.org/2000/svg"><circle cx="12" cy="12" r="12" fill="#171717"/><path d="M15.75 12a3.75 3.75 0 0 1-7.5 0c0-.214.023-.422.061-.625H7v4.996c0 .348.281.629.629.629h8.743a.629.629 0 0 0 .628-.629v-4.996h-1.311c.038.203.061.411.061.625ZM12 14.5a2.5 2.5 0 1 0-.001-5 2.5 2.5 0 0 0 .001 5Zm3-5.125h1.499A.376.376 0 0 0 16.875 9V7.501a.376.376 0 0 0-.376-.376H15a.376.376 0 0 0-.376.376V9c.001.206.17.375.376.375Zm3.25 7.486c0 .764-.625 1.389-1.389 1.389H7.14a1.393 1.393 0 0 1-1.389-1.389V7.14c0-.764.625-1.389 1.389-1.389h9.722c.764 0 1.389.625 1.389 1.389v9.722Z" fill="#fff"/></svg>