<svg width="48" height="49" viewBox="0 0 48 49" fill="none" xmlns="http://www.w3.org/2000/svg"><path d="M23.933 19.323a5.595 5.595 0 0 0-5.604 5.604 5.595 5.595 0 0 0 5.604 5.604 5.595 5.595 0 0 0 5.605-5.604 5.595 5.595 0 0 0-5.605-5.604Zm0 9.247a3.65 3.65 0 0 1-3.643-3.643 3.647 3.647 0 0 1 3.643-3.643 3.647 3.647 0 0 1 3.644 3.643 3.65 3.65 0 0 1-3.644 3.643Zm7.14-9.476c0 .726-.584 1.307-1.306 1.307a1.307 1.307 0 1 1 1.307-1.307Zm3.712 1.326c-.082-1.75-.482-3.302-1.765-4.58-1.278-1.277-2.829-1.677-4.58-1.765-1.805-.103-7.213-.103-9.018 0-1.746.083-3.297.483-4.58 1.76-1.283 1.278-1.678 2.83-1.765 4.58-.103 1.805-.103 7.214 0 9.018.083 1.751.482 3.302 1.765 4.58s2.83 1.678 4.58 1.766c1.805.102 7.213.102 9.018 0 1.751-.083 3.302-.483 4.58-1.766 1.278-1.278 1.678-2.829 1.765-4.58.103-1.804.103-7.208 0-9.013Zm-2.33 10.95a3.689 3.689 0 0 1-2.079 2.077c-1.438.571-4.853.44-6.443.44-1.59 0-5.009.126-6.442-.44a3.689 3.689 0 0 1-2.078-2.077c-.57-1.44-.439-4.853-.439-6.443 0-1.59-.127-5.01.439-6.443a3.689 3.689 0 0 1 2.078-2.078c1.438-.57 4.852-.439 6.442-.439 1.59 0 5.01-.127 6.443.44a3.689 3.689 0 0 1 2.078 2.077c.57 1.439.44 4.853.44 6.443 0 1.59.13 5.009-.44 6.443Z" fill="#fff"/><circle opacity=".3" cx="24" cy="24.998" r="23.5" stroke="#fff"/></svg>