<svg width="40" height="40" viewBox="0 0 40 40" fill="none" xmlns="http://www.w3.org/2000/svg"><path fill-rule="evenodd" clip-rule="evenodd" d="M9.624 4.056a5.568 5.568 0 0 0-4.444 8.923 5.755 5.755 0 0 1 1.802-1.456 3.595 3.595 0 1 1 5.285 0 5.753 5.753 0 0 1 1.802 1.457 5.568 5.568 0 0 0-4.444-8.924Zm4.937 11.038a7.368 7.368 0 1 0-9.874-10.94 7.368 7.368 0 0 0 9.874 10.94Zm-1.802-.868a3.952 3.952 0 0 0-6.27 0c.892.61 1.972.966 3.135.966a5.542 5.542 0 0 0 3.135-.966ZM9.624 7.29a1.795 1.795 0 1 0 0 3.59 1.795 1.795 0 0 0 0-3.59Zm9.502 3.414H17.04v-1.8h2.086a.9.9 0 1 1 0 1.8Zm3.272-.9a.9.9 0 0 1 .9-.9h2.086c.821 0 1.607.163 2.324.46a.9.9 0 0 1-.69 1.663 4.257 4.257 0 0 0-1.634-.323h-2.086a.9.9 0 0 1-.9-.9Zm7.42 2.36a.9.9 0 0 1 1.176.487c.298.717.461 1.503.461 2.324 0 .822-.163 1.607-.46 2.325a.9.9 0 0 1-1.664-.69 4.257 4.257 0 0 0 .324-1.635 4.25 4.25 0 0 0-.324-1.635.9.9 0 0 1 .487-1.176Zm-1.623 7.246a.9.9 0 0 1-.487 1.176 6.057 6.057 0 0 1-2.324.46h-2.909a.9.9 0 1 1 0-1.8h2.909c.58 0 1.132-.115 1.635-.323a.9.9 0 0 1 1.176.487Zm-16.782.3a6.088 6.088 0 0 1 2.337-.463h2.909a.9.9 0 0 1 0 1.8H13.75c-.585 0-1.141.116-1.647.326a.9.9 0 0 1-.69-1.663Zm-2.128 2.818a.9.9 0 0 1 .487 1.176 4.289 4.289 0 0 0-.326 1.647c0 .585.116 1.141.326 1.648a.9.9 0 0 1-1.663.69 6.089 6.089 0 0 1-.463-2.338c0-.826.164-1.616.463-2.337a.9.9 0 0 1 1.176-.486Zm1.642 7.288a.9.9 0 0 1 1.176-.487 4.29 4.29 0 0 0 1.647.326h2.313a.9.9 0 0 1 0 1.8H13.75a6.088 6.088 0 0 1-2.337-.463.9.9 0 0 1-.486-1.176Zm8.862.74a.9.9 0 0 1 .9-.9h2.313v1.8h-2.313a.9.9 0 0 1-.9-.9Zm10.587-5.748a5.568 5.568 0 1 0 0 11.136 5.568 5.568 0 0 0 0-11.136Zm-7.368 5.568a7.368 7.368 0 1 1 14.736 0 7.368 7.368 0 0 1-14.736 0Zm10.984-2.239a.9.9 0 0 1-.03 1.273l-3.953 3.773a.9.9 0 0 1-1.243 0l-1.976-1.887a.9.9 0 0 1 1.243-1.302l1.355 1.294 3.331-3.18a.9.9 0 0 1 1.273.03Z" fill="#161616"/></svg>