<svg width="40" height="40" viewBox="0 0 40 40" fill="none" xmlns="http://www.w3.org/2000/svg"><path d="m31.788 29.29-6.76-13.208V5.875h.918a.938.938 0 0 0 0-1.875H14.053a.938.938 0 0 0 0 1.875h.92v10.207L8.211 29.289a4.578 4.578 0 0 0 .17 4.506A4.578 4.578 0 0 0 12.316 36h15.368a4.578 4.578 0 0 0 3.933-2.205 4.578 4.578 0 0 0 .17-4.506ZM16.744 16.734a.938.938 0 0 0 .103-.427V5.875h6.305v10.433c0 .148.035.294.103.427l2.609 5.096H14.136l2.608-5.096Zm10.94 17.39H12.315c-.96 0-1.832-.49-2.333-1.308a2.725 2.725 0 0 1-.243-2.347c.04-.11 3.437-6.764 3.437-6.764h13.647s3.349 6.545 3.372 6.6c.142.326.217.67.226 1.015a2.725 2.725 0 0 1-.404 1.496 2.716 2.716 0 0 1-2.333 1.308Z" fill="#161616"/></svg>