<svg width="48" height="49" viewBox="0 0 48 49" fill="none" xmlns="http://www.w3.org/2000/svg"><path fill-rule="evenodd" clip-rule="evenodd" d="M20.327 17.161a2.163 2.163 0 1 1-4.327 0 2.163 2.163 0 0 1 4.327 0Zm2.043 15.805V20.964h3.577v1.642h.05c.498-.943 1.714-1.938 3.528-1.938 3.779 0 4.475 2.484 4.475 5.718v6.581h-3.729V27.13c0-1.391-.023-3.182-1.938-3.182-1.942 0-2.237 1.517-2.237 3.083v5.935H22.37Zm-2.34-12.002h-3.733v12.002h3.732V20.964Z" fill="#fff"/><circle opacity=".3" cx="24" cy="24.998" r="23.5" stroke="#fff"/></svg>