<svg width="48" height="49" viewBox="0 0 48 49" fill="none" xmlns="http://www.w3.org/2000/svg"><path d="M31.563 19.556 33 18.176v-.303h-4.976l-3.546 8.869-4.034-8.869h-5.217v.302l1.678 2.03c.165.15.249.37.228.59v7.976a.906.906 0 0 1-.242.79L15 31.865v.298h5.358v-.302l-1.89-2.297a.936.936 0 0 1-.26-.79v-6.9l4.705 10.294h.546l4.045-10.294v8.2c0 .216 0 .26-.14.404l-1.456 1.413v.302h7.06v-.302l-1.405-1.38a.424.424 0 0 1-.16-.404V19.96a.425.425 0 0 1 .16-.403Z" fill="#fff"/><circle opacity=".3" cx="24" cy="24.998" r="23.5" stroke="#fff"/></svg>