<svg width="40" height="40" viewBox="0 0 40 40" fill="none" xmlns="http://www.w3.org/2000/svg"><path d="M20 4.063A15.942 15.942 0 0 0 6.088 27.78l-1.371 4.798a2.187 2.187 0 0 0 2.704 2.704l4.799-1.37A15.938 15.938 0 1 0 20 4.062Zm0 30a14.044 14.044 0 0 1-7.177-1.967.937.937 0 0 0-.737-.096l-5.18 1.48a.313.313 0 0 1-.386-.386L8 27.914a.937.937 0 0 0-.096-.737A14.065 14.065 0 1 1 20 34.063Zm-5.938-14.064a1.562 1.562 0 1 1-3.124 0 1.562 1.562 0 0 1 3.124 0Zm7.5 0a1.562 1.562 0 1 1-3.124 0 1.562 1.562 0 0 1 3.125 0Zm7.5 0a1.563 1.563 0 1 1-3.125 0 1.563 1.563 0 0 1 3.125 0Z" fill="#161616"/></svg>