<svg width="321" height="300" fill="none" xmlns="http://www.w3.org/2000/svg"><path d="m145.9 235.7-33-6.5a1 1 0 0 1-.8-.6l-23-47.3a1 1 0 0 1 .2-1.2l28.4-30.8c.2-.2.3-.5.2-.8l-.3-2.8a1 1 0 0 0-.7-.8h-.1a1 1 0 0 0-.5-.1l-1.9.3h-.1l-1.2.4h-.2l-1 .7a1 1 0 0 1-.5.2h-.7a1 1 0 0 1-.7-.3 1 1 0 0 0-.3-.2l-15.8-6.1a1 1 0 0 0-.3-.1h-1.8a1 1 0 0 1-.5-.2l-.7-.4a1 1 0 0 0-.9-.2l-.8.3-.2.1-15 9.2-.3.2c-.6 0-1 .6-.7 1.1l.3.4.1.5.5 17.8v.2l-.3 2.4c-.1.5.2 1 .7 1l1 .4c.7.2 1 .9.7 1.4l-1.7 3-.9 1.6-.3.3-1 .6a1 1 0 0 1-.5.2l-17.9 1.3-3 .4a1 1 0 0 0-.3.1l-1 .6a1 1 0 0 0-.6.9v.7l1.3 14.8-.1 15.7v2.8l.3.4c.1.3.3.5.6.6l.7.2h.2l19.5 1.7h.3l1 .5c.3.1.4.3.6.5l1.2 2.6 1 1.5a.5.5 0 0 1-.1.6l-.5.5-.2.2-1 .6v.1l-.6.6a1 1 0 0 0-.2.4l-.2.7v20.6l.3.5c0 .2.1.3.3.4l.5.4.1.1 15.9 9h.1l1.2.5H93l1.1-.5 13-5.3 3-1.2h.2l1.2-.3h.3l1.8.3h.2l7.9 2.6 7.7 2 9.4 1.6 2.3.3 1 .3c.3 0 .5.2.6.5l.3.4v.2l2.7 10c.1.3.2.5.4.6l2.6 2 .6.3h24l1.5-.8c.2 0 .4-.3.5-.5l2.3-6.2 1.5-5.6c0-.3.3-.6.6-.7l.7-.3h.2l9-1.6 11.6-2.6 7.2-2.5h.2l1.6-.3h.4l1.1.2.2.1 15.4 6.5h.4l4.4.2.5-.1 15.4-9 .3-.1 1-1.2.3-.6.1-6-.3-14.3c0-.2 0-.5-.2-.6l-.7-.8v-.1l-1.2-1-.1-.1-.3-.4a1 1 0 0 1-.2-1l1.7-3.7.3-.3.5-.5.5-.2 16.2-1.4 5-.7c.5 0 .8-.4 1-.8l.2-2.3v-.2l-.4-15.1.9-13.8v-.3l-.7-3.1a1 1 0 0 0-1-.8l-21.2-1.7a1 1 0 0 1-.7-.3l-1.3-1.3a1 1 0 0 1-.3-.5l-1-4a1 1 0 0 1 .3-1l.4-.4.2-.2 1.7-2c.2-.3.3-.5.2-.8l-2.2-17.9a1 1 0 0 0-1.6-.7l-13.2 9.1a1 1 0 0 0-.4 1.3l10.7 19.7v.4l2.3 16.4v.6l-4.8 8-8 11.1a1 1 0 0 0 0 1.3l9.4 9.1a1 1 0 0 1-.3 1.7l-12.5 4.8a1 1 0 0 1-.7 0l-20.3-7.3a1 1 0 0 0-.6 0l-30.2 7.3a1 1 0 0 0-.7.7l-3.9 15a1 1 0 0 1-1 .7l-20-.8a1 1 0 0 1-1-.7l-3.4-12.5a1 1 0 0 0-.8-.7Z" fill="#fff"/><mask id="a" maskUnits="userSpaceOnUse" x="47.5" y="137.7" width="227" height="138" fill="#000"><path fill="#fff" d="M47.5 137.7h227v138h-227z"/><path d="M85.8 219.3c1.2-1 1.3-2.5 0-3.6-5.2-4.8-9-10-11.1-15.5-.6-1.3-2.2-2-3.6-2v-.1l-19.4-1.7c-.5 0-2-.5-2-1l-.2-12.3s-.1-.7 2-1l19.4-1.7c1.8-.2 3.2-1 3.6-2.2a41 41 0 0 1 11-15.4c1.3-1.1 1.2-2.7 0-3.7l-11.6-9h-.1l-.2-.4.5-.5 15-8.8c1-.5 2.5-.5 3.6 0l16 6.4a6 6 0 0 0 4.6 0c2.3-.8 4.8-1.5 7.3-2.2 3 5.5 5.3 11.3 7 17.1-1.1 1.1-2.2 2.2-3 3.4-4 1.8-8.7 5.2-11.3 7.9-5 4.8-7.7 10.4-7.7 16.1 0 29 60.4 42.3 94 22.7 6-3.4 10.3-7.5 13-12 3.6-6 3.5-12.9 2-16.2-.4-4-6.8-12.9-17.4-18.1a22 22 0 0 0-3.7-4.1 85 85 0 0 1 6.9-16.8l6.8 2.2c1.6.6 3.6.6 5.1 0l15.4-6.5a5 5 0 0 1 3.6 0l15.3 8.7.5.6s0 .3-.2.4l-11.4 9.1c-1.2 1-1.5 2.5-.2 3.7a42 42 0 0 1 11.3 15.5c.6 1.3 2 1.9 3.6 2l19.3 1.8c.7 0 1.9.5 2 1l.1 12.2c0 .1-.1.3-.4.5-.3.2-.9.4-1.6.5l-19.3 1.8c-1.8.2-3.2 1-3.6 2.2a41 41 0 0 1-11 15.4c-1.2 1-1.3 2.5 0 3.7l11.6 9c.6.3.3.6-.2.9l-15 8.7c-.4.3-2.4.7-3.6.2l-16-6.6s-4-.2-4.5 0c-8.7 3-19 5.4-27.4 6.5-1.4.2-3 .8-3.4 2.2l-3 11c-.1.7-1.6 1-2.4 1l-21.5.1c-.8 0-2.3-.4-2.4-1l-3.3-11c-.4-1.5-2-2.1-3.5-2.4a137 137 0 0 1-27.2-6.4 7 7 0 0 0-5 .1l-15.4 6.5c-1 .4-2.4.5-3.5-.1-14.3-8.2-15.9-8.7-15.9-9.2 0-.4.2-.4 11.7-9.6Z"/></mask><path d="M85.8 219.3c1.2-1 1.3-2.5 0-3.6-5.2-4.8-9-10-11.1-15.5-.6-1.3-2.2-2-3.6-2v-.1l-19.4-1.7c-.5 0-2-.5-2-1l-.2-12.3s-.1-.7 2-1l19.4-1.7c1.8-.2 3.2-1 3.6-2.2a41 41 0 0 1 11-15.4c1.3-1.1 1.2-2.7 0-3.7l-11.6-9h-.1l-.2-.4.5-.5 15-8.8c1-.5 2.5-.5 3.6 0l16 6.4a6 6 0 0 0 4.6 0c2.3-.8 4.8-1.5 7.3-2.2 3 5.5 5.3 11.3 7 17.1-1.1 1.1-2.2 2.2-3 3.4-4 1.8-8.7 5.2-11.3 7.9-5 4.8-7.7 10.4-7.7 16.1 0 29 60.4 42.3 94 22.7 6-3.4 10.3-7.5 13-12 3.6-6 3.5-12.9 2-16.2-.4-4-6.8-12.9-17.4-18.1a22 22 0 0 0-3.7-4.1 85 85 0 0 1 6.9-16.8l6.8 2.2c1.6.6 3.6.6 5.1 0l15.4-6.5a5 5 0 0 1 3.6 0l15.3 8.7.5.6s0 .3-.2.4l-11.4 9.1c-1.2 1-1.5 2.5-.2 3.7a42 42 0 0 1 11.3 15.5c.6 1.3 2 1.9 3.6 2l19.3 1.8c.7 0 1.9.5 2 1l.1 12.2c0 .1-.1.3-.4.5-.3.2-.9.4-1.6.5l-19.3 1.8c-1.8.2-3.2 1-3.6 2.2a41 41 0 0 1-11 15.4c-1.2 1-1.3 2.5 0 3.7l11.6 9c.6.3.3.6-.2.9l-15 8.7c-.4.3-2.4.7-3.6.2l-16-6.6s-4-.2-4.5 0c-8.7 3-19 5.4-27.4 6.5-1.4.2-3 .8-3.4 2.2l-3 11c-.1.7-1.6 1-2.4 1l-21.5.1c-.8 0-2.3-.4-2.4-1l-3.3-11c-.4-1.5-2-2.1-3.5-2.4a137 137 0 0 1-27.2-6.4 7 7 0 0 0-5 .1l-15.4 6.5c-1 .4-2.4.5-3.5-.1-14.3-8.2-15.9-8.7-15.9-9.2 0-.4.2-.4 11.7-9.6Z" fill="#fff"/><path d="M249.6 228.6h-1v.1h1Zm-1-1.8-.7.8.6-.8Zm-2.3-1.7-.8-.5-.4.8.6.5.6-.8Zm2.1-4.4-.9-.3 1 .3Zm2-.9v-1 1Zm19.4-1.8-.1-1v1Zm1.8-22.7h1v-.5l-.3-.3-.7.8Zm-25-17-1 .3v.1l1-.4Zm-2.4-4.8-.5-.8-.8.5.5.8.8-.5Zm3.9-2.2.5.8h.1l-.6-.8Zm1-1.9h1-1Zm-2-19.8h1v-.4l-1 .3Zm-.5-.6-.5.9h.2l.3-.9Zm-15.3-8.6-.5.9.5-.9Zm-24 6.4.3-1-.4 1Zm-94 0 .3 1-.3-1Zm-39.7 3-1-.4v.3h1Zm0 19.4h1-1Zm0 3-1 .2.1.6.6.1.2-1Zm3.6.6.9.5.6-1.2-1.3-.3-.2 1Zm-2.7 5.4 1 .4-1-.4Zm-24.7 37.5h1-1Zm1.7 2.4.1-1v1Zm19.3 1.7-.1 1v-1Zm1.5.4.6-.8h-.1l-.5.8Zm.5.5-1 .3 1-.3Zm2.3 4.7.7.7.6-.5-.4-.7-.9.5Zm-2.9 3.3 1 .2v-.1h-1Zm0 .2h1-1Zm-.1 19.7h-1 1Zm1.5 2.3.5-.9-.5.9Zm15.2 8.6.6-.9-.6.9Zm0 0 .6-.9-.5.9Zm5.4.3.4.9-.4-1Zm15.4-6.5-.4-1 .4 1Zm3.6 0-.4.8h.1l.2.1v-1Zm0 0 .4-1h-.3l-.1 1Zm0 0 .3-1-.3 1Zm27.6 6.4.1-1-.1 1Zm1.9.9 1-.1v-.2l-1 .3Zm0 0-1 .1v.3l1-.4Zm7.6 13.5v1-1Zm21.4 0v-1 1Zm4.4-2.5 1 .3-1-.3Zm2.9-11 1 .3v-.2h-1Zm0 0-1-.2v.1l1 .1Zm1.8-.9-.1-1v1Zm27.8-6.6-.4-.9.4 1Zm3 0 .5-.8-.4.9Zm.2 0 .3-.8-.3.9Zm15.9 6.6.4-1-.4 1Zm5.4-.2.4.9.2-.1.1-.2-.7-.6Zm0 0 .3.9-.3-1Zm0 0 .3.9h.1l-.4-1Zm15-8.8.4.9-.5-.9Zm1.4-2.2h-1 1Zm1-20c0-1-.5-1.8-1.4-2.5l-1.2 1.6c.5.3.6.7.7 1h2Zm-1.4-2.5-2.1-1.7-1.3 1.6 2.2 1.7 1.2-1.6Zm-1.9-.4c.8-1.5 1.6-3 2.2-4.5l-1.9-.7-2 4.2 1.7 1Zm2.2-4.5c0 .1-.1.1 0 0h.1a3 3 0 0 1 1-.3l-.2-2a5 5 0 0 0-1.7.5c-.4.2-.9.5-1.1 1l1.9.8Zm1.1-.3L270 219l-.2-2-19.4 1.8.2 2ZM270 219c1.2-.1 2.2-.5 2.6-1.5l.2-1.2v-1h-2v1a1.3 1.3 0 0 1 0 .5h-.1c-.2 0-.4.2-1 .2l.3 2Zm2.7-3.7v-20h-2v20h2Zm-.3-20.8-.4-.3-.2-.1h-.1l-.2-.1h-.3l-.5.3-.3.5v.5l.1.2a1 1 0 0 0 .2.2 14.6 14.6 0 0 0 .4.3v.1h.1a1.1 1.1 0 0 0 .3.2h.4a1 1 0 0 0 .8-1h-2a1 1 0 0 1 1.4-1l.1.1a1.4 1.4 0 0 1 .1 0l-.2-.1h.1v.2a1 1 0 0 1 .2.3v.4l-.3.5-.5.3h-.5l-.1-.1h-.1l-.1-.1.3.2 1.3-1.5Zm.2-11.4c0-.2 0-.5-.2-.8-.1-.3-.4-.5-.6-.7-.5-.3-1.2-.4-2.2-.5l-.1 2a7.3 7.3 0 0 1 1.3.2h-.1v-.2h2Zm-22.2-3.7-.5-.2a14 14 0 0 1-2.4-1.4l-1.7 1c0 .2.3.3.4.5l.5.3a13.2 13.2 0 0 0 3.5 1.8l.2-2Zm-2.8-1.5c-.7-1.6-1.5-3.3-2.4-4.9l-1.7 1a48 48 0 0 1 2.2 4.6l1.9-.7Zm-2.8-3.5 3.9-2.3-1-1.7-3.9 2.3 1 1.7Zm4-2.4c1-.8 1.3-1.8 1.3-2.5l-2-.2c0 .4-.1.8-.6 1.2l1.3 1.5Zm1.3-2.7-1.9-19.8-2 .2 2 19.8 2-.2Zm-2.9-19.7 1-.3a2.2 2.2 0 0 0-.3-.5c-.1-.2-.5-.6-1-.7l-.5 1.9h-.1l1-.4Zm0-1.4-15.3-8.7-1 1.8 15.3 8.6 1-1.7Zm-15.3-8.7c-.7-.4-1.4-.7-2.2-.8-.8 0-1.5.3-2.3.7l.8 1.8c.8-.4 1.2-.5 1.4-.5.3 0 .6.1 1.3.6l1-1.8ZM212 146l-.8.1a11.3 11.3 0 0 1-3.5-.1l-.7 1.8c.7.3 1.9.4 3 .4h1.5c.4-.1 1-.2 1.3-.4l-.8-1.8Zm-4.3 0c-2.2-.8-4.7-1.5-7-2.2l-.5 2 6.8 2 .7-1.8Zm-87.3-2.3c-2.4.7-5 1.5-7.4 2.4l.7 1.8 7.2-2.3-.5-1.9ZM113 146c-.3.2-1 .2-2 .2a10 10 0 0 1-1.8-.2l-.8 1.8c.3.2.8.3 1.2.3a12.4 12.4 0 0 0 4-.2l-.6-1.9Zm-19.8-6.5c-.8-.3-1.6-.6-2.3-.6-.8 0-1.5.3-2.2.8l1 1.7 1.2-.5c.3 0 .7.1 1.6.5l.7-2Zm-19.6 9-.7.6a1.7 1.7 0 0 0-.2.4l1 .3 1 .3h-.1a.6.6 0 0 1 0 .1h.1l-1-1.8Zm-1 1.3v19.5h2v-19.5h-2Zm0 19.5v3.2l2-.5v-2.7h-2Zm.8 4 3.7.6.4-2-3.7-.7-.4 2Zm3-.9-2.7 5.6 1.9.7c.5-1.4 1.8-3.9 2.6-5.3l-1.8-1Zm-2.7 5.5c0-.1.2-.2 0-.1l-.2.2a10.8 10.8 0 0 1-1.9 1.3l-.7.2.2 2c.5 0 1-.3 1.4-.4A11.8 11.8 0 0 0 75 179l.3-.5-1.8-.8Zm-22.1 3.4c-1.2.1-2 .4-2.4.8-.3.2-.5.4-.5.7a1.4 1.4 0 0 0-.1.4v-.2a1 1 0 0 1 .2-.4 1 1 0 0 1 1.7.2l-1.8.8s0 .2.2.3a1 1 0 0 0 1.7-.5v-.2a.7.7 0 0 1 0 .2.5.5 0 0 1-.1.2s.3-.2 1.3-.3l-.2-2Zm-3 2h2-2 2-2 2-2Zm1 0h-1a565 565 0 0 1 .1 8.6l.2 23.9h2a1981.3 1981.3 0 0 0-.3-32.5v-.1h-1Zm-.7 32.5v1c0 .4 0 .9.2 1.2.5 1 1.5 1.1 2.5 1.2v-2l-.7-.1v-1.3h-2Zm2.7 3.4 10 .9 6.4.6 2 .1h.6l.1.1h.1v-1l.2-1h-1l-2-.2-6.4-.6-10-1-.2 2Zm19.2 1.7c.5 0 .8.2 1.1.3l1-1.7c-.6-.3-1.2-.5-2-.6v2Zm1 .3a5 5 0 0 1 .3.1H72v-.2l1.8-.7c0-.3-.3-.5-.4-.6a4 4 0 0 0-.4-.3l-1.1 1.7Zm.1 0 2.4 4.8 1.8-1a22 22 0 0 1-2.3-4.6l-1.9.7Zm2.6 3.6-1 .8-1 .8-.8 1c-.2.3-.4.8-.4 1.3l2 .2c0-.3 0-.4.2-.6l.4-.4.8-.7c.4-.2.8-.6 1.2-1l-1.4-1.4Zm-3.2 3.8.1-.2-.2.6h2a.9.9 0 0 1 0 .4v-.4l-1.9-.4Zm0 .4-.1 19.7h2V229h-2Zm-.1 19.7c0 1.4.8 2.5 2 3.2l1-1.8c-.7-.4-1-1-1-1.4h-2Zm2 3.2 15.2 8.5 1-1.7-15.2-8.6-1 1.8Zm15.2 8.5-.2-.2.3.3 1-1.8a.9.9 0 0 1 .2.2l-.2-.2-1.1 1.7Zm0 0c1.8 1 4.4 1.2 6.3.4l-.8-1.9c-1.4.6-3.3.5-4.4-.2l-1 1.8Zm6.3.4 15.4-6.5-.8-1.9-15.4 6.5.8 1.9Zm15.4-6.5c.8-.3 2-.4 2.8 0l.7-2a7 7 0 0 0-4.3.1l.8 1.9Zm3 0 .3-2-.2 2Zm-.3 0a1 1 0 0 1-.1-.2l.3.2.6-2a1 1 0 0 1 .4.3l-.3-.2-.9 1.8Zm.1 0c8.8 3 18.1 5.3 27.9 6.5l.2-2c-9.6-1.2-18.8-3.4-27.4-6.4l-.7 1.9Zm27.9 6.5a3.7 3.7 0 0 1 1 .4c.2 0 0 0 0-.2l2-.6c-.2-.4-.5-.7-.7-.8l-.7-.4-1.4-.4-.2 2Zm1 0 2-.2-2 .2Zm0 .3a29 29 0 0 1 1.7 5.2l1 4.3a7 7 0 0 0 1.8 3.3 6 6 0 0 0 4.1 1.3v-2c-1.4 0-2.2-.3-2.7-.8-.6-.5-1-1.2-1.3-2.3-.3-1.2-.5-2.6-1-4.3-.3-1.6-.8-3.5-1.7-5.5l-1.9.8Zm8.6 14h21.4v-2h-21.4v2Zm21.4 0c2.4 0 4.8-1 5.3-3.1l-1.9-.5c-.2.7-1.3 1.6-3.4 1.6v2Zm5.3-3.1 3-11-2-.5-2.9 11 2 .5Zm3-11.2-2-.2 2 .2Zm0 .2-.2.2h.2c.2-.2.5-.3 1-.4l-.4-2c-.6.1-1.2.3-1.6.6-.2 0-.4.2-.6.4-.1.1-.3.3-.4.7l2 .5Zm1-.2c10-1.3 19.3-3.5 27.9-6.6l-.7-1.9c-8.4 3-17.7 5.3-27.5 6.5l.2 2Zm27.9-6.6c.8-.3 1.8-.3 2.4 0l.8-1.8a5.6 5.6 0 0 0-3.9-.1l.7 1.9Zm2.4 0h.4-.2l.6-1.9a1.3 1.3 0 0 0-.3 0h.3l-.8 1.9Zm0 0 16 6.5.8-1.8-16-6.5-.7 1.8Zm16 6.5c.9.4 1.8.6 2.8.6v-2c-.7 0-1.4-.2-2-.4l-.8 1.8Zm2.8.6c1.2 0 2.4-.3 3.4-.8l-1-1.8c-.6.4-1.5.6-2.4.6v2Zm3-1.7.7.6a1 1 0 0 1-.1.2l-.3.1-.7-1.9-.4.3.8.7Zm.3.9-.7-1.9.7 1.9Zm.2 0 15-8.8-1-1.7-15 8.7 1 1.7Zm15-8.8c1.5-1 2-2.2 2-3.1h-2l-.2.6c-.2.2-.4.5-.9.8l1 1.7Zm2-3.1v-16a248.8 248.8 0 0 0 0-4l-2 .3v19.7h2Zm21-53.2h2-2Zm0-12.2h2v-.4l-.2-.3-1.9.7Zm-2.1-1-.2 2 .2-2Zm-19.3-1.7-.3 2h.1l.2-2Zm-3.6-2.1-2 .7h.1v.1l1.9-.8Zm.5-28.7 1.9.9.1-.4v-.5h-2Zm-.5-.6 1-1.7-1 1.7Zm-18.9-8.7.8 1.8-.8-1.8Zm-15.4 6.5.7 1.8-.7-1.8Zm-5 0 .6-1.9-.7 2Zm-86.7-2.2 1.7-1-.7-1.4-1.6.4.6 2Zm-7.3 2.3-.7-1.9.7 1.9Zm-4.6 0 .8-2-.8 2Zm-16-6.6-.7 1.9.7-1.9Zm-3.6.1-1-1.7 1 1.7Zm-15 8.8-1-1.8-.2.2-.2.1 1.4 1.5Zm-.5.5 1.7-1-.1-.2-1.6 1.2Zm1 28.5 1.8.7-1.9-.7Zm-3.7 2.2.2 2-.2-2Zm-19.3 1.8-.2-2 .2 2Zm-2.1 1v2h2.3l-.3-2.4-2 .3Zm36.3 36.1-1.3-1.5 1.3 1.5Zm0-3.6 1.4-1.5-1.3 1.5Zm-11.1-15.5 1.8-.7v-.1l-1.8.8Zm-3.6-2-.3 1.9.3-2Zm0-.1-.2 2 .1-2Zm-19.4-1.7.2-2-.2 2Zm-2-1h2-2Zm35.9-32.6-1.3-1.5 1.3 1.5Zm-.2-3.7 1.3-1.6-1.3 1.6ZM74 150l-1.7 1 .2.4.2.2L74 150Zm-.1 0-1.5 1.3 1.5-1.4Zm53.8 11.6 1.4 1.5 1-.9-.4-1.1-2 .5Zm-3 3.4.8 1.8.5-.2.3-.4-1.6-1.2Zm-11.3 7.9 1.3 1.4-1.3-1.4Zm86.3 38.8-1-1.7 1 1.7Zm13-12 1.7 1-1.7-1Zm2-16.2-1.9.3v.3l.2.2 1.8-.8Zm-17.4-18.1 1-1.8-.5-.2h-.5v2Zm0 0-1.7 1.1.6.9h1v-2Zm-3.7-4.1-2-.6-.3 1.2 1 .9 1.3-1.5Zm6.9-16.8.5-1.9-1.5-.4-.8 1.4 1.8 1Zm31-4.2 1-1.7h-.1l-1 1.7Zm15.5 9.6 1.2 1.6.2-.2-1.4-1.4Zm-11.4 9.1 1.2 1.6-1.2-1.6Zm-.2 3.7-1.3 1.5 1.3-1.5Zm35.9 33 1 1.7h.1l-1.1-1.7Zm-1.6.5.2 2-.2-2Zm-19.3 1.8-.2-2h-.4l-.3.2.9 1.8Zm0 0 .2 2h.3l.4-.2-1-1.8Zm0 0-.2-2 .2 2Zm-3.6 2.2-1.9-.8 1.9.8Zm-11 15.4-1.4-1.5 1.3 1.5Zm0 3.7-1.2 1.5 1.3-1.5Zm11.6 9-1.2 1.5.1.1h.1l1-1.6Zm-.2.9-1-1.8 1 1.8Zm-15 8.7.7 2 .2-.2h.2l-1-1.8Zm0 0-.6-1.9h-.2l-.1.2 1 1.7Zm-3.6.2.8-1.9-.8 1.9Zm-20.5-6.6-.7-2 .7 2Zm-27.4 6.5-.3-2 .3 2Zm-3.4 2.2 1.8.8v-.1l.1-.2-1.9-.5Zm0 0-2-.4 2 .5Zm-3 11-2-.4 2 .5Zm-2.4 1v-2 2Zm-21.5.1v2-2Zm-2.4-1 2-.5h-.1l-2 .5Zm-3.3-11 2-.6-.1-.3-.2-.3-1.7 1.1Zm0 0-1.9.6.1.2.2.2 1.6-1Zm0 0-2 .5h.1l2-.6Zm-3.5-2.4.3-2-.3 2Zm0 0-.3 2h.1l.2-2Zm-27.2-6.4-.7 2 .7-2Zm-5 .1-.7-1.8.7 1.8Zm-15.4 6.5-.8-1.8.8 1.8Zm-3.5-.1.9-1.8-.9 1.8Zm0 0 1-1.8-1 1.8Zm0 0-1 1.7 1-1.8ZM74 228.9h2v-.4l-2 .4Zm199.5-33.6V183h-4v12.3h4Zm-4-15.2-19.2-1.7-.4 4 19.3 1.7.3-4ZM227 138.4l-15.4 6.5 1.6 3.7 15.4-6.5-1.6-3.7ZM109.4 145l-15.9-6.5-1.5 3.7 16 6.5 1.4-3.7Zm-21.3-6.3-15 8.7 2 3.5 15-8.7-2-3.5Zm-17.3 39.7-19.4 1.8.3 4 19.4-1.8-.3-4ZM87 220.9a4.3 4.3 0 0 0 .2-6.7l-2.7 3 .2.2a.3.3 0 0 1 0 .1c0 .1 0 .2-.2.3l2.5 3.1Zm.2-6.7a40 40 0 0 1-10.7-14.7l-3.7 1.4a43.5 43.5 0 0 0 11.7 16.3l2.7-3Zm-10.7-14.8c-.5-1.2-1.5-2-2.4-2.5a8 8 0 0 0-2.8-.8l-.4 4c.5 0 1 .2 1.3.4.4.2.6.4.6.5l3.7-1.6Zm-5.1-3.3a2 2 0 0 1 .8.4 2 2 0 0 0-1-.4l-.3 4a2 2 0 0 1-1-.4 1.9 1.9 0 0 0 .4.3h.5l.6-3.9Zm-.2 0L52 194.4l-.4 4L71 200l.3-4Zm-19.4-1.7h-.1l-.4-.2c-.1 0-.1 0 0 0 0 0 0 .2.2.3.1.2.3.5.3 1h-4c0 1 .7 1.7 1 1.9l1 .5a4 4 0 0 0 1.8.5l.2-4Zm0 1a4917.6 4917.6 0 0 0-.3-10.5v-1.8a4 4 0 0 1-2 2v-4a4 4 0 0 0-2 2v1.9a41570.2 41570.2 0 0 1 .3 10.5h4Zm-2.3-12.3a72.1 72.1 0 0 1 2 0 1.8 1.8 0 0 1-.1.6l-.4.6.8-.1-.4-4c-1.3.1-2.3.4-3 1a2.6 2.6 0 0 0-1 1.7 2.2 2.2 0 0 0 .1.5l2-.3Zm21.7-.7c2-.3 4.4-1.3 5.2-3.5l-3.7-1.4c0 .1-.5.7-2 1l.5 3.9Zm5.2-3.5A39 39 0 0 1 87 164.2l-2.7-3a43 43 0 0 0-11.5 16.3l3.7 1.4ZM87 164.3c1-1 1.6-2.2 1.5-3.5 0-1.3-.7-2.5-1.7-3.3l-2.6 3.1c.3.2.3.4.3.4l-.1.3 2.6 3Zm-.3-6.8-11.5-9-2.5 3.2 11.6 9 2.4-3.2ZM74 150.1l1.7-1a2.8 2.8 0 0 0-.4-.5l-2.9 2.8a1.7 1.7 0 0 1-.1-.2l1.7-1Zm1.3-1.4h.1l-1.7 1-1.8 1 .2.2.3.5 3-2.7Zm0-.2a2 2 0 0 1 .2 1.9l-.2.4a1.5 1.5 0 0 1 0 .1 8 8 0 0 1 .2-.2l-1.3-1.5-1.4-1.5a11.8 11.8 0 0 0-.8.9l-.2.4c0 .1-.4 1 .3 1.9l3.2-2.4Zm14.8-6.3 1-.2c.3 0 .7 0 1 .2l1.5-3.7a6.6 6.6 0 0 0-5.3.2l1.8 3.5Zm17.9 6.5c1.8.8 4.1.8 6 0l-1.3-3.7c-1 .4-2.3.3-3.1 0l-1.6 3.7Zm6 0 7.2-2.2-1-3.9c-2.6.7-5.1 1.5-7.5 2.4l1.3 3.8Zm4.9-3.2c3 5.4 5.3 11 7 16.8l3.8-1.1c-1.8-6-4.2-12-7.3-17.6l-3.5 2Zm7.5 14.8a25.3 25.3 0 0 0-3.3 3.7l3.2 2.3 2.8-3.1-2.7-3Zm-2.5 3a47 47 0 0 0-12 8.2l2.9 2.9c2.5-2.5 7-5.8 10.7-7.5l-1.6-3.6Zm-12 8.2a24.6 24.6 0 0 0-8.2 17.6h4c0-5 2.3-10.1 7-14.7l-2.7-2.9Zm-8.2 17.6a26 26 0 0 0 10.7 20.1 63.2 63.2 0 0 0 25.3 11.4c19.6 4.6 43.7 3 61-7l-2-3.5c-16.2 9.5-39.2 11-58.1 6.6a59.3 59.3 0 0 1-23.7-10.6c-5.8-4.8-9.2-10.5-9.2-17h-4Zm97 24.4a37.8 37.8 0 0 0 13.7-12.7l-3.4-2a34 34 0 0 1-12.3 11.3l2 3.4Zm13.7-12.7a22 22 0 0 0 2.2-18l-3.7 1.6c.6 1.3 1 3.5.7 6.1a20 20 0 0 1-2.6 8.3l3.4 2Zm2.4-17.4a13 13 0 0 0-1.7-4.5 43.1 43.1 0 0 0-16.9-15.2l-1.8 3.6a39.1 39.1 0 0 1 15.2 13.6 9.3 9.3 0 0 1 1.2 3l4-.5Zm-19.5-19.9v4-4Zm1.7.9a24 24 0 0 0-4-4.5l-2.7 3a16 16 0 0 1 3.3 3.7l3.3-2.2Zm-3.5-2.5a83 83 0 0 1 6.7-16.3l-3.5-2a87 87 0 0 0-7 17.2l3.8 1.1Zm4.4-15.3c2.3.6 4.6 1.3 6.8 2.1l1.3-3.8-7-2.2-1 3.9Zm6.8 2c2 .8 4.4.8 6.4 0l-1.5-3.7a5 5 0 0 1-3.6 0l-1.3 3.8Zm22-6.5.9-.2.9.2 1.9-3.5a6 6 0 0 0-2.7-.7 6 6 0 0 0-2.7.6l1.7 3.6Zm1.7 0 15.3 8.7 2-3.5-15.3-8.6-2 3.4Zm15.2 8.6-.1-.2-.2-.3v-.6h4c0-.5-.3-1-.4-1 0-.3-.2-.5-.3-.6a4 4 0 0 0-1-.7l-2 3.4Zm1.6-1-1.8-1h.2l2.8 2.8a3.3 3.3 0 0 0 .6-1l-1.8-.9Zm-1.5-1.2-11.4 9 2.5 3.2 11.4-9.1-2.5-3.1Zm-11.3 9c-1 .8-1.7 1.9-1.8 3.2-.1 1.3.4 2.6 1.5 3.6l2.7-3a.8.8 0 0 1-.2-.2v-.1l.2-.3-2.4-3.2Zm-.3 6.8a40 40 0 0 1 10.7 14.7l3.7-1.5a44 44 0 0 0-11.7-16.2l-2.7 3Zm10.7 14.8c1.1 2.3 3.6 3 5.2 3.3l.6-4c-1.4-.2-2-.6-2.1-1l-3.7 1.7Zm24.6 5h.3l.3.1.1.1-.1-.1-.3-.5 3.8-1.3c-.2-.6-.7-1-1-1.3l-1-.5c-.5-.3-1.2-.5-1.8-.5l-.3 4Zm.3 11.2a1.7 1.7 0 0 1 .4-1c0-.1.1-.2 0-.1l2.3 3.3.8-.7c.2-.2.5-.8.5-1.5h-4Zm.5-1.2s-.3.2-.7.2l.4 4a5 5 0 0 0 2.5-.8l-2.2-3.4Zm-.6.2-19.4 1.8.4 4 19.3-1.8-.3-4Zm-20 2h-.1l1.8 3.6-1.8-3.6Zm.6-.2.3 4-.3-4Zm0 0c-2.2.3-4.4 1.3-5.3 3.4l3.7 1.5c.1-.2.6-.8 2-.9l-.4-4Zm-5.3 3.5a39 39 0 0 1-10.5 14.6l2.7 3a43 43 0 0 0 11.5-16.2l-3.7-1.4Zm-10.6 14.6a5 5 0 0 0-1.4 3.3c0 1.3.7 2.5 1.7 3.4l2.6-3-.3-.3v-.2l.2-.3-2.8-2.9Zm.4 6.8 11.5 9 2.5-3.2-11.6-9-2.4 3.2Zm11.7 9s-.2 0-.4-.4c-.3-.4-.3-1-.2-1.5l.4-.6c.1 0 .1 0 0 0l2 3.5c.2 0 .4-.2.6-.4.2-.2.6-.5.8-1 .2-.7.2-1.4-.2-2-.3-.5-.7-.8-1-1l-2 3.5Zm-.2-2.4-7.7 4.4-5 3-1.6 1-.5.2h-.1l1 1.8 1 1.7h.1l.5-.3 1.6-1 5-2.9 7.7-4.5-2-3.4Zm-14.6 8.5 1.3 3.8-1.3-3.8Zm-.3.2s.1 0 0 0h-.1a5.3 5.3 0 0 1-1.4.1h-.4l-1.6 3.6c1 .5 2.3.5 3 .4l1.3-.2 1.1-.4-2-3.5Zm-2 0-16-6.6-1.4 3.8 16 6.5 1.5-3.7Zm-17.4-2.8c-1.2-2.5 1.3-3.8 1.3-3.8s.1 0 0 0c0 0-2.5 1.3-1.3 3.8l1.3-3.8c1.3 2.6-1.3 3.8-1.3 3.8.1 0 0 0 0 0s2.6-1.2 1.3-3.8l-1.3 3.8Zm1.3-3.8a4 4 0 0 0-.3 0h-.4l-.5-.1a79.9 79.9 0 0 0-4.6 0l1.3 3.9h-.2.5a36.5 36.5 0 0 1 3.3.1h.1a1 1 0 0 1-.2 0h-.3l1.3-3.9Zm-5.8 0c-8.5 3-18.6 5.3-27 6.4l.5 4c8.6-1.2 19-3.5 27.8-6.6l-1.3-3.8Zm-27 6.4c-.9.1-1.9.4-2.8 1-.9.4-1.8 1.3-2.2 2.6l3.8 1.1.4-.3 1.4-.5-.6-4Zm-5 3.3a1.8 1.8 0 0 1 .4-.5 2.2 2.2 0 0 0-.5 1l3.8 1a2 2 0 0 1-.3.7l.3-.5-3.6-1.7Zm-.1.5-1.5 5.6-1 3.7-.3 1.2-.1.3v.1l2 .6 1.8.5v-.1l.2-.4.3-1.2 1-3.7 1.4-5.6-3.8-1Zm-3 11 .3-.6.2-.2a3 3 0 0 1-1 .2v4c.7 0 1.5 0 2.2-.3l1.1-.6c.4-.2 1-.7 1.2-1.6l-4-.9Zm-.5-.6-21.4.1v4h21.5v-4Zm-21.4.1h-.3l-.5-.2h-.2l.2.1.3.6-3.9 1c.3 1 .9 1.4 1.2 1.6l1.1.5a7 7 0 0 0 2.1.4v-4Zm-.5.5-3.3-11.1-3.8 1L146 252l3.8-1.1Zm-3.5-11.7-3.3 2.2 3.3-2.2Zm.2.5-3.8 1.3 3.8-1.3Zm0 0a4.7 4.7 0 0 0-2.2-2.7c-1-.5-2-.8-2.9-1l-.6 4 1.5.5.4.4 3.8-1.2Zm-5.2-3.7a1.8 1.8 0 0 1 .6.2 2.3 2.3 0 0 0-.6-.2l-.4 4a2.2 2.2 0 0 1-.6-.1 2.4 2.4 0 0 0 .4 0l.2.1.4-4Zm0 0a135 135 0 0 1-26.7-6.2l-1.4 3.7c7.5 2.7 17.8 5.3 27.6 6.5l.5-4Zm-26.7-6.2a9 9 0 0 0-6.4 0l1.4 3.8a5 5 0 0 1 3.6 0l1.4-3.8Zm-6.5 0c-3.7 1.6-11.4 5-15.4 6.6l1.6 3.7 15.4-6.5-1.6-3.7Zm-15.4 6.6-.8.1c-.4 0-.8 0-1-.2l-1.8 3.6c1.7.8 3.8.8 5.2.2l-1.6-3.7Zm-1.8-.1a2.4 2.4 0 0 0-.2 0v-.1h-.1a1.3 1.3 0 0 1 .3.1l-2 3.5.3.1h.1-.2l1.8-3.6Zm0 0a2 2 0 0 1 .6.5 1.6 1.6 0 0 0-.2-.1 2 2 0 0 0-.5-.4l-1.8 3.5a2 2 0 0 1-.7-.5l.1.1a2 2 0 0 0 .5.4l2-3.5Zm0 0L77.6 229l-2-1.2h.1c.2.3.4.7.4 1.2h-4c0 .7.3 1.2.6 1.5l.8.7 2.2 1.3c2.2 1.2 6.1 3.3 13.2 7.4l2-3.5Zm-14.8-7.8-.1 1-.3.4 1.2-1 3.4-2.7L87 221l-2.5-3.1L78 223l-3.5 2.8c-.8.5-1.3 1-1.5 1.2-.2.2-.5.5-.6 1-.3.5-.2 1-.2 1.2l4-.8Z" fill="#000" mask="url(#a)"/><path d="M121.4 190.8V175a38.7 38.7 0 0 1 14.5-19.3c6-1.2 21.6-5.3 38.6-2.6a31.8 31.8 0 0 1 25.3 22v16.2c-3.4 7-15.6 20.6-39.2 20.6-23.5 0-35.8-13.6-39.1-20.6l-.1-.4Z" fill="#fff"/><path d="M121.4 175v16.2c3.4 7 15.7 20.6 39.2 20.6 23.6 0 35.8-13.6 39.1-20.6l.1-.4V175m-78.4 0a38.7 38.7 0 0 1 14.5-19.3c6-1.2 21.6-5.3 38.6-2.6a31.8 31.8 0 0 1 25.3 22m-78.4 0c2 7.2 12.6 21.8 39.2 21.8s37.2-14.6 39.2-21.9" stroke="#000" stroke-width="2" stroke-linecap="round" stroke-linejoin="round"/><path d="M193 33a62.8 62.8 0 0 0-74.5 7.1 64 64 0 0 0-7 87.9 92.3 92.3 0 0 1 19.6 42c-.2 5 2.9 9.2 7.5 12a50.3 50.3 0 0 0 36.7 3.3c5.9-1.8 10.9-5 13.4-9.8a11 11 0 0 0 1.3-5 89 89 0 0 1 19.2-42A63.8 63.8 0 0 0 193 33Z" fill="#fff" stroke="#000" stroke-width="2"/><path d="M134 101c0 7.7 2.6 13.2 7.1 15.8 4 2.2 7 4 9.4 5.5l1.9 1.1a14.8 14.8 0 0 1-3-4.3c-3.6-7.7-2.6-20.1 4.3-32.9 4.5-8.4 11-15.9 18.5-20.2l2.9-1.5c3.8-1.6 8.2-2.5 12.3-1.3l-11.2-6.5c-4.6-2.7-10.7-2.2-17.6 1.7a49.9 49.9 0 0 0-17.4 18.4A50.2 50.2 0 0 0 134 101Z" fill="#fff" stroke="#000" stroke-width="2"/><path d="M178.1 82 170 96l-4-2.3-4.9 8.3 4 2.3 5 2.7 13-22.2-4.9-2.8Z" fill="#fff" stroke="#171717" stroke-width="2" stroke-linecap="round" stroke-linejoin="round"/></svg>