<svg width="40" height="40" viewBox="0 0 40 40" fill="none" xmlns="http://www.w3.org/2000/svg"><path d="M10.2 36.3c-.4 0-.7-.1-1-.3-2.3-1.7-4.2-4-5.5-6.6-1.6-3.3-2.2-6.9-1.7-10.5.5-3.6 2-6.9 4.3-9.7 2.4-2.7 5.5-4.7 8.9-5.6 1.6-.4 3.2-.6 4.8-.6 1.6 0 3.2.2 4.8.6 3.5.9 6.6 2.9 8.9 5.6 2.4 2.7 3.9 6.1 4.3 9.7.5 3.6-.1 7.2-1.7 10.5-1.3 2.6-3.2 4.9-5.5 6.6-.4.3-.9.4-1.4.3-.5-.1-1-.5-1.3-.9l-5.4-9.5c-.2-.4-.3-1-.2-1.6.1-.5.3-1 .6-1.6.2-.5.4-1 .4-1.5 0-1.9-1.5-3.4-3.4-3.4s-3.4 1.5-3.4 3.4c0 .5.1 1 .4 1.5.3.6.5 1.1.6 1.6.1.6 0 1.1-.2 1.6l-5.4 9.5c-.3.5-.7.8-1.3.9h-.6ZM19.9 5c-1.4 0-2.8.2-4.2.6-3.1.8-5.8 2.6-7.9 5C5.7 13 4.4 16 3.9 19.2c-.4 3.2.1 6.4 1.5 9.3 1.1 2.3 2.7 4.2 4.7 5.8l5.4-9.4v-.2c0-.3-.2-.6-.4-1-.4-.7-.6-1.6-.6-2.4 0-3 2.4-5.4 5.4-5.4 3 0 5.4 2.4 5.4 5.4 0 .8-.2 1.7-.6 2.4-.2.4-.3.8-.4 1v.2l5.4 9.4c2-1.5 3.6-3.5 4.7-5.8 1.4-2.9 1.9-6.1 1.5-9.3-.4-3.2-1.8-6.2-3.9-8.6-2.1-2.4-4.9-4.1-7.9-5-1.2-.4-2.7-.6-4.2-.6.1 0 .1 0 0 0Z" fill="#161616"/></svg>