<svg width="773" height="239" viewBox="0 0 773 239" fill="none" xmlns="http://www.w3.org/2000/svg"><path stroke="#13C0C0" stroke-width="3" d="M8.5 8.5h627v149H8.5z"/><path fill="#F0F4FF" stroke="#13C0C0" stroke-width="3" d="M1.5 1.5h14v14h-14z"/><path fill="#ECF2FF" stroke="#13C0C0" stroke-width="3" d="M1.5 150.5h14v14h-14z"/><path fill="#F8FAFF" stroke="#13C0C0" stroke-width="3" d="M628.5 150.5h14v14h-14zm0-149h14v14h-14z"/><g filter="url(#a)"><path d="m649.45 171.412 20.773 11.656-8.273 3.24-4.628 7.585-7.872-22.481Z" fill="#13C0C0"/><path d="m650.184 170.104-3.461-1.942 1.311 3.746 7.872 22.481 1.047 2.989 1.65-2.704 4.364-7.153 7.803-3.056 2.949-1.155-2.762-1.55-20.773-11.656Z" stroke="#fff" stroke-width="3"/></g><rect x="670" y="198" width="103" height="41" rx="2" fill="#13C0C0"/><path d="m696.605 210.32-5.52 10.632V227h-2.736v-6.048l-5.544-10.632h3.048l3.864 8.184 3.864-8.184h3.024Zm14.292 9.744c0 .496-.032.944-.096 1.344h-10.104c.08 1.056.472 1.904 1.176 2.544.704.64 1.568.96 2.592.96 1.472 0 2.512-.616 3.12-1.848h2.952c-.4 1.216-1.128 2.216-2.184 3-1.04.768-2.336 1.152-3.888 1.152-1.264 0-2.4-.28-3.408-.84a6.278 6.278 0 0 1-2.352-2.4c-.56-1.04-.84-2.24-.84-3.6 0-1.36.272-2.552.816-3.576.56-1.04 1.336-1.84 2.328-2.4 1.008-.56 2.16-.84 3.456-.84 1.248 0 2.36.272 3.336.816a5.746 5.746 0 0 1 2.28 2.304c.544.976.816 2.104.816 3.384Zm-2.856-.864c-.016-1.008-.376-1.816-1.08-2.424-.704-.608-1.576-.912-2.616-.912-.944 0-1.752.304-2.424.912-.672.592-1.072 1.4-1.2 2.424h7.32Zm8.284-9.96V227h-2.736v-17.76h2.736Zm6.328 0V227h-2.736v-17.76h2.736Zm9.328 17.976c-1.248 0-2.376-.28-3.384-.84a6.227 6.227 0 0 1-2.376-2.4c-.576-1.04-.864-2.24-.864-3.6 0-1.344.296-2.536.888-3.576a6.134 6.134 0 0 1 2.424-2.4c1.024-.56 2.168-.84 3.432-.84 1.264 0 2.408.28 3.432.84a6.134 6.134 0 0 1 2.424 2.4c.592 1.04.888 2.232.888 3.576 0 1.344-.304 2.536-.912 3.576a6.377 6.377 0 0 1-2.496 2.424c-1.04.56-2.192.84-3.456.84Zm0-2.376c.704 0 1.36-.168 1.968-.504.624-.336 1.128-.84 1.512-1.512.384-.672.576-1.488.576-2.448s-.184-1.768-.552-2.424c-.368-.672-.856-1.176-1.464-1.512a4.004 4.004 0 0 0-1.968-.504c-.704 0-1.36.168-1.968.504-.592.336-1.064.84-1.416 1.512-.352.656-.528 1.464-.528 2.424 0 1.424.36 2.528 1.08 3.312.736.768 1.656 1.152 2.76 1.152Zm27.329-11.064L755.206 227h-2.88l-2.664-9.768-2.664 9.768h-2.88l-4.128-13.224h2.784l2.76 10.632 2.808-10.632h2.856l2.688 10.584 2.736-10.584h2.688Z" fill="#fff"/><defs><filter id="a" x="635.995" y="160.911" width="49.219" height="51.952" color-interpolation-filters="sRGB"><feFlood flood-opacity="0" result="BackgroundImageFix"/><feColorMatrix in="SourceAlpha" values="0 0 0 0 0 0 0 0 0 0 0 0 0 0 0 0 0 0 127 0"/><feOffset dy="4"/><feGaussianBlur stdDeviation="4"/><feColorMatrix values="0 0 0 0 0 0 0 0 0 0 0 0 0 0 0 0 0 0 0.1 0"/><feBlend in2="BackgroundImageFix" result="effect1_dropShadow"/><feBlend in="SourceGraphic" in2="effect1_dropShadow" result="shape"/></filter></defs></svg>