<svg width="40" height="40" viewBox="0 0 40 40" fill="none" xmlns="http://www.w3.org/2000/svg"><path fill-rule="evenodd" clip-rule="evenodd" d="M26.25 6.518a.25.25 0 0 0-.177.073L22.664 10 30 17.336l3.409-3.41a.25.25 0 0 0 0-.353l-6.982-6.982a.25.25 0 0 0-.177-.073Zm-5.707 2.775-.005.004L5.91 23.927a2.25 2.25 0 0 0-.659 1.59V32.5a2.25 2.25 0 0 0 2.25 2.25h26.25a1 1 0 1 0 0-2H17.414l13.293-13.293 4.116-4.116a2.25 2.25 0 0 0 0-3.182l-6.982-6.982a2.25 2.25 0 0 0-3.182 0l-4.112 4.112-.004.004ZM15 32.336 28.586 18.75l-7.336-7.336L7.664 25 15 32.336Zm-7.75-4.921V32.5a.25.25 0 0 0 .25.25h5.085L7.25 27.415Z" fill="#161616"/></svg>