<svg width="40" height="40" viewBox="0 0 40 40" fill="none" xmlns="http://www.w3.org/2000/svg"><path fill-rule="evenodd" clip-rule="evenodd" d="M3.41 2.336c.06.005.118.015.176.03l24.149 5.829a1 1 0 0 1 .746.776l2.133 10.667.346-.345a1 1 0 0 1 1.414 0l5 5a1 1 0 0 1 0 1.414L25.707 37.374a1 1 0 0 1-1.414 0l-5-5a1 1 0 0 1 0-1.414l.345-.346-10.667-2.133a1 1 0 0 1-.776-.746l-5.83-24.15a1.003 1.003 0 0 1 .261-.959.996.996 0 0 1 .785-.29ZM14.645 16.06 5.14 6.553l4.85 20.09 11.348 2.27 7.577-7.576-2.27-11.35L6.554 5.14l9.505 9.505a4.333 4.333 0 1 1-1.414 1.414Zm2.019.645a2.333 2.333 0 1 0 3.342 3.258 2.333 2.333 0 0 0-3.342-3.258Zm5.7 14.014.01-.01 8.334-8.334.01-.011.95-.949L35.252 25 25 35.252l-3.586-3.585.95-.95Z" fill="#161616"/></svg>