<svg width="40" height="40" viewBox="0 0 40 40" fill="none" xmlns="http://www.w3.org/2000/svg"><path fill-rule="evenodd" clip-rule="evenodd" d="M7.323 7.323A.25.25 0 0 1 7.5 7.25h25a.25.25 0 0 1 .25.25v9.167c0 12.413-10.51 16.545-12.68 17.265l-.012.003a.18.18 0 0 1-.116 0l-.011-.003C17.759 33.212 7.25 29.08 7.25 16.667V7.5a.25.25 0 0 1 .073-.177ZM7.5 5.25A2.25 2.25 0 0 0 5.25 7.5v9.167c0 13.832 11.758 18.402 14.047 19.161.456.156.95.156 1.406 0 2.289-.76 14.047-5.33 14.047-19.161V7.5a2.25 2.25 0 0 0-2.25-2.25h-25Zm20.066 10.473a1 1 0 0 0-1.381-1.446l-8.477 8.09-3.892-3.715a1 1 0 0 0-1.382 1.446l4.584 4.375a1 1 0 0 0 1.38 0l9.168-8.75Z" fill="#161616"/></svg>