<svg width="40" height="40" viewBox="0 0 40 40" fill="none" xmlns="http://www.w3.org/2000/svg"><path fill-rule="evenodd" clip-rule="evenodd" d="M5.864 17.98c0-6.692 5.426-12.117 12.119-12.117 6.692 0 12.118 5.425 12.118 12.118a12.08 12.08 0 0 1-3.592 8.611 12.08 12.08 0 0 1-8.526 3.507c-6.694 0-12.12-5.426-12.12-12.118Zm21.574 11.318a14.688 14.688 0 0 1-9.455 3.43c-8.145 0-14.748-6.603-14.748-14.747S9.838 3.234 17.983 3.234c8.144 0 14.747 6.603 14.747 14.747 0 3.6-1.29 6.898-3.433 9.458l6.883 6.883a1.314 1.314 0 1 1-1.859 1.858l-6.883-6.882Z" fill="#161616"/></svg>