<svg width="321" height="300" fill="none" xmlns="http://www.w3.org/2000/svg"><path d="m30 199.6-1.6-.9V210l.5.3 76 40.4c3 1.8 7.4 1.8 10.5 0l120-70.2c1.5-.8 2.5-2.2 2.5-3.6v-.2l-.9-4-2 .2v1s-.1.3-.6.5l-120 69.4a9 9 0 0 1-4.4 1 8 8 0 0 1-4.1-1l-76-44.1Z" fill="#fff" stroke="#000" stroke-width="2"/><path d="m156.7 35.7 1-1.8-5.5-3.1c-1.4-1-3-.6-4.4.1l-120 69.4A9.6 9.6 0 0 0 24 104a11 11 0 0 0-1.5 5.2l.2 87.7v.7l.6.3 5 2.3 1.4.7v-1.6l.3-86.9c0-1.3.4-2.7 1.2-4.1a8.8 8.8 0 0 1 3-3.2l120-69.3c1.1-.6 2-.5 2.5-.2Z" fill="#fff" stroke="#000" stroke-width="2"/><path d="m159.7 126-.5.3L30 201.1l-1.5.8v-1.7l-.5-87.7c0-1.7.5-3.6 1.4-5.2 1-1.6 2.3-3 3.9-3.9l120-69.3c1.5-.9 3-1 4.3-.3 1.3.8 1.9 2.2 1.9 4l.2 88.2Zm0 0v-.5l-.2-87.8.2 88.3Z" fill="#fff" stroke="#000" stroke-width="2"/><path d="m37.1 110.2 114.5-66 .2 77.5-115.7 66.8-.2-76c0-.2.1-.7.4-1.3.3-.6.7-.9.8-1Z" stroke="#000" stroke-width="2"/><path d="m45.8 116.8 96.1-55.4v54.5L46 171.4l-.2-54.6Z" fill="#fff"/><path d="m29.4 200.5 76 44a10 10 0 0 0 9.5 0l119.7-69.3c2.8-1.6 2.8-4 0-5.4l-75.9-44.1-129.3 74.8Z" fill="#fff" stroke="#000" stroke-width="2"/><path d="M172.3 198.8c.7.5.7 1.7 0 2.2l-25 14.5c-1 .5-2.3.5-3.3 0l-15.9-9c-.7-.6-.7-1.7 0-2.2l25-14.6c1-.5 2.3-.5 3.3 0l15.9 9.1Z" stroke="#000" stroke-width="2"/><path d="m52.2 130 32.1-18.4a3.2 3.2 0 0 0 1.8-3 2 2 0 0 0-.8-1.6c-.5-.3-1.2-.3-1.7 0l-32 18.3h-.1a4 4 0 0 0-1.2 1.3c-.3.5-.5 1.2-.5 1.8 0 .5.1 1.2.6 1.6.6.4 1.3.3 1.8 0Zm32.1-2v-.1a4 4 0 0 0 1.2-1.3c.3-.6.6-1.2.6-1.8 0-.7-.3-1.3-.8-1.6-.5-.4-1.2-.3-1.7 0l-32 18.4h-.1a4 4 0 0 0-1.2 1.4c-.3.5-.5 1.1-.5 1.8 0 .5.1 1.1.6 1.5.6.5 1.3.3 1.8 0L84.4 128Zm14.8-8.5a4 4 0 0 0 1.2-1.3 4 4 0 0 0 .5-1.8c0-.7-.2-1.3-.7-1.6-.6-.4-1.2-.3-1.8 0l-7.9 4.5a4 4 0 0 0-1.2 1.4c-.3.5-.5 1.2-.5 1.8 0 .5 0 1.2.6 1.6.6.4 1.2.3 1.8 0l8-4.6Zm-14.8 24.8a4 4 0 0 0 1.2-1.4c.3-.5.6-1.1.6-1.8a2 2 0 0 0-.8-1.6c-.5-.3-1.2-.3-1.7 0l-32 18.5h-.1a4 4 0 0 0-1.2 1.3 4 4 0 0 0-.5 1.8c0 .6.1 1.2.6 1.6.6.4 1.3.3 1.8 0l32.1-18.4Zm14.8-8.4a4 4 0 0 0 1.2-1.4c.3-.5.5-1.1.5-1.8a2 2 0 0 0-.7-1.6 2 2 0 0 0-1.8 0l-7.9 4.6a4 4 0 0 0-1.2 1.4c-.3.5-.5 1.1-.5 1.8 0 .5 0 1.1.6 1.5.6.5 1.2.3 1.8 0l8-4.5Zm0-32.7a4 4 0 0 0 1.2-1.4c.3-.5.5-1.2.5-1.8a2 2 0 0 0-.7-1.6c-.6-.4-1.2-.3-1.8 0l-7.9 4.6a4 4 0 0 0-1.2 1.3 4 4 0 0 0-.5 1.8c0 .6 0 1.2.6 1.6.6.4 1.2.3 1.8 0l8-4.5Z" stroke="#000" stroke-width="1.5"/><path d="M191.5 33c-.3-.2-.7-.2-1.2 0l-45.7 26.8c-1 .5-1.7 1.7-1.7 2.6v28.7c0 .4.3.9.5.9l-3.5-2.1c-.2-.2-.4-.5-.4-1V60.4c0-1 .7-2 1.3-2.6l46-26.5c.5-.3 1-.3 1.2 0l3.5 1.8Z" fill="#fff" stroke="#000" stroke-width="2"/><path d="M189.9 33.4 145 59.2c-.5.4-1 1-1.3 1.5a4 4 0 0 0-.5 1.9v28a2 2 0 0 0 1 1.8c.6.4 1.4.3 2 0l3.6-2v9.1c0 1.6 2 2.1 2.8.8l9.6-17.2 28.6-16.4a4 4 0 0 0 1.5-1.5c.4-.5.6-1.2.6-2V35.3a2 2 0 0 0-1-1.8c-.6-.4-1.4-.3-2 0Z" fill="#fff" stroke="#000" stroke-width="2"/><path d="M188 48.6v3l-40 23.2v-3.2l40-23Zm-19.7 19.8L148 80.2v3l20.3-11.6v-3.2Z" stroke="#000" stroke-width="2"/><path d="M136 79.3c.4-.3.6-.2.6-.2s.2.1.2.7v29.7c0 .4-.1 1-.4 1.6-.3.5-.7 1-1 1.2l-26 15c-.3.3-.5.2-.6.1 0 0-.2-.2-.2-.6V97c0-.3.1-.9.4-1.5.3-.5.7-1 1-1.2l26-15Z" stroke="#000" stroke-width="1.5"/><path d="m75 244.9 33.6-19.4a1 1 0 0 1 1 0l33.3 19.4v4c0 .4-.2.8-.5 1L109 269.3l-33.6-19.4a1 1 0 0 1-.5-1v-4Z" fill="#fff"/><path d="m75 244.9 33.6-19.4a1 1 0 0 1 1 0l33.3 19.4m-68 0v4c0 .4.3.8.6 1l33.6 19.4M75 244.9l34 19.6m34-19.5v4c0 .4-.2.8-.5 1L109 269.3m33.8-24.4L109 264.5m0 4.8v-4.8" stroke="#000" stroke-width="2" stroke-linecap="round" stroke-linejoin="round"/><path d="M99.5 239.4c.5.3.5.5.5.5s0 .2-.4.5c-.5.2-1.2.4-2 .4-.7 0-1.4-.2-2-.4-.4-.3-.4-.5-.4-.5s0-.2.5-.5c.5-.2 1.2-.4 2-.4s1.5.2 1.8.4Zm10 10.8-9 5.1-3.9-9.2 10.8 1.6 2 .3-1-1.8-5.7-10 23.1 4.4-11 6.4-5.3 3.2Z" fill="#fff" stroke="#000" stroke-width="2"/><path d="M242.6 136.6V147l-11.1 6.2v-10.5l11-6.1Z" fill="#37617B"/><path d="M231.5 142.7v10.5L220 147v-10.4l11.4 6.1Z" fill="#416E84"/><path d="m242.6 136.6-11.1 6.1-11.4-6.1 11.4-6.1 11 6Z" fill="#4C7891"/><path d="m246.5 91.4-5.5 3.1c1.8-1 4.3-1 7 .3l5.3-3.2c-2.5-1.4-5-1.4-6.8-.2Zm31.4 5.1.7-.4-.3-.8a26.8 26.8 0 0 0-11.4-13.5c-3.8-2-7.6-2.5-10.3-.8l-5.2 3.1 1 1.8c1.9-1.1 4.9-1 8.3.9a27 27 0 0 1 10.5 12.4l.5 1.1 1-.6 5.2-3.2Zm10 42.4 1 1.8 2.7-1.1h.1l2.8-1.7c2.4-1.4 3.6-4.3 3.9-8v-.1c0-5.8-3.1-12.4-7.4-16.9l-.5-.5-.7.4-5.2 3.2-1 .6.8.9a24 24 0 0 1 6.7 15.4c-.2 3.3-1.6 5-3.2 6Z" fill="#fff" stroke="#000" stroke-width="2"/><path d="M283.9 116.9v1.6l1.5-.8 5.2-3.2.5-.3v-.6c-.3-3.4-1.6-7-3.5-10.2a22.5 22.5 0 0 0-10-8.9l-.4-.1-.4.2-5.2 3.2-1.8 1.1 2 .7 2 1h.1c2.6 1.5 5 4 6.8 7 1.8 3 3 6.3 3.2 9.3Z" fill="#fff" stroke="#000" stroke-width="2"/><path d="M261.7 84.8c-3.8-2.2-7.5-2.6-10.3-1-2.8 1.6-4.3 4.9-4.4 9.3a7.3 7.3 0 0 0-6.8.6c-2.2 1.4-3.5 4.3-3.6 7.9 0 3.8 1.3 8 3.4 11.6 2 3.7 5 6.9 8.2 8.8l31.6 18.2c3.3 2 6.5 2.2 9 .8 2.5-1.5 3.9-4.4 3.9-8.3 0-5.6-3-12-7.1-16.5-.3-3.3-1.6-6.8-3.5-9.8a22.5 22.5 0 0 0-9.4-8.8c-2.2-5-6.3-10-11-12.8Z" fill="#fff" stroke="#000" stroke-width="2"/><path d="M55.3 229.9v7.7c0 .4-.2.7-.5.9l-13.1 7.2-12.8-7.2a1 1 0 0 1-.5-.9V230l12.8-7.2a1 1 0 0 1 1 0l13 7.2Z" fill="#fff"/><path d="M41.7 245.7v-8.3m0 8.3 13-7.2c.4-.2.6-.5.6-.9V230m-13.6 15.8-12.8-7.2a1 1 0 0 1-.5-.9V230m13.3 7.5 13.6-7.5m-13.6 7.5L28.4 230m26.9 0-13.1-7.2a1 1 0 0 0-1 0L28.4 230" stroke="#000" stroke-width="2" stroke-linecap="round" stroke-linejoin="round"/><path d="M242.7 136.7v10c0 .3-.2.7-.5.8l-10.9 6.1-10.8-6a1 1 0 0 1-.5-1v-9.9l10.8-6a1 1 0 0 1 1 0l10.9 6Z" fill="#fff"/><path d="m220 136.7 11.3 6.1m-11.3-6v9.9c0 .3.2.7.5.8l10.8 6.1M220 136.7l10.8-6a1 1 0 0 1 1 0l10.9 6m-11.4 6.1 11.4-6m-11.4 6v10.8m11.4-16.9v10c0 .3-.2.7-.5.8l-10.9 6.1" stroke="#000" stroke-width="2" stroke-linecap="round" stroke-linejoin="round"/><path d="M232.4 111.2v3.3c0 .4-.2.7-.5.9l-39.2 21.9a1 1 0 0 1-1 0l-25.3-15a1 1 0 0 1-.5-.8v-2.8l40-23.3 26.5 15.8Z" fill="#fff"/><path d="m165.9 118.7 26.3 15.5M166 118.7v2.8c0 .3.2.6.5.8l25.3 15h1l39.2-22c.3-.1.5-.4.5-.8v-3.3m-66.5 7.5 40-23.3m-40 23.3 28.8-1.8m-2.5 17.3 40.2-23m-40.2 23 2.5-17.3m37.7-5.7-26.6-15.8m26.6 15.8-30.1 1.1m3.5-16.9-3.5 17m-7.6 4.5 6-.4a1 1 0 0 0 .8-.8l.8-3.4" stroke="#000" stroke-width="1.7" stroke-linecap="round" stroke-linejoin="round"/><path d="m78.5 221.7-34.6-20.8a1 1 0 0 1 0-1.7l116-66a1 1 0 0 1 1 0l34.6 20.4a1 1 0 0 1 0 1.8l-116 66.3a1 1 0 0 1-1 0Z" stroke="#000" stroke-width="2" stroke-linecap="round" stroke-linejoin="round"/></svg>