<svg width="138" height="103" viewBox="0 0 138 103" fill="none" xmlns="http://www.w3.org/2000/svg"><g clip-path="url(#a)"><path d="M38.512 1.214h6.318v12.372L56.483 1.214h7.632L52.42 13.222l12.227 16.294h-7.59l-8.904-12.049-3.324 3.396v8.653h-6.318V1.213Z" fill="#6A6A6A"/><path d="M61.289 18.8v-.08c0-6.226 5.087-11.28 11.94-11.28 6.81 0 11.857 4.972 11.857 11.199v.08c0 6.227-5.088 11.28-11.94 11.28-6.81 0-11.857-4.972-11.857-11.199Zm17.643 0v-.08c0-3.194-2.339-5.984-5.786-5.984-3.57 0-5.703 2.709-5.703 5.903v.081c0 3.194 2.339 5.984 5.785 5.984 3.57 0 5.704-2.71 5.704-5.903Z" fill="#6A6A6A"/><path d="M86.81 23.37V13.1h-2.627V7.844h2.626v-5.54h6.237v5.54h5.17V13.1h-5.17v9.259c0 1.415.615 2.102 2.01 2.102a6.412 6.412 0 0 0 3.077-.768v4.933c-1.313.768-2.83 1.253-4.923 1.253-3.816 0-6.401-1.496-6.401-6.51ZM100.008 0h6.236v29.514h-6.236V0Zm8.488 0h6.565v5.458h-6.565V0Zm.164 7.844h6.237v21.67h-6.237V7.845Zm8.609 0h6.237v3.072c1.436-1.819 3.283-3.477 6.442-3.477 4.718 0 7.467 3.073 7.467 8.046v14.03h-6.236v-12.09c0-2.91-1.396-4.406-3.775-4.406-2.38 0-3.898 1.496-3.898 4.407v12.089h-6.236V7.844h-.001Z" fill="#6A6A6A"/><path d="M14.965 1.2.547 16.14v13.355l14.397-14.21 14.32-14.086h-14.3Z" fill="url(#b)"/><path d="m.547 29.494 14.397-14.21 14.32 14.21H.548Z" fill="url(#c)"/><path d="M.547 1.2h14.418L.547 16.14V1.2Z" fill="url(#d)"/></g><path d="m52.69 93-5.166-5.724V93h-1.638V80.454h1.638v5.814l5.184-5.814h2.07l-5.688 6.282L54.832 93H52.69Zm8.273.162c-.924 0-1.764-.21-2.52-.63a4.58 4.58 0 0 1-1.764-1.782c-.42-.78-.63-1.68-.63-2.7 0-1.008.216-1.896.648-2.664a4.51 4.51 0 0 1 1.8-1.782c.756-.42 1.602-.63 2.538-.63.936 0 1.782.21 2.538.63.756.408 1.35.996 1.782 1.764.444.768.666 1.662.666 2.682s-.228 1.92-.684 2.7a4.634 4.634 0 0 1-1.818 1.782c-.768.42-1.62.63-2.556.63Zm0-1.44c.588 0 1.14-.138 1.656-.414.516-.276.93-.69 1.242-1.242.324-.552.486-1.224.486-2.016s-.156-1.464-.468-2.016c-.312-.552-.72-.96-1.224-1.224a3.356 3.356 0 0 0-1.638-.414c-.6 0-1.152.138-1.656.414-.492.264-.888.672-1.188 1.224-.3.552-.45 1.224-.45 2.016 0 .804.144 1.482.432 2.034.3.552.696.966 1.188 1.242a3.372 3.372 0 0 0 1.62.396Zm9.21-7.236V90.3c0 .48.102.822.306 1.026.204.192.558.288 1.062.288h1.206V93h-1.476c-.912 0-1.596-.21-2.052-.63-.456-.42-.684-1.11-.684-2.07v-5.814h-1.278v-1.35h1.278v-2.484h1.638v2.484h2.574v1.35h-2.574Zm6.197-4.806V93h-1.638V79.68h1.638Zm3.637 1.854c-.312 0-.576-.108-.792-.324a1.077 1.077 0 0 1-.324-.792c0-.312.108-.576.324-.792.216-.216.48-.324.792-.324.3 0 .552.108.756.324.216.216.324.48.324.792 0 .312-.108.576-.324.792a.998.998 0 0 1-.756.324Zm.792 1.602V93h-1.638v-9.864H80.8Zm7.598-.18c1.2 0 2.172.366 2.916 1.098.744.72 1.116 1.764 1.116 3.132V93h-1.62v-5.58c0-.984-.246-1.734-.738-2.25-.492-.528-1.164-.792-2.016-.792-.864 0-1.554.27-2.07.81-.504.54-.756 1.326-.756 2.358V93h-1.638v-9.864h1.638v1.404a3.266 3.266 0 0 1 1.314-1.17 4.16 4.16 0 0 1 1.854-.414Z" fill="#A0A0A0"/><defs><linearGradient id="b" x1="-2.707" y1="25.659" x2="19.979" y2="2.635" gradientUnits="userSpaceOnUse"><stop stop-color="#3E3E3E"/><stop offset="1" stop-color="#949494"/></linearGradient><linearGradient id="c" x1="10.676" y1="33.652" x2="22.627" y2="21.522" gradientUnits="userSpaceOnUse"><stop stop-color="#575757"/><stop offset="1" stop-color="#9D9D9D"/></linearGradient><linearGradient id="d" x1="-.77" y1="9.967" x2="9.677" y2="-.634" gradientUnits="userSpaceOnUse"><stop stop-color="gray"/><stop offset="1" stop-color="#727272"/></linearGradient><clipPath id="a"><path fill="#fff" transform="translate(.5)" d="M0 0h137v30H0z"/></clipPath></defs></svg>