<svg width="96" height="148" viewBox="0 0 96 148" fill="none" xmlns="http://www.w3.org/2000/svg"><path d="M30.114 125.454V138h-1.638v-12.546h1.638Zm7.094 12.708c-.925 0-1.764-.21-2.52-.63a4.58 4.58 0 0 1-1.765-1.782c-.42-.78-.63-1.68-.63-2.7 0-1.008.217-1.896.648-2.664a4.51 4.51 0 0 1 1.8-1.782c.757-.42 1.602-.63 2.538-.63.936 0 1.782.21 2.538.63.757.408 1.35.996 1.782 1.764.445.768.667 1.662.667 2.682s-.228 1.92-.684 2.7a4.634 4.634 0 0 1-1.819 1.782c-.767.42-1.62.63-2.555.63Zm0-1.44c.587 0 1.14-.138 1.656-.414.516-.276.93-.69 1.242-1.242.323-.552.486-1.224.486-2.016s-.157-1.464-.468-2.016c-.313-.552-.72-.96-1.224-1.224a3.356 3.356 0 0 0-1.639-.414c-.6 0-1.152.138-1.656.414-.491.264-.887.672-1.188 1.224-.3.552-.45 1.224-.45 2.016 0 .804.145 1.482.433 2.034.3.552.696.966 1.188 1.242a3.372 3.372 0 0 0 1.62.396Zm12.017-8.766c1.2 0 2.172.366 2.916 1.098.744.72 1.116 1.764 1.116 3.132V138h-1.62v-5.58c0-.984-.246-1.734-.738-2.25-.492-.528-1.164-.792-2.016-.792-.864 0-1.554.27-2.07.81-.504.54-.756 1.326-.756 2.358V138H44.42v-9.864h1.638v1.404a3.266 3.266 0 0 1 1.314-1.17 4.16 4.16 0 0 1 1.854-.414Zm7.554-1.422c-.312 0-.576-.108-.792-.324a1.077 1.077 0 0 1-.324-.792c0-.312.108-.576.324-.792.216-.216.48-.324.792-.324.3 0 .552.108.756.324.216.216.324.48.324.792 0 .312-.108.576-.324.792a.998.998 0 0 1-.756.324Zm.792 1.602V138h-1.638v-9.864h1.638Zm2.18 4.914c0-1.02.204-1.908.612-2.664a4.407 4.407 0 0 1 1.692-1.782c.732-.42 1.566-.63 2.502-.63 1.212 0 2.208.294 2.988.882.792.588 1.314 1.404 1.566 2.448h-1.764a2.518 2.518 0 0 0-.99-1.422c-.48-.348-1.08-.522-1.8-.522-.936 0-1.692.324-2.268.972-.576.636-.864 1.542-.864 2.718 0 1.188.288 2.106.864 2.754.576.648 1.332.972 2.268.972.72 0 1.32-.168 1.8-.504.48-.336.81-.816.99-1.44h1.764c-.264 1.008-.792 1.818-1.584 2.43-.792.6-1.782.9-2.97.9-.936 0-1.77-.21-2.502-.63a4.407 4.407 0 0 1-1.692-1.782c-.408-.768-.612-1.668-.612-2.7Z" fill="#A0A0A0"/><path fill-rule="evenodd" clip-rule="evenodd" d="m79.572 33.81.285.666A34.82 34.82 0 0 1 83 49c0 19.286-15.714 35-35 35S13 68.286 13 49s15.714-35 35-35c5.667 0 11.047 1.333 16 3.81l.667.333-.572.476a10.873 10.873 0 0 0-3.238 4.238l-.19.476-.429-.19C56.381 21.333 52.286 20.38 48 20.38c-15.81 0-28.619 12.81-28.619 28.619 0 15.81 12.81 28.62 28.619 28.62 15.81 0 28.62-12.858 28.62-28.62 0-3.762-.715-7.476-2.192-10.952l-.19-.477.476-.19a11.111 11.111 0 0 0 4.381-3l.477-.572Zm-8.667.666a7.286 7.286 0 1 0 0-14.571 7.286 7.286 0 0 0 0 14.571ZM48 33.048c-8.81 0-15.953 7.142-15.953 15.952 0 8.81 7.143 15.953 15.953 15.953 8.81 0 15.952-7.143 15.952-15.953 0-8.81-7.143-15.952-15.952-15.952Z" fill="#686868"/></svg>