<svg width="96" height="137" viewBox="0 0 96 137" fill="none" xmlns="http://www.w3.org/2000/svg"><path d="M35.342 123.706c0 .6-.144 1.158-.432 1.674-.288.516-.726.936-1.314 1.26-.588.324-1.314.486-2.178.486-.84 0-1.59-.15-2.25-.45a4.187 4.187 0 0 1-1.566-1.26 3.661 3.661 0 0 1-.666-1.836h1.746a2.6 2.6 0 0 0 .36 1.062c.216.336.516.618.9.846.396.216.87.324 1.422.324.72 0 1.272-.192 1.656-.576.384-.384.576-.876.576-1.476 0-.516-.138-.936-.414-1.26a2.695 2.695 0 0 0-.99-.756c-.396-.192-.936-.396-1.62-.612a18.488 18.488 0 0 1-1.944-.738 3.483 3.483 0 0 1-1.242-1.062c-.336-.468-.504-1.086-.504-1.854 0-.66.156-1.242.468-1.746.324-.504.78-.894 1.368-1.17.6-.276 1.302-.414 2.106-.414 1.248 0 2.238.306 2.97.918a3.445 3.445 0 0 1 1.278 2.304h-1.764c-.096-.504-.354-.948-.774-1.332-.42-.384-.99-.576-1.71-.576-.66 0-1.188.174-1.584.522-.396.336-.594.816-.594 1.44 0 .492.126.894.378 1.206.264.3.588.54.972.72.384.168.912.36 1.584.576.816.264 1.47.516 1.962.756.504.24.93.606 1.278 1.098.348.48.522 1.122.522 1.926Zm15.775-6.588L48.273 127h-1.765l-2.718-8.046L41.055 127h-1.782l-2.807-9.882h1.655l2.107 8.316 2.736-8.316h1.71l2.753 8.298 2.124-8.298h1.567Zm1.24-2.898c0-.3.101-.54.305-.72.204-.192.474-.288.81-.288.336 0 .606.096.81.288.204.18.306.42.306.72s-.102.546-.306.738c-.204.18-.474.27-.81.27-.336 0-.606-.09-.81-.27a.969.969 0 0 1-.306-.738Zm1.925 2.898V127h-1.638v-9.882h1.638Zm7.008-2.34c-.876-.012-1.488.138-1.836.45-.336.312-.504.852-.504 1.62v.27h2.34v1.44h-2.34V127h-1.638v-8.442H55.89v-1.44h1.422v-.396c0-2.364 1.326-3.492 3.978-3.384v1.44Zm6.494 10.782V127H66.56c-1.008 0-1.764-.24-2.268-.72-.492-.48-.738-1.284-.738-2.412v-5.328h-1.476v-1.422h1.476v-2.466h1.656v2.466h2.556v1.422H65.21v5.364c0 .636.114 1.074.342 1.314.24.228.648.342 1.224.342h1.008Z" fill="#A0A0A0"/><path d="M30.556 17h33.789c1.644 0 3.24.262 4.789.81 2.24.81 4.265 2.24 5.79 4.099a13.36 13.36 0 0 1 2.931 6.529c.143.881.167 1.763.167 2.644v32.955c0 1.048-.048 2.12-.262 3.145a13.488 13.488 0 0 1-3.217 6.362 13.49 13.49 0 0 1-5.957 3.837c-1.382.428-2.812.619-4.265.619-.644 0-33.86 0-34.36-.024a13.597 13.597 0 0 1-6.863-2.263 13.772 13.772 0 0 1-4.646-5.338c-.906-1.835-1.359-3.884-1.359-5.933V30.558a12.65 12.65 0 0 1 1.263-5.838 13.53 13.53 0 0 1 4.6-5.361 13.347 13.347 0 0 1 6.838-2.311c.238-.048.5-.048.762-.048Z" fill="#7C7C7C"/><path d="M68.469 66.896a9.32 9.32 0 0 0-.715-.977 10.121 10.121 0 0 0-2.05-1.858c-.952-.644-2.072-1.049-3.216-1.097a5.824 5.824 0 0 0-2.383.382c-.762.262-1.501.643-2.216 1.024-.834.43-1.668.858-2.55 1.215a19.149 19.149 0 0 1-3.264 1.001 21.215 21.215 0 0 1-4.241.334 28.67 28.67 0 0 1-7.53-1.144 28.487 28.487 0 0 1-6.124-2.645 31.576 31.576 0 0 1-4.742-3.36 34.648 34.648 0 0 1-3.383-3.36 36.753 36.753 0 0 1-2.05-2.62 11.14 11.14 0 0 1-.714-1.12L17 45.88V30.51C17 23.053 23.029 17 30.487 17H42.52l8.912 9.055c20.11 13.677 13.605 28.76 13.605 28.76s5.72 6.434 3.432 12.081Z" fill="#6A6A6A"/><path d="M51.478 26.055c20.11 13.677 13.606 28.76 13.606 28.76s5.718 6.458 3.407 12.105c0 0-2.359-3.956-6.314-3.956-3.813 0-6.053 3.956-13.725 3.956-17.085 0-25.163-14.273-25.163-14.273 15.393 10.127 25.901 2.955 25.901 2.955-6.934-4.027-21.683-23.28-21.683-23.28 12.843 10.937 18.395 13.82 18.395 13.82-3.312-2.74-12.605-16.132-12.605-16.132 7.434 7.53 22.208 18.038 22.208 18.038 4.193-11.628-4.027-21.993-4.027-21.993Z" fill="#fff"/></svg>