<svg width="106" height="136" viewBox="0 0 106 136" fill="none" xmlns="http://www.w3.org/2000/svg">
<g>
<path d="M30.5311 39.7594C30.5311 41.0489 30.6706 42.0945 30.9145 42.8613C31.1934 43.6281 31.5419 44.4646 32.0298 45.3708C32.2041 45.6496 32.2738 45.9284 32.2738 46.1724C32.2738 46.5209 32.0647 46.8695 31.6116 47.218L29.4158 48.6819C29.1021 48.891 28.7885 48.9955 28.5096 48.9955C28.1611 48.9955 27.8126 48.8213 27.464 48.5076C26.9761 47.9848 26.5578 47.4271 26.2093 46.8695C25.8608 46.277 25.5122 45.6148 25.1288 44.8131C22.4103 48.0196 18.9946 49.6229 14.8819 49.6229C11.9542 49.6229 9.61902 48.7864 7.91119 47.1135C6.20337 45.4405 5.33203 43.2099 5.33203 40.4216C5.33203 37.459 6.37764 35.0541 8.5037 33.2417C10.6298 31.4294 13.4529 30.5232 17.0428 30.5232C18.2278 30.5232 19.4477 30.6277 20.7373 30.802C22.0269 30.9763 23.3513 31.2551 24.7455 31.5688V29.0245C24.7455 26.3756 24.1878 24.5284 23.1073 23.4479C21.992 22.3674 20.1099 21.8446 17.4262 21.8446C16.2063 21.8446 14.9516 21.9841 13.662 22.2977C12.3724 22.6114 11.1177 22.9948 9.89784 23.4828C9.34019 23.7267 8.92195 23.8661 8.67797 23.9359C8.434 24.0056 8.25973 24.0404 8.12031 24.0404C7.63236 24.0404 7.38839 23.6919 7.38839 22.96V21.2521C7.38839 20.6945 7.4581 20.2762 7.63236 20.0323C7.80663 19.7883 8.12031 19.5443 8.60826 19.3003C9.82814 18.673 11.292 18.1502 12.9998 17.7319C14.7076 17.2788 16.52 17.0697 18.437 17.0697C22.5845 17.0697 25.6168 18.0108 27.5686 19.8928C29.4855 21.7749 30.4614 24.6329 30.4614 28.4668V39.7594H30.5311ZM16.3806 45.0571C17.5308 45.0571 18.7158 44.848 19.9705 44.4297C21.2252 44.0115 22.3406 43.2447 23.2816 42.1991C23.8393 41.5369 24.2575 40.805 24.4666 39.9685C24.6757 39.132 24.8152 38.1212 24.8152 36.9362V35.4724C23.8044 35.2284 22.7239 35.0193 21.6086 34.8799C20.4933 34.7404 19.4129 34.6707 18.3324 34.6707C15.9972 34.6707 14.2894 35.1238 13.1392 36.0649C11.9891 37.0059 11.4314 38.3304 11.4314 40.073C11.4314 41.7112 11.8496 42.931 12.721 43.7675C13.5575 44.6389 14.7773 45.0571 16.3806 45.0571ZM44.368 48.8213C43.7406 48.8213 43.3224 48.7167 43.0436 48.4727C42.7647 48.2636 42.5208 47.7757 42.3116 47.1135L34.1211 20.1717C33.9119 19.4746 33.8074 19.0215 33.8074 18.7775C33.8074 18.2199 34.0862 17.9062 34.6439 17.9062H38.0595C38.7217 17.9062 39.1748 18.0108 39.4188 18.2547C39.6976 18.4638 39.9067 18.9518 40.1159 19.614L45.9713 42.6871L51.4084 19.614C51.5827 18.9169 51.7918 18.4638 52.0706 18.2547C52.3494 18.0456 52.8374 17.9062 53.4648 17.9062H56.253C56.9153 17.9062 57.3684 18.0108 57.6472 18.2547C57.926 18.4638 58.17 18.9518 58.3094 19.614L63.8163 42.9659L69.8459 19.614C70.055 18.9169 70.299 18.4638 70.543 18.2547C70.8218 18.0456 71.2749 17.9062 71.9023 17.9062H75.1437C75.7013 17.9062 76.015 18.185 76.015 18.7775C76.015 18.9518 75.9801 19.1261 75.9453 19.3352C75.9104 19.5443 75.8407 19.8231 75.7013 20.2065L67.3016 47.1483C67.0925 47.8454 66.8485 48.2985 66.5697 48.5076C66.2909 48.7167 65.8378 48.8561 65.2453 48.8561H62.2479C61.5856 48.8561 61.1325 48.7516 60.8537 48.5076C60.5749 48.2636 60.3309 47.8105 60.1915 47.1135L54.7892 24.6329L49.4218 47.0786C49.2475 47.7757 49.0384 48.2288 48.7595 48.4727C48.4807 48.7167 47.9928 48.8213 47.3654 48.8213H44.368ZM89.1548 49.7623C87.3424 49.7623 85.53 49.5532 83.7873 49.135C82.0447 48.7167 80.6854 48.2636 79.7792 47.7408C79.2215 47.4271 78.8381 47.0786 78.6987 46.7649C78.5593 46.4512 78.4896 46.1027 78.4896 45.789V44.0115C78.4896 43.2796 78.7684 42.931 79.2912 42.931C79.5004 42.931 79.7095 42.9659 79.9186 43.0356C80.1277 43.1053 80.4414 43.2447 80.7899 43.3841C81.975 43.9069 83.2645 44.3252 84.6238 44.604C86.018 44.8828 87.3773 45.0222 88.7714 45.0222C90.9672 45.0222 92.675 44.6389 93.86 43.8721C95.045 43.1053 95.6724 41.99 95.6724 40.561C95.6724 39.5851 95.3587 38.7835 94.7314 38.1212C94.104 37.459 92.919 36.8665 91.2111 36.3089L86.1574 34.7404C83.6131 33.9388 81.731 32.7538 80.5808 31.1854C79.4306 29.6518 78.8381 27.944 78.8381 26.1316C78.8381 24.6678 79.1518 23.3782 79.7792 22.2629C80.4065 21.1476 81.243 20.1717 82.2886 19.4049C83.3342 18.6033 84.5193 18.0108 85.9134 17.5925C87.3075 17.1743 88.7714 17 90.3049 17C91.0717 17 91.8734 17.0349 92.6401 17.1394C93.4418 17.244 94.1737 17.3834 94.9056 17.5228C95.6027 17.6971 96.2649 17.8713 96.8923 18.0805C97.5196 18.2896 98.0076 18.4987 98.3561 18.7078C98.8441 18.9867 99.1926 19.2655 99.4017 19.5792C99.6108 19.858 99.7154 20.2414 99.7154 20.7293V22.3674C99.7154 23.0994 99.4366 23.4828 98.9138 23.4828C98.6349 23.4828 98.1818 23.3433 97.5893 23.0645C95.6027 22.1583 93.3721 21.7052 90.8975 21.7052C88.9108 21.7052 87.3424 22.0189 86.2619 22.6811C85.1815 23.3433 84.6238 24.3541 84.6238 25.7831C84.6238 26.759 84.9724 27.5955 85.6694 28.2577C86.3665 28.9199 87.6561 29.5821 89.5033 30.1746L94.4525 31.743C96.962 32.5447 98.7744 33.66 99.8548 35.089C100.935 36.518 101.458 38.1561 101.458 39.9685C101.458 41.4672 101.144 42.8265 100.552 44.0115C99.9245 45.1965 99.088 46.2421 98.0076 47.0786C96.9271 47.9499 95.6375 48.5773 94.1388 49.0304C92.5704 49.5183 90.9323 49.7623 89.1548 49.7623Z" fill="#A5A5A5"/>
<path fill-rule="evenodd" clip-rule="evenodd" d="M95.7431 66.7016C84.2763 75.171 67.6163 79.6671 53.2915 79.6671C33.2158 79.6671 15.1268 72.2433 1.46426 59.9051C0.383795 58.9292 1.35969 57.6048 2.64928 58.3716C17.4272 66.9456 35.6556 72.1387 54.5113 72.1387C67.2329 72.1387 81.2092 69.4899 94.0701 64.0527C95.9871 63.1814 97.6252 65.3074 95.7431 66.7016Z" fill="#CFCDCD"/>
<path fill-rule="evenodd" clip-rule="evenodd" d="M100.517 61.2642C99.0528 59.3821 90.8274 60.358 87.0981 60.8111C85.9827 60.9506 85.8085 59.9747 86.8192 59.2427C93.3717 54.6421 104.141 55.9665 105.396 57.5001C106.651 59.0685 105.048 69.8382 98.9134 74.9965C97.9724 75.7981 97.0662 75.3799 97.4844 74.3343C98.8786 70.8838 101.981 63.1115 100.517 61.2642Z" fill="#CFCDCD"/>
</g>
<path d="M42.824 127.52H37.96L37.064 130H35.528L39.56 118.912H41.24L45.256 130H43.72L42.824 127.52ZM42.408 126.336L40.392 120.704L38.376 126.336H42.408ZM61.0293 118.848L57.7973 130H56.1653L53.5733 121.024L50.8853 130L49.2693 130.016L46.1493 118.848H47.7013L50.1333 128.304L52.8213 118.848H54.4533L57.0133 128.272L59.4613 118.848H61.0293ZM66.1586 130.112C65.4226 130.112 64.7613 129.984 64.1746 129.728C63.5986 129.461 63.1453 129.099 62.8146 128.64C62.484 128.171 62.3133 127.632 62.3026 127.024H63.8546C63.908 127.547 64.1213 127.989 64.4946 128.352C64.8786 128.704 65.4333 128.88 66.1586 128.88C66.852 128.88 67.396 128.709 67.7906 128.368C68.196 128.016 68.3986 127.568 68.3986 127.024C68.3986 126.597 68.2813 126.251 68.0466 125.984C67.812 125.717 67.5186 125.515 67.1666 125.376C66.8146 125.237 66.34 125.088 65.7426 124.928C65.0066 124.736 64.4146 124.544 63.9666 124.352C63.5293 124.16 63.1506 123.861 62.8306 123.456C62.5213 123.04 62.3666 122.485 62.3666 121.792C62.3666 121.184 62.5213 120.645 62.8306 120.176C63.14 119.707 63.572 119.344 64.1266 119.088C64.692 118.832 65.3373 118.704 66.0626 118.704C67.108 118.704 67.9613 118.965 68.6226 119.488C69.2946 120.011 69.6733 120.704 69.7586 121.568H68.1586C68.1053 121.141 67.8813 120.768 67.4866 120.448C67.092 120.117 66.5693 119.952 65.9186 119.952C65.3106 119.952 64.8146 120.112 64.4306 120.432C64.0466 120.741 63.8546 121.179 63.8546 121.744C63.8546 122.149 63.9666 122.48 64.1906 122.736C64.4253 122.992 64.708 123.189 65.0386 123.328C65.38 123.456 65.8546 123.605 66.4626 123.776C67.1986 123.979 67.7906 124.181 68.2386 124.384C68.6866 124.576 69.0706 124.88 69.3906 125.296C69.7106 125.701 69.8706 126.256 69.8706 126.96C69.8706 127.504 69.7266 128.016 69.4386 128.496C69.1506 128.976 68.724 129.365 68.1586 129.664C67.5933 129.963 66.9266 130.112 66.1586 130.112Z" fill="#AFAFAF"/>
<defs>
<clipPath id="clip0_9380_55944">
<rect width="104.794" height="96" fill="white" transform="translate(0.601562)"/>
</clipPath>
</defs>
</svg>
