<svg width="96" height="137" viewBox="0 0 96 137" fill="none" xmlns="http://www.w3.org/2000/svg"><path d="m18.046 127-3.312-5.184h-1.782V127h-1.638v-12.69h4.176c1.44 0 2.52.348 3.24 1.044.72.684 1.08 1.596 1.08 2.736 0 1.032-.288 1.866-.864 2.502-.576.624-1.41 1.014-2.502 1.17L19.9 127h-1.854Zm-5.094-6.372h2.394c1.86 0 2.79-.816 2.79-2.448 0-1.632-.93-2.448-2.79-2.448h-2.394v4.896Zm17.946.882c0 .348-.024.648-.072.9h-7.902c.036 1.128.354 1.974.954 2.538.612.564 1.356.846 2.232.846.792 0 1.452-.198 1.98-.594.54-.408.87-.948.99-1.62h1.746a4.098 4.098 0 0 1-.81 1.836c-.408.54-.942.96-1.602 1.26-.66.3-1.404.45-2.232.45-.948 0-1.788-.204-2.52-.612a4.399 4.399 0 0 1-1.728-1.746c-.408-.768-.612-1.668-.612-2.7 0-1.032.204-1.932.612-2.7a4.37 4.37 0 0 1 1.728-1.764c.732-.408 1.572-.612 2.52-.612.96 0 1.794.204 2.502.612.72.408 1.266.954 1.638 1.638.384.684.576 1.44.576 2.268Zm-1.656.108c.036-.732-.084-1.344-.36-1.836a2.632 2.632 0 0 0-1.134-1.098 3.452 3.452 0 0 0-1.566-.36c-.9 0-1.656.282-2.268.846-.612.552-.942 1.368-.99 2.448h6.318Zm7.849-4.626c.96 0 1.77.24 2.43.72a3.735 3.735 0 0 1 1.404 1.926v-2.52h1.638V127h-1.638v-2.52a3.735 3.735 0 0 1-1.404 1.926c-.66.48-1.47.72-2.43.72-.876 0-1.656-.204-2.34-.612-.684-.408-1.224-.99-1.62-1.746-.384-.768-.576-1.668-.576-2.7 0-1.032.192-1.932.576-2.7.396-.768.936-1.356 1.62-1.764.684-.408 1.464-.612 2.34-.612Zm.468 1.458c-1.008 0-1.818.324-2.43.972-.6.636-.9 1.518-.9 2.646s.3 2.016.9 2.664c.612.636 1.422.954 2.43.954.648 0 1.224-.15 1.728-.45.516-.3.918-.72 1.206-1.26.288-.552.432-1.188.432-1.908s-.144-1.356-.432-1.908a2.985 2.985 0 0 0-1.206-1.26c-.504-.3-1.08-.45-1.728-.45Zm11.985-1.458c1.26 0 2.303.336 3.132 1.008.828.672 1.337 1.572 1.53 2.7h-1.729c-.12-.708-.45-1.26-.99-1.656-.528-.408-1.188-.612-1.98-.612-.575 0-1.103.132-1.584.396-.468.264-.846.672-1.134 1.224-.288.54-.431 1.212-.431 2.016s.144 1.482.431 2.034c.288.54.666.942 1.134 1.206.48.264 1.008.396 1.584.396.793 0 1.453-.204 1.98-.612.54-.408.87-.966.99-1.674h1.729c-.193 1.14-.703 2.046-1.53 2.718-.829.66-1.873.99-3.133.99-.947 0-1.788-.204-2.52-.612a4.399 4.399 0 0 1-1.728-1.746c-.407-.768-.611-1.668-.611-2.7 0-1.032.204-1.932.611-2.7a4.37 4.37 0 0 1 1.728-1.764c.732-.408 1.572-.612 2.52-.612Zm11.521 8.568V127h-1.224c-1.008 0-1.764-.24-2.268-.72-.492-.48-.738-1.284-.738-2.412v-5.328H55.36v-1.422h1.476v-2.466h1.656v2.466h2.556v1.422h-2.556v5.364c0 .636.114 1.074.342 1.314.24.228.648.342 1.224.342h1.008Zm12.62-11.25v9.432c0 1.044-.3 1.872-.9 2.484-.588.6-1.416.9-2.484.9-1.152 0-2.058-.336-2.718-1.008-.648-.684-.972-1.638-.972-2.862h1.638c0 .732.162 1.314.486 1.746.324.42.822.63 1.494.63.636 0 1.098-.18 1.386-.54.288-.36.432-.81.432-1.35v-9.432h1.638Zm10.573 9.396c0 .6-.144 1.158-.432 1.674-.288.516-.726.936-1.314 1.26-.588.324-1.314.486-2.178.486-.84 0-1.59-.15-2.25-.45a4.187 4.187 0 0 1-1.566-1.26 3.661 3.661 0 0 1-.666-1.836h1.746a2.6 2.6 0 0 0 .36 1.062c.216.336.516.618.9.846.396.216.87.324 1.422.324.72 0 1.272-.192 1.656-.576.384-.384.576-.876.576-1.476 0-.516-.138-.936-.414-1.26a2.695 2.695 0 0 0-.99-.756c-.396-.192-.936-.396-1.62-.612a18.488 18.488 0 0 1-1.944-.738 3.483 3.483 0 0 1-1.242-1.062c-.336-.468-.504-1.086-.504-1.854 0-.66.156-1.242.468-1.746.324-.504.78-.894 1.368-1.17.6-.276 1.302-.414 2.106-.414 1.248 0 2.238.306 2.97.918a3.445 3.445 0 0 1 1.278 2.304h-1.764c-.096-.504-.354-.948-.774-1.332-.42-.384-.99-.576-1.71-.576-.66 0-1.188.174-1.584.522-.396.336-.594.816-.594 1.44 0 .492.126.894.378 1.206.264.3.588.54.972.72.384.168.912.36 1.584.576.816.264 1.47.516 1.962.756.504.24.93.606 1.278 1.098.348.48.522 1.122.522 1.926Z" fill="#A0A0A0"/><path d="M82.212 47.38c0-4.519-5.659-8.801-14.335-11.457 2.002-8.843 1.112-15.878-2.808-18.13-.904-.529-1.96-.78-3.115-.78v3.101c.64 0 1.154.126 1.585.362C65.43 21.56 66.25 25.69 65.611 31a42.82 42.82 0 0 1-.71 4.088c-2.724-.668-5.7-1.182-8.828-1.516-1.877-2.572-3.824-4.908-5.784-6.952 4.532-4.212 8.787-6.52 11.679-6.52V17c-3.824 0-8.829 2.725-13.89 7.452-5.06-4.7-10.066-7.396-13.89-7.396v3.1c2.878 0 7.147 2.294 11.68 6.48a65.677 65.677 0 0 0-5.743 6.937c-3.142.334-6.117.848-8.843 1.53a41.926 41.926 0 0 1-.723-4.032c-.653-5.312.153-9.441 2.03-10.54.418-.25.96-.36 1.6-.36V17.07c-1.169 0-2.225.25-3.143.778-3.907 2.253-4.783 9.274-2.767 18.089C19.631 38.607 14 42.875 14 47.38c0 4.518 5.659 8.8 14.335 11.456-2.002 8.843-1.113 15.879 2.808 18.13.904.53 1.96.78 3.129.78 3.823 0 8.829-2.726 13.89-7.453 5.06 4.7 10.066 7.397 13.89 7.397 1.167 0 2.224-.25 3.142-.779 3.907-2.252 4.783-9.273 2.766-18.089 8.62-2.655 14.252-6.937 14.252-11.442Zm-18.103-9.274a62.637 62.637 0 0 1-1.877 5.492 65.818 65.818 0 0 0-1.821-3.337 75.252 75.252 0 0 0-2.002-3.254 62.75 62.75 0 0 1 5.7 1.099Zm-6.368 14.807a74.058 74.058 0 0 1-3.35 5.312c-2.072.18-4.172.278-6.285.278-2.1 0-4.199-.098-6.257-.264a76.642 76.642 0 0 1-3.364-5.284 72.387 72.387 0 0 1-2.892-5.534 72.522 72.522 0 0 1 2.878-5.547 74.068 74.068 0 0 1 3.35-5.311 72.366 72.366 0 0 1 6.285-.279c2.1 0 4.199.098 6.257.265a76.602 76.602 0 0 1 3.364 5.283 72.442 72.442 0 0 1 2.892 5.534 77.868 77.868 0 0 1-2.878 5.547Zm4.491-1.807a59.583 59.583 0 0 1 1.919 5.534c-1.821.445-3.74.82-5.728 1.112a76.767 76.767 0 0 0 2.002-3.295 79.062 79.062 0 0 0 1.807-3.351ZM48.134 65.94a57.315 57.315 0 0 1-3.865-4.449c1.25.056 2.53.097 3.823.097 1.307 0 2.6-.027 3.865-.097a54.304 54.304 0 0 1-3.823 4.45Zm-10.345-8.19a62.686 62.686 0 0 1-5.7-1.097 62.614 62.614 0 0 1 1.877-5.492 65.818 65.818 0 0 0 1.821 3.337 92.163 92.163 0 0 0 2.002 3.253Zm10.275-28.933a57.336 57.336 0 0 1 3.865 4.45 86.097 86.097 0 0 0-3.823-.098c-1.307 0-2.6.028-3.865.097a54.284 54.284 0 0 1 3.823-4.449Zm-10.289 8.19a76.933 76.933 0 0 0-3.81 6.632 59.573 59.573 0 0 1-1.918-5.534 67.54 67.54 0 0 1 5.728-1.099ZM25.193 54.415c-4.922-2.1-8.106-4.852-8.106-7.035s3.184-4.95 8.105-7.036c1.196-.514 2.503-.973 3.852-1.404.792 2.725 1.835 5.562 3.128 8.468-1.279 2.892-2.308 5.714-3.086 8.425a42.22 42.22 0 0 1-3.893-1.418Zm7.48 19.869c-1.891-1.085-2.712-5.214-2.072-10.526.153-1.307.403-2.683.71-4.087 2.724.667 5.7 1.181 8.828 1.515 1.877 2.572 3.824 4.908 5.784 6.952-4.533 4.213-8.787 6.52-11.68 6.52-.625-.013-1.153-.138-1.57-.374Zm32.98-10.595c.653 5.311-.153 9.44-2.03 10.539-.418.25-.96.361-1.6.361-2.878 0-7.146-2.294-11.679-6.479a65.677 65.677 0 0 0 5.743-6.938c3.142-.333 6.117-.848 8.843-1.53.32 1.405.57 2.754.722 4.047Zm5.352-9.274c-1.195.514-2.502.973-3.85 1.404-.793-2.725-1.836-5.561-3.13-8.467 1.28-2.892 2.309-5.714 3.087-8.426 1.377.431 2.684.904 3.907 1.418 4.922 2.1 8.106 4.853 8.106 7.036-.014 2.183-3.198 4.95-8.12 7.035Z" fill="#6A6A6A"/><path d="M48.092 53.734a6.354 6.354 0 1 0 0-12.708 6.354 6.354 0 0 0 0 12.708Z" fill="#6A6A6A"/></svg>