<svg width="96" height="137" viewBox="0 0 96 137" fill="none" xmlns="http://www.w3.org/2000/svg"><path d="M27.178 127H25.54l-6.588-10.026V127h-1.638v-12.69h1.638l6.588 10.044V114.31h1.638V127Zm11.724-5.49c0 .348-.024.648-.072.9h-7.902c.036 1.128.354 1.974.954 2.538.612.564 1.356.846 2.232.846.792 0 1.452-.198 1.98-.594.54-.408.87-.948.99-1.62h1.746a4.098 4.098 0 0 1-.81 1.836c-.408.54-.942.96-1.602 1.26-.66.3-1.404.45-2.232.45-.948 0-1.788-.204-2.52-.612a4.399 4.399 0 0 1-1.728-1.746c-.408-.768-.612-1.668-.612-2.7 0-1.032.204-1.932.612-2.7a4.37 4.37 0 0 1 1.728-1.764c.732-.408 1.572-.612 2.52-.612.96 0 1.794.204 2.502.612.72.408 1.266.954 1.638 1.638.384.684.576 1.44.576 2.268Zm-1.656.108c.036-.732-.084-1.344-.36-1.836a2.632 2.632 0 0 0-1.134-1.098 3.452 3.452 0 0 0-1.566-.36c-.9 0-1.656.282-2.268.846-.612.552-.942 1.368-.99 2.448h6.318Zm6.895-4.626c1.116 0 2.01.294 2.681.882.684.576 1.098 1.356 1.242 2.34h-1.566c-.072-.588-.317-1.068-.737-1.44-.409-.384-.96-.576-1.657-.576-.587 0-1.05.144-1.386.432-.324.276-.486.654-.486 1.134 0 .36.108.654.325.882.227.216.503.384.828.504.336.108.791.228 1.367.36.732.168 1.32.342 1.764.522.456.168.84.444 1.153.828.324.384.486.9.486 1.548 0 .804-.306 1.458-.919 1.962-.6.504-1.403.756-2.411.756-1.177 0-2.137-.282-2.88-.846-.745-.564-1.182-1.35-1.315-2.358h1.584c.06.6.319 1.086.775 1.458.468.372 1.08.558 1.836.558.563 0 1.002-.144 1.313-.432.325-.288.486-.666.486-1.134 0-.384-.114-.69-.342-.918a2.243 2.243 0 0 0-.845-.522c-.337-.12-.798-.246-1.386-.378-.733-.168-1.32-.336-1.765-.504a2.804 2.804 0 0 1-1.116-.792c-.3-.372-.45-.87-.45-1.494 0-.828.306-1.494.919-1.998.611-.516 1.445-.774 2.502-.774Zm10.918 8.568V127h-1.224c-1.008 0-1.764-.24-2.268-.72-.492-.48-.738-1.284-.738-2.412v-5.328h-1.476v-1.422h1.476v-2.466h1.656v2.466h2.556v1.422h-2.556v5.364c0 .636.114 1.074.342 1.314.24.228.648.342 1.224.342h1.008Zm12.62-11.25v9.432c0 1.044-.3 1.872-.9 2.484-.588.6-1.416.9-2.484.9-1.152 0-2.058-.336-2.718-1.008-.648-.684-.972-1.638-.972-2.862h1.638c0 .732.162 1.314.486 1.746.324.42.822.63 1.494.63.636 0 1.098-.18 1.386-.54.288-.36.432-.81.432-1.35v-9.432h1.638Zm10.573 9.396c0 .6-.144 1.158-.432 1.674-.288.516-.726.936-1.314 1.26-.588.324-1.314.486-2.178.486-.84 0-1.59-.15-2.25-.45a4.187 4.187 0 0 1-1.566-1.26 3.661 3.661 0 0 1-.666-1.836h1.746a2.6 2.6 0 0 0 .36 1.062c.216.336.516.618.9.846.396.216.87.324 1.422.324.72 0 1.272-.192 1.656-.576.384-.384.576-.876.576-1.476 0-.516-.138-.936-.414-1.26a2.695 2.695 0 0 0-.99-.756c-.396-.192-.936-.396-1.62-.612a18.488 18.488 0 0 1-1.944-.738 3.483 3.483 0 0 1-1.242-1.062c-.336-.468-.504-1.086-.504-1.854 0-.66.156-1.242.468-1.746.324-.504.78-.894 1.368-1.17.6-.276 1.302-.414 2.106-.414 1.248 0 2.238.306 2.97.918a3.445 3.445 0 0 1 1.278 2.304h-1.764c-.096-.504-.354-.948-.774-1.332-.42-.384-.99-.576-1.71-.576-.66 0-1.188.174-1.584.522-.396.336-.594.816-.594 1.44 0 .492.126.894.378 1.206.264.3.588.54.972.72.384.168.912.36 1.584.576.816.264 1.47.516 1.962.756.504.24.93.606 1.278 1.098.348.48.522 1.122.522 1.926Z" fill="#A0A0A0"/><path fill-rule="evenodd" clip-rule="evenodd" d="M54.217 13c-.506 0-.976.109-1.41.254.922.616 1.428 1.43 1.681 2.355.018.127.054.217.072.344.018.109.036.217.036.326.073 1.594-.415 1.794-.759 2.736a3.879 3.879 0 0 0 .253 3.569c.054.127.127.271.217.398-.687-4.583 3.128-5.272 3.833-6.703.054-1.25-.977-2.083-1.79-2.663-.777-.471-1.482-.616-2.133-.616Zm5.748 1.033c-.072.416-.018.308-.036.525-.018.145-.018.326-.036.471-.036.145-.072.29-.126.435-.036.145-.09.29-.145.435-.072.145-.127.271-.199.416-.054.073-.09.145-.144.218l-.109.163a6.34 6.34 0 0 1-.271.362c-.108.109-.199.236-.325.326v.018c-.109.091-.217.2-.344.29-.38.29-.813.508-1.211.78-.127.09-.253.162-.362.271-.126.09-.235.181-.343.29-.127.109-.217.217-.325.344-.09.109-.2.236-.272.362a5.11 5.11 0 0 0-.253.38c-.072.146-.126.273-.199.418-.054.145-.108.271-.144.416-.055.163-.09.308-.127.453-.018.073-.018.163-.036.236-.018.072-.018.145-.036.217 0 .145-.018.308-.018.453 0 .109 0 .217.018.326 0 .145.018.29.054.453.018.145.054.29.09.435.055.145.091.29.145.435.036.09.09.18.127.253l-4.158-1.612c-.705-.2-1.392-.38-2.097-.544l-1.139-.271a33.498 33.498 0 0 0-3.29-.49c-.036 0-.054-.018-.09-.018a32.254 32.254 0 0 0-3.236-.163c-.796 0-1.591.037-2.369.09a34.314 34.314 0 0 0-3.308.4c-.271.036-.542.09-.813.144-.56.109-1.103.236-1.627.363l-.814.217c-.27.109-.524.236-.777.344l-.597.272c-.036.018-.072.018-.09.036-.18.09-.343.163-.506.254a.886.886 0 0 0-.127.054c-.199.09-.398.2-.56.29-.127.054-.253.127-.362.181a1.611 1.611 0 0 1-.162.09c-.163.091-.326.182-.47.273-.163.09-.308.18-.434.271-.127.09-.253.163-.362.254-.018.018-.036.018-.054.036a4.174 4.174 0 0 0-.344.254l-.036.036-.27.217c-.037.018-.073.055-.11.073-.09.072-.18.163-.27.235-.019.037-.055.055-.073.073-.108.109-.217.2-.325.308-.018 0-.018.018-.036.036-.109.09-.217.2-.326.308-.018.018-.018.036-.036.036-.09.09-.18.181-.271.29-.036.036-.09.073-.127.109a5.08 5.08 0 0 1-.307.326c-.018.036-.054.054-.072.09-.145.145-.271.29-.416.435l-.054.055c-.29.308-.597.616-.922.887-.326.29-.67.562-1.013.797a13.46 13.46 0 0 1-1.084.689c-.362.2-.741.38-1.14.544-.379.162-.776.308-1.174.434-.76.163-1.537.471-2.206.526-.144 0-.307.036-.451.054-.163.036-.308.073-.452.109l-.434.163c-.145.054-.29.127-.434.199-.127.09-.271.163-.398.254-.127.09-.253.199-.361.308-.127.09-.254.217-.362.326-.108.127-.217.235-.307.362-.09.145-.2.272-.272.417a3.19 3.19 0 0 0-.253.416c-.072.163-.144.308-.198.471-.055.145-.109.309-.163.471-.036.145-.072.29-.09.435 0 .019-.019.037-.019.055-.036.163-.036.38-.054.489-.018.127-.036.235-.036.362 0 .073 0 .163.018.236.018.127.036.235.072.344.037.109.073.217.127.326v.018c.054.109.127.217.199.326.072.109.144.218.235.326.09.09.199.2.307.29.109.109.217.2.344.29.434.38.542.507 1.102.797.09.055.181.09.29.145.018 0 .036.018.054.018 0 .036 0 .055.018.09.018.146.054.29.09.436.037.163.09.308.145.434.054.11.09.218.145.327.018.036.036.072.054.09.072.145.144.272.217.399l.27.38c.091.109.2.236.308.344.109.11.217.2.344.308 0 0 .018.018.036.018.108.091.217.182.325.254.127.09.253.163.398.236.127.072.271.145.416.199.108.054.235.09.361.127.018.018.036.018.073.036.072.018.162.036.235.054-.055.979-.073 1.902.072 2.229.163.362.958-.743 1.754-2.011-.109 1.25-.181 2.717 0 3.152.198.453 1.283-.96 2.223-2.518 12.817-2.971 24.513 5.906 25.743 18.443-.236-1.957-2.64-3.044-3.742-2.772-.543 1.34-1.465 3.061-2.947 4.13a11.64 11.64 0 0 0-.18-3.623 11.726 11.726 0 0 1-2.243 4.565c-1.717.127-3.434-.706-4.338-1.956-.072-.055-.09-.163-.145-.236-.054-.127-.108-.253-.144-.38a1.506 1.506 0 0 1-.109-.38c-.018-.128-.018-.254-.018-.4v-.271c.018-.127.054-.254.09-.38.037-.127.073-.254.127-.38.072-.128.127-.255.217-.381.307-.87.307-1.576-.253-1.993a2.056 2.056 0 0 0-.344-.181c-.072-.018-.162-.055-.235-.073-.054-.018-.09-.036-.144-.054-.127-.036-.253-.073-.38-.09a1.374 1.374 0 0 0-.38-.055 2.936 2.936 0 0 0-.397-.036c-.09 0-.181.018-.271.018-.145 0-.272.018-.398.054a2.678 2.678 0 0 0-.38.073c-.126.036-.253.072-.38.127-.126.054-.234.108-.361.163-.108.054-.217.126-.344.18-4.212 2.754-1.699 9.204 1.176 11.07-1.085.2-2.188.435-2.495.67l-.036.037c.777.47 1.59.87 2.44 1.213a60.44 60.44 0 0 0 2.929.87v.018c1.5.308 3.019.417 4.555.326 8.009-.561 14.57-6.667 15.764-14.71.036.163.072.307.108.47.055.327.127.67.163 1.015v.018c.036.163.054.326.072.471v.073c.019.163.037.326.037.47.018.2.036.4.036.599v.29c0 .09.018.199.018.29 0 .108-.018.217-.018.325v.254c0 .127-.018.236-.018.362 0 .073 0 .145-.018.236 0 .127-.018.254-.018.398-.019.055-.019.11-.019.163l-.054.417c0 .054 0 .109-.018.163-.018.181-.054.344-.072.526v.036l-.109.507v.055l-.108.489c0 .018-.018.054-.018.072a4.858 4.858 0 0 1-.127.49v.054c-.054.18-.108.344-.145.507-.018.018-.018.036-.018.036l-.162.544c-.073.18-.127.344-.2.525-.072.181-.126.362-.198.525-.072.182-.145.345-.217.526h-.018c-.072.163-.145.344-.235.507a.887.887 0 0 1-.054.127c-.018.018-.018.036-.036.054a17.138 17.138 0 0 1-5.08 6.087c-.145.091-.29.2-.434.308-.036.037-.09.055-.127.091-.126.09-.253.181-.397.272l.054.108h.018l.76-.108h.017c.47-.073.94-.163 1.41-.254.127-.018.272-.054.398-.09.09-.019.163-.037.253-.055.127-.018.253-.054.38-.072.108-.037.217-.055.325-.09a34.214 34.214 0 0 0 5.243-1.74 28.964 28.964 0 0 1-11.226 9.185 29.687 29.687 0 0 0 6.164-1.069A28.895 28.895 0 0 0 69.004 68.13a28.95 28.95 0 0 1-4.863 11.65 28.473 28.473 0 0 0 4.827-4.023 28.74 28.74 0 0 0 7.61-15.399 28.91 28.91 0 0 1 .525 8.732c13.052-18.243 1.085-37.157-3.923-42.139-.018-.036-.036-.054-.036-.09-.018.018-.018.018-.018.036 0-.019 0-.019-.018-.037 0 .218-.018.435-.036.653-.055.416-.109.815-.181 1.213-.09.399-.199.797-.307 1.196-.127.38-.272.78-.434 1.16a15.86 15.86 0 0 1-.543 1.105 12.13 12.13 0 0 1-.65 1.032c-.235.344-.488.67-.741.979-.272.326-.56.616-.85.905-.18.164-.344.308-.524.453-.145.127-.272.236-.416.363a10.15 10.15 0 0 1-1.013.706 12.54 12.54 0 0 1-1.066.616c-.38.181-.76.344-1.139.508-.38.144-.777.271-1.175.38-.398.109-.814.2-1.211.272-.416.072-.832.108-1.23.145-.289.018-.578.036-.867.036-.416 0-.832-.036-1.23-.073a9.126 9.126 0 0 1-1.229-.18 9.13 9.13 0 0 1-1.211-.309h-.018c.398-.036.795-.072 1.193-.145a12.76 12.76 0 0 0 1.211-.272 12.39 12.39 0 0 0 1.175-.38c.398-.145.778-.326 1.14-.507.379-.181.722-.38 1.084-.598.343-.236.687-.471 1.012-.725.325-.253.633-.525.922-.815.307-.272.579-.58.85-.888.27-.326.524-.652.759-.978.036-.054.072-.127.109-.181.18-.29.361-.58.524-.87a12.447 12.447 0 0 0 .976-2.264c.126-.38.217-.78.307-1.178.073-.417.145-.815.181-1.214.036-.416.072-.833.072-1.232 0-.29-.018-.58-.036-.87-.036-.416-.09-.815-.144-1.213a13.135 13.135 0 0 0-.272-1.214c-.126-.38-.253-.779-.397-1.16a12.72 12.72 0 0 0-.507-1.123 20.51 20.51 0 0 0-.614-1.069 19.99 19.99 0 0 0-.723-.996 37.888 37.888 0 0 0-.832-.924 11.308 11.308 0 0 0-.47-.453 33.301 33.301 0 0 0-2.513-1.775 3.37 3.37 0 0 0-.361-.181c-.597-.38-1.157-.58-1.718-.761Z" fill="#6A6A6A"/></svg>