<svg width="92" height="138" viewBox="0 0 92 138" fill="none" xmlns="http://www.w3.org/2000/svg"><path d="M.774 121.718c0-1.224.276-2.322.828-3.294a6.017 6.017 0 0 1 2.25-2.304c.96-.552 2.022-.828 3.186-.828 1.368 0 2.562.33 3.582.99 1.02.66 1.764 1.596 2.232 2.808H10.89c-.348-.756-.852-1.338-1.512-1.746-.648-.408-1.428-.612-2.34-.612-.876 0-1.662.204-2.358.612-.696.408-1.242.99-1.638 1.746-.396.744-.594 1.62-.594 2.628 0 .996.198 1.872.594 2.628.396.744.942 1.32 1.638 1.728.696.408 1.482.612 2.358.612.912 0 1.692-.198 2.34-.594.66-.408 1.164-.99 1.512-1.746h1.962c-.468 1.2-1.212 2.13-2.232 2.79-1.02.648-2.214.972-3.582.972-1.164 0-2.226-.27-3.186-.81a6.053 6.053 0 0 1-2.25-2.286c-.552-.972-.828-2.07-.828-3.294Zm18.818 6.444c-.924 0-1.764-.21-2.52-.63a4.58 4.58 0 0 1-1.764-1.782c-.42-.78-.63-1.68-.63-2.7 0-1.008.216-1.896.648-2.664a4.51 4.51 0 0 1 1.8-1.782c.756-.42 1.602-.63 2.538-.63.936 0 1.782.21 2.538.63.756.408 1.35.996 1.782 1.764.444.768.666 1.662.666 2.682s-.228 1.92-.684 2.7a4.634 4.634 0 0 1-1.818 1.782c-.768.42-1.62.63-2.556.63Zm0-1.44c.588 0 1.14-.138 1.656-.414.516-.276.93-.69 1.242-1.242.324-.552.486-1.224.486-2.016s-.156-1.464-.468-2.016c-.312-.552-.72-.96-1.224-1.224a3.356 3.356 0 0 0-1.638-.414c-.6 0-1.152.138-1.656.414-.492.264-.888.672-1.188 1.224-.3.552-.45 1.224-.45 2.016 0 .804.144 1.482.432 2.034.3.552.696.966 1.188 1.242a3.372 3.372 0 0 0 1.62.396Zm8.85-6.984a3.16 3.16 0 0 1 1.224-1.314c.54-.312 1.194-.468 1.962-.468v1.692h-.432c-1.836 0-2.754.996-2.754 2.988V128h-1.638v-9.864h1.638v1.602Zm14.077 2.952c0 .312-.018.642-.054.99H34.58c.06.972.39 1.734.99 2.286.612.54 1.35.81 2.214.81.708 0 1.296-.162 1.764-.486.48-.336.816-.78 1.008-1.332h1.764a4.284 4.284 0 0 1-1.584 2.322c-.792.588-1.776.882-2.952.882-.936 0-1.776-.21-2.52-.63a4.492 4.492 0 0 1-1.728-1.782c-.42-.78-.63-1.68-.63-2.7 0-1.02.204-1.914.612-2.682a4.254 4.254 0 0 1 1.71-1.764c.744-.42 1.596-.63 2.556-.63.936 0 1.764.204 2.484.612.72.408 1.272.972 1.656 1.692.396.708.594 1.512.594 2.412Zm-1.692-.342c0-.624-.138-1.158-.414-1.602a2.605 2.605 0 0 0-1.134-1.026c-.468-.24-.99-.36-1.566-.36-.828 0-1.536.264-2.124.792-.576.528-.906 1.26-.99 2.196h6.228Zm12.559-6.894c1.368 0 2.55.258 3.546.774 1.008.504 1.776 1.23 2.304 2.178.54.948.81 2.064.81 3.348 0 1.284-.27 2.4-.81 3.348-.528.936-1.296 1.656-2.304 2.16-.996.492-2.178.738-3.546.738H49.48v-12.546h3.906Zm0 11.196c1.62 0 2.856-.426 3.708-1.278.852-.864 1.278-2.07 1.278-3.618 0-1.56-.432-2.778-1.296-3.654-.852-.876-2.082-1.314-3.69-1.314h-2.268v9.864h2.268Zm8.208-3.618c0-1.008.204-1.89.612-2.646a4.446 4.446 0 0 1 1.674-1.782c.72-.42 1.518-.63 2.394-.63.864 0 1.614.186 2.25.558.636.372 1.11.84 1.422 1.404v-1.8h1.656V128h-1.656v-1.836c-.324.576-.81 1.056-1.458 1.44-.636.372-1.38.558-2.232.558-.876 0-1.668-.216-2.376-.648-.708-.432-1.266-1.038-1.674-1.818-.408-.78-.612-1.668-.612-2.664Zm8.352.018c0-.744-.15-1.392-.45-1.944a3.098 3.098 0 0 0-1.224-1.26 3.211 3.211 0 0 0-1.674-.45c-.612 0-1.17.144-1.674.432a3.134 3.134 0 0 0-1.206 1.26c-.3.552-.45 1.2-.45 1.944 0 .756.15 1.416.45 1.98.3.552.702.978 1.206 1.278a3.314 3.314 0 0 0 1.674.432c.612 0 1.17-.144 1.674-.432.516-.3.924-.726 1.224-1.278.3-.564.45-1.218.45-1.962Zm6.422-3.564v5.814c0 .48.102.822.306 1.026.204.192.558.288 1.062.288h1.206V128h-1.476c-.912 0-1.596-.21-2.052-.63-.456-.42-.684-1.11-.684-2.07v-5.814h-1.278v-1.35h1.278v-2.484h1.638v2.484h2.574v1.35h-2.574Zm3.947 3.546c0-1.008.204-1.89.612-2.646a4.446 4.446 0 0 1 1.674-1.782c.72-.42 1.518-.63 2.394-.63.864 0 1.614.186 2.25.558.636.372 1.11.84 1.422 1.404v-1.8h1.656V128h-1.656v-1.836c-.324.576-.81 1.056-1.458 1.44-.636.372-1.38.558-2.232.558-.876 0-1.668-.216-2.376-.648-.708-.432-1.266-1.038-1.674-1.818-.408-.78-.612-1.668-.612-2.664Zm8.352.018c0-.744-.15-1.392-.45-1.944a3.098 3.098 0 0 0-1.224-1.26 3.211 3.211 0 0 0-1.674-.45c-.612 0-1.17.144-1.674.432a3.134 3.134 0 0 0-1.206 1.26c-.3.552-.45 1.2-.45 1.944 0 .756.15 1.416.45 1.98.3.552.702.978 1.206 1.278a3.314 3.314 0 0 0 1.674.432c.612 0 1.17-.144 1.674-.432.516-.3.924-.726 1.224-1.278.3-.564.45-1.218.45-1.962Z" fill="#A0A0A0"/><path d="M13.458 23.412c0-.13.072-.248.186-.31l-1.141-2.131 1.14 2.131L45.835 5.877a.351.351 0 0 1 .332 0l32.19 17.225a.35.35 0 0 1 .186.31v38.072c0 .13-.072.249-.186.31L46.166 79.02l1.16 2.167-1.16-2.167a.351.351 0 0 1-.332 0l-32.19-17.226a.351.351 0 0 1-.186-.31V23.412Z" fill="#E3E3E3" stroke="#AEAEAE" stroke-width="4.916"/><path d="M45.923 29.809 27.732 32.14a.046.046 0 0 1-.052-.036c-.546-2.825 2.544-8.62 18.27-8.62 12.62 0 17.58 4.588 18.49 6.894a.045.045 0 0 1 .002.025l-5.03 27.842a.05.05 0 0 1-.002.008c-.59 1.6-4.22 4.843-14.046 5.03-9.824.187-14.702-5.454-15.683-8.304a.045.045 0 0 1-.002-.015V49.15c0-.045.06-.065.086-.029C36.042 57.686 47.247 57 52.12 55.684a.045.045 0 0 0 .034-.045V37.9a.054.054 0 0 0-.01-.03l-6.178-8.042a.047.047 0 0 0-.043-.018Z" fill="#fff"/><path d="M45.336 31.799 30.83 33.772a.046.046 0 0 0-.026.08c4.322 3.942 14.271 4.49 18.81 4.268.037-.002.055-.043.034-.073l-4.267-6.228a.047.047 0 0 0-.045-.02Z" fill="#AEAEAE"/><path d="m31.552 47.476-.812-11.479a.047.047 0 0 1 .076-.04c5.603 4.32 14.84 4.496 18.828 4.038a.044.044 0 0 1 .05.046c-.038 2.829-.091 9.412 0 13.602a.047.047 0 0 1-.04.047c-12.698 1.668-17.357-3.437-18.101-6.205a.051.051 0 0 1-.002-.009Z" fill="#AEAEAE"/></svg>