<svg width="101" height="148" viewBox="0 0 101 148" fill="none" xmlns="http://www.w3.org/2000/svg">
<g clip-path="url(#clip0_8570_56166)">
<path d="M82.774 42.9043L66.7188 52.1674L66.7467 52.2234L82.971 70.8593L98.9984 61.54L82.8032 42.9043H82.774Z" fill="#ECECEC"/>
<path d="M82.9675 70.8598L66.9959 80.1498L50.8555 61.3143L66.7152 52.168L66.7431 52.224L82.9675 70.8598Z" fill="#E3E3E3"/>
<path d="M82.8008 42.9034H82.7716L66.7163 52.1665L50.8008 33.6984L66.6047 24.2969H66.6326L82.8008 42.9034Z" fill="#E3E3E3"/>
<path d="M50.9128 89.4932L66.9959 80.1499L50.8555 61.3145L50.9128 89.4932Z" fill="#ECECEC"/>
<path d="M50.8013 33.6992L66.7169 52.1673L50.8571 61.3136L50.7734 33.6992H50.8013Z" fill="#AAAAAA"/>
<path d="M50.7744 33.6994H50.8023L66.6062 24.2979H66.6341L50.7188 6L50.7744 33.6994Z" fill="#ECECEC"/>
<path d="M18.6641 70.6624L50.9154 89.4928L50.8581 61.3141L34.7472 52.1385L18.8596 43.1016L18.6641 70.6624Z" fill="#C2C2C2"/>
<path d="M50.7744 33.6994L50.8581 61.3138L34.7472 52.1382L34.6914 24.6914L50.7744 33.6994Z" fill="#838383"/>
<path d="M50.7188 6L34.6914 24.6647V24.6915L50.7744 33.6994L50.7188 6Z" fill="#C2C2C2"/>
<path d="M34.747 52.1377L18.8594 43.1007L34.6912 24.6641V24.6909L34.747 52.1377Z" fill="#DEDEDE"/>
<path d="M3 61.5403L18.6642 70.6624L18.8598 43.1016L3 61.5403Z" fill="#838383"/>
</g>
<path d="M14.3369 131.538C14.7929 131.61 15.2069 131.796 15.5789 132.096C15.9629 132.396 16.2629 132.768 16.4789 133.212C16.7069 133.656 16.8209 134.13 16.8209 134.634C16.8209 135.27 16.6589 135.846 16.3349 136.362C16.0109 136.866 15.5369 137.268 14.9129 137.568C14.3009 137.856 13.5749 138 12.7349 138H8.05495V125.454H12.5549C13.4069 125.454 14.1329 125.598 14.7329 125.886C15.3329 126.162 15.7829 126.54 16.0829 127.02C16.3829 127.5 16.5329 128.04 16.5329 128.64C16.5329 129.384 16.3289 130.002 15.9209 130.494C15.5249 130.974 14.9969 131.322 14.3369 131.538ZM9.69295 130.872H12.4469C13.2149 130.872 13.8089 130.692 14.2289 130.332C14.6489 129.972 14.8589 129.474 14.8589 128.838C14.8589 128.202 14.6489 127.704 14.2289 127.344C13.8089 126.984 13.2029 126.804 12.4109 126.804H9.69295V130.872ZM12.5909 136.65C13.4069 136.65 14.0429 136.458 14.4989 136.074C14.9549 135.69 15.1829 135.156 15.1829 134.472C15.1829 133.776 14.9429 133.23 14.4629 132.834C13.9829 132.426 13.3409 132.222 12.5369 132.222H9.69295V136.65H12.5909ZM20.732 124.68V138H19.094V124.68H20.732ZM32.2717 128.136V138H30.6337V136.542C30.3217 137.046 29.8837 137.442 29.3197 137.73C28.7677 138.006 28.1557 138.144 27.4837 138.144C26.7157 138.144 26.0257 137.988 25.4137 137.676C24.8017 137.352 24.3157 136.872 23.9557 136.236C23.6077 135.6 23.4337 134.826 23.4337 133.914V128.136H25.0537V133.698C25.0537 134.67 25.2997 135.42 25.7917 135.948C26.2837 136.464 26.9557 136.722 27.8077 136.722C28.6837 136.722 29.3737 136.452 29.8777 135.912C30.3817 135.372 30.6337 134.586 30.6337 133.554V128.136H32.2717ZM44.0374 132.69C44.0374 133.002 44.0194 133.332 43.9834 133.68H36.0994C36.1594 134.652 36.4894 135.414 37.0894 135.966C37.7014 136.506 38.4394 136.776 39.3034 136.776C40.0114 136.776 40.5994 136.614 41.0674 136.29C41.5474 135.954 41.8834 135.51 42.0754 134.958H43.8394C43.5754 135.906 43.0474 136.68 42.2554 137.28C41.4634 137.868 40.4794 138.162 39.3034 138.162C38.3674 138.162 37.5274 137.952 36.7834 137.532C36.0514 137.112 35.4754 136.518 35.0554 135.75C34.6354 134.97 34.4254 134.07 34.4254 133.05C34.4254 132.03 34.6294 131.136 35.0374 130.368C35.4454 129.6 36.0154 129.012 36.7474 128.604C37.4914 128.184 38.3434 127.974 39.3034 127.974C40.2394 127.974 41.0674 128.178 41.7874 128.586C42.5074 128.994 43.0594 129.558 43.4434 130.278C43.8394 130.986 44.0374 131.79 44.0374 132.69ZM42.3454 132.348C42.3454 131.724 42.2074 131.19 41.9314 130.746C41.6554 130.29 41.2774 129.948 40.7974 129.72C40.3294 129.48 39.8074 129.36 39.2314 129.36C38.4034 129.36 37.6954 129.624 37.1074 130.152C36.5314 130.68 36.2014 131.412 36.1174 132.348H42.3454ZM54.5875 129.126C54.5875 130.17 54.2275 131.04 53.5075 131.736C52.7995 132.42 51.7135 132.762 50.2495 132.762H47.8375V138H46.1995V125.454H50.2495C51.6655 125.454 52.7395 125.796 53.4715 126.48C54.2155 127.164 54.5875 128.046 54.5875 129.126ZM50.2495 131.412C51.1615 131.412 51.8335 131.214 52.2655 130.818C52.6975 130.422 52.9135 129.858 52.9135 129.126C52.9135 127.578 52.0255 126.804 50.2495 126.804H47.8375V131.412H50.2495ZM58.2613 129.738C58.5493 129.174 58.9573 128.736 59.4853 128.424C60.0253 128.112 60.6793 127.956 61.4473 127.956V129.648H61.0153C59.1793 129.648 58.2613 130.644 58.2613 132.636V138H56.6233V128.136H58.2613V129.738ZM64.1841 126.534C63.8721 126.534 63.6081 126.426 63.3921 126.21C63.1761 125.994 63.0681 125.73 63.0681 125.418C63.0681 125.106 63.1761 124.842 63.3921 124.626C63.6081 124.41 63.8721 124.302 64.1841 124.302C64.4841 124.302 64.7361 124.41 64.9401 124.626C65.1561 124.842 65.2641 125.106 65.2641 125.418C65.2641 125.73 65.1561 125.994 64.9401 126.21C64.7361 126.426 64.4841 126.534 64.1841 126.534ZM64.9761 128.136V138H63.3381V128.136H64.9761ZM71.2598 138.162C70.5038 138.162 69.8258 138.036 69.2258 137.784C68.6258 137.52 68.1518 137.16 67.8038 136.704C67.4558 136.236 67.2638 135.702 67.2278 135.102H68.9198C68.9678 135.594 69.1958 135.996 69.6038 136.308C70.0238 136.62 70.5698 136.776 71.2418 136.776C71.8658 136.776 72.3578 136.638 72.7178 136.362C73.0778 136.086 73.2578 135.738 73.2578 135.318C73.2578 134.886 73.0658 134.568 72.6818 134.364C72.2978 134.148 71.7038 133.938 70.8998 133.734C70.1678 133.542 69.5678 133.35 69.0998 133.158C68.6438 132.954 68.2478 132.66 67.9118 132.276C67.5878 131.88 67.4258 131.364 67.4258 130.728C67.4258 130.224 67.5758 129.762 67.8758 129.342C68.1758 128.922 68.6018 128.592 69.1538 128.352C69.7058 128.1 70.3358 127.974 71.0438 127.974C72.1358 127.974 73.0178 128.25 73.6898 128.802C74.3618 129.354 74.7218 130.11 74.7698 131.07H73.1318C73.0958 130.554 72.8858 130.14 72.5018 129.828C72.1298 129.516 71.6258 129.36 70.9898 129.36C70.4018 129.36 69.9338 129.486 69.5858 129.738C69.2378 129.99 69.0638 130.32 69.0638 130.728C69.0638 131.052 69.1658 131.322 69.3698 131.538C69.5858 131.742 69.8498 131.91 70.1618 132.042C70.4858 132.162 70.9298 132.3 71.4938 132.456C72.2018 132.648 72.7778 132.84 73.2218 133.032C73.6658 133.212 74.0438 133.488 74.3558 133.86C74.6798 134.232 74.8478 134.718 74.8598 135.318C74.8598 135.858 74.7098 136.344 74.4098 136.776C74.1098 137.208 73.6838 137.55 73.1318 137.802C72.5918 138.042 71.9678 138.162 71.2598 138.162ZM89.0341 127.956C89.8021 127.956 90.4861 128.118 91.0861 128.442C91.6861 128.754 92.1601 129.228 92.5081 129.864C92.8561 130.5 93.0301 131.274 93.0301 132.186V138H91.4101V132.42C91.4101 131.436 91.1641 130.686 90.6721 130.17C90.1921 129.642 89.5381 129.378 88.7101 129.378C87.8581 129.378 87.1801 129.654 86.6761 130.206C86.1721 130.746 85.9201 131.532 85.9201 132.564V138H84.3001V132.42C84.3001 131.436 84.0541 130.686 83.5621 130.17C83.0821 129.642 82.4281 129.378 81.6001 129.378C80.7481 129.378 80.0701 129.654 79.5661 130.206C79.0621 130.746 78.8101 131.532 78.8101 132.564V138H77.1721V128.136H78.8101V129.558C79.1341 129.042 79.5661 128.646 80.1061 128.37C80.6581 128.094 81.2641 127.956 81.9241 127.956C82.7521 127.956 83.4841 128.142 84.1201 128.514C84.7561 128.886 85.2301 129.432 85.5421 130.152C85.8181 129.456 86.2741 128.916 86.9101 128.532C87.5461 128.148 88.2541 127.956 89.0341 127.956Z" fill="#A0A0A0"/>
<defs>
<clipPath id="clip0_8570_56166">
<rect width="96" height="96" fill="white" transform="translate(2.5)"/>
</clipPath>
</defs>
</svg>
