<svg width="98" height="136" viewBox="0 0 98 136" fill="none" xmlns="http://www.w3.org/2000/svg">
<path d="M52.2128 40.0634C52.2124 39.4144 52.3829 38.7768 52.7072 38.2148C53.0314 37.6528 53.498 37.1863 54.0599 36.8622C54.6218 36.5381 55.2591 36.3679 55.9076 36.3688C56.5561 36.3696 57.193 36.5415 57.754 36.8671C61.0978 35.6388 64.8218 34.9961 68.6939 34.9961C79.0628 34.9961 87.9563 39.6302 90.9626 46.2992C90.937 47.8781 88.6954 48.6134 87.8011 47.6444C85.336 42.2878 77.549 38.4318 68.6939 38.4318C65.4755 38.4318 62.3866 38.9234 59.5897 39.8625C59.6171 40.3556 59.5454 40.8492 59.3788 41.314C59.2123 41.7789 58.9542 42.2057 58.62 42.569C58.2857 42.9324 57.882 43.225 57.4328 43.4295C56.9836 43.634 56.4979 43.7463 56.0045 43.7598C55.5112 43.7732 55.0201 43.6875 54.5604 43.5077C54.1007 43.328 53.6818 43.0578 53.3282 42.7132C52.9747 42.3685 52.6939 41.9565 52.5023 41.5013C52.3107 41.0462 52.2123 40.5573 52.2128 40.0634ZM93.6727 53.8061C93.673 53.2168 93.5325 52.636 93.2628 52.1122C92.9931 51.5883 92.6021 51.1367 92.1224 50.7949C91.6426 50.4531 91.0882 50.2312 90.5052 50.1475C89.9223 50.0639 89.3278 50.1211 88.7715 50.3142C88.2151 50.5074 87.713 50.8309 87.3071 51.2578C86.9012 51.6848 86.6032 52.2027 86.4381 52.7683C86.273 53.3339 86.2456 53.9309 86.3581 54.5093C86.4706 55.0877 86.7197 55.6308 87.0848 56.0932C85.9056 57.9072 84.0728 59.5503 81.7245 60.8698C78.0973 62.9047 73.4704 64.0262 68.6925 64.0262C64.5555 64.0262 60.5837 63.2068 57.2029 61.6536C54.9186 60.6033 53.0189 59.2781 51.599 57.7519C50.6577 57.2033 48.4817 58.9532 49.2706 60.287C53.5344 64.7244 60.766 67.4633 68.6925 67.4633C74.0486 67.4633 79.2736 66.1865 83.4049 63.8666C86.4325 62.1666 88.7823 59.9649 90.2605 57.4883C91.1881 57.4172 92.0548 56.9986 92.6874 56.3159C93.3199 55.6333 93.6718 54.737 93.6727 53.8061Z" fill="#E4E4E4"/>
<path d="M22.5554 60.739C19.1888 56.3714 17.282 50.2083 17.282 43.5535C17.282 37.4973 18.8784 31.7816 21.7764 27.4582C24.814 22.9224 28.924 20.4258 33.3472 20.4258C37.3789 20.4258 41.2225 22.5519 44.1718 26.4108C46.9559 30.0559 48.7674 35.0278 49.2701 40.4128C48.0751 39.7521 46.8432 39.1607 45.5803 38.6416C44.1519 30.0816 39.1163 23.8615 33.3472 23.8615C30.1046 23.8615 27.0071 25.818 24.6261 29.3719C22.104 33.1354 20.714 38.1727 20.714 43.555C20.714 49.4716 22.4614 55.0889 25.4278 58.8367C26.2484 58.7549 27.0727 58.9504 27.7693 59.3921C28.4659 59.8338 28.9946 60.4961 29.2711 61.2735C29.5476 62.0509 29.5561 62.8985 29.295 63.6812C29.034 64.464 28.5186 65.1367 27.8309 65.5921C27.1432 66.0476 26.323 66.2595 25.5009 66.1941C24.6789 66.1286 23.9024 65.7897 23.2953 65.2312C22.6883 64.6727 22.2856 63.9269 22.1514 63.1128C22.0173 62.2986 22.1596 61.4629 22.5554 60.739ZM48.8201 42.5261C42.7933 39.0434 36.0687 37.6612 30.5033 38.633C29.9156 38.0553 29.1516 37.6909 28.333 37.5979C27.5144 37.5049 26.6883 37.6886 25.9861 38.1197C25.2839 38.5509 24.746 39.2047 24.4581 39.9771C24.1701 40.7495 24.1487 41.596 24.3972 42.382C24.6457 43.168 25.1498 43.8482 25.8293 44.3144C26.5088 44.7805 27.3246 45.0058 28.1469 44.9543C28.9691 44.9029 29.7505 44.5777 30.3667 44.0305C30.9829 43.4833 31.3985 42.7456 31.5472 41.9347C36.231 41.2422 41.9175 42.5047 47.1026 45.5015C53.4356 49.1595 57.9144 54.8381 58.7902 60.1035C59.8825 60.5595 61.0745 60.9499 62.3647 61.2535C62.0286 54.4135 56.7836 47.1246 48.8201 42.5261ZM49.7301 70.9976C46.4062 71.4208 42.6352 70.8922 38.9269 69.5042C37.8616 70.3279 36.7337 71.1002 35.5489 71.8141C39.488 73.6239 43.615 74.5744 47.443 74.5744C48.3701 74.5744 49.2815 74.5188 50.1659 74.4062C54.75 73.8234 58.3829 71.7543 60.4721 68.5566C59.2897 68.2699 58.1247 67.9155 56.983 67.495C55.3752 69.3717 52.856 70.6 49.7301 70.9976ZM46.0545 57.5C46.8791 57.4911 47.677 57.2062 48.321 56.6907C48.9649 56.1751 49.4177 55.4586 49.6073 54.6555C49.7968 53.8524 49.7121 53.0089 49.3667 52.2596C49.0213 51.5103 48.4351 50.8983 47.7015 50.5212C46.968 50.1441 46.1294 50.0237 45.3195 50.1792C44.5095 50.3346 43.775 50.757 43.2329 51.3789C42.6909 52.0008 42.3726 52.7864 42.3288 53.6104C42.285 54.4345 42.5182 55.2495 42.9912 55.9254C42.2892 57.6154 41.2595 59.3069 39.9465 60.9186C37.9158 63.4095 35.2456 65.6496 32.225 67.3952C28.0083 69.8334 23.4668 71.1415 19.2899 71.1401C18.8542 71.1401 18.4212 71.1259 17.994 71.0974C13.7274 70.8109 10.4862 69.1052 8.86411 66.2965C5.99028 61.3147 8.85557 53.8221 15.5374 48.3116C15.3731 47.0855 15.2733 45.8517 15.2384 44.6152L15.049 44.3515C10.6969 47.4823 7.35029 51.5236 5.62286 55.7273C3.79289 60.1819 3.88831 64.5452 5.89059 68.0137C8.10222 71.8455 12.319 74.1597 17.7633 74.5259C18.2632 74.5587 18.7687 74.5758 19.2786 74.5758C24.0564 74.5758 29.2045 73.108 33.9411 70.3706C39.5876 67.1102 43.9226 62.4533 46.0545 57.5Z" fill="#C0C0C0"/>
<path d="M7.11963 130L4.46363 125.44H2.70363V130H1.24763V118.848H4.84763C5.69029 118.848 6.39963 118.992 6.97563 119.28C7.56229 119.568 7.99963 119.957 8.28763 120.448C8.57563 120.939 8.71963 121.499 8.71963 122.128C8.71963 122.896 8.49563 123.573 8.04763 124.16C7.61029 124.747 6.94896 125.136 6.06363 125.328L8.86363 130H7.11963ZM2.70363 124.272H4.84763C5.63696 124.272 6.22896 124.08 6.62363 123.696C7.01829 123.301 7.21563 122.779 7.21563 122.128C7.21563 121.467 7.01829 120.955 6.62363 120.592C6.23963 120.229 5.64763 120.048 4.84763 120.048H2.70363V124.272ZM18.982 125.28C18.982 125.557 18.966 125.851 18.934 126.16H11.926C11.9793 127.024 12.2727 127.701 12.806 128.192C13.35 128.672 14.006 128.912 14.774 128.912C15.4033 128.912 15.926 128.768 16.342 128.48C16.7687 128.181 17.0673 127.787 17.238 127.296H18.806C18.5713 128.139 18.102 128.827 17.398 129.36C16.694 129.883 15.8193 130.144 14.774 130.144C13.942 130.144 13.1953 129.957 12.534 129.584C11.8833 129.211 11.3713 128.683 10.998 128C10.6247 127.307 10.438 126.507 10.438 125.6C10.438 124.693 10.6193 123.899 10.982 123.216C11.3447 122.533 11.8513 122.011 12.502 121.648C13.1633 121.275 13.9207 121.088 14.774 121.088C15.606 121.088 16.342 121.269 16.982 121.632C17.622 121.995 18.1127 122.496 18.454 123.136C18.806 123.765 18.982 124.48 18.982 125.28ZM17.478 124.976C17.478 124.421 17.3553 123.947 17.11 123.552C16.8647 123.147 16.5287 122.843 16.102 122.64C15.686 122.427 15.222 122.32 14.71 122.32C13.974 122.32 13.3447 122.555 12.822 123.024C12.31 123.493 12.0167 124.144 11.942 124.976H17.478ZM20.3599 125.584C20.3599 124.688 20.5412 123.904 20.9039 123.232C21.2665 122.549 21.7625 122.021 22.3919 121.648C23.0319 121.275 23.7465 121.088 24.5359 121.088C25.2185 121.088 25.8532 121.248 26.4399 121.568C27.0265 121.877 27.4745 122.288 27.7839 122.8V118.16H29.2559V130H27.7839V128.352C27.4959 128.875 27.0692 129.307 26.5039 129.648C25.9385 129.979 25.2772 130.144 24.5199 130.144C23.7412 130.144 23.0319 129.952 22.3919 129.568C21.7625 129.184 21.2665 128.645 20.9039 127.952C20.5412 127.259 20.3599 126.469 20.3599 125.584ZM27.7839 125.6C27.7839 124.939 27.6505 124.363 27.3839 123.872C27.1172 123.381 26.7545 123.008 26.2959 122.752C25.8479 122.485 25.3519 122.352 24.8079 122.352C24.2639 122.352 23.7679 122.48 23.3199 122.736C22.8719 122.992 22.5145 123.365 22.2479 123.856C21.9812 124.347 21.8479 124.923 21.8479 125.584C21.8479 126.256 21.9812 126.843 22.2479 127.344C22.5145 127.835 22.8719 128.213 23.3199 128.48C23.7679 128.736 24.2639 128.864 24.8079 128.864C25.3519 128.864 25.8479 128.736 26.2959 128.48C26.7545 128.213 27.1172 127.835 27.3839 127.344C27.6505 126.843 27.7839 126.261 27.7839 125.6ZM39.4924 121.232V130H38.0364V128.704C37.759 129.152 37.3697 129.504 36.8684 129.76C36.3777 130.005 35.8337 130.128 35.2364 130.128C34.5537 130.128 33.9404 129.989 33.3964 129.712C32.8524 129.424 32.4204 128.997 32.1004 128.432C31.791 127.867 31.6364 127.179 31.6364 126.368V121.232H33.0764V126.176C33.0764 127.04 33.295 127.707 33.7324 128.176C34.1697 128.635 34.767 128.864 35.5244 128.864C36.303 128.864 36.9164 128.624 37.3644 128.144C37.8124 127.664 38.0364 126.965 38.0364 126.048V121.232H39.4924ZM46.5268 130L44.4468 126.736L42.4468 130H40.9268L43.7588 125.648L40.9268 121.232H42.5748L44.6548 124.48L46.6388 121.232H48.1588L45.3428 125.568L48.1748 130H46.5268ZM55.687 123.52V124.752H49.303V123.52H55.687ZM61.5235 130.144C60.8515 130.144 60.2488 130.032 59.7155 129.808C59.1822 129.573 58.7608 129.253 58.4515 128.848C58.1422 128.432 57.9715 127.957 57.9395 127.424H59.4435C59.4862 127.861 59.6888 128.219 60.0515 128.496C60.4248 128.773 60.9102 128.912 61.5075 128.912C62.0622 128.912 62.4995 128.789 62.8195 128.544C63.1395 128.299 63.2995 127.989 63.2995 127.616C63.2995 127.232 63.1288 126.949 62.7875 126.768C62.4462 126.576 61.9182 126.389 61.2035 126.208C60.5528 126.037 60.0195 125.867 59.6035 125.696C59.1982 125.515 58.8462 125.253 58.5475 124.912C58.2595 124.56 58.1155 124.101 58.1155 123.536C58.1155 123.088 58.2488 122.677 58.5155 122.304C58.7822 121.931 59.1608 121.637 59.6515 121.424C60.1422 121.2 60.7022 121.088 61.3315 121.088C62.3022 121.088 63.0862 121.333 63.6835 121.824C64.2808 122.315 64.6008 122.987 64.6435 123.84H63.1875C63.1555 123.381 62.9688 123.013 62.6275 122.736C62.2968 122.459 61.8488 122.32 61.2835 122.32C60.7608 122.32 60.3448 122.432 60.0355 122.656C59.7262 122.88 59.5715 123.173 59.5715 123.536C59.5715 123.824 59.6622 124.064 59.8435 124.256C60.0355 124.437 60.2702 124.587 60.5475 124.704C60.8355 124.811 61.2302 124.933 61.7315 125.072C62.3608 125.243 62.8728 125.413 63.2675 125.584C63.6622 125.744 63.9982 125.989 64.2755 126.32C64.5635 126.651 64.7128 127.083 64.7235 127.616C64.7235 128.096 64.5902 128.528 64.3235 128.912C64.0568 129.296 63.6782 129.6 63.1875 129.824C62.7075 130.037 62.1528 130.144 61.5235 130.144ZM66.2349 125.584C66.2349 124.688 66.4162 123.904 66.7789 123.232C67.1415 122.549 67.6375 122.021 68.2669 121.648C68.9069 121.275 69.6162 121.088 70.3949 121.088C71.1629 121.088 71.8295 121.253 72.3949 121.584C72.9602 121.915 73.3815 122.331 73.6589 122.832V121.232H75.1309V130H73.6589V128.368C73.3709 128.88 72.9389 129.307 72.3629 129.648C71.7975 129.979 71.1362 130.144 70.3789 130.144C69.6002 130.144 68.8962 129.952 68.2669 129.568C67.6375 129.184 67.1415 128.645 66.7789 127.952C66.4162 127.259 66.2349 126.469 66.2349 125.584ZM73.6589 125.6C73.6589 124.939 73.5255 124.363 73.2589 123.872C72.9922 123.381 72.6295 123.008 72.1709 122.752C71.7229 122.485 71.2269 122.352 70.6829 122.352C70.1389 122.352 69.6429 122.48 69.1949 122.736C68.7469 122.992 68.3895 123.365 68.1229 123.856C67.8562 124.347 67.7229 124.923 67.7229 125.584C67.7229 126.256 67.8562 126.843 68.1229 127.344C68.3895 127.835 68.7469 128.213 69.1949 128.48C69.6429 128.736 70.1389 128.864 70.6829 128.864C71.2269 128.864 71.7229 128.736 72.1709 128.48C72.6295 128.213 72.9922 127.835 73.2589 127.344C73.5255 126.843 73.6589 126.261 73.6589 125.6ZM81.2074 121.088C81.9647 121.088 82.626 121.253 83.1914 121.584C83.7674 121.915 84.194 122.331 84.4714 122.832V121.232H85.9434V130.192C85.9434 130.992 85.7727 131.701 85.4314 132.32C85.09 132.949 84.5994 133.44 83.9594 133.792C83.33 134.144 82.594 134.32 81.7514 134.32C80.5994 134.32 79.6394 134.048 78.8714 133.504C78.1034 132.96 77.65 132.219 77.5114 131.28H78.9514C79.1114 131.813 79.442 132.24 79.9434 132.56C80.4447 132.891 81.0474 133.056 81.7514 133.056C82.5514 133.056 83.202 132.805 83.7034 132.304C84.2154 131.803 84.4714 131.099 84.4714 130.192V128.352C84.1834 128.864 83.7567 129.291 83.1914 129.632C82.626 129.973 81.9647 130.144 81.2074 130.144C80.4287 130.144 79.7194 129.952 79.0794 129.568C78.45 129.184 77.954 128.645 77.5914 127.952C77.2287 127.259 77.0474 126.469 77.0474 125.584C77.0474 124.688 77.2287 123.904 77.5914 123.232C77.954 122.549 78.45 122.021 79.0794 121.648C79.7194 121.275 80.4287 121.088 81.2074 121.088ZM84.4714 125.6C84.4714 124.939 84.338 124.363 84.0714 123.872C83.8047 123.381 83.442 123.008 82.9834 122.752C82.5354 122.485 82.0394 122.352 81.4954 122.352C80.9514 122.352 80.4554 122.48 80.0074 122.736C79.5594 122.992 79.202 123.365 78.9354 123.856C78.6687 124.347 78.5354 124.923 78.5354 125.584C78.5354 126.256 78.6687 126.843 78.9354 127.344C79.202 127.835 79.5594 128.213 80.0074 128.48C80.4554 128.736 80.9514 128.864 81.4954 128.864C82.0394 128.864 82.5354 128.736 82.9834 128.48C83.442 128.213 83.8047 127.835 84.0714 127.344C84.338 126.843 84.4714 126.261 84.4714 125.6ZM87.8599 125.584C87.8599 124.688 88.0412 123.904 88.4039 123.232C88.7665 122.549 89.2625 122.021 89.8919 121.648C90.5319 121.275 91.2412 121.088 92.0199 121.088C92.7879 121.088 93.4545 121.253 94.0199 121.584C94.5852 121.915 95.0065 122.331 95.2839 122.832V121.232H96.7559V130H95.2839V128.368C94.9959 128.88 94.5639 129.307 93.9879 129.648C93.4225 129.979 92.7612 130.144 92.0039 130.144C91.2252 130.144 90.5212 129.952 89.8919 129.568C89.2625 129.184 88.7665 128.645 88.4039 127.952C88.0412 127.259 87.8599 126.469 87.8599 125.584ZM95.2839 125.6C95.2839 124.939 95.1505 124.363 94.8839 123.872C94.6172 123.381 94.2545 123.008 93.7959 122.752C93.3479 122.485 92.8519 122.352 92.3079 122.352C91.7639 122.352 91.2679 122.48 90.8199 122.736C90.3719 122.992 90.0145 123.365 89.7479 123.856C89.4812 124.347 89.3479 124.923 89.3479 125.584C89.3479 126.256 89.4812 126.843 89.7479 127.344C90.0145 127.835 90.3719 128.213 90.8199 128.48C91.2679 128.736 91.7639 128.864 92.3079 128.864C92.8519 128.864 93.3479 128.736 93.7959 128.48C94.2545 128.213 94.6172 127.835 94.8839 127.344C95.1505 126.843 95.2839 126.261 95.2839 125.6Z" fill="#AFAFAF"/>
</svg>
