<svg width="40" height="40" viewBox="0 0 40 40" fill="none" xmlns="http://www.w3.org/2000/svg"><path fill-rule="evenodd" clip-rule="evenodd" d="M20 4.067C11.2 4.067 4.066 11.2 4.066 20S11.2 35.933 20 35.933c8.8 0 15.933-7.133 15.933-15.933S28.8 4.067 20 4.067ZM1.933 20c0-9.978 8.089-18.067 18.067-18.067S38.066 10.023 38.066 20c0 9.978-8.088 18.067-18.066 18.067S1.933 29.977 1.933 20Z" fill="#161616"/><path fill-rule="evenodd" clip-rule="evenodd" d="M20 12.567A6.017 6.017 0 1 0 20 24.6a6.017 6.017 0 0 0 0-12.033Zm-8.15 6.016a8.15 8.15 0 1 1 16.3 0 8.15 8.15 0 0 1-16.3 0Z" fill="#161616"/><path fill-rule="evenodd" clip-rule="evenodd" d="M20.003 26.733a11.688 11.688 0 0 0-10.418 6.39 1.067 1.067 0 1 1-1.901-.967 13.822 13.822 0 0 1 24.639 0 1.067 1.067 0 1 1-1.902.967 11.689 11.689 0 0 0-10.418-6.39Z" fill="#161616"/></svg>