<svg width="40" height="40" viewBox="0 0 40 40" fill="none" xmlns="http://www.w3.org/2000/svg"><path d="M35.298 5.564H4.702c-1.627 0-2.947 1.338-2.947 2.979v22.914c0 1.641 1.32 2.979 2.947 2.979h30.596c1.627 0 2.947-1.338 2.947-2.979V8.543c0-1.641-1.32-2.979-2.947-2.979ZM4.702 6.938h30.596c.872 0 1.585.719 1.585 1.605v1.604H3.117V8.543c0-.886.713-1.605 1.585-1.605Zm30.596 26.124H4.702a1.597 1.597 0 0 1-1.585-1.605V11.521h33.766v19.936c0 .886-.713 1.605-1.585 1.605Z" fill="#161616" stroke="#161616" stroke-width=".3"/><path fill-rule="evenodd" clip-rule="evenodd" d="M24.6 17.6v8.8h5.8v-8.8h-5.8ZM24 16a1 1 0 0 0-1 1v4.2h-6V18a1 1 0 0 0-1-1H9a1 1 0 0 0-1 1v7a1 1 0 0 0 1 1h7a1 1 0 0 0 1-1v-2.2h6V27a1 1 0 0 0 1 1h7a1 1 0 0 0 1-1V17a1 1 0 0 0-1-1h-7ZM9.6 18.6v5.8h5.8v-5.8H9.6Z" fill="#161616"/></svg>