<svg width="40" height="40" viewBox="0 0 40 40" fill="none" xmlns="http://www.w3.org/2000/svg"><path d="M12.5 28.333H4.185A1.176 1.176 0 0 1 3 27.167v-21C3 5.522 3.53 5 4.185 5h26.073c.654 0 1.185.522 1.185 1.167V12M25.82 29.469c2.593 0 4.696-2.153 4.696-4.81 0-2.656-2.102-4.809-4.696-4.809-2.593 0-4.696 2.153-4.696 4.81 0 2.656 2.103 4.809 4.696 4.809Z" stroke="#161616" stroke-width="1.905" stroke-linecap="round" stroke-linejoin="round"/><path d="m25.323 16.225-1.825-1.4a.764.764 0 0 0-.695-.124 9.871 9.871 0 0 0-1.638.694.803.803 0 0 0-.407.59l-.323 2.313a8.318 8.318 0 0 0-.701.718h0l-2.258.33a.764.764 0 0 0-.576.416 10.367 10.367 0 0 0-.68 1.677.81.81 0 0 0 .12.712l1.37 1.868a8.622 8.622 0 0 0 0 1.016h0l-1.37 1.868a.802.802 0 0 0-.12.71c.177.58.404 1.14.678 1.678a.772.772 0 0 0 .577.417l2.259.33a8.42 8.42 0 0 0 .701.718h0l.323 2.312a.802.802 0 0 0 .406.59 9.877 9.877 0 0 0 1.638.695.757.757 0 0 0 .696-.123l1.825-1.402a8.15 8.15 0 0 0 .992 0h0l1.825 1.401a.765.765 0 0 0 .694.123 9.863 9.863 0 0 0 1.64-.694.78.78 0 0 0 .406-.59l.323-2.312a8.378 8.378 0 0 0 .701-.718h0l2.258-.33a.762.762 0 0 0 .337-.137.786.786 0 0 0 .24-.28c.274-.536.501-1.098.679-1.676a.811.811 0 0 0-.12-.712l-1.37-1.868a8.713 8.713 0 0 0 0-1.016h0l1.369-1.868a.801.801 0 0 0 .12-.711 10.369 10.369 0 0 0-.678-1.678.788.788 0 0 0-.239-.279.764.764 0 0 0-.337-.137l-2.259-.33a8.48 8.48 0 0 0-.701-.718h0l-.323-2.312a.802.802 0 0 0-.406-.59 9.872 9.872 0 0 0-1.638-.695.757.757 0 0 0-.696.123l-1.825 1.401a8.066 8.066 0 0 0-.992 0h0Z" stroke="#161616" stroke-width="1.905" stroke-linecap="round" stroke-linejoin="round"/></svg>