<svg width="181" height="33" viewBox="0 0 181 33" fill="none" xmlns="http://www.w3.org/2000/svg"><path d="M93.54 24.664c0 3.902-3.238 7.065-7.233 7.065-3.995 0-7.233-3.163-7.233-7.065 0-3.901 3.238-7.064 7.233-7.064 3.995 0 7.233 3.163 7.233 7.064Z" fill="#858585"/><path d="M107.844 14.774c0 3.9-3.238 7.064-7.232 7.064-3.995 0-7.233-3.164-7.233-7.064 0-3.902 3.238-7.066 7.233-7.066 3.994 0 7.232 3.164 7.232 7.066Z" fill="#848484"/><path d="M90.165 14.617c0 3.901-3.238 7.065-7.233 7.065-3.994 0-7.233-3.164-7.233-7.064 0-3.902 3.239-7.066 7.233-7.066 3.995 0 7.233 3.164 7.233 7.066Z" fill="#9A9A9A"/><path d="M104.63 24.664c0 3.902-3.238 7.065-7.233 7.065-3.995 0-7.233-3.163-7.233-7.065 0-3.901 3.239-7.064 7.233-7.064 3.995 0 7.233 3.163 7.233 7.064Z" fill="#878787"/><path d="M99.005 8.338c0 3.901-3.239 7.064-7.233 7.064-3.995 0-7.233-3.163-7.233-7.064 0-3.902 3.239-7.065 7.233-7.065 3.994 0 7.233 3.163 7.233 7.065Z" fill="#777"/><path d="M93.379 14.774c0 .148.013.294.023.44 3.208-.723 5.602-3.524 5.602-6.877 0-.149-.013-.295-.023-.442-3.208.724-5.602 3.525-5.602 6.879Z" fill="#555454"/><path d="M94.332 18.271a7.258 7.258 0 0 0 6.279 3.567 7.337 7.337 0 0 0 3.064-.672 7.258 7.258 0 0 0-6.28-3.567 7.335 7.335 0 0 0-3.063.672m-4.168 6.393a6.93 6.93 0 0 0 1.688 4.532 6.937 6.937 0 0 0 1.687-4.532 6.937 6.937 0 0 0-1.687-4.532 6.932 6.932 0 0 0-1.688 4.532m-10.098-3.561a7.347 7.347 0 0 0 2.864.579 7.256 7.256 0 0 0 6.24-3.504 7.348 7.348 0 0 0-2.864-.578 7.256 7.256 0 0 0-6.24 3.503" fill="#6A6A6A"/><path d="M84.57 7.74a6.939 6.939 0 0 0-.03.597c0 3.35 2.39 6.15 5.594 6.875.017-.196.031-.394.031-.595 0-3.35-2.39-6.15-5.595-6.876Z" fill="#5F5F5F"/><path d="M85.247 23.79h-1.131c-.999 0-1.811-.791-1.811-1.764V12.023c0-.973.812-1.765 1.81-1.765h14.188c1 0 1.811.792 1.811 1.765v10.003c0 .973-.812 1.763-1.81 1.763H93.47l-9.697 4.643 1.474-4.643Z" fill="#fff"/><path d="m20.929 25.363-3.983-14.43-4.034 14.43c-.314 1.094-.566 1.882-.756 2.364-.18.47-.499.897-.958 1.28-.46.372-1.07.558-1.832.558-.616 0-1.126-.115-1.53-.345a2.588 2.588 0 0 1-.958-.935 6.087 6.087 0 0 1-.605-1.461 89.33 89.33 0 0 1-.42-1.576l-4.1-16.202c-.247-.941-.37-1.658-.37-2.15 0-.624.224-1.15.672-1.576.448-.427 1.003-.64 1.664-.64.907 0 1.518.284 1.832.853.314.569.588 1.395.823 2.479l3.227 14.051 3.614-13.148c.269-1.007.51-1.773.722-2.298.213-.526.56-.98 1.042-1.363s1.138-.574 1.967-.574c.84 0 1.49.202 1.95.607.47.394.795.826.974 1.297.18.47.42 1.247.723 2.33l3.647 13.15 3.227-14.052c.157-.733.302-1.308.437-1.724.145-.416.386-.788.722-1.116.348-.328.846-.493 1.496-.493s1.2.214 1.647.64c.46.416.69.942.69 1.577 0 .448-.124 1.165-.37 2.15l-4.101 16.202c-.28 1.094-.515 1.899-.706 2.413-.18.503-.493.947-.941 1.33-.437.383-1.059.574-1.866.574-.762 0-1.372-.186-1.832-.558-.459-.372-.778-.788-.958-1.248-.179-.47-.431-1.269-.756-2.396Zm26.469-3.809h-8.975c.012 1.018.219 1.915.622 2.692.415.777.958 1.362 1.63 1.756a4.43 4.43 0 0 0 2.253.591c.549 0 1.047-.06 1.495-.18a5.29 5.29 0 0 0 1.328-.591c.426-.274.818-.564 1.177-.87a54.14 54.14 0 0 0 1.395-1.248c.235-.197.571-.295 1.008-.295.47 0 .851.126 1.143.377.291.252.437.608.437 1.067 0 .405-.163.881-.488 1.428-.325.537-.818 1.056-1.479 1.56-.65.492-1.473.903-2.47 1.231-.986.328-2.123.492-3.412.492-2.947 0-5.238-.82-6.874-2.462-1.636-1.641-2.454-3.868-2.454-6.68 0-1.325.202-2.55.605-3.678.404-1.138.992-2.112 1.765-2.922.773-.81 1.726-1.428 2.857-1.855 1.132-.438 2.387-.657 3.765-.657 1.793 0 3.328.373 4.605 1.117 1.289.733 2.252 1.685 2.89 2.856.64 1.171.959 2.364.959 3.579 0 1.127-.33 1.86-.992 2.2-.66.328-1.59.492-2.79.492Zm-8.975-2.544h8.32c-.112-1.533-.538-2.676-1.278-3.431-.728-.766-1.692-1.15-2.89-1.15-1.143 0-2.084.39-2.824 1.166-.728.766-1.17 1.904-1.328 3.414Zm20.37-11.769v6.845c.863-.875 1.742-1.543 2.639-2.002.896-.47 2.005-.706 3.327-.706 1.524 0 2.858.355 4 1.067 1.154.7 2.045 1.723 2.673 3.07.638 1.335.958 2.921.958 4.76 0 1.357-.18 2.605-.538 3.743-.348 1.127-.857 2.106-1.53 2.938a6.98 6.98 0 0 1-2.453 1.937c-.953.449-2.006.673-3.16.673a7.877 7.877 0 0 1-2-.246c-.616-.164-1.143-.378-1.58-.64a7.974 7.974 0 0 1-1.126-.837 20.77 20.77 0 0 1-1.21-1.28v.442c0 .843-.207 1.483-.622 1.92-.414.428-.94.641-1.58.641-.65 0-1.17-.213-1.563-.64-.38-.438-.571-1.078-.571-1.92V7.437c0-.908.185-1.592.555-2.052.38-.47.907-.706 1.58-.706.705 0 1.249.225 1.63.673.38.438.571 1.067.571 1.888Zm.218 13.313c0 1.784.415 3.157 1.244 4.12.84.953 1.938 1.428 3.294 1.428 1.154 0 2.146-.486 2.975-1.46.84-.985 1.26-2.392 1.26-4.22 0-1.181-.173-2.199-.52-3.053-.348-.853-.84-1.51-1.48-1.97-.638-.47-1.383-.705-2.235-.705-.874 0-1.652.235-2.336.706-.684.46-1.221 1.132-1.613 2.019-.393.875-.589 1.92-.589 3.135Zm59.589-2.223h-1.839v8.132c0 1.07-.241 1.859-.724 2.365-.483.506-1.114.76-1.892.76-.836 0-1.484-.265-1.944-.794-.459-.53-.689-1.307-.689-2.331V6.989c0-1.105.253-1.905.76-2.4.506-.495 1.325-.742 2.457-.742h8.537c1.179 0 2.186.052 3.023.155.836.092 1.59.288 2.262.587a6.568 6.568 0 0 1 2.157 1.433 6.156 6.156 0 0 1 1.414 2.175c.33.817.495 1.686.495 2.607 0 1.888-.548 3.396-1.644 4.523-1.084 1.128-2.734 1.928-4.95 2.4.931.484 1.821 1.197 2.67 2.141.848.944 1.602 1.95 2.262 3.021.672 1.059 1.19 2.02 1.556 2.883.377.852.565 1.439.565 1.761 0 .334-.112.668-.336 1.001a2.168 2.168 0 0 1-.883.76c-.377.196-.813.293-1.308.293-.59 0-1.085-.138-1.485-.414a3.945 3.945 0 0 1-1.043-1.018 48.54 48.54 0 0 1-1.167-1.83l-2.103-3.419c-.754-1.254-1.432-2.21-2.033-2.866-.589-.656-1.19-1.104-1.803-1.346-.612-.242-1.384-.363-2.315-.363Zm3.005-10.634h-4.844v6.957h4.702c1.261 0 2.322-.103 3.182-.31.86-.22 1.514-.582 1.962-1.088.459-.518.689-1.226.689-2.124 0-.702-.182-1.317-.548-1.847-.365-.54-.872-.944-1.52-1.208-.613-.254-1.821-.38-3.623-.38Zm31.056.379h-5.727v18.386c0 1.059-.241 1.847-.724 2.365-.483.507-1.108.76-1.874.76-.778 0-1.414-.26-1.909-.777-.483-.518-.725-1.3-.725-2.348V8.076h-5.726c-.896 0-1.562-.19-1.998-.57-.436-.391-.654-.904-.654-1.537 0-.656.224-1.174.672-1.553.459-.38 1.119-.57 1.98-.57h16.686c.907 0 1.579.195 2.015.587.447.391.671.903.671 1.536s-.224 1.145-.671 1.537c-.448.38-1.12.57-2.015.57h-.001Zm26.957 13.086c0 .806-.206 1.68-.619 2.625-.4.932-1.037 1.853-1.909 2.762-.872.898-1.985 1.629-3.341 2.192-1.355.564-2.934.846-4.737.846-1.367 0-2.61-.126-3.729-.38a10.896 10.896 0 0 1-3.058-1.173c-.908-.541-1.744-1.25-2.51-2.124a12.597 12.597 0 0 1-1.75-2.658 14.193 14.193 0 0 1-1.096-3.16 17.17 17.17 0 0 1-.353-3.556c0-2.037.3-3.862.901-5.473.613-1.611 1.485-2.987 2.616-4.126a11.332 11.332 0 0 1 3.977-2.624c1.52-.599 3.141-.898 4.861-.898 2.098 0 3.966.409 5.604 1.226s2.893 1.83 3.765 3.038c.872 1.197 1.308 2.331 1.308 3.401 0 .587-.213 1.105-.637 1.554a2.038 2.038 0 0 1-1.538.673c-.671 0-1.178-.155-1.52-.466-.33-.31-.701-.846-1.113-1.605-.684-1.255-1.491-2.193-2.422-2.814-.919-.622-2.056-.932-3.411-.932-2.157 0-3.877.8-5.162 2.4-1.272 1.6-1.909 3.872-1.909 6.819 0 1.968.283 3.608.849 4.92.565 1.3 1.367 2.273 2.404 2.918 1.037.644 2.25.967 3.641.967 1.508 0 2.781-.363 3.818-1.088 1.049-.737 1.838-1.813 2.368-3.228.224-.668.501-1.209.831-1.623.33-.426.86-.64 1.591-.64a2.25 2.25 0 0 1 1.608.64c.448.426.672.955.672 1.588Z" fill="#6A6A6A"/></svg>