<svg width="45" height="45" viewBox="0 0 45 45" fill="none" xmlns="http://www.w3.org/2000/svg"><path fill-rule="evenodd" clip-rule="evenodd" d="M22.04 1.297c11.5 0 20.825 9.325 20.825 20.826 0 11.501-9.324 20.826-20.826 20.826-11.5 0-20.825-9.325-20.825-20.826 0-11.501 9.324-20.826 20.825-20.826Z" fill="#FFE603"/><path clip-rule="evenodd" d="M22.04 1.297c11.5 0 20.825 9.325 20.825 20.826 0 11.501-9.324 20.826-20.826 20.826-11.5 0-20.825-9.325-20.825-20.826 0-11.501 9.324-20.826 20.825-20.826Z" stroke="#161616" stroke-width=".5" stroke-linejoin="round"/><path fill-rule="evenodd" clip-rule="evenodd" d="m9.984 26.455 1.151 1.759c6.949-4.542 14.107-4.521 21.893.02l1.068-1.8c-8.435-4.94-16.535-4.94-24.112.021Z" fill="#161616"/><path fill-rule="evenodd" clip-rule="evenodd" d="M22.06 31.772a1.47 1.47 0 0 1-1.464-1.465c0-.796.67-1.465 1.465-1.465s1.465.67 1.465 1.465a1.47 1.47 0 0 1-1.465 1.465Zm0-5.044a3.555 3.555 0 0 0-3.558 3.558 3.555 3.555 0 0 0 3.559 3.558 3.555 3.555 0 0 0 3.558-3.558 3.555 3.555 0 0 0-3.558-3.559Zm-1.486-7.221 1.465 1.465 9.105-9.084-1.486-1.486L22.081 18l-7.618-7.619-1.486 1.486 7.618 7.598-.02.042Z" fill="#161616"/><path fill-rule="evenodd" clip-rule="evenodd" d="M22.04 42.07c-11.01 0-19.947-8.959-19.947-19.947S11.051 2.177 22.04 2.177c11.009 0 19.946 8.958 19.946 19.946 0 10.988-8.958 19.946-19.946 19.946Zm0-41.987C9.88.083 0 9.963 0 22.123c0 12.16 9.88 22.04 22.04 22.04 12.16 0 22.04-9.88 22.04-22.04 0-12.16-9.88-22.04-22.04-22.04Z" fill="#161616"/></svg>