<svg xmlns="http://www.w3.org/2000/svg" width="19" height="20" viewBox="0 0 19 20">
    <g fill="#FFF" fill-rule="evenodd">
        <ellipse cx="14.307" cy="4.666" rx="1.047" ry="1.077"/>
        <path fill-rule="nonzero" d="M4.885 2.153c-1.541 0-2.791 1.286-2.791 2.871v9.332c0 1.585 1.25 2.87 2.791 2.87h9.073c1.542 0 2.792-1.285 2.792-2.87V5.024c0-1.585-1.25-2.87-2.792-2.87H4.885zm0-2.153h9.073c2.699 0 4.886 2.25 4.886 5.024v9.332c0 2.774-2.187 5.024-4.886 5.024H4.885C2.187 19.38 0 17.13 0 14.356V5.024C0 2.25 2.187 0 4.885 0z"/>
        <path fill-rule="nonzero" d="M9.422 14.714c-2.698 0-4.886-2.25-4.886-5.024 0-2.775 2.188-5.024 4.886-5.024s4.885 2.25 4.885 5.024c0 2.775-2.187 5.024-4.885 5.024zm0-2.153c1.542 0 2.792-1.285 2.792-2.871s-1.25-2.871-2.792-2.871C7.88 6.819 6.63 8.104 6.63 9.69s1.25 2.871 2.792 2.871z"/>
    </g>
</svg>
