<svg xmlns="http://www.w3.org/2000/svg" xmlns:xlink="http://www.w3.org/1999/xlink" width="111" height="111" viewBox="0 0 111 111">
    <defs>
        <path id="a" d="M.019.013H90.72V90.72H.019z"/>
    </defs>
    <g fill="none" fill-rule="evenodd">
        <path fill="#000" d="M55.44 50.4V40.32c-8.339 0-15.12 6.781-15.12 15.12H50.4c0-2.78 2.26-5.04 5.04-5.04zM55.44 70.56c8.339 0 15.12-6.781 15.12-15.12H60.48c0 2.78-2.26 5.04-5.04 5.04v10.08zM55.44 30.24V20.16c-19.455 0-35.28 15.825-35.28 35.28h10.08c0-13.896 11.304-25.2 25.2-25.2z"/>
        <g>
            <mask id="b" fill="#fff">
                <use xlink:href="#a"/>
            </mask>
            <path fill="#000" d="M55.44 80.64v10.08c19.455 0 35.28-15.825 35.28-35.28H80.64c0 13.896-11.304 25.2-25.2 25.2zM0 55.44h10.08c0-25.01 20.35-45.36 45.36-45.36V0C24.87 0 0 24.87 0 55.44z" mask="url(#b)"/>
        </g>
        <path fill="#000" d="M110.88 55.44H100.8c0 25.01-20.35 45.36-45.36 45.36v10.08c30.57 0 55.44-24.87 55.44-55.44z"/>
    </g>
</svg>
