<svg width="24" height="24" viewBox="0 0 24 24" fill="none" xmlns="http://www.w3.org/2000/svg">
<path d="M21.5813 7.19989L22.5654 7.02237C22.5615 7.00046 22.5568 6.97868 22.5514 6.95708L21.5813 7.19989ZM19.8178 5.3818L20.09 4.41957C20.0784 4.41628 20.0667 4.41321 20.055 4.41034L19.8178 5.3818ZM12 5V4V5ZM4.18222 5.41816L3.92386 4.45211C3.91923 4.45335 3.91461 4.45462 3.90999 4.45593L4.18222 5.41816ZM2.41868 7.23625L1.44861 6.99344C1.44319 7.01506 1.43851 7.03685 1.43455 7.05877L2.41868 7.23625ZM2.00052 12.0451L3.00056 12.0514L3.00051 12.0401L2.00052 12.0451ZM2.41868 16.8903L1.43456 17.0678C1.44042 17.1003 1.44788 17.1325 1.45692 17.1642L2.41868 16.8903ZM4.18222 18.6357L3.9183 19.6002L3.92386 19.6017L4.18222 18.6357ZM12 19.0538V18.0538V19.0538ZM19.8178 18.6357L20.0761 19.6017C20.0808 19.6005 20.0854 19.5992 20.09 19.5979L19.8178 18.6357ZM21.5813 16.8176L22.5514 17.0604C22.5568 17.0387 22.5615 17.0169 22.5655 16.995L21.5813 16.8176ZM21.9995 12.0451L20.9995 12.0388L20.9995 12.0487L21.9995 12.0451ZM10.9826 15.2076L10.4418 14.3664L10.9826 15.2076ZM10.2144 15.5829L10.1431 16.5804L10.2144 15.5829ZM9.84974 15.3838L10.6503 14.7845L9.84974 15.3838ZM14.9254 11.3271L14.3847 12.1682L14.9254 11.3271ZM15.5082 11.8054L16.4293 11.4162L15.5082 11.8054ZM14.9254 12.6729L15.4662 13.5141L14.9254 12.6729ZM15.5082 12.1946L16.4293 12.5838L15.5082 12.1946ZM10.9826 8.79239L11.5234 7.95121L10.9826 8.79239ZM10.2144 8.4171L10.1431 7.41964L10.2144 8.4171ZM9.84974 8.61618L10.6503 9.21549L9.84974 8.61618ZM22.5514 6.95708C22.4007 6.35494 22.0937 5.80324 21.6616 5.35769L20.226 6.75021C20.4131 6.94312 20.546 7.18199 20.6112 7.44269L22.5514 6.95708ZM21.6616 5.35769C21.2294 4.91215 20.6873 4.58855 20.09 4.41957L19.5455 6.34403C19.8041 6.41719 20.0389 6.5573 20.226 6.75021L21.6616 5.35769ZM20.055 4.41034C19.5684 4.29152 18.802 4.21649 18.0031 4.16328C17.1782 4.10835 16.2352 4.07212 15.3497 4.04809C14.4627 4.02403 13.6259 4.01202 13.0114 4.00601C12.704 4.00301 12.4517 4.00151 12.2761 4.00075C12.1882 4.00038 12.1195 4.00019 12.0726 4.0001C12.0492 4.00005 12.0312 4.00002 12.019 4.00001C12.0129 4.00001 12.0082 4 12.005 4C12.0034 4 12.0022 4 12.0014 4C12.001 4 12.0006 4 12.0004 4C12.0003 4 12.0002 4 12.0001 4C12.0001 4 12 4 12 5C12 6 12 6 12 6C12 6 12.0001 6 12.0002 6C12.0003 6 12.0006 6 12.0009 6C12.0016 6 12.0026 6 12.0041 6C12.0069 6 12.0112 6.00001 12.017 6.00001C12.0286 6.00002 12.0459 6.00005 12.0686 6.00009C12.1141 6.00018 12.1813 6.00037 12.2675 6.00074C12.44 6.00148 12.6886 6.00296 12.9919 6.00592C13.5989 6.01185 14.4234 6.0237 15.2954 6.04736C16.1689 6.07106 17.0826 6.10641 17.8702 6.15886C18.6836 6.21303 19.2854 6.28118 19.5806 6.35326L20.055 4.41034ZM12 5C12 4 11.9999 4 11.9999 4C11.9998 4 11.9997 4 11.9996 4C11.9993 4 11.999 4 11.9986 4C11.9978 4 11.9965 4 11.9949 4C11.9917 4 11.9871 4.00001 11.9809 4.00001C11.9687 4.00003 11.9507 4.00005 11.9272 4.0001C11.8802 4.00021 11.8114 4.00042 11.7235 4.00083C11.5477 4.00165 11.2953 4.0033 10.9877 4.00659C10.3728 4.01317 9.53547 4.02633 8.64774 4.05271C7.76162 4.07904 6.81723 4.11877 5.99063 4.17906C5.192 4.23731 4.4184 4.31985 3.92386 4.45211L4.44059 6.38421C4.72783 6.30739 5.32234 6.23312 6.13612 6.17376C6.92194 6.11645 7.83427 6.07777 8.70715 6.05183C9.57842 6.02594 10.4024 6.01297 11.009 6.00648C11.3122 6.00323 11.5606 6.00161 11.7329 6.00081C11.8191 6.0004 11.8862 6.0002 11.9316 6.0001C11.9543 6.00005 11.9716 6.00002 11.9831 6.00001C11.9888 6.00001 11.9932 6 11.996 6C11.9974 6 11.9985 6 11.9991 6C11.9995 6 11.9997 6 11.9998 6C11.9999 6 12 6 12 6C12 6 12 6 12 5ZM3.90999 4.45593C3.31272 4.62491 2.77062 4.94851 2.33844 5.39405L3.77403 6.78657C3.96115 6.59366 4.19586 6.45355 4.45446 6.38039L3.90999 4.45593ZM2.33844 5.39405C1.90627 5.8396 1.59932 6.3913 1.44861 6.99344L3.38875 7.47905C3.45401 7.21835 3.58691 6.97948 3.77403 6.78657L2.33844 5.39405ZM1.43455 7.05877C1.13755 8.70575 0.992263 10.3765 1.00053 12.05L3.00051 12.0401C2.99284 10.4889 3.12751 8.94032 3.40281 7.41372L1.43455 7.05877ZM1.00054 12.0388C0.989952 13.7249 1.13524 15.4084 1.43456 17.0678L3.4028 16.7128C3.12536 15.1747 2.99069 13.6142 3.0005 12.0514L1.00054 12.0388ZM1.45692 17.1642C1.62308 17.7476 1.9369 18.2783 2.36807 18.7051L3.77494 17.2835C3.58825 17.0988 3.45238 16.869 3.38044 16.6164L1.45692 17.1642ZM2.36807 18.7051C2.79924 19.1318 3.33318 19.4401 3.91831 19.6002L4.44614 17.6711C4.1928 17.6018 3.96162 17.4683 3.77494 17.2835L2.36807 18.7051ZM3.92386 19.6017C4.4184 19.734 5.192 19.8165 5.99063 19.8748C6.81723 19.935 7.76162 19.9748 8.64774 20.0011C9.53547 20.0275 10.3728 20.0406 10.9877 20.0472C11.2953 20.0505 11.5477 20.0522 11.7235 20.053C11.8114 20.0534 11.8802 20.0536 11.9272 20.0537C11.9507 20.0538 11.9687 20.0538 11.9809 20.0538C11.9871 20.0538 11.9917 20.0538 11.9949 20.0538C11.9965 20.0538 11.9978 20.0538 11.9986 20.0538C11.999 20.0538 11.9993 20.0538 11.9996 20.0538C11.9997 20.0538 11.9998 20.0538 11.9999 20.0538C11.9999 20.0538 12 20.0538 12 19.0538C12 18.0538 12 18.0538 12 18.0538C12 18.0538 11.9999 18.0538 11.9998 18.0538C11.9997 18.0538 11.9995 18.0538 11.9991 18.0538C11.9985 18.0538 11.9974 18.0538 11.996 18.0538C11.9932 18.0538 11.9888 18.0538 11.9831 18.0538C11.9716 18.0538 11.9543 18.0538 11.9316 18.0537C11.8862 18.0536 11.8191 18.0534 11.7329 18.053C11.5606 18.0522 11.3122 18.0506 11.009 18.0473C10.4024 18.0408 9.57842 18.0279 8.70715 18.002C7.83427 17.976 6.92194 17.9374 6.13612 17.8801C5.32234 17.8207 4.72783 17.7464 4.44059 17.6696L3.92386 19.6017ZM12 19.0538C12 20.0538 12.0001 20.0538 12.0001 20.0538C12.0002 20.0538 12.0003 20.0538 12.0004 20.0538C12.0007 20.0538 12.001 20.0538 12.0014 20.0538C12.0022 20.0538 12.0035 20.0538 12.0051 20.0538C12.0083 20.0538 12.0129 20.0538 12.0191 20.0538C12.0313 20.0538 12.0493 20.0538 12.0728 20.0537C12.1198 20.0536 12.1886 20.0534 12.2765 20.053C12.4523 20.0522 12.7047 20.0505 13.0124 20.0472C13.6272 20.0406 14.4645 20.0275 15.3523 20.0011C16.2384 19.9748 17.1828 19.935 18.0094 19.8748C18.808 19.8165 19.5816 19.734 20.0761 19.6017L19.5594 17.6696C19.2722 17.7464 18.6777 17.8207 17.8639 17.8801C17.0781 17.9374 16.1657 17.976 15.2929 18.002C14.4216 18.0279 13.5976 18.0408 12.991 18.0473C12.6878 18.0506 12.4394 18.0522 12.2671 18.053C12.1809 18.0534 12.1138 18.0536 12.0684 18.0537C12.0457 18.0538 12.0284 18.0538 12.0169 18.0538C12.0112 18.0538 12.0068 18.0538 12.004 18.0538C12.0026 18.0538 12.0015 18.0538 12.0009 18.0538C12.0005 18.0538 12.0003 18.0538 12.0002 18.0538C12.0001 18.0538 12 18.0538 12 18.0538C12 18.0538 12 18.0538 12 19.0538ZM20.09 19.5979C20.6873 19.4289 21.2294 19.1053 21.6616 18.6598L20.226 17.2672C20.0389 17.4602 19.8041 17.6003 19.5455 17.6734L20.09 19.5979ZM21.6616 18.6598C22.0937 18.2142 22.4007 17.6625 22.5514 17.0604L20.6112 16.5748C20.546 16.8355 20.4131 17.0743 20.226 17.2672L21.6616 18.6598ZM22.5655 16.995C22.8602 15.3604 23.0054 13.7024 22.9995 12.0415L20.9995 12.0487C21.005 13.5882 20.8704 15.125 20.5972 16.6401L22.5655 16.995ZM22.9995 12.0514C23.01 10.3652 22.8648 8.68175 22.5654 7.02237L20.5972 7.3774C20.8746 8.91549 21.0093 10.4759 20.9995 12.0388L22.9995 12.0514ZM10.4418 9.63357L14.3847 12.1682L15.4662 10.4859L11.5234 7.95121L10.4418 9.63357ZM14.3847 11.8318L10.4418 14.3664L11.5234 16.0488L15.4662 13.5141L14.3847 11.8318ZM10.75 14.5347V9.46533H8.75V14.5347H10.75ZM10.4418 14.3664C10.3394 14.4323 10.2593 14.4837 10.1902 14.5265C10.1205 14.5697 10.0768 14.5947 10.0485 14.6094C10.0189 14.6248 10.0275 14.6176 10.0619 14.6074C10.1009 14.5957 10.1803 14.5779 10.2856 14.5854L10.1431 16.5804C10.5111 16.6066 10.8082 16.4687 10.9719 16.3835C11.1434 16.2943 11.3393 16.1671 11.5234 16.0488L10.4418 14.3664ZM8.75 14.5347C8.75 14.7535 8.74899 14.9871 8.76664 15.1796C8.7835 15.3634 8.82813 15.6878 9.04923 15.9831L10.6503 14.7845C10.7135 14.869 10.7415 14.9454 10.7528 14.9846C10.7628 15.0191 10.7613 15.0301 10.7583 14.997C10.7554 14.9652 10.7528 14.9149 10.7514 14.833C10.75 14.7516 10.75 14.6565 10.75 14.5347H8.75ZM10.2856 14.5854C10.4303 14.5958 10.5633 14.6684 10.6503 14.7845L9.04923 15.9831C9.30999 16.3314 9.70914 16.5494 10.1431 16.5804L10.2856 14.5854ZM14.3847 12.1682C14.4739 12.2256 14.5422 12.2696 14.5999 12.3081C14.658 12.3468 14.6909 12.3706 14.7099 12.3854C14.7294 12.4006 14.7173 12.3934 14.6932 12.3664C14.6661 12.3358 14.6225 12.2786 14.587 12.1946L16.4293 11.4162C16.2995 11.1089 16.0793 10.917 15.9398 10.8083C15.8007 10.6998 15.6241 10.5874 15.4662 10.4859L14.3847 12.1682ZM15.4662 13.5141C15.6241 13.4126 15.8007 13.3002 15.9398 13.1917C16.0793 13.083 16.2995 12.8911 16.4293 12.5838L14.587 11.8054C14.6225 11.7214 14.6661 11.6642 14.6932 11.6336C14.7173 11.6066 14.7294 11.5994 14.7099 11.6146C14.6909 11.6294 14.658 11.6532 14.5999 11.6919C14.5422 11.7304 14.4739 11.7744 14.3847 11.8318L15.4662 13.5141ZM14.587 12.1946C14.5345 12.0702 14.5345 11.9298 14.587 11.8054L16.4293 12.5838C16.587 12.2106 16.587 11.7894 16.4293 11.4162L14.587 12.1946ZM11.5234 7.95121C11.3393 7.83289 11.1434 7.70573 10.9719 7.61647C10.8082 7.53127 10.5111 7.39336 10.1431 7.41964L10.2856 9.41456C10.1803 9.42208 10.1009 9.40431 10.0619 9.39264C10.0275 9.38237 10.0189 9.37517 10.0485 9.39055C10.0768 9.40528 10.1205 9.43033 10.1902 9.47346C10.2593 9.51626 10.3394 9.56768 10.4418 9.63357L11.5234 7.95121ZM10.75 9.46533C10.75 9.34349 10.75 9.24836 10.7514 9.16705C10.7528 9.08513 10.7554 9.03481 10.7583 9.00304C10.7613 8.96985 10.7628 8.98094 10.7528 9.01542C10.7415 9.05459 10.7135 9.13099 10.6503 9.21549L9.04923 8.01687C8.82813 8.31219 8.7835 8.63665 8.76664 8.82042C8.74899 9.01293 8.75 9.24652 8.75 9.46533H10.75ZM10.1431 7.41964C9.70914 7.45064 9.30999 7.66856 9.04923 8.01687L10.6503 9.21549C10.5633 9.33159 10.4303 9.40423 10.2856 9.41456L10.1431 7.41964Z" fill="#171717"/>
</svg>
