<svg width="96" height="136" viewBox="0 0 96 136" fill="none" xmlns="http://www.w3.org/2000/svg">
<path d="M85.6407 11.8555H46.084C46.084 16.5913 47.9653 21.1332 51.314 24.4819C54.6628 27.8307 59.2047 29.712 63.9405 29.712H71.2273V36.7475C71.2337 46.6004 79.2193 54.5863 89.0722 54.5928V15.287C89.0722 13.3924 87.5363 11.8555 85.6407 11.8555Z" fill="#AFAFAF"/>
<path d="M66.0681 31.5649H26.5117C26.5178 41.4178 34.5034 49.4038 44.3566 49.4102H51.6434V56.4682C51.656 66.3211 59.6471 74.3016 69.5 74.3016V34.9971C69.5 33.1018 67.9634 31.5653 66.0681 31.5653V31.5649Z" fill="#CBCBCB"/>
<path d="M46.4844 51.2632H6.92773C6.92773 61.1251 14.9227 69.1197 24.7842 69.1197H32.0939V76.1549C32.1003 85.9988 40.0721 93.9812 49.9163 93.9998V54.6951C49.9163 52.7998 48.3797 51.2632 46.4844 51.2632Z" fill="#E2E2E2"/>
<path d="M39.848 118.848V127.088C39.848 128.005 39.5653 128.741 39 129.296C38.4347 129.84 37.688 130.112 36.76 130.112C35.8213 130.112 35.0693 129.835 34.504 129.28C33.9387 128.715 33.656 127.947 33.656 126.976H35.112C35.1227 127.52 35.2613 127.963 35.528 128.304C35.8053 128.645 36.216 128.816 36.76 128.816C37.304 128.816 37.7093 128.656 37.976 128.336C38.2427 128.005 38.376 127.589 38.376 127.088V118.848H39.848ZM43.4684 119.808C43.191 119.808 42.9564 119.712 42.7644 119.52C42.5724 119.328 42.4764 119.093 42.4764 118.816C42.4764 118.539 42.5724 118.304 42.7644 118.112C42.9564 117.92 43.191 117.824 43.4684 117.824C43.735 117.824 43.959 117.92 44.1404 118.112C44.3324 118.304 44.4284 118.539 44.4284 118.816C44.4284 119.093 44.3324 119.328 44.1404 119.52C43.959 119.712 43.735 119.808 43.4684 119.808ZM44.1724 121.232V130H42.7164V121.232H44.1724ZM48.1099 122.656C48.3659 122.155 48.7285 121.765 49.1979 121.488C49.6779 121.211 50.2592 121.072 50.9419 121.072V122.576H50.5579C48.9259 122.576 48.1099 123.461 48.1099 125.232V130H46.6539V121.232H48.1099V122.656ZM52.0786 125.584C52.0786 124.688 52.26 123.904 52.6226 123.232C52.9853 122.549 53.4813 122.021 54.1106 121.648C54.7506 121.275 55.46 121.088 56.2386 121.088C57.0066 121.088 57.6733 121.253 58.2386 121.584C58.804 121.915 59.2253 122.331 59.5026 122.832V121.232H60.9746V130H59.5026V128.368C59.2146 128.88 58.7826 129.307 58.2066 129.648C57.6413 129.979 56.98 130.144 56.2226 130.144C55.444 130.144 54.74 129.952 54.1106 129.568C53.4813 129.184 52.9853 128.645 52.6226 127.952C52.26 127.259 52.0786 126.469 52.0786 125.584ZM59.5026 125.6C59.5026 124.939 59.3693 124.363 59.1026 123.872C58.836 123.381 58.4733 123.008 58.0146 122.752C57.5666 122.485 57.0706 122.352 56.5266 122.352C55.9826 122.352 55.4866 122.48 55.0386 122.736C54.5906 122.992 54.2333 123.365 53.9666 123.856C53.7 124.347 53.5666 124.923 53.5666 125.584C53.5666 126.256 53.7 126.843 53.9666 127.344C54.2333 127.835 54.5906 128.213 55.0386 128.48C55.4866 128.736 55.9826 128.864 56.5266 128.864C57.0706 128.864 57.5666 128.736 58.0146 128.48C58.4733 128.213 58.836 127.835 59.1026 127.344C59.3693 126.843 59.5026 126.261 59.5026 125.6Z" fill="#AFAFAF"/>
</svg>
