<svg width="96" height="136" viewBox="0 0 96 136" fill="none" xmlns="http://www.w3.org/2000/svg">
<path d="M94 93.9966C94 93.9983 93.9983 94 93.9966 94H2.00341C2.0017 94 2 93.9983 2 93.9966V2.00341C2 2.0017 2.0017 2 2.00341 2H93.9974C93.9991 2 94.0008 2.0017 94.0008 2.00341V93.9966H94Z" fill="white"/>
<path d="M92.4665 92.4631C92.4665 92.4648 92.4648 92.4665 92.4631 92.4665H3.53661C3.53491 92.4665 3.5332 92.4648 3.5332 92.4631V3.53661C3.5332 3.53491 3.53491 3.5332 3.53661 3.5332H92.464C92.4657 3.5332 92.4674 3.53491 92.4674 3.53661V92.4631H92.4665Z" fill="#CBCBCB"/>
<path d="M27.8114 72.1647C27.8114 72.232 27.8506 72.3257 27.8974 72.3725L29.4197 73.8948C29.4674 73.9425 29.5611 73.9808 29.6275 73.9808H34.8366C34.9039 73.9808 34.9976 73.9416 35.0445 73.8948L36.5667 72.3725C36.6144 72.3248 36.6528 72.2311 36.6528 72.1647V55.6362C36.6528 55.5689 36.6928 55.476 36.7414 55.43L43.3594 49.1093C43.408 49.0633 43.4787 49.0701 43.5161 49.1263L60.2371 73.8812C60.2746 73.9365 60.3607 73.9825 60.4271 73.9825H67.8067C67.874 73.9825 67.9541 73.934 67.9847 73.8743L69.3239 71.2796C69.3545 71.22 69.3486 71.1263 69.3102 71.0709L49.7517 42.7213C49.7134 42.6659 49.721 42.5824 49.7687 42.5347L67.7581 24.6296C67.8059 24.5819 67.8442 24.4891 67.8442 24.4218V24.0913C67.8442 24.024 67.822 23.9192 67.7956 23.857L66.7581 21.471C66.7317 21.4096 66.6541 21.3594 66.5877 21.3594H59.2933C59.226 21.3594 59.1323 21.3986 59.0854 21.4454L36.7405 43.8747C36.6928 43.9224 36.6545 43.9062 36.6545 43.8389V23.2624C36.6545 23.1951 36.617 23.1006 36.571 23.0512L35.0777 21.4497C35.0317 21.4003 34.9397 21.3602 34.8724 21.3602H29.6275C29.5603 21.3602 29.4683 21.4003 29.4223 21.4497L27.8932 23.1006C27.8472 23.15 27.8105 23.2445 27.8105 23.3118V72.1647H27.8114Z" fill="white"/>
<path d="M32.78 130L28.188 124.912V130H26.732V118.848H28.188V124.016L32.796 118.848H34.636L29.58 124.432L34.684 130H32.78ZM44.3101 125.28C44.3101 125.557 44.2941 125.851 44.2621 126.16H37.2541C37.3075 127.024 37.6008 127.701 38.1341 128.192C38.6781 128.672 39.3341 128.912 40.1021 128.912C40.7315 128.912 41.2541 128.768 41.6701 128.48C42.0968 128.181 42.3955 127.787 42.5661 127.296H44.1341C43.8995 128.139 43.4301 128.827 42.7261 129.36C42.0221 129.883 41.1475 130.144 40.1021 130.144C39.2701 130.144 38.5235 129.957 37.8621 129.584C37.2115 129.211 36.6995 128.683 36.3261 128C35.9528 127.307 35.7661 126.507 35.7661 125.6C35.7661 124.693 35.9475 123.899 36.3101 123.216C36.6728 122.533 37.1795 122.011 37.8301 121.648C38.4915 121.275 39.2488 121.088 40.1021 121.088C40.9341 121.088 41.6701 121.269 42.3101 121.632C42.9501 121.995 43.4408 122.496 43.7821 123.136C44.1341 123.765 44.3101 124.48 44.3101 125.28ZM42.8061 124.976C42.8061 124.421 42.6835 123.947 42.4381 123.552C42.1928 123.147 41.8568 122.843 41.4301 122.64C41.0141 122.427 40.5501 122.32 40.0381 122.32C39.3021 122.32 38.6728 122.555 38.1501 123.024C37.6381 123.493 37.3448 124.144 37.2701 124.976H42.8061ZM47.688 122.656C47.944 122.155 48.3067 121.765 48.776 121.488C49.256 121.211 49.8373 121.072 50.52 121.072V122.576H50.136C48.504 122.576 47.688 123.461 47.688 125.232V130H46.232V121.232H47.688V122.656ZM51.6568 125.584C51.6568 124.688 51.8381 123.904 52.2008 123.232C52.5634 122.549 53.0594 122.021 53.6888 121.648C54.3288 121.275 55.0381 121.088 55.8168 121.088C56.5848 121.088 57.2514 121.253 57.8168 121.584C58.3821 121.915 58.8034 122.331 59.0808 122.832V121.232H60.5528V130H59.0808V128.368C58.7928 128.88 58.3608 129.307 57.7848 129.648C57.2194 129.979 56.5581 130.144 55.8008 130.144C55.0221 130.144 54.3181 129.952 53.6888 129.568C53.0594 129.184 52.5634 128.645 52.2008 127.952C51.8381 127.259 51.6568 126.469 51.6568 125.584ZM59.0808 125.6C59.0808 124.939 58.9474 124.363 58.6808 123.872C58.4141 123.381 58.0514 123.008 57.5928 122.752C57.1448 122.485 56.6488 122.352 56.1048 122.352C55.5608 122.352 55.0648 122.48 54.6168 122.736C54.1688 122.992 53.8114 123.365 53.5448 123.856C53.2781 124.347 53.1448 124.923 53.1448 125.584C53.1448 126.256 53.2781 126.843 53.5448 127.344C53.8114 127.835 54.1688 128.213 54.6168 128.48C55.0648 128.736 55.5608 128.864 56.1048 128.864C56.6488 128.864 57.1448 128.736 57.5928 128.48C58.0514 128.213 58.4141 127.835 58.6808 127.344C58.9474 126.843 59.0808 126.261 59.0808 125.6ZM66.1173 130.144C65.4453 130.144 64.8426 130.032 64.3093 129.808C63.7759 129.573 63.3546 129.253 63.0453 128.848C62.7359 128.432 62.5653 127.957 62.5333 127.424H64.0373C64.0799 127.861 64.2826 128.219 64.6453 128.496C65.0186 128.773 65.5039 128.912 66.1013 128.912C66.6559 128.912 67.0933 128.789 67.4133 128.544C67.7333 128.299 67.8933 127.989 67.8933 127.616C67.8933 127.232 67.7226 126.949 67.3813 126.768C67.0399 126.576 66.5119 126.389 65.7973 126.208C65.1466 126.037 64.6133 125.867 64.1973 125.696C63.7919 125.515 63.4399 125.253 63.1413 124.912C62.8533 124.56 62.7093 124.101 62.7093 123.536C62.7093 123.088 62.8426 122.677 63.1093 122.304C63.3759 121.931 63.7546 121.637 64.2453 121.424C64.7359 121.2 65.2959 121.088 65.9253 121.088C66.8959 121.088 67.6799 121.333 68.2773 121.824C68.8746 122.315 69.1946 122.987 69.2373 123.84H67.7813C67.7493 123.381 67.5626 123.013 67.2213 122.736C66.8906 122.459 66.4426 122.32 65.8773 122.32C65.3546 122.32 64.9386 122.432 64.6293 122.656C64.3199 122.88 64.1653 123.173 64.1653 123.536C64.1653 123.824 64.2559 124.064 64.4373 124.256C64.6293 124.437 64.8639 124.587 65.1413 124.704C65.4293 124.811 65.8239 124.933 66.3253 125.072C66.9546 125.243 67.4666 125.413 67.8613 125.584C68.2559 125.744 68.5919 125.989 68.8693 126.32C69.1573 126.651 69.3066 127.083 69.3173 127.616C69.3173 128.096 69.1839 128.528 68.9173 128.912C68.6506 129.296 68.2719 129.6 67.7813 129.824C67.3013 130.037 66.7466 130.144 66.1173 130.144Z" fill="#AFAFAF"/>
</svg>
