<svg width="132" height="136" viewBox="0 0 132 136" fill="none" xmlns="http://www.w3.org/2000/svg">
<path d="M68.5955 32.0009C75.8814 32.0009 81.7877 26.1242 81.7877 18.875C81.7877 11.6257 75.8814 5.74902 68.5955 5.74902C61.3097 5.74902 55.4033 11.6257 55.4033 18.875C55.4033 26.1242 61.3097 32.0009 68.5955 32.0009Z" fill="#E2E2E2"/>
<path d="M98.2753 32.9375C103.739 32.9375 108.169 28.5303 108.169 23.0938C108.169 17.6572 103.739 13.25 98.2753 13.25C92.8113 13.25 88.3818 17.6572 88.3818 23.0938C88.3818 28.5303 92.8113 32.9375 98.2753 32.9375Z" fill="#CBCBCB"/>
<path d="M106.756 35.75H84.5352C84.0554 35.75 83.5952 35.9396 83.256 36.2772C82.9167 36.6148 82.7261 37.0726 82.7261 37.55V60.3594C82.6649 63.6605 83.7454 66.8824 85.7868 69.4854C87.8282 72.0885 90.7065 73.9147 93.9396 74.6581C95.9988 75.088 98.1285 75.0556 100.174 74.5632C102.219 74.0709 104.128 73.1309 105.761 71.8119C107.395 70.4928 108.713 68.8278 109.618 66.9381C110.524 65.0484 110.995 62.9816 110.996 60.8881V39.9687C110.996 38.8499 110.549 37.7768 109.754 36.9856C108.959 36.1945 107.88 35.75 106.756 35.75Z" fill="#CBCBCB"/>
<path d="M91.2087 39.9688V66.6875C91.2115 71.639 89.5715 76.453 86.5434 80.3824C83.5152 84.3118 79.2682 87.1368 74.4614 88.419C69.6546 89.7012 64.5568 89.3689 59.9592 87.4737C55.3617 85.5785 51.5213 82.2264 49.0343 77.9375C48.4903 77.038 48.0178 76.0977 47.6209 75.125C47.251 74.2079 46.9394 73.2686 46.6881 72.3125C46.2221 70.4733 45.9848 68.5842 45.9814 66.6875V39.9688C45.9807 39.4145 46.0899 38.8656 46.3027 38.3534C46.5155 37.8413 46.8278 37.3759 47.2217 36.984C47.6155 36.5921 48.0833 36.2814 48.598 36.0696C49.1128 35.8579 49.6645 35.7493 50.2215 35.75H86.9686C87.5257 35.7493 88.0774 35.8579 88.5921 36.0696C89.1069 36.2814 89.5746 36.5921 89.9685 36.984C90.3623 37.3759 90.6746 37.8413 90.8875 38.3534C91.1003 38.8656 91.2094 39.4145 91.2087 39.9688Z" fill="#E2E2E2"/>
<path d="M24.309 24.5H62.0002C62.9996 24.5 63.958 24.895 64.6646 25.5981C65.3712 26.3012 65.7682 27.2547 65.7682 28.2491V65.7509C65.7682 66.7453 65.3712 67.6988 64.6646 68.4019C63.958 69.105 62.9996 69.5 62.0002 69.5H24.309C23.3097 69.5 22.3513 69.105 21.6446 68.4019C20.938 67.6988 20.541 66.7453 20.541 65.7509V28.2491C20.541 27.2547 20.938 26.3012 21.6446 25.5981C22.3513 24.895 23.3097 24.5 24.309 24.5Z" fill="#AFAFAF"/>
<path d="M54.4048 38.4923H45.953V61.0486H40.407V38.4923H31.9043V32.9517H54.4048V38.4923Z" fill="white"/>
<path d="M12.544 118.928V130H11.088V121.744L7.408 130H6.384L2.688 121.728V130H1.232V118.928H2.8L6.896 128.08L10.992 118.928H12.544ZM15.7653 119.808C15.4879 119.808 15.2533 119.712 15.0613 119.52C14.8693 119.328 14.7733 119.093 14.7733 118.816C14.7733 118.539 14.8693 118.304 15.0613 118.112C15.2533 117.92 15.4879 117.824 15.7653 117.824C16.0319 117.824 16.2559 117.92 16.4373 118.112C16.6293 118.304 16.7253 118.539 16.7253 118.816C16.7253 119.093 16.6293 119.328 16.4373 119.52C16.2559 119.712 16.0319 119.808 15.7653 119.808ZM16.4693 121.232V130H15.0133V121.232H16.4693ZM18.4068 125.6C18.4068 124.693 18.5881 123.904 18.9508 123.232C19.3134 122.549 19.8148 122.021 20.4548 121.648C21.1054 121.275 21.8468 121.088 22.6788 121.088C23.7561 121.088 24.6414 121.349 25.3348 121.872C26.0388 122.395 26.5028 123.12 26.7268 124.048H25.1588C25.0094 123.515 24.7161 123.093 24.2788 122.784C23.8521 122.475 23.3188 122.32 22.6788 122.32C21.8468 122.32 21.1748 122.608 20.6628 123.184C20.1508 123.749 19.8948 124.555 19.8948 125.6C19.8948 126.656 20.1508 127.472 20.6628 128.048C21.1748 128.624 21.8468 128.912 22.6788 128.912C23.3188 128.912 23.8521 128.763 24.2788 128.464C24.7054 128.165 24.9988 127.739 25.1588 127.184H26.7268C26.4921 128.08 26.0228 128.8 25.3188 129.344C24.6148 129.877 23.7348 130.144 22.6788 130.144C21.8468 130.144 21.1054 129.957 20.4548 129.584C19.8148 129.211 19.3134 128.683 18.9508 128C18.5881 127.317 18.4068 126.517 18.4068 125.6ZM30.1255 122.656C30.3815 122.155 30.7442 121.765 31.2135 121.488C31.6935 121.211 32.2748 121.072 32.9575 121.072V122.576H32.5735C30.9415 122.576 30.1255 123.461 30.1255 125.232V130H28.6695V121.232H30.1255V122.656ZM38.4623 130.144C37.6409 130.144 36.8943 129.957 36.2223 129.584C35.5609 129.211 35.0383 128.683 34.6543 128C34.2809 127.307 34.0943 126.507 34.0943 125.6C34.0943 124.704 34.2863 123.915 34.6703 123.232C35.0649 122.539 35.5983 122.011 36.2703 121.648C36.9423 121.275 37.6943 121.088 38.5263 121.088C39.3583 121.088 40.1103 121.275 40.7823 121.648C41.4543 122.011 41.9823 122.533 42.3663 123.216C42.7609 123.899 42.9583 124.693 42.9583 125.6C42.9583 126.507 42.7556 127.307 42.3503 128C41.9556 128.683 41.4169 129.211 40.7343 129.584C40.0516 129.957 39.2943 130.144 38.4623 130.144ZM38.4623 128.864C38.9849 128.864 39.4756 128.741 39.9343 128.496C40.3929 128.251 40.7609 127.883 41.0383 127.392C41.3263 126.901 41.4703 126.304 41.4703 125.6C41.4703 124.896 41.3316 124.299 41.0543 123.808C40.7769 123.317 40.4143 122.955 39.9663 122.72C39.5183 122.475 39.0329 122.352 38.5103 122.352C37.9769 122.352 37.4863 122.475 37.0383 122.72C36.6009 122.955 36.2489 123.317 35.9823 123.808C35.7156 124.299 35.5823 124.896 35.5823 125.6C35.5823 126.315 35.7103 126.917 35.9663 127.408C36.2329 127.899 36.5849 128.267 37.0223 128.512C37.4596 128.747 37.9396 128.864 38.4623 128.864ZM47.9766 130.144C47.3046 130.144 46.702 130.032 46.1686 129.808C45.6353 129.573 45.214 129.253 44.9046 128.848C44.5953 128.432 44.4246 127.957 44.3926 127.424H45.8966C45.9393 127.861 46.142 128.219 46.5046 128.496C46.878 128.773 47.3633 128.912 47.9606 128.912C48.5153 128.912 48.9526 128.789 49.2726 128.544C49.5926 128.299 49.7526 127.989 49.7526 127.616C49.7526 127.232 49.582 126.949 49.2406 126.768C48.8993 126.576 48.3713 126.389 47.6566 126.208C47.006 126.037 46.4726 125.867 46.0566 125.696C45.6513 125.515 45.2993 125.253 45.0006 124.912C44.7126 124.56 44.5686 124.101 44.5686 123.536C44.5686 123.088 44.702 122.677 44.9686 122.304C45.2353 121.931 45.614 121.637 46.1046 121.424C46.5953 121.2 47.1553 121.088 47.7846 121.088C48.7553 121.088 49.5393 121.333 50.1366 121.824C50.734 122.315 51.054 122.987 51.0966 123.84H49.6406C49.6086 123.381 49.422 123.013 49.0806 122.736C48.75 122.459 48.302 122.32 47.7366 122.32C47.214 122.32 46.798 122.432 46.4886 122.656C46.1793 122.88 46.0246 123.173 46.0246 123.536C46.0246 123.824 46.1153 124.064 46.2966 124.256C46.4886 124.437 46.7233 124.587 47.0006 124.704C47.2886 124.811 47.6833 124.933 48.1846 125.072C48.814 125.243 49.326 125.413 49.7206 125.584C50.1153 125.744 50.4513 125.989 50.7286 126.32C51.0166 126.651 51.166 127.083 51.1766 127.616C51.1766 128.096 51.0433 128.528 50.7766 128.912C50.51 129.296 50.1313 129.6 49.6406 129.824C49.1606 130.037 48.606 130.144 47.9766 130.144ZM57.056 130.144C56.2347 130.144 55.488 129.957 54.816 129.584C54.1547 129.211 53.632 128.683 53.248 128C52.8747 127.307 52.688 126.507 52.688 125.6C52.688 124.704 52.88 123.915 53.264 123.232C53.6587 122.539 54.192 122.011 54.864 121.648C55.536 121.275 56.288 121.088 57.12 121.088C57.952 121.088 58.704 121.275 59.376 121.648C60.048 122.011 60.576 122.533 60.96 123.216C61.3547 123.899 61.552 124.693 61.552 125.6C61.552 126.507 61.3493 127.307 60.944 128C60.5493 128.683 60.0107 129.211 59.328 129.584C58.6453 129.957 57.888 130.144 57.056 130.144ZM57.056 128.864C57.5787 128.864 58.0693 128.741 58.528 128.496C58.9867 128.251 59.3547 127.883 59.632 127.392C59.92 126.901 60.064 126.304 60.064 125.6C60.064 124.896 59.9253 124.299 59.648 123.808C59.3707 123.317 59.008 122.955 58.56 122.72C58.112 122.475 57.6267 122.352 57.104 122.352C56.5707 122.352 56.08 122.475 55.632 122.72C55.1947 122.955 54.8427 123.317 54.576 123.808C54.3093 124.299 54.176 124.896 54.176 125.6C54.176 126.315 54.304 126.917 54.56 127.408C54.8267 127.899 55.1787 128.267 55.616 128.512C56.0533 128.747 56.5333 128.864 57.056 128.864ZM67.0344 122.432H65.1944V130H63.7384V122.432H62.6024V121.232H63.7384V120.608C63.7384 119.627 63.989 118.912 64.4904 118.464C65.0024 118.005 65.8184 117.776 66.9384 117.776V118.992C66.2984 118.992 65.845 119.12 65.5784 119.376C65.3224 119.621 65.1944 120.032 65.1944 120.608V121.232H67.0344V122.432ZM70.508 122.432V127.6C70.508 128.027 70.5987 128.331 70.78 128.512C70.9613 128.683 71.276 128.768 71.724 128.768H72.796V130H71.484C70.6733 130 70.0653 129.813 69.66 129.44C69.2547 129.067 69.052 128.453 69.052 127.6V122.432H67.916V121.232H69.052V119.024H70.508V121.232H72.796V122.432H70.508ZM85.6898 118.848V120.032H82.6498V130H81.1938V120.032H78.1378V118.848H85.6898ZM95.482 125.28C95.482 125.557 95.466 125.851 95.434 126.16H88.426C88.4793 127.024 88.7727 127.701 89.306 128.192C89.85 128.672 90.506 128.912 91.274 128.912C91.9033 128.912 92.426 128.768 92.842 128.48C93.2687 128.181 93.5673 127.787 93.738 127.296H95.306C95.0713 128.139 94.602 128.827 93.898 129.36C93.194 129.883 92.3193 130.144 91.274 130.144C90.442 130.144 89.6953 129.957 89.034 129.584C88.3833 129.211 87.8713 128.683 87.498 128C87.1247 127.307 86.938 126.507 86.938 125.6C86.938 124.693 87.1193 123.899 87.482 123.216C87.8447 122.533 88.3513 122.011 89.002 121.648C89.6633 121.275 90.4207 121.088 91.274 121.088C92.106 121.088 92.842 121.269 93.482 121.632C94.122 121.995 94.6127 122.496 94.954 123.136C95.306 123.765 95.482 124.48 95.482 125.28ZM93.978 124.976C93.978 124.421 93.8553 123.947 93.61 123.552C93.3647 123.147 93.0287 122.843 92.602 122.64C92.186 122.427 91.722 122.32 91.21 122.32C90.474 122.32 89.8447 122.555 89.322 123.024C88.81 123.493 88.5167 124.144 88.442 124.976H93.978ZM96.8599 125.584C96.8599 124.688 97.0412 123.904 97.4039 123.232C97.7665 122.549 98.2625 122.021 98.8919 121.648C99.5319 121.275 100.241 121.088 101.02 121.088C101.788 121.088 102.455 121.253 103.02 121.584C103.585 121.915 104.007 122.331 104.284 122.832V121.232H105.756V130H104.284V128.368C103.996 128.88 103.564 129.307 102.988 129.648C102.423 129.979 101.761 130.144 101.004 130.144C100.225 130.144 99.5212 129.952 98.8919 129.568C98.2625 129.184 97.7665 128.645 97.4039 127.952C97.0412 127.259 96.8599 126.469 96.8599 125.584ZM104.284 125.6C104.284 124.939 104.151 124.363 103.884 123.872C103.617 123.381 103.255 123.008 102.796 122.752C102.348 122.485 101.852 122.352 101.308 122.352C100.764 122.352 100.268 122.48 99.8199 122.736C99.3719 122.992 99.0145 123.365 98.7479 123.856C98.4812 124.347 98.3479 124.923 98.3479 125.584C98.3479 126.256 98.4812 126.843 98.7479 127.344C99.0145 127.835 99.3719 128.213 99.8199 128.48C100.268 128.736 100.764 128.864 101.308 128.864C101.852 128.864 102.348 128.736 102.796 128.48C103.255 128.213 103.617 127.835 103.884 127.344C104.151 126.843 104.284 126.261 104.284 125.6ZM118.76 121.072C119.443 121.072 120.051 121.216 120.584 121.504C121.118 121.781 121.539 122.203 121.848 122.768C122.158 123.333 122.312 124.021 122.312 124.832V130H120.872V125.04C120.872 124.165 120.654 123.499 120.216 123.04C119.79 122.571 119.208 122.336 118.472 122.336C117.715 122.336 117.112 122.581 116.664 123.072C116.216 123.552 115.992 124.251 115.992 125.168V130H114.552V125.04C114.552 124.165 114.334 123.499 113.896 123.04C113.47 122.571 112.888 122.336 112.152 122.336C111.395 122.336 110.792 122.581 110.344 123.072C109.896 123.552 109.672 124.251 109.672 125.168V130H108.216V121.232H109.672V122.496C109.96 122.037 110.344 121.685 110.824 121.44C111.315 121.195 111.854 121.072 112.44 121.072C113.176 121.072 113.827 121.237 114.392 121.568C114.958 121.899 115.379 122.384 115.656 123.024C115.902 122.405 116.307 121.925 116.872 121.584C117.438 121.243 118.067 121.072 118.76 121.072ZM127.805 130.144C127.133 130.144 126.53 130.032 125.997 129.808C125.463 129.573 125.042 129.253 124.733 128.848C124.423 128.432 124.253 127.957 124.221 127.424H125.725C125.767 127.861 125.97 128.219 126.333 128.496C126.706 128.773 127.191 128.912 127.789 128.912C128.343 128.912 128.781 128.789 129.101 128.544C129.421 128.299 129.581 127.989 129.581 127.616C129.581 127.232 129.41 126.949 129.069 126.768C128.727 126.576 128.199 126.389 127.485 126.208C126.834 126.037 126.301 125.867 125.885 125.696C125.479 125.515 125.127 125.253 124.829 124.912C124.541 124.56 124.397 124.101 124.397 123.536C124.397 123.088 124.53 122.677 124.797 122.304C125.063 121.931 125.442 121.637 125.933 121.424C126.423 121.2 126.983 121.088 127.613 121.088C128.583 121.088 129.367 121.333 129.965 121.824C130.562 122.315 130.882 122.987 130.925 123.84H129.469C129.437 123.381 129.25 123.013 128.909 122.736C128.578 122.459 128.13 122.32 127.565 122.32C127.042 122.32 126.626 122.432 126.317 122.656C126.007 122.88 125.853 123.173 125.853 123.536C125.853 123.824 125.943 124.064 126.125 124.256C126.317 124.437 126.551 124.587 126.829 124.704C127.117 124.811 127.511 124.933 128.013 125.072C128.642 125.243 129.154 125.413 129.549 125.584C129.943 125.744 130.279 125.989 130.557 126.32C130.845 126.651 130.994 127.083 131.005 127.616C131.005 128.096 130.871 128.528 130.605 128.912C130.338 129.296 129.959 129.6 129.469 129.824C128.989 130.037 128.434 130.144 127.805 130.144Z" fill="#AFAFAF"/>
</svg>
