<svg width="96" height="136" viewBox="0 0 96 136" fill="none" xmlns="http://www.w3.org/2000/svg">
<path d="M84.4076 19.883C78.8466 12.6818 71.2748 7.29146 62.6501 4.39377C54.0253 1.49608 44.735 1.22117 35.954 3.6038C27.173 5.98643 19.2958 10.9196 13.3186 17.7793C7.34145 24.6391 3.53282 33.1174 2.3744 42.1418C1.21597 51.1663 2.7598 60.3316 6.81063 68.4786C10.8615 76.6256 17.2373 83.3883 25.1319 87.9115C33.0264 92.4347 42.085 94.5151 51.162 93.8897C60.239 93.2643 68.9266 89.9611 76.1262 84.398C96.2225 68.8672 99.9312 39.9864 84.4062 19.883H84.4076Z" fill="#CBCBCB"/>
<path d="M63.5151 31.3076L44.1189 50.8576L38.6377 45.2226C57.7277 26.1326 59.6439 27.8576 63.5165 31.3076H63.5151Z" fill="white"/>
<path d="M44.1181 51.3928C43.9463 51.3886 43.7823 51.3204 43.6581 51.2016L38.1381 45.6816C38.0138 45.553 37.9443 45.3811 37.9443 45.2022C37.9443 45.0234 38.0138 44.8515 38.1381 44.7228C56.9593 25.9016 59.5281 26.7828 63.9743 30.8078C64.1252 30.9286 64.21 31.1126 64.2043 31.3066C64.233 31.4935 64.1611 31.6847 64.0131 31.8055L44.6169 51.2031C44.4803 51.3281 44.3035 51.3957 44.1181 51.3943V51.3928ZM39.5943 45.2216L44.1181 49.7455L62.5181 31.3455C61.8828 30.5493 60.9763 30.0153 59.9719 29.8455C58.9676 29.6758 57.9359 29.8823 57.0743 30.4255C53.7393 31.9205 48.3731 36.4816 39.5943 45.2216V45.2216Z" fill="#CBCBCB"/>
<path d="M49.6777 56.2631L44.3877 50.8581L63.7839 31.6904C68.9977 36.7892 61.2539 45.2992 49.6777 56.2616V56.2631Z" fill="white"/>
<path d="M49.6768 56.9529C49.5071 56.9394 49.346 56.8725 49.2168 56.7617L43.8118 51.4717C43.7307 51.2752 43.7307 51.0545 43.8118 50.8579C43.7543 50.6969 43.7543 50.5201 43.8118 50.3591L63.208 30.9629C63.4883 30.6999 63.9238 30.6999 64.2041 30.9629C65.4763 32.133 66.1735 33.7977 66.1203 35.5241C66.1203 40.6991 60.2165 47.2153 50.1742 56.7229C50.04 56.8557 49.8634 56.9371 49.6753 56.9529H49.6768ZM45.383 50.8579L49.7142 55.1877C57.3803 47.9427 64.703 40.4677 64.7403 35.4077C64.782 34.335 64.4274 33.2845 63.7442 32.4565L45.383 50.8579Z" fill="#CBCBCB"/>
<path d="M38.7896 45.3374L42.6234 49.1712C42.6479 49.1928 42.6675 49.2194 42.6809 49.2491C42.6943 49.2788 42.7013 49.3111 42.7013 49.3437C42.7013 49.3764 42.6943 49.4086 42.6809 49.4384C42.6675 49.4681 42.6479 49.4946 42.6234 49.5162L34.5346 51.2412C34.1996 51.3131 33.859 51.1521 33.698 50.8502C33.537 50.5484 33.5973 50.1746 33.8446 49.9374L38.5596 45.2612C38.5596 45.2612 38.7134 45.2612 38.7896 45.3374V45.3374Z" fill="white"/>
<path d="M34.3448 52.0074C34.0892 52.0042 33.8388 51.9355 33.6173 51.8079C33.3958 51.6803 33.2108 51.498 33.0798 51.2786C32.7779 50.7079 32.8858 50.0049 33.3486 49.5536L38.0248 44.8386C38.1935 44.6878 38.4117 44.6045 38.6379 44.6045C38.8641 44.6045 39.0824 44.6878 39.251 44.8386L43.0848 48.6724C43.3119 48.888 43.4011 49.2143 43.3148 49.5162C43.2286 49.8181 42.9756 50.0581 42.6636 50.13L34.5748 51.855L34.3448 52.0074ZM38.6386 46.1812L34.3074 50.5124L41.4763 48.9786L38.6386 46.1812Z" fill="#CBCBCB"/>
<path d="M73.8268 20.5351C71.0524 17.8585 66.6939 17.7464 63.7844 20.2721C60.8749 22.7978 60.3775 27.1333 62.643 30.2526C64.9085 33.372 69.1793 34.246 72.4856 32.2651L67.2718 27.0513L73.8268 20.5351Z" fill="white"/>
<path d="M68.6528 34.0273C67.0589 34.0069 65.5061 33.5178 64.1882 32.6211C62.8702 31.7244 61.8453 30.4597 61.2411 28.9846C60.0048 25.9687 60.6891 22.5072 62.9661 20.1899C64.5008 18.6834 66.5655 17.8394 68.7161 17.8394C70.8666 17.8394 72.9313 18.6834 74.4661 20.1899C74.6127 20.3136 74.6961 20.4961 74.6961 20.6887C74.6957 20.7835 74.675 20.8771 74.6353 20.9632C74.5956 21.0492 74.5379 21.1258 74.4661 21.1876L68.2561 27.0526L72.9711 31.6914C73.0474 31.7643 73.1048 31.8549 73.1381 31.9551C73.1715 32.0553 73.1797 32.1622 73.1622 32.2664C73.1509 32.3669 73.1176 32.4637 73.0647 32.5499C73.0117 32.6361 72.9405 32.7096 72.8561 32.7652C71.5894 33.5569 70.1332 33.9938 68.6399 34.0302L68.6528 34.0273ZM68.6528 19.1535C65.9216 19.1679 63.4778 20.8109 62.4529 23.3222C61.4279 25.8336 61.9857 28.7244 63.9004 30.6535C65.8497 32.6128 68.7879 33.1763 71.3366 32.0723L66.8128 27.5485C66.6619 27.4278 66.5771 27.2437 66.5828 27.0497C66.5886 26.87 66.6719 26.7018 66.8128 26.5897L72.7928 20.5709C71.604 19.6595 70.1507 19.1621 68.6528 19.1521V19.1535Z" fill="#CBCBCB"/>
<path d="M73.9427 20.6499L67.3877 27.1661L72.6015 32.3799C73.1263 32.0787 73.6148 31.7184 74.0577 31.3061C76.8982 28.2873 76.8464 23.5896 73.9427 20.6499Z" fill="white"/>
<path d="M72.4851 32.9554C72.399 32.9601 72.313 32.9453 72.2334 32.9122C72.1537 32.8791 72.0826 32.8286 72.0251 32.7642L66.8113 27.5504C66.6604 27.4297 66.5756 27.2457 66.5813 27.0516C66.5871 26.8719 66.6705 26.7037 66.8113 26.5916L73.3275 20.1904C73.3905 20.0955 73.4759 20.0177 73.5762 19.9639C73.6766 19.91 73.7887 19.8818 73.9025 19.8818C74.0164 19.8818 74.1285 19.91 74.2288 19.9639C74.3291 20.0177 74.4146 20.0955 74.4775 20.1904C75.2425 20.9399 75.8502 21.8346 76.2651 22.8219C76.68 23.8093 76.8937 24.8695 76.8937 25.9404C76.8937 27.0114 76.68 28.0716 76.2651 29.0589C75.8502 30.0463 75.2425 30.9409 74.4775 31.6904C74.0263 32.169 73.5099 32.5818 72.9437 32.9166C72.8011 32.9885 72.6363 33.0024 72.4837 32.9554H72.4851ZM68.269 27.053L72.6001 31.3842C72.8981 31.1754 73.1801 30.9448 73.444 30.6942C74.7172 29.4245 75.4343 27.7012 75.4378 25.903C75.4407 24.2938 74.8541 22.7393 73.7889 21.533L68.269 27.053Z" fill="#CBCBCB"/>
<path d="M64.3194 32.1125C63.2413 31.1005 61.5638 31.1005 60.4856 32.1125L43.1221 49.4373L45.9971 52.3511L64.3583 36.2511C64.9261 35.7091 65.2438 34.9573 65.2351 34.1725C65.2265 33.3876 64.8959 32.6415 64.3194 32.1111V32.1125Z" fill="white"/>
<path d="M45.8439 53.0425C45.6721 53.0383 45.5081 52.9701 45.3839 52.8513L42.4701 49.9375C42.3458 49.8088 42.2764 49.637 42.2764 49.4581C42.2764 49.2792 42.3458 49.1073 42.4701 48.9787L59.8351 31.6899C61.2122 30.3156 63.4432 30.3156 64.8189 31.6899C65.5089 32.3799 65.8827 33.3214 65.8539 34.2961C65.8137 35.2649 65.3853 36.1763 64.6651 36.8261L46.3039 52.9261C46.1702 53.0209 46.0064 53.0612 45.8439 53.0411V53.0425ZM43.8127 49.4372L45.7289 51.3922L63.7451 35.7134C64.1907 35.3253 64.4567 34.7704 64.4739 34.1796C64.4912 33.5888 64.2583 33.0109 63.8227 32.6084C62.9847 31.7747 61.632 31.7747 60.7939 32.6084L43.8127 49.4372Z" fill="#CBCBCB"/>
<path d="M29.667 69.1801C29.618 69.2468 29.5915 69.3274 29.5915 69.4101C29.5915 69.4929 29.618 69.5735 29.667 69.6401L30.4332 72.9751C30.4993 73.3733 30.3081 73.7701 29.9559 73.9814C29.7852 74.0813 29.5871 74.1244 29.3902 74.1045C29.1934 74.0846 29.0079 74.0027 28.8606 73.8707L23.6094 68.8107L39.9782 52.3125H45.652L49.4858 56.1463C43.5054 61.3751 36.8372 65.7604 29.667 69.1801V69.1801Z" fill="white"/>
<path d="M29.3233 74.8151C28.8892 74.8065 28.4608 74.6282 28.1733 74.3163L23.1521 69.2951C23.0012 69.1744 22.9164 68.9904 22.9221 68.7963C22.9279 68.6166 23.0113 68.4484 23.1521 68.3363L39.6345 51.8151C39.7268 51.717 39.8474 51.6502 39.9795 51.6239H45.6907C45.8395 51.5713 46.0019 51.5713 46.1507 51.6239L49.9845 55.4577C50.1326 55.5943 50.2045 55.7956 50.1757 55.9939C50.1784 56.0892 50.1591 56.1838 50.1192 56.2703C50.0793 56.3568 50.0199 56.433 49.9457 56.4927L49.6395 56.7616C43.635 61.7674 37.0289 66.0039 29.9745 69.3727L30.7033 72.4777C30.7597 72.7173 30.7618 72.9664 30.7096 73.2068C30.6575 73.4473 30.5523 73.6731 30.4017 73.8677C30.2512 74.0623 30.0591 74.2209 29.8394 74.3318C29.6198 74.4428 29.3781 74.5033 29.1321 74.5089L29.3233 74.8151ZM24.6471 68.7963L29.1695 73.3575C29.2117 73.3951 29.2662 73.4158 29.3226 73.4158C29.3791 73.4158 29.4336 73.3951 29.4757 73.3575C29.5039 73.3183 29.5191 73.2713 29.5191 73.2231C29.5191 73.1748 29.5039 73.1278 29.4757 73.0887L28.7095 69.7537C28.5859 69.2606 28.8245 68.7474 29.2845 68.5275C36.1492 65.2036 42.585 61.0587 48.4507 56.1837L45.3069 53.0399H40.1707L24.6471 68.7963Z" fill="#CBCBCB"/>
<path d="M19.6623 72.7449L23.4962 68.9111L29.4 74.8149L20.0088 74.1638C19.6782 74.1393 19.3978 73.905 19.3188 73.5801C19.2397 73.2553 19.3792 72.9189 19.6638 72.7464L19.6623 72.7449Z" fill="white"/>
<path d="M29.5139 75.3899L20.1601 74.7387C19.6052 74.687 19.128 74.3075 18.9325 73.8C18.737 73.2926 18.8563 72.6903 19.2401 72.2849L23.0739 68.4511C23.2025 68.3268 23.3744 68.2573 23.5533 68.2573C23.7322 68.2573 23.9041 68.3268 24.0327 68.4511L29.8977 74.3161C30.0645 74.5461 30.0645 74.8537 29.8977 75.0823C29.8086 75.226 29.6735 75.3338 29.5139 75.3885V75.3899ZM20.1601 73.2437L27.8263 73.7425L23.6101 69.7937L20.1601 73.2437Z" fill="#CBCBCB"/>
<path d="M46.1881 52.7754L38.4443 53.9643L42.9293 49.5181L46.1881 52.7754Z" fill="white"/>
<path d="M38.4455 54.6902C38.1824 54.6974 37.9424 54.5465 37.8317 54.3064C37.7501 54.1953 37.7061 54.0611 37.7061 53.9233C37.7061 53.7855 37.7501 53.6513 37.8317 53.5402L42.2779 49.0552C42.5582 48.7921 42.9938 48.7921 43.2741 49.0552L46.5343 52.3126C46.5994 52.4159 46.634 52.5355 46.634 52.6576C46.634 52.7797 46.5994 52.8993 46.5343 53.0026C46.5023 53.1285 46.4348 53.2425 46.3397 53.3309C46.2446 53.4194 46.126 53.4786 45.9981 53.5014L38.3319 54.6902H38.4455ZM42.9305 50.5114L40.4393 53.0026L44.7331 52.3514L42.9305 50.5114Z" fill="#CBCBCB"/>
<path d="M46.1891 52.7725L40.7841 53.4625C40.6395 53.4953 40.4881 53.4807 40.3525 53.4207C40.2168 53.3607 40.1041 53.2587 40.031 53.1296C39.9579 53.0005 39.9284 52.8513 39.9467 52.7042C39.9651 52.557 40.0304 52.4196 40.1329 52.3125L42.9318 49.5137L46.1891 52.7725Z" fill="white"/>
<path d="M40.6296 54.1924C40.1193 54.1881 39.6521 53.9092 39.4034 53.4636C39.257 53.2012 39.2002 52.8982 39.2418 52.6006C39.2833 52.303 39.4208 52.0271 39.6334 51.8148L42.4322 49.016C42.7125 48.7529 43.1481 48.7529 43.4284 49.016L46.6872 52.2748C46.7841 52.3666 46.8523 52.4846 46.8835 52.6144C46.9147 52.7442 46.9076 52.8802 46.863 53.0061C46.8184 53.1319 46.7383 53.2421 46.6323 53.3233C46.5264 53.4045 46.3991 53.4533 46.266 53.4636L40.8998 54.1536L40.6296 54.1924ZM40.6296 52.7736L44.6934 52.2748L42.8922 50.4736L40.5922 52.7736H40.6296ZM73.9796 25.0586C73.9074 24.9376 73.7932 24.8474 73.6589 24.805C73.5246 24.7626 73.3793 24.771 73.2508 24.8286C73.1873 24.8607 73.1309 24.9053 73.085 24.9596C73.0391 25.0139 73.0045 25.0769 72.9834 25.1448C72.9403 25.2814 72.9546 25.4295 73.0207 25.5574C73.2896 26.1223 73.2148 26.7908 72.8296 27.2824C72.7289 27.3773 72.6858 27.5081 72.6858 27.6461C72.6872 27.7809 72.7384 27.9104 72.8296 28.0098C72.9279 28.0486 73.0374 28.0486 73.1357 28.0098C73.225 28.0322 73.3187 28.0297 73.4067 28.0026C73.4946 27.9755 73.5734 27.9248 73.6346 27.856C73.9502 27.4695 74.1501 27.0016 74.2112 26.5064C74.2722 26.0111 74.1919 25.5087 73.9796 25.0571V25.0586Z" fill="#CBCBCB"/>
<path d="M20.688 122.112C20.688 123.04 20.368 123.813 19.728 124.432C19.0987 125.04 18.1333 125.344 16.832 125.344H14.688V130H13.232V118.848H16.832C18.0907 118.848 19.0453 119.152 19.696 119.76C20.3573 120.368 20.688 121.152 20.688 122.112ZM16.832 124.144C17.6427 124.144 18.24 123.968 18.624 123.616C19.008 123.264 19.2 122.763 19.2 122.112C19.2 120.736 18.4107 120.048 16.832 120.048H14.688V124.144H16.832ZM26.3216 130.144C25.5003 130.144 24.7536 129.957 24.0816 129.584C23.4203 129.211 22.8976 128.683 22.5136 128C22.1403 127.307 21.9536 126.507 21.9536 125.6C21.9536 124.704 22.1456 123.915 22.5296 123.232C22.9243 122.539 23.4576 122.011 24.1296 121.648C24.8016 121.275 25.5536 121.088 26.3856 121.088C27.2176 121.088 27.9696 121.275 28.6416 121.648C29.3136 122.011 29.8416 122.533 30.2256 123.216C30.6203 123.899 30.8176 124.693 30.8176 125.6C30.8176 126.507 30.615 127.307 30.2096 128C29.815 128.683 29.2763 129.211 28.5936 129.584C27.911 129.957 27.1536 130.144 26.3216 130.144ZM26.3216 128.864C26.8443 128.864 27.335 128.741 27.7936 128.496C28.2523 128.251 28.6203 127.883 28.8976 127.392C29.1856 126.901 29.3296 126.304 29.3296 125.6C29.3296 124.896 29.191 124.299 28.9136 123.808C28.6363 123.317 28.2736 122.955 27.8256 122.72C27.3776 122.475 26.8923 122.352 26.3696 122.352C25.8363 122.352 25.3456 122.475 24.8976 122.72C24.4603 122.955 24.1083 123.317 23.8416 123.808C23.575 124.299 23.4416 124.896 23.4416 125.6C23.4416 126.315 23.5696 126.917 23.8256 127.408C24.0923 127.899 24.4443 128.267 24.8816 128.512C25.319 128.747 25.799 128.864 26.3216 128.864ZM35.836 130.144C35.164 130.144 34.5613 130.032 34.028 129.808C33.4947 129.573 33.0733 129.253 32.764 128.848C32.4547 128.432 32.284 127.957 32.252 127.424H33.756C33.7987 127.861 34.0013 128.219 34.364 128.496C34.7373 128.773 35.2227 128.912 35.82 128.912C36.3747 128.912 36.812 128.789 37.132 128.544C37.452 128.299 37.612 127.989 37.612 127.616C37.612 127.232 37.4413 126.949 37.1 126.768C36.7587 126.576 36.2307 126.389 35.516 126.208C34.8653 126.037 34.332 125.867 33.916 125.696C33.5107 125.515 33.1587 125.253 32.86 124.912C32.572 124.56 32.428 124.101 32.428 123.536C32.428 123.088 32.5613 122.677 32.828 122.304C33.0947 121.931 33.4733 121.637 33.964 121.424C34.4547 121.2 35.0147 121.088 35.644 121.088C36.6147 121.088 37.3987 121.333 37.996 121.824C38.5933 122.315 38.9133 122.987 38.956 123.84H37.5C37.468 123.381 37.2813 123.013 36.94 122.736C36.6093 122.459 36.1613 122.32 35.596 122.32C35.0733 122.32 34.6573 122.432 34.348 122.656C34.0387 122.88 33.884 123.173 33.884 123.536C33.884 123.824 33.9747 124.064 34.156 124.256C34.348 124.437 34.5827 124.587 34.86 124.704C35.148 124.811 35.5427 124.933 36.044 125.072C36.6733 125.243 37.1853 125.413 37.58 125.584C37.9747 125.744 38.3107 125.989 38.588 126.32C38.876 126.651 39.0253 127.083 39.036 127.616C39.036 128.096 38.9027 128.528 38.636 128.912C38.3693 129.296 37.9907 129.6 37.5 129.824C37.02 130.037 36.4653 130.144 35.836 130.144ZM42.8674 122.432V127.6C42.8674 128.027 42.958 128.331 43.1394 128.512C43.3207 128.683 43.6354 128.768 44.0834 128.768H45.1554V130H43.8434C43.0327 130 42.4247 129.813 42.0194 129.44C41.614 129.067 41.4114 128.453 41.4114 127.6V122.432H40.2754V121.232H41.4114V119.024H42.8674V121.232H45.1554V122.432H42.8674ZM57.4635 121.072C58.1462 121.072 58.7542 121.216 59.2875 121.504C59.8208 121.781 60.2422 122.203 60.5515 122.768C60.8608 123.333 61.0155 124.021 61.0155 124.832V130H59.5755V125.04C59.5755 124.165 59.3568 123.499 58.9195 123.04C58.4928 122.571 57.9115 122.336 57.1755 122.336C56.4182 122.336 55.8155 122.581 55.3675 123.072C54.9195 123.552 54.6955 124.251 54.6955 125.168V130H53.2555V125.04C53.2555 124.165 53.0368 123.499 52.5995 123.04C52.1728 122.571 51.5915 122.336 50.8555 122.336C50.0982 122.336 49.4955 122.581 49.0475 123.072C48.5995 123.552 48.3755 124.251 48.3755 125.168V130H46.9195V121.232H48.3755V122.496C48.6635 122.037 49.0475 121.685 49.5275 121.44C50.0182 121.195 50.5568 121.072 51.1435 121.072C51.8795 121.072 52.5302 121.237 53.0955 121.568C53.6608 121.899 54.0822 122.384 54.3595 123.024C54.6048 122.405 55.0102 121.925 55.5755 121.584C56.1408 121.243 56.7702 121.072 57.4635 121.072ZM62.8599 125.584C62.8599 124.688 63.0412 123.904 63.4039 123.232C63.7665 122.549 64.2625 122.021 64.8919 121.648C65.5319 121.275 66.2412 121.088 67.0199 121.088C67.7879 121.088 68.4545 121.253 69.0199 121.584C69.5852 121.915 70.0065 122.331 70.2839 122.832V121.232H71.7559V130H70.2839V128.368C69.9959 128.88 69.5639 129.307 68.9879 129.648C68.4225 129.979 67.7612 130.144 67.0039 130.144C66.2252 130.144 65.5212 129.952 64.8919 129.568C64.2625 129.184 63.7665 128.645 63.4039 127.952C63.0412 127.259 62.8599 126.469 62.8599 125.584ZM70.2839 125.6C70.2839 124.939 70.1505 124.363 69.8839 123.872C69.6172 123.381 69.2545 123.008 68.7959 122.752C68.3479 122.485 67.8519 122.352 67.3079 122.352C66.7639 122.352 66.2679 122.48 65.8199 122.736C65.3719 122.992 65.0145 123.365 64.7479 123.856C64.4812 124.347 64.3479 124.923 64.3479 125.584C64.3479 126.256 64.4812 126.843 64.7479 127.344C65.0145 127.835 65.3719 128.213 65.8199 128.48C66.2679 128.736 66.7639 128.864 67.3079 128.864C67.8519 128.864 68.3479 128.736 68.7959 128.48C69.2545 128.213 69.6172 127.835 69.8839 127.344C70.1505 126.843 70.2839 126.261 70.2839 125.6ZM78.4884 121.072C79.555 121.072 80.419 121.397 81.0804 122.048C81.7417 122.688 82.0724 123.616 82.0724 124.832V130H80.6324V125.04C80.6324 124.165 80.4137 123.499 79.9764 123.04C79.539 122.571 78.9417 122.336 78.1844 122.336C77.4164 122.336 76.803 122.576 76.3444 123.056C75.8964 123.536 75.6724 124.235 75.6724 125.152V130H74.2164V121.232H75.6724V122.48C75.9604 122.032 76.3497 121.685 76.8404 121.44C77.3417 121.195 77.891 121.072 78.4884 121.072Z" fill="#AFAFAF"/>
</svg>
