<svg width="98" height="136" viewBox="0 0 98 136" fill="none" xmlns="http://www.w3.org/2000/svg">
<path d="M52.2128 40.0644C52.2124 39.4154 52.3829 38.7778 52.7072 38.2158C53.0314 37.6538 53.498 37.1872 54.0599 36.8631C54.6218 36.5391 55.2591 36.3689 55.9076 36.3697C56.5561 36.3706 57.193 36.5425 57.754 36.8681C61.0978 35.6397 64.8218 34.9971 68.6939 34.9971C79.0628 34.9971 87.9563 39.6312 90.9626 46.3002C90.937 47.8791 88.6954 48.6144 87.8011 47.6454C85.336 42.2888 77.549 38.4327 68.6939 38.4327C65.4755 38.4327 62.3866 38.9244 59.5897 39.8634C59.6171 40.3565 59.5454 40.8501 59.3788 41.315C59.2123 41.7799 58.9542 42.2067 58.62 42.57C58.2857 42.9334 57.882 43.226 57.4328 43.4305C56.9836 43.635 56.4979 43.7473 56.0045 43.7608C55.5112 43.7742 55.0201 43.6885 54.5604 43.5087C54.1007 43.329 53.6818 43.0588 53.3282 42.7141C52.9747 42.3695 52.6939 41.9574 52.5023 41.5023C52.3107 41.0472 52.2123 40.5582 52.2128 40.0644ZM93.6727 53.8071C93.673 53.2178 93.5325 52.637 93.2628 52.1132C92.9931 51.5893 92.6021 51.1377 92.1224 50.7959C91.6426 50.4541 91.0882 50.2321 90.5052 50.1485C89.9223 50.0649 89.3278 50.122 88.7715 50.3152C88.2151 50.5083 87.713 50.8319 87.3071 51.2588C86.9012 51.6857 86.6032 52.2036 86.4381 52.7693C86.2731 53.3349 86.2456 53.9319 86.3581 54.5103C86.4706 55.0887 86.7197 55.6318 87.0848 56.0942C85.9056 57.9082 84.0728 59.5512 81.7245 60.8708C78.0973 62.9057 73.4704 64.0272 68.6925 64.0272C64.5555 64.0272 60.5837 63.2078 57.2029 61.6546C54.9186 60.6043 53.0189 59.2791 51.599 57.7529C50.6577 57.2043 48.4817 58.9542 49.2706 60.288C53.5344 64.7254 60.766 67.4643 68.6925 67.4643C74.0486 67.4643 79.2736 66.1875 83.4049 63.8676C86.4325 62.1675 88.7823 59.9659 90.2605 57.4893C91.1881 57.4182 92.0548 56.9996 92.6874 56.3169C93.3199 55.6343 93.6718 54.738 93.6727 53.8071Z" fill="#E2E2E2"/>
<path d="M22.5574 60.7381C19.1908 56.3704 17.2839 50.2073 17.2839 43.5526C17.2839 37.4963 18.8803 31.7806 21.7784 27.4572C24.816 22.9214 28.9259 20.4248 33.3492 20.4248C37.3808 20.4248 41.2245 22.5509 44.1738 26.4098C46.9579 30.055 48.7693 35.0268 49.2721 40.4119C48.0771 39.7511 46.8451 39.1597 45.5822 38.6406C44.1538 30.0806 39.1182 23.8605 33.3492 23.8605C30.1065 23.8605 27.0091 25.817 24.628 29.371C22.1059 33.1344 20.716 38.1718 20.716 43.554C20.716 49.4706 22.4634 55.0879 25.4298 58.8357C26.2504 58.7539 27.0747 58.9495 27.7712 59.3911C28.4678 59.8328 28.9965 60.4951 29.2731 61.2725C29.5496 62.0499 29.558 62.8975 29.297 63.6803C29.036 64.463 28.5205 65.1357 27.8329 65.5912C27.1452 66.0466 26.3249 66.2585 25.5029 66.1931C24.6808 66.1277 23.9044 65.7887 23.2973 65.2302C22.6902 64.6717 22.2875 63.9259 22.1534 63.1118C22.0193 62.2976 22.1615 61.4619 22.5574 60.7381ZM48.822 42.5251C42.7952 39.0424 36.0706 37.6602 30.5053 38.632C29.9175 38.0543 29.1536 37.69 28.335 37.597C27.5164 37.5039 26.6902 37.6876 25.988 38.1188C25.2858 38.5499 24.7479 39.2037 24.46 39.9761C24.1721 40.7485 24.1507 41.5951 24.3992 42.381C24.6476 43.167 25.1518 43.8472 25.8313 44.3134C26.5108 44.7795 27.3266 45.0048 28.1488 44.9534C28.9711 44.9019 29.7525 44.5767 30.3687 44.0295C30.9849 43.4823 31.4004 42.7446 31.5491 41.9338C36.233 41.2412 41.9194 42.5038 47.1046 45.5005C53.4375 49.1585 57.9163 54.8371 58.7922 60.1025C59.8844 60.5585 61.0764 60.949 62.3667 61.2525C62.0306 54.4125 56.7856 47.1236 48.822 42.5251ZM49.732 70.9966C46.4082 71.4198 42.6372 70.8912 38.9288 69.5032C37.8636 70.3269 36.7357 71.0992 35.5509 71.8132C39.4899 73.6229 43.617 74.5734 47.4449 74.5734C48.372 74.5734 49.2835 74.5178 50.1678 74.4052C54.752 73.8224 58.3849 71.7533 60.474 68.5556C59.2916 68.269 58.1267 67.9145 56.985 67.494C55.3772 69.3707 52.8579 70.5991 49.732 70.9966ZM46.0564 57.499C46.8811 57.4902 47.679 57.2052 48.3229 56.6897C48.9668 56.1741 49.4197 55.4577 49.6092 54.6546C49.7988 53.8514 49.7141 53.008 49.3687 52.2586C49.0233 51.5093 48.437 50.8973 47.7035 50.5202C46.9699 50.1431 46.1313 50.0227 45.3214 50.1782C44.5115 50.3336 43.7769 50.756 43.2349 51.3779C42.6928 51.9998 42.3745 52.7854 42.3307 53.6095C42.2869 54.4335 42.5201 55.2485 42.9932 55.9244C42.2911 57.6145 41.2615 59.3059 39.9485 60.9176C37.9177 63.4085 35.2475 65.6486 32.227 67.3942C28.0102 69.8324 23.4688 71.1406 19.2919 71.1391C18.8561 71.1391 18.4232 71.1249 17.996 71.0964C13.7294 70.81 10.4881 69.1042 8.86607 66.2956C5.99223 61.3138 8.85752 53.8211 15.5394 48.3106C15.3751 47.0846 15.2753 45.8507 15.2403 44.6142L15.0509 44.3506C10.6989 47.4813 7.35225 51.5226 5.62481 55.7263C3.79485 60.1809 3.89026 64.5442 5.89255 68.0127C8.10417 71.8445 12.3209 74.1587 17.7653 74.5249C18.2651 74.5577 18.7707 74.5748 19.2805 74.5748C24.0584 74.5748 29.2065 73.1071 33.943 70.3696C39.5896 67.1092 43.9246 62.4523 46.0564 57.499Z" fill="#CBCBCB"/>
<path d="M7.11963 130L4.46363 125.44H2.70363V130H1.24763V118.848H4.84763C5.69029 118.848 6.39963 118.992 6.97563 119.28C7.56229 119.568 7.99963 119.957 8.28763 120.448C8.57563 120.939 8.71963 121.499 8.71963 122.128C8.71963 122.896 8.49563 123.573 8.04763 124.16C7.61029 124.747 6.94896 125.136 6.06363 125.328L8.86363 130H7.11963ZM2.70363 124.272H4.84763C5.63696 124.272 6.22896 124.08 6.62363 123.696C7.01829 123.301 7.21563 122.779 7.21563 122.128C7.21563 121.467 7.01829 120.955 6.62363 120.592C6.23963 120.229 5.64763 120.048 4.84763 120.048H2.70363V124.272ZM18.982 125.28C18.982 125.557 18.966 125.851 18.934 126.16H11.926C11.9793 127.024 12.2727 127.701 12.806 128.192C13.35 128.672 14.006 128.912 14.774 128.912C15.4033 128.912 15.926 128.768 16.342 128.48C16.7687 128.181 17.0673 127.787 17.238 127.296H18.806C18.5713 128.139 18.102 128.827 17.398 129.36C16.694 129.883 15.8193 130.144 14.774 130.144C13.942 130.144 13.1953 129.957 12.534 129.584C11.8833 129.211 11.3713 128.683 10.998 128C10.6247 127.307 10.438 126.507 10.438 125.6C10.438 124.693 10.6193 123.899 10.982 123.216C11.3447 122.533 11.8513 122.011 12.502 121.648C13.1633 121.275 13.9207 121.088 14.774 121.088C15.606 121.088 16.342 121.269 16.982 121.632C17.622 121.995 18.1127 122.496 18.454 123.136C18.806 123.765 18.982 124.48 18.982 125.28ZM17.478 124.976C17.478 124.421 17.3553 123.947 17.11 123.552C16.8647 123.147 16.5287 122.843 16.102 122.64C15.686 122.427 15.222 122.32 14.71 122.32C13.974 122.32 13.3447 122.555 12.822 123.024C12.31 123.493 12.0167 124.144 11.942 124.976H17.478ZM20.3599 125.584C20.3599 124.688 20.5412 123.904 20.9039 123.232C21.2665 122.549 21.7625 122.021 22.3919 121.648C23.0319 121.275 23.7465 121.088 24.5359 121.088C25.2185 121.088 25.8532 121.248 26.4399 121.568C27.0265 121.877 27.4745 122.288 27.7839 122.8V118.16H29.2559V130H27.7839V128.352C27.4959 128.875 27.0692 129.307 26.5039 129.648C25.9385 129.979 25.2772 130.144 24.5199 130.144C23.7412 130.144 23.0319 129.952 22.3919 129.568C21.7625 129.184 21.2665 128.645 20.9039 127.952C20.5412 127.259 20.3599 126.469 20.3599 125.584ZM27.7839 125.6C27.7839 124.939 27.6505 124.363 27.3839 123.872C27.1172 123.381 26.7545 123.008 26.2959 122.752C25.8479 122.485 25.3519 122.352 24.8079 122.352C24.2639 122.352 23.7679 122.48 23.3199 122.736C22.8719 122.992 22.5145 123.365 22.2479 123.856C21.9812 124.347 21.8479 124.923 21.8479 125.584C21.8479 126.256 21.9812 126.843 22.2479 127.344C22.5145 127.835 22.8719 128.213 23.3199 128.48C23.7679 128.736 24.2639 128.864 24.8079 128.864C25.3519 128.864 25.8479 128.736 26.2959 128.48C26.7545 128.213 27.1172 127.835 27.3839 127.344C27.6505 126.843 27.7839 126.261 27.7839 125.6ZM39.4924 121.232V130H38.0364V128.704C37.759 129.152 37.3697 129.504 36.8684 129.76C36.3777 130.005 35.8337 130.128 35.2364 130.128C34.5537 130.128 33.9404 129.989 33.3964 129.712C32.8524 129.424 32.4204 128.997 32.1004 128.432C31.791 127.867 31.6364 127.179 31.6364 126.368V121.232H33.0764V126.176C33.0764 127.04 33.295 127.707 33.7324 128.176C34.1697 128.635 34.767 128.864 35.5244 128.864C36.303 128.864 36.9164 128.624 37.3644 128.144C37.8124 127.664 38.0364 126.965 38.0364 126.048V121.232H39.4924ZM46.5268 130L44.4468 126.736L42.4468 130H40.9268L43.7588 125.648L40.9268 121.232H42.5748L44.6548 124.48L46.6388 121.232H48.1588L45.3428 125.568L48.1748 130H46.5268ZM55.687 123.52V124.752H49.303V123.52H55.687ZM61.5235 130.144C60.8515 130.144 60.2488 130.032 59.7155 129.808C59.1822 129.573 58.7608 129.253 58.4515 128.848C58.1422 128.432 57.9715 127.957 57.9395 127.424H59.4435C59.4862 127.861 59.6888 128.219 60.0515 128.496C60.4248 128.773 60.9102 128.912 61.5075 128.912C62.0622 128.912 62.4995 128.789 62.8195 128.544C63.1395 128.299 63.2995 127.989 63.2995 127.616C63.2995 127.232 63.1288 126.949 62.7875 126.768C62.4462 126.576 61.9182 126.389 61.2035 126.208C60.5528 126.037 60.0195 125.867 59.6035 125.696C59.1982 125.515 58.8462 125.253 58.5475 124.912C58.2595 124.56 58.1155 124.101 58.1155 123.536C58.1155 123.088 58.2488 122.677 58.5155 122.304C58.7822 121.931 59.1608 121.637 59.6515 121.424C60.1422 121.2 60.7022 121.088 61.3315 121.088C62.3022 121.088 63.0862 121.333 63.6835 121.824C64.2808 122.315 64.6008 122.987 64.6435 123.84H63.1875C63.1555 123.381 62.9688 123.013 62.6275 122.736C62.2968 122.459 61.8488 122.32 61.2835 122.32C60.7608 122.32 60.3448 122.432 60.0355 122.656C59.7262 122.88 59.5715 123.173 59.5715 123.536C59.5715 123.824 59.6622 124.064 59.8435 124.256C60.0355 124.437 60.2702 124.587 60.5475 124.704C60.8355 124.811 61.2302 124.933 61.7315 125.072C62.3608 125.243 62.8728 125.413 63.2675 125.584C63.6622 125.744 63.9982 125.989 64.2755 126.32C64.5635 126.651 64.7128 127.083 64.7235 127.616C64.7235 128.096 64.5902 128.528 64.3235 128.912C64.0568 129.296 63.6782 129.6 63.1875 129.824C62.7075 130.037 62.1528 130.144 61.5235 130.144ZM66.2349 125.584C66.2349 124.688 66.4162 123.904 66.7789 123.232C67.1415 122.549 67.6375 122.021 68.2669 121.648C68.9069 121.275 69.6162 121.088 70.3949 121.088C71.1629 121.088 71.8295 121.253 72.3949 121.584C72.9602 121.915 73.3815 122.331 73.6589 122.832V121.232H75.1309V130H73.6589V128.368C73.3709 128.88 72.9389 129.307 72.3629 129.648C71.7975 129.979 71.1362 130.144 70.3789 130.144C69.6002 130.144 68.8962 129.952 68.2669 129.568C67.6375 129.184 67.1415 128.645 66.7789 127.952C66.4162 127.259 66.2349 126.469 66.2349 125.584ZM73.6589 125.6C73.6589 124.939 73.5255 124.363 73.2589 123.872C72.9922 123.381 72.6295 123.008 72.1709 122.752C71.7229 122.485 71.2269 122.352 70.6829 122.352C70.1389 122.352 69.6429 122.48 69.1949 122.736C68.7469 122.992 68.3895 123.365 68.1229 123.856C67.8562 124.347 67.7229 124.923 67.7229 125.584C67.7229 126.256 67.8562 126.843 68.1229 127.344C68.3895 127.835 68.7469 128.213 69.1949 128.48C69.6429 128.736 70.1389 128.864 70.6829 128.864C71.2269 128.864 71.7229 128.736 72.1709 128.48C72.6295 128.213 72.9922 127.835 73.2589 127.344C73.5255 126.843 73.6589 126.261 73.6589 125.6ZM81.2074 121.088C81.9647 121.088 82.626 121.253 83.1914 121.584C83.7674 121.915 84.194 122.331 84.4714 122.832V121.232H85.9434V130.192C85.9434 130.992 85.7727 131.701 85.4314 132.32C85.09 132.949 84.5994 133.44 83.9594 133.792C83.33 134.144 82.594 134.32 81.7514 134.32C80.5994 134.32 79.6394 134.048 78.8714 133.504C78.1034 132.96 77.65 132.219 77.5114 131.28H78.9514C79.1114 131.813 79.442 132.24 79.9434 132.56C80.4447 132.891 81.0474 133.056 81.7514 133.056C82.5514 133.056 83.202 132.805 83.7034 132.304C84.2154 131.803 84.4714 131.099 84.4714 130.192V128.352C84.1834 128.864 83.7567 129.291 83.1914 129.632C82.626 129.973 81.9647 130.144 81.2074 130.144C80.4287 130.144 79.7194 129.952 79.0794 129.568C78.45 129.184 77.954 128.645 77.5914 127.952C77.2287 127.259 77.0474 126.469 77.0474 125.584C77.0474 124.688 77.2287 123.904 77.5914 123.232C77.954 122.549 78.45 122.021 79.0794 121.648C79.7194 121.275 80.4287 121.088 81.2074 121.088ZM84.4714 125.6C84.4714 124.939 84.338 124.363 84.0714 123.872C83.8047 123.381 83.442 123.008 82.9834 122.752C82.5354 122.485 82.0394 122.352 81.4954 122.352C80.9514 122.352 80.4554 122.48 80.0074 122.736C79.5594 122.992 79.202 123.365 78.9354 123.856C78.6687 124.347 78.5354 124.923 78.5354 125.584C78.5354 126.256 78.6687 126.843 78.9354 127.344C79.202 127.835 79.5594 128.213 80.0074 128.48C80.4554 128.736 80.9514 128.864 81.4954 128.864C82.0394 128.864 82.5354 128.736 82.9834 128.48C83.442 128.213 83.8047 127.835 84.0714 127.344C84.338 126.843 84.4714 126.261 84.4714 125.6ZM87.8599 125.584C87.8599 124.688 88.0412 123.904 88.4039 123.232C88.7665 122.549 89.2625 122.021 89.8919 121.648C90.5319 121.275 91.2412 121.088 92.0199 121.088C92.7879 121.088 93.4545 121.253 94.0199 121.584C94.5852 121.915 95.0065 122.331 95.2839 122.832V121.232H96.7559V130H95.2839V128.368C94.9959 128.88 94.5639 129.307 93.9879 129.648C93.4225 129.979 92.7612 130.144 92.0039 130.144C91.2252 130.144 90.5212 129.952 89.8919 129.568C89.2625 129.184 88.7665 128.645 88.4039 127.952C88.0412 127.259 87.8599 126.469 87.8599 125.584ZM95.2839 125.6C95.2839 124.939 95.1505 124.363 94.8839 123.872C94.6172 123.381 94.2545 123.008 93.7959 122.752C93.3479 122.485 92.8519 122.352 92.3079 122.352C91.7639 122.352 91.2679 122.48 90.8199 122.736C90.3719 122.992 90.0145 123.365 89.7479 123.856C89.4812 124.347 89.3479 124.923 89.3479 125.584C89.3479 126.256 89.4812 126.843 89.7479 127.344C90.0145 127.835 90.3719 128.213 90.8199 128.48C91.2679 128.736 91.7639 128.864 92.3079 128.864C92.8519 128.864 93.3479 128.736 93.7959 128.48C94.2545 128.213 94.6172 127.835 94.8839 127.344C95.1505 126.843 95.2839 126.261 95.2839 125.6Z" fill="#AFAFAF"/>
</svg>
