<svg width="96" height="136" viewBox="0 0 96 136" fill="none" xmlns="http://www.w3.org/2000/svg">
<path d="M47.5912 91.0823C23.6172 91.0823 4.10352 71.6306 4.10352 47.5947C4.10352 23.5588 23.5553 4.23096 47.5912 4.23096C71.6271 4.23096 91.0788 23.6827 91.0788 47.7186C91.0788 71.7545 71.5651 91.0823 47.5912 91.0823Z" fill="#E2E2E2"/>
<path d="M47.5939 6.39832C70.3289 6.39832 88.7895 24.8589 88.7895 47.5939C88.7895 70.3289 70.3289 88.7894 47.5939 88.7894C24.8589 88.7894 6.39832 70.3289 6.39832 47.5939C6.39832 24.8589 24.8589 6.39832 47.5939 6.39832ZM47.5939 2C22.4429 2 2 22.4429 2 47.5939C2 72.7448 22.5049 93.1877 47.5939 93.1877C72.6829 93.1877 93.1878 72.6829 93.1878 47.5939C93.1878 22.5049 72.6829 2 47.5939 2Z" fill="#AFAFAF"/>
<path d="M73.798 45.8601L77.329 40.8423L73.5502 31.674L67.5412 30.5589L64.8774 27.8951L63.8862 21.8861L54.594 17.9834L49.5762 21.5144H45.7974L40.7795 17.9834L31.4873 21.7622L30.3722 27.7712L27.5846 30.435L21.5756 31.5501L17.6729 40.7184L21.2039 45.7362V49.5151L17.6729 54.5329L21.4517 63.8251L27.4607 64.9402L30.1244 67.6039L31.2395 73.6129L40.4079 77.5157L45.4257 73.9846H49.2045L54.2223 77.5157L63.5146 73.7368L64.6296 67.7278L67.4173 65.0641L73.4263 64.0729L77.329 54.9045L73.798 49.8867V45.8601V45.8601ZM72.4351 55.2762L70.4528 60.1701L65.435 61.0374L60.7888 65.6835L59.9216 70.7013L55.0276 72.6837L50.8771 69.7721H44.3725L40.0981 72.6837L35.2042 70.7013L34.3369 65.6835L29.8147 61.0374L24.7969 60.1701L22.8146 55.2762L25.7261 51.1257V44.6211L22.8146 40.3467L24.7969 35.4528L29.8147 34.5855L34.4608 29.9394L35.3281 24.9216L40.222 22.9393L44.3725 25.8508H50.8771L55.1515 22.9393L60.0455 24.9216L60.9127 29.9394L65.5588 34.5855L70.5767 35.4528L72.559 40.3467L69.6474 44.6211V51.1257L72.4351 55.2762ZM63.7623 48.8336C63.7623 57.7542 56.4525 65.0641 47.5319 65.0641C38.6114 65.0641 31.3015 57.7542 31.3015 48.8336C31.3015 44.5592 32.9121 40.4087 36.0715 37.3732L39.1069 40.4087C36.8768 42.6388 35.5759 45.6743 35.5759 48.8336C35.5759 53.6036 38.3636 57.6303 42.3283 59.4887L48.2133 50.1965L39.1689 48.338L49.0806 30.6208L52.8595 32.7271L45.7974 45.3026L55.3374 47.4088L46.9124 60.7277C47.1602 60.7277 47.2841 60.7277 47.5319 60.7277C54.0365 60.7277 59.364 55.4621 59.364 48.8956C59.364 45.3645 57.8773 42.1432 55.0896 39.8511L57.8773 36.444C61.6561 39.5414 63.7623 44.0636 63.7623 48.8336Z" fill="#AFAFAF"/>
<path d="M24.768 130.112C24.032 130.112 23.3707 129.984 22.784 129.728C22.208 129.461 21.7547 129.099 21.424 128.64C21.0933 128.171 20.9227 127.632 20.912 127.024H22.464C22.5173 127.547 22.7307 127.989 23.104 128.352C23.488 128.704 24.0427 128.88 24.768 128.88C25.4613 128.88 26.0053 128.709 26.4 128.368C26.8053 128.016 27.008 127.568 27.008 127.024C27.008 126.597 26.8907 126.251 26.656 125.984C26.4213 125.717 26.128 125.515 25.776 125.376C25.424 125.237 24.9493 125.088 24.352 124.928C23.616 124.736 23.024 124.544 22.576 124.352C22.1387 124.16 21.76 123.861 21.44 123.456C21.1307 123.04 20.976 122.485 20.976 121.792C20.976 121.184 21.1307 120.645 21.44 120.176C21.7493 119.707 22.1813 119.344 22.736 119.088C23.3013 118.832 23.9467 118.704 24.672 118.704C25.7173 118.704 26.5707 118.965 27.232 119.488C27.904 120.011 28.2827 120.704 28.368 121.568H26.768C26.7147 121.141 26.4907 120.768 26.096 120.448C25.7013 120.117 25.1787 119.952 24.528 119.952C23.92 119.952 23.424 120.112 23.04 120.432C22.656 120.741 22.464 121.179 22.464 121.744C22.464 122.149 22.576 122.48 22.8 122.736C23.0347 122.992 23.3173 123.189 23.648 123.328C23.9893 123.456 24.464 123.605 25.072 123.776C25.808 123.979 26.4 124.181 26.848 124.384C27.296 124.576 27.68 124.88 28 125.296C28.32 125.701 28.48 126.256 28.48 126.96C28.48 127.504 28.336 128.016 28.048 128.496C27.76 128.976 27.3333 129.365 26.768 129.664C26.2027 129.963 25.536 130.112 24.768 130.112ZM34.4466 130.144C33.6253 130.144 32.8786 129.957 32.2066 129.584C31.5453 129.211 31.0226 128.683 30.6386 128C30.2653 127.307 30.0786 126.507 30.0786 125.6C30.0786 124.704 30.2706 123.915 30.6546 123.232C31.0493 122.539 31.5826 122.011 32.2546 121.648C32.9266 121.275 33.6786 121.088 34.5106 121.088C35.3426 121.088 36.0946 121.275 36.7666 121.648C37.4386 122.011 37.9666 122.533 38.3506 123.216C38.7453 123.899 38.9426 124.693 38.9426 125.6C38.9426 126.507 38.74 127.307 38.3346 128C37.94 128.683 37.4013 129.211 36.7186 129.584C36.036 129.957 35.2786 130.144 34.4466 130.144ZM34.4466 128.864C34.9693 128.864 35.46 128.741 35.9186 128.496C36.3773 128.251 36.7453 127.883 37.0226 127.392C37.3106 126.901 37.4546 126.304 37.4546 125.6C37.4546 124.896 37.316 124.299 37.0386 123.808C36.7613 123.317 36.3986 122.955 35.9506 122.72C35.5026 122.475 35.0173 122.352 34.4946 122.352C33.9613 122.352 33.4706 122.475 33.0226 122.72C32.5853 122.955 32.2333 123.317 31.9666 123.808C31.7 124.299 31.5666 124.896 31.5666 125.6C31.5666 126.315 31.6946 126.917 31.9506 127.408C32.2173 127.899 32.5693 128.267 33.0066 128.512C33.444 128.747 33.924 128.864 34.4466 128.864ZM40.313 125.584C40.313 124.688 40.4943 123.904 40.857 123.232C41.2197 122.549 41.7157 122.021 42.345 121.648C42.985 121.275 43.6943 121.088 44.473 121.088C45.241 121.088 45.9077 121.253 46.473 121.584C47.0383 121.915 47.4597 122.331 47.737 122.832V121.232H49.209V130H47.737V128.368C47.449 128.88 47.017 129.307 46.441 129.648C45.8757 129.979 45.2143 130.144 44.457 130.144C43.6783 130.144 42.9743 129.952 42.345 129.568C41.7157 129.184 41.2197 128.645 40.857 127.952C40.4943 127.259 40.313 126.469 40.313 125.584ZM47.737 125.6C47.737 124.939 47.6037 124.363 47.337 123.872C47.0703 123.381 46.7077 123.008 46.249 122.752C45.801 122.485 45.305 122.352 44.761 122.352C44.217 122.352 43.721 122.48 43.273 122.736C42.825 122.992 42.4677 123.365 42.201 123.856C41.9343 124.347 41.801 124.923 41.801 125.584C41.801 126.256 41.9343 126.843 42.201 127.344C42.4677 127.835 42.825 128.213 43.273 128.48C43.721 128.736 44.217 128.864 44.761 128.864C45.305 128.864 45.801 128.736 46.249 128.48C46.7077 128.213 47.0703 127.835 47.337 127.344C47.6037 126.843 47.737 126.261 47.737 125.6ZM53.1255 122.848C53.4135 122.347 53.8402 121.931 54.4055 121.6C54.9815 121.259 55.6482 121.088 56.4055 121.088C57.1842 121.088 57.8882 121.275 58.5175 121.648C59.1575 122.021 59.6588 122.549 60.0215 123.232C60.3842 123.904 60.5655 124.688 60.5655 125.584C60.5655 126.469 60.3842 127.259 60.0215 127.952C59.6588 128.645 59.1575 129.184 58.5175 129.568C57.8882 129.952 57.1842 130.144 56.4055 130.144C55.6588 130.144 54.9975 129.979 54.4215 129.648C53.8562 129.307 53.4242 128.885 53.1255 128.384V134.16H51.6695V121.232H53.1255V122.848ZM59.0775 125.584C59.0775 124.923 58.9442 124.347 58.6775 123.856C58.4108 123.365 58.0482 122.992 57.5895 122.736C57.1415 122.48 56.6455 122.352 56.1015 122.352C55.5682 122.352 55.0722 122.485 54.6135 122.752C54.1655 123.008 53.8028 123.387 53.5255 123.888C53.2588 124.379 53.1255 124.949 53.1255 125.6C53.1255 126.261 53.2588 126.843 53.5255 127.344C53.8028 127.835 54.1655 128.213 54.6135 128.48C55.0722 128.736 55.5682 128.864 56.1015 128.864C56.6455 128.864 57.1415 128.736 57.5895 128.48C58.0482 128.213 58.4108 127.835 58.6775 127.344C58.9442 126.843 59.0775 126.256 59.0775 125.584ZM63.906 118.848V125.904C63.906 126.896 64.146 127.632 64.626 128.112C65.1167 128.592 65.794 128.832 66.658 128.832C67.5113 128.832 68.178 128.592 68.658 128.112C69.1487 127.632 69.394 126.896 69.394 125.904V118.848H70.85V125.888C70.85 126.816 70.6633 127.6 70.29 128.24C69.9167 128.869 69.41 129.339 68.77 129.648C68.1407 129.957 67.4313 130.112 66.642 130.112C65.8527 130.112 65.138 129.957 64.498 129.648C63.8687 129.339 63.3673 128.869 62.994 128.24C62.6313 127.6 62.45 126.816 62.45 125.888V118.848H63.906ZM74.7349 118.848V130H73.2789V118.848H74.7349Z" fill="#AFAFAF"/>
</svg>
