<svg width="96" height="136" viewBox="0 0 96 136" fill="none" xmlns="http://www.w3.org/2000/svg">
<path d="M83.5392 91.892H78.5095C78.5095 50.9889 45.0826 17.7087 3.99902 17.7087V12.6299C47.8557 12.6299 83.5392 48.1863 83.5392 91.892Z" fill="#CBCBCB"/>
<path d="M87.0201 64.6158C80.9776 38.9516 60.3878 17.5212 34.5693 10.0461L35.7125 5.97613C62.9644 13.876 84.7019 36.5068 91.0873 63.637L87.0201 64.6158ZM90.8884 40.5376C84.6653 26.8363 74.064 14.8872 61.0371 6.89493L62.7792 4C76.3731 12.3408 87.4385 24.814 93.9383 39.1247L90.8884 40.5376Z" fill="#CBCBCB"/>
<path d="M8.268 130.112C7.532 130.112 6.87067 129.984 6.284 129.728C5.708 129.461 5.25467 129.099 4.924 128.64C4.59333 128.171 4.42267 127.632 4.412 127.024H5.964C6.01733 127.547 6.23067 127.989 6.604 128.352C6.988 128.704 7.54267 128.88 8.268 128.88C8.96133 128.88 9.50533 128.709 9.9 128.368C10.3053 128.016 10.508 127.568 10.508 127.024C10.508 126.597 10.3907 126.251 10.156 125.984C9.92133 125.717 9.628 125.515 9.276 125.376C8.924 125.237 8.44933 125.088 7.852 124.928C7.116 124.736 6.524 124.544 6.076 124.352C5.63867 124.16 5.26 123.861 4.94 123.456C4.63067 123.04 4.476 122.485 4.476 121.792C4.476 121.184 4.63067 120.645 4.94 120.176C5.24933 119.707 5.68133 119.344 6.236 119.088C6.80133 118.832 7.44667 118.704 8.172 118.704C9.21733 118.704 10.0707 118.965 10.732 119.488C11.404 120.011 11.7827 120.704 11.868 121.568H10.268C10.2147 121.141 9.99067 120.768 9.596 120.448C9.20133 120.117 8.67867 119.952 8.028 119.952C7.42 119.952 6.924 120.112 6.54 120.432C6.156 120.741 5.964 121.179 5.964 121.744C5.964 122.149 6.076 122.48 6.3 122.736C6.53467 122.992 6.81733 123.189 7.148 123.328C7.48933 123.456 7.964 123.605 8.572 123.776C9.308 123.979 9.9 124.181 10.348 124.384C10.796 124.576 11.18 124.88 11.5 125.296C11.82 125.701 11.98 126.256 11.98 126.96C11.98 127.504 11.836 128.016 11.548 128.496C11.26 128.976 10.8333 129.365 10.268 129.664C9.70267 129.963 9.036 130.112 8.268 130.112ZM17.9466 130.144C17.1253 130.144 16.3786 129.957 15.7066 129.584C15.0453 129.211 14.5226 128.683 14.1386 128C13.7653 127.307 13.5786 126.507 13.5786 125.6C13.5786 124.704 13.7706 123.915 14.1546 123.232C14.5493 122.539 15.0826 122.011 15.7546 121.648C16.4266 121.275 17.1786 121.088 18.0106 121.088C18.8426 121.088 19.5946 121.275 20.2666 121.648C20.9386 122.011 21.4666 122.533 21.8506 123.216C22.2453 123.899 22.4426 124.693 22.4426 125.6C22.4426 126.507 22.24 127.307 21.8346 128C21.44 128.683 20.9013 129.211 20.2186 129.584C19.536 129.957 18.7786 130.144 17.9466 130.144ZM17.9466 128.864C18.4693 128.864 18.96 128.741 19.4186 128.496C19.8773 128.251 20.2453 127.883 20.5226 127.392C20.8106 126.901 20.9546 126.304 20.9546 125.6C20.9546 124.896 20.816 124.299 20.5386 123.808C20.2613 123.317 19.8986 122.955 19.4506 122.72C19.0026 122.475 18.5173 122.352 17.9946 122.352C17.4613 122.352 16.9706 122.475 16.5226 122.72C16.0853 122.955 15.7333 123.317 15.4666 123.808C15.2 124.299 15.0666 124.896 15.0666 125.6C15.0666 126.315 15.1946 126.917 15.4506 127.408C15.7173 127.899 16.0693 128.267 16.5066 128.512C16.944 128.747 17.424 128.864 17.9466 128.864ZM28.629 121.072C29.6957 121.072 30.5597 121.397 31.221 122.048C31.8823 122.688 32.213 123.616 32.213 124.832V130H30.773V125.04C30.773 124.165 30.5543 123.499 30.117 123.04C29.6797 122.571 29.0823 122.336 28.325 122.336C27.557 122.336 26.9437 122.576 26.485 123.056C26.037 123.536 25.813 124.235 25.813 125.152V130H24.357V121.232H25.813V122.48C26.101 122.032 26.4903 121.685 26.981 121.44C27.4823 121.195 28.0317 121.072 28.629 121.072ZM34.0474 125.584C34.0474 124.688 34.2287 123.904 34.5914 123.232C34.954 122.549 35.45 122.021 36.0794 121.648C36.7194 121.275 37.4287 121.088 38.2074 121.088C38.9754 121.088 39.642 121.253 40.2074 121.584C40.7727 121.915 41.194 122.331 41.4714 122.832V121.232H42.9434V130H41.4714V128.368C41.1834 128.88 40.7514 129.307 40.1754 129.648C39.61 129.979 38.9487 130.144 38.1914 130.144C37.4127 130.144 36.7087 129.952 36.0794 129.568C35.45 129.184 34.954 128.645 34.5914 127.952C34.2287 127.259 34.0474 126.469 34.0474 125.584ZM41.4714 125.6C41.4714 124.939 41.338 124.363 41.0714 123.872C40.8047 123.381 40.442 123.008 39.9834 122.752C39.5354 122.485 39.0394 122.352 38.4954 122.352C37.9514 122.352 37.4554 122.48 37.0074 122.736C36.5594 122.992 36.202 123.365 35.9354 123.856C35.6687 124.347 35.5354 124.923 35.5354 125.584C35.5354 126.256 35.6687 126.843 35.9354 127.344C36.202 127.835 36.5594 128.213 37.0074 128.48C37.4554 128.736 37.9514 128.864 38.4954 128.864C39.0394 128.864 39.5354 128.736 39.9834 128.48C40.442 128.213 40.8047 127.835 41.0714 127.344C41.338 126.843 41.4714 126.261 41.4714 125.6ZM46.8599 122.656C47.1159 122.155 47.4785 121.765 47.9479 121.488C48.4279 121.211 49.0092 121.072 49.6919 121.072V122.576H49.3079C47.6759 122.576 46.8599 123.461 46.8599 125.232V130H45.4039V121.232H46.8599V122.656ZM50.8286 125.584C50.8286 124.688 51.01 123.904 51.3726 123.232C51.7353 122.549 52.2313 122.021 52.8606 121.648C53.5006 121.275 54.2153 121.088 55.0046 121.088C55.762 121.088 56.4233 121.259 56.9886 121.6C57.5646 121.931 57.986 122.341 58.2526 122.832V121.232H59.7246V134.16H58.2526V128.384C57.9753 128.875 57.5486 129.291 56.9726 129.632C56.3966 129.973 55.7246 130.144 54.9566 130.144C54.1886 130.144 53.49 129.952 52.8606 129.568C52.2313 129.184 51.7353 128.645 51.3726 127.952C51.01 127.259 50.8286 126.469 50.8286 125.584ZM58.2526 125.6C58.2526 124.939 58.1193 124.363 57.8526 123.872C57.586 123.381 57.2233 123.008 56.7646 122.752C56.3166 122.485 55.8206 122.352 55.2766 122.352C54.7326 122.352 54.2366 122.48 53.7886 122.736C53.3406 122.992 52.9833 123.365 52.7166 123.856C52.45 124.347 52.3166 124.923 52.3166 125.584C52.3166 126.256 52.45 126.843 52.7166 127.344C52.9833 127.835 53.3406 128.213 53.7886 128.48C54.2366 128.736 54.7326 128.864 55.2766 128.864C55.8206 128.864 56.3166 128.736 56.7646 128.48C57.2233 128.213 57.586 127.835 57.8526 127.344C58.1193 126.843 58.2526 126.261 58.2526 125.6ZM69.9611 121.232V130H68.5051V128.704C68.2278 129.152 67.8385 129.504 67.3371 129.76C66.8465 130.005 66.3025 130.128 65.7051 130.128C65.0225 130.128 64.4091 129.989 63.8651 129.712C63.3211 129.424 62.8891 128.997 62.5691 128.432C62.2598 127.867 62.1051 127.179 62.1051 126.368V121.232H63.5451V126.176C63.5451 127.04 63.7638 127.707 64.2011 128.176C64.6385 128.635 65.2358 128.864 65.9931 128.864C66.7718 128.864 67.3851 128.624 67.8331 128.144C68.2811 127.664 68.5051 126.965 68.5051 126.048V121.232H69.9611ZM73.8755 122.864C74.1742 122.341 74.6115 121.915 75.1875 121.584C75.7635 121.253 76.4195 121.088 77.1555 121.088C77.9448 121.088 78.6542 121.275 79.2835 121.648C79.9128 122.021 80.4088 122.549 80.7715 123.232C81.1342 123.904 81.3155 124.688 81.3155 125.584C81.3155 126.469 81.1342 127.259 80.7715 127.952C80.4088 128.645 79.9075 129.184 79.2675 129.568C78.6382 129.952 77.9342 130.144 77.1555 130.144C76.3982 130.144 75.7315 129.979 75.1555 129.648C74.5902 129.317 74.1635 128.896 73.8755 128.384V130H72.4195V118.16H73.8755V122.864ZM79.8275 125.584C79.8275 124.923 79.6942 124.347 79.4275 123.856C79.1608 123.365 78.7982 122.992 78.3395 122.736C77.8915 122.48 77.3955 122.352 76.8515 122.352C76.3182 122.352 75.8222 122.485 75.3635 122.752C74.9155 123.008 74.5528 123.387 74.2755 123.888C74.0088 124.379 73.8755 124.949 73.8755 125.6C73.8755 126.261 74.0088 126.843 74.2755 127.344C74.5528 127.835 74.9155 128.213 75.3635 128.48C75.8222 128.736 76.3182 128.864 76.8515 128.864C77.3955 128.864 77.8915 128.736 78.3395 128.48C78.7982 128.213 79.1608 127.835 79.4275 127.344C79.6942 126.843 79.8275 126.256 79.8275 125.584ZM91.232 125.28C91.232 125.557 91.216 125.851 91.184 126.16H84.176C84.2293 127.024 84.5227 127.701 85.056 128.192C85.6 128.672 86.256 128.912 87.024 128.912C87.6533 128.912 88.176 128.768 88.592 128.48C89.0187 128.181 89.3173 127.787 89.488 127.296H91.056C90.8213 128.139 90.352 128.827 89.648 129.36C88.944 129.883 88.0693 130.144 87.024 130.144C86.192 130.144 85.4453 129.957 84.784 129.584C84.1333 129.211 83.6213 128.683 83.248 128C82.8747 127.307 82.688 126.507 82.688 125.6C82.688 124.693 82.8693 123.899 83.232 123.216C83.5947 122.533 84.1013 122.011 84.752 121.648C85.4133 121.275 86.1707 121.088 87.024 121.088C87.856 121.088 88.592 121.269 89.232 121.632C89.872 121.995 90.3627 122.496 90.704 123.136C91.056 123.765 91.232 124.48 91.232 125.28ZM89.728 124.976C89.728 124.421 89.6053 123.947 89.36 123.552C89.1147 123.147 88.7787 122.843 88.352 122.64C87.936 122.427 87.472 122.32 86.96 122.32C86.224 122.32 85.5947 122.555 85.072 123.024C84.56 123.493 84.2667 124.144 84.192 124.976H89.728Z" fill="#AFAFAF"/>
</svg>
