<svg width="192" height="136" viewBox="0 0 192 136" fill="none" xmlns="http://www.w3.org/2000/svg">
<g clip-path="url(#clip0_369_1818)">
<path fill-rule="evenodd" clip-rule="evenodd" d="M175.175 48.3997C175.009 48.0582 174.934 47.8866 174.845 47.7227C172.445 43.3281 170.052 38.9335 167.628 34.539C167.385 34.0983 167.416 33.8382 167.748 33.4582C171.566 29.1645 175.335 24.8472 179.159 20.5714C179.294 20.4205 179.415 20.2608 179.465 19.9918C178.355 20.2703 177.245 20.5458 176.128 20.8291C171.521 22.005 166.876 23.1749 162.312 24.3685C161.883 24.4796 161.689 24.359 161.473 24.0158C158.858 19.8053 156.224 15.583 153.578 11.4259C153.443 11.208 153.295 10.9966 153.007 10.8143C152.794 11.9367 152.58 13.0531 152.371 14.1755C151.637 18.1366 150.903 22.0739 150.175 26.0527C150.096 26.4797 149.987 26.9079 149.949 27.3355C149.913 27.744 149.694 27.8949 149.308 28.0125C143.873 29.6574 138.452 31.3143 133.024 32.9712C132.786 33.043 132.552 33.1381 132.296 33.3608C136.737 35.0592 141.178 36.7576 145.681 38.4858C145.517 38.6111 145.408 38.7085 145.288 38.7827C142.512 40.5108 139.73 42.239 136.961 43.973C136.628 44.1821 136.366 44.2118 135.992 44.0497C132.674 42.6125 129.331 41.1991 126 39.7739C124.507 39.1325 123.169 38.2833 122.127 37.048C119.764 34.2688 120.233 31.1094 123.379 29.1497C124.409 28.5143 125.581 28.0451 126.746 27.6769C132.07 26.0082 137.417 24.3988 142.722 22.7835C143.17 22.6463 143.376 22.4539 143.462 21.9877C144.178 18.0208 144.912 14.03 145.658 10.1105C146.055 7.99045 146.265 5.82286 147.336 3.875C147.746 3.12673 148.236 2.39629 148.828 1.77273C150.95 -0.495815 153.905 -0.578955 156.168 1.57795C156.927 2.30839 157.575 3.16355 158.136 4.04841C160.603 7.92631 163.033 11.828 165.476 15.7475C165.763 16.2089 166.021 16.3015 166.549 16.1673C172.502 14.6292 178.454 13.1149 184.437 11.6005C185.67 11.2876 186.91 11.1741 188.175 11.4016C190.92 11.8957 192.122 13.9077 191.191 16.4672C190.77 17.6312 190.038 18.6111 189.217 19.5434C185.06 24.2527 180.89 28.9858 176.758 33.6773C176.418 34.0621 176.411 34.3365 176.647 34.77C179.138 39.2893 181.606 43.7967 184.11 48.3694C184.703 49.4502 185.159 50.5786 185.171 51.8197C185.2 54.6465 183.049 56.9626 180.132 57.3783C178.497 57.6081 176.98 57.272 175.444 56.8171C171.712 55.7065 167.98 54.6138 164.218 53.5271C163.87 53.4273 163.738 53.2949 163.676 52.9356C163.246 50.3998 162.775 47.87 162.319 45.3342C162.307 45.2647 162.328 45.1905 162.341 45.0349C166.603 46.1691 170.853 47.2856 175.232 48.4555" fill="#CBCBCB"/>
<path fill-rule="evenodd" clip-rule="evenodd" d="M167.773 85.5157C164.405 85.511 161.05 85.4949 157.657 85.5092C157.212 85.5092 156.96 85.3863 156.714 85.0216C152.729 79.178 148.695 73.3226 144.748 67.5027C144.62 67.3175 144.485 67.1387 144.258 66.8257C143.401 73.1207 142.556 79.2968 141.711 85.473H132.891C132.994 84.6475 133.086 83.8458 133.195 83.05C134.052 76.6957 134.922 70.4008 135.785 64.0465C136.612 57.9891 137.432 51.9317 138.271 45.8744C138.295 45.6956 138.42 45.4658 138.572 45.3708C141.607 43.4645 144.654 41.576 147.701 39.6875C147.745 39.6596 147.807 39.6572 147.964 39.6133C147.045 46.3833 146.132 53.0939 145.213 59.8045C145.249 59.8277 145.285 59.8532 145.321 59.8764C150.102 54.7811 154.882 49.662 159.755 44.4954C159.895 45.2793 160.017 45.9504 160.138 46.6214C160.48 48.5396 160.81 50.4696 161.174 52.3878C161.249 52.775 161.14 53.0114 160.873 53.2845C157.783 56.3964 154.705 59.5201 151.621 62.6675C151.486 62.8047 151.358 62.9461 151.204 63.1088C151.302 63.259 151.387 63.4057 151.486 63.5399C156.796 70.7256 162.095 77.9113 167.399 85.097C167.496 85.2271 167.635 85.3293 167.753 85.4451V85.5585" fill="#AFAFAF"/>
<path fill-rule="evenodd" clip-rule="evenodd" d="M63.5314 66.5122C63.3963 65.853 63.3001 64.8791 62.9941 63.9705C61.5138 59.5818 56.8445 57.2004 52.0149 58.2635C46.7042 59.4512 42.8861 63.4716 42.3926 68.7154C41.9855 72.5755 44.1444 76.3168 48.1537 77.6827C51.3857 78.8051 54.5068 78.3359 57.4058 76.6672C61.2362 74.458 63.3087 71.174 63.5739 66.5122H63.5314ZM40.2159 82.8433C39.9556 84.7318 39.7052 86.5075 39.4634 88.289C39.1408 90.6526 38.8157 93.0221 38.5073 95.4154C38.4716 95.6915 38.3846 95.8144 38.0762 95.8121C35.6521 95.8032 33.2281 95.8055 30.7978 95.8008C30.7423 95.8008 30.6868 95.7729 30.5566 95.736C30.7034 94.6196 30.8459 93.4972 30.9977 92.3807C31.5324 88.4613 32.0647 84.5418 32.6075 80.6223C33.2305 76.1327 33.7178 71.655 34.5135 67.2011C35.9198 59.3027 42.9021 52.5327 51.044 50.8105C55.775 49.8247 60.2962 50.2814 64.4288 52.8474C68.5491 55.401 70.9054 59.1424 71.4605 63.7745C72.2253 70.3663 69.7026 75.8298 64.8606 80.4026C61.6655 83.3778 57.829 85.2663 53.4496 85.9077C48.9037 86.5668 44.6292 85.8382 40.805 83.259C40.6649 83.164 40.5132 83.0809 40.2727 82.9348" fill="#AFAFAF"/>
<path fill-rule="evenodd" clip-rule="evenodd" d="M36.1452 45.4304C33.4312 47.3782 30.8097 49.2548 28.1883 51.1374C27.7645 50.496 27.3864 49.8546 26.9423 49.2548C25.8012 47.7168 24.3826 46.5706 22.3224 46.434C20.6077 46.3176 19.1397 46.8604 17.9739 48.079C16.9315 49.1658 16.7958 50.7157 17.7691 51.945C18.8424 53.299 20.0143 54.5818 21.2171 55.8348C23.2094 57.9133 25.288 59.9087 27.2618 62.011C29.0568 63.9113 30.4939 66.0373 30.938 68.6622C31.466 71.7503 30.8252 74.6602 29.3097 77.392C26.5032 82.4101 22.093 85.3497 16.2332 86.2405C13.655 86.6413 11.089 86.563 8.58478 85.8503C5.24783 84.9061 2.92245 82.7979 1.42977 79.8523C0.902394 78.8012 0.498382 77.6907 0.0234375 76.5623C2.94096 75.0599 5.78446 73.593 8.6588 72.1143C8.75749 72.3441 8.82966 72.5366 8.92156 72.7201C9.41316 73.6643 9.81594 74.6679 10.4204 75.5409C12.2277 78.1242 15.139 78.9081 18.0689 77.6313C18.8276 77.3017 19.5616 76.8414 20.1845 76.307C22.0843 74.6798 22.4421 72.4112 21.0357 70.3684C20.2277 69.1925 19.2161 68.1355 18.2292 67.0843C15.873 64.5664 13.4181 62.1256 11.1359 59.5423C9.55071 57.7726 8.47129 55.7178 8.12587 53.3661C7.7527 50.7769 8.28995 48.3421 9.68641 46.1804C13.1591 40.7704 18.1984 37.9852 24.86 38.1633C28.6657 38.2957 31.7066 40.0102 34.0505 42.8608C34.7475 43.704 35.4013 44.577 36.1106 45.4916" fill="#AFAFAF"/>
<path fill-rule="evenodd" clip-rule="evenodd" d="M100.54 74.2327C100.096 77.4929 99.6763 80.587 99.2446 83.675C99.2205 83.833 99.0928 84.0462 98.9553 84.1068C92.3554 87.0404 83.72 86.6307 78.3538 80.7277C75.4547 77.5565 74.2396 73.7795 74.4185 69.6225C74.8398 59.9426 83.1772 51.4504 93.1696 50.2627C98.9984 49.5738 104.087 51.0881 108.035 55.453C110.724 58.4223 111.97 61.9855 111.785 65.9049C111.665 68.4942 111.243 71.0656 110.909 73.6251C110.434 77.2714 109.916 80.9296 109.416 84.5522C109.397 84.6793 109.371 84.8093 109.339 84.9744H101.506C101.609 84.1371 101.706 83.3175 101.817 82.498C102.385 78.2875 103.013 74.0652 103.513 69.8488C103.824 67.2239 103.628 64.6169 102.378 62.188C101.052 59.6047 98.8313 58.2329 95.9014 57.9359C89.8443 57.3183 84.0587 61.3685 82.825 67.0814C81.9738 70.8702 83.3166 74.5046 86.4519 76.5238C89.5051 78.4776 92.7434 78.4835 96.0741 77.2186C97.7642 76.5772 99.1952 75.5558 100.565 74.184" fill="#AFAFAF"/>
<path fill-rule="evenodd" clip-rule="evenodd" d="M133.848 51.2501C133.489 53.875 133.132 56.4582 132.775 59.089C131.109 59.089 129.481 59.0801 127.853 59.0914C126.533 59.1009 125.33 59.9228 124.929 61.1105C124.775 61.5743 124.717 62.0726 124.649 62.5596C123.823 68.6169 123.003 74.6149 122.182 80.6129C121.975 82.1332 121.775 83.6535 121.568 85.1975H113.364C113.516 84.0395 113.66 82.9171 113.812 81.7947C114.344 77.8871 114.879 73.9557 115.416 70.0957C115.881 66.7166 116.298 63.3256 116.847 59.9406C117.581 55.4273 122.244 51.389 126.962 51.2109C129.22 51.1159 131.484 51.1949 133.809 51.1949" fill="#AFAFAF"/>
<path d="M177.642 85.5161V82.1904H177.623L176.266 85.5161H175.834L174.477 82.1904H174.456V85.5161H173.777V81.5312H174.832L176.066 84.5599L177.281 81.5312H178.329V85.5161H177.642ZM171.634 82.0657V85.5161H170.955V82.0657H169.66V81.5318H172.935V82.0657H171.64" fill="#AFAFAF"/>
<path d="M47.0627 39.8482H49.092L48.6121 36.8907L47.0627 39.8482ZM49.4127 41.7604H46.0387L44.9655 43.7855H42.5723L47.846 34.2837H50.1529L51.9478 43.7855H49.7334L49.4152 41.7604" fill="#AFAFAF"/>
<path d="M61.4961 36.2255H60.2933L59.8887 38.4168H61.0915C61.8193 38.4168 62.3929 37.9577 62.3929 37.0925C62.3929 36.5194 62.0315 36.2255 61.4924 36.2255H61.4961ZM58.5848 34.3132H61.7428C63.3959 34.3132 64.5493 35.2634 64.5493 36.8906C64.5493 38.9453 63.0443 40.3231 60.8978 40.3231H59.5346L58.8932 43.7972H56.833L58.5724 34.2954" fill="#AFAFAF"/>
<path d="M71.5503 39.8482H73.5796L73.1003 36.8907L71.5503 39.8482ZM73.8942 41.7604H70.5202L69.4469 43.7855H67.0537L72.3275 34.2837H74.6343L76.4293 43.7855H74.2149L73.8966 41.7604" fill="#AFAFAF"/>
<path d="M86.9707 43.4704C86.2737 43.7768 85.5088 43.9598 84.7378 43.9598C82.1287 43.9598 80.4941 42.0772 80.4941 39.7196C80.4941 36.7028 83.1279 34.167 86.2613 34.167C87.0447 34.167 87.754 34.3481 88.3338 34.654L88.0445 36.9284C87.6109 36.467 86.9096 36.1445 86.0461 36.1445C84.2511 36.1445 82.6536 37.7064 82.6536 39.5177C82.6536 40.8954 83.5541 41.9763 84.9728 41.9763C85.8425 41.9763 86.6814 41.6538 87.2488 41.2102L86.9744 43.4668" fill="#AFAFAF"/>
<path d="M99.9236 39.9669H95.6367L94.9397 43.7855H92.8857L94.6252 34.2837H96.6853L95.9945 38.0369H100.281L100.978 34.2837H103.038L101.299 43.7855H99.2389L99.9297 39.9669" fill="#AFAFAF"/>
<path d="M107.325 43.7674L109.065 34.2656H114.53L114.182 36.1779H110.777L110.43 38.0188H113.557L113.21 39.9311H110.083L109.736 41.8433H113.14L112.793 43.7555H107.328" fill="#AFAFAF"/>
</g>
<path d="M77.768 130.112C77.032 130.112 76.3707 129.984 75.784 129.728C75.208 129.461 74.7547 129.099 74.424 128.64C74.0933 128.171 73.9227 127.632 73.912 127.024H75.464C75.5173 127.547 75.7307 127.989 76.104 128.352C76.488 128.704 77.0427 128.88 77.768 128.88C78.4613 128.88 79.0053 128.709 79.4 128.368C79.8053 128.016 80.008 127.568 80.008 127.024C80.008 126.597 79.8907 126.251 79.656 125.984C79.4213 125.717 79.128 125.515 78.776 125.376C78.424 125.237 77.9493 125.088 77.352 124.928C76.616 124.736 76.024 124.544 75.576 124.352C75.1387 124.16 74.76 123.861 74.44 123.456C74.1307 123.04 73.976 122.485 73.976 121.792C73.976 121.184 74.1307 120.645 74.44 120.176C74.7493 119.707 75.1813 119.344 75.736 119.088C76.3013 118.832 76.9467 118.704 77.672 118.704C78.7173 118.704 79.5707 118.965 80.232 119.488C80.904 120.011 81.2827 120.704 81.368 121.568H79.768C79.7147 121.141 79.4907 120.768 79.096 120.448C78.7013 120.117 78.1787 119.952 77.528 119.952C76.92 119.952 76.424 120.112 76.04 120.432C75.656 120.741 75.464 121.179 75.464 121.744C75.464 122.149 75.576 122.48 75.8 122.736C76.0347 122.992 76.3173 123.189 76.648 123.328C76.9893 123.456 77.464 123.605 78.072 123.776C78.808 123.979 79.4 124.181 79.848 124.384C80.296 124.576 80.68 124.88 81 125.296C81.32 125.701 81.48 126.256 81.48 126.96C81.48 127.504 81.336 128.016 81.048 128.496C80.76 128.976 80.3333 129.365 79.768 129.664C79.2027 129.963 78.536 130.112 77.768 130.112ZM85.0786 122.848C85.3666 122.347 85.7933 121.931 86.3586 121.6C86.9346 121.259 87.6013 121.088 88.3586 121.088C89.1373 121.088 89.8413 121.275 90.4706 121.648C91.1106 122.021 91.612 122.549 91.9746 123.232C92.3373 123.904 92.5186 124.688 92.5186 125.584C92.5186 126.469 92.3373 127.259 91.9746 127.952C91.612 128.645 91.1106 129.184 90.4706 129.568C89.8413 129.952 89.1373 130.144 88.3586 130.144C87.612 130.144 86.9506 129.979 86.3746 129.648C85.8093 129.307 85.3773 128.885 85.0786 128.384V134.16H83.6226V121.232H85.0786V122.848ZM91.0306 125.584C91.0306 124.923 90.8973 124.347 90.6306 123.856C90.364 123.365 90.0013 122.992 89.5426 122.736C89.0946 122.48 88.5986 122.352 88.0546 122.352C87.5213 122.352 87.0253 122.485 86.5666 122.752C86.1186 123.008 85.756 123.387 85.4786 123.888C85.212 124.379 85.0786 124.949 85.0786 125.6C85.0786 126.261 85.212 126.843 85.4786 127.344C85.756 127.835 86.1186 128.213 86.5666 128.48C87.0253 128.736 87.5213 128.864 88.0546 128.864C88.5986 128.864 89.0946 128.736 89.5426 128.48C90.0013 128.213 90.364 127.835 90.6306 127.344C90.8973 126.843 91.0306 126.256 91.0306 125.584ZM93.8911 125.584C93.8911 124.688 94.0725 123.904 94.4351 123.232C94.7978 122.549 95.2938 122.021 95.9231 121.648C96.5631 121.275 97.2725 121.088 98.0511 121.088C98.8191 121.088 99.4858 121.253 100.051 121.584C100.616 121.915 101.038 122.331 101.315 122.832V121.232H102.787V130H101.315V128.368C101.027 128.88 100.595 129.307 100.019 129.648C99.4538 129.979 98.7925 130.144 98.0351 130.144C97.2565 130.144 96.5525 129.952 95.9231 129.568C95.2938 129.184 94.7978 128.645 94.4351 127.952C94.0725 127.259 93.8911 126.469 93.8911 125.584ZM101.315 125.6C101.315 124.939 101.182 124.363 100.915 123.872C100.648 123.381 100.286 123.008 99.8271 122.752C99.3791 122.485 98.8831 122.352 98.3391 122.352C97.7951 122.352 97.2991 122.48 96.8511 122.736C96.4031 122.992 96.0458 123.365 95.7791 123.856C95.5125 124.347 95.3791 124.923 95.3791 125.584C95.3791 126.256 95.5125 126.843 95.7791 127.344C96.0458 127.835 96.4031 128.213 96.8511 128.48C97.2991 128.736 97.7951 128.864 98.3391 128.864C98.8831 128.864 99.3791 128.736 99.8271 128.48C100.286 128.213 100.648 127.835 100.915 127.344C101.182 126.843 101.315 126.261 101.315 125.6ZM106.704 122.656C106.96 122.155 107.322 121.765 107.792 121.488C108.272 121.211 108.853 121.072 109.536 121.072V122.576H109.152C107.52 122.576 106.704 123.461 106.704 125.232V130H105.248V121.232H106.704V122.656ZM116.112 130L112.672 126.128V130H111.216V118.16H112.672V125.12L116.048 121.232H118.08L113.952 125.6L118.096 130H116.112Z" fill="#AFAFAF"/>
<defs>
<clipPath id="clip0_369_1818">
<rect width="192" height="96" fill="white"/>
</clipPath>
</defs>
</svg>
