<svg width="96" height="136" viewBox="0 0 96 136" fill="none" xmlns="http://www.w3.org/2000/svg">
<path d="M45.4825 62.8058H50.5173V49.1933H63.1806V44.3532H50.5173V30.7407H45.4825V44.3532H32.9717V49.1933H45.4825V62.8058Z" fill="#AFAFAF"/>
<path d="M22.1389 82.468H26.4108V70.368H37.701V66.5867H26.4108V54.3354H22.1389V66.5867H10.8486V70.368H22.1389V82.468Z" fill="#E2E2E2"/>
<path d="M69.589 38.7567H73.861V26.6567H85.3038V23.0267H73.861V10.7754H69.589V23.0267H58.2988V26.6567H69.589V38.7567Z" fill="#AFAFAF"/>
<path d="M46.2457 91.9969H49.9074V83.3756H57.6885V80.1994H49.9074V71.5781H46.2457V80.1994H38.6172V83.3756H46.2457V91.9969Z" fill="#CBCBCB"/>
<path d="M22.2914 38.7567H26.2583V26.5054H37.701V23.0267H26.2583V10.7754H22.2914V23.0267H10.8486V26.5054H22.2914V38.7567Z" fill="#CBCBCB"/>
<path d="M82.5572 56.9067H86.2189V48.4367H94V45.1092H86.2189V36.6392H82.5572V45.1092H74.9287V48.4367H82.5572V56.9067Z" fill="#CBCBCB"/>
<path fill-rule="evenodd" clip-rule="evenodd" d="M69.589 82.468H73.861V70.368H85.3038V66.5867H73.861V54.3354H69.589V66.5867H58.2988V70.368H69.589V82.468Z" fill="#AFAFAF"/>
<path d="M57.0779 12.8934V10.3222H49.4494V2.00342H46.7032V10.3222H39.0746V12.8934H46.7032V21.2122H49.4494V12.8934H57.0779ZM9.62852 56.3022H12.3748V47.9835H20.0033V45.4122H12.3748V37.2447H9.62852V45.4122H2V48.1347L9.62852 47.9835V56.3022Z" fill="#CBCBCB"/>
<path d="M23.096 118.848V120.032H20.056V130H18.6V120.032H15.544V118.848H23.096ZM24.3443 125.584C24.3443 124.688 24.5256 123.904 24.8883 123.232C25.2509 122.549 25.7469 122.021 26.3763 121.648C27.0163 121.275 27.7256 121.088 28.5043 121.088C29.2723 121.088 29.9389 121.253 30.5043 121.584C31.0696 121.915 31.4909 122.331 31.7683 122.832V121.232H33.2403V130H31.7683V128.368C31.4803 128.88 31.0483 129.307 30.4723 129.648C29.9069 129.979 29.2456 130.144 28.4883 130.144C27.7096 130.144 27.0056 129.952 26.3763 129.568C25.7469 129.184 25.2509 128.645 24.8883 127.952C24.5256 127.259 24.3443 126.469 24.3443 125.584ZM31.7683 125.6C31.7683 124.939 31.6349 124.363 31.3683 123.872C31.1016 123.381 30.7389 123.008 30.2803 122.752C29.8323 122.485 29.3363 122.352 28.7923 122.352C28.2483 122.352 27.7523 122.48 27.3043 122.736C26.8563 122.992 26.4989 123.365 26.2323 123.856C25.9656 124.347 25.8323 124.923 25.8323 125.584C25.8323 126.256 25.9656 126.843 26.2323 127.344C26.4989 127.835 26.8563 128.213 27.3043 128.48C27.7523 128.736 28.2483 128.864 28.7923 128.864C29.3363 128.864 29.8323 128.736 30.2803 128.48C30.7389 128.213 31.1016 127.835 31.3683 127.344C31.6349 126.843 31.7683 126.261 31.7683 125.6ZM37.1568 122.864C37.4554 122.341 37.8928 121.915 38.4688 121.584C39.0448 121.253 39.7008 121.088 40.4368 121.088C41.2261 121.088 41.9354 121.275 42.5648 121.648C43.1941 122.021 43.6901 122.549 44.0528 123.232C44.4154 123.904 44.5968 124.688 44.5968 125.584C44.5968 126.469 44.4154 127.259 44.0528 127.952C43.6901 128.645 43.1887 129.184 42.5487 129.568C41.9194 129.952 41.2154 130.144 40.4368 130.144C39.6794 130.144 39.0128 129.979 38.4368 129.648C37.8714 129.317 37.4448 128.896 37.1568 128.384V130H35.7008V118.16H37.1568V122.864ZM43.1088 125.584C43.1088 124.923 42.9754 124.347 42.7088 123.856C42.4421 123.365 42.0794 122.992 41.6208 122.736C41.1728 122.48 40.6768 122.352 40.1328 122.352C39.5994 122.352 39.1034 122.485 38.6448 122.752C38.1968 123.008 37.8341 123.387 37.5568 123.888C37.2901 124.379 37.1568 124.949 37.1568 125.6C37.1568 126.261 37.2901 126.843 37.5568 127.344C37.8341 127.835 38.1968 128.213 38.6448 128.48C39.1034 128.736 39.5994 128.864 40.1328 128.864C40.6768 128.864 41.1728 128.736 41.6208 128.48C42.0794 128.213 42.4421 127.835 42.7088 127.344C42.9754 126.843 43.1088 126.256 43.1088 125.584ZM47.9693 118.16V130H46.5133V118.16H47.9693ZM58.4508 125.28C58.4508 125.557 58.4348 125.851 58.4028 126.16H51.3948C51.4481 127.024 51.7414 127.701 52.2748 128.192C52.8188 128.672 53.4748 128.912 54.2428 128.912C54.8721 128.912 55.3948 128.768 55.8108 128.48C56.2374 128.181 56.5361 127.787 56.7068 127.296H58.2748C58.0401 128.139 57.5708 128.827 56.8668 129.36C56.1628 129.883 55.2881 130.144 54.2428 130.144C53.4108 130.144 52.6641 129.957 52.0028 129.584C51.3521 129.211 50.8401 128.683 50.4668 128C50.0934 127.307 49.9068 126.507 49.9068 125.6C49.9068 124.693 50.0881 123.899 50.4508 123.216C50.8134 122.533 51.3201 122.011 51.9708 121.648C52.6321 121.275 53.3894 121.088 54.2428 121.088C55.0748 121.088 55.8108 121.269 56.4508 121.632C57.0908 121.995 57.5814 122.496 57.9228 123.136C58.2748 123.765 58.4508 124.48 58.4508 125.28ZM56.9468 124.976C56.9468 124.421 56.8241 123.947 56.5788 123.552C56.3334 123.147 55.9974 122.843 55.5708 122.64C55.1548 122.427 54.6908 122.32 54.1788 122.32C53.4428 122.32 52.8134 122.555 52.2908 123.024C51.7788 123.493 51.4854 124.144 51.4108 124.976H56.9468ZM59.8286 125.584C59.8286 124.688 60.01 123.904 60.3726 123.232C60.7353 122.549 61.2313 122.021 61.8606 121.648C62.5006 121.275 63.21 121.088 63.9886 121.088C64.7566 121.088 65.4233 121.253 65.9886 121.584C66.554 121.915 66.9753 122.331 67.2526 122.832V121.232H68.7246V130H67.2526V128.368C66.9646 128.88 66.5326 129.307 65.9566 129.648C65.3913 129.979 64.73 130.144 63.9726 130.144C63.194 130.144 62.49 129.952 61.8606 129.568C61.2313 129.184 60.7353 128.645 60.3726 127.952C60.01 127.259 59.8286 126.469 59.8286 125.584ZM67.2526 125.6C67.2526 124.939 67.1193 124.363 66.8526 123.872C66.586 123.381 66.2233 123.008 65.7646 122.752C65.3166 122.485 64.8206 122.352 64.2766 122.352C63.7326 122.352 63.2366 122.48 62.7886 122.736C62.3406 122.992 61.9833 123.365 61.7166 123.856C61.45 124.347 61.3166 124.923 61.3166 125.584C61.3166 126.256 61.45 126.843 61.7166 127.344C61.9833 127.835 62.3406 128.213 62.7886 128.48C63.2366 128.736 63.7326 128.864 64.2766 128.864C64.8206 128.864 65.3166 128.736 65.7646 128.48C66.2233 128.213 66.586 127.835 66.8526 127.344C67.1193 126.843 67.2526 126.261 67.2526 125.6ZM78.9611 121.232V130H77.5051V128.704C77.2278 129.152 76.8385 129.504 76.3371 129.76C75.8465 130.005 75.3025 130.128 74.7051 130.128C74.0225 130.128 73.4091 129.989 72.8651 129.712C72.3211 129.424 71.8891 128.997 71.5691 128.432C71.2598 127.867 71.1051 127.179 71.1051 126.368V121.232H72.5451V126.176C72.5451 127.04 72.7638 127.707 73.2011 128.176C73.6385 128.635 74.2358 128.864 74.9931 128.864C75.7718 128.864 76.3851 128.624 76.8331 128.144C77.2811 127.664 77.5051 126.965 77.5051 126.048V121.232H78.9611Z" fill="#AFAFAF"/>
</svg>
