<svg width="96" height="136" viewBox="0 0 96 136" fill="none" xmlns="http://www.w3.org/2000/svg">
<path d="M29.2549 6.32813C26.733 6.33361 24.2644 7.76854 22.9951 9.95731L3.24999 44.3357C2 46.5303 2 49.3991 3.24999 51.5937L22.9951 85.9725C24.2644 88.1613 26.733 89.5966 29.2549 89.6017H68.7451C71.267 89.5962 73.7356 88.1613 75.0049 85.9725L94.75 51.5937C96 49.3991 95.9996 46.5303 94.75 44.3357L75.0049 9.95731C73.7356 7.76818 71.267 6.33324 68.7451 6.32812L29.2549 6.32813ZM29.6134 26.4402C29.6678 26.4347 29.7247 26.4347 29.779 26.4402H36.5903C36.7416 26.4451 36.8893 26.4883 37.0195 26.5658C37.1497 26.6433 37.2583 26.7525 37.3351 26.8833L48.8899 47.5215C48.9482 47.6238 48.9854 47.7372 48.9993 47.8541C49.0139 47.7372 49.0511 47.6238 49.1094 47.5215L60.6365 26.8833C60.7159 26.7488 60.8288 26.6372 60.9642 26.5595C61.0995 26.4819 61.2527 26.4408 61.4086 26.4402H68.2203C68.8232 26.4453 69.2751 27.2068 68.9924 27.7421L57.7134 47.9649L68.9924 68.16C69.3017 68.6981 68.8392 69.4947 68.2203 69.4896H61.4086C61.25 69.4863 61.095 69.4409 60.9594 69.3583C60.8238 69.2756 60.7124 69.1585 60.6365 69.0187L49.1094 48.3802C49.0511 48.2782 49.0139 48.1645 48.9996 48.0479C48.9854 48.165 48.9481 48.2781 48.8899 48.3806L37.3347 69.0187C37.2613 69.1545 37.1543 69.2691 37.024 69.3515C36.8937 69.434 36.7445 69.4815 36.5906 69.4896H29.7787C29.1597 69.4951 28.6972 68.6981 29.0065 68.16L40.2855 47.9649L29.0065 27.7421C28.7362 27.2536 29.0659 26.5444 29.6131 26.4402H29.6134Z" fill="#CBCBCB"/>
<path d="M19.6983 124.432L23.1223 130H21.4743L18.8023 125.648L16.2582 130H14.6423L18.0503 124.432L14.6263 118.848H16.2582L18.9463 123.216L21.5063 118.848H23.1383L19.6983 124.432ZM24.5318 125.584C24.5318 124.688 24.7131 123.904 25.0758 123.232C25.4384 122.549 25.9344 122.021 26.5638 121.648C27.2038 121.275 27.9131 121.088 28.6918 121.088C29.4598 121.088 30.1264 121.253 30.6918 121.584C31.2571 121.915 31.6784 122.331 31.9558 122.832V121.232H33.4278V130H31.9558V128.368C31.6678 128.88 31.2358 129.307 30.6598 129.648C30.0944 129.979 29.4331 130.144 28.6758 130.144C27.8971 130.144 27.1931 129.952 26.5638 129.568C25.9344 129.184 25.4384 128.645 25.0758 127.952C24.7131 127.259 24.5318 126.469 24.5318 125.584ZM31.9558 125.6C31.9558 124.939 31.8224 124.363 31.5558 123.872C31.2891 123.381 30.9264 123.008 30.4678 122.752C30.0198 122.485 29.5238 122.352 28.9798 122.352C28.4358 122.352 27.9398 122.48 27.4918 122.736C27.0438 122.992 26.6864 123.365 26.4198 123.856C26.1531 124.347 26.0198 124.923 26.0198 125.584C26.0198 126.256 26.1531 126.843 26.4198 127.344C26.6864 127.835 27.0438 128.213 27.4918 128.48C27.9398 128.736 28.4358 128.864 28.9798 128.864C29.5238 128.864 30.0198 128.736 30.4678 128.48C30.9264 128.213 31.2891 127.835 31.5558 127.344C31.8224 126.843 31.9558 126.261 31.9558 125.6ZM46.4323 121.072C47.1149 121.072 47.7229 121.216 48.2563 121.504C48.7896 121.781 49.2109 122.203 49.5203 122.768C49.8296 123.333 49.9843 124.021 49.9843 124.832V130H48.5443V125.04C48.5443 124.165 48.3256 123.499 47.8883 123.04C47.4616 122.571 46.8803 122.336 46.1443 122.336C45.3869 122.336 44.7843 122.581 44.3363 123.072C43.8883 123.552 43.6643 124.251 43.6643 125.168V130H42.2243V125.04C42.2243 124.165 42.0056 123.499 41.5683 123.04C41.1416 122.571 40.5603 122.336 39.8243 122.336C39.0669 122.336 38.4643 122.581 38.0163 123.072C37.5683 123.552 37.3443 124.251 37.3443 125.168V130H35.8883V121.232H37.3443V122.496C37.6323 122.037 38.0163 121.685 38.4963 121.44C38.9869 121.195 39.5256 121.072 40.1123 121.072C40.8483 121.072 41.4989 121.237 42.0643 121.568C42.6296 121.899 43.0509 122.384 43.3283 123.024C43.5736 122.405 43.9789 121.925 44.5443 121.584C45.1096 121.243 45.7389 121.072 46.4323 121.072ZM51.8286 125.584C51.8286 124.688 52.01 123.904 52.3726 123.232C52.7353 122.549 53.2313 122.021 53.8606 121.648C54.5006 121.275 55.21 121.088 55.9886 121.088C56.7566 121.088 57.4233 121.253 57.9886 121.584C58.554 121.915 58.9753 122.331 59.2526 122.832V121.232H60.7246V130H59.2526V128.368C58.9646 128.88 58.5326 129.307 57.9566 129.648C57.3913 129.979 56.73 130.144 55.9726 130.144C55.194 130.144 54.49 129.952 53.8606 129.568C53.2313 129.184 52.7353 128.645 52.3726 127.952C52.01 127.259 51.8286 126.469 51.8286 125.584ZM59.2526 125.6C59.2526 124.939 59.1193 124.363 58.8526 123.872C58.586 123.381 58.2233 123.008 57.7646 122.752C57.3166 122.485 56.8206 122.352 56.2766 122.352C55.7326 122.352 55.2366 122.48 54.7886 122.736C54.3406 122.992 53.9833 123.365 53.7166 123.856C53.45 124.347 53.3166 124.923 53.3166 125.584C53.3166 126.256 53.45 126.843 53.7166 127.344C53.9833 127.835 54.3406 128.213 54.7886 128.48C55.2366 128.736 55.7326 128.864 56.2766 128.864C56.8206 128.864 57.3166 128.736 57.7646 128.48C58.2233 128.213 58.586 127.835 58.8526 127.344C59.1193 126.843 59.2526 126.261 59.2526 125.6ZM64.6411 122.656C64.8971 122.155 65.2598 121.765 65.7291 121.488C66.2091 121.211 66.7905 121.072 67.4731 121.072V122.576H67.0891C65.4571 122.576 64.6411 123.461 64.6411 125.232V130H63.1851V121.232H64.6411V122.656ZM69.9059 119.808C69.6285 119.808 69.3939 119.712 69.2019 119.52C69.0099 119.328 68.9139 119.093 68.9139 118.816C68.9139 118.539 69.0099 118.304 69.2019 118.112C69.3939 117.92 69.6285 117.824 69.9059 117.824C70.1725 117.824 70.3965 117.92 70.5779 118.112C70.7699 118.304 70.8659 118.539 70.8659 118.816C70.8659 119.093 70.7699 119.328 70.5779 119.52C70.3965 119.712 70.1725 119.808 69.9059 119.808ZM70.6099 121.232V130H69.1539V121.232H70.6099ZM77.3634 121.072C78.43 121.072 79.294 121.397 79.9554 122.048C80.6167 122.688 80.9474 123.616 80.9474 124.832V130H79.5074V125.04C79.5074 124.165 79.2887 123.499 78.8514 123.04C78.414 122.571 77.8167 122.336 77.0594 122.336C76.2914 122.336 75.678 122.576 75.2194 123.056C74.7714 123.536 74.5474 124.235 74.5474 125.152V130H73.0914V121.232H74.5474V122.48C74.8354 122.032 75.2247 121.685 75.7154 121.44C76.2167 121.195 76.766 121.072 77.3634 121.072Z" fill="#AFAFAF"/>
</svg>
