<svg width="64" height="64" viewBox="0 0 64 64" fill="none" xmlns="http://www.w3.org/2000/svg">
<circle cx="32" cy="32" r="32" fill="#FFE603"/>
<path d="M38.7273 34.7273L39.6422 35.1311L39.6464 35.1212L38.7273 34.7273ZM39.0273 36.3818L38.3124 37.0811L38.3202 37.0889L39.0273 36.3818ZM39.0818 36.4364L38.3747 37.1435L38.3751 37.1439L39.0818 36.4364ZM39.0818 39.0091L38.3751 38.3016L38.3743 38.3024L39.0818 39.0091ZM36.5091 39.0091L37.2166 38.3024L37.2162 38.302L36.5091 39.0091ZM36.4545 38.9545L37.1617 38.2474L37.1538 38.2397L36.4545 38.9545ZM34.8 38.6545L35.194 39.5737L35.2038 39.5694L34.8 38.6545ZM33.8909 40.0273L32.8909 40.0233V40.0273H33.8909ZM30.2545 40.1H31.2545C31.2545 40.0922 31.2545 40.0844 31.2543 40.0766L30.2545 40.1ZM29.2727 38.7273L28.869 39.6421C28.8882 39.6506 28.9078 39.6585 28.9275 39.6658L29.2727 38.7273ZM27.6182 39.0273L26.9189 38.3124L26.9111 38.3202L27.6182 39.0273ZM27.5636 39.0818L26.8565 38.3747L26.8561 38.3751L27.5636 39.0818ZM24.9909 39.0818L25.6984 38.3751L25.6976 38.3743L24.9909 39.0818ZM24.4577 37.7955H25.4577H24.4577ZM24.9909 36.5091L25.6976 37.2166L25.698 37.2162L24.9909 36.5091ZM25.0455 36.4545L25.7526 37.1617L25.7603 37.1538L25.0455 36.4545ZM25.3455 34.8L24.4263 35.194L24.4306 35.2038L25.3455 34.8ZM23.9727 33.8909L23.9767 32.8909H23.9727V33.8909ZM22 32.0727H21H22ZM23.8182 30.2545V31.2545V30.2545ZM23.9 30.2545V31.2545C23.9078 31.2545 23.9156 31.2545 23.9234 31.2543L23.9 30.2545ZM25.2727 29.2727L24.3579 28.869C24.3494 28.8882 24.3415 28.9078 24.3342 28.9275L25.2727 29.2727ZM24.9727 27.6182L25.6876 26.9189L25.6798 26.9111L24.9727 27.6182ZM24.9182 27.5636L25.6253 26.8565L25.6249 26.8561L24.9182 27.5636ZM24.9182 24.9909L25.6249 25.6984L25.6257 25.6976L24.9182 24.9909ZM27.4909 24.9909L26.7834 25.6976L26.7838 25.698L27.4909 24.9909ZM27.5455 25.0455L26.8383 25.7526L26.8462 25.7603L27.5455 25.0455ZM29.2 25.3455V24.3455C29.061 24.3455 28.9234 24.3745 28.7962 24.4306L29.2 25.3455ZM29.2727 25.3455V26.3455C29.4082 26.3455 29.5422 26.3179 29.6667 26.2646L29.2727 25.3455ZM30.1818 23.9727L31.1818 23.9767V23.9727H30.1818ZM32 22V21V22ZM33.8182 23.9H32.8182L32.8182 23.904L33.8182 23.9ZM34.7273 25.2727L35.1311 24.3578L35.1212 24.3536L34.7273 25.2727ZM36.3818 24.9727L37.0811 25.6876L37.0889 25.6798L36.3818 24.9727ZM36.4364 24.9182L37.1435 25.6253L37.1439 25.6249L36.4364 24.9182ZM37.7227 24.3849V25.3849V24.3849ZM39.0091 24.9182L38.3016 25.6249L38.3024 25.6257L39.0091 24.9182ZM39.0091 27.4909L38.3024 26.7834L38.302 26.7838L39.0091 27.4909ZM38.9545 27.5455L38.2474 26.8383L38.2397 26.8462L38.9545 27.5455ZM38.6545 29.2H39.6545C39.6545 29.061 39.6255 28.9234 39.5694 28.7962L38.6545 29.2ZM38.6545 29.2727H37.6545C37.6545 29.4082 37.6821 29.5422 37.7354 29.6667L38.6545 29.2727ZM40.0273 30.1818L40.0233 31.1818H40.0273V30.1818ZM40.1 33.8182V32.8182L40.096 32.8182L40.1 33.8182ZM34 32C34 33.1046 33.1046 34 32 34V36C34.2091 36 36 34.2091 36 32H34ZM32 34C30.8954 34 30 33.1046 30 32H28C28 34.2091 29.7909 36 32 36V34ZM30 32C30 30.8954 30.8954 30 32 30V28C29.7909 28 28 29.7909 28 32H30ZM32 30C33.1046 30 34 30.8954 34 32H36C36 29.7909 34.2091 28 32 28V30ZM37.8124 34.3235C37.6107 34.7805 37.5506 35.2874 37.6397 35.7789L39.6076 35.4221C39.5898 35.3238 39.6018 35.2224 39.6421 35.131L37.8124 34.3235ZM37.6397 35.7789C37.7288 36.2705 37.9631 36.724 38.3124 37.0811L39.7421 35.6826C39.6723 35.6111 39.6254 35.5204 39.6076 35.4221L37.6397 35.7789ZM38.3202 37.0889L38.3747 37.1435L39.7889 35.7292L39.7344 35.6747L38.3202 37.0889ZM38.3751 37.1439C38.4512 37.2198 38.5115 37.3101 38.5527 37.4094L40.4002 36.6435C40.2584 36.3014 40.0506 35.9906 39.7885 35.7289L38.3751 37.1439ZM38.5527 37.4094C38.5939 37.5087 38.6151 37.6152 38.6151 37.7227H40.6151C40.6151 37.3524 40.5421 36.9857 40.4002 36.6435L38.5527 37.4094ZM38.6151 37.7227C38.6151 37.8303 38.5939 37.9367 38.5527 38.036L40.4002 38.8019C40.5421 38.4598 40.6151 38.0931 40.6151 37.7227H38.6151ZM38.5527 38.036C38.5115 38.1354 38.4512 38.2256 38.3751 38.3016L39.7885 39.7166C40.0506 39.4549 40.2584 39.144 40.4002 38.8019L38.5527 38.036ZM38.3743 38.3024C38.2983 38.3785 38.2081 38.4388 38.1088 38.48L38.8747 40.3275C39.2168 40.1857 39.5276 39.9778 39.7893 39.7158L38.3743 38.3024ZM38.1088 38.48C38.0094 38.5211 37.903 38.5423 37.7955 38.5423V40.5423C38.1658 40.5423 38.5325 40.4693 38.8747 40.3275L38.1088 38.48ZM37.7955 38.5423C37.6879 38.5423 37.5815 38.5211 37.4821 38.48L36.7163 40.3275C37.0584 40.4693 37.4251 40.5423 37.7955 40.5423V38.5423ZM37.4821 38.48C37.3828 38.4388 37.2926 38.3784 37.2166 38.3024L35.8016 39.7158C36.0633 39.9778 36.3741 40.1857 36.7163 40.3275L37.4821 38.48ZM37.2162 38.302L37.1617 38.2474L35.7474 39.6617L35.802 39.7162L37.2162 38.302ZM37.1538 38.2397C36.7967 37.8904 36.3432 37.6561 35.8517 37.5669L35.4949 39.5349C35.5932 39.5527 35.6839 39.5995 35.7553 39.6694L37.1538 38.2397ZM35.8517 37.5669C35.3602 37.4778 34.8532 37.538 34.3962 37.7397L35.2038 39.5694C35.2952 39.5291 35.3965 39.517 35.4949 39.5349L35.8517 37.5669ZM34.4061 37.7354C33.9579 37.9275 33.5757 38.2464 33.3065 38.6529L34.974 39.7572C35.0279 39.6759 35.1043 39.6121 35.1939 39.5737L34.4061 37.7354ZM33.3065 38.6529C33.0373 39.0594 32.8929 39.5357 32.8909 40.0233L34.8909 40.0313C34.8913 39.9338 34.9202 39.8385 34.974 39.7572L33.3065 38.6529ZM32.8909 40.0273V40.1818H34.8909V40.0273H32.8909ZM32.8909 40.1818C32.8909 40.3988 32.8047 40.6069 32.6513 40.7604L34.0655 42.1746C34.594 41.6461 34.8909 40.9292 34.8909 40.1818H32.8909ZM32.6513 40.7604C32.4978 40.9138 32.2897 41 32.0727 41V43C32.8202 43 33.537 42.7031 34.0655 42.1746L32.6513 40.7604ZM32.0727 41C31.8557 41 31.6476 40.9138 31.4942 40.7604L30.08 42.1746C30.6085 42.7031 31.3253 43 32.0727 43V41ZM31.4942 40.7604C31.3407 40.6069 31.2545 40.3988 31.2545 40.1818H29.2545C29.2545 40.9292 29.5515 41.6461 30.08 42.1746L31.4942 40.7604ZM31.2545 40.1818V40.1H29.2545V40.1818H31.2545ZM31.2543 40.0766C31.2425 39.5751 31.0802 39.0887 30.7884 38.6807L29.1616 39.8442C29.22 39.9258 29.2525 40.0231 29.2548 40.1234L31.2543 40.0766ZM30.7884 38.6807C30.4965 38.2727 30.0887 37.9619 29.6179 37.7887L28.9275 39.6658C29.0217 39.7004 29.1033 39.7626 29.1616 39.8442L30.7884 38.6807ZM29.6765 37.8124C29.2195 37.6107 28.7126 37.5506 28.2211 37.6397L28.5779 39.6076C28.6762 39.5898 28.7776 39.6018 28.869 39.6421L29.6765 37.8124ZM28.2211 37.6397C27.7295 37.7288 27.276 37.9631 26.9189 38.3124L28.3174 39.7421C28.3889 39.6723 28.4796 39.6254 28.5779 39.6076L28.2211 37.6397ZM26.9111 38.3202L26.8565 38.3747L28.2707 39.7889L28.3253 39.7344L26.9111 38.3202ZM26.8561 38.3751C26.7802 38.4512 26.6899 38.5115 26.5906 38.5527L27.3565 40.4002C27.6986 40.2584 28.0094 40.0506 28.2711 39.7885L26.8561 38.3751ZM26.5906 38.5527C26.4913 38.5939 26.3848 38.6151 26.2773 38.6151V40.6151C26.6476 40.6151 27.0143 40.5421 27.3565 40.4002L26.5906 38.5527ZM26.2773 38.6151C26.1697 38.6151 26.0633 38.5939 25.964 38.5527L25.1981 40.4002C25.5402 40.5421 25.9069 40.6151 26.2773 40.6151V38.6151ZM25.964 38.5527C25.8646 38.5115 25.7744 38.4512 25.6984 38.3751L24.2834 39.7885C24.5451 40.0506 24.856 40.2584 25.1981 40.4002L25.964 38.5527ZM25.6976 38.3743C25.6216 38.2983 25.5612 38.2081 25.52 38.1088L23.6725 38.8747C23.8143 39.2168 24.0222 39.5276 24.2842 39.7893L25.6976 38.3743ZM25.52 38.1088C25.4789 38.0094 25.4577 37.903 25.4577 37.7955H23.4577C23.4577 38.1658 23.5307 38.5325 23.6725 38.8747L25.52 38.1088ZM25.4577 37.7955C25.4577 37.6879 25.4789 37.5815 25.52 37.4821L23.6725 36.7163C23.5307 37.0584 23.4577 37.4251 23.4577 37.7955H25.4577ZM25.52 37.4821C25.5612 37.3828 25.6216 37.2926 25.6976 37.2166L24.2842 35.8016C24.0222 36.0633 23.8143 36.3741 23.6725 36.7163L25.52 37.4821ZM25.698 37.2162L25.7526 37.1617L24.3384 35.7474L24.2838 35.802L25.698 37.2162ZM25.7603 37.1538C26.1096 36.7967 26.3439 36.3432 26.4331 35.8517L24.4651 35.4949C24.4473 35.5932 24.4005 35.6839 24.3306 35.7553L25.7603 37.1538ZM26.4331 35.8517C26.5222 35.3602 26.462 34.8532 26.2603 34.3962L24.4306 35.2038C24.4709 35.2952 24.483 35.3966 24.4651 35.4949L26.4331 35.8517ZM26.2646 34.4061C26.0725 33.9579 25.7536 33.5757 25.3471 33.3065L24.2428 34.974C24.3241 35.0279 24.3879 35.1043 24.4263 35.1939L26.2646 34.4061ZM25.3471 33.3065C24.9406 33.0373 24.4643 32.8929 23.9767 32.8909L23.9687 34.8909C24.0662 34.8913 24.1615 34.9202 24.2428 34.974L25.3471 33.3065ZM23.9727 32.8909H23.8182V34.8909H23.9727V32.8909ZM23.8182 32.8909C23.6012 32.8909 23.3931 32.8047 23.2396 32.6513L21.8254 34.0655C22.3539 34.594 23.0708 34.8909 23.8182 34.8909V32.8909ZM23.2396 32.6513C23.0862 32.4978 23 32.2897 23 32.0727H21C21 32.8202 21.2969 33.537 21.8254 34.0655L23.2396 32.6513ZM23 32.0727C23 31.8557 23.0862 31.6476 23.2396 31.4942L21.8254 30.08C21.2969 30.6085 21 31.3253 21 32.0727H23ZM23.2396 31.4942C23.3931 31.3407 23.6012 31.2545 23.8182 31.2545V29.2545C23.0708 29.2545 22.3539 29.5515 21.8254 30.08L23.2396 31.4942ZM23.8182 31.2545H23.9V29.2545H23.8182V31.2545ZM23.9234 31.2543C24.4249 31.2425 24.9113 31.0802 25.3193 30.7884L24.1558 29.1616C24.0742 29.22 23.9769 29.2525 23.8766 29.2548L23.9234 31.2543ZM25.3193 30.7884C25.7273 30.4965 26.0381 30.0887 26.2113 29.6179L24.3342 28.9275C24.2996 29.0217 24.2374 29.1033 24.1558 29.1616L25.3193 30.7884ZM26.1876 29.6765C26.3893 29.2195 26.4494 28.7126 26.3603 28.2211L24.3924 28.5779C24.4102 28.6762 24.3982 28.7776 24.3579 28.869L26.1876 29.6765ZM26.3603 28.2211C26.2712 27.7295 26.0369 27.276 25.6876 26.9189L24.2579 28.3174C24.3277 28.3889 24.3746 28.4796 24.3924 28.5779L26.3603 28.2211ZM25.6798 26.9111L25.6253 26.8565L24.2111 28.2707L24.2656 28.3253L25.6798 26.9111ZM25.6249 26.8561C25.5488 26.7801 25.4885 26.6899 25.4473 26.5906L23.5998 27.3565C23.7416 27.6986 23.9494 28.0094 24.2115 28.2711L25.6249 26.8561ZM25.4473 26.5906C25.4061 26.4913 25.3849 26.3848 25.3849 26.2773H23.3849C23.3849 26.6476 23.4579 27.0143 23.5998 27.3565L25.4473 26.5906ZM25.3849 26.2773C25.3849 26.1698 25.4061 26.0633 25.4473 25.964L23.5998 25.1981C23.4579 25.5402 23.3849 25.9069 23.3849 26.2773H25.3849ZM25.4473 25.964C25.4885 25.8646 25.5488 25.7744 25.6249 25.6984L24.2115 24.2834C23.9494 24.5451 23.7416 24.856 23.5998 25.1981L25.4473 25.964ZM25.6257 25.6976C25.7017 25.6216 25.7919 25.5612 25.8912 25.52L25.1254 23.6725C24.7832 23.8143 24.4724 24.0222 24.2107 24.2842L25.6257 25.6976ZM25.8912 25.52C25.9906 25.4789 26.097 25.4577 26.2045 25.4577V23.4577C25.8342 23.4577 25.4675 23.5307 25.1254 23.6725L25.8912 25.52ZM26.2045 25.4577C26.3121 25.4577 26.4185 25.4789 26.5179 25.52L27.2837 23.6725C26.9416 23.5307 26.5749 23.4577 26.2045 23.4577V25.4577ZM26.5179 25.52C26.6172 25.5612 26.7074 25.6216 26.7834 25.6976L28.1984 24.2842C27.9367 24.0222 27.6259 23.8143 27.2837 23.6725L26.5179 25.52ZM26.7838 25.698L26.8383 25.7526L28.2526 24.3383L28.198 24.2838L26.7838 25.698ZM26.8462 25.7603C27.2033 26.1096 27.6568 26.3439 28.1483 26.4331L28.5051 24.4651C28.4068 24.4473 28.3161 24.4005 28.2447 24.3306L26.8462 25.7603ZM28.1483 26.4331C28.6398 26.5222 29.1468 26.462 29.6038 26.2603L28.7962 24.4306C28.7048 24.4709 28.6034 24.483 28.5051 24.4651L28.1483 26.4331ZM29.2 26.3455H29.2727V24.3455H29.2V26.3455ZM29.6667 26.2646C30.1148 26.0725 30.497 25.7536 30.7662 25.3471L29.0987 24.2428C29.0449 24.3241 28.9684 24.3879 28.8788 24.4263L29.6667 26.2646ZM30.7662 25.3471C31.0354 24.9406 31.1799 24.4643 31.1818 23.9767L29.1818 23.9687C29.1814 24.0663 29.1525 24.1615 29.0987 24.2428L30.7662 25.3471ZM31.1818 23.9727V23.8182H29.1818V23.9727H31.1818ZM31.1818 23.8182C31.1818 23.6012 31.268 23.3931 31.4215 23.2396L30.0072 21.8254C29.4787 22.3539 29.1818 23.0708 29.1818 23.8182H31.1818ZM31.4215 23.2396C31.5749 23.0862 31.783 23 32 23V21C31.2526 21 30.5358 21.2969 30.0072 21.8254L31.4215 23.2396ZM32 23C32.217 23 32.4251 23.0862 32.5785 23.2396L33.9928 21.8254C33.4642 21.2969 32.7474 21 32 21V23ZM32.5785 23.2396C32.732 23.3931 32.8182 23.6012 32.8182 23.8182H34.8182C34.8182 23.0708 34.5213 22.3539 33.9928 21.8254L32.5785 23.2396ZM32.8182 23.8182V23.9H34.8182V23.8182H32.8182ZM32.8182 23.904C32.8201 24.3915 32.9646 24.8679 33.2338 25.2744L34.9013 24.1701C34.8475 24.0888 34.8186 23.9935 34.8182 23.896L32.8182 23.904ZM33.2338 25.2744C33.503 25.6809 33.8852 25.9998 34.3333 26.1919L35.1212 24.3536C35.0316 24.3152 34.9551 24.2514 34.9013 24.1701L33.2338 25.2744ZM34.3235 26.1876C34.7805 26.3893 35.2874 26.4494 35.7789 26.3603L35.4221 24.3924C35.3238 24.4102 35.2224 24.3982 35.131 24.3579L34.3235 26.1876ZM35.7789 26.3603C36.2705 26.2712 36.724 26.0369 37.0811 25.6876L35.6826 24.2579C35.6111 24.3277 35.5204 24.3746 35.4221 24.3924L35.7789 26.3603ZM37.0889 25.6798L37.1435 25.6253L35.7292 24.2111L35.6747 24.2656L37.0889 25.6798ZM37.1439 25.6249C37.2198 25.5488 37.3101 25.4885 37.4094 25.4473L36.6435 23.5998C36.3014 23.7416 35.9906 23.9494 35.7289 24.2115L37.1439 25.6249ZM37.4094 25.4473C37.5087 25.4061 37.6152 25.3849 37.7227 25.3849V23.3849C37.3524 23.3849 36.9857 23.4579 36.6435 23.5998L37.4094 25.4473ZM37.7227 25.3849C37.8302 25.3849 37.9367 25.4061 38.036 25.4473L38.8019 23.5998C38.4598 23.4579 38.0931 23.3849 37.7227 23.3849V25.3849ZM38.036 25.4473C38.1354 25.4885 38.2256 25.5488 38.3016 25.6249L39.7166 24.2115C39.4549 23.9494 39.144 23.7416 38.8019 23.5998L38.036 25.4473ZM38.3024 25.6257C38.3785 25.7017 38.4388 25.7919 38.48 25.8912L40.3275 25.1254C40.1857 24.7832 39.9778 24.4724 39.7158 24.2107L38.3024 25.6257ZM38.48 25.8912C38.5211 25.9906 38.5423 26.097 38.5423 26.2045H40.5423C40.5423 25.8342 40.4693 25.4675 40.3275 25.1254L38.48 25.8912ZM38.5423 26.2045C38.5423 26.3121 38.5211 26.4185 38.48 26.5179L40.3275 27.2837C40.4693 26.9416 40.5423 26.5749 40.5423 26.2045H38.5423ZM38.48 26.5179C38.4388 26.6172 38.3785 26.7074 38.3024 26.7834L39.7158 28.1984C39.9778 27.9367 40.1857 27.6259 40.3275 27.2837L38.48 26.5179ZM38.302 26.7838L38.2474 26.8384L39.6617 28.2526L39.7162 28.198L38.302 26.7838ZM38.2397 26.8462C37.8904 27.2033 37.6561 27.6568 37.5669 28.1483L39.5349 28.5051C39.5527 28.4068 39.5995 28.3161 39.6694 28.2447L38.2397 26.8462ZM37.5669 28.1483C37.4778 28.6398 37.538 29.1468 37.7397 29.6038L39.5694 28.7962C39.5291 28.7048 39.517 28.6035 39.5349 28.5051L37.5669 28.1483ZM37.6545 29.2V29.2727H39.6545V29.2H37.6545ZM37.7354 29.6667C37.9275 30.1148 38.2464 30.497 38.6529 30.7662L39.7572 29.0987C39.6759 29.0449 39.6121 28.9684 39.5737 28.8788L37.7354 29.6667ZM38.6529 30.7662C39.0594 31.0354 39.5357 31.1799 40.0233 31.1818L40.0313 29.1818C39.9338 29.1814 39.8385 29.1525 39.7572 29.0987L38.6529 30.7662ZM40.0273 31.1818H40.1818V29.1818H40.0273V31.1818ZM40.1818 31.1818C40.3988 31.1818 40.6069 31.268 40.7604 31.4215L42.1746 30.0072C41.6461 29.4787 40.9292 29.1818 40.1818 29.1818V31.1818ZM40.7604 31.4215C40.9138 31.5749 41 31.783 41 32H43C43 31.2526 42.7031 30.5358 42.1746 30.0072L40.7604 31.4215ZM41 32C41 32.217 40.9138 32.4251 40.7604 32.5785L42.1746 33.9928C42.7031 33.4642 43 32.7474 43 32H41ZM40.7604 32.5785C40.6069 32.732 40.3988 32.8182 40.1818 32.8182V34.8182C40.9292 34.8182 41.6461 34.5213 42.1746 33.9928L40.7604 32.5785ZM40.1818 32.8182H40.1V34.8182H40.1818V32.8182ZM40.096 32.8182C39.6085 32.8201 39.1321 32.9646 38.7256 33.2338L39.8299 34.9013C39.9112 34.8475 40.0065 34.8186 40.104 34.8182L40.096 32.8182ZM38.7256 33.2338C38.3191 33.503 38.0002 33.8852 37.8081 34.3333L39.6464 35.1212C39.6848 35.0316 39.7486 34.9551 39.8299 34.9013L38.7256 33.2338Z" fill="#171717"/>
</svg>
