<svg width="64" height="64" viewBox="0 0 64 64" fill="none" xmlns="http://www.w3.org/2000/svg">
<circle cx="32" cy="32" r="32" fill="#FFE603"/>
<path d="M42 33C42.5523 33 43 32.5523 43 32C43 31.4477 42.5523 31 42 31V33ZM38 31C37.4477 31 37 31.4477 37 32C37 32.5523 37.4477 33 38 33V31ZM26 33C26.5523 33 27 32.5523 27 32C27 31.4477 26.5523 31 26 31V33ZM22 31C21.4477 31 21 31.4477 21 32C21 32.5523 21.4477 33 22 33V31ZM31 26C31 26.5523 31.4477 27 32 27C32.5523 27 33 26.5523 33 26H31ZM33 22C33 21.4477 32.5523 21 32 21C31.4477 21 31 21.4477 31 22H33ZM31 42C31 42.5523 31.4477 43 32 43C32.5523 43 33 42.5523 33 42H31ZM33 38C33 37.4477 32.5523 37 32 37C31.4477 37 31 37.4477 31 38H33ZM39 32C39 35.866 35.866 39 32 39V41C36.9706 41 41 36.9706 41 32H39ZM32 39C28.134 39 25 35.866 25 32H23C23 36.9706 27.0294 41 32 41V39ZM25 32C25 28.134 28.134 25 32 25V23C27.0294 23 23 27.0294 23 32H25ZM32 25C35.866 25 39 28.134 39 32H41C41 27.0294 36.9706 23 32 23V25ZM34 32C34 33.1046 33.1046 34 32 34V36C34.2091 36 36 34.2091 36 32H34ZM32 34C30.8954 34 30 33.1046 30 32H28C28 34.2091 29.7909 36 32 36V34ZM30 32C30 30.8954 30.8954 30 32 30V28C29.7909 28 28 29.7909 28 32H30ZM32 30C33.1046 30 34 30.8954 34 32H36C36 29.7909 34.2091 28 32 28V30ZM42 31H38V33H42V31ZM26 31H22V33H26V31ZM33 26V22H31V26H33ZM33 42V38H31V42H33Z" fill="#171717"/>
</svg>
