<svg width="64" height="64" viewBox="0 0 64 64" fill="none" xmlns="http://www.w3.org/2000/svg">
<circle cx="32" cy="32" r="32" fill="#FFE603"/>
<path d="M38.47 22.5303L39.1771 23.2374C39.4092 23.0052 39.5126 22.6739 39.4538 22.3509C39.3949 22.0279 39.1812 21.7544 38.882 21.6191L38.47 22.5303ZM41.47 25.5303L42.3811 25.1182C42.2458 24.819 41.9723 24.6054 41.6493 24.5465C41.3263 24.4876 40.995 24.591 40.7629 24.8232L41.47 25.5303ZM38.6316 28.3686L37.9245 27.6615L38.6316 28.3686ZM37.8092 29.0368L37.5002 28.0858L37.8092 29.0368ZM36.3689 28.3686L35.6617 29.0757L36.3689 28.3686ZM37.1912 29.0368L36.8822 29.9879L37.1912 29.0368ZM33.2951 33.7714L33.7552 34.6592L33.2951 33.7714ZM34.5751 33.8297L34.8118 32.8582L34.5751 33.8297ZM33.6869 33.6616L33.6186 32.6639L33.6869 33.6616ZM23.5002 37.5L22.7931 36.7929H22.7931L23.5002 37.5ZM23.5002 40.5L22.7931 41.2071L23.5002 40.5ZM30.1705 29.4251L31.1421 29.1884L30.1705 29.4251ZM30.3387 30.3133L31.3363 30.3816L30.3387 30.3133ZM29.748 31.2522L30.4552 31.9593L29.748 31.2522ZM30.2289 30.7051L29.341 30.245L30.2289 30.7051ZM26.5002 40.5L25.7931 39.7929L26.5002 40.5ZM35.6316 25.3686L34.9245 24.6615L35.6316 25.3686ZM34.9634 26.191L34.0123 25.882L34.9634 26.191ZM35.6316 27.6314L36.3387 26.9243L35.6316 27.6314ZM34.9634 26.809L35.9144 26.5L34.9634 26.809ZM37.7629 21.8232L34.9245 24.6615L36.3387 26.0757L39.1771 23.2374L37.7629 21.8232ZM36.0002 23C36.7357 23 37.4316 23.1582 38.0579 23.4414L38.882 21.6191C38.0019 21.2211 37.0255 21 36.0002 21V23ZM31.0002 28C31.0002 25.2386 33.2388 23 36.0002 23V21C32.1342 21 29.0002 24.134 29.0002 28H31.0002ZM31.1421 29.1884C31.0495 28.8085 31.0002 28.4107 31.0002 28H29.0002C29.0002 28.5714 29.0689 29.1281 29.1989 29.6618L31.1421 29.1884ZM24.2073 38.2071L30.4552 31.9593L29.0409 30.5451L22.7931 36.7929L24.2073 38.2071ZM32.0409 33.5451L25.7931 39.7929L27.2073 41.2071L33.4552 34.9593L32.0409 33.5451ZM36.0002 33C35.5895 33 35.1917 32.9507 34.8118 32.8582L34.3385 34.8013C34.8721 34.9313 35.4288 35 36.0002 35V33ZM41.0002 28C41.0002 30.7614 38.7617 33 36.0002 33V35C39.8662 35 43.0002 31.866 43.0002 28H41.0002ZM40.5588 25.9423C40.8421 26.5686 41.0002 27.2645 41.0002 28H43.0002C43.0002 26.9747 42.7792 25.9983 42.3811 25.1182L40.5588 25.9423ZM39.3387 29.0757L42.1771 26.2374L40.7629 24.8232L37.9245 27.6615L39.3387 29.0757ZM34.9245 28.3385L35.6617 29.0757L37.076 27.6615L36.3387 26.9243L34.9245 28.3385ZM37.9245 27.6615C37.7148 27.8712 37.5995 27.9854 37.5104 28.0611C37.4301 28.1292 37.4388 28.1057 37.5002 28.0858L38.1183 29.9879C38.408 29.8938 38.6299 29.7342 38.8047 29.5858C38.9706 29.4449 39.1524 29.2621 39.3387 29.0757L37.9245 27.6615ZM35.6617 29.0757C35.8481 29.2621 36.0298 29.4449 36.1957 29.5858C36.3706 29.7342 36.5925 29.8938 36.8822 29.9879L37.5002 28.0858C37.5616 28.1057 37.5703 28.1292 37.4901 28.0611C37.4009 27.9854 37.2856 27.8712 37.076 27.6615L35.6617 29.0757ZM37.5002 28.0858H37.5002L36.8822 29.9879C37.2839 30.1184 37.7166 30.1184 38.1183 29.9879L37.5002 28.0858ZM33.4552 34.9593C33.599 34.8155 33.6805 34.7344 33.7426 34.6783C33.8022 34.6245 33.7971 34.6375 33.7552 34.6592L32.835 32.8835C32.5243 33.0445 32.2562 33.3298 32.0409 33.5451L33.4552 34.9593ZM34.8118 32.8582C34.5757 32.8006 34.3689 32.75 34.2026 32.7166C34.0491 32.6858 33.838 32.6489 33.6186 32.6639L33.7552 34.6592C33.6904 34.6637 33.6787 34.6513 33.8084 34.6774C33.9254 34.7009 34.0854 34.7397 34.3385 34.8013L34.8118 32.8582ZM33.7552 34.6592C33.7753 34.6488 33.7822 34.646 33.7808 34.6466C33.7798 34.647 33.7767 34.6483 33.7717 34.65C33.7667 34.6518 33.7608 34.6537 33.7542 34.6556C33.7476 34.6574 33.7415 34.6589 33.7363 34.66C33.7312 34.661 33.7278 34.6616 33.7267 34.6617C33.7252 34.662 33.7326 34.6608 33.7552 34.6592L33.6186 32.6639C33.3201 32.6843 33.1007 32.7458 32.835 32.8835L33.7552 34.6592ZM22.7931 36.7929C21.5742 38.0118 21.5742 39.9882 22.7931 41.2071L24.2073 39.7929C23.7694 39.355 23.7694 38.645 24.2073 38.2071L22.7931 36.7929ZM29.1989 29.6618C29.2606 29.9148 29.2993 30.0749 29.3228 30.1918C29.3489 30.3215 29.3365 30.3099 29.341 30.245L31.3363 30.3816C31.3513 30.1623 31.3145 29.9511 31.2836 29.7976C31.2502 29.6313 31.1996 29.4245 31.1421 29.1884L29.1989 29.6618ZM30.4552 31.9593C30.6704 31.744 30.9557 31.4759 31.1167 31.1652L29.341 30.245C29.3627 30.2031 29.3757 30.1981 29.322 30.2576C29.2659 30.3197 29.1848 30.4013 29.0409 30.5451L30.4552 31.9593ZM29.341 30.245C29.3394 30.2676 29.3383 30.275 29.3385 30.2735C29.3386 30.2724 29.3392 30.269 29.3403 30.2639C29.3414 30.2587 29.3428 30.2527 29.3447 30.2461C29.3465 30.2395 29.3484 30.2335 29.3502 30.2285C29.3519 30.2236 29.3532 30.2204 29.3536 30.2194C29.3542 30.218 29.3514 30.2249 29.341 30.245L31.1167 31.1652C31.2544 30.8995 31.3159 30.6801 31.3363 30.3816L29.341 30.245ZM22.7931 41.2071C24.0121 42.4261 25.9884 42.4261 27.2073 41.2071L25.7931 39.7929C25.3552 40.2308 24.6452 40.2308 24.2073 39.7929L22.7931 41.2071ZM34.9245 24.6615C34.7382 24.8479 34.5553 25.0296 34.4145 25.1955C34.266 25.3704 34.1065 25.5922 34.0123 25.882L35.9144 26.5C35.8945 26.5614 35.871 26.5701 35.9391 26.4899C36.0148 26.4007 36.129 26.2854 36.3387 26.0757L34.9245 24.6615ZM36.3387 26.9243C36.129 26.7146 36.0148 26.5993 35.9391 26.5101C35.871 26.4299 35.8945 26.4386 35.9144 26.5L34.0123 27.118C34.1065 27.4078 34.266 27.6296 34.4145 27.8045C34.5553 27.9704 34.7382 28.1521 34.9245 28.3385L36.3387 26.9243ZM34.0123 25.882C33.8818 26.2837 33.8818 26.7163 34.0123 27.118L35.9144 26.5L34.0123 25.882Z" fill="#171717"/>
</svg>
