<svg width="44" height="44" viewBox="0 0 44 44" fill="none" xmlns="http://www.w3.org/2000/svg">
<circle cx="22" cy="22" r="21.5" stroke="#CBCBCB"/>
<path d="M24.7111 15.8599H29.9512V17.1136H24.7111V15.8599ZM19.4604 20.8201C20.6188 20.2736 21.2255 19.4421 21.2255 18.1574C21.2255 15.6165 19.3081 15 17.0938 15H11V27.7539H17.2645C19.6128 27.7539 21.8165 26.6402 21.8165 24.05C21.8165 22.4493 21.0495 21.2656 19.4604 20.8201ZM13.842 17.1757H16.5081C17.5351 17.1757 18.457 17.4581 18.457 18.634C18.457 19.7167 17.74 20.1518 16.7235 20.1518H13.842V17.1757ZM16.8758 25.5886H13.8394V22.0763H16.9362C18.1865 22.0763 18.9771 22.5918 18.9771 23.8972C18.9771 25.1819 18.0341 25.5886 16.8758 25.5886ZM32 23.2704C32 20.5378 30.3794 18.261 27.448 18.261C24.5981 18.261 22.6597 20.3772 22.6597 23.1512C22.6597 26.0263 24.4957 28 27.448 28C29.6833 28 31.1306 27.008 31.8266 24.8918H29.5598C29.3129 25.6818 28.3096 26.0962 27.5295 26.0962C26.0218 26.0962 25.2338 25.2259 25.2338 23.747H31.9816C31.9895 23.5941 32 23.4336 32 23.2704ZM25.2338 22.1462C25.3152 20.9315 26.1373 20.1725 27.3666 20.1725C28.6589 20.1725 29.3051 20.9211 29.418 22.1462H25.2338Z" fill="#171717"/>
</svg>
