<svg xmlns="http://www.w3.org/2000/svg" width="33" height="33" viewBox="0 0 33 33">
    <g fill="none" fill-rule="evenodd">
        <circle cx="16.5" cy="16.5" r="16.5" fill="#FFF" />
        <g fill="#0E0E0F" transform="translate(8 8)">
            <circle cx="12.161" cy="3.966" r="1" />
            <path fill-rule="nonzero" d="M4.153 1.83c-1.31 0-2.373 1.093-2.373 2.44v7.932c0 1.348 1.062 2.44 2.373 2.44h7.712c1.31 0 2.373-1.092 2.373-2.44V4.271c0-1.348-1.063-2.44-2.373-2.44H4.153zm0-1.83h7.712c2.293 0 4.152 1.912 4.152 4.27v7.932c0 2.359-1.859 4.271-4.152 4.271H4.153C1.859 16.473 0 14.561 0 12.203V4.27C0 1.912 1.86 0 4.153 0z" />
            <path fill-rule="nonzero" d="M8.009 12.507c-2.294 0-4.153-1.912-4.153-4.27 0-2.36 1.86-4.271 4.153-4.271 2.293 0 4.152 1.912 4.152 4.27 0 2.36-1.859 4.271-4.152 4.271zm0-1.83c1.31 0 2.373-1.093 2.373-2.44 0-1.348-1.063-2.44-2.373-2.44-1.31 0-2.373 1.092-2.373 2.44 0 1.347 1.062 2.44 2.373 2.44z" />
        </g>
    </g>
</svg>
