<svg width="24" height="24" viewBox="0 0 24 24" fill="none" xmlns="http://www.w3.org/2000/svg">
<path d="M11.9998 2V1V2ZM5.99977 8H4.99977H5.99977ZM20.538 16.9016L19.9422 16.0984L20.538 16.9016ZM19.6501 14.6054L20.4992 14.0771L19.6501 14.6054ZM20.7384 16.5408L19.7418 16.4592L20.7384 16.5408ZM4.34944 14.6054L3.50039 14.0771H3.50039L4.34944 14.6054ZM3.2611 16.5408L2.26443 16.6223L3.2611 16.5408ZM3.46155 16.9016L2.86578 17.7047L3.46155 16.9016ZM10.0157 20.2503C9.60161 19.8848 8.96968 19.9242 8.60421 20.3383C8.23875 20.7523 8.27815 21.3843 8.69222 21.7497L10.0157 20.2503ZM15.3073 21.7497C15.7214 21.3843 15.7608 20.7523 15.3953 20.3383C15.0299 19.9242 14.3979 19.8848 13.9839 20.2503L15.3073 21.7497ZM18.9998 8C18.9998 6.14349 18.2623 4.36301 16.9495 3.05025L15.5353 4.46447C16.473 5.40215 16.9998 6.67392 16.9998 8H18.9998ZM16.9495 3.05025C15.6368 1.7375 13.8563 1 11.9998 1V3C13.3259 3 14.5976 3.52678 15.5353 4.46447L16.9495 3.05025ZM11.9998 1C10.1433 1 8.36278 1.7375 7.05003 3.05025L8.46424 4.46447C9.40192 3.52678 10.6737 3 11.9998 3V1ZM7.05003 3.05025C5.73727 4.36301 4.99977 6.14348 4.99977 8H6.99977C6.99977 6.67392 7.52656 5.40215 8.46424 4.46447L7.05003 3.05025ZM4.99977 8C4.99977 10.9127 4.26777 12.8439 3.50039 14.0771L5.19849 15.1337C6.17272 13.5681 6.99977 11.2677 6.99977 8H4.99977ZM5.38863 18H18.6109V16H5.38863V18ZM20.4992 14.0771C19.7318 12.8439 18.9998 10.9127 18.9998 8H16.9998C16.9998 11.2677 17.8268 13.5681 18.8011 15.1337L20.4992 14.0771ZM18.6109 18C19.1996 18 19.6722 18.0002 20.0122 17.9869C20.181 17.9804 20.3483 17.9695 20.4957 17.9477C20.5869 17.9342 20.8795 17.8933 21.1338 17.7047L19.9422 16.0984C20.0575 16.0129 20.1575 15.9826 20.1788 15.9763C20.2096 15.967 20.2218 15.9664 20.2026 15.9693C20.1632 15.9751 20.0813 15.9827 19.9344 15.9885C19.6431 15.9998 19.2185 16 18.6109 16V18ZM18.8011 15.1337C19.1727 15.731 19.437 16.156 19.6084 16.4534C19.6949 16.6035 19.7432 16.6962 19.7668 16.7483C19.7787 16.7745 19.775 16.7701 19.7673 16.7442C19.7644 16.7344 19.7285 16.6216 19.7418 16.4592L21.7351 16.6223C21.7518 16.4187 21.7074 16.2515 21.6841 16.1733C21.656 16.079 21.62 15.9922 21.5879 15.9215C21.5235 15.7797 21.4366 15.6202 21.3412 15.4547C21.1487 15.1206 20.8621 14.6603 20.4992 14.0771L18.8011 15.1337ZM21.1338 17.7047C21.244 17.623 21.4277 17.4758 21.5619 17.2343C21.696 16.9928 21.7239 16.7591 21.7351 16.6223L19.7418 16.4592C19.7381 16.5048 19.7392 16.3969 19.8136 16.263C19.8879 16.1291 19.9789 16.0712 19.9422 16.0984L21.1338 17.7047ZM3.50039 14.0771C3.13749 14.6603 2.85089 15.1206 2.65837 15.4547C2.56295 15.6202 2.47601 15.7797 2.41165 15.9215C2.37952 15.9922 2.34358 16.079 2.31549 16.1733C2.29218 16.2515 2.24778 16.4187 2.26443 16.6223L4.25777 16.4592C4.27105 16.6216 4.23518 16.7344 4.23225 16.7442C4.22454 16.7701 4.22082 16.7745 4.2327 16.7483C4.25637 16.6962 4.30464 16.6035 4.39117 16.4534C4.56255 16.156 4.82685 15.731 5.19849 15.1337L3.50039 14.0771ZM5.38863 16C4.78106 16 4.35647 15.9998 4.06519 15.9885C3.9183 15.9827 3.8364 15.9751 3.79695 15.9693C3.77772 15.9664 3.78995 15.967 3.8208 15.9763C3.84203 15.9826 3.94204 16.0129 4.05732 16.0984L2.86578 17.7047C3.12005 17.8933 3.41265 17.9342 3.50386 17.9477C3.65127 17.9695 3.81855 17.9804 3.9873 17.9869C4.32733 18.0002 4.79993 18 5.38863 18V16ZM2.26443 16.6223C2.27562 16.7591 2.30351 16.9928 2.43766 17.2343C2.57181 17.4758 2.75554 17.623 2.86578 17.7047L4.05732 16.0984C4.02065 16.0712 4.1116 16.1291 4.18599 16.263C4.26037 16.3969 4.26149 16.5048 4.25777 16.4592L2.26443 16.6223ZM11.9998 21C11.2383 21 10.5451 20.7176 10.0157 20.2503L8.69222 21.7497C9.57303 22.5272 10.7324 23 11.9998 23V21ZM13.9839 20.2503C13.4544 20.7176 12.7613 21 11.9998 21V23C13.2671 23 14.4265 22.5272 15.3073 21.7497L13.9839 20.2503Z" fill="#171717"/>
</svg>
