<svg width="24" height="24" viewBox="0 0 24 24" fill="none" xmlns="http://www.w3.org/2000/svg">
<path d="M15.2929 7.29289C14.9024 7.68342 14.9024 8.31658 15.2929 8.70711C15.6834 9.09763 16.3166 9.09763 16.7071 8.70711L15.2929 7.29289ZM21 3H22C22 2.44772 21.5523 2 21 2V3ZM7.29289 8.70711C7.68342 9.09763 8.31658 9.09763 8.70711 8.70711C9.09763 8.31658 9.09763 7.68342 8.70711 7.29289L7.29289 8.70711ZM3 3L3 2C2.44772 2 2 2.44772 2 3L3 3ZM8.70711 16.7071C9.09763 16.3166 9.09763 15.6834 8.70711 15.2929C8.31658 14.9024 7.68342 14.9024 7.29289 15.2929L8.70711 16.7071ZM3 21H2C2 21.2652 2.10536 21.5196 2.29289 21.7071C2.48043 21.8946 2.73478 22 3 22V21ZM16.7071 15.2929C16.3166 14.9024 15.6834 14.9024 15.2929 15.2929C14.9024 15.6834 14.9024 16.3166 15.2929 16.7071L16.7071 15.2929ZM21 21V22C21.5523 22 22 21.5523 22 21H21ZM16 2C15.4477 2 15 2.44772 15 3C15 3.55229 15.4477 4 16 4V2ZM20 8C20 8.55229 20.4477 9 21 9C21.5523 9 22 8.55229 22 8H20ZM2 8C2 8.55228 2.44772 9 3 9C3.55229 9 4 8.55228 4 8H2ZM8 4C8.55228 4 9 3.55228 9 3C9 2.44772 8.55228 2 8 2V4ZM8 22C8.55229 22 9 21.5523 9 21C9 20.4477 8.55229 20 8 20V22ZM4 16C4 15.4477 3.55229 15 3 15C2.44772 15 2 15.4477 2 16H4ZM22 16C22 15.4477 21.5523 15 21 15C20.4477 15 20 15.4477 20 16H22ZM16 20C15.4477 20 15 20.4477 15 21C15 21.5523 15.4477 22 16 22V20ZM16.7071 8.70711L21.7071 3.70711L20.2929 2.29289L15.2929 7.29289L16.7071 8.70711ZM8.70711 7.29289L3.70711 2.29289L2.29289 3.70711L7.29289 8.70711L8.70711 7.29289ZM7.29289 15.2929L2.29289 20.2929L3.70711 21.7071L8.70711 16.7071L7.29289 15.2929ZM15.2929 16.7071L20.2929 21.7071L21.7071 20.2929L16.7071 15.2929L15.2929 16.7071ZM16 4H21V2H16V4ZM20 3V8H22V3H20ZM4 8L4 3L2 3L2 8H4ZM3 4L8 4V2L3 2L3 4ZM8 20H3V22H8V20ZM4 21L4 16H2L2 21H4ZM20 16V21H22V16H20ZM21 20H16V22H21V20Z" fill="#171717"/>
</svg>
