<svg width="24" height="24" viewBox="0 0 24 24" fill="none" xmlns="http://www.w3.org/2000/svg">
<path d="M21 14C21 13.4477 20.5523 13 20 13C19.4477 13 19 13.4477 19 14H21ZM14 19C13.4477 19 13 19.4477 13 20C13 20.5523 13.4477 21 14 21V19ZM19.782 18.908L18.891 18.454V18.454L19.782 18.908ZM18.908 19.782L18.454 18.891H18.454L18.908 19.782ZM10 5C10.5523 5 11 4.55228 11 4C11 3.44772 10.5523 3 10 3V5ZM3 10C3 10.5523 3.44772 11 4 11C4.55228 11 5 10.5523 5 10H3ZM5.09202 4.21799L4.63803 3.32698L4.63803 3.32698L5.09202 4.21799ZM4.21799 5.09202L3.32698 4.63803L3.32698 4.63803L4.21799 5.09202ZM14.2929 8.29289C13.9024 8.68342 13.9024 9.31658 14.2929 9.70711C14.6834 10.0976 15.3166 10.0976 15.7071 9.70711L14.2929 8.29289ZM21 3H22C22 2.44772 21.5523 2 21 2V3ZM9.70711 15.7071C10.0976 15.3166 10.0976 14.6834 9.70711 14.2929C9.31658 13.9024 8.68342 13.9024 8.29289 14.2929L9.70711 15.7071ZM3 21H2C2 21.2652 2.10536 21.5196 2.29289 21.7071C2.48043 21.8946 2.73478 22 3 22V21ZM15 2C14.4477 2 14 2.44772 14 3C14 3.55228 14.4477 4 15 4V2ZM20 9C20 9.55228 20.4477 10 21 10C21.5523 10 22 9.55228 22 9H20ZM9 22C9.55228 22 10 21.5523 10 21C10 20.4477 9.55228 20 9 20V22ZM4 15C4 14.4477 3.55229 14 3 14C2.44772 14 2 14.4477 2 15H4ZM19 14V16.8H21V14H19ZM16.8 19H14V21H16.8V19ZM19 16.8C19 17.3766 18.9992 17.7488 18.9761 18.0322C18.9539 18.3038 18.9162 18.4045 18.891 18.454L20.673 19.362C20.8658 18.9836 20.9371 18.5904 20.9694 18.195C21.0008 17.8114 21 17.3436 21 16.8H19ZM16.8 21C17.3436 21 17.8114 21.0008 18.195 20.9694C18.5904 20.9371 18.9836 20.8658 19.362 20.673L18.454 18.891C18.4045 18.9162 18.3038 18.9539 18.0322 18.9761C17.7488 18.9992 17.3766 19 16.8 19V21ZM18.891 18.454C18.7951 18.6422 18.6422 18.7951 18.454 18.891L19.362 20.673C19.9265 20.3854 20.3854 19.9265 20.673 19.362L18.891 18.454ZM7.2 5H10V3H7.2V5ZM5 10V7.2H3V10H5ZM7.2 3C6.65645 3 6.18864 2.99922 5.80497 3.03057C5.40963 3.06287 5.01641 3.13419 4.63803 3.32698L5.54601 5.10899C5.59545 5.0838 5.69617 5.04612 5.96784 5.02393C6.25117 5.00078 6.62345 5 7.2 5V3ZM5 7.2C5 6.62345 5.00078 6.25117 5.02393 5.96784C5.04612 5.69617 5.0838 5.59545 5.10899 5.54601L3.32698 4.63803C3.13419 5.01641 3.06287 5.40963 3.03057 5.80497C2.99922 6.18864 3 6.65645 3 7.2H5ZM4.63803 3.32698C4.07354 3.6146 3.6146 4.07354 3.32698 4.63803L5.10899 5.54601C5.20487 5.35785 5.35785 5.20487 5.54601 5.10899L4.63803 3.32698ZM15.7071 9.70711L21.7071 3.70711L20.2929 2.29289L14.2929 8.29289L15.7071 9.70711ZM8.29289 14.2929L2.29289 20.2929L3.70711 21.7071L9.70711 15.7071L8.29289 14.2929ZM15 4H21V2H15V4ZM20 3V9H22V3H20ZM9 20H3V22H9V20ZM4 21L4 15H2L2 21H4Z" fill="#171717"/>
</svg>
