<svg width="24" height="24" viewBox="0 0 24 24" fill="none" xmlns="http://www.w3.org/2000/svg">
<path d="M11.9932 5.13581L11.2332 5.78583C11.4232 6.00794 11.7009 6.13581 11.9932 6.13581C12.2854 6.13581 12.5631 6.00794 12.7531 5.78583L11.9932 5.13581ZM3.2642 12.5604L4.0538 11.9468L3.2642 12.5604ZM20.7221 12.5604L19.9325 11.9468L20.7221 12.5604ZM11.4721 20.5408L12.1351 19.7922L11.4721 20.5408ZM11.8502 20.8135L11.5643 21.7718L11.8502 20.8135ZM12.5142 20.5408L11.8512 19.7922L12.5142 20.5408ZM12.1361 20.8135L12.422 21.7718L12.1361 20.8135ZM12.7531 4.4858C10.4594 1.80434 6.50161 0.989451 3.5051 3.54974L4.80429 5.07029C6.81788 3.34983 9.52816 3.79246 11.2332 5.78583L12.7531 4.4858ZM3.5051 3.54974C0.598307 6.03336 0.175977 10.2162 2.4746 13.174L4.0538 11.9468C2.41796 9.84179 2.70098 6.86741 4.80429 5.07029L3.5051 3.54974ZM21.5117 13.174C23.8015 10.2275 23.4444 6.01246 20.4708 3.54097L19.1924 5.07906C21.315 6.84328 21.5772 9.83042 19.9325 11.9468L21.5117 13.174ZM20.4708 3.54097C17.4415 1.02319 13.5344 1.79553 11.2332 4.4858L12.7531 5.78583C14.4506 3.80127 17.1255 3.36113 19.1924 5.07906L20.4708 3.54097ZM2.4746 13.174C3.34712 14.2968 5.05011 15.9836 6.68673 17.5283C8.3425 19.0912 9.99445 20.568 10.8091 21.2895L12.1351 19.7922C11.3274 19.0769 9.69323 17.6159 8.05954 16.0739C6.40669 14.5138 4.81689 12.9287 4.0538 11.9468L2.4746 13.174ZM13.1772 21.2895C13.9919 20.568 15.6438 19.0912 17.2996 17.5283C18.9362 15.9836 20.6392 14.2968 21.5117 13.174L19.9325 11.9468C19.1694 12.9287 17.5796 14.5138 15.9268 16.0739C14.2931 17.6159 12.6589 19.0769 11.8512 19.7922L13.1772 21.2895ZM10.8091 21.2895C10.8881 21.3594 10.9903 21.4509 11.088 21.5245C11.1974 21.6069 11.3545 21.7092 11.5643 21.7718L12.1361 19.8553C12.1859 19.8701 12.2264 19.8888 12.2555 19.9048C12.2821 19.9195 12.2954 19.93 12.2911 19.9268C12.2862 19.9231 12.2727 19.9125 12.2442 19.888C12.2156 19.8634 12.1821 19.8339 12.1351 19.7922L10.8091 21.2895ZM11.8512 19.7922C11.8042 19.8339 11.7707 19.8634 11.7421 19.888C11.7136 19.9125 11.7001 19.9231 11.6952 19.9268C11.6909 19.93 11.7042 19.9195 11.7308 19.9048C11.7599 19.8888 11.8004 19.8701 11.8502 19.8553L12.422 21.7718C12.6318 21.7092 12.7889 21.6069 12.8983 21.5245C12.996 21.4509 13.0982 21.3594 13.1772 21.2895L11.8512 19.7922ZM11.5643 21.7718C11.8433 21.855 12.1431 21.855 12.422 21.7718L11.8502 19.8553C11.9443 19.8272 12.042 19.8272 12.1361 19.8553L11.5643 21.7718Z" fill="#171717"/>
</svg>
