<svg width="24" height="24" viewBox="0 0 24 24" fill="none" xmlns="http://www.w3.org/2000/svg">
<path d="M11.0177 2.76473L10.4038 1.97538L11.0177 2.76473ZM11.7387 2.30233L11.4773 1.33709L11.7387 2.30233ZM12.9823 2.76473L13.5962 1.97538V1.97538L12.9823 2.76473ZM12.2613 2.30233L12.5227 1.33709L12.2613 2.30233ZM4.09202 20.7827L4.54601 19.8917L4.09202 20.7827ZM3.21799 19.9087L4.10899 19.4547L3.21799 19.9087ZM20.782 19.9087L19.891 19.4547L20.782 19.9087ZM19.908 20.7827L19.454 19.8917L19.908 20.7827ZM20.926 9.43978L19.963 9.70933L20.926 9.43978ZM19.7646 8.03986L19.1507 8.82921V8.82921L19.7646 8.03986ZM20.608 8.78959L19.804 9.38424L20.608 8.78959ZM3.07403 9.43978L4.03701 9.70933L3.07403 9.43978ZM4.23539 8.03986L3.62145 7.2505L4.23539 8.03986ZM3.39203 8.78959L4.19601 9.38424L3.39203 8.78959ZM8 21.0007C8 21.553 8.44772 22.0007 9 22.0007C9.55228 22.0007 10 21.553 10 21.0007H8ZM14 21.0007C14 21.553 14.4477 22.0007 15 22.0007C15.5523 22.0007 16 21.553 16 21.0007H14ZM14.454 12.1097L14 13.0007L14.454 12.1097ZM14.891 12.5467L14 13.0007L14.891 12.5467ZM9.10899 12.5467L10 13.0007L9.10899 12.5467ZM9.54601 12.1097L10 13.0007L9.54601 12.1097ZM20 10.5658V17.8007H22V10.5658H20ZM17.8 20.0007H6.2V22.0007H17.8V20.0007ZM4 17.8007V10.5658H2V17.8007H4ZM4.84933 8.82921L11.6316 3.55408L10.4038 1.97538L3.62145 7.2505L4.84933 8.82921ZM12.3684 3.55408L19.1507 8.82921L20.3786 7.25051L13.5962 1.97538L12.3684 3.55408ZM11.6316 3.55408C11.8185 3.40871 11.9175 3.33247 11.9927 3.28226C12.0574 3.23905 12.0479 3.25462 12 3.26758L11.4773 1.33709C11.042 1.45495 10.6821 1.7589 10.4038 1.97538L11.6316 3.55408ZM13.5962 1.97538C13.3179 1.7589 12.958 1.45495 12.5227 1.33709L12 3.26758C11.9521 3.25462 11.9426 3.23905 12.0073 3.28226C12.0825 3.33247 12.1815 3.40871 12.3684 3.55408L13.5962 1.97538ZM12 3.26758L12.5227 1.33709C12.1804 1.24441 11.8196 1.24441 11.4773 1.33709L12 3.26758ZM6.2 20.0007C5.62345 20.0007 5.25117 19.9999 4.96784 19.9768C4.69617 19.9546 4.59545 19.9169 4.54601 19.8917L3.63803 21.6737C4.01641 21.8665 4.40963 21.9378 4.80497 21.9701C5.18864 22.0015 5.65645 22.0007 6.2 22.0007V20.0007ZM2 17.8007C2 18.3443 1.99922 18.8121 2.03057 19.1957C2.06287 19.5911 2.13419 19.9843 2.32698 20.3627L4.10899 19.4547C4.0838 19.4053 4.04612 19.3045 4.02393 19.0329C4.00078 18.7495 4 18.3773 4 17.8007H2ZM4.54601 19.8917C4.35785 19.7959 4.20487 19.6429 4.10899 19.4547L2.32698 20.3627C2.6146 20.9272 3.07354 21.3861 3.63803 21.6737L4.54601 19.8917ZM20 17.8007C20 18.3773 19.9992 18.7495 19.9761 19.0329C19.9539 19.3045 19.9162 19.4053 19.891 19.4547L21.673 20.3627C21.8658 19.9843 21.9371 19.5911 21.9694 19.1957C22.0008 18.8121 22 18.3443 22 17.8007H20ZM17.8 22.0007C18.3436 22.0007 18.8114 22.0015 19.195 21.9701C19.5904 21.9378 19.9836 21.8665 20.362 21.6737L19.454 19.8917C19.4045 19.9169 19.3038 19.9546 19.0322 19.9768C18.7488 19.9999 18.3766 20.0007 17.8 20.0007V22.0007ZM19.891 19.4547C19.7951 19.6429 19.6422 19.7959 19.454 19.8917L20.362 21.6737C20.9265 21.3861 21.3854 20.9272 21.673 20.3627L19.891 19.4547ZM22 10.5658C22 10.0481 22.0087 9.59797 21.889 9.17023L19.963 9.70933C19.9913 9.81053 20 9.9348 20 10.5658H22ZM19.1507 8.82921C19.6487 9.2166 19.7415 9.29975 19.804 9.38424L21.412 8.19494C21.1478 7.83783 20.7872 7.56835 20.3786 7.25051L19.1507 8.82921ZM21.889 9.17023C21.7906 8.81883 21.629 8.48832 21.412 8.19494L19.804 9.38424C19.8763 9.48203 19.9302 9.5922 19.963 9.70933L21.889 9.17023ZM4 10.5658C4 9.93479 4.00869 9.81053 4.03701 9.70933L2.11104 9.17023C1.99131 9.59797 2 10.0481 2 10.5658H4ZM3.62145 7.2505C3.21279 7.56836 2.85217 7.83783 2.58804 8.19494L4.19601 9.38424C4.2585 9.29975 4.35126 9.2166 4.84933 8.82921L3.62145 7.2505ZM4.03701 9.70933C4.0698 9.5922 4.12368 9.48203 4.19601 9.38424L2.58804 8.19494C2.37105 8.48832 2.2094 8.81883 2.11104 9.17023L4.03701 9.70933ZM10 21.0007V13.6007H8V21.0007H10ZM10.6 13.0007H13.4V11.0007H10.6V13.0007ZM14 13.6007V21.0007H16V13.6007H14ZM13.4 13.0007C13.6965 13.0007 13.8588 13.0015 13.9754 13.011C14.0803 13.0196 14.0575 13.03 14 13.0007L14.908 11.2187C14.6366 11.0804 14.3668 11.0363 14.1382 11.0177C13.9213 10.9999 13.6635 11.0007 13.4 11.0007V13.0007ZM16 13.6007C16 13.3372 16.0008 13.0794 15.9831 12.8625C15.9644 12.6339 15.9203 12.3642 15.782 12.0927L14 13.0007C13.9707 12.9432 13.9811 12.9204 13.9897 13.0254C13.9992 13.1419 14 13.3042 14 13.6007H16ZM14 13.0007V13.0007L15.782 12.0927C15.5903 11.7164 15.2843 11.4105 14.908 11.2187L14 13.0007ZM10 13.6007C10 13.3042 10.0008 13.1419 10.0103 13.0254C10.0189 12.9204 10.0293 12.9432 10 13.0007L8.21799 12.0927C8.07969 12.3642 8.03562 12.6339 8.01695 12.8625C7.99922 13.0794 8 13.3372 8 13.6007H10ZM10.6 11.0007C10.3365 11.0007 10.0787 10.9999 9.86177 11.0177C9.63318 11.0363 9.36344 11.0804 9.09202 11.2187L10 13.0007C9.94249 13.03 9.91972 13.0196 10.0246 13.011C10.1412 13.0015 10.3035 13.0007 10.6 13.0007V11.0007ZM10 13.0007V13.0007L9.09202 11.2187C8.71569 11.4105 8.40973 11.7164 8.21799 12.0927L10 13.0007Z" fill="#171717"/>
</svg>
