<svg width="24" height="24" viewBox="0 0 24 24" fill="none" xmlns="http://www.w3.org/2000/svg">
<path d="M10.801 12.401C10.4702 11.9587 9.84347 11.8684 9.40122 12.1992C8.95897 12.53 8.86863 13.1567 9.19943 13.5989L10.801 12.401ZM17.5402 13.54L16.8331 12.8329L16.833 12.833L17.5402 13.54ZM20.5402 10.54L21.2473 11.2471C21.2514 11.243 21.2555 11.2388 21.2595 11.2347L20.5402 10.54ZM13.4702 3.46997L12.7755 2.75068C12.772 2.75403 12.7686 2.7574 12.7652 2.7608L13.4702 3.46997ZM11.0452 4.4708C10.6535 4.86018 10.6516 5.49335 11.041 5.88501C11.4304 6.27667 12.0636 6.27851 12.4552 5.88913L11.0452 4.4708ZM13.1994 11.5989C13.5302 12.0412 14.1569 12.1315 14.5992 11.8007C15.0414 11.4699 15.1318 10.8432 14.801 10.401L13.1994 11.5989ZM6.4602 10.46L7.16731 11.1671L7.16743 11.1669L6.4602 10.46ZM3.4602 13.46L2.75309 12.7529C2.749 12.757 2.74494 12.7611 2.74091 12.7653L3.4602 13.46ZM10.5302 20.53L11.2249 21.2493C11.2291 21.2452 11.2332 21.2412 11.2373 21.2371L10.5302 20.53ZM12.9473 19.5271C13.3378 19.1365 13.3378 18.5034 12.9473 18.1129C12.5568 17.7223 11.9236 17.7223 11.5331 18.1129L12.9473 19.5271ZM9.19943 13.5989C9.71478 14.2879 10.3723 14.858 11.1273 15.2705L12.0862 13.5153C11.5829 13.2403 11.1445 12.8603 10.801 12.401L9.19943 13.5989ZM11.1273 15.2705C11.8823 15.683 12.7172 15.9283 13.5754 15.9897L13.7183 13.9949C13.1462 13.9539 12.5896 13.7903 12.0862 13.5153L11.1273 15.2705ZM13.5754 15.9897C14.4336 16.0512 15.2949 15.9274 16.101 15.6267L15.402 13.7528C14.8646 13.9533 14.2904 14.0358 13.7183 13.9949L13.5754 15.9897ZM16.101 15.6267C16.9072 15.326 17.6392 14.8554 18.2474 14.2469L16.833 12.833C16.4275 13.2386 15.9394 13.5523 15.402 13.7528L16.101 15.6267ZM18.2473 14.2471L21.2473 11.2471L19.8331 9.83286L16.8331 12.8329L18.2473 14.2471ZM21.2595 11.2347C22.3524 10.1031 22.9572 8.58745 22.9435 7.01427L20.9436 7.03165C20.9527 8.08044 20.5495 9.09085 19.8209 9.84525L21.2595 11.2347ZM22.9435 7.01427C22.9299 5.44109 22.2988 3.93621 21.1864 2.82377L19.7722 4.23798C20.5138 4.97961 20.9345 5.98286 20.9436 7.03165L22.9435 7.01427ZM21.1864 2.82377C20.074 1.71132 18.5691 1.0803 16.9959 1.06663L16.9785 3.06656C18.0273 3.07567 19.0306 3.49635 19.7722 4.23798L21.1864 2.82377ZM16.9959 1.06663C15.4227 1.05296 13.9071 1.65773 12.7755 2.75068L14.1649 4.18925C14.9193 3.46062 15.9297 3.05744 16.9785 3.06656L16.9959 1.06663ZM12.7652 2.7608L11.0452 4.4708L12.4552 5.88913L14.1752 4.17913L12.7652 2.7608ZM14.801 10.401C14.2856 9.71203 13.6281 9.14197 12.8731 8.72946L11.9142 10.4846C12.4175 10.7596 12.8559 11.1396 13.1994 11.5989L14.801 10.401ZM12.8731 8.72946C12.1181 8.31695 11.2832 8.07165 10.425 8.01019L10.2821 10.0051C10.8542 10.0461 11.4108 10.2096 11.9142 10.4846L12.8731 8.72946ZM10.425 8.01019C9.56681 7.94873 8.70546 8.07255 7.89935 8.37325L8.59836 10.2471C9.13577 10.0467 9.71 9.9641 10.2821 10.0051L10.425 8.01019ZM7.89935 8.37325C7.09324 8.67395 6.36123 9.1445 5.75296 9.75299L7.16743 11.1669C7.57294 10.7613 8.06095 10.4476 8.59836 10.2471L7.89935 8.37325ZM5.75309 9.75286L2.75309 12.7529L4.16731 14.1671L7.16731 11.1671L5.75309 9.75286ZM2.74091 12.7653C1.64796 13.8969 1.0432 15.4125 1.05687 16.9857L3.05679 16.9683C3.04768 15.9195 3.45086 14.9091 4.17949 14.1547L2.74091 12.7653ZM1.05687 16.9857C1.07054 18.5588 1.70155 20.0637 2.814 21.1762L4.22821 19.762C3.48658 19.0203 3.06591 18.0171 3.05679 16.9683L1.05687 16.9857ZM2.814 21.1762C3.92645 22.2886 5.43132 22.9196 7.0045 22.9333L7.02188 20.9334C5.9731 20.9243 4.96985 20.5036 4.22821 19.762L2.814 21.1762ZM7.0045 22.9333C8.57768 22.947 10.0933 22.3422 11.2249 21.2493L9.83549 19.8107C9.08108 20.5393 8.07067 20.9425 7.02188 20.9334L7.0045 22.9333ZM11.2373 21.2371L12.9473 19.5271L11.5331 18.1129L9.82309 19.8229L11.2373 21.2371Z" fill="#171717"/>
</svg>
