<svg width="48" height="48" viewBox="0 0 48 48" fill="none" xmlns="http://www.w3.org/2000/svg">
<path d="M1.72577 2.28528C1.50299 2.28242 1.28227 2.32802 1.07913 2.41886C0.875987 2.50971 0.695341 2.6436 0.549878 2.81114C0.404415 2.97868 0.297664 3.1758 0.237121 3.38866C0.176577 3.60152 0.16371 3.82495 0.199423 4.04328L6.67906 43.0925C6.75977 43.5704 7.00752 44.0047 7.37879 44.3192C7.75006 44.6338 8.2211 44.8084 8.70917 44.8124H39.7945C40.1603 44.817 40.5156 44.6911 40.7958 44.4574C41.0759 44.2238 41.2621 43.8981 41.3206 43.5396L47.8005 4.05085C47.8361 3.83254 47.8232 3.60913 47.7626 3.3963C47.702 3.18347 47.5953 2.98639 47.4498 2.81889C47.3043 2.65139 47.1237 2.51754 46.9205 2.42673C46.7174 2.33592 46.4967 2.29035 46.2739 2.29323L1.72577 2.28528ZM29.0103 30.5078H19.0886L16.4022 16.5746H31.4144L29.0103 30.5078Z" fill="#E2E2E2"/>
<path d="M45.7006 16.5552H31.3869L28.9846 30.4772H19.071L7.36523 44.2706C7.73626 44.589 8.20927 44.7661 8.69972 44.7701H39.7679C40.1335 44.7748 40.4886 44.6489 40.7685 44.4155C41.0485 44.1821 41.2346 43.8566 41.2931 43.4983L45.7006 16.5552Z" fill="#CBCBCB"/>
</svg>
