<svg width="48" height="48" viewBox="0 0 48 48" fill="none" xmlns="http://www.w3.org/2000/svg">
<path d="M24.0534 47.0003C36.7266 47.0003 47.0003 36.7266 47.0003 24.0534C47.0003 11.3801 36.7266 1.10645 24.0534 1.10645C11.3801 1.10645 1.10645 11.3801 1.10645 24.0534C1.10645 36.7266 11.3801 47.0003 24.0534 47.0003Z" fill="#E2E2E2"/>
<path d="M21.7268 42.4532C33.1739 42.4532 42.4537 33.1735 42.4537 21.7263C42.4537 10.2792 33.1739 0.999512 21.7268 0.999512C10.2797 0.999512 1 10.2792 1 21.7263C1 33.1735 10.2797 42.4532 21.7268 42.4532Z" fill="#CBCBCB"/>
<path d="M24.5813 37.06C34.5096 37.06 42.5581 29.0115 42.5581 19.0832C42.5581 9.15493 34.5096 1.10645 24.5813 1.10645C14.653 1.10645 6.60449 9.15493 6.60449 19.0832C6.60449 29.0115 14.653 37.06 24.5813 37.06Z" fill="#AFAFAF"/>
<path d="M25.955 36.9529C35.0655 36.9529 42.451 29.5674 42.451 20.4569C42.451 11.3464 35.0655 3.96094 25.955 3.96094C16.8445 3.96094 9.45898 11.3464 9.45898 20.4569C9.45898 29.5674 16.8445 36.9529 25.955 36.9529Z" fill="#CBCBCB"/>
<path d="M24.7926 37.0602C33.2611 37.0602 40.1261 30.1951 40.1261 21.7266C40.1261 13.2581 33.2611 6.39307 24.7926 6.39307C16.3241 6.39307 9.45898 13.2581 9.45898 21.7266C9.45898 30.1951 16.3241 37.0602 24.7926 37.0602Z" fill="#AFAFAF"/>
<path d="M22.3615 31.9832C29.428 31.9832 35.1566 26.2547 35.1566 19.1881C35.1566 12.1216 29.428 6.39307 22.3615 6.39307C15.295 6.39307 9.56641 12.1216 9.56641 19.1881C9.56641 26.2547 15.295 31.9832 22.3615 31.9832Z" fill="#E2E2E2"/>
<path d="M24.3705 27.8591C30.3277 27.8591 35.157 23.0299 35.157 17.0726C35.157 11.1154 30.3277 6.28613 24.3705 6.28613C18.4133 6.28613 13.584 11.1154 13.584 17.0726C13.584 23.0299 18.4133 27.8591 24.3705 27.8591Z" fill="#E2E2E2"/>
<path d="M25.7446 27.9657C30.943 27.9657 35.1571 23.7516 35.1571 18.5532C35.1571 13.3548 30.943 9.14062 25.7446 9.14062C20.5462 9.14062 16.332 13.3548 16.332 18.5532C16.332 23.7516 20.5462 27.9657 25.7446 27.9657Z" fill="#AFAFAF"/>
<path d="M24.3695 27.859C28.8079 27.859 32.4059 24.261 32.4059 19.8226C32.4059 15.3842 28.8079 11.7861 24.3695 11.7861C19.931 11.7861 16.333 15.3842 16.333 19.8226C16.333 24.261 19.931 27.859 24.3695 27.859Z" fill="#AFAFAF"/>
<path d="M24.3695 27.859C28.8079 27.859 32.4059 24.261 32.4059 19.8226C32.4059 15.3842 28.8079 11.7861 24.3695 11.7861C19.931 11.7861 16.333 15.3842 16.333 19.8226C16.333 24.261 19.931 27.859 24.3695 27.859Z" fill="#757575"/>
<path d="M29.0358 17.5666C29.6098 16.2875 29.4274 14.9599 28.6285 14.6015C27.8296 14.243 26.7167 14.9893 26.1427 16.2684C25.5688 17.5475 25.7512 18.8751 26.5501 19.2335C27.349 19.592 28.4619 18.8457 29.0358 17.5666Z" fill="white"/>
</svg>
