<svg width="48" height="48" viewBox="0 0 48 48" fill="none" xmlns="http://www.w3.org/2000/svg">
<path d="M46.1331 21.9507L26.0488 1.8675C24.8928 0.710834 23.0169 0.710834 21.8595 1.8675L17.6889 6.0381L22.9795 11.3287C24.2089 10.9133 25.6188 11.192 26.5988 12.172C27.5835 13.1583 27.8602 14.5802 27.4347 15.8136L32.5334 20.9125C33.767 20.4875 35.1903 20.7624 36.1755 21.7493C37.5525 23.1257 37.5525 25.3566 36.1755 26.7339C34.7982 28.1114 32.5674 28.1114 31.1893 26.7339C30.1536 25.6971 29.8977 24.176 30.4221 22.9L25.6671 18.1451L25.6666 30.6581C26.0113 30.8286 26.3261 31.0537 26.5988 31.3248C27.9758 32.7012 27.9758 34.9322 26.5988 36.3106C25.2215 37.6874 22.9895 37.6874 21.6142 36.3106C20.2372 34.9322 20.2372 32.7014 21.6142 31.325C21.9442 30.9948 22.3363 30.7334 22.768 30.5557V17.926C22.3357 17.7496 21.9433 17.488 21.6142 17.1568C20.5709 16.1149 20.3201 14.5842 20.8547 13.3031L15.6393 8.08728L1.8679 21.8578C0.710699 23.0156 0.710699 24.8917 1.8679 26.0485L21.9526 46.1321C23.1089 47.289 24.9845 47.289 26.1422 46.1321L46.1329 26.1418C47.2897 24.9846 47.2897 23.1074 46.1329 21.9507" fill="#CBCBCB"/>
</svg>
