<svg width="48" height="48" viewBox="0 0 48 48" fill="none" xmlns="http://www.w3.org/2000/svg">
<g clip-path="url(#clip0_369_2167)">
<path d="M30.458 14.7398H31.9227L36.0956 10.5268L36.3008 8.73919C28.5365 1.82039 16.6839 2.5659 9.83109 10.4049C7.92574 12.5825 6.5435 15.1725 5.79102 17.9758C6.25578 17.7828 6.77085 17.7523 7.25574 17.8864L15.5995 16.4969C15.5995 16.4969 16.024 15.788 16.2433 15.8327C19.9554 11.7172 26.2026 11.2378 30.4882 14.7398H30.458Z" fill="#CBCBCB"/>
<path d="M42.0382 17.9758C41.0785 14.4107 39.1108 11.2053 36.3724 8.75342L30.5176 14.6647C32.9903 16.7041 34.3987 19.7776 34.3383 23.0013V24.0516C37.2175 24.0516 39.5494 26.4079 39.5494 29.3128C39.5494 32.2196 37.2155 34.574 34.3383 34.574H23.9142L22.874 35.6384V41.9498L23.9142 43H34.3383C40.3139 43.0468 45.6155 39.1364 47.3901 33.3755C49.1606 27.6125 46.9877 21.3559 42.0382 17.9758Z" fill="#E2E2E2"/>
<path d="M13.4768 42.9413H23.9009V34.5173H13.4768C12.7343 34.5173 12 34.3568 11.3239 34.0439L9.8592 34.501L5.65817 38.714L5.29199 40.1929C7.64803 41.9886 10.5232 42.9535 13.4768 42.9413Z" fill="#CBCBCB"/>
<path d="M13.4763 15.6114C7.68581 15.6459 2.55725 19.3897 0.710245 24.9292C-1.13676 30.4687 0.704209 36.5831 5.29355 40.1461L11.3396 34.0419C8.71595 32.8454 7.551 29.7293 8.73607 27.0804C9.92113 24.4315 13.0075 23.2554 15.6312 24.4519C16.786 24.98 17.7115 25.9144 18.2347 27.0804L24.2807 20.9762C21.7074 17.5818 17.7095 15.5972 13.4763 15.6114Z" fill="#E2E2E2"/>
</g>
<defs>
<clipPath id="clip0_369_2167">
<rect width="48" height="48" fill="white"/>
</clipPath>
</defs>
</svg>
