<svg width="48" height="48" viewBox="0 0 48 48" fill="none" xmlns="http://www.w3.org/2000/svg">
<path d="M42.8203 5.92773H23.042C23.042 8.29566 23.9826 10.5666 25.657 12.241C27.3314 13.9153 29.6023 14.856 31.9702 14.856H35.6136V18.3738C35.6169 23.3002 39.6097 27.2932 44.5361 27.2964V7.64351C44.5361 6.69618 43.7682 5.92773 42.8203 5.92773Z" fill="#AFAFAF"/>
<path d="M33.034 15.7822H13.2559C13.2589 20.7087 17.2517 24.7016 22.1783 24.7049H25.8217V28.2339C25.828 33.1603 29.8235 37.1506 34.75 37.1506V17.4983C34.75 16.5507 33.9817 15.7824 33.034 15.7824V15.7822Z" fill="#CBCBCB"/>
<path d="M23.2422 25.6318H3.46387C3.46387 30.5628 7.46133 34.5601 12.3921 34.5601H16.0469V38.0777C16.0502 42.9996 20.036 46.9908 24.9581 47.0002V27.3478C24.9581 26.4001 24.1899 25.6318 23.2422 25.6318Z" fill="#E2E2E2"/>
</svg>
