<svg width="48" height="48" viewBox="0 0 48 48" fill="none" xmlns="http://www.w3.org/2000/svg">
<path d="M23.9997 0C23.3616 0 22.741 0.132039 22.1916 0.443387L4.80867 10.4979C3.68377 11.1474 3 12.3732 3 13.6777V33.7503C3 35.0538 3.68377 36.2781 4.80867 36.9291L9.3483 39.5539C11.554 40.6426 12.367 40.6257 13.3709 40.6257C16.6363 40.6257 18.5009 38.641 18.5009 35.192V15.3778C18.5009 15.0978 18.2588 14.8974 17.9844 14.8974H15.8069C15.5278 14.8974 15.2903 15.0978 15.2903 15.3778V35.192C15.2903 36.7205 13.7002 38.2582 11.12 36.966L6.39574 34.1937C6.22852 34.1028 6.10029 33.942 6.10029 33.7503V13.6772C6.10029 13.4871 6.22698 13.2934 6.39574 13.1968L23.7417 3.17975C23.8201 3.13388 23.9092 3.10971 24 3.10971C24.0908 3.10971 24.1799 3.13388 24.2583 3.17975L41.6048 13.1973C41.7699 13.297 41.9002 13.4814 41.9002 13.6782V33.7509C41.9002 33.9425 41.8038 34.1388 41.6417 34.2312L24.2583 44.2488C24.1095 44.3377 23.9043 44.3377 23.7417 44.2488L19.276 41.5874C19.208 41.5505 19.1319 41.5312 19.0546 41.5312C18.9773 41.5312 18.9012 41.5505 18.8333 41.5874C17.6007 42.2872 17.3688 42.3684 16.2126 42.7702C15.9279 42.8698 15.4955 43.0245 16.3604 43.51L22.1916 46.9471C22.7414 47.2649 23.3655 47.4308 24.0003 47.428C24.6349 47.432 25.2591 47.2662 25.8084 46.9477L43.1918 36.9296C44.3167 36.2745 45 35.0543 45 33.7509V13.6777C45 12.3737 44.3167 11.1499 43.1918 10.499L25.8084 0.444416C25.2637 0.132555 24.6389 0.000513492 24.0003 0.000513492L23.9997 0Z" fill="#CBCBCB"/>
<path d="M28.6475 14.3433C23.6975 14.3433 20.7496 16.4533 20.7496 19.9624C20.7496 23.7684 23.6755 24.8145 28.4264 25.2851C34.11 25.8425 34.5526 26.6785 34.5526 27.799C34.5526 29.7426 33.0056 30.5713 29.3492 30.5713C24.7547 30.5713 23.7452 29.4225 23.4072 27.1337C23.3672 26.8881 23.1779 26.6898 22.9271 26.6898H20.6757C20.3987 26.6898 20.1592 26.9292 20.1592 27.2076C20.1592 30.1377 21.7504 33.6026 29.3492 33.6026C34.8496 33.6026 38.0222 31.4401 38.0222 27.651C38.0222 23.8953 35.4595 22.8868 30.1238 22.1804C24.7327 21.4657 24.2187 21.1158 24.2187 19.8514C24.2187 18.8074 24.6547 17.411 28.6475 17.411C32.2146 17.411 33.5329 18.1817 34.073 20.5908C34.1202 20.8168 34.3192 20.9971 34.5526 20.9971H36.8045C36.943 20.9971 37.0774 20.9119 37.1733 20.8122C37.2677 20.7058 37.3344 20.5861 37.321 20.4428C36.9722 16.2946 34.2105 14.3433 28.6475 14.3433V14.3433Z" fill="#CBCBCB"/>
</svg>
