<svg width="48" height="48" viewBox="0 0 48 48" fill="none" xmlns="http://www.w3.org/2000/svg">
<path d="M14.3178 39.8021C14.2828 39.7403 14.2516 39.6764 14.2244 39.6108C14.0362 39.1753 13.9782 38.6946 14.0576 38.2269H2.92279L19.4705 9.10637L24.903 18.6562L26.4783 15.8688L21.7427 7.52616C21.5157 7.09883 21.1852 6.73523 20.7814 6.46862C20.3776 6.202 19.9134 6.04089 19.4313 6C18.9503 6.02202 18.4851 6.17857 18.0886 6.45185C17.6922 6.72512 17.3803 7.10416 17.1886 7.54586L0.424938 37.0196C0.174318 37.4358 0.0298157 37.9072 0.00414283 38.3923C-0.02153 38.8775 0.0724136 39.3615 0.277709 39.8018C0.535577 40.2083 0.902045 40.5345 1.33567 40.7436C1.76929 40.9527 2.25276 41.0362 2.7314 40.9848H16.7714C16.2928 41.037 15.809 40.9539 15.3753 40.7448C14.9415 40.5357 14.5751 40.2091 14.3178 39.8021V39.8021Z" fill="#E2E2E2"/>
<path d="M46.5979 37.0194L32.8229 12.7523C32.5969 12.3204 32.2658 11.9524 31.8601 11.6823C31.4545 11.4121 30.9872 11.2485 30.5016 11.2065C30.0209 11.2273 29.5558 11.3827 29.1592 11.6552C28.7626 11.9277 28.4507 12.3062 28.2589 12.7475L26.4775 15.8686L28.0626 18.6559L30.5159 14.3129L44.1442 38.2266H38.9619C39.0283 38.6219 38.9911 39.0277 38.854 39.4044C38.8252 39.4876 38.789 39.568 38.746 39.6449L38.7018 39.7332C38.4202 40.1308 38.045 40.4529 37.6094 40.6711C37.1737 40.8893 36.6911 40.9968 36.204 40.9842H44.311C44.7981 40.9973 45.281 40.89 45.7167 40.6718C46.1525 40.4535 46.5276 40.1311 46.8089 39.7332C47.0309 39.3063 47.1288 38.8258 47.0915 38.3461C47.0542 37.8664 46.8832 37.4068 46.5979 37.0194Z" fill="#CBCBCB"/>
<path d="M38.7019 39.7333L38.7461 39.6449C38.7891 39.5681 38.8253 39.4876 38.8541 39.4044C38.9912 39.0278 39.0284 38.622 38.962 38.2267C38.8857 37.8003 38.7327 37.3913 38.5105 37.0195L28.0729 18.656L26.478 15.8687L24.8929 18.656L14.4598 37.0199C14.2572 37.3962 14.1211 37.8046 14.0574 38.2272C13.9734 38.6935 14.0263 39.1741 14.2095 39.6111C14.2367 39.6767 14.2679 39.7406 14.3029 39.8024C14.5608 40.2089 14.9274 40.535 15.361 40.744C15.7946 40.953 16.2781 41.0365 16.7567 40.9851H36.1894C36.6789 40.9995 37.1644 40.8927 37.6027 40.6743C38.041 40.456 38.4186 40.1327 38.7019 39.7333V39.7333ZM26.4776 21.4434L36.0176 38.2267H16.9426L26.4776 21.4434Z" fill="#AFAFAF"/>
</svg>
