<svg width="48" height="48" viewBox="0 0 48 48" fill="none" xmlns="http://www.w3.org/2000/svg">
<path fill-rule="evenodd" clip-rule="evenodd" d="M5.56308 22.4083C5.65689 22.4151 5.7133 22.4228 5.76964 22.4228C7.52063 22.4229 9.27231 22.4491 11.0224 22.4088C11.753 22.392 12.4927 22.2887 13.2064 22.1276C14.6871 21.7935 15.7837 20.9833 16.1891 19.438C16.5212 18.1724 16.5667 16.8912 16.3307 15.6061C16.0525 14.0919 15.1807 13.0714 13.6753 12.7139C12.7754 12.5002 11.8415 12.364 10.918 12.3304C9.26125 12.2702 7.60082 12.3131 5.94191 12.3141C5.81976 12.3142 5.69754 12.3243 5.56308 12.3302C5.56308 15.7033 5.56308 19.04 5.56308 22.4083ZM1 9C1.14849 9.00933 1.29691 9.02682 1.4454 9.02689C4.79655 9.02848 8.14776 9.01334 11.4988 9.03456C13.0892 9.04459 14.6647 9.21098 16.1968 9.6886C18.9602 10.5502 20.5888 12.5395 20.9073 15.419C21.0732 16.9185 21.0515 18.4048 20.738 19.8808C20.1794 22.5109 18.534 24.1554 16.0418 25.0229C14.6357 25.5124 13.1781 25.697 11.6997 25.7123C9.79983 25.7319 7.89958 25.717 5.99941 25.717C5.86391 25.717 5.72835 25.717 5.554 25.717C5.554 30.106 5.554 34.463 5.554 38.8641C4.01006 38.8641 2.50503 38.8641 1 38.8641C1 28.9094 1 18.9547 1 9V9Z" fill="#CBCBCB"/>
<path fill-rule="evenodd" clip-rule="evenodd" d="M47.7423 38.858C46.3085 38.858 44.9156 38.858 43.5219 38.858C42.7269 38.858 41.9319 38.8471 41.1376 38.8643C40.8749 38.87 40.7277 38.7976 40.6026 38.5549C38.7582 34.9766 36.9034 31.4034 35.05 27.8297C32.5185 22.9492 29.9856 18.0693 27.4527 13.1896C27.4077 13.1034 27.3517 13.023 27.239 12.956C27.239 21.5747 27.239 30.1935 27.239 38.8351C25.8959 38.8351 24.5893 38.8351 23.2627 38.8351C23.2627 28.9114 23.2627 18.9978 23.2627 9.0468C23.3685 9.04037 23.4791 9.02786 23.5904 9.02779C25.6636 9.02661 27.7375 9.03055 29.8107 9.02198C30.0492 9.02101 30.1729 9.09277 30.2863 9.31136C34.6926 17.806 39.1073 26.2967 43.5212 34.7875C43.5675 34.876 43.6208 34.9608 43.7383 35.0345C43.7383 26.3842 43.7383 17.7337 43.7383 9.05516C45.0995 9.05516 46.415 9.05516 47.7423 9.05516C47.7423 18.9884 47.7423 28.902 47.7423 38.858" fill="#CBCBCB"/>
</svg>
