<svg width="48" height="48" viewBox="0 0 48 48" fill="none" xmlns="http://www.w3.org/2000/svg">
<path d="M5.18838 23.746C5.18838 34.0278 13.4645 42.304 23.7465 42.304C34.0284 42.304 42.3045 34.0278 42.3045 23.746C42.3045 13.4641 34.0283 5.18789 23.7465 5.18789C13.4646 5.18789 5.18838 13.4641 5.18838 23.746Z" stroke="#CBCBCB" stroke-width="5.55684"/>
<path fill-rule="evenodd" clip-rule="evenodd" d="M29.0649 13.9707C31.5278 13.9707 33.5244 15.9673 33.5244 18.4302C33.5244 20.8931 31.5278 22.8896 29.0649 22.8896C26.602 22.8896 24.6055 20.8931 24.6055 18.4302C24.6055 15.9673 26.602 13.9707 29.0649 13.9707" fill="#CBCBCB"/>
<path fill-rule="evenodd" clip-rule="evenodd" d="M29.0649 24.604C31.5278 24.604 33.5244 26.6006 33.5244 29.0635C33.5244 31.5264 31.5278 33.5229 29.0649 33.5229C26.602 33.5229 24.6055 31.5264 24.6055 29.0635C24.6055 26.6006 26.602 24.604 29.0649 24.604" fill="#CBCBCB"/>
<path fill-rule="evenodd" clip-rule="evenodd" d="M18.4322 24.604C20.8951 24.604 22.8916 26.6006 22.8916 29.0635C22.8916 31.5264 20.8951 33.5229 18.4322 33.5229C15.9693 33.5229 13.9727 31.5264 13.9727 29.0635C13.9727 26.6006 15.9693 24.604 18.4322 24.604" fill="#CBCBCB"/>
<path fill-rule="evenodd" clip-rule="evenodd" d="M18.4322 13.9707C20.8951 13.9707 22.8916 15.9673 22.8916 18.4302C22.8916 20.8931 20.8951 22.8896 18.4322 22.8896C15.9693 22.8896 13.9727 20.8931 13.9727 18.4302C13.9727 15.9673 15.9693 13.9707 18.4322 13.9707" fill="#CBCBCB"/>
</svg>
