<svg width="48" height="48" viewBox="0 0 48 48" fill="none" xmlns="http://www.w3.org/2000/svg">
<path d="M4.1757 20.4026C4.11384 20.6913 4.06916 20.9594 4.04166 21.2068C4.01417 21.4543 4.00042 21.688 4.00042 21.9079C4.00042 21.9629 4.00042 22.0179 4.00042 22.0729C4.00042 22.121 4.00386 22.1726 4.01073 22.2276H3.14466L3.00032 21.3409H2.95907C2.88347 21.4646 2.7838 21.5883 2.66007 21.712C2.54322 21.8289 2.41263 21.9389 2.26828 22.042C2.12394 22.1382 1.96928 22.2138 1.80431 22.2688C1.64622 22.3307 1.48813 22.3616 1.33004 22.3616C0.903875 22.3616 0.573944 22.2104 0.340242 21.9079C0.113414 21.6055 0 21.1897 0 20.6604C0 20.1792 0.065299 19.7153 0.195897 19.2685C0.326495 18.8217 0.508645 18.4265 0.742346 18.0828C0.982921 17.7322 1.27161 17.4539 1.60842 17.2477C1.9521 17.0415 2.33014 16.9383 2.74256 16.9383C2.94189 16.9383 3.10686 16.9521 3.23745 16.9796C3.36805 17.0002 3.49178 17.038 3.60863 17.093L4.05197 15H5.32015L4.1757 20.4026ZM3.3818 18.155C3.29932 18.1 3.20309 18.0622 3.09311 18.0416C2.99001 18.0141 2.8491 18.0003 2.67038 18.0003C2.46418 18.0003 2.27515 18.0725 2.10331 18.2168C1.93835 18.3543 1.79744 18.5433 1.68059 18.7839C1.56374 19.0176 1.47095 19.2891 1.40221 19.5984C1.34035 19.9077 1.30942 20.2308 1.30942 20.5676C1.30942 20.7669 1.35409 20.9388 1.44345 21.0831C1.53281 21.2275 1.65997 21.2996 1.82493 21.2996C1.92804 21.2996 2.03114 21.2756 2.13425 21.2275C2.24422 21.1725 2.34389 21.1037 2.43325 21.0213C2.52948 20.9388 2.6154 20.8494 2.69101 20.7532C2.77349 20.657 2.83879 20.5676 2.8869 20.4851L3.3818 18.155Z" fill="#AFAFAF"/>
<path d="M7.76201 22.2173L8.3497 19.4128C8.39094 19.2204 8.42188 19.052 8.4425 18.9076C8.46999 18.7564 8.48374 18.6224 8.48374 18.5055C8.48374 18.1893 8.36345 18.0312 8.12287 18.0312C8.00602 18.0312 7.88917 18.0622 7.77232 18.124C7.65547 18.1859 7.54549 18.2649 7.44239 18.3612C7.34616 18.4574 7.25337 18.5639 7.16401 18.6808C7.08153 18.7908 7.01279 18.8973 6.9578 19.0004L6.29794 22.2173H5.02977L6.12266 17.0621H7.11246L7.0506 17.9694H7.09184C7.19494 17.8594 7.30492 17.7426 7.42177 17.6188C7.54549 17.4951 7.68297 17.3817 7.83418 17.2786C7.9854 17.1755 8.15381 17.0896 8.33939 17.0208C8.52498 16.9521 8.72775 16.9177 8.9477 16.9177C9.22265 16.9177 9.42885 17.0174 9.56633 17.2167C9.71067 17.4161 9.77597 17.6807 9.76222 18.0106C9.86533 17.88 9.98218 17.7494 10.1128 17.6188C10.2502 17.4882 10.3946 17.3714 10.5458 17.2683C10.7039 17.1652 10.8689 17.0827 11.0407 17.0208C11.2194 16.9521 11.4016 16.9177 11.5872 16.9177C11.9033 16.9177 12.1439 16.9933 12.3089 17.1446C12.4807 17.2889 12.5666 17.5638 12.5666 17.9694C12.5666 18.2649 12.5151 18.6499 12.412 19.1241L11.7624 22.2173H10.4943L11.1026 19.32C11.1369 19.162 11.1644 19.0142 11.1851 18.8767C11.2057 18.7392 11.216 18.6189 11.216 18.5158C11.216 18.3577 11.1851 18.2375 11.1232 18.155C11.0682 18.0725 10.972 18.0312 10.8345 18.0312C10.7245 18.0312 10.6111 18.0656 10.4943 18.1344C10.3843 18.1962 10.2777 18.2787 10.1746 18.3818C10.0715 18.478 9.9753 18.5846 9.88595 18.7014C9.80346 18.8183 9.73817 18.9282 9.69005 19.0314L9.03019 22.2173H7.76201Z" fill="#AFAFAF"/>
<path d="M14.4803 20.6913C14.439 20.8907 14.439 21.0384 14.4803 21.1347C14.5284 21.2309 14.604 21.279 14.7071 21.279C14.8995 21.279 15.0817 21.2412 15.2535 21.1656L15.2226 22.0832C15.0989 22.1588 14.9202 22.2207 14.6865 22.2688C14.4528 22.3169 14.2225 22.341 13.9957 22.341C13.7001 22.341 13.4733 22.286 13.3152 22.176C13.164 22.0592 13.0884 21.8461 13.0884 21.5368C13.0884 21.3787 13.109 21.1965 13.1502 20.9903L14.4184 15H15.6866L14.4803 20.6913Z" fill="#AFAFAF"/>
<path d="M19.6093 18.2271C19.4787 18.1515 19.3412 18.1 19.1968 18.0725C19.0594 18.045 18.9082 18.0312 18.7432 18.0312C18.5576 18.0312 18.3755 18.0931 18.1967 18.2168C18.0249 18.3337 17.8668 18.4918 17.7225 18.6911C17.585 18.8836 17.475 19.1104 17.3925 19.3716C17.3101 19.6328 17.2688 19.9009 17.2688 20.1758C17.2688 20.5264 17.3444 20.7944 17.4956 20.98C17.6469 21.1587 17.8462 21.2481 18.0936 21.2481C18.2998 21.2481 18.4889 21.2171 18.6607 21.1553C18.8394 21.0866 18.9975 21.0109 19.135 20.9285L19.3721 21.7945C19.1522 21.9595 18.8944 22.097 18.5988 22.2069C18.3102 22.31 18.0215 22.3616 17.7328 22.3616C17.4028 22.3616 17.121 22.3135 16.8873 22.2173C16.6605 22.121 16.4749 21.9904 16.3306 21.8255C16.1862 21.6605 16.0797 21.4715 16.0109 21.2584C15.9422 21.0453 15.9078 20.8219 15.9078 20.5882C15.9078 20.0108 15.9903 19.4953 16.1553 19.0417C16.3203 18.588 16.5368 18.2065 16.8048 17.8972C17.0798 17.581 17.3891 17.3405 17.7328 17.1755C18.0833 17.0036 18.4408 16.9177 18.8051 16.9177C19.1281 16.9177 19.3824 16.9487 19.568 17.0105C19.7605 17.0724 19.9323 17.1411 20.0835 17.2167L19.6093 18.2271Z" fill="#AFAFAF"/>
<path d="M3.8492 28.5581L2.29577 23.8429H4.23412L5.05895 26.6198L5.19642 27.5958L5.70507 26.6198L7.75339 23.8429H9.89795L6.28245 28.4894L8.00084 33.4659H6.08999L5.10019 30.4965L4.93523 29.4792L4.38534 30.4965L2.17205 33.4659H0L3.8492 28.5581Z" fill="#CBCBCB"/>
<path d="M13.0549 28.4481H15.9418L15.0344 32.7373C14.622 33.058 14.1867 33.2917 13.7285 33.4384C13.2794 33.585 12.7937 33.6583 12.2713 33.6583C11.7672 33.6583 11.2998 33.5713 10.8691 33.3971C10.4475 33.223 10.0809 32.971 9.76928 32.641C9.45768 32.3111 9.21482 31.9033 9.04068 31.4175C8.86655 30.9318 8.77949 30.3773 8.77949 29.7541C8.77949 28.7002 8.92154 27.7883 9.20565 27.0184C9.49892 26.2486 9.89301 25.6162 10.3879 25.1213C10.8828 24.6173 11.4602 24.2461 12.12 24.0078C12.7799 23.7695 13.4764 23.6504 14.2096 23.6504C14.732 23.6504 15.1948 23.6962 15.5981 23.7879C16.0105 23.8703 16.3221 23.9574 16.5329 24.0491L15.818 25.63C15.6256 25.5383 15.3827 25.465 15.0894 25.41C14.8053 25.355 14.4571 25.3275 14.0446 25.3275C13.5589 25.3275 13.1098 25.4192 12.6974 25.6025C12.285 25.7858 11.9276 26.0561 11.6251 26.4136C11.3227 26.771 11.0844 27.2155 10.9103 27.747C10.7453 28.2694 10.6628 28.8697 10.6628 29.5479C10.6628 30.3086 10.8416 30.9043 11.199 31.335C11.5564 31.7658 12.0376 31.9812 12.6424 31.9812C13.0915 31.9812 13.4856 31.8666 13.8247 31.6375L14.2096 29.8091L12.8074 29.5892L13.0549 28.4481Z" fill="#CBCBCB"/>
<path d="M18.3057 23.9116C18.4799 23.8841 18.6769 23.8566 18.8969 23.8291C19.1168 23.8016 19.3505 23.7787 19.598 23.7604C19.8454 23.742 20.0974 23.7283 20.3541 23.7191C20.6198 23.71 20.8764 23.7054 21.1239 23.7054C21.5455 23.7054 21.935 23.7512 22.2924 23.8429C22.659 23.9253 22.9706 24.0582 23.2272 24.2415C23.493 24.4248 23.6992 24.6631 23.8458 24.9564C24.0016 25.2405 24.0795 25.5842 24.0795 25.9874C24.0795 26.2898 24.0291 26.5831 23.9283 26.8672C23.8275 27.1422 23.6809 27.3896 23.4884 27.6096C23.3051 27.8295 23.0806 28.0128 22.8148 28.1595C22.5582 28.3061 22.2649 28.4023 21.935 28.4481V28.5169C22.1091 28.5535 22.2832 28.6223 22.4574 28.7231C22.6315 28.8147 22.7873 28.9385 22.9248 29.0943C23.0622 29.2409 23.1722 29.4196 23.2547 29.6304C23.3372 29.832 23.3784 30.0611 23.3784 30.3178C23.3784 30.9043 23.2639 31.4084 23.0347 31.8299C22.8056 32.2424 22.4986 32.5815 22.1137 32.8472C21.7288 33.1038 21.2797 33.2963 20.7665 33.4246C20.2532 33.5438 19.7125 33.6033 19.1443 33.6033C18.9977 33.6033 18.8052 33.6033 18.5669 33.6033C18.3378 33.6033 18.0904 33.5942 17.8246 33.5758C17.5588 33.5667 17.293 33.5483 17.0272 33.5208C16.7615 33.4934 16.5186 33.4521 16.2986 33.3971L18.3057 23.9116ZM18.3195 31.9674C18.3561 31.9857 18.4203 31.9995 18.5119 32.0087C18.6127 32.0178 18.7181 32.027 18.8281 32.0362C18.9473 32.0362 19.0664 32.0407 19.1855 32.0499C19.3047 32.0499 19.4055 32.0499 19.488 32.0499C19.7171 32.0499 19.9508 32.0224 20.1891 31.9674C20.4365 31.9124 20.6565 31.8208 20.849 31.6925C21.0506 31.5642 21.2155 31.3992 21.3438 31.1976C21.4722 30.996 21.5363 30.7485 21.5363 30.4552C21.5363 30.2261 21.4859 30.0382 21.3851 29.8916C21.2843 29.745 21.1514 29.6304 20.9864 29.5479C20.8215 29.4563 20.629 29.3967 20.409 29.3692C20.1983 29.3325 19.9783 29.3142 19.7492 29.3142H18.8694L18.3195 31.9674ZM19.1855 27.8845H19.7767C19.905 27.8845 20.0562 27.8845 20.2303 27.8845C20.4045 27.8753 20.5511 27.8616 20.6702 27.8433C20.8352 27.8158 21.0093 27.77 21.1926 27.7058C21.3851 27.6416 21.5546 27.55 21.7013 27.4309C21.8571 27.3117 21.9854 27.1605 22.0862 26.9772C22.187 26.7939 22.2374 26.5648 22.2374 26.2898C22.2374 25.8958 22.1045 25.6254 21.8387 25.4788C21.5821 25.3321 21.2522 25.2588 20.849 25.2588C20.6107 25.2588 20.3907 25.2634 20.1891 25.2726C19.9875 25.2817 19.8317 25.2955 19.7217 25.3138L19.1855 27.8845Z" fill="#CBCBCB"/>
<path d="M24.3044 31.2388C24.3044 30.5148 24.4052 29.8549 24.6069 29.2592C24.8177 28.6635 25.0926 28.1549 25.4317 27.7333C25.78 27.3117 26.1786 26.9864 26.6277 26.7572C27.0859 26.519 27.5625 26.3998 28.0574 26.3998C28.4973 26.3998 28.8685 26.4686 29.1709 26.606C29.4734 26.7435 29.7162 26.9268 29.8995 27.1559C30.092 27.385 30.2294 27.6462 30.3119 27.9395C30.3944 28.2328 30.4357 28.5352 30.4357 28.8468C30.4357 29.5617 30.3348 30.2169 30.1332 30.8127C29.9316 31.3992 29.6612 31.9033 29.3221 32.3248C28.983 32.7464 28.589 33.0764 28.1399 33.3146C27.6908 33.5438 27.2188 33.6583 26.7239 33.6583C26.2932 33.6583 25.9266 33.5896 25.6242 33.4521C25.3217 33.3055 25.0697 33.1176 24.8681 32.8885C24.6756 32.6594 24.5335 32.4027 24.4419 32.1186C24.3502 31.8254 24.3044 31.5321 24.3044 31.2388ZM26.0503 31.0051C26.0503 31.8299 26.3482 32.2424 26.9439 32.2424C27.1638 32.2424 27.3792 32.1461 27.59 31.9537C27.8008 31.7612 27.9887 31.5092 28.1536 31.1976C28.3186 30.886 28.4469 30.5331 28.5385 30.139C28.6394 29.745 28.6898 29.3509 28.6898 28.9568C28.6898 28.5902 28.6256 28.3107 28.4973 28.1182C28.3782 27.9166 28.149 27.8158 27.8099 27.8158C27.59 27.8158 27.3746 27.9074 27.1638 28.0907C26.953 28.274 26.7652 28.5169 26.6002 28.8193C26.4352 29.1126 26.3023 29.4517 26.2015 29.8366C26.1007 30.2215 26.0503 30.611 26.0503 31.0051Z" fill="#CBCBCB"/>
<path d="M31.1243 31.2388C31.1243 30.5148 31.2251 29.8549 31.4267 29.2592C31.6375 28.6635 31.9125 28.1549 32.2516 27.7333C32.5998 27.3117 32.9985 26.9864 33.4476 26.7572C33.9058 26.519 34.3824 26.3998 34.8773 26.3998C35.3172 26.3998 35.6884 26.4686 35.9908 26.606C36.2932 26.7435 36.5361 26.9268 36.7194 27.1559C36.9118 27.385 37.0493 27.6462 37.1318 27.9395C37.2143 28.2328 37.2555 28.5352 37.2555 28.8468C37.2555 29.5617 37.1547 30.2169 36.9531 30.8127C36.7515 31.3992 36.4811 31.9033 36.142 32.3248C35.8029 32.7464 35.4088 33.0764 34.9598 33.3146C34.5107 33.5438 34.0387 33.6583 33.5438 33.6583C33.1131 33.6583 32.7465 33.5896 32.444 33.4521C32.1416 33.3055 31.8896 33.1176 31.6879 32.8885C31.4955 32.6594 31.3534 32.4027 31.2618 32.1186C31.1701 31.8254 31.1243 31.5321 31.1243 31.2388ZM32.8702 31.0051C32.8702 31.8299 33.168 32.2424 33.7638 32.2424C33.9837 32.2424 34.1991 32.1461 34.4099 31.9537C34.6207 31.7612 34.8085 31.5092 34.9735 31.1976C35.1385 30.886 35.2668 30.5331 35.3584 30.139C35.4592 29.745 35.5096 29.3509 35.5096 28.9568C35.5096 28.5902 35.4455 28.3107 35.3172 28.1182C35.198 27.9166 34.9689 27.8158 34.6298 27.8158C34.4099 27.8158 34.1945 27.9074 33.9837 28.0907C33.7729 28.274 33.585 28.5169 33.4201 28.8193C33.2551 29.1126 33.1222 29.4517 33.0214 29.8366C32.9206 30.2215 32.8702 30.611 32.8702 31.0051Z" fill="#CBCBCB"/>
<path d="M37.9992 31.8574C38.1825 31.9583 38.4162 32.0499 38.7003 32.1324C38.9935 32.2057 39.3006 32.2424 39.6213 32.2424C39.9421 32.2424 40.185 32.1828 40.3499 32.0636C40.5241 31.9353 40.6157 31.7429 40.6249 31.4863C40.6249 31.303 40.5699 31.1472 40.4599 31.0189C40.3499 30.8814 40.2079 30.7531 40.0337 30.6339C39.8688 30.5148 39.6901 30.3957 39.4976 30.2765C39.3051 30.1482 39.1218 30.0062 38.9477 29.8504C38.7828 29.6854 38.6453 29.4929 38.5353 29.273C38.4253 29.053 38.3703 28.7872 38.3703 28.4756C38.3703 28.1732 38.4299 27.8937 38.5491 27.6371C38.6682 27.3805 38.8332 27.1605 39.0439 26.9772C39.2639 26.7939 39.5251 26.6519 39.8275 26.551C40.1391 26.4502 40.4874 26.3998 40.8723 26.3998C41.4039 26.3998 41.8438 26.4411 42.192 26.5235C42.5403 26.5969 42.8152 26.6931 43.0169 26.8122L42.5495 28.1045C42.3662 28.022 42.1416 27.9532 41.8759 27.8983C41.6192 27.8433 41.3489 27.8158 41.0648 27.8158C40.7715 27.8158 40.5378 27.8662 40.3637 27.967C40.1987 28.0678 40.1162 28.2282 40.1162 28.4481C40.1162 28.5948 40.1712 28.7277 40.2812 28.8468C40.3912 28.9568 40.5286 29.0714 40.6936 29.1905C40.8677 29.3096 41.051 29.4334 41.2435 29.5617C41.436 29.6808 41.6147 29.8274 41.7796 30.0016C41.9538 30.1757 42.0958 30.3773 42.2058 30.6065C42.3158 30.8264 42.3708 31.0922 42.3708 31.4038C42.3708 32.1645 42.1233 32.7327 41.6284 33.1084C41.1335 33.475 40.4737 33.6583 39.6488 33.6583C39.1814 33.6583 38.7507 33.6125 38.3566 33.5208C37.9717 33.4384 37.6738 33.333 37.463 33.2047L37.9992 31.8574Z" fill="#CBCBCB"/>
<path d="M43.8071 26.5923H44.7007L44.9756 25.3L46.7765 24.7914L46.3916 26.5923H48L47.6838 28.0082H46.0891L45.4155 31.1151C45.3605 31.3625 45.3331 31.5642 45.3331 31.72C45.3331 31.9216 45.3789 32.0591 45.4705 32.1324C45.5622 32.2057 45.6996 32.2424 45.8829 32.2424C46.0571 32.2424 46.2129 32.224 46.3503 32.1874C46.497 32.1507 46.6482 32.0911 46.804 32.0087V33.2734C46.7032 33.3284 46.5795 33.3834 46.4328 33.4384C46.2954 33.4842 46.1441 33.5208 45.9792 33.5483C45.8142 33.585 45.6447 33.6125 45.4705 33.6308C45.2964 33.6492 45.136 33.6583 44.9894 33.6583C44.522 33.6583 44.16 33.5529 43.9034 33.3421C43.6559 33.1222 43.5322 32.7922 43.5322 32.3523C43.5322 32.2607 43.5368 32.1645 43.5459 32.0636C43.5643 31.9628 43.5826 31.8574 43.6009 31.7475L44.3982 28.0082H43.4772L43.8071 26.5923Z" fill="#CBCBCB"/>
</svg>
