<svg xmlns="http://www.w3.org/2000/svg" viewBox="0 0 800 800" xml:space="preserve"><path d="m374 530-52-30 52-30z" style="fill:#fff;stroke-width:4;stroke:#212121;stroke-linecap:round;stroke-linejoin:round"/><path d="m573 245-43-24v-1h0a69 69 0 0 0-70 0L269 330c-37 22-60 61-60 104v10c0 25 13 48 35 61h0l44 25 8-18 18-7 191-110c37-22 60-61 60-104v-10c0-9-2-19-6-28l14-8z" style="fill:#fff;stroke-width:4;stroke:#212121;stroke-linecap:round;stroke-linejoin:round"/><path d="M559 253c4 9 6 19 6 28v10c0 43-23 82-60 104L314 505l-18 7-8 18-44-25a70 70 0 0 1-35-61v-10c0-43 23-82 60-104l191-110a69 69 0 0 1 70 0h0v1l43 24-14 8z" style="fill:#fff;stroke-width:4;stroke:#212121;stroke-linecap:round;stroke-linejoin:round"/><path d="M503 246 313 355c-38 22-60 61-60 104v10c0 54 58 87 105 60l190-109c37-22 60-61 60-104v-10c0-54-58-87-105-60z" style="fill:none;stroke-width:2;stroke:#212121;stroke-linecap:round;stroke-linejoin:round"/><path d="M503 246 313 355c-38 22-60 61-60 104v10c0 54 58 87 105 60l7-4 52 30v-60l131-75c37-22 60-61 60-104v-10c0-54-58-87-105-60z" style="fill:#fff;stroke-width:4;stroke:#212121;stroke-linecap:round;stroke-linejoin:round"/><path d="M510 258c9-5 18-8 28-8 27 0 56 22 56 56m-64 84-11-3m11 12-22-6m22 14-32-8m32 17-43-11m43 20-53-14m-10 6h0l58 16m-11 6-52-14m42 20-43-11m0 9 32 8h0m-10 6-22-5m11 12-11-3m0 9h0" style="fill:none;stroke-width:2;stroke:#212121;stroke-linecap:round;stroke-linejoin:round"/><path d="M530 390v40l-69 40v-38c0-7 4-14 10-18l50-29c3-1 7 0 8 3l1 2z" style="fill:none"/><path d="M351 517c-9 5-18 8-28 8h0c-27 0-56-21-56-56v-10c0-38 20-73 53-91" style="fill:none;stroke-width:2;stroke:#212121;stroke-linecap:round;stroke-linejoin:round"/><path d="M556 450v-51l15-9-17-10h0-7l-47 27c-8 5-13 14-13 23v65c0 2 1 4 3 5h0l18 10 54-31-15-9c6-5 9-12 9-20z" style="fill:#fff;stroke-width:4;stroke:#212121;stroke-linecap:round;stroke-linejoin:round"/><path d="m561 483-48 27c-3 2-6 1-8-2l-1-3v-65c0-9 5-18 13-22l48-28c2-2 6-1 8 2l1 3v65c0 9-5 18-13 23z" style="fill:#fff;stroke-width:4;stroke:#212121;stroke-linecap:round;stroke-linejoin:round"/><path d="m200 330 131-65-113 75zm289 90 12 7m-19-215 43 25m-28-26 44 25M220 481l43 25m-50-39 43 25" style="stroke:#212121;stroke-width:4;stroke-linecap:round;stroke-linejoin:round;fill:none"/><path d="m317 308-6-2m0 9-10-3m5 11-16-5m-11 7h0l22 5m-5 8-27-7m21 14-31-8m26 16-34-9m29 17-37-10m32 17-38-10m-6 7h0l38 11m-5 7-38-10m33 18-37-10m32 17-8-2" style="fill:none;stroke-width:2;stroke:#212121;stroke-linecap:round;stroke-linejoin:round"/><path d="m322 300-5 8-6 7-21 30-5 8-5 8-5 7-6 8-15 23-2 1-6-4-19-10-4 4-8 7a184 184 0 0 1 11-24l5-7 6-8 6-7 7-7a93 93 0 0 1 19-13l10-6 11-6 10-7 11-6 11-6z" style="fill:none"/><path d="M396 347h0l29 8m-42-3h0l48 13m2 10-60-16m60 25-67-18m66 26-73-19m71 28-77-21m75 29-80-21m77 29-81-21m77 29-81-21m-3 8h0l80 21m-6 8-76-21m71 28-73-19m66 26-67-18m59 25-58-15m48 22-46-13m7 11h0l25 7" style="fill:none;stroke-width:2;stroke:#212121;stroke-linecap:round;stroke-linejoin:round"/><ellipse transform="rotate(-60 383 410)" cx="382.7" cy="410" rx="70.8" ry="40.9" style="fill:none"/><path d="m576 150-26-15h0c-4-2-8-2-12 0l-129 75c-11 6-18 18-18 31v108c0 5 3 9 7 11h0l26 15 152-225zM209 375l-9-45 131-65z" style="fill:#fff;stroke-width:4;stroke:#212121;stroke-linecap:round;stroke-linejoin:round"/><path d="m331 265-174 40 104 60z" style="fill:#fff;stroke-width:4;stroke:#212121;stroke-linecap:round;stroke-linejoin:round"/><path d="m261 355 35-50" style="fill:none;stroke-width:2;stroke:#212121;stroke-linecap:round;stroke-linejoin:round"/><path d="m209 375 9-35 113-75-131 65zm287-75 34 20v30l-34-20z" style="fill:#fff;stroke-width:4;stroke:#212121;stroke-linecap:round;stroke-linejoin:round"/><path d="m564 150-129 75c-11 6-18 18-18 31v108a12 12 0 0 0 18 11l129-75c11-6 18-18 18-31V161a12 12 0 0 0-18-11z" style="fill:#fff;stroke-width:4;stroke:#212121;stroke-linecap:round;stroke-linejoin:round"/><path d="m564 150-129 75c-11 6-18 18-18 31v108a12 12 0 0 0 18 11l95-55v30l26-45 8-5c11-6 18-18 18-31V161a12 12 0 0 0-18-11z" style="fill:#fff;stroke-width:4;stroke:#212121;stroke-linecap:round;stroke-linejoin:round"/><path d="m518 252-9-5h0c-2-2-6-2-9 1-7 4-13 14-13 22 0 4 1 7 4 8h0l8 5 19-31zm34-20-8-5h0c-3-2-6-1-10 1-7 4-13 14-13 22 0 4 2 7 4 8v1l9 5 18-32z" style="fill:#fff;stroke-width:4;stroke:#212121;stroke-linecap:round;stroke-linejoin:round"/><path d="m396 223 21 12" style="stroke:#212121;stroke-width:4;stroke-linecap:round;stroke-linejoin:round;fill:none"/><ellipse transform="rotate(-60 543 248)" cx="543.2" cy="247.6" rx="18.3" ry="10.6" style="fill:#fff;stroke-width:4;stroke:#212121;stroke-linecap:round;stroke-linejoin:round"/><path d="m471 344-26-15h0c-9-5-22-5-36 3-28 16-51 55-51 87 0 15 6 26 14 32h1l25 15 73-122z" style="fill:#fff;stroke-width:4;stroke:#212121;stroke-linecap:round;stroke-linejoin:round"/><path d="M543 256c-4 2-7 0-7-4" style="fill:none;stroke-width:2;stroke:#212121;stroke-linecap:round;stroke-linejoin:round"/><ellipse transform="rotate(-60 508 268)" cx="508.5" cy="267.5" rx="18.3" ry="10.6" style="fill:#fff;stroke-width:4;stroke:#212121;stroke-linecap:round;stroke-linejoin:round"/><path d="m483 272-9-5h0c-2-2-5-1-9 1-7 4-13 14-13 22 0 4 2 7 4 8h0l9 6 18-32z" style="fill:#fff;stroke-width:4;stroke:#212121;stroke-linecap:round;stroke-linejoin:round"/><path d="M509 276c-4 2-7 0-7-4" style="fill:none;stroke-width:2;stroke:#212121;stroke-linecap:round;stroke-linejoin:round"/><ellipse transform="rotate(-60 474 288)" cx="473.8" cy="287.5" rx="18.3" ry="10.6" style="fill:#fff;stroke-width:4;stroke:#212121;stroke-linecap:round;stroke-linejoin:round"/><path d="M474 296c-4 2-7 0-7-4" style="fill:none;stroke-width:2;stroke:#212121;stroke-linecap:round;stroke-linejoin:round"/><ellipse transform="rotate(-60 435 405)" cx="434.7" cy="405" rx="70.8" ry="40.9" style="fill:#fff;stroke-width:4;stroke:#212121;stroke-linecap:round;stroke-linejoin:round"/><ellipse transform="rotate(-60 435 405)" cx="434.7" cy="405" rx="70.8" ry="40.9" style="fill:#fff;stroke-width:4;stroke:#212121;stroke-linecap:round;stroke-linejoin:round"/><path d="M440 356c6-4 12-6 17-6s18 3 18 26" style="fill:none;stroke-width:2;stroke:#212121;stroke-linecap:round;stroke-linejoin:round"/><path d="m383 355 26 15m-31-8 26 15m-31-7 26 15" style="stroke:#212121;stroke-width:4;stroke-linecap:round;stroke-linejoin:round;fill:none"/><path d="M409 540v-30" style="fill:none;stroke-width:2;stroke:#212121;stroke-linecap:round;stroke-linejoin:round"/><path d="m536 137 26 15m-35-10 26 15" style="stroke:#212121;stroke-width:4;stroke-linecap:round;stroke-linejoin:round;fill:none"/><path d="M534 438v10m34-291h2c2 0 4 2 4 4v108c0 10-5 19-14 25m-135 16v-54" style="fill:none;stroke-width:2;stroke:#212121;stroke-linecap:round;stroke-linejoin:round"/><path d="M540 459h-2c-5 3-9 0-9-6v-18c0-7 4-15 9-18l2-1c5-3 9 1 9 7v18c0 7-4 15-9 18z" style="stroke:#212121;stroke-width:4;stroke-linecap:round;stroke-linejoin:round;fill:none"/><path d="M555 441c0 10-7 23-16 28s-16 1-16-10m16 10v8m9-5-18 11" style="stroke:#212121;stroke-width:4;stroke-linecap:round;stroke-linejoin:round;fill:none"/><ellipse transform="rotate(-60 451 382)" cx="451.3" cy="382.1" rx="9.7" ry="5.6" style="stroke:#212121;stroke-width:4;stroke-linecap:round;stroke-linejoin:round;fill:none"/><ellipse transform="rotate(-60 415 405)" cx="414.7" cy="405.5" rx="9.8" ry="5.6" style="stroke:#212121;stroke-width:4;stroke-linecap:round;stroke-linejoin:round;fill:none"/><path d="M453 406c1 0 2 0 1 2-2 11-10 23-19 28s-17 3-20-5l2-4 36-21z" style="stroke:#212121;stroke-width:4;stroke-linecap:round;stroke-linejoin:round;fill:none"/></svg>