<svg width="321" height="300" fill="none" xmlns="http://www.w3.org/2000/svg"><path d="m190 95-13.2 32c1.8 1.3 3.4 2.7 4.7 4.3a48 48 0 0 1 5 11.3l25.6-11.3C210 119 201 101 190 95Z" fill="#fff"/><path d="M42.5 84.7c0-4.4 1.5-9.3 4-13.7 2.6-4.4 6.1-8.2 10-10.4l68.8-39.8c3.8-2.2 7-2.2 9.3-1l5.7 3.4.5.3c2.2 1.2 3.7 4 3.7 8.4v183c0 4.4-1.6 9.4-4.1 13.8-2.6 4.4-6 8.2-9.9 10.4l-68.8 39.7c-3.9 2.3-7.1 2.3-9.3 1l-1.1-.6-.4-.2-4.7-2.8c-2.2-1.3-3.8-4-3.8-8.4l.1-183Z" fill="#fff" stroke="#000" stroke-width="2"/><path d="M75.8 263.7 58.2 274c-3 1.7-6.6-.4-6.6-4V89.3c0-8.8 4.6-16.9 12.1-21.3l13-7.5h.3l7 1c.6 0 1.2 0 1.7-.4L106.5 49l.6-.5 10.3-11.7.1-.1 14.2-8.3c3.5-2 7.9.5 7.9 4.6v179.7c0 8.6-4.6 16.6-12 21l.4.8-.5-.8-10.8 6.3-41 23.8Z" fill="#fff" stroke="#000" stroke-width="2"/><path d="m106.4 44.5-14.3 8.3c-.8.4-1.4.1-1.4-.6 0-.8.6-1.9 1.4-2.3l14.3-8.3c.8-.5 1.5-.2 1.5.6s-.7 1.8-1.5 2.3ZM45 118c.3.3.6.7.7 1.1l.3 1.4v15.2c0 .6-.2 1-.5 1.1l-1.3.8c.3-.2.5-.6.5-1.2v-15.2c0-.4 0-.9-.3-1.3-.1-.4-.4-.8-.7-1.1l-.8-.7-.4-.3c-.5-.3-1-.3-1.3 0l1.3-.8c.3-.2.8-.2 1.3 0l.4.4.8.6Z" fill="#fff"/><path d="m44.7 121.3-.1 15.3c0 1.1-.8 1.6-1.8 1l-.5-.3a4 4 0 0 1-1.8-3.1l.1-15.3c0-1 .8-1.5 1.8-1l.5.3a4 4 0 0 1 1.8 3.1Zm53.5 121.4a3 3 0 0 0 2.3 1l1-.1a7.9 7.9 0 0 0 5.3-4.8c.5-1.3.3-2.5-.4-3.3-.7-.8-1.9-1-3.2-.8a7.9 7.9 0 0 0-5.4 4.8c-.4 1.2-.3 2.4.4 3.2Zm1.7-2.5c.5-1.5 2.2-3 3.7-3.3h.5l.6.1c.2.2.2.6 0 1a6 6 0 0 1-3.7 3.4c-.5 0-1 0-1.1-.2-.2-.1-.2-.5 0-1Z" fill="#000"/><path d="M87 110.4c-.6-1.4-1.8-3.4-3.3-4.9a9.4 9.4 0 0 0 2.4-5.5c.2-3.8-2.5-6.1-6.1-5.2a9.6 9.6 0 0 0-6.8 8.4c-.1 2 .7 3.7 2 4.6a61.4 61.4 0 0 0-4.3 6.8m18.4-22.5c-2.5-2-5.8-2.7-9.4-1.8a19.6 19.6 0 0 0-13.9 17c-.2 4 1.1 7.3 3.7 9.4 1.7 1.5 4 2.2 6.3 2.2 1 0 2-.1 3.1-.4A19.6 19.6 0 0 0 93 101.4c.2-4-1.1-7.2-3.7-9.3Z" stroke="#000" stroke-width="2" stroke-linecap="round"/><path d="m152 124.9-7.6-31.3a64.4 64.4 0 0 0-25.9 33l22.5 12.2a32.7 32.7 0 0 1 11-14Z" fill="#fff"/><path d="m146 90-1.4.8a66.4 66.4 0 0 0-28.7 36l-.3.9 26.6 14.4.5-1.2a30.4 30.4 0 0 1 11.2-14.5l.7-.5-8.7-35.9Zm-27.5 36.6a64.4 64.4 0 0 1 25.9-33l7.5 31.3c-4.5 3.1-8.3 8-10.9 13.9l-22.5-12.2Z" fill="#000"/><path d="m150.7 90.4 7.5 31.3a20.2 20.2 0 0 1 14 .6L185 92.7a38.3 38.3 0 0 0-34.4-2.3Z" fill="#fff"/><path d="M187.2 91.2a40.8 40.8 0 0 0-38.4-2.6l-.9.4 8.6 35.9 1.3-.5c4.8-2 9.8-1.7 14.4.6l1.1.5L188 91.7l-.8-.5Zm-22.8 29.5c-2 0-4.1.4-6.2 1l-7.5-31.3a38.3 38.3 0 0 1 34.4 2.3l-13 29.6c-2.5-1-5-1.6-7.7-1.6Z" fill="#000"/><path d="M116 134.3a88 88 0 0 0-1.1 41.6l23.6-11.3a43 43 0 0 1 0-18.1L116 134.3Z" fill="#fff"/><path d="m141 146.1.3-.9-26.7-14.4-.5 1.4a89 89 0 0 0-1.2 45.7l.4 1.4 28-13.4-.3-.9a43 43 0 0 1 0-18.9Zm-2.5 18.5L115 176a88 88 0 0 1 1.1-41.6l22.6 12.2a43 43 0 0 0 0 18.1Zm75-34.2A64.2 64.2 0 0 0 191 93.8l-1.2-.9-14.8 33.8.7.6a29 29 0 0 1 9.6 16l.3 1.4 28-13.3-.2-1Zm-26.2 11c-1.8-6.3-5-11.7-9.3-15.4l12.8-29.4a62.2 62.2 0 0 1 20.2 33.5l-23.7 11.3Z" fill="#000"/><path d="M90.6 149.5c.2-3.1-.8-5.7-2.8-7.4a8 8 0 0 0-4.8-1.6c-.8 0-1.7.1-2.5.3a17.1 17.1 0 0 0-12.1 15c-.2 3 .8 5.7 2.8 7.3 1.9 1.6 4.5 2 7.3 1.4a17.1 17.1 0 0 0 12.1-15Z" fill="#fff"/><path d="M87 158.7c-.6-1.4-1.8-3.4-3.3-5a9.4 9.4 0 0 0 2.4-5.5c.2-3.7-2.5-6-6.1-5.2a9.6 9.6 0 0 0-6.8 8.4c-.1 2.1.7 3.8 2 4.7a61.5 61.5 0 0 0-4.3 6.8m18.4-22.6c-2.5-2-5.8-2.7-9.4-1.8A19.6 19.6 0 0 0 66 155.6c-.2 4 1.1 7.3 3.7 9.4a10 10 0 0 0 6.3 2.2c1 0 2-.2 3.1-.4A19.6 19.6 0 0 0 93 149.7c.2-4-1.1-7.3-3.7-9.4ZM87 207c-.6-1.4-1.8-3.4-3.3-5a9.4 9.4 0 0 0 2.4-5.4c.2-3.8-2.5-6.1-6.1-5.3a9.6 9.6 0 0 0-6.8 8.4c-.1 2.1.7 3.8 2 4.7a61.3 61.3 0 0 0-4.3 6.8m18.4-22.6c-2.5-2-5.8-2.7-9.4-1.8A19.6 19.6 0 0 0 66 204c-.2 4 1.1 7.3 3.7 9.4a10 10 0 0 0 6.3 2.2c1 0 2-.2 3.1-.4A19.6 19.6 0 0 0 93 198c.2-4-1.1-7.3-3.7-9.4Z" stroke="#000" stroke-width="2" stroke-linecap="round"/><path d="M110 77.4c.5-.3.8-.2 1 .2v2.8l-.5 2.3-.7 2.5a14.7 14.7 0 0 0-.5 5l-.1.4c0 .2-.1.3-.3.4l-.5.4a2 2 0 0 1-.6.2c-.1 0-.2 0-.3-.2a1 1 0 0 1-.1-.3v-.6c-.2-.7-.1-1.5 0-2.4a20 20 0 0 1 .9-4.4l.4-1.7.2-.9-2.5 1.3-.6.1c-.2 0-.3-.2-.3-.4l-.2-.8v-.9c0-.2 0-.4.2-.5.1-.3.3-.4.6-.6l3.9-2Zm2.3.3.8-1.6c.4-.5.8-.9 1.3-1.1.5-.3 1-.4 1.3-.2.4 0 .7.3 1 .7.3.3.5.8.7 1.3.3 1 .5 2 .6 3.2.2 2 0 3.8-.4 5.3l-.8 1.6c-.3.5-.8.9-1.3 1.1-.4.3-.9.3-1.3.2-.4-.1-.7-.3-1-.7a5 5 0 0 1-.7-1.3 16 16 0 0 1-.2-8.5Zm3 7.3c.7-.4 1-1.7.8-4-.2-2.4-.7-3.4-1.5-3-.7.4-1 1.7-.8 4 .3 2.3.7 3.3 1.4 3Zm3.1-8.5c0-1 0-1.9.3-2.6.3-.8.7-1.3 1.3-1.6.5-.3 1-.2 1.4.2.3.4.6 1.1.6 2.1.1 1 0 2-.2 2.6-.3.7-.7 1.2-1.3 1.5-.5.3-1 .2-1.4-.2-.4-.4-.6-1-.7-2Zm2 .2c.4-.2.5-.7.5-1.5 0-.4-.1-.7-.3-.8h-.5a1 1 0 0 0-.5.5v1c0 .4 0 .6.2.7.1.2.3.2.5 0Zm3.5-6.8.2-.6h.4c.2.1.3.2.3.4v.4l-3 14.7-.3.5h-.4c-.2 0-.3-.2-.3-.3v-.4l3-14.7Zm-.4 10.5c0-1 0-1.8.3-2.6.3-.7.7-1.2 1.3-1.5.6-.3 1-.2 1.4.2.3.4.6 1.1.7 2.1 0 1 0 2-.3 2.6a3 3 0 0 1-1.2 1.5c-.6.3-1 .2-1.5-.2-.4-.4-.6-1-.7-2Zm2 .3c.4-.2.6-.7.5-1.5l-.2-.8c-.2-.1-.3-.2-.6 0a1 1 0 0 0-.4.5l-.1 1 .2.8h.5Z" fill="#000"/><path d="m103.6 75 12-7m-11 31.6 27-15.5m-26 21 12.5-7.5M104.6 196l21.5-12.5m-20.5 18L118 194" stroke="#000" stroke-width="2" stroke-linecap="round" stroke-linejoin="round"/><path d="m153.6 158.6-10-35c-.2-1 1-1.8 1.8-1l12.2 13.1c7.9 8.5 19 21.2 11 29.6-.7.7-1.6 1.3-2.5 1.8-7.2 3.6-11.2-4.2-12.5-8.5Z" fill="#fff" stroke="#000" stroke-width="2" stroke-linecap="round" stroke-linejoin="round"/><path d="M165.2 156.6c-.5-.8-1.1-1.3-1.8-1.4h-.3c-.6 0-1.2.3-1.7.8a5.5 5.5 0 0 0-.7 6.2c.4.8 1 1.2 1.8 1.3.7.1 1.4-.2 2-.8a5.5 5.5 0 0 0 .7-6Zm54.5-118.2c-.3-.8-1-1.4-1.8-1.5l-4.3-.6a4.5 4.5 0 0 1-3.4-2.5l-2-4a2.1 2.1 0 0 0-2-1.2c-.8 0-1.5.5-1.9 1.3l-2 3.9a4.4 4.4 0 0 1-3.4 2.5l-4.3.6c-.8.1-1.5.7-1.8 1.5-.2.8 0 1.7.6 2.3l3.1 3c1 1 1.6 2.6 1.3 4l-.7 4.4c-.2.8.2 1.6.9 2.1.6.5 1.5.6 2.3.2l3.8-2c1.4-.8 3-.8 4.3 0l3.9 2c.7.4 1.6.3 2.3-.2.6-.5 1-1.3.8-2.1l-.7-4.4c-.3-1.4.2-3 1.3-4l3.1-3c.6-.6.8-1.5.6-2.3Z" fill="#fff"/><path d="M162.9 154.6c.7.1 1.3.6 1.8 1.4 1 1.8.7 4.6-.7 6.1-.6.6-1.3.9-2 .8-.7 0-1.4-.6-1.8-1.4-1-1.8-.8-4.6.7-6 .5-.6 1.1-1 1.7-1l.3.1Z" fill="#000"/><path d="m208.6 29.8 2.1 3.5a5 5 0 0 0 3.2 2.3l4 1a3 3 0 0 1 1.6 4.8l-2.7 3.1a5 5 0 0 0-1.2 3.7l.3 4.1a3 3 0 0 1-4.1 3l-3.8-1.5a5 5 0 0 0-3.9 0l-3.8 1.6a3 3 0 0 1-4.1-3l.3-4.2a5 5 0 0 0-1.2-3.7l-2.7-3a3 3 0 0 1 1.6-5l4-.9a5 5 0 0 0 3.2-2.3l2-3.5c1.3-2 4-2 5.2 0Zm-37.3 14.8 1.4 1.5a5 5 0 0 0 3.9 1.6l2.1-.1a3 3 0 0 1 2.8 4.4l-1 1.9a5 5 0 0 0-.3 4.1l.8 2a3 3 0 0 1-3.4 4l-2-.4a5 5 0 0 0-4 1l-1.7 1.4a3 3 0 0 1-4.9-2l-.3-2a5 5 0 0 0-2.2-3.6l-1.7-1.1a3 3 0 0 1 .3-5.2l1.9-1a5 5 0 0 0 2.7-3.2l.5-2a3 3 0 0 1 5-1.3Zm76 3.6v2.1a5 5 0 0 0 1.7 3.8l1.6 1.4a3 3 0 0 1-1 5.1l-2.1.7a5 5 0 0 0-3.1 2.8l-.8 1.9a3 3 0 0 1-5.2.5l-1.3-1.7a5 5 0 0 0-3.6-2l-2-.3a3 3 0 0 1-2.2-4.7l1.3-1.7a5 5 0 0 0 .8-4.1l-.4-2a3 3 0 0 1 3.9-3.6l2 .7a5 5 0 0 0 4.1-.4l1.8-1.1a3 3 0 0 1 4.5 2.6Zm16.4 27.5.2 2a5 5 0 0 0 2 3.7l1.8 1.2a3 3 0 0 1-.5 5.2l-2 .8a5 5 0 0 0-2.8 3.1l-.6 2a3 3 0 0 1-5 1.1l-1.5-1.5a5 5 0 0 0-3.8-1.7h-2.1a3 3 0 0 1-2.6-4.5l1-1.8a5 5 0 0 0 .5-4.2l-.7-2a3 3 0 0 1 3.5-3.9l2 .5a5 5 0 0 0 4.1-.9l1.7-1.3a3 3 0 0 1 4.8 2.2Z" fill="#fff" stroke="#000" stroke-width="2"/></svg>