<svg width="454" height="88" viewBox="0 0 454 88" fill="none" xmlns="http://www.w3.org/2000/svg">
<rect x="8.5" y="8.5" width="315" height="69" stroke="#13C0C0" stroke-width="3"/>
<rect x="1.5" y="1.5" width="14" height="14" fill="#F8FAFF" stroke="#13C0C0" stroke-width="3"/>
<rect x="316.5" y="1.5" width="14" height="14" fill="#F8FAFF" stroke="#13C0C0" stroke-width="3"/>
<rect x="316.5" y="70.5" width="14" height="14" fill="#F8FAFF" stroke="#13C0C0" stroke-width="3"/>
<rect x="1.5" y="70.5" width="14" height="14" fill="#F8FAFF" stroke="#13C0C0" stroke-width="3"/>
<g filter="url(#filter0_d_210_208)">
<path d="M339.45 24.4119L360.223 36.068L351.95 39.308L347.322 46.8927L339.45 24.4119Z" fill="#13C0C0"/>
<path d="M340.184 23.1037L336.723 21.1613L338.034 24.9076L345.906 47.3884L346.953 50.3776L348.603 47.6739L352.967 40.5205L360.77 37.4647L363.719 36.3097L360.957 34.7598L340.184 23.1037Z" stroke="white" stroke-width="3"/>
</g>
<rect x="362" y="52" width="92" height="36" rx="2" fill="#13C0C0"/>
<path d="M391.737 64.88L388.057 71.968V76H386.233V71.968L382.537 64.88H384.569L387.145 70.336L389.721 64.88H391.737ZM401.264 71.376C401.264 71.7067 401.243 72.0053 401.2 72.272H394.464C394.518 72.976 394.779 73.5413 395.248 73.968C395.718 74.3947 396.294 74.608 396.976 74.608C397.958 74.608 398.651 74.1973 399.056 73.376H401.024C400.758 74.1867 400.272 74.8533 399.568 75.376C398.875 75.888 398.011 76.144 396.976 76.144C396.134 76.144 395.376 75.9573 394.704 75.584C394.043 75.2 393.52 74.6667 393.136 73.984C392.763 73.2907 392.576 72.4907 392.576 71.584C392.576 70.6773 392.758 69.8827 393.12 69.2C393.494 68.5067 394.011 67.9733 394.672 67.6C395.344 67.2267 396.112 67.04 396.976 67.04C397.808 67.04 398.55 67.2213 399.2 67.584C399.851 67.9467 400.358 68.4587 400.72 69.12C401.083 69.7707 401.264 70.5227 401.264 71.376ZM399.36 70.8C399.35 70.128 399.11 69.5893 398.64 69.184C398.171 68.7787 397.59 68.576 396.896 68.576C396.267 68.576 395.728 68.7787 395.28 69.184C394.832 69.5787 394.566 70.1173 394.48 70.8H399.36ZM404.883 64.16V76H403.059V64.16H404.883ZM409.102 64.16V76H407.278V64.16H409.102ZM415.321 76.144C414.489 76.144 413.737 75.9573 413.065 75.584C412.393 75.2 411.865 74.6667 411.481 73.984C411.097 73.2907 410.905 72.4907 410.905 71.584C410.905 70.688 411.102 69.8933 411.497 69.2C411.892 68.5067 412.43 67.9733 413.113 67.6C413.796 67.2267 414.558 67.04 415.401 67.04C416.244 67.04 417.006 67.2267 417.689 67.6C418.372 67.9733 418.91 68.5067 419.305 69.2C419.7 69.8933 419.897 70.688 419.897 71.584C419.897 72.48 419.694 73.2747 419.289 73.968C418.884 74.6613 418.329 75.2 417.625 75.584C416.932 75.9573 416.164 76.144 415.321 76.144ZM415.321 74.56C415.79 74.56 416.228 74.448 416.633 74.224C417.049 74 417.385 73.664 417.641 73.216C417.897 72.768 418.025 72.224 418.025 71.584C418.025 70.944 417.902 70.4053 417.657 69.968C417.412 69.52 417.086 69.184 416.681 68.96C416.276 68.736 415.838 68.624 415.369 68.624C414.9 68.624 414.462 68.736 414.057 68.96C413.662 69.184 413.348 69.52 413.113 69.968C412.878 70.4053 412.761 70.944 412.761 71.584C412.761 72.5333 413.001 73.2693 413.481 73.792C413.972 74.304 414.585 74.56 415.321 74.56ZM433.54 67.184L430.804 76H428.884L427.108 69.488L425.332 76H423.412L420.66 67.184H422.516L424.356 74.272L426.228 67.184H428.132L429.924 74.24L431.748 67.184H433.54Z" fill="white"/>
<defs>
<filter id="filter0_d_210_208" x="325.995" y="13.9102" width="49.2197" height="51.9531" filterUnits="userSpaceOnUse" color-interpolation-filters="sRGB">
<feFlood flood-opacity="0" result="BackgroundImageFix"/>
<feColorMatrix in="SourceAlpha" type="matrix" values="0 0 0 0 0 0 0 0 0 0 0 0 0 0 0 0 0 0 127 0" result="hardAlpha"/>
<feOffset dy="4"/>
<feGaussianBlur stdDeviation="4"/>
<feColorMatrix type="matrix" values="0 0 0 0 0 0 0 0 0 0 0 0 0 0 0 0 0 0 0.1 0"/>
<feBlend mode="normal" in2="BackgroundImageFix" result="effect1_dropShadow_210_208"/>
<feBlend mode="normal" in="SourceGraphic" in2="effect1_dropShadow_210_208" result="shape"/>
</filter>
</defs>
</svg>
