<svg width="321" height="300" fill="none" xmlns="http://www.w3.org/2000/svg"><path d="m111 74-1 1h1l12 6-4 8-13-5h-1l-9 8h-1v1l4 12-8 3-5-12-1-1v1c-5 0-10 0-15-2h-1l-1 1-5 10-8-4 5-11v-1h-1c-4-3-7-7-9-11h-1l-13 2-2-8 12-4h1v-1c-1-4 0-8 1-12l-1-1-12-6 4-8 12 5h1c3-4 7-8 11-10v-1l-4-13 8-3 6 12v1h15l1 1v-1l7-12 8 4-5 12-1 1 1 1c4 3 7 6 9 10l1 1h1l12-2 2 8-11 4h-1v1c1 5 0 10-1 15ZM60 53c-6 11-1 24 10 30 11 5 24 1 29-10 6-11 2-24-9-30-11-5-25-1-30 10Z" fill="#fff" stroke="#000" stroke-width="2"/><path d="M260 216h1v-1l25-152v-1H66v1L42 215l-1 1h219Z" fill="#fff" stroke="#000" stroke-width="2"/><path d="m277 77-20 120H53L73 77h204Z" stroke="#000" stroke-width="2"/><path d="M291 69v-1l-3-5h-3l-24 151H40l2 1 3 5h96l11 17v1l-3 1-7 1h-1v5h45l13-3v-1 1a15 15 0 0 0 5-2c2-1 3-2 3-4l-2-6h-1 1l-8-10h69v-1l25-150ZM152 237Z" fill="#fff" stroke="#000" stroke-width="2"/><path d="M260 86H89l-1 1-1 7-1 4-1 6-1 6-16 78h175l13-78 1-6 1-6 1-4 1-8Z" fill="#fff"/><path d="m256 90-2-1-1 1 1 2 2-2Zm-6 1v-2h-2v2h2Zm-5-1-1-1-2 1 2 2 1-2Z" fill="#000"/><path d="M62 250c0 4 12 8 29 8 16 0 28-4 28-8v-55H62v55Z" fill="#fff"/><path d="M60 193v57c0 2 2 5 9 8 6 1 14 3 22 3s15-2 21-3c8-3 9-6 9-8v-57H60Zm59 57c0 4-12 8-28 8-17 0-29-4-29-8v-55h57v55Z" fill="#000"/><path d="M91 185c-17 0-29 4-29 8s12 9 29 9c16 0 28-5 28-9s-12-8-28-8Z" fill="#fff"/><path d="M91 182c-18 0-31 5-31 11s13 11 31 11c17 0 30-5 30-11s-13-11-30-11Zm0 20c-17 0-29-5-29-9s12-8 29-8c16 0 28 4 28 8s-12 9-28 9Zm0 23c-18 0-31-5-31-11a1 1 0 0 1 2 0c0 4 12 8 29 8 7 0 25-1 28-8a1 1 0 0 1 2 1c-4 10-29 10-30 10Zm0 18c-18 0-31-5-31-11a1 1 0 0 1 2 0c0 4 12 9 29 9 7 0 25-2 28-9a1 1 0 0 1 2 1c-4 10-29 10-30 10Z" fill="#000"/><path d="m88 138-2-1v-2l5-27 4-2h43l1 1 1 1-5 27c-1 2-2 3-4 3H88Zm55 0-2-1-1-2 6-27 3-2h43l2 1v1l-5 27c0 2-2 3-4 3h-42Zm54 0-2-1v-2l5-27 3-2h43l2 1v1l-5 27c0 2-2 3-3 3h-43Zm-20 40-97-1-2-1v-1l5-27c0-2 2-3 4-3l97 1h2v2l-5 27c0 1-2 3-4 3Z" stroke="#000" stroke-width="2"/><path d="M90 131a1 1 0 0 1 0-2l9-5h1l6 5 10-7h2l6 4 9-10h1v1l-9 11-1 1-7-4-11 6h-1l-6-4-8 4h-1Zm56 2a1 1 0 0 1-1-2l8-8h2l6 4 10-6h1l7 4 9-8h2v2l-10 9h-1l-8-4-9 6h-2l-6-5-8 7v1Zm-36-22H95a1 1 0 1 1 0-2h15a1 1 0 1 1 0 2Zm-6 4H94a1 1 0 1 1 0-2h10a1 1 0 1 1 0 2Zm3 52H92a1 1 0 1 1 0-2h15a1 1 0 1 1 0 2Zm-3 4H92a1 1 0 1 1 0-2h12a1 1 0 1 1 0 2Zm35-4h-14a1 1 0 1 1 0-2h14a1 1 0 1 1 0 2Zm-1 4h-13a1 1 0 1 1 0-2h13a1 1 0 1 1 0 2Zm34-4h-15a1 1 0 1 1 0-2h15a1 1 0 1 1 0 2Zm-1 4h-13a1 1 0 1 1 0-2h13a1 1 0 1 1 0 2Zm-10-60h-11a1 1 0 1 1 0-2h11a1 1 0 1 1 0 2Zm-4 4h-8a1 1 0 1 1 0-2h8a1 1 0 1 1 0 2Zm43 18-1-1v-1l8-5h1l7 1 10-3h1l8 2 8-5h1v2l-8 5h-1l-8-2-10 4h-1l-7-2-7 5h-1Zm15-22h-11a1 1 0 1 1 0-2h11a1 1 0 1 1 0 2Zm-4 4h-8a1 1 0 1 1 0-2h8a1 1 0 1 1 0 2Z" fill="#000"/><path d="M104 160c2-2 2-6 0-8s-5-2-8 0c-2 2-2 6 0 8s6 2 8 0Zm32 0c2-2 3-6 0-8-2-2-5-2-8 0-2 2-2 6 0 8s6 2 8 0Zm33 0c2-2 2-6 0-8s-6-2-8 0-2 6 0 8 5 2 8 0Z" fill="#fff"/><path d="m229 152-4 19h-4l4-19h4Zm-14 7-2 12h-4l3-12h3Zm-13 7-1 5h-4l1-5h4Z" stroke="#000" stroke-width="2"/><path d="M33 273c0 4 12 8 28 8 17 0 28-4 28-8v-54H33v54Z" fill="#fff"/><path d="M31 216v57c0 2 1 5 9 8 6 2 13 3 21 3s16-1 21-3c8-3 10-6 10-8v-57H31Zm58 57c0 4-11 8-28 8-16 0-28-4-28-8v-54h56v54Z" fill="#000"/><path d="M61 208c-16 0-28 5-28 9s12 8 28 8c17 0 28-4 28-8s-11-9-28-9Z" fill="#fff"/><path d="M61 206c-17 0-30 4-30 11 0 6 13 11 30 11 18 0 31-5 31-11 0-7-13-11-31-11Zm0 19c-16 0-28-4-28-8s12-9 28-9c17 0 28 5 28 9s-11 8-28 8Zm0 23c-17 0-30-5-30-11a1 1 0 0 1 2 0c0 4 12 9 28 9 7 0 26-2 29-9a1 1 0 0 1 2 1c-4 10-30 10-31 10Zm0 18c-17 0-30-4-30-11a1 1 0 0 1 2 0c0 5 12 9 28 9 7 0 26-2 29-8a1 1 0 0 1 2 1c-4 9-30 9-31 9Z" fill="#000"/></svg>