<svg xmlns="http://www.w3.org/2000/svg" width="211" height="52" viewBox="0 0 211 52">
    <g fill="#B5BFC9" fill-rule="evenodd" opacity=".404">
        <path d="M44.236 33.165c-2.085-.368-7.485-.368-7.485 1.343 0 1.71 5.89 1.344 7.485-1.343zM27.916.415C25.83.05 12.331-1.05 5.214 8.359c-3.436 4.278-.982 9.532 6.749 9.532C4.724 20.578-.798 25.467.674 31.209c2.038 7.946 10.922 7.576 17.916 6.843C31.033 36.747 39.573 25.1 41.537 23.633c2.944 1.467 4.417 4.154 3.19 5.866-3.312.12-12.025.854-11.657 5.376.368 4.52 14.111 4.032 21.719-.977 1.105.366 3.313 1.465 4.417 2.32 1.105.857 2.332.123 2.455-3.543-1.104-1.1-4.172-2.199-5.767-2.199.49-2.444 1.35-5.376-5.522-10.387-1.104-.61-.982-1.344-.123-1.955.859-.61-.123-2.077-2.455-2.81-2.331-.734-7.362-.366-8.957 1.466-.736.733-.736 3.3.491 4.155-1.227 2.077-7.362 10.997-16.443 11.73-3.314.367-7.04-.116-6.75-4.888.246-4.032 6.382-7.575 8.59-8.553 1.35-.61 1.105-2.566-.614-3.055-1.717-.488-5.766-.733-6.012-3.91-.245-3.177 3.804-5.499 10.308-6.72 1.963-.245 1.963-4.523-.492-5.133zM80.19 21.555c-1.963-.244-8.222-.977-9.08 5.01-.859 5.988 4.049 6.477 6.013 6.232 1.962-.244 6.012-2.321 6.012-9.53-.123-3.666 1.349-5.011 4.54-5.133 3.191-.122 4.663.61 4.663 3.91 0 3.3.123 28.105.123 29.205-2.332 0-8.468.244-10.921.61.245-5.865.981-17.717.981-19.55-1.596 2.321-4.662 5.743-10.43 5.62-5.767-.121-11.044-2.81-10.676-10.386.368-7.576 8.099-12.83 20.002-11.12 2.086.367 2.33 5.499-1.228 5.132M207.929 33.042c-2.821-.123-4.785.366-6.993.733-2.21.367-5.645.733-8.223.123-2.577-.612-3.313-3.178-2.577-4.767.737-1.588 3.19-2.444 4.664-2.931 1.472-.49 1.472-2.445-.123-2.811-1.596-.367-3.804-.979-3.804-2.322 0-1.344 1.963-3.177 8.099-2.688 2.332.245 1.717-3.789-.859-4.4-2.332-.122-10.43.611-15.953 3.422-2.822 1.466-3.313 5.5 4.172 6.843-4.662.366-7.853 4.399-7.73 6.232.035.521-.058 1.449.255 2.468-1.21.78-2.704 1.036-4.366.954-2.454-.123-6.135-3.056-5.337-8.066.706-4.438 1.963-3.91 2.576-4.155 1.35 0 2.7-.732 2.7-2.443 0-1.71.43-2.138-.92-2.138s-9.756 1.222-16.014-.184c-.123-1.832-3.19-4.398-6.381-2.688-3.19 1.711-2.33 5.621 1.35 6.598.287.077.581.15.872.222-1.127 4.62-3.72 12.337-7.866 13.098-2.332.488-3.805-1.1-3.559-4.887.246-3.788.982-10.876.982-10.876.245-3.056-10.921-2.933-10.798.855V31.21c0 .285.06.645.17 1.039-2.825 2.19-9.06 2.692-8.637-2.26l1.472-10.876c.368-3.177-9.817-4.276-10.062.122l-.123 8.798c-.04.5-.056 1.109-.017 1.772-.811 1.504-2.343 2.91-4.277 2.993-2.823.122-4.419-.244-4.173-3.788.246-3.542 1.105-10.264 1.105-10.264.245-3.176-9.94-3.176-10.185-.366-.123 2.321-.736 10.876-.859 13.563-.123 2.688 4.05 5.988 9.939 5.743 5.194-.215 7.049-1.667 9.181-4.52 1.04 2.507 3.397 4.73 8.49 4.52 1.937-.113 4.83.508 9.363-3.028 1.21 1.627 3.258 3.136 6.343 3.273 5.522.244 9.694-.245 12.64-5.988 2.557-4.989 3.356-7.028 4.005-10.202 2.513.483 5.107.793 7.651.793-2.945 2.077-4.171 3.787-3.926 7.332.123 2.199 1.595 7.862 11.044 7.943 5.337.044 7.792-1.093 9.481-2.356 2.267 1.64 6.979 2.816 16.779 1.99 3.19-.49 7.976-.367 11.043-.245 2.086.122 2.208-4.032-.614-4.155M137.74 13.025c3.067 0 5.553-2.09 5.553-4.667 0-2.576-2.486-4.665-5.552-4.665-3.068 0-5.554 2.089-5.554 4.665 0 2.577 2.486 4.667 5.554 4.667"/>
    </g>
</svg>
