<svg xmlns="http://www.w3.org/2000/svg" width="67" height="72" viewBox="0 0 67 72">
    <g fill="#B5BFC9" fill-rule="evenodd" opacity=".404">
        <path d="M4.835 66.732c0-.619-.477-.996-1.095-.996H2.083v1.982H3.74c.618 0 1.095-.377 1.095-.986zM.514 71.868v-7.515H3.96c1.603 0 2.475 1.085 2.475 2.38 0 1.284-.883 2.368-2.475 2.368H2.083v2.767H.513zM7.39 71.868v-5.479h1.403v.72c.388-.465 1.04-.852 1.703-.852v1.372a1.832 1.832 0 0 0-.386-.033c-.465 0-1.084.266-1.317.608v3.664H7.391M15.217 69.057c0-.83-.486-1.55-1.37-1.55-.875 0-1.36.72-1.36 1.55 0 .84.485 1.56 1.36 1.56.884 0 1.37-.72 1.37-1.56zm-4.189 0c0-1.517 1.062-2.8 2.819-2.8 1.767 0 2.828 1.283 2.828 2.8 0 1.516-1.06 2.81-2.828 2.81-1.757 0-2.819-1.294-2.819-2.81zM21.398 70.008v-1.892c-.232-.354-.74-.609-1.205-.609-.806 0-1.358.63-1.358 1.55 0 .929.552 1.56 1.358 1.56.464 0 .973-.254 1.205-.609zm0 1.86v-.82c-.42.532-.995.82-1.647.82-1.337 0-2.364-1.019-2.364-2.811 0-1.738 1.006-2.8 2.364-2.8.63 0 1.226.265 1.647.818v-2.722h1.415v7.515h-1.415zM27.812 71.868v-.808a2.537 2.537 0 0 1-1.879.808c-1.172 0-1.724-.642-1.724-1.683v-3.796h1.402v3.244c0 .74.388.984.985.984.541 0 .973-.299 1.216-.609V66.39h1.403v5.479h-1.403M30.269 69.057c0-1.638 1.192-2.8 2.829-2.8 1.094 0 1.757.475 2.11.963l-.917.862c-.254-.375-.64-.575-1.127-.575-.85 0-1.447.62-1.447 1.55 0 .929.596 1.56 1.447 1.56.486 0 .873-.222 1.127-.587l.918.863c-.354.488-1.017.975-2.111.975-1.637 0-2.829-1.163-2.829-2.811M36.415 70.395v-2.777h-.883V66.39h.883v-1.46h1.404v1.46h1.083v1.23h-1.083v2.4c0 .344.176.598.486.598.21 0 .41-.078.486-.166l.3 1.074c-.211.188-.587.343-1.173.343-.983 0-1.503-.51-1.503-1.473M47.892 71.868v-3.243H44.41v3.243h-1.569v-7.515h1.57v2.9h3.48v-2.9h1.58v7.515h-1.58M54.493 71.868v-.808a2.533 2.533 0 0 1-1.877.808c-1.172 0-1.724-.642-1.724-1.683v-3.796h1.402v3.244c0 .74.388.984.984.984.542 0 .972-.299 1.215-.609V66.39h1.405v5.479h-1.405M60.895 71.868v-3.365c0-.741-.386-.996-.983-.996-.553 0-.972.31-1.216.62v3.74h-1.403V66.39h1.403v.686c.342-.397 1.005-.818 1.868-.818 1.182 0 1.746.663 1.746 1.704v3.907h-1.415M63.983 70.395v-2.777h-.884V66.39h.884v-1.46h1.403v1.46h1.083v1.23h-1.083v2.4c0 .344.177.598.486.598.21 0 .41-.078.487-.166l.298 1.074c-.21.188-.586.343-1.172.343-.983 0-1.502-.51-1.502-1.473M37.181 32.997H29.54V41.1h-5.395V14.09h13.037c5.215 0 9.44 4.231 9.44 9.453 0 5.22-4.225 9.454-9.44 9.454zM33.585.583C18.689.583 6.613 12.676 6.613 27.594s12.076 27.011 26.972 27.011 26.973-12.093 26.973-27.01C60.558 12.675 48.48.582 33.585.582z"/>
        <path d="M37.288 20.012h-7.71v7.062h7.71c2.203 0 3.9-1.341 3.9-3.512 0-2.21-1.697-3.55-3.9-3.55"/>
    </g>
</svg>
