<svg xmlns="http://www.w3.org/2000/svg" xmlns:xlink="http://www.w3.org/1999/xlink" width="28" height="18" viewBox="0 0 28 18">
    <defs>
        <path id="a" d="M.003.046H27.55v17.336H.003z"/>
    </defs>
    <g fill="none" fill-rule="evenodd">
        <g>
            <mask id="b" fill="#fff">
                <use xlink:href="#a"/>
            </mask>
            <path fill="#FFF" d="M7.892 14.422c.373 0 .729-.036 1.069-.11.34-.072.64-.193.898-.364.26-.17.466-.4.62-.692.153-.29.23-.663.23-1.117 0-.89-.251-1.525-.753-1.906-.502-.38-1.165-.57-1.99-.57H3.812v4.759h4.08zm-.218-7.358c.68 0 1.238-.161 1.676-.485.437-.324.655-.85.655-1.579 0-.404-.073-.737-.218-.996a1.616 1.616 0 0 0-.583-.607 2.464 2.464 0 0 0-.838-.303 5.586 5.586 0 0 0-.984-.085h-3.57v4.056h3.862zM8.16.046c.825 0 1.578.073 2.258.219.68.145 1.263.384 1.748.716.486.332.862.773 1.13 1.324.267.55.4 1.23.4 2.04 0 .874-.198 1.602-.595 2.185-.397.583-.983 1.06-1.76 1.433 1.068.307 1.866.846 2.392 1.615.526.769.79 1.696.79 2.78 0 .874-.17 1.631-.51 2.271a4.418 4.418 0 0 1-1.373 1.566 6.076 6.076 0 0 1-1.967.899 8.876 8.876 0 0 1-2.27.291H0V.046h8.16zM23.218 7.453c-.413-.453-1.04-.68-1.882-.68-.55 0-1.008.093-1.372.28a2.616 2.616 0 0 0-.874.691 2.534 2.534 0 0 0-.462.875 3.93 3.93 0 0 0-.158.825h5.61c-.162-.874-.45-1.538-.862-1.991zm-3.898 6.605c.518.502 1.263.753 2.234.753.696 0 1.296-.174 1.797-.522.502-.348.81-.716.923-1.105h3.036c-.486 1.505-1.231 2.582-2.234 3.23-1.005.647-2.219.971-3.643.971-.988 0-1.878-.158-2.672-.474a5.548 5.548 0 0 1-2.015-1.347 6.062 6.062 0 0 1-1.275-2.089c-.3-.809-.45-1.7-.45-2.67 0-.94.154-1.814.462-2.623.307-.81.744-1.51 1.312-2.101a6.174 6.174 0 0 1 2.027-1.396c.785-.34 1.656-.51 2.611-.51 1.069 0 2 .206 2.793.619a5.582 5.582 0 0 1 1.955 1.663c.51.697.877 1.49 1.105 2.38.226.89.307 1.821.243 2.793H18.47c.048 1.117.33 1.926.85 2.428z" mask="url(#b)"/>
        </g>
        <path fill="#FFF" d="M17.882 2.87h7.008V.926h-7.008z"/>
    </g>
</svg>
