<svg xmlns="http://www.w3.org/2000/svg" width="21" height="21" viewBox="0 0 21 21">
    <path fill="#FFF" fill-rule="evenodd" stroke="#FFF" stroke-width=".3" d="M17.407 5.56c-.177.24-1.591 2.05-4.71 3.322a25.886 25.886 0 0 1 .741 1.655c2.807-.352 5.596.213 5.874.272a8.378 8.378 0 0 0-1.905-5.249zM8.9 2.697a44.958 44.958 0 0 1 3.148 4.932c3-1.123 4.27-2.827 4.421-3.043A8.442 8.442 0 0 0 8.9 2.697zM2.619 9.162c.377.005 3.853.02 7.8-1.026A53.75 53.75 0 0 0 7.29 3.263a8.458 8.458 0 0 0-4.671 5.9zm1.99 7.36c.191-.327 2.507-4.156 6.858-5.56.11-.036.22-.07.332-.1a28.249 28.249 0 0 0-.684-1.43c-4.213 1.259-8.301 1.206-8.67 1.199a8.385 8.385 0 0 0 2.164 5.89zm9.563 2.122c-.125-.74-.615-3.316-1.8-6.39l-.055.02c-4.758 1.655-6.467 4.95-6.618 5.26a8.402 8.402 0 0 0 5.178 1.78 8.4 8.4 0 0 0 3.295-.67zm5.035-6.419c-.289-.09-2.612-.782-5.255-.36 1.103 3.028 1.552 5.495 1.639 6.007a8.438 8.438 0 0 0 3.616-5.647zm-8.33 8.514C5.431 20.739 1 16.314 1 10.875c0-5.439 4.43-9.864 9.877-9.864 5.446 0 9.877 4.425 9.877 9.864 0 5.44-4.43 9.864-9.877 9.864z"/>
</svg>
