<svg xmlns="http://www.w3.org/2000/svg" width="10" height="20" viewBox="0 0 10 20">
    <path fill="#FFF" fill-rule="evenodd" d="M9.585.004L7.196 0C4.512 0 2.778 1.932 2.778 4.922v2.27H.376c-.208 0-.376.182-.376.407v3.288c0 .226.168.408.376.408h2.402v8.297c0 .225.168.408.375.408h3.135c.207 0 .375-.183.375-.408v-8.297h2.809c.207 0 .375-.182.375-.408L9.85 7.6a.427.427 0 0 0-.11-.288.361.361 0 0 0-.266-.12h-2.81V5.268c0-.925.203-1.395 1.313-1.395h1.609c.207 0 .375-.183.375-.408V.412c0-.225-.167-.407-.375-.408z"/>
</svg>
