<svg xmlns="http://www.w3.org/2000/svg" xmlns:xlink="http://www.w3.org/1999/xlink" width="19" height="20" viewBox="0 0 19 20">
    <defs>
        <path id="a" d="M.003.005v5.008h4.866V.005H.003z"/>
    </defs>
    <g fill="none" fill-rule="evenodd">
        <g>
            <mask id="b" fill="#fff">
                <use xlink:href="#a"/>
            </mask>
            <path fill="#FFF" d="M2.435.005C1.09.005 0 1.128 0 2.51 0 3.89 1.09 5.013 2.436 5.013c1.342 0 2.433-1.122 2.433-2.504S3.78.005 2.435.005z" mask="url(#b)"/>
        </g>
        <path fill="#FFF" d="M0 19.429h4.198V5.757H0zM14.046 5.757c-1.964 0-3.282 1.105-3.821 2.154h-.054V6.088H6.297v13.34h4.035V12.83c0-1.74.323-3.425 2.424-3.425 2.071 0 2.099 1.99 2.099 3.537v6.487h4.036v-7.317c0-3.592-.755-6.354-4.845-6.354z"/>
    </g>
</svg>
