<svg xmlns="http://www.w3.org/2000/svg" width="33" height="33" viewBox="0 0 33 33">
    <g fill="none" fill-rule="evenodd">
        <circle cx="16.5" cy="16.5" r="16.5" fill="#FFF"/>
        <path fill="#0E0E0F" d="M9.897 13.448c.02-.186-.055-.369-.202-.494l-1.493-1.7V11h4.639l3.585 7.429L19.578 11H24v.254l-1.277 1.157c-.11.08-.165.21-.142.339v8.501c-.023.128.032.259.142.338l1.247 1.157V23h-6.275v-.254l1.293-1.185c.127-.12.127-.155.127-.338V14.35l-3.593 8.621h-.485l-4.184-8.62v5.777c-.034.243.051.488.232.663l1.68 1.926v.254H8v-.254l1.68-1.926c.18-.176.26-.422.217-.663v-6.68z"/>
    </g>
</svg>
