<svg width="24" height="24" viewBox="0 0 24 24" fill="none" xmlns="http://www.w3.org/2000/svg">
<path d="M19.9171 8.5423L20.8895 8.30886L19.9171 8.5423ZM18.5941 6.59411L19.3012 5.88701L18.5941 6.59411ZM19.5579 7.67515L20.4106 7.15265L19.5579 7.67515ZM13.4577 2.08289L13.6911 1.11052L13.4577 2.08289ZM15.4059 3.40589L14.6988 4.11299L15.4059 3.40589ZM14.3249 2.44208L14.8474 1.58944L14.3249 2.44208ZM5.63803 21.673L5.18404 22.564L5.63803 21.673ZM4.32698 20.362L3.43597 20.816L4.32698 20.362ZM18.362 21.673L18.816 22.564L18.362 21.673ZM19.673 20.362L20.564 20.816L19.673 20.362ZM4.32698 3.63803L3.43597 3.18404L4.32698 3.63803ZM5.63803 2.32698L5.18404 1.43597L5.63803 2.32698ZM15 2.26946C15 1.71718 14.5523 1.26946 14 1.26946C13.4477 1.26946 13 1.71718 13 2.26946H15ZM19.7305 9C20.2828 9 20.7305 8.55228 20.7305 8C20.7305 7.44772 20.2828 7 19.7305 7V9ZM14.109 7.45399L15 7V7L14.109 7.45399ZM14.546 7.89101L15 7L14.546 7.89101ZM15.2 21H8.8V23H15.2V21ZM5 17.2V6.8H3V17.2H5ZM8.8 3H12.0118V1H8.8V3ZM19 9.98822V17.2H21V9.98822H19ZM14.6988 4.11299L17.887 7.30122L19.3012 5.88701L16.113 2.69878L14.6988 4.11299ZM21 9.98822C21 9.30205 21.0064 8.79598 20.8895 8.30886L18.9447 8.77575C18.9936 8.97916 19 9.20686 19 9.98822H21ZM17.887 7.30122C18.4395 7.85373 18.596 8.01928 18.7053 8.19764L20.4106 7.15265C20.1488 6.72551 19.7864 6.3722 19.3012 5.88701L17.887 7.30122ZM20.8895 8.30886C20.7915 7.90071 20.6299 7.51054 20.4106 7.15265L18.7053 8.19764C18.8149 8.37659 18.8957 8.57168 18.9447 8.77575L20.8895 8.30886ZM12.0118 3C12.7931 3 13.0208 3.00643 13.2242 3.05526L13.6911 1.11052C13.204 0.993573 12.6979 1 12.0118 1V3ZM16.113 2.69878C15.6278 2.21358 15.2745 1.85119 14.8474 1.58944L13.8024 3.29472C13.9807 3.40402 14.1463 3.56048 14.6988 4.11299L16.113 2.69878ZM13.2242 3.05526C13.4283 3.10425 13.6234 3.18506 13.8024 3.29472L14.8474 1.58944C14.4895 1.37012 14.0993 1.20851 13.6911 1.11052L13.2242 3.05526ZM8.8 21C7.94342 21 7.36113 20.9992 6.91104 20.9624C6.47262 20.9266 6.24842 20.8617 6.09202 20.782L5.18404 22.564C5.66937 22.8113 6.18608 22.9099 6.74817 22.9558C7.2986 23.0008 7.97642 23 8.8 23V21ZM3 17.2C3 18.0236 2.99922 18.7014 3.04419 19.2518C3.09012 19.8139 3.18868 20.3306 3.43597 20.816L5.21799 19.908C5.1383 19.7516 5.07337 19.5274 5.03755 19.089C5.00078 18.6389 5 18.0566 5 17.2H3ZM6.09202 20.782C5.7157 20.5903 5.40973 20.2843 5.21799 19.908L3.43597 20.816C3.81947 21.5686 4.43139 22.1805 5.18404 22.564L6.09202 20.782ZM15.2 23C16.0236 23 16.7014 23.0008 17.2518 22.9558C17.8139 22.9099 18.3306 22.8113 18.816 22.564L17.908 20.782C17.7516 20.8617 17.5274 20.9266 17.089 20.9624C16.6389 20.9992 16.0566 21 15.2 21V23ZM19 17.2C19 18.0566 18.9992 18.6389 18.9624 19.089C18.9266 19.5274 18.8617 19.7516 18.782 19.908L20.564 20.816C20.8113 20.3306 20.9099 19.8139 20.9558 19.2518C21.0008 18.7014 21 18.0236 21 17.2H19ZM18.816 22.564C19.5686 22.1805 20.1805 21.5686 20.564 20.816L18.782 19.908C18.5903 20.2843 18.2843 20.5903 17.908 20.782L18.816 22.564ZM5 6.8C5 5.94342 5.00078 5.36113 5.03755 4.91104C5.07337 4.47262 5.1383 4.24842 5.21799 4.09202L3.43597 3.18404C3.18868 3.66937 3.09012 4.18608 3.04419 4.74817C2.99922 5.2986 3 5.97642 3 6.8H5ZM8.8 1C7.97642 1 7.2986 0.999222 6.74817 1.04419C6.18608 1.09012 5.66937 1.18868 5.18404 1.43597L6.09202 3.21799C6.24842 3.1383 6.47262 3.07337 6.91104 3.03755C7.36113 3.00078 7.94342 3 8.8 3V1ZM5.21799 4.09202C5.40973 3.71569 5.71569 3.40973 6.09202 3.21799L5.18404 1.43597C4.43139 1.81947 3.81947 2.43139 3.43597 3.18404L5.21799 4.09202ZM13 2.26946V6.4H15V2.26946H13ZM15.6 9H19.7305V7H15.6V9ZM13 6.4C13 6.66353 12.9992 6.92131 13.0169 7.13823C13.0356 7.36682 13.0797 7.63656 13.218 7.90798L15 7C15.0293 7.05751 15.0189 7.08028 15.0103 6.97537C15.0008 6.85878 15 6.69653 15 6.4H13ZM15.6 7C15.3035 7 15.1412 6.99922 15.0246 6.9897C14.9197 6.98113 14.9425 6.9707 15 7L14.092 8.78201C14.3634 8.92031 14.6332 8.96438 14.8618 8.98305C15.0787 9.00078 15.3365 9 15.6 9V7ZM13.218 7.90798C13.4097 8.2843 13.7157 8.59027 14.092 8.78201L15 7V7L13.218 7.90798Z" fill="#171717"/>
</svg>
