<svg width="24" height="24" viewBox="0 0 24 24" fill="none" xmlns="http://www.w3.org/2000/svg">
<path d="M5.9 14.2222C5.9 14.7745 6.34772 15.2222 6.9 15.2222C7.45228 15.2222 7.9 14.7745 7.9 14.2222H5.9ZM9.3 10.8889C9.3 11.4412 9.74772 11.8889 10.3 11.8889C10.8523 11.8889 11.3 11.4412 11.3 10.8889H9.3ZM12.7 10.8889C12.7 11.4412 13.1477 11.8889 13.7 11.8889C14.2523 11.8889 14.7 11.4412 14.7 10.8889H12.7ZM16.1 10.8889C16.1 11.4412 16.5477 11.8889 17.1 11.8889C17.6523 11.8889 18.1 11.4412 18.1 10.8889H16.1ZM19.5 13.6667C19.5 17.6982 16.1609 21 12 21V23C17.2279 23 21.5 18.8399 21.5 13.6667H19.5ZM12 21C7.8391 21 4.5 17.6982 4.5 13.6667H2.5C2.5 18.8399 6.77206 23 12 23V21ZM4.5 13.6667V11.4444H2.5V13.6667H4.5ZM5.9 11.4444V14.2222H7.9V11.4444H5.9ZM7.9 11.4444V4.77778H5.9V11.4444H7.9ZM9.3 4.77778V10.8889H11.3V4.77778H9.3ZM11.3 4.77778V3.66667H9.3V4.77778H11.3ZM12.7 4.77778V10.8889H14.7V4.77778H12.7ZM14.7 4.77778V3.66667H12.7V4.77778H14.7ZM16.1 8.11111V10.8889H18.1V8.11111H16.1ZM18.1 8.11111V4.77778H16.1V8.11111H18.1ZM15.4 2.11111C13.9276 2.11111 12.7 3.28644 12.7 4.77778H14.7C14.7 4.42816 14.9946 4.11111 15.4 4.11111V2.11111ZM21.5 8.11111C21.5 6.61978 20.2724 5.44444 18.8 5.44444V7.44444C19.2054 7.44444 19.5 7.7615 19.5 8.11111H21.5ZM15.4 4.11111C15.8054 4.11111 16.1 4.42816 16.1 4.77778H18.1C18.1 3.28644 16.8724 2.11111 15.4 2.11111V4.11111ZM12 3C12.4054 3 12.7 3.31705 12.7 3.66667H14.7C14.7 2.17533 13.4724 1 12 1V3ZM8.6 4.11111C9.00536 4.11111 9.3 4.42816 9.3 4.77778H11.3C11.3 3.28644 10.0724 2.11111 8.6 2.11111V4.11111ZM7.9 4.77778C7.9 4.42816 8.19464 4.11111 8.6 4.11111V2.11111C7.12759 2.11111 5.9 3.28644 5.9 4.77778H7.9ZM11.3 3.66667C11.3 3.31705 11.5946 3 12 3V1C10.5276 1 9.3 2.17533 9.3 3.66667H11.3ZM18.8 5.44444C17.3276 5.44444 16.1 6.61978 16.1 8.11111H18.1C18.1 7.7615 18.3946 7.44444 18.8 7.44444V5.44444ZM5.2 10.7778C5.60536 10.7778 5.9 11.0948 5.9 11.4444H7.9C7.9 9.95311 6.67241 8.77778 5.2 8.77778V10.7778ZM4.5 11.4444C4.5 11.0948 4.79464 10.7778 5.2 10.7778V8.77778C3.72759 8.77778 2.5 9.95311 2.5 11.4444H4.5ZM21.5 13.6667V8.11111H19.5V13.6667H21.5Z" fill="#171717"/>
</svg>
