<svg width="24" height="24" viewBox="0 0 24 24" fill="none" xmlns="http://www.w3.org/2000/svg">
<path d="M20 18C20 18.5523 20.4477 19 21 19C21.5523 19 22 18.5523 22 18H20ZM2 18C2 18.5523 2.44772 19 3 19C3.55228 19 4 18.5523 4 18H2ZM20 12V18H22V12H20ZM4 18V12H2V18H4ZM12 4C16.4183 4 20 7.58172 20 12H22C22 6.47715 17.5228 2 12 2V4ZM12 2C6.47715 2 2 6.47715 2 12H4C4 7.58172 7.58172 4 12 4V2ZM7 16.5V18.5H9V16.5H7ZM4 18.5V16.5H2V18.5H4ZM5.5 20C4.67157 20 4 19.3284 4 18.5H2C2 20.433 3.567 22 5.5 22V20ZM7 18.5C7 19.3284 6.32843 20 5.5 20V22C7.433 22 9 20.433 9 18.5H7ZM5.5 15C6.32843 15 7 15.6716 7 16.5H9C9 14.567 7.433 13 5.5 13V15ZM5.5 13C3.567 13 2 14.567 2 16.5H4C4 15.6716 4.67157 15 5.5 15V13ZM20 16.5V18.5H22V16.5H20ZM17 18.5V16.5H15V18.5H17ZM18.5 20C17.6716 20 17 19.3284 17 18.5H15C15 20.433 16.567 22 18.5 22V20ZM20 18.5C20 19.3284 19.3284 20 18.5 20V22C20.433 22 22 20.433 22 18.5H20ZM18.5 15C19.3284 15 20 15.6716 20 16.5H22C22 14.567 20.433 13 18.5 13V15ZM18.5 13C16.567 13 15 14.567 15 16.5H17C17 15.6716 17.6716 15 18.5 15V13Z" fill="#171717"/>
</svg>
