<svg width="24" height="24" viewBox="0 0 24 24" fill="none" xmlns="http://www.w3.org/2000/svg">
<path d="M5.5 19C4.94772 19 4.5 19.4477 4.5 20C4.5 20.5523 4.94772 21 5.5 21V19ZM8 21C8.55228 21 9 20.5523 9 20C9 19.4477 8.55228 19 8 19V21ZM16 17C16 17.5523 16.4477 18 17 18C17.5523 18 18 17.5523 18 17H16ZM18 16.8C18 16.2477 17.5523 15.8 17 15.8C16.4477 15.8 16 16.2477 16 16.8H18ZM13.092 19.782L13.546 18.891L13.092 19.782ZM12.218 18.908L13.109 18.454L12.218 18.908ZM21.782 18.908L20.891 18.454L21.782 18.908ZM20.908 19.782L20.454 18.891L20.908 19.782ZM20.908 4.21799L20.454 5.10899L20.908 4.21799ZM21.782 5.09202L20.891 5.54601L21.782 5.09202ZM13.092 4.21799L13.546 5.10899L13.092 4.21799ZM12.218 5.09202L13.109 5.54601L12.218 5.09202ZM8 7C8.55228 7 9 6.55228 9 6C9 5.44772 8.55228 5 8 5V7ZM8 17C8.55228 17 9 16.5523 9 16C9 15.4477 8.55228 15 8 15V17ZM3.09202 15.782L3.54601 14.891H3.54601L3.09202 15.782ZM2.21799 14.908L3.10899 14.454L3.10899 14.454L2.21799 14.908ZM3.09202 6.21799L2.63803 5.32698L2.63803 5.32698L3.09202 6.21799ZM2.21799 7.09202L1.32698 6.63803H1.32698L2.21799 7.09202ZM5.5 21H8V19H5.5V21ZM18 17V16.8H16V17H18ZM15.2 5H18.8V3H15.2V5ZM21 7.2V16.8H23V7.2H21ZM18.8 19H15.2V21H18.8V19ZM13 16.8V7.2H11V16.8H13ZM15.2 19C14.6234 19 14.2512 18.9992 13.9678 18.9761C13.6962 18.9539 13.5955 18.9162 13.546 18.891L12.638 20.673C13.0164 20.8658 13.4096 20.9371 13.805 20.9694C14.1886 21.0008 14.6564 21 15.2 21V19ZM11 16.8C11 17.3436 10.9992 17.8114 11.0306 18.195C11.0629 18.5904 11.1342 18.9836 11.327 19.362L13.109 18.454C13.0838 18.4045 13.0461 18.3038 13.0239 18.0322C13.0008 17.7488 13 17.3766 13 16.8H11ZM13.546 18.891C13.3578 18.7951 13.2049 18.6422 13.109 18.454L11.327 19.362C11.6146 19.9265 12.0735 20.3854 12.638 20.673L13.546 18.891ZM21 16.8C21 17.3766 20.9992 17.7488 20.9761 18.0322C20.9539 18.3038 20.9162 18.4045 20.891 18.454L22.673 19.362C22.8658 18.9836 22.9371 18.5904 22.9694 18.195C23.0008 17.8114 23 17.3436 23 16.8H21ZM18.8 21C19.3436 21 19.8114 21.0008 20.195 20.9694C20.5904 20.9371 20.9836 20.8658 21.362 20.673L20.454 18.891C20.4045 18.9162 20.3038 18.9539 20.0322 18.9761C19.7488 18.9992 19.3766 19 18.8 19V21ZM20.891 18.454C20.7951 18.6422 20.6422 18.7951 20.454 18.891L21.362 20.673C21.9265 20.3854 22.3854 19.9265 22.673 19.362L20.891 18.454ZM18.8 5C19.3766 5 19.7488 5.00078 20.0322 5.02393C20.3038 5.04612 20.4045 5.0838 20.454 5.10899L21.362 3.32698C20.9836 3.13419 20.5904 3.06287 20.195 3.03057C19.8114 2.99922 19.3436 3 18.8 3V5ZM23 7.2C23 6.65645 23.0008 6.18864 22.9694 5.80497C22.9371 5.40963 22.8658 5.01641 22.673 4.63803L20.891 5.54601C20.9162 5.59545 20.9539 5.69617 20.9761 5.96784C20.9992 6.25117 21 6.62345 21 7.2H23ZM20.454 5.10899C20.6422 5.20487 20.7951 5.35785 20.891 5.54601L22.673 4.63803C22.3854 4.07354 21.9265 3.6146 21.362 3.32698L20.454 5.10899ZM15.2 3C14.6564 3 14.1886 2.99922 13.805 3.03057C13.4096 3.06287 13.0164 3.13419 12.638 3.32698L13.546 5.10899C13.5955 5.0838 13.6962 5.04612 13.9678 5.02393C14.2512 5.00078 14.6234 5 15.2 5V3ZM13 7.2C13 6.62345 13.0008 6.25117 13.0239 5.96784C13.0461 5.69617 13.0838 5.59545 13.109 5.54601L11.327 4.63803C11.1342 5.01641 11.0629 5.40963 11.0306 5.80497C10.9992 6.18864 11 6.65645 11 7.2H13ZM12.638 3.32698C12.0735 3.6146 11.6146 4.07354 11.327 4.63803L13.109 5.54601C13.2049 5.35785 13.3578 5.20487 13.546 5.10899L12.638 3.32698ZM5.2 7H8V5H5.2V7ZM8 15H5.2V17H8V15ZM3 12.8V9.2H1V12.8H3ZM5.2 15C4.62345 15 4.25117 14.9992 3.96784 14.9761C3.69617 14.9539 3.59545 14.9162 3.54601 14.891L2.63803 16.673C3.01641 16.8658 3.40963 16.9371 3.80497 16.9694C4.18864 17.0008 4.65645 17 5.2 17V15ZM1 12.8C1 13.3436 0.999222 13.8114 1.03057 14.195C1.06287 14.5904 1.13419 14.9836 1.32698 15.362L3.10899 14.454C3.0838 14.4045 3.04612 14.3038 3.02393 14.0322C3.00078 13.7488 3 13.3766 3 12.8H1ZM3.54601 14.891C3.35785 14.7951 3.20487 14.6422 3.10899 14.454L1.32698 15.362C1.6146 15.9265 2.07354 16.3854 2.63803 16.673L3.54601 14.891ZM5.2 5C4.65645 5 4.18864 4.99922 3.80497 5.03057C3.40963 5.06287 3.01641 5.13419 2.63803 5.32698L3.54601 7.10899C3.59545 7.0838 3.69617 7.04612 3.96784 7.02393C4.25117 7.00078 4.62345 7 5.2 7V5ZM3 9.2C3 8.62345 3.00078 8.25117 3.02393 7.96784C3.04612 7.69617 3.0838 7.59545 3.10899 7.54601L1.32698 6.63803C1.13419 7.01641 1.06287 7.40963 1.03057 7.80497C0.999222 8.18864 1 8.65645 1 9.2H3ZM2.63803 5.32698C2.07354 5.6146 1.6146 6.07354 1.32698 6.63803L3.10899 7.54601C3.20487 7.35785 3.35785 7.20487 3.54601 7.10899L2.63803 5.32698Z" fill="#171717"/>
</svg>
