<svg width="24" height="24" viewBox="0 0 24 24" fill="none" xmlns="http://www.w3.org/2000/svg">
<path d="M16.1314 20.8686L15.4243 20.1615L16.1314 20.8686ZM15.309 21.5368L15.618 22.4879L15.309 21.5368ZM13.8686 20.8686L13.1615 21.5757L13.1615 21.5757L13.8686 20.8686ZM14.691 21.5368L14.382 22.4879L14.691 21.5368ZM20.8686 13.8686L21.5757 13.1615L21.5757 13.1615L20.8686 13.8686ZM21.5368 14.691L22.4879 14.382L21.5368 14.691ZM20.8686 16.1314L21.5757 16.8385L20.8686 16.1314ZM21.5368 15.309L22.4879 15.618L21.5368 15.309ZM18.691 12.4632L18.382 11.5121L18.691 12.4632ZM20.1314 13.1314L19.4243 13.8385L19.4243 13.8385L20.1314 13.1314ZM19.309 12.4632L19.618 11.5121L19.309 12.4632ZM12.4632 18.691L11.5121 18.382L12.4632 18.691ZM13.1314 20.1314L13.8385 19.4243L13.8385 19.4243L13.1314 20.1314ZM12.4632 19.309L11.5121 19.618L12.4632 19.309ZM17.0194 13.1961C17.1277 13.7377 17.6546 14.0889 18.1961 13.9806C18.7377 13.8723 19.0889 13.3454 18.9806 12.8039L17.0194 13.1961ZM16.7004 6.50182L15.7198 6.69794L15.7198 6.69794L16.7004 6.50182ZM15.5069 5.26028L15.2722 6.23236L15.5069 5.26028ZM2 2L2.23464 1.02792C1.896 0.946177 1.53923 1.04656 1.29289 1.29289C1.04656 1.53923 0.946177 1.896 1.02792 2.23464L2 2ZM5.26028 15.5069L6.23236 15.2722L5.26028 15.5069ZM6.50182 16.7004L6.69794 15.7198L6.69794 15.7198L6.50182 16.7004ZM12.8039 18.9806C13.3454 19.0889 13.8723 18.7377 13.9806 18.1961C14.0889 17.6546 13.7377 17.1277 13.1961 17.0194L12.8039 18.9806ZM5.4846 16.1908L6.32225 15.6446L5.4846 16.1908ZM5.80953 16.5032L5.29679 17.3617L5.2968 17.3617L5.80953 16.5032ZM16.5032 5.80953L17.3617 5.2968L17.3617 5.29679L16.5032 5.80953ZM16.1908 5.4846L15.6446 6.32225L16.1908 5.4846ZM8.87889 10.2931C9.26942 10.6836 9.90258 10.6836 10.2931 10.2931C10.6836 9.90258 10.6836 9.26942 10.2931 8.87889L8.87889 10.2931ZM13.8385 18.5757L18.5757 13.8385L17.1615 12.4243L12.4243 17.1615L13.8385 18.5757ZM19.4243 13.8385L20.1615 14.5757L21.5757 13.1615L20.8385 12.4243L19.4243 13.8385ZM20.1615 15.4243L15.4243 20.1615L16.8385 21.5757L21.5757 16.8385L20.1615 15.4243ZM14.5757 20.1615L13.8385 19.4243L12.4243 20.8385L13.1615 21.5757L14.5757 20.1615ZM15.4243 20.1615C15.2146 20.3712 15.0993 20.4854 15.0101 20.5611C14.9299 20.6292 14.9386 20.6057 15 20.5858L15.618 22.4879C15.9078 22.3938 16.1296 22.2342 16.3045 22.0858C16.4704 21.9449 16.6521 21.7621 16.8385 21.5757L15.4243 20.1615ZM13.1615 21.5757C13.3479 21.7621 13.5296 21.9449 13.6955 22.0858C13.8704 22.2342 14.0922 22.3938 14.382 22.4879L15 20.5858C15.0614 20.6057 15.0701 20.6292 14.9899 20.5611C14.9007 20.4854 14.7854 20.3712 14.5757 20.1615L13.1615 21.5757ZM15 20.5858L14.382 22.4879C14.7837 22.6184 15.2163 22.6184 15.618 22.4879L15 20.5858ZM20.1615 14.5757C20.3712 14.7854 20.4854 14.9007 20.5611 14.9899C20.6292 15.0701 20.6057 15.0614 20.5858 15L22.4879 14.382C22.3938 14.0923 22.2342 13.8704 22.0858 13.6955C21.9449 13.5296 21.7621 13.3479 21.5757 13.1615L20.1615 14.5757ZM21.5757 16.8385C21.7621 16.6521 21.9449 16.4704 22.0858 16.3045C22.2342 16.1296 22.3938 15.9078 22.4879 15.618L20.5858 15C20.6057 14.9386 20.6292 14.9299 20.5611 15.0101C20.4854 15.0993 20.3712 15.2146 20.1615 15.4243L21.5757 16.8385ZM20.5858 15L22.4879 15.618C22.6184 15.2163 22.6184 14.7837 22.4879 14.382L20.5858 15ZM18.5757 13.8385C18.7854 13.6288 18.9007 13.5146 18.9899 13.4389C19.0701 13.3708 19.0614 13.3943 19 13.4142L18.382 11.5121C18.0922 11.6062 17.8704 11.7658 17.6955 11.9142C17.5296 12.0551 17.3479 12.2379 17.1615 12.4243L18.5757 13.8385ZM20.8385 12.4243C20.6521 12.2379 20.4704 12.0551 20.3045 11.9142C20.1296 11.7658 19.9078 11.6062 19.618 11.5121L19 13.4142C18.9386 13.3943 18.9299 13.3708 19.0101 13.4389C19.0993 13.5146 19.2146 13.6288 19.4243 13.8385L20.8385 12.4243ZM19 13.4142L19.618 11.5121C19.2163 11.3816 18.7837 11.3816 18.382 11.5121L19 13.4142ZM12.4243 17.1615C12.2379 17.3479 12.0551 17.5296 11.9142 17.6955C11.7658 17.8704 11.6062 18.0922 11.5121 18.382L13.4142 19C13.3943 19.0614 13.3708 19.0701 13.4389 18.9899C13.5146 18.9007 13.6288 18.7854 13.8385 18.5757L12.4243 17.1615ZM13.8385 19.4243C13.6288 19.2146 13.5146 19.0993 13.4389 19.0101C13.3708 18.9299 13.3943 18.9386 13.4142 19L11.5121 19.618C11.6062 19.9078 11.7658 20.1296 11.9142 20.3045C12.0551 20.4704 12.2379 20.6521 12.4243 20.8385L13.8385 19.4243ZM11.5121 18.382C11.3816 18.7837 11.3816 19.2163 11.5121 19.618L13.4142 19L11.5121 18.382ZM18.9806 12.8039L17.6809 6.30571L15.7198 6.69794L17.0194 13.1961L18.9806 12.8039ZM15.7415 4.28819L2.23464 1.02792L1.76536 2.97208L15.2722 6.23236L15.7415 4.28819ZM1.02792 2.23464L4.28819 15.7415L6.23236 15.2722L2.97208 1.76536L1.02792 2.23464ZM6.30571 17.6809L12.8039 18.9806L13.1961 17.0194L6.69794 15.7198L6.30571 17.6809ZM4.28819 15.7415C4.35745 16.0284 4.43637 16.4141 4.64694 16.737L6.32225 15.6446C6.34429 15.6784 6.34324 15.6928 6.32492 15.6337C6.30306 15.5631 6.2787 15.4642 6.23236 15.2722L4.28819 15.7415ZM6.69794 15.7198C6.50427 15.6811 6.40446 15.6606 6.33311 15.6415C6.27334 15.6256 6.28762 15.624 6.32226 15.6446L5.2968 17.3617C5.62779 17.5594 6.0163 17.6231 6.30571 17.6809L6.69794 15.7198ZM4.64694 16.737C4.8132 16.992 5.03546 17.2057 5.29679 17.3617L6.32226 15.6446L6.32225 15.6446L4.64694 16.737ZM17.6809 6.30571C17.6231 6.0163 17.5594 5.62779 17.3617 5.2968L15.6446 6.32226C15.624 6.28762 15.6256 6.27334 15.6415 6.33311C15.6606 6.40446 15.6811 6.50427 15.7198 6.69794L17.6809 6.30571ZM15.2722 6.23236C15.4642 6.2787 15.5631 6.30306 15.6337 6.32492C15.6928 6.34324 15.6784 6.34429 15.6446 6.32225L16.737 4.64694C16.4141 4.43637 16.0284 4.35745 15.7415 4.28819L15.2722 6.23236ZM17.3617 5.29679C17.2057 5.03546 16.992 4.8132 16.737 4.64694L15.6446 6.32225L15.6446 6.32226L17.3617 5.29679ZM1.29289 2.70711L8.87889 10.2931L10.2931 8.87889L2.70711 1.29289L1.29289 2.70711ZM12 11C12 11.5523 11.5523 12 11 12V14C12.6569 14 14 12.6569 14 11H12ZM11 12C10.4477 12 10 11.5523 10 11H8C8 12.6569 9.34315 14 11 14V12ZM10 11C10 10.4477 10.4477 10 11 10V8C9.34315 8 8 9.34315 8 11H10ZM11 10C11.5523 10 12 10.4477 12 11H14C14 9.34315 12.6569 8 11 8V10Z" fill="#171717"/>
</svg>
