<svg width="24" height="24" viewBox="0 0 24 24" fill="none" xmlns="http://www.w3.org/2000/svg">
<path d="M11.5 4C10.9477 4 10.5 4.44772 10.5 5C10.5 5.55228 10.9477 6 11.5 6V4ZM13.7823 10.8125L13.2048 9.99611H13.2048L13.7823 10.8125ZM9.71772 13.6875L9.14025 12.8711H9.14025L9.71772 13.6875ZM12.5 20.5C13.0523 20.5 13.5 20.0523 13.5 19.5C13.5 18.9477 13.0523 18.5 12.5 18.5V20.5ZM5.82984 17.1078L4.84925 16.9117L4.84925 16.9117L5.82984 17.1078ZM6.41636 18.9527L5.72904 19.6791L5.72904 19.6791L6.41636 18.9527ZM17.0836 5.54729L16.3963 6.27364L16.3963 6.27364L17.0836 5.54729ZM17.6702 7.39221L16.6896 7.1961L16.6896 7.19611L17.6702 7.39221ZM7 5C7 6.10457 6.10457 7 5 7V9C7.20914 9 9 7.20914 9 5H7ZM5 7C3.89543 7 3 6.10457 3 5H1C1 7.20914 2.79086 9 5 9V7ZM3 5C3 3.89543 3.89543 3 5 3V1C2.79086 1 1 2.79086 1 5H3ZM5 3C6.10457 3 7 3.89543 7 5H9C9 2.79086 7.20914 1 5 1V3ZM21 19C21 20.1046 20.1046 21 19 21V23C21.2091 23 23 21.2091 23 19H21ZM19 21C17.8954 21 17 20.1046 17 19H15C15 21.2091 16.7909 23 19 23V21ZM17 19C17 17.8954 17.8954 17 19 17V15C16.7909 15 15 16.7909 15 19H17ZM19 17C20.1046 17 21 17.8954 21 19H23C23 16.7909 21.2091 15 19 15V17ZM11.5 6H11.9344V4H11.5V6ZM13.2048 9.99611L9.14025 12.8711L10.2952 14.5039L14.3597 11.6289L13.2048 9.99611ZM11.5656 20.5H12.5V18.5H11.5656V20.5ZM9.14025 12.8711C7.91172 13.74 6.93774 14.4279 6.25714 14.9982C5.91437 15.2854 5.61108 15.5712 5.37529 15.8632C5.14013 16.1545 4.93123 16.5018 4.84925 16.9117L6.81042 17.3039C6.80652 17.3234 6.81166 17.2679 6.9314 17.1196C7.0505 16.9721 7.24297 16.7815 7.54167 16.5312C8.14402 16.0264 9.0359 15.3946 10.2952 14.5039L9.14025 12.8711ZM11.5656 18.5C10.0232 18.5 8.93013 18.4992 8.1469 18.4349C7.75849 18.4031 7.49129 18.3586 7.30887 18.3069C7.12548 18.255 7.08924 18.2127 7.10368 18.2264L5.72904 19.6791C6.03267 19.9664 6.40378 20.1293 6.76395 20.2313C7.12511 20.3335 7.53771 20.3917 7.98341 20.4282C8.8684 20.5008 10.0608 20.5 11.5656 20.5V18.5ZM4.84925 16.9117C4.64679 17.9241 4.97912 18.9694 5.72904 19.6791L7.10368 18.2264C6.85371 17.9898 6.74293 17.6414 6.81042 17.3039L4.84925 16.9117ZM11.9344 6C13.4768 6 14.5699 6.00083 15.3531 6.06506C15.7415 6.09692 16.0087 6.1414 16.1911 6.19305C16.3745 6.24499 16.4108 6.28731 16.3963 6.27364L17.771 4.82093C17.4673 4.53362 17.0962 4.37071 16.736 4.26872C16.3749 4.16645 15.9623 4.10831 15.5166 4.07176C14.6316 3.99917 13.4392 4 11.9344 4V6ZM14.3597 11.6289C15.5883 10.76 16.5623 10.0721 17.2429 9.50177C17.5856 9.21455 17.8889 8.92882 18.1247 8.63678C18.3599 8.34552 18.5688 7.99821 18.6507 7.58832L16.6896 7.19611C16.6935 7.17661 16.6883 7.23209 16.5686 7.38039C16.4495 7.5279 16.257 7.71851 15.9583 7.96881C15.356 8.47355 14.4641 9.1054 13.2048 9.99611L14.3597 11.6289ZM16.3963 6.27364C16.6463 6.51018 16.7571 6.85864 16.6896 7.1961L18.6507 7.58832C18.8532 6.57592 18.5209 5.53055 17.771 4.82093L16.3963 6.27364Z" fill="#171717"/>
</svg>
