<svg width="24" height="24" viewBox="0 0 24 24" fill="none" xmlns="http://www.w3.org/2000/svg">
<path d="M16 20C15.4477 20 15 20.4477 15 21C15 21.5523 15.4477 22 16 22V20ZM2 8C2 8.55228 2.44772 9 3 9C3.55228 9 4 8.55228 4 8H2ZM20.673 19.362L19.782 18.908V18.908L20.673 19.362ZM19.362 20.673L18.908 19.782H18.908L19.362 20.673ZM19.362 3.32698L18.908 4.21799L18.908 4.21799L19.362 3.32698ZM20.673 4.63803L21.564 4.18404V4.18404L20.673 4.63803ZM4.63803 3.32698L5.09202 4.21799L4.63803 3.32698ZM3.32698 4.63803L4.21799 5.09202L3.32698 4.63803ZM4.09202 20.782L4.54601 19.891L4.09202 20.782ZM3.21799 19.908L4.10899 19.454L3.21799 19.908ZM11.782 19.908L10.891 19.454L11.782 19.908ZM10.908 20.782L10.454 19.891L10.908 20.782ZM10.908 12.218L10.454 13.109L10.908 12.218ZM11.782 13.092L10.891 13.546L11.782 13.092ZM4.09202 12.218L4.54601 13.109L4.09202 12.218ZM3.21799 13.092L4.10899 13.546L3.21799 13.092ZM10.7929 11.7929C10.4024 12.1834 10.4024 12.8166 10.7929 13.2071C11.1834 13.5976 11.8166 13.5976 12.2071 13.2071L10.7929 11.7929ZM17 7H18C18 6.44772 17.5523 6 17 6V7ZM12 6C11.4477 6 11 6.44772 11 7C11 7.55228 11.4477 8 12 8V6ZM16 12C16 12.5523 16.4477 13 17 13C17.5523 13 18 12.5523 18 12H16ZM7.8 4H16.2V2H7.8V4ZM20 7.8V16.2H22V7.8H20ZM16.2 20H16V22H16.2V20ZM2 7.8V8H4V7.8H2ZM20 16.2C20 17.0566 19.9992 17.6389 19.9624 18.089C19.9266 18.5274 19.8617 18.7516 19.782 18.908L21.564 19.816C21.8113 19.3306 21.9099 18.8139 21.9558 18.2518C22.0008 17.7014 22 17.0236 22 16.2H20ZM16.2 22C17.0236 22 17.7014 22.0008 18.2518 21.9558C18.8139 21.9099 19.3306 21.8113 19.816 21.564L18.908 19.782C18.7516 19.8617 18.5274 19.9266 18.089 19.9624C17.6389 19.9992 17.0566 20 16.2 20V22ZM19.782 18.908C19.5903 19.2843 19.2843 19.5903 18.908 19.782L19.816 21.564C20.5686 21.1805 21.1805 20.5686 21.564 19.816L19.782 18.908ZM16.2 4C17.0566 4 17.6389 4.00078 18.089 4.03755C18.5274 4.07337 18.7516 4.1383 18.908 4.21799L19.816 2.43597C19.3306 2.18868 18.8139 2.09012 18.2518 2.04419C17.7014 1.99922 17.0236 2 16.2 2V4ZM22 7.8C22 6.97642 22.0008 6.2986 21.9558 5.74817C21.9099 5.18608 21.8113 4.66937 21.564 4.18404L19.782 5.09202C19.8617 5.24842 19.9266 5.47262 19.9624 5.91104C19.9992 6.36113 20 6.94342 20 7.8H22ZM18.908 4.21799C19.2843 4.40973 19.5903 4.71569 19.782 5.09202L21.564 4.18404C21.1805 3.43139 20.5686 2.81947 19.816 2.43597L18.908 4.21799ZM7.8 2C6.97642 2 6.2986 1.99922 5.74817 2.04419C5.18608 2.09012 4.66937 2.18868 4.18404 2.43597L5.09202 4.21799C5.24842 4.1383 5.47262 4.07337 5.91104 4.03755C6.36113 4.00078 6.94342 4 7.8 4V2ZM4 7.8C4 6.94342 4.00078 6.36113 4.03755 5.91104C4.07337 5.47262 4.1383 5.24842 4.21799 5.09202L2.43597 4.18404C2.18868 4.66937 2.09012 5.18608 2.04419 5.74817C1.99922 6.2986 2 6.97642 2 7.8H4ZM4.18404 2.43597C3.43139 2.81947 2.81947 3.43139 2.43597 4.18404L4.21799 5.09202C4.40973 4.71569 4.71569 4.40973 5.09202 4.21799L4.18404 2.43597ZM6.2 13H8.8V11H6.2V13ZM11 15.2V17.8H13V15.2H11ZM8.8 20H6.2V22H8.8V20ZM4 17.8V15.2H2V17.8H4ZM6.2 20C5.62345 20 5.25117 19.9992 4.96784 19.9761C4.69617 19.9539 4.59545 19.9162 4.54601 19.891L3.63803 21.673C4.01641 21.8658 4.40963 21.9371 4.80497 21.9694C5.18864 22.0008 5.65645 22 6.2 22V20ZM2 17.8C2 18.3436 1.99922 18.8114 2.03057 19.195C2.06287 19.5904 2.13419 19.9836 2.32698 20.362L4.10899 19.454C4.0838 19.4045 4.04612 19.3038 4.02393 19.0322C4.00078 18.7488 4 18.3766 4 17.8H2ZM4.54601 19.891C4.35785 19.7951 4.20487 19.6422 4.10899 19.454L2.32698 20.362C2.6146 20.9265 3.07354 21.3854 3.63803 21.673L4.54601 19.891ZM11 17.8C11 18.3766 10.9992 18.7488 10.9761 19.0322C10.9539 19.3038 10.9162 19.4045 10.891 19.454L12.673 20.362C12.8658 19.9836 12.9371 19.5904 12.9694 19.195C13.0008 18.8114 13 18.3436 13 17.8H11ZM8.8 22C9.34355 22 9.81136 22.0008 10.195 21.9694C10.5904 21.9371 10.9836 21.8658 11.362 21.673L10.454 19.891C10.4045 19.9162 10.3038 19.9539 10.0322 19.9761C9.74883 19.9992 9.37655 20 8.8 20V22ZM10.891 19.454C10.7951 19.6422 10.6422 19.7951 10.454 19.891L11.362 21.673C11.9265 21.3854 12.3854 20.9265 12.673 20.362L10.891 19.454ZM8.8 13C9.37655 13 9.74883 13.0008 10.0322 13.0239C10.3038 13.0461 10.4045 13.0838 10.454 13.109L11.362 11.327C10.9836 11.1342 10.5904 11.0629 10.195 11.0306C9.81136 10.9992 9.34355 11 8.8 11V13ZM13 15.2C13 14.6564 13.0008 14.1886 12.9694 13.805C12.9371 13.4096 12.8658 13.0164 12.673 12.638L10.891 13.546C10.9162 13.5955 10.9539 13.6962 10.9761 13.9678C10.9992 14.2512 11 14.6234 11 15.2H13ZM10.454 13.109C10.6422 13.2049 10.7951 13.3578 10.891 13.546L12.673 12.638C12.3854 12.0735 11.9265 11.6146 11.362 11.327L10.454 13.109ZM6.2 11C5.65645 11 5.18864 10.9992 4.80497 11.0306C4.40963 11.0629 4.01641 11.1342 3.63803 11.327L4.54601 13.109C4.59545 13.0838 4.69617 13.0461 4.96784 13.0239C5.25117 13.0008 5.62345 13 6.2 13V11ZM4 15.2C4 14.6234 4.00078 14.2512 4.02393 13.9678C4.04612 13.6962 4.0838 13.5955 4.10899 13.546L2.32698 12.638C2.13419 13.0164 2.06287 13.4096 2.03057 13.805C1.99922 14.1886 2 14.6564 2 15.2H4ZM3.63803 11.327C3.07354 11.6146 2.6146 12.0735 2.32698 12.638L4.10899 13.546C4.20487 13.3578 4.35785 13.2049 4.54601 13.109L3.63803 11.327ZM12.2071 13.2071L17.7071 7.70711L16.2929 6.29289L10.7929 11.7929L12.2071 13.2071ZM12 8H17V6H12V8ZM16 7V12H18V7H16Z" fill="#171717"/>
</svg>
