<svg width="24" height="24" viewBox="0 0 24 24" fill="none" xmlns="http://www.w3.org/2000/svg">
<path d="M23 8.0004C23 7.44812 22.5523 7.0004 22 7.0004C21.4477 7.0004 21 7.44812 21 8.0004H23ZM21 12.0004C21 12.5527 21.4477 13.0004 22 13.0004C22.5523 13.0004 23 12.5527 23 12.0004H21ZM5 14.5004H6C6 13.9481 5.55229 13.5004 5 13.5004V14.5004ZM9.5 14.5004V13.5004C8.94772 13.5004 8.5 13.9481 8.5 14.5004H9.5ZM18.3133 3.29929L19.1266 2.71747V2.71747L18.3133 3.29929ZM15.8443 3.64475L15.3657 2.76674L15.8443 3.64475ZM17.6216 2.88853L17.5 3.88111L17.6216 2.88853ZM15.8443 16.356L16.3229 15.478L15.8443 16.356ZM17.6216 17.1123L17.5 16.1197L17.6216 17.1123ZM18.3133 16.7015L17.5 16.1197L18.3133 16.7015ZM5.00963 19.1964L6.00482 19.0984L5.00963 19.1964ZM6.80397 20.9908L6.90199 19.9956L6.80397 20.9908ZM2 11.5004L3 11.5004L2 11.5004ZM2.15224 13.2658L3.07612 12.8831L2.15224 13.2658ZM3.23463 14.3482L2.85195 15.272L3.23463 14.3482ZM7.69604 20.9908L7.59802 19.9956L7.69604 20.9908ZM9.49037 19.1964L8.49519 19.0984L9.49037 19.1964ZM3.63803 5.82738L4.09202 6.71839L3.63803 5.82738ZM2 10.3004L1 10.3004L2 10.3004ZM2.32698 7.13843L3.21799 7.59242L2.32698 7.13843ZM21 8.0004V12.0004H23V8.0004H21ZM6.8 6.5004H10.25V4.5004H6.8V6.5004ZM3 11.5004L3 10.3004L1 10.3004L1 11.5004L3 11.5004ZM6 18.7504V14.5004H4V18.7504H6ZM8.5 14.5004V18.7504H10.5V14.5004H8.5ZM10.25 13.5004H9.5V15.5004H10.25V13.5004ZM16.3229 15.478C14.6487 14.5654 12.2917 13.5004 10.25 13.5004V15.5004C11.7411 15.5004 13.7058 16.3292 15.3657 17.2341L16.3229 15.478ZM17.5 5.12668V14.8741H19.5V5.12668H17.5ZM10.25 6.5004C12.2917 6.5004 14.6487 5.43544 16.3229 4.52277L15.3657 2.76674C13.7058 3.67159 11.7411 4.5004 10.25 4.5004V6.5004ZM19.5 5.12668C19.5 4.62209 19.5008 4.18287 19.4735 3.84003C19.4484 3.5243 19.3906 3.08647 19.1266 2.71747L17.5 3.88111C17.4227 3.77307 17.4582 3.72679 17.4798 3.99844C17.4992 4.24299 17.5 4.58699 17.5 5.12668H19.5ZM16.3229 4.52277C16.824 4.24964 17.1492 4.07312 17.3895 3.96472C17.663 3.84132 17.6396 3.89821 17.5 3.88111L17.7431 1.89595C17.2851 1.83984 16.8593 2.00976 16.5669 2.14169C16.2413 2.28861 15.8372 2.50971 15.3657 2.76674L16.3229 4.52277ZM19.1266 2.71747C18.7906 2.24775 18.3164 1.96616 17.7431 1.89595L17.5 3.88111C17.5156 3.88302 17.5211 3.88506 17.5193 3.88446C17.5184 3.88419 17.5163 3.88344 17.5132 3.88203C17.51 3.88061 17.5064 3.87878 17.5027 3.87656C17.499 3.87434 17.4957 3.87209 17.4929 3.87001C17.4902 3.86793 17.4885 3.86641 17.4878 3.86581C17.4864 3.8645 17.4909 3.86835 17.5 3.88111L19.1266 2.71747ZM15.3657 17.2341C15.8372 17.4911 16.2413 17.7122 16.5669 17.8591C16.8593 17.991 17.2851 18.161 17.7431 18.1049L17.5 16.1197C17.6396 16.1026 17.663 16.1595 17.3895 16.0361C17.1492 15.9277 16.824 15.7512 16.3229 15.478L15.3657 17.2341ZM17.5 14.8741C17.5 15.4138 17.4992 15.7578 17.4798 16.0024C17.4582 16.274 17.4227 16.2277 17.5 16.1197L19.1266 17.2833C19.3906 16.9143 19.4484 16.4765 19.4735 16.1608C19.5008 15.8179 19.5 15.3787 19.5 14.8741H17.5ZM17.7431 18.1049C18.3164 18.0346 18.7906 17.753 19.1266 17.2833L17.5 16.1197C17.4909 16.1325 17.4864 16.1363 17.4878 16.135C17.4885 16.1344 17.4902 16.1329 17.4929 16.1308C17.4957 16.1287 17.499 16.1265 17.5027 16.1242C17.5064 16.122 17.51 16.1202 17.5132 16.1188C17.5163 16.1174 17.5184 16.1166 17.5193 16.1163C17.5211 16.1157 17.5156 16.1178 17.5 16.1197L17.7431 18.1049ZM4 18.7504C4 18.9588 3.99879 19.1355 4.01445 19.2945L6.00482 19.0984C6.00122 19.0618 6 19.0064 6 18.7504H4ZM7.25 20.0004C6.99404 20.0004 6.93855 19.9992 6.90199 19.9956L6.70595 21.986C6.86495 22.0016 7.04163 22.0004 7.25 22.0004V20.0004ZM4.01445 19.2945C4.15473 20.7188 5.28162 21.8457 6.70595 21.986L6.90199 19.9956C6.42721 19.9488 6.05158 19.5732 6.00482 19.0984L4.01445 19.2945ZM1 11.5004C1 11.9527 0.99946 12.3419 1.02135 12.6628C1.04386 12.9926 1.09336 13.3225 1.22836 13.6485L3.07612 12.8831C3.05889 12.8415 3.03227 12.7546 3.01671 12.5266C3.00054 12.2897 3 11.98 3 11.5004L1 11.5004ZM5 13.5004C4.52038 13.5004 4.21074 13.4999 3.97376 13.4837C3.74576 13.4681 3.65893 13.4415 3.61732 13.4243L2.85195 15.272C3.17788 15.407 3.50779 15.4565 3.83762 15.479C4.15847 15.5009 4.54774 15.5004 5 15.5004V13.5004ZM1.22836 13.6485C1.53285 14.3835 2.11687 14.9676 2.85195 15.272L3.61732 13.4243C3.37229 13.3228 3.17762 13.1281 3.07612 12.8831L1.22836 13.6485ZM7.25 22.0004C7.45837 22.0004 7.63506 22.0016 7.79405 21.986L7.59802 19.9956C7.56145 19.9992 7.50597 20.0004 7.25 20.0004V22.0004ZM8.5 18.7504C8.5 19.0064 8.49879 19.0618 8.49519 19.0984L10.4856 19.2945C10.5012 19.1355 10.5 18.9588 10.5 18.7504H8.5ZM7.79405 21.986C9.21838 21.8457 10.3453 20.7188 10.4856 19.2945L8.49519 19.0984C8.44843 19.5732 8.0728 19.9488 7.59802 19.9956L7.79405 21.986ZM6.8 4.5004C5.97642 4.5004 5.2986 4.49962 4.74817 4.54459C4.18608 4.59052 3.66937 4.68908 3.18404 4.93637L4.09202 6.71839C4.24842 6.6387 4.47262 6.57377 4.91104 6.53795C5.36113 6.50118 5.94342 6.5004 6.8 6.5004V4.5004ZM3 10.3004C3 9.44382 3.00078 8.86153 3.03755 8.41144C3.07337 7.97302 3.1383 7.74882 3.21799 7.59242L1.43597 6.68444C1.18868 7.16978 1.09012 7.68648 1.04419 8.24858C0.999221 8.799 1 9.47682 1 10.3004L3 10.3004ZM3.18404 4.93637C2.43139 5.31987 1.81947 5.93179 1.43597 6.68444L3.21799 7.59242C3.40973 7.21609 3.71569 6.91013 4.09202 6.71839L3.18404 4.93637Z" fill="#171717"/>
</svg>
