<svg width="24" height="24" viewBox="0 0 24 24" fill="none" xmlns="http://www.w3.org/2000/svg">
<path d="M11 20C11 20.5523 11.4477 21 12 21C12.5523 21 13 20.5523 13 20H11ZM12 4L12.7071 3.29289C12.3166 2.90237 11.6834 2.90237 11.2929 3.29289L12 4ZM5.29289 9.29289C4.90237 9.68342 4.90237 10.3166 5.29289 10.7071C5.68342 11.0976 6.31658 11.0976 6.70711 10.7071L5.29289 9.29289ZM17.2929 10.7071C17.6834 11.0976 18.3166 11.0976 18.7071 10.7071C19.0976 10.3166 19.0976 9.68342 18.7071 9.29289L17.2929 10.7071ZM13 20V4H11V20H13ZM6.70711 10.7071L12.7071 4.70711L11.2929 3.29289L5.29289 9.29289L6.70711 10.7071ZM11.2929 4.70711L17.2929 10.7071L18.7071 9.29289L12.7071 3.29289L11.2929 4.70711Z" fill="#171717"/>
</svg>
