<svg width="24" height="24" viewBox="0 0 24 24" fill="none" xmlns="http://www.w3.org/2000/svg">
<path d="M18.5 5.25581C18.5 4.70353 18.0523 4.25581 17.5 4.25581C16.9477 4.25581 16.5 4.70353 16.5 5.25581H18.5ZM11.1667 6.65116C11.1667 6.09888 10.719 5.65116 10.1667 5.65116C9.61438 5.65116 9.16667 6.09888 9.16667 6.65116H11.1667ZM16.5 5.25581V16.5H18.5V5.25581H16.5ZM7.5 16.5V5.66667H5.5V16.5H7.5ZM12.8333 5.66667V16.4457H14.8333V5.66667H12.8333ZM11.1667 16.4457V6.65116H9.16667V16.4457H11.1667ZM12 17.2791C11.5398 17.2791 11.1667 16.906 11.1667 16.4457H9.16667C9.16667 18.0105 10.4352 19.2791 12 19.2791V17.2791ZM12.8333 16.4457C12.8333 16.906 12.4602 17.2791 12 17.2791V19.2791C13.5648 19.2791 14.8333 18.0105 14.8333 16.4457H12.8333ZM10.1667 3C11.6394 3 12.8333 4.19391 12.8333 5.66667H14.8333C14.8333 3.08934 12.744 1 10.1667 1V3ZM7.5 5.66667C7.5 4.19391 8.69391 3 10.1667 3V1C7.58934 1 5.5 3.08934 5.5 5.66667H7.5ZM12 21C9.51472 21 7.5 18.9853 7.5 16.5H5.5C5.5 20.0899 8.41015 23 12 23V21ZM16.5 16.5C16.5 18.9853 14.4853 21 12 21V23C15.5899 23 18.5 20.0899 18.5 16.5H16.5Z" fill="#171717"/>
</svg>
