<svg width="24" height="24" viewBox="0 0 24 24" fill="none" xmlns="http://www.w3.org/2000/svg">
<path d="M8 15.0903C8 14.538 7.55228 14.0903 7 14.0903C6.44772 14.0903 6 14.538 6 15.0903H8ZM7 22H6C6 22.3318 6.1646 22.642 6.43937 22.8281C6.71414 23.0141 7.0633 23.0517 7.37139 22.9285L7 22ZM11.7029 20.1188L12.0743 21.0473H12.0743L11.7029 20.1188ZM12.2971 20.1188L11.9257 21.0473H11.9257L12.2971 20.1188ZM17 22L16.6286 22.9285C16.9367 23.0517 17.2859 23.0141 17.5606 22.8281C17.8354 22.642 18 22.3318 18 22H17ZM18 15.0903C18 14.538 17.5523 14.0903 17 14.0903C16.4477 14.0903 16 14.538 16 15.0903H18ZM11.9242 20.0443L12.0758 21.0327H12.0758L11.9242 20.0443ZM12.0758 20.0443L11.9242 21.0327H11.9242L12.0758 20.0443ZM18.5 9.5C18.5 13.0899 15.5899 16 12 16V18C16.6944 18 20.5 14.1944 20.5 9.5H18.5ZM12 16C8.41015 16 5.5 13.0899 5.5 9.5H3.5C3.5 14.1944 7.30558 18 12 18V16ZM5.5 9.5C5.5 5.91015 8.41015 3 12 3V1C7.30558 1 3.5 4.80558 3.5 9.5H5.5ZM12 3C15.5899 3 18.5 5.91015 18.5 9.5H20.5C20.5 4.80558 16.6944 1 12 1V3ZM6 15.0903V22H8V15.0903H6ZM7.37139 22.9285L12.0743 21.0473L11.3315 19.1904L6.62861 21.0715L7.37139 22.9285ZM11.9257 21.0473L16.6286 22.9285L17.3714 21.0715L12.6685 19.1904L11.9257 21.0473ZM18 22V15.0903H16V22H18ZM12.0743 21.0473C12.0882 21.0418 12.1001 21.037 12.1112 21.0326C12.1221 21.0282 12.1312 21.0246 12.139 21.0216C12.1468 21.0186 12.1525 21.0164 12.1568 21.0148C12.161 21.0132 12.163 21.0125 12.1633 21.0124C12.1641 21.0121 12.1551 21.0153 12.1395 21.0195C12.1315 21.0216 12.1219 21.024 12.1109 21.0263C12.0998 21.0287 12.0881 21.0308 12.0758 21.0327L11.7726 19.0559C11.5763 19.086 11.3986 19.1635 11.3315 19.1904L12.0743 21.0473ZM12.6685 19.1904C12.6014 19.1635 12.4237 19.086 12.2274 19.0559L11.9242 21.0327C11.9119 21.0308 11.9002 21.0287 11.8891 21.0263C11.8781 21.024 11.8685 21.0216 11.8605 21.0195C11.8449 21.0153 11.8358 21.0121 11.8367 21.0124C11.837 21.0125 11.839 21.0132 11.8432 21.0148C11.8475 21.0164 11.8532 21.0186 11.861 21.0216C11.8688 21.0246 11.8779 21.0282 11.8888 21.0326C11.8999 21.037 11.9118 21.0417 11.9257 21.0473L12.6685 19.1904ZM12.0758 21.0327C12.0256 21.0404 11.9744 21.0404 11.9242 21.0327L12.2274 19.0559C12.0767 19.0327 11.9233 19.0327 11.7726 19.0559L12.0758 21.0327Z" fill="#171717"/>
</svg>
