<svg width="24" height="24" viewBox="0 0 24 24" fill="none" xmlns="http://www.w3.org/2000/svg">
<path d="M2 8.2H3H2ZM2.21799 6.09202L3.10899 6.54601L2.21799 6.09202ZM5.2 5V4V5ZM3.09202 5.21799L2.63803 4.32698L3.09202 5.21799ZM5.2 19L5.2 18H5.2V19ZM3.09202 18.782L3.54601 17.891L3.09202 18.782ZM2 15.8H1H2ZM2.21799 17.908L1.32698 18.362L2.21799 17.908ZM21.782 17.908L20.891 17.454L21.782 17.908ZM18.8 19V20V19ZM20.908 18.782L20.454 17.891L20.908 18.782ZM21.782 6.09202L22.673 5.63803L21.782 6.09202ZM18.8 5V6V5ZM20.908 5.21799L20.454 6.10899L20.908 5.21799ZM14 10C14.5523 10 15 9.55228 15 9C15 8.44772 14.5523 8 14 8V10ZM10 14C9.44772 14 9 14.4477 9 15C9 15.5523 9.44772 16 10 16V14ZM13 8C13 7.44772 12.5523 7 12 7C11.4477 7 11 7.44772 11 8H13ZM11 9C11 9.55228 11.4477 10 12 10C12.5523 10 13 9.55228 13 9H11ZM13 15C13 14.4477 12.5523 14 12 14C11.4477 14 11 14.4477 11 15H13ZM11 16C11 16.5523 11.4477 17 12 17C12.5523 17 13 16.5523 13 16H11ZM18 11C17.4477 11 17 11.4477 17 12C17 12.5523 17.4477 13 18 13V11ZM18.01 13C18.5623 13 19.01 12.5523 19.01 12C19.01 11.4477 18.5623 11 18.01 11V13ZM6 11C5.44772 11 5 11.4477 5 12C5 12.5523 5.44772 13 6 13V11ZM6.01 13C6.56228 13 7.01 12.5523 7.01 12C7.01 11.4477 6.56228 11 6.01 11V13ZM21 8.2V15.8H23V8.2H21ZM18.8 18L5.2 18L5.2 20L18.8 20V18ZM3 15.8L3 8.2H1L1 15.8H3ZM5.2 6L18.8 6V4L5.2 4V6ZM3 8.2C3 7.62345 3.00078 7.25117 3.02393 6.96784C3.04612 6.69617 3.0838 6.59545 3.10899 6.54601L1.32698 5.63803C1.13419 6.01641 1.06287 6.40963 1.03057 6.80497C0.999223 7.18864 1 7.65645 1 8.2H3ZM5.2 4C4.65645 4 4.18864 3.99922 3.80497 4.03057C3.40963 4.06287 3.01641 4.13419 2.63803 4.32698L3.54601 6.10899C3.59545 6.0838 3.69617 6.04612 3.96784 6.02393C4.25117 6.00078 4.62345 6 5.2 6V4ZM3.10899 6.54601C3.20487 6.35785 3.35785 6.20487 3.54601 6.10899L2.63803 4.32698C2.07354 4.6146 1.6146 5.07354 1.32698 5.63803L3.10899 6.54601ZM5.2 18C4.62345 18 4.25117 17.9992 3.96784 17.9761C3.69617 17.9539 3.59545 17.9162 3.54601 17.891L2.63803 19.673C3.01641 19.8658 3.40963 19.9371 3.80497 19.9694C4.18864 20.0008 4.65645 20 5.2 20V18ZM1 15.8C1 16.3435 0.999222 16.8114 1.03057 17.195C1.06287 17.5904 1.13419 17.9836 1.32698 18.362L3.10899 17.454C3.0838 17.4045 3.04612 17.3038 3.02393 17.0322C3.00078 16.7488 3 16.3766 3 15.8H1ZM3.54601 17.891C3.35785 17.7951 3.20487 17.6422 3.10899 17.454L1.32698 18.362C1.6146 18.9265 2.07354 19.3854 2.63803 19.673L3.54601 17.891ZM21 15.8C21 16.3766 20.9992 16.7488 20.9761 17.0322C20.9539 17.3038 20.9162 17.4045 20.891 17.454L22.673 18.362C22.8658 17.9836 22.9371 17.5904 22.9694 17.195C23.0008 16.8114 23 16.3436 23 15.8H21ZM18.8 20C19.3436 20 19.8114 20.0008 20.195 19.9694C20.5904 19.9371 20.9836 19.8658 21.362 19.673L20.454 17.891C20.4045 17.9162 20.3038 17.9539 20.0322 17.9761C19.7488 17.9992 19.3766 18 18.8 18V20ZM20.891 17.454C20.7951 17.6422 20.6422 17.7951 20.454 17.891L21.362 19.673C21.9265 19.3854 22.3854 18.9265 22.673 18.362L20.891 17.454ZM23 8.2C23 7.65645 23.0008 7.18865 22.9694 6.80497C22.9371 6.40963 22.8658 6.01641 22.673 5.63803L20.891 6.54601C20.9162 6.59545 20.9539 6.69617 20.9761 6.96784C20.9992 7.25117 21 7.62345 21 8.2H23ZM18.8 6C19.3766 6 19.7488 6.00078 20.0322 6.02393C20.3038 6.04612 20.4045 6.0838 20.454 6.10899L21.362 4.32698C20.9836 4.13419 20.5904 4.06287 20.195 4.03057C19.8114 3.99922 19.3436 4 18.8 4V6ZM22.673 5.63803C22.3854 5.07354 21.9265 4.6146 21.362 4.32698L20.454 6.10899C20.6422 6.20487 20.7951 6.35785 20.891 6.54601L22.673 5.63803ZM14 8H11.5V10H14V8ZM11.5 13H12.5V11H11.5V13ZM12.5 14H10V16H12.5V14ZM13 13.5C13 13.7761 12.7761 14 12.5 14V16C13.8807 16 15 14.8807 15 13.5H13ZM12.5 13C12.7761 13 13 13.2239 13 13.5H15C15 12.1193 13.8807 11 12.5 11V13ZM9 10.5C9 11.8807 10.1193 13 11.5 13V11C11.2239 11 11 10.7761 11 10.5H9ZM11.5 8C10.1193 8 9 9.11929 9 10.5H11C11 10.2239 11.2239 10 11.5 10V8ZM11 8V9H13V8H11ZM11 15V16H13V15H11ZM18 13H18.01V11H18V13ZM17.5 12C17.5 11.7239 17.7239 11.5 18 11.5V13.5C18.8284 13.5 19.5 12.8284 19.5 12H17.5ZM18 11.5C18.2761 11.5 18.5 11.7239 18.5 12H16.5C16.5 12.8284 17.1716 13.5 18 13.5V11.5ZM18.5 12C18.5 12.2761 18.2761 12.5 18 12.5V10.5C17.1716 10.5 16.5 11.1716 16.5 12H18.5ZM18 12.5C17.7239 12.5 17.5 12.2761 17.5 12H19.5C19.5 11.1716 18.8284 10.5 18 10.5V12.5ZM6 13H6.01V11H6V13ZM5.5 12C5.5 11.7239 5.72386 11.5 6 11.5V13.5C6.82843 13.5 7.5 12.8284 7.5 12H5.5ZM6 11.5C6.27614 11.5 6.5 11.7239 6.5 12H4.5C4.5 12.8284 5.17157 13.5 6 13.5V11.5ZM6.5 12C6.5 12.2761 6.27614 12.5 6 12.5V10.5C5.17157 10.5 4.5 11.1716 4.5 12H6.5ZM6 12.5C5.72386 12.5 5.5 12.2761 5.5 12H7.5C7.5 11.1716 6.82843 10.5 6 10.5V12.5Z" fill="#171717"/>
</svg>
