<svg width="24" height="24" viewBox="0 0 24 24" fill="none" xmlns="http://www.w3.org/2000/svg">
<path d="M4.15141 16.0405L4.79159 16.8087L4.79159 16.8087L4.15141 16.0405ZM7.84859 12.9595L7.20841 12.1913V12.1913L7.84859 12.9595ZM16.1514 12.9595L16.7916 12.1913L16.1514 12.9595ZM19.8486 16.0405L19.2084 16.8087V16.8087L19.8486 16.0405ZM10 6C10 5.44772 9.55228 5 9 5C8.44772 5 8 5.44772 8 6H10ZM16 6C16 5.44772 15.5523 5 15 5C14.4477 5 14 5.44772 14 6H16ZM15.3644 12.2143L16.1822 11.6388L16.1822 11.6388L15.3644 12.2143ZM15.0687 11.5829L14.103 11.8427L14.103 11.8427L15.0687 11.5829ZM8.63557 12.2143L9.45336 12.7898L9.45336 12.7898L8.63557 12.2143ZM8.93132 11.5829L7.96566 11.3231L7.96566 11.3231L8.93132 11.5829ZM4.09202 21.782L4.54601 20.891H4.54601L4.09202 21.782ZM3.21799 20.908L4.10899 20.454H4.10899L3.21799 20.908ZM20.782 20.908L19.891 20.454L19.891 20.454L20.782 20.908ZM19.908 21.782L20.362 22.673L19.908 21.782ZM20.9313 17.4171L21.897 17.1573V17.1573L20.9313 17.4171ZM20.6356 16.7857L19.8178 17.3612L20.6356 16.7857ZM3.06868 17.4171L4.03434 17.6769L4.03434 17.6769L3.06868 17.4171ZM3.36443 16.7857L2.54664 16.2102L2.54664 16.2102L3.36443 16.7857ZM7.773 5.9455L8.22699 5.0545L7.773 5.9455ZM7.5545 5.727L8.4455 5.273L7.5545 5.727ZM16.4455 5.727L15.5545 5.273L16.4455 5.727ZM16.227 5.9455L15.773 5.0545L16.227 5.9455ZM16.227 2.0545L15.773 2.9455L16.227 2.0545ZM16.4455 2.273L15.5545 2.727L16.4455 2.273ZM7.773 2.0545L8.22699 2.9455L7.773 2.0545ZM7.5545 2.273L8.4455 2.727L7.5545 2.273ZM19.3902 21.9616L19.5853 22.9424H19.5853L19.3902 21.9616ZM20.9616 20.3902L21.9424 20.5853V20.5853L20.9616 20.3902ZM3.03843 20.3902L4.01921 20.1951L3.03843 20.3902ZM4.60982 21.9616L4.41473 22.9424H4.41473L4.60982 21.9616ZM19.3902 17.0384L19.1951 18.0192L19.3902 17.0384ZM20.9616 18.6098L21.9424 18.4147V18.4147L20.9616 18.6098ZM4.60982 17.0384L4.80491 18.0192H4.80491L4.60982 17.0384ZM3.03843 18.6098L4.01921 18.8049L3.03843 18.6098ZM20 18.4988V18.8H22V18.4988H20ZM17.8 21H6.2V23H17.8V21ZM4 18.8V18.4988H2V18.8H4ZM4.79159 16.8087L8.48878 13.7277L7.20841 12.1913L3.51123 15.2723L4.79159 16.8087ZM15.5112 13.7277L19.2084 16.8087L20.4888 15.2723L16.7916 12.1913L15.5112 13.7277ZM10 10.5012V6H8V10.5012H10ZM14 6V10.5012H16V6H14ZM16.7916 12.1913C16.3268 11.8039 16.2405 11.7216 16.1822 11.6388L14.5466 12.7898C14.7926 13.1394 15.1296 13.4097 15.5112 13.7277L16.7916 12.1913ZM14 10.5012C14 10.998 13.992 11.4299 14.103 11.8427L16.0343 11.3231C16.008 11.2253 16 11.1062 16 10.5012H14ZM16.1822 11.6388C16.1148 11.543 16.0648 11.4361 16.0343 11.3231L14.103 11.8427C14.1943 12.1819 14.3444 12.5025 14.5466 12.7898L16.1822 11.6388ZM8.48878 13.7277C8.87043 13.4097 9.20736 13.1394 9.45336 12.7898L7.81779 11.6388C7.75953 11.7216 7.67322 11.8039 7.20841 12.1913L8.48878 13.7277ZM8 10.5012C8 11.1062 7.99196 11.2253 7.96566 11.3231L9.89699 11.8427C10.008 11.4299 10 10.998 10 10.5012H8ZM9.45336 12.7898C9.65555 12.5025 9.80571 12.1819 9.89699 11.8427L7.96566 11.3231C7.93524 11.4361 7.88519 11.543 7.81779 11.6388L9.45336 12.7898ZM6.2 21C5.62345 21 5.25117 20.9992 4.96784 20.9761C4.69617 20.9539 4.59545 20.9162 4.54601 20.891L3.63803 22.673C4.01641 22.8658 4.40963 22.9371 4.80497 22.9694C5.18864 23.0008 5.65645 23 6.2 23V21ZM2 18.8C2 19.3436 1.99922 19.8114 2.03057 20.195C2.06287 20.5904 2.13419 20.9836 2.32698 21.362L4.10899 20.454C4.0838 20.4045 4.04612 20.3038 4.02393 20.0322C4.00078 19.7488 4 19.3766 4 18.8H2ZM4.54601 20.891C4.35785 20.7951 4.20487 20.6422 4.10899 20.454L2.32698 21.362C2.6146 21.9265 3.07354 22.3854 3.63803 22.673L4.54601 20.891ZM20 18.8C20 19.3766 19.9992 19.7488 19.9761 20.0322C19.9539 20.3038 19.9162 20.4045 19.891 20.454L21.673 21.362C21.8658 20.9836 21.9371 20.5904 21.9694 20.195C22.0008 19.8114 22 19.3436 22 18.8H20ZM17.8 23C18.3436 23 18.8114 23.0008 19.195 22.9694C19.5904 22.9371 19.9836 22.8658 20.362 22.673L19.454 20.891C19.4045 20.9162 19.3038 20.9539 19.0322 20.9761C18.7488 20.9992 18.3766 21 17.8 21V23ZM19.891 20.454C19.7951 20.6422 19.6422 20.7951 19.454 20.891L20.362 22.673C20.9265 22.3854 21.3854 21.9265 21.673 21.362L19.891 20.454ZM22 18.4988C22 18.002 22.008 17.5701 21.897 17.1573L19.9657 17.6769C19.992 17.7747 20 17.8938 20 18.4988H22ZM19.2084 16.8087C19.6732 17.1961 19.7595 17.2784 19.8178 17.3612L21.4534 16.2102C21.2074 15.8606 20.8704 15.5903 20.4888 15.2723L19.2084 16.8087ZM21.897 17.1573C21.8057 16.8181 21.6556 16.4975 21.4534 16.2102L19.8178 17.3612C19.8852 17.457 19.9352 17.5639 19.9657 17.677L21.897 17.1573ZM4 18.4988C4 17.8938 4.00804 17.7747 4.03434 17.6769L2.10301 17.1573C1.99196 17.5701 2 18.002 2 18.4988H4ZM3.51123 15.2723C3.12957 15.5903 2.79265 15.8606 2.54664 16.2102L4.18221 17.3612C4.24047 17.2784 4.32678 17.1961 4.79159 16.8087L3.51123 15.2723ZM4.03434 17.6769C4.06476 17.5639 4.11482 17.457 4.18221 17.3612L2.54664 16.2102C2.34444 16.4975 2.19429 16.8181 2.10301 17.1573L4.03434 17.6769ZM8.3 3H15.7V1H8.3V3ZM15.5 2.8V5.2H17.5V2.8H15.5ZM15.7 5H8.3V7H15.7V5ZM8.5 5.2V2.8H6.5V5.2H8.5ZM8.3 5C8.22771 5 8.17499 4.99997 8.13028 4.99927C8.08554 4.99857 8.06319 4.99734 8.05303 4.99651C8.04326 4.99571 8.05946 4.99637 8.09032 5.00364C8.12435 5.01165 8.17267 5.02682 8.22699 5.0545L7.31901 6.83651C7.53696 6.94756 7.74495 6.978 7.89017 6.98987C8.02371 7.00078 8.17649 7 8.3 7V5ZM6.5 5.2C6.5 5.32351 6.49922 5.47629 6.51013 5.60983C6.522 5.75505 6.55244 5.96304 6.66349 6.18099L8.4455 5.273C8.47318 5.32733 8.48835 5.37565 8.49636 5.40968C8.50363 5.44054 8.50429 5.45674 8.50349 5.44697C8.50266 5.43681 8.50143 5.41446 8.50073 5.36972C8.50003 5.32501 8.5 5.27229 8.5 5.2H6.5ZM8.22699 5.0545C8.32108 5.10243 8.39757 5.17892 8.4455 5.273L6.66349 6.18099C6.8073 6.46323 7.03677 6.6927 7.31901 6.83651L8.22699 5.0545ZM15.5 5.2C15.5 5.27229 15.5 5.32501 15.4993 5.36972C15.4986 5.41446 15.4973 5.43681 15.4965 5.44697C15.4957 5.45674 15.4964 5.44054 15.5036 5.40968C15.5117 5.37565 15.5268 5.32733 15.5545 5.273L17.3365 6.18099C17.4476 5.96304 17.478 5.75505 17.4899 5.60983C17.5008 5.47629 17.5 5.32351 17.5 5.2H15.5ZM15.7 7C15.8235 7 15.9763 7.00078 16.1098 6.98987C16.255 6.978 16.463 6.94756 16.681 6.83651L15.773 5.0545C15.8273 5.02682 15.8757 5.01165 15.9097 5.00364C15.9405 4.99637 15.9567 4.99571 15.947 4.99651C15.9368 4.99734 15.9145 4.99857 15.8697 4.99927C15.825 4.99997 15.7723 5 15.7 5V7ZM15.5545 5.273C15.6024 5.17892 15.6789 5.10243 15.773 5.0545L16.681 6.83651C16.9632 6.6927 17.1927 6.46323 17.3365 6.18099L15.5545 5.273ZM15.7 3C15.7723 3 15.825 3.00003 15.8697 3.00073C15.9145 3.00143 15.9368 3.00266 15.947 3.00349C15.9567 3.00429 15.9405 3.00363 15.9097 2.99636C15.8757 2.98835 15.8273 2.97318 15.773 2.9455L16.681 1.16349C16.463 1.05244 16.255 1.022 16.1098 1.01013C15.9763 0.999222 15.8235 1 15.7 1V3ZM17.5 2.8C17.5 2.67649 17.5008 2.52371 17.4899 2.39017C17.478 2.24495 17.4476 2.03696 17.3365 1.81901L15.5545 2.727C15.5268 2.67267 15.5117 2.62435 15.5036 2.59032C15.4964 2.55946 15.4957 2.54326 15.4965 2.55303C15.4973 2.56319 15.4986 2.58554 15.4993 2.63028C15.5 2.67499 15.5 2.72771 15.5 2.8H17.5ZM15.773 2.9455C15.6789 2.89757 15.6024 2.82108 15.5545 2.727L17.3365 1.81901C17.1927 1.53677 16.9632 1.3073 16.681 1.16349L15.773 2.9455ZM8.3 1C8.17649 1 8.02371 0.999222 7.89017 1.01013C7.74495 1.022 7.53696 1.05244 7.31901 1.16349L8.22699 2.9455C8.17267 2.97318 8.12435 2.98835 8.09032 2.99636C8.05946 3.00363 8.04326 3.00429 8.05303 3.00349C8.06319 3.00266 8.08554 3.00143 8.13028 3.00073C8.17499 3.00003 8.22771 3 8.3 3V1ZM8.5 2.8C8.5 2.72771 8.50003 2.67499 8.50073 2.63028C8.50143 2.58554 8.50266 2.56319 8.50349 2.55303C8.50429 2.54326 8.50363 2.55946 8.49636 2.59032C8.48835 2.62435 8.47318 2.67267 8.4455 2.727L6.66349 1.81901C6.55244 2.03696 6.522 2.24495 6.51013 2.39017C6.49922 2.52371 6.5 2.67649 6.5 2.8H8.5ZM7.31901 1.16349C7.03677 1.3073 6.8073 1.53677 6.66349 1.81901L8.4455 2.727C8.39757 2.82108 8.32108 2.89757 8.22699 2.9455L7.31901 1.16349ZM5.5 18H18.5V16H5.5V18ZM5.5 23H18.5V21H5.5V23ZM18.5 23C18.9167 23 19.2711 23.0048 19.5853 22.9424L19.1951 20.9808C19.1228 20.9952 19.0126 21 18.5 21V23ZM20 19.5C20 20.0126 19.9952 20.1228 19.9808 20.1951L21.9424 20.5853C22.0048 20.2711 22 19.9167 22 19.5H20ZM19.5853 22.9424C20.7753 22.7056 21.7056 21.7753 21.9424 20.5853L19.9808 20.1951C19.9019 20.5918 19.5918 20.9019 19.1951 20.9808L19.5853 22.9424ZM2 19.5C2 19.9167 1.99516 20.2711 2.05764 20.5853L4.01921 20.1951C4.00484 20.1228 4 20.0126 4 19.5H2ZM5.5 21C4.98741 21 4.87716 20.9952 4.80491 20.9808L4.41473 22.9424C4.72888 23.0048 5.08328 23 5.5 23V21ZM2.05764 20.5853C2.29436 21.7753 3.22466 22.7056 4.41473 22.9424L4.80491 20.9808C4.40822 20.9019 4.09812 20.5918 4.01921 20.1951L2.05764 20.5853ZM18.5 18C19.0126 18 19.1228 18.0048 19.1951 18.0192L19.5853 16.0576C19.2711 15.9952 18.9167 16 18.5 16V18ZM22 19.5C22 19.0833 22.0048 18.7289 21.9424 18.4147L19.9808 18.8049C19.9952 18.8772 20 18.9874 20 19.5H22ZM19.1951 18.0192C19.5918 18.0981 19.9019 18.4082 19.9808 18.8049L21.9424 18.4147C21.7056 17.2247 20.7753 16.2944 19.5853 16.0576L19.1951 18.0192ZM5.5 16C5.08328 16 4.72888 15.9952 4.41473 16.0576L4.80491 18.0192C4.87716 18.0048 4.98741 18 5.5 18V16ZM4 19.5C4 18.9874 4.00484 18.8772 4.01921 18.8049L2.05764 18.4147C1.99516 18.7289 2 19.0833 2 19.5H4ZM4.41473 16.0576C3.22466 16.2944 2.29436 17.2247 2.05764 18.4147L4.01921 18.8049C4.09812 18.4082 4.40822 18.0981 4.80491 18.0192L4.41473 16.0576Z" fill="#171717"/>
</svg>
