<svg width="24" height="24" viewBox="0 0 24 24" fill="none" xmlns="http://www.w3.org/2000/svg">
<path d="M14.7111 5.85993H19.9512V7.11357H14.7111V5.85993ZM9.46041 10.8201C10.6188 10.2736 11.2255 9.44212 11.2255 8.1574C11.2255 5.61646 9.30807 5 7.09381 5H1V17.7539H7.26454C9.61276 17.7539 11.8165 16.6402 11.8165 14.05C11.8165 12.4493 11.0495 11.2656 9.46041 10.8201ZM3.84203 7.17573H6.50807C7.53508 7.17573 8.45704 7.45806 8.45704 8.63399C8.45704 9.71668 7.73996 10.1518 6.72345 10.1518H3.84203V7.17573ZM6.8758 15.5886H3.8394V12.0763H6.93621C8.18649 12.0763 8.97711 12.5918 8.97711 13.8972C8.97711 15.1819 8.03415 15.5886 6.8758 15.5886ZM22 13.2704C22 10.5378 20.3794 8.26101 17.448 8.26101C14.5981 8.26101 12.6597 10.3772 12.6597 13.1512C12.6597 16.0263 14.4957 18 17.448 18C19.6833 18 21.1306 17.008 21.8266 14.8918H19.5598C19.3129 15.6818 18.3096 16.0962 17.5295 16.0962C16.0218 16.0962 15.2338 15.2259 15.2338 13.747H21.9816C21.9895 13.5941 22 13.4336 22 13.2704ZM15.2338 12.1462C15.3152 10.9315 16.1373 10.1725 17.3666 10.1725C18.6589 10.1725 19.3051 10.9211 19.418 12.1462H15.2338Z" fill="white"/>
</svg>
