<svg width="24" height="24" viewBox="0 0 24 24" fill="none" xmlns="http://www.w3.org/2000/svg">
<path d="M10 8C10.5523 8 11 7.55229 11 7C11 6.44772 10.5523 6 10 6V8ZM3 6C2.44772 6 2 6.44772 2 7C2 7.55228 2.44772 8 3 8L3 6ZM21 8C21.5523 8 22 7.55229 22 7C22 6.44772 21.5523 6 21 6V8ZM14 6C13.4477 6 13 6.44772 13 7C13 7.55228 13.4477 8 14 8V6ZM14.2493 6.28352C13.7144 6.14585 13.1692 6.46784 13.0316 7.00269C12.8939 7.53755 13.2159 8.08273 13.7507 8.22039L14.2493 6.28352ZM19 14.9999C19 15.5522 19.4477 15.9999 20 15.9999C20.5523 15.9999 21 15.5522 21 14.9999H19ZM3 14.9999C3 15.5522 3.44772 15.9999 4 15.9999C4.55228 15.9999 5 15.5522 5 14.9999H3ZM10.2493 8.22039C10.7841 8.08273 11.1061 7.53755 10.9684 7.00269C10.8308 6.46784 10.2856 6.14585 9.75074 6.28352L10.2493 8.22039ZM2.54601 18.891L3 18L2.54601 18.891ZM2.10899 18.454L3 18L2.10899 18.454ZM5.89101 18.454L5 18L5.89101 18.454ZM5.45399 18.891L5 18L5.45399 18.891ZM5.45399 15.109L5 16L5.45399 15.109ZM5.89101 15.546L5 16L5.89101 15.546ZM2.54601 15.109L3 16L2.54601 15.109ZM2.10899 15.546L3 16L2.10899 15.546ZM10.546 8.89101L11 8L10.546 8.89101ZM10.109 8.45399L11 8L10.109 8.45399ZM13.891 8.45399L13 8L13.891 8.45399ZM13.454 8.89101L13 8L13.454 8.89101ZM13.454 5.10899L13 6L13.454 5.10899ZM13.891 5.54601L13 6L13.891 5.54601ZM10.546 5.10899L11 6L10.546 5.10899ZM10.109 5.54601L11 6L10.109 5.54601ZM18.546 18.891L19 18L18.546 18.891ZM18.109 18.454L19 18L18.109 18.454ZM21.891 18.454L21 18L21.891 18.454ZM21.454 18.891L21 18L21.454 18.891ZM21.454 15.109L21 16L21.454 15.109ZM21.891 15.546L21 16L21.891 15.546ZM18.546 15.109L19 16L18.546 15.109ZM18.109 15.546L19 16L18.109 15.546ZM10 6L3 6L3 8L10 8V6ZM21 6L14 6V8L21 8V6ZM13.7507 8.22039C16.7701 8.99752 19 11.7396 19 14.9999H21C21 10.8049 18.1308 7.28256 14.2493 6.28352L13.7507 8.22039ZM5 14.9999C5 11.7396 7.2299 8.99752 10.2493 8.22039L9.75074 6.28352C5.8692 7.28256 3 10.8049 3 14.9999H5ZM3.6 16H4.4V14H3.6V16ZM5 16.6V17.4H7V16.6H5ZM4.4 18H3.6V20H4.4V18ZM3 17.4V16.6H1V17.4H3ZM3.6 18C3.30347 18 3.14122 17.9992 3.02463 17.9897C2.91972 17.9811 2.94249 17.9707 3 18L2.09202 19.782C2.36344 19.9203 2.63318 19.9644 2.86177 19.9831C3.07869 20.0008 3.33647 20 3.6 20V18ZM1 17.4C1 17.6635 0.999222 17.9213 1.01695 18.1382C1.03562 18.3668 1.07969 18.6366 1.21799 18.908L3 18C3.0293 18.0575 3.01887 18.0803 3.0103 17.9754C3.00078 17.8588 3 17.6965 3 17.4H1ZM3 18L1.21799 18.908C1.40973 19.2843 1.7157 19.5903 2.09202 19.782L3 18ZM5 17.4C5 17.6965 4.99922 17.8588 4.9897 17.9754C4.98113 18.0803 4.9707 18.0575 5 18L6.78201 18.908C6.92031 18.6366 6.96438 18.3668 6.98305 18.1382C7.00078 17.9213 7 17.6635 7 17.4H5ZM4.4 20C4.66353 20 4.92131 20.0008 5.13823 19.9831C5.36682 19.9644 5.63656 19.9203 5.90798 19.782L5 18C5.05751 17.9707 5.08028 17.9811 4.97537 17.9897C4.85878 17.9992 4.69653 18 4.4 18V20ZM5 18L5.90798 19.782C6.2843 19.5903 6.59027 19.2843 6.78201 18.908L5 18ZM4.4 16C4.69653 16 4.85878 16.0008 4.97537 16.0103C5.08028 16.0189 5.05751 16.0293 5 16L5.90798 14.218C5.63656 14.0797 5.36682 14.0356 5.13823 14.0169C4.92131 13.9992 4.66353 14 4.4 14V16ZM7 16.6C7 16.3365 7.00078 16.0787 6.98305 15.8618C6.96438 15.6332 6.92031 15.3634 6.78201 15.092L5 16C4.9707 15.9425 4.98113 15.9197 4.9897 16.0246C4.99922 16.1412 5 16.3035 5 16.6H7ZM5 16L6.78201 15.092C6.59027 14.7157 6.2843 14.4097 5.90798 14.218L5 16ZM3.6 14C3.33647 14 3.07869 13.9992 2.86177 14.0169C2.63318 14.0356 2.36344 14.0797 2.09202 14.218L3 16C2.94249 16.0293 2.91972 16.0189 3.02463 16.0103C3.14122 16.0008 3.30347 16 3.6 16V14ZM3 16.6C3 16.3035 3.00078 16.1412 3.0103 16.0246C3.01887 15.9197 3.0293 15.9425 3 16L1.21799 15.092C1.07969 15.3634 1.03562 15.6332 1.01695 15.8618C0.999222 16.0787 1 16.3365 1 16.6H3ZM2.09202 14.218C1.7157 14.4097 1.40973 14.7157 1.21799 15.092L3 16L2.09202 14.218ZM11.6 6H12.4V4H11.6V6ZM13 6.6V7.4H15V6.6H13ZM12.4 8H11.6V10H12.4V8ZM11 7.4V6.6H9V7.4H11ZM11.6 8C11.3035 8 11.1412 7.99922 11.0246 7.9897C10.9197 7.98113 10.9425 7.9707 11 8L10.092 9.78201C10.3634 9.92031 10.6332 9.96438 10.8618 9.98305C11.0787 10.0008 11.3365 10 11.6 10V8ZM9 7.4C9 7.66353 8.99922 7.92131 9.01695 8.13823C9.03562 8.36682 9.07969 8.63656 9.21799 8.90798L11 8C11.0293 8.05751 11.0189 8.08028 11.0103 7.97537C11.0008 7.85878 11 7.69653 11 7.4H9ZM11 8L9.21799 8.90798C9.40973 9.2843 9.71569 9.59027 10.092 9.78201L11 8ZM13 7.4C13 7.69653 12.9992 7.85878 12.9897 7.97537C12.9811 8.08028 12.9707 8.05751 13 8L14.782 8.90798C14.9203 8.63656 14.9644 8.36682 14.9831 8.13823C15.0008 7.92131 15 7.66353 15 7.4H13ZM12.4 10C12.6635 10 12.9213 10.0008 13.1382 9.98305C13.3668 9.96438 13.6366 9.92031 13.908 9.78201L13 8C13.0575 7.9707 13.0803 7.98113 12.9754 7.9897C12.8588 7.99922 12.6965 8 12.4 8V10ZM13 8L13.908 9.78201C14.2843 9.59027 14.5903 9.2843 14.782 8.90798L13 8ZM12.4 6C12.6965 6 12.8588 6.00078 12.9754 6.0103C13.0803 6.01887 13.0575 6.0293 13 6L13.908 4.21799C13.6366 4.07969 13.3668 4.03562 13.1382 4.01695C12.9213 3.99922 12.6635 4 12.4 4V6ZM15 6.6C15 6.33647 15.0008 6.07869 14.9831 5.86177C14.9644 5.63318 14.9203 5.36344 14.782 5.09202L13 6C12.9707 5.94249 12.9811 5.91972 12.9897 6.02463C12.9992 6.14122 13 6.30347 13 6.6H15ZM13 6L14.782 5.09202C14.5903 4.7157 14.2843 4.40973 13.908 4.21799L13 6ZM11.6 4C11.3365 4 11.0787 3.99922 10.8618 4.01695C10.6332 4.03562 10.3634 4.07969 10.092 4.21799L11 6C10.9425 6.0293 10.9197 6.01887 11.0246 6.0103C11.1412 6.00078 11.3035 6 11.6 6V4ZM11 6.6C11 6.30347 11.0008 6.14122 11.0103 6.02463C11.0189 5.91972 11.0293 5.94249 11 6L9.21799 5.09202C9.07969 5.36344 9.03562 5.63318 9.01695 5.86177C8.99922 6.07869 9 6.33647 9 6.6H11ZM10.092 4.21799C9.71569 4.40973 9.40973 4.7157 9.21799 5.09202L11 6L10.092 4.21799ZM19.6 16H20.4V14H19.6V16ZM21 16.6V17.4H23V16.6H21ZM20.4 18H19.6V20H20.4V18ZM19 17.4V16.6H17V17.4H19ZM19.6 18C19.3035 18 19.1412 17.9992 19.0246 17.9897C18.9197 17.9811 18.9425 17.9707 19 18L18.092 19.782C18.3634 19.9203 18.6332 19.9644 18.8618 19.9831C19.0787 20.0008 19.3365 20 19.6 20V18ZM17 17.4C17 17.6635 16.9992 17.9213 17.0169 18.1382C17.0356 18.3668 17.0797 18.6366 17.218 18.908L19 18C19.0293 18.0575 19.0189 18.0803 19.0103 17.9754C19.0008 17.8588 19 17.6965 19 17.4H17ZM19 18L17.218 18.908C17.4097 19.2843 17.7157 19.5903 18.092 19.782L19 18ZM21 17.4C21 17.6965 20.9992 17.8588 20.9897 17.9754C20.9811 18.0803 20.9707 18.0575 21 18L22.782 18.908C22.9203 18.6366 22.9644 18.3668 22.9831 18.1382C23.0008 17.9213 23 17.6635 23 17.4H21ZM20.4 20C20.6635 20 20.9213 20.0008 21.1382 19.9831C21.3668 19.9644 21.6366 19.9203 21.908 19.782L21 18C21.0575 17.9707 21.0803 17.9811 20.9754 17.9897C20.8588 17.9992 20.6965 18 20.4 18V20ZM21 18L21.908 19.782C22.2843 19.5903 22.5903 19.2843 22.782 18.908L21 18ZM20.4 16C20.6965 16 20.8588 16.0008 20.9754 16.0103C21.0803 16.0189 21.0575 16.0293 21 16L21.908 14.218C21.6366 14.0797 21.3668 14.0356 21.1382 14.0169C20.9213 13.9992 20.6635 14 20.4 14V16ZM23 16.6C23 16.3365 23.0008 16.0787 22.9831 15.8618C22.9644 15.6332 22.9203 15.3634 22.782 15.092L21 16C20.9707 15.9425 20.9811 15.9197 20.9897 16.0246C20.9992 16.1412 21 16.3035 21 16.6H23ZM21 16L22.782 15.092C22.5903 14.7157 22.2843 14.4097 21.908 14.218L21 16ZM19.6 14C19.3365 14 19.0787 13.9992 18.8618 14.0169C18.6332 14.0356 18.3634 14.0797 18.092 14.218L19 16C18.9425 16.0293 18.9197 16.0189 19.0246 16.0103C19.1412 16.0008 19.3035 16 19.6 16V14ZM19 16.6C19 16.3035 19.0008 16.1412 19.0103 16.0246C19.0189 15.9197 19.0293 15.9425 19 16L17.218 15.092C17.0797 15.3634 17.0356 15.6332 17.0169 15.8618C16.9992 16.0787 17 16.3365 17 16.6H19ZM18.092 14.218C17.7157 14.4097 17.4097 14.7157 17.218 15.092L19 16L18.092 14.218ZM21 7V9C22.1046 9 23 8.10457 23 7H21ZM21 7H19C19 8.10457 19.8954 9 21 9V7ZM21 7V5C19.8954 5 19 5.89543 19 7H21ZM21 7H23C23 5.89543 22.1046 5 21 5V7ZM3 7V9C4.10457 9 5 8.10457 5 7H3ZM3 7H1C1 8.10457 1.89543 9 3 9V7ZM3 7V5C1.89543 5 1 5.89543 1 7H3ZM3 7H5C5 5.89543 4.10457 5 3 5V7Z" fill="#171717"/>
</svg>
