<svg width="36" height="36" viewBox="0 0 36 36" fill="none" xmlns="http://www.w3.org/2000/svg">
<g id="Book mark/Outlined/Special/Quote">
<path id="Icon" d="M1.67577 16.5624C2.53028 11.4336 8.38634 8.22053 12.6264 7.51075C12.7409 7.49172 12.8584 7.49803 12.9699 7.5292C13.0814 7.56036 13.1838 7.61554 13.2693 7.69046C13.3547 7.76537 13.4208 7.858 13.4625 7.96116C13.5042 8.06431 13.5203 8.17521 13.5096 8.28526L13.3584 9.98672C13.3472 10.1409 13.2829 10.2873 13.1755 10.4032C13.068 10.5191 12.9234 10.5982 12.764 10.6282C8.19275 11.3653 5.47268 17.8806 8.2714 17.1003C11.179 16.2913 15.3623 17.4376 16.0717 21.2138C16.781 24.9899 13.7312 28.4986 8.62303 28.4986C3.51486 28.4986 0.753953 22.0918 1.67577 16.5624ZM26.952 28.5C32.0579 28.5 35.1069 24.9935 34.3983 21.2167C33.6898 17.4398 29.5049 16.2942 26.5973 17.1032C23.7993 17.882 26.5217 11.3667 31.0899 10.6311C31.2494 10.6013 31.3942 10.5223 31.5017 10.4063C31.6091 10.2903 31.6733 10.1438 31.6843 9.9896L31.8355 8.28813C31.8462 8.17809 31.8301 8.06719 31.7884 7.96403C31.7467 7.86088 31.6806 7.76825 31.5952 7.69333C31.5097 7.61842 31.4073 7.56324 31.2958 7.53207C31.1843 7.50091 31.0668 7.49459 30.9523 7.51363C26.713 8.22269 20.8569 11.4365 20.0017 16.5653C19.0806 22.0918 21.8461 28.4986 26.952 28.4986L26.952 28.5Z" fill="#171717"/>
</g>
</svg>
