<svg width="24" height="24" viewBox="0 0 24 24" fill="none" xmlns="http://www.w3.org/2000/svg">
<path d="M18.5708 19C18.0185 19 17.5708 19.4477 17.5708 20C17.5708 20.5523 18.0185 21 18.5708 21V19ZM20.8568 13.143L20.1497 12.4359C19.9622 12.6234 19.8568 12.8778 19.8568 13.143H20.8568ZM21.9998 12L22.7069 12.7071C23.0974 12.3166 23.0974 11.6834 22.7069 11.2929L21.9998 12ZM20.8568 10.857H19.8568C19.8568 11.1222 19.9622 11.3766 20.1497 11.5641L20.8568 10.857ZM18.5708 3C18.0185 3 17.5708 3.44772 17.5708 4C17.5708 4.55228 18.0185 5 18.5708 5V3ZM5.429 5C5.98128 5 6.429 4.55228 6.429 4C6.429 3.44772 5.98128 3 5.429 3V5ZM3.143 10.857L3.85011 11.5641C4.03764 11.3766 4.143 11.1222 4.143 10.857H3.143ZM2 12L1.29289 11.2929C1.10536 11.4804 1 11.7348 1 12C1 12.2652 1.10536 12.5196 1.29289 12.7071L2 12ZM3.143 13.143H4.143C4.143 12.8778 4.03764 12.6234 3.85011 12.4359L3.143 13.143ZM5.429 21C5.98128 21 6.429 20.5523 6.429 20C6.429 19.4477 5.98128 19 5.429 19V21ZM7.5 11C6.94772 11 6.5 11.4477 6.5 12C6.5 12.5523 6.94772 13 7.5 13V11ZM7.51 13C8.06228 13 8.51 12.5523 8.51 12C8.51 11.4477 8.06228 11 7.51 11V13ZM12 11C11.4477 11 11 11.4477 11 12C11 12.5523 11.4477 13 12 13V11ZM12.01 13C12.5623 13 13.01 12.5523 13.01 12C13.01 11.4477 12.5623 11 12.01 11V13ZM16.5 11C15.9477 11 15.5 11.4477 15.5 12C15.5 12.5523 15.9477 13 16.5 13V11ZM16.51 13C17.0623 13 17.51 12.5523 17.51 12C17.51 11.4477 17.0623 11 16.51 11V13ZM18.5708 21C20.3848 21 21.8568 19.5296 21.8568 17.714H19.8568C19.8568 18.4244 19.2808 19 18.5708 19V21ZM21.8568 17.714V13.143H19.8568V17.714H21.8568ZM21.5639 13.8501L22.7069 12.7071L21.2927 11.2929L20.1497 12.4359L21.5639 13.8501ZM22.7069 11.2929L21.5639 10.1499L20.1497 11.5641L21.2927 12.7071L22.7069 11.2929ZM21.8568 10.857V6.286H19.8568V10.857H21.8568ZM21.8568 6.286C21.8568 4.47071 20.3861 3 18.5708 3V5C19.2815 5 19.8568 5.57529 19.8568 6.286H21.8568ZM5.429 3C3.61372 3 2.143 4.47071 2.143 6.286H4.143C4.143 5.57528 4.71828 5 5.429 5V3ZM2.143 6.286V10.857H4.143V6.286H2.143ZM2.43589 10.1499L1.29289 11.2929L2.70711 12.7071L3.85011 11.5641L2.43589 10.1499ZM1.29289 12.7071L2.43589 13.8501L3.85011 12.4359L2.70711 11.2929L1.29289 12.7071ZM2.143 13.143V17.714H4.143V13.143H2.143ZM2.143 17.714C2.143 19.5293 3.61372 21 5.429 21V19C4.71828 19 4.143 18.4247 4.143 17.714H2.143ZM7.5 13H7.51V11H7.5V13ZM7 12C7 11.7239 7.22386 11.5 7.5 11.5V13.5C8.32843 13.5 9 12.8284 9 12H7ZM7.5 11.5C7.77614 11.5 8 11.7239 8 12H6C6 12.8284 6.67157 13.5 7.5 13.5V11.5ZM8 12C8 12.2761 7.77614 12.5 7.5 12.5V10.5C6.67157 10.5 6 11.1716 6 12H8ZM7.5 12.5C7.22386 12.5 7 12.2761 7 12H9C9 11.1716 8.32843 10.5 7.5 10.5V12.5ZM12 13H12.01V11H12V13ZM11.5 12C11.5 11.7239 11.7239 11.5 12 11.5V13.5C12.8284 13.5 13.5 12.8284 13.5 12H11.5ZM12 11.5C12.2761 11.5 12.5 11.7239 12.5 12H10.5C10.5 12.8284 11.1716 13.5 12 13.5V11.5ZM12.5 12C12.5 12.2761 12.2761 12.5 12 12.5V10.5C11.1716 10.5 10.5 11.1716 10.5 12H12.5ZM12 12.5C11.7239 12.5 11.5 12.2761 11.5 12H13.5C13.5 11.1716 12.8284 10.5 12 10.5V12.5ZM16.5 13H16.51V11H16.5V13ZM16 12C16 11.7239 16.2239 11.5 16.5 11.5V13.5C17.3284 13.5 18 12.8284 18 12H16ZM16.5 11.5C16.7761 11.5 17 11.7239 17 12H15C15 12.8284 15.6716 13.5 16.5 13.5V11.5ZM17 12C17 12.2761 16.7761 12.5 16.5 12.5V10.5C15.6716 10.5 15 11.1716 15 12H17ZM16.5 12.5C16.2239 12.5 16 12.2761 16 12H18C18 11.1716 17.3284 10.5 16.5 10.5V12.5Z" fill="#171717"/>
</svg>
