<svg width="24" height="24" viewBox="0 0 24 24" fill="none" xmlns="http://www.w3.org/2000/svg">
<path d="M22 10C22.5523 10 23 9.55228 23 9C23 8.44771 22.5523 8 22 8V10ZM2 8C1.44772 8 1 8.44771 1 9C1 9.55228 1.44772 10 2 10V8ZM2 7.8H1H2ZM2.32698 4.63803L3.21799 5.09202L2.32698 4.63803ZM6.8 3V4V3ZM3.63803 3.32698L3.18404 2.43597L3.63803 3.32698ZM6.8 21V22V21ZM3.63803 20.673L4.09202 19.782L3.63803 20.673ZM2 16.2H3H2ZM2.32698 19.362L1.43597 19.816L2.32698 19.362ZM21.673 19.362L22.564 19.816L21.673 19.362ZM17.2 21V20V21ZM20.362 20.673L20.816 21.564L20.362 20.673ZM21.673 4.63803L20.782 5.09202L21.673 4.63803ZM17.2 3V2V3ZM20.362 3.32698L19.908 4.21799L20.362 3.32698ZM22 8H2V10H22V8ZM21 7.8V16.2H23V7.8H21ZM17.2 20H6.8V22H17.2V20ZM3 16.2L3 7.8H1L1 16.2H3ZM6.8 4L17.2 4V2L6.8 2V4ZM3 7.8C3 6.94342 3.00078 6.36113 3.03755 5.91104C3.07337 5.47262 3.1383 5.24842 3.21799 5.09202L1.43597 4.18404C1.18868 4.66937 1.09012 5.18608 1.04419 5.74817C0.999223 6.2986 1 6.97642 1 7.8H3ZM6.8 2C5.97642 2 5.2986 1.99922 4.74817 2.04419C4.18608 2.09012 3.66937 2.18868 3.18404 2.43597L4.09202 4.21799C4.24842 4.1383 4.47262 4.07337 4.91104 4.03755C5.36113 4.00078 5.94342 4 6.8 4V2ZM3.21799 5.09202C3.40973 4.71569 3.7157 4.40973 4.09202 4.21799L3.18404 2.43597C2.43139 2.81947 1.81947 3.43139 1.43597 4.18404L3.21799 5.09202ZM6.8 20C5.94342 20 5.36113 19.9992 4.91104 19.9624C4.47262 19.9266 4.24842 19.8617 4.09202 19.782L3.18404 21.564C3.66937 21.8113 4.18607 21.9099 4.74817 21.9558C5.2986 22.0008 5.97642 22 6.8 22V20ZM1 16.2C1 17.0236 0.999222 17.7014 1.04419 18.2518C1.09012 18.8139 1.18868 19.3306 1.43597 19.816L3.21799 18.908C3.1383 18.7516 3.07337 18.5274 3.03755 18.089C3.00078 17.6389 3 17.0566 3 16.2H1ZM4.09202 19.782C3.71569 19.5903 3.40973 19.2843 3.21799 18.908L1.43597 19.816C1.81947 20.5686 2.43139 21.1805 3.18404 21.564L4.09202 19.782ZM21 16.2C21 17.0566 20.9992 17.6389 20.9625 18.089C20.9266 18.5274 20.8617 18.7516 20.782 18.908L22.564 19.816C22.8113 19.3306 22.9099 18.8139 22.9558 18.2518C23.0008 17.7014 23 17.0236 23 16.2H21ZM17.2 22C18.0236 22 18.7014 22.0008 19.2518 21.9558C19.8139 21.9099 20.3306 21.8113 20.816 21.564L19.908 19.782C19.7516 19.8617 19.5274 19.9266 19.089 19.9624C18.6389 19.9992 18.0566 20 17.2 20V22ZM20.782 18.908C20.5903 19.2843 20.2843 19.5903 19.908 19.782L20.816 21.564C21.5686 21.1805 22.1805 20.5686 22.564 19.816L20.782 18.908ZM23 7.8C23 6.97642 23.0008 6.2986 22.9558 5.74818C22.9099 5.18608 22.8113 4.66938 22.564 4.18404L20.782 5.09202C20.8617 5.24842 20.9266 5.47262 20.9625 5.91104C20.9992 6.36113 21 6.94342 21 7.8H23ZM17.2 4C18.0566 4 18.6389 4.00078 19.089 4.03755C19.5274 4.07337 19.7516 4.1383 19.908 4.21799L20.816 2.43598C20.3306 2.18868 19.8139 2.09012 19.2518 2.0442C18.7014 1.99922 18.0236 2 17.2 2V4ZM22.564 4.18404C22.1805 3.43139 21.5686 2.81947 20.816 2.43598L19.908 4.21799C20.2843 4.40974 20.5903 4.7157 20.782 5.09202L22.564 4.18404Z" fill="#171717"/>
</svg>
