<svg width="24" height="24" viewBox="0 0 24 24" fill="none" xmlns="http://www.w3.org/2000/svg">
<path d="M21 11C21.5523 11 22 10.5523 22 10C22 9.44772 21.5523 9 21 9V11ZM3 9C2.44772 9 2 9.44772 2 10C2 10.5523 2.44772 11 3 11V9ZM4.63803 21.673L4.18404 22.564L4.63803 21.673ZM3.32698 20.362L2.43597 20.816L3.32698 20.362ZM20.673 20.362L21.564 20.816L20.673 20.362ZM19.362 21.673L19.816 22.564L19.362 21.673ZM19.362 4.32698L19.816 3.43597L19.362 4.32698ZM20.673 5.63803L21.564 5.18404L20.673 5.63803ZM4.63803 4.32698L4.18404 3.43597L4.63803 4.32698ZM3.32698 5.63803L2.43597 5.18404L3.32698 5.63803ZM17 2C17 1.44772 16.5523 1 16 1C15.4477 1 15 1.44772 15 2H17ZM15 6C15 6.55228 15.4477 7 16 7C16.5523 7 17 6.55228 17 6H15ZM9 2C9 1.44772 8.55228 1 8 1C7.44772 1 7 1.44772 7 2H9ZM7 6C7 6.55228 7.44772 7 8 7C8.55228 7 9 6.55228 9 6H7ZM21 9H3V11H21V9ZM7.8 5H16.2V3H7.8V5ZM20 8.8V17.2H22V8.8H20ZM16.2 21H7.8V23H16.2V21ZM4 17.2V8.8H2V17.2H4ZM7.8 21C6.94342 21 6.36113 20.9992 5.91104 20.9624C5.47262 20.9266 5.24842 20.8617 5.09202 20.782L4.18404 22.564C4.66937 22.8113 5.18608 22.9099 5.74817 22.9558C6.2986 23.0008 6.97642 23 7.8 23V21ZM2 17.2C2 18.0236 1.99922 18.7014 2.04419 19.2518C2.09012 19.8139 2.18868 20.3306 2.43597 20.816L4.21799 19.908C4.1383 19.7516 4.07337 19.5274 4.03755 19.089C4.00078 18.6389 4 18.0566 4 17.2H2ZM5.09202 20.782C4.7157 20.5903 4.40973 20.2843 4.21799 19.908L2.43597 20.816C2.81947 21.5686 3.43139 22.1805 4.18404 22.564L5.09202 20.782ZM20 17.2C20 18.0566 19.9992 18.6389 19.9624 19.089C19.9266 19.5274 19.8617 19.7516 19.782 19.908L21.564 20.816C21.8113 20.3306 21.9099 19.8139 21.9558 19.2518C22.0008 18.7014 22 18.0236 22 17.2H20ZM16.2 23C17.0236 23 17.7014 23.0008 18.2518 22.9558C18.8139 22.9099 19.3306 22.8113 19.816 22.564L18.908 20.782C18.7516 20.8617 18.5274 20.9266 18.089 20.9624C17.6389 20.9992 17.0566 21 16.2 21V23ZM19.782 19.908C19.5903 20.2843 19.2843 20.5903 18.908 20.782L19.816 22.564C20.5686 22.1805 21.1805 21.5686 21.564 20.816L19.782 19.908ZM16.2 5C17.0566 5 17.6389 5.00078 18.089 5.03755C18.5274 5.07337 18.7516 5.1383 18.908 5.21799L19.816 3.43597C19.3306 3.18868 18.8139 3.09012 18.2518 3.04419C17.7014 2.99922 17.0236 3 16.2 3V5ZM22 8.8C22 7.97642 22.0008 7.2986 21.9558 6.74817C21.9099 6.18608 21.8113 5.66937 21.564 5.18404L19.782 6.09202C19.8617 6.24842 19.9266 6.47262 19.9624 6.91104C19.9992 7.36113 20 7.94342 20 8.8H22ZM18.908 5.21799C19.2843 5.40973 19.5903 5.7157 19.782 6.09202L21.564 5.18404C21.1805 4.43139 20.5686 3.81947 19.816 3.43597L18.908 5.21799ZM7.8 3C6.97642 3 6.2986 2.99922 5.74817 3.04419C5.18608 3.09012 4.66937 3.18868 4.18404 3.43597L5.09202 5.21799C5.24842 5.1383 5.47262 5.07337 5.91104 5.03755C6.36113 5.00078 6.94342 5 7.8 5V3ZM4 8.8C4 7.94342 4.00078 7.36113 4.03755 6.91104C4.07337 6.47262 4.1383 6.24842 4.21799 6.09202L2.43597 5.18404C2.18868 5.66937 2.09012 6.18608 2.04419 6.74817C1.99922 7.2986 2 7.97642 2 8.8H4ZM4.18404 3.43597C3.43139 3.81947 2.81947 4.43139 2.43597 5.18404L4.21799 6.09202C4.40973 5.71569 4.71569 5.40973 5.09202 5.21799L4.18404 3.43597ZM15 2V6H17V2H15ZM7 2V6H9V2H7Z" fill="#171717"/>
</svg>
