<svg width="24" height="24" viewBox="0 0 24 24" fill="none" xmlns="http://www.w3.org/2000/svg">
<path d="M6.5 21C7.05228 21 7.5 20.5523 7.5 20C7.5 19.4477 7.05228 19 6.5 19V21ZM17.5 19C16.9477 19 16.5 19.4477 16.5 20C16.5 20.5523 16.9477 21 17.5 21V19ZM12.0214 18.9998L12.7285 19.7069C13.0158 19.4197 13.1007 18.9872 12.9435 18.6126C12.7862 18.2381 12.418 17.9959 12.0117 17.9998L12.0214 18.9998ZM6.00024 19.3641L5.29314 18.657C5.1056 18.8446 5.00024 19.0989 5.00024 19.3641C5.00024 19.6294 5.1056 19.8837 5.29314 20.0712L6.00024 19.3641ZM9.72676 17.0518C10.1173 16.6613 10.1173 16.0281 9.72676 15.6376C9.33623 15.2471 8.70307 15.2471 8.31255 15.6376L9.72676 17.0518ZM8.82867 22.1926L8.12156 22.8997C8.51209 23.2902 9.14525 23.2902 9.53578 22.8997L8.82867 22.1926ZM18.0212 19.3641L18.7283 20.0712C18.9159 19.8837 19.0212 19.6294 19.0212 19.3641C19.0212 19.0989 18.9159 18.8446 18.7283 18.657L18.0212 19.3641ZM15.7089 15.6376C15.3184 15.2471 14.6852 15.2471 14.2947 15.6376C13.9042 16.0281 13.9042 16.6613 14.2947 17.0518L15.7089 15.6376ZM15.1928 22.1926L14.4857 22.8997C14.8763 23.2902 15.5094 23.2902 15.8999 22.8997L15.1928 22.1926ZM9 5C8.44772 5 8 5.44772 8 6C8 6.55228 8.44772 7 9 7V5ZM15 7C15.5523 7 16 6.55228 16 6C16 5.44772 15.5523 5 15 5V7ZM7 8.5C6.44772 8.5 6 8.94772 6 9.5C6 10.0523 6.44772 10.5 7 10.5V8.5ZM17 10.5C17.5523 10.5 18 10.0523 18 9.5C18 8.94772 17.5523 8.5 17 8.5V10.5ZM5 3H19V1H5V3ZM20 4V18H22V4H20ZM4 18V4H2V18H4ZM5 19C4.44772 19 4 18.5523 4 18H2C2 19.6569 3.34315 21 5 21V19ZM20 18C20 18.5523 19.5523 19 19 19V21C20.6569 21 22 19.6569 22 18H20ZM19 3C19.5523 3 20 3.44772 20 4H22C22 2.34315 20.6569 1 19 1V3ZM5 1C3.34315 1 2 2.34315 2 4H4C4 3.44772 4.44772 3 5 3V1ZM6.5 19H5V21H6.5V19ZM19 19H17.5V21H19V19ZM14 16C14 17.1046 13.1046 18 12 18V20C14.2091 20 16 18.2091 16 16H14ZM12 18C10.8954 18 10 17.1046 10 16H8C8 18.2091 9.79086 20 12 20V18ZM10 16C10 14.8954 10.8954 14 12 14V12C9.79086 12 8 13.7909 8 16H10ZM12 14C13.1046 14 14 14.8954 14 16H16C16 13.7909 14.2091 12 12 12V14ZM12.0097 20L12.0311 19.9997L12.0117 17.9998L11.9903 18L12.0097 20ZM6.70735 20.0712L9.72676 17.0518L8.31255 15.6376L5.29314 18.657L6.70735 20.0712ZM9.53578 21.4855L6.70735 18.657L5.29314 20.0712L8.12156 22.8997L9.53578 21.4855ZM11.3143 18.2927L8.12156 21.4855L9.53578 22.8997L12.7285 19.7069L11.3143 18.2927ZM18.7283 18.657L15.7089 15.6376L14.2947 17.0518L17.3141 20.0712L18.7283 18.657ZM15.8999 22.8997L18.7283 20.0712L17.3141 18.657L14.4857 21.4855L15.8999 22.8997ZM11.2929 19.7071L14.4857 22.8997L15.8999 21.4854L12.7071 18.2929L11.2929 19.7071ZM9 7H15V5H9V7ZM7 10.5H17V8.5H7V10.5Z" fill="#171717"/>
</svg>
