<svg width="24" height="24" viewBox="0 0 24 24" fill="none" xmlns="http://www.w3.org/2000/svg">
<path d="M20.7071 6.70711C21.0976 6.31658 21.0976 5.68342 20.7071 5.29289C20.3166 4.90237 19.6834 4.90237 19.2929 5.29289L20.7071 6.70711ZM9 17L8.29289 17.7071C8.68342 18.0976 9.31658 18.0976 9.70711 17.7071L9 17ZM4.70711 11.2929C4.31658 10.9024 3.68342 10.9024 3.29289 11.2929C2.90237 11.6834 2.90237 12.3166 3.29289 12.7071L4.70711 11.2929ZM19.2929 5.29289L8.29289 16.2929L9.70711 17.7071L20.7071 6.70711L19.2929 5.29289ZM9.70711 16.2929L4.70711 11.2929L3.29289 12.7071L8.29289 17.7071L9.70711 16.2929Z" fill="#171717"/>
</svg>
