<svg width="24" height="24" viewBox="0 0 24 24" fill="none" xmlns="http://www.w3.org/2000/svg">
<path d="M6.07974 10.0194L6.17196 11.0151C6.62505 10.9731 6.99268 10.6306 7.0665 10.1816L6.07974 10.0194ZM17.9203 10.0194L16.9335 10.1816C17.0073 10.6306 17.3749 10.9731 17.828 11.0151L17.9203 10.0194ZM1 14.5C1 17.5376 3.46243 20 6.5 20V18C4.567 18 3 16.433 3 14.5H1ZM5.98752 9.02363C3.18973 9.28275 1 11.6351 1 14.5H3C3 12.6778 4.39329 11.1798 6.17196 11.0151L5.98752 9.02363ZM12 4C8.52264 4 5.6392 6.53459 5.09299 9.85715L7.0665 10.1816C7.45643 7.80968 9.51785 6 12 6V4ZM18.907 9.85715C18.3608 6.53459 15.4774 4 12 4V6C14.4822 6 16.5436 7.80968 16.9335 10.1816L18.907 9.85715ZM17.828 11.0151C19.6067 11.1798 21 12.6778 21 14.5H23C23 11.6351 20.8103 9.28275 18.0125 9.02363L17.828 11.0151ZM21 14.5C21 16.433 19.433 18 17.5 18V20C20.5376 20 23 17.5376 23 14.5H21ZM6.5 20C6.50751 20 6.51501 20 6.52251 20C6.53001 20 6.5375 20 6.54499 20C6.55248 20 6.55997 20 6.56745 20C6.57493 20 6.58241 20 6.58988 20C6.59736 20 6.60483 20 6.61229 20C6.61976 20 6.62722 20 6.63468 20C6.64213 20 6.64959 20 6.65704 20C6.66449 20 6.67193 20 6.67938 20C6.68682 20 6.69426 20 6.70169 20C6.70913 20 6.71656 20 6.72398 20C6.73141 20 6.73883 20 6.74625 20C6.75367 20 6.76108 20 6.76849 20C6.7759 20 6.78331 20 6.79071 20C6.79812 20 6.80552 20 6.81291 20C6.82031 20 6.8277 20 6.83509 20C6.84247 20 6.84986 20 6.85724 20C6.86462 20 6.87199 20 6.87937 20C6.88674 20 6.89411 20 6.90147 20C6.90884 20 6.9162 20 6.92356 20C6.93092 20 6.93827 20 6.94562 20C6.95297 20 6.96032 20 6.96766 20C6.975 20 6.98234 20 6.98968 20C6.99701 20 7.00434 20 7.01167 20C7.019 20 7.02633 20 7.03365 20C7.04097 20 7.04828 20 7.0556 20C7.06291 20 7.07022 20 7.07753 20C7.08484 20 7.09214 20 7.09944 20C7.10674 20 7.11403 20 7.12133 20C7.12862 20 7.13591 20 7.14319 20C7.15048 20 7.15776 20 7.16504 20C7.17231 20 7.17959 20 7.18686 20C7.19413 20 7.2014 20 7.20866 20C7.21593 20 7.22319 20 7.23045 20C7.2377 20 7.24496 20 7.25221 20C7.25946 20 7.26671 20 7.27395 20C7.28119 20 7.28843 20 7.29567 20C7.30291 20 7.31014 20 7.31737 20C7.3246 20 7.33183 20 7.33905 20C7.34627 20 7.35349 20 7.36071 20C7.36793 20 7.37514 20 7.38235 20C7.38956 20 7.39677 20 7.40397 20C7.41117 20 7.41838 20 7.42557 20C7.43277 20 7.43996 20 7.44715 20C7.45434 20 7.46153 20 7.46871 20C7.4759 20 7.48308 20 7.49026 20C7.49744 20 7.50461 20 7.51178 20C7.51895 20 7.52612 20 7.53328 20C7.54045 20 7.54761 20 7.55477 20C7.56193 20 7.56908 20 7.57624 20C7.58339 20 7.59054 20 7.59768 20C7.60483 20 7.61197 20 7.61911 20C7.62625 20 7.63339 20 7.64052 20C7.64766 20 7.65479 20 7.66192 20C7.66904 20 7.67617 20 7.68329 20C7.69041 20 7.69753 20 7.70465 20C7.71176 20 7.71887 20 7.72598 20C7.73309 20 7.7402 20 7.7473 20C7.75441 20 7.76151 20 7.76861 20C7.7757 20 7.7828 20 7.78989 20C7.79698 20 7.80407 20 7.81116 20C7.81824 20 7.82533 20 7.83241 20C7.83949 20 7.84656 20 7.85364 20C7.86071 20 7.86778 20 7.87485 20C7.88192 20 7.88899 20 7.89605 20C7.90312 20 7.91018 20 7.91723 20C7.92429 20 7.93135 20 7.9384 20C7.94545 20 7.9525 20 7.95955 20C7.96659 20 7.97364 20 7.98068 20C7.98772 20 7.99476 20 8.00179 20C8.00883 20 8.01586 20 8.02289 20C8.02992 20 8.03695 20 8.04397 20C8.051 20 8.05802 20 8.06504 20C8.07206 20 8.07907 20 8.08609 20C8.0931 20 8.10011 20 8.10712 20C8.11413 20 8.12114 20 8.12814 20C8.13515 20 8.14215 20 8.14915 20C8.15614 20 8.16314 20 8.17013 20C8.17713 20 8.18412 20 8.1911 20C8.19809 20 8.20508 20 8.21206 20C8.21905 20 8.22603 20 8.233 20C8.23998 20 8.24696 20 8.25393 20C8.2609 20 8.26788 20 8.27484 20C8.28181 20 8.28878 20 8.29574 20C8.3027 20 8.30966 20 8.31662 20C8.32358 20 8.33054 20 8.33749 20C8.34445 20 8.3514 20 8.35835 20C8.36529 20 8.37224 20 8.37919 20C8.38613 20 8.39307 20 8.40001 20C8.40695 20 8.41389 20 8.42082 20C8.42776 20 8.43469 20 8.44162 20C8.44855 20 8.45548 20 8.4624 20C8.46933 20 8.47625 20 8.48317 20C8.49009 20 8.49701 20 8.50393 20C8.51085 20 8.51776 20 8.52467 20C8.53159 20 8.5385 20 8.5454 20C8.55231 20 8.55922 20 8.56612 20C8.57302 20 8.57992 20 8.58682 20C8.59372 20 8.60062 20 8.60751 20C8.61441 20 8.6213 20 8.62819 20C8.63508 20 8.64197 20 8.64886 20C8.65574 20 8.66263 20 8.66951 20C8.67639 20 8.68327 20 8.69015 20C8.69703 20 8.7039 20 8.71078 20C8.71765 20 8.72452 20 8.73139 20C8.73826 20 8.74513 20 8.752 20C8.75886 20 8.76573 20 8.77259 20C8.77945 20 8.78631 20 8.79317 20C8.80003 20 8.80688 20 8.81374 20C8.82059 20 8.82744 20 8.83429 20C8.84114 20 8.84799 20 8.85484 20C8.86169 20 8.86853 20 8.87537 20C8.88222 20 8.88906 20 8.89589 20C8.90273 20 8.90957 20 8.91641 20C8.92324 20 8.93007 20 8.93691 20C8.94374 20 8.95057 20 8.9574 20C8.96422 20 8.97105 20 8.97787 20C8.9847 20 8.99152 20 8.99834 20C9.00516 20 9.01198 20 9.0188 20C9.02562 20 9.03243 20 9.03925 20C9.04606 20 9.05287 20 9.05968 20C9.06649 20 9.0733 20 9.08011 20C9.08692 20 9.09372 20 9.10053 20C9.10733 20 9.11413 20 9.12093 20C9.12773 20 9.13453 20 9.14133 20C9.14813 20 9.15492 20 9.16172 20C9.16851 20 9.1753 20 9.1821 20C9.18889 20 9.19568 20 9.20246 20C9.20925 20 9.21604 20 9.22282 20C9.22961 20 9.23639 20 9.24317 20C9.24995 20 9.25673 20 9.26351 20C9.27029 20 9.27707 20 9.28384 20C9.29062 20 9.29739 20 9.30417 20C9.31094 20 9.31771 20 9.32448 20C9.33125 20 9.33802 20 9.34479 20C9.35155 20 9.35832 20 9.36508 20C9.37185 20 9.37861 20 9.38537 20C9.39213 20 9.39889 20 9.40565 20C9.41241 20 9.41917 20 9.42593 20C9.43268 20 9.43944 20 9.44619 20C9.45294 20 9.4597 20 9.46645 20C9.4732 20 9.47995 20 9.48669 20C9.49344 20 9.50019 20 9.50694 20C9.51368 20 9.52043 20 9.52717 20C9.53391 20 9.54066 20 9.5474 20C9.55414 20 9.56088 20 9.56762 20C9.57435 20 9.58109 20 9.58783 20C9.59456 20 9.6013 20 9.60803 20C9.61477 20 9.6215 20 9.62823 20C9.63496 20 9.64169 20 9.64842 20C9.65515 20 9.66188 20 9.66861 20C9.67533 20 9.68206 20 9.68878 20C9.69551 20 9.70223 20 9.70896 20C9.71568 20 9.7224 20 9.72912 20C9.73584 20 9.74256 20 9.74928 20C9.756 20 9.76272 20 9.76943 20C9.77615 20 9.78287 20 9.78958 20C9.79629 20 9.80301 20 9.80972 20C9.81643 20 9.82315 20 9.82986 20C9.83657 20 9.84328 20 9.84999 20C9.8567 20 9.8634 20 9.87011 20C9.87682 20 9.88353 20 9.89023 20C9.89694 20 9.90364 20 9.91035 20C9.91705 20 9.92375 20 9.93045 20C9.93716 20 9.94386 20 9.95056 20C9.95726 20 9.96396 20 9.97066 20C9.97736 20 9.98405 20 9.99075 20C9.99745 20 10.0041 20 10.0108 20C10.0175 20 10.0242 20 10.0309 20C10.0376 20 10.0443 20 10.051 20C10.0577 20 10.0644 20 10.0711 20C10.0778 20 10.0845 20 10.0912 20C10.0978 20 10.1045 20 10.1112 20C10.1179 20 10.1246 20 10.1313 20C10.138 20 10.1447 20 10.1514 20C10.158 20 10.1647 20 10.1714 20C10.1781 20 10.1848 20 10.1915 20C10.1981 20 10.2048 20 10.2115 20C10.2182 20 10.2249 20 10.2316 20C10.2382 20 10.2449 20 10.2516 20C10.2583 20 10.265 20 10.2716 20C10.2783 20 10.285 20 10.2917 20C10.2984 20 10.305 20 10.3117 20C10.3184 20 10.3251 20 10.3318 20C10.3384 20 10.3451 20 10.3518 20C10.3585 20 10.3651 20 10.3718 20C10.3785 20 10.3852 20 10.3918 20C10.3985 20 10.4052 20 10.4119 20C10.4185 20 10.4252 20 10.4319 20C10.4386 20 10.4452 20 10.4519 20C10.4586 20 10.4652 20 10.4719 20C10.4786 20 10.4853 20 10.4919 20C10.4986 20 10.5053 20 10.5119 20C10.5186 20 10.5253 20 10.532 20C10.5386 20 10.5453 20 10.552 20C10.5586 20 10.5653 20 10.572 20C10.5786 20 10.5853 20 10.592 20C10.5987 20 10.6053 20 10.612 20C10.6187 20 10.6253 20 10.632 20C10.6387 20 10.6453 20 10.652 20C10.6587 20 10.6653 20 10.672 20C10.6787 20 10.6853 20 10.692 20C10.6987 20 10.7054 20 10.712 20C10.7187 20 10.7254 20 10.732 20C10.7387 20 10.7454 20 10.752 20C10.7587 20 10.7654 20 10.772 20C10.7787 20 10.7854 20 10.792 20C10.7987 20 10.8054 20 10.812 20C10.8187 20 10.8254 20 10.832 20C10.8387 20 10.8454 20 10.8521 20C10.8587 20 10.8654 20 10.8721 20C10.8787 20 10.8854 20 10.8921 20C10.8987 20 10.9054 20 10.9121 20C10.9187 20 10.9254 20 10.9321 20C10.9388 20 10.9454 20 10.9521 20C10.9588 20 10.9654 20 10.9721 20C10.9788 20 10.9854 20 10.9921 20C10.9988 20 11.0055 20 11.0121 20C11.0188 20 11.0255 20 11.0321 20C11.0388 20 11.0455 20 11.0522 20C11.0588 20 11.0655 20 11.0722 20C11.0789 20 11.0855 20 11.0922 20C11.0989 20 11.1055 20 11.1122 20C11.1189 20 11.1256 20 11.1322 20C11.1389 20 11.1456 20 11.1523 20C11.1589 20 11.1656 20 11.1723 20C11.179 20 11.1857 20 11.1923 20C11.199 20 11.2057 20 11.2124 20C11.219 20 11.2257 20 11.2324 20C11.2391 20 11.2458 20 11.2524 20C11.2591 20 11.2658 20 11.2725 20C11.2792 20 11.2858 20 11.2925 20C11.2992 20 11.3059 20 11.3126 20C11.3193 20 11.3259 20 11.3326 20C11.3393 20 11.346 20 11.3527 20C11.3594 20 11.3661 20 11.3728 20C11.3794 20 11.3861 20 11.3928 20C11.3995 20 11.4062 20 11.4129 20C11.4196 20 11.4263 20 11.433 20C11.4396 20 11.4463 20 11.453 20C11.4597 20 11.4664 20 11.4731 20C11.4798 20 11.4865 20 11.4932 20C11.4999 20 11.5066 20 11.5133 20C11.52 20 11.5267 20 11.5334 20C11.5401 20 11.5468 20 11.5535 20C11.5602 20 11.5669 20 11.5736 20C11.5803 20 11.587 20 11.5937 20C11.6004 20 11.6071 20 11.6138 20C11.6205 20 11.6272 20 11.6339 20C11.6406 20 11.6473 20 11.654 20C11.6607 20 11.6674 20 11.6742 20C11.6809 20 11.6876 20 11.6943 20C11.701 20 11.7077 20 11.7144 20C11.7211 20 11.7279 20 11.7346 20C11.7413 20 11.748 20 11.7547 20C11.7614 20 11.7682 20 11.7749 20C11.7816 20 11.7883 20 11.795 20C11.8018 20 11.8085 20 11.8152 20C11.8219 20 11.8287 20 11.8354 20C11.8421 20 11.8488 20 11.8556 20C11.8623 20 11.869 20 11.8758 20C11.8825 20 11.8892 20 11.896 20C11.9027 20 11.9094 20 11.9162 20C11.9229 20 11.9296 20 11.9364 20C11.9431 20 11.9499 20 11.9566 20C11.9633 20 11.9701 20 11.9768 20C11.9836 20 11.9903 20 11.997 20C12.0038 20 12.0105 20 12.0173 20C12.024 20 12.0308 20 12.0375 20C12.0443 20 12.051 20 12.0578 20C12.0645 20 12.0713 20 12.078 20C12.0848 20 12.0916 20 12.0983 20C12.1051 20 12.1118 20 12.1186 20C12.1254 20 12.1321 20 12.1389 20C12.1456 20 12.1524 20 12.1592 20C12.1659 20 12.1727 20 12.1795 20C12.1862 20 12.193 20 12.1998 20C12.2066 20 12.2133 20 12.2201 20C12.2269 20 12.2337 20 12.2404 20C12.2472 20 12.254 20 12.2608 20C12.2676 20 12.2743 20 12.2811 20C12.2879 20 12.2947 20 12.3015 20C12.3083 20 12.3151 20 12.3218 20C12.3286 20 12.3354 20 12.3422 20C12.349 20 12.3558 20 12.3626 20C12.3694 20 12.3762 20 12.383 20C12.3898 20 12.3966 20 12.4034 20C12.4102 20 12.417 20 12.4238 20C12.4306 20 12.4374 20 12.4442 20C12.451 20 12.4579 20 12.4647 20C12.4715 20 12.4783 20 12.4851 20C12.4919 20 12.4987 20 12.5056 20C12.5124 20 12.5192 20 12.526 20C12.5329 20 12.5397 20 12.5465 20C12.5533 20 12.5602 20 12.567 20C12.5738 20 12.5807 20 12.5875 20C12.5943 20 12.6012 20 12.608 20C12.6148 20 12.6217 20 12.6285 20C12.6354 20 12.6422 20 12.649 20C12.6559 20 12.6627 20 12.6696 20C12.6764 20 12.6833 20 12.6901 20C12.697 20 12.7038 20 12.7107 20C12.7176 20 12.7244 20 12.7313 20C12.7381 20 12.745 20 12.7519 20C12.7587 20 12.7656 20 12.7725 20C12.7793 20 12.7862 20 12.7931 20C12.7999 20 12.8068 20 12.8137 20C12.8206 20 12.8275 20 12.8343 20C12.8412 20 12.8481 20 12.855 20C12.8619 20 12.8688 20 12.8756 20C12.8825 20 12.8894 20 12.8963 20C12.9032 20 12.9101 20 12.917 20C12.9239 20 12.9308 20 12.9377 20C12.9446 20 12.9515 20 12.9584 20C12.9653 20 12.9722 20 12.9791 20C12.9861 20 12.993 20 12.9999 20C13.0068 20 13.0137 20 13.0206 20C13.0276 20 13.0345 20 13.0414 20C13.0483 20 13.0552 20 13.0622 20C13.0691 20 13.076 20 13.083 20C13.0899 20 13.0968 20 13.1038 20C13.1107 20 13.1177 20 13.1246 20C13.1315 20 13.1385 20 13.1454 20C13.1524 20 13.1593 20 13.1663 20C13.1732 20 13.1802 20 13.1871 20C13.1941 20 13.2011 20 13.208 20C13.215 20 13.2219 20 13.2289 20C13.2359 20 13.2428 20 13.2498 20C13.2568 20 13.2638 20 13.2707 20C13.2777 20 13.2847 20 13.2917 20C13.2987 20 13.3056 20 13.3126 20C13.3196 20 13.3266 20 13.3336 20C13.3406 20 13.3476 20 13.3546 20C13.3616 20 13.3686 20 13.3756 20C13.3826 20 13.3896 20 13.3966 20C13.4036 20 13.4106 20 13.4176 20C13.4246 20 13.4316 20 13.4387 20C13.4457 20 13.4527 20 13.4597 20C13.4668 20 13.4738 20 13.4808 20C13.4878 20 13.4949 20 13.5019 20C13.5089 20 13.516 20 13.523 20C13.53 20 13.5371 20 13.5441 20C13.5512 20 13.5582 20 13.5653 20C13.5723 20 13.5794 20 13.5864 20C13.5935 20 13.6005 20 13.6076 20C13.6147 20 13.6217 20 13.6288 20C13.6359 20 13.6429 20 13.65 20C13.6571 20 13.6642 20 13.6712 20C13.6783 20 13.6854 20 13.6925 20C13.6996 20 13.7067 20 13.7137 20C13.7208 20 13.7279 20 13.735 20C13.7421 20 13.7492 20 13.7563 20C13.7634 20 13.7705 20 13.7776 20C13.7847 20 13.7918 20 13.799 20C13.8061 20 13.8132 20 13.8203 20C13.8274 20 13.8346 20 13.8417 20C13.8488 20 13.8559 20 13.8631 20C13.8702 20 13.8773 20 13.8845 20C13.8916 20 13.8987 20 13.9059 20C13.913 20 13.9202 20 13.9273 20C13.9345 20 13.9416 20 13.9488 20C13.956 20 13.9631 20 13.9703 20C13.9774 20 13.9846 20 13.9918 20C13.9989 20 14.0061 20 14.0133 20C14.0205 20 14.0276 20 14.0348 20C14.042 20 14.0492 20 14.0564 20C14.0636 20 14.0708 20 14.078 20C14.0851 20 14.0923 20 14.0995 20C14.1067 20 14.114 20 14.1212 20C14.1284 20 14.1356 20 14.1428 20C14.15 20 14.1572 20 14.1644 20C14.1717 20 14.1789 20 14.1861 20C14.1933 20 14.2006 20 14.2078 20C14.215 20 14.2223 20 14.2295 20C14.2368 20 14.244 20 14.2513 20C14.2585 20 14.2658 20 14.273 20C14.2803 20 14.2875 20 14.2948 20C14.3021 20 14.3093 20 14.3166 20C14.3239 20 14.3311 20 14.3384 20C14.3457 20 14.353 20 14.3602 20C14.3675 20 14.3748 20 14.3821 20C14.3894 20 14.3967 20 14.404 20C14.4113 20 14.4186 20 14.4259 20C14.4332 20 14.4405 20 14.4478 20C14.4551 20 14.4624 20 14.4698 20C14.4771 20 14.4844 20 14.4917 20C14.499 20 14.5064 20 14.5137 20C14.521 20 14.5284 20 14.5357 20C14.5431 20 14.5504 20 14.5577 20C14.5651 20 14.5724 20 14.5798 20C14.5872 20 14.5945 20 14.6019 20C14.6092 20 14.6166 20 14.624 20C14.6313 20 14.6387 20 14.6461 20C14.6535 20 14.6609 20 14.6682 20C14.6756 20 14.683 20 14.6904 20C14.6978 20 14.7052 20 14.7126 20C14.72 20 14.7274 20 14.7348 20C14.7422 20 14.7496 20 14.7571 20C14.7645 20 14.7719 20 14.7793 20C14.7867 20 14.7942 20 14.8016 20C14.809 20 14.8165 20 14.8239 20C14.8313 20 14.8388 20 14.8462 20C14.8537 20 14.8611 20 14.8686 20C14.876 20 14.8835 20 14.891 20C14.8984 20 14.9059 20 14.9134 20C14.9208 20 14.9283 20 14.9358 20C14.9433 20 14.9508 20 14.9582 20C14.9657 20 14.9732 20 14.9807 20C14.9882 20 14.9957 20 15.0032 20C15.0107 20 15.0182 20 15.0257 20C15.0332 20 15.0408 20 15.0483 20C15.0558 20 15.0633 20 15.0709 20C15.0784 20 15.0859 20 15.0935 20C15.101 20 15.1085 20 15.1161 20C15.1236 20 15.1312 20 15.1387 20C15.1463 20 15.1538 20 15.1614 20C15.169 20 15.1765 20 15.1841 20C15.1917 20 15.1992 20 15.2068 20C15.2144 20 15.222 20 15.2296 20C15.2372 20 15.2448 20 15.2523 20C15.2599 20 15.2675 20 15.2751 20C15.2828 20 15.2904 20 15.298 20C15.3056 20 15.3132 20 15.3208 20C15.3285 20 15.3361 20 15.3437 20C15.3513 20 15.359 20 15.3666 20C15.3743 20 15.3819 20 15.3896 20C15.3972 20 15.4049 20 15.4125 20C15.4202 20 15.4278 20 15.4355 20C15.4432 20 15.4508 20 15.4585 20C15.4662 20 15.4739 20 15.4816 20C15.4892 20 15.4969 20 15.5046 20C15.5123 20 15.52 20 15.5277 20C15.5354 20 15.5431 20 15.5508 20C15.5585 20 15.5663 20 15.574 20C15.5817 20 15.5894 20 15.5972 20C15.6049 20 15.6126 20 15.6204 20C15.6281 20 15.6359 20 15.6436 20C15.6514 20 15.6591 20 15.6669 20C15.6746 20 15.6824 20 15.6902 20C15.6979 20 15.7057 20 15.7135 20C15.7212 20 15.729 20 15.7368 20C15.7446 20 15.7524 20 15.7602 20C15.768 20 15.7758 20 15.7836 20C15.7914 20 15.7992 20 15.807 20C15.8148 20 15.8227 20 15.8305 20C15.8383 20 15.8461 20 15.854 20C15.8618 20 15.8696 20 15.8775 20C15.8853 20 15.8932 20 15.901 20C15.9089 20 15.9168 20 15.9246 20C15.9325 20 15.9403 20 15.9482 20C15.9561 20 15.964 20 15.9719 20C15.9797 20 15.9876 20 15.9955 20C16.0034 20 16.0113 20 16.0192 20C16.0271 20 16.035 20 16.0429 20C16.0509 20 16.0588 20 16.0667 20C16.0746 20 16.0826 20 16.0905 20C16.0984 20 16.1064 20 16.1143 20C16.1222 20 16.1302 20 16.1381 20C16.1461 20 16.1541 20 16.162 20C16.17 20 16.178 20 16.1859 20C16.1939 20 16.2019 20 16.2099 20C16.2179 20 16.2258 20 16.2338 20C16.2418 20 16.2498 20 16.2578 20C16.2658 20 16.2739 20 16.2819 20C16.2899 20 16.2979 20 16.3059 20C16.314 20 16.322 20 16.33 20C16.3381 20 16.3461 20 16.3541 20C16.3622 20 16.3702 20 16.3783 20C16.3864 20 16.3944 20 16.4025 20C16.4106 20 16.4186 20 16.4267 20C16.4348 20 16.4429 20 16.451 20C16.4591 20 16.4671 20 16.4752 20C16.4833 20 16.4915 20 16.4996 20C16.5077 20 16.5158 20 16.5239 20C16.532 20 16.5402 20 16.5483 20C16.5564 20 16.5646 20 16.5727 20C16.5808 20 16.589 20 16.5972 20C16.6053 20 16.6135 20 16.6216 20C16.6298 20 16.638 20 16.6461 20C16.6543 20 16.6625 20 16.6707 20C16.6789 20 16.6871 20 16.6953 20C16.7035 20 16.7117 20 16.7199 20C16.7281 20 16.7363 20 16.7445 20C16.7527 20 16.761 20 16.7692 20C16.7774 20 16.7857 20 16.7939 20C16.8022 20 16.8104 20 16.8187 20C16.8269 20 16.8352 20 16.8434 20C16.8517 20 16.86 20 16.8683 20C16.8765 20 16.8848 20 16.8931 20C16.9014 20 16.9097 20 16.918 20C16.9263 20 16.9346 20 16.9429 20C16.9512 20 16.9595 20 16.9678 20C16.9762 20 16.9845 20 16.9928 20C17.0012 20 17.0095 20 17.0179 20C17.0262 20 17.0346 20 17.0429 20C17.0513 20 17.0596 20 17.068 20C17.0764 20 17.0847 20 17.0931 20C17.1015 20 17.1099 20 17.1183 20C17.1267 20 17.1351 20 17.1435 20C17.1519 20 17.1603 20 17.1687 20C17.1771 20 17.1856 20 17.194 20C17.2024 20 17.2108 20 17.2193 20C17.2277 20 17.2362 20 17.2446 20C17.2531 20 17.2615 20 17.27 20C17.2785 20 17.2869 20 17.2954 20C17.3039 20 17.3124 20 17.3209 20C17.3293 20 17.3378 20 17.3463 20C17.3548 20 17.3633 20 17.3719 20C17.3804 20 17.3889 20 17.3974 20C17.4059 20 17.4145 20 17.423 20C17.4315 20 17.4401 20 17.4486 20C17.4572 20 17.4657 20 17.4743 20C17.4829 20 17.4914 20 17.5 20V18C17.4914 18 17.4829 18 17.4743 18C17.4657 18 17.4572 18 17.4486 18C17.4401 18 17.4315 18 17.423 18C17.4145 18 17.4059 18 17.3974 18C17.3889 18 17.3804 18 17.3719 18C17.3633 18 17.3548 18 17.3463 18C17.3378 18 17.3293 18 17.3209 18C17.3124 18 17.3039 18 17.2954 18C17.2869 18 17.2785 18 17.27 18C17.2615 18 17.2531 18 17.2446 18C17.2362 18 17.2277 18 17.2193 18C17.2108 18 17.2024 18 17.194 18C17.1856 18 17.1771 18 17.1687 18C17.1603 18 17.1519 18 17.1435 18C17.1351 18 17.1267 18 17.1183 18C17.1099 18 17.1015 18 17.0931 18C17.0847 18 17.0764 18 17.068 18C17.0596 18 17.0513 18 17.0429 18C17.0346 18 17.0262 18 17.0179 18C17.0095 18 17.0012 18 16.9928 18C16.9845 18 16.9762 18 16.9678 18C16.9595 18 16.9512 18 16.9429 18C16.9346 18 16.9263 18 16.918 18C16.9097 18 16.9014 18 16.8931 18C16.8848 18 16.8765 18 16.8683 18C16.86 18 16.8517 18 16.8434 18C16.8352 18 16.8269 18 16.8187 18C16.8104 18 16.8022 18 16.7939 18C16.7857 18 16.7774 18 16.7692 18C16.761 18 16.7527 18 16.7445 18C16.7363 18 16.7281 18 16.7199 18C16.7117 18 16.7035 18 16.6953 18C16.6871 18 16.6789 18 16.6707 18C16.6625 18 16.6543 18 16.6461 18C16.638 18 16.6298 18 16.6216 18C16.6135 18 16.6053 18 16.5972 18C16.589 18 16.5808 18 16.5727 18C16.5646 18 16.5564 18 16.5483 18C16.5402 18 16.532 18 16.5239 18C16.5158 18 16.5077 18 16.4996 18C16.4915 18 16.4833 18 16.4752 18C16.4671 18 16.4591 18 16.451 18C16.4429 18 16.4348 18 16.4267 18C16.4186 18 16.4106 18 16.4025 18C16.3944 18 16.3864 18 16.3783 18C16.3702 18 16.3622 18 16.3541 18C16.3461 18 16.3381 18 16.33 18C16.322 18 16.314 18 16.3059 18C16.2979 18 16.2899 18 16.2819 18C16.2739 18 16.2658 18 16.2578 18C16.2498 18 16.2418 18 16.2338 18C16.2258 18 16.2179 18 16.2099 18C16.2019 18 16.1939 18 16.1859 18C16.178 18 16.17 18 16.162 18C16.1541 18 16.1461 18 16.1381 18C16.1302 18 16.1222 18 16.1143 18C16.1064 18 16.0984 18 16.0905 18C16.0826 18 16.0746 18 16.0667 18C16.0588 18 16.0509 18 16.0429 18C16.035 18 16.0271 18 16.0192 18C16.0113 18 16.0034 18 15.9955 18C15.9876 18 15.9797 18 15.9719 18C15.964 18 15.9561 18 15.9482 18C15.9403 18 15.9325 18 15.9246 18C15.9168 18 15.9089 18 15.901 18C15.8932 18 15.8853 18 15.8775 18C15.8696 18 15.8618 18 15.854 18C15.8461 18 15.8383 18 15.8305 18C15.8227 18 15.8148 18 15.807 18C15.7992 18 15.7914 18 15.7836 18C15.7758 18 15.768 18 15.7602 18C15.7524 18 15.7446 18 15.7368 18C15.729 18 15.7212 18 15.7135 18C15.7057 18 15.6979 18 15.6902 18C15.6824 18 15.6746 18 15.6669 18C15.6591 18 15.6514 18 15.6436 18C15.6359 18 15.6281 18 15.6204 18C15.6126 18 15.6049 18 15.5972 18C15.5894 18 15.5817 18 15.574 18C15.5663 18 15.5585 18 15.5508 18C15.5431 18 15.5354 18 15.5277 18C15.52 18 15.5123 18 15.5046 18C15.4969 18 15.4892 18 15.4816 18C15.4739 18 15.4662 18 15.4585 18C15.4508 18 15.4432 18 15.4355 18C15.4278 18 15.4202 18 15.4125 18C15.4049 18 15.3972 18 15.3896 18C15.3819 18 15.3743 18 15.3666 18C15.359 18 15.3513 18 15.3437 18C15.3361 18 15.3285 18 15.3208 18C15.3132 18 15.3056 18 15.298 18C15.2904 18 15.2828 18 15.2751 18C15.2675 18 15.2599 18 15.2523 18C15.2448 18 15.2372 18 15.2296 18C15.222 18 15.2144 18 15.2068 18C15.1992 18 15.1917 18 15.1841 18C15.1765 18 15.169 18 15.1614 18C15.1538 18 15.1463 18 15.1387 18C15.1312 18 15.1236 18 15.1161 18C15.1085 18 15.101 18 15.0935 18C15.0859 18 15.0784 18 15.0709 18C15.0633 18 15.0558 18 15.0483 18C15.0408 18 15.0332 18 15.0257 18C15.0182 18 15.0107 18 15.0032 18C14.9957 18 14.9882 18 14.9807 18C14.9732 18 14.9657 18 14.9582 18C14.9508 18 14.9433 18 14.9358 18C14.9283 18 14.9208 18 14.9134 18C14.9059 18 14.8984 18 14.891 18C14.8835 18 14.876 18 14.8686 18C14.8611 18 14.8537 18 14.8462 18C14.8388 18 14.8313 18 14.8239 18C14.8165 18 14.809 18 14.8016 18C14.7942 18 14.7867 18 14.7793 18C14.7719 18 14.7645 18 14.7571 18C14.7496 18 14.7422 18 14.7348 18C14.7274 18 14.72 18 14.7126 18C14.7052 18 14.6978 18 14.6904 18C14.683 18 14.6756 18 14.6682 18C14.6609 18 14.6535 18 14.6461 18C14.6387 18 14.6313 18 14.624 18C14.6166 18 14.6092 18 14.6019 18C14.5945 18 14.5872 18 14.5798 18C14.5724 18 14.5651 18 14.5577 18C14.5504 18 14.5431 18 14.5357 18C14.5284 18 14.521 18 14.5137 18C14.5064 18 14.499 18 14.4917 18C14.4844 18 14.4771 18 14.4698 18C14.4624 18 14.4551 18 14.4478 18C14.4405 18 14.4332 18 14.4259 18C14.4186 18 14.4113 18 14.404 18C14.3967 18 14.3894 18 14.3821 18C14.3748 18 14.3675 18 14.3602 18C14.353 18 14.3457 18 14.3384 18C14.3311 18 14.3239 18 14.3166 18C14.3093 18 14.3021 18 14.2948 18C14.2875 18 14.2803 18 14.273 18C14.2658 18 14.2585 18 14.2513 18C14.244 18 14.2368 18 14.2295 18C14.2223 18 14.215 18 14.2078 18C14.2006 18 14.1933 18 14.1861 18C14.1789 18 14.1717 18 14.1644 18C14.1572 18 14.15 18 14.1428 18C14.1356 18 14.1284 18 14.1212 18C14.114 18 14.1067 18 14.0995 18C14.0923 18 14.0851 18 14.078 18C14.0708 18 14.0636 18 14.0564 18C14.0492 18 14.042 18 14.0348 18C14.0276 18 14.0205 18 14.0133 18C14.0061 18 13.9989 18 13.9918 18C13.9846 18 13.9774 18 13.9703 18C13.9631 18 13.956 18 13.9488 18C13.9416 18 13.9345 18 13.9273 18C13.9202 18 13.913 18 13.9059 18C13.8987 18 13.8916 18 13.8845 18C13.8773 18 13.8702 18 13.8631 18C13.8559 18 13.8488 18 13.8417 18C13.8346 18 13.8274 18 13.8203 18C13.8132 18 13.8061 18 13.799 18C13.7918 18 13.7847 18 13.7776 18C13.7705 18 13.7634 18 13.7563 18C13.7492 18 13.7421 18 13.735 18C13.7279 18 13.7208 18 13.7137 18C13.7067 18 13.6996 18 13.6925 18C13.6854 18 13.6783 18 13.6712 18C13.6642 18 13.6571 18 13.65 18C13.6429 18 13.6359 18 13.6288 18C13.6217 18 13.6147 18 13.6076 18C13.6005 18 13.5935 18 13.5864 18C13.5794 18 13.5723 18 13.5653 18C13.5582 18 13.5512 18 13.5441 18C13.5371 18 13.53 18 13.523 18C13.516 18 13.5089 18 13.5019 18C13.4949 18 13.4878 18 13.4808 18C13.4738 18 13.4668 18 13.4597 18C13.4527 18 13.4457 18 13.4387 18C13.4316 18 13.4246 18 13.4176 18C13.4106 18 13.4036 18 13.3966 18C13.3896 18 13.3826 18 13.3756 18C13.3686 18 13.3616 18 13.3546 18C13.3476 18 13.3406 18 13.3336 18C13.3266 18 13.3196 18 13.3126 18C13.3056 18 13.2987 18 13.2917 18C13.2847 18 13.2777 18 13.2707 18C13.2638 18 13.2568 18 13.2498 18C13.2428 18 13.2359 18 13.2289 18C13.2219 18 13.215 18 13.208 18C13.2011 18 13.1941 18 13.1871 18C13.1802 18 13.1732 18 13.1663 18C13.1593 18 13.1524 18 13.1454 18C13.1385 18 13.1315 18 13.1246 18C13.1177 18 13.1107 18 13.1038 18C13.0968 18 13.0899 18 13.083 18C13.076 18 13.0691 18 13.0622 18C13.0552 18 13.0483 18 13.0414 18C13.0345 18 13.0276 18 13.0206 18C13.0137 18 13.0068 18 12.9999 18C12.993 18 12.9861 18 12.9791 18C12.9722 18 12.9653 18 12.9584 18C12.9515 18 12.9446 18 12.9377 18C12.9308 18 12.9239 18 12.917 18C12.9101 18 12.9032 18 12.8963 18C12.8894 18 12.8825 18 12.8756 18C12.8688 18 12.8619 18 12.855 18C12.8481 18 12.8412 18 12.8343 18C12.8275 18 12.8206 18 12.8137 18C12.8068 18 12.7999 18 12.7931 18C12.7862 18 12.7793 18 12.7725 18C12.7656 18 12.7587 18 12.7519 18C12.745 18 12.7381 18 12.7313 18C12.7244 18 12.7176 18 12.7107 18C12.7038 18 12.697 18 12.6901 18C12.6833 18 12.6764 18 12.6696 18C12.6627 18 12.6559 18 12.649 18C12.6422 18 12.6354 18 12.6285 18C12.6217 18 12.6148 18 12.608 18C12.6012 18 12.5943 18 12.5875 18C12.5807 18 12.5738 18 12.567 18C12.5602 18 12.5533 18 12.5465 18C12.5397 18 12.5329 18 12.526 18C12.5192 18 12.5124 18 12.5056 18C12.4987 18 12.4919 18 12.4851 18C12.4783 18 12.4715 18 12.4647 18C12.4579 18 12.451 18 12.4442 18C12.4374 18 12.4306 18 12.4238 18C12.417 18 12.4102 18 12.4034 18C12.3966 18 12.3898 18 12.383 18C12.3762 18 12.3694 18 12.3626 18C12.3558 18 12.349 18 12.3422 18C12.3354 18 12.3286 18 12.3218 18C12.3151 18 12.3083 18 12.3015 18C12.2947 18 12.2879 18 12.2811 18C12.2743 18 12.2676 18 12.2608 18C12.254 18 12.2472 18 12.2404 18C12.2337 18 12.2269 18 12.2201 18C12.2133 18 12.2066 18 12.1998 18C12.193 18 12.1862 18 12.1795 18C12.1727 18 12.1659 18 12.1592 18C12.1524 18 12.1456 18 12.1389 18C12.1321 18 12.1254 18 12.1186 18C12.1118 18 12.1051 18 12.0983 18C12.0916 18 12.0848 18 12.078 18C12.0713 18 12.0645 18 12.0578 18C12.051 18 12.0443 18 12.0375 18C12.0308 18 12.024 18 12.0173 18C12.0105 18 12.0038 18 11.997 18C11.9903 18 11.9836 18 11.9768 18C11.9701 18 11.9633 18 11.9566 18C11.9499 18 11.9431 18 11.9364 18C11.9296 18 11.9229 18 11.9162 18C11.9094 18 11.9027 18 11.896 18C11.8892 18 11.8825 18 11.8758 18C11.869 18 11.8623 18 11.8556 18C11.8488 18 11.8421 18 11.8354 18C11.8287 18 11.8219 18 11.8152 18C11.8085 18 11.8018 18 11.795 18C11.7883 18 11.7816 18 11.7749 18C11.7682 18 11.7614 18 11.7547 18C11.748 18 11.7413 18 11.7346 18C11.7279 18 11.7211 18 11.7144 18C11.7077 18 11.701 18 11.6943 18C11.6876 18 11.6809 18 11.6742 18C11.6674 18 11.6607 18 11.654 18C11.6473 18 11.6406 18 11.6339 18C11.6272 18 11.6205 18 11.6138 18C11.6071 18 11.6004 18 11.5937 18C11.587 18 11.5803 18 11.5736 18C11.5669 18 11.5602 18 11.5535 18C11.5468 18 11.5401 18 11.5334 18C11.5267 18 11.52 18 11.5133 18C11.5066 18 11.4999 18 11.4932 18C11.4865 18 11.4798 18 11.4731 18C11.4664 18 11.4597 18 11.453 18C11.4463 18 11.4396 18 11.433 18C11.4263 18 11.4196 18 11.4129 18C11.4062 18 11.3995 18 11.3928 18C11.3861 18 11.3794 18 11.3728 18C11.3661 18 11.3594 18 11.3527 18C11.346 18 11.3393 18 11.3326 18C11.3259 18 11.3193 18 11.3126 18C11.3059 18 11.2992 18 11.2925 18C11.2858 18 11.2792 18 11.2725 18C11.2658 18 11.2591 18 11.2524 18C11.2458 18 11.2391 18 11.2324 18C11.2257 18 11.219 18 11.2124 18C11.2057 18 11.199 18 11.1923 18C11.1857 18 11.179 18 11.1723 18C11.1656 18 11.1589 18 11.1523 18C11.1456 18 11.1389 18 11.1322 18C11.1256 18 11.1189 18 11.1122 18C11.1055 18 11.0989 18 11.0922 18C11.0855 18 11.0789 18 11.0722 18C11.0655 18 11.0588 18 11.0522 18C11.0455 18 11.0388 18 11.0321 18C11.0255 18 11.0188 18 11.0121 18C11.0055 18 10.9988 18 10.9921 18C10.9854 18 10.9788 18 10.9721 18C10.9654 18 10.9588 18 10.9521 18C10.9454 18 10.9388 18 10.9321 18C10.9254 18 10.9187 18 10.9121 18C10.9054 18 10.8987 18 10.8921 18C10.8854 18 10.8787 18 10.8721 18C10.8654 18 10.8587 18 10.8521 18C10.8454 18 10.8387 18 10.832 18C10.8254 18 10.8187 18 10.812 18C10.8054 18 10.7987 18 10.792 18C10.7854 18 10.7787 18 10.772 18C10.7654 18 10.7587 18 10.752 18C10.7454 18 10.7387 18 10.732 18C10.7254 18 10.7187 18 10.712 18C10.7054 18 10.6987 18 10.692 18C10.6853 18 10.6787 18 10.672 18C10.6653 18 10.6587 18 10.652 18C10.6453 18 10.6387 18 10.632 18C10.6253 18 10.6187 18 10.612 18C10.6053 18 10.5987 18 10.592 18C10.5853 18 10.5786 18 10.572 18C10.5653 18 10.5586 18 10.552 18C10.5453 18 10.5386 18 10.532 18C10.5253 18 10.5186 18 10.5119 18C10.5053 18 10.4986 18 10.4919 18C10.4853 18 10.4786 18 10.4719 18C10.4652 18 10.4586 18 10.4519 18C10.4452 18 10.4386 18 10.4319 18C10.4252 18 10.4185 18 10.4119 18C10.4052 18 10.3985 18 10.3918 18C10.3852 18 10.3785 18 10.3718 18C10.3651 18 10.3585 18 10.3518 18C10.3451 18 10.3384 18 10.3318 18C10.3251 18 10.3184 18 10.3117 18C10.305 18 10.2984 18 10.2917 18C10.285 18 10.2783 18 10.2716 18C10.265 18 10.2583 18 10.2516 18C10.2449 18 10.2382 18 10.2316 18C10.2249 18 10.2182 18 10.2115 18C10.2048 18 10.1981 18 10.1915 18C10.1848 18 10.1781 18 10.1714 18C10.1647 18 10.158 18 10.1514 18C10.1447 18 10.138 18 10.1313 18C10.1246 18 10.1179 18 10.1112 18C10.1045 18 10.0978 18 10.0912 18C10.0845 18 10.0778 18 10.0711 18C10.0644 18 10.0577 18 10.051 18C10.0443 18 10.0376 18 10.0309 18C10.0242 18 10.0175 18 10.0108 18C10.0041 18 9.99745 18 9.99075 18C9.98405 18 9.97736 18 9.97066 18C9.96396 18 9.95726 18 9.95056 18C9.94386 18 9.93716 18 9.93045 18C9.92375 18 9.91705 18 9.91035 18C9.90364 18 9.89694 18 9.89023 18C9.88353 18 9.87682 18 9.87011 18C9.8634 18 9.8567 18 9.84999 18C9.84328 18 9.83657 18 9.82986 18C9.82315 18 9.81643 18 9.80972 18C9.80301 18 9.79629 18 9.78958 18C9.78287 18 9.77615 18 9.76943 18C9.76272 18 9.756 18 9.74928 18C9.74256 18 9.73584 18 9.72912 18C9.7224 18 9.71568 18 9.70896 18C9.70223 18 9.69551 18 9.68878 18C9.68206 18 9.67533 18 9.66861 18C9.66188 18 9.65515 18 9.64842 18C9.64169 18 9.63496 18 9.62823 18C9.6215 18 9.61477 18 9.60803 18C9.6013 18 9.59456 18 9.58783 18C9.58109 18 9.57435 18 9.56762 18C9.56088 18 9.55414 18 9.5474 18C9.54066 18 9.53391 18 9.52717 18C9.52043 18 9.51368 18 9.50694 18C9.50019 18 9.49344 18 9.48669 18C9.47995 18 9.4732 18 9.46645 18C9.4597 18 9.45294 18 9.44619 18C9.43944 18 9.43268 18 9.42593 18C9.41917 18 9.41241 18 9.40565 18C9.39889 18 9.39213 18 9.38537 18C9.37861 18 9.37185 18 9.36508 18C9.35832 18 9.35155 18 9.34479 18C9.33802 18 9.33125 18 9.32448 18C9.31771 18 9.31094 18 9.30417 18C9.29739 18 9.29062 18 9.28384 18C9.27707 18 9.27029 18 9.26351 18C9.25673 18 9.24995 18 9.24317 18C9.23639 18 9.22961 18 9.22282 18C9.21604 18 9.20925 18 9.20246 18C9.19568 18 9.18889 18 9.1821 18C9.1753 18 9.16851 18 9.16172 18C9.15492 18 9.14813 18 9.14133 18C9.13453 18 9.12773 18 9.12093 18C9.11413 18 9.10733 18 9.10053 18C9.09372 18 9.08692 18 9.08011 18C9.0733 18 9.06649 18 9.05968 18C9.05287 18 9.04606 18 9.03925 18C9.03243 18 9.02562 18 9.0188 18C9.01198 18 9.00516 18 8.99834 18C8.99152 18 8.9847 18 8.97787 18C8.97105 18 8.96422 18 8.9574 18C8.95057 18 8.94374 18 8.93691 18C8.93007 18 8.92324 18 8.91641 18C8.90957 18 8.90273 18 8.89589 18C8.88906 18 8.88222 18 8.87537 18C8.86853 18 8.86169 18 8.85484 18C8.84799 18 8.84114 18 8.83429 18C8.82744 18 8.82059 18 8.81374 18C8.80688 18 8.80003 18 8.79317 18C8.78631 18 8.77945 18 8.77259 18C8.76573 18 8.75886 18 8.752 18C8.74513 18 8.73826 18 8.73139 18C8.72452 18 8.71765 18 8.71078 18C8.7039 18 8.69703 18 8.69015 18C8.68327 18 8.67639 18 8.66951 18C8.66263 18 8.65574 18 8.64886 18C8.64197 18 8.63508 18 8.62819 18C8.6213 18 8.61441 18 8.60751 18C8.60062 18 8.59372 18 8.58682 18C8.57992 18 8.57302 18 8.56612 18C8.55922 18 8.55231 18 8.5454 18C8.5385 18 8.53159 18 8.52467 18C8.51776 18 8.51085 18 8.50393 18C8.49701 18 8.49009 18 8.48317 18C8.47625 18 8.46933 18 8.4624 18C8.45548 18 8.44855 18 8.44162 18C8.43469 18 8.42776 18 8.42082 18C8.41389 18 8.40695 18 8.40001 18C8.39307 18 8.38613 18 8.37919 18C8.37224 18 8.36529 18 8.35835 18C8.3514 18 8.34445 18 8.33749 18C8.33054 18 8.32358 18 8.31662 18C8.30966 18 8.3027 18 8.29574 18C8.28878 18 8.28181 18 8.27484 18C8.26788 18 8.2609 18 8.25393 18C8.24696 18 8.23998 18 8.233 18C8.22603 18 8.21905 18 8.21206 18C8.20508 18 8.19809 18 8.1911 18C8.18412 18 8.17713 18 8.17013 18C8.16314 18 8.15614 18 8.14915 18C8.14215 18 8.13515 18 8.12814 18C8.12114 18 8.11413 18 8.10712 18C8.10011 18 8.0931 18 8.08609 18C8.07907 18 8.07206 18 8.06504 18C8.05802 18 8.051 18 8.04397 18C8.03695 18 8.02992 18 8.02289 18C8.01586 18 8.00883 18 8.00179 18C7.99476 18 7.98772 18 7.98068 18C7.97364 18 7.96659 18 7.95955 18C7.9525 18 7.94545 18 7.9384 18C7.93135 18 7.92429 18 7.91723 18C7.91018 18 7.90312 18 7.89605 18C7.88899 18 7.88192 18 7.87485 18C7.86778 18 7.86071 18 7.85364 18C7.84656 18 7.83949 18 7.83241 18C7.82533 18 7.81824 18 7.81116 18C7.80407 18 7.79698 18 7.78989 18C7.7828 18 7.7757 18 7.76861 18C7.76151 18 7.75441 18 7.7473 18C7.7402 18 7.73309 18 7.72598 18C7.71887 18 7.71176 18 7.70465 18C7.69753 18 7.69041 18 7.68329 18C7.67617 18 7.66904 18 7.66192 18C7.65479 18 7.64766 18 7.64052 18C7.63339 18 7.62625 18 7.61911 18C7.61197 18 7.60483 18 7.59768 18C7.59054 18 7.58339 18 7.57624 18C7.56908 18 7.56193 18 7.55477 18C7.54761 18 7.54045 18 7.53328 18C7.52612 18 7.51895 18 7.51178 18C7.50461 18 7.49744 18 7.49026 18C7.48308 18 7.4759 18 7.46871 18C7.46153 18 7.45434 18 7.44715 18C7.43996 18 7.43277 18 7.42557 18C7.41838 18 7.41117 18 7.40397 18C7.39677 18 7.38956 18 7.38235 18C7.37514 18 7.36793 18 7.36071 18C7.35349 18 7.34627 18 7.33905 18C7.33183 18 7.3246 18 7.31737 18C7.31014 18 7.30291 18 7.29567 18C7.28843 18 7.28119 18 7.27395 18C7.26671 18 7.25946 18 7.25221 18C7.24496 18 7.2377 18 7.23045 18C7.22319 18 7.21593 18 7.20866 18C7.2014 18 7.19413 18 7.18686 18C7.17959 18 7.17231 18 7.16504 18C7.15776 18 7.15048 18 7.14319 18C7.13591 18 7.12862 18 7.12133 18C7.11403 18 7.10674 18 7.09944 18C7.09214 18 7.08484 18 7.07753 18C7.07022 18 7.06291 18 7.0556 18C7.04828 18 7.04097 18 7.03365 18C7.02633 18 7.019 18 7.01167 18C7.00434 18 6.99701 18 6.98968 18C6.98234 18 6.975 18 6.96766 18C6.96032 18 6.95297 18 6.94562 18C6.93827 18 6.93092 18 6.92356 18C6.9162 18 6.90884 18 6.90147 18C6.89411 18 6.88674 18 6.87937 18C6.87199 18 6.86462 18 6.85724 18C6.84986 18 6.84247 18 6.83509 18C6.8277 18 6.82031 18 6.81291 18C6.80552 18 6.79812 18 6.79071 18C6.78331 18 6.7759 18 6.76849 18C6.76108 18 6.75367 18 6.74625 18C6.73883 18 6.73141 18 6.72398 18C6.71656 18 6.70913 18 6.70169 18C6.69426 18 6.68682 18 6.67938 18C6.67193 18 6.66449 18 6.65704 18C6.64959 18 6.64213 18 6.63468 18C6.62722 18 6.61976 18 6.61229 18C6.60483 18 6.59736 18 6.58988 18C6.58241 18 6.57493 18 6.56745 18C6.55997 18 6.55248 18 6.54499 18C6.5375 18 6.53001 18 6.52251 18C6.51501 18 6.50751 18 6.5 18V20Z" fill="#171717"/>
</svg>
