<svg width="24" height="24" viewBox="0 0 24 24" fill="none" xmlns="http://www.w3.org/2000/svg">
<path d="M16.2929 16.2929C15.9024 16.6834 15.9024 17.3166 16.2929 17.7071C16.6834 18.0976 17.3166 18.0976 17.7071 17.7071L16.2929 16.2929ZM22 12L22.7071 12.7071C23.0976 12.3166 23.0976 11.6834 22.7071 11.2929L22 12ZM17.7071 6.29289C17.3166 5.90237 16.6834 5.90237 16.2929 6.29289C15.9024 6.68342 15.9024 7.31658 16.2929 7.70711L17.7071 6.29289ZM7.70711 7.70711C8.09763 7.31658 8.09763 6.68342 7.70711 6.29289C7.31658 5.90237 6.68342 5.90237 6.29289 6.29289L7.70711 7.70711ZM2 12L1.29289 11.2929C0.902369 11.6834 0.902369 12.3166 1.29289 12.7071L2 12ZM6.29289 17.7071C6.68342 18.0976 7.31658 18.0976 7.70711 17.7071C8.09763 17.3166 8.09763 16.6834 7.70711 16.2929L6.29289 17.7071ZM14.9762 3.21693C15.096 2.6778 14.7561 2.14362 14.2169 2.02381C13.6778 1.90401 13.1436 2.24394 13.0238 2.78307L14.9762 3.21693ZM9.02381 20.7831C8.90401 21.3222 9.24394 21.8564 9.78307 21.9762C10.3222 22.096 10.8564 21.7561 10.9762 21.2169L9.02381 20.7831ZM17.7071 17.7071L22.7071 12.7071L21.2929 11.2929L16.2929 16.2929L17.7071 17.7071ZM22.7071 11.2929L17.7071 6.29289L16.2929 7.70711L21.2929 12.7071L22.7071 11.2929ZM6.29289 6.29289L1.29289 11.2929L2.70711 12.7071L7.70711 7.70711L6.29289 6.29289ZM1.29289 12.7071L6.29289 17.7071L7.70711 16.2929L2.70711 11.2929L1.29289 12.7071ZM13.0238 2.78307L9.02381 20.7831L10.9762 21.2169L14.9762 3.21693L13.0238 2.78307Z" fill="#171717"/>
</svg>
