<svg width="24" height="24" viewBox="0 0 24 24" fill="none" xmlns="http://www.w3.org/2000/svg">
<path d="M13 13.9995L13.7995 14.6002C13.9296 14.427 14 14.2162 14 13.9995H13ZM12.5541 19.2901L13.1994 20.0541C13.5557 19.7531 13.6566 19.2459 13.4427 18.8315L12.5541 19.2901ZM3 14C3 13.4477 2.55228 13 2 13C1.44772 13 1 13.4477 1 14H3ZM13.0699 15.6578C13.5095 15.3235 13.5949 14.6961 13.2606 14.2565C12.9264 13.8169 12.299 13.7315 11.8594 14.0658L13.0699 15.6578ZM14 9.5C14 8.94772 13.5523 8.5 13 8.5C12.4477 8.5 12 8.94772 12 9.5H14ZM3 9.5C3 8.94772 2.55228 8.5 2 8.5C1.44772 8.5 1 8.94772 1 9.5H3ZM21 17C21 19.2091 19.2091 21 17 21V23C20.3137 23 23 20.3137 23 17H21ZM17 21C14.7909 21 13 19.2091 13 17H11C11 20.3137 13.6863 23 17 23V21ZM13 17C13 14.7909 14.7909 13 17 13V11C13.6863 11 11 13.6863 11 17H13ZM17 13C19.2091 13 21 14.7909 21 17H23C23 13.6863 20.3137 11 17 11V13ZM12 5C12 4.87504 12.0728 4.88531 11.9159 5.02021C11.7622 5.15231 11.4813 5.3166 11.0473 5.47442C10.1876 5.78707 8.93353 6 7.5 6V8C9.10403 8 10.6 7.76522 11.7308 7.35401C12.2921 7.1499 12.8167 6.88322 13.2197 6.53678C13.6194 6.19312 14 5.67725 14 5H12ZM7.5 6C6.06647 6 4.81243 5.78707 3.95266 5.47442C3.51866 5.3166 3.2378 5.15231 3.08414 5.02021C2.92723 4.88531 3 4.87504 3 5H1C1 5.67725 1.38057 6.19312 1.78029 6.53678C2.18326 6.88322 2.70787 7.1499 3.26917 7.35401C4.4 7.76522 5.89597 8 7.5 8V6ZM3 5C3 5.12496 2.92723 5.11469 3.08414 4.9798C3.2378 4.84769 3.51866 4.6834 3.95266 4.52558C4.81243 4.21293 6.06647 4 7.5 4V2C5.89597 2 4.4 2.23478 3.26917 2.64599C2.70787 2.8501 2.18326 3.11678 1.78029 3.46322C1.38057 3.80688 1 4.32275 1 5H3ZM7.5 4C8.93353 4 10.1876 4.21293 11.0473 4.52558C11.4813 4.6834 11.7622 4.84769 11.9159 4.9798C12.0728 5.11469 12 5.12496 12 5H14C14 4.32275 13.6194 3.80688 13.2197 3.46322C12.8167 3.11678 12.2921 2.8501 11.7308 2.64599C10.6 2.23478 9.10403 2 7.5 2V4ZM14 13.9995V5H12V13.9995H14ZM12.2005 13.3988C11.4469 14.4018 11 15.6502 11 17H13C13 16.0982 13.2972 15.2687 13.7995 14.6002L12.2005 13.3988ZM11 17C11 17.9886 11.2399 18.9242 11.6655 19.7488L13.4427 18.8315C13.1601 18.2838 13 17.6621 13 17H11ZM7.5 21.5C8.70215 21.5 9.8356 21.3682 10.7979 21.1334C11.7352 20.9047 12.6062 20.5552 13.1994 20.0541L11.9088 18.5262C11.6596 18.7367 11.1365 18.9921 10.3238 19.1904C9.53608 19.3826 8.56369 19.5 7.5 19.5V21.5ZM1 18.5C1 19.1772 1.38057 19.6931 1.78029 20.0368C2.18326 20.3832 2.70787 20.6499 3.26917 20.854C4.4 21.2652 5.89597 21.5 7.5 21.5V19.5C6.06647 19.5 4.81243 19.2871 3.95266 18.9744C3.51866 18.8166 3.2378 18.6523 3.08414 18.5202C2.92723 18.3853 3 18.375 3 18.5H1ZM1 5V18.5H3V5H1ZM7.5 15C6.06647 15 4.81243 14.7871 3.95266 14.4744C3.51866 14.3166 3.2378 14.1523 3.08414 14.0202C2.92723 13.8853 3 13.875 3 14H1C1 14.6772 1.38057 15.1931 1.78029 15.5368C2.18326 15.8832 2.70787 16.1499 3.26917 16.354C4.4 16.7652 5.89597 17 7.5 17V15ZM11.8594 14.0658C11.5761 14.2812 11.0366 14.5241 10.2435 14.7096C9.46991 14.8905 8.52727 15 7.5 15V17C8.66174 17 9.75876 16.877 10.6989 16.6571C11.6195 16.4418 12.4679 16.1156 13.0699 15.6578L11.8594 14.0658ZM12 9.5C12 9.37504 12.0728 9.38531 11.9159 9.52021C11.7622 9.65231 11.4813 9.8166 11.0473 9.97442C10.1876 10.2871 8.93353 10.5 7.5 10.5V12.5C9.10403 12.5 10.6 12.2652 11.7308 11.854C12.2921 11.6499 12.8167 11.3832 13.2197 11.0368C13.6194 10.6931 14 10.1772 14 9.5H12ZM7.5 10.5C6.06647 10.5 4.81243 10.2871 3.95266 9.97442C3.51866 9.8166 3.2378 9.65231 3.08414 9.52021C2.92723 9.38531 3 9.37504 3 9.5H1C1 10.1772 1.38057 10.6931 1.78029 11.0368C2.18326 11.3832 2.70787 11.6499 3.26917 11.854C4.4 12.2652 5.89597 12.5 7.5 12.5V10.5Z" fill="#171717"/>
</svg>
