<svg width="24" height="24" viewBox="0 0 24 24" fill="none" xmlns="http://www.w3.org/2000/svg">
<path d="M9.40112 3.28576C9.00665 3.6723 9.00023 4.30544 9.38678 4.6999C9.77332 5.09436 10.4065 5.10079 10.8009 4.71424L9.40112 3.28576ZM19.2857 13.1991C18.8992 13.5936 18.9056 14.2267 19.3 14.6133C19.6945 14.9998 20.3276 14.9934 20.7142 14.599L19.2857 13.1991ZM6.9453 12.1679C6.48577 12.4743 6.3616 13.0952 6.66795 13.5547C6.9743 14.0142 7.59517 14.1384 8.0547 13.8321L6.9453 12.1679ZM9 12H10C10 11.6312 9.79702 11.2923 9.47186 11.1183C9.1467 10.9443 8.75216 10.9634 8.4453 11.1679L9 12ZM8 17.5C8 18.0523 8.44772 18.5 9 18.5C9.55228 18.5 10 18.0523 10 17.5H8ZM7.5 16.5C6.94772 16.5 6.5 16.9477 6.5 17.5C6.5 18.0523 6.94772 18.5 7.5 18.5V16.5ZM10.5 18.5C11.0523 18.5 11.5 18.0523 11.5 17.5C11.5 16.9477 11.0523 16.5 10.5 16.5V18.5ZM23 9C23 4.58172 19.4183 1 15 1V3C18.3137 3 21 5.68629 21 9H23ZM15 1C12.8206 1 10.843 1.87283 9.40112 3.28576L10.8009 4.71424C11.8841 3.65279 13.3648 3 15 3V1ZM20.7142 14.599C22.1271 13.1571 23 11.1795 23 9H21C21 10.6352 20.3472 12.1159 19.2857 13.1991L20.7142 14.599ZM15 15C15 18.3137 12.3137 21 9 21V23C13.4183 23 17 19.4183 17 15H15ZM9 21C5.68629 21 3 18.3137 3 15H1C1 19.4183 4.58172 23 9 23V21ZM3 15C3 11.6863 5.68629 9 9 9V7C4.58172 7 1 10.5817 1 15H3ZM9 9C12.3137 9 15 11.6863 15 15H17C17 10.5817 13.4183 7 9 7V9ZM8.0547 13.8321L9.5547 12.8321L8.4453 11.1679L6.9453 12.1679L8.0547 13.8321ZM8 12V17.5H10V12H8ZM7.5 18.5H10.5V16.5H7.5V18.5Z" fill="#171717"/>
</svg>
