<svg width="24" height="24" viewBox="0 0 24 24" fill="none" xmlns="http://www.w3.org/2000/svg">
<path d="M5 16C5.55228 16 6 15.5523 6 15C6 14.4477 5.55228 14 5 14V16ZM3.23463 14.8478L2.85195 15.7716H2.85195L3.23463 14.8478ZM2.15224 13.7654L1.22836 14.1481H1.22836L2.15224 13.7654ZM3.09202 2.21799L2.63803 1.32698L2.63803 1.32698L3.09202 2.21799ZM2.21799 3.09202L1.32698 2.63803L1.32698 2.63803L2.21799 3.09202ZM13.7654 2.15224L14.1481 1.22836V1.22836L13.7654 2.15224ZM14 5C14 5.55228 14.4477 6 15 6C15.5523 6 16 5.55228 16 5H14ZM14.8478 3.23463L15.7716 2.85195V2.85195L14.8478 3.23463ZM10.092 21.782L10.546 20.891L10.092 21.782ZM9.21799 20.908L10.109 20.454L9.21799 20.908ZM21.782 20.908L20.891 20.454L21.782 20.908ZM20.908 21.782L20.454 20.891L20.908 21.782ZM20.908 9.21799L20.454 10.109L20.908 9.21799ZM21.782 10.092L20.891 10.546L21.782 10.092ZM10.092 9.21799L10.546 10.109L10.092 9.21799ZM9.21799 10.092L10.109 10.546L9.21799 10.092ZM12 1H5.2V3H12V1ZM1 5.2V12H3V5.2H1ZM5 14C4.52038 14 4.21074 13.9995 3.97376 13.9833C3.74576 13.9677 3.65893 13.9411 3.61732 13.9239L2.85195 15.7716C3.17788 15.9066 3.50779 15.9561 3.83762 15.9787C4.15846 16.0005 4.54774 16 5 16V14ZM1 12C1 12.4523 0.999458 12.8415 1.02135 13.1624C1.04385 13.4922 1.09336 13.8221 1.22836 14.1481L3.07612 13.3827C3.05888 13.3411 3.03227 13.2542 3.01671 13.0262C3.00054 12.7893 3 12.4796 3 12H1ZM3.61732 13.9239C3.37229 13.8224 3.17761 13.6277 3.07612 13.3827L1.22836 14.1481C1.53284 14.8831 2.11686 15.4672 2.85195 15.7716L3.61732 13.9239ZM5.2 1C4.65645 1 4.18864 0.999222 3.80497 1.03057C3.40963 1.06287 3.01641 1.13419 2.63803 1.32698L3.54601 3.10899C3.59545 3.0838 3.69617 3.04612 3.96784 3.02393C4.25117 3.00078 4.62345 3 5.2 3V1ZM3 5.2C3 4.62345 3.00078 4.25117 3.02393 3.96784C3.04612 3.69617 3.0838 3.59545 3.10899 3.54601L1.32698 2.63803C1.13419 3.01641 1.06287 3.40963 1.03057 3.80497C0.999222 4.18864 1 4.65645 1 5.2H3ZM2.63803 1.32698C2.07354 1.6146 1.6146 2.07354 1.32698 2.63803L3.10899 3.54601C3.20487 3.35785 3.35785 3.20487 3.54601 3.10899L2.63803 1.32698ZM12 3C12.4796 3 12.7893 3.00054 13.0262 3.01671C13.2542 3.03227 13.3411 3.05888 13.3827 3.07612L14.1481 1.22836C13.8221 1.09336 13.4922 1.04385 13.1624 1.02135C12.8415 0.999458 12.4523 1 12 1V3ZM16 5C16 4.54774 16.0005 4.15846 15.9787 3.83762C15.9561 3.50779 15.9066 3.17788 15.7716 2.85195L13.9239 3.61732C13.9411 3.65893 13.9677 3.74576 13.9833 3.97376C13.9995 4.21074 14 4.52038 14 5H16ZM13.3827 3.07612C13.6277 3.17761 13.8224 3.37229 13.9239 3.61732L15.7716 2.85195C15.4672 2.11686 14.8831 1.53284 14.1481 1.22836L13.3827 3.07612ZM12.2 10H18.8V8H12.2V10ZM21 12.2V18.8H23V12.2H21ZM18.8 21H12.2V23H18.8V21ZM10 18.8V12.2H8V18.8H10ZM12.2 21C11.6234 21 11.2512 20.9992 10.9678 20.9761C10.6962 20.9539 10.5955 20.9162 10.546 20.891L9.63803 22.673C10.0164 22.8658 10.4096 22.9371 10.805 22.9694C11.1886 23.0008 11.6564 23 12.2 23V21ZM8 18.8C8 19.3436 7.99922 19.8114 8.03057 20.195C8.06287 20.5904 8.13419 20.9836 8.32698 21.362L10.109 20.454C10.0838 20.4045 10.0461 20.3038 10.0239 20.0322C10.0008 19.7488 10 19.3766 10 18.8H8ZM10.546 20.891C10.3578 20.7951 10.2049 20.6422 10.109 20.454L8.32698 21.362C8.6146 21.9265 9.07354 22.3854 9.63803 22.673L10.546 20.891ZM21 18.8C21 19.3766 20.9992 19.7488 20.9761 20.0322C20.9539 20.3038 20.9162 20.4045 20.891 20.454L22.673 21.362C22.8658 20.9836 22.9371 20.5904 22.9694 20.195C23.0008 19.8114 23 19.3436 23 18.8H21ZM18.8 23C19.3436 23 19.8114 23.0008 20.195 22.9694C20.5904 22.9371 20.9836 22.8658 21.362 22.673L20.454 20.891C20.4045 20.9162 20.3038 20.9539 20.0322 20.9761C19.7488 20.9992 19.3766 21 18.8 21V23ZM20.891 20.454C20.7951 20.6422 20.6422 20.7951 20.454 20.891L21.362 22.673C21.9265 22.3854 22.3854 21.9265 22.673 21.362L20.891 20.454ZM18.8 10C19.3766 10 19.7488 10.0008 20.0322 10.0239C20.3038 10.0461 20.4045 10.0838 20.454 10.109L21.362 8.32698C20.9836 8.13419 20.5904 8.06287 20.195 8.03057C19.8114 7.99922 19.3436 8 18.8 8V10ZM23 12.2C23 11.6564 23.0008 11.1886 22.9694 10.805C22.9371 10.4096 22.8658 10.0164 22.673 9.63803L20.891 10.546C20.9162 10.5955 20.9539 10.6962 20.9761 10.9678C20.9992 11.2512 21 11.6234 21 12.2H23ZM20.454 10.109C20.6422 10.2049 20.7951 10.3578 20.891 10.546L22.673 9.63803C22.3854 9.07354 21.9265 8.6146 21.362 8.32698L20.454 10.109ZM12.2 8C11.6564 8 11.1886 7.99922 10.805 8.03057C10.4096 8.06287 10.0164 8.13419 9.63803 8.32698L10.546 10.109C10.5955 10.0838 10.6962 10.0461 10.9678 10.0239C11.2512 10.0008 11.6234 10 12.2 10V8ZM10 12.2C10 11.6234 10.0008 11.2512 10.0239 10.9678C10.0461 10.6962 10.0838 10.5955 10.109 10.546L8.32698 9.63803C8.13419 10.0164 8.06287 10.4096 8.03057 10.805C7.99922 11.1886 8 11.6564 8 12.2H10ZM9.63803 8.32698C9.07354 8.6146 8.6146 9.07354 8.32698 9.63803L10.109 10.546C10.2049 10.3578 10.3578 10.2049 10.546 10.109L9.63803 8.32698Z" fill="#171717"/>
</svg>
