<svg width="24" height="24" viewBox="0 0 24 24" fill="none" xmlns="http://www.w3.org/2000/svg">
<path d="M2 5C1.44772 5 1 5.44771 1 6C1 6.55228 1.44772 7 2 7V5ZM17 22C17 22.5523 17.4477 23 18 23C18.5523 23 19 22.5523 19 22H17ZM16.908 6.21799L16.454 7.10899L16.454 7.10899L16.908 6.21799ZM17.782 7.09202L16.891 7.54601L17.782 7.09202ZM22 19C22.5523 19 23 18.5523 23 18C23 17.4477 22.5523 17 22 17V19ZM9.2 18V19V18ZM7 2C7 1.44772 6.55228 1 6 1C5.44771 1 5 1.44772 5 2H7ZM7.09202 17.782L7.54601 16.891L7.09202 17.782ZM6.21799 16.908L7.10899 16.454L7.10899 16.454L6.21799 16.908ZM2 7H14.8V5H2V7ZM17 9.2V22H19V9.2H17ZM14.8 7C15.3766 7 15.7488 7.00078 16.0322 7.02393C16.3038 7.04612 16.4045 7.0838 16.454 7.10899L17.362 5.32698C16.9836 5.13419 16.5904 5.06287 16.195 5.03057C15.8114 4.99922 15.3436 5 14.8 5V7ZM19 9.2C19 8.65645 19.0008 8.18864 18.9694 7.80497C18.9371 7.40963 18.8658 7.01641 18.673 6.63803L16.891 7.54601C16.9162 7.59545 16.9539 7.69617 16.9761 7.96783C16.9992 8.25117 17 8.62345 17 9.2H19ZM16.454 7.10899C16.6422 7.20487 16.7951 7.35785 16.891 7.54601L18.673 6.63803C18.3854 6.07354 17.9265 5.6146 17.362 5.32698L16.454 7.10899ZM22 17L9.2 17V19L22 19V17ZM7 14.8V2H5V14.8H7ZM9.2 17C8.62345 17 8.25117 16.9992 7.96784 16.9761C7.69617 16.9539 7.59545 16.9162 7.54601 16.891L6.63803 18.673C7.01641 18.8658 7.40963 18.9371 7.80497 18.9694C8.18864 19.0008 8.65645 19 9.2 19V17ZM5 14.8C5 15.3436 4.99922 15.8114 5.03057 16.195C5.06287 16.5904 5.13419 16.9836 5.32698 17.362L7.10899 16.454C7.0838 16.4045 7.04612 16.3038 7.02393 16.0322C7.00078 15.7488 7 15.3766 7 14.8H5ZM7.54601 16.891C7.35785 16.7951 7.20487 16.6422 7.10899 16.454L5.32698 17.362C5.6146 17.9265 6.07354 18.3854 6.63803 18.673L7.54601 16.891Z" fill="#171717"/>
</svg>
