<svg width="24" height="24" viewBox="0 0 24 24" fill="none" xmlns="http://www.w3.org/2000/svg">
<path d="M22 12C22 11.4477 21.5523 11 21 11C20.4477 11 20 11.4477 20 12H22ZM4 12C4 11.4477 3.55228 11 3 11C2.44772 11 2 11.4477 2 12H4ZM20 5C20 5.00073 20.0001 5.00494 19.9969 5.01529C19.9935 5.02644 19.9852 5.04845 19.9649 5.08143C19.9225 5.15057 19.8359 5.25453 19.6738 5.38232C19.3436 5.64253 18.8038 5.9206 18.0477 6.17264C16.546 6.67322 14.4077 7 12 7V9C14.5629 9 16.9246 8.6552 18.6802 8.07C19.5528 7.77915 20.331 7.41077 20.9117 6.95315C21.4811 6.50441 22 5.85195 22 5H20ZM12 7C9.59229 7 7.45402 6.67322 5.95227 6.17264C5.19616 5.9206 4.65642 5.64253 4.32624 5.38232C4.16408 5.25453 4.07752 5.15057 4.03507 5.08143C4.01483 5.04845 4.00645 5.02644 4.00305 5.01529C3.9999 5.00494 4 5.00073 4 5H2C2 5.85195 2.51889 6.50441 3.08829 6.95315C3.66896 7.41077 4.44724 7.77915 5.31981 8.07C7.07541 8.6552 9.43715 9 12 9V7ZM4 5C4 4.99927 3.9999 4.99506 4.00305 4.98471C4.00645 4.97356 4.01483 4.95155 4.03507 4.91857C4.07752 4.84943 4.16408 4.74547 4.32624 4.61768C4.65642 4.35747 5.19616 4.0794 5.95227 3.82736C7.45402 3.32678 9.59229 3 12 3V1C9.43715 1 7.07541 1.3448 5.31981 1.93C4.44724 2.22085 3.66896 2.58923 3.08829 3.04685C2.51889 3.49559 2 4.14805 2 5H4ZM12 3C14.4077 3 16.546 3.32678 18.0477 3.82736C18.8038 4.0794 19.3436 4.35747 19.6738 4.61768C19.8359 4.74547 19.9225 4.84943 19.9649 4.91857C19.9852 4.95155 19.9935 4.97356 19.9969 4.98471C20.0001 4.99506 20 4.99927 20 5H22C22 4.14805 21.4811 3.49559 20.9117 3.04685C20.331 2.58923 19.5528 2.22085 18.6802 1.93C16.9246 1.3448 14.5629 1 12 1V3ZM20 12C20 12.0019 19.9999 12.007 19.9966 12.018C19.993 12.0298 19.9846 12.0521 19.9644 12.0851C19.9223 12.1543 19.8365 12.258 19.6758 12.3853C19.3484 12.6447 18.8121 12.9223 18.0583 13.174C16.5611 13.6738 14.4232 14 12 14V16C14.5768 16 16.9389 15.6562 18.6917 15.071C19.5629 14.7802 20.3391 14.4115 20.9179 13.9528C21.4868 13.502 22 12.8494 22 12H20ZM12 14C9.57676 14 7.43891 13.6738 5.94167 13.174C5.18788 12.9223 4.65159 12.6447 4.32419 12.3853C4.16348 12.258 4.07772 12.1543 4.03558 12.0851C4.01544 12.0521 4.00695 12.0298 4.0034 12.018C4.00008 12.007 4 12.0019 4 12H2C2 12.8494 2.51319 13.502 3.08206 13.9528C3.66091 14.4115 4.43712 14.7802 5.30833 15.071C7.06109 15.6562 9.42324 16 12 16V14ZM2 5V19H4V5H2ZM2 19C2 19.8494 2.51319 20.502 3.08206 20.9528C3.66091 21.4115 4.43712 21.7802 5.30833 22.071C7.06109 22.6562 9.42324 23 12 23V21C9.57676 21 7.43891 20.6738 5.94167 20.174C5.18788 19.9223 4.65159 19.6447 4.32419 19.3853C4.16348 19.258 4.07772 19.1543 4.03558 19.0851C4.01544 19.0521 4.00695 19.0298 4.0034 19.018C4.00008 19.007 4 19.0019 4 19H2ZM12 23C14.5768 23 16.9389 22.6562 18.6917 22.071C19.5629 21.7802 20.3391 21.4115 20.9179 20.9528C21.4868 20.502 22 19.8494 22 19H20C20 19.0019 19.9999 19.007 19.9966 19.018C19.993 19.0298 19.9846 19.0521 19.9644 19.0851C19.9223 19.1543 19.8365 19.258 19.6758 19.3853C19.3484 19.6447 18.8121 19.9223 18.0583 20.174C16.5611 20.6738 14.4232 21 12 21V23ZM22 19V5H20V19H22Z" fill="#171717"/>
</svg>
