<svg width="24" height="24" viewBox="0 0 24 24" fill="none" xmlns="http://www.w3.org/2000/svg">
<path d="M22 15C22 14.4477 21.5523 14 21 14C20.4477 14 20 14.4477 20 15H22ZM4 15C4 14.4477 3.55228 14 3 14C2.44772 14 2 14.4477 2 15H4ZM4.63803 20.673L5.09202 19.782H5.09202L4.63803 20.673ZM3.32698 19.362L4.21799 18.908L4.21799 18.908L3.32698 19.362ZM19.362 20.673L18.908 19.782H18.908L19.362 20.673ZM20.673 19.362L21.564 19.816L20.673 19.362ZM17.7071 10.7071C18.0976 10.3166 18.0976 9.68342 17.7071 9.29289C17.3166 8.90237 16.6834 8.90237 16.2929 9.29289L17.7071 10.7071ZM12 15L11.2929 15.7071C11.6834 16.0976 12.3166 16.0976 12.7071 15.7071L12 15ZM7.70711 9.29289C7.31658 8.90237 6.68342 8.90237 6.29289 9.29289C5.90237 9.68342 5.90237 10.3166 6.29289 10.7071L7.70711 9.29289ZM13 3C13 2.44772 12.5523 2 12 2C11.4477 2 11 2.44772 11 3H13ZM16.2 20H7.8V22H16.2V20ZM20 15V16.2H22V15H20ZM4 16.2V15H2V16.2H4ZM7.8 20C6.94342 20 6.36113 19.9992 5.91104 19.9624C5.47262 19.9266 5.24842 19.8617 5.09202 19.782L4.18404 21.564C4.66937 21.8113 5.18608 21.9099 5.74817 21.9558C6.2986 22.0008 6.97642 22 7.8 22V20ZM2 16.2C2 17.0236 1.99922 17.7014 2.04419 18.2518C2.09012 18.8139 2.18868 19.3306 2.43597 19.816L4.21799 18.908C4.1383 18.7516 4.07337 18.5274 4.03755 18.089C4.00078 17.6389 4 17.0566 4 16.2H2ZM5.09202 19.782C4.7157 19.5903 4.40973 19.2843 4.21799 18.908L2.43597 19.816C2.81947 20.5686 3.43139 21.1805 4.18404 21.564L5.09202 19.782ZM16.2 22C17.0236 22 17.7014 22.0008 18.2518 21.9558C18.8139 21.9099 19.3306 21.8113 19.816 21.564L18.908 19.782C18.7516 19.8617 18.5274 19.9266 18.089 19.9624C17.6389 19.9992 17.0566 20 16.2 20V22ZM20 16.2C20 17.0566 19.9992 17.6389 19.9624 18.089C19.9266 18.5274 19.8617 18.7516 19.782 18.908L21.564 19.816C21.8113 19.3306 21.9099 18.8139 21.9558 18.2518C22.0008 17.7014 22 17.0236 22 16.2H20ZM19.816 21.564C20.5686 21.1805 21.1805 20.5686 21.564 19.816L19.782 18.908C19.5903 19.2843 19.2843 19.5903 18.908 19.782L19.816 21.564ZM16.2929 9.29289L11.2929 14.2929L12.7071 15.7071L17.7071 10.7071L16.2929 9.29289ZM12.7071 14.2929L7.70711 9.29289L6.29289 10.7071L11.2929 15.7071L12.7071 14.2929ZM11 3V15H13V3H11Z" fill="#171717"/>
</svg>
