<svg width="24" height="24" viewBox="0 0 24 24" fill="none" xmlns="http://www.w3.org/2000/svg">
<path d="M2.5 21.5003L1.50612 21.3899C1.47257 21.6918 1.57809 21.9926 1.79289 22.2074C2.0077 22.4222 2.30851 22.5277 2.61043 22.4942L2.5 21.5003ZM7.79373 20.2066L7.08662 19.4995L7.79373 20.2066ZM7.18289 20.7597L7.7334 21.5945L7.18289 20.7597ZM5.88437 21.1243L5.9948 22.1181H5.9948L5.88437 21.1243ZM6.69785 20.9928L6.38986 20.0414L6.69785 20.9928ZM3.79373 16.2066L3.08662 15.4995L3.79373 16.2066ZM3.24064 16.8174L2.40581 16.2669L3.24064 16.8174ZM2.87604 18.1159L3.86992 18.2264L2.87604 18.1159ZM3.00751 17.3025L3.9589 17.6104L3.00751 17.3025ZM21 7.0003L21.7071 7.70741L21 7.0003ZM17 3.0003L17.7071 3.70741L17 3.0003ZM17.2929 10.7074C17.6834 11.0979 18.3166 11.0979 18.7071 10.7074C19.0977 10.3169 19.0977 9.68372 18.7071 9.2932L17.2929 10.7074ZM14.7071 5.2932C14.3166 4.90267 13.6834 4.90267 13.2929 5.2932C12.9024 5.68372 12.9024 6.31689 13.2929 6.70741L14.7071 5.2932ZM4.50083 16.9137L17.7071 3.70741L16.2929 2.29319L3.08662 15.4995L4.50083 16.9137ZM20.2929 6.2932L7.08662 19.4995L8.50083 20.9137L21.7071 7.70741L20.2929 6.2932ZM5.77394 20.1304L2.38957 20.5064L2.61043 22.4942L5.9948 22.1181L5.77394 20.1304ZM3.49388 21.6107L3.86992 18.2264L1.88216 18.0055L1.50612 21.3899L3.49388 21.6107ZM7.08662 19.4995C6.76411 19.822 6.69757 19.8818 6.63238 19.9248L7.7334 21.5945C8.00733 21.4139 8.23498 21.1795 8.50083 20.9137L7.08662 19.4995ZM5.9948 22.1181C6.36848 22.0766 6.69365 22.0452 7.00584 21.9442L6.38986 20.0414C6.31556 20.0655 6.22724 20.08 5.77394 20.1304L5.9948 22.1181ZM6.63238 19.9248C6.55716 19.9744 6.47558 20.0136 6.38986 20.0414L7.00584 21.9442C7.263 21.8609 7.50774 21.7433 7.7334 21.5945L6.63238 19.9248ZM3.08662 15.4995C2.82076 15.7653 2.58645 15.993 2.40581 16.2669L4.07547 17.3679C4.11846 17.3027 4.17833 17.2362 4.50083 16.9137L3.08662 15.4995ZM3.86992 18.2264C3.92029 17.7731 3.93485 17.6847 3.9589 17.6104L2.05612 16.9945C1.95506 17.3067 1.92368 17.6318 1.88216 18.0055L3.86992 18.2264ZM2.40581 16.2669C2.257 16.4926 2.13938 16.7373 2.05612 16.9945L3.9589 17.6104C3.98665 17.5247 4.02586 17.4431 4.07547 17.3679L2.40581 16.2669ZM20.2929 3.70741C21.007 4.42145 21.007 5.57915 20.2929 6.2932L21.7071 7.70741C23.2022 6.21232 23.2022 3.78829 21.7071 2.2932L20.2929 3.70741ZM21.7071 2.2932C20.212 0.798103 17.788 0.798101 16.2929 2.29319L17.7071 3.70741C18.4212 2.99336 19.5789 2.99336 20.2929 3.70741L21.7071 2.2932ZM18.7071 9.2932L14.7071 5.2932L13.2929 6.70741L17.2929 10.7074L18.7071 9.2932Z" fill="#171717"/>
</svg>
