<svg width="24" height="24" viewBox="0 0 24 24" fill="none" xmlns="http://www.w3.org/2000/svg">
<path d="M4.27823 17.3079C3.89598 17.7065 3.90924 18.3395 4.30786 18.7218C4.70648 19.104 5.33951 19.0908 5.72177 18.6921L4.27823 17.3079ZM18.2782 18.6921C18.6605 19.0908 19.2935 19.104 19.6921 18.7218C20.0908 18.3395 20.104 17.7065 19.7218 17.3079L18.2782 18.6921ZM14.5 8.44118C14.5 9.77349 13.3968 10.8824 12 10.8824V12.8824C14.4692 12.8824 16.5 10.9099 16.5 8.44118H14.5ZM12 10.8824C10.6032 10.8824 9.5 9.77349 9.5 8.44118H7.5C7.5 10.9099 9.53077 12.8824 12 12.8824V10.8824ZM9.5 8.44118C9.5 7.10886 10.6032 6 12 6V4C9.53077 4 7.5 5.97247 7.5 8.44118H9.5ZM12 6C13.3968 6 14.5 7.10886 14.5 8.44118H16.5C16.5 5.97247 14.4692 4 12 4V6ZM5.72177 18.6921C7.36671 16.9768 9.57909 15.9412 12 15.9412V13.9412C8.98738 13.9412 6.26674 15.2342 4.27823 17.3079L5.72177 18.6921ZM12 15.9412C14.4209 15.9412 16.6333 16.9768 18.2782 18.6921L19.7218 17.3079C17.7333 15.2342 15.0126 13.9412 12 13.9412V15.9412Z" fill="#171717"/>
<path d="M2 7V4C2 2.89543 2.89543 2 4 2H7" stroke="#171717" stroke-width="2" stroke-linecap="round"/>
<path d="M22 7V4C22 2.89543 21.1046 2 20 2H17" stroke="#171717" stroke-width="2" stroke-linecap="round"/>
<path d="M22 17V20C22 21.1046 21.1046 22 20 22H17" stroke="#171717" stroke-width="2" stroke-linecap="round"/>
<path d="M2 17V20C2 21.1046 2.89543 22 4 22H7" stroke="#171717" stroke-width="2" stroke-linecap="round"/>
</svg>
