<svg width="24" height="24" viewBox="0 0 24 24" fill="none" xmlns="http://www.w3.org/2000/svg">
<path d="M19 10.5C19 11.0523 19.4477 11.5 20 11.5C20.5523 11.5 21 11.0523 21 10.5H19ZM11.5 23C12.0523 23 12.5 22.5523 12.5 22C12.5 21.4477 12.0523 21 11.5 21V23ZM4.32698 20.362L5.21799 19.908L5.21799 19.908L4.32698 20.362ZM5.63803 21.673L5.18404 22.564H5.18404L5.63803 21.673ZM18.362 2.32698L18.816 1.43597V1.43597L18.362 2.32698ZM19.673 3.63803L18.782 4.09202V4.09202L19.673 3.63803ZM5.63803 2.32698L6.09202 3.21799L5.63803 2.32698ZM4.32698 3.63803L5.21799 4.09202L4.32698 3.63803ZM21.2929 22.7071C21.6834 23.0976 22.3166 23.0976 22.7071 22.7071C23.0976 22.3166 23.0976 21.6834 22.7071 21.2929L21.2929 22.7071ZM21.2071 19.7929C20.8166 19.4024 20.1834 19.4024 19.7929 19.7929C19.4024 20.1834 19.4024 20.8166 19.7929 21.2071L21.2071 19.7929ZM8.8 3H15.2V1H8.8V3ZM5 17.2V6.8H3V17.2H5ZM19 6.8V10.5H21V6.8H19ZM11.5 21H8.8V23H11.5V21ZM3 17.2C3 18.0236 2.99922 18.7014 3.04419 19.2518C3.09012 19.8139 3.18868 20.3306 3.43597 20.816L5.21799 19.908C5.1383 19.7516 5.07337 19.5274 5.03755 19.089C5.00078 18.6389 5 18.0566 5 17.2H3ZM8.8 21C7.94342 21 7.36113 20.9992 6.91104 20.9624C6.47262 20.9266 6.24842 20.8617 6.09202 20.782L5.18404 22.564C5.66937 22.8113 6.18608 22.9099 6.74817 22.9558C7.2986 23.0008 7.97642 23 8.8 23V21ZM3.43597 20.816C3.81947 21.5686 4.43139 22.1805 5.18404 22.564L6.09202 20.782C5.71569 20.5903 5.40973 20.2843 5.21799 19.908L3.43597 20.816ZM15.2 3C16.0566 3 16.6389 3.00078 17.089 3.03755C17.5274 3.07337 17.7516 3.1383 17.908 3.21799L18.816 1.43597C18.3306 1.18868 17.8139 1.09012 17.2518 1.04419C16.7014 0.999222 16.0236 1 15.2 1V3ZM21 6.8C21 5.97642 21.0008 5.2986 20.9558 4.74817C20.9099 4.18608 20.8113 3.66937 20.564 3.18404L18.782 4.09202C18.8617 4.24842 18.9266 4.47262 18.9624 4.91104C18.9992 5.36113 19 5.94342 19 6.8H21ZM17.908 3.21799C18.2843 3.40973 18.5903 3.7157 18.782 4.09202L20.564 3.18404C20.1805 2.43139 19.5686 1.81947 18.816 1.43597L17.908 3.21799ZM8.8 1C7.97642 1 7.2986 0.999222 6.74817 1.04419C6.18608 1.09012 5.66937 1.18868 5.18404 1.43597L6.09202 3.21799C6.24842 3.1383 6.47262 3.07337 6.91104 3.03755C7.36113 3.00078 7.94342 3 8.8 3V1ZM5 6.8C5 5.94342 5.00078 5.36113 5.03755 4.91104C5.07337 4.47262 5.1383 4.24842 5.21799 4.09202L3.43597 3.18404C3.18868 3.66937 3.09012 4.18608 3.04419 4.74817C2.99922 5.2986 3 5.97642 3 6.8H5ZM5.18404 1.43597C4.43139 1.81947 3.81947 2.43139 3.43597 3.18404L5.21799 4.09202C5.40973 3.71569 5.71569 3.40973 6.09202 3.21799L5.18404 1.43597ZM20.5 18C20.5 19.3807 19.3807 20.5 18 20.5V22.5C20.4853 22.5 22.5 20.4853 22.5 18H20.5ZM18 20.5C16.6193 20.5 15.5 19.3807 15.5 18H13.5C13.5 20.4853 15.5147 22.5 18 22.5V20.5ZM15.5 18C15.5 16.6193 16.6193 15.5 18 15.5V13.5C15.5147 13.5 13.5 15.5147 13.5 18H15.5ZM18 15.5C19.3807 15.5 20.5 16.6193 20.5 18H22.5C22.5 15.5147 20.4853 13.5 18 13.5V15.5ZM22.7071 21.2929L21.2071 19.7929L19.7929 21.2071L21.2929 22.7071L22.7071 21.2929Z" fill="#171717"/>
</svg>
