<svg width="24" height="24" viewBox="0 0 24 24" fill="none" xmlns="http://www.w3.org/2000/svg">
<path d="M14 12C14.5523 12 15 11.5523 15 11C15 10.4477 14.5523 10 14 10V12ZM8 10C7.44772 10 7 10.4477 7 11C7 11.5523 7.44772 12 8 12V10ZM10 16C10.5523 16 11 15.5523 11 15C11 14.4477 10.5523 14 10 14V16ZM8 14C7.44772 14 7 14.4477 7 15C7 15.5523 7.44772 16 8 16V14ZM16 8C16.5523 8 17 7.55228 17 7C17 6.44772 16.5523 6 16 6V8ZM8 6C7.44772 6 7 6.44772 7 7C7 7.55228 7.44772 8 8 8V6ZM18 21L17.5697 21.9027C17.8419 22.0324 18.1581 22.0324 18.4303 21.9027L18 21ZM21 14.9229H22C22 14.5003 21.7344 14.1234 21.3365 13.9812L21 14.9229ZM18.8124 14.1412L18.4752 15.0826L18.4759 15.0829L18.8124 14.1412ZM17.1864 14.1412L17.5231 15.0828L17.5236 15.0826L17.1864 14.1412ZM15 14.9229L14.6633 13.9813C14.2655 14.1235 14 14.5004 14 14.9229H15ZM19 10C19 10.5523 19.4477 11 20 11C20.5523 11 21 10.5523 21 10H19ZM12.5 23C13.0523 23 13.5 22.5523 13.5 22C13.5 21.4477 13.0523 21 12.5 21V23ZM4.32698 20.362L5.21799 19.908L5.21799 19.908L4.32698 20.362ZM5.63803 21.673L5.18404 22.564H5.18404L5.63803 21.673ZM18.362 2.32698L18.816 1.43597V1.43597L18.362 2.32698ZM19.673 3.63803L18.782 4.09202V4.09202L19.673 3.63803ZM5.63803 2.32698L6.09202 3.21799L5.63803 2.32698ZM4.32698 3.63803L5.21799 4.09202L4.32698 3.63803ZM14 10H8V12H14V10ZM10 14H8V16H10V14ZM16 6H8V8H16V6ZM18 21C18.4303 21.9027 18.4305 21.9026 18.4308 21.9024C18.4309 21.9024 18.4312 21.9023 18.4314 21.9021C18.4319 21.9019 18.4323 21.9017 18.4329 21.9015C18.4339 21.9009 18.4352 21.9004 18.4366 21.8997C18.4394 21.8983 18.443 21.8966 18.4473 21.8945C18.4558 21.8903 18.4672 21.8847 18.4812 21.8777C18.5093 21.8637 18.5479 21.844 18.5956 21.8188C18.6909 21.7685 18.8233 21.6958 18.9806 21.6021C19.2929 21.4161 19.7141 21.1405 20.1405 20.7849C20.9435 20.1151 22 18.9643 22 17.4252H20C20 18.0311 19.5565 18.6676 18.8595 19.249C18.5359 19.5189 18.2071 19.7349 17.9569 19.884C17.8329 19.9579 17.7309 20.0137 17.6622 20.05C17.6279 20.0681 17.6021 20.0812 17.5861 20.0892C17.5782 20.0931 17.5727 20.0958 17.5699 20.0972C17.5685 20.0979 17.5678 20.0982 17.5678 20.0982C17.5677 20.0983 17.5679 20.0982 17.5682 20.098C17.5684 20.0979 17.5686 20.0978 17.5688 20.0977C17.569 20.0977 17.5692 20.0976 17.5693 20.0975C17.5695 20.0974 17.5697 20.0973 18 21ZM22 17.4252V14.9229H20V17.4252H22ZM21.3365 13.9812L19.1489 13.1995L18.4759 15.0829L20.6635 15.8646L21.3365 13.9812ZM19.1496 13.1998C18.406 12.9334 17.5928 12.9334 16.8492 13.1998L17.5236 15.0826C17.8312 14.9725 18.1676 14.9725 18.4752 15.0826L19.1496 13.1998ZM16.8497 13.1996L14.6633 13.9813L15.3367 15.8645L17.5231 15.0828L16.8497 13.1996ZM14 14.9229V17.4252H16V14.9229H14ZM14 17.4252C14 18.9643 15.0565 20.1151 15.8595 20.7849C16.2859 21.1405 16.7071 21.4161 17.0194 21.6021C17.1767 21.6958 17.3091 21.7685 17.4044 21.8188C17.4521 21.844 17.4907 21.8637 17.5188 21.8777C17.5328 21.8847 17.5442 21.8903 17.5527 21.8945C17.557 21.8966 17.5606 21.8983 17.5634 21.8997C17.5648 21.9004 17.5661 21.9009 17.5671 21.9015C17.5677 21.9017 17.5681 21.9019 17.5686 21.9021C17.5688 21.9023 17.5691 21.9024 17.5692 21.9024C17.5695 21.9026 17.5697 21.9027 18 21C18.4303 20.0973 18.4305 20.0974 18.4307 20.0975C18.4308 20.0976 18.431 20.0977 18.4312 20.0977C18.4314 20.0978 18.4316 20.0979 18.4318 20.098C18.4321 20.0982 18.4323 20.0983 18.4322 20.0982C18.4322 20.0982 18.4315 20.0979 18.4301 20.0972C18.4273 20.0958 18.4218 20.0931 18.4139 20.0892C18.3979 20.0812 18.3721 20.0681 18.3378 20.05C18.2691 20.0137 18.1671 19.9579 18.0431 19.884C17.7929 19.7349 17.4641 19.5189 17.1405 19.249C16.4435 18.6676 16 18.0311 16 17.4252H14ZM8.8 3H15.2V1H8.8V3ZM5 17.2V6.8H3V17.2H5ZM19 6.8V10H21V6.8H19ZM12.5 21H8.8V23H12.5V21ZM3 17.2C3 18.0236 2.99922 18.7014 3.04419 19.2518C3.09012 19.8139 3.18868 20.3306 3.43597 20.816L5.21799 19.908C5.1383 19.7516 5.07337 19.5274 5.03755 19.089C5.00078 18.6389 5 18.0566 5 17.2H3ZM8.8 21C7.94342 21 7.36113 20.9992 6.91104 20.9624C6.47262 20.9266 6.24842 20.8617 6.09202 20.782L5.18404 22.564C5.66937 22.8113 6.18608 22.9099 6.74817 22.9558C7.2986 23.0008 7.97642 23 8.8 23V21ZM3.43597 20.816C3.81947 21.5686 4.43139 22.1805 5.18404 22.564L6.09202 20.782C5.71569 20.5903 5.40973 20.2843 5.21799 19.908L3.43597 20.816ZM15.2 3C16.0566 3 16.6389 3.00078 17.089 3.03755C17.5274 3.07337 17.7516 3.1383 17.908 3.21799L18.816 1.43597C18.3306 1.18868 17.8139 1.09012 17.2518 1.04419C16.7014 0.999222 16.0236 1 15.2 1V3ZM21 6.8C21 5.97642 21.0008 5.2986 20.9558 4.74817C20.9099 4.18608 20.8113 3.66937 20.564 3.18404L18.782 4.09202C18.8617 4.24842 18.9266 4.47262 18.9624 4.91104C18.9992 5.36113 19 5.94342 19 6.8H21ZM17.908 3.21799C18.2843 3.40973 18.5903 3.7157 18.782 4.09202L20.564 3.18404C20.1805 2.43139 19.5686 1.81947 18.816 1.43597L17.908 3.21799ZM8.8 1C7.97642 1 7.2986 0.999222 6.74817 1.04419C6.18608 1.09012 5.66937 1.18868 5.18404 1.43597L6.09202 3.21799C6.24842 3.1383 6.47262 3.07337 6.91104 3.03755C7.36113 3.00078 7.94342 3 8.8 3V1ZM5 6.8C5 5.94342 5.00078 5.36113 5.03755 4.91104C5.07337 4.47262 5.1383 4.24842 5.21799 4.09202L3.43597 3.18404C3.18868 3.66937 3.09012 4.18608 3.04419 4.74817C2.99922 5.2986 3 5.97642 3 6.8H5ZM5.18404 1.43597C4.43139 1.81947 3.81947 2.43139 3.43597 3.18404L5.21799 4.09202C5.40973 3.71569 5.71569 3.40973 6.09202 3.21799L5.18404 1.43597Z" fill="#171717"/>
</svg>
