<svg width="24" height="24" viewBox="0 0 24 24" fill="none" xmlns="http://www.w3.org/2000/svg">
<path d="M15 2.26953C15 1.71725 14.5523 1.26953 14 1.26953C13.4477 1.26953 13 1.71725 13 2.26953H15ZM19.7305 9.00007C20.2828 9.00007 20.7305 8.55236 20.7305 8.00007C20.7305 7.44779 20.2828 7.00007 19.7305 7.00007V9.00007ZM14.109 7.45406L15 7.00007V7.00007L14.109 7.45406ZM14.546 7.89108L15 7.00007L14.546 7.89108ZM14 2L14.7071 1.29289C14.5196 1.10536 14.2652 1 14 1V2ZM20 8H21C21 7.73478 20.8946 7.48043 20.7071 7.29289L20 8ZM5.63803 21.673L5.18404 22.564L5.63803 21.673ZM4.32698 20.362L3.43597 20.816L4.32698 20.362ZM18.362 21.673L18.816 22.564L18.362 21.673ZM19.673 20.362L20.564 20.816L19.673 20.362ZM4.32698 3.63803L3.43597 3.18404L4.32698 3.63803ZM5.63803 2.32698L5.18404 1.43597L5.63803 2.32698ZM9.70711 15.2929C9.31658 14.9024 8.68342 14.9024 8.29289 15.2929C7.90237 15.6834 7.90237 16.3166 8.29289 16.7071L9.70711 15.2929ZM11 18L10.2929 18.7071C10.6834 19.0976 11.3166 19.0976 11.7071 18.7071L11 18ZM16.2071 14.2071C16.5976 13.8166 16.5976 13.1834 16.2071 12.7929C15.8166 12.4024 15.1834 12.4024 14.7929 12.7929L16.2071 14.2071ZM13 2.26953V6.40007H15V2.26953H13ZM15.6 9.00007H19.7305V7.00007H15.6V9.00007ZM13 6.40007C13 6.6636 12.9992 6.92138 13.0169 7.1383C13.0356 7.36689 13.0797 7.63663 13.218 7.90805L15 7.00007C15.0293 7.05758 15.0189 7.08035 15.0103 6.97544C15.0008 6.85885 15 6.6966 15 6.40007H13ZM15.6 7.00007C15.3035 7.00007 15.1412 6.99929 15.0246 6.98977C14.9197 6.9812 14.9425 6.97077 15 7.00007L14.092 8.78208C14.3634 8.92038 14.6332 8.96445 14.8618 8.98313C15.0787 9.00085 15.3365 9.00007 15.6 9.00007V7.00007ZM13.218 7.90805C13.4097 8.28438 13.7157 8.59034 14.092 8.78208L15 7.00007V7.00007L13.218 7.90805ZM15.2 21H8.8V23H15.2V21ZM5 17.2V6.8H3V17.2H5ZM8.8 3H14V1H8.8V3ZM19 8V17.2H21V8H19ZM13.2929 2.70711L19.2929 8.70711L20.7071 7.29289L14.7071 1.29289L13.2929 2.70711ZM8.8 21C7.94342 21 7.36113 20.9992 6.91104 20.9624C6.47262 20.9266 6.24842 20.8617 6.09202 20.782L5.18404 22.564C5.66937 22.8113 6.18608 22.9099 6.74817 22.9558C7.2986 23.0008 7.97642 23 8.8 23V21ZM3 17.2C3 18.0236 2.99922 18.7014 3.04419 19.2518C3.09012 19.8139 3.18868 20.3306 3.43597 20.816L5.21799 19.908C5.1383 19.7516 5.07337 19.5274 5.03755 19.089C5.00078 18.6389 5 18.0566 5 17.2H3ZM6.09202 20.782C5.7157 20.5903 5.40973 20.2843 5.21799 19.908L3.43597 20.816C3.81947 21.5686 4.43139 22.1805 5.18404 22.564L6.09202 20.782ZM15.2 23C16.0236 23 16.7014 23.0008 17.2518 22.9558C17.8139 22.9099 18.3306 22.8113 18.816 22.564L17.908 20.782C17.7516 20.8617 17.5274 20.9266 17.089 20.9624C16.6389 20.9992 16.0566 21 15.2 21V23ZM19 17.2C19 18.0566 18.9992 18.6389 18.9624 19.089C18.9266 19.5274 18.8617 19.7516 18.782 19.908L20.564 20.816C20.8113 20.3306 20.9099 19.8139 20.9558 19.2518C21.0008 18.7014 21 18.0236 21 17.2H19ZM18.816 22.564C19.5686 22.1805 20.1805 21.5686 20.564 20.816L18.782 19.908C18.5903 20.2843 18.2843 20.5903 17.908 20.782L18.816 22.564ZM5 6.8C5 5.94342 5.00078 5.36113 5.03755 4.91104C5.07337 4.47262 5.1383 4.24842 5.21799 4.09202L3.43597 3.18404C3.18868 3.66937 3.09012 4.18608 3.04419 4.74817C2.99922 5.2986 3 5.97642 3 6.8H5ZM8.8 1C7.97642 1 7.2986 0.999222 6.74817 1.04419C6.18608 1.09012 5.66937 1.18868 5.18404 1.43597L6.09202 3.21799C6.24842 3.1383 6.47262 3.07337 6.91104 3.03755C7.36113 3.00078 7.94342 3 8.8 3V1ZM5.21799 4.09202C5.40973 3.71569 5.71569 3.40973 6.09202 3.21799L5.18404 1.43597C4.43139 1.81947 3.81947 2.43139 3.43597 3.18404L5.21799 4.09202ZM8.29289 16.7071L10.2929 18.7071L11.7071 17.2929L9.70711 15.2929L8.29289 16.7071ZM11.7071 18.7071L16.2071 14.2071L14.7929 12.7929L10.2929 17.2929L11.7071 18.7071Z" fill="#171717"/>
</svg>
