<svg width="24" height="24" viewBox="0 0 24 24" fill="none" xmlns="http://www.w3.org/2000/svg">
<path d="M2.55211 6.4785L1.89718 7.23419H1.89718L2.55211 6.4785ZM2.17449 6.10776L1.34898 6.67215L2.17449 6.10776ZM2.03285 5.79756L1.06569 6.05175L2.03285 5.79756ZM21.9672 5.79756L22.9343 6.05175L21.9672 5.79756ZM21.4479 6.4785L22.1028 7.23419L21.4479 6.4785ZM21.8255 6.10776L22.651 6.67215L21.8255 6.10776ZM14.4685 18.8363L13.5315 18.4867L14.4685 18.8363ZM13.9971 19.2012L13.6257 18.2727H13.6257L13.9971 19.2012ZM14.3363 19.0315L15.0088 19.7716L14.3363 19.0315ZM9.58325 20.5377L10.4167 19.9852L9.58325 20.5377ZM10.5971 20.5612L10.9685 21.4896H10.9685L10.5971 20.5612ZM9.89827 20.751L9.69482 21.7301L9.89827 20.751ZM9.46715 12.7024L10.4343 12.4482L9.46715 12.7024ZM8.94789 12.0215L9.60282 11.2658L8.94789 12.0215ZM9.32551 12.3922L10.151 11.8278L9.32551 12.3922ZM14.5328 12.7024L13.5657 12.4482L14.5328 12.7024ZM15.0521 12.0215L14.3972 11.2658L15.0521 12.0215ZM14.6745 12.3922L13.849 11.8278L14.6745 12.3922ZM21.454 3.10899L21 4L21.454 3.10899ZM21.891 3.54601L21 4L21.891 3.54601ZM2.54601 3.10899L3 4L2.54601 3.10899ZM2.10899 3.54601L3 4L2.10899 3.54601ZM3.6 4H20.4V2H3.6V4ZM10.5 19.8184V13.2306H8.5V19.8184H10.5ZM13.5 13.2306V18.4584H15.5V13.2306H13.5ZM13.6257 18.2727L10.2257 19.6327L10.9685 21.4896L14.3685 20.1296L13.6257 18.2727ZM21 4.6V5.26939H23V4.6H21ZM20.793 5.72281L14.3972 11.2658L15.707 12.7772L22.1028 7.23419L20.793 5.72281ZM9.60282 11.2658L3.20704 5.72281L1.89718 7.23419L8.29296 12.7772L9.60282 11.2658ZM3 5.26939V4.6H1V5.26939H3ZM3.20704 5.72281C3.09832 5.62858 3.04393 5.58107 3.00602 5.54478C2.97525 5.51532 2.9839 5.51983 3 5.54337L1.34898 6.67215C1.51189 6.91043 1.73388 7.09266 1.89718 7.23419L3.20704 5.72281ZM1 5.26939C1 5.48549 0.992322 5.77259 1.06569 6.05175L3 5.54337C3.00725 5.57095 3.00499 5.58045 3.00288 5.5379C3.00028 5.48548 3 5.41326 3 5.26939H1ZM3 5.54337L1.06569 6.05175C1.12391 6.27325 1.21973 6.4831 1.34898 6.67215L3 5.54337ZM21 5.26939C21 5.41326 20.9997 5.48548 20.9971 5.5379C20.995 5.58045 20.9928 5.57095 21 5.54337L22.9343 6.05175C23.0077 5.77259 23 5.48549 23 5.26939H21ZM22.1028 7.23419C22.2661 7.09265 22.4881 6.91043 22.651 6.67215L21 5.54337C21.0161 5.51983 21.0248 5.51532 20.994 5.54478C20.9561 5.58107 20.9017 5.62858 20.793 5.72281L22.1028 7.23419ZM21 5.54337L22.651 6.67215C22.7803 6.4831 22.8761 6.27325 22.9343 6.05175L21 5.54337ZM13.5 18.4584C13.5 18.4831 13.5 18.5046 13.4999 18.5244C13.4999 18.5442 13.4998 18.5607 13.4996 18.5751C13.4994 18.5894 13.4992 18.6002 13.4989 18.6085C13.4986 18.6168 13.4984 18.6212 13.4982 18.6228C13.498 18.6265 13.4987 18.6126 13.5032 18.5881C13.5081 18.5616 13.5167 18.5265 13.5315 18.4867L15.4054 19.1858C15.5152 18.8915 15.5 18.5741 15.5 18.4584H13.5ZM14.3685 20.1296C14.4759 20.0867 14.7763 19.9829 15.0088 19.7716L13.6637 18.2914C13.6951 18.2629 13.7246 18.2418 13.7474 18.2275C13.7684 18.2142 13.7811 18.2084 13.7777 18.21C13.7763 18.2107 13.7723 18.2125 13.7647 18.2159C13.7571 18.2192 13.7472 18.2235 13.7339 18.229C13.7207 18.2345 13.7054 18.2407 13.687 18.2481C13.6686 18.2555 13.6487 18.2635 13.6257 18.2727L14.3685 20.1296ZM13.5315 18.4867C13.5594 18.412 13.6047 18.3451 13.6637 18.2914L15.0088 19.7716C15.1858 19.6108 15.3218 19.4099 15.4054 19.1858L13.5315 18.4867ZM8.5 19.8184C8.5 19.9972 8.49902 20.1993 8.5145 20.3698C8.53022 20.543 8.57153 20.8214 8.74976 21.0903L10.4167 19.9852C10.4648 20.0577 10.4883 20.1228 10.4991 20.1619C10.5086 20.1966 10.5083 20.2114 10.5063 20.189C10.5043 20.1672 10.5023 20.1293 10.5012 20.063C10.5 19.9972 10.5 19.9198 10.5 19.8184H8.5ZM10.2257 19.6327C10.1315 19.6704 10.0597 19.699 9.99812 19.7225C9.93616 19.746 9.90022 19.7582 9.87924 19.7645C9.85774 19.7709 9.87134 19.7651 9.90713 19.7611C9.94748 19.7566 10.0166 19.7542 10.1017 19.7719L9.69482 21.7301C10.0106 21.7957 10.2845 21.7307 10.4511 21.681C10.6152 21.632 10.8025 21.556 10.9685 21.4896L10.2257 19.6327ZM8.74976 21.0903C8.96816 21.4197 9.3078 21.6497 9.69482 21.7301L10.1017 19.7719C10.2307 19.7987 10.3439 19.8754 10.4167 19.9852L8.74976 21.0903ZM10.5 13.2306C10.5 13.0145 10.5077 12.7274 10.4343 12.4482L8.5 12.9566C8.49275 12.929 8.49501 12.9195 8.49712 12.9621C8.49972 13.0145 8.5 13.0867 8.5 13.2306H10.5ZM8.29296 12.7772C8.40168 12.8714 8.45607 12.9189 8.49398 12.9552C8.52476 12.9847 8.5161 12.9802 8.5 12.9566L10.151 11.8278C9.98811 11.5896 9.76612 11.4073 9.60282 11.2658L8.29296 12.7772ZM10.4343 12.4482C10.3761 12.2268 10.2803 12.0169 10.151 11.8278L8.5 12.9566L10.4343 12.4482ZM15.5 13.2306C15.5 13.0867 15.5003 13.0145 15.5029 12.9621C15.505 12.9195 15.5072 12.929 15.5 12.9566L13.5657 12.4482C13.4923 12.7274 13.5 13.0145 13.5 13.2306H15.5ZM14.3972 11.2658C14.2339 11.4073 14.0119 11.5896 13.849 11.8278L15.5 12.9566C15.4839 12.9802 15.4752 12.9847 15.506 12.9552C15.5439 12.9189 15.5983 12.8714 15.707 12.7772L14.3972 11.2658ZM15.5 12.9566L13.849 11.8278C13.7197 12.0169 13.6239 12.2268 13.5657 12.4482L15.5 12.9566ZM20.4 4C20.6965 4 20.8588 4.00078 20.9754 4.0103C21.0803 4.01887 21.0575 4.0293 21 4L21.908 2.21799C21.6366 2.07969 21.3668 2.03562 21.1382 2.01695C20.9213 1.99922 20.6635 2 20.4 2V4ZM23 4.6C23 4.33647 23.0008 4.07869 22.9831 3.86177C22.9644 3.63318 22.9203 3.36344 22.782 3.09202L21 4C20.9707 3.94249 20.9811 3.91972 20.9897 4.02463C20.9992 4.14122 21 4.30347 21 4.6H23ZM21 4L22.782 3.09202C22.5903 2.7157 22.2843 2.40973 21.908 2.21799L21 4ZM3.6 2C3.33647 2 3.07869 1.99922 2.86177 2.01695C2.63318 2.03562 2.36344 2.07969 2.09202 2.21799L3 4C2.94249 4.0293 2.91972 4.01887 3.02463 4.0103C3.14122 4.00078 3.30347 4 3.6 4V2ZM3 4.6C3 4.30347 3.00078 4.14122 3.0103 4.02463C3.01887 3.91972 3.0293 3.94249 3 4L1.21799 3.09202C1.07969 3.36344 1.03562 3.63318 1.01695 3.86177C0.999222 4.07869 1 4.33647 1 4.6H3ZM2.09202 2.21799C1.71569 2.40973 1.40973 2.71569 1.21799 3.09202L3 4L2.09202 2.21799Z" fill="#171717"/>
</svg>
