<svg width="24" height="24" viewBox="0 0 24 24" fill="none" xmlns="http://www.w3.org/2000/svg">
<path d="M11.8845 4.76892L10.99 5.21613L10.99 5.21613L11.8845 4.76892ZM12.1056 7.44721C12.3526 7.94119 12.9532 8.14142 13.4472 7.89443C13.9412 7.64744 14.1414 7.04676 13.8944 6.55279L12.1056 7.44721ZM10.4161 3.10931L10.7421 2.16396L10.7421 2.16396L10.4161 3.10931ZM11.1634 3.57116L11.8631 2.85675V2.85674L11.1634 3.57116ZM3.09202 3.21799L2.63803 2.32698L2.63803 2.32698L3.09202 3.21799ZM2.21799 4.09202L1.32698 3.63803L1.32698 3.63803L2.21799 4.09202ZM3.63803 20.673L3.18404 21.564L3.63803 20.673ZM2.32698 19.362L1.43597 19.816L2.32698 19.362ZM21.673 19.362L22.564 19.816L21.673 19.362ZM20.362 20.673L20.816 21.564L20.362 20.673ZM20.362 7.32698L20.816 6.43597L20.362 7.32698ZM21.673 8.63803L22.564 8.18404L21.673 8.63803ZM5.2 4H9.02229V2H5.2V4ZM10.99 5.21613L12.1056 7.44721L13.8944 6.55279L12.7789 4.3217L10.99 5.21613ZM3 7V6.2H1V7H3ZM9.02229 4C9.8127 4 9.96938 4.01305 10.09 4.05465L10.7421 2.16396C10.229 1.98695 9.66771 2 9.02229 2V4ZM12.7789 4.3217C12.4902 3.74443 12.2509 3.23659 11.8631 2.85675L10.4637 4.28558C10.5548 4.37487 10.6366 4.50918 10.99 5.21613L12.7789 4.3217ZM10.09 4.05465C10.2301 4.10299 10.3578 4.18187 10.4637 4.28558L11.8631 2.85674C11.5454 2.5456 11.1625 2.30896 10.7421 2.16396L10.09 4.05465ZM5.2 2C4.65645 2 4.18864 1.99922 3.80497 2.03057C3.40963 2.06287 3.01641 2.13419 2.63803 2.32698L3.54601 4.10899C3.59545 4.0838 3.69617 4.04612 3.96784 4.02393C4.25117 4.00078 4.62345 4 5.2 4V2ZM3 6.2C3 5.62345 3.00078 5.25117 3.02393 4.96784C3.04612 4.69617 3.0838 4.59545 3.10899 4.54601L1.32698 3.63803C1.13419 4.01641 1.06287 4.40963 1.03057 4.80497C0.999222 5.18864 1 5.65645 1 6.2H3ZM2.63803 2.32698C2.07354 2.6146 1.6146 3.07354 1.32698 3.63803L3.10899 4.54601C3.20487 4.35785 3.35785 4.20487 3.54601 4.10899L2.63803 2.32698ZM2 8H17.2V6H2V8ZM21 11.8V16.2H23V11.8H21ZM17.2 20H6.8V22H17.2V20ZM3 16.2V7H1V16.2H3ZM6.8 20C5.94342 20 5.36113 19.9992 4.91104 19.9624C4.47262 19.9266 4.24842 19.8617 4.09202 19.782L3.18404 21.564C3.66937 21.8113 4.18608 21.9099 4.74817 21.9558C5.2986 22.0008 5.97642 22 6.8 22V20ZM1 16.2C1 17.0236 0.999222 17.7014 1.04419 18.2518C1.09012 18.8139 1.18868 19.3306 1.43597 19.816L3.21799 18.908C3.1383 18.7516 3.07337 18.5274 3.03755 18.089C3.00078 17.6389 3 17.0566 3 16.2H1ZM4.09202 19.782C3.7157 19.5903 3.40973 19.2843 3.21799 18.908L1.43597 19.816C1.81947 20.5686 2.43139 21.1805 3.18404 21.564L4.09202 19.782ZM21 16.2C21 17.0566 20.9992 17.6389 20.9624 18.089C20.9266 18.5274 20.8617 18.7516 20.782 18.908L22.564 19.816C22.8113 19.3306 22.9099 18.8139 22.9558 18.2518C23.0008 17.7014 23 17.0236 23 16.2H21ZM17.2 22C18.0236 22 18.7014 22.0008 19.2518 21.9558C19.8139 21.9099 20.3306 21.8113 20.816 21.564L19.908 19.782C19.7516 19.8617 19.5274 19.9266 19.089 19.9624C18.6389 19.9992 18.0566 20 17.2 20V22ZM20.782 18.908C20.5903 19.2843 20.2843 19.5903 19.908 19.782L20.816 21.564C21.5686 21.1805 22.1805 20.5686 22.564 19.816L20.782 18.908ZM17.2 8C18.0566 8 18.6389 8.00078 19.089 8.03755C19.5274 8.07337 19.7516 8.1383 19.908 8.21799L20.816 6.43597C20.3306 6.18868 19.8139 6.09012 19.2518 6.04419C18.7014 5.99922 18.0236 6 17.2 6V8ZM23 11.8C23 10.9764 23.0008 10.2986 22.9558 9.74817C22.9099 9.18608 22.8113 8.66937 22.564 8.18404L20.782 9.09202C20.8617 9.24842 20.9266 9.47262 20.9624 9.91104C20.9992 10.3611 21 10.9434 21 11.8H23ZM19.908 8.21799C20.2843 8.40973 20.5903 8.7157 20.782 9.09202L22.564 8.18404C22.1805 7.43139 21.5686 6.81947 20.816 6.43597L19.908 8.21799Z" fill="#171717"/>
</svg>
