<svg width="24" height="24" viewBox="0 0 24 24" fill="none" xmlns="http://www.w3.org/2000/svg">
<path d="M13.5 13.5L13.8939 12.5809C13.8684 12.5699 13.8425 12.5601 13.8162 12.5513L13.5 13.5ZM11.0528 14.9253L12.0269 15.1514L11.0528 14.9253ZM11.1048 15.3144L10.1561 15.6306L11.1048 15.3144ZM11.0417 15.0814L12.038 14.9954L11.0417 15.0814ZM12.6582 13.2194L12.9745 12.2707V12.2707L12.6582 13.2194ZM12.1999 13.1143L12.0932 12.12L12.1999 13.1143ZM11.9395 13.2222L12.5671 14.0007L11.9395 13.2222ZM16.4665 15.8002L17.2986 16.3549H17.2986L16.4665 15.8002ZM16.7496 15.2537L17.7477 15.3155L16.7496 15.2537ZM16.116 14.6211L16.5099 13.702L16.116 14.6211ZM16.6517 14.9243L17.4539 14.3273L16.6517 14.9243ZM11.8177 17.453L12.7663 17.1368L11.8177 17.453ZM11.9768 17.8208L11.2097 18.4623L11.9768 17.8208ZM12.1774 17.9653L12.5434 17.0347L12.1774 17.9653ZM15.2375 17.6438L14.4054 17.0891H14.4054L15.2375 17.6438ZM15.0499 17.8863L14.4149 17.1137L15.0499 17.8863ZM14.8777 17.9784L15.1683 18.9353L14.8777 17.9784ZM3.65722 6.66908C3.2078 6.34808 2.58325 6.45217 2.26225 6.90159C1.94124 7.351 2.04534 7.97555 2.49475 8.29656L3.65722 6.66908ZM7.36402 10.5457L6.78279 11.3594L6.78279 11.3594L7.36402 10.5457ZM8.46901 10.3747L7.66901 9.77466L7.66901 9.77466L8.46901 10.3747ZM9.37511 9.16652L8.57511 8.56652L8.57511 8.56652L9.37511 9.16652ZM9.6902 8.91546L10.0963 9.82928H10.0963L9.6902 8.91546ZM13.5588 7.19609L13.1527 6.28228L13.5588 7.19609ZM14.0321 6.51826L13.0343 6.45174V6.45174L14.0321 6.51826ZM15.3132 2.33592C15.3499 1.78486 14.933 1.30836 14.3819 1.27162C13.8308 1.23488 13.3543 1.65182 13.3176 2.20289L15.3132 2.33592ZM13.8598 7.03352L14.5371 7.76927L14.5371 7.76927L13.8598 7.03352ZM13.9832 6.85684L13.0592 6.47446L13.9832 6.85684ZM9.47224 9.04671L8.77283 8.332L8.77282 8.332L9.47224 9.04671ZM9.55173 8.98338L9.01131 8.14198L9.0113 8.14199L9.55173 8.98338ZM7.81548 10.8031L7.97082 9.81522H7.97082L7.81548 10.8031ZM8.11648 10.7565L7.66982 9.86179L7.66981 9.8618L8.11648 10.7565ZM16.0695 18.1985L17.2986 16.3549L15.6345 15.2455L14.4054 17.0891L16.0695 18.1985ZM16.5099 13.702L13.8939 12.5809L13.1061 14.4191L15.7221 15.5403L16.5099 13.702ZM13.8162 12.5513L12.9745 12.2707L12.342 14.1681L13.1838 14.4487L13.8162 12.5513ZM10.7953 13.1734L10.2538 14.2564L12.0426 15.1508L12.5841 14.0678L10.7953 13.1734ZM10.1561 15.6306L10.869 17.7692L12.7663 17.1368L12.0535 14.9981L10.1561 15.6306ZM12.5766 19H14.5719V17H12.5766V19ZM10.2538 14.2564C10.2204 14.3232 10.125 14.4995 10.0787 14.6993L12.0269 15.1514C12.024 15.1639 12.0208 15.1759 12.0175 15.1871C12.0142 15.1982 12.011 15.2079 12.0081 15.216C12.0026 15.2317 11.9985 15.2407 11.9989 15.2398C11.9991 15.2395 12 15.2374 12.002 15.2332C12.004 15.2289 12.0067 15.2232 12.0105 15.2154C12.0143 15.2076 12.0188 15.1985 12.0243 15.1876C12.0297 15.1766 12.0357 15.1647 12.0426 15.1508L10.2538 14.2564ZM12.0535 14.9981C12.0486 14.9834 12.0444 14.9708 12.0405 14.9591C12.0367 14.9475 12.0335 14.9379 12.0308 14.9297C12.0282 14.9214 12.0263 14.9154 12.0249 14.9109C12.0235 14.9064 12.0229 14.9042 12.0228 14.9039C12.0225 14.903 12.0253 14.9124 12.0285 14.9287C12.0302 14.9371 12.032 14.9472 12.0337 14.9587C12.0354 14.9703 12.0369 14.9825 12.038 14.9954L10.0454 15.1674C10.063 15.3717 10.1325 15.5597 10.1561 15.6306L12.0535 14.9981ZM10.0787 14.6993C10.0431 14.8526 10.0319 15.0106 10.0454 15.1674L12.038 14.9954C12.0425 15.0476 12.0388 15.1003 12.0269 15.1514L10.0787 14.6993ZM12.9745 12.2707C12.8722 12.2366 12.7426 12.1927 12.625 12.1633C12.4953 12.1308 12.3108 12.0967 12.0932 12.12L12.3066 14.1086C12.2535 14.1143 12.2086 14.1125 12.1767 14.1091C12.1475 14.1059 12.1324 14.1017 12.1392 14.1034C12.1466 14.1052 12.1644 14.1101 12.2012 14.1218C12.2382 14.1335 12.2816 14.148 12.342 14.1681L12.9745 12.2707ZM12.5841 14.0678C12.6126 14.0109 12.6331 13.9699 12.6509 13.9355C12.6687 13.9012 12.6779 13.8851 12.6818 13.8787C12.6854 13.8727 12.6777 13.8863 12.6593 13.9092C12.6392 13.9342 12.6087 13.9672 12.5671 14.0007L11.3119 12.4437C11.1415 12.581 11.0351 12.7356 10.9664 12.8503C10.9041 12.9543 10.8435 13.077 10.7953 13.1734L12.5841 14.0678ZM12.0932 12.12C11.8071 12.1507 11.5359 12.2631 11.3119 12.4437L12.5671 14.0007C12.4924 14.0609 12.402 14.0984 12.3066 14.1086L12.0932 12.12ZM17.2986 16.3549C17.3802 16.2325 17.478 16.0874 17.5507 15.9548C17.6276 15.8143 17.7304 15.5952 17.7477 15.3155L15.7515 15.1919C15.756 15.1199 15.7711 15.063 15.7837 15.027C15.795 14.9946 15.8037 14.9809 15.7966 14.9939C15.7895 15.0069 15.7749 15.0316 15.7457 15.077C15.7167 15.1222 15.6816 15.1748 15.6345 15.2455L17.2986 16.3549ZM15.7221 15.5403C15.8002 15.5738 15.8583 15.5987 15.9073 15.6207C15.9566 15.6428 15.9823 15.6555 15.9954 15.6625C16.0084 15.6695 15.9936 15.6628 15.9665 15.6418C15.9362 15.6185 15.8925 15.5792 15.8494 15.5213L17.4539 14.3273C17.2867 14.1025 17.0809 13.9751 16.9397 13.8995C16.8064 13.8281 16.6452 13.76 16.5099 13.702L15.7221 15.5403ZM17.7477 15.3155C17.7696 14.9617 17.6655 14.6117 17.4539 14.3273L15.8494 15.5213C15.7789 15.4265 15.7442 15.3098 15.7515 15.1919L17.7477 15.3155ZM10.869 17.7692C10.9076 17.885 10.9978 18.2089 11.2097 18.4623L12.7439 17.1793C12.7728 17.2138 12.7936 17.2459 12.8074 17.2706C12.8201 17.2932 12.8254 17.3067 12.8237 17.3026C12.8218 17.2979 12.8165 17.2845 12.806 17.2543C12.8009 17.2398 12.7953 17.2231 12.7886 17.2033C12.7818 17.1833 12.7746 17.1617 12.7663 17.1368L10.869 17.7692ZM12.5766 17C12.5504 17 12.5276 17 12.5065 17C12.4855 16.9999 12.4679 16.9998 12.4526 16.9996C12.4206 16.9991 12.4062 16.9984 12.4011 16.9981C12.3967 16.9977 12.4112 16.9985 12.4367 17.0034C12.4645 17.0087 12.5015 17.0182 12.5434 17.0347L11.8114 18.8959C12.1187 19.0168 12.4546 19 12.5766 19V17ZM11.2097 18.4623C11.3708 18.6549 11.5777 18.804 11.8114 18.8959L12.5434 17.0347C12.6213 17.0654 12.6902 17.1151 12.7439 17.1793L11.2097 18.4623ZM14.4054 17.0891C14.3944 17.1056 14.385 17.1198 14.3762 17.1329C14.3674 17.146 14.3601 17.1568 14.3538 17.1661C14.3474 17.1754 14.3426 17.1823 14.339 17.1874C14.3353 17.1926 14.3335 17.1951 14.333 17.1957C14.3318 17.1973 14.3389 17.1876 14.3529 17.1724C14.3601 17.1645 14.3691 17.1552 14.3797 17.145C14.3905 17.1347 14.4022 17.1242 14.4149 17.1137L15.6848 18.6588C15.884 18.4951 16.0173 18.2769 16.0695 18.1985L14.4054 17.0891ZM14.5719 19C14.6661 19 14.9216 19.0102 15.1683 18.9353L14.5871 17.0216C14.6029 17.0168 14.6181 17.0128 14.6326 17.0096C14.647 17.0064 14.6597 17.0041 14.6703 17.0025C14.6908 16.9993 14.7028 16.9988 14.7008 16.9989C14.7 16.9989 14.6968 16.9991 14.6906 16.9993C14.6843 16.9995 14.6759 16.9996 14.6646 16.9997C14.6533 16.9999 14.6403 16.9999 14.6246 17C14.6088 17 14.5917 17 14.5719 17V19ZM14.4149 17.1137C14.4657 17.072 14.5242 17.0407 14.5871 17.0216L15.1683 18.9353C15.357 18.878 15.5325 18.7841 15.6848 18.6588L14.4149 17.1137ZM2.49475 8.29656L6.78279 11.3594L7.94526 9.73192L3.65722 6.66908L2.49475 8.29656ZM9.26901 10.9747L10.1751 9.76651L8.57511 8.56652L7.66901 9.77466L9.26901 10.9747ZM10.0963 9.82928L13.9649 8.1099L13.1527 6.28228L9.28407 8.00165L10.0963 9.82928ZM15.0299 6.58477L15.3132 2.33592L13.3176 2.20289L13.0343 6.45174L15.0299 6.58477ZM13.9649 8.1099C14.0607 8.06734 14.3269 7.96276 14.5371 7.76927L13.1826 6.29778C13.1961 6.28528 13.2096 6.27394 13.2227 6.26378C13.2357 6.25368 13.2474 6.24542 13.2573 6.2389C13.2763 6.2263 13.2879 6.22043 13.2854 6.22172C13.2845 6.22223 13.2811 6.22393 13.2746 6.22707C13.2681 6.23021 13.2595 6.23428 13.2479 6.23959C13.2363 6.24491 13.2229 6.25097 13.2067 6.25819C13.1905 6.26545 13.173 6.27325 13.1527 6.28228L13.9649 8.1099ZM13.0343 6.45174C13.0329 6.47393 13.0316 6.49307 13.0303 6.5108C13.0291 6.52842 13.0281 6.54311 13.0271 6.55582C13.0261 6.56853 13.0252 6.57804 13.0245 6.58525C13.0238 6.59245 13.0234 6.59615 13.0232 6.59726C13.0229 6.60002 13.0244 6.58706 13.0296 6.56489C13.0324 6.55341 13.0361 6.53955 13.0411 6.52387C13.0461 6.50808 13.0521 6.49151 13.0592 6.47446L14.9072 7.23922C15.0164 6.97524 15.0229 6.68933 15.0299 6.58477L13.0343 6.45174ZM14.5371 7.76927C14.6975 7.62159 14.8238 7.44071 14.9072 7.23922L13.0592 6.47446C13.087 6.4073 13.1291 6.347 13.1826 6.29778L14.5371 7.76927ZM10.1751 9.76651C10.181 9.75864 10.1861 9.75192 10.1907 9.74572C10.1954 9.73955 10.1992 9.7345 10.2025 9.73019C10.2057 9.72588 10.2081 9.72277 10.2099 9.72051C10.2107 9.71941 10.2113 9.7186 10.2118 9.71805C10.2122 9.71749 10.2124 9.71724 10.2124 9.71724C10.2124 9.71724 10.2122 9.71755 10.2117 9.71811C10.2112 9.71868 10.2105 9.71953 10.2096 9.72064C10.2078 9.72285 10.205 9.72615 10.2013 9.73027C10.1937 9.73893 10.1837 9.74966 10.1717 9.76143L8.77282 8.332C8.67827 8.42452 8.60396 8.52805 8.57511 8.56652L10.1751 9.76651ZM9.28407 8.00165C9.24014 8.02118 9.12262 8.07049 9.01131 8.14198L10.0922 9.82477C10.078 9.83386 10.0653 9.84121 10.0552 9.84674C10.0503 9.84936 10.0465 9.85136 10.0439 9.85266C10.0426 9.85332 10.0416 9.85381 10.041 9.85413C10.0403 9.85445 10.04 9.85462 10.04 9.85462C10.04 9.85463 10.0403 9.85448 10.0409 9.85418C10.0415 9.85388 10.0425 9.85345 10.0437 9.85287C10.0463 9.85167 10.0499 9.85004 10.0548 9.84781C10.0598 9.84558 10.0655 9.84299 10.0726 9.83985C10.0797 9.83668 10.0873 9.83327 10.0963 9.82928L9.28407 8.00165ZM10.1717 9.76143C10.1474 9.78519 10.1207 9.80641 10.0922 9.82476L9.0113 8.14199C8.92557 8.19706 8.84566 8.26072 8.77283 8.332L10.1717 9.76143ZM6.78279 11.3594C6.88109 11.4296 7.00279 11.5175 7.11593 11.5852C7.23928 11.6591 7.42276 11.7536 7.66013 11.7909L7.97082 9.81522C8.02978 9.82449 8.07694 9.84009 8.10884 9.85327C8.13779 9.86523 8.15132 9.87406 8.14335 9.86928C8.13501 9.86429 8.11671 9.85267 8.08076 9.82783C8.04482 9.803 8.00288 9.77307 7.94525 9.73192L6.78279 11.3594ZM7.66901 9.77466C7.62652 9.83131 7.59559 9.87252 7.56884 9.90705C7.54208 9.9416 7.52814 9.9582 7.5217 9.96548C7.51554 9.97244 7.52577 9.95994 7.54976 9.93978C7.57618 9.91758 7.61642 9.88845 7.66982 9.86179L8.56315 11.6512C8.77813 11.5439 8.92445 11.3983 9.01972 11.2906C9.10709 11.1918 9.19654 11.0713 9.26901 10.9747L7.66901 9.77466ZM7.66013 11.7909C7.96835 11.8394 8.28401 11.7906 8.56316 11.6512L7.66981 9.8618C7.76286 9.81534 7.86808 9.79906 7.97082 9.81522L7.66013 11.7909ZM21 12C21 16.9706 16.9706 21 12 21V23C18.0751 23 23 18.0751 23 12H21ZM12 21C7.02944 21 3 16.9706 3 12H1C1 18.0751 5.92487 23 12 23V21ZM3 12C3 7.02944 7.02944 3 12 3V1C5.92487 1 1 5.92487 1 12H3ZM12 3C16.9706 3 21 7.02944 21 12H23C23 5.92487 18.0751 1 12 1V3Z" fill="#171717"/>
</svg>
