<svg width="24" height="24" viewBox="0 0 24 24" fill="none" xmlns="http://www.w3.org/2000/svg">
<path d="M2 8.49958L1.55279 7.60515C1.214 7.77454 1 8.1208 1 8.49958C1 8.87835 1.214 9.22461 1.55279 9.394L2 8.49958ZM22 8.49958L22.4472 9.394C22.786 9.22461 23 8.87835 23 8.49958C23 8.1208 22.786 7.77454 22.4472 7.60515L22 8.49958ZM11.9078 13.432L11.7234 14.4148L11.9078 13.432ZM12.0922 13.432L12.2766 14.4148L12.0922 13.432ZM11.6422 3.67846L12.0894 4.57289L11.6422 3.67846ZM11.9078 3.56717L11.7234 2.58432L11.9078 3.56717ZM12.3578 3.67846L11.9106 4.57289L12.3578 3.67846ZM12.0922 3.56717L12.2766 2.58432L12.0922 3.56717ZM16 14.4996C16 15.0519 16.4477 15.4996 17 15.4996C17.5523 15.4996 18 15.0519 18 14.4996H16ZM12.4472 7.60515C11.9532 7.35816 11.3526 7.55838 11.1056 8.05236C10.8586 8.54634 11.0588 9.14701 11.5528 9.394L12.4472 7.60515ZM16.9727 11.1456L16.0273 11.4716L16.9727 11.1456ZM16.8572 10.9587L17.5716 10.259L17.5716 10.259L16.8572 10.9587ZM5 9.49958C5 8.94729 4.55228 8.49958 4 8.49958C3.44772 8.49958 3 8.94729 3 9.49958H5ZM21 9.49958C21 8.94729 20.5523 8.49958 20 8.49958C19.4477 8.49958 19 8.94729 19 9.49958H21ZM4.93335 17.7607L4.51669 18.6698L4.5167 18.6698L4.93335 17.7607ZM11.3334 20.694L11.75 19.785H11.75L11.3334 20.694ZM12.6666 20.694L13.0833 21.6031L12.6666 20.694ZM19.0666 17.7607L19.4833 18.6698L19.4833 18.6698L19.0666 17.7607ZM11.8289 20.8848L11.6579 21.8701H11.6579L11.8289 20.8848ZM12.1711 20.8848L12.3421 21.8701H12.3421L12.1711 20.8848ZM19.942 17.0269L19 16.6912L19 16.6912L19.942 17.0269ZM19.6976 17.4077L19 16.6912L19 16.6912L19.6976 17.4077ZM4.05802 17.0269L3.11604 17.3625V17.3625L4.05802 17.0269ZM4.30238 17.4077L5 16.6912L5 16.6912L4.30238 17.4077ZM11.195 2.78403L1.55279 7.60515L2.44721 9.394L12.0894 4.57289L11.195 2.78403ZM1.55279 9.394L11.195 14.2151L12.0894 12.4263L2.44721 7.60515L1.55279 9.394ZM12.805 14.2151L22.4472 9.394L21.5528 7.60515L11.9106 12.4263L12.805 14.2151ZM22.4472 7.60515L12.805 2.78404L11.9106 4.57289L21.5528 9.394L22.4472 7.60515ZM11.195 14.2151C11.2743 14.2548 11.4847 14.37 11.7234 14.4148L12.0922 12.4491C12.1074 12.452 12.1218 12.4553 12.1353 12.4588C12.1487 12.4623 12.1603 12.4658 12.1699 12.469C12.1885 12.4752 12.1989 12.4798 12.1974 12.4791C12.1968 12.4789 12.1942 12.4777 12.1889 12.4753C12.1836 12.4728 12.1766 12.4695 12.1672 12.4649C12.1577 12.4603 12.1468 12.4549 12.1336 12.4483C12.1204 12.4417 12.1061 12.4346 12.0894 12.4263L11.195 14.2151ZM11.9106 12.4263C11.8939 12.4346 11.8796 12.4417 11.8664 12.4483C11.8532 12.4549 11.8423 12.4603 11.8328 12.4649C11.8234 12.4695 11.8164 12.4728 11.8111 12.4753C11.8058 12.4777 11.8032 12.4789 11.8026 12.4791C11.8011 12.4798 11.8115 12.4752 11.8301 12.469C11.8397 12.4658 11.8513 12.4623 11.8647 12.4588C11.8782 12.4553 11.8926 12.452 11.9078 12.4491L12.2766 14.4148C12.5153 14.37 12.7257 14.2548 12.805 14.2151L11.9106 12.4263ZM11.7234 14.4148C11.9062 14.4491 12.0938 14.4491 12.2766 14.4148L11.9078 12.4491C11.9687 12.4377 12.0313 12.4377 12.0922 12.4491L11.7234 14.4148ZM12.0894 4.57289C12.1061 4.56457 12.1204 4.55743 12.1336 4.55084C12.1468 4.54429 12.1577 4.5389 12.1672 4.5343C12.1766 4.5297 12.1836 4.52635 12.1889 4.52388C12.1942 4.52142 12.1968 4.52028 12.1974 4.52002C12.1989 4.51935 12.1885 4.524 12.1699 4.53015C12.1603 4.53332 12.1487 4.53686 12.1353 4.54037C12.1218 4.5439 12.1074 4.54718 12.0922 4.55002L11.7234 2.58432C11.4847 2.62911 11.2744 2.74437 11.195 2.78404L12.0894 4.57289ZM12.805 2.78404C12.7256 2.74437 12.5153 2.62911 12.2766 2.58432L11.9078 4.55002C11.8926 4.54718 11.8782 4.5439 11.8647 4.54037C11.8513 4.53686 11.8397 4.53332 11.8301 4.53015C11.8115 4.524 11.8011 4.51935 11.8026 4.52002C11.8032 4.52028 11.8058 4.52142 11.8111 4.52388C11.8164 4.52635 11.8234 4.5297 11.8328 4.5343C11.8423 4.5389 11.8532 4.54429 11.8664 4.55084C11.8796 4.55743 11.8939 4.56457 11.9106 4.57289L12.805 2.78404ZM12.0922 4.55002C12.0313 4.56145 11.9687 4.56145 11.9078 4.55002L12.2766 2.58432C12.0938 2.55002 11.9062 2.55002 11.7234 2.58432L12.0922 4.55002ZM18 14.4996V11.494H16V14.4996H18ZM17.005 9.88403L12.4472 7.60515L11.5528 9.394L16.1106 11.6729L17.005 9.88403ZM18 11.494C18 11.387 18.013 11.095 17.918 10.8195L16.0273 11.4716C16.0212 11.4538 16.0161 11.4365 16.012 11.4201C16.0079 11.4038 16.005 11.3894 16.0029 11.3776C15.999 11.3547 15.9983 11.3415 15.9985 11.3444C15.9986 11.3456 15.9988 11.3495 15.999 11.3569C15.9993 11.3644 15.9995 11.3742 15.9996 11.3872C15.9998 11.4003 15.9999 11.4154 16 11.4334C16 11.4516 16 11.4713 16 11.494H18ZM16.1106 11.6729C16.1309 11.6831 16.1485 11.6918 16.1647 11.7C16.1808 11.7081 16.1943 11.715 16.2059 11.721C16.2175 11.7269 16.2262 11.7315 16.2327 11.7351C16.2393 11.7386 16.2426 11.7405 16.2437 11.7411C16.2462 11.7426 16.2347 11.7361 16.216 11.7223C16.2063 11.7152 16.1948 11.7062 16.182 11.6952C16.1692 11.6842 16.156 11.6719 16.1428 11.6585L17.5716 10.259C17.3677 10.0508 17.1007 9.93188 17.005 9.88403L16.1106 11.6729ZM17.918 10.8195C17.8455 10.6093 17.7272 10.4179 17.5716 10.259L16.1428 11.6585C16.0909 11.6055 16.0515 11.5417 16.0273 11.4716L17.918 10.8195ZM3 9.49958V16.3062H5V9.49958H3ZM21 16.3062V9.49958H19V16.3062H21ZM4.5167 18.6698L10.9167 21.6031L11.75 19.785L5.35001 16.8516L4.5167 18.6698ZM13.0833 21.6031L19.4833 18.6698L18.65 16.8516L12.25 19.785L13.0833 21.6031ZM10.9167 21.6031C11.1138 21.6934 11.3725 21.8205 11.6579 21.8701L12 19.8995C12.0282 19.9044 12.0359 19.9105 11.9962 19.8946C11.9473 19.8751 11.8813 19.8451 11.75 19.785L10.9167 21.6031ZM12.25 19.785C12.1187 19.8451 12.0527 19.8751 12.0038 19.8946C11.9641 19.9105 11.9718 19.9044 12 19.8995L12.3421 21.8701C12.6275 21.8205 12.8862 21.6934 13.0833 21.6031L12.25 19.785ZM11.6579 21.8701C11.8843 21.9094 12.1157 21.9094 12.3421 21.8701L12 19.8995H12L11.6579 21.8701ZM19 16.3062C19 16.5046 18.9995 16.607 18.9948 16.6811C18.9908 16.7432 18.9864 16.7294 19 16.6912L20.884 17.3625C21.0139 16.9979 21 16.6027 21 16.3062H19ZM19.4833 18.6698C19.7528 18.5462 20.1179 18.3942 20.3952 18.1241L19 16.6912C19.0291 16.6629 19.0434 16.6612 18.9886 16.6907C18.9233 16.7259 18.8304 16.769 18.65 16.8516L19.4833 18.6698ZM19 16.6912V16.6912L20.3952 18.1241C20.6142 17.911 20.7814 17.6504 20.884 17.3625L19 16.6912ZM3 16.3062C3 16.6027 2.9861 16.9979 3.11604 17.3625L5 16.6912C5.01361 16.7294 5.00918 16.7432 5.00521 16.6811C5.00047 16.607 5 16.5046 5 16.3062H3ZM5.35001 16.8516C5.16965 16.769 5.07675 16.7259 5.01138 16.6907C4.95658 16.6612 4.97094 16.6629 5 16.6912L3.60476 18.1241C3.88209 18.3942 4.2472 18.5462 4.51669 18.6698L5.35001 16.8516ZM3.11604 17.3625C3.21862 17.6504 3.3858 17.9109 3.60476 18.1241L5 16.6912H5L3.11604 17.3625Z" fill="#171717"/>
</svg>
