<svg width="24" height="24" viewBox="0 0 24 24" fill="none" xmlns="http://www.w3.org/2000/svg">
<path d="M2 14.6009H1H2ZM2.10899 13.5469L1.21799 13.0929L2.10899 13.5469ZM3.6 13.0009L3.6 14.0009H3.6V13.0009ZM2.54601 13.1099L2.09202 12.2189H2.09202L2.54601 13.1099ZM3.6 22.0009L3.6 23.0009H3.6V22.0009ZM2.54601 21.8919L3 21.0009H3L2.54601 21.8919ZM2 20.4009H3H2ZM2.10899 21.4549L1.21799 21.9089L2.10899 21.4549ZM5.89101 21.4549L6.78201 21.9089L5.89101 21.4549ZM4.4 22.0009L4.4 21.0009H4.4V22.0009ZM5.45399 21.8919L5.90798 22.7829L5.45399 21.8919ZM5.89101 13.5469L6.78201 13.0929L5.89101 13.5469ZM4.4 13.0009L4.4 12.0009H4.4V13.0009ZM5.45399 13.1099L5 14.0009L5.45399 13.1099ZM13.2855 17.0507L13.2855 16.0507C12.7332 16.0507 12.2855 16.4984 12.2855 17.0507C12.2855 17.603 12.7332 18.0507 13.2855 18.0507V17.0507ZM16.9626 16.6457L16.3732 15.8379L16.3725 15.8384L16.9626 16.6457ZM19.4771 14.8112L18.888 14.0032L18.8877 14.0033L19.4771 14.8112ZM21.5379 14.9539L20.8406 15.6707L21.5379 14.9539ZM21.5379 17.1226L20.8412 16.4052L20.8406 16.4058L21.5379 17.1226ZM19.3803 19.2214L20.0776 19.9382L19.3803 19.2214ZM17.253 20.329L17.4439 21.3106L17.4442 21.3105L17.253 20.329ZM14.2035 20.9223L14.3941 21.9039L14.3944 21.9039L14.2035 20.9223ZM12.3769 20.8798L12.6136 19.9082L12.613 19.908L12.3769 20.8798ZM9.61881 20.2095L9.3804 21.1807L9.38268 21.1812L9.61881 20.2095ZM6 19.088C5.44772 19.088 5 19.5357 5 20.088C5 20.6403 5.44772 21.088 6 21.088V19.088ZM14.8311 17.0506V16.0506H14.831L14.8311 17.0506ZM15.2141 13.7227L14.9778 14.6944L14.9784 14.6946L15.2141 13.7227ZM12.8286 13.1426L13.0649 12.1709L13.0643 12.1708L12.8286 13.1426ZM8.93189 13.7997L9.3177 14.7223C9.32782 14.718 9.33787 14.7136 9.34784 14.7091L8.93189 13.7997ZM5.61419 14.1032C5.10467 14.3162 4.86435 14.902 5.07742 15.4116C5.2905 15.9211 5.87628 16.1614 6.38581 15.9483L5.61419 14.1032ZM17.1914 3.59313L16.2891 4.02431C16.4151 4.28803 16.6502 4.4834 16.9326 4.55905C17.2149 4.6347 17.5162 4.58305 17.7572 4.41767L17.1914 3.59313ZM12.5325 5.8037L13.454 5.41535L12.5325 5.8037ZM20.1208 7.837L20.7247 8.63407L20.1208 7.837ZM14.5781 9.3199L15.419 8.7787L14.5781 9.3199ZM15.161 10.0478L14.6326 10.8968L15.161 10.0478ZM16.5911 9.8593L17.0488 10.7484L16.5911 9.8593ZM15.7224 10.1982L15.6893 9.19877L15.7224 10.1982ZM5 14.6009V20.4009H7V14.6009H5ZM4.4 21.0009H3.6V23.0009H4.4V21.0009ZM3 20.4009V14.6009H1L1 20.4009H3ZM3.6 14.0009H4.4V12.0009H3.6V14.0009ZM3 14.6009C3 14.3043 3.00078 14.1421 3.0103 14.0255C3.01887 13.9206 3.0293 13.9434 3 14.0009L1.21799 13.0929C1.07969 13.3643 1.03562 13.634 1.01695 13.8626C0.999222 14.0796 1 14.3373 1 14.6009H3ZM3.6 12.0009C3.33648 12.0009 3.07869 12.0001 2.86177 12.0178C2.63318 12.0365 2.36344 12.0806 2.09202 12.2189L3 14.0009C2.94249 14.0302 2.91972 14.0197 3.02463 14.0112C3.14122 14.0016 3.30347 14.0009 3.6 14.0009L3.6 12.0009ZM3 14.0009H3L2.09202 12.2189C1.7157 12.4106 1.40973 12.7166 1.21799 13.0929L3 14.0009ZM3.6 21.0009C3.30347 21.0009 3.14122 21.0001 3.02463 20.9906C2.91972 20.982 2.94249 20.9716 3 21.0009L2.09202 22.7829C2.36344 22.9212 2.63318 22.9652 2.86177 22.9839C3.07869 23.0016 3.33647 23.0009 3.6 23.0009L3.6 21.0009ZM1 20.4009C1 20.6644 0.999222 20.9222 1.01695 21.1391C1.03562 21.3677 1.07969 21.6374 1.21799 21.9089L3 21.0009C3.0293 21.0584 3.01887 21.0811 3.0103 20.9762C3.00078 20.8597 3 20.6974 3 20.4009H1ZM3 21.0009H3L1.21799 21.9089C1.40973 22.2852 1.7157 22.5911 2.09202 22.7829L3 21.0009ZM5 20.4009C5 20.6974 4.99922 20.8597 4.9897 20.9762C4.98113 21.0811 4.9707 21.0584 5 21.0009L6.78201 21.9089C6.92031 21.6374 6.96438 21.3677 6.98305 21.1391C7.00078 20.9222 7 20.6644 7 20.4009H5ZM4.4 23.0009C4.66352 23.0009 4.92131 23.0016 5.13823 22.9839C5.36682 22.9653 5.63655 22.9212 5.90798 22.7829L5 21.0009C5.05751 20.9716 5.08028 20.982 4.97537 20.9906C4.85878 21.0001 4.69653 21.0009 4.4 21.0009L4.4 23.0009ZM5 21.0009V21.0009L5.90798 22.7829C6.28431 22.5911 6.59027 22.2852 6.78201 21.9089L5 21.0009ZM7 14.6009C7 14.3373 7.00078 14.0796 6.98305 13.8626C6.96438 13.634 6.92031 13.3643 6.78201 13.0929L5 14.0009C4.9707 13.9434 4.98113 13.9206 4.9897 14.0255C4.99922 14.1421 5 14.3043 5 14.6009H7ZM4.4 14.0009C4.69653 14.0009 4.85878 14.0016 4.97537 14.0112C5.08028 14.0197 5.05751 14.0302 5 14.0009L5.90798 12.2189C5.63656 12.0806 5.36683 12.0365 5.13823 12.0178C4.92131 12.0001 4.66353 12.0009 4.4 12.0009L4.4 14.0009ZM6.78201 13.0929C6.59027 12.7166 6.2843 12.4106 5.90798 12.2189L5 14.0009V14.0009L6.78201 13.0929ZM13.2855 18.0507H15.7137V16.0507H13.2855V18.0507ZM15.7137 18.0507C16.3733 18.0507 17.0188 17.8433 17.5527 17.453L16.3725 15.8384C16.1862 15.9746 15.9553 16.0507 15.7137 16.0507V18.0507ZM17.552 17.4536L20.0665 15.619L18.8877 14.0033L16.3732 15.8379L17.552 17.4536ZM20.0663 15.6192C20.3025 15.447 20.6372 15.4729 20.8406 15.6707L22.2352 14.2371C21.3291 13.3557 19.907 13.2601 18.888 14.0032L20.0663 15.6192ZM20.8406 15.6707C21.0535 15.8778 21.0526 16.1999 20.8412 16.4052L22.2346 17.84C23.2555 16.8485 23.2546 15.2288 22.2352 14.2371L20.8406 15.6707ZM20.8406 16.4058L18.6831 18.5046L20.0776 19.9382L22.2352 17.8394L20.8406 16.4058ZM18.6831 18.5046C18.2436 18.932 17.6792 19.2272 17.0618 19.3474L17.4442 21.3105C18.4379 21.117 19.3555 20.6406 20.0776 19.9382L18.6831 18.5046ZM17.062 19.3474L14.0125 19.9407L14.3944 21.9039L17.4439 21.3106L17.062 19.3474ZM14.0128 19.9406C13.5491 20.0307 13.0714 20.0197 12.6136 19.9082L12.1402 21.8513C12.8793 22.0314 13.6485 22.0487 14.3941 21.9039L14.0128 19.9406ZM12.613 19.908L9.85495 19.2378L9.38268 21.1812L12.1408 21.8515L12.613 19.908ZM9.85723 19.2384C9.44842 19.138 9.03008 19.088 8.61029 19.088V21.088C8.87117 21.088 9.12935 21.1191 9.3804 21.1807L9.85723 19.2384ZM8.61029 19.088H6V21.088H8.61029V19.088ZM13.2855 18.0507L14.8311 18.0506L14.831 16.0506L13.2855 16.0507L13.2855 18.0507ZM14.8311 18.0506C16.2283 18.0506 17.4079 16.9423 17.4079 15.5168H15.4079C15.4079 15.7861 15.1761 16.0506 14.8311 16.0506V18.0506ZM17.4079 15.5168V15.21H15.4079V15.5168H17.4079ZM17.4079 15.21C17.4079 14.0282 16.5834 13.0258 15.4497 12.7509L14.9784 14.6946C15.2477 14.7599 15.4079 14.9845 15.4079 15.21H17.4079ZM15.4504 12.7511L13.0649 12.1709L12.5923 14.1143L14.9778 14.6944L15.4504 12.7511ZM13.0643 12.1708C12.599 12.0579 12.1223 12.0009 11.6431 12.0009V14.0009C11.9633 14.0009 12.2818 14.039 12.5929 14.1144L13.0643 12.1708ZM11.6431 12.0009C10.9678 12.0009 10.1413 12.2607 9.58833 12.4589C9.28912 12.5661 9.02385 12.6728 8.83353 12.7525C8.73803 12.7925 8.66052 12.8261 8.60606 12.8501C8.5788 12.8621 8.55725 12.8717 8.54204 12.8785C8.53443 12.8819 8.5284 12.8846 8.52403 12.8866C8.52184 12.8876 8.52007 12.8884 8.51872 12.889C8.51804 12.8893 8.51747 12.8896 8.51701 12.8898C8.51678 12.8899 8.51657 12.89 8.5164 12.8901C8.51631 12.8901 8.51619 12.8902 8.51615 12.8902C8.51604 12.8903 8.51594 12.8903 8.93189 13.7997C9.34784 14.7091 9.34776 14.7091 9.34768 14.7091C9.34766 14.7092 9.34759 14.7092 9.34755 14.7092C9.34748 14.7092 9.34743 14.7093 9.34742 14.7093C9.34738 14.7093 9.34744 14.7093 9.34761 14.7092C9.34795 14.709 9.34869 14.7087 9.34984 14.7082C9.35213 14.7071 9.35603 14.7054 9.36144 14.7029C9.37228 14.6981 9.3892 14.6905 9.41158 14.6807C9.45639 14.6609 9.52287 14.6321 9.60617 14.5972C9.77345 14.5272 10.0051 14.4341 10.2631 14.3416C10.8245 14.1404 11.3537 14.0009 11.6431 14.0009V12.0009ZM8.54609 12.8771L5.61419 14.1032L6.38581 15.9483L9.3177 14.7223L8.54609 12.8771ZM18.0936 3.16194C17.3016 1.50459 15.3713 0.50175 13.4497 1.41874L14.3111 3.22374C15.0659 2.86356 15.8875 3.18394 16.2891 4.02431L18.0936 3.16194ZM13.4497 1.41874C11.6347 2.28491 10.841 4.36493 11.6109 6.19204L13.454 5.41535C13.1034 4.58357 13.4499 3.63475 14.3111 3.22374L13.4497 1.41874ZM20.7247 8.63407C22.2936 7.44543 22.6915 5.23875 21.5111 3.5697L19.8782 4.72452C20.4197 5.49014 20.2479 6.48615 19.5169 7.03992L20.7247 8.63407ZM21.5111 3.5697C20.2889 1.84154 18.1497 1.72273 16.6256 2.76858L17.7572 4.41767C18.5156 3.89726 19.3786 4.01801 19.8782 4.72452L21.5111 3.5697ZM11.6109 6.19204C11.9983 7.11116 13.0462 8.78749 13.7372 9.86111L15.419 8.7787C14.6953 7.65426 13.7591 6.1395 13.454 5.41535L11.6109 6.19204ZM17.0488 10.7484C18.184 10.1642 19.9297 9.23638 20.7247 8.63407L19.5169 7.03992C18.8906 7.51447 17.3225 8.35821 16.1335 8.97016L17.0488 10.7484ZM13.7372 9.86111C13.8591 10.0505 13.9823 10.2434 14.1023 10.3999C14.2323 10.5695 14.3978 10.7507 14.6326 10.8968L15.6893 9.19877C15.7333 9.22612 15.7381 9.24641 15.6896 9.18323C15.6312 9.10702 15.5584 8.99534 15.419 8.7787L13.7372 9.86111ZM16.1335 8.97016C15.9044 9.08806 15.7856 9.14837 15.6969 9.18516C15.6233 9.21566 15.6376 9.20048 15.6893 9.19877L15.7554 11.1977C16.0319 11.1885 16.2658 11.1144 16.4632 11.0325C16.6453 10.957 16.8485 10.8515 17.0488 10.7484L16.1335 8.97016ZM14.6326 10.8968C14.9645 11.1033 15.3648 11.2106 15.7554 11.1977L15.6893 9.19877L15.6893 9.19877L14.6326 10.8968Z" fill="#171717"/>
</svg>
