<svg width="24" height="24" viewBox="0 0 24 24" fill="none" xmlns="http://www.w3.org/2000/svg">
<path d="M7.72711 8.43926L8.3673 7.67104L7.72711 8.43926ZM7 2C7 1.44772 6.55228 1 6 1C5.44772 1 5 1.44772 5 2H7ZM19 2C19 1.44772 18.5523 1 18 1C17.4477 1 17 1.44772 17 2H19ZM16.2729 8.43926L16.9131 9.20748L16.2729 8.43926ZM5 22C5 22.5523 5.44772 23 6 23C6.55228 23 7 22.5523 7 22H5ZM7.72711 15.5607L8.3673 16.329L7.72711 15.5607ZM16.2729 15.5607L15.6327 16.329L16.2729 15.5607ZM17 22C17 22.5523 17.4477 23 18 23C18.5523 23 19 22.5523 19 22H17ZM17.4534 16.6786L16.6356 17.2541L17.4534 16.6786ZM17.897 17.6257L16.9313 17.8855L16.9313 17.8855L17.897 17.6257ZM6.10301 17.6257L7.06868 17.8855L7.06868 17.8855L6.10301 17.6257ZM6.54664 16.6786L7.36443 17.2541L6.54664 16.6786ZM17.897 6.37428L16.9313 6.11448V6.11448L17.897 6.37428ZM17.4534 7.32144L16.6356 6.74592V6.74592L17.4534 7.32144ZM6.54664 7.32144L7.36443 6.74592V6.74592L6.54664 7.32144ZM6.10301 6.37428L5.13735 6.63408L6.10301 6.37428ZM4 1C3.44772 1 3 1.44772 3 2C3 2.55228 3.44772 3 4 3V1ZM20 3C20.5523 3 21 2.55228 21 2C21 1.44772 20.5523 1 20 1V3ZM4 21C3.44772 21 3 21.4477 3 22C3 22.5523 3.44772 23 4 23V21ZM20 23C20.5523 23 21 22.5523 21 22C21 21.4477 20.5523 21 20 21V23ZM12.6402 11.2318L8.3673 7.67104L7.08693 9.20748L11.3598 12.7682L12.6402 11.2318ZM7 4.7518V2H5V4.7518H7ZM17 2V4.7518H19V2H17ZM15.6327 7.67104L11.3598 11.2318L12.6402 12.7682L16.9131 9.20748L15.6327 7.67104ZM7 22V19.2482H5V22H7ZM8.3673 16.329L12.6402 12.7682L11.3598 11.2318L7.08693 14.7925L8.3673 16.329ZM11.3598 12.7682L15.6327 16.329L16.9131 14.7925L12.6402 11.2318L11.3598 12.7682ZM17 19.2482V22H19V19.2482H17ZM15.6327 16.329C16.3091 16.8926 16.5012 17.0632 16.6356 17.2541L18.2711 16.103C17.9491 15.6454 17.5063 15.2869 16.9131 14.7925L15.6327 16.329ZM19 19.2482C19 18.4759 19.008 17.9063 18.8626 17.3659L16.9313 17.8855C16.992 18.1109 17 18.3677 17 19.2482H19ZM16.6356 17.2541C16.7704 17.4456 16.8705 17.6593 16.9313 17.8855L18.8626 17.3659C18.7409 16.9136 18.5407 16.4861 18.2711 16.103L16.6356 17.2541ZM7 19.2482C7 18.3677 7.00804 18.1109 7.06868 17.8855L5.13735 17.3659C4.99196 17.9063 5 18.4759 5 19.2482H7ZM7.08693 14.7925C6.49366 15.2869 6.05092 15.6454 5.72885 16.103L7.36443 17.2541C7.49875 17.0632 7.69087 16.8926 8.3673 16.329L7.08693 14.7925ZM7.06868 17.8855C7.12953 17.6593 7.22963 17.4456 7.36443 17.2541L5.72885 16.103C5.45926 16.4861 5.25905 16.9136 5.13735 17.3659L7.06868 17.8855ZM17 4.7518C17 5.63231 16.992 5.88909 16.9313 6.11448L18.8626 6.63409C19.008 6.09368 19 5.52407 19 4.7518H17ZM16.9131 9.20748C17.5063 8.71309 17.9491 8.35461 18.2711 7.89696L16.6356 6.74592C16.5012 6.93679 16.3091 7.10735 15.6327 7.67104L16.9131 9.20748ZM16.9313 6.11448C16.8705 6.34065 16.7704 6.55438 16.6356 6.74592L18.2711 7.89696C18.5407 7.51388 18.7409 7.08643 18.8626 6.63408L16.9313 6.11448ZM8.3673 7.67104C7.69087 7.10735 7.49875 6.93679 7.36443 6.74592L5.72885 7.89696C6.05092 8.35461 6.49366 8.71309 7.08693 9.20748L8.3673 7.67104ZM5 4.7518C5 5.52407 4.99196 6.09368 5.13735 6.63408L7.06868 6.11448C7.00804 5.88909 7 5.63231 7 4.7518H5ZM7.36443 6.74592C7.22963 6.55438 7.12953 6.34065 7.06868 6.11448L5.13735 6.63408C5.25905 7.08643 5.45926 7.51388 5.72885 7.89696L7.36443 6.74592ZM4 3H20V1H4V3ZM4 23H20V21H4V23Z" fill="#171717"/>
</svg>
