<svg width="24" height="24" viewBox="0 0 24 24" fill="none" xmlns="http://www.w3.org/2000/svg">
<path d="M3.56499 20.0208C3.17446 20.4113 3.17446 21.0445 3.56499 21.435C3.95551 21.8255 4.58868 21.8255 4.9792 21.435L3.56499 20.0208ZM10.8686 14.1314L11.5757 14.8385L10.8686 14.1314ZM13.1314 14.1314L12.4243 14.8385L12.4243 14.8385L13.1314 14.1314ZM18.9768 21.391C19.3673 21.7815 20.0005 21.7815 20.391 21.391C20.7815 21.0005 20.7815 20.3673 20.391 19.9768L18.9768 21.391ZM11.691 13.4632L11.382 12.5121H11.382L11.691 13.4632ZM12.309 13.4632L12.618 12.5121H12.618L12.309 13.4632ZM16.8686 12.1314L16.1615 11.4243L16.8686 12.1314ZM13.2929 14.2929C12.9024 14.6834 12.9024 15.3166 13.2929 15.7071C13.6834 16.0976 14.3166 16.0976 14.7071 15.7071L13.2929 14.2929ZM21.2929 15.7071C21.6834 16.0976 22.3166 16.0976 22.7071 15.7071C23.0976 15.3166 23.0976 14.6834 22.7071 14.2929L21.2929 15.7071ZM19.1314 12.1314L19.8385 11.4243L19.1314 12.1314ZM17.691 11.4632L17.382 10.5121L17.691 11.4632ZM18.309 11.4632L18.618 10.5121L18.309 11.4632ZM3.63803 20.673L3.18404 21.564L3.63803 20.673ZM2.32698 19.362L1.43597 19.816L2.32698 19.362ZM21.673 19.362L22.564 19.816L21.673 19.362ZM20.362 20.673L20.816 21.564L20.362 20.673ZM20.362 3.32698L20.816 2.43597L20.362 3.32698ZM21.673 4.63803L22.564 4.18404L21.673 4.63803ZM3.63803 3.32698L3.18404 2.43597L3.63803 3.32698ZM2.32698 4.63803L1.43597 4.18404L2.32698 4.63803ZM4.9792 21.435L11.5757 14.8385L10.1615 13.4243L3.56499 20.0208L4.9792 21.435ZM12.4243 14.8385L18.9768 21.391L20.391 19.9768L13.8385 13.4243L12.4243 14.8385ZM11.5757 14.8385C11.7854 14.6288 11.9007 14.5146 11.9899 14.4389C12.0701 14.3708 12.0614 14.3943 12 14.4142L11.382 12.5121C11.0922 12.6062 10.8704 12.7658 10.6955 12.9142C10.5296 13.0551 10.3479 13.2379 10.1615 13.4243L11.5757 14.8385ZM13.8385 13.4243C13.6521 13.2379 13.4704 13.0551 13.3045 12.9142C13.1296 12.7658 12.9078 12.6062 12.618 12.5121L12 14.4142C11.9386 14.3943 11.9299 14.3708 12.0101 14.4389C12.0993 14.5146 12.2146 14.6288 12.4243 14.8385L13.8385 13.4243ZM12 14.4142H12L12.618 12.5121C12.2163 12.3816 11.7837 12.3816 11.382 12.5121L12 14.4142ZM9 9C9 9.55228 8.55228 10 8 10V12C9.65685 12 11 10.6569 11 9H9ZM8 10C7.44772 10 7 9.55228 7 9H5C5 10.6569 6.34315 12 8 12V10ZM7 9C7 8.44772 7.44772 8 8 8V6C6.34315 6 5 7.34315 5 9H7ZM8 8C8.55228 8 9 8.44772 9 9H11C11 7.34315 9.65685 6 8 6V8ZM16.1615 11.4243L13.2929 14.2929L14.7071 15.7071L17.5757 12.8385L16.1615 11.4243ZM22.7071 14.2929L19.8385 11.4243L18.4243 12.8385L21.2929 15.7071L22.7071 14.2929ZM17.5757 12.8385C17.7854 12.6288 17.9007 12.5146 17.9899 12.4389C18.0701 12.3708 18.0614 12.3943 18 12.4142L17.382 10.5121C17.0922 10.6062 16.8704 10.7658 16.6955 10.9142C16.5296 11.0551 16.3479 11.2379 16.1615 11.4243L17.5757 12.8385ZM19.8385 11.4243C19.6521 11.2379 19.4704 11.0551 19.3045 10.9142C19.1296 10.7658 18.9078 10.6062 18.618 10.5121L18 12.4142C17.9386 12.3943 17.9299 12.3708 18.0101 12.4389C18.0993 12.5146 18.2146 12.6288 18.4243 12.8385L19.8385 11.4243ZM18 12.4142L18.618 10.5121C18.2163 10.3816 17.7837 10.3816 17.382 10.5121L18 12.4142ZM6.8 4H17.2V2H6.8V4ZM21 7.8V16.2H23V7.8H21ZM17.2 20H6.8V22H17.2V20ZM3 16.2V7.8H1V16.2H3ZM6.8 20C5.94342 20 5.36113 19.9992 4.91104 19.9624C4.47262 19.9266 4.24842 19.8617 4.09202 19.782L3.18404 21.564C3.66937 21.8113 4.18608 21.9099 4.74817 21.9558C5.2986 22.0008 5.97642 22 6.8 22V20ZM1 16.2C1 17.0236 0.999222 17.7014 1.04419 18.2518C1.09012 18.8139 1.18868 19.3306 1.43597 19.816L3.21799 18.908C3.1383 18.7516 3.07337 18.5274 3.03755 18.089C3.00078 17.6389 3 17.0566 3 16.2H1ZM4.09202 19.782C3.7157 19.5903 3.40973 19.2843 3.21799 18.908L1.43597 19.816C1.81947 20.5686 2.43139 21.1805 3.18404 21.564L4.09202 19.782ZM21 16.2C21 17.0566 20.9992 17.6389 20.9624 18.089C20.9266 18.5274 20.8617 18.7516 20.782 18.908L22.564 19.816C22.8113 19.3306 22.9099 18.8139 22.9558 18.2518C23.0008 17.7014 23 17.0236 23 16.2H21ZM17.2 22C18.0236 22 18.7014 22.0008 19.2518 21.9558C19.8139 21.9099 20.3306 21.8113 20.816 21.564L19.908 19.782C19.7516 19.8617 19.5274 19.9266 19.089 19.9624C18.6389 19.9992 18.0566 20 17.2 20V22ZM20.782 18.908C20.5903 19.2843 20.2843 19.5903 19.908 19.782L20.816 21.564C21.5686 21.1805 22.1805 20.5686 22.564 19.816L20.782 18.908ZM17.2 4C18.0566 4 18.6389 4.00078 19.089 4.03755C19.5274 4.07337 19.7516 4.1383 19.908 4.21799L20.816 2.43597C20.3306 2.18868 19.8139 2.09012 19.2518 2.04419C18.7014 1.99922 18.0236 2 17.2 2V4ZM23 7.8C23 6.97642 23.0008 6.2986 22.9558 5.74817C22.9099 5.18608 22.8113 4.66937 22.564 4.18404L20.782 5.09202C20.8617 5.24842 20.9266 5.47262 20.9624 5.91104C20.9992 6.36113 21 6.94342 21 7.8H23ZM19.908 4.21799C20.2843 4.40973 20.5903 4.7157 20.782 5.09202L22.564 4.18404C22.1805 3.43139 21.5686 2.81947 20.816 2.43597L19.908 4.21799ZM6.8 2C5.97642 2 5.2986 1.99922 4.74817 2.04419C4.18608 2.09012 3.66937 2.18868 3.18404 2.43597L4.09202 4.21799C4.24842 4.1383 4.47262 4.07337 4.91104 4.03755C5.36113 4.00078 5.94342 4 6.8 4V2ZM3 7.8C3 6.94342 3.00078 6.36113 3.03755 5.91104C3.07337 5.47262 3.1383 5.24842 3.21799 5.09202L1.43597 4.18404C1.18868 4.66937 1.09012 5.18608 1.04419 5.74817C0.999222 6.2986 1 6.97642 1 7.8H3ZM3.18404 2.43597C2.43139 2.81947 1.81947 3.43139 1.43597 4.18404L3.21799 5.09202C3.40973 4.71569 3.71569 4.40973 4.09202 4.21799L3.18404 2.43597Z" fill="#171717"/>
</svg>
