<svg width="24" height="24" viewBox="0 0 24 24" fill="none" xmlns="http://www.w3.org/2000/svg">
<path d="M21 16V17C21.5523 17 22 16.5523 22 16H21ZM15.1808 16.0276L14.9473 15.0553L15.1808 16.0276ZM14.8917 16.1474L14.3692 15.2947L14.8917 16.1474ZM9.53137 16.5314L8.82426 17.2385L8.82426 17.2385L9.53137 16.5314ZM9.89172 16.8526L9.36922 17.7053L9.89172 16.8526ZM10.1808 16.9724L9.94732 17.9447L10.1808 16.9724ZM13.8192 16.9724L14.0527 17.9447L13.8192 16.9724ZM14.1083 16.8526L14.6308 17.7053L14.1083 16.8526ZM19.908 4.21799L19.454 5.10899L19.908 4.21799ZM20.782 5.09202L19.891 5.54601L20.782 5.09202ZM9.46863 16.4686L10.1757 15.7615L10.1757 15.7615L9.46863 16.4686ZM9.10828 16.1474L9.63078 15.2947L9.10828 16.1474ZM8.81923 16.0276L9.05268 15.0553L8.81923 16.0276ZM4.09202 4.21799L4.54601 5.10899L4.09202 4.21799ZM3.21799 5.09202L4.10899 5.54601L3.21799 5.09202ZM20 15C19.4477 15 19 15.4477 19 16C19 16.5523 19.4477 17 20 17V15ZM3.48236 19.9319L3.74118 18.9659H3.74118L3.48236 19.9319ZM2.06815 18.5176L3.03407 18.2588L2.06815 18.5176ZM21.9319 18.5176L22.8978 18.7765L22.8978 18.7765L21.9319 18.5176ZM20.5176 19.9319L20.2588 18.9659L20.2588 18.9659L20.5176 19.9319ZM21.9659 16.7412L21 17L21 17L21.9659 16.7412ZM21.2588 16.0341L21.5176 15.0681V15.0681L21.2588 16.0341ZM6.2 5H17.8V3H6.2V5ZM20 7.2V16H22V7.2H20ZM4 16V7.2H2V16H4ZM10.2385 15.8243L10.1757 15.7615L8.76152 17.1757L8.82426 17.2385L10.2385 15.8243ZM8.33726 15H3V17H8.33726V15ZM13.3373 16H10.6627V18H13.3373V16ZM21 15H15.6627V17H21V15ZM13.8243 15.7615L13.7615 15.8243L15.1757 17.2385L15.2385 17.1757L13.8243 15.7615ZM15.6627 15C15.4658 15 15.2043 14.9936 14.9473 15.0553L15.4142 17C15.3891 17.006 15.3806 17.0042 15.4189 17.0024C15.4664 17.0002 15.5317 17 15.6627 17V15ZM15.2385 17.1757C15.3311 17.0831 15.3775 17.037 15.4126 17.005C15.441 16.9791 15.4362 16.9865 15.4142 17L14.3692 15.2947C14.1439 15.4328 13.9636 15.6222 13.8243 15.7615L15.2385 17.1757ZM14.9473 15.0553C14.7432 15.1043 14.5482 15.1851 14.3692 15.2947L15.4142 17L14.9473 15.0553ZM8.82426 17.2385C8.96356 17.3778 9.14391 17.5672 9.36922 17.7053L10.4142 16C10.4362 16.0135 10.441 16.0209 10.4126 15.995C10.3775 15.963 10.3311 15.9169 10.2385 15.8243L8.82426 17.2385ZM10.6627 16C10.5317 16 10.4664 15.9998 10.4189 15.9976C10.3806 15.9958 10.3891 15.994 10.4142 16L9.94732 17.9447C10.2043 18.0064 10.4658 18 10.6627 18V16ZM9.36922 17.7053C9.54816 17.8149 9.74325 17.8957 9.94732 17.9447L10.4142 16L9.36922 17.7053ZM13.3373 18C13.5342 18 13.7957 18.0064 14.0527 17.9447L13.5858 16C13.6109 15.994 13.6194 15.9958 13.5811 15.9976C13.5336 15.9998 13.4683 16 13.3373 16V18ZM13.7615 15.8243C13.6689 15.9169 13.6225 15.963 13.5874 15.995C13.559 16.0209 13.5638 16.0135 13.5858 16L14.6308 17.7053C14.8561 17.5672 15.0364 17.3778 15.1757 17.2385L13.7615 15.8243ZM14.0527 17.9447C14.2568 17.8957 14.4518 17.8149 14.6308 17.7053L13.5858 16L14.0527 17.9447ZM17.8 5C18.3766 5 18.7488 5.00078 19.0322 5.02393C19.3038 5.04612 19.4045 5.0838 19.454 5.10899L20.362 3.32698C19.9836 3.13419 19.5904 3.06287 19.195 3.03057C18.8114 2.99922 18.3436 3 17.8 3V5ZM22 7.2C22 6.65645 22.0008 6.18864 21.9694 5.80497C21.9371 5.40963 21.8658 5.01641 21.673 4.63803L19.891 5.54601C19.9162 5.59545 19.9539 5.69617 19.9761 5.96784C19.9992 6.25117 20 6.62345 20 7.2H22ZM19.454 5.10899C19.6422 5.20487 19.7951 5.35785 19.891 5.54601L21.673 4.63803C21.3854 4.07354 20.9265 3.6146 20.362 3.32698L19.454 5.10899ZM10.1757 15.7615C10.0364 15.6222 9.85609 15.4328 9.63078 15.2947L8.58579 17C8.56378 16.9865 8.55905 16.9791 8.58737 17.005C8.62249 17.037 8.66889 17.0831 8.76152 17.1757L10.1757 15.7615ZM8.33726 17C8.46826 17 8.53364 17.0002 8.58113 17.0024C8.61944 17.0042 8.61088 17.006 8.58579 17L9.05268 15.0553C8.79573 14.9936 8.53425 15 8.33726 15V17ZM9.63078 15.2947C9.45184 15.1851 9.25675 15.1043 9.05268 15.0553L8.58579 17H8.58579L9.63078 15.2947ZM6.2 3C5.65645 3 5.18864 2.99922 4.80497 3.03057C4.40963 3.06287 4.01641 3.13419 3.63803 3.32698L4.54601 5.10899C4.59545 5.0838 4.69617 5.04612 4.96784 5.02393C5.25117 5.00078 5.62345 5 6.2 5V3ZM4 7.2C4 6.62345 4.00078 6.25117 4.02393 5.96784C4.04612 5.69617 4.0838 5.59545 4.10899 5.54601L2.32698 4.63803C2.13419 5.01641 2.06287 5.40963 2.03057 5.80497C1.99922 6.18864 2 6.65645 2 7.2H4ZM3.63803 3.32698C3.07354 3.6146 2.6146 4.07354 2.32698 4.63803L4.10899 5.54601C4.20487 5.35785 4.35785 5.20487 4.54601 5.10899L3.63803 3.32698ZM19.3333 19H4.66667V21H19.3333V19ZM3 17.3333V17H1V17.3333H3ZM20 17H20.6667V15H20V17ZM4.66667 19C3.9823 19 3.83629 18.9914 3.74118 18.9659L3.22354 20.8978C3.6371 21.0086 4.11107 21 4.66667 21V19ZM1 17.3333C1 17.8889 0.991411 18.3629 1.10222 18.7765L3.03407 18.2588C3.00859 18.1637 3 18.0177 3 17.3333H1ZM3.74118 18.9659C3.39609 18.8735 3.12654 18.6039 3.03407 18.2588L1.10222 18.7765C1.37962 19.8117 2.18827 20.6204 3.22354 20.8978L3.74118 18.9659ZM21 17.3333C21 18.0177 20.9914 18.1637 20.9659 18.2588L22.8978 18.7765C23.0086 18.3629 23 17.8889 23 17.3333H21ZM19.3333 21C19.8889 21 20.3629 21.0086 20.7765 20.8978L20.2588 18.9659C20.1637 18.9914 20.0177 19 19.3333 19V21ZM20.9659 18.2588C20.8735 18.6039 20.6039 18.8735 20.2588 18.9659L20.7765 20.8978C21.8117 20.6204 22.6204 19.8117 22.8978 18.7765L20.9659 18.2588ZM23 17.3333C23 17.0877 23.0086 16.7687 22.9319 16.4824L21 17C20.9905 16.9645 20.994 16.9543 20.9968 17.0143C20.9998 17.0796 21 17.1693 21 17.3333H23ZM20.6667 17C20.8307 17 20.9204 17.0002 20.9857 17.0032C21.0457 17.006 21.0355 17.0095 21 17L21.5176 15.0681C21.2312 14.9914 20.9123 15 20.6667 15V17ZM22.9319 16.4824C22.7469 15.7922 22.2078 15.2531 21.5176 15.0681L21 17L21 17L22.9319 16.4824ZM3 17V15C1.89543 15 1 15.8954 1 17H3Z" fill="#171717"/>
</svg>
