<svg width="24" height="24" viewBox="0 0 24 24" fill="none" xmlns="http://www.w3.org/2000/svg">
<path d="M9.5 21C8.94772 21 8.5 21.4477 8.5 22C8.5 22.5523 8.94772 23 9.5 23V21ZM14.5 23C15.0523 23 15.5 22.5523 15.5 22C15.5 21.4477 15.0523 21 14.5 21V23ZM15 15.3264L14.5709 14.4231C14.2222 14.5888 14 14.9403 14 15.3264H15ZM9 15.3264H10C10 14.9403 9.77779 14.5888 9.42909 14.4231L9 15.3264ZM14.8478 17.7654L13.9239 17.3827L14.8478 17.7654ZM9.5 23H14.5V21H9.5V23ZM15.4291 16.2296C18.1296 14.9468 20 12.1928 20 9H18C18 11.392 16.6003 13.459 14.5709 14.4231L15.4291 16.2296ZM20 9C20 4.58172 16.4183 1 12 1V3C15.3137 3 18 5.68629 18 9H20ZM12 1C7.58172 1 4 4.58172 4 9H6C6 5.68629 8.68629 3 12 3V1ZM4 9C4 12.1928 5.87043 14.9468 8.57091 16.2296L9.42909 14.4231C7.39967 13.459 6 11.392 6 9H4ZM10 16V15.3264H8V16H10ZM14 15.3264V16H16V15.3264H14ZM12 20C12.4523 20 12.8415 20.0005 13.1624 19.9787C13.4922 19.9561 13.8221 19.9066 14.1481 19.7716L13.3827 17.9239C13.3411 17.9411 13.2542 17.9677 13.0262 17.9833C12.7893 17.9995 12.4796 18 12 18V20ZM14 16C14 16.4796 13.9995 16.7893 13.9833 17.0262C13.9677 17.2542 13.9411 17.3411 13.9239 17.3827L15.7716 18.1481C15.9066 17.8221 15.9561 17.4922 15.9787 17.1624C16.0005 16.8415 16 16.4523 16 16H14ZM14.1481 19.7716C14.8831 19.4672 15.4672 18.8831 15.7716 18.1481L13.9239 17.3827C13.8224 17.6277 13.6277 17.8224 13.3827 17.9239L14.1481 19.7716ZM8 16C8 16.4523 7.99946 16.8415 8.02135 17.1624C8.04385 17.4922 8.09336 17.8221 8.22836 18.1481L10.0761 17.3827C10.0589 17.3411 10.0323 17.2542 10.0167 17.0262C10.0005 16.7893 10 16.4796 10 16H8ZM12 18C11.5204 18 11.2107 17.9995 10.9738 17.9833C10.7458 17.9677 10.6589 17.9411 10.6173 17.9239L9.85195 19.7716C10.1779 19.9066 10.5078 19.9561 10.8376 19.9787C11.1585 20.0005 11.5477 20 12 20V18ZM8.22836 18.1481C8.53284 18.8831 9.11686 19.4672 9.85195 19.7716L10.6173 17.9239C10.3723 17.8224 10.1776 17.6277 10.0761 17.3827L8.22836 18.1481Z" fill="#171717"/>
</svg>
