<svg width="24" height="24" viewBox="0 0 24 24" fill="none" xmlns="http://www.w3.org/2000/svg">
<path d="M21 22C21.5523 22 22 21.5523 22 21C22 20.4477 21.5523 20 21 20V22ZM4 3C4 2.44772 3.55228 2 3 2C2.44772 2 2 2.44772 2 3H4ZM3.54601 20.891L4 20L4 20L3.54601 20.891ZM3.10899 20.454L2.21799 20.908L2.21799 20.908L3.10899 20.454ZM21 7H22C22 6.44772 21.5523 6 21 6V7ZM6.29289 14.2929C5.90237 14.6834 5.90237 15.3166 6.29289 15.7071C6.68342 16.0976 7.31658 16.0976 7.70711 15.7071L6.29289 14.2929ZM12.5657 10.5657L11.8586 11.2728L12.5657 10.5657ZM12.1545 10.2316L12.4635 9.28052L12.1545 10.2316ZM11.8455 10.2316L11.5365 9.28052L11.8455 10.2316ZM15.1545 12.7684L15.4635 13.7195L15.1545 12.7684ZM14.4343 12.4343L15.1414 11.7272L14.4343 12.4343ZM14.8455 12.7684L14.5365 13.7195L14.8455 12.7684ZM17 6C16.4477 6 16 6.44772 16 7C16 7.55228 16.4477 8 17 8V6ZM20 11C20 11.5523 20.4477 12 21 12C21.5523 12 22 11.5523 22 11H20ZM21 20H4.6V22H21V20ZM4 19.4V3H2V19.4H4ZM4.6 20C4.30347 20 4.14122 19.9992 4.02463 19.9897C3.91972 19.9811 3.94249 19.9707 4 20L3.09202 21.782C3.36344 21.9203 3.63318 21.9644 3.86177 21.9831C4.07869 22.0008 4.33647 22 4.6 22V20ZM2 19.4C2 19.6635 1.99922 19.9213 2.01695 20.1382C2.03562 20.3668 2.07969 20.6366 2.21799 20.908L4 20C4.0293 20.0575 4.01887 20.0803 4.0103 19.9754C4.00078 19.8588 4 19.6965 4 19.4H2ZM4 20L4 20L2.21799 20.908C2.40973 21.2843 2.71569 21.5903 3.09202 21.782L4 20ZM20.2929 6.29289L14.8586 11.7272L16.2728 13.1414L21.7071 7.70711L20.2929 6.29289ZM15.1414 11.7272L13.2728 9.85858L11.8586 11.2728L13.7272 13.1414L15.1414 11.7272ZM10.7272 9.85858L6.29289 14.2929L7.70711 15.7071L12.1414 11.2728L10.7272 9.85858ZM13.2728 9.85858C13.1855 9.77124 13.078 9.66266 12.9758 9.57595C12.8648 9.48166 12.6962 9.35611 12.4635 9.28052L11.8455 11.1826C11.7875 11.1638 11.7426 11.1403 11.7129 11.122C11.6859 11.1053 11.674 11.0943 11.6815 11.1006C11.6892 11.1072 11.7059 11.1222 11.7381 11.1533C11.7702 11.1844 11.8075 11.2217 11.8586 11.2728L13.2728 9.85858ZM12.1414 11.2728C12.1925 11.2217 12.2298 11.1844 12.2619 11.1533C12.2941 11.1222 12.3108 11.1072 12.3185 11.1006C12.326 11.0943 12.3141 11.1053 12.2871 11.122C12.2574 11.1403 12.2125 11.1638 12.1545 11.1826L11.5365 9.28052C11.3038 9.35611 11.1352 9.48166 11.0242 9.57595C10.922 9.66266 10.8145 9.77124 10.7272 9.85858L12.1414 11.2728ZM12.4635 9.28052C12.1623 9.18263 11.8377 9.18263 11.5365 9.28052L12.1545 11.1826C12.0541 11.2153 11.9459 11.2153 11.8455 11.1826L12.4635 9.28052ZM14.8586 11.7272C14.8075 11.7783 14.7702 11.8156 14.7381 11.8467C14.7059 11.8778 14.6892 11.8928 14.6815 11.8994C14.674 11.9057 14.6859 11.8947 14.7129 11.878C14.7426 11.8597 14.7875 11.8362 14.8455 11.8174L15.4635 13.7195C15.6962 13.6439 15.8648 13.5183 15.9758 13.4241C16.078 13.3373 16.1855 13.2288 16.2728 13.1414L14.8586 11.7272ZM13.7272 13.1414C13.8145 13.2288 13.922 13.3373 14.0242 13.4241C14.1352 13.5183 14.3038 13.6439 14.5365 13.7195L15.1545 11.8174C15.2125 11.8362 15.2574 11.8597 15.2871 11.878C15.3141 11.8947 15.326 11.9057 15.3185 11.8994C15.3108 11.8928 15.2941 11.8778 15.2619 11.8467C15.2298 11.8156 15.1925 11.7783 15.1414 11.7272L13.7272 13.1414ZM14.8455 11.8174C14.9459 11.7847 15.0541 11.7847 15.1545 11.8174L14.5365 13.7195C14.8377 13.8174 15.1623 13.8174 15.4635 13.7195L14.8455 11.8174ZM17 8H21V6H17V8ZM20 7V11H22V7H20Z" fill="#171717"/>
</svg>
