<svg width="24" height="24" viewBox="0 0 24 24" fill="none" xmlns="http://www.w3.org/2000/svg">
<path fill-rule="evenodd" clip-rule="evenodd" d="M7.85986 5.92993C7.85986 6.9958 6.9958 7.85986 5.92993 7.85986C4.86406 7.85986 4 6.9958 4 5.92993C4 4.86406 4.86406 4 5.92993 4C6.9958 4 7.85986 4.86406 7.85986 5.92993ZM9.68241 20.0301V9.32282H12.8737V10.787H12.9187C13.3623 9.94643 14.4473 9.05821 16.0658 9.05821C19.437 9.05821 20.058 11.2748 20.058 14.1591V20.0309H16.7318V14.8233C16.7318 13.5823 16.7106 11.9849 15.0021 11.9849C13.2697 11.9849 13.0069 13.3379 13.0069 14.7351V20.0301H9.68241ZM7.59459 9.32282H4.26485V20.0301H7.59459V9.32282Z" fill="white"/>
</svg>
