<svg width="44" height="44" viewBox="0 0 44 44" fill="none" xmlns="http://www.w3.org/2000/svg">
<circle cx="22" cy="22" r="21.5" stroke="#CBCBCB"/>
<path fill-rule="evenodd" clip-rule="evenodd" d="M17.8596 15.9294C17.8596 16.9953 16.9956 17.8594 15.9297 17.8594C14.8638 17.8594 13.9998 16.9953 13.9998 15.9294C13.9998 14.8636 14.8638 13.9995 15.9297 13.9995C16.9956 13.9995 17.8596 14.8636 17.8596 15.9294ZM19.6822 30.0296V19.3223H22.8734V20.7865H22.9184C23.3621 19.9459 24.447 19.0577 26.0656 19.0577C29.4368 19.0577 30.0577 21.2743 30.0577 24.1586V30.0304H26.7315V24.8228C26.7315 23.5818 26.7104 21.9844 25.0018 21.9844C23.2695 21.9844 23.0066 23.3374 23.0066 24.7346V30.0296H19.6822ZM17.5943 19.3223H14.2646V30.0296H17.5943V19.3223Z" fill="#171717"/>
</svg>
