<svg width="24" height="24" viewBox="0 0 24 24" fill="none" xmlns="http://www.w3.org/2000/svg">
<path d="M21 13C21.5523 13 22 12.5523 22 12C22 11.4477 21.5523 11 21 11V13ZM9 11C8.44772 11 8 11.4477 8 12C8 12.5523 8.44772 13 9 13V11ZM21 7C21.5523 7 22 6.55229 22 6C22 5.44772 21.5523 5 21 5V7ZM9 5C8.44772 5 8 5.44772 8 6C8 6.55228 8.44772 7 9 7V5ZM21 19C21.5523 19 22 18.5523 22 18C22 17.4477 21.5523 17 21 17V19ZM9 17C8.44772 17 8 17.4477 8 18C8 18.5523 8.44772 19 9 19V17ZM21 11L9 11V13L21 13V11ZM4 12V14C5.10457 14 6 13.1046 6 12H4ZM4 12H2C2 13.1046 2.89543 14 4 14V12ZM4 12V10C2.89543 10 2 10.8954 2 12H4ZM4 12H6C6 10.8954 5.10457 10 4 10V12ZM21 5L9 5V7L21 7V5ZM4 6V8C5.10457 8 6 7.10457 6 6H4ZM4 6H2C2 7.10457 2.89543 8 4 8V6ZM4 6V4C2.89543 4 2 4.89543 2 6H4ZM4 6H6C6 4.89543 5.10457 4 4 4V6ZM21 17L9 17V19L21 19V17ZM4 18V20C5.10457 20 6 19.1046 6 18H4ZM4 18H2C2 19.1046 2.89543 20 4 20V18ZM4 18V16C2.89543 16 2 16.8954 2 18H4ZM4 18H6C6 16.8954 5.10457 16 4 16V18Z" fill="#171717"/>
</svg>
