<svg width="24" height="24" viewBox="0 0 24 24" fill="none" xmlns="http://www.w3.org/2000/svg">
<path d="M16 10C16 10.5523 16.4477 11 17 11C17.5523 11 18 10.5523 18 10H16ZM6 10C6 10.5523 6.44772 11 7 11C7.55228 11 8 10.5523 8 10H6ZM13 14.5C13 13.9477 12.5523 13.5 12 13.5C11.4477 13.5 11 13.9477 11 14.5H13ZM11 16.5C11 17.0523 11.4477 17.5 12 17.5C12.5523 17.5 13 17.0523 13 16.5H11ZM5.63803 20.673L5.18404 21.564L5.63803 20.673ZM4.32698 19.362L3.43597 19.816L4.32698 19.362ZM19.673 19.362L20.564 19.816L19.673 19.362ZM18.362 20.673L18.816 21.564L18.362 20.673ZM18.362 10.327L18.816 9.43597L18.362 10.327ZM19.673 11.638L20.564 11.184L19.673 11.638ZM5.63803 10.327L5.18404 9.43597L5.63803 10.327ZM4.32698 11.638L3.43597 11.184L4.32698 11.638ZM16 8V10H18V8H16ZM8 10V8H6V10H8ZM12 4C14.2091 4 16 5.79086 16 8H18C18 4.68629 15.3137 2 12 2V4ZM12 2C8.68629 2 6 4.68629 6 8H8C8 5.79086 9.79086 4 12 4V2ZM11 14.5V16.5H13V14.5H11ZM8.8 11H15.2V9H8.8V11ZM19 14.8V16.2H21V14.8H19ZM15.2 20H8.8V22H15.2V20ZM5 16.2V14.8H3V16.2H5ZM8.8 20C7.94342 20 7.36113 19.9992 6.91104 19.9624C6.47262 19.9266 6.24842 19.8617 6.09202 19.782L5.18404 21.564C5.66937 21.8113 6.18608 21.9099 6.74817 21.9558C7.2986 22.0008 7.97642 22 8.8 22V20ZM3 16.2C3 17.0236 2.99922 17.7014 3.04419 18.2518C3.09012 18.8139 3.18868 19.3306 3.43597 19.816L5.21799 18.908C5.1383 18.7516 5.07337 18.5274 5.03755 18.089C5.00078 17.6389 5 17.0566 5 16.2H3ZM6.09202 19.782C5.7157 19.5903 5.40973 19.2843 5.21799 18.908L3.43597 19.816C3.81947 20.5686 4.43139 21.1805 5.18404 21.564L6.09202 19.782ZM19 16.2C19 17.0566 18.9992 17.6389 18.9624 18.089C18.9266 18.5274 18.8617 18.7516 18.782 18.908L20.564 19.816C20.8113 19.3306 20.9099 18.8139 20.9558 18.2518C21.0008 17.7014 21 17.0236 21 16.2H19ZM15.2 22C16.0236 22 16.7014 22.0008 17.2518 21.9558C17.8139 21.9099 18.3306 21.8113 18.816 21.564L17.908 19.782C17.7516 19.8617 17.5274 19.9266 17.089 19.9624C16.6389 19.9992 16.0566 20 15.2 20V22ZM18.782 18.908C18.5903 19.2843 18.2843 19.5903 17.908 19.782L18.816 21.564C19.5686 21.1805 20.1805 20.5686 20.564 19.816L18.782 18.908ZM15.2 11C16.0566 11 16.6389 11.0008 17.089 11.0376C17.5274 11.0734 17.7516 11.1383 17.908 11.218L18.816 9.43597C18.3306 9.18868 17.8139 9.09012 17.2518 9.04419C16.7014 8.99922 16.0236 9 15.2 9V11ZM21 14.8C21 13.9764 21.0008 13.2986 20.9558 12.7482C20.9099 12.1861 20.8113 11.6694 20.564 11.184L18.782 12.092C18.8617 12.2484 18.9266 12.4726 18.9624 12.911C18.9992 13.3611 19 13.9434 19 14.8H21ZM17.908 11.218C18.2843 11.4097 18.5903 11.7157 18.782 12.092L20.564 11.184C20.1805 10.4314 19.5686 9.81947 18.816 9.43597L17.908 11.218ZM8.8 9C7.97642 9 7.2986 8.99922 6.74817 9.04419C6.18608 9.09012 5.66937 9.18868 5.18404 9.43597L6.09202 11.218C6.24842 11.1383 6.47262 11.0734 6.91104 11.0376C7.36113 11.0008 7.94342 11 8.8 11V9ZM5 14.8C5 13.9434 5.00078 13.3611 5.03755 12.911C5.07337 12.4726 5.1383 12.2484 5.21799 12.092L3.43597 11.184C3.18868 11.6694 3.09012 12.1861 3.04419 12.7482C2.99922 13.2986 3 13.9764 3 14.8H5ZM5.18404 9.43597C4.43139 9.81947 3.81947 10.4314 3.43597 11.184L5.21799 12.092C5.40973 11.7157 5.71569 11.4097 6.09202 11.218L5.18404 9.43597Z" fill="#171717"/>
</svg>
