<svg width="24" height="24" viewBox="0 0 24 24" fill="none" xmlns="http://www.w3.org/2000/svg">
<path d="M21 7.8H22V7.8L21 7.8ZM21 16.2H20H21ZM15 2C14.4477 2 14 2.44772 14 3C14 3.55228 14.4477 4 15 4V2ZM15 20C14.4477 20 14 20.4477 14 21C14 21.5523 14.4477 22 15 22V20ZM20.673 19.362L19.782 18.908V18.908L20.673 19.362ZM19.362 20.673L19.816 21.564L19.362 20.673ZM20.673 4.63803L19.782 5.09202V5.09202L20.673 4.63803ZM19.362 3.32698L18.908 4.21799L18.908 4.21799L19.362 3.32698ZM10.7071 6.29289C10.3166 5.90237 9.68342 5.90237 9.29289 6.29289C8.90237 6.68342 8.90237 7.31658 9.29289 7.70711L10.7071 6.29289ZM15 12L15.7071 12.7071C16.0976 12.3166 16.0976 11.6834 15.7071 11.2929L15 12ZM9.29289 16.2929C8.90237 16.6834 8.90237 17.3166 9.29289 17.7071C9.68342 18.0976 10.3166 18.0976 10.7071 17.7071L9.29289 16.2929ZM3 11C2.44772 11 2 11.4477 2 12C2 12.5523 2.44772 13 3 13L3 11ZM20 7.8V16.2H22V7.8H20ZM15 4H16.2V2H15V4ZM16.2 20H15V22H16.2V20ZM20 16.2C20 17.0566 19.9992 17.6389 19.9624 18.089C19.9266 18.5274 19.8617 18.7516 19.782 18.908L21.564 19.816C21.8113 19.3306 21.9099 18.8139 21.9558 18.2518C22.0008 17.7014 22 17.0236 22 16.2H20ZM16.2 22C17.0236 22 17.7014 22.0008 18.2518 21.9558C18.8139 21.9099 19.3306 21.8113 19.816 21.564L18.908 19.782C18.7516 19.8617 18.5274 19.9266 18.089 19.9624C17.6389 19.9992 17.0566 20 16.2 20V22ZM19.782 18.908C19.5903 19.2843 19.2843 19.5903 18.908 19.782L19.816 21.564C20.5686 21.1805 21.1805 20.5686 21.564 19.816L19.782 18.908ZM22 7.8C22 6.97642 22.0008 6.2986 21.9558 5.74818C21.9099 5.18608 21.8113 4.66937 21.564 4.18404L19.782 5.09202C19.8617 5.24842 19.9266 5.47262 19.9624 5.91104C19.9992 6.36113 20 6.94342 20 7.8L22 7.8ZM16.2 4C17.0566 4 17.6389 4.00078 18.089 4.03755C18.5274 4.07337 18.7516 4.1383 18.908 4.21799L19.816 2.43597C19.3306 2.18868 18.8139 2.09012 18.2518 2.04419C17.7014 1.99922 17.0236 2 16.2 2V4ZM21.564 4.18404C21.1805 3.43139 20.5686 2.81947 19.816 2.43597L18.908 4.21799C19.2843 4.40973 19.5903 4.7157 19.782 5.09202L21.564 4.18404ZM9.29289 7.70711L14.2929 12.7071L15.7071 11.2929L10.7071 6.29289L9.29289 7.70711ZM14.2929 11.2929L9.29289 16.2929L10.7071 17.7071L15.7071 12.7071L14.2929 11.2929ZM3 13L15 13V11L3 11L3 13Z" fill="#171717"/>
</svg>
