<svg width="24" height="24" viewBox="0 0 24 24" fill="none" xmlns="http://www.w3.org/2000/svg">
<path d="M13.2929 9.29289C12.9024 9.68342 12.9024 10.3166 13.2929 10.7071C13.6834 11.0976 14.3166 11.0976 14.7071 10.7071L13.2929 9.29289ZM21 3H22C22 2.44772 21.5523 2 21 2V3ZM10.7071 14.7071C11.0976 14.3166 11.0976 13.6834 10.7071 13.2929C10.3166 12.9024 9.68342 12.9024 9.29289 13.2929L10.7071 14.7071ZM3 21H2C2 21.2652 2.10536 21.5196 2.29289 21.7071C2.48043 21.8946 2.73478 22 3 22V21ZM15 2C14.4477 2 14 2.44772 14 3C14 3.55228 14.4477 4 15 4V2ZM20 9C20 9.55228 20.4477 10 21 10C21.5523 10 22 9.55228 22 9H20ZM9 22C9.55228 22 10 21.5523 10 21C10 20.4477 9.55228 20 9 20V22ZM4 15C4 14.4477 3.55229 14 3 14C2.44772 14 2 14.4477 2 15H4ZM14.7071 10.7071L21.7071 3.70711L20.2929 2.29289L13.2929 9.29289L14.7071 10.7071ZM9.29289 13.2929L2.29289 20.2929L3.70711 21.7071L10.7071 14.7071L9.29289 13.2929ZM15 4H21V2H15V4ZM20 3V9H22V3H20ZM9 20H3V22H9V20ZM4 21L4 15H2L2 21H4Z" fill="#171717"/>
</svg>
