<svg width="24" height="24" viewBox="0 0 24 24" fill="none" xmlns="http://www.w3.org/2000/svg">
<path d="M3.77711 16.3374L4.7635 16.5017L3.77711 16.3374ZM3.82221 15.9839L4.82221 15.9837L3.82221 15.9839ZM3.65806 15.3845L2.73156 15.7608L3.65806 15.3845ZM3.798 15.7653L4.77378 15.5466L3.798 15.7653ZM4.10476 20.8159L4.26916 21.8023H4.26916L4.10476 20.8159ZM3.41118 20.8512L3.80537 19.9322L3.41118 20.8512ZM3.18413 19.8952L2.19773 19.7308L3.18413 19.8952ZM3.14876 20.5888L4.06779 20.1946L3.14876 20.5888ZM8.61549 20.3419L8.23921 21.2684L8.61549 20.3419ZM8.23472 20.202L8.016 21.1778L8.23472 20.202ZM7.66265 20.2229L7.49825 19.2365H7.49825L7.66265 20.2229ZM8.01613 20.1778L8.016 21.1778L8.01613 20.1778ZM7.5 11C6.94772 11 6.5 11.4477 6.5 12C6.5 12.5523 6.94772 13 7.5 13V11ZM7.51 13C8.06228 13 8.51 12.5523 8.51 12C8.51 11.4477 8.06228 11 7.51 11V13ZM12 11C11.4477 11 11 11.4477 11 12C11 12.5523 11.4477 13 12 13V11ZM12.01 13C12.5623 13 13.01 12.5523 13.01 12C13.01 11.4477 12.5623 11 12.01 11V13ZM16.5 11C15.9477 11 15.5 11.4477 15.5 12C15.5 12.5523 15.9477 13 16.5 13V11ZM16.51 13C17.0623 13 17.51 12.5523 17.51 12C17.51 11.4477 17.0623 11 16.51 11V13ZM12 22C17.5228 22 22 17.5228 22 12H20C20 16.4183 16.4183 20 12 20V22ZM8.23921 21.2684C9.4015 21.7405 10.6717 22 12 22V20C10.934 20 9.91911 19.792 8.99177 19.4154L8.23921 21.2684ZM4.26916 21.8023L7.82705 21.2093L7.49825 19.2365L3.94036 19.8295L4.26916 21.8023ZM2.79071 16.173L2.19773 19.7308L4.17052 20.0596L4.7635 16.5017L2.79071 16.173ZM2 12C2 13.3283 2.25952 14.5985 2.73156 15.7608L4.58457 15.0082C4.20795 14.0809 4 13.066 4 12H2ZM12 2C6.47715 2 2 6.47715 2 12H4C4 7.58172 7.58172 4 12 4V2ZM22 12C22 6.47715 17.5228 2 12 2V4C16.4183 4 20 7.58172 20 12H22ZM4.7635 16.5017C4.78754 16.3575 4.82223 16.1695 4.82221 15.9837L2.82221 15.984C2.8222 15.9632 2.82435 15.9576 2.82 15.9897C2.815 16.0266 2.80672 16.0769 2.79071 16.173L4.7635 16.5017ZM2.73156 15.7608C2.77419 15.8658 2.79872 15.9264 2.81552 15.9711C2.83218 16.0155 2.82813 16.0104 2.82221 15.984L4.77378 15.5466C4.73276 15.3635 4.64873 15.1662 4.58457 15.0082L2.73156 15.7608ZM4.82221 15.9837C4.82219 15.8292 4.80759 15.6974 4.77378 15.5466L2.82221 15.984L4.82221 15.9837ZM3.94036 19.8295C3.84475 19.8454 3.77237 19.8574 3.71054 19.8667C3.64839 19.876 3.61328 19.8799 3.5935 19.8813C3.57337 19.8829 3.58845 19.8803 3.62399 19.8838C3.66392 19.8878 3.72921 19.8995 3.80537 19.9322L3.017 21.7703C3.30312 21.893 3.57386 21.8885 3.74404 21.8757C3.90948 21.8632 4.10148 21.8302 4.26916 21.8023L3.94036 19.8295ZM2.19773 19.7308C2.16979 19.8985 2.13682 20.0905 2.12433 20.256C2.11148 20.4261 2.10701 20.6969 2.22973 20.983L4.06779 20.1946C4.10046 20.2708 4.11215 20.3361 4.11617 20.376C4.11974 20.4115 4.11713 20.4266 4.11865 20.4065C4.12015 20.3867 4.12405 20.3516 4.13332 20.2895C4.14255 20.2276 4.15459 20.1552 4.17052 20.0596L2.19773 19.7308ZM3.80537 19.9322C3.92327 19.9828 4.01722 20.0767 4.06779 20.1946L2.22973 20.983C2.38144 21.3367 2.66329 21.6186 3.017 21.7703L3.80537 19.9322ZM8.99177 19.4154C8.83378 19.3513 8.63645 19.2672 8.45344 19.2262L8.016 21.1778C7.98956 21.1719 7.98452 21.1678 8.02887 21.1845C8.07362 21.2013 8.13423 21.2258 8.23921 21.2684L8.99177 19.4154ZM7.82705 21.2093C7.92309 21.1933 7.97339 21.185 8.01029 21.18C8.04238 21.1757 8.03679 21.1778 8.016 21.1778L8.01626 19.1778C7.83051 19.1778 7.64251 19.2125 7.49825 19.2365L7.82705 21.2093ZM8.45344 19.2262C8.30263 19.1924 8.17082 19.1778 8.01626 19.1778L8.016 21.1778L8.45344 19.2262ZM7.5 13H7.51V11H7.5V13ZM7 12C7 11.7239 7.22386 11.5 7.5 11.5V13.5C8.32843 13.5 9 12.8284 9 12H7ZM7.5 11.5C7.77614 11.5 8 11.7239 8 12H6C6 12.8284 6.67157 13.5 7.5 13.5V11.5ZM8 12C8 12.2761 7.77614 12.5 7.5 12.5V10.5C6.67157 10.5 6 11.1716 6 12H8ZM7.5 12.5C7.22386 12.5 7 12.2761 7 12H9C9 11.1716 8.32843 10.5 7.5 10.5V12.5ZM12 13H12.01V11H12V13ZM11.5 12C11.5 11.7239 11.7239 11.5 12 11.5V13.5C12.8284 13.5 13.5 12.8284 13.5 12H11.5ZM12 11.5C12.2761 11.5 12.5 11.7239 12.5 12H10.5C10.5 12.8284 11.1716 13.5 12 13.5V11.5ZM12.5 12C12.5 12.2761 12.2761 12.5 12 12.5V10.5C11.1716 10.5 10.5 11.1716 10.5 12H12.5ZM12 12.5C11.7239 12.5 11.5 12.2761 11.5 12H13.5C13.5 11.1716 12.8284 10.5 12 10.5V12.5ZM16.5 13H16.51V11H16.5V13ZM16 12C16 11.7239 16.2239 11.5 16.5 11.5V13.5C17.3284 13.5 18 12.8284 18 12H16ZM16.5 11.5C16.7761 11.5 17 11.7239 17 12H15C15 12.8284 15.6716 13.5 16.5 13.5V11.5ZM17 12C17 12.2761 16.7761 12.5 16.5 12.5V10.5C15.6716 10.5 15 11.1716 15 12H17ZM16.5 12.5C16.2239 12.5 16 12.2761 16 12H18C18 11.1716 17.3284 10.5 16.5 10.5V12.5Z" fill="#171717"/>
</svg>
