<svg width="24" height="24" viewBox="0 0 24 24" fill="none" xmlns="http://www.w3.org/2000/svg">
<path d="M3.63803 16.673L3.18404 17.564L3.63803 16.673ZM2.32698 15.362L1.43597 15.816L2.32698 15.362ZM21.673 15.362L22.564 15.816L21.673 15.362ZM20.362 16.673L20.816 17.564L20.362 16.673ZM20.362 3.32698L20.816 2.43597L20.362 3.32698ZM21.673 4.63803L22.564 4.18404L21.673 4.63803ZM3.63803 3.32698L3.18404 2.43597L3.63803 3.32698ZM2.32698 4.63803L1.43597 4.18404L2.32698 4.63803ZM8 20C7.44772 20 7 20.4477 7 21C7 21.5523 7.44772 22 8 22V20ZM16 22C16.5523 22 17 21.5523 17 21C17 20.4477 16.5523 20 16 20V22ZM13 17C13 16.4477 12.5523 16 12 16C11.4477 16 11 16.4477 11 17H13ZM11 21C11 21.5523 11.4477 22 12 22C12.5523 22 13 21.5523 13 21H11ZM6.8 4H17.2V2H6.8V4ZM21 7.8V12.2H23V7.8H21ZM17.2 16H6.8V18H17.2V16ZM3 12.2V7.8H1V12.2H3ZM6.8 16C5.94342 16 5.36113 15.9992 4.91104 15.9624C4.47262 15.9266 4.24842 15.8617 4.09202 15.782L3.18404 17.564C3.66937 17.8113 4.18608 17.9099 4.74817 17.9558C5.2986 18.0008 5.97642 18 6.8 18V16ZM1 12.2C1 13.0236 0.999222 13.7014 1.04419 14.2518C1.09012 14.8139 1.18868 15.3306 1.43597 15.816L3.21799 14.908C3.1383 14.7516 3.07337 14.5274 3.03755 14.089C3.00078 13.6389 3 13.0566 3 12.2H1ZM4.09202 15.782C3.71569 15.5903 3.40973 15.2843 3.21799 14.908L1.43597 15.816C1.81947 16.5686 2.43139 17.1805 3.18404 17.564L4.09202 15.782ZM21 12.2C21 13.0566 20.9992 13.6389 20.9624 14.089C20.9266 14.5274 20.8617 14.7516 20.782 14.908L22.564 15.816C22.8113 15.3306 22.9099 14.8139 22.9558 14.2518C23.0008 13.7014 23 13.0236 23 12.2H21ZM17.2 18C18.0236 18 18.7014 18.0008 19.2518 17.9558C19.8139 17.9099 20.3306 17.8113 20.816 17.564L19.908 15.782C19.7516 15.8617 19.5274 15.9266 19.089 15.9624C18.6389 15.9992 18.0566 16 17.2 16V18ZM20.782 14.908C20.5903 15.2843 20.2843 15.5903 19.908 15.782L20.816 17.564C21.5686 17.1805 22.1805 16.5686 22.564 15.816L20.782 14.908ZM17.2 4C18.0566 4 18.6389 4.00078 19.089 4.03755C19.5274 4.07337 19.7516 4.1383 19.908 4.21799L20.816 2.43597C20.3306 2.18868 19.8139 2.09012 19.2518 2.04419C18.7014 1.99922 18.0236 2 17.2 2V4ZM23 7.8C23 6.97642 23.0008 6.2986 22.9558 5.74817C22.9099 5.18608 22.8113 4.66937 22.564 4.18404L20.782 5.09202C20.8617 5.24842 20.9266 5.47262 20.9624 5.91104C20.9992 6.36113 21 6.94342 21 7.8H23ZM19.908 4.21799C20.2843 4.40973 20.5903 4.7157 20.782 5.09202L22.564 4.18404C22.1805 3.43139 21.5686 2.81947 20.816 2.43597L19.908 4.21799ZM6.8 2C5.97642 2 5.2986 1.99922 4.74817 2.04419C4.18608 2.09012 3.66937 2.18868 3.18404 2.43597L4.09202 4.21799C4.24842 4.1383 4.47262 4.07337 4.91104 4.03755C5.36113 4.00078 5.94342 4 6.8 4V2ZM3 7.8C3 6.94342 3.00078 6.36113 3.03755 5.91104C3.07337 5.47262 3.1383 5.24842 3.21799 5.09202L1.43597 4.18404C1.18868 4.66937 1.09012 5.18608 1.04419 5.74817C0.999222 6.2986 1 6.97642 1 7.8H3ZM3.18404 2.43597C2.43139 2.81947 1.81947 3.43139 1.43597 4.18404L3.21799 5.09202C3.40973 4.71569 3.71569 4.40973 4.09202 4.21799L3.18404 2.43597ZM8 22H16V20H8V22ZM11 17V21H13V17H11Z" fill="#171717"/>
</svg>
