<svg width="24" height="24" viewBox="0 0 24 24" fill="none" xmlns="http://www.w3.org/2000/svg">
<path d="M20.9856 8.15248C21.4684 7.88427 21.6423 7.27546 21.3741 6.79268C21.1059 6.30989 20.4971 6.13595 20.0143 6.40416L20.9856 8.15248ZM3.98561 6.40416C3.50283 6.13595 2.89402 6.30989 2.62581 6.79268C2.3576 7.27546 2.53154 7.88427 3.01432 8.15248L3.98561 6.40416ZM11 21.5006C11 22.0529 11.4477 22.5006 12 22.5006C12.5523 22.5006 13 22.0529 13 21.5006L11 21.5006ZM20.9495 16.7259L21.899 17.0396L20.9495 16.7259ZM20.177 17.4578L20.6627 18.3319L20.177 17.4578ZM20.7354 17.0898L21.4707 17.7675L20.7354 17.0898ZM11.223 21.5689L10.7373 22.443L11.223 21.5689ZM11.7986 21.8361L12 20.8566L11.7986 21.8361ZM12.777 21.5689L12.2914 20.6947H12.2914L12.777 21.5689ZM12.2015 21.8361L12.4029 22.8156L12.2015 21.8361ZM3.05048 7.27526L2.10097 6.96154L3.05048 7.27526ZM3.82297 6.54337L4.30861 7.41753H4.30861L3.82297 6.54337ZM3.26463 6.91131L2.52927 6.23364L3.26463 6.91131ZM3.05048 16.7259L2.10097 17.0396L3.05048 16.7259ZM3.82297 17.4578L3.33733 18.3319L3.82297 17.4578ZM3.26463 17.0898L4 16.4122L3.26463 17.0898ZM20.177 6.54337L20.6627 5.66921L20.177 6.54337ZM20.7354 6.91131L20 7.58898L20.7354 6.91131ZM20.9495 7.27526L21.899 6.96153L20.9495 7.27526ZM12.777 2.43225L12.2914 3.30641L12.777 2.43225ZM12.2015 2.16503L12 3.14453L12.2015 2.16503ZM11.223 2.43226L10.7373 1.5581V1.5581L11.223 2.43226ZM11.7986 2.16503L12 3.14453L11.7986 2.16503ZM20.0143 6.40416L11.5143 11.1264L12.4856 12.8747L20.9856 8.15248L20.0143 6.40416ZM12.4856 11.1264L3.98561 6.40416L3.01432 8.15248L11.5143 12.8747L12.4856 11.1264ZM11 12.0005L11 21.5006L13 21.5006L13 12.0005L11 12.0005ZM12.2914 3.30641L19.6914 7.41752L20.6627 5.66921L13.2627 1.5581L12.2914 3.30641ZM4 16.0591V7.94202H2V16.0591H4ZM4.30861 7.41753L11.7086 3.30641L10.7373 1.5581L3.33733 5.66921L4.30861 7.41753ZM11.7086 20.6947L4.30862 16.5836L3.33733 18.3319L10.7373 22.443L11.7086 20.6947ZM20 7.94202V16.0591H22V7.94202H20ZM19.6914 16.5836L12.2914 20.6947L13.2627 22.443L20.6627 18.3319L19.6914 16.5836ZM20 16.0591C20 16.2421 19.9996 16.3358 19.9955 16.4036C19.9921 16.4599 19.9884 16.4474 20 16.4122L21.899 17.0396C22.012 16.6977 22 16.333 22 16.0591H20ZM20.6627 18.3319C20.902 18.199 21.2267 18.0323 21.4707 17.7675L20 16.4122C20.0251 16.3849 20.0379 16.3821 19.9903 16.4124C19.933 16.4489 19.8513 16.4948 19.6914 16.5836L20.6627 18.3319ZM20 16.4122V16.4122L21.4707 17.7675C21.6637 17.5581 21.8097 17.31 21.899 17.0396L20 16.4122ZM10.7373 22.443C10.9643 22.5692 11.2612 22.7465 11.5971 22.8156L12 20.8566C12.0342 20.8636 12.0428 20.8723 11.9952 20.8493C11.9375 20.8215 11.8602 20.7789 11.7086 20.6947L10.7373 22.443ZM12.2914 20.6947C12.1398 20.7789 12.0625 20.8215 12.0048 20.8493C11.9572 20.8723 11.9658 20.8636 12 20.8566L12.4029 22.8156C12.7388 22.7465 13.0357 22.5692 13.2627 22.443L12.2914 20.6947ZM11.5971 22.8156C11.8629 22.8703 12.1371 22.8703 12.4029 22.8156L12 20.8566L11.5971 22.8156ZM4 7.94202C4 7.75904 4.00042 7.66539 4.0045 7.59758C4.00789 7.54129 4.01163 7.55379 4 7.58898L2.10097 6.96154C1.988 7.30346 2 7.6682 2 7.94202H4ZM3.33733 5.66921C3.09797 5.80219 2.7733 5.96883 2.52927 6.23364L4 7.58898C3.97489 7.61623 3.96214 7.61904 4.0097 7.58874C4.067 7.55223 4.14866 7.50639 4.30861 7.41753L3.33733 5.66921ZM4 7.58898V7.58898L2.52927 6.23364C2.33631 6.44302 2.19029 6.69118 2.10097 6.96154L4 7.58898ZM2 16.0591C2 16.3329 1.988 16.6977 2.10097 17.0396L4 16.4122C4.01163 16.4474 4.00789 16.4599 4.0045 16.4036C4.00042 16.3358 4 16.2421 4 16.0591H2ZM4.30862 16.5836C4.14866 16.4948 4.067 16.4489 4.0097 16.4124C3.96214 16.3821 3.97489 16.3849 4 16.4122L2.52927 17.7675C2.7733 18.0323 3.09797 18.199 3.33733 18.3319L4.30862 16.5836ZM2.10097 17.0396C2.19029 17.31 2.33632 17.5581 2.52927 17.7675L4 16.4122V16.4122L2.10097 17.0396ZM19.6914 7.41752C19.8513 7.50639 19.933 7.55223 19.9903 7.58873C20.0379 7.61903 20.0251 7.61623 20 7.58898L21.4707 6.23364C21.2267 5.96883 20.902 5.80219 20.6627 5.66921L19.6914 7.41752ZM22 7.94202C22 7.66819 22.012 7.30346 21.899 6.96153L20 7.58898C19.9884 7.55379 19.9921 7.54129 19.9955 7.59758C19.9996 7.66539 20 7.75904 20 7.94202H22ZM20 7.58898V7.58898L21.899 6.96153C21.8097 6.69118 21.6637 6.44302 21.4707 6.23364L20 7.58898ZM13.2627 1.5581C13.0357 1.43199 12.7388 1.25462 12.4029 1.18553L12 3.14453C11.9658 3.1375 11.9572 3.12888 12.0048 3.15185C12.0625 3.17968 12.1398 3.22222 12.2914 3.30641L13.2627 1.5581ZM11.7086 3.30641C11.8602 3.22222 11.9375 3.17968 11.9952 3.15185C12.0428 3.12888 12.0342 3.1375 12 3.14453L11.5971 1.18553C11.2612 1.25462 10.9643 1.43199 10.7373 1.5581L11.7086 3.30641ZM12.4029 1.18553C12.1371 1.13086 11.8629 1.13086 11.5971 1.18553L12 3.14453L12.4029 1.18553Z" fill="#171717"/>
<path d="M16.5 9.5L7.5 4.5" stroke="#171717" stroke-width="2" stroke-linecap="round" stroke-linejoin="round"/>
</svg>
