<svg width="24" height="24" viewBox="0 0 24 24" fill="none" xmlns="http://www.w3.org/2000/svg">
<path d="M2.5 21.5003L1.56665 21.1413C1.42479 21.5102 1.51345 21.928 1.79289 22.2074C2.07233 22.4869 2.49013 22.5755 2.85898 22.4337L2.5 21.5003ZM9.72028 18.28L10.4274 18.9871L9.72028 18.28ZM9.16804 18.7989L8.55498 18.0089L9.16804 18.7989ZM8.04927 19.366L7.69029 18.4326L8.04927 19.366ZM8.74772 19.0721L8.27476 18.191L8.74772 19.0721ZM5.72028 14.28L6.42739 14.9871L5.72028 14.28ZM5.20139 14.8323L5.99143 15.4453L5.20139 14.8323ZM4.63433 15.951L3.70099 15.5921H3.70099L4.63433 15.951ZM4.92823 15.2526L5.80932 15.7255L4.92823 15.2526ZM21 7.0003L20.2929 6.2932L21 7.0003ZM17 3.0003L17.7071 3.70741H17.7071L17 3.0003ZM8.59356 18.716L9.57582 18.5285L8.59356 18.716ZM7.85107 19.4422L8.21005 20.3756H8.21005L7.85107 19.4422ZM8.51314 19.095L9.33456 19.6653L8.51314 19.095ZM5.2843 15.4068L5.47187 14.4245L5.2843 15.4068ZM4.55812 16.1493L5.49146 16.5082L5.49147 16.5082L4.55812 16.1493ZM4.90534 15.4872L4.335 14.6658L4.90534 15.4872ZM6.42739 14.9871L17.7071 3.70741L16.2929 2.29319L5.01318 13.5729L6.42739 14.9871ZM20.2929 6.2932L9.01317 17.5729L10.4274 18.9871L21.7071 7.70741L20.2929 6.2932ZM7.69029 18.4326L2.14102 20.567L2.85898 22.4337L8.40825 20.2993L7.69029 18.4326ZM3.43335 21.8593L5.56768 16.31L3.70099 15.5921L1.56665 21.1413L3.43335 21.8593ZM9.01317 17.5729C8.72733 17.8588 8.6429 17.9407 8.55498 18.0089L9.7811 19.5889C9.99094 19.4261 10.1754 19.2391 10.4274 18.9871L9.01317 17.5729ZM8.40825 20.2993C8.74084 20.1714 8.98665 20.0788 9.22067 19.9532L8.27476 18.191C8.17671 18.2436 8.06758 18.2875 7.69029 18.4326L8.40825 20.2993ZM8.55498 18.0089C8.46682 18.0773 8.37309 18.1382 8.27476 18.191L9.22067 19.9532C9.41732 19.8476 9.60478 19.7258 9.7811 19.5889L8.55498 18.0089ZM5.01318 13.5729C4.76121 13.8249 4.57419 14.0094 4.41136 14.2192L5.99143 15.4453C6.05965 15.3574 6.14154 15.273 6.42739 14.9871L5.01318 13.5729ZM5.56768 16.31C5.71279 15.9327 5.75669 15.8236 5.80932 15.7255L4.04715 14.7796C3.92153 15.0137 3.8289 15.2595 3.70099 15.5921L5.56768 16.31ZM4.41136 14.2192C4.27453 14.3955 4.1527 14.583 4.04715 14.7796L5.80932 15.7255C5.8621 15.6272 5.92301 15.5335 5.99143 15.4453L4.41136 14.2192ZM20.2929 3.70741C21.007 4.42145 21.007 5.57915 20.2929 6.2932L21.7071 7.70741C23.2022 6.21232 23.2022 3.78829 21.7071 2.2932L20.2929 3.70741ZM21.7071 2.2932C20.212 0.798103 17.788 0.798101 16.2929 2.29319L17.7071 3.70741C18.4212 2.99336 19.5789 2.99336 20.2929 3.70741L21.7071 2.2932ZM5.16338 16.5779L7.42247 18.837L8.83668 17.4227L6.57759 15.1637L5.16338 16.5779ZM3.43334 21.8593L5.49146 16.5082L3.62478 15.7903L1.56666 21.1413L3.43334 21.8593ZM7.49209 18.5089L2.14102 20.567L2.85898 22.4337L8.21005 20.3756L7.49209 18.5089ZM7.42247 18.837C7.49677 18.9113 7.55363 18.9682 7.6013 19.0175C7.64928 19.0671 7.67606 19.097 7.69115 19.1151C7.70668 19.1337 7.69626 19.124 7.67851 19.0925C7.65845 19.0569 7.62825 18.9923 7.61131 18.9036L9.57582 18.5285C9.51368 18.2031 9.34075 17.9706 9.22793 17.8351C9.11573 17.7004 8.96807 17.5541 8.83668 17.4227L7.42247 18.837ZM8.21005 20.3756C8.38348 20.3089 8.57782 20.2352 8.73505 20.1576C8.89317 20.0797 9.14563 19.9374 9.33456 19.6653L7.69173 18.5247C7.74321 18.4505 7.79706 18.4037 7.82984 18.3794C7.85886 18.3578 7.87234 18.3531 7.85058 18.3638C7.82942 18.3743 7.79284 18.3906 7.72884 18.4165C7.66523 18.4422 7.59017 18.4711 7.49209 18.5089L8.21005 20.3756ZM7.61131 18.9036C7.58611 18.7716 7.61509 18.635 7.69173 18.5247L9.33456 19.6653C9.56448 19.3342 9.65143 18.9244 9.57582 18.5285L7.61131 18.9036ZM6.57759 15.1637C6.4462 15.0323 6.29993 14.8846 6.16523 14.7724C6.02977 14.6596 5.79724 14.4866 5.47187 14.4245L5.09672 16.389C5.00806 16.3721 4.94345 16.3419 4.90786 16.3218C4.87635 16.3041 4.86661 16.2936 4.88526 16.3092C4.90338 16.3243 4.93319 16.3511 4.98284 16.399C5.03217 16.4467 5.08907 16.5036 5.16338 16.5779L6.57759 15.1637ZM5.49147 16.5082C5.52919 16.4102 5.55809 16.3351 5.58381 16.2715C5.60969 16.2075 5.62606 16.1709 5.63649 16.1498C5.64722 16.128 5.64255 16.1415 5.62097 16.1705C5.5966 16.2033 5.54982 16.2571 5.47568 16.3086L4.335 14.6658C4.06291 14.8547 3.92066 15.1072 3.8427 15.2653C3.76517 15.4225 3.69148 15.6169 3.62478 15.7903L5.49147 16.5082ZM5.47187 14.4245C5.07589 14.3489 4.66614 14.4359 4.335 14.6658L5.47568 16.3086C5.3653 16.3852 5.22871 16.4142 5.09672 16.389L5.47187 14.4245Z" fill="#171717"/>
</svg>
