<svg width="24" height="24" viewBox="0 0 24 24" fill="none" xmlns="http://www.w3.org/2000/svg">
<path d="M8.38028 8.85335L7.4788 9.28617L7.4788 9.28617L8.38028 8.85335ZM15.2365 15.7096L15.6693 14.8081L15.6693 14.8081L15.2365 15.7096ZM3.17124 7.76144L4.13324 7.48839H4.13324L3.17124 7.76144ZM16.3284 20.9186L16.6014 19.9566L16.3284 20.9186ZM20.3783 15.6509L19.6712 16.358L19.6712 16.358L20.3783 15.6509ZM20.1835 15.4561L20.8906 14.749L20.8906 14.7489L20.1835 15.4561ZM19.4833 14.8174L20.0284 13.979L19.4833 14.8174ZM17.3029 14.8174L17.848 15.6557L17.848 15.6557L17.3029 14.8174ZM21.3198 18.5389L20.4275 18.0875L21.3198 18.5389ZM21.3198 16.7335L20.4275 17.1848V17.1848L21.3198 16.7335ZM9.27247 4.60655L10.1109 4.06146L10.1108 4.06146L9.27247 4.60655ZM9.27247 6.78692L8.4341 6.24182L8.43409 6.24183L9.27247 6.78692ZM5.55098 2.76999L5.09963 1.87764L5.09963 1.87764L5.55098 2.76999ZM7.35636 2.76999L6.90502 3.66234L7.35636 2.76999ZM17.588 21.1601L17.591 20.1601L17.588 21.1601ZM19.0662 20.7757L18.5765 19.9039L18.5765 19.9039L19.0662 20.7757ZM2.9297 6.50182L3.92969 6.49884V6.49884L2.9297 6.50182ZM3.31411 5.0236L2.44226 4.53384L2.44226 4.53384L3.31411 5.0236ZM15.5024 15.8224L15.7823 14.8623H15.7823L15.5024 15.8224ZM16.3644 15.6754L16.9466 16.4884L16.9466 16.4884L16.3644 15.6754ZM8.26748 8.58743L7.30744 8.86728L7.30744 8.86728L8.26748 8.58743ZM8.41447 7.72538L7.60142 7.14319L7.60141 7.1432L8.41447 7.72538ZM11.9337 12.1561C10.8131 11.0354 9.92958 9.76981 9.28176 8.42053L7.4788 9.28617C8.22297 10.8361 9.23706 12.2878 10.5195 13.5703L11.9337 12.1561ZM15.6693 14.8081C14.32 14.1603 13.0544 13.2768 11.9337 12.1561L10.5195 13.5703C11.802 14.8528 13.2537 15.8669 14.8037 16.611L15.6693 14.8081ZM8.75177 15.3381C6.48744 13.0737 4.94884 10.362 4.13324 7.48839L2.20923 8.03448C3.11557 11.2277 4.82592 14.2406 7.33755 16.7523L8.75177 15.3381ZM16.6014 19.9566C13.7279 19.141 11.0161 17.6024 8.75177 15.3381L7.33755 16.7523C9.84919 19.2639 12.8621 20.9743 16.0554 21.8806L16.6014 19.9566ZM5.0179 4.57624L5.17554 4.41861L3.76133 3.00439L3.60369 3.16203L5.0179 4.57624ZM7.7318 4.4186L7.92667 4.61347L9.34088 3.19926L9.14601 3.00439L7.7318 4.4186ZM20.9278 20.4861L21.0854 20.3285L19.6712 18.9143L19.5136 19.0719L20.9278 20.4861ZM21.0854 14.9438L20.8906 14.749L19.4764 16.1632L19.6712 16.358L21.0854 14.9438ZM20.8906 14.7489C20.5771 14.4354 20.3142 14.1648 20.0284 13.979L18.9382 15.6557C19.0039 15.6985 19.0907 15.7775 19.4764 16.1632L20.8906 14.7489ZM17.3098 16.1632C17.6955 15.7775 17.7823 15.6985 17.848 15.6557L16.7578 13.979C16.472 14.1648 16.2091 14.4354 15.8956 14.7489L17.3098 16.1632ZM20.0284 13.979C19.034 13.3325 17.7522 13.3325 16.7578 13.979L17.848 15.6557C18.1795 15.4402 18.6067 15.4402 18.9382 15.6557L20.0284 13.979ZM21.0854 20.3285C21.5613 19.8526 21.9775 19.4542 22.2122 18.9902L20.4275 18.0875C20.3735 18.1942 20.2582 18.3273 19.6712 18.9143L21.0854 20.3285ZM19.6712 16.358C20.2583 16.9451 20.3735 17.0781 20.4275 17.1848L22.2122 16.2821C21.9775 15.8181 21.5613 15.4197 21.0854 14.9438L19.6712 16.358ZM22.2122 18.9902C22.6428 18.1389 22.6428 17.1335 22.2122 16.2821L20.4275 17.1848C20.571 17.4686 20.571 17.8037 20.4275 18.0875L22.2122 18.9902ZM7.92667 4.61347C8.31238 4.99918 8.39136 5.08591 8.4341 5.15165L10.1108 4.06146C9.92502 3.77564 9.65439 3.51277 9.34088 3.19926L7.92667 4.61347ZM9.34088 8.19421C9.65439 7.88071 9.92502 7.61783 10.1109 7.332L8.43409 6.24183C8.39136 6.30756 8.31238 6.39429 7.92667 6.78L9.34088 8.19421ZM8.4341 5.15165C8.64959 5.48309 8.64959 5.91038 8.4341 6.24182L10.1108 7.33201C10.7573 6.33767 10.7573 5.0558 10.1109 4.06146L8.4341 5.15165ZM5.17554 4.41861C5.76256 3.83158 5.8956 3.71632 6.00232 3.66234L5.09963 1.87764C4.63559 2.11235 4.23719 2.52853 3.76133 3.00439L5.17554 4.41861ZM9.14601 3.00439C8.67015 2.52853 8.27175 2.11235 7.80771 1.87764L6.90502 3.66234C7.01174 3.71632 7.14478 3.83158 7.7318 4.4186L9.14601 3.00439ZM6.00232 3.66234C6.2861 3.5188 6.62124 3.5188 6.90502 3.66234L7.80771 1.87764C6.95637 1.44704 5.95097 1.44704 5.09963 1.87764L6.00232 3.66234ZM16.0554 21.8806C16.602 22.0358 17.0134 22.1584 17.585 22.1601L17.591 20.1601C17.3368 20.1594 17.1837 20.1219 16.6014 19.9566L16.0554 21.8806ZM19.5136 19.0719C18.9534 19.6321 18.7914 19.7831 18.5765 19.9039L19.556 21.6476C20.0612 21.3638 20.4288 20.9852 20.9278 20.4861L19.5136 19.0719ZM17.585 22.1601C18.2158 22.162 19.0061 21.9565 19.556 21.6476L18.5765 19.9039C18.3274 20.0438 17.8767 20.161 17.591 20.1601L17.585 22.1601ZM4.13324 7.48839C3.96798 6.90614 3.93045 6.75305 3.92969 6.49884L1.9297 6.50479C1.9314 7.07648 2.05408 7.48784 2.20923 8.03448L4.13324 7.48839ZM3.60369 3.16203C3.10466 3.66105 2.72604 4.02866 2.44226 4.53384L4.18597 5.51336C4.30668 5.29848 4.45769 5.13646 5.0179 4.57624L3.60369 3.16203ZM3.92969 6.49884C3.92884 6.21317 4.04606 5.76243 4.18597 5.51336L2.44226 4.53384C2.13333 5.08378 1.92782 5.87402 1.9297 6.50479L3.92969 6.49884ZM14.8037 16.611C14.9095 16.6618 15.0495 16.7319 15.2226 16.7824L15.7823 14.8623C15.7917 14.8651 15.7966 14.8676 15.7854 14.8627C15.7775 14.8593 15.7655 14.8539 15.7454 14.8444C15.725 14.8348 15.7014 14.8235 15.6693 14.8081L14.8037 16.611ZM15.8956 14.7489C15.8341 14.8105 15.8046 14.8398 15.7825 14.8605C15.7657 14.8762 15.7692 14.8717 15.7823 14.8623L16.9466 16.4884C17.0952 16.382 17.2167 16.2562 17.3098 16.1632L15.8956 14.7489ZM15.2226 16.7824C15.7976 16.95 16.4596 16.8371 16.9466 16.4884L15.7823 14.8623C15.7932 14.8545 15.7985 14.8527 15.7963 14.8536C15.7942 14.8544 15.7889 14.8562 15.7814 14.8575C15.7739 14.8588 15.7683 14.8588 15.7661 14.8587C15.7638 14.8586 15.7694 14.8585 15.7823 14.8623L15.2226 16.7824ZM9.28176 8.42053C9.26632 8.38839 9.25503 8.36485 9.24542 8.34443C9.23597 8.32435 9.23051 8.31229 9.22712 8.30448C9.22222 8.29321 9.22478 8.29815 9.22752 8.30757L7.30744 8.86728C7.35789 9.04034 7.428 9.18037 7.4788 9.28617L9.28176 8.42053ZM7.92667 6.78C7.83358 6.87309 7.70782 6.9946 7.60142 7.14319L9.22752 8.30757C9.21816 8.32065 9.21364 8.32412 9.22936 8.30733C9.25002 8.28525 9.27936 8.25574 9.34088 8.19421L7.92667 6.78ZM9.22752 8.30757C9.23128 8.32048 9.23119 8.32606 9.23109 8.32369C9.23099 8.32148 9.23107 8.3159 9.23235 8.3084C9.23363 8.30089 9.2354 8.2956 9.23623 8.29354C9.23711 8.29135 9.23535 8.29664 9.22752 8.30757L7.60141 7.1432C7.25271 7.63018 7.13981 8.29225 7.30744 8.86728L9.22752 8.30757Z" fill="#171717"/>
</svg>
