<svg width="24" height="24" viewBox="0 0 24 24" fill="none" xmlns="http://www.w3.org/2000/svg">
<path d="M12 12H11C11 12.2112 11.0669 12.4169 11.191 12.5878L12 12ZM17.8779 20.0902L17.0688 20.678C17.3935 21.1248 18.0188 21.2238 18.4656 20.8992L17.8779 20.0902ZM12 3C13.1819 3 14.3522 3.23279 15.4442 3.68508L16.2095 1.83733C14.8749 1.28452 13.4445 1 12 1V3ZM15.4442 3.68508C16.5361 4.13738 17.5282 4.80031 18.364 5.63604L19.7782 4.22183C18.7567 3.20038 17.5441 2.39013 16.2095 1.83733L15.4442 3.68508ZM18.364 5.63604C19.1997 6.47177 19.8626 7.46392 20.3149 8.55585L22.1627 7.79049C21.6099 6.4559 20.7996 5.24327 19.7782 4.22183L18.364 5.63604ZM20.3149 8.55585C20.7672 9.64778 21 10.8181 21 12L23 12C23 10.5555 22.7155 9.12507 22.1627 7.79049L20.3149 8.55585ZM22 11L12 11L12 13L22 13V11ZM13 12V2H11V12H13ZM21 12C21 13.4203 20.6639 14.8204 20.0191 16.0859L21.8011 16.9939C22.5892 15.4472 23 13.7359 23 12H21ZM20.0191 16.0859C19.3743 17.3514 18.4391 18.4463 17.2901 19.2812L18.4656 20.8992C19.87 19.8788 21.013 18.5406 21.8011 16.9939L20.0191 16.0859ZM18.6869 19.5024L12.809 11.4122L11.191 12.5878L17.0688 20.678L18.6869 19.5024ZM21 12C21 16.9706 16.9706 21 12 21V23C18.0751 23 23 18.0751 23 12H21ZM12 21C7.02944 21 3 16.9706 3 12H1C1 18.0751 5.92487 23 12 23V21ZM3 12C3 7.02944 7.02944 3 12 3V1C5.92487 1 1 5.92487 1 12H3ZM12 3C16.9706 3 21 7.02944 21 12H23C23 5.92488 18.0751 1 12 1V3Z" fill="#171717"/>
</svg>
