<svg width="15" height="20" viewBox="0 0 15 20" fill="none" xmlns="http://www.w3.org/2000/svg">
<path d="M0.000488281 2.98963C0.000488281 2.01847 0.000488281 1.53289 0.202978 1.26522C0.379383 1.03203 0.64901 0.887728 0.940887 0.870301C1.27592 0.850296 1.67995 1.11965 2.48801 1.65835L13.0036 8.66873C13.6713 9.11385 14.0051 9.33642 14.1214 9.61694C14.2231 9.86219 14.2231 10.1378 14.1214 10.3831C14.0051 10.6636 13.6713 10.8862 13.0036 11.3313L2.48801 18.3417C1.67995 18.8804 1.27592 19.1497 0.940887 19.1297C0.64901 19.1123 0.379383 18.968 0.202978 18.7348C0.000488281 18.4671 0.000488281 17.9815 0.000488281 17.0104V2.98963Z" fill="white"/>
</svg>
