<svg width="24" height="24" viewBox="0 0 24 24" fill="none" xmlns="http://www.w3.org/2000/svg">
<path d="M6.5 5.5C5.94772 5.5 5.5 5.94772 5.5 6.5C5.5 7.05228 5.94772 7.5 6.5 7.5V5.5ZM6.51 7.5C7.06228 7.5 7.51 7.05228 7.51 6.5C7.51 5.94772 7.06228 5.5 6.51 5.5V7.5ZM17.5 5.5C16.9477 5.5 16.5 5.94772 16.5 6.5C16.5 7.05228 16.9477 7.5 17.5 7.5V5.5ZM17.51 7.5C18.0623 7.5 18.51 7.05228 18.51 6.5C18.51 5.94772 18.0623 5.5 17.51 5.5V7.5ZM6.5 16.5C5.94772 16.5 5.5 16.9477 5.5 17.5C5.5 18.0523 5.94772 18.5 6.5 18.5V16.5ZM6.51 18.5C7.06228 18.5 7.51 18.0523 7.51 17.5C7.51 16.9477 7.06228 16.5 6.51 16.5V18.5ZM13 12C12.4477 12 12 12.4477 12 13C12 13.5523 12.4477 14 13 14V12ZM13.01 14C13.5623 14 14.01 13.5523 14.01 13C14.01 12.4477 13.5623 12 13.01 12V14ZM17.5 16.5C16.9477 16.5 16.5 16.9477 16.5 17.5C16.5 18.0523 16.9477 18.5 17.5 18.5V16.5ZM17.51 18.5C18.0623 18.5 18.51 18.0523 18.51 17.5C18.51 16.9477 18.0623 16.5 17.51 16.5V18.5ZM17 20C16.4477 20 16 20.4477 16 21C16 21.5523 16.4477 22 17 22V20ZM21 21V22C21.5523 22 22 21.5523 22 21H21ZM22 17C22 16.4477 21.5523 16 21 16C20.4477 16 20 16.4477 20 17H22ZM15 16.5C15 15.9477 14.5523 15.5 14 15.5C13.4477 15.5 13 15.9477 13 16.5H15ZM13 21C13 21.5523 13.4477 22 14 22C14.5523 22 15 21.5523 15 21H13ZM21 15C21.5523 15 22 14.5523 22 14C22 13.4477 21.5523 13 21 13V15ZM16.5 13C15.9477 13 15.5 13.4477 15.5 14C15.5 14.5523 15.9477 15 16.5 15V13ZM14.546 9.89101L15 9L14.546 9.89101ZM14.109 9.45399L15 9L14.109 9.45399ZM20.891 9.45399L20 9L20.891 9.45399ZM20.454 9.89101L20 9L20.454 9.89101ZM20.454 3.10899L20 4L20.454 3.10899ZM20.891 3.54601L20 4L20.891 3.54601ZM14.546 3.10899L15 4L14.546 3.10899ZM14.109 3.54601L15 4L14.109 3.54601ZM3.54601 9.89101L4 9L3.54601 9.89101ZM3.10899 9.45399L4 9L3.10899 9.45399ZM9.89101 9.45399L9 9L9.89101 9.45399ZM9.45399 9.89101L9 9L9.45399 9.89101ZM9.45399 3.10899L9 4L9.45399 3.10899ZM9.89101 3.54601L9 4L9.89101 3.54601ZM3.54601 3.10899L4 4L3.54601 3.10899ZM3.10899 3.54601L4 4L3.10899 3.54601ZM3.54601 20.891L4 20L3.54601 20.891ZM3.10899 20.454L4 20L3.10899 20.454ZM9.89101 20.454L9 20L9.89101 20.454ZM9.45399 20.891L9 20L9.45399 20.891ZM9.45399 14.109L9 15L9.45399 14.109ZM9.89101 14.546L9 15L9.89101 14.546ZM3.54601 14.109L4 15L3.54601 14.109ZM3.10899 14.546L4 15L3.10899 14.546ZM6.5 7.5H6.51V5.5H6.5V7.5ZM17.5 7.5H17.51V5.5H17.5V7.5ZM6.5 18.5H6.51V16.5H6.5V18.5ZM13 14H13.01V12H13V14ZM17.5 18.5H17.51V16.5H17.5V18.5ZM17 22H21V20H17V22ZM22 21V17H20V21H22ZM13 16.5V21H15V16.5H13ZM21 13H16.5V15H21V13ZM15.6 4H19.4V2H15.6V4ZM20 4.6V8.4H22V4.6H20ZM19.4 9H15.6V11H19.4V9ZM15 8.4V4.6H13V8.4H15ZM15.6 9C15.3035 9 15.1412 8.99922 15.0246 8.9897C14.9197 8.98113 14.9425 8.9707 15 9L14.092 10.782C14.3634 10.9203 14.6332 10.9644 14.8618 10.9831C15.0787 11.0008 15.3365 11 15.6 11V9ZM13 8.4C13 8.66353 12.9992 8.92131 13.0169 9.13823C13.0356 9.36682 13.0797 9.63656 13.218 9.90798L15 9C15.0293 9.05751 15.0189 9.08028 15.0103 8.97537C15.0008 8.85878 15 8.69653 15 8.4H13ZM15 9L13.218 9.90798C13.4097 10.2843 13.7157 10.5903 14.092 10.782L15 9ZM20 8.4C20 8.69653 19.9992 8.85878 19.9897 8.97537C19.9811 9.08028 19.9707 9.05751 20 9L21.782 9.90798C21.9203 9.63656 21.9644 9.36682 21.9831 9.13823C22.0008 8.92131 22 8.66353 22 8.4H20ZM19.4 11C19.6635 11 19.9213 11.0008 20.1382 10.9831C20.3668 10.9644 20.6366 10.9203 20.908 10.782L20 9C20.0575 8.9707 20.0803 8.98113 19.9754 8.9897C19.8588 8.99922 19.6965 9 19.4 9V11ZM20 9L20.908 10.782C21.2843 10.5903 21.5903 10.2843 21.782 9.90798L20 9ZM19.4 4C19.6965 4 19.8588 4.00078 19.9754 4.0103C20.0803 4.01887 20.0575 4.0293 20 4L20.908 2.21799C20.6366 2.07969 20.3668 2.03562 20.1382 2.01695C19.9213 1.99922 19.6635 2 19.4 2V4ZM22 4.6C22 4.33647 22.0008 4.07869 21.9831 3.86177C21.9644 3.63318 21.9203 3.36344 21.782 3.09202L20 4C19.9707 3.94249 19.9811 3.91972 19.9897 4.02463C19.9992 4.14122 20 4.30347 20 4.6H22ZM20 4L21.782 3.09202C21.5903 2.7157 21.2843 2.40973 20.908 2.21799L20 4ZM15.6 2C15.3365 2 15.0787 1.99922 14.8618 2.01695C14.6332 2.03562 14.3634 2.07969 14.092 2.21799L15 4C14.9425 4.0293 14.9197 4.01887 15.0246 4.0103C15.1412 4.00078 15.3035 4 15.6 4V2ZM15 4.6C15 4.30347 15.0008 4.14122 15.0103 4.02463C15.0189 3.91972 15.0293 3.94249 15 4L13.218 3.09202C13.0797 3.36344 13.0356 3.63318 13.0169 3.86177C12.9992 4.07869 13 4.33647 13 4.6H15ZM14.092 2.21799C13.7157 2.40973 13.4097 2.7157 13.218 3.09202L15 4L14.092 2.21799ZM4.6 4H8.4V2H4.6V4ZM9 4.6V8.4H11V4.6H9ZM8.4 9H4.6V11H8.4V9ZM4 8.4V4.6H2V8.4H4ZM4.6 9C4.30347 9 4.14122 8.99922 4.02463 8.9897C3.91972 8.98113 3.94249 8.9707 4 9L3.09202 10.782C3.36344 10.9203 3.63318 10.9644 3.86177 10.9831C4.07869 11.0008 4.33647 11 4.6 11V9ZM2 8.4C2 8.66353 1.99922 8.92131 2.01695 9.13823C2.03562 9.36682 2.07969 9.63656 2.21799 9.90798L4 9C4.0293 9.05751 4.01887 9.08028 4.0103 8.97537C4.00078 8.85878 4 8.69653 4 8.4H2ZM4 9L2.21799 9.90798C2.40973 10.2843 2.71569 10.5903 3.09202 10.782L4 9ZM9 8.4C9 8.69653 8.99922 8.85878 8.9897 8.97537C8.98113 9.08028 8.9707 9.05751 9 9L10.782 9.90798C10.9203 9.63656 10.9644 9.36682 10.9831 9.13823C11.0008 8.92131 11 8.66353 11 8.4H9ZM8.4 11C8.66353 11 8.92131 11.0008 9.13823 10.9831C9.36682 10.9644 9.63656 10.9203 9.90798 10.782L9 9C9.05751 8.9707 9.08028 8.98113 8.97537 8.9897C8.85878 8.99922 8.69653 9 8.4 9V11ZM9 9L9.90798 10.782C10.2843 10.5903 10.5903 10.2843 10.782 9.90798L9 9ZM8.4 4C8.69653 4 8.85878 4.00078 8.97537 4.0103C9.08028 4.01887 9.05751 4.0293 9 4L9.90798 2.21799C9.63656 2.07969 9.36682 2.03562 9.13823 2.01695C8.92131 1.99922 8.66353 2 8.4 2V4ZM11 4.6C11 4.33647 11.0008 4.07869 10.9831 3.86177C10.9644 3.63318 10.9203 3.36344 10.782 3.09202L9 4C8.9707 3.94249 8.98113 3.91972 8.9897 4.02463C8.99922 4.14122 9 4.30347 9 4.6H11ZM9 4L10.782 3.09202C10.5903 2.71569 10.2843 2.40973 9.90798 2.21799L9 4ZM4.6 2C4.33647 2 4.07869 1.99922 3.86177 2.01695C3.63318 2.03562 3.36344 2.07969 3.09202 2.21799L4 4C3.94249 4.0293 3.91972 4.01887 4.02463 4.0103C4.14122 4.00078 4.30347 4 4.6 4V2ZM4 4.6C4 4.30347 4.00078 4.14122 4.0103 4.02463C4.01887 3.91972 4.0293 3.94249 4 4L2.21799 3.09202C2.07969 3.36344 2.03562 3.63318 2.01695 3.86177C1.99922 4.07869 2 4.33647 2 4.6H4ZM3.09202 2.21799C2.71569 2.40973 2.40973 2.71569 2.21799 3.09202L4 4L3.09202 2.21799ZM4.6 15H8.4V13H4.6V15ZM9 15.6V19.4H11V15.6H9ZM8.4 20H4.6V22H8.4V20ZM4 19.4V15.6H2V19.4H4ZM4.6 20C4.30347 20 4.14122 19.9992 4.02463 19.9897C3.91972 19.9811 3.94249 19.9707 4 20L3.09202 21.782C3.36344 21.9203 3.63318 21.9644 3.86177 21.9831C4.07869 22.0008 4.33647 22 4.6 22V20ZM2 19.4C2 19.6635 1.99922 19.9213 2.01695 20.1382C2.03562 20.3668 2.07969 20.6366 2.21799 20.908L4 20C4.0293 20.0575 4.01887 20.0803 4.0103 19.9754C4.00078 19.8588 4 19.6965 4 19.4H2ZM4 20L2.21799 20.908C2.40973 21.2843 2.7157 21.5903 3.09202 21.782L4 20ZM9 19.4C9 19.6965 8.99922 19.8588 8.9897 19.9754C8.98113 20.0803 8.9707 20.0575 9 20L10.782 20.908C10.9203 20.6366 10.9644 20.3668 10.9831 20.1382C11.0008 19.9213 11 19.6635 11 19.4H9ZM8.4 22C8.66353 22 8.92131 22.0008 9.13823 21.9831C9.36682 21.9644 9.63656 21.9203 9.90798 21.782L9 20C9.05751 19.9707 9.08028 19.9811 8.97537 19.9897C8.85878 19.9992 8.69653 20 8.4 20V22ZM9 20L9.90798 21.782C10.2843 21.5903 10.5903 21.2843 10.782 20.908L9 20ZM8.4 15C8.69653 15 8.85878 15.0008 8.97537 15.0103C9.08028 15.0189 9.05751 15.0293 9 15L9.90798 13.218C9.63656 13.0797 9.36682 13.0356 9.13823 13.0169C8.92131 12.9992 8.66353 13 8.4 13V15ZM11 15.6C11 15.3365 11.0008 15.0787 10.9831 14.8618C10.9644 14.6332 10.9203 14.3634 10.782 14.092L9 15C8.9707 14.9425 8.98113 14.9197 8.9897 15.0246C8.99922 15.1412 9 15.3035 9 15.6H11ZM9 15L10.782 14.092C10.5903 13.7157 10.2843 13.4097 9.90798 13.218L9 15ZM4.6 13C4.33647 13 4.07869 12.9992 3.86177 13.0169C3.63318 13.0356 3.36344 13.0797 3.09202 13.218L4 15C3.94249 15.0293 3.91972 15.0189 4.02463 15.0103C4.14122 15.0008 4.30347 15 4.6 15V13ZM4 15.6C4 15.3035 4.00078 15.1412 4.0103 15.0246C4.01887 14.9197 4.0293 14.9425 4 15L2.21799 14.092C2.07969 14.3634 2.03562 14.6332 2.01695 14.8618C1.99922 15.0787 2 15.3365 2 15.6H4ZM3.09202 13.218C2.7157 13.4097 2.40973 13.7157 2.21799 14.092L4 15L3.09202 13.218Z" fill="#171717"/>
</svg>
