<svg width="24" height="24" viewBox="0 0 24 24" fill="none" xmlns="http://www.w3.org/2000/svg">
<path d="M16.2499 19.3606L15.7499 18.4945L16.2499 19.3606ZM19.3612 7.74934L20.2272 7.24934L19.3612 7.74934ZM8.95189 18.8527C8.44706 18.6287 7.85625 18.8564 7.63228 19.3612C7.40832 19.8661 7.636 20.4569 8.14084 20.6809L8.95189 18.8527ZM19.9772 6.81633C19.701 6.33804 19.0895 6.17416 18.6112 6.45031C18.1329 6.72645 17.969 7.33804 18.2451 7.81633L19.9772 6.81633ZM7.74948 4.63825L8.24948 5.50428L7.74948 4.63825ZM3.77224 16.7495C4.04838 17.2278 4.65997 17.3916 5.13826 17.1155C5.61655 16.8393 5.78043 16.2278 5.50429 15.7495L3.77224 16.7495ZM15.0475 5.14612C15.5524 5.37009 16.1432 5.1424 16.3671 4.63757C16.5911 4.13273 16.3634 3.54192 15.8586 3.31796L15.0475 5.14612ZM2.75198 15.3672C2.21852 15.2242 1.67018 15.5408 1.52724 16.0743C1.3843 16.6078 1.70088 17.1561 2.23434 17.299L2.75198 15.3672ZM5.22521 17.0652L4.9664 18.0311C5.22258 18.0997 5.49553 18.0638 5.72521 17.9312C5.9549 17.7986 6.1225 17.5802 6.19114 17.324L5.22521 17.0652ZM6.92319 14.5919C7.06613 14.0585 6.74955 13.5101 6.21608 13.3672C5.68262 13.2242 5.13428 13.5408 4.99134 14.0743L6.92319 14.5919ZM17.0765 9.40635C16.9335 9.93981 17.2501 10.4881 17.7836 10.6311C18.317 10.774 18.8654 10.4574 19.0083 9.92398L17.0765 9.40635ZM18.7744 6.93311L19.0333 5.96719C18.4998 5.82425 17.9515 6.14083 17.8085 6.6743L18.7744 6.93311ZM21.2477 8.63109C21.7811 8.77403 22.3295 8.45745 22.4724 7.92398C22.6154 7.39052 22.2988 6.84218 21.7653 6.69924L21.2477 8.63109ZM16.7499 20.2266C21.2937 17.6032 22.8505 11.7931 20.2272 7.24934L18.4951 8.24934C20.5662 11.8365 19.3371 16.4235 15.7499 18.4945L16.7499 20.2266ZM8.14084 20.6809C10.8196 21.8693 14.0144 21.8059 16.7499 20.2266L15.7499 18.4945C13.5915 19.7407 11.0714 19.793 8.95189 18.8527L8.14084 20.6809ZM20.2272 7.24934L19.9772 6.81633L18.2451 7.81633L18.4951 8.24934L20.2272 7.24934ZM7.24948 3.77222C2.7057 6.39558 1.14888 12.2057 3.77224 16.7495L5.50429 15.7495C3.43322 12.1623 4.66228 7.57534 8.24948 5.50428L7.24948 3.77222ZM15.8586 3.31796C13.1798 2.12955 9.98498 2.19288 7.24948 3.77222L8.24948 5.50428C10.4079 4.25808 12.928 4.2058 15.0475 5.14612L15.8586 3.31796ZM2.23434 17.299L4.9664 18.0311L5.48403 16.0992L2.75198 15.3672L2.23434 17.299ZM6.19114 17.324L6.92319 14.5919L4.99134 14.0743L4.25929 16.8063L6.19114 17.324ZM19.0083 9.92398L19.7404 7.19193L17.8085 6.6743L17.0765 9.40635L19.0083 9.92398ZM18.5156 7.89904L21.2477 8.63109L21.7653 6.69924L19.0333 5.96719L18.5156 7.89904Z" fill="#171717"/>
</svg>
