<svg width="24" height="24" viewBox="0 0 24 24" fill="none" xmlns="http://www.w3.org/2000/svg">
<path d="M13.7067 11.7065C14.0973 11.316 14.0973 10.6828 13.7067 10.2923C13.3162 9.90179 12.6831 9.90179 12.2925 10.2923L13.7067 11.7065ZM2.79253 19.7923C2.40201 20.1828 2.40201 20.816 2.79253 21.2065C3.18306 21.5971 3.81622 21.5971 4.20675 21.2065L2.79253 19.7923ZM14.571 2.70464C14.1108 2.39928 13.4902 2.5248 13.1848 2.98499C12.8795 3.44518 13.005 4.06578 13.4652 4.37114L14.571 2.70464ZM19.5425 10.4586C19.8471 10.9193 20.4674 11.0459 20.9282 10.7414C21.3889 10.4368 21.5155 9.81644 21.2109 9.35572L19.5425 10.4586ZM19.3482 2.27015L19.5126 3.25654L19.3482 2.27015ZM21.6498 4.57173L20.6634 4.40733L21.6498 4.57173ZM6.446 10.898L5.71573 10.2148L6.446 10.898ZM13.022 17.474L12.3388 16.7437L13.022 17.474ZM20.8321 9.4782L21.8185 9.6426L20.8321 9.4782ZM20.0911 10.8609L19.408 10.1306L20.0911 10.8609ZM14.4418 3.08789L14.2774 2.1015L14.4418 3.08789ZM13.0591 3.82884L13.7893 4.51199L13.0591 3.82884ZM6.37973 6.93727L6.06351 7.88595L6.37973 6.93727ZM8.93838 8.84424C9.46232 9.01889 10.0286 8.73573 10.2033 8.21179C10.3779 7.68785 10.0948 7.12153 9.57083 6.94688L8.93838 8.84424ZM2.56041 9.54016L3.20635 10.3035L2.56041 9.54016ZM5.41756 7.12257L6.06351 7.88595L5.41756 7.12257ZM5.22213 13.1776C5.74037 13.3686 6.31525 13.1032 6.50618 12.585C6.69711 12.0668 6.43178 11.4919 5.91354 11.3009L5.22213 13.1776ZM2.86064 11.2419L3.20635 10.3035H3.20635L2.86064 11.2419ZM12.6781 21.0591L11.7397 21.4048L12.6781 21.0591ZM12.619 18.0062C12.4281 17.488 11.8532 17.2227 11.335 17.4136C10.8167 17.6045 10.5514 18.1794 10.7423 18.6977L12.619 18.0062ZM16.7974 18.5022L17.5608 19.1482L16.7974 18.5022ZM14.3798 21.3594L13.6164 20.7134L14.3798 21.3594ZM16.9731 14.349C16.7984 13.825 16.2321 13.5418 15.7082 13.7165C15.1842 13.8911 14.9011 14.4575 15.0757 14.9814L16.9731 14.349ZM16.9827 17.5401L17.9314 17.2238L16.9827 17.5401ZM12.2925 10.2923L2.79253 19.7923L4.20675 21.2065L13.7067 11.7065L12.2925 10.2923ZM13.4652 4.37114C14.6275 5.1424 15.7466 6.05294 16.7937 7.10002L18.2079 5.6858C17.067 4.5449 15.8446 3.54978 14.571 2.70464L13.4652 4.37114ZM16.7937 7.10002C17.8498 8.15613 18.767 9.2855 19.5425 10.4586L21.2109 9.35572C20.3611 8.07015 19.3586 6.83655 18.2079 5.6858L16.7937 7.10002ZM14.6062 4.07429L19.5126 3.25654L19.1838 1.28375L14.2774 2.1015L14.6062 4.07429ZM20.6634 4.40733L19.8457 9.3138L21.8185 9.6426L22.6362 4.73613L20.6634 4.40733ZM19.408 10.1306L12.3388 16.7437L13.7051 18.2042L20.7743 11.5912L19.408 10.1306ZM7.17627 11.5811L13.7893 4.51199L12.3288 3.14568L5.71573 10.2148L7.17627 11.5811ZM19.5126 3.25654C20.1894 3.14374 20.7762 3.73051 20.6634 4.40733L22.6362 4.73613C22.9746 2.70567 21.2143 0.945342 19.1838 1.28375L19.5126 3.25654ZM7.26088 16.6591C5.86799 15.2662 5.83055 13.0197 7.17627 11.5811L5.71573 10.2148C3.63314 12.441 3.69106 15.9177 5.84667 18.0733L7.26088 16.6591ZM5.84667 18.0733C8.00227 20.2289 11.4789 20.2868 13.7051 18.2042L12.3388 16.7437C10.9003 18.0894 8.65378 18.052 7.26088 16.6591L5.84667 18.0733ZM19.8457 9.3138C19.7935 9.62678 19.6397 9.91385 19.408 10.1306L20.7743 11.5912C21.327 11.0741 21.694 10.3892 21.8185 9.6426L19.8457 9.3138ZM14.2774 2.1015C13.5307 2.22594 12.8459 2.59292 12.3288 3.14568L13.7893 4.51199C14.0061 4.28028 14.2932 4.12645 14.6062 4.07429L14.2774 2.1015ZM6.06351 7.88595L8.93838 8.84424L9.57083 6.94688L6.69596 5.98859L6.06351 7.88595ZM3.20635 10.3035L6.06351 7.88595L4.77162 6.35918L1.91446 8.77678L3.20635 10.3035ZM5.91354 11.3009L3.20635 10.3035L2.51494 12.1802L5.22213 13.1776L5.91354 11.3009ZM1.91446 8.77678C0.744611 9.76665 1.07697 11.6505 2.51494 12.1802L3.20635 10.3035L3.20635 10.3035L1.91446 8.77678ZM6.69596 5.98859C6.03379 5.76786 5.30445 5.90832 4.77162 6.35918L6.06351 7.88595L6.69596 5.98859ZM13.6164 20.7134L12.619 18.0062L10.7423 18.6977L11.7397 21.4048L13.6164 20.7134ZM16.034 17.8563L13.6164 20.7134L15.1432 22.0053L17.5608 19.1482L16.034 17.8563ZM15.0757 14.9814L16.034 17.8563L17.9314 17.2238L16.9731 14.349L15.0757 14.9814ZM17.5608 19.1482C18.0116 18.6153 18.1521 17.886 17.9314 17.2238L16.034 17.8563L17.5608 19.1482ZM11.7397 21.4048C12.2695 22.8428 14.1533 23.1752 15.1432 22.0053L13.6164 20.7134H13.6164L11.7397 21.4048Z" fill="#171717"/>
</svg>
