<svg width="24" height="24" viewBox="0 0 24 24" fill="none" xmlns="http://www.w3.org/2000/svg">
<path d="M4 10C3.44772 10 3 10.4477 3 11C3 11.5523 3.44772 12 4 12L4 10ZM12 20C12 20.5523 12.4477 21 13 21C13.5523 21 14 20.5523 14 20H12ZM4 3C3.44772 3 3 3.44772 3 4C3 4.55228 3.44772 5 4 5L4 3ZM19 20C19 20.5523 19.4477 21 20 21C20.5523 21 21 20.5523 21 20H19ZM4 12C6.12173 12 8.15656 12.8429 9.65685 14.3431L11.0711 12.9289C9.1957 11.0536 6.65216 10 4 10L4 12ZM9.65685 14.3431C11.1571 15.8434 12 17.8783 12 20H14C14 17.3478 12.9464 14.8043 11.0711 12.9289L9.65685 14.3431ZM4 5C7.97825 5 11.7936 6.58035 14.6066 9.3934L16.0208 7.97918C12.8327 4.79107 8.50868 3 4 3L4 5ZM14.6066 9.3934C17.4196 12.2064 19 16.0218 19 20H21C21 15.4913 19.2089 11.1673 16.0208 7.97918L14.6066 9.3934ZM5 19V21C6.10457 21 7 20.1046 7 19H5ZM5 19H3C3 20.1046 3.89543 21 5 21V19ZM5 19V17C3.89543 17 3 17.8954 3 19H5ZM5 19H7C7 17.8954 6.10457 17 5 17V19Z" fill="#171717"/>
</svg>
