<svg width="24" height="24" viewBox="0 0 24 24" fill="none" xmlns="http://www.w3.org/2000/svg">
<path d="M8 3C8 2.44772 7.55228 2 7 2C6.44772 2 6 2.44772 6 3H8ZM18 4C18 3.44772 17.5523 3 17 3C16.4477 3 16 3.44772 16 4H18ZM7.54601 7.89101L8 7L7.54601 7.89101ZM7.10899 7.45399L8 7L8 7L7.10899 7.45399ZM16.454 7.89101L16.908 8.78201H16.908L16.454 7.89101ZM16.891 7.45399L16 7L16 7L16.891 7.45399ZM16 21C16 21.5523 16.4477 22 17 22C17.5523 22 18 21.5523 18 21H16ZM6 21C6 21.5523 6.44772 22 7 22C7.55228 22 8 21.5523 8 21H6ZM16.454 13.109L16.908 12.218H16.908L16.454 13.109ZM16.891 13.546L16 14L16 14L16.891 13.546ZM7.54601 13.109L7.09202 12.218L7.54601 13.109ZM7.10899 13.546L6.21799 13.092L7.10899 13.546ZM20.9447 8.36154L21.9171 8.12809L20.9447 8.36154ZM20.0627 7.06274L19.3556 7.76985L20.0627 7.06274ZM20.7053 7.78343L21.5579 7.26093L20.7053 7.78343ZM15.6385 3.05526L15.8719 2.08289L15.6385 3.05526ZM16.9373 3.93726L17.6444 3.23015V3.23015L16.9373 3.93726ZM16.2166 3.29472L16.7391 2.44208L16.2166 3.29472ZM4.63803 20.673L4.18404 21.564L4.63803 20.673ZM3.32698 19.362L2.43597 19.816L3.32698 19.362ZM19.362 20.673L19.816 21.564L19.362 20.673ZM20.673 19.362L21.564 19.816L20.673 19.362ZM3.32698 4.63803L2.43597 4.18404L3.32698 4.63803ZM4.63803 3.32698L4.18404 2.43597L4.63803 3.32698ZM15.4 7H8.6V9H15.4V7ZM8 6.4V3H6V6.4H8ZM16 4V6.4H18V4H16ZM8.6 7C8.30347 7 8.14122 6.99922 8.02463 6.9897C7.91972 6.98113 7.94249 6.9707 8 7L7.09202 8.78201C7.36344 8.92031 7.63318 8.96438 7.86177 8.98305C8.07869 9.00078 8.33647 9 8.6 9V7ZM6 6.4C6 6.66353 5.99922 6.92131 6.01695 7.13823C6.03562 7.36682 6.07969 7.63656 6.21799 7.90798L8 7C8.0293 7.05751 8.01887 7.08028 8.0103 6.97537C8.00078 6.85878 8 6.69653 8 6.4H6ZM8 7L8 7L6.21799 7.90798C6.40973 8.28431 6.7157 8.59027 7.09202 8.78201L8 7ZM15.4 9C15.6635 9 15.9213 9.00078 16.1382 8.98305C16.3668 8.96438 16.6366 8.92031 16.908 8.78201L16 7C16.0575 6.9707 16.0803 6.98113 15.9754 6.9897C15.8588 6.99922 15.6965 7 15.4 7V9ZM16 6.4C16 6.69653 15.9992 6.85878 15.9897 6.97537C15.9811 7.08028 15.9707 7.05751 16 7L17.782 7.90798C17.9203 7.63656 17.9644 7.36682 17.9831 7.13823C18.0008 6.92131 18 6.66353 18 6.4H16ZM16.908 8.78201C17.2843 8.59027 17.5903 8.28431 17.782 7.90798L16 7L16 7L16.908 8.78201ZM8.6 14H15.4V12H8.6V14ZM16 14.6V21H18V14.6H16ZM8 21V14.6H6V21H8ZM15.4 14C15.6965 14 15.8588 14.0008 15.9754 14.0103C16.0803 14.0189 16.0575 14.0293 16 14L16.908 12.218C16.6366 12.0797 16.3668 12.0356 16.1382 12.0169C15.9213 11.9992 15.6635 12 15.4 12V14ZM18 14.6C18 14.3365 18.0008 14.0787 17.9831 13.8618C17.9644 13.6332 17.9203 13.3634 17.782 13.092L16 14C15.9707 13.9425 15.9811 13.9197 15.9897 14.0246C15.9992 14.1412 16 14.3035 16 14.6H18ZM16 14L16 14L17.782 13.092C17.5903 12.7157 17.2843 12.4097 16.908 12.218L16 14ZM8.6 12C8.33647 12 8.07869 11.9992 7.86177 12.0169C7.63318 12.0356 7.36344 12.0797 7.09202 12.218L8 14C7.94249 14.0293 7.91972 14.0189 8.02463 14.0103C8.14122 14.0008 8.30347 14 8.6 14V12ZM8 14.6C8 14.3035 8.00078 14.1412 8.0103 14.0246C8.01887 13.9197 8.0293 13.9425 8 14L6.21799 13.092C6.07969 13.3634 6.03562 13.6332 6.01695 13.8618C5.99922 14.0787 6 14.3365 6 14.6H8ZM7.09202 12.218C6.7157 12.4097 6.40973 12.7157 6.21799 13.092L8 14L7.09202 12.218ZM16.2 20H7.8V22H16.2V20ZM4 16.2V7.8H2V16.2H4ZM7.8 4H14.6745V2H7.8V4ZM20 9.32548V16.2H22V9.32548H20ZM16.2302 4.64436L19.3556 7.76985L20.7698 6.35564L17.6444 3.23015L16.2302 4.64436ZM22 9.32548C22 8.8839 22.0064 8.50012 21.9171 8.12809L19.9724 8.59498C19.9936 8.6833 20 8.7887 20 9.32548H22ZM19.3556 7.76985C19.7352 8.14941 19.8052 8.22849 19.8526 8.30593L21.5579 7.26093C21.358 6.93471 21.0821 6.66788 20.7698 6.35564L19.3556 7.76985ZM21.9171 8.12809C21.8436 7.82198 21.7224 7.52935 21.5579 7.26093L19.8526 8.30593C19.9075 8.3954 19.9479 8.49295 19.9724 8.59498L21.9171 8.12809ZM14.6745 4C15.2113 4 15.3167 4.00643 15.405 4.02763L15.8719 2.08289C15.4999 1.99357 15.1161 2 14.6745 2V4ZM17.6444 3.23015C17.3321 2.9179 17.0653 2.64199 16.7391 2.44208L15.6941 4.14736C15.7715 4.19482 15.8506 4.26481 16.2302 4.64437L17.6444 3.23015ZM15.405 4.02763C15.5071 4.05213 15.6046 4.09253 15.6941 4.14736L16.7391 2.44208C16.4707 2.27759 16.178 2.15638 15.8719 2.08289L15.405 4.02763ZM7.8 20C6.94342 20 6.36113 19.9992 5.91104 19.9624C5.47262 19.9266 5.24842 19.8617 5.09202 19.782L4.18404 21.564C4.66937 21.8113 5.18608 21.9099 5.74817 21.9558C6.2986 22.0008 6.97642 22 7.8 22V20ZM2 16.2C2 17.0236 1.99922 17.7014 2.04419 18.2518C2.09012 18.8139 2.18868 19.3306 2.43597 19.816L4.21799 18.908C4.1383 18.7516 4.07337 18.5274 4.03755 18.089C4.00078 17.6389 4 17.0566 4 16.2H2ZM5.09202 19.782C4.7157 19.5903 4.40973 19.2843 4.21799 18.908L2.43597 19.816C2.81947 20.5686 3.43139 21.1805 4.18404 21.564L5.09202 19.782ZM16.2 22C17.0236 22 17.7014 22.0008 18.2518 21.9558C18.8139 21.9099 19.3306 21.8113 19.816 21.564L18.908 19.782C18.7516 19.8617 18.5274 19.9266 18.089 19.9624C17.6389 19.9992 17.0566 20 16.2 20V22ZM20 16.2C20 17.0566 19.9992 17.6389 19.9624 18.089C19.9266 18.5274 19.8617 18.7516 19.782 18.908L21.564 19.816C21.8113 19.3306 21.9099 18.8139 21.9558 18.2518C22.0008 17.7014 22 17.0236 22 16.2H20ZM19.816 21.564C20.5686 21.1805 21.1805 20.5686 21.564 19.816L19.782 18.908C19.5903 19.2843 19.2843 19.5903 18.908 19.782L19.816 21.564ZM4 7.8C4 6.94342 4.00078 6.36113 4.03755 5.91104C4.07337 5.47262 4.1383 5.24842 4.21799 5.09202L2.43597 4.18404C2.18868 4.66937 2.09012 5.18608 2.04419 5.74817C1.99922 6.2986 2 6.97642 2 7.8H4ZM7.8 2C6.97642 2 6.2986 1.99922 5.74817 2.04419C5.18608 2.09012 4.66937 2.18868 4.18404 2.43597L5.09202 4.21799C5.24842 4.1383 5.47262 4.07337 5.91104 4.03755C6.36113 4.00078 6.94342 4 7.8 4V2ZM4.21799 5.09202C4.40973 4.71569 4.71569 4.40973 5.09202 4.21799L4.18404 2.43597C3.43139 2.81947 2.81947 3.43139 2.43597 4.18404L4.21799 5.09202Z" fill="#171717"/>
</svg>
