<svg width="24" height="24" viewBox="0 0 24 24" fill="none" xmlns="http://www.w3.org/2000/svg">
<path d="M20.2929 21.7071C20.6834 22.0976 21.3166 22.0976 21.7071 21.7071C22.0976 21.3166 22.0976 20.6834 21.7071 20.2929L20.2929 21.7071ZM18.2072 16.7929C17.8167 16.4024 17.1835 16.4024 16.793 16.7929C16.4025 17.1834 16.4025 17.8166 16.793 18.2071L18.2072 16.7929ZM21.7071 20.2929L18.2072 16.7929L16.793 18.2071L20.2929 21.7071L21.7071 20.2929ZM19 11.5C19 15.6421 15.6421 19 11.5 19V21C16.7467 21 21 16.7467 21 11.5H19ZM11.5 19C7.35786 19 4 15.6421 4 11.5H2C2 16.7467 6.25329 21 11.5 21V19ZM4 11.5C4 7.35786 7.35786 4 11.5 4V2C6.25329 2 2 6.25329 2 11.5H4ZM11.5 4C15.6421 4 19 7.35786 19 11.5H21C21 6.25329 16.7467 2 11.5 2V4Z" fill="#171717"/>
</svg>
