<svg width="24" height="24" viewBox="0 0 24 24" fill="none" xmlns="http://www.w3.org/2000/svg">
<path d="M10.6271 13.8282L9.6951 14.1907L10.6271 13.8282ZM10.5203 13.5961L11.3344 13.0154L10.5203 13.5961ZM10.1715 13.3726L10.5339 12.4406L10.1715 13.3726ZM10.4036 13.4794L10.9843 12.6653L10.4036 13.4794ZM14.7461 20.5871L15.6777 20.9507L14.7461 20.5871ZM14.2308 21.5664L13.7698 20.679L14.2308 21.5664ZM13.2552 20.5862L14.1872 20.2238L13.2552 20.5862ZM13.7693 21.5662L13.3072 22.453L13.7693 21.5662ZM20.3003 2.66327L19.9368 1.7317L20.3003 2.66327ZM21.2777 2.40616L20.9609 3.35464L21.2777 2.40616ZM21.3364 3.69937L20.4048 3.33583L21.3364 3.69937ZM21.5935 2.72197L20.6451 3.03883L21.5935 2.72197ZM3.41258 9.25361L3.04904 8.32204L3.41258 9.25361ZM2.43326 9.76886L3.32065 10.2299L2.43326 9.76886ZM3.41345 10.7445L3.05101 11.6765H3.05101L3.41345 10.7445ZM2.43353 10.2304L1.54668 10.6924L2.43353 10.2304ZM9.79242 12.7931C9.40189 13.1836 9.40189 13.8168 9.79242 14.2073C10.1829 14.5978 10.8161 14.5978 11.2066 14.2073L9.79242 12.7931ZM21.7066 3.70728C22.0972 3.31675 22.0972 2.68359 21.7066 2.29307C21.3161 1.90254 20.6829 1.90254 20.2924 2.29307L21.7066 3.70728ZM3.77612 10.1852L20.6639 3.59485L19.9368 1.7317L3.04904 8.32204L3.77612 10.1852ZM20.4048 3.33583L13.8145 20.2236L15.6777 20.9507L22.268 4.06291L20.4048 3.33583ZM14.1872 20.2238L11.5591 13.4658L9.6951 14.1907L12.3232 20.9487L14.1872 20.2238ZM10.5339 12.4406L3.7759 9.81247L3.05101 11.6765L9.80901 14.3046L10.5339 12.4406ZM11.5591 13.4658C11.5305 13.3922 11.4602 13.1918 11.3344 13.0154L9.7062 14.1768C9.69828 14.1657 9.69104 14.1548 9.6845 14.1443C9.678 14.1338 9.6726 14.1244 9.66827 14.1165C9.65985 14.1011 9.6557 14.0916 9.65618 14.0927C9.65635 14.0931 9.65731 14.0953 9.65925 14.0999C9.66119 14.1046 9.66376 14.1109 9.66718 14.1194C9.67061 14.128 9.67454 14.138 9.67927 14.1501C9.68403 14.1622 9.68914 14.1754 9.6951 14.1907L11.5591 13.4658ZM9.80901 14.3046C9.82434 14.3106 9.83748 14.3157 9.84964 14.3204C9.86172 14.3252 9.87169 14.3291 9.88026 14.3325C9.88882 14.3359 9.8951 14.3385 9.89975 14.3404C9.9044 14.3424 9.90659 14.3433 9.90697 14.3435C9.90805 14.344 9.89856 14.3398 9.88317 14.3314C9.87524 14.3271 9.86587 14.3217 9.85542 14.3152C9.84491 14.3087 9.83401 14.3014 9.8229 14.2935L10.9843 12.6653C10.8079 12.5395 10.6075 12.4692 10.5339 12.4406L9.80901 14.3046ZM11.3344 13.0154C11.2379 12.8801 11.1196 12.7618 10.9843 12.6653L9.8229 14.2935C9.77781 14.2613 9.73837 14.2219 9.7062 14.1768L11.3344 13.0154ZM13.8145 20.2236C13.7556 20.3746 13.7079 20.4966 13.6654 20.6007C13.6225 20.7056 13.5914 20.7759 13.5676 20.8242C13.5422 20.8754 13.5382 20.8746 13.5564 20.8508C13.5766 20.8247 13.6436 20.7446 13.7698 20.679L14.6919 22.4538C15.0855 22.2493 15.2751 21.883 15.3604 21.7106C15.4633 21.5024 15.5687 21.2299 15.6777 20.9507L13.8145 20.2236ZM12.3232 20.9487C12.4319 21.2281 12.5369 21.5007 12.6396 21.709C12.7246 21.8815 12.9139 22.2481 13.3072 22.453L14.2314 20.6793C14.3575 20.745 14.4244 20.8252 14.4445 20.8514C14.4628 20.8752 14.4587 20.876 14.4335 20.8247C14.4096 20.7764 14.3786 20.7061 14.3359 20.6011C14.2935 20.497 14.246 20.3748 14.1872 20.2238L12.3232 20.9487ZM13.7698 20.679C13.9145 20.6039 14.0868 20.604 14.2314 20.6793L13.3072 22.453C13.741 22.679 14.2578 22.6793 14.6919 22.4538L13.7698 20.679ZM20.6639 3.59485C20.8004 3.54155 20.9096 3.49898 21.0037 3.46402C21.0986 3.42876 21.1616 3.40752 21.205 3.39491C21.251 3.38158 21.248 3.38601 21.2151 3.38888C21.1781 3.39211 21.0825 3.39526 20.9609 3.35464L21.5946 1.45769C21.1988 1.32547 20.8303 1.42109 20.6472 1.4743C20.438 1.53505 20.1869 1.63411 19.9368 1.7317L20.6639 3.59485ZM22.268 4.06291C22.3656 3.81284 22.4646 3.56168 22.5254 3.35253C22.5786 3.16935 22.6742 2.80089 22.542 2.40512L20.6451 3.03883C20.6044 2.91722 20.6076 2.82158 20.6108 2.78457C20.6137 2.75172 20.6181 2.74874 20.6048 2.79465C20.5922 2.83805 20.5709 2.90105 20.5357 2.99595C20.5007 3.09007 20.4581 3.19925 20.4048 3.33583L22.268 4.06291ZM20.9609 3.35464C20.8118 3.30484 20.6948 3.18788 20.6451 3.03883L22.542 2.40512C22.3926 1.95797 22.0417 1.60707 21.5946 1.45769L20.9609 3.35464ZM3.04904 8.32204C2.76979 8.43101 2.4973 8.53635 2.28905 8.63932C2.11669 8.72455 1.75035 8.91423 1.54586 9.30784L3.32065 10.2299C3.25509 10.3561 3.17501 10.4231 3.14884 10.4432C3.12508 10.4615 3.12427 10.4575 3.17552 10.4321C3.2238 10.4083 3.29406 10.3772 3.39899 10.3343C3.50305 10.2918 3.62513 10.2441 3.77612 10.1852L3.04904 8.32204ZM3.7759 9.81247C3.62484 9.75373 3.50271 9.7062 3.3986 9.6638C3.29362 9.62105 3.22331 9.59005 3.17501 9.56624C3.12373 9.54096 3.12453 9.5369 3.14832 9.55516C3.17451 9.57525 3.25467 9.64221 3.32038 9.76833L1.54668 10.6924C1.75163 11.0858 2.11819 11.2751 2.29065 11.3601C2.49902 11.4628 2.77164 11.5678 3.05101 11.6765L3.7759 9.81247ZM1.54586 9.30784C1.32036 9.7419 1.32067 10.2587 1.54668 10.6924L3.32038 9.76833C3.39572 9.91293 3.39582 10.0852 3.32065 10.2299L1.54586 9.30784ZM11.2066 14.2073L21.7066 3.70728L20.2924 2.29307L9.79242 12.7931L11.2066 14.2073Z" fill="#171717"/>
</svg>
