<svg width="24" height="24" viewBox="0 0 24 24" fill="none" xmlns="http://www.w3.org/2000/svg">
<path d="M14.8009 9L15.8007 9.02083C15.801 9.00694 15.801 8.99306 15.8007 8.97917L14.8009 9ZM9.20091 9L8.20113 8.97917C8.20084 8.99306 8.20084 9.00694 8.20113 9.02083L9.20091 9ZM3 19C2.44772 19 2 19.4477 2 20C2 20.5523 2.44772 21 3 21V19ZM21 21C21.5523 21 22 20.5523 22 20C22 19.4477 21.5523 19 21 19V21ZM18 9C18 12.3137 15.3137 15 12 15V17C16.4183 17 20 13.4183 20 9H18ZM12 15C8.68629 15 6 12.3137 6 9H4C4 13.4183 7.58172 17 12 17V15ZM6 9C6 5.68629 8.68629 3 12 3V1C7.58172 1 4 4.58172 4 9H6ZM12 3C15.3137 3 18 5.68629 18 9H20C20 4.58172 16.4183 1 12 1V3ZM5 10H19V8H5V10ZM11.2617 2.67442C12.8492 4.41247 13.7521 6.66784 13.8011 9.02083L15.8007 8.97917C15.7416 6.14101 14.6526 3.42123 12.7383 1.32558L11.2617 2.67442ZM13.8011 8.97917C13.7521 11.3322 12.8492 13.5875 11.2617 15.3256L12.7383 16.6744C14.6526 14.5788 15.7416 11.859 15.8007 9.02083L13.8011 8.97917ZM12.7383 15.3256C11.1511 13.5879 10.2497 11.3326 10.2007 8.97917L8.20113 9.02083C8.26025 11.8585 9.34712 14.5784 11.2617 16.6744L12.7383 15.3256ZM10.2007 9.02083C10.2497 6.66737 11.1511 4.41212 12.7383 2.67442L11.2617 1.32558C9.34712 3.42158 8.26025 6.14148 8.20113 8.97917L10.2007 9.02083ZM13 20C13 20.5523 12.5523 21 12 21V23C13.6569 23 15 21.6569 15 20H13ZM12 21C11.4477 21 11 20.5523 11 20H9C9 21.6569 10.3431 23 12 23V21ZM11 20C11 19.4477 11.4477 19 12 19V17C10.3431 17 9 18.3431 9 20H11ZM12 19C12.5523 19 13 19.4477 13 20H15C15 18.3431 13.6569 17 12 17V19ZM10 19H3V21H10V19ZM21 19H14V21H21V19ZM11 16V18H13V16H11Z" fill="#171717"/>
</svg>
