<svg width="24" height="24" viewBox="0 0 24 24" fill="none" xmlns="http://www.w3.org/2000/svg">
<path d="M18.7273 14.7273L19.6422 15.1311L19.6464 15.1212L18.7273 14.7273ZM19.0273 16.3818L18.3124 17.0811L18.3202 17.0889L19.0273 16.3818ZM19.0818 16.4364L18.3747 17.1435L18.3751 17.1439L19.0818 16.4364ZM19.0818 19.0091L18.3751 18.3016L18.3743 18.3024L19.0818 19.0091ZM16.5091 19.0091L17.2166 18.3024L17.2162 18.302L16.5091 19.0091ZM16.4545 18.9545L17.1617 18.2474L17.1538 18.2397L16.4545 18.9545ZM14.8 18.6545L15.194 19.5737L15.2038 19.5694L14.8 18.6545ZM13.8909 20.0273L12.8909 20.0233V20.0273H13.8909ZM10.2545 20.1H11.2545C11.2545 20.0922 11.2545 20.0844 11.2543 20.0766L10.2545 20.1ZM9.27273 18.7273L8.86896 19.6421C8.88824 19.6506 8.90777 19.6585 8.92755 19.6658L9.27273 18.7273ZM7.61818 19.0273L6.91887 18.3124L6.91107 18.3202L7.61818 19.0273ZM7.56364 19.0818L6.85652 18.3747L6.85614 18.3751L7.56364 19.0818ZM4.99091 19.0818L5.69841 18.3751L5.69762 18.3743L4.99091 19.0818ZM4.45766 17.7955H5.45766H4.45766ZM4.99091 16.5091L5.69762 17.2166L5.69801 17.2162L4.99091 16.5091ZM5.04545 16.4545L5.7526 17.1617L5.76032 17.1538L5.04545 16.4545ZM5.34545 14.8L4.42626 15.194L4.43059 15.2038L5.34545 14.8ZM3.97273 13.8909L3.97672 12.8909H3.97273V13.8909ZM2 12.0727H1H2ZM3.81818 10.2545V11.2545V10.2545ZM3.9 10.2545V11.2545C3.9078 11.2545 3.91559 11.2545 3.92338 11.2543L3.9 10.2545ZM5.27273 9.27273L4.35786 8.86896C4.34936 8.88824 4.34146 8.90777 4.33419 8.92755L5.27273 9.27273ZM4.97273 7.61818L5.68763 6.91887L5.67983 6.91108L4.97273 7.61818ZM4.91818 7.56364L5.62529 6.85653L5.6249 6.85614L4.91818 7.56364ZM4.91818 4.99091L5.6249 5.69841L5.62568 5.69762L4.91818 4.99091ZM7.49091 4.99091L6.78341 5.69762L6.7838 5.69802L7.49091 4.99091ZM7.54545 5.04545L6.8383 5.7526L6.84619 5.76032L7.54545 5.04545ZM9.2 5.34545V4.34545C9.06096 4.34545 8.92344 4.37445 8.79624 4.43059L9.2 5.34545ZM9.27273 5.34545V6.34545C9.40816 6.34545 9.54218 6.31795 9.66666 6.26459L9.27273 5.34545ZM10.1818 3.97273L11.1818 3.97672V3.97273H10.1818ZM12 2V1V2ZM13.8182 3.9H12.8182L12.8182 3.90399L13.8182 3.9ZM14.7273 5.27273L15.1311 4.35781L15.1212 4.35359L14.7273 5.27273ZM16.3818 4.97273L17.0811 5.68763L17.0889 5.67983L16.3818 4.97273ZM16.4364 4.91818L17.1435 5.62528L17.1439 5.6249L16.4364 4.91818ZM17.7227 4.38493V5.38493V4.38493ZM19.0091 4.91818L18.3016 5.6249L18.3024 5.62568L19.0091 4.91818ZM19.0091 7.49091L18.3024 6.78341L18.302 6.78381L19.0091 7.49091ZM18.9545 7.54545L18.2474 6.83831L18.2397 6.84619L18.9545 7.54545ZM18.6545 9.2H19.6545C19.6545 9.06096 19.6255 8.92344 19.5694 8.79624L18.6545 9.2ZM18.6545 9.27273H17.6545C17.6545 9.40816 17.6821 9.54218 17.7354 9.66666L18.6545 9.27273ZM20.0273 10.1818L20.0233 11.1818H20.0273V10.1818ZM20.1 13.8182V12.8182L20.096 12.8182L20.1 13.8182ZM14 12C14 13.1046 13.1046 14 12 14V16C14.2091 16 16 14.2091 16 12H14ZM12 14C10.8954 14 10 13.1046 10 12H8C8 14.2091 9.79086 16 12 16V14ZM10 12C10 10.8954 10.8954 10 12 10V8C9.79086 8 8 9.79086 8 12H10ZM12 10C13.1046 10 14 10.8954 14 12H16C16 9.79086 14.2091 8 12 8V10ZM17.8124 14.3235C17.6107 14.7805 17.5506 15.2874 17.6397 15.7789L19.6076 15.4221C19.5898 15.3238 19.6018 15.2224 19.6421 15.131L17.8124 14.3235ZM17.6397 15.7789C17.7288 16.2705 17.9631 16.724 18.3124 17.0811L19.7421 15.6826C19.6723 15.6111 19.6254 15.5204 19.6076 15.4221L17.6397 15.7789ZM18.3202 17.0889L18.3747 17.1435L19.7889 15.7292L19.7344 15.6747L18.3202 17.0889ZM18.3751 17.1439C18.4512 17.2198 18.5115 17.3101 18.5527 17.4094L20.4002 16.6435C20.2584 16.3014 20.0506 15.9906 19.7885 15.7289L18.3751 17.1439ZM18.5527 17.4094C18.5939 17.5087 18.6151 17.6152 18.6151 17.7227H20.6151C20.6151 17.3524 20.5421 16.9857 20.4002 16.6435L18.5527 17.4094ZM18.6151 17.7227C18.6151 17.8303 18.5939 17.9367 18.5527 18.036L20.4002 18.8019C20.5421 18.4598 20.6151 18.0931 20.6151 17.7227H18.6151ZM18.5527 18.036C18.5115 18.1354 18.4512 18.2256 18.3751 18.3016L19.7885 19.7166C20.0506 19.4549 20.2584 19.144 20.4002 18.8019L18.5527 18.036ZM18.3743 18.3024C18.2983 18.3785 18.2081 18.4388 18.1088 18.48L18.8747 20.3275C19.2168 20.1857 19.5276 19.9778 19.7893 19.7158L18.3743 18.3024ZM18.1088 18.48C18.0094 18.5211 17.903 18.5423 17.7955 18.5423V20.5423C18.1658 20.5423 18.5325 20.4693 18.8747 20.3275L18.1088 18.48ZM17.7955 18.5423C17.6879 18.5423 17.5815 18.5211 17.4821 18.48L16.7163 20.3275C17.0584 20.4693 17.4251 20.5423 17.7955 20.5423V18.5423ZM17.4821 18.48C17.3828 18.4388 17.2926 18.3784 17.2166 18.3024L15.8016 19.7158C16.0633 19.9778 16.3741 20.1857 16.7163 20.3275L17.4821 18.48ZM17.2162 18.302L17.1617 18.2474L15.7474 19.6617L15.802 19.7162L17.2162 18.302ZM17.1538 18.2397C16.7967 17.8904 16.3432 17.6561 15.8517 17.5669L15.4949 19.5349C15.5932 19.5527 15.6839 19.5995 15.7553 19.6694L17.1538 18.2397ZM15.8517 17.5669C15.3602 17.4778 14.8532 17.538 14.3962 17.7397L15.2038 19.5694C15.2952 19.5291 15.3965 19.517 15.4949 19.5349L15.8517 17.5669ZM14.4061 17.7354C13.9579 17.9275 13.5757 18.2464 13.3065 18.6529L14.974 19.7572C15.0279 19.6759 15.1043 19.6121 15.1939 19.5737L14.4061 17.7354ZM13.3065 18.6529C13.0373 19.0594 12.8929 19.5357 12.8909 20.0233L14.8909 20.0313C14.8913 19.9338 14.9202 19.8385 14.974 19.7572L13.3065 18.6529ZM12.8909 20.0273V20.1818H14.8909V20.0273H12.8909ZM12.8909 20.1818C12.8909 20.3988 12.8047 20.6069 12.6513 20.7604L14.0655 22.1746C14.594 21.6461 14.8909 20.9292 14.8909 20.1818H12.8909ZM12.6513 20.7604C12.4978 20.9138 12.2897 21 12.0727 21V23C12.8202 23 13.537 22.7031 14.0655 22.1746L12.6513 20.7604ZM12.0727 21C11.8557 21 11.6476 20.9138 11.4942 20.7604L10.08 22.1746C10.6085 22.7031 11.3253 23 12.0727 23V21ZM11.4942 20.7604C11.3407 20.6069 11.2545 20.3988 11.2545 20.1818H9.25455C9.25455 20.9292 9.55146 21.6461 10.08 22.1746L11.4942 20.7604ZM11.2545 20.1818V20.1H9.25455V20.1818H11.2545ZM11.2543 20.0766C11.2425 19.5751 11.0802 19.0887 10.7884 18.6807L9.16164 19.8442C9.22001 19.9258 9.25247 20.0231 9.25482 20.1234L11.2543 20.0766ZM10.7884 18.6807C10.4965 18.2727 10.0887 17.9619 9.61791 17.7887L8.92755 19.6658C9.02171 19.7004 9.10327 19.7626 9.16164 19.8442L10.7884 18.6807ZM9.67649 17.8124C9.2195 17.6107 8.71256 17.5506 8.22106 17.6397L8.57787 19.6076C8.67618 19.5898 8.77757 19.6018 8.86896 19.6421L9.67649 17.8124ZM8.22106 17.6397C7.72955 17.7288 7.27601 17.9631 6.91892 18.3124L8.31745 19.7421C8.38886 19.6723 8.47957 19.6254 8.57787 19.6076L8.22106 17.6397ZM6.91107 18.3202L6.85652 18.3747L8.27075 19.7889L8.32529 19.7344L6.91107 18.3202ZM6.85614 18.3751C6.78015 18.4512 6.68991 18.5115 6.59059 18.5527L7.35647 20.4002C7.69859 20.2584 8.0094 20.0506 8.27114 19.7885L6.85614 18.3751ZM6.59059 18.5527C6.49126 18.5939 6.3848 18.6151 6.27727 18.6151V20.6151C6.64762 20.6151 7.01434 20.5421 7.35647 20.4002L6.59059 18.5527ZM6.27727 18.6151C6.16975 18.6151 6.06328 18.5939 5.96396 18.5527L5.19808 20.4002C5.5402 20.5421 5.90692 20.6151 6.27727 20.6151V18.6151ZM5.96396 18.5527C5.86463 18.5115 5.77439 18.4512 5.69841 18.3751L4.28341 19.7885C4.54514 20.0506 4.85596 20.2584 5.19808 20.4002L5.96396 18.5527ZM5.69762 18.3743C5.62155 18.2983 5.5612 18.2081 5.52003 18.1088L3.67248 18.8747C3.8143 19.2168 4.02217 19.5276 4.2842 19.7893L5.69762 18.3743ZM5.52003 18.1088C5.47885 18.0094 5.45766 17.903 5.45766 17.7955H3.45766C3.45766 18.1658 3.53066 18.5325 3.67248 18.8747L5.52003 18.1088ZM5.45766 17.7955C5.45766 17.6879 5.47885 17.5815 5.52003 17.4821L3.67248 16.7163C3.53066 17.0584 3.45766 17.4251 3.45766 17.7955H5.45766ZM5.52003 17.4821C5.5612 17.3828 5.62155 17.2926 5.69762 17.2166L4.2842 15.8016C4.02217 16.0633 3.8143 16.3741 3.67248 16.7163L5.52003 17.4821ZM5.69801 17.2162L5.75256 17.1617L4.33835 15.7474L4.28381 15.802L5.69801 17.2162ZM5.76032 17.1538C6.10962 16.7967 6.34393 16.3432 6.43305 15.8517L4.46514 15.4949C4.44731 15.5932 4.40045 15.6839 4.33059 15.7553L5.76032 17.1538ZM6.43305 15.8517C6.52217 15.3602 6.46201 14.8532 6.26032 14.3962L4.43059 15.2038C4.47093 15.2952 4.48296 15.3966 4.46514 15.4949L6.43305 15.8517ZM6.26459 14.4061C6.07253 13.9579 5.75362 13.5757 5.34712 13.3065L4.24282 14.974C4.32412 15.0279 4.3879 15.1043 4.42631 15.1939L6.26459 14.4061ZM5.34712 13.3065C4.94062 13.0373 4.46427 12.8929 3.97672 12.8909L3.96874 14.8909C4.06625 14.8913 4.16152 14.9202 4.24282 14.974L5.34712 13.3065ZM3.97273 12.8909H3.81818V14.8909H3.97273V12.8909ZM3.81818 12.8909C3.60119 12.8909 3.39308 12.8047 3.23964 12.6513L1.82543 14.0655C2.35394 14.594 3.07075 14.8909 3.81818 14.8909V12.8909ZM3.23964 12.6513C3.0862 12.4978 3 12.2897 3 12.0727H1C1 12.8202 1.29691 13.537 1.82543 14.0655L3.23964 12.6513ZM3 12.0727C3 11.8557 3.0862 11.6476 3.23964 11.4942L1.82543 10.08C1.29691 10.6085 1 11.3253 1 12.0727H3ZM3.23964 11.4942C3.39308 11.3407 3.60119 11.2545 3.81818 11.2545V9.25455C3.07075 9.25455 2.35394 9.55146 1.82543 10.08L3.23964 11.4942ZM3.81818 11.2545H3.9V9.25455H3.81818V11.2545ZM3.92338 11.2543C4.42489 11.2425 4.91127 11.0802 5.31929 10.7884L4.1558 9.16164C4.07419 9.22001 3.97692 9.25247 3.87662 9.25482L3.92338 11.2543ZM5.31929 10.7884C5.72731 10.4965 6.03811 10.0887 6.21126 9.61791L4.33419 8.92755C4.29956 9.02171 4.2374 9.10327 4.1558 9.16164L5.31929 10.7884ZM6.18759 9.67649C6.38928 9.2195 6.44944 8.71256 6.36032 8.22106L4.39241 8.57787C4.41024 8.67618 4.3982 8.77756 4.35786 8.86896L6.18759 9.67649ZM6.36032 8.22106C6.2712 7.72955 6.03689 7.27601 5.68759 6.91892L4.25786 8.31745C4.32772 8.38886 4.37459 8.47957 4.39241 8.57787L6.36032 8.22106ZM5.67983 6.91108L5.62529 6.85653L4.21108 8.27074L4.26562 8.32529L5.67983 6.91108ZM5.6249 6.85614C5.54882 6.78015 5.48848 6.68991 5.4473 6.59059L3.59975 7.35647C3.74158 7.69859 3.94944 8.0094 4.21147 8.27114L5.6249 6.85614ZM5.4473 6.59059C5.40613 6.49126 5.38493 6.38479 5.38493 6.27727H3.38493C3.38493 6.64763 3.45793 7.01435 3.59975 7.35647L5.4473 6.59059ZM5.38493 6.27727C5.38493 6.16975 5.40613 6.06328 5.4473 5.96396L3.59975 5.19808C3.45793 5.5402 3.38493 5.90692 3.38493 6.27727H5.38493ZM5.4473 5.96396C5.48848 5.86463 5.54882 5.7744 5.6249 5.69841L4.21147 4.28341C3.94944 4.54514 3.74158 4.85596 3.59975 5.19808L5.4473 5.96396ZM5.62568 5.69762C5.70167 5.62155 5.7919 5.5612 5.89123 5.52003L5.12535 3.67248C4.78323 3.8143 4.47242 4.02217 4.21068 4.2842L5.62568 5.69762ZM5.89123 5.52003C5.99056 5.47885 6.09702 5.45766 6.20455 5.45766V3.45766C5.83419 3.45766 5.46747 3.53066 5.12535 3.67248L5.89123 5.52003ZM6.20455 5.45766C6.31207 5.45766 6.41853 5.47885 6.51786 5.52003L7.28374 3.67248C6.94162 3.53066 6.5749 3.45766 6.20455 3.45766V5.45766ZM6.51786 5.52003C6.61719 5.5612 6.70742 5.62155 6.78341 5.69762L8.19841 4.2842C7.93668 4.02217 7.62586 3.81431 7.28374 3.67248L6.51786 5.52003ZM6.7838 5.69802L6.83835 5.75256L8.25256 4.33835L8.19802 4.2838L6.7838 5.69802ZM6.84619 5.76032C7.20328 6.10962 7.65682 6.34393 8.14833 6.43305L8.50515 4.46514C8.40685 4.44731 8.31614 4.40045 8.24472 4.33059L6.84619 5.76032ZM8.14833 6.43305C8.63984 6.52217 9.14677 6.46201 9.60377 6.26032L8.79624 4.43059C8.70484 4.47093 8.60345 4.48296 8.50515 4.46514L8.14833 6.43305ZM9.2 6.34545H9.27273V4.34545H9.2V6.34545ZM9.66666 6.26459C10.1148 6.07253 10.497 5.75362 10.7662 5.34712L9.0987 4.24282C9.04486 4.32412 8.96842 4.3879 8.8788 4.42631L9.66666 6.26459ZM10.7662 5.34712C11.0354 4.94062 11.1799 4.46427 11.1818 3.97672L9.18183 3.96874C9.18144 4.06625 9.15254 4.16152 9.0987 4.24282L10.7662 5.34712ZM11.1818 3.97273V3.81818H9.18182V3.97273H11.1818ZM11.1818 3.81818C11.1818 3.60119 11.268 3.39308 11.4215 3.23964L10.0072 1.82543C9.47873 2.35394 9.18182 3.07075 9.18182 3.81818H11.1818ZM11.4215 3.23964C11.5749 3.0862 11.783 3 12 3V1C11.2526 1 10.5358 1.29691 10.0072 1.82543L11.4215 3.23964ZM12 3C12.217 3 12.4251 3.0862 12.5785 3.23964L13.9928 1.82543C13.4642 1.29691 12.7474 1 12 1V3ZM12.5785 3.23964C12.732 3.39308 12.8182 3.60119 12.8182 3.81818H14.8182C14.8182 3.07075 14.5213 2.35394 13.9928 1.82543L12.5785 3.23964ZM12.8182 3.81818V3.9H14.8182V3.81818H12.8182ZM12.8182 3.90399C12.8201 4.39154 12.9646 4.86789 13.2338 5.27439L14.9013 4.17009C14.8475 4.08879 14.8186 3.99352 14.8182 3.89601L12.8182 3.90399ZM13.2338 5.27439C13.503 5.68089 13.8852 5.9998 14.3333 6.19187L15.1212 4.35359C15.0316 4.31517 14.9551 4.25139 14.9013 4.17009L13.2338 5.27439ZM14.3235 6.18759C14.7805 6.38928 15.2874 6.44944 15.7789 6.36032L15.4221 4.39241C15.3238 4.41024 15.2224 4.3982 15.131 4.35786L14.3235 6.18759ZM15.7789 6.36032C16.2705 6.2712 16.724 6.03689 17.0811 5.68759L15.6826 4.25786C15.6111 4.32772 15.5204 4.37459 15.4221 4.39241L15.7789 6.36032ZM17.0889 5.67983L17.1435 5.62528L15.7292 4.21108L15.6747 4.26563L17.0889 5.67983ZM17.1439 5.6249C17.2198 5.54883 17.3101 5.48848 17.4094 5.4473L16.6435 3.59975C16.3014 3.74158 15.9906 3.94944 15.7289 4.21147L17.1439 5.6249ZM17.4094 5.4473C17.5087 5.40613 17.6152 5.38493 17.7227 5.38493V3.38493C17.3524 3.38493 16.9857 3.45793 16.6435 3.59975L17.4094 5.4473ZM17.7227 5.38493C17.8302 5.38493 17.9367 5.40613 18.036 5.4473L18.8019 3.59975C18.4598 3.45793 18.0931 3.38493 17.7227 3.38493V5.38493ZM18.036 5.4473C18.1354 5.48847 18.2256 5.54882 18.3016 5.6249L19.7166 4.21147C19.4549 3.94945 19.144 3.74158 18.8019 3.59975L18.036 5.4473ZM18.3024 5.62568C18.3785 5.70167 18.4388 5.79191 18.48 5.89123L20.3275 5.12535C20.1857 4.78323 19.9778 4.47241 19.7158 4.21068L18.3024 5.62568ZM18.48 5.89123C18.5211 5.99055 18.5423 6.09702 18.5423 6.20455H20.5423C20.5423 5.83419 20.4693 5.46747 20.3275 5.12535L18.48 5.89123ZM18.5423 6.20455C18.5423 6.31207 18.5211 6.41854 18.48 6.51786L20.3275 7.28374C20.4693 6.94162 20.5423 6.5749 20.5423 6.20455H18.5423ZM18.48 6.51786C18.4388 6.61718 18.3785 6.70742 18.3024 6.78341L19.7158 8.19841C19.9778 7.93668 20.1857 7.62587 20.3275 7.28374L18.48 6.51786ZM18.302 6.78381L18.2474 6.83835L19.6617 8.25255L19.7162 8.19801L18.302 6.78381ZM18.2397 6.84619C17.8904 7.20328 17.6561 7.65682 17.5669 8.14833L19.5349 8.50515C19.5527 8.40685 19.5995 8.31614 19.6694 8.24472L18.2397 6.84619ZM17.5669 8.14833C17.4778 8.63983 17.538 9.14677 17.7397 9.60377L19.5694 8.79624C19.5291 8.70484 19.517 8.60345 19.5349 8.50515L17.5669 8.14833ZM17.6545 9.2V9.27273H19.6545V9.2H17.6545ZM17.7354 9.66666C17.9275 10.1148 18.2464 10.497 18.6529 10.7662L19.7572 9.0987C19.6759 9.04486 19.6121 8.96842 19.5737 8.8788L17.7354 9.66666ZM18.6529 10.7662C19.0594 11.0354 19.5357 11.1799 20.0233 11.1818L20.0313 9.18183C19.9338 9.18144 19.8385 9.15254 19.7572 9.0987L18.6529 10.7662ZM20.0273 11.1818H20.1818V9.18182H20.0273V11.1818ZM20.1818 11.1818C20.3988 11.1818 20.6069 11.268 20.7604 11.4215L22.1746 10.0072C21.6461 9.47873 20.9292 9.18182 20.1818 9.18182V11.1818ZM20.7604 11.4215C20.9138 11.5749 21 11.783 21 12H23C23 11.2526 22.7031 10.5358 22.1746 10.0072L20.7604 11.4215ZM21 12C21 12.217 20.9138 12.4251 20.7604 12.5785L22.1746 13.9928C22.7031 13.4642 23 12.7474 23 12H21ZM20.7604 12.5785C20.6069 12.732 20.3988 12.8182 20.1818 12.8182V14.8182C20.9292 14.8182 21.6461 14.5213 22.1746 13.9928L20.7604 12.5785ZM20.1818 12.8182H20.1V14.8182H20.1818V12.8182ZM20.096 12.8182C19.6085 12.8201 19.1321 12.9646 18.7256 13.2338L19.8299 14.9013C19.9112 14.8475 20.0065 14.8186 20.104 14.8182L20.096 12.8182ZM18.7256 13.2338C18.3191 13.503 18.0002 13.8852 17.8081 14.3333L19.6464 15.1212C19.6848 15.0316 19.7486 14.9551 19.8299 14.9013L18.7256 13.2338Z" fill="#171717"/>
</svg>
