<svg width="24" height="24" viewBox="0 0 24 24" fill="none" xmlns="http://www.w3.org/2000/svg">
<path d="M9.70711 10.7933C9.31658 10.4027 8.68342 10.4027 8.29289 10.7933C7.90237 11.1838 7.90237 11.8169 8.29289 12.2075L9.70711 10.7933ZM11 13.5004L10.2929 14.2075C10.6834 14.598 11.3166 14.598 11.7071 14.2075L11 13.5004ZM16.2071 9.70747C16.5976 9.31694 16.5976 8.68378 16.2071 8.29325C15.8166 7.90273 15.1834 7.90273 14.7929 8.29325L16.2071 9.70747ZM6.0764 4.22171L5.72528 3.28538L6.0764 4.22171ZM4.67766 4.88589L4.01649 4.13565L4.67766 4.88589ZM4.13076 5.67506L5.06538 6.03071L4.13076 5.67506ZM12.5618 2.21103L12.2107 3.14736L12.5618 2.21103ZM12.143 2.07864L12 3.06836L12.143 2.07864ZM11.4382 2.21103L11.7893 3.14736L11.4382 2.21103ZM11.857 2.07864L12 3.06836L11.857 2.07864ZM19.8692 5.67506L18.9346 6.03071L19.8692 5.67506ZM17.9236 4.22171L18.2747 3.28538L17.9236 4.22171ZM19.3223 4.88589L19.9835 4.13565L19.3223 4.88589ZM12.698 21.6152L13.2019 22.479L12.698 21.6152ZM12.2097 21.8425L12.4194 22.8202L12.2097 21.8425ZM11.302 21.6152L11.8059 20.7515L11.302 21.6152ZM11.7903 21.8425L11.5806 22.8202L11.7903 21.8425ZM8.29289 12.2075L10.2929 14.2075L11.7071 12.7933L9.70711 10.7933L8.29289 12.2075ZM11.7071 14.2075L16.2071 9.70747L14.7929 8.29325L10.2929 12.7933L11.7071 14.2075ZM13.2019 22.479C14.214 21.8885 16.128 20.6576 17.8009 18.9148C19.4627 17.1836 21 14.827 21 12.0004H19C19 14.0822 17.8603 15.9648 16.3581 17.5298C14.867 19.0832 13.13 20.2055 12.1941 20.7515L13.2019 22.479ZM21 12.0004V7.21796H19V12.0004H21ZM18.2747 3.28538L12.9129 1.2747L12.2107 3.14736L17.5725 5.15804L18.2747 3.28538ZM11.0871 1.2747L5.72528 3.28538L6.42753 5.15804L11.7893 3.14736L11.0871 1.2747ZM3 7.21796V12.0004H5V7.21796H3ZM3 12.0004C3 14.827 4.53729 17.1836 6.19906 18.9148C7.87196 20.6576 9.786 21.8885 10.7981 22.479L11.8059 20.7515C10.87 20.2055 9.13301 19.0832 7.64191 17.5298C6.13969 15.9648 5 14.0822 5 12.0004H3ZM5.72528 3.28538C5.05331 3.53737 4.46352 3.74169 4.01649 4.13565L5.33883 5.63612C5.44347 5.5439 5.60229 5.4675 6.42753 5.15804L5.72528 3.28538ZM5 7.21796C5 6.3366 5.01577 6.16108 5.06538 6.03071L3.19614 5.31941C2.98423 5.87631 3 6.50029 3 7.21796H5ZM4.01649 4.13565C3.65097 4.45778 3.36941 4.86407 3.19614 5.31941L5.06538 6.03071C5.12314 5.87893 5.21699 5.7435 5.33883 5.63612L4.01649 4.13565ZM12.9129 1.2747C12.7452 1.21181 12.5247 1.1234 12.286 1.08892L12 3.06836C11.9769 3.06503 11.9702 3.06089 12.003 3.07163C12.0439 3.08502 12.0993 3.10558 12.2107 3.14736L12.9129 1.2747ZM11.7893 3.14736C11.9007 3.10558 11.9561 3.08502 11.997 3.07163C12.0298 3.06089 12.0231 3.06503 12 3.06836L11.714 1.08892C11.4753 1.1234 11.2548 1.21181 11.0871 1.2747L11.7893 3.14736ZM12.286 1.08892C12.0963 1.06151 11.9037 1.06151 11.714 1.08892L12 3.06836H12L12.286 1.08892ZM21 7.21796C21 6.50029 21.0158 5.87631 20.8039 5.31941L18.9346 6.03071C18.9842 6.16108 19 6.3366 19 7.21796H21ZM17.5725 5.15804C18.3977 5.4675 18.5565 5.5439 18.6612 5.63612L19.9835 4.13565C19.5365 3.74169 18.9467 3.53737 18.2747 3.28538L17.5725 5.15804ZM20.8039 5.31941C20.6306 4.86407 20.349 4.45778 19.9835 4.13565L18.6612 5.63612C18.783 5.7435 18.8769 5.87893 18.9346 6.03071L20.8039 5.31941ZM12.1941 20.7515C12.1369 20.7849 12.0956 20.8089 12.0597 20.8291C12.0246 20.8489 12.0041 20.8596 11.9914 20.8657C11.9801 20.8712 11.9791 20.8712 11.9845 20.8692C11.9908 20.867 11.9969 20.8654 12 20.8647L12.4194 22.8202C12.7605 22.7471 13.0121 22.5897 13.2019 22.479L12.1941 20.7515ZM10.7981 22.479C10.9879 22.5897 11.2395 22.7471 11.5806 22.8202L12 20.8647C12.0031 20.8654 12.0092 20.867 12.0155 20.8692C12.0209 20.8712 12.0199 20.8712 12.0086 20.8657C11.9959 20.8596 11.9754 20.8489 11.9403 20.8291C11.9044 20.8089 11.8631 20.7849 11.8059 20.7515L10.7981 22.479ZM12 20.8647C12.0089 20.8628 12.0148 20.8619 12.0172 20.8615C12.0198 20.8611 12.0204 20.8611 12.019 20.8613C12.0157 20.8616 12.0089 20.862 12 20.862C11.9911 20.862 11.9843 20.8616 11.981 20.8613C11.9796 20.8611 11.9802 20.8611 11.9828 20.8615C11.9852 20.8619 11.9911 20.8628 12 20.8647L11.5806 22.8202C11.8401 22.8759 12.1599 22.8759 12.4194 22.8202L12 20.8647Z" fill="#171717"/>
</svg>
