<svg width="24" height="24" viewBox="0 0 24 24" fill="none" xmlns="http://www.w3.org/2000/svg">
<path d="M3.59237 10.352L2.59674 10.2586L3.59237 10.352ZM4.15403 7.46616L3.29462 6.95488H3.29462L4.15403 7.46616ZM8.37142 6V5V6ZM5.44579 6.28984L5.87462 7.19323L5.44579 6.28984ZM4.35839 21.6338L3.87959 22.5117L4.35839 21.6338ZM2.99237 16.752L3.98801 16.8453L2.99237 16.752ZM3.03842 20.1843L2.11963 20.579L3.03842 20.1843ZM21.0084 16.752L22.004 16.6586L21.0084 16.752ZM20.9623 20.1843L21.8811 20.579L20.9623 20.1843ZM19.6423 21.6338L20.1211 22.5117L19.6423 21.6338ZM20.4084 10.352L19.4127 10.4453L20.4084 10.352ZM19.8467 7.46616L20.7061 6.95488L19.8467 7.46616ZM15.6293 6V7V6ZM18.555 6.28984L18.9838 5.38646L18.555 6.28984ZM15.0004 9C15.0004 9.55228 15.4481 10 16.0004 10C16.5527 10 17.0004 9.55228 17.0004 9H15.0004ZM7.00037 9C7.00037 9.55228 7.44808 10 8.00037 10C8.55265 10 9.00037 9.55228 9.00037 9H7.00037ZM19.4127 10.4453L20.0127 16.8453L22.004 16.6586L21.404 10.2586L19.4127 10.4453ZM16.2293 21H7.77142V23H16.2293V21ZM3.98801 16.8453L4.58801 10.4453L2.59674 10.2586L1.99674 16.6586L3.98801 16.8453ZM8.37142 7L15.6293 7V5L8.37142 5V7ZM4.58801 10.4453C4.6615 9.66138 4.71196 9.13073 4.78293 8.72153C4.85178 8.32448 4.92817 8.12078 5.01344 7.97744L3.29462 6.95488C3.03432 7.39242 2.90191 7.86331 2.81234 8.37979C2.72488 8.88411 2.6673 9.50593 2.59674 10.2586L4.58801 10.4453ZM8.37142 5C7.61543 5 6.99094 4.99929 6.48066 5.03929C5.95807 5.08026 5.47688 5.16814 5.01696 5.38646L5.87462 7.19323C6.02529 7.1217 6.23523 7.06467 6.63697 7.03317C7.05101 7.00071 7.58405 7 8.37142 7V5ZM5.01344 7.97744C5.21634 7.63639 5.51611 7.36341 5.87462 7.19323L5.01696 5.38646C4.29995 5.72681 3.70041 6.27278 3.29462 6.95488L5.01344 7.97744ZM7.77142 21C6.84032 21 6.20454 20.9992 5.71567 20.9578C5.23738 20.9173 4.99852 20.8438 4.83718 20.7559L3.87959 22.5117C4.38976 22.7899 4.94358 22.8996 5.547 22.9507C6.13985 23.0008 6.87484 23 7.77142 23V21ZM1.99674 16.6586C1.91305 17.5513 1.84361 18.283 1.83823 18.8779C1.83276 19.4835 1.89024 20.0451 2.11963 20.579L3.9572 19.7895C3.88466 19.6207 3.83381 19.376 3.83815 18.896C3.84259 18.4054 3.9011 17.7723 3.98801 16.8453L1.99674 16.6586ZM4.83718 20.7559C4.44392 20.5414 4.13404 20.2011 3.9572 19.7895L2.11963 20.579C2.4733 21.4022 3.09306 22.0828 3.87959 22.5117L4.83718 20.7559ZM20.0127 16.8453C20.0996 17.7723 20.1581 18.4054 20.1626 18.896C20.1669 19.376 20.1161 19.6207 20.0435 19.7895L21.8811 20.579C22.1105 20.0451 22.168 19.4835 22.1625 18.8779C22.1571 18.283 22.0877 17.5513 22.004 16.6586L20.0127 16.8453ZM16.2293 23C17.1259 23 17.8609 23.0008 18.4537 22.9507C19.0572 22.8996 19.611 22.7899 20.1211 22.5117L19.1636 20.7559C19.0022 20.8438 18.7634 20.9173 18.2851 20.9578C17.7962 20.9992 17.1604 21 16.2293 21V23ZM20.0435 19.7895C19.8667 20.2011 19.5568 20.5414 19.1636 20.7559L20.1211 22.5117C20.9077 22.0828 21.5274 21.4022 21.8811 20.579L20.0435 19.7895ZM21.404 10.2586C21.3334 9.50594 21.2759 8.88411 21.1884 8.37979C21.0988 7.86331 20.9664 7.39242 20.7061 6.95488L18.9873 7.97744C19.0726 8.12078 19.149 8.32448 19.2178 8.72153C19.2888 9.13073 19.3392 9.66138 19.4127 10.4453L21.404 10.2586ZM15.6293 7C16.4167 7 16.9497 7.00072 17.3638 7.03317C17.7655 7.06467 17.9754 7.12171 18.1261 7.19323L18.9838 5.38646C18.5239 5.16814 18.0427 5.08026 17.5201 5.03929C17.0098 4.99929 16.3853 5 15.6293 5V7ZM20.7061 6.95488C20.3003 6.27278 19.7008 5.72681 18.9838 5.38646L18.1261 7.19323C18.4846 7.36341 18.7844 7.63639 18.9873 7.97744L20.7061 6.95488ZM15.0004 6V9H17.0004V6H15.0004ZM9.00037 9V6H7.00037V9H9.00037ZM9.00037 6C9.00037 4.34315 10.3435 3 12.0004 3V1C9.23895 1 7.00037 3.23858 7.00037 6H9.00037ZM17.0004 6C17.0004 3.23858 14.7618 1 12.0004 1V3C13.6572 3 15.0004 4.34315 15.0004 6H17.0004Z" fill="#171717"/>
</svg>
