<svg width="24" height="24" viewBox="0 0 24 24" fill="none" xmlns="http://www.w3.org/2000/svg">
<path d="M16.9497 7.05101C16.5592 6.66048 15.9261 6.66048 15.5355 7.05101C15.145 7.44153 15.145 8.0747 15.5355 8.46522L16.9497 7.05101ZM15.5355 15.5363C15.145 15.9268 15.145 16.56 15.5355 16.9505C15.9261 17.341 16.5592 17.341 16.9497 16.9505L15.5355 15.5363ZM7.05025 16.9505C7.44078 17.341 8.07394 17.341 8.46447 16.9505C8.85499 16.5599 8.85499 15.9268 8.46447 15.5363L7.05025 16.9505ZM8.46447 8.46519C8.85499 8.07466 8.85499 7.4415 8.46447 7.05097C8.07394 6.66045 7.44078 6.66045 7.05025 7.05097L8.46447 8.46519ZM4.22183 19.7789C4.61235 20.1695 5.24551 20.1695 5.63604 19.7789C6.02656 19.3884 6.02656 18.7552 5.63604 18.3647L4.22183 19.7789ZM5.63604 5.63679C6.02656 5.24627 6.02656 4.6131 5.63604 4.22258C5.24551 3.83206 4.61235 3.83206 4.22183 4.22258L5.63604 5.63679ZM19.7782 4.22263C19.3876 3.8321 18.7545 3.8321 18.364 4.22263C17.9734 4.61315 17.9734 5.24632 18.364 5.63684L19.7782 4.22263ZM18.364 18.3648C17.9734 18.7553 17.9734 19.3885 18.364 19.779C18.7545 20.1695 19.3876 20.1695 19.7782 19.779L18.364 18.3648ZM13 12.0008C13 12.553 12.5523 13.0008 12 13.0008V15.0008C13.6569 15.0008 15 13.6576 15 12.0008H13ZM12 13.0008C11.4477 13.0008 11 12.553 11 12.0008H9C9 13.6576 10.3431 15.0008 12 15.0008V13.0008ZM11 12.0008C11 11.4485 11.4477 11.0008 12 11.0008V9.00076C10.3431 9.00076 9 10.3439 9 12.0008H11ZM12 11.0008C12.5523 11.0008 13 11.4485 13 12.0008H15C15 10.3439 13.6569 9.00076 12 9.00076V11.0008ZM15.5355 8.46522C17.4882 10.4178 17.4882 13.5837 15.5355 15.5363L16.9497 16.9505C19.6834 14.2168 19.6834 9.78468 16.9497 7.05101L15.5355 8.46522ZM8.46447 15.5363C6.51184 13.5836 6.51184 10.4178 8.46447 8.46519L7.05025 7.05097C4.31658 9.78464 4.31658 14.2168 7.05025 16.9505L8.46447 15.5363ZM5.63604 18.3647C2.12132 14.85 2.12132 9.15151 5.63604 5.63679L4.22183 4.22258C-0.0739417 8.51835 -0.0739417 15.4832 4.22183 19.7789L5.63604 18.3647ZM18.364 5.63684C21.8787 9.15156 21.8787 14.85 18.364 18.3648L19.7782 19.779C24.0739 15.4832 24.0739 8.51839 19.7782 4.22263L18.364 5.63684Z" fill="#171717"/>
</svg>
