<svg width="24" height="24" viewBox="0 0 24 24" fill="none" xmlns="http://www.w3.org/2000/svg">
<path d="M4 21C4 21.5523 4.44772 22 5 22C5.55228 22 6 21.5523 6 21H4ZM4 7C4 7.55228 4.44772 8 5 8C5.55228 8 6 7.55228 6 7H4ZM6 3C6 2.44772 5.55228 2 5 2C4.44772 2 4 2.44772 4 3H6ZM11 21C11 21.5523 11.4477 22 12 22C12.5523 22 13 21.5523 13 21H11ZM13 15C13 14.4477 12.5523 14 12 14C11.4477 14 11 14.4477 11 15H13ZM13 3C13 2.44772 12.5523 2 12 2C11.4477 2 11 2.44772 11 3H13ZM18 21C18 21.5523 18.4477 22 19 22C19.5523 22 20 21.5523 20 21H18ZM18 9C18 9.55228 18.4477 10 19 10C19.5523 10 20 9.55228 20 9H18ZM20 3C20 2.44772 19.5523 2 19 2C18.4477 2 18 2.44772 18 3H20ZM6 21L6 15H4L4 21H6ZM6 7V3H4V7H6ZM13 21V15H11V21H13ZM13 7V3H11V7H13ZM20 21V17H18V21H20ZM20 9V3H18V9H20ZM13 9C13 9.55228 12.5523 10 12 10V12C13.6569 12 15 10.6569 15 9H13ZM12 10C11.4477 10 11 9.55228 11 9H9C9 10.6569 10.3431 12 12 12V10ZM11 9C11 8.44772 11.4477 8 12 8V6C10.3431 6 9 7.34315 9 9H11ZM12 8C12.5523 8 13 8.44772 13 9H15C15 7.34315 13.6569 6 12 6V8ZM20 15C20 15.5523 19.5523 16 19 16V18C20.6569 18 22 16.6569 22 15H20ZM19 16C18.4477 16 18 15.5523 18 15H16C16 16.6569 17.3431 18 19 18V16ZM18 15C18 14.4477 18.4477 14 19 14V12C17.3431 12 16 13.3431 16 15H18ZM19 14C19.5523 14 20 14.4477 20 15H22C22 13.3431 20.6569 12 19 12V14ZM6 13C6 13.5523 5.55228 14 5 14V16C6.65685 16 8 14.6569 8 13H6ZM5 14C4.44772 14 4 13.5523 4 13H2C2 14.6569 3.34315 16 5 16V14ZM4 13C4 12.4477 4.44772 12 5 12V10C3.34315 10 2 11.3431 2 13H4ZM5 12C5.55228 12 6 12.4477 6 13H8C8 11.3431 6.65685 10 5 10V12Z" fill="#171717"/>
</svg>
