<svg width="24" height="24" viewBox="0 0 24 24" fill="none" xmlns="http://www.w3.org/2000/svg">
<path d="M18.47 2.53026L19.1771 3.23736C19.4092 3.00521 19.5126 2.67388 19.4538 2.35089C19.3949 2.0279 19.1812 1.75439 18.882 1.6191L18.47 2.53026ZM21.47 5.53026L22.3811 5.1182C22.2458 4.81905 21.9723 4.60536 21.6493 4.54647C21.3263 4.48759 20.995 4.59099 20.7629 4.82315L21.47 5.53026ZM18.6316 8.36863L17.9245 7.66152L18.6316 8.36863ZM17.8092 9.03684L17.5002 8.08579L17.8092 9.03684ZM16.3689 8.36863L15.6617 9.07573L16.3689 8.36863ZM17.1912 9.03684L16.8822 9.9879L17.1912 9.03684ZM13.2951 13.7714L13.7552 14.6592L13.2951 13.7714ZM14.5751 13.8297L14.8118 12.8582L14.5751 13.8297ZM13.6869 13.6616L13.6186 12.6639L13.6869 13.6616ZM3.50023 17.5L2.79312 16.7929H2.79312L3.50023 17.5ZM3.50023 20.5L2.79312 21.2071L3.50023 20.5ZM10.1705 9.42509L11.1421 9.1884L10.1705 9.42509ZM10.3387 10.3133L11.3363 10.3816L10.3387 10.3133ZM9.74804 11.2522L10.4552 11.9593L9.74804 11.2522ZM10.2289 10.7051L9.34099 10.245L10.2289 10.7051ZM6.50023 20.5L5.79312 19.7929L6.50023 20.5ZM15.6316 5.36863L14.9245 4.66152L15.6316 5.36863ZM14.9634 6.19098L14.0123 5.88197L14.9634 6.19098ZM15.6316 7.63137L16.3387 6.92426L15.6316 7.63137ZM14.9634 6.80902L15.9144 6.5L14.9634 6.80902ZM17.7629 1.82315L14.9245 4.66152L16.3387 6.07574L19.1771 3.23736L17.7629 1.82315ZM16.0002 3C16.7357 3 17.4316 3.15818 18.0579 3.44141L18.882 1.6191C18.0019 1.22107 17.0255 1 16.0002 1V3ZM11.0002 8C11.0002 5.23858 13.2388 3 16.0002 3V1C12.1342 1 9.00023 4.13401 9.00023 8H11.0002ZM11.1421 9.1884C11.0495 8.8085 11.0002 8.41068 11.0002 8H9.00023C9.00023 8.57139 9.0689 9.1281 9.1989 9.66177L11.1421 9.1884ZM4.20733 18.2071L10.4552 11.9593L9.04094 10.5451L2.79312 16.7929L4.20733 18.2071ZM12.0409 13.5451L5.79312 19.7929L7.20733 21.2071L13.4552 14.9593L12.0409 13.5451ZM16.0002 13C15.5895 13 15.1917 12.9507 14.8118 12.8582L14.3385 14.8013C14.8721 14.9313 15.4288 15 16.0002 15V13ZM21.0002 8C21.0002 10.7614 18.7617 13 16.0002 13V15C19.8662 15 23.0002 11.866 23.0002 8H21.0002ZM20.5588 5.94232C20.8421 6.56862 21.0002 7.26449 21.0002 8H23.0002C23.0002 6.9747 22.7792 5.99833 22.3811 5.1182L20.5588 5.94232ZM19.3387 9.07574L22.1771 6.23736L20.7629 4.82315L17.9245 7.66152L19.3387 9.07574ZM14.9245 8.33848L15.6617 9.07573L17.076 7.66152L16.3387 6.92426L14.9245 8.33848ZM17.9245 7.66152C17.7148 7.8712 17.5995 7.98538 17.5104 8.06108C17.4301 8.1292 17.4388 8.10573 17.5002 8.08579L18.1183 9.9879C18.408 9.89376 18.6299 9.73419 18.8047 9.58576C18.9706 9.44491 19.1524 9.26208 19.3387 9.07574L17.9245 7.66152ZM15.6617 9.07573C15.8481 9.26208 16.0298 9.44491 16.1957 9.58576C16.3706 9.73419 16.5925 9.89376 16.8822 9.9879L17.5002 8.08579C17.5616 8.10573 17.5703 8.1292 17.4901 8.06108C17.4009 7.98538 17.2856 7.8712 17.076 7.66152L15.6617 9.07573ZM17.5002 8.08579H17.5002L16.8822 9.9879C17.2839 10.1184 17.7166 10.1184 18.1183 9.9879L17.5002 8.08579ZM13.4552 14.9593C13.599 14.8155 13.6805 14.7344 13.7426 14.6783C13.8022 14.6245 13.7971 14.6375 13.7552 14.6592L12.835 12.8835C12.5243 13.0445 12.2562 13.3298 12.0409 13.5451L13.4552 14.9593ZM14.8118 12.8582C14.5757 12.8006 14.3689 12.75 14.2026 12.7166C14.0491 12.6858 13.838 12.6489 13.6186 12.6639L13.7552 14.6592C13.6904 14.6637 13.6787 14.6513 13.8084 14.6774C13.9254 14.7009 14.0854 14.7397 14.3385 14.8013L14.8118 12.8582ZM13.7552 14.6592C13.7753 14.6488 13.7822 14.646 13.7808 14.6466C13.7798 14.647 13.7767 14.6483 13.7717 14.65C13.7667 14.6518 13.7608 14.6537 13.7542 14.6556C13.7476 14.6574 13.7415 14.6589 13.7363 14.66C13.7312 14.661 13.7278 14.6616 13.7267 14.6617C13.7252 14.662 13.7326 14.6608 13.7552 14.6592L13.6186 12.6639C13.3201 12.6843 13.1007 12.7458 12.835 12.8835L13.7552 14.6592ZM2.79312 16.7929C1.57417 18.0118 1.57417 19.9882 2.79312 21.2071L4.20733 19.7929C3.76943 19.355 3.76943 18.645 4.20733 18.2071L2.79312 16.7929ZM9.1989 9.66177C9.26055 9.91484 9.29933 10.0749 9.32284 10.1918C9.34891 10.3215 9.33655 10.3099 9.34099 10.245L11.3363 10.3816C11.3513 10.1623 11.3145 9.9511 11.2836 9.7976C11.2502 9.63134 11.1996 9.42449 11.1421 9.1884L9.1989 9.66177ZM10.4552 11.9593C10.6704 11.744 10.9557 11.4759 11.1167 11.1652L9.34099 10.245C9.36271 10.2031 9.37574 10.1981 9.32196 10.2576C9.26585 10.3197 9.18475 10.4013 9.04094 10.5451L10.4552 11.9593ZM9.34099 10.245C9.33944 10.2676 9.33826 10.275 9.33848 10.2735C9.33865 10.2724 9.33919 10.269 9.34027 10.2639C9.34136 10.2587 9.34282 10.2527 9.34467 10.2461C9.34652 10.2395 9.34843 10.2335 9.35019 10.2285C9.35193 10.2236 9.35322 10.2204 9.35364 10.2194C9.35422 10.218 9.3514 10.2249 9.34099 10.245L11.1167 11.1652C11.2544 10.8995 11.3159 10.6801 11.3363 10.3816L9.34099 10.245ZM2.79312 21.2071C4.01207 22.4261 5.98838 22.4261 7.20733 21.2071L5.79312 19.7929C5.35522 20.2308 4.64524 20.2308 4.20733 19.7929L2.79312 21.2071ZM14.9245 4.66152C14.7382 4.84786 14.5553 5.02959 14.4145 5.19551C14.266 5.37036 14.1065 5.59225 14.0123 5.88197L15.9144 6.5C15.8945 6.56139 15.871 6.57011 15.9391 6.48987C16.0148 6.40069 16.129 6.28541 16.3387 6.07574L14.9245 4.66152ZM16.3387 6.92426C16.129 6.71459 16.0148 6.59931 15.9391 6.51013C15.871 6.42989 15.8945 6.43861 15.9144 6.5L14.0123 7.11803C14.1065 7.40775 14.266 7.62964 14.4145 7.80449C14.5553 7.9704 14.7382 8.15214 14.9245 8.33848L16.3387 6.92426ZM14.0123 5.88197C13.8818 6.28365 13.8818 6.71635 14.0123 7.11803L15.9144 6.5L14.0123 5.88197Z" fill="#171717"/>
</svg>
