<svg width="24" height="24" viewBox="0 0 24 24" fill="none" xmlns="http://www.w3.org/2000/svg">
<path d="M20 7C20 6.44772 19.5523 6 19 6C18.4477 6 18 6.44772 18 7H20ZM18 17C18 17.5523 18.4477 18 19 18C19.5523 18 20 17.5523 20 17H18ZM6 7C6 6.44772 5.55228 6 5 6C4.44772 6 4 6.44772 4 7H6ZM4 17C4 17.5523 4.44772 18 5 18C5.55228 18 6 17.5523 6 17H4ZM17 6C17.5523 6 18 5.55229 18 5C18 4.44772 17.5523 4 17 4V6ZM7 4C6.44772 4 6 4.44772 6 5C6 5.55228 6.44772 6 7 6V4ZM17 20C17.5523 20 18 19.5523 18 19C18 18.4477 17.5523 18 17 18V20ZM7 18C6.44772 18 6 18.4477 6 19C6 19.5523 6.44772 20 7 20V18ZM3.54601 6.89101L4 6L3.54601 6.89101ZM3.10899 6.45399L4 6L3.10899 6.45399ZM6.89101 6.45399L6 6L6.89101 6.45399ZM6.45399 6.89101L6 6L6.45399 6.89101ZM6.45399 3.10899L6 4L6.45399 3.10899ZM6.89101 3.54601L6 4L6.89101 3.54601ZM3.54601 3.10899L4 4L3.54601 3.10899ZM3.10899 3.54601L4 4L3.10899 3.54601ZM3.54601 20.891L4 20L3.54601 20.891ZM3.10899 20.454L4 20L3.10899 20.454ZM6.89101 20.454L6 20L6.89101 20.454ZM6.45399 20.891L6 20L6.45399 20.891ZM6.45399 17.109L6 18L6.45399 17.109ZM6.89101 17.546L6 18L6.89101 17.546ZM3.54601 17.109L4 18L3.54601 17.109ZM3.10899 17.546L4 18L3.10899 17.546ZM17.546 6.89101L18 6L17.546 6.89101ZM17.109 6.45399L18 6L17.109 6.45399ZM20.891 6.45399L20 6L20.891 6.45399ZM20.454 6.89101L20 6L20.454 6.89101ZM20.454 3.10899L20 4L20.454 3.10899ZM20.891 3.54601L20 4L20.891 3.54601ZM17.546 3.10899L18 4L17.546 3.10899ZM17.109 3.54601L18 4L17.109 3.54601ZM17.546 20.891L18 20L17.546 20.891ZM17.109 20.454L18 20L17.109 20.454ZM20.891 20.454L20 20L20.891 20.454ZM20.454 20.891L20 20L20.454 20.891ZM20.454 17.109L20 18L20.454 17.109ZM20.891 17.546L20 18L20.891 17.546ZM17.546 17.109L18 18L17.546 17.109ZM17.109 17.546L18 18L17.109 17.546ZM18 7V17H20V7H18ZM4 7V17H6V7H4ZM17 4L7 4V6L17 6V4ZM17 18H7V20H17V18ZM4.6 4H5.4V2H4.6V4ZM6 4.6V5.4H8V4.6H6ZM5.4 6H4.6V8H5.4V6ZM4 5.4V4.6H2V5.4H4ZM4.6 6C4.30347 6 4.14122 5.99922 4.02463 5.9897C3.91972 5.98113 3.94249 5.9707 4 6L3.09202 7.78201C3.36344 7.92031 3.63318 7.96438 3.86177 7.98305C4.07869 8.00078 4.33647 8 4.6 8V6ZM2 5.4C2 5.66353 1.99922 5.92131 2.01695 6.13823C2.03562 6.36682 2.07969 6.63656 2.21799 6.90798L4 6C4.0293 6.05751 4.01887 6.08028 4.0103 5.97537C4.00078 5.85878 4 5.69653 4 5.4H2ZM4 6L2.21799 6.90798C2.40973 7.28431 2.71569 7.59027 3.09202 7.78201L4 6ZM6 5.4C6 5.69653 5.99922 5.85878 5.9897 5.97537C5.98113 6.08028 5.9707 6.05751 6 6L7.78201 6.90798C7.92031 6.63656 7.96438 6.36682 7.98305 6.13823C8.00078 5.92131 8 5.66353 8 5.4H6ZM5.4 8C5.66353 8 5.92131 8.00078 6.13823 7.98305C6.36682 7.96438 6.63656 7.92031 6.90798 7.78201L6 6C6.05751 5.9707 6.08028 5.98113 5.97537 5.9897C5.85878 5.99922 5.69653 6 5.4 6V8ZM6 6L6.90798 7.78201C7.28431 7.59027 7.59027 7.28431 7.78201 6.90798L6 6ZM5.4 4C5.69653 4 5.85878 4.00078 5.97537 4.0103C6.08028 4.01887 6.05751 4.0293 6 4L6.90798 2.21799C6.63656 2.07969 6.36682 2.03562 6.13823 2.01695C5.92131 1.99922 5.66353 2 5.4 2V4ZM8 4.6C8 4.33647 8.00078 4.07869 7.98305 3.86177C7.96438 3.63318 7.92031 3.36344 7.78201 3.09202L6 4C5.9707 3.94249 5.98113 3.91972 5.9897 4.02463C5.99922 4.14122 6 4.30347 6 4.6H8ZM6 4L7.78201 3.09202C7.59027 2.71569 7.28431 2.40973 6.90798 2.21799L6 4ZM4.6 2C4.33647 2 4.07869 1.99922 3.86177 2.01695C3.63318 2.03562 3.36344 2.07969 3.09202 2.21799L4 4C3.94249 4.0293 3.91972 4.01887 4.02463 4.0103C4.14122 4.00078 4.30347 4 4.6 4V2ZM4 4.6C4 4.30347 4.00078 4.14122 4.0103 4.02463C4.01887 3.91972 4.0293 3.94249 4 4L2.21799 3.09202C2.07969 3.36344 2.03562 3.63318 2.01695 3.86177C1.99922 4.07869 2 4.33647 2 4.6H4ZM3.09202 2.21799C2.71569 2.40973 2.40973 2.71569 2.21799 3.09202L4 4L3.09202 2.21799ZM4.6 18H5.4V16H4.6V18ZM6 18.6V19.4H8V18.6H6ZM5.4 20H4.6V22H5.4V20ZM4 19.4V18.6H2V19.4H4ZM4.6 20C4.30347 20 4.14122 19.9992 4.02463 19.9897C3.91972 19.9811 3.94249 19.9707 4 20L3.09202 21.782C3.36344 21.9203 3.63318 21.9644 3.86177 21.9831C4.07869 22.0008 4.33647 22 4.6 22V20ZM2 19.4C2 19.6635 1.99922 19.9213 2.01695 20.1382C2.03562 20.3668 2.07969 20.6366 2.21799 20.908L4 20C4.0293 20.0575 4.01887 20.0803 4.0103 19.9754C4.00078 19.8588 4 19.6965 4 19.4H2ZM4 20L2.21799 20.908C2.40973 21.2843 2.7157 21.5903 3.09202 21.782L4 20ZM6 19.4C6 19.6965 5.99922 19.8588 5.9897 19.9754C5.98113 20.0803 5.9707 20.0575 6 20L7.78201 20.908C7.92031 20.6366 7.96438 20.3668 7.98305 20.1382C8.00078 19.9213 8 19.6635 8 19.4H6ZM5.4 22C5.66353 22 5.92131 22.0008 6.13823 21.9831C6.36682 21.9644 6.63656 21.9203 6.90798 21.782L6 20C6.05751 19.9707 6.08028 19.9811 5.97537 19.9897C5.85878 19.9992 5.69653 20 5.4 20V22ZM6 20L6.90798 21.782C7.2843 21.5903 7.59027 21.2843 7.78201 20.908L6 20ZM5.4 18C5.69653 18 5.85878 18.0008 5.97537 18.0103C6.08028 18.0189 6.05751 18.0293 6 18L6.90798 16.218C6.63656 16.0797 6.36682 16.0356 6.13823 16.0169C5.92131 15.9992 5.66353 16 5.4 16V18ZM8 18.6C8 18.3365 8.00078 18.0787 7.98305 17.8618C7.96438 17.6332 7.92031 17.3634 7.78201 17.092L6 18C5.9707 17.9425 5.98113 17.9197 5.9897 18.0246C5.99922 18.1412 6 18.3035 6 18.6H8ZM6 18L7.78201 17.092C7.59027 16.7157 7.2843 16.4097 6.90798 16.218L6 18ZM4.6 16C4.33647 16 4.07869 15.9992 3.86177 16.0169C3.63318 16.0356 3.36344 16.0797 3.09202 16.218L4 18C3.94249 18.0293 3.91972 18.0189 4.02463 18.0103C4.14122 18.0008 4.30347 18 4.6 18V16ZM4 18.6C4 18.3035 4.00078 18.1412 4.0103 18.0246C4.01887 17.9197 4.0293 17.9425 4 18L2.21799 17.092C2.07969 17.3634 2.03562 17.6332 2.01695 17.8618C1.99922 18.0787 2 18.3365 2 18.6H4ZM3.09202 16.218C2.7157 16.4097 2.40973 16.7157 2.21799 17.092L4 18L3.09202 16.218ZM18.6 4H19.4V2H18.6V4ZM20 4.6V5.4H22V4.6H20ZM19.4 6H18.6V8H19.4V6ZM18 5.4V4.6H16V5.4H18ZM18.6 6C18.3035 6 18.1412 5.99922 18.0246 5.9897C17.9197 5.98113 17.9425 5.9707 18 6L17.092 7.78201C17.3634 7.92031 17.6332 7.96438 17.8618 7.98305C18.0787 8.00078 18.3365 8 18.6 8V6ZM16 5.4C16 5.66353 15.9992 5.92131 16.0169 6.13823C16.0356 6.36682 16.0797 6.63656 16.218 6.90798L18 6C18.0293 6.05751 18.0189 6.08028 18.0103 5.97537C18.0008 5.85878 18 5.69653 18 5.4H16ZM18 6L16.218 6.90798C16.4097 7.2843 16.7157 7.59027 17.092 7.78201L18 6ZM20 5.4C20 5.69653 19.9992 5.85878 19.9897 5.97537C19.9811 6.08028 19.9707 6.05751 20 6L21.782 6.90798C21.9203 6.63656 21.9644 6.36682 21.9831 6.13823C22.0008 5.92131 22 5.66353 22 5.4H20ZM19.4 8C19.6635 8 19.9213 8.00078 20.1382 7.98305C20.3668 7.96438 20.6366 7.92031 20.908 7.78201L20 6C20.0575 5.9707 20.0803 5.98113 19.9754 5.9897C19.8588 5.99922 19.6965 6 19.4 6V8ZM20 6L20.908 7.78201C21.2843 7.59027 21.5903 7.2843 21.782 6.90798L20 6ZM19.4 4C19.6965 4 19.8588 4.00078 19.9754 4.0103C20.0803 4.01887 20.0575 4.0293 20 4L20.908 2.21799C20.6366 2.07969 20.3668 2.03562 20.1382 2.01695C19.9213 1.99922 19.6635 2 19.4 2V4ZM22 4.6C22 4.33647 22.0008 4.07869 21.9831 3.86177C21.9644 3.63318 21.9203 3.36344 21.782 3.09202L20 4C19.9707 3.94249 19.9811 3.91972 19.9897 4.02463C19.9992 4.14122 20 4.30347 20 4.6H22ZM20 4L21.782 3.09202C21.5903 2.7157 21.2843 2.40973 20.908 2.21799L20 4ZM18.6 2C18.3365 2 18.0787 1.99922 17.8618 2.01695C17.6332 2.03562 17.3634 2.07969 17.092 2.21799L18 4C17.9425 4.0293 17.9197 4.01887 18.0246 4.0103C18.1412 4.00078 18.3035 4 18.6 4V2ZM18 4.6C18 4.30347 18.0008 4.14122 18.0103 4.02463C18.0189 3.91972 18.0293 3.94249 18 4L16.218 3.09202C16.0797 3.36344 16.0356 3.63318 16.0169 3.86177C15.9992 4.07869 16 4.33647 16 4.6H18ZM17.092 2.21799C16.7157 2.40973 16.4097 2.7157 16.218 3.09202L18 4L17.092 2.21799ZM18.6 18H19.4V16H18.6V18ZM20 18.6V19.4H22V18.6H20ZM19.4 20H18.6V22H19.4V20ZM18 19.4V18.6H16V19.4H18ZM18.6 20C18.3035 20 18.1412 19.9992 18.0246 19.9897C17.9197 19.9811 17.9425 19.9707 18 20L17.092 21.782C17.3634 21.9203 17.6332 21.9644 17.8618 21.9831C18.0787 22.0008 18.3365 22 18.6 22V20ZM16 19.4C16 19.6635 15.9992 19.9213 16.0169 20.1382C16.0356 20.3668 16.0797 20.6366 16.218 20.908L18 20C18.0293 20.0575 18.0189 20.0803 18.0103 19.9754C18.0008 19.8588 18 19.6965 18 19.4H16ZM18 20L16.218 20.908C16.4097 21.2843 16.7157 21.5903 17.092 21.782L18 20ZM20 19.4C20 19.6965 19.9992 19.8588 19.9897 19.9754C19.9811 20.0803 19.9707 20.0575 20 20L21.782 20.908C21.9203 20.6366 21.9644 20.3668 21.9831 20.1382C22.0008 19.9213 22 19.6635 22 19.4H20ZM19.4 22C19.6635 22 19.9213 22.0008 20.1382 21.9831C20.3668 21.9644 20.6366 21.9203 20.908 21.782L20 20C20.0575 19.9707 20.0803 19.9811 19.9754 19.9897C19.8588 19.9992 19.6965 20 19.4 20V22ZM20 20L20.908 21.782C21.2843 21.5903 21.5903 21.2843 21.782 20.908L20 20ZM19.4 18C19.6965 18 19.8588 18.0008 19.9754 18.0103C20.0803 18.0189 20.0575 18.0293 20 18L20.908 16.218C20.6366 16.0797 20.3668 16.0356 20.1382 16.0169C19.9213 15.9992 19.6635 16 19.4 16V18ZM22 18.6C22 18.3365 22.0008 18.0787 21.9831 17.8618C21.9644 17.6332 21.9203 17.3634 21.782 17.092L20 18C19.9707 17.9425 19.9811 17.9197 19.9897 18.0246C19.9992 18.1412 20 18.3035 20 18.6H22ZM20 18L21.782 17.092C21.5903 16.7157 21.2843 16.4097 20.908 16.218L20 18ZM18.6 16C18.3365 16 18.0787 15.9992 17.8618 16.0169C17.6332 16.0356 17.3634 16.0797 17.092 16.218L18 18C17.9425 18.0293 17.9197 18.0189 18.0246 18.0103C18.1412 18.0008 18.3035 18 18.6 18V16ZM18 18.6C18 18.3035 18.0008 18.1412 18.0103 18.0246C18.0189 17.9197 18.0293 17.9425 18 18L16.218 17.092C16.0797 17.3634 16.0356 17.6332 16.0169 17.8618C15.9992 18.0787 16 18.3365 16 18.6H18ZM17.092 16.218C16.7157 16.4097 16.4097 16.7157 16.218 17.092L18 18L17.092 16.218Z" fill="#171717"/>
</svg>
