<svg width="24" height="24" viewBox="0 0 24 24" fill="none" xmlns="http://www.w3.org/2000/svg">
<path d="M22 7H23C23 6.44772 22.5523 6 22 6V7ZM1.29289 16.2929C0.902369 16.6834 0.902369 17.3166 1.29289 17.7071C1.68342 18.0976 2.31658 18.0976 2.70711 17.7071L1.29289 16.2929ZM9.13137 12.1314L8.42426 12.8385V12.8385L9.13137 12.1314ZM8.30902 11.4632L8.61803 10.5121L8.30902 11.4632ZM7.69098 11.4632L7.38197 10.5121L7.69098 11.4632ZM13.309 15.5368L13.618 16.4879L13.309 15.5368ZM11.8686 14.8686L12.5757 14.1615V14.1615L11.8686 14.8686ZM12.691 15.5368L12.382 16.4879L12.691 15.5368ZM15 6C14.4477 6 14 6.44772 14 7C14 7.55228 14.4477 8 15 8V6ZM21 14C21 14.5523 21.4477 15 22 15C22.5523 15 23 14.5523 23 14H21ZM21.2929 6.29289L13.4243 14.1615L14.8385 15.5757L22.7071 7.70711L21.2929 6.29289ZM12.5757 14.1615L9.83848 11.4243L8.42426 12.8385L11.1615 15.5757L12.5757 14.1615ZM6.16152 11.4243L1.29289 16.2929L2.70711 17.7071L7.57574 12.8385L6.16152 11.4243ZM9.83848 11.4243C9.65214 11.2379 9.4704 11.0551 9.30449 10.9142C9.12964 10.7658 8.90775 10.6062 8.61803 10.5121L8 12.4142C7.93861 12.3943 7.92989 12.3708 8.01013 12.4389C8.09931 12.5146 8.21459 12.6288 8.42426 12.8385L9.83848 11.4243ZM7.57574 12.8385C7.78541 12.6288 7.90069 12.5146 7.98987 12.4389C8.07011 12.3708 8.06139 12.3943 8 12.4142L7.38197 10.5121C7.09225 10.6062 6.87036 10.7658 6.69551 10.9142C6.52959 11.0551 6.34786 11.2379 6.16152 11.4243L7.57574 12.8385ZM8.61803 10.5121C8.21635 10.3816 7.78365 10.3816 7.38197 10.5121L8 12.4142L8.61803 10.5121ZM13.4243 14.1615C13.2146 14.3712 13.0993 14.4854 13.0101 14.5611C12.9299 14.6292 12.9386 14.6057 13 14.5858L13.618 16.4879C13.9078 16.3938 14.1296 16.2342 14.3045 16.0858C14.4704 15.9449 14.6521 15.7621 14.8385 15.5757L13.4243 14.1615ZM11.1615 15.5757C11.3479 15.7621 11.5296 15.9449 11.6955 16.0858C11.8704 16.2342 12.0922 16.3938 12.382 16.4879L13 14.5858C13.0614 14.6057 13.0701 14.6292 12.9899 14.5611C12.9007 14.4854 12.7854 14.3712 12.5757 14.1615L11.1615 15.5757ZM13 14.5858L12.382 16.4879C12.7837 16.6184 13.2163 16.6184 13.618 16.4879L13 14.5858ZM15 8H22V6H15V8ZM21 7V14H23V7H21Z" fill="#171717"/>
</svg>
