<svg width="24" height="24" viewBox="0 0 24 24" fill="none" xmlns="http://www.w3.org/2000/svg">
<path d="M14 6C13.4477 6 13 6.44772 13 7C13 7.55228 13.4477 8 14 8V6ZM17.4686 7.46863L16.7615 8.17574L17.4686 7.46863ZM21.5314 11.5314L22.2385 10.8243V10.8243L21.5314 11.5314ZM15.5 18C16.0523 18 16.5 17.5523 16.5 17C16.5 16.4477 16.0523 16 15.5 16V18ZM16.8192 7.02763L16.5858 8L16.8192 7.02763ZM17.1083 7.14736L16.5858 8H16.5858L17.1083 7.14736ZM21.9239 16.3827L22.8478 16.7654V16.7654L21.9239 16.3827ZM20.5 16C19.9477 16 19.5 16.4477 19.5 17C19.5 17.5523 19.9477 18 20.5 18V16ZM21.3827 16.9239L21.7654 17.8478L21.3827 16.9239ZM21.9724 12.1808L22.9447 11.9473L22.9447 11.9473L21.9724 12.1808ZM21.8526 11.8917L22.7053 11.3692V11.3692L21.8526 11.8917ZM12.908 4.21799L12.454 5.10899L12.454 5.10899L12.908 4.21799ZM13.782 5.09202L12.891 5.54601V5.54601L13.782 5.09202ZM3.09202 4.21799L2.63803 3.32698L2.63803 3.32698L3.09202 4.21799ZM2.21799 5.09202L1.32698 4.63803L1.32698 4.63803L2.21799 5.09202ZM21 12.6627V15.5H23V12.6627H21ZM14 8H16.3373V6H14V8ZM16.7615 8.17574L20.8243 12.2385L22.2385 10.8243L18.1757 6.76152L16.7615 8.17574ZM15.5 16H14V18H15.5V16ZM16.3373 8C16.4683 8 16.5336 8.00024 16.5811 8.00241C16.6194 8.00416 16.6109 8.00602 16.5858 8L17.0527 6.05526C16.7957 5.99357 16.5343 6 16.3373 6V8ZM18.1757 6.76152C18.0364 6.62223 17.8561 6.43279 17.6308 6.29472L16.5858 8C16.5638 7.98652 16.559 7.97915 16.5874 8.005C16.6225 8.03704 16.6689 8.0831 16.7615 8.17574L18.1757 6.76152ZM16.5858 8H16.5858L17.6308 6.29472C17.4518 6.18506 17.2568 6.10425 17.0527 6.05526L16.5858 8ZM21 15.5C21 15.7467 20.9995 15.8816 20.9928 15.9791C20.9868 16.0676 20.9792 16.0503 21 16L22.8478 16.7654C22.9447 16.5313 22.9752 16.3056 22.9882 16.1152C23.0005 15.9338 23 15.7193 23 15.5H21ZM20.5 18C20.7193 18 20.9338 18.0005 21.1152 17.9882C21.3056 17.9752 21.5313 17.9447 21.7654 17.8478L21 16C21.0503 15.9792 21.0676 15.9868 20.9791 15.9928C20.8816 15.9995 20.7467 16 20.5 16V18ZM21 16L21.7654 17.8478C22.2554 17.6448 22.6448 17.2554 22.8478 16.7654L21 16ZM23 12.6627C23 12.4657 23.0064 12.2043 22.9447 11.9473L21 12.4142C20.994 12.3891 20.9958 12.3806 20.9976 12.4189C20.9998 12.4664 21 12.5317 21 12.6627H23ZM20.8243 12.2385C20.9169 12.3311 20.963 12.3775 20.995 12.4126C21.0209 12.441 21.0135 12.4362 21 12.4142L22.7053 11.3692C22.5672 11.1439 22.3778 10.9636 22.2385 10.8243L20.8243 12.2385ZM22.9447 11.9473C22.8957 11.7432 22.8149 11.5482 22.7053 11.3692L21 12.4142L21 12.4142L22.9447 11.9473ZM5.2 5H10.8V3H5.2V5ZM13 7.2V17H15V7.2H13ZM3 15V7.2H1V15H3ZM14 16H10V18H14V16ZM1 15C1 16.6569 2.34315 18 4 18V16C3.44772 16 3 15.5523 3 15H1ZM10.8 5C11.3766 5 11.7488 5.00078 12.0322 5.02393C12.3038 5.04612 12.4045 5.0838 12.454 5.10899L13.362 3.32698C12.9836 3.13419 12.5904 3.06287 12.195 3.03057C11.8114 2.99922 11.3436 3 10.8 3V5ZM15 7.2C15 6.65645 15.0008 6.18864 14.9694 5.80497C14.9371 5.40963 14.8658 5.01641 14.673 4.63803L12.891 5.54601C12.9162 5.59545 12.9539 5.69617 12.9761 5.96784C12.9992 6.25117 13 6.62345 13 7.2H15ZM12.454 5.10899C12.6422 5.20487 12.7951 5.35785 12.891 5.54601L14.673 4.63803C14.3854 4.07354 13.9265 3.6146 13.362 3.32698L12.454 5.10899ZM5.2 3C4.65645 3 4.18864 2.99922 3.80497 3.03057C3.40963 3.06287 3.01641 3.13419 2.63803 3.32698L3.54601 5.10899C3.59545 5.0838 3.69617 5.04612 3.96784 5.02393C4.25117 5.00078 4.62345 5 5.2 5V3ZM3 7.2C3 6.62345 3.00078 6.25117 3.02393 5.96784C3.04612 5.69617 3.0838 5.59545 3.10899 5.54601L1.32698 4.63803C1.13419 5.01641 1.06287 5.40963 1.03057 5.80497C0.999222 6.18864 1 6.65645 1 7.2H3ZM2.63803 3.32698C2.07354 3.6146 1.6146 4.07354 1.32698 4.63803L3.10899 5.54601C3.20487 5.35785 3.35785 5.20487 3.54601 5.10899L2.63803 3.32698ZM9 17C9 18.1046 8.10457 19 7 19V21C9.20914 21 11 19.2091 11 17H9ZM7 19C5.89543 19 5 18.1046 5 17H3C3 19.2091 4.79086 21 7 21V19ZM5 17C5 15.8954 5.89543 15 7 15V13C4.79086 13 3 14.7909 3 17H5ZM7 15C8.10457 15 9 15.8954 9 17H11C11 14.7909 9.20914 13 7 13V15ZM19.5 17.5C19.5 18.3284 18.8284 19 18 19V21C19.933 21 21.5 19.433 21.5 17.5H19.5ZM18 19C17.1716 19 16.5 18.3284 16.5 17.5H14.5C14.5 19.433 16.067 21 18 21V19ZM16.5 17.5C16.5 16.6716 17.1716 16 18 16V14C16.067 14 14.5 15.567 14.5 17.5H16.5ZM18 16C18.8284 16 19.5 16.6716 19.5 17.5H21.5C21.5 15.567 19.933 14 18 14V16Z" fill="#171717"/>
</svg>
