<svg width="24" height="24" viewBox="0 0 24 24" fill="none" xmlns="http://www.w3.org/2000/svg">
<path d="M17 12L16.2929 11.2929C16.1054 11.4804 16 11.7348 16 12C16 12.2652 16.1054 12.5196 16.2929 12.7071L17 12ZM21.4608 16.2914L21.5392 15.2944L21.4608 16.2914ZM21.8802 16.1176L21.1198 15.4682L21.8802 16.1176ZM20.6343 8.36569L21.3414 9.07279V9.07279L20.6343 8.36569ZM21.4608 7.70865L21.5392 8.70557L21.4608 7.70865ZM21.8802 7.88238L21.1198 8.53183L21.8802 7.88238ZM3.63803 18.673L3.18404 19.564L3.63803 18.673ZM2.32698 17.362L1.43597 17.816L2.32698 17.362ZM16.673 17.362L17.564 17.816L16.673 17.362ZM15.362 18.673L15.816 19.564L15.362 18.673ZM15.362 5.32698L15.816 4.43597L15.362 5.32698ZM16.673 6.63803L17.564 6.18404L16.673 6.63803ZM3.63803 5.32698L3.18404 4.43597L3.63803 5.32698ZM2.32698 6.63803L1.43597 6.18404L2.32698 6.63803ZM19.9272 7.65858L16.2929 11.2929L17.7071 12.7071L21.3414 9.07279L19.9272 7.65858ZM16.2929 12.7071L19.9272 16.3414L21.3414 14.9272L17.7071 11.2929L16.2929 12.7071ZM23 15.0686V8.93137H21V15.0686H23ZM19.9272 16.3414C20.1274 16.5416 20.325 16.7406 20.4973 16.8848C20.6442 17.0078 20.9537 17.2545 21.3823 17.2883L21.5392 15.2944C21.6736 15.305 21.7634 15.3486 21.7944 15.3656C21.8222 15.3808 21.8212 15.3848 21.7812 15.3513C21.7434 15.3197 21.6907 15.2716 21.6139 15.1972C21.5377 15.1235 21.4502 15.036 21.3414 14.9272L19.9272 16.3414ZM21 15.0686C21 15.2225 21 15.3462 20.9983 15.4522C20.9965 15.5591 20.9933 15.6304 20.9889 15.6794C20.9843 15.7314 20.9808 15.7294 20.9897 15.699C20.9996 15.665 21.0322 15.5707 21.1198 15.4682L22.6406 16.7671C22.9198 16.4401 22.9642 16.0469 22.9811 15.856C23.001 15.6322 23 15.3518 23 15.0686H21ZM21.3823 17.2883C21.861 17.3259 22.3288 17.1322 22.6406 16.7671L21.1198 15.4682C21.2237 15.3465 21.3797 15.2819 21.5392 15.2944L21.3823 17.2883ZM21.3414 9.07279C21.4502 8.96399 21.5377 8.87654 21.6139 8.80278C21.6907 8.7284 21.7434 8.68033 21.7812 8.64871C21.8212 8.61522 21.8222 8.61917 21.7944 8.63437C21.7634 8.65136 21.6736 8.69499 21.5392 8.70557L21.3823 6.71173C20.9537 6.74547 20.6442 6.99217 20.4973 7.11519C20.325 7.25941 20.1274 7.45838 19.9272 7.65858L21.3414 9.07279ZM23 8.93137C23 8.64825 23.001 8.36781 22.9811 8.14403C22.9642 7.95314 22.9198 7.55988 22.6406 7.23293L21.1198 8.53183C21.0322 8.42932 20.9996 8.33498 20.9897 8.30103C20.9808 8.27065 20.9843 8.26858 20.9889 8.32056C20.9933 8.36962 20.9965 8.44086 20.9983 8.54778C21 8.6538 21 8.7775 21 8.93137H23ZM21.5392 8.70557C21.3797 8.71812 21.2237 8.65354 21.1198 8.53183L22.6406 7.23293C22.3288 6.86782 21.861 6.67406 21.3823 6.71173L21.5392 8.70557ZM6.8 6H12.2V4H6.8V6ZM16 9.8V14.2H18V9.8H16ZM12.2 18H6.8V20H12.2V18ZM3 14.2V9.8H1V14.2H3ZM6.8 18C5.94342 18 5.36113 17.9992 4.91104 17.9624C4.47262 17.9266 4.24842 17.8617 4.09202 17.782L3.18404 19.564C3.66937 19.8113 4.18608 19.9099 4.74817 19.9558C5.2986 20.0008 5.97642 20 6.8 20V18ZM1 14.2C1 15.0236 0.999222 15.7014 1.04419 16.2518C1.09012 16.8139 1.18868 17.3306 1.43597 17.816L3.21799 16.908C3.1383 16.7516 3.07337 16.5274 3.03755 16.089C3.00078 15.6389 3 15.0566 3 14.2H1ZM4.09202 17.782C3.71569 17.5903 3.40973 17.2843 3.21799 16.908L1.43597 17.816C1.81947 18.5686 2.43139 19.1805 3.18404 19.564L4.09202 17.782ZM16 14.2C16 15.0566 15.9992 15.6389 15.9624 16.089C15.9266 16.5274 15.8617 16.7516 15.782 16.908L17.564 17.816C17.8113 17.3306 17.9099 16.8139 17.9558 16.2518C18.0008 15.7014 18 15.0236 18 14.2H16ZM12.2 20C13.0236 20 13.7014 20.0008 14.2518 19.9558C14.8139 19.9099 15.3306 19.8113 15.816 19.564L14.908 17.782C14.7516 17.8617 14.5274 17.9266 14.089 17.9624C13.6389 17.9992 13.0566 18 12.2 18V20ZM15.782 16.908C15.5903 17.2843 15.2843 17.5903 14.908 17.782L15.816 19.564C16.5686 19.1805 17.1805 18.5686 17.564 17.816L15.782 16.908ZM12.2 6C13.0566 6 13.6389 6.00078 14.089 6.03755C14.5274 6.07337 14.7516 6.1383 14.908 6.21799L15.816 4.43597C15.3306 4.18868 14.8139 4.09012 14.2518 4.04419C13.7014 3.99922 13.0236 4 12.2 4V6ZM18 9.8C18 8.97642 18.0008 8.2986 17.9558 7.74817C17.9099 7.18608 17.8113 6.66937 17.564 6.18404L15.782 7.09202C15.8617 7.24842 15.9266 7.47262 15.9624 7.91104C15.9992 8.36113 16 8.94342 16 9.8H18ZM14.908 6.21799C15.2843 6.40973 15.5903 6.71569 15.782 7.09202L17.564 6.18404C17.1805 5.43139 16.5686 4.81947 15.816 4.43597L14.908 6.21799ZM6.8 4C5.97642 4 5.2986 3.99922 4.74817 4.04419C4.18608 4.09012 3.66937 4.18868 3.18404 4.43597L4.09202 6.21799C4.24842 6.1383 4.47262 6.07337 4.91104 6.03755C5.36113 6.00078 5.94342 6 6.8 6V4ZM3 9.8C3 8.94342 3.00078 8.36113 3.03755 7.91104C3.07337 7.47262 3.1383 7.24842 3.21799 7.09202L1.43597 6.18404C1.18868 6.66937 1.09012 7.18608 1.04419 7.74817C0.999222 8.2986 1 8.97642 1 9.8H3ZM3.18404 4.43597C2.43139 4.81947 1.81947 5.43139 1.43597 6.18404L3.21799 7.09202C3.40973 6.71569 3.71569 6.40973 4.09202 6.21799L3.18404 4.43597Z" fill="#171717"/>
</svg>
