<svg width="24" height="24" viewBox="0 0 24 24" fill="none" xmlns="http://www.w3.org/2000/svg">
<path d="M20.5597 4.41596C20.2372 3.96763 19.6123 3.86563 19.1639 4.18815C18.7156 4.51067 18.6136 5.13556 18.9361 5.5839L20.5597 4.41596ZM18.9361 18.416C18.6136 18.8643 18.7156 19.4892 19.1639 19.8117C19.6123 20.1342 20.2372 20.0322 20.5597 19.5839L18.9361 18.416ZM16.5655 7.42783C16.2495 6.97485 15.6262 6.86378 15.1732 7.17974C14.7202 7.4957 14.6092 8.11905 14.9251 8.57203L16.5655 7.42783ZM14.9251 15.4278C14.6092 15.8808 14.7202 16.5042 15.1732 16.8201C15.6262 17.1361 16.2495 17.025 16.5655 16.572L14.9251 15.4278ZM9.63432 5.36561L8.92721 4.6585V4.6585L9.63432 5.36561ZM10.4608 4.70858L10.5392 5.70549L10.4608 4.70858ZM10.8802 4.88231L10.1198 5.53176L10.8802 4.88231ZM9.63431 18.6342L8.92721 19.3413H8.92721L9.63431 18.6342ZM10.4608 19.2913L10.5392 18.2944L10.4608 19.2913ZM10.8802 19.1175L10.1198 18.4681L10.8802 19.1175ZM2.54601 14.8909L3 13.9999L2.54601 14.8909ZM2.10899 14.4539L3 13.9999L2.10899 14.4539ZM5.81923 15.0276L6.05268 14.0552L5.81923 15.0276ZM6.46863 15.4686L7.17574 14.7614H7.17574L6.46863 15.4686ZM6.10828 15.1473L6.63078 14.2946L6.10828 15.1473ZM5.81923 8.9723L6.05268 9.94467L5.81923 8.9723ZM6.46863 8.5313L7.17574 9.2384L6.46863 8.5313ZM6.10828 8.85257L6.63078 9.70521L6.10828 8.85257ZM2.54601 9.10892L3 9.99993L2.54601 9.10892ZM2.10899 9.54594L3 9.99993L2.10899 9.54594ZM18.9361 5.5839C20.2352 7.38967 21 9.604 21 11.9999H23C23 9.17112 22.0953 6.55066 20.5597 4.41596L18.9361 5.5839ZM21 11.9999C21 14.3959 20.2352 16.6102 18.9361 18.416L20.5597 19.5839C22.0953 17.4492 23 14.8287 23 11.9999H21ZM14.9251 8.57203C15.6027 9.54348 16 10.7238 16 11.9999H18C18 10.3015 17.4696 8.72404 16.5655 7.42783L14.9251 8.57203ZM16 11.9999C16 13.276 15.6027 14.4564 14.9251 15.4278L16.5655 16.572C17.4696 15.2758 18 13.6983 18 11.9999H16ZM3.6 9.99993H5.33726V7.99993H3.6V9.99993ZM5.33726 13.9999H3.6V15.9999H5.33726V13.9999ZM3 13.3999V10.5999H1V13.3999H3ZM10.3414 17.9271L7.17574 14.7614L5.76152 16.1757L8.92721 19.3413L10.3414 17.9271ZM7.17574 9.2384L10.3414 6.07272L8.92721 4.6585L5.76152 7.82419L7.17574 9.2384ZM10 5.9313V18.0686H12V5.9313H10ZM10.3414 6.07272C10.4502 5.96391 10.5377 5.87647 10.6139 5.80271C10.6907 5.72833 10.7434 5.68025 10.7812 5.64864C10.8212 5.61514 10.8222 5.6191 10.7944 5.6343C10.7634 5.65128 10.6736 5.69492 10.5392 5.70549L10.3823 3.71166C9.95367 3.74539 9.64423 3.9921 9.49729 4.11512C9.32503 4.25934 9.12741 4.45831 8.92721 4.6585L10.3414 6.07272ZM12 5.9313C12 5.64818 12.001 5.36774 11.9811 5.14395C11.9642 4.95306 11.9198 4.55981 11.6406 4.23286L10.1198 5.53176C10.0322 5.42925 9.99962 5.33491 9.98968 5.30096C9.98079 5.27057 9.98432 5.26851 9.98893 5.32049C9.99328 5.36954 9.99653 5.44079 9.99826 5.5477C9.99997 5.65373 10 5.77742 10 5.9313H12ZM10.5392 5.70549C10.3797 5.71805 10.2237 5.65346 10.1198 5.53176L11.6406 4.23286C11.3288 3.86775 10.861 3.67399 10.3823 3.71166L10.5392 5.70549ZM8.92721 19.3413C9.12741 19.5415 9.32503 19.7405 9.49729 19.8847C9.64424 20.0078 9.95367 20.2545 10.3823 20.2882L10.5392 18.2944C10.6736 18.3049 10.7634 18.3486 10.7944 18.3656C10.8222 18.3808 10.8212 18.3847 10.7812 18.3512C10.7434 18.3196 10.6907 18.2715 10.6139 18.1971C10.5377 18.1234 10.4502 18.0359 10.3414 17.9271L8.92721 19.3413ZM10 18.0686C10 18.2224 9.99997 18.3461 9.99826 18.4522C9.99653 18.5591 9.99328 18.6303 9.98893 18.6794C9.98432 18.7313 9.9808 18.7293 9.98968 18.6989C9.99962 18.6649 10.0322 18.5706 10.1198 18.4681L11.6406 19.767C11.9198 19.44 11.9642 19.0468 11.9811 18.8559C12.001 18.6321 12 18.3517 12 18.0686H10ZM10.3823 20.2882C10.861 20.3259 11.3288 20.1321 11.6406 19.767L10.1198 18.4681C10.2237 18.3464 10.3797 18.2818 10.5392 18.2944L10.3823 20.2882ZM3.6 13.9999C3.30347 13.9999 3.14122 13.9992 3.02463 13.9896C2.91972 13.9811 2.94249 13.9706 3 13.9999L2.09202 15.7819C2.36344 15.9202 2.63318 15.9643 2.86177 15.983C3.07869 16.0007 3.33647 15.9999 3.6 15.9999V13.9999ZM1 13.3999C1 13.6635 0.999222 13.9212 1.01695 14.1382C1.03562 14.3667 1.07969 14.6365 1.21799 14.9079L3 13.9999C3.0293 14.0574 3.01887 14.0802 3.0103 13.9753C3.00078 13.8587 3 13.6965 3 13.3999H1ZM3 13.9999V13.9999L1.21799 14.9079C1.40973 15.2842 1.71569 15.5902 2.09202 15.7819L3 13.9999ZM5.33726 15.9999C5.46826 15.9999 5.53364 16.0002 5.58113 16.0023C5.61944 16.0041 5.61088 16.006 5.58579 15.9999L6.05268 14.0552C5.79573 13.9935 5.53425 13.9999 5.33726 13.9999V15.9999ZM7.17574 14.7614C7.03644 14.6222 6.85609 14.4327 6.63078 14.2946L5.58579 15.9999C5.56378 15.9864 5.55905 15.9791 5.58738 16.0049C5.62249 16.037 5.66889 16.083 5.76152 16.1757L7.17574 14.7614ZM5.58579 15.9999L6.63078 14.2946C6.45184 14.185 6.25675 14.1042 6.05268 14.0552L5.58579 15.9999ZM5.33726 9.99993C5.53425 9.99993 5.79573 10.0064 6.05268 9.94467L5.58579 7.99993C5.61088 7.9939 5.61944 7.99577 5.58113 7.99752C5.53364 7.99969 5.46826 7.99993 5.33726 7.99993V9.99993ZM5.76152 7.82419C5.66889 7.91682 5.62249 7.96289 5.58737 7.99493C5.55905 8.02078 5.56378 8.01341 5.58579 7.99993L6.63078 9.70521C6.85609 9.56714 7.03644 9.3777 7.17574 9.2384L5.76152 7.82419ZM6.05268 9.94467C6.25675 9.89567 6.45184 9.81486 6.63078 9.70521L5.58579 7.99993V7.99993L6.05268 9.94467ZM3.6 7.99993C3.33647 7.99993 3.07869 7.99915 2.86177 8.01687C2.63318 8.03555 2.36344 8.07962 2.09202 8.21791L3 9.99993C2.94249 10.0292 2.91972 10.0188 3.02463 10.0102C3.14122 10.0007 3.30347 9.99993 3.6 9.99993V7.99993ZM3 10.5999C3 10.3034 3.00078 10.1411 3.0103 10.0246C3.01887 9.91965 3.0293 9.94242 3 9.99993L1.21799 9.09195C1.07969 9.36337 1.03562 9.6331 1.01695 9.8617C0.999222 10.0786 1 10.3364 1 10.5999H3ZM2.09202 8.21791C1.71569 8.40966 1.40973 8.71562 1.21799 9.09195L3 9.99993L2.09202 8.21791Z" fill="#171717"/>
</svg>
