<svg width="24" height="24" viewBox="0 0 24 24" fill="none" xmlns="http://www.w3.org/2000/svg">
<path d="M7.48551 19.4276L6.50493 19.6237L7.48551 19.4276ZM7.98058 16.8039C7.87227 16.2623 7.34544 15.9111 6.80388 16.0194C6.26232 16.1277 5.91111 16.6546 6.01942 17.1961L7.98058 16.8039ZM17.9806 17.1961C18.0889 16.6546 17.7377 16.1277 17.1961 16.0194C16.6546 15.9111 16.1277 16.2623 16.0194 16.8039L17.9806 17.1961ZM16.5145 19.4276L15.5339 19.2315L16.5145 19.4276ZM15.1613 21.8326L14.7609 20.9163H14.7609L15.1613 21.8326ZM16.0004 21.1448L16.8203 21.7172L16.8203 21.7172L16.0004 21.1448ZM7.99964 21.1448L8.81963 20.5724L8.81963 20.5724L7.99964 21.1448ZM8.83869 21.8326L9.23915 20.9163H9.23915L8.83869 21.8326ZM6.01942 6.80388C5.91111 7.34544 6.26232 7.87227 6.80388 7.98058C7.34544 8.08889 7.87227 7.73768 7.98058 7.19612L6.01942 6.80388ZM7.48551 4.57243L8.46609 4.76855L7.48551 4.57243ZM16.5145 4.57243L15.5339 4.76854V4.76854L16.5145 4.57243ZM16.0194 7.19612C16.1277 7.73768 16.6546 8.08889 17.1961 7.98058C17.7377 7.87227 18.0889 7.34544 17.9806 6.80388L16.0194 7.19612ZM15.1613 2.16737L15.5618 1.25106L15.1613 2.16737ZM16.0004 2.85522L16.8203 2.28284L16.8203 2.28283L16.0004 2.85522ZM8.83869 2.16737L8.43822 1.25106L8.83869 2.16737ZM7.99964 2.85522L8.81963 3.42761V3.42761L7.99964 2.85522ZM13 9C13 8.44772 12.5523 8 12 8C11.4477 8 11 8.44772 11 9H13ZM12 12H11C11 12.2652 11.1054 12.5196 11.2929 12.7071L12 12ZM12.7929 14.2071C13.1834 14.5976 13.8166 14.5976 14.2071 14.2071C14.5976 13.8166 14.5976 13.1834 14.2071 12.7929L12.7929 14.2071ZM8.46609 19.2315L7.98058 16.8039L6.01942 17.1961L6.50493 19.6237L8.46609 19.2315ZM13.3766 21H10.6234V23H13.3766V21ZM16.0194 16.8039L15.5339 19.2315L17.4951 19.6237L17.9806 17.1961L16.0194 16.8039ZM13.3766 23C13.8291 23 14.2228 23.0006 14.5499 22.9763C14.8896 22.9511 15.2265 22.8955 15.5618 22.7489L14.7609 20.9163C14.7131 20.9372 14.625 20.9652 14.4017 20.9818C14.1658 20.9994 13.8586 21 13.3766 21V23ZM15.5339 19.2315C15.4394 19.7041 15.3785 20.0052 15.3151 20.233C15.255 20.4487 15.2102 20.5297 15.1804 20.5724L16.8203 21.7172C17.0298 21.4172 17.1504 21.0977 17.2418 20.7695C17.3297 20.4536 17.4063 20.0674 17.4951 19.6237L15.5339 19.2315ZM15.5618 22.7489C16.0684 22.5275 16.5039 22.1705 16.8203 21.7172L15.1804 20.5724C15.0749 20.7235 14.9297 20.8425 14.7609 20.9163L15.5618 22.7489ZM6.50493 19.6237C6.59368 20.0674 6.67026 20.4536 6.75824 20.7695C6.84962 21.0977 6.97025 21.4172 7.17966 21.7172L8.81963 20.5724C8.78981 20.5297 8.74501 20.4487 8.68494 20.233C8.62149 20.0052 8.56062 19.7041 8.46609 19.2315L6.50493 19.6237ZM10.6234 21C10.1414 21 9.83422 20.9994 9.59834 20.9818C9.37503 20.9652 9.28688 20.9372 9.23915 20.9163L8.43822 22.7489C8.77347 22.8955 9.11042 22.9511 9.45009 22.9763C9.77719 23.0006 10.1709 23 10.6234 23V21ZM7.17966 21.7172C7.4961 22.1705 7.93165 22.5275 8.43822 22.7489L9.23915 20.9163C9.07029 20.8425 8.9251 20.7235 8.81963 20.5724L7.17966 21.7172ZM10.6234 3H13.3766V1H10.6234V3ZM7.98058 7.19612L8.46609 4.76855L6.50493 4.37631L6.01942 6.80388L7.98058 7.19612ZM15.5339 4.76854L16.0194 7.19612L17.9806 6.80388L17.4951 4.37631L15.5339 4.76854ZM13.3766 3C13.8586 3 14.1658 3.00064 14.4017 3.01817C14.625 3.03477 14.7131 3.06283 14.7609 3.08369L15.5618 1.25106C15.2265 1.10455 14.8896 1.04892 14.5499 1.02367C14.2228 0.999361 13.8291 1 13.3766 1V3ZM17.4951 4.37631C17.4063 3.9326 17.3297 3.54644 17.2418 3.23046C17.1504 2.90233 17.0298 2.58283 16.8203 2.28284L15.1804 3.42761C15.2102 3.47032 15.255 3.55126 15.3151 3.76698C15.3785 3.99484 15.4394 4.29593 15.5339 4.76854L17.4951 4.37631ZM14.7609 3.08369C14.9297 3.15748 15.0749 3.2765 15.1804 3.42761L16.8203 2.28283C16.5039 1.82952 16.0684 1.47245 15.5618 1.25106L14.7609 3.08369ZM10.6234 1C10.1709 1 9.77719 0.999361 9.4501 1.02367C9.11042 1.04892 8.77347 1.10455 8.43822 1.25106L9.23915 3.08369C9.28688 3.06283 9.37503 3.03477 9.59833 3.01817C9.83422 3.00064 10.1414 3 10.6234 3V1ZM8.46609 4.76855C8.56062 4.29593 8.62149 3.99484 8.68494 3.76698C8.74501 3.55126 8.78981 3.47032 8.81963 3.42761L7.17966 2.28283C6.97025 2.58283 6.84962 2.90233 6.75824 3.23046C6.67026 3.54644 6.59368 3.9326 6.50493 4.37631L8.46609 4.76855ZM8.43822 1.25106C7.93165 1.47245 7.4961 1.82952 7.17966 2.28283L8.81963 3.42761C8.92511 3.2765 9.07029 3.15748 9.23915 3.08369L8.43822 1.25106ZM11 9V12H13V9H11ZM11.2929 12.7071L12.7929 14.2071L14.2071 12.7929L12.7071 11.2929L11.2929 12.7071ZM18 12C18 15.3137 15.3137 18 12 18V20C16.4183 20 20 16.4183 20 12H18ZM12 18C8.68629 18 6 15.3137 6 12H4C4 16.4183 7.58172 20 12 20V18ZM6 12C6 8.68629 8.68629 6 12 6V4C7.58172 4 4 7.58172 4 12H6ZM12 6C15.3137 6 18 8.68629 18 12H20C20 7.58172 16.4183 4 12 4V6Z" fill="#171717"/>
</svg>
