<svg width="64" height="64" viewBox="0 0 64 64" fill="none" xmlns="http://www.w3.org/2000/svg">
<circle cx="32" cy="32" r="32" fill="#FFE603"/>
<path d="M40.7071 26.7071C41.0976 26.3166 41.0976 25.6834 40.7071 25.2929C40.3166 24.9024 39.6834 24.9024 39.2929 25.2929L40.7071 26.7071ZM29 37L28.2929 37.7071C28.6834 38.0976 29.3166 38.0976 29.7071 37.7071L29 37ZM24.7071 31.2929C24.3166 30.9024 23.6834 30.9024 23.2929 31.2929C22.9024 31.6834 22.9024 32.3166 23.2929 32.7071L24.7071 31.2929ZM39.2929 25.2929L28.2929 36.2929L29.7071 37.7071L40.7071 26.7071L39.2929 25.2929ZM29.7071 36.2929L24.7071 31.2929L23.2929 32.7071L28.2929 37.7071L29.7071 36.2929Z" fill="#171717"/>
</svg>
