<svg width="64" height="64" viewBox="0 0 64 64" fill="none" xmlns="http://www.w3.org/2000/svg">
<circle cx="32" cy="32" r="32" fill="#FFE603"/>
<path d="M22.5521 26.4785L21.8972 27.2342H21.8972L22.5521 26.4785ZM22.1745 26.1078L21.349 26.6722L22.1745 26.1078ZM22.0328 25.7976L21.0657 26.0518L22.0328 25.7976ZM41.9672 25.7976L42.9343 26.0518L41.9672 25.7976ZM41.4479 26.4785L42.1028 27.2342L41.4479 26.4785ZM41.8255 26.1078L42.651 26.6722L41.8255 26.1078ZM34.4685 38.8363L33.5315 38.4867L34.4685 38.8363ZM33.9971 39.2012L33.6257 38.2727H33.6257L33.9971 39.2012ZM34.3363 39.0315L35.0088 39.7716L34.3363 39.0315ZM29.5833 40.5377L30.4167 39.9852L29.5833 40.5377ZM30.5971 40.5612L30.9685 41.4896H30.9685L30.5971 40.5612ZM29.8983 40.751L29.6948 41.7301L29.8983 40.751ZM29.4672 32.7024L30.4343 32.4482L29.4672 32.7024ZM28.9479 32.0215L29.6028 31.2658L28.9479 32.0215ZM29.3255 32.3922L30.151 31.8278L29.3255 32.3922ZM34.5328 32.7024L33.5657 32.4482L34.5328 32.7024ZM35.0521 32.0215L34.3972 31.2658L35.0521 32.0215ZM34.6745 32.3922L33.849 31.8278L34.6745 32.3922ZM41.454 23.109L41 24L41.454 23.109ZM41.891 23.546L41 24L41.891 23.546ZM22.546 23.109L23 24L22.546 23.109ZM22.109 23.546L23 24L22.109 23.546ZM23.6 24H40.4V22H23.6V24ZM30.5 39.8184V33.2306H28.5V39.8184H30.5ZM33.5 33.2306V38.4584H35.5V33.2306H33.5ZM33.6257 38.2727L30.2257 39.6327L30.9685 41.4896L34.3685 40.1296L33.6257 38.2727ZM41 24.6V25.2694H43V24.6H41ZM40.793 25.7228L34.3972 31.2658L35.707 32.7772L42.1028 27.2342L40.793 25.7228ZM29.6028 31.2658L23.207 25.7228L21.8972 27.2342L28.293 32.7772L29.6028 31.2658ZM23 25.2694V24.6H21V25.2694H23ZM23.207 25.7228C23.0983 25.6286 23.0439 25.5811 23.006 25.5448C22.9752 25.5153 22.9839 25.5198 23 25.5434L21.349 26.6722C21.5119 26.9104 21.7339 27.0927 21.8972 27.2342L23.207 25.7228ZM21 25.2694C21 25.4855 20.9923 25.7726 21.0657 26.0518L23 25.5434C23.0072 25.571 23.005 25.5805 23.0029 25.5379C23.0003 25.4855 23 25.4133 23 25.2694H21ZM23 25.5434L21.0657 26.0518C21.1239 26.2732 21.2197 26.4831 21.349 26.6722L23 25.5434ZM41 25.2694C41 25.4133 40.9997 25.4855 40.9971 25.5379C40.995 25.5805 40.9928 25.571 41 25.5434L42.9343 26.0518C43.0077 25.7726 43 25.4855 43 25.2694H41ZM42.1028 27.2342C42.2661 27.0927 42.4881 26.9104 42.651 26.6722L41 25.5434C41.0161 25.5198 41.0248 25.5153 40.994 25.5448C40.9561 25.5811 40.9017 25.6286 40.793 25.7228L42.1028 27.2342ZM41 25.5434L42.651 26.6722C42.7803 26.4831 42.8761 26.2732 42.9343 26.0518L41 25.5434ZM33.5 38.4584C33.5 38.4831 33.5 38.5046 33.4999 38.5244C33.4999 38.5442 33.4998 38.5607 33.4996 38.5751C33.4994 38.5894 33.4992 38.6002 33.4989 38.6085C33.4986 38.6168 33.4984 38.6212 33.4982 38.6228C33.498 38.6265 33.4987 38.6126 33.5032 38.5881C33.5081 38.5616 33.5167 38.5265 33.5315 38.4867L35.4054 39.1858C35.5152 38.8915 35.5 38.5741 35.5 38.4584H33.5ZM34.3685 40.1296C34.4759 40.0867 34.7763 39.9829 35.0088 39.7716L33.6637 38.2914C33.6951 38.2629 33.7246 38.2418 33.7474 38.2275C33.7684 38.2142 33.7811 38.2084 33.7777 38.21C33.7763 38.2107 33.7723 38.2125 33.7647 38.2159C33.7571 38.2192 33.7472 38.2235 33.7339 38.229C33.7207 38.2345 33.7054 38.2407 33.687 38.2481C33.6686 38.2555 33.6487 38.2635 33.6257 38.2727L34.3685 40.1296ZM33.5315 38.4867C33.5594 38.412 33.6047 38.3451 33.6637 38.2914L35.0088 39.7716C35.1858 39.6108 35.3218 39.4099 35.4054 39.1858L33.5315 38.4867ZM28.5 39.8184C28.5 39.9972 28.499 40.1993 28.5145 40.3698C28.5302 40.543 28.5715 40.8214 28.7498 41.0903L30.4167 39.9852C30.4648 40.0577 30.4883 40.1228 30.4991 40.1619C30.5086 40.1966 30.5083 40.2114 30.5063 40.189C30.5043 40.1672 30.5023 40.1293 30.5012 40.063C30.5 39.9972 30.5 39.9198 30.5 39.8184H28.5ZM30.2257 39.6327C30.1315 39.6704 30.0597 39.699 29.9981 39.7225C29.9362 39.746 29.9002 39.7582 29.8792 39.7645C29.8577 39.7709 29.8713 39.7651 29.9071 39.7611C29.9475 39.7566 30.0166 39.7542 30.1017 39.7719L29.6948 41.7301C30.0106 41.7957 30.2845 41.7307 30.4511 41.681C30.6152 41.632 30.8025 41.556 30.9685 41.4896L30.2257 39.6327ZM28.7498 41.0903C28.9682 41.4197 29.3078 41.6497 29.6948 41.7301L30.1017 39.7719C30.2307 39.7987 30.3439 39.8754 30.4167 39.9852L28.7498 41.0903ZM30.5 33.2306C30.5 33.0145 30.5077 32.7274 30.4343 32.4482L28.5 32.9566C28.4928 32.929 28.495 32.9195 28.4971 32.9621C28.4997 33.0145 28.5 33.0867 28.5 33.2306H30.5ZM28.293 32.7772C28.4017 32.8714 28.4561 32.9189 28.494 32.9552C28.5248 32.9847 28.5161 32.9802 28.5 32.9566L30.151 31.8278C29.9881 31.5896 29.7661 31.4073 29.6028 31.2658L28.293 32.7772ZM30.4343 32.4482C30.3761 32.2268 30.2803 32.0169 30.151 31.8278L28.5 32.9566L30.4343 32.4482ZM35.5 33.2306C35.5 33.0867 35.5003 33.0145 35.5029 32.9621C35.505 32.9195 35.5072 32.929 35.5 32.9566L33.5657 32.4482C33.4923 32.7274 33.5 33.0145 33.5 33.2306H35.5ZM34.3972 31.2658C34.2339 31.4073 34.0119 31.5896 33.849 31.8278L35.5 32.9566C35.4839 32.9802 35.4752 32.9847 35.506 32.9552C35.5439 32.9189 35.5983 32.8714 35.707 32.7772L34.3972 31.2658ZM35.5 32.9566L33.849 31.8278C33.7197 32.0169 33.6239 32.2268 33.5657 32.4482L35.5 32.9566ZM40.4 24C40.6965 24 40.8588 24.0008 40.9754 24.0103C41.0803 24.0189 41.0575 24.0293 41 24L41.908 22.218C41.6366 22.0797 41.3668 22.0356 41.1382 22.0169C40.9213 21.9992 40.6635 22 40.4 22V24ZM43 24.6C43 24.3365 43.0008 24.0787 42.9831 23.8618C42.9644 23.6332 42.9203 23.3634 42.782 23.092L41 24C40.9707 23.9425 40.9811 23.9197 40.9897 24.0246C40.9992 24.1412 41 24.3035 41 24.6H43ZM41 24L42.782 23.092C42.5903 22.7157 42.2843 22.4097 41.908 22.218L41 24ZM23.6 22C23.3365 22 23.0787 21.9992 22.8618 22.0169C22.6332 22.0356 22.3634 22.0797 22.092 22.218L23 24C22.9425 24.0293 22.9197 24.0189 23.0246 24.0103C23.1412 24.0008 23.3035 24 23.6 24V22ZM23 24.6C23 24.3035 23.0008 24.1412 23.0103 24.0246C23.0189 23.9197 23.0293 23.9425 23 24L21.218 23.092C21.0797 23.3634 21.0356 23.6332 21.0169 23.8618C20.9992 24.0787 21 24.3365 21 24.6H23ZM22.092 22.218C21.7157 22.4097 21.4097 22.7157 21.218 23.092L23 24L22.092 22.218Z" fill="#171717"/>
</svg>
