<svg width="64" height="64" viewBox="0 0 64 64" fill="none" xmlns="http://www.w3.org/2000/svg">
<circle cx="32" cy="32" r="32" fill="#FFE603"/>
<path d="M24.3547 35.6408L25.2345 36.1161L24.3547 35.6408ZM24.5873 35.1469L25.5564 35.3936L24.5873 35.1469ZM24.443 34.2166L23.4954 34.536L24.443 34.2166ZM24.6151 34.8214L23.6182 34.9003L24.6151 34.8214ZM23.5052 39.8444L23.4023 38.8497L23.5052 39.8444ZM22.6288 39.8322L22.108 40.6859H22.108L22.6288 39.8322ZM22.7191 38.6684L21.8393 38.193L22.7191 38.6684ZM22.3952 39.4828L21.4073 39.6376L22.3952 39.4828ZM29.4448 39.4345L29.0853 40.3677L29.4448 39.4345ZM29.1159 39.3185L29.3404 38.344L29.1159 39.3185ZM28.6262 39.315L28.729 40.3097L28.6262 39.315ZM28.9295 39.2937L28.8913 40.2929L28.9295 39.2937ZM32.4965 28.9493L31.7406 29.6039C31.9306 29.8232 32.2064 29.9493 32.4965 29.9493C32.7867 29.9493 33.0625 29.8232 33.2525 29.6039L32.4965 28.9493ZM28.5685 32.2491L29.3544 31.6307L28.5685 32.2491ZM36.4246 32.2491L37.2105 32.8674L36.4246 32.2491ZM31.4616 35.087L32.1291 34.3423L31.4616 35.087ZM32.2084 35.6293L32.4965 34.6718L32.2084 35.6293ZM33.5315 35.087L32.864 34.3423L33.5315 35.087ZM32.7847 35.6293L32.4965 34.6718L32.7847 35.6293ZM32.4996 41C37.7463 41 41.9996 36.7467 41.9996 31.5H39.9996C39.9996 35.6421 36.6418 39 32.4996 39V41ZM29.0853 40.3677C30.1462 40.7764 31.298 41 32.4996 41V39C31.5477 39 30.6394 38.8231 29.8043 38.5014L29.0853 40.3677ZM23.608 40.8391L28.729 40.3097L28.5234 38.3203L23.4023 38.8497L23.608 40.8391ZM23.4749 35.1655L21.8393 38.193L23.5989 39.1437L25.2345 36.1161L23.4749 35.1655ZM22.9996 31.5C22.9996 32.56 23.1736 33.5814 23.4954 34.536L25.3906 33.8972C25.1373 33.1458 24.9996 32.34 24.9996 31.5H22.9996ZM32.4996 22C27.2529 22 22.9996 26.2533 22.9996 31.5H24.9996C24.9996 27.3579 28.3575 24 32.4996 24V22ZM41.9996 31.5C41.9996 26.2533 37.7463 22 32.4996 22V24C36.6418 24 39.9996 27.3579 39.9996 31.5H41.9996ZM25.2345 36.1161C25.3416 35.918 25.4878 35.6631 25.5564 35.3936L23.6182 34.9003C23.6263 34.8683 23.6333 34.8615 23.6103 34.909C23.5846 34.962 23.5464 35.0332 23.4749 35.1655L25.2345 36.1161ZM23.4954 34.536C23.552 34.7039 23.5853 34.8033 23.6069 34.8766C23.629 34.9513 23.6216 34.9432 23.6182 34.9003L25.6119 34.7425C25.5898 34.4626 25.4759 34.1502 25.3906 33.8972L23.4954 34.536ZM25.5564 35.3936C25.6136 35.169 25.6302 34.9736 25.6119 34.7425L23.6182 34.9003C23.6191 34.9118 23.6191 34.9157 23.619 34.9145C23.619 34.9127 23.6191 34.9076 23.6197 34.9004C23.6203 34.8933 23.6211 34.8883 23.6214 34.8865C23.6217 34.8853 23.621 34.8891 23.6182 34.9003L25.5564 35.3936ZM23.4023 38.8497C23.2778 38.8625 23.1802 38.8726 23.0966 38.8798C23.0123 38.8871 22.9599 38.8898 22.9262 38.8902C22.891 38.8907 22.901 38.888 22.9361 38.8943C22.976 38.9015 23.0568 38.9219 23.1496 38.9785L22.108 40.6859C22.429 40.8818 22.7638 40.8923 22.9496 40.8901C23.1464 40.8878 23.3836 40.8623 23.608 40.8391L23.4023 38.8497ZM21.8393 38.193C21.732 38.3915 21.6177 38.601 21.5404 38.7819C21.4673 38.9527 21.3491 39.2661 21.4073 39.6376L23.3832 39.328C23.4 39.4353 23.3879 39.5178 23.3794 39.5574C23.3718 39.5923 23.3655 39.6005 23.3793 39.5681C23.3926 39.5372 23.4152 39.4898 23.4541 39.4147C23.4927 39.3402 23.5393 39.2539 23.5989 39.1437L21.8393 38.193ZM23.1496 38.9785C23.275 39.055 23.3604 39.1828 23.3832 39.328L21.4073 39.6376C21.4755 40.073 21.7318 40.4564 22.108 40.6859L23.1496 38.9785ZM29.8043 38.5014C29.6673 38.4486 29.4966 38.38 29.3404 38.344L28.8913 40.2929C28.8685 40.2877 28.8641 40.2845 28.9028 40.2984C28.9416 40.3124 28.9943 40.3326 29.0853 40.3677L29.8043 38.5014ZM28.729 40.3097C28.8116 40.3012 28.8547 40.2968 28.8863 40.2944C28.9138 40.2922 28.909 40.2936 28.8913 40.2929L28.9677 38.2944C28.8092 38.2883 28.6474 38.3075 28.5234 38.3203L28.729 40.3097ZM29.3404 38.344C29.2114 38.3143 29.1 38.2995 28.9677 38.2944L28.8913 40.2929V40.2929L29.3404 38.344ZM33.2525 28.2946C32.0571 26.9143 29.9394 26.4551 28.3243 27.818L29.6142 29.3465C30.2537 28.8068 31.1366 28.9065 31.7406 29.6039L33.2525 28.2946ZM28.3243 27.818C26.7914 29.1116 26.5591 31.3124 27.7826 32.8674L29.3544 31.6307C28.8075 30.9356 28.8925 29.9554 29.6142 29.3465L28.3243 27.818ZM37.2105 32.8674C38.425 31.3238 38.2346 29.1032 36.6583 27.8093L35.3894 29.3552C36.1064 29.9438 36.1946 30.9242 35.6387 31.6307L37.2105 32.8674ZM36.6583 27.8093C35.0343 26.4761 32.9435 26.9057 31.7406 28.2946L33.2525 29.6039C33.849 28.9151 34.7201 28.8058 35.3894 29.3552L36.6583 27.8093ZM27.7826 32.8674C28.3966 33.6478 29.8487 34.9841 30.7941 35.8316L32.1291 34.3423C31.1383 33.4542 29.8373 32.2444 29.3544 31.6307L27.7826 32.8674ZM34.199 35.8316C35.1444 34.9841 36.5965 33.6478 37.2105 32.8674L35.6387 31.6307C35.1558 32.2444 33.8548 33.4542 32.864 34.3423L34.199 35.8316ZM30.7941 35.8316C30.9599 35.9802 31.1281 36.132 31.2837 36.2501C31.4524 36.3782 31.6579 36.508 31.9202 36.5869L32.4965 34.6718C32.5455 34.6865 32.5553 34.7045 32.4929 34.6571C32.4174 34.5997 32.3188 34.5124 32.1291 34.3423L30.7941 35.8316ZM32.864 34.3423C32.6743 34.5124 32.5757 34.5997 32.5002 34.6571C32.4377 34.7045 32.4476 34.6865 32.4965 34.6718L33.0729 36.5869C33.3352 36.508 33.5407 36.3782 33.7094 36.2501C33.865 36.132 34.0332 35.9802 34.199 35.8316L32.864 34.3423ZM31.9202 36.5869C32.2912 36.6986 32.7019 36.6986 33.0729 36.5869L32.4965 34.6718H32.4965L31.9202 36.5869Z" fill="#171717"/>
</svg>
