<svg width="45" height="45" viewBox="0 0 45 45" fill="none" xmlns="http://www.w3.org/2000/svg">
<path fill-rule="evenodd" clip-rule="evenodd" d="M22.0394 1.29736C33.5406 1.29736 42.865 10.6218 42.865 22.1229C42.865 33.6241 33.5406 42.9485 22.0394 42.9485C10.5383 42.9485 1.21387 33.6241 1.21387 22.1229C1.21387 10.6218 10.5383 1.29736 22.0394 1.29736V1.29736Z" stroke="white" stroke-width="0.5" stroke-linejoin="round"/>
<path fill-rule="evenodd" clip-rule="evenodd" d="M9.9834 26.4554L11.1346 28.2135C18.0834 23.6717 25.2415 23.6926 33.0276 28.2345L34.095 26.4345C25.6601 21.4949 17.5601 21.4949 9.9834 26.4554Z" fill="white"/>
<path fill-rule="evenodd" clip-rule="evenodd" d="M22.0601 31.7717C21.2438 31.7717 20.595 31.102 20.595 30.3066C20.595 29.5113 21.2647 28.8415 22.0601 28.8415C22.8554 28.8415 23.5252 29.5113 23.5252 30.3066C23.5252 31.102 22.8764 31.7717 22.0601 31.7717ZM22.0601 26.7275C20.0927 26.7275 18.502 28.3182 18.502 30.2857C18.502 32.2531 20.0927 33.8438 22.0601 33.8438C24.0275 33.8438 25.6182 32.2531 25.6182 30.2857C25.6182 28.3182 24.0275 26.7275 22.0601 26.7275Z" fill="white"/>
<mask id="mask0" mask-type="alpha" maskUnits="userSpaceOnUse" x="0" y="0" width="45" height="45">
<path d="M0 0.0834961H44.0791V44.15H0V0.0834961Z" fill="white"/>
</mask>
<g mask="url(#mask0)">
<path fill-rule="evenodd" clip-rule="evenodd" d="M20.5742 19.5069L22.0394 20.972L31.144 11.8883L29.658 10.4023L22.0812 18L14.4626 10.3813L12.9766 11.8674L20.5952 19.4651L20.5742 19.5069Z" fill="white"/>
<path fill-rule="evenodd" clip-rule="evenodd" d="M22.0395 42.0695C11.0302 42.0695 2.09302 33.1114 2.09302 22.123C2.09302 11.1347 11.0512 2.17652 22.0395 2.17652C33.0488 2.17652 41.986 11.1347 41.986 22.123C41.986 33.1114 33.0279 42.0695 22.0395 42.0695ZM22.0395 0.0834961C9.87907 0.0834961 0 9.96257 0 22.123C0 34.2835 9.87907 44.1626 22.0395 44.1626C34.2 44.1626 44.0791 34.2835 44.0791 22.123C44.0791 9.96257 34.2 0.0834961 22.0395 0.0834961Z" fill="white"/>
</g>
</svg>
