<svg xmlns="http://www.w3.org/2000/svg" xmlns:xlink="http://www.w3.org/1999/xlink" width="43" height="43" viewBox="0 0 43 43">
  <defs>
    <path id="prefix__a" d="M0 0.08L42.12 0.08 42.12 42.188 0 42.188z"/>
  </defs>
  <g fill="none" fill-rule="evenodd">
    <path fill="#FFE603" d="M21.06 1.24c10.99 0 19.9 8.91 19.9 19.9 0 10.99-8.91 19.9-19.9 19.9-10.99 0-19.9-8.91-19.9-19.9 0-10.99 8.91-19.9 19.9-19.9"/>
    <path stroke="#0A0B09" stroke-linejoin="round" stroke-width=".5" d="M21.06 1.24c10.99 0 19.9 8.91 19.9 19.9 0 10.99-8.91 19.9-19.9 19.9-10.99 0-19.9-8.91-19.9-19.9 0-10.99 8.91-19.9 19.9-19.9z"/>
    <path fill="#1B1A19" d="M9.54 25.28l1.1 1.68c6.64-4.34 13.48-4.32 20.92.02l1.02-1.72c-8.06-4.72-15.8-4.72-23.04.02"/>
    <path fill="#1B1A19" d="M21.08 30.36c-.78 0-1.4-.64-1.4-1.4 0-.76.64-1.4 1.4-1.4.76 0 1.4.64 1.4 1.4 0 .76-.62 1.4-1.4 1.4zm0-4.82c-1.88 0-3.4 1.52-3.4 3.4s1.52 3.4 3.4 3.4 3.4-1.52 3.4-3.4-1.52-3.4-3.4-3.4z"/>
    <mask id="prefix__b" fill="#fff">
        <use xlink:href="#prefix__a"/>
    </mask>
    <path fill="#1B1A19" d="M19.66 18.64L21.06 20.04 29.76 11.36 28.34 9.94 21.1 17.2 13.82 9.92 12.4 11.34 19.68 18.6 19.66 18.64" mask="url(#prefix__b)"/>
    <path fill="#1B1A19" d="M21.06 40.2C10.54 40.2 2 31.64 2 21.14c0-10.5 8.56-19.06 19.06-19.06 10.52 0 19.06 8.56 19.06 19.06 0 10.5-8.56 19.06-19.06 19.06zm0-40.12C9.44.08 0 9.52 0 21.14S9.44 42.2 21.06 42.2s21.06-9.44 21.06-21.06S32.68.08 21.06.08z" mask="url(#prefix__b)"/>
  </g>
</svg>
