<svg width="246" height="230" viewBox="0 0 246 230" fill="none" xmlns="http://www.w3.org/2000/svg">
<ellipse cx="122.909" cy="110.881" rx="103.69" ry="103.215" fill="#FFE603"/>
<path d="M147.193 27.7648C147.193 27.7648 168.009 178.239 181.041 188.983H155.672L100.706 184C100.706 184 127.997 132.633 141.462 27.6001C145.696 27.8105 147.193 27.7648 147.193 27.7648Z" fill="white" stroke="#171717" stroke-linecap="round" stroke-linejoin="round"/>
<path d="M150.675 187.487C149.935 186.213 137.232 165.177 113.763 164.822C98.8669 164.603 88.5256 172.849 85.5911 175.369C76.8229 159.73 66.6684 151.464 60.9174 153.692C59.9856 154.046 56.2514 155.817 55.0907 165.995C50.9302 158.747 44.1347 154.365 38.382 155.448C29.8779 157.042 26.105 170.131 28.2785 179.47C31.0087 191.194 42.826 195.822 44.015 196.267L150.675 187.487Z" fill="white" stroke="#171717" stroke-linecap="round" stroke-linejoin="round"/>
<path d="M54.2343 193.509C54.2343 193.509 15.2167 159.324 19.6187 121.693" stroke="#171717" stroke-linecap="round" stroke-linejoin="round"/>
<path d="M19.3576 124.843C19.3576 124.843 24.0878 122.552 20.3668 113.777C16.5598 116.731 17.1815 123.691 19.3576 124.843Z" fill="#171717"/>
<path d="M19.1044 132.708C19.1044 132.708 19.7219 125.57 9.86183 125.907C8.34823 130.965 15.6882 133.283 19.1044 132.708Z" fill="#171717"/>
<path d="M19.5249 132.847C19.5249 132.847 26.4543 133.055 25.9852 126.083C20.8649 125.658 19.369 131.384 19.5249 132.847Z" fill="#171717"/>
<path d="M21.0186 141.62C21.0186 141.62 19.4327 134.096 9.88097 136.741C11.4744 140.986 16.3702 143.99 21.0186 141.62Z" fill="#171717"/>
<path d="M21.0185 141.62C21.0185 141.62 29.1673 140.32 29.2562 132.98C23.8871 133.69 20.5615 138.797 21.0185 141.62Z" fill="#171717"/>
<path d="M23.3078 149.147C23.3078 149.147 15.7716 142.74 10.1086 147.124C15.3789 152.698 22.4049 150.517 23.3078 149.147Z" fill="#171717"/>
<path d="M27.5051 158.069C27.5051 158.069 21.2306 151.993 12.8872 155.871C14.8423 160.87 25.1692 161.316 27.5051 158.069Z" fill="#171717"/>
<path d="M31.5509 166.452C31.5509 166.452 20.824 162.624 16.0478 169.857C17.7964 172.753 29.4955 172.533 31.5509 166.452Z" fill="#171717"/>
<path d="M38.268 175.831C38.268 175.831 29.9422 169.309 19.3394 175.893C26.0344 181.575 35.8704 179.595 38.268 175.831Z" fill="#171717"/>
<path d="M45.5617 184.693C45.5617 184.693 37.2104 179.272 27.6706 185.151C30.2787 189.554 41.2657 191.087 45.5617 184.693Z" fill="#171717"/>
<path d="M45.5605 184.693C45.5605 184.693 54.8858 179.872 52.4835 169.423C47.4978 169.448 42.2736 181.143 45.5605 184.693Z" fill="#171717"/>
<path d="M38.2668 175.831C38.2668 175.831 47.0285 169.985 42.1413 160.769C37.5237 163.379 35.122 171.825 38.2668 175.831Z" fill="#171717"/>
<path d="M31.7223 166.505C31.7223 166.505 40.1115 162.173 36.5685 153.537C31.6578 156.3 30.8844 163.827 31.7223 166.505Z" fill="#171717"/>
<path d="M27.5083 158.458C27.5083 158.458 35.6934 156.162 34.7286 146.981C27.8233 148.093 27.4813 156.711 27.5083 158.458Z" fill="#171717"/>
<path d="M23.6386 149.157C23.6386 149.157 33.0935 148.444 31.934 139.807C28.0915 140.764 24.3387 144.574 23.6386 149.157Z" fill="#171717"/>
<path d="M210.25 195.5C219.361 185.152 217.101 169.761 207.528 163.02C197.686 156.084 181.708 159.425 175.144 171.979C173.932 170.782 170.526 167.747 166.538 168.17C160.884 168.765 155.397 176.156 156.121 186.316L210.25 195.5Z" fill="white" stroke="#171717" stroke-linecap="round" stroke-linejoin="round"/>
<path d="M196.522 191.211C192.781 189.467 189.912 185.671 189.881 181.554C189.851 177.437 193.082 173.363 197.194 172.997C198.319 172.897 199.475 173.052 200.57 172.766C201.665 172.48 202.725 171.541 202.617 170.422C202.467 168.919 200.603 168.404 199.228 167.767C196.522 166.531 194.797 163.44 195.17 160.493C195.542 157.546 197.977 154.979 200.9 154.448C201.868 154.272 202.868 154.299 203.83 154.084C204.792 153.87 205.764 153.339 206.137 152.43C206.546 151.456 206.155 150.361 206.038 149.316C205.691 146.185 208.208 143.014 211.343 142.638C214.478 142.262 217.687 144.741 218.086 147.866C218.344 149.843 217.677 152.103 218.905 153.686C220.133 155.269 222.433 155.218 224.31 155.851C225.623 156.295 226.777 157.114 227.629 158.206C228.481 159.298 228.993 160.616 229.102 161.995C229.211 163.375 228.912 164.756 228.242 165.968C227.572 167.18 226.56 168.169 225.333 168.813C223.696 169.672 221.79 169.86 220.041 170.469C218.291 171.077 216.539 172.362 216.334 174.2C216.162 175.67 217.042 177.073 218.111 178.1C219.179 179.128 220.466 179.918 221.479 181C222.539 182.133 223.257 183.541 223.55 185.063C223.843 186.585 223.699 188.158 223.136 189.602C222.573 191.046 221.612 192.302 220.365 193.226C219.118 194.149 217.635 194.702 216.087 194.822L196.522 191.211Z" fill="white" stroke="#171717" stroke-linecap="round" stroke-linejoin="round"/>
<path d="M211.711 147.4C211.711 147.4 216.391 180.21 205.538 190.827L211.711 147.4Z" fill="white"/>
<path d="M211.711 147.4C211.711 147.4 216.391 180.21 205.538 190.827" stroke="#171717" stroke-linecap="round" stroke-linejoin="round"/>
<path d="M218.414 183.184C218.414 183.184 217.581 186.633 209.325 185.022L218.414 183.184Z" fill="white"/>
<path d="M218.414 183.184C218.414 183.184 217.581 186.633 209.325 185.022" stroke="#171717" stroke-linecap="round" stroke-linejoin="round"/>
<path d="M200.858 175.644C200.858 175.644 203.337 183.813 209.863 183.659L200.858 175.644Z" fill="white"/>
<path d="M200.858 175.644C200.858 175.644 203.337 183.813 209.863 183.659" stroke="#171717" stroke-linecap="round" stroke-linejoin="round"/>
<path d="M202.134 159.929C202.134 159.929 203.692 170.589 212.447 170.363L202.134 159.929Z" fill="white"/>
<path d="M202.134 159.929C202.134 159.929 203.692 170.589 212.447 170.363" stroke="#171717" stroke-linecap="round" stroke-linejoin="round"/>
<path d="M219.903 160.672C219.903 160.672 219.983 168.778 212.601 167.91L219.903 160.672Z" fill="white"/>
<path d="M219.903 160.672C219.903 160.672 219.983 168.778 212.601 167.91" stroke="#171717" stroke-linecap="round" stroke-linejoin="round"/>
<path d="M216.256 153.241C216.256 153.241 217.007 157.912 212.605 159.186L216.256 153.241Z" fill="white"/>
<path d="M216.256 153.241C216.256 153.241 217.007 157.912 212.605 159.186" stroke="#171717" stroke-linecap="round" stroke-linejoin="round"/>
<path d="M122.871 222.528C182.665 222.528 231.138 214.371 231.138 204.308C231.138 194.246 182.665 186.089 122.871 186.089C63.0775 186.089 14.605 194.246 14.605 204.308C14.605 214.371 63.0775 222.528 122.871 222.528Z" fill="white" stroke="#171717" stroke-linecap="round" stroke-linejoin="round"/>
<path d="M136.473 38.4943C136.473 38.4943 143.409 35.1783 144.195 37.0622C144.358 37.6902 141.758 38.1615 141.758 38.1615C141.758 38.1615 148.994 37.5336 150.172 41.2998C151.351 45.0659 144.51 43.1837 142.309 42.3991C140.107 41.6146 137.168 42.0827 137.168 42.0827C137.168 42.0827 136.24 39.5349 136.473 38.4943Z" fill="white" stroke="#171717" stroke-linecap="round" stroke-linejoin="round"/>
<path d="M90.0249 35.7443C90.0249 35.7443 93.7696 34.3872 110.375 42.9211C119.499 47.6153 136.705 37.439 136.705 37.439L138.256 42.2083C138.256 42.2083 118.969 55.239 108.026 52.6032C97.0827 49.9673 96.3178 46.4442 96.3178 46.4442" fill="white"/>
<path d="M90.0249 35.7443C90.0249 35.7443 93.7696 34.3872 110.375 42.9211C119.499 47.6153 136.705 37.439 136.705 37.439L138.256 42.2083C138.256 42.2083 118.969 55.239 108.026 52.6032C97.0827 49.9673 96.3178 46.4442 96.3178 46.4442" stroke="#171717" stroke-linecap="round" stroke-linejoin="round"/>
<path d="M65.824 99.3337C65.824 99.3337 64.9741 108.492 67.0565 110.273C69.1388 112.055 73.0061 108.153 71.8587 105.312C70.7112 102.47 70.283 102.752 70.0313 100.908C69.8799 99.7542 69.8657 98.587 69.9888 97.4302L65.824 99.3337Z" fill="white" stroke="#171717" stroke-linecap="round" stroke-linejoin="round"/>
<path d="M117.544 128.129L112.933 123.764C112.526 125.273 111.964 126.736 111.256 128.129C111.223 128.197 111.185 128.268 111.146 128.339C112.586 129.736 114.307 130.81 116.195 131.491L117.544 128.129Z" fill="#171717" stroke="#171717" stroke-linecap="round" stroke-linejoin="round"/>
<path d="M115.504 133.226L116.199 131.49C114.311 130.81 112.589 129.736 111.15 128.339C109.785 130.835 105.534 135.061 107.278 137.095C111.377 140.964 118.898 150.426 118.898 150.426C118.898 150.426 121.738 150.32 122.157 147.49C123.415 140.492 115.504 133.226 115.504 133.226Z" fill="white" stroke="#171717" stroke-linecap="round" stroke-linejoin="round"/>
<path d="M95.5419 89.26C98.8943 91.979 120.323 87.1836 120.323 87.1836C120.323 87.1836 116.289 102.539 111.987 123.449C111.882 127.842 117.933 130.246 117.933 130.246C117.933 130.246 141.746 83.7486 136.385 75.5442C127.559 62.0062 101.008 68.2924 101.008 68.2924L87.9153 72.8448" fill="#FFE603"/>
<path d="M95.5419 89.26C98.8943 91.979 120.323 87.1836 120.323 87.1836C120.323 87.1836 116.289 102.539 111.987 123.449C111.882 127.842 117.933 130.246 117.933 130.246C117.933 130.246 141.746 83.7486 136.385 75.5442C127.559 62.0062 101.008 68.2924 101.008 68.2924L87.9153 72.8448" stroke="#171717" stroke-linecap="round" stroke-linejoin="round"/>
<path d="M98.9143 175.872C99.0892 173.868 99.4815 172.041 100.188 170.472L92.1556 170.043C92.1556 170.043 92.0494 172.463 91.8467 174.447C92.9369 175.308 94.3851 175.51 95.7319 175.51C96.7617 175.61 97.8323 175.752 98.9143 175.872Z" fill="#171717" stroke="#171717" stroke-linecap="round" stroke-linejoin="round"/>
<path d="M98.9215 175.872C97.8411 175.751 96.7705 175.61 95.7391 175.515C94.3923 175.515 92.9441 175.313 91.8539 174.451C91.7956 175.126 91.6979 175.796 91.5613 176.459C91.1674 178.105 89.9628 182.863 89.4136 185.608C95.1164 189.557 102.248 199.878 104.029 197.893C108.596 192.8 98.8823 181.137 98.8823 181.137C98.7719 179.383 98.785 177.624 98.9215 175.872Z" fill="white" stroke="#171717" stroke-linecap="round" stroke-linejoin="round"/>
<path d="M99.8606 80.7653C108.976 92.6853 103.398 167.258 100.253 171.962C97.1081 176.667 91.4527 171.962 91.4527 171.962C91.4527 171.962 91.0686 143.859 87.0395 122.867C85.168 113.098 81.407 106.393 79.7087 102.005C74.3655 88.2031 77.7963 77.4542 77.7963 77.4542L93.8816 75.5916" fill="#FFE603"/>
<path d="M99.8606 80.7653C108.976 92.6853 103.398 167.258 100.253 171.962C97.1081 176.667 91.4527 171.962 91.4527 171.962C91.4527 171.962 91.0686 143.859 87.0395 122.867C85.168 113.098 81.407 106.393 79.7087 102.005C74.3655 88.2031 77.7963 77.4542 77.7963 77.4542L93.8816 75.5916" stroke="#171717" stroke-linecap="round" stroke-linejoin="round"/>
<path d="M77.1407 80.55C77.1407 80.55 94.3865 79.7981 99.8883 77.0155C105.936 73.9539 109.63 70.4911 107.888 67.3562C106.145 64.2213 93.4826 67.3562 93.4826 67.3562L77.1375 77.5374L77.1407 80.55Z" fill="#171717" stroke="#171717" stroke-linecap="round" stroke-linejoin="round"/>
<path d="M94.6677 39.1565C106.473 62.4835 107.886 67.3563 107.886 67.3563C106.158 78.4917 76.5245 78.4917 76.5245 78.4917C76.5245 78.4917 75.5945 58.9481 74.5337 55.9159L74.7053 42.2148C74.7053 42.2148 83.2522 32.9764 91.6716 36.2108" fill="white"/>
<path d="M94.6677 39.1565C106.473 62.4835 107.886 67.3563 107.886 67.3563C106.158 78.4917 76.5245 78.4917 76.5245 78.4917C76.5245 78.4917 75.5945 58.9481 74.5337 55.9159L74.7053 42.2148C74.7053 42.2148 83.2522 32.9764 91.6716 36.2108" stroke="#171717" stroke-linecap="round" stroke-linejoin="round"/>
<path d="M86.9751 36.9839C86.9751 36.9839 84.9156 33.8082 83.8564 32.027C88.2974 31.5834 90.9944 31.2506 85.5057 22.3547C80.017 13.4588 70.764 22.6956 73.1602 27.5155C75.5564 32.3353 80.6789 37.6151 80.661 38.7797C83.2794 40.755 86.9751 36.9839 86.9751 36.9839Z" fill="white" stroke="#171717" stroke-linecap="round" stroke-linejoin="round"/>
<path d="M79.1904 25.2057C79.1904 25.2057 77.0884 27.6834 79.4404 29.9815C81.7925 32.2797 77.5722 35.9383 77.5722 35.9383C77.5722 35.9383 66.8056 30.5182 69.7837 23.0739C72.7618 15.6296 82.0426 15.8841 82.0426 15.8841C82.0426 15.8841 88.4139 23.8144 79.1904 25.2057Z" fill="#171717" stroke="#171717" stroke-linecap="round" stroke-linejoin="round"/>
<path d="M81.8418 94.5824C81.8418 94.5824 86.6865 93.395 88.3799 89.1558" stroke="#171717" stroke-linecap="round" stroke-linejoin="round"/>
<path d="M100.542 178.88C100.542 178.88 95.5859 181.085 96.024 182.188C96.4621 183.29 100.965 181 101.908 182.188C102.851 183.375 97.4951 182.866 98.5101 184.646C99.5251 186.425 101.823 182.688 103.268 184.646C104.713 186.603 100.202 186.681 100.202 186.681" stroke="#171717" stroke-linecap="round" stroke-linejoin="round"/>
<path d="M118.472 133.466C118.472 133.466 113.744 135.077 114.345 136.265C114.947 137.452 118.727 133.72 119.45 135.162C120.172 136.604 116.076 137.445 116.87 138.385C117.665 139.324 119.832 136.731 120.64 137.494C121.447 138.258 119.152 140.166 119.152 140.166" stroke="#171717" stroke-linecap="round" stroke-linejoin="round"/>
<path d="M74.702 42.2148C72.3581 44.4984 64.9423 64.6912 65.3608 76.5051C65.7792 88.3191 65.3461 100.448 65.3461 100.448C65.3461 100.448 69.3849 100.469 70.5373 98.0648C70.5373 98.0648 74.2018 67.2618 75.042 63.9751C76.0897 59.8615 80.5503 50.1321 80.5503 50.1321" fill="white"/>
<path d="M74.702 42.2148C72.3581 44.4984 64.9423 64.6912 65.3608 76.5051C65.7792 88.3191 65.3461 100.448 65.3461 100.448C65.3461 100.448 69.3849 100.469 70.5373 98.0648C70.5373 98.0648 74.2018 67.2618 75.042 63.9751C76.0897 59.8615 80.5503 50.1321 80.5503 50.1321" stroke="#171717" stroke-linecap="round" stroke-linejoin="round"/>
<path d="M140.808 26.6558C140.808 26.6558 140.118 28.587 140.808 29.0926C141.498 29.5983 147.49 29.6456 147.812 28.7664C148.134 27.8873 147.581 26.646 147.581 26.646L140.808 26.6558Z" fill="#FFE603" stroke="#171717" stroke-linecap="round" stroke-linejoin="round"/>
<path d="M140.813 17.7795C140.813 17.7795 134.916 19.1578 135.468 25.8713L136.024 32.5881C136.024 32.5881 139.708 27.0767 140.169 25.6903" fill="white"/>
<path d="M140.813 17.7795C140.813 17.7795 134.916 19.1578 135.468 25.8713L136.024 32.5881C136.024 32.5881 139.708 27.0767 140.169 25.6903" stroke="#171717" stroke-linecap="round" stroke-linejoin="round"/>
<path d="M147.822 17.7795C147.822 17.7795 153.721 19.1578 153.167 25.8713L152.614 32.5849C152.614 32.5849 148.928 27.0767 148.467 25.6903" fill="white"/>
<path d="M147.822 17.7795C147.822 17.7795 153.721 19.1578 153.167 25.8713L152.614 32.5849C152.614 32.5849 148.928 27.0767 148.467 25.6903" stroke="#171717" stroke-linecap="round" stroke-linejoin="round"/>
<path d="M144.311 7.66675C138.229 11.3448 139.337 25.9724 139.337 25.9724C139.432 27.5415 144.311 27.8971 144.311 27.8971C144.311 27.8971 149.188 27.5415 149.285 25.9724C149.285 25.9724 150.393 11.3448 144.311 7.66675Z" fill="white" stroke="#171717" stroke-linecap="round" stroke-linejoin="round"/>
<path d="M145.12 19.3453C146.176 19.3453 147.032 18.4909 147.032 17.4369C147.032 16.383 146.176 15.5286 145.12 15.5286C144.063 15.5286 143.207 16.383 143.207 17.4369C143.207 18.4909 144.063 19.3453 145.12 19.3453Z" fill="#171717" stroke="#171717" stroke-linecap="round" stroke-linejoin="round"/>
<path d="M162.328 106.032C163.685 108.428 162.838 111.467 160.436 112.821C158.034 114.175 154.986 113.33 153.628 110.934C152.271 108.539 153.118 105.499 155.52 104.145C157.923 102.792 160.97 103.636 162.328 106.032Z" fill="#171717"/>
<path d="M78.2352 128.667C80.2191 132.169 78.9812 136.611 75.4702 138.59C71.9593 140.568 67.5048 139.334 65.5209 135.832C63.537 132.331 64.775 127.888 68.2859 125.91C71.7969 123.931 76.2513 125.166 78.2352 128.667Z" fill="#171717"/>
<path d="M202.181 62.0442C202.183 63.7996 201.921 65.5452 201.406 67.2229C200.401 67.0854 199.446 66.5768 198.975 65.6928C198.628 65.0412 198.564 64.2576 198.17 63.6307C197.776 63.0038 196.751 62.6807 196.33 63.2856C196.604 63.9084 196.866 64.5421 196.918 65.2103C196.97 65.8784 196.763 66.6153 196.232 67.0291C195.801 67.3645 195.222 67.4498 194.767 67.7481C193.685 68.4588 193.593 70.1168 192.541 70.8702C192.211 71.1058 191.814 71.2286 191.409 71.2202C191.004 71.2118 190.613 71.0727 190.293 70.8236C189.973 70.5745 189.742 70.2287 189.634 69.8375C189.526 69.4464 189.548 69.0309 189.694 68.6527C190.076 68.7261 190.471 68.6902 190.834 68.5489C191.196 68.4076 191.511 68.1667 191.743 67.8539C192.444 66.9205 192.318 65.6282 192.155 64.4707C191.996 63.2884 191.743 61.9494 190.718 61.3307C189.493 60.5883 187.677 61.24 186.633 60.2598C185.846 59.5215 185.946 58.2279 186.371 57.2353C186.795 56.2427 187.485 55.3601 187.735 54.3098C188.111 52.7357 187.442 51.1204 186.788 49.6356C186.025 47.9135 185.262 46.1905 184.5 44.4666H184.637C186.942 44.4651 189.224 44.9188 191.353 45.8017C193.483 46.6846 195.417 47.9793 197.047 49.6119C198.676 51.2444 199.969 53.1828 200.85 55.316C201.731 57.4493 202.183 59.7356 202.181 62.0442Z" fill="#FFE603" stroke="#171717" stroke-linecap="round" stroke-linejoin="round"/>
<path d="M201.572 67.5309C200.826 69.9432 199.579 72.1696 197.912 74.0633C196.245 75.957 194.197 77.475 191.903 78.5171C191.868 78.4502 191.839 78.3777 191.81 78.3121C191.267 76.9469 191.928 75.2441 191.134 74.003C190.492 73.0045 189.179 72.7395 188.011 72.5331C186.842 72.3267 185.528 71.9753 184.998 70.9071C184.532 69.9672 184.807 68.6675 184.024 67.9632C183.599 67.5783 182.982 67.5058 182.409 67.4542L179.488 67.1879C179.104 67.153 178.688 67.1265 178.359 67.3273C177.843 67.6494 177.79 68.4165 178.048 68.9687C178.307 69.5209 178.787 69.9295 179.193 70.3855C179.599 70.8416 179.953 71.4161 179.868 72.0213C179.783 72.6266 179.245 73.1105 178.674 73.3671C178.104 73.6237 177.475 73.7283 176.894 73.9625C176.281 74.2192 175.735 74.6147 175.3 75.1183C174.866 75.6218 174.553 76.2196 174.387 76.8646C172.048 75.223 170.139 73.0398 168.821 70.5003C167.504 67.9609 166.817 65.1402 166.819 62.2777C166.819 61.8858 166.831 61.4953 166.856 61.1104C167.47 61.4458 168.179 61.5642 168.868 61.4465C169.935 61.2345 170.785 60.2584 170.914 59.1846C170.892 59.6876 170.977 60.1896 171.163 60.6572C171.441 61.2624 172.092 61.7491 172.739 61.6027C173.322 61.4716 173.682 60.9054 174.048 60.4341C174.414 59.9627 174.984 59.497 175.553 59.681C176.151 59.8777 176.318 60.6293 176.408 61.2541C176.499 61.8788 176.734 62.6333 177.354 62.7434C177.755 62.816 178.161 62.551 178.368 62.1996C178.576 61.8482 178.626 61.427 178.647 61.0184C178.744 58.9266 178.181 56.8738 177.628 54.8601C177.076 52.8464 176.524 50.7824 176.655 48.6962C176.706 47.7842 176.913 46.8879 177.268 46.0466C179.527 45.0202 181.976 44.4819 184.455 44.4666C185.229 46.2162 186.002 47.9641 186.774 49.71C187.438 51.212 188.115 52.8506 187.734 54.4515C187.481 55.5169 186.783 56.4122 186.351 57.4191C185.92 58.4259 185.82 59.7354 186.617 60.4871C187.676 61.4814 189.516 60.8204 190.758 61.5734C191.79 62.201 192.053 63.5593 192.214 64.7586C192.373 65.9328 192.501 67.2436 191.797 68.1905C191.562 68.5078 191.242 68.7521 190.875 68.8955C190.508 69.0388 190.107 69.0753 189.72 69.0008C189.572 69.3844 189.55 69.8059 189.659 70.2027C189.769 70.5994 190.003 70.9502 190.327 71.2029C190.651 71.4556 191.048 71.5967 191.458 71.6052C191.869 71.6137 192.271 71.4892 192.605 71.2502C193.672 70.486 193.765 68.8041 194.861 68.0832C195.323 67.7805 195.91 67.6941 196.347 67.3538C196.887 66.9354 197.095 66.1922 197.043 65.5088C196.99 64.8255 196.717 64.1826 196.446 63.5565C196.873 62.9429 197.905 63.2776 198.311 63.9065C198.717 64.5354 198.776 65.3317 199.128 65.9983C199.585 66.8755 200.553 67.3942 201.572 67.5309Z" fill="white" stroke="#171717" stroke-linecap="round" stroke-linejoin="round"/>
<path d="M178.392 61.0016C178.373 61.403 178.326 61.8237 178.119 62.1621C177.913 62.5005 177.517 62.7677 177.124 62.6964C176.515 62.5882 176.284 61.847 176.195 61.2332C176.106 60.6193 175.942 59.8809 175.355 59.6877C174.796 59.5068 174.239 59.9617 173.877 60.4275C173.515 60.8934 173.164 61.4469 172.592 61.5757C171.957 61.7127 171.314 61.2414 171.045 60.6468C170.862 60.1859 170.78 59.6912 170.803 59.1958C170.823 59.0377 170.827 58.8779 170.814 58.719C170.814 58.8766 170.803 59.0355 170.803 59.1958C170.676 60.2508 169.847 61.2099 168.794 61.4181C168.117 61.5337 167.421 61.4174 166.819 61.0879C167.027 57.9249 168.087 54.8778 169.886 52.2718C171.685 49.6658 174.155 47.5986 177.034 46.2908C176.685 47.1173 176.481 47.998 176.431 48.894C176.31 50.9491 176.85 52.9687 177.387 54.9498C177.924 56.931 178.488 58.9492 178.392 61.0016Z" fill="#FFE603" stroke="#171717" stroke-linecap="round" stroke-linejoin="round"/>
<path d="M171.087 59.0597C171.087 58.8553 171.087 58.6526 171.087 58.4517C171.087 58.6543 171.087 58.858 171.087 59.0597Z" fill="white" stroke="#171717" stroke-linecap="round" stroke-linejoin="round"/>
<path d="M191.817 78.176C188.978 79.432 185.856 79.942 182.756 79.6559C179.656 79.3699 176.685 78.2976 174.135 76.5444C174.304 75.9057 174.622 75.3143 175.064 74.817C175.506 74.3198 176.06 73.9302 176.682 73.6791C177.269 73.4478 177.903 73.3459 178.478 73.0911C179.054 72.8364 179.601 72.3752 179.682 71.7624C179.764 71.1497 179.402 70.5948 179.002 70.1474C178.602 69.6999 178.107 69.2937 177.847 68.7484C177.587 68.2032 177.639 67.4459 178.16 67.1278C178.492 66.9268 178.912 66.953 179.299 66.9901L182.246 67.2531C182.824 67.3041 183.446 67.3757 183.875 67.7557C184.661 68.4441 184.383 69.7343 184.858 70.6623C185.392 71.7115 186.72 72.0626 187.897 72.2678C189.075 72.4729 190.401 72.7331 191.048 73.719C191.849 74.9403 191.188 76.6256 191.73 77.9736C191.752 78.0438 191.781 78.1099 191.817 78.176Z" fill="#FFE603" stroke="#171717" stroke-linecap="round" stroke-linejoin="round"/>
<path d="M171.087 59.0597C171.087 58.8553 171.087 58.6526 171.087 58.4517C171.087 58.6543 171.087 58.858 171.087 59.0597Z" fill="white" stroke="#171717" stroke-linecap="round" stroke-linejoin="round"/>
<path d="M42.2813 86.6333C47.8007 86.6333 52.2751 82.1711 52.2751 76.6666C52.2751 71.1622 47.8007 66.7 42.2813 66.7C36.762 66.7 32.2876 71.1622 32.2876 76.6666C32.2876 82.1711 36.762 86.6333 42.2813 86.6333Z" fill="white" stroke="#171717" stroke-linecap="round" stroke-linejoin="round"/>
<path d="M202.181 130.333C206.002 130.333 209.1 127.244 209.1 123.433C209.1 119.623 206.002 116.533 202.181 116.533C198.36 116.533 195.262 119.623 195.262 123.433C195.262 127.244 198.36 130.333 202.181 130.333Z" fill="white" stroke="#171717" stroke-linecap="round" stroke-linejoin="round"/>
</svg>
