<svg xmlns="http://www.w3.org/2000/svg" xmlns:xlink="http://www.w3.org/1999/xlink" width="37" height="37" viewBox="0 0 37 37">
    <defs>
        <path id="prefix__a" d="M0.004 0L36.864 0 36.864 36.864 0.004 36.864z"/>
    </defs>
    <g fill="none" fill-rule="evenodd">
        <path fill="#FFE603" d="M5.381 23.622c-.208.416-.127.92.202 1.248l.264.264c.763-.904 1.652-1.885 2.73-2.964.077-.076.156-.113.232-.183l-1.699-1.7c-.988 1.787-1.564 3.008-1.729 3.335zM14.687 28.28c-1.08 1.08-2.06 1.972-2.959 2.735l.358.358c.332.332.84.412 1.257.197.56-.288 1.44-.702 3.307-1.742l-1.78-1.78c-.07.077-.106.155-.183.232z"/>
        <mask id="prefix__b" fill="#fff">
            <use xlink:href="#prefix__a"/>
        </mask>
        <path fill="#FFE603" d="M14.111 22.748c-.78-.78-2.975-.081-4.006.95-3.45 3.449-5.007 5.894-5.707 7.338-.2.414-.117.91.209 1.234.325.326.821.409 1.235.208 1.412-.685 3.828-2.235 7.318-5.726 1.134-1.134 1.693-3.263.952-4.004zM3.371 14.38L.316 17.433c-.345.345-.416.88-.171 1.303.239.418.739.631 1.215.504 1.65-.443 3.103-.63 4.081-.379 1.392-2.474 2.887-4.752 4.471-6.82-.916-.588-3.943-.26-6.541 2.337zM18.28 36.748c.416.21.92.13 1.25-.2l3.054-3.055c2.365-2.366 2.782-5.418 2.245-6.386-2.307 1.74-4.645 3.208-6.826 4.437.15.85.05 1.674-.305 4.082-.07.466.171.917.582 1.122zM21.442 10.834c-1.263 1.263-1.263 3.318 0 4.582 1.263 1.263 3.318 1.263 4.582 0 1.263-1.264 1.263-3.319 0-4.582-1.264-1.264-3.319-1.264-4.582 0zM36.8 1.054c-.038-.535-.464-.957-.996-.997-2.652-.2-5.295.127-7.884.919.195 1.78 1.115 3.705 2.686 5.276 1.59 1.59 3.568 2.51 5.379 2.681.697-2.444 1.028-5.062.815-7.88z" mask="url(#prefix__b)"/>
        <path fill="#FFE603" d="M29.079 7.78c-1.797-1.798-2.895-3.954-3.247-6.052-6.485 2.66-12.694 8.468-17.6 16.628l2.438 2.437c1.665-.676 3.687-.855 4.969.427 1.284 1.284 1.102 3.305.426 4.968l2.517 2.518c6.279-3.784 13.588-9.745 16.696-17.676-2.15-.325-4.373-1.424-6.2-3.25zm-1.528 9.163c-2.105 2.105-5.531 2.105-7.637 0-2.105-2.105-2.105-5.532 0-7.637 2.106-2.105 5.532-2.105 7.637 0 2.105 2.106 2.105 5.532 0 7.637z"/>
    </g>
</svg>
