<svg width="64" height="64" viewBox="0 0 64 64" fill="none" xmlns="http://www.w3.org/2000/svg">
<circle cx="32" cy="32" r="32" fill="#FFE603"/>
<path d="M27.7271 28.4393L28.3673 27.671L27.7271 28.4393ZM27 22C27 21.4477 26.5523 21 26 21C25.4477 21 25 21.4477 25 22H27ZM39 22C39 21.4477 38.5523 21 38 21C37.4477 21 37 21.4477 37 22H39ZM36.2729 28.4393L36.9131 29.2075L36.2729 28.4393ZM25 42C25 42.5523 25.4477 43 26 43C26.5523 43 27 42.5523 27 42H25ZM27.7271 35.5607L28.3673 36.329L27.7271 35.5607ZM36.2729 35.5607L35.6327 36.329L36.2729 35.5607ZM37 42C37 42.5523 37.4477 43 38 43C38.5523 43 39 42.5523 39 42H37ZM37.4534 36.6786L36.6356 37.2541L37.4534 36.6786ZM37.897 37.6257L36.9313 37.8855L36.9313 37.8855L37.897 37.6257ZM26.103 37.6257L27.0687 37.8855L27.0687 37.8855L26.103 37.6257ZM26.5466 36.6786L27.3644 37.2541L26.5466 36.6786ZM37.897 26.3743L36.9313 26.1145V26.1145L37.897 26.3743ZM37.4534 27.3214L36.6356 26.7459V26.7459L37.4534 27.3214ZM26.5466 27.3214L27.3644 26.7459V26.7459L26.5466 27.3214ZM26.103 26.3743L25.1374 26.6341L26.103 26.3743ZM24 21C23.4477 21 23 21.4477 23 22C23 22.5523 23.4477 23 24 23V21ZM40 23C40.5523 23 41 22.5523 41 22C41 21.4477 40.5523 21 40 21V23ZM24 41C23.4477 41 23 41.4477 23 42C23 42.5523 23.4477 43 24 43V41ZM40 43C40.5523 43 41 42.5523 41 42C41 41.4477 40.5523 41 40 41V43ZM32.6402 31.2318L28.3673 27.671L27.0869 29.2075L31.3598 32.7682L32.6402 31.2318ZM27 24.7518V22H25V24.7518H27ZM37 22V24.7518H39V22H37ZM35.6327 27.671L31.3598 31.2318L32.6402 32.7682L36.9131 29.2075L35.6327 27.671ZM27 42V39.2482H25V42H27ZM28.3673 36.329L32.6402 32.7682L31.3598 31.2318L27.0869 34.7925L28.3673 36.329ZM31.3598 32.7682L35.6327 36.329L36.9131 34.7925L32.6402 31.2318L31.3598 32.7682ZM37 39.2482V42H39V39.2482H37ZM35.6327 36.329C36.3091 36.8926 36.5012 37.0632 36.6356 37.2541L38.2711 36.103C37.9491 35.6454 37.5063 35.2869 36.9131 34.7925L35.6327 36.329ZM39 39.2482C39 38.4759 39.008 37.9063 38.8626 37.3659L36.9313 37.8855C36.992 38.1109 37 38.3677 37 39.2482H39ZM36.6356 37.2541C36.7704 37.4456 36.8705 37.6593 36.9313 37.8855L38.8626 37.3659C38.7409 36.9136 38.5407 36.4861 38.2711 36.103L36.6356 37.2541ZM27 39.2482C27 38.3677 27.008 38.1109 27.0687 37.8855L25.1374 37.3659C24.992 37.9063 25 38.4759 25 39.2482H27ZM27.0869 34.7925C26.4937 35.2869 26.0509 35.6454 25.7289 36.103L27.3644 37.2541C27.4988 37.0632 27.6909 36.8926 28.3673 36.329L27.0869 34.7925ZM27.0687 37.8855C27.1295 37.6593 27.2296 37.4456 27.3644 37.2541L25.7289 36.103C25.4593 36.4861 25.2591 36.9136 25.1374 37.3659L27.0687 37.8855ZM37 24.7518C37 25.6323 36.992 25.8891 36.9313 26.1145L38.8626 26.6341C39.008 26.0937 39 25.5241 39 24.7518H37ZM36.9131 29.2075C37.5063 28.7131 37.9491 28.3546 38.2711 27.897L36.6356 26.7459C36.5012 26.9368 36.3091 27.1074 35.6327 27.671L36.9131 29.2075ZM36.9313 26.1145C36.8705 26.3407 36.7704 26.5544 36.6356 26.7459L38.2711 27.897C38.5407 27.5139 38.7409 27.0864 38.8626 26.6341L36.9313 26.1145ZM28.3673 27.671C27.6909 27.1074 27.4988 26.9368 27.3644 26.7459L25.7289 27.897C26.0509 28.3546 26.4937 28.7131 27.0869 29.2075L28.3673 27.671ZM25 24.7518C25 25.5241 24.992 26.0937 25.1374 26.6341L27.0687 26.1145C27.008 25.8891 27 25.6323 27 24.7518H25ZM27.3644 26.7459C27.2296 26.5544 27.1295 26.3407 27.0687 26.1145L25.1374 26.6341C25.2591 27.0864 25.4593 27.5139 25.7289 27.897L27.3644 26.7459ZM24 23H40V21H24V23ZM24 43H40V41H24V43Z" fill="#171717"/>
</svg>
