<svg width="24" height="24" viewBox="0 0 24 24" fill="none" xmlns="http://www.w3.org/2000/svg">
<path d="M13 16C13 15.4477 12.5523 15 12 15C11.4477 15 11 15.4477 11 16H13ZM11 21C11 21.5523 11.4477 22 12 22C12.5523 22 13 21.5523 13 21H11ZM14.0486 17.7072L13.4084 18.4754L14.0486 17.7072ZM17.3598 21.7682C17.7841 22.1218 18.4147 22.0645 18.7682 21.6402C19.1218 21.2159 19.0645 20.5853 18.6402 20.2318L17.3598 21.7682ZM5.35982 20.2318C4.93554 20.5853 4.87821 21.2159 5.23178 21.6402C5.58534 22.0645 6.21591 22.1218 6.64018 21.7682L5.35982 20.2318ZM9.95141 17.7072L9.31123 16.9389V16.9389L9.95141 17.7072ZM12.5487 16.6801L12.2743 17.6418L12.5487 16.6801ZM11.4513 16.6801L11.7257 17.6418L11.4513 16.6801ZM3 3V2C2.44772 2 2 2.44772 2 3H3ZM21 3H22C22 2.44772 21.5523 2 21 2V3ZM4.63803 15.673L4.18404 16.564L4.63803 15.673ZM3.32698 14.362L2.43597 14.816L3.32698 14.362ZM20.673 14.362L21.564 14.816L20.673 14.362ZM19.362 15.673L19.816 16.564L19.362 15.673ZM9 11C9 10.4477 8.55228 10 8 10C7.44772 10 7 10.4477 7 11H9ZM7 12C7 12.5523 7.44772 13 8 13C8.55228 13 9 12.5523 9 12H7ZM13 9C13 8.44772 12.5523 8 12 8C11.4477 8 11 8.44772 11 9H13ZM11 12C11 12.5523 11.4477 13 12 13C12.5523 13 13 12.5523 13 12H11ZM17 7C17 6.44772 16.5523 6 16 6C15.4477 6 15 6.44772 15 7H17ZM15 12C15 12.5523 15.4477 13 16 13C16.5523 13 17 12.5523 17 12H15ZM22 4C22.5523 4 23 3.55228 23 3C23 2.44772 22.5523 2 22 2V4ZM2 2C1.44772 2 1 2.44772 1 3C1 3.55228 1.44772 4 2 4V2ZM11 16V21H13V16H11ZM13.4084 18.4754L17.3598 21.7682L18.6402 20.2318L14.6888 16.9389L13.4084 18.4754ZM6.64018 21.7682L10.5916 18.4754L9.31123 16.9389L5.35982 20.2318L6.64018 21.7682ZM14.6888 16.9389C14.3358 16.6448 14.0294 16.3886 13.7588 16.1955C13.478 15.995 13.1793 15.8202 12.823 15.7185L12.2743 17.6418C12.3248 17.6562 12.4117 17.6911 12.5969 17.8234C12.7924 17.9629 13.0326 18.1622 13.4084 18.4754L14.6888 16.9389ZM10.5916 18.4754C10.9674 18.1622 11.2076 17.9629 11.4031 17.8234C11.5883 17.6911 11.6752 17.6562 11.7257 17.6418L11.177 15.7185C10.8207 15.8202 10.522 15.995 10.2412 16.1955C9.97058 16.3886 9.66418 16.6448 9.31123 16.9389L10.5916 18.4754ZM12.823 15.7185C12.2851 15.5651 11.7149 15.5651 11.177 15.7185L11.7257 17.6418C11.905 17.5906 12.095 17.5906 12.2743 17.6418L12.823 15.7185ZM3 4H21V2H3V4ZM20 3V11.2H22V3H20ZM16.2 15H7.8V17H16.2V15ZM4 11.2V3H2V11.2H4ZM7.8 15C6.94342 15 6.36113 14.9992 5.91104 14.9624C5.47262 14.9266 5.24842 14.8617 5.09202 14.782L4.18404 16.564C4.66937 16.8113 5.18608 16.9099 5.74817 16.9558C6.2986 17.0008 6.97642 17 7.8 17V15ZM2 11.2C2 12.0236 1.99922 12.7014 2.04419 13.2518C2.09012 13.8139 2.18868 14.3306 2.43597 14.816L4.21799 13.908C4.1383 13.7516 4.07337 13.5274 4.03755 13.089C4.00078 12.6389 4 12.0566 4 11.2H2ZM5.09202 14.782C4.7157 14.5903 4.40973 14.2843 4.21799 13.908L2.43597 14.816C2.81947 15.5686 3.43139 16.1805 4.18404 16.564L5.09202 14.782ZM20 11.2C20 12.0566 19.9992 12.6389 19.9624 13.089C19.9266 13.5274 19.8617 13.7516 19.782 13.908L21.564 14.816C21.8113 14.3306 21.9099 13.8139 21.9558 13.2518C22.0008 12.7014 22 12.0236 22 11.2H20ZM16.2 17C17.0236 17 17.7014 17.0008 18.2518 16.9558C18.8139 16.9099 19.3306 16.8113 19.816 16.564L18.908 14.782C18.7516 14.8617 18.5274 14.9266 18.089 14.9624C17.6389 14.9992 17.0566 15 16.2 15V17ZM19.782 13.908C19.5903 14.2843 19.2843 14.5903 18.908 14.782L19.816 16.564C20.5686 16.1805 21.1805 15.5686 21.564 14.816L19.782 13.908ZM7 11V12H9V11H7ZM11 9V12H13V9H11ZM15 7V12H17V7H15ZM22 2H2V4H22V2Z" fill="#171717"/>
</svg>
