<svg xmlns="http://www.w3.org/2000/svg" xmlns:xlink="http://www.w3.org/1999/xlink" width="16" height="16" viewBox="0 0 16 16">
    <defs>
        <path id="nh47ymtoba" d="M0.002 0L14.831 0 14.831 12.923 0.002 12.923z" />
    </defs>
    <g fill="none" fill-rule="evenodd">
        <g>
            <g>
                <g>
                    <g transform="translate(-619 -6188) translate(611 6181) translate(8 7) translate(0 2.83)">
                        <mask id="amubiy68pb" fill="#fff">
                            <use xlink:href="#nh47ymtoba" />
                        </mask>
                        <path fill="#0A090B" d="M.923 11.077h.923V5.538H.923v5.539zm3.754.461c0 .255-.207.462-.462.462H2.77V5.538h1.908v6zm3.64-7.078c1.06-.532 1.71-2.212 1.863-3.462.196.072.374.193.513.356.237.275.343.639.289.998-.219 1.467-.493 2.069-.718 2.518-.071.144-.064.313.02.45.084.136.233.218.393.218h2.77c.254 0 .46.208.46.462s-.206.462-.46.462h-2.77c-.255 0-.462.206-.462.461s.207.462.462.462h2.77c.254 0 .46.207.46.461 0 .255-.206.462-.46.462h-2.77c-.255 0-.462.206-.462.461s.207.462.462.462h1.846c.255 0 .462.207.462.461 0 .255-.207.462-.462.462h-1.846c-.255 0-.462.206-.462.461s.207.462.462.462h.923c.254 0 .462.207.462.461 0 .255-.208.462-.462.462H8.888L5.6 11.178V5.427c.623-.179 1.944-.58 2.717-.967zM.462 12h1.384v.462c0 .254.207.461.462.461h1.907c.564 0 1.05-.339 1.266-.823l3.238.81c.036.008.074.013.112.013H11.6c.763 0 1.385-.621 1.385-1.385 0-.18-.035-.352-.098-.51.588-.16 1.02-.698 1.02-1.336 0-.18-.034-.352-.097-.51.588-.16 1.02-.698 1.02-1.336 0-.354-.133-.678-.353-.923.22-.245.354-.569.354-.923 0-.763-.621-1.385-1.385-1.385H11.39c.254-.688.412-1.507.505-2.126.093-.626-.09-1.26-.503-1.738C10.982.274 10.384 0 9.754 0c-.255 0-.462.207-.462.462 0 1.115-.64 2.798-1.388 3.173-.842.422-2.498.89-2.828.98H.462c-.255 0-.462.207-.462.462v6.461c0 .255.207.462.462.462z" mask="url(#amubiy68pb)" />
                    </g>
                    <path fill="#0A090B" d="M9.754.462v.984c0 .255.206.462.461.462s.462-.207.462-.462V.462c0-.255-.207-.462-.462-.462s-.461.207-.461.462M7.604 2.99c.18-.181.18-.473 0-.654l-.652-.652c-.18-.18-.473-.18-.653 0-.18.18-.18.472 0 .652l.653.653c.18.18.472.18.652 0M5.138 5.138c-.254 0-.461.207-.461.462s.207.462.461.462h.924c.254 0 .461-.207.461-.462s-.207-.462-.461-.462h-.924M15.292 5.138h-.923c-.255 0-.461.207-.461.462s.206.462.461.462h.923c.255 0 .462-.207.462-.462s-.207-.462-.462-.462M13.479 2.99l.653-.654c.18-.18.18-.472 0-.652-.18-.18-.473-.18-.653 0l-.653.652c-.18.18-.18.473 0 .653.18.18.473.18.653 0" transform="translate(-619 -6188) translate(611 6181) translate(8 7)" />
                </g>
            </g>
        </g>
    </g>
</svg>
