<svg width="64" height="64" viewBox="0 0 64 64" fill="none" xmlns="http://www.w3.org/2000/svg">
<circle cx="32" cy="32" r="32" fill="#FFE603"/>
<path d="M41 31C41.5523 31 42 30.5523 42 30C42 29.4477 41.5523 29 41 29V31ZM23 29C22.4477 29 22 29.4477 22 30C22 30.5523 22.4477 31 23 31V29ZM24.638 41.673L24.184 42.564L24.638 41.673ZM23.327 40.362L22.436 40.816L23.327 40.362ZM40.673 40.362L41.564 40.816L40.673 40.362ZM39.362 41.673L39.816 42.564L39.362 41.673ZM39.362 24.327L39.816 23.436L39.362 24.327ZM40.673 25.638L41.564 25.184L40.673 25.638ZM24.638 24.327L24.184 23.436L24.638 24.327ZM23.327 25.638L22.436 25.184L23.327 25.638ZM37 22C37 21.4477 36.5523 21 36 21C35.4477 21 35 21.4477 35 22H37ZM35 26C35 26.5523 35.4477 27 36 27C36.5523 27 37 26.5523 37 26H35ZM29 22C29 21.4477 28.5523 21 28 21C27.4477 21 27 21.4477 27 22H29ZM27 26C27 26.5523 27.4477 27 28 27C28.5523 27 29 26.5523 29 26H27ZM41 29H23V31H41V29ZM27.8 25H36.2V23H27.8V25ZM40 28.8V37.2H42V28.8H40ZM36.2 41H27.8V43H36.2V41ZM24 37.2V28.8H22V37.2H24ZM27.8 41C26.9434 41 26.3611 40.9992 25.911 40.9624C25.4726 40.9266 25.2484 40.8617 25.092 40.782L24.184 42.564C24.6694 42.8113 25.1861 42.9099 25.7482 42.9558C26.2986 43.0008 26.9764 43 27.8 43V41ZM22 37.2C22 38.0236 21.9992 38.7014 22.0442 39.2518C22.0901 39.8139 22.1887 40.3306 22.436 40.816L24.218 39.908C24.1383 39.7516 24.0734 39.5274 24.0376 39.089C24.0008 38.6389 24 38.0566 24 37.2H22ZM25.092 40.782C24.7157 40.5903 24.4097 40.2843 24.218 39.908L22.436 40.816C22.8195 41.5686 23.4314 42.1805 24.184 42.564L25.092 40.782ZM40 37.2C40 38.0566 39.9992 38.6389 39.9624 39.089C39.9266 39.5274 39.8617 39.7516 39.782 39.908L41.564 40.816C41.8113 40.3306 41.9099 39.8139 41.9558 39.2518C42.0008 38.7014 42 38.0236 42 37.2H40ZM36.2 43C37.0236 43 37.7014 43.0008 38.2518 42.9558C38.8139 42.9099 39.3306 42.8113 39.816 42.564L38.908 40.782C38.7516 40.8617 38.5274 40.9266 38.089 40.9624C37.6389 40.9992 37.0566 41 36.2 41V43ZM39.782 39.908C39.5903 40.2843 39.2843 40.5903 38.908 40.782L39.816 42.564C40.5686 42.1805 41.1805 41.5686 41.564 40.816L39.782 39.908ZM36.2 25C37.0566 25 37.6389 25.0008 38.089 25.0376C38.5274 25.0734 38.7516 25.1383 38.908 25.218L39.816 23.436C39.3306 23.1887 38.8139 23.0901 38.2518 23.0442C37.7014 22.9992 37.0236 23 36.2 23V25ZM42 28.8C42 27.9764 42.0008 27.2986 41.9558 26.7482C41.9099 26.1861 41.8113 25.6694 41.564 25.184L39.782 26.092C39.8617 26.2484 39.9266 26.4726 39.9624 26.911C39.9992 27.3611 40 27.9434 40 28.8H42ZM38.908 25.218C39.2843 25.4097 39.5903 25.7157 39.782 26.092L41.564 25.184C41.1805 24.4314 40.5686 23.8195 39.816 23.436L38.908 25.218ZM27.8 23C26.9764 23 26.2986 22.9992 25.7482 23.0442C25.1861 23.0901 24.6694 23.1887 24.184 23.436L25.092 25.218C25.2484 25.1383 25.4726 25.0734 25.911 25.0376C26.3611 25.0008 26.9434 25 27.8 25V23ZM24 28.8C24 27.9434 24.0008 27.3611 24.0376 26.911C24.0734 26.4726 24.1383 26.2484 24.218 26.092L22.436 25.184C22.1887 25.6694 22.0901 26.1861 22.0442 26.7482C21.9992 27.2986 22 27.9764 22 28.8H24ZM24.184 23.436C23.4314 23.8195 22.8195 24.4314 22.436 25.184L24.218 26.092C24.4097 25.7157 24.7157 25.4097 25.092 25.218L24.184 23.436ZM35 22V26H37V22H35ZM27 22V26H29V22H27Z" fill="#171717"/>
</svg>
