<svg width="64" height="64" viewBox="0 0 64 64" fill="none" xmlns="http://www.w3.org/2000/svg">
<circle cx="32" cy="32" r="32" fill="#FFE603"/>
<path d="M33.5 33.5L33.8939 32.5809C33.8684 32.5699 33.8425 32.5601 33.8162 32.5513L33.5 33.5ZM31.0528 34.9253L32.0269 35.1514L31.0528 34.9253ZM31.1048 35.3144L30.1561 35.6306L31.1048 35.3144ZM31.0417 35.0814L32.038 34.9954L31.0417 35.0814ZM32.6582 33.2194L32.9745 32.2707V32.2707L32.6582 33.2194ZM32.1999 33.1143L32.0932 32.12L32.1999 33.1143ZM31.9395 33.2222L32.5671 34.0007L31.9395 33.2222ZM36.4665 35.8002L37.2986 36.3549H37.2986L36.4665 35.8002ZM36.7496 35.2537L37.7477 35.3155L36.7496 35.2537ZM36.116 34.6211L36.5099 33.702L36.116 34.6211ZM36.6517 34.9243L37.4539 34.3273L36.6517 34.9243ZM31.8177 37.453L32.7663 37.1368L31.8177 37.453ZM31.9768 37.8208L31.2097 38.4623L31.9768 37.8208ZM32.1774 37.9653L32.5434 37.0347L32.1774 37.9653ZM35.2375 37.6438L34.4054 37.0891H34.4054L35.2375 37.6438ZM35.0499 37.8863L34.4149 37.1137L35.0499 37.8863ZM34.8777 37.9784L35.1683 38.9353L34.8777 37.9784ZM23.6572 26.6691C23.2078 26.3481 22.5833 26.4522 22.2622 26.9016C21.9412 27.351 22.0453 27.9756 22.4948 28.2966L23.6572 26.6691ZM27.364 30.5457L26.7828 31.3594L26.7828 31.3594L27.364 30.5457ZM28.469 30.3747L27.669 29.7747L27.669 29.7747L28.469 30.3747ZM29.3751 29.1665L28.5751 28.5665L28.5751 28.5665L29.3751 29.1665ZM29.6902 28.9155L30.0963 29.8293H30.0963L29.6902 28.9155ZM33.5588 27.1961L33.1527 26.2823L33.5588 27.1961ZM34.0321 26.5183L33.0343 26.4517V26.4517L34.0321 26.5183ZM35.3132 22.3359C35.3499 21.7849 34.933 21.3084 34.3819 21.2716C33.8308 21.2349 33.3543 21.6518 33.3176 22.2029L35.3132 22.3359ZM33.8598 27.0335L34.5371 27.7693L34.5371 27.7693L33.8598 27.0335ZM33.9832 26.8568L33.0592 26.4745L33.9832 26.8568ZM29.4722 29.0467L28.7728 28.332L28.7728 28.332L29.4722 29.0467ZM29.5517 28.9834L29.0113 28.142L29.0113 28.142L29.5517 28.9834ZM27.8155 30.8031L27.9708 29.8152H27.9708L27.8155 30.8031ZM28.1165 30.7565L27.6698 29.8618L27.6698 29.8618L28.1165 30.7565ZM36.0695 38.1985L37.2986 36.3549L35.6345 35.2455L34.4054 37.0891L36.0695 38.1985ZM36.5099 33.702L33.8939 32.5809L33.1061 34.4191L35.7221 35.5403L36.5099 33.702ZM33.8162 32.5513L32.9745 32.2707L32.342 34.1681L33.1838 34.4487L33.8162 32.5513ZM30.7953 33.1734L30.2538 34.2564L32.0426 35.1508L32.5841 34.0678L30.7953 33.1734ZM30.1561 35.6306L30.869 37.7692L32.7663 37.1368L32.0535 34.9981L30.1561 35.6306ZM32.5766 39H34.5719V37H32.5766V39ZM30.2538 34.2564C30.2204 34.3232 30.125 34.4995 30.0787 34.6993L32.0269 35.1514C32.024 35.1639 32.0208 35.1759 32.0175 35.1871C32.0142 35.1982 32.011 35.2079 32.0081 35.216C32.0026 35.2317 31.9985 35.2407 31.9989 35.2398C31.9991 35.2395 32 35.2374 32.002 35.2332C32.004 35.2289 32.0067 35.2232 32.0105 35.2154C32.0143 35.2076 32.0188 35.1985 32.0243 35.1876C32.0297 35.1766 32.0357 35.1647 32.0426 35.1508L30.2538 34.2564ZM32.0535 34.9981C32.0486 34.9834 32.0444 34.9708 32.0405 34.9591C32.0367 34.9475 32.0335 34.9379 32.0308 34.9297C32.0282 34.9214 32.0263 34.9154 32.0249 34.9109C32.0235 34.9064 32.0229 34.9042 32.0228 34.9039C32.0225 34.903 32.0253 34.9124 32.0285 34.9287C32.0302 34.9371 32.032 34.9472 32.0337 34.9587C32.0354 34.9703 32.0369 34.9825 32.038 34.9954L30.0454 35.1674C30.063 35.3717 30.1325 35.5597 30.1561 35.6306L32.0535 34.9981ZM30.0787 34.6993C30.0431 34.8526 30.0319 35.0106 30.0454 35.1674L32.038 34.9954C32.0425 35.0476 32.0388 35.1003 32.0269 35.1514L30.0787 34.6993ZM32.9745 32.2707C32.8722 32.2366 32.7426 32.1927 32.625 32.1633C32.4953 32.1308 32.3108 32.0967 32.0932 32.12L32.3066 34.1086C32.2535 34.1143 32.2086 34.1125 32.1767 34.1091C32.1475 34.1059 32.1324 34.1017 32.1392 34.1034C32.1466 34.1052 32.1644 34.1101 32.2012 34.1218C32.2382 34.1335 32.2816 34.148 32.342 34.1681L32.9745 32.2707ZM32.5841 34.0678C32.6126 34.0109 32.6331 33.9699 32.6509 33.9355C32.6687 33.9012 32.6779 33.8851 32.6818 33.8787C32.6854 33.8727 32.6777 33.8863 32.6593 33.9092C32.6392 33.9342 32.6087 33.9672 32.5671 34.0007L31.3119 32.4437C31.1415 32.581 31.0351 32.7356 30.9664 32.8503C30.9041 32.9543 30.8435 33.077 30.7953 33.1734L32.5841 34.0678ZM32.0932 32.12C31.8071 32.1507 31.5359 32.2631 31.3119 32.4437L32.5671 34.0007C32.4924 34.0609 32.402 34.0984 32.3066 34.1086L32.0932 32.12ZM37.2986 36.3549C37.3802 36.2325 37.478 36.0874 37.5507 35.9548C37.6276 35.8143 37.7304 35.5952 37.7477 35.3155L35.7515 35.1919C35.756 35.1199 35.7711 35.063 35.7837 35.027C35.795 34.9946 35.8037 34.9809 35.7966 34.9939C35.7895 35.0069 35.7749 35.0316 35.7457 35.077C35.7167 35.1222 35.6816 35.1748 35.6345 35.2455L37.2986 36.3549ZM35.7221 35.5403C35.8002 35.5738 35.8583 35.5987 35.9073 35.6207C35.9566 35.6428 35.9823 35.6555 35.9954 35.6625C36.0084 35.6695 35.9936 35.6628 35.9665 35.6418C35.9362 35.6185 35.8925 35.5792 35.8494 35.5213L37.4539 34.3273C37.2867 34.1025 37.0809 33.9751 36.9397 33.8995C36.8064 33.8281 36.6452 33.76 36.5099 33.702L35.7221 35.5403ZM37.7477 35.3155C37.7696 34.9617 37.6655 34.6117 37.4539 34.3273L35.8494 35.5213C35.7789 35.4265 35.7442 35.3098 35.7515 35.1919L37.7477 35.3155ZM30.869 37.7692C30.9076 37.885 30.9978 38.2089 31.2097 38.4623L32.7439 37.1793C32.7728 37.2138 32.7936 37.2459 32.8074 37.2706C32.8201 37.2932 32.8254 37.3067 32.8237 37.3026C32.8218 37.2979 32.8165 37.2845 32.806 37.2543C32.8009 37.2398 32.7953 37.2231 32.7886 37.2033C32.7818 37.1833 32.7746 37.1617 32.7663 37.1368L30.869 37.7692ZM32.5766 37C32.5504 37 32.5276 37 32.5065 37C32.4855 36.9999 32.4679 36.9998 32.4526 36.9996C32.4206 36.9991 32.4062 36.9984 32.4011 36.9981C32.3967 36.9977 32.4112 36.9985 32.4367 37.0034C32.4645 37.0087 32.5015 37.0182 32.5434 37.0347L31.8114 38.8959C32.1187 39.0168 32.4546 39 32.5766 39V37ZM31.2097 38.4623C31.3708 38.6549 31.5777 38.804 31.8114 38.8959L32.5434 37.0347C32.6213 37.0654 32.6902 37.1151 32.7439 37.1793L31.2097 38.4623ZM34.4054 37.0891C34.3944 37.1056 34.385 37.1198 34.3762 37.1329C34.3674 37.146 34.3601 37.1568 34.3538 37.1661C34.3474 37.1754 34.3426 37.1823 34.339 37.1874C34.3353 37.1926 34.3335 37.1951 34.333 37.1957C34.3318 37.1973 34.3389 37.1876 34.3529 37.1724C34.3601 37.1645 34.3691 37.1552 34.3797 37.145C34.3905 37.1347 34.4022 37.1242 34.4149 37.1137L35.6848 38.6588C35.884 38.4951 36.0173 38.2769 36.0695 38.1985L34.4054 37.0891ZM34.5719 39C34.6661 39 34.9216 39.0102 35.1683 38.9353L34.5871 37.0216C34.6029 37.0168 34.6181 37.0128 34.6326 37.0096C34.647 37.0064 34.6597 37.0041 34.6703 37.0025C34.6908 36.9993 34.7028 36.9988 34.7008 36.9989C34.7 36.9989 34.6968 36.9991 34.6906 36.9993C34.6843 36.9995 34.6759 36.9996 34.6646 36.9997C34.6533 36.9999 34.6403 36.9999 34.6246 37C34.6088 37 34.5917 37 34.5719 37V39ZM34.4149 37.1137C34.4657 37.072 34.5242 37.0407 34.5871 37.0216L35.1683 38.9353C35.357 38.878 35.5325 38.7841 35.6848 38.6588L34.4149 37.1137ZM22.4948 28.2966L26.7828 31.3594L27.9453 29.7319L23.6572 26.6691L22.4948 28.2966ZM29.269 30.9747L30.1751 29.7665L28.5751 28.5665L27.669 29.7747L29.269 30.9747ZM30.0963 29.8293L33.9649 28.1099L33.1527 26.2823L29.2841 28.0017L30.0963 29.8293ZM35.0299 26.5848L35.3132 22.3359L33.3176 22.2029L33.0343 26.4517L35.0299 26.5848ZM33.9649 28.1099C34.0607 28.0673 34.3269 27.9628 34.5371 27.7693L33.1826 26.2978C33.1961 26.2853 33.2096 26.2739 33.2227 26.2638C33.2357 26.2537 33.2474 26.2454 33.2573 26.2389C33.2763 26.2263 33.2879 26.2204 33.2854 26.2217C33.2845 26.2222 33.2811 26.2239 33.2746 26.2271C33.2681 26.2302 33.2595 26.2343 33.2479 26.2396C33.2363 26.2449 33.2229 26.251 33.2067 26.2582C33.1905 26.2655 33.173 26.2732 33.1527 26.2823L33.9649 28.1099ZM33.0343 26.4517C33.0329 26.4739 33.0316 26.4931 33.0303 26.5108C33.0291 26.5284 33.0281 26.5431 33.0271 26.5558C33.0261 26.5685 33.0252 26.578 33.0245 26.5852C33.0238 26.5924 33.0234 26.5962 33.0232 26.5973C33.0229 26.6 33.0244 26.5871 33.0296 26.5649C33.0324 26.5534 33.0361 26.5396 33.0411 26.5239C33.0461 26.5081 33.0521 26.4915 33.0592 26.4745L34.9072 27.2392C35.0164 26.9752 35.0229 26.6893 35.0299 26.5848L33.0343 26.4517ZM34.5371 27.7693C34.6975 27.6216 34.8238 27.4407 34.9072 27.2392L33.0592 26.4745C33.087 26.4073 33.1291 26.347 33.1826 26.2978L34.5371 27.7693ZM30.1751 29.7665C30.181 29.7586 30.1861 29.7519 30.1907 29.7457C30.1954 29.7396 30.1992 29.7345 30.2025 29.7302C30.2057 29.7259 30.2081 29.7228 30.2099 29.7205C30.2107 29.7194 30.2113 29.7186 30.2118 29.718C30.2122 29.7175 30.2124 29.7172 30.2124 29.7172C30.2124 29.7172 30.2122 29.7175 30.2117 29.7181C30.2112 29.7187 30.2105 29.7195 30.2096 29.7206C30.2078 29.7229 30.205 29.7262 30.2013 29.7303C30.1937 29.7389 30.1837 29.7497 30.1717 29.7614L28.7728 28.332C28.6783 28.4245 28.604 28.5281 28.5751 28.5665L30.1751 29.7665ZM29.2841 28.0017C29.2401 28.0212 29.1226 28.0705 29.0113 28.142L30.0922 29.8248C30.078 29.8339 30.0653 29.8412 30.0552 29.8467C30.0503 29.8494 30.0465 29.8514 30.0439 29.8527C30.0426 29.8533 30.0416 29.8538 30.041 29.8541C30.0403 29.8545 30.04 29.8546 30.04 29.8546C30.04 29.8546 30.0403 29.8545 30.0409 29.8542C30.0415 29.8539 30.0425 29.8535 30.0437 29.8529C30.0463 29.8517 30.0499 29.85 30.0548 29.8478C30.0598 29.8456 30.0655 29.843 30.0726 29.8398C30.0797 29.8367 30.0873 29.8333 30.0963 29.8293L29.2841 28.0017ZM30.1717 29.7614C30.1474 29.7852 30.1207 29.8064 30.0922 29.8248L29.0113 28.142C28.9256 28.1971 28.8457 28.2607 28.7728 28.332L30.1717 29.7614ZM26.7828 31.3594C26.8811 31.4296 27.0028 31.5175 27.1159 31.5852C27.2393 31.6591 27.4228 31.7536 27.6601 31.7909L27.9708 29.8152C28.0298 29.8245 28.0769 29.8401 28.1088 29.8533C28.1378 29.8652 28.1513 29.8741 28.1433 29.8693C28.135 29.8643 28.1167 29.8527 28.0808 29.8278C28.0448 29.803 28.0029 29.7731 27.9453 29.7319L26.7828 31.3594ZM27.669 29.7747C27.6265 29.8313 27.5956 29.8725 27.5688 29.9071C27.5421 29.9416 27.5281 29.9582 27.5217 29.9655C27.5155 29.9724 27.5258 29.9599 27.5498 29.9398C27.5762 29.9176 27.6164 29.8884 27.6698 29.8618L28.5631 31.6512C28.7781 31.5439 28.9245 31.3983 29.0197 31.2906C29.1071 31.1918 29.1965 31.0713 29.269 30.9747L27.669 29.7747ZM27.6601 31.7909C27.9683 31.8394 28.284 31.7906 28.5632 31.6512L27.6698 29.8618C27.7629 29.8153 27.8681 29.7991 27.9708 29.8152L27.6601 31.7909ZM41 32C41 36.9706 36.9706 41 32 41V43C38.0751 43 43 38.0751 43 32H41ZM32 41C27.0294 41 23 36.9706 23 32H21C21 38.0751 25.9249 43 32 43V41ZM23 32C23 27.0294 27.0294 23 32 23V21C25.9249 21 21 25.9249 21 32H23ZM32 23C36.9706 23 41 27.0294 41 32H43C43 25.9249 38.0751 21 32 21V23Z" fill="#171717"/>
</svg>
