<svg xmlns="http://www.w3.org/2000/svg" width="50" height="100" viewBox="0 0 114 169">
  <g fill="none">
    <g fill="#FFF" stroke="#FFF" stroke-width="30">
      <path d="M55.6 55.7H83.2V83.30000000000001H55.6zM27.9 28.1H55.5V55.7H27.9zM27.9 83.3H55.5V110.9H27.9z" transform="translate(15 15)"/>
      <path d="M.3.6H27.900000000000002V28.200000000000003H.3zM.3 110.9H27.900000000000002V138.5H.3z" transform="translate(15 15)"/>
    </g>
    <g fill="#000">
      <path d="M55.6 55.7H83.2V83.30000000000001H55.6zM27.9 28.1H55.5V55.7H27.9zM27.9 83.3H55.5V110.9H27.9z" transform="translate(15 15)"/>
      <path d="M.3.6H27.900000000000002V28.200000000000003H.3zM.3 110.9H27.900000000000002V138.5H.3z" transform="translate(15 15)"/>
    </g>
  </g>
</svg>