<svg xmlns="http://www.w3.org/2000/svg" width="111" height="18" viewBox="0 0 111 18">
    <g fill="none" fill-rule="evenodd">
        <g fill="#0C5794" fill-rule="nonzero">
            <g>
                <path d="M383.776 52V35.68h10.416v2.88h-7.104v4.8h5.808v2.88h-5.808V52h-3.312zm15.384.288c-2.52 0-3.72-1.392-3.72-3.936 0-2.712 1.56-3.48 4.2-3.672l2.568-.192v-.744c0-1.032-.456-1.296-1.416-1.296-1.152 0-3.264.12-4.512.192l-.096-2.232c1.104-.288 3.192-.696 4.872-.696 3.12 0 4.368 1.224 4.368 4.032v4.992c.048.72.144 1.008.792 1.128l-.096 2.424c-.888 0-1.512-.048-2.088-.216-.48-.12-.888-.312-1.344-.624-.744.36-2.208.84-3.528.84zm.696-2.616c.744 0 1.776-.216 2.352-.384V46.72l-2.184.192c-.84.072-1.344.48-1.344 1.344 0 .84.312 1.416 1.176 1.416zm8.64 2.328V40h3.192v.672c.72-.408 1.968-.96 2.832-.96 1.344 0 2.28.36 3 1.128.96-.48 2.712-1.128 4.032-1.128 3.264 0 4.224 1.92 4.224 5.784V52h-3.216v-6.408c0-1.824-.24-3-1.68-3-.696 0-1.68.264-2.232.456.048.768.096 2.064.096 2.736V52h-3.216v-6.168c0-2.16-.192-3.24-1.68-3.24-.768 0-1.68.24-2.136.432V52h-3.216zm20.28 0V35.2h3.216V52h-3.216zm6.336-13.536V35.2h3.216v3.264h-3.216zm0 13.536V40h3.216v12h-3.216zm10.608.288c-3.576 0-4.992-1.896-4.992-6.408 0-4.248 1.488-6.168 5.064-6.168 1.008 0 2.784.312 3.84.528l-.096 2.544c-.816-.072-2.136-.192-2.808-.192-2.304 0-2.736.888-2.736 3.288 0 2.688.456 3.528 2.76 3.528.672 0 1.968-.12 2.784-.192l.096 2.568c-1.104.216-2.928.504-3.912.504zm6.288-13.824V35.2h3.216v3.264h-3.216zm0 13.536V40h3.216v12h-3.216zm11.088.288c-4.176 0-5.52-2.616-5.52-6.312s1.344-6.264 5.52-6.264c4.176 0 5.52 2.568 5.52 6.264s-1.344 6.312-5.52 6.312zm0-2.736c1.776 0 2.256-1.248 2.256-3.576 0-2.328-.48-3.528-2.256-3.528-1.776 0-2.256 1.2-2.256 3.528 0 2.328.48 3.576 2.256 3.576zm11.688 2.736c-3.216 0-3.936-2.208-3.936-6V40h3.216v6.336c0 2.16.096 3.072 1.704 3.072.84 0 1.8-.24 2.28-.432V40h3.216v12h-3.192v-.672c-1.296.672-2.136.96-3.288.96zm13.632 0c-1.296 0-3.384-.336-4.608-.576l.096-2.688c1.272.168 3.312.384 4.2.384 1.536 0 1.944-.312 1.944-.936 0-.528-.264-.768-2.472-1.128-2.592-.432-3.96-1.056-3.96-3.696 0-2.784 2.112-3.912 4.632-3.912 1.272 0 3.408.336 4.656.6L492.856 43c-1.272-.168-3.36-.384-4.368-.384-1.392 0-1.68.312-1.68.96 0 .552.456.672 2.664 1.08 2.784.504 3.768 1.32 3.768 3.744 0 2.808-1.824 3.888-4.824 3.888z" transform="translate(-864 -379) translate(481 344)" />
            </g>
        </g>
    </g>
</svg>
