<svg xmlns="http://www.w3.org/2000/svg" width="28" height="28" viewBox="0 0 28 28">
    <path fill-rule="evenodd" d="M27.658 26.008l-7.962-7.962c1.542-1.905 2.47-4.326 2.47-6.963C22.167 4.973 17.195 0 11.084 0 4.973 0 0 4.972 0 11.083s4.972 11.084 11.083 11.084c2.637 0 5.058-.93 6.963-2.472l7.962 7.963c.228.228.526.342.825.342.299 0 .597-.114.825-.342.456-.456.456-1.194 0-1.65zm-16.575-6.175c-4.825 0-8.75-3.924-8.75-8.75 0-4.825 3.925-8.75 8.75-8.75 4.826 0 8.75 3.925 8.75 8.75 0 4.826-3.924 8.75-8.75 8.75z"/>
</svg>
