<svg xmlns="http://www.w3.org/2000/svg" xmlns:xlink="http://www.w3.org/1999/xlink" width="22" height="22" viewBox="0 0 22 22">
  <defs>
    <path id="j33fb2y5fa" d="M0.005 0.059L21.953 0.059 21.953 22.012 0.005 22.012z"/>
  </defs>
  <g fill="none" fill-rule="evenodd" transform="matrix(-1 0 0 1 22 0)">
    <mask id="75z1zyr3yb" fill="#fff">
      <use xlink:href="#j33fb2y5fa"/>
    </mask>
    <path fill="#000" d="M19.348 15.261c3.473-3.473 3.473-9.124 0-12.598-3.473-3.472-9.124-3.472-12.598 0-2.946 2.947-3.392 7.33-1.34 10.751 0 0 .148.248-.051.447L.814 18.405c-.904.905-1.12 2.17-.317 2.972l.138.138c.802.802 2.067.587 2.971-.318l4.535-4.535c.209-.209.457-.061.457-.061 3.421 2.053 7.804 1.607 10.75-1.34zM8.395 13.616c-2.566-2.566-2.566-6.741 0-9.308 2.567-2.566 6.742-2.566 9.309 0 2.566 2.567 2.566 6.742 0 9.308-2.567 2.567-6.742 2.567-9.309 0z" mask="url(#75z1zyr3yb)"/>
  </g>
</svg>
