<svg width="24" height="24" viewBox="0 0 24 24" fill="none" xmlns="http://www.w3.org/2000/svg">
<path d="M20 9C20 9.55229 20.4477 10 21 10C21.5523 10 22 9.55228 22 9L20 9ZM21 3L22 3C22 2.44771 21.5523 2 21 2V3ZM15 2C14.4477 2 14 2.44772 14 3C14 3.55228 14.4477 4 15 4V2ZM12.2929 10.2929C11.9024 10.6834 11.9024 11.3166 12.2929 11.7071C12.6834 12.0976 13.3166 12.0976 13.7071 11.7071L12.2929 10.2929ZM10 6C10.5523 6 11 5.55228 11 5C11 4.44772 10.5523 4 10 4V6ZM20 14C20 13.4477 19.5523 13 19 13C18.4477 13 18 13.4477 18 14H20ZM4.63803 20.673L5.09202 19.782H5.09202L4.63803 20.673ZM3.32698 19.362L2.43597 19.816H2.43597L3.32698 19.362ZM17.362 20.673L16.908 19.782H16.908L17.362 20.673ZM18.673 19.362L17.782 18.908V18.908L18.673 19.362ZM3.32698 6.63803L4.21799 7.09202L3.32698 6.63803ZM4.63803 5.32698L5.09202 6.21799L4.63803 5.32698ZM22 9L22 3L20 3L20 9L22 9ZM21 2H15V4H21V2ZM20.2929 2.29289L12.2929 10.2929L13.7071 11.7071L21.7071 3.70711L20.2929 2.29289ZM14.2 20H7.8V22H14.2V20ZM4 16.2V9.8H2V16.2H4ZM10 4H7.8V6H10V4ZM20 16.2V14H18V16.2H20ZM7.8 20C6.94342 20 6.36113 19.9992 5.91104 19.9624C5.47262 19.9266 5.24842 19.8617 5.09202 19.782L4.18404 21.564C4.66937 21.8113 5.18608 21.9099 5.74817 21.9558C6.2986 22.0008 6.97642 22 7.8 22V20ZM2 16.2C2 17.0236 1.99922 17.7014 2.04419 18.2518C2.09012 18.8139 2.18868 19.3306 2.43597 19.816L4.21799 18.908C4.1383 18.7516 4.07337 18.5274 4.03755 18.089C4.00078 17.6389 4 17.0566 4 16.2H2ZM5.09202 19.782C4.71569 19.5903 4.40973 19.2843 4.21799 18.908L2.43597 19.816C2.81947 20.5686 3.43139 21.1805 4.18404 21.564L5.09202 19.782ZM14.2 22C15.0236 22 15.7014 22.0008 16.2518 21.9558C16.8139 21.9099 17.3306 21.8113 17.816 21.564L16.908 19.782C16.7516 19.8617 16.5274 19.9266 16.089 19.9624C15.6389 19.9992 15.0566 20 14.2 20V22ZM18 16.2C18 17.0566 17.9992 17.6389 17.9624 18.089C17.9266 18.5274 17.8617 18.7516 17.782 18.908L19.564 19.816C19.8113 19.3306 19.9099 18.8139 19.9558 18.2518C20.0008 17.7014 20 17.0236 20 16.2H18ZM17.816 21.564C18.5686 21.1805 19.1805 20.5686 19.564 19.816L17.782 18.908C17.5903 19.2843 17.2843 19.5903 16.908 19.782L17.816 21.564ZM4 9.8C4 8.94342 4.00078 8.36113 4.03755 7.91104C4.07337 7.47262 4.1383 7.24842 4.21799 7.09202L2.43597 6.18404C2.18868 6.66937 2.09012 7.18608 2.04419 7.74817C1.99922 8.2986 2 8.97642 2 9.8H4ZM7.8 4C6.97642 4 6.2986 3.99922 5.74817 4.04419C5.18608 4.09012 4.66937 4.18868 4.18404 4.43597L5.09202 6.21799C5.24842 6.1383 5.47262 6.07337 5.91104 6.03755C6.36113 6.00078 6.94342 6 7.8 6V4ZM4.21799 7.09202C4.40973 6.71569 4.7157 6.40973 5.09202 6.21799L4.18404 4.43597C3.43139 4.81947 2.81947 5.43139 2.43597 6.18404L4.21799 7.09202Z" fill="#171717"/>
</svg>
