<svg width="24" height="24" viewBox="0 0 24 24" fill="none" xmlns="http://www.w3.org/2000/svg">
<path d="M3.63803 19.673L3.18404 20.564L3.63803 19.673ZM2.32698 18.362L1.43597 18.816L2.32698 18.362ZM21.673 18.362L22.564 18.816L21.673 18.362ZM20.362 19.673L20.816 20.564L20.362 19.673ZM20.362 4.32698L20.816 3.43597L20.362 4.32698ZM21.673 5.63803L22.564 5.18404L21.673 5.63803ZM3.63803 4.32698L3.18404 3.43597L3.63803 4.32698ZM2.32698 5.63803L1.43597 5.18404L2.32698 5.63803ZM2.57346 6.18077C2.12101 5.86405 1.49748 5.97409 1.18077 6.42654C0.864054 6.87899 0.974088 7.50252 1.42654 7.81923L2.57346 6.18077ZM10.1649 12.7154L10.7384 11.8962V11.8962L10.1649 12.7154ZM13.8351 12.7154L13.2616 11.8962L13.8351 12.7154ZM22.5735 7.81923C23.0259 7.50252 23.1359 6.87899 22.8192 6.42654C22.5025 5.97409 21.879 5.86405 21.4265 6.18077L22.5735 7.81923ZM11.5163 13.4993L11.7581 12.529L11.5163 13.4993ZM12.4837 13.4993L12.2419 12.529L12.4837 13.4993ZM6.8 5H17.2V3H6.8V5ZM21 8.8V15.2H23V8.8H21ZM17.2 19H6.8V21H17.2V19ZM3 15.2V8.8H1V15.2H3ZM6.8 19C5.94342 19 5.36113 18.9992 4.91104 18.9624C4.47262 18.9266 4.24842 18.8617 4.09202 18.782L3.18404 20.564C3.66937 20.8113 4.18608 20.9099 4.74817 20.9558C5.2986 21.0008 5.97642 21 6.8 21V19ZM1 15.2C1 16.0236 0.999222 16.7014 1.04419 17.2518C1.09012 17.8139 1.18868 18.3306 1.43597 18.816L3.21799 17.908C3.1383 17.7516 3.07337 17.5274 3.03755 17.089C3.00078 16.6389 3 16.0566 3 15.2H1ZM4.09202 18.782C3.71569 18.5903 3.40973 18.2843 3.21799 17.908L1.43597 18.816C1.81947 19.5686 2.43139 20.1805 3.18404 20.564L4.09202 18.782ZM21 15.2C21 16.0566 20.9992 16.6389 20.9624 17.089C20.9266 17.5274 20.8617 17.7516 20.782 17.908L22.564 18.816C22.8113 18.3306 22.9099 17.8139 22.9558 17.2518C23.0008 16.7014 23 16.0236 23 15.2H21ZM17.2 21C18.0236 21 18.7014 21.0008 19.2518 20.9558C19.8139 20.9099 20.3306 20.8113 20.816 20.564L19.908 18.782C19.7516 18.8617 19.5274 18.9266 19.089 18.9624C18.6389 18.9992 18.0566 19 17.2 19V21ZM20.782 17.908C20.5903 18.2843 20.2843 18.5903 19.908 18.782L20.816 20.564C21.5686 20.1805 22.1805 19.5686 22.564 18.816L20.782 17.908ZM17.2 5C18.0566 5 18.6389 5.00078 19.089 5.03755C19.5274 5.07337 19.7516 5.1383 19.908 5.21799L20.816 3.43597C20.3306 3.18868 19.8139 3.09012 19.2518 3.04419C18.7014 2.99922 18.0236 3 17.2 3V5ZM23 8.8C23 7.97642 23.0008 7.2986 22.9558 6.74817C22.9099 6.18608 22.8113 5.66937 22.564 5.18404L20.782 6.09202C20.8617 6.24842 20.9266 6.47262 20.9624 6.91104C20.9992 7.36113 21 7.94342 21 8.8H23ZM19.908 5.21799C20.2843 5.40973 20.5903 5.7157 20.782 6.09202L22.564 5.18404C22.1805 4.43139 21.5686 3.81947 20.816 3.43597L19.908 5.21799ZM6.8 3C5.97642 3 5.2986 2.99922 4.74817 3.04419C4.18608 3.09012 3.66937 3.18868 3.18404 3.43597L4.09202 5.21799C4.24842 5.1383 4.47262 5.07337 4.91104 5.03755C5.36113 5.00078 5.94342 5 6.8 5V3ZM3 8.8C3 7.94342 3.00078 7.36113 3.03755 6.91104C3.07337 6.47262 3.1383 6.24842 3.21799 6.09202L1.43597 5.18404C1.18868 5.66937 1.09012 6.18608 1.04419 6.74817C0.999222 7.2986 1 7.97642 1 8.8H3ZM3.18404 3.43597C2.43139 3.81947 1.81947 4.43139 1.43597 5.18404L3.21799 6.09202C3.40973 5.71569 3.71569 5.40973 4.09202 5.21799L3.18404 3.43597ZM1.42654 7.81923L9.59146 13.5347L10.7384 11.8962L2.57346 6.18077L1.42654 7.81923ZM14.4085 13.5347L22.5735 7.81923L21.4265 6.18077L13.2616 11.8962L14.4085 13.5347ZM9.59146 13.5347C10.1849 13.9501 10.6916 14.3243 11.2744 14.4696L11.7581 12.529C11.6218 12.495 11.4673 12.4065 10.7384 11.8962L9.59146 13.5347ZM13.2616 11.8962C12.5327 12.4065 12.3782 12.495 12.2419 12.529L12.7256 14.4696C13.3084 14.3243 13.8151 13.9501 14.4085 13.5347L13.2616 11.8962ZM11.2744 14.4696C11.7508 14.5884 12.2492 14.5884 12.7256 14.4696L12.2419 12.529C12.0831 12.5686 11.9169 12.5686 11.7581 12.529L11.2744 14.4696Z" fill="#171717"/>
</svg>
