<svg width="24" height="24" viewBox="0 0 24 24" fill="none" xmlns="http://www.w3.org/2000/svg">
<path d="M4.35472 15.6408L5.23453 16.1161L4.35472 15.6408ZM4.58728 15.1469L5.55639 15.3936L4.58728 15.1469ZM4.443 14.2166L3.49538 14.536L4.443 14.2166ZM4.61505 14.8214L3.61817 14.9003L4.61505 14.8214ZM3.50517 19.8444L3.40234 18.8497L3.50517 19.8444ZM2.6288 19.8322L2.10804 20.6859H2.10804L2.6288 19.8322ZM2.71906 18.6684L1.83925 18.193L2.71906 18.6684ZM2.3952 19.4828L1.40725 19.6376L2.3952 19.4828ZM9.44478 19.4345L9.08528 20.3677L9.44478 19.4345ZM9.11586 19.3185L9.34044 18.344L9.11586 19.3185ZM8.62619 19.315L8.72901 20.3097L8.62619 19.315ZM8.92949 19.2937L8.89128 20.2929L8.92949 19.2937ZM12.4996 21C17.7463 21 21.9996 16.7467 21.9996 11.5H19.9996C19.9996 15.6421 16.6418 19 12.4996 19V21ZM9.08528 20.3677C10.1462 20.7764 11.298 21 12.4996 21V19C11.5477 19 10.6394 18.8231 9.80428 18.5014L9.08528 20.3677ZM3.60799 20.8391L8.72901 20.3097L8.52337 18.3203L3.40234 18.8497L3.60799 20.8391ZM3.47491 15.1655L1.83925 18.193L3.59887 19.1437L5.23453 16.1161L3.47491 15.1655ZM2.99962 11.5C2.99962 12.56 3.17361 13.5814 3.49538 14.536L5.39061 13.8972C5.13733 13.1458 4.99962 12.34 4.99962 11.5H2.99962ZM12.4996 2C7.25292 2 2.99962 6.25329 2.99962 11.5H4.99962C4.99962 7.35786 8.35749 4 12.4996 4V2ZM21.9996 11.5C21.9996 6.25329 17.7463 2 12.4996 2V4C16.6418 4 19.9996 7.35786 19.9996 11.5H21.9996ZM5.23453 16.1161C5.34156 15.918 5.4878 15.6631 5.55639 15.3936L3.61817 14.9003C3.62631 14.8683 3.63332 14.8615 3.61027 14.909C3.58457 14.962 3.54637 15.0332 3.47491 15.1655L5.23453 16.1161ZM3.49538 14.536C3.55197 14.7039 3.58528 14.8033 3.60694 14.8766C3.62903 14.9513 3.62157 14.9432 3.61817 14.9003L5.61194 14.7425C5.58978 14.4626 5.47588 14.1502 5.39061 13.8972L3.49538 14.536ZM5.55639 15.3936C5.61355 15.169 5.63022 14.9736 5.61194 14.7425L3.61817 14.9003C3.61908 14.9118 3.61905 14.9157 3.61904 14.9145C3.61903 14.9127 3.61909 14.9076 3.6197 14.9004C3.6203 14.8933 3.62111 14.8883 3.62143 14.8865C3.62165 14.8853 3.62101 14.8891 3.61817 14.9003L5.55639 15.3936ZM3.40234 18.8497C3.27778 18.8625 3.18017 18.8726 3.09657 18.8798C3.01232 18.8871 2.95986 18.8898 2.9262 18.8902C2.89096 18.8907 2.90104 18.888 2.93611 18.8943C2.97599 18.9015 3.05679 18.9219 3.14956 18.9785L2.10804 20.6859C2.42905 20.8818 2.76384 20.8923 2.94958 20.8901C3.14635 20.8878 3.38364 20.8623 3.60799 20.8391L3.40234 18.8497ZM1.83925 18.193C1.73205 18.3915 1.61772 18.601 1.54036 18.7819C1.46734 18.9527 1.34905 19.2661 1.40725 19.6376L3.38315 19.328C3.39997 19.4353 3.38793 19.5178 3.37937 19.5574C3.37183 19.5923 3.36548 19.6005 3.37934 19.5681C3.39257 19.5372 3.41518 19.4898 3.4541 19.4147C3.49273 19.3402 3.53935 19.2539 3.59887 19.1437L1.83925 18.193ZM3.14956 18.9785C3.27498 19.055 3.36041 19.1828 3.38315 19.328L1.40725 19.6376C1.47548 20.073 1.73176 20.4564 2.10804 20.6859L3.14956 18.9785ZM9.80428 18.5014C9.6673 18.4486 9.49656 18.38 9.34044 18.344L8.89128 20.2929C8.86847 20.2877 8.86409 20.2845 8.90279 20.2984C8.94164 20.3124 8.99433 20.3326 9.08528 20.3677L9.80428 18.5014ZM8.72901 20.3097C8.81157 20.3012 8.85473 20.2968 8.88635 20.2944C8.91381 20.2922 8.90898 20.2936 8.89128 20.2929L8.96769 18.2944C8.80921 18.2883 8.64744 18.3075 8.52337 18.3203L8.72901 20.3097ZM9.34044 18.344C9.21145 18.3143 9.09998 18.2995 8.96769 18.2944L8.89128 20.2929V20.2929L9.34044 18.344Z" fill="#171717"/>
</svg>
