<svg width="24" height="24" viewBox="0 0 24 24" fill="none" xmlns="http://www.w3.org/2000/svg">
<path d="M19 2L19.8944 1.55279C19.7506 1.26528 19.4774 1.0644 19.1601 1.01291C18.8428 0.961423 18.5201 1.0656 18.2929 1.29289L19 2ZM16 5L15.2929 4.29289C15.1053 4.48043 15 4.73478 15 5H16ZM19 8V9C19.2652 9 19.5195 8.89464 19.7071 8.70711L19 8ZM22 5L22.7071 5.70711C22.9344 5.47981 23.0385 5.15711 22.987 4.83982C22.9356 4.52252 22.7347 4.24933 22.4472 4.10557L22 5ZM20 4L19.1055 4.44721C19.2023 4.64074 19.3592 4.79766 19.5527 4.89443L20 4ZM11.2929 11.2928C10.9023 11.6834 10.9023 12.3165 11.2929 12.707C11.6834 13.0976 12.3165 13.0976 12.7071 12.7071L11.2929 11.2928ZM23 12C23 11.4477 22.5523 11 22 11C21.4477 11 21 11.4477 21 12H23ZM12 3C12.5523 3 13 2.55228 13 2C13 1.44772 12.5523 1 12 1V3ZM18 12C18 11.4477 17.5523 11 17 11C16.4477 11 16 11.4477 16 12H18ZM12 8C12.5523 8 13 7.55228 13 7C13 6.44772 12.5523 6 12 6V8ZM18.2929 1.29289L15.2929 4.29289L16.7071 5.70711L19.7071 2.70711L18.2929 1.29289ZM15 5V8H17V5H15ZM16 9H19V7H16V9ZM19.7071 8.70711L22.7071 5.70711L21.2929 4.29289L18.2929 7.29289L19.7071 8.70711ZM22.4472 4.10557L20.4472 3.10557L19.5527 4.89443L21.5527 5.89443L22.4472 4.10557ZM20.8944 3.55279L19.8944 1.55279L18.1055 2.44721L19.1055 4.44721L20.8944 3.55279ZM15.2929 7.29289L11.2929 11.2928L12.7071 12.7071L16.7071 8.70711L15.2929 7.29289ZM21 12C21 16.9706 16.9706 21 12 21V23C18.0751 23 23 18.0751 23 12H21ZM12 21C7.02944 21 3 16.9706 3 12H1C1 18.0751 5.92487 23 12 23V21ZM3 12C3 7.02944 7.02944 3 12 3V1C5.92487 1 1 5.92487 1 12H3ZM16 12C16 14.2091 14.2091 16 12 16V18C15.3137 18 18 15.3137 18 12H16ZM12 16C9.79086 16 8 14.2091 8 12H6C6 15.3137 8.68629 18 12 18V16ZM8 12C8 9.79086 9.79086 8 12 8V6C8.68629 6 6 8.68629 6 12H8Z" fill="#171717"/>
</svg>
