<svg width="95" height="138" viewBox="0 0 95 138" fill="none" xmlns="http://www.w3.org/2000/svg">
<g>
<path d="M29.39 119.09C29.042 118.358 28.538 117.794 27.878 117.398C27.218 116.99 26.45 116.786 25.574 116.786C24.698 116.786 23.906 116.99 23.198 117.398C22.502 117.794 21.95 118.37 21.542 119.126C21.146 119.87 20.948 120.734 20.948 121.718C20.948 122.702 21.146 123.566 21.542 124.31C21.95 125.054 22.502 125.63 23.198 126.038C23.906 126.434 24.698 126.632 25.574 126.632C26.798 126.632 27.806 126.266 28.598 125.534C29.39 124.802 29.852 123.812 29.984 122.564H24.98V121.232H31.73V122.492C31.634 123.524 31.31 124.472 30.758 125.336C30.206 126.188 29.48 126.866 28.58 127.37C27.68 127.862 26.678 128.108 25.574 128.108C24.41 128.108 23.348 127.838 22.388 127.298C21.428 126.746 20.666 125.984 20.102 125.012C19.55 124.04 19.274 122.942 19.274 121.718C19.274 120.494 19.55 119.396 20.102 118.424C20.666 117.44 21.428 116.678 22.388 116.138C23.348 115.586 24.41 115.31 25.574 115.31C26.906 115.31 28.082 115.64 29.102 116.3C30.134 116.96 30.884 117.89 31.352 119.09H29.39ZM34.7418 116.534C34.4298 116.534 34.1658 116.426 33.9498 116.21C33.7338 115.994 33.6258 115.73 33.6258 115.418C33.6258 115.106 33.7338 114.842 33.9498 114.626C34.1658 114.41 34.4298 114.302 34.7418 114.302C35.0418 114.302 35.2938 114.41 35.4978 114.626C35.7138 114.842 35.8218 115.106 35.8218 115.418C35.8218 115.73 35.7138 115.994 35.4978 116.21C35.2938 116.426 35.0418 116.534 34.7418 116.534ZM35.5338 118.136V128H33.8958V118.136H35.5338ZM40.3235 119.486V125.3C40.3235 125.78 40.4255 126.122 40.6295 126.326C40.8335 126.518 41.1875 126.614 41.6915 126.614H42.8975V128H41.4215C40.5095 128 39.8255 127.79 39.3695 127.37C38.9135 126.95 38.6855 126.26 38.6855 125.3V119.486H37.4075V118.136H38.6855V115.652H40.3235V118.136H42.8975V119.486H40.3235ZM46.5201 126.668H50.9121V128H44.8821V115.454H46.5201V126.668ZM52.0396 123.032C52.0396 122.024 52.2436 121.142 52.6516 120.386C53.0596 119.618 53.6176 119.024 54.3256 118.604C55.0456 118.184 55.8436 117.974 56.7196 117.974C57.5836 117.974 58.3336 118.16 58.9696 118.532C59.6056 118.904 60.0796 119.372 60.3916 119.936V118.136H62.0476V128H60.3916V126.164C60.0676 126.74 59.5816 127.22 58.9336 127.604C58.2976 127.976 57.5536 128.162 56.7016 128.162C55.8256 128.162 55.0336 127.946 54.3256 127.514C53.6176 127.082 53.0596 126.476 52.6516 125.696C52.2436 124.916 52.0396 124.028 52.0396 123.032ZM60.3916 123.05C60.3916 122.306 60.2416 121.658 59.9416 121.106C59.6416 120.554 59.2336 120.134 58.7176 119.846C58.2136 119.546 57.6556 119.396 57.0436 119.396C56.4316 119.396 55.8736 119.54 55.3696 119.828C54.8656 120.116 54.4636 120.536 54.1636 121.088C53.8636 121.64 53.7136 122.288 53.7136 123.032C53.7136 123.788 53.8636 124.448 54.1636 125.012C54.4636 125.564 54.8656 125.99 55.3696 126.29C55.8736 126.578 56.4316 126.722 57.0436 126.722C57.6556 126.722 58.2136 126.578 58.7176 126.29C59.2336 125.99 59.6416 125.564 59.9416 125.012C60.2416 124.448 60.3916 123.794 60.3916 123.05ZM66.4537 119.972C66.7897 119.384 67.2817 118.904 67.9297 118.532C68.5777 118.16 69.3157 117.974 70.1437 117.974C71.0317 117.974 71.8297 118.184 72.5377 118.604C73.2457 119.024 73.8037 119.618 74.2117 120.386C74.6197 121.142 74.8237 122.024 74.8237 123.032C74.8237 124.028 74.6197 124.916 74.2117 125.696C73.8037 126.476 73.2397 127.082 72.5197 127.514C71.8117 127.946 71.0197 128.162 70.1437 128.162C69.2917 128.162 68.5417 127.976 67.8937 127.604C67.2577 127.232 66.7777 126.758 66.4537 126.182V128H64.8157V114.68H66.4537V119.972ZM73.1497 123.032C73.1497 122.288 72.9997 121.64 72.6997 121.088C72.3997 120.536 71.9917 120.116 71.4757 119.828C70.9717 119.54 70.4137 119.396 69.8017 119.396C69.2017 119.396 68.6437 119.546 68.1277 119.846C67.6237 120.134 67.2157 120.56 66.9037 121.124C66.6037 121.676 66.4537 122.318 66.4537 123.05C66.4537 123.794 66.6037 124.448 66.9037 125.012C67.2157 125.564 67.6237 125.99 68.1277 126.29C68.6437 126.578 69.2017 126.722 69.8017 126.722C70.4137 126.722 70.9717 126.578 71.4757 126.29C71.9917 125.99 72.3997 125.564 72.6997 125.012C72.9997 124.448 73.1497 123.788 73.1497 123.032Z" fill="#A0A0A0"/>
<g>
<path d="M47.5268 86.0162L64.8228 33.1953H30.2305L47.5265 86.0162H47.5268Z" fill="#919191"/>
<path d="M47.5281 86.0162L30.2317 33.1953H5.99219L47.5281 86.0162Z" fill="#ADADAD"/>
<path d="M5.98981 33.1953L0.733888 49.2474C0.500194 49.9611 0.500162 50.7298 0.733796 51.4434C0.967431 52.157 1.42274 52.7789 2.03447 53.22L47.5257 86.0166L5.98944 33.1957L5.98981 33.1953Z" fill="#DDDDDD"/>
<path d="M5.99219 33.1939H30.2317L19.815 1.38C19.2789 -0.257057 16.945 -0.256693 16.4093 1.38L5.99219 33.1939Z" fill="#919191"/>
<path d="M47.5277 86.0162L64.8237 33.1953H89.0636L47.5273 86.0162H47.5277Z" fill="#ADADAD"/>
<path d="M89.0632 33.1953L94.3191 49.2474C94.5528 49.9611 94.5528 50.7298 94.3191 51.4435C94.0854 52.1571 93.63 52.779 93.0182 53.22L47.5273 86.0166L89.0632 33.1957V33.1953Z" fill="#DDDDDD"/>
<path d="M89.0641 33.1939H64.8242L75.2413 1.38C75.7774 -0.257057 78.1113 -0.256693 78.647 1.38L89.0641 33.1939Z" fill="#919191"/>
</g>
</g>
<defs>
<clipPath id="clip0_7502_63989">
<rect width="94" height="138" fill="white" transform="translate(0.5)"/>
</clipPath>
<clipPath id="clip1_7502_63989">
<rect width="94" height="86" fill="white" transform="translate(0.5)"/>
</clipPath>
</defs>
</svg>
