<?xml version="1.0" encoding="utf-8"?>
<!-- Generator: Adobe Illustrator 23.0.1, SVG Export Plug-In . SVG Version: 6.00 Build 0)  -->
<svg version="1.1" id="Isolation_Mode" xmlns="http://www.w3.org/2000/svg" xmlns:xlink="http://www.w3.org/1999/xlink" x="0px"
	 y="0px" viewBox="0 0 800 800" style="enable-background:new 0 0 800 800;" xml:space="preserve">
<style type="text/css">
	.st0{fill:none;stroke:#212121;stroke-width:4;stroke-linecap:round;stroke-linejoin:round;}
	.st1{fill:none;stroke:#212121;stroke-width:2;stroke-linecap:round;stroke-linejoin:round;}
	.st2{fill:#FFFFFF;stroke:#212121;stroke-width:4;stroke-linecap:round;stroke-linejoin:round;}
	.st3{fill:none;}
	.st4{fill:#212121;stroke:#212121;stroke-width:4;stroke-linecap:round;stroke-linejoin:round;}
</style>
<title>icon_isometr</title>
<path class="st0" d="M651.3,191.2c38.3,45.7-43.1,177.1-181.8,293.6S187.1,658.5,148.7,612.8c-22.3-26.5-4.2-81.9,42.1-146.5"/>
<path class="st1" d="M161,568.3c3.9-18,14-40.5,29.2-65.1"/>
<path class="st1" d="M608.6,195.4c9.2,0,21.4,1.5,27.3,8.6c6.5,7.7,5.2,21.5,3,31.7c-3.8,18-14,40.5-29.2,65.1"/>
<circle class="st2" cx="148.7" cy="612.8" r="30"/>
<circle class="st2" cx="140.9" cy="567" r="6"/>
<path class="st0" d="M148.7,191.2c-38.3,45.7,43.1,177.1,181.8,293.6s282.3,173.8,320.7,128.1c21.5-25.7,5.3-78.4-37.7-140.3"/>
<path class="st2" d="M550.2,584.5V555h-9.6c-7.3-11.3-18.9-22-34.7-31.1c-58.8-34-153.9-34.1-212.4-0.4c-16,9.2-27.5,20-34.7,31.5
	h-8.9v30l0,0c0.2,22.1,15,44.2,44.3,61.1c58.8,34,153.9,34.1,212.4,0.4C536.1,629.4,550.6,607,550.2,584.5z"/>
<ellipse transform="matrix(5.410451e-03 -1 1 5.410451e-03 -157.1486 951.9761)" class="st2" cx="400" cy="555" rx="86.7" ry="150.2"/>
<ellipse transform="matrix(5.410451e-03 -1 1 5.410451e-03 -157.1486 951.9761)" class="st2" cx="400" cy="555" rx="37.4" ry="64.7"/>
<ellipse transform="matrix(5.410451e-03 -1 1 5.410451e-03 -157.1486 951.9761)" class="st2" cx="400" cy="555" rx="86.7" ry="150.2"/>
<path class="st0" d="M399.7,493c59.3,0.1,107.6,28,107.8,62.2"/>
<path class="st0" d="M399.9,528.2c25.6,0,46.5,12.1,46.5,26.9s-20.6,26.8-46.2,26.7s-46.5-12.1-46.5-26.9"/>
<ellipse transform="matrix(5.410451e-03 -1 1 5.410451e-03 -157.1486 951.9761)" class="st0" cx="400" cy="555" rx="12.7" ry="22"/>
<ellipse transform="matrix(5.410451e-03 -1 1 5.410451e-03 -203.2076 905.5051)" class="st2" cx="353.6" cy="554.9" rx="8.5" ry="14.7"/>
<ellipse transform="matrix(5.410451e-03 -1 1 5.410451e-03 -130.4937 925.2057)" class="st2" cx="399.9" cy="528.2" rx="8.5" ry="14.7"/>
<ellipse transform="matrix(5.410451e-03 -1 1 5.410451e-03 -95.433 889.9553)" class="st2" cx="399.7" cy="493" rx="8.5" ry="14.6"/>
<ellipse transform="matrix(5.409670e-03 -1 1 5.409670e-03 -50.5008 1059.6078)" class="st2" cx="507.4" cy="555.2" rx="8.5" ry="14.7"/>
<path class="st1" d="M514.8,554.4c0.4,0.2,0.8,0.5,1.1,0.8c-0.3,0.3-0.6,0.5-1,0.8c-2.3,1.2-4.8,1.7-7.3,1.7
	c-2.6,0.1-5.1-0.5-7.4-1.7c-0.4-0.2-0.8-0.5-1.1-0.8c0.3-0.3,0.7-0.6,1-0.8"/>
<line class="st0" x1="505.9" y1="493.9" x2="454.2" y2="523.7"/>
<line class="st0" x1="337.8" y1="591.6" x2="294.8" y2="616.5"/>
<line class="st0" x1="479.1" y1="600.3" x2="506.8" y2="616.3"/>
<line class="st0" x1="288.9" y1="554.8" x2="323.1" y2="554.9"/>
<ellipse transform="matrix(5.410451e-03 -1 1 5.410451e-03 -267.446 840.675)" class="st2" cx="288.9" cy="554.8" rx="8.5" ry="14.7"/>
<line class="st0" x1="400.4" y1="619.2" x2="400.2" y2="599.4"/>
<ellipse transform="matrix(5.410451e-03 -1 1 5.410451e-03 -220.9457 1016.1271)" class="st2" cx="400.3" cy="619.1" rx="8.5" ry="14.7"/>
<path class="st1" d="M408.8,619.2c-0.9,0.9-3.8,2.4-8.4,2.4l0,0c-4.6,0-7.6-1.6-8.5-2.5"/>
<ellipse transform="matrix(5.410451e-03 -1 1 5.410451e-03 -123.8851 1076.113)" class="st2" cx="479" cy="600.3" rx="8.5" ry="14.7"/>
<path class="st1" d="M486.4,599.6c0.4,0.2,0.8,0.5,1.1,0.8c-0.3,0.3-0.6,0.5-1,0.8c-2.3,1.2-4.8,1.7-7.3,1.7
	c-2.6,0.1-5.1-0.5-7.4-1.7c-0.4-0.2-0.8-0.5-1.1-0.8c0.3-0.3,0.6-0.5,1-0.8"/>
<ellipse transform="matrix(9.999500e-03 -0.9999 0.9999 9.999500e-03 -258.342 927.7143)" class="st2" cx="339.3" cy="594.3" rx="8.5" ry="14.7"/>
<ellipse transform="matrix(0.8633 -0.5047 0.5047 0.8633 -165.9934 303.9405)" class="st2" cx="478.1" cy="458.4" rx="43.7" ry="75.7"/>
<path class="st2" d="M531.8,489.4c0-35.7-25.2-79.1-56.3-97.1c-8.7-5-17-7.5-24.4-7.7h-1.2c-17.7-0.4-38.8-13.2-56.1-34.4
	c-0.8-1.1-1.6-2.1-2.5-3.1c-10-11.7-22.5-17.1-30.9-12.4c-5.7,3.2-8.2,10.5-7.7,19.4c0.1,2.1,0.4,4.1,0.9,6.1
	c3.9,24.5,13.3,51.3,28.4,77.3c26.6,45.9,64.1,78,98.2,88.2l0,0l17.4,10l17.6-10.1C525.4,519.9,531.8,507.3,531.8,489.4z"/>
<ellipse transform="matrix(0.8633 -0.5047 0.5047 0.8633 -173.4116 296.5504)" class="st2" cx="460.7" cy="468.4" rx="43.7" ry="75.7"/>
<path class="st2" d="M458.1,402.3c-8.8-5-17-7.5-24.4-7.7h-1.2c-17.8-0.4-38.8-13.2-56.1-34.4c-0.8-1.1-1.6-2.1-2.5-3.1
	c-10-11.7-22.5-17.1-30.9-12.4c-5.7,3.2-8.2,10.5-7.7,19.4c0.1,2.1,0.4,4.1,0.9,6.1c3.9,24.5,13.3,51.3,28.4,77.3
	c30.8,53.1,76.1,87.8,113.9,91.3c2,0.3,4,0.4,6,0.3c17.8-0.6,29.9-15.1,29.9-39.8C514.4,463.7,489.2,420.2,458.1,402.3z"/>
<path class="st2" d="M521.3,505.5c0-43.9-31-97.4-69.3-119.5c-20.8-12-39.4-12.3-52.1-3l0,0l-46,26.5l-52-30
	c-19.1-11-34.6-2.2-34.6,19.8c0,14.1,6.4,30.1,16,42.7l53.2,97.1l0.2-0.4c4.5,7.2,9.5,13.9,15,20.3l0.2,0.3c0.7,0.8,1.5,1.7,2.2,2.5
	l0.7,0.8l2,2.1l1,1c0.6,0.6,1.3,1.3,1.9,1.9l1.2,1.2l1.8,1.7l1.4,1.2l1.7,1.5c0.5,0.4,1,0.9,1.5,1.3s1.1,0.9,1.6,1.3
	s1.1,0.9,1.7,1.3l1.6,1.2c0.6,0.5,1.2,0.9,1.9,1.4l1.4,1c0.7,0.5,1.5,1,2.2,1.5c0.4,0.3,0.8,0.5,1.2,0.8c1.1,0.7,2.3,1.4,3.4,2.1
	c0.6,0.4,1.2,0.7,1.9,1l0.6,0.3c0.4,0.2,0.8,0.5,1.2,0.7l0.7,0.4l1.1,0.6l0.8,0.4l1.1,0.5l0.8,0.3l1.1,0.5l0.8,0.3l1.1,0.4l0.8,0.3
	l1,0.4l0.7,0.3l1.1,0.4l0.7,0.2l1.1,0.3l0.6,0.2l1.2,0.3l0.5,0.1c0.5,0.1,1,0.2,1.5,0.4h0.2c1.2,0.3,2.3,0.5,3.5,0.7h0.2l1.5,0.2
	h0.4c0.4,0,0.9,0.1,1.3,0.1h0.4l1.2,0.1h0.4h1.2h2l1.2-0.1h0.3c0.4,0,0.8,0,1.3-0.1h0.3c0.5,0,0.9-0.1,1.4-0.2h0.1
	c3-0.4,5.9-1.2,8.6-2.4l0,0c0.4-0.2,0.9-0.4,1.3-0.6h0.1c0.4-0.2,0.8-0.4,1.2-0.6l0.1-0.1c0.4-0.2,0.8-0.4,1.2-0.7l0.1-0.1l1.1-0.7
	h0.1c0.4-0.3,0.8-0.5,1.2-0.8l0,0l63.4-36.5l0,0C512.3,545.2,521.3,529.2,521.3,505.5z"/>
<line class="st0" x1="258.5" y1="613.6" x2="258.5" y2="583.6"/>
<path class="st2" d="M481.6,532c0,0-2.7-59.9-51.9-107L395,414.8c0,0,37.6,30.5,51.5,54.4c8.7,14.7,15,30.6,18.8,47.3
	c0.9,4.3,3.6,8,7.5,10.3L481.6,532"/>
<path class="st2" d="M400,406.1c38.5,22.2,70.4,72.9,76.8,118.7c0.7,5.5,5.8,9.3,11.3,8.6c1.3-0.2,2.5-0.6,3.6-1.2l29.8-17.2
	c5.4-3.1,8.6-9.1,8-15.3c-4.6-47-37.5-100.5-77.4-123.6"/>
<path class="st2" d="M400,406.1c38.5,22.2,70.4,72.9,76.8,118.7c0.7,5.5,5.8,9.3,11.3,8.6c1.3-0.2,2.5-0.6,3.6-1.2l29.8-17.2
	c5.4-3.1,8.6-9.1,8-15.3c-4.6-47-37.5-100.5-77.4-123.6L400,406.1z"/>
<path class="st0" d="M426,391.1c32.6,18.8,60.5,58,72.2,97.3c2.9,9.7,4.8,19.8,5.5,29.9"/>
<path class="st1" d="M405,397.5c38.9,22.5,72.2,72.4,80.8,120.3c0.4,2.2,2.4,3.6,4.6,3.3c0.5-0.1,0.9-0.2,1.3-0.5l24.8-14.2
	c2-1.1,3.2-3.3,3-5.6c-2.1-21.4-10.6-45-24-66.5s-30.7-39.1-48.5-49.4"/>
<line class="st0" x1="267.2" y1="625" x2="267.2" y2="595"/>
<line class="st0" x1="497.8" y1="651.1" x2="497.8" y2="621.1"/>
<line class="st0" x1="506.5" y1="646.5" x2="506.5" y2="616.5"/>
<line class="st0" x1="489.2" y1="655.1" x2="489.2" y2="625"/>
<path class="st1" d="M382.6,426c38.3,22.1,69.3,75.6,69.3,119.5"/>
<circle class="st2" cx="434.7" cy="315" r="138"/>
<polyline class="st1" points="378.1,209.7 378.1,209.7 408.2,192.3 408.2,192.3 "/>
<line class="st1" x1="425.6" y1="192.3" x2="378" y2="219.8"/>
<line class="st1" x1="438.1" y1="195.1" x2="382.9" y2="226.9"/>
<line class="st1" x1="447.5" y1="199.7" x2="390.8" y2="232.4"/>
<line class="st1" x1="454.3" y1="205.8" x2="401.3" y2="236.3"/>
<polyline class="st1" points="415.3,238.2 415.3,238.2 457.6,213.9 "/>
<line class="st1" x1="451.8" y1="227.2" x2="438.4" y2="234.9"/>
<ellipse transform="matrix(5.410451e-03 -1 1 5.410451e-03 200.0907 631.1749)" class="st3" cx="417.3" cy="215" rx="23.3" ry="40.3"/>
<path class="st0" d="M434.7,202.7c54,31.2,97.9,106.8,97.9,168.8c0,31.2-11.1,53-29,63"/>
<path class="st2" d="M475,200.3v-16h-80.6v16l0,0c0.1,5.9,4,11.9,11.9,16.4c15.8,9.1,41.3,9.2,57,0.1
	C471.2,212.2,475.1,206.2,475,200.3z"/>
<ellipse transform="matrix(5.410451e-03 -1 1 5.410451e-03 248.0967 617.9493)" class="st2" cx="434.7" cy="184.3" rx="23.3" ry="40.3"/>
<ellipse transform="matrix(5.410451e-03 -1 1 5.410451e-03 248.0967 617.9493)" class="st1" cx="434.7" cy="184.3" rx="14.5" ry="25"/>
<ellipse transform="matrix(5.410451e-03 -1 1 5.410451e-03 248.0967 617.9493)" class="st2" cx="434.7" cy="184.3" rx="4.9" ry="8.6"/>
<line class="st0" x1="434.7" y1="116.3" x2="434.7" y2="184.3"/>
<circle class="st2" cx="434.7" cy="116.3" r="16"/>
<ellipse transform="matrix(0.8633 -0.5047 0.5047 0.8633 -217.9221 252.2058)" class="st2" cx="356.6" cy="528.4" rx="43.7" ry="75.7"/>
<path class="st2" d="M410.3,559.4c0-30.9-19.8-68-45.7-87.3l0,0c-2.6-1.9-5.2-3.7-8-5.3c-13.9-8-26.6-9.3-36.1-4.8l0,0
	c-1.3,0.6-2.6,1.3-3.8,2.2l-13.9,8l72.9,132.6l17.6-10.1l0,0C403.8,589.3,410.3,577.1,410.3,559.4z"/>
<path class="st2" d="M410.3,559.4c0-35.7-25.2-79.1-56.3-97.1c-8.8-5-17-7.5-24.4-7.7h-1.2c-17.7-0.4-38.8-13.2-56.1-34.4
	c-0.8-1.1-1.6-2.1-2.5-3.1c-9.9-11.6-22.2-17-30.6-12.5l0,0l-17.6,10.1l9.6,5.6c-0.1,1.3,0,2.6,0.1,3.8c0.1,2.1,0.4,4.1,0.9,6.1
	c3.9,24.5,13.3,51.3,28.4,77.3c26.6,45.9,64.1,78.1,98.2,88.2l0,0l17.4,10l17.6-10.1C403.9,589.9,410.3,577.3,410.3,559.4z"/>
<ellipse transform="matrix(0.8633 -0.5047 0.5047 0.8633 -225.344 244.812)" class="st2" cx="339.3" cy="538.4" rx="43.7" ry="75.7"/>
<path class="st2" d="M336.7,472.3c-8.7-5-17-7.5-24.4-7.7H311c-17.8-0.4-38.8-13.2-56.1-34.4c-0.8-1.1-1.6-2.1-2.5-3.1
	c-10-11.7-22.5-17.1-30.9-12.4c-5.7,3.2-8.2,10.5-7.7,19.4c0.1,2.1,0.4,4.1,0.9,6.1c3.9,24.5,13.3,51.3,28.4,77.3
	c30.9,53.1,76.1,87.8,113.9,91.3c2,0.3,4,0.4,6,0.3c17.8-0.6,29.9-15.1,29.9-39.8C393,533.7,367.7,490.2,336.7,472.3z"/>
<path class="st2" d="M365.2,553.4c0-16.5-11.6-36.5-26-44.8c-6.8-3.9-12.9-4.5-17.6-2.3l0,0c-0.6,0.3-1.1,0.6-1.7,1l-14.8,8.5
	l35.3,64.1l16.5-9.5C362.1,567.9,365.2,562,365.2,553.4z"/>
<ellipse transform="matrix(0.8633 -0.5047 0.5047 0.8633 -232.7623 237.4218)" class="st2" cx="321.9" cy="548.4" rx="21.1" ry="36.6"/>
<line class="st0" x1="298" y1="443.8" x2="280.7" y2="453.8"/>
<line class="st0" x1="306.7" y1="448.8" x2="289.4" y2="458.8"/>
<line class="st0" x1="317" y1="452.7" x2="299.6" y2="462.7"/>
<ellipse transform="matrix(0.8633 -0.5047 0.5047 0.8633 -232.7623 237.4218)" class="st0" cx="321.9" cy="548.4" rx="12.7" ry="22"/>
<path class="st0" d="M337.5,557.4c0,2-0.3,4-1,5.8c-2.2,5.4-7.9,6.9-14.5,3.1c-8.6-5-15.6-17-15.6-26.9c0-7.5,4.1-11.6,9.8-11
	c2.1,0.3,4,1,5.8,2.1C330.5,535.5,337.5,547.5,337.5,557.4z"/>
<path class="st0" d="M337.5,557.4c0,2-0.3,4-1,5.8c-2.1-0.3-4-1-5.8-2.1c-8.6-5-15.6-17-15.6-26.9c-0.1-2,0.3-4,1-5.8
	c2.1,0.3,4,1,5.8,2.1C330.5,535.5,337.5,547.5,337.5,557.4z"/>
<line class="st0" x1="364.6" y1="546.2" x2="347.2" y2="556.2"/>
<line class="st0" x1="365.2" y1="555.7" x2="347.8" y2="565.8"/>
<line class="st0" x1="321.6" y1="552.6" x2="312.8" y2="557.7"/>
<line class="st0" x1="327.7" y1="559.1" x2="318.9" y2="564.2"/>
<path class="st2" d="M580.9,300.8l-6.6-27.3c-0.8-3.2-4-5.2-7.3-4.4c-0.6,0.1-1.1,0.3-1.6,0.6l-1.8,1c1.2,19.7-11.2,39.6-37.4,54.7
	c-34.7,19.9-84.5,26-128.6,18.3h-0.1v35.4c0,7.7,4.1,14.7,10.7,18.6l0,0c8,4.6,17,7,26.3,7h0.2c38.9,0,75.6-8.9,103.2-25
	c11.7-6.8,21.2-14.6,28.5-23.1c4.2-13.4,6.4-27.4,6.3-41.5c0-3.1-0.1-6.2-0.3-9.3L580.9,300.8z"/>
<path class="st2" d="M582.7,314.7c0.1,24.9-15.8,48-44.8,64.9c-27.6,16.1-64.3,25-103.2,25h-0.2c-8.2,0-14.9-6.7-14.8-15v-33.3l0,0
	c5.2,0.4,10.5,0.5,15.8,0.5c35.8,0,69.6-8.1,95.1-22.9c27.2-15.7,42.3-37.3,42.3-60.7c0-2.6,1.3,0.1,1.3,0.1l6.6,27.3
	C582.1,305.3,582.6,310,582.7,314.7z"/>
<path class="st1" d="M434.7,394.6h-0.2c-2.7,0-4.9-2.2-4.8-5v-22.9c1.9,0,3.9,0.1,5.8,0.1c37.5,0,73.1-8.6,100.1-24.2
	c16.3-9.4,28.7-20.8,36.7-33.6"/>
<line class="st1" x1="397.6" y1="343.6" x2="415.2" y2="353.8"/>
<path class="st2" d="M592.3,392.2h-0.1c-17.5,0-37.2-27.5-37.2-27.5c-0.1-9.7-7-13.6-15.6-8.7c-4.3,2.7-7.9,6.4-10.5,10.7h-0.1
	c-8.1,11.2-17.9,20.7-28.6,26.8c-8.2,4.7-18.6,6.8-26.2,7.9c-0.6-0.1-1.1-0.1-1.7-0.1c-8.8,0-16,7.2-16,16c0,10.1,7.9,25.2,31,15.6
	c27-11.2,37.3,9.1,61,11.1c1.8,0.1,3.6,0.3,5.5,0.3c16,0,29-7.2,29-16c0-1.3-0.3-2.6-0.8-3.8c2.7-1,3.3-2.2,5.6-3.6
	c4.8-2.6,9-6.2,12.3-10.4C605.7,402.9,601.9,392.2,592.3,392.2z"/>
<ellipse transform="matrix(0.2593 -0.9658 0.9658 0.2593 -0.8293 842.5423)" class="st2" cx="548.9" cy="421.8" rx="9.5" ry="20.8"/>
<path class="st2" d="M472.4,401.4c0.6,0,1.1,0,1.7,0.1c7.6-1.1,18-3.2,26.2-7.9c10.6-6.1,20.5-15.6,28.6-26.8h0.1
	c2.6-4.4,6.2-8.1,10.5-10.8c8.5-4.9,15.5-1,15.6,8.7c0.1,0,19.7,27.5,37.2,27.5h0.1c9.6,0,13.3,10.7,7.6,18.4
	c-3.3,4.3-7.5,7.8-12.3,10.4c-18.2,10.5-49.1,9.6-64.9,3.8c-7.1-2.6-14.4-5.9-24-6.6c-7.6-0.5-12.7,0.1-17.3,3.4"/>
<path class="st1" d="M586.2,397c-18-4-32.9-16.8-39.5-34"/>
<path class="st1" d="M584.3,409.6c-11,8.3-30.2,10.7-42.8,5.3"/>
<ellipse transform="matrix(0.8633 -0.5047 0.5047 0.8633 -117.3156 326.862)" class="st0" cx="544.7" cy="380" rx="2.8" ry="4.9"/>
<path class="st0" d="M362.6,293.5C490.8,194.6,615.9,149,651.3,191.2"/>
<circle class="st2" cx="651.3" cy="191.2" r="13"/>
<path class="st0" d="M366.2,243.7c-100.7-63.1-188.7-86.8-217.4-52.5"/>
<circle class="st2" cx="494.5" cy="279.4" r="0.5"/>
<circle class="st2" cx="511.9" cy="269.4" r="0.5"/>
<circle class="st2" cx="481.5" cy="472" r="0.5"/>
<circle class="st2" cx="498.9" cy="462" r="0.5"/>
<circle class="st2" cx="485.8" cy="265.6" r="0.5"/>
<circle class="st2" cx="503.2" cy="255.6" r="0.5"/>
<circle class="st2" cx="477.1" cy="251.9" r="0.5"/>
<circle class="st2" cx="494.5" cy="241.9" r="0.5"/>
<path class="st1" d="M481.5,427.6c-3.3,0-6-2.7-6-6s2.7-6,6-6"/>
<path class="st2" d="M371.5,391.5c0-22-15.5-48.7-34.6-59.8c-9.6-5.6-18.4-6.1-24.6-2.4l0,0l-17.2,9.9v20.5l7.4-4.3
	c1.7,21.1,16.5,45.4,34.5,55.8c1.8,1,3.7,2,5.6,2.7v10.5l17.2-9.9l0,0C366.9,411.4,371.5,403.4,371.5,391.5z"/>
<ellipse transform="matrix(0.8633 -0.5047 0.5047 0.8633 -148.8636 213.3896)" class="st2" cx="319.5" cy="381.5" rx="28.2" ry="48.8"/>
<ellipse transform="matrix(0.8633 -0.5047 0.5047 0.8633 -148.8636 213.3896)" class="st2" cx="319.5" cy="381.5" rx="19" ry="33"/>
<path class="st2" d="M342.9,395c0.1,3-0.5,6-1.6,8.7c-3.4,8.1-11.9,10.3-21.8,4.6c-12.9-7.5-23.4-25.5-23.4-40.3
	c0-11.3,6.1-17.5,14.7-16.4c3.1,0.4,6,1.5,8.7,3.1C332.4,362.1,342.9,380.2,342.9,395z"/>
<path class="st2" d="M342.9,395c0.1,3-0.5,6-1.6,8.7c-3.1-0.4-6-1.5-8.7-3.1c-12.9-7.5-23.4-25.5-23.4-40.3c-0.1-3,0.5-5.9,1.5-8.7
	c3.1,0.4,6,1.5,8.7,3.1C332.4,362.1,342.9,380.2,342.9,395z"/>
<line class="st0" x1="333.8" y1="401.3" x2="320.5" y2="408.9"/>
<line class="st0" x1="326" y1="395.7" x2="312.8" y2="403.4"/>
<line class="st0" x1="330.5" y1="328.8" x2="313.2" y2="338.8"/>
<line class="st0" x1="339.7" y1="333.5" x2="322.3" y2="343.5"/>
<circle class="st4" cx="430.7" cy="112.3" r="3"/>
<circle class="st4" cx="655.3" cy="187.2" r="2"/>
</svg>
