<?xml version="1.0" encoding="utf-8"?>
<!-- Generator: Adobe Illustrator 23.0.1, SVG Export Plug-In . SVG Version: 6.00 Build 0)  -->
<svg version="1.1" id="Isolation_Mode" xmlns="http://www.w3.org/2000/svg" xmlns:xlink="http://www.w3.org/1999/xlink" x="0px"
	 y="0px" viewBox="0 0 800 800" style="enable-background:new 0 0 800 800;" xml:space="preserve">
<style type="text/css">
	.st0{fill:#FFFFFF;stroke:#212121;stroke-width:4;stroke-linecap:round;stroke-linejoin:round;}
	.st1{fill:none;stroke:#212121;stroke-width:2;stroke-linecap:round;stroke-linejoin:round;}
	.st2{clip-path:url(#SVGID_2_);}
	.st3{fill:none;stroke:#212121;stroke-width:4;stroke-linecap:round;stroke-linejoin:round;}
	.st4{clip-path:url(#SVGID_4_);}
	.st5{clip-path:url(#SVGID_6_);}
	.st6{clip-path:url(#SVGID_8_);}
</style>
<title>iocn_yellow</title>
<polygon class="st0" points="374,530 321.9,500 374,470 "/>
<path class="st0" d="M573,245.3l-43-24.8l-0.2-0.1l-0.2-0.1l0,0c-21.6-12.5-48.1-12.4-69.7,0.1L269.2,330.4
	c-37.2,21.4-60.1,61.1-60.1,104v9.5c-0.1,25.2,13.4,48.4,35.3,60.8l0,0l43.4,25l8.3-17.8c6.3-1.6,12.4-4.1,18-7.4l190.7-109.9
	c37.2-21.4,60.1-61.1,60.1-104v-9.5c0-9.6-1.9-19.1-5.7-27.9L573,245.3z"/>
<path class="st0" d="M559.2,253.3c3.8,8.8,5.7,18.3,5.7,27.9v9.5c0,42.9-22.9,82.6-60.1,104L314.1,504.5c-5.6,3.3-11.7,5.7-18,7.4
	l-8.3,17.8l-43.4-25c-21.9-12.4-35.4-35.6-35.3-60.8v-9.5c0-42.9,22.9-82.6,60.1-104l190.7-109.9c10.6-6.2,22.6-9.4,34.9-9.4
	c12.2,0,24.2,3.2,34.8,9.3l0.2,0.1l0.2,0.1l43,24.8L559.2,253.3z"/>
<path class="st1" d="M503.3,245.5L312.6,355.4c-37.2,21.4-60.1,61.1-60.1,104v9.5c0,53.9,58.3,87.6,105,60.6l190.7-109.9
	c37.2-21.4,60.1-61.1,60.1-104v-9.5C608.2,252.3,550,218.6,503.3,245.5z"/>
<path class="st0" d="M503.3,245.5L312.6,355.4c-37.2,21.4-60.1,61.1-60.1,104v9.5c0,53.9,58.3,87.6,105,60.6l7.9-4.5l52.1,30v-60
	l130.8-75.4c37.2-21.4,60.1-61.1,60.1-104v-9.5C608.2,252.3,550,218.6,503.3,245.5z"/>
<path class="st1" d="M510.3,257.6c8.4-5,18.1-7.6,27.9-7.6c27,0,56.1,21.5,56.1,56.1"/>
<g>
	<defs>
		<path id="SVGID_1_" d="M530.2,390.4V430l-69.4,40v-38.4c0-7.1,3.8-13.8,10-17.3l50.4-29c2.9-1.7,6.5-0.7,8.2,2.2
			C529.9,388.3,530.2,389.3,530.2,390.4z"/>
	</defs>
	<clipPath id="SVGID_2_">
		<use xlink:href="#SVGID_1_"  style="overflow:visible;"/>
	</clipPath>
	<g class="st2">
		<line class="st1" x1="233.5" y1="202.1" x2="1125.2" y2="441.8"/>
		<line class="st1" x1="226.4" y1="209.1" x2="1118.1" y2="448.9"/>
		<line class="st1" x1="219.3" y1="216.2" x2="1111" y2="455.9"/>
		<line class="st1" x1="212.3" y1="223.3" x2="1103.9" y2="463"/>
		<line class="st1" x1="205.2" y1="230.4" x2="1096.9" y2="470.1"/>
		<line class="st1" x1="198.1" y1="237.4" x2="1089.8" y2="477.1"/>
		<line class="st1" x1="191.1" y1="244.5" x2="1082.7" y2="484.2"/>
		<line class="st1" x1="184" y1="251.6" x2="1075.7" y2="491.3"/>
		<line class="st1" x1="176.9" y1="258.6" x2="1068.6" y2="498.4"/>
		<line class="st1" x1="169.9" y1="265.7" x2="1061.5" y2="505.4"/>
		<line class="st1" x1="162.8" y1="272.8" x2="1054.4" y2="512.5"/>
		<line class="st1" x1="155.7" y1="279.9" x2="1047.4" y2="519.6"/>
		<line class="st1" x1="148.6" y1="286.9" x2="1040.3" y2="526.7"/>
		<line class="st1" x1="141.6" y1="294" x2="1033.2" y2="533.7"/>
		<line class="st1" x1="134.5" y1="301.1" x2="1026.2" y2="540.8"/>
		<line class="st1" x1="127.4" y1="308.1" x2="1019.1" y2="547.9"/>
		<line class="st1" x1="120.3" y1="315.2" x2="1012" y2="554.9"/>
		<line class="st1" x1="113.3" y1="322.3" x2="1005" y2="562"/>
		<line class="st1" x1="106.2" y1="329.4" x2="997.9" y2="569.1"/>
		<line class="st1" x1="99.1" y1="336.4" x2="990.8" y2="576.2"/>
		<line class="st1" x1="92.1" y1="343.5" x2="983.7" y2="583.2"/>
		<line class="st1" x1="85" y1="350.6" x2="976.7" y2="590.3"/>
		<line class="st1" x1="77.9" y1="357.6" x2="969.6" y2="597.4"/>
		<line class="st1" x1="70.8" y1="364.7" x2="962.5" y2="604.4"/>
		<line class="st1" x1="63.8" y1="371.8" x2="955.5" y2="611.5"/>
		<line class="st1" x1="56.7" y1="378.9" x2="948.4" y2="618.6"/>
		<line class="st1" x1="49.6" y1="385.9" x2="941.3" y2="625.7"/>
		<line class="st1" x1="42.6" y1="393" x2="934.2" y2="632.7"/>
		<line class="st1" x1="35.5" y1="400.1" x2="927.2" y2="639.8"/>
		<line class="st1" x1="28.4" y1="407.1" x2="920.1" y2="646.9"/>
		<line class="st1" x1="21.4" y1="414.2" x2="913" y2="653.9"/>
		<line class="st1" x1="14.3" y1="421.3" x2="906" y2="661"/>
		<line class="st1" x1="7.2" y1="428.4" x2="898.9" y2="668.1"/>
		<line class="st1" x1="0.1" y1="435.4" x2="891.8" y2="675.1"/>
		<line class="st1" x1="-6.9" y1="442.5" x2="884.7" y2="682.2"/>
	</g>
</g>
<path class="st1" d="M350.5,517.4c-8.4,5-18,7.6-27.8,7.6l0,0c-27,0-56.1-21.5-56.1-56.1v-9.5c0.1-37.9,20.3-72.9,53.1-91.8"/>
<path class="st0" d="M556.2,450v-51.1l14.7-8.5l-17.4-10l0,0c-1.9-1.3-4.3-1.4-6.3-0.2l-47.4,27.3c-8,4.6-13,13.2-13,22.5v64.6
	c0,2.3,1.3,4.4,3.4,5.4l0,0l17.4,10l54.7-31.5l-15.1-8.7C552.9,464.8,556.2,457.6,556.2,450z"/>
<path class="st0" d="M560.5,482.5l-47.4,27.3c-2.9,1.7-6.5,0.7-8.2-2.2c-0.5-0.9-0.8-1.9-0.8-3V440c0-9.3,5-17.9,13-22.5l47.4-27.3
	c2.9-1.7,6.5-0.7,8.2,2.2c0.5,0.9,0.8,1.9,0.8,3V460C573.5,469.3,568.6,477.9,560.5,482.5z"/>
<polygon class="st3" points="200.4,330 330.6,265 217.8,340 "/>
<line class="st3" x1="488.8" y1="420" x2="500.8" y2="426.9"/>
<line class="st3" x1="482" y1="212.2" x2="525.4" y2="237.2"/>
<line class="st3" x1="497.4" y1="211.1" x2="540.7" y2="236.1"/>
<line class="st3" x1="219.7" y1="481.1" x2="263.1" y2="506.1"/>
<line class="st3" x1="213" y1="467.3" x2="256.4" y2="492.3"/>
<g>
	<defs>
		<path id="SVGID_3_" d="M321.9,300l-69.4,100l-25.1-14.5l-12.2,11.1c9.3-28,28.5-51.5,54-66.2L321.9,300L321.9,300z"/>
	</defs>
	<clipPath id="SVGID_4_">
		<use xlink:href="#SVGID_3_"  style="overflow:visible;"/>
	</clipPath>
	<g class="st4">
		<line class="st1" x1="126.4" y1="256.4" x2="1018.1" y2="496.1"/>
		<line class="st1" x1="119.4" y1="263.5" x2="1011" y2="503.2"/>
		<line class="st1" x1="112.3" y1="270.6" x2="1004" y2="510.3"/>
		<line class="st1" x1="105.2" y1="277.6" x2="996.9" y2="517.4"/>
		<line class="st1" x1="98.2" y1="284.7" x2="989.8" y2="524.4"/>
		<line class="st1" x1="91.1" y1="291.8" x2="982.8" y2="531.5"/>
		<line class="st1" x1="84" y1="298.9" x2="975.7" y2="538.6"/>
		<line class="st1" x1="76.9" y1="305.9" x2="968.6" y2="545.7"/>
		<line class="st1" x1="69.9" y1="313" x2="961.5" y2="552.7"/>
		<line class="st1" x1="62.8" y1="320.1" x2="954.5" y2="559.8"/>
		<line class="st1" x1="55.7" y1="327.1" x2="947.4" y2="566.9"/>
		<line class="st1" x1="48.7" y1="334.2" x2="940.3" y2="573.9"/>
		<line class="st1" x1="41.6" y1="341.3" x2="933.2" y2="581"/>
		<line class="st1" x1="34.5" y1="348.4" x2="926.2" y2="588.1"/>
		<line class="st1" x1="27.4" y1="355.4" x2="919.1" y2="595.2"/>
		<line class="st1" x1="20.4" y1="362.5" x2="912" y2="602.2"/>
		<line class="st1" x1="13.3" y1="369.6" x2="905" y2="609.3"/>
		<line class="st1" x1="6.2" y1="376.6" x2="897.9" y2="616.4"/>
		<line class="st1" x1="-0.9" y1="383.7" x2="890.8" y2="623.4"/>
		<line class="st1" x1="-7.9" y1="390.8" x2="883.8" y2="630.5"/>
		<line class="st1" x1="-15" y1="397.9" x2="876.7" y2="637.6"/>
		<line class="st1" x1="-22.1" y1="404.9" x2="869.6" y2="644.6"/>
		<line class="st1" x1="-29.1" y1="412" x2="862.5" y2="651.7"/>
		<line class="st1" x1="-36.2" y1="419.1" x2="855.5" y2="658.8"/>
		<line class="st1" x1="-43.3" y1="426.1" x2="848.4" y2="665.9"/>
		<line class="st1" x1="-50.3" y1="433.2" x2="841.3" y2="672.9"/>
		<line class="st1" x1="-57.4" y1="440.3" x2="834.3" y2="680"/>
		<line class="st1" x1="-64.5" y1="447.4" x2="827.2" y2="687.1"/>
		<line class="st1" x1="-71.6" y1="454.4" x2="820.1" y2="694.1"/>
		<line class="st1" x1="-78.6" y1="461.5" x2="813" y2="701.2"/>
		<line class="st1" x1="-85.7" y1="468.6" x2="806" y2="708.3"/>
		<line class="st1" x1="-92.8" y1="475.6" x2="798.9" y2="715.4"/>
		<line class="st1" x1="-99.8" y1="482.7" x2="791.8" y2="722.4"/>
		<line class="st1" x1="-106.9" y1="489.8" x2="784.8" y2="729.5"/>
		<line class="st1" x1="-114" y1="496.9" x2="777.7" y2="736.6"/>
	</g>
</g>
<g>
	<defs>
		
			<ellipse id="SVGID_5_" transform="matrix(0.5047 -0.8633 0.8633 0.5047 -164.415 533.4243)" cx="382.7" cy="410" rx="70.8" ry="40.9"/>
	</defs>
	<clipPath id="SVGID_6_">
		<use xlink:href="#SVGID_5_"  style="overflow:visible;"/>
	</clipPath>
	<g class="st5">
		<line class="st1" x1="126.4" y1="256.4" x2="1018.1" y2="496.1"/>
		<line class="st1" x1="119.4" y1="263.5" x2="1011" y2="503.2"/>
		<line class="st1" x1="112.3" y1="270.6" x2="1004" y2="510.3"/>
		<line class="st1" x1="105.2" y1="277.6" x2="996.9" y2="517.4"/>
		<line class="st1" x1="98.1" y1="284.7" x2="989.8" y2="524.4"/>
		<line class="st1" x1="91.1" y1="291.8" x2="982.8" y2="531.5"/>
		<line class="st1" x1="84" y1="298.9" x2="975.7" y2="538.6"/>
		<line class="st1" x1="76.9" y1="305.9" x2="968.6" y2="545.7"/>
		<line class="st1" x1="69.9" y1="313" x2="961.5" y2="552.7"/>
		<line class="st1" x1="62.8" y1="320.1" x2="954.5" y2="559.8"/>
		<line class="st1" x1="55.7" y1="327.1" x2="947.4" y2="566.9"/>
		<line class="st1" x1="48.6" y1="334.2" x2="940.3" y2="573.9"/>
		<line class="st1" x1="41.6" y1="341.3" x2="933.2" y2="581"/>
		<line class="st1" x1="34.5" y1="348.4" x2="926.2" y2="588.1"/>
		<line class="st1" x1="27.4" y1="355.4" x2="919.1" y2="595.2"/>
		<line class="st1" x1="20.4" y1="362.5" x2="912" y2="602.2"/>
		<line class="st1" x1="13.3" y1="369.6" x2="905" y2="609.3"/>
		<line class="st1" x1="6.2" y1="376.6" x2="897.9" y2="616.4"/>
		<line class="st1" x1="-0.9" y1="383.7" x2="890.8" y2="623.4"/>
		<line class="st1" x1="-7.9" y1="390.8" x2="883.8" y2="630.5"/>
		<line class="st1" x1="-15" y1="397.8" x2="876.7" y2="637.6"/>
		<line class="st1" x1="-22.1" y1="404.9" x2="869.6" y2="644.6"/>
		<line class="st1" x1="-29.1" y1="412" x2="862.5" y2="651.7"/>
		<line class="st1" x1="-36.2" y1="419.1" x2="855.5" y2="658.8"/>
		<line class="st1" x1="-43.3" y1="426.1" x2="848.4" y2="665.9"/>
		<line class="st1" x1="-50.3" y1="433.2" x2="841.3" y2="672.9"/>
		<line class="st1" x1="-57.4" y1="440.3" x2="834.3" y2="680"/>
		<line class="st1" x1="-64.5" y1="447.3" x2="827.2" y2="687.1"/>
		<line class="st1" x1="-71.6" y1="454.4" x2="820.1" y2="694.1"/>
		<line class="st1" x1="-78.6" y1="461.5" x2="813" y2="701.2"/>
		<line class="st1" x1="-85.7" y1="468.6" x2="806" y2="708.3"/>
		<line class="st1" x1="-92.8" y1="475.6" x2="798.9" y2="715.4"/>
		<line class="st1" x1="-99.8" y1="482.7" x2="791.8" y2="722.4"/>
		<line class="st1" x1="-106.9" y1="489.8" x2="784.8" y2="729.5"/>
		<line class="st1" x1="-114" y1="496.8" x2="777.7" y2="736.6"/>
	</g>
</g>
<path class="st0" d="M575.5,150c0,0-25.6-14.8-26-15l0,0c-3.6-1.8-7.8-1.7-11.3,0.4l-128.9,74.2c-11.1,6.4-18,18.3-18,31.2v108.4
	c0,4.6,2.6,8.7,6.6,10.8l0,0l26,15L575.5,150z"/>
<polygon class="st0" points="209.1,375 200.4,330 330.6,265 "/>
<polygon class="st0" points="330.6,265 157,305 261.2,365 "/>
<line class="st1" x1="261.2" y1="355" x2="295.9" y2="305"/>
<polygon class="st0" points="209.1,375 217.8,340 330.6,265 200.4,330 "/>
<polygon class="st0" points="495.5,300 530.2,320 530.2,350 495.5,330 "/>
<path class="st0" d="M564.2,150.4l-128.8,74.2c-11.1,6.4-18,18.3-18,31.2v108.4c0,6.6,5.4,12,12,12c2.1,0,4.2-0.6,6-1.6l128.8-74.2
	c11.1-6.4,18-18.3,18-31.2V160.8c0-6.6-5.4-12-12-12C568.1,148.8,566,149.3,564.2,150.4z"/>
<path class="st0" d="M564.2,150.4l-128.8,74.2c-11.1,6.4-18,18.3-18,31.2v108.4c0,6.6,5.4,12,12,12c2.1,0,4.2-0.6,6-1.6l94.8-54.6
	v30l26-45l8-4.6c11.1-6.4,18-18.3,18-31.2V160.8c0-6.6-5.4-12-12-12C568,148.8,566,149.3,564.2,150.4z"/>
<path class="st0" d="M517.7,251.7l-8.7-5l0,0l-0.1-0.1l0,0c-2.4-1.3-5.5-1.1-9.1,1c-7.2,4.1-13,14.2-13,22.4c0,4.2,1.5,7.1,3.9,8.4
	l0,0l8.8,5.1L517.7,251.7z"/>
<path class="st0" d="M552.4,231.7l-8.7-5l0,0h-0.1l0,0c-2.3-1.3-5.5-1.1-9.1,1c-7.2,4.1-13,14.2-13,22.4c0,4.2,1.5,7.1,3.9,8.4l0,0
	l8.8,5.1L552.4,231.7z"/>
<line class="st3" x1="396.2" y1="222.8" x2="417.4" y2="235"/>
<ellipse transform="matrix(0.505 -0.8631 0.8631 0.505 55.2582 591.4273)" class="st0" cx="543.2" cy="247.5" rx="18.3" ry="10.6"/>
<path class="st0" d="M470.9,344.1l-26.1-15l0,0c-9.1-5.6-22-5-36.2,3.2c-27.7,16-50.2,54.8-50.2,86.6c0,15.5,5.3,26.5,14,31.8l0,0
	l0.4,0.2l0.5,0.3l25.1,14.5L470.9,344.1z"/>
<path class="st1" d="M543.2,255.5c-3.8,2.2-6.9,0.4-6.9-4"/>
<ellipse transform="matrix(0.5026 -0.8645 0.8645 0.5026 19.7248 569.8529)" class="st0" cx="505.1" cy="267.8" rx="18.2" ry="10.5"/>
<path class="st0" d="M483,271.7l-8.7-5h0l-0.1,0l0,0c-2.3-1.3-5.5-1-9.1,1c-7.2,4.1-13,14.2-13,22.4c0,4.2,1.5,7.1,3.9,8.4l0,0
	l8.8,5.1L483,271.7z"/>
<path class="st1" d="M508.5,275.5c-3.8,2.2-6.9,0.4-6.9-4"/>
<ellipse transform="matrix(0.505 -0.8631 0.8631 0.505 -13.651 551.257)" class="st0" cx="473.8" cy="287.5" rx="18.3" ry="10.6"/>
<path class="st1" d="M473.8,295.5c-3.8,2.2-6.9,0.4-6.9-4"/>
<ellipse transform="matrix(0.5047 -0.8633 0.8633 0.5047 -134.316 575.8903)" class="st0" cx="434.7" cy="405" rx="70.8" ry="40.9"/>
<ellipse transform="matrix(0.5047 -0.8633 0.8633 0.5047 -134.316 575.8903)" class="st0" cx="434.7" cy="405" rx="70.8" ry="40.9"/>
<path class="st1" d="M439.7,356c6.3-3.6,12.4-5.6,17.5-5.6s17.7,2.6,17.7,25.6"/>
<line class="st3" x1="383" y1="355.2" x2="409.1" y2="370.2"/>
<line class="st3" x1="377.9" y1="362.2" x2="403.9" y2="377.2"/>
<line class="st3" x1="373.3" y1="369.6" x2="399.3" y2="384.6"/>
<line class="st1" x1="408.7" y1="540" x2="408.7" y2="510"/>
<line class="st3" x1="535.5" y1="136.9" x2="561.5" y2="151.9"/>
<line class="st3" x1="526.8" y1="141.9" x2="552.8" y2="156.9"/>
<line class="st1" x1="534.4" y1="437.6" x2="534.4" y2="447.6"/>
<path class="st1" d="M568.2,157.3c0.6-0.4,1.3-0.6,2-0.6c2.2,0,4,1.8,4,4v108.5c0,10-5.3,19.2-14,24.3"/>
<line class="st1" x1="425.4" y1="310.4" x2="425.4" y2="255.8"/>
<g>
	<defs>
		<ellipse id="SVGID_7_" cx="400" cy="654" rx="180" ry="24"/>
	</defs>
	<clipPath id="SVGID_8_">
		<use xlink:href="#SVGID_7_"  style="overflow:visible;"/>
	</clipPath>
	<g class="st6">
		<line class="st1" x1="-36.4" y1="729.1" x2="763.6" y2="268.1"/>
		<line class="st1" x1="-36.4" y1="739.1" x2="763.6" y2="278.1"/>
		<line class="st1" x1="-36.4" y1="749.1" x2="763.6" y2="288.1"/>
		<line class="st1" x1="-36.4" y1="759.1" x2="763.6" y2="298.1"/>
		<line class="st1" x1="-36.4" y1="769.1" x2="763.6" y2="308.1"/>
		<line class="st1" x1="-36.4" y1="779.1" x2="763.6" y2="318.1"/>
		<line class="st1" x1="-36.4" y1="789.1" x2="763.6" y2="328.1"/>
		<line class="st1" x1="-36.4" y1="799.1" x2="763.6" y2="338.1"/>
		<line class="st1" x1="-36.4" y1="809.1" x2="763.6" y2="348.1"/>
		<line class="st1" x1="-36.4" y1="819.1" x2="763.6" y2="358.1"/>
		<line class="st1" x1="-36.4" y1="829.1" x2="763.6" y2="368.1"/>
		<line class="st1" x1="-36.4" y1="839.1" x2="763.6" y2="378.1"/>
		<line class="st1" x1="-36.4" y1="849.1" x2="763.6" y2="388.1"/>
		<line class="st1" x1="-36.4" y1="859.1" x2="763.6" y2="398.1"/>
		<line class="st1" x1="-36.4" y1="869.1" x2="763.6" y2="408.1"/>
		<line class="st1" x1="-36.4" y1="879.1" x2="763.6" y2="418.1"/>
		<line class="st1" x1="-36.4" y1="889.1" x2="763.6" y2="428.1"/>
		<line class="st1" x1="-36.4" y1="899.1" x2="763.6" y2="438.1"/>
		<line class="st1" x1="-36.4" y1="909.1" x2="763.6" y2="448.1"/>
		<line class="st1" x1="-36.4" y1="919.1" x2="763.6" y2="458.1"/>
		<line class="st1" x1="-36.4" y1="929.1" x2="763.6" y2="468.1"/>
		<line class="st1" x1="-36.4" y1="939.1" x2="763.6" y2="478.1"/>
		<line class="st1" x1="-36.4" y1="949.1" x2="763.6" y2="488.1"/>
		<line class="st1" x1="-36.4" y1="959.1" x2="763.6" y2="498.1"/>
		<line class="st1" x1="-36.4" y1="969.1" x2="763.6" y2="508.1"/>
		<line class="st1" x1="-36.4" y1="979.1" x2="763.6" y2="518.1"/>
		<line class="st1" x1="-36.4" y1="989.1" x2="763.6" y2="528.1"/>
		<line class="st1" x1="-36.4" y1="999.1" x2="763.6" y2="538.1"/>
		<line class="st1" x1="-36.4" y1="1009.1" x2="763.6" y2="548.1"/>
		<line class="st1" x1="-36.4" y1="1019.1" x2="763.6" y2="558.1"/>
		<line class="st1" x1="-36.4" y1="1029.1" x2="763.6" y2="568.1"/>
		<line class="st1" x1="-36.4" y1="1039.1" x2="763.6" y2="578.1"/>
		<line class="st1" x1="-36.4" y1="1049.1" x2="763.6" y2="588.1"/>
		<line class="st1" x1="-36.4" y1="1059.1" x2="763.6" y2="598.1"/>
		<line class="st1" x1="-36.4" y1="1069.1" x2="763.6" y2="608.1"/>
	</g>
</g>
<path class="st3" d="M539.5,458.6l-1.4,0.8c-5,2.9-9.2-0.2-9.2-6.9v-17.9c0-6.7,4.1-14.6,9.2-17.5l1.4-0.8c5.1-2.9,9.2,0.2,9.2,6.9
	v17.9C548.7,447.9,544.6,455.7,539.5,458.6z"/>
<path class="st3" d="M555,440.5c0,10.4-7.2,23-16.2,28.1s-16.2,0.9-16.2-9.4"/>
<line class="st3" x1="538.8" y1="468.6" x2="538.8" y2="477.4"/>
<line class="st3" x1="547.9" y1="472.1" x2="529.7" y2="482.7"/>
<ellipse transform="matrix(0.5047 -0.8633 0.8633 0.5047 -104.8458 581.9587)" class="st3" cx="454.7" cy="382.3" rx="9.8" ry="5.6"/>
<ellipse transform="matrix(0.5047 -0.8633 0.8633 0.5047 -144.6625 558.8358)" class="st3" cx="414.7" cy="405.5" rx="9.8" ry="5.6"/>
<path class="st3" d="M452.7,406.3c1.2-0.7,2,0.1,1.7,1.6c-2.6,11.1-10.4,22.6-19.6,28s-17.1,2.8-19.6-5.3c-0.2-1.4,0.4-2.8,1.6-3.5
	L452.7,406.3z"/>
</svg>
