<svg id="Isolation_Mode" data-name="Isolation Mode" xmlns="http://www.w3.org/2000/svg" xmlns:xlink="http://www.w3.org/1999/xlink" viewBox="0 0 800 800"><defs><style>.cls-1,.cls-3,.cls-9{fill:none;}.cls-2{clip-path:url(#clip-path);}.cls-3,.cls-4,.cls-9{stroke:#212121;stroke-linecap:round;stroke-linejoin:round;}.cls-3{stroke-width:2px;}.cls-4{fill:#fff;}.cls-4,.cls-9{stroke-width:4px;}.cls-5{clip-path:url(#clip-path-2);}.cls-6{clip-path:url(#clip-path-3);}.cls-7{clip-path:url(#clip-path-4);}.cls-8{clip-path:url(#clip-path-5);}</style><clipPath id="clip-path"><ellipse class="cls-1" cx="400" cy="654.05" rx="150" ry="23"/></clipPath><clipPath id="clip-path-2"><polygon class="cls-1" points="382.65 485 382.65 541.77 313.23 581.85 313.23 525 382.65 485"/></clipPath><clipPath id="clip-path-3"><polygon class="cls-1" points="530.15 400 504.12 415 504.12 471.64 434.71 511.71 434.71 455 408.68 470 469.41 365 530.15 400"/></clipPath><clipPath id="clip-path-4"><path class="cls-1" d="M440.07,291.91h0a10.7,10.7,0,0,0-5.36,9.28v20a8,8,0,0,0,12,6.93h0a10.7,10.7,0,0,0,5.36-9.28v-20A8,8,0,0,0,440.07,291.91Z"/></clipPath><clipPath id="clip-path-5"><path class="cls-1" d="M353.3,341.91h0a10.7,10.7,0,0,0-5.36,9.28v20a8,8,0,0,0,12,6.93h0a10.7,10.7,0,0,0,5.36-9.28v-20A8,8,0,0,0,353.3,341.91Z"/></clipPath></defs><title>iocn_yellow</title><g class="cls-2"><line class="cls-3" x1="-36.41" y1="729.06" x2="763.61" y2="268.06"/><line class="cls-3" x1="-36.41" y1="739.06" x2="763.61" y2="278.06"/><line class="cls-3" x1="-36.41" y1="749.06" x2="763.61" y2="288.06"/><line class="cls-3" x1="-36.41" y1="759.06" x2="763.61" y2="298.06"/><line class="cls-3" x1="-36.41" y1="769.06" x2="763.61" y2="308.06"/><line class="cls-3" x1="-36.41" y1="779.06" x2="763.61" y2="318.06"/><line class="cls-3" x1="-36.41" y1="789.06" x2="763.61" y2="328.06"/><line class="cls-3" x1="-36.41" y1="799.06" x2="763.61" y2="338.06"/><line class="cls-3" x1="-36.41" y1="809.06" x2="763.61" y2="348.06"/><line class="cls-3" x1="-36.41" y1="819.06" x2="763.61" y2="358.06"/><line class="cls-3" x1="-36.41" y1="829.06" x2="763.61" y2="368.06"/><line class="cls-3" x1="-36.41" y1="839.06" x2="763.61" y2="378.06"/><line class="cls-3" x1="-36.41" y1="849.06" x2="763.61" y2="388.06"/><line class="cls-3" x1="-36.41" y1="859.06" x2="763.61" y2="398.06"/><line class="cls-3" x1="-36.41" y1="869.06" x2="763.61" y2="408.06"/><line class="cls-3" x1="-36.41" y1="879.06" x2="763.61" y2="418.06"/><line class="cls-3" x1="-36.41" y1="889.06" x2="763.61" y2="428.06"/><line class="cls-3" x1="-36.41" y1="899.06" x2="763.61" y2="438.06"/><line class="cls-3" x1="-36.41" y1="909.06" x2="763.61" y2="448.06"/><line class="cls-3" x1="-36.41" y1="919.06" x2="763.61" y2="458.06"/><line class="cls-3" x1="-36.41" y1="929.06" x2="763.61" y2="468.06"/><line class="cls-3" x1="-36.41" y1="939.06" x2="763.61" y2="478.06"/><line class="cls-3" x1="-36.41" y1="949.06" x2="763.61" y2="488.06"/><line class="cls-3" x1="-36.41" y1="959.06" x2="763.61" y2="498.06"/><line class="cls-3" x1="-36.41" y1="969.06" x2="763.61" y2="508.06"/><line class="cls-3" x1="-36.41" y1="979.06" x2="763.61" y2="518.06"/><line class="cls-3" x1="-36.41" y1="989.06" x2="763.61" y2="528.06"/><line class="cls-3" x1="-36.41" y1="999.06" x2="763.61" y2="538.06"/><line class="cls-3" x1="-36.41" y1="1009.06" x2="763.61" y2="548.06"/><line class="cls-3" x1="-36.41" y1="1019.06" x2="763.61" y2="558.06"/><line class="cls-3" x1="-36.41" y1="1029.06" x2="763.61" y2="568.06"/><line class="cls-3" x1="-36.41" y1="1039.06" x2="763.61" y2="578.06"/><line class="cls-3" x1="-36.41" y1="1049.06" x2="763.61" y2="588.06"/><line class="cls-3" x1="-36.41" y1="1059.06" x2="763.61" y2="598.06"/><line class="cls-3" x1="-36.41" y1="1069.06" x2="763.61" y2="608.06"/></g><path class="cls-4" d="M606.42,247.1l-51.28-29.55-.72-.41-.06,0h0c-14.49-8.06-34.13-7.17-55.89,4.42V211.16l-51.58-29.72-.43-.25,0,0h0c-21.51-12.09-51.12-10.13-83.82,8.75-58.3,33.66-106.8,109.77-117,179.17a99,99,0,0,0-15.53,7.32c-46.54,26.88-84.27,92-84.27,145.37,0,26.31,9.16,44.88,24,53.73h0l1,.6,51,29.4V574.08c2.58-1.21,5.2-2.56,7.85-4.08h0L495.45,416.59h0c34.92-20.32,64.83-62.12,77.49-104.28l33.48,19.29Z"/><path class="cls-4" d="M197.85,551.77c0-53.41,37.73-118.49,84.27-145.37a98.66,98.66,0,0,1,15.54-7.32c10.2-69.4,58.69-145.51,117-179.17s106.8-13.54,117,44.08a128.76,128.76,0,0,1,15.53-10.62c46.54-26.87,84.27-5.35,84.27,48.05S593.9,419.6,547.51,446.59h0L281.79,600h0C235.4,626.58,197.85,605.05,197.85,551.77Z"/><path class="cls-4" d="M197.85,551.77c0-53.41,37.73-118.49,84.27-145.37a98.66,98.66,0,0,1,15.54-7.32c10.2-69.4,58.69-145.51,117-179.17s106.8-13.54,117,44.08a128.76,128.76,0,0,1,15.53-10.62c46.54-26.87,84.27-5.35,84.27,48.05S593.9,419.6,547.51,446.59h0L281.79,600h0C235.4,626.58,197.85,605.05,197.85,551.77Z"/><path class="cls-4" d="M631.45,301.42c0,53.28-37.55,118.18-83.94,145.17l-43.39,25.05-69.41,40.07-52.06,30.06-69.42,40.08L281.79,600c-13.48,7.72-26.21,11.39-37.5,11.39-27.54,0-46.44-21.83-46.44-59.63,0-53.4,37.73-118.49,84.27-145.36a99,99,0,0,1,15.53-7.32c10.21-69.4,58.7-145.51,117-179.17s106.79-13.54,117,44.08a128.76,128.76,0,0,1,15.53-10.62C593.72,226.5,631.45,248,631.45,301.42Z"/><path class="cls-3" d="M213.85,551.76c0-23,8-49.55,22.53-74.6"/><path class="cls-3" d="M313.48,401.41c4.65-31.61,18.17-65.92,38.06-96.61,20-30.89,45.28-56.12,71.11-71"/><line class="cls-4" x1="297.66" y1="399.08" x2="245.59" y2="369.08"/><line class="cls-4" x1="200.16" y1="572.98" x2="148.1" y2="542.99"/><line class="cls-4" x1="204.21" y1="585" x2="152.15" y2="555"/><line class="cls-4" x1="213.2" y1="600.5" x2="169.81" y2="575.5"/><line class="cls-4" x1="580.66" y1="241.98" x2="528.6" y2="211.98"/><line class="cls-4" x1="567.97" y1="244.34" x2="515.91" y2="214.35"/><line class="cls-4" x1="299.26" y1="389.69" x2="247.2" y2="359.69"/><line class="cls-4" x1="297.66" y1="399.08" x2="254.27" y2="374.08"/><path class="cls-4" d="M553.77,110.1V76.32l-33.5,6.94L486.77,115v33.79c.13,4.22,1,16.47,9,23.74a19.61,19.61,0,0,0,6.09,3.75l17.36,10,33.5-31.74-10.28-5.93q1.15-2.09,2.26-4.33C552.8,127.7,553.65,114.47,553.77,110.1Z"/><path class="cls-4" d="M537.63,93.26l33.5-6.94V120.1c-.13,4.37-1,17.6-9,34.18a94.53,94.53,0,0,1-24.46,31.66c-3.34,1.14-15.41,4.75-24.47-3.41-8.07-7.27-8.91-19.52-9-23.74V125Z"/><g class="cls-5"><line class="cls-3" x1="-52.07" y1="689.84" x2="747.95" y2="228.84"/><line class="cls-3" x1="-52.07" y1="699.84" x2="747.95" y2="238.84"/><line class="cls-3" x1="-52.07" y1="709.84" x2="747.95" y2="248.84"/><line class="cls-3" x1="-52.07" y1="719.84" x2="747.95" y2="258.84"/><line class="cls-3" x1="-52.07" y1="729.84" x2="747.95" y2="268.84"/><line class="cls-3" x1="-52.07" y1="739.84" x2="747.95" y2="278.84"/><line class="cls-3" x1="-52.07" y1="749.84" x2="747.95" y2="288.84"/><line class="cls-3" x1="-52.07" y1="759.84" x2="747.95" y2="298.84"/><line class="cls-3" x1="-52.07" y1="769.84" x2="747.95" y2="308.84"/><line class="cls-3" x1="-52.07" y1="779.84" x2="747.95" y2="318.84"/><line class="cls-3" x1="-52.07" y1="789.84" x2="747.95" y2="328.84"/><line class="cls-3" x1="-52.07" y1="799.84" x2="747.95" y2="338.84"/><line class="cls-3" x1="-52.07" y1="809.84" x2="747.95" y2="348.84"/><line class="cls-3" x1="-52.07" y1="819.84" x2="747.95" y2="358.84"/><line class="cls-3" x1="-52.07" y1="829.84" x2="747.95" y2="368.84"/><line class="cls-3" x1="-52.07" y1="839.84" x2="747.95" y2="378.84"/><line class="cls-3" x1="-52.07" y1="849.84" x2="747.95" y2="388.84"/><line class="cls-3" x1="-52.07" y1="859.84" x2="747.95" y2="398.84"/><line class="cls-3" x1="-52.07" y1="869.84" x2="747.95" y2="408.84"/><line class="cls-3" x1="-52.07" y1="879.84" x2="747.95" y2="418.84"/><line class="cls-3" x1="-52.07" y1="889.84" x2="747.95" y2="428.84"/><line class="cls-3" x1="-52.07" y1="899.84" x2="747.95" y2="438.84"/><line class="cls-3" x1="-52.07" y1="909.84" x2="747.95" y2="448.84"/><line class="cls-3" x1="-52.07" y1="919.84" x2="747.95" y2="458.84"/><line class="cls-3" x1="-52.07" y1="929.84" x2="747.95" y2="468.84"/><line class="cls-3" x1="-52.07" y1="939.84" x2="747.95" y2="478.84"/><line class="cls-3" x1="-52.07" y1="949.84" x2="747.95" y2="488.84"/><line class="cls-3" x1="-52.07" y1="959.84" x2="747.95" y2="498.84"/><line class="cls-3" x1="-52.07" y1="969.84" x2="747.95" y2="508.84"/><line class="cls-3" x1="-52.07" y1="979.84" x2="747.95" y2="518.84"/><line class="cls-3" x1="-52.07" y1="989.84" x2="747.95" y2="528.84"/><line class="cls-3" x1="-52.07" y1="999.84" x2="747.95" y2="538.84"/><line class="cls-3" x1="-52.07" y1="1009.84" x2="747.95" y2="548.84"/><line class="cls-3" x1="-52.07" y1="1019.84" x2="747.95" y2="558.84"/><line class="cls-3" x1="-52.07" y1="1029.84" x2="747.95" y2="568.84"/></g><g class="cls-6"><line class="cls-3" x1="-36.41" y1="619.06" x2="763.61" y2="158.06"/><line class="cls-3" x1="-36.41" y1="629.06" x2="763.61" y2="168.06"/><line class="cls-3" x1="-36.41" y1="639.06" x2="763.61" y2="178.06"/><line class="cls-3" x1="-36.41" y1="649.06" x2="763.61" y2="188.06"/><line class="cls-3" x1="-36.41" y1="659.06" x2="763.61" y2="198.06"/><line class="cls-3" x1="-36.41" y1="669.06" x2="763.61" y2="208.06"/><line class="cls-3" x1="-36.41" y1="679.06" x2="763.61" y2="218.06"/><line class="cls-3" x1="-36.41" y1="689.06" x2="763.61" y2="228.06"/><line class="cls-3" x1="-36.41" y1="699.06" x2="763.61" y2="238.06"/><line class="cls-3" x1="-36.41" y1="709.06" x2="763.61" y2="248.06"/><line class="cls-3" x1="-36.41" y1="719.06" x2="763.61" y2="258.06"/><line class="cls-3" x1="-36.41" y1="729.06" x2="763.61" y2="268.06"/><line class="cls-3" x1="-36.41" y1="739.06" x2="763.61" y2="278.06"/><line class="cls-3" x1="-36.41" y1="749.06" x2="763.61" y2="288.06"/><line class="cls-3" x1="-36.41" y1="759.06" x2="763.61" y2="298.06"/><line class="cls-3" x1="-36.41" y1="769.06" x2="763.61" y2="308.06"/><line class="cls-3" x1="-36.41" y1="779.06" x2="763.61" y2="318.06"/><line class="cls-3" x1="-36.41" y1="789.06" x2="763.61" y2="328.06"/><line class="cls-3" x1="-36.41" y1="799.06" x2="763.61" y2="338.06"/><line class="cls-3" x1="-36.41" y1="809.06" x2="763.61" y2="348.06"/><line class="cls-3" x1="-36.41" y1="819.06" x2="763.61" y2="358.06"/><line class="cls-3" x1="-36.41" y1="829.06" x2="763.61" y2="368.06"/><line class="cls-3" x1="-36.41" y1="839.06" x2="763.61" y2="378.06"/><line class="cls-3" x1="-36.41" y1="849.06" x2="763.61" y2="388.06"/><line class="cls-3" x1="-36.41" y1="859.06" x2="763.61" y2="398.06"/><line class="cls-3" x1="-36.41" y1="869.06" x2="763.61" y2="408.06"/><line class="cls-3" x1="-36.41" y1="879.06" x2="763.61" y2="418.06"/><line class="cls-3" x1="-36.41" y1="889.06" x2="763.61" y2="428.06"/><line class="cls-3" x1="-36.41" y1="899.06" x2="763.61" y2="438.06"/><line class="cls-3" x1="-36.41" y1="909.06" x2="763.61" y2="448.06"/><line class="cls-3" x1="-36.41" y1="919.06" x2="763.61" y2="458.06"/><line class="cls-3" x1="-36.41" y1="929.06" x2="763.61" y2="468.06"/><line class="cls-3" x1="-36.41" y1="939.06" x2="763.61" y2="478.06"/><line class="cls-3" x1="-36.41" y1="949.06" x2="763.61" y2="488.06"/><line class="cls-3" x1="-36.41" y1="959.06" x2="763.61" y2="498.06"/></g><polygon class="cls-4" points="520.27 83.26 537.63 93.26 504.12 125 486.77 115 520.27 83.26"/><polygon class="cls-4" points="520.27 83.26 537.63 93.26 571.13 86.31 553.77 76.31 520.27 83.26"/><polygon class="cls-4" points="339.26 500 365.29 515 365.29 595 339.26 580 339.26 500"/><polygon class="cls-4" points="339.26 500 365.29 515 434.71 475 408.68 460 339.26 500"/><polygon class="cls-4" points="313.23 595 339.26 610 365.29 595 339.26 580 313.23 595"/><polygon class="cls-4" points="408.68 540 434.71 555 460.74 540 434.71 525 408.68 540"/><polygon class="cls-4" points="339.26 610 400 645 460.74 540 434.71 555 434.71 475 365.29 515 365.29 595 339.26 610"/><polyline class="cls-3" points="375.29 600.78 375.29 520.78 424.71 492.3"/><polygon class="cls-4" points="460.74 430 486.77 445 486.77 525 460.74 510 460.74 430"/><polygon class="cls-4" points="582.22 390 521.48 355 460.74 460 486.77 445 486.77 525 556.18 485 556.18 405 582.22 390"/><polyline class="cls-3" points="525.13 368.65 562.19 390 546.19 399.22"/><polygon class="cls-4" points="495.77 340 521.48 355 460.39 460 434.68 445 495.77 340"/><polygon class="cls-4" points="546.67 116.44 534.46 137.5 528.58 134.15 521.35 146.62 527.23 149.97 534.46 154.1 553.9 120.57 546.67 116.44"/><line class="cls-4" x1="504.12" y1="125" x2="486.77" y2="115"/><line class="cls-4" x1="504.12" y1="134.68" x2="486.77" y2="124.68"/><line class="cls-4" x1="504.12" y1="145" x2="486.77" y2="135"/><line class="cls-4" x1="521.48" y1="355" x2="504.12" y2="345"/><line class="cls-4" x1="517.28" y1="362.26" x2="491.47" y2="347.39"/><line class="cls-4" x1="512.76" y1="369.98" x2="486.98" y2="355.12"/><line class="cls-4" x1="365.29" y1="515" x2="339.26" y2="500"/><line class="cls-4" x1="365.29" y1="524.68" x2="339.26" y2="509.68"/><line class="cls-4" x1="365.29" y1="535" x2="339.26" y2="520"/><g class="cls-7"><line class="cls-3" x1="-62.08" y1="539.06" x2="737.94" y2="78.06"/><line class="cls-3" x1="-62.08" y1="549.06" x2="737.94" y2="88.06"/><line class="cls-3" x1="-62.08" y1="559.06" x2="737.94" y2="98.06"/><line class="cls-3" x1="-62.08" y1="569.06" x2="737.94" y2="108.06"/><line class="cls-3" x1="-62.08" y1="579.06" x2="737.94" y2="118.06"/><line class="cls-3" x1="-62.08" y1="589.06" x2="737.94" y2="128.06"/><line class="cls-3" x1="-62.08" y1="599.06" x2="737.94" y2="138.06"/><line class="cls-3" x1="-62.08" y1="609.06" x2="737.94" y2="148.06"/><line class="cls-3" x1="-62.08" y1="619.06" x2="737.94" y2="158.06"/><line class="cls-3" x1="-62.08" y1="629.06" x2="737.94" y2="168.06"/><line class="cls-3" x1="-62.08" y1="639.06" x2="737.94" y2="178.06"/><line class="cls-3" x1="-62.08" y1="649.06" x2="737.94" y2="188.06"/><line class="cls-3" x1="-62.08" y1="659.06" x2="737.94" y2="198.06"/><line class="cls-3" x1="-62.08" y1="669.06" x2="737.94" y2="208.06"/><line class="cls-3" x1="-62.08" y1="679.06" x2="737.94" y2="218.06"/><line class="cls-3" x1="-62.08" y1="689.06" x2="737.94" y2="228.06"/><line class="cls-3" x1="-62.08" y1="699.06" x2="737.94" y2="238.06"/><line class="cls-3" x1="-62.08" y1="709.06" x2="737.94" y2="248.06"/><line class="cls-3" x1="-62.08" y1="719.06" x2="737.94" y2="258.06"/><line class="cls-3" x1="-62.08" y1="729.06" x2="737.94" y2="268.06"/><line class="cls-3" x1="-62.08" y1="739.06" x2="737.94" y2="278.06"/><line class="cls-3" x1="-62.08" y1="749.06" x2="737.94" y2="288.06"/><line class="cls-3" x1="-62.08" y1="759.06" x2="737.94" y2="298.06"/><line class="cls-3" x1="-62.08" y1="769.06" x2="737.94" y2="308.06"/><line class="cls-3" x1="-62.08" y1="779.06" x2="737.94" y2="318.06"/><line class="cls-3" x1="-62.08" y1="789.06" x2="737.94" y2="328.06"/><line class="cls-3" x1="-62.08" y1="799.06" x2="737.94" y2="338.06"/><line class="cls-3" x1="-62.08" y1="809.06" x2="737.94" y2="348.06"/><line class="cls-3" x1="-62.08" y1="819.06" x2="737.94" y2="358.06"/><line class="cls-3" x1="-62.08" y1="829.06" x2="737.94" y2="368.06"/><line class="cls-3" x1="-62.08" y1="839.06" x2="737.94" y2="378.06"/><line class="cls-3" x1="-62.08" y1="849.06" x2="737.94" y2="388.06"/><line class="cls-3" x1="-62.08" y1="859.06" x2="737.94" y2="398.06"/><line class="cls-3" x1="-62.08" y1="869.06" x2="737.94" y2="408.06"/><line class="cls-3" x1="-62.08" y1="879.06" x2="737.94" y2="418.06"/></g><g class="cls-8"><line class="cls-3" x1="-148.85" y1="589.06" x2="651.17" y2="128.06"/><line class="cls-3" x1="-148.85" y1="599.06" x2="651.17" y2="138.06"/><line class="cls-3" x1="-148.85" y1="609.06" x2="651.17" y2="148.06"/><line class="cls-3" x1="-148.85" y1="619.06" x2="651.17" y2="158.06"/><line class="cls-3" x1="-148.85" y1="629.06" x2="651.17" y2="168.06"/><line class="cls-3" x1="-148.85" y1="639.06" x2="651.17" y2="178.06"/><line class="cls-3" x1="-148.85" y1="649.06" x2="651.17" y2="188.06"/><line class="cls-3" x1="-148.85" y1="659.06" x2="651.17" y2="198.06"/><line class="cls-3" x1="-148.85" y1="669.06" x2="651.17" y2="208.06"/><line class="cls-3" x1="-148.85" y1="679.06" x2="651.17" y2="218.06"/><line class="cls-3" x1="-148.85" y1="689.06" x2="651.17" y2="228.06"/><line class="cls-3" x1="-148.85" y1="699.06" x2="651.17" y2="238.06"/><line class="cls-3" x1="-148.85" y1="709.06" x2="651.17" y2="248.06"/><line class="cls-3" x1="-148.85" y1="719.06" x2="651.17" y2="258.06"/><line class="cls-3" x1="-148.85" y1="729.06" x2="651.17" y2="268.06"/><line class="cls-3" x1="-148.85" y1="739.06" x2="651.17" y2="278.06"/><line class="cls-3" x1="-148.85" y1="749.06" x2="651.17" y2="288.06"/><line class="cls-3" x1="-148.85" y1="759.06" x2="651.17" y2="298.06"/><line class="cls-3" x1="-148.85" y1="769.06" x2="651.17" y2="308.06"/><line class="cls-3" x1="-148.85" y1="779.06" x2="651.17" y2="318.06"/><line class="cls-3" x1="-148.85" y1="789.06" x2="651.17" y2="328.06"/><line class="cls-3" x1="-148.85" y1="799.06" x2="651.17" y2="338.06"/><line class="cls-3" x1="-148.85" y1="809.06" x2="651.17" y2="348.06"/><line class="cls-3" x1="-148.85" y1="819.06" x2="651.17" y2="358.06"/><line class="cls-3" x1="-148.85" y1="829.06" x2="651.17" y2="368.06"/><line class="cls-3" x1="-148.85" y1="839.06" x2="651.17" y2="378.06"/><line class="cls-3" x1="-148.85" y1="849.06" x2="651.17" y2="388.06"/><line class="cls-3" x1="-148.85" y1="859.06" x2="651.17" y2="398.06"/><line class="cls-3" x1="-148.85" y1="869.06" x2="651.17" y2="408.06"/><line class="cls-3" x1="-148.85" y1="879.06" x2="651.17" y2="418.06"/><line class="cls-3" x1="-148.85" y1="889.06" x2="651.17" y2="428.06"/><line class="cls-3" x1="-148.85" y1="899.06" x2="651.17" y2="438.06"/><line class="cls-3" x1="-148.85" y1="909.06" x2="651.17" y2="448.06"/><line class="cls-3" x1="-148.85" y1="919.06" x2="651.17" y2="458.06"/><line class="cls-3" x1="-148.85" y1="929.06" x2="651.17" y2="468.06"/></g><path class="cls-4" d="M465.65,292.06l-8.68-5h0a7.91,7.91,0,0,0-8.23-.16h0a10.72,10.72,0,0,0-5.36,9.28v20a7.88,7.88,0,0,0,3.7,6.72v0l.15.08.32.19,8.2,4.73,1.79-6.46a10.68,10.68,0,0,0,3.2-7.63v-4Z"/><path class="cls-4" d="M457.42,291.91h0a10.72,10.72,0,0,0-5.36,9.28v20a8,8,0,0,0,12,6.93h0a10.72,10.72,0,0,0,5.36-9.28v-20A8,8,0,0,0,457.42,291.91Z"/><line class="cls-3" x1="453.7" y1="295.34" x2="445.03" y2="290.34"/><path class="cls-4" d="M378.88,342.06l-8.68-5h0a7.91,7.91,0,0,0-8.23-.16h0a10.71,10.71,0,0,0-5.35,9.28v20a7.88,7.88,0,0,0,3.69,6.72v0l.15.08.33.19,8.2,4.73,1.78-6.46a10.68,10.68,0,0,0,3.2-7.63v-4Z"/><path class="cls-4" d="M370.65,341.91h0a10.72,10.72,0,0,0-5.36,9.28v20a8,8,0,0,0,12,6.93h0a10.72,10.72,0,0,0,5.36-9.28v-20A8,8,0,0,0,370.65,341.91Z"/><line class="cls-3" x1="366.93" y1="345.5" x2="358.26" y2="340.5"/><path class="cls-4" d="M419.69,373.66h0A13.14,13.14,0,0,1,400,362.28V355l34.71-20v12.66A30,30,0,0,1,419.69,373.66Z"/><line class="cls-4" x1="400" y1="365" x2="434.71" y2="345"/><path class="cls-3" d="M414,357a17.66,17.66,0,0,1,13.95,9.73"/><path class="cls-4" d="M230,233l-17.35-10h0c-9.49-6.37-23.12-5.94-38.26,2.8-28.7,16.57-52,56.69-52,89.62,0,15.2,5,26.19,13.11,32h0l.08,0a24,24,0,0,0,4,2.34l13.23,7.62,3.52-5.68a52.2,52.2,0,0,0,18-6.71c28.7-16.57,52-56.7,52-89.63a56.07,56.07,0,0,0-1.62-13.9Z"/><ellipse class="cls-4" cx="191.75" cy="295.37" rx="73.26" ry="42.29" transform="translate(-160.02 311.84) rotate(-59.69)"/><path class="cls-3" d="M149.79,325.37c0-29.19,21.51-66.26,47-81"/><line class="cls-4" x1="220.23" y1="227.31" x2="212.67" y2="222.95"/><line class="cls-4" x1="207.24" y1="229.5" x2="189.89" y2="219.5"/><line class="cls-4" x1="196.14" y1="233.43" x2="178.79" y2="223.43"/><path class="cls-9" d="M170.47,337.12V331c5.37,3.34,15.62,7.45,24,2.62,12.36-7.13,38.32-29.13,24.59-41.34l-7.08.31c-3.11,11.13-11,22.29-20.22,27.62-7.21,4.16-13.6,3.8-17.53-.17l9.24-5.33v-9l-20.74,12,0,0v23.85Z"/><polygon class="cls-4" points="162.68 317.77 162.68 341.62 171.36 346.62 171.36 322.77 162.68 317.77"/><polygon class="cls-4" points="162.68 317.77 183.47 305.77 192.14 310.77 171.36 322.77 162.68 317.77"/><path class="cls-4" d="M213,253.62v6.12c-5.36-3.34-12.91-3-21.28,1.85-12.36,7.13-22.93,22-27.29,36.86l8.67,5,7.8-4.5,9.25-19.08L200,276V285l20.75-12,0,0V249.12Z"/><polygon class="cls-4" points="200.04 276.03 200.04 284.98 208.72 289.98 208.72 281.03 200.04 276.03"/><polygon class="cls-4" points="211.97 292.6 219.05 292.3 227.73 297.3 220.64 297.6 211.97 292.6"/><path class="cls-4" d="M221.71,258.62v6.12c-5.36-3.34-12.91-3-21.28,1.85-12.36,7.13-22.93,22-27.3,36.86l7.09-.3c3.11-11.13,11-22.29,20.21-27.62,7.21-4.16,13.61-3.8,17.53.17L208.72,281V290l20.75-12,0,0V254.12Z"/><path class="cls-4" d="M179.15,342.12V336c5.36,3.34,12.91,3,21.28-1.85,12.36-7.13,22.93-22,27.3-36.87l-7.09.31c-3.11,11.13-11,22.29-20.21,27.62-7.21,4.16-13.61,3.8-17.53-.17l9.24-5.33v-9l-20.75,12,0,0v23.85Z"/><polygon class="cls-4" points="213.03 253.63 220.82 249.13 229.5 254.13 221.71 258.63 213.03 253.63"/></svg>