<?xml version="1.0" encoding="utf-8"?>
<!-- Generator: Adobe Illustrator 23.0.1, SVG Export Plug-In . SVG Version: 6.00 Build 0)  -->
<svg version="1.1" id="Isolation_Mode" xmlns="http://www.w3.org/2000/svg" xmlns:xlink="http://www.w3.org/1999/xlink" x="0px"
	 y="0px" viewBox="0 0 800 800" style="enable-background:new 0 0 800 800;" xml:space="preserve">
<style type="text/css">
	.st0{clip-path:url(#SVGID_2_);}
	.st1{fill:none;stroke:#212121;stroke-width:2;stroke-linecap:round;stroke-linejoin:round;}
	.st2{fill:#FFFFFF;stroke:#212121;stroke-width:4;stroke-linecap:round;stroke-linejoin:round;}
	.st3{clip-path:url(#SVGID_4_);}
	.st4{fill:none;stroke:#212121;stroke-width:4;stroke-linecap:round;stroke-linejoin:round;}
	.st5{clip-path:url(#SVGID_6_);}
	.st6{clip-path:url(#SVGID_8_);}
	.st7{clip-path:url(#SVGID_10_);}
	.st8{clip-path:url(#SVGID_12_);}
	.st9{fill:#FFE603;stroke:#212121;stroke-width:4;stroke-linecap:round;stroke-linejoin:round;}
	.st10{fill:#212121;stroke:#212121;stroke-width:3;stroke-linecap:round;stroke-linejoin:round;}
	.st11{clip-path:url(#SVGID_14_);}
	.st12{fill:none;stroke:#212121;stroke-width:3;stroke-linecap:round;stroke-linejoin:round;}
	.st13{fill:#FFFFFF;stroke:#212121;stroke-width:2;stroke-linecap:round;stroke-linejoin:round;}
	.st14{fill:#FFFFFF;}
	.st15{clip-path:url(#SVGID_16_);}
	.st16{fill:#FFFFFF;stroke:#212121;stroke-width:3;stroke-linecap:round;stroke-linejoin:round;stroke-dasharray:8,8;}
	.st17{fill:none;stroke:#212121;stroke-width:3;stroke-linecap:round;stroke-linejoin:round;stroke-dasharray:8,8;}
	.st18{clip-path:url(#SVGID_18_);}
	.st19{clip-path:url(#SVGID_20_);}
</style>
<title>iocn_yellow</title>
<g>
	<defs>
		<ellipse id="SVGID_1_" cx="397.7" cy="655" rx="150" ry="23"/>
	</defs>
	<clipPath id="SVGID_2_">
		<use xlink:href="#SVGID_1_"  style="overflow:visible;"/>
	</clipPath>
	<g class="st0">
		<line class="st1" x1="-38.7" y1="730.1" x2="761.3" y2="269.1"/>
		<line class="st1" x1="-38.7" y1="740.1" x2="761.3" y2="279.1"/>
		<line class="st1" x1="-38.7" y1="750.1" x2="761.3" y2="289.1"/>
		<line class="st1" x1="-38.7" y1="760.1" x2="761.3" y2="299.1"/>
		<line class="st1" x1="-38.7" y1="770.1" x2="761.3" y2="309.1"/>
		<line class="st1" x1="-38.7" y1="780.1" x2="761.3" y2="319.1"/>
		<line class="st1" x1="-38.7" y1="790.1" x2="761.3" y2="329.1"/>
		<line class="st1" x1="-38.7" y1="800.1" x2="761.3" y2="339.1"/>
		<line class="st1" x1="-38.7" y1="810.1" x2="761.3" y2="349.1"/>
		<line class="st1" x1="-38.7" y1="820.1" x2="761.3" y2="359.1"/>
		<line class="st1" x1="-38.7" y1="830.1" x2="761.3" y2="369.1"/>
		<line class="st1" x1="-38.7" y1="840.1" x2="761.3" y2="379.1"/>
		<line class="st1" x1="-38.7" y1="850.1" x2="761.3" y2="389.1"/>
		<line class="st1" x1="-38.7" y1="860.1" x2="761.3" y2="399.1"/>
		<line class="st1" x1="-38.7" y1="870.1" x2="761.3" y2="409.1"/>
		<line class="st1" x1="-38.7" y1="880.1" x2="761.3" y2="419.1"/>
		<line class="st1" x1="-38.7" y1="890.1" x2="761.3" y2="429.1"/>
		<line class="st1" x1="-38.7" y1="900.1" x2="761.3" y2="439.1"/>
		<line class="st1" x1="-38.7" y1="910.1" x2="761.3" y2="449.1"/>
		<line class="st1" x1="-38.7" y1="920.1" x2="761.3" y2="459.1"/>
		<line class="st1" x1="-38.7" y1="930.1" x2="761.3" y2="469.1"/>
		<line class="st1" x1="-38.7" y1="940.1" x2="761.3" y2="479.1"/>
		<line class="st1" x1="-38.7" y1="950.1" x2="761.3" y2="489.1"/>
		<line class="st1" x1="-38.7" y1="960.1" x2="761.3" y2="499.1"/>
		<line class="st1" x1="-38.7" y1="970.1" x2="761.3" y2="509.1"/>
		<line class="st1" x1="-38.7" y1="980.1" x2="761.3" y2="519.1"/>
		<line class="st1" x1="-38.7" y1="990.1" x2="761.3" y2="529.1"/>
		<line class="st1" x1="-38.7" y1="1000.1" x2="761.3" y2="539.1"/>
		<line class="st1" x1="-38.7" y1="1010.1" x2="761.3" y2="549.1"/>
		<line class="st1" x1="-38.7" y1="1020.1" x2="761.3" y2="559.1"/>
		<line class="st1" x1="-38.7" y1="1030.1" x2="761.3" y2="569.1"/>
		<line class="st1" x1="-38.7" y1="1040.1" x2="761.3" y2="579.1"/>
		<line class="st1" x1="-38.7" y1="1050.1" x2="761.3" y2="589.1"/>
		<line class="st1" x1="-38.7" y1="1060.1" x2="761.3" y2="599.1"/>
		<line class="st1" x1="-38.7" y1="1070.1" x2="761.3" y2="609.1"/>
	</g>
</g>
<path class="st2" d="M249.1,178.8l-14.2,14.1l0,0c-3.1,3-4.2,7.5-3.1,11.6l99.2,369c4.4,16.5,17.4,29.5,33.9,33.9l175.6,47.2
	c4.1,1.1,8.6,0,11.6-3.1l0,0l14.1-14.2L249.1,178.8z"/>
<path class="st2" d="M436.3,222.9l-175.6-47.2c-6.4-1.7-13,2.1-14.7,8.5c-0.6,2-0.6,4.2,0,6.2l99.2,369
	c4.4,16.5,17.4,29.4,33.9,33.9l175.6,47.2c6.4,1.7,13-2.1,14.7-8.5c0.5-2,0.5-4.2,0-6.2l-99.2-369
	C465.7,240.2,452.8,227.3,436.3,222.9z"/>
<path class="st2" d="M435.5,240.6l-160.3-43.1c-3.2-0.9-6.5,1-7.4,4.2c-0.3,1-0.3,2.1,0,3.1l95.1,353.8c2.2,8.3,8.7,14.7,16.9,16.9
	l160.3,43.1c3.2,0.9,6.5-1,7.4-4.2c0.3-1,0.3-2.1,0-3.1l-95.1-353.8C450.2,249.3,443.7,242.8,435.5,240.6z"/>
<path class="st2" d="M117.7,331.5l95.6-88.5l21.7-21.7l14.1,14.1c1,1,1.4,2.5,1,3.9l-24.4,90.8c-1.5,5.5-5.8,9.8-11.3,11.3
	l-100.4,27c-1.4,0.4-2.9,0-3.9-1L96,353.2L117.7,331.5z"/>
<g>
	<defs>
		<path id="SVGID_3_" d="M117.7,331.5l95.6-88.5l21.7-21.7l14.1,14.1c1,1,1.4,2.5,1,3.9l-24.4,90.8c-1.5,5.5-5.8,9.8-11.3,11.3
			l-100.4,27c-1.4,0.4-2.9,0-3.9-1L96,353.2L117.7,331.5z"/>
	</defs>
	<clipPath id="SVGID_4_">
		<use xlink:href="#SVGID_3_"  style="overflow:visible;"/>
	</clipPath>
	<g class="st3">
		<line class="st4" x1="137.2" y1="369.5" x2="104.8" y2="337.1"/>
		<line class="st4" x1="127.4" y1="372.2" x2="95" y2="339.8"/>
		<line class="st4" x1="117.6" y1="374.8" x2="85.2" y2="342.4"/>
	</g>
</g>
<path class="st2" d="M130.7,247.3l100.4-27c2.1-0.6,4.3,0.7,4.9,2.8c0.2,0.7,0.2,1.4,0,2.1L211.6,316c-1.5,5.5-5.8,9.8-11.3,11.3
	l-100.4,27c-2.1,0.6-4.3-0.7-4.9-2.8c-0.2-0.7-0.2-1.4,0-2.1l24.4-90.8C120.8,253.1,125.1,248.8,130.7,247.3z"/>
<line class="st4" x1="221.6" y1="337.2" x2="211.7" y2="327.4"/>
<line class="st4" x1="343.4" y1="595" x2="353.3" y2="585.1"/>
<path class="st2" d="M231.3,345.9L217.2,360l0,0c-1,1-1.4,2.5-1,3.9l27,100.5c1.5,5.5,5.8,9.8,11.3,11.3l226.2,60.8
	c1.4,0.4,2.9,0,3.9-1l0,0l14.1-14.1L231.3,345.9z"/>
<g>
	<defs>
		<path id="SVGID_5_" d="M231.3,345.9L217.2,360l0,0c-1,1-1.4,2.5-1,3.9l27,100.5c1.5,5.5,5.8,9.8,11.3,11.3l226.2,60.8
			c1.4,0.4,2.9,0,3.9-1l0,0l14.1-14.1L231.3,345.9z"/>
	</defs>
	<clipPath id="SVGID_6_">
		<use xlink:href="#SVGID_5_"  style="overflow:visible;"/>
	</clipPath>
	<g class="st5">
		<line class="st4" x1="451" y1="544.1" x2="483.3" y2="511.7"/>
		<line class="st4" x1="460.8" y1="546.7" x2="493.1" y2="514.3"/>
		<line class="st4" x1="470.6" y1="549.4" x2="503" y2="517"/>
	</g>
</g>
<path class="st2" d="M461.4,405.7l-226.2-60.8c-2.1-0.6-4.3,0.7-4.9,2.8c-0.2,0.7-0.2,1.4,0,2.1l27,100.5c1.5,5.5,5.8,9.8,11.3,11.3
	l226.2,60.8c2.1,0.6,4.3-0.7,4.9-2.8c0.2-0.7,0.2-1.4,0-2.1l-27-100.4C471.2,411.5,466.9,407.1,461.4,405.7z"/>
<line class="st4" x1="247.3" y1="471.5" x2="257.2" y2="461.6"/>
<path class="st4" d="M324.8,387l-65-17.5c-2.1-0.6-4.3,0.7-4.9,2.8c-0.2,0.7-0.2,1.4,0,2.1l17.4,64.8c0.9,3.4,3.6,6.1,7.1,7.1
	l65,17.5c2.1,0.6,4.3-0.7,4.9-2.8c0.2-0.7,0.2-1.4,0-2.1L331.9,394C330.9,390.6,328.2,387.9,324.8,387z"/>
<line class="st1" x1="323.4" y1="395.5" x2="280.9" y2="437.8"/>
<line class="st1" x1="339" y1="453.5" x2="265.3" y2="379.8"/>
<g>
	<defs>
		<path id="SVGID_7_" d="M435.5,240.6l-160.3-43.1c-3.2-0.9-6.5,1-7.4,4.2c-0.3,1-0.3,2.1,0,3.1l95.1,353.8
			c2.2,8.3,8.7,14.7,16.9,16.9l160.3,43.1c3.2,0.9,6.5-1,7.4-4.2c0.3-1,0.3-2.1,0-3.1l-95.1-353.8
			C450.2,249.3,443.7,242.8,435.5,240.6z"/>
	</defs>
	<clipPath id="SVGID_8_">
		<use xlink:href="#SVGID_7_"  style="overflow:visible;"/>
	</clipPath>
	<g class="st6">
		<g>
			<defs>
				<path id="SVGID_9_" d="M539.9,471.6l-114.6-30.8c-2.1-0.6-4.3,0.7-4.9,2.8c-0.2,0.7-0.2,1.4,0,2.1l4.8,17.9
					c0.7,2.8,2.9,4.9,5.6,5.6L545.4,500c2.1,0.6,4.3-0.7,4.9-2.8c0.2-0.7,0.2-1.4,0-2.1l-4.8-17.9
					C544.8,474.5,542.6,472.4,539.9,471.6z"/>
			</defs>
			<clipPath id="SVGID_10_">
				<use xlink:href="#SVGID_9_"  style="overflow:visible;"/>
			</clipPath>
			<g class="st7">
				<line class="st1" x1="59.3" y1="521.2" x2="859.3" y2="60.2"/>
				<line class="st1" x1="59.3" y1="531.2" x2="859.3" y2="70.2"/>
				<line class="st1" x1="59.3" y1="541.2" x2="859.3" y2="80.2"/>
				<line class="st1" x1="59.3" y1="551.2" x2="859.3" y2="90.2"/>
				<line class="st1" x1="59.3" y1="561.2" x2="859.3" y2="100.2"/>
				<line class="st1" x1="59.3" y1="571.2" x2="859.3" y2="110.2"/>
				<line class="st1" x1="59.3" y1="581.2" x2="859.3" y2="120.2"/>
				<line class="st1" x1="59.3" y1="591.2" x2="859.3" y2="130.2"/>
				<line class="st1" x1="59.3" y1="601.2" x2="859.3" y2="140.2"/>
				<line class="st1" x1="59.3" y1="611.2" x2="859.3" y2="150.2"/>
				<line class="st1" x1="59.3" y1="621.2" x2="859.3" y2="160.2"/>
				<line class="st1" x1="59.3" y1="631.2" x2="859.3" y2="170.2"/>
				<line class="st1" x1="59.3" y1="641.2" x2="859.3" y2="180.2"/>
				<line class="st1" x1="59.3" y1="651.2" x2="859.3" y2="190.2"/>
				<line class="st1" x1="59.3" y1="661.2" x2="859.3" y2="200.2"/>
				<line class="st1" x1="59.3" y1="671.2" x2="859.3" y2="210.2"/>
				<line class="st1" x1="59.3" y1="681.2" x2="859.3" y2="220.2"/>
				<line class="st1" x1="59.3" y1="691.2" x2="859.3" y2="230.2"/>
				<line class="st1" x1="59.3" y1="701.2" x2="859.3" y2="240.2"/>
				<line class="st1" x1="59.3" y1="711.2" x2="859.3" y2="250.2"/>
				<line class="st1" x1="59.3" y1="721.2" x2="859.3" y2="260.2"/>
				<line class="st1" x1="59.3" y1="731.2" x2="859.3" y2="270.2"/>
				<line class="st1" x1="59.3" y1="741.2" x2="859.3" y2="280.2"/>
				<line class="st1" x1="59.3" y1="751.2" x2="859.3" y2="290.2"/>
				<line class="st1" x1="59.3" y1="761.2" x2="859.3" y2="300.2"/>
				<line class="st1" x1="59.3" y1="771.2" x2="859.3" y2="310.2"/>
				<line class="st1" x1="59.3" y1="781.2" x2="859.3" y2="320.2"/>
				<line class="st1" x1="59.3" y1="791.2" x2="859.3" y2="330.2"/>
				<line class="st1" x1="59.3" y1="801.2" x2="859.3" y2="340.2"/>
				<line class="st1" x1="59.3" y1="811.2" x2="859.3" y2="350.2"/>
				<line class="st1" x1="59.3" y1="821.2" x2="859.3" y2="360.2"/>
				<line class="st1" x1="59.3" y1="831.2" x2="859.3" y2="370.2"/>
				<line class="st1" x1="59.3" y1="841.2" x2="859.3" y2="380.2"/>
				<line class="st1" x1="59.3" y1="851.2" x2="859.3" y2="390.2"/>
				<line class="st1" x1="59.3" y1="861.2" x2="859.3" y2="400.2"/>
			</g>
		</g>
		<g>
			<defs>
				<path id="SVGID_11_" d="M546.2,428.5l-133.9-36c-2.1-0.6-4.3,0.7-4.9,2.8c-0.2,0.7-0.2,1.4,0,2.1l4.8,17.9
					c0.7,2.8,2.9,4.9,5.6,5.6l133.9,36c2.1,0.6,4.3-0.7,4.9-2.8c0.2-0.7,0.2-1.4,0-2.1l-4.8-17.9C551.1,431.4,549,429.2,546.2,428.5
					z"/>
			</defs>
			<clipPath id="SVGID_12_">
				<use xlink:href="#SVGID_11_"  style="overflow:visible;"/>
			</clipPath>
			<g class="st8">
				<line class="st1" x1="59.3" y1="521.2" x2="859.3" y2="60.2"/>
				<line class="st1" x1="59.3" y1="531.2" x2="859.3" y2="70.2"/>
				<line class="st1" x1="59.3" y1="541.2" x2="859.3" y2="80.2"/>
				<line class="st1" x1="59.3" y1="551.2" x2="859.3" y2="90.2"/>
				<line class="st1" x1="59.3" y1="561.2" x2="859.3" y2="100.2"/>
				<line class="st1" x1="59.3" y1="571.2" x2="859.3" y2="110.2"/>
				<line class="st1" x1="59.3" y1="581.2" x2="859.3" y2="120.2"/>
				<line class="st1" x1="59.3" y1="591.2" x2="859.3" y2="130.2"/>
				<line class="st1" x1="59.3" y1="601.2" x2="859.3" y2="140.2"/>
				<line class="st1" x1="59.3" y1="611.2" x2="859.3" y2="150.2"/>
				<line class="st1" x1="59.3" y1="621.2" x2="859.3" y2="160.2"/>
				<line class="st1" x1="59.3" y1="631.2" x2="859.3" y2="170.2"/>
				<line class="st1" x1="59.3" y1="641.2" x2="859.3" y2="180.2"/>
				<line class="st1" x1="59.3" y1="651.2" x2="859.3" y2="190.2"/>
				<line class="st1" x1="59.3" y1="661.2" x2="859.3" y2="200.2"/>
				<line class="st1" x1="59.3" y1="671.2" x2="859.3" y2="210.2"/>
				<line class="st1" x1="59.3" y1="681.2" x2="859.3" y2="220.2"/>
				<line class="st1" x1="59.3" y1="691.2" x2="859.3" y2="230.2"/>
				<line class="st1" x1="59.3" y1="701.2" x2="859.3" y2="240.2"/>
				<line class="st1" x1="59.3" y1="711.2" x2="859.3" y2="250.2"/>
				<line class="st1" x1="59.3" y1="721.2" x2="859.3" y2="260.2"/>
				<line class="st1" x1="59.3" y1="731.2" x2="859.3" y2="270.2"/>
				<line class="st1" x1="59.3" y1="741.2" x2="859.3" y2="280.2"/>
				<line class="st1" x1="59.3" y1="751.2" x2="859.3" y2="290.2"/>
				<line class="st1" x1="59.3" y1="761.2" x2="859.3" y2="300.2"/>
				<line class="st1" x1="59.3" y1="771.2" x2="859.3" y2="310.2"/>
				<line class="st1" x1="59.3" y1="781.2" x2="859.3" y2="320.2"/>
				<line class="st1" x1="59.3" y1="791.2" x2="859.3" y2="330.2"/>
				<line class="st1" x1="59.3" y1="801.2" x2="859.3" y2="340.2"/>
				<line class="st1" x1="59.3" y1="811.2" x2="859.3" y2="350.2"/>
				<line class="st1" x1="59.3" y1="821.2" x2="859.3" y2="360.2"/>
				<line class="st1" x1="59.3" y1="831.2" x2="859.3" y2="370.2"/>
				<line class="st1" x1="59.3" y1="841.2" x2="859.3" y2="380.2"/>
				<line class="st1" x1="59.3" y1="851.2" x2="859.3" y2="390.2"/>
				<line class="st1" x1="59.3" y1="861.2" x2="859.3" y2="400.2"/>
			</g>
		</g>
	</g>
</g>
<path class="st9" d="M690.6,533.4l0.1-0.1l25.8-14.9l-73.2-126.9l-26,15l0,0c-9.5,5.3-15.3,16.9-15.3,33.4c0,32.9,23.3,73.1,52,89.6
	C668.3,537.9,681.2,538.7,690.6,533.4L690.6,533.4L690.6,533.4z"/>
<polyline class="st1" points="289.6,251.9 296,248.2 296,248.2 "/>
<line class="st1" x1="307.8" y1="251.4" x2="291.9" y2="260.6"/>
<line class="st1" x1="319.7" y1="254.6" x2="294.2" y2="269.2"/>
<line class="st1" x1="331.5" y1="257.7" x2="296.5" y2="277.9"/>
<line class="st1" x1="343.3" y1="260.9" x2="298.9" y2="286.5"/>
<line class="st1" x1="355.2" y1="264.1" x2="301.2" y2="295.2"/>
<line class="st1" x1="367" y1="267.3" x2="303.5" y2="303.9"/>
<line class="st1" x1="378.8" y1="270.5" x2="305.9" y2="312.5"/>
<polyline class="st1" points="309.4,320.5 390.7,273.6 390.7,273.6 "/>
<polyline class="st1" points="317.6,325.8 402.5,276.8 402.5,276.8 "/>
<line class="st1" x1="411.8" y1="281.5" x2="329.4" y2="329"/>
<line class="st1" x1="416.2" y1="289" x2="341.2" y2="332.1"/>
<line class="st1" x1="418.5" y1="297.6" x2="353.1" y2="335.3"/>
<line class="st1" x1="420.8" y1="306.3" x2="364.9" y2="338.5"/>
<line class="st1" x1="423.1" y1="314.9" x2="376.7" y2="341.7"/>
<polyline class="st1" points="388.6,344.9 388.6,344.9 425.5,323.6 "/>
<line class="st1" x1="427.8" y1="332.2" x2="400.4" y2="348"/>
<line class="st1" x1="430.1" y1="340.9" x2="412.2" y2="351.2"/>
<line class="st1" x1="432.5" y1="349.6" x2="424.1" y2="354.4"/>
<path class="st2" d="M576.4,443.2l7.1-7.1l-9.5-9.4l-1.4-5.2c-0.7-2.8-2.9-4.9-5.7-5.6l-121.3-32.6l-9.4-9.4l-7.1,7.1l0,0
	c-1,1-1.4,2.5-1,3.9l4.8,17.9c0.7,2.8,2.9,4.9,5.6,5.6l133.9,36C573.9,444.6,575.4,444.2,576.4,443.2z"/>
<path class="st2" d="M570.1,486.4l7.1-7.1l-9.4-9.4l-1.4-5.2c-0.7-2.8-2.9-4.9-5.7-5.6l-101.9-27.4l-9.4-9.4l-7.1,7.1l0,0
	c-1,1-1.4,2.5-1,3.9l4.8,17.9c0.7,2.8,2.9,4.9,5.6,5.6l114.6,30.8C567.6,487.7,569.1,487.3,570.1,486.4z"/>
<path class="st2" d="M567.7,451.9l-114.6-30.8c-2.1-0.6-4.3,0.7-4.9,2.8c-0.2,0.7-0.2,1.4,0,2.1l4.8,17.9c0.7,2.8,2.9,4.9,5.6,5.6
	l114.6,30.8c2.1,0.6,4.3-0.7,4.9-2.8c0.2-0.7,0.2-1.4,0-2.1l-4.8-17.9C572.6,454.8,570.5,452.6,567.7,451.9z"/>
<path class="st2" d="M574.1,408.8l-133.9-36c-2.1-0.6-4.3,0.7-4.9,2.8c-0.2,0.7-0.2,1.4,0,2.1l4.8,17.9c0.7,2.8,2.9,4.9,5.6,5.6
	l133.9,36c2.1,0.6,4.3-0.7,4.9-2.8c0.2-0.7,0.2-1.4,0-2.1l-4.8-17.9C579,411.6,576.8,409.5,574.1,408.8z"/>
<path class="st2" d="M587.8,420.8l14.1-14.1l-80.2-80.2l-14.1,14.1l0,0c-1,1-1.4,2.5-1,3.9l14,52.1c1.5,5.5,5.8,9.8,11.3,11.3
	l52.1,14C585.3,422.2,586.8,421.8,587.8,420.8z"/>
<path class="st2" d="M577.7,339.4l-52.1-14c-2.1-0.6-4.3,0.7-4.9,2.8c-0.2,0.7-0.2,1.4,0,2.1l14,52.1c1.5,5.5,5.8,9.8,11.3,11.3
	l52.1,14c2.1,0.6,4.3-0.7,4.9-2.8c0.2-0.7,0.2-1.4,0-2.1l-14-52.1C587.5,345.2,583.2,340.9,577.7,339.4z"/>
<polygon class="st2" points="588.5,384.9 572.3,364.6 567.8,372.1 552.8,353.4 541.6,372.3 "/>
<ellipse transform="matrix(0.7033 -0.7109 0.7109 0.7033 -80.6629 508.1606)" class="st10" cx="568.4" cy="350.7" rx="2.1" ry="3.6"/>
<line class="st1" x1="554.6" y1="362.9" x2="550.3" y2="370"/>
<path class="st2" d="M445.6,339.9l14.1-14.1l-21.7-21.7l-8-29.8c-1.5-5.5-5.8-9.8-11.3-11.3l-78.1-21l0,0l-21.7-21.7l-14.1,14.1l0,0
	c-1,1-1.4,2.5-1,3.9l16.6,61.7c1.5,5.5,5.8,9.8,11.3,11.3l110.1,29.6C443.1,341.3,444.6,340.9,445.6,339.9z"/>
<g>
	<defs>
		<path id="SVGID_13_" d="M445.6,339.9l14.1-14.1l-21.7-21.7l-8-29.8c-1.5-5.5-5.8-9.8-11.3-11.3l-78.1-21l0,0l-21.7-21.7
			l-14.1,14.1l0,0c-1,1-1.4,2.5-1,3.9l16.6,61.7c1.5,5.5,5.8,9.8,11.3,11.3l110.1,29.6C443.1,341.3,444.6,340.9,445.6,339.9z"/>
	</defs>
	<clipPath id="SVGID_14_">
		<use xlink:href="#SVGID_13_"  style="overflow:visible;"/>
	</clipPath>
	<g class="st11">
		<line class="st4" x1="420.4" y1="340.2" x2="452.8" y2="307.9"/>
		<line class="st4" x1="430.2" y1="342.9" x2="462.6" y2="310.5"/>
		<line class="st4" x1="440" y1="345.5" x2="472.4" y2="313.1"/>
	</g>
</g>
<path class="st2" d="M460.8,321.9l-16.6-61.8c-1.5-5.5-5.8-9.8-11.3-11.3l-110.1-29.6c-2.1-0.6-4.3,0.7-4.9,2.8
	c-0.2,0.7-0.2,1.4,0,2.1l16.6,61.8c1.5,5.5,5.8,9.8,11.3,11.3l110.1,29.6c2.1,0.6,4.3-0.7,4.9-2.8C461,323.3,461,322.6,460.8,321.9z
	"/>
<ellipse transform="matrix(0.264 -0.9645 0.9645 0.264 153.9792 625.9833)" class="st2" cx="487.2" cy="212.1" rx="61.3" ry="106.2"/>
<ellipse transform="matrix(0.264 -0.9645 0.9645 0.264 165.1988 621.3698)" class="st2" cx="489.8" cy="202.4" rx="61.3" ry="106.2"/>
<ellipse transform="matrix(0.2536 -0.9673 0.9673 0.2536 186.9099 617.7205)" class="st2" cx="493.7" cy="187.7" rx="35.2" ry="61.1"/>
<line class="st4" x1="525.9" y1="404.8" x2="535.8" y2="394.9"/>
<line class="st4" x1="324" y1="306.7" x2="333.9" y2="296.8"/>
<ellipse transform="matrix(0.5243 -0.8515 0.8515 0.5243 -157.5007 289.227)" class="st10" cx="180.1" cy="285.6" rx="4.4" ry="2.4"/>
<ellipse transform="matrix(0.5243 -0.8515 0.8515 0.5243 -179.0029 267.1042)" class="st10" cx="149.6" cy="293.8" rx="4.4" ry="2.4"/>
<path class="st10" d="M165.9,297.1c-0.3-0.8-2.2-0.4-3-0.2s-2.8,0.9-3.6,2s0.9,2.2,2.6,1.9C163.6,300.2,166.2,298,165.9,297.1z"/>
<path class="st12" d="M167.5,306.4c-4.3,1.1-6.8-1.4-5.7-5.6"/>
<path class="st12" d="M152.1,310.5c4.6-1.5,8.3-5.1,9.8-9.8"/>
<path class="st12" d="M203.5,271.8c4.1-8.5,4.5-18.5,4.2-24.7c-0.1-3.1-3.8-3.5-7.4-0.8l-15.9,11.7c-3.9,0-7.7,0.5-11.4,1.6
	c-4.3,1.2-8.4,2.8-12.3,4.8L149,260c-2.6-1-7.1,1.6-9,5.2c-3.9,7.3-9.2,18.6-9.4,26.1c-2.5,3.8-4.3,8-5.6,12.4
	c-5,18.6,8.4,29.1,29.8,23.4s42.9-25.5,47.9-44.2C203.8,279.3,204.1,275.5,203.5,271.8z"/>
<path class="st1" d="M145.3,268.4l7.4,2.8c-5.4,4.3-10.1,9.4-14.1,15.1C139.1,282.2,141.5,275.8,145.3,268.4z"/>
<path class="st1" d="M197.1,270.6c-1.1-4-3.8-7.4-7.5-9.3l10.2-7.5C199.9,259.5,199,265.2,197.1,270.6z"/>
<path class="st1" d="M152.7,321.5c-16.3,4.4-26-5.2-21.7-21.4"/>
<ellipse transform="matrix(0.2536 -0.9673 0.9673 0.2536 110.4105 569.1238)" class="st1" cx="424" cy="213" rx="0.9" ry="1.6"/>
<ellipse transform="matrix(0.2536 -0.9673 0.9673 0.2536 166.6862 703.3026)" class="st1" cx="539.1" cy="243.6" rx="0.9" ry="1.6"/>
<ellipse transform="matrix(0.2536 -0.9673 0.9673 0.2536 217.2073 715.1302)" class="st1" cx="572" cy="216.8" rx="1" ry="1.7"/>
<ellipse transform="matrix(0.2536 -0.9673 0.9673 0.2536 137.5905 525.3693)" class="st1" cx="409.2" cy="173.5" rx="1" ry="1.7"/>
<ellipse transform="matrix(0.2496 -0.9684 0.9684 0.2496 125.4001 641.6533)" class="st1" cx="476.7" cy="239.9" rx="0.9" ry="1.6"/>
<path class="st2" d="M552.7,203.4c-2.4,8.7-10.5,15.9-23.9,19.5c-26.7,7.1-64-2.8-83.4-22.2c-9.6-9.6-13-19.7-10.8-28.3
	c0-0.1,0-0.2,0.1-0.3v-0.1c8.7-32.3,42.1-51.4,74.6-42.7c32.4,8.7,51.7,41.7,43.4,73.8C552.7,203.2,552.7,203.3,552.7,203.4z"/>
<circle class="st2" cx="490.8" cy="199" r="13"/>
<path class="st13" d="M488.7,206.7c-4.3-1.1-6.8-5.5-5.7-9.8"/>
<circle class="st2" cx="536.5" cy="195.7" r="10.5"/>
<circle class="st2" cx="452.8" cy="173.3" r="10.5"/>
<path class="st14" d="M690.6,533.4l0.1-0.1l25.8-14.9l-73.2-126.9l-26,15l0,0c-9.5,5.3-15.3,16.9-15.3,33.4
	c0,32.9,23.3,73.1,52,89.6C668.3,537.9,681.2,538.7,690.6,533.4L690.6,533.4L690.6,533.4z"/>
<g>
	<defs>
		<path id="SVGID_15_" d="M690.6,533.4l0.1-0.1l25.8-14.9l-73.2-126.9l-26,15l0,0c-9.5,5.3-15.3,16.9-15.3,33.4
			c0,32.9,23.3,73.1,52,89.6C668.3,537.9,681.2,538.7,690.6,533.4L690.6,533.4L690.6,533.4z"/>
	</defs>
	<clipPath id="SVGID_16_">
		<use xlink:href="#SVGID_15_"  style="overflow:visible;"/>
	</clipPath>
	<g class="st15">
		<line class="st4" x1="587.3" y1="457.1" x2="627" y2="434.2"/>
		<line class="st4" x1="596.1" y1="462.2" x2="635.7" y2="439.3"/>
		<line class="st4" x1="604.9" y1="467.2" x2="644.5" y2="444.3"/>
		<line class="st4" x1="658.8" y1="531.5" x2="698.4" y2="508.6"/>
		<line class="st4" x1="667.6" y1="536.6" x2="707.2" y2="513.7"/>
		<line class="st4" x1="676.4" y1="541.6" x2="716" y2="518.8"/>
	</g>
</g>
<path class="st4" d="M690.6,533.4l0.1-0.1l25.8-14.9l-73.2-126.9l-26,15l0,0c-9.5,5.3-15.3,16.9-15.3,33.4c0,32.9,23.3,73.1,52,89.6
	C668.3,537.9,681.2,538.7,690.6,533.4L690.6,533.4L690.6,533.4z"/>
<ellipse transform="matrix(0.8645 -0.5026 0.5026 0.8645 -138.0144 401.4127)" class="st2" cx="675.5" cy="456.7" rx="42.1" ry="72.9"/>
<path class="st2" d="M686,436.3l-6.1,3.5l-6.1-10.6c-6.1-10.5-16-16.2-22-12.7l0,0c-6.1,3.5-6.1,14.8,0,25.3l28.2,48.6l28.2-16.1
	c6.1-3.5,6.1-14.8,0-25.3l0,0C702,438.6,692.1,432.9,686,436.3z"/>
<path class="st1" d="M679.9,479.2L656.6,439c-1.6-2.6-2.4-5.5-2.5-8.5c0-2.7,0.9-4.6,2.5-5.6s3.8-0.7,6.1,0.6
	c2.6,1.6,4.7,3.8,6.1,6.4"/>
<path class="st1" d="M690.9,444.8c1.6-0.9,3.8-0.7,6.1,0.6c2.6,1.6,4.7,3.8,6.1,6.4c3.4,5.8,3.4,12.1,0,14.1"/>
<path class="st1" d="M421.2,264.1L368.4,250c-3.7-1-5.7,1.7-4.6,5.9l0,0c1.1,4.2,5,8.5,8.7,9.5l52.8,14.1c3.7,1,5.7-1.6,4.6-5.9l0,0
	C428.8,269.3,424.9,265.1,421.2,264.1z"/>
<ellipse transform="matrix(0.7033 -0.7109 0.7109 0.7033 -74.9415 323.0628)" class="st1" cx="349.5" cy="251.3" rx="4.9" ry="8.6"/>
<path class="st1" d="M427.1,286.1L374.3,272c-3.7-1-5.7,1.6-4.6,5.9l0,0c1.1,4.2,5,8.5,8.7,9.5l52.8,14.1c3.7,1,5.7-1.7,4.6-5.9l0,0
	C434.7,291.3,430.8,287.1,427.1,286.1z"/>
<ellipse transform="matrix(0.7033 -0.7109 0.7109 0.7033 -88.8193 333.8001)" class="st1" cx="355.5" cy="273.3" rx="4.9" ry="8.5"/>
<ellipse transform="matrix(0.7033 -0.7109 0.7109 0.7033 -213.7356 411.4747)" class="st16" cx="386.1" cy="461.8" rx="10.6" ry="18.3"/>
<ellipse transform="matrix(0.7033 -0.7109 0.7109 0.7033 -208.6318 449.7016)" class="st16" cx="434.4" cy="474.8" rx="10.6" ry="18.3"/>
<ellipse transform="matrix(0.7033 -0.7109 0.7109 0.7033 -241.4678 547.975)" class="st1" cx="535.7" cy="563.2" rx="9.4" ry="16.3"/>
<path class="st17" d="M476.7,556.7l-59.6-16c-6.4-1.7-13,2.1-14.7,8.5c-0.5,2-0.5,4.2,0,6.2l0.4,1.6c2.8,10.5,11.1,18.7,21.6,21.6
	l59.6,16c6.4,1.7,13-2.1,14.7-8.5c0.5-2,0.5-4.2,0-6.2l-0.4-1.6C495.5,567.8,487.2,559.6,476.7,556.7z"/>
<path class="st2" d="M542.9,595.2l14.1-14.2l-90.1-47.7l-14.1,14.1l0,0c-3.1,3-4.2,7.5-3.1,11.6l0.4,1.6
	c2.8,10.5,11.1,18.8,21.6,21.6l59.6,16C535.4,599.4,539.8,598.3,542.9,595.2z"/>
<path class="st2" d="M538.1,546.3l-59.6-16c-6.4-1.7-13,2.1-14.7,8.5c-0.5,2-0.5,4.2,0,6.2l0.4,1.6c2.8,10.5,11.1,18.8,21.6,21.6
	l59.6,16c6.4,1.7,13-2.1,14.7-8.5c0.6-2,0.6-4.2,0-6.2l-0.4-1.6C556.9,557.4,548.6,549.1,538.1,546.3z"/>
<ellipse transform="matrix(0.7033 -0.7109 0.7109 0.7033 -241.2017 552.3221)" class="st1" cx="541" cy="565.1" rx="9.4" ry="16.3"/>
<g>
	<defs>
		<path id="SVGID_17_" d="M1141.9,300l-69.4,100l-25.1-14.5l-12.2,11.1c9.3-28,28.5-51.5,54-66.2L1141.9,300L1141.9,300z"/>
	</defs>
	<clipPath id="SVGID_18_">
		<use xlink:href="#SVGID_17_"  style="overflow:visible;"/>
	</clipPath>
	<g class="st18">
		<line class="st1" x1="797.9" y1="404.9" x2="1689.6" y2="644.6"/>
		<line class="st1" x1="790.9" y1="412" x2="1682.5" y2="651.7"/>
		<line class="st1" x1="783.8" y1="419.1" x2="1675.5" y2="658.8"/>
		<line class="st1" x1="776.7" y1="426.1" x2="1668.4" y2="665.9"/>
		<line class="st1" x1="769.7" y1="433.2" x2="1661.3" y2="672.9"/>
		<line class="st1" x1="762.6" y1="440.3" x2="1654.3" y2="680"/>
		<line class="st1" x1="755.5" y1="447.4" x2="1647.2" y2="687.1"/>
		<line class="st1" x1="748.4" y1="454.4" x2="1640.1" y2="694.1"/>
		<line class="st1" x1="741.4" y1="461.5" x2="1633.1" y2="701.2"/>
		<line class="st1" x1="734.3" y1="468.6" x2="1626" y2="708.3"/>
		<line class="st1" x1="727.2" y1="475.6" x2="1618.9" y2="715.4"/>
		<line class="st1" x1="720.2" y1="482.7" x2="1611.8" y2="722.4"/>
		<line class="st1" x1="713.1" y1="489.8" x2="1604.8" y2="729.5"/>
		<line class="st1" x1="706" y1="496.9" x2="1597.7" y2="736.6"/>
	</g>
</g>
<g>
	<defs>
		
			<ellipse id="SVGID_19_" transform="matrix(0.5047 -0.8633 0.8633 0.5047 241.7525 1241.3185)" cx="1202.6" cy="410" rx="70.8" ry="40.9"/>
	</defs>
	<clipPath id="SVGID_20_">
		<use xlink:href="#SVGID_19_"  style="overflow:visible;"/>
	</clipPath>
	<g class="st19">
		<line class="st1" x1="797.9" y1="404.9" x2="1689.6" y2="644.6"/>
		<line class="st1" x1="790.9" y1="412" x2="1682.5" y2="651.7"/>
		<line class="st1" x1="783.8" y1="419.1" x2="1675.5" y2="658.8"/>
		<line class="st1" x1="776.7" y1="426.1" x2="1668.4" y2="665.9"/>
		<line class="st1" x1="769.7" y1="433.2" x2="1661.3" y2="672.9"/>
		<line class="st1" x1="762.6" y1="440.3" x2="1654.3" y2="680"/>
		<line class="st1" x1="755.5" y1="447.4" x2="1647.2" y2="687.1"/>
		<line class="st1" x1="748.4" y1="454.4" x2="1640.1" y2="694.1"/>
		<line class="st1" x1="741.4" y1="461.5" x2="1633.1" y2="701.2"/>
		<line class="st1" x1="734.3" y1="468.6" x2="1626" y2="708.3"/>
		<line class="st1" x1="727.2" y1="475.6" x2="1618.9" y2="715.4"/>
		<line class="st1" x1="720.2" y1="482.7" x2="1611.8" y2="722.4"/>
		<line class="st1" x1="713.1" y1="489.8" x2="1604.8" y2="729.5"/>
		<line class="st1" x1="706" y1="496.9" x2="1597.7" y2="736.6"/>
	</g>
</g>
</svg>
