<?xml version="1.0" encoding="utf-8"?>
<!-- Generator: Adobe Illustrator 23.0.1, SVG Export Plug-In . SVG Version: 6.00 Build 0)  -->
<svg version="1.1" id="Isolation_Mode" xmlns="http://www.w3.org/2000/svg" xmlns:xlink="http://www.w3.org/1999/xlink" x="0px"
	 y="0px" viewBox="0 0 800 800" style="enable-background:new 0 0 800 800;" xml:space="preserve">
<style type="text/css">
	.st0{fill:#FFFFFF;stroke:#212121;stroke-width:4;stroke-linecap:round;stroke-linejoin:round;}
	.st1{clip-path:url(#SVGID_2_);}
	.st2{fill:none;stroke:#212121;stroke-width:4;stroke-linecap:round;stroke-linejoin:round;}
	.st3{clip-path:url(#SVGID_4_);}
	.st4{fill:none;stroke:#212121;stroke-width:2;stroke-linecap:round;stroke-linejoin:round;}
	.st5{fill:none;}
	.st6{fill:#FFE603;stroke:#212121;stroke-width:4;stroke-linecap:round;stroke-linejoin:round;}
	.st7{fill:#212121;stroke:#212121;stroke-width:3;stroke-linecap:round;stroke-linejoin:round;}
	.st8{clip-path:url(#SVGID_6_);}
	.st9{fill:none;stroke:#212121;stroke-width:3;stroke-linecap:round;stroke-linejoin:round;}
	.st10{fill:#FFFFFF;stroke:#212121;stroke-width:2;stroke-linecap:round;stroke-linejoin:round;}
	.st11{fill:#FFFFFF;}
	.st12{clip-path:url(#SVGID_8_);}
	.st13{fill:#FFFFFF;stroke:#212121;stroke-width:3;stroke-linecap:round;stroke-linejoin:round;stroke-dasharray:8,8;}
	.st14{fill:none;stroke:#212121;stroke-width:3;stroke-linecap:round;stroke-linejoin:round;stroke-dasharray:8,8;}
</style>
<title>icon_isometr</title>
<path class="st0" d="M249.1,178.8l-14.2,14.1l0,0c-3.1,3-4.2,7.5-3.1,11.6l99.2,369c4.4,16.5,17.4,29.5,33.9,33.9l175.6,47.2
	c4.1,1.1,8.6,0,11.6-3.1l0,0l14.1-14.2L249.1,178.8z"/>
<path class="st0" d="M436.3,222.9l-175.6-47.2c-6.4-1.7-13,2.1-14.7,8.5c-0.6,2-0.6,4.2,0,6.2l99.2,369
	c4.4,16.5,17.4,29.4,33.9,33.9l175.6,47.2c6.4,1.7,13-2.1,14.7-8.5c0.5-2,0.5-4.2,0-6.2l-99.2-369
	C465.7,240.2,452.8,227.3,436.3,222.9z"/>
<path class="st0" d="M435.5,240.6l-160.3-43.1c-3.2-0.9-6.5,1-7.4,4.2c-0.3,1-0.3,2.1,0,3.1l95.1,353.8c2.2,8.3,8.7,14.7,16.9,16.9
	l160.3,43.1c3.2,0.9,6.5-1,7.4-4.2c0.3-1,0.3-2.1,0-3.1l-95.1-353.8C450.2,249.3,443.7,242.8,435.5,240.6z"/>
<path class="st0" d="M117.7,331.5l95.6-88.5l21.7-21.7l14.1,14.1c1,1,1.4,2.5,1,3.9l-24.4,90.8c-1.5,5.5-5.8,9.8-11.3,11.3
	l-100.4,27c-1.4,0.4-2.9,0-3.9-1L96,353.2L117.7,331.5z"/>
<g>
	<g>
		<defs>
			<path id="SVGID_1_" d="M117.7,331.5l95.6-88.5l21.7-21.7l14.1,14.1c1,1,1.4,2.5,1,3.9l-24.4,90.8c-1.5,5.5-5.8,9.8-11.3,11.3
				l-100.4,27c-1.4,0.4-2.9,0-3.9-1L96,353.2L117.7,331.5z"/>
		</defs>
		<clipPath id="SVGID_2_">
			<use xlink:href="#SVGID_1_"  style="overflow:visible;"/>
		</clipPath>
		<g class="st1">
			<line class="st2" x1="137.2" y1="369.5" x2="104.8" y2="337.1"/>
			<line class="st2" x1="127.4" y1="372.2" x2="95" y2="339.8"/>
			<line class="st2" x1="117.6" y1="374.8" x2="85.2" y2="342.4"/>
		</g>
	</g>
</g>
<path class="st0" d="M130.7,247.3l100.4-27c2.1-0.6,4.3,0.7,4.9,2.8c0.2,0.7,0.2,1.4,0,2.1L211.6,316c-1.5,5.5-5.8,9.8-11.3,11.3
	l-100.4,27c-2.1,0.6-4.3-0.7-4.9-2.8c-0.2-0.7-0.2-1.4,0-2.1l24.4-90.8C120.8,253.1,125.1,248.8,130.7,247.3z"/>
<line class="st2" x1="221.6" y1="337.2" x2="211.7" y2="327.4"/>
<line class="st2" x1="343.4" y1="595" x2="353.3" y2="585.1"/>
<path class="st0" d="M231.3,345.9L217.2,360l0,0c-1,1-1.4,2.5-1,3.9l27,100.5c1.5,5.5,5.8,9.8,11.3,11.3l226.2,60.8
	c1.4,0.4,2.9,0,3.9-1l0,0l14.1-14.1L231.3,345.9z"/>
<g>
	<g>
		<defs>
			<path id="SVGID_3_" d="M231.3,345.9L217.2,360l0,0c-1,1-1.4,2.5-1,3.9l27,100.5c1.5,5.5,5.8,9.8,11.3,11.3l226.2,60.8
				c1.4,0.4,2.9,0,3.9-1l0,0l14.1-14.1L231.3,345.9z"/>
		</defs>
		<clipPath id="SVGID_4_">
			<use xlink:href="#SVGID_3_"  style="overflow:visible;"/>
		</clipPath>
		<g class="st3">
			<line class="st2" x1="451" y1="544.1" x2="483.3" y2="511.7"/>
			<line class="st2" x1="460.8" y1="546.7" x2="493.1" y2="514.3"/>
			<line class="st2" x1="470.6" y1="549.4" x2="503" y2="517"/>
		</g>
	</g>
</g>
<path class="st0" d="M461.4,405.7l-226.2-60.8c-2.1-0.6-4.3,0.7-4.9,2.8c-0.2,0.7-0.2,1.4,0,2.1l27,100.5c1.5,5.5,5.8,9.8,11.3,11.3
	l226.2,60.8c2.1,0.6,4.3-0.7,4.9-2.8c0.2-0.7,0.2-1.4,0-2.1l-27-100.4C471.2,411.5,466.9,407.1,461.4,405.7z"/>
<line class="st2" x1="247.3" y1="471.5" x2="257.2" y2="461.6"/>
<path class="st2" d="M324.8,387l-65-17.5c-2.1-0.6-4.3,0.7-4.9,2.8c-0.2,0.7-0.2,1.4,0,2.1l17.4,64.8c0.9,3.4,3.6,6.1,7.1,7.1
	l65,17.5c2.1,0.6,4.3-0.7,4.9-2.8c0.2-0.7,0.2-1.4,0-2.1L331.9,394C330.9,390.6,328.2,387.9,324.8,387z"/>
<line class="st4" x1="323.4" y1="395.5" x2="280.9" y2="437.8"/>
<line class="st4" x1="339" y1="453.5" x2="265.3" y2="379.8"/>
<line class="st4" x1="428.7" y1="441.7" x2="420.6" y2="446.4"/>
<line class="st4" x1="440.5" y1="444.9" x2="422.9" y2="455.1"/>
<line class="st4" x1="452.4" y1="448.1" x2="425.2" y2="463.7"/>
<polyline class="st4" points="432.3,469.6 432.4,469.6 464.2,451.3 "/>
<line class="st4" x1="476" y1="454.5" x2="444.2" y2="472.8"/>
<line class="st4" x1="487.9" y1="457.6" x2="456" y2="476"/>
<line class="st4" x1="499.7" y1="460.8" x2="467.9" y2="479.2"/>
<line class="st4" x1="511.5" y1="464" x2="479.7" y2="482.4"/>
<line class="st4" x1="523.4" y1="467.2" x2="491.5" y2="485.5"/>
<line class="st4" x1="535.2" y1="470.4" x2="503.4" y2="488.7"/>
<line class="st4" x1="544.5" y1="475" x2="515.2" y2="491.9"/>
<line class="st4" x1="547.2" y1="483.5" x2="527" y2="495.1"/>
<line class="st4" x1="549.5" y1="492.1" x2="538.8" y2="498.3"/>
<path class="st5" d="M539.9,471.6l-114.6-30.8c-2.1-0.6-4.3,0.7-4.9,2.8c-0.2,0.7-0.2,1.4,0,2.1l4.8,17.9c0.7,2.8,2.9,4.9,5.6,5.6
	L545.4,500c2.1,0.6,4.3-0.7,4.9-2.8c0.2-0.7,0.2-1.4,0-2.1l-4.8-17.9C544.8,474.5,542.6,472.4,539.9,471.6z"/>
<line class="st4" x1="422.6" y1="395.2" x2="408.9" y2="403.1"/>
<line class="st4" x1="434.5" y1="398.4" x2="411.3" y2="411.8"/>
<line class="st4" x1="446.3" y1="401.6" x2="415.1" y2="419.5"/>
<line class="st4" x1="458.1" y1="404.8" x2="426.3" y2="423.1"/>
<polyline class="st4" points="438.1,426.3 469.9,408 470,408 "/>
<polyline class="st4" points="449.9,429.5 481.8,411.1 481.8,411.1 "/>
<line class="st4" x1="493.6" y1="414.3" x2="461.8" y2="432.7"/>
<line class="st4" x1="505.5" y1="417.5" x2="473.6" y2="435.9"/>
<line class="st4" x1="517.3" y1="420.7" x2="485.4" y2="439"/>
<line class="st4" x1="529.1" y1="423.9" x2="497.3" y2="442.2"/>
<line class="st4" x1="540.9" y1="427" x2="509.1" y2="445.4"/>
<line class="st4" x1="550.6" y1="431.5" x2="520.9" y2="448.6"/>
<polyline class="st4" points="532.8,451.8 532.8,451.8 553.4,439.9 "/>
<line class="st4" x1="555.7" y1="448.5" x2="544.6" y2="455"/>
<path class="st5" d="M546.2,428.5l-133.9-36c-2.1-0.6-4.3,0.7-4.9,2.8c-0.2,0.7-0.2,1.4,0,2.1l4.8,17.9c0.7,2.8,2.9,4.9,5.6,5.6
	l133.9,36c2.1,0.6,4.3-0.7,4.9-2.8c0.2-0.7,0.2-1.4,0-2.1l-4.8-17.9C551.1,431.4,549,429.2,546.2,428.5z"/>
<path class="st5" d="M435.5,240.6l-160.3-43.1c-3.2-0.9-6.5,1-7.4,4.2c-0.3,1-0.3,2.1,0,3.1l95.1,353.8c2.2,8.3,8.7,14.7,16.9,16.9
	l160.3,43.1c3.2,0.9,6.5-1,7.4-4.2c0.3-1,0.3-2.1,0-3.1l-95.1-353.8C450.2,249.3,443.7,242.8,435.5,240.6z"/>
<path class="st6" d="M690.6,533.4L690.6,533.4l25.9-15l-73.2-126.9l-26,15l0,0c-9.5,5.3-15.3,16.9-15.3,33.4
	c0,32.9,23.3,73.1,52,89.6C668.3,537.9,681.2,538.7,690.6,533.4L690.6,533.4L690.6,533.4z"/>
<polyline class="st4" points="289.6,251.9 296,248.2 296,248.2 "/>
<line class="st4" x1="307.8" y1="251.4" x2="291.9" y2="260.6"/>
<line class="st4" x1="319.7" y1="254.6" x2="294.2" y2="269.2"/>
<line class="st4" x1="331.5" y1="257.7" x2="296.5" y2="277.9"/>
<line class="st4" x1="343.3" y1="260.9" x2="298.9" y2="286.5"/>
<line class="st4" x1="355.2" y1="264.1" x2="301.2" y2="295.2"/>
<line class="st4" x1="367" y1="267.3" x2="303.5" y2="303.9"/>
<line class="st4" x1="378.8" y1="270.5" x2="305.9" y2="312.5"/>
<polyline class="st4" points="309.4,320.5 390.7,273.6 390.7,273.6 "/>
<polyline class="st4" points="317.6,325.8 402.5,276.8 402.5,276.8 "/>
<line class="st4" x1="411.8" y1="281.5" x2="329.4" y2="329"/>
<line class="st4" x1="416.2" y1="289" x2="341.2" y2="332.1"/>
<line class="st4" x1="418.5" y1="297.6" x2="353.1" y2="335.3"/>
<line class="st4" x1="420.8" y1="306.3" x2="364.9" y2="338.5"/>
<line class="st4" x1="423.1" y1="314.9" x2="376.7" y2="341.7"/>
<polyline class="st4" points="388.6,344.9 388.6,344.9 425.5,323.6 "/>
<line class="st4" x1="427.8" y1="332.2" x2="400.4" y2="348"/>
<line class="st4" x1="430.1" y1="340.9" x2="412.2" y2="351.2"/>
<line class="st4" x1="432.5" y1="349.6" x2="424.1" y2="354.4"/>
<path class="st0" d="M576.4,443.2l7.1-7.1l-9.5-9.4l-1.4-5.2c-0.7-2.8-2.9-4.9-5.7-5.6l-121.3-32.6l-9.4-9.4l-7.1,7.1l0,0
	c-1,1-1.4,2.5-1,3.9l4.8,17.9c0.7,2.8,2.9,4.9,5.6,5.6l133.9,36C573.9,444.6,575.4,444.2,576.4,443.2z"/>
<path class="st0" d="M570.1,486.4l7.1-7.1l-9.4-9.4l-1.4-5.2c-0.7-2.8-2.9-4.9-5.7-5.6l-101.9-27.4l-9.4-9.4l-7.1,7.1l0,0
	c-1,1-1.4,2.5-1,3.9l4.8,17.9c0.7,2.8,2.9,4.9,5.6,5.6l114.6,30.8C567.6,487.7,569.1,487.3,570.1,486.4z"/>
<path class="st0" d="M567.7,451.9l-114.6-30.8c-2.1-0.6-4.3,0.7-4.9,2.8c-0.2,0.7-0.2,1.4,0,2.1l4.8,17.9c0.7,2.8,2.9,4.9,5.6,5.6
	l114.6,30.8c2.1,0.6,4.3-0.7,4.9-2.8c0.2-0.7,0.2-1.4,0-2.1l-4.8-17.9C572.6,454.8,570.5,452.6,567.7,451.9z"/>
<path class="st0" d="M574.1,408.8l-133.9-36c-2.1-0.6-4.3,0.7-4.9,2.8c-0.2,0.7-0.2,1.4,0,2.1l4.8,17.9c0.7,2.8,2.9,4.9,5.6,5.6
	l133.9,36c2.1,0.6,4.3-0.7,4.9-2.8c0.2-0.7,0.2-1.4,0-2.1l-4.8-17.9C579,411.6,576.8,409.5,574.1,408.8z"/>
<path class="st0" d="M587.8,420.8l14.1-14.1l-80.2-80.2l-14.1,14.1l0,0c-1,1-1.4,2.5-1,3.9l14,52.1c1.5,5.5,5.8,9.8,11.3,11.3
	l52.1,14C585.3,422.2,586.8,421.8,587.8,420.8z"/>
<path class="st0" d="M577.7,339.4l-52.1-14c-2.1-0.6-4.3,0.7-4.9,2.8c-0.2,0.7-0.2,1.4,0,2.1l14,52.1c1.5,5.5,5.8,9.8,11.3,11.3
	l52.1,14c2.1,0.6,4.3-0.7,4.9-2.8c0.2-0.7,0.2-1.4,0-2.1l-14-52.1C587.5,345.2,583.2,340.9,577.7,339.4z"/>
<polygon class="st0" points="588.5,384.9 572.3,364.6 567.8,372.1 552.8,353.4 541.6,372.3 "/>
<ellipse transform="matrix(0.7033 -0.7109 0.7109 0.7033 -80.6866 508.141)" class="st7" cx="568.4" cy="350.7" rx="2.1" ry="3.6"/>
<line class="st4" x1="554.6" y1="362.9" x2="550.3" y2="370"/>
<path class="st0" d="M445.6,339.9l14.1-14.1L438,304.1l-8-29.8c-1.5-5.5-5.8-9.8-11.3-11.3l-78.1-21l0,0l-21.7-21.7l-14.1,14.1l0,0
	c-1,1-1.4,2.5-1,3.9l16.6,61.7c1.5,5.5,5.8,9.8,11.3,11.3l110.1,29.6C443.1,341.3,444.6,340.9,445.6,339.9z"/>
<g>
	<g>
		<defs>
			<path id="SVGID_5_" d="M445.6,339.9l14.1-14.1L438,304.1l-8-29.8c-1.5-5.5-5.8-9.8-11.3-11.3l-78.1-21l0,0l-21.7-21.7l-14.1,14.1
				l0,0c-1,1-1.4,2.5-1,3.9l16.6,61.7c1.5,5.5,5.8,9.8,11.3,11.3l110.1,29.6C443.1,341.3,444.6,340.9,445.6,339.9z"/>
		</defs>
		<clipPath id="SVGID_6_">
			<use xlink:href="#SVGID_5_"  style="overflow:visible;"/>
		</clipPath>
		<g class="st8">
			<line class="st2" x1="420.4" y1="340.2" x2="452.8" y2="307.9"/>
			<line class="st2" x1="430.2" y1="342.9" x2="462.6" y2="310.5"/>
			<line class="st2" x1="440" y1="345.5" x2="472.4" y2="313.1"/>
		</g>
	</g>
</g>
<path class="st0" d="M460.8,321.9l-16.6-61.8c-1.5-5.5-5.8-9.8-11.3-11.3l-110.1-29.6c-2.1-0.6-4.3,0.7-4.9,2.8
	c-0.2,0.7-0.2,1.4,0,2.1l16.6,61.8c1.5,5.5,5.8,9.8,11.3,11.3l110.1,29.6c2.1,0.6,4.3-0.7,4.9-2.8C461,323.3,461,322.6,460.8,321.9z
	"/>
<ellipse transform="matrix(0.264 -0.9645 0.9645 0.264 154.0055 625.9709)" class="st0" cx="487.2" cy="212.1" rx="61.3" ry="106.2"/>
<ellipse transform="matrix(0.264 -0.9645 0.9645 0.264 165.221 621.3049)" class="st0" cx="489.7" cy="202.4" rx="61.3" ry="106.2"/>
<ellipse transform="matrix(0.2536 -0.9673 0.9673 0.2536 186.8506 617.683)" class="st0" cx="493.7" cy="187.8" rx="35.2" ry="61.1"/>
<line class="st2" x1="525.9" y1="404.8" x2="535.8" y2="394.9"/>
<line class="st2" x1="324" y1="306.7" x2="333.9" y2="296.8"/>
<ellipse transform="matrix(0.5243 -0.8515 0.8515 0.5243 -157.5279 289.2329)" class="st7" cx="180.1" cy="285.6" rx="4.4" ry="2.4"/>
<ellipse transform="matrix(0.5243 -0.8515 0.8515 0.5243 -178.9791 267.1275)" class="st7" cx="149.6" cy="293.8" rx="4.4" ry="2.4"/>
<path class="st7" d="M165.9,297.1c-0.3-0.8-2.2-0.4-3-0.2s-2.8,0.9-3.6,2s0.9,2.2,2.6,1.9C163.6,300.2,166.2,298,165.9,297.1z"/>
<path class="st9" d="M167.5,306.4c-4.3,1.1-6.8-1.4-5.7-5.6"/>
<path class="st9" d="M152.1,310.5c4.6-1.5,8.3-5.1,9.8-9.8"/>
<path class="st9" d="M203.5,271.8c4.1-8.5,4.5-18.5,4.2-24.7c-0.1-3.1-3.8-3.5-7.4-0.8L184.4,258c-3.9,0-7.7,0.5-11.4,1.6
	c-4.3,1.2-8.4,2.8-12.3,4.8L149,260c-2.6-1-7.1,1.6-9,5.2c-3.9,7.3-9.2,18.6-9.4,26.1c-2.5,3.8-4.3,8-5.6,12.4
	c-5,18.6,8.4,29.1,29.8,23.4s42.9-25.5,47.9-44.2C203.8,279.3,204.1,275.5,203.5,271.8z"/>
<path class="st4" d="M145.3,268.4l7.4,2.8c-5.4,4.3-10.1,9.4-14.1,15.1C139.1,282.2,141.5,275.8,145.3,268.4z"/>
<path class="st4" d="M197.1,270.6c-1.1-4-3.8-7.4-7.5-9.3l10.2-7.5C199.9,259.5,199,265.2,197.1,270.6z"/>
<path class="st4" d="M152.7,321.5c-16.3,4.4-26-5.2-21.7-21.4"/>
<ellipse transform="matrix(0.2536 -0.9673 0.9673 0.2536 110.4097 569.0983)" class="st4" cx="424" cy="213" rx="0.9" ry="1.6"/>
<ellipse transform="matrix(0.2536 -0.9673 0.9673 0.2536 166.6912 703.243)" class="st4" cx="539" cy="243.6" rx="0.9" ry="1.6"/>
<ellipse transform="matrix(0.2536 -0.9673 0.9673 0.2536 217.1954 715.1087)" class="st4" cx="572" cy="216.8" rx="1" ry="1.7"/>
<ellipse transform="matrix(0.2536 -0.9673 0.9673 0.2536 137.5424 525.3503)" class="st4" cx="409.2" cy="173.5" rx="1" ry="1.7"/>
<ellipse transform="matrix(0.2536 -0.9673 0.9673 0.2536 122.4934 642.8481)" class="st4" cx="477.8" cy="242.1" rx="0.9" ry="1.6"/>
<path class="st0" d="M552.7,203.4c-2.4,8.7-10.5,15.9-23.9,19.5c-26.7,7.1-64-2.8-83.4-22.2c-9.6-9.6-13-19.7-10.8-28.3
	c0-0.1,0-0.2,0.1-0.3V172c8.7-32.3,42.1-51.4,74.6-42.7c32.4,8.7,51.7,41.7,43.4,73.8C552.7,203.2,552.7,203.3,552.7,203.4z"/>
<circle class="st0" cx="490.8" cy="199" r="13"/>
<path class="st10" d="M488.7,206.7c-4.3-1.1-6.8-5.5-5.7-9.8"/>
<circle class="st0" cx="536.5" cy="195.7" r="10.5"/>
<circle class="st0" cx="452.8" cy="173.3" r="10.5"/>
<path class="st11" d="M690.6,533.4L690.6,533.4l25.9-15l-73.2-126.9l-26,15l0,0c-9.5,5.3-15.3,16.9-15.3,33.4
	c0,32.9,23.3,73.1,52,89.6C668.3,537.9,681.2,538.7,690.6,533.4L690.6,533.4L690.6,533.4z"/>
<g>
	<g>
		<defs>
			<path id="SVGID_7_" d="M690.6,533.4L690.6,533.4l25.9-15l-73.2-126.9l-26,15l0,0c-9.5,5.3-15.3,16.9-15.3,33.4
				c0,32.9,23.3,73.1,52,89.6C668.3,537.9,681.2,538.7,690.6,533.4L690.6,533.4L690.6,533.4z"/>
		</defs>
		<clipPath id="SVGID_8_">
			<use xlink:href="#SVGID_7_"  style="overflow:visible;"/>
		</clipPath>
		<g class="st12">
			<line class="st2" x1="587.3" y1="457.1" x2="627" y2="434.2"/>
			<line class="st2" x1="596.1" y1="462.2" x2="635.7" y2="439.3"/>
			<line class="st2" x1="604.9" y1="467.2" x2="644.5" y2="444.3"/>
			<line class="st2" x1="658.8" y1="531.5" x2="698.4" y2="508.6"/>
			<line class="st2" x1="667.6" y1="536.6" x2="707.2" y2="513.7"/>
			<line class="st2" x1="676.4" y1="541.6" x2="716" y2="518.8"/>
		</g>
	</g>
</g>
<path class="st2" d="M690.6,533.4L690.6,533.4l25.9-15l-73.2-126.9l-26,15l0,0c-9.5,5.3-15.3,16.9-15.3,33.4
	c0,32.9,23.3,73.1,52,89.6C668.3,537.9,681.2,538.7,690.6,533.4L690.6,533.4L690.6,533.4z"/>
<ellipse transform="matrix(0.8633 -0.5047 0.5047 0.8633 -136.6863 405.3407)" class="st0" cx="679.9" cy="455" rx="42.3" ry="73.3"/>
<path class="st0" d="M686,436.3l-6.1,3.5l-6.1-10.6c-6.1-10.5-16-16.2-22-12.7l0,0c-6.1,3.5-6.1,14.8,0,25.3l28.2,48.6l28.2-16.1
	c6.1-3.5,6.1-14.8,0-25.3l0,0C702,438.6,692.1,432.9,686,436.3z"/>
<path class="st4" d="M679.9,479.2L656.6,439c-1.6-2.6-2.4-5.5-2.5-8.5c0-2.7,0.9-4.6,2.5-5.6s3.8-0.7,6.1,0.6
	c2.6,1.6,4.7,3.8,6.1,6.4"/>
<path class="st4" d="M690.9,444.8c1.6-0.9,3.8-0.7,6.1,0.6c2.6,1.6,4.7,3.8,6.1,6.4c3.4,5.8,3.4,12.1,0,14.1"/>
<path class="st4" d="M421.2,264.1L368.4,250c-3.7-1-5.7,1.7-4.6,5.9l0,0c1.1,4.2,5,8.5,8.7,9.5l52.8,14.1c3.7,1,5.7-1.6,4.6-5.9l0,0
	C428.8,269.3,424.9,265.1,421.2,264.1z"/>
<ellipse transform="matrix(0.7033 -0.7109 0.7109 0.7033 -74.9774 323.0404)" class="st4" cx="349.5" cy="251.3" rx="4.9" ry="8.6"/>
<path class="st4" d="M427.1,286.1L374.3,272c-3.7-1-5.7,1.6-4.6,5.9l0,0c1.1,4.2,5,8.5,8.7,9.5l52.8,14.1c3.7,1,5.7-1.7,4.6-5.9l0,0
	C434.7,291.3,430.8,287.1,427.1,286.1z"/>
<ellipse transform="matrix(0.7033 -0.7109 0.7109 0.7033 -88.8029 333.8038)" class="st4" cx="355.5" cy="273.3" rx="4.9" ry="8.5"/>
<ellipse transform="matrix(0.7033 -0.7109 0.7109 0.7033 -213.7201 411.4904)" class="st13" cx="386.1" cy="461.8" rx="10.6" ry="18.3"/>
<ellipse transform="matrix(0.7033 -0.7109 0.7109 0.7033 -208.6503 449.7043)" class="st13" cx="434.4" cy="474.8" rx="10.6" ry="18.3"/>
<ellipse transform="matrix(0.7033 -0.7109 0.7109 0.7033 -241.4737 547.9217)" class="st4" cx="535.7" cy="563.2" rx="9.4" ry="16.3"/>
<path class="st14" d="M476.7,556.7l-59.6-16c-6.4-1.7-13,2.1-14.7,8.5c-0.5,2-0.5,4.2,0,6.2l0.4,1.6c2.8,10.5,11.1,18.7,21.6,21.6
	l59.6,16c6.4,1.7,13-2.1,14.7-8.5c0.5-2,0.5-4.2,0-6.2l-0.4-1.6C495.5,567.8,487.2,559.6,476.7,556.7z"/>
<path class="st0" d="M542.9,595.2L557,581l-90.1-47.7l-14.1,14.1l0,0c-3.1,3-4.2,7.5-3.1,11.6l0.4,1.6c2.8,10.5,11.1,18.8,21.6,21.6
	l59.6,16C535.4,599.4,539.8,598.3,542.9,595.2z"/>
<path class="st0" d="M538.1,546.3l-59.6-16c-6.4-1.7-13,2.1-14.7,8.5c-0.5,2-0.5,4.2,0,6.2l0.4,1.6c2.8,10.5,11.1,18.8,21.6,21.6
	l59.6,16c6.4,1.7,13-2.1,14.7-8.5c0.6-2,0.6-4.2,0-6.2l-0.4-1.6C556.9,557.4,548.6,549.1,538.1,546.3z"/>
<ellipse transform="matrix(0.7033 -0.7109 0.7109 0.7033 -241.2498 552.2893)" class="st4" cx="541" cy="565.2" rx="9.4" ry="16.3"/>
</svg>
