<svg xmlns="http://www.w3.org/2000/svg" width="128" height="30" viewBox="0 0 128 30">
  <g fill="none" fill-rule="evenodd">
    <g fill="#394149" fill-rule="nonzero">
      <g>
        <g>
          <path d="M36.51 9.26h3.21v13h-3.21v-13zM41 17.37c0-3.22 2-5.15 5-5.15s5 1.93 5 5.15c0 3.22-1.93 5.17-5 5.17-3.07 0-5-1.88-5-5.17zm6.82 0c0-1.77-.69-2.81-1.79-2.81s-1.78 1-1.78 2.81.68 2.8 1.78 2.8 1.81-.99 1.81-2.79l-.02-.01zm4.46 5.56h3.1c.29.686 1.001 1.095 1.74 1 1.23 0 1.87-.66 1.87-1.64v-1.8H59c-.542 1.147-1.734 1.843-3 1.75-2.35 0-3.91-1.79-3.91-4.87s1.49-5 4-5c1.3-.07 2.502.688 3 1.89H59v-1.81h3.18v9.74c0 2.35-2.08 3.82-5.14 3.82-2.78-.01-4.56-1.28-4.74-3.07l-.02-.01zM59 17.37c0-1.57-.72-2.56-1.86-2.56-1.14 0-1.84 1-1.84 2.56s.69 2.48 1.84 2.48c1.15 0 1.86-.85 1.86-2.48zm4.45 0c0-3.22 2-5.15 5-5.15s5 1.93 5 5.15c0 3.22-1.94 5.17-5 5.17s-4.98-1.88-4.98-5.17h-.02zm6.82 0c0-1.77-.7-2.81-1.79-2.81s-1.78 1-1.78 2.81.68 2.8 1.78 2.8 1.81-.99 1.81-2.79l-.02-.01zm4.48-7.29c-.029-.669.352-1.288.962-1.564s1.327-.154 1.81.31c.484.462.638 1.173.389 1.794-.25.622-.851 1.03-1.521 1.03-.422.01-.832-.148-1.136-.441-.304-.294-.479-.696-.484-1.119l-.02-.01zm0 2.36H78v9.86h-3.2l-.05-9.86zm14.94 4.93c0 3.21-1.44 5.07-3.89 5.07-1.285.08-2.483-.651-3-1.83h-.06v4.86h-3.21v-13h3.19v1.76h.06c.5-1.202 1.7-1.962 3-1.9 2.52-.02 3.97 1.83 3.97 5.05l-.06-.01zm-3.27 0c0-1.56-.73-2.57-1.86-2.57-1.13 0-1.84 1-1.85 2.57-.01 1.57.72 2.56 1.85 2.56 1.13 0 1.92-.93 1.92-2.55l-.06-.01zm8.75-5.16c2.69 0 4.36 1.27 4.38 3.31h-2.93c0-.71-.59-1.15-1.47-1.15s-1.3.34-1.3.85.37.67 1.11.82l2.06.42c2 .42 2.8 1.22 2.8 2.71 0 2-1.85 3.36-4.6 3.36-2.75 0-4.54-1.32-4.67-3.33h3.11c.09.73.67 1.16 1.61 1.16.94 0 1.38-.3 1.38-.83s-.3-.62-1.07-.78l-1.86-.39c-1.93-.41-2.94-1.42-2.94-2.93.06-1.96 1.74-3.21 4.45-3.21l-.06-.01zm15.4 10.08h-3.11v-1.85h-.06c-.359 1.271-1.551 2.123-2.87 2.05-.978.032-1.922-.355-2.597-1.064-.674-.708-1.013-1.671-.933-2.646v-6.33h3.21v5.64c0 1.16.61 1.79 1.61 1.79.475-.004.925-.213 1.233-.573.31-.36.446-.837.377-1.307v-5.55h3.2l-.06 9.84zm1.55-9.85h3.12v1.9h.07c.355-1.252 1.51-2.106 2.81-2.08 1.316-.114 2.502.79 2.74 2.09h.14c.41-1.296 1.642-2.154 3-2.09.888-.034 1.748.313 2.365.952.616.64.931 1.512.865 2.398v6.69H124v-5.87c0-1-.47-1.56-1.38-1.56-.408-.007-.8.165-1.07.47-.271.307-.395.715-.34 1.12v5.84h-3.06v-5.9c0-1-.49-1.53-1.37-1.53-.413-.003-.807.172-1.08.48-.275.309-.402.72-.35 1.13v5.82h-3.21l-.02-9.86zM30.16 10.11c0-4.074-2.5-7.73-6.296-9.207C20.068-.575 15.754.428 13 3.43H.52v26.34h26.35V17.46c2.092-1.87 3.288-4.544 3.29-7.35zm-5.07 0c.004 1.95-1.168 3.711-2.969 4.46-1.8.75-3.875.34-5.256-1.038-1.38-1.378-1.795-3.452-1.049-5.254C16.561 6.475 18.32 5.3 20.27 5.3c2.658 0 4.814 2.152 4.82 4.81zM21.8 24.7H5.59V8.5h4.94c-.095.531-.146 1.07-.15 1.61.006 5.46 4.43 9.884 9.89 9.89.513-.003 1.024-.046 1.53-.13v4.83z" transform="translate(-482 -8262) translate(446 8226) translate(36 36)"/>
        </g>
      </g>
    </g>
  </g>
</svg>
