<svg xmlns="http://www.w3.org/2000/svg" width="143" height="33" viewBox="0 0 143 33">
    <g fill="none" fill-rule="evenodd">
        <g>
            <g>
                <g>
                    <path fill="#C6514B" d="M23.332 33l.283-.12c1.897-.786 3.506-1.947 4.786-3.533 1.079-1.337 1.757-2.851 2.069-4.526.215-1.158.252-2.324.149-3.496-.107-1.21-.375-2.383-.911-3.484-1.072-2.2-2.789-3.702-5.14-4.505-1.076-.368-2.18-.636-3.294-.866-1.53-.316-3.072-.561-4.62-.77-.97-.132-1.939-.268-2.888-.505-.422-.105-.842-.23-1.25-.381-1.088-.403-1.613-1.393-1.501-2.515.02-.197.053-.395.108-.585.156-.543.484-.97.953-1.295.492-.34 1.048-.53 1.63-.648.996-.203 2.003-.23 3.014-.159.691.05 1.366.181 2.015.42 1.416.52 2.423 1.473 3.046 2.815.16.344.273.709.407 1.065.021.055.038.112.063.188l7.016-1.911c-.009-.041-.011-.07-.021-.097-.545-1.49-1.244-2.9-2.206-4.177-1.438-1.909-3.332-3.168-5.65-3.83L21.116 0c.437-.039 2.8.744 4.013 1.324 1.289.618 2.483 1.378 3.583 2.282 1.095.9 2.064 1.914 2.908 3.044.848 1.135 1.543 2.353 2.086 3.653.54 1.296.918 2.636 1.116 4.02C36.125 23.49 30.113 30.798 23.332 33" transform="translate(-1246 -379) translate(1211 344) translate(35 35)"/>
                    <path fill="#C6514B" d="M9.669 22.37L1.76 23.561C.332 20.58-.228 17.464.084 14.202.369 11.215 1.374 8.48 3.096 6c-.059.227-.124.454-.177.682-.215.92-.299 1.854-.286 2.797.015 1.018.128 2.024.413 3.005.719 2.47 2.222 4.309 4.558 5.477 1.097.549 2.25.953 3.428 1.295 1.45.421 2.924.738 4.41 1.006 1.343.241 2.693.433 4.046.608.635.082 1.256.224 1.845.48.32.139.62.311.882.54.479.417.733.94.778 1.567.062.888-.277 1.602-.965 2.165-.518.423-1.117.7-1.748.915-.691.235-1.404.367-2.131.421-1.153.086-2.3.043-3.439-.158-.643-.114-1.267-.29-1.865-.553-1.585-.695-2.599-1.872-3.06-3.515-.031-.108-.059-.217-.088-.325-.002-.005-.007-.01-.028-.038M42.555 19.579c.647.334 1.873.689 2.89.689 1.249 0 1.804-.433 1.804-1.063 0-.65-.463-.985-1.85-1.398-2.197-.65-3.122-1.673-3.098-2.795 0-1.693 1.641-3.012 4.254-3.012 1.248 0 2.335.276 2.983.57l-.555 1.714c-.486-.237-1.387-.552-2.382-.552-1.017 0-1.572.414-1.572 1.004 0 .61.532.906 1.965 1.339 2.035.63 2.983 1.516 3.006 2.933C50 20.74 48.405 22 45.422 22c-1.364 0-2.59-.276-3.422-.67l.555-1.751M57.67 15.996c.02-.886-.382-2.342-2.03-2.342-1.526 0-2.17 1.358-2.27 2.342h4.3zm-4.3 1.693c.06 1.732 1.447 2.48 3.014 2.48 1.145 0 1.969-.157 2.712-.433l.362 1.673c-.844.335-2.01.591-3.416.591C52.868 22 51 20.09 51 17.157 51 14.5 52.647 12 55.781 12 58.955 12 60 14.56 60 16.666c0 .452-.04.806-.08 1.023h-6.55zM64.603 17.914c0 .241.02.463.082.684.245 1.005 1.147 1.73 2.212 1.73 1.599 0 2.541-1.308 2.541-3.239 0-1.73-.86-3.138-2.479-3.138-1.045 0-2.008.744-2.254 1.83-.062.202-.102.423-.102.624v1.509zm-2.521-2.434c0-1.287-.041-2.333-.082-3.259h2.213l.123 1.51h.041C65.115 12.623 66.283 12 67.799 12 70.094 12 72 13.931 72 16.989c0 3.54-2.274 5.25-4.55 5.25-1.25 0-2.294-.523-2.807-1.308h-.04V26h-2.521V15.48zM80.575 17.108c-1.661-.04-3.246.334-3.246 1.788 0 .943.592 1.375 1.337 1.375.935 0 1.623-.628 1.833-1.316.057-.177.076-.373.076-.53v-1.317zm.306 4.676l-.153-1.061h-.058C80.098 21.47 79.124 22 77.921 22 76.05 22 75 20.605 75 19.151c0-2.416 2.08-3.634 5.518-3.615v-.157c0-.628-.248-1.67-1.89-1.67-.917 0-1.872.295-2.501.708l-.459-1.572c.687-.432 1.89-.845 3.36-.845 2.98 0 3.838 1.945 3.838 4.028v3.457c0 .865.038 1.71.134 2.299h-2.12zM85.087 15.374c0-1.326-.022-2.27-.087-3.153h2.318l.086 1.867h.087C88.01 12.703 89.245 12 90.37 12c.26 0 .412.02.629.06v2.33c-.217-.04-.455-.08-.78-.08-1.278 0-2.144.762-2.383 1.867-.043.22-.086.482-.086.763V22h-2.664v-6.626M97.575 17.108c-1.66-.04-3.245.334-3.245 1.788 0 .943.592 1.375 1.336 1.375.936 0 1.623-.628 1.833-1.316.057-.177.076-.373.076-.53v-1.317zm.306 4.676l-.153-1.061h-.057C97.098 21.47 96.124 22 94.92 22 93.052 22 92 20.605 92 19.151c0-2.416 2.081-3.634 5.518-3.615v-.157c0-.628-.248-1.67-1.89-1.67-.917 0-1.871.295-2.502.708l-.457-1.572c.687-.432 1.89-.845 3.36-.845 2.978 0 3.837 1.945 3.837 4.028v3.457c0 .865.039 1.71.134 2.299h-2.12zM105.332 10v2.841H108v1.88h-2.668v4.395c0 1.206.365 1.84 1.437 1.84.479 0 .843-.061 1.094-.123l.046 1.922c-.41.143-1.14.245-2.03.245-1.025 0-1.892-.306-2.416-.818-.593-.572-.867-1.471-.867-2.78v-4.68H101v-1.88h1.596v-2.25l2.736-.592M116.67 15.996c.02-.886-.382-2.342-2.03-2.342-1.526 0-2.17 1.358-2.27 2.342h4.3zm-4.3 1.693c.06 1.732 1.447 2.48 3.014 2.48 1.145 0 1.969-.157 2.712-.433l.361 1.673c-.843.335-2.008.591-3.415.591-3.174 0-5.042-1.91-5.042-4.843C110 14.5 111.647 12 114.781 12c3.174 0 4.219 2.56 4.219 4.666 0 .452-.04.806-.08 1.023h-6.55z" transform="translate(-1246 -379) translate(1211 344) translate(35 35)"/>
                    <path fill="#828282" d="M120 21.5c0-.88.63-1.5 1.513-1.5.882 0 1.487.62 1.487 1.5 0 .857-.58 1.5-1.513 1.5-.882 0-1.487-.643-1.487-1.5M132.922 19.111c0 1.01.02 1.9.078 2.667h-1.515l-.097-1.596h-.039c-.446.788-1.436 1.818-3.106 1.818-1.476 0-3.243-.849-3.243-4.283V12h1.708v5.414c0 1.859.544 3.111 2.098 3.111 1.145 0 1.941-.828 2.252-1.616.097-.262.155-.586.155-.909v-6h1.71v7.111M136.486 20.02c.574.336 1.59.693 2.561.693 1.414 0 2.076-.634 2.076-1.426 0-.831-.552-1.287-1.987-1.762-1.922-.614-2.827-1.565-2.827-2.713 0-1.545 1.391-2.812 3.688-2.812 1.082 0 2.031.277 2.627.594l-.485 1.267c-.42-.237-1.193-.554-2.186-.554-1.148 0-1.79.594-1.79 1.307 0 .792.642 1.148 2.033 1.623 1.854.634 2.804 1.466 2.804 2.892 0 1.683-1.457 2.871-3.997 2.871-1.17 0-2.252-.257-3.003-.653l.486-1.327" transform="translate(-1246 -379) translate(1211 344) translate(35 35)"/>
                </g>
            </g>
        </g>
    </g>
</svg>
