<svg xmlns="http://www.w3.org/2000/svg" xmlns:xlink="http://www.w3.org/1999/xlink" width="19" height="18" viewBox="0 0 19 18">
  <defs>
    <path id="3hfa9jrrwa" d="M0 0.035L18.458 0.035 18.458 17.725 0 17.725z"/>
  </defs>
  <g fill="none" fill-rule="evenodd">
    <mask id="gt73cxb2qb" fill="#fff">
        <use xlink:href="#3hfa9jrrwa"/>
    </mask>
    <path fill="#FFC107" d="M18.412 6.72c-.121-.374-.453-.64-.845-.675l-5.328-.484-2.107-4.93C9.977.268 9.623.034 9.23.034s-.747.234-.902.596L6.22 5.561l-5.329.484c-.391.036-.722.301-.844.675-.121.374-.01.784.287 1.042l4.028 3.532-1.188 5.231c-.087.385.062.783.381 1.013.172.124.373.187.575.187.175 0 .348-.047.503-.14l4.596-2.747 4.594 2.747c.336.203.76.184 1.079-.047.319-.231.468-.629.381-1.013l-1.187-5.23 4.027-3.532c.296-.26.41-.669.288-1.043z" mask="url(#gt73cxb2qb)"/>
  </g>
</svg>
