<svg xmlns="http://www.w3.org/2000/svg" width="50" height="50" viewBox="0 0 50 50">
    <g fill="none" fill-rule="evenodd">
        <g fill-rule="nonzero">
            <g>
                <g transform="translate(-481 -715) translate(481 344) translate(0 371)">
                    <path fill="#DCDCDC" d="M38.296 38.53c.002-.103.002-.206.002-.309-.041-7.512-6.17-13.653-13.681-13.71-7.65-.058-13.894 6.15-13.894 13.787 0 .106.002.213.004.319.105 4.597 3.335 8.535 7.794 9.66 1.945.49 3.957.744 5.99.744 2.032 0 4.043-.253 5.989-.744 4.49-1.132 7.72-5.117 7.796-9.747z"/>
                    <path fill="#E8E6E6" d="M41.842 7.178C37.239 2.576 31.019 0 24.51 0 17.964 0 11.808 2.55 7.179 7.179 2.549 11.809 0 17.964 0 24.51c0 5.778 2.049 11.388 5.77 15.798.433.513.888 1.01 1.363 1.487.332.333.892.032.807-.43-.184-.995-.28-2.02-.28-3.068 0-6.992 4.28-13.003 10.359-15.55.315-.133.397-.547.15-.783-1.827-1.744-2.94-4.23-2.844-6.97.166-4.786 4.037-8.675 8.823-8.86 5.232-.203 9.554 3.995 9.554 9.184 0 2.611-1.095 4.971-2.85 6.646-.247.236-.165.65.15.783 6.079 2.547 10.36 8.558 10.36 15.55 0 1.047-.096 2.073-.28 3.068-.086.462.475.763.806.43.475-.477.93-.974 1.364-1.488 3.72-4.409 5.77-10.02 5.77-15.797 0-6.548-2.55-12.703-7.18-17.333z"/>
                    <circle cx="24.511" cy="15.319" r="6.128" fill="#DCDCDC"/>
                </g>
            </g>
        </g>
    </g>
</svg>
