<svg width="48" height="48" viewBox="0 0 48 48" fill="none" xmlns="http://www.w3.org/2000/svg">
<path d="M14.655 33.1884C13.4827 32 12.5553 30.591 11.9259 29.0421C11.2966 27.4932 10.9776 25.8347 10.9872 24.1618C10.983 22.4888 11.3108 20.8319 11.9515 19.2877C12.5922 17.7436 13.533 16.3432 14.7188 15.1685C15.2267 14.715 15.6372 14.1621 15.925 13.5437C16.2128 12.9253 16.372 12.2544 16.3927 11.572C16.4134 10.8897 16.2952 10.2103 16.0454 9.57539C15.7956 8.94051 15.4195 8.36353 14.94 7.87977C14.4604 7.39602 13.8877 7.01566 13.2567 6.762C12.6258 6.50833 11.9499 6.3867 11.2706 6.40455C10.5912 6.42239 9.92261 6.57934 9.30573 6.86578C8.68884 7.15222 8.13665 7.56212 7.68297 8.07039C3.42155 12.3257 1.01734 18.1071 0.999128 24.1429C0.980918 30.1788 3.3502 35.9747 7.58586 40.2559C8.03807 40.7635 8.58845 41.1732 9.20344 41.4601C9.81843 41.7471 10.4851 41.9052 11.163 41.9249C11.8408 41.9445 12.5155 41.8253 13.1459 41.5745C13.7764 41.3237 14.3494 40.9466 14.83 40.466C15.3106 39.9855 15.6887 39.4118 15.9414 38.7797C16.1941 38.1476 16.3159 37.4704 16.2995 36.7894C16.2832 36.1085 16.1289 35.438 15.8462 34.8189C15.5634 34.1998 15.1581 33.645 14.655 33.1884V33.1884Z" fill="#E2E2E2"/>
<path d="M14.7194 15.1681C17.1092 12.7916 20.3394 11.4639 23.7021 11.4759C27.0648 11.4879 30.2856 12.8387 32.6585 15.2322C33.1091 15.7451 33.6594 16.16 34.2755 16.4514C34.8917 16.7428 35.5606 16.9045 36.2413 16.9267C36.922 16.9488 37.5999 16.8308 38.2335 16.5801C38.8672 16.3293 39.443 15.951 39.9257 15.4684C40.4084 14.9858 40.7877 14.4092 41.0403 13.7739C41.293 13.1386 41.4136 12.4582 41.3948 11.7744C41.376 11.0905 41.2181 10.4178 40.931 9.79753C40.6438 9.17725 40.2333 8.62252 39.7248 8.16746C37.6353 6.04143 35.1482 4.351 32.4064 3.19326C29.6646 2.03551 26.7221 1.43326 23.7479 1.42109C20.7738 1.40892 17.8265 1.98707 15.0754 3.12233C12.3243 4.2576 9.8236 5.92762 7.71687 8.03648C7.20708 8.48768 6.79431 9.03863 6.50383 9.65561C6.21334 10.2726 6.05125 10.9426 6.02747 11.6247C6.0037 12.3068 6.11873 12.9866 6.36554 13.6225C6.61235 14.2583 6.98574 14.8369 7.46286 15.3229C7.93998 15.8088 8.51079 16.1918 9.14036 16.4484C9.76993 16.7051 10.445 16.83 11.1243 16.8155C11.8036 16.801 12.4728 16.6474 13.091 16.3642C13.7091 16.0809 14.2632 15.6739 14.7194 15.1681V15.1681Z" fill="#E2E2E2"/>
<path d="M32.6273 33.2523C31.4447 34.4322 30.042 35.3662 28.4995 36.0008C26.9571 36.6354 25.3051 36.9581 23.6383 36.9504C21.9719 36.9529 20.3218 36.6214 18.7845 35.9754C17.2472 35.3294 15.8536 34.3818 14.6854 33.1882C14.2339 32.6779 13.6835 32.2656 13.0678 31.9765C12.4522 31.6874 11.7843 31.5275 11.105 31.5067C10.4257 31.4859 9.74935 31.6046 9.11732 31.8555C8.48529 32.1065 7.9109 32.4843 7.42931 32.966C6.94772 33.4477 6.56907 34.023 6.31654 34.6568C6.06401 35.2906 5.94293 35.9695 5.96069 36.6519C5.97846 37.3343 6.1347 38.0059 6.41986 38.6256C6.70501 39.2452 7.11308 39.7999 7.61907 40.2556C9.71222 42.3815 12.2025 44.0716 14.947 45.2289C17.6916 46.3862 20.6366 46.9881 23.6132 47C26.5898 47.0119 29.5395 46.4336 32.2931 45.2983C35.0468 44.1629 37.5504 42.4929 39.6603 40.3838C40.1265 39.92 40.4971 39.3684 40.7511 38.7606C41.0051 38.1529 41.1374 37.5008 41.1405 36.8417C41.1435 36.1826 41.0174 35.5293 40.7691 34.9191C40.5209 34.309 40.1554 33.754 39.6936 33.2857C39.2318 32.8174 38.6827 32.4451 38.0777 32.19C37.4727 31.9349 36.8235 31.802 36.1673 31.7989C35.5112 31.7958 34.8608 31.9225 34.2534 32.1719C33.646 32.4213 33.0935 32.7884 32.6273 33.2523V33.2523Z" fill="#CBCBCB"/>
<path d="M14.7193 15.1686C14.0193 15.8708 13.1275 16.3485 12.1569 16.5408C11.1864 16.7332 10.1808 16.6317 9.26773 16.2492C8.35468 15.8666 7.57532 15.2203 7.0285 14.3921C6.48168 13.564 6.19205 12.5914 6.19634 11.5976C6.20063 10.6039 6.49865 9.63383 7.0526 8.81049C7.60655 7.98714 8.39147 7.34762 9.30779 6.97304C10.2241 6.59846 11.2305 6.50571 12.1994 6.70654C13.1683 6.90737 14.056 7.39274 14.7498 8.10108C15.6742 9.04477 16.1897 10.3173 16.184 11.6411C16.1783 12.965 15.6518 14.233 14.7193 15.1686Z" fill="#EEEEEE"/>
<path d="M14.6222 40.2559C13.922 40.9579 13.03 41.4352 12.0593 41.6272C11.0887 41.8192 10.0831 41.7172 9.17021 41.3343C8.25731 40.9514 7.4782 40.3048 6.93171 39.4764C6.38521 38.6481 6.09596 37.6753 6.10064 36.6816C6.10532 35.6879 6.40373 34.7179 6.958 33.8948C7.51227 33.0717 8.29744 32.4325 9.2139 32.0582C10.1304 31.684 11.1368 31.5917 12.1056 31.7929C13.0744 31.9941 13.9619 32.4798 14.6555 33.1884C15.5795 34.1325 16.0945 35.4052 16.0883 36.7291C16.082 38.053 15.5551 39.3207 14.6222 40.2559V40.2559Z" fill="#EEEEEE"/>
</svg>
