<svg width="48" height="48" viewBox="0 0 48 48" fill="none" xmlns="http://www.w3.org/2000/svg">
<path d="M22.0649 11.4836H26.2947C26.495 11.4836 26.6731 11.3297 26.6731 11.1099V7.37367C26.6731 7.17578 26.495 7 26.2947 7H22.0649C21.8645 7 21.6864 7.15389 21.6864 7.37367V11.1099C21.6864 11.3076 21.8645 11.4836 22.0649 11.4836Z" fill="#CBCBCB"/>
<path d="M14.4958 16.8463H10.266C10.0656 16.8463 9.90976 16.6703 9.8875 16.4726V12.7364C9.8875 12.5166 10.0656 12.3627 10.266 12.3627H14.4958C14.7184 12.3627 14.8742 12.5385 14.8742 12.7364V16.4726C14.8742 16.6703 14.6961 16.8463 14.4958 16.8463Z" fill="#CBCBCB"/>
<path d="M43.6144 18.846C46.1968 18.846 47.3989 19.7472 47.5325 19.8571L48 20.1868L47.7996 20.7581C47.4657 21.5495 46.9982 22.2526 46.3749 22.8242C45.4399 23.7473 43.7479 24.8241 41.0097 24.8241H40.5645C39.4736 27.5934 37.9821 30.7141 35.4664 33.5054C33.9749 35.1758 32.2162 36.6044 30.2571 37.7252C27.8751 39.0658 25.2927 39.9889 22.5989 40.4724C20.6621 40.824 18.7031 41 16.744 41C12.4029 41 8.55155 40.1868 6.19177 38.7582C4.09913 37.4835 2.47399 35.3956 1.38316 32.5823C0.425878 30.011 -0.041621 27.2856 0.00290595 24.5603C0.00290595 23.7473 0.670769 23.0879 1.49447 23.0879H33.1067C33.5074 23.0658 35.4219 22.9119 36.6018 22.2526C35.6223 20.7141 35.3329 18.9121 35.8004 17C36.0452 16.011 36.4682 15.0439 37.0248 14.1868L37.47 13.5494L38.1602 13.945C38.1676 13.9508 38.187 13.9634 38.2169 13.9829C38.6371 14.257 41.1313 15.8828 41.5885 19.022C42.2564 18.9121 42.9465 18.846 43.6144 18.846Z" fill="#CBCBCB"/>
<path d="M8.66326 22.1869H4.43346C4.2331 22.1869 4.07726 22.033 4.05501 21.8133V18.077C4.05501 17.8572 4.2331 17.7033 4.43346 17.7033H8.66326C8.88589 17.7033 9.04172 17.8791 9.04172 18.077V21.8133C9.04172 22.033 8.86362 22.1869 8.66326 22.1869Z" fill="#CBCBCB"/>
<path d="M10.266 22.1869H14.4958C14.6961 22.1869 14.8742 22.033 14.8742 21.8133V18.077C14.8742 17.8791 14.7184 17.7033 14.4958 17.7033H10.266C10.0656 17.7033 9.8875 17.8572 9.8875 18.077V21.8133C9.90976 22.033 10.0656 22.1869 10.266 22.1869Z" fill="#CBCBCB"/>
<path d="M16.2098 16.8463H20.4396C20.6399 16.8463 20.818 16.6703 20.818 16.4726V12.7364C20.818 12.5385 20.6622 12.3627 20.4396 12.3627H16.2098C16.0094 12.3627 15.8313 12.5166 15.8313 12.7364V16.4726C15.8313 16.6703 15.9871 16.8463 16.2098 16.8463Z" fill="#CBCBCB"/>
<path d="M26.2947 16.8463H22.0649C21.8645 16.8463 21.6864 16.6703 21.6864 16.4726V12.7364C21.6864 12.5166 21.8645 12.3627 22.0649 12.3627H26.2947C26.495 12.3627 26.6731 12.5385 26.6731 12.7364V16.4726C26.6731 16.6703 26.495 16.8463 26.2947 16.8463Z" fill="#CBCBCB"/>
<path d="M32.1941 22.1869H27.9643C27.764 22.1869 27.6081 22.033 27.5859 21.8133V18.077C27.5859 17.8572 27.764 17.7033 27.9643 17.7033H32.1941C32.4168 17.7033 32.5726 17.8791 32.5726 18.077V21.8133C32.5726 22.033 32.3945 22.1869 32.1941 22.1869Z" fill="#CBCBCB"/>
<path d="M16.2098 22.1869H20.4396C20.6399 22.1869 20.818 22.033 20.818 21.8133V18.077C20.818 17.8791 20.6622 17.7033 20.4396 17.7033H16.2098C16.0094 17.7033 15.8313 17.8572 15.8313 18.077V21.8133C15.8313 22.033 15.9871 22.1869 16.2098 22.1869Z" fill="#CBCBCB"/>
<path d="M26.2947 22.1869H22.0649C21.8645 22.1869 21.6864 22.033 21.6864 21.8133V18.077C21.6864 17.8572 21.8645 17.7033 22.0649 17.7033H26.2947C26.5173 17.7033 26.6731 17.8791 26.6731 18.077V21.8133C26.6731 22.033 26.495 22.1869 26.2947 22.1869Z" fill="#CBCBCB"/>
</svg>
