<svg width="48" height="48" viewBox="0 0 48 48" fill="none" xmlns="http://www.w3.org/2000/svg">
<path d="M24 47C36.7025 47 47 36.7025 47 24C47 11.2974 36.7025 1 24 1C11.2975 1 1 11.2974 1 24C1 36.7025 11.2975 47 24 47Z" fill="#AFAFAF"/>
<path d="M39.1587 17.1166H37.783C37.0984 15.1607 35.1014 13.9851 33.059 14.3354C31.0166 14.6858 29.5258 16.4599 29.5322 18.532C29.5328 20.8779 31.4342 22.7792 33.7799 22.7799H39.1588C40.686 22.729 41.8977 21.4762 41.8977 19.9482C41.8977 18.4201 40.686 17.1674 39.1587 17.1166V17.1166Z" fill="white"/>
<path d="M33.7799 22.7811C36.1259 22.7811 38.0277 20.8793 38.0277 18.5334C38.0277 16.1874 36.1259 14.2856 33.7799 14.2856C31.434 14.2856 29.5322 16.1874 29.5322 18.5334C29.5322 20.8793 31.434 22.7811 33.7799 22.7811Z" fill="white"/>
<path d="M17.7275 10.6704H29.7502V21.125H17.7275V10.6704Z" fill="#E2E2E2"/>
<path d="M16.4209 26.6138H30.7959V40.9888H16.4209V26.6138Z" fill="white"/>
<path d="M32.364 20.0798H34.4551V24.2616H13.5459V20.0798H15.6368V11.7161L24.0005 6.48877L32.364 11.7161V20.0798ZM28.1823 20.0798V14.0338L24.0005 11.4203L19.8187 14.0338V20.0798H28.1823Z" fill="#CBCBCB"/>
<path d="M12.6172 43.9901L16.1592 20.0796H31.8411L35.3831 43.9901C31.916 45.9686 27.9919 47.0062 24.0001 47C20.0083 47.0062 16.0842 45.9686 12.6172 43.9901ZM28.6828 27.2942L18.845 30.4903L17.6491 38.561L29.768 34.6228L28.6828 27.2942Z" fill="#CBCBCB"/>
<path d="M17.7272 22.4315H16.1391C15.3458 20.1787 13.0435 18.8262 10.6894 19.2302C8.33534 19.6344 6.61582 21.6771 6.61915 24.0656C6.62094 26.7715 8.81439 28.9645 11.5203 28.9657H17.7272C19.4993 28.9208 20.9126 27.4713 20.9126 25.6986C20.9126 23.9259 19.4993 22.4764 17.7272 22.4315V22.4315Z" fill="white"/>
<path d="M11.5202 28.9667C14.227 28.9667 16.4213 26.7724 16.4213 24.0656C16.4213 21.3588 14.227 19.1646 11.5202 19.1646C8.81342 19.1646 6.61914 21.3588 6.61914 24.0656C6.61914 26.7724 8.81342 28.9667 11.5202 28.9667Z" fill="white"/>
</svg>
