<svg width="48" height="48" viewBox="0 0 48 48" fill="none" xmlns="http://www.w3.org/2000/svg">
<path d="M23.9176 1.7002C23.2101 1.70051 22.516 1.89313 21.9095 2.25746C21.3031 2.6218 20.8071 3.14414 20.4745 3.76861C20.142 4.39309 19.9855 5.09621 20.0217 5.80278C20.058 6.50934 20.2856 7.19276 20.6802 7.77994L22.3471 6.11542C22.292 5.94938 22.2642 5.77549 22.2648 5.60055C22.2648 5.27505 22.3613 4.95687 22.5422 4.68624C22.723 4.4156 22.98 4.20466 23.2808 4.0801C23.5815 3.95554 23.9124 3.92295 24.2316 3.98645C24.5508 4.04995 24.8441 4.20669 25.0742 4.43685C25.3044 4.66701 25.4611 4.96025 25.5246 5.27948C25.5881 5.59872 25.5555 5.92962 25.431 6.23033C25.3064 6.53105 25.0955 6.78808 24.8249 6.96891C24.5542 7.14974 24.236 7.24626 23.9105 7.24626C23.7364 7.24665 23.5633 7.21886 23.398 7.16398L21.7335 8.8285C22.2387 9.17112 22.8172 9.3904 23.4226 9.46868C24.0279 9.54696 24.6432 9.48207 25.2189 9.27923C25.7947 9.07638 26.3147 8.74124 26.7373 8.30077C27.1599 7.8603 27.4732 7.32679 27.652 6.74317C27.8308 6.15955 27.8702 5.5421 27.7669 4.9405C27.6636 4.3389 27.4205 3.76994 27.0573 3.2794C26.694 2.78885 26.2207 2.39041 25.6754 2.11613C25.1301 1.84185 24.528 1.69939 23.9176 1.7002V1.7002Z" fill="#CBCBCB"/>
<path d="M22.3664 13.0676C22.3689 11.75 21.9423 10.4675 21.1509 9.41406L18.988 11.5747C19.3169 12.1762 19.4371 12.8699 19.3299 13.5471C19.2228 14.2243 18.8941 14.8469 18.3955 15.3175L19.571 18.1904C20.4282 17.6384 21.1332 16.8802 21.6215 15.9852C22.1099 15.0903 22.366 14.0871 22.3664 13.0676V13.0676Z" fill="#CBCBCB"/>
<path d="M16.3212 16.1683H16.2648C15.7811 16.1683 15.3042 16.0554 14.872 15.8383C14.4398 15.6213 14.0643 15.3063 13.7754 14.9184C13.4866 14.5305 13.2924 14.0805 13.2084 13.6043C13.1243 13.128 13.1527 12.6387 13.2914 12.1753C13.43 11.712 13.675 11.2875 14.0068 10.9357C14.3387 10.5838 14.7481 10.3144 15.2025 10.1489C15.657 9.98346 16.1438 9.92646 16.6242 9.98251C17.1045 10.0386 17.5651 10.2061 17.9692 10.4718L20.111 8.32999C19.353 7.71547 18.4586 7.29181 17.5029 7.09459C16.5473 6.89738 15.5582 6.93238 14.6189 7.19664C13.6795 7.4609 12.8173 7.94671 12.1046 8.61327C11.3919 9.27984 10.8496 10.1077 10.5232 11.0273C10.1968 11.9469 10.0958 12.9314 10.2287 13.8981C10.3617 14.8648 10.7246 15.7855 11.2872 16.5829C11.8497 17.3802 12.5953 18.031 13.4615 18.4804C14.3276 18.9299 15.2889 19.1649 16.2648 19.1659C16.6784 19.1661 17.0911 19.1251 17.4967 19.0436L16.3212 16.1683Z" fill="#CBCBCB"/>
<path d="M23.9999 18.6532C22.6462 18.6519 21.2996 18.8491 20.0032 19.2386L21.7171 23.4258C22.4631 23.2409 23.229 23.1478 23.9976 23.1484C26.1574 23.149 28.2502 23.8985 29.9194 25.2691C31.5886 26.6397 32.7309 28.5466 33.1518 30.665C33.5727 32.7834 33.246 34.9822 32.2275 36.8868C31.209 38.7914 29.5617 40.2839 27.5662 41.1101C25.5706 41.9363 23.3504 42.0451 21.2836 41.4179C19.2169 40.7906 17.4316 39.4663 16.2318 37.6703C15.0321 35.8744 14.4921 33.718 14.7039 31.5687C14.9158 29.4193 15.8663 27.4098 17.3935 25.8826C18.0507 25.2275 18.8009 24.673 19.62 24.2369L17.9249 20.0615C14.8728 21.5563 12.4773 24.1217 11.195 27.269C9.91262 30.4162 9.83306 33.9253 10.9714 37.1275C12.1098 40.3296 14.3866 43.001 17.3678 44.6325C20.349 46.2641 23.8263 46.7417 27.1371 45.9745C30.4478 45.2072 33.3605 43.2487 35.3202 40.4721C37.2798 37.6955 38.1494 34.2949 37.7632 30.9185C37.3769 27.542 35.7619 24.4257 33.2259 22.1633C30.6899 19.9009 27.4102 18.6507 24.0117 18.6509L23.9999 18.6532Z" fill="#CBCBCB"/>
</svg>
