<svg width="48" height="48" viewBox="0 0 48 48" fill="none" xmlns="http://www.w3.org/2000/svg">
<path d="M25.2973 16.0004C28.9402 16.0004 31.8934 13.0621 31.8934 9.43748C31.8934 5.81285 28.9402 2.87451 25.2973 2.87451C21.6543 2.87451 18.7012 5.81285 18.7012 9.43748C18.7012 13.0621 21.6543 16.0004 25.2973 16.0004Z" fill="#E2E2E2"/>
<path d="M40.1381 16.4688C42.8701 16.4688 45.0848 14.2652 45.0848 11.5469C45.0848 8.8286 42.8701 6.625 40.1381 6.625C37.4061 6.625 35.1914 8.8286 35.1914 11.5469C35.1914 14.2652 37.4061 16.4688 40.1381 16.4688Z" fill="#CBCBCB"/>
<path d="M44.3774 17.875H33.2671C33.0272 17.875 32.7971 17.9698 32.6275 18.1386C32.4579 18.3074 32.3626 18.5363 32.3626 18.775V30.1797C32.3319 31.8303 32.8722 33.4412 33.8929 34.7427C34.9136 36.0442 36.3527 36.9573 37.9693 37.3291C38.9989 37.544 40.0638 37.5278 41.0863 37.2816C42.1088 37.0354 43.0633 36.5655 43.8802 35.9059C44.6971 35.2464 45.356 34.4139 45.8087 33.4691C46.2615 32.5242 46.4968 31.4908 46.4975 30.4441V19.9844C46.4975 19.4249 46.2741 18.8884 45.8765 18.4928C45.4789 18.0972 44.9397 17.875 44.3774 17.875Z" fill="#CBCBCB"/>
<path d="M36.6048 19.9844V33.3438C36.6062 35.8195 35.7862 38.2265 34.2722 40.1912C32.7581 42.1559 30.6346 43.5684 28.2312 44.2095C25.8278 44.8506 23.2789 44.6845 20.9801 43.7369C18.6813 42.7893 16.7612 41.1132 15.5176 38.9687C15.2457 38.519 15.0094 38.0488 14.811 37.5625C14.626 37.104 14.4702 36.6343 14.3446 36.1562C14.1115 35.2367 13.9929 34.2921 13.9912 33.3438V19.9844C13.9908 19.7073 14.0454 19.4328 14.1518 19.1767C14.2582 18.9206 14.4144 18.6879 14.6113 18.492C14.8083 18.2961 15.0421 18.1407 15.2995 18.0348C15.5569 17.9289 15.8327 17.8746 16.1112 17.875H34.4848C34.7633 17.8746 35.0392 17.9289 35.2965 18.0348C35.5539 18.1407 35.7878 18.2961 35.9847 18.492C36.1817 18.6879 36.3378 18.9206 36.4442 19.1767C36.5506 19.4328 36.6052 19.7073 36.6048 19.9844V19.9844Z" fill="#E2E2E2"/>
<path d="M3.1545 12.25H22.0001C22.4998 12.25 22.979 12.4475 23.3323 12.799C23.6856 13.1506 23.8841 13.6274 23.8841 14.1245V32.8755C23.8841 33.3726 23.6856 33.8494 23.3323 34.201C22.979 34.5525 22.4998 34.75 22.0001 34.75H3.1545C2.65484 34.75 2.17563 34.5525 1.82232 34.201C1.469 33.8494 1.27051 33.3726 1.27051 32.8755L1.27051 14.1245C1.27051 13.6274 1.469 13.1506 1.82232 12.799C2.17563 12.4475 2.65484 12.25 3.1545 12.25V12.25Z" fill="#AFAFAF"/>
<path d="M18.2024 19.2459H13.9765V30.524H11.2035V19.2459H6.95215V16.4756H18.2024V19.2459Z" fill="white"/>
</svg>
