<svg width="48" height="48" viewBox="0 0 48 48" fill="none" xmlns="http://www.w3.org/2000/svg">
<path d="M15.2642 46.2455C14.1585 46.2455 13.1144 45.7575 12.4079 44.8727L1.65875 31.6021C0.952303 30.7174 0.675972 29.5888 0.952303 28.4903L4.79136 11.925C5.03701 10.8267 5.77413 9.94192 6.78778 9.45392L22.3283 2.07099C22.8198 1.82717 23.3726 1.70508 23.9255 1.70508C24.4783 1.70508 25.031 1.82699 25.5224 2.07118L41.0631 9.42344C42.0766 9.91145 42.8137 10.7962 43.0594 11.8945L46.8984 28.4598C47.1443 29.5581 46.8984 30.6869 46.1922 31.5717L35.4426 44.8423C34.7362 45.6964 33.692 46.215 32.5863 46.215L15.2646 46.2455H15.2642Z" fill="#CBCBCB"/>
<path d="M23.8941 2.4681C24.3243 2.4681 24.7542 2.55953 25.1534 2.74258L40.6941 10.0948C41.4926 10.4914 42.1068 11.2236 42.2911 12.0779L46.1302 28.6432C46.3451 29.528 46.1302 30.4432 45.5466 31.1448L34.7973 44.4156C34.2444 45.1171 33.3844 45.5137 32.4938 45.5137H15.2639C14.3732 45.5137 13.5134 45.1171 12.9605 44.4156L2.21115 31.1448C1.65831 30.4432 1.44316 29.528 1.62762 28.6432L5.46668 12.0779C5.68164 11.1931 6.26517 10.4609 7.06367 10.0948L22.6045 2.71229C23.0038 2.55971 23.4644 2.46828 23.8943 2.46828L23.8941 2.4681ZM23.8941 1.03418C23.2492 1.03418 22.6044 1.18675 21.99 1.46123L6.44946 8.84416C5.22085 9.42378 4.36099 10.4914 4.05379 11.8032L0.214734 28.3687C-0.092279 29.6806 0.214734 31.0229 1.07478 32.0907L11.8241 45.3613C12.6535 46.3985 13.9126 46.9781 15.2333 46.9781H32.463C33.7836 46.9781 35.0429 46.3985 35.8721 45.3613L46.6216 32.0905C47.4815 31.0533 47.7887 29.6806 47.4815 28.3686L43.6425 11.8032C43.3354 10.4914 42.4754 9.42378 41.247 8.84416L25.7676 1.46105C25.1841 1.18675 24.5392 1.03418 23.8941 1.03418V1.03418Z" fill="white"/>
<path d="M39.4662 27.331C39.4355 27.331 39.4355 27.331 39.4662 27.331H39.4355C39.4049 27.331 39.3742 27.331 39.3742 27.3005C39.3128 27.3005 39.2515 27.27 39.1899 27.27C38.9749 27.2395 38.7907 27.2091 38.6064 27.2091C38.5141 27.2091 38.4221 27.2091 38.2992 27.1784H38.2685C37.6236 27.1174 37.1014 27.0565 36.6099 26.9039C36.395 26.8123 36.3336 26.6904 36.2721 26.5683C36.2721 26.5378 36.2414 26.5378 36.2414 26.5073L35.8421 26.3854C36.0308 24.9503 35.958 23.4932 35.6272 22.0837C35.2918 20.6624 34.7098 19.3101 33.9073 18.0873L34.2145 17.8128V17.7518C34.2145 17.5992 34.2452 17.4467 34.3679 17.2941C34.7364 16.9585 35.1972 16.684 35.7501 16.3484C35.8421 16.2874 35.9342 16.2569 36.0264 16.1958C36.2107 16.1044 36.3643 16.0129 36.5486 15.8908C36.5793 15.8604 36.6406 15.8299 36.7022 15.7689C36.7329 15.7383 36.7635 15.7383 36.7635 15.7078C37.1935 15.3417 37.2857 14.7316 36.9785 14.3348C36.8249 14.1213 36.5486 13.9994 36.2721 13.9994C36.0266 13.9994 35.8115 14.0908 35.5965 14.2434L35.5351 14.3044C35.4738 14.3348 35.4429 14.396 35.3815 14.4265C35.2279 14.579 35.105 14.7009 34.9823 14.8535C34.9209 14.9145 34.8596 15.0061 34.7673 15.067C34.3372 15.5248 33.938 15.8908 33.5387 16.1653C33.4467 16.2263 33.3546 16.2569 33.2624 16.2569C33.201 16.2569 33.1395 16.2569 33.0781 16.2263H33.0167L32.648 16.4705C32.2487 16.0434 31.8188 15.6773 31.3889 15.3112C29.5376 13.8738 27.3096 12.9949 24.9699 12.779L24.9392 12.3824L24.8778 12.3215C24.7856 12.2299 24.6629 12.1384 24.632 11.9249C24.6013 11.4367 24.6629 10.8876 24.7242 10.2775V10.247C24.7242 10.1554 24.7549 10.0335 24.7856 9.94184C24.8163 9.75898 24.847 9.57574 24.8778 9.36222V9.08773C24.8778 8.53859 24.4477 8.08105 23.9257 8.08105C23.6799 8.08105 23.4343 8.20296 23.25 8.38601C23.0659 8.56906 22.9736 8.81307 22.9736 9.08773V9.33174C22.9736 9.54526 23.0043 9.72831 23.0657 9.91136C23.0964 10.003 23.0964 10.0944 23.1271 10.2165V10.247C23.1884 10.8571 23.2807 11.4062 23.2193 11.8944C23.1886 12.108 23.0657 12.1994 22.9736 12.291L22.9123 12.352L22.8814 12.7485C22.3286 12.8095 21.7757 12.8704 21.2229 12.9925C18.8581 13.5112 16.7696 14.7011 15.1419 16.4093L14.8347 16.1958H14.7734C14.712 16.1958 14.6505 16.2263 14.5891 16.2263C14.4969 16.2263 14.4048 16.1958 14.3126 16.1349C13.9133 15.8604 13.5141 15.4636 13.0841 15.0061C13.0228 14.9451 12.9614 14.8535 12.8692 14.7926C12.7463 14.64 12.6234 14.5179 12.4698 14.3655C12.4391 14.3348 12.3777 14.3045 12.3163 14.2434C12.2857 14.2129 12.255 14.2129 12.255 14.1825C12.0647 14.0263 11.826 13.9401 11.5792 13.9383C11.3027 13.9383 11.0264 14.0604 10.8728 14.2739C10.5656 14.6705 10.6578 15.2806 11.0877 15.6467C11.1184 15.6467 11.1184 15.6773 11.1491 15.6773C11.2105 15.7078 11.2413 15.7688 11.3027 15.7992C11.487 15.9211 11.6406 16.0128 11.8249 16.1044C11.9171 16.1349 12.0091 16.1958 12.1014 16.2569C12.654 16.5924 13.1148 16.867 13.4834 17.2027C13.637 17.3551 13.637 17.5076 13.637 17.6602V17.7212L13.944 17.9958C13.8826 18.0873 13.8213 18.1484 13.7904 18.2398C12.2548 20.6499 11.6713 23.4871 12.0705 26.2938L11.6713 26.4157C11.6713 26.4464 11.6406 26.4464 11.6406 26.4767C11.5792 26.5988 11.487 26.7209 11.3027 26.8123C10.8421 26.9649 10.2892 27.026 9.64434 27.087H9.61347C9.52143 27.087 9.39851 27.087 9.30646 27.1174C9.12218 27.1174 8.9379 27.1479 8.72293 27.1784C8.66157 27.1784 8.6002 27.2091 8.53865 27.2091C8.50797 27.2091 8.47728 27.2091 8.44642 27.2395C7.89357 27.3614 7.55569 27.8801 7.64792 28.3681C7.74016 28.7954 8.1394 29.07 8.6307 29.07C8.72293 29.07 8.7843 29.07 8.87653 29.0394C8.90721 29.0394 8.9379 29.0394 8.9379 29.0089C8.99926 29.0089 9.06063 28.9784 9.12199 28.9784C9.33714 28.9175 9.49074 28.8565 9.67503 28.7649C9.76707 28.7344 9.85912 28.6733 9.95136 28.643H9.98204C10.5656 28.4293 11.0877 28.2462 11.5792 28.1853H11.6406C11.8249 28.1853 11.9478 28.2767 12.0398 28.3378C12.0705 28.3378 12.0705 28.3683 12.1012 28.3683L12.5313 28.3074C13.2684 30.5647 14.6811 32.5783 16.5546 34.0427C16.9846 34.3781 17.4145 34.6528 17.8753 34.9274L17.691 35.3238C17.691 35.3545 17.7217 35.3545 17.7217 35.3848C17.7831 35.5069 17.8444 35.6594 17.7831 35.873C17.599 36.3307 17.3224 36.7882 16.9846 37.3069V37.3374C16.9232 37.429 16.8618 37.4899 16.8005 37.5814C16.6776 37.7339 16.5853 37.8865 16.4624 38.0695C16.4317 38.1 16.401 38.161 16.3704 38.2221C16.3704 38.2526 16.3397 38.2831 16.3397 38.2831C16.094 38.8017 16.2783 39.3814 16.7389 39.5949C16.8617 39.6559 16.9846 39.6865 17.1075 39.6865C17.476 39.6865 17.8446 39.4423 18.0289 39.1067C18.0289 39.0762 18.0596 39.0458 18.0596 39.0458C18.0903 38.9848 18.1209 38.9238 18.1516 38.8932C18.2439 38.6797 18.2745 38.5271 18.3359 38.344L18.4281 38.0695C18.6431 37.4594 18.7967 36.9713 19.073 36.5442C19.1958 36.3612 19.3496 36.3307 19.4723 36.2695C19.503 36.2695 19.503 36.2695 19.5336 36.2391L19.7488 35.8425C21.1001 36.3611 22.5744 36.6356 24.0485 36.6356C24.9392 36.6356 25.8606 36.5442 26.7206 36.3307C27.2618 36.2105 27.7952 36.0576 28.3176 35.873L28.5017 36.2086C28.5326 36.2086 28.5326 36.2086 28.5633 36.2391C28.7169 36.2695 28.8396 36.3307 28.9625 36.5137C29.2082 36.9408 29.3925 37.4594 29.6074 38.0391V38.0695L29.6997 38.344C29.761 38.5271 29.7917 38.7101 29.8838 38.8932C29.9146 38.9541 29.9453 38.9848 29.976 39.0458C29.976 39.0762 30.0069 39.1067 30.0069 39.1067C30.191 39.4728 30.5595 39.6865 30.9281 39.6865C31.051 39.6865 31.1739 39.6559 31.2966 39.5949C31.5116 39.473 31.6959 39.2898 31.7574 39.0458C31.8188 38.8017 31.8188 38.5271 31.6961 38.2831C31.6961 38.2526 31.6652 38.2526 31.6652 38.2221C31.6345 38.1612 31.6038 38.1002 31.5732 38.0695C31.4809 37.8865 31.3582 37.7339 31.2353 37.5814C31.1739 37.4899 31.1125 37.429 31.0512 37.3375V37.3069C30.7131 36.7882 30.4059 36.3307 30.2525 35.873C30.1911 35.6594 30.2525 35.5375 30.2832 35.385C30.2832 35.3545 30.3139 35.3545 30.3139 35.324L30.1603 34.9579C31.7881 34.0122 33.1701 32.6697 34.2145 31.0224C34.7673 30.1681 35.1972 29.2224 35.5043 28.2767L35.8728 28.3376C35.9037 28.3376 35.9037 28.3072 35.9342 28.3072C36.0571 28.2462 36.1493 28.1548 36.3336 28.1548H36.395C36.8865 28.2157 37.4084 28.3986 37.9922 28.6123H38.0228C38.1149 28.6428 38.2069 28.7037 38.2992 28.7342C38.4835 28.8258 38.6371 28.8868 38.852 28.9479C38.9134 28.9479 38.9747 28.9784 39.0363 28.9784C39.067 28.9784 39.0977 28.9784 39.1283 29.0089C39.2206 29.0394 39.2819 29.0394 39.3742 29.0394C39.8348 29.0394 40.234 28.7344 40.357 28.3378C40.357 27.9717 40.0191 27.4835 39.4662 27.3312V27.331ZM25.2462 25.8361L23.8949 26.4769L22.5435 25.8361L22.2058 24.4024L23.1271 23.2431H24.632L25.5534 24.4024L25.2464 25.8361H25.2462ZM33.2624 22.6635C33.5006 23.6723 33.5732 24.7127 33.4773 25.7445L28.7782 24.4024C28.3483 24.2805 28.1027 23.8532 28.1947 23.4262C28.2254 23.3041 28.2869 23.182 28.379 23.0905L32.0953 19.7652C32.6173 20.6195 33.0165 21.5957 33.2624 22.6633V22.6635ZM30.6211 17.9349L26.5977 20.772C26.2598 20.9856 25.799 20.9244 25.5227 20.589C25.4307 20.4974 25.4 20.3753 25.3691 20.2534L25.0928 15.2806C27.1844 15.5198 29.133 16.4554 30.6211 17.9349V17.9349ZM21.7143 15.4329C22.0522 15.372 22.3592 15.311 22.6971 15.2501L22.4208 20.1311C22.3901 20.5581 22.0522 20.9242 21.5914 20.9242C21.4687 20.9242 21.3151 20.8938 21.2229 20.8328L17.1382 17.9349C18.3975 16.684 19.9638 15.8297 21.7143 15.4331V15.4329ZM15.6639 19.765L19.3187 22.9987C19.6566 23.2734 19.6872 23.7919 19.4109 24.1275C19.3187 24.2494 19.196 24.341 19.0424 24.3717L14.2819 25.7445C14.0976 23.67 14.5582 21.565 15.6639 19.765V19.765ZM14.8345 28.0325L19.7181 27.2087C20.1174 27.1782 20.4859 27.4529 20.578 27.8495C20.6087 28.0323 20.6087 28.1851 20.5473 28.3376L18.6738 32.8221C16.9539 31.7238 15.5719 30.0459 14.8347 28.0325H14.8345ZM26.0449 34.1034C25.3384 34.256 24.632 34.3474 23.8949 34.3474C22.82 34.3474 21.7757 34.1646 20.7931 33.8594L23.2193 29.4969C23.4649 29.2222 23.8642 29.1003 24.2021 29.2834C24.3455 29.3706 24.4706 29.4845 24.5706 29.6188L26.9354 33.8594C26.6591 33.9508 26.3519 34.012 26.0447 34.1034H26.0449ZM32.0338 29.863C31.266 31.0832 30.2523 32.0594 29.0854 32.8221L27.1506 28.2154C27.0583 27.8495 27.2119 27.4529 27.5805 27.2696C27.7032 27.2087 27.8568 27.1782 28.0104 27.1782L32.9245 28.002C32.7402 28.6731 32.433 29.2834 32.0338 29.863V29.863Z" fill="white"/>
</svg>
