<svg width="48" height="48" viewBox="0 0 48 48" fill="none" xmlns="http://www.w3.org/2000/svg">
<path d="M24.2321 1.00036C22.3768 1.00887 20.6049 1.16726 19.0455 1.44354C14.4521 2.25536 13.6181 3.95516 13.6181 7.08941V11.2291H24.4725V12.6089H9.54485C6.39009 12.6089 3.62802 14.5064 2.76413 18.1158C1.76747 22.2531 1.72335 24.8348 2.76413 29.1548C3.53572 32.3705 5.37805 34.6617 8.5328 34.6617H12.2648V29.6992C12.2648 26.1141 15.3645 22.9515 19.0455 22.9515H29.8866C32.9049 22.9515 35.314 20.465 35.314 17.432V7.08982C35.314 4.14596 32.8324 1.93452 29.887 1.44354C28.0224 1.13283 26.0878 0.991856 24.2321 1.00036ZM18.3622 4.32987C19.4835 4.32987 20.3988 5.26079 20.3988 6.40601C20.3988 7.54677 19.4835 8.46918 18.3626 8.46918C17.2372 8.46918 16.3256 7.54677 16.3256 6.40601C16.3256 5.26079 17.2372 4.32987 18.3622 4.32987Z" fill="#CBCBCB"/>
<path d="M36.6677 12.6089V17.432C36.6677 21.1715 33.4996 24.3187 29.887 24.3187H19.0456C16.0758 24.3187 13.6182 26.8623 13.6182 29.8382V40.1812C13.6182 43.1246 16.1762 44.856 19.0456 45.7006C22.4813 46.7114 25.7761 46.8941 29.8866 45.7006C32.6195 44.9087 35.314 43.3154 35.314 40.1812V36.0415H24.4726V34.6617H40.741C43.8958 34.6617 45.0714 32.4596 46.1684 29.1548C47.3015 25.7523 47.2533 22.4803 46.1684 18.1158C45.3887 14.9735 43.8998 12.6089 40.741 12.6089H36.6677ZM30.5699 38.801C31.6953 38.801 32.607 39.7238 32.607 40.8646C32.607 42.0098 31.6953 42.9407 30.5699 42.9407C29.4486 42.9407 28.5337 42.0098 28.5337 40.8646C28.5337 39.7238 29.4486 38.801 30.5699 38.801Z" fill="#E2E2E2"/>
</svg>
