<svg width="48" height="48" viewBox="0 0 48 48" fill="none" xmlns="http://www.w3.org/2000/svg">
<path fill-rule="evenodd" clip-rule="evenodd" d="M17.8657 1C15.3228 1.00188 13.2649 3.06132 13.2668 5.59906C13.2649 8.1368 15.3247 10.1962 17.8675 10.1981H22.4683V5.60094C22.4702 3.0632 20.4104 1.00375 17.8657 1C17.8675 1 17.8675 1 17.8657 1V1ZM17.8657 13.2667H5.60075C3.05794 13.2685 0.998126 15.328 1.00001 17.8657C0.996246 20.4035 3.05606 22.4629 5.59888 22.4667H17.8657C20.4085 22.4648 22.4683 20.4053 22.4664 17.8676C22.4683 15.328 20.4085 13.2685 17.8657 13.2667V13.2667Z" fill="#CBCBCB"/>
<path fill-rule="evenodd" clip-rule="evenodd" d="M46.9997 17.8657C47.0015 15.328 44.9417 13.2685 42.3989 13.2667C39.8561 13.2685 37.7963 15.328 37.7981 17.8657V22.4667H42.3989C44.9417 22.4648 47.0015 20.4053 46.9997 17.8657ZM34.7328 17.8657V5.59906C34.7347 3.0632 32.6768 1.00375 30.134 1C27.5911 1.00188 25.5313 3.06132 25.5332 5.59906V17.8657C25.5294 20.4035 27.5893 22.4629 30.1321 22.4667C32.6749 22.4648 34.7347 20.4053 34.7328 17.8657Z" fill="#E2E2E2"/>
<path fill-rule="evenodd" clip-rule="evenodd" d="M30.132 46.9998C32.6748 46.9979 34.7346 44.9385 34.7328 42.4007C34.7346 39.863 32.6748 37.8035 30.132 37.8017H25.5313V42.4007C25.5294 44.9366 27.5892 46.996 30.132 46.9998ZM30.132 34.7312H42.3988C44.9416 34.7294 47.0014 32.6699 46.9995 30.1322C47.0033 27.5944 44.9435 25.535 42.4007 25.5312H30.1339C27.5911 25.5331 25.5313 27.5926 25.5331 30.1303C25.5313 32.6699 27.5892 34.7294 30.132 34.7312V34.7312Z" fill="#CBCBCB"/>
<path fill-rule="evenodd" clip-rule="evenodd" d="M1 30.1323C0.998122 32.67 3.05794 34.7295 5.60076 34.7313C8.14358 34.7295 10.2034 32.67 10.2015 30.1323V25.5332H5.60076C3.05794 25.5351 0.998122 27.5945 1 30.1323ZM13.2668 30.1323V42.399C13.263 44.9367 15.3229 46.9962 17.8657 46.9999C20.4085 46.998 22.4683 44.9386 22.4664 42.4008V30.136C22.4702 27.5983 20.4104 25.5388 17.8676 25.5351C15.3229 25.5351 13.2649 27.5945 13.2668 30.1323C13.2668 30.1341 13.2668 30.1323 13.2668 30.1323Z" fill="#AFAFAF"/>
</svg>
