<svg width="48" height="48" viewBox="0 0 48 48" fill="none" xmlns="http://www.w3.org/2000/svg">
<path d="M36.0659 3.08008H6.59164C4.61625 3.08008 3 4.69347 3 6.66494V39.1061C3 41.0775 4.61625 42.6906 6.59164 42.6906H26.0041C25.7838 33.0504 29.0822 14.3418 36.0659 3.08008Z" fill="#CBCBCB"/>
<path d="M34.9954 4.12549H6.59192C5.18928 4.12549 4.04785 5.2644 4.04785 6.66456V36.7389C10.4806 34.2748 20.1354 32.1487 26.8111 32.2452C28.1526 25.2445 32.0953 11.5245 34.9954 4.12549Z" fill="#E2E2E2"/>
<path d="M42.941 2.01843C40.9223 0.221752 38.4782 0.943455 36.066 3.08011C35.708 3.39754 35.3507 3.74971 34.9952 4.12589C30.8687 8.49491 27.0384 16.5877 25.8484 22.7682C26.312 23.7065 26.6741 24.9038 26.9125 25.8184C26.9736 26.053 27.0288 26.2733 27.0728 26.4606C27.1776 26.904 27.2339 27.1915 27.2339 27.1915C27.2339 27.1915 27.1969 27.0518 27.0451 26.6125C27.0162 26.5282 26.984 26.4362 26.9458 26.3279C26.9296 26.2832 26.907 26.2289 26.8822 26.1709C26.613 25.5464 25.8684 24.2282 25.5407 23.6544C25.2604 24.4795 25.0127 25.2515 24.8054 25.9499C25.7514 27.6774 26.3279 30.6379 26.3279 30.6379C26.3279 30.6379 26.2779 30.446 26.0402 29.7764C25.8292 29.1842 24.778 27.346 24.529 26.9163C24.1031 28.4856 23.9338 29.5452 24.0864 29.8031C24.3827 30.303 24.665 31.1655 24.9128 32.1193C25.4726 34.2681 25.8617 36.8841 25.8617 36.8841C25.8617 36.8841 25.8743 37.0574 25.8954 37.3242C25.8177 39.1287 25.8643 40.9996 26.0043 42.6907C26.1898 44.9292 26.5389 46.8523 26.984 47.8815L27.2861 47.7171C26.6326 45.6894 26.3671 43.032 26.4834 39.9675C26.6593 35.2832 27.7393 29.6342 29.735 23.7464C33.1066 14.8583 37.7844 7.72701 42.0657 4.32138C38.1635 7.83861 32.8822 19.2236 31.3012 23.4397C29.531 28.1608 28.2766 32.5912 27.5205 36.836C28.8249 32.8566 33.0425 31.146 33.0425 31.146C33.0425 31.146 35.1111 28.5998 37.5285 24.9621C36.0805 25.2918 33.7027 25.856 32.9062 26.1901C31.7314 26.682 31.4149 26.8497 31.4149 26.8497C31.4149 26.8497 35.2204 24.5368 38.4853 23.4895C42.9754 16.4314 47.8672 6.40445 42.941 2.01843Z" fill="#AFAFAF"/>
</svg>
