<svg width="48" height="48" viewBox="0 0 48 48" fill="none" xmlns="http://www.w3.org/2000/svg">
<path d="M22.7417 31.4026H25.2591V24.5964H31.5908V22.1764H25.2591V15.3701H22.7417V22.1764H16.4863V24.5964H22.7417V31.4026Z" fill="#AFAFAF"/>
<path d="M11.0699 41.2342H13.2059V35.1842H18.851V33.2936H13.2059V27.168H11.0699V33.2936H5.4248V35.1842H11.0699V41.2342Z" fill="#E2E2E2"/>
<path d="M34.7945 19.3783H36.9305V13.3283H42.6519V11.5133H36.9305V5.3877H34.7945V11.5133H29.1494V13.3283H34.7945V19.3783Z" fill="#AFAFAF"/>
<path d="M23.1229 45.9984H24.9537V41.6878H28.8442V40.0997H24.9537V35.7891H23.1229V40.0997H19.3086V41.6878H23.1229V45.9984Z" fill="#CBCBCB"/>
<path d="M11.1462 19.3783H13.1296V13.2527H18.851V11.5133H13.1296V5.3877H11.1462V11.5133H5.4248V13.2527H11.1462V19.3783Z" fill="#CBCBCB"/>
<path d="M41.2781 28.4536H43.109V24.2186H46.9995V22.5548H43.109V18.3198H41.2781V22.5548H37.4639V24.2186H41.2781V28.4536Z" fill="#CBCBCB"/>
<path fill-rule="evenodd" clip-rule="evenodd" d="M34.7945 41.2342H36.9305V35.1842H42.6519V33.2936H36.9305V27.168H34.7945V33.2936H29.1494V35.1842H34.7945V41.2342Z" fill="#AFAFAF"/>
<path d="M28.539 6.44696V5.16133H24.7247V1.00195H23.3516V5.16133H19.5373V6.44696H23.3516V10.6063H24.7247V6.44696H28.539ZM4.81426 28.1514H6.1874V23.992H10.0017V22.7064H6.1874V18.6226H4.81426V22.7064H1V24.0676L4.81426 23.992V28.1514Z" fill="#CBCBCB"/>
</svg>
