<svg width="24" height="24" viewBox="0 0 24 24" fill="none" xmlns="http://www.w3.org/2000/svg">
<path d="M4 13C3.44772 13 3 13.4477 3 14C3 14.5523 3.44772 15 4 15V13ZM10 14H11C11 13.4477 10.5523 13 10 13V14ZM9 20C9 20.5523 9.44772 21 10 21C10.5523 21 11 20.5523 11 20H9ZM20 11C20.5523 11 21 10.5523 21 10C21 9.44772 20.5523 9 20 9V11ZM14 10H13C13 10.5523 13.4477 11 14 11V10ZM15 4C15 3.44772 14.5523 3 14 3C13.4477 3 13 3.44772 13 4H15ZM21.7071 3.70711C22.0976 3.31658 22.0976 2.68342 21.7071 2.29289C21.3166 1.90237 20.6834 1.90237 20.2929 2.29289L21.7071 3.70711ZM2.29289 20.2929C1.90237 20.6834 1.90237 21.3166 2.29289 21.7071C2.68342 22.0976 3.31658 22.0976 3.70711 21.7071L2.29289 20.2929ZM4 15H10V13H4V15ZM9 14V20H11V14H9ZM20 9H14V11H20V9ZM15 10V4H13V10H15ZM14.7071 10.7071L21.7071 3.70711L20.2929 2.29289L13.2929 9.29289L14.7071 10.7071ZM3.70711 21.7071L10.7071 14.7071L9.29289 13.2929L2.29289 20.2929L3.70711 21.7071Z" fill="#171717"/>
</svg>
