<svg width="24" height="24" viewBox="0 0 24 24" fill="none" xmlns="http://www.w3.org/2000/svg">
<path d="M11 9C11 9.55228 11.4477 10 12 10C12.5523 10 13 9.55228 13 9H11ZM13 6C13 5.44772 12.5523 5 12 5C11.4477 5 11 5.44772 11 6H13ZM18 9V15H20V9H18ZM6 15V9H4V15H6ZM12 21C8.68629 21 6 18.3137 6 15H4C4 19.4183 7.58172 23 12 23V21ZM18 15C18 18.3137 15.3137 21 12 21V23C16.4183 23 20 19.4183 20 15H18ZM12 3C15.3137 3 18 5.68629 18 9H20C20 4.58172 16.4183 1 12 1V3ZM12 1C7.58172 1 4 4.58172 4 9H6C6 5.68629 8.68629 3 12 3V1ZM13 9V6H11V9H13Z" fill="#171717"/>
</svg>
