<svg width="24" height="24" viewBox="0 0 24 24" fill="none" xmlns="http://www.w3.org/2000/svg">
<path d="M15.0257 17.6084L14.0342 17.4779V17.4779L15.0257 17.6084ZM17.6084 15.0257L17.4779 14.0342H17.4779L17.6084 15.0257ZM12 21C7.02944 21 3 16.9706 3 12H1C1 18.0751 5.92487 23 12 23V21ZM3 12C3 7.02944 7.02944 3 12 3V1C5.92487 1 1 5.92487 1 12H3ZM12 3C16.9706 3 21 7.02944 21 12H23C23 5.92487 18.0751 1 12 1V3ZM14 18.5V19H16V18.5H14ZM19 14H18.5V16H19V14ZM21 12C21 13.1046 20.1046 14 19 14V16C21.2091 16 23 14.2091 23 12H21ZM14 19C14 20.1046 13.1046 21 12 21V23C14.2091 23 16 21.2091 16 19H14ZM16 18.5C16 18.0038 16.0022 17.8525 16.0171 17.7389L14.0342 17.4779C13.9978 17.7542 14 18.0674 14 18.5H16ZM18.5 14C18.0674 14 17.7542 13.9978 17.4779 14.0342L17.7389 16.0171C17.8525 16.0022 18.0038 16 18.5 16V14ZM16.0171 17.7389C16.1353 16.8415 16.8415 16.1353 17.7389 16.0171L17.4779 14.0342C15.683 14.2705 14.2705 15.683 14.0342 17.4779L16.0171 17.7389ZM7 12V14C8.10457 14 9 13.1046 9 12H7ZM7 12H5C5 13.1046 5.89543 14 7 14V12ZM7 12V10C5.89543 10 5 10.8954 5 12H7ZM7 12H9C9 10.8954 8.10457 10 7 10V12ZM16 8V10C17.1046 10 18 9.10457 18 8H16ZM16 8H14C14 9.10457 14.8954 10 16 10V8ZM16 8V6C14.8954 6 14 6.89543 14 8H16ZM16 8H18C18 6.89543 17.1046 6 16 6V8ZM10 7V9C11.1046 9 12 8.10457 12 7H10ZM10 7H8C8 8.10457 8.89543 9 10 9V7ZM10 7V5C8.89543 5 8 5.89543 8 7H10ZM10 7H12C12 5.89543 11.1046 5 10 5V7Z" fill="#171717"/>
</svg>
