<svg width="24" height="24" viewBox="0 0 24 24" fill="none" xmlns="http://www.w3.org/2000/svg">
<path d="M6.09202 21.782L6.54601 20.891L6.09202 21.782ZM5.21799 20.908L6.10899 20.454L5.21799 20.908ZM18.782 20.908L17.891 20.454L18.782 20.908ZM17.908 21.782L17.454 20.891L17.908 21.782ZM17.908 2.21799L17.454 3.10899L17.908 2.21799ZM18.782 3.09202L17.891 3.54601L18.782 3.09202ZM6.09202 2.21799L6.54601 3.10899L6.09202 2.21799ZM5.21799 3.09202L6.10899 3.54601L5.21799 3.09202ZM12 16.5C11.4477 16.5 11 16.9477 11 17.5C11 18.0523 11.4477 18.5 12 18.5V16.5ZM12.01 18.5C12.5623 18.5 13.01 18.0523 13.01 17.5C13.01 16.9477 12.5623 16.5 12.01 16.5V18.5ZM8.2 3H15.8V1H8.2V3ZM18 5.2V18.8H20V5.2H18ZM15.8 21H8.2V23H15.8V21ZM6 18.8V5.2H4V18.8H6ZM8.2 21C7.62345 21 7.25117 20.9992 6.96784 20.9761C6.69617 20.9539 6.59545 20.9162 6.54601 20.891L5.63803 22.673C6.01641 22.8658 6.40963 22.9371 6.80497 22.9694C7.18864 23.0008 7.65645 23 8.2 23V21ZM4 18.8C4 19.3436 3.99922 19.8114 4.03057 20.195C4.06287 20.5904 4.13419 20.9836 4.32698 21.362L6.10899 20.454C6.0838 20.4045 6.04612 20.3038 6.02393 20.0322C6.00078 19.7488 6 19.3766 6 18.8H4ZM6.54601 20.891C6.35785 20.7951 6.20487 20.6422 6.10899 20.454L4.32698 21.362C4.6146 21.9265 5.07354 22.3854 5.63803 22.673L6.54601 20.891ZM18 18.8C18 19.3766 17.9992 19.7488 17.9761 20.0322C17.9539 20.3038 17.9162 20.4045 17.891 20.454L19.673 21.362C19.8658 20.9836 19.9371 20.5904 19.9694 20.195C20.0008 19.8114 20 19.3436 20 18.8H18ZM15.8 23C16.3436 23 16.8114 23.0008 17.195 22.9694C17.5904 22.9371 17.9836 22.8658 18.362 22.673L17.454 20.891C17.4045 20.9162 17.3038 20.9539 17.0322 20.9761C16.7488 20.9992 16.3766 21 15.8 21V23ZM17.891 20.454C17.7951 20.6422 17.6422 20.7951 17.454 20.891L18.362 22.673C18.9265 22.3854 19.3854 21.9265 19.673 21.362L17.891 20.454ZM15.8 3C16.3766 3 16.7488 3.00078 17.0322 3.02393C17.3038 3.04612 17.4045 3.0838 17.454 3.10899L18.362 1.32698C17.9836 1.13419 17.5904 1.06287 17.195 1.03057C16.8114 0.999222 16.3436 1 15.8 1V3ZM20 5.2C20 4.65645 20.0008 4.18864 19.9694 3.80497C19.9371 3.40963 19.8658 3.01641 19.673 2.63803L17.891 3.54601C17.9162 3.59545 17.9539 3.69617 17.9761 3.96784C17.9992 4.25117 18 4.62345 18 5.2H20ZM17.454 3.10899C17.6422 3.20487 17.7951 3.35785 17.891 3.54601L19.673 2.63803C19.3854 2.07354 18.9265 1.6146 18.362 1.32698L17.454 3.10899ZM8.2 1C7.65645 1 7.18864 0.999222 6.80497 1.03057C6.40963 1.06287 6.01641 1.13419 5.63803 1.32698L6.54601 3.10899C6.59545 3.0838 6.69617 3.04612 6.96784 3.02393C7.25117 3.00078 7.62345 3 8.2 3V1ZM6 5.2C6 4.62345 6.00078 4.25117 6.02393 3.96784C6.04612 3.69617 6.0838 3.59545 6.10899 3.54601L4.32698 2.63803C4.13419 3.01641 4.06287 3.40963 4.03057 3.80497C3.99922 4.18864 4 4.65645 4 5.2H6ZM5.63803 1.32698C5.07354 1.6146 4.6146 2.07354 4.32698 2.63803L6.10899 3.54601C6.20487 3.35785 6.35785 3.20487 6.54601 3.10899L5.63803 1.32698ZM12 18.5H12.01V16.5H12V18.5ZM11.5 17.5C11.5 17.2239 11.7239 17 12 17V19C12.8284 19 13.5 18.3284 13.5 17.5H11.5ZM12 17C12.2761 17 12.5 17.2239 12.5 17.5H10.5C10.5 18.3284 11.1716 19 12 19V17ZM12.5 17.5C12.5 17.7761 12.2761 18 12 18V16C11.1716 16 10.5 16.6716 10.5 17.5H12.5ZM12 18C11.7239 18 11.5 17.7761 11.5 17.5H13.5C13.5 16.6716 12.8284 16 12 16V18Z" fill="#171717"/>
</svg>
