<svg width="24" height="24" viewBox="0 0 24 24" fill="none" xmlns="http://www.w3.org/2000/svg">
<path d="M21.3083 7.46975L20.3106 7.53855V7.53855L21.3083 7.46975ZM2.69174 7.46975L3.68937 7.53855L2.69174 7.46975ZM19.5062 3.29942L19.0707 4.19961L19.5062 3.29942ZM20.8041 4.51082L21.6722 4.01443L21.6722 4.01443L20.8041 4.51082ZM4.49376 3.29942L4.05827 2.39922L4.49376 3.29942ZM3.19594 4.51082L2.32784 4.01443H2.32784L3.19594 4.51082ZM6 16.5C5.44772 16.5 5 16.9477 5 17.5C5 18.0523 5.44772 18.5 6 18.5V16.5ZM6.01 18.5C6.56228 18.5 7.01 18.0523 7.01 17.5C7.01 16.9477 6.56228 16.5 6.01 16.5V18.5ZM12 16.5C11.4477 16.5 11 16.9477 11 17.5C11 18.0523 11.4477 18.5 12 18.5V16.5ZM18 18.5C18.5523 18.5 19 18.0523 19 17.5C19 16.9477 18.5523 16.5 18 16.5V18.5ZM7.48037 4H16.5196V2H7.48037V4ZM20.3106 7.53855L21.0024 17.5688L22.9976 17.4312L22.3059 7.40095L20.3106 7.53855ZM2.99763 17.5688L3.68937 7.53855L1.69411 7.40095L1.00237 17.4312L2.99763 17.5688ZM16.5196 4C17.3248 4 17.8704 4.00073 18.2937 4.0343C18.7048 4.0669 18.9185 4.12596 19.0707 4.19961L19.9417 2.39922C19.4751 2.17346 18.9846 2.08281 18.4518 2.04056C17.9312 1.99927 17.293 2 16.5196 2V4ZM22.3059 7.40095C22.2527 6.62946 22.2095 5.99272 22.1325 5.47614C22.0537 4.94747 21.9295 4.46446 21.6722 4.01443L19.936 5.00721C20.0199 5.15404 20.0935 5.36314 20.1544 5.77104C20.217 6.19103 20.2552 6.73533 20.3106 7.53855L22.3059 7.40095ZM19.0707 4.19961C19.434 4.37536 19.7356 4.65689 19.936 5.00721L21.6722 4.01443C21.2715 3.31378 20.6683 2.75071 19.9417 2.39922L19.0707 4.19961ZM7.48037 2C6.70705 2 6.06885 1.99927 5.54819 2.04056C5.01535 2.08281 4.52494 2.17346 4.05827 2.39922L4.92925 4.19961C5.0815 4.12596 5.29517 4.0669 5.70629 4.0343C6.12959 4.00073 6.67523 4 7.48037 4V2ZM3.68937 7.53855C3.74477 6.73532 3.78304 6.19103 3.84565 5.77104C3.90646 5.36314 3.98008 5.15404 4.06403 5.00721L2.32784 4.01443C2.0705 4.46446 1.94632 4.94747 1.86751 5.47614C1.7905 5.99272 1.74732 6.62946 1.69411 7.40095L3.68937 7.53855ZM4.05827 2.39922C3.33171 2.75071 2.72848 3.31378 2.32784 4.01443L4.06403 5.00721C4.26436 4.65689 4.56597 4.37536 4.92925 4.19961L4.05827 2.39922ZM5.5 15H18.5V13H5.5V15ZM18.5 20H5.5V22H18.5V20ZM5.5 20C4.11929 20 3 18.8807 3 17.5H1C1 19.9853 3.01472 22 5.5 22V20ZM21 17.5C21 18.8807 19.8807 20 18.5 20V22C20.9853 22 23 19.9853 23 17.5H21ZM18.5 15C19.8807 15 21 16.1193 21 17.5H23C23 15.0147 20.9853 13 18.5 13V15ZM5.5 13C3.01472 13 1 15.0147 1 17.5H3C3 16.1193 4.11929 15 5.5 15V13ZM6 18.5H6.01V16.5H6V18.5ZM12 18.5H18V16.5H12V18.5Z" fill="#171717"/>
</svg>
