<svg width="24" height="24" viewBox="0 0 24 24" fill="none" xmlns="http://www.w3.org/2000/svg">
<path d="M4 11C4 10.4477 3.55228 10 3 10C2.44772 10 2 10.4477 2 11H4ZM2 21C2 21.5523 2.44772 22 3 22C3.55229 22 4 21.5523 4 21H2ZM16 11C16 10.4477 15.5523 10 15 10C14.4477 10 14 10.4477 14 11H16ZM14 21C14 21.5523 14.4477 22 15 22C15.5523 22 16 21.5523 16 21H14ZM10 3C10 2.44772 9.55228 2 9 2C8.44772 2 8 2.44772 8 3L10 3ZM8 21C8 21.5523 8.44772 22 9 22C9.55229 22 10 21.5523 10 21H8ZM22 3C22 2.44772 21.5523 2 21 2C20.4477 2 20 2.44772 20 3H22ZM20 21C20 21.5523 20.4477 22 21 22C21.5523 22 22 21.5523 22 21H20ZM2 11L2 21H4L4 11H2ZM14 11L14 21H16L16 11H14ZM8 3L8 21H10L10 3L8 3ZM20 3V21H22V3H20Z" fill="#171717"/>
</svg>
