<svg width="24" height="24" viewBox="0 0 24 24" fill="none" xmlns="http://www.w3.org/2000/svg">
<path d="M13.7765 3.10222L14.0353 2.1363V2.1363L13.7765 3.10222ZM15 7C15 7.55228 15.4477 8 16 8C16.5523 8 17 7.55228 17 7H15ZM15.8978 5.22354L16.8637 4.96472V4.96472L15.8978 5.22354ZM10.2235 3.10222L10.4824 4.06815L10.2235 3.10222ZM7 7C7 7.55228 7.44772 8 8 8C8.55228 8 9 7.55228 9 7H7ZM8.10222 5.22354L9.06815 5.48236L8.10222 5.22354ZM3.09202 20.782L3.54601 19.891L3.09202 20.782ZM2.21799 19.908L3.10899 19.454L2.21799 19.908ZM21.782 19.908L20.891 19.454L21.782 19.908ZM20.908 20.782L20.454 19.891L20.908 20.782ZM20.908 7.21799L20.454 8.10899L20.908 7.21799ZM21.782 8.09202L20.891 8.54601L21.782 8.09202ZM3.09202 7.21799L3.54601 8.10899L3.09202 7.21799ZM2.21799 8.09202L3.10899 8.54601L2.21799 8.09202ZM12 4C12.9944 4 13.2954 4.00859 13.5176 4.06815L14.0353 2.1363C13.4946 1.99141 12.8656 2 12 2V4ZM17 7C17 6.13441 17.0086 5.50545 16.8637 4.96472L14.9319 5.48236C14.9914 5.70464 15 6.00565 15 7H17ZM13.5176 4.06815C14.2078 4.25308 14.7469 4.79218 14.9319 5.48236L16.8637 4.96472C16.4938 3.58436 15.4156 2.50617 14.0353 2.1363L13.5176 4.06815ZM12 2C11.1344 2 10.5054 1.99141 9.96472 2.1363L10.4824 4.06815C10.7046 4.00859 11.0056 4 12 4V2ZM9 7C9 6.00565 9.00859 5.70464 9.06815 5.48236L7.1363 4.96472C6.99141 5.50545 7 6.13441 7 7H9ZM9.96472 2.1363C8.58436 2.50617 7.50617 3.58436 7.1363 4.96472L9.06815 5.48236C9.25308 4.79218 9.79218 4.25308 10.4824 4.06815L9.96472 2.1363ZM5.2 8H18.8V6H5.2V8ZM21 10.2V17.8H23V10.2H21ZM18.8 20H5.2V22H18.8V20ZM3 17.8V10.2H1V17.8H3ZM5.2 20C4.62345 20 4.25117 19.9992 3.96784 19.9761C3.69617 19.9539 3.59545 19.9162 3.54601 19.891L2.63803 21.673C3.01641 21.8658 3.40963 21.9371 3.80497 21.9694C4.18864 22.0008 4.65645 22 5.2 22V20ZM1 17.8C1 18.3436 0.999222 18.8114 1.03057 19.195C1.06287 19.5904 1.13419 19.9836 1.32698 20.362L3.10899 19.454C3.0838 19.4045 3.04612 19.3038 3.02393 19.0322C3.00078 18.7488 3 18.3766 3 17.8H1ZM3.54601 19.891C3.35785 19.7951 3.20487 19.6422 3.10899 19.454L1.32698 20.362C1.6146 20.9265 2.07354 21.3854 2.63803 21.673L3.54601 19.891ZM21 17.8C21 18.3766 20.9992 18.7488 20.9761 19.0322C20.9539 19.3038 20.9162 19.4045 20.891 19.454L22.673 20.362C22.8658 19.9836 22.9371 19.5904 22.9694 19.195C23.0008 18.8114 23 18.3436 23 17.8H21ZM18.8 22C19.3436 22 19.8114 22.0008 20.195 21.9694C20.5904 21.9371 20.9836 21.8658 21.362 21.673L20.454 19.891C20.4045 19.9162 20.3038 19.9539 20.0322 19.9761C19.7488 19.9992 19.3766 20 18.8 20V22ZM20.891 19.454C20.7951 19.6422 20.6422 19.7951 20.454 19.891L21.362 21.673C21.9265 21.3854 22.3854 20.9265 22.673 20.362L20.891 19.454ZM18.8 8C19.3766 8 19.7488 8.00078 20.0322 8.02393C20.3038 8.04612 20.4045 8.0838 20.454 8.10899L21.362 6.32698C20.9836 6.13419 20.5904 6.06287 20.195 6.03057C19.8114 5.99922 19.3436 6 18.8 6V8ZM23 10.2C23 9.65645 23.0008 9.18864 22.9694 8.80497C22.9371 8.40963 22.8658 8.01641 22.673 7.63803L20.891 8.54601C20.9162 8.59545 20.9539 8.69617 20.9761 8.96784C20.9992 9.25117 21 9.62345 21 10.2H23ZM20.454 8.10899C20.6422 8.20487 20.7951 8.35785 20.891 8.54601L22.673 7.63803C22.3854 7.07354 21.9265 6.6146 21.362 6.32698L20.454 8.10899ZM5.2 6C4.65645 6 4.18864 5.99922 3.80497 6.03057C3.40963 6.06287 3.01641 6.13419 2.63803 6.32698L3.54601 8.10899C3.59545 8.0838 3.69617 8.04612 3.96784 8.02393C4.25117 8.00078 4.62345 8 5.2 8V6ZM3 10.2C3 9.62345 3.00078 9.25117 3.02393 8.96784C3.04612 8.69617 3.0838 8.59545 3.10899 8.54601L1.32698 7.63803C1.13419 8.01641 1.06287 8.40963 1.03057 8.80497C0.999222 9.18864 1 9.65645 1 10.2H3ZM2.63803 6.32698C2.07354 6.6146 1.6146 7.07354 1.32698 7.63803L3.10899 8.54601C3.20487 8.35785 3.35785 8.20487 3.54601 8.10899L2.63803 6.32698Z" fill="#171717"/>
</svg>
