<svg width="24" height="24" viewBox="0 0 24 24" fill="none" xmlns="http://www.w3.org/2000/svg">
<path d="M17 20C17 20.5523 17.4477 21 18 21C18.5523 21 19 20.5523 19 20H17ZM19 4C19 3.44772 18.5523 3 18 3C17.4477 3 17 3.44772 17 4H19ZM5 20C5 20.5523 5.44772 21 6 21C6.55228 21 7 20.5523 7 20H5ZM7 16C7 15.4477 6.55228 15 6 15C5.44772 15 5 15.4477 5 16H7ZM11 20C11 20.5523 11.4477 21 12 21C12.5523 21 13 20.5523 13 20H11ZM13 10C13 9.44772 12.5523 9 12 9C11.4477 9 11 9.44772 11 10H13ZM19 20V4H17V20H19ZM7 20V16H5V20H7ZM13 20V10H11V20H13Z" fill="#171717"/>
</svg>
