<svg width="24" height="24" viewBox="0 0 24 24" fill="none" xmlns="http://www.w3.org/2000/svg">
<path d="M9.5 14.6667C9.5 14.1144 9.05228 13.6667 8.5 13.6667C7.94772 13.6667 7.5 14.1144 7.5 14.6667H9.5ZM14.5 9.33333C14.5 9.88562 14.9477 10.3333 15.5 10.3333C16.0523 10.3333 16.5 9.88562 16.5 9.33333H14.5ZM13 5.5C13 4.94772 12.5523 4.5 12 4.5C11.4477 4.5 11 4.94772 11 5.5H13ZM11 7C11 7.55228 11.4477 8 12 8C12.5523 8 13 7.55228 13 7H11ZM13 17C13 16.4477 12.5523 16 12 16C11.4477 16 11 16.4477 11 17H13ZM11 18.5C11 19.0523 11.4477 19.5 12 19.5C12.5523 19.5 13 19.0523 13 18.5H11ZM13.1667 6H11V8H13.1667V6ZM11 13H13V11H11V13ZM13 16H10.8333V18H13V16ZM10.8333 16C10.097 16 9.5 15.403 9.5 14.6667H7.5C7.5 16.5076 8.99238 18 10.8333 18V16ZM14.5 14.5C14.5 15.3284 13.8284 16 13 16V18C14.933 18 16.5 16.433 16.5 14.5H14.5ZM13 13C13.8284 13 14.5 13.6716 14.5 14.5H16.5C16.5 12.567 14.933 11 13 11V13ZM7.5 9.5C7.5 11.433 9.067 13 11 13V11C10.1716 11 9.5 10.3284 9.5 9.5H7.5ZM11 6C9.067 6 7.5 7.567 7.5 9.5H9.5C9.5 8.67157 10.1716 8 11 8V6ZM16.5 9.33333C16.5 7.49238 15.0076 6 13.1667 6V8C13.903 8 14.5 8.59695 14.5 9.33333H16.5ZM11 5.5V7H13V5.5H11ZM11 17V18.5H13V17H11ZM21 12C21 16.9706 16.9706 21 12 21V23C18.0751 23 23 18.0751 23 12H21ZM12 21C7.02944 21 3 16.9706 3 12H1C1 18.0751 5.92487 23 12 23V21ZM3 12C3 7.02944 7.02944 3 12 3V1C5.92487 1 1 5.92487 1 12H3ZM12 3C16.9706 3 21 7.02944 21 12H23C23 5.92487 18.0751 1 12 1V3Z" fill="#171717"/>
</svg>
