<svg width="24" height="24" viewBox="0 0 24 24" fill="none" xmlns="http://www.w3.org/2000/svg">
<path d="M21 22C21.5523 22 22 21.5523 22 21C22 20.4477 21.5523 20 21 20V22ZM4 3C4 2.44772 3.55228 2 3 2C2.44772 2 2 2.44772 2 3H4ZM3.54601 20.891L4 20L4 20L3.54601 20.891ZM3.10899 20.454L2.21799 20.908L2.21799 20.908L3.10899 20.454ZM21 15V16C21.5523 16 22 15.5523 22 15H21ZM7.70711 6.29289C7.31658 5.90237 6.68342 5.90237 6.29289 6.29289C5.90237 6.68342 5.90237 7.31658 6.29289 7.70711L7.70711 6.29289ZM12.1545 11.7684L12.4635 12.7195L12.1545 11.7684ZM11.8455 11.7684L11.5365 12.7195L11.8455 11.7684ZM15.5657 9.56569L14.8586 10.2728L15.5657 9.56569ZM15.1545 9.23158L15.4635 8.28052L15.1545 9.23158ZM14.8455 9.23158L14.5365 8.28052L14.8455 9.23158ZM17 14C16.4477 14 16 14.4477 16 15C16 15.5523 16.4477 16 17 16V14ZM22 11C22 10.4477 21.5523 10 21 10C20.4477 10 20 10.4477 20 11H22ZM21 20H4.6V22H21V20ZM4 19.4V3H2V19.4H4ZM4.6 20C4.30347 20 4.14122 19.9992 4.02463 19.9897C3.91972 19.9811 3.94249 19.9707 4 20L3.09202 21.782C3.36344 21.9203 3.63318 21.9644 3.86177 21.9831C4.07869 22.0008 4.33647 22 4.6 22V20ZM2 19.4C2 19.6635 1.99922 19.9213 2.01695 20.1382C2.03562 20.3668 2.07969 20.6366 2.21799 20.908L4 20C4.0293 20.0575 4.01887 20.0803 4.0103 19.9754C4.00078 19.8588 4 19.6965 4 19.4H2ZM4 20L4 20L2.21799 20.908C2.40973 21.2843 2.71569 21.5903 3.09202 21.782L4 20ZM21.7071 14.2929L16.2728 8.85858L14.8586 10.2728L20.2929 15.7071L21.7071 14.2929ZM13.7272 8.85858L11.8586 10.7272L13.2728 12.1414L15.1414 10.2728L13.7272 8.85858ZM12.1414 10.7272L7.70711 6.29289L6.29289 7.70711L10.7272 12.1414L12.1414 10.7272ZM11.8586 10.7272C11.8075 10.7783 11.7702 10.8156 11.7381 10.8467C11.7059 10.8778 11.6892 10.8928 11.6815 10.8994C11.674 10.9057 11.6859 10.8947 11.7129 10.878C11.7426 10.8597 11.7875 10.8362 11.8455 10.8174L12.4635 12.7195C12.6962 12.6439 12.8648 12.5183 12.9758 12.4241C13.078 12.3373 13.1855 12.2288 13.2728 12.1414L11.8586 10.7272ZM10.7272 12.1414C10.8145 12.2288 10.922 12.3373 11.0242 12.4241C11.1352 12.5183 11.3038 12.6439 11.5365 12.7195L12.1545 10.8174C12.2125 10.8362 12.2574 10.8597 12.2871 10.878C12.3141 10.8947 12.326 10.9057 12.3185 10.8994C12.3108 10.8928 12.2941 10.8778 12.2619 10.8467C12.2298 10.8156 12.1925 10.7783 12.1414 10.7272L10.7272 12.1414ZM11.8455 10.8174C11.9459 10.7847 12.0541 10.7847 12.1545 10.8174L11.5365 12.7195C11.8377 12.8174 12.1623 12.8174 12.4635 12.7195L11.8455 10.8174ZM16.2728 8.85858C16.1855 8.77124 16.078 8.66266 15.9758 8.57595C15.8648 8.48166 15.6962 8.35611 15.4635 8.28052L14.8455 10.1826C14.7875 10.1638 14.7426 10.1403 14.7129 10.122C14.6859 10.1053 14.674 10.0943 14.6815 10.1006C14.6892 10.1072 14.7059 10.1222 14.7381 10.1533C14.7702 10.1844 14.8075 10.2217 14.8586 10.2728L16.2728 8.85858ZM15.1414 10.2728C15.1925 10.2217 15.2298 10.1844 15.2619 10.1533C15.2941 10.1222 15.3108 10.1072 15.3185 10.1006C15.326 10.0943 15.3141 10.1053 15.2871 10.122C15.2574 10.1403 15.2125 10.1638 15.1545 10.1826L14.5365 8.28052C14.3038 8.35611 14.1352 8.48166 14.0242 8.57595C13.922 8.66266 13.8145 8.77124 13.7272 8.85858L15.1414 10.2728ZM15.4635 8.28052C15.1623 8.18263 14.8377 8.18263 14.5365 8.28052L15.1545 10.1826C15.0541 10.2153 14.9459 10.2153 14.8455 10.1826L15.4635 8.28052ZM17 16H21V14H17V16ZM22 15V11H20V15H22Z" fill="#171717"/>
</svg>
