<svg width="24" height="24" viewBox="0 0 24 24" fill="none" xmlns="http://www.w3.org/2000/svg">
<path d="M16.8 20V21V20ZM5.2 20L5.2 19H5.2V20ZM16.8 4L16.8 3H16.8V4ZM19 9.5C19 10.0523 19.4477 10.5 20 10.5C20.5523 10.5 21 10.0523 21 9.5H19ZM21 14.5C21 13.9477 20.5523 13.5 20 13.5C19.4477 13.5 19 13.9477 19 14.5H21ZM2.21799 5.09202L3.10899 5.54601L3.10899 5.54601L2.21799 5.09202ZM3.09202 4.21799L3.54601 5.10899L3.54601 5.10899L3.09202 4.21799ZM3.09202 19.782L3.54601 18.891H3.54601L3.09202 19.782ZM2.21799 18.908L3.10899 18.454L3.10899 18.454L2.21799 18.908ZM18.908 19.782L18.454 18.891L18.454 18.891L18.908 19.782ZM19.782 18.908L18.891 18.454V18.454L19.782 18.908ZM18.908 4.21799L19.362 3.32698V3.32698L18.908 4.21799ZM19.782 5.09202L18.891 5.54601V5.54601L19.782 5.09202ZM15 12H14H15ZM15.0384 11.1098L16.0192 11.3049L15.0384 11.1098ZM17.5 9.5V10.5V9.5ZM16.6098 9.53843L16.4147 8.55764L16.6098 9.53843ZM17.5 14.5V15.5V14.5ZM16.6098 14.4616L16.8049 13.4808L16.6098 14.4616ZM15.0384 12.8902L16.0192 12.6951L15.0384 12.8902ZM21.9616 12.8902L20.9808 12.6951L21.9616 12.8902ZM19.5 14.5V13.5V14.5ZM20.3902 14.4616L20.5853 15.4424L20.3902 14.4616ZM21.9616 11.1098L20.9808 11.3049L21.9616 11.1098ZM19.5 9.5V8.5V9.5ZM20.3902 9.53843L20.5853 8.55764L20.3902 9.53843ZM16.8 19L5.2 19L5.2 21L16.8 21V19ZM3 16.8V7.2H1V16.8H3ZM5.2 5H16.8V3H5.2V5ZM21 9.5V7.2H19V9.5H21ZM21 16.8V14.5H19V16.8H21ZM3 7.2C3 6.62345 3.00078 6.25117 3.02393 5.96784C3.04612 5.69617 3.0838 5.59545 3.10899 5.54601L1.32698 4.63803C1.13419 5.01641 1.06287 5.40963 1.03057 5.80497C0.999222 6.18864 1 6.65645 1 7.2H3ZM5.2 3C4.65645 3 4.18864 2.99922 3.80497 3.03057C3.40963 3.06287 3.01641 3.13419 2.63803 3.32698L3.54601 5.10899C3.59545 5.0838 3.69617 5.04612 3.96784 5.02393C4.25117 5.00078 4.62345 5 5.2 5V3ZM3.10899 5.54601C3.20487 5.35785 3.35785 5.20487 3.54601 5.10899L2.63803 3.32698C2.07354 3.6146 1.6146 4.07354 1.32698 4.63803L3.10899 5.54601ZM5.2 19C4.62345 19 4.25117 18.9992 3.96784 18.9761C3.69617 18.9539 3.59545 18.9162 3.54601 18.891L2.63803 20.673C3.01641 20.8658 3.40963 20.9371 3.80497 20.9694C4.18864 21.0008 4.65645 21 5.2 21V19ZM1 16.8C1 17.3435 0.999222 17.8114 1.03057 18.195C1.06287 18.5904 1.13419 18.9836 1.32698 19.362L3.10899 18.454C3.0838 18.4045 3.04612 18.3038 3.02393 18.0322C3.00078 17.7488 3 17.3766 3 16.8H1ZM3.54601 18.891C3.35785 18.7951 3.20487 18.6422 3.10899 18.454L1.32698 19.362C1.6146 19.9265 2.07354 20.3854 2.63803 20.673L3.54601 18.891ZM16.8 21C17.3436 21 17.8114 21.0008 18.195 20.9694C18.5904 20.9371 18.9836 20.8658 19.362 20.673L18.454 18.891C18.4045 18.9162 18.3038 18.9539 18.0322 18.9761C17.7488 18.9992 17.3766 19 16.8 19V21ZM19 16.8C19 17.3766 18.9992 17.7488 18.9761 18.0322C18.9539 18.3038 18.9162 18.4045 18.891 18.454L20.673 19.362C20.8658 18.9836 20.9371 18.5904 20.9694 18.195C21.0008 17.8114 21 17.3436 21 16.8H19ZM19.362 20.673C19.9265 20.3854 20.3854 19.9265 20.673 19.362L18.891 18.454C18.7951 18.6422 18.6422 18.7951 18.454 18.891L19.362 20.673ZM16.8 5C17.3765 5 17.7488 5.00078 18.0322 5.02393C18.3038 5.04613 18.4045 5.0838 18.454 5.109L19.362 3.32698C18.9836 3.13419 18.5904 3.06287 18.195 3.03057C17.8114 2.99922 17.3435 3 16.8 3L16.8 5ZM21 7.2C21 6.65645 21.0008 6.18864 20.9694 5.80497C20.9371 5.40963 20.8658 5.01641 20.673 4.63803L18.891 5.54601C18.9162 5.59546 18.9539 5.69617 18.9761 5.96784C18.9992 6.25117 19 6.62345 19 7.2H21ZM18.454 5.109C18.6422 5.20487 18.7951 5.35785 18.891 5.54601L20.673 4.63803C20.3854 4.07354 19.9265 3.6146 19.362 3.32698L18.454 5.109ZM19.5 13.5H17.5V15.5H19.5V13.5ZM17.5 10.5H19.5V8.5H17.5V10.5ZM16 12C16 11.4874 16.0048 11.3772 16.0192 11.3049L14.0576 10.9147C13.9952 11.2289 14 11.5833 14 12H16ZM17.5 8.5C17.0833 8.5 16.7289 8.49516 16.4147 8.55764L16.8049 10.5192C16.8772 10.5048 16.9874 10.5 17.5 10.5V8.5ZM16.0192 11.3049C16.0981 10.9082 16.4082 10.5981 16.8049 10.5192L16.4147 8.55764C15.2247 8.79436 14.2944 9.72466 14.0576 10.9147L16.0192 11.3049ZM17.5 13.5C16.9874 13.5 16.8772 13.4952 16.8049 13.4808L16.4147 15.4424C16.7289 15.5048 17.0833 15.5 17.5 15.5V13.5ZM14 12C14 12.4167 13.9952 12.7711 14.0576 13.0853L16.0192 12.6951C16.0048 12.6228 16 12.5126 16 12H14ZM16.8049 13.4808C16.4082 13.4019 16.0981 13.0918 16.0192 12.6951L14.0576 13.0853C14.2944 14.2753 15.2247 15.2056 16.4147 15.4424L16.8049 13.4808ZM21 12C21 12.5126 20.9952 12.6228 20.9808 12.6951L22.9424 13.0853C23.0048 12.7711 23 12.4167 23 12H21ZM19.5 15.5C19.9167 15.5 20.2711 15.5048 20.5853 15.4424L20.1951 13.4808C20.1228 13.4952 20.0126 13.5 19.5 13.5V15.5ZM20.9808 12.6951C20.9019 13.0918 20.5918 13.4019 20.1951 13.4808L20.5853 15.4424C21.7753 15.2056 22.7056 14.2753 22.9424 13.0853L20.9808 12.6951ZM23 12C23 11.5833 23.0048 11.2289 22.9424 10.9147L20.9808 11.3049C20.9952 11.3772 21 11.4874 21 12H23ZM19.5 10.5C20.0126 10.5 20.1228 10.5048 20.1951 10.5192L20.5853 8.55764C20.2711 8.49516 19.9167 8.5 19.5 8.5V10.5ZM22.9424 10.9147C22.7056 9.72466 21.7753 8.79436 20.5853 8.55764L20.1951 10.5192C20.5918 10.5981 20.9019 10.9082 20.9808 11.3049L22.9424 10.9147Z" fill="#171717"/>
</svg>
